<?xml version="1.0" encoding="UTF-8"?>
<svg xmlns="http://www.w3.org/2000/svg" xmlns:xlink="http://www.w3.org/1999/xlink" width="148.8pt" height="220pt" viewBox="0 0 148.8 220" version="1.1">
<g id="surface1492">
<path style=" stroke:none;fill-rule:nonzero;fill:rgb(0%,0%,0%);fill-opacity:1;" d="M 83.425781 91.058594 L 81.378906 87.804688 C 81.382812 87.890625 81.386719 87.976562 81.386719 88.0625 C 81.394531 88.136719 81.398438 88.214844 81.398438 88.304688 C 81.40625 88.382812 81.410156 88.453125 81.410156 88.519531 L 81.410156 91.058594 L 80.945312 91.058594 L 80.945312 87.238281 L 81.550781 87.238281 L 83.613281 90.515625 C 83.613281 90.515625 83.605469 90.425781 83.601562 90.246094 C 83.59375 90.175781 83.585938 90.09375 83.578125 90.007812 C 83.578125 89.914062 83.578125 89.828125 83.578125 89.746094 L 83.578125 87.238281 L 84.046875 87.238281 L 84.046875 91.058594 Z M 83.425781 91.058594 "/>
<path style=" stroke:none;fill-rule:nonzero;fill:rgb(0%,0%,0%);fill-opacity:1;" d="M 126.28125 72.152344 L 124.230469 68.898438 C 124.238281 68.984375 124.242188 69.070312 124.242188 69.15625 C 124.246094 69.230469 124.253906 69.308594 124.253906 69.394531 C 124.257812 69.476562 124.265625 69.546875 124.265625 69.613281 L 124.265625 72.152344 L 123.796875 72.152344 L 123.796875 68.332031 L 124.40625 68.332031 L 126.464844 71.609375 C 126.464844 71.609375 126.460938 71.519531 126.453125 71.335938 C 126.445312 71.265625 126.4375 71.1875 126.433594 71.097656 C 126.433594 71.007812 126.433594 70.921875 126.433594 70.839844 L 126.433594 68.332031 L 126.898438 68.332031 L 126.898438 72.152344 Z M 126.28125 72.152344 "/>
<path style=" stroke:none;fill-rule:nonzero;fill:rgb(0%,0%,0%);fill-opacity:1;" d="M 108.554688 22.484375 C 108.554688 22.78125 108.511719 23.050781 108.421875 23.296875 C 108.335938 23.542969 108.210938 23.753906 108.042969 23.925781 C 107.882812 24.097656 107.6875 24.234375 107.445312 24.328125 C 107.214844 24.417969 106.949219 24.46875 106.65625 24.46875 C 106.335938 24.46875 106.058594 24.417969 105.820312 24.328125 C 105.585938 24.226562 105.390625 24.089844 105.234375 23.914062 C 105.074219 23.734375 104.957031 23.523438 104.878906 23.285156 C 104.796875 23.042969 104.757812 22.773438 104.757812 22.484375 C 104.757812 22.1875 104.796875 21.917969 104.878906 21.679688 C 104.964844 21.4375 105.085938 21.230469 105.246094 21.0625 C 105.410156 20.894531 105.609375 20.765625 105.84375 20.671875 C 106.082031 20.578125 106.351562 20.53125 106.65625 20.53125 C 106.960938 20.53125 107.230469 20.578125 107.46875 20.671875 C 107.707031 20.765625 107.90625 20.898438 108.066406 21.070312 C 108.222656 21.242188 108.34375 21.441406 108.421875 21.679688 C 108.511719 21.917969 108.554688 22.1875 108.554688 22.484375 Z M 108.023438 22.484375 C 108.023438 22.253906 107.992188 22.042969 107.933594 21.851562 C 107.875 21.667969 107.789062 21.507812 107.675781 21.375 C 107.558594 21.242188 107.414062 21.132812 107.242188 21.0625 C 107.074219 20.992188 106.878906 20.953125 106.65625 20.953125 C 106.429688 20.953125 106.234375 20.992188 106.058594 21.0625 C 105.886719 21.132812 105.738281 21.242188 105.625 21.375 C 105.515625 21.507812 105.433594 21.667969 105.375 21.851562 C 105.316406 22.042969 105.289062 22.253906 105.289062 22.484375 C 105.289062 22.714844 105.316406 22.925781 105.375 23.121094 C 105.433594 23.3125 105.519531 23.476562 105.636719 23.609375 C 105.75 23.75 105.890625 23.859375 106.058594 23.9375 C 106.234375 24.011719 106.429688 24.046875 106.65625 24.046875 C 106.894531 24.046875 107.101562 24.011719 107.273438 23.9375 C 107.445312 23.859375 107.589844 23.75 107.695312 23.609375 C 107.804688 23.46875 107.882812 23.300781 107.933594 23.113281 C 107.992188 22.917969 108.023438 22.707031 108.023438 22.484375 Z M 108.023438 22.484375 "/>
<path style=" stroke:none;fill-rule:nonzero;fill:rgb(0%,0%,0%);fill-opacity:1;" d="M 120.125 15.480469 C 119.910156 15.480469 119.71875 15.519531 119.550781 15.589844 C 119.382812 15.664062 119.242188 15.769531 119.128906 15.90625 C 119.019531 16.035156 118.9375 16.195312 118.878906 16.382812 C 118.820312 16.570312 118.792969 16.78125 118.792969 17.011719 C 118.792969 17.246094 118.820312 17.457031 118.878906 17.652344 C 118.945312 17.839844 119.035156 18.003906 119.152344 18.140625 C 119.265625 18.277344 119.40625 18.386719 119.574219 18.464844 C 119.746094 18.539062 119.9375 18.574219 120.148438 18.574219 C 120.300781 18.574219 120.433594 18.558594 120.550781 18.519531 C 120.671875 18.476562 120.78125 18.417969 120.886719 18.347656 C 120.984375 18.273438 121.074219 18.191406 121.144531 18.097656 C 121.226562 18.003906 121.292969 17.894531 121.351562 17.769531 L 121.773438 17.988281 C 121.710938 18.132812 121.625 18.265625 121.527344 18.390625 C 121.421875 18.515625 121.304688 18.621094 121.167969 18.714844 C 121.03125 18.800781 120.875 18.871094 120.703125 18.921875 C 120.527344 18.96875 120.335938 18.996094 120.125 18.996094 C 119.816406 18.996094 119.542969 18.949219 119.3125 18.855469 C 119.082031 18.753906 118.886719 18.617188 118.726562 18.445312 C 118.574219 18.265625 118.460938 18.054688 118.382812 17.8125 C 118.300781 17.570312 118.261719 17.300781 118.261719 17.011719 C 118.261719 16.714844 118.300781 16.445312 118.382812 16.207031 C 118.46875 15.964844 118.589844 15.757812 118.75 15.589844 C 118.90625 15.425781 119.101562 15.292969 119.335938 15.199219 C 119.566406 15.105469 119.828125 15.058594 120.125 15.058594 C 120.53125 15.058594 120.867188 15.140625 121.136719 15.296875 C 121.410156 15.457031 121.613281 15.695312 121.742188 16.011719 L 121.253906 16.175781 C 121.214844 16.082031 121.167969 15.996094 121.101562 15.914062 C 121.042969 15.828125 120.96875 15.757812 120.875 15.699219 C 120.78125 15.632812 120.671875 15.585938 120.550781 15.546875 C 120.425781 15.503906 120.285156 15.480469 120.125 15.480469 Z M 120.125 15.480469 "/>
<path style=" stroke:none;fill-rule:nonzero;fill:rgb(0%,0%,0%);fill-opacity:1;" d="M 130.820312 111.414062 L 129.835938 109.832031 L 128.640625 109.832031 L 128.640625 111.414062 L 128.121094 111.414062 L 128.121094 107.59375 L 129.921875 107.59375 C 130.140625 107.59375 130.328125 107.621094 130.496094 107.671875 C 130.660156 107.714844 130.804688 107.785156 130.917969 107.878906 C 131.035156 107.972656 131.121094 108.089844 131.179688 108.226562 C 131.238281 108.363281 131.265625 108.515625 131.265625 108.679688 C 131.265625 108.804688 131.246094 108.925781 131.210938 109.050781 C 131.175781 109.167969 131.117188 109.273438 131.039062 109.375 C 130.964844 109.46875 130.871094 109.554688 130.757812 109.625 C 130.640625 109.691406 130.5 109.738281 130.332031 109.765625 L 131.417969 111.414062 Z M 130.746094 108.691406 C 130.746094 108.578125 130.722656 108.472656 130.679688 108.386719 C 130.644531 108.300781 130.585938 108.234375 130.507812 108.179688 C 130.433594 108.125 130.34375 108.082031 130.234375 108.050781 C 130.128906 108.023438 130.003906 108.007812 129.867188 108.007812 L 128.640625 108.007812 L 128.640625 109.417969 L 129.890625 109.417969 C 130.042969 109.417969 130.171875 109.402344 130.28125 109.363281 C 130.386719 109.328125 130.476562 109.277344 130.539062 109.210938 C 130.609375 109.148438 130.660156 109.070312 130.691406 108.984375 C 130.726562 108.890625 130.746094 108.792969 130.746094 108.691406 Z M 130.746094 108.691406 "/>
<path style=" stroke:none;fill-rule:nonzero;fill:rgb(0%,0%,0%);fill-opacity:1;" d="M 132.261719 111.414062 L 132.261719 111.003906 L 133.238281 111.003906 L 133.238281 108.0625 L 132.371094 108.667969 L 132.371094 108.214844 L 133.28125 107.59375 L 133.726562 107.59375 L 133.726562 111.003906 L 134.660156 111.003906 L 134.660156 111.414062 Z M 132.261719 111.414062 "/>
<path style=" stroke:none;fill-rule:nonzero;fill:rgb(0%,0%,0%);fill-opacity:1;" d="M 16.566406 68.628906 L 15.582031 67.042969 L 14.386719 67.042969 L 14.386719 68.628906 L 13.867188 68.628906 L 13.867188 64.808594 L 15.667969 64.808594 C 15.882812 64.808594 16.074219 64.835938 16.242188 64.882812 C 16.40625 64.929688 16.546875 65 16.664062 65.089844 C 16.777344 65.1875 16.867188 65.300781 16.925781 65.4375 C 16.980469 65.578125 17.011719 65.726562 17.011719 65.894531 C 17.011719 66.019531 16.992188 66.140625 16.957031 66.261719 C 16.917969 66.378906 16.863281 66.488281 16.785156 66.589844 C 16.710938 66.683594 16.617188 66.765625 16.503906 66.835938 C 16.386719 66.902344 16.246094 66.953125 16.078125 66.980469 L 17.164062 68.628906 Z M 16.492188 65.90625 C 16.492188 65.789062 16.46875 65.6875 16.425781 65.601562 C 16.386719 65.515625 16.332031 65.445312 16.253906 65.394531 C 16.179688 65.335938 16.089844 65.292969 15.980469 65.265625 C 15.875 65.238281 15.75 65.222656 15.613281 65.222656 L 14.386719 65.222656 L 14.386719 66.632812 L 15.632812 66.632812 C 15.785156 66.632812 15.917969 66.613281 16.023438 66.578125 C 16.132812 66.542969 16.21875 66.492188 16.285156 66.425781 C 16.355469 66.359375 16.40625 66.285156 16.4375 66.199219 C 16.472656 66.105469 16.492188 66.007812 16.492188 65.90625 Z M 16.492188 65.90625 "/>
<path style=" stroke:none;fill-rule:nonzero;fill:rgb(0%,0%,0%);fill-opacity:1;" d="M 17.867188 68.628906 L 17.867188 68.28125 C 17.960938 68.070312 18.074219 67.886719 18.203125 67.726562 C 18.332031 67.5625 18.46875 67.414062 18.617188 67.28125 C 18.769531 67.152344 18.914062 67.03125 19.058594 66.925781 C 19.203125 66.808594 19.335938 66.695312 19.449219 66.589844 C 19.566406 66.472656 19.65625 66.355469 19.722656 66.230469 C 19.792969 66.109375 19.832031 65.96875 19.832031 65.808594 C 19.832031 65.699219 19.8125 65.605469 19.777344 65.523438 C 19.746094 65.445312 19.699219 65.378906 19.636719 65.320312 C 19.574219 65.261719 19.503906 65.21875 19.417969 65.1875 C 19.335938 65.160156 19.246094 65.144531 19.136719 65.144531 C 19.042969 65.144531 18.953125 65.160156 18.867188 65.1875 C 18.777344 65.21875 18.695312 65.261719 18.625 65.320312 C 18.5625 65.371094 18.507812 65.433594 18.464844 65.515625 C 18.425781 65.59375 18.402344 65.6875 18.386719 65.796875 L 17.890625 65.753906 C 17.902344 65.617188 17.9375 65.488281 17.996094 65.363281 C 18.0625 65.238281 18.144531 65.132812 18.246094 65.046875 C 18.355469 64.953125 18.480469 64.882812 18.625 64.832031 C 18.769531 64.773438 18.941406 64.742188 19.136719 64.742188 C 19.324219 64.742188 19.488281 64.769531 19.636719 64.820312 C 19.785156 64.863281 19.910156 64.929688 20.015625 65.015625 C 20.125 65.101562 20.203125 65.210938 20.253906 65.339844 C 20.308594 65.46875 20.339844 65.621094 20.339844 65.796875 C 20.339844 65.925781 20.3125 66.050781 20.265625 66.164062 C 20.222656 66.28125 20.160156 66.394531 20.078125 66.5 C 20.007812 66.605469 19.917969 66.703125 19.820312 66.804688 C 19.714844 66.898438 19.609375 66.996094 19.496094 67.085938 C 19.386719 67.175781 19.273438 67.265625 19.15625 67.359375 C 19.050781 67.453125 18.945312 67.546875 18.84375 67.640625 C 18.75 67.726562 18.660156 67.820312 18.582031 67.910156 C 18.503906 68.007812 18.441406 68.105469 18.398438 68.214844 L 20.394531 68.214844 L 20.394531 68.628906 Z M 17.867188 68.628906 "/>
<path style="fill:none;stroke-width:0.0333333;stroke-linecap:butt;stroke-linejoin:miter;stroke:rgb(0%,0%,0%);stroke-opacity:1;stroke-miterlimit:10;" d="M 4.260575 2.637111 L 3.300602 2.637111 " transform="matrix(17.350746,0,0,17.361111,17.130526,17.029328)"/>
<path style="fill:none;stroke-width:0.0333333;stroke-linecap:butt;stroke-linejoin:miter;stroke:rgb(0%,0%,0%);stroke-opacity:1;stroke-miterlimit:10;" d="M 4.248643 2.642286 L 4.933052 1.933761 " transform="matrix(17.350746,0,0,17.361111,17.130526,17.029328)"/>
<path style="fill:none;stroke-width:0.0333333;stroke-linecap:butt;stroke-linejoin:miter;stroke:rgb(0%,0%,0%);stroke-opacity:1;stroke-miterlimit:10;" d="M 4.253371 2.637111 L 4.556852 3.613386 " transform="matrix(17.350746,0,0,17.361111,17.130526,17.029328)"/>
<path style="fill:none;stroke-width:0.0333333;stroke-linecap:butt;stroke-linejoin:miter;stroke:rgb(0%,0%,0%);stroke-opacity:1;stroke-miterlimit:10;" d="M 4.441809 2.681886 L 4.686755 3.470061 " transform="matrix(17.350746,0,0,17.361111,17.130526,17.029328)"/>
<path style="fill:none;stroke-width:0.0333333;stroke-linecap:butt;stroke-linejoin:miter;stroke:rgb(0%,0%,0%);stroke-opacity:1;stroke-miterlimit:10;" d="M 3.316362 2.626311 L 2.965602 3.578736 " transform="matrix(17.350746,0,0,17.361111,17.130526,17.029328)"/>
<path style="fill:none;stroke-width:0.0333333;stroke-linecap:butt;stroke-linejoin:miter;stroke:rgb(0%,0%,0%);stroke-opacity:1;stroke-miterlimit:10;" d="M 3.312309 2.637111 L 2.656718 1.887411 " transform="matrix(17.350746,0,0,17.361111,17.130526,17.029328)"/>
<path style="fill:none;stroke-width:0.0333333;stroke-linecap:butt;stroke-linejoin:miter;stroke:rgb(0%,0%,0%);stroke-opacity:1;stroke-miterlimit:10;" d="M 3.121846 2.672436 L 2.591429 2.066061 " transform="matrix(17.350746,0,0,17.361111,17.130526,17.029328)"/>
<path style="fill:none;stroke-width:0.0333333;stroke-linecap:butt;stroke-linejoin:miter;stroke:rgb(0%,0%,0%);stroke-opacity:1;stroke-miterlimit:10;" d="M 4.926298 1.940736 L 5.892124 2.145036 " transform="matrix(17.350746,0,0,17.361111,17.130526,17.029328)"/>
<path style="fill:none;stroke-width:0.0333333;stroke-linecap:butt;stroke-linejoin:miter;stroke:rgb(0%,0%,0%);stroke-opacity:1;stroke-miterlimit:10;" d="M 4.982131 2.122986 L 5.768976 2.289486 " transform="matrix(17.350746,0,0,17.361111,17.130526,17.029328)"/>
<path style="fill:none;stroke-width:0.0333333;stroke-linecap:butt;stroke-linejoin:miter;stroke:rgb(0%,0%,0%);stroke-opacity:1;stroke-miterlimit:10;" d="M 4.929225 1.950411 L 4.643754 1.022961 " transform="matrix(17.350746,0,0,17.361111,17.130526,17.029328)"/>
<path style="fill:none;stroke-width:0.0333333;stroke-linecap:butt;stroke-linejoin:miter;stroke:rgb(0%,0%,0%);stroke-opacity:1;stroke-miterlimit:10;" d="M 4.562706 3.609336 L 3.929177 4.043361 " transform="matrix(17.350746,0,0,17.361111,17.130526,17.029328)"/>
<path style="fill:none;stroke-width:0.0333333;stroke-linecap:butt;stroke-linejoin:miter;stroke:rgb(0%,0%,0%);stroke-opacity:1;stroke-miterlimit:10;" d="M 4.549873 3.612036 L 5.56703 3.821061 " transform="matrix(17.350746,0,0,17.361111,17.130526,17.029328)"/>
<path style="fill:none;stroke-width:0.0333333;stroke-linecap:butt;stroke-linejoin:miter;stroke:rgb(0%,0%,0%);stroke-opacity:1;stroke-miterlimit:10;" d="M 2.96988 3.566811 L 1.952948 3.735561 " transform="matrix(17.350746,0,0,17.361111,17.130526,17.029328)"/>
<path style="fill:none;stroke-width:0.0333333;stroke-linecap:butt;stroke-linejoin:miter;stroke:rgb(0%,0%,0%);stroke-opacity:1;stroke-miterlimit:10;" d="M 2.846956 3.418311 L 2.022739 3.555111 " transform="matrix(17.350746,0,0,17.361111,17.130526,17.029328)"/>
<path style="fill:none;stroke-width:0.0333333;stroke-linecap:butt;stroke-linejoin:miter;stroke:rgb(0%,0%,0%);stroke-opacity:1;stroke-miterlimit:10;" d="M 2.671802 1.892811 L 1.692467 2.043561 " transform="matrix(17.350746,0,0,17.361111,17.130526,17.029328)"/>
<path style="fill:none;stroke-width:0.0333333;stroke-linecap:butt;stroke-linejoin:miter;stroke:rgb(0%,0%,0%);stroke-opacity:1;stroke-miterlimit:10;" d="M 5.879967 2.134686 L 6.168815 2.887086 " transform="matrix(17.350746,0,0,17.361111,17.130526,17.029328)"/>
<path style="fill:none;stroke-width:0.0333333;stroke-linecap:butt;stroke-linejoin:miter;stroke:rgb(0%,0%,0%);stroke-opacity:1;stroke-miterlimit:10;" d="M 4.641503 1.037586 L 5.033687 0.490836 " transform="matrix(17.350746,0,0,17.361111,17.130526,17.029328)"/>
<path style="fill:none;stroke-width:0.0333333;stroke-linecap:butt;stroke-linejoin:miter;stroke:rgb(0%,0%,0%);stroke-opacity:1;stroke-miterlimit:10;" d="M 1.968707 3.741861 L 1.335629 2.938611 " transform="matrix(17.350746,0,0,17.361111,17.130526,17.029328)"/>
<path style="fill:none;stroke-width:0.0333333;stroke-linecap:butt;stroke-linejoin:miter;stroke:rgb(0%,0%,0%);stroke-opacity:1;stroke-miterlimit:10;" d="M 5.345498 0.239061 L 5.75119 0.0732357 " transform="matrix(17.350746,0,0,17.361111,17.130526,17.029328)"/>
<path style="fill:none;stroke-width:0.0333333;stroke-linecap:butt;stroke-linejoin:miter;stroke:rgb(0%,0%,0%);stroke-opacity:1;stroke-miterlimit:10;" d="M 2.959974 3.559386 L 3.607911 4.036836 " transform="matrix(17.350746,0,0,17.361111,17.130526,17.029328)"/>
<path style="fill:none;stroke-width:0.0333333;stroke-linecap:butt;stroke-linejoin:miter;stroke:rgb(0%,0%,0%);stroke-opacity:1;stroke-miterlimit:10;" d="M 5.560276 3.819486 L 6.101725 3.216036 " transform="matrix(17.350746,0,0,17.361111,17.130526,17.029328)"/>
<path style="fill:none;stroke-width:0.0333333;stroke-linecap:butt;stroke-linejoin:miter;stroke:rgb(0%,0%,0%);stroke-opacity:1;stroke-miterlimit:10;" d="M 5.500165 3.637011 L 5.977675 3.104661 " transform="matrix(17.350746,0,0,17.361111,17.130526,17.029328)"/>
<path style="fill:none;stroke-width:0.0333333;stroke-linecap:butt;stroke-linejoin:miter;stroke:rgb(0%,0%,0%);stroke-opacity:1;stroke-miterlimit:10;" d="M 1.705525 2.033436 L 1.340132 2.944461 " transform="matrix(17.350746,0,0,17.361111,17.130526,17.029328)"/>
<path style="fill:none;stroke-width:0.0333333;stroke-linecap:butt;stroke-linejoin:miter;stroke:rgb(0%,0%,0%);stroke-opacity:1;stroke-miterlimit:10;" d="M 1.824621 2.183511 L 1.530821 2.917011 " transform="matrix(17.350746,0,0,17.361111,17.130526,17.029328)"/>
<path style="fill:none;stroke-width:0.0333333;stroke-linecap:butt;stroke-linejoin:miter;stroke:rgb(0%,0%,0%);stroke-opacity:1;stroke-miterlimit:10;" d="M 6.442803 5.117286 L 5.556674 3.813861 " transform="matrix(17.350746,0,0,17.361111,17.130526,17.029328)"/>
<path style="fill:none;stroke-width:0.0333333;stroke-linecap:butt;stroke-linejoin:miter;stroke:rgb(0%,0%,0%);stroke-opacity:1;stroke-miterlimit:10;" d="M 0.237649 2.875161 L 1.347786 2.944911 " transform="matrix(17.350746,0,0,17.361111,17.130526,17.029328)"/>
<path style=" stroke:none;fill-rule:nonzero;fill:rgb(0%,0%,0%);fill-opacity:1;" d="M 19.832031 140.355469 L 18.84375 138.769531 L 17.652344 138.769531 L 17.652344 140.355469 L 17.132812 140.355469 L 17.132812 136.535156 L 18.929688 136.535156 C 19.148438 136.535156 19.339844 136.5625 19.507812 136.609375 C 19.671875 136.652344 19.8125 136.722656 19.929688 136.816406 C 20.042969 136.910156 20.128906 137.027344 20.1875 137.164062 C 20.246094 137.300781 20.277344 137.453125 20.277344 137.621094 C 20.277344 137.742188 20.257812 137.867188 20.222656 137.988281 C 20.183594 138.105469 20.125 138.214844 20.046875 138.3125 C 19.976562 138.410156 19.878906 138.492188 19.765625 138.5625 C 19.648438 138.628906 19.507812 138.675781 19.34375 138.703125 L 20.429688 140.355469 Z M 19.753906 137.628906 C 19.753906 137.515625 19.734375 137.414062 19.691406 137.328125 C 19.652344 137.238281 19.59375 137.171875 19.515625 137.121094 C 19.445312 137.0625 19.355469 137.019531 19.246094 136.988281 C 19.136719 136.960938 19.011719 136.945312 18.878906 136.945312 L 17.652344 136.945312 L 17.652344 138.355469 L 18.898438 138.355469 C 19.050781 138.355469 19.179688 138.339844 19.289062 138.304688 C 19.398438 138.269531 19.484375 138.214844 19.550781 138.152344 C 19.621094 138.085938 19.671875 138.011719 19.703125 137.921875 C 19.738281 137.832031 19.753906 137.734375 19.753906 137.628906 Z M 19.753906 137.628906 "/>
<path style=" stroke:none;fill-rule:nonzero;fill:rgb(0%,0%,0%);fill-opacity:1;" d="M 21.273438 140.355469 L 21.273438 139.941406 L 22.25 139.941406 L 22.25 137 L 21.382812 137.609375 L 21.382812 137.152344 L 22.292969 136.535156 L 22.738281 136.535156 L 22.738281 139.941406 L 23.667969 139.941406 L 23.667969 140.355469 Z M 21.273438 140.355469 "/>
<path style=" stroke:none;fill-rule:nonzero;fill:rgb(0%,0%,0%);fill-opacity:1;" d="M 24.335938 138.03125 L 24.335938 137.628906 L 27.035156 137.628906 L 27.035156 138.03125 Z M 24.335938 139.421875 L 24.335938 139.019531 L 27.035156 139.019531 L 27.035156 139.421875 Z M 24.335938 139.421875 "/>
<path style=" stroke:none;fill-rule:nonzero;fill:rgb(0%,0%,0%);fill-opacity:1;" d="M 17.132812 142.667969 L 17.132812 142.460938 L 18.292969 141.960938 L 17.132812 141.464844 L 17.132812 141.257812 L 18.476562 141.820312 L 18.476562 142.101562 Z M 17.132812 142.667969 "/>
<path style=" stroke:none;fill-rule:nonzero;fill:rgb(0%,0%,0%);fill-opacity:1;" d="M 20.113281 141.917969 C 20.113281 142.101562 20.09375 142.253906 20.058594 142.386719 C 20.027344 142.511719 19.980469 142.609375 19.917969 142.6875 C 19.859375 142.761719 19.789062 142.816406 19.710938 142.851562 C 19.628906 142.886719 19.542969 142.90625 19.449219 142.90625 C 19.355469 142.90625 19.269531 142.886719 19.191406 142.851562 C 19.109375 142.816406 19.039062 142.761719 18.972656 142.6875 C 18.914062 142.609375 18.867188 142.511719 18.832031 142.386719 C 18.804688 142.253906 18.789062 142.101562 18.789062 141.917969 C 18.789062 141.722656 18.804688 141.566406 18.832031 141.441406 C 18.867188 141.3125 18.914062 141.210938 18.972656 141.136719 C 19.039062 141.066406 19.109375 141.015625 19.191406 140.984375 C 19.269531 140.949219 19.359375 140.929688 19.460938 140.929688 C 19.546875 140.929688 19.628906 140.949219 19.710938 140.984375 C 19.789062 141.015625 19.859375 141.066406 19.917969 141.136719 C 19.980469 141.210938 20.027344 141.3125 20.058594 141.441406 C 20.09375 141.566406 20.113281 141.722656 20.113281 141.917969 Z M 19.875 141.917969 C 19.875 141.765625 19.863281 141.640625 19.839844 141.539062 C 19.824219 141.4375 19.800781 141.359375 19.765625 141.300781 C 19.726562 141.234375 19.683594 141.191406 19.636719 141.171875 C 19.582031 141.144531 19.527344 141.125 19.460938 141.125 C 19.386719 141.125 19.328125 141.144531 19.277344 141.171875 C 19.226562 141.191406 19.183594 141.234375 19.148438 141.300781 C 19.109375 141.359375 19.082031 141.4375 19.0625 141.539062 C 19.042969 141.640625 19.039062 141.765625 19.039062 141.917969 C 19.039062 142.066406 19.042969 142.1875 19.0625 142.289062 C 19.082031 142.390625 19.109375 142.472656 19.148438 142.539062 C 19.183594 142.597656 19.226562 142.640625 19.277344 142.667969 C 19.328125 142.6875 19.386719 142.699219 19.449219 142.699219 C 19.515625 142.699219 19.574219 142.6875 19.625 142.667969 C 19.671875 142.640625 19.714844 142.597656 19.753906 142.539062 C 19.789062 142.472656 19.820312 142.390625 19.839844 142.289062 C 19.863281 142.1875 19.875 142.066406 19.875 141.917969 Z M 19.875 141.917969 "/>
<path style=" stroke:none;fill-rule:nonzero;fill:rgb(0%,0%,0%);fill-opacity:1;" d="M 44.15625 146.058594 L 44.875 145.789062 L 44.992188 146.144531 L 44.234375 146.339844 L 44.730469 147.011719 L 44.40625 147.207031 L 44.003906 146.515625 L 43.582031 147.207031 L 43.257812 147.011719 L 43.765625 146.339844 L 43.007812 146.144531 L 43.136719 145.777344 L 43.855469 146.070312 L 43.820312 145.265625 L 44.191406 145.265625 Z M 44.15625 146.058594 "/>
<path style=" stroke:none;fill-rule:nonzero;fill:rgb(0%,0%,0%);fill-opacity:1;" d="M 64.90625 151.96875 C 64.90625 152.269531 64.863281 152.539062 64.773438 152.78125 C 64.6875 153.03125 64.5625 153.238281 64.394531 153.414062 C 64.234375 153.585938 64.039062 153.722656 63.800781 153.8125 C 63.566406 153.90625 63.304688 153.953125 63.007812 153.953125 C 62.6875 153.953125 62.410156 153.90625 62.171875 153.8125 C 61.9375 153.714844 61.746094 153.574219 61.585938 153.402344 C 61.425781 153.222656 61.308594 153.011719 61.230469 152.773438 C 61.148438 152.527344 61.109375 152.257812 61.109375 151.96875 C 61.109375 151.671875 61.148438 151.40625 61.230469 151.167969 C 61.316406 150.921875 61.4375 150.714844 61.597656 150.546875 C 61.761719 150.382812 61.960938 150.253906 62.195312 150.15625 C 62.433594 150.066406 62.703125 150.015625 63.007812 150.015625 C 63.3125 150.015625 63.582031 150.066406 63.820312 150.15625 C 64.058594 150.253906 64.257812 150.386719 64.417969 150.558594 C 64.574219 150.726562 64.695312 150.929688 64.773438 151.167969 C 64.863281 151.40625 64.90625 151.671875 64.90625 151.96875 Z M 64.375 151.96875 C 64.375 151.738281 64.34375 151.53125 64.289062 151.339844 C 64.226562 151.152344 64.140625 150.992188 64.027344 150.863281 C 63.910156 150.726562 63.765625 150.621094 63.59375 150.546875 C 63.425781 150.476562 63.230469 150.4375 63.007812 150.4375 C 62.78125 150.4375 62.585938 150.476562 62.410156 150.546875 C 62.238281 150.621094 62.089844 150.726562 61.976562 150.863281 C 61.867188 150.992188 61.785156 151.152344 61.726562 151.339844 C 61.667969 151.53125 61.640625 151.738281 61.640625 151.96875 C 61.640625 152.203125 61.667969 152.414062 61.726562 152.609375 C 61.785156 152.800781 61.871094 152.960938 61.988281 153.097656 C 62.101562 153.234375 62.242188 153.34375 62.410156 153.421875 C 62.585938 153.496094 62.78125 153.53125 63.007812 153.53125 C 63.246094 153.53125 63.453125 153.496094 63.625 153.421875 C 63.800781 153.34375 63.941406 153.234375 64.046875 153.097656 C 64.15625 152.953125 64.234375 152.789062 64.289062 152.597656 C 64.34375 152.402344 64.375 152.195312 64.375 151.96875 Z M 64.375 151.96875 "/>
<path style=" stroke:none;fill-rule:nonzero;fill:rgb(0%,0%,0%);fill-opacity:1;" d="M 50.257812 129.617188 C 50.257812 129.914062 50.214844 130.1875 50.128906 130.429688 C 50.039062 130.675781 49.914062 130.886719 49.746094 131.058594 C 49.585938 131.234375 49.390625 131.371094 49.152344 131.460938 C 48.917969 131.554688 48.65625 131.601562 48.359375 131.601562 C 48.039062 131.601562 47.761719 131.554688 47.523438 131.460938 C 47.292969 131.359375 47.097656 131.222656 46.9375 131.050781 C 46.777344 130.871094 46.660156 130.660156 46.582031 130.421875 C 46.5 130.175781 46.460938 129.90625 46.460938 129.617188 C 46.460938 129.320312 46.5 129.054688 46.582031 128.8125 C 46.667969 128.570312 46.789062 128.363281 46.949219 128.195312 C 47.117188 128.03125 47.3125 127.898438 47.546875 127.804688 C 47.785156 127.710938 48.054688 127.664062 48.359375 127.664062 C 48.664062 127.664062 48.933594 127.710938 49.171875 127.804688 C 49.410156 127.898438 49.609375 128.03125 49.769531 128.207031 C 49.925781 128.375 50.046875 128.574219 50.128906 128.8125 C 50.214844 129.054688 50.257812 129.320312 50.257812 129.617188 Z M 49.726562 129.617188 C 49.726562 129.386719 49.695312 129.175781 49.640625 128.988281 C 49.578125 128.800781 49.492188 128.640625 49.378906 128.511719 C 49.261719 128.375 49.117188 128.269531 48.945312 128.195312 C 48.777344 128.125 48.582031 128.085938 48.359375 128.085938 C 48.132812 128.085938 47.9375 128.125 47.761719 128.195312 C 47.589844 128.269531 47.445312 128.375 47.328125 128.511719 C 47.222656 128.640625 47.136719 128.800781 47.082031 128.988281 C 47.019531 129.175781 46.992188 129.386719 46.992188 129.617188 C 46.992188 129.851562 47.019531 130.0625 47.082031 130.257812 C 47.136719 130.445312 47.222656 130.609375 47.339844 130.746094 C 47.453125 130.882812 47.59375 130.992188 47.761719 131.070312 C 47.9375 131.144531 48.132812 131.179688 48.359375 131.179688 C 48.597656 131.179688 48.804688 131.144531 48.976562 131.070312 C 49.152344 130.992188 49.292969 130.882812 49.402344 130.746094 C 49.507812 130.601562 49.585938 130.4375 49.640625 130.246094 C 49.695312 130.050781 49.726562 129.84375 49.726562 129.617188 Z M 49.726562 129.617188 "/>
<path style=" stroke:none;fill-rule:nonzero;fill:rgb(0%,0%,0%);fill-opacity:1;" d="M 77.152344 125.320312 C 76.933594 125.320312 76.742188 125.359375 76.578125 125.429688 C 76.410156 125.5 76.265625 125.609375 76.152344 125.742188 C 76.046875 125.875 75.960938 126.035156 75.902344 126.21875 C 75.84375 126.410156 75.816406 126.621094 75.816406 126.851562 C 75.816406 127.082031 75.84375 127.296875 75.902344 127.492188 C 75.96875 127.679688 76.058594 127.84375 76.175781 127.976562 C 76.289062 128.117188 76.429688 128.226562 76.597656 128.304688 C 76.773438 128.378906 76.960938 128.414062 77.171875 128.414062 C 77.324219 128.414062 77.457031 128.394531 77.574219 128.359375 C 77.695312 128.316406 77.808594 128.257812 77.910156 128.183594 C 78.011719 128.113281 78.097656 128.03125 78.171875 127.933594 C 78.25 127.84375 78.316406 127.734375 78.375 127.609375 L 78.800781 127.828125 C 78.734375 127.972656 78.648438 128.105469 78.550781 128.226562 C 78.445312 128.351562 78.328125 128.460938 78.191406 128.554688 C 78.054688 128.640625 77.898438 128.710938 77.726562 128.757812 C 77.550781 128.808594 77.359375 128.835938 77.152344 128.835938 C 76.839844 128.835938 76.566406 128.785156 76.335938 128.695312 C 76.105469 128.59375 75.910156 128.457031 75.753906 128.28125 C 75.601562 128.101562 75.484375 127.890625 75.40625 127.652344 C 75.324219 127.410156 75.285156 127.140625 75.285156 126.851562 C 75.285156 126.554688 75.324219 126.285156 75.40625 126.046875 C 75.492188 125.804688 75.613281 125.597656 75.773438 125.429688 C 75.929688 125.261719 76.125 125.132812 76.359375 125.039062 C 76.589844 124.945312 76.851562 124.898438 77.152344 124.898438 C 77.554688 124.898438 77.890625 124.976562 78.160156 125.136719 C 78.433594 125.296875 78.636719 125.535156 78.765625 125.851562 L 78.277344 126.015625 C 78.242188 125.921875 78.191406 125.835938 78.128906 125.753906 C 78.066406 125.667969 77.992188 125.597656 77.898438 125.539062 C 77.804688 125.472656 77.695312 125.421875 77.574219 125.386719 C 77.449219 125.34375 77.308594 125.320312 77.152344 125.320312 Z M 77.152344 125.320312 "/>
<path style=" stroke:none;fill-rule:nonzero;fill:rgb(0%,0%,0%);fill-opacity:1;" d="M 91.726562 150.4375 C 91.511719 150.4375 91.320312 150.476562 91.152344 150.546875 C 90.984375 150.621094 90.84375 150.726562 90.730469 150.863281 C 90.621094 150.992188 90.539062 151.152344 90.480469 151.339844 C 90.421875 151.53125 90.394531 151.738281 90.394531 151.96875 C 90.394531 152.203125 90.421875 152.414062 90.480469 152.609375 C 90.546875 152.800781 90.636719 152.960938 90.753906 153.097656 C 90.867188 153.234375 91.007812 153.34375 91.175781 153.421875 C 91.347656 153.496094 91.539062 153.53125 91.75 153.53125 C 91.902344 153.53125 92.035156 153.515625 92.152344 153.476562 C 92.273438 153.433594 92.382812 153.378906 92.488281 153.304688 C 92.589844 153.234375 92.675781 153.148438 92.746094 153.054688 C 92.828125 152.960938 92.894531 152.855469 92.953125 152.730469 L 93.375 152.945312 C 93.3125 153.09375 93.226562 153.226562 93.128906 153.347656 C 93.023438 153.472656 92.90625 153.582031 92.769531 153.671875 C 92.632812 153.757812 92.476562 153.832031 92.304688 153.878906 C 92.128906 153.929688 91.9375 153.953125 91.726562 153.953125 C 91.417969 153.953125 91.144531 153.90625 90.914062 153.8125 C 90.683594 153.714844 90.488281 153.574219 90.328125 153.402344 C 90.179688 153.222656 90.0625 153.011719 89.984375 152.773438 C 89.902344 152.527344 89.863281 152.257812 89.863281 151.96875 C 89.863281 151.671875 89.902344 151.40625 89.984375 151.167969 C 90.070312 150.921875 90.191406 150.714844 90.351562 150.546875 C 90.507812 150.382812 90.703125 150.253906 90.9375 150.15625 C 91.167969 150.066406 91.429688 150.015625 91.726562 150.015625 C 92.132812 150.015625 92.46875 150.097656 92.738281 150.253906 C 93.011719 150.414062 93.214844 150.652344 93.34375 150.972656 L 92.855469 151.132812 C 92.820312 151.042969 92.769531 150.953125 92.703125 150.875 C 92.644531 150.785156 92.570312 150.714844 92.476562 150.65625 C 92.382812 150.589844 92.273438 150.542969 92.152344 150.503906 C 92.027344 150.460938 91.886719 150.4375 91.726562 150.4375 Z M 91.726562 150.4375 "/>
<path style="fill:none;stroke-width:0.0333333;stroke-linecap:butt;stroke-linejoin:miter;stroke:rgb(0%,0%,0%);stroke-opacity:1;stroke-miterlimit:10;" d="M -0.000368836 0.959783 L 0.661751 1.341608 " transform="matrix(17.350746,0,0,17.361111,48.361868,126.868353)"/>
<path style="fill:none;stroke-width:0.0333333;stroke-linecap:butt;stroke-linejoin:miter;stroke:rgb(0%,0%,0%);stroke-opacity:1;stroke-miterlimit:10;" d="M 0.00796114 0.973958 L 0.00165737 0.317633 " transform="matrix(17.350746,0,0,17.361111,48.361868,126.868353)"/>
<path style="fill:none;stroke-width:0.0333333;stroke-linecap:butt;stroke-linejoin:miter;stroke:rgb(0%,0%,0%);stroke-opacity:1;stroke-miterlimit:10;" d="M 0.17366 0.877208 L 0.168257 0.316058 " transform="matrix(17.350746,0,0,17.361111,48.361868,126.868353)"/>
<path style="fill:none;stroke-width:0.0333333;stroke-linecap:butt;stroke-linejoin:miter;stroke:rgb(0%,0%,0%);stroke-opacity:1;stroke-miterlimit:10;" d="M 1.025794 1.338458 L 1.653018 0.964508 " transform="matrix(17.350746,0,0,17.361111,48.361868,126.868353)"/>
<path style="fill:none;stroke-width:0.0333333;stroke-linecap:butt;stroke-linejoin:miter;stroke:rgb(0%,0%,0%);stroke-opacity:1;stroke-miterlimit:10;" d="M 1.653018 0.964508 L 1.653018 0.156758 " transform="matrix(17.350746,0,0,17.361111,48.361868,126.868353)"/>
<path style="fill:none;stroke-width:0.0333333;stroke-linecap:butt;stroke-linejoin:miter;stroke:rgb(0%,0%,0%);stroke-opacity:1;stroke-miterlimit:10;" d="M 1.653018 0.964508 L 2.31694 1.345433 " transform="matrix(17.350746,0,0,17.361111,48.361868,126.868353)"/>
<path style=" stroke:none;fill-rule:nonzero;fill:rgb(0%,0%,0%);fill-opacity:1;" d="M 19.832031 187.21875 L 18.84375 185.636719 L 17.652344 185.636719 L 17.652344 187.21875 L 17.132812 187.21875 L 17.132812 183.402344 L 18.929688 183.402344 C 19.148438 183.402344 19.339844 183.429688 19.507812 183.476562 C 19.671875 183.519531 19.8125 183.589844 19.929688 183.683594 C 20.042969 183.777344 20.128906 183.894531 20.1875 184.03125 C 20.246094 184.167969 20.277344 184.320312 20.277344 184.484375 C 20.277344 184.609375 20.257812 184.734375 20.222656 184.855469 C 20.183594 184.972656 20.125 185.082031 20.046875 185.179688 C 19.976562 185.277344 19.878906 185.359375 19.765625 185.429688 C 19.648438 185.496094 19.507812 185.542969 19.34375 185.570312 L 20.429688 187.21875 Z M 19.753906 184.496094 C 19.753906 184.382812 19.734375 184.28125 19.691406 184.191406 C 19.652344 184.105469 19.59375 184.039062 19.515625 183.988281 C 19.445312 183.929688 19.355469 183.886719 19.246094 183.855469 C 19.136719 183.828125 19.011719 183.8125 18.878906 183.8125 L 17.652344 183.8125 L 17.652344 185.222656 L 18.898438 185.222656 C 19.050781 185.222656 19.179688 185.207031 19.289062 185.167969 C 19.398438 185.132812 19.484375 185.082031 19.550781 185.019531 C 19.621094 184.953125 19.671875 184.875 19.703125 184.789062 C 19.738281 184.699219 19.753906 184.601562 19.753906 184.496094 Z M 19.753906 184.496094 "/>
<path style=" stroke:none;fill-rule:nonzero;fill:rgb(0%,0%,0%);fill-opacity:1;" d="M 21.132812 187.21875 L 21.132812 186.875 C 21.222656 186.664062 21.335938 186.480469 21.46875 186.320312 C 21.597656 186.15625 21.734375 186.003906 21.878906 185.875 C 22.03125 185.746094 22.179688 185.625 22.324219 185.515625 C 22.46875 185.402344 22.597656 185.289062 22.714844 185.179688 C 22.828125 185.066406 22.921875 184.949219 22.984375 184.824219 C 23.054688 184.699219 23.09375 184.558594 23.09375 184.398438 C 23.09375 184.289062 23.074219 184.199219 23.039062 184.117188 C 23.011719 184.039062 22.964844 183.972656 22.898438 183.910156 C 22.839844 183.855469 22.769531 183.8125 22.683594 183.78125 C 22.601562 183.753906 22.507812 183.738281 22.402344 183.738281 C 22.304688 183.738281 22.214844 183.753906 22.128906 183.78125 C 22.042969 183.8125 21.960938 183.855469 21.890625 183.910156 C 21.824219 183.960938 21.773438 184.027344 21.726562 184.105469 C 21.691406 184.1875 21.664062 184.28125 21.652344 184.386719 L 21.152344 184.34375 C 21.167969 184.210938 21.203125 184.078125 21.261719 183.953125 C 21.328125 183.832031 21.410156 183.726562 21.511719 183.640625 C 21.621094 183.546875 21.746094 183.472656 21.890625 183.421875 C 22.035156 183.367188 22.207031 183.335938 22.402344 183.335938 C 22.585938 183.335938 22.753906 183.363281 22.898438 183.410156 C 23.050781 183.457031 23.175781 183.519531 23.277344 183.605469 C 23.386719 183.695312 23.464844 183.800781 23.515625 183.933594 C 23.574219 184.0625 23.605469 184.214844 23.605469 184.386719 C 23.605469 184.519531 23.578125 184.644531 23.527344 184.757812 C 23.484375 184.875 23.421875 184.984375 23.34375 185.09375 C 23.269531 185.195312 23.183594 185.296875 23.082031 185.398438 C 22.980469 185.492188 22.871094 185.585938 22.757812 185.679688 C 22.648438 185.765625 22.535156 185.859375 22.421875 185.949219 C 22.3125 186.046875 22.207031 186.140625 22.109375 186.234375 C 22.011719 186.320312 21.925781 186.414062 21.847656 186.503906 C 21.765625 186.597656 21.707031 186.699219 21.664062 186.808594 L 23.660156 186.808594 L 23.660156 187.21875 Z M 21.132812 187.21875 "/>
<path style=" stroke:none;fill-rule:nonzero;fill:rgb(0%,0%,0%);fill-opacity:1;" d="M 24.335938 184.898438 L 24.335938 184.496094 L 27.035156 184.496094 L 27.035156 184.898438 Z M 24.335938 186.289062 L 24.335938 185.886719 L 27.035156 185.886719 L 27.035156 186.289062 Z M 24.335938 186.289062 "/>
<path style=" stroke:none;fill-rule:nonzero;fill:rgb(0%,0%,0%);fill-opacity:1;" d="M 17.132812 189.535156 L 17.132812 189.328125 L 18.292969 188.828125 L 17.132812 188.328125 L 17.132812 188.125 L 18.476562 188.6875 L 18.476562 188.96875 Z M 17.132812 189.535156 "/>
<path style=" stroke:none;fill-rule:nonzero;fill:rgb(0%,0%,0%);fill-opacity:1;" d="M 20.113281 188.785156 C 20.113281 188.96875 20.09375 189.121094 20.058594 189.253906 C 20.027344 189.378906 19.980469 189.476562 19.917969 189.554688 C 19.859375 189.628906 19.789062 189.683594 19.710938 189.71875 C 19.628906 189.753906 19.542969 189.773438 19.449219 189.773438 C 19.355469 189.773438 19.269531 189.753906 19.191406 189.71875 C 19.109375 189.683594 19.039062 189.628906 18.972656 189.554688 C 18.914062 189.476562 18.867188 189.378906 18.832031 189.253906 C 18.804688 189.121094 18.789062 188.96875 18.789062 188.785156 C 18.789062 188.589844 18.804688 188.433594 18.832031 188.308594 C 18.867188 188.179688 18.914062 188.078125 18.972656 188.003906 C 19.039062 187.933594 19.109375 187.882812 19.191406 187.851562 C 19.269531 187.816406 19.359375 187.796875 19.460938 187.796875 C 19.546875 187.796875 19.628906 187.816406 19.710938 187.851562 C 19.789062 187.882812 19.859375 187.933594 19.917969 188.003906 C 19.980469 188.078125 20.027344 188.179688 20.058594 188.308594 C 20.09375 188.433594 20.113281 188.589844 20.113281 188.785156 Z M 19.875 188.785156 C 19.875 188.632812 19.863281 188.507812 19.839844 188.40625 C 19.824219 188.304688 19.800781 188.226562 19.765625 188.167969 C 19.726562 188.101562 19.683594 188.058594 19.636719 188.039062 C 19.582031 188.011719 19.527344 187.992188 19.460938 187.992188 C 19.386719 187.992188 19.328125 188.011719 19.277344 188.039062 C 19.226562 188.058594 19.183594 188.101562 19.148438 188.167969 C 19.109375 188.226562 19.082031 188.304688 19.0625 188.40625 C 19.042969 188.507812 19.039062 188.632812 19.039062 188.785156 C 19.039062 188.933594 19.042969 189.054688 19.0625 189.15625 C 19.082031 189.257812 19.109375 189.339844 19.148438 189.40625 C 19.183594 189.464844 19.226562 189.507812 19.277344 189.535156 C 19.328125 189.554688 19.386719 189.566406 19.449219 189.566406 C 19.515625 189.566406 19.574219 189.554688 19.625 189.535156 C 19.671875 189.507812 19.714844 189.464844 19.753906 189.40625 C 19.789062 189.339844 19.820312 189.257812 19.839844 189.15625 C 19.863281 189.054688 19.875 188.933594 19.875 188.785156 Z M 19.875 188.785156 "/>
<path style=" stroke:none;fill-rule:nonzero;fill:rgb(0%,0%,0%);fill-opacity:1;" d="M 107.894531 203.09375 C 107.894531 203.390625 107.851562 203.664062 107.765625 203.90625 C 107.675781 204.152344 107.550781 204.363281 107.386719 204.535156 C 107.226562 204.710938 107.027344 204.84375 106.789062 204.9375 C 106.554688 205.03125 106.292969 205.078125 105.996094 205.078125 C 105.675781 205.078125 105.398438 205.03125 105.160156 204.9375 C 104.929688 204.835938 104.734375 204.699219 104.578125 204.523438 C 104.417969 204.34375 104.296875 204.132812 104.21875 203.894531 C 104.136719 203.652344 104.097656 203.382812 104.097656 203.09375 C 104.097656 202.796875 104.136719 202.527344 104.21875 202.289062 C 104.304688 202.046875 104.425781 201.839844 104.585938 201.671875 C 104.753906 201.503906 104.949219 201.375 105.183594 201.28125 C 105.421875 201.1875 105.691406 201.140625 105.996094 201.140625 C 106.300781 201.140625 106.570312 201.1875 106.808594 201.28125 C 107.046875 201.375 107.246094 201.507812 107.40625 201.683594 C 107.5625 201.851562 107.683594 202.050781 107.765625 202.289062 C 107.851562 202.527344 107.894531 202.796875 107.894531 203.09375 Z M 107.363281 203.09375 C 107.363281 202.863281 107.332031 202.652344 107.277344 202.464844 C 107.214844 202.277344 107.128906 202.117188 107.015625 201.984375 C 106.898438 201.851562 106.757812 201.746094 106.582031 201.671875 C 106.414062 201.601562 106.21875 201.5625 105.996094 201.5625 C 105.773438 201.5625 105.574219 201.601562 105.398438 201.671875 C 105.226562 201.746094 105.082031 201.851562 104.964844 201.984375 C 104.859375 202.117188 104.773438 202.277344 104.71875 202.464844 C 104.65625 202.652344 104.628906 202.863281 104.628906 203.09375 C 104.628906 203.324219 104.65625 203.539062 104.71875 203.734375 C 104.773438 203.921875 104.859375 204.085938 104.976562 204.222656 C 105.089844 204.359375 105.230469 204.46875 105.398438 204.546875 C 105.574219 204.621094 105.773438 204.65625 105.996094 204.65625 C 106.234375 204.65625 106.441406 204.621094 106.613281 204.546875 C 106.789062 204.46875 106.929688 204.359375 107.039062 204.222656 C 107.144531 204.078125 107.226562 203.910156 107.277344 203.722656 C 107.332031 203.527344 107.363281 203.316406 107.363281 203.09375 Z M 107.363281 203.09375 "/>
<path style=" stroke:none;fill-rule:nonzero;fill:rgb(0%,0%,0%);fill-opacity:1;" d="M 110.613281 205.617188 L 111.328125 205.34375 L 111.449219 205.703125 L 110.691406 205.898438 L 111.1875 206.570312 L 110.863281 206.765625 L 110.460938 206.070312 L 110.039062 206.765625 L 109.714844 206.570312 L 110.222656 205.898438 L 109.464844 205.703125 L 109.59375 205.332031 L 110.308594 205.625 L 110.277344 204.824219 L 110.644531 204.824219 Z M 110.613281 205.617188 "/>
<path style=" stroke:none;fill-rule:nonzero;fill:rgb(0%,0%,0%);fill-opacity:1;" d="M 47.847656 167.871094 C 47.628906 167.871094 47.4375 167.910156 47.273438 167.980469 C 47.105469 168.054688 46.964844 168.160156 46.851562 168.292969 C 46.742188 168.425781 46.65625 168.585938 46.601562 168.773438 C 46.539062 168.960938 46.511719 169.171875 46.511719 169.402344 C 46.511719 169.632812 46.539062 169.847656 46.601562 170.042969 C 46.664062 170.230469 46.753906 170.394531 46.871094 170.53125 C 46.984375 170.667969 47.125 170.777344 47.292969 170.855469 C 47.46875 170.929688 47.65625 170.964844 47.867188 170.964844 C 48.019531 170.964844 48.152344 170.945312 48.269531 170.910156 C 48.390625 170.867188 48.503906 170.808594 48.605469 170.734375 C 48.707031 170.664062 48.792969 170.582031 48.867188 170.484375 C 48.945312 170.394531 49.011719 170.285156 49.074219 170.160156 L 49.496094 170.378906 C 49.429688 170.523438 49.347656 170.65625 49.246094 170.777344 C 49.144531 170.902344 49.023438 171.011719 48.886719 171.105469 C 48.75 171.191406 48.59375 171.261719 48.421875 171.3125 C 48.25 171.359375 48.054688 171.386719 47.847656 171.386719 C 47.535156 171.386719 47.265625 171.335938 47.035156 171.246094 C 46.800781 171.144531 46.605469 171.007812 46.449219 170.832031 C 46.296875 170.65625 46.179688 170.441406 46.101562 170.203125 C 46.019531 169.960938 45.980469 169.691406 45.980469 169.402344 C 45.980469 169.105469 46.019531 168.835938 46.101562 168.597656 C 46.1875 168.355469 46.308594 168.148438 46.46875 167.980469 C 46.628906 167.8125 46.824219 167.683594 47.054688 167.589844 C 47.285156 167.496094 47.550781 167.449219 47.847656 167.449219 C 48.25 167.449219 48.585938 167.53125 48.855469 167.6875 C 49.128906 167.847656 49.332031 168.085938 49.464844 168.402344 L 48.976562 168.566406 C 48.9375 168.472656 48.886719 168.386719 48.824219 168.304688 C 48.765625 168.21875 48.6875 168.148438 48.59375 168.089844 C 48.5 168.023438 48.390625 167.972656 48.269531 167.9375 C 48.144531 167.894531 48.003906 167.871094 47.847656 167.871094 Z M 47.847656 167.871094 "/>
<path style=" stroke:none;fill-rule:nonzero;fill:rgb(0%,0%,0%);fill-opacity:1;" d="M 50.253906 171.332031 L 50.253906 167.308594 L 50.742188 167.308594 L 50.742188 171.332031 Z M 50.253906 171.332031 "/>
<path style="fill:none;stroke-width:0.0333333;stroke-linecap:butt;stroke-linejoin:miter;stroke:rgb(0%,0%,0%);stroke-opacity:1;stroke-miterlimit:10;" d="M 2.509204 0.498801 L 1.648516 -0.00497384 " transform="matrix(17.350746,0,0,17.361111,48.361868,169.34807)"/>
<path style="fill:none;stroke-width:0.0333333;stroke-linecap:butt;stroke-linejoin:miter;stroke:rgb(0%,0%,0%);stroke-opacity:1;stroke-miterlimit:10;" d="M 1.664725 1.902126 L 0.800209 1.446051 " transform="matrix(17.350746,0,0,17.361111,48.361868,169.34807)"/>
<path style="fill:none;stroke-width:0.0333333;stroke-linecap:butt;stroke-linejoin:miter;stroke:rgb(0%,0%,0%);stroke-opacity:1;stroke-miterlimit:10;" d="M 1.6645 1.713576 L 0.966809 1.345476 " transform="matrix(17.350746,0,0,17.361111,48.361868,169.34807)"/>
<path style="fill:none;stroke-width:0.0333333;stroke-linecap:butt;stroke-linejoin:miter;stroke:rgb(0%,0%,0%);stroke-opacity:1;stroke-miterlimit:10;" d="M 1.665401 -0.00497384 L 0.808989 0.494076 " transform="matrix(17.350746,0,0,17.361111,48.361868,169.34807)"/>
<path style="fill:none;stroke-width:0.0333333;stroke-linecap:butt;stroke-linejoin:miter;stroke:rgb(0%,0%,0%);stroke-opacity:1;stroke-miterlimit:10;" d="M 1.665176 0.188076 L 0.975589 0.589701 " transform="matrix(17.350746,0,0,17.361111,48.361868,169.34807)"/>
<path style="fill:none;stroke-width:0.0333333;stroke-linecap:butt;stroke-linejoin:miter;stroke:rgb(0%,0%,0%);stroke-opacity:1;stroke-miterlimit:10;" d="M 0.817094 0.498801 L 0.202928 0.123951 " transform="matrix(17.350746,0,0,17.361111,48.361868,169.34807)"/>
<path style="fill:none;stroke-width:0.0333333;stroke-linecap:butt;stroke-linejoin:miter;stroke:rgb(0%,0%,0%);stroke-opacity:1;stroke-miterlimit:10;" d="M 0.808989 1.460676 L 0.808989 0.484626 " transform="matrix(17.350746,0,0,17.361111,48.361868,169.34807)"/>
<path style="fill:none;stroke-width:0.0333333;stroke-linecap:butt;stroke-linejoin:miter;stroke:rgb(0%,0%,0%);stroke-opacity:1;stroke-miterlimit:10;" d="M 3.140256 1.835526 L 2.492995 1.445826 " transform="matrix(17.350746,0,0,17.361111,48.361868,169.34807)"/>
<path style="fill:none;stroke-width:0.0333333;stroke-linecap:butt;stroke-linejoin:miter;stroke:rgb(0%,0%,0%);stroke-opacity:1;stroke-miterlimit:10;" d="M 2.5011 1.450776 L 2.5011 0.484401 " transform="matrix(17.350746,0,0,17.361111,48.361868,169.34807)"/>
<path style="fill:none;stroke-width:0.0333333;stroke-linecap:butt;stroke-linejoin:miter;stroke:rgb(0%,0%,0%);stroke-opacity:1;stroke-miterlimit:10;" d="M 2.3345 1.350426 L 2.3345 0.580026 " transform="matrix(17.350746,0,0,17.361111,48.361868,169.34807)"/>
<path style="fill:none;stroke-width:0.0333333;stroke-linecap:butt;stroke-linejoin:miter;stroke:rgb(0%,0%,0%);stroke-opacity:1;stroke-miterlimit:10;" d="M 2.50943 1.446276 L 1.649191 1.902126 " transform="matrix(17.350746,0,0,17.361111,48.361868,169.34807)"/>
</g>
</svg>
