<?xml version="1.0" encoding="UTF-8"?>
<svg xmlns="http://www.w3.org/2000/svg" xmlns:xlink="http://www.w3.org/1999/xlink" width="155.2pt" height="94.4pt" viewBox="0 0 155.2 94.4" version="1.1">
<g id="surface377">
<path style=" stroke:none;fill-rule:nonzero;fill:rgb(0%,0%,0%);fill-opacity:1;" d="M 44.851562 32.15625 C 44.851562 32.453125 44.808594 32.722656 44.722656 32.96875 C 44.636719 33.214844 44.507812 33.421875 44.34375 33.597656 C 44.183594 33.769531 43.984375 33.90625 43.746094 34 C 43.515625 34.089844 43.253906 34.140625 42.957031 34.140625 C 42.636719 34.140625 42.363281 34.089844 42.125 34 C 41.890625 33.898438 41.695312 33.757812 41.539062 33.585938 C 41.378906 33.40625 41.261719 33.195312 41.183594 32.957031 C 41.101562 32.714844 41.0625 32.445312 41.0625 32.15625 C 41.0625 31.859375 41.101562 31.589844 41.183594 31.351562 C 41.269531 31.109375 41.390625 30.902344 41.550781 30.734375 C 41.714844 30.566406 41.914062 30.4375 42.144531 30.34375 C 42.382812 30.25 42.652344 30.203125 42.957031 30.203125 C 43.261719 30.203125 43.53125 30.25 43.769531 30.34375 C 44.007812 30.4375 44.203125 30.570312 44.363281 30.746094 C 44.523438 30.914062 44.640625 31.113281 44.722656 31.351562 C 44.808594 31.589844 44.851562 31.859375 44.851562 32.15625 Z M 44.320312 32.15625 C 44.320312 31.925781 44.292969 31.714844 44.234375 31.527344 C 44.175781 31.339844 44.089844 31.179688 43.976562 31.046875 C 43.859375 30.914062 43.714844 30.808594 43.542969 30.734375 C 43.375 30.664062 43.179688 30.625 42.957031 30.625 C 42.734375 30.625 42.535156 30.664062 42.363281 30.734375 C 42.1875 30.808594 42.042969 30.914062 41.929688 31.046875 C 41.820312 31.179688 41.738281 31.339844 41.679688 31.527344 C 41.621094 31.714844 41.59375 31.925781 41.59375 32.15625 C 41.59375 32.386719 41.621094 32.597656 41.679688 32.792969 C 41.738281 32.984375 41.824219 33.148438 41.941406 33.28125 C 42.054688 33.421875 42.195312 33.527344 42.363281 33.609375 C 42.535156 33.679688 42.734375 33.714844 42.957031 33.714844 C 43.195312 33.714844 43.402344 33.679688 43.574219 33.609375 C 43.746094 33.527344 43.886719 33.421875 43.996094 33.28125 C 44.105469 33.140625 44.183594 32.972656 44.234375 32.785156 C 44.292969 32.589844 44.320312 32.378906 44.320312 32.15625 Z M 44.320312 32.15625 "/>
<path style=" stroke:none;fill-rule:nonzero;fill:rgb(0%,0%,0%);fill-opacity:1;" d="M 17.082031 15.597656 C 16.867188 15.597656 16.675781 15.636719 16.507812 15.707031 C 16.339844 15.78125 16.199219 15.886719 16.085938 16.023438 C 15.980469 16.152344 15.894531 16.3125 15.839844 16.5 C 15.777344 16.6875 15.75 16.898438 15.75 17.128906 C 15.75 17.359375 15.777344 17.574219 15.839844 17.769531 C 15.902344 17.957031 15.992188 18.121094 16.109375 18.253906 C 16.222656 18.394531 16.363281 18.503906 16.53125 18.582031 C 16.703125 18.65625 16.894531 18.691406 17.105469 18.691406 C 17.257812 18.691406 17.390625 18.671875 17.503906 18.636719 C 17.628906 18.59375 17.738281 18.535156 17.839844 18.460938 C 17.941406 18.390625 18.027344 18.308594 18.101562 18.210938 C 18.179688 18.121094 18.246094 18.011719 18.304688 17.886719 L 18.730469 18.105469 C 18.664062 18.25 18.578125 18.382812 18.480469 18.503906 C 18.375 18.628906 18.257812 18.738281 18.121094 18.832031 C 17.984375 18.917969 17.832031 18.988281 17.65625 19.035156 C 17.484375 19.085938 17.292969 19.113281 17.082031 19.113281 C 16.773438 19.113281 16.5 19.0625 16.269531 18.972656 C 16.039062 18.871094 15.84375 18.734375 15.6875 18.558594 C 15.535156 18.378906 15.417969 18.167969 15.339844 17.929688 C 15.257812 17.6875 15.222656 17.417969 15.222656 17.128906 C 15.222656 16.832031 15.257812 16.5625 15.339844 16.324219 C 15.425781 16.082031 15.546875 15.875 15.707031 15.707031 C 15.867188 15.542969 16.058594 15.410156 16.292969 15.316406 C 16.523438 15.222656 16.785156 15.175781 17.082031 15.175781 C 17.488281 15.175781 17.820312 15.257812 18.089844 15.414062 C 18.363281 15.574219 18.566406 15.8125 18.695312 16.128906 L 18.210938 16.292969 C 18.171875 16.199219 18.121094 16.113281 18.058594 16.03125 C 18 15.945312 17.921875 15.875 17.832031 15.816406 C 17.734375 15.75 17.628906 15.703125 17.503906 15.664062 C 17.382812 15.621094 17.242188 15.597656 17.082031 15.597656 Z M 17.082031 15.597656 "/>
<path style=" stroke:none;fill-rule:nonzero;fill:rgb(0%,0%,0%);fill-opacity:1;" d="M 138.332031 45.65625 C 138.117188 45.65625 137.925781 45.691406 137.757812 45.761719 C 137.589844 45.835938 137.449219 45.941406 137.335938 46.078125 C 137.230469 46.207031 137.144531 46.367188 137.089844 46.554688 C 137.027344 46.746094 137 46.953125 137 47.183594 C 137 47.417969 137.027344 47.628906 137.089844 47.824219 C 137.152344 48.011719 137.242188 48.175781 137.359375 48.3125 C 137.472656 48.449219 137.613281 48.558594 137.78125 48.636719 C 137.953125 48.710938 138.144531 48.746094 138.355469 48.746094 C 138.507812 48.746094 138.640625 48.730469 138.753906 48.691406 C 138.878906 48.648438 138.988281 48.589844 139.089844 48.519531 C 139.191406 48.445312 139.277344 48.363281 139.351562 48.269531 C 139.429688 48.175781 139.496094 48.066406 139.554688 47.941406 L 139.980469 48.160156 C 139.914062 48.304688 139.828125 48.4375 139.730469 48.5625 C 139.625 48.6875 139.507812 48.792969 139.371094 48.886719 C 139.234375 48.972656 139.082031 49.042969 138.90625 49.09375 C 138.734375 49.140625 138.542969 49.167969 138.332031 49.167969 C 138.023438 49.167969 137.75 49.121094 137.519531 49.027344 C 137.289062 48.925781 137.09375 48.789062 136.9375 48.617188 C 136.785156 48.4375 136.667969 48.226562 136.589844 47.984375 C 136.507812 47.742188 136.472656 47.472656 136.472656 47.183594 C 136.472656 46.886719 136.507812 46.621094 136.589844 46.382812 C 136.675781 46.136719 136.796875 45.929688 136.957031 45.761719 C 137.117188 45.597656 137.308594 45.46875 137.542969 45.371094 C 137.773438 45.28125 138.035156 45.230469 138.332031 45.230469 C 138.738281 45.230469 139.070312 45.3125 139.339844 45.46875 C 139.613281 45.628906 139.816406 45.867188 139.945312 46.1875 L 139.460938 46.347656 C 139.421875 46.257812 139.371094 46.167969 139.308594 46.089844 C 139.25 46 139.171875 45.929688 139.082031 45.871094 C 138.984375 45.804688 138.878906 45.757812 138.753906 45.71875 C 138.632812 45.675781 138.492188 45.65625 138.332031 45.65625 Z M 138.332031 45.65625 "/>
<path style=" stroke:none;fill-rule:nonzero;fill:rgb(0%,0%,0%);fill-opacity:1;" d="M 138.332031 75.710938 C 138.117188 75.710938 137.925781 75.75 137.757812 75.820312 C 137.589844 75.890625 137.449219 75.996094 137.335938 76.132812 C 137.230469 76.261719 137.144531 76.421875 137.089844 76.609375 C 137.027344 76.800781 137 77.007812 137 77.238281 C 137 77.472656 137.027344 77.683594 137.089844 77.878906 C 137.152344 78.070312 137.242188 78.230469 137.359375 78.367188 C 137.472656 78.503906 137.613281 78.613281 137.78125 78.691406 C 137.953125 78.765625 138.144531 78.800781 138.355469 78.800781 C 138.507812 78.800781 138.640625 78.785156 138.753906 78.746094 C 138.878906 78.703125 138.988281 78.648438 139.089844 78.574219 C 139.191406 78.503906 139.277344 78.417969 139.351562 78.324219 C 139.429688 78.230469 139.496094 78.125 139.554688 78 L 139.980469 78.214844 C 139.914062 78.363281 139.828125 78.496094 139.730469 78.617188 C 139.625 78.742188 139.507812 78.851562 139.371094 78.941406 C 139.234375 79.027344 139.082031 79.097656 138.90625 79.148438 C 138.734375 79.195312 138.542969 79.222656 138.332031 79.222656 C 138.023438 79.222656 137.75 79.175781 137.519531 79.082031 C 137.289062 78.984375 137.09375 78.84375 136.9375 78.671875 C 136.785156 78.492188 136.667969 78.28125 136.589844 78.042969 C 136.507812 77.796875 136.472656 77.53125 136.472656 77.238281 C 136.472656 76.945312 136.507812 76.675781 136.589844 76.4375 C 136.675781 76.191406 136.796875 75.988281 136.957031 75.820312 C 137.117188 75.652344 137.308594 75.523438 137.542969 75.429688 C 137.773438 75.335938 138.035156 75.289062 138.332031 75.289062 C 138.738281 75.289062 139.070312 75.367188 139.339844 75.527344 C 139.613281 75.6875 139.816406 75.925781 139.945312 76.242188 L 139.460938 76.40625 C 139.421875 76.3125 139.371094 76.226562 139.308594 76.144531 C 139.25 76.058594 139.171875 75.988281 139.082031 75.925781 C 138.984375 75.863281 138.878906 75.8125 138.753906 75.777344 C 138.632812 75.730469 138.492188 75.710938 138.332031 75.710938 Z M 138.332031 75.710938 "/>
<path style=" stroke:none;fill-rule:nonzero;fill:rgb(0%,0%,0%);fill-opacity:1;" d="M 69.046875 75.710938 C 68.832031 75.710938 68.640625 75.75 68.472656 75.820312 C 68.304688 75.890625 68.164062 75.996094 68.050781 76.132812 C 67.941406 76.261719 67.859375 76.421875 67.800781 76.609375 C 67.742188 76.800781 67.714844 77.007812 67.714844 77.238281 C 67.714844 77.472656 67.742188 77.683594 67.800781 77.878906 C 67.867188 78.070312 67.957031 78.230469 68.074219 78.367188 C 68.1875 78.503906 68.328125 78.613281 68.496094 78.691406 C 68.667969 78.765625 68.859375 78.800781 69.070312 78.800781 C 69.222656 78.800781 69.351562 78.785156 69.46875 78.746094 C 69.589844 78.703125 69.703125 78.648438 69.804688 78.574219 C 69.90625 78.503906 69.992188 78.417969 70.066406 78.324219 C 70.144531 78.230469 70.210938 78.125 70.269531 78 L 70.691406 78.214844 C 70.628906 78.363281 70.542969 78.496094 70.445312 78.617188 C 70.339844 78.742188 70.222656 78.851562 70.085938 78.941406 C 69.949219 79.027344 69.792969 79.097656 69.621094 79.148438 C 69.449219 79.195312 69.257812 79.222656 69.046875 79.222656 C 68.734375 79.222656 68.464844 79.175781 68.234375 79.082031 C 68.003906 78.984375 67.808594 78.84375 67.652344 78.671875 C 67.5 78.492188 67.382812 78.28125 67.304688 78.042969 C 67.222656 77.796875 67.183594 77.53125 67.183594 77.238281 C 67.183594 76.945312 67.222656 76.675781 67.304688 76.4375 C 67.390625 76.191406 67.511719 75.988281 67.671875 75.820312 C 67.828125 75.652344 68.023438 75.523438 68.257812 75.429688 C 68.488281 75.335938 68.75 75.289062 69.046875 75.289062 C 69.449219 75.289062 69.785156 75.367188 70.054688 75.527344 C 70.328125 75.6875 70.53125 75.925781 70.660156 76.242188 L 70.171875 76.40625 C 70.136719 76.3125 70.085938 76.226562 70.023438 76.144531 C 69.960938 76.058594 69.886719 75.988281 69.792969 75.925781 C 69.699219 75.863281 69.589844 75.8125 69.46875 75.777344 C 69.34375 75.730469 69.203125 75.710938 69.046875 75.710938 Z M 69.046875 75.710938 "/>
<path style="fill:none;stroke-width:0.0333333;stroke-linecap:butt;stroke-linejoin:miter;stroke:rgb(0%,0%,0%);stroke-opacity:1;stroke-miterlimit:10;" d="M 5.509658 2.598213 L 4.490328 2.598213 " transform="matrix(17.321429,0,0,17.352941,16.97501,17.143824)"/>
<path style="fill:none;stroke-width:0.0333333;stroke-linecap:butt;stroke-linejoin:miter;stroke:rgb(0%,0%,0%);stroke-opacity:1;stroke-miterlimit:10;" d="M 5.495225 2.606317 L 6.00489 1.723677 " transform="matrix(17.321429,0,0,17.352941,16.97501,17.143824)"/>
<path style="fill:none;stroke-width:0.0333333;stroke-linecap:butt;stroke-linejoin:miter;stroke:rgb(0%,0%,0%);stroke-opacity:1;stroke-miterlimit:10;" d="M 5.499961 2.598213 L 6.00489 3.4723 " transform="matrix(17.321429,0,0,17.352941,16.97501,17.143824)"/>
<path style="fill:none;stroke-width:0.0333333;stroke-linecap:butt;stroke-linejoin:miter;stroke:rgb(0%,0%,0%);stroke-opacity:1;stroke-miterlimit:10;" d="M 5.692551 2.598213 L 6.101185 3.305721 " transform="matrix(17.321429,0,0,17.352941,16.97501,17.143824)"/>
<path style="fill:none;stroke-width:0.0333333;stroke-linecap:butt;stroke-linejoin:miter;stroke:rgb(0%,0%,0%);stroke-opacity:1;stroke-miterlimit:10;" d="M 4.504761 2.606317 L 3.995096 1.723677 " transform="matrix(17.321429,0,0,17.352941,16.97501,17.143824)"/>
<path style="fill:none;stroke-width:0.0333333;stroke-linecap:butt;stroke-linejoin:miter;stroke:rgb(0%,0%,0%);stroke-opacity:1;stroke-miterlimit:10;" d="M 4.500025 2.598213 L 3.995096 3.4723 " transform="matrix(17.321429,0,0,17.352941,16.97501,17.143824)"/>
<path style="fill:none;stroke-width:0.0333333;stroke-linecap:butt;stroke-linejoin:miter;stroke:rgb(0%,0%,0%);stroke-opacity:1;stroke-miterlimit:10;" d="M 4.307435 2.598213 L 3.898801 3.305721 " transform="matrix(17.321429,0,0,17.352941,16.97501,17.143824)"/>
<path style="fill:none;stroke-width:0.0333333;stroke-linecap:butt;stroke-linejoin:miter;stroke:rgb(0%,0%,0%);stroke-opacity:1;stroke-miterlimit:10;" d="M 5.990231 1.732006 L 6.855534 1.732006 " transform="matrix(17.321429,0,0,17.352941,16.97501,17.143824)"/>
<path style="fill:none;stroke-width:0.0333333;stroke-linecap:butt;stroke-linejoin:miter;stroke:rgb(0%,0%,0%);stroke-opacity:1;stroke-miterlimit:10;" d="M 6.086526 1.898809 L 6.855534 1.898809 " transform="matrix(17.321429,0,0,17.352941,16.97501,17.143824)"/>
<path style="fill:none;stroke-width:0.0333333;stroke-linecap:butt;stroke-linejoin:miter;stroke:rgb(0%,0%,0%);stroke-opacity:1;stroke-miterlimit:10;" d="M 5.990231 3.463971 L 6.855534 3.463971 " transform="matrix(17.321429,0,0,17.352941,16.97501,17.143824)"/>
<path style="fill:none;stroke-width:0.0333333;stroke-linecap:butt;stroke-linejoin:miter;stroke:rgb(0%,0%,0%);stroke-opacity:1;stroke-miterlimit:10;" d="M 4.009755 1.732006 L 2.990425 1.732006 " transform="matrix(17.321429,0,0,17.352941,16.97501,17.143824)"/>
<path style="fill:none;stroke-width:0.0333333;stroke-linecap:butt;stroke-linejoin:miter;stroke:rgb(0%,0%,0%);stroke-opacity:1;stroke-miterlimit:10;" d="M 3.913459 1.898809 L 3.086494 1.898809 " transform="matrix(17.321429,0,0,17.352941,16.97501,17.143824)"/>
<path style="fill:none;stroke-width:0.0333333;stroke-linecap:butt;stroke-linejoin:miter;stroke:rgb(0%,0%,0%);stroke-opacity:1;stroke-miterlimit:10;" d="M 4.009755 3.463971 L 3.144452 3.463971 " transform="matrix(17.321429,0,0,17.352941,16.97501,17.143824)"/>
<path style="fill:none;stroke-width:0.0333333;stroke-linecap:butt;stroke-linejoin:miter;stroke:rgb(0%,0%,0%);stroke-opacity:1;stroke-miterlimit:10;" d="M 3.004858 1.740335 L 2.495193 0.857694 " transform="matrix(17.321429,0,0,17.352941,16.97501,17.143824)"/>
<path style="fill:none;stroke-width:0.0333333;stroke-linecap:butt;stroke-linejoin:miter;stroke:rgb(0%,0%,0%);stroke-opacity:1;stroke-miterlimit:10;" d="M 1.652667 0.866023 L 2.509626 0.866023 " transform="matrix(17.321429,0,0,17.352941,16.97501,17.143824)"/>
<path style="fill:none;stroke-width:0.0333333;stroke-linecap:butt;stroke-linejoin:miter;stroke:rgb(0%,0%,0%);stroke-opacity:1;stroke-miterlimit:10;" d="M 1.394001 0.682337 L 0.995064 -0.00828818 " transform="matrix(17.321429,0,0,17.352941,16.97501,17.143824)"/>
<path style="fill:none;stroke-width:0.0333333;stroke-linecap:butt;stroke-linejoin:miter;stroke:rgb(0%,0%,0%);stroke-opacity:1;stroke-miterlimit:10;" d="M 1.009722 0.0000407364 L 0.14442 0.0000407364 " transform="matrix(17.321429,0,0,17.352941,16.97501,17.143824)"/>
</g>
</svg>
