<?xml version="1.0" encoding="UTF-8"?>
<svg xmlns="http://www.w3.org/2000/svg" xmlns:xlink="http://www.w3.org/1999/xlink" width="108.8pt" height="91.2pt" viewBox="0 0 108.8 91.2" version="1.1">
<g id="surface22">
<path style=" stroke:none;fill-rule:nonzero;fill:rgb(0%,0%,0%);fill-opacity:1;" d="M 93.539062 30.847656 C 93.539062 31.144531 93.496094 31.417969 93.40625 31.660156 C 93.320312 31.90625 93.195312 32.117188 93.027344 32.289062 C 92.867188 32.464844 92.671875 32.601562 92.433594 32.691406 C 92.199219 32.785156 91.9375 32.832031 91.640625 32.832031 C 91.320312 32.832031 91.042969 32.785156 90.804688 32.691406 C 90.574219 32.59375 90.378906 32.453125 90.21875 32.28125 C 90.058594 32.101562 89.941406 31.890625 89.863281 31.648438 C 89.78125 31.40625 89.742188 31.136719 89.742188 30.847656 C 89.742188 30.550781 89.78125 30.28125 89.863281 30.042969 C 89.949219 29.796875 90.070312 29.589844 90.230469 29.421875 C 90.398438 29.257812 90.59375 29.128906 90.828125 29.03125 C 91.066406 28.941406 91.335938 28.890625 91.640625 28.890625 C 91.945312 28.890625 92.214844 28.941406 92.453125 29.03125 C 92.691406 29.128906 92.890625 29.261719 93.050781 29.433594 C 93.207031 29.601562 93.328125 29.804688 93.40625 30.042969 C 93.496094 30.28125 93.539062 30.550781 93.539062 30.847656 Z M 93.007812 30.847656 C 93.007812 30.617188 92.976562 30.40625 92.921875 30.214844 C 92.859375 30.027344 92.773438 29.867188 92.660156 29.738281 C 92.542969 29.601562 92.398438 29.496094 92.226562 29.421875 C 92.058594 29.351562 91.863281 29.316406 91.640625 29.316406 C 91.414062 29.316406 91.21875 29.351562 91.042969 29.421875 C 90.871094 29.496094 90.722656 29.601562 90.609375 29.738281 C 90.503906 29.867188 90.417969 30.027344 90.359375 30.214844 C 90.300781 30.40625 90.273438 30.617188 90.273438 30.847656 C 90.273438 31.078125 90.300781 31.292969 90.359375 31.488281 C 90.417969 31.675781 90.503906 31.839844 90.621094 31.976562 C 90.734375 32.113281 90.875 32.222656 91.042969 32.300781 C 91.21875 32.375 91.414062 32.410156 91.640625 32.410156 C 91.878906 32.410156 92.085938 32.375 92.257812 32.300781 C 92.433594 32.222656 92.574219 32.113281 92.679688 31.976562 C 92.789062 31.832031 92.867188 31.667969 92.921875 31.476562 C 92.976562 31.28125 93.007812 31.070312 93.007812 30.847656 Z M 93.007812 30.847656 "/>
<path style=" stroke:none;fill-rule:nonzero;fill:rgb(0%,0%,0%);fill-opacity:1;" d="M 63.863281 23.214844 C 63.863281 23.515625 63.820312 23.785156 63.734375 24.03125 C 63.648438 24.277344 63.519531 24.488281 63.355469 24.660156 C 63.195312 24.835938 62.996094 24.96875 62.757812 25.0625 C 62.523438 25.15625 62.261719 25.203125 61.964844 25.203125 C 61.648438 25.203125 61.371094 25.15625 61.132812 25.0625 C 60.898438 24.960938 60.703125 24.824219 60.546875 24.648438 C 60.386719 24.46875 60.265625 24.257812 60.1875 24.019531 C 60.105469 23.773438 60.070312 23.507812 60.070312 23.214844 C 60.070312 22.921875 60.105469 22.652344 60.1875 22.414062 C 60.273438 22.167969 60.398438 21.960938 60.558594 21.792969 C 60.722656 21.628906 60.921875 21.496094 61.152344 21.402344 C 61.390625 21.308594 61.664062 21.261719 61.964844 21.261719 C 62.269531 21.261719 62.542969 21.308594 62.78125 21.402344 C 63.019531 21.496094 63.214844 21.628906 63.375 21.804688 C 63.53125 21.972656 63.652344 22.171875 63.734375 22.414062 C 63.820312 22.652344 63.863281 22.921875 63.863281 23.214844 Z M 63.332031 23.214844 C 63.332031 22.984375 63.304688 22.777344 63.246094 22.585938 C 63.1875 22.398438 63.097656 22.238281 62.984375 22.109375 C 62.867188 21.972656 62.726562 21.867188 62.550781 21.792969 C 62.382812 21.722656 62.1875 21.683594 61.964844 21.683594 C 61.742188 21.683594 61.542969 21.722656 61.371094 21.792969 C 61.195312 21.867188 61.050781 21.972656 60.9375 22.109375 C 60.828125 22.238281 60.742188 22.398438 60.6875 22.585938 C 60.628906 22.777344 60.601562 22.984375 60.601562 23.214844 C 60.601562 23.449219 60.628906 23.660156 60.6875 23.855469 C 60.742188 24.046875 60.832031 24.210938 60.949219 24.34375 C 61.0625 24.484375 61.203125 24.59375 61.371094 24.671875 C 61.542969 24.746094 61.742188 24.78125 61.964844 24.78125 C 62.203125 24.78125 62.410156 24.746094 62.585938 24.671875 C 62.757812 24.59375 62.898438 24.484375 63.007812 24.34375 C 63.117188 24.203125 63.195312 24.035156 63.246094 23.847656 C 63.304688 23.652344 63.332031 23.441406 63.332031 23.214844 Z M 63.332031 23.214844 "/>
<path style=" stroke:none;fill-rule:nonzero;fill:rgb(0%,0%,0%);fill-opacity:1;" d="M 84.667969 64.269531 C 84.667969 64.566406 84.625 64.839844 84.539062 65.082031 C 84.453125 65.332031 84.324219 65.539062 84.160156 65.714844 C 84 65.886719 83.800781 66.023438 83.5625 66.117188 C 83.332031 66.207031 83.066406 66.257812 82.773438 66.257812 C 82.453125 66.257812 82.175781 66.207031 81.9375 66.117188 C 81.703125 66.015625 81.507812 65.875 81.351562 65.703125 C 81.191406 65.523438 81.074219 65.3125 80.992188 65.074219 C 80.914062 64.828125 80.875 64.558594 80.875 64.269531 C 80.875 63.972656 80.914062 63.703125 80.992188 63.464844 C 81.082031 63.222656 81.203125 63.015625 81.363281 62.847656 C 81.527344 62.679688 81.726562 62.550781 81.957031 62.453125 C 82.199219 62.363281 82.46875 62.3125 82.773438 62.3125 C 83.074219 62.3125 83.347656 62.363281 83.585938 62.453125 C 83.824219 62.550781 84.023438 62.683594 84.179688 62.855469 C 84.339844 63.023438 84.457031 63.226562 84.539062 63.464844 C 84.625 63.703125 84.667969 63.972656 84.667969 64.269531 Z M 84.136719 64.269531 C 84.136719 64.039062 84.109375 63.828125 84.050781 63.640625 C 83.992188 63.453125 83.90625 63.292969 83.792969 63.160156 C 83.675781 63.023438 83.53125 62.917969 83.359375 62.847656 C 83.1875 62.777344 82.996094 62.738281 82.773438 62.738281 C 82.546875 62.738281 82.347656 62.777344 82.175781 62.847656 C 82.003906 62.917969 81.855469 63.023438 81.742188 63.160156 C 81.632812 63.292969 81.550781 63.453125 81.492188 63.640625 C 81.433594 63.828125 81.40625 64.039062 81.40625 64.269531 C 81.40625 64.503906 81.433594 64.714844 81.492188 64.910156 C 81.550781 65.101562 81.636719 65.261719 81.753906 65.398438 C 81.867188 65.535156 82.007812 65.644531 82.175781 65.722656 C 82.347656 65.796875 82.546875 65.832031 82.773438 65.832031 C 83.011719 65.832031 83.214844 65.796875 83.390625 65.722656 C 83.5625 65.644531 83.703125 65.535156 83.8125 65.398438 C 83.921875 65.253906 84 65.089844 84.050781 64.898438 C 84.109375 64.703125 84.136719 64.496094 84.136719 64.269531 Z M 84.136719 64.269531 "/>
<path style=" stroke:none;fill-rule:nonzero;fill:rgb(0%,0%,0%);fill-opacity:1;" d="M 51.144531 73.863281 C 51.144531 74.164062 51.101562 74.433594 51.015625 74.679688 C 50.929688 74.925781 50.800781 75.136719 50.636719 75.308594 C 50.476562 75.484375 50.277344 75.617188 50.039062 75.710938 C 49.808594 75.804688 49.542969 75.851562 49.25 75.851562 C 48.929688 75.851562 48.652344 75.804688 48.414062 75.710938 C 48.179688 75.609375 47.984375 75.472656 47.828125 75.296875 C 47.667969 75.121094 47.550781 74.90625 47.472656 74.667969 C 47.390625 74.425781 47.351562 74.15625 47.351562 73.863281 C 47.351562 73.570312 47.390625 73.300781 47.472656 73.0625 C 47.558594 72.816406 47.679688 72.609375 47.839844 72.441406 C 48.003906 72.277344 48.203125 72.144531 48.4375 72.050781 C 48.675781 71.957031 48.945312 71.910156 49.25 71.910156 C 49.550781 71.910156 49.824219 71.957031 50.0625 72.050781 C 50.300781 72.144531 50.5 72.277344 50.660156 72.453125 C 50.816406 72.621094 50.933594 72.820312 51.015625 73.0625 C 51.101562 73.300781 51.144531 73.570312 51.144531 73.863281 Z M 50.613281 73.863281 C 50.613281 73.632812 50.585938 73.425781 50.527344 73.234375 C 50.46875 73.046875 50.382812 72.886719 50.269531 72.757812 C 50.152344 72.621094 50.007812 72.515625 49.835938 72.441406 C 49.667969 72.371094 49.472656 72.332031 49.25 72.332031 C 49.023438 72.332031 48.828125 72.371094 48.652344 72.441406 C 48.480469 72.515625 48.332031 72.621094 48.21875 72.757812 C 48.109375 72.886719 48.027344 73.046875 47.96875 73.234375 C 47.910156 73.425781 47.882812 73.632812 47.882812 73.863281 C 47.882812 74.097656 47.910156 74.308594 47.96875 74.503906 C 48.027344 74.695312 48.113281 74.859375 48.230469 74.996094 C 48.34375 75.132812 48.484375 75.242188 48.652344 75.320312 C 48.828125 75.394531 49.023438 75.429688 49.25 75.429688 C 49.488281 75.429688 49.695312 75.394531 49.867188 75.320312 C 50.039062 75.242188 50.179688 75.132812 50.289062 74.996094 C 50.398438 74.851562 50.476562 74.683594 50.527344 74.496094 C 50.585938 74.300781 50.613281 74.089844 50.613281 73.863281 Z M 50.613281 73.863281 "/>
<path style=" stroke:none;fill-rule:nonzero;fill:rgb(0%,0%,0%);fill-opacity:1;" d="M 25.632812 49.800781 C 25.632812 50.097656 25.589844 50.371094 25.503906 50.613281 C 25.414062 50.859375 25.289062 51.070312 25.125 51.242188 C 24.964844 51.417969 24.765625 51.554688 24.527344 51.644531 C 24.292969 51.738281 24.03125 51.785156 23.734375 51.785156 C 23.414062 51.785156 23.140625 51.738281 22.902344 51.644531 C 22.667969 51.546875 22.472656 51.40625 22.316406 51.234375 C 22.15625 51.054688 22.035156 50.839844 21.957031 50.601562 C 21.875 50.359375 21.839844 50.089844 21.839844 49.800781 C 21.839844 49.503906 21.875 49.234375 21.957031 48.996094 C 22.042969 48.75 22.167969 48.542969 22.324219 48.375 C 22.492188 48.210938 22.6875 48.082031 22.921875 47.984375 C 23.160156 47.894531 23.433594 47.84375 23.734375 47.84375 C 24.039062 47.84375 24.308594 47.894531 24.546875 47.984375 C 24.789062 48.082031 24.984375 48.214844 25.144531 48.386719 C 25.300781 48.554688 25.421875 48.757812 25.503906 48.996094 C 25.589844 49.234375 25.632812 49.503906 25.632812 49.800781 Z M 25.101562 49.800781 C 25.101562 49.566406 25.070312 49.359375 25.015625 49.167969 C 24.957031 48.980469 24.867188 48.820312 24.753906 48.691406 C 24.636719 48.554688 24.496094 48.449219 24.320312 48.375 C 24.152344 48.304688 23.957031 48.265625 23.734375 48.265625 C 23.511719 48.265625 23.3125 48.304688 23.140625 48.375 C 22.964844 48.449219 22.820312 48.554688 22.707031 48.691406 C 22.597656 48.820312 22.511719 48.980469 22.457031 49.167969 C 22.398438 49.359375 22.371094 49.566406 22.371094 49.800781 C 22.371094 50.03125 22.398438 50.246094 22.457031 50.441406 C 22.511719 50.628906 22.601562 50.792969 22.714844 50.929688 C 22.832031 51.066406 22.972656 51.175781 23.140625 51.253906 C 23.3125 51.328125 23.511719 51.363281 23.734375 51.363281 C 23.972656 51.363281 24.179688 51.328125 24.351562 51.253906 C 24.527344 51.175781 24.667969 51.066406 24.777344 50.929688 C 24.882812 50.785156 24.964844 50.617188 25.015625 50.429688 C 25.070312 50.234375 25.101562 50.023438 25.101562 49.800781 Z M 25.101562 49.800781 "/>
<path style=" stroke:none;fill-rule:nonzero;fill:rgb(0%,0%,0%);fill-opacity:1;" d="M 19.191406 23.925781 C 19.191406 24.222656 19.148438 24.496094 19.0625 24.738281 C 18.976562 24.988281 18.847656 25.195312 18.683594 25.371094 C 18.523438 25.542969 18.324219 25.679688 18.085938 25.769531 C 17.855469 25.863281 17.589844 25.914062 17.296875 25.914062 C 16.976562 25.914062 16.699219 25.863281 16.460938 25.769531 C 16.226562 25.671875 16.03125 25.53125 15.875 25.359375 C 15.714844 25.179688 15.597656 24.96875 15.515625 24.726562 C 15.4375 24.484375 15.398438 24.214844 15.398438 23.925781 C 15.398438 23.628906 15.4375 23.359375 15.515625 23.121094 C 15.605469 22.875 15.726562 22.671875 15.886719 22.5 C 16.050781 22.335938 16.25 22.207031 16.480469 22.109375 C 16.722656 22.019531 16.992188 21.96875 17.296875 21.96875 C 17.597656 21.96875 17.871094 22.019531 18.109375 22.109375 C 18.347656 22.207031 18.546875 22.339844 18.703125 22.511719 C 18.863281 22.679688 18.980469 22.882812 19.0625 23.121094 C 19.148438 23.359375 19.191406 23.628906 19.191406 23.925781 Z M 18.660156 23.925781 C 18.660156 23.695312 18.632812 23.484375 18.574219 23.292969 C 18.515625 23.105469 18.429688 22.945312 18.316406 22.816406 C 18.199219 22.679688 18.054688 22.574219 17.882812 22.5 C 17.710938 22.429688 17.519531 22.394531 17.296875 22.394531 C 17.070312 22.394531 16.871094 22.429688 16.699219 22.5 C 16.527344 22.574219 16.378906 22.679688 16.265625 22.816406 C 16.15625 22.945312 16.074219 23.105469 16.015625 23.292969 C 15.957031 23.484375 15.929688 23.695312 15.929688 23.925781 C 15.929688 24.15625 15.957031 24.371094 16.015625 24.566406 C 16.074219 24.753906 16.160156 24.917969 16.277344 25.054688 C 16.390625 25.191406 16.53125 25.300781 16.699219 25.378906 C 16.871094 25.453125 17.070312 25.488281 17.296875 25.488281 C 17.535156 25.488281 17.738281 25.453125 17.914062 25.378906 C 18.085938 25.300781 18.226562 25.191406 18.335938 25.054688 C 18.445312 24.910156 18.523438 24.746094 18.574219 24.554688 C 18.632812 24.359375 18.660156 24.148438 18.660156 23.925781 Z M 18.660156 23.925781 "/>
<path style="fill:none;stroke-width:0.0333333;stroke-linecap:butt;stroke-linejoin:miter;stroke:rgb(0%,0%,0%);stroke-opacity:1;stroke-miterlimit:10;" d="M 3.27648 1.077229 L 4.105607 0.839186 " transform="matrix(17.346939,0,0,17.378049,17.295917,17.178303)"/>
<path style="fill:none;stroke-width:0.0333333;stroke-linecap:butt;stroke-linejoin:miter;stroke:rgb(0%,0%,0%);stroke-opacity:1;stroke-miterlimit:10;" d="M 3.27648 1.077229 L 2.727031 0.506061 " transform="matrix(17.346939,0,0,17.378049,17.295917,17.178303)"/>
<path style="fill:none;stroke-width:0.0333333;stroke-linecap:butt;stroke-linejoin:miter;stroke:rgb(0%,0%,0%);stroke-opacity:1;stroke-miterlimit:10;" d="M 3.27648 1.077229 L 3.054899 2.004899 " transform="matrix(17.346939,0,0,17.378049,17.295917,17.178303)"/>
<path style="fill:none;stroke-width:0.0333333;stroke-linecap:butt;stroke-linejoin:miter;stroke:rgb(0%,0%,0%);stroke-opacity:1;stroke-miterlimit:10;" d="M 2.394885 0.39974 L 1.606742 0.62452 " transform="matrix(17.346939,0,0,17.378049,17.295917,17.178303)"/>
<path style="fill:none;stroke-width:0.0333333;stroke-linecap:butt;stroke-linejoin:miter;stroke:rgb(0%,0%,0%);stroke-opacity:1;stroke-miterlimit:10;" d="M 3.054899 2.004899 L 2.077376 2.280929 " transform="matrix(17.346939,0,0,17.378049,17.295917,17.178303)"/>
<path style="fill:none;stroke-width:0.0333333;stroke-linecap:butt;stroke-linejoin:miter;stroke:rgb(0%,0%,0%);stroke-opacity:1;stroke-miterlimit:10;" d="M 3.054899 2.004899 L 3.618309 2.557635 " transform="matrix(17.346939,0,0,17.378049,17.295917,17.178303)"/>
<path style="fill:none;stroke-width:0.0333333;stroke-linecap:butt;stroke-linejoin:miter;stroke:rgb(0%,0%,0%);stroke-opacity:1;stroke-miterlimit:10;" d="M 1.606742 0.62452 L 1.371425 1.58838 " transform="matrix(17.346939,0,0,17.378049,17.295917,17.178303)"/>
<path style="fill:none;stroke-width:0.0333333;stroke-linecap:butt;stroke-linejoin:miter;stroke:rgb(0%,0%,0%);stroke-opacity:1;stroke-miterlimit:10;" d="M 1.606742 0.62452 L 0.879173 -0.00688852 " transform="matrix(17.346939,0,0,17.378049,17.295917,17.178303)"/>
<path style="fill:none;stroke-width:0.0333333;stroke-linecap:butt;stroke-linejoin:miter;stroke:rgb(0%,0%,0%);stroke-opacity:1;stroke-miterlimit:10;" d="M 2.077376 2.280929 L 1.885069 3.082947 " transform="matrix(17.346939,0,0,17.378049,17.295917,17.178303)"/>
<path style="fill:none;stroke-width:0.0333333;stroke-linecap:butt;stroke-linejoin:miter;stroke:rgb(0%,0%,0%);stroke-opacity:1;stroke-miterlimit:10;" d="M 1.371425 1.58838 L 0.551756 1.825973 " transform="matrix(17.346939,0,0,17.378049,17.295917,17.178303)"/>
<path style="fill:none;stroke-width:0.0333333;stroke-linecap:butt;stroke-linejoin:miter;stroke:rgb(0%,0%,0%);stroke-opacity:1;stroke-miterlimit:10;" d="M 0.896737 -0.00419115 L 0.185832 0.307804 " transform="matrix(17.346939,0,0,17.378049,17.295917,17.178303)"/>
<path style="fill:none;stroke-width:0.0333333;stroke-linecap:butt;stroke-linejoin:miter;stroke:rgb(0%,0%,0%);stroke-opacity:1;stroke-miterlimit:10;" d="M 2.077376 2.280929 L 1.371425 1.58838 " transform="matrix(17.346939,0,0,17.378049,17.295917,17.178303)"/>
</g>
</svg>
