<?xml version="1.0" encoding="UTF-8"?>
<svg xmlns="http://www.w3.org/2000/svg" xmlns:xlink="http://www.w3.org/1999/xlink" width="208pt" height="127.2pt" viewBox="0 0 208 127.2" version="1.1">
<g id="surface67">
<path style=" stroke:none;fill-rule:nonzero;fill:rgb(0%,0%,47.058824%);fill-opacity:1;" d="M 93.050781 111.773438 L 91.375 108.835938 C 91.390625 108.917969 91.402344 108.996094 91.410156 109.074219 C 91.414062 109.140625 91.417969 109.210938 91.417969 109.289062 C 91.425781 109.371094 91.429688 109.449219 91.429688 109.519531 L 91.429688 111.773438 L 90.714844 111.773438 L 90.714844 107.957031 L 91.636719 107.957031 L 93.320312 110.917969 C 93.3125 110.847656 93.304688 110.765625 93.300781 110.679688 C 93.289062 110.609375 93.28125 110.527344 93.277344 110.441406 C 93.277344 110.355469 93.277344 110.265625 93.277344 110.167969 L 93.277344 107.957031 L 93.984375 107.957031 L 93.984375 111.773438 Z M 93.050781 111.773438 "/>
<path style=" stroke:none;fill-rule:nonzero;fill:rgb(0%,0%,0%);fill-opacity:1;" d="M 79.019531 52.226562 C 79.019531 52.523438 78.976562 52.796875 78.890625 53.039062 C 78.804688 53.285156 78.675781 53.496094 78.511719 53.667969 C 78.351562 53.84375 78.152344 53.976562 77.914062 54.070312 C 77.679688 54.164062 77.414062 54.210938 77.121094 54.210938 C 76.800781 54.210938 76.523438 54.164062 76.285156 54.070312 C 76.050781 53.96875 75.855469 53.832031 75.695312 53.65625 C 75.535156 53.480469 75.417969 53.269531 75.339844 53.027344 C 75.257812 52.785156 75.21875 52.515625 75.21875 52.226562 C 75.21875 51.929688 75.257812 51.660156 75.339844 51.421875 C 75.425781 51.179688 75.546875 50.972656 75.707031 50.804688 C 75.875 50.640625 76.070312 50.507812 76.304688 50.414062 C 76.542969 50.320312 76.816406 50.273438 77.121094 50.273438 C 77.421875 50.273438 77.695312 50.320312 77.933594 50.414062 C 78.171875 50.507812 78.371094 50.640625 78.53125 50.816406 C 78.6875 50.984375 78.808594 51.183594 78.890625 51.421875 C 78.976562 51.660156 79.019531 51.929688 79.019531 52.226562 Z M 78.488281 52.226562 C 78.488281 51.996094 78.457031 51.785156 78.402344 51.597656 C 78.339844 51.410156 78.253906 51.25 78.140625 51.121094 C 78.023438 50.984375 77.878906 50.878906 77.707031 50.804688 C 77.539062 50.734375 77.34375 50.695312 77.121094 50.695312 C 76.894531 50.695312 76.695312 50.734375 76.523438 50.804688 C 76.347656 50.878906 76.203125 50.984375 76.085938 51.121094 C 75.980469 51.25 75.894531 51.410156 75.835938 51.597656 C 75.777344 51.785156 75.75 51.996094 75.75 52.226562 C 75.75 52.460938 75.777344 52.671875 75.835938 52.867188 C 75.894531 53.054688 75.980469 53.21875 76.097656 53.355469 C 76.210938 53.492188 76.355469 53.601562 76.523438 53.679688 C 76.695312 53.753906 76.894531 53.789062 77.121094 53.789062 C 77.359375 53.789062 77.566406 53.753906 77.738281 53.679688 C 77.914062 53.601562 78.054688 53.492188 78.164062 53.355469 C 78.269531 53.210938 78.351562 53.046875 78.402344 52.855469 C 78.457031 52.660156 78.488281 52.453125 78.488281 52.226562 Z M 78.488281 52.226562 "/>
<path style=" stroke:none;fill-rule:nonzero;fill:rgb(0%,0%,47.058824%);fill-opacity:1;" d="M 137.621094 92.148438 L 135.945312 89.207031 C 135.960938 89.289062 135.972656 89.367188 135.980469 89.445312 C 135.984375 89.511719 135.992188 89.582031 135.992188 89.664062 C 135.996094 89.742188 136 89.820312 136 89.890625 L 136 92.148438 L 135.285156 92.148438 L 135.285156 88.328125 L 136.207031 88.328125 L 137.890625 91.289062 C 137.882812 91.21875 137.875 91.136719 137.871094 91.050781 C 137.863281 90.980469 137.851562 90.898438 137.847656 90.8125 C 137.847656 90.726562 137.847656 90.636719 137.847656 90.542969 L 137.847656 88.328125 L 138.554688 88.328125 L 138.554688 92.148438 Z M 137.621094 92.148438 "/>
<path style=" stroke:none;fill-rule:nonzero;fill:rgb(0%,0%,47.058824%);fill-opacity:1;" d="M 119.410156 40.660156 C 119.410156 40.957031 119.359375 41.226562 119.269531 41.472656 C 119.179688 41.71875 119.054688 41.929688 118.886719 42.101562 C 118.71875 42.273438 118.519531 42.410156 118.28125 42.503906 C 118.039062 42.59375 117.769531 42.644531 117.464844 42.644531 C 117.144531 42.644531 116.867188 42.59375 116.628906 42.503906 C 116.390625 42.402344 116.1875 42.265625 116.019531 42.089844 C 115.859375 41.910156 115.742188 41.699219 115.660156 41.460938 C 115.582031 41.21875 115.542969 40.949219 115.542969 40.660156 C 115.542969 40.363281 115.582031 40.09375 115.660156 39.855469 C 115.75 39.613281 115.875 39.40625 116.042969 39.238281 C 116.207031 39.070312 116.410156 38.941406 116.648438 38.847656 C 116.890625 38.753906 117.164062 38.707031 117.476562 38.707031 C 117.785156 38.707031 118.0625 38.753906 118.300781 38.847656 C 118.539062 38.941406 118.738281 39.074219 118.898438 39.25 C 119.0625 39.417969 119.191406 39.617188 119.277344 39.855469 C 119.367188 40.09375 119.410156 40.363281 119.410156 40.660156 Z M 118.59375 40.660156 C 118.59375 40.457031 118.566406 40.277344 118.519531 40.117188 C 118.46875 39.957031 118.394531 39.820312 118.300781 39.703125 C 118.207031 39.589844 118.089844 39.496094 117.953125 39.433594 C 117.816406 39.367188 117.65625 39.335938 117.476562 39.335938 C 117.285156 39.335938 117.121094 39.367188 116.976562 39.433594 C 116.835938 39.496094 116.722656 39.589844 116.628906 39.703125 C 116.535156 39.820312 116.460938 39.957031 116.410156 40.117188 C 116.367188 40.277344 116.347656 40.457031 116.347656 40.660156 C 116.347656 40.863281 116.371094 41.046875 116.421875 41.210938 C 116.472656 41.371094 116.542969 41.511719 116.640625 41.636719 C 116.730469 41.75 116.847656 41.847656 116.988281 41.917969 C 117.121094 41.980469 117.28125 42.015625 117.464844 42.015625 C 117.660156 42.015625 117.824219 41.980469 117.964844 41.917969 C 118.109375 41.847656 118.226562 41.75 118.324219 41.636719 C 118.414062 41.511719 118.484375 41.371094 118.53125 41.199219 C 118.574219 41.035156 118.59375 40.855469 118.59375 40.660156 Z M 118.59375 40.660156 "/>
<path style=" stroke:none;fill-rule:nonzero;fill:rgb(0%,0%,0%);fill-opacity:1;" d="M 162.824219 73.605469 C 162.824219 73.90625 162.78125 74.175781 162.691406 74.421875 C 162.605469 74.667969 162.476562 74.875 162.3125 75.050781 C 162.152344 75.222656 161.953125 75.359375 161.714844 75.449219 C 161.480469 75.542969 161.21875 75.589844 160.921875 75.589844 C 160.601562 75.589844 160.324219 75.542969 160.085938 75.449219 C 159.851562 75.351562 159.65625 75.210938 159.5 75.039062 C 159.339844 74.859375 159.21875 74.648438 159.140625 74.410156 C 159.058594 74.164062 159.019531 73.898438 159.019531 73.605469 C 159.019531 73.3125 159.058594 73.042969 159.140625 72.804688 C 159.226562 72.558594 159.351562 72.351562 159.511719 72.183594 C 159.675781 72.019531 159.875 71.890625 160.109375 71.792969 C 160.347656 71.703125 160.617188 71.652344 160.921875 71.652344 C 161.226562 71.652344 161.496094 71.703125 161.738281 71.792969 C 161.976562 71.890625 162.175781 72.023438 162.335938 72.195312 C 162.492188 72.363281 162.613281 72.566406 162.691406 72.804688 C 162.78125 73.042969 162.824219 73.3125 162.824219 73.605469 Z M 162.289062 73.605469 C 162.289062 73.375 162.261719 73.167969 162.203125 72.976562 C 162.144531 72.789062 162.058594 72.628906 161.941406 72.5 C 161.828125 72.363281 161.683594 72.257812 161.507812 72.183594 C 161.339844 72.113281 161.144531 72.078125 160.921875 72.078125 C 160.695312 72.078125 160.5 72.113281 160.324219 72.183594 C 160.152344 72.257812 160.003906 72.363281 159.890625 72.5 C 159.78125 72.628906 159.699219 72.789062 159.640625 72.976562 C 159.582031 73.167969 159.554688 73.375 159.554688 73.605469 C 159.554688 73.839844 159.582031 74.050781 159.640625 74.246094 C 159.699219 74.4375 159.785156 74.597656 159.902344 74.734375 C 160.015625 74.871094 160.15625 74.980469 160.324219 75.058594 C 160.5 75.132812 160.695312 75.167969 160.921875 75.167969 C 161.160156 75.167969 161.367188 75.132812 161.542969 75.058594 C 161.714844 74.980469 161.855469 74.871094 161.964844 74.734375 C 162.074219 74.589844 162.152344 74.425781 162.203125 74.234375 C 162.261719 74.039062 162.289062 73.832031 162.289062 73.605469 Z M 162.289062 73.605469 "/>
<path style=" stroke:none;fill-rule:nonzero;fill:rgb(0%,0%,0%);fill-opacity:1;" d="M 147.589844 50.402344 C 147.589844 50.703125 147.546875 50.972656 147.460938 51.21875 C 147.375 51.464844 147.246094 51.671875 147.082031 51.847656 C 146.921875 52.019531 146.722656 52.15625 146.484375 52.246094 C 146.25 52.339844 145.988281 52.390625 145.691406 52.390625 C 145.371094 52.390625 145.09375 52.339844 144.855469 52.246094 C 144.621094 52.148438 144.425781 52.007812 144.269531 51.835938 C 144.105469 51.65625 143.988281 51.445312 143.910156 51.207031 C 143.828125 50.960938 143.789062 50.695312 143.789062 50.402344 C 143.789062 50.109375 143.828125 49.839844 143.910156 49.601562 C 143.996094 49.355469 144.117188 49.152344 144.277344 48.980469 C 144.445312 48.816406 144.640625 48.6875 144.875 48.589844 C 145.113281 48.5 145.386719 48.449219 145.691406 48.449219 C 145.996094 48.449219 146.265625 48.5 146.503906 48.589844 C 146.746094 48.6875 146.941406 48.820312 147.101562 48.992188 C 147.261719 49.160156 147.378906 49.363281 147.460938 49.601562 C 147.546875 49.839844 147.589844 50.109375 147.589844 50.402344 Z M 147.058594 50.402344 C 147.058594 50.171875 147.03125 49.964844 146.972656 49.773438 C 146.914062 49.585938 146.824219 49.425781 146.710938 49.296875 C 146.59375 49.160156 146.449219 49.054688 146.277344 48.980469 C 146.109375 48.910156 145.914062 48.875 145.691406 48.875 C 145.464844 48.875 145.265625 48.910156 145.09375 48.980469 C 144.917969 49.054688 144.773438 49.160156 144.660156 49.296875 C 144.550781 49.425781 144.464844 49.585938 144.410156 49.773438 C 144.347656 49.964844 144.320312 50.171875 144.320312 50.402344 C 144.320312 50.636719 144.347656 50.847656 144.410156 51.042969 C 144.464844 51.234375 144.554688 51.394531 144.667969 51.53125 C 144.785156 51.671875 144.925781 51.777344 145.09375 51.855469 C 145.265625 51.929688 145.464844 51.964844 145.691406 51.964844 C 145.929688 51.964844 146.136719 51.929688 146.308594 51.855469 C 146.484375 51.777344 146.625 51.671875 146.734375 51.53125 C 146.84375 51.386719 146.921875 51.222656 146.972656 51.03125 C 147.03125 50.835938 147.058594 50.628906 147.058594 50.402344 Z M 147.058594 50.402344 "/>
<path style=" stroke:none;fill-rule:nonzero;fill:rgb(0%,0%,47.058824%);fill-opacity:1;" d="M 131.488281 36.339844 C 131.640625 36.339844 131.769531 36.316406 131.878906 36.273438 C 131.988281 36.230469 132.082031 36.175781 132.160156 36.109375 C 132.242188 36.039062 132.304688 35.957031 132.355469 35.871094 C 132.414062 35.785156 132.460938 35.699219 132.5 35.609375 L 133.195312 35.871094 C 133.132812 36.011719 133.058594 36.148438 132.964844 36.285156 C 132.878906 36.414062 132.765625 36.53125 132.628906 36.632812 C 132.5 36.734375 132.339844 36.816406 132.152344 36.878906 C 131.960938 36.9375 131.742188 36.96875 131.488281 36.96875 C 131.152344 36.96875 130.863281 36.917969 130.621094 36.828125 C 130.378906 36.726562 130.179688 36.585938 130.023438 36.414062 C 129.863281 36.234375 129.742188 36.023438 129.664062 35.785156 C 129.589844 35.539062 129.554688 35.273438 129.554688 34.980469 C 129.554688 34.6875 129.589844 34.417969 129.664062 34.179688 C 129.742188 33.933594 129.859375 33.730469 130.011719 33.5625 C 130.167969 33.394531 130.371094 33.265625 130.609375 33.171875 C 130.847656 33.078125 131.128906 33.027344 131.457031 33.027344 C 131.699219 33.027344 131.917969 33.058594 132.105469 33.117188 C 132.292969 33.167969 132.457031 33.242188 132.597656 33.332031 C 132.730469 33.429688 132.847656 33.539062 132.933594 33.667969 C 133.019531 33.800781 133.085938 33.941406 133.140625 34.09375 L 132.433594 34.289062 C 132.410156 34.207031 132.371094 34.132812 132.3125 34.058594 C 132.261719 33.980469 132.195312 33.914062 132.117188 33.855469 C 132.035156 33.796875 131.945312 33.75 131.835938 33.710938 C 131.726562 33.675781 131.601562 33.660156 131.464844 33.660156 C 131.269531 33.660156 131.101562 33.691406 130.964844 33.757812 C 130.828125 33.820312 130.710938 33.914062 130.621094 34.027344 C 130.53125 34.144531 130.46875 34.28125 130.421875 34.441406 C 130.378906 34.597656 130.359375 34.78125 130.359375 34.980469 C 130.359375 35.183594 130.378906 35.371094 130.421875 35.535156 C 130.46875 35.695312 130.53125 35.835938 130.621094 35.957031 C 130.710938 36.074219 130.828125 36.167969 130.964844 36.242188 C 131.109375 36.304688 131.285156 36.339844 131.488281 36.339844 Z M 131.488281 36.339844 "/>
<path style=" stroke:none;fill-rule:nonzero;fill:rgb(0%,0%,0%);fill-opacity:1;" d="M 175.628906 46 C 175.414062 46 175.21875 46.039062 175.054688 46.109375 C 174.886719 46.183594 174.746094 46.289062 174.628906 46.425781 C 174.523438 46.554688 174.4375 46.714844 174.378906 46.902344 C 174.320312 47.09375 174.292969 47.300781 174.292969 47.53125 C 174.292969 47.765625 174.320312 47.976562 174.378906 48.171875 C 174.445312 48.359375 174.535156 48.523438 174.652344 48.660156 C 174.765625 48.796875 174.90625 48.90625 175.074219 48.984375 C 175.25 49.058594 175.441406 49.09375 175.652344 49.09375 C 175.804688 49.09375 175.9375 49.078125 176.054688 49.039062 C 176.175781 48.996094 176.285156 48.9375 176.390625 48.867188 C 176.492188 48.796875 176.578125 48.710938 176.652344 48.617188 C 176.730469 48.523438 176.796875 48.414062 176.855469 48.289062 L 177.28125 48.507812 C 177.214844 48.652344 177.132812 48.785156 177.03125 48.910156 C 176.929688 49.035156 176.808594 49.140625 176.671875 49.234375 C 176.535156 49.320312 176.378906 49.390625 176.207031 49.441406 C 176.03125 49.488281 175.839844 49.515625 175.628906 49.515625 C 175.316406 49.515625 175.046875 49.46875 174.816406 49.375 C 174.582031 49.273438 174.386719 49.136719 174.230469 48.964844 C 174.078125 48.785156 173.960938 48.574219 173.882812 48.335938 C 173.800781 48.089844 173.761719 47.820312 173.761719 47.53125 C 173.761719 47.234375 173.800781 46.96875 173.882812 46.726562 C 173.96875 46.484375 174.089844 46.277344 174.25 46.109375 C 174.40625 45.945312 174.601562 45.816406 174.835938 45.71875 C 175.066406 45.628906 175.332031 45.578125 175.628906 45.578125 C 176.035156 45.578125 176.371094 45.660156 176.640625 45.816406 C 176.914062 45.976562 177.117188 46.214844 177.25 46.535156 L 176.757812 46.695312 C 176.722656 46.605469 176.671875 46.515625 176.605469 46.4375 C 176.546875 46.347656 176.472656 46.277344 176.378906 46.21875 C 176.285156 46.152344 176.175781 46.105469 176.054688 46.066406 C 175.929688 46.023438 175.789062 46 175.628906 46 Z M 175.628906 46 "/>
<path style=" stroke:none;fill-rule:nonzero;fill:rgb(0%,0%,0%);fill-opacity:1;" d="M 190.789062 72.078125 C 190.574219 72.078125 190.378906 72.113281 190.214844 72.183594 C 190.046875 72.257812 189.90625 72.363281 189.792969 72.5 C 189.683594 72.628906 189.597656 72.789062 189.542969 72.976562 C 189.480469 73.167969 189.453125 73.375 189.453125 73.605469 C 189.453125 73.839844 189.480469 74.050781 189.542969 74.246094 C 189.605469 74.4375 189.695312 74.597656 189.8125 74.734375 C 189.925781 74.871094 190.070312 74.980469 190.238281 75.058594 C 190.410156 75.132812 190.601562 75.167969 190.8125 75.167969 C 190.964844 75.167969 191.097656 75.152344 191.214844 75.113281 C 191.335938 75.070312 191.449219 75.015625 191.550781 74.941406 C 191.652344 74.871094 191.738281 74.785156 191.8125 74.691406 C 191.890625 74.597656 191.957031 74.492188 192.019531 74.367188 L 192.441406 74.582031 C 192.375 74.730469 192.292969 74.863281 192.191406 74.984375 C 192.089844 75.109375 191.96875 75.21875 191.832031 75.308594 C 191.695312 75.394531 191.539062 75.46875 191.367188 75.515625 C 191.191406 75.566406 191 75.589844 190.789062 75.589844 C 190.480469 75.589844 190.207031 75.542969 189.976562 75.449219 C 189.742188 75.351562 189.546875 75.210938 189.390625 75.039062 C 189.238281 74.859375 189.121094 74.648438 189.042969 74.410156 C 188.960938 74.164062 188.921875 73.898438 188.921875 73.605469 C 188.921875 73.3125 188.960938 73.042969 189.042969 72.804688 C 189.128906 72.558594 189.25 72.351562 189.410156 72.183594 C 189.570312 72.019531 189.765625 71.890625 189.996094 71.792969 C 190.230469 71.703125 190.492188 71.652344 190.789062 71.652344 C 191.195312 71.652344 191.53125 71.734375 191.800781 71.890625 C 192.074219 72.050781 192.277344 72.289062 192.410156 72.609375 L 191.921875 72.769531 C 191.882812 72.679688 191.832031 72.59375 191.769531 72.511719 C 191.707031 72.425781 191.632812 72.351562 191.539062 72.292969 C 191.445312 72.230469 191.335938 72.179688 191.214844 72.140625 C 191.089844 72.097656 190.949219 72.078125 190.789062 72.078125 Z M 190.789062 72.078125 "/>
<path style=" stroke:none;fill-rule:nonzero;fill:rgb(0%,0%,0%);fill-opacity:1;" d="M 16.660156 15.71875 C 16.441406 15.71875 16.25 15.753906 16.085938 15.824219 C 15.914062 15.898438 15.773438 16.003906 15.660156 16.140625 C 15.550781 16.269531 15.46875 16.429688 15.410156 16.617188 C 15.351562 16.808594 15.324219 17.015625 15.324219 17.246094 C 15.324219 17.480469 15.351562 17.691406 15.410156 17.886719 C 15.476562 18.078125 15.566406 18.238281 15.683594 18.375 C 15.796875 18.511719 15.9375 18.621094 16.105469 18.699219 C 16.28125 18.773438 16.46875 18.808594 16.683594 18.808594 C 16.832031 18.808594 16.96875 18.792969 17.082031 18.753906 C 17.207031 18.710938 17.316406 18.65625 17.421875 18.582031 C 17.519531 18.511719 17.609375 18.425781 17.679688 18.332031 C 17.761719 18.238281 17.828125 18.132812 17.886719 18.007812 L 18.3125 18.222656 C 18.246094 18.371094 18.160156 18.503906 18.0625 18.625 C 17.957031 18.75 17.839844 18.859375 17.703125 18.949219 C 17.5625 19.035156 17.410156 19.109375 17.234375 19.15625 C 17.0625 19.207031 16.871094 19.230469 16.660156 19.230469 C 16.347656 19.230469 16.078125 19.183594 15.84375 19.089844 C 15.613281 18.992188 15.417969 18.851562 15.257812 18.679688 C 15.105469 18.5 14.988281 18.289062 14.910156 18.050781 C 14.828125 17.804688 14.792969 17.535156 14.792969 17.246094 C 14.792969 16.953125 14.828125 16.683594 14.910156 16.445312 C 15 16.199219 15.121094 15.992188 15.28125 15.824219 C 15.4375 15.660156 15.632812 15.53125 15.867188 15.433594 C 16.097656 15.34375 16.363281 15.292969 16.660156 15.292969 C 17.066406 15.292969 17.402344 15.375 17.671875 15.53125 C 17.945312 15.691406 18.148438 15.929688 18.277344 16.25 L 17.789062 16.410156 C 17.75 16.320312 17.703125 16.234375 17.636719 16.152344 C 17.578125 16.0625 17.5 15.992188 17.410156 15.933594 C 17.316406 15.867188 17.207031 15.820312 17.082031 15.78125 C 16.957031 15.738281 16.816406 15.71875 16.660156 15.71875 Z M 16.660156 15.71875 "/>
<path style=" stroke:none;fill-rule:nonzero;fill:rgb(0%,0%,0%);fill-opacity:1;" d="M 19.070312 19.179688 L 19.070312 15.152344 L 19.558594 15.152344 L 19.558594 19.179688 Z M 19.070312 19.179688 "/>
<path style="fill:none;stroke-width:0.06;stroke-linecap:butt;stroke-linejoin:miter;stroke:rgb(0%,0%,47.058824%);stroke-opacity:1;stroke-miterlimit:10;" d="M 4.842812 3.763607 L 3.831843 3.763607 " transform="matrix(17.379679,0,0,17.358079,17.177231,17.194446)"/>
<path style="fill:none;stroke-width:0.06;stroke-linecap:butt;stroke-linejoin:miter;stroke:rgb(0%,0%,47.058824%);stroke-opacity:1;stroke-miterlimit:10;" d="M 4.821235 3.772834 L 5.540915 3.028179 " transform="matrix(17.379679,0,0,17.358079,17.177231,17.194446)"/>
<path style="fill:none;stroke-width:0.06;stroke-linecap:butt;stroke-linejoin:miter;stroke:rgb(0%,0%,47.058824%);stroke-opacity:1;stroke-miterlimit:10;" d="M 4.830001 3.763607 L 5.145114 4.777409 " transform="matrix(17.379679,0,0,17.358079,17.177231,17.194446)"/>
<path style="fill:none;stroke-width:0.06;stroke-linecap:butt;stroke-linejoin:miter;stroke:rgb(0%,0%,47.058824%);stroke-opacity:1;stroke-miterlimit:10;" d="M 5.018574 3.80839 L 5.275025 4.634059 " transform="matrix(17.379679,0,0,17.358079,17.177231,17.194446)"/>
<path style="fill:none;stroke-width:0.06;stroke-linecap:butt;stroke-linejoin:miter;stroke:rgb(0%,0%,47.058824%);stroke-opacity:1;stroke-miterlimit:10;" d="M 3.859938 3.744029 L 3.489534 4.75018 " transform="matrix(17.379679,0,0,17.358079,17.177231,17.194446)"/>
<path style="fill:none;stroke-width:0.06;stroke-linecap:butt;stroke-linejoin:miter;stroke:rgb(0%,0%,47.058824%);stroke-opacity:1;stroke-miterlimit:10;" d="M 3.852746 3.763607 L 3.178467 2.992398 " transform="matrix(17.379679,0,0,17.358079,17.177231,17.194446)"/>
<path style="fill:none;stroke-width:0.06;stroke-linecap:butt;stroke-linejoin:miter;stroke:rgb(0%,0%,47.058824%);stroke-opacity:1;stroke-miterlimit:10;" d="M 3.66215 3.798938 L 3.113062 3.171079 " transform="matrix(17.379679,0,0,17.358079,17.177231,17.194446)"/>
<path style="fill:none;stroke-width:0.06;stroke-linecap:butt;stroke-linejoin:miter;stroke:rgb(0%,0%,47.058824%);stroke-opacity:1;stroke-miterlimit:10;" d="M 5.528778 3.041006 L 6.522216 3.250743 " transform="matrix(17.379679,0,0,17.358079,17.177231,17.194446)"/>
<path style="fill:none;stroke-width:0.06;stroke-linecap:butt;stroke-linejoin:miter;stroke:rgb(0%,0%,47.058824%);stroke-opacity:1;stroke-miterlimit:10;" d="M 5.584519 3.223063 L 6.399048 3.395218 " transform="matrix(17.379679,0,0,17.358079,17.177231,17.194446)"/>
<path style="fill:none;stroke-width:0.06;stroke-linecap:butt;stroke-linejoin:miter;stroke:rgb(0%,0%,47.058824%);stroke-opacity:1;stroke-miterlimit:10;" d="M 5.533948 3.057884 L 5.233444 2.081664 " transform="matrix(17.379679,0,0,17.358079,17.177231,17.194446)"/>
<path style="fill:none;stroke-width:0.06;stroke-linecap:butt;stroke-linejoin:miter;stroke:rgb(0%,0%,47.058824%);stroke-opacity:1;stroke-miterlimit:10;" d="M 5.155453 4.770208 L 4.490164 5.225913 " transform="matrix(17.379679,0,0,17.358079,17.177231,17.194446)"/>
<path style="fill:none;stroke-width:0.06;stroke-linecap:butt;stroke-linejoin:miter;stroke:rgb(0%,0%,47.058824%);stroke-opacity:1;stroke-miterlimit:10;" d="M 5.132527 4.774934 L 6.203731 4.994797 " transform="matrix(17.379679,0,0,17.358079,17.177231,17.194446)"/>
<path style="fill:none;stroke-width:0.06;stroke-linecap:butt;stroke-linejoin:miter;stroke:rgb(0%,0%,47.058824%);stroke-opacity:1;stroke-miterlimit:10;" d="M 3.497401 4.729026 L 2.433838 4.905682 " transform="matrix(17.379679,0,0,17.358079,17.177231,17.194446)"/>
<path style="fill:none;stroke-width:0.06;stroke-linecap:butt;stroke-linejoin:miter;stroke:rgb(0%,0%,47.058824%);stroke-opacity:1;stroke-miterlimit:10;" d="M 3.374457 4.5805 L 2.503739 4.724975 " transform="matrix(17.379679,0,0,17.358079,17.177231,17.194446)"/>
<path style="fill:none;stroke-width:0.0333333;stroke-linecap:butt;stroke-linejoin:miter;stroke:rgb(0%,0%,0%);stroke-opacity:1;stroke-miterlimit:10;" d="M 3.17532 3.002749 L 3.398057 2.202735 " transform="matrix(17.379679,0,0,17.358079,17.177231,17.194446)"/>
<path style="fill:none;stroke-width:0.06;stroke-linecap:butt;stroke-linejoin:miter;stroke:rgb(0%,0%,47.058824%);stroke-opacity:1;stroke-miterlimit:10;" d="M 3.189031 2.990597 L 2.163902 3.148575 " transform="matrix(17.379679,0,0,17.358079,17.177231,17.194446)"/>
<path style="fill:none;stroke-width:0.06;stroke-linecap:butt;stroke-linejoin:miter;stroke:rgb(0%,0%,47.058824%);stroke-opacity:1;stroke-miterlimit:10;" d="M 6.517046 3.237465 L 6.820921 4.028479 " transform="matrix(17.379679,0,0,17.358079,17.177231,17.194446)"/>
<path style="fill:none;stroke-width:0.0333333;stroke-linecap:butt;stroke-linejoin:miter;stroke:rgb(0%,0%,0%);stroke-opacity:1;stroke-miterlimit:10;" d="M 6.509854 3.257944 L 7.410915 2.745304 " transform="matrix(17.379679,0,0,17.358079,17.177231,17.194446)"/>
<path style="fill:none;stroke-width:0.06;stroke-linecap:butt;stroke-linejoin:miter;stroke:rgb(0%,0%,47.058824%);stroke-opacity:1;stroke-miterlimit:10;" d="M 5.229399 2.107768 L 5.644305 1.529417 " transform="matrix(17.379679,0,0,17.358079,17.177231,17.194446)"/>
<path style="fill:none;stroke-width:0.06;stroke-linecap:butt;stroke-linejoin:miter;stroke:rgb(0%,0%,47.058824%);stroke-opacity:1;stroke-miterlimit:10;" d="M 2.462383 4.916709 L 1.794397 4.069211 " transform="matrix(17.379679,0,0,17.358079,17.177231,17.194446)"/>
<path style="fill:none;stroke-width:0.0333333;stroke-linecap:butt;stroke-linejoin:miter;stroke:rgb(0%,0%,0%);stroke-opacity:1;stroke-miterlimit:10;" d="M 3.267697 1.909959 L 2.588698 1.501512 " transform="matrix(17.379679,0,0,17.358079,17.177231,17.194446)"/>
<path style="fill:none;stroke-width:0.0333333;stroke-linecap:butt;stroke-linejoin:miter;stroke:rgb(0%,0%,0%);stroke-opacity:1;stroke-miterlimit:10;" d="M 7.394283 2.745304 L 8.088566 3.145649 " transform="matrix(17.379679,0,0,17.358079,17.177231,17.194446)"/>
<path style="fill:none;stroke-width:0.0333333;stroke-linecap:butt;stroke-linejoin:miter;stroke:rgb(0%,0%,0%);stroke-opacity:1;stroke-miterlimit:10;" d="M 7.486435 2.798414 L 7.479467 2.071537 " transform="matrix(17.379679,0,0,17.358079,17.177231,17.194446)"/>
<path style="fill:none;stroke-width:0.0333333;stroke-linecap:butt;stroke-linejoin:miter;stroke:rgb(0%,0%,0%);stroke-opacity:1;stroke-miterlimit:10;" d="M 7.319663 2.797289 L 7.312695 2.073112 " transform="matrix(17.379679,0,0,17.358079,17.177231,17.194446)"/>
<path style="fill:none;stroke-width:0.06;stroke-linecap:butt;stroke-linejoin:miter;stroke:rgb(0%,0%,47.058824%);stroke-opacity:1;stroke-miterlimit:10;" d="M 5.958519 1.276248 L 6.388933 1.100042 " transform="matrix(17.379679,0,0,17.358079,17.177231,17.194446)"/>
<path style="fill:none;stroke-width:0.0333333;stroke-linecap:butt;stroke-linejoin:miter;stroke:rgb(0%,0%,0%);stroke-opacity:1;stroke-miterlimit:10;" d="M 2.596789 1.506238 L 2.596789 0.503238 " transform="matrix(17.379679,0,0,17.358079,17.177231,17.194446)"/>
<path style="fill:none;stroke-width:0.0333333;stroke-linecap:butt;stroke-linejoin:miter;stroke:rgb(0%,0%,0%);stroke-opacity:1;stroke-miterlimit:10;" d="M 2.430018 1.406096 L 2.430018 0.59888 " transform="matrix(17.379679,0,0,17.358079,17.177231,17.194446)"/>
<path style="fill:none;stroke-width:0.0333333;stroke-linecap:butt;stroke-linejoin:miter;stroke:rgb(0%,0%,0%);stroke-opacity:1;stroke-miterlimit:10;" d="M 2.605105 1.501962 L 1.71281 1.97477 " transform="matrix(17.379679,0,0,17.358079,17.177231,17.194446)"/>
<path style="fill:none;stroke-width:0.0333333;stroke-linecap:butt;stroke-linejoin:miter;stroke:rgb(0%,0%,0%);stroke-opacity:1;stroke-miterlimit:10;" d="M 8.452451 3.142499 L 9.110772 2.75003 " transform="matrix(17.379679,0,0,17.358079,17.177231,17.194446)"/>
<path style="fill:none;stroke-width:0.0333333;stroke-linecap:butt;stroke-linejoin:miter;stroke:rgb(0%,0%,0%);stroke-opacity:1;stroke-miterlimit:10;" d="M 2.605105 0.51764 L 1.712135 -0.00490095 " transform="matrix(17.379679,0,0,17.358079,17.177231,17.194446)"/>
<path style="fill:none;stroke-width:0.0333333;stroke-linecap:butt;stroke-linejoin:miter;stroke:rgb(0%,0%,0%);stroke-opacity:1;stroke-miterlimit:10;" d="M 1.728318 1.97477 L 0.831078 1.501512 " transform="matrix(17.379679,0,0,17.358079,17.177231,17.194446)"/>
<path style="fill:none;stroke-width:0.0333333;stroke-linecap:butt;stroke-linejoin:miter;stroke:rgb(0%,0%,0%);stroke-opacity:1;stroke-miterlimit:10;" d="M 1.728093 1.786412 L 0.997849 1.40092 " transform="matrix(17.379679,0,0,17.358079,17.177231,17.194446)"/>
<path style="fill:none;stroke-width:0.0333333;stroke-linecap:butt;stroke-linejoin:miter;stroke:rgb(0%,0%,0%);stroke-opacity:1;stroke-miterlimit:10;" d="M 9.110772 2.75003 L 9.110772 1.905458 " transform="matrix(17.379679,0,0,17.358079,17.177231,17.194446)"/>
<path style="fill:none;stroke-width:0.0333333;stroke-linecap:butt;stroke-linejoin:miter;stroke:rgb(0%,0%,0%);stroke-opacity:1;stroke-miterlimit:10;" d="M 9.110772 2.75003 L 9.806853 3.149475 " transform="matrix(17.379679,0,0,17.358079,17.177231,17.194446)"/>
<path style="fill:none;stroke-width:0.0333333;stroke-linecap:butt;stroke-linejoin:miter;stroke:rgb(0%,0%,0%);stroke-opacity:1;stroke-miterlimit:10;" d="M 1.728768 -0.00490095 L 0.840068 0.512914 " transform="matrix(17.379679,0,0,17.358079,17.177231,17.194446)"/>
<path style="fill:none;stroke-width:0.0333333;stroke-linecap:butt;stroke-linejoin:miter;stroke:rgb(0%,0%,0%);stroke-opacity:1;stroke-miterlimit:10;" d="M 1.728768 0.187958 L 1.00684 0.608556 " transform="matrix(17.379679,0,0,17.358079,17.177231,17.194446)"/>
<path style="fill:none;stroke-width:0.0333333;stroke-linecap:butt;stroke-linejoin:miter;stroke:rgb(0%,0%,0%);stroke-opacity:1;stroke-miterlimit:10;" d="M 0.848159 0.51764 L 0.203099 0.124047 " transform="matrix(17.379679,0,0,17.358079,17.177231,17.194446)"/>
<path style="fill:none;stroke-width:0.06;stroke-linecap:butt;stroke-linejoin:miter;stroke:rgb(0%,0%,47.058824%);stroke-opacity:1;stroke-miterlimit:10;" d="M 3.479195 4.715749 L 4.162914 5.219162 " transform="matrix(17.379679,0,0,17.358079,17.177231,17.194446)"/>
<path style="fill:none;stroke-width:0.06;stroke-linecap:butt;stroke-linejoin:miter;stroke:rgb(0%,0%,47.058824%);stroke-opacity:1;stroke-miterlimit:10;" d="M 6.175637 5.004249 L 6.75237 4.361312 " transform="matrix(17.379679,0,0,17.358079,17.177231,17.194446)"/>
<path style="fill:none;stroke-width:0.06;stroke-linecap:butt;stroke-linejoin:miter;stroke:rgb(0%,0%,47.058824%);stroke-opacity:1;stroke-miterlimit:10;" d="M 6.115401 4.821742 L 6.628302 4.250142 " transform="matrix(17.379679,0,0,17.358079,17.177231,17.194446)"/>
<path style="fill:none;stroke-width:0.06;stroke-linecap:butt;stroke-linejoin:miter;stroke:rgb(0%,0%,47.058824%);stroke-opacity:1;stroke-miterlimit:10;" d="M 2.187277 3.130122 L 1.798893 4.098916 " transform="matrix(17.379679,0,0,17.358079,17.177231,17.194446)"/>
<path style="fill:none;stroke-width:0.06;stroke-linecap:butt;stroke-linejoin:miter;stroke:rgb(0%,0%,47.058824%);stroke-opacity:1;stroke-miterlimit:10;" d="M 2.3064 3.280223 L 1.989264 4.071686 " transform="matrix(17.379679,0,0,17.358079,17.177231,17.194446)"/>
<path style="fill:none;stroke-width:0.0333333;stroke-linecap:butt;stroke-linejoin:miter;stroke:rgb(0%,0%,0%);stroke-opacity:1;stroke-miterlimit:10;" d="M 0.840068 1.516365 L 0.840068 0.503463 " transform="matrix(17.379679,0,0,17.358079,17.177231,17.194446)"/>
</g>
</svg>
