<?xml version="1.0" encoding="UTF-8"?>
<svg xmlns="http://www.w3.org/2000/svg" xmlns:xlink="http://www.w3.org/1999/xlink" width="139.2pt" height="68.8pt" viewBox="0 0 139.2 68.8" version="1.1">
<g id="surface162">
<path style=" stroke:none;fill-rule:nonzero;fill:rgb(0%,0%,0%);fill-opacity:1;" d="M 64.058594 16.976562 C 64.058594 17.273438 64.015625 17.542969 63.929688 17.789062 C 63.84375 18.035156 63.714844 18.242188 63.550781 18.417969 C 63.390625 18.589844 63.191406 18.726562 62.953125 18.816406 C 62.722656 18.910156 62.457031 18.957031 62.164062 18.957031 C 61.84375 18.957031 61.566406 18.910156 61.328125 18.816406 C 61.097656 18.71875 60.902344 18.578125 60.742188 18.40625 C 60.585938 18.226562 60.464844 18.015625 60.386719 17.777344 C 60.304688 17.535156 60.265625 17.265625 60.265625 16.976562 C 60.265625 16.679688 60.304688 16.414062 60.386719 16.171875 C 60.472656 15.929688 60.59375 15.722656 60.753906 15.554688 C 60.921875 15.390625 61.117188 15.261719 61.351562 15.164062 C 61.589844 15.074219 61.859375 15.023438 62.164062 15.023438 C 62.464844 15.023438 62.738281 15.074219 62.976562 15.164062 C 63.214844 15.261719 63.410156 15.394531 63.570312 15.566406 C 63.726562 15.734375 63.847656 15.933594 63.929688 16.171875 C 64.015625 16.414062 64.058594 16.679688 64.058594 16.976562 Z M 63.527344 16.976562 C 63.527344 16.746094 63.496094 16.535156 63.441406 16.347656 C 63.382812 16.160156 63.292969 16 63.179688 15.871094 C 63.066406 15.734375 62.921875 15.628906 62.746094 15.554688 C 62.578125 15.484375 62.386719 15.449219 62.164062 15.449219 C 61.9375 15.449219 61.742188 15.484375 61.566406 15.554688 C 61.394531 15.628906 61.246094 15.734375 61.132812 15.871094 C 61.027344 16 60.941406 16.160156 60.886719 16.347656 C 60.824219 16.535156 60.796875 16.746094 60.796875 16.976562 C 60.796875 17.207031 60.824219 17.421875 60.886719 17.613281 C 60.941406 17.804688 61.027344 17.96875 61.144531 18.101562 C 61.257812 18.242188 61.398438 18.347656 61.566406 18.429688 C 61.742188 18.5 61.9375 18.535156 62.164062 18.535156 C 62.402344 18.535156 62.605469 18.5 62.78125 18.429688 C 62.953125 18.347656 63.09375 18.242188 63.203125 18.101562 C 63.3125 17.960938 63.390625 17.792969 63.441406 17.605469 C 63.496094 17.410156 63.527344 17.199219 63.527344 16.976562 Z M 63.527344 16.976562 "/>
<path style=" stroke:none;fill-rule:nonzero;fill:rgb(0%,0%,0%);fill-opacity:1;" d="M 121.6875 50.195312 C 121.46875 50.195312 121.277344 50.234375 121.113281 50.304688 C 120.945312 50.378906 120.804688 50.484375 120.6875 50.617188 C 120.582031 50.75 120.496094 50.90625 120.441406 51.09375 C 120.378906 51.285156 120.351562 51.492188 120.351562 51.722656 C 120.351562 51.957031 120.378906 52.167969 120.441406 52.363281 C 120.503906 52.550781 120.59375 52.714844 120.710938 52.851562 C 120.824219 52.988281 120.964844 53.097656 121.132812 53.175781 C 121.304688 53.25 121.496094 53.285156 121.707031 53.285156 C 121.859375 53.285156 121.992188 53.269531 122.109375 53.230469 C 122.230469 53.1875 122.339844 53.128906 122.445312 53.054688 C 122.542969 52.984375 122.628906 52.902344 122.703125 52.808594 C 122.78125 52.714844 122.851562 52.605469 122.910156 52.480469 L 123.332031 52.699219 C 123.265625 52.84375 123.183594 52.976562 123.082031 53.101562 C 122.980469 53.222656 122.859375 53.332031 122.726562 53.425781 C 122.585938 53.511719 122.433594 53.582031 122.261719 53.628906 C 122.085938 53.679688 121.894531 53.707031 121.6875 53.707031 C 121.375 53.707031 121.105469 53.65625 120.875 53.566406 C 120.640625 53.464844 120.445312 53.328125 120.289062 53.152344 C 120.136719 52.976562 120.019531 52.765625 119.941406 52.527344 C 119.859375 52.28125 119.824219 52.011719 119.824219 51.722656 C 119.824219 51.429688 119.859375 51.160156 119.941406 50.921875 C 120.027344 50.679688 120.148438 50.472656 120.308594 50.304688 C 120.46875 50.140625 120.664062 50.007812 120.894531 49.914062 C 121.125 49.820312 121.386719 49.773438 121.6875 49.773438 C 122.089844 49.773438 122.425781 49.855469 122.691406 50.011719 C 122.964844 50.171875 123.167969 50.410156 123.300781 50.726562 L 122.8125 50.890625 C 122.773438 50.796875 122.726562 50.710938 122.660156 50.628906 C 122.601562 50.542969 122.523438 50.472656 122.433594 50.414062 C 122.339844 50.347656 122.230469 50.296875 122.109375 50.261719 C 121.984375 50.21875 121.84375 50.195312 121.6875 50.195312 Z M 121.6875 50.195312 "/>
<path style=" stroke:none;fill-rule:nonzero;fill:rgb(0%,0%,0%);fill-opacity:1;" d="M 124.089844 53.652344 L 124.089844 49.632812 L 124.578125 49.632812 L 124.578125 53.652344 Z M 124.089844 53.652344 "/>
<path style="fill:none;stroke-width:0.0333333;stroke-linecap:butt;stroke-linejoin:miter;stroke:rgb(0%,0%,0%);stroke-opacity:1;stroke-miterlimit:10;" d="M 4.321849 -0.00494202 L 5.204496 0.504891 " transform="matrix(17.330677,0,0,17.33871,17.138499,16.991938)"/>
<path style="fill:none;stroke-width:0.0333333;stroke-linecap:butt;stroke-linejoin:miter;stroke:rgb(0%,0%,0%);stroke-opacity:1;stroke-miterlimit:10;" d="M 3.455881 1.495043 L 4.338528 2.004876 " transform="matrix(17.330677,0,0,17.33871,17.138499,16.991938)"/>
<path style="fill:none;stroke-width:0.0333333;stroke-linecap:butt;stroke-linejoin:miter;stroke:rgb(0%,0%,0%);stroke-opacity:1;stroke-miterlimit:10;" d="M 3.622448 1.398844 L 4.338528 1.812253 " transform="matrix(17.330677,0,0,17.33871,17.138499,16.991938)"/>
<path style="fill:none;stroke-width:0.0333333;stroke-linecap:butt;stroke-linejoin:miter;stroke:rgb(0%,0%,0%);stroke-opacity:1;stroke-miterlimit:10;" d="M 5.196156 0.490247 L 5.196156 1.5 " transform="matrix(17.330677,0,0,17.33871,17.138499,16.991938)"/>
<path style="fill:none;stroke-width:0.0333333;stroke-linecap:butt;stroke-linejoin:miter;stroke:rgb(0%,0%,0%);stroke-opacity:1;stroke-miterlimit:10;" d="M 5.029589 0.586671 L 5.029589 1.403801 " transform="matrix(17.330677,0,0,17.33871,17.138499,16.991938)"/>
<path style="fill:none;stroke-width:0.0333333;stroke-linecap:butt;stroke-linejoin:miter;stroke:rgb(0%,0%,0%);stroke-opacity:1;stroke-miterlimit:10;" d="M -0.000102751 1.509687 L -0.000102751 0.490247 " transform="matrix(17.330677,0,0,17.33871,17.138499,16.991938)"/>
<path style="fill:none;stroke-width:0.0333333;stroke-linecap:butt;stroke-linejoin:miter;stroke:rgb(0%,0%,0%);stroke-opacity:1;stroke-miterlimit:10;" d="M -0.00821697 1.495043 L 0.87443 2.004876 " transform="matrix(17.330677,0,0,17.33871,17.138499,16.991938)"/>
<path style="fill:none;stroke-width:0.0333333;stroke-linecap:butt;stroke-linejoin:miter;stroke:rgb(0%,0%,0%);stroke-opacity:1;stroke-miterlimit:10;" d="M 0.15835 1.398844 L 0.87443 1.812253 " transform="matrix(17.330677,0,0,17.33871,17.138499,16.991938)"/>
<path style="fill:none;stroke-width:0.0333333;stroke-linecap:butt;stroke-linejoin:miter;stroke:rgb(0%,0%,0%);stroke-opacity:1;stroke-miterlimit:10;" d="M -0.00821697 0.504891 L 0.87443 -0.00494202 " transform="matrix(17.330677,0,0,17.33871,17.138499,16.991938)"/>
<path style="fill:none;stroke-width:0.0333333;stroke-linecap:butt;stroke-linejoin:miter;stroke:rgb(0%,0%,0%);stroke-opacity:1;stroke-miterlimit:10;" d="M 0.15835 0.60109 L 0.87443 0.187682 " transform="matrix(17.330677,0,0,17.33871,17.138499,16.991938)"/>
<path style="fill:none;stroke-width:0.0333333;stroke-linecap:butt;stroke-linejoin:miter;stroke:rgb(0%,0%,0%);stroke-opacity:1;stroke-miterlimit:10;" d="M 0.857751 2.004876 L 1.740398 1.495043 " transform="matrix(17.330677,0,0,17.33871,17.138499,16.991938)"/>
<path style="fill:none;stroke-width:0.0333333;stroke-linecap:butt;stroke-linejoin:miter;stroke:rgb(0%,0%,0%);stroke-opacity:1;stroke-miterlimit:10;" d="M 0.857751 -0.00494202 L 1.740398 0.504891 " transform="matrix(17.330677,0,0,17.33871,17.138499,16.991938)"/>
<path style="fill:none;stroke-width:0.0333333;stroke-linecap:butt;stroke-linejoin:miter;stroke:rgb(0%,0%,0%);stroke-opacity:1;stroke-miterlimit:10;" d="M 1.732059 1.509687 L 1.732059 0.499934 " transform="matrix(17.330677,0,0,17.33871,17.138499,16.991938)"/>
<path style="fill:none;stroke-width:0.0333333;stroke-linecap:butt;stroke-linejoin:miter;stroke:rgb(0%,0%,0%);stroke-opacity:1;stroke-miterlimit:10;" d="M 1.565266 1.413488 L 1.565266 0.596359 " transform="matrix(17.330677,0,0,17.33871,17.138499,16.991938)"/>
<path style="fill:none;stroke-width:0.0333333;stroke-linecap:butt;stroke-linejoin:miter;stroke:rgb(0%,0%,0%);stroke-opacity:1;stroke-miterlimit:10;" d="M 2.415682 0.105225 L 1.723719 0.504891 " transform="matrix(17.330677,0,0,17.33871,17.138499,16.991938)"/>
<path style="fill:none;stroke-width:0.0333333;stroke-linecap:butt;stroke-linejoin:miter;stroke:rgb(0%,0%,0%);stroke-opacity:1;stroke-miterlimit:10;" d="M 5.187817 1.495043 L 5.85724 1.881642 " transform="matrix(17.330677,0,0,17.33871,17.138499,16.991938)"/>
<path style="fill:none;stroke-width:0.0333333;stroke-linecap:butt;stroke-linejoin:miter;stroke:rgb(0%,0%,0%);stroke-opacity:1;stroke-miterlimit:10;" d="M 4.321849 2.004876 L 5.204496 1.495043 " transform="matrix(17.330677,0,0,17.33871,17.138499,16.991938)"/>
<path style="fill:none;stroke-width:0.0333333;stroke-linecap:butt;stroke-linejoin:miter;stroke:rgb(0%,0%,0%);stroke-opacity:1;stroke-miterlimit:10;" d="M 2.780371 0.105225 L 3.47256 0.504891 " transform="matrix(17.330677,0,0,17.33871,17.138499,16.991938)"/>
<path style="fill:none;stroke-width:0.0333333;stroke-linecap:butt;stroke-linejoin:miter;stroke:rgb(0%,0%,0%);stroke-opacity:1;stroke-miterlimit:10;" d="M 3.463995 0.499934 L 4.338528 -0.00494202 " transform="matrix(17.330677,0,0,17.33871,17.138499,16.991938)"/>
<path style="fill:none;stroke-width:0.0333333;stroke-linecap:butt;stroke-linejoin:miter;stroke:rgb(0%,0%,0%);stroke-opacity:1;stroke-miterlimit:10;" d="M 3.630787 0.596359 L 4.338528 0.187682 " transform="matrix(17.330677,0,0,17.33871,17.138499,16.991938)"/>
<path style="fill:none;stroke-width:0.0333333;stroke-linecap:butt;stroke-linejoin:miter;stroke:rgb(0%,0%,0%);stroke-opacity:1;stroke-miterlimit:10;" d="M 3.463995 0.490247 L 3.463995 1.509687 " transform="matrix(17.330677,0,0,17.33871,17.138499,16.991938)"/>
</g>
</svg>
