<?xml version="1.0" encoding="UTF-8"?>
<svg xmlns="http://www.w3.org/2000/svg" xmlns:xlink="http://www.w3.org/1999/xlink" width="185.6pt" height="154.4pt" viewBox="0 0 185.6 154.4" version="1.1">
<g id="surface1422">
<path style=" stroke:none;fill-rule:nonzero;fill:rgb(0%,0%,0%);fill-opacity:1;" d="M 155.699219 9.710938 C 155.480469 9.710938 155.289062 9.75 155.125 9.820312 C 154.957031 9.894531 154.8125 10 154.699219 10.132812 C 154.589844 10.265625 154.507812 10.425781 154.449219 10.613281 C 154.390625 10.800781 154.363281 11.011719 154.363281 11.242188 C 154.363281 11.472656 154.390625 11.6875 154.449219 11.878906 C 154.515625 12.070312 154.605469 12.234375 154.722656 12.367188 C 154.835938 12.507812 154.976562 12.617188 155.144531 12.695312 C 155.320312 12.769531 155.507812 12.804688 155.71875 12.804688 C 155.871094 12.804688 156.003906 12.785156 156.121094 12.75 C 156.242188 12.707031 156.355469 12.648438 156.457031 12.574219 C 156.558594 12.503906 156.644531 12.421875 156.71875 12.324219 C 156.796875 12.234375 156.867188 12.125 156.925781 12 L 157.347656 12.21875 C 157.285156 12.363281 157.199219 12.496094 157.097656 12.617188 C 156.996094 12.742188 156.875 12.851562 156.742188 12.945312 C 156.601562 13.03125 156.449219 13.101562 156.273438 13.148438 C 156.101562 13.199219 155.90625 13.226562 155.699219 13.226562 C 155.386719 13.226562 155.117188 13.175781 154.882812 13.085938 C 154.652344 12.984375 154.457031 12.847656 154.296875 12.671875 C 154.148438 12.492188 154.03125 12.28125 153.953125 12.042969 C 153.871094 11.800781 153.832031 11.53125 153.832031 11.242188 C 153.832031 10.945312 153.871094 10.675781 153.953125 10.4375 C 154.039062 10.195312 154.160156 9.988281 154.320312 9.820312 C 154.476562 9.65625 154.671875 9.523438 154.90625 9.429688 C 155.136719 9.335938 155.398438 9.289062 155.699219 9.289062 C 156.101562 9.289062 156.4375 9.371094 156.707031 9.527344 C 156.980469 9.6875 157.183594 9.925781 157.316406 10.242188 L 156.828125 10.40625 C 156.789062 10.3125 156.742188 10.226562 156.675781 10.144531 C 156.617188 10.058594 156.539062 9.988281 156.449219 9.929688 C 156.351562 9.863281 156.242188 9.8125 156.121094 9.777344 C 155.996094 9.734375 155.855469 9.710938 155.699219 9.710938 Z M 155.699219 9.710938 "/>
<path style=" stroke:none;fill-rule:nonzero;fill:rgb(0%,0%,0%);fill-opacity:1;" d="M 158.585938 10.742188 C 158.640625 10.640625 158.699219 10.558594 158.757812 10.492188 C 158.824219 10.421875 158.890625 10.363281 158.964844 10.320312 C 159.042969 10.269531 159.128906 10.230469 159.214844 10.210938 C 159.304688 10.1875 159.414062 10.179688 159.527344 10.179688 C 159.714844 10.179688 159.867188 10.203125 159.984375 10.253906 C 160.105469 10.304688 160.203125 10.378906 160.265625 10.46875 C 160.335938 10.566406 160.390625 10.675781 160.417969 10.808594 C 160.445312 10.929688 160.460938 11.066406 160.460938 11.21875 L 160.460938 13.171875 L 159.964844 13.171875 L 159.964844 11.304688 C 159.964844 11.183594 159.953125 11.074219 159.941406 10.980469 C 159.925781 10.886719 159.898438 10.8125 159.855469 10.753906 C 159.8125 10.6875 159.75 10.640625 159.671875 10.613281 C 159.589844 10.578125 159.488281 10.558594 159.367188 10.558594 C 159.25 10.558594 159.144531 10.578125 159.050781 10.621094 C 158.957031 10.664062 158.878906 10.726562 158.8125 10.808594 C 158.746094 10.878906 158.695312 10.96875 158.660156 11.078125 C 158.621094 11.1875 158.605469 11.304688 158.605469 11.4375 L 158.605469 13.171875 L 158.117188 13.171875 L 158.117188 9.148438 L 158.605469 9.148438 L 158.605469 10.1875 C 158.605469 10.253906 158.601562 10.316406 158.59375 10.371094 C 158.59375 10.433594 158.589844 10.488281 158.585938 10.535156 C 158.585938 10.585938 158.585938 10.628906 158.585938 10.664062 C 158.585938 10.703125 158.585938 10.726562 158.585938 10.742188 Z M 158.585938 10.742188 "/>
<path style=" stroke:none;fill-rule:nonzero;fill:rgb(0%,0%,0%);fill-opacity:1;" d="M 161.3125 9.613281 L 161.3125 9.148438 L 161.800781 9.148438 L 161.800781 9.613281 Z M 161.3125 13.171875 L 161.3125 10.230469 L 161.800781 10.230469 L 161.800781 13.171875 Z M 161.3125 13.171875 "/>
<path style=" stroke:none;fill-rule:nonzero;fill:rgb(0%,0%,0%);fill-opacity:1;" d="M 162.621094 13.171875 L 162.621094 10.914062 C 162.621094 10.859375 162.613281 10.796875 162.609375 10.730469 C 162.609375 10.664062 162.609375 10.605469 162.609375 10.546875 C 162.609375 10.488281 162.605469 10.433594 162.597656 10.382812 C 162.597656 10.328125 162.597656 10.273438 162.597656 10.230469 L 163.066406 10.230469 C 163.066406 10.273438 163.066406 10.328125 163.066406 10.382812 C 163.070312 10.433594 163.078125 10.488281 163.078125 10.546875 C 163.078125 10.597656 163.078125 10.652344 163.078125 10.710938 C 163.082031 10.761719 163.085938 10.804688 163.085938 10.839844 L 163.097656 10.839844 C 163.125 10.726562 163.15625 10.628906 163.195312 10.546875 C 163.238281 10.460938 163.285156 10.390625 163.335938 10.339844 C 163.394531 10.292969 163.457031 10.25 163.53125 10.222656 C 163.601562 10.195312 163.691406 10.179688 163.792969 10.179688 C 163.828125 10.179688 163.863281 10.183594 163.902344 10.1875 C 163.9375 10.195312 163.964844 10.203125 163.988281 10.210938 L 163.988281 10.65625 C 163.957031 10.648438 163.921875 10.644531 163.878906 10.644531 C 163.835938 10.640625 163.785156 10.632812 163.726562 10.632812 C 163.617188 10.632812 163.523438 10.660156 163.445312 10.710938 C 163.363281 10.761719 163.296875 10.828125 163.25 10.914062 C 163.199219 11.003906 163.164062 11.109375 163.140625 11.242188 C 163.121094 11.367188 163.109375 11.5 163.109375 11.640625 L 163.109375 13.171875 Z M 162.621094 13.171875 "/>
<path style=" stroke:none;fill-rule:nonzero;fill:rgb(0%,0%,0%);fill-opacity:1;" d="M 165.285156 13.226562 C 164.988281 13.226562 164.765625 13.148438 164.613281 13 C 164.464844 12.839844 164.394531 12.625 164.394531 12.347656 C 164.394531 12.160156 164.429688 12.003906 164.503906 11.878906 C 164.574219 11.75 164.667969 11.652344 164.785156 11.589844 C 164.90625 11.515625 165.046875 11.464844 165.199219 11.4375 C 165.351562 11.410156 165.503906 11.394531 165.664062 11.394531 L 166.316406 11.382812 L 166.316406 11.21875 C 166.316406 11.097656 166.300781 10.996094 166.273438 10.914062 C 166.25 10.828125 166.210938 10.761719 166.164062 10.710938 C 166.113281 10.652344 166.046875 10.613281 165.96875 10.589844 C 165.886719 10.566406 165.796875 10.558594 165.6875 10.558594 C 165.589844 10.558594 165.503906 10.566406 165.425781 10.578125 C 165.351562 10.585938 165.289062 10.609375 165.230469 10.644531 C 165.179688 10.683594 165.136719 10.730469 165.101562 10.796875 C 165.0625 10.855469 165.039062 10.929688 165.035156 11.023438 L 164.523438 10.96875 C 164.539062 10.855469 164.570312 10.75 164.621094 10.65625 C 164.671875 10.5625 164.746094 10.480469 164.839844 10.40625 C 164.933594 10.335938 165.046875 10.28125 165.1875 10.242188 C 165.332031 10.199219 165.5 10.179688 165.699219 10.179688 C 166.066406 10.179688 166.34375 10.265625 166.53125 10.4375 C 166.71875 10.605469 166.816406 10.847656 166.816406 11.164062 L 166.816406 12.433594 C 166.816406 12.582031 166.832031 12.6875 166.871094 12.757812 C 166.90625 12.832031 166.976562 12.867188 167.085938 12.867188 C 167.113281 12.867188 167.140625 12.867188 167.164062 12.867188 C 167.191406 12.863281 167.21875 12.855469 167.25 12.847656 L 167.25 13.148438 C 167.183594 13.171875 167.121094 13.183594 167.066406 13.195312 C 167.003906 13.199219 166.941406 13.203125 166.871094 13.203125 C 166.773438 13.203125 166.695312 13.195312 166.628906 13.171875 C 166.566406 13.144531 166.511719 13.105469 166.46875 13.050781 C 166.429688 13.003906 166.402344 12.941406 166.382812 12.867188 C 166.359375 12.796875 166.34375 12.710938 166.335938 12.609375 L 166.316406 12.609375 C 166.265625 12.703125 166.207031 12.789062 166.140625 12.867188 C 166.082031 12.941406 166.011719 13.007812 165.925781 13.0625 C 165.84375 13.113281 165.75 13.15625 165.644531 13.183594 C 165.539062 13.210938 165.421875 13.226562 165.285156 13.226562 Z M 165.394531 12.855469 C 165.546875 12.855469 165.679688 12.828125 165.796875 12.769531 C 165.917969 12.714844 166.015625 12.640625 166.089844 12.554688 C 166.167969 12.464844 166.222656 12.375 166.261719 12.269531 C 166.296875 12.164062 166.316406 12.0625 166.316406 11.96875 L 166.316406 11.71875 L 165.785156 11.730469 C 165.667969 11.738281 165.554688 11.746094 165.449219 11.761719 C 165.339844 11.777344 165.242188 11.804688 165.15625 11.847656 C 165.074219 11.890625 165.007812 11.957031 164.960938 12.042969 C 164.914062 12.125 164.894531 12.226562 164.894531 12.359375 C 164.894531 12.519531 164.9375 12.640625 165.023438 12.726562 C 165.109375 12.8125 165.234375 12.855469 165.394531 12.855469 Z M 165.394531 12.855469 "/>
<path style=" stroke:none;fill-rule:nonzero;fill:rgb(0%,0%,0%);fill-opacity:1;" d="M 167.753906 13.171875 L 167.753906 9.148438 L 168.242188 9.148438 L 168.242188 13.171875 Z M 167.753906 13.171875 "/>
<path style=" stroke:none;fill-rule:nonzero;fill:rgb(0%,0%,0%);fill-opacity:1;" d="M 105.519531 53.871094 C 105.300781 53.871094 105.109375 53.910156 104.941406 53.980469 C 104.773438 54.054688 104.632812 54.160156 104.519531 54.292969 C 104.410156 54.425781 104.328125 54.585938 104.269531 54.773438 C 104.210938 54.960938 104.183594 55.171875 104.183594 55.402344 C 104.183594 55.632812 104.210938 55.847656 104.269531 56.042969 C 104.335938 56.230469 104.425781 56.394531 104.542969 56.53125 C 104.65625 56.667969 104.796875 56.777344 104.964844 56.855469 C 105.136719 56.929688 105.328125 56.964844 105.539062 56.964844 C 105.691406 56.964844 105.824219 56.945312 105.941406 56.910156 C 106.0625 56.867188 106.175781 56.808594 106.277344 56.734375 C 106.378906 56.664062 106.464844 56.582031 106.539062 56.484375 C 106.617188 56.394531 106.683594 56.285156 106.746094 56.160156 L 107.167969 56.378906 C 107.101562 56.523438 107.019531 56.65625 106.917969 56.777344 C 106.816406 56.902344 106.695312 57.011719 106.558594 57.105469 C 106.421875 57.191406 106.265625 57.261719 106.09375 57.308594 C 105.921875 57.359375 105.726562 57.386719 105.519531 57.386719 C 105.207031 57.386719 104.933594 57.335938 104.703125 57.246094 C 104.472656 57.144531 104.277344 57.007812 104.117188 56.832031 C 103.964844 56.652344 103.851562 56.441406 103.769531 56.203125 C 103.691406 55.960938 103.652344 55.691406 103.652344 55.402344 C 103.652344 55.105469 103.691406 54.835938 103.769531 54.597656 C 103.859375 54.355469 103.980469 54.148438 104.140625 53.980469 C 104.296875 53.816406 104.492188 53.683594 104.726562 53.589844 C 104.957031 53.496094 105.21875 53.449219 105.519531 53.449219 C 105.921875 53.449219 106.257812 53.53125 106.527344 53.6875 C 106.800781 53.847656 107.003906 54.085938 107.136719 54.402344 L 106.648438 54.566406 C 106.609375 54.472656 106.558594 54.386719 106.496094 54.304688 C 106.433594 54.21875 106.359375 54.148438 106.265625 54.089844 C 106.171875 54.023438 106.0625 53.976562 105.941406 53.9375 C 105.816406 53.894531 105.675781 53.871094 105.519531 53.871094 Z M 105.519531 53.871094 "/>
<path style=" stroke:none;fill-rule:nonzero;fill:rgb(0%,0%,0%);fill-opacity:1;" d="M 61.96875 79.953125 C 61.753906 79.953125 61.558594 79.988281 61.394531 80.058594 C 61.226562 80.132812 61.085938 80.238281 60.972656 80.375 C 60.863281 80.503906 60.777344 80.664062 60.722656 80.851562 C 60.660156 81.042969 60.632812 81.25 60.632812 81.480469 C 60.632812 81.714844 60.660156 81.925781 60.722656 82.121094 C 60.785156 82.3125 60.875 82.472656 60.992188 82.609375 C 61.105469 82.746094 61.246094 82.855469 61.417969 82.933594 C 61.589844 83.007812 61.78125 83.042969 61.992188 83.042969 C 62.144531 83.042969 62.277344 83.027344 62.394531 82.988281 C 62.515625 82.945312 62.625 82.890625 62.730469 82.816406 C 62.828125 82.746094 62.917969 82.660156 62.988281 82.566406 C 63.070312 82.472656 63.136719 82.367188 63.195312 82.242188 L 63.621094 82.457031 C 63.554688 82.605469 63.46875 82.738281 63.371094 82.859375 C 63.265625 82.984375 63.148438 83.09375 63.011719 83.183594 C 62.875 83.269531 62.71875 83.34375 62.542969 83.390625 C 62.371094 83.441406 62.179688 83.464844 61.96875 83.464844 C 61.65625 83.464844 61.386719 83.417969 61.15625 83.324219 C 60.921875 83.226562 60.726562 83.085938 60.570312 82.914062 C 60.417969 82.734375 60.300781 82.523438 60.222656 82.285156 C 60.140625 82.039062 60.101562 81.773438 60.101562 81.480469 C 60.101562 81.1875 60.140625 80.917969 60.222656 80.679688 C 60.308594 80.433594 60.429688 80.230469 60.589844 80.058594 C 60.75 79.894531 60.945312 79.765625 61.175781 79.671875 C 61.40625 79.578125 61.671875 79.527344 61.96875 79.527344 C 62.375 79.527344 62.710938 79.609375 62.980469 79.769531 C 63.253906 79.925781 63.457031 80.167969 63.585938 80.484375 L 63.097656 80.644531 C 63.058594 80.554688 63.011719 80.46875 62.945312 80.386719 C 62.886719 80.300781 62.8125 80.230469 62.71875 80.167969 C 62.625 80.105469 62.515625 80.054688 62.394531 80.015625 C 62.269531 79.972656 62.128906 79.953125 61.96875 79.953125 Z M 61.96875 79.953125 "/>
<path style=" stroke:none;fill-rule:nonzero;fill:rgb(0%,0%,0%);fill-opacity:1;" d="M 146.242188 49.847656 L 144.191406 46.59375 C 144.195312 46.679688 144.203125 46.765625 144.203125 46.851562 C 144.207031 46.925781 144.214844 47.003906 144.214844 47.09375 C 144.21875 47.171875 144.222656 47.242188 144.222656 47.308594 L 144.222656 49.847656 L 143.757812 49.847656 L 143.757812 46.027344 L 144.363281 46.027344 L 146.425781 49.304688 C 146.425781 49.304688 146.421875 49.214844 146.417969 49.035156 C 146.410156 48.964844 146.398438 48.882812 146.394531 48.796875 C 146.394531 48.703125 146.394531 48.617188 146.394531 48.535156 L 146.394531 46.027344 L 146.863281 46.027344 L 146.863281 49.847656 Z M 146.242188 49.847656 "/>
<path style=" stroke:none;fill-rule:nonzero;fill:rgb(0%,0%,0%);fill-opacity:1;" d="M 118.683594 38.378906 C 118.683594 38.675781 118.640625 38.949219 118.554688 39.191406 C 118.464844 39.4375 118.339844 39.648438 118.171875 39.820312 C 118.011719 39.996094 117.816406 40.128906 117.578125 40.222656 C 117.34375 40.316406 117.078125 40.363281 116.785156 40.363281 C 116.464844 40.363281 116.1875 40.316406 115.949219 40.222656 C 115.714844 40.121094 115.519531 39.984375 115.363281 39.8125 C 115.203125 39.632812 115.082031 39.421875 115.003906 39.179688 C 114.921875 38.9375 114.886719 38.667969 114.886719 38.378906 C 114.886719 38.082031 114.921875 37.816406 115.003906 37.574219 C 115.089844 37.332031 115.214844 37.125 115.375 36.957031 C 115.539062 36.792969 115.738281 36.660156 115.96875 36.566406 C 116.207031 36.476562 116.480469 36.425781 116.785156 36.425781 C 117.089844 36.425781 117.359375 36.476562 117.597656 36.566406 C 117.835938 36.660156 118.035156 36.796875 118.195312 36.96875 C 118.351562 37.136719 118.472656 37.335938 118.554688 37.574219 C 118.640625 37.816406 118.683594 38.082031 118.683594 38.378906 Z M 118.152344 38.378906 C 118.152344 38.148438 118.121094 37.9375 118.066406 37.75 C 118.003906 37.5625 117.917969 37.402344 117.804688 37.273438 C 117.6875 37.136719 117.542969 37.03125 117.371094 36.957031 C 117.203125 36.886719 117.007812 36.847656 116.785156 36.847656 C 116.558594 36.847656 116.359375 36.886719 116.1875 36.957031 C 116.011719 37.03125 115.867188 37.136719 115.753906 37.273438 C 115.644531 37.402344 115.558594 37.5625 115.503906 37.75 C 115.445312 37.9375 115.417969 38.148438 115.417969 38.378906 C 115.417969 38.613281 115.445312 38.824219 115.503906 39.019531 C 115.558594 39.207031 115.648438 39.371094 115.765625 39.507812 C 115.878906 39.644531 116.019531 39.753906 116.1875 39.832031 C 116.359375 39.90625 116.558594 39.941406 116.785156 39.941406 C 117.023438 39.941406 117.230469 39.90625 117.402344 39.832031 C 117.578125 39.753906 117.71875 39.644531 117.824219 39.507812 C 117.933594 39.363281 118.011719 39.199219 118.066406 39.007812 C 118.121094 38.8125 118.152344 38.605469 118.152344 38.378906 Z M 118.152344 38.378906 "/>
<path style=" stroke:none;fill-rule:nonzero;fill:rgb(0%,0%,0%);fill-opacity:1;" d="M 48.257812 126.261719 L 46.207031 123.007812 C 46.214844 123.09375 46.21875 123.183594 46.21875 123.269531 C 46.222656 123.34375 46.230469 123.421875 46.230469 123.507812 C 46.234375 123.589844 46.242188 123.660156 46.242188 123.726562 L 46.242188 126.261719 L 45.773438 126.261719 L 45.773438 122.445312 L 46.382812 122.445312 L 48.445312 125.71875 C 48.445312 125.71875 48.4375 125.632812 48.433594 125.449219 C 48.425781 125.378906 48.417969 125.296875 48.410156 125.210938 C 48.410156 125.117188 48.410156 125.03125 48.410156 124.949219 L 48.410156 122.445312 L 48.878906 122.445312 L 48.878906 126.261719 Z M 48.257812 126.261719 "/>
<path style=" stroke:none;fill-rule:nonzero;fill:rgb(0%,0%,0%);fill-opacity:1;" d="M 134.101562 22.808594 C 133.886719 22.808594 133.695312 22.84375 133.527344 22.914062 C 133.359375 22.988281 133.21875 23.09375 133.105469 23.230469 C 132.996094 23.359375 132.914062 23.519531 132.855469 23.707031 C 132.796875 23.898438 132.769531 24.105469 132.769531 24.335938 C 132.769531 24.570312 132.796875 24.78125 132.855469 24.976562 C 132.921875 25.167969 133.011719 25.328125 133.125 25.464844 C 133.242188 25.601562 133.382812 25.710938 133.550781 25.789062 C 133.722656 25.863281 133.914062 25.898438 134.125 25.898438 C 134.277344 25.898438 134.410156 25.882812 134.527344 25.84375 C 134.648438 25.800781 134.761719 25.742188 134.863281 25.671875 C 134.964844 25.601562 135.050781 25.515625 135.125 25.421875 C 135.203125 25.328125 135.269531 25.21875 135.328125 25.097656 L 135.753906 25.3125 C 135.6875 25.460938 135.605469 25.59375 135.503906 25.714844 C 135.398438 25.839844 135.28125 25.949219 135.144531 26.039062 C 135.007812 26.125 134.851562 26.195312 134.679688 26.246094 C 134.503906 26.292969 134.3125 26.320312 134.101562 26.320312 C 133.792969 26.320312 133.519531 26.273438 133.289062 26.179688 C 133.054688 26.082031 132.859375 25.941406 132.703125 25.769531 C 132.550781 25.589844 132.433594 25.378906 132.355469 25.140625 C 132.273438 24.894531 132.238281 24.625 132.238281 24.335938 C 132.238281 24.039062 132.273438 23.773438 132.355469 23.535156 C 132.441406 23.289062 132.566406 23.082031 132.726562 22.914062 C 132.882812 22.75 133.078125 22.621094 133.3125 22.523438 C 133.542969 22.433594 133.804688 22.382812 134.101562 22.382812 C 134.507812 22.382812 134.84375 22.464844 135.113281 22.621094 C 135.386719 22.78125 135.589844 23.019531 135.71875 23.339844 L 135.230469 23.5 C 135.195312 23.410156 135.144531 23.324219 135.082031 23.242188 C 135.019531 23.152344 134.945312 23.082031 134.851562 23.023438 C 134.757812 22.957031 134.648438 22.910156 134.527344 22.871094 C 134.402344 22.828125 134.261719 22.808594 134.101562 22.808594 Z M 134.101562 22.808594 "/>
<path style=" stroke:none;fill-rule:nonzero;fill:rgb(0%,0%,0%);fill-opacity:1;" d="M 145.660156 15.757812 C 145.445312 15.757812 145.253906 15.792969 145.085938 15.863281 C 144.917969 15.9375 144.777344 16.042969 144.664062 16.179688 C 144.554688 16.308594 144.472656 16.46875 144.414062 16.65625 C 144.355469 16.847656 144.328125 17.054688 144.328125 17.285156 C 144.328125 17.519531 144.355469 17.730469 144.414062 17.925781 C 144.480469 18.117188 144.570312 18.277344 144.683594 18.414062 C 144.800781 18.550781 144.941406 18.660156 145.109375 18.738281 C 145.28125 18.8125 145.472656 18.847656 145.683594 18.847656 C 145.835938 18.847656 145.96875 18.832031 146.085938 18.792969 C 146.207031 18.75 146.320312 18.691406 146.421875 18.621094 C 146.523438 18.550781 146.609375 18.464844 146.683594 18.371094 C 146.761719 18.277344 146.828125 18.167969 146.886719 18.046875 L 147.3125 18.261719 C 147.246094 18.410156 147.164062 18.542969 147.0625 18.664062 C 146.960938 18.789062 146.839844 18.894531 146.703125 18.988281 C 146.566406 19.074219 146.410156 19.144531 146.238281 19.195312 C 146.0625 19.242188 145.871094 19.269531 145.660156 19.269531 C 145.351562 19.269531 145.078125 19.222656 144.847656 19.128906 C 144.613281 19.03125 144.417969 18.890625 144.261719 18.71875 C 144.109375 18.539062 143.992188 18.328125 143.914062 18.089844 C 143.832031 17.84375 143.796875 17.574219 143.796875 17.285156 C 143.796875 16.988281 143.832031 16.722656 143.914062 16.484375 C 144 16.238281 144.125 16.03125 144.285156 15.863281 C 144.441406 15.699219 144.636719 15.570312 144.871094 15.472656 C 145.101562 15.382812 145.363281 15.332031 145.660156 15.332031 C 146.066406 15.332031 146.402344 15.414062 146.671875 15.570312 C 146.945312 15.730469 147.148438 15.96875 147.277344 16.289062 L 146.789062 16.449219 C 146.753906 16.359375 146.703125 16.269531 146.640625 16.191406 C 146.578125 16.101562 146.503906 16.03125 146.410156 15.972656 C 146.316406 15.90625 146.207031 15.859375 146.085938 15.820312 C 145.960938 15.777344 145.820312 15.757812 145.660156 15.757812 Z M 145.660156 15.757812 "/>
<path style=" stroke:none;fill-rule:nonzero;fill:rgb(0%,0%,0%);fill-opacity:1;" d="M 168.347656 27.121094 C 168.132812 27.121094 167.9375 27.160156 167.773438 27.230469 C 167.605469 27.304688 167.464844 27.410156 167.351562 27.542969 C 167.242188 27.675781 167.15625 27.835938 167.101562 28.023438 C 167.039062 28.210938 167.011719 28.421875 167.011719 28.652344 C 167.011719 28.882812 167.039062 29.097656 167.101562 29.292969 C 167.164062 29.480469 167.253906 29.644531 167.371094 29.78125 C 167.484375 29.917969 167.625 30.027344 167.792969 30.105469 C 167.96875 30.179688 168.160156 30.214844 168.371094 30.214844 C 168.523438 30.214844 168.65625 30.195312 168.769531 30.160156 C 168.894531 30.117188 169.003906 30.058594 169.109375 29.984375 C 169.207031 29.914062 169.296875 29.832031 169.367188 29.734375 C 169.445312 29.644531 169.515625 29.535156 169.574219 29.410156 L 169.996094 29.628906 C 169.933594 29.773438 169.847656 29.90625 169.75 30.027344 C 169.644531 30.152344 169.527344 30.261719 169.390625 30.355469 C 169.25 30.441406 169.097656 30.511719 168.921875 30.558594 C 168.75 30.609375 168.558594 30.636719 168.347656 30.636719 C 168.035156 30.636719 167.765625 30.585938 167.535156 30.496094 C 167.300781 30.394531 167.105469 30.257812 166.949219 30.082031 C 166.796875 29.902344 166.679688 29.691406 166.601562 29.453125 C 166.519531 29.210938 166.480469 28.941406 166.480469 28.652344 C 166.480469 28.355469 166.519531 28.085938 166.601562 27.847656 C 166.6875 27.605469 166.808594 27.398438 166.96875 27.230469 C 167.128906 27.066406 167.324219 26.933594 167.554688 26.839844 C 167.785156 26.746094 168.050781 26.699219 168.347656 26.699219 C 168.753906 26.699219 169.089844 26.78125 169.359375 26.9375 C 169.632812 27.097656 169.835938 27.335938 169.964844 27.652344 L 169.476562 27.816406 C 169.4375 27.722656 169.390625 27.636719 169.324219 27.554688 C 169.265625 27.46875 169.1875 27.398438 169.097656 27.339844 C 169.003906 27.273438 168.894531 27.226562 168.769531 27.1875 C 168.648438 27.144531 168.503906 27.121094 168.347656 27.121094 Z M 168.347656 27.121094 "/>
<path style=" stroke:none;fill-rule:nonzero;fill:rgb(0%,0%,0%);fill-opacity:1;" d="M 19.117188 124.824219 C 19.117188 125.121094 19.074219 125.390625 18.988281 125.636719 C 18.902344 125.882812 18.773438 126.09375 18.609375 126.265625 C 18.449219 126.4375 18.25 126.574219 18.011719 126.667969 C 17.777344 126.757812 17.515625 126.808594 17.21875 126.808594 C 16.898438 126.808594 16.621094 126.757812 16.382812 126.667969 C 16.148438 126.566406 15.953125 126.429688 15.796875 126.253906 C 15.636719 126.074219 15.515625 125.863281 15.4375 125.625 C 15.355469 125.382812 15.320312 125.113281 15.320312 124.824219 C 15.320312 124.527344 15.355469 124.257812 15.4375 124.019531 C 15.527344 123.777344 15.648438 123.570312 15.808594 123.402344 C 15.972656 123.238281 16.171875 123.105469 16.40625 123.011719 C 16.644531 122.917969 16.914062 122.871094 17.21875 122.871094 C 17.523438 122.871094 17.792969 122.917969 18.03125 123.011719 C 18.273438 123.105469 18.46875 123.238281 18.628906 123.414062 C 18.785156 123.582031 18.90625 123.78125 18.988281 124.019531 C 19.074219 124.257812 19.117188 124.527344 19.117188 124.824219 Z M 18.585938 124.824219 C 18.585938 124.59375 18.554688 124.382812 18.5 124.195312 C 18.441406 124.007812 18.351562 123.847656 18.238281 123.714844 C 18.121094 123.582031 17.976562 123.476562 17.804688 123.402344 C 17.636719 123.332031 17.441406 123.292969 17.21875 123.292969 C 16.992188 123.292969 16.796875 123.332031 16.621094 123.402344 C 16.449219 123.476562 16.300781 123.582031 16.1875 123.714844 C 16.078125 123.847656 15.996094 124.007812 15.9375 124.195312 C 15.878906 124.382812 15.851562 124.59375 15.851562 124.824219 C 15.851562 125.054688 15.878906 125.269531 15.9375 125.464844 C 15.996094 125.652344 16.082031 125.816406 16.199219 125.949219 C 16.3125 126.089844 16.453125 126.199219 16.621094 126.277344 C 16.796875 126.351562 16.992188 126.386719 17.21875 126.386719 C 17.457031 126.386719 17.664062 126.351562 17.835938 126.277344 C 18.011719 126.199219 18.152344 126.089844 18.261719 125.949219 C 18.371094 125.808594 18.449219 125.640625 18.5 125.453125 C 18.554688 125.257812 18.585938 125.046875 18.585938 124.824219 Z M 18.585938 124.824219 "/>
<path style=" stroke:none;fill-rule:nonzero;fill:rgb(0%,0%,0%);fill-opacity:1;" d="M 106.441406 108.753906 L 106.441406 106.988281 L 104.378906 106.988281 L 104.378906 108.753906 L 103.859375 108.753906 L 103.859375 104.9375 L 104.378906 104.9375 L 104.378906 106.554688 L 106.441406 106.554688 L 106.441406 104.9375 L 106.960938 104.9375 L 106.960938 108.753906 Z M 106.441406 108.753906 "/>
<path style=" stroke:none;fill-rule:nonzero;fill:rgb(0%,0%,0%);fill-opacity:1;" d="M 92.148438 83.832031 L 92.148438 82.066406 L 90.085938 82.066406 L 90.085938 83.832031 L 89.5625 83.832031 L 89.5625 80.015625 L 90.085938 80.015625 L 90.085938 81.628906 L 92.148438 81.628906 L 92.148438 80.015625 L 92.667969 80.015625 L 92.667969 83.832031 Z M 92.148438 83.832031 "/>
<path style=" stroke:none;fill-rule:nonzero;fill:rgb(0%,0%,0%);fill-opacity:1;" d="M 76.941406 110.824219 L 76.941406 109.054688 L 74.878906 109.054688 L 74.878906 110.824219 L 74.359375 110.824219 L 74.359375 107.007812 L 74.878906 107.007812 L 74.878906 108.621094 L 76.941406 108.621094 L 76.941406 107.007812 L 77.460938 107.007812 L 77.460938 110.824219 Z M 76.941406 110.824219 "/>
<path style=" stroke:none;fill-rule:nonzero;fill:rgb(0%,0%,0%);fill-opacity:1;" d="M 63.136719 138.726562 L 63.136719 136.957031 L 61.074219 136.957031 L 61.074219 138.726562 L 60.554688 138.726562 L 60.554688 134.910156 L 61.074219 134.910156 L 61.074219 136.523438 L 63.136719 136.523438 L 63.136719 134.910156 L 63.65625 134.910156 L 63.65625 138.726562 Z M 63.136719 138.726562 "/>
<path style="fill:none;stroke-width:0.0333333;stroke-linecap:butt;stroke-linejoin:miter;stroke:rgb(0%,0%,0%);stroke-opacity:1;stroke-miterlimit:10;" d="M 5.092508 4.153845 L 4.255483 4.665417 " transform="matrix(17.365269,0,0,17.356115,17.219577,17.303827)"/>
<path style="fill:none;stroke-width:0.0333333;stroke-linecap:butt;stroke-linejoin:miter;stroke:rgb(0%,0%,0%);stroke-opacity:1;stroke-miterlimit:10;" d="M 5.092508 4.153845 L 5.092508 3.16266 " transform="matrix(17.365269,0,0,17.356115,17.219577,17.303827)"/>
<path style="fill:none;stroke-width:0.0333333;stroke-linecap:butt;stroke-linejoin:miter;stroke:rgb(0%,0%,0%);stroke-opacity:1;stroke-miterlimit:10;" d="M 5.092508 4.153845 L 6.081146 4.472762 " transform="matrix(17.365269,0,0,17.356115,17.219577,17.303827)"/>
<path style="fill:none;stroke-width:0.0333333;stroke-linecap:butt;stroke-linejoin:miter;stroke:rgb(0%,0%,0%);stroke-opacity:1;stroke-miterlimit:10;" d="M 4.255483 4.665417 L 3.393939 4.181978 " transform="matrix(17.365269,0,0,17.356115,17.219577,17.303827)"/>
<path style="fill:none;stroke-width:0.0333333;stroke-linecap:butt;stroke-linejoin:miter;stroke:rgb(0%,0%,0%);stroke-opacity:1;stroke-miterlimit:10;" d="M 4.255483 4.665417 L 4.255483 5.690587 " transform="matrix(17.365269,0,0,17.356115,17.219577,17.303827)"/>
<path style="fill:none;stroke-width:0.0333333;stroke-linecap:butt;stroke-linejoin:miter;stroke:rgb(0%,0%,0%);stroke-opacity:1;stroke-miterlimit:10;" d="M 5.092508 3.16266 L 6.081146 2.872101 " transform="matrix(17.365269,0,0,17.356115,17.219577,17.303827)"/>
<path style="fill:none;stroke-width:0.0333333;stroke-linecap:butt;stroke-linejoin:miter;stroke:rgb(0%,0%,0%);stroke-opacity:1;stroke-miterlimit:10;" d="M 5.092508 3.16266 L 4.232988 2.646136 " transform="matrix(17.365269,0,0,17.356115,17.219577,17.303827)"/>
<path style=" stroke:none;fill-rule:nonzero;fill:rgb(0%,0%,0%);fill-opacity:1;" d="M 105.652344 72.195312 L 107.476562 58.140625 L 103.425781 58.199219 "/>
<path style="fill:none;stroke-width:0.0333333;stroke-linecap:butt;stroke-linejoin:miter;stroke:rgb(0%,0%,0%);stroke-opacity:1;stroke-miterlimit:10;" d="M 6.0627 4.478613 L 6.665781 3.688861 " transform="matrix(17.365269,0,0,17.356115,17.219577,17.303827)"/>
<path style="fill:none;stroke-width:0.0333333;stroke-linecap:butt;stroke-linejoin:miter;stroke:rgb(0%,0%,0%);stroke-opacity:1;stroke-miterlimit:10;" d="M 3.393939 4.181978 L 2.570862 4.665417 " transform="matrix(17.365269,0,0,17.356115,17.219577,17.303827)"/>
<path style="fill:none;stroke-width:0.0333333;stroke-linecap:butt;stroke-linejoin:miter;stroke:rgb(0%,0%,0%);stroke-opacity:1;stroke-miterlimit:10;" d="M 3.393939 4.181978 L 3.393939 3.153432 " transform="matrix(17.365269,0,0,17.356115,17.219577,17.303827)"/>
<path style="fill:none;stroke-width:0.0333333;stroke-linecap:butt;stroke-linejoin:miter;stroke:rgb(0%,0%,0%);stroke-opacity:1;stroke-miterlimit:10;" d="M 4.263806 5.676183 L 3.413285 6.172901 " transform="matrix(17.365269,0,0,17.356115,17.219577,17.303827)"/>
<path style=" stroke:none;fill-rule:nonzero;fill:rgb(0%,0%,0%);fill-opacity:1;" d="M 122.625 67.210938 L 130.867188 50.484375 L 128.398438 50.945312 L 126.746094 49.132812 "/>
<path style="fill:none;stroke-width:0.0333333;stroke-linecap:butt;stroke-linejoin:miter;stroke:rgb(0%,0%,0%);stroke-opacity:1;stroke-miterlimit:10;" d="M 2.570862 4.665417 L 2.570862 5.674157 " transform="matrix(17.365269,0,0,17.356115,17.219577,17.303827)"/>
<path style="fill:none;stroke-width:0.0333333;stroke-linecap:butt;stroke-linejoin:miter;stroke:rgb(0%,0%,0%);stroke-opacity:1;stroke-miterlimit:10;" d="M 2.570862 4.665417 L 1.700995 4.177477 " transform="matrix(17.365269,0,0,17.356115,17.219577,17.303827)"/>
<path style=" stroke:none;fill-rule:nonzero;fill:rgb(0%,0%,0%);fill-opacity:1;" d="M 61.863281 98.277344 L 63.886719 84.21875 L 59.835938 84.21875 "/>
<path style="fill:none;stroke-width:0.0333333;stroke-linecap:butt;stroke-linejoin:miter;stroke:rgb(0%,0%,0%);stroke-opacity:1;stroke-miterlimit:10;" d="M 6.389547 1.94911 L 7.225222 1.793366 " transform="matrix(17.365269,0,0,17.356115,17.219577,17.303827)"/>
<path style="fill:none;stroke-width:0.0333333;stroke-linecap:butt;stroke-linejoin:miter;stroke:rgb(0%,0%,0%);stroke-opacity:1;stroke-miterlimit:10;" d="M 6.398995 1.94731 L 5.880719 1.377221 " transform="matrix(17.365269,0,0,17.356115,17.219577,17.303827)"/>
<path style="fill:none;stroke-width:0.0333333;stroke-linecap:butt;stroke-linejoin:miter;stroke:rgb(0%,0%,0%);stroke-opacity:1;stroke-miterlimit:10;" d="M 6.459955 1.766358 L 6.003989 1.265139 " transform="matrix(17.365269,0,0,17.356115,17.219577,17.303827)"/>
<path style="fill:none;stroke-width:0.0333333;stroke-linecap:butt;stroke-linejoin:miter;stroke:rgb(0%,0%,0%);stroke-opacity:1;stroke-miterlimit:10;" d="M 2.570862 5.674157 L 1.899397 6.070271 " transform="matrix(17.365269,0,0,17.356115,17.219577,17.303827)"/>
<path style="fill:none;stroke-width:0.0333333;stroke-linecap:butt;stroke-linejoin:miter;stroke:rgb(0%,0%,0%);stroke-opacity:1;stroke-miterlimit:10;" d="M 1.717191 4.177477 L 0.839001 4.670144 " transform="matrix(17.365269,0,0,17.356115,17.219577,17.303827)"/>
<path style="fill:none;stroke-width:0.0333333;stroke-linecap:butt;stroke-linejoin:miter;stroke:rgb(0%,0%,0%);stroke-opacity:1;stroke-miterlimit:10;" d="M 7.439595 1.586981 L 7.705482 0.837065 " transform="matrix(17.365269,0,0,17.356115,17.219577,17.303827)"/>
<path style="fill:none;stroke-width:0.0333333;stroke-linecap:butt;stroke-linejoin:miter;stroke:rgb(0%,0%,0%);stroke-opacity:1;stroke-miterlimit:10;" d="M 1.567152 6.076348 L 0.838776 5.676408 " transform="matrix(17.365269,0,0,17.356115,17.219577,17.303827)"/>
<path style="fill:none;stroke-width:0.0333333;stroke-linecap:butt;stroke-linejoin:miter;stroke:rgb(0%,0%,0%);stroke-opacity:1;stroke-miterlimit:10;" d="M 7.705482 0.837065 L 6.903774 0.484839 " transform="matrix(17.365269,0,0,17.356115,17.219577,17.303827)"/>
<path style="fill:none;stroke-width:0.0333333;stroke-linecap:butt;stroke-linejoin:miter;stroke:rgb(0%,0%,0%);stroke-opacity:1;stroke-miterlimit:10;" d="M 7.705482 0.837065 L 7.460066 0.185053 " transform="matrix(17.365269,0,0,17.356115,17.219577,17.303827)"/>
<path style="fill:none;stroke-width:0.0333333;stroke-linecap:butt;stroke-linejoin:miter;stroke:rgb(0%,0%,0%);stroke-opacity:1;stroke-miterlimit:10;" d="M 7.705482 0.837065 L 8.534183 0.684697 " transform="matrix(17.365269,0,0,17.356115,17.219577,17.303827)"/>
<path style="fill:none;stroke-width:0.0333333;stroke-linecap:butt;stroke-linejoin:miter;stroke:rgb(0%,0%,0%);stroke-opacity:1;stroke-miterlimit:10;" d="M 0.847549 5.583681 L 0.137844 6.01468 " transform="matrix(17.365269,0,0,17.356115,17.219577,17.303827)"/>
<path style="fill:none;stroke-width:0.0333333;stroke-linecap:butt;stroke-linejoin:miter;stroke:rgb(0%,0%,0%);stroke-opacity:1;stroke-miterlimit:10;" d="M 0.931904 5.727498 L 0.224224 6.157146 " transform="matrix(17.365269,0,0,17.356115,17.219577,17.303827)"/>
<path style="fill:none;stroke-width:0.0333333;stroke-linecap:butt;stroke-linejoin:miter;stroke:rgb(0%,0%,0%);stroke-opacity:1;stroke-miterlimit:10;" d="M 6.062925 2.865799 L 6.665331 3.708667 " transform="matrix(17.365269,0,0,17.356115,17.219577,17.303827)"/>
<path style="fill:none;stroke-width:0.0333333;stroke-linecap:butt;stroke-linejoin:miter;stroke:rgb(0%,0%,0%);stroke-opacity:1;stroke-miterlimit:10;" d="M 4.250084 2.646136 L 3.385841 3.167611 " transform="matrix(17.365269,0,0,17.356115,17.219577,17.303827)"/>
<path style="fill:none;stroke-width:0.0333333;stroke-linecap:butt;stroke-linejoin:miter;stroke:rgb(0%,0%,0%);stroke-opacity:1;stroke-miterlimit:10;" d="M 3.430156 6.172901 L 2.570862 5.674157 " transform="matrix(17.365269,0,0,17.356115,17.219577,17.303827)"/>
<path style="fill:none;stroke-width:0.0333333;stroke-linecap:butt;stroke-linejoin:miter;stroke:rgb(0%,0%,0%);stroke-opacity:1;stroke-miterlimit:10;" d="M 0.847549 4.655739 L 0.847549 5.691037 " transform="matrix(17.365269,0,0,17.356115,17.219577,17.303827)"/>
<path style="fill:none;stroke-width:0.0333333;stroke-linecap:butt;stroke-linejoin:miter;stroke:rgb(0%,0%,0%);stroke-opacity:1;stroke-miterlimit:10;" d="M 5.081935 4.224515 L 5.101281 4.224965 M 5.071138 4.295411 L 5.110053 4.296086 M 5.060565 4.366081 L 5.118826 4.366981 M 5.049768 4.436751 L 5.127599 4.437877 M 5.039195 4.507647 L 5.136372 4.508997 M 5.028398 4.578317 L 5.145145 4.579893 M 5.017825 4.648987 L 5.153918 4.650788 M 5.007028 4.719658 L 5.162466 4.721908 M 4.996231 4.790328 L 5.171239 4.792804 M 4.985658 4.861223 L 5.180012 4.863699 M 4.974861 4.931894 L 5.188785 4.93482 M 4.964063 5.002564 L 5.197557 5.005715 " transform="matrix(17.365269,0,0,17.356115,17.219577,17.303827)"/>
<path style=" stroke:none;fill-rule:nonzero;fill:rgb(0%,0%,0%);fill-opacity:1;" d="M 91.117188 98.277344 L 93.144531 84.582031 L 89.09375 84.582031 "/>
<path style="fill:none;stroke-width:0.0333333;stroke-linecap:butt;stroke-linejoin:miter;stroke:rgb(0%,0%,0%);stroke-opacity:1;stroke-miterlimit:10;" d="M 3.384717 4.249047 L 3.401363 4.249272 M 3.375494 4.316117 L 3.408786 4.316567 M 3.366271 4.383411 L 3.416434 4.383861 M 3.357048 4.45048 L 3.423632 4.451381 M 3.347825 4.517775 L 3.431281 4.518675 M 3.338603 4.584619 L 3.438704 4.586194 M 3.32938 4.651913 L 3.446127 4.653489 M 3.320157 4.719208 L 3.453775 4.720783 M 3.311159 4.786277 L 3.460973 4.788077 M 3.301936 4.853346 L 3.468622 4.855597 M 3.292714 4.920416 L 3.476045 4.922891 M 3.283491 4.98771 L 3.483468 4.990186 M 3.274268 5.054779 L 3.491116 5.05748 M 3.265045 5.121848 L 3.498539 5.124999 " transform="matrix(17.365269,0,0,17.356115,17.219577,17.303827)"/>
<path style="fill:none;stroke-width:0.0333333;stroke-linecap:butt;stroke-linejoin:miter;stroke:rgb(0%,0%,0%);stroke-opacity:1;stroke-miterlimit:10;" d="M 2.563888 5.744603 L 2.57941 5.744378 M 2.556915 5.815273 L 2.588182 5.814823 M 2.549942 5.885718 L 2.59673 5.885268 M 2.542968 5.956389 L 2.605278 5.955713 M 2.535995 6.026834 L 2.613826 6.025934 M 2.529022 6.097504 L 2.622374 6.096379 M 2.522048 6.16795 L 2.631147 6.166824 M 2.515075 6.23862 L 2.639695 6.237269 M 2.508327 6.30929 L 2.648243 6.30749 M 2.501128 6.379961 L 2.656791 6.377935 M 2.494155 6.450406 L 2.665339 6.44838 M 2.487407 6.521076 L 2.674112 6.518826 M 2.480208 6.591521 L 2.68266 6.589271 M 2.47346 6.661967 L 2.691208 6.659491 M 2.466262 6.732637 L 2.699756 6.729936 " transform="matrix(17.365269,0,0,17.356115,17.219577,17.303827)"/>
</g>
</svg>
