<?xml version="1.0" encoding="UTF-8"?>
<svg xmlns="http://www.w3.org/2000/svg" xmlns:xlink="http://www.w3.org/1999/xlink" width="160.8pt" height="246.4pt" viewBox="0 0 160.8 246.4" version="1.1">
<g id="surface1112">
<path style=" stroke:none;fill-rule:nonzero;fill:rgb(0%,0%,0%);fill-opacity:1;" d="M 95.207031 9.453125 C 94.992188 9.453125 94.796875 9.492188 94.632812 9.5625 C 94.464844 9.636719 94.324219 9.742188 94.210938 9.878906 C 94.101562 10.007812 94.019531 10.167969 93.960938 10.355469 C 93.902344 10.546875 93.875 10.753906 93.875 10.984375 C 93.875 11.21875 93.902344 11.429688 93.960938 11.625 C 94.027344 11.816406 94.117188 11.980469 94.230469 12.117188 C 94.347656 12.253906 94.488281 12.363281 94.65625 12.441406 C 94.828125 12.515625 95.015625 12.550781 95.230469 12.550781 C 95.378906 12.550781 95.511719 12.535156 95.628906 12.496094 C 95.75 12.453125 95.863281 12.394531 95.964844 12.320312 C 96.066406 12.25 96.152344 12.167969 96.226562 12.070312 C 96.304688 11.980469 96.371094 11.871094 96.429688 11.746094 L 96.851562 11.964844 C 96.789062 12.109375 96.703125 12.242188 96.605469 12.367188 C 96.5 12.488281 96.382812 12.597656 96.246094 12.691406 C 96.109375 12.777344 95.953125 12.847656 95.78125 12.898438 C 95.609375 12.945312 95.414062 12.972656 95.207031 12.972656 C 94.894531 12.972656 94.625 12.925781 94.394531 12.832031 C 94.160156 12.730469 93.96875 12.59375 93.808594 12.417969 C 93.660156 12.242188 93.542969 12.027344 93.464844 11.789062 C 93.382812 11.546875 93.34375 11.277344 93.34375 10.984375 C 93.34375 10.691406 93.382812 10.421875 93.464844 10.183594 C 93.550781 9.9375 93.671875 9.730469 93.832031 9.5625 C 93.988281 9.398438 94.183594 9.265625 94.417969 9.171875 C 94.648438 9.078125 94.910156 9.03125 95.207031 9.03125 C 95.609375 9.03125 95.945312 9.113281 96.214844 9.269531 C 96.488281 9.429688 96.691406 9.667969 96.820312 9.984375 L 96.332031 10.148438 C 96.296875 10.058594 96.246094 9.96875 96.179688 9.886719 C 96.121094 9.800781 96.046875 9.730469 95.953125 9.671875 C 95.859375 9.605469 95.75 9.558594 95.628906 9.519531 C 95.503906 9.476562 95.363281 9.453125 95.207031 9.453125 Z M 95.207031 9.453125 "/>
<path style=" stroke:none;fill-rule:nonzero;fill:rgb(0%,0%,0%);fill-opacity:1;" d="M 98.085938 10.484375 C 98.144531 10.386719 98.199219 10.300781 98.261719 10.234375 C 98.324219 10.164062 98.394531 10.105469 98.464844 10.0625 C 98.542969 10.011719 98.628906 9.976562 98.714844 9.953125 C 98.808594 9.933594 98.914062 9.921875 99.027344 9.921875 C 99.214844 9.921875 99.367188 9.949219 99.484375 9.996094 C 99.605469 10.046875 99.699219 10.121094 99.765625 10.214844 C 99.835938 10.308594 99.886719 10.421875 99.917969 10.550781 C 99.945312 10.675781 99.960938 10.8125 99.960938 10.964844 L 99.960938 12.917969 L 99.460938 12.917969 L 99.460938 11.050781 C 99.460938 10.929688 99.453125 10.820312 99.441406 10.726562 C 99.425781 10.632812 99.398438 10.554688 99.355469 10.496094 C 99.308594 10.429688 99.25 10.386719 99.167969 10.355469 C 99.089844 10.320312 98.988281 10.300781 98.867188 10.300781 C 98.75 10.300781 98.644531 10.324219 98.550781 10.367188 C 98.457031 10.410156 98.378906 10.472656 98.3125 10.550781 C 98.25 10.625 98.199219 10.714844 98.164062 10.824219 C 98.125 10.929688 98.109375 11.050781 98.109375 11.179688 L 98.109375 12.917969 L 97.621094 12.917969 L 97.621094 8.890625 L 98.109375 8.890625 L 98.109375 9.933594 C 98.109375 9.996094 98.101562 10.058594 98.097656 10.117188 C 98.097656 10.175781 98.09375 10.230469 98.085938 10.28125 C 98.085938 10.332031 98.085938 10.375 98.085938 10.410156 C 98.085938 10.449219 98.085938 10.472656 98.085938 10.484375 Z M 98.085938 10.484375 "/>
<path style=" stroke:none;fill-rule:nonzero;fill:rgb(0%,0%,0%);fill-opacity:1;" d="M 100.808594 9.355469 L 100.808594 8.890625 L 101.296875 8.890625 L 101.296875 9.355469 Z M 100.808594 12.917969 L 100.808594 9.976562 L 101.296875 9.976562 L 101.296875 12.917969 Z M 100.808594 12.917969 "/>
<path style=" stroke:none;fill-rule:nonzero;fill:rgb(0%,0%,0%);fill-opacity:1;" d="M 102.113281 12.917969 L 102.113281 10.660156 C 102.113281 10.601562 102.109375 10.539062 102.101562 10.476562 C 102.101562 10.410156 102.101562 10.351562 102.101562 10.289062 C 102.101562 10.234375 102.097656 10.179688 102.09375 10.128906 C 102.09375 10.070312 102.09375 10.019531 102.09375 9.976562 L 102.558594 9.976562 C 102.558594 10.019531 102.558594 10.070312 102.558594 10.128906 C 102.5625 10.179688 102.570312 10.234375 102.570312 10.289062 C 102.570312 10.34375 102.570312 10.394531 102.570312 10.453125 C 102.574219 10.503906 102.578125 10.546875 102.578125 10.582031 L 102.589844 10.582031 C 102.617188 10.46875 102.648438 10.371094 102.6875 10.289062 C 102.730469 10.203125 102.777344 10.136719 102.828125 10.082031 C 102.886719 10.035156 102.949219 9.996094 103.023438 9.964844 C 103.09375 9.9375 103.179688 9.921875 103.285156 9.921875 C 103.320312 9.921875 103.355469 9.925781 103.390625 9.933594 C 103.425781 9.941406 103.457031 9.949219 103.476562 9.953125 L 103.476562 10.398438 C 103.449219 10.394531 103.414062 10.386719 103.371094 10.386719 C 103.328125 10.382812 103.273438 10.378906 103.21875 10.378906 C 103.109375 10.378906 103.015625 10.40625 102.9375 10.453125 C 102.855469 10.503906 102.789062 10.574219 102.742188 10.660156 C 102.691406 10.746094 102.65625 10.855469 102.632812 10.984375 C 102.613281 11.109375 102.601562 11.242188 102.601562 11.386719 L 102.601562 12.917969 Z M 102.113281 12.917969 "/>
<path style=" stroke:none;fill-rule:nonzero;fill:rgb(0%,0%,0%);fill-opacity:1;" d="M 104.773438 12.972656 C 104.472656 12.972656 104.253906 12.898438 104.101562 12.746094 C 103.953125 12.589844 103.882812 12.371094 103.882812 12.09375 C 103.882812 11.90625 103.917969 11.75 103.992188 11.625 C 104.0625 11.496094 104.15625 11.398438 104.273438 11.332031 C 104.394531 11.261719 104.535156 11.210938 104.6875 11.179688 C 104.835938 11.152344 104.992188 11.136719 105.152344 11.136719 L 105.800781 11.125 L 105.800781 10.964844 C 105.800781 10.839844 105.785156 10.742188 105.757812 10.660156 C 105.734375 10.574219 105.699219 10.503906 105.648438 10.453125 C 105.597656 10.394531 105.53125 10.355469 105.453125 10.332031 C 105.375 10.3125 105.28125 10.300781 105.171875 10.300781 C 105.078125 10.300781 104.992188 10.308594 104.914062 10.324219 C 104.839844 10.332031 104.773438 10.351562 104.71875 10.386719 C 104.667969 10.425781 104.625 10.476562 104.589844 10.539062 C 104.550781 10.601562 104.527344 10.675781 104.523438 10.769531 L 104.015625 10.714844 C 104.027344 10.601562 104.058594 10.492188 104.113281 10.398438 C 104.160156 10.308594 104.234375 10.222656 104.328125 10.148438 C 104.421875 10.078125 104.535156 10.023438 104.675781 9.984375 C 104.820312 9.941406 104.988281 9.921875 105.183594 9.921875 C 105.550781 9.921875 105.828125 10.007812 106.019531 10.183594 C 106.203125 10.351562 106.300781 10.59375 106.300781 10.910156 L 106.300781 12.179688 C 106.300781 12.328125 106.316406 12.4375 106.355469 12.507812 C 106.390625 12.578125 106.460938 12.613281 106.570312 12.613281 C 106.597656 12.613281 106.625 12.613281 106.644531 12.613281 C 106.671875 12.609375 106.703125 12.601562 106.734375 12.59375 L 106.734375 12.898438 C 106.667969 12.917969 106.605469 12.933594 106.546875 12.941406 C 106.488281 12.945312 106.425781 12.953125 106.355469 12.953125 C 106.257812 12.953125 106.179688 12.941406 106.117188 12.917969 C 106.050781 12.890625 105.996094 12.851562 105.953125 12.800781 C 105.914062 12.75 105.886719 12.6875 105.867188 12.613281 C 105.84375 12.542969 105.828125 12.457031 105.824219 12.355469 L 105.800781 12.355469 C 105.75 12.449219 105.691406 12.535156 105.628906 12.613281 C 105.570312 12.6875 105.496094 12.753906 105.410156 12.8125 C 105.332031 12.863281 105.238281 12.902344 105.128906 12.929688 C 105.027344 12.957031 104.90625 12.972656 104.773438 12.972656 Z M 104.878906 12.605469 C 105.03125 12.605469 105.164062 12.578125 105.28125 12.515625 C 105.402344 12.460938 105.5 12.386719 105.574219 12.300781 C 105.652344 12.214844 105.710938 12.121094 105.746094 12.019531 C 105.78125 11.910156 105.800781 11.808594 105.800781 11.714844 L 105.800781 11.464844 L 105.269531 11.472656 C 105.152344 11.484375 105.042969 11.492188 104.933594 11.507812 C 104.828125 11.523438 104.730469 11.550781 104.640625 11.59375 C 104.5625 11.636719 104.496094 11.703125 104.449219 11.789062 C 104.402344 11.871094 104.382812 11.972656 104.382812 12.105469 C 104.382812 12.265625 104.425781 12.386719 104.511719 12.472656 C 104.597656 12.5625 104.722656 12.605469 104.878906 12.605469 Z M 104.878906 12.605469 "/>
<path style=" stroke:none;fill-rule:nonzero;fill:rgb(0%,0%,0%);fill-opacity:1;" d="M 107.234375 12.917969 L 107.234375 8.890625 L 107.722656 8.890625 L 107.722656 12.917969 Z M 107.234375 12.917969 "/>
<path style=" stroke:none;fill-rule:nonzero;fill:rgb(0%,0%,0%);fill-opacity:1;" d="M 93.125 30.683594 C 93.125 30.984375 93.082031 31.253906 92.996094 31.5 C 92.910156 31.746094 92.78125 31.953125 92.617188 32.128906 C 92.457031 32.300781 92.257812 32.4375 92.019531 32.53125 C 91.789062 32.621094 91.523438 32.671875 91.230469 32.671875 C 90.910156 32.671875 90.632812 32.621094 90.394531 32.53125 C 90.164062 32.429688 89.96875 32.292969 89.8125 32.117188 C 89.652344 31.9375 89.53125 31.726562 89.453125 31.488281 C 89.371094 31.242188 89.335938 30.972656 89.335938 30.683594 C 89.335938 30.386719 89.371094 30.117188 89.453125 29.878906 C 89.539062 29.636719 89.664062 29.429688 89.820312 29.261719 C 89.988281 29.09375 90.183594 28.964844 90.417969 28.871094 C 90.65625 28.777344 90.925781 28.726562 91.230469 28.726562 C 91.53125 28.726562 91.804688 28.777344 92.042969 28.871094 C 92.28125 28.964844 92.476562 29.097656 92.636719 29.273438 C 92.792969 29.441406 92.914062 29.640625 92.996094 29.878906 C 93.082031 30.117188 93.125 30.386719 93.125 30.683594 Z M 92.59375 30.683594 C 92.59375 30.453125 92.566406 30.242188 92.507812 30.054688 C 92.449219 29.867188 92.363281 29.707031 92.246094 29.574219 C 92.132812 29.441406 91.988281 29.332031 91.816406 29.261719 C 91.648438 29.191406 91.453125 29.152344 91.230469 29.152344 C 91.003906 29.152344 90.808594 29.191406 90.632812 29.261719 C 90.460938 29.332031 90.316406 29.441406 90.199219 29.574219 C 90.09375 29.707031 90.007812 29.867188 89.953125 30.054688 C 89.890625 30.242188 89.863281 30.453125 89.863281 30.683594 C 89.863281 30.917969 89.890625 31.128906 89.953125 31.324219 C 90.007812 31.515625 90.09375 31.679688 90.210938 31.8125 C 90.324219 31.953125 90.464844 32.0625 90.632812 32.140625 C 90.808594 32.210938 91.003906 32.25 91.230469 32.25 C 91.46875 32.25 91.671875 32.210938 91.847656 32.140625 C 92.019531 32.0625 92.160156 31.953125 92.269531 31.8125 C 92.378906 31.667969 92.457031 31.503906 92.507812 31.3125 C 92.566406 31.117188 92.59375 30.910156 92.59375 30.683594 Z M 92.59375 30.683594 "/>
<path style=" stroke:none;fill-rule:nonzero;fill:rgb(0%,0%,0%);fill-opacity:1;" d="M 63.574219 23.078125 C 63.574219 23.378906 63.53125 23.648438 63.441406 23.894531 C 63.355469 24.140625 63.230469 24.351562 63.0625 24.523438 C 62.90625 24.699219 62.707031 24.832031 62.46875 24.925781 C 62.234375 25.019531 61.972656 25.066406 61.679688 25.066406 C 61.359375 25.066406 61.082031 25.019531 60.84375 24.925781 C 60.613281 24.824219 60.417969 24.6875 60.257812 24.511719 C 60.101562 24.335938 59.980469 24.121094 59.902344 23.882812 C 59.820312 23.640625 59.78125 23.371094 59.78125 23.078125 C 59.78125 22.785156 59.820312 22.515625 59.902344 22.277344 C 59.988281 22.03125 60.109375 21.824219 60.269531 21.65625 C 60.433594 21.492188 60.632812 21.359375 60.867188 21.265625 C 61.105469 21.171875 61.375 21.125 61.679688 21.125 C 61.980469 21.125 62.253906 21.171875 62.492188 21.265625 C 62.730469 21.359375 62.925781 21.492188 63.085938 21.667969 C 63.242188 21.835938 63.363281 22.035156 63.441406 22.277344 C 63.53125 22.515625 63.574219 22.785156 63.574219 23.078125 Z M 63.042969 23.078125 C 63.042969 22.847656 63.011719 22.640625 62.957031 22.449219 C 62.894531 22.261719 62.808594 22.101562 62.695312 21.972656 C 62.578125 21.835938 62.4375 21.730469 62.261719 21.65625 C 62.09375 21.585938 61.898438 21.546875 61.679688 21.546875 C 61.453125 21.546875 61.253906 21.585938 61.082031 21.65625 C 60.910156 21.730469 60.761719 21.835938 60.648438 21.972656 C 60.539062 22.101562 60.457031 22.261719 60.398438 22.449219 C 60.339844 22.640625 60.3125 22.847656 60.3125 23.078125 C 60.3125 23.3125 60.339844 23.523438 60.398438 23.71875 C 60.457031 23.910156 60.542969 24.074219 60.660156 24.210938 C 60.773438 24.347656 60.914062 24.457031 61.082031 24.535156 C 61.253906 24.609375 61.453125 24.644531 61.679688 24.644531 C 61.917969 24.644531 62.121094 24.609375 62.296875 24.535156 C 62.46875 24.457031 62.609375 24.347656 62.71875 24.210938 C 62.824219 24.066406 62.90625 23.898438 62.957031 23.710938 C 63.011719 23.515625 63.042969 23.304688 63.042969 23.078125 Z M 63.042969 23.078125 "/>
<path style=" stroke:none;fill-rule:nonzero;fill:rgb(0%,0%,0%);fill-opacity:1;" d="M 84.289062 64.011719 C 84.289062 64.308594 84.246094 64.582031 84.160156 64.824219 C 84.074219 65.070312 83.945312 65.28125 83.78125 65.453125 C 83.621094 65.628906 83.425781 65.765625 83.1875 65.855469 C 82.953125 65.949219 82.691406 66 82.394531 66 C 82.074219 66 81.800781 65.949219 81.5625 65.855469 C 81.328125 65.757812 81.132812 65.617188 80.976562 65.445312 C 80.816406 65.265625 80.699219 65.054688 80.621094 64.8125 C 80.539062 64.570312 80.5 64.300781 80.5 64.011719 C 80.5 63.714844 80.539062 63.445312 80.621094 63.207031 C 80.707031 62.960938 80.828125 62.753906 80.988281 62.585938 C 81.152344 62.421875 81.351562 62.289062 81.582031 62.195312 C 81.820312 62.105469 82.09375 62.054688 82.394531 62.054688 C 82.699219 62.054688 82.96875 62.105469 83.207031 62.195312 C 83.445312 62.289062 83.644531 62.425781 83.804688 62.597656 C 83.960938 62.765625 84.078125 62.96875 84.160156 63.207031 C 84.246094 63.445312 84.289062 63.714844 84.289062 64.011719 Z M 83.761719 64.011719 C 83.761719 63.777344 83.730469 63.570312 83.671875 63.378906 C 83.613281 63.191406 83.527344 63.03125 83.414062 62.902344 C 83.296875 62.765625 83.152344 62.660156 82.980469 62.585938 C 82.8125 62.515625 82.617188 62.476562 82.394531 62.476562 C 82.171875 62.476562 81.972656 62.515625 81.800781 62.585938 C 81.625 62.660156 81.480469 62.765625 81.367188 62.902344 C 81.257812 63.03125 81.175781 63.191406 81.117188 63.378906 C 81.058594 63.570312 81.03125 63.777344 81.03125 64.011719 C 81.03125 64.242188 81.058594 64.457031 81.117188 64.652344 C 81.175781 64.839844 81.261719 65.003906 81.378906 65.140625 C 81.492188 65.277344 81.632812 65.386719 81.800781 65.464844 C 81.972656 65.539062 82.171875 65.574219 82.394531 65.574219 C 82.632812 65.574219 82.839844 65.539062 83.011719 65.464844 C 83.1875 65.386719 83.328125 65.277344 83.433594 65.140625 C 83.542969 64.996094 83.621094 64.832031 83.671875 64.640625 C 83.730469 64.445312 83.761719 64.234375 83.761719 64.011719 Z M 83.761719 64.011719 "/>
<path style=" stroke:none;fill-rule:nonzero;fill:rgb(0%,0%,0%);fill-opacity:1;" d="M 50.910156 73.578125 C 50.910156 73.875 50.867188 74.148438 50.78125 74.394531 C 50.695312 74.640625 50.566406 74.847656 50.402344 75.023438 C 50.242188 75.195312 50.042969 75.332031 49.804688 75.425781 C 49.574219 75.515625 49.308594 75.566406 49.015625 75.566406 C 48.695312 75.566406 48.417969 75.515625 48.179688 75.425781 C 47.949219 75.324219 47.753906 75.1875 47.597656 75.011719 C 47.4375 74.832031 47.316406 74.621094 47.238281 74.382812 C 47.15625 74.136719 47.121094 73.867188 47.121094 73.578125 C 47.121094 73.28125 47.15625 73.011719 47.238281 72.773438 C 47.324219 72.53125 47.449219 72.324219 47.609375 72.15625 C 47.773438 71.988281 47.96875 71.859375 48.203125 71.765625 C 48.441406 71.671875 48.710938 71.621094 49.015625 71.621094 C 49.320312 71.621094 49.589844 71.671875 49.828125 71.765625 C 50.066406 71.859375 50.261719 71.992188 50.421875 72.164062 C 50.582031 72.335938 50.699219 72.535156 50.78125 72.773438 C 50.867188 73.011719 50.910156 73.28125 50.910156 73.578125 Z M 50.378906 73.578125 C 50.378906 73.347656 50.351562 73.136719 50.292969 72.949219 C 50.234375 72.761719 50.148438 72.601562 50.035156 72.46875 C 49.917969 72.335938 49.773438 72.226562 49.601562 72.15625 C 49.433594 72.085938 49.238281 72.046875 49.015625 72.046875 C 48.789062 72.046875 48.59375 72.085938 48.417969 72.15625 C 48.246094 72.226562 48.101562 72.335938 47.988281 72.46875 C 47.878906 72.601562 47.792969 72.761719 47.738281 72.949219 C 47.679688 73.136719 47.652344 73.347656 47.652344 73.578125 C 47.652344 73.8125 47.679688 74.023438 47.738281 74.21875 C 47.792969 74.410156 47.882812 74.570312 47.996094 74.707031 C 48.109375 74.847656 48.25 74.953125 48.417969 75.035156 C 48.59375 75.105469 48.789062 75.140625 49.015625 75.140625 C 49.253906 75.140625 49.460938 75.105469 49.632812 75.035156 C 49.804688 74.953125 49.945312 74.847656 50.054688 74.707031 C 50.164062 74.5625 50.242188 74.398438 50.292969 74.207031 C 50.351562 74.011719 50.378906 73.804688 50.378906 73.578125 Z M 50.378906 73.578125 "/>
<path style=" stroke:none;fill-rule:nonzero;fill:rgb(0%,0%,0%);fill-opacity:1;" d="M 25.507812 49.582031 C 25.507812 49.882812 25.464844 50.152344 25.375 50.398438 C 25.289062 50.644531 25.164062 50.855469 24.996094 51.027344 C 24.839844 51.203125 24.640625 51.335938 24.402344 51.429688 C 24.167969 51.523438 23.90625 51.570312 23.613281 51.570312 C 23.292969 51.570312 23.015625 51.523438 22.777344 51.429688 C 22.542969 51.328125 22.351562 51.191406 22.191406 51.015625 C 22.03125 50.839844 21.914062 50.625 21.835938 50.386719 C 21.753906 50.144531 21.714844 49.875 21.714844 49.582031 C 21.714844 49.289062 21.753906 49.019531 21.835938 48.78125 C 21.921875 48.535156 22.042969 48.328125 22.203125 48.160156 C 22.367188 47.996094 22.566406 47.863281 22.800781 47.769531 C 23.039062 47.675781 23.308594 47.628906 23.613281 47.628906 C 23.914062 47.628906 24.183594 47.675781 24.421875 47.769531 C 24.660156 47.863281 24.859375 47.996094 25.019531 48.171875 C 25.175781 48.339844 25.296875 48.539062 25.375 48.78125 C 25.464844 49.019531 25.507812 49.289062 25.507812 49.582031 Z M 24.976562 49.582031 C 24.976562 49.351562 24.945312 49.144531 24.890625 48.953125 C 24.828125 48.765625 24.742188 48.605469 24.628906 48.476562 C 24.511719 48.339844 24.371094 48.234375 24.195312 48.160156 C 24.027344 48.089844 23.832031 48.050781 23.613281 48.050781 C 23.386719 48.050781 23.1875 48.089844 23.015625 48.160156 C 22.84375 48.234375 22.695312 48.339844 22.582031 48.476562 C 22.472656 48.605469 22.390625 48.765625 22.332031 48.953125 C 22.273438 49.144531 22.246094 49.351562 22.246094 49.582031 C 22.246094 49.816406 22.273438 50.027344 22.332031 50.222656 C 22.390625 50.414062 22.476562 50.578125 22.59375 50.714844 C 22.707031 50.851562 22.847656 50.960938 23.015625 51.039062 C 23.1875 51.113281 23.386719 51.148438 23.613281 51.148438 C 23.851562 51.148438 24.054688 51.113281 24.230469 51.039062 C 24.402344 50.960938 24.542969 50.851562 24.652344 50.714844 C 24.757812 50.570312 24.839844 50.402344 24.890625 50.214844 C 24.945312 50.019531 24.976562 49.808594 24.976562 49.582031 Z M 24.976562 49.582031 "/>
<path style=" stroke:none;fill-rule:nonzero;fill:rgb(0%,0%,0%);fill-opacity:1;" d="M 19.09375 23.785156 C 19.09375 24.085938 19.050781 24.355469 18.960938 24.601562 C 18.875 24.847656 18.75 25.054688 18.582031 25.230469 C 18.425781 25.402344 18.226562 25.539062 17.988281 25.632812 C 17.753906 25.722656 17.492188 25.773438 17.199219 25.773438 C 16.878906 25.773438 16.601562 25.722656 16.363281 25.632812 C 16.132812 25.53125 15.9375 25.394531 15.777344 25.21875 C 15.621094 25.039062 15.5 24.828125 15.421875 24.589844 C 15.339844 24.34375 15.300781 24.074219 15.300781 23.785156 C 15.300781 23.488281 15.339844 23.21875 15.421875 22.980469 C 15.507812 22.738281 15.628906 22.53125 15.789062 22.363281 C 15.953125 22.195312 16.152344 22.066406 16.386719 21.972656 C 16.625 21.878906 16.894531 21.828125 17.199219 21.828125 C 17.5 21.828125 17.773438 21.878906 18.011719 21.972656 C 18.25 22.066406 18.445312 22.199219 18.605469 22.375 C 18.761719 22.542969 18.882812 22.742188 18.960938 22.980469 C 19.050781 23.21875 19.09375 23.488281 19.09375 23.785156 Z M 18.5625 23.785156 C 18.5625 23.554688 18.53125 23.34375 18.476562 23.15625 C 18.414062 22.96875 18.328125 22.808594 18.214844 22.675781 C 18.097656 22.542969 17.957031 22.4375 17.78125 22.363281 C 17.613281 22.292969 17.417969 22.253906 17.199219 22.253906 C 16.972656 22.253906 16.773438 22.292969 16.601562 22.363281 C 16.429688 22.4375 16.28125 22.542969 16.167969 22.675781 C 16.058594 22.808594 15.976562 22.96875 15.917969 23.15625 C 15.859375 23.34375 15.832031 23.554688 15.832031 23.785156 C 15.832031 24.019531 15.859375 24.230469 15.917969 24.425781 C 15.976562 24.617188 16.0625 24.78125 16.179688 24.914062 C 16.292969 25.054688 16.433594 25.164062 16.601562 25.242188 C 16.773438 25.316406 16.972656 25.351562 17.199219 25.351562 C 17.4375 25.351562 17.640625 25.316406 17.816406 25.242188 C 17.988281 25.164062 18.128906 25.054688 18.238281 24.914062 C 18.34375 24.769531 18.425781 24.605469 18.476562 24.414062 C 18.53125 24.21875 18.5625 24.011719 18.5625 23.785156 Z M 18.5625 23.785156 "/>
<path style=" stroke:none;fill-rule:nonzero;fill:rgb(0%,0%,0%);fill-opacity:1;" d="M 107.15625 39.359375 L 106.167969 37.773438 L 104.976562 37.773438 L 104.976562 39.359375 L 104.457031 39.359375 L 104.457031 35.535156 L 106.257812 35.535156 C 106.472656 35.535156 106.664062 35.5625 106.828125 35.609375 C 106.996094 35.652344 107.136719 35.722656 107.253906 35.816406 C 107.367188 35.910156 107.453125 36.027344 107.511719 36.164062 C 107.570312 36.304688 107.597656 36.453125 107.597656 36.621094 C 107.597656 36.746094 107.578125 36.867188 107.542969 36.988281 C 107.507812 37.105469 107.449219 37.214844 107.371094 37.316406 C 107.296875 37.410156 107.203125 37.496094 107.089844 37.566406 C 106.972656 37.632812 106.832031 37.679688 106.667969 37.707031 L 107.75 39.359375 Z M 107.078125 36.632812 C 107.078125 36.515625 107.058594 36.414062 107.015625 36.328125 C 106.976562 36.242188 106.917969 36.171875 106.839844 36.121094 C 106.769531 36.0625 106.679688 36.019531 106.570312 35.992188 C 106.460938 35.964844 106.335938 35.945312 106.203125 35.945312 L 104.976562 35.945312 L 104.976562 37.359375 L 106.222656 37.359375 C 106.375 37.359375 106.503906 37.34375 106.613281 37.304688 C 106.722656 37.269531 106.808594 37.21875 106.875 37.152344 C 106.945312 37.085938 106.996094 37.011719 107.023438 36.925781 C 107.058594 36.832031 107.078125 36.734375 107.078125 36.632812 Z M 107.078125 36.632812 "/>
<path style=" stroke:none;fill-rule:nonzero;fill:rgb(0%,0%,0%);fill-opacity:1;" d="M 108.59375 39.359375 L 108.59375 38.945312 L 109.570312 38.945312 L 109.570312 36 L 108.703125 36.609375 L 108.703125 36.152344 L 109.613281 35.535156 L 110.054688 35.535156 L 110.054688 38.945312 L 110.988281 38.945312 L 110.988281 39.359375 Z M 108.59375 39.359375 "/>
<path style="fill:none;stroke-width:0.0333333;stroke-linecap:butt;stroke-linejoin:miter;stroke:rgb(0%,0%,0%);stroke-opacity:1;stroke-miterlimit:10;" d="M 3.337606 1.063224 L 3.332195 1.044571 M 3.408843 1.052886 L 3.398248 1.01558 M 3.480306 1.042548 L 3.464075 0.986589 M 3.551544 1.032435 L 3.530127 0.957373 M 3.622781 1.022097 L 3.595954 0.928382 M 3.694244 1.011535 L 3.662007 0.899616 M 3.765482 1.001197 L 3.727834 0.8704 M 3.836719 0.990859 L 3.793887 0.84141 M 3.907957 0.980521 L 3.859714 0.812419 M 3.97942 0.970183 L 3.925766 0.783203 M 4.050657 0.959846 L 3.991593 0.754212 M 4.121895 0.949508 L 4.057646 0.725221 " transform="matrix(17.327586,0,0,17.38149,17.198602,17.058643)"/>
<path style="fill:none;stroke-width:0.0333333;stroke-linecap:butt;stroke-linejoin:miter;stroke:rgb(0%,0%,0%);stroke-opacity:1;stroke-miterlimit:10;" d="M 3.27268 1.080304 L 2.718786 0.504979 " transform="matrix(17.327586,0,0,17.38149,17.198602,17.058643)"/>
<path style="fill:none;stroke-width:0.0333333;stroke-linecap:butt;stroke-linejoin:miter;stroke:rgb(0%,0%,0%);stroke-opacity:1;stroke-miterlimit:10;" d="M 3.268397 1.064797 L 3.042962 2.008015 " transform="matrix(17.327586,0,0,17.38149,17.198602,17.058643)"/>
<path style="fill:none;stroke-width:0.0333333;stroke-linecap:butt;stroke-linejoin:miter;stroke:rgb(0%,0%,0%);stroke-opacity:1;stroke-miterlimit:10;" d="M 2.386945 0.398679 L 1.592285 0.625213 " transform="matrix(17.327586,0,0,17.38149,17.198602,17.058643)"/>
<path style="fill:none;stroke-width:0.0333333;stroke-linecap:butt;stroke-linejoin:miter;stroke:rgb(0%,0%,0%);stroke-opacity:1;stroke-miterlimit:10;" d="M 3.054684 1.995879 L 2.061416 2.27635 " transform="matrix(17.327586,0,0,17.38149,17.198602,17.058643)"/>
<path style="fill:none;stroke-width:0.0333333;stroke-linecap:butt;stroke-linejoin:miter;stroke:rgb(0%,0%,0%);stroke-opacity:1;stroke-miterlimit:10;" d="M 3.08895 2.056333 L 3.103604 2.041051 M 3.132459 2.113641 L 3.162217 2.083527 M 3.175968 2.171398 L 3.220605 2.126002 M 3.219703 2.228931 L 3.278992 2.168477 M 3.263212 2.286688 L 3.33738 2.210952 M 3.306721 2.344221 L 3.395993 2.253427 M 3.350455 2.401753 L 3.454381 2.295902 M 3.393964 2.45951 L 3.512769 2.338377 M 3.437699 2.517267 L 3.571157 2.380853 M 3.481208 2.574575 L 3.629544 2.423328 M 3.524717 2.632332 L 3.688157 2.465803 " transform="matrix(17.327586,0,0,17.38149,17.198602,17.058643)"/>
<path style="fill:none;stroke-width:0.0333333;stroke-linecap:butt;stroke-linejoin:miter;stroke:rgb(0%,0%,0%);stroke-opacity:1;stroke-miterlimit:10;" d="M 1.603782 0.613302 L 1.365046 1.592703 " transform="matrix(17.327586,0,0,17.38149,17.198602,17.058643)"/>
<path style=" stroke:none;fill-rule:nonzero;fill:rgb(0%,0%,0%);fill-opacity:1;" d="M 44.953125 27.882812 L 33.710938 15.40625 L 32.382812 16.9375 L 30.210938 17.894531 "/>
<path style=" stroke:none;fill-rule:nonzero;fill:rgb(0%,0%,0%);fill-opacity:1;" d="M 53.082031 56.578125 L 47.8125 69.945312 L 51.742188 70.890625 "/>
<path style="fill:none;stroke-width:0.0333333;stroke-linecap:butt;stroke-linejoin:miter;stroke:rgb(0%,0%,0%);stroke-opacity:1;stroke-miterlimit:10;" d="M 1.296514 1.593826 L 1.301925 1.612479 M 1.225953 1.603939 L 1.236774 1.64147 M 1.155392 1.614277 L 1.171623 1.670461 M 1.085056 1.624615 L 1.106472 1.699452 M 1.014269 1.634953 L 1.041321 1.728443 M 0.943708 1.645291 L 0.976171 1.757434 M 0.873147 1.655629 L 0.91102 1.786425 M 0.802585 1.665967 L 0.845869 1.815191 M 0.732024 1.676305 L 0.780718 1.844407 M 0.661463 1.686642 L 0.715567 1.873398 M 0.591127 1.696756 L 0.650416 1.902389 M 0.52034 1.707093 L 0.585266 1.93138 " transform="matrix(17.327586,0,0,17.38149,17.198602,17.058643)"/>
<path style="fill:none;stroke-width:0.0333333;stroke-linecap:butt;stroke-linejoin:miter;stroke:rgb(0%,0%,0%);stroke-opacity:1;stroke-miterlimit:10;" d="M 0.894112 -0.0042728 L 0.185794 0.306537 " transform="matrix(17.327586,0,0,17.38149,17.198602,17.058643)"/>
<path style="fill:none;stroke-width:0.0333333;stroke-linecap:butt;stroke-linejoin:miter;stroke:rgb(0%,0%,0%);stroke-opacity:1;stroke-miterlimit:10;" d="M 2.077648 2.280395 L 1.360312 1.576746 " transform="matrix(17.327586,0,0,17.38149,17.198602,17.058643)"/>
<path style="fill:none;stroke-width:0.0333333;stroke-linecap:butt;stroke-linejoin:miter;stroke:rgb(0%,0%,0%);stroke-opacity:1;stroke-miterlimit:10;" d="M 4.972012 1.070191 L 4.458245 0.860737 " transform="matrix(17.327586,0,0,17.38149,17.198602,17.058643)"/>
<path style=" stroke:none;fill-rule:nonzero;fill:rgb(0%,0%,0%);fill-opacity:1;" d="M 19.894531 160.945312 L 18.910156 159.359375 L 17.71875 159.359375 L 17.71875 160.945312 L 17.199219 160.945312 L 17.199219 157.125 L 18.996094 157.125 C 19.210938 157.125 19.402344 157.152344 19.570312 157.199219 C 19.734375 157.242188 19.875 157.3125 19.992188 157.40625 C 20.105469 157.5 20.191406 157.617188 20.25 157.753906 C 20.308594 157.890625 20.339844 158.042969 20.339844 158.210938 C 20.339844 158.335938 20.320312 158.457031 20.285156 158.578125 C 20.246094 158.695312 20.1875 158.804688 20.109375 158.90625 C 20.039062 159 19.941406 159.085938 19.828125 159.15625 C 19.710938 159.21875 19.570312 159.269531 19.40625 159.296875 L 20.488281 160.945312 Z M 19.820312 158.21875 C 19.820312 158.105469 19.796875 158.003906 19.753906 157.917969 C 19.714844 157.828125 19.660156 157.761719 19.582031 157.710938 C 19.507812 157.652344 19.417969 157.609375 19.308594 157.578125 C 19.199219 157.550781 19.078125 157.535156 18.941406 157.535156 L 17.71875 157.535156 L 17.71875 158.949219 L 18.960938 158.949219 C 19.113281 158.949219 19.246094 158.933594 19.351562 158.894531 C 19.460938 158.859375 19.546875 158.808594 19.613281 158.742188 C 19.683594 158.675781 19.734375 158.601562 19.765625 158.515625 C 19.800781 158.421875 19.820312 158.324219 19.820312 158.21875 Z M 19.820312 158.21875 "/>
<path style=" stroke:none;fill-rule:nonzero;fill:rgb(0%,0%,0%);fill-opacity:1;" d="M 21.332031 160.945312 L 21.332031 160.535156 L 22.308594 160.535156 L 22.308594 157.589844 L 21.441406 158.199219 L 21.441406 157.742188 L 22.351562 157.125 L 22.796875 157.125 L 22.796875 160.535156 L 23.726562 160.535156 L 23.726562 160.945312 Z M 21.332031 160.945312 "/>
<path style=" stroke:none;fill-rule:nonzero;fill:rgb(0%,0%,0%);fill-opacity:1;" d="M 24.390625 158.621094 L 24.390625 158.21875 L 27.089844 158.21875 L 27.089844 158.621094 Z M 24.390625 160.011719 L 24.390625 159.609375 L 27.089844 159.609375 L 27.089844 160.011719 Z M 24.390625 160.011719 "/>
<path style=" stroke:none;fill-rule:nonzero;fill:rgb(0%,0%,0%);fill-opacity:1;" d="M 17.199219 163.265625 L 17.199219 163.058594 L 18.355469 162.558594 L 17.199219 162.058594 L 17.199219 161.851562 L 18.539062 162.417969 L 18.539062 162.699219 Z M 17.199219 163.265625 "/>
<path style=" stroke:none;fill-rule:nonzero;fill:rgb(0%,0%,0%);fill-opacity:1;" d="M 20.175781 162.515625 C 20.175781 162.695312 20.15625 162.851562 20.121094 162.980469 C 20.089844 163.105469 20.046875 163.207031 19.980469 163.285156 C 19.921875 163.359375 19.851562 163.414062 19.773438 163.449219 C 19.691406 163.484375 19.605469 163.503906 19.515625 163.503906 C 19.417969 163.503906 19.332031 163.484375 19.253906 163.449219 C 19.171875 163.414062 19.101562 163.359375 19.039062 163.285156 C 18.976562 163.207031 18.933594 163.105469 18.898438 162.980469 C 18.867188 162.851562 18.855469 162.695312 18.855469 162.515625 C 18.855469 162.320312 18.867188 162.160156 18.898438 162.035156 C 18.933594 161.90625 18.976562 161.804688 19.039062 161.730469 C 19.101562 161.660156 19.171875 161.609375 19.253906 161.578125 C 19.332031 161.542969 19.421875 161.527344 19.523438 161.527344 C 19.613281 161.527344 19.691406 161.542969 19.773438 161.578125 C 19.851562 161.609375 19.921875 161.660156 19.980469 161.730469 C 20.046875 161.804688 20.089844 161.90625 20.121094 162.035156 C 20.15625 162.160156 20.175781 162.320312 20.175781 162.515625 Z M 19.9375 162.515625 C 19.9375 162.363281 19.925781 162.238281 19.902344 162.132812 C 19.886719 162.035156 19.863281 161.953125 19.828125 161.894531 C 19.789062 161.828125 19.746094 161.785156 19.699219 161.765625 C 19.648438 161.738281 19.589844 161.722656 19.523438 161.722656 C 19.453125 161.722656 19.390625 161.738281 19.339844 161.765625 C 19.289062 161.785156 19.246094 161.828125 19.210938 161.894531 C 19.171875 161.953125 19.144531 162.035156 19.125 162.132812 C 19.109375 162.238281 19.101562 162.363281 19.101562 162.515625 C 19.101562 162.660156 19.109375 162.78125 19.125 162.882812 C 19.144531 162.988281 19.171875 163.066406 19.210938 163.132812 C 19.246094 163.191406 19.289062 163.238281 19.339844 163.265625 C 19.390625 163.285156 19.449219 163.296875 19.515625 163.296875 C 19.578125 163.296875 19.636719 163.285156 19.6875 163.265625 C 19.738281 163.238281 19.78125 163.191406 19.816406 163.132812 C 19.851562 163.066406 19.882812 162.988281 19.902344 162.882812 C 19.925781 162.78125 19.9375 162.660156 19.9375 162.515625 Z M 19.9375 162.515625 "/>
<path style=" stroke:none;fill-rule:nonzero;fill:rgb(0%,0%,0%);fill-opacity:1;" d="M 131.085938 83.375 C 130.871094 83.375 130.675781 83.414062 130.511719 83.484375 C 130.34375 83.554688 130.203125 83.660156 130.089844 83.796875 C 129.980469 83.929688 129.898438 84.089844 129.839844 84.277344 C 129.78125 84.464844 129.753906 84.675781 129.753906 84.90625 C 129.753906 85.140625 129.78125 85.351562 129.839844 85.546875 C 129.90625 85.738281 129.996094 85.898438 130.109375 86.035156 C 130.226562 86.175781 130.367188 86.28125 130.535156 86.363281 C 130.707031 86.433594 130.894531 86.46875 131.109375 86.46875 C 131.257812 86.46875 131.390625 86.453125 131.507812 86.414062 C 131.628906 86.371094 131.742188 86.316406 131.84375 86.242188 C 131.945312 86.171875 132.03125 86.085938 132.105469 85.992188 C 132.183594 85.898438 132.25 85.792969 132.308594 85.667969 L 132.730469 85.882812 C 132.667969 86.03125 132.582031 86.164062 132.484375 86.285156 C 132.378906 86.410156 132.261719 86.519531 132.125 86.613281 C 131.988281 86.699219 131.832031 86.769531 131.660156 86.816406 C 131.488281 86.867188 131.292969 86.894531 131.085938 86.894531 C 130.773438 86.894531 130.503906 86.84375 130.273438 86.753906 C 130.039062 86.652344 129.847656 86.511719 129.6875 86.339844 C 129.539062 86.160156 129.421875 85.949219 129.34375 85.710938 C 129.261719 85.464844 129.222656 85.195312 129.222656 84.90625 C 129.222656 84.609375 129.261719 84.339844 129.34375 84.101562 C 129.429688 83.859375 129.550781 83.652344 129.710938 83.484375 C 129.867188 83.316406 130.0625 83.1875 130.296875 83.089844 C 130.527344 83 130.789062 82.949219 131.085938 82.949219 C 131.488281 82.949219 131.824219 83.03125 132.09375 83.1875 C 132.367188 83.351562 132.570312 83.589844 132.699219 83.90625 L 132.210938 84.070312 C 132.175781 83.976562 132.125 83.890625 132.0625 83.808594 C 132 83.722656 131.925781 83.652344 131.832031 83.589844 C 131.738281 83.527344 131.628906 83.476562 131.507812 83.4375 C 131.382812 83.394531 131.242188 83.375 131.085938 83.375 Z M 131.085938 83.375 "/>
<path style=" stroke:none;fill-rule:nonzero;fill:rgb(0%,0%,0%);fill-opacity:1;" d="M 133.964844 84.40625 C 134.023438 84.304688 134.078125 84.222656 134.140625 84.15625 C 134.203125 84.085938 134.273438 84.027344 134.34375 83.984375 C 134.421875 83.933594 134.507812 83.894531 134.59375 83.875 C 134.6875 83.851562 134.792969 83.839844 134.90625 83.839844 C 135.09375 83.839844 135.246094 83.867188 135.363281 83.917969 C 135.484375 83.96875 135.578125 84.042969 135.644531 84.132812 C 135.714844 84.230469 135.765625 84.339844 135.796875 84.472656 C 135.824219 84.597656 135.839844 84.730469 135.839844 84.882812 L 135.839844 86.839844 L 135.339844 86.839844 L 135.339844 84.972656 C 135.339844 84.847656 135.332031 84.738281 135.320312 84.644531 C 135.304688 84.554688 135.277344 84.476562 135.234375 84.417969 C 135.191406 84.351562 135.128906 84.304688 135.046875 84.277344 C 134.96875 84.242188 134.867188 84.222656 134.746094 84.222656 C 134.628906 84.222656 134.523438 84.242188 134.429688 84.285156 C 134.335938 84.332031 134.257812 84.390625 134.191406 84.472656 C 134.128906 84.542969 134.078125 84.632812 134.042969 84.742188 C 134.003906 84.851562 133.988281 84.972656 133.988281 85.101562 L 133.988281 86.839844 L 133.5 86.839844 L 133.5 82.808594 L 133.988281 82.808594 L 133.988281 83.851562 C 133.988281 83.917969 133.980469 83.980469 133.976562 84.035156 C 133.976562 84.097656 133.972656 84.152344 133.964844 84.199219 C 133.964844 84.25 133.964844 84.292969 133.964844 84.332031 C 133.964844 84.367188 133.964844 84.390625 133.964844 84.40625 Z M 133.964844 84.40625 "/>
<path style=" stroke:none;fill-rule:nonzero;fill:rgb(0%,0%,0%);fill-opacity:1;" d="M 136.6875 83.277344 L 136.6875 82.808594 L 137.175781 82.808594 L 137.175781 83.277344 Z M 136.6875 86.839844 L 136.6875 83.894531 L 137.175781 83.894531 L 137.175781 86.839844 Z M 136.6875 86.839844 "/>
<path style=" stroke:none;fill-rule:nonzero;fill:rgb(0%,0%,0%);fill-opacity:1;" d="M 137.992188 86.839844 L 137.992188 84.578125 C 137.992188 84.523438 137.988281 84.460938 137.980469 84.394531 C 137.980469 84.332031 137.980469 84.269531 137.980469 84.210938 C 137.980469 84.152344 137.976562 84.097656 137.972656 84.046875 C 137.972656 83.992188 137.972656 83.9375 137.972656 83.894531 L 138.4375 83.894531 C 138.4375 83.9375 138.4375 83.992188 138.4375 84.046875 C 138.441406 84.097656 138.449219 84.152344 138.449219 84.210938 C 138.449219 84.261719 138.449219 84.316406 138.449219 84.375 C 138.453125 84.425781 138.457031 84.46875 138.457031 84.503906 L 138.46875 84.503906 C 138.496094 84.390625 138.527344 84.292969 138.566406 84.210938 C 138.609375 84.125 138.65625 84.054688 138.707031 84.003906 C 138.765625 83.957031 138.828125 83.914062 138.902344 83.882812 C 138.972656 83.859375 139.058594 83.839844 139.164062 83.839844 C 139.199219 83.839844 139.234375 83.847656 139.269531 83.851562 C 139.304688 83.859375 139.335938 83.867188 139.355469 83.875 L 139.355469 84.320312 C 139.328125 84.3125 139.292969 84.308594 139.25 84.308594 C 139.207031 84.304688 139.152344 84.296875 139.097656 84.296875 C 138.988281 84.296875 138.894531 84.324219 138.816406 84.375 C 138.734375 84.425781 138.667969 84.492188 138.621094 84.578125 C 138.570312 84.667969 138.535156 84.777344 138.511719 84.90625 C 138.492188 85.03125 138.480469 85.164062 138.480469 85.308594 L 138.480469 86.839844 Z M 137.992188 86.839844 "/>
<path style=" stroke:none;fill-rule:nonzero;fill:rgb(0%,0%,0%);fill-opacity:1;" d="M 140.652344 86.894531 C 140.351562 86.894531 140.132812 86.816406 139.980469 86.664062 C 139.832031 86.507812 139.761719 86.289062 139.761719 86.015625 C 139.761719 85.828125 139.796875 85.671875 139.871094 85.546875 C 139.941406 85.417969 140.035156 85.320312 140.152344 85.253906 C 140.273438 85.183594 140.414062 85.132812 140.566406 85.101562 C 140.714844 85.074219 140.871094 85.058594 141.03125 85.058594 L 141.679688 85.046875 L 141.679688 84.882812 C 141.679688 84.761719 141.664062 84.660156 141.636719 84.578125 C 141.613281 84.492188 141.578125 84.425781 141.527344 84.375 C 141.476562 84.316406 141.410156 84.277344 141.332031 84.253906 C 141.253906 84.230469 141.160156 84.222656 141.050781 84.222656 C 140.957031 84.222656 140.871094 84.230469 140.792969 84.242188 C 140.71875 84.25 140.652344 84.273438 140.597656 84.308594 C 140.546875 84.347656 140.503906 84.394531 140.46875 84.460938 C 140.429688 84.519531 140.40625 84.597656 140.402344 84.6875 L 139.894531 84.632812 C 139.90625 84.519531 139.9375 84.414062 139.992188 84.320312 C 140.039062 84.226562 140.113281 84.144531 140.207031 84.070312 C 140.300781 84 140.414062 83.945312 140.554688 83.90625 C 140.699219 83.863281 140.867188 83.839844 141.0625 83.839844 C 141.429688 83.839844 141.707031 83.929688 141.898438 84.101562 C 142.082031 84.269531 142.179688 84.511719 142.179688 84.828125 L 142.179688 86.101562 C 142.179688 86.246094 142.195312 86.355469 142.234375 86.425781 C 142.269531 86.5 142.339844 86.535156 142.449219 86.535156 C 142.476562 86.535156 142.503906 86.535156 142.523438 86.535156 C 142.550781 86.53125 142.582031 86.523438 142.613281 86.511719 L 142.613281 86.816406 C 142.546875 86.839844 142.484375 86.851562 142.425781 86.859375 C 142.367188 86.867188 142.304688 86.871094 142.234375 86.871094 C 142.136719 86.871094 142.058594 86.859375 141.996094 86.839844 C 141.929688 86.8125 141.875 86.773438 141.832031 86.71875 C 141.792969 86.671875 141.765625 86.609375 141.746094 86.535156 C 141.722656 86.464844 141.707031 86.378906 141.703125 86.273438 L 141.679688 86.273438 C 141.628906 86.371094 141.570312 86.457031 141.507812 86.535156 C 141.449219 86.609375 141.375 86.675781 141.289062 86.730469 C 141.210938 86.78125 141.117188 86.824219 141.007812 86.851562 C 140.90625 86.878906 140.785156 86.894531 140.652344 86.894531 Z M 140.757812 86.523438 C 140.910156 86.523438 141.042969 86.496094 141.160156 86.4375 C 141.28125 86.378906 141.378906 86.308594 141.453125 86.21875 C 141.53125 86.132812 141.589844 86.042969 141.625 85.9375 C 141.660156 85.828125 141.679688 85.730469 141.679688 85.632812 L 141.679688 85.382812 L 141.148438 85.394531 C 141.03125 85.402344 140.921875 85.414062 140.8125 85.425781 C 140.707031 85.445312 140.609375 85.472656 140.519531 85.515625 C 140.441406 85.558594 140.375 85.621094 140.328125 85.710938 C 140.28125 85.792969 140.261719 85.894531 140.261719 86.023438 C 140.261719 86.183594 140.304688 86.308594 140.390625 86.394531 C 140.476562 86.480469 140.601562 86.523438 140.757812 86.523438 Z M 140.757812 86.523438 "/>
<path style=" stroke:none;fill-rule:nonzero;fill:rgb(0%,0%,0%);fill-opacity:1;" d="M 143.113281 86.839844 L 143.113281 82.808594 L 143.601562 82.808594 L 143.601562 86.839844 Z M 143.113281 86.839844 "/>
<path style=" stroke:none;fill-rule:nonzero;fill:rgb(0%,0%,0%);fill-opacity:1;" d="M 113.5 145.503906 L 111.453125 142.242188 C 111.457031 142.328125 111.460938 142.417969 111.460938 142.503906 C 111.46875 142.578125 111.472656 142.65625 111.472656 142.742188 C 111.480469 142.824219 111.484375 142.894531 111.484375 142.960938 L 111.484375 145.503906 L 111.019531 145.503906 L 111.019531 141.679688 L 111.625 141.679688 L 113.683594 144.957031 C 113.683594 144.957031 113.675781 144.871094 113.671875 144.6875 C 113.664062 144.617188 113.65625 144.535156 113.648438 144.449219 C 113.648438 144.355469 113.648438 144.269531 113.648438 144.1875 L 113.648438 141.679688 L 114.117188 141.679688 L 114.117188 145.503906 Z M 113.5 145.503906 "/>
<path style=" stroke:none;fill-rule:nonzero;fill:rgb(0%,0%,0%);fill-opacity:1;" d="M 100.863281 170.859375 C 100.863281 171.160156 100.820312 171.429688 100.734375 171.675781 C 100.644531 171.921875 100.519531 172.132812 100.355469 172.304688 C 100.195312 172.480469 99.996094 172.613281 99.757812 172.707031 C 99.523438 172.800781 99.261719 172.847656 98.96875 172.847656 C 98.648438 172.847656 98.371094 172.800781 98.132812 172.707031 C 97.902344 172.605469 97.707031 172.46875 97.550781 172.292969 C 97.390625 172.113281 97.269531 171.902344 97.191406 171.664062 C 97.109375 171.417969 97.074219 171.152344 97.074219 170.859375 C 97.074219 170.5625 97.109375 170.296875 97.191406 170.054688 C 97.277344 169.8125 97.398438 169.605469 97.558594 169.4375 C 97.726562 169.269531 97.921875 169.140625 98.15625 169.046875 C 98.394531 168.953125 98.664062 168.90625 98.96875 168.90625 C 99.269531 168.90625 99.542969 168.953125 99.78125 169.046875 C 100.019531 169.140625 100.214844 169.273438 100.375 169.449219 C 100.53125 169.617188 100.652344 169.816406 100.734375 170.054688 C 100.820312 170.296875 100.863281 170.5625 100.863281 170.859375 Z M 100.332031 170.859375 C 100.332031 170.628906 100.300781 170.421875 100.246094 170.230469 C 100.1875 170.042969 100.097656 169.882812 99.984375 169.753906 C 99.871094 169.617188 99.726562 169.511719 99.550781 169.4375 C 99.382812 169.367188 99.191406 169.328125 98.96875 169.328125 C 98.742188 169.328125 98.546875 169.367188 98.371094 169.4375 C 98.199219 169.511719 98.050781 169.617188 97.9375 169.753906 C 97.832031 169.882812 97.746094 170.042969 97.691406 170.230469 C 97.628906 170.421875 97.601562 170.628906 97.601562 170.859375 C 97.601562 171.09375 97.628906 171.304688 97.691406 171.5 C 97.746094 171.691406 97.832031 171.855469 97.949219 171.988281 C 98.0625 172.128906 98.203125 172.238281 98.371094 172.316406 C 98.546875 172.390625 98.742188 172.425781 98.96875 172.425781 C 99.207031 172.425781 99.410156 172.390625 99.585938 172.316406 C 99.757812 172.238281 99.898438 172.128906 100.007812 171.988281 C 100.117188 171.847656 100.195312 171.679688 100.246094 171.488281 C 100.300781 171.292969 100.332031 171.085938 100.332031 170.859375 Z M 100.332031 170.859375 "/>
<path style=" stroke:none;fill-rule:nonzero;fill:rgb(0%,0%,0%);fill-opacity:1;" d="M 145.496094 165.375 C 145.496094 165.671875 145.453125 165.945312 145.363281 166.1875 C 145.277344 166.4375 145.152344 166.644531 144.984375 166.820312 C 144.824219 166.992188 144.628906 167.128906 144.390625 167.222656 C 144.15625 167.3125 143.894531 167.363281 143.601562 167.363281 C 143.28125 167.363281 143.003906 167.3125 142.765625 167.222656 C 142.53125 167.121094 142.339844 166.980469 142.179688 166.808594 C 142.019531 166.628906 141.902344 166.417969 141.824219 166.179688 C 141.742188 165.933594 141.703125 165.664062 141.703125 165.375 C 141.703125 165.078125 141.742188 164.808594 141.824219 164.570312 C 141.910156 164.324219 142.03125 164.121094 142.191406 163.949219 C 142.355469 163.785156 142.554688 163.65625 142.789062 163.558594 C 143.027344 163.46875 143.296875 163.417969 143.601562 163.417969 C 143.902344 163.417969 144.171875 163.46875 144.410156 163.558594 C 144.648438 163.65625 144.847656 163.789062 145.007812 163.960938 C 145.164062 164.128906 145.285156 164.332031 145.363281 164.570312 C 145.453125 164.808594 145.496094 165.078125 145.496094 165.375 Z M 144.964844 165.375 C 144.964844 165.144531 144.933594 164.933594 144.878906 164.742188 C 144.816406 164.554688 144.730469 164.394531 144.617188 164.265625 C 144.5 164.128906 144.359375 164.023438 144.183594 163.949219 C 144.015625 163.878906 143.820312 163.84375 143.601562 163.84375 C 143.375 163.84375 143.175781 163.878906 143.003906 163.949219 C 142.832031 164.023438 142.683594 164.128906 142.570312 164.265625 C 142.460938 164.394531 142.378906 164.554688 142.320312 164.742188 C 142.261719 164.933594 142.234375 165.144531 142.234375 165.375 C 142.234375 165.609375 142.261719 165.820312 142.320312 166.015625 C 142.378906 166.203125 142.464844 166.367188 142.582031 166.503906 C 142.695312 166.640625 142.835938 166.75 143.003906 166.828125 C 143.175781 166.902344 143.375 166.9375 143.601562 166.9375 C 143.839844 166.9375 144.042969 166.902344 144.21875 166.828125 C 144.390625 166.75 144.53125 166.640625 144.640625 166.503906 C 144.746094 166.359375 144.824219 166.195312 144.878906 166.003906 C 144.933594 165.808594 144.964844 165.597656 144.964844 165.375 Z M 144.964844 165.375 "/>
<path style=" stroke:none;fill-rule:nonzero;fill:rgb(0%,0%,0%);fill-opacity:1;" d="M 128.039062 119.234375 L 125.992188 115.976562 C 125.996094 116.0625 126 116.148438 126 116.234375 C 126.007812 116.308594 126.011719 116.386719 126.011719 116.476562 C 126.015625 116.554688 126.023438 116.628906 126.023438 116.691406 L 126.023438 119.234375 L 125.558594 119.234375 L 125.558594 115.410156 L 126.164062 115.410156 L 128.222656 118.691406 C 128.222656 118.691406 128.214844 118.601562 128.210938 118.417969 C 128.203125 118.347656 128.195312 118.265625 128.1875 118.179688 C 128.1875 118.089844 128.1875 118 128.1875 117.917969 L 128.1875 115.410156 L 128.65625 115.410156 L 128.65625 119.234375 Z M 128.039062 119.234375 "/>
<path style=" stroke:none;fill-rule:nonzero;fill:rgb(0%,0%,0%);fill-opacity:1;" d="M 144.246094 143.339844 C 144.246094 143.640625 144.203125 143.910156 144.117188 144.15625 C 144.03125 144.402344 143.902344 144.609375 143.738281 144.785156 C 143.578125 144.957031 143.378906 145.09375 143.140625 145.1875 C 142.910156 145.28125 142.648438 145.328125 142.351562 145.328125 C 142.03125 145.328125 141.757812 145.28125 141.519531 145.1875 C 141.285156 145.085938 141.089844 144.949219 140.933594 144.773438 C 140.773438 144.59375 140.652344 144.382812 140.574219 144.144531 C 140.496094 143.898438 140.457031 143.628906 140.457031 143.339844 C 140.457031 143.042969 140.496094 142.773438 140.574219 142.535156 C 140.660156 142.292969 140.785156 142.085938 140.945312 141.917969 C 141.109375 141.75 141.304688 141.621094 141.539062 141.527344 C 141.777344 141.433594 142.046875 141.386719 142.351562 141.386719 C 142.65625 141.386719 142.925781 141.433594 143.164062 141.527344 C 143.402344 141.621094 143.601562 141.753906 143.757812 141.929688 C 143.917969 142.097656 144.035156 142.296875 144.117188 142.535156 C 144.203125 142.773438 144.246094 143.042969 144.246094 143.339844 Z M 143.714844 143.339844 C 143.714844 143.109375 143.6875 142.898438 143.628906 142.710938 C 143.570312 142.523438 143.484375 142.363281 143.371094 142.230469 C 143.253906 142.097656 143.109375 141.992188 142.9375 141.917969 C 142.769531 141.847656 142.574219 141.808594 142.351562 141.808594 C 142.125 141.808594 141.929688 141.847656 141.757812 141.917969 C 141.582031 141.992188 141.4375 142.097656 141.324219 142.230469 C 141.214844 142.363281 141.128906 142.523438 141.074219 142.710938 C 141.015625 142.898438 140.988281 143.109375 140.988281 143.339844 C 140.988281 143.574219 141.015625 143.785156 141.074219 143.980469 C 141.128906 144.171875 141.21875 144.335938 141.332031 144.46875 C 141.445312 144.609375 141.589844 144.71875 141.757812 144.796875 C 141.929688 144.871094 142.125 144.90625 142.351562 144.90625 C 142.589844 144.90625 142.796875 144.871094 142.96875 144.796875 C 143.140625 144.71875 143.28125 144.609375 143.390625 144.46875 C 143.5 144.324219 143.578125 144.160156 143.628906 143.96875 C 143.6875 143.773438 143.714844 143.566406 143.714844 143.339844 Z M 143.714844 143.339844 "/>
<path style=" stroke:none;fill-rule:nonzero;fill:rgb(0%,0%,0%);fill-opacity:1;" d="M 133.769531 201.757812 C 133.769531 202.058594 133.726562 202.328125 133.640625 202.574219 C 133.550781 202.820312 133.425781 203.03125 133.261719 203.203125 C 133.101562 203.378906 132.902344 203.511719 132.664062 203.605469 C 132.429688 203.699219 132.167969 203.746094 131.875 203.746094 C 131.554688 203.746094 131.277344 203.699219 131.039062 203.605469 C 130.808594 203.503906 130.613281 203.367188 130.453125 203.191406 C 130.296875 203.011719 130.175781 202.800781 130.097656 202.5625 C 130.015625 202.316406 129.980469 202.050781 129.980469 201.757812 C 129.980469 201.460938 130.015625 201.195312 130.097656 200.953125 C 130.183594 200.710938 130.304688 200.503906 130.464844 200.335938 C 130.632812 200.167969 130.828125 200.039062 131.0625 199.945312 C 131.300781 199.851562 131.570312 199.804688 131.875 199.804688 C 132.175781 199.804688 132.449219 199.851562 132.6875 199.945312 C 132.925781 200.039062 133.121094 200.171875 133.28125 200.347656 C 133.4375 200.515625 133.558594 200.714844 133.640625 200.953125 C 133.726562 201.195312 133.769531 201.460938 133.769531 201.757812 Z M 133.238281 201.757812 C 133.238281 201.527344 133.207031 201.320312 133.152344 201.128906 C 133.09375 200.941406 133.003906 200.78125 132.890625 200.648438 C 132.773438 200.515625 132.632812 200.410156 132.457031 200.335938 C 132.289062 200.265625 132.097656 200.226562 131.875 200.226562 C 131.648438 200.226562 131.453125 200.265625 131.277344 200.335938 C 131.105469 200.410156 130.957031 200.515625 130.84375 200.648438 C 130.738281 200.78125 130.652344 200.941406 130.597656 201.128906 C 130.535156 201.320312 130.507812 201.527344 130.507812 201.757812 C 130.507812 201.992188 130.535156 202.203125 130.597656 202.398438 C 130.652344 202.589844 130.738281 202.753906 130.855469 202.886719 C 130.96875 203.027344 131.109375 203.136719 131.277344 203.214844 C 131.453125 203.289062 131.648438 203.324219 131.875 203.324219 C 132.113281 203.324219 132.316406 203.289062 132.492188 203.214844 C 132.664062 203.136719 132.804688 203.027344 132.914062 202.886719 C 133.023438 202.746094 133.101562 202.578125 133.152344 202.386719 C 133.207031 202.191406 133.238281 201.984375 133.238281 201.757812 Z M 133.238281 201.757812 "/>
<path style=" stroke:none;fill-rule:nonzero;fill:rgb(0%,0%,0%);fill-opacity:1;" d="M 79.128906 200.113281 C 79.128906 200.410156 79.085938 200.683594 78.996094 200.925781 C 78.910156 201.175781 78.785156 201.382812 78.617188 201.558594 C 78.457031 201.730469 78.261719 201.867188 78.023438 201.960938 C 77.789062 202.050781 77.527344 202.101562 77.230469 202.101562 C 76.914062 202.101562 76.636719 202.050781 76.398438 201.960938 C 76.164062 201.859375 75.96875 201.71875 75.8125 201.546875 C 75.652344 201.367188 75.535156 201.15625 75.457031 200.917969 C 75.375 200.671875 75.335938 200.402344 75.335938 200.113281 C 75.335938 199.816406 75.375 199.546875 75.457031 199.308594 C 75.542969 199.0625 75.664062 198.859375 75.824219 198.6875 C 75.988281 198.523438 76.1875 198.394531 76.421875 198.296875 C 76.660156 198.207031 76.929688 198.15625 77.230469 198.15625 C 77.535156 198.15625 77.804688 198.207031 78.042969 198.296875 C 78.28125 198.394531 78.480469 198.527344 78.640625 198.699219 C 78.796875 198.867188 78.917969 199.070312 78.996094 199.308594 C 79.085938 199.546875 79.128906 199.816406 79.128906 200.113281 Z M 78.597656 200.113281 C 78.597656 199.882812 78.566406 199.671875 78.511719 199.484375 C 78.449219 199.296875 78.363281 199.136719 78.25 199.003906 C 78.132812 198.867188 77.992188 198.761719 77.816406 198.6875 C 77.648438 198.617188 77.453125 198.582031 77.230469 198.582031 C 77.007812 198.582031 76.808594 198.617188 76.636719 198.6875 C 76.464844 198.761719 76.316406 198.867188 76.203125 199.003906 C 76.09375 199.136719 76.011719 199.296875 75.953125 199.484375 C 75.894531 199.671875 75.867188 199.882812 75.867188 200.113281 C 75.867188 200.347656 75.894531 200.558594 75.953125 200.753906 C 76.011719 200.945312 76.097656 201.105469 76.214844 201.242188 C 76.328125 201.378906 76.46875 201.488281 76.636719 201.566406 C 76.808594 201.640625 77.007812 201.675781 77.230469 201.675781 C 77.46875 201.675781 77.675781 201.640625 77.847656 201.566406 C 78.023438 201.488281 78.164062 201.378906 78.273438 201.242188 C 78.378906 201.097656 78.457031 200.933594 78.511719 200.742188 C 78.566406 200.546875 78.597656 200.339844 78.597656 200.113281 Z M 78.597656 200.113281 "/>
<path style=" stroke:none;fill-rule:nonzero;fill:rgb(0%,0%,0%);fill-opacity:1;" d="M 113.992188 90.960938 C 113.992188 91.257812 113.949219 91.53125 113.863281 91.773438 C 113.777344 92.019531 113.648438 92.230469 113.484375 92.40625 C 113.324219 92.578125 113.128906 92.714844 112.890625 92.804688 C 112.65625 92.898438 112.394531 92.949219 112.097656 92.949219 C 111.777344 92.949219 111.503906 92.898438 111.265625 92.804688 C 111.03125 92.707031 110.835938 92.566406 110.679688 92.394531 C 110.519531 92.214844 110.402344 92.003906 110.324219 91.761719 C 110.242188 91.519531 110.203125 91.25 110.203125 90.960938 C 110.203125 90.664062 110.242188 90.394531 110.324219 90.15625 C 110.410156 89.910156 110.53125 89.703125 110.691406 89.535156 C 110.855469 89.371094 111.054688 89.242188 111.285156 89.144531 C 111.523438 89.054688 111.796875 89.003906 112.097656 89.003906 C 112.402344 89.003906 112.671875 89.054688 112.910156 89.144531 C 113.148438 89.242188 113.347656 89.375 113.507812 89.546875 C 113.664062 89.714844 113.78125 89.917969 113.863281 90.15625 C 113.949219 90.394531 113.992188 90.664062 113.992188 90.960938 Z M 113.464844 90.960938 C 113.464844 90.730469 113.433594 90.519531 113.375 90.328125 C 113.316406 90.140625 113.230469 89.980469 113.117188 89.851562 C 113 89.714844 112.855469 89.609375 112.683594 89.535156 C 112.515625 89.464844 112.320312 89.429688 112.097656 89.429688 C 111.875 89.429688 111.675781 89.464844 111.503906 89.535156 C 111.328125 89.609375 111.183594 89.714844 111.070312 89.851562 C 110.960938 89.980469 110.878906 90.140625 110.820312 90.328125 C 110.761719 90.519531 110.734375 90.730469 110.734375 90.960938 C 110.734375 91.191406 110.761719 91.40625 110.820312 91.601562 C 110.878906 91.789062 110.964844 91.953125 111.082031 92.089844 C 111.195312 92.226562 111.335938 92.335938 111.503906 92.414062 C 111.675781 92.488281 111.875 92.523438 112.097656 92.523438 C 112.335938 92.523438 112.542969 92.488281 112.714844 92.414062 C 112.890625 92.335938 113.03125 92.226562 113.136719 92.089844 C 113.246094 91.945312 113.324219 91.78125 113.375 91.589844 C 113.433594 91.394531 113.464844 91.183594 113.464844 90.960938 Z M 113.464844 90.960938 "/>
<path style=" stroke:none;fill-rule:nonzero;fill:rgb(0%,0%,0%);fill-opacity:1;" d="M 69.410156 212.539062 C 69.410156 212.707031 69.378906 212.863281 69.324219 213.007812 C 69.265625 213.144531 69.183594 213.269531 69.074219 213.375 C 68.964844 213.484375 68.828125 213.574219 68.664062 213.636719 C 68.503906 213.699219 68.3125 213.722656 68.089844 213.722656 L 66.972656 213.722656 L 66.972656 215.210938 L 66.453125 215.210938 L 66.453125 211.390625 L 68.058594 211.390625 C 68.285156 211.390625 68.484375 211.417969 68.652344 211.476562 C 68.816406 211.527344 68.957031 211.601562 69.0625 211.703125 C 69.175781 211.808594 69.265625 211.929688 69.324219 212.074219 C 69.378906 212.210938 69.410156 212.367188 69.410156 212.539062 Z M 68.890625 212.539062 C 68.890625 212.300781 68.816406 212.121094 68.664062 211.996094 C 68.515625 211.867188 68.296875 211.800781 68.003906 211.800781 L 66.972656 211.800781 L 66.972656 213.3125 L 68.023438 213.3125 C 68.320312 213.3125 68.535156 213.246094 68.675781 213.117188 C 68.816406 212.980469 68.890625 212.789062 68.890625 212.539062 Z M 68.890625 212.539062 "/>
<path style=" stroke:none;fill-rule:nonzero;fill:rgb(0%,0%,0%);fill-opacity:1;" d="M 53.644531 207.011719 C 53.644531 207.308594 53.601562 207.582031 53.515625 207.824219 C 53.429688 208.074219 53.300781 208.28125 53.136719 208.457031 C 52.976562 208.628906 52.777344 208.765625 52.539062 208.859375 C 52.308594 208.949219 52.046875 209 51.75 209 C 51.429688 209 51.152344 208.949219 50.917969 208.859375 C 50.683594 208.757812 50.488281 208.617188 50.332031 208.445312 C 50.171875 208.265625 50.050781 208.054688 49.972656 207.816406 C 49.894531 207.570312 49.855469 207.300781 49.855469 207.011719 C 49.855469 206.714844 49.894531 206.445312 49.972656 206.207031 C 50.058594 205.960938 50.183594 205.757812 50.34375 205.585938 C 50.507812 205.421875 50.703125 205.292969 50.9375 205.195312 C 51.175781 205.105469 51.445312 205.054688 51.75 205.054688 C 52.054688 205.054688 52.324219 205.105469 52.5625 205.195312 C 52.800781 205.292969 53 205.425781 53.15625 205.597656 C 53.316406 205.765625 53.433594 205.96875 53.515625 206.207031 C 53.601562 206.445312 53.644531 206.714844 53.644531 207.011719 Z M 53.113281 207.011719 C 53.113281 206.78125 53.085938 206.570312 53.027344 206.378906 C 52.96875 206.191406 52.882812 206.03125 52.769531 205.902344 C 52.652344 205.765625 52.507812 205.660156 52.335938 205.585938 C 52.167969 205.515625 51.972656 205.480469 51.75 205.480469 C 51.523438 205.480469 51.328125 205.515625 51.152344 205.585938 C 50.980469 205.660156 50.835938 205.765625 50.722656 205.902344 C 50.613281 206.03125 50.527344 206.191406 50.472656 206.378906 C 50.414062 206.570312 50.386719 206.78125 50.386719 207.011719 C 50.386719 207.246094 50.414062 207.457031 50.472656 207.652344 C 50.527344 207.84375 50.617188 208.003906 50.730469 208.140625 C 50.84375 208.277344 50.988281 208.386719 51.152344 208.464844 C 51.328125 208.539062 51.523438 208.574219 51.75 208.574219 C 51.988281 208.574219 52.195312 208.539062 52.367188 208.464844 C 52.539062 208.386719 52.679688 208.277344 52.789062 208.140625 C 52.898438 207.996094 52.976562 207.832031 53.027344 207.640625 C 53.085938 207.445312 53.113281 207.234375 53.113281 207.011719 Z M 53.113281 207.011719 "/>
<path style=" stroke:none;fill-rule:nonzero;fill:rgb(0%,0%,0%);fill-opacity:1;" d="M 79.597656 226.378906 C 79.597656 226.679688 79.554688 226.949219 79.46875 227.195312 C 79.382812 227.441406 79.253906 227.652344 79.089844 227.824219 C 78.929688 228 78.730469 228.136719 78.492188 228.226562 C 78.261719 228.320312 78 228.367188 77.703125 228.367188 C 77.382812 228.367188 77.109375 228.320312 76.871094 228.226562 C 76.636719 228.125 76.441406 227.988281 76.285156 227.8125 C 76.125 227.636719 76.003906 227.421875 75.925781 227.183594 C 75.847656 226.941406 75.808594 226.671875 75.808594 226.378906 C 75.808594 226.085938 75.847656 225.816406 75.925781 225.578125 C 76.015625 225.332031 76.136719 225.125 76.296875 224.957031 C 76.460938 224.792969 76.660156 224.660156 76.890625 224.566406 C 77.128906 224.472656 77.398438 224.425781 77.703125 224.425781 C 78.007812 224.425781 78.277344 224.472656 78.515625 224.566406 C 78.753906 224.660156 78.953125 224.792969 79.109375 224.96875 C 79.269531 225.136719 79.386719 225.335938 79.46875 225.578125 C 79.554688 225.816406 79.597656 226.085938 79.597656 226.378906 Z M 79.066406 226.378906 C 79.066406 226.148438 79.039062 225.941406 78.980469 225.75 C 78.921875 225.5625 78.835938 225.402344 78.722656 225.273438 C 78.605469 225.136719 78.460938 225.03125 78.289062 224.957031 C 78.121094 224.886719 77.925781 224.847656 77.703125 224.847656 C 77.480469 224.847656 77.28125 224.886719 77.109375 224.957031 C 76.933594 225.03125 76.789062 225.136719 76.675781 225.273438 C 76.566406 225.402344 76.480469 225.5625 76.425781 225.75 C 76.367188 225.941406 76.339844 226.148438 76.339844 226.378906 C 76.339844 226.613281 76.367188 226.824219 76.425781 227.019531 C 76.480469 227.210938 76.570312 227.375 76.683594 227.511719 C 76.800781 227.648438 76.941406 227.757812 77.109375 227.835938 C 77.28125 227.910156 77.480469 227.945312 77.703125 227.945312 C 77.941406 227.945312 78.148438 227.910156 78.320312 227.835938 C 78.492188 227.757812 78.632812 227.648438 78.742188 227.511719 C 78.851562 227.367188 78.929688 227.199219 78.980469 227.011719 C 79.039062 226.816406 79.066406 226.605469 79.066406 226.378906 Z M 79.066406 226.378906 "/>
<path style=" stroke:none;fill-rule:nonzero;fill:rgb(0%,0%,0%);fill-opacity:1;" d="M 62.710938 229.046875 C 62.710938 229.347656 62.667969 229.617188 62.582031 229.863281 C 62.496094 230.109375 62.367188 230.316406 62.203125 230.492188 C 62.042969 230.664062 61.847656 230.800781 61.609375 230.894531 C 61.375 230.988281 61.113281 231.035156 60.816406 231.035156 C 60.496094 231.035156 60.222656 230.988281 59.984375 230.894531 C 59.75 230.792969 59.554688 230.65625 59.398438 230.480469 C 59.238281 230.300781 59.121094 230.089844 59.042969 229.851562 C 58.960938 229.605469 58.921875 229.339844 58.921875 229.046875 C 58.921875 228.75 58.960938 228.480469 59.042969 228.242188 C 59.128906 228 59.25 227.792969 59.410156 227.625 C 59.574219 227.457031 59.773438 227.328125 60.003906 227.234375 C 60.242188 227.140625 60.515625 227.09375 60.816406 227.09375 C 61.121094 227.09375 61.390625 227.140625 61.628906 227.234375 C 61.867188 227.328125 62.066406 227.460938 62.226562 227.636719 C 62.382812 227.804688 62.5 228.003906 62.582031 228.242188 C 62.667969 228.480469 62.710938 228.75 62.710938 229.046875 Z M 62.183594 229.046875 C 62.183594 228.816406 62.152344 228.605469 62.09375 228.417969 C 62.035156 228.230469 61.949219 228.070312 61.835938 227.9375 C 61.71875 227.804688 61.574219 227.699219 61.402344 227.625 C 61.234375 227.554688 61.039062 227.515625 60.816406 227.515625 C 60.59375 227.515625 60.394531 227.554688 60.222656 227.625 C 60.046875 227.699219 59.902344 227.804688 59.789062 227.9375 C 59.679688 228.070312 59.597656 228.230469 59.539062 228.417969 C 59.480469 228.605469 59.453125 228.816406 59.453125 229.046875 C 59.453125 229.28125 59.480469 229.492188 59.539062 229.6875 C 59.597656 229.878906 59.683594 230.042969 59.800781 230.175781 C 59.914062 230.316406 60.054688 230.425781 60.222656 230.503906 C 60.394531 230.578125 60.59375 230.613281 60.816406 230.613281 C 61.054688 230.613281 61.261719 230.578125 61.433594 230.503906 C 61.609375 230.425781 61.75 230.316406 61.855469 230.175781 C 61.964844 230.03125 62.042969 229.867188 62.09375 229.675781 C 62.152344 229.480469 62.183594 229.273438 62.183594 229.046875 Z M 62.183594 229.046875 "/>
<path style=" stroke:none;fill-rule:nonzero;fill:rgb(0%,0%,0%);fill-opacity:1;" d="M 63.292969 226.71875 L 65.609375 226.71875 L 65.609375 227.179688 L 63.292969 227.179688 "/>
<path style=" stroke:none;fill-rule:nonzero;fill:rgb(0%,0%,0%);fill-opacity:1;" d="M 53.464844 190.273438 C 53.464844 190.441406 53.433594 190.597656 53.378906 190.738281 C 53.316406 190.878906 53.234375 191 53.128906 191.109375 C 53.019531 191.21875 52.882812 191.304688 52.714844 191.371094 C 52.558594 191.429688 52.363281 191.457031 52.140625 191.457031 L 51.027344 191.457031 L 51.027344 192.945312 L 50.507812 192.945312 L 50.507812 189.121094 L 52.109375 189.121094 C 52.339844 189.121094 52.539062 189.152344 52.707031 189.207031 C 52.871094 189.261719 53.007812 189.335938 53.117188 189.4375 C 53.230469 189.539062 53.316406 189.660156 53.378906 189.804688 C 53.433594 189.945312 53.464844 190.097656 53.464844 190.273438 Z M 52.945312 190.273438 C 52.945312 190.035156 52.867188 189.855469 52.714844 189.730469 C 52.570312 189.597656 52.351562 189.535156 52.054688 189.535156 L 51.027344 189.535156 L 51.027344 191.042969 L 52.078125 191.042969 C 52.371094 191.042969 52.589844 190.980469 52.726562 190.847656 C 52.871094 190.714844 52.945312 190.519531 52.945312 190.273438 Z M 52.945312 190.273438 "/>
<path style=" stroke:none;fill-rule:nonzero;fill:rgb(0%,0%,0%);fill-opacity:1;" d="M 46.964844 191.320312 L 47.679688 191.046875 L 47.796875 191.40625 L 47.039062 191.601562 L 47.539062 192.273438 L 47.210938 192.46875 L 46.8125 191.773438 L 46.390625 192.46875 L 46.0625 192.273438 L 46.574219 191.601562 L 45.816406 191.40625 L 45.945312 191.035156 L 46.660156 191.328125 L 46.628906 190.527344 L 46.996094 190.527344 Z M 46.964844 191.320312 "/>
<path style=" stroke:none;fill-rule:nonzero;fill:rgb(0%,0%,0%);fill-opacity:1;" d="M 72.25 186.9375 C 72.25 187.238281 72.207031 187.507812 72.121094 187.753906 C 72.035156 188 71.90625 188.207031 71.742188 188.382812 C 71.582031 188.554688 71.382812 188.691406 71.144531 188.785156 C 70.914062 188.878906 70.652344 188.925781 70.355469 188.925781 C 70.035156 188.925781 69.761719 188.878906 69.523438 188.785156 C 69.289062 188.683594 69.09375 188.546875 68.9375 188.371094 C 68.777344 188.191406 68.65625 187.980469 68.578125 187.742188 C 68.5 187.496094 68.460938 187.230469 68.460938 186.9375 C 68.460938 186.640625 68.5 186.371094 68.578125 186.132812 C 68.664062 185.890625 68.789062 185.683594 68.949219 185.515625 C 69.113281 185.347656 69.308594 185.21875 69.542969 185.125 C 69.78125 185.03125 70.050781 184.984375 70.355469 184.984375 C 70.660156 184.984375 70.929688 185.03125 71.167969 185.125 C 71.40625 185.21875 71.605469 185.351562 71.761719 185.527344 C 71.921875 185.695312 72.039062 185.894531 72.121094 186.132812 C 72.207031 186.371094 72.25 186.640625 72.25 186.9375 Z M 71.71875 186.9375 C 71.71875 186.707031 71.691406 186.496094 71.632812 186.308594 C 71.574219 186.121094 71.488281 185.960938 71.375 185.828125 C 71.257812 185.695312 71.113281 185.589844 70.941406 185.515625 C 70.773438 185.445312 70.578125 185.40625 70.355469 185.40625 C 70.128906 185.40625 69.933594 185.445312 69.761719 185.515625 C 69.585938 185.589844 69.441406 185.695312 69.328125 185.828125 C 69.21875 185.960938 69.132812 186.121094 69.078125 186.308594 C 69.019531 186.496094 68.992188 186.707031 68.992188 186.9375 C 68.992188 187.171875 69.019531 187.382812 69.078125 187.578125 C 69.132812 187.769531 69.222656 187.933594 69.335938 188.066406 C 69.449219 188.207031 69.59375 188.316406 69.761719 188.394531 C 69.933594 188.46875 70.128906 188.503906 70.355469 188.503906 C 70.59375 188.503906 70.800781 188.46875 70.972656 188.394531 C 71.144531 188.316406 71.285156 188.207031 71.394531 188.066406 C 71.503906 187.921875 71.582031 187.757812 71.632812 187.566406 C 71.691406 187.371094 71.71875 187.164062 71.71875 186.9375 Z M 71.71875 186.9375 "/>
<path style=" stroke:none;fill-rule:nonzero;fill:rgb(0%,0%,0%);fill-opacity:1;" d="M 50.28125 172.585938 C 50.28125 172.886719 50.238281 173.15625 50.152344 173.402344 C 50.066406 173.648438 49.9375 173.859375 49.773438 174.03125 C 49.613281 174.207031 49.417969 174.339844 49.179688 174.433594 C 48.945312 174.527344 48.683594 174.574219 48.386719 174.574219 C 48.066406 174.574219 47.792969 174.527344 47.554688 174.433594 C 47.320312 174.332031 47.125 174.195312 46.96875 174.019531 C 46.808594 173.84375 46.691406 173.628906 46.609375 173.390625 C 46.53125 173.148438 46.492188 172.878906 46.492188 172.585938 C 46.492188 172.292969 46.53125 172.023438 46.609375 171.785156 C 46.699219 171.539062 46.820312 171.332031 46.980469 171.164062 C 47.144531 171 47.34375 170.867188 47.574219 170.773438 C 47.8125 170.679688 48.085938 170.632812 48.386719 170.632812 C 48.691406 170.632812 48.960938 170.679688 49.199219 170.773438 C 49.4375 170.867188 49.636719 171 49.796875 171.175781 C 49.953125 171.34375 50.070312 171.542969 50.152344 171.785156 C 50.238281 172.023438 50.28125 172.292969 50.28125 172.585938 Z M 49.75 172.585938 C 49.75 172.355469 49.722656 172.148438 49.664062 171.957031 C 49.605469 171.769531 49.519531 171.609375 49.40625 171.480469 C 49.289062 171.34375 49.144531 171.238281 48.972656 171.164062 C 48.804688 171.09375 48.609375 171.054688 48.386719 171.054688 C 48.164062 171.054688 47.964844 171.09375 47.792969 171.164062 C 47.617188 171.238281 47.472656 171.34375 47.359375 171.480469 C 47.25 171.609375 47.167969 171.769531 47.109375 171.957031 C 47.050781 172.148438 47.023438 172.355469 47.023438 172.585938 C 47.023438 172.820312 47.050781 173.03125 47.109375 173.226562 C 47.167969 173.417969 47.253906 173.582031 47.371094 173.71875 C 47.484375 173.855469 47.625 173.964844 47.792969 174.042969 C 47.964844 174.117188 48.164062 174.152344 48.386719 174.152344 C 48.625 174.152344 48.832031 174.117188 49.003906 174.042969 C 49.179688 173.964844 49.320312 173.855469 49.425781 173.71875 C 49.535156 173.574219 49.613281 173.40625 49.664062 173.21875 C 49.722656 173.023438 49.75 172.8125 49.75 172.585938 Z M 49.75 172.585938 "/>
<path style=" stroke:none;fill-rule:nonzero;fill:rgb(0%,0%,0%);fill-opacity:1;" d="M 50.863281 170.261719 L 53.179688 170.261719 L 53.179688 170.722656 L 50.863281 170.722656 "/>
<path style="fill:none;stroke-width:0.0333333;stroke-linecap:butt;stroke-linejoin:miter;stroke:rgb(0%,0%,0%);stroke-opacity:1;stroke-miterlimit:10;" d="M 3.71734 4.027882 L 3.706068 3.181525 " transform="matrix(17.327586,0,0,17.38149,48.388257,90.977697)"/>
<path style=" stroke:none;fill-rule:nonzero;fill:rgb(0%,0%,0%);fill-opacity:1;" d="M 112.800781 160.84375 L 100.8125 167.039062 L 103.179688 170.324219 "/>
<path style="fill:none;stroke-width:0.0333333;stroke-linecap:butt;stroke-linejoin:miter;stroke:rgb(0%,0%,0%);stroke-opacity:1;stroke-miterlimit:10;" d="M 3.710577 4.014622 L 4.539051 4.617589 " transform="matrix(17.327586,0,0,17.38149,48.388257,90.977697)"/>
<path style="fill:none;stroke-width:0.0333333;stroke-linecap:butt;stroke-linejoin:miter;stroke:rgb(0%,0%,0%);stroke-opacity:1;stroke-miterlimit:10;" d="M 3.869058 2.927573 L 4.551 2.516755 " transform="matrix(17.327586,0,0,17.38149,48.388257,90.977697)"/>
<path style="fill:none;stroke-width:0.0333333;stroke-linecap:butt;stroke-linejoin:miter;stroke:rgb(0%,0%,0%);stroke-opacity:1;stroke-miterlimit:10;" d="M 3.537217 2.935664 L 2.797338 2.530689 " transform="matrix(17.327586,0,0,17.38149,48.388257,90.977697)"/>
<path style="fill:none;stroke-width:0.0333333;stroke-linecap:butt;stroke-linejoin:miter;stroke:rgb(0%,0%,0%);stroke-opacity:1;stroke-miterlimit:10;" d="M 2.980166 4.78367 L 3.238515 5.573842 " transform="matrix(17.327586,0,0,17.38149,48.388257,90.977697)"/>
<path style="fill:none;stroke-width:0.0333333;stroke-linecap:butt;stroke-linejoin:miter;stroke:rgb(0%,0%,0%);stroke-opacity:1;stroke-miterlimit:10;" d="M 4.532965 4.599161 L 4.223442 5.574067 " transform="matrix(17.327586,0,0,17.38149,48.388257,90.977697)"/>
<path style="fill:none;stroke-width:0.0333333;stroke-linecap:butt;stroke-linejoin:miter;stroke:rgb(0%,0%,0%);stroke-opacity:1;stroke-miterlimit:10;" d="M 4.597665 4.597588 L 4.591352 4.57916 M 4.665972 4.584553 L 4.653122 4.547696 M 4.734053 4.571519 L 4.715342 4.516233 M 4.80236 4.558709 L 4.777111 4.484995 M 4.870441 4.545674 L 4.839106 4.453532 M 4.938748 4.532639 L 4.901101 4.422294 M 5.00683 4.519604 L 4.96287 4.390831 M 5.075137 4.50657 L 5.024865 4.359368 M 5.143218 4.493535 L 5.086859 4.327904 M 5.211525 4.480725 L 5.148629 4.296666 M 5.279607 4.46769 L 5.210623 4.265203 M 5.347913 4.454656 L 5.272618 4.23374 " transform="matrix(17.327586,0,0,17.38149,48.388257,90.977697)"/>
<path style="fill:none;stroke-width:0.0333333;stroke-linecap:butt;stroke-linejoin:miter;stroke:rgb(0%,0%,0%);stroke-opacity:1;stroke-miterlimit:10;" d="M 4.543109 2.531139 L 4.543109 1.66905 " transform="matrix(17.327586,0,0,17.38149,48.388257,90.977697)"/>
<path style="fill:none;stroke-width:0.0333333;stroke-linecap:butt;stroke-linejoin:miter;stroke:rgb(0%,0%,0%);stroke-opacity:1;stroke-miterlimit:10;" d="M 4.460825 2.571142 L 5.198901 2.983982 " transform="matrix(17.327586,0,0,17.38149,48.388257,90.977697)"/>
<path style="fill:none;stroke-width:0.0333333;stroke-linecap:butt;stroke-linejoin:miter;stroke:rgb(0%,0%,0%);stroke-opacity:1;stroke-miterlimit:10;" d="M 4.543109 2.426187 L 5.280283 2.838578 " transform="matrix(17.327586,0,0,17.38149,48.388257,90.977697)"/>
<path style="fill:none;stroke-width:0.0333333;stroke-linecap:butt;stroke-linejoin:miter;stroke:rgb(0%,0%,0%);stroke-opacity:1;stroke-miterlimit:10;" d="M 2.80613 2.545297 L 2.80613 1.519826 " transform="matrix(17.327586,0,0,17.38149,48.388257,90.977697)"/>
<path style="fill:none;stroke-width:0.0333333;stroke-linecap:butt;stroke-linejoin:miter;stroke:rgb(0%,0%,0%);stroke-opacity:1;stroke-miterlimit:10;" d="M 2.972727 2.446413 L 2.972727 1.615114 " transform="matrix(17.327586,0,0,17.38149,48.388257,90.977697)"/>
<path style=" stroke:none;fill-rule:nonzero;fill:rgb(0%,0%,0%);fill-opacity:1;" d="M 104.4375 187.660156 L 91.847656 201.675781 L 94.335938 201.914062 L 95.984375 203.085938 "/>
<path style="fill:none;stroke-width:0.0333333;stroke-linecap:butt;stroke-linejoin:miter;stroke:rgb(0%,0%,0%);stroke-opacity:1;stroke-miterlimit:10;" d="M 4.260864 5.626655 L 4.277997 5.61407 M 4.294229 5.690705 L 4.32872 5.665759 M 4.327819 5.754979 L 4.379218 5.717448 M 4.361408 5.819029 L 4.430166 5.769138 M 4.394998 5.883079 L 4.480889 5.820602 M 4.428588 5.947129 L 4.531612 5.872292 M 4.462178 6.011403 L 4.582335 5.924206 M 4.495768 6.075453 L 4.632833 5.97567 M 4.529358 6.139728 L 4.683781 6.02736 M 4.562722 6.203778 L 4.734278 6.079049 M 4.596312 6.268052 L 4.785001 6.130738 " transform="matrix(17.327586,0,0,17.38149,48.388257,90.977697)"/>
<path style="fill:none;stroke-width:0.0333333;stroke-linecap:butt;stroke-linejoin:miter;stroke:rgb(0%,0%,0%);stroke-opacity:1;stroke-miterlimit:10;" d="M 4.376963 1.420717 L 3.66842 1.014619 " transform="matrix(17.327586,0,0,17.38149,48.388257,90.977697)"/>
<path style="fill:none;stroke-width:0.0333333;stroke-linecap:butt;stroke-linejoin:miter;stroke:rgb(0%,0%,0%);stroke-opacity:1;stroke-miterlimit:10;" d="M 2.666811 6.375251 L 1.827065 6.295245 " transform="matrix(17.327586,0,0,17.38149,48.388257,90.977697)"/>
<path style="fill:none;stroke-width:0.0333333;stroke-linecap:butt;stroke-linejoin:miter;stroke:rgb(0%,0%,0%);stroke-opacity:1;stroke-miterlimit:10;" d="M 3.760172 1.067207 L 3.760172 0.156801 " transform="matrix(17.327586,0,0,17.38149,48.388257,90.977697)"/>
<path style="fill:none;stroke-width:0.0333333;stroke-linecap:butt;stroke-linejoin:miter;stroke:rgb(0%,0%,0%);stroke-opacity:1;stroke-miterlimit:10;" d="M 3.593576 1.068106 L 3.593576 0.156801 " transform="matrix(17.327586,0,0,17.38149,48.388257,90.977697)"/>
<path style="fill:none;stroke-width:0.0333333;stroke-linecap:butt;stroke-linejoin:miter;stroke:rgb(0%,0%,0%);stroke-opacity:1;stroke-miterlimit:10;" d="M 1.53986 6.456156 L 1.243187 6.87484 " transform="matrix(17.327586,0,0,17.38149,48.388257,90.977697)"/>
<path style="fill:none;stroke-width:0.0333333;stroke-linecap:butt;stroke-linejoin:miter;stroke:rgb(0%,0%,0%);stroke-opacity:1;stroke-miterlimit:10;" d="M 0.964549 6.974398 L 0.379544 6.748538 " transform="matrix(17.327586,0,0,17.38149,48.388257,90.977697)"/>
<path style="fill:none;stroke-width:0.0333333;stroke-linecap:butt;stroke-linejoin:miter;stroke:rgb(0%,0%,0%);stroke-opacity:1;stroke-miterlimit:10;" d="M 1.180967 7.247452 L 1.494998 7.66726 " transform="matrix(17.327586,0,0,17.38149,48.388257,90.977697)"/>
<path style="fill:none;stroke-width:0.0333333;stroke-linecap:butt;stroke-linejoin:miter;stroke:rgb(0%,0%,0%);stroke-opacity:1;stroke-miterlimit:10;" d="M 1.314425 7.14767 L 1.628456 7.567477 " transform="matrix(17.327586,0,0,17.38149,48.388257,90.977697)"/>
<path style="fill:none;stroke-width:0.0333333;stroke-linecap:butt;stroke-linejoin:miter;stroke:rgb(0%,0%,0%);stroke-opacity:1;stroke-miterlimit:10;" d="M 1.048411 7.213293 L 0.847999 7.655573 " transform="matrix(17.327586,0,0,17.38149,48.388257,90.977697)"/>
<path style="fill:none;stroke-width:0.0333333;stroke-linecap:butt;stroke-linejoin:miter;stroke:rgb(0%,0%,0%);stroke-opacity:1;stroke-miterlimit:10;" d="M 0.196265 6.518408 L 0.205508 5.911396 " transform="matrix(17.327586,0,0,17.38149,48.388257,90.977697)"/>
<path style="fill:none;stroke-width:0.0333333;stroke-linecap:butt;stroke-linejoin:miter;stroke:rgb(0%,0%,0%);stroke-opacity:1;stroke-miterlimit:10;" d="M 0.380671 5.803522 L 1.107024 5.642611 " transform="matrix(17.327586,0,0,17.38149,48.388257,90.977697)"/>
<path style="fill:none;stroke-width:0.0333333;stroke-linecap:butt;stroke-linejoin:miter;stroke:rgb(0%,0%,0%);stroke-opacity:1;stroke-miterlimit:10;" d="M 0.344602 5.640813 L 1.070954 5.479902 " transform="matrix(17.327586,0,0,17.38149,48.388257,90.977697)"/>
<path style="fill:none;stroke-width:0.0333333;stroke-linecap:butt;stroke-linejoin:miter;stroke:rgb(0%,0%,0%);stroke-opacity:1;stroke-miterlimit:10;" d="M 0.173947 5.584629 L 0.0344028 4.872216 " transform="matrix(17.327586,0,0,17.38149,48.388257,90.977697)"/>
<path style="fill:none;stroke-width:0.0333333;stroke-linecap:butt;stroke-linejoin:miter;stroke:rgb(0%,0%,0%);stroke-opacity:1;stroke-miterlimit:10;" d="M 3.222509 5.56238 L 4.239448 5.56238 " transform="matrix(17.327586,0,0,17.38149,48.388257,90.977697)"/>
<path style="fill:none;stroke-width:0.0333333;stroke-linecap:butt;stroke-linejoin:miter;stroke:rgb(0%,0%,0%);stroke-opacity:1;stroke-miterlimit:10;" d="M 2.798014 1.534209 L 3.685102 1.014619 " transform="matrix(17.327586,0,0,17.38149,48.388257,90.977697)"/>
</g>
</svg>
