<?xml version="1.0" encoding="UTF-8"?>
<svg xmlns="http://www.w3.org/2000/svg" xmlns:xlink="http://www.w3.org/1999/xlink" width="233.6pt" height="112.8pt" viewBox="0 0 233.6 112.8" version="1.1">
<g id="surface657">
<path style=" stroke:none;fill-rule:nonzero;fill:rgb(0%,0%,0%);fill-opacity:1;" d="M 199.429688 13.789062 L 200.085938 13.957031 C 199.945312 14.496094 199.699219 14.902344 199.339844 15.183594 C 198.984375 15.464844 198.542969 15.605469 198.03125 15.609375 C 197.492188 15.605469 197.058594 15.5 196.722656 15.285156 C 196.386719 15.066406 196.128906 14.753906 195.957031 14.339844 C 195.78125 13.929688 195.695312 13.484375 195.695312 13.011719 C 195.695312 12.5 195.792969 12.050781 195.992188 11.667969 C 196.1875 11.28125 196.464844 10.992188 196.835938 10.792969 C 197.199219 10.59375 197.601562 10.496094 198.039062 10.492188 C 198.535156 10.496094 198.953125 10.621094 199.292969 10.871094 C 199.632812 11.125 199.867188 11.476562 200 11.933594 L 199.355469 12.085938 C 199.234375 11.726562 199.066406 11.464844 198.851562 11.300781 C 198.628906 11.136719 198.355469 11.054688 198.027344 11.054688 C 197.640625 11.054688 197.324219 11.144531 197.066406 11.324219 C 196.8125 11.507812 196.632812 11.753906 196.527344 12.058594 C 196.425781 12.367188 196.375 12.683594 196.375 13.011719 C 196.375 13.433594 196.433594 13.800781 196.558594 14.113281 C 196.679688 14.429688 196.871094 14.664062 197.128906 14.816406 C 197.390625 14.972656 197.671875 15.050781 197.976562 15.050781 C 198.34375 15.050781 198.65625 14.945312 198.910156 14.734375 C 199.164062 14.523438 199.335938 14.207031 199.429688 13.789062 Z M 199.429688 13.789062 "/>
<path style=" stroke:none;fill-rule:nonzero;fill:rgb(0%,0%,0%);fill-opacity:1;" d="M 200.816406 15.523438 L 200.816406 10.574219 L 201.425781 10.574219 L 201.425781 12.351562 C 201.707031 12.023438 202.066406 11.859375 202.503906 11.859375 C 202.769531 11.859375 203 11.910156 203.195312 12.015625 C 203.390625 12.121094 203.53125 12.269531 203.617188 12.453125 C 203.703125 12.636719 203.742188 12.90625 203.746094 13.253906 L 203.746094 15.523438 L 203.136719 15.523438 L 203.136719 13.253906 C 203.132812 12.953125 203.070312 12.730469 202.9375 12.589844 C 202.804688 12.453125 202.617188 12.382812 202.378906 12.382812 C 202.195312 12.382812 202.027344 12.429688 201.867188 12.523438 C 201.707031 12.621094 201.59375 12.746094 201.527344 12.902344 C 201.457031 13.066406 201.425781 13.285156 201.425781 13.5625 L 201.425781 15.523438 Z M 200.816406 15.523438 "/>
<path style=" stroke:none;fill-rule:nonzero;fill:rgb(0%,0%,0%);fill-opacity:1;" d="M 204.675781 11.273438 L 204.675781 10.574219 L 205.285156 10.574219 L 205.285156 11.273438 Z M 204.675781 15.523438 L 204.675781 11.9375 L 205.285156 11.9375 L 205.285156 15.523438 Z M 204.675781 15.523438 "/>
<path style=" stroke:none;fill-rule:nonzero;fill:rgb(0%,0%,0%);fill-opacity:1;" d="M 206.207031 15.523438 L 206.207031 11.9375 L 206.757812 11.9375 L 206.757812 12.484375 C 206.894531 12.230469 207.023438 12.0625 207.144531 11.980469 C 207.261719 11.902344 207.390625 11.859375 207.535156 11.859375 C 207.738281 11.859375 207.949219 11.925781 208.164062 12.054688 L 207.953125 12.621094 C 207.804688 12.53125 207.652344 12.488281 207.503906 12.488281 C 207.371094 12.488281 207.246094 12.527344 207.144531 12.609375 C 207.035156 12.691406 206.964844 12.800781 206.917969 12.9375 C 206.847656 13.15625 206.8125 13.394531 206.816406 13.648438 L 206.816406 15.523438 Z M 206.207031 15.523438 "/>
<path style=" stroke:none;fill-rule:nonzero;fill:rgb(0%,0%,0%);fill-opacity:1;" d="M 210.871094 15.082031 C 210.644531 15.277344 210.425781 15.410156 210.21875 15.488281 C 210.007812 15.566406 209.785156 15.605469 209.546875 15.605469 C 209.152344 15.605469 208.847656 15.511719 208.636719 15.316406 C 208.425781 15.128906 208.320312 14.882812 208.320312 14.578125 C 208.320312 14.40625 208.355469 14.246094 208.4375 14.097656 C 208.515625 13.953125 208.621094 13.835938 208.753906 13.75 C 208.878906 13.664062 209.027344 13.597656 209.191406 13.550781 C 209.308594 13.519531 209.488281 13.488281 209.734375 13.460938 C 210.226562 13.398438 210.585938 13.328125 210.820312 13.25 C 210.820312 13.167969 210.824219 13.117188 210.824219 13.09375 C 210.824219 12.847656 210.765625 12.671875 210.652344 12.566406 C 210.496094 12.433594 210.261719 12.367188 209.957031 12.363281 C 209.667969 12.367188 209.457031 12.417969 209.320312 12.515625 C 209.183594 12.617188 209.082031 12.792969 209.019531 13.042969 L 208.421875 12.960938 C 208.472656 12.710938 208.5625 12.507812 208.691406 12.347656 C 208.8125 12.191406 208.992188 12.070312 209.230469 11.984375 C 209.460938 11.902344 209.734375 11.859375 210.046875 11.859375 C 210.351562 11.859375 210.601562 11.894531 210.792969 11.964844 C 210.984375 12.039062 211.125 12.128906 211.21875 12.238281 C 211.304688 12.351562 211.371094 12.488281 211.40625 12.652344 C 211.425781 12.757812 211.433594 12.945312 211.4375 13.214844 L 211.4375 14.023438 C 211.433594 14.585938 211.449219 14.945312 211.476562 15.09375 C 211.5 15.246094 211.550781 15.390625 211.628906 15.523438 L 210.992188 15.523438 C 210.929688 15.398438 210.886719 15.253906 210.871094 15.082031 Z M 210.820312 13.726562 C 210.597656 13.816406 210.265625 13.894531 209.824219 13.957031 C 209.574219 13.992188 209.394531 14.035156 209.292969 14.078125 C 209.1875 14.125 209.109375 14.191406 209.054688 14.273438 C 208.996094 14.363281 208.96875 14.460938 208.96875 14.5625 C 208.96875 14.726562 209.027344 14.863281 209.152344 14.96875 C 209.273438 15.078125 209.453125 15.132812 209.691406 15.128906 C 209.925781 15.132812 210.132812 15.082031 210.320312 14.976562 C 210.503906 14.875 210.636719 14.734375 210.722656 14.554688 C 210.785156 14.421875 210.816406 14.21875 210.820312 13.949219 Z M 210.820312 13.726562 "/>
<path style=" stroke:none;fill-rule:nonzero;fill:rgb(0%,0%,0%);fill-opacity:1;" d="M 212.367188 15.523438 L 212.367188 10.574219 L 212.980469 10.574219 L 212.980469 15.523438 Z M 212.367188 15.523438 "/>
<path style=" stroke:none;fill-rule:nonzero;fill:rgb(0%,0%,0%);fill-opacity:1;" d="M 136.746094 24.542969 C 136.746094 23.722656 136.96875 23.082031 137.410156 22.613281 C 137.851562 22.152344 138.421875 21.921875 139.125 21.917969 C 139.578125 21.921875 139.992188 22.027344 140.363281 22.246094 C 140.730469 22.464844 141.007812 22.769531 141.203125 23.15625 C 141.394531 23.550781 141.492188 23.992188 141.496094 24.484375 C 141.492188 24.992188 141.390625 25.4375 141.1875 25.832031 C 140.980469 26.230469 140.695312 26.53125 140.328125 26.730469 C 139.953125 26.933594 139.550781 27.035156 139.121094 27.035156 C 138.652344 27.035156 138.234375 26.921875 137.867188 26.699219 C 137.5 26.476562 137.21875 26.167969 137.03125 25.777344 C 136.839844 25.390625 136.746094 24.980469 136.746094 24.542969 Z M 137.425781 24.554688 C 137.421875 25.148438 137.585938 25.621094 137.90625 25.960938 C 138.226562 26.308594 138.628906 26.480469 139.117188 26.476562 C 139.613281 26.480469 140.019531 26.308594 140.335938 25.960938 C 140.65625 25.613281 140.816406 25.121094 140.816406 24.484375 C 140.816406 24.082031 140.746094 23.730469 140.609375 23.425781 C 140.472656 23.128906 140.273438 22.894531 140.011719 22.730469 C 139.75 22.566406 139.453125 22.480469 139.128906 22.480469 C 138.660156 22.480469 138.257812 22.640625 137.925781 22.960938 C 137.589844 23.277344 137.421875 23.808594 137.425781 24.554688 Z M 137.425781 24.554688 "/>
<path style=" stroke:none;fill-rule:nonzero;fill:rgb(0%,0%,0%);fill-opacity:1;" d="M 158.347656 56.007812 L 158.347656 51.058594 L 159.023438 51.058594 L 161.628906 54.941406 L 161.628906 51.058594 L 162.261719 51.058594 L 162.261719 56.007812 L 161.585938 56.007812 L 158.980469 52.117188 L 158.980469 56.007812 Z M 158.347656 56.007812 "/>
<path style=" stroke:none;fill-rule:nonzero;fill:rgb(0%,0%,0%);fill-opacity:1;" d="M 88.421875 81.730469 C 88.417969 80.910156 88.640625 80.269531 89.085938 79.800781 C 89.527344 79.339844 90.097656 79.105469 90.796875 79.105469 C 91.253906 79.105469 91.667969 79.214844 92.039062 79.429688 C 92.402344 79.648438 92.683594 79.953125 92.878906 80.34375 C 93.066406 80.738281 93.164062 81.179688 93.167969 81.671875 C 93.164062 82.175781 93.0625 82.625 92.863281 83.019531 C 92.65625 83.417969 92.367188 83.714844 92 83.917969 C 91.625 84.121094 91.226562 84.222656 90.792969 84.222656 C 90.324219 84.222656 89.910156 84.109375 89.539062 83.886719 C 89.171875 83.660156 88.894531 83.355469 88.707031 82.964844 C 88.511719 82.578125 88.417969 82.167969 88.421875 81.730469 Z M 89.097656 81.738281 C 89.097656 82.335938 89.257812 82.804688 89.582031 83.148438 C 89.902344 83.496094 90.304688 83.667969 90.792969 83.664062 C 91.285156 83.667969 91.691406 83.496094 92.011719 83.144531 C 92.332031 82.800781 92.492188 82.308594 92.492188 81.667969 C 92.492188 81.265625 92.421875 80.917969 92.285156 80.613281 C 92.148438 80.3125 91.949219 80.082031 91.6875 79.917969 C 91.421875 79.753906 91.128906 79.667969 90.804688 79.667969 C 90.335938 79.667969 89.933594 79.828125 89.601562 80.148438 C 89.265625 80.464844 89.097656 80.996094 89.097656 81.738281 Z M 89.097656 81.738281 "/>
<path style=" stroke:none;fill-rule:nonzero;fill:rgb(0%,0%,0%);fill-opacity:1;" d="M 67.65625 55.082031 L 67.65625 50.132812 L 68.328125 50.132812 L 70.933594 54.015625 L 70.933594 50.132812 L 71.566406 50.132812 L 71.566406 55.082031 L 70.890625 55.082031 L 68.285156 51.191406 L 68.285156 55.082031 Z M 67.65625 55.082031 "/>
<path style=" stroke:none;fill-rule:nonzero;fill:rgb(0%,0%,0%);fill-opacity:1;" d="M 176.5 21.460938 L 177.15625 21.628906 C 177.015625 22.167969 176.769531 22.578125 176.414062 22.859375 C 176.054688 23.136719 175.617188 23.277344 175.101562 23.28125 C 174.5625 23.277344 174.132812 23.171875 173.796875 22.957031 C 173.460938 22.742188 173.203125 22.425781 173.027344 22.011719 C 172.851562 21.601562 172.765625 21.160156 172.769531 20.6875 C 172.765625 20.171875 172.867188 19.726562 173.0625 19.339844 C 173.257812 18.957031 173.539062 18.664062 173.90625 18.464844 C 174.269531 18.265625 174.671875 18.167969 175.113281 18.164062 C 175.609375 18.167969 176.023438 18.292969 176.363281 18.542969 C 176.703125 18.796875 176.9375 19.152344 177.070312 19.605469 L 176.425781 19.757812 C 176.304688 19.402344 176.136719 19.140625 175.921875 18.972656 C 175.699219 18.808594 175.425781 18.726562 175.097656 18.726562 C 174.714844 18.726562 174.394531 18.820312 174.140625 19 C 173.882812 19.183594 173.703125 19.429688 173.601562 19.734375 C 173.496094 20.042969 173.445312 20.355469 173.445312 20.683594 C 173.445312 21.105469 173.503906 21.472656 173.628906 21.785156 C 173.75 22.101562 173.941406 22.335938 174.203125 22.492188 C 174.460938 22.648438 174.742188 22.726562 175.046875 22.722656 C 175.414062 22.726562 175.726562 22.621094 175.980469 22.40625 C 176.234375 22.195312 176.40625 21.878906 176.5 21.460938 Z M 176.5 21.460938 "/>
<path style=" stroke:none;fill-rule:nonzero;fill:rgb(0%,0%,0%);fill-opacity:1;" d="M 214.515625 38.332031 L 215.175781 38.496094 C 215.035156 39.039062 214.785156 39.445312 214.429688 39.726562 C 214.070312 40.007812 213.632812 40.148438 213.117188 40.148438 C 212.582031 40.148438 212.148438 40.042969 211.8125 39.828125 C 211.476562 39.609375 211.21875 39.292969 211.046875 38.882812 C 210.871094 38.472656 210.78125 38.027344 210.785156 37.554688 C 210.78125 37.042969 210.882812 36.59375 211.082031 36.207031 C 211.277344 35.824219 211.554688 35.535156 211.921875 35.332031 C 212.285156 35.136719 212.691406 35.035156 213.128906 35.035156 C 213.625 35.035156 214.042969 35.164062 214.378906 35.410156 C 214.71875 35.664062 214.953125 36.019531 215.085938 36.476562 L 214.441406 36.625 C 214.324219 36.269531 214.15625 36.007812 213.9375 35.839844 C 213.71875 35.679688 213.441406 35.59375 213.117188 35.59375 C 212.730469 35.59375 212.410156 35.6875 212.15625 35.867188 C 211.898438 36.050781 211.71875 36.296875 211.617188 36.601562 C 211.515625 36.910156 211.460938 37.226562 211.460938 37.554688 C 211.460938 37.972656 211.523438 38.339844 211.648438 38.65625 C 211.765625 38.96875 211.957031 39.207031 212.21875 39.359375 C 212.480469 39.515625 212.761719 39.59375 213.0625 39.589844 C 213.433594 39.59375 213.742188 39.488281 214 39.277344 C 214.253906 39.066406 214.425781 38.75 214.515625 38.332031 Z M 214.515625 38.332031 "/>
<path style="fill:none;stroke-width:0.0333333;stroke-linecap:butt;stroke-linejoin:miter;stroke:rgb(0%,0%,0%);stroke-opacity:1;stroke-miterlimit:10;" d="M 6.873773 1.460904 L 7.523137 0.988995 " transform="matrix(20.807601,0,0,20.735294,20.758435,20.72336)"/>
<path style="fill:none;stroke-width:0.0333333;stroke-linecap:butt;stroke-linejoin:miter;stroke:rgb(0%,0%,0%);stroke-opacity:1;stroke-miterlimit:10;" d="M 5.880671 1.214682 L 5.790184 0.353756 " transform="matrix(20.807601,0,0,20.735294,20.758435,20.72336)"/>
<path style="fill:none;stroke-width:0.0333333;stroke-linecap:butt;stroke-linejoin:miter;stroke:rgb(0%,0%,0%);stroke-opacity:1;stroke-miterlimit:10;" d="M 5.714904 1.232202 L 5.624417 0.371088 " transform="matrix(20.807601,0,0,20.735294,20.758435,20.72336)"/>
<path style="fill:none;stroke-width:0.0333333;stroke-linecap:butt;stroke-linejoin:miter;stroke:rgb(0%,0%,0%);stroke-opacity:1;stroke-miterlimit:10;" d="M 5.784177 1.17173 L 6.53135 1.504421 " transform="matrix(20.807601,0,0,20.735294,20.758435,20.72336)"/>
<path style="fill:none;stroke-width:0.0333333;stroke-linecap:butt;stroke-linejoin:miter;stroke:rgb(0%,0%,0%);stroke-opacity:1;stroke-miterlimit:10;" d="M 2.180664 1.659086 L 1.538808 2.125531 " transform="matrix(20.807601,0,0,20.735294,20.758435,20.72336)"/>
<path style="fill:none;stroke-width:0.0333333;stroke-linecap:butt;stroke-linejoin:miter;stroke:rgb(0%,0%,0%);stroke-opacity:1;stroke-miterlimit:10;" d="M 3.17339 1.905307 L 3.263876 2.766422 " transform="matrix(20.807601,0,0,20.735294,20.758435,20.72336)"/>
<path style="fill:none;stroke-width:0.0333333;stroke-linecap:butt;stroke-linejoin:miter;stroke:rgb(0%,0%,0%);stroke-opacity:1;stroke-miterlimit:10;" d="M 3.339157 1.887976 L 3.429644 2.749091 " transform="matrix(20.807601,0,0,20.735294,20.758435,20.72336)"/>
<path style="fill:none;stroke-width:0.0333333;stroke-linecap:butt;stroke-linejoin:miter;stroke:rgb(0%,0%,0%);stroke-opacity:1;stroke-miterlimit:10;" d="M 3.270259 1.948448 L 2.522899 1.615757 " transform="matrix(20.807601,0,0,20.735294,20.758435,20.72336)"/>
<path style="fill:none;stroke-width:0.0333333;stroke-linecap:butt;stroke-linejoin:miter;stroke:rgb(0%,0%,0%);stroke-opacity:1;stroke-miterlimit:10;" d="M 4.061549 1.35277 L 4.992699 1.76722 " transform="matrix(20.807601,0,0,20.735294,20.758435,20.72336)"/>
<path style="fill:none;stroke-width:0.0333333;stroke-linecap:butt;stroke-linejoin:miter;stroke:rgb(0%,0%,0%);stroke-opacity:1;stroke-miterlimit:10;" d="M 4.081637 1.54417 L 4.83707 1.88044 " transform="matrix(20.807601,0,0,20.735294,20.758435,20.72336)"/>
<path style="fill:none;stroke-width:0.0333333;stroke-linecap:butt;stroke-linejoin:miter;stroke:rgb(0%,0%,0%);stroke-opacity:1;stroke-miterlimit:10;" d="M 1.538808 2.125531 L 0.576119 1.81281 " transform="matrix(20.807601,0,0,20.735294,20.758435,20.72336)"/>
<path style="fill:none;stroke-width:0.0333333;stroke-linecap:butt;stroke-linejoin:miter;stroke:rgb(0%,0%,0%);stroke-opacity:1;stroke-miterlimit:10;" d="M 1.538808 3.137544 L 1.538808 2.125531 " transform="matrix(20.807601,0,0,20.735294,20.758435,20.72336)"/>
<path style="fill:none;stroke-width:0.0333333;stroke-linecap:butt;stroke-linejoin:miter;stroke:rgb(0%,0%,0%);stroke-opacity:1;stroke-miterlimit:10;" d="M 1.55026 3.121719 L 0.576119 3.438209 " transform="matrix(20.807601,0,0,20.735294,20.758435,20.72336)"/>
<path style="fill:none;stroke-width:0.0333333;stroke-linecap:butt;stroke-linejoin:miter;stroke:rgb(0%,0%,0%);stroke-opacity:1;stroke-miterlimit:10;" d="M 0.594892 1.806781 L -0.00716375 2.635305 " transform="matrix(20.807601,0,0,20.735294,20.758435,20.72336)"/>
<path style="fill:none;stroke-width:0.0333333;stroke-linecap:butt;stroke-linejoin:miter;stroke:rgb(0%,0%,0%);stroke-opacity:1;stroke-miterlimit:10;" d="M -0.00716375 2.615713 L 0.594892 3.444237 " transform="matrix(20.807601,0,0,20.735294,20.758435,20.72336)"/>
<path style="fill:none;stroke-width:0.0333333;stroke-linecap:butt;stroke-linejoin:miter;stroke:rgb(0%,0%,0%);stroke-opacity:1;stroke-miterlimit:10;" d="M 3.253739 1.950143 L 4.07807 1.351074 " transform="matrix(20.807601,0,0,20.735294,20.758435,20.72336)"/>
<path style=" stroke:none;fill-rule:nonzero;fill:rgb(0%,0%,0%);fill-opacity:1;" d="M 177.136719 41.347656 L 177.769531 24.179688 L 172.9375 24.683594 "/>
<path style="fill:none;stroke-width:0.0333333;stroke-linecap:butt;stroke-linejoin:miter;stroke:rgb(0%,0%,0%);stroke-opacity:1;stroke-miterlimit:10;" d="M 7.506617 0.990691 L 8.437955 1.40533 " transform="matrix(20.807601,0,0,20.735294,20.758435,20.72336)"/>
<path style="fill:none;stroke-width:0.0333333;stroke-linecap:butt;stroke-linejoin:miter;stroke:rgb(0%,0%,0%);stroke-opacity:1;stroke-miterlimit:10;" d="M 8.421247 1.407025 L 9.061412 0.941899 " transform="matrix(20.807601,0,0,20.735294,20.758435,20.72336)"/>
<path style="fill:none;stroke-width:0.0333333;stroke-linecap:butt;stroke-linejoin:miter;stroke:rgb(0%,0%,0%);stroke-opacity:1;stroke-miterlimit:10;" d="M 5.800697 1.170035 L 4.975991 1.769104 " transform="matrix(20.807601,0,0,20.735294,20.758435,20.72336)"/>
</g>
</svg>
