<?xml version="1.0" encoding="UTF-8"?>
<svg xmlns="http://www.w3.org/2000/svg" xmlns:xlink="http://www.w3.org/1999/xlink" width="112.8pt" height="72.8pt" viewBox="0 0 112.8 72.8" version="1.1">
<g id="surface1187">
<path style=" stroke:none;fill-rule:nonzero;fill:rgb(0%,0%,0%);fill-opacity:1;" d="M 21.949219 52.84375 L 22.605469 53.011719 C 22.464844 53.554688 22.21875 53.964844 21.859375 54.246094 C 21.503906 54.527344 21.066406 54.667969 20.554688 54.671875 C 20.019531 54.667969 19.585938 54.5625 19.253906 54.347656 C 18.917969 54.128906 18.660156 53.8125 18.488281 53.394531 C 18.3125 52.984375 18.226562 52.539062 18.230469 52.0625 C 18.226562 51.546875 18.328125 51.097656 18.523438 50.710938 C 18.71875 50.324219 18.996094 50.03125 19.363281 49.832031 C 19.726562 49.632812 20.128906 49.53125 20.566406 49.53125 C 21.058594 49.53125 21.476562 49.660156 21.8125 49.910156 C 22.148438 50.164062 22.386719 50.519531 22.515625 50.980469 L 21.875 51.128906 C 21.757812 50.773438 21.589844 50.507812 21.371094 50.339844 C 21.152344 50.179688 20.878906 50.09375 20.550781 50.09375 C 20.167969 50.09375 19.851562 50.1875 19.597656 50.367188 C 19.339844 50.550781 19.160156 50.800781 19.058594 51.105469 C 18.957031 51.414062 18.90625 51.734375 18.90625 52.0625 C 18.90625 52.484375 18.964844 52.855469 19.089844 53.167969 C 19.207031 53.484375 19.398438 53.722656 19.65625 53.875 C 19.917969 54.035156 20.199219 54.113281 20.5 54.109375 C 20.867188 54.113281 21.179688 54.007812 21.433594 53.792969 C 21.6875 53.582031 21.855469 53.261719 21.949219 52.84375 Z M 21.949219 52.84375 "/>
<path style=" stroke:none;fill-rule:nonzero;fill:rgb(0%,0%,0%);fill-opacity:1;" d="M 89.878906 52.164062 C 89.878906 51.34375 90.097656 50.695312 90.542969 50.226562 C 90.980469 49.761719 91.546875 49.53125 92.246094 49.527344 C 92.703125 49.53125 93.113281 49.636719 93.484375 49.855469 C 93.847656 50.074219 94.125 50.382812 94.320312 50.773438 C 94.511719 51.167969 94.609375 51.613281 94.609375 52.105469 C 94.609375 52.613281 94.503906 53.066406 94.304688 53.460938 C 94.101562 53.859375 93.8125 54.160156 93.445312 54.363281 C 93.074219 54.570312 92.675781 54.667969 92.246094 54.671875 C 91.777344 54.667969 91.363281 54.558594 90.996094 54.332031 C 90.628906 54.105469 90.351562 53.796875 90.164062 53.40625 C 89.972656 53.015625 89.878906 52.605469 89.878906 52.164062 Z M 90.554688 52.175781 C 90.550781 52.773438 90.714844 53.246094 91.035156 53.589844 C 91.355469 53.9375 91.757812 54.113281 92.242188 54.109375 C 92.734375 54.113281 93.140625 53.9375 93.457031 53.589844 C 93.777344 53.242188 93.933594 52.746094 93.933594 52.105469 C 93.933594 51.699219 93.863281 51.347656 93.730469 51.042969 C 93.59375 50.742188 93.394531 50.507812 93.132812 50.34375 C 92.871094 50.179688 92.578125 50.09375 92.253906 50.09375 C 91.785156 50.09375 91.386719 50.253906 91.054688 50.574219 C 90.71875 50.894531 90.550781 51.429688 90.554688 52.175781 Z M 90.554688 52.175781 "/>
<path style=" stroke:none;fill-rule:nonzero;fill:rgb(0%,0%,0%);fill-opacity:1;" d="M 71.921875 20.90625 C 71.921875 20.082031 72.140625 19.4375 72.585938 18.96875 C 73.023438 18.503906 73.589844 18.269531 74.289062 18.265625 C 74.746094 18.269531 75.15625 18.378906 75.527344 18.59375 C 75.890625 18.816406 76.167969 19.121094 76.363281 19.511719 C 76.554688 19.910156 76.648438 20.355469 76.652344 20.847656 C 76.648438 21.355469 76.546875 21.804688 76.347656 22.203125 C 76.144531 22.601562 75.855469 22.902344 75.488281 23.105469 C 75.117188 23.308594 74.71875 23.410156 74.289062 23.410156 C 73.820312 23.410156 73.40625 23.296875 73.039062 23.074219 C 72.671875 22.847656 72.394531 22.539062 72.207031 22.148438 C 72.015625 21.757812 71.921875 21.34375 71.921875 20.90625 Z M 72.597656 20.914062 C 72.59375 21.515625 72.757812 21.988281 73.078125 22.332031 C 73.398438 22.679688 73.800781 22.851562 74.285156 22.851562 C 74.777344 22.851562 75.179688 22.679688 75.5 22.328125 C 75.820312 21.980469 75.976562 21.484375 75.976562 20.84375 C 75.976562 20.441406 75.90625 20.089844 75.773438 19.785156 C 75.636719 19.484375 75.4375 19.25 75.175781 19.085938 C 74.914062 18.917969 74.621094 18.835938 74.296875 18.835938 C 73.828125 18.835938 73.429688 18.996094 73.097656 19.316406 C 72.761719 19.636719 72.59375 20.167969 72.597656 20.914062 Z M 72.597656 20.914062 "/>
<path style="fill:none;stroke-width:0.0333333;stroke-linecap:butt;stroke-linejoin:miter;stroke:rgb(0%,0%,0%);stroke-opacity:1;stroke-miterlimit:10;" d="M 0.183768 1.39384 L 0.874581 0.995149 " transform="matrix(20.735294,0,0,20.839695,20.41608,20.839521)"/>
<path style="fill:none;stroke-width:0.0333333;stroke-linecap:butt;stroke-linejoin:miter;stroke:rgb(0%,0%,0%);stroke-opacity:1;stroke-miterlimit:10;" d="M 0.857815 0.995149 L 1.740406 1.504806 " transform="matrix(20.735294,0,0,20.839695,20.41608,20.839521)"/>
<path style="fill:none;stroke-width:0.0333333;stroke-linecap:butt;stroke-linejoin:miter;stroke:rgb(0%,0%,0%);stroke-opacity:1;stroke-miterlimit:10;" d="M 0.857815 1.187653 L 1.573872 1.600964 " transform="matrix(20.735294,0,0,20.839695,20.41608,20.839521)"/>
<path style="fill:none;stroke-width:0.0333333;stroke-linecap:butt;stroke-linejoin:miter;stroke:rgb(0%,0%,0%);stroke-opacity:1;stroke-miterlimit:10;" d="M 1.723639 1.504806 L 2.606419 0.995149 " transform="matrix(20.735294,0,0,20.839695,20.41608,20.839521)"/>
<path style="fill:none;stroke-width:0.0333333;stroke-linecap:butt;stroke-linejoin:miter;stroke:rgb(0%,0%,0%);stroke-opacity:1;stroke-miterlimit:10;" d="M 2.589652 0.995149 L 3.273872 1.390091 " transform="matrix(20.735294,0,0,20.839695,20.41608,20.839521)"/>
<path style="fill:none;stroke-width:0.0333333;stroke-linecap:butt;stroke-linejoin:miter;stroke:rgb(0%,0%,0%);stroke-opacity:1;stroke-miterlimit:10;" d="M 2.681397 1.048195 L 2.681397 0.16684 " transform="matrix(20.735294,0,0,20.839695,20.41608,20.839521)"/>
<path style="fill:none;stroke-width:0.0333333;stroke-linecap:butt;stroke-linejoin:miter;stroke:rgb(0%,0%,0%);stroke-opacity:1;stroke-miterlimit:10;" d="M 2.514674 1.048195 L 2.514674 0.16684 " transform="matrix(20.735294,0,0,20.839695,20.41608,20.839521)"/>
</g>
</svg>
