<?xml version="1.0" encoding="UTF-8"?>
<svg xmlns="http://www.w3.org/2000/svg" xmlns:xlink="http://www.w3.org/1999/xlink" width="120pt" height="76.8pt" viewBox="0 0 120 76.8" version="1.1">
<g id="surface747">
<path style=" stroke:none;fill-rule:nonzero;fill:rgb(0%,0%,0%);fill-opacity:1;" d="M 86.328125 13.714844 L 86.984375 13.882812 C 86.84375 14.421875 86.597656 14.828125 86.242188 15.109375 C 85.882812 15.390625 85.445312 15.53125 84.933594 15.535156 C 84.398438 15.53125 83.96875 15.425781 83.632812 15.210938 C 83.296875 14.996094 83.042969 14.679688 82.867188 14.265625 C 82.691406 13.855469 82.605469 13.414062 82.609375 12.941406 C 82.605469 12.429688 82.707031 11.980469 82.902344 11.59375 C 83.097656 11.210938 83.375 10.921875 83.742188 10.722656 C 84.105469 10.523438 84.507812 10.425781 84.945312 10.421875 C 85.4375 10.425781 85.855469 10.550781 86.191406 10.800781 C 86.53125 11.054688 86.765625 11.40625 86.898438 11.863281 L 86.253906 12.011719 C 86.136719 11.65625 85.96875 11.394531 85.753906 11.226562 C 85.53125 11.066406 85.257812 10.984375 84.929688 10.984375 C 84.546875 10.984375 84.230469 11.074219 83.976562 11.253906 C 83.71875 11.4375 83.539062 11.683594 83.4375 11.988281 C 83.335938 12.296875 83.285156 12.613281 83.285156 12.9375 C 83.285156 13.359375 83.34375 13.726562 83.46875 14.039062 C 83.585938 14.355469 83.777344 14.589844 84.039062 14.742188 C 84.296875 14.898438 84.578125 14.976562 84.878906 14.976562 C 85.246094 14.976562 85.558594 14.875 85.8125 14.660156 C 86.066406 14.449219 86.234375 14.132812 86.328125 13.714844 Z M 86.328125 13.714844 "/>
<path style=" stroke:none;fill-rule:nonzero;fill:rgb(0%,0%,0%);fill-opacity:1;" d="M 87.710938 15.449219 L 87.710938 10.503906 L 88.320312 10.503906 L 88.320312 12.28125 C 88.601562 11.953125 88.957031 11.789062 89.390625 11.785156 C 89.65625 11.789062 89.886719 11.839844 90.082031 11.945312 C 90.277344 12.050781 90.417969 12.195312 90.503906 12.378906 C 90.585938 12.566406 90.628906 12.832031 90.628906 13.183594 L 90.628906 15.449219 L 90.023438 15.449219 L 90.023438 13.183594 C 90.019531 12.878906 89.957031 12.660156 89.824219 12.519531 C 89.695312 12.378906 89.507812 12.308594 89.265625 12.308594 C 89.085938 12.308594 88.914062 12.359375 88.757812 12.449219 C 88.597656 12.546875 88.484375 12.675781 88.417969 12.832031 C 88.347656 12.992188 88.316406 13.210938 88.320312 13.492188 L 88.320312 15.449219 Z M 87.710938 15.449219 "/>
<path style=" stroke:none;fill-rule:nonzero;fill:rgb(0%,0%,0%);fill-opacity:1;" d="M 91.558594 11.203125 L 91.558594 10.503906 L 92.167969 10.503906 L 92.167969 11.203125 Z M 91.558594 15.449219 L 91.558594 11.867188 L 92.167969 11.867188 L 92.167969 15.449219 Z M 91.558594 15.449219 "/>
<path style=" stroke:none;fill-rule:nonzero;fill:rgb(0%,0%,0%);fill-opacity:1;" d="M 93.082031 15.449219 L 93.082031 11.867188 L 93.632812 11.867188 L 93.632812 12.414062 C 93.769531 12.160156 93.898438 11.992188 94.019531 11.910156 C 94.132812 11.828125 94.265625 11.789062 94.40625 11.785156 C 94.609375 11.789062 94.820312 11.855469 95.035156 11.984375 L 94.824219 12.546875 C 94.675781 12.460938 94.527344 12.414062 94.378906 12.414062 C 94.242188 12.414062 94.121094 12.457031 94.019531 12.535156 C 93.910156 12.617188 93.835938 12.726562 93.792969 12.867188 C 93.722656 13.085938 93.6875 13.320312 93.691406 13.574219 L 93.691406 15.449219 Z M 93.082031 15.449219 "/>
<path style=" stroke:none;fill-rule:nonzero;fill:rgb(0%,0%,0%);fill-opacity:1;" d="M 97.730469 15.007812 C 97.503906 15.203125 97.285156 15.335938 97.082031 15.414062 C 96.871094 15.492188 96.648438 15.53125 96.410156 15.53125 C 96.015625 15.53125 95.714844 15.4375 95.503906 15.242188 C 95.292969 15.054688 95.1875 14.808594 95.1875 14.507812 C 95.1875 14.332031 95.226562 14.171875 95.308594 14.027344 C 95.382812 13.878906 95.488281 13.765625 95.621094 13.679688 C 95.746094 13.589844 95.894531 13.527344 96.058594 13.476562 C 96.175781 13.449219 96.355469 13.417969 96.597656 13.386719 C 97.089844 13.328125 97.449219 13.257812 97.679688 13.175781 C 97.679688 13.09375 97.683594 13.042969 97.6875 13.019531 C 97.683594 12.773438 97.625 12.597656 97.511719 12.496094 C 97.355469 12.363281 97.125 12.292969 96.820312 12.292969 C 96.53125 12.292969 96.324219 12.34375 96.1875 12.441406 C 96.050781 12.546875 95.949219 12.71875 95.886719 12.972656 L 95.292969 12.890625 C 95.34375 12.640625 95.429688 12.433594 95.558594 12.273438 C 95.679688 12.121094 95.859375 12 96.097656 11.914062 C 96.328125 11.828125 96.597656 11.789062 96.910156 11.785156 C 97.214844 11.789062 97.460938 11.824219 97.652344 11.894531 C 97.84375 11.96875 97.984375 12.058594 98.078125 12.167969 C 98.164062 12.28125 98.230469 12.417969 98.265625 12.578125 C 98.285156 12.6875 98.292969 12.875 98.296875 13.140625 L 98.296875 13.949219 C 98.292969 14.515625 98.308594 14.871094 98.335938 15.023438 C 98.359375 15.171875 98.410156 15.316406 98.488281 15.449219 L 97.855469 15.449219 C 97.789062 15.328125 97.75 15.179688 97.730469 15.007812 Z M 97.679688 13.652344 C 97.460938 13.746094 97.128906 13.824219 96.691406 13.882812 C 96.4375 13.921875 96.261719 13.960938 96.15625 14.003906 C 96.050781 14.054688 95.972656 14.117188 95.921875 14.203125 C 95.863281 14.289062 95.835938 14.386719 95.835938 14.488281 C 95.835938 14.65625 95.894531 14.789062 96.019531 14.894531 C 96.140625 15.003906 96.320312 15.058594 96.558594 15.058594 C 96.789062 15.058594 96.996094 15.007812 97.179688 14.902344 C 97.363281 14.804688 97.496094 14.664062 97.582031 14.480469 C 97.644531 14.347656 97.679688 14.144531 97.679688 13.875 Z M 97.679688 13.652344 "/>
<path style=" stroke:none;fill-rule:nonzero;fill:rgb(0%,0%,0%);fill-opacity:1;" d="M 99.222656 15.449219 L 99.222656 10.503906 L 99.832031 10.503906 L 99.832031 15.449219 Z M 99.222656 15.449219 "/>
<path style=" stroke:none;fill-rule:nonzero;fill:rgb(0%,0%,0%);fill-opacity:1;" d="M 83.222656 37.765625 L 83.222656 32.820312 L 83.894531 32.820312 L 86.492188 36.703125 L 86.492188 32.820312 L 87.121094 32.820312 L 87.121094 37.765625 L 86.449219 37.765625 L 83.851562 33.882812 L 83.851562 37.765625 Z M 83.222656 37.765625 "/>
<path style=" stroke:none;fill-rule:nonzero;fill:rgb(0%,0%,0%);fill-opacity:1;" d="M 18.078125 20.710938 C 18.074219 19.894531 18.296875 19.25 18.738281 18.785156 C 19.179688 18.324219 19.746094 18.089844 20.445312 18.089844 C 20.898438 18.089844 21.3125 18.199219 21.683594 18.414062 C 22.046875 18.632812 22.324219 18.9375 22.519531 19.328125 C 22.707031 19.722656 22.804688 20.164062 22.808594 20.65625 C 22.804688 21.160156 22.703125 21.605469 22.503906 22 C 22.296875 22.398438 22.011719 22.695312 21.644531 22.898438 C 21.273438 23.101562 20.871094 23.203125 20.441406 23.203125 C 19.976562 23.203125 19.558594 23.089844 19.191406 22.867188 C 18.824219 22.644531 18.546875 22.335938 18.359375 21.945312 C 18.167969 21.558594 18.074219 21.148438 18.078125 20.710938 Z M 18.753906 20.722656 C 18.75 21.316406 18.910156 21.789062 19.234375 22.128906 C 19.550781 22.476562 19.953125 22.648438 20.441406 22.644531 C 20.933594 22.648438 21.335938 22.476562 21.65625 22.128906 C 21.972656 21.78125 22.132812 21.289062 22.132812 20.652344 C 22.132812 20.25 22.0625 19.898438 21.929688 19.597656 C 21.789062 19.296875 21.59375 19.066406 21.332031 18.902344 C 21.070312 18.738281 20.773438 18.652344 20.449219 18.652344 C 19.984375 18.652344 19.585938 18.8125 19.253906 19.128906 C 18.917969 19.449219 18.75 19.980469 18.753906 20.722656 Z M 18.753906 20.722656 "/>
<path style=" stroke:none;fill-rule:nonzero;fill:rgb(0%,0%,0%);fill-opacity:1;" d="M 35.976562 56.753906 L 36.632812 56.921875 C 36.492188 57.460938 36.246094 57.867188 35.890625 58.148438 C 35.535156 58.429688 35.097656 58.570312 34.582031 58.574219 C 34.050781 58.570312 33.617188 58.464844 33.28125 58.25 C 32.949219 58.035156 32.691406 57.71875 32.519531 57.304688 C 32.34375 56.894531 32.257812 56.453125 32.257812 55.980469 C 32.257812 55.46875 32.355469 55.019531 32.554688 54.632812 C 32.746094 54.25 33.027344 53.960938 33.394531 53.761719 C 33.753906 53.5625 34.15625 53.464844 34.59375 53.460938 C 35.089844 53.464844 35.503906 53.589844 35.84375 53.839844 C 36.179688 54.089844 36.414062 54.445312 36.546875 54.902344 L 35.902344 55.050781 C 35.785156 54.695312 35.617188 54.433594 35.402344 54.265625 C 35.179688 54.105469 34.90625 54.023438 34.582031 54.023438 C 34.199219 54.023438 33.878906 54.113281 33.625 54.292969 C 33.367188 54.476562 33.191406 54.722656 33.089844 55.027344 C 32.984375 55.335938 32.933594 55.652344 32.933594 55.976562 C 32.933594 56.398438 32.992188 56.765625 33.117188 57.078125 C 33.238281 57.394531 33.429688 57.628906 33.6875 57.78125 C 33.945312 57.9375 34.226562 58.015625 34.53125 58.015625 C 34.898438 58.015625 35.207031 57.910156 35.460938 57.699219 C 35.714844 57.488281 35.886719 57.171875 35.976562 56.753906 Z M 35.976562 56.753906 "/>
<path style=" stroke:none;fill-rule:nonzero;fill:rgb(0%,0%,0%);fill-opacity:1;" d="M 37.347656 58.488281 L 37.347656 53.542969 L 37.957031 53.542969 L 37.957031 58.488281 Z M 37.347656 58.488281 "/>
<path style=" stroke:none;fill-rule:nonzero;fill:rgb(0%,0%,0%);fill-opacity:1;" d="M 97.863281 21.527344 L 98.484375 21.476562 C 98.511719 21.722656 98.578125 21.929688 98.6875 22.085938 C 98.792969 22.246094 98.957031 22.375 99.183594 22.46875 C 99.410156 22.566406 99.664062 22.617188 99.945312 22.617188 C 100.191406 22.617188 100.410156 22.582031 100.605469 22.503906 C 100.792969 22.433594 100.9375 22.328125 101.03125 22.199219 C 101.125 22.070312 101.171875 21.929688 101.171875 21.773438 C 101.171875 21.621094 101.125 21.484375 101.039062 21.371094 C 100.945312 21.253906 100.796875 21.15625 100.59375 21.078125 C 100.457031 21.027344 100.164062 20.949219 99.710938 20.839844 C 99.253906 20.730469 98.9375 20.625 98.757812 20.527344 C 98.519531 20.402344 98.34375 20.25 98.226562 20.066406 C 98.109375 19.882812 98.050781 19.679688 98.054688 19.453125 C 98.050781 19.203125 98.125 18.972656 98.265625 18.753906 C 98.40625 18.535156 98.613281 18.371094 98.886719 18.257812 C 99.160156 18.148438 99.460938 18.089844 99.796875 18.089844 C 100.160156 18.089844 100.484375 18.152344 100.765625 18.265625 C 101.042969 18.386719 101.257812 18.558594 101.414062 18.789062 C 101.5625 19.015625 101.644531 19.277344 101.65625 19.566406 L 101.027344 19.613281 C 100.992188 19.300781 100.878906 19.066406 100.683594 18.90625 C 100.488281 18.746094 100.199219 18.667969 99.824219 18.667969 C 99.425781 18.667969 99.136719 18.738281 98.957031 18.886719 C 98.773438 19.03125 98.683594 19.207031 98.6875 19.410156 C 98.683594 19.589844 98.746094 19.734375 98.878906 19.84375 C 99 19.960938 99.332031 20.078125 99.863281 20.199219 C 100.394531 20.324219 100.757812 20.429688 100.960938 20.515625 C 101.246094 20.648438 101.460938 20.816406 101.597656 21.019531 C 101.734375 21.222656 101.800781 21.457031 101.804688 21.71875 C 101.800781 21.988281 101.726562 22.234375 101.578125 22.464844 C 101.425781 22.699219 101.207031 22.878906 100.925781 23.007812 C 100.644531 23.136719 100.324219 23.199219 99.972656 23.203125 C 99.527344 23.199219 99.148438 23.136719 98.847656 23.007812 C 98.542969 22.878906 98.304688 22.679688 98.136719 22.417969 C 97.960938 22.15625 97.875 21.859375 97.863281 21.527344 Z M 97.863281 21.527344 "/>
<path style=" stroke:none;fill-rule:nonzero;fill:rgb(0%,0%,0%);fill-opacity:1;" d="M 86.703125 56.753906 L 87.359375 56.921875 C 87.21875 57.460938 86.972656 57.867188 86.617188 58.148438 C 86.257812 58.429688 85.824219 58.570312 85.308594 58.574219 C 84.773438 58.570312 84.34375 58.464844 84.007812 58.25 C 83.671875 58.035156 83.417969 57.71875 83.242188 57.304688 C 83.066406 56.894531 82.980469 56.453125 82.984375 55.980469 C 82.980469 55.46875 83.082031 55.019531 83.277344 54.632812 C 83.472656 54.25 83.75 53.960938 84.117188 53.761719 C 84.480469 53.5625 84.882812 53.464844 85.320312 53.460938 C 85.8125 53.464844 86.230469 53.589844 86.566406 53.839844 C 86.90625 54.089844 87.140625 54.445312 87.273438 54.902344 L 86.628906 55.050781 C 86.511719 54.695312 86.34375 54.433594 86.128906 54.265625 C 85.90625 54.105469 85.632812 54.023438 85.304688 54.023438 C 84.921875 54.023438 84.605469 54.113281 84.351562 54.292969 C 84.09375 54.476562 83.914062 54.722656 83.8125 55.027344 C 83.710938 55.335938 83.660156 55.652344 83.660156 55.976562 C 83.660156 56.398438 83.71875 56.765625 83.84375 57.078125 C 83.960938 57.394531 84.152344 57.628906 84.414062 57.78125 C 84.671875 57.9375 84.953125 58.015625 85.253906 58.015625 C 85.621094 58.015625 85.933594 57.910156 86.1875 57.699219 C 86.441406 57.488281 86.609375 57.171875 86.703125 56.753906 Z M 86.703125 56.753906 "/>
<path style="fill:none;stroke-width:0.0333333;stroke-linecap:butt;stroke-linejoin:miter;stroke:rgb(0%,0%,0%);stroke-opacity:1;stroke-miterlimit:10;" d="M 0.707262 0.707117 L 1.419105 -0.00496434 " transform="matrix(20.737327,0,0,20.719424,20.442653,20.645827)"/>
<path style="fill:none;stroke-width:0.0333333;stroke-linecap:butt;stroke-linejoin:miter;stroke:rgb(0%,0%,0%);stroke-opacity:1;stroke-miterlimit:10;" d="M 1.407238 0.000125993 L 2.421034 0.000125993 " transform="matrix(20.737327,0,0,20.719424,20.442653,20.645827)"/>
<path style="fill:none;stroke-width:0.0333333;stroke-linecap:butt;stroke-linejoin:miter;stroke:rgb(0%,0%,0%);stroke-opacity:1;stroke-miterlimit:10;" d="M 1.476369 0.166787 L 2.351903 0.166787 " transform="matrix(20.737327,0,0,20.719424,20.442653,20.645827)"/>
<path style="fill:none;stroke-width:0.0333333;stroke-linecap:butt;stroke-linejoin:miter;stroke:rgb(0%,0%,0%);stroke-opacity:1;stroke-miterlimit:10;" d="M 2.409356 -0.00496434 L 2.971446 0.557235 " transform="matrix(20.737327,0,0,20.719424,20.442653,20.645827)"/>
<path style="fill:none;stroke-width:0.0333333;stroke-linecap:butt;stroke-linejoin:miter;stroke:rgb(0%,0%,0%);stroke-opacity:1;stroke-miterlimit:10;" d="M 0.707262 0.707117 L 0.162125 0.162074 " transform="matrix(20.737327,0,0,20.719424,20.442653,20.645827)"/>
<path style=" stroke:none;fill-rule:nonzero;fill:rgb(0%,0%,0%);fill-opacity:1;" d="M 35.109375 35.296875 L 32.6875 52.5625 L 37.527344 52.5625 "/>
<path style="fill:none;stroke-width:0.0333333;stroke-linecap:butt;stroke-linejoin:miter;stroke:rgb(0%,0%,0%);stroke-opacity:1;stroke-miterlimit:10;" d="M 3.271328 0.557235 L 3.675942 0.152459 " transform="matrix(20.737327,0,0,20.719424,20.442653,20.645827)"/>
<path style=" stroke:none;fill-rule:nonzero;fill:rgb(0%,0%,0%);fill-opacity:1;" d="M 85.167969 38.667969 L 82.75 52.5625 L 87.589844 52.5625 "/>
</g>
</svg>
