<?xml version="1.0" encoding="UTF-8"?>
<svg xmlns="http://www.w3.org/2000/svg" xmlns:xlink="http://www.w3.org/1999/xlink" width="98.4pt" height="80pt" viewBox="0 0 98.4 80" version="1.1">
<g id="surface727">
<path style=" stroke:none;fill-rule:nonzero;fill:rgb(0%,0%,0%);fill-opacity:1;" d="M 75.25 20.441406 C 75.246094 19.625 75.46875 18.984375 75.910156 18.519531 C 76.351562 18.058594 76.917969 17.824219 77.617188 17.824219 C 78.070312 17.824219 78.484375 17.933594 78.855469 18.148438 C 79.21875 18.367188 79.496094 18.671875 79.691406 19.058594 C 79.878906 19.453125 79.976562 19.894531 79.980469 20.386719 C 79.976562 20.890625 79.875 21.335938 79.675781 21.730469 C 79.46875 22.125 79.183594 22.425781 78.816406 22.625 C 78.441406 22.828125 78.042969 22.929688 77.613281 22.929688 C 77.148438 22.929688 76.730469 22.816406 76.363281 22.59375 C 75.996094 22.371094 75.71875 22.0625 75.535156 21.675781 C 75.34375 21.289062 75.246094 20.878906 75.25 20.441406 Z M 75.925781 20.453125 C 75.921875 21.046875 76.085938 21.515625 76.40625 21.859375 C 76.722656 22.203125 77.125 22.375 77.613281 22.375 C 78.101562 22.375 78.507812 22.203125 78.828125 21.855469 C 79.144531 21.511719 79.304688 21.019531 79.304688 20.382812 C 79.304688 19.980469 79.234375 19.632812 79.097656 19.328125 C 78.960938 19.03125 78.765625 18.796875 78.503906 18.632812 C 78.242188 18.46875 77.945312 18.386719 77.621094 18.386719 C 77.15625 18.386719 76.757812 18.546875 76.425781 18.863281 C 76.089844 19.179688 75.921875 19.710938 75.925781 20.453125 Z M 75.925781 20.453125 "/>
<path style=" stroke:none;fill-rule:nonzero;fill:rgb(0%,0%,0%);fill-opacity:1;" d="M 58.894531 55.699219 L 58.894531 50.757812 L 59.566406 50.757812 L 62.164062 54.636719 L 62.164062 50.757812 L 62.792969 50.757812 L 62.792969 55.699219 L 62.121094 55.699219 L 59.523438 51.820312 L 59.523438 55.699219 Z M 58.894531 55.699219 "/>
<path style=" stroke:none;fill-rule:nonzero;fill:rgb(0%,0%,0%);fill-opacity:1;" d="M 18.144531 24.050781 C 18.140625 23.234375 18.363281 22.589844 18.804688 22.125 C 19.246094 21.664062 19.8125 21.433594 20.511719 21.429688 C 20.964844 21.433594 21.378906 21.539062 21.746094 21.757812 C 22.113281 21.976562 22.390625 22.277344 22.585938 22.667969 C 22.773438 23.058594 22.871094 23.503906 22.875 23.992188 C 22.871094 24.496094 22.769531 24.945312 22.570312 25.335938 C 22.363281 25.734375 22.078125 26.03125 21.710938 26.234375 C 21.335938 26.4375 20.9375 26.535156 20.507812 26.539062 C 20.042969 26.535156 19.625 26.425781 19.257812 26.203125 C 18.890625 25.976562 18.613281 25.671875 18.429688 25.28125 C 18.234375 24.894531 18.140625 24.484375 18.144531 24.050781 Z M 18.820312 24.058594 C 18.816406 24.65625 18.976562 25.125 19.300781 25.464844 C 19.617188 25.8125 20.019531 25.984375 20.507812 25.980469 C 20.996094 25.984375 21.402344 25.8125 21.722656 25.464844 C 22.039062 25.117188 22.199219 24.625 22.199219 23.988281 C 22.199219 23.589844 22.128906 23.238281 21.992188 22.9375 C 21.855469 22.636719 21.660156 22.40625 21.398438 22.242188 C 21.136719 22.078125 20.839844 21.992188 20.515625 21.992188 C 20.050781 21.992188 19.652344 22.152344 19.320312 22.46875 C 18.984375 22.789062 18.816406 23.320312 18.820312 24.058594 Z M 18.820312 24.058594 "/>
<path style="fill:none;stroke-width:0.0333333;stroke-linecap:butt;stroke-linejoin:miter;stroke:rgb(0%,0%,0%);stroke-opacity:1;stroke-miterlimit:10;" d="M 1.777378 1.642439 L 0.982951 1.900532 " transform="matrix(20.730337,0,0,20.689655,20.509815,20.377872)"/>
<path style="fill:none;stroke-width:0.0333333;stroke-linecap:butt;stroke-linejoin:miter;stroke:rgb(0%,0%,0%);stroke-opacity:1;stroke-miterlimit:10;" d="M 1.945648 0.690877 L 2.621175 0.199991 " transform="matrix(20.730337,0,0,20.689655,20.509815,20.377872)"/>
<path style="fill:none;stroke-width:0.0333333;stroke-linecap:butt;stroke-linejoin:miter;stroke:rgb(0%,0%,0%);stroke-opacity:1;stroke-miterlimit:10;" d="M 1.847663 0.555883 L 2.523191 0.0649979 " transform="matrix(20.730337,0,0,20.689655,20.509815,20.377872)"/>
<path style="fill:none;stroke-width:0.0333333;stroke-linecap:butt;stroke-linejoin:miter;stroke:rgb(0%,0%,0%);stroke-opacity:1;stroke-miterlimit:10;" d="M 1.945648 0.575708 L 1.945648 1.425317 " transform="matrix(20.730337,0,0,20.689655,20.509815,20.377872)"/>
<path style="fill:none;stroke-width:0.0333333;stroke-linecap:butt;stroke-linejoin:miter;stroke:rgb(0%,0%,0%);stroke-opacity:1;stroke-miterlimit:10;" d="M 1.001606 1.906573 L 0.405597 1.086417 " transform="matrix(20.730337,0,0,20.689655,20.509815,20.377872)"/>
<path style="fill:none;stroke-width:0.0333333;stroke-linecap:butt;stroke-linejoin:miter;stroke:rgb(0%,0%,0%);stroke-opacity:1;stroke-miterlimit:10;" d="M 0.406727 1.087928 L 0.994445 0.278722 " transform="matrix(20.730337,0,0,20.689655,20.509815,20.377872)"/>
<path style="fill:none;stroke-width:0.0333333;stroke-linecap:butt;stroke-linejoin:miter;stroke:rgb(0%,0%,0%);stroke-opacity:1;stroke-miterlimit:10;" d="M 0.407292 1.089438 L 0.0879009 0.37199 " transform="matrix(20.730337,0,0,20.689655,20.509815,20.377872)"/>
<path style="fill:none;stroke-width:0.0333333;stroke-linecap:butt;stroke-linejoin:miter;stroke:rgb(0%,0%,0%);stroke-opacity:1;stroke-miterlimit:10;" d="M 0.167984 0.191873 L 0.996141 0.278911 " transform="matrix(20.730337,0,0,20.689655,20.509815,20.377872)"/>
<path style="fill:none;stroke-width:0.0333333;stroke-linecap:butt;stroke-linejoin:miter;stroke:rgb(0%,0%,0%);stroke-opacity:1;stroke-miterlimit:10;" d="M 1.957142 0.591567 L 0.992749 0.278155 " transform="matrix(20.730337,0,0,20.689655,20.509815,20.377872)"/>
</g>
</svg>
