<?xml version="1.0" encoding="UTF-8"?>
<svg xmlns="http://www.w3.org/2000/svg" xmlns:xlink="http://www.w3.org/1999/xlink" width="208pt" height="167.2pt" viewBox="0 0 208 167.2" version="1.1">
<g id="surface842">
<path style=" stroke:none;fill-rule:nonzero;fill:rgb(0%,0%,0%);fill-opacity:1;" d="M 173.652344 13.5625 L 174.3125 13.730469 C 174.171875 14.273438 173.921875 14.683594 173.566406 14.964844 C 173.207031 15.246094 172.769531 15.386719 172.253906 15.390625 C 171.71875 15.386719 171.285156 15.28125 170.949219 15.0625 C 170.613281 14.847656 170.355469 14.53125 170.183594 14.113281 C 170.007812 13.703125 169.921875 13.257812 169.921875 12.78125 C 169.921875 12.269531 170.019531 11.816406 170.21875 11.429688 C 170.414062 11.042969 170.691406 10.75 171.0625 10.550781 C 171.425781 10.351562 171.828125 10.253906 172.265625 10.25 C 172.761719 10.253906 173.179688 10.378906 173.515625 10.628906 C 173.855469 10.882812 174.089844 11.238281 174.222656 11.699219 L 173.578125 11.851562 C 173.460938 11.492188 173.292969 11.230469 173.074219 11.0625 C 172.855469 10.898438 172.582031 10.8125 172.253906 10.8125 C 171.867188 10.8125 171.546875 10.90625 171.292969 11.089844 C 171.035156 11.273438 170.859375 11.519531 170.753906 11.824219 C 170.652344 12.136719 170.601562 12.453125 170.601562 12.78125 C 170.601562 13.203125 170.660156 13.574219 170.785156 13.886719 C 170.902344 14.203125 171.097656 14.441406 171.355469 14.59375 C 171.617188 14.753906 171.898438 14.832031 172.203125 14.828125 C 172.570312 14.832031 172.882812 14.726562 173.136719 14.511719 C 173.390625 14.300781 173.5625 13.980469 173.652344 13.5625 Z M 173.652344 13.5625 "/>
<path style=" stroke:none;fill-rule:nonzero;fill:rgb(0%,0%,0%);fill-opacity:1;" d="M 175.042969 15.304688 L 175.042969 10.332031 L 175.652344 10.332031 L 175.652344 12.117188 C 175.933594 11.789062 176.289062 11.625 176.726562 11.621094 C 176.992188 11.625 177.222656 11.675781 177.417969 11.78125 C 177.613281 11.886719 177.753906 12.035156 177.84375 12.21875 C 177.925781 12.40625 177.964844 12.675781 177.96875 13.023438 L 177.96875 15.304688 L 177.359375 15.304688 L 177.359375 13.023438 C 177.355469 12.722656 177.292969 12.5 177.164062 12.355469 C 177.03125 12.21875 176.84375 12.148438 176.601562 12.148438 C 176.421875 12.148438 176.25 12.199219 176.09375 12.289062 C 175.929688 12.386719 175.816406 12.515625 175.75 12.671875 C 175.679688 12.835938 175.648438 13.054688 175.652344 13.335938 L 175.652344 15.304688 Z M 175.042969 15.304688 "/>
<path style=" stroke:none;fill-rule:nonzero;fill:rgb(0%,0%,0%);fill-opacity:1;" d="M 178.898438 11.035156 L 178.898438 10.332031 L 179.507812 10.332031 L 179.507812 11.035156 Z M 178.898438 15.304688 L 178.898438 11.703125 L 179.507812 11.703125 L 179.507812 15.304688 Z M 178.898438 15.304688 "/>
<path style=" stroke:none;fill-rule:nonzero;fill:rgb(0%,0%,0%);fill-opacity:1;" d="M 180.429688 15.304688 L 180.429688 11.703125 L 180.980469 11.703125 L 180.980469 12.25 C 181.117188 11.996094 181.246094 11.828125 181.367188 11.746094 C 181.484375 11.664062 181.613281 11.625 181.757812 11.621094 C 181.960938 11.625 182.171875 11.691406 182.386719 11.820312 L 182.175781 12.386719 C 182.023438 12.300781 181.875 12.253906 181.726562 12.253906 C 181.589844 12.253906 181.46875 12.292969 181.367188 12.375 C 181.257812 12.457031 181.183594 12.570312 181.140625 12.707031 C 181.070312 12.925781 181.035156 13.164062 181.039062 13.421875 L 181.039062 15.304688 Z M 180.429688 15.304688 "/>
<path style=" stroke:none;fill-rule:nonzero;fill:rgb(0%,0%,0%);fill-opacity:1;" d="M 185.09375 14.859375 C 184.863281 15.054688 184.644531 15.191406 184.441406 15.269531 C 184.226562 15.347656 184.007812 15.386719 183.769531 15.386719 C 183.371094 15.386719 183.070312 15.292969 182.859375 15.097656 C 182.648438 14.90625 182.539062 14.660156 182.539062 14.355469 C 182.539062 14.183594 182.578125 14.019531 182.660156 13.875 C 182.734375 13.726562 182.839844 13.609375 182.972656 13.523438 C 183.101562 13.4375 183.246094 13.371094 183.414062 13.324219 C 183.53125 13.292969 183.710938 13.261719 183.953125 13.230469 C 184.449219 13.171875 184.808594 13.101562 185.039062 13.019531 C 185.039062 12.9375 185.042969 12.886719 185.046875 12.863281 C 185.042969 12.613281 184.988281 12.4375 184.871094 12.335938 C 184.714844 12.199219 184.484375 12.132812 184.179688 12.128906 C 183.890625 12.132812 183.679688 12.183594 183.542969 12.28125 C 183.40625 12.382812 183.304688 12.5625 183.238281 12.8125 L 182.644531 12.730469 C 182.695312 12.480469 182.785156 12.273438 182.910156 12.113281 C 183.035156 11.957031 183.214844 11.835938 183.449219 11.75 C 183.683594 11.664062 183.953125 11.625 184.265625 11.621094 C 184.570312 11.625 184.820312 11.660156 185.015625 11.730469 C 185.207031 11.804688 185.347656 11.894531 185.4375 12.003906 C 185.527344 12.117188 185.589844 12.257812 185.628906 12.417969 C 185.648438 12.527344 185.65625 12.714844 185.660156 12.984375 L 185.660156 13.796875 C 185.65625 14.363281 185.667969 14.722656 185.695312 14.875 C 185.71875 15.027344 185.773438 15.171875 185.851562 15.304688 L 185.214844 15.304688 C 185.148438 15.179688 185.109375 15.035156 185.09375 14.859375 Z M 185.039062 13.5 C 184.820312 13.589844 184.488281 13.671875 184.046875 13.730469 C 183.796875 13.769531 183.617188 13.808594 183.511719 13.851562 C 183.40625 13.902344 183.328125 13.964844 183.273438 14.050781 C 183.21875 14.140625 183.191406 14.238281 183.191406 14.339844 C 183.191406 14.503906 183.25 14.640625 183.375 14.746094 C 183.496094 14.859375 183.675781 14.914062 183.914062 14.910156 C 184.148438 14.914062 184.355469 14.859375 184.539062 14.753906 C 184.722656 14.65625 184.855469 14.511719 184.941406 14.332031 C 185.003906 14.195312 185.039062 13.992188 185.039062 13.722656 Z M 185.039062 13.5 "/>
<path style=" stroke:none;fill-rule:nonzero;fill:rgb(0%,0%,0%);fill-opacity:1;" d="M 186.589844 15.304688 L 186.589844 10.332031 L 187.199219 10.332031 L 187.199219 15.304688 Z M 186.589844 15.304688 "/>
<path style=" stroke:none;fill-rule:nonzero;fill:rgb(0%,0%,0%);fill-opacity:1;" d="M 153.628906 74.714844 C 153.625 73.894531 153.847656 73.25 154.292969 72.78125 C 154.734375 72.316406 155.300781 72.082031 156.003906 72.078125 C 156.457031 72.082031 156.871094 72.191406 157.242188 72.40625 C 157.609375 72.628906 157.886719 72.933594 158.082031 73.324219 C 158.273438 73.71875 158.371094 74.164062 158.371094 74.660156 C 158.371094 75.167969 158.265625 75.617188 158.066406 76.011719 C 157.859375 76.410156 157.574219 76.710938 157.207031 76.914062 C 156.832031 77.121094 156.429688 77.21875 156 77.222656 C 155.53125 77.21875 155.113281 77.109375 154.746094 76.882812 C 154.378906 76.65625 154.097656 76.347656 153.910156 75.957031 C 153.71875 75.566406 153.625 75.15625 153.628906 74.714844 Z M 154.304688 74.726562 C 154.300781 75.328125 154.464844 75.796875 154.785156 76.144531 C 155.105469 76.488281 155.511719 76.664062 155.996094 76.660156 C 156.488281 76.664062 156.894531 76.488281 157.214844 76.140625 C 157.535156 75.792969 157.695312 75.296875 157.695312 74.65625 C 157.695312 74.253906 157.625 73.898438 157.488281 73.597656 C 157.351562 73.292969 157.152344 73.0625 156.890625 72.894531 C 156.628906 72.730469 156.332031 72.648438 156.007812 72.648438 C 155.539062 72.648438 155.140625 72.804688 154.804688 73.125 C 154.46875 73.445312 154.300781 73.980469 154.304688 74.726562 Z M 154.304688 74.726562 "/>
<path style=" stroke:none;fill-rule:nonzero;fill:rgb(0%,0%,0%);fill-opacity:1;" d="M 122.425781 92.753906 C 122.425781 91.933594 122.648438 91.289062 123.089844 90.820312 C 123.53125 90.355469 124.101562 90.121094 124.800781 90.121094 C 125.257812 90.121094 125.671875 90.230469 126.042969 90.449219 C 126.410156 90.667969 126.6875 90.972656 126.882812 91.363281 C 127.074219 91.761719 127.167969 92.207031 127.171875 92.699219 C 127.167969 93.207031 127.066406 93.65625 126.867188 94.050781 C 126.660156 94.449219 126.375 94.75 126.003906 94.957031 C 125.632812 95.160156 125.230469 95.257812 124.800781 95.261719 C 124.332031 95.257812 123.914062 95.148438 123.546875 94.921875 C 123.175781 94.699219 122.898438 94.386719 122.710938 93.996094 C 122.519531 93.605469 122.425781 93.195312 122.425781 92.753906 Z M 123.105469 92.765625 C 123.101562 93.367188 123.265625 93.839844 123.585938 94.183594 C 123.90625 94.53125 124.308594 94.703125 124.796875 94.699219 C 125.289062 94.703125 125.695312 94.53125 126.015625 94.179688 C 126.335938 93.832031 126.496094 93.335938 126.496094 92.695312 C 126.496094 92.292969 126.425781 91.9375 126.289062 91.636719 C 126.152344 91.335938 125.953125 91.101562 125.691406 90.9375 C 125.429688 90.769531 125.132812 90.6875 124.808594 90.6875 C 124.339844 90.6875 123.9375 90.847656 123.605469 91.167969 C 123.269531 91.484375 123.101562 92.019531 123.105469 92.765625 Z M 123.105469 92.765625 "/>
<path style=" stroke:none;fill-rule:nonzero;fill:rgb(0%,0%,0%);fill-opacity:1;" d="M 49.628906 74.714844 C 49.625 73.894531 49.847656 73.25 50.292969 72.78125 C 50.734375 72.316406 51.300781 72.082031 52.003906 72.078125 C 52.457031 72.082031 52.871094 72.191406 53.242188 72.40625 C 53.609375 72.628906 53.886719 72.933594 54.082031 73.324219 C 54.273438 73.71875 54.371094 74.164062 54.371094 74.660156 C 54.371094 75.167969 54.265625 75.617188 54.066406 76.011719 C 53.859375 76.410156 53.574219 76.710938 53.207031 76.914062 C 52.832031 77.121094 52.429688 77.21875 52 77.222656 C 51.53125 77.21875 51.113281 77.109375 50.746094 76.882812 C 50.378906 76.65625 50.097656 76.347656 49.910156 75.957031 C 49.71875 75.566406 49.625 75.15625 49.628906 74.714844 Z M 50.304688 74.726562 C 50.300781 75.328125 50.464844 75.796875 50.785156 76.144531 C 51.105469 76.488281 51.511719 76.664062 51.996094 76.660156 C 52.488281 76.664062 52.894531 76.488281 53.214844 76.140625 C 53.535156 75.792969 53.695312 75.296875 53.695312 74.65625 C 53.695312 74.253906 53.625 73.898438 53.488281 73.597656 C 53.351562 73.292969 53.152344 73.0625 52.890625 72.894531 C 52.628906 72.730469 52.332031 72.648438 52.007812 72.648438 C 51.539062 72.648438 51.140625 72.804688 50.804688 73.125 C 50.46875 73.445312 50.300781 73.980469 50.304688 74.726562 Z M 50.304688 74.726562 "/>
<path style=" stroke:none;fill-rule:nonzero;fill:rgb(0%,0%,0%);fill-opacity:1;" d="M 80.828125 92.753906 C 80.824219 91.933594 81.046875 91.289062 81.492188 90.820312 C 81.933594 90.355469 82.5 90.121094 83.203125 90.121094 C 83.65625 90.121094 84.070312 90.230469 84.441406 90.449219 C 84.808594 90.667969 85.085938 90.972656 85.28125 91.363281 C 85.472656 91.761719 85.570312 92.207031 85.574219 92.699219 C 85.570312 93.207031 85.46875 93.65625 85.265625 94.050781 C 85.0625 94.449219 84.773438 94.75 84.40625 94.957031 C 84.03125 95.160156 83.628906 95.257812 83.199219 95.261719 C 82.730469 95.257812 82.3125 95.148438 81.945312 94.921875 C 81.578125 94.699219 81.296875 94.386719 81.113281 93.996094 C 80.917969 93.605469 80.824219 93.195312 80.828125 92.753906 Z M 81.503906 92.765625 C 81.5 93.367188 81.664062 93.839844 81.988281 94.183594 C 82.304688 94.53125 82.710938 94.703125 83.199219 94.699219 C 83.691406 94.703125 84.097656 94.53125 84.417969 94.179688 C 84.734375 93.832031 84.894531 93.335938 84.894531 92.695312 C 84.894531 92.292969 84.824219 91.9375 84.691406 91.636719 C 84.550781 91.335938 84.355469 91.101562 84.089844 90.9375 C 83.828125 90.769531 83.53125 90.6875 83.207031 90.6875 C 82.738281 90.6875 82.339844 90.847656 82.003906 91.167969 C 81.667969 91.484375 81.5 92.019531 81.503906 92.765625 Z M 81.503906 92.765625 "/>
<path style=" stroke:none;fill-rule:nonzero;fill:rgb(0%,0%,0%);fill-opacity:1;" d="M 143.226562 56.675781 C 143.226562 55.855469 143.445312 55.210938 143.890625 54.738281 C 144.332031 54.277344 144.902344 54.042969 145.601562 54.039062 C 146.058594 54.042969 146.472656 54.152344 146.84375 54.367188 C 147.207031 54.589844 147.488281 54.894531 147.683594 55.285156 C 147.871094 55.679688 147.96875 56.125 147.972656 56.621094 C 147.96875 57.125 147.867188 57.578125 147.667969 57.972656 C 147.460938 58.371094 147.171875 58.671875 146.804688 58.875 C 146.429688 59.078125 146.03125 59.179688 145.601562 59.183594 C 145.132812 59.179688 144.714844 59.070312 144.347656 58.84375 C 143.976562 58.617188 143.699219 58.308594 143.511719 57.917969 C 143.320312 57.527344 143.226562 57.117188 143.226562 56.675781 Z M 143.90625 56.6875 C 143.902344 57.285156 144.0625 57.757812 144.386719 58.101562 C 144.707031 58.449219 145.109375 58.625 145.597656 58.621094 C 146.089844 58.625 146.496094 58.449219 146.816406 58.101562 C 147.136719 57.753906 147.296875 57.257812 147.296875 56.617188 C 147.296875 56.210938 147.226562 55.859375 147.089844 55.554688 C 146.953125 55.253906 146.753906 55.023438 146.492188 54.855469 C 146.226562 54.691406 145.933594 54.605469 145.609375 54.605469 C 145.140625 54.605469 144.738281 54.765625 144.40625 55.085938 C 144.070312 55.40625 143.902344 55.941406 143.90625 56.6875 Z M 143.90625 56.6875 "/>
<path style=" stroke:none;fill-rule:nonzero;fill:rgb(0%,0%,0%);fill-opacity:1;" d="M 80.828125 20.59375 C 80.824219 19.773438 81.046875 19.128906 81.492188 18.65625 C 81.933594 18.195312 82.5 17.960938 83.203125 17.957031 C 83.65625 17.960938 84.070312 18.070312 84.441406 18.285156 C 84.808594 18.507812 85.085938 18.8125 85.28125 19.203125 C 85.472656 19.597656 85.570312 20.042969 85.574219 20.539062 C 85.570312 21.042969 85.46875 21.496094 85.265625 21.890625 C 85.0625 22.289062 84.773438 22.589844 84.40625 22.792969 C 84.03125 22.996094 83.628906 23.097656 83.199219 23.101562 C 82.730469 23.097656 82.3125 22.988281 81.945312 22.761719 C 81.578125 22.535156 81.296875 22.226562 81.113281 21.835938 C 80.917969 21.445312 80.824219 21.035156 80.828125 20.59375 Z M 81.503906 20.605469 C 81.5 21.203125 81.664062 21.675781 81.988281 22.019531 C 82.304688 22.367188 82.710938 22.542969 83.199219 22.539062 C 83.691406 22.542969 84.097656 22.367188 84.417969 22.019531 C 84.734375 21.671875 84.894531 21.175781 84.894531 20.535156 C 84.894531 20.128906 84.824219 19.777344 84.691406 19.472656 C 84.550781 19.171875 84.355469 18.941406 84.089844 18.773438 C 83.828125 18.609375 83.53125 18.523438 83.207031 18.523438 C 82.738281 18.523438 82.339844 18.683594 82.003906 19.003906 C 81.667969 19.324219 81.5 19.859375 81.503906 20.605469 Z M 81.503906 20.605469 "/>
<path style=" stroke:none;fill-rule:nonzero;fill:rgb(0%,0%,0%);fill-opacity:1;" d="M 122.425781 20.59375 C 122.425781 19.773438 122.648438 19.128906 123.089844 18.65625 C 123.53125 18.195312 124.101562 17.960938 124.800781 17.957031 C 125.257812 17.960938 125.671875 18.070312 126.042969 18.285156 C 126.410156 18.507812 126.6875 18.8125 126.882812 19.203125 C 127.074219 19.597656 127.167969 20.042969 127.171875 20.539062 C 127.167969 21.042969 127.066406 21.496094 126.867188 21.890625 C 126.660156 22.289062 126.375 22.589844 126.003906 22.792969 C 125.632812 22.996094 125.230469 23.097656 124.800781 23.101562 C 124.332031 23.097656 123.914062 22.988281 123.546875 22.761719 C 123.175781 22.535156 122.898438 22.226562 122.710938 21.835938 C 122.519531 21.445312 122.425781 21.035156 122.425781 20.59375 Z M 123.105469 20.605469 C 123.101562 21.203125 123.265625 21.675781 123.585938 22.019531 C 123.90625 22.367188 124.308594 22.542969 124.796875 22.539062 C 125.289062 22.542969 125.695312 22.367188 126.015625 22.019531 C 126.335938 21.671875 126.496094 21.175781 126.496094 20.535156 C 126.496094 20.128906 126.425781 19.777344 126.289062 19.472656 C 126.152344 19.171875 125.953125 18.941406 125.691406 18.773438 C 125.429688 18.609375 125.132812 18.523438 124.808594 18.523438 C 124.339844 18.523438 123.9375 18.683594 123.605469 19.003906 C 123.269531 19.324219 123.101562 19.859375 123.105469 20.605469 Z M 123.105469 20.605469 "/>
<path style=" stroke:none;fill-rule:nonzero;fill:rgb(0%,0%,0%);fill-opacity:1;" d="M 60.027344 56.675781 C 60.023438 55.855469 60.246094 55.210938 60.691406 54.738281 C 61.132812 54.277344 61.703125 54.042969 62.402344 54.039062 C 62.859375 54.042969 63.273438 54.152344 63.644531 54.367188 C 64.007812 54.589844 64.289062 54.894531 64.484375 55.285156 C 64.671875 55.679688 64.769531 56.125 64.773438 56.621094 C 64.769531 57.125 64.667969 57.578125 64.464844 57.972656 C 64.261719 58.371094 63.972656 58.671875 63.605469 58.875 C 63.230469 59.078125 62.832031 59.179688 62.398438 59.183594 C 61.929688 59.179688 61.515625 59.070312 61.144531 58.84375 C 60.777344 58.617188 60.5 58.308594 60.3125 57.917969 C 60.121094 57.527344 60.023438 57.117188 60.027344 56.675781 Z M 60.703125 56.6875 C 60.703125 57.285156 60.863281 57.757812 61.1875 58.101562 C 61.507812 58.449219 61.910156 58.625 62.398438 58.621094 C 62.890625 58.625 63.296875 58.449219 63.617188 58.101562 C 63.9375 57.753906 64.09375 57.257812 64.09375 56.617188 C 64.09375 56.210938 64.023438 55.859375 63.890625 55.554688 C 63.75 55.253906 63.554688 55.023438 63.292969 54.855469 C 63.027344 54.691406 62.734375 54.605469 62.40625 54.605469 C 61.941406 54.605469 61.539062 54.765625 61.207031 55.085938 C 60.871094 55.40625 60.703125 55.941406 60.703125 56.6875 Z M 60.703125 56.6875 "/>
<path style=" stroke:none;fill-rule:nonzero;fill:rgb(0%,0%,0%);fill-opacity:1;" d="M 114.398438 74.652344 L 120.378906 89.878906 L 124.582031 87.449219 "/>
<path style="fill:none;stroke-width:0.0333333;stroke-linecap:butt;stroke-linejoin:miter;stroke:rgb(0%,0%,0%);stroke-opacity:1;stroke-miterlimit:10;" d="M 6.048165 3.547296 L 6.460575 2.833013 " transform="matrix(20.8,0,0,20.830565,20.799732,20.529706)"/>
<path style="fill:none;stroke-width:0.0333333;stroke-linecap:butt;stroke-linejoin:miter;stroke:rgb(0%,0%,0%);stroke-opacity:1;stroke-miterlimit:10;" d="M 5.903746 3.464034 L 6.316344 2.749752 " transform="matrix(20.8,0,0,20.830565,20.799732,20.529706)"/>
<path style="fill:none;stroke-width:0.0333333;stroke-linecap:butt;stroke-linejoin:miter;stroke:rgb(0%,0%,0%);stroke-opacity:1;stroke-miterlimit:10;" d="M 6.009666 3.464034 L 5.157427 3.464034 " transform="matrix(20.8,0,0,20.830565,20.799732,20.529706)"/>
<path style="fill:none;stroke-width:0.0333333;stroke-linecap:butt;stroke-linejoin:miter;stroke:rgb(0%,0%,0%);stroke-opacity:1;stroke-miterlimit:10;" d="M 5.995205 5.204641 L 6.500013 4.330212 " transform="matrix(20.8,0,0,20.830565,20.799732,20.529706)"/>
<path style="fill:none;stroke-width:0.0333333;stroke-linecap:butt;stroke-linejoin:miter;stroke:rgb(0%,0%,0%);stroke-opacity:1;stroke-miterlimit:10;" d="M 7.509628 4.330212 L 6.500013 4.330212 " transform="matrix(20.8,0,0,20.830565,20.799732,20.529706)"/>
<path style="fill:none;stroke-width:0.0333333;stroke-linecap:butt;stroke-linejoin:miter;stroke:rgb(0%,0%,0%);stroke-opacity:1;stroke-miterlimit:10;" d="M 7.495168 4.321773 L 8.004858 5.204641 " transform="matrix(20.8,0,0,20.830565,20.799732,20.529706)"/>
<path style="fill:none;stroke-width:0.0333333;stroke-linecap:butt;stroke-linejoin:miter;stroke:rgb(0%,0%,0%);stroke-opacity:1;stroke-miterlimit:10;" d="M 8.004858 5.187951 L 7.495168 6.070631 " transform="matrix(20.8,0,0,20.830565,20.799732,20.529706)"/>
<path style="fill:none;stroke-width:0.0333333;stroke-linecap:butt;stroke-linejoin:miter;stroke:rgb(0%,0%,0%);stroke-opacity:1;stroke-miterlimit:10;" d="M 7.509628 6.062192 L 6.490435 6.062192 " transform="matrix(20.8,0,0,20.830565,20.799732,20.529706)"/>
<path style="fill:none;stroke-width:0.0333333;stroke-linecap:butt;stroke-linejoin:miter;stroke:rgb(0%,0%,0%);stroke-opacity:1;stroke-miterlimit:10;" d="M 6.504896 6.070631 L 5.995205 5.187951 " transform="matrix(20.8,0,0,20.830565,20.799732,20.529706)"/>
<path style="fill:none;stroke-width:0.0333333;stroke-linecap:butt;stroke-linejoin:miter;stroke:rgb(0%,0%,0%);stroke-opacity:1;stroke-miterlimit:10;" d="M 3.455391 2.654114 L 3.473796 2.664616 M 3.411071 2.709809 L 3.447879 2.731 M 3.366562 2.765692 L 3.421587 2.797571 M 3.322053 2.821387 L 3.395483 2.863955 M 3.277544 2.877269 L 3.369379 2.930526 M 3.233036 2.933151 L 3.343275 2.99691 M 3.188527 2.989034 L 3.316983 3.063481 M 3.144018 3.044916 L 3.291066 3.129865 M 3.09951 3.100799 L 3.264774 3.196249 M 3.055001 3.156681 L 3.238858 3.26282 M 3.010492 3.212564 L 3.212565 3.329204 " transform="matrix(20.8,0,0,20.830565,20.799732,20.529706)"/>
<path style="fill:none;stroke-width:0.0333333;stroke-linecap:butt;stroke-linejoin:miter;stroke:rgb(0%,0%,0%);stroke-opacity:1;stroke-miterlimit:10;" d="M 2.096279 3.464034 L 1.683682 2.749752 " transform="matrix(20.8,0,0,20.830565,20.799732,20.529706)"/>
<path style="fill:none;stroke-width:0.0333333;stroke-linecap:butt;stroke-linejoin:miter;stroke:rgb(0%,0%,0%);stroke-opacity:1;stroke-miterlimit:10;" d="M 1.951861 3.547296 L 1.539451 2.833013 " transform="matrix(20.8,0,0,20.830565,20.799732,20.529706)"/>
<path style="fill:none;stroke-width:0.0333333;stroke-linecap:butt;stroke-linejoin:miter;stroke:rgb(0%,0%,0%);stroke-opacity:1;stroke-miterlimit:10;" d="M 1.99036 3.464034 L 2.842599 3.464034 " transform="matrix(20.8,0,0,20.830565,20.799732,20.529706)"/>
<path style="fill:none;stroke-width:0.0333333;stroke-linecap:butt;stroke-linejoin:miter;stroke:rgb(0%,0%,0%);stroke-opacity:1;stroke-miterlimit:10;" d="M 0.490397 4.330212 L 1.500013 4.330212 " transform="matrix(20.8,0,0,20.830565,20.799732,20.529706)"/>
<path style="fill:none;stroke-width:0.0333333;stroke-linecap:butt;stroke-linejoin:miter;stroke:rgb(0%,0%,0%);stroke-opacity:1;stroke-miterlimit:10;" d="M 2.004821 5.204641 L 1.500013 4.330212 " transform="matrix(20.8,0,0,20.830565,20.799732,20.529706)"/>
<path style="fill:none;stroke-width:0.0333333;stroke-linecap:butt;stroke-linejoin:miter;stroke:rgb(0%,0%,0%);stroke-opacity:1;stroke-miterlimit:10;" d="M 2.004821 5.187951 L 1.49513 6.070631 " transform="matrix(20.8,0,0,20.830565,20.799732,20.529706)"/>
<path style="fill:none;stroke-width:0.0333333;stroke-linecap:butt;stroke-linejoin:miter;stroke:rgb(0%,0%,0%);stroke-opacity:1;stroke-miterlimit:10;" d="M 1.509591 6.062192 L 0.490397 6.062192 " transform="matrix(20.8,0,0,20.830565,20.799732,20.529706)"/>
<path style="fill:none;stroke-width:0.0333333;stroke-linecap:butt;stroke-linejoin:miter;stroke:rgb(0%,0%,0%);stroke-opacity:1;stroke-miterlimit:10;" d="M 0.504858 6.070631 L -0.00483239 5.187951 " transform="matrix(20.8,0,0,20.830565,20.799732,20.529706)"/>
<path style="fill:none;stroke-width:0.0333333;stroke-linecap:butt;stroke-linejoin:miter;stroke:rgb(0%,0%,0%);stroke-opacity:1;stroke-miterlimit:10;" d="M -0.00483239 5.204641 L 0.504858 4.321773 " transform="matrix(20.8,0,0,20.830565,20.799732,20.529706)"/>
<path style="fill:none;stroke-width:0.0333333;stroke-linecap:butt;stroke-linejoin:miter;stroke:rgb(0%,0%,0%);stroke-opacity:1;stroke-miterlimit:10;" d="M 4.509703 2.598232 L 3.490322 2.598232 " transform="matrix(20.8,0,0,20.830565,20.799732,20.529706)"/>
<path style="fill:none;stroke-width:0.0333333;stroke-linecap:butt;stroke-linejoin:miter;stroke:rgb(0%,0%,0%);stroke-opacity:1;stroke-miterlimit:10;" d="M 5.004745 1.723803 L 4.495243 2.606483 " transform="matrix(20.8,0,0,20.830565,20.799732,20.529706)"/>
<path style="fill:none;stroke-width:0.0333333;stroke-linecap:butt;stroke-linejoin:miter;stroke:rgb(0%,0%,0%);stroke-opacity:1;stroke-miterlimit:10;" d="M 4.495243 0.857626 L 5.004745 1.740493 " transform="matrix(20.8,0,0,20.830565,20.799732,20.529706)"/>
<path style="fill:none;stroke-width:0.0333333;stroke-linecap:butt;stroke-linejoin:miter;stroke:rgb(0%,0%,0%);stroke-opacity:1;stroke-miterlimit:10;" d="M 3.490322 0.866064 L 4.509703 0.866064 " transform="matrix(20.8,0,0,20.830565,20.799732,20.529706)"/>
<path style="fill:none;stroke-width:0.0333333;stroke-linecap:butt;stroke-linejoin:miter;stroke:rgb(0%,0%,0%);stroke-opacity:1;stroke-miterlimit:10;" d="M 2.99528 1.740493 L 3.504783 0.857626 " transform="matrix(20.8,0,0,20.830565,20.799732,20.529706)"/>
<path style="fill:none;stroke-width:0.0333333;stroke-linecap:butt;stroke-linejoin:miter;stroke:rgb(0%,0%,0%);stroke-opacity:1;stroke-miterlimit:10;" d="M 2.99528 1.723803 L 3.504783 2.606483 " transform="matrix(20.8,0,0,20.830565,20.799732,20.529706)"/>
<path style="fill:none;stroke-width:0.0333333;stroke-linecap:butt;stroke-linejoin:miter;stroke:rgb(0%,0%,0%);stroke-opacity:1;stroke-miterlimit:10;" d="M 5.070288 1.741806 L 5.070288 1.722303 M 5.140525 1.751557 L 5.140525 1.712552 M 5.210763 1.761308 L 5.210763 1.702988 M 5.280812 1.770872 L 5.280812 1.693237 M 5.35105 1.780811 L 5.35105 1.683485 M 5.421287 1.790562 L 5.421287 1.673734 M 5.491524 1.800126 L 5.491524 1.663983 M 5.561762 1.809877 L 5.561762 1.654231 M 5.631999 1.819628 L 5.631999 1.644668 M 5.702049 1.82938 L 5.702049 1.634916 M 5.772474 1.839131 L 5.772474 1.625165 M 5.842523 1.848882 L 5.842523 1.615414 " transform="matrix(20.8,0,0,20.830565,20.799732,20.529706)"/>
<path style="fill:none;stroke-width:0.0333333;stroke-linecap:butt;stroke-linejoin:miter;stroke:rgb(0%,0%,0%);stroke-opacity:1;stroke-miterlimit:10;" d="M 3.473796 0.79968 L 3.455391 0.810182 M 3.447879 0.733109 L 3.411071 0.754299 M 3.421587 0.666725 L 3.366562 0.698417 M 3.395483 0.600154 L 3.322053 0.642534 M 3.369379 0.53377 L 3.277544 0.586652 M 3.343275 0.467199 L 3.233036 0.53077 M 3.316983 0.400815 L 3.188527 0.475075 M 3.291066 0.334431 L 3.144018 0.419192 M 3.264774 0.26786 L 3.09951 0.36331 M 3.238858 0.201476 L 3.055001 0.307427 M 3.212565 0.134905 L 3.010492 0.251545 " transform="matrix(20.8,0,0,20.830565,20.799732,20.529706)"/>
<path style=" stroke:none;fill-rule:nonzero;fill:rgb(0%,0%,0%);fill-opacity:1;" d="M 114.398438 38.570312 L 124.582031 25.769531 L 120.378906 23.339844 "/>
<path style=" stroke:none;fill-rule:nonzero;fill:rgb(0%,0%,0%);fill-opacity:1;" d="M 83.199219 56.613281 L 65.675781 54.179688 L 65.675781 59.042969 "/>
<path style="fill:none;stroke-width:0.0333333;stroke-linecap:butt;stroke-linejoin:miter;stroke:rgb(0%,0%,0%);stroke-opacity:1;stroke-miterlimit:10;" d="M 2.004821 3.455783 L 1.500013 4.330212 " transform="matrix(20.8,0,0,20.830565,20.799732,20.529706)"/>
<path style="fill:none;stroke-width:0.0333333;stroke-linecap:butt;stroke-linejoin:miter;stroke:rgb(0%,0%,0%);stroke-opacity:1;stroke-miterlimit:10;" d="M 5.995205 3.455783 L 6.500013 4.330212 " transform="matrix(20.8,0,0,20.830565,20.799732,20.529706)"/>
</g>
</svg>
