<?xml version="1.0" encoding="UTF-8"?>
<svg xmlns="http://www.w3.org/2000/svg" xmlns:xlink="http://www.w3.org/1999/xlink" width="203.2pt" height="92.8pt" viewBox="0 0 203.2 92.8" version="1.1">
<g id="surface412">
<path style=" stroke:none;fill-rule:nonzero;fill:rgb(0%,0%,0%);fill-opacity:1;" d="M 72.25 72.21875 C 72.246094 71.402344 72.46875 70.761719 72.914062 70.292969 C 73.355469 69.832031 73.921875 69.601562 74.625 69.597656 C 75.082031 69.601562 75.496094 69.707031 75.867188 69.925781 C 76.234375 70.144531 76.511719 70.449219 76.707031 70.835938 C 76.898438 71.230469 76.996094 71.671875 76.996094 72.164062 C 76.996094 72.667969 76.890625 73.113281 76.691406 73.507812 C 76.484375 73.90625 76.199219 74.203125 75.828125 74.40625 C 75.453125 74.609375 75.054688 74.710938 74.621094 74.710938 C 74.152344 74.710938 73.738281 74.597656 73.367188 74.375 C 73 74.152344 72.71875 73.84375 72.53125 73.453125 C 72.339844 73.066406 72.246094 72.65625 72.25 72.21875 Z M 72.925781 72.230469 C 72.921875 72.828125 73.085938 73.296875 73.410156 73.636719 C 73.726562 73.984375 74.132812 74.15625 74.621094 74.152344 C 75.113281 74.15625 75.519531 73.984375 75.839844 73.636719 C 76.160156 73.289062 76.320312 72.796875 76.320312 72.160156 C 76.320312 71.757812 76.25 71.40625 76.113281 71.105469 C 75.976562 70.804688 75.777344 70.574219 75.515625 70.410156 C 75.25 70.246094 74.957031 70.160156 74.632812 70.160156 C 74.160156 70.160156 73.761719 70.320312 73.425781 70.640625 C 73.089844 70.957031 72.921875 71.488281 72.925781 72.230469 Z M 72.925781 72.230469 "/>
<path style=" stroke:none;fill-rule:nonzero;fill:rgb(0%,0%,0%);fill-opacity:1;" d="M 54.636719 43.554688 L 54.636719 38.609375 L 55.3125 38.609375 L 57.921875 42.492188 L 57.921875 38.609375 L 58.550781 38.609375 L 58.550781 43.554688 L 57.878906 43.554688 L 55.269531 39.671875 L 55.269531 43.554688 Z M 54.636719 43.554688 "/>
<path style=" stroke:none;fill-rule:nonzero;fill:rgb(0%,0%,0%);fill-opacity:1;" d="M 126.339844 20.433594 C 126.339844 19.617188 126.5625 18.976562 127.003906 18.507812 C 127.449219 18.046875 128.015625 17.816406 128.71875 17.8125 C 129.175781 17.816406 129.589844 17.921875 129.960938 18.136719 C 130.328125 18.355469 130.605469 18.660156 130.800781 19.050781 C 130.992188 19.445312 131.089844 19.886719 131.089844 20.378906 C 131.089844 20.882812 130.984375 21.328125 130.785156 21.722656 C 130.578125 22.121094 130.292969 22.417969 129.921875 22.621094 C 129.546875 22.824219 129.148438 22.921875 128.714844 22.925781 C 128.246094 22.921875 127.828125 22.8125 127.460938 22.589844 C 127.09375 22.363281 126.8125 22.058594 126.625 21.667969 C 126.433594 21.28125 126.339844 20.871094 126.339844 20.433594 Z M 127.019531 20.445312 C 127.015625 21.039062 127.179688 21.511719 127.5 21.851562 C 127.820312 22.199219 128.226562 22.371094 128.714844 22.367188 C 129.207031 22.371094 129.613281 22.199219 129.933594 21.851562 C 130.253906 21.503906 130.414062 21.011719 130.414062 20.375 C 130.414062 19.972656 130.34375 19.621094 130.207031 19.320312 C 130.070312 19.019531 129.871094 18.789062 129.609375 18.625 C 129.34375 18.460938 129.050781 18.375 128.722656 18.375 C 128.253906 18.375 127.855469 18.535156 127.519531 18.851562 C 127.183594 19.171875 127.015625 19.703125 127.019531 20.445312 Z M 127.019531 20.445312 "/>
<path style=" stroke:none;fill-rule:nonzero;fill:rgb(0%,0%,0%);fill-opacity:1;" d="M 144.789062 53.910156 L 144.789062 48.96875 L 145.464844 48.96875 L 148.070312 52.847656 L 148.070312 48.96875 L 148.703125 48.96875 L 148.703125 53.910156 L 148.027344 53.910156 L 145.421875 50.027344 L 145.421875 53.910156 Z M 144.789062 53.910156 "/>
<path style=" stroke:none;fill-rule:nonzero;fill:rgb(0%,0%,0%);fill-opacity:1;" d="M 184.34375 52.179688 L 185.003906 52.347656 C 184.863281 52.886719 184.613281 53.292969 184.257812 53.574219 C 183.898438 53.855469 183.460938 53.996094 182.945312 53.996094 C 182.40625 53.996094 181.972656 53.890625 181.636719 53.671875 C 181.300781 53.457031 181.042969 53.140625 180.871094 52.730469 C 180.695312 52.320312 180.609375 51.878906 180.609375 51.40625 C 180.609375 50.894531 180.707031 50.445312 180.90625 50.058594 C 181.101562 49.675781 181.378906 49.386719 181.75 49.1875 C 182.113281 48.988281 182.515625 48.890625 182.957031 48.886719 C 183.453125 48.890625 183.871094 49.015625 184.207031 49.265625 C 184.546875 49.515625 184.78125 49.871094 184.914062 50.328125 L 184.269531 50.476562 C 184.152344 50.121094 183.984375 49.859375 183.765625 49.691406 C 183.542969 49.53125 183.269531 49.445312 182.941406 49.445312 C 182.558594 49.445312 182.238281 49.539062 181.980469 49.71875 C 181.726562 49.902344 181.546875 50.148438 181.441406 50.453125 C 181.339844 50.761719 181.289062 51.078125 181.289062 51.402344 C 181.289062 51.824219 181.347656 52.191406 181.472656 52.503906 C 181.59375 52.820312 181.785156 53.054688 182.042969 53.207031 C 182.304688 53.363281 182.585938 53.441406 182.890625 53.4375 C 183.257812 53.441406 183.570312 53.335938 183.824219 53.125 C 184.082031 52.914062 184.25 52.597656 184.34375 52.179688 Z M 184.34375 52.179688 "/>
<path style=" stroke:none;fill-rule:nonzero;fill:rgb(0%,0%,0%);fill-opacity:1;" d="M 22.070312 41.824219 L 22.726562 41.988281 C 22.585938 42.527344 22.339844 42.9375 21.984375 43.21875 C 21.625 43.496094 21.1875 43.636719 20.671875 43.640625 C 20.132812 43.636719 19.699219 43.53125 19.363281 43.316406 C 19.027344 43.101562 18.769531 42.785156 18.597656 42.371094 C 18.421875 41.960938 18.332031 41.519531 18.335938 41.046875 C 18.332031 40.535156 18.433594 40.089844 18.632812 39.703125 C 18.828125 39.320312 19.105469 39.027344 19.476562 38.828125 C 19.839844 38.632812 20.242188 38.53125 20.679688 38.527344 C 21.175781 38.53125 21.59375 38.660156 21.933594 38.90625 C 22.273438 39.160156 22.507812 39.511719 22.640625 39.96875 L 21.996094 40.121094 C 21.875 39.765625 21.707031 39.503906 21.492188 39.335938 C 21.269531 39.171875 20.996094 39.089844 20.667969 39.089844 C 20.28125 39.089844 19.964844 39.183594 19.707031 39.363281 C 19.449219 39.546875 19.273438 39.792969 19.167969 40.097656 C 19.066406 40.402344 19.015625 40.71875 19.015625 41.046875 C 19.015625 41.464844 19.074219 41.832031 19.199219 42.144531 C 19.316406 42.460938 19.511719 42.695312 19.769531 42.851562 C 20.03125 43.007812 20.3125 43.085938 20.617188 43.082031 C 20.984375 43.085938 21.296875 42.980469 21.550781 42.765625 C 21.804688 42.554688 21.976562 42.242188 22.070312 41.824219 Z M 22.070312 41.824219 "/>
<path style="fill:none;stroke-width:0.0333333;stroke-linecap:butt;stroke-linejoin:miter;stroke:rgb(0%,0%,0%);stroke-opacity:1;stroke-miterlimit:10;" d="M 1.558714 1.100065 L 0.857754 1.504752 " transform="matrix(20.819672,0,0,20.714286,20.53247,20.369196)"/>
<path style="fill:none;stroke-width:0.0333333;stroke-linecap:butt;stroke-linejoin:miter;stroke:rgb(0%,0%,0%);stroke-opacity:1;stroke-miterlimit:10;" d="M 2.514653 1.451762 L 2.514653 2.333174 " transform="matrix(20.819672,0,0,20.714286,20.53247,20.369196)"/>
<path style="fill:none;stroke-width:0.0333333;stroke-linecap:butt;stroke-linejoin:miter;stroke:rgb(0%,0%,0%);stroke-opacity:1;stroke-miterlimit:10;" d="M 2.68145 1.451762 L 2.68145 2.333174 " transform="matrix(20.819672,0,0,20.714286,20.53247,20.369196)"/>
<path style="fill:none;stroke-width:0.0333333;stroke-linecap:butt;stroke-linejoin:miter;stroke:rgb(0%,0%,0%);stroke-opacity:1;stroke-miterlimit:10;" d="M 2.606401 1.504752 L 1.905441 1.100065 " transform="matrix(20.819672,0,0,20.714286,20.53247,20.369196)"/>
<path style="fill:none;stroke-width:0.0333333;stroke-linecap:butt;stroke-linejoin:miter;stroke:rgb(0%,0%,0%);stroke-opacity:1;stroke-miterlimit:10;" d="M 6.235593 1.399903 L 6.936365 0.995216 " transform="matrix(20.819672,0,0,20.714286,20.53247,20.369196)"/>
<path style="fill:none;stroke-width:0.0333333;stroke-linecap:butt;stroke-linejoin:miter;stroke:rgb(0%,0%,0%);stroke-opacity:1;stroke-miterlimit:10;" d="M 5.279466 1.048206 L 5.279466 0.166794 " transform="matrix(20.819672,0,0,20.714286,20.53247,20.369196)"/>
<path style="fill:none;stroke-width:0.0333333;stroke-linecap:butt;stroke-linejoin:miter;stroke:rgb(0%,0%,0%);stroke-opacity:1;stroke-miterlimit:10;" d="M 5.112857 1.048206 L 5.112857 0.166794 " transform="matrix(20.819672,0,0,20.714286,20.53247,20.369196)"/>
<path style="fill:none;stroke-width:0.0333333;stroke-linecap:butt;stroke-linejoin:miter;stroke:rgb(0%,0%,0%);stroke-opacity:1;stroke-miterlimit:10;" d="M 5.187906 0.995216 L 5.888866 1.399903 " transform="matrix(20.819672,0,0,20.714286,20.53247,20.369196)"/>
<path style="fill:none;stroke-width:0.0333333;stroke-linecap:butt;stroke-linejoin:miter;stroke:rgb(0%,0%,0%);stroke-opacity:1;stroke-miterlimit:10;" d="M 4.338536 1.504752 L 3.45577 0.995216 " transform="matrix(20.819672,0,0,20.714286,20.53247,20.369196)"/>
<path style="fill:none;stroke-width:0.0333333;stroke-linecap:butt;stroke-linejoin:miter;stroke:rgb(0%,0%,0%);stroke-opacity:1;stroke-miterlimit:10;" d="M 4.171927 1.601115 L 3.45577 1.187565 " transform="matrix(20.819672,0,0,20.714286,20.53247,20.369196)"/>
<path style="fill:none;stroke-width:0.0333333;stroke-linecap:butt;stroke-linejoin:miter;stroke:rgb(0%,0%,0%);stroke-opacity:1;stroke-miterlimit:10;" d="M 6.919854 0.995216 L 7.610494 1.393869 " transform="matrix(20.819672,0,0,20.714286,20.53247,20.369196)"/>
<path style="fill:none;stroke-width:0.0333333;stroke-linecap:butt;stroke-linejoin:miter;stroke:rgb(0%,0%,0%);stroke-opacity:1;stroke-miterlimit:10;" d="M 5.204604 0.995216 L 4.321838 1.504752 " transform="matrix(20.819672,0,0,20.714286,20.53247,20.369196)"/>
<path style="fill:none;stroke-width:0.0333333;stroke-linecap:butt;stroke-linejoin:miter;stroke:rgb(0%,0%,0%);stroke-opacity:1;stroke-miterlimit:10;" d="M 0.874265 1.504752 L 0.183812 1.106099 " transform="matrix(20.819672,0,0,20.714286,20.53247,20.369196)"/>
<path style="fill:none;stroke-width:0.0333333;stroke-linecap:butt;stroke-linejoin:miter;stroke:rgb(0%,0%,0%);stroke-opacity:1;stroke-miterlimit:10;" d="M 2.589702 1.504752 L 3.472468 0.995216 " transform="matrix(20.819672,0,0,20.714286,20.53247,20.369196)"/>
</g>
</svg>
