<?xml version="1.0" encoding="UTF-8"?>
<svg xmlns="http://www.w3.org/2000/svg" xmlns:xlink="http://www.w3.org/1999/xlink" width="129.6pt" height="71.2pt" viewBox="0 0 129.6 71.2" version="1.1">
<g id="surface787">
<path style=" stroke:none;fill-rule:nonzero;fill:rgb(0%,0%,0%);fill-opacity:1;" d="M 106.230469 50.703125 C 106.226562 49.882812 106.449219 49.242188 106.894531 48.777344 C 107.339844 48.316406 107.910156 48.085938 108.613281 48.082031 C 109.070312 48.085938 109.484375 48.191406 109.855469 48.40625 C 110.222656 48.625 110.503906 48.929688 110.699219 49.320312 C 110.890625 49.710938 110.988281 50.152344 110.988281 50.644531 C 110.988281 51.148438 110.882812 51.597656 110.683594 51.988281 C 110.476562 52.386719 110.1875 52.683594 109.820312 52.886719 C 109.445312 53.089844 109.042969 53.1875 108.609375 53.191406 C 108.140625 53.1875 107.722656 53.078125 107.351562 52.855469 C 106.984375 52.628906 106.703125 52.324219 106.515625 51.933594 C 106.324219 51.546875 106.226562 51.136719 106.230469 50.703125 Z M 106.910156 50.710938 C 106.90625 51.308594 107.070312 51.777344 107.394531 52.117188 C 107.714844 52.464844 108.117188 52.636719 108.609375 52.632812 C 109.101562 52.636719 109.507812 52.464844 109.828125 52.117188 C 110.148438 51.769531 110.308594 51.277344 110.308594 50.640625 C 110.308594 50.242188 110.238281 49.890625 110.105469 49.589844 C 109.964844 49.289062 109.765625 49.058594 109.503906 48.894531 C 109.242188 48.726562 108.945312 48.644531 108.617188 48.644531 C 108.148438 48.644531 107.746094 48.804688 107.414062 49.121094 C 107.074219 49.441406 106.90625 49.972656 106.910156 50.710938 Z M 106.910156 50.710938 "/>
<path style=" stroke:none;fill-rule:nonzero;fill:rgb(0%,0%,0%);fill-opacity:1;" d="M 88.652344 20.488281 C 88.648438 19.671875 88.871094 19.03125 89.316406 18.5625 C 89.757812 18.101562 90.328125 17.871094 91.03125 17.867188 C 91.488281 17.871094 91.90625 17.976562 92.277344 18.195312 C 92.644531 18.414062 92.921875 18.71875 93.117188 19.105469 C 93.308594 19.5 93.40625 19.941406 93.410156 20.429688 C 93.40625 20.933594 93.304688 21.382812 93.101562 21.777344 C 92.894531 22.171875 92.609375 22.472656 92.238281 22.671875 C 91.863281 22.875 91.460938 22.976562 91.03125 22.976562 C 90.558594 22.976562 90.140625 22.863281 89.773438 22.640625 C 89.402344 22.417969 89.125 22.109375 88.9375 21.722656 C 88.742188 21.332031 88.648438 20.925781 88.652344 20.488281 Z M 89.328125 20.5 C 89.328125 21.09375 89.488281 21.5625 89.8125 21.90625 C 90.132812 22.25 90.539062 22.421875 91.027344 22.417969 C 91.523438 22.421875 91.929688 22.25 92.25 21.902344 C 92.570312 21.558594 92.730469 21.0625 92.730469 20.429688 C 92.730469 20.027344 92.660156 19.675781 92.523438 19.375 C 92.386719 19.074219 92.1875 18.84375 91.921875 18.679688 C 91.660156 18.515625 91.363281 18.429688 91.039062 18.429688 C 90.566406 18.429688 90.167969 18.589844 89.832031 18.90625 C 89.496094 19.226562 89.328125 19.757812 89.328125 20.5 Z M 89.328125 20.5 "/>
<path style=" stroke:none;fill-rule:nonzero;fill:rgb(0%,0%,0%);fill-opacity:1;" d="M 67.648438 26.296875 C 67.644531 25.480469 67.867188 24.835938 68.3125 24.371094 C 68.757812 23.910156 69.328125 23.679688 70.03125 23.675781 C 70.488281 23.679688 70.902344 23.785156 71.273438 24 C 71.640625 24.21875 71.921875 24.523438 72.117188 24.914062 C 72.304688 25.304688 72.402344 25.75 72.40625 26.238281 C 72.402344 26.742188 72.300781 27.191406 72.101562 27.582031 C 71.894531 27.980469 71.605469 28.277344 71.234375 28.480469 C 70.863281 28.683594 70.460938 28.78125 70.027344 28.785156 C 69.558594 28.78125 69.140625 28.671875 68.769531 28.449219 C 68.402344 28.226562 68.121094 27.917969 67.933594 27.53125 C 67.742188 27.140625 67.644531 26.730469 67.648438 26.296875 Z M 68.328125 26.304688 C 68.324219 26.902344 68.488281 27.371094 68.8125 27.710938 C 69.132812 28.058594 69.535156 28.230469 70.023438 28.226562 C 70.519531 28.230469 70.925781 28.058594 71.246094 27.710938 C 71.566406 27.363281 71.726562 26.871094 71.726562 26.234375 C 71.726562 25.835938 71.65625 25.484375 71.519531 25.183594 C 71.382812 24.882812 71.183594 24.652344 70.921875 24.488281 C 70.65625 24.324219 70.363281 24.238281 70.035156 24.238281 C 69.566406 24.238281 69.164062 24.398438 68.828125 24.714844 C 68.492188 25.035156 68.324219 25.566406 68.328125 26.304688 Z M 68.328125 26.304688 "/>
<path style=" stroke:none;fill-rule:nonzero;fill:rgb(0%,0%,0%);fill-opacity:1;" d="M 18.75 43.035156 L 18.75 38.09375 L 19.425781 38.09375 L 22.039062 41.972656 L 22.039062 38.09375 L 22.671875 38.09375 L 22.671875 43.035156 L 21.996094 43.035156 L 19.382812 39.152344 L 19.382812 43.035156 Z M 18.75 43.035156 "/>
<path style="fill:none;stroke-width:0.0333333;stroke-linecap:butt;stroke-linejoin:miter;stroke:rgb(0%,0%,0%);stroke-opacity:1;stroke-miterlimit:10;" d="M 0.834511 1.464716 L 1.685675 0.973266 " transform="matrix(20.858369,0,0,20.697674,20.710657,20.42207)"/>
<path style="fill:none;stroke-width:0.0333333;stroke-linecap:butt;stroke-linejoin:miter;stroke:rgb(0%,0%,0%);stroke-opacity:1;stroke-miterlimit:10;" d="M 1.685675 0.973266 L 2.53684 1.464716 " transform="matrix(20.858369,0,0,20.697674,20.710657,20.42207)"/>
<path style="fill:none;stroke-width:0.0333333;stroke-linecap:butt;stroke-linejoin:miter;stroke:rgb(0%,0%,0%);stroke-opacity:1;stroke-miterlimit:10;" d="M 2.520172 1.464716 L 3.379577 0.968359 " transform="matrix(20.858369,0,0,20.697674,20.710657,20.42207)"/>
<path style="fill:none;stroke-width:0.0333333;stroke-linecap:butt;stroke-linejoin:miter;stroke:rgb(0%,0%,0%);stroke-opacity:1;stroke-miterlimit:10;" d="M 3.36291 0.968547 L 4.023803 1.349969 " transform="matrix(20.858369,0,0,20.697674,20.710657,20.42207)"/>
<path style="fill:none;stroke-width:0.0333333;stroke-linecap:butt;stroke-linejoin:miter;stroke:rgb(0%,0%,0%);stroke-opacity:1;stroke-miterlimit:10;" d="M 3.454674 1.021392 L 3.454674 0.166827 " transform="matrix(20.858369,0,0,20.697674,20.710657,20.42207)"/>
<path style="fill:none;stroke-width:0.0333333;stroke-linecap:butt;stroke-linejoin:miter;stroke:rgb(0%,0%,0%);stroke-opacity:1;stroke-miterlimit:10;" d="M 3.288 1.021392 L 3.288 0.166827 " transform="matrix(20.858369,0,0,20.697674,20.710657,20.42207)"/>
<path style="fill:none;stroke-width:0.0333333;stroke-linecap:butt;stroke-linejoin:miter;stroke:rgb(0%,0%,0%);stroke-opacity:1;stroke-miterlimit:10;" d="M 1.685675 0.973266 L 2.203865 0.444447 " transform="matrix(20.858369,0,0,20.697674,20.710657,20.42207)"/>
<path style="fill:none;stroke-width:0.0333333;stroke-linecap:butt;stroke-linejoin:miter;stroke:rgb(0%,0%,0%);stroke-opacity:1;stroke-miterlimit:10;" d="M 2.389455 0.461244 L 2.5286 1.459998 " transform="matrix(20.858369,0,0,20.697674,20.710657,20.42207)"/>
<path style="fill:none;stroke-width:0.0333333;stroke-linecap:butt;stroke-linejoin:miter;stroke:rgb(0%,0%,0%);stroke-opacity:1;stroke-miterlimit:10;" d="M 0.851178 1.464716 L 0.17343 1.073292 " transform="matrix(20.858369,0,0,20.697674,20.710657,20.42207)"/>
</g>
</svg>
