<?xml version="1.0" encoding="UTF-8"?>
<svg xmlns="http://www.w3.org/2000/svg" xmlns:xlink="http://www.w3.org/1999/xlink" width="227.2pt" height="113.6pt" viewBox="0 0 227.2 113.6" version="1.1">
<g id="surface37">
<path style=" stroke:none;fill-rule:nonzero;fill:rgb(0%,0%,0%);fill-opacity:1;" d="M 75.839844 69.617188 C 75.839844 68.796875 76.0625 68.152344 76.507812 67.683594 C 76.949219 67.222656 77.519531 66.988281 78.21875 66.988281 C 78.675781 66.988281 79.089844 67.097656 79.460938 67.316406 C 79.828125 67.535156 80.109375 67.839844 80.304688 68.230469 C 80.492188 68.625 80.589844 69.066406 80.59375 69.558594 C 80.589844 70.066406 80.488281 70.515625 80.289062 70.910156 C 80.082031 71.308594 79.792969 71.609375 79.425781 71.8125 C 79.050781 72.015625 78.648438 72.113281 78.21875 72.117188 C 77.75 72.113281 77.332031 72.003906 76.960938 71.777344 C 76.59375 71.554688 76.3125 71.246094 76.125 70.855469 C 75.933594 70.46875 75.839844 70.054688 75.839844 69.617188 Z M 76.519531 69.628906 C 76.515625 70.226562 76.679688 70.695312 77.003906 71.039062 C 77.324219 71.386719 77.726562 71.558594 78.214844 71.558594 C 78.707031 71.558594 79.117188 71.386719 79.4375 71.039062 C 79.753906 70.691406 79.914062 70.195312 79.914062 69.558594 C 79.914062 69.15625 79.84375 68.804688 79.710938 68.5 C 79.570312 68.199219 79.375 67.96875 79.109375 67.800781 C 78.847656 67.636719 78.550781 67.554688 78.226562 67.554688 C 77.757812 67.554688 77.355469 67.710938 77.023438 68.03125 C 76.683594 68.351562 76.515625 68.882812 76.519531 69.628906 Z M 76.519531 69.628906 "/>
<path style=" stroke:none;fill-rule:nonzero;fill:rgb(0%,0%,0%);fill-opacity:1;" d="M 72.488281 36.234375 L 72.488281 31.273438 L 73.164062 31.273438 L 75.773438 35.167969 L 75.773438 31.273438 L 76.40625 31.273438 L 76.40625 36.234375 L 75.730469 36.234375 L 73.121094 32.335938 L 73.121094 36.234375 Z M 72.488281 36.234375 "/>
<path style=" stroke:none;fill-rule:nonzero;fill:rgb(0%,0%,0%);fill-opacity:1;" d="M 146.464844 44.117188 C 146.460938 43.296875 146.683594 42.652344 147.128906 42.183594 C 147.570312 41.71875 148.140625 41.488281 148.84375 41.484375 C 149.300781 41.488281 149.714844 41.597656 150.085938 41.8125 C 150.453125 42.03125 150.730469 42.335938 150.925781 42.726562 C 151.117188 43.121094 151.214844 43.566406 151.214844 44.058594 C 151.214844 44.5625 151.109375 45.011719 150.910156 45.410156 C 150.703125 45.804688 150.417969 46.105469 150.046875 46.308594 C 149.671875 46.511719 149.273438 46.613281 148.839844 46.617188 C 148.371094 46.613281 147.953125 46.5 147.585938 46.277344 C 147.214844 46.050781 146.9375 45.742188 146.75 45.355469 C 146.558594 44.964844 146.460938 44.554688 146.464844 44.117188 Z M 147.144531 44.125 C 147.140625 44.722656 147.304688 45.195312 147.625 45.539062 C 147.945312 45.886719 148.351562 46.058594 148.839844 46.054688 C 149.332031 46.058594 149.738281 45.886719 150.058594 45.535156 C 150.378906 45.1875 150.539062 44.695312 150.539062 44.054688 C 150.539062 43.652344 150.46875 43.300781 150.332031 42.996094 C 150.195312 42.699219 149.996094 42.464844 149.734375 42.300781 C 149.46875 42.132812 149.175781 42.050781 148.847656 42.050781 C 148.378906 42.050781 147.976562 42.210938 147.644531 42.53125 C 147.308594 42.847656 147.140625 43.382812 147.144531 44.125 Z M 147.144531 44.125 "/>
<path style=" stroke:none;fill-rule:nonzero;fill:rgb(0%,0%,0%);fill-opacity:1;" d="M 150.65625 82.324219 L 150.65625 77.363281 L 151.332031 77.363281 L 153.941406 81.257812 L 153.941406 77.363281 L 154.574219 77.363281 L 154.574219 82.324219 L 153.898438 82.324219 L 151.289062 78.425781 L 151.289062 82.324219 Z M 150.65625 82.324219 "/>
<path style="fill:none;stroke-width:0.0333333;stroke-linecap:butt;stroke-linejoin:miter;stroke:rgb(0%,0%,0%);stroke-opacity:1;stroke-miterlimit:10;" d="M 2.429387 0.654187 L 1.582742 0.7431 " transform="matrix(20.831296,0,0,20.780488,20.759901,20.4838)"/>
<path style="fill:none;stroke-width:0.0333333;stroke-linecap:butt;stroke-linejoin:miter;stroke:rgb(0%,0%,0%);stroke-opacity:1;stroke-miterlimit:10;" d="M 3.108579 1.369815 L 2.770108 2.129617 " transform="matrix(20.831296,0,0,20.780488,20.759901,20.4838)"/>
<path style="fill:none;stroke-width:0.0333333;stroke-linecap:butt;stroke-linejoin:miter;stroke:rgb(0%,0%,0%);stroke-opacity:1;stroke-miterlimit:10;" d="M 3.260656 1.437674 L 2.922373 2.197477 " transform="matrix(20.831296,0,0,20.780488,20.759901,20.4838)"/>
<path style="fill:none;stroke-width:0.0333333;stroke-linecap:butt;stroke-linejoin:miter;stroke:rgb(0%,0%,0%);stroke-opacity:1;stroke-miterlimit:10;" d="M 3.170647 1.455532 L 2.702039 0.810396 " transform="matrix(20.831296,0,0,20.780488,20.759901,20.4838)"/>
<path style="fill:none;stroke-width:0.0333333;stroke-linecap:butt;stroke-linejoin:miter;stroke:rgb(0%,0%,0%);stroke-opacity:1;stroke-miterlimit:10;" d="M 6.477346 2.841109 L 7.324179 2.752196 " transform="matrix(20.831296,0,0,20.780488,20.759901,20.4838)"/>
<path style="fill:none;stroke-width:0.0333333;stroke-linecap:butt;stroke-linejoin:miter;stroke:rgb(0%,0%,0%);stroke-opacity:1;stroke-miterlimit:10;" d="M 5.798342 2.125482 L 6.136625 1.365679 " transform="matrix(20.831296,0,0,20.780488,20.759901,20.4838)"/>
<path style="fill:none;stroke-width:0.0333333;stroke-linecap:butt;stroke-linejoin:miter;stroke:rgb(0%,0%,0%);stroke-opacity:1;stroke-miterlimit:10;" d="M 5.646077 2.057622 L 5.98436 1.29782 " transform="matrix(20.831296,0,0,20.780488,20.759901,20.4838)"/>
<path style="fill:none;stroke-width:0.0333333;stroke-linecap:butt;stroke-linejoin:miter;stroke:rgb(0%,0%,0%);stroke-opacity:1;stroke-miterlimit:10;" d="M 5.736273 2.039764 L 6.204882 2.684901 " transform="matrix(20.831296,0,0,20.780488,20.759901,20.4838)"/>
<path style="fill:none;stroke-width:0.0333333;stroke-linecap:butt;stroke-linejoin:miter;stroke:rgb(0%,0%,0%);stroke-opacity:1;stroke-miterlimit:10;" d="M 4.753115 2.159881 L 4.153806 1.335415 " transform="matrix(20.831296,0,0,20.780488,20.759901,20.4838)"/>
<path style="fill:none;stroke-width:0.0333333;stroke-linecap:butt;stroke-linejoin:miter;stroke:rgb(0%,0%,0%);stroke-opacity:1;stroke-miterlimit:10;" d="M 4.83131 1.984123 L 4.345262 1.315114 " transform="matrix(20.831296,0,0,20.780488,20.759901,20.4838)"/>
<path style="fill:none;stroke-width:0.0333333;stroke-linecap:butt;stroke-linejoin:miter;stroke:rgb(0%,0%,0%);stroke-opacity:1;stroke-miterlimit:10;" d="M 7.324179 2.752196 L 8.001307 3.504292 " transform="matrix(20.831296,0,0,20.780488,20.759901,20.4838)"/>
<path style="fill:none;stroke-width:0.0333333;stroke-linecap:butt;stroke-linejoin:miter;stroke:rgb(0%,0%,0%);stroke-opacity:1;stroke-miterlimit:10;" d="M 7.830291 1.87566 L 7.324179 2.752196 " transform="matrix(20.831296,0,0,20.780488,20.759901,20.4838)"/>
<path style="fill:none;stroke-width:0.0333333;stroke-linecap:butt;stroke-linejoin:miter;stroke:rgb(0%,0%,0%);stroke-opacity:1;stroke-miterlimit:10;" d="M 7.812289 1.883555 L 8.814012 2.096533 " transform="matrix(20.831296,0,0,20.780488,20.759901,20.4838)"/>
<path style="fill:none;stroke-width:0.0333333;stroke-linecap:butt;stroke-linejoin:miter;stroke:rgb(0%,0%,0%);stroke-opacity:1;stroke-miterlimit:10;" d="M 7.98218 3.500156 L 8.917897 3.083599 " transform="matrix(20.831296,0,0,20.780488,20.759901,20.4838)"/>
<path style="fill:none;stroke-width:0.0333333;stroke-linecap:butt;stroke-linejoin:miter;stroke:rgb(0%,0%,0%);stroke-opacity:1;stroke-miterlimit:10;" d="M 8.908146 3.100517 L 8.800885 2.082059 " transform="matrix(20.831296,0,0,20.780488,20.759901,20.4838)"/>
<path style="fill:none;stroke-width:0.0333333;stroke-linecap:butt;stroke-linejoin:miter;stroke:rgb(0%,0%,0%);stroke-opacity:1;stroke-miterlimit:10;" d="M 5.751275 2.046531 L 4.737738 2.153114 " transform="matrix(20.831296,0,0,20.780488,20.759901,20.4838)"/>
<path style="fill:none;stroke-width:0.0333333;stroke-linecap:butt;stroke-linejoin:miter;stroke:rgb(0%,0%,0%);stroke-opacity:1;stroke-miterlimit:10;" d="M 1.582742 0.7431 L 0.905426 -0.00899521 " transform="matrix(20.831296,0,0,20.780488,20.759901,20.4838)"/>
<path style="fill:none;stroke-width:0.0333333;stroke-linecap:butt;stroke-linejoin:miter;stroke:rgb(0%,0%,0%);stroke-opacity:1;stroke-miterlimit:10;" d="M 1.07663 1.619824 L 1.582742 0.7431 " transform="matrix(20.831296,0,0,20.780488,20.759901,20.4838)"/>
<path style="fill:none;stroke-width:0.0333333;stroke-linecap:butt;stroke-linejoin:miter;stroke:rgb(0%,0%,0%);stroke-opacity:1;stroke-miterlimit:10;" d="M 1.094632 1.611741 L 0.0925338 1.398763 " transform="matrix(20.831296,0,0,20.780488,20.759901,20.4838)"/>
<path style="fill:none;stroke-width:0.0333333;stroke-linecap:butt;stroke-linejoin:miter;stroke:rgb(0%,0%,0%);stroke-opacity:1;stroke-miterlimit:10;" d="M 0.924553 -0.00485972 L -0.0109763 0.411697 " transform="matrix(20.831296,0,0,20.780488,20.759901,20.4838)"/>
<path style="fill:none;stroke-width:0.0333333;stroke-linecap:butt;stroke-linejoin:miter;stroke:rgb(0%,0%,0%);stroke-opacity:1;stroke-miterlimit:10;" d="M -0.00122536 0.394779 L 0.105848 1.413425 " transform="matrix(20.831296,0,0,20.780488,20.759901,20.4838)"/>
<path style="fill:none;stroke-width:0.0333333;stroke-linecap:butt;stroke-linejoin:miter;stroke:rgb(0%,0%,0%);stroke-opacity:1;stroke-miterlimit:10;" d="M 3.155458 1.448577 L 4.168995 1.342182 " transform="matrix(20.831296,0,0,20.780488,20.759901,20.4838)"/>
</g>
</svg>
