<?xml version="1.0" encoding="UTF-8"?>
<svg xmlns="http://www.w3.org/2000/svg" xmlns:xlink="http://www.w3.org/1999/xlink" width="164.8pt" height="104pt" viewBox="0 0 164.8 104" version="1.1">
<g id="surface107">
<path style=" stroke:none;fill-rule:nonzero;fill:rgb(0%,0%,0%);fill-opacity:1;" d="M 18.179688 39.636719 C 18.175781 38.816406 18.398438 38.175781 18.84375 37.707031 C 19.285156 37.246094 19.855469 37.011719 20.554688 37.011719 C 21.011719 37.011719 21.425781 37.121094 21.796875 37.335938 C 22.164062 37.554688 22.441406 37.863281 22.636719 38.25 C 22.828125 38.644531 22.925781 39.089844 22.925781 39.578125 C 22.925781 40.085938 22.820312 40.53125 22.621094 40.925781 C 22.414062 41.324219 22.128906 41.625 21.757812 41.828125 C 21.386719 42.03125 20.984375 42.128906 20.554688 42.132812 C 20.085938 42.128906 19.667969 42.019531 19.300781 41.792969 C 18.929688 41.570312 18.652344 41.261719 18.464844 40.875 C 18.273438 40.484375 18.175781 40.074219 18.179688 39.636719 Z M 18.855469 39.648438 C 18.855469 40.242188 19.015625 40.714844 19.339844 41.058594 C 19.660156 41.402344 20.0625 41.574219 20.550781 41.574219 C 21.042969 41.574219 21.449219 41.402344 21.769531 41.054688 C 22.089844 40.707031 22.25 40.214844 22.25 39.578125 C 22.25 39.175781 22.179688 38.824219 22.042969 38.519531 C 21.90625 38.222656 21.707031 37.988281 21.445312 37.824219 C 21.183594 37.660156 20.886719 37.574219 20.5625 37.574219 C 20.09375 37.574219 19.691406 37.734375 19.359375 38.054688 C 19.023438 38.371094 18.855469 38.90625 18.855469 39.648438 Z M 18.855469 39.648438 "/>
<path style=" stroke:none;fill-rule:nonzero;fill:rgb(0%,0%,0%);fill-opacity:1;" d="M 37.941406 83.71875 L 38.597656 83.886719 C 38.457031 84.425781 38.210938 84.835938 37.851562 85.117188 C 37.496094 85.394531 37.054688 85.535156 36.542969 85.539062 C 36.003906 85.535156 35.570312 85.429688 35.234375 85.214844 C 34.898438 85 34.640625 84.683594 34.46875 84.269531 C 34.292969 83.859375 34.207031 83.417969 34.207031 82.945312 C 34.207031 82.429688 34.304688 81.980469 34.503906 81.597656 C 34.699219 81.210938 34.976562 80.921875 35.347656 80.71875 C 35.710938 80.523438 36.113281 80.421875 36.550781 80.421875 C 37.046875 80.421875 37.464844 80.550781 37.804688 80.800781 C 38.144531 81.054688 38.378906 81.40625 38.511719 81.863281 L 37.867188 82.015625 C 37.746094 81.65625 37.578125 81.394531 37.363281 81.226562 C 37.140625 81.066406 36.867188 80.984375 36.539062 80.984375 C 36.152344 80.984375 35.835938 81.074219 35.578125 81.253906 C 35.320312 81.4375 35.144531 81.683594 35.039062 81.988281 C 34.9375 82.296875 34.886719 82.613281 34.886719 82.941406 C 34.886719 83.363281 34.945312 83.730469 35.070312 84.042969 C 35.191406 84.359375 35.382812 84.59375 35.640625 84.746094 C 35.902344 84.90625 36.183594 84.984375 36.488281 84.980469 C 36.855469 84.984375 37.167969 84.878906 37.421875 84.664062 C 37.675781 84.453125 37.847656 84.136719 37.941406 83.71875 Z M 37.941406 83.71875 "/>
<path style=" stroke:none;fill-rule:nonzero;fill:rgb(0%,0%,0%);fill-opacity:1;" d="M 73.976562 21.484375 L 74.636719 21.652344 C 74.496094 22.191406 74.246094 22.601562 73.890625 22.882812 C 73.53125 23.164062 73.09375 23.300781 72.578125 23.304688 C 72.042969 23.300781 71.609375 23.199219 71.273438 22.980469 C 70.9375 22.765625 70.679688 22.449219 70.507812 22.035156 C 70.332031 21.625 70.242188 21.183594 70.246094 20.710938 C 70.242188 20.195312 70.34375 19.746094 70.542969 19.363281 C 70.738281 18.976562 71.015625 18.6875 71.382812 18.488281 C 71.746094 18.289062 72.152344 18.1875 72.589844 18.1875 C 73.085938 18.1875 73.503906 18.316406 73.839844 18.566406 C 74.179688 18.820312 74.414062 19.171875 74.546875 19.628906 L 73.902344 19.78125 C 73.785156 19.421875 73.617188 19.160156 73.398438 18.996094 C 73.179688 18.832031 72.902344 18.75 72.578125 18.75 C 72.191406 18.75 71.871094 18.839844 71.617188 19.019531 C 71.359375 19.203125 71.179688 19.449219 71.078125 19.757812 C 70.976562 20.0625 70.921875 20.378906 70.921875 20.707031 C 70.921875 21.128906 70.984375 21.496094 71.109375 21.808594 C 71.226562 22.125 71.417969 22.359375 71.679688 22.515625 C 71.941406 22.671875 72.222656 22.75 72.523438 22.746094 C 72.894531 22.75 73.203125 22.644531 73.460938 22.429688 C 73.714844 22.21875 73.886719 21.902344 73.976562 21.484375 Z M 73.976562 21.484375 "/>
<path style=" stroke:none;fill-rule:nonzero;fill:rgb(0%,0%,0%);fill-opacity:1;" d="M 106.109375 41.554688 C 106.109375 40.734375 106.328125 40.09375 106.773438 39.625 C 107.214844 39.164062 107.785156 38.929688 108.488281 38.929688 C 108.941406 38.929688 109.355469 39.039062 109.726562 39.253906 C 110.09375 39.472656 110.371094 39.78125 110.566406 40.167969 C 110.757812 40.5625 110.855469 41.007812 110.855469 41.496094 C 110.855469 42.003906 110.75 42.449219 110.550781 42.84375 C 110.34375 43.242188 110.058594 43.542969 109.691406 43.746094 C 109.316406 43.949219 108.914062 44.046875 108.484375 44.050781 C 108.015625 44.046875 107.597656 43.9375 107.230469 43.710938 C 106.859375 43.488281 106.582031 43.179688 106.394531 42.792969 C 106.203125 42.402344 106.109375 41.992188 106.109375 41.554688 Z M 106.789062 41.566406 C 106.785156 42.160156 106.949219 42.632812 107.269531 42.976562 C 107.589844 43.320312 107.992188 43.492188 108.480469 43.492188 C 108.972656 43.492188 109.378906 43.320312 109.699219 42.972656 C 110.019531 42.625 110.179688 42.132812 110.179688 41.496094 C 110.179688 41.09375 110.109375 40.742188 109.972656 40.4375 C 109.835938 40.140625 109.636719 39.90625 109.375 39.742188 C 109.113281 39.578125 108.816406 39.492188 108.492188 39.492188 C 108.023438 39.492188 107.621094 39.652344 107.289062 39.972656 C 106.953125 40.289062 106.785156 40.820312 106.789062 41.566406 Z M 106.789062 41.566406 "/>
<path style=" stroke:none;fill-rule:nonzero;fill:rgb(0%,0%,0%);fill-opacity:1;" d="M 146.058594 42.230469 L 146.71875 42.398438 C 146.578125 42.9375 146.332031 43.34375 145.972656 43.625 C 145.617188 43.90625 145.175781 44.046875 144.664062 44.050781 C 144.125 44.046875 143.691406 43.941406 143.355469 43.726562 C 143.019531 43.511719 142.761719 43.195312 142.589844 42.78125 C 142.414062 42.371094 142.328125 41.925781 142.328125 41.453125 C 142.328125 40.941406 142.425781 40.492188 142.625 40.105469 C 142.820312 39.722656 143.097656 39.429688 143.46875 39.230469 C 143.832031 39.035156 144.234375 38.933594 144.671875 38.929688 C 145.167969 38.933594 145.585938 39.0625 145.925781 39.308594 C 146.261719 39.5625 146.5 39.917969 146.632812 40.375 L 145.988281 40.523438 C 145.867188 40.167969 145.699219 39.90625 145.484375 39.738281 C 145.261719 39.578125 144.988281 39.492188 144.660156 39.492188 C 144.273438 39.492188 143.953125 39.585938 143.699219 39.765625 C 143.441406 39.949219 143.265625 40.195312 143.160156 40.5 C 143.058594 40.808594 143.007812 41.125 143.007812 41.453125 C 143.007812 41.871094 143.066406 42.242188 143.191406 42.554688 C 143.308594 42.871094 143.503906 43.105469 143.761719 43.257812 C 144.023438 43.414062 144.304688 43.492188 144.609375 43.492188 C 144.976562 43.492188 145.289062 43.386719 145.542969 43.175781 C 145.796875 42.964844 145.96875 42.648438 146.058594 42.230469 Z M 146.058594 42.230469 "/>
<path style=" stroke:none;fill-rule:nonzero;fill:rgb(0%,0%,0%);fill-opacity:1;" d="M 48.84375 33.109375 L 49.5 33.273438 C 49.359375 33.816406 49.113281 34.222656 48.753906 34.503906 C 48.398438 34.785156 47.957031 34.925781 47.445312 34.929688 C 46.90625 34.925781 46.472656 34.820312 46.136719 34.605469 C 45.800781 34.386719 45.542969 34.070312 45.371094 33.660156 C 45.195312 33.25 45.109375 32.804688 45.109375 32.332031 C 45.109375 31.820312 45.207031 31.371094 45.40625 30.984375 C 45.601562 30.601562 45.878906 30.308594 46.25 30.109375 C 46.613281 29.914062 47.015625 29.8125 47.453125 29.808594 C 47.949219 29.8125 48.367188 29.9375 48.707031 30.1875 C 49.046875 30.441406 49.28125 30.796875 49.414062 31.253906 L 48.769531 31.402344 C 48.648438 31.046875 48.480469 30.785156 48.265625 30.617188 C 48.042969 30.457031 47.769531 30.371094 47.441406 30.371094 C 47.054688 30.371094 46.738281 30.464844 46.480469 30.644531 C 46.226562 30.828125 46.046875 31.074219 45.941406 31.378906 C 45.839844 31.6875 45.789062 32.003906 45.789062 32.328125 C 45.789062 32.75 45.847656 33.117188 45.972656 33.433594 C 46.09375 33.746094 46.285156 33.984375 46.542969 34.136719 C 46.804688 34.292969 47.085938 34.371094 47.390625 34.371094 C 47.757812 34.371094 48.070312 34.265625 48.324219 34.054688 C 48.578125 33.84375 48.75 33.527344 48.84375 33.109375 Z M 48.84375 33.109375 "/>
<path style="fill:none;stroke-width:0.0333333;stroke-linecap:butt;stroke-linejoin:miter;stroke:rgb(0%,0%,0%);stroke-opacity:1;stroke-miterlimit:10;" d="M 2.50186 3.004796 L 1.619165 2.495253 " transform="matrix(20.808081,0,0,20.744681,20.554373,20.744582)"/>
<path style="fill:none;stroke-width:0.0333333;stroke-linecap:butt;stroke-linejoin:miter;stroke:rgb(0%,0%,0%);stroke-opacity:1;stroke-miterlimit:10;" d="M 1.627613 2.509564 L 1.627613 1.500081 " transform="matrix(20.808081,0,0,20.744681,20.554373,20.744582)"/>
<path style="fill:none;stroke-width:0.0333333;stroke-linecap:butt;stroke-linejoin:miter;stroke:rgb(0%,0%,0%);stroke-opacity:1;stroke-miterlimit:10;" d="M 3.368035 1.504788 L 2.4936 0.999953 " transform="matrix(20.808081,0,0,20.744681,20.554373,20.744582)"/>
<path style="fill:none;stroke-width:0.0333333;stroke-linecap:butt;stroke-linejoin:miter;stroke:rgb(0%,0%,0%);stroke-opacity:1;stroke-miterlimit:10;" d="M 3.359775 1.500081 L 3.359775 2.509564 " transform="matrix(20.808081,0,0,20.744681,20.554373,20.744582)"/>
<path style="fill:none;stroke-width:0.0333333;stroke-linecap:butt;stroke-linejoin:miter;stroke:rgb(0%,0%,0%);stroke-opacity:1;stroke-miterlimit:10;" d="M 3.193073 1.596303 L 3.193073 2.413342 " transform="matrix(20.808081,0,0,20.744681,20.554373,20.744582)"/>
<path style="fill:none;stroke-width:0.0333333;stroke-linecap:butt;stroke-linejoin:miter;stroke:rgb(0%,0%,0%);stroke-opacity:1;stroke-miterlimit:10;" d="M 0.147194 1.082994 L 0.648989 1.681038 " transform="matrix(20.808081,0,0,20.744681,20.554373,20.744582)"/>
<path style="fill:none;stroke-width:0.0333333;stroke-linecap:butt;stroke-linejoin:miter;stroke:rgb(0%,0%,0%);stroke-opacity:1;stroke-miterlimit:10;" d="M 0.274848 0.97585 L 0.714882 1.500081 " transform="matrix(20.808081,0,0,20.744681,20.554373,20.744582)"/>
<path style="fill:none;stroke-width:0.0333333;stroke-linecap:butt;stroke-linejoin:miter;stroke:rgb(0%,0%,0%);stroke-opacity:1;stroke-miterlimit:10;" d="M 1.627613 1.500081 L 0.63322 1.675201 " transform="matrix(20.808081,0,0,20.744681,20.554373,20.744582)"/>
<path style="fill:none;stroke-width:0.0333333;stroke-linecap:butt;stroke-linejoin:miter;stroke:rgb(0%,0%,0%);stroke-opacity:1;stroke-miterlimit:10;" d="M 3.368035 2.495253 L 2.485152 3.004796 " transform="matrix(20.808081,0,0,20.744681,20.554373,20.744582)"/>
<path style=" stroke:none;fill-rule:nonzero;fill:rgb(0%,0%,0%);fill-opacity:1;" d="M 54.421875 72.605469 L 39.011719 78.679688 L 41.441406 82.875 "/>
<path style="fill:none;stroke-width:0.0333333;stroke-linecap:butt;stroke-linejoin:miter;stroke:rgb(0%,0%,0%);stroke-opacity:1;stroke-miterlimit:10;" d="M 2.4936 0.999953 L 2.4936 0.16672 " transform="matrix(20.808081,0,0,20.744681,20.554373,20.744582)"/>
<path style="fill:none;stroke-width:0.0333333;stroke-linecap:butt;stroke-linejoin:miter;stroke:rgb(0%,0%,0%);stroke-opacity:1;stroke-miterlimit:10;" d="M 4.41593 1.109921 L 5.100009 1.504788 " transform="matrix(20.808081,0,0,20.744681,20.554373,20.744582)"/>
<path style="fill:none;stroke-width:0.0333333;stroke-linecap:butt;stroke-linejoin:miter;stroke:rgb(0%,0%,0%);stroke-opacity:1;stroke-miterlimit:10;" d="M 5.083489 1.504788 L 5.773951 1.106155 " transform="matrix(20.808081,0,0,20.744681,20.554373,20.744582)"/>
<path style="fill:none;stroke-width:0.0333333;stroke-linecap:butt;stroke-linejoin:miter;stroke:rgb(0%,0%,0%);stroke-opacity:1;stroke-miterlimit:10;" d="M 1.627613 1.500081 L 2.4936 0.999953 " transform="matrix(20.808081,0,0,20.744681,20.554373,20.744582)"/>
<path style="fill:none;stroke-width:0.0333333;stroke-linecap:butt;stroke-linejoin:miter;stroke:rgb(0%,0%,0%);stroke-opacity:1;stroke-miterlimit:10;" d="M 1.61297 1.428715 L 1.593071 1.43587 M 1.598327 1.357349 L 1.558342 1.371848 M 1.583497 1.285982 L 1.5238 1.307825 M 1.569042 1.214804 L 1.48907 1.243803 M 1.554212 1.143438 L 1.454716 1.17978 M 1.539569 1.072072 L 1.419986 1.11557 M 1.524926 1.000706 L 1.385444 1.051547 M 1.510283 0.92934 L 1.350715 0.987525 M 1.495453 0.858162 L 1.316173 0.923314 M 1.480998 0.786796 L 1.281631 0.859292 M 1.466167 0.715429 L 1.246902 0.795269 " transform="matrix(20.808081,0,0,20.744681,20.554373,20.744582)"/>
<path style="fill:none;stroke-width:0.0333333;stroke-linecap:butt;stroke-linejoin:miter;stroke:rgb(0%,0%,0%);stroke-opacity:1;stroke-miterlimit:10;" d="M 4.035407 1.109921 L 3.351327 1.504788 " transform="matrix(20.808081,0,0,20.744681,20.554373,20.744582)"/>
</g>
</svg>
