<?xml version="1.0" encoding="UTF-8"?>
<svg xmlns="http://www.w3.org/2000/svg" xmlns:xlink="http://www.w3.org/1999/xlink" width="92.8pt" height="74.4pt" viewBox="0 0 92.8 74.4" version="1.1">
<g id="surface1127">
<path style=" stroke:none;fill-rule:nonzero;fill:rgb(0%,0%,0%);fill-opacity:1;" d="M 18.679688 56.089844 L 18.679688 51.121094 L 19.347656 51.121094 L 21.945312 55.019531 L 21.945312 51.121094 L 22.574219 51.121094 L 22.574219 56.089844 L 21.902344 56.089844 L 19.304688 52.183594 L 19.304688 56.089844 Z M 18.679688 56.089844 "/>
<path style="fill:none;stroke-width:0.0333333;stroke-linecap:butt;stroke-linejoin:miter;stroke:rgb(0%,0%,0%);stroke-opacity:1;stroke-miterlimit:10;" d="M 0.173492 1.482607 L 0.866137 1.082618 " transform="matrix(20.714286,0,0,20.820896,20.624994,20.654227)"/>
<path style="fill:none;stroke-width:0.0333333;stroke-linecap:butt;stroke-linejoin:miter;stroke:rgb(0%,0%,0%);stroke-opacity:1;stroke-miterlimit:10;" d="M 0.866137 1.082618 L 1.07659 0.0927775 " transform="matrix(20.714286,0,0,20.820896,20.624994,20.654227)"/>
<path style="fill:none;stroke-width:0.0333333;stroke-linecap:butt;stroke-linejoin:miter;stroke:rgb(0%,0%,0%);stroke-opacity:1;stroke-miterlimit:10;" d="M 1.742646 1.588796 L 0.866137 1.082618 " transform="matrix(20.714286,0,0,20.820896,20.624994,20.654227)"/>
<path style="fill:none;stroke-width:0.0333333;stroke-linecap:butt;stroke-linejoin:miter;stroke:rgb(0%,0%,0%);stroke-opacity:1;stroke-miterlimit:10;" d="M 1.723222 1.590859 L 2.484321 0.905325 " transform="matrix(20.714286,0,0,20.820896,20.624994,20.654227)"/>
<path style="fill:none;stroke-width:0.0333333;stroke-linecap:butt;stroke-linejoin:miter;stroke:rgb(0%,0%,0%);stroke-opacity:1;stroke-miterlimit:10;" d="M 1.062069 0.10591 L 2.080577 -0.00121612 " transform="matrix(20.714286,0,0,20.820896,20.624994,20.654227)"/>
<path style="fill:none;stroke-width:0.0333333;stroke-linecap:butt;stroke-linejoin:miter;stroke:rgb(0%,0%,0%);stroke-opacity:1;stroke-miterlimit:10;" d="M 2.063605 -0.0109719 L 2.480173 0.924462 " transform="matrix(20.714286,0,0,20.820896,20.624994,20.654227)"/>
</g>
</svg>
