<?xml version="1.0" encoding="UTF-8"?>
<svg xmlns="http://www.w3.org/2000/svg" xmlns:xlink="http://www.w3.org/1999/xlink" width="131.2pt" height="104pt" viewBox="0 0 131.2 104" version="1.1">
<g id="surface1797">
<path style=" stroke:none;fill-rule:nonzero;fill:rgb(0%,0%,0%);fill-opacity:1;" d="M 90.441406 72.472656 C 90.4375 71.65625 90.660156 71.011719 91.105469 70.546875 C 91.550781 70.082031 92.121094 69.851562 92.824219 69.847656 C 93.277344 69.851562 93.695312 69.960938 94.066406 70.175781 C 94.433594 70.394531 94.710938 70.699219 94.90625 71.089844 C 95.097656 71.484375 95.195312 71.925781 95.199219 72.417969 C 95.195312 72.921875 95.09375 73.371094 94.890625 73.765625 C 94.683594 74.164062 94.398438 74.460938 94.027344 74.664062 C 93.652344 74.867188 93.25 74.96875 92.820312 74.96875 C 92.351562 74.96875 91.933594 74.855469 91.5625 74.632812 C 91.195312 74.40625 90.914062 74.101562 90.726562 73.710938 C 90.535156 73.320312 90.4375 72.910156 90.441406 72.472656 Z M 91.121094 72.484375 C 91.117188 73.082031 91.28125 73.550781 91.605469 73.894531 C 91.925781 74.242188 92.328125 74.414062 92.816406 74.410156 C 93.3125 74.414062 93.71875 74.242188 94.039062 73.890625 C 94.359375 73.546875 94.519531 73.050781 94.519531 72.414062 C 94.519531 72.011719 94.449219 71.660156 94.3125 71.359375 C 94.175781 71.058594 93.976562 70.828125 93.714844 70.660156 C 93.449219 70.496094 93.152344 70.414062 92.828125 70.414062 C 92.359375 70.414062 91.957031 70.574219 91.621094 70.890625 C 91.285156 71.210938 91.117188 71.742188 91.121094 72.484375 Z M 91.121094 72.484375 "/>
<path style=" stroke:none;fill-rule:nonzero;fill:rgb(0%,0%,0%);fill-opacity:1;" d="M 108.363281 41.316406 C 108.359375 40.5 108.582031 39.855469 109.027344 39.386719 C 109.472656 38.925781 110.039062 38.695312 110.742188 38.691406 C 111.199219 38.695312 111.617188 38.800781 111.988281 39.019531 C 112.355469 39.238281 112.632812 39.542969 112.828125 39.929688 C 113.019531 40.324219 113.117188 40.769531 113.121094 41.257812 C 113.117188 41.765625 113.011719 42.214844 112.8125 42.609375 C 112.605469 43.003906 112.320312 43.304688 111.949219 43.507812 C 111.574219 43.710938 111.171875 43.808594 110.742188 43.8125 C 110.273438 43.808594 109.855469 43.699219 109.484375 43.476562 C 109.117188 43.25 108.835938 42.941406 108.648438 42.554688 C 108.457031 42.164062 108.359375 41.753906 108.363281 41.316406 Z M 109.042969 41.328125 C 109.039062 41.925781 109.203125 42.394531 109.523438 42.738281 C 109.84375 43.082031 110.25 43.257812 110.738281 43.253906 C 111.234375 43.257812 111.640625 43.082031 111.960938 42.734375 C 112.28125 42.390625 112.441406 41.894531 112.441406 41.257812 C 112.441406 40.855469 112.371094 40.503906 112.234375 40.199219 C 112.097656 39.902344 111.898438 39.667969 111.632812 39.503906 C 111.371094 39.339844 111.074219 39.253906 110.75 39.253906 C 110.28125 39.253906 109.878906 39.414062 109.542969 39.734375 C 109.207031 40.050781 109.039062 40.585938 109.042969 41.328125 Z M 109.042969 41.328125 "/>
<path style=" stroke:none;fill-rule:nonzero;fill:rgb(0%,0%,0%);fill-opacity:1;" d="M 76.125 21.394531 L 76.78125 21.5625 C 76.640625 22.101562 76.394531 22.511719 76.035156 22.792969 C 75.679688 23.074219 75.238281 23.214844 74.722656 23.214844 C 74.183594 23.214844 73.75 23.109375 73.414062 22.890625 C 73.078125 22.675781 72.820312 22.359375 72.644531 21.945312 C 72.46875 21.535156 72.382812 21.09375 72.386719 20.621094 C 72.382812 20.105469 72.484375 19.660156 72.679688 19.273438 C 72.875 18.890625 73.15625 18.597656 73.523438 18.398438 C 73.890625 18.199219 74.292969 18.101562 74.734375 18.097656 C 75.230469 18.101562 75.648438 18.226562 75.988281 18.476562 C 76.328125 18.730469 76.5625 19.082031 76.695312 19.539062 L 76.050781 19.691406 C 75.929688 19.335938 75.761719 19.074219 75.542969 18.90625 C 75.324219 18.742188 75.046875 18.660156 74.71875 18.660156 C 74.335938 18.660156 74.015625 18.75 73.757812 18.933594 C 73.5 19.117188 73.320312 19.363281 73.21875 19.667969 C 73.117188 19.976562 73.0625 20.289062 73.0625 20.617188 C 73.0625 21.039062 73.125 21.40625 73.25 21.71875 C 73.367188 22.035156 73.5625 22.269531 73.820312 22.425781 C 74.082031 22.582031 74.363281 22.660156 74.667969 22.65625 C 75.039062 22.660156 75.347656 22.554688 75.605469 22.339844 C 75.859375 22.128906 76.03125 21.8125 76.125 21.394531 Z M 76.125 21.394531 "/>
<path style="fill:none;stroke-width:0.0333333;stroke-linecap:butt;stroke-linejoin:miter;stroke:rgb(0%,0%,0%);stroke-opacity:1;stroke-miterlimit:10;" d="M 0.00154471 1.496801 L 0.0000457242 2.518147 " transform="matrix(20.847458,0,0,20.744681,20.596703,20.656381)"/>
<path style="fill:none;stroke-width:0.0333333;stroke-linecap:butt;stroke-linejoin:miter;stroke:rgb(0%,0%,0%);stroke-opacity:1;stroke-miterlimit:10;" d="M 0.167932 1.592834 L 0.166808 2.421925 " transform="matrix(20.847458,0,0,20.744681,20.596703,20.656381)"/>
<path style="fill:none;stroke-width:0.0333333;stroke-linecap:butt;stroke-linejoin:miter;stroke:rgb(0%,0%,0%);stroke-opacity:1;stroke-miterlimit:10;" d="M -0.00819869 2.503648 L 0.874141 3.013379 " transform="matrix(20.847458,0,0,20.744681,20.596703,20.656381)"/>
<path style="fill:none;stroke-width:0.0333333;stroke-linecap:butt;stroke-linejoin:miter;stroke:rgb(0%,0%,0%);stroke-opacity:1;stroke-miterlimit:10;" d="M 0.857464 3.013379 L 1.741865 2.503083 " transform="matrix(20.847458,0,0,20.744681,20.596703,20.656381)"/>
<path style="fill:none;stroke-width:0.0333333;stroke-linecap:butt;stroke-linejoin:miter;stroke:rgb(0%,0%,0%);stroke-opacity:1;stroke-miterlimit:10;" d="M 0.857464 2.820935 L 1.574728 2.407049 " transform="matrix(20.847458,0,0,20.744681,20.596703,20.656381)"/>
<path style="fill:none;stroke-width:0.0333333;stroke-linecap:butt;stroke-linejoin:miter;stroke:rgb(0%,0%,0%);stroke-opacity:1;stroke-miterlimit:10;" d="M 1.733433 2.517582 L 1.729873 1.49247 " transform="matrix(20.847458,0,0,20.744681,20.596703,20.656381)"/>
<path style="fill:none;stroke-width:0.0333333;stroke-linecap:butt;stroke-linejoin:miter;stroke:rgb(0%,0%,0%);stroke-opacity:1;stroke-miterlimit:10;" d="M 1.729873 1.502073 L 0.855216 1.001756 " transform="matrix(20.847458,0,0,20.744681,20.596703,20.656381)"/>
<path style="fill:none;stroke-width:0.0333333;stroke-linecap:butt;stroke-linejoin:miter;stroke:rgb(0%,0%,0%);stroke-opacity:1;stroke-miterlimit:10;" d="M 1.563673 1.59886 L 0.855965 1.194012 " transform="matrix(20.847458,0,0,20.744681,20.596703,20.656381)"/>
<path style="fill:none;stroke-width:0.0333333;stroke-linecap:butt;stroke-linejoin:miter;stroke:rgb(0%,0%,0%);stroke-opacity:1;stroke-miterlimit:10;" d="M 0.871892 1.001756 L -0.00688708 1.5113 " transform="matrix(20.847458,0,0,20.744681,20.596703,20.656381)"/>
<path style="fill:none;stroke-width:0.0333333;stroke-linecap:butt;stroke-linejoin:miter;stroke:rgb(0%,0%,0%);stroke-opacity:1;stroke-miterlimit:10;" d="M 1.721629 1.506781 L 2.601719 0.994413 " transform="matrix(20.847458,0,0,20.744681,20.596703,20.656381)"/>
<path style="fill:none;stroke-width:0.0333333;stroke-linecap:butt;stroke-linejoin:miter;stroke:rgb(0%,0%,0%);stroke-opacity:1;stroke-miterlimit:10;" d="M 2.585043 0.994413 L 3.469069 1.500378 " transform="matrix(20.847458,0,0,20.744681,20.596703,20.656381)"/>
<path style="fill:none;stroke-width:0.0333333;stroke-linecap:butt;stroke-linejoin:miter;stroke:rgb(0%,0%,0%);stroke-opacity:1;stroke-miterlimit:10;" d="M 3.377069 1.447654 L 3.380441 2.327774 " transform="matrix(20.847458,0,0,20.744681,20.596703,20.656381)"/>
<path style="fill:none;stroke-width:0.0333333;stroke-linecap:butt;stroke-linejoin:miter;stroke:rgb(0%,0%,0%);stroke-opacity:1;stroke-miterlimit:10;" d="M 3.543831 1.447089 L 3.547203 2.327021 " transform="matrix(20.847458,0,0,20.744681,20.596703,20.656381)"/>
<path style="fill:none;stroke-width:0.0333333;stroke-linecap:butt;stroke-linejoin:miter;stroke:rgb(0%,0%,0%);stroke-opacity:1;stroke-miterlimit:10;" d="M 3.452393 1.500378 L 4.133868 1.103439 " transform="matrix(20.847458,0,0,20.744681,20.596703,20.656381)"/>
<path style=" stroke:none;fill-rule:nonzero;fill:rgb(0%,0%,0%);fill-opacity:1;" d="M 74.664062 41.386719 L 77.03125 24.117188 L 72.164062 24.132812 "/>
</g>
</svg>
