<?xml version="1.0" encoding="UTF-8"?>
<svg xmlns="http://www.w3.org/2000/svg" xmlns:xlink="http://www.w3.org/1999/xlink" width="76.8pt" height="51.2pt" viewBox="0 0 76.8 51.2" version="1.1">
<g id="surface1537">
<path style=" stroke:none;fill-rule:nonzero;fill:rgb(0%,0%,0%);fill-opacity:1;" d="M 18.441406 33.445312 L 18.441406 28.464844 L 19.113281 28.464844 L 21.707031 32.375 L 21.707031 28.464844 L 22.335938 28.464844 L 22.335938 33.445312 L 21.664062 33.445312 L 19.066406 29.53125 L 19.066406 33.445312 Z M 18.441406 33.445312 "/>
<path style=" stroke:none;fill-rule:nonzero;fill:rgb(0%,0%,0%);fill-opacity:1;" d="M 57.804688 31.699219 L 58.460938 31.871094 C 58.320312 32.414062 58.074219 32.824219 57.71875 33.105469 C 57.363281 33.386719 56.925781 33.53125 56.410156 33.53125 C 55.878906 33.53125 55.445312 33.425781 55.113281 33.207031 C 54.777344 32.988281 54.519531 32.671875 54.347656 32.253906 C 54.171875 31.84375 54.085938 31.398438 54.089844 30.921875 C 54.085938 30.40625 54.1875 29.953125 54.382812 29.566406 C 54.578125 29.179688 54.855469 28.886719 55.222656 28.683594 C 55.582031 28.488281 55.984375 28.386719 56.421875 28.382812 C 56.917969 28.386719 57.332031 28.511719 57.667969 28.761719 C 58.007812 29.019531 58.242188 29.375 58.375 29.835938 L 57.730469 29.988281 C 57.613281 29.628906 57.445312 29.363281 57.230469 29.195312 C 57.007812 29.03125 56.734375 28.949219 56.410156 28.949219 C 56.027344 28.949219 55.707031 29.039062 55.453125 29.222656 C 55.199219 29.40625 55.019531 29.65625 54.917969 29.960938 C 54.816406 30.273438 54.761719 30.589844 54.761719 30.917969 C 54.761719 31.34375 54.824219 31.710938 54.945312 32.027344 C 55.066406 32.34375 55.257812 32.582031 55.515625 32.738281 C 55.773438 32.894531 56.054688 32.972656 56.359375 32.96875 C 56.726562 32.972656 57.035156 32.867188 57.289062 32.652344 C 57.542969 32.441406 57.710938 32.121094 57.804688 31.699219 Z M 57.804688 31.699219 "/>
<path style="fill:none;stroke-width:0.0333333;stroke-linecap:butt;stroke-linejoin:miter;stroke:rgb(0%,0%,0%);stroke-opacity:1;stroke-miterlimit:10;" d="M 0.17344 0.399865 L 0.874398 -0.00480589 " transform="matrix(20.719424,0,0,20.869565,20.386892,20.522172)"/>
<path style="fill:none;stroke-width:0.0333333;stroke-linecap:butt;stroke-linejoin:miter;stroke:rgb(0%,0%,0%);stroke-opacity:1;stroke-miterlimit:10;" d="M 0.857807 -0.00480589 L 1.548395 0.393876 " transform="matrix(20.719424,0,0,20.869565,20.386892,20.522172)"/>
</g>
</svg>
