<?xml version="1.0" encoding="UTF-8"?>
<svg xmlns="http://www.w3.org/2000/svg" xmlns:xlink="http://www.w3.org/1999/xlink" width="83.2pt" height="78.4pt" viewBox="0 0 83.2 78.4" version="1.1">
<g id="surface762">
<path style=" stroke:none;fill-rule:nonzero;fill:rgb(0%,0%,0%);fill-opacity:1;" d="M 22.007812 57.683594 L 22.667969 57.851562 C 22.523438 58.394531 22.277344 58.804688 21.921875 59.085938 C 21.5625 59.367188 21.125 59.507812 20.609375 59.511719 C 20.074219 59.507812 19.640625 59.402344 19.304688 59.1875 C 18.96875 58.96875 18.710938 58.652344 18.539062 58.238281 C 18.363281 57.824219 18.277344 57.378906 18.277344 56.902344 C 18.277344 56.386719 18.375 55.9375 18.574219 55.546875 C 18.769531 55.164062 19.046875 54.871094 19.417969 54.667969 C 19.777344 54.46875 20.183594 54.371094 20.621094 54.367188 C 21.117188 54.371094 21.535156 54.496094 21.871094 54.746094 C 22.210938 55.003906 22.445312 55.359375 22.578125 55.816406 L 21.933594 55.96875 C 21.816406 55.609375 21.648438 55.347656 21.429688 55.179688 C 21.207031 55.015625 20.933594 54.933594 20.609375 54.933594 C 20.222656 54.933594 19.902344 55.023438 19.648438 55.207031 C 19.390625 55.390625 19.214844 55.636719 19.109375 55.945312 C 19.007812 56.253906 18.957031 56.570312 18.957031 56.902344 C 18.957031 57.324219 19.015625 57.695312 19.140625 58.007812 C 19.257812 58.324219 19.453125 58.5625 19.710938 58.71875 C 19.972656 58.875 20.253906 58.953125 20.554688 58.949219 C 20.925781 58.953125 21.234375 58.847656 21.492188 58.632812 C 21.746094 58.421875 21.914062 58.101562 22.007812 57.683594 Z M 22.007812 57.683594 "/>
<path style=" stroke:none;fill-rule:nonzero;fill:rgb(0%,0%,0%);fill-opacity:1;" d="M 31.371094 34.539062 C 31.207031 34.675781 31.054688 34.769531 30.914062 34.824219 C 30.765625 34.878906 30.605469 34.90625 30.441406 34.90625 C 30.164062 34.90625 29.953125 34.839844 29.804688 34.703125 C 29.65625 34.566406 29.582031 34.394531 29.582031 34.183594 C 29.582031 34.066406 29.609375 33.949219 29.667969 33.847656 C 29.722656 33.746094 29.792969 33.664062 29.886719 33.601562 C 29.980469 33.539062 30.082031 33.496094 30.195312 33.460938 C 30.277344 33.441406 30.402344 33.417969 30.574219 33.394531 C 30.914062 33.355469 31.171875 33.308594 31.332031 33.246094 C 31.332031 33.195312 31.332031 33.15625 31.335938 33.136719 C 31.332031 32.964844 31.292969 32.84375 31.214844 32.765625 C 31.101562 32.675781 30.941406 32.625 30.730469 32.625 C 30.527344 32.625 30.378906 32.660156 30.285156 32.730469 C 30.1875 32.800781 30.117188 32.925781 30.074219 33.105469 L 29.65625 33.046875 C 29.691406 32.871094 29.753906 32.726562 29.84375 32.613281 C 29.925781 32.503906 30.054688 32.417969 30.21875 32.359375 C 30.382812 32.304688 30.570312 32.273438 30.792969 32.269531 C 31.003906 32.273438 31.179688 32.296875 31.3125 32.347656 C 31.445312 32.398438 31.546875 32.464844 31.613281 32.539062 C 31.675781 32.617188 31.71875 32.710938 31.746094 32.828125 C 31.753906 32.902344 31.761719 33.035156 31.765625 33.222656 L 31.765625 33.792969 C 31.761719 34.191406 31.769531 34.441406 31.792969 34.546875 C 31.808594 34.652344 31.847656 34.753906 31.902344 34.847656 L 31.453125 34.847656 C 31.410156 34.761719 31.382812 34.660156 31.371094 34.539062 Z M 31.332031 33.585938 C 31.179688 33.648438 30.945312 33.703125 30.636719 33.746094 C 30.460938 33.773438 30.335938 33.796875 30.265625 33.832031 C 30.191406 33.863281 30.136719 33.910156 30.097656 33.96875 C 30.058594 34.03125 30.035156 34.097656 30.039062 34.171875 C 30.035156 34.289062 30.078125 34.382812 30.164062 34.457031 C 30.25 34.535156 30.375 34.574219 30.542969 34.574219 C 30.707031 34.574219 30.851562 34.539062 30.984375 34.464844 C 31.109375 34.394531 31.203125 34.296875 31.265625 34.167969 C 31.308594 34.074219 31.332031 33.929688 31.332031 33.738281 Z M 31.332031 33.585938 "/>
<path style=" stroke:none;fill-rule:nonzero;fill:rgb(0%,0%,0%);fill-opacity:1;" d="M 32.425781 34.847656 L 32.425781 32.328125 L 32.808594 32.328125 L 32.808594 32.6875 C 32.992188 32.410156 33.261719 32.273438 33.613281 32.269531 C 33.761719 32.273438 33.898438 32.300781 34.027344 32.351562 C 34.152344 32.410156 34.25 32.480469 34.316406 32.566406 C 34.378906 32.65625 34.421875 32.761719 34.449219 32.882812 C 34.460938 32.960938 34.46875 33.101562 34.46875 33.300781 L 34.46875 34.847656 L 34.046875 34.847656 L 34.046875 33.316406 C 34.042969 33.140625 34.027344 33.011719 33.992188 32.925781 C 33.957031 32.839844 33.898438 32.773438 33.816406 32.71875 C 33.730469 32.667969 33.632812 32.640625 33.519531 32.640625 C 33.339844 32.640625 33.179688 32.699219 33.050781 32.8125 C 32.917969 32.929688 32.855469 33.148438 32.855469 33.46875 L 32.855469 34.847656 Z M 32.425781 34.847656 "/>
<path style=" stroke:none;fill-rule:nonzero;fill:rgb(0%,0%,0%);fill-opacity:1;" d="M 36.757812 34.847656 L 36.757812 34.53125 C 36.597656 34.78125 36.363281 34.90625 36.054688 34.90625 C 35.851562 34.90625 35.667969 34.851562 35.5 34.742188 C 35.332031 34.628906 35.199219 34.476562 35.109375 34.277344 C 35.015625 34.078125 34.96875 33.851562 34.96875 33.589844 C 34.96875 33.339844 35.007812 33.113281 35.09375 32.90625 C 35.175781 32.703125 35.304688 32.542969 35.472656 32.433594 C 35.640625 32.328125 35.828125 32.273438 36.035156 32.269531 C 36.183594 32.273438 36.320312 32.304688 36.4375 32.367188 C 36.558594 32.433594 36.65625 32.515625 36.730469 32.613281 L 36.730469 31.367188 L 37.152344 31.367188 L 37.152344 34.847656 Z M 35.410156 33.589844 C 35.40625 33.914062 35.472656 34.15625 35.613281 34.316406 C 35.746094 34.476562 35.90625 34.554688 36.09375 34.554688 C 36.277344 34.554688 36.4375 34.480469 36.570312 34.324219 C 36.699219 34.175781 36.761719 33.941406 36.765625 33.625 C 36.761719 33.28125 36.695312 33.03125 36.566406 32.867188 C 36.429688 32.707031 36.269531 32.625 36.074219 32.625 C 35.882812 32.625 35.722656 32.703125 35.597656 32.855469 C 35.46875 33.015625 35.40625 33.257812 35.410156 33.589844 Z M 35.410156 33.589844 "/>
<path style=" stroke:none;fill-rule:nonzero;fill:rgb(0%,0%,0%);fill-opacity:1;" d="M 39.3125 34.847656 L 38.886719 34.847656 L 38.886719 32.125 C 38.78125 32.226562 38.648438 32.324219 38.480469 32.417969 C 38.316406 32.519531 38.164062 32.59375 38.03125 32.640625 L 38.03125 32.226562 C 38.269531 32.117188 38.480469 31.980469 38.660156 31.820312 C 38.835938 31.660156 38.960938 31.503906 39.039062 31.351562 L 39.3125 31.351562 Z M 39.3125 34.847656 "/>
<path style=" stroke:none;fill-rule:nonzero;fill:rgb(0%,0%,0%);fill-opacity:1;" d="M 50.042969 41.949219 L 50.042969 36.972656 L 50.71875 36.972656 L 53.324219 40.878906 L 53.324219 36.972656 L 53.957031 36.972656 L 53.957031 41.949219 L 53.28125 41.949219 L 50.675781 38.039062 L 50.675781 41.949219 Z M 50.042969 41.949219 "/>
<path style=" stroke:none;fill-rule:nonzero;fill:rgb(0%,0%,0%);fill-opacity:1;" d="M 48.699219 34.265625 C 48.699219 33.796875 48.824219 33.453125 49.085938 33.230469 C 49.300781 33.042969 49.566406 32.953125 49.875 32.949219 C 50.222656 32.953125 50.503906 33.066406 50.722656 33.292969 C 50.945312 33.519531 51.054688 33.832031 51.054688 34.230469 C 51.054688 34.558594 51.007812 34.8125 50.910156 35 C 50.8125 35.183594 50.671875 35.328125 50.484375 35.429688 C 50.300781 35.535156 50.097656 35.585938 49.875 35.585938 C 49.523438 35.585938 49.238281 35.472656 49.023438 35.246094 C 48.808594 35.023438 48.699219 34.695312 48.699219 34.265625 Z M 49.132812 34.265625 C 49.132812 34.589844 49.203125 34.835938 49.347656 34.992188 C 49.484375 35.15625 49.664062 35.234375 49.875 35.230469 C 50.089844 35.234375 50.265625 35.152344 50.40625 34.992188 C 50.546875 34.832031 50.617188 34.585938 50.617188 34.253906 C 50.617188 33.941406 50.546875 33.707031 50.40625 33.542969 C 50.265625 33.386719 50.089844 33.304688 49.875 33.300781 C 49.664062 33.304688 49.484375 33.386719 49.347656 33.542969 C 49.203125 33.707031 49.132812 33.945312 49.132812 34.265625 Z M 49.132812 34.265625 "/>
<path style=" stroke:none;fill-rule:nonzero;fill:rgb(0%,0%,0%);fill-opacity:1;" d="M 51.550781 35.527344 L 51.550781 33.007812 L 51.933594 33.007812 L 51.933594 33.390625 C 52.03125 33.210938 52.121094 33.09375 52.203125 33.035156 C 52.285156 32.980469 52.378906 32.953125 52.476562 32.949219 C 52.621094 32.953125 52.769531 32.996094 52.917969 33.085938 L 52.769531 33.484375 C 52.664062 33.421875 52.558594 33.390625 52.460938 33.390625 C 52.363281 33.390625 52.277344 33.417969 52.207031 33.476562 C 52.132812 33.53125 52.082031 33.613281 52.046875 33.710938 C 52 33.863281 51.976562 34.03125 51.976562 34.207031 L 51.976562 35.527344 Z M 51.550781 35.527344 "/>
<path style=" stroke:none;fill-rule:nonzero;fill:rgb(0%,0%,0%);fill-opacity:1;" d="M 55.292969 35.117188 L 55.292969 35.527344 L 52.996094 35.527344 C 52.996094 35.425781 53.011719 35.328125 53.050781 35.230469 C 53.105469 35.078125 53.199219 34.921875 53.328125 34.769531 C 53.457031 34.617188 53.640625 34.441406 53.886719 34.242188 C 54.261719 33.933594 54.515625 33.6875 54.652344 33.503906 C 54.78125 33.324219 54.851562 33.152344 54.851562 32.988281 C 54.851562 32.820312 54.789062 32.675781 54.671875 32.5625 C 54.550781 32.445312 54.390625 32.382812 54.199219 32.382812 C 53.988281 32.382812 53.828125 32.445312 53.703125 32.570312 C 53.578125 32.695312 53.519531 32.867188 53.519531 33.085938 L 53.078125 33.039062 C 53.109375 32.710938 53.21875 32.464844 53.417969 32.289062 C 53.613281 32.121094 53.878906 32.035156 54.207031 32.03125 C 54.539062 32.035156 54.800781 32.125 54.996094 32.3125 C 55.191406 32.496094 55.289062 32.726562 55.289062 32.996094 C 55.289062 33.140625 55.257812 33.273438 55.203125 33.410156 C 55.144531 33.546875 55.050781 33.6875 54.921875 33.835938 C 54.785156 33.984375 54.570312 34.191406 54.265625 34.449219 C 54.007812 34.664062 53.84375 34.8125 53.769531 34.886719 C 53.695312 34.964844 53.636719 35.042969 53.589844 35.117188 Z M 55.292969 35.117188 "/>
<path style=" stroke:none;fill-rule:nonzero;fill:rgb(0%,0%,0%);fill-opacity:1;" d="M 22.011719 21.574219 L 22.667969 21.742188 C 22.527344 22.285156 22.28125 22.695312 21.925781 22.976562 C 21.566406 23.257812 21.128906 23.402344 20.613281 23.402344 C 20.078125 23.402344 19.644531 23.292969 19.308594 23.078125 C 18.972656 22.859375 18.714844 22.542969 18.542969 22.128906 C 18.363281 21.714844 18.277344 21.269531 18.28125 20.792969 C 18.277344 20.277344 18.378906 19.828125 18.578125 19.4375 C 18.769531 19.054688 19.050781 18.761719 19.417969 18.558594 C 19.78125 18.363281 20.183594 18.261719 20.625 18.257812 C 21.121094 18.261719 21.535156 18.386719 21.875 18.636719 C 22.214844 18.894531 22.449219 19.25 22.582031 19.707031 L 21.9375 19.859375 C 21.816406 19.5 21.652344 19.238281 21.433594 19.070312 C 21.210938 18.90625 20.9375 18.824219 20.609375 18.824219 C 20.226562 18.824219 19.90625 18.914062 19.652344 19.097656 C 19.394531 19.28125 19.214844 19.527344 19.113281 19.835938 C 19.011719 20.144531 18.957031 20.460938 18.957031 20.792969 C 18.957031 21.214844 19.019531 21.585938 19.140625 21.898438 C 19.261719 22.214844 19.453125 22.453125 19.714844 22.609375 C 19.972656 22.765625 20.253906 22.84375 20.558594 22.839844 C 20.925781 22.84375 21.238281 22.738281 21.492188 22.523438 C 21.746094 22.3125 21.917969 21.992188 22.011719 21.574219 Z M 22.011719 21.574219 "/>
<path style=" stroke:none;fill-rule:nonzero;fill:rgb(0%,0%,0%);fill-opacity:1;" d="M 23.386719 23.320312 L 23.386719 18.34375 L 23.996094 18.34375 L 23.996094 23.320312 Z M 23.386719 23.320312 "/>
<path style=" stroke:none;fill-rule:nonzero;fill:rgb(0%,0%,0%);fill-opacity:1;" d="M 60.753906 22.492188 L 61.375 22.4375 C 61.402344 22.6875 61.46875 22.894531 61.578125 23.050781 C 61.683594 23.214844 61.851562 23.339844 62.078125 23.4375 C 62.300781 23.535156 62.558594 23.585938 62.839844 23.585938 C 63.089844 23.585938 63.308594 23.550781 63.503906 23.472656 C 63.691406 23.402344 63.835938 23.296875 63.929688 23.164062 C 64.023438 23.035156 64.066406 22.894531 64.070312 22.738281 C 64.066406 22.582031 64.023438 22.449219 63.9375 22.332031 C 63.84375 22.214844 63.695312 22.117188 63.488281 22.039062 C 63.351562 21.984375 63.058594 21.90625 62.601562 21.796875 C 62.148438 21.6875 61.828125 21.582031 61.648438 21.484375 C 61.410156 21.359375 61.234375 21.203125 61.117188 21.019531 C 61 20.835938 60.941406 20.628906 60.941406 20.398438 C 60.941406 20.152344 61.011719 19.917969 61.15625 19.695312 C 61.296875 19.480469 61.503906 19.3125 61.78125 19.199219 C 62.050781 19.089844 62.355469 19.03125 62.691406 19.03125 C 63.054688 19.03125 63.378906 19.089844 63.660156 19.207031 C 63.941406 19.328125 64.15625 19.5 64.3125 19.734375 C 64.460938 19.964844 64.542969 20.226562 64.554688 20.515625 L 63.925781 20.5625 C 63.890625 20.25 63.777344 20.011719 63.582031 19.851562 C 63.382812 19.691406 63.097656 19.609375 62.71875 19.609375 C 62.320312 19.609375 62.027344 19.683594 61.847656 19.832031 C 61.667969 19.976562 61.574219 20.152344 61.578125 20.355469 C 61.574219 20.539062 61.640625 20.683594 61.769531 20.796875 C 61.894531 20.914062 62.222656 21.03125 62.757812 21.152344 C 63.292969 21.277344 63.65625 21.382812 63.855469 21.46875 C 64.144531 21.605469 64.359375 21.773438 64.496094 21.976562 C 64.632812 22.183594 64.703125 22.421875 64.703125 22.683594 C 64.703125 22.953125 64.625 23.203125 64.476562 23.433594 C 64.324219 23.667969 64.105469 23.851562 63.824219 23.980469 C 63.539062 24.109375 63.21875 24.171875 62.867188 24.175781 C 62.417969 24.171875 62.042969 24.109375 61.738281 23.980469 C 61.433594 23.847656 61.195312 23.648438 61.023438 23.386719 C 60.851562 23.125 60.761719 22.824219 60.753906 22.492188 Z M 60.753906 22.492188 "/>
<path style=" stroke:none;fill-rule:nonzero;fill:rgb(0%,0%,0%);fill-opacity:1;" d="M 63.601562 58.453125 L 64.257812 58.621094 C 64.117188 59.164062 63.871094 59.574219 63.511719 59.855469 C 63.15625 60.140625 62.71875 60.28125 62.203125 60.285156 C 61.667969 60.28125 61.234375 60.175781 60.898438 59.957031 C 60.5625 59.742188 60.304688 59.421875 60.128906 59.007812 C 59.953125 58.59375 59.867188 58.148438 59.871094 57.675781 C 59.867188 57.160156 59.96875 56.707031 60.164062 56.320312 C 60.359375 55.933594 60.640625 55.640625 61.007812 55.441406 C 61.371094 55.242188 61.773438 55.140625 62.214844 55.136719 C 62.707031 55.140625 63.125 55.269531 63.464844 55.519531 C 63.804688 55.773438 64.039062 56.128906 64.171875 56.589844 L 63.527344 56.742188 C 63.40625 56.382812 63.238281 56.117188 63.023438 55.949219 C 62.800781 55.789062 62.527344 55.703125 62.199219 55.703125 C 61.816406 55.703125 61.496094 55.796875 61.242188 55.976562 C 60.984375 56.164062 60.804688 56.410156 60.703125 56.714844 C 60.597656 57.027344 60.546875 57.34375 60.546875 57.671875 C 60.546875 58.09375 60.605469 58.464844 60.730469 58.78125 C 60.851562 59.097656 61.042969 59.332031 61.304688 59.488281 C 61.5625 59.644531 61.84375 59.722656 62.148438 59.722656 C 62.515625 59.722656 62.828125 59.617188 63.082031 59.402344 C 63.335938 59.191406 63.507812 58.875 63.601562 58.453125 Z M 63.601562 58.453125 "/>
<path style="fill:none;stroke-width:0.0333333;stroke-linecap:butt;stroke-linejoin:miter;stroke:rgb(0%,0%,0%);stroke-opacity:1;stroke-miterlimit:10;" d="M 0.113322 1.543607 L 0.520849 0.866933 " transform="matrix(20.8,0,0,20.851064,20.471033,20.82978)"/>
<path style="fill:none;stroke-width:0.0333333;stroke-linecap:butt;stroke-linejoin:miter;stroke:rgb(0%,0%,0%);stroke-opacity:1;stroke-miterlimit:10;" d="M 0.506388 0.874988 L 1.376468 0.890912 " transform="matrix(20.8,0,0,20.851064,20.471033,20.82978)"/>
<path style=" stroke:none;fill-rule:nonzero;fill:rgb(0%,0%,0%);fill-opacity:1;" d="M 31.203125 39.078125 L 25.609375 23.910156 L 21.359375 26.265625 "/>
<path style="fill:none;stroke-width:0.0333333;stroke-linecap:butt;stroke-linejoin:miter;stroke:rgb(0%,0%,0%);stroke-opacity:1;stroke-miterlimit:10;" d="M 1.746247 0.510986 L 1.921089 0.22042 " transform="matrix(20.8,0,0,20.851064,20.471033,20.82978)"/>
<path style=" stroke:none;fill-rule:nonzero;fill:rgb(0%,0%,0%);fill-opacity:1;" d="M 53.867188 42.851562 L 57.746094 54.910156 L 61.992188 52.554688 "/>
</g>
</svg>
