<?xml version="1.0" encoding="UTF-8"?>
<svg xmlns="http://www.w3.org/2000/svg" xmlns:xlink="http://www.w3.org/1999/xlink" width="94.4pt" height="104pt" viewBox="0 0 94.4 104" version="1.1">
<g id="surface607">
<path style=" stroke:none;fill-rule:nonzero;fill:rgb(0%,0%,0%);fill-opacity:1;" d="M 53.910156 20.71875 C 53.90625 19.902344 54.128906 19.257812 54.570312 18.792969 C 55.011719 18.328125 55.578125 18.097656 56.273438 18.09375 C 56.726562 18.097656 57.140625 18.207031 57.507812 18.421875 C 57.875 18.640625 58.152344 18.945312 58.34375 19.335938 C 58.535156 19.730469 58.628906 20.171875 58.632812 20.664062 C 58.628906 21.167969 58.527344 21.617188 58.328125 22.011719 C 58.125 22.410156 57.839844 22.707031 57.472656 22.910156 C 57.101562 23.113281 56.699219 23.214844 56.273438 23.214844 C 55.804688 23.214844 55.390625 23.101562 55.023438 22.878906 C 54.65625 22.65625 54.378906 22.347656 54.195312 21.957031 C 54.003906 21.570312 53.90625 21.15625 53.910156 20.71875 Z M 54.585938 20.730469 C 54.582031 21.328125 54.742188 21.796875 55.066406 22.140625 C 55.382812 22.488281 55.785156 22.660156 56.269531 22.65625 C 56.761719 22.660156 57.164062 22.488281 57.480469 22.136719 C 57.800781 21.792969 57.960938 21.296875 57.960938 20.660156 C 57.960938 20.257812 57.890625 19.90625 57.753906 19.605469 C 57.617188 19.304688 57.421875 19.074219 57.160156 18.90625 C 56.898438 18.742188 56.605469 18.660156 56.28125 18.660156 C 55.8125 18.660156 55.414062 18.820312 55.082031 19.136719 C 54.75 19.457031 54.582031 19.988281 54.585938 20.730469 Z M 54.585938 20.730469 "/>
<path style=" stroke:none;fill-rule:nonzero;fill:rgb(0%,0%,0%);fill-opacity:1;" d="M 22 42.269531 L 22.65625 42.4375 C 22.515625 42.976562 22.269531 43.386719 21.914062 43.667969 C 21.558594 43.949219 21.121094 44.085938 20.609375 44.089844 C 20.078125 44.085938 19.644531 43.984375 19.3125 43.765625 C 18.976562 43.550781 18.71875 43.234375 18.546875 42.820312 C 18.371094 42.410156 18.285156 41.96875 18.289062 41.496094 C 18.285156 40.980469 18.386719 40.53125 18.582031 40.148438 C 18.777344 39.761719 19.054688 39.472656 19.421875 39.273438 C 19.78125 39.074219 20.183594 38.976562 20.621094 38.972656 C 21.113281 38.976562 21.527344 39.101562 21.867188 39.351562 C 22.203125 39.605469 22.4375 39.957031 22.570312 40.414062 L 21.929688 40.566406 C 21.808594 40.210938 21.640625 39.945312 21.425781 39.78125 C 21.207031 39.617188 20.933594 39.535156 20.605469 39.535156 C 20.226562 39.535156 19.90625 39.625 19.652344 39.804688 C 19.398438 39.992188 19.21875 40.234375 19.117188 40.542969 C 19.015625 40.847656 18.964844 41.164062 18.964844 41.492188 C 18.964844 41.914062 19.023438 42.28125 19.144531 42.59375 C 19.265625 42.910156 19.457031 43.144531 19.714844 43.300781 C 19.972656 43.457031 20.253906 43.535156 20.554688 43.53125 C 20.921875 43.535156 21.234375 43.429688 21.484375 43.214844 C 21.738281 43.003906 21.910156 42.6875 22 42.269531 Z M 22 42.269531 "/>
<path style=" stroke:none;fill-rule:nonzero;fill:rgb(0%,0%,0%);fill-opacity:1;" d="M 57.800781 83.808594 L 58.457031 83.976562 C 58.316406 84.515625 58.070312 84.921875 57.714844 85.203125 C 57.359375 85.484375 56.921875 85.625 56.410156 85.628906 C 55.875 85.625 55.445312 85.519531 55.109375 85.304688 C 54.777344 85.089844 54.519531 84.773438 54.347656 84.359375 C 54.171875 83.949219 54.085938 83.503906 54.089844 83.03125 C 54.085938 82.519531 54.1875 82.070312 54.382812 81.683594 C 54.578125 81.300781 54.855469 81.007812 55.222656 80.808594 C 55.582031 80.613281 55.984375 80.511719 56.421875 80.511719 C 56.914062 80.511719 57.328125 80.640625 57.664062 80.886719 C 58.003906 81.140625 58.238281 81.496094 58.371094 81.953125 L 57.726562 82.105469 C 57.609375 81.746094 57.441406 81.484375 57.226562 81.316406 C 57.003906 81.15625 56.734375 81.070312 56.40625 81.070312 C 56.023438 81.070312 55.707031 81.164062 55.453125 81.34375 C 55.195312 81.527344 55.019531 81.773438 54.917969 82.078125 C 54.8125 82.386719 54.761719 82.703125 54.761719 83.03125 C 54.761719 83.453125 54.820312 83.820312 54.945312 84.132812 C 55.066406 84.449219 55.257812 84.683594 55.515625 84.835938 C 55.773438 84.992188 56.054688 85.070312 56.355469 85.070312 C 56.722656 85.070312 57.03125 84.964844 57.285156 84.753906 C 57.539062 84.542969 57.707031 84.226562 57.800781 83.808594 Z M 57.800781 83.808594 "/>
<path style=" stroke:none;fill-rule:nonzero;fill:rgb(0%,0%,0%);fill-opacity:1;" d="M 72.234375 54.179688 L 72.234375 49.226562 L 72.890625 49.226562 L 72.890625 51.261719 L 75.457031 51.261719 L 75.457031 49.226562 L 76.109375 49.226562 L 76.109375 54.179688 L 75.457031 54.179688 L 75.457031 51.84375 L 72.890625 51.84375 L 72.890625 54.179688 Z M 72.234375 54.179688 "/>
<path style=" stroke:none;fill-rule:nonzero;fill:rgb(0%,0%,0%);fill-opacity:1;" d="M 18.429688 85.4375 L 18.429688 80.484375 L 19.085938 80.484375 L 19.085938 82.519531 L 21.652344 82.519531 L 21.652344 80.484375 L 22.304688 80.484375 L 22.304688 85.4375 L 21.652344 85.4375 L 21.652344 83.101562 L 19.085938 83.101562 L 19.085938 85.4375 Z M 18.429688 85.4375 "/>
<path style="fill:none;stroke-width:0.0333333;stroke-linecap:butt;stroke-linejoin:miter;stroke:rgb(0%,0%,0%);stroke-opacity:1;stroke-miterlimit:10;" d="M 0.79162 1.459038 L 0.786148 2.555705 " transform="matrix(20.701754,0,0,20.744681,20.365991,20.654596)"/>
<path style="fill:none;stroke-width:0.0333333;stroke-linecap:butt;stroke-linejoin:miter;stroke:rgb(0%,0%,0%);stroke-opacity:1;stroke-miterlimit:10;" d="M 0.958234 1.457908 L 0.952762 2.556081 " transform="matrix(20.701754,0,0,20.744681,20.365991,20.654596)"/>
<path style="fill:none;stroke-width:0.0333333;stroke-linecap:butt;stroke-linejoin:miter;stroke:rgb(0%,0%,0%);stroke-opacity:1;stroke-miterlimit:10;" d="M 1.823009 1.049483 L 1.81848 0.167103 " transform="matrix(20.701754,0,0,20.744681,20.365991,20.654596)"/>
<path style="fill:none;stroke-width:0.0333333;stroke-linecap:butt;stroke-linejoin:miter;stroke:rgb(0%,0%,0%);stroke-opacity:1;stroke-miterlimit:10;" d="M 1.656394 1.049859 L 1.651865 0.168044 " transform="matrix(20.701754,0,0,20.744681,20.365991,20.654596)"/>
<path style="fill:none;stroke-width:0.0333333;stroke-linecap:butt;stroke-linejoin:miter;stroke:rgb(0%,0%,0%);stroke-opacity:1;stroke-miterlimit:10;" d="M 0.883135 1.511762 L 0.188938 1.112187 " transform="matrix(20.701754,0,0,20.744681,20.365991,20.654596)"/>
<path style="fill:none;stroke-width:0.0333333;stroke-linecap:butt;stroke-linejoin:miter;stroke:rgb(0%,0%,0%);stroke-opacity:1;stroke-miterlimit:10;" d="M 0.866342 1.511762 L 1.747721 0.996194 " transform="matrix(20.701754,0,0,20.744681,20.365991,20.654596)"/>
<path style="fill:none;stroke-width:0.0333333;stroke-linecap:butt;stroke-linejoin:miter;stroke:rgb(0%,0%,0%);stroke-opacity:1;stroke-miterlimit:10;" d="M 0.861624 2.503357 L 1.550727 2.902179 " transform="matrix(20.701754,0,0,20.744681,20.365991,20.654596)"/>
<path style="fill:none;stroke-width:0.0333333;stroke-linecap:butt;stroke-linejoin:miter;stroke:rgb(0%,0%,0%);stroke-opacity:1;stroke-miterlimit:10;" d="M 1.731116 0.996382 L 2.426067 1.397087 " transform="matrix(20.701754,0,0,20.744681,20.365991,20.654596)"/>
<path style="fill:none;stroke-width:0.0333333;stroke-linecap:butt;stroke-linejoin:miter;stroke:rgb(0%,0%,0%);stroke-opacity:1;stroke-miterlimit:10;" d="M 0.87804 2.503357 L 0.173466 2.904815 " transform="matrix(20.701754,0,0,20.744681,20.365991,20.654596)"/>
</g>
</svg>
