<?xml version="1.0" encoding="UTF-8"?>
<svg xmlns="http://www.w3.org/2000/svg" xmlns:xlink="http://www.w3.org/1999/xlink" width="83.2pt" height="76.8pt" viewBox="0 0 83.2 76.8" version="1.1">
<g id="surface707">
<path style=" stroke:none;fill-rule:nonzero;fill:rgb(0%,0%,0%);fill-opacity:1;" d="M 48.851562 13.457031 L 49.511719 13.625 C 49.371094 14.164062 49.125 14.570312 48.765625 14.851562 C 48.410156 15.132812 47.96875 15.273438 47.457031 15.273438 C 46.917969 15.273438 46.484375 15.167969 46.148438 14.953125 C 45.8125 14.734375 45.558594 14.421875 45.382812 14.007812 C 45.207031 13.597656 45.121094 13.15625 45.125 12.683594 C 45.121094 12.171875 45.222656 11.722656 45.417969 11.335938 C 45.613281 10.953125 45.894531 10.660156 46.261719 10.460938 C 46.625 10.265625 47.027344 10.164062 47.464844 10.164062 C 47.960938 10.164062 48.378906 10.292969 48.71875 10.539062 C 49.054688 10.792969 49.292969 11.148438 49.425781 11.601562 L 48.78125 11.753906 C 48.660156 11.398438 48.492188 11.136719 48.277344 10.96875 C 48.054688 10.808594 47.78125 10.722656 47.453125 10.722656 C 47.066406 10.722656 46.75 10.816406 46.492188 10.996094 C 46.238281 11.179688 46.058594 11.425781 45.953125 11.730469 C 45.851562 12.039062 45.800781 12.351562 45.800781 12.679688 C 45.800781 13.101562 45.859375 13.46875 45.984375 13.78125 C 46.105469 14.097656 46.296875 14.332031 46.554688 14.484375 C 46.816406 14.640625 47.097656 14.71875 47.402344 14.714844 C 47.769531 14.71875 48.082031 14.613281 48.335938 14.402344 C 48.589844 14.191406 48.761719 13.875 48.851562 13.457031 Z M 48.851562 13.457031 "/>
<path style=" stroke:none;fill-rule:nonzero;fill:rgb(0%,0%,0%);fill-opacity:1;" d="M 50.242188 15.191406 L 50.242188 10.246094 L 50.851562 10.246094 L 50.851562 12.023438 C 51.132812 11.695312 51.488281 11.53125 51.925781 11.527344 C 52.191406 11.53125 52.425781 11.582031 52.621094 11.6875 C 52.816406 11.792969 52.957031 11.9375 53.042969 12.121094 C 53.125 12.308594 53.167969 12.574219 53.167969 12.921875 L 53.167969 15.191406 L 52.558594 15.191406 L 52.558594 12.921875 C 52.558594 12.621094 52.492188 12.398438 52.363281 12.257812 C 52.230469 12.121094 52.042969 12.050781 51.800781 12.050781 C 51.621094 12.050781 51.449219 12.101562 51.292969 12.191406 C 51.128906 12.289062 51.015625 12.414062 50.953125 12.570312 C 50.878906 12.734375 50.847656 12.953125 50.851562 13.234375 L 50.851562 15.191406 Z M 50.242188 15.191406 "/>
<path style=" stroke:none;fill-rule:nonzero;fill:rgb(0%,0%,0%);fill-opacity:1;" d="M 54.101562 10.945312 L 54.101562 10.246094 L 54.710938 10.246094 L 54.710938 10.945312 Z M 54.101562 15.191406 L 54.101562 11.609375 L 54.710938 11.609375 L 54.710938 15.191406 Z M 54.101562 15.191406 "/>
<path style=" stroke:none;fill-rule:nonzero;fill:rgb(0%,0%,0%);fill-opacity:1;" d="M 55.628906 15.191406 L 55.628906 11.609375 L 56.179688 11.609375 L 56.179688 12.152344 C 56.316406 11.898438 56.445312 11.734375 56.566406 11.648438 C 56.683594 11.570312 56.8125 11.53125 56.957031 11.527344 C 57.160156 11.53125 57.371094 11.59375 57.585938 11.726562 L 57.375 12.289062 C 57.226562 12.203125 57.074219 12.15625 56.925781 12.15625 C 56.792969 12.15625 56.667969 12.195312 56.566406 12.277344 C 56.457031 12.359375 56.386719 12.46875 56.34375 12.605469 C 56.273438 12.824219 56.238281 13.0625 56.238281 13.316406 L 56.238281 15.191406 Z M 55.628906 15.191406 "/>
<path style=" stroke:none;fill-rule:nonzero;fill:rgb(0%,0%,0%);fill-opacity:1;" d="M 60.292969 14.75 C 60.066406 14.941406 59.84375 15.078125 59.640625 15.152344 C 59.429688 15.234375 59.207031 15.273438 58.96875 15.273438 C 58.574219 15.273438 58.269531 15.179688 58.058594 14.984375 C 57.847656 14.796875 57.742188 14.550781 57.742188 14.246094 C 57.742188 14.074219 57.777344 13.914062 57.859375 13.765625 C 57.9375 13.621094 58.042969 13.503906 58.175781 13.417969 C 58.300781 13.332031 58.449219 13.269531 58.613281 13.21875 C 58.730469 13.191406 58.910156 13.15625 59.15625 13.128906 C 59.648438 13.066406 60.007812 13 60.242188 12.917969 C 60.242188 12.835938 60.242188 12.785156 60.246094 12.761719 C 60.242188 12.515625 60.1875 12.339844 60.074219 12.238281 C 59.914062 12.101562 59.683594 12.035156 59.378906 12.03125 C 59.089844 12.035156 58.878906 12.085938 58.742188 12.183594 C 58.605469 12.285156 58.503906 12.460938 58.441406 12.710938 L 57.84375 12.632812 C 57.894531 12.378906 57.984375 12.175781 58.113281 12.015625 C 58.234375 11.863281 58.414062 11.742188 58.652344 11.65625 C 58.882812 11.570312 59.15625 11.53125 59.464844 11.527344 C 59.773438 11.53125 60.019531 11.566406 60.214844 11.636719 C 60.40625 11.707031 60.546875 11.800781 60.640625 11.910156 C 60.726562 12.023438 60.789062 12.160156 60.828125 12.320312 C 60.847656 12.429688 60.855469 12.613281 60.859375 12.882812 L 60.859375 13.691406 C 60.855469 14.253906 60.867188 14.613281 60.894531 14.761719 C 60.921875 14.914062 60.972656 15.058594 61.050781 15.191406 L 60.414062 15.191406 C 60.347656 15.066406 60.308594 14.921875 60.292969 14.75 Z M 60.242188 13.394531 C 60.019531 13.488281 59.6875 13.566406 59.246094 13.625 C 58.996094 13.660156 58.816406 13.703125 58.714844 13.746094 C 58.609375 13.792969 58.527344 13.859375 58.476562 13.941406 C 58.417969 14.03125 58.390625 14.128906 58.390625 14.230469 C 58.390625 14.394531 58.449219 14.53125 58.574219 14.636719 C 58.695312 14.746094 58.875 14.800781 59.113281 14.796875 C 59.347656 14.800781 59.554688 14.75 59.738281 14.644531 C 59.925781 14.542969 60.054688 14.402344 60.144531 14.222656 C 60.207031 14.089844 60.238281 13.886719 60.242188 13.617188 Z M 60.242188 13.394531 "/>
<path style=" stroke:none;fill-rule:nonzero;fill:rgb(0%,0%,0%);fill-opacity:1;" d="M 61.789062 15.191406 L 61.789062 10.246094 L 62.398438 10.246094 L 62.398438 15.191406 Z M 61.789062 15.191406 "/>
<path style=" stroke:none;fill-rule:nonzero;fill:rgb(0%,0%,0%);fill-opacity:1;" d="M 50.042969 40.800781 L 50.042969 35.855469 L 50.71875 35.855469 L 53.324219 39.738281 L 53.324219 35.855469 L 53.957031 35.855469 L 53.957031 40.800781 L 53.28125 40.800781 L 50.675781 36.917969 L 50.675781 40.800781 Z M 50.042969 40.800781 "/>
<path style=" stroke:none;fill-rule:nonzero;fill:rgb(0%,0%,0%);fill-opacity:1;" d="M 21.671875 57.011719 L 22.332031 57.179688 C 22.1875 57.71875 21.941406 58.128906 21.585938 58.410156 C 21.226562 58.6875 20.789062 58.828125 20.273438 58.832031 C 19.738281 58.828125 19.304688 58.722656 18.96875 58.507812 C 18.632812 58.292969 18.375 57.976562 18.203125 57.5625 C 18.027344 57.152344 17.941406 56.710938 17.941406 56.238281 C 17.941406 55.726562 18.039062 55.277344 18.238281 54.894531 C 18.433594 54.511719 18.710938 54.21875 19.082031 54.019531 C 19.441406 53.820312 19.847656 53.722656 20.285156 53.71875 C 20.78125 53.722656 21.199219 53.847656 21.535156 54.097656 C 21.875 54.351562 22.109375 54.703125 22.242188 55.160156 L 21.597656 55.3125 C 21.480469 54.953125 21.3125 54.691406 21.09375 54.527344 C 20.875 54.363281 20.597656 54.28125 20.273438 54.28125 C 19.886719 54.28125 19.566406 54.371094 19.3125 54.554688 C 19.054688 54.738281 18.878906 54.980469 18.773438 55.285156 C 18.671875 55.59375 18.621094 55.910156 18.621094 56.238281 C 18.621094 56.65625 18.679688 57.023438 18.804688 57.335938 C 18.921875 57.652344 19.117188 57.886719 19.375 58.042969 C 19.636719 58.199219 19.917969 58.277344 20.21875 58.273438 C 20.589844 58.277344 20.898438 58.171875 21.15625 57.957031 C 21.410156 57.746094 21.578125 57.433594 21.671875 57.011719 Z M 21.671875 57.011719 "/>
<path style=" stroke:none;fill-rule:nonzero;fill:rgb(0%,0%,0%);fill-opacity:1;" d="M 23.046875 58.75 L 23.046875 53.804688 L 23.65625 53.804688 L 23.65625 58.75 Z M 23.046875 58.75 "/>
<path style=" stroke:none;fill-rule:nonzero;fill:rgb(0%,0%,0%);fill-opacity:1;" d="M 60.425781 21.273438 L 61.046875 21.21875 C 61.074219 21.464844 61.140625 21.671875 61.25 21.828125 C 61.355469 21.988281 61.523438 22.117188 61.75 22.214844 C 61.976562 22.3125 62.230469 22.359375 62.511719 22.359375 C 62.761719 22.359375 62.980469 22.324219 63.175781 22.25 C 63.363281 22.175781 63.507812 22.074219 63.601562 21.941406 C 63.695312 21.816406 63.742188 21.671875 63.742188 21.519531 C 63.742188 21.363281 63.699219 21.230469 63.609375 21.113281 C 63.515625 20.996094 63.367188 20.898438 63.160156 20.820312 C 63.027344 20.769531 62.730469 20.691406 62.277344 20.582031 C 61.820312 20.472656 61.5 20.367188 61.320312 20.273438 C 61.082031 20.148438 60.90625 19.992188 60.789062 19.808594 C 60.671875 19.625 60.613281 19.421875 60.613281 19.195312 C 60.613281 18.945312 60.6875 18.714844 60.828125 18.496094 C 60.96875 18.28125 61.175781 18.117188 61.453125 18.003906 C 61.722656 17.890625 62.027344 17.835938 62.363281 17.832031 C 62.726562 17.835938 63.050781 17.894531 63.335938 18.011719 C 63.613281 18.128906 63.828125 18.300781 63.984375 18.53125 C 64.132812 18.761719 64.214844 19.023438 64.226562 19.3125 L 63.597656 19.355469 C 63.5625 19.042969 63.449219 18.808594 63.253906 18.648438 C 63.054688 18.492188 62.769531 18.410156 62.390625 18.410156 C 61.992188 18.410156 61.703125 18.484375 61.519531 18.628906 C 61.339844 18.773438 61.246094 18.949219 61.25 19.152344 C 61.246094 19.332031 61.3125 19.476562 61.441406 19.589844 C 61.566406 19.703125 61.894531 19.824219 62.429688 19.941406 C 62.964844 20.066406 63.328125 20.171875 63.53125 20.257812 C 63.816406 20.394531 64.03125 20.558594 64.167969 20.761719 C 64.308594 20.96875 64.375 21.203125 64.378906 21.464844 C 64.375 21.730469 64.296875 21.980469 64.148438 22.207031 C 63.996094 22.441406 63.777344 22.625 63.496094 22.75 C 63.210938 22.878906 62.894531 22.941406 62.539062 22.945312 C 62.089844 22.941406 61.714844 22.878906 61.410156 22.75 C 61.105469 22.621094 60.867188 22.425781 60.695312 22.164062 C 60.523438 21.902344 60.433594 21.605469 60.425781 21.273438 Z M 60.425781 21.273438 "/>
<path style=" stroke:none;fill-rule:nonzero;fill:rgb(0%,0%,0%);fill-opacity:1;" d="M 63.9375 57.011719 L 64.59375 57.179688 C 64.453125 57.71875 64.207031 58.128906 63.847656 58.410156 C 63.492188 58.6875 63.050781 58.828125 62.539062 58.832031 C 62 58.828125 61.570312 58.722656 61.234375 58.507812 C 60.898438 58.292969 60.640625 57.976562 60.464844 57.5625 C 60.289062 57.152344 60.203125 56.710938 60.207031 56.238281 C 60.203125 55.726562 60.304688 55.277344 60.5 54.894531 C 60.695312 54.511719 60.976562 54.21875 61.34375 54.019531 C 61.707031 53.820312 62.109375 53.722656 62.550781 53.71875 C 63.042969 53.722656 63.460938 53.847656 63.800781 54.097656 C 64.140625 54.351562 64.375 54.703125 64.507812 55.160156 L 63.863281 55.3125 C 63.742188 54.953125 63.574219 54.691406 63.359375 54.527344 C 63.136719 54.363281 62.863281 54.28125 62.535156 54.28125 C 62.152344 54.28125 61.832031 54.371094 61.578125 54.554688 C 61.320312 54.738281 61.140625 54.980469 61.039062 55.285156 C 60.933594 55.59375 60.882812 55.910156 60.882812 56.238281 C 60.882812 56.65625 60.941406 57.023438 61.066406 57.335938 C 61.1875 57.652344 61.378906 57.886719 61.640625 58.042969 C 61.898438 58.199219 62.179688 58.277344 62.484375 58.273438 C 62.851562 58.277344 63.164062 58.171875 63.417969 57.957031 C 63.671875 57.746094 63.84375 57.433594 63.9375 57.011719 Z M 63.9375 57.011719 "/>
<path style=" stroke:none;fill-rule:nonzero;fill:rgb(0%,0%,0%);fill-opacity:1;" d="M 22.335938 21.125 L 22.992188 21.292969 C 22.851562 21.832031 22.605469 22.242188 22.25 22.523438 C 21.890625 22.800781 21.453125 22.941406 20.9375 22.945312 C 20.402344 22.941406 19.96875 22.835938 19.632812 22.621094 C 19.296875 22.40625 19.039062 22.089844 18.867188 21.675781 C 18.691406 21.265625 18.605469 20.824219 18.605469 20.351562 C 18.605469 19.839844 18.703125 19.390625 18.902344 19.007812 C 19.097656 18.625 19.375 18.332031 19.742188 18.132812 C 20.105469 17.933594 20.511719 17.835938 20.949219 17.832031 C 21.445312 17.835938 21.863281 17.960938 22.199219 18.210938 C 22.539062 18.464844 22.773438 18.816406 22.90625 19.273438 L 22.261719 19.425781 C 22.144531 19.066406 21.976562 18.808594 21.757812 18.640625 C 21.535156 18.476562 21.261719 18.394531 20.933594 18.394531 C 20.550781 18.394531 20.230469 18.484375 19.976562 18.667969 C 19.71875 18.851562 19.539062 19.09375 19.4375 19.398438 C 19.335938 19.707031 19.285156 20.023438 19.285156 20.351562 C 19.285156 20.769531 19.34375 21.136719 19.46875 21.449219 C 19.585938 21.765625 19.777344 22 20.039062 22.15625 C 20.300781 22.3125 20.582031 22.390625 20.882812 22.386719 C 21.253906 22.390625 21.5625 22.285156 21.816406 22.070312 C 22.074219 21.859375 22.242188 21.546875 22.335938 21.125 Z M 22.335938 21.125 "/>
<path style=" stroke:none;fill-rule:nonzero;fill:rgb(0%,0%,0%);fill-opacity:1;" d="M 31.199219 38.332031 L 21.136719 50.855469 L 25.34375 53.273438 "/>
<path style="fill:none;stroke-width:0.0333333;stroke-linecap:butt;stroke-linejoin:miter;stroke:rgb(0%,0%,0%);stroke-opacity:1;stroke-miterlimit:10;" d="M 0.490385 0.866078 L 1.362718 0.866078 " transform="matrix(20.8,0,0,20.719424,20.79999,20.387392)"/>
<path style="fill:none;stroke-width:0.0333333;stroke-linecap:butt;stroke-linejoin:miter;stroke:rgb(0%,0%,0%);stroke-opacity:1;stroke-miterlimit:10;" d="M 1.604793 1.047445 L 1.890625 1.542527 " transform="matrix(20.8,0,0,20.719424,20.79999,20.387392)"/>
<path style="fill:none;stroke-width:0.0333333;stroke-linecap:butt;stroke-linejoin:miter;stroke:rgb(0%,0%,0%);stroke-opacity:1;stroke-miterlimit:10;" d="M 1.604793 0.684711 L 1.893255 0.184916 " transform="matrix(20.8,0,0,20.719424,20.79999,20.387392)"/>
<path style="fill:none;stroke-width:0.0333333;stroke-linecap:butt;stroke-linejoin:miter;stroke:rgb(0%,0%,0%);stroke-opacity:1;stroke-miterlimit:10;" d="M 0.504846 0.874373 L 0.109338 0.189441 " transform="matrix(20.8,0,0,20.719424,20.79999,20.387392)"/>
</g>
</svg>
