<?xml version="1.0" encoding="UTF-8"?>
<svg xmlns="http://www.w3.org/2000/svg" xmlns:xlink="http://www.w3.org/1999/xlink" width="124pt" height="76.8pt" viewBox="0 0 124 76.8" version="1.1">
<g id="surface1227">
<path style=" stroke:none;fill-rule:nonzero;fill:rgb(0%,0%,0%);fill-opacity:1;" d="M 18.046875 38.394531 C 18.042969 37.578125 18.265625 36.9375 18.707031 36.46875 C 19.148438 36.007812 19.714844 35.777344 20.414062 35.773438 C 20.871094 35.777344 21.285156 35.882812 21.652344 36.101562 C 22.019531 36.316406 22.296875 36.625 22.492188 37.011719 C 22.679688 37.40625 22.777344 37.847656 22.78125 38.339844 C 22.777344 38.84375 22.675781 39.292969 22.476562 39.683594 C 22.269531 40.082031 21.984375 40.382812 21.617188 40.582031 C 21.242188 40.785156 20.84375 40.886719 20.414062 40.886719 C 19.945312 40.886719 19.527344 40.773438 19.160156 40.550781 C 18.792969 40.328125 18.515625 40.019531 18.328125 39.632812 C 18.136719 39.242188 18.042969 38.832031 18.046875 38.394531 Z M 18.722656 38.40625 C 18.71875 39.003906 18.878906 39.472656 19.203125 39.816406 C 19.519531 40.160156 19.921875 40.332031 20.410156 40.328125 C 20.902344 40.332031 21.308594 40.160156 21.625 39.8125 C 21.945312 39.464844 22.105469 38.972656 22.105469 38.335938 C 22.105469 37.933594 22.035156 37.582031 21.898438 37.28125 C 21.761719 36.980469 21.5625 36.75 21.300781 36.585938 C 21.039062 36.421875 20.746094 36.335938 20.421875 36.335938 C 19.953125 36.335938 19.554688 36.496094 19.222656 36.816406 C 18.886719 37.132812 18.71875 37.664062 18.722656 38.40625 Z M 18.722656 38.40625 "/>
<path style=" stroke:none;fill-rule:nonzero;fill:rgb(0%,0%,0%);fill-opacity:1;" d="M 49.183594 56.339844 C 49.179688 55.523438 49.402344 54.878906 49.847656 54.414062 C 50.285156 53.953125 50.855469 53.71875 51.554688 53.714844 C 52.007812 53.71875 52.421875 53.828125 52.792969 54.042969 C 53.15625 54.261719 53.433594 54.566406 53.628906 54.953125 C 53.820312 55.347656 53.917969 55.792969 53.917969 56.28125 C 53.917969 56.785156 53.8125 57.234375 53.613281 57.628906 C 53.410156 58.023438 53.121094 58.324219 52.753906 58.527344 C 52.382812 58.730469 51.980469 58.828125 51.550781 58.832031 C 51.082031 58.828125 50.667969 58.71875 50.300781 58.496094 C 49.933594 58.269531 49.652344 57.964844 49.46875 57.574219 C 49.277344 57.1875 49.179688 56.777344 49.183594 56.339844 Z M 49.859375 56.351562 C 49.855469 56.945312 50.019531 57.414062 50.339844 57.757812 C 50.660156 58.101562 51.0625 58.277344 51.546875 58.273438 C 52.039062 58.277344 52.445312 58.101562 52.765625 57.753906 C 53.082031 57.410156 53.242188 56.917969 53.242188 56.28125 C 53.242188 55.878906 53.171875 55.527344 53.039062 55.226562 C 52.898438 54.925781 52.703125 54.691406 52.441406 54.527344 C 52.179688 54.363281 51.882812 54.28125 51.558594 54.28125 C 51.09375 54.28125 50.691406 54.441406 50.359375 54.757812 C 50.023438 55.078125 49.855469 55.609375 49.859375 56.351562 Z M 49.859375 56.351562 "/>
<path style=" stroke:none;fill-rule:nonzero;fill:rgb(0%,0%,0%);fill-opacity:1;" d="M 101.082031 38.394531 C 101.078125 37.578125 101.300781 36.9375 101.742188 36.46875 C 102.183594 36.007812 102.75 35.777344 103.453125 35.773438 C 103.90625 35.777344 104.320312 35.882812 104.6875 36.101562 C 105.054688 36.316406 105.332031 36.625 105.527344 37.011719 C 105.714844 37.40625 105.8125 37.847656 105.816406 38.339844 C 105.8125 38.84375 105.710938 39.292969 105.511719 39.683594 C 105.304688 40.082031 105.019531 40.382812 104.652344 40.582031 C 104.277344 40.785156 103.878906 40.886719 103.449219 40.886719 C 102.980469 40.886719 102.566406 40.773438 102.195312 40.550781 C 101.828125 40.328125 101.550781 40.019531 101.363281 39.632812 C 101.171875 39.242188 101.078125 38.832031 101.082031 38.394531 Z M 101.757812 38.40625 C 101.753906 39.003906 101.917969 39.472656 102.238281 39.816406 C 102.558594 40.160156 102.960938 40.332031 103.445312 40.328125 C 103.9375 40.332031 104.34375 40.160156 104.664062 39.8125 C 104.980469 39.464844 105.140625 38.972656 105.140625 38.335938 C 105.140625 37.933594 105.070312 37.582031 104.933594 37.28125 C 104.796875 36.980469 104.601562 36.75 104.339844 36.585938 C 104.074219 36.421875 103.78125 36.335938 103.457031 36.335938 C 102.988281 36.335938 102.589844 36.496094 102.257812 36.816406 C 101.921875 37.132812 101.753906 37.664062 101.757812 38.40625 Z M 101.757812 38.40625 "/>
<path style=" stroke:none;fill-rule:nonzero;fill:rgb(0%,0%,0%);fill-opacity:1;" d="M 69.941406 56.339844 C 69.941406 55.523438 70.160156 54.878906 70.605469 54.414062 C 71.046875 53.953125 71.613281 53.71875 72.3125 53.714844 C 72.765625 53.71875 73.179688 53.828125 73.550781 54.042969 C 73.914062 54.261719 74.195312 54.566406 74.390625 54.953125 C 74.578125 55.347656 74.675781 55.792969 74.679688 56.28125 C 74.675781 56.785156 74.574219 57.234375 74.371094 57.628906 C 74.167969 58.023438 73.878906 58.324219 73.511719 58.527344 C 73.140625 58.730469 72.738281 58.828125 72.308594 58.832031 C 71.84375 58.828125 71.425781 58.71875 71.058594 58.496094 C 70.691406 58.269531 70.414062 57.964844 70.226562 57.574219 C 70.035156 57.1875 69.941406 56.777344 69.941406 56.339844 Z M 70.617188 56.351562 C 70.617188 56.945312 70.777344 57.414062 71.097656 57.757812 C 71.417969 58.101562 71.820312 58.277344 72.308594 58.273438 C 72.800781 58.277344 73.203125 58.101562 73.523438 57.753906 C 73.84375 57.410156 74.003906 56.917969 74.003906 56.28125 C 74.003906 55.878906 73.933594 55.527344 73.796875 55.226562 C 73.660156 54.925781 73.460938 54.691406 73.199219 54.527344 C 72.9375 54.363281 72.644531 54.28125 72.320312 54.28125 C 71.851562 54.28125 71.449219 54.441406 71.117188 54.757812 C 70.78125 55.078125 70.617188 55.609375 70.617188 56.351562 Z M 70.617188 56.351562 "/>
<path style="fill:none;stroke-width:0.0333333;stroke-linecap:butt;stroke-linejoin:miter;stroke:rgb(0%,0%,0%);stroke-opacity:1;stroke-miterlimit:10;" d="M 2.50967 -0.0000119714 L 1.490342 -0.0000119714 " transform="matrix(20.758929,0,0,20.719424,20.413664,20.386967)"/>
<path style="fill:none;stroke-width:0.0333333;stroke-linecap:butt;stroke-linejoin:miter;stroke:rgb(0%,0%,0%);stroke-opacity:1;stroke-miterlimit:10;" d="M 2.413326 0.166649 L 1.586498 0.166649 " transform="matrix(20.758929,0,0,20.719424,20.413664,20.386967)"/>
<path style="fill:none;stroke-width:0.0333333;stroke-linecap:butt;stroke-linejoin:miter;stroke:rgb(0%,0%,0%);stroke-opacity:1;stroke-miterlimit:10;" d="M 1.504831 -0.00830733 L 0.995073 0.874394 " transform="matrix(20.758929,0,0,20.719424,20.413664,20.386967)"/>
<path style="fill:none;stroke-width:0.0333333;stroke-linecap:butt;stroke-linejoin:miter;stroke:rgb(0%,0%,0%);stroke-opacity:1;stroke-miterlimit:10;" d="M 1.009562 0.866099 L 0.157331 0.866099 " transform="matrix(20.758929,0,0,20.719424,20.413664,20.386967)"/>
<path style="fill:none;stroke-width:0.0333333;stroke-linecap:butt;stroke-linejoin:miter;stroke:rgb(0%,0%,0%);stroke-opacity:1;stroke-miterlimit:10;" d="M 0.90381 0.866099 L 1.316283 1.580442 " transform="matrix(20.758929,0,0,20.719424,20.413664,20.386967)"/>
<path style="fill:none;stroke-width:0.0333333;stroke-linecap:butt;stroke-linejoin:miter;stroke:rgb(0%,0%,0%);stroke-opacity:1;stroke-miterlimit:10;" d="M 1.048137 0.782768 L 1.460422 1.497111 " transform="matrix(20.758929,0,0,20.719424,20.413664,20.386967)"/>
<path style="fill:none;stroke-width:0.0333333;stroke-linecap:butt;stroke-linejoin:miter;stroke:rgb(0%,0%,0%);stroke-opacity:1;stroke-miterlimit:10;" d="M 2.49518 -0.00830733 L 3.00475 0.874394 " transform="matrix(20.758929,0,0,20.719424,20.413664,20.386967)"/>
<path style="fill:none;stroke-width:0.0333333;stroke-linecap:butt;stroke-linejoin:miter;stroke:rgb(0%,0%,0%);stroke-opacity:1;stroke-miterlimit:10;" d="M 2.990261 0.866099 L 3.842492 0.866099 " transform="matrix(20.758929,0,0,20.719424,20.413664,20.386967)"/>
<path style="fill:none;stroke-width:0.0333333;stroke-linecap:butt;stroke-linejoin:miter;stroke:rgb(0%,0%,0%);stroke-opacity:1;stroke-miterlimit:10;" d="M 2.951874 0.782768 L 2.539401 1.497111 " transform="matrix(20.758929,0,0,20.719424,20.413664,20.386967)"/>
<path style="fill:none;stroke-width:0.0333333;stroke-linecap:butt;stroke-linejoin:miter;stroke:rgb(0%,0%,0%);stroke-opacity:1;stroke-miterlimit:10;" d="M 3.096202 0.866099 L 2.683729 1.580442 " transform="matrix(20.758929,0,0,20.719424,20.413664,20.386967)"/>
</g>
</svg>
