<?xml version="1.0" encoding="UTF-8"?>
<svg xmlns="http://www.w3.org/2000/svg" xmlns:xlink="http://www.w3.org/1999/xlink" width="104pt" height="167.2pt" viewBox="0 0 104 167.2" version="1.1">
<g id="surface92">
<path style=" stroke:none;fill-rule:nonzero;fill:rgb(0%,0%,0%);fill-opacity:1;" d="M 28.90625 74.601562 C 28.90625 73.78125 29.125 73.136719 29.570312 72.664062 C 30.007812 72.203125 30.578125 71.96875 31.277344 71.964844 C 31.730469 71.96875 32.144531 72.078125 32.511719 72.292969 C 32.878906 72.515625 33.15625 72.820312 33.351562 73.210938 C 33.539062 73.605469 33.636719 74.050781 33.640625 74.546875 C 33.636719 75.050781 33.535156 75.503906 33.335938 75.898438 C 33.128906 76.296875 32.84375 76.597656 32.476562 76.800781 C 32.101562 77.003906 31.703125 77.105469 31.273438 77.109375 C 30.804688 77.105469 30.390625 76.996094 30.023438 76.769531 C 29.65625 76.542969 29.378906 76.234375 29.191406 75.84375 C 29 75.453125 28.90625 75.042969 28.90625 74.601562 Z M 29.582031 74.613281 C 29.578125 75.210938 29.742188 75.683594 30.0625 76.027344 C 30.382812 76.375 30.785156 76.550781 31.269531 76.546875 C 31.761719 76.550781 32.167969 76.375 32.488281 76.027344 C 32.804688 75.679688 32.964844 75.183594 32.964844 74.542969 C 32.964844 74.136719 32.894531 73.785156 32.757812 73.480469 C 32.621094 73.179688 32.425781 72.949219 32.164062 72.78125 C 31.898438 72.617188 31.605469 72.53125 31.28125 72.53125 C 30.816406 72.53125 30.414062 72.691406 30.082031 73.011719 C 29.746094 73.332031 29.578125 73.867188 29.582031 74.613281 Z M 29.582031 74.613281 "/>
<path style=" stroke:none;fill-rule:nonzero;fill:rgb(0%,0%,0%);fill-opacity:1;" d="M 60.519531 59.117188 L 60.519531 54.144531 L 61.191406 54.144531 L 63.789062 58.050781 L 63.789062 54.144531 L 64.417969 54.144531 L 64.417969 59.117188 L 63.746094 59.117188 L 61.148438 55.210938 L 61.148438 59.117188 Z M 60.519531 59.117188 "/>
<path style=" stroke:none;fill-rule:nonzero;fill:rgb(0%,0%,0%);fill-opacity:1;" d="M 84.589844 93.546875 L 85.246094 93.714844 C 85.105469 94.253906 84.859375 94.664062 84.503906 94.945312 C 84.144531 95.230469 83.707031 95.371094 83.195312 95.375 C 82.660156 95.371094 82.226562 95.265625 81.894531 95.046875 C 81.558594 94.832031 81.300781 94.511719 81.128906 94.097656 C 80.953125 93.6875 80.867188 93.242188 80.867188 92.765625 C 80.867188 92.25 80.964844 91.800781 81.164062 91.414062 C 81.359375 91.027344 81.636719 90.734375 82.003906 90.535156 C 82.367188 90.335938 82.769531 90.234375 83.207031 90.234375 C 83.699219 90.234375 84.117188 90.363281 84.453125 90.613281 C 84.792969 90.867188 85.027344 91.222656 85.160156 91.679688 L 84.515625 91.832031 C 84.398438 91.476562 84.230469 91.210938 84.011719 91.042969 C 83.792969 90.882812 83.519531 90.796875 83.191406 90.796875 C 82.808594 90.796875 82.488281 90.890625 82.234375 91.070312 C 81.980469 91.253906 81.800781 91.503906 81.699219 91.808594 C 81.597656 92.117188 81.542969 92.4375 81.542969 92.765625 C 81.542969 93.1875 81.605469 93.554688 81.726562 93.871094 C 81.847656 94.1875 82.039062 94.421875 82.296875 94.578125 C 82.558594 94.734375 82.839844 94.8125 83.140625 94.8125 C 83.507812 94.8125 83.820312 94.707031 84.074219 94.496094 C 84.328125 94.28125 84.496094 93.964844 84.589844 93.546875 Z M 84.589844 93.546875 "/>
<path style=" stroke:none;fill-rule:nonzero;fill:rgb(0%,0%,0%);fill-opacity:1;" d="M 64.15625 21.292969 L 64.8125 21.460938 C 64.671875 22.003906 64.425781 22.414062 64.066406 22.695312 C 63.710938 22.980469 63.273438 23.121094 62.761719 23.121094 C 62.226562 23.121094 61.792969 23.015625 61.457031 22.796875 C 61.125 22.578125 60.867188 22.261719 60.695312 21.847656 C 60.519531 21.433594 60.433594 20.992188 60.433594 20.515625 C 60.433594 20 60.53125 19.550781 60.730469 19.164062 C 60.925781 18.777344 61.203125 18.484375 61.570312 18.285156 C 61.929688 18.085938 62.335938 17.984375 62.773438 17.984375 C 63.265625 17.984375 63.683594 18.113281 64.019531 18.363281 C 64.355469 18.617188 64.59375 18.972656 64.722656 19.429688 L 64.082031 19.582031 C 63.960938 19.226562 63.796875 18.960938 63.578125 18.792969 C 63.359375 18.632812 63.085938 18.546875 62.757812 18.546875 C 62.375 18.546875 62.054688 18.640625 61.800781 18.820312 C 61.546875 19.003906 61.367188 19.253906 61.265625 19.558594 C 61.160156 19.867188 61.109375 20.183594 61.109375 20.511719 C 61.109375 20.9375 61.167969 21.304688 61.292969 21.621094 C 61.414062 21.9375 61.605469 22.171875 61.863281 22.328125 C 62.125 22.484375 62.402344 22.5625 62.707031 22.5625 C 63.074219 22.5625 63.382812 22.457031 63.636719 22.242188 C 63.890625 22.03125 64.0625 21.714844 64.15625 21.292969 Z M 64.15625 21.292969 "/>
<path style="fill:none;stroke-width:0.0333333;stroke-linecap:butt;stroke-linejoin:miter;stroke:rgb(0%,0%,0%);stroke-opacity:1;stroke-miterlimit:10;" d="M 1.911074 1.550363 L 1.513947 0.855584 " transform="matrix(20.744681,0,0,20.830565,20.667871,20.55271)"/>
<path style="fill:none;stroke-width:0.0333333;stroke-linecap:butt;stroke-linejoin:miter;stroke:rgb(0%,0%,0%);stroke-opacity:1;stroke-miterlimit:10;" d="M 1.559704 2.512741 L 0.669792 2.508991 " transform="matrix(20.744681,0,0,20.830565,20.667871,20.55271)"/>
<path style="fill:none;stroke-width:0.0333333;stroke-linecap:butt;stroke-linejoin:miter;stroke:rgb(0%,0%,0%);stroke-opacity:1;stroke-miterlimit:10;" d="M 1.558951 2.679451 L 0.668851 2.675513 " transform="matrix(20.744681,0,0,20.830565,20.667871,20.55271)"/>
<path style="fill:none;stroke-width:0.0333333;stroke-linecap:butt;stroke-linejoin:miter;stroke:rgb(0%,0%,0%);stroke-opacity:1;stroke-miterlimit:10;" d="M 1.506227 2.604253 L 1.90938 1.913224 " transform="matrix(20.744681,0,0,20.830565,20.667871,20.55271)"/>
<path style="fill:none;stroke-width:0.0333333;stroke-linecap:butt;stroke-linejoin:miter;stroke:rgb(0%,0%,0%);stroke-opacity:1;stroke-miterlimit:10;" d="M 1.50585 6.06015 L 0.486575 6.05565 " transform="matrix(20.744681,0,0,20.830565,20.667871,20.55271)"/>
<path style="fill:none;stroke-width:0.0333333;stroke-linecap:butt;stroke-linejoin:miter;stroke:rgb(0%,0%,0%);stroke-opacity:1;stroke-miterlimit:10;" d="M 1.410381 5.893066 L 0.58355 5.889315 " transform="matrix(20.744681,0,0,20.830565,20.667871,20.55271)"/>
<path style="fill:none;stroke-width:0.0333333;stroke-linecap:butt;stroke-linejoin:miter;stroke:rgb(0%,0%,0%);stroke-opacity:1;stroke-miterlimit:10;" d="M 0.500886 6.064088 L -0.00470282 5.179158 " transform="matrix(20.744681,0,0,20.830565,20.667871,20.55271)"/>
<path style="fill:none;stroke-width:0.0333333;stroke-linecap:butt;stroke-linejoin:miter;stroke:rgb(0%,0%,0%);stroke-opacity:1;stroke-miterlimit:10;" d="M -0.00489112 5.195848 L 0.508606 4.315231 " transform="matrix(20.744681,0,0,20.830565,20.667871,20.55271)"/>
<path style="fill:none;stroke-width:0.0333333;stroke-linecap:butt;stroke-linejoin:miter;stroke:rgb(0%,0%,0%);stroke-opacity:1;stroke-miterlimit:10;" d="M 0.187553 5.196598 L 0.604075 4.482316 " transform="matrix(20.744681,0,0,20.830565,20.667871,20.55271)"/>
<path style="fill:none;stroke-width:0.0333333;stroke-linecap:butt;stroke-linejoin:miter;stroke:rgb(0%,0%,0%);stroke-opacity:1;stroke-miterlimit:10;" d="M 0.494107 4.323669 L 1.513382 4.327983 " transform="matrix(20.744681,0,0,20.830565,20.667871,20.55271)"/>
<path style="fill:none;stroke-width:0.0333333;stroke-linecap:butt;stroke-linejoin:miter;stroke:rgb(0%,0%,0%);stroke-opacity:1;stroke-miterlimit:10;" d="M 1.503779 4.327983 L 2.00466 5.204474 " transform="matrix(20.744681,0,0,20.830565,20.667871,20.55271)"/>
<path style="fill:none;stroke-width:0.0333333;stroke-linecap:butt;stroke-linejoin:miter;stroke:rgb(0%,0%,0%);stroke-opacity:1;stroke-miterlimit:10;" d="M 1.406615 4.49413 L 1.812216 5.203536 " transform="matrix(20.744681,0,0,20.830565,20.667871,20.55271)"/>
<path style="fill:none;stroke-width:0.0333333;stroke-linecap:butt;stroke-linejoin:miter;stroke:rgb(0%,0%,0%);stroke-opacity:1;stroke-miterlimit:10;" d="M 2.00466 5.187784 L 1.491351 6.068214 " transform="matrix(20.744681,0,0,20.830565,20.667871,20.55271)"/>
<path style="fill:none;stroke-width:0.0333333;stroke-linecap:butt;stroke-linejoin:miter;stroke:rgb(0%,0%,0%);stroke-opacity:1;stroke-miterlimit:10;" d="M 1.498883 4.336234 L 2.012381 3.455804 " transform="matrix(20.744681,0,0,20.830565,20.667871,20.55271)"/>
<path style="fill:none;stroke-width:0.0333333;stroke-linecap:butt;stroke-linejoin:miter;stroke:rgb(0%,0%,0%);stroke-opacity:1;stroke-miterlimit:10;" d="M 2.078286 3.474182 L 2.078474 3.454679 M 2.149087 3.48412 L 2.149464 3.445303 M 2.219889 3.494247 L 2.220265 3.435927 M 2.290878 3.504186 L 2.291255 3.42655 M 2.361679 3.514312 L 2.362244 3.416987 M 2.432669 3.524251 L 2.433046 3.40761 M 2.50347 3.534377 L 2.504035 3.398234 M 2.574272 3.544316 L 2.574836 3.38867 M 2.645073 3.554442 L 2.645826 3.379294 M 2.715874 3.564381 L 2.716816 3.369918 M 2.786864 3.57432 L 2.787617 3.360542 M 2.857665 3.584446 L 2.858606 3.351165 " transform="matrix(20.744681,0,0,20.830565,20.667871,20.55271)"/>
<path style="fill:none;stroke-width:0.0333333;stroke-linecap:butt;stroke-linejoin:miter;stroke:rgb(0%,0%,0%);stroke-opacity:1;stroke-miterlimit:10;" d="M 1.513947 0.872273 L 1.912204 0.18912 " transform="matrix(20.744681,0,0,20.830565,20.667871,20.55271)"/>
<path style="fill:none;stroke-width:0.0333333;stroke-linecap:butt;stroke-linejoin:miter;stroke:rgb(0%,0%,0%);stroke-opacity:1;stroke-miterlimit:10;" d="M 1.506415 2.587564 L 2.012381 3.472494 " transform="matrix(20.744681,0,0,20.830565,20.667871,20.55271)"/>
</g>
</svg>
