<?xml version="1.0" encoding="UTF-8"?>
<svg xmlns="http://www.w3.org/2000/svg" xmlns:xlink="http://www.w3.org/1999/xlink" width="240pt" height="104pt" viewBox="0 0 240 104" version="1.1">
<g id="surface822">
<path style=" stroke:none;fill-rule:nonzero;fill:rgb(0%,0%,0%);fill-opacity:1;" d="M 40.535156 31.878906 L 41.195312 32.046875 C 41.054688 32.585938 40.808594 32.996094 40.449219 33.273438 C 40.089844 33.554688 39.652344 33.695312 39.136719 33.699219 C 38.597656 33.695312 38.164062 33.589844 37.828125 33.375 C 37.492188 33.160156 37.234375 32.84375 37.0625 32.429688 C 36.882812 32.019531 36.796875 31.578125 36.800781 31.101562 C 36.796875 30.589844 36.898438 30.140625 37.097656 29.753906 C 37.292969 29.371094 37.570312 29.082031 37.9375 28.878906 C 38.304688 28.683594 38.707031 28.582031 39.148438 28.582031 C 39.644531 28.582031 40.0625 28.710938 40.398438 28.957031 C 40.738281 29.210938 40.976562 29.566406 41.109375 30.023438 L 40.460938 30.175781 C 40.34375 29.816406 40.175781 29.554688 39.957031 29.386719 C 39.734375 29.226562 39.460938 29.140625 39.132812 29.140625 C 38.746094 29.140625 38.429688 29.234375 38.171875 29.414062 C 37.914062 29.597656 37.734375 29.84375 37.632812 30.148438 C 37.53125 30.457031 37.476562 30.773438 37.476562 31.101562 C 37.476562 31.523438 37.539062 31.890625 37.664062 32.203125 C 37.78125 32.519531 37.976562 32.753906 38.234375 32.90625 C 38.496094 33.066406 38.777344 33.144531 39.082031 33.140625 C 39.449219 33.144531 39.761719 33.039062 40.015625 32.824219 C 40.273438 32.613281 40.441406 32.296875 40.535156 31.878906 Z M 40.535156 31.878906 "/>
<path style=" stroke:none;fill-rule:nonzero;fill:rgb(0%,0%,0%);fill-opacity:1;" d="M 36.109375 34.105469 L 35.679688 34.105469 L 35.679688 31.394531 C 35.578125 31.496094 35.441406 31.59375 35.277344 31.691406 C 35.109375 31.789062 34.957031 31.863281 34.824219 31.910156 L 34.824219 31.496094 C 35.0625 31.386719 35.273438 31.253906 35.453125 31.09375 C 35.632812 30.933594 35.753906 30.78125 35.832031 30.628906 L 36.109375 30.628906 Z M 36.109375 34.105469 "/>
<path style=" stroke:none;fill-rule:nonzero;fill:rgb(0%,0%,0%);fill-opacity:1;" d="M 18.996094 40.992188 L 18.996094 41.398438 L 16.695312 41.398438 C 16.695312 41.296875 16.710938 41.199219 16.75 41.105469 C 16.804688 40.953125 16.898438 40.796875 17.027344 40.644531 C 17.15625 40.496094 17.34375 40.320312 17.585938 40.121094 C 17.964844 39.8125 18.21875 39.570312 18.355469 39.386719 C 18.484375 39.207031 18.550781 39.035156 18.554688 38.875 C 18.550781 38.707031 18.492188 38.5625 18.371094 38.449219 C 18.25 38.332031 18.089844 38.273438 17.898438 38.273438 C 17.6875 38.273438 17.527344 38.335938 17.40625 38.457031 C 17.28125 38.582031 17.21875 38.753906 17.21875 38.96875 L 16.777344 38.921875 C 16.808594 38.597656 16.917969 38.351562 17.117188 38.179688 C 17.3125 38.011719 17.578125 37.925781 17.910156 37.921875 C 18.238281 37.925781 18.503906 38.015625 18.699219 38.199219 C 18.894531 38.382812 18.992188 38.613281 18.992188 38.882812 C 18.992188 39.023438 18.960938 39.160156 18.90625 39.292969 C 18.847656 39.429688 18.753906 39.570312 18.621094 39.714844 C 18.488281 39.863281 18.269531 40.070312 17.964844 40.324219 C 17.707031 40.542969 17.542969 40.6875 17.46875 40.761719 C 17.394531 40.839844 17.335938 40.917969 17.289062 40.992188 Z M 18.996094 40.992188 "/>
<path style=" stroke:none;fill-rule:nonzero;fill:rgb(0%,0%,0%);fill-opacity:1;" d="M 16.5625 64.742188 L 16.988281 64.683594 C 17.035156 64.925781 17.121094 65.101562 17.238281 65.207031 C 17.355469 65.3125 17.5 65.363281 17.671875 65.363281 C 17.867188 65.363281 18.035156 65.296875 18.175781 65.15625 C 18.3125 65.023438 18.382812 64.847656 18.386719 64.644531 C 18.382812 64.449219 18.320312 64.289062 18.195312 64.160156 C 18.0625 64.035156 17.902344 63.972656 17.707031 63.96875 C 17.621094 63.972656 17.519531 63.988281 17.40625 64.015625 L 17.449219 63.640625 C 17.476562 63.648438 17.503906 63.648438 17.519531 63.648438 C 17.699219 63.648438 17.863281 63.601562 18.007812 63.507812 C 18.15625 63.410156 18.230469 63.265625 18.230469 63.070312 C 18.230469 62.914062 18.175781 62.785156 18.070312 62.679688 C 17.964844 62.578125 17.828125 62.527344 17.660156 62.527344 C 17.492188 62.527344 17.355469 62.578125 17.246094 62.683594 C 17.132812 62.789062 17.0625 62.945312 17.03125 63.148438 L 16.605469 63.074219 C 16.65625 62.792969 16.773438 62.570312 16.960938 62.414062 C 17.144531 62.257812 17.375 62.179688 17.652344 62.175781 C 17.839844 62.179688 18.015625 62.21875 18.175781 62.300781 C 18.335938 62.382812 18.457031 62.492188 18.542969 62.632812 C 18.625 62.773438 18.667969 62.921875 18.667969 63.078125 C 18.667969 63.226562 18.628906 63.367188 18.546875 63.488281 C 18.464844 63.613281 18.347656 63.707031 18.191406 63.777344 C 18.394531 63.828125 18.554688 63.925781 18.667969 64.074219 C 18.78125 64.226562 18.839844 64.410156 18.839844 64.632812 C 18.839844 64.9375 18.726562 65.195312 18.507812 65.402344 C 18.285156 65.613281 18.003906 65.714844 17.667969 65.71875 C 17.359375 65.714844 17.105469 65.625 16.90625 65.445312 C 16.703125 65.265625 16.589844 65.03125 16.5625 64.742188 Z M 16.5625 64.742188 "/>
<path style=" stroke:none;fill-rule:nonzero;fill:rgb(0%,0%,0%);fill-opacity:1;" d="M 40.324219 73.320312 L 40.984375 73.488281 C 40.84375 74.03125 40.59375 74.4375 40.238281 74.71875 C 39.878906 75 39.441406 75.140625 38.925781 75.144531 C 38.386719 75.140625 37.953125 75.035156 37.617188 74.820312 C 37.28125 74.601562 37.023438 74.285156 36.847656 73.875 C 36.671875 73.460938 36.585938 73.019531 36.589844 72.546875 C 36.585938 72.035156 36.6875 71.585938 36.882812 71.199219 C 37.078125 70.816406 37.359375 70.523438 37.726562 70.324219 C 38.089844 70.125 38.496094 70.027344 38.933594 70.023438 C 39.429688 70.027344 39.847656 70.152344 40.1875 70.402344 C 40.527344 70.65625 40.761719 71.011719 40.894531 71.464844 L 40.25 71.617188 C 40.132812 71.261719 39.964844 71 39.746094 70.832031 C 39.523438 70.667969 39.25 70.585938 38.921875 70.585938 C 38.535156 70.585938 38.214844 70.679688 37.960938 70.859375 C 37.703125 71.042969 37.523438 71.289062 37.421875 71.59375 C 37.316406 71.902344 37.265625 72.21875 37.265625 72.542969 C 37.265625 72.964844 37.328125 73.332031 37.453125 73.644531 C 37.570312 73.960938 37.761719 74.199219 38.023438 74.351562 C 38.285156 74.507812 38.566406 74.585938 38.871094 74.582031 C 39.238281 74.585938 39.550781 74.480469 39.804688 74.265625 C 40.0625 74.058594 40.230469 73.742188 40.324219 73.320312 Z M 40.324219 73.320312 "/>
<path style=" stroke:none;fill-rule:nonzero;fill:rgb(0%,0%,0%);fill-opacity:1;" d="M 34.996094 75.539062 L 34.996094 74.707031 L 33.488281 74.707031 L 33.488281 74.316406 L 35.074219 72.070312 L 35.425781 72.070312 L 35.425781 74.316406 L 35.894531 74.316406 L 35.894531 74.707031 L 35.425781 74.707031 L 35.425781 75.539062 Z M 34.996094 74.316406 L 34.996094 72.753906 L 33.910156 74.316406 Z M 34.996094 74.316406 "/>
<path style="fill:none;stroke-width:0.0333333;stroke-linecap:butt;stroke-linejoin:miter;stroke:rgb(0%,0%,0%);stroke-opacity:1;stroke-miterlimit:10;" d="M 0.00517453 0.486031 L -0.0000754667 1.506624 " transform="matrix(20.833333,0,0,20.744681,20.767197,31.140088)"/>
<path style="fill:none;stroke-width:0.0333333;stroke-linecap:butt;stroke-linejoin:miter;stroke:rgb(0%,0%,0%);stroke-opacity:1;stroke-miterlimit:10;" d="M 0.610987 0.150479 L -0.00326297 0.500531 " transform="matrix(20.833333,0,0,20.744681,20.767197,31.140088)"/>
<path style="fill:none;stroke-width:0.0333333;stroke-linecap:butt;stroke-linejoin:miter;stroke:rgb(0%,0%,0%);stroke-opacity:1;stroke-miterlimit:10;" d="M 0.693487 0.295282 L 0.162862 0.597506 " transform="matrix(20.833333,0,0,20.744681,20.767197,31.140088)"/>
<path style="fill:none;stroke-width:0.0333333;stroke-linecap:butt;stroke-linejoin:miter;stroke:rgb(0%,0%,0%);stroke-opacity:1;stroke-miterlimit:10;" d="M -0.00832547 1.492314 L 0.612487 1.851592 " transform="matrix(20.833333,0,0,20.744681,20.767197,31.140088)"/>
<path style="fill:none;stroke-width:0.0333333;stroke-linecap:butt;stroke-linejoin:miter;stroke:rgb(0%,0%,0%);stroke-opacity:1;stroke-miterlimit:10;" d="M 0.158737 1.396468 L 0.695925 1.707354 " transform="matrix(20.833333,0,0,20.744681,20.767197,31.140088)"/>
<path style="fill:none;stroke-width:0.0625;stroke-linecap:butt;stroke-linejoin:miter;stroke:rgb(0%,0%,0%);stroke-opacity:1;stroke-miterlimit:10;" d="M -0.0000245667 0.0000761218 L 0.500038 0.0000761218 M 0.249913 -0.249988 L 0.249913 0.249952 " transform="matrix(20.833333,0,0,20.744681,55.664574,51.861702)"/>
<path style=" stroke:none;fill-rule:nonzero;fill:rgb(0%,0%,0%);fill-opacity:1;" d="M 78.671875 75.335938 L 79.125 75.296875 C 79.15625 75.519531 79.230469 75.679688 79.355469 75.789062 C 79.472656 75.894531 79.621094 75.949219 79.792969 75.949219 C 79.996094 75.949219 80.171875 75.875 80.3125 75.722656 C 80.457031 75.566406 80.527344 75.363281 80.527344 75.105469 C 80.527344 74.863281 80.457031 74.671875 80.320312 74.53125 C 80.183594 74.390625 80.003906 74.320312 79.785156 74.320312 C 79.648438 74.320312 79.523438 74.355469 79.410156 74.417969 C 79.300781 74.476562 79.210938 74.558594 79.148438 74.65625 L 78.75 74.605469 L 79.089844 72.824219 L 80.820312 72.824219 L 80.820312 73.230469 L 79.429688 73.230469 L 79.242188 74.164062 C 79.449219 74.019531 79.667969 73.945312 79.898438 73.945312 C 80.199219 73.945312 80.457031 74.050781 80.667969 74.257812 C 80.871094 74.46875 80.980469 74.738281 80.980469 75.066406 C 80.980469 75.378906 80.886719 75.652344 80.703125 75.878906 C 80.480469 76.160156 80.175781 76.296875 79.792969 76.300781 C 79.476562 76.296875 79.21875 76.210938 79.015625 76.035156 C 78.816406 75.859375 78.699219 75.625 78.671875 75.335938 Z M 78.671875 75.335938 "/>
<path style=" stroke:none;fill-rule:nonzero;fill:rgb(0%,0%,0%);fill-opacity:1;" d="M 80.761719 49.367188 L 80.335938 49.402344 C 80.296875 49.238281 80.242188 49.117188 80.175781 49.039062 C 80.058594 48.921875 79.914062 48.859375 79.746094 48.855469 C 79.609375 48.859375 79.488281 48.894531 79.390625 48.96875 C 79.253906 49.070312 79.148438 49.210938 79.070312 49.398438 C 78.992188 49.585938 78.949219 49.855469 78.949219 50.199219 C 79.050781 50.046875 79.175781 49.929688 79.328125 49.851562 C 79.472656 49.777344 79.628906 49.742188 79.796875 49.738281 C 80.078125 49.742188 80.320312 49.847656 80.519531 50.050781 C 80.71875 50.261719 80.820312 50.53125 80.820312 50.859375 C 80.820312 51.078125 80.773438 51.28125 80.679688 51.46875 C 80.585938 51.65625 80.457031 51.800781 80.292969 51.898438 C 80.125 51.992188 79.941406 52.042969 79.734375 52.046875 C 79.375 52.042969 79.082031 51.914062 78.859375 51.652344 C 78.632812 51.394531 78.519531 50.964844 78.523438 50.367188 C 78.519531 49.695312 78.644531 49.210938 78.898438 48.902344 C 79.113281 48.640625 79.40625 48.507812 79.773438 48.507812 C 80.046875 48.507812 80.269531 48.585938 80.445312 48.738281 C 80.617188 48.890625 80.722656 49.101562 80.761719 49.367188 Z M 79.015625 50.863281 C 79.015625 51.011719 79.046875 51.152344 79.109375 51.285156 C 79.171875 51.417969 79.257812 51.519531 79.371094 51.589844 C 79.480469 51.660156 79.601562 51.695312 79.726562 51.695312 C 79.90625 51.695312 80.058594 51.625 80.1875 51.476562 C 80.320312 51.335938 80.382812 51.136719 80.382812 50.886719 C 80.382812 50.648438 80.320312 50.460938 80.191406 50.320312 C 80.066406 50.183594 79.90625 50.113281 79.710938 50.113281 C 79.515625 50.113281 79.347656 50.183594 79.21875 50.320312 C 79.082031 50.460938 79.015625 50.640625 79.015625 50.863281 Z M 79.015625 50.863281 "/>
<path style=" stroke:none;fill-rule:nonzero;fill:rgb(0%,0%,0%);fill-opacity:1;" d="M 98.441406 44 L 100.351562 39.050781 L 101.058594 39.050781 L 103.09375 44 L 102.34375 44 L 101.761719 42.503906 L 99.683594 42.503906 L 99.140625 44 Z M 99.875 41.96875 L 101.558594 41.96875 L 101.042969 40.597656 C 100.882812 40.183594 100.765625 39.839844 100.6875 39.570312 C 100.625 39.890625 100.535156 40.203125 100.421875 40.515625 Z M 99.875 41.96875 "/>
<path style=" stroke:none;fill-rule:nonzero;fill:rgb(0%,0%,0%);fill-opacity:1;" d="M 95.496094 41.441406 L 95.496094 41.03125 L 97.746094 41.03125 L 97.746094 41.363281 C 97.523438 41.601562 97.304688 41.914062 97.085938 42.300781 C 96.871094 42.691406 96.703125 43.089844 96.585938 43.5 C 96.496094 43.789062 96.441406 44.105469 96.417969 44.453125 L 95.980469 44.453125 C 95.984375 44.183594 96.039062 43.855469 96.140625 43.464844 C 96.246094 43.082031 96.390625 42.710938 96.585938 42.347656 C 96.773438 41.992188 96.976562 41.6875 97.199219 41.441406 Z M 95.496094 41.441406 "/>
<path style=" stroke:none;fill-rule:nonzero;fill:rgb(0%,0%,0%);fill-opacity:1;" d="M 98.285156 20.816406 C 98.28125 20 98.503906 19.355469 98.949219 18.890625 C 99.390625 18.425781 99.960938 18.195312 100.664062 18.191406 C 101.121094 18.195312 101.535156 18.304688 101.90625 18.519531 C 102.273438 18.738281 102.550781 19.042969 102.746094 19.433594 C 102.9375 19.828125 103.035156 20.269531 103.039062 20.761719 C 103.035156 21.265625 102.933594 21.714844 102.730469 22.109375 C 102.527344 22.503906 102.238281 22.804688 101.867188 23.007812 C 101.496094 23.210938 101.09375 23.3125 100.660156 23.3125 C 100.191406 23.3125 99.773438 23.199219 99.40625 22.976562 C 99.035156 22.75 98.757812 22.445312 98.570312 22.054688 C 98.378906 21.664062 98.28125 21.253906 98.285156 20.816406 Z M 98.964844 20.828125 C 98.960938 21.425781 99.125 21.894531 99.445312 22.238281 C 99.765625 22.585938 100.171875 22.757812 100.660156 22.753906 C 101.152344 22.757812 101.558594 22.585938 101.878906 22.234375 C 102.199219 21.890625 102.359375 21.394531 102.359375 20.757812 C 102.359375 20.355469 102.289062 20.003906 102.152344 19.703125 C 102.015625 19.402344 101.816406 19.171875 101.554688 19.003906 C 101.292969 18.839844 100.996094 18.757812 100.671875 18.757812 C 100.199219 18.757812 99.800781 18.914062 99.464844 19.234375 C 99.128906 19.554688 98.960938 20.085938 98.964844 20.828125 Z M 98.964844 20.828125 "/>
<path style=" stroke:none;fill-rule:nonzero;fill:rgb(0%,0%,0%);fill-opacity:1;" d="M 95.960938 21.839844 C 95.78125 21.773438 95.652344 21.683594 95.566406 21.5625 C 95.476562 21.445312 95.433594 21.300781 95.4375 21.132812 C 95.433594 20.882812 95.527344 20.671875 95.710938 20.5 C 95.894531 20.328125 96.132812 20.242188 96.4375 20.238281 C 96.738281 20.242188 96.984375 20.332031 97.171875 20.503906 C 97.351562 20.683594 97.445312 20.894531 97.449219 21.144531 C 97.445312 21.304688 97.402344 21.445312 97.320312 21.5625 C 97.234375 21.683594 97.105469 21.773438 96.933594 21.839844 C 97.148438 21.910156 97.3125 22.023438 97.421875 22.175781 C 97.535156 22.332031 97.589844 22.515625 97.589844 22.726562 C 97.589844 23.027344 97.484375 23.277344 97.273438 23.476562 C 97.0625 23.675781 96.785156 23.773438 96.445312 23.777344 C 96.097656 23.773438 95.824219 23.675781 95.613281 23.476562 C 95.402344 23.273438 95.296875 23.023438 95.300781 22.714844 C 95.296875 22.496094 95.351562 22.304688 95.46875 22.152344 C 95.582031 22 95.746094 21.894531 95.960938 21.839844 Z M 95.875 21.117188 C 95.875 21.28125 95.925781 21.417969 96.035156 21.519531 C 96.136719 21.625 96.277344 21.675781 96.445312 21.675781 C 96.609375 21.675781 96.746094 21.625 96.851562 21.523438 C 96.957031 21.421875 97.007812 21.292969 97.011719 21.140625 C 97.007812 20.988281 96.953125 20.859375 96.847656 20.75 C 96.738281 20.644531 96.601562 20.589844 96.441406 20.589844 C 96.277344 20.589844 96.140625 20.640625 96.035156 20.746094 C 95.925781 20.851562 95.875 20.972656 95.875 21.117188 Z M 95.738281 22.71875 C 95.734375 22.839844 95.761719 22.957031 95.824219 23.070312 C 95.875 23.183594 95.964844 23.273438 96.082031 23.335938 C 96.191406 23.398438 96.3125 23.425781 96.449219 23.425781 C 96.648438 23.425781 96.816406 23.363281 96.953125 23.234375 C 97.082031 23.101562 97.152344 22.9375 97.15625 22.734375 C 97.152344 22.53125 97.082031 22.359375 96.949219 22.226562 C 96.8125 22.09375 96.640625 22.023438 96.4375 22.023438 C 96.234375 22.023438 96.066406 22.09375 95.9375 22.226562 C 95.800781 22.355469 95.734375 22.523438 95.738281 22.71875 Z M 95.738281 22.71875 "/>
<path style=" stroke:none;fill-rule:nonzero;fill:rgb(0%,0%,0%);fill-opacity:1;" d="M 102.515625 83.710938 L 103.175781 83.878906 C 103.035156 84.417969 102.789062 84.828125 102.429688 85.105469 C 102.074219 85.386719 101.632812 85.527344 101.117188 85.53125 C 100.582031 85.527344 100.148438 85.421875 99.808594 85.207031 C 99.472656 84.992188 99.214844 84.675781 99.042969 84.261719 C 98.867188 83.851562 98.78125 83.40625 98.78125 82.933594 C 98.78125 82.421875 98.878906 81.972656 99.078125 81.585938 C 99.273438 81.203125 99.550781 80.914062 99.921875 80.710938 C 100.285156 80.515625 100.6875 80.414062 101.128906 80.414062 C 101.625 80.414062 102.042969 80.542969 102.382812 80.789062 C 102.722656 81.042969 102.957031 81.398438 103.089844 81.855469 L 102.445312 82.007812 C 102.324219 81.648438 102.15625 81.386719 101.941406 81.21875 C 101.71875 81.058594 101.441406 80.972656 101.113281 80.972656 C 100.730469 80.972656 100.410156 81.066406 100.15625 81.246094 C 99.898438 81.429688 99.71875 81.675781 99.613281 81.980469 C 99.511719 82.289062 99.460938 82.605469 99.460938 82.933594 C 99.460938 83.355469 99.519531 83.722656 99.644531 84.035156 C 99.765625 84.351562 99.957031 84.585938 100.21875 84.738281 C 100.476562 84.898438 100.757812 84.976562 101.0625 84.972656 C 101.433594 84.976562 101.746094 84.871094 102 84.65625 C 102.253906 84.445312 102.425781 84.128906 102.515625 83.710938 Z M 102.515625 83.710938 "/>
<path style=" stroke:none;fill-rule:nonzero;fill:rgb(0%,0%,0%);fill-opacity:1;" d="M 95.859375 85.136719 L 96.269531 85.097656 C 96.304688 85.292969 96.371094 85.429688 96.472656 85.519531 C 96.566406 85.605469 96.691406 85.648438 96.847656 85.648438 C 96.976562 85.648438 97.09375 85.617188 97.191406 85.558594 C 97.289062 85.5 97.371094 85.421875 97.4375 85.320312 C 97.5 85.21875 97.550781 85.085938 97.59375 84.914062 C 97.632812 84.746094 97.65625 84.574219 97.660156 84.394531 C 97.65625 84.378906 97.65625 84.347656 97.65625 84.308594 C 97.570312 84.445312 97.453125 84.554688 97.304688 84.636719 C 97.15625 84.722656 96.996094 84.765625 96.828125 84.765625 C 96.535156 84.765625 96.292969 84.660156 96.09375 84.453125 C 95.894531 84.246094 95.792969 83.96875 95.796875 83.628906 C 95.792969 83.277344 95.898438 82.996094 96.105469 82.78125 C 96.316406 82.570312 96.578125 82.460938 96.890625 82.460938 C 97.117188 82.460938 97.324219 82.523438 97.507812 82.644531 C 97.695312 82.769531 97.839844 82.941406 97.9375 83.164062 C 98.035156 83.390625 98.085938 83.714844 98.085938 84.136719 C 98.085938 84.582031 98.035156 84.929688 97.9375 85.195312 C 97.839844 85.457031 97.695312 85.660156 97.507812 85.792969 C 97.316406 85.929688 97.09375 85.996094 96.839844 86 C 96.566406 85.996094 96.339844 85.921875 96.167969 85.773438 C 95.996094 85.625 95.894531 85.414062 95.859375 85.136719 Z M 97.609375 83.609375 C 97.609375 83.367188 97.542969 83.171875 97.414062 83.027344 C 97.28125 82.882812 97.125 82.8125 96.941406 82.8125 C 96.75 82.8125 96.585938 82.890625 96.445312 83.042969 C 96.300781 83.199219 96.230469 83.398438 96.234375 83.644531 C 96.230469 83.867188 96.300781 84.046875 96.4375 84.183594 C 96.570312 84.324219 96.734375 84.390625 96.933594 84.390625 C 97.128906 84.390625 97.289062 84.324219 97.417969 84.183594 C 97.546875 84.046875 97.609375 83.855469 97.609375 83.609375 Z M 97.609375 83.609375 "/>
<path style="fill:none;stroke-width:0.0333333;stroke-linecap:butt;stroke-linejoin:miter;stroke:rgb(0%,0%,0%);stroke-opacity:1;stroke-miterlimit:10;" d="M 0.00516297 2.518454 L -0.0000870333 1.497672 " transform="matrix(20.833333,0,0,20.744681,82.747907,20.751578)"/>
<path style="fill:none;stroke-width:0.0333333;stroke-linecap:butt;stroke-linejoin:miter;stroke:rgb(0%,0%,0%);stroke-opacity:1;stroke-miterlimit:10;" d="M 0.171288 2.420725 L 0.167163 1.592953 " transform="matrix(20.833333,0,0,20.744681,82.747907,20.751578)"/>
<path style="fill:none;stroke-width:0.0333333;stroke-linecap:butt;stroke-linejoin:miter;stroke:rgb(0%,0%,0%);stroke-opacity:1;stroke-miterlimit:10;" d="M -0.088212 2.193069 L -0.090087 1.843205 L 0.259975 1.841322 L 0.26185 2.191374 Z M -0.088212 2.193069 " transform="matrix(20.833333,0,0,20.744681,82.747907,20.751578)"/>
<path style="fill:none;stroke-width:0.0333333;stroke-linecap:butt;stroke-linejoin:miter;stroke:rgb(0%,0%,0%);stroke-opacity:1;stroke-miterlimit:10;" d="M 0.94735 0.837488 L 0.944163 0.188225 " transform="matrix(20.833333,0,0,20.744681,82.747907,20.751578)"/>
<path style="fill:none;stroke-width:0.0333333;stroke-linecap:butt;stroke-linejoin:miter;stroke:rgb(0%,0%,0%);stroke-opacity:1;stroke-miterlimit:10;" d="M 0.780663 0.83843 L 0.777475 0.189167 " transform="matrix(20.833333,0,0,20.744681,82.747907,20.751578)"/>
<path style="fill:none;stroke-width:0.0333333;stroke-linecap:butt;stroke-linejoin:miter;stroke:rgb(0%,0%,0%);stroke-opacity:1;stroke-miterlimit:10;" d="M -0.00833703 1.512172 L 0.563725 1.177748 " transform="matrix(20.833333,0,0,20.744681,82.747907,20.751578)"/>
<path style="fill:none;stroke-width:0.0333333;stroke-linecap:butt;stroke-linejoin:miter;stroke:rgb(0%,0%,0%);stroke-opacity:1;stroke-miterlimit:10;" d="M -0.00327453 2.503954 L 0.624475 2.857961 " transform="matrix(20.833333,0,0,20.744681,82.747907,20.751578)"/>
<path style=" stroke:none;fill-rule:nonzero;fill:rgb(0%,0%,0%);fill-opacity:1;" d="M 117.644531 52.511719 L 143.6875 52.511719 L 143.6875 54.453125 L 148.894531 51.863281 L 143.6875 49.269531 L 143.6875 51.214844 L 117.644531 51.214844 "/>
<path style=" stroke:none;fill-rule:nonzero;fill:rgb(0%,0%,0%);fill-opacity:1;" d="M 163.675781 51.511719 L 163.675781 51.917969 L 161.375 51.917969 C 161.371094 51.816406 161.386719 51.71875 161.425781 51.625 C 161.484375 51.46875 161.574219 51.316406 161.707031 51.164062 C 161.832031 51.011719 162.019531 50.839844 162.265625 50.636719 C 162.640625 50.332031 162.894531 50.085938 163.03125 49.902344 C 163.160156 49.726562 163.230469 49.554688 163.234375 49.394531 C 163.230469 49.226562 163.171875 49.082031 163.050781 48.964844 C 162.929688 48.851562 162.769531 48.789062 162.574219 48.789062 C 162.367188 48.789062 162.203125 48.851562 162.082031 48.976562 C 161.957031 49.101562 161.894531 49.269531 161.894531 49.488281 L 161.457031 49.441406 C 161.484375 49.117188 161.597656 48.867188 161.792969 48.695312 C 161.988281 48.527344 162.257812 48.441406 162.585938 48.4375 C 162.917969 48.441406 163.179688 48.535156 163.375 48.71875 C 163.570312 48.902344 163.667969 49.132812 163.667969 49.402344 C 163.667969 49.542969 163.640625 49.675781 163.582031 49.8125 C 163.523438 49.945312 163.429688 50.085938 163.300781 50.234375 C 163.164062 50.382812 162.949219 50.585938 162.644531 50.84375 C 162.386719 51.058594 162.21875 51.207031 162.148438 51.28125 C 162.074219 51.359375 162.015625 51.433594 161.96875 51.511719 Z M 163.675781 51.511719 "/>
<path style=" stroke:none;fill-rule:nonzero;fill:rgb(0%,0%,0%);fill-opacity:1;" d="M 161.367188 75.246094 L 161.792969 75.1875 C 161.839844 75.433594 161.925781 75.605469 162.042969 75.710938 C 162.160156 75.816406 162.304688 75.871094 162.476562 75.871094 C 162.671875 75.871094 162.84375 75.800781 162.984375 75.660156 C 163.117188 75.527344 163.1875 75.351562 163.191406 75.148438 C 163.1875 74.953125 163.125 74.792969 163 74.664062 C 162.867188 74.539062 162.707031 74.476562 162.511719 74.472656 C 162.425781 74.476562 162.328125 74.492188 162.210938 74.523438 L 162.257812 74.144531 C 162.28125 74.152344 162.308594 74.152344 162.328125 74.152344 C 162.503906 74.152344 162.667969 74.105469 162.816406 74.011719 C 162.960938 73.917969 163.035156 73.769531 163.035156 73.574219 C 163.035156 73.417969 162.980469 73.289062 162.875 73.183594 C 162.769531 73.085938 162.632812 73.03125 162.464844 73.03125 C 162.300781 73.03125 162.160156 73.085938 162.050781 73.1875 C 161.9375 73.292969 161.867188 73.449219 161.839844 73.65625 L 161.410156 73.578125 C 161.460938 73.296875 161.582031 73.078125 161.765625 72.917969 C 161.949219 72.761719 162.179688 72.683594 162.457031 72.683594 C 162.648438 72.683594 162.820312 72.726562 162.980469 72.804688 C 163.140625 72.886719 163.261719 73 163.347656 73.136719 C 163.429688 73.277344 163.472656 73.425781 163.472656 73.582031 C 163.472656 73.734375 163.433594 73.871094 163.351562 73.992188 C 163.269531 74.117188 163.152344 74.214844 162.996094 74.285156 C 163.199219 74.332031 163.359375 74.429688 163.472656 74.578125 C 163.585938 74.730469 163.644531 74.914062 163.644531 75.136719 C 163.644531 75.441406 163.535156 75.699219 163.3125 75.90625 C 163.089844 76.117188 162.808594 76.21875 162.472656 76.222656 C 162.167969 76.21875 161.910156 76.132812 161.710938 75.949219 C 161.507812 75.769531 161.394531 75.535156 161.367188 75.246094 Z M 161.367188 75.246094 "/>
<path style=" stroke:none;fill-rule:nonzero;fill:rgb(0%,0%,0%);fill-opacity:1;" d="M 183.875 81.195312 L 183.875 80.367188 L 182.363281 80.367188 L 182.363281 79.976562 L 183.953125 77.730469 L 184.300781 77.730469 L 184.300781 79.976562 L 184.769531 79.976562 L 184.769531 80.367188 L 184.300781 80.367188 L 184.300781 81.195312 Z M 183.875 79.976562 L 183.875 78.414062 L 182.785156 79.976562 Z M 183.875 79.976562 "/>
<path style=" stroke:none;fill-rule:nonzero;fill:rgb(0%,0%,0%);fill-opacity:1;" d="M 200.550781 76.867188 L 201 76.832031 C 201.035156 77.050781 201.109375 77.214844 201.230469 77.324219 C 201.351562 77.429688 201.496094 77.484375 201.671875 77.484375 C 201.875 77.484375 202.046875 77.410156 202.191406 77.253906 C 202.332031 77.101562 202.402344 76.894531 202.40625 76.640625 C 202.402344 76.398438 202.335938 76.207031 202.199219 76.066406 C 202.0625 75.925781 201.882812 75.855469 201.664062 75.855469 C 201.523438 75.855469 201.398438 75.886719 201.289062 75.949219 C 201.175781 76.011719 201.089844 76.09375 201.027344 76.191406 L 200.625 76.140625 L 200.964844 74.359375 L 202.695312 74.359375 L 202.695312 74.765625 L 201.308594 74.765625 L 201.121094 75.695312 C 201.328125 75.554688 201.546875 75.480469 201.777344 75.476562 C 202.078125 75.480469 202.332031 75.585938 202.542969 75.792969 C 202.75 76.003906 202.855469 76.273438 202.859375 76.601562 C 202.855469 76.914062 202.765625 77.1875 202.582031 77.414062 C 202.355469 77.695312 202.054688 77.832031 201.671875 77.835938 C 201.355469 77.832031 201.097656 77.746094 200.894531 77.570312 C 200.695312 77.394531 200.578125 77.160156 200.550781 76.867188 Z M 200.550781 76.867188 "/>
<path style=" stroke:none;fill-rule:nonzero;fill:rgb(0%,0%,0%);fill-opacity:1;" d="M 202.800781 47.554688 L 202.375 47.589844 C 202.339844 47.425781 202.285156 47.304688 202.214844 47.226562 C 202.101562 47.109375 201.957031 47.046875 201.789062 47.042969 C 201.648438 47.046875 201.53125 47.082031 201.429688 47.15625 C 201.292969 47.257812 201.1875 47.398438 201.113281 47.585938 C 201.03125 47.773438 200.988281 48.042969 200.988281 48.386719 C 201.089844 48.234375 201.21875 48.117188 201.367188 48.039062 C 201.515625 47.964844 201.667969 47.929688 201.835938 47.925781 C 202.117188 47.929688 202.359375 48.035156 202.5625 48.238281 C 202.757812 48.449219 202.859375 48.71875 202.863281 49.046875 C 202.859375 49.265625 202.8125 49.46875 202.722656 49.65625 C 202.625 49.84375 202.496094 49.988281 202.332031 50.085938 C 202.164062 50.179688 201.980469 50.230469 201.773438 50.234375 C 201.414062 50.230469 201.125 50.101562 200.902344 49.839844 C 200.671875 49.582031 200.5625 49.152344 200.5625 48.554688 C 200.5625 47.882812 200.6875 47.398438 200.9375 47.089844 C 201.152344 46.828125 201.445312 46.695312 201.816406 46.695312 C 202.085938 46.695312 202.308594 46.773438 202.484375 46.925781 C 202.660156 47.078125 202.765625 47.289062 202.800781 47.554688 Z M 201.058594 49.050781 C 201.058594 49.199219 201.085938 49.339844 201.148438 49.472656 C 201.210938 49.605469 201.300781 49.707031 201.414062 49.777344 C 201.523438 49.847656 201.640625 49.882812 201.765625 49.882812 C 201.945312 49.882812 202.101562 49.8125 202.230469 49.664062 C 202.359375 49.523438 202.425781 49.324219 202.425781 49.074219 C 202.425781 48.835938 202.359375 48.648438 202.234375 48.507812 C 202.105469 48.371094 201.945312 48.300781 201.75 48.300781 C 201.554688 48.300781 201.390625 48.371094 201.257812 48.507812 C 201.125 48.648438 201.058594 48.828125 201.058594 49.050781 Z M 201.058594 49.050781 "/>
<path style=" stroke:none;fill-rule:nonzero;fill:rgb(0%,0%,0%);fill-opacity:1;" d="M 184.210938 39.953125 L 183.78125 39.953125 L 183.78125 37.242188 C 183.679688 37.34375 183.542969 37.441406 183.375 37.535156 C 183.207031 37.636719 183.058594 37.707031 182.925781 37.753906 L 182.925781 37.34375 C 183.164062 37.230469 183.375 37.097656 183.554688 36.9375 C 183.730469 36.777344 183.855469 36.625 183.933594 36.472656 L 184.210938 36.472656 Z M 184.210938 39.953125 "/>
<path style=" stroke:none;fill-rule:nonzero;fill:rgb(0%,0%,0%);fill-opacity:1;" d="M 217.183594 43.894531 L 219.09375 38.945312 L 219.800781 38.945312 L 221.835938 43.894531 L 221.089844 43.894531 L 220.507812 42.398438 L 218.429688 42.398438 L 217.882812 43.894531 Z M 218.621094 41.863281 L 220.304688 41.863281 L 219.785156 40.492188 C 219.625 40.078125 219.507812 39.734375 219.433594 39.464844 C 219.367188 39.785156 219.277344 40.097656 219.164062 40.410156 Z M 218.621094 41.863281 "/>
<path style=" stroke:none;fill-rule:nonzero;fill:rgb(0%,0%,0%);fill-opacity:1;" d="M 214.238281 41.335938 L 214.238281 40.925781 L 216.492188 40.925781 L 216.492188 41.257812 C 216.269531 41.496094 216.046875 41.808594 215.832031 42.195312 C 215.613281 42.585938 215.445312 42.984375 215.328125 43.394531 C 215.238281 43.683594 215.1875 44 215.164062 44.347656 L 214.722656 44.347656 C 214.730469 44.078125 214.785156 43.75 214.886719 43.359375 C 214.992188 42.976562 215.136719 42.605469 215.328125 42.242188 C 215.519531 41.886719 215.722656 41.582031 215.941406 41.335938 Z M 214.238281 41.335938 "/>
<path style=" stroke:none;fill-rule:nonzero;fill:rgb(0%,0%,0%);fill-opacity:1;" d="M 217.03125 20.710938 C 217.027344 19.894531 217.25 19.25 217.695312 18.785156 C 218.136719 18.320312 218.707031 18.089844 219.410156 18.085938 C 219.863281 18.089844 220.28125 18.199219 220.652344 18.414062 C 221.019531 18.632812 221.296875 18.9375 221.492188 19.328125 C 221.683594 19.722656 221.78125 20.164062 221.78125 20.65625 C 221.78125 21.160156 221.675781 21.609375 221.476562 22.003906 C 221.269531 22.402344 220.984375 22.699219 220.613281 22.902344 C 220.238281 23.105469 219.835938 23.207031 219.40625 23.207031 C 218.9375 23.207031 218.519531 23.09375 218.152344 22.871094 C 217.78125 22.644531 217.503906 22.339844 217.316406 21.949219 C 217.121094 21.558594 217.027344 21.148438 217.03125 20.710938 Z M 217.707031 20.722656 C 217.707031 21.320312 217.867188 21.789062 218.191406 22.132812 C 218.511719 22.480469 218.914062 22.652344 219.402344 22.648438 C 219.898438 22.652344 220.304688 22.480469 220.625 22.128906 C 220.945312 21.785156 221.105469 21.289062 221.105469 20.652344 C 221.105469 20.25 221.035156 19.898438 220.898438 19.597656 C 220.761719 19.296875 220.5625 19.066406 220.300781 18.898438 C 220.035156 18.734375 219.738281 18.652344 219.414062 18.652344 C 218.945312 18.652344 218.542969 18.8125 218.210938 19.128906 C 217.875 19.449219 217.707031 19.980469 217.707031 20.722656 Z M 217.707031 20.722656 "/>
<path style=" stroke:none;fill-rule:nonzero;fill:rgb(0%,0%,0%);fill-opacity:1;" d="M 214.707031 21.734375 C 214.527344 21.667969 214.394531 21.578125 214.308594 21.457031 C 214.222656 21.339844 214.179688 21.195312 214.183594 21.027344 C 214.179688 20.777344 214.269531 20.566406 214.457031 20.394531 C 214.636719 20.222656 214.878906 20.136719 215.183594 20.132812 C 215.484375 20.136719 215.726562 20.226562 215.914062 20.398438 C 216.097656 20.578125 216.1875 20.789062 216.191406 21.039062 C 216.1875 21.203125 216.144531 21.339844 216.0625 21.457031 C 215.976562 21.578125 215.851562 21.667969 215.679688 21.734375 C 215.894531 21.804688 216.054688 21.917969 216.167969 22.070312 C 216.277344 22.226562 216.335938 22.410156 216.335938 22.621094 C 216.335938 22.921875 216.230469 23.171875 216.019531 23.371094 C 215.808594 23.570312 215.53125 23.671875 215.1875 23.671875 C 214.84375 23.671875 214.566406 23.570312 214.359375 23.371094 C 214.148438 23.167969 214.039062 22.917969 214.042969 22.609375 C 214.039062 22.390625 214.097656 22.199219 214.214844 22.046875 C 214.328125 21.894531 214.492188 21.789062 214.707031 21.734375 Z M 214.617188 21.011719 C 214.617188 21.175781 214.671875 21.3125 214.777344 21.414062 C 214.882812 21.519531 215.019531 21.570312 215.191406 21.570312 C 215.355469 21.570312 215.488281 21.519531 215.59375 21.417969 C 215.699219 21.316406 215.753906 21.1875 215.753906 21.035156 C 215.753906 20.882812 215.699219 20.753906 215.59375 20.644531 C 215.480469 20.539062 215.34375 20.484375 215.1875 20.484375 C 215.019531 20.484375 214.882812 20.535156 214.777344 20.640625 C 214.671875 20.746094 214.617188 20.867188 214.617188 21.011719 Z M 214.484375 22.613281 C 214.480469 22.734375 214.507812 22.851562 214.566406 22.964844 C 214.621094 23.078125 214.707031 23.167969 214.824219 23.230469 C 214.9375 23.292969 215.058594 23.320312 215.195312 23.320312 C 215.394531 23.320312 215.5625 23.257812 215.699219 23.128906 C 215.828125 22.996094 215.894531 22.832031 215.898438 22.628906 C 215.894531 22.425781 215.828125 22.253906 215.691406 22.121094 C 215.558594 21.988281 215.386719 21.917969 215.179688 21.917969 C 214.980469 21.917969 214.8125 21.988281 214.679688 22.121094 C 214.546875 22.25 214.480469 22.417969 214.484375 22.613281 Z M 214.484375 22.613281 "/>
<path style=" stroke:none;fill-rule:nonzero;fill:rgb(0%,0%,0%);fill-opacity:1;" d="M 221.050781 83.816406 L 221.710938 83.984375 C 221.570312 84.523438 221.320312 84.929688 220.964844 85.210938 C 220.605469 85.492188 220.164062 85.632812 219.652344 85.636719 C 219.113281 85.632812 218.679688 85.527344 218.34375 85.3125 C 218.007812 85.097656 217.75 84.78125 217.574219 84.367188 C 217.398438 83.957031 217.3125 83.511719 217.316406 83.039062 C 217.3125 82.527344 217.414062 82.078125 217.609375 81.691406 C 217.804688 81.308594 218.085938 81.019531 218.453125 80.816406 C 218.816406 80.621094 219.222656 80.519531 219.660156 80.519531 C 220.15625 80.519531 220.574219 80.648438 220.914062 80.894531 C 221.253906 81.148438 221.488281 81.503906 221.621094 81.960938 L 220.976562 82.113281 C 220.859375 81.753906 220.691406 81.492188 220.472656 81.324219 C 220.25 81.164062 219.976562 81.078125 219.648438 81.078125 C 219.261719 81.078125 218.941406 81.171875 218.6875 81.351562 C 218.429688 81.535156 218.25 81.78125 218.148438 82.085938 C 218.042969 82.394531 217.992188 82.710938 217.992188 83.039062 C 217.992188 83.460938 218.054688 83.828125 218.175781 84.140625 C 218.296875 84.457031 218.488281 84.691406 218.75 84.84375 C 219.011719 85 219.292969 85.082031 219.597656 85.078125 C 219.964844 85.082031 220.277344 84.976562 220.53125 84.761719 C 220.789062 84.550781 220.957031 84.234375 221.050781 83.816406 Z M 221.050781 83.816406 "/>
<path style=" stroke:none;fill-rule:nonzero;fill:rgb(0%,0%,0%);fill-opacity:1;" d="M 214.394531 85.242188 L 214.804688 85.203125 C 214.839844 85.398438 214.902344 85.535156 215.003906 85.625 C 215.097656 85.710938 215.226562 85.753906 215.382812 85.753906 C 215.511719 85.753906 215.625 85.722656 215.726562 85.664062 C 215.824219 85.605469 215.90625 85.527344 215.96875 85.425781 C 216.03125 85.324219 216.082031 85.191406 216.125 85.019531 C 216.167969 84.851562 216.1875 84.679688 216.191406 84.5 C 216.1875 84.484375 216.1875 84.453125 216.1875 84.414062 C 216.101562 84.550781 215.984375 84.660156 215.839844 84.742188 C 215.691406 84.828125 215.53125 84.871094 215.359375 84.871094 C 215.070312 84.871094 214.824219 84.765625 214.625 84.558594 C 214.425781 84.351562 214.324219 84.074219 214.328125 83.734375 C 214.324219 83.382812 214.429688 83.101562 214.640625 82.886719 C 214.847656 82.675781 215.109375 82.566406 215.425781 82.566406 C 215.648438 82.566406 215.855469 82.628906 216.042969 82.75 C 216.230469 82.875 216.375 83.046875 216.472656 83.269531 C 216.570312 83.496094 216.617188 83.820312 216.617188 84.238281 C 216.617188 84.6875 216.570312 85.035156 216.472656 85.300781 C 216.375 85.5625 216.230469 85.761719 216.039062 85.898438 C 215.851562 86.035156 215.628906 86.101562 215.371094 86.105469 C 215.097656 86.101562 214.875 86.027344 214.703125 85.878906 C 214.527344 85.730469 214.425781 85.519531 214.394531 85.242188 Z M 216.144531 83.714844 C 216.140625 83.472656 216.074219 83.277344 215.949219 83.132812 C 215.816406 82.988281 215.65625 82.917969 215.476562 82.917969 C 215.28125 82.917969 215.117188 82.996094 214.980469 83.148438 C 214.835938 83.304688 214.765625 83.503906 214.769531 83.75 C 214.765625 83.972656 214.832031 84.152344 214.96875 84.289062 C 215.101562 84.429688 215.265625 84.496094 215.464844 84.492188 C 215.660156 84.496094 215.824219 84.429688 215.949219 84.289062 C 216.078125 84.152344 216.140625 83.960938 216.144531 83.714844 Z M 216.144531 83.714844 "/>
<path style="fill:none;stroke-width:0.0333333;stroke-linecap:butt;stroke-linejoin:miter;stroke:rgb(0%,0%,0%);stroke-opacity:1;stroke-miterlimit:10;" d="M 0.855964 3.008932 L 1.736839 2.503908 " transform="matrix(20.833333,0,0,20.744681,165.561949,20.647078)"/>
<path style="fill:none;stroke-width:0.0333333;stroke-linecap:butt;stroke-linejoin:miter;stroke:rgb(0%,0%,0%);stroke-opacity:1;stroke-miterlimit:10;" d="M 1.728589 2.518407 L 1.728589 1.497626 " transform="matrix(20.833333,0,0,20.744681,165.561949,20.647078)"/>
<path style="fill:none;stroke-width:0.0333333;stroke-linecap:butt;stroke-linejoin:miter;stroke:rgb(0%,0%,0%);stroke-opacity:1;stroke-miterlimit:10;" d="M 1.736839 1.512125 L 0.855964 0.996556 " transform="matrix(20.833333,0,0,20.744681,165.561949,20.647078)"/>
<path style="fill:none;stroke-width:0.0333333;stroke-linecap:butt;stroke-linejoin:miter;stroke:rgb(0%,0%,0%);stroke-opacity:1;stroke-miterlimit:10;" d="M 0.0000264333 1.497626 L 0.0000264333 2.518407 " transform="matrix(20.833333,0,0,20.744681,165.561949,20.647078)"/>
<path style="fill:none;stroke-width:0.0333333;stroke-linecap:butt;stroke-linejoin:miter;stroke:rgb(0%,0%,0%);stroke-opacity:1;stroke-miterlimit:10;" d="M 0.166714 1.593283 L 0.166714 2.421808 " transform="matrix(20.833333,0,0,20.744681,165.561949,20.647078)"/>
<path style="fill:none;stroke-width:0.0333333;stroke-linecap:butt;stroke-linejoin:miter;stroke:rgb(0%,0%,0%);stroke-opacity:1;stroke-miterlimit:10;" d="M 1.797214 1.481997 L 1.784089 1.459589 M 1.866214 1.456576 L 1.839964 1.41176 M 1.934839 1.431155 L 1.895651 1.36412 M 2.003651 1.405735 L 1.951151 1.316292 M 2.072651 1.380314 L 2.007026 1.268463 M 2.141276 1.354893 L 2.062526 1.220823 M 2.210276 1.329661 L 2.118214 1.172994 M 2.278901 1.30424 L 2.173901 1.125354 M 2.347714 1.27882 L 2.229589 1.077714 " transform="matrix(20.833333,0,0,20.744681,165.561949,20.647078)"/>
<path style="fill:none;stroke-width:0.0333333;stroke-linecap:butt;stroke-linejoin:miter;stroke:rgb(0%,0%,0%);stroke-opacity:1;stroke-miterlimit:10;" d="M -0.00822357 1.512125 L 0.872651 0.996556 " transform="matrix(20.833333,0,0,20.744681,165.561949,20.647078)"/>
<path style="fill:none;stroke-width:0.0333333;stroke-linecap:butt;stroke-linejoin:miter;stroke:rgb(0%,0%,0%);stroke-opacity:1;stroke-miterlimit:10;" d="M 2.672089 0.83763 L 2.668714 0.188367 " transform="matrix(20.833333,0,0,20.744681,165.561949,20.647078)"/>
<path style="fill:none;stroke-width:0.0333333;stroke-linecap:butt;stroke-linejoin:miter;stroke:rgb(0%,0%,0%);stroke-opacity:1;stroke-miterlimit:10;" d="M 2.505401 0.838383 L 2.502026 0.18912 " transform="matrix(20.833333,0,0,20.744681,165.561949,20.647078)"/>
<path style="fill:none;stroke-width:0.0333333;stroke-linecap:butt;stroke-linejoin:miter;stroke:rgb(0%,0%,0%);stroke-opacity:1;stroke-miterlimit:10;" d="M -0.00841107 2.503908 L 0.872651 3.008932 " transform="matrix(20.833333,0,0,20.744681,165.561949,20.647078)"/>
<path style="fill:none;stroke-width:0.0333333;stroke-linecap:butt;stroke-linejoin:miter;stroke:rgb(0%,0%,0%);stroke-opacity:1;stroke-miterlimit:10;" d="M 1.784089 2.554372 L 1.795714 2.534224 M 1.839401 2.60013 L 1.862839 2.559833 M 1.894901 2.646075 L 1.930151 2.585442 M 1.950401 2.691644 L 1.997276 2.610863 M 2.005901 2.737401 L 2.064401 2.63666 M 2.061401 2.783158 L 2.131714 2.662081 M 2.116901 2.828916 L 2.198839 2.68769 M 2.172214 2.874673 L 2.265964 2.713299 M 2.227714 2.92043 L 2.333276 2.738908 M 2.283026 2.966187 L 2.400401 2.764517 " transform="matrix(20.833333,0,0,20.744681,165.561949,20.647078)"/>
</g>
</svg>
