<?xml version="1.0" encoding="UTF-8"?>
<svg xmlns="http://www.w3.org/2000/svg" xmlns:xlink="http://www.w3.org/1999/xlink" width="170.4pt" height="94.4pt" viewBox="0 0 170.4 94.4" version="1.1">
<g id="surface1472">
<path style=" stroke:none;fill-rule:nonzero;fill:rgb(0%,0%,0%);fill-opacity:1;" d="M 18.378906 32.140625 C 18.378906 31.324219 18.601562 30.683594 19.042969 30.21875 C 19.488281 29.757812 20.054688 29.523438 20.757812 29.523438 C 21.210938 29.523438 21.628906 29.632812 22 29.847656 C 22.363281 30.066406 22.644531 30.371094 22.839844 30.757812 C 23.027344 31.152344 23.125 31.59375 23.128906 32.085938 C 23.125 32.589844 23.023438 33.035156 22.824219 33.429688 C 22.617188 33.828125 22.328125 34.125 21.960938 34.328125 C 21.585938 34.53125 21.1875 34.628906 20.753906 34.632812 C 20.285156 34.628906 19.867188 34.519531 19.5 34.296875 C 19.132812 34.070312 18.851562 33.765625 18.664062 33.375 C 18.472656 32.988281 18.378906 32.578125 18.378906 32.140625 Z M 19.058594 32.152344 C 19.054688 32.75 19.21875 33.21875 19.539062 33.558594 C 19.859375 33.90625 20.265625 34.078125 20.753906 34.074219 C 21.246094 34.078125 21.652344 33.90625 21.972656 33.558594 C 22.292969 33.210938 22.453125 32.71875 22.453125 32.082031 C 22.453125 31.679688 22.378906 31.332031 22.246094 31.027344 C 22.105469 30.730469 21.910156 30.496094 21.644531 30.332031 C 21.382812 30.167969 21.089844 30.085938 20.761719 30.085938 C 20.292969 30.085938 19.894531 30.242188 19.558594 30.5625 C 19.222656 30.878906 19.054688 31.410156 19.058594 32.152344 Z M 19.058594 32.152344 "/>
<path style=" stroke:none;fill-rule:nonzero;fill:rgb(0%,0%,0%);fill-opacity:1;" d="M 57.796875 74.898438 L 58.453125 75.066406 C 58.3125 75.605469 58.066406 76.011719 57.707031 76.292969 C 57.351562 76.570312 56.910156 76.710938 56.398438 76.714844 C 55.859375 76.710938 55.425781 76.605469 55.089844 76.390625 C 54.753906 76.175781 54.496094 75.859375 54.324219 75.449219 C 54.148438 75.039062 54.058594 74.597656 54.0625 74.125 C 54.058594 73.613281 54.160156 73.164062 54.359375 72.78125 C 54.554688 72.398438 54.832031 72.105469 55.203125 71.90625 C 55.566406 71.710938 55.96875 71.609375 56.40625 71.605469 C 56.902344 71.609375 57.320312 71.738281 57.660156 71.984375 C 58 72.238281 58.234375 72.589844 58.367188 73.046875 L 57.722656 73.199219 C 57.601562 72.839844 57.433594 72.582031 57.21875 72.414062 C 56.996094 72.25 56.722656 72.167969 56.394531 72.167969 C 56.007812 72.167969 55.6875 72.257812 55.433594 72.441406 C 55.175781 72.625 55 72.867188 54.894531 73.171875 C 54.792969 73.480469 54.742188 73.796875 54.742188 74.121094 C 54.742188 74.542969 54.800781 74.910156 54.925781 75.222656 C 55.042969 75.539062 55.238281 75.773438 55.496094 75.925781 C 55.757812 76.082031 56.039062 76.160156 56.34375 76.15625 C 56.710938 76.160156 57.023438 76.054688 57.277344 75.839844 C 57.53125 75.632812 57.703125 75.316406 57.796875 74.898438 Z M 57.796875 74.898438 "/>
<path style=" stroke:none;fill-rule:nonzero;fill:rgb(0%,0%,0%);fill-opacity:1;" d="M 99.421875 74.898438 L 100.082031 75.066406 C 99.941406 75.605469 99.695312 76.011719 99.335938 76.292969 C 98.980469 76.570312 98.539062 76.710938 98.023438 76.714844 C 97.488281 76.710938 97.054688 76.605469 96.71875 76.390625 C 96.382812 76.175781 96.125 75.859375 95.953125 75.449219 C 95.777344 75.039062 95.6875 74.597656 95.691406 74.125 C 95.6875 73.613281 95.789062 73.164062 95.988281 72.78125 C 96.183594 72.398438 96.460938 72.105469 96.828125 71.90625 C 97.191406 71.710938 97.597656 71.609375 98.035156 71.605469 C 98.53125 71.609375 98.949219 71.738281 99.289062 71.984375 C 99.625 72.238281 99.863281 72.589844 99.996094 73.046875 L 99.351562 73.199219 C 99.230469 72.839844 99.0625 72.582031 98.847656 72.414062 C 98.625 72.25 98.351562 72.167969 98.023438 72.167969 C 97.636719 72.167969 97.316406 72.257812 97.0625 72.441406 C 96.804688 72.625 96.625 72.867188 96.523438 73.171875 C 96.421875 73.480469 96.371094 73.796875 96.371094 74.121094 C 96.371094 74.542969 96.429688 74.910156 96.554688 75.222656 C 96.671875 75.539062 96.867188 75.773438 97.125 75.925781 C 97.386719 76.082031 97.667969 76.160156 97.972656 76.15625 C 98.339844 76.160156 98.652344 76.054688 98.90625 75.839844 C 99.160156 75.632812 99.332031 75.316406 99.421875 74.898438 Z M 99.421875 74.898438 "/>
<path style=" stroke:none;fill-rule:nonzero;fill:rgb(0%,0%,0%);fill-opacity:1;" d="M 116.328125 38.367188 C 116.324219 37.550781 116.546875 36.910156 116.992188 36.445312 C 117.433594 35.984375 118.003906 35.75 118.703125 35.75 C 119.160156 35.75 119.574219 35.859375 119.945312 36.074219 C 120.3125 36.292969 120.589844 36.597656 120.785156 36.984375 C 120.976562 37.378906 121.074219 37.820312 121.074219 38.3125 C 121.074219 38.816406 120.96875 39.261719 120.769531 39.65625 C 120.5625 40.054688 120.277344 40.351562 119.90625 40.554688 C 119.535156 40.757812 119.132812 40.855469 118.703125 40.859375 C 118.234375 40.855469 117.816406 40.746094 117.445312 40.523438 C 117.078125 40.296875 116.796875 39.992188 116.613281 39.601562 C 116.417969 39.214844 116.324219 38.804688 116.328125 38.367188 Z M 117.003906 38.378906 C 117.003906 38.976562 117.164062 39.445312 117.488281 39.785156 C 117.808594 40.132812 118.210938 40.304688 118.699219 40.300781 C 119.191406 40.304688 119.597656 40.132812 119.917969 39.785156 C 120.238281 39.4375 120.398438 38.945312 120.398438 38.308594 C 120.398438 37.90625 120.328125 37.558594 120.191406 37.253906 C 120.054688 36.957031 119.855469 36.722656 119.59375 36.558594 C 119.332031 36.394531 119.035156 36.3125 118.710938 36.3125 C 118.242188 36.3125 117.839844 36.46875 117.507812 36.789062 C 117.171875 37.105469 117.003906 37.636719 117.003906 38.378906 Z M 117.003906 38.378906 "/>
<path style=" stroke:none;fill-rule:nonzero;fill:rgb(0%,0%,0%);fill-opacity:1;" d="M 151.460938 21.113281 L 152.117188 21.28125 C 151.976562 21.820312 151.730469 22.226562 151.371094 22.507812 C 151.015625 22.789062 150.574219 22.929688 150.0625 22.929688 C 149.523438 22.929688 149.089844 22.824219 148.753906 22.609375 C 148.417969 22.390625 148.160156 22.078125 147.988281 21.664062 C 147.8125 21.253906 147.726562 20.8125 147.726562 20.339844 C 147.726562 19.828125 147.824219 19.382812 148.023438 18.996094 C 148.21875 18.613281 148.496094 18.320312 148.867188 18.121094 C 149.230469 17.925781 149.632812 17.824219 150.070312 17.824219 C 150.566406 17.824219 150.984375 17.953125 151.324219 18.199219 C 151.664062 18.453125 151.898438 18.808594 152.03125 19.261719 L 151.386719 19.414062 C 151.265625 19.058594 151.097656 18.796875 150.882812 18.628906 C 150.660156 18.46875 150.386719 18.382812 150.058594 18.382812 C 149.671875 18.382812 149.355469 18.476562 149.097656 18.65625 C 148.839844 18.839844 148.664062 19.085938 148.558594 19.390625 C 148.457031 19.695312 148.40625 20.011719 148.40625 20.335938 C 148.40625 20.757812 148.464844 21.125 148.589844 21.4375 C 148.707031 21.753906 148.902344 21.988281 149.160156 22.140625 C 149.421875 22.296875 149.703125 22.375 150.007812 22.371094 C 150.375 22.375 150.6875 22.269531 150.941406 22.058594 C 151.195312 21.847656 151.367188 21.53125 151.460938 21.113281 Z M 151.460938 21.113281 "/>
<path style=" stroke:none;fill-rule:nonzero;fill:rgb(0%,0%,0%);fill-opacity:1;" d="M 41.851562 52.351562 L 42.507812 52.515625 C 42.367188 53.054688 42.121094 53.464844 41.765625 53.742188 C 41.40625 54.023438 40.96875 54.164062 40.453125 54.167969 C 39.914062 54.164062 39.480469 54.058594 39.144531 53.84375 C 38.808594 53.628906 38.550781 53.3125 38.378906 52.898438 C 38.203125 52.492188 38.117188 52.046875 38.117188 51.578125 C 38.117188 51.0625 38.214844 50.617188 38.414062 50.230469 C 38.609375 49.847656 38.886719 49.558594 39.257812 49.359375 C 39.621094 49.160156 40.023438 49.0625 40.464844 49.058594 C 40.960938 49.0625 41.375 49.1875 41.714844 49.4375 C 42.054688 49.691406 42.289062 50.042969 42.421875 50.5 L 41.777344 50.648438 C 41.660156 50.292969 41.492188 50.03125 41.273438 49.863281 C 41.050781 49.703125 40.777344 49.621094 40.449219 49.621094 C 40.066406 49.621094 39.746094 49.710938 39.492188 49.890625 C 39.234375 50.074219 39.054688 50.320312 38.949219 50.625 C 38.847656 50.933594 38.796875 51.246094 38.796875 51.574219 C 38.796875 51.996094 38.855469 52.359375 38.980469 52.671875 C 39.101562 52.988281 39.292969 53.222656 39.550781 53.378906 C 39.8125 53.535156 40.09375 53.613281 40.398438 53.609375 C 40.765625 53.613281 41.078125 53.507812 41.332031 53.292969 C 41.589844 53.082031 41.757812 52.769531 41.851562 52.351562 Z M 41.851562 52.351562 "/>
<path style="fill:none;stroke-width:0.0333333;stroke-linecap:butt;stroke-linejoin:miter;stroke:rgb(0%,0%,0%);stroke-opacity:1;stroke-miterlimit:10;" d="M 3.710588 0.857728 L 3.205752 1.731937 " transform="matrix(20.814332,0,0,20.701754,20.754873,20.37633)"/>
<path style="fill:none;stroke-width:0.0333333;stroke-linecap:butt;stroke-linejoin:miter;stroke:rgb(0%,0%,0%);stroke-opacity:1;stroke-miterlimit:10;" d="M 2.210532 1.74024 L 1.705697 0.866031 " transform="matrix(20.814332,0,0,20.701754,20.754873,20.37633)"/>
<path style="fill:none;stroke-width:0.0333333;stroke-linecap:butt;stroke-linejoin:miter;stroke:rgb(0%,0%,0%);stroke-opacity:1;stroke-miterlimit:10;" d="M 1.705697 0.866031 L 2.210532 -0.0083667 " transform="matrix(20.814332,0,0,20.701754,20.754873,20.37633)"/>
<path style="fill:none;stroke-width:0.0333333;stroke-linecap:butt;stroke-linejoin:miter;stroke:rgb(0%,0%,0%);stroke-opacity:1;stroke-miterlimit:10;" d="M 3.200873 -0.0083667 L 3.705708 0.866031 " transform="matrix(20.814332,0,0,20.701754,20.754873,20.37633)"/>
<path style="fill:none;stroke-width:0.0333333;stroke-linecap:butt;stroke-linejoin:miter;stroke:rgb(0%,0%,0%);stroke-opacity:1;stroke-miterlimit:10;" d="M 3.104598 0.158248 L 3.513345 0.866031 " transform="matrix(20.814332,0,0,20.701754,20.754873,20.37633)"/>
<path style="fill:none;stroke-width:0.0333333;stroke-linecap:butt;stroke-linejoin:miter;stroke:rgb(0%,0%,0%);stroke-opacity:1;stroke-miterlimit:10;" d="M 0.192504 0.495063 L 0.948631 0.21995 " transform="matrix(20.814332,0,0,20.701754,20.754873,20.37633)"/>
<path style="fill:none;stroke-width:0.0333333;stroke-linecap:butt;stroke-linejoin:miter;stroke:rgb(0%,0%,0%);stroke-opacity:1;stroke-miterlimit:10;" d="M 0.249556 0.651677 L 0.915413 0.409397 " transform="matrix(20.814332,0,0,20.701754,20.754873,20.37633)"/>
<path style="fill:none;stroke-width:0.0333333;stroke-linecap:butt;stroke-linejoin:miter;stroke:rgb(0%,0%,0%);stroke-opacity:1;stroke-miterlimit:10;" d="M 3.215324 -0.000064265 L 2.196082 -0.000064265 " transform="matrix(20.814332,0,0,20.701754,20.754873,20.37633)"/>
<path style=" stroke:none;fill-rule:nonzero;fill:rgb(0%,0%,0%);fill-opacity:1;" d="M 66.664062 56.230469 L 56.433594 69.03125 L 60.636719 71.449219 "/>
<path style="fill:none;stroke-width:0.0333333;stroke-linecap:butt;stroke-linejoin:miter;stroke:rgb(0%,0%,0%);stroke-opacity:1;stroke-miterlimit:10;" d="M 3.205752 1.731937 L 3.596296 2.408774 " transform="matrix(20.814332,0,0,20.701754,20.754873,20.37633)"/>
<path style="fill:none;stroke-width:0.0333333;stroke-linecap:butt;stroke-linejoin:miter;stroke:rgb(0%,0%,0%);stroke-opacity:1;stroke-miterlimit:10;" d="M 2.196082 1.731937 L 3.205752 1.731937 " transform="matrix(20.814332,0,0,20.701754,20.754873,20.37633)"/>
<path style="fill:none;stroke-width:0.0333333;stroke-linecap:butt;stroke-linejoin:miter;stroke:rgb(0%,0%,0%);stroke-opacity:1;stroke-miterlimit:10;" d="M 4.817285 0.67281 L 5.210456 -0.0083667 " transform="matrix(20.814332,0,0,20.701754,20.754873,20.37633)"/>
<path style="fill:none;stroke-width:0.0333333;stroke-linecap:butt;stroke-linejoin:miter;stroke:rgb(0%,0%,0%);stroke-opacity:1;stroke-miterlimit:10;" d="M 5.196005 -0.000064265 L 6.056853 -0.000064265 " transform="matrix(20.814332,0,0,20.701754,20.754873,20.37633)"/>
<path style="fill:none;stroke-width:0.0333333;stroke-linecap:butt;stroke-linejoin:miter;stroke:rgb(0%,0%,0%);stroke-opacity:1;stroke-miterlimit:10;" d="M 1.705697 0.866031 L 0.932304 0.216931 " transform="matrix(20.814332,0,0,20.701754,20.754873,20.37633)"/>
<path style="fill:none;stroke-width:0.0333333;stroke-linecap:butt;stroke-linejoin:miter;stroke:rgb(0%,0%,0%);stroke-opacity:1;stroke-miterlimit:10;" d="M 1.644704 0.903392 L 1.658404 0.919619 M 1.583523 0.940753 L 1.610923 0.973208 M 1.52253 0.978302 L 1.563442 1.026985 M 1.461537 1.015663 L 1.515961 1.080573 M 1.400356 1.053024 L 1.468668 1.134162 M 1.339363 1.090385 L 1.421187 1.187939 M 1.27837 1.127746 L 1.373894 1.241527 M 1.217376 1.165107 L 1.326226 1.295116 M 1.156196 1.202468 L 1.278933 1.348704 M 1.095202 1.240018 L 1.231452 1.402481 M 1.034022 1.277379 L 1.184159 1.455881 " transform="matrix(20.814332,0,0,20.701754,20.754873,20.37633)"/>
<path style="fill:none;stroke-width:0.0333333;stroke-linecap:butt;stroke-linejoin:miter;stroke:rgb(0%,0%,0%);stroke-opacity:1;stroke-miterlimit:10;" d="M 4.548352 0.866031 L 3.696137 0.866031 " transform="matrix(20.814332,0,0,20.701754,20.754873,20.37633)"/>
</g>
</svg>
