<?xml version="1.0" encoding="UTF-8"?>
<svg xmlns="http://www.w3.org/2000/svg" xmlns:xlink="http://www.w3.org/1999/xlink" width="156.8pt" height="69.6pt" viewBox="0 0 156.8 69.6" version="1.1">
<g id="surface592">
<path style=" stroke:none;fill-rule:nonzero;fill:rgb(0%,0%,0%);fill-opacity:1;" d="M 78.316406 25.195312 C 78.316406 23.886719 78.667969 22.859375 79.378906 22.113281 C 80.085938 21.371094 81.003906 21.003906 82.128906 21 C 82.859375 21.003906 83.523438 21.175781 84.117188 21.523438 C 84.703125 21.875 85.152344 22.363281 85.464844 22.984375 C 85.773438 23.609375 85.925781 24.316406 85.929688 25.105469 C 85.925781 25.910156 85.761719 26.625 85.441406 27.257812 C 85.113281 27.890625 84.652344 28.371094 84.054688 28.695312 C 83.457031 29.023438 82.8125 29.179688 82.121094 29.183594 C 81.371094 29.179688 80.699219 29.003906 80.113281 28.644531 C 79.523438 28.285156 79.078125 27.792969 78.773438 27.171875 C 78.46875 26.550781 78.316406 25.894531 78.316406 25.195312 Z M 79.402344 25.214844 C 79.398438 26.167969 79.65625 26.921875 80.175781 27.464844 C 80.6875 28.015625 81.335938 28.289062 82.117188 28.289062 C 82.90625 28.289062 83.5625 28.011719 84.074219 27.457031 C 84.585938 26.90625 84.839844 26.121094 84.84375 25.101562 C 84.839844 24.457031 84.730469 23.898438 84.515625 23.414062 C 84.292969 22.9375 83.972656 22.566406 83.554688 22.296875 C 83.128906 22.035156 82.65625 21.902344 82.132812 21.902344 C 81.382812 21.902344 80.742188 22.15625 80.207031 22.664062 C 79.667969 23.175781 79.398438 24.023438 79.402344 25.214844 Z M 79.402344 25.214844 "/>
<path style=" stroke:none;fill-rule:nonzero;fill:rgb(0%,0%,0%);fill-opacity:1;" d="M 133.03125 5.882812 C 133.03125 4.570312 133.382812 3.542969 134.09375 2.800781 C 134.800781 2.058594 135.71875 1.6875 136.84375 1.6875 C 137.578125 1.6875 138.238281 1.859375 138.832031 2.210938 C 139.417969 2.558594 139.867188 3.046875 140.179688 3.667969 C 140.488281 4.292969 140.640625 5 140.644531 5.789062 C 140.640625 6.59375 140.480469 7.3125 140.15625 7.941406 C 139.828125 8.578125 139.367188 9.058594 138.769531 9.378906 C 138.171875 9.707031 137.527344 9.867188 136.835938 9.867188 C 136.085938 9.867188 135.414062 9.6875 134.828125 9.328125 C 134.238281 8.972656 133.792969 8.480469 133.488281 7.855469 C 133.183594 7.238281 133.03125 6.578125 133.03125 5.882812 Z M 134.117188 5.898438 C 134.113281 6.851562 134.371094 7.605469 134.890625 8.152344 C 135.40625 8.699219 136.050781 8.972656 136.832031 8.972656 C 137.621094 8.972656 138.277344 8.699219 138.789062 8.144531 C 139.300781 7.59375 139.554688 6.804688 139.558594 5.785156 C 139.554688 5.144531 139.445312 4.582031 139.230469 4.101562 C 139.011719 3.621094 138.6875 3.25 138.269531 2.984375 C 137.84375 2.722656 137.371094 2.589844 136.847656 2.585938 C 136.097656 2.589844 135.457031 2.84375 134.921875 3.351562 C 134.382812 3.859375 134.113281 4.710938 134.117188 5.898438 Z M 134.117188 5.898438 "/>
<path style=" stroke:none;fill-rule:nonzero;fill:rgb(0%,0%,0%);fill-opacity:1;" d="M 141.570312 9.59375 L 141.570312 1.6875 L 142.625 1.6875 L 142.625 4.933594 L 146.761719 4.933594 L 146.761719 1.6875 L 147.816406 1.6875 L 147.816406 9.59375 L 146.761719 9.59375 L 146.761719 5.867188 L 142.625 5.867188 L 142.625 9.59375 Z M 141.570312 9.59375 "/>
<path style=" stroke:none;fill-rule:nonzero;fill:rgb(0%,0%,0%);fill-opacity:1;" d="M 147.914062 51.382812 C 147.914062 50.070312 148.265625 49.042969 148.976562 48.296875 C 149.683594 47.554688 150.601562 47.1875 151.722656 47.183594 C 152.457031 47.1875 153.121094 47.359375 153.710938 47.707031 C 154.300781 48.058594 154.75 48.546875 155.0625 49.167969 C 155.367188 49.792969 155.523438 50.5 155.523438 51.289062 C 155.523438 52.09375 155.359375 52.8125 155.035156 53.441406 C 154.707031 54.074219 154.246094 54.554688 153.652344 54.878906 C 153.050781 55.207031 152.410156 55.363281 151.71875 55.367188 C 150.964844 55.363281 150.296875 55.1875 149.710938 54.828125 C 149.117188 54.46875 148.671875 53.976562 148.367188 53.355469 C 148.0625 52.734375 147.914062 52.078125 147.914062 51.382812 Z M 149 51.398438 C 148.996094 52.351562 149.253906 53.105469 149.773438 53.648438 C 150.285156 54.199219 150.929688 54.472656 151.714844 54.472656 C 152.503906 54.472656 153.15625 54.195312 153.671875 53.640625 C 154.179688 53.089844 154.4375 52.304688 154.4375 51.285156 C 154.4375 50.640625 154.328125 50.082031 154.109375 49.597656 C 153.890625 49.121094 153.570312 48.75 153.148438 48.480469 C 152.726562 48.21875 152.25 48.085938 151.730469 48.085938 C 150.980469 48.085938 150.339844 48.339844 149.804688 48.847656 C 149.265625 49.359375 148.996094 50.207031 149 51.398438 Z M 149 51.398438 "/>
<path style=" stroke:none;fill-rule:nonzero;fill:rgb(0%,0%,0%);fill-opacity:1;" d="M 8.722656 51.382812 C 8.722656 50.070312 9.078125 49.042969 9.789062 48.296875 C 10.492188 47.554688 11.410156 47.1875 12.535156 47.183594 C 13.269531 47.1875 13.929688 47.359375 14.523438 47.707031 C 15.113281 48.058594 15.558594 48.546875 15.871094 49.167969 C 16.179688 49.792969 16.332031 50.5 16.335938 51.289062 C 16.332031 52.09375 16.171875 52.8125 15.847656 53.441406 C 15.519531 54.074219 15.058594 54.554688 14.460938 54.878906 C 13.863281 55.207031 13.21875 55.363281 12.53125 55.367188 C 11.777344 55.363281 11.105469 55.1875 10.519531 54.828125 C 9.929688 54.46875 9.484375 53.976562 9.179688 53.355469 C 8.875 52.734375 8.722656 52.078125 8.722656 51.382812 Z M 9.808594 51.398438 C 9.804688 52.351562 10.0625 53.105469 10.582031 53.648438 C 11.097656 54.199219 11.742188 54.472656 12.523438 54.472656 C 13.3125 54.472656 13.96875 54.195312 14.480469 53.640625 C 14.992188 53.089844 15.246094 52.304688 15.25 51.285156 C 15.246094 50.640625 15.140625 50.082031 14.921875 49.597656 C 14.703125 49.121094 14.382812 48.75 13.960938 48.480469 C 13.535156 48.21875 13.0625 48.085938 12.539062 48.085938 C 11.792969 48.085938 11.152344 48.339844 10.617188 48.847656 C 10.074219 49.359375 9.804688 50.207031 9.808594 51.398438 Z M 9.808594 51.398438 "/>
<path style=" stroke:none;fill-rule:nonzero;fill:rgb(0%,0%,0%);fill-opacity:1;" d="M 1.554688 55.09375 L 1.554688 47.183594 L 2.605469 47.183594 L 2.605469 50.433594 L 6.742188 50.433594 L 6.742188 47.183594 L 7.796875 47.183594 L 7.796875 55.09375 L 6.742188 55.09375 L 6.742188 51.363281 L 2.605469 51.363281 L 2.605469 55.09375 Z M 1.554688 55.09375 "/>
<path style=" stroke:none;fill-rule:nonzero;fill:rgb(0%,0%,0%);fill-opacity:1;" d="M 23.605469 5.882812 C 23.605469 4.570312 23.960938 3.542969 24.671875 2.800781 C 25.375 2.058594 26.292969 1.6875 27.417969 1.6875 C 28.152344 1.6875 28.8125 1.859375 29.40625 2.210938 C 29.996094 2.558594 30.441406 3.046875 30.753906 3.667969 C 31.0625 4.292969 31.21875 5 31.21875 5.789062 C 31.21875 6.59375 31.054688 7.3125 30.730469 7.941406 C 30.402344 8.578125 29.941406 9.058594 29.347656 9.378906 C 28.746094 9.707031 28.101562 9.867188 27.414062 9.867188 C 26.660156 9.867188 25.992188 9.6875 25.402344 9.328125 C 24.8125 8.972656 24.367188 8.480469 24.0625 7.855469 C 23.757812 7.238281 23.605469 6.578125 23.605469 5.882812 Z M 24.691406 5.898438 C 24.691406 6.851562 24.949219 7.605469 25.464844 8.152344 C 25.980469 8.699219 26.625 8.972656 27.40625 8.972656 C 28.199219 8.972656 28.851562 8.699219 29.367188 8.144531 C 29.875 7.59375 30.132812 6.804688 30.132812 5.785156 C 30.132812 5.144531 30.023438 4.582031 29.804688 4.101562 C 29.585938 3.621094 29.265625 3.25 28.84375 2.984375 C 28.421875 2.722656 27.945312 2.589844 27.425781 2.585938 C 26.675781 2.589844 26.035156 2.84375 25.5 3.351562 C 24.957031 3.859375 24.691406 4.710938 24.691406 5.898438 Z M 24.691406 5.898438 "/>
<path style="fill:none;stroke-width:0.0333333;stroke-linecap:butt;stroke-linejoin:miter;stroke:rgb(0%,0%,0%);stroke-opacity:1;stroke-miterlimit:10;" d="M 2.240276 0.890322 L 1.687247 1.292134 " transform="matrix(27.801418,0,0,27.619048,12.529648,5.777346)"/>
<path style="fill:none;stroke-width:0.0333333;stroke-linecap:butt;stroke-linejoin:miter;stroke:rgb(0%,0%,0%);stroke-opacity:1;stroke-miterlimit:10;" d="M 1.694272 1.287183 L 2.006897 2.249636 " transform="matrix(27.801418,0,0,27.619048,12.529648,5.777346)"/>
<path style="fill:none;stroke-width:0.0333333;stroke-linecap:butt;stroke-linejoin:miter;stroke:rgb(0%,0%,0%);stroke-opacity:1;stroke-miterlimit:10;" d="M 1.890137 1.350828 L 2.128012 2.082886 " transform="matrix(27.801418,0,0,27.619048,12.529648,5.777346)"/>
<path style="fill:none;stroke-width:0.0333333;stroke-linecap:butt;stroke-linejoin:miter;stroke:rgb(0%,0%,0%);stroke-opacity:1;stroke-miterlimit:10;" d="M 1.99116 2.238039 L 3.015304 2.238039 " transform="matrix(27.801418,0,0,27.619048,12.529648,5.777346)"/>
<path style="fill:none;stroke-width:0.0333333;stroke-linecap:butt;stroke-linejoin:miter;stroke:rgb(0%,0%,0%);stroke-opacity:1;stroke-miterlimit:10;" d="M 2.999567 2.249636 L 3.312332 1.287183 " transform="matrix(27.801418,0,0,27.619048,12.529648,5.777346)"/>
<path style="fill:none;stroke-width:0.0333333;stroke-linecap:butt;stroke-linejoin:miter;stroke:rgb(0%,0%,0%);stroke-opacity:1;stroke-miterlimit:10;" d="M 2.878452 2.082886 L 3.116468 1.350828 " transform="matrix(27.801418,0,0,27.619048,12.529648,5.777346)"/>
<path style="fill:none;stroke-width:0.0333333;stroke-linecap:butt;stroke-linejoin:miter;stroke:rgb(0%,0%,0%);stroke-opacity:1;stroke-miterlimit:10;" d="M 2.766047 0.890322 L 3.319077 1.292134 " transform="matrix(27.801418,0,0,27.619048,12.529648,5.777346)"/>
<path style="fill:none;stroke-width:0.0333333;stroke-linecap:butt;stroke-linejoin:miter;stroke:rgb(0%,0%,0%);stroke-opacity:1;stroke-miterlimit:10;" d="M 3.304183 1.289871 L 4.272406 0.97504 " transform="matrix(27.801418,0,0,27.619048,12.529648,5.777346)"/>
<path style="fill:none;stroke-width:0.0333333;stroke-linecap:butt;stroke-linejoin:miter;stroke:rgb(0%,0%,0%);stroke-opacity:1;stroke-miterlimit:10;" d="M 4.261306 0.987486 L 4.412349 0.277492 " transform="matrix(27.801418,0,0,27.619048,12.529648,5.777346)"/>
<path style="fill:none;stroke-width:0.0333333;stroke-linecap:butt;stroke-linejoin:miter;stroke:rgb(0%,0%,0%);stroke-opacity:1;stroke-miterlimit:10;" d="M 4.171945 1.007853 L 4.706427 1.489291 " transform="matrix(27.801418,0,0,27.619048,12.529648,5.777346)"/>
<path style="fill:none;stroke-width:0.0333333;stroke-linecap:butt;stroke-linejoin:miter;stroke:rgb(0%,0%,0%);stroke-opacity:1;stroke-miterlimit:10;" d="M 4.283365 0.883957 L 4.817988 1.365396 " transform="matrix(27.801418,0,0,27.619048,12.529648,5.777346)"/>
<path style="fill:none;stroke-width:0.0333333;stroke-linecap:butt;stroke-linejoin:miter;stroke:rgb(0%,0%,0%);stroke-opacity:1;stroke-miterlimit:10;" d="M 1.702281 1.289871 L 0.733917 0.97504 " transform="matrix(27.801418,0,0,27.619048,12.529648,5.777346)"/>
<path style="fill:none;stroke-width:0.0333333;stroke-linecap:butt;stroke-linejoin:miter;stroke:rgb(0%,0%,0%);stroke-opacity:1;stroke-miterlimit:10;" d="M 0.750357 0.971646 L 0.244397 1.427344 " transform="matrix(27.801418,0,0,27.619048,12.529648,5.777346)"/>
<path style="fill:none;stroke-width:0.0333333;stroke-linecap:butt;stroke-linejoin:miter;stroke:rgb(0%,0%,0%);stroke-opacity:1;stroke-miterlimit:10;" d="M 0.83466 1.007853 L 0.677294 0.267733 " transform="matrix(27.801418,0,0,27.619048,12.529648,5.777346)"/>
<path style="fill:none;stroke-width:0.0333333;stroke-linecap:butt;stroke-linejoin:miter;stroke:rgb(0%,0%,0%);stroke-opacity:1;stroke-miterlimit:10;" d="M 0.671674 1.042504 L 0.514307 0.302384 " transform="matrix(27.801418,0,0,27.619048,12.529648,5.777346)"/>
</g>
</svg>
