<?xml version="1.0" encoding="UTF-8"?>
<svg xmlns="http://www.w3.org/2000/svg" xmlns:xlink="http://www.w3.org/1999/xlink" width="392.8pt" height="67.2pt" viewBox="0 0 392.8 67.2" version="1.1">
<g id="surface1447">
<path style=" stroke:none;fill-rule:nonzero;fill:rgb(100%,100%,100%);fill-opacity:1;" d="M 0 0 L 392.9375 0 L 392.9375 67.339844 L 0 67.339844 Z M 0 0 "/>
<path style=" stroke:none;fill-rule:nonzero;fill:rgb(0%,0%,0%);fill-opacity:1;" d="M 42.683594 65.09375 L 45.742188 57.140625 L 46.878906 57.140625 L 50.140625 65.09375 L 48.9375 65.09375 L 48.007812 62.683594 L 44.679688 62.683594 L 43.804688 65.09375 Z M 44.984375 61.828125 L 47.683594 61.828125 L 46.851562 59.625 C 46.597656 58.960938 46.410156 58.410156 46.285156 57.976562 C 46.183594 58.492188 46.039062 58.996094 45.855469 59.496094 Z M 44.984375 61.828125 "/>
<path style=" stroke:none;fill-rule:nonzero;fill:rgb(0%,0%,0%);fill-opacity:1;" d="M 41.753906 65.644531 L 41.101562 65.644531 L 41.101562 61.496094 C 40.941406 61.648438 40.738281 61.796875 40.484375 61.945312 C 40.226562 62.097656 39.996094 62.207031 39.796875 62.28125 L 39.796875 61.652344 C 40.160156 61.484375 40.476562 61.273438 40.753906 61.03125 C 41.023438 60.789062 41.21875 60.550781 41.335938 60.320312 L 41.753906 60.320312 Z M 41.753906 65.644531 "/>
<path style=" stroke:none;fill-rule:nonzero;fill:rgb(0%,0%,0%);fill-opacity:1;" d="M 44.578125 31.796875 L 44.578125 32.421875 L 41.066406 32.421875 C 41.058594 32.265625 41.085938 32.117188 41.144531 31.96875 C 41.230469 31.734375 41.371094 31.496094 41.570312 31.265625 C 41.765625 31.035156 42.050781 30.765625 42.425781 30.460938 C 43 29.988281 43.386719 29.617188 43.59375 29.339844 C 43.796875 29.066406 43.898438 28.804688 43.898438 28.558594 C 43.898438 28.300781 43.804688 28.082031 43.621094 27.902344 C 43.4375 27.726562 43.195312 27.636719 42.898438 27.636719 C 42.582031 27.636719 42.332031 27.734375 42.144531 27.921875 C 41.957031 28.109375 41.859375 28.371094 41.859375 28.703125 L 41.191406 28.632812 C 41.234375 28.136719 41.40625 27.753906 41.707031 27.492188 C 42.003906 27.230469 42.40625 27.101562 42.914062 27.097656 C 43.421875 27.101562 43.824219 27.242188 44.125 27.523438 C 44.417969 27.804688 44.566406 28.15625 44.570312 28.570312 C 44.566406 28.785156 44.523438 28.996094 44.4375 29.199219 C 44.351562 29.402344 44.207031 29.621094 44.003906 29.847656 C 43.804688 30.074219 43.46875 30.382812 43.003906 30.777344 C 42.609375 31.105469 42.359375 31.328125 42.246094 31.445312 C 42.136719 31.5625 42.042969 31.679688 41.972656 31.796875 Z M 44.578125 31.796875 "/>
<path style=" stroke:none;fill-rule:nonzero;fill:rgb(0%,0%,0%);fill-opacity:1;" d="M 43.289062 9.554688 L 43.289062 1.605469 L 44.339844 1.605469 L 44.339844 4.871094 L 48.480469 4.871094 L 48.480469 1.605469 L 49.535156 1.605469 L 49.535156 9.554688 L 48.480469 9.554688 L 48.480469 5.808594 L 44.339844 5.808594 L 44.339844 9.554688 Z M 43.289062 9.554688 "/>
<path style=" stroke:none;fill-rule:nonzero;fill:rgb(0%,0%,0%);fill-opacity:1;" d="M 14.785156 33.457031 C 14.785156 32.136719 15.136719 31.105469 15.847656 30.355469 C 16.554688 29.609375 17.472656 29.238281 18.597656 29.234375 C 19.332031 29.238281 19.996094 29.410156 20.585938 29.761719 C 21.175781 30.113281 21.625 30.605469 21.9375 31.230469 C 22.242188 31.859375 22.398438 32.570312 22.402344 33.363281 C 22.398438 34.171875 22.234375 34.890625 21.914062 35.527344 C 21.582031 36.164062 21.121094 36.648438 20.527344 36.972656 C 19.925781 37.300781 19.28125 37.460938 18.59375 37.464844 C 17.839844 37.460938 17.167969 37.28125 16.582031 36.921875 C 15.992188 36.558594 15.542969 36.066406 15.242188 35.441406 C 14.9375 34.816406 14.785156 34.15625 14.785156 33.457031 Z M 15.871094 33.472656 C 15.867188 34.429688 16.125 35.1875 16.644531 35.734375 C 17.160156 36.289062 17.804688 36.5625 18.585938 36.5625 C 19.378906 36.5625 20.03125 36.285156 20.546875 35.726562 C 21.058594 35.175781 21.3125 34.382812 21.316406 33.359375 C 21.3125 32.710938 21.203125 32.148438 20.984375 31.664062 C 20.765625 31.183594 20.445312 30.808594 20.023438 30.539062 C 19.601562 30.277344 19.125 30.144531 18.605469 30.140625 C 17.855469 30.144531 17.210938 30.398438 16.675781 30.910156 C 16.136719 31.421875 15.867188 32.277344 15.871094 33.472656 Z M 15.871094 33.472656 "/>
<path style=" stroke:none;fill-rule:nonzero;fill:rgb(0%,0%,0%);fill-opacity:1;" d="M 12.484375 37.828125 L 12.484375 36.558594 L 10.183594 36.558594 L 10.183594 35.960938 L 12.605469 32.523438 L 13.136719 32.523438 L 13.136719 35.960938 L 13.855469 35.960938 L 13.855469 36.558594 L 13.136719 36.558594 L 13.136719 37.828125 Z M 12.484375 35.960938 L 12.484375 33.570312 L 10.824219 35.960938 Z M 12.484375 35.960938 "/>
<path style=" stroke:none;fill-rule:nonzero;fill:rgb(0%,0%,0%);fill-opacity:1;" d="M 1.558594 13.277344 L 1.558594 5.324219 L 2.613281 5.324219 L 2.613281 8.589844 L 6.753906 8.589844 L 6.753906 5.324219 L 7.808594 5.324219 L 7.808594 13.277344 L 6.753906 13.277344 L 6.753906 9.527344 L 2.613281 9.527344 L 2.613281 13.277344 Z M 1.558594 13.277344 "/>
<path style=" stroke:none;fill-rule:nonzero;fill:rgb(0%,0%,0%);fill-opacity:1;" d="M 72.25 28.328125 L 71.601562 28.382812 C 71.539062 28.125 71.460938 27.9375 71.351562 27.824219 C 71.175781 27.640625 70.960938 27.550781 70.703125 27.546875 C 70.496094 27.550781 70.3125 27.605469 70.15625 27.71875 C 69.949219 27.867188 69.785156 28.089844 69.667969 28.375 C 69.550781 28.664062 69.488281 29.070312 69.484375 29.597656 C 69.640625 29.359375 69.832031 29.183594 70.058594 29.066406 C 70.285156 28.953125 70.523438 28.898438 70.773438 28.894531 C 71.210938 28.898438 71.578125 29.058594 71.882812 29.375 C 72.1875 29.695312 72.339844 30.105469 72.34375 30.609375 C 72.339844 30.945312 72.269531 31.257812 72.128906 31.539062 C 71.984375 31.824219 71.785156 32.042969 71.535156 32.195312 C 71.28125 32.347656 70.996094 32.421875 70.679688 32.421875 C 70.132812 32.421875 69.691406 32.222656 69.351562 31.824219 C 69.007812 31.425781 68.835938 30.769531 68.835938 29.851562 C 68.835938 28.828125 69.023438 28.085938 69.40625 27.617188 C 69.738281 27.214844 70.183594 27.011719 70.742188 27.007812 C 71.160156 27.011719 71.503906 27.128906 71.769531 27.363281 C 72.035156 27.59375 72.195312 27.917969 72.25 28.328125 Z M 69.585938 30.617188 C 69.585938 30.839844 69.632812 31.054688 69.730469 31.257812 C 69.820312 31.464844 69.953125 31.621094 70.128906 31.726562 C 70.296875 31.835938 70.480469 31.890625 70.667969 31.886719 C 70.941406 31.890625 71.179688 31.78125 71.378906 31.558594 C 71.574219 31.335938 71.675781 31.035156 71.675781 30.652344 C 71.675781 30.289062 71.574219 29.996094 71.382812 29.785156 C 71.183594 29.574219 70.941406 29.46875 70.644531 29.46875 C 70.347656 29.46875 70.097656 29.574219 69.894531 29.785156 C 69.6875 29.996094 69.585938 30.273438 69.585938 30.617188 Z M 69.585938 30.617188 "/>
<path style=" stroke:none;fill-rule:nonzero;fill:rgb(0%,0%,0%);fill-opacity:1;" d="M 71.105469 9.554688 L 71.105469 1.605469 L 72.160156 1.605469 L 72.160156 4.871094 L 76.300781 4.871094 L 76.300781 1.605469 L 77.355469 1.605469 L 77.355469 9.554688 L 76.300781 9.554688 L 76.300781 5.808594 L 72.160156 5.808594 L 72.160156 9.554688 Z M 71.105469 9.554688 "/>
<path style=" stroke:none;fill-rule:nonzero;fill:rgb(0%,0%,0%);fill-opacity:1;" d="M 98.238281 33.457031 C 98.238281 32.136719 98.59375 31.105469 99.304688 30.355469 C 100.011719 29.609375 100.929688 29.238281 102.054688 29.234375 C 102.789062 29.238281 103.449219 29.410156 104.042969 29.761719 C 104.632812 30.113281 105.082031 30.605469 105.394531 31.230469 C 105.699219 31.859375 105.855469 32.570312 105.859375 33.363281 C 105.855469 34.171875 105.691406 34.890625 105.367188 35.527344 C 105.039062 36.164062 104.578125 36.648438 103.984375 36.972656 C 103.382812 37.300781 102.738281 37.460938 102.050781 37.464844 C 101.296875 37.460938 100.625 37.28125 100.039062 36.921875 C 99.445312 36.558594 99 36.066406 98.695312 35.441406 C 98.390625 34.816406 98.238281 34.15625 98.238281 33.457031 Z M 99.328125 33.472656 C 99.324219 34.429688 99.582031 35.1875 100.101562 35.734375 C 100.613281 36.289062 101.261719 36.5625 102.042969 36.5625 C 102.835938 36.5625 103.488281 36.285156 104.003906 35.726562 C 104.511719 35.175781 104.769531 34.382812 104.769531 33.359375 C 104.769531 32.710938 104.660156 32.148438 104.441406 31.664062 C 104.222656 31.183594 103.902344 30.808594 103.480469 30.539062 C 103.058594 30.277344 102.582031 30.144531 102.058594 30.140625 C 101.308594 30.144531 100.667969 30.398438 100.132812 30.910156 C 99.59375 31.421875 99.324219 32.277344 99.328125 33.472656 Z M 99.328125 33.472656 "/>
<path style=" stroke:none;fill-rule:nonzero;fill:rgb(0%,0%,0%);fill-opacity:1;" d="M 94.824219 34.972656 C 94.550781 34.875 94.351562 34.734375 94.21875 34.550781 C 94.089844 34.367188 94.023438 34.148438 94.023438 33.890625 C 94.023438 33.507812 94.164062 33.1875 94.441406 32.921875 C 94.714844 32.660156 95.085938 32.527344 95.550781 32.523438 C 96.011719 32.527344 96.382812 32.664062 96.671875 32.929688 C 96.949219 33.199219 97.089844 33.527344 97.09375 33.910156 C 97.089844 34.15625 97.027344 34.371094 96.898438 34.554688 C 96.769531 34.734375 96.570312 34.875 96.3125 34.972656 C 96.632812 35.082031 96.882812 35.253906 97.054688 35.488281 C 97.222656 35.726562 97.308594 36.007812 97.3125 36.332031 C 97.308594 36.789062 97.148438 37.171875 96.828125 37.476562 C 96.507812 37.785156 96.082031 37.9375 95.5625 37.9375 C 95.035156 37.9375 94.613281 37.78125 94.292969 37.472656 C 93.972656 37.164062 93.8125 36.78125 93.8125 36.316406 C 93.8125 35.972656 93.898438 35.683594 94.074219 35.449219 C 94.246094 35.21875 94.496094 35.0625 94.824219 34.972656 Z M 94.691406 33.871094 C 94.691406 34.121094 94.769531 34.328125 94.933594 34.484375 C 95.089844 34.644531 95.304688 34.722656 95.5625 34.722656 C 95.8125 34.722656 96.019531 34.644531 96.179688 34.488281 C 96.339844 34.332031 96.421875 34.136719 96.421875 33.90625 C 96.421875 33.671875 96.335938 33.472656 96.171875 33.304688 C 96.003906 33.144531 95.800781 33.066406 95.554688 33.0625 C 95.304688 33.066406 95.101562 33.144531 94.9375 33.300781 C 94.773438 33.460938 94.691406 33.652344 94.691406 33.871094 Z M 94.480469 36.320312 C 94.480469 36.507812 94.523438 36.6875 94.613281 36.859375 C 94.699219 37.035156 94.832031 37.167969 95.007812 37.261719 C 95.179688 37.359375 95.367188 37.40625 95.566406 37.402344 C 95.875 37.40625 96.136719 37.304688 96.339844 37.105469 C 96.539062 36.90625 96.640625 36.652344 96.644531 36.339844 C 96.640625 36.027344 96.535156 35.769531 96.332031 35.566406 C 96.121094 35.363281 95.859375 35.257812 95.546875 35.253906 C 95.234375 35.257812 94.984375 35.359375 94.78125 35.558594 C 94.582031 35.761719 94.480469 36.015625 94.480469 36.320312 Z M 94.480469 36.320312 "/>
<path style=" stroke:none;fill-rule:nonzero;fill:rgb(0%,0%,0%);fill-opacity:1;" d="M 112.835938 61.371094 L 112.835938 53.421875 L 113.886719 53.421875 L 113.886719 56.6875 L 118.027344 56.6875 L 118.027344 53.421875 L 119.082031 53.421875 L 119.082031 61.371094 L 118.027344 61.371094 L 118.027344 57.625 L 113.886719 57.625 L 113.886719 61.371094 Z M 112.835938 61.371094 "/>
<path style=" stroke:none;fill-rule:nonzero;fill:rgb(0%,0%,0%);fill-opacity:1;" d="M 70.503906 65.09375 L 73.5625 57.140625 L 74.699219 57.140625 L 77.957031 65.09375 L 76.757812 65.09375 L 75.828125 62.683594 L 72.496094 62.683594 L 71.621094 65.09375 Z M 72.800781 61.828125 L 75.5 61.828125 L 74.671875 59.625 C 74.414062 58.960938 74.226562 58.410156 74.105469 57.976562 C 74.003906 58.492188 73.859375 58.996094 73.675781 59.496094 Z M 72.800781 61.828125 "/>
<path style=" stroke:none;fill-rule:nonzero;fill:rgb(0%,0%,0%);fill-opacity:1;" d="M 64.4375 65.644531 L 63.789062 65.644531 L 63.789062 61.496094 C 63.628906 61.648438 63.421875 61.796875 63.171875 61.945312 C 62.914062 62.097656 62.683594 62.207031 62.484375 62.28125 L 62.484375 61.652344 C 62.847656 61.484375 63.164062 61.273438 63.441406 61.03125 C 63.710938 60.789062 63.902344 60.550781 64.019531 60.320312 L 64.4375 60.320312 Z M 64.4375 65.644531 "/>
<path style=" stroke:none;fill-rule:nonzero;fill:rgb(0%,0%,0%);fill-opacity:1;" d="M 66.109375 63.03125 C 66.105469 62.402344 66.171875 61.898438 66.300781 61.515625 C 66.429688 61.136719 66.621094 60.839844 66.878906 60.632812 C 67.132812 60.425781 67.453125 60.324219 67.84375 60.320312 C 68.125 60.324219 68.375 60.378906 68.589844 60.496094 C 68.804688 60.609375 68.980469 60.773438 69.121094 60.992188 C 69.261719 61.207031 69.371094 61.46875 69.453125 61.777344 C 69.53125 62.089844 69.570312 62.507812 69.574219 63.03125 C 69.570312 63.652344 69.507812 64.15625 69.378906 64.539062 C 69.253906 64.921875 69.058594 65.214844 68.808594 65.421875 C 68.546875 65.628906 68.226562 65.734375 67.84375 65.734375 C 67.328125 65.734375 66.925781 65.550781 66.636719 65.1875 C 66.28125 64.746094 66.105469 64.027344 66.109375 63.03125 Z M 66.78125 63.03125 C 66.78125 63.898438 66.878906 64.480469 67.085938 64.769531 C 67.289062 65.058594 67.539062 65.203125 67.84375 65.199219 C 68.136719 65.203125 68.386719 65.054688 68.59375 64.765625 C 68.796875 64.476562 68.898438 63.898438 68.902344 63.03125 C 68.898438 62.160156 68.796875 61.578125 68.59375 61.292969 C 68.386719 61.003906 68.136719 60.859375 67.835938 60.859375 C 67.53125 60.859375 67.292969 60.988281 67.117188 61.238281 C 66.890625 61.566406 66.78125 62.160156 66.78125 63.03125 Z M 66.78125 63.03125 "/>
<path style="fill:none;stroke-width:0.0333333;stroke-linecap:butt;stroke-linejoin:miter;stroke:rgb(0%,0%,0%);stroke-opacity:1;stroke-miterlimit:10;" d="M 1.499997 1.746902 L 1.499997 0.999936 " transform="matrix(27.818697,0,0,27.768595,4.682183,5.580836)"/>
<path style="fill:none;stroke-width:0.0333333;stroke-linecap:butt;stroke-linejoin:miter;stroke:rgb(0%,0%,0%);stroke-opacity:1;stroke-miterlimit:10;" d="M 1.499997 0.999936 L 1.499997 0.253111 " transform="matrix(27.818697,0,0,27.768595,4.682183,5.580836)"/>
<path style="fill:none;stroke-width:0.0333333;stroke-linecap:butt;stroke-linejoin:miter;stroke:rgb(0%,0%,0%);stroke-opacity:1;stroke-miterlimit:10;" d="M 1.499997 0.999936 L 0.746935 0.999936 " transform="matrix(27.818697,0,0,27.768595,4.682183,5.580836)"/>
<path style="fill:none;stroke-width:0.0333333;stroke-linecap:butt;stroke-linejoin:miter;stroke:rgb(0%,0%,0%);stroke-opacity:1;stroke-miterlimit:10;" d="M 0.338739 0.720562 L 0.152966 0.398987 " transform="matrix(27.818697,0,0,27.768595,4.682183,5.580836)"/>
<path style="fill:none;stroke-width:0.0333333;stroke-linecap:butt;stroke-linejoin:miter;stroke:rgb(0%,0%,0%);stroke-opacity:1;stroke-miterlimit:10;" d="M 1.499997 0.999936 L 2.500055 0.999936 " transform="matrix(27.818697,0,0,27.768595,4.682183,5.580836)"/>
<path style="fill:none;stroke-width:0.0333333;stroke-linecap:butt;stroke-linejoin:miter;stroke:rgb(0%,0%,0%);stroke-opacity:1;stroke-miterlimit:10;" d="M 2.500055 0.999936 L 2.500055 0.253111 " transform="matrix(27.818697,0,0,27.768595,4.682183,5.580836)"/>
<path style="fill:none;stroke-width:0.0333333;stroke-linecap:butt;stroke-linejoin:miter;stroke:rgb(0%,0%,0%);stroke-opacity:1;stroke-miterlimit:10;" d="M 2.500055 0.999936 L 3.094024 0.999936 " transform="matrix(27.818697,0,0,27.768595,4.682183,5.580836)"/>
<path style="fill:none;stroke-width:0.0333333;stroke-linecap:butt;stroke-linejoin:miter;stroke:rgb(0%,0%,0%);stroke-opacity:1;stroke-miterlimit:10;" d="M 3.661314 1.27945 L 3.847087 1.601025 " transform="matrix(27.818697,0,0,27.768595,4.682183,5.580836)"/>
<path style="fill:none;stroke-width:0.0333333;stroke-linecap:butt;stroke-linejoin:miter;stroke:rgb(0%,0%,0%);stroke-opacity:1;stroke-miterlimit:10;" d="M 2.500055 0.999936 L 2.500055 1.746902 " transform="matrix(27.818697,0,0,27.768595,4.682183,5.580836)"/>
<path style=" stroke:none;fill-rule:nonzero;fill:rgb(0%,0%,0%);fill-opacity:1;" d="M 130.210938 34.539062 L 164.984375 34.539062 L 164.984375 37.140625 L 171.9375 33.667969 L 164.984375 30.199219 L 164.984375 32.800781 L 130.210938 32.800781 "/>
<path style=" stroke:none;fill-rule:nonzero;fill:rgb(0%,0%,0%);fill-opacity:1;" d="M 187.746094 61.457031 L 190.804688 53.507812 L 191.941406 53.507812 L 195.199219 61.457031 L 194 61.457031 L 193.070312 59.050781 L 189.742188 59.050781 L 188.867188 61.457031 Z M 190.042969 58.191406 L 192.746094 58.191406 L 191.914062 55.988281 C 191.660156 55.324219 191.472656 54.773438 191.347656 54.339844 C 191.246094 54.855469 191.101562 55.359375 190.917969 55.859375 Z M 190.042969 58.191406 "/>
<path style=" stroke:none;fill-rule:nonzero;fill:rgb(0%,0%,0%);fill-opacity:1;" d="M 186.816406 62.007812 L 186.164062 62.007812 L 186.164062 57.859375 C 186.003906 58.011719 185.796875 58.164062 185.546875 58.308594 C 185.289062 58.460938 185.058594 58.570312 184.859375 58.644531 L 184.859375 58.015625 C 185.222656 57.847656 185.539062 57.640625 185.816406 57.394531 C 186.085938 57.152344 186.28125 56.914062 186.394531 56.683594 L 186.816406 56.683594 Z M 186.816406 62.007812 "/>
<path style=" stroke:none;fill-rule:nonzero;fill:rgb(0%,0%,0%);fill-opacity:1;" d="M 209.523438 39.582031 L 209.523438 40.207031 L 206.011719 40.207031 C 206.003906 40.050781 206.03125 39.902344 206.089844 39.753906 C 206.175781 39.519531 206.316406 39.28125 206.515625 39.050781 C 206.710938 38.820312 206.996094 38.550781 207.371094 38.246094 C 207.945312 37.773438 208.332031 37.402344 208.539062 37.125 C 208.742188 36.851562 208.84375 36.589844 208.84375 36.34375 C 208.84375 36.085938 208.75 35.867188 208.566406 35.691406 C 208.382812 35.511719 208.140625 35.425781 207.84375 35.425781 C 207.527344 35.425781 207.277344 35.519531 207.089844 35.707031 C 206.902344 35.894531 206.804688 36.15625 206.804688 36.488281 L 206.136719 36.417969 C 206.179688 35.921875 206.351562 35.539062 206.652344 35.277344 C 206.949219 35.015625 207.351562 34.886719 207.859375 34.882812 C 208.367188 34.886719 208.769531 35.027344 209.070312 35.308594 C 209.363281 35.59375 209.511719 35.941406 209.515625 36.355469 C 209.511719 36.570312 209.46875 36.78125 209.382812 36.984375 C 209.296875 37.1875 209.152344 37.40625 208.949219 37.632812 C 208.75 37.859375 208.414062 38.167969 207.949219 38.5625 C 207.554688 38.890625 207.304688 39.113281 207.191406 39.230469 C 207.082031 39.347656 206.988281 39.464844 206.917969 39.582031 Z M 209.523438 39.582031 "/>
<path style=" stroke:none;fill-rule:nonzero;fill:rgb(0%,0%,0%);fill-opacity:1;" d="M 187.664062 9.492188 C 187.664062 8.171875 188.019531 7.140625 188.730469 6.390625 C 189.4375 5.644531 190.355469 5.273438 191.480469 5.273438 C 192.210938 5.273438 192.875 5.449219 193.46875 5.796875 C 194.058594 6.148438 194.503906 6.640625 194.816406 7.265625 C 195.125 7.894531 195.28125 8.605469 195.28125 9.398438 C 195.28125 10.207031 195.117188 10.929688 194.792969 11.5625 C 194.464844 12.199219 194.003906 12.683594 193.40625 13.007812 C 192.808594 13.335938 192.164062 13.496094 191.472656 13.5 C 190.722656 13.496094 190.050781 13.316406 189.464844 12.957031 C 188.871094 12.597656 188.425781 12.101562 188.121094 11.476562 C 187.816406 10.851562 187.664062 10.191406 187.664062 9.492188 Z M 188.75 9.507812 C 188.75 10.46875 189.007812 11.222656 189.527344 11.773438 C 190.039062 12.324219 190.6875 12.597656 191.46875 12.597656 C 192.257812 12.597656 192.914062 12.324219 193.425781 11.765625 C 193.9375 11.210938 194.191406 10.417969 194.195312 9.394531 C 194.191406 8.75 194.085938 8.183594 193.867188 7.699219 C 193.648438 7.21875 193.328125 6.84375 192.90625 6.574219 C 192.480469 6.3125 192.007812 6.179688 191.484375 6.175781 C 190.734375 6.179688 190.09375 6.433594 189.558594 6.945312 C 189.019531 7.457031 188.75 8.3125 188.75 9.507812 Z M 188.75 9.507812 "/>
<path style=" stroke:none;fill-rule:nonzero;fill:rgb(0%,0%,0%);fill-opacity:1;" d="M 185.367188 13.859375 L 185.367188 12.589844 L 183.0625 12.589844 L 183.0625 11.996094 L 185.484375 8.558594 L 186.019531 8.558594 L 186.019531 11.996094 L 186.734375 11.996094 L 186.734375 12.589844 L 186.019531 12.589844 L 186.019531 13.859375 Z M 185.367188 11.996094 L 185.367188 9.605469 L 183.703125 11.996094 Z M 185.367188 11.996094 "/>
<path style=" stroke:none;fill-rule:nonzero;fill:rgb(0%,0%,0%);fill-opacity:1;" d="M 232.46875 27.914062 L 231.820312 27.964844 C 231.757812 27.707031 231.675781 27.523438 231.570312 27.40625 C 231.394531 27.222656 231.175781 27.132812 230.917969 27.128906 C 230.714844 27.132812 230.53125 27.1875 230.375 27.300781 C 230.167969 27.453125 230.003906 27.671875 229.886719 27.957031 C 229.769531 28.246094 229.707031 28.652344 229.703125 29.179688 C 229.855469 28.941406 230.050781 28.765625 230.277344 28.648438 C 230.503906 28.535156 230.742188 28.480469 230.992188 28.476562 C 231.425781 28.480469 231.796875 28.640625 232.101562 28.957031 C 232.40625 29.277344 232.558594 29.6875 232.558594 30.191406 C 232.558594 30.527344 232.488281 30.839844 232.347656 31.121094 C 232.203125 31.40625 232.003906 31.625 231.753906 31.777344 C 231.5 31.929688 231.214844 32.003906 230.898438 32.003906 C 230.351562 32.003906 229.910156 31.804688 229.570312 31.40625 C 229.222656 31.007812 229.054688 30.351562 229.054688 29.433594 C 229.054688 28.410156 229.242188 27.667969 229.625 27.199219 C 229.957031 26.796875 230.402344 26.59375 230.960938 26.589844 C 231.378906 26.59375 231.722656 26.710938 231.988281 26.945312 C 232.253906 27.175781 232.414062 27.5 232.46875 27.914062 Z M 229.804688 30.199219 C 229.804688 30.421875 229.847656 30.636719 229.945312 30.839844 C 230.039062 31.046875 230.171875 31.203125 230.347656 31.308594 C 230.515625 31.417969 230.695312 31.472656 230.886719 31.46875 C 231.160156 31.472656 231.398438 31.363281 231.597656 31.140625 C 231.792969 30.917969 231.890625 30.617188 231.894531 30.234375 C 231.890625 29.871094 231.792969 29.578125 231.601562 29.367188 C 231.402344 29.15625 231.160156 29.050781 230.863281 29.050781 C 230.566406 29.050781 230.316406 29.15625 230.113281 29.367188 C 229.90625 29.578125 229.804688 29.855469 229.804688 30.199219 Z M 229.804688 30.199219 "/>
<path style=" stroke:none;fill-rule:nonzero;fill:rgb(0%,0%,0%);fill-opacity:1;" d="M 243.300781 57.585938 C 243.300781 56.269531 243.65625 55.234375 244.367188 54.488281 C 245.074219 53.742188 245.992188 53.371094 247.117188 53.367188 C 247.851562 53.371094 248.511719 53.542969 249.105469 53.894531 C 249.695312 54.246094 250.144531 54.738281 250.457031 55.359375 C 250.761719 55.988281 250.917969 56.699219 250.917969 57.496094 C 250.917969 58.304688 250.753906 59.023438 250.429688 59.660156 C 250.101562 60.296875 249.640625 60.777344 249.046875 61.105469 C 248.445312 61.433594 247.800781 61.59375 247.109375 61.59375 C 246.359375 61.59375 245.6875 61.414062 245.101562 61.054688 C 244.507812 60.691406 244.0625 60.199219 243.757812 59.574219 C 243.453125 58.949219 243.300781 58.285156 243.300781 57.585938 Z M 244.390625 57.605469 C 244.386719 58.5625 244.644531 59.320312 245.164062 59.867188 C 245.675781 60.421875 246.324219 60.695312 247.105469 60.695312 C 247.894531 60.695312 248.550781 60.417969 249.0625 59.859375 C 249.574219 59.304688 249.832031 58.515625 249.832031 57.488281 C 249.832031 56.84375 249.722656 56.28125 249.503906 55.792969 C 249.285156 55.316406 248.964844 54.941406 248.542969 54.671875 C 248.117188 54.410156 247.644531 54.277344 247.121094 54.273438 C 246.371094 54.277344 245.730469 54.53125 245.195312 55.039062 C 244.65625 55.554688 244.386719 56.40625 244.390625 57.605469 Z M 244.390625 57.605469 "/>
<path style=" stroke:none;fill-rule:nonzero;fill:rgb(0%,0%,0%);fill-opacity:1;" d="M 239.882812 59.105469 C 239.613281 59.007812 239.410156 58.867188 239.28125 58.683594 C 239.152344 58.5 239.085938 58.28125 239.085938 58.023438 C 239.085938 57.640625 239.222656 57.320312 239.5 57.054688 C 239.777344 56.792969 240.148438 56.660156 240.613281 56.65625 C 241.074219 56.660156 241.445312 56.796875 241.730469 57.0625 C 242.011719 57.332031 242.152344 57.65625 242.15625 58.042969 C 242.152344 58.289062 242.085938 58.503906 241.960938 58.6875 C 241.828125 58.867188 241.632812 59.007812 241.375 59.105469 C 241.695312 59.214844 241.945312 59.386719 242.117188 59.621094 C 242.285156 59.855469 242.371094 60.140625 242.375 60.464844 C 242.371094 60.921875 242.210938 61.300781 241.890625 61.609375 C 241.570312 61.917969 241.144531 62.070312 240.625 62.070312 C 240.097656 62.070312 239.675781 61.914062 239.355469 61.605469 C 239.035156 61.296875 238.875 60.910156 238.875 60.449219 C 238.875 60.105469 238.960938 59.816406 239.136719 59.582031 C 239.308594 59.351562 239.558594 59.191406 239.882812 59.105469 Z M 239.753906 58.003906 C 239.753906 58.253906 239.832031 58.460938 239.996094 58.617188 C 240.152344 58.777344 240.367188 58.855469 240.625 58.855469 C 240.875 58.855469 241.078125 58.777344 241.242188 58.621094 C 241.402344 58.464844 241.480469 58.269531 241.484375 58.039062 C 241.480469 57.804688 241.398438 57.605469 241.234375 57.4375 C 241.066406 57.277344 240.863281 57.195312 240.617188 57.195312 C 240.367188 57.195312 240.160156 57.277344 240 57.433594 C 239.835938 57.59375 239.753906 57.78125 239.753906 58.003906 Z M 239.542969 60.449219 C 239.542969 60.636719 239.585938 60.820312 239.675781 60.992188 C 239.761719 61.167969 239.894531 61.300781 240.070312 61.394531 C 240.242188 61.488281 240.429688 61.539062 240.628906 61.535156 C 240.9375 61.539062 241.195312 61.4375 241.402344 61.238281 C 241.601562 61.039062 241.703125 60.785156 241.703125 60.472656 C 241.703125 60.160156 241.597656 59.902344 241.390625 59.695312 C 241.183594 59.492188 240.917969 59.390625 240.605469 59.386719 C 240.296875 59.390625 240.046875 59.492188 239.84375 59.691406 C 239.644531 59.894531 239.542969 60.148438 239.542969 60.449219 Z M 239.542969 60.449219 "/>
<path style=" stroke:none;fill-rule:nonzero;fill:rgb(0%,0%,0%);fill-opacity:1;" d="M 243.382812 13.359375 L 246.441406 5.410156 L 247.578125 5.410156 L 250.839844 13.359375 L 249.636719 13.359375 L 248.707031 10.953125 L 245.378906 10.953125 L 244.503906 13.359375 Z M 245.683594 10.097656 L 248.382812 10.097656 L 247.550781 7.894531 C 247.296875 7.226562 247.109375 6.679688 246.984375 6.246094 C 246.882812 6.757812 246.738281 7.261719 246.558594 7.765625 Z M 245.683594 10.097656 "/>
<path style=" stroke:none;fill-rule:nonzero;fill:rgb(0%,0%,0%);fill-opacity:1;" d="M 237.320312 13.910156 L 236.667969 13.910156 L 236.667969 9.765625 C 236.511719 9.917969 236.304688 10.066406 236.050781 10.210938 C 235.792969 10.363281 235.566406 10.476562 235.363281 10.546875 L 235.363281 9.917969 C 235.726562 9.75 236.046875 9.542969 236.320312 9.296875 C 236.59375 9.054688 236.785156 8.820312 236.902344 8.589844 L 237.320312 8.589844 Z M 237.320312 13.910156 "/>
<path style=" stroke:none;fill-rule:nonzero;fill:rgb(0%,0%,0%);fill-opacity:1;" d="M 238.988281 11.296875 C 238.988281 10.671875 239.050781 10.167969 239.183594 9.785156 C 239.308594 9.40625 239.503906 9.109375 239.757812 8.898438 C 240.015625 8.695312 240.335938 8.589844 240.722656 8.589844 C 241.003906 8.589844 241.253906 8.648438 241.46875 8.761719 C 241.683594 8.875 241.863281 9.042969 242.003906 9.257812 C 242.140625 9.476562 242.253906 9.738281 242.335938 10.042969 C 242.414062 10.355469 242.449219 10.773438 242.453125 11.296875 C 242.449219 11.921875 242.386719 12.421875 242.261719 12.804688 C 242.132812 13.1875 241.941406 13.484375 241.6875 13.6875 C 241.429688 13.898438 241.109375 14 240.722656 14 C 240.210938 14 239.808594 13.820312 239.515625 13.453125 C 239.164062 13.015625 238.988281 12.296875 238.988281 11.296875 Z M 239.660156 11.296875 C 239.660156 12.167969 239.761719 12.75 239.964844 13.035156 C 240.167969 13.324219 240.421875 13.46875 240.722656 13.464844 C 241.019531 13.46875 241.269531 13.324219 241.476562 13.03125 C 241.675781 12.746094 241.78125 12.167969 241.78125 11.296875 C 241.78125 10.425781 241.675781 9.847656 241.476562 9.558594 C 241.269531 9.273438 241.015625 9.128906 240.714844 9.128906 C 240.414062 9.128906 240.175781 9.253906 239.996094 9.507812 C 239.773438 9.832031 239.660156 10.429688 239.660156 11.296875 Z M 239.660156 11.296875 "/>
<path style="fill:none;stroke-width:0.0333333;stroke-linecap:butt;stroke-linejoin:miter;stroke:rgb(0%,0%,0%);stroke-opacity:1;stroke-miterlimit:10;" d="M 0.158407 1.457732 L 0.504818 0.857628 " transform="matrix(27.818697,0,0,27.768595,191.472235,9.384104)"/>
<path style="fill:none;stroke-width:0.0333333;stroke-linecap:butt;stroke-linejoin:miter;stroke:rgb(0%,0%,0%);stroke-opacity:1;stroke-miterlimit:10;" d="M 0.596231 0.866068 L 0.23339 0.237688 " transform="matrix(27.818697,0,0,27.768595,191.472235,9.384104)"/>
<path style="fill:none;stroke-width:0.0333333;stroke-linecap:butt;stroke-linejoin:miter;stroke:rgb(0%,0%,0%);stroke-opacity:1;stroke-miterlimit:10;" d="M 0.451881 0.949345 L 0.0891807 0.321107 " transform="matrix(27.818697,0,0,27.768595,191.472235,9.384104)"/>
<path style="fill:none;stroke-width:0.0333333;stroke-linecap:butt;stroke-linejoin:miter;stroke:rgb(0%,0%,0%);stroke-opacity:1;stroke-miterlimit:10;" d="M 0.490355 0.866068 L 1.509651 0.866068 " transform="matrix(27.818697,0,0,27.768595,191.472235,9.384104)"/>
<path style="fill:none;stroke-width:0.0333333;stroke-linecap:butt;stroke-linejoin:miter;stroke:rgb(0%,0%,0%);stroke-opacity:1;stroke-miterlimit:10;" d="M 1.403775 0.866068 L 1.766616 1.494307 " transform="matrix(27.818697,0,0,27.768595,191.472235,9.384104)"/>
<path style="fill:none;stroke-width:0.0333333;stroke-linecap:butt;stroke-linejoin:miter;stroke:rgb(0%,0%,0%);stroke-opacity:1;stroke-miterlimit:10;" d="M 1.548125 0.78265 L 1.910825 1.411029 " transform="matrix(27.818697,0,0,27.768595,191.472235,9.384104)"/>
<path style="fill:none;stroke-width:0.0333333;stroke-linecap:butt;stroke-linejoin:miter;stroke:rgb(0%,0%,0%);stroke-opacity:1;stroke-miterlimit:10;" d="M 1.495188 0.874368 L 1.816745 0.317308 " transform="matrix(27.818697,0,0,27.768595,191.472235,9.384104)"/>
<path style="fill:none;stroke-width:0.0625;stroke-linecap:butt;stroke-linejoin:miter;stroke:rgb(0%,0%,0%);stroke-opacity:1;stroke-miterlimit:10;" d="M 0.0000357657 -0.0000523158 L 0.500065 -0.0000523158 M 0.24998 -0.250026 L 0.24998 0.250062 " transform="matrix(27.818697,0,0,27.768595,262.04588,33.669421)"/>
<path style=" stroke:none;fill-rule:nonzero;fill:rgb(0%,0%,0%);fill-opacity:1;" d="M 287.085938 37.644531 L 287.085938 29.695312 L 288.136719 29.695312 L 288.136719 32.957031 L 292.277344 32.957031 L 292.277344 29.695312 L 293.332031 29.695312 L 293.332031 37.644531 L 292.277344 37.644531 L 292.277344 33.898438 L 288.136719 33.898438 L 288.136719 37.644531 Z M 287.085938 37.644531 "/>
<path style=" stroke:none;fill-rule:nonzero;fill:rgb(0%,0%,0%);fill-opacity:1;" d="M 314.902344 37.644531 L 314.902344 29.695312 L 315.957031 29.695312 L 315.957031 32.957031 L 320.097656 32.957031 L 320.097656 29.695312 L 321.152344 29.695312 L 321.152344 37.644531 L 320.097656 37.644531 L 320.097656 33.898438 L 315.957031 33.898438 L 315.957031 37.644531 Z M 314.902344 37.644531 "/>
<path style="fill:none;stroke-width:0.0333333;stroke-linecap:butt;stroke-linejoin:miter;stroke:rgb(0%,0%,0%);stroke-opacity:1;stroke-miterlimit:10;" d="M 0.222288 -0.0000523408 L 0.777641 -0.0000523408 " transform="matrix(27.818697,0,0,27.768595,290.206876,33.669422)"/>
<path style="fill:none;stroke-width:0.0625;stroke-linecap:butt;stroke-linejoin:miter;stroke:rgb(0%,0%,0%);stroke-opacity:1;stroke-miterlimit:10;" d="M 0.00000439071 -0.0000523158 L 0.500033 -0.0000523158 M 0.250089 -0.250026 L 0.250089 0.250062 " transform="matrix(27.818697,0,0,27.768595,332.277222,33.669421)"/>
<path style=" stroke:none;fill-rule:nonzero;fill:rgb(0%,0%,0%);fill-opacity:1;" d="M 357.316406 37.644531 L 357.316406 29.695312 L 358.371094 29.695312 L 358.371094 32.957031 L 362.507812 32.957031 L 362.507812 29.695312 L 363.5625 29.695312 L 363.5625 37.644531 L 362.507812 37.644531 L 362.507812 33.898438 L 358.371094 33.898438 L 358.371094 37.644531 Z M 357.316406 37.644531 "/>
<path style=" stroke:none;fill-rule:nonzero;fill:rgb(0%,0%,0%);fill-opacity:1;" d="M 385.132812 37.644531 L 385.132812 29.695312 L 386.1875 29.695312 L 386.1875 32.957031 L 390.328125 32.957031 L 390.328125 29.695312 L 391.382812 29.695312 L 391.382812 37.644531 L 390.328125 37.644531 L 390.328125 33.898438 L 386.1875 33.898438 L 386.1875 37.644531 Z M 385.132812 37.644531 "/>
<path style="fill:none;stroke-width:0.0333333;stroke-linecap:butt;stroke-linejoin:miter;stroke:rgb(0%,0%,0%);stroke-opacity:1;stroke-miterlimit:10;" d="M 0.222256 -0.0000523408 L 0.77775 -0.0000523408 " transform="matrix(27.818697,0,0,27.768595,360.438218,33.669422)"/>
</g>
</svg>
