<?xml version="1.0" encoding="UTF-8"?>
<svg xmlns="http://www.w3.org/2000/svg" xmlns:xlink="http://www.w3.org/1999/xlink" width="115.2pt" height="129.6pt" viewBox="0 0 115.2 129.6" version="1.1">
<g id="surface617">
<path style=" stroke:none;fill-rule:nonzero;fill:rgb(0%,0%,0%);fill-opacity:1;" d="M 69.761719 79.761719 L 67.707031 76.503906 C 67.710938 76.589844 67.71875 76.675781 67.71875 76.761719 C 67.722656 76.835938 67.726562 76.914062 67.726562 77.003906 C 67.734375 77.082031 67.738281 77.152344 67.738281 77.21875 L 67.738281 79.761719 L 67.273438 79.761719 L 67.273438 75.9375 L 67.878906 75.9375 L 69.945312 79.21875 C 69.945312 79.21875 69.941406 79.128906 69.933594 78.945312 C 69.925781 78.875 69.917969 78.792969 69.914062 78.707031 C 69.914062 78.617188 69.914062 78.527344 69.914062 78.445312 L 69.914062 75.9375 L 70.378906 75.9375 L 70.378906 79.761719 Z M 69.761719 79.761719 "/>
<path style=" stroke:none;fill-rule:nonzero;fill:rgb(0%,0%,0%);fill-opacity:1;" d="M 52.609375 62.617188 L 50.554688 59.359375 C 50.558594 59.445312 50.566406 59.535156 50.566406 59.621094 C 50.570312 59.695312 50.574219 59.773438 50.574219 59.859375 C 50.582031 59.941406 50.585938 60.011719 50.585938 60.078125 L 50.585938 62.617188 L 50.121094 62.617188 L 50.121094 58.792969 L 50.726562 58.792969 L 52.792969 62.074219 C 52.792969 62.074219 52.789062 61.984375 52.78125 61.804688 C 52.773438 61.734375 52.765625 61.652344 52.761719 61.566406 C 52.761719 61.472656 52.761719 61.386719 52.761719 61.304688 L 52.761719 58.792969 L 53.226562 58.792969 L 53.226562 62.617188 Z M 52.609375 62.617188 "/>
<path style=" stroke:none;fill-rule:nonzero;fill:rgb(0%,0%,0%);fill-opacity:1;" d="M 51.78125 110.589844 C 51.566406 110.589844 51.371094 110.628906 51.207031 110.699219 C 51.039062 110.773438 50.898438 110.878906 50.78125 111.015625 C 50.675781 111.144531 50.589844 111.304688 50.53125 111.492188 C 50.472656 111.683594 50.445312 111.890625 50.445312 112.121094 C 50.445312 112.355469 50.472656 112.566406 50.53125 112.761719 C 50.597656 112.953125 50.6875 113.117188 50.804688 113.25 C 50.917969 113.390625 51.058594 113.5 51.226562 113.578125 C 51.402344 113.652344 51.59375 113.6875 51.804688 113.6875 C 51.957031 113.6875 52.089844 113.671875 52.207031 113.632812 C 52.328125 113.589844 52.441406 113.53125 52.542969 113.457031 C 52.644531 113.386719 52.730469 113.304688 52.804688 113.207031 C 52.882812 113.117188 52.949219 113.007812 53.011719 112.882812 L 53.433594 113.101562 C 53.371094 113.246094 53.285156 113.378906 53.183594 113.5 C 53.082031 113.625 52.960938 113.734375 52.824219 113.828125 C 52.6875 113.914062 52.53125 113.984375 52.359375 114.035156 C 52.183594 114.082031 51.992188 114.109375 51.78125 114.109375 C 51.46875 114.109375 51.199219 114.0625 50.96875 113.96875 C 50.734375 113.867188 50.539062 113.730469 50.378906 113.554688 C 50.226562 113.375 50.113281 113.164062 50.03125 112.925781 C 49.949219 112.679688 49.914062 112.414062 49.914062 112.121094 C 49.914062 111.824219 49.949219 111.558594 50.03125 111.316406 C 50.121094 111.074219 50.242188 110.867188 50.402344 110.699219 C 50.558594 110.53125 50.753906 110.402344 50.988281 110.308594 C 51.21875 110.214844 51.484375 110.167969 51.78125 110.167969 C 52.1875 110.167969 52.523438 110.246094 52.792969 110.40625 C 53.066406 110.566406 53.273438 110.804688 53.402344 111.121094 L 52.914062 111.285156 C 52.875 111.191406 52.824219 111.105469 52.761719 111.023438 C 52.699219 110.9375 52.625 110.867188 52.53125 110.808594 C 52.4375 110.742188 52.328125 110.691406 52.207031 110.65625 C 52.082031 110.613281 51.941406 110.589844 51.78125 110.589844 Z M 51.78125 110.589844 "/>
<path style=" stroke:none;fill-rule:nonzero;fill:rgb(0%,0%,0%);fill-opacity:1;" d="M 17.476562 76.300781 C 17.257812 76.300781 17.066406 76.339844 16.898438 76.410156 C 16.730469 76.484375 16.589844 76.589844 16.476562 76.726562 C 16.367188 76.855469 16.28125 77.015625 16.226562 77.203125 C 16.164062 77.394531 16.136719 77.601562 16.136719 77.832031 C 16.136719 78.066406 16.164062 78.277344 16.226562 78.472656 C 16.289062 78.664062 16.378906 78.828125 16.496094 78.964844 C 16.613281 79.101562 16.753906 79.210938 16.921875 79.289062 C 17.09375 79.363281 17.285156 79.398438 17.496094 79.398438 C 17.648438 79.398438 17.78125 79.382812 17.898438 79.34375 C 18.023438 79.300781 18.132812 79.242188 18.238281 79.167969 C 18.335938 79.097656 18.425781 79.015625 18.496094 78.917969 C 18.574219 78.828125 18.644531 78.71875 18.703125 78.59375 L 19.128906 78.8125 C 19.0625 78.957031 18.976562 79.089844 18.878906 79.214844 C 18.773438 79.335938 18.65625 79.445312 18.519531 79.539062 C 18.378906 79.625 18.226562 79.695312 18.050781 79.746094 C 17.878906 79.792969 17.683594 79.820312 17.476562 79.820312 C 17.164062 79.820312 16.890625 79.773438 16.660156 79.679688 C 16.425781 79.578125 16.230469 79.441406 16.074219 79.265625 C 15.921875 79.089844 15.804688 78.875 15.726562 78.636719 C 15.644531 78.394531 15.605469 78.125 15.605469 77.832031 C 15.605469 77.539062 15.644531 77.269531 15.726562 77.03125 C 15.8125 76.785156 15.933594 76.578125 16.09375 76.410156 C 16.253906 76.246094 16.449219 76.113281 16.683594 76.019531 C 16.914062 75.925781 17.175781 75.878906 17.476562 75.878906 C 17.878906 75.878906 18.21875 75.960938 18.488281 76.117188 C 18.761719 76.277344 18.964844 76.515625 19.09375 76.832031 L 18.605469 76.996094 C 18.566406 76.90625 18.519531 76.816406 18.453125 76.734375 C 18.394531 76.648438 18.316406 76.578125 18.226562 76.519531 C 18.128906 76.453125 18.023438 76.40625 17.898438 76.367188 C 17.773438 76.324219 17.632812 76.300781 17.476562 76.300781 Z M 17.476562 76.300781 "/>
<path style=" stroke:none;fill-rule:nonzero;fill:rgb(0%,0%,0%);fill-opacity:1;" d="M 24.292969 107.101562 C 24.292969 107.402344 24.25 107.671875 24.164062 107.917969 C 24.074219 108.164062 23.949219 108.375 23.78125 108.546875 C 23.621094 108.722656 23.425781 108.855469 23.183594 108.949219 C 22.949219 109.042969 22.6875 109.089844 22.390625 109.089844 C 22.070312 109.089844 21.792969 109.042969 21.554688 108.949219 C 21.320312 108.847656 21.125 108.710938 20.96875 108.535156 C 20.808594 108.359375 20.6875 108.144531 20.609375 107.90625 C 20.527344 107.664062 20.488281 107.394531 20.488281 107.101562 C 20.488281 106.808594 20.527344 106.539062 20.609375 106.300781 C 20.695312 106.054688 20.816406 105.847656 20.976562 105.679688 C 21.144531 105.515625 21.34375 105.382812 21.574219 105.289062 C 21.816406 105.195312 22.085938 105.148438 22.390625 105.148438 C 22.695312 105.148438 22.96875 105.195312 23.207031 105.289062 C 23.445312 105.382812 23.644531 105.515625 23.804688 105.691406 C 23.960938 105.859375 24.082031 106.058594 24.164062 106.300781 C 24.25 106.539062 24.292969 106.808594 24.292969 107.101562 Z M 23.761719 107.101562 C 23.761719 106.871094 23.730469 106.664062 23.675781 106.472656 C 23.613281 106.285156 23.527344 106.125 23.414062 105.996094 C 23.296875 105.859375 23.152344 105.753906 22.976562 105.679688 C 22.808594 105.609375 22.613281 105.570312 22.390625 105.570312 C 22.164062 105.570312 21.96875 105.609375 21.792969 105.679688 C 21.621094 105.753906 21.472656 105.859375 21.359375 105.996094 C 21.25 106.125 21.164062 106.285156 21.109375 106.472656 C 21.050781 106.664062 21.023438 106.871094 21.023438 107.101562 C 21.023438 107.335938 21.050781 107.546875 21.109375 107.742188 C 21.164062 107.933594 21.253906 108.097656 21.371094 108.234375 C 21.484375 108.371094 21.625 108.480469 21.792969 108.558594 C 21.96875 108.632812 22.164062 108.667969 22.390625 108.667969 C 22.628906 108.667969 22.835938 108.632812 23.011719 108.558594 C 23.183594 108.480469 23.324219 108.371094 23.433594 108.234375 C 23.542969 108.089844 23.621094 107.921875 23.675781 107.734375 C 23.730469 107.539062 23.761719 107.328125 23.761719 107.101562 Z M 23.761719 107.101562 "/>
<path style=" stroke:none;fill-rule:nonzero;fill:rgb(0%,0%,0%);fill-opacity:1;" d="M 92.21875 46.316406 L 90.164062 43.054688 C 90.167969 43.144531 90.175781 43.230469 90.175781 43.316406 C 90.179688 43.390625 90.183594 43.46875 90.183594 43.554688 C 90.191406 43.636719 90.195312 43.707031 90.195312 43.773438 L 90.195312 46.316406 L 89.726562 46.316406 L 89.726562 42.492188 L 90.335938 42.492188 L 92.402344 45.773438 C 92.402344 45.773438 92.398438 45.683594 92.390625 45.5 C 92.382812 45.429688 92.375 45.347656 92.371094 45.261719 C 92.371094 45.167969 92.371094 45.082031 92.371094 45 L 92.371094 42.492188 L 92.835938 42.492188 L 92.835938 46.316406 Z M 92.21875 46.316406 "/>
<path style=" stroke:none;fill-rule:nonzero;fill:rgb(0%,0%,0%);fill-opacity:1;" d="M 100.011719 72.8125 C 100.011719 73.113281 99.96875 73.382812 99.878906 73.628906 C 99.792969 73.875 99.664062 74.085938 99.5 74.257812 C 99.339844 74.433594 99.140625 74.570312 98.902344 74.660156 C 98.667969 74.753906 98.40625 74.800781 98.109375 74.800781 C 97.789062 74.800781 97.511719 74.753906 97.273438 74.660156 C 97.039062 74.558594 96.84375 74.421875 96.683594 74.25 C 96.523438 74.070312 96.40625 73.855469 96.324219 73.617188 C 96.246094 73.375 96.207031 73.105469 96.207031 72.8125 C 96.207031 72.519531 96.246094 72.25 96.324219 72.011719 C 96.414062 71.765625 96.535156 71.558594 96.695312 71.390625 C 96.863281 71.226562 97.058594 71.09375 97.292969 71 C 97.53125 70.90625 97.804688 70.859375 98.109375 70.859375 C 98.414062 70.859375 98.683594 70.90625 98.925781 71 C 99.164062 71.09375 99.363281 71.226562 99.523438 71.402344 C 99.679688 71.570312 99.800781 71.769531 99.878906 72.011719 C 99.96875 72.25 100.011719 72.519531 100.011719 72.8125 Z M 99.476562 72.8125 C 99.476562 72.582031 99.449219 72.375 99.390625 72.183594 C 99.332031 71.996094 99.246094 71.835938 99.128906 71.707031 C 99.011719 71.570312 98.871094 71.464844 98.695312 71.390625 C 98.527344 71.320312 98.332031 71.28125 98.109375 71.28125 C 97.882812 71.28125 97.683594 71.320312 97.511719 71.390625 C 97.335938 71.464844 97.191406 71.570312 97.074219 71.707031 C 96.96875 71.835938 96.882812 71.996094 96.824219 72.183594 C 96.765625 72.375 96.738281 72.582031 96.738281 72.8125 C 96.738281 73.046875 96.765625 73.257812 96.824219 73.457031 C 96.882812 73.644531 96.96875 73.808594 97.085938 73.945312 C 97.199219 74.082031 97.34375 74.191406 97.511719 74.269531 C 97.683594 74.34375 97.882812 74.378906 98.109375 74.378906 C 98.347656 74.378906 98.554688 74.34375 98.726562 74.269531 C 98.902344 74.191406 99.042969 74.082031 99.152344 73.945312 C 99.261719 73.800781 99.339844 73.632812 99.390625 73.445312 C 99.449219 73.25 99.476562 73.039062 99.476562 72.8125 Z M 99.476562 72.8125 "/>
<path style=" stroke:none;fill-rule:nonzero;fill:rgb(0%,0%,0%);fill-opacity:1;" d="M 77.511719 15.632812 C 77.292969 15.632812 77.101562 15.671875 76.933594 15.742188 C 76.765625 15.816406 76.625 15.921875 76.511719 16.054688 C 76.402344 16.1875 76.316406 16.347656 76.261719 16.535156 C 76.199219 16.726562 76.175781 16.933594 76.175781 17.164062 C 76.175781 17.398438 76.199219 17.609375 76.261719 17.804688 C 76.324219 17.996094 76.414062 18.160156 76.53125 18.292969 C 76.648438 18.433594 76.789062 18.542969 76.957031 18.621094 C 77.128906 18.695312 77.320312 18.730469 77.53125 18.730469 C 77.683594 18.730469 77.816406 18.710938 77.933594 18.675781 C 78.058594 18.632812 78.167969 18.574219 78.273438 18.5 C 78.371094 18.429688 78.460938 18.347656 78.53125 18.25 C 78.613281 18.160156 78.679688 18.050781 78.738281 17.925781 L 79.164062 18.140625 C 79.097656 18.289062 79.011719 18.421875 78.914062 18.542969 C 78.808594 18.667969 78.691406 18.777344 78.554688 18.871094 C 78.414062 18.957031 78.261719 19.027344 78.085938 19.078125 C 77.914062 19.125 77.71875 19.152344 77.511719 19.152344 C 77.199219 19.152344 76.925781 19.105469 76.695312 19.011719 C 76.460938 18.910156 76.265625 18.773438 76.109375 18.597656 C 75.957031 18.417969 75.839844 18.207031 75.761719 17.96875 C 75.679688 17.722656 75.640625 17.457031 75.640625 17.164062 C 75.640625 16.867188 75.679688 16.601562 75.761719 16.359375 C 75.847656 16.117188 75.96875 15.910156 76.128906 15.742188 C 76.289062 15.574219 76.484375 15.445312 76.71875 15.351562 C 76.949219 15.257812 77.210938 15.210938 77.511719 15.210938 C 77.914062 15.210938 78.253906 15.289062 78.523438 15.449219 C 78.796875 15.609375 79 15.847656 79.128906 16.164062 L 78.640625 16.328125 C 78.601562 16.234375 78.554688 16.148438 78.488281 16.066406 C 78.429688 15.980469 78.351562 15.910156 78.261719 15.851562 C 78.164062 15.785156 78.058594 15.734375 77.933594 15.699219 C 77.808594 15.65625 77.667969 15.632812 77.511719 15.632812 Z M 77.511719 15.632812 "/>
<path style="fill:none;stroke-width:0.0333333;stroke-linecap:butt;stroke-linejoin:miter;stroke:rgb(0%,0%,0%);stroke-opacity:1;stroke-miterlimit:10;" d="M 0.986464 2.487391 L 0.986464 3.490361 " transform="matrix(17.391304,0,0,17.381974,17.367549,17.182194)"/>
<path style="fill:none;stroke-width:0.0333333;stroke-linecap:butt;stroke-linejoin:miter;stroke:rgb(0%,0%,0%);stroke-opacity:1;stroke-miterlimit:10;" d="M 0.986464 3.490361 L 0.986464 4.493331 " transform="matrix(17.391304,0,0,17.381974,17.367549,17.182194)"/>
<path style="fill:none;stroke-width:0.0333333;stroke-linecap:butt;stroke-linejoin:miter;stroke:rgb(0%,0%,0%);stroke-opacity:1;stroke-miterlimit:10;" d="M 0.969618 4.476701 L 1.972723 4.476701 " transform="matrix(17.391304,0,0,17.381974,17.367549,17.182194)"/>
<path style="fill:none;stroke-width:0.0333333;stroke-linecap:butt;stroke-linejoin:miter;stroke:rgb(0%,0%,0%);stroke-opacity:1;stroke-miterlimit:10;" d="M 1.972723 4.476701 L 2.975604 4.476701 " transform="matrix(17.391304,0,0,17.381974,17.367549,17.182194)"/>
<path style="fill:none;stroke-width:0.0333333;stroke-linecap:butt;stroke-linejoin:miter;stroke:rgb(0%,0%,0%);stroke-opacity:1;stroke-miterlimit:10;" d="M 2.958759 4.493331 L 2.958759 3.643627 " transform="matrix(17.391304,0,0,17.381974,17.367549,17.182194)"/>
<path style="fill:none;stroke-width:0.0333333;stroke-linecap:butt;stroke-linejoin:miter;stroke:rgb(0%,0%,0%);stroke-opacity:1;stroke-miterlimit:10;" d="M 2.958759 3.336871 L 2.958759 2.501325 " transform="matrix(17.391304,0,0,17.381974,17.367549,17.182194)"/>
<path style="fill:none;stroke-width:0.0333333;stroke-linecap:butt;stroke-linejoin:miter;stroke:rgb(0%,0%,0%);stroke-opacity:1;stroke-miterlimit:10;" d="M 2.958759 2.504021 L 2.105243 2.504021 " transform="matrix(17.391304,0,0,17.381974,17.367549,17.182194)"/>
<path style="fill:none;stroke-width:0.0333333;stroke-linecap:butt;stroke-linejoin:miter;stroke:rgb(0%,0%,0%);stroke-opacity:1;stroke-miterlimit:10;" d="M 1.839979 2.504021 L 0.969618 2.504021 " transform="matrix(17.391304,0,0,17.381974,17.367549,17.182194)"/>
<path style="fill:none;stroke-width:0.0333333;stroke-linecap:butt;stroke-linejoin:miter;stroke:rgb(0%,0%,0%);stroke-opacity:1;stroke-miterlimit:10;" d="M 1.972723 4.476701 L 2.470009 3.615086 " transform="matrix(17.391304,0,0,17.381974,17.367549,17.182194)"/>
<path style="fill:none;stroke-width:0.0333333;stroke-linecap:butt;stroke-linejoin:miter;stroke:rgb(0%,0%,0%);stroke-opacity:1;stroke-miterlimit:10;" d="M 2.46911 3.630143 L 2.050887 2.681333 " transform="matrix(17.391304,0,0,17.381974,17.367549,17.182194)"/>
<path style="fill:none;stroke-width:0.0333333;stroke-linecap:butt;stroke-linejoin:miter;stroke:rgb(0%,0%,0%);stroke-opacity:1;stroke-miterlimit:10;" d="M 0.986464 3.490361 L 1.9433 3.233944 " transform="matrix(17.391304,0,0,17.381974,17.367549,17.182194)"/>
<path style="fill:none;stroke-width:0.0333333;stroke-linecap:butt;stroke-linejoin:miter;stroke:rgb(0%,0%,0%);stroke-opacity:1;stroke-miterlimit:10;" d="M 1.934764 3.233944 L 2.801981 3.451033 " transform="matrix(17.391304,0,0,17.381974,17.367549,17.182194)"/>
<path style="fill:none;stroke-width:0.0333333;stroke-linecap:butt;stroke-linejoin:miter;stroke:rgb(0%,0%,0%);stroke-opacity:1;stroke-miterlimit:10;" d="M 1.972723 4.476701 L 1.972723 5.306179 " transform="matrix(17.391304,0,0,17.381974,17.367549,17.182194)"/>
<path style="fill:none;stroke-width:0.0333333;stroke-linecap:butt;stroke-linejoin:miter;stroke:rgb(0%,0%,0%);stroke-opacity:1;stroke-miterlimit:10;" d="M 0.986464 3.490361 L 0.144628 3.490361 " transform="matrix(17.391304,0,0,17.381974,17.367549,17.182194)"/>
<path style="fill:none;stroke-width:0.0333333;stroke-linecap:butt;stroke-linejoin:miter;stroke:rgb(0%,0%,0%);stroke-opacity:1;stroke-miterlimit:10;" d="M 0.986464 4.358942 L 0.384735 4.96032 " transform="matrix(17.391304,0,0,17.381974,17.367549,17.182194)"/>
<path style="fill:none;stroke-width:0.0333333;stroke-linecap:butt;stroke-linejoin:miter;stroke:rgb(0%,0%,0%);stroke-opacity:1;stroke-miterlimit:10;" d="M 1.104159 4.476701 L 0.502655 5.078303 " transform="matrix(17.391304,0,0,17.381974,17.367549,17.182194)"/>
<path style="fill:none;stroke-width:0.0333333;stroke-linecap:butt;stroke-linejoin:miter;stroke:rgb(0%,0%,0%);stroke-opacity:1;stroke-miterlimit:10;" d="M 2.65037 1.554538 L 2.959882 2.506494 " transform="matrix(17.391304,0,0,17.381974,17.367549,17.182194)"/>
<path style=" stroke:none;fill-rule:nonzero;fill:rgb(0%,0%,0%);fill-opacity:1;" d="M 68.824219 60.707031 L 88.488281 63.003906 L 86.191406 60.707031 L 86.878906 58.597656 "/>
<path style="fill:none;stroke-width:0.0333333;stroke-linecap:butt;stroke-linejoin:miter;stroke:rgb(0%,0%,0%);stroke-opacity:1;stroke-miterlimit:10;" d="M 3.461884 0.979229 L 2.644305 1.57319 " transform="matrix(17.391304,0,0,17.381974,17.367549,17.182194)"/>
<path style="fill:none;stroke-width:0.0333333;stroke-linecap:butt;stroke-linejoin:miter;stroke:rgb(0%,0%,0%);stroke-opacity:1;stroke-miterlimit:10;" d="M 3.442343 0.979229 L 4.090341 1.450038 " transform="matrix(17.391304,0,0,17.381974,17.367549,17.182194)"/>
<path style="fill:none;stroke-width:0.0333333;stroke-linecap:butt;stroke-linejoin:miter;stroke:rgb(0%,0%,0%);stroke-opacity:1;stroke-miterlimit:10;" d="M 3.941425 2.515483 L 4.192313 1.74376 " transform="matrix(17.391304,0,0,17.381974,17.367549,17.182194)"/>
<path style="fill:none;stroke-width:0.0333333;stroke-linecap:butt;stroke-linejoin:miter;stroke:rgb(0%,0%,0%);stroke-opacity:1;stroke-miterlimit:10;" d="M 3.945243 2.504021 L 4.487899 3.046744 " transform="matrix(17.391304,0,0,17.381974,17.367549,17.182194)"/>
<path style="fill:none;stroke-width:0.0333333;stroke-linecap:butt;stroke-linejoin:miter;stroke:rgb(0%,0%,0%);stroke-opacity:1;stroke-miterlimit:10;" d="M 4.135262 2.458401 L 4.605819 2.928986 " transform="matrix(17.391304,0,0,17.381974,17.367549,17.182194)"/>
<path style=" stroke:none;fill-rule:nonzero;fill:rgb(0%,0%,0%);fill-opacity:1;" d="M 77.40625 34.328125 L 79.433594 19.90625 L 75.375 19.90625 "/>
</g>
</svg>
