<?xml version="1.0" encoding="UTF-8"?>
<svg xmlns="http://www.w3.org/2000/svg" xmlns:xlink="http://www.w3.org/1999/xlink" width="78.4pt" height="68.8pt" viewBox="0 0 78.4 68.8" version="1.1">
<g id="surface1002">
<path style=" stroke:none;fill-rule:nonzero;fill:rgb(0%,0%,47.058824%);fill-opacity:1;" d="M 17.621094 19.09375 L 15.960938 16.179688 C 15.972656 16.257812 15.984375 16.335938 15.992188 16.414062 C 15.996094 16.480469 16.003906 16.550781 16.003906 16.628906 C 16.007812 16.710938 16.011719 16.785156 16.011719 16.855469 L 16.011719 19.09375 L 15.300781 19.09375 L 15.300781 15.308594 L 16.21875 15.308594 L 17.890625 18.242188 C 17.882812 18.171875 17.875 18.09375 17.867188 18.007812 C 17.859375 17.9375 17.851562 17.855469 17.847656 17.769531 C 17.847656 17.683594 17.847656 17.59375 17.847656 17.5 L 17.847656 15.308594 L 18.546875 15.308594 L 18.546875 19.09375 Z M 17.621094 19.09375 "/>
<path style=" stroke:none;fill-rule:nonzero;fill:rgb(0%,0%,0%);fill-opacity:1;" d="M 18.8125 51.582031 C 18.8125 51.878906 18.769531 52.148438 18.683594 52.390625 C 18.597656 52.632812 18.46875 52.839844 18.304688 53.011719 C 18.144531 53.1875 17.949219 53.320312 17.710938 53.410156 C 17.480469 53.503906 17.21875 53.550781 16.925781 53.550781 C 16.605469 53.550781 16.332031 53.503906 16.09375 53.410156 C 15.863281 53.3125 15.667969 53.175781 15.511719 53.003906 C 15.351562 52.824219 15.234375 52.617188 15.15625 52.378906 C 15.074219 52.136719 15.039062 51.871094 15.039062 51.582031 C 15.039062 51.289062 15.074219 51.023438 15.15625 50.789062 C 15.242188 50.546875 15.363281 50.34375 15.523438 50.175781 C 15.6875 50.011719 15.882812 49.882812 16.117188 49.789062 C 16.351562 49.695312 16.621094 49.648438 16.925781 49.648438 C 17.226562 49.648438 17.496094 49.695312 17.734375 49.789062 C 17.96875 49.882812 18.167969 50.015625 18.328125 50.1875 C 18.484375 50.351562 18.601562 50.550781 18.683594 50.789062 C 18.769531 51.023438 18.8125 51.289062 18.8125 51.582031 Z M 18.285156 51.582031 C 18.285156 51.355469 18.253906 51.148438 18.195312 50.960938 C 18.136719 50.773438 18.050781 50.617188 17.9375 50.488281 C 17.824219 50.351562 17.679688 50.25 17.507812 50.175781 C 17.339844 50.105469 17.144531 50.066406 16.925781 50.066406 C 16.699219 50.066406 16.503906 50.105469 16.332031 50.175781 C 16.160156 50.25 16.011719 50.351562 15.898438 50.488281 C 15.792969 50.617188 15.707031 50.773438 15.652344 50.960938 C 15.59375 51.148438 15.566406 51.355469 15.566406 51.582031 C 15.566406 51.816406 15.59375 52.023438 15.652344 52.21875 C 15.707031 52.40625 15.796875 52.566406 15.910156 52.703125 C 16.023438 52.839844 16.164062 52.945312 16.332031 53.023438 C 16.503906 53.097656 16.699219 53.132812 16.925781 53.132812 C 17.160156 53.132812 17.367188 53.097656 17.539062 53.023438 C 17.710938 52.945312 17.851562 52.839844 17.960938 52.703125 C 18.066406 52.558594 18.144531 52.394531 18.195312 52.207031 C 18.253906 52.015625 18.285156 51.808594 18.285156 51.582031 Z M 18.285156 51.582031 "/>
<path style="fill:none;stroke-width:0.06;stroke-linecap:butt;stroke-linejoin:miter;stroke:rgb(0%,0%,47.058824%);stroke-opacity:1;stroke-miterlimit:10;" d="M 1.74719 -0.00867031 L 0.851086 0.508681 " transform="matrix(17.253521,0,0,17.2,16.925139,17.199911)"/>
<path style="fill:none;stroke-width:0.06;stroke-linecap:butt;stroke-linejoin:miter;stroke:rgb(0%,0%,47.058824%);stroke-opacity:1;stroke-miterlimit:10;" d="M 1.717078 -0.00867031 L 2.613181 0.508681 " transform="matrix(17.253521,0,0,17.2,16.925139,17.199911)"/>
<path style="fill:none;stroke-width:0.06;stroke-linecap:butt;stroke-linejoin:miter;stroke:rgb(0%,0%,47.058824%);stroke-opacity:1;stroke-miterlimit:10;" d="M 1.717078 0.18369 L 2.446322 0.604747 " transform="matrix(17.253521,0,0,17.2,16.925139,17.199911)"/>
<path style="fill:none;stroke-width:0.06;stroke-linecap:butt;stroke-linejoin:miter;stroke:rgb(0%,0%,47.058824%);stroke-opacity:1;stroke-miterlimit:10;" d="M 0.866029 0.500051 L 0.866029 1.500005 " transform="matrix(17.253521,0,0,17.2,16.925139,17.199911)"/>
<path style="fill:none;stroke-width:0.06;stroke-linecap:butt;stroke-linejoin:miter;stroke:rgb(0%,0%,47.058824%);stroke-opacity:1;stroke-miterlimit:10;" d="M 1.032888 0.596344 L 1.032888 1.403712 " transform="matrix(17.253521,0,0,17.2,16.925139,17.199911)"/>
<path style="fill:none;stroke-width:0.06;stroke-linecap:butt;stroke-linejoin:miter;stroke:rgb(0%,0%,47.058824%);stroke-opacity:1;stroke-miterlimit:10;" d="M 0.857878 1.495236 L 1.74719 2.008499 " transform="matrix(17.253521,0,0,17.2,16.925139,17.199911)"/>
<path style="fill:none;stroke-width:0.06;stroke-linecap:butt;stroke-linejoin:miter;stroke:rgb(0%,0%,47.058824%);stroke-opacity:1;stroke-miterlimit:10;" d="M 1.717078 2.008499 L 2.613181 1.491375 " transform="matrix(17.253521,0,0,17.2,16.925139,17.199911)"/>
<path style="fill:none;stroke-width:0.06;stroke-linecap:butt;stroke-linejoin:miter;stroke:rgb(0%,0%,47.058824%);stroke-opacity:1;stroke-miterlimit:10;" d="M 1.717078 1.816366 L 2.446322 1.395082 " transform="matrix(17.253521,0,0,17.2,16.925139,17.199911)"/>
<path style="fill:none;stroke-width:0.06;stroke-linecap:butt;stroke-linejoin:miter;stroke:rgb(0%,0%,47.058824%);stroke-opacity:1;stroke-miterlimit:10;" d="M 2.598012 1.517265 L 2.598012 0.482563 " transform="matrix(17.253521,0,0,17.2,16.925139,17.199911)"/>
<path style="fill:none;stroke-width:0.06;stroke-linecap:butt;stroke-linejoin:miter;stroke:rgb(0%,0%,47.058824%);stroke-opacity:1;stroke-miterlimit:10;" d="M 0.880972 0.508681 L 0.169613 0.0978431 " transform="matrix(17.253521,0,0,17.2,16.925139,17.199911)"/>
<path style="fill:none;stroke-width:0.0333333;stroke-linecap:butt;stroke-linejoin:miter;stroke:rgb(0%,0%,0%);stroke-opacity:1;stroke-miterlimit:10;" d="M 0.874406 1.495236 L 0.182518 1.894718 " transform="matrix(17.253521,0,0,17.2,16.925139,17.199911)"/>
</g>
</svg>
