<?xml version="1.0" encoding="UTF-8"?>
<svg xmlns="http://www.w3.org/2000/svg" xmlns:xlink="http://www.w3.org/1999/xlink" width="216.8pt" height="192pt" viewBox="0 0 216.8 192" version="1.1">
<g id="surface1222">
<path style=" stroke:none;fill-rule:nonzero;fill:rgb(0%,0%,0%);fill-opacity:1;" d="M 187.152344 9.585938 C 186.9375 9.585938 186.742188 9.625 186.578125 9.695312 C 186.410156 9.769531 186.269531 9.875 186.15625 10.007812 C 186.046875 10.140625 185.960938 10.300781 185.90625 10.484375 C 185.84375 10.675781 185.820312 10.882812 185.820312 11.113281 C 185.820312 11.347656 185.84375 11.558594 185.90625 11.753906 C 185.96875 11.945312 186.058594 12.105469 186.175781 12.242188 C 186.289062 12.378906 186.433594 12.488281 186.601562 12.566406 C 186.773438 12.640625 186.964844 12.675781 187.175781 12.675781 C 187.328125 12.675781 187.460938 12.660156 187.578125 12.621094 C 187.699219 12.578125 187.8125 12.519531 187.914062 12.449219 C 188.015625 12.378906 188.101562 12.292969 188.175781 12.199219 C 188.253906 12.105469 188.320312 11.996094 188.378906 11.875 L 188.804688 12.089844 C 188.738281 12.234375 188.65625 12.367188 188.554688 12.492188 C 188.453125 12.617188 188.332031 12.722656 188.195312 12.816406 C 188.058594 12.902344 187.902344 12.972656 187.730469 13.023438 C 187.554688 13.070312 187.363281 13.097656 187.152344 13.097656 C 186.84375 13.097656 186.570312 13.050781 186.339844 12.957031 C 186.105469 12.855469 185.910156 12.71875 185.753906 12.546875 C 185.601562 12.367188 185.484375 12.15625 185.40625 11.917969 C 185.324219 11.671875 185.285156 11.40625 185.285156 11.113281 C 185.285156 10.820312 185.324219 10.550781 185.40625 10.3125 C 185.492188 10.070312 185.613281 9.863281 185.773438 9.695312 C 185.933594 9.53125 186.128906 9.398438 186.363281 9.304688 C 186.59375 9.210938 186.855469 9.164062 187.152344 9.164062 C 187.558594 9.164062 187.894531 9.246094 188.164062 9.402344 C 188.4375 9.5625 188.640625 9.800781 188.773438 10.117188 L 188.28125 10.28125 C 188.246094 10.1875 188.195312 10.101562 188.132812 10.019531 C 188.070312 9.933594 187.996094 9.863281 187.902344 9.804688 C 187.808594 9.738281 187.699219 9.6875 187.578125 9.652344 C 187.453125 9.609375 187.3125 9.585938 187.152344 9.585938 Z M 187.152344 9.585938 "/>
<path style=" stroke:none;fill-rule:nonzero;fill:rgb(0%,0%,0%);fill-opacity:1;" d="M 190.042969 10.617188 C 190.097656 10.515625 190.15625 10.433594 190.214844 10.367188 C 190.28125 10.296875 190.347656 10.238281 190.421875 10.191406 C 190.5 10.144531 190.582031 10.105469 190.671875 10.085938 C 190.761719 10.0625 190.867188 10.050781 190.984375 10.050781 C 191.171875 10.050781 191.324219 10.078125 191.441406 10.128906 C 191.5625 10.179688 191.660156 10.253906 191.722656 10.34375 C 191.792969 10.441406 191.847656 10.550781 191.875 10.679688 C 191.902344 10.804688 191.917969 10.941406 191.917969 11.09375 L 191.917969 13.042969 L 191.421875 13.042969 L 191.421875 11.179688 C 191.421875 11.058594 191.410156 10.949219 191.398438 10.855469 C 191.382812 10.761719 191.355469 10.6875 191.3125 10.625 C 191.269531 10.5625 191.207031 10.515625 191.125 10.484375 C 191.046875 10.449219 190.945312 10.433594 190.824219 10.433594 C 190.707031 10.433594 190.601562 10.453125 190.507812 10.496094 C 190.414062 10.539062 190.335938 10.601562 190.269531 10.679688 C 190.203125 10.753906 190.152344 10.84375 190.117188 10.953125 C 190.078125 11.058594 190.0625 11.179688 190.0625 11.308594 L 190.0625 13.042969 L 189.574219 13.042969 L 189.574219 9.023438 L 190.0625 9.023438 L 190.0625 10.0625 C 190.0625 10.128906 190.058594 10.191406 190.050781 10.246094 C 190.050781 10.308594 190.046875 10.359375 190.042969 10.410156 C 190.042969 10.460938 190.042969 10.503906 190.042969 10.539062 C 190.042969 10.578125 190.042969 10.601562 190.042969 10.617188 Z M 190.042969 10.617188 "/>
<path style=" stroke:none;fill-rule:nonzero;fill:rgb(0%,0%,0%);fill-opacity:1;" d="M 192.769531 9.488281 L 192.769531 9.023438 L 193.257812 9.023438 L 193.257812 9.488281 Z M 192.769531 13.042969 L 192.769531 10.105469 L 193.257812 10.105469 L 193.257812 13.042969 Z M 192.769531 13.042969 "/>
<path style=" stroke:none;fill-rule:nonzero;fill:rgb(0%,0%,0%);fill-opacity:1;" d="M 194.078125 13.042969 L 194.078125 10.789062 C 194.078125 10.734375 194.074219 10.671875 194.066406 10.605469 C 194.066406 10.539062 194.066406 10.480469 194.066406 10.421875 C 194.066406 10.363281 194.0625 10.308594 194.058594 10.257812 C 194.058594 10.203125 194.058594 10.148438 194.058594 10.105469 L 194.523438 10.105469 C 194.523438 10.148438 194.523438 10.203125 194.523438 10.257812 C 194.527344 10.308594 194.535156 10.363281 194.535156 10.421875 C 194.535156 10.472656 194.535156 10.527344 194.535156 10.582031 C 194.539062 10.636719 194.546875 10.679688 194.546875 10.714844 L 194.554688 10.714844 C 194.582031 10.601562 194.617188 10.503906 194.652344 10.421875 C 194.695312 10.335938 194.742188 10.265625 194.796875 10.214844 C 194.851562 10.167969 194.917969 10.125 194.992188 10.097656 C 195.0625 10.070312 195.148438 10.050781 195.25 10.050781 C 195.285156 10.050781 195.320312 10.058594 195.359375 10.0625 C 195.394531 10.070312 195.425781 10.078125 195.445312 10.085938 L 195.445312 10.527344 C 195.417969 10.523438 195.382812 10.519531 195.335938 10.519531 C 195.292969 10.511719 195.242188 10.507812 195.1875 10.507812 C 195.078125 10.507812 194.980469 10.535156 194.902344 10.582031 C 194.820312 10.636719 194.757812 10.703125 194.707031 10.789062 C 194.65625 10.875 194.621094 10.984375 194.597656 11.113281 C 194.578125 11.238281 194.566406 11.371094 194.566406 11.515625 L 194.566406 13.042969 Z M 194.078125 13.042969 "/>
<path style=" stroke:none;fill-rule:nonzero;fill:rgb(0%,0%,0%);fill-opacity:1;" d="M 196.742188 13.097656 C 196.445312 13.097656 196.222656 13.023438 196.070312 12.871094 C 195.925781 12.714844 195.851562 12.496094 195.851562 12.21875 C 195.851562 12.03125 195.890625 11.878906 195.960938 11.753906 C 196.03125 11.625 196.128906 11.527344 196.246094 11.460938 C 196.367188 11.390625 196.503906 11.339844 196.65625 11.308594 C 196.808594 11.28125 196.964844 11.265625 197.125 11.265625 L 197.773438 11.253906 L 197.773438 11.09375 C 197.773438 10.972656 197.757812 10.871094 197.730469 10.789062 C 197.710938 10.703125 197.671875 10.636719 197.625 10.582031 C 197.570312 10.527344 197.507812 10.484375 197.429688 10.464844 C 197.347656 10.441406 197.253906 10.433594 197.144531 10.433594 C 197.050781 10.433594 196.964844 10.441406 196.886719 10.453125 C 196.8125 10.460938 196.746094 10.484375 196.691406 10.519531 C 196.636719 10.554688 196.59375 10.605469 196.558594 10.671875 C 196.519531 10.730469 196.5 10.804688 196.492188 10.898438 L 195.984375 10.84375 C 195.996094 10.730469 196.03125 10.625 196.082031 10.527344 C 196.128906 10.4375 196.203125 10.351562 196.296875 10.28125 C 196.390625 10.210938 196.507812 10.15625 196.644531 10.117188 C 196.789062 10.074219 196.960938 10.050781 197.15625 10.050781 C 197.527344 10.050781 197.800781 10.140625 197.992188 10.3125 C 198.179688 10.480469 198.273438 10.722656 198.273438 11.039062 L 198.273438 12.308594 C 198.273438 12.453125 198.289062 12.5625 198.328125 12.632812 C 198.363281 12.703125 198.4375 12.742188 198.546875 12.742188 C 198.574219 12.742188 198.601562 12.742188 198.621094 12.742188 C 198.648438 12.734375 198.679688 12.726562 198.707031 12.71875 L 198.707031 13.023438 C 198.644531 13.042969 198.582031 13.058594 198.523438 13.066406 C 198.464844 13.070312 198.398438 13.078125 198.328125 13.078125 C 198.234375 13.078125 198.15625 13.066406 198.089844 13.042969 C 198.023438 13.015625 197.96875 12.976562 197.925781 12.925781 C 197.890625 12.875 197.863281 12.8125 197.839844 12.742188 C 197.820312 12.667969 197.800781 12.582031 197.796875 12.480469 L 197.773438 12.480469 C 197.722656 12.574219 197.667969 12.660156 197.601562 12.742188 C 197.542969 12.8125 197.472656 12.878906 197.382812 12.933594 C 197.304688 12.988281 197.210938 13.027344 197.101562 13.054688 C 197 13.082031 196.878906 13.097656 196.742188 13.097656 Z M 196.851562 12.730469 C 197.003906 12.730469 197.136719 12.703125 197.253906 12.644531 C 197.375 12.585938 197.472656 12.511719 197.546875 12.425781 C 197.625 12.339844 197.683594 12.246094 197.722656 12.144531 C 197.757812 12.035156 197.773438 11.933594 197.773438 11.839844 L 197.773438 11.589844 L 197.242188 11.601562 C 197.125 11.609375 197.015625 11.621094 196.90625 11.632812 C 196.796875 11.652344 196.699219 11.679688 196.613281 11.722656 C 196.53125 11.765625 196.46875 11.828125 196.417969 11.917969 C 196.375 11.996094 196.351562 12.101562 196.351562 12.230469 C 196.351562 12.390625 196.394531 12.511719 196.484375 12.597656 C 196.570312 12.6875 196.691406 12.730469 196.851562 12.730469 Z M 196.851562 12.730469 "/>
<path style=" stroke:none;fill-rule:nonzero;fill:rgb(0%,0%,0%);fill-opacity:1;" d="M 199.214844 13.042969 L 199.214844 9.023438 L 199.703125 9.023438 L 199.703125 13.042969 Z M 199.214844 13.042969 "/>
<path style=" stroke:none;fill-rule:nonzero;fill:rgb(0%,0%,0%);fill-opacity:1;" d="M 169.523438 71.570312 L 167.472656 68.316406 C 167.476562 68.40625 167.484375 68.492188 167.484375 68.578125 C 167.488281 68.652344 167.492188 68.730469 167.492188 68.816406 C 167.5 68.898438 167.503906 68.96875 167.503906 69.035156 L 167.503906 71.570312 L 167.039062 71.570312 L 167.039062 67.753906 L 167.644531 67.753906 L 169.707031 71.027344 C 169.707031 71.027344 169.703125 70.9375 169.699219 70.757812 C 169.691406 70.6875 169.683594 70.605469 169.675781 70.519531 C 169.675781 70.425781 169.675781 70.339844 169.675781 70.257812 L 169.675781 67.753906 L 170.144531 67.753906 L 170.144531 71.570312 Z M 169.523438 71.570312 "/>
<path style=" stroke:none;fill-rule:nonzero;fill:rgb(0%,0%,0%);fill-opacity:1;" d="M 156.855469 96.871094 C 156.855469 97.167969 156.808594 97.441406 156.722656 97.683594 C 156.636719 97.929688 156.507812 98.140625 156.34375 98.3125 C 156.183594 98.484375 155.984375 98.621094 155.746094 98.714844 C 155.511719 98.804688 155.25 98.855469 154.953125 98.855469 C 154.632812 98.855469 154.355469 98.804688 154.117188 98.714844 C 153.882812 98.613281 153.6875 98.476562 153.53125 98.300781 C 153.371094 98.125 153.25 97.910156 153.171875 97.671875 C 153.089844 97.429688 153.054688 97.160156 153.054688 96.871094 C 153.054688 96.574219 153.089844 96.308594 153.171875 96.070312 C 153.261719 95.824219 153.382812 95.621094 153.542969 95.453125 C 153.707031 95.285156 153.90625 95.15625 154.140625 95.0625 C 154.378906 94.96875 154.648438 94.921875 154.953125 94.921875 C 155.257812 94.921875 155.527344 94.96875 155.769531 95.0625 C 156.007812 95.15625 156.203125 95.289062 156.363281 95.460938 C 156.523438 95.628906 156.640625 95.832031 156.722656 96.070312 C 156.808594 96.308594 156.855469 96.574219 156.855469 96.871094 Z M 156.320312 96.871094 C 156.320312 96.640625 156.292969 96.433594 156.234375 96.242188 C 156.175781 96.054688 156.089844 95.894531 155.972656 95.765625 C 155.859375 95.628906 155.714844 95.523438 155.539062 95.453125 C 155.371094 95.382812 155.175781 95.34375 154.953125 95.34375 C 154.726562 95.34375 154.53125 95.382812 154.355469 95.453125 C 154.183594 95.523438 154.035156 95.628906 153.921875 95.765625 C 153.8125 95.894531 153.730469 96.054688 153.671875 96.242188 C 153.613281 96.433594 153.585938 96.640625 153.585938 96.871094 C 153.585938 97.105469 153.613281 97.316406 153.671875 97.511719 C 153.730469 97.699219 153.816406 97.863281 153.933594 98 C 154.046875 98.136719 154.1875 98.246094 154.355469 98.324219 C 154.53125 98.398438 154.726562 98.433594 154.953125 98.433594 C 155.191406 98.433594 155.398438 98.398438 155.574219 98.324219 C 155.746094 98.246094 155.886719 98.136719 155.996094 98 C 156.105469 97.855469 156.183594 97.691406 156.234375 97.5 C 156.292969 97.304688 156.320312 97.097656 156.320312 96.871094 Z M 156.320312 96.871094 "/>
<path style=" stroke:none;fill-rule:nonzero;fill:rgb(0%,0%,0%);fill-opacity:1;" d="M 201.601562 91.398438 C 201.601562 91.695312 201.558594 91.96875 201.472656 92.210938 C 201.386719 92.457031 201.257812 92.667969 201.09375 92.839844 C 200.933594 93.011719 200.734375 93.148438 200.496094 93.242188 C 200.261719 93.332031 200 93.382812 199.703125 93.382812 C 199.382812 93.382812 199.105469 93.332031 198.867188 93.242188 C 198.632812 93.140625 198.4375 93.003906 198.28125 92.828125 C 198.121094 92.648438 198 92.4375 197.921875 92.199219 C 197.839844 91.957031 197.800781 91.6875 197.800781 91.398438 C 197.800781 91.101562 197.839844 90.835938 197.921875 90.597656 C 198.007812 90.351562 198.128906 90.144531 198.289062 89.976562 C 198.457031 89.8125 198.65625 89.683594 198.886719 89.589844 C 199.125 89.496094 199.398438 89.445312 199.703125 89.445312 C 200.007812 89.445312 200.277344 89.496094 200.515625 89.589844 C 200.753906 89.683594 200.953125 89.816406 201.113281 89.988281 C 201.269531 90.15625 201.390625 90.359375 201.472656 90.597656 C 201.558594 90.835938 201.601562 91.101562 201.601562 91.398438 Z M 201.070312 91.398438 C 201.070312 91.167969 201.039062 90.960938 200.984375 90.769531 C 200.921875 90.582031 200.835938 90.421875 200.722656 90.292969 C 200.605469 90.15625 200.460938 90.050781 200.289062 89.976562 C 200.121094 89.90625 199.925781 89.871094 199.703125 89.871094 C 199.476562 89.871094 199.277344 89.90625 199.105469 89.976562 C 198.929688 90.050781 198.785156 90.15625 198.671875 90.292969 C 198.5625 90.421875 198.476562 90.582031 198.421875 90.769531 C 198.363281 90.960938 198.335938 91.167969 198.335938 91.398438 C 198.335938 91.632812 198.363281 91.84375 198.421875 92.039062 C 198.476562 92.226562 198.566406 92.390625 198.683594 92.523438 C 198.796875 92.664062 198.9375 92.773438 199.105469 92.851562 C 199.277344 92.921875 199.476562 92.957031 199.703125 92.957031 C 199.941406 92.957031 200.148438 92.921875 200.320312 92.851562 C 200.496094 92.773438 200.636719 92.664062 200.746094 92.523438 C 200.851562 92.382812 200.933594 92.214844 200.984375 92.027344 C 201.039062 91.832031 201.070312 91.621094 201.070312 91.398438 Z M 201.070312 91.398438 "/>
<path style=" stroke:none;fill-rule:nonzero;fill:rgb(0%,0%,0%);fill-opacity:1;" d="M 184.101562 45.367188 L 182.046875 42.113281 C 182.054688 42.199219 182.058594 42.289062 182.058594 42.375 C 182.066406 42.449219 182.070312 42.527344 182.070312 42.613281 C 182.074219 42.695312 182.082031 42.765625 182.082031 42.828125 L 182.082031 45.367188 L 181.613281 45.367188 L 181.613281 41.550781 L 182.222656 41.550781 L 184.285156 44.824219 C 184.285156 44.824219 184.28125 44.734375 184.273438 44.554688 C 184.265625 44.484375 184.257812 44.402344 184.253906 44.316406 C 184.253906 44.222656 184.253906 44.136719 184.253906 44.054688 L 184.253906 41.550781 L 184.71875 41.550781 L 184.71875 45.367188 Z M 184.101562 45.367188 "/>
<path style=" stroke:none;fill-rule:nonzero;fill:rgb(0%,0%,0%);fill-opacity:1;" d="M 200.347656 69.414062 C 200.347656 69.710938 200.304688 69.980469 200.21875 70.226562 C 200.132812 70.472656 200.003906 70.679688 199.839844 70.855469 C 199.679688 71.027344 199.480469 71.164062 199.242188 71.253906 C 199.007812 71.347656 198.746094 71.394531 198.449219 71.394531 C 198.128906 71.394531 197.851562 71.347656 197.613281 71.253906 C 197.378906 71.15625 197.183594 71.015625 197.027344 70.84375 C 196.867188 70.664062 196.746094 70.453125 196.667969 70.214844 C 196.585938 69.972656 196.546875 69.703125 196.546875 69.414062 C 196.546875 69.117188 196.585938 68.847656 196.667969 68.609375 C 196.753906 68.367188 196.875 68.160156 197.035156 67.992188 C 197.203125 67.828125 197.402344 67.699219 197.632812 67.601562 C 197.871094 67.511719 198.144531 67.460938 198.449219 67.460938 C 198.753906 67.460938 199.023438 67.511719 199.261719 67.601562 C 199.5 67.699219 199.699219 67.832031 199.859375 68.003906 C 200.015625 68.171875 200.136719 68.371094 200.21875 68.609375 C 200.304688 68.847656 200.347656 69.117188 200.347656 69.414062 Z M 199.816406 69.414062 C 199.816406 69.183594 199.785156 68.972656 199.730469 68.785156 C 199.667969 68.597656 199.582031 68.4375 199.46875 68.308594 C 199.351562 68.171875 199.207031 68.066406 199.035156 67.992188 C 198.867188 67.921875 198.671875 67.882812 198.449219 67.882812 C 198.222656 67.882812 198.023438 67.921875 197.851562 67.992188 C 197.675781 68.066406 197.53125 68.171875 197.417969 68.308594 C 197.308594 68.4375 197.222656 68.597656 197.167969 68.785156 C 197.109375 68.972656 197.082031 69.183594 197.082031 69.414062 C 197.082031 69.644531 197.109375 69.855469 197.167969 70.050781 C 197.222656 70.242188 197.3125 70.40625 197.429688 70.539062 C 197.542969 70.679688 197.683594 70.785156 197.851562 70.867188 C 198.023438 70.9375 198.222656 70.972656 198.449219 70.972656 C 198.6875 70.972656 198.894531 70.9375 199.066406 70.867188 C 199.242188 70.785156 199.382812 70.679688 199.492188 70.539062 C 199.597656 70.398438 199.679688 70.230469 199.730469 70.042969 C 199.785156 69.847656 199.816406 69.636719 199.816406 69.414062 Z M 199.816406 69.414062 "/>
<path style=" stroke:none;fill-rule:nonzero;fill:rgb(0%,0%,0%);fill-opacity:1;" d="M 189.847656 127.699219 C 189.847656 127.996094 189.804688 128.265625 189.714844 128.511719 C 189.628906 128.757812 189.5 128.964844 189.335938 129.140625 C 189.175781 129.3125 188.976562 129.449219 188.738281 129.539062 C 188.503906 129.632812 188.242188 129.679688 187.945312 129.679688 C 187.625 129.679688 187.347656 129.632812 187.109375 129.539062 C 186.878906 129.441406 186.683594 129.300781 186.523438 129.128906 C 186.363281 128.949219 186.246094 128.738281 186.164062 128.5 C 186.085938 128.257812 186.046875 127.988281 186.046875 127.699219 C 186.046875 127.402344 186.085938 127.132812 186.164062 126.894531 C 186.253906 126.652344 186.375 126.445312 186.535156 126.277344 C 186.699219 126.113281 186.898438 125.984375 187.132812 125.886719 C 187.371094 125.796875 187.640625 125.746094 187.945312 125.746094 C 188.25 125.746094 188.523438 125.796875 188.761719 125.886719 C 189 125.984375 189.199219 126.117188 189.359375 126.289062 C 189.515625 126.457031 189.636719 126.65625 189.714844 126.894531 C 189.804688 127.132812 189.847656 127.402344 189.847656 127.699219 Z M 189.316406 127.699219 C 189.316406 127.46875 189.285156 127.257812 189.226562 127.070312 C 189.167969 126.882812 189.082031 126.722656 188.96875 126.59375 C 188.851562 126.457031 188.707031 126.351562 188.53125 126.277344 C 188.363281 126.207031 188.167969 126.167969 187.945312 126.167969 C 187.722656 126.167969 187.523438 126.207031 187.347656 126.277344 C 187.175781 126.351562 187.027344 126.457031 186.914062 126.59375 C 186.804688 126.722656 186.722656 126.882812 186.664062 127.070312 C 186.605469 127.257812 186.578125 127.46875 186.578125 127.699219 C 186.578125 127.929688 186.605469 128.140625 186.664062 128.335938 C 186.722656 128.527344 186.808594 128.691406 186.925781 128.824219 C 187.039062 128.964844 187.179688 129.070312 187.347656 129.148438 C 187.523438 129.222656 187.722656 129.257812 187.945312 129.257812 C 188.183594 129.257812 188.390625 129.222656 188.566406 129.148438 C 188.738281 129.070312 188.878906 128.964844 188.988281 128.824219 C 189.097656 128.679688 189.175781 128.515625 189.226562 128.328125 C 189.285156 128.132812 189.316406 127.921875 189.316406 127.699219 Z M 189.316406 127.699219 "/>
<path style=" stroke:none;fill-rule:nonzero;fill:rgb(0%,0%,0%);fill-opacity:1;" d="M 135.0625 126.054688 C 135.0625 126.351562 135.019531 126.621094 134.933594 126.867188 C 134.847656 127.113281 134.71875 127.320312 134.550781 127.496094 C 134.390625 127.667969 134.195312 127.804688 133.957031 127.894531 C 133.722656 127.988281 133.457031 128.035156 133.164062 128.035156 C 132.84375 128.035156 132.566406 127.988281 132.328125 127.894531 C 132.09375 127.796875 131.898438 127.65625 131.742188 127.484375 C 131.582031 127.304688 131.460938 127.09375 131.382812 126.855469 C 131.300781 126.609375 131.261719 126.34375 131.261719 126.054688 C 131.261719 125.757812 131.300781 125.488281 131.382812 125.25 C 131.46875 125.007812 131.589844 124.800781 131.75 124.632812 C 131.917969 124.46875 132.113281 124.339844 132.347656 124.242188 C 132.585938 124.152344 132.859375 124.101562 133.164062 124.101562 C 133.46875 124.101562 133.738281 124.152344 133.976562 124.242188 C 134.214844 124.339844 134.414062 124.472656 134.574219 124.644531 C 134.730469 124.8125 134.851562 125.011719 134.933594 125.25 C 135.019531 125.488281 135.0625 125.757812 135.0625 126.054688 Z M 134.53125 126.054688 C 134.53125 125.824219 134.5 125.613281 134.445312 125.425781 C 134.382812 125.238281 134.296875 125.078125 134.183594 124.949219 C 134.066406 124.8125 133.921875 124.707031 133.75 124.632812 C 133.582031 124.5625 133.386719 124.523438 133.164062 124.523438 C 132.9375 124.523438 132.738281 124.5625 132.566406 124.632812 C 132.390625 124.707031 132.246094 124.8125 132.132812 124.949219 C 132.023438 125.078125 131.9375 125.238281 131.882812 125.425781 C 131.820312 125.613281 131.796875 125.824219 131.796875 126.054688 C 131.796875 126.285156 131.820312 126.496094 131.882812 126.691406 C 131.9375 126.882812 132.027344 127.042969 132.140625 127.179688 C 132.257812 127.320312 132.398438 127.425781 132.566406 127.503906 C 132.738281 127.578125 132.9375 127.613281 133.164062 127.613281 C 133.402344 127.613281 133.609375 127.578125 133.78125 127.503906 C 133.957031 127.425781 134.097656 127.320312 134.207031 127.179688 C 134.3125 127.035156 134.390625 126.871094 134.445312 126.683594 C 134.5 126.488281 134.53125 126.277344 134.53125 126.054688 Z M 134.53125 126.054688 "/>
<path style=" stroke:none;fill-rule:nonzero;fill:rgb(0%,0%,0%);fill-opacity:1;" d="M 170.019531 17.15625 C 170.019531 17.453125 169.976562 17.726562 169.886719 17.96875 C 169.800781 18.214844 169.671875 18.425781 169.507812 18.597656 C 169.347656 18.773438 169.148438 18.90625 168.910156 19 C 168.675781 19.089844 168.414062 19.140625 168.117188 19.140625 C 167.796875 19.140625 167.519531 19.089844 167.28125 19 C 167.046875 18.898438 166.851562 18.761719 166.695312 18.585938 C 166.535156 18.410156 166.417969 18.195312 166.335938 17.957031 C 166.257812 17.714844 166.21875 17.445312 166.21875 17.15625 C 166.21875 16.863281 166.257812 16.59375 166.335938 16.355469 C 166.425781 16.109375 166.546875 15.90625 166.707031 15.738281 C 166.871094 15.570312 167.070312 15.441406 167.304688 15.347656 C 167.542969 15.253906 167.8125 15.207031 168.117188 15.207031 C 168.421875 15.207031 168.695312 15.253906 168.933594 15.347656 C 169.171875 15.441406 169.371094 15.574219 169.53125 15.746094 C 169.6875 15.914062 169.804688 16.117188 169.886719 16.355469 C 169.976562 16.59375 170.019531 16.863281 170.019531 17.15625 Z M 169.484375 17.15625 C 169.484375 16.925781 169.457031 16.71875 169.398438 16.527344 C 169.339844 16.339844 169.253906 16.179688 169.140625 16.050781 C 169.023438 15.914062 168.878906 15.808594 168.703125 15.738281 C 168.535156 15.667969 168.339844 15.628906 168.117188 15.628906 C 167.894531 15.628906 167.695312 15.667969 167.519531 15.738281 C 167.347656 15.808594 167.199219 15.914062 167.085938 16.050781 C 166.976562 16.179688 166.894531 16.339844 166.835938 16.527344 C 166.777344 16.71875 166.75 16.925781 166.75 17.15625 C 166.75 17.390625 166.777344 17.601562 166.835938 17.796875 C 166.894531 17.984375 166.980469 18.148438 167.097656 18.285156 C 167.210938 18.421875 167.351562 18.53125 167.519531 18.609375 C 167.695312 18.683594 167.894531 18.71875 168.117188 18.71875 C 168.355469 18.71875 168.5625 18.683594 168.738281 18.609375 C 168.910156 18.53125 169.050781 18.421875 169.160156 18.285156 C 169.269531 18.140625 169.347656 17.976562 169.398438 17.785156 C 169.457031 17.589844 169.484375 17.382812 169.484375 17.15625 Z M 169.484375 17.15625 "/>
<path style=" stroke:none;fill-rule:nonzero;fill:rgb(0%,0%,0%);fill-opacity:1;" d="M 125.320312 138.453125 C 125.320312 138.621094 125.292969 138.777344 125.234375 138.921875 C 125.175781 139.058594 125.09375 139.179688 124.984375 139.289062 C 124.875 139.398438 124.738281 139.484375 124.570312 139.550781 C 124.410156 139.609375 124.21875 139.636719 123.996094 139.636719 L 122.878906 139.636719 L 122.878906 141.121094 L 122.355469 141.121094 L 122.355469 137.304688 L 123.964844 137.304688 C 124.195312 137.304688 124.394531 137.335938 124.5625 137.390625 C 124.726562 137.445312 124.863281 137.519531 124.972656 137.621094 C 125.085938 137.722656 125.175781 137.84375 125.234375 137.988281 C 125.292969 138.125 125.320312 138.28125 125.320312 138.453125 Z M 124.800781 138.453125 C 124.800781 138.214844 124.722656 138.039062 124.570312 137.914062 C 124.425781 137.78125 124.207031 137.71875 123.910156 137.71875 L 122.878906 137.71875 L 122.878906 139.222656 L 123.929688 139.222656 C 124.226562 139.222656 124.445312 139.160156 124.582031 139.027344 C 124.726562 138.894531 124.800781 138.703125 124.800781 138.453125 Z M 124.800781 138.453125 "/>
<path style=" stroke:none;fill-rule:nonzero;fill:rgb(0%,0%,0%);fill-opacity:1;" d="M 109.515625 132.9375 C 109.515625 133.234375 109.472656 133.507812 109.386719 133.75 C 109.296875 133.996094 109.171875 134.207031 109.003906 134.378906 C 108.84375 134.554688 108.648438 134.6875 108.40625 134.78125 C 108.175781 134.871094 107.910156 134.921875 107.617188 134.921875 C 107.296875 134.921875 107.019531 134.871094 106.78125 134.78125 C 106.546875 134.679688 106.351562 134.542969 106.191406 134.367188 C 106.03125 134.191406 105.914062 133.976562 105.835938 133.738281 C 105.753906 133.496094 105.714844 133.226562 105.714844 132.9375 C 105.714844 132.644531 105.753906 132.375 105.835938 132.136719 C 105.921875 131.890625 106.042969 131.6875 106.203125 131.519531 C 106.371094 131.351562 106.566406 131.222656 106.800781 131.128906 C 107.039062 131.035156 107.3125 130.988281 107.617188 130.988281 C 107.917969 130.988281 108.191406 131.035156 108.429688 131.128906 C 108.667969 131.222656 108.867188 131.355469 109.027344 131.527344 C 109.183594 131.695312 109.304688 131.898438 109.386719 132.136719 C 109.472656 132.375 109.515625 132.644531 109.515625 132.9375 Z M 108.984375 132.9375 C 108.984375 132.707031 108.953125 132.5 108.898438 132.308594 C 108.835938 132.121094 108.75 131.960938 108.636719 131.832031 C 108.519531 131.695312 108.375 131.589844 108.203125 131.519531 C 108.035156 131.449219 107.839844 131.410156 107.617188 131.410156 C 107.390625 131.410156 107.191406 131.449219 107.019531 131.519531 C 106.84375 131.589844 106.699219 131.695312 106.585938 131.832031 C 106.476562 131.960938 106.390625 132.121094 106.335938 132.308594 C 106.273438 132.5 106.246094 132.707031 106.246094 132.9375 C 106.246094 133.171875 106.273438 133.382812 106.335938 133.578125 C 106.390625 133.765625 106.476562 133.929688 106.59375 134.066406 C 106.707031 134.203125 106.851562 134.3125 107.019531 134.390625 C 107.191406 134.464844 107.390625 134.5 107.617188 134.5 C 107.855469 134.5 108.0625 134.464844 108.234375 134.390625 C 108.40625 134.3125 108.550781 134.203125 108.65625 134.066406 C 108.765625 133.921875 108.84375 133.757812 108.898438 133.566406 C 108.953125 133.371094 108.984375 133.164062 108.984375 132.9375 Z M 108.984375 132.9375 "/>
<path style=" stroke:none;fill-rule:nonzero;fill:rgb(0%,0%,0%);fill-opacity:1;" d="M 135.535156 152.257812 C 135.535156 152.558594 135.492188 152.828125 135.40625 153.074219 C 135.316406 153.320312 135.191406 153.527344 135.023438 153.703125 C 134.863281 153.875 134.667969 154.011719 134.429688 154.101562 C 134.195312 154.195312 133.929688 154.242188 133.636719 154.242188 C 133.316406 154.242188 133.039062 154.195312 132.800781 154.101562 C 132.566406 154.003906 132.371094 153.863281 132.214844 153.691406 C 132.054688 153.511719 131.933594 153.300781 131.855469 153.0625 C 131.773438 152.816406 131.734375 152.550781 131.734375 152.257812 C 131.734375 151.964844 131.773438 151.695312 131.855469 151.457031 C 131.941406 151.214844 132.0625 151.007812 132.222656 150.839844 C 132.390625 150.675781 132.585938 150.542969 132.820312 150.449219 C 133.058594 150.359375 133.332031 150.308594 133.636719 150.308594 C 133.9375 150.308594 134.210938 150.359375 134.449219 150.449219 C 134.6875 150.542969 134.886719 150.675781 135.046875 150.851562 C 135.203125 151.019531 135.324219 151.21875 135.40625 151.457031 C 135.492188 151.695312 135.535156 151.964844 135.535156 152.257812 Z M 135.003906 152.257812 C 135.003906 152.03125 134.972656 151.820312 134.917969 151.632812 C 134.855469 151.445312 134.769531 151.285156 134.65625 151.152344 C 134.539062 151.019531 134.394531 150.914062 134.222656 150.839844 C 134.054688 150.769531 133.859375 150.730469 133.636719 150.730469 C 133.410156 150.730469 133.210938 150.769531 133.039062 150.839844 C 132.863281 150.914062 132.71875 151.019531 132.605469 151.152344 C 132.496094 151.285156 132.410156 151.445312 132.355469 151.632812 C 132.292969 151.820312 132.265625 152.03125 132.265625 152.257812 C 132.265625 152.492188 132.292969 152.703125 132.355469 152.898438 C 132.410156 153.089844 132.496094 153.25 132.613281 153.386719 C 132.730469 153.523438 132.871094 153.632812 133.039062 153.710938 C 133.210938 153.785156 133.410156 153.820312 133.636719 153.820312 C 133.875 153.820312 134.082031 153.785156 134.253906 153.710938 C 134.429688 153.632812 134.570312 153.523438 134.675781 153.386719 C 134.785156 153.242188 134.863281 153.078125 134.917969 152.886719 C 134.972656 152.691406 135.003906 152.484375 135.003906 152.257812 Z M 135.003906 152.257812 "/>
<path style=" stroke:none;fill-rule:nonzero;fill:rgb(0%,0%,0%);fill-opacity:1;" d="M 118.609375 154.921875 C 118.609375 155.21875 118.566406 155.488281 118.476562 155.734375 C 118.390625 155.980469 118.265625 156.1875 118.097656 156.363281 C 117.9375 156.535156 117.738281 156.671875 117.5 156.761719 C 117.269531 156.855469 117.003906 156.902344 116.707031 156.902344 C 116.386719 156.902344 116.113281 156.855469 115.871094 156.761719 C 115.640625 156.664062 115.445312 156.523438 115.285156 156.351562 C 115.125 156.171875 115.007812 155.960938 114.929688 155.722656 C 114.847656 155.480469 114.808594 155.210938 114.808594 154.921875 C 114.808594 154.625 114.847656 154.355469 114.929688 154.117188 C 115.015625 153.875 115.136719 153.667969 115.296875 153.5 C 115.460938 153.335938 115.660156 153.207031 115.894531 153.109375 C 116.132812 153.019531 116.40625 152.96875 116.707031 152.96875 C 117.011719 152.96875 117.285156 153.019531 117.523438 153.109375 C 117.761719 153.207031 117.960938 153.339844 118.121094 153.511719 C 118.277344 153.679688 118.398438 153.878906 118.476562 154.117188 C 118.566406 154.355469 118.609375 154.625 118.609375 154.921875 Z M 118.078125 154.921875 C 118.078125 154.691406 118.046875 154.480469 117.988281 154.292969 C 117.929688 154.105469 117.84375 153.945312 117.730469 153.816406 C 117.613281 153.679688 117.46875 153.574219 117.292969 153.5 C 117.125 153.429688 116.929688 153.390625 116.707031 153.390625 C 116.484375 153.390625 116.285156 153.429688 116.113281 153.5 C 115.9375 153.574219 115.792969 153.679688 115.675781 153.816406 C 115.570312 153.945312 115.484375 154.105469 115.425781 154.292969 C 115.367188 154.480469 115.339844 154.691406 115.339844 154.921875 C 115.339844 155.152344 115.367188 155.363281 115.425781 155.558594 C 115.484375 155.75 115.570312 155.914062 115.6875 156.046875 C 115.800781 156.1875 115.941406 156.292969 116.113281 156.371094 C 116.285156 156.445312 116.484375 156.480469 116.707031 156.480469 C 116.949219 156.480469 117.152344 156.445312 117.328125 156.371094 C 117.5 156.292969 117.640625 156.1875 117.75 156.046875 C 117.859375 155.902344 117.9375 155.738281 117.988281 155.550781 C 118.046875 155.355469 118.078125 155.144531 118.078125 154.921875 Z M 118.078125 154.921875 "/>
<path style=" stroke:none;fill-rule:nonzero;fill:rgb(0%,0%,0%);fill-opacity:1;" d="M 119.1875 152.597656 L 121.511719 152.597656 L 121.511719 153.0625 L 119.1875 153.0625 "/>
<path style=" stroke:none;fill-rule:nonzero;fill:rgb(0%,0%,0%);fill-opacity:1;" d="M 109.332031 116.238281 C 109.332031 116.40625 109.304688 116.558594 109.246094 116.703125 C 109.1875 116.839844 109.105469 116.960938 108.996094 117.070312 C 108.886719 117.179688 108.75 117.265625 108.585938 117.332031 C 108.425781 117.390625 108.230469 117.417969 108.007812 117.417969 L 106.890625 117.417969 L 106.890625 118.902344 L 106.371094 118.902344 L 106.371094 115.085938 L 107.976562 115.085938 C 108.207031 115.085938 108.40625 115.117188 108.574219 115.175781 C 108.738281 115.226562 108.878906 115.300781 108.984375 115.402344 C 109.101562 115.503906 109.1875 115.625 109.246094 115.769531 C 109.304688 115.910156 109.332031 116.0625 109.332031 116.238281 Z M 108.8125 116.238281 C 108.8125 115.996094 108.738281 115.820312 108.585938 115.695312 C 108.4375 115.566406 108.21875 115.5 107.921875 115.5 L 106.890625 115.5 L 106.890625 117.007812 L 107.945312 117.007812 C 108.238281 117.007812 108.457031 116.941406 108.59375 116.8125 C 108.738281 116.675781 108.8125 116.484375 108.8125 116.238281 Z M 108.8125 116.238281 "/>
<path style=" stroke:none;fill-rule:nonzero;fill:rgb(0%,0%,47.058824%);fill-opacity:1;" d="M 93.25 110.25 C 93.25 110.550781 93.199219 110.820312 93.105469 111.0625 C 93.019531 111.308594 92.894531 111.519531 92.726562 111.691406 C 92.558594 111.867188 92.359375 112 92.121094 112.09375 C 91.878906 112.1875 91.609375 112.234375 91.304688 112.234375 C 90.984375 112.234375 90.707031 112.1875 90.46875 112.09375 C 90.230469 111.992188 90.027344 111.855469 89.859375 111.683594 C 89.699219 111.503906 89.582031 111.292969 89.503906 111.054688 C 89.421875 110.808594 89.382812 110.539062 89.382812 110.25 C 89.382812 109.957031 89.421875 109.6875 89.503906 109.449219 C 89.589844 109.207031 89.714844 109 89.882812 108.832031 C 90.046875 108.664062 90.25 108.535156 90.492188 108.441406 C 90.730469 108.347656 91.003906 108.300781 91.316406 108.300781 C 91.625 108.300781 91.902344 108.347656 92.140625 108.441406 C 92.378906 108.535156 92.578125 108.667969 92.738281 108.84375 C 92.902344 109.011719 93.03125 109.210938 93.117188 109.449219 C 93.207031 109.6875 93.25 109.957031 93.25 110.25 Z M 92.433594 110.25 C 92.433594 110.050781 92.40625 109.867188 92.359375 109.710938 C 92.308594 109.550781 92.234375 109.414062 92.140625 109.296875 C 92.046875 109.183594 91.929688 109.089844 91.792969 109.027344 C 91.65625 108.960938 91.496094 108.929688 91.316406 108.929688 C 91.125 108.929688 90.960938 108.960938 90.816406 109.027344 C 90.679688 109.089844 90.5625 109.183594 90.46875 109.296875 C 90.375 109.414062 90.300781 109.550781 90.25 109.710938 C 90.207031 109.867188 90.1875 110.050781 90.1875 110.25 C 90.1875 110.453125 90.210938 110.636719 90.261719 110.804688 C 90.3125 110.964844 90.386719 111.105469 90.480469 111.226562 C 90.570312 111.34375 90.6875 111.4375 90.828125 111.507812 C 90.964844 111.574219 91.125 111.605469 91.304688 111.605469 C 91.5 111.605469 91.667969 111.574219 91.804688 111.507812 C 91.949219 111.4375 92.066406 111.34375 92.164062 111.226562 C 92.253906 111.105469 92.324219 110.960938 92.367188 110.792969 C 92.414062 110.628906 92.433594 110.445312 92.433594 110.25 Z M 92.433594 110.25 "/>
<path style=" stroke:none;fill-rule:nonzero;fill:rgb(0%,0%,0%);fill-opacity:1;" d="M 128.167969 112.910156 C 128.167969 113.207031 128.125 113.476562 128.039062 113.722656 C 127.953125 113.96875 127.824219 114.175781 127.660156 114.351562 C 127.5 114.523438 127.300781 114.660156 127.0625 114.75 C 126.828125 114.84375 126.5625 114.890625 126.269531 114.890625 C 125.949219 114.890625 125.671875 114.84375 125.433594 114.75 C 125.199219 114.652344 125.003906 114.511719 124.847656 114.339844 C 124.6875 114.160156 124.566406 113.949219 124.488281 113.710938 C 124.40625 113.46875 124.367188 113.199219 124.367188 112.910156 C 124.367188 112.613281 124.40625 112.34375 124.488281 112.105469 C 124.574219 111.863281 124.695312 111.65625 124.855469 111.488281 C 125.023438 111.324219 125.222656 111.195312 125.453125 111.097656 C 125.691406 111.007812 125.964844 110.957031 126.269531 110.957031 C 126.574219 110.957031 126.84375 111.007812 127.082031 111.097656 C 127.320312 111.195312 127.519531 111.328125 127.679688 111.5 C 127.835938 111.667969 127.957031 111.867188 128.039062 112.105469 C 128.125 112.34375 128.167969 112.613281 128.167969 112.910156 Z M 127.636719 112.910156 C 127.636719 112.679688 127.605469 112.46875 127.550781 112.28125 C 127.488281 112.09375 127.402344 111.933594 127.289062 111.804688 C 127.171875 111.667969 127.027344 111.5625 126.855469 111.488281 C 126.6875 111.417969 126.492188 111.382812 126.269531 111.382812 C 126.042969 111.382812 125.84375 111.417969 125.671875 111.488281 C 125.496094 111.5625 125.351562 111.667969 125.238281 111.804688 C 125.128906 111.933594 125.042969 112.09375 124.988281 112.28125 C 124.925781 112.46875 124.902344 112.679688 124.902344 112.910156 C 124.902344 113.140625 124.925781 113.351562 124.988281 113.546875 C 125.042969 113.738281 125.132812 113.902344 125.246094 114.035156 C 125.363281 114.175781 125.503906 114.28125 125.671875 114.363281 C 125.84375 114.433594 126.042969 114.46875 126.269531 114.46875 C 126.507812 114.46875 126.714844 114.433594 126.886719 114.363281 C 127.0625 114.28125 127.203125 114.175781 127.3125 114.035156 C 127.417969 113.894531 127.5 113.726562 127.550781 113.539062 C 127.605469 113.34375 127.636719 113.132812 127.636719 112.910156 Z M 127.636719 112.910156 "/>
<path style=" stroke:none;fill-rule:nonzero;fill:rgb(0%,0%,0%);fill-opacity:1;" d="M 106.144531 98.59375 C 106.144531 98.894531 106.101562 99.164062 106.015625 99.40625 C 105.925781 99.652344 105.800781 99.863281 105.632812 100.035156 C 105.472656 100.210938 105.277344 100.34375 105.035156 100.4375 C 104.804688 100.527344 104.539062 100.578125 104.246094 100.578125 C 103.925781 100.578125 103.648438 100.527344 103.410156 100.4375 C 103.175781 100.335938 102.980469 100.199219 102.820312 100.023438 C 102.660156 99.847656 102.542969 99.636719 102.464844 99.398438 C 102.382812 99.152344 102.34375 98.882812 102.34375 98.59375 C 102.34375 98.300781 102.382812 98.03125 102.464844 97.792969 C 102.550781 97.546875 102.671875 97.34375 102.832031 97.175781 C 103 97.007812 103.195312 96.878906 103.429688 96.785156 C 103.667969 96.691406 103.941406 96.644531 104.246094 96.644531 C 104.546875 96.644531 104.820312 96.691406 105.058594 96.785156 C 105.296875 96.878906 105.496094 97.011719 105.65625 97.1875 C 105.8125 97.355469 105.933594 97.554688 106.015625 97.792969 C 106.101562 98.03125 106.144531 98.300781 106.144531 98.59375 Z M 105.613281 98.59375 C 105.613281 98.363281 105.582031 98.15625 105.527344 97.964844 C 105.464844 97.777344 105.378906 97.621094 105.265625 97.488281 C 105.148438 97.355469 105.003906 97.246094 104.832031 97.175781 C 104.664062 97.105469 104.46875 97.066406 104.246094 97.066406 C 104.019531 97.066406 103.820312 97.105469 103.648438 97.175781 C 103.472656 97.246094 103.328125 97.355469 103.210938 97.488281 C 103.105469 97.621094 103.019531 97.777344 102.964844 97.964844 C 102.902344 98.15625 102.875 98.363281 102.875 98.59375 C 102.875 98.828125 102.902344 99.039062 102.964844 99.234375 C 103.019531 99.421875 103.105469 99.585938 103.222656 99.722656 C 103.335938 99.859375 103.480469 99.96875 103.648438 100.046875 C 103.820312 100.121094 104.019531 100.15625 104.246094 100.15625 C 104.484375 100.15625 104.691406 100.121094 104.863281 100.046875 C 105.035156 99.96875 105.179688 99.859375 105.285156 99.722656 C 105.394531 99.578125 105.472656 99.414062 105.527344 99.222656 C 105.582031 99.027344 105.613281 98.820312 105.613281 98.59375 Z M 105.613281 98.59375 "/>
<path style=" stroke:none;fill-rule:nonzero;fill:rgb(0%,0%,0%);fill-opacity:1;" d="M 106.726562 96.269531 L 109.046875 96.269531 L 109.046875 96.734375 L 106.726562 96.734375 "/>
<path style=" stroke:none;fill-rule:nonzero;fill:rgb(0%,0%,47.058824%);fill-opacity:1;" d="M 63.625 102.660156 C 63.625 102.960938 63.574219 103.230469 63.484375 103.472656 C 63.394531 103.722656 63.269531 103.929688 63.101562 104.101562 C 62.933594 104.277344 62.734375 104.410156 62.496094 104.503906 C 62.257812 104.597656 61.984375 104.644531 61.679688 104.644531 C 61.359375 104.644531 61.082031 104.597656 60.84375 104.503906 C 60.605469 104.402344 60.402344 104.265625 60.238281 104.09375 C 60.078125 103.914062 59.957031 103.703125 59.878906 103.464844 C 59.796875 103.21875 59.757812 102.953125 59.757812 102.660156 C 59.757812 102.367188 59.796875 102.097656 59.878906 101.859375 C 59.964844 101.617188 60.089844 101.410156 60.257812 101.242188 C 60.425781 101.078125 60.628906 100.945312 60.867188 100.851562 C 61.105469 100.757812 61.378906 100.710938 61.691406 100.710938 C 62 100.710938 62.277344 100.757812 62.515625 100.851562 C 62.753906 100.945312 62.953125 101.078125 63.113281 101.253906 C 63.28125 101.421875 63.40625 101.621094 63.492188 101.859375 C 63.582031 102.097656 63.625 102.367188 63.625 102.660156 Z M 62.808594 102.660156 C 62.808594 102.460938 62.78125 102.28125 62.734375 102.121094 C 62.683594 101.960938 62.609375 101.824219 62.515625 101.707031 C 62.421875 101.59375 62.304688 101.503906 62.167969 101.4375 C 62.03125 101.371094 61.871094 101.339844 61.691406 101.339844 C 61.5 101.339844 61.335938 101.371094 61.191406 101.4375 C 61.054688 101.503906 60.9375 101.59375 60.84375 101.707031 C 60.75 101.824219 60.675781 101.960938 60.628906 102.121094 C 60.585938 102.28125 60.5625 102.460938 60.5625 102.660156 C 60.5625 102.863281 60.585938 103.050781 60.636719 103.214844 C 60.6875 103.375 60.761719 103.515625 60.855469 103.636719 C 60.949219 103.753906 61.066406 103.847656 61.203125 103.917969 C 61.339844 103.984375 61.5 104.015625 61.679688 104.015625 C 61.875 104.015625 62.042969 103.984375 62.179688 103.917969 C 62.324219 103.847656 62.445312 103.753906 62.539062 103.636719 C 62.628906 103.515625 62.703125 103.371094 62.746094 103.203125 C 62.789062 103.039062 62.808594 102.855469 62.808594 102.660156 Z M 62.808594 102.660156 "/>
<path style=" stroke:none;fill-rule:nonzero;fill:rgb(0%,0%,47.058824%);fill-opacity:1;" d="M 84.394531 143.496094 C 84.394531 143.796875 84.34375 144.066406 84.253906 144.308594 C 84.167969 144.554688 84.039062 144.765625 83.875 144.9375 C 83.703125 145.113281 83.503906 145.246094 83.265625 145.339844 C 83.027344 145.433594 82.753906 145.480469 82.449219 145.480469 C 82.128906 145.480469 81.855469 145.433594 81.613281 145.339844 C 81.375 145.238281 81.171875 145.101562 81.007812 144.929688 C 80.847656 144.75 80.726562 144.539062 80.648438 144.300781 C 80.566406 144.054688 80.527344 143.785156 80.527344 143.496094 C 80.527344 143.203125 80.566406 142.933594 80.648438 142.695312 C 80.734375 142.453125 80.859375 142.246094 81.027344 142.078125 C 81.195312 141.910156 81.398438 141.78125 81.636719 141.6875 C 81.875 141.59375 82.148438 141.546875 82.460938 141.546875 C 82.769531 141.546875 83.046875 141.59375 83.285156 141.6875 C 83.527344 141.78125 83.722656 141.914062 83.882812 142.089844 C 84.050781 142.257812 84.175781 142.457031 84.265625 142.695312 C 84.351562 142.933594 84.394531 143.203125 84.394531 143.496094 Z M 83.578125 143.496094 C 83.578125 143.296875 83.554688 143.113281 83.503906 142.957031 C 83.453125 142.796875 83.378906 142.660156 83.285156 142.542969 C 83.191406 142.429688 83.074219 142.335938 82.941406 142.273438 C 82.800781 142.207031 82.640625 142.175781 82.460938 142.175781 C 82.273438 142.175781 82.105469 142.207031 81.960938 142.273438 C 81.824219 142.335938 81.707031 142.429688 81.613281 142.542969 C 81.519531 142.660156 81.445312 142.796875 81.398438 142.957031 C 81.355469 143.113281 81.332031 143.296875 81.332031 143.496094 C 81.332031 143.699219 81.355469 143.882812 81.410156 144.050781 C 81.457031 144.210938 81.53125 144.351562 81.625 144.472656 C 81.71875 144.589844 81.835938 144.683594 81.972656 144.753906 C 82.109375 144.820312 82.269531 144.851562 82.449219 144.851562 C 82.644531 144.851562 82.8125 144.820312 82.949219 144.753906 C 83.09375 144.683594 83.214844 144.589844 83.308594 144.472656 C 83.402344 144.351562 83.472656 144.207031 83.515625 144.039062 C 83.558594 143.875 83.578125 143.691406 83.578125 143.496094 Z M 83.578125 143.496094 "/>
<path style=" stroke:none;fill-rule:nonzero;fill:rgb(0%,0%,47.058824%);fill-opacity:1;" d="M 50.925781 153.042969 C 50.925781 153.339844 50.878906 153.613281 50.785156 153.855469 C 50.699219 154.101562 50.570312 154.3125 50.40625 154.484375 C 50.238281 154.65625 50.035156 154.792969 49.796875 154.886719 C 49.558594 154.976562 49.285156 155.027344 48.984375 155.027344 C 48.664062 155.027344 48.386719 154.976562 48.148438 154.886719 C 47.90625 154.785156 47.703125 154.648438 47.539062 154.472656 C 47.378906 154.292969 47.257812 154.082031 47.179688 153.84375 C 47.097656 153.601562 47.0625 153.332031 47.0625 153.042969 C 47.0625 152.746094 47.097656 152.480469 47.179688 152.242188 C 47.265625 151.996094 47.390625 151.789062 47.5625 151.621094 C 47.726562 151.457031 47.929688 151.328125 48.167969 151.234375 C 48.40625 151.140625 48.683594 151.09375 48.992188 151.09375 C 49.304688 151.09375 49.582031 151.140625 49.820312 151.234375 C 50.058594 151.328125 50.257812 151.460938 50.417969 151.632812 C 50.582031 151.800781 50.710938 152.003906 50.796875 152.242188 C 50.882812 152.480469 50.925781 152.746094 50.925781 153.042969 Z M 50.113281 153.042969 C 50.113281 152.84375 50.085938 152.660156 50.035156 152.5 C 49.984375 152.34375 49.910156 152.207031 49.820312 152.089844 C 49.722656 151.976562 49.605469 151.882812 49.472656 151.816406 C 49.332031 151.753906 49.171875 151.71875 48.992188 151.71875 C 48.804688 151.71875 48.636719 151.753906 48.496094 151.816406 C 48.355469 151.882812 48.238281 151.976562 48.148438 152.089844 C 48.050781 152.207031 47.980469 152.34375 47.929688 152.5 C 47.886719 152.660156 47.863281 152.84375 47.863281 153.042969 C 47.863281 153.246094 47.890625 153.429688 47.941406 153.59375 C 47.988281 153.753906 48.0625 153.894531 48.15625 154.019531 C 48.25 154.132812 48.367188 154.230469 48.503906 154.300781 C 48.640625 154.363281 48.800781 154.398438 48.984375 154.398438 C 49.179688 154.398438 49.34375 154.363281 49.484375 154.300781 C 49.625 154.230469 49.746094 154.132812 49.839844 154.019531 C 49.933594 153.894531 50.003906 153.753906 50.046875 153.585938 C 50.089844 153.417969 50.113281 153.238281 50.113281 153.042969 Z M 50.113281 153.042969 "/>
<path style=" stroke:none;fill-rule:nonzero;fill:rgb(0%,0%,47.058824%);fill-opacity:1;" d="M 25.457031 129.105469 C 25.457031 129.402344 25.410156 129.671875 25.316406 129.917969 C 25.230469 130.164062 25.101562 130.371094 24.9375 130.546875 C 24.769531 130.71875 24.566406 130.855469 24.328125 130.945312 C 24.089844 131.039062 23.820312 131.085938 23.515625 131.085938 C 23.195312 131.085938 22.917969 131.039062 22.679688 130.945312 C 22.441406 130.847656 22.234375 130.707031 22.070312 130.535156 C 21.910156 130.355469 21.789062 130.144531 21.710938 129.90625 C 21.628906 129.664062 21.59375 129.394531 21.59375 129.105469 C 21.59375 128.808594 21.628906 128.539062 21.710938 128.300781 C 21.800781 128.058594 21.921875 127.851562 22.09375 127.683594 C 22.257812 127.519531 22.460938 127.390625 22.699219 127.292969 C 22.9375 127.203125 23.214844 127.152344 23.523438 127.152344 C 23.835938 127.152344 24.113281 127.203125 24.351562 127.292969 C 24.589844 127.390625 24.789062 127.523438 24.949219 127.695312 C 25.113281 127.863281 25.242188 128.0625 25.328125 128.300781 C 25.414062 128.539062 25.457031 128.808594 25.457031 129.105469 Z M 24.644531 129.105469 C 24.644531 128.902344 24.617188 128.722656 24.566406 128.5625 C 24.515625 128.40625 24.441406 128.265625 24.351562 128.148438 C 24.253906 128.035156 24.136719 127.945312 24.003906 127.878906 C 23.863281 127.8125 23.703125 127.78125 23.523438 127.78125 C 23.335938 127.78125 23.167969 127.8125 23.027344 127.878906 C 22.886719 127.945312 22.769531 128.035156 22.679688 128.148438 C 22.582031 128.265625 22.511719 128.40625 22.460938 128.5625 C 22.417969 128.722656 22.394531 128.902344 22.394531 129.105469 C 22.394531 129.308594 22.421875 129.492188 22.472656 129.65625 C 22.519531 129.816406 22.59375 129.957031 22.6875 130.078125 C 22.78125 130.195312 22.898438 130.289062 23.035156 130.359375 C 23.171875 130.425781 23.332031 130.457031 23.515625 130.457031 C 23.710938 130.457031 23.875 130.425781 24.015625 130.359375 C 24.15625 130.289062 24.277344 130.195312 24.371094 130.078125 C 24.464844 129.957031 24.535156 129.8125 24.578125 129.644531 C 24.621094 129.480469 24.644531 129.300781 24.644531 129.105469 Z M 24.644531 129.105469 "/>
<path style=" stroke:none;fill-rule:nonzero;fill:rgb(0%,0%,47.058824%);fill-opacity:1;" d="M 19.03125 103.367188 C 19.03125 103.664062 18.980469 103.933594 18.890625 104.179688 C 18.800781 104.425781 18.675781 104.632812 18.507812 104.808594 C 18.339844 104.980469 18.140625 105.117188 17.902344 105.207031 C 17.664062 105.300781 17.390625 105.347656 17.085938 105.347656 C 16.765625 105.347656 16.488281 105.300781 16.25 105.207031 C 16.011719 105.109375 15.808594 104.96875 15.644531 104.796875 C 15.484375 104.617188 15.363281 104.40625 15.285156 104.167969 C 15.203125 103.925781 15.164062 103.65625 15.164062 103.367188 C 15.164062 103.070312 15.203125 102.800781 15.285156 102.5625 C 15.371094 102.320312 15.496094 102.113281 15.664062 101.945312 C 15.828125 101.78125 16.035156 101.652344 16.273438 101.554688 C 16.511719 101.464844 16.785156 101.414062 17.097656 101.414062 C 17.40625 101.414062 17.683594 101.464844 17.921875 101.554688 C 18.160156 101.652344 18.359375 101.785156 18.519531 101.957031 C 18.683594 102.125 18.8125 102.324219 18.898438 102.5625 C 18.988281 102.800781 19.03125 103.070312 19.03125 103.367188 Z M 18.214844 103.367188 C 18.214844 103.164062 18.1875 102.984375 18.140625 102.824219 C 18.089844 102.667969 18.015625 102.527344 17.921875 102.414062 C 17.828125 102.296875 17.710938 102.207031 17.574219 102.140625 C 17.4375 102.078125 17.277344 102.042969 17.097656 102.042969 C 16.90625 102.042969 16.742188 102.078125 16.597656 102.140625 C 16.460938 102.207031 16.34375 102.296875 16.25 102.414062 C 16.15625 102.527344 16.082031 102.667969 16.035156 102.824219 C 15.988281 102.984375 15.96875 103.164062 15.96875 103.367188 C 15.96875 103.570312 15.992188 103.753906 16.042969 103.917969 C 16.09375 104.078125 16.167969 104.21875 16.261719 104.339844 C 16.355469 104.457031 16.46875 104.554688 16.609375 104.625 C 16.746094 104.6875 16.90625 104.722656 17.085938 104.722656 C 17.28125 104.722656 17.449219 104.6875 17.585938 104.625 C 17.730469 104.554688 17.847656 104.457031 17.945312 104.339844 C 18.035156 104.21875 18.105469 104.074219 18.152344 103.90625 C 18.195312 103.742188 18.214844 103.5625 18.214844 103.367188 Z M 18.214844 103.367188 "/>
<path style=" stroke:none;fill-rule:nonzero;fill:rgb(0%,0%,0%);fill-opacity:1;" d="M 121.976562 86.175781 L 119.925781 82.921875 C 119.929688 83.007812 119.9375 83.097656 119.9375 83.183594 C 119.941406 83.257812 119.945312 83.335938 119.945312 83.421875 C 119.953125 83.503906 119.957031 83.574219 119.957031 83.636719 L 119.957031 86.175781 L 119.492188 86.175781 L 119.492188 82.359375 L 120.097656 82.359375 L 122.160156 85.632812 C 122.160156 85.632812 122.15625 85.542969 122.152344 85.359375 C 122.144531 85.289062 122.132812 85.210938 122.128906 85.121094 C 122.128906 85.03125 122.128906 84.945312 122.128906 84.863281 L 122.128906 82.359375 L 122.597656 82.359375 L 122.597656 86.175781 Z M 121.976562 86.175781 "/>
<path style=" stroke:none;fill-rule:nonzero;fill:rgb(0%,0%,0%);fill-opacity:1;" d="M 124.34375 86.226562 C 124.042969 86.226562 123.820312 86.152344 123.671875 86 C 123.523438 85.84375 123.453125 85.625 123.453125 85.351562 C 123.453125 85.164062 123.488281 85.007812 123.5625 84.882812 C 123.632812 84.753906 123.726562 84.65625 123.84375 84.589844 C 123.964844 84.519531 124.105469 84.46875 124.257812 84.441406 C 124.410156 84.414062 124.5625 84.398438 124.722656 84.398438 L 125.375 84.386719 L 125.375 84.222656 C 125.375 84.101562 125.359375 84 125.332031 83.917969 C 125.308594 83.832031 125.269531 83.765625 125.222656 83.714844 C 125.171875 83.65625 125.105469 83.617188 125.027344 83.59375 C 124.945312 83.574219 124.851562 83.5625 124.746094 83.5625 C 124.648438 83.5625 124.5625 83.570312 124.484375 83.582031 C 124.410156 83.59375 124.347656 83.613281 124.289062 83.648438 C 124.238281 83.6875 124.195312 83.734375 124.160156 83.800781 C 124.121094 83.859375 124.097656 83.9375 124.09375 84.027344 L 123.582031 83.972656 C 123.597656 83.859375 123.628906 83.753906 123.679688 83.660156 C 123.730469 83.566406 123.804688 83.484375 123.898438 83.410156 C 123.992188 83.339844 124.105469 83.285156 124.246094 83.246094 C 124.390625 83.203125 124.558594 83.183594 124.753906 83.183594 C 125.125 83.183594 125.402344 83.269531 125.589844 83.441406 C 125.777344 83.609375 125.875 83.851562 125.875 84.167969 L 125.875 85.4375 C 125.875 85.582031 125.890625 85.691406 125.929688 85.761719 C 125.964844 85.835938 126.035156 85.871094 126.144531 85.871094 C 126.171875 85.871094 126.199219 85.871094 126.222656 85.871094 C 126.25 85.867188 126.277344 85.855469 126.308594 85.847656 L 126.308594 86.152344 C 126.242188 86.175781 126.179688 86.1875 126.125 86.195312 C 126.0625 86.203125 126 86.207031 125.929688 86.207031 C 125.832031 86.207031 125.753906 86.195312 125.6875 86.175781 C 125.625 86.148438 125.570312 86.105469 125.527344 86.054688 C 125.488281 86.007812 125.460938 85.945312 125.441406 85.871094 C 125.417969 85.800781 125.402344 85.714844 125.394531 85.609375 L 125.375 85.609375 C 125.324219 85.707031 125.265625 85.792969 125.199219 85.871094 C 125.140625 85.945312 125.070312 86.007812 124.984375 86.066406 C 124.902344 86.117188 124.808594 86.15625 124.703125 86.183594 C 124.597656 86.210938 124.480469 86.226562 124.34375 86.226562 Z M 124.453125 85.859375 C 124.605469 85.859375 124.738281 85.832031 124.851562 85.773438 C 124.976562 85.714844 125.074219 85.644531 125.148438 85.554688 C 125.226562 85.46875 125.28125 85.378906 125.320312 85.273438 C 125.355469 85.167969 125.375 85.066406 125.375 84.972656 L 125.375 84.722656 L 124.84375 84.734375 C 124.726562 84.742188 124.613281 84.75 124.507812 84.765625 C 124.398438 84.78125 124.300781 84.808594 124.210938 84.851562 C 124.132812 84.894531 124.066406 84.960938 124.015625 85.046875 C 123.972656 85.128906 123.953125 85.230469 123.953125 85.359375 C 123.953125 85.519531 123.996094 85.644531 124.082031 85.730469 C 124.167969 85.816406 124.292969 85.859375 124.453125 85.859375 Z M 124.453125 85.859375 "/>
<path style=" stroke:none;fill-rule:nonzero;fill:rgb(0%,0%,0%);fill-opacity:1;" d="M 126.886719 82.011719 L 127.820312 82.011719 L 127.820312 81.082031 L 128.28125 81.082031 L 128.28125 82.011719 L 129.214844 82.011719 L 129.214844 82.476562 L 128.28125 82.476562 L 128.28125 83.40625 L 127.820312 83.40625 L 127.820312 82.476562 L 126.886719 82.476562 "/>
<path style=" stroke:none;fill-rule:nonzero;fill:rgb(0%,0%,0%);fill-opacity:1;" d="M 101.132812 176.84375 L 99.078125 173.59375 C 99.085938 173.679688 99.089844 173.765625 99.089844 173.851562 C 99.09375 173.925781 99.101562 174.003906 99.101562 174.089844 C 99.105469 174.171875 99.113281 174.242188 99.113281 174.308594 L 99.113281 176.84375 L 98.644531 176.84375 L 98.644531 173.027344 L 99.253906 173.027344 L 101.316406 176.300781 C 101.316406 176.300781 101.308594 176.210938 101.304688 176.03125 C 101.296875 175.960938 101.289062 175.878906 101.28125 175.792969 C 101.28125 175.699219 101.28125 175.613281 101.28125 175.53125 L 101.28125 173.027344 L 101.75 173.027344 L 101.75 176.84375 Z M 101.132812 176.84375 "/>
<path style=" stroke:none;fill-rule:nonzero;fill:rgb(0%,0%,0%);fill-opacity:1;" d="M 103.496094 176.898438 C 103.199219 176.898438 102.976562 176.820312 102.824219 176.671875 C 102.675781 176.511719 102.605469 176.296875 102.605469 176.019531 C 102.605469 175.832031 102.640625 175.679688 102.714844 175.554688 C 102.785156 175.421875 102.878906 175.324219 102.996094 175.261719 C 103.121094 175.191406 103.257812 175.140625 103.410156 175.109375 C 103.5625 175.082031 103.71875 175.066406 103.878906 175.066406 L 104.527344 175.054688 L 104.527344 174.890625 C 104.527344 174.769531 104.511719 174.671875 104.484375 174.589844 C 104.464844 174.503906 104.425781 174.433594 104.375 174.382812 C 104.324219 174.328125 104.257812 174.285156 104.179688 174.265625 C 104.097656 174.242188 104.007812 174.230469 103.898438 174.230469 C 103.804688 174.230469 103.71875 174.238281 103.636719 174.253906 C 103.566406 174.261719 103.5 174.28125 103.441406 174.316406 C 103.390625 174.355469 103.347656 174.40625 103.3125 174.46875 C 103.273438 174.53125 103.253906 174.605469 103.246094 174.699219 L 102.738281 174.644531 C 102.75 174.53125 102.78125 174.421875 102.835938 174.328125 C 102.882812 174.238281 102.957031 174.152344 103.050781 174.078125 C 103.144531 174.007812 103.261719 173.953125 103.398438 173.917969 C 103.542969 173.875 103.714844 173.851562 103.910156 173.851562 C 104.277344 173.851562 104.554688 173.9375 104.746094 174.113281 C 104.933594 174.28125 105.027344 174.519531 105.027344 174.839844 L 105.027344 176.105469 C 105.027344 176.253906 105.042969 176.359375 105.082031 176.429688 C 105.117188 176.503906 105.191406 176.539062 105.300781 176.539062 C 105.328125 176.539062 105.355469 176.539062 105.375 176.539062 C 105.402344 176.535156 105.433594 176.527344 105.460938 176.519531 L 105.460938 176.820312 C 105.398438 176.84375 105.335938 176.855469 105.277344 176.863281 C 105.21875 176.871094 105.152344 176.875 105.082031 176.875 C 104.988281 176.875 104.910156 176.863281 104.84375 176.84375 C 104.777344 176.816406 104.722656 176.777344 104.679688 176.722656 C 104.640625 176.675781 104.617188 176.613281 104.59375 176.539062 C 104.570312 176.46875 104.554688 176.382812 104.550781 176.28125 L 104.527344 176.28125 C 104.476562 176.375 104.417969 176.460938 104.355469 176.539062 C 104.296875 176.613281 104.222656 176.679688 104.136719 176.734375 C 104.054688 176.785156 103.964844 176.828125 103.855469 176.855469 C 103.753906 176.882812 103.632812 176.898438 103.496094 176.898438 Z M 103.605469 176.527344 C 103.757812 176.527344 103.890625 176.503906 104.007812 176.441406 C 104.128906 176.386719 104.226562 176.3125 104.300781 176.226562 C 104.378906 176.140625 104.4375 176.046875 104.472656 175.945312 C 104.507812 175.835938 104.527344 175.734375 104.527344 175.640625 L 104.527344 175.390625 L 103.996094 175.402344 C 103.878906 175.410156 103.769531 175.421875 103.660156 175.433594 C 103.550781 175.449219 103.453125 175.476562 103.367188 175.519531 C 103.285156 175.566406 103.21875 175.628906 103.171875 175.714844 C 103.128906 175.796875 103.105469 175.902344 103.105469 176.03125 C 103.105469 176.191406 103.148438 176.3125 103.238281 176.398438 C 103.324219 176.484375 103.445312 176.527344 103.605469 176.527344 Z M 103.605469 176.527344 "/>
<path style=" stroke:none;fill-rule:nonzero;fill:rgb(0%,0%,0%);fill-opacity:1;" d="M 106.042969 172.683594 L 106.972656 172.683594 L 106.972656 171.753906 L 107.4375 171.753906 L 107.4375 172.683594 L 108.367188 172.683594 L 108.367188 173.148438 L 107.4375 173.148438 L 107.4375 174.078125 L 106.972656 174.078125 L 106.972656 173.148438 L 106.042969 173.148438 "/>
<path style="fill:none;stroke-width:0.0333333;stroke-linecap:butt;stroke-linejoin:miter;stroke:rgb(0%,0%,0%);stroke-opacity:1;stroke-miterlimit:10;" d="M 8.734315 4.028007 L 8.722622 3.181703 " transform="matrix(17.371795,0,0,17.34104,17.097403,17.17361)"/>
<path style=" stroke:none;fill-rule:nonzero;fill:rgb(0%,0%,0%);fill-opacity:1;" d="M 168.824219 86.875 L 156.800781 93.058594 L 159.175781 96.335938 "/>
<path style="fill:none;stroke-width:0.0333333;stroke-linecap:butt;stroke-linejoin:miter;stroke:rgb(0%,0%,0%);stroke-opacity:1;stroke-miterlimit:10;" d="M 8.727344 4.014716 L 9.555734 4.617513 " transform="matrix(17.371795,0,0,17.34104,17.097403,17.17361)"/>
<path style="fill:none;stroke-width:0.0333333;stroke-linecap:butt;stroke-linejoin:miter;stroke:rgb(0%,0%,0%);stroke-opacity:1;stroke-miterlimit:10;" d="M 8.885871 2.927384 L 9.567877 2.516735 " transform="matrix(17.371795,0,0,17.34104,17.097403,17.17361)"/>
<path style="fill:none;stroke-width:0.0333333;stroke-linecap:butt;stroke-linejoin:miter;stroke:rgb(0%,0%,0%);stroke-opacity:1;stroke-miterlimit:10;" d="M 8.553976 2.935719 L 7.814181 2.530701 " transform="matrix(17.371795,0,0,17.34104,17.097403,17.17361)"/>
<path style="fill:none;stroke-width:0.0333333;stroke-linecap:butt;stroke-linejoin:miter;stroke:rgb(0%,0%,0%);stroke-opacity:1;stroke-miterlimit:10;" d="M 7.996769 4.78353 L 8.255135 5.573969 " transform="matrix(17.371795,0,0,17.34104,17.097403,17.17361)"/>
<path style="fill:none;stroke-width:0.0333333;stroke-linecap:butt;stroke-linejoin:miter;stroke:rgb(0%,0%,0%);stroke-opacity:1;stroke-miterlimit:10;" d="M 9.549663 4.599042 L 9.240253 5.573969 " transform="matrix(17.371795,0,0,17.34104,17.097403,17.17361)"/>
<path style="fill:none;stroke-width:0.0333333;stroke-linecap:butt;stroke-linejoin:miter;stroke:rgb(0%,0%,0%);stroke-opacity:1;stroke-miterlimit:10;" d="M 9.614423 4.59769 L 9.608127 4.579219 M 9.682556 4.5844 L 9.669964 4.547683 M 9.750689 4.57156 L 9.731801 4.516371 M 9.818822 4.558495 L 9.793863 4.48506 M 9.88718 4.545655 L 9.8557 4.453524 M 9.955313 4.53259 L 9.917761 4.422212 M 10.023671 4.51975 L 9.979598 4.390676 M 10.091804 4.506685 L 10.04166 4.359365 M 10.159937 4.49362 L 10.103497 4.328054 M 10.22807 4.480555 L 10.165334 4.296742 M 10.296428 4.467715 L 10.227396 4.265206 M 10.364561 4.45465 L 10.289233 4.233895 " transform="matrix(17.371795,0,0,17.34104,17.097403,17.17361)"/>
<path style="fill:none;stroke-width:0.0333333;stroke-linecap:butt;stroke-linejoin:miter;stroke:rgb(0%,0%,0%);stroke-opacity:1;stroke-miterlimit:10;" d="M 9.559782 2.531151 L 9.559782 1.66908 " transform="matrix(17.371795,0,0,17.34104,17.097403,17.17361)"/>
<path style="fill:none;stroke-width:0.0333333;stroke-linecap:butt;stroke-linejoin:miter;stroke:rgb(0%,0%,0%);stroke-opacity:1;stroke-miterlimit:10;" d="M 9.477482 2.571248 L 10.215703 2.983925 " transform="matrix(17.371795,0,0,17.34104,17.097403,17.17361)"/>
<path style="fill:none;stroke-width:0.0333333;stroke-linecap:butt;stroke-linejoin:miter;stroke:rgb(0%,0%,0%);stroke-opacity:1;stroke-miterlimit:10;" d="M 9.559782 2.42618 L 10.297103 2.838406 " transform="matrix(17.371795,0,0,17.34104,17.097403,17.17361)"/>
<path style="fill:none;stroke-width:0.0333333;stroke-linecap:butt;stroke-linejoin:miter;stroke:rgb(0%,0%,0%);stroke-opacity:1;stroke-miterlimit:10;" d="M 7.822726 2.545343 L 7.822726 1.519732 " transform="matrix(17.371795,0,0,17.34104,17.097403,17.17361)"/>
<path style="fill:none;stroke-width:0.0333333;stroke-linecap:butt;stroke-linejoin:miter;stroke:rgb(0%,0%,0%);stroke-opacity:1;stroke-miterlimit:10;" d="M 7.989573 2.446453 L 7.989573 1.615242 " transform="matrix(17.371795,0,0,17.34104,17.097403,17.17361)"/>
<path style=" stroke:none;fill-rule:nonzero;fill:rgb(0%,0%,0%);fill-opacity:1;" d="M 160.4375 113.632812 L 147.816406 127.609375 L 150.3125 127.847656 L 151.960938 129.023438 "/>
<path style="fill:none;stroke-width:0.0333333;stroke-linecap:butt;stroke-linejoin:miter;stroke:rgb(0%,0%,0%);stroke-opacity:1;stroke-miterlimit:10;" d="M 9.27758 5.626455 L 9.29467 5.614065 M 9.311085 5.690654 L 9.345264 5.66565 M 9.344814 5.754853 L 9.396082 5.71746 M 9.378093 5.819052 L 9.446676 5.769044 M 9.411823 5.883026 L 9.497495 5.820854 M 9.445327 5.947225 L 9.548314 5.872439 M 9.478831 6.011425 L 9.598908 5.924024 M 9.512336 6.075624 L 9.649726 5.975834 M 9.54584 6.139598 L 9.70032 6.027418 M 9.579569 6.203797 L 9.751139 6.079003 M 9.613074 6.267996 L 9.801733 6.130813 " transform="matrix(17.371795,0,0,17.34104,17.097403,17.17361)"/>
<path style="fill:none;stroke-width:0.0333333;stroke-linecap:butt;stroke-linejoin:miter;stroke:rgb(0%,0%,0%);stroke-opacity:1;stroke-miterlimit:10;" d="M 9.393609 1.420617 L 8.68507 1.014698 " transform="matrix(17.371795,0,0,17.34104,17.097403,17.17361)"/>
<path style="fill:none;stroke-width:0.0333333;stroke-linecap:butt;stroke-linejoin:miter;stroke:rgb(0%,0%,0%);stroke-opacity:1;stroke-miterlimit:10;" d="M 7.683536 6.375446 L 6.843678 6.295253 " transform="matrix(17.371795,0,0,17.34104,17.097403,17.17361)"/>
<path style="fill:none;stroke-width:0.0333333;stroke-linecap:butt;stroke-linejoin:miter;stroke:rgb(0%,0%,0%);stroke-opacity:1;stroke-miterlimit:10;" d="M 8.776813 1.067184 L 8.776813 0.156906 " transform="matrix(17.371795,0,0,17.34104,17.097403,17.17361)"/>
<path style="fill:none;stroke-width:0.0333333;stroke-linecap:butt;stroke-linejoin:miter;stroke:rgb(0%,0%,0%);stroke-opacity:1;stroke-miterlimit:10;" d="M 8.610191 1.06831 L 8.610191 0.156906 " transform="matrix(17.371795,0,0,17.34104,17.097403,17.17361)"/>
<path style="fill:none;stroke-width:0.0333333;stroke-linecap:butt;stroke-linejoin:miter;stroke:rgb(0%,0%,0%);stroke-opacity:1;stroke-miterlimit:10;" d="M 6.55653 6.456314 L 6.259937 6.874848 " transform="matrix(17.371795,0,0,17.34104,17.097403,17.17361)"/>
<path style="fill:none;stroke-width:0.0333333;stroke-linecap:butt;stroke-linejoin:miter;stroke:rgb(0%,0%,0%);stroke-opacity:1;stroke-miterlimit:10;" d="M 5.981109 6.974413 L 5.396244 6.748477 " transform="matrix(17.371795,0,0,17.34104,17.097403,17.17361)"/>
<path style="fill:none;stroke-width:0.0333333;stroke-linecap:butt;stroke-linejoin:miter;stroke:rgb(0%,0%,0%);stroke-opacity:1;stroke-miterlimit:10;" d="M 6.197651 7.247654 L 6.511782 7.667089 " transform="matrix(17.371795,0,0,17.34104,17.097403,17.17361)"/>
<path style="fill:none;stroke-width:0.0333333;stroke-linecap:butt;stroke-linejoin:miter;stroke:rgb(0%,0%,0%);stroke-opacity:1;stroke-miterlimit:10;" d="M 6.331218 7.147863 L 6.645125 7.567298 " transform="matrix(17.371795,0,0,17.34104,17.097403,17.17361)"/>
<path style="fill:none;stroke-width:0.0333333;stroke-linecap:butt;stroke-linejoin:miter;stroke:rgb(0%,0%,0%);stroke-opacity:1;stroke-miterlimit:10;" d="M 6.065207 7.213189 L 5.864855 7.6556 " transform="matrix(17.371795,0,0,17.34104,17.097403,17.17361)"/>
<path style="fill:none;stroke-width:0.0333333;stroke-linecap:butt;stroke-linejoin:miter;stroke:rgb(0%,0%,0%);stroke-opacity:1;stroke-miterlimit:10;" d="M 5.213206 6.518486 L 5.221976 5.911409 " transform="matrix(17.371795,0,0,17.34104,17.097403,17.17361)"/>
<path style="fill:none;stroke-width:0.0333333;stroke-linecap:butt;stroke-linejoin:miter;stroke:rgb(0%,0%,0%);stroke-opacity:1;stroke-miterlimit:10;" d="M 5.060525 5.689753 L 4.45992 5.444895 " transform="matrix(17.371795,0,0,17.34104,17.097403,17.17361)"/>
<path style="fill:none;stroke-width:0.0333333;stroke-linecap:butt;stroke-linejoin:miter;stroke:rgb(0%,0%,0%);stroke-opacity:1;stroke-miterlimit:10;" d="M 5.397368 5.803509 L 6.123671 5.642673 " transform="matrix(17.371795,0,0,17.34104,17.097403,17.17361)"/>
<path style="fill:none;stroke-width:0.0333333;stroke-linecap:butt;stroke-linejoin:miter;stroke:rgb(0%,0%,0%);stroke-opacity:1;stroke-miterlimit:10;" d="M 5.361165 5.640646 L 6.087918 5.480035 " transform="matrix(17.371795,0,0,17.34104,17.097403,17.17361)"/>
<path style="fill:none;stroke-width:0.0333333;stroke-linecap:butt;stroke-linejoin:miter;stroke:rgb(0%,0%,0%);stroke-opacity:1;stroke-miterlimit:10;" d="M 5.19072 5.584556 L 5.051081 4.872283 " transform="matrix(17.371795,0,0,17.34104,17.097403,17.17361)"/>
<path style="fill:none;stroke-width:0.06;stroke-linecap:butt;stroke-linejoin:miter;stroke:rgb(0%,0%,47.058824%);stroke-opacity:1;stroke-miterlimit:10;" d="M 3.38823 5.63952 L 3.37901 5.607533 M 3.510329 5.621949 L 3.491891 5.557525 M 3.632204 5.603929 L 3.604771 5.507968 M 3.754304 5.586358 L 3.717427 5.458185 M 3.876179 5.568788 L 3.830308 5.408628 M 3.998279 5.550992 L 3.943188 5.358845 M 4.120154 5.533422 L 4.055844 5.309288 " transform="matrix(17.371795,0,0,17.34104,17.097403,17.17361)"/>
<path style="fill:none;stroke-width:0.06;stroke-linecap:butt;stroke-linejoin:miter;stroke:rgb(0%,0%,47.058824%);stroke-opacity:1;stroke-miterlimit:10;" d="M 3.277598 5.668804 L 2.719716 5.089434 " transform="matrix(17.371795,0,0,17.34104,17.097403,17.17361)"/>
<path style="fill:none;stroke-width:0.06;stroke-linecap:butt;stroke-linejoin:miter;stroke:rgb(0%,0%,47.058824%);stroke-opacity:1;stroke-miterlimit:10;" d="M 3.270177 5.641322 L 3.041043 6.599129 " transform="matrix(17.371795,0,0,17.34104,17.097403,17.17361)"/>
<path style="fill:none;stroke-width:0.06;stroke-linecap:butt;stroke-linejoin:miter;stroke:rgb(0%,0%,47.058824%);stroke-opacity:1;stroke-miterlimit:10;" d="M 2.385122 4.98266 L 1.584839 5.210849 " transform="matrix(17.371795,0,0,17.34104,17.097403,17.17361)"/>
<path style="fill:none;stroke-width:0.06;stroke-linecap:butt;stroke-linejoin:miter;stroke:rgb(0%,0%,47.058824%);stroke-opacity:1;stroke-miterlimit:10;" d="M 3.06218 6.577054 L 2.054126 6.861783 " transform="matrix(17.371795,0,0,17.34104,17.097403,17.17361)"/>
<path style="fill:none;stroke-width:0.06;stroke-linecap:butt;stroke-linejoin:miter;stroke:rgb(0%,0%,47.058824%);stroke-opacity:1;stroke-miterlimit:10;" d="M 3.124917 6.687431 L 3.152125 6.659724 M 3.204742 6.792853 L 3.259159 6.737439 M 3.284568 6.8985 L 3.366193 6.815154 M 3.364169 7.003922 L 3.473227 6.892869 M 3.443995 7.109344 L 3.580261 6.970584 M 3.523821 7.214766 L 3.687296 7.048298 " transform="matrix(17.371795,0,0,17.34104,17.097403,17.17361)"/>
<path style="fill:none;stroke-width:0.06;stroke-linecap:butt;stroke-linejoin:miter;stroke:rgb(0%,0%,47.058824%);stroke-opacity:1;stroke-miterlimit:10;" d="M 1.605751 5.188999 L 1.363126 6.183298 " transform="matrix(17.371795,0,0,17.34104,17.097403,17.17361)"/>
<path style=" stroke:none;fill-rule:nonzero;fill:rgb(0%,0%,47.058824%);fill-opacity:1;" d="M 44.917969 107.453125 L 33.539062 94.914062 L 32.210938 96.441406 L 30.035156 97.394531 "/>
<path style=" stroke:none;fill-rule:nonzero;fill:rgb(0%,0%,47.058824%);fill-opacity:1;" d="M 53.070312 136.082031 L 47.789062 149.410156 L 51.730469 150.355469 "/>
<path style="fill:none;stroke-width:0.06;stroke-linecap:butt;stroke-linejoin:miter;stroke:rgb(0%,0%,47.058824%);stroke-opacity:1;stroke-miterlimit:10;" d="M 1.246423 6.184425 L 1.255642 6.216637 M 1.125672 6.20222 L 1.144335 6.265969 M 1.004921 6.219565 L 1.032804 6.315752 M 0.884171 6.237361 L 0.921498 6.365534 M 0.763645 6.254931 L 0.809966 6.414866 M 0.642894 6.272502 L 0.698435 6.464649 M 0.522143 6.290072 L 0.587128 6.514206 " transform="matrix(17.371795,0,0,17.34104,17.097403,17.17361)"/>
<path style="fill:none;stroke-width:0.06;stroke-linecap:butt;stroke-linejoin:miter;stroke:rgb(0%,0%,47.058824%);stroke-opacity:1;stroke-miterlimit:10;" d="M 0.90171 4.57584 L 0.187324 4.889177 " transform="matrix(17.371795,0,0,17.34104,17.097403,17.17361)"/>
<path style="fill:none;stroke-width:0.0333333;stroke-linecap:butt;stroke-linejoin:miter;stroke:rgb(0%,0%,0%);stroke-opacity:1;stroke-miterlimit:10;" d="M 8.239394 5.562481 L 9.256218 5.562481 " transform="matrix(17.371795,0,0,17.34104,17.097403,17.17361)"/>
<path style="fill:none;stroke-width:0.0333333;stroke-linecap:butt;stroke-linejoin:miter;stroke:rgb(0%,0%,0%);stroke-opacity:1;stroke-miterlimit:10;" d="M 7.814631 1.533923 L 8.701935 1.014473 " transform="matrix(17.371795,0,0,17.34104,17.097403,17.17361)"/>
<path style="fill:none;stroke-width:0.06;stroke-linecap:butt;stroke-linejoin:miter;stroke:rgb(0%,0%,47.058824%);stroke-opacity:1;stroke-miterlimit:10;" d="M 2.083358 6.869442 L 1.355031 6.154916 " transform="matrix(17.371795,0,0,17.34104,17.097403,17.17361)"/>
</g>
</svg>
