<?xml version="1.0" encoding="UTF-8"?>
<svg xmlns="http://www.w3.org/2000/svg" xmlns:xlink="http://www.w3.org/1999/xlink" width="97.6pt" height="100pt" viewBox="0 0 97.6 100" version="1.1">
<g id="surface952">
<path style=" stroke:none;fill-rule:nonzero;fill:rgb(0%,0%,0%);fill-opacity:1;" d="M 79.5625 33.078125 L 77.515625 29.839844 C 77.523438 29.925781 77.527344 30.011719 77.527344 30.097656 C 77.535156 30.171875 77.539062 30.25 77.539062 30.335938 C 77.542969 30.417969 77.550781 30.488281 77.550781 30.550781 L 77.550781 33.078125 L 77.085938 33.078125 L 77.085938 29.277344 L 77.691406 29.277344 L 79.75 32.535156 C 79.75 32.535156 79.742188 32.449219 79.738281 32.265625 C 79.730469 32.195312 79.722656 32.117188 79.714844 32.03125 C 79.714844 31.9375 79.714844 31.851562 79.714844 31.769531 L 79.714844 29.277344 L 80.179688 29.277344 L 80.179688 33.078125 Z M 79.5625 33.078125 "/>
<path style=" stroke:none;fill-rule:nonzero;fill:rgb(0%,0%,0%);fill-opacity:1;" d="M 81.457031 65.496094 L 81.457031 63.738281 L 79.398438 63.738281 L 79.398438 65.496094 L 78.878906 65.496094 L 78.878906 61.699219 L 79.398438 61.699219 L 79.398438 63.304688 L 81.457031 63.304688 L 81.457031 61.699219 L 81.976562 61.699219 L 81.976562 65.496094 Z M 81.457031 65.496094 "/>
<path style=" stroke:none;fill-rule:nonzero;fill:rgb(0%,0%,0%);fill-opacity:1;" d="M 49.835938 18.863281 L 49.835938 17.105469 L 47.777344 17.105469 L 47.777344 18.863281 L 47.257812 18.863281 L 47.257812 15.066406 L 47.777344 15.066406 L 47.777344 16.675781 L 49.835938 16.675781 L 49.835938 15.066406 L 50.355469 15.066406 L 50.355469 18.863281 Z M 49.835938 18.863281 "/>
<path style=" stroke:none;fill-rule:nonzero;fill:rgb(0%,0%,0%);fill-opacity:1;" d="M 36.945312 85.070312 L 36.945312 83.3125 L 34.886719 83.3125 L 34.886719 85.070312 L 34.367188 85.070312 L 34.367188 81.273438 L 34.886719 81.273438 L 34.886719 82.882812 L 36.945312 82.882812 L 36.945312 81.273438 L 37.464844 81.273438 L 37.464844 85.070312 Z M 36.945312 85.070312 "/>
<path style=" stroke:none;fill-rule:nonzero;fill:rgb(0%,0%,0%);fill-opacity:1;" d="M 18.339844 51.863281 L 18.339844 50.105469 L 16.28125 50.105469 L 16.28125 51.863281 L 15.761719 51.863281 L 15.761719 48.066406 L 16.28125 48.066406 L 16.28125 49.671875 L 18.339844 49.671875 L 18.339844 48.066406 L 18.859375 48.066406 L 18.859375 51.863281 Z M 18.339844 51.863281 "/>
<path style="fill:none;stroke-width:0.0333333;stroke-linecap:butt;stroke-linejoin:miter;stroke:rgb(0%,0%,0%);stroke-opacity:1;stroke-miterlimit:10;" d="M 2.705696 1.374651 L 2.700962 2.37445 " transform="matrix(17.329545,0,0,17.265193,17.310745,16.965603)"/>
<path style="fill:none;stroke-width:0.0333333;stroke-linecap:butt;stroke-linejoin:miter;stroke:rgb(0%,0%,0%);stroke-opacity:1;stroke-miterlimit:10;" d="M 2.705696 1.374651 L 1.789855 0.999076 " transform="matrix(17.329545,0,0,17.265193,17.310745,16.965603)"/>
<path style="fill:none;stroke-width:0.0333333;stroke-linecap:butt;stroke-linejoin:miter;stroke:rgb(0%,0%,0%);stroke-opacity:1;stroke-miterlimit:10;" d="M 2.705696 1.374651 L 3.375839 0.931201 " transform="matrix(17.329545,0,0,17.265193,17.310745,16.965603)"/>
<path style="fill:none;stroke-width:0.0333333;stroke-linecap:butt;stroke-linejoin:miter;stroke:rgb(0%,0%,0%);stroke-opacity:1;stroke-miterlimit:10;" d="M 2.704568 2.364269 L 2.02631 3.20886 " transform="matrix(17.329545,0,0,17.265193,17.310745,16.965603)"/>
<path style="fill:none;stroke-width:0.0333333;stroke-linecap:butt;stroke-linejoin:miter;stroke:rgb(0%,0%,0%);stroke-opacity:1;stroke-miterlimit:10;" d="M 2.700962 2.368794 L 1.783544 2.593686 " transform="matrix(17.329545,0,0,17.265193,17.310745,16.965603)"/>
<path style="fill:none;stroke-width:0.0333333;stroke-linecap:butt;stroke-linejoin:miter;stroke:rgb(0%,0%,0%);stroke-opacity:1;stroke-miterlimit:10;" d="M 1.795716 1.001339 L 1.117909 1.810182 " transform="matrix(17.329545,0,0,17.265193,17.310745,16.965603)"/>
<path style="fill:none;stroke-width:0.0333333;stroke-linecap:butt;stroke-linejoin:miter;stroke:rgb(0%,0%,0%);stroke-opacity:1;stroke-miterlimit:10;" d="M 1.801802 0.999302 L 0.913237 1.316052 " transform="matrix(17.329545,0,0,17.265193,17.310745,16.965603)"/>
<path style="fill:none;stroke-width:0.0333333;stroke-linecap:butt;stroke-linejoin:miter;stroke:rgb(0%,0%,0%);stroke-opacity:1;stroke-miterlimit:10;" d="M 2.045696 3.203882 L 1.128954 2.833285 " transform="matrix(17.329545,0,0,17.265193,17.310745,16.965603)"/>
<path style="fill:none;stroke-width:0.0333333;stroke-linecap:butt;stroke-linejoin:miter;stroke:rgb(0%,0%,0%);stroke-opacity:1;stroke-miterlimit:10;" d="M 1.793462 2.594365 L 0.933974 2.2749 " transform="matrix(17.329545,0,0,17.265193,17.310745,16.965603)"/>
<path style="fill:none;stroke-width:0.0333333;stroke-linecap:butt;stroke-linejoin:miter;stroke:rgb(0%,0%,0%);stroke-opacity:1;stroke-miterlimit:10;" d="M 1.128954 2.833285 L 0.146843 3.102749 " transform="matrix(17.329545,0,0,17.265193,17.310745,16.965603)"/>
<path style="fill:none;stroke-width:0.0333333;stroke-linecap:butt;stroke-linejoin:miter;stroke:rgb(0%,0%,0%);stroke-opacity:1;stroke-miterlimit:10;" d="M 1.121741 1.799322 L 1.128954 2.833285 " transform="matrix(17.329545,0,0,17.265193,17.310745,16.965603)"/>
<path style="fill:none;stroke-width:0.0333333;stroke-linecap:butt;stroke-linejoin:miter;stroke:rgb(0%,0%,0%);stroke-opacity:1;stroke-miterlimit:10;" d="M 0.924282 1.299989 L 0.933974 2.2749 " transform="matrix(17.329545,0,0,17.265193,17.310745,16.965603)"/>
<path style="fill:none;stroke-width:0.0333333;stroke-linecap:butt;stroke-linejoin:miter;stroke:rgb(0%,0%,0%);stroke-opacity:1;stroke-miterlimit:10;" d="M 0.933974 2.2749 L 0.146843 3.102749 " transform="matrix(17.329545,0,0,17.265193,17.310745,16.965603)"/>
<path style="fill:none;stroke-width:0.0333333;stroke-linecap:butt;stroke-linejoin:miter;stroke:rgb(0%,0%,0%);stroke-opacity:1;stroke-miterlimit:10;" d="M 2.762273 2.400695 L 2.76881 2.382369 M 2.823585 2.432596 L 2.836659 2.395944 M 2.884896 2.464497 L 2.904282 2.409519 M 2.946433 2.496625 L 2.97213 2.42332 M 3.007745 2.528526 L 3.040204 2.436895 M 3.069056 2.560427 L 3.108052 2.45047 M 3.130368 2.592555 L 3.175675 2.464045 M 3.191679 2.624456 L 3.243523 2.477846 M 3.253216 2.656357 L 3.311372 2.491421 M 3.314528 2.688485 L 3.37922 2.504996 M 3.375839 2.720386 L 3.447068 2.518571 M 3.43715 2.752287 L 3.514917 2.532372 " transform="matrix(17.329545,0,0,17.265193,17.310745,16.965603)"/>
<path style=" stroke:none;fill-rule:nonzero;fill:rgb(0%,0%,0%);fill-opacity:1;" d="M 48.429688 34.253906 L 50.769531 19.703125 L 46.726562 19.613281 "/>
<path style=" stroke:none;fill-rule:nonzero;fill:rgb(0%,0%,0%);fill-opacity:1;" d="M 36.875 65.882812 L 34.050781 80.300781 L 38.089844 80.527344 "/>
<path style="fill:none;stroke-width:0.0333333;stroke-linecap:butt;stroke-linejoin:miter;stroke:rgb(0%,0%,0%);stroke-opacity:1;stroke-miterlimit:10;" d="M 0.873564 2.240962 L 0.866577 2.259062 M 0.81338 2.206799 L 0.799179 2.243225 M 0.75297 2.173087 L 0.731782 2.227387 M 0.69256 2.13915 L 0.664384 2.21155 M 0.63215 2.105212 L 0.596761 2.195712 M 0.571741 2.071275 L 0.529364 2.180101 M 0.511331 2.037337 L 0.461966 2.164037 M 0.450921 2.0034 L 0.394568 2.1482 M 0.390511 1.969462 L 0.326946 2.132589 M 0.330101 1.935525 L 0.259773 2.116751 M 0.269917 1.901587 L 0.19215 2.100914 M 0.209282 1.86765 L 0.124753 2.085076 " transform="matrix(17.329545,0,0,17.265193,17.310745,16.965603)"/>
</g>
</svg>
