<?xml version="1.0" encoding="UTF-8"?>
<svg xmlns="http://www.w3.org/2000/svg" xmlns:xlink="http://www.w3.org/1999/xlink" width="80pt" height="68.8pt" viewBox="0 0 80 68.8" version="1.1">
<g id="surface972">
<path style=" stroke:none;fill-rule:nonzero;fill:rgb(0%,0%,0%);fill-opacity:1;" d="M 18.089844 19.414062 L 16.039062 16.164062 C 16.046875 16.25 16.050781 16.335938 16.050781 16.421875 C 16.054688 16.496094 16.0625 16.574219 16.0625 16.660156 C 16.066406 16.742188 16.074219 16.8125 16.074219 16.878906 L 16.074219 19.414062 L 15.605469 19.414062 L 15.605469 15.597656 L 16.214844 15.597656 L 18.273438 18.871094 C 18.273438 18.871094 18.269531 18.78125 18.265625 18.601562 C 18.257812 18.53125 18.25 18.449219 18.242188 18.363281 C 18.242188 18.269531 18.242188 18.183594 18.242188 18.101562 L 18.242188 15.597656 L 18.710938 15.597656 L 18.710938 19.414062 Z M 18.089844 19.414062 "/>
<path style="fill:none;stroke-width:0.0333333;stroke-linecap:butt;stroke-linejoin:miter;stroke:rgb(0%,0%,0%);stroke-opacity:1;stroke-miterlimit:10;" d="M 0.87423 0.50514 L 0.89178 1.52413 " transform="matrix(17.361111,0,0,17.33871,17.158336,16.995423)"/>
<path style="fill:none;stroke-width:0.0333333;stroke-linecap:butt;stroke-linejoin:miter;stroke:rgb(0%,0%,0%);stroke-opacity:1;stroke-miterlimit:10;" d="M 0.87423 0.514603 L 1.74003 -0.00491769 " transform="matrix(17.361111,0,0,17.33871,17.158336,16.995423)"/>
<path style="fill:none;stroke-width:0.0333333;stroke-linecap:butt;stroke-linejoin:miter;stroke:rgb(0%,0%,0%);stroke-opacity:1;stroke-miterlimit:10;" d="M 1.042755 0.608098 L 1.74318 0.187481 " transform="matrix(17.361111,0,0,17.33871,17.158336,16.995423)"/>
<path style="fill:none;stroke-width:0.0333333;stroke-linecap:butt;stroke-linejoin:miter;stroke:rgb(0%,0%,0%);stroke-opacity:1;stroke-miterlimit:10;" d="M 0.883005 1.509712 L 1.77423 2.004225 " transform="matrix(17.361111,0,0,17.33871,17.158336,16.995423)"/>
<path style="fill:none;stroke-width:0.0333333;stroke-linecap:butt;stroke-linejoin:miter;stroke:rgb(0%,0%,0%);stroke-opacity:1;stroke-miterlimit:10;" d="M 1.048155 1.410809 L 1.77108 1.811826 " transform="matrix(17.361111,0,0,17.33871,17.158336,16.995423)"/>
<path style="fill:none;stroke-width:0.0333333;stroke-linecap:butt;stroke-linejoin:miter;stroke:rgb(0%,0%,0%);stroke-opacity:1;stroke-miterlimit:10;" d="M 1.757805 2.00445 L 2.631705 1.479973 " transform="matrix(17.361111,0,0,17.33871,17.158336,16.995423)"/>
<path style="fill:none;stroke-width:0.0333333;stroke-linecap:butt;stroke-linejoin:miter;stroke:rgb(0%,0%,0%);stroke-opacity:1;stroke-miterlimit:10;" d="M 2.623605 1.494392 L 2.606055 0.475402 " transform="matrix(17.361111,0,0,17.33871,17.158336,16.995423)"/>
<path style="fill:none;stroke-width:0.0333333;stroke-linecap:butt;stroke-linejoin:miter;stroke:rgb(0%,0%,0%);stroke-opacity:1;stroke-miterlimit:10;" d="M 2.455305 1.401122 L 2.44113 0.57453 " transform="matrix(17.361111,0,0,17.33871,17.158336,16.995423)"/>
<path style="fill:none;stroke-width:0.0333333;stroke-linecap:butt;stroke-linejoin:miter;stroke:rgb(0%,0%,0%);stroke-opacity:1;stroke-miterlimit:10;" d="M 2.614605 0.489821 L 1.72338 -0.0046924 " transform="matrix(17.361111,0,0,17.33871,17.158336,16.995423)"/>
<path style="fill:none;stroke-width:0.0333333;stroke-linecap:butt;stroke-linejoin:miter;stroke:rgb(0%,0%,0%);stroke-opacity:1;stroke-miterlimit:10;" d="M 0.88278 0.519334 L 0.166605 0.121921 " transform="matrix(17.361111,0,0,17.33871,17.158336,16.995423)"/>
</g>
</svg>
