<?xml version="1.0" encoding="UTF-8"?>
<svg xmlns="http://www.w3.org/2000/svg" xmlns:xlink="http://www.w3.org/1999/xlink" width="214.4pt" height="240.8pt" viewBox="0 0 214.4 240.8" version="1.1">
<g id="surface667">
<path style=" stroke:none;fill-rule:nonzero;fill:rgb(0%,0%,0%);fill-opacity:1;" d="M 184.957031 9.429688 C 184.738281 9.429688 184.546875 9.464844 184.378906 9.535156 C 184.210938 9.609375 184.070312 9.714844 183.957031 9.851562 C 183.847656 9.980469 183.765625 10.140625 183.707031 10.328125 C 183.648438 10.515625 183.621094 10.726562 183.621094 10.957031 C 183.621094 11.1875 183.648438 11.398438 183.707031 11.59375 C 183.773438 11.785156 183.863281 11.949219 183.980469 12.082031 C 184.09375 12.222656 184.234375 12.328125 184.402344 12.40625 C 184.574219 12.480469 184.765625 12.515625 184.976562 12.515625 C 185.128906 12.515625 185.261719 12.5 185.378906 12.460938 C 185.5 12.417969 185.613281 12.363281 185.714844 12.289062 C 185.816406 12.21875 185.902344 12.132812 185.976562 12.039062 C 186.054688 11.949219 186.121094 11.839844 186.179688 11.714844 L 186.605469 11.929688 C 186.539062 12.078125 186.453125 12.210938 186.355469 12.332031 C 186.25 12.457031 186.132812 12.566406 185.996094 12.65625 C 185.859375 12.742188 185.703125 12.8125 185.53125 12.863281 C 185.355469 12.910156 185.164062 12.9375 184.957031 12.9375 C 184.644531 12.9375 184.371094 12.890625 184.140625 12.796875 C 183.910156 12.699219 183.714844 12.558594 183.554688 12.386719 C 183.402344 12.207031 183.289062 11.996094 183.207031 11.757812 C 183.128906 11.515625 183.089844 11.246094 183.089844 10.957031 C 183.089844 10.660156 183.128906 10.390625 183.207031 10.152344 C 183.296875 9.910156 183.417969 9.703125 183.578125 9.535156 C 183.734375 9.371094 183.929688 9.242188 184.164062 9.144531 C 184.394531 9.054688 184.65625 9.003906 184.957031 9.003906 C 185.359375 9.003906 185.695312 9.085938 185.964844 9.242188 C 186.238281 9.402344 186.441406 9.640625 186.570312 9.957031 L 186.082031 10.121094 C 186.046875 10.03125 185.996094 9.941406 185.929688 9.863281 C 185.871094 9.773438 185.796875 9.703125 185.703125 9.644531 C 185.609375 9.578125 185.5 9.53125 185.378906 9.492188 C 185.253906 9.449219 185.113281 9.429688 184.957031 9.429688 Z M 184.957031 9.429688 "/>
<path style=" stroke:none;fill-rule:nonzero;fill:rgb(0%,0%,0%);fill-opacity:1;" d="M 187.839844 10.457031 C 187.898438 10.355469 187.953125 10.273438 188.011719 10.207031 C 188.078125 10.136719 188.144531 10.078125 188.21875 10.035156 C 188.296875 9.984375 188.382812 9.949219 188.46875 9.925781 C 188.5625 9.90625 188.667969 9.894531 188.785156 9.894531 C 188.972656 9.894531 189.121094 9.921875 189.238281 9.96875 C 189.363281 10.019531 189.457031 10.09375 189.519531 10.1875 C 189.59375 10.28125 189.644531 10.390625 189.671875 10.523438 C 189.699219 10.648438 189.714844 10.78125 189.714844 10.933594 L 189.714844 12.886719 L 189.21875 12.886719 L 189.21875 11.019531 C 189.21875 10.898438 189.210938 10.789062 189.195312 10.695312 C 189.179688 10.605469 189.152344 10.527344 189.109375 10.46875 C 189.066406 10.402344 189.003906 10.355469 188.925781 10.328125 C 188.84375 10.292969 188.742188 10.273438 188.621094 10.273438 C 188.503906 10.273438 188.398438 10.292969 188.304688 10.339844 C 188.210938 10.382812 188.132812 10.445312 188.066406 10.523438 C 188.003906 10.59375 187.949219 10.683594 187.914062 10.792969 C 187.878906 10.902344 187.863281 11.019531 187.863281 11.152344 L 187.863281 12.886719 L 187.375 12.886719 L 187.375 8.863281 L 187.863281 8.863281 L 187.863281 9.90625 C 187.863281 9.96875 187.855469 10.03125 187.851562 10.089844 C 187.851562 10.148438 187.84375 10.203125 187.839844 10.25 C 187.839844 10.304688 187.839844 10.347656 187.839844 10.382812 C 187.839844 10.417969 187.839844 10.445312 187.839844 10.457031 Z M 187.839844 10.457031 "/>
<path style=" stroke:none;fill-rule:nonzero;fill:rgb(0%,0%,0%);fill-opacity:1;" d="M 190.566406 9.332031 L 190.566406 8.863281 L 191.054688 8.863281 L 191.054688 9.332031 Z M 190.566406 12.886719 L 190.566406 9.949219 L 191.054688 9.949219 L 191.054688 12.886719 Z M 190.566406 12.886719 "/>
<path style=" stroke:none;fill-rule:nonzero;fill:rgb(0%,0%,0%);fill-opacity:1;" d="M 191.875 12.886719 L 191.875 10.628906 C 191.875 10.574219 191.867188 10.511719 191.863281 10.445312 C 191.863281 10.382812 191.863281 10.320312 191.863281 10.261719 C 191.863281 10.207031 191.859375 10.152344 191.851562 10.101562 C 191.851562 10.042969 191.851562 9.992188 191.851562 9.949219 L 192.320312 9.949219 C 192.320312 9.992188 192.320312 10.042969 192.320312 10.101562 C 192.324219 10.152344 192.328125 10.207031 192.328125 10.261719 C 192.328125 10.3125 192.328125 10.367188 192.328125 10.425781 C 192.335938 10.476562 192.339844 10.519531 192.339844 10.554688 L 192.351562 10.554688 C 192.378906 10.441406 192.410156 10.34375 192.449219 10.261719 C 192.492188 10.175781 192.539062 10.109375 192.589844 10.054688 C 192.648438 10.007812 192.710938 9.96875 192.785156 9.9375 C 192.855469 9.910156 192.941406 9.894531 193.046875 9.894531 C 193.082031 9.894531 193.117188 9.898438 193.152344 9.90625 C 193.1875 9.914062 193.21875 9.921875 193.242188 9.925781 L 193.242188 10.371094 C 193.210938 10.367188 193.175781 10.359375 193.132812 10.359375 C 193.089844 10.355469 193.039062 10.347656 192.980469 10.347656 C 192.871094 10.347656 192.777344 10.375 192.699219 10.425781 C 192.617188 10.476562 192.550781 10.542969 192.503906 10.628906 C 192.453125 10.71875 192.417969 10.824219 192.394531 10.957031 C 192.371094 11.082031 192.363281 11.214844 192.363281 11.355469 L 192.363281 12.886719 Z M 191.875 12.886719 "/>
<path style=" stroke:none;fill-rule:nonzero;fill:rgb(0%,0%,0%);fill-opacity:1;" d="M 194.535156 12.9375 C 194.238281 12.9375 194.015625 12.863281 193.863281 12.710938 C 193.71875 12.554688 193.648438 12.335938 193.648438 12.0625 C 193.648438 11.875 193.683594 11.71875 193.757812 11.59375 C 193.828125 11.464844 193.921875 11.367188 194.039062 11.300781 C 194.160156 11.230469 194.296875 11.179688 194.449219 11.152344 C 194.601562 11.125 194.757812 11.109375 194.917969 11.109375 L 195.566406 11.097656 L 195.566406 10.933594 C 195.566406 10.8125 195.550781 10.710938 195.523438 10.628906 C 195.503906 10.542969 195.464844 10.476562 195.414062 10.425781 C 195.363281 10.367188 195.300781 10.328125 195.21875 10.304688 C 195.140625 10.285156 195.046875 10.273438 194.9375 10.273438 C 194.84375 10.273438 194.757812 10.28125 194.679688 10.292969 C 194.605469 10.304688 194.539062 10.324219 194.484375 10.359375 C 194.429688 10.398438 194.386719 10.445312 194.351562 10.511719 C 194.316406 10.570312 194.292969 10.648438 194.289062 10.738281 L 193.777344 10.683594 C 193.792969 10.570312 193.824219 10.464844 193.875 10.371094 C 193.925781 10.277344 193.996094 10.195312 194.09375 10.121094 C 194.183594 10.050781 194.300781 9.996094 194.441406 9.957031 C 194.582031 9.914062 194.753906 9.894531 194.949219 9.894531 C 195.316406 9.894531 195.59375 9.980469 195.785156 10.152344 C 195.972656 10.320312 196.066406 10.5625 196.066406 10.878906 L 196.066406 12.148438 C 196.066406 12.292969 196.082031 12.402344 196.121094 12.472656 C 196.15625 12.546875 196.230469 12.582031 196.339844 12.582031 C 196.363281 12.582031 196.390625 12.582031 196.414062 12.582031 C 196.441406 12.574219 196.472656 12.566406 196.5 12.558594 L 196.5 12.863281 C 196.4375 12.886719 196.375 12.898438 196.316406 12.90625 C 196.257812 12.910156 196.191406 12.917969 196.121094 12.917969 C 196.027344 12.917969 195.949219 12.90625 195.882812 12.886719 C 195.816406 12.859375 195.761719 12.816406 195.71875 12.765625 C 195.679688 12.71875 195.65625 12.65625 195.632812 12.582031 C 195.609375 12.511719 195.59375 12.425781 195.589844 12.320312 L 195.566406 12.320312 C 195.515625 12.417969 195.460938 12.503906 195.394531 12.582031 C 195.335938 12.65625 195.265625 12.71875 195.175781 12.777344 C 195.097656 12.828125 195.003906 12.867188 194.894531 12.894531 C 194.792969 12.921875 194.671875 12.9375 194.535156 12.9375 Z M 194.644531 12.570312 C 194.796875 12.570312 194.929688 12.542969 195.046875 12.484375 C 195.167969 12.425781 195.265625 12.355469 195.339844 12.265625 C 195.417969 12.179688 195.476562 12.089844 195.511719 11.984375 C 195.546875 11.878906 195.566406 11.777344 195.566406 11.683594 L 195.566406 11.433594 L 195.035156 11.445312 C 194.917969 11.453125 194.808594 11.460938 194.699219 11.476562 C 194.589844 11.492188 194.492188 11.519531 194.40625 11.5625 C 194.324219 11.605469 194.261719 11.671875 194.210938 11.757812 C 194.167969 11.839844 194.148438 11.941406 194.148438 12.070312 C 194.148438 12.230469 194.191406 12.355469 194.277344 12.441406 C 194.363281 12.527344 194.484375 12.570312 194.644531 12.570312 Z M 194.644531 12.570312 "/>
<path style=" stroke:none;fill-rule:nonzero;fill:rgb(0%,0%,0%);fill-opacity:1;" d="M 197.003906 12.886719 L 197.003906 8.863281 L 197.492188 8.863281 L 197.492188 12.886719 Z M 197.003906 12.886719 "/>
<path style=" stroke:none;fill-rule:nonzero;fill:rgb(0%,0%,0%);fill-opacity:1;" d="M 68.742188 190.199219 C 68.742188 190.496094 68.699219 190.765625 68.613281 191.011719 C 68.527344 191.257812 68.398438 191.464844 68.234375 191.640625 C 68.074219 191.8125 67.875 191.949219 67.636719 192.039062 C 67.402344 192.132812 67.140625 192.179688 66.84375 192.179688 C 66.523438 192.179688 66.25 192.132812 66.011719 192.039062 C 65.777344 191.941406 65.582031 191.800781 65.425781 191.628906 C 65.265625 191.449219 65.144531 191.238281 65.066406 191 C 64.984375 190.753906 64.945312 190.488281 64.945312 190.199219 C 64.945312 189.902344 64.984375 189.632812 65.066406 189.394531 C 65.152344 189.152344 65.273438 188.945312 65.433594 188.777344 C 65.601562 188.613281 65.796875 188.484375 66.03125 188.386719 C 66.269531 188.296875 66.542969 188.246094 66.84375 188.246094 C 67.148438 188.246094 67.421875 188.296875 67.660156 188.386719 C 67.898438 188.484375 68.09375 188.617188 68.253906 188.789062 C 68.414062 188.957031 68.53125 189.15625 68.613281 189.394531 C 68.699219 189.632812 68.742188 189.902344 68.742188 190.199219 Z M 68.210938 190.199219 C 68.210938 189.96875 68.183594 189.757812 68.125 189.570312 C 68.066406 189.382812 67.980469 189.222656 67.863281 189.09375 C 67.75 188.957031 67.605469 188.851562 67.429688 188.777344 C 67.261719 188.707031 67.066406 188.667969 66.84375 188.667969 C 66.621094 188.667969 66.421875 188.707031 66.25 188.777344 C 66.074219 188.851562 65.929688 188.957031 65.816406 189.09375 C 65.707031 189.222656 65.621094 189.382812 65.566406 189.570312 C 65.503906 189.757812 65.476562 189.96875 65.476562 190.199219 C 65.476562 190.429688 65.503906 190.640625 65.566406 190.835938 C 65.621094 191.027344 65.710938 191.1875 65.824219 191.324219 C 65.941406 191.460938 66.082031 191.570312 66.25 191.648438 C 66.421875 191.722656 66.621094 191.757812 66.84375 191.757812 C 67.085938 191.757812 67.289062 191.722656 67.464844 191.648438 C 67.636719 191.570312 67.777344 191.460938 67.886719 191.324219 C 67.996094 191.179688 68.074219 191.015625 68.125 190.824219 C 68.183594 190.632812 68.210938 190.421875 68.210938 190.199219 Z M 68.210938 190.199219 "/>
<path style=" stroke:none;fill-rule:nonzero;fill:rgb(0%,0%,0%);fill-opacity:1;" d="M 112.492188 177.910156 C 112.492188 178.210938 112.449219 178.480469 112.363281 178.722656 C 112.277344 178.96875 112.148438 179.179688 111.984375 179.351562 C 111.824219 179.527344 111.625 179.660156 111.386719 179.753906 C 111.152344 179.847656 110.890625 179.894531 110.59375 179.894531 C 110.273438 179.894531 109.996094 179.847656 109.757812 179.753906 C 109.527344 179.652344 109.332031 179.515625 109.171875 179.34375 C 109.011719 179.164062 108.894531 178.953125 108.816406 178.714844 C 108.734375 178.46875 108.695312 178.203125 108.695312 177.910156 C 108.695312 177.617188 108.734375 177.347656 108.816406 177.109375 C 108.902344 176.867188 109.023438 176.660156 109.183594 176.492188 C 109.351562 176.328125 109.546875 176.195312 109.78125 176.101562 C 110.019531 176.007812 110.289062 175.960938 110.59375 175.960938 C 110.898438 175.960938 111.167969 176.007812 111.40625 176.101562 C 111.648438 176.195312 111.84375 176.328125 112.003906 176.503906 C 112.160156 176.671875 112.28125 176.871094 112.363281 177.109375 C 112.449219 177.347656 112.492188 177.617188 112.492188 177.910156 Z M 111.960938 177.910156 C 111.960938 177.679688 111.929688 177.472656 111.875 177.28125 C 111.816406 177.097656 111.726562 176.9375 111.613281 176.804688 C 111.496094 176.671875 111.355469 176.566406 111.179688 176.492188 C 111.011719 176.421875 110.816406 176.382812 110.59375 176.382812 C 110.371094 176.382812 110.171875 176.421875 109.996094 176.492188 C 109.824219 176.566406 109.679688 176.671875 109.5625 176.804688 C 109.457031 176.9375 109.371094 177.097656 109.3125 177.28125 C 109.253906 177.472656 109.226562 177.679688 109.226562 177.910156 C 109.226562 178.144531 109.253906 178.355469 109.3125 178.550781 C 109.371094 178.742188 109.457031 178.902344 109.574219 179.039062 C 109.6875 179.175781 109.828125 179.285156 109.996094 179.363281 C 110.171875 179.4375 110.371094 179.472656 110.59375 179.472656 C 110.832031 179.472656 111.039062 179.4375 111.210938 179.363281 C 111.386719 179.285156 111.527344 179.175781 111.636719 179.039062 C 111.746094 178.894531 111.824219 178.730469 111.875 178.539062 C 111.929688 178.34375 111.960938 178.136719 111.960938 177.910156 Z M 111.960938 177.910156 "/>
<path style=" stroke:none;fill-rule:nonzero;fill:rgb(0%,0%,0%);fill-opacity:1;" d="M 84.269531 221.414062 C 84.269531 221.714844 84.226562 221.984375 84.136719 222.226562 C 84.050781 222.476562 83.921875 222.683594 83.757812 222.855469 C 83.597656 223.03125 83.398438 223.164062 83.160156 223.257812 C 82.929688 223.351562 82.664062 223.398438 82.371094 223.398438 C 82.050781 223.398438 81.773438 223.351562 81.535156 223.257812 C 81.300781 223.15625 81.105469 223.019531 80.949219 222.847656 C 80.789062 222.667969 80.667969 222.457031 80.589844 222.21875 C 80.507812 221.972656 80.472656 221.707031 80.472656 221.414062 C 80.472656 221.121094 80.507812 220.851562 80.589844 220.613281 C 80.675781 220.371094 80.800781 220.164062 80.960938 219.996094 C 81.125 219.832031 81.324219 219.699219 81.554688 219.605469 C 81.792969 219.511719 82.066406 219.464844 82.371094 219.464844 C 82.671875 219.464844 82.945312 219.511719 83.183594 219.605469 C 83.421875 219.699219 83.621094 219.832031 83.78125 220.007812 C 83.9375 220.175781 84.054688 220.375 84.136719 220.613281 C 84.226562 220.851562 84.269531 221.121094 84.269531 221.414062 Z M 83.738281 221.414062 C 83.738281 221.183594 83.707031 220.976562 83.648438 220.785156 C 83.589844 220.601562 83.503906 220.441406 83.390625 220.308594 C 83.273438 220.175781 83.128906 220.070312 82.957031 219.996094 C 82.789062 219.925781 82.59375 219.886719 82.371094 219.886719 C 82.144531 219.886719 81.945312 219.925781 81.773438 219.996094 C 81.597656 220.070312 81.453125 220.175781 81.339844 220.308594 C 81.230469 220.441406 81.144531 220.601562 81.089844 220.785156 C 81.03125 220.976562 81.003906 221.183594 81.003906 221.414062 C 81.003906 221.648438 81.03125 221.859375 81.089844 222.054688 C 81.144531 222.246094 81.234375 222.40625 81.351562 222.542969 C 81.464844 222.679688 81.605469 222.789062 81.773438 222.867188 C 81.945312 222.941406 82.144531 222.976562 82.371094 222.976562 C 82.609375 222.976562 82.8125 222.941406 82.988281 222.867188 C 83.160156 222.789062 83.300781 222.679688 83.410156 222.542969 C 83.519531 222.398438 83.597656 222.234375 83.648438 222.042969 C 83.707031 221.847656 83.738281 221.640625 83.738281 221.414062 Z M 83.738281 221.414062 "/>
<path style=" stroke:none;fill-rule:nonzero;fill:rgb(0%,0%,0%);fill-opacity:1;" d="M 97.875 146.898438 C 97.875 147.199219 97.832031 147.46875 97.746094 147.710938 C 97.65625 147.957031 97.53125 148.167969 97.363281 148.339844 C 97.203125 148.515625 97.007812 148.648438 96.769531 148.742188 C 96.535156 148.832031 96.273438 148.882812 95.976562 148.882812 C 95.65625 148.882812 95.378906 148.832031 95.140625 148.742188 C 94.90625 148.640625 94.710938 148.503906 94.554688 148.328125 C 94.394531 148.152344 94.277344 147.941406 94.195312 147.703125 C 94.117188 147.457031 94.078125 147.1875 94.078125 146.898438 C 94.078125 146.605469 94.117188 146.335938 94.195312 146.097656 C 94.285156 145.855469 94.40625 145.648438 94.566406 145.480469 C 94.730469 145.316406 94.929688 145.183594 95.164062 145.089844 C 95.402344 144.996094 95.671875 144.949219 95.976562 144.949219 C 96.28125 144.949219 96.550781 144.996094 96.789062 145.089844 C 97.027344 145.183594 97.226562 145.316406 97.386719 145.492188 C 97.542969 145.660156 97.664062 145.859375 97.746094 146.097656 C 97.832031 146.335938 97.875 146.605469 97.875 146.898438 Z M 97.34375 146.898438 C 97.34375 146.667969 97.3125 146.460938 97.257812 146.269531 C 97.195312 146.085938 97.109375 145.925781 96.996094 145.792969 C 96.878906 145.660156 96.734375 145.554688 96.5625 145.480469 C 96.394531 145.410156 96.199219 145.371094 95.976562 145.371094 C 95.75 145.371094 95.554688 145.410156 95.378906 145.480469 C 95.207031 145.554688 95.058594 145.660156 94.945312 145.792969 C 94.835938 145.925781 94.753906 146.085938 94.695312 146.269531 C 94.636719 146.460938 94.609375 146.667969 94.609375 146.898438 C 94.609375 147.132812 94.636719 147.34375 94.695312 147.539062 C 94.753906 147.726562 94.839844 147.890625 94.957031 148.027344 C 95.070312 148.164062 95.210938 148.273438 95.378906 148.351562 C 95.554688 148.425781 95.75 148.460938 95.976562 148.460938 C 96.214844 148.460938 96.421875 148.425781 96.59375 148.351562 C 96.769531 148.273438 96.910156 148.164062 97.019531 148.027344 C 97.125 147.882812 97.203125 147.71875 97.257812 147.527344 C 97.3125 147.332031 97.34375 147.125 97.34375 146.898438 Z M 97.34375 146.898438 "/>
<path style=" stroke:none;fill-rule:nonzero;fill:rgb(0%,0%,0%);fill-opacity:1;" d="M 70.859375 160.792969 C 70.859375 161.09375 70.816406 161.363281 70.730469 161.609375 C 70.640625 161.855469 70.515625 162.0625 70.347656 162.234375 C 70.1875 162.410156 69.992188 162.546875 69.753906 162.636719 C 69.519531 162.730469 69.257812 162.777344 68.960938 162.777344 C 68.640625 162.777344 68.363281 162.730469 68.125 162.636719 C 67.890625 162.535156 67.695312 162.398438 67.539062 162.226562 C 67.378906 162.046875 67.261719 161.835938 67.183594 161.597656 C 67.101562 161.351562 67.0625 161.085938 67.0625 160.792969 C 67.0625 160.5 67.101562 160.230469 67.183594 159.992188 C 67.269531 159.75 67.390625 159.542969 67.550781 159.375 C 67.714844 159.210938 67.914062 159.078125 68.148438 158.984375 C 68.386719 158.894531 68.65625 158.84375 68.960938 158.84375 C 69.265625 158.84375 69.535156 158.894531 69.773438 158.984375 C 70.011719 159.078125 70.210938 159.210938 70.371094 159.386719 C 70.527344 159.554688 70.648438 159.753906 70.730469 159.992188 C 70.816406 160.230469 70.859375 160.5 70.859375 160.792969 Z M 70.328125 160.792969 C 70.328125 160.566406 70.296875 160.355469 70.242188 160.167969 C 70.179688 159.980469 70.09375 159.820312 69.980469 159.691406 C 69.863281 159.554688 69.71875 159.449219 69.546875 159.375 C 69.378906 159.304688 69.183594 159.265625 68.960938 159.265625 C 68.734375 159.265625 68.539062 159.304688 68.363281 159.375 C 68.191406 159.449219 68.042969 159.554688 67.929688 159.691406 C 67.820312 159.820312 67.738281 159.980469 67.679688 160.167969 C 67.621094 160.355469 67.59375 160.566406 67.59375 160.792969 C 67.59375 161.027344 67.621094 161.238281 67.679688 161.433594 C 67.738281 161.625 67.824219 161.785156 67.941406 161.921875 C 68.054688 162.058594 68.195312 162.167969 68.363281 162.246094 C 68.539062 162.320312 68.734375 162.355469 68.960938 162.355469 C 69.199219 162.355469 69.40625 162.320312 69.578125 162.246094 C 69.753906 162.167969 69.894531 162.058594 70.003906 161.921875 C 70.109375 161.777344 70.1875 161.613281 70.242188 161.421875 C 70.296875 161.226562 70.328125 161.019531 70.328125 160.792969 Z M 70.328125 160.792969 "/>
<path style=" stroke:none;fill-rule:nonzero;fill:rgb(0%,0%,0%);fill-opacity:1;" d="M 118.644531 223.632812 C 118.644531 223.929688 118.601562 224.199219 118.515625 224.445312 C 118.425781 224.691406 118.300781 224.898438 118.132812 225.074219 C 117.972656 225.246094 117.777344 225.382812 117.539062 225.472656 C 117.304688 225.566406 117.042969 225.613281 116.746094 225.613281 C 116.425781 225.613281 116.148438 225.566406 115.910156 225.472656 C 115.675781 225.375 115.480469 225.234375 115.324219 225.0625 C 115.164062 224.882812 115.046875 224.671875 114.964844 224.433594 C 114.886719 224.191406 114.847656 223.921875 114.847656 223.632812 C 114.847656 223.335938 114.886719 223.066406 114.964844 222.828125 C 115.054688 222.585938 115.175781 222.378906 115.335938 222.210938 C 115.5 222.046875 115.699219 221.917969 115.933594 221.820312 C 116.171875 221.730469 116.441406 221.679688 116.746094 221.679688 C 117.050781 221.679688 117.320312 221.730469 117.558594 221.820312 C 117.796875 221.917969 117.996094 222.050781 118.15625 222.222656 C 118.3125 222.390625 118.433594 222.589844 118.515625 222.828125 C 118.601562 223.066406 118.644531 223.335938 118.644531 223.632812 Z M 118.113281 223.632812 C 118.113281 223.402344 118.082031 223.191406 118.027344 223.003906 C 117.964844 222.816406 117.878906 222.65625 117.765625 222.527344 C 117.648438 222.390625 117.503906 222.285156 117.332031 222.210938 C 117.164062 222.140625 116.96875 222.101562 116.746094 222.101562 C 116.519531 222.101562 116.324219 222.140625 116.148438 222.210938 C 115.976562 222.285156 115.828125 222.390625 115.714844 222.527344 C 115.605469 222.65625 115.523438 222.816406 115.464844 223.003906 C 115.40625 223.191406 115.378906 223.402344 115.378906 223.632812 C 115.378906 223.863281 115.40625 224.074219 115.464844 224.269531 C 115.523438 224.460938 115.609375 224.621094 115.726562 224.757812 C 115.839844 224.898438 115.980469 225.003906 116.148438 225.082031 C 116.324219 225.15625 116.519531 225.191406 116.746094 225.191406 C 116.984375 225.191406 117.191406 225.15625 117.363281 225.082031 C 117.539062 225.003906 117.679688 224.898438 117.785156 224.757812 C 117.894531 224.613281 117.972656 224.449219 118.027344 224.261719 C 118.082031 224.066406 118.113281 223.855469 118.113281 223.632812 Z M 118.113281 223.632812 "/>
<path style=" stroke:none;fill-rule:nonzero;fill:rgb(0%,0%,0%);fill-opacity:1;" d="M 137.898438 194.832031 C 137.898438 195.132812 137.855469 195.402344 137.765625 195.644531 C 137.679688 195.890625 137.554688 196.101562 137.386719 196.273438 C 137.226562 196.449219 137.03125 196.582031 136.789062 196.675781 C 136.558594 196.765625 136.292969 196.816406 136 196.816406 C 135.679688 196.816406 135.402344 196.765625 135.164062 196.675781 C 134.929688 196.574219 134.734375 196.4375 134.578125 196.261719 C 134.417969 196.085938 134.296875 195.875 134.21875 195.636719 C 134.136719 195.390625 134.101562 195.121094 134.101562 194.832031 C 134.101562 194.539062 134.136719 194.269531 134.21875 194.03125 C 134.304688 193.789062 134.429688 193.582031 134.589844 193.414062 C 134.753906 193.25 134.953125 193.117188 135.183594 193.023438 C 135.425781 192.929688 135.695312 192.882812 136 192.882812 C 136.300781 192.882812 136.574219 192.929688 136.8125 193.023438 C 137.050781 193.117188 137.25 193.25 137.410156 193.425781 C 137.566406 193.59375 137.6875 193.792969 137.765625 194.03125 C 137.855469 194.269531 137.898438 194.539062 137.898438 194.832031 Z M 137.367188 194.832031 C 137.367188 194.601562 137.335938 194.394531 137.277344 194.203125 C 137.21875 194.015625 137.132812 193.859375 137.019531 193.726562 C 136.902344 193.59375 136.757812 193.488281 136.585938 193.414062 C 136.417969 193.34375 136.222656 193.304688 136 193.304688 C 135.773438 193.304688 135.574219 193.34375 135.402344 193.414062 C 135.230469 193.488281 135.082031 193.59375 134.96875 193.726562 C 134.859375 193.859375 134.777344 194.015625 134.71875 194.203125 C 134.660156 194.394531 134.632812 194.601562 134.632812 194.832031 C 134.632812 195.066406 134.660156 195.277344 134.71875 195.472656 C 134.777344 195.660156 134.863281 195.824219 134.980469 195.960938 C 135.09375 196.097656 135.234375 196.207031 135.402344 196.285156 C 135.574219 196.359375 135.773438 196.394531 136 196.394531 C 136.238281 196.394531 136.445312 196.359375 136.617188 196.285156 C 136.789062 196.207031 136.933594 196.097656 137.039062 195.960938 C 137.148438 195.816406 137.226562 195.652344 137.277344 195.460938 C 137.335938 195.265625 137.367188 195.058594 137.367188 194.832031 Z M 137.367188 194.832031 "/>
<path style=" stroke:none;fill-rule:nonzero;fill:rgb(0%,0%,0%);fill-opacity:1;" d="M 33.664062 187.984375 C 33.664062 188.28125 33.621094 188.554688 33.53125 188.796875 C 33.445312 189.042969 33.316406 189.253906 33.152344 189.425781 C 32.992188 189.597656 32.792969 189.734375 32.554688 189.828125 C 32.324219 189.917969 32.058594 189.96875 31.765625 189.96875 C 31.445312 189.96875 31.167969 189.917969 30.929688 189.828125 C 30.695312 189.726562 30.5 189.589844 30.34375 189.414062 C 30.183594 189.234375 30.0625 189.023438 29.984375 188.785156 C 29.902344 188.542969 29.867188 188.273438 29.867188 187.984375 C 29.867188 187.6875 29.902344 187.421875 29.984375 187.183594 C 30.070312 186.9375 30.195312 186.734375 30.355469 186.566406 C 30.519531 186.398438 30.71875 186.269531 30.949219 186.175781 C 31.1875 186.082031 31.460938 186.035156 31.765625 186.035156 C 32.066406 186.035156 32.339844 186.082031 32.578125 186.175781 C 32.816406 186.269531 33.015625 186.402344 33.175781 186.574219 C 33.332031 186.742188 33.453125 186.945312 33.53125 187.183594 C 33.621094 187.421875 33.664062 187.6875 33.664062 187.984375 Z M 33.132812 187.984375 C 33.132812 187.753906 33.101562 187.546875 33.042969 187.355469 C 32.984375 187.167969 32.898438 187.007812 32.785156 186.878906 C 32.667969 186.742188 32.523438 186.636719 32.351562 186.566406 C 32.183594 186.492188 31.988281 186.457031 31.765625 186.457031 C 31.539062 186.457031 31.339844 186.492188 31.167969 186.566406 C 30.992188 186.636719 30.847656 186.742188 30.734375 186.878906 C 30.625 187.007812 30.542969 187.167969 30.484375 187.355469 C 30.425781 187.546875 30.398438 187.753906 30.398438 187.984375 C 30.398438 188.21875 30.425781 188.429688 30.484375 188.625 C 30.542969 188.8125 30.628906 188.976562 30.746094 189.109375 C 30.859375 189.25 31 189.359375 31.167969 189.4375 C 31.339844 189.507812 31.539062 189.542969 31.765625 189.542969 C 32.003906 189.542969 32.210938 189.507812 32.382812 189.4375 C 32.554688 189.359375 32.695312 189.25 32.804688 189.109375 C 32.914062 188.96875 32.992188 188.800781 33.042969 188.613281 C 33.101562 188.417969 33.132812 188.210938 33.132812 187.984375 Z M 33.132812 187.984375 "/>
<path style=" stroke:none;fill-rule:nonzero;fill:rgb(0%,0%,0%);fill-opacity:1;" d="M 18.945312 157.671875 C 18.945312 157.96875 18.902344 158.238281 18.8125 158.484375 C 18.726562 158.730469 18.601562 158.9375 18.433594 159.113281 C 18.273438 159.285156 18.078125 159.421875 17.835938 159.511719 C 17.605469 159.605469 17.339844 159.65625 17.046875 159.65625 C 16.726562 159.65625 16.449219 159.605469 16.210938 159.511719 C 15.976562 159.414062 15.78125 159.273438 15.625 159.101562 C 15.464844 158.921875 15.34375 158.710938 15.265625 158.472656 C 15.183594 158.230469 15.148438 157.960938 15.148438 157.671875 C 15.148438 157.375 15.183594 157.109375 15.265625 156.871094 C 15.351562 156.625 15.476562 156.417969 15.636719 156.25 C 15.800781 156.085938 16 155.957031 16.230469 155.863281 C 16.46875 155.769531 16.742188 155.71875 17.046875 155.71875 C 17.347656 155.71875 17.621094 155.769531 17.859375 155.863281 C 18.097656 155.957031 18.296875 156.089844 18.457031 156.261719 C 18.613281 156.429688 18.734375 156.632812 18.8125 156.871094 C 18.902344 157.109375 18.945312 157.375 18.945312 157.671875 Z M 18.414062 157.671875 C 18.414062 157.441406 18.382812 157.230469 18.324219 157.042969 C 18.265625 156.855469 18.179688 156.695312 18.066406 156.566406 C 17.949219 156.429688 17.804688 156.324219 17.632812 156.25 C 17.464844 156.179688 17.269531 156.144531 17.046875 156.144531 C 16.820312 156.144531 16.621094 156.179688 16.449219 156.25 C 16.273438 156.324219 16.128906 156.429688 16.015625 156.566406 C 15.90625 156.695312 15.824219 156.855469 15.765625 157.042969 C 15.707031 157.230469 15.679688 157.441406 15.679688 157.671875 C 15.679688 157.902344 15.707031 158.117188 15.765625 158.3125 C 15.824219 158.5 15.910156 158.664062 16.027344 158.796875 C 16.140625 158.9375 16.28125 159.042969 16.449219 159.125 C 16.621094 159.195312 16.820312 159.230469 17.046875 159.230469 C 17.285156 159.230469 17.492188 159.195312 17.664062 159.125 C 17.835938 159.042969 17.980469 158.9375 18.085938 158.796875 C 18.195312 158.65625 18.273438 158.488281 18.324219 158.300781 C 18.382812 158.105469 18.414062 157.894531 18.414062 157.671875 Z M 18.414062 157.671875 "/>
<path style=" stroke:none;fill-rule:nonzero;fill:rgb(0%,0%,0%);fill-opacity:1;" d="M 64.910156 115.382812 C 64.910156 115.679688 64.867188 115.949219 64.78125 116.195312 C 64.695312 116.441406 64.566406 116.648438 64.402344 116.820312 C 64.242188 116.996094 64.042969 117.132812 63.804688 117.222656 C 63.570312 117.316406 63.308594 117.363281 63.011719 117.363281 C 62.691406 117.363281 62.417969 117.316406 62.179688 117.222656 C 61.945312 117.121094 61.75 116.984375 61.59375 116.8125 C 61.433594 116.632812 61.3125 116.421875 61.234375 116.183594 C 61.152344 115.9375 61.113281 115.671875 61.113281 115.382812 C 61.113281 115.085938 61.152344 114.816406 61.234375 114.578125 C 61.320312 114.335938 61.441406 114.128906 61.601562 113.960938 C 61.769531 113.796875 61.964844 113.667969 62.199219 113.570312 C 62.4375 113.480469 62.710938 113.429688 63.011719 113.429688 C 63.316406 113.429688 63.589844 113.480469 63.828125 113.570312 C 64.066406 113.667969 64.261719 113.796875 64.421875 113.972656 C 64.582031 114.140625 64.699219 114.339844 64.78125 114.578125 C 64.867188 114.816406 64.910156 115.085938 64.910156 115.382812 Z M 64.378906 115.382812 C 64.378906 115.152344 64.351562 114.941406 64.292969 114.753906 C 64.234375 114.566406 64.148438 114.40625 64.03125 114.277344 C 63.917969 114.140625 63.773438 114.035156 63.597656 113.960938 C 63.429688 113.890625 63.234375 113.851562 63.011719 113.851562 C 62.789062 113.851562 62.589844 113.890625 62.417969 113.960938 C 62.242188 114.035156 62.097656 114.140625 61.984375 114.277344 C 61.875 114.40625 61.789062 114.566406 61.734375 114.753906 C 61.671875 114.941406 61.644531 115.152344 61.644531 115.382812 C 61.644531 115.613281 61.671875 115.824219 61.734375 116.019531 C 61.789062 116.210938 61.875 116.371094 61.992188 116.507812 C 62.105469 116.644531 62.25 116.753906 62.417969 116.832031 C 62.589844 116.90625 62.789062 116.941406 63.011719 116.941406 C 63.25 116.941406 63.457031 116.90625 63.632812 116.832031 C 63.804688 116.753906 63.945312 116.644531 64.054688 116.507812 C 64.164062 116.363281 64.242188 116.199219 64.292969 116.007812 C 64.351562 115.8125 64.378906 115.605469 64.378906 115.382812 Z M 64.378906 115.382812 "/>
<path style=" stroke:none;fill-rule:nonzero;fill:rgb(0%,0%,0%);fill-opacity:1;" d="M 37.996094 128.46875 C 37.996094 128.765625 37.953125 129.039062 37.867188 129.28125 C 37.78125 129.527344 37.652344 129.738281 37.488281 129.910156 C 37.328125 130.082031 37.128906 130.21875 36.890625 130.3125 C 36.65625 130.402344 36.394531 130.453125 36.097656 130.453125 C 35.777344 130.453125 35.5 130.402344 35.261719 130.3125 C 35.03125 130.210938 34.835938 130.074219 34.675781 129.898438 C 34.515625 129.71875 34.398438 129.507812 34.320312 129.269531 C 34.238281 129.027344 34.199219 128.757812 34.199219 128.46875 C 34.199219 128.171875 34.238281 127.90625 34.320312 127.667969 C 34.40625 127.421875 34.527344 127.21875 34.6875 127.050781 C 34.851562 126.882812 35.050781 126.753906 35.285156 126.660156 C 35.523438 126.566406 35.792969 126.519531 36.097656 126.519531 C 36.402344 126.519531 36.671875 126.566406 36.910156 126.660156 C 37.152344 126.753906 37.347656 126.886719 37.507812 127.058594 C 37.664062 127.226562 37.785156 127.429688 37.867188 127.667969 C 37.953125 127.90625 37.996094 128.171875 37.996094 128.46875 Z M 37.464844 128.46875 C 37.464844 128.238281 37.433594 128.03125 37.378906 127.839844 C 37.320312 127.652344 37.230469 127.492188 37.117188 127.363281 C 37 127.226562 36.859375 127.121094 36.683594 127.050781 C 36.515625 126.980469 36.320312 126.941406 36.097656 126.941406 C 35.875 126.941406 35.675781 126.980469 35.5 127.050781 C 35.328125 127.121094 35.179688 127.226562 35.066406 127.363281 C 34.960938 127.492188 34.875 127.652344 34.816406 127.839844 C 34.757812 128.03125 34.730469 128.238281 34.730469 128.46875 C 34.730469 128.703125 34.757812 128.914062 34.816406 129.109375 C 34.875 129.296875 34.960938 129.460938 35.078125 129.597656 C 35.191406 129.734375 35.332031 129.84375 35.5 129.921875 C 35.675781 129.996094 35.875 130.03125 36.097656 130.03125 C 36.335938 130.03125 36.542969 129.996094 36.714844 129.921875 C 36.890625 129.84375 37.03125 129.734375 37.140625 129.597656 C 37.25 129.453125 37.328125 129.289062 37.378906 129.097656 C 37.433594 128.902344 37.464844 128.695312 37.464844 128.46875 Z M 37.464844 128.46875 "/>
<path style=" stroke:none;fill-rule:nonzero;fill:rgb(0%,0%,0%);fill-opacity:1;" d="M 149.386719 149.917969 C 149.386719 150.214844 149.34375 150.488281 149.257812 150.730469 C 149.171875 150.976562 149.042969 151.183594 148.878906 151.359375 C 148.71875 151.53125 148.519531 151.667969 148.28125 151.757812 C 148.046875 151.851562 147.785156 151.902344 147.488281 151.902344 C 147.171875 151.902344 146.894531 151.851562 146.65625 151.757812 C 146.421875 151.660156 146.226562 151.519531 146.070312 151.347656 C 145.910156 151.167969 145.789062 150.957031 145.710938 150.71875 C 145.628906 150.476562 145.589844 150.207031 145.589844 149.917969 C 145.589844 149.621094 145.628906 149.355469 145.710938 149.117188 C 145.796875 148.871094 145.917969 148.664062 146.078125 148.496094 C 146.246094 148.332031 146.441406 148.203125 146.675781 148.109375 C 146.914062 148.015625 147.1875 147.96875 147.488281 147.96875 C 147.792969 147.96875 148.066406 148.015625 148.304688 148.109375 C 148.542969 148.203125 148.742188 148.335938 148.898438 148.507812 C 149.058594 148.675781 149.175781 148.878906 149.257812 149.117188 C 149.34375 149.355469 149.386719 149.621094 149.386719 149.917969 Z M 148.855469 149.917969 C 148.855469 149.6875 148.828125 149.480469 148.769531 149.289062 C 148.710938 149.101562 148.625 148.941406 148.511719 148.8125 C 148.394531 148.675781 148.25 148.570312 148.074219 148.496094 C 147.90625 148.425781 147.710938 148.390625 147.488281 148.390625 C 147.265625 148.390625 147.066406 148.425781 146.894531 148.496094 C 146.71875 148.570312 146.574219 148.675781 146.460938 148.8125 C 146.351562 148.941406 146.265625 149.101562 146.210938 149.289062 C 146.148438 149.480469 146.125 149.6875 146.125 149.917969 C 146.125 150.152344 146.148438 150.363281 146.210938 150.558594 C 146.265625 150.746094 146.355469 150.910156 146.46875 151.042969 C 146.585938 151.183594 146.726562 151.292969 146.894531 151.371094 C 147.066406 151.441406 147.265625 151.476562 147.488281 151.476562 C 147.730469 151.476562 147.933594 151.441406 148.109375 151.371094 C 148.28125 151.292969 148.421875 151.183594 148.53125 151.042969 C 148.640625 150.902344 148.71875 150.734375 148.769531 150.546875 C 148.828125 150.351562 148.855469 150.140625 148.855469 149.917969 Z M 148.855469 149.917969 "/>
<path style=" stroke:none;fill-rule:nonzero;fill:rgb(0%,0%,0%);fill-opacity:1;" d="M 172.675781 196.644531 C 172.675781 196.941406 172.632812 197.210938 172.546875 197.457031 C 172.460938 197.703125 172.332031 197.910156 172.167969 198.082031 C 172.007812 198.257812 171.808594 198.394531 171.570312 198.484375 C 171.335938 198.578125 171.074219 198.625 170.777344 198.625 C 170.457031 198.625 170.183594 198.578125 169.945312 198.484375 C 169.710938 198.382812 169.515625 198.246094 169.359375 198.074219 C 169.199219 197.894531 169.078125 197.683594 169 197.445312 C 168.917969 197.199219 168.878906 196.933594 168.878906 196.644531 C 168.878906 196.347656 168.917969 196.078125 169 195.839844 C 169.085938 195.597656 169.207031 195.390625 169.367188 195.222656 C 169.535156 195.058594 169.730469 194.929688 169.964844 194.832031 C 170.203125 194.742188 170.476562 194.691406 170.777344 194.691406 C 171.082031 194.691406 171.355469 194.742188 171.59375 194.832031 C 171.832031 194.929688 172.027344 195.058594 172.1875 195.234375 C 172.347656 195.402344 172.464844 195.601562 172.546875 195.839844 C 172.632812 196.078125 172.675781 196.347656 172.675781 196.644531 Z M 172.144531 196.644531 C 172.144531 196.414062 172.117188 196.203125 172.058594 196.015625 C 172 195.828125 171.914062 195.667969 171.796875 195.539062 C 171.683594 195.402344 171.539062 195.296875 171.363281 195.222656 C 171.195312 195.152344 171 195.113281 170.777344 195.113281 C 170.554688 195.113281 170.355469 195.152344 170.183594 195.222656 C 170.007812 195.296875 169.863281 195.402344 169.75 195.539062 C 169.640625 195.667969 169.554688 195.828125 169.5 196.015625 C 169.4375 196.203125 169.410156 196.414062 169.410156 196.644531 C 169.410156 196.875 169.4375 197.085938 169.5 197.28125 C 169.554688 197.472656 169.640625 197.632812 169.757812 197.769531 C 169.875 197.90625 170.015625 198.015625 170.183594 198.09375 C 170.355469 198.167969 170.554688 198.203125 170.777344 198.203125 C 171.019531 198.203125 171.222656 198.167969 171.398438 198.09375 C 171.570312 198.015625 171.710938 197.90625 171.820312 197.769531 C 171.929688 197.625 172.007812 197.460938 172.058594 197.269531 C 172.117188 197.074219 172.144531 196.867188 172.144531 196.644531 Z M 172.144531 196.644531 "/>
<path style=" stroke:none;fill-rule:nonzero;fill:rgb(0%,0%,0%);fill-opacity:1;" d="M 114.609375 148.109375 C 114.609375 148.40625 114.566406 148.675781 114.476562 148.921875 C 114.390625 149.167969 114.265625 149.375 114.097656 149.550781 C 113.9375 149.722656 113.742188 149.859375 113.5 149.949219 C 113.269531 150.042969 113.003906 150.089844 112.710938 150.089844 C 112.390625 150.089844 112.113281 150.042969 111.875 149.949219 C 111.640625 149.851562 111.445312 149.710938 111.289062 149.539062 C 111.128906 149.359375 111.007812 149.148438 110.929688 148.910156 C 110.847656 148.664062 110.8125 148.398438 110.8125 148.109375 C 110.8125 147.8125 110.847656 147.542969 110.929688 147.304688 C 111.015625 147.0625 111.140625 146.855469 111.300781 146.6875 C 111.464844 146.523438 111.664062 146.394531 111.894531 146.296875 C 112.136719 146.207031 112.40625 146.15625 112.710938 146.15625 C 113.015625 146.15625 113.285156 146.207031 113.523438 146.296875 C 113.761719 146.394531 113.960938 146.527344 114.121094 146.699219 C 114.277344 146.867188 114.398438 147.066406 114.476562 147.304688 C 114.566406 147.542969 114.609375 147.8125 114.609375 148.109375 Z M 114.078125 148.109375 C 114.078125 147.878906 114.046875 147.667969 113.988281 147.480469 C 113.929688 147.292969 113.84375 147.132812 113.730469 147.003906 C 113.613281 146.867188 113.46875 146.761719 113.296875 146.6875 C 113.128906 146.617188 112.933594 146.578125 112.710938 146.578125 C 112.484375 146.578125 112.285156 146.617188 112.113281 146.6875 C 111.941406 146.761719 111.792969 146.867188 111.679688 147.003906 C 111.570312 147.132812 111.488281 147.292969 111.429688 147.480469 C 111.371094 147.667969 111.34375 147.878906 111.34375 148.109375 C 111.34375 148.339844 111.371094 148.550781 111.429688 148.746094 C 111.488281 148.9375 111.574219 149.097656 111.691406 149.234375 C 111.804688 149.371094 111.945312 149.480469 112.113281 149.558594 C 112.285156 149.632812 112.484375 149.667969 112.710938 149.667969 C 112.949219 149.667969 113.15625 149.632812 113.328125 149.558594 C 113.5 149.480469 113.644531 149.371094 113.75 149.234375 C 113.859375 149.089844 113.9375 148.925781 113.988281 148.734375 C 114.046875 148.542969 114.078125 148.332031 114.078125 148.109375 Z M 114.078125 148.109375 "/>
<path style=" stroke:none;fill-rule:nonzero;fill:rgb(0%,0%,0%);fill-opacity:1;" d="M 191.730469 167.4375 C 191.730469 167.734375 191.6875 168.007812 191.601562 168.25 C 191.511719 168.496094 191.386719 168.707031 191.21875 168.878906 C 191.058594 169.050781 190.863281 169.1875 190.625 169.28125 C 190.390625 169.371094 190.128906 169.421875 189.832031 169.421875 C 189.511719 169.421875 189.234375 169.371094 188.996094 169.28125 C 188.761719 169.179688 188.566406 169.042969 188.410156 168.867188 C 188.25 168.6875 188.132812 168.476562 188.050781 168.238281 C 187.972656 167.996094 187.933594 167.726562 187.933594 167.4375 C 187.933594 167.140625 187.972656 166.875 188.050781 166.636719 C 188.140625 166.390625 188.261719 166.1875 188.421875 166.019531 C 188.585938 165.851562 188.785156 165.722656 189.019531 165.628906 C 189.257812 165.535156 189.527344 165.488281 189.832031 165.488281 C 190.136719 165.488281 190.40625 165.535156 190.644531 165.628906 C 190.882812 165.722656 191.082031 165.855469 191.242188 166.027344 C 191.398438 166.195312 191.519531 166.398438 191.601562 166.636719 C 191.6875 166.875 191.730469 167.140625 191.730469 167.4375 Z M 191.199219 167.4375 C 191.199219 167.207031 191.167969 167 191.113281 166.808594 C 191.050781 166.621094 190.964844 166.460938 190.851562 166.332031 C 190.734375 166.195312 190.589844 166.089844 190.417969 166.019531 C 190.25 165.949219 190.054688 165.910156 189.832031 165.910156 C 189.605469 165.910156 189.410156 165.949219 189.234375 166.019531 C 189.0625 166.089844 188.914062 166.195312 188.800781 166.332031 C 188.691406 166.460938 188.609375 166.621094 188.550781 166.808594 C 188.492188 167 188.464844 167.207031 188.464844 167.4375 C 188.464844 167.671875 188.492188 167.882812 188.550781 168.078125 C 188.609375 168.265625 188.695312 168.429688 188.8125 168.566406 C 188.925781 168.703125 189.066406 168.8125 189.234375 168.890625 C 189.410156 168.964844 189.605469 169 189.832031 169 C 190.070312 169 190.277344 168.964844 190.449219 168.890625 C 190.625 168.8125 190.765625 168.703125 190.871094 168.566406 C 190.980469 168.421875 191.058594 168.257812 191.113281 168.066406 C 191.167969 167.871094 191.199219 167.664062 191.199219 167.4375 Z M 191.199219 167.4375 "/>
<path style=" stroke:none;fill-rule:nonzero;fill:rgb(0%,0%,0%);fill-opacity:1;" d="M 92.027344 101.984375 C 92.027344 102.28125 91.984375 102.554688 91.898438 102.796875 C 91.808594 103.042969 91.683594 103.253906 91.515625 103.425781 C 91.359375 103.597656 91.160156 103.734375 90.921875 103.828125 C 90.6875 103.917969 90.425781 103.96875 90.128906 103.96875 C 89.808594 103.96875 89.53125 103.917969 89.292969 103.828125 C 89.058594 103.726562 88.863281 103.589844 88.707031 103.414062 C 88.546875 103.234375 88.429688 103.023438 88.351562 102.785156 C 88.269531 102.542969 88.230469 102.273438 88.230469 101.984375 C 88.230469 101.6875 88.269531 101.421875 88.351562 101.183594 C 88.4375 100.9375 88.558594 100.734375 88.71875 100.566406 C 88.882812 100.398438 89.082031 100.269531 89.316406 100.175781 C 89.554688 100.082031 89.824219 100.035156 90.128906 100.035156 C 90.433594 100.035156 90.703125 100.082031 90.941406 100.175781 C 91.179688 100.269531 91.378906 100.402344 91.539062 100.574219 C 91.695312 100.742188 91.816406 100.945312 91.898438 101.183594 C 91.984375 101.421875 92.027344 101.6875 92.027344 101.984375 Z M 91.496094 101.984375 C 91.496094 101.753906 91.464844 101.546875 91.410156 101.355469 C 91.347656 101.167969 91.261719 101.007812 91.148438 100.878906 C 91.03125 100.742188 90.886719 100.636719 90.714844 100.566406 C 90.546875 100.492188 90.351562 100.457031 90.128906 100.457031 C 89.902344 100.457031 89.707031 100.492188 89.53125 100.566406 C 89.359375 100.636719 89.210938 100.742188 89.097656 100.878906 C 88.988281 101.007812 88.90625 101.167969 88.847656 101.355469 C 88.789062 101.546875 88.761719 101.753906 88.761719 101.984375 C 88.761719 102.21875 88.789062 102.429688 88.847656 102.625 C 88.90625 102.8125 88.992188 102.976562 89.109375 103.109375 C 89.222656 103.25 89.363281 103.359375 89.53125 103.4375 C 89.707031 103.507812 89.902344 103.542969 90.128906 103.542969 C 90.367188 103.542969 90.574219 103.507812 90.746094 103.4375 C 90.921875 103.359375 91.0625 103.25 91.171875 103.109375 C 91.277344 102.96875 91.359375 102.800781 91.410156 102.613281 C 91.464844 102.417969 91.496094 102.210938 91.496094 101.984375 Z M 91.496094 101.984375 "/>
<path style=" stroke:none;fill-rule:nonzero;fill:rgb(0%,0%,0%);fill-opacity:1;" d="M 176.101562 136.527344 C 176.101562 136.824219 176.058594 137.09375 175.972656 137.339844 C 175.886719 137.585938 175.757812 137.792969 175.59375 137.96875 C 175.433594 138.140625 175.234375 138.277344 174.996094 138.367188 C 174.761719 138.460938 174.5 138.507812 174.203125 138.507812 C 173.882812 138.507812 173.609375 138.460938 173.367188 138.367188 C 173.136719 138.269531 172.941406 138.128906 172.78125 137.957031 C 172.625 137.777344 172.503906 137.566406 172.425781 137.328125 C 172.34375 137.085938 172.304688 136.816406 172.304688 136.527344 C 172.304688 136.230469 172.34375 135.960938 172.425781 135.722656 C 172.511719 135.480469 172.632812 135.273438 172.792969 135.105469 C 172.960938 134.941406 173.15625 134.8125 173.390625 134.714844 C 173.628906 134.625 173.902344 134.574219 174.203125 134.574219 C 174.507812 134.574219 174.78125 134.625 175.019531 134.714844 C 175.257812 134.8125 175.453125 134.945312 175.613281 135.117188 C 175.773438 135.285156 175.890625 135.484375 175.972656 135.722656 C 176.058594 135.960938 176.101562 136.230469 176.101562 136.527344 Z M 175.570312 136.527344 C 175.570312 136.296875 175.542969 136.085938 175.484375 135.898438 C 175.425781 135.710938 175.339844 135.550781 175.222656 135.421875 C 175.109375 135.285156 174.964844 135.179688 174.789062 135.105469 C 174.621094 135.035156 174.425781 135 174.203125 135 C 173.980469 135 173.78125 135.035156 173.609375 135.105469 C 173.433594 135.179688 173.289062 135.285156 173.171875 135.421875 C 173.066406 135.550781 172.980469 135.710938 172.925781 135.898438 C 172.863281 136.085938 172.835938 136.296875 172.835938 136.527344 C 172.835938 136.757812 172.863281 136.96875 172.925781 137.164062 C 172.980469 137.355469 173.066406 137.519531 173.183594 137.652344 C 173.296875 137.792969 173.441406 137.898438 173.609375 137.976562 C 173.78125 138.050781 173.980469 138.085938 174.203125 138.085938 C 174.441406 138.085938 174.648438 138.050781 174.824219 137.976562 C 174.996094 137.898438 175.136719 137.792969 175.246094 137.652344 C 175.355469 137.507812 175.433594 137.34375 175.484375 137.15625 C 175.542969 136.960938 175.570312 136.75 175.570312 136.527344 Z M 175.570312 136.527344 "/>
<path style=" stroke:none;fill-rule:nonzero;fill:rgb(0%,0%,0%);fill-opacity:1;" d="M 49.691406 83.863281 C 49.691406 84.160156 49.648438 84.429688 49.5625 84.675781 C 49.472656 84.921875 49.347656 85.128906 49.179688 85.304688 C 49.019531 85.476562 48.824219 85.613281 48.585938 85.703125 C 48.351562 85.796875 48.089844 85.84375 47.792969 85.84375 C 47.472656 85.84375 47.195312 85.796875 46.957031 85.703125 C 46.722656 85.605469 46.527344 85.464844 46.371094 85.292969 C 46.210938 85.113281 46.09375 84.902344 46.015625 84.664062 C 45.933594 84.421875 45.894531 84.152344 45.894531 83.863281 C 45.894531 83.566406 45.933594 83.300781 46.015625 83.0625 C 46.101562 82.816406 46.222656 82.609375 46.382812 82.441406 C 46.546875 82.277344 46.746094 82.148438 46.980469 82.054688 C 47.21875 81.960938 47.488281 81.910156 47.792969 81.910156 C 48.097656 81.910156 48.367188 81.960938 48.605469 82.054688 C 48.84375 82.148438 49.042969 82.28125 49.203125 82.453125 C 49.359375 82.621094 49.480469 82.820312 49.5625 83.0625 C 49.648438 83.300781 49.691406 83.566406 49.691406 83.863281 Z M 49.160156 83.863281 C 49.160156 83.632812 49.128906 83.421875 49.074219 83.234375 C 49.011719 83.046875 48.925781 82.886719 48.8125 82.757812 C 48.695312 82.621094 48.550781 82.515625 48.378906 82.441406 C 48.210938 82.371094 48.015625 82.335938 47.792969 82.335938 C 47.566406 82.335938 47.371094 82.371094 47.195312 82.441406 C 47.023438 82.515625 46.875 82.621094 46.761719 82.757812 C 46.652344 82.886719 46.570312 83.046875 46.511719 83.234375 C 46.453125 83.421875 46.425781 83.632812 46.425781 83.863281 C 46.425781 84.09375 46.453125 84.308594 46.511719 84.5 C 46.570312 84.691406 46.65625 84.855469 46.773438 84.988281 C 46.886719 85.128906 47.027344 85.234375 47.195312 85.316406 C 47.371094 85.386719 47.566406 85.421875 47.792969 85.421875 C 48.03125 85.421875 48.238281 85.386719 48.410156 85.316406 C 48.585938 85.234375 48.726562 85.128906 48.835938 84.988281 C 48.941406 84.847656 49.019531 84.679688 49.074219 84.492188 C 49.128906 84.296875 49.160156 84.085938 49.160156 83.863281 Z M 49.160156 83.863281 "/>
<path style=" stroke:none;fill-rule:nonzero;fill:rgb(0%,0%,0%);fill-opacity:1;" d="M 68.441406 55.261719 C 68.441406 55.558594 68.398438 55.832031 68.308594 56.074219 C 68.222656 56.320312 68.09375 56.53125 67.929688 56.703125 C 67.769531 56.875 67.570312 57.011719 67.332031 57.105469 C 67.101562 57.195312 66.835938 57.246094 66.542969 57.246094 C 66.222656 57.246094 65.945312 57.195312 65.707031 57.105469 C 65.472656 57.003906 65.277344 56.867188 65.121094 56.691406 C 64.960938 56.511719 64.839844 56.300781 64.761719 56.0625 C 64.679688 55.820312 64.644531 55.550781 64.644531 55.261719 C 64.644531 54.964844 64.679688 54.699219 64.761719 54.460938 C 64.847656 54.214844 64.972656 54.011719 65.132812 53.84375 C 65.296875 53.675781 65.496094 53.546875 65.726562 53.453125 C 65.964844 53.359375 66.238281 53.3125 66.542969 53.3125 C 66.84375 53.3125 67.117188 53.359375 67.355469 53.453125 C 67.59375 53.546875 67.792969 53.679688 67.953125 53.851562 C 68.109375 54.019531 68.230469 54.222656 68.308594 54.460938 C 68.398438 54.699219 68.441406 54.964844 68.441406 55.261719 Z M 67.910156 55.261719 C 67.910156 55.03125 67.878906 54.824219 67.820312 54.632812 C 67.761719 54.445312 67.675781 54.285156 67.5625 54.15625 C 67.445312 54.019531 67.300781 53.914062 67.128906 53.84375 C 66.960938 53.773438 66.765625 53.734375 66.542969 53.734375 C 66.316406 53.734375 66.117188 53.773438 65.945312 53.84375 C 65.769531 53.914062 65.625 54.019531 65.511719 54.15625 C 65.402344 54.285156 65.320312 54.445312 65.261719 54.632812 C 65.203125 54.824219 65.175781 55.03125 65.175781 55.261719 C 65.175781 55.496094 65.203125 55.707031 65.261719 55.902344 C 65.320312 56.089844 65.40625 56.253906 65.523438 56.390625 C 65.636719 56.527344 65.777344 56.636719 65.945312 56.714844 C 66.117188 56.785156 66.316406 56.820312 66.542969 56.820312 C 66.78125 56.820312 66.988281 56.785156 67.160156 56.714844 C 67.332031 56.636719 67.476562 56.527344 67.582031 56.390625 C 67.691406 56.246094 67.769531 56.078125 67.820312 55.890625 C 67.878906 55.695312 67.910156 55.488281 67.910156 55.261719 Z M 67.910156 55.261719 "/>
<path style=" stroke:none;fill-rule:nonzero;fill:rgb(0%,0%,0%);fill-opacity:1;" d="M 103.015625 57.378906 C 103.015625 57.675781 102.972656 57.945312 102.886719 58.191406 C 102.800781 58.4375 102.671875 58.644531 102.507812 58.820312 C 102.347656 58.992188 102.148438 59.128906 101.910156 59.21875 C 101.675781 59.3125 101.414062 59.359375 101.117188 59.359375 C 100.796875 59.359375 100.523438 59.3125 100.28125 59.21875 C 100.050781 59.121094 99.855469 58.980469 99.695312 58.808594 C 99.539062 58.628906 99.417969 58.417969 99.339844 58.179688 C 99.257812 57.9375 99.21875 57.667969 99.21875 57.378906 C 99.21875 57.082031 99.257812 56.8125 99.339844 56.574219 C 99.425781 56.332031 99.546875 56.125 99.707031 55.957031 C 99.875 55.792969 100.070312 55.664062 100.304688 55.566406 C 100.542969 55.476562 100.816406 55.425781 101.117188 55.425781 C 101.421875 55.425781 101.691406 55.476562 101.933594 55.566406 C 102.171875 55.664062 102.367188 55.796875 102.527344 55.96875 C 102.6875 56.136719 102.804688 56.335938 102.886719 56.574219 C 102.972656 56.8125 103.015625 57.082031 103.015625 57.378906 Z M 102.484375 57.378906 C 102.484375 57.148438 102.457031 56.9375 102.398438 56.75 C 102.339844 56.5625 102.253906 56.402344 102.136719 56.273438 C 102.023438 56.136719 101.878906 56.03125 101.703125 55.957031 C 101.535156 55.886719 101.339844 55.851562 101.117188 55.851562 C 100.894531 55.851562 100.695312 55.886719 100.523438 55.957031 C 100.347656 56.03125 100.203125 56.136719 100.085938 56.273438 C 99.980469 56.402344 99.894531 56.5625 99.839844 56.75 C 99.777344 56.9375 99.75 57.148438 99.75 57.378906 C 99.75 57.609375 99.777344 57.820312 99.839844 58.015625 C 99.894531 58.207031 99.980469 58.367188 100.097656 58.503906 C 100.210938 58.644531 100.355469 58.75 100.523438 58.828125 C 100.695312 58.902344 100.894531 58.9375 101.117188 58.9375 C 101.355469 58.9375 101.5625 58.902344 101.738281 58.828125 C 101.910156 58.75 102.050781 58.644531 102.160156 58.503906 C 102.269531 58.359375 102.347656 58.195312 102.398438 58.007812 C 102.457031 57.8125 102.484375 57.601562 102.484375 57.378906 Z M 102.484375 57.378906 "/>
<path style=" stroke:none;fill-rule:nonzero;fill:rgb(0%,0%,0%);fill-opacity:1;" d="M 126.304688 104.101562 C 126.304688 104.402344 126.257812 104.671875 126.171875 104.914062 C 126.085938 105.160156 125.957031 105.371094 125.792969 105.542969 C 125.632812 105.71875 125.433594 105.851562 125.195312 105.945312 C 124.964844 106.035156 124.699219 106.085938 124.40625 106.085938 C 124.085938 106.085938 123.808594 106.035156 123.570312 105.945312 C 123.335938 105.84375 123.140625 105.707031 122.984375 105.53125 C 122.824219 105.355469 122.703125 105.144531 122.625 104.90625 C 122.542969 104.660156 122.507812 104.390625 122.507812 104.101562 C 122.507812 103.808594 122.542969 103.539062 122.625 103.300781 C 122.710938 103.058594 122.835938 102.851562 122.996094 102.683594 C 123.160156 102.519531 123.359375 102.386719 123.589844 102.292969 C 123.828125 102.199219 124.101562 102.152344 124.40625 102.152344 C 124.707031 102.152344 124.980469 102.199219 125.21875 102.292969 C 125.457031 102.386719 125.65625 102.519531 125.816406 102.695312 C 125.972656 102.863281 126.089844 103.0625 126.171875 103.300781 C 126.257812 103.539062 126.304688 103.808594 126.304688 104.101562 Z M 125.769531 104.101562 C 125.769531 103.871094 125.742188 103.664062 125.683594 103.472656 C 125.625 103.289062 125.539062 103.128906 125.425781 102.996094 C 125.308594 102.863281 125.164062 102.757812 124.992188 102.683594 C 124.820312 102.613281 124.625 102.574219 124.40625 102.574219 C 124.179688 102.574219 123.980469 102.613281 123.808594 102.683594 C 123.632812 102.757812 123.488281 102.863281 123.375 102.996094 C 123.265625 103.128906 123.179688 103.289062 123.125 103.472656 C 123.066406 103.664062 123.039062 103.871094 123.039062 104.101562 C 123.039062 104.335938 123.066406 104.546875 123.125 104.742188 C 123.179688 104.933594 123.269531 105.09375 123.386719 105.230469 C 123.5 105.367188 123.640625 105.476562 123.808594 105.554688 C 123.980469 105.628906 124.179688 105.664062 124.40625 105.664062 C 124.644531 105.664062 124.847656 105.628906 125.023438 105.554688 C 125.195312 105.476562 125.335938 105.367188 125.445312 105.230469 C 125.554688 105.085938 125.632812 104.921875 125.683594 104.730469 C 125.742188 104.535156 125.769531 104.328125 125.769531 104.101562 Z M 125.769531 104.101562 "/>
<path style=" stroke:none;fill-rule:nonzero;fill:rgb(0%,0%,0%);fill-opacity:1;" d="M 169.960938 92.390625 C 169.960938 92.550781 169.925781 92.699219 169.863281 92.835938 C 169.800781 92.964844 169.710938 93.082031 169.582031 93.183594 C 169.449219 93.285156 169.28125 93.363281 169.082031 93.421875 C 168.886719 93.46875 168.652344 93.496094 168.386719 93.496094 C 167.910156 93.496094 167.535156 93.414062 167.269531 93.246094 C 167 93.082031 166.832031 92.839844 166.757812 92.519531 L 167.269531 92.421875 C 167.292969 92.527344 167.328125 92.617188 167.378906 92.695312 C 167.433594 92.777344 167.507812 92.847656 167.59375 92.910156 C 167.683594 92.96875 167.789062 93.015625 167.921875 93.050781 C 168.054688 93.082031 168.214844 93.09375 168.398438 93.09375 C 168.554688 93.09375 168.695312 93.082031 168.820312 93.050781 C 168.949219 93.023438 169.0625 92.984375 169.15625 92.933594 C 169.25 92.875 169.324219 92.808594 169.375 92.726562 C 169.421875 92.640625 169.449219 92.539062 169.449219 92.414062 C 169.449219 92.289062 169.421875 92.191406 169.363281 92.109375 C 169.304688 92.03125 169.226562 91.964844 169.125 91.914062 C 169.023438 91.867188 168.898438 91.824219 168.753906 91.796875 C 168.609375 91.757812 168.453125 91.71875 168.277344 91.675781 C 168.167969 91.652344 168.0625 91.628906 167.953125 91.601562 C 167.851562 91.574219 167.75 91.539062 167.648438 91.503906 C 167.546875 91.46875 167.453125 91.421875 167.367188 91.371094 C 167.28125 91.316406 167.203125 91.25 167.140625 91.175781 C 167.078125 91.105469 167.035156 91.023438 167 90.929688 C 166.960938 90.828125 166.945312 90.714844 166.945312 90.59375 C 166.945312 90.414062 166.980469 90.257812 167.050781 90.125 C 167.121094 89.996094 167.226562 89.894531 167.355469 89.8125 C 167.488281 89.726562 167.636719 89.664062 167.8125 89.628906 C 167.992188 89.585938 168.1875 89.5625 168.398438 89.5625 C 168.628906 89.5625 168.828125 89.585938 168.996094 89.628906 C 169.167969 89.664062 169.3125 89.71875 169.429688 89.789062 C 169.542969 89.863281 169.632812 89.953125 169.699219 90.0625 C 169.769531 90.167969 169.828125 90.296875 169.875 90.441406 L 169.363281 90.539062 C 169.332031 90.445312 169.292969 90.363281 169.242188 90.289062 C 169.199219 90.21875 169.136719 90.15625 169.058594 90.105469 C 168.984375 90.054688 168.890625 90.019531 168.777344 89.996094 C 168.667969 89.96875 168.539062 89.953125 168.386719 89.953125 C 168.214844 89.953125 168.0625 89.972656 167.941406 90.007812 C 167.816406 90.035156 167.71875 90.078125 167.648438 90.136719 C 167.574219 90.1875 167.523438 90.25 167.488281 90.320312 C 167.457031 90.394531 167.441406 90.472656 167.441406 90.558594 C 167.441406 90.675781 167.46875 90.769531 167.53125 90.839844 C 167.585938 90.914062 167.664062 90.976562 167.757812 91.027344 C 167.859375 91.078125 167.976562 91.121094 168.105469 91.15625 C 168.234375 91.183594 168.371094 91.214844 168.515625 91.242188 C 168.632812 91.273438 168.746094 91.300781 168.863281 91.328125 C 168.976562 91.359375 169.09375 91.390625 169.199219 91.425781 C 169.308594 91.464844 169.40625 91.511719 169.492188 91.566406 C 169.585938 91.617188 169.667969 91.683594 169.730469 91.761719 C 169.800781 91.835938 169.855469 91.921875 169.894531 92.023438 C 169.9375 92.125 169.960938 92.246094 169.960938 92.390625 Z M 169.960938 92.390625 "/>
<path style=" stroke:none;fill-rule:nonzero;fill:rgb(0%,0%,0%);fill-opacity:1;" d="M 174.488281 31.398438 C 174.488281 31.695312 174.445312 31.964844 174.359375 32.210938 C 174.273438 32.457031 174.144531 32.664062 173.980469 32.835938 C 173.820312 33.011719 173.621094 33.148438 173.382812 33.238281 C 173.148438 33.332031 172.886719 33.378906 172.589844 33.378906 C 172.269531 33.378906 171.992188 33.332031 171.753906 33.238281 C 171.523438 33.136719 171.328125 33 171.167969 32.828125 C 171.007812 32.648438 170.890625 32.4375 170.8125 32.199219 C 170.730469 31.953125 170.691406 31.6875 170.691406 31.398438 C 170.691406 31.101562 170.730469 30.832031 170.8125 30.59375 C 170.898438 30.351562 171.019531 30.144531 171.179688 29.976562 C 171.347656 29.8125 171.542969 29.683594 171.777344 29.585938 C 172.015625 29.496094 172.285156 29.445312 172.589844 29.445312 C 172.894531 29.445312 173.164062 29.496094 173.402344 29.585938 C 173.644531 29.683594 173.839844 29.8125 174 29.988281 C 174.160156 30.15625 174.277344 30.355469 174.359375 30.59375 C 174.445312 30.832031 174.488281 31.101562 174.488281 31.398438 Z M 173.957031 31.398438 C 173.957031 31.167969 173.925781 30.957031 173.871094 30.769531 C 173.8125 30.582031 173.722656 30.421875 173.609375 30.292969 C 173.492188 30.15625 173.351562 30.050781 173.175781 29.976562 C 173.007812 29.90625 172.8125 29.867188 172.589844 29.867188 C 172.367188 29.867188 172.167969 29.90625 171.992188 29.976562 C 171.820312 30.050781 171.675781 30.15625 171.558594 30.292969 C 171.453125 30.421875 171.367188 30.582031 171.308594 30.769531 C 171.25 30.957031 171.222656 31.167969 171.222656 31.398438 C 171.222656 31.628906 171.25 31.839844 171.308594 32.035156 C 171.367188 32.226562 171.453125 32.386719 171.570312 32.523438 C 171.683594 32.660156 171.824219 32.769531 171.992188 32.847656 C 172.167969 32.921875 172.367188 32.957031 172.589844 32.957031 C 172.828125 32.957031 173.035156 32.921875 173.210938 32.847656 C 173.382812 32.769531 173.523438 32.660156 173.632812 32.523438 C 173.742188 32.378906 173.820312 32.214844 173.871094 32.023438 C 173.925781 31.828125 173.957031 31.621094 173.957031 31.398438 Z M 173.957031 31.398438 "/>
<path style=" stroke:none;fill-rule:nonzero;fill:rgb(0%,0%,0%);fill-opacity:1;" d="M 199.390625 48.3125 C 199.390625 48.609375 199.34375 48.882812 199.257812 49.125 C 199.171875 49.371094 199.042969 49.582031 198.878906 49.753906 C 198.71875 49.925781 198.519531 50.0625 198.28125 50.15625 C 198.050781 50.246094 197.785156 50.296875 197.492188 50.296875 C 197.171875 50.296875 196.894531 50.246094 196.65625 50.15625 C 196.421875 50.054688 196.226562 49.917969 196.070312 49.742188 C 195.910156 49.5625 195.789062 49.351562 195.710938 49.113281 C 195.628906 48.871094 195.59375 48.601562 195.59375 48.3125 C 195.59375 48.015625 195.628906 47.75 195.710938 47.511719 C 195.796875 47.265625 195.921875 47.0625 196.082031 46.894531 C 196.246094 46.726562 196.445312 46.597656 196.675781 46.503906 C 196.914062 46.410156 197.1875 46.363281 197.492188 46.363281 C 197.792969 46.363281 198.066406 46.410156 198.304688 46.503906 C 198.542969 46.597656 198.742188 46.730469 198.902344 46.902344 C 199.058594 47.070312 199.175781 47.273438 199.257812 47.511719 C 199.34375 47.75 199.390625 48.015625 199.390625 48.3125 Z M 198.859375 48.3125 C 198.859375 48.082031 198.828125 47.875 198.769531 47.683594 C 198.710938 47.496094 198.625 47.335938 198.511719 47.207031 C 198.394531 47.070312 198.25 46.964844 198.078125 46.894531 C 197.90625 46.824219 197.714844 46.785156 197.492188 46.785156 C 197.265625 46.785156 197.066406 46.824219 196.894531 46.894531 C 196.71875 46.964844 196.574219 47.070312 196.460938 47.207031 C 196.351562 47.335938 196.265625 47.496094 196.210938 47.683594 C 196.152344 47.875 196.125 48.082031 196.125 48.3125 C 196.125 48.546875 196.152344 48.757812 196.210938 48.953125 C 196.265625 49.140625 196.355469 49.304688 196.472656 49.441406 C 196.585938 49.578125 196.726562 49.6875 196.894531 49.765625 C 197.066406 49.839844 197.265625 49.875 197.492188 49.875 C 197.730469 49.875 197.933594 49.839844 198.109375 49.765625 C 198.28125 49.6875 198.421875 49.578125 198.53125 49.441406 C 198.640625 49.296875 198.71875 49.132812 198.769531 48.941406 C 198.828125 48.746094 198.859375 48.539062 198.859375 48.3125 Z M 198.859375 48.3125 "/>
<path style=" stroke:none;fill-rule:nonzero;fill:rgb(0%,0%,0%);fill-opacity:1;" d="M 181.972656 15.464844 C 181.757812 15.464844 181.566406 15.503906 181.398438 15.574219 C 181.230469 15.648438 181.089844 15.753906 180.976562 15.890625 C 180.867188 16.019531 180.785156 16.179688 180.726562 16.367188 C 180.667969 16.554688 180.640625 16.765625 180.640625 16.996094 C 180.640625 17.226562 180.667969 17.4375 180.726562 17.632812 C 180.792969 17.824219 180.882812 17.984375 181 18.121094 C 181.113281 18.261719 181.253906 18.367188 181.421875 18.445312 C 181.59375 18.519531 181.785156 18.554688 181.996094 18.554688 C 182.148438 18.554688 182.28125 18.539062 182.398438 18.5 C 182.519531 18.457031 182.632812 18.402344 182.734375 18.328125 C 182.835938 18.257812 182.921875 18.171875 182.996094 18.078125 C 183.074219 17.984375 183.140625 17.878906 183.199219 17.753906 L 183.625 17.96875 C 183.558594 18.117188 183.472656 18.25 183.375 18.371094 C 183.269531 18.496094 183.152344 18.605469 183.015625 18.695312 C 182.878906 18.78125 182.722656 18.851562 182.550781 18.902344 C 182.375 18.949219 182.183594 18.976562 181.972656 18.976562 C 181.664062 18.976562 181.390625 18.929688 181.160156 18.835938 C 180.925781 18.738281 180.730469 18.597656 180.574219 18.425781 C 180.421875 18.246094 180.304688 18.035156 180.226562 17.796875 C 180.148438 17.554688 180.109375 17.285156 180.109375 16.996094 C 180.109375 16.699219 180.148438 16.429688 180.226562 16.191406 C 180.316406 15.949219 180.4375 15.742188 180.597656 15.574219 C 180.753906 15.410156 180.949219 15.28125 181.183594 15.183594 C 181.414062 15.09375 181.675781 15.042969 181.972656 15.042969 C 182.378906 15.042969 182.714844 15.125 182.984375 15.28125 C 183.257812 15.441406 183.460938 15.679688 183.589844 15.996094 L 183.101562 16.160156 C 183.066406 16.066406 183.015625 15.980469 182.949219 15.898438 C 182.890625 15.8125 182.816406 15.742188 182.722656 15.683594 C 182.628906 15.617188 182.519531 15.570312 182.398438 15.53125 C 182.273438 15.488281 182.132812 15.464844 181.972656 15.464844 Z M 181.972656 15.464844 "/>
<path style="fill:none;stroke-width:0.0333333;stroke-linecap:butt;stroke-linejoin:miter;stroke:rgb(0%,0%,0%);stroke-opacity:1;stroke-miterlimit:10;" d="M 3.851221 10.07289 L 4.407536 9.22039 " transform="matrix(17.357513,0,0,17.33871,17.046913,17.013154)"/>
<path style="fill:none;stroke-width:0.0333333;stroke-linecap:butt;stroke-linejoin:miter;stroke:rgb(0%,0%,0%);stroke-opacity:1;stroke-miterlimit:10;" d="M 3.788208 10.04991 L 3.786858 10.069285 M 3.720244 10.034815 L 3.717318 10.073791 M 3.652055 10.019946 L 3.647779 10.078071 M 3.584091 10.005077 L 3.578239 10.082577 M 3.516127 9.989983 L 3.5087 10.087083 M 3.447937 9.975113 L 3.438936 10.091363 M 3.379973 9.960244 L 3.369396 10.095869 M 3.311784 9.94515 L 3.299857 10.100375 M 3.24382 9.930281 L 3.230317 10.104656 M 3.175631 9.915186 L 3.160778 10.109161 M 3.107667 9.900317 L 3.091238 10.113667 M 3.039703 9.885448 L 3.021699 10.117948 " transform="matrix(17.357513,0,0,17.33871,17.046913,17.013154)"/>
<path style="fill:none;stroke-width:0.0333333;stroke-linecap:butt;stroke-linejoin:miter;stroke:rgb(0%,0%,0%);stroke-opacity:1;stroke-miterlimit:10;" d="M 3.852121 10.056218 L 4.302214 10.973827 " transform="matrix(17.357513,0,0,17.33871,17.046913,17.013154)"/>
<path style="fill:none;stroke-width:0.0333333;stroke-linecap:butt;stroke-linejoin:miter;stroke:rgb(0%,0%,0%);stroke-opacity:1;stroke-miterlimit:10;" d="M 4.392683 9.228049 L 5.231432 9.272432 " transform="matrix(17.357513,0,0,17.33871,17.046913,17.013154)"/>
<path style=" stroke:none;fill-rule:nonzero;fill:rgb(0%,0%,0%);fill-opacity:1;" d="M 93.460938 177.023438 L 87.222656 159.507812 L 85.824219 161.566406 L 84.007812 162.460938 "/>
<path style="fill:none;stroke-width:0.0333333;stroke-linecap:butt;stroke-linejoin:miter;stroke:rgb(0%,0%,0%);stroke-opacity:1;stroke-miterlimit:10;" d="M 2.776398 9.802766 L 2.417674 9.080259 " transform="matrix(17.357513,0,0,17.33871,17.046913,17.013154)"/>
<path style="fill:none;stroke-width:0.0333333;stroke-linecap:butt;stroke-linejoin:miter;stroke:rgb(0%,0%,0%);stroke-opacity:1;stroke-miterlimit:10;" d="M 4.288037 10.964365 L 5.312224 11.017759 " transform="matrix(17.357513,0,0,17.33871,17.046913,17.013154)"/>
<path style=" stroke:none;fill-rule:nonzero;fill:rgb(0%,0%,0%);fill-opacity:1;" d="M 91.648438 207.132812 L 82.699219 217.210938 L 86.097656 219.410156 "/>
<path style="fill:none;stroke-width:0.0333333;stroke-linecap:butt;stroke-linejoin:miter;stroke:rgb(0%,0%,0%);stroke-opacity:1;stroke-miterlimit:10;" d="M 5.82668 10.122454 L 5.809352 10.13124 M 5.804851 10.058246 L 5.770194 10.075593 M 5.783246 9.993813 L 5.731261 10.019946 M 5.761417 9.929154 L 5.692103 9.964299 M 5.739812 9.864946 L 5.652944 9.908878 M 5.717983 9.800513 L 5.614011 9.853231 M 5.696378 9.73608 L 5.574853 9.797584 M 5.674774 9.671647 L 5.53592 9.742163 M 5.652944 9.607439 L 5.496762 9.686516 M 5.63134 9.543006 L 5.457829 9.630869 M 5.60951 9.478573 L 5.418896 9.575448 M 5.587906 9.41414 L 5.379738 9.519801 " transform="matrix(17.357513,0,0,17.33871,17.046913,17.013154)"/>
<path style="fill:none;stroke-width:0.0333333;stroke-linecap:butt;stroke-linejoin:miter;stroke:rgb(0%,0%,0%);stroke-opacity:1;stroke-miterlimit:10;" d="M 3.961269 8.353696 L 4.426215 7.670164 " transform="matrix(17.357513,0,0,17.33871,17.046913,17.013154)"/>
<path style="fill:none;stroke-width:0.0333333;stroke-linecap:butt;stroke-linejoin:miter;stroke:rgb(0%,0%,0%);stroke-opacity:1;stroke-miterlimit:10;" d="M 2.470785 9.039031 L 2.453456 9.02664 M 2.519845 8.988791 L 2.485188 8.964009 M 2.56868 8.938551 L 2.516919 8.901603 M 2.617515 8.888536 L 2.548426 8.839198 M 2.666575 8.838297 L 2.580158 8.776567 M 2.715411 8.788057 L 2.611889 8.714161 M 2.764246 8.738042 L 2.643621 8.651531 M 2.813306 8.687802 L 2.675127 8.589125 M 2.862141 8.637788 L 2.706859 8.526494 M 2.910976 8.587323 L 2.73859 8.464089 M 2.960036 8.537308 L 2.770322 8.401683 " transform="matrix(17.357513,0,0,17.33871,17.046913,17.013154)"/>
<path style="fill:none;stroke-width:0.0333333;stroke-linecap:butt;stroke-linejoin:miter;stroke:rgb(0%,0%,0%);stroke-opacity:1;stroke-miterlimit:10;" d="M 2.431627 9.089496 L 1.383585 9.036327 " transform="matrix(17.357513,0,0,17.33871,17.046913,17.013154)"/>
<path style="fill:none;stroke-width:0.0333333;stroke-linecap:butt;stroke-linejoin:miter;stroke:rgb(0%,0%,0%);stroke-opacity:1;stroke-miterlimit:10;" d="M 5.324826 11.086923 L 5.34373 11.077461 M 5.347106 11.156538 L 5.385139 11.137613 M 5.369386 11.225927 L 5.426547 11.197766 M 5.391665 11.295542 L 5.467731 11.258144 M 5.41372 11.364932 L 5.50914 11.318297 M 5.436225 11.434547 L 5.550323 11.378449 M 5.458504 11.504161 L 5.591732 11.438602 M 5.480784 11.573551 L 5.63314 11.49898 M 5.503063 11.643166 L 5.674549 11.559132 M 5.525343 11.712781 L 5.715732 11.619285 M 5.547623 11.78217 L 5.757141 11.679438 " transform="matrix(17.357513,0,0,17.33871,17.046913,17.013154)"/>
<path style="fill:none;stroke-width:0.0333333;stroke-linecap:butt;stroke-linejoin:miter;stroke:rgb(0%,0%,0%);stroke-opacity:1;stroke-miterlimit:10;" d="M 5.838608 10.186211 L 6.69356 10.245462 " transform="matrix(17.357513,0,0,17.33871,17.046913,17.013154)"/>
<path style="fill:none;stroke-width:0.0333333;stroke-linecap:butt;stroke-linejoin:miter;stroke:rgb(0%,0%,0%);stroke-opacity:1;stroke-miterlimit:10;" d="M 2.895448 8.107454 L 2.52187 7.378863 " transform="matrix(17.357513,0,0,17.33871,17.046913,17.013154)"/>
<path style="fill:none;stroke-width:0.0333333;stroke-linecap:butt;stroke-linejoin:miter;stroke:rgb(0%,0%,0%);stroke-opacity:1;stroke-miterlimit:10;" d="M 1.397988 9.046015 L 0.989303 8.139445 " transform="matrix(17.357513,0,0,17.33871,17.046913,17.013154)"/>
<path style="fill:none;stroke-width:0.0333333;stroke-linecap:butt;stroke-linejoin:miter;stroke:rgb(0%,0%,0%);stroke-opacity:1;stroke-miterlimit:10;" d="M 1.346227 9.089721 L 1.36378 9.101436 M 1.298517 9.142439 L 1.333849 9.165869 M 1.250807 9.195382 L 1.303918 9.230528 M 1.203097 9.2481 L 1.273762 9.294961 M 1.155387 9.301044 L 1.243831 9.359619 M 1.107677 9.353762 L 1.213899 9.424052 M 1.060193 9.40648 L 1.183743 9.488711 M 1.012483 9.459423 L 1.153812 9.553144 M 0.964548 9.512141 L 1.123881 9.617577 M 0.917063 9.565084 L 1.093725 9.682236 M 0.869353 9.617802 L 1.063793 9.746669 " transform="matrix(17.357513,0,0,17.33871,17.046913,17.013154)"/>
<path style="fill:none;stroke-width:0.0333333;stroke-linecap:butt;stroke-linejoin:miter;stroke:rgb(0%,0%,0%);stroke-opacity:1;stroke-miterlimit:10;" d="M 7.360148 9.43757 L 7.376577 9.447933 M 7.315589 9.490063 L 7.348446 9.510789 M 7.270805 9.54233 L 7.320315 9.57342 M 7.226245 9.594597 L 7.291959 9.636276 M 7.181686 9.646865 L 7.263603 9.698907 M 7.136902 9.699358 L 7.235472 9.761763 M 7.092343 9.751625 L 7.207342 9.824394 M 7.047784 9.803893 L 7.179211 9.88725 M 7.002999 9.856385 L 7.150855 9.949881 M 6.95844 9.908653 L 7.122499 10.012737 M 6.913656 9.96092 L 7.094368 10.075368 M 6.869096 10.013413 L 7.066237 10.138224 " transform="matrix(17.357513,0,0,17.33871,17.046913,17.013154)"/>
<path style=" stroke:none;fill-rule:nonzero;fill:rgb(0%,0%,0%);fill-opacity:1;" d="M 60.898438 145.101562 L 72.535156 132.023438 L 70.878906 130.863281 L 69.78125 128.660156 "/>
<path style="fill:none;stroke-width:0.0333333;stroke-linecap:butt;stroke-linejoin:miter;stroke:rgb(0%,0%,0%);stroke-opacity:1;stroke-miterlimit:10;" d="M 2.535823 7.3881 L 1.547193 7.334932 " transform="matrix(17.357513,0,0,17.33871,17.046913,17.013154)"/>
<path style=" stroke:none;fill-rule:nonzero;fill:rgb(0%,0%,0%);fill-opacity:1;" d="M 34.285156 158.292969 L 19.839844 155.761719 L 19.699219 159.804688 "/>
<path style="fill:none;stroke-width:0.0333333;stroke-linecap:butt;stroke-linejoin:miter;stroke:rgb(0%,0%,0%);stroke-opacity:1;stroke-miterlimit:10;" d="M 7.408983 9.393413 L 6.941561 8.493827 " transform="matrix(17.357513,0,0,17.33871,17.046913,17.013154)"/>
<path style="fill:none;stroke-width:0.0333333;stroke-linecap:butt;stroke-linejoin:miter;stroke:rgb(0%,0%,0%);stroke-opacity:1;stroke-miterlimit:10;" d="M 7.395706 9.384627 L 8.425744 9.479249 " transform="matrix(17.357513,0,0,17.33871,17.046913,17.013154)"/>
<path style="fill:none;stroke-width:0.0333333;stroke-linecap:butt;stroke-linejoin:miter;stroke:rgb(0%,0%,0%);stroke-opacity:1;stroke-miterlimit:10;" d="M 3.100015 6.583137 L 2.741066 5.860855 " transform="matrix(17.357513,0,0,17.33871,17.046913,17.013154)"/>
<path style="fill:none;stroke-width:0.0333333;stroke-linecap:butt;stroke-linejoin:miter;stroke:rgb(0%,0%,0%);stroke-opacity:1;stroke-miterlimit:10;" d="M 1.534816 7.270949 L 1.517487 7.279736 M 1.512986 7.206516 L 1.478329 7.224089 M 1.491382 7.142308 L 1.439396 7.168442 M 1.469777 7.077875 L 1.400463 7.11302 M 1.447948 7.013442 L 1.361305 7.057374 M 1.426343 6.949009 L 1.322372 7.001727 M 1.404514 6.884801 L 1.283214 6.94608 M 1.382909 6.820368 L 1.244056 6.890433 M 1.36108 6.755935 L 1.205123 6.834786 M 1.339475 6.691502 L 1.165964 6.779365 M 1.317646 6.627068 L 1.127031 6.723718 M 1.296266 6.562635 L 1.087873 6.668071 " transform="matrix(17.357513,0,0,17.33871,17.046913,17.013154)"/>
<path style="fill:none;stroke-width:0.0333333;stroke-linecap:butt;stroke-linejoin:miter;stroke:rgb(0%,0%,0%);stroke-opacity:1;stroke-miterlimit:10;" d="M 6.940661 8.510724 L 7.393905 7.844314 " transform="matrix(17.357513,0,0,17.33871,17.046913,17.013154)"/>
<path style=" stroke:none;fill-rule:nonzero;fill:rgb(0%,0%,0%);fill-opacity:1;" d="M 137.617188 164.4375 L 119.183594 161.289062 L 120.308594 163.519531 L 120.199219 165.539062 "/>
<path style="fill:none;stroke-width:0.0333333;stroke-linecap:butt;stroke-linejoin:miter;stroke:rgb(0%,0%,0%);stroke-opacity:1;stroke-miterlimit:10;" d="M 8.409991 9.487134 L 8.948752 8.616611 " transform="matrix(17.357513,0,0,17.33871,17.046913,17.013154)"/>
<path style=" stroke:none;fill-rule:nonzero;fill:rgb(0%,0%,0%);fill-opacity:1;" d="M 163.117188 181.351562 L 167.351562 194.332031 L 170.972656 192.523438 "/>
<path style="fill:none;stroke-width:0.0333333;stroke-linecap:butt;stroke-linejoin:miter;stroke:rgb(0%,0%,0%);stroke-opacity:1;stroke-miterlimit:10;" d="M 3.155602 4.865971 L 3.17203 4.876334 M 3.111043 4.917112 L 3.143674 4.938289 M 3.066483 4.968704 L 3.115544 5.000244 M 3.021924 5.02007 L 3.087413 5.061974 M 2.977365 5.071211 L 3.059282 5.123704 M 2.932806 5.122577 L 3.031151 5.185659 M 2.888471 5.174169 L 3.00302 5.247613 M 2.843912 5.22531 L 2.974889 5.309343 M 2.799353 5.276676 L 2.946534 5.371298 M 2.755019 5.328042 L 2.918628 5.433253 M 2.71046 5.379409 L 2.890497 5.494983 M 2.6659 5.430775 L 2.862366 5.556712 " transform="matrix(17.357513,0,0,17.33871,17.046913,17.013154)"/>
<path style="fill:none;stroke-width:0.0333333;stroke-linecap:butt;stroke-linejoin:miter;stroke:rgb(0%,0%,0%);stroke-opacity:1;stroke-miterlimit:10;" d="M 7.673863 7.675571 L 8.512162 7.72491 " transform="matrix(17.357513,0,0,17.33871,17.046913,17.013154)"/>
<path style="fill:none;stroke-width:0.0333333;stroke-linecap:butt;stroke-linejoin:miter;stroke:rgb(0%,0%,0%);stroke-opacity:1;stroke-miterlimit:10;" d="M 5.963059 8.458682 L 5.605235 7.748115 " transform="matrix(17.357513,0,0,17.33871,17.046913,17.013154)"/>
<path style="fill:none;stroke-width:0.0333333;stroke-linecap:butt;stroke-linejoin:miter;stroke:rgb(0%,0%,0%);stroke-opacity:1;stroke-miterlimit:10;" d="M 9.014466 8.637788 L 9.015366 8.618413 M 9.084906 8.651305 L 9.086931 8.61233 M 9.155345 8.664597 L 9.158271 8.606472 M 9.225785 8.67789 L 9.229836 8.60039 M 9.296225 8.691407 L 9.301401 8.594307 M 9.366889 8.704699 L 9.372965 8.588224 M 9.437329 8.718217 L 9.444305 8.582141 M 9.507768 8.731509 L 9.51587 8.576058 M 9.578433 8.744801 L 9.58721 8.570201 M 9.648873 8.758318 L 9.658775 8.564118 M 9.719312 8.771611 L 9.730339 8.558035 M 9.789752 8.785128 L 9.801904 8.551952 " transform="matrix(17.357513,0,0,17.33871,17.046913,17.013154)"/>
<path style="fill:none;stroke-width:0.0333333;stroke-linecap:butt;stroke-linejoin:miter;stroke:rgb(0%,0%,0%);stroke-opacity:1;stroke-miterlimit:10;" d="M 3.190934 4.813704 L 4.049037 4.887824 " transform="matrix(17.357513,0,0,17.33871,17.046913,17.013154)"/>
<path style="fill:none;stroke-width:0.0333333;stroke-linecap:butt;stroke-linejoin:miter;stroke:rgb(0%,0%,0%);stroke-opacity:1;stroke-miterlimit:10;" d="M 3.204212 4.822715 L 2.736565 3.917047 " transform="matrix(17.357513,0,0,17.33871,17.046913,17.013154)"/>
<path style=" stroke:none;fill-rule:nonzero;fill:rgb(0%,0%,0%);fill-opacity:1;" d="M 164.628906 150.941406 L 173.828125 140.769531 L 170.453125 138.527344 "/>
<path style="fill:none;stroke-width:0.0333333;stroke-linecap:butt;stroke-linejoin:miter;stroke:rgb(0%,0%,0%);stroke-opacity:1;stroke-miterlimit:10;" d="M 4.326745 4.721334 L 4.744206 4.075201 " transform="matrix(17.357513,0,0,17.33871,17.046913,17.013154)"/>
<path style="fill:none;stroke-width:0.0333333;stroke-linecap:butt;stroke-linejoin:miter;stroke:rgb(0%,0%,0%);stroke-opacity:1;stroke-miterlimit:10;" d="M 2.73544 3.934169 L 3.315835 3.105549 " transform="matrix(17.357513,0,0,17.33871,17.046913,17.013154)"/>
<path style="fill:none;stroke-width:0.0333333;stroke-linecap:butt;stroke-linejoin:miter;stroke:rgb(0%,0%,0%);stroke-opacity:1;stroke-miterlimit:10;" d="M 2.674452 3.911414 L 2.673102 3.930789 M 2.607838 3.896996 L 2.605138 3.935746 M 2.540999 3.882352 L 2.536949 3.940477 M 2.474386 3.867933 L 2.468759 3.945433 M 2.407772 3.853289 L 2.400795 3.95039 M 2.340933 3.838871 L 2.332606 3.955121 M 2.274319 3.824227 L 2.264642 3.960077 M 2.20748 3.809808 L 2.196453 3.964808 M 2.140867 3.795164 L 2.128264 3.969765 M 2.074253 3.780746 L 2.0603 3.974496 M 2.007639 3.766102 L 1.992336 3.979452 M 1.9408 3.751683 L 1.924147 3.984409 " transform="matrix(17.357513,0,0,17.33871,17.046913,17.013154)"/>
<path style="fill:none;stroke-width:0.0333333;stroke-linecap:butt;stroke-linejoin:miter;stroke:rgb(0%,0%,0%);stroke-opacity:1;stroke-miterlimit:10;" d="M 8.957754 6.707948 L 8.584852 5.990397 " transform="matrix(17.357513,0,0,17.33871,17.046913,17.013154)"/>
<path style="fill:none;stroke-width:0.0333333;stroke-linecap:butt;stroke-linejoin:miter;stroke:rgb(0%,0%,0%);stroke-opacity:1;stroke-miterlimit:10;" d="M 4.742856 4.091196 L 4.310766 3.156015 " transform="matrix(17.357513,0,0,17.33871,17.046913,17.013154)"/>
<path style=" stroke:none;fill-rule:nonzero;fill:rgb(0%,0%,0%);fill-opacity:1;" d="M 99.308594 87.804688 L 118 90.71875 L 116.917969 88.515625 L 117 86.496094 "/>
<path style=" stroke:none;fill-rule:nonzero;fill:rgb(0%,0%,0%);fill-opacity:1;" d="M 74.511719 70.988281 L 69.984375 57.59375 L 66.375 59.421875 "/>
<path style="fill:none;stroke-width:0.0333333;stroke-linecap:butt;stroke-linejoin:miter;stroke:rgb(0%,0%,0%);stroke-opacity:1;stroke-miterlimit:10;" d="M 8.583727 6.007744 L 9.164572 5.189939 " transform="matrix(17.357513,0,0,17.33871,17.046913,17.013154)"/>
<path style="fill:none;stroke-width:0.0333333;stroke-linecap:butt;stroke-linejoin:miter;stroke:rgb(0%,0%,0%);stroke-opacity:1;stroke-miterlimit:10;" d="M 4.361852 3.111407 L 4.343848 3.099917 M 4.408436 3.057563 L 4.372654 3.034808 M 4.455021 3.003718 L 4.401235 2.969474 M 4.501606 2.949648 L 4.429816 2.90414 M 4.54819 2.895804 L 4.458622 2.839031 M 4.594775 2.841959 L 4.487203 2.773696 M 4.641585 2.78789 L 4.515784 2.708587 M 4.687944 2.734045 L 4.54459 2.643253 M 4.734529 2.680201 L 4.573171 2.578144 M 4.781339 2.626356 L 4.601977 2.51281 M 4.827923 2.572286 L 4.630783 2.447701 " transform="matrix(17.357513,0,0,17.33871,17.046913,17.013154)"/>
<path style="fill:none;stroke-width:0.0333333;stroke-linecap:butt;stroke-linejoin:miter;stroke:rgb(0%,0%,0%);stroke-opacity:1;stroke-miterlimit:10;" d="M 5.739362 4.114627 L 6.093586 4.837134 " transform="matrix(17.357513,0,0,17.33871,17.046913,17.013154)"/>
<path style="fill:none;stroke-width:0.0333333;stroke-linecap:butt;stroke-linejoin:miter;stroke:rgb(0%,0%,0%);stroke-opacity:1;stroke-miterlimit:10;" d="M 9.163222 5.206836 L 8.805623 4.47757 " transform="matrix(17.357513,0,0,17.33871,17.046913,17.013154)"/>
<path style="fill:none;stroke-width:0.0333333;stroke-linecap:butt;stroke-linejoin:miter;stroke:rgb(0%,0%,0%);stroke-opacity:1;stroke-miterlimit:10;" d="M 8.835104 4.128369 L 9.292174 3.470746 " transform="matrix(17.357513,0,0,17.33871,17.046913,17.013154)"/>
<path style="fill:none;stroke-width:0.0333333;stroke-linecap:butt;stroke-linejoin:miter;stroke:rgb(0%,0%,0%);stroke-opacity:1;stroke-miterlimit:10;" d="M 9.290823 3.487643 L 8.835104 2.575891 " transform="matrix(17.357513,0,0,17.33871,17.046913,17.013154)"/>
<path style="fill:none;stroke-width:0.0333333;stroke-linecap:butt;stroke-linejoin:miter;stroke:rgb(0%,0%,0%);stroke-opacity:1;stroke-miterlimit:10;" d="M 8.833979 2.592563 L 9.39637 1.746145 " transform="matrix(17.357513,0,0,17.33871,17.046913,17.013154)"/>
<path style="fill:none;stroke-width:0.0333333;stroke-linecap:butt;stroke-linejoin:miter;stroke:rgb(0%,0%,0%);stroke-opacity:1;stroke-miterlimit:10;" d="M 9.39502 1.762366 L 9.048448 1.017781 " transform="matrix(17.357513,0,0,17.33871,17.046913,17.013154)"/>
<path style="fill:none;stroke-width:0.0333333;stroke-linecap:butt;stroke-linejoin:miter;stroke:rgb(0%,0%,0%);stroke-opacity:1;stroke-miterlimit:10;" d="M 9.337633 1.834459 L 10.231068 1.881095 " transform="matrix(17.357513,0,0,17.33871,17.046913,17.013154)"/>
<path style="fill:none;stroke-width:0.0333333;stroke-linecap:butt;stroke-linejoin:miter;stroke:rgb(0%,0%,0%);stroke-opacity:1;stroke-miterlimit:10;" d="M 9.351361 1.66842 L 10.239845 1.714605 " transform="matrix(17.357513,0,0,17.33871,17.046913,17.013154)"/>
<path style="fill:none;stroke-width:0.0333333;stroke-linecap:butt;stroke-linejoin:miter;stroke:rgb(0%,0%,0%);stroke-opacity:1;stroke-miterlimit:10;" d="M 9.077254 0.650106 L 9.381967 0.176545 " transform="matrix(17.357513,0,0,17.33871,17.046913,17.013154)"/>
<path style="fill:none;stroke-width:0.0333333;stroke-linecap:butt;stroke-linejoin:miter;stroke:rgb(0%,0%,0%);stroke-opacity:1;stroke-miterlimit:10;" d="M 5.297371 11.025419 L 5.853686 10.178551 " transform="matrix(17.357513,0,0,17.33871,17.046913,17.013154)"/>
<path style="fill:none;stroke-width:0.0333333;stroke-linecap:butt;stroke-linejoin:miter;stroke:rgb(0%,0%,0%);stroke-opacity:1;stroke-miterlimit:10;" d="M 0.987728 8.155891 L 1.561822 7.327722 " transform="matrix(17.357513,0,0,17.33871,17.046913,17.013154)"/>
<path style="fill:none;stroke-width:0.0333333;stroke-linecap:butt;stroke-linejoin:miter;stroke:rgb(0%,0%,0%);stroke-opacity:1;stroke-miterlimit:10;" d="M 8.948077 8.632831 L 8.498209 7.715448 " transform="matrix(17.357513,0,0,17.33871,17.046913,17.013154)"/>
<path style="fill:none;stroke-width:0.0333333;stroke-linecap:butt;stroke-linejoin:miter;stroke:rgb(0%,0%,0%);stroke-opacity:1;stroke-miterlimit:10;" d="M 3.301432 3.112534 L 4.325169 3.165702 " transform="matrix(17.357513,0,0,17.33871,17.046913,17.013154)"/>
</g>
</svg>
