<?xml version="1.0" encoding="UTF-8"?>
<svg xmlns="http://www.w3.org/2000/svg" xmlns:xlink="http://www.w3.org/1999/xlink" width="144pt" height="71.2pt" viewBox="0 0 144 71.2" version="1.1">
<g id="surface1387">
<path style=" stroke:none;fill-rule:nonzero;fill:rgb(0%,0%,47.058824%);fill-opacity:1;" d="M 62.191406 53.476562 L 60.519531 50.53125 C 60.535156 50.613281 60.542969 50.691406 60.554688 50.769531 C 60.558594 50.835938 60.5625 50.910156 60.5625 50.988281 C 60.570312 51.070312 60.574219 51.144531 60.574219 51.21875 L 60.574219 53.476562 L 59.859375 53.476562 L 59.859375 49.652344 L 60.78125 49.652344 L 62.464844 52.617188 C 62.457031 52.546875 62.449219 52.464844 62.441406 52.378906 C 62.433594 52.308594 62.425781 52.226562 62.421875 52.140625 C 62.421875 52.054688 62.421875 51.964844 62.421875 51.867188 L 62.421875 49.652344 L 63.125 49.652344 L 63.125 53.476562 Z M 62.191406 53.476562 "/>
<path style=" stroke:none;fill-rule:nonzero;fill:rgb(0%,0%,0%);fill-opacity:1;" d="M 127.738281 29.507812 L 125.6875 26.25 C 125.691406 26.335938 125.695312 26.421875 125.695312 26.507812 C 125.703125 26.582031 125.707031 26.660156 125.707031 26.746094 C 125.710938 26.828125 125.71875 26.898438 125.71875 26.964844 L 125.71875 29.507812 L 125.25 29.507812 L 125.25 25.683594 L 125.859375 25.683594 L 127.921875 28.964844 C 127.921875 28.964844 127.917969 28.875 127.910156 28.691406 C 127.902344 28.621094 127.894531 28.539062 127.890625 28.453125 C 127.890625 28.359375 127.890625 28.273438 127.890625 28.191406 L 127.890625 25.683594 L 128.355469 25.683594 L 128.355469 29.507812 Z M 127.738281 29.507812 "/>
<path style="fill:none;stroke-width:0.0333333;stroke-linecap:butt;stroke-linejoin:miter;stroke:rgb(0%,0%,0%);stroke-opacity:1;stroke-miterlimit:10;" d="M 4.616438 1.577171 L 3.769967 2.053126 " transform="matrix(17.374517,0,0,17.382812,17.057234,17.373388)"/>
<path style="fill:none;stroke-width:0.0333333;stroke-linecap:butt;stroke-linejoin:miter;stroke:rgb(0%,0%,0%);stroke-opacity:1;stroke-miterlimit:10;" d="M 4.599801 1.576947 L 5.473252 2.085935 " transform="matrix(17.374517,0,0,17.382812,17.057234,17.373388)"/>
<path style="fill:none;stroke-width:0.0333333;stroke-linecap:butt;stroke-linejoin:miter;stroke:rgb(0%,0%,0%);stroke-opacity:1;stroke-miterlimit:10;" d="M 4.60812 1.58189 L 4.60812 0.596272 " transform="matrix(17.374517,0,0,17.382812,17.057234,17.373388)"/>
<path style="fill:none;stroke-width:0.0333333;stroke-linecap:butt;stroke-linejoin:miter;stroke:rgb(0%,0%,0%);stroke-opacity:1;stroke-miterlimit:10;" d="M 4.774716 1.485935 L 4.774716 0.692003 " transform="matrix(17.374517,0,0,17.382812,17.057234,17.373388)"/>
<path style="fill:none;stroke-width:0.0333333;stroke-linecap:butt;stroke-linejoin:miter;stroke:rgb(0%,0%,0%);stroke-opacity:1;stroke-miterlimit:10;" d="M 3.779185 2.051104 L 2.701592 1.976947 " transform="matrix(17.374517,0,0,17.382812,17.057234,17.373388)"/>
<path style="fill:none;stroke-width:0.0333333;stroke-linecap:butt;stroke-linejoin:miter;stroke:rgb(0%,0%,0%);stroke-opacity:1;stroke-miterlimit:10;" d="M 5.45639 2.085935 L 6.324894 1.576947 " transform="matrix(17.374517,0,0,17.382812,17.057234,17.373388)"/>
<path style="fill:none;stroke-width:0.0333333;stroke-linecap:butt;stroke-linejoin:miter;stroke:rgb(0%,0%,0%);stroke-opacity:1;stroke-miterlimit:10;" d="M 5.456165 1.892902 L 6.158073 1.481441 " transform="matrix(17.374517,0,0,17.382812,17.057234,17.373388)"/>
<path style="fill:none;stroke-width:0.0333333;stroke-linecap:butt;stroke-linejoin:miter;stroke:rgb(0%,0%,0%);stroke-opacity:1;stroke-miterlimit:10;" d="M 4.599801 0.610655 L 5.473027 0.0991938 " transform="matrix(17.374517,0,0,17.382812,17.057234,17.373388)"/>
<path style="fill:none;stroke-width:0.06;stroke-linecap:butt;stroke-linejoin:miter;stroke:rgb(0%,0%,47.058824%);stroke-opacity:1;stroke-miterlimit:10;" d="M 2.388184 1.868407 L 1.705836 1.470205 " transform="matrix(17.374517,0,0,17.382812,17.057234,17.373388)"/>
<path style="fill:none;stroke-width:0.0333333;stroke-linecap:butt;stroke-linejoin:miter;stroke:rgb(0%,0%,0%);stroke-opacity:1;stroke-miterlimit:10;" d="M 6.316576 1.591329 L 6.316576 0.741441 " transform="matrix(17.374517,0,0,17.382812,17.057234,17.373388)"/>
<path style="fill:none;stroke-width:0.06;stroke-linecap:butt;stroke-linejoin:miter;stroke:rgb(0%,0%,47.058824%);stroke-opacity:1;stroke-miterlimit:10;" d="M 1.705836 1.470205 L 1.705836 0.482115 " transform="matrix(17.374517,0,0,17.382812,17.057234,17.373388)"/>
<path style="fill:none;stroke-width:0.06;stroke-linecap:butt;stroke-linejoin:miter;stroke:rgb(0%,0%,47.058824%);stroke-opacity:1;stroke-miterlimit:10;" d="M 1.705836 1.470205 L 0.836432 1.991329 " transform="matrix(17.374517,0,0,17.382812,17.057234,17.373388)"/>
<path style="fill:none;stroke-width:0.06;stroke-linecap:butt;stroke-linejoin:miter;stroke:rgb(0%,0%,47.058824%);stroke-opacity:1;stroke-miterlimit:10;" d="M 1.720675 0.507958 L 0.836432 -0.00889604 " transform="matrix(17.374517,0,0,17.382812,17.057234,17.373388)"/>
<path style="fill:none;stroke-width:0.06;stroke-linecap:butt;stroke-linejoin:miter;stroke:rgb(0%,0%,47.058824%);stroke-opacity:1;stroke-miterlimit:10;" d="M 0.867009 1.991104 L -0.0149851 1.479194 " transform="matrix(17.374517,0,0,17.382812,17.057234,17.373388)"/>
<path style="fill:none;stroke-width:0.06;stroke-linecap:butt;stroke-linejoin:miter;stroke:rgb(0%,0%,47.058824%);stroke-opacity:1;stroke-miterlimit:10;" d="M 0.866784 -0.00889604 L -0.0147603 0.507958 " transform="matrix(17.374517,0,0,17.382812,17.057234,17.373388)"/>
<path style="fill:none;stroke-width:0.0333333;stroke-linecap:butt;stroke-linejoin:miter;stroke:rgb(0%,0%,0%);stroke-opacity:1;stroke-miterlimit:10;" d="M 5.456615 0.0991938 L 6.150204 0.493576 " transform="matrix(17.374517,0,0,17.382812,17.057234,17.373388)"/>
<path style="fill:none;stroke-width:0.0333333;stroke-linecap:butt;stroke-linejoin:miter;stroke:rgb(0%,0%,0%);stroke-opacity:1;stroke-miterlimit:10;" d="M 5.457739 0.291553 L 6.067918 0.63852 " transform="matrix(17.374517,0,0,17.382812,17.057234,17.373388)"/>
<path style="fill:none;stroke-width:0.06;stroke-linecap:butt;stroke-linejoin:miter;stroke:rgb(0%,0%,47.058824%);stroke-opacity:1;stroke-miterlimit:10;" d="M 0.0000782403 1.505261 L 0.0000782403 0.482115 " transform="matrix(17.374517,0,0,17.382812,17.057234,17.373388)"/>
</g>
</svg>
