<?xml version="1.0" encoding="UTF-8"?>
<svg xmlns="http://www.w3.org/2000/svg" xmlns:xlink="http://www.w3.org/1999/xlink" width="199.2pt" height="114.4pt" viewBox="0 0 199.2 114.4" version="1.1">
<g id="surface2">
<path style=" stroke:none;fill-rule:nonzero;fill:rgb(0%,0%,0%);fill-opacity:1;" d="M 169.199219 9.605469 C 168.980469 9.605469 168.789062 9.644531 168.621094 9.714844 C 168.453125 9.789062 168.3125 9.894531 168.199219 10.03125 C 168.089844 10.160156 168.007812 10.320312 167.949219 10.507812 C 167.890625 10.699219 167.863281 10.90625 167.863281 11.136719 C 167.863281 11.371094 167.890625 11.582031 167.949219 11.777344 C 168.015625 11.964844 168.105469 12.128906 168.21875 12.265625 C 168.335938 12.402344 168.476562 12.511719 168.644531 12.589844 C 168.816406 12.664062 169.007812 12.699219 169.21875 12.699219 C 169.371094 12.699219 169.503906 12.683594 169.621094 12.644531 C 169.746094 12.601562 169.855469 12.542969 169.960938 12.472656 C 170.058594 12.398438 170.148438 12.316406 170.21875 12.222656 C 170.300781 12.128906 170.367188 12.019531 170.425781 11.894531 L 170.851562 12.113281 C 170.785156 12.257812 170.703125 12.390625 170.601562 12.515625 C 170.496094 12.640625 170.378906 12.746094 170.242188 12.839844 C 170.101562 12.925781 169.949219 12.996094 169.773438 13.046875 C 169.601562 13.09375 169.40625 13.121094 169.199219 13.121094 C 168.886719 13.121094 168.613281 13.074219 168.382812 12.980469 C 168.148438 12.878906 167.953125 12.742188 167.796875 12.570312 C 167.644531 12.390625 167.527344 12.179688 167.449219 11.9375 C 167.367188 11.695312 167.328125 11.425781 167.328125 11.136719 C 167.328125 10.839844 167.367188 10.574219 167.449219 10.335938 C 167.535156 10.089844 167.660156 9.882812 167.820312 9.714844 C 167.976562 9.550781 168.171875 9.421875 168.40625 9.324219 C 168.636719 9.234375 168.898438 9.183594 169.199219 9.183594 C 169.605469 9.183594 169.941406 9.265625 170.210938 9.421875 C 170.484375 9.582031 170.6875 9.820312 170.816406 10.140625 L 170.328125 10.300781 C 170.289062 10.210938 170.242188 10.121094 170.175781 10.042969 C 170.117188 9.953125 170.039062 9.882812 169.949219 9.824219 C 169.851562 9.757812 169.746094 9.710938 169.621094 9.671875 C 169.496094 9.628906 169.355469 9.605469 169.199219 9.605469 Z M 169.199219 9.605469 "/>
<path style=" stroke:none;fill-rule:nonzero;fill:rgb(0%,0%,0%);fill-opacity:1;" d="M 172.089844 10.636719 C 172.144531 10.539062 172.203125 10.453125 172.261719 10.386719 C 172.328125 10.316406 172.394531 10.257812 172.46875 10.214844 C 172.546875 10.164062 172.632812 10.128906 172.71875 10.105469 C 172.8125 10.085938 172.917969 10.074219 173.035156 10.074219 C 173.222656 10.074219 173.375 10.101562 173.492188 10.148438 C 173.613281 10.199219 173.707031 10.273438 173.773438 10.367188 C 173.84375 10.460938 173.894531 10.574219 173.925781 10.703125 C 173.953125 10.828125 173.96875 10.964844 173.96875 11.113281 L 173.96875 13.066406 L 173.46875 13.066406 L 173.46875 11.203125 C 173.46875 11.078125 173.460938 10.972656 173.445312 10.875 C 173.429688 10.785156 173.402344 10.707031 173.359375 10.648438 C 173.316406 10.582031 173.253906 10.539062 173.175781 10.507812 C 173.09375 10.472656 172.992188 10.453125 172.871094 10.453125 C 172.753906 10.453125 172.648438 10.476562 172.554688 10.519531 C 172.460938 10.5625 172.382812 10.625 172.316406 10.703125 C 172.25 10.777344 172.199219 10.867188 172.164062 10.972656 C 172.125 11.082031 172.109375 11.203125 172.109375 11.332031 L 172.109375 13.066406 L 171.621094 13.066406 L 171.621094 9.042969 L 172.109375 9.042969 L 172.109375 10.085938 C 172.109375 10.148438 172.105469 10.210938 172.097656 10.269531 C 172.097656 10.328125 172.09375 10.382812 172.089844 10.429688 C 172.089844 10.484375 172.089844 10.527344 172.089844 10.5625 C 172.089844 10.601562 172.089844 10.625 172.089844 10.636719 Z M 172.089844 10.636719 "/>
<path style=" stroke:none;fill-rule:nonzero;fill:rgb(0%,0%,0%);fill-opacity:1;" d="M 174.820312 9.507812 L 174.820312 9.042969 L 175.308594 9.042969 L 175.308594 9.507812 Z M 174.820312 13.066406 L 174.820312 10.128906 L 175.308594 10.128906 L 175.308594 13.066406 Z M 174.820312 13.066406 "/>
<path style=" stroke:none;fill-rule:nonzero;fill:rgb(0%,0%,0%);fill-opacity:1;" d="M 176.128906 13.066406 L 176.128906 10.8125 C 176.128906 10.753906 176.125 10.691406 176.117188 10.625 C 176.117188 10.5625 176.117188 10.503906 176.117188 10.441406 C 176.117188 10.386719 176.113281 10.332031 176.109375 10.28125 C 176.109375 10.222656 176.109375 10.171875 176.109375 10.128906 L 176.574219 10.128906 C 176.574219 10.171875 176.574219 10.222656 176.574219 10.28125 C 176.582031 10.332031 176.585938 10.386719 176.585938 10.441406 C 176.585938 10.492188 176.585938 10.546875 176.585938 10.605469 C 176.589844 10.65625 176.597656 10.699219 176.597656 10.734375 L 176.609375 10.734375 C 176.636719 10.621094 176.667969 10.523438 176.707031 10.441406 C 176.75 10.355469 176.796875 10.289062 176.847656 10.238281 C 176.902344 10.1875 176.96875 10.148438 177.042969 10.117188 C 177.113281 10.089844 177.199219 10.074219 177.304688 10.074219 C 177.339844 10.074219 177.375 10.078125 177.410156 10.085938 C 177.449219 10.09375 177.476562 10.101562 177.5 10.105469 L 177.5 10.550781 C 177.46875 10.546875 177.433594 10.539062 177.390625 10.539062 C 177.347656 10.535156 177.296875 10.527344 177.238281 10.527344 C 177.128906 10.527344 177.035156 10.554688 176.957031 10.605469 C 176.875 10.65625 176.808594 10.722656 176.761719 10.8125 C 176.707031 10.898438 176.671875 11.007812 176.652344 11.136719 C 176.628906 11.261719 176.617188 11.394531 176.617188 11.539062 L 176.617188 13.066406 Z M 176.128906 13.066406 "/>
<path style=" stroke:none;fill-rule:nonzero;fill:rgb(0%,0%,0%);fill-opacity:1;" d="M 178.796875 13.121094 C 178.5 13.121094 178.277344 13.046875 178.125 12.894531 C 177.976562 12.738281 177.90625 12.519531 177.90625 12.242188 C 177.90625 12.054688 177.941406 11.902344 178.015625 11.777344 C 178.085938 11.644531 178.179688 11.546875 178.296875 11.484375 C 178.421875 11.414062 178.558594 11.363281 178.710938 11.332031 C 178.863281 11.304688 179.019531 11.289062 179.179688 11.289062 L 179.828125 11.277344 L 179.828125 11.113281 C 179.828125 10.992188 179.8125 10.890625 179.785156 10.8125 C 179.765625 10.722656 179.726562 10.65625 179.679688 10.605469 C 179.625 10.546875 179.5625 10.507812 179.480469 10.484375 C 179.402344 10.464844 179.308594 10.453125 179.199219 10.453125 C 179.105469 10.453125 179.019531 10.460938 178.9375 10.476562 C 178.867188 10.484375 178.800781 10.503906 178.742188 10.539062 C 178.691406 10.578125 178.648438 10.625 178.613281 10.691406 C 178.574219 10.75 178.554688 10.828125 178.546875 10.917969 L 178.035156 10.867188 C 178.050781 10.75 178.082031 10.644531 178.132812 10.550781 C 178.183594 10.457031 178.257812 10.375 178.351562 10.300781 C 178.445312 10.230469 178.5625 10.175781 178.699219 10.140625 C 178.84375 10.09375 179.015625 10.074219 179.210938 10.074219 C 179.582031 10.074219 179.855469 10.160156 180.046875 10.335938 C 180.234375 10.503906 180.328125 10.742188 180.328125 11.0625 L 180.328125 12.328125 C 180.328125 12.476562 180.347656 12.585938 180.382812 12.65625 C 180.417969 12.726562 180.492188 12.761719 180.601562 12.761719 C 180.628906 12.761719 180.65625 12.761719 180.679688 12.761719 C 180.703125 12.757812 180.734375 12.75 180.765625 12.742188 L 180.765625 13.046875 C 180.699219 13.066406 180.636719 13.082031 180.578125 13.089844 C 180.519531 13.09375 180.453125 13.101562 180.382812 13.101562 C 180.289062 13.101562 180.210938 13.089844 180.144531 13.066406 C 180.078125 13.039062 180.027344 13 179.980469 12.949219 C 179.945312 12.898438 179.917969 12.835938 179.894531 12.761719 C 179.875 12.691406 179.855469 12.605469 179.851562 12.503906 L 179.828125 12.503906 C 179.777344 12.597656 179.722656 12.683594 179.65625 12.761719 C 179.597656 12.835938 179.527344 12.902344 179.4375 12.957031 C 179.355469 13.011719 179.265625 13.050781 179.15625 13.078125 C 179.054688 13.105469 178.933594 13.121094 178.796875 13.121094 Z M 178.90625 12.753906 C 179.058594 12.753906 179.191406 12.726562 179.308594 12.664062 C 179.429688 12.609375 179.527344 12.535156 179.601562 12.449219 C 179.679688 12.363281 179.738281 12.269531 179.777344 12.167969 C 179.8125 12.058594 179.828125 11.957031 179.828125 11.863281 L 179.828125 11.613281 L 179.296875 11.625 C 179.179688 11.632812 179.070312 11.644531 178.960938 11.65625 C 178.851562 11.671875 178.753906 11.699219 178.667969 11.742188 C 178.585938 11.789062 178.519531 11.851562 178.472656 11.9375 C 178.429688 12.019531 178.40625 12.125 178.40625 12.253906 C 178.40625 12.414062 178.449219 12.535156 178.535156 12.621094 C 178.625 12.710938 178.746094 12.753906 178.90625 12.753906 Z M 178.90625 12.753906 "/>
<path style=" stroke:none;fill-rule:nonzero;fill:rgb(0%,0%,0%);fill-opacity:1;" d="M 181.269531 13.066406 L 181.269531 9.042969 L 181.757812 9.042969 L 181.757812 13.066406 Z M 181.269531 13.066406 "/>
<path style=" stroke:none;fill-rule:nonzero;fill:rgb(0%,0%,0%);fill-opacity:1;" d="M 153.449219 68.5 C 153.449219 68.800781 153.40625 69.070312 153.316406 69.3125 C 153.230469 69.5625 153.105469 69.769531 152.9375 69.945312 C 152.777344 70.117188 152.578125 70.253906 152.339844 70.34375 C 152.105469 70.4375 151.84375 70.484375 151.546875 70.484375 C 151.226562 70.484375 150.949219 70.4375 150.710938 70.34375 C 150.476562 70.246094 150.28125 70.105469 150.125 69.933594 C 149.964844 69.753906 149.84375 69.542969 149.765625 69.304688 C 149.683594 69.058594 149.644531 68.792969 149.644531 68.5 C 149.644531 68.207031 149.683594 67.9375 149.765625 67.699219 C 149.851562 67.453125 149.972656 67.25 150.132812 67.078125 C 150.300781 66.914062 150.5 66.785156 150.730469 66.691406 C 150.972656 66.597656 151.242188 66.546875 151.546875 66.546875 C 151.851562 66.546875 152.121094 66.597656 152.363281 66.691406 C 152.601562 66.785156 152.800781 66.917969 152.960938 67.089844 C 153.117188 67.257812 153.238281 67.460938 153.316406 67.699219 C 153.40625 67.9375 153.449219 68.207031 153.449219 68.5 Z M 152.917969 68.5 C 152.917969 68.269531 152.886719 68.0625 152.828125 67.871094 C 152.769531 67.683594 152.683594 67.523438 152.570312 67.394531 C 152.453125 67.257812 152.308594 67.152344 152.132812 67.078125 C 151.964844 67.007812 151.769531 66.972656 151.546875 66.972656 C 151.320312 66.972656 151.125 67.007812 150.949219 67.078125 C 150.773438 67.152344 150.628906 67.257812 150.515625 67.394531 C 150.40625 67.523438 150.320312 67.683594 150.265625 67.871094 C 150.203125 68.0625 150.175781 68.269531 150.175781 68.5 C 150.175781 68.734375 150.203125 68.945312 150.265625 69.140625 C 150.320312 69.332031 150.410156 69.492188 150.523438 69.628906 C 150.640625 69.765625 150.78125 69.875 150.949219 69.953125 C 151.125 70.027344 151.320312 70.0625 151.546875 70.0625 C 151.785156 70.0625 151.992188 70.027344 152.167969 69.953125 C 152.339844 69.875 152.480469 69.765625 152.589844 69.628906 C 152.699219 69.484375 152.777344 69.320312 152.828125 69.128906 C 152.886719 68.933594 152.917969 68.726562 152.917969 68.5 Z M 152.917969 68.5 "/>
<path style=" stroke:none;fill-rule:nonzero;fill:rgb(0%,0%,0%);fill-opacity:1;" d="M 151.65625 15.652344 C 151.4375 15.652344 151.246094 15.6875 151.078125 15.761719 C 150.910156 15.832031 150.769531 15.9375 150.65625 16.074219 C 150.546875 16.203125 150.460938 16.363281 150.40625 16.550781 C 150.347656 16.742188 150.320312 16.949219 150.320312 17.179688 C 150.320312 17.414062 150.347656 17.625 150.40625 17.820312 C 150.472656 18.011719 150.5625 18.171875 150.675781 18.308594 C 150.792969 18.445312 150.933594 18.554688 151.101562 18.632812 C 151.273438 18.707031 151.464844 18.742188 151.675781 18.742188 C 151.828125 18.742188 151.960938 18.726562 152.078125 18.6875 C 152.203125 18.644531 152.3125 18.589844 152.417969 18.515625 C 152.515625 18.445312 152.605469 18.359375 152.675781 18.265625 C 152.757812 18.171875 152.824219 18.066406 152.882812 17.941406 L 153.308594 18.15625 C 153.242188 18.304688 153.15625 18.4375 153.058594 18.558594 C 152.953125 18.683594 152.835938 18.792969 152.699219 18.882812 C 152.558594 18.96875 152.40625 19.039062 152.230469 19.089844 C 152.058594 19.136719 151.863281 19.164062 151.65625 19.164062 C 151.34375 19.164062 151.070312 19.117188 150.839844 19.023438 C 150.605469 18.925781 150.410156 18.785156 150.253906 18.613281 C 150.101562 18.433594 149.984375 18.222656 149.90625 17.984375 C 149.824219 17.738281 149.785156 17.472656 149.785156 17.179688 C 149.785156 16.886719 149.824219 16.617188 149.90625 16.378906 C 149.992188 16.132812 150.113281 15.929688 150.273438 15.761719 C 150.433594 15.59375 150.628906 15.464844 150.863281 15.371094 C 151.09375 15.277344 151.355469 15.226562 151.65625 15.226562 C 152.058594 15.226562 152.398438 15.308594 152.667969 15.46875 C 152.941406 15.628906 153.144531 15.867188 153.273438 16.183594 L 152.785156 16.34375 C 152.746094 16.253906 152.699219 16.167969 152.632812 16.085938 C 152.574219 16 152.496094 15.929688 152.40625 15.867188 C 152.308594 15.804688 152.203125 15.753906 152.078125 15.714844 C 151.953125 15.671875 151.8125 15.652344 151.65625 15.652344 Z M 151.65625 15.652344 "/>
<path style=" stroke:none;fill-rule:nonzero;fill:rgb(0%,0%,47.058824%);fill-opacity:1;" d="M 87.789062 67.703125 C 87.789062 68.003906 87.738281 68.273438 87.648438 68.515625 C 87.5625 68.765625 87.433594 68.972656 87.265625 69.144531 C 87.097656 69.320312 86.898438 69.457031 86.660156 69.546875 C 86.417969 69.640625 86.148438 69.6875 85.84375 69.6875 C 85.523438 69.6875 85.246094 69.640625 85.007812 69.546875 C 84.769531 69.449219 84.5625 69.308594 84.398438 69.136719 C 84.238281 68.957031 84.117188 68.746094 84.039062 68.507812 C 83.957031 68.261719 83.921875 67.992188 83.921875 67.703125 C 83.921875 67.40625 83.957031 67.140625 84.039062 66.902344 C 84.125 66.65625 84.25 66.449219 84.421875 66.28125 C 84.585938 66.117188 84.789062 65.988281 85.027344 65.890625 C 85.269531 65.800781 85.542969 65.75 85.855469 65.75 C 86.164062 65.75 86.441406 65.800781 86.679688 65.890625 C 86.917969 65.988281 87.117188 66.121094 87.277344 66.292969 C 87.445312 66.460938 87.570312 66.664062 87.660156 66.902344 C 87.746094 67.140625 87.789062 67.40625 87.789062 67.703125 Z M 86.972656 67.703125 C 86.972656 67.503906 86.945312 67.320312 86.898438 67.160156 C 86.847656 67.003906 86.773438 66.867188 86.679688 66.75 C 86.585938 66.636719 86.46875 66.542969 86.332031 66.476562 C 86.195312 66.414062 86.035156 66.378906 85.855469 66.378906 C 85.664062 66.378906 85.5 66.414062 85.355469 66.476562 C 85.214844 66.542969 85.097656 66.636719 85.007812 66.75 C 84.910156 66.867188 84.839844 67.003906 84.789062 67.160156 C 84.746094 67.320312 84.722656 67.503906 84.722656 67.703125 C 84.722656 67.90625 84.75 68.089844 84.800781 68.257812 C 84.847656 68.417969 84.921875 68.558594 85.019531 68.679688 C 85.109375 68.796875 85.226562 68.890625 85.367188 68.960938 C 85.5 69.027344 85.660156 69.058594 85.84375 69.058594 C 86.039062 69.058594 86.203125 69.027344 86.34375 68.960938 C 86.488281 68.890625 86.605469 68.796875 86.703125 68.679688 C 86.792969 68.558594 86.867188 68.414062 86.910156 68.246094 C 86.953125 68.082031 86.972656 67.898438 86.972656 67.703125 Z M 86.972656 67.703125 "/>
<path style=" stroke:none;fill-rule:nonzero;fill:rgb(0%,0%,0%);fill-opacity:1;" d="M 183.660156 68.5 C 183.660156 68.800781 183.617188 69.070312 183.53125 69.3125 C 183.445312 69.5625 183.316406 69.769531 183.148438 69.945312 C 182.988281 70.117188 182.792969 70.253906 182.550781 70.34375 C 182.320312 70.4375 182.054688 70.484375 181.757812 70.484375 C 181.4375 70.484375 181.160156 70.4375 180.921875 70.34375 C 180.6875 70.246094 180.492188 70.105469 180.335938 69.933594 C 180.175781 69.753906 180.054688 69.542969 179.976562 69.304688 C 179.894531 69.058594 179.855469 68.792969 179.855469 68.5 C 179.855469 68.207031 179.894531 67.9375 179.976562 67.699219 C 180.0625 67.453125 180.1875 67.25 180.347656 67.078125 C 180.511719 66.914062 180.710938 66.785156 180.945312 66.691406 C 181.183594 66.597656 181.453125 66.546875 181.757812 66.546875 C 182.0625 66.546875 182.335938 66.597656 182.574219 66.691406 C 182.8125 66.785156 183.011719 66.917969 183.171875 67.089844 C 183.328125 67.257812 183.449219 67.460938 183.53125 67.699219 C 183.617188 67.9375 183.660156 68.207031 183.660156 68.5 Z M 183.128906 68.5 C 183.128906 68.269531 183.097656 68.0625 183.042969 67.871094 C 182.980469 67.683594 182.894531 67.523438 182.78125 67.394531 C 182.664062 67.257812 182.519531 67.152344 182.347656 67.078125 C 182.175781 67.007812 181.980469 66.972656 181.757812 66.972656 C 181.535156 66.972656 181.335938 67.007812 181.160156 67.078125 C 180.988281 67.152344 180.839844 67.257812 180.726562 67.394531 C 180.617188 67.523438 180.535156 67.683594 180.476562 67.871094 C 180.417969 68.0625 180.390625 68.269531 180.390625 68.5 C 180.390625 68.734375 180.417969 68.945312 180.476562 69.140625 C 180.535156 69.332031 180.621094 69.492188 180.738281 69.628906 C 180.851562 69.765625 180.992188 69.875 181.160156 69.953125 C 181.335938 70.027344 181.535156 70.0625 181.757812 70.0625 C 182 70.0625 182.203125 70.027344 182.378906 69.953125 C 182.550781 69.875 182.695312 69.765625 182.800781 69.628906 C 182.910156 69.484375 182.988281 69.320312 183.042969 69.128906 C 183.097656 68.933594 183.128906 68.726562 183.128906 68.5 Z M 183.128906 68.5 "/>
<path style=" stroke:none;fill-rule:nonzero;fill:rgb(0%,0%,47.058824%);fill-opacity:1;" d="M 61.78125 52.726562 C 61.78125 53.027344 61.734375 53.296875 61.640625 53.539062 C 61.554688 53.789062 61.425781 53.996094 61.261719 54.171875 C 61.09375 54.34375 60.890625 54.480469 60.652344 54.570312 C 60.414062 54.664062 60.140625 54.710938 59.835938 54.710938 C 59.515625 54.710938 59.238281 54.664062 59 54.570312 C 58.761719 54.472656 58.558594 54.332031 58.390625 54.160156 C 58.230469 53.980469 58.113281 53.769531 58.035156 53.53125 C 57.953125 53.285156 57.914062 53.019531 57.914062 52.726562 C 57.914062 52.433594 57.953125 52.164062 58.035156 51.925781 C 58.121094 51.679688 58.246094 51.476562 58.414062 51.304688 C 58.578125 51.140625 58.785156 51.011719 59.023438 50.917969 C 59.261719 50.824219 59.535156 50.773438 59.847656 50.773438 C 60.15625 50.773438 60.433594 50.824219 60.675781 50.917969 C 60.914062 51.011719 61.113281 51.144531 61.273438 51.316406 C 61.4375 51.484375 61.566406 51.6875 61.652344 51.925781 C 61.738281 52.164062 61.78125 52.433594 61.78125 52.726562 Z M 60.96875 52.726562 C 60.96875 52.527344 60.941406 52.34375 60.890625 52.183594 C 60.839844 52.027344 60.765625 51.890625 60.675781 51.773438 C 60.578125 51.660156 60.460938 51.566406 60.328125 51.5 C 60.1875 51.4375 60.027344 51.402344 59.847656 51.402344 C 59.65625 51.402344 59.492188 51.4375 59.347656 51.5 C 59.210938 51.566406 59.09375 51.660156 59 51.773438 C 58.90625 51.890625 58.832031 52.027344 58.785156 52.183594 C 58.738281 52.34375 58.71875 52.527344 58.71875 52.726562 C 58.71875 52.929688 58.742188 53.113281 58.792969 53.28125 C 58.84375 53.441406 58.917969 53.582031 59.011719 53.703125 C 59.105469 53.820312 59.21875 53.914062 59.359375 53.984375 C 59.496094 54.050781 59.65625 54.082031 59.835938 54.082031 C 60.03125 54.082031 60.199219 54.050781 60.335938 53.984375 C 60.480469 53.914062 60.601562 53.820312 60.695312 53.703125 C 60.789062 53.582031 60.859375 53.4375 60.902344 53.269531 C 60.945312 53.105469 60.96875 52.921875 60.96875 52.726562 Z M 60.96875 52.726562 "/>
<path style=" stroke:none;fill-rule:nonzero;fill:rgb(0%,0%,47.058824%);fill-opacity:1;" d="M 70.582031 97.324219 C 70.582031 97.621094 70.535156 97.890625 70.441406 98.136719 C 70.355469 98.382812 70.226562 98.59375 70.0625 98.765625 C 69.894531 98.9375 69.691406 99.074219 69.453125 99.167969 C 69.214844 99.257812 68.941406 99.308594 68.636719 99.308594 C 68.316406 99.308594 68.039062 99.257812 67.800781 99.167969 C 67.5625 99.066406 67.359375 98.929688 67.191406 98.753906 C 67.03125 98.574219 66.914062 98.363281 66.832031 98.125 C 66.75 97.882812 66.714844 97.613281 66.714844 97.324219 C 66.714844 97.027344 66.75 96.757812 66.832031 96.519531 C 66.921875 96.277344 67.046875 96.070312 67.214844 95.902344 C 67.378906 95.738281 67.582031 95.605469 67.824219 95.511719 C 68.0625 95.417969 68.335938 95.371094 68.648438 95.371094 C 68.957031 95.371094 69.234375 95.417969 69.472656 95.511719 C 69.714844 95.605469 69.910156 95.738281 70.070312 95.914062 C 70.238281 96.082031 70.367188 96.28125 70.453125 96.519531 C 70.539062 96.757812 70.582031 97.027344 70.582031 97.324219 Z M 69.769531 97.324219 C 69.769531 97.121094 69.742188 96.941406 69.691406 96.78125 C 69.640625 96.625 69.566406 96.484375 69.472656 96.367188 C 69.378906 96.253906 69.261719 96.164062 69.125 96.097656 C 68.988281 96.03125 68.828125 96 68.648438 96 C 68.457031 96 68.292969 96.03125 68.148438 96.097656 C 68.011719 96.164062 67.894531 96.253906 67.800781 96.367188 C 67.707031 96.484375 67.632812 96.625 67.582031 96.78125 C 67.539062 96.941406 67.519531 97.121094 67.519531 97.324219 C 67.519531 97.527344 67.542969 97.710938 67.59375 97.875 C 67.644531 98.035156 67.714844 98.175781 67.8125 98.300781 C 67.902344 98.414062 68.019531 98.511719 68.160156 98.582031 C 68.296875 98.644531 68.457031 98.679688 68.636719 98.679688 C 68.832031 98.679688 69 98.644531 69.136719 98.582031 C 69.28125 98.511719 69.402344 98.414062 69.496094 98.300781 C 69.589844 98.175781 69.660156 98.03125 69.703125 97.863281 C 69.746094 97.699219 69.769531 97.519531 69.769531 97.324219 Z M 69.769531 97.324219 "/>
<path style=" stroke:none;fill-rule:nonzero;fill:rgb(0%,0%,47.058824%);fill-opacity:1;" d="M 36.769531 97.324219 C 36.769531 97.621094 36.722656 97.890625 36.628906 98.136719 C 36.542969 98.382812 36.414062 98.59375 36.25 98.765625 C 36.082031 98.9375 35.878906 99.074219 35.640625 99.167969 C 35.402344 99.257812 35.128906 99.308594 34.824219 99.308594 C 34.503906 99.308594 34.226562 99.257812 33.988281 99.167969 C 33.75 99.066406 33.546875 98.929688 33.378906 98.753906 C 33.21875 98.574219 33.101562 98.363281 33.019531 98.125 C 32.941406 97.882812 32.902344 97.613281 32.902344 97.324219 C 32.902344 97.027344 32.941406 96.757812 33.019531 96.519531 C 33.109375 96.277344 33.234375 96.070312 33.402344 95.902344 C 33.566406 95.738281 33.769531 95.605469 34.011719 95.511719 C 34.25 95.417969 34.523438 95.371094 34.835938 95.371094 C 35.144531 95.371094 35.421875 95.417969 35.664062 95.511719 C 35.902344 95.605469 36.101562 95.738281 36.261719 95.914062 C 36.425781 96.082031 36.554688 96.28125 36.640625 96.519531 C 36.726562 96.757812 36.769531 97.027344 36.769531 97.324219 Z M 35.957031 97.324219 C 35.957031 97.121094 35.929688 96.941406 35.878906 96.78125 C 35.828125 96.625 35.753906 96.484375 35.664062 96.367188 C 35.566406 96.253906 35.449219 96.164062 35.316406 96.097656 C 35.175781 96.03125 35.015625 96 34.835938 96 C 34.644531 96 34.480469 96.03125 34.335938 96.097656 C 34.199219 96.164062 34.082031 96.253906 33.988281 96.367188 C 33.894531 96.484375 33.820312 96.625 33.769531 96.78125 C 33.726562 96.941406 33.707031 97.121094 33.707031 97.324219 C 33.707031 97.527344 33.730469 97.710938 33.78125 97.875 C 33.832031 98.035156 33.90625 98.175781 34 98.300781 C 34.09375 98.414062 34.207031 98.511719 34.347656 98.582031 C 34.484375 98.644531 34.644531 98.679688 34.824219 98.679688 C 35.019531 98.679688 35.1875 98.644531 35.324219 98.582031 C 35.46875 98.511719 35.589844 98.414062 35.683594 98.300781 C 35.777344 98.175781 35.847656 98.03125 35.890625 97.863281 C 35.933594 97.699219 35.957031 97.519531 35.957031 97.324219 Z M 35.957031 97.324219 "/>
<path style=" stroke:none;fill-rule:nonzero;fill:rgb(0%,0%,47.058824%);fill-opacity:1;" d="M 19.097656 67.703125 C 19.097656 68.003906 19.046875 68.273438 18.957031 68.515625 C 18.867188 68.765625 18.742188 68.972656 18.574219 69.144531 C 18.40625 69.320312 18.207031 69.457031 17.96875 69.546875 C 17.726562 69.640625 17.457031 69.6875 17.152344 69.6875 C 16.832031 69.6875 16.554688 69.640625 16.316406 69.546875 C 16.074219 69.449219 15.871094 69.308594 15.707031 69.136719 C 15.546875 68.957031 15.425781 68.746094 15.347656 68.507812 C 15.265625 68.261719 15.226562 67.992188 15.226562 67.703125 C 15.226562 67.40625 15.265625 67.140625 15.347656 66.902344 C 15.433594 66.65625 15.558594 66.449219 15.726562 66.28125 C 15.894531 66.117188 16.097656 65.988281 16.335938 65.890625 C 16.574219 65.800781 16.851562 65.75 17.164062 65.75 C 17.472656 65.75 17.75 65.800781 17.988281 65.890625 C 18.226562 65.988281 18.425781 66.121094 18.585938 66.292969 C 18.753906 66.460938 18.878906 66.664062 18.96875 66.902344 C 19.054688 67.140625 19.097656 67.40625 19.097656 67.703125 Z M 18.28125 67.703125 C 18.28125 67.503906 18.253906 67.320312 18.207031 67.160156 C 18.15625 67.003906 18.082031 66.867188 17.988281 66.75 C 17.894531 66.636719 17.777344 66.542969 17.640625 66.476562 C 17.503906 66.414062 17.34375 66.378906 17.164062 66.378906 C 16.972656 66.378906 16.808594 66.414062 16.664062 66.476562 C 16.523438 66.542969 16.40625 66.636719 16.316406 66.75 C 16.21875 66.867188 16.148438 67.003906 16.097656 67.160156 C 16.054688 67.320312 16.03125 67.503906 16.03125 67.703125 C 16.03125 67.90625 16.058594 68.089844 16.109375 68.257812 C 16.15625 68.417969 16.230469 68.558594 16.324219 68.679688 C 16.417969 68.796875 16.535156 68.890625 16.671875 68.960938 C 16.808594 69.027344 16.96875 69.058594 17.152344 69.058594 C 17.347656 69.058594 17.511719 69.027344 17.652344 68.960938 C 17.796875 68.890625 17.914062 68.796875 18.011719 68.679688 C 18.101562 68.558594 18.171875 68.414062 18.21875 68.246094 C 18.261719 68.082031 18.28125 67.898438 18.28125 67.703125 Z M 18.28125 67.703125 "/>
<path style=" stroke:none;fill-rule:nonzero;fill:rgb(0%,0%,47.058824%);fill-opacity:1;" d="M 19.363281 38.015625 C 19.363281 38.316406 19.316406 38.585938 19.222656 38.832031 C 19.136719 39.078125 19.007812 39.285156 18.84375 39.460938 C 18.671875 39.632812 18.472656 39.769531 18.234375 39.859375 C 17.992188 39.953125 17.722656 40 17.417969 40 C 17.097656 40 16.820312 39.953125 16.582031 39.859375 C 16.34375 39.761719 16.136719 39.621094 15.972656 39.449219 C 15.8125 39.269531 15.691406 39.058594 15.613281 38.820312 C 15.53125 38.574219 15.496094 38.308594 15.496094 38.015625 C 15.496094 37.722656 15.53125 37.453125 15.613281 37.214844 C 15.699219 36.96875 15.824219 36.765625 15.996094 36.597656 C 16.160156 36.429688 16.363281 36.300781 16.601562 36.207031 C 16.84375 36.113281 17.117188 36.066406 17.429688 36.066406 C 17.738281 36.066406 18.015625 36.113281 18.253906 36.207031 C 18.492188 36.300781 18.691406 36.433594 18.851562 36.605469 C 19.019531 36.773438 19.144531 36.976562 19.234375 37.214844 C 19.320312 37.453125 19.363281 37.722656 19.363281 38.015625 Z M 18.546875 38.015625 C 18.546875 37.816406 18.519531 37.632812 18.472656 37.472656 C 18.421875 37.316406 18.347656 37.179688 18.253906 37.0625 C 18.160156 36.949219 18.042969 36.855469 17.90625 36.792969 C 17.769531 36.726562 17.609375 36.695312 17.429688 36.695312 C 17.238281 36.695312 17.074219 36.726562 16.929688 36.792969 C 16.789062 36.855469 16.671875 36.949219 16.582031 37.0625 C 16.484375 37.179688 16.414062 37.316406 16.363281 37.472656 C 16.320312 37.632812 16.296875 37.816406 16.296875 38.015625 C 16.296875 38.21875 16.324219 38.40625 16.375 38.570312 C 16.421875 38.730469 16.496094 38.871094 16.59375 38.992188 C 16.683594 39.109375 16.800781 39.203125 16.941406 39.273438 C 17.074219 39.339844 17.234375 39.371094 17.417969 39.371094 C 17.613281 39.371094 17.78125 39.339844 17.917969 39.273438 C 18.0625 39.203125 18.179688 39.109375 18.277344 38.992188 C 18.367188 38.871094 18.441406 38.726562 18.484375 38.558594 C 18.527344 38.394531 18.546875 38.210938 18.546875 38.015625 Z M 18.546875 38.015625 "/>
<path style="fill:none;stroke-width:0.0333333;stroke-linecap:butt;stroke-linejoin:miter;stroke:rgb(0%,0%,0%);stroke-opacity:1;stroke-miterlimit:10;" d="M 6.861719 2.466293 L 6.861719 1.480411 " transform="matrix(17.388268,0,0,17.354369,17.163157,17.199033)"/>
<path style="fill:none;stroke-width:0.0333333;stroke-linecap:butt;stroke-linejoin:miter;stroke:rgb(0%,0%,0%);stroke-opacity:1;stroke-miterlimit:10;" d="M 6.695029 2.369056 L 6.695029 1.577648 " transform="matrix(17.388268,0,0,17.354369,17.163157,17.199033)"/>
<path style="fill:none;stroke-width:0.0333333;stroke-linecap:butt;stroke-linejoin:miter;stroke:rgb(0%,0%,0%);stroke-opacity:1;stroke-miterlimit:10;" d="M 6.869806 2.461567 L 5.986488 2.961711 " transform="matrix(17.388268,0,0,17.354369,17.163157,17.199033)"/>
<path style="fill:none;stroke-width:0.0333333;stroke-linecap:butt;stroke-linejoin:miter;stroke:rgb(0%,0%,0%);stroke-opacity:1;stroke-miterlimit:10;" d="M 6.853407 2.461567 L 7.545549 2.853444 " transform="matrix(17.388268,0,0,17.354369,17.163157,17.199033)"/>
<path style="fill:none;stroke-width:0.0333333;stroke-linecap:butt;stroke-linejoin:miter;stroke:rgb(0%,0%,0%);stroke-opacity:1;stroke-miterlimit:10;" d="M 6.869806 1.485137 L 5.986488 0.984993 " transform="matrix(17.388268,0,0,17.354369,17.163157,17.199033)"/>
<path style="fill:none;stroke-width:0.0333333;stroke-linecap:butt;stroke-linejoin:miter;stroke:rgb(0%,0%,0%);stroke-opacity:1;stroke-miterlimit:10;" d="M 6.853407 1.485137 L 7.73695 0.984768 " transform="matrix(17.388268,0,0,17.354369,17.163157,17.199033)"/>
<path style="fill:none;stroke-width:0.0333333;stroke-linecap:butt;stroke-linejoin:miter;stroke:rgb(0%,0%,0%);stroke-opacity:1;stroke-miterlimit:10;" d="M 6.003112 2.961711 L 5.127881 2.466293 " transform="matrix(17.388268,0,0,17.354369,17.163157,17.199033)"/>
<path style="fill:none;stroke-width:0.0333333;stroke-linecap:butt;stroke-linejoin:miter;stroke:rgb(0%,0%,0%);stroke-opacity:1;stroke-miterlimit:10;" d="M 6.003112 2.770161 L 5.29457 2.369056 " transform="matrix(17.388268,0,0,17.354369,17.163157,17.199033)"/>
<path style="fill:none;stroke-width:0.0333333;stroke-linecap:butt;stroke-linejoin:miter;stroke:rgb(0%,0%,0%);stroke-opacity:1;stroke-miterlimit:10;" d="M 7.911277 2.853894 L 8.607688 2.461342 " transform="matrix(17.388268,0,0,17.354369,17.163157,17.199033)"/>
<path style="fill:none;stroke-width:0.0333333;stroke-linecap:butt;stroke-linejoin:miter;stroke:rgb(0%,0%,0%);stroke-opacity:1;stroke-miterlimit:10;" d="M 6.003112 0.984993 L 5.119569 1.485363 " transform="matrix(17.388268,0,0,17.354369,17.163157,17.199033)"/>
<path style="fill:none;stroke-width:0.0333333;stroke-linecap:butt;stroke-linejoin:miter;stroke:rgb(0%,0%,0%);stroke-opacity:1;stroke-miterlimit:10;" d="M 6.003112 1.176543 L 5.286258 1.582375 " transform="matrix(17.388268,0,0,17.354369,17.163157,17.199033)"/>
<path style="fill:none;stroke-width:0.0333333;stroke-linecap:butt;stroke-linejoin:miter;stroke:rgb(0%,0%,0%);stroke-opacity:1;stroke-miterlimit:10;" d="M 7.728413 0.989495 L 8.607688 1.485363 " transform="matrix(17.388268,0,0,17.354369,17.163157,17.199033)"/>
<path style="fill:none;stroke-width:0.0333333;stroke-linecap:butt;stroke-linejoin:miter;stroke:rgb(0%,0%,0%);stroke-opacity:1;stroke-miterlimit:10;" d="M 7.728638 1.181044 L 8.440998 1.5826 " transform="matrix(17.388268,0,0,17.354369,17.163157,17.199033)"/>
<path style="fill:none;stroke-width:0.0333333;stroke-linecap:butt;stroke-linejoin:miter;stroke:rgb(0%,0%,0%);stroke-opacity:1;stroke-miterlimit:10;" d="M 7.728413 0.999174 L 7.728413 0.156672 " transform="matrix(17.388268,0,0,17.354369,17.163157,17.199033)"/>
<path style="fill:none;stroke-width:0.0333333;stroke-linecap:butt;stroke-linejoin:miter;stroke:rgb(0%,0%,0%);stroke-opacity:1;stroke-miterlimit:10;" d="M 5.138664 2.462242 L 4.13763 2.840614 " transform="matrix(17.388268,0,0,17.354369,17.163157,17.199033)"/>
<path style="fill:none;stroke-width:0.0333333;stroke-linecap:butt;stroke-linejoin:miter;stroke:rgb(0%,0%,0%);stroke-opacity:1;stroke-miterlimit:10;" d="M 8.514458 2.514012 L 9.242095 2.926147 " transform="matrix(17.388268,0,0,17.354369,17.163157,17.199033)"/>
<path style="fill:none;stroke-width:0.0333333;stroke-linecap:butt;stroke-linejoin:miter;stroke:rgb(0%,0%,0%);stroke-opacity:1;stroke-miterlimit:10;" d="M 8.599151 2.370406 L 9.324092 2.780966 " transform="matrix(17.388268,0,0,17.354369,17.163157,17.199033)"/>
<path style="fill:none;stroke-width:0.06;stroke-linecap:butt;stroke-linejoin:miter;stroke:rgb(0%,0%,47.058824%);stroke-opacity:1;stroke-miterlimit:10;" d="M 3.100203 2.930424 L 3.100203 2.891709 M 3.23926 2.950006 L 3.23926 2.872126 M 3.378318 2.969364 L 3.378318 2.852769 M 3.5176 2.988946 L 3.5176 2.833411 M 3.656657 3.008304 L 3.656657 2.814054 M 3.795939 3.027887 L 3.795939 2.794471 " transform="matrix(17.388268,0,0,17.354369,17.163157,17.199033)"/>
<path style="fill:none;stroke-width:0.06;stroke-linecap:butt;stroke-linejoin:miter;stroke:rgb(0%,0%,47.058824%);stroke-opacity:1;stroke-miterlimit:10;" d="M 2.969907 2.926147 L 2.562843 2.232203 " transform="matrix(17.388268,0,0,17.354369,17.163157,17.199033)"/>
<path style="fill:none;stroke-width:0.06;stroke-linecap:butt;stroke-linejoin:miter;stroke:rgb(0%,0%,47.058824%);stroke-opacity:1;stroke-miterlimit:10;" d="M 2.969682 2.895985 L 2.461302 3.781704 " transform="matrix(17.388268,0,0,17.354369,17.163157,17.199033)"/>
<path style="fill:none;stroke-width:0.06;stroke-linecap:butt;stroke-linejoin:miter;stroke:rgb(0%,0%,47.058824%);stroke-opacity:1;stroke-miterlimit:10;" d="M 2.300229 2.048081 L 1.463188 2.048081 " transform="matrix(17.388268,0,0,17.354369,17.163157,17.199033)"/>
<path style="fill:none;stroke-width:0.06;stroke-linecap:butt;stroke-linejoin:miter;stroke:rgb(0%,0%,47.058824%);stroke-opacity:1;stroke-miterlimit:10;" d="M 2.487586 3.766398 L 1.478689 3.766398 " transform="matrix(17.388268,0,0,17.354369,17.163157,17.199033)"/>
<path style="fill:none;stroke-width:0.06;stroke-linecap:butt;stroke-linejoin:miter;stroke:rgb(0%,0%,47.058824%);stroke-opacity:1;stroke-miterlimit:10;" d="M 2.51724 3.887495 L 2.551162 3.867913 M 2.564416 4.008142 L 2.632035 3.969427 M 2.611817 4.129014 L 2.712684 4.070717 M 2.658993 4.249886 L 2.793782 4.172231 M 2.706169 4.370758 L 2.874655 4.273745 M 2.753345 4.49163 L 2.955529 4.375035 " transform="matrix(17.388268,0,0,17.354369,17.163157,17.199033)"/>
<path style="fill:none;stroke-width:0.06;stroke-linecap:butt;stroke-linejoin:miter;stroke:rgb(0%,0%,47.058824%);stroke-opacity:1;stroke-miterlimit:10;" d="M 1.489248 2.033 L 0.980868 2.926372 " transform="matrix(17.388268,0,0,17.354369,17.163157,17.199033)"/>
<path style=" stroke:none;fill-rule:nonzero;fill:rgb(0%,0%,47.058824%);fill-opacity:1;" d="M 42.910156 52.742188 L 36.253906 36.777344 L 34.484375 37.765625 L 31.996094 37.765625 "/>
<path style=" stroke:none;fill-rule:nonzero;fill:rgb(0%,0%,47.058824%);fill-opacity:1;" d="M 43.171875 82.5625 L 34.882812 93.132812 L 38.417969 95.121094 "/>
<path style="fill:none;stroke-width:0.06;stroke-linecap:butt;stroke-linejoin:miter;stroke:rgb(0%,0%,47.058824%);stroke-opacity:1;stroke-miterlimit:10;" d="M 0.850347 2.891709 L 0.850347 2.930424 M 0.71129 2.872126 L 0.71129 2.950006 M 0.572007 2.852769 L 0.572007 2.969364 M 0.43295 2.833411 L 0.43295 2.988946 M 0.293668 2.814054 L 0.293668 3.008304 M 0.15461 2.794471 L 0.15461 3.027887 " transform="matrix(17.388268,0,0,17.354369,17.163157,17.199033)"/>
<path style="fill:none;stroke-width:0.06;stroke-linecap:butt;stroke-linejoin:miter;stroke:rgb(0%,0%,47.058824%);stroke-opacity:1;stroke-miterlimit:10;" d="M 1.022428 1.200402 L 0.169886 1.200402 " transform="matrix(17.388268,0,0,17.354369,17.163157,17.199033)"/>
<path style="fill:none;stroke-width:0.0333333;stroke-linecap:butt;stroke-linejoin:miter;stroke:rgb(0%,0%,0%);stroke-opacity:1;stroke-miterlimit:10;" d="M 5.127881 2.477773 L 5.127881 1.470732 " transform="matrix(17.388268,0,0,17.354369,17.163157,17.199033)"/>
<path style="fill:none;stroke-width:0.0333333;stroke-linecap:butt;stroke-linejoin:miter;stroke:rgb(0%,0%,0%);stroke-opacity:1;stroke-miterlimit:10;" d="M 8.599151 2.475972 L 8.599151 1.470732 " transform="matrix(17.388268,0,0,17.354369,17.163157,17.199033)"/>
<path style="fill:none;stroke-width:0.06;stroke-linecap:butt;stroke-linejoin:miter;stroke:rgb(0%,0%,47.058824%);stroke-opacity:1;stroke-miterlimit:10;" d="M 1.504524 3.781254 L 0.980868 2.89621 " transform="matrix(17.388268,0,0,17.354369,17.163157,17.199033)"/>
</g>
</svg>
