<?xml version="1.0" encoding="UTF-8"?>
<svg xmlns="http://www.w3.org/2000/svg" xmlns:xlink="http://www.w3.org/1999/xlink" width="78.4pt" height="92pt" viewBox="0 0 78.4 92" version="1.1">
<g id="surface1727">
<path style=" stroke:none;fill-rule:nonzero;fill:rgb(0%,0%,0%);fill-opacity:1;" d="M 17.851562 19.109375 L 15.8125 15.859375 C 15.820312 15.945312 15.824219 16.035156 15.824219 16.121094 C 15.832031 16.195312 15.835938 16.273438 15.835938 16.359375 C 15.839844 16.441406 15.847656 16.511719 15.847656 16.574219 L 15.847656 19.109375 L 15.382812 19.109375 L 15.382812 15.296875 L 15.988281 15.296875 L 18.035156 18.566406 C 18.035156 18.566406 18.03125 18.476562 18.023438 18.296875 C 18.015625 18.226562 18.007812 18.144531 18.003906 18.058594 C 18.003906 17.964844 18.003906 17.878906 18.003906 17.796875 L 18.003906 15.296875 L 18.464844 15.296875 L 18.464844 19.109375 Z M 17.851562 19.109375 "/>
<path style=" stroke:none;fill-rule:nonzero;fill:rgb(0%,0%,0%);fill-opacity:1;" d="M 16.359375 53.746094 L 15.378906 52.167969 L 14.191406 52.167969 L 14.191406 53.746094 L 13.671875 53.746094 L 13.671875 49.9375 L 15.464844 49.9375 C 15.679688 49.9375 15.867188 49.964844 16.035156 50.011719 C 16.199219 50.054688 16.339844 50.125 16.457031 50.21875 C 16.570312 50.3125 16.65625 50.429688 16.714844 50.5625 C 16.769531 50.703125 16.800781 50.855469 16.800781 51.019531 C 16.800781 51.144531 16.78125 51.265625 16.746094 51.386719 C 16.707031 51.503906 16.652344 51.613281 16.574219 51.710938 C 16.5 51.804688 16.40625 51.890625 16.292969 51.960938 C 16.179688 52.027344 16.039062 52.074219 15.875 52.101562 L 16.953125 53.746094 Z M 16.28125 51.03125 C 16.28125 50.914062 16.261719 50.8125 16.21875 50.726562 C 16.179688 50.640625 16.125 50.574219 16.046875 50.519531 C 15.972656 50.464844 15.882812 50.421875 15.777344 50.390625 C 15.667969 50.363281 15.542969 50.347656 15.410156 50.347656 L 14.191406 50.347656 L 14.191406 51.753906 L 15.429688 51.753906 C 15.582031 51.753906 15.710938 51.738281 15.820312 51.699219 C 15.925781 51.664062 16.011719 51.613281 16.078125 51.550781 C 16.148438 51.484375 16.199219 51.410156 16.230469 51.320312 C 16.265625 51.230469 16.28125 51.132812 16.28125 51.03125 Z M 16.28125 51.03125 "/>
<path style=" stroke:none;fill-rule:nonzero;fill:rgb(0%,0%,0%);fill-opacity:1;" d="M 17.792969 53.746094 L 17.792969 53.335938 L 18.761719 53.335938 L 18.761719 50.402344 L 17.898438 51.007812 L 17.898438 50.554688 L 18.804688 49.9375 L 19.246094 49.9375 L 19.246094 53.335938 L 20.175781 53.335938 L 20.175781 53.746094 Z M 17.792969 53.746094 "/>
<path style="fill:none;stroke-width:0.0333333;stroke-linecap:butt;stroke-linejoin:miter;stroke:rgb(0%,0%,0%);stroke-opacity:1;stroke-miterlimit:10;" d="M 1.740398 -0.00477117 L 0.857878 0.504732 " transform="matrix(17.253521,0,0,17.319277,16.925139,17.203727)"/>
<path style="fill:none;stroke-width:0.0333333;stroke-linecap:butt;stroke-linejoin:miter;stroke:rgb(0%,0%,0%);stroke-opacity:1;stroke-miterlimit:10;" d="M 1.72387 -0.00477117 L 2.606389 0.504732 " transform="matrix(17.253521,0,0,17.319277,16.925139,17.203727)"/>
<path style="fill:none;stroke-width:0.0333333;stroke-linecap:butt;stroke-linejoin:miter;stroke:rgb(0%,0%,0%);stroke-opacity:1;stroke-miterlimit:10;" d="M 1.72387 0.187617 L 2.439757 0.601039 " transform="matrix(17.253521,0,0,17.319277,16.925139,17.203727)"/>
<path style="fill:none;stroke-width:0.0333333;stroke-linecap:butt;stroke-linejoin:miter;stroke:rgb(0%,0%,0%);stroke-opacity:1;stroke-miterlimit:10;" d="M 0.866029 0.499995 L 0.866029 1.500055 " transform="matrix(17.253521,0,0,17.319277,16.925139,17.203727)"/>
<path style="fill:none;stroke-width:0.0333333;stroke-linecap:butt;stroke-linejoin:miter;stroke:rgb(0%,0%,0%);stroke-opacity:1;stroke-miterlimit:10;" d="M 1.032888 0.596302 L 1.032888 1.403748 " transform="matrix(17.253521,0,0,17.319277,16.925139,17.203727)"/>
<path style="fill:none;stroke-width:0.0333333;stroke-linecap:butt;stroke-linejoin:miter;stroke:rgb(0%,0%,0%);stroke-opacity:1;stroke-miterlimit:10;" d="M 0.857878 1.495318 L 1.740398 2.004821 " transform="matrix(17.253521,0,0,17.319277,16.925139,17.203727)"/>
<path style="fill:none;stroke-width:0.0333333;stroke-linecap:butt;stroke-linejoin:miter;stroke:rgb(0%,0%,0%);stroke-opacity:1;stroke-miterlimit:10;" d="M 1.72387 2.004821 L 2.606389 1.495318 " transform="matrix(17.253521,0,0,17.319277,16.925139,17.203727)"/>
<path style="fill:none;stroke-width:0.0333333;stroke-linecap:butt;stroke-linejoin:miter;stroke:rgb(0%,0%,0%);stroke-opacity:1;stroke-miterlimit:10;" d="M 1.72387 1.812207 L 2.439757 1.399011 " transform="matrix(17.253521,0,0,17.319277,16.925139,17.203727)"/>
<path style="fill:none;stroke-width:0.0333333;stroke-linecap:butt;stroke-linejoin:miter;stroke:rgb(0%,0%,0%);stroke-opacity:1;stroke-miterlimit:10;" d="M 2.598012 1.509753 L 2.598012 0.490522 " transform="matrix(17.253521,0,0,17.319277,16.925139,17.203727)"/>
<path style="fill:none;stroke-width:0.0333333;stroke-linecap:butt;stroke-linejoin:miter;stroke:rgb(0%,0%,0%);stroke-opacity:1;stroke-miterlimit:10;" d="M 0.874406 0.504732 L 0.165991 0.0958212 " transform="matrix(17.253521,0,0,17.319277,16.925139,17.203727)"/>
<path style="fill:none;stroke-width:0.0333333;stroke-linecap:butt;stroke-linejoin:miter;stroke:rgb(0%,0%,0%);stroke-opacity:1;stroke-miterlimit:10;" d="M 0.240024 1.861376 L 0.874406 1.495318 " transform="matrix(17.253521,0,0,17.319277,16.925139,17.203727)"/>
<path style=" stroke:none;fill-rule:nonzero;fill:rgb(0%,0%,0%);fill-opacity:1;" d="M 19.609375 72.972656 L 18.628906 71.390625 L 17.441406 71.390625 L 17.441406 72.972656 L 16.925781 72.972656 L 16.925781 69.160156 L 18.714844 69.160156 C 18.929688 69.160156 19.117188 69.1875 19.285156 69.238281 C 19.449219 69.28125 19.589844 69.351562 19.707031 69.441406 C 19.820312 69.535156 19.90625 69.652344 19.964844 69.789062 C 20.023438 69.925781 20.050781 70.078125 20.050781 70.242188 C 20.050781 70.367188 20.03125 70.488281 19.996094 70.609375 C 19.960938 70.726562 19.902344 70.835938 19.824219 70.9375 C 19.753906 71.03125 19.660156 71.113281 19.546875 71.183594 C 19.429688 71.25 19.289062 71.296875 19.125 71.324219 L 20.203125 72.972656 Z M 19.535156 70.253906 C 19.535156 70.140625 19.511719 70.039062 19.46875 69.949219 C 19.433594 69.863281 19.375 69.796875 19.296875 69.746094 C 19.222656 69.6875 19.136719 69.644531 19.027344 69.617188 C 18.917969 69.589844 18.796875 69.570312 18.660156 69.570312 L 17.441406 69.570312 L 17.441406 70.980469 L 18.683594 70.980469 C 18.832031 70.980469 18.960938 70.964844 19.070312 70.925781 C 19.179688 70.890625 19.265625 70.839844 19.328125 70.773438 C 19.398438 70.707031 19.449219 70.632812 19.480469 70.546875 C 19.515625 70.453125 19.535156 70.355469 19.535156 70.253906 Z M 19.535156 70.253906 "/>
<path style=" stroke:none;fill-rule:nonzero;fill:rgb(0%,0%,0%);fill-opacity:1;" d="M 21.042969 72.972656 L 21.042969 72.558594 L 22.011719 72.558594 L 22.011719 69.625 L 21.152344 70.230469 L 21.152344 69.777344 L 22.058594 69.160156 L 22.5 69.160156 L 22.5 72.558594 L 23.425781 72.558594 L 23.425781 72.972656 Z M 21.042969 72.972656 "/>
<path style=" stroke:none;fill-rule:nonzero;fill:rgb(0%,0%,0%);fill-opacity:1;" d="M 24.089844 70.65625 L 24.089844 70.253906 L 26.773438 70.253906 L 26.773438 70.65625 Z M 24.089844 72.039062 L 24.089844 71.640625 L 26.773438 71.640625 L 26.773438 72.039062 Z M 24.089844 72.039062 "/>
<path style=" stroke:none;fill-rule:nonzero;fill:rgb(0%,0%,0%);fill-opacity:1;" d="M 16.925781 75.28125 L 16.925781 75.078125 L 18.078125 74.578125 L 16.925781 74.082031 L 16.925781 73.875 L 18.261719 74.4375 L 18.261719 74.71875 Z M 16.925781 75.28125 "/>
<path style=" stroke:none;fill-rule:nonzero;fill:rgb(0%,0%,0%);fill-opacity:1;" d="M 19.890625 74.535156 C 19.890625 74.714844 19.871094 74.871094 19.835938 75 C 19.804688 75.125 19.761719 75.226562 19.695312 75.304688 C 19.636719 75.375 19.570312 75.429688 19.492188 75.464844 C 19.410156 75.5 19.324219 75.519531 19.230469 75.519531 C 19.136719 75.519531 19.050781 75.5 18.972656 75.464844 C 18.890625 75.429688 18.820312 75.375 18.757812 75.304688 C 18.699219 75.226562 18.652344 75.125 18.617188 75 C 18.585938 74.871094 18.574219 74.714844 18.574219 74.535156 C 18.574219 74.339844 18.585938 74.183594 18.617188 74.058594 C 18.652344 73.929688 18.699219 73.828125 18.757812 73.753906 C 18.820312 73.683594 18.890625 73.632812 18.972656 73.605469 C 19.050781 73.570312 19.140625 73.550781 19.242188 73.550781 C 19.328125 73.550781 19.410156 73.570312 19.492188 73.605469 C 19.570312 73.632812 19.636719 73.683594 19.695312 73.753906 C 19.761719 73.828125 19.804688 73.929688 19.835938 74.058594 C 19.871094 74.183594 19.890625 74.339844 19.890625 74.535156 Z M 19.652344 74.535156 C 19.652344 74.382812 19.640625 74.257812 19.621094 74.15625 C 19.601562 74.054688 19.578125 73.976562 19.542969 73.917969 C 19.507812 73.851562 19.464844 73.808594 19.414062 73.789062 C 19.363281 73.761719 19.308594 73.746094 19.242188 73.746094 C 19.167969 73.746094 19.109375 73.761719 19.058594 73.789062 C 19.007812 73.808594 18.964844 73.851562 18.929688 73.917969 C 18.890625 73.976562 18.863281 74.054688 18.84375 74.15625 C 18.828125 74.257812 18.820312 74.382812 18.820312 74.535156 C 18.820312 74.679688 18.828125 74.804688 18.84375 74.902344 C 18.863281 75.007812 18.890625 75.085938 18.929688 75.152344 C 18.964844 75.210938 19.007812 75.253906 19.058594 75.28125 C 19.109375 75.304688 19.167969 75.316406 19.230469 75.316406 C 19.296875 75.316406 19.351562 75.304688 19.402344 75.28125 C 19.453125 75.253906 19.496094 75.210938 19.535156 75.152344 C 19.570312 75.085938 19.597656 75.007812 19.621094 74.902344 C 19.640625 74.804688 19.652344 74.679688 19.652344 74.535156 Z M 19.652344 74.535156 "/>
<path style=" stroke:none;fill-rule:nonzero;fill:rgb(0%,0%,0%);fill-opacity:1;" d="M 49.867188 72.03125 C 49.867188 72.328125 49.824219 72.601562 49.738281 72.84375 C 49.652344 73.089844 49.527344 73.296875 49.359375 73.472656 C 49.203125 73.644531 49.003906 73.78125 48.769531 73.871094 C 48.535156 73.964844 48.273438 74.011719 47.980469 74.011719 C 47.664062 74.011719 47.386719 73.964844 47.152344 73.871094 C 46.917969 73.773438 46.726562 73.632812 46.566406 73.460938 C 46.410156 73.28125 46.289062 73.070312 46.210938 72.832031 C 46.132812 72.589844 46.09375 72.320312 46.09375 72.03125 C 46.09375 71.738281 46.132812 71.46875 46.210938 71.230469 C 46.296875 70.988281 46.421875 70.78125 46.578125 70.613281 C 46.742188 70.449219 46.941406 70.320312 47.171875 70.222656 C 47.410156 70.132812 47.679688 70.082031 47.980469 70.082031 C 48.28125 70.082031 48.550781 70.132812 48.789062 70.222656 C 49.027344 70.320312 49.222656 70.453125 49.382812 70.625 C 49.539062 70.792969 49.65625 70.992188 49.738281 71.230469 C 49.824219 71.46875 49.867188 71.738281 49.867188 72.03125 Z M 49.339844 72.03125 C 49.339844 71.800781 49.308594 71.59375 49.253906 71.402344 C 49.195312 71.21875 49.109375 71.058594 48.996094 70.929688 C 48.878906 70.792969 48.734375 70.6875 48.5625 70.613281 C 48.394531 70.542969 48.203125 70.503906 47.980469 70.503906 C 47.757812 70.503906 47.558594 70.542969 47.386719 70.613281 C 47.214844 70.6875 47.070312 70.792969 46.957031 70.929688 C 46.847656 71.058594 46.765625 71.21875 46.707031 71.402344 C 46.648438 71.59375 46.621094 71.800781 46.621094 72.03125 C 46.621094 72.265625 46.648438 72.476562 46.707031 72.671875 C 46.765625 72.859375 46.851562 73.023438 46.96875 73.15625 C 47.082031 73.296875 47.222656 73.402344 47.386719 73.484375 C 47.558594 73.554688 47.757812 73.589844 47.980469 73.589844 C 48.21875 73.589844 48.421875 73.554688 48.59375 73.484375 C 48.769531 73.402344 48.910156 73.296875 49.015625 73.15625 C 49.125 73.015625 49.203125 72.847656 49.253906 72.660156 C 49.308594 72.464844 49.339844 72.257812 49.339844 72.03125 Z M 49.339844 72.03125 "/>
<path style=" stroke:none;fill-rule:nonzero;fill:rgb(0%,0%,0%);fill-opacity:1;" d="M 48.136719 66.671875 L 48.847656 66.402344 L 48.96875 66.761719 L 48.210938 66.957031 L 48.707031 67.625 L 48.386719 67.820312 L 47.988281 67.128906 L 47.566406 67.820312 L 47.242188 67.625 L 47.75 66.957031 L 46.996094 66.761719 L 47.125 66.390625 L 47.835938 66.683594 L 47.804688 65.882812 L 48.167969 65.882812 Z M 48.136719 66.671875 "/>
</g>
</svg>
