<?xml version="1.0" encoding="UTF-8"?>
<svg xmlns="http://www.w3.org/2000/svg" xmlns:xlink="http://www.w3.org/1999/xlink" width="109.6pt" height="60pt" viewBox="0 0 109.6 60" version="1.1">
<g id="surface152">
<path style=" stroke:none;fill-rule:nonzero;fill:rgb(0%,0%,0%);fill-opacity:1;" d="M 79.023438 17.015625 C 79.023438 17.308594 78.980469 17.578125 78.894531 17.820312 C 78.808594 18.066406 78.679688 18.273438 78.515625 18.445312 C 78.355469 18.617188 78.160156 18.75 77.921875 18.839844 C 77.691406 18.933594 77.425781 18.980469 77.132812 18.980469 C 76.8125 18.980469 76.539062 18.933594 76.300781 18.839844 C 76.066406 18.742188 75.875 18.605469 75.714844 18.433594 C 75.558594 18.253906 75.4375 18.046875 75.359375 17.808594 C 75.277344 17.566406 75.242188 17.300781 75.242188 17.015625 C 75.242188 16.722656 75.277344 16.453125 75.359375 16.21875 C 75.445312 15.976562 75.566406 15.773438 75.726562 15.605469 C 75.890625 15.441406 76.089844 15.3125 76.320312 15.21875 C 76.558594 15.125 76.828125 15.078125 77.132812 15.078125 C 77.433594 15.078125 77.707031 15.125 77.945312 15.21875 C 78.179688 15.3125 78.378906 15.445312 78.539062 15.617188 C 78.695312 15.78125 78.8125 15.980469 78.894531 16.21875 C 78.980469 16.453125 79.023438 16.722656 79.023438 17.015625 Z M 78.496094 17.015625 C 78.496094 16.785156 78.464844 16.578125 78.410156 16.390625 C 78.347656 16.203125 78.261719 16.046875 78.148438 15.917969 C 78.03125 15.78125 77.890625 15.679688 77.714844 15.605469 C 77.550781 15.535156 77.355469 15.496094 77.132812 15.496094 C 76.910156 15.496094 76.710938 15.535156 76.539062 15.605469 C 76.363281 15.679688 76.21875 15.78125 76.105469 15.917969 C 75.996094 16.046875 75.914062 16.203125 75.855469 16.390625 C 75.796875 16.578125 75.769531 16.785156 75.769531 17.015625 C 75.769531 17.246094 75.796875 17.453125 75.855469 17.648438 C 75.914062 17.835938 76 17.996094 76.117188 18.132812 C 76.230469 18.269531 76.371094 18.375 76.539062 18.453125 C 76.710938 18.527344 76.910156 18.5625 77.132812 18.5625 C 77.371094 18.5625 77.574219 18.527344 77.75 18.453125 C 77.921875 18.375 78.0625 18.269531 78.171875 18.132812 C 78.277344 17.988281 78.355469 17.824219 78.410156 17.636719 C 78.464844 17.445312 78.496094 17.238281 78.496094 17.015625 Z M 78.496094 17.015625 "/>
<path style=" stroke:none;fill-rule:nonzero;fill:rgb(0%,0%,0%);fill-opacity:1;" d="M 92.21875 24.097656 C 92.003906 24.097656 91.8125 24.136719 91.648438 24.207031 C 91.480469 24.277344 91.339844 24.382812 91.226562 24.519531 C 91.117188 24.648438 91.035156 24.804688 90.976562 24.992188 C 90.917969 25.179688 90.890625 25.386719 90.890625 25.613281 C 90.890625 25.847656 90.917969 26.054688 90.976562 26.25 C 91.042969 26.4375 91.128906 26.597656 91.246094 26.734375 C 91.359375 26.871094 91.5 26.976562 91.667969 27.054688 C 91.839844 27.128906 92.03125 27.164062 92.242188 27.164062 C 92.394531 27.164062 92.523438 27.148438 92.640625 27.109375 C 92.761719 27.066406 92.875 27.007812 92.976562 26.9375 C 93.078125 26.867188 93.164062 26.785156 93.234375 26.691406 C 93.316406 26.597656 93.382812 26.492188 93.441406 26.367188 L 93.863281 26.582031 C 93.796875 26.726562 93.714844 26.859375 93.613281 26.980469 C 93.511719 27.105469 93.394531 27.210938 93.257812 27.300781 C 93.121094 27.386719 92.964844 27.457031 92.792969 27.507812 C 92.621094 27.554688 92.429688 27.582031 92.21875 27.582031 C 91.910156 27.582031 91.640625 27.535156 91.410156 27.441406 C 91.175781 27.34375 90.980469 27.207031 90.824219 27.035156 C 90.675781 26.855469 90.558594 26.648438 90.480469 26.410156 C 90.398438 26.167969 90.359375 25.902344 90.359375 25.613281 C 90.359375 25.320312 90.398438 25.054688 90.480469 24.820312 C 90.566406 24.578125 90.6875 24.371094 90.847656 24.207031 C 91.003906 24.042969 91.199219 23.914062 91.429688 23.820312 C 91.660156 23.726562 91.921875 23.679688 92.21875 23.679688 C 92.621094 23.679688 92.957031 23.761719 93.226562 23.914062 C 93.5 24.074219 93.699219 24.3125 93.832031 24.625 L 93.34375 24.785156 C 93.304688 24.695312 93.257812 24.609375 93.191406 24.527344 C 93.132812 24.441406 93.058594 24.371094 92.964844 24.3125 C 92.871094 24.25 92.761719 24.199219 92.640625 24.164062 C 92.515625 24.121094 92.375 24.097656 92.21875 24.097656 Z M 92.21875 24.097656 "/>
<path style=" stroke:none;fill-rule:nonzero;fill:rgb(0%,0%,0%);fill-opacity:1;" d="M 32.296875 41.300781 C 32.082031 41.300781 31.890625 41.339844 31.726562 41.40625 C 31.558594 41.480469 31.417969 41.585938 31.304688 41.71875 C 31.195312 41.847656 31.113281 42.007812 31.054688 42.191406 C 30.996094 42.382812 30.96875 42.589844 30.96875 42.816406 C 30.96875 43.046875 30.996094 43.257812 31.054688 43.449219 C 31.121094 43.640625 31.210938 43.800781 31.324219 43.933594 C 31.4375 44.070312 31.578125 44.179688 31.746094 44.257812 C 31.921875 44.328125 32.109375 44.363281 32.320312 44.363281 C 32.472656 44.363281 32.605469 44.347656 32.71875 44.3125 C 32.84375 44.269531 32.953125 44.210938 33.054688 44.140625 C 33.15625 44.070312 33.242188 43.984375 33.316406 43.890625 C 33.394531 43.800781 33.460938 43.691406 33.519531 43.570312 L 33.941406 43.785156 C 33.878906 43.929688 33.792969 44.0625 33.691406 44.183594 C 33.589844 44.304688 33.472656 44.414062 33.335938 44.503906 C 33.199219 44.589844 33.042969 44.660156 32.871094 44.707031 C 32.699219 44.757812 32.507812 44.785156 32.296875 44.785156 C 31.988281 44.785156 31.71875 44.734375 31.488281 44.644531 C 31.253906 44.542969 31.0625 44.40625 30.902344 44.234375 C 30.753906 44.058594 30.636719 43.847656 30.558594 43.613281 C 30.476562 43.371094 30.4375 43.105469 30.4375 42.816406 C 30.4375 42.523438 30.476562 42.257812 30.558594 42.019531 C 30.644531 41.777344 30.765625 41.574219 30.925781 41.40625 C 31.082031 41.242188 31.277344 41.113281 31.507812 41.019531 C 31.738281 40.929688 32 40.882812 32.296875 40.882812 C 32.703125 40.882812 33.035156 40.960938 33.304688 41.117188 C 33.578125 41.277344 33.78125 41.511719 33.910156 41.828125 L 33.421875 41.988281 C 33.386719 41.898438 33.335938 41.8125 33.273438 41.730469 C 33.210938 41.644531 33.136719 41.574219 33.042969 41.515625 C 32.949219 41.449219 32.84375 41.402344 32.71875 41.363281 C 32.597656 41.320312 32.457031 41.300781 32.296875 41.300781 Z M 32.296875 41.300781 "/>
<path style=" stroke:none;fill-rule:nonzero;fill:rgb(0%,0%,0%);fill-opacity:1;" d="M 18.136719 18.921875 L 16.09375 15.695312 C 16.101562 15.78125 16.105469 15.867188 16.105469 15.953125 C 16.113281 16.027344 16.117188 16.105469 16.117188 16.191406 C 16.121094 16.273438 16.128906 16.339844 16.128906 16.40625 L 16.128906 18.921875 L 15.664062 18.921875 L 15.664062 15.136719 L 16.269531 15.136719 L 18.324219 18.382812 C 18.324219 18.382812 18.316406 18.296875 18.3125 18.117188 C 18.304688 18.046875 18.296875 17.964844 18.289062 17.878906 C 18.289062 17.789062 18.289062 17.703125 18.289062 17.621094 L 18.289062 15.136719 L 18.753906 15.136719 L 18.753906 18.921875 Z M 18.136719 18.921875 "/>
<path style="fill:none;stroke-width:0.0333333;stroke-linecap:butt;stroke-linejoin:miter;stroke:rgb(0%,0%,0%);stroke-opacity:1;stroke-miterlimit:10;" d="M 0.866056 1.343282 L 0.866056 0.490357 " transform="matrix(17.29798,0,0,17.201835,17.210392,17.029811)"/>
<path style="fill:none;stroke-width:0.0333333;stroke-linecap:butt;stroke-linejoin:miter;stroke:rgb(0%,0%,0%);stroke-opacity:1;stroke-miterlimit:10;" d="M 0.866056 0.499894 L 1.740435 -0.00491218 " transform="matrix(17.29798,0,0,17.201835,17.210392,17.029811)"/>
<path style="fill:none;stroke-width:0.0333333;stroke-linecap:butt;stroke-linejoin:miter;stroke:rgb(0%,0%,0%);stroke-opacity:1;stroke-miterlimit:10;" d="M 1.032712 0.596177 L 1.740435 0.187654 " transform="matrix(17.29798,0,0,17.201835,17.210392,17.029811)"/>
<path style="fill:none;stroke-width:0.0333333;stroke-linecap:butt;stroke-linejoin:miter;stroke:rgb(0%,0%,0%);stroke-opacity:1;stroke-miterlimit:10;" d="M 1.723725 -0.00491218 L 2.606459 0.50489 " transform="matrix(17.29798,0,0,17.201835,17.210392,17.029811)"/>
<path style="fill:none;stroke-width:0.0333333;stroke-linecap:butt;stroke-linejoin:miter;stroke:rgb(0%,0%,0%);stroke-opacity:1;stroke-miterlimit:10;" d="M 0.874185 0.50489 L 0.16601 0.0956857 " transform="matrix(17.29798,0,0,17.201835,17.210392,17.029811)"/>
<path style="fill:none;stroke-width:0.0333333;stroke-linecap:butt;stroke-linejoin:miter;stroke:rgb(0%,0%,0%);stroke-opacity:1;stroke-miterlimit:10;" d="M 3.281665 0.105223 L 2.589749 0.50489 " transform="matrix(17.29798,0,0,17.201835,17.210392,17.029811)"/>
<path style="fill:none;stroke-width:0.0333333;stroke-linecap:butt;stroke-linejoin:miter;stroke:rgb(0%,0%,0%);stroke-opacity:1;stroke-miterlimit:10;" d="M 3.646366 0.105223 L 4.153786 0.398161 " transform="matrix(17.29798,0,0,17.201835,17.210392,17.029811)"/>
</g>
</svg>
