<?xml version="1.0" encoding="UTF-8"?>
<svg xmlns="http://www.w3.org/2000/svg" xmlns:xlink="http://www.w3.org/1999/xlink" width="80pt" height="68.8pt" viewBox="0 0 80 68.8" version="1.1">
<g id="surface862">
<path style=" stroke:none;fill-rule:nonzero;fill:rgb(0%,0%,0%);fill-opacity:1;" d="M 19.648438 51.832031 C 19.648438 52.128906 19.605469 52.398438 19.519531 52.640625 C 19.429688 52.882812 19.304688 53.089844 19.136719 53.261719 C 18.976562 53.4375 18.78125 53.570312 18.542969 53.660156 C 18.308594 53.753906 18.042969 53.800781 17.75 53.800781 C 17.429688 53.800781 17.152344 53.753906 16.914062 53.660156 C 16.679688 53.5625 16.484375 53.425781 16.328125 53.253906 C 16.167969 53.074219 16.046875 52.867188 15.96875 52.628906 C 15.886719 52.386719 15.851562 52.121094 15.851562 51.832031 C 15.851562 51.539062 15.886719 51.273438 15.96875 51.039062 C 16.054688 50.796875 16.179688 50.59375 16.339844 50.425781 C 16.503906 50.261719 16.703125 50.132812 16.933594 50.039062 C 17.175781 49.945312 17.445312 49.898438 17.75 49.898438 C 18.054688 49.898438 18.324219 49.945312 18.5625 50.039062 C 18.800781 50.132812 19 50.265625 19.160156 50.4375 C 19.316406 50.601562 19.4375 50.800781 19.519531 51.039062 C 19.605469 51.273438 19.648438 51.539062 19.648438 51.832031 Z M 19.117188 51.832031 C 19.117188 51.605469 19.085938 51.398438 19.03125 51.210938 C 18.96875 51.023438 18.882812 50.867188 18.769531 50.738281 C 18.652344 50.601562 18.507812 50.5 18.335938 50.425781 C 18.167969 50.355469 17.972656 50.316406 17.75 50.316406 C 17.523438 50.316406 17.324219 50.355469 17.152344 50.425781 C 16.980469 50.5 16.832031 50.601562 16.71875 50.738281 C 16.609375 50.867188 16.527344 51.023438 16.46875 51.210938 C 16.410156 51.398438 16.382812 51.605469 16.382812 51.832031 C 16.382812 52.066406 16.410156 52.273438 16.46875 52.46875 C 16.527344 52.65625 16.613281 52.816406 16.730469 52.953125 C 16.84375 53.089844 16.984375 53.195312 17.152344 53.273438 C 17.324219 53.347656 17.523438 53.382812 17.75 53.382812 C 17.988281 53.382812 18.195312 53.347656 18.367188 53.273438 C 18.542969 53.195312 18.683594 53.089844 18.789062 52.953125 C 18.898438 52.808594 18.976562 52.644531 19.03125 52.457031 C 19.085938 52.265625 19.117188 52.058594 19.117188 51.832031 Z M 19.117188 51.832031 "/>
<path style=" stroke:none;fill-rule:nonzero;fill:rgb(0%,0%,47.058824%);fill-opacity:1;" d="M 17.859375 19.347656 L 16.1875 16.433594 C 16.199219 16.515625 16.210938 16.59375 16.21875 16.671875 C 16.222656 16.734375 16.230469 16.808594 16.230469 16.886719 C 16.234375 16.964844 16.242188 17.042969 16.242188 17.109375 L 16.242188 19.347656 L 15.523438 19.347656 L 15.523438 15.5625 L 16.445312 15.5625 L 18.128906 18.5 C 18.121094 18.429688 18.113281 18.347656 18.105469 18.261719 C 18.097656 18.191406 18.089844 18.109375 18.085938 18.023438 C 18.085938 17.9375 18.085938 17.851562 18.085938 17.757812 L 18.085938 15.5625 L 18.789062 15.5625 L 18.789062 19.347656 Z M 17.859375 19.347656 "/>
<path style="fill:none;stroke-width:0.06;stroke-linecap:butt;stroke-linejoin:miter;stroke:rgb(0%,0%,47.058824%);stroke-opacity:1;stroke-miterlimit:10;" d="M 0.874238 0.497395 L 0.891788 1.524148 " transform="matrix(17.361111,0,0,17.2,17.158199,16.948711)"/>
<path style="fill:none;stroke-width:0.06;stroke-linecap:butt;stroke-linejoin:miter;stroke:rgb(0%,0%,47.058824%);stroke-opacity:1;stroke-miterlimit:10;" d="M 0.874238 0.514655 L 1.746563 -0.00905477 " transform="matrix(17.361111,0,0,17.2,17.158199,16.948711)"/>
<path style="fill:none;stroke-width:0.06;stroke-linecap:butt;stroke-linejoin:miter;stroke:rgb(0%,0%,47.058824%);stroke-opacity:1;stroke-miterlimit:10;" d="M 1.042538 0.607996 L 1.749938 0.183532 " transform="matrix(17.361111,0,0,17.2,17.158199,16.948711)"/>
<path style="fill:none;stroke-width:0.06;stroke-linecap:butt;stroke-linejoin:miter;stroke:rgb(0%,0%,47.058824%);stroke-opacity:1;stroke-miterlimit:10;" d="M 0.891563 1.51461 L 1.780988 2.008115 " transform="matrix(17.361111,0,0,17.2,17.158199,16.948711)"/>
<path style="fill:none;stroke-width:0.06;stroke-linecap:butt;stroke-linejoin:miter;stroke:rgb(0%,0%,47.058824%);stroke-opacity:1;stroke-miterlimit:10;" d="M 1.056488 1.415591 L 1.777838 1.815527 " transform="matrix(17.361111,0,0,17.2,17.158199,16.948711)"/>
<path style="fill:none;stroke-width:0.06;stroke-linecap:butt;stroke-linejoin:miter;stroke:rgb(0%,0%,47.058824%);stroke-opacity:1;stroke-miterlimit:10;" d="M 1.751063 2.008569 L 2.638238 1.476002 " transform="matrix(17.361111,0,0,17.2,17.158199,16.948711)"/>
<path style="fill:none;stroke-width:0.06;stroke-linecap:butt;stroke-linejoin:miter;stroke:rgb(0%,0%,47.058824%);stroke-opacity:1;stroke-miterlimit:10;" d="M 2.623613 1.502346 L 2.606063 0.467644 " transform="matrix(17.361111,0,0,17.2,17.158199,16.948711)"/>
<path style="fill:none;stroke-width:0.06;stroke-linecap:butt;stroke-linejoin:miter;stroke:rgb(0%,0%,47.058824%);stroke-opacity:1;stroke-miterlimit:10;" d="M 2.455538 1.408778 L 2.441138 0.56689 " transform="matrix(17.361111,0,0,17.2,17.158199,16.948711)"/>
<path style="fill:none;stroke-width:0.06;stroke-linecap:butt;stroke-linejoin:miter;stroke:rgb(0%,0%,47.058824%);stroke-opacity:1;stroke-miterlimit:10;" d="M 2.621363 0.493534 L 1.716638 -0.00837344 " transform="matrix(17.361111,0,0,17.2,17.158199,16.948711)"/>
<path style="fill:none;stroke-width:0.0333333;stroke-linecap:butt;stroke-linejoin:miter;stroke:rgb(0%,0%,0%);stroke-opacity:1;stroke-miterlimit:10;" d="M 0.899888 1.509613 L 0.215663 1.920224 " transform="matrix(17.361111,0,0,17.2,17.158199,16.948711)"/>
<path style="fill:none;stroke-width:0.06;stroke-linecap:butt;stroke-linejoin:miter;stroke:rgb(0%,0%,47.058824%);stroke-opacity:1;stroke-miterlimit:10;" d="M 0.889538 0.523058 L 0.170213 0.12403 " transform="matrix(17.361111,0,0,17.2,17.158199,16.948711)"/>
</g>
</svg>
