<?xml version="1.0" encoding="UTF-8"?>
<svg xmlns="http://www.w3.org/2000/svg" xmlns:xlink="http://www.w3.org/1999/xlink" width="191.2pt" height="230.4pt" viewBox="0 0 191.2 230.4" version="1.1">
<g id="surface1277">
<path style=" stroke:none;fill-rule:nonzero;fill:rgb(0%,0%,0%);fill-opacity:1;" d="M 161.402344 9.507812 C 161.183594 9.507812 160.992188 9.546875 160.824219 9.617188 C 160.65625 9.691406 160.515625 9.796875 160.402344 9.933594 C 160.292969 10.0625 160.210938 10.222656 160.152344 10.410156 C 160.09375 10.601562 160.066406 10.808594 160.066406 11.039062 C 160.066406 11.273438 160.09375 11.488281 160.152344 11.683594 C 160.21875 11.871094 160.308594 12.035156 160.421875 12.171875 C 160.539062 12.308594 160.679688 12.417969 160.847656 12.496094 C 161.019531 12.570312 161.210938 12.605469 161.421875 12.605469 C 161.574219 12.605469 161.707031 12.589844 161.824219 12.550781 C 161.945312 12.507812 162.058594 12.449219 162.160156 12.378906 C 162.261719 12.308594 162.347656 12.222656 162.421875 12.128906 C 162.5 12.035156 162.566406 11.925781 162.628906 11.800781 L 163.050781 12.019531 C 162.984375 12.164062 162.902344 12.300781 162.800781 12.421875 C 162.699219 12.546875 162.578125 12.65625 162.441406 12.746094 C 162.304688 12.835938 162.148438 12.90625 161.976562 12.953125 C 161.800781 13.003906 161.609375 13.03125 161.402344 13.03125 C 161.089844 13.03125 160.816406 12.980469 160.585938 12.886719 C 160.351562 12.789062 160.15625 12.648438 160 12.476562 C 159.847656 12.296875 159.730469 12.085938 159.652344 11.84375 C 159.570312 11.601562 159.535156 11.332031 159.535156 11.039062 C 159.535156 10.746094 159.570312 10.476562 159.652344 10.238281 C 159.738281 9.992188 159.863281 9.785156 160.023438 9.617188 C 160.179688 9.449219 160.375 9.320312 160.609375 9.226562 C 160.839844 9.132812 161.101562 9.085938 161.402344 9.085938 C 161.804688 9.085938 162.140625 9.164062 162.410156 9.324219 C 162.683594 9.484375 162.886719 9.722656 163.019531 10.039062 L 162.53125 10.203125 C 162.492188 10.113281 162.441406 10.023438 162.378906 9.941406 C 162.316406 9.855469 162.242188 9.785156 162.148438 9.726562 C 162.054688 9.660156 161.945312 9.613281 161.824219 9.574219 C 161.699219 9.53125 161.558594 9.507812 161.402344 9.507812 Z M 161.402344 9.507812 "/>
<path style=" stroke:none;fill-rule:nonzero;fill:rgb(0%,0%,0%);fill-opacity:1;" d="M 164.289062 10.539062 C 164.34375 10.441406 164.402344 10.355469 164.460938 10.289062 C 164.527344 10.21875 164.59375 10.160156 164.667969 10.117188 C 164.746094 10.066406 164.828125 10.03125 164.917969 10.007812 C 165.007812 9.988281 165.113281 9.976562 165.230469 9.976562 C 165.417969 9.976562 165.570312 10.003906 165.6875 10.050781 C 165.808594 10.101562 165.90625 10.175781 165.96875 10.269531 C 166.039062 10.363281 166.09375 10.476562 166.121094 10.605469 C 166.148438 10.730469 166.164062 10.867188 166.164062 11.019531 L 166.164062 12.976562 L 165.664062 12.976562 L 165.664062 11.105469 C 165.664062 10.984375 165.65625 10.875 165.644531 10.78125 C 165.628906 10.6875 165.601562 10.613281 165.558594 10.550781 C 165.515625 10.488281 165.453125 10.441406 165.371094 10.410156 C 165.292969 10.375 165.191406 10.355469 165.070312 10.355469 C 164.953125 10.355469 164.847656 10.378906 164.753906 10.421875 C 164.660156 10.464844 164.582031 10.527344 164.515625 10.605469 C 164.449219 10.679688 164.398438 10.769531 164.363281 10.878906 C 164.324219 10.988281 164.308594 11.105469 164.308594 11.238281 L 164.308594 12.976562 L 163.820312 12.976562 L 163.820312 8.941406 L 164.308594 8.941406 L 164.308594 9.988281 C 164.308594 10.050781 164.304688 10.113281 164.296875 10.171875 C 164.296875 10.230469 164.292969 10.285156 164.289062 10.335938 C 164.289062 10.386719 164.289062 10.429688 164.289062 10.464844 C 164.289062 10.503906 164.289062 10.527344 164.289062 10.539062 Z M 164.289062 10.539062 "/>
<path style=" stroke:none;fill-rule:nonzero;fill:rgb(0%,0%,0%);fill-opacity:1;" d="M 167.015625 9.410156 L 167.015625 8.941406 L 167.503906 8.941406 L 167.503906 9.410156 Z M 167.015625 12.976562 L 167.015625 10.03125 L 167.503906 10.03125 L 167.503906 12.976562 Z M 167.015625 12.976562 "/>
<path style=" stroke:none;fill-rule:nonzero;fill:rgb(0%,0%,0%);fill-opacity:1;" d="M 168.324219 12.976562 L 168.324219 10.714844 C 168.324219 10.65625 168.320312 10.59375 168.3125 10.53125 C 168.3125 10.464844 168.3125 10.40625 168.3125 10.34375 C 168.3125 10.289062 168.308594 10.234375 168.300781 10.183594 C 168.300781 10.125 168.300781 10.074219 168.300781 10.03125 L 168.769531 10.03125 C 168.769531 10.074219 168.769531 10.125 168.769531 10.183594 C 168.773438 10.234375 168.78125 10.289062 168.78125 10.34375 C 168.78125 10.398438 168.78125 10.449219 168.78125 10.507812 C 168.785156 10.558594 168.789062 10.601562 168.789062 10.636719 L 168.800781 10.636719 C 168.828125 10.523438 168.859375 10.425781 168.898438 10.34375 C 168.941406 10.257812 168.988281 10.191406 169.039062 10.136719 C 169.097656 10.089844 169.164062 10.050781 169.234375 10.019531 C 169.304688 9.992188 169.394531 9.976562 169.496094 9.976562 C 169.53125 9.976562 169.566406 9.980469 169.605469 9.988281 C 169.640625 9.996094 169.671875 10.003906 169.691406 10.007812 L 169.691406 10.453125 C 169.660156 10.449219 169.625 10.441406 169.582031 10.441406 C 169.539062 10.4375 169.488281 10.433594 169.429688 10.433594 C 169.324219 10.433594 169.226562 10.460938 169.148438 10.507812 C 169.066406 10.558594 169.003906 10.628906 168.953125 10.714844 C 168.902344 10.800781 168.867188 10.910156 168.84375 11.039062 C 168.824219 11.164062 168.8125 11.300781 168.8125 11.441406 L 168.8125 12.976562 Z M 168.324219 12.976562 "/>
<path style=" stroke:none;fill-rule:nonzero;fill:rgb(0%,0%,0%);fill-opacity:1;" d="M 170.988281 13.03125 C 170.691406 13.03125 170.46875 12.953125 170.316406 12.800781 C 170.167969 12.644531 170.097656 12.425781 170.097656 12.148438 C 170.097656 11.960938 170.132812 11.808594 170.207031 11.683594 C 170.277344 11.550781 170.371094 11.453125 170.488281 11.386719 C 170.613281 11.316406 170.75 11.265625 170.902344 11.238281 C 171.054688 11.210938 171.207031 11.191406 171.367188 11.191406 L 172.019531 11.183594 L 172.019531 11.019531 C 172.019531 10.898438 172.003906 10.796875 171.976562 10.714844 C 171.953125 10.628906 171.917969 10.558594 171.867188 10.507812 C 171.816406 10.449219 171.75 10.410156 171.671875 10.386719 C 171.589844 10.367188 171.5 10.355469 171.390625 10.355469 C 171.296875 10.355469 171.207031 10.363281 171.128906 10.378906 C 171.058594 10.386719 170.992188 10.40625 170.933594 10.441406 C 170.882812 10.480469 170.839844 10.53125 170.804688 10.59375 C 170.765625 10.65625 170.746094 10.730469 170.738281 10.824219 L 170.230469 10.769531 C 170.242188 10.65625 170.273438 10.550781 170.328125 10.453125 C 170.375 10.363281 170.449219 10.277344 170.542969 10.203125 C 170.636719 10.132812 170.753906 10.078125 170.890625 10.039062 C 171.035156 9.996094 171.207031 9.976562 171.402344 9.976562 C 171.769531 9.976562 172.046875 10.0625 172.238281 10.238281 C 172.425781 10.40625 172.519531 10.648438 172.519531 10.964844 L 172.519531 12.238281 C 172.519531 12.382812 172.535156 12.492188 172.574219 12.5625 C 172.609375 12.636719 172.683594 12.671875 172.789062 12.671875 C 172.816406 12.671875 172.84375 12.671875 172.867188 12.671875 C 172.894531 12.664062 172.925781 12.65625 172.953125 12.648438 L 172.953125 12.953125 C 172.886719 12.976562 172.824219 12.988281 172.769531 12.996094 C 172.710938 13.003906 172.644531 13.007812 172.574219 13.007812 C 172.480469 13.007812 172.398438 12.996094 172.335938 12.976562 C 172.269531 12.949219 172.214844 12.90625 172.171875 12.855469 C 172.132812 12.808594 172.105469 12.746094 172.085938 12.671875 C 172.0625 12.601562 172.046875 12.511719 172.042969 12.410156 L 172.019531 12.410156 C 171.96875 12.503906 171.910156 12.59375 171.847656 12.671875 C 171.785156 12.746094 171.714844 12.808594 171.628906 12.867188 C 171.546875 12.917969 171.457031 12.960938 171.347656 12.988281 C 171.242188 13.011719 171.125 13.03125 170.988281 13.03125 Z M 171.097656 12.660156 C 171.25 12.660156 171.382812 12.632812 171.5 12.574219 C 171.621094 12.515625 171.71875 12.441406 171.792969 12.355469 C 171.871094 12.269531 171.929688 12.175781 171.964844 12.074219 C 172 11.964844 172.019531 11.863281 172.019531 11.769531 L 172.019531 11.519531 L 171.488281 11.53125 C 171.371094 11.539062 171.261719 11.550781 171.152344 11.5625 C 171.042969 11.578125 170.945312 11.605469 170.859375 11.648438 C 170.777344 11.691406 170.710938 11.757812 170.664062 11.84375 C 170.621094 11.925781 170.597656 12.03125 170.597656 12.160156 C 170.597656 12.320312 170.640625 12.441406 170.726562 12.53125 C 170.816406 12.617188 170.9375 12.660156 171.097656 12.660156 Z M 171.097656 12.660156 "/>
<path style=" stroke:none;fill-rule:nonzero;fill:rgb(0%,0%,0%);fill-opacity:1;" d="M 173.457031 12.976562 L 173.457031 8.941406 L 173.945312 8.941406 L 173.945312 12.976562 Z M 173.457031 12.976562 "/>
<path style=" stroke:none;fill-rule:nonzero;fill:rgb(0%,0%,0%);fill-opacity:1;" d="M 80.675781 92.699219 C 80.675781 93 80.632812 93.273438 80.546875 93.515625 C 80.460938 93.761719 80.332031 93.972656 80.167969 94.148438 C 80.007812 94.320312 79.808594 94.457031 79.570312 94.550781 C 79.335938 94.640625 79.074219 94.691406 78.777344 94.691406 C 78.457031 94.691406 78.179688 94.640625 77.941406 94.550781 C 77.707031 94.449219 77.511719 94.308594 77.355469 94.136719 C 77.195312 93.957031 77.074219 93.746094 76.996094 93.503906 C 76.914062 93.261719 76.878906 92.992188 76.878906 92.699219 C 76.878906 92.40625 76.914062 92.136719 76.996094 91.898438 C 77.082031 91.652344 77.207031 91.445312 77.367188 91.277344 C 77.53125 91.113281 77.730469 90.980469 77.964844 90.886719 C 78.203125 90.792969 78.472656 90.746094 78.777344 90.746094 C 79.082031 90.746094 79.351562 90.792969 79.589844 90.886719 C 79.832031 90.980469 80.027344 91.113281 80.1875 91.289062 C 80.347656 91.457031 80.464844 91.65625 80.546875 91.898438 C 80.632812 92.136719 80.675781 92.40625 80.675781 92.699219 Z M 80.144531 92.699219 C 80.144531 92.46875 80.117188 92.261719 80.058594 92.070312 C 80 91.882812 79.910156 91.722656 79.796875 91.59375 C 79.679688 91.457031 79.539062 91.351562 79.363281 91.277344 C 79.195312 91.207031 79 91.167969 78.777344 91.167969 C 78.550781 91.167969 78.355469 91.207031 78.179688 91.277344 C 78.007812 91.351562 77.859375 91.457031 77.746094 91.59375 C 77.636719 91.722656 77.554688 91.882812 77.496094 92.070312 C 77.4375 92.261719 77.410156 92.46875 77.410156 92.699219 C 77.410156 92.933594 77.4375 93.148438 77.496094 93.34375 C 77.554688 93.53125 77.640625 93.695312 77.757812 93.832031 C 77.871094 93.96875 78.011719 94.078125 78.179688 94.15625 C 78.355469 94.230469 78.550781 94.265625 78.777344 94.265625 C 79.015625 94.265625 79.222656 94.230469 79.394531 94.15625 C 79.570312 94.078125 79.710938 93.96875 79.820312 93.832031 C 79.929688 93.6875 80.007812 93.523438 80.058594 93.332031 C 80.117188 93.136719 80.144531 92.925781 80.144531 92.699219 Z M 80.144531 92.699219 "/>
<path style=" stroke:none;fill-rule:nonzero;fill:rgb(0%,0%,0%);fill-opacity:1;" d="M 81.257812 90.371094 L 82.1875 90.371094 L 82.1875 89.4375 L 82.652344 89.4375 L 82.652344 90.371094 L 83.582031 90.371094 L 83.582031 90.835938 L 82.652344 90.835938 L 82.652344 91.765625 L 82.1875 91.765625 L 82.1875 90.835938 L 81.257812 90.835938 "/>
<path style=" stroke:none;fill-rule:nonzero;fill:rgb(0%,0%,47.058824%);fill-opacity:1;" d="M 123.472656 107.613281 C 123.472656 107.910156 123.425781 108.183594 123.332031 108.425781 C 123.246094 108.675781 123.117188 108.882812 122.953125 109.058594 C 122.785156 109.230469 122.582031 109.367188 122.34375 109.460938 C 122.105469 109.550781 121.835938 109.601562 121.53125 109.601562 C 121.210938 109.601562 120.933594 109.550781 120.695312 109.460938 C 120.457031 109.359375 120.25 109.21875 120.085938 109.046875 C 119.925781 108.867188 119.808594 108.65625 119.726562 108.414062 C 119.648438 108.171875 119.609375 107.902344 119.609375 107.613281 C 119.609375 107.316406 119.648438 107.046875 119.726562 106.808594 C 119.816406 106.5625 119.941406 106.355469 120.109375 106.1875 C 120.273438 106.023438 120.476562 105.890625 120.714844 105.796875 C 120.953125 105.703125 121.230469 105.65625 121.539062 105.65625 C 121.851562 105.65625 122.128906 105.703125 122.367188 105.796875 C 122.605469 105.890625 122.804688 106.023438 122.964844 106.199219 C 123.128906 106.367188 123.257812 106.566406 123.34375 106.808594 C 123.429688 107.046875 123.472656 107.316406 123.472656 107.613281 Z M 122.660156 107.613281 C 122.660156 107.410156 122.632812 107.226562 122.582031 107.066406 C 122.53125 106.910156 122.457031 106.773438 122.367188 106.65625 C 122.269531 106.539062 122.152344 106.449219 122.019531 106.382812 C 121.878906 106.316406 121.71875 106.285156 121.539062 106.285156 C 121.351562 106.285156 121.183594 106.316406 121.042969 106.382812 C 120.902344 106.449219 120.785156 106.539062 120.695312 106.65625 C 120.597656 106.773438 120.527344 106.910156 120.476562 107.066406 C 120.433594 107.226562 120.410156 107.410156 120.410156 107.613281 C 120.410156 107.816406 120.4375 108 120.488281 108.164062 C 120.535156 108.324219 120.609375 108.46875 120.703125 108.589844 C 120.796875 108.707031 120.914062 108.800781 121.050781 108.871094 C 121.1875 108.9375 121.347656 108.96875 121.53125 108.96875 C 121.726562 108.96875 121.890625 108.9375 122.03125 108.871094 C 122.171875 108.800781 122.292969 108.707031 122.386719 108.589844 C 122.480469 108.46875 122.550781 108.324219 122.59375 108.15625 C 122.636719 107.988281 122.660156 107.808594 122.660156 107.613281 Z M 122.660156 107.613281 "/>
<path style=" stroke:none;fill-rule:nonzero;fill:rgb(0%,0%,47.058824%);fill-opacity:1;" d="M 123.472656 137.433594 C 123.472656 137.730469 123.425781 138.003906 123.332031 138.246094 C 123.246094 138.496094 123.117188 138.703125 122.953125 138.878906 C 122.785156 139.050781 122.582031 139.1875 122.34375 139.28125 C 122.105469 139.371094 121.835938 139.421875 121.53125 139.421875 C 121.210938 139.421875 120.933594 139.371094 120.695312 139.28125 C 120.457031 139.179688 120.25 139.039062 120.085938 138.867188 C 119.925781 138.6875 119.808594 138.476562 119.726562 138.238281 C 119.648438 137.992188 119.609375 137.722656 119.609375 137.433594 C 119.609375 137.136719 119.648438 136.867188 119.726562 136.628906 C 119.816406 136.382812 119.941406 136.175781 120.109375 136.007812 C 120.273438 135.84375 120.476562 135.710938 120.714844 135.617188 C 120.953125 135.523438 121.230469 135.476562 121.539062 135.476562 C 121.851562 135.476562 122.128906 135.523438 122.367188 135.617188 C 122.605469 135.710938 122.804688 135.84375 122.964844 136.019531 C 123.128906 136.1875 123.257812 136.386719 123.34375 136.628906 C 123.429688 136.867188 123.472656 137.136719 123.472656 137.433594 Z M 122.660156 137.433594 C 122.660156 137.230469 122.632812 137.050781 122.582031 136.886719 C 122.53125 136.730469 122.457031 136.59375 122.367188 136.476562 C 122.269531 136.363281 122.152344 136.269531 122.019531 136.203125 C 121.878906 136.136719 121.71875 136.105469 121.539062 136.105469 C 121.351562 136.105469 121.183594 136.136719 121.042969 136.203125 C 120.902344 136.269531 120.785156 136.363281 120.695312 136.476562 C 120.597656 136.59375 120.527344 136.730469 120.476562 136.886719 C 120.433594 137.050781 120.410156 137.230469 120.410156 137.433594 C 120.410156 137.636719 120.4375 137.820312 120.488281 137.988281 C 120.535156 138.148438 120.609375 138.289062 120.703125 138.410156 C 120.796875 138.527344 120.914062 138.621094 121.050781 138.691406 C 121.1875 138.757812 121.347656 138.789062 121.53125 138.789062 C 121.726562 138.789062 121.890625 138.757812 122.03125 138.691406 C 122.171875 138.621094 122.292969 138.527344 122.386719 138.410156 C 122.480469 138.289062 122.550781 138.144531 122.59375 137.976562 C 122.636719 137.808594 122.660156 137.628906 122.660156 137.433594 Z M 122.660156 137.433594 "/>
<path style=" stroke:none;fill-rule:nonzero;fill:rgb(0%,0%,0%);fill-opacity:1;" d="M 149.691406 62.210938 C 149.691406 62.511719 149.648438 62.78125 149.5625 63.027344 C 149.476562 63.273438 149.347656 63.484375 149.183594 63.65625 C 149.023438 63.832031 148.824219 63.96875 148.585938 64.058594 C 148.351562 64.152344 148.089844 64.199219 147.792969 64.199219 C 147.472656 64.199219 147.195312 64.152344 146.957031 64.058594 C 146.722656 63.960938 146.527344 63.820312 146.371094 63.648438 C 146.210938 63.46875 146.089844 63.253906 146.011719 63.015625 C 145.929688 62.773438 145.894531 62.503906 145.894531 62.210938 C 145.894531 61.914062 145.929688 61.648438 146.011719 61.40625 C 146.097656 61.164062 146.222656 60.957031 146.382812 60.789062 C 146.546875 60.621094 146.746094 60.492188 146.980469 60.398438 C 147.21875 60.304688 147.488281 60.253906 147.792969 60.253906 C 148.097656 60.253906 148.367188 60.304688 148.605469 60.398438 C 148.847656 60.492188 149.042969 60.625 149.203125 60.800781 C 149.363281 60.96875 149.480469 61.167969 149.5625 61.40625 C 149.648438 61.648438 149.691406 61.914062 149.691406 62.210938 Z M 149.160156 62.210938 C 149.160156 61.980469 149.128906 61.773438 149.074219 61.582031 C 149.015625 61.394531 148.925781 61.234375 148.8125 61.101562 C 148.695312 60.96875 148.550781 60.863281 148.378906 60.789062 C 148.210938 60.71875 148.015625 60.679688 147.792969 60.679688 C 147.566406 60.679688 147.371094 60.71875 147.195312 60.789062 C 147.023438 60.863281 146.875 60.96875 146.761719 61.101562 C 146.652344 61.234375 146.570312 61.394531 146.511719 61.582031 C 146.453125 61.773438 146.425781 61.980469 146.425781 62.210938 C 146.425781 62.445312 146.453125 62.65625 146.511719 62.851562 C 146.570312 63.042969 146.65625 63.207031 146.773438 63.34375 C 146.886719 63.480469 147.027344 63.589844 147.195312 63.667969 C 147.371094 63.742188 147.566406 63.777344 147.792969 63.777344 C 148.03125 63.777344 148.238281 63.742188 148.410156 63.667969 C 148.585938 63.589844 148.726562 63.480469 148.835938 63.34375 C 148.945312 63.199219 149.023438 63.03125 149.074219 62.84375 C 149.128906 62.648438 149.160156 62.4375 149.160156 62.210938 Z M 149.160156 62.210938 "/>
<path style=" stroke:none;fill-rule:nonzero;fill:rgb(0%,0%,0%);fill-opacity:1;" d="M 98.242188 32.488281 C 98.242188 32.785156 98.199219 33.058594 98.113281 33.300781 C 98.023438 33.550781 97.898438 33.757812 97.730469 33.933594 C 97.570312 34.105469 97.375 34.242188 97.132812 34.335938 C 96.902344 34.425781 96.636719 34.476562 96.34375 34.476562 C 96.023438 34.476562 95.746094 34.425781 95.507812 34.335938 C 95.273438 34.234375 95.078125 34.09375 94.917969 33.921875 C 94.757812 33.742188 94.640625 33.53125 94.5625 33.289062 C 94.480469 33.046875 94.441406 32.777344 94.441406 32.488281 C 94.441406 32.191406 94.480469 31.921875 94.5625 31.683594 C 94.648438 31.4375 94.769531 31.230469 94.929688 31.0625 C 95.097656 30.898438 95.292969 30.765625 95.527344 30.671875 C 95.765625 30.578125 96.039062 30.53125 96.34375 30.53125 C 96.644531 30.53125 96.917969 30.578125 97.15625 30.671875 C 97.394531 30.765625 97.59375 30.898438 97.753906 31.074219 C 97.910156 31.242188 98.03125 31.441406 98.113281 31.683594 C 98.199219 31.921875 98.242188 32.191406 98.242188 32.488281 Z M 97.710938 32.488281 C 97.710938 32.253906 97.679688 32.046875 97.621094 31.855469 C 97.5625 31.667969 97.476562 31.507812 97.363281 31.378906 C 97.246094 31.242188 97.101562 31.136719 96.929688 31.0625 C 96.761719 30.992188 96.566406 30.953125 96.34375 30.953125 C 96.117188 30.953125 95.917969 30.992188 95.746094 31.0625 C 95.570312 31.136719 95.425781 31.242188 95.3125 31.378906 C 95.203125 31.507812 95.117188 31.667969 95.0625 31.855469 C 95 32.046875 94.972656 32.253906 94.972656 32.488281 C 94.972656 32.71875 95 32.933594 95.0625 33.128906 C 95.117188 33.316406 95.203125 33.480469 95.320312 33.617188 C 95.433594 33.753906 95.578125 33.863281 95.746094 33.941406 C 95.917969 34.015625 96.117188 34.050781 96.34375 34.050781 C 96.582031 34.050781 96.785156 34.015625 96.960938 33.941406 C 97.132812 33.863281 97.277344 33.753906 97.382812 33.617188 C 97.492188 33.472656 97.570312 33.308594 97.621094 33.117188 C 97.679688 32.921875 97.710938 32.710938 97.710938 32.488281 Z M 97.710938 32.488281 "/>
<path style=" stroke:none;fill-rule:nonzero;fill:rgb(0%,0%,0%);fill-opacity:1;" d="M 80.007812 152.628906 C 80.007812 152.925781 79.964844 153.199219 79.878906 153.441406 C 79.792969 153.691406 79.664062 153.898438 79.5 154.074219 C 79.339844 154.246094 79.140625 154.382812 78.902344 154.476562 C 78.667969 154.566406 78.40625 154.617188 78.109375 154.617188 C 77.789062 154.617188 77.511719 154.566406 77.273438 154.476562 C 77.039062 154.375 76.84375 154.238281 76.6875 154.0625 C 76.527344 153.882812 76.40625 153.671875 76.328125 153.433594 C 76.246094 153.1875 76.210938 152.917969 76.210938 152.628906 C 76.210938 152.332031 76.246094 152.0625 76.328125 151.824219 C 76.417969 151.578125 76.539062 151.371094 76.699219 151.203125 C 76.863281 151.039062 77.0625 150.90625 77.296875 150.8125 C 77.535156 150.71875 77.804688 150.671875 78.109375 150.671875 C 78.414062 150.671875 78.683594 150.71875 78.925781 150.8125 C 79.164062 150.90625 79.359375 151.039062 79.519531 151.214844 C 79.679688 151.382812 79.796875 151.585938 79.878906 151.824219 C 79.964844 152.0625 80.007812 152.332031 80.007812 152.628906 Z M 79.476562 152.628906 C 79.476562 152.398438 79.449219 152.1875 79.390625 151.996094 C 79.332031 151.808594 79.246094 151.648438 79.128906 151.519531 C 79.011719 151.382812 78.871094 151.277344 78.695312 151.203125 C 78.527344 151.132812 78.332031 151.09375 78.109375 151.09375 C 77.882812 151.09375 77.6875 151.132812 77.511719 151.203125 C 77.339844 151.277344 77.191406 151.382812 77.078125 151.519531 C 76.96875 151.648438 76.886719 151.808594 76.828125 151.996094 C 76.769531 152.1875 76.742188 152.398438 76.742188 152.628906 C 76.742188 152.863281 76.769531 153.074219 76.828125 153.269531 C 76.886719 153.460938 76.972656 153.621094 77.089844 153.757812 C 77.203125 153.898438 77.34375 154.003906 77.511719 154.085938 C 77.6875 154.15625 77.882812 154.191406 78.109375 154.191406 C 78.347656 154.191406 78.554688 154.15625 78.730469 154.085938 C 78.902344 154.003906 79.042969 153.898438 79.152344 153.757812 C 79.261719 153.613281 79.339844 153.449219 79.390625 153.257812 C 79.449219 153.0625 79.476562 152.851562 79.476562 152.628906 Z M 79.476562 152.628906 "/>
<path style=" stroke:none;fill-rule:nonzero;fill:rgb(0%,0%,47.058824%);fill-opacity:1;" d="M 158.503906 107.898438 C 158.503906 108.199219 158.457031 108.46875 158.363281 108.714844 C 158.277344 108.960938 158.148438 109.171875 157.984375 109.34375 C 157.816406 109.519531 157.613281 109.65625 157.375 109.746094 C 157.136719 109.839844 156.867188 109.886719 156.5625 109.886719 C 156.242188 109.886719 155.964844 109.839844 155.726562 109.746094 C 155.488281 109.648438 155.285156 109.507812 155.117188 109.335938 C 154.957031 109.15625 154.839844 108.941406 154.757812 108.703125 C 154.679688 108.460938 154.640625 108.191406 154.640625 107.898438 C 154.640625 107.601562 154.679688 107.335938 154.757812 107.09375 C 154.847656 106.851562 154.972656 106.644531 155.140625 106.476562 C 155.304688 106.308594 155.507812 106.179688 155.746094 106.085938 C 155.984375 105.992188 156.261719 105.941406 156.574219 105.941406 C 156.882812 105.941406 157.160156 105.992188 157.398438 106.085938 C 157.636719 106.179688 157.835938 106.3125 157.996094 106.488281 C 158.160156 106.65625 158.289062 106.855469 158.375 107.09375 C 158.460938 107.335938 158.503906 107.601562 158.503906 107.898438 Z M 157.691406 107.898438 C 157.691406 107.699219 157.664062 107.515625 157.613281 107.355469 C 157.5625 107.199219 157.488281 107.058594 157.398438 106.941406 C 157.300781 106.828125 157.1875 106.738281 157.050781 106.671875 C 156.910156 106.605469 156.75 106.574219 156.574219 106.574219 C 156.382812 106.574219 156.21875 106.605469 156.074219 106.671875 C 155.933594 106.738281 155.816406 106.828125 155.726562 106.941406 C 155.628906 107.058594 155.558594 107.199219 155.507812 107.355469 C 155.464844 107.515625 155.445312 107.699219 155.445312 107.898438 C 155.445312 108.101562 155.46875 108.289062 155.519531 108.453125 C 155.566406 108.613281 155.640625 108.753906 155.738281 108.878906 C 155.828125 108.996094 155.945312 109.089844 156.082031 109.160156 C 156.21875 109.226562 156.378906 109.257812 156.5625 109.257812 C 156.757812 109.257812 156.921875 109.226562 157.0625 109.160156 C 157.203125 109.089844 157.324219 108.996094 157.417969 108.878906 C 157.511719 108.753906 157.582031 108.613281 157.625 108.441406 C 157.667969 108.277344 157.691406 108.09375 157.691406 107.898438 Z M 157.691406 107.898438 "/>
<path style=" stroke:none;fill-rule:nonzero;fill:rgb(0%,0%,0%);fill-opacity:1;" d="M 132.796875 32.199219 C 132.796875 32.5 132.753906 32.773438 132.667969 33.015625 C 132.582031 33.261719 132.453125 33.472656 132.289062 33.648438 C 132.128906 33.820312 131.929688 33.957031 131.691406 34.050781 C 131.457031 34.140625 131.195312 34.191406 130.898438 34.191406 C 130.578125 34.191406 130.300781 34.140625 130.0625 34.050781 C 129.828125 33.949219 129.632812 33.808594 129.476562 33.636719 C 129.316406 33.457031 129.195312 33.246094 129.117188 33.003906 C 129.035156 32.761719 129 32.492188 129 32.199219 C 129 31.90625 129.035156 31.636719 129.117188 31.398438 C 129.203125 31.152344 129.328125 30.945312 129.488281 30.777344 C 129.652344 30.613281 129.851562 30.480469 130.085938 30.386719 C 130.324219 30.292969 130.59375 30.246094 130.898438 30.246094 C 131.203125 30.246094 131.472656 30.292969 131.710938 30.386719 C 131.953125 30.480469 132.148438 30.613281 132.308594 30.789062 C 132.46875 30.957031 132.585938 31.15625 132.667969 31.398438 C 132.753906 31.636719 132.796875 31.90625 132.796875 32.199219 Z M 132.265625 32.199219 C 132.265625 31.96875 132.238281 31.761719 132.179688 31.570312 C 132.121094 31.382812 132.03125 31.222656 131.917969 31.09375 C 131.800781 30.957031 131.660156 30.851562 131.484375 30.777344 C 131.316406 30.707031 131.121094 30.667969 130.898438 30.667969 C 130.671875 30.667969 130.476562 30.707031 130.300781 30.777344 C 130.128906 30.851562 129.980469 30.957031 129.867188 31.09375 C 129.757812 31.222656 129.675781 31.382812 129.617188 31.570312 C 129.558594 31.761719 129.53125 31.96875 129.53125 32.199219 C 129.53125 32.433594 129.558594 32.648438 129.617188 32.84375 C 129.675781 33.03125 129.761719 33.195312 129.878906 33.332031 C 129.992188 33.46875 130.132812 33.578125 130.300781 33.65625 C 130.476562 33.730469 130.671875 33.765625 130.898438 33.765625 C 131.136719 33.765625 131.34375 33.730469 131.515625 33.65625 C 131.691406 33.578125 131.832031 33.46875 131.941406 33.332031 C 132.050781 33.1875 132.128906 33.023438 132.179688 32.832031 C 132.238281 32.636719 132.265625 32.425781 132.265625 32.199219 Z M 132.265625 32.199219 "/>
<path style=" stroke:none;fill-rule:nonzero;fill:rgb(0%,0%,0%);fill-opacity:1;" d="M 156.679688 75.777344 C 156.464844 75.777344 156.269531 75.816406 156.105469 75.886719 C 155.9375 75.960938 155.796875 76.066406 155.683594 76.199219 C 155.574219 76.332031 155.488281 76.492188 155.433594 76.679688 C 155.371094 76.871094 155.34375 77.078125 155.34375 77.308594 C 155.34375 77.542969 155.371094 77.753906 155.433594 77.949219 C 155.496094 78.140625 155.585938 78.304688 155.703125 78.441406 C 155.816406 78.578125 155.960938 78.6875 156.128906 78.765625 C 156.300781 78.839844 156.492188 78.875 156.703125 78.875 C 156.855469 78.875 156.988281 78.859375 157.105469 78.820312 C 157.226562 78.777344 157.335938 78.71875 157.441406 78.648438 C 157.542969 78.574219 157.628906 78.492188 157.703125 78.398438 C 157.78125 78.304688 157.847656 78.195312 157.90625 78.070312 L 158.332031 78.289062 C 158.265625 78.433594 158.183594 78.566406 158.082031 78.691406 C 157.976562 78.816406 157.859375 78.925781 157.722656 79.015625 C 157.585938 79.101562 157.429688 79.175781 157.257812 79.222656 C 157.082031 79.273438 156.890625 79.300781 156.679688 79.300781 C 156.367188 79.300781 156.097656 79.25 155.867188 79.15625 C 155.632812 79.058594 155.4375 78.917969 155.28125 78.746094 C 155.128906 78.566406 155.011719 78.351562 154.933594 78.113281 C 154.851562 77.871094 154.8125 77.601562 154.8125 77.308594 C 154.8125 77.011719 154.851562 76.746094 154.933594 76.503906 C 155.019531 76.261719 155.140625 76.054688 155.300781 75.886719 C 155.460938 75.71875 155.65625 75.589844 155.886719 75.496094 C 156.117188 75.402344 156.382812 75.351562 156.679688 75.351562 C 157.085938 75.351562 157.421875 75.433594 157.691406 75.59375 C 157.964844 75.753906 158.167969 75.992188 158.296875 76.308594 L 157.808594 76.472656 C 157.773438 76.378906 157.722656 76.292969 157.65625 76.210938 C 157.597656 76.125 157.523438 76.054688 157.429688 75.996094 C 157.335938 75.929688 157.226562 75.878906 157.105469 75.84375 C 156.980469 75.800781 156.839844 75.777344 156.679688 75.777344 Z M 156.679688 75.777344 "/>
<path style=" stroke:none;fill-rule:nonzero;fill:rgb(0%,0%,0%);fill-opacity:1;" d="M 104.847656 15.566406 C 104.628906 15.566406 104.4375 15.605469 104.273438 15.675781 C 104.105469 15.75 103.960938 15.855469 103.847656 15.992188 C 103.738281 16.121094 103.65625 16.28125 103.597656 16.46875 C 103.539062 16.660156 103.511719 16.871094 103.511719 17.101562 C 103.511719 17.335938 103.539062 17.546875 103.597656 17.742188 C 103.664062 17.933594 103.753906 18.09375 103.871094 18.230469 C 103.984375 18.371094 104.125 18.476562 104.292969 18.558594 C 104.46875 18.628906 104.65625 18.664062 104.871094 18.664062 C 105.019531 18.664062 105.152344 18.648438 105.269531 18.613281 C 105.394531 18.566406 105.503906 18.511719 105.605469 18.4375 C 105.707031 18.367188 105.792969 18.28125 105.867188 18.1875 C 105.945312 18.09375 106.015625 17.988281 106.074219 17.863281 L 106.496094 18.078125 C 106.433594 18.226562 106.347656 18.359375 106.246094 18.480469 C 106.144531 18.605469 106.023438 18.714844 105.890625 18.808594 C 105.75 18.894531 105.597656 18.964844 105.421875 19.011719 C 105.25 19.0625 105.054688 19.089844 104.847656 19.089844 C 104.535156 19.089844 104.265625 19.039062 104.035156 18.949219 C 103.800781 18.847656 103.605469 18.710938 103.445312 18.535156 C 103.296875 18.355469 103.179688 18.144531 103.101562 17.90625 C 103.019531 17.660156 102.980469 17.390625 102.980469 17.101562 C 102.980469 16.804688 103.019531 16.535156 103.101562 16.296875 C 103.1875 16.050781 103.308594 15.84375 103.46875 15.675781 C 103.625 15.511719 103.820312 15.378906 104.054688 15.285156 C 104.285156 15.191406 104.550781 15.144531 104.847656 15.144531 C 105.25 15.144531 105.589844 15.226562 105.855469 15.382812 C 106.132812 15.542969 106.335938 15.78125 106.464844 16.101562 L 105.976562 16.261719 C 105.9375 16.171875 105.890625 16.085938 105.824219 16.003906 C 105.765625 15.914062 105.6875 15.84375 105.597656 15.785156 C 105.5 15.71875 105.394531 15.671875 105.269531 15.632812 C 105.144531 15.589844 105.003906 15.566406 104.847656 15.566406 Z M 104.847656 15.566406 "/>
<path style=" stroke:none;fill-rule:nonzero;fill:rgb(0%,0%,0%);fill-opacity:1;" d="M 27.984375 122.042969 C 27.984375 122.34375 27.941406 122.613281 27.851562 122.859375 C 27.765625 123.105469 27.640625 123.316406 27.472656 123.488281 C 27.3125 123.664062 27.113281 123.800781 26.875 123.890625 C 26.644531 123.984375 26.378906 124.03125 26.082031 124.03125 C 25.761719 124.03125 25.488281 123.984375 25.246094 123.890625 C 25.015625 123.789062 24.820312 123.652344 24.660156 123.476562 C 24.5 123.300781 24.382812 123.085938 24.304688 122.847656 C 24.222656 122.601562 24.183594 122.335938 24.183594 122.042969 C 24.183594 121.746094 24.222656 121.476562 24.304688 121.238281 C 24.390625 120.996094 24.511719 120.789062 24.671875 120.621094 C 24.839844 120.453125 25.035156 120.324219 25.269531 120.226562 C 25.507812 120.136719 25.78125 120.085938 26.082031 120.085938 C 26.386719 120.085938 26.660156 120.136719 26.898438 120.226562 C 27.136719 120.324219 27.335938 120.457031 27.496094 120.628906 C 27.652344 120.800781 27.773438 121 27.851562 121.238281 C 27.941406 121.476562 27.984375 121.746094 27.984375 122.042969 Z M 27.453125 122.042969 C 27.453125 121.8125 27.421875 121.601562 27.363281 121.414062 C 27.304688 121.226562 27.21875 121.066406 27.105469 120.933594 C 26.988281 120.800781 26.84375 120.691406 26.667969 120.621094 C 26.5 120.550781 26.304688 120.511719 26.082031 120.511719 C 25.859375 120.511719 25.660156 120.550781 25.488281 120.621094 C 25.3125 120.691406 25.167969 120.800781 25.050781 120.933594 C 24.945312 121.066406 24.859375 121.226562 24.800781 121.414062 C 24.742188 121.601562 24.714844 121.8125 24.714844 122.042969 C 24.714844 122.277344 24.742188 122.488281 24.800781 122.683594 C 24.859375 122.875 24.945312 123.039062 25.0625 123.175781 C 25.175781 123.3125 25.316406 123.421875 25.488281 123.5 C 25.660156 123.574219 25.859375 123.609375 26.082031 123.609375 C 26.324219 123.609375 26.527344 123.574219 26.703125 123.5 C 26.875 123.421875 27.015625 123.3125 27.125 123.175781 C 27.234375 123.03125 27.3125 122.863281 27.363281 122.675781 C 27.421875 122.476562 27.453125 122.269531 27.453125 122.042969 Z M 27.453125 122.042969 "/>
<path style=" stroke:none;fill-rule:nonzero;fill:rgb(0%,0%,47.058824%);fill-opacity:1;" d="M 175.878906 137.71875 C 175.878906 138.015625 175.832031 138.289062 175.738281 138.53125 C 175.652344 138.78125 175.523438 138.988281 175.359375 139.164062 C 175.191406 139.335938 174.988281 139.472656 174.75 139.566406 C 174.511719 139.65625 174.238281 139.707031 173.9375 139.707031 C 173.617188 139.707031 173.339844 139.65625 173.101562 139.566406 C 172.863281 139.464844 172.65625 139.324219 172.492188 139.152344 C 172.332031 138.972656 172.210938 138.761719 172.132812 138.523438 C 172.050781 138.277344 172.015625 138.007812 172.015625 137.71875 C 172.015625 137.421875 172.050781 137.152344 172.132812 136.914062 C 172.222656 136.667969 172.347656 136.460938 172.515625 136.292969 C 172.679688 136.128906 172.882812 135.996094 173.121094 135.902344 C 173.359375 135.808594 173.636719 135.761719 173.945312 135.761719 C 174.257812 135.761719 174.53125 135.808594 174.773438 135.902344 C 175.011719 135.996094 175.207031 136.128906 175.367188 136.304688 C 175.535156 136.472656 175.664062 136.675781 175.75 136.914062 C 175.835938 137.152344 175.878906 137.421875 175.878906 137.71875 Z M 175.066406 137.71875 C 175.066406 137.515625 175.039062 137.335938 174.988281 137.175781 C 174.9375 137.015625 174.863281 136.878906 174.773438 136.761719 C 174.675781 136.648438 174.558594 136.554688 174.425781 136.488281 C 174.285156 136.425781 174.125 136.390625 173.945312 136.390625 C 173.757812 136.390625 173.589844 136.425781 173.449219 136.488281 C 173.308594 136.554688 173.191406 136.648438 173.101562 136.761719 C 173.003906 136.878906 172.933594 137.015625 172.882812 137.175781 C 172.839844 137.335938 172.816406 137.515625 172.816406 137.71875 C 172.816406 137.921875 172.84375 138.105469 172.894531 138.273438 C 172.941406 138.433594 173.015625 138.574219 173.109375 138.695312 C 173.203125 138.8125 173.320312 138.90625 173.457031 138.976562 C 173.59375 139.042969 173.753906 139.074219 173.9375 139.074219 C 174.132812 139.074219 174.296875 139.042969 174.433594 138.976562 C 174.578125 138.90625 174.699219 138.8125 174.792969 138.695312 C 174.886719 138.574219 174.957031 138.429688 175 138.261719 C 175.042969 138.09375 175.066406 137.914062 175.066406 137.71875 Z M 175.066406 137.71875 "/>
<path style=" stroke:none;fill-rule:nonzero;fill:rgb(0%,0%,0%);fill-opacity:1;" d="M 53.851562 167.726562 C 53.851562 168.027344 53.808594 168.300781 53.722656 168.542969 C 53.636719 168.789062 53.507812 169 53.34375 169.175781 C 53.183594 169.347656 52.984375 169.484375 52.746094 169.574219 C 52.511719 169.667969 52.25 169.71875 51.953125 169.71875 C 51.632812 169.71875 51.355469 169.667969 51.117188 169.574219 C 50.882812 169.476562 50.6875 169.335938 50.53125 169.164062 C 50.371094 168.984375 50.25 168.773438 50.171875 168.53125 C 50.089844 168.289062 50.054688 168.019531 50.054688 167.726562 C 50.054688 167.433594 50.089844 167.164062 50.171875 166.925781 C 50.257812 166.679688 50.382812 166.472656 50.542969 166.304688 C 50.707031 166.136719 50.90625 166.007812 51.140625 165.914062 C 51.378906 165.820312 51.648438 165.773438 51.953125 165.773438 C 52.257812 165.773438 52.527344 165.820312 52.765625 165.914062 C 53.007812 166.007812 53.203125 166.140625 53.363281 166.316406 C 53.523438 166.484375 53.640625 166.683594 53.722656 166.925781 C 53.808594 167.164062 53.851562 167.433594 53.851562 167.726562 Z M 53.320312 167.726562 C 53.320312 167.496094 53.289062 167.289062 53.234375 167.097656 C 53.175781 166.910156 53.085938 166.75 52.972656 166.621094 C 52.855469 166.484375 52.710938 166.378906 52.539062 166.304688 C 52.371094 166.234375 52.175781 166.195312 51.953125 166.195312 C 51.726562 166.195312 51.53125 166.234375 51.355469 166.304688 C 51.183594 166.378906 51.035156 166.484375 50.921875 166.621094 C 50.8125 166.75 50.730469 166.910156 50.671875 167.097656 C 50.613281 167.289062 50.585938 167.496094 50.585938 167.726562 C 50.585938 167.960938 50.613281 168.175781 50.671875 168.371094 C 50.730469 168.558594 50.816406 168.722656 50.933594 168.859375 C 51.046875 168.996094 51.1875 169.105469 51.355469 169.183594 C 51.53125 169.257812 51.726562 169.292969 51.953125 169.292969 C 52.191406 169.292969 52.398438 169.257812 52.570312 169.183594 C 52.746094 169.105469 52.886719 168.996094 52.996094 168.859375 C 53.105469 168.714844 53.183594 168.550781 53.234375 168.359375 C 53.289062 168.164062 53.320312 167.953125 53.320312 167.726562 Z M 53.320312 167.726562 "/>
<path style=" stroke:none;fill-rule:nonzero;fill:rgb(0%,0%,47.058824%);fill-opacity:1;" d="M 158.125 168.011719 C 158.125 168.3125 158.074219 168.585938 157.984375 168.828125 C 157.898438 169.074219 157.769531 169.285156 157.605469 169.460938 C 157.433594 169.632812 157.234375 169.769531 156.996094 169.863281 C 156.757812 169.953125 156.484375 170.003906 156.179688 170.003906 C 155.859375 170.003906 155.585938 169.953125 155.34375 169.863281 C 155.105469 169.761719 154.902344 169.621094 154.738281 169.449219 C 154.578125 169.269531 154.457031 169.058594 154.378906 168.816406 C 154.296875 168.574219 154.261719 168.304688 154.261719 168.011719 C 154.261719 167.71875 154.296875 167.449219 154.378906 167.210938 C 154.464844 166.964844 154.589844 166.757812 154.757812 166.589844 C 154.925781 166.425781 155.128906 166.292969 155.367188 166.199219 C 155.605469 166.105469 155.878906 166.058594 156.191406 166.058594 C 156.5 166.058594 156.777344 166.105469 157.015625 166.199219 C 157.257812 166.292969 157.453125 166.425781 157.613281 166.601562 C 157.78125 166.769531 157.90625 166.96875 157.996094 167.210938 C 158.082031 167.449219 158.125 167.71875 158.125 168.011719 Z M 157.3125 168.011719 C 157.3125 167.8125 157.285156 167.628906 157.234375 167.46875 C 157.183594 167.3125 157.109375 167.175781 157.015625 167.058594 C 156.921875 166.941406 156.804688 166.851562 156.671875 166.785156 C 156.53125 166.71875 156.371094 166.6875 156.191406 166.6875 C 156.003906 166.6875 155.835938 166.71875 155.691406 166.785156 C 155.554688 166.851562 155.4375 166.941406 155.34375 167.058594 C 155.25 167.175781 155.175781 167.3125 155.128906 167.46875 C 155.085938 167.628906 155.0625 167.8125 155.0625 168.011719 C 155.0625 168.21875 155.085938 168.402344 155.140625 168.566406 C 155.1875 168.726562 155.261719 168.871094 155.355469 168.992188 C 155.449219 169.109375 155.566406 169.203125 155.703125 169.273438 C 155.839844 169.339844 156 169.371094 156.179688 169.371094 C 156.375 169.371094 156.542969 169.339844 156.679688 169.273438 C 156.824219 169.203125 156.945312 169.109375 157.039062 168.992188 C 157.132812 168.871094 157.203125 168.726562 157.246094 168.558594 C 157.289062 168.390625 157.3125 168.210938 157.3125 168.011719 Z M 157.3125 168.011719 "/>
<path style=" stroke:none;fill-rule:nonzero;fill:rgb(0%,0%,47.058824%);fill-opacity:1;" d="M 105.816406 168.011719 C 105.816406 168.3125 105.765625 168.585938 105.675781 168.828125 C 105.589844 169.074219 105.460938 169.285156 105.296875 169.460938 C 105.128906 169.632812 104.925781 169.769531 104.6875 169.863281 C 104.449219 169.953125 104.175781 170.003906 103.875 170.003906 C 103.554688 170.003906 103.277344 169.953125 103.039062 169.863281 C 102.796875 169.761719 102.59375 169.621094 102.429688 169.449219 C 102.269531 169.269531 102.148438 169.058594 102.070312 168.816406 C 101.988281 168.574219 101.953125 168.304688 101.953125 168.011719 C 101.953125 167.71875 101.988281 167.449219 102.070312 167.210938 C 102.15625 166.964844 102.28125 166.757812 102.449219 166.589844 C 102.617188 166.425781 102.820312 166.292969 103.058594 166.199219 C 103.296875 166.105469 103.570312 166.058594 103.882812 166.058594 C 104.195312 166.058594 104.46875 166.105469 104.710938 166.199219 C 104.949219 166.292969 105.144531 166.425781 105.304688 166.601562 C 105.472656 166.769531 105.597656 166.96875 105.6875 167.210938 C 105.773438 167.449219 105.816406 167.71875 105.816406 168.011719 Z M 105.003906 168.011719 C 105.003906 167.8125 104.976562 167.628906 104.925781 167.46875 C 104.875 167.3125 104.800781 167.175781 104.710938 167.058594 C 104.613281 166.941406 104.496094 166.851562 104.363281 166.785156 C 104.222656 166.71875 104.0625 166.6875 103.882812 166.6875 C 103.695312 166.6875 103.527344 166.71875 103.382812 166.785156 C 103.246094 166.851562 103.128906 166.941406 103.039062 167.058594 C 102.941406 167.175781 102.867188 167.3125 102.820312 167.46875 C 102.777344 167.628906 102.753906 167.8125 102.753906 168.011719 C 102.753906 168.21875 102.78125 168.402344 102.832031 168.566406 C 102.878906 168.726562 102.953125 168.871094 103.046875 168.992188 C 103.140625 169.109375 103.257812 169.203125 103.394531 169.273438 C 103.53125 169.339844 103.691406 169.371094 103.875 169.371094 C 104.070312 169.371094 104.234375 169.339844 104.371094 169.273438 C 104.515625 169.203125 104.636719 169.109375 104.730469 168.992188 C 104.824219 168.871094 104.894531 168.726562 104.9375 168.558594 C 104.980469 168.390625 105.003906 168.210938 105.003906 168.011719 Z M 105.003906 168.011719 "/>
<path style=" stroke:none;fill-rule:nonzero;fill:rgb(0%,0%,0%);fill-opacity:1;" d="M 97.378906 182.925781 C 97.378906 183.226562 97.335938 183.496094 97.25 183.742188 C 97.160156 183.988281 97.035156 184.199219 96.867188 184.371094 C 96.707031 184.546875 96.511719 184.683594 96.269531 184.773438 C 96.039062 184.867188 95.773438 184.914062 95.480469 184.914062 C 95.160156 184.914062 94.882812 184.867188 94.644531 184.773438 C 94.410156 184.675781 94.214844 184.535156 94.058594 184.363281 C 93.898438 184.183594 93.777344 183.96875 93.699219 183.730469 C 93.617188 183.488281 93.578125 183.21875 93.578125 182.925781 C 93.578125 182.628906 93.617188 182.363281 93.699219 182.121094 C 93.785156 181.878906 93.90625 181.671875 94.066406 181.503906 C 94.234375 181.335938 94.429688 181.207031 94.664062 181.113281 C 94.902344 181.019531 95.175781 180.96875 95.480469 180.96875 C 95.78125 180.96875 96.054688 181.019531 96.292969 181.113281 C 96.53125 181.207031 96.730469 181.339844 96.890625 181.511719 C 97.046875 181.683594 97.167969 181.882812 97.25 182.121094 C 97.335938 182.363281 97.378906 182.628906 97.378906 182.925781 Z M 96.847656 182.925781 C 96.847656 182.695312 96.816406 182.488281 96.761719 182.296875 C 96.699219 182.109375 96.613281 181.949219 96.5 181.816406 C 96.382812 181.683594 96.238281 181.574219 96.066406 181.503906 C 95.898438 181.433594 95.703125 181.394531 95.480469 181.394531 C 95.253906 181.394531 95.054688 181.433594 94.882812 181.503906 C 94.707031 181.574219 94.5625 181.683594 94.449219 181.816406 C 94.339844 181.949219 94.253906 182.109375 94.199219 182.296875 C 94.136719 182.488281 94.109375 182.695312 94.109375 182.925781 C 94.109375 183.160156 94.136719 183.371094 94.199219 183.566406 C 94.253906 183.757812 94.34375 183.921875 94.457031 184.058594 C 94.574219 184.195312 94.714844 184.304688 94.882812 184.382812 C 95.054688 184.457031 95.253906 184.492188 95.480469 184.492188 C 95.71875 184.492188 95.925781 184.457031 96.097656 184.382812 C 96.269531 184.304688 96.414062 184.195312 96.519531 184.058594 C 96.628906 183.914062 96.707031 183.746094 96.761719 183.558594 C 96.816406 183.363281 96.847656 183.152344 96.847656 182.925781 Z M 96.847656 182.925781 "/>
<path style=" stroke:none;fill-rule:nonzero;fill:rgb(0%,0%,0%);fill-opacity:1;" d="M 79.34375 213.128906 C 79.34375 213.425781 79.296875 213.699219 79.210938 213.941406 C 79.125 214.191406 78.996094 214.398438 78.832031 214.574219 C 78.671875 214.746094 78.472656 214.882812 78.234375 214.976562 C 78 215.066406 77.738281 215.117188 77.441406 215.117188 C 77.121094 215.117188 76.84375 215.066406 76.605469 214.976562 C 76.371094 214.875 76.175781 214.738281 76.019531 214.5625 C 75.859375 214.382812 75.742188 214.171875 75.660156 213.933594 C 75.582031 213.6875 75.542969 213.417969 75.542969 213.128906 C 75.542969 212.832031 75.582031 212.5625 75.660156 212.324219 C 75.75 212.078125 75.871094 211.871094 76.03125 211.703125 C 76.195312 211.539062 76.394531 211.40625 76.628906 211.3125 C 76.867188 211.21875 77.136719 211.171875 77.441406 211.171875 C 77.746094 211.171875 78.015625 211.21875 78.257812 211.3125 C 78.496094 211.40625 78.691406 211.539062 78.851562 211.714844 C 79.011719 211.882812 79.128906 212.085938 79.210938 212.324219 C 79.296875 212.5625 79.34375 212.832031 79.34375 213.128906 Z M 78.808594 213.128906 C 78.808594 212.898438 78.78125 212.6875 78.722656 212.496094 C 78.664062 212.308594 78.578125 212.148438 78.460938 212.019531 C 78.347656 211.882812 78.203125 211.777344 78.027344 211.703125 C 77.859375 211.632812 77.664062 211.59375 77.441406 211.59375 C 77.21875 211.59375 77.019531 211.632812 76.84375 211.703125 C 76.671875 211.777344 76.523438 211.882812 76.410156 212.019531 C 76.300781 212.148438 76.21875 212.308594 76.160156 212.496094 C 76.101562 212.6875 76.074219 212.898438 76.074219 213.128906 C 76.074219 213.363281 76.101562 213.574219 76.160156 213.769531 C 76.21875 213.960938 76.304688 214.121094 76.421875 214.257812 C 76.535156 214.398438 76.675781 214.503906 76.84375 214.585938 C 77.019531 214.65625 77.21875 214.691406 77.441406 214.691406 C 77.679688 214.691406 77.886719 214.65625 78.0625 214.585938 C 78.234375 214.503906 78.375 214.398438 78.484375 214.257812 C 78.59375 214.113281 78.671875 213.949219 78.722656 213.757812 C 78.78125 213.5625 78.808594 213.351562 78.808594 213.128906 Z M 78.808594 213.128906 "/>
<path style=" stroke:none;fill-rule:nonzero;fill:rgb(0%,0%,0%);fill-opacity:1;" d="M 44.78125 212.84375 C 44.78125 213.140625 44.738281 213.414062 44.652344 213.65625 C 44.566406 213.90625 44.4375 214.113281 44.273438 214.289062 C 44.113281 214.460938 43.914062 214.597656 43.675781 214.691406 C 43.441406 214.78125 43.179688 214.832031 42.882812 214.832031 C 42.5625 214.832031 42.285156 214.78125 42.046875 214.691406 C 41.8125 214.589844 41.617188 214.449219 41.460938 214.277344 C 41.300781 214.097656 41.179688 213.886719 41.101562 213.648438 C 41.019531 213.402344 40.984375 213.132812 40.984375 212.84375 C 40.984375 212.546875 41.019531 212.277344 41.101562 212.039062 C 41.1875 211.792969 41.3125 211.585938 41.472656 211.417969 C 41.636719 211.253906 41.835938 211.121094 42.070312 211.027344 C 42.308594 210.933594 42.578125 210.886719 42.882812 210.886719 C 43.1875 210.886719 43.457031 210.933594 43.695312 211.027344 C 43.9375 211.121094 44.132812 211.253906 44.292969 211.429688 C 44.453125 211.597656 44.570312 211.800781 44.652344 212.039062 C 44.738281 212.277344 44.78125 212.546875 44.78125 212.84375 Z M 44.25 212.84375 C 44.25 212.613281 44.222656 212.402344 44.164062 212.210938 C 44.105469 212.023438 44.015625 211.863281 43.902344 211.734375 C 43.785156 211.597656 43.644531 211.492188 43.46875 211.417969 C 43.300781 211.347656 43.105469 211.308594 42.882812 211.308594 C 42.65625 211.308594 42.460938 211.347656 42.285156 211.417969 C 42.113281 211.492188 41.964844 211.597656 41.851562 211.734375 C 41.742188 211.863281 41.660156 212.023438 41.601562 212.210938 C 41.542969 212.402344 41.515625 212.613281 41.515625 212.84375 C 41.515625 213.074219 41.542969 213.289062 41.601562 213.484375 C 41.660156 213.675781 41.746094 213.835938 41.863281 213.972656 C 41.976562 214.113281 42.117188 214.21875 42.285156 214.300781 C 42.460938 214.371094 42.65625 214.40625 42.882812 214.40625 C 43.121094 214.40625 43.328125 214.371094 43.5 214.300781 C 43.675781 214.21875 43.816406 214.113281 43.925781 213.972656 C 44.035156 213.828125 44.113281 213.664062 44.164062 213.472656 C 44.222656 213.277344 44.25 213.066406 44.25 212.84375 Z M 44.25 212.84375 "/>
<path style=" stroke:none;fill-rule:nonzero;fill:rgb(0%,0%,0%);fill-opacity:1;" d="M 19.015625 167.726562 C 19.015625 168.027344 18.96875 168.300781 18.882812 168.542969 C 18.796875 168.789062 18.667969 169 18.503906 169.175781 C 18.34375 169.347656 18.144531 169.484375 17.90625 169.574219 C 17.671875 169.667969 17.410156 169.71875 17.113281 169.71875 C 16.792969 169.71875 16.515625 169.667969 16.277344 169.574219 C 16.042969 169.476562 15.847656 169.335938 15.691406 169.164062 C 15.53125 168.984375 15.414062 168.773438 15.332031 168.53125 C 15.253906 168.289062 15.214844 168.019531 15.214844 167.726562 C 15.214844 167.433594 15.253906 167.164062 15.332031 166.925781 C 15.421875 166.679688 15.542969 166.472656 15.703125 166.304688 C 15.867188 166.136719 16.066406 166.007812 16.300781 165.914062 C 16.539062 165.820312 16.808594 165.773438 17.113281 165.773438 C 17.417969 165.773438 17.6875 165.820312 17.929688 165.914062 C 18.167969 166.007812 18.363281 166.140625 18.523438 166.316406 C 18.683594 166.484375 18.800781 166.683594 18.882812 166.925781 C 18.96875 167.164062 19.015625 167.433594 19.015625 167.726562 Z M 18.480469 167.726562 C 18.480469 167.496094 18.453125 167.289062 18.394531 167.097656 C 18.335938 166.910156 18.25 166.75 18.132812 166.621094 C 18.019531 166.484375 17.875 166.378906 17.699219 166.304688 C 17.53125 166.234375 17.335938 166.195312 17.113281 166.195312 C 16.890625 166.195312 16.691406 166.234375 16.515625 166.304688 C 16.34375 166.378906 16.195312 166.484375 16.082031 166.621094 C 15.972656 166.75 15.890625 166.910156 15.832031 167.097656 C 15.773438 167.289062 15.746094 167.496094 15.746094 167.726562 C 15.746094 167.960938 15.773438 168.175781 15.832031 168.371094 C 15.890625 168.558594 15.976562 168.722656 16.09375 168.859375 C 16.207031 168.996094 16.347656 169.105469 16.515625 169.183594 C 16.691406 169.257812 16.890625 169.292969 17.113281 169.292969 C 17.351562 169.292969 17.558594 169.257812 17.734375 169.183594 C 17.90625 169.105469 18.046875 168.996094 18.15625 168.859375 C 18.265625 168.714844 18.34375 168.550781 18.394531 168.359375 C 18.453125 168.164062 18.480469 167.953125 18.480469 167.726562 Z M 18.480469 167.726562 "/>
<path style=" stroke:none;fill-rule:nonzero;fill:rgb(0%,0%,0%);fill-opacity:1;" d="M 52.582031 43.832031 C 52.367188 43.832031 52.171875 43.871094 52.007812 43.941406 C 51.839844 44.011719 51.699219 44.121094 51.582031 44.253906 C 51.476562 44.386719 51.390625 44.546875 51.335938 44.734375 C 51.273438 44.925781 51.246094 45.132812 51.246094 45.363281 C 51.246094 45.597656 51.273438 45.808594 51.335938 46.003906 C 51.398438 46.195312 51.488281 46.359375 51.605469 46.496094 C 51.71875 46.632812 51.859375 46.742188 52.027344 46.820312 C 52.203125 46.894531 52.390625 46.929688 52.605469 46.929688 C 52.757812 46.929688 52.890625 46.914062 53.007812 46.875 C 53.128906 46.832031 53.238281 46.773438 53.34375 46.699219 C 53.441406 46.628906 53.53125 46.546875 53.601562 46.449219 C 53.679688 46.359375 53.75 46.25 53.808594 46.125 L 54.234375 46.34375 C 54.167969 46.488281 54.082031 46.621094 53.984375 46.746094 C 53.878906 46.871094 53.761719 46.976562 53.625 47.070312 C 53.484375 47.15625 53.332031 47.226562 53.15625 47.277344 C 52.984375 47.324219 52.792969 47.351562 52.582031 47.351562 C 52.269531 47.351562 52 47.304688 51.769531 47.210938 C 51.535156 47.113281 51.339844 46.972656 51.183594 46.800781 C 51.03125 46.621094 50.914062 46.40625 50.835938 46.167969 C 50.753906 45.925781 50.714844 45.65625 50.714844 45.363281 C 50.714844 45.066406 50.753906 44.800781 50.835938 44.558594 C 50.921875 44.316406 51.042969 44.109375 51.203125 43.941406 C 51.359375 43.773438 51.554688 43.644531 51.789062 43.550781 C 52.019531 43.457031 52.285156 43.40625 52.582031 43.40625 C 52.988281 43.40625 53.324219 43.488281 53.59375 43.648438 C 53.867188 43.808594 54.070312 44.046875 54.199219 44.363281 L 53.710938 44.527344 C 53.671875 44.433594 53.625 44.347656 53.558594 44.265625 C 53.5 44.179688 53.421875 44.109375 53.332031 44.050781 C 53.238281 43.984375 53.128906 43.933594 53.007812 43.898438 C 52.882812 43.851562 52.738281 43.832031 52.582031 43.832031 Z M 52.582031 43.832031 "/>
<path style=" stroke:none;fill-rule:nonzero;fill:rgb(0%,0%,0%);fill-opacity:1;" d="M 54.992188 47.300781 L 54.992188 43.265625 L 55.480469 43.265625 L 55.480469 47.300781 Z M 54.992188 47.300781 "/>
<path style=" stroke:none;fill-rule:nonzero;fill:rgb(0%,0%,0%);fill-opacity:1;" d="M 56.0625 42.835938 L 58.386719 42.835938 L 58.386719 43.300781 L 56.0625 43.300781 "/>
<path style="fill:none;stroke-width:0.0333333;stroke-linecap:butt;stroke-linejoin:miter;stroke:rgb(0%,0%,0%);stroke-opacity:1;stroke-miterlimit:10;" d="M 4.544884 4.330473 L 5.011991 5.204428 " transform="matrix(17.369186,0,0,17.391304,17.113758,17.117113)"/>
<path style="fill:none;stroke-width:0.0333333;stroke-linecap:butt;stroke-linejoin:miter;stroke:rgb(0%,0%,0%);stroke-opacity:1;stroke-miterlimit:10;" d="M 4.44593 4.49893 L 4.82128 5.201059 " transform="matrix(17.369186,0,0,17.391304,17.113758,17.117113)"/>
<path style="fill:none;stroke-width:0.0333333;stroke-linecap:butt;stroke-linejoin:miter;stroke:rgb(0%,0%,0%);stroke-opacity:1;stroke-miterlimit:10;" d="M 4.540161 4.338784 L 5.049774 3.453823 " transform="matrix(17.369186,0,0,17.391304,17.113758,17.117113)"/>
<path style="fill:none;stroke-width:0.0333333;stroke-linecap:butt;stroke-linejoin:miter;stroke:rgb(0%,0%,0%);stroke-opacity:1;stroke-miterlimit:10;" d="M 4.554329 4.330248 L 3.871547 4.341704 " transform="matrix(17.369186,0,0,17.391304,17.113758,17.117113)"/>
<path style="fill:none;stroke-width:0.0333333;stroke-linecap:butt;stroke-linejoin:miter;stroke:rgb(0%,0%,0%);stroke-opacity:1;stroke-miterlimit:10;" d="M 5.016939 5.196118 L 4.507101 6.075463 " transform="matrix(17.369186,0,0,17.391304,17.113758,17.117113)"/>
<path style="fill:none;stroke-width:0.0333333;stroke-linecap:butt;stroke-linejoin:miter;stroke:rgb(0%,0%,0%);stroke-opacity:1;stroke-miterlimit:10;" d="M 5.002321 5.204428 L 5.857598 5.204428 " transform="matrix(17.369186,0,0,17.391304,17.113758,17.117113)"/>
<path style="fill:none;stroke-width:0.0333333;stroke-linecap:butt;stroke-linejoin:miter;stroke:rgb(0%,0%,0%);stroke-opacity:1;stroke-miterlimit:10;" d="M 5.03538 3.462358 L 6.037964 3.445512 " transform="matrix(17.369186,0,0,17.391304,17.113758,17.117113)"/>
<path style="fill:none;stroke-width:0.0333333;stroke-linecap:butt;stroke-linejoin:miter;stroke:rgb(0%,0%,0%);stroke-opacity:1;stroke-miterlimit:10;" d="M 5.045051 3.462133 L 4.523069 2.601655 " transform="matrix(17.369186,0,0,17.391304,17.113758,17.117113)"/>
<path style="fill:none;stroke-width:0.0333333;stroke-linecap:butt;stroke-linejoin:miter;stroke:rgb(0%,0%,0%);stroke-opacity:1;stroke-miterlimit:10;" d="M 5.137933 3.293901 L 4.718278 2.602104 " transform="matrix(17.369186,0,0,17.391304,17.113758,17.117113)"/>
<path style="fill:none;stroke-width:0.0333333;stroke-linecap:butt;stroke-linejoin:miter;stroke:rgb(0%,0%,0%);stroke-opacity:1;stroke-miterlimit:10;" d="M 3.436374 4.528354 L 3.011772 5.204428 " transform="matrix(17.369186,0,0,17.391304,17.113758,17.117113)"/>
<path style="fill:none;stroke-width:0.0333333;stroke-linecap:butt;stroke-linejoin:miter;stroke:rgb(0%,0%,0%);stroke-opacity:1;stroke-miterlimit:10;" d="M 3.577609 4.61685 L 3.207206 5.20645 " transform="matrix(17.369186,0,0,17.391304,17.113758,17.117113)"/>
<path style="fill:none;stroke-width:0.0333333;stroke-linecap:butt;stroke-linejoin:miter;stroke:rgb(0%,0%,0%);stroke-opacity:1;stroke-miterlimit:10;" d="M 4.521495 6.067153 L 3.528356 6.067153 " transform="matrix(17.369186,0,0,17.391304,17.113758,17.117113)"/>
<path style="fill:none;stroke-width:0.0333333;stroke-linecap:butt;stroke-linejoin:miter;stroke:rgb(0%,0%,0%);stroke-opacity:1;stroke-miterlimit:10;" d="M 4.425464 5.900493 L 3.622588 5.900493 " transform="matrix(17.369186,0,0,17.391304,17.113758,17.117113)"/>
<path style="fill:none;stroke-width:0.06;stroke-linecap:butt;stroke-linejoin:miter;stroke:rgb(0%,0%,47.058824%);stroke-opacity:1;stroke-miterlimit:10;" d="M 6.482133 5.957768 L 6.448848 5.977534 M 6.430182 5.831987 L 6.363388 5.871743 M 6.378006 5.705981 L 6.277703 5.765502 M 6.326055 5.5802 L 6.192242 5.659711 M 6.273879 5.454418 L 6.106557 5.553696 M 6.221704 5.328637 L 6.021097 5.44768 " transform="matrix(17.369186,0,0,17.391304,17.113758,17.117113)"/>
<path style="fill:none;stroke-width:0.0333333;stroke-linecap:butt;stroke-linejoin:miter;stroke:rgb(0%,0%,0%);stroke-opacity:1;stroke-miterlimit:10;" d="M 6.024021 3.453823 L 6.534308 2.61019 " transform="matrix(17.369186,0,0,17.391304,17.113758,17.117113)"/>
<path style="fill:none;stroke-width:0.0333333;stroke-linecap:butt;stroke-linejoin:miter;stroke:rgb(0%,0%,0%);stroke-opacity:1;stroke-miterlimit:10;" d="M 5.929115 3.28851 L 6.341798 2.606596 " transform="matrix(17.369186,0,0,17.391304,17.113758,17.117113)"/>
<path style="fill:none;stroke-width:0.0333333;stroke-linecap:butt;stroke-linejoin:miter;stroke:rgb(0%,0%,0%);stroke-opacity:1;stroke-miterlimit:10;" d="M 4.523069 2.61895 L 5.066641 1.728149 " transform="matrix(17.369186,0,0,17.391304,17.113758,17.117113)"/>
<path style="fill:none;stroke-width:0.0333333;stroke-linecap:butt;stroke-linejoin:miter;stroke:rgb(0%,0%,0%);stroke-opacity:1;stroke-miterlimit:10;" d="M 3.020768 5.204653 L 1.995469 5.170961 " transform="matrix(17.369186,0,0,17.391304,17.113758,17.117113)"/>
<path style="fill:none;stroke-width:0.0333333;stroke-linecap:butt;stroke-linejoin:miter;stroke:rgb(0%,0%,0%);stroke-opacity:1;stroke-miterlimit:10;" d="M 3.533079 6.058842 L 3.040109 6.926957 " transform="matrix(17.369186,0,0,17.391304,17.113758,17.117113)"/>
<path style="fill:none;stroke-width:0.06;stroke-linecap:butt;stroke-linejoin:miter;stroke:rgb(0%,0%,47.058824%);stroke-opacity:1;stroke-miterlimit:10;" d="M 6.543079 6.069848 L 6.126123 6.736938 " transform="matrix(17.369186,0,0,17.391304,17.113758,17.117113)"/>
<path style="fill:none;stroke-width:0.06;stroke-linecap:butt;stroke-linejoin:miter;stroke:rgb(0%,0%,47.058824%);stroke-opacity:1;stroke-miterlimit:10;" d="M 6.518116 6.083998 L 7.541165 6.066928 " transform="matrix(17.369186,0,0,17.391304,17.113758,17.117113)"/>
<path style="fill:none;stroke-width:0.0333333;stroke-linecap:butt;stroke-linejoin:miter;stroke:rgb(0%,0%,0%);stroke-opacity:1;stroke-miterlimit:10;" d="M 6.539256 2.61895 L 6.046285 1.728373 " transform="matrix(17.369186,0,0,17.391304,17.113758,17.117113)"/>
<path style="fill:none;stroke-width:0.0333333;stroke-linecap:butt;stroke-linejoin:miter;stroke:rgb(0%,0%,0%);stroke-opacity:1;stroke-miterlimit:10;" d="M 6.524413 2.610414 L 7.369345 2.596489 " transform="matrix(17.369186,0,0,17.391304,17.113758,17.117113)"/>
<path style="fill:none;stroke-width:0.0333333;stroke-linecap:butt;stroke-linejoin:miter;stroke:rgb(0%,0%,0%);stroke-opacity:1;stroke-miterlimit:10;" d="M 5.066641 1.745219 L 4.669026 1.068022 " transform="matrix(17.369186,0,0,17.391304,17.113758,17.117113)"/>
<path style="fill:none;stroke-width:0.0333333;stroke-linecap:butt;stroke-linejoin:miter;stroke:rgb(0%,0%,0%);stroke-opacity:1;stroke-miterlimit:10;" d="M 2.010762 5.161977 L 1.533534 6.067153 " transform="matrix(17.369186,0,0,17.391304,17.113758,17.117113)"/>
<path style="fill:none;stroke-width:0.0333333;stroke-linecap:butt;stroke-linejoin:miter;stroke:rgb(0%,0%,0%);stroke-opacity:1;stroke-miterlimit:10;" d="M 2.109491 5.332006 L 1.722896 6.065131 " transform="matrix(17.369186,0,0,17.391304,17.113758,17.117113)"/>
<path style="fill:none;stroke-width:0.0333333;stroke-linecap:butt;stroke-linejoin:miter;stroke:rgb(0%,0%,0%);stroke-opacity:1;stroke-miterlimit:10;" d="M 3.040333 6.91101 L 3.41276 7.607524 " transform="matrix(17.369186,0,0,17.391304,17.113758,17.117113)"/>
<path style="fill:none;stroke-width:0.0333333;stroke-linecap:butt;stroke-linejoin:miter;stroke:rgb(0%,0%,0%);stroke-opacity:1;stroke-miterlimit:10;" d="M 3.044606 6.919096 L 1.996144 6.919096 " transform="matrix(17.369186,0,0,17.391304,17.113758,17.117113)"/>
<path style="fill:none;stroke-width:0.0333333;stroke-linecap:butt;stroke-linejoin:miter;stroke:rgb(0%,0%,0%);stroke-opacity:1;stroke-miterlimit:10;" d="M 2.947677 6.752436 L 2.094198 6.752436 " transform="matrix(17.369186,0,0,17.391304,17.113758,17.117113)"/>
<path style="fill:none;stroke-width:0.06;stroke-linecap:butt;stroke-linejoin:miter;stroke:rgb(0%,0%,47.058824%);stroke-opacity:1;stroke-miterlimit:10;" d="M 6.117352 7.10395 L 6.526437 7.824272 " transform="matrix(17.369186,0,0,17.391304,17.113758,17.117113)"/>
<path style="fill:none;stroke-width:0.06;stroke-linecap:butt;stroke-linejoin:miter;stroke:rgb(0%,0%,47.058824%);stroke-opacity:1;stroke-miterlimit:10;" d="M 7.514852 6.052104 L 8.037734 6.950317 " transform="matrix(17.369186,0,0,17.391304,17.113758,17.117113)"/>
<path style="fill:none;stroke-width:0.06;stroke-linecap:butt;stroke-linejoin:miter;stroke:rgb(0%,0%,47.058824%);stroke-opacity:1;stroke-miterlimit:10;" d="M 7.60616 5.966752 L 7.572875 5.946762 M 7.688921 5.866127 L 7.622127 5.826371 M 7.771683 5.765727 L 7.671379 5.705981 M 7.854219 5.665327 L 7.720856 5.58559 M 7.936981 5.564926 L 7.770109 5.4652 M 8.019518 5.464301 L 7.819136 5.344584 " transform="matrix(17.369186,0,0,17.391304,17.113758,17.117113)"/>
<path style="fill:none;stroke-width:0.0333333;stroke-linecap:butt;stroke-linejoin:miter;stroke:rgb(0%,0%,0%);stroke-opacity:1;stroke-miterlimit:10;" d="M 6.04606 1.74477 L 6.44525 1.052075 " transform="matrix(17.369186,0,0,17.391304,17.113758,17.117113)"/>
<path style="fill:none;stroke-width:0.0333333;stroke-linecap:butt;stroke-linejoin:miter;stroke:rgb(0%,0%,0%);stroke-opacity:1;stroke-miterlimit:10;" d="M 7.630448 2.777299 L 7.924387 3.282221 " transform="matrix(17.369186,0,0,17.391304,17.113758,17.117113)"/>
<path style="fill:none;stroke-width:0.0333333;stroke-linecap:butt;stroke-linejoin:miter;stroke:rgb(0%,0%,0%);stroke-opacity:1;stroke-miterlimit:10;" d="M 4.662504 0.699887 L 4.945872 0.181489 " transform="matrix(17.369186,0,0,17.391304,17.113758,17.117113)"/>
<path style="fill:none;stroke-width:0.0333333;stroke-linecap:butt;stroke-linejoin:miter;stroke:rgb(0%,0%,0%);stroke-opacity:1;stroke-miterlimit:10;" d="M 1.542755 6.067377 L 0.67241 6.039301 " transform="matrix(17.369186,0,0,17.391304,17.113758,17.117113)"/>
<path style="fill:none;stroke-width:0.0333333;stroke-linecap:butt;stroke-linejoin:miter;stroke:rgb(0%,0%,0%);stroke-opacity:1;stroke-miterlimit:10;" d="M 3.056751 8.604116 L 3.038309 8.593559 M 3.10173 8.547289 L 3.065072 8.526176 M 3.146709 8.490463 L 3.09161 8.458569 M 3.191688 8.433412 L 3.118372 8.391186 M 3.236892 8.376586 L 3.14491 8.323578 M 3.281871 8.319536 L 3.171672 8.255971 M 3.32685 8.262709 L 3.19821 8.188588 M 3.371829 8.205659 L 3.224973 8.120981 M 3.417033 8.148832 L 3.25151 8.053373 M 3.462012 8.091782 L 3.278048 7.985991 M 3.506991 8.034955 L 3.30481 7.918383 " transform="matrix(17.369186,0,0,17.391304,17.113758,17.117113)"/>
<path style="fill:none;stroke-width:0.06;stroke-linecap:butt;stroke-linejoin:miter;stroke:rgb(0%,0%,47.058824%);stroke-opacity:1;stroke-miterlimit:10;" d="M 6.500799 7.808998 L 7.54139 7.826069 " transform="matrix(17.369186,0,0,17.391304,17.113758,17.117113)"/>
<path style=" stroke:none;fill-rule:nonzero;fill:rgb(0%,0%,47.058824%);fill-opacity:1;" d="M 130.324219 152.929688 L 118.78125 167.785156 L 121.398438 167.699219 L 123.128906 168.75 "/>
<path style=" stroke:none;fill-rule:nonzero;fill:rgb(0%,0%,47.058824%);fill-opacity:1;" d="M 156.574219 137.734375 L 171.261719 139.761719 L 171.261719 135.703125 "/>
<path style="fill:none;stroke-width:0.0333333;stroke-linecap:butt;stroke-linejoin:miter;stroke:rgb(0%,0%,0%);stroke-opacity:1;stroke-miterlimit:10;" d="M 3.021217 8.661166 L 2.158519 8.661166 " transform="matrix(17.369186,0,0,17.391304,17.113758,17.117113)"/>
<path style="fill:none;stroke-width:0.0333333;stroke-linecap:butt;stroke-linejoin:miter;stroke:rgb(0%,0%,0%);stroke-opacity:1;stroke-miterlimit:10;" d="M 3.006824 8.652856 L 3.516662 9.543432 " transform="matrix(17.369186,0,0,17.391304,17.113758,17.117113)"/>
<path style="fill:none;stroke-width:0.06;stroke-linecap:butt;stroke-linejoin:miter;stroke:rgb(0%,0%,47.058824%);stroke-opacity:1;stroke-miterlimit:10;" d="M 7.569952 7.946459 L 7.603686 7.927368 M 7.616055 8.067075 L 7.683524 8.028891 M 7.662159 8.187914 L 7.763587 8.13019 M 7.708487 8.308754 L 7.843649 8.231938 M 7.754591 8.429594 L 7.923712 8.333461 M 7.800694 8.550209 L 8.00355 8.434985 " transform="matrix(17.369186,0,0,17.391304,17.113758,17.117113)"/>
<path style="fill:none;stroke-width:0.06;stroke-linecap:butt;stroke-linejoin:miter;stroke:rgb(0%,0%,47.058824%);stroke-opacity:1;stroke-miterlimit:10;" d="M 6.028519 8.644096 L 5.153451 8.672397 " transform="matrix(17.369186,0,0,17.391304,17.113758,17.117113)"/>
<path style="fill:none;stroke-width:0.0333333;stroke-linecap:butt;stroke-linejoin:miter;stroke:rgb(0%,0%,0%);stroke-opacity:1;stroke-miterlimit:10;" d="M 1.902588 8.845571 L 1.512169 9.543207 " transform="matrix(17.369186,0,0,17.391304,17.113758,17.117113)"/>
<path style="fill:none;stroke-width:0.0333333;stroke-linecap:butt;stroke-linejoin:miter;stroke:rgb(0%,0%,0%);stroke-opacity:1;stroke-miterlimit:10;" d="M 3.516662 9.526811 L 3.006824 10.394926 " transform="matrix(17.369186,0,0,17.391304,17.113758,17.117113)"/>
<path style="fill:none;stroke-width:0.0333333;stroke-linecap:butt;stroke-linejoin:miter;stroke:rgb(0%,0%,0%);stroke-opacity:1;stroke-miterlimit:10;" d="M 3.582331 9.54478 L 3.582331 9.525239 M 3.652948 9.554438 L 3.652948 9.51558 M 3.723566 9.564096 L 3.723566 9.505698 M 3.794183 9.573979 L 3.794183 9.496039 M 3.8648 9.583637 L 3.8648 9.486381 M 3.935417 9.593295 L 3.935417 9.476723 M 4.006034 9.603178 L 4.006034 9.467065 M 4.076651 9.612836 L 4.076651 9.457182 M 4.147269 9.622495 L 4.147269 9.447524 M 4.217886 9.632153 L 4.217886 9.437866 M 4.288503 9.642036 L 4.288503 9.428207 M 4.35912 9.651694 L 4.35912 9.418325 " transform="matrix(17.369186,0,0,17.391304,17.113758,17.117113)"/>
<path style="fill:none;stroke-width:0.0333333;stroke-linecap:butt;stroke-linejoin:miter;stroke:rgb(0%,0%,0%);stroke-opacity:1;stroke-miterlimit:10;" d="M 1.512394 9.526811 L 1.994345 10.395375 " transform="matrix(17.369186,0,0,17.391304,17.113758,17.117113)"/>
<path style=" stroke:none;fill-rule:nonzero;fill:rgb(0%,0%,0%);fill-opacity:1;" d="M 43.457031 182.941406 L 24.632812 180.765625 L 25.921875 182.941406 L 25.921875 184.972656 "/>
<path style=" stroke:none;fill-rule:nonzero;fill:rgb(0%,0%,0%);fill-opacity:1;" d="M 69.425781 197.753906 L 73.960938 210.851562 L 77.554688 208.972656 "/>
<path style="fill:none;stroke-width:0.0333333;stroke-linecap:butt;stroke-linejoin:miter;stroke:rgb(0%,0%,0%);stroke-opacity:1;stroke-miterlimit:10;" d="M 1.944193 10.443666 L 1.96241 10.454448 M 1.898539 10.500717 L 1.935197 10.52183 M 1.853111 10.557543 L 1.90821 10.589438 M 1.807682 10.61437 L 1.881223 10.65727 M 1.762253 10.67142 L 1.85401 10.724653 M 1.716824 10.728246 L 1.826798 10.79226 M 1.671395 10.785297 L 1.79981 10.860092 M 1.625966 10.842123 L 1.772598 10.9277 M 1.580537 10.89895 L 1.745611 10.995082 M 1.535109 10.956 L 1.718398 11.06269 M 1.48968 11.013051 L 1.691411 11.130522 " transform="matrix(17.369186,0,0,17.391304,17.113758,17.117113)"/>
<path style="fill:none;stroke-width:0.0333333;stroke-linecap:butt;stroke-linejoin:miter;stroke:rgb(0%,0%,0%);stroke-opacity:1;stroke-miterlimit:10;" d="M 0.52128 9.543207 L 0.108147 8.844223 " transform="matrix(17.369186,0,0,17.391304,17.113758,17.117113)"/>
<path style="fill:none;stroke-width:0.0333333;stroke-linecap:butt;stroke-linejoin:miter;stroke:rgb(0%,0%,0%);stroke-opacity:1;stroke-miterlimit:10;" d="M 3.007049 5.196567 L 3.533304 6.075463 " transform="matrix(17.369186,0,0,17.391304,17.113758,17.117113)"/>
<path style="fill:none;stroke-width:0.0333333;stroke-linecap:butt;stroke-linejoin:miter;stroke:rgb(0%,0%,0%);stroke-opacity:1;stroke-miterlimit:10;" d="M 5.061693 1.736684 L 6.050783 1.736684 " transform="matrix(17.369186,0,0,17.391304,17.113758,17.117113)"/>
<path style="fill:none;stroke-width:0.0333333;stroke-linecap:butt;stroke-linejoin:miter;stroke:rgb(0%,0%,0%);stroke-opacity:1;stroke-miterlimit:10;" d="M 5.15525 1.903344 L 5.952504 1.903344 " transform="matrix(17.369186,0,0,17.391304,17.113758,17.117113)"/>
<path style="fill:none;stroke-width:0.0333333;stroke-linecap:butt;stroke-linejoin:miter;stroke:rgb(0%,0%,0%);stroke-opacity:1;stroke-miterlimit:10;" d="M 1.528811 6.058842 L 2.010537 6.927631 " transform="matrix(17.369186,0,0,17.391304,17.113758,17.117113)"/>
<path style="fill:none;stroke-width:0.06;stroke-linecap:butt;stroke-linejoin:miter;stroke:rgb(0%,0%,47.058824%);stroke-opacity:1;stroke-miterlimit:10;" d="M 8.037734 6.920444 L 7.514852 7.841342 " transform="matrix(17.369186,0,0,17.391304,17.113758,17.117113)"/>
<path style="fill:none;stroke-width:0.0333333;stroke-linecap:butt;stroke-linejoin:miter;stroke:rgb(0%,0%,0%);stroke-opacity:1;stroke-miterlimit:10;" d="M 3.021217 10.386616 L 1.979727 10.386616 " transform="matrix(17.369186,0,0,17.391304,17.113758,17.117113)"/>
</g>
</svg>
