<?xml version="1.0" encoding="UTF-8"?>
<svg xmlns="http://www.w3.org/2000/svg" xmlns:xlink="http://www.w3.org/1999/xlink" width="204.8pt" height="308pt" viewBox="0 0 204.8 308" version="1.1">
<g id="surface1652">
<path style=" stroke:none;fill-rule:nonzero;fill:rgb(0%,0%,0%);fill-opacity:1;" d="M 74.527344 9.558594 C 74.308594 9.558594 74.117188 9.597656 73.953125 9.667969 C 73.78125 9.738281 73.640625 9.847656 73.527344 9.980469 C 73.421875 10.113281 73.335938 10.273438 73.277344 10.460938 C 73.21875 10.648438 73.191406 10.859375 73.191406 11.089844 C 73.191406 11.324219 73.21875 11.535156 73.277344 11.730469 C 73.34375 11.921875 73.433594 12.082031 73.550781 12.21875 C 73.664062 12.355469 73.804688 12.464844 73.972656 12.542969 C 74.144531 12.617188 74.335938 12.652344 74.546875 12.652344 C 74.699219 12.652344 74.832031 12.636719 74.949219 12.597656 C 75.070312 12.554688 75.179688 12.5 75.285156 12.425781 C 75.386719 12.355469 75.472656 12.269531 75.542969 12.175781 C 75.625 12.082031 75.691406 11.972656 75.75 11.847656 L 76.171875 12.066406 C 76.109375 12.214844 76.023438 12.347656 75.925781 12.46875 C 75.820312 12.59375 75.703125 12.703125 75.566406 12.792969 C 75.429688 12.882812 75.273438 12.953125 75.101562 13 C 74.925781 13.050781 74.734375 13.078125 74.527344 13.078125 C 74.214844 13.078125 73.941406 13.027344 73.710938 12.933594 C 73.480469 12.835938 73.285156 12.695312 73.128906 12.523438 C 72.976562 12.34375 72.859375 12.132812 72.78125 11.894531 C 72.699219 11.648438 72.660156 11.378906 72.660156 11.089844 C 72.660156 10.792969 72.699219 10.523438 72.78125 10.285156 C 72.867188 10.042969 72.988281 9.835938 73.148438 9.667969 C 73.304688 9.5 73.5 9.371094 73.734375 9.277344 C 73.964844 9.183594 74.226562 9.132812 74.527344 9.132812 C 74.929688 9.132812 75.265625 9.214844 75.535156 9.375 C 75.808594 9.535156 76.011719 9.773438 76.140625 10.089844 L 75.652344 10.253906 C 75.613281 10.160156 75.566406 10.074219 75.5 9.992188 C 75.441406 9.90625 75.367188 9.835938 75.273438 9.773438 C 75.179688 9.710938 75.070312 9.660156 74.949219 9.625 C 74.824219 9.578125 74.683594 9.558594 74.527344 9.558594 Z M 74.527344 9.558594 "/>
<path style=" stroke:none;fill-rule:nonzero;fill:rgb(0%,0%,0%);fill-opacity:1;" d="M 77.410156 10.589844 C 77.464844 10.488281 77.523438 10.40625 77.582031 10.339844 C 77.648438 10.269531 77.714844 10.210938 77.789062 10.167969 C 77.867188 10.117188 77.949219 10.078125 78.035156 10.058594 C 78.128906 10.035156 78.234375 10.023438 78.351562 10.023438 C 78.539062 10.023438 78.691406 10.050781 78.808594 10.101562 C 78.929688 10.152344 79.023438 10.226562 79.089844 10.316406 C 79.160156 10.414062 79.210938 10.523438 79.242188 10.65625 C 79.265625 10.78125 79.285156 10.914062 79.285156 11.066406 L 79.285156 13.023438 L 78.785156 13.023438 L 78.785156 11.15625 C 78.785156 11.03125 78.777344 10.921875 78.761719 10.828125 C 78.746094 10.738281 78.71875 10.660156 78.675781 10.601562 C 78.632812 10.535156 78.570312 10.488281 78.492188 10.460938 C 78.410156 10.425781 78.3125 10.40625 78.1875 10.40625 C 78.070312 10.40625 77.964844 10.425781 77.875 10.46875 C 77.78125 10.515625 77.699219 10.578125 77.636719 10.65625 C 77.570312 10.726562 77.519531 10.816406 77.484375 10.925781 C 77.445312 11.035156 77.429688 11.15625 77.429688 11.285156 L 77.429688 13.023438 L 76.941406 13.023438 L 76.941406 8.992188 L 77.429688 8.992188 L 77.429688 10.035156 C 77.429688 10.101562 77.425781 10.164062 77.417969 10.21875 C 77.417969 10.28125 77.414062 10.335938 77.410156 10.382812 C 77.410156 10.433594 77.410156 10.476562 77.410156 10.515625 C 77.410156 10.550781 77.410156 10.578125 77.410156 10.589844 Z M 77.410156 10.589844 "/>
<path style=" stroke:none;fill-rule:nonzero;fill:rgb(0%,0%,0%);fill-opacity:1;" d="M 80.132812 9.460938 L 80.132812 8.992188 L 80.621094 8.992188 L 80.621094 9.460938 Z M 80.132812 13.023438 L 80.132812 10.078125 L 80.621094 10.078125 L 80.621094 13.023438 Z M 80.132812 13.023438 "/>
<path style=" stroke:none;fill-rule:nonzero;fill:rgb(0%,0%,0%);fill-opacity:1;" d="M 81.4375 13.023438 L 81.4375 10.761719 C 81.4375 10.707031 81.433594 10.644531 81.429688 10.578125 C 81.429688 10.515625 81.429688 10.453125 81.429688 10.394531 C 81.429688 10.335938 81.421875 10.28125 81.417969 10.230469 C 81.417969 10.175781 81.417969 10.121094 81.417969 10.078125 L 81.882812 10.078125 C 81.882812 10.121094 81.882812 10.175781 81.882812 10.230469 C 81.890625 10.28125 81.894531 10.335938 81.894531 10.394531 C 81.894531 10.445312 81.894531 10.5 81.894531 10.558594 C 81.898438 10.609375 81.90625 10.652344 81.90625 10.6875 L 81.917969 10.6875 C 81.941406 10.574219 81.976562 10.476562 82.015625 10.394531 C 82.058594 10.308594 82.101562 10.238281 82.15625 10.1875 C 82.210938 10.140625 82.277344 10.097656 82.351562 10.070312 C 82.421875 10.042969 82.507812 10.023438 82.609375 10.023438 C 82.644531 10.023438 82.679688 10.03125 82.71875 10.035156 C 82.753906 10.042969 82.785156 10.050781 82.804688 10.058594 L 82.804688 10.503906 C 82.773438 10.496094 82.738281 10.492188 82.695312 10.492188 C 82.652344 10.488281 82.601562 10.480469 82.542969 10.480469 C 82.4375 10.480469 82.339844 10.507812 82.261719 10.558594 C 82.183594 10.609375 82.117188 10.675781 82.066406 10.761719 C 82.015625 10.851562 81.980469 10.957031 81.960938 11.089844 C 81.9375 11.214844 81.925781 11.347656 81.925781 11.492188 L 81.925781 13.023438 Z M 81.4375 13.023438 "/>
<path style=" stroke:none;fill-rule:nonzero;fill:rgb(0%,0%,0%);fill-opacity:1;" d="M 84.101562 13.078125 C 83.800781 13.078125 83.578125 13 83.429688 12.847656 C 83.28125 12.691406 83.210938 12.472656 83.210938 12.195312 C 83.210938 12.007812 83.246094 11.855469 83.320312 11.730469 C 83.390625 11.601562 83.484375 11.5 83.601562 11.4375 C 83.722656 11.367188 83.863281 11.316406 84.011719 11.285156 C 84.164062 11.257812 84.320312 11.242188 84.480469 11.242188 L 85.128906 11.230469 L 85.128906 11.066406 C 85.128906 10.945312 85.113281 10.84375 85.085938 10.761719 C 85.066406 10.675781 85.027344 10.609375 84.976562 10.558594 C 84.925781 10.5 84.863281 10.460938 84.785156 10.4375 C 84.703125 10.417969 84.609375 10.40625 84.5 10.40625 C 84.40625 10.40625 84.320312 10.414062 84.242188 10.425781 C 84.167969 10.433594 84.101562 10.457031 84.046875 10.492188 C 83.996094 10.53125 83.953125 10.578125 83.917969 10.644531 C 83.878906 10.703125 83.855469 10.78125 83.851562 10.871094 L 83.339844 10.816406 C 83.355469 10.703125 83.386719 10.597656 83.4375 10.503906 C 83.488281 10.410156 83.5625 10.328125 83.65625 10.253906 C 83.746094 10.183594 83.863281 10.128906 84.003906 10.089844 C 84.144531 10.046875 84.316406 10.023438 84.511719 10.023438 C 84.878906 10.023438 85.15625 10.113281 85.347656 10.285156 C 85.535156 10.453125 85.628906 10.695312 85.628906 11.011719 L 85.628906 12.285156 C 85.628906 12.429688 85.644531 12.539062 85.683594 12.609375 C 85.71875 12.683594 85.792969 12.71875 85.898438 12.71875 C 85.925781 12.71875 85.953125 12.71875 85.976562 12.71875 C 86.003906 12.710938 86.03125 12.703125 86.0625 12.695312 L 86.0625 13 C 85.996094 13.023438 85.933594 13.035156 85.878906 13.042969 C 85.820312 13.050781 85.753906 13.054688 85.683594 13.054688 C 85.589844 13.054688 85.507812 13.042969 85.445312 13.023438 C 85.378906 12.996094 85.324219 12.953125 85.28125 12.902344 C 85.242188 12.855469 85.21875 12.792969 85.195312 12.71875 C 85.171875 12.648438 85.15625 12.5625 85.152344 12.457031 L 85.128906 12.457031 C 85.078125 12.550781 85.023438 12.640625 84.957031 12.71875 C 84.898438 12.792969 84.828125 12.855469 84.738281 12.914062 C 84.660156 12.964844 84.566406 13.003906 84.457031 13.03125 C 84.355469 13.058594 84.234375 13.078125 84.101562 13.078125 Z M 84.207031 12.707031 C 84.359375 12.707031 84.492188 12.679688 84.609375 12.621094 C 84.730469 12.5625 84.828125 12.488281 84.902344 12.402344 C 84.980469 12.316406 85.039062 12.222656 85.074219 12.121094 C 85.109375 12.011719 85.128906 11.910156 85.128906 11.816406 L 85.128906 11.566406 L 84.597656 11.578125 C 84.484375 11.585938 84.371094 11.597656 84.261719 11.609375 C 84.15625 11.625 84.058594 11.652344 83.96875 11.699219 C 83.890625 11.742188 83.824219 11.804688 83.773438 11.894531 C 83.730469 11.972656 83.710938 12.078125 83.710938 12.207031 C 83.710938 12.367188 83.753906 12.488281 83.839844 12.578125 C 83.925781 12.664062 84.050781 12.707031 84.207031 12.707031 Z M 84.207031 12.707031 "/>
<path style=" stroke:none;fill-rule:nonzero;fill:rgb(0%,0%,0%);fill-opacity:1;" d="M 86.566406 13.023438 L 86.566406 8.992188 L 87.054688 8.992188 L 87.054688 13.023438 Z M 86.566406 13.023438 "/>
<path style=" stroke:none;fill-rule:nonzero;fill:rgb(0%,0%,0%);fill-opacity:1;" d="M 36.621094 17.144531 C 36.621094 17.441406 36.578125 17.714844 36.492188 17.957031 C 36.402344 18.203125 36.277344 18.414062 36.109375 18.585938 C 35.953125 18.761719 35.753906 18.898438 35.515625 18.988281 C 35.28125 19.082031 35.019531 19.128906 34.722656 19.128906 C 34.402344 19.128906 34.128906 19.082031 33.890625 18.988281 C 33.65625 18.886719 33.460938 18.75 33.304688 18.578125 C 33.144531 18.398438 33.023438 18.183594 32.945312 17.945312 C 32.863281 17.703125 32.828125 17.433594 32.828125 17.144531 C 32.828125 16.847656 32.863281 16.578125 32.945312 16.339844 C 33.03125 16.09375 33.15625 15.890625 33.3125 15.71875 C 33.480469 15.554688 33.675781 15.425781 33.910156 15.328125 C 34.148438 15.238281 34.421875 15.1875 34.722656 15.1875 C 35.027344 15.1875 35.296875 15.238281 35.535156 15.328125 C 35.773438 15.425781 35.972656 15.558594 36.132812 15.730469 C 36.289062 15.898438 36.410156 16.101562 36.492188 16.339844 C 36.578125 16.578125 36.621094 16.847656 36.621094 17.144531 Z M 36.089844 17.144531 C 36.089844 16.914062 36.058594 16.703125 36.003906 16.511719 C 35.941406 16.324219 35.855469 16.164062 35.742188 16.035156 C 35.625 15.898438 35.480469 15.792969 35.308594 15.71875 C 35.140625 15.648438 34.945312 15.613281 34.722656 15.613281 C 34.5 15.613281 34.300781 15.648438 34.128906 15.71875 C 33.953125 15.792969 33.808594 15.898438 33.695312 16.035156 C 33.585938 16.164062 33.5 16.324219 33.445312 16.511719 C 33.386719 16.703125 33.359375 16.914062 33.359375 17.144531 C 33.359375 17.375 33.386719 17.589844 33.445312 17.785156 C 33.5 17.972656 33.589844 18.136719 33.703125 18.273438 C 33.820312 18.410156 33.960938 18.519531 34.128906 18.597656 C 34.300781 18.671875 34.5 18.707031 34.722656 18.707031 C 34.960938 18.707031 35.167969 18.671875 35.339844 18.597656 C 35.515625 18.519531 35.65625 18.410156 35.765625 18.273438 C 35.871094 18.128906 35.953125 17.960938 36.003906 17.773438 C 36.058594 17.578125 36.089844 17.367188 36.089844 17.144531 Z M 36.089844 17.144531 "/>
<path style=" stroke:none;fill-rule:nonzero;fill:rgb(0%,0%,0%);fill-opacity:1;" d="M 36.621094 46.933594 C 36.621094 47.230469 36.578125 47.503906 36.492188 47.746094 C 36.402344 47.996094 36.277344 48.203125 36.109375 48.378906 C 35.953125 48.550781 35.753906 48.6875 35.515625 48.777344 C 35.28125 48.871094 35.019531 48.921875 34.722656 48.921875 C 34.402344 48.921875 34.128906 48.871094 33.890625 48.777344 C 33.65625 48.679688 33.460938 48.539062 33.304688 48.367188 C 33.144531 48.1875 33.023438 47.976562 32.945312 47.738281 C 32.863281 47.492188 32.828125 47.222656 32.828125 46.933594 C 32.828125 46.636719 32.863281 46.367188 32.945312 46.128906 C 33.03125 45.886719 33.15625 45.679688 33.3125 45.511719 C 33.480469 45.34375 33.675781 45.214844 33.910156 45.121094 C 34.148438 45.027344 34.421875 44.980469 34.722656 44.980469 C 35.027344 44.980469 35.296875 45.027344 35.535156 45.121094 C 35.773438 45.214844 35.972656 45.347656 36.132812 45.523438 C 36.289062 45.691406 36.410156 45.890625 36.492188 46.128906 C 36.578125 46.367188 36.621094 46.636719 36.621094 46.933594 Z M 36.089844 46.933594 C 36.089844 46.703125 36.058594 46.492188 36.003906 46.304688 C 35.941406 46.117188 35.855469 45.957031 35.742188 45.824219 C 35.625 45.691406 35.480469 45.585938 35.308594 45.511719 C 35.140625 45.441406 34.945312 45.402344 34.722656 45.402344 C 34.5 45.402344 34.300781 45.441406 34.128906 45.511719 C 33.953125 45.585938 33.808594 45.691406 33.695312 45.824219 C 33.585938 45.957031 33.5 46.117188 33.445312 46.304688 C 33.386719 46.492188 33.359375 46.703125 33.359375 46.933594 C 33.359375 47.167969 33.386719 47.378906 33.445312 47.574219 C 33.5 47.765625 33.589844 47.925781 33.703125 48.0625 C 33.820312 48.199219 33.960938 48.308594 34.128906 48.386719 C 34.300781 48.460938 34.5 48.496094 34.722656 48.496094 C 34.960938 48.496094 35.167969 48.460938 35.339844 48.386719 C 35.515625 48.308594 35.65625 48.199219 35.765625 48.0625 C 35.871094 47.917969 35.953125 47.753906 36.003906 47.5625 C 36.058594 47.367188 36.089844 47.160156 36.089844 46.933594 Z M 36.089844 46.933594 "/>
<path style=" stroke:none;fill-rule:nonzero;fill:rgb(0%,0%,0%);fill-opacity:1;" d="M 71.601562 17.429688 C 71.601562 17.730469 71.558594 18 71.472656 18.246094 C 71.386719 18.492188 71.257812 18.699219 71.09375 18.875 C 70.933594 19.046875 70.734375 19.183594 70.496094 19.277344 C 70.261719 19.367188 70 19.417969 69.703125 19.417969 C 69.386719 19.417969 69.109375 19.367188 68.871094 19.277344 C 68.636719 19.175781 68.441406 19.039062 68.285156 18.863281 C 68.125 18.683594 68.003906 18.472656 67.925781 18.234375 C 67.84375 17.988281 67.808594 17.722656 67.808594 17.429688 C 67.808594 17.132812 67.84375 16.867188 67.925781 16.628906 C 68.011719 16.382812 68.136719 16.175781 68.296875 16.007812 C 68.460938 15.84375 68.660156 15.710938 68.890625 15.617188 C 69.128906 15.523438 69.402344 15.476562 69.703125 15.476562 C 70.007812 15.476562 70.277344 15.523438 70.519531 15.617188 C 70.757812 15.710938 70.953125 15.84375 71.113281 16.019531 C 71.269531 16.1875 71.390625 16.386719 71.472656 16.628906 C 71.558594 16.867188 71.601562 17.132812 71.601562 17.429688 Z M 71.070312 17.429688 C 71.070312 17.199219 71.039062 16.992188 70.984375 16.800781 C 70.925781 16.613281 70.835938 16.453125 70.722656 16.324219 C 70.605469 16.1875 70.464844 16.082031 70.289062 16.007812 C 70.121094 15.9375 69.925781 15.898438 69.703125 15.898438 C 69.480469 15.898438 69.28125 15.9375 69.109375 16.007812 C 68.933594 16.082031 68.789062 16.1875 68.675781 16.324219 C 68.566406 16.453125 68.480469 16.613281 68.425781 16.800781 C 68.367188 16.992188 68.339844 17.199219 68.339844 17.429688 C 68.339844 17.664062 68.367188 17.875 68.425781 18.070312 C 68.480469 18.261719 68.570312 18.425781 68.6875 18.558594 C 68.800781 18.699219 68.941406 18.808594 69.109375 18.886719 C 69.28125 18.960938 69.480469 18.996094 69.703125 18.996094 C 69.941406 18.996094 70.148438 18.960938 70.324219 18.886719 C 70.496094 18.808594 70.636719 18.699219 70.746094 18.558594 C 70.855469 18.417969 70.933594 18.25 70.984375 18.058594 C 71.039062 17.863281 71.070312 17.65625 71.070312 17.429688 Z M 71.070312 17.429688 "/>
<path style=" stroke:none;fill-rule:nonzero;fill:rgb(0%,0%,0%);fill-opacity:1;" d="M 88.953125 47.21875 C 88.953125 47.515625 88.90625 47.789062 88.820312 48.03125 C 88.734375 48.28125 88.605469 48.488281 88.441406 48.664062 C 88.28125 48.835938 88.085938 48.972656 87.84375 49.0625 C 87.613281 49.15625 87.347656 49.207031 87.054688 49.207031 C 86.734375 49.207031 86.457031 49.15625 86.21875 49.0625 C 85.988281 48.964844 85.792969 48.824219 85.632812 48.652344 C 85.472656 48.472656 85.355469 48.261719 85.277344 48.023438 C 85.195312 47.777344 85.15625 47.507812 85.15625 47.21875 C 85.15625 46.921875 85.195312 46.652344 85.277344 46.414062 C 85.363281 46.171875 85.484375 45.964844 85.644531 45.796875 C 85.808594 45.628906 86.007812 45.5 86.242188 45.40625 C 86.480469 45.3125 86.75 45.265625 87.054688 45.265625 C 87.359375 45.265625 87.628906 45.3125 87.867188 45.40625 C 88.105469 45.5 88.304688 45.632812 88.464844 45.808594 C 88.621094 45.976562 88.738281 46.175781 88.820312 46.414062 C 88.90625 46.652344 88.953125 46.921875 88.953125 47.21875 Z M 88.421875 47.21875 C 88.421875 46.988281 88.390625 46.777344 88.332031 46.589844 C 88.273438 46.402344 88.1875 46.242188 88.074219 46.109375 C 87.957031 45.976562 87.8125 45.867188 87.640625 45.796875 C 87.472656 45.726562 87.277344 45.6875 87.054688 45.6875 C 86.828125 45.6875 86.632812 45.726562 86.457031 45.796875 C 86.285156 45.867188 86.136719 45.976562 86.023438 46.109375 C 85.914062 46.242188 85.832031 46.402344 85.773438 46.589844 C 85.714844 46.777344 85.6875 46.988281 85.6875 47.21875 C 85.6875 47.453125 85.714844 47.664062 85.773438 47.859375 C 85.832031 48.050781 85.917969 48.210938 86.035156 48.347656 C 86.148438 48.484375 86.289062 48.59375 86.457031 48.671875 C 86.632812 48.746094 86.828125 48.78125 87.054688 48.78125 C 87.292969 48.78125 87.5 48.746094 87.671875 48.671875 C 87.84375 48.59375 87.988281 48.484375 88.09375 48.347656 C 88.203125 48.203125 88.28125 48.039062 88.332031 47.847656 C 88.390625 47.652344 88.421875 47.445312 88.421875 47.21875 Z M 88.421875 47.21875 "/>
<path style=" stroke:none;fill-rule:nonzero;fill:rgb(0%,0%,0%);fill-opacity:1;" d="M 71.21875 77.484375 C 71.21875 77.78125 71.175781 78.054688 71.089844 78.296875 C 71.003906 78.546875 70.875 78.753906 70.710938 78.929688 C 70.550781 79.101562 70.351562 79.238281 70.113281 79.328125 C 69.878906 79.421875 69.617188 79.472656 69.324219 79.472656 C 69.003906 79.472656 68.726562 79.421875 68.488281 79.328125 C 68.253906 79.230469 68.058594 79.089844 67.902344 78.917969 C 67.742188 78.738281 67.625 78.527344 67.542969 78.289062 C 67.464844 78.042969 67.425781 77.773438 67.425781 77.484375 C 67.425781 77.1875 67.464844 76.917969 67.542969 76.679688 C 67.632812 76.4375 67.753906 76.230469 67.914062 76.0625 C 68.078125 75.894531 68.277344 75.765625 68.507812 75.671875 C 68.746094 75.578125 69.019531 75.527344 69.324219 75.527344 C 69.625 75.527344 69.898438 75.578125 70.136719 75.671875 C 70.375 75.765625 70.570312 75.898438 70.730469 76.070312 C 70.890625 76.242188 71.007812 76.441406 71.089844 76.679688 C 71.175781 76.917969 71.21875 77.1875 71.21875 77.484375 Z M 70.6875 77.484375 C 70.6875 77.253906 70.660156 77.042969 70.601562 76.855469 C 70.542969 76.667969 70.457031 76.507812 70.339844 76.375 C 70.226562 76.242188 70.082031 76.132812 69.90625 76.0625 C 69.738281 75.992188 69.542969 75.953125 69.324219 75.953125 C 69.097656 75.953125 68.898438 75.992188 68.726562 76.0625 C 68.554688 76.132812 68.40625 76.242188 68.292969 76.375 C 68.183594 76.507812 68.101562 76.667969 68.042969 76.855469 C 67.984375 77.042969 67.957031 77.253906 67.957031 77.484375 C 67.957031 77.71875 67.984375 77.929688 68.042969 78.125 C 68.101562 78.3125 68.1875 78.476562 68.304688 78.613281 C 68.417969 78.75 68.558594 78.859375 68.726562 78.9375 C 68.898438 79.011719 69.097656 79.046875 69.324219 79.046875 C 69.5625 79.046875 69.765625 79.011719 69.941406 78.9375 C 70.113281 78.859375 70.253906 78.75 70.363281 78.613281 C 70.472656 78.46875 70.550781 78.304688 70.601562 78.113281 C 70.660156 77.917969 70.6875 77.710938 70.6875 77.484375 Z M 70.6875 77.484375 "/>
<path style=" stroke:none;fill-rule:nonzero;fill:rgb(0%,0%,0%);fill-opacity:1;" d="M 18.988281 77.484375 C 18.988281 77.78125 18.941406 78.054688 18.855469 78.296875 C 18.769531 78.546875 18.640625 78.753906 18.476562 78.929688 C 18.316406 79.101562 18.121094 79.238281 17.878906 79.328125 C 17.648438 79.421875 17.386719 79.472656 17.089844 79.472656 C 16.769531 79.472656 16.492188 79.421875 16.253906 79.328125 C 16.023438 79.230469 15.828125 79.089844 15.667969 78.917969 C 15.507812 78.738281 15.390625 78.527344 15.3125 78.289062 C 15.230469 78.042969 15.191406 77.773438 15.191406 77.484375 C 15.191406 77.1875 15.230469 76.917969 15.3125 76.679688 C 15.398438 76.4375 15.519531 76.230469 15.679688 76.0625 C 15.84375 75.894531 16.042969 75.765625 16.277344 75.671875 C 16.515625 75.578125 16.785156 75.527344 17.089844 75.527344 C 17.394531 75.527344 17.664062 75.578125 17.902344 75.671875 C 18.140625 75.765625 18.339844 75.898438 18.5 76.070312 C 18.65625 76.242188 18.773438 76.441406 18.855469 76.679688 C 18.941406 76.917969 18.988281 77.1875 18.988281 77.484375 Z M 18.457031 77.484375 C 18.457031 77.253906 18.425781 77.042969 18.367188 76.855469 C 18.308594 76.667969 18.222656 76.507812 18.109375 76.375 C 17.992188 76.242188 17.847656 76.132812 17.675781 76.0625 C 17.507812 75.992188 17.3125 75.953125 17.089844 75.953125 C 16.863281 75.953125 16.667969 75.992188 16.492188 76.0625 C 16.320312 76.132812 16.171875 76.242188 16.058594 76.375 C 15.953125 76.507812 15.867188 76.667969 15.808594 76.855469 C 15.75 77.042969 15.722656 77.253906 15.722656 77.484375 C 15.722656 77.71875 15.75 77.929688 15.808594 78.125 C 15.867188 78.3125 15.953125 78.476562 16.070312 78.613281 C 16.183594 78.75 16.324219 78.859375 16.492188 78.9375 C 16.667969 79.011719 16.863281 79.046875 17.089844 79.046875 C 17.328125 79.046875 17.535156 79.011719 17.707031 78.9375 C 17.878906 78.859375 18.023438 78.75 18.128906 78.613281 C 18.238281 78.46875 18.316406 78.304688 18.367188 78.113281 C 18.425781 77.917969 18.457031 77.710938 18.457031 77.484375 Z M 18.457031 77.484375 "/>
<path style=" stroke:none;fill-rule:nonzero;fill:rgb(0%,0%,0%);fill-opacity:1;" d="M 16.804688 19.070312 L 15.820312 17.484375 L 14.625 17.484375 L 14.625 19.070312 L 14.105469 19.070312 L 14.105469 15.25 L 15.90625 15.25 C 16.121094 15.25 16.3125 15.273438 16.480469 15.324219 C 16.644531 15.367188 16.785156 15.4375 16.902344 15.53125 C 17.015625 15.625 17.101562 15.742188 17.164062 15.878906 C 17.21875 16.015625 17.25 16.167969 17.25 16.332031 C 17.25 16.457031 17.230469 16.582031 17.195312 16.703125 C 17.15625 16.820312 17.101562 16.929688 17.023438 17.027344 C 16.949219 17.125 16.855469 17.207031 16.738281 17.277344 C 16.625 17.34375 16.480469 17.394531 16.316406 17.417969 L 17.402344 19.070312 Z M 16.730469 16.34375 C 16.730469 16.230469 16.707031 16.128906 16.664062 16.039062 C 16.625 15.953125 16.570312 15.886719 16.492188 15.835938 C 16.417969 15.777344 16.328125 15.734375 16.21875 15.703125 C 16.109375 15.675781 15.988281 15.660156 15.851562 15.660156 L 14.625 15.660156 L 14.625 17.074219 L 15.871094 17.074219 C 16.023438 17.074219 16.15625 17.054688 16.261719 17.019531 C 16.371094 16.984375 16.457031 16.929688 16.523438 16.867188 C 16.59375 16.800781 16.644531 16.726562 16.675781 16.636719 C 16.710938 16.546875 16.730469 16.449219 16.730469 16.34375 Z M 16.730469 16.34375 "/>
<path style=" stroke:none;fill-rule:nonzero;fill:rgb(0%,0%,0%);fill-opacity:1;" d="M 18.246094 19.070312 L 18.246094 18.65625 L 19.222656 18.65625 L 19.222656 15.714844 L 18.355469 16.324219 L 18.355469 15.867188 L 19.265625 15.25 L 19.710938 15.25 L 19.710938 18.65625 L 20.640625 18.65625 L 20.640625 19.070312 Z M 18.246094 19.070312 "/>
<path style="fill:none;stroke-width:0.0333333;stroke-linecap:butt;stroke-linejoin:miter;stroke:rgb(0%,0%,0%);stroke-opacity:1;stroke-miterlimit:10;" d="M 1.512695 0.816219 L 1.496029 0.826337 M 1.48657 0.753265 L 1.453237 0.773051 M 1.460444 0.69031 L 1.410446 0.720214 M 1.434319 0.627356 L 1.367429 0.666927 M 1.408419 0.564401 L 1.324637 0.613865 M 1.382293 0.501447 L 1.281845 0.561029 M 1.356168 0.438267 L 1.239053 0.507742 M 1.330042 0.375313 L 1.196262 0.45468 M 1.303917 0.312358 L 1.15347 0.401619 M 1.277791 0.249404 L 1.110678 0.348557 M 1.251666 0.186449 L 1.067886 0.29572 M 1.22554 0.123495 L 1.025095 0.242434 " transform="matrix(17.344173,0,0,17.373646,17.091675,17.159137)"/>
<path style="fill:none;stroke-width:0.0333333;stroke-linecap:butt;stroke-linejoin:miter;stroke:rgb(0%,0%,0%);stroke-opacity:1;stroke-miterlimit:10;" d="M 1.54355 0.871529 L 1.130047 1.533227 " transform="matrix(17.344173,0,0,17.373646,17.091675,17.159137)"/>
<path style="fill:none;stroke-width:0.0333333;stroke-linecap:butt;stroke-linejoin:miter;stroke:rgb(0%,0%,0%);stroke-opacity:1;stroke-miterlimit:10;" d="M 1.529812 0.879399 L 2.53767 0.862761 " transform="matrix(17.344173,0,0,17.373646,17.091675,17.159137)"/>
<path style="fill:none;stroke-width:0.0333333;stroke-linecap:butt;stroke-linejoin:miter;stroke:rgb(0%,0%,0%);stroke-opacity:1;stroke-miterlimit:10;" d="M 1.121263 1.898813 L 1.526884 2.613122 " transform="matrix(17.344173,0,0,17.373646,17.091675,17.159137)"/>
<path style="fill:none;stroke-width:0.0333333;stroke-linecap:butt;stroke-linejoin:miter;stroke:rgb(0%,0%,0%);stroke-opacity:1;stroke-miterlimit:10;" d="M 2.523031 0.854442 L 3.038334 1.739403 " transform="matrix(17.344173,0,0,17.373646,17.091675,17.159137)"/>
<path style="fill:none;stroke-width:0.0333333;stroke-linecap:butt;stroke-linejoin:miter;stroke:rgb(0%,0%,0%);stroke-opacity:1;stroke-miterlimit:10;" d="M 2.573255 0.8079 L 2.554787 0.797108 M 2.618299 0.75304 L 2.581813 0.731231 M 2.663343 0.69818 L 2.60884 0.665578 M 2.708387 0.643319 L 2.635641 0.599926 M 2.753656 0.588459 L 2.662442 0.534048 M 2.7987 0.533598 L 2.689468 0.468396 M 2.843969 0.478738 L 2.716495 0.402518 M 2.889013 0.423653 L 2.743296 0.336641 M 2.934282 0.369017 L 2.770322 0.270988 M 2.979326 0.314157 L 2.797123 0.205335 M 3.02437 0.259296 L 2.82415 0.139458 " transform="matrix(17.344173,0,0,17.373646,17.091675,17.159137)"/>
<path style="fill:none;stroke-width:0.0333333;stroke-linecap:butt;stroke-linejoin:miter;stroke:rgb(0%,0%,0%);stroke-opacity:1;stroke-miterlimit:10;" d="M 1.512695 2.604803 L 2.537896 2.621666 " transform="matrix(17.344173,0,0,17.373646,17.091675,17.159137)"/>
<path style=" stroke:none;fill-rule:nonzero;fill:rgb(0%,0%,0%);fill-opacity:1;" d="M 43.492188 62.414062 L 32.03125 77.148438 L 34.640625 77.0625 L 36.375 78.113281 "/>
<path style=" stroke:none;fill-rule:nonzero;fill:rgb(0%,0%,0%);fill-opacity:1;" d="M 69.703125 47.234375 L 84.40625 49.261719 L 84.40625 45.207031 "/>
<path style="fill:none;stroke-width:0.0333333;stroke-linecap:butt;stroke-linejoin:miter;stroke:rgb(0%,0%,0%);stroke-opacity:1;stroke-miterlimit:10;" d="M 2.55321 2.687318 L 2.571678 2.676976 M 2.578435 2.753196 L 2.615371 2.732286 M 2.60366 2.819298 L 2.659064 2.787821 M 2.628884 2.885176 L 2.702756 2.843356 M 2.654109 2.951053 L 2.746449 2.898666 M 2.679334 3.01693 L 2.789916 2.953976 M 2.704558 3.083033 L 2.833834 3.009511 M 2.729783 3.14891 L 2.877302 3.065046 M 2.755007 3.214788 L 2.921219 3.120581 M 2.780232 3.28089 L 2.964687 3.175891 M 2.805457 3.346542 L 3.00838 3.231426 " transform="matrix(17.344173,0,0,17.373646,17.091675,17.159137)"/>
<path style="fill:none;stroke-width:0.0333333;stroke-linecap:butt;stroke-linejoin:miter;stroke:rgb(0%,0%,0%);stroke-opacity:1;stroke-miterlimit:10;" d="M 1.025545 3.440075 L 0.155972 3.46818 " transform="matrix(17.344173,0,0,17.373646,17.091675,17.159137)"/>
<path style="fill:none;stroke-width:0.0333333;stroke-linecap:butt;stroke-linejoin:miter;stroke:rgb(0%,0%,0%);stroke-opacity:1;stroke-miterlimit:10;" d="M 3.038109 1.722765 L 2.523256 2.629985 " transform="matrix(17.344173,0,0,17.373646,17.091675,17.159137)"/>
<path style="fill:none;stroke-width:0.0333333;stroke-linecap:butt;stroke-linejoin:miter;stroke:rgb(0%,0%,0%);stroke-opacity:1;stroke-miterlimit:10;" d="M 0.248087 0.0000586506 L 0.863837 0.0000586506 " transform="matrix(17.344173,0,0,17.373646,17.091675,17.159137)"/>
<path style=" stroke:none;fill-rule:nonzero;fill:rgb(0%,0%,0%);fill-opacity:1;" d="M 19.792969 193.714844 L 18.804688 192.128906 L 17.613281 192.128906 L 17.613281 193.714844 L 17.09375 193.714844 L 17.09375 189.890625 L 18.890625 189.890625 C 19.109375 189.890625 19.296875 189.917969 19.464844 189.96875 C 19.632812 190.011719 19.773438 190.082031 19.890625 190.171875 C 20.003906 190.269531 20.089844 190.386719 20.148438 190.519531 C 20.207031 190.660156 20.234375 190.8125 20.234375 190.976562 C 20.234375 191.101562 20.21875 191.222656 20.179688 191.347656 C 20.144531 191.464844 20.085938 191.570312 20.007812 191.671875 C 19.933594 191.765625 19.839844 191.851562 19.726562 191.921875 C 19.609375 191.988281 19.46875 192.035156 19.304688 192.0625 L 20.386719 193.714844 Z M 19.714844 190.988281 C 19.714844 190.875 19.695312 190.769531 19.652344 190.683594 C 19.613281 190.597656 19.554688 190.527344 19.476562 190.476562 C 19.402344 190.421875 19.3125 190.378906 19.207031 190.347656 C 19.097656 190.320312 18.972656 190.304688 18.835938 190.304688 L 17.613281 190.304688 L 17.613281 191.714844 L 18.859375 191.714844 C 19.011719 191.714844 19.140625 191.699219 19.25 191.660156 C 19.359375 191.625 19.445312 191.574219 19.507812 191.507812 C 19.578125 191.445312 19.632812 191.367188 19.660156 191.28125 C 19.695312 191.1875 19.714844 191.089844 19.714844 190.988281 Z M 19.714844 190.988281 "/>
<path style=" stroke:none;fill-rule:nonzero;fill:rgb(0%,0%,0%);fill-opacity:1;" d="M 21.230469 193.714844 L 21.230469 193.300781 L 22.207031 193.300781 L 22.207031 190.359375 L 21.339844 190.964844 L 21.339844 190.511719 L 22.25 189.890625 L 22.695312 189.890625 L 22.695312 193.300781 L 23.628906 193.300781 L 23.628906 193.714844 Z M 21.230469 193.714844 "/>
<path style=" stroke:none;fill-rule:nonzero;fill:rgb(0%,0%,0%);fill-opacity:1;" d="M 24.292969 191.390625 L 24.292969 190.988281 L 26.992188 190.988281 L 26.992188 191.390625 Z M 24.292969 192.78125 L 24.292969 192.378906 L 26.992188 192.378906 L 26.992188 192.78125 Z M 24.292969 192.78125 "/>
<path style=" stroke:none;fill-rule:nonzero;fill:rgb(0%,0%,0%);fill-opacity:1;" d="M 17.09375 196.03125 L 17.09375 195.824219 L 18.253906 195.324219 L 17.09375 194.828125 L 17.09375 194.621094 L 18.4375 195.183594 L 18.4375 195.46875 Z M 17.09375 196.03125 "/>
<path style=" stroke:none;fill-rule:nonzero;fill:rgb(0%,0%,0%);fill-opacity:1;" d="M 20.074219 195.28125 C 20.074219 195.464844 20.054688 195.617188 20.019531 195.75 C 19.988281 195.875 19.941406 195.976562 19.878906 196.054688 C 19.816406 196.125 19.75 196.179688 19.671875 196.214844 C 19.589844 196.25 19.503906 196.269531 19.410156 196.269531 C 19.316406 196.269531 19.230469 196.25 19.152344 196.214844 C 19.070312 196.179688 19 196.125 18.933594 196.054688 C 18.875 195.976562 18.828125 195.875 18.792969 195.75 C 18.761719 195.617188 18.75 195.464844 18.75 195.28125 C 18.75 195.085938 18.761719 194.929688 18.792969 194.804688 C 18.828125 194.675781 18.875 194.574219 18.933594 194.5 C 19 194.429688 19.070312 194.378906 19.152344 194.347656 C 19.230469 194.3125 19.320312 194.292969 19.421875 194.292969 C 19.507812 194.292969 19.589844 194.3125 19.671875 194.347656 C 19.75 194.378906 19.816406 194.429688 19.878906 194.5 C 19.941406 194.574219 19.988281 194.675781 20.019531 194.804688 C 20.054688 194.929688 20.074219 195.085938 20.074219 195.28125 Z M 19.832031 195.28125 C 19.832031 195.128906 19.824219 195.003906 19.800781 194.902344 C 19.785156 194.800781 19.761719 194.722656 19.726562 194.664062 C 19.6875 194.597656 19.644531 194.554688 19.59375 194.535156 C 19.542969 194.507812 19.488281 194.488281 19.421875 194.488281 C 19.347656 194.488281 19.285156 194.507812 19.238281 194.535156 C 19.1875 194.554688 19.144531 194.597656 19.109375 194.664062 C 19.070312 194.722656 19.042969 194.800781 19.019531 194.902344 C 19.003906 195.003906 19 195.128906 19 195.28125 C 19 195.429688 19.003906 195.550781 19.019531 195.652344 C 19.042969 195.753906 19.070312 195.835938 19.109375 195.902344 C 19.144531 195.960938 19.1875 196.003906 19.238281 196.03125 C 19.285156 196.054688 19.347656 196.0625 19.410156 196.0625 C 19.476562 196.0625 19.53125 196.054688 19.585938 196.03125 C 19.632812 196.003906 19.675781 195.960938 19.714844 195.902344 C 19.75 195.835938 19.78125 195.753906 19.800781 195.652344 C 19.824219 195.550781 19.832031 195.429688 19.832031 195.28125 Z M 19.832031 195.28125 "/>
<path style=" stroke:none;fill-rule:nonzero;fill:rgb(0%,0%,0%);fill-opacity:1;" d="M 175.039062 87.273438 C 174.824219 87.273438 174.632812 87.3125 174.464844 87.382812 C 174.296875 87.453125 174.15625 87.558594 174.042969 87.695312 C 173.933594 87.828125 173.851562 87.988281 173.792969 88.175781 C 173.734375 88.363281 173.707031 88.574219 173.707031 88.804688 C 173.707031 89.039062 173.734375 89.25 173.792969 89.445312 C 173.859375 89.632812 173.949219 89.796875 174.066406 89.933594 C 174.179688 90.070312 174.320312 90.179688 174.488281 90.257812 C 174.660156 90.332031 174.851562 90.367188 175.0625 90.367188 C 175.214844 90.367188 175.347656 90.351562 175.464844 90.3125 C 175.585938 90.269531 175.695312 90.210938 175.800781 90.140625 C 175.898438 90.070312 175.988281 89.984375 176.058594 89.890625 C 176.136719 89.796875 176.207031 89.6875 176.265625 89.5625 L 176.6875 89.78125 C 176.625 89.925781 176.539062 90.0625 176.4375 90.183594 C 176.335938 90.308594 176.21875 90.417969 176.082031 90.507812 C 175.941406 90.59375 175.789062 90.664062 175.613281 90.714844 C 175.441406 90.765625 175.25 90.789062 175.039062 90.789062 C 174.730469 90.789062 174.457031 90.742188 174.226562 90.648438 C 173.996094 90.550781 173.800781 90.410156 173.640625 90.238281 C 173.492188 90.058594 173.375 89.847656 173.296875 89.605469 C 173.214844 89.363281 173.175781 89.09375 173.175781 88.804688 C 173.175781 88.507812 173.214844 88.238281 173.296875 88 C 173.382812 87.757812 173.503906 87.550781 173.664062 87.382812 C 173.820312 87.214844 174.015625 87.085938 174.25 86.992188 C 174.480469 86.898438 174.742188 86.847656 175.039062 86.847656 C 175.445312 86.847656 175.78125 86.929688 176.046875 87.089844 C 176.324219 87.25 176.527344 87.488281 176.65625 87.804688 L 176.167969 87.96875 C 176.128906 87.875 176.082031 87.789062 176.015625 87.707031 C 175.957031 87.621094 175.878906 87.550781 175.789062 87.488281 C 175.695312 87.425781 175.585938 87.375 175.464844 87.335938 C 175.339844 87.292969 175.199219 87.273438 175.039062 87.273438 Z M 175.039062 87.273438 "/>
<path style=" stroke:none;fill-rule:nonzero;fill:rgb(0%,0%,0%);fill-opacity:1;" d="M 177.921875 88.304688 C 177.980469 88.203125 178.035156 88.121094 178.097656 88.054688 C 178.160156 87.984375 178.230469 87.925781 178.300781 87.878906 C 178.382812 87.832031 178.464844 87.792969 178.550781 87.773438 C 178.644531 87.75 178.75 87.738281 178.867188 87.738281 C 179.054688 87.738281 179.203125 87.765625 179.320312 87.816406 C 179.445312 87.867188 179.539062 87.941406 179.601562 88.03125 C 179.675781 88.128906 179.726562 88.238281 179.753906 88.371094 C 179.78125 88.496094 179.796875 88.628906 179.796875 88.78125 L 179.796875 90.738281 L 179.300781 90.738281 L 179.300781 88.867188 C 179.300781 88.746094 179.292969 88.636719 179.277344 88.542969 C 179.261719 88.449219 179.234375 88.375 179.191406 88.316406 C 179.148438 88.25 179.085938 88.203125 179.007812 88.175781 C 178.925781 88.140625 178.824219 88.121094 178.703125 88.121094 C 178.585938 88.121094 178.480469 88.140625 178.390625 88.183594 C 178.292969 88.226562 178.214844 88.289062 178.152344 88.371094 C 178.085938 88.441406 178.035156 88.53125 178 88.640625 C 177.960938 88.75 177.945312 88.867188 177.945312 89 L 177.945312 90.738281 L 177.457031 90.738281 L 177.457031 86.707031 L 177.945312 86.707031 L 177.945312 87.75 C 177.945312 87.816406 177.941406 87.878906 177.933594 87.933594 C 177.933594 87.996094 177.929688 88.050781 177.921875 88.097656 C 177.921875 88.148438 177.921875 88.191406 177.921875 88.226562 C 177.921875 88.265625 177.921875 88.289062 177.921875 88.304688 Z M 177.921875 88.304688 "/>
<path style=" stroke:none;fill-rule:nonzero;fill:rgb(0%,0%,0%);fill-opacity:1;" d="M 180.648438 87.175781 L 180.648438 86.707031 L 181.136719 86.707031 L 181.136719 87.175781 Z M 180.648438 90.738281 L 180.648438 87.792969 L 181.136719 87.792969 L 181.136719 90.738281 Z M 180.648438 90.738281 "/>
<path style=" stroke:none;fill-rule:nonzero;fill:rgb(0%,0%,0%);fill-opacity:1;" d="M 181.953125 90.738281 L 181.953125 88.476562 C 181.953125 88.421875 181.949219 88.359375 181.941406 88.292969 C 181.941406 88.226562 181.941406 88.167969 181.941406 88.109375 C 181.941406 88.050781 181.9375 87.996094 181.933594 87.945312 C 181.933594 87.890625 181.933594 87.835938 181.933594 87.792969 L 182.398438 87.792969 C 182.398438 87.835938 182.398438 87.890625 182.398438 87.945312 C 182.402344 87.996094 182.410156 88.050781 182.410156 88.109375 C 182.410156 88.160156 182.410156 88.214844 182.410156 88.273438 C 182.414062 88.324219 182.421875 88.367188 182.421875 88.402344 L 182.429688 88.402344 C 182.457031 88.289062 182.492188 88.191406 182.527344 88.109375 C 182.570312 88.023438 182.617188 87.953125 182.667969 87.902344 C 182.726562 87.855469 182.792969 87.8125 182.863281 87.78125 C 182.933594 87.757812 183.023438 87.738281 183.125 87.738281 C 183.160156 87.738281 183.195312 87.746094 183.234375 87.75 C 183.269531 87.757812 183.296875 87.765625 183.320312 87.773438 L 183.320312 88.21875 C 183.289062 88.210938 183.253906 88.207031 183.210938 88.207031 C 183.167969 88.199219 183.117188 88.195312 183.058594 88.195312 C 182.953125 88.195312 182.855469 88.222656 182.777344 88.273438 C 182.695312 88.324219 182.632812 88.390625 182.582031 88.476562 C 182.53125 88.566406 182.496094 88.671875 182.472656 88.804688 C 182.453125 88.929688 182.441406 89.0625 182.441406 89.207031 L 182.441406 90.738281 Z M 181.953125 90.738281 "/>
<path style=" stroke:none;fill-rule:nonzero;fill:rgb(0%,0%,0%);fill-opacity:1;" d="M 184.613281 90.789062 C 184.316406 90.789062 184.09375 90.714844 183.941406 90.5625 C 183.796875 90.40625 183.726562 90.1875 183.726562 89.910156 C 183.726562 89.722656 183.761719 89.570312 183.835938 89.445312 C 183.90625 89.3125 184 89.214844 184.117188 89.152344 C 184.238281 89.082031 184.375 89.027344 184.527344 89 C 184.679688 88.972656 184.835938 88.957031 184.996094 88.957031 L 185.644531 88.945312 L 185.644531 88.78125 C 185.644531 88.660156 185.628906 88.558594 185.601562 88.476562 C 185.578125 88.390625 185.542969 88.324219 185.492188 88.273438 C 185.441406 88.214844 185.375 88.175781 185.296875 88.152344 C 185.21875 88.128906 185.125 88.121094 185.015625 88.121094 C 184.921875 88.121094 184.835938 88.128906 184.757812 88.140625 C 184.683594 88.148438 184.617188 88.171875 184.5625 88.207031 C 184.507812 88.246094 184.464844 88.292969 184.429688 88.359375 C 184.394531 88.417969 184.371094 88.496094 184.367188 88.585938 L 183.855469 88.53125 C 183.871094 88.417969 183.902344 88.3125 183.953125 88.21875 C 184.003906 88.125 184.074219 88.039062 184.171875 87.96875 C 184.261719 87.898438 184.378906 87.84375 184.519531 87.804688 C 184.660156 87.761719 184.832031 87.738281 185.027344 87.738281 C 185.394531 87.738281 185.671875 87.828125 185.863281 88 C 186.050781 88.167969 186.144531 88.410156 186.144531 88.726562 L 186.144531 90 C 186.144531 90.144531 186.160156 90.253906 186.199219 90.324219 C 186.234375 90.398438 186.304688 90.433594 186.414062 90.433594 C 186.441406 90.433594 186.46875 90.433594 186.492188 90.433594 C 186.519531 90.425781 186.546875 90.417969 186.578125 90.410156 L 186.578125 90.714844 C 186.511719 90.738281 186.449219 90.75 186.394531 90.757812 C 186.332031 90.765625 186.269531 90.769531 186.199219 90.769531 C 186.101562 90.769531 186.023438 90.757812 185.960938 90.738281 C 185.894531 90.710938 185.839844 90.667969 185.796875 90.617188 C 185.757812 90.566406 185.730469 90.503906 185.710938 90.433594 C 185.6875 90.363281 185.671875 90.273438 185.667969 90.171875 L 185.644531 90.171875 C 185.59375 90.265625 185.535156 90.355469 185.472656 90.433594 C 185.410156 90.503906 185.339844 90.570312 185.253906 90.628906 C 185.171875 90.679688 185.082031 90.71875 184.972656 90.746094 C 184.871094 90.773438 184.75 90.789062 184.613281 90.789062 Z M 184.722656 90.421875 C 184.875 90.421875 185.007812 90.394531 185.125 90.335938 C 185.246094 90.277344 185.34375 90.203125 185.417969 90.117188 C 185.496094 90.03125 185.554688 89.9375 185.589844 89.835938 C 185.625 89.726562 185.644531 89.625 185.644531 89.53125 L 185.644531 89.28125 L 185.113281 89.292969 C 184.996094 89.300781 184.886719 89.3125 184.777344 89.324219 C 184.667969 89.339844 184.570312 89.367188 184.484375 89.410156 C 184.402344 89.457031 184.339844 89.519531 184.289062 89.605469 C 184.246094 89.6875 184.226562 89.792969 184.226562 89.921875 C 184.226562 90.082031 184.269531 90.203125 184.355469 90.292969 C 184.441406 90.378906 184.5625 90.421875 184.722656 90.421875 Z M 184.722656 90.421875 "/>
<path style=" stroke:none;fill-rule:nonzero;fill:rgb(0%,0%,0%);fill-opacity:1;" d="M 187.082031 90.738281 L 187.082031 86.707031 L 187.570312 86.707031 L 187.570312 90.738281 Z M 187.082031 90.738281 "/>
<path style=" stroke:none;fill-rule:nonzero;fill:rgb(0%,0%,0%);fill-opacity:1;" d="M 140.597656 185.203125 L 141.3125 184.929688 L 141.433594 185.289062 L 140.675781 185.484375 L 141.171875 186.160156 L 140.847656 186.355469 L 140.445312 185.660156 L 140.023438 186.355469 L 139.699219 186.160156 L 140.207031 185.484375 L 139.449219 185.289062 L 139.578125 184.921875 L 140.296875 185.214844 L 140.261719 184.410156 L 140.632812 184.410156 Z M 140.597656 185.203125 "/>
<path style=" stroke:none;fill-rule:nonzero;fill:rgb(0%,0%,0%);fill-opacity:1;" d="M 111.78125 170.382812 C 111.78125 170.679688 111.738281 170.953125 111.652344 171.195312 C 111.566406 171.441406 111.4375 171.652344 111.273438 171.824219 C 111.113281 172 110.914062 172.136719 110.675781 172.226562 C 110.445312 172.320312 110.179688 172.367188 109.886719 172.367188 C 109.566406 172.367188 109.289062 172.320312 109.050781 172.226562 C 108.820312 172.125 108.625 171.988281 108.464844 171.816406 C 108.304688 171.636719 108.1875 171.421875 108.109375 171.183594 C 108.027344 170.941406 107.988281 170.671875 107.988281 170.382812 C 107.988281 170.085938 108.027344 169.816406 108.109375 169.578125 C 108.195312 169.332031 108.316406 169.128906 108.476562 168.957031 C 108.640625 168.792969 108.839844 168.664062 109.074219 168.566406 C 109.3125 168.476562 109.582031 168.425781 109.886719 168.425781 C 110.191406 168.425781 110.460938 168.476562 110.699219 168.566406 C 110.9375 168.664062 111.136719 168.796875 111.296875 168.96875 C 111.453125 169.136719 111.570312 169.339844 111.652344 169.578125 C 111.738281 169.816406 111.78125 170.085938 111.78125 170.382812 Z M 111.253906 170.382812 C 111.253906 170.152344 111.222656 169.941406 111.164062 169.75 C 111.105469 169.5625 111.019531 169.402344 110.90625 169.273438 C 110.789062 169.136719 110.644531 169.03125 110.472656 168.957031 C 110.304688 168.886719 110.109375 168.851562 109.886719 168.851562 C 109.660156 168.851562 109.464844 168.886719 109.289062 168.957031 C 109.117188 169.03125 108.96875 169.136719 108.855469 169.273438 C 108.746094 169.402344 108.664062 169.5625 108.605469 169.75 C 108.546875 169.941406 108.519531 170.152344 108.519531 170.382812 C 108.519531 170.613281 108.546875 170.828125 108.605469 171.023438 C 108.664062 171.210938 108.75 171.375 108.867188 171.511719 C 108.980469 171.648438 109.121094 171.757812 109.289062 171.835938 C 109.464844 171.910156 109.660156 171.945312 109.886719 171.945312 C 110.125 171.945312 110.332031 171.910156 110.503906 171.835938 C 110.675781 171.757812 110.820312 171.648438 110.925781 171.511719 C 111.035156 171.367188 111.113281 171.199219 111.164062 171.011719 C 111.222656 170.816406 111.253906 170.605469 111.253906 170.382812 Z M 111.253906 170.382812 "/>
<path style=" stroke:none;fill-rule:nonzero;fill:rgb(0%,0%,0%);fill-opacity:1;" d="M 112.359375 168.050781 L 113.289062 168.050781 L 113.289062 167.121094 L 113.753906 167.121094 L 113.753906 168.050781 L 114.683594 168.050781 L 114.683594 168.515625 L 113.753906 168.515625 L 113.753906 169.449219 L 113.289062 169.449219 L 113.289062 168.515625 L 112.359375 168.515625 "/>
<path style=" stroke:none;fill-rule:nonzero;fill:rgb(0%,0%,0%);fill-opacity:1;" d="M 180.699219 139.921875 C 180.699219 140.222656 180.65625 140.492188 180.570312 140.738281 C 180.480469 140.984375 180.355469 141.195312 180.191406 141.367188 C 180.03125 141.539062 179.832031 141.675781 179.59375 141.769531 C 179.359375 141.859375 179.097656 141.910156 178.800781 141.910156 C 178.480469 141.910156 178.207031 141.859375 177.96875 141.769531 C 177.734375 141.667969 177.539062 141.53125 177.382812 141.355469 C 177.222656 141.175781 177.101562 140.964844 177.023438 140.726562 C 176.941406 140.480469 176.90625 140.214844 176.90625 139.921875 C 176.90625 139.628906 176.941406 139.359375 177.023438 139.121094 C 177.109375 138.875 177.234375 138.667969 177.394531 138.5 C 177.558594 138.335938 177.757812 138.203125 177.988281 138.109375 C 178.226562 138.015625 178.5 137.96875 178.800781 137.96875 C 179.105469 137.96875 179.375 138.015625 179.613281 138.109375 C 179.855469 138.203125 180.050781 138.335938 180.210938 138.511719 C 180.367188 138.679688 180.488281 138.878906 180.570312 139.121094 C 180.65625 139.359375 180.699219 139.628906 180.699219 139.921875 Z M 180.167969 139.921875 C 180.167969 139.691406 180.136719 139.484375 180.082031 139.292969 C 180.023438 139.105469 179.933594 138.945312 179.820312 138.816406 C 179.703125 138.679688 179.5625 138.574219 179.386719 138.5 C 179.21875 138.429688 179.023438 138.390625 178.800781 138.390625 C 178.578125 138.390625 178.378906 138.429688 178.207031 138.5 C 178.03125 138.574219 177.886719 138.679688 177.773438 138.816406 C 177.664062 138.945312 177.578125 139.105469 177.523438 139.292969 C 177.464844 139.484375 177.4375 139.691406 177.4375 139.921875 C 177.4375 140.15625 177.464844 140.367188 177.523438 140.5625 C 177.578125 140.753906 177.667969 140.917969 177.78125 141.050781 C 177.898438 141.191406 178.039062 141.300781 178.207031 141.378906 C 178.378906 141.453125 178.578125 141.488281 178.800781 141.488281 C 179.039062 141.488281 179.246094 141.453125 179.421875 141.378906 C 179.59375 141.300781 179.734375 141.191406 179.84375 141.050781 C 179.953125 140.910156 180.03125 140.742188 180.082031 140.554688 C 180.136719 140.355469 180.167969 140.148438 180.167969 139.921875 Z M 180.167969 139.921875 "/>
<path style=" stroke:none;fill-rule:nonzero;fill:rgb(0%,0%,0%);fill-opacity:1;" d="M 129.320312 110.226562 C 129.320312 110.527344 129.277344 110.796875 129.191406 111.042969 C 129.101562 111.289062 128.976562 111.5 128.808594 111.671875 C 128.652344 111.84375 128.453125 111.980469 128.214844 112.074219 C 127.980469 112.164062 127.71875 112.214844 127.421875 112.214844 C 127.101562 112.214844 126.828125 112.164062 126.589844 112.074219 C 126.355469 111.972656 126.160156 111.835938 126.003906 111.660156 C 125.84375 111.480469 125.722656 111.269531 125.644531 111.03125 C 125.5625 110.785156 125.527344 110.519531 125.527344 110.226562 C 125.527344 109.933594 125.5625 109.664062 125.644531 109.425781 C 125.730469 109.179688 125.855469 108.972656 126.011719 108.804688 C 126.179688 108.640625 126.375 108.507812 126.609375 108.414062 C 126.847656 108.320312 127.121094 108.273438 127.421875 108.273438 C 127.726562 108.273438 127.996094 108.320312 128.234375 108.414062 C 128.472656 108.507812 128.671875 108.640625 128.832031 108.816406 C 128.988281 108.984375 129.109375 109.183594 129.191406 109.425781 C 129.277344 109.664062 129.320312 109.933594 129.320312 110.226562 Z M 128.789062 110.226562 C 128.789062 109.996094 128.757812 109.789062 128.703125 109.597656 C 128.640625 109.410156 128.554688 109.25 128.441406 109.121094 C 128.324219 108.984375 128.179688 108.878906 128.007812 108.804688 C 127.839844 108.734375 127.644531 108.695312 127.421875 108.695312 C 127.199219 108.695312 127 108.734375 126.828125 108.804688 C 126.652344 108.878906 126.507812 108.984375 126.394531 109.121094 C 126.285156 109.25 126.199219 109.410156 126.144531 109.597656 C 126.085938 109.789062 126.058594 109.996094 126.058594 110.226562 C 126.058594 110.460938 126.085938 110.671875 126.144531 110.867188 C 126.199219 111.058594 126.289062 111.222656 126.402344 111.355469 C 126.519531 111.496094 126.660156 111.605469 126.828125 111.683594 C 127 111.757812 127.199219 111.792969 127.421875 111.792969 C 127.660156 111.792969 127.867188 111.757812 128.039062 111.683594 C 128.214844 111.605469 128.355469 111.496094 128.464844 111.355469 C 128.570312 111.214844 128.652344 111.046875 128.703125 110.859375 C 128.757812 110.660156 128.789062 110.453125 128.789062 110.226562 Z M 128.789062 110.226562 "/>
<path style=" stroke:none;fill-rule:nonzero;fill:rgb(0%,0%,0%);fill-opacity:1;" d="M 111.117188 230.25 C 111.117188 230.546875 111.074219 230.820312 110.988281 231.0625 C 110.898438 231.3125 110.773438 231.519531 110.605469 231.695312 C 110.445312 231.867188 110.25 232.003906 110.011719 232.09375 C 109.777344 232.1875 109.515625 232.238281 109.21875 232.238281 C 108.898438 232.238281 108.625 232.1875 108.386719 232.09375 C 108.152344 231.996094 107.957031 231.855469 107.800781 231.683594 C 107.640625 231.503906 107.519531 231.292969 107.441406 231.054688 C 107.359375 230.808594 107.324219 230.539062 107.324219 230.25 C 107.324219 229.953125 107.359375 229.683594 107.441406 229.445312 C 107.527344 229.203125 107.652344 228.996094 107.808594 228.828125 C 107.976562 228.660156 108.171875 228.53125 108.40625 228.4375 C 108.644531 228.34375 108.914062 228.296875 109.21875 228.296875 C 109.523438 228.296875 109.792969 228.34375 110.03125 228.4375 C 110.269531 228.53125 110.46875 228.664062 110.628906 228.839844 C 110.785156 229.007812 110.90625 229.207031 110.988281 229.445312 C 111.074219 229.683594 111.117188 229.953125 111.117188 230.25 Z M 110.585938 230.25 C 110.585938 230.019531 110.554688 229.808594 110.5 229.621094 C 110.4375 229.433594 110.351562 229.273438 110.238281 229.140625 C 110.121094 229.007812 109.976562 228.902344 109.804688 228.828125 C 109.636719 228.757812 109.441406 228.71875 109.21875 228.71875 C 108.996094 228.71875 108.796875 228.757812 108.625 228.828125 C 108.449219 228.902344 108.304688 229.007812 108.191406 229.140625 C 108.082031 229.273438 107.996094 229.433594 107.941406 229.621094 C 107.878906 229.808594 107.855469 230.019531 107.855469 230.25 C 107.855469 230.484375 107.878906 230.695312 107.941406 230.890625 C 107.996094 231.082031 108.085938 231.242188 108.199219 231.378906 C 108.3125 231.515625 108.457031 231.625 108.625 231.703125 C 108.796875 231.777344 108.996094 231.8125 109.21875 231.8125 C 109.457031 231.8125 109.664062 231.777344 109.835938 231.703125 C 110.011719 231.625 110.152344 231.515625 110.261719 231.378906 C 110.367188 231.234375 110.445312 231.070312 110.5 230.878906 C 110.554688 230.683594 110.585938 230.476562 110.585938 230.25 Z M 110.585938 230.25 "/>
<path style=" stroke:none;fill-rule:nonzero;fill:rgb(0%,0%,0%);fill-opacity:1;" d="M 163.828125 109.941406 C 163.828125 110.242188 163.785156 110.511719 163.699219 110.757812 C 163.613281 111.003906 163.484375 111.214844 163.320312 111.386719 C 163.160156 111.558594 162.960938 111.695312 162.722656 111.789062 C 162.492188 111.878906 162.226562 111.929688 161.933594 111.929688 C 161.613281 111.929688 161.335938 111.878906 161.097656 111.789062 C 160.863281 111.6875 160.667969 111.550781 160.511719 111.375 C 160.351562 111.195312 160.234375 110.984375 160.15625 110.746094 C 160.074219 110.5 160.035156 110.234375 160.035156 109.941406 C 160.035156 109.648438 160.074219 109.378906 160.15625 109.140625 C 160.242188 108.894531 160.363281 108.6875 160.523438 108.519531 C 160.6875 108.355469 160.886719 108.222656 161.121094 108.128906 C 161.359375 108.035156 161.628906 107.988281 161.933594 107.988281 C 162.234375 107.988281 162.507812 108.035156 162.746094 108.128906 C 162.984375 108.222656 163.179688 108.355469 163.339844 108.53125 C 163.5 108.699219 163.617188 108.898438 163.699219 109.140625 C 163.785156 109.378906 163.828125 109.648438 163.828125 109.941406 Z M 163.296875 109.941406 C 163.296875 109.710938 163.269531 109.503906 163.210938 109.3125 C 163.152344 109.125 163.066406 108.964844 162.953125 108.835938 C 162.835938 108.699219 162.691406 108.59375 162.519531 108.519531 C 162.347656 108.449219 162.15625 108.410156 161.933594 108.410156 C 161.707031 108.410156 161.507812 108.449219 161.335938 108.519531 C 161.164062 108.59375 161.015625 108.699219 160.902344 108.835938 C 160.792969 108.964844 160.710938 109.125 160.652344 109.3125 C 160.59375 109.503906 160.566406 109.710938 160.566406 109.941406 C 160.566406 110.175781 160.59375 110.386719 160.652344 110.582031 C 160.710938 110.773438 160.796875 110.9375 160.914062 111.070312 C 161.027344 111.210938 161.167969 111.320312 161.335938 111.398438 C 161.507812 111.472656 161.707031 111.507812 161.933594 111.507812 C 162.171875 111.507812 162.375 111.472656 162.550781 111.398438 C 162.722656 111.320312 162.863281 111.210938 162.972656 111.070312 C 163.082031 110.929688 163.160156 110.761719 163.210938 110.574219 C 163.269531 110.375 163.296875 110.167969 163.296875 109.941406 Z M 163.296875 109.941406 "/>
<path style=" stroke:none;fill-rule:nonzero;fill:rgb(0%,0%,0%);fill-opacity:1;" d="M 187.675781 153.476562 C 187.460938 153.476562 187.269531 153.515625 187.101562 153.585938 C 186.933594 153.660156 186.792969 153.765625 186.679688 153.902344 C 186.570312 154.03125 186.488281 154.191406 186.429688 154.378906 C 186.371094 154.570312 186.34375 154.777344 186.34375 155.007812 C 186.34375 155.242188 186.371094 155.453125 186.429688 155.648438 C 186.496094 155.839844 186.585938 156 186.703125 156.136719 C 186.816406 156.277344 186.957031 156.382812 187.125 156.464844 C 187.296875 156.535156 187.488281 156.570312 187.699219 156.570312 C 187.851562 156.570312 187.984375 156.554688 188.101562 156.515625 C 188.222656 156.472656 188.332031 156.417969 188.4375 156.34375 C 188.535156 156.273438 188.625 156.1875 188.695312 156.09375 C 188.773438 156 188.84375 155.894531 188.902344 155.769531 L 189.324219 155.984375 C 189.261719 156.132812 189.175781 156.265625 189.074219 156.386719 C 188.972656 156.511719 188.855469 156.621094 188.71875 156.714844 C 188.578125 156.800781 188.425781 156.871094 188.253906 156.917969 C 188.078125 156.96875 187.886719 156.996094 187.675781 156.996094 C 187.367188 156.996094 187.09375 156.945312 186.863281 156.855469 C 186.632812 156.753906 186.4375 156.617188 186.277344 156.441406 C 186.128906 156.261719 186.011719 156.050781 185.933594 155.8125 C 185.851562 155.566406 185.8125 155.296875 185.8125 155.007812 C 185.8125 154.710938 185.851562 154.445312 185.933594 154.203125 C 186.019531 153.960938 186.140625 153.753906 186.300781 153.585938 C 186.457031 153.421875 186.652344 153.289062 186.886719 153.195312 C 187.117188 153.101562 187.378906 153.054688 187.675781 153.054688 C 188.082031 153.054688 188.417969 153.136719 188.6875 153.292969 C 188.960938 153.453125 189.164062 153.691406 189.292969 154.007812 L 188.804688 154.171875 C 188.765625 154.078125 188.71875 153.992188 188.652344 153.910156 C 188.59375 153.824219 188.519531 153.753906 188.425781 153.695312 C 188.332031 153.628906 188.222656 153.582031 188.101562 153.542969 C 187.976562 153.5 187.835938 153.476562 187.675781 153.476562 Z M 187.675781 153.476562 "/>
<path style=" stroke:none;fill-rule:nonzero;fill:rgb(0%,0%,0%);fill-opacity:1;" d="M 135.917969 93.328125 C 135.703125 93.328125 135.507812 93.363281 135.34375 93.433594 C 135.175781 93.507812 135.035156 93.613281 134.921875 93.75 C 134.8125 93.878906 134.730469 94.039062 134.671875 94.226562 C 134.613281 94.417969 134.585938 94.625 134.585938 94.855469 C 134.585938 95.089844 134.613281 95.300781 134.671875 95.5 C 134.738281 95.6875 134.828125 95.851562 134.941406 95.988281 C 135.058594 96.125 135.199219 96.234375 135.367188 96.3125 C 135.539062 96.386719 135.730469 96.421875 135.941406 96.421875 C 136.09375 96.421875 136.226562 96.40625 136.339844 96.367188 C 136.464844 96.324219 136.574219 96.265625 136.675781 96.191406 C 136.777344 96.121094 136.863281 96.039062 136.9375 95.941406 C 137.015625 95.851562 137.085938 95.742188 137.144531 95.617188 L 137.566406 95.835938 C 137.5 95.980469 137.417969 96.113281 137.316406 96.238281 C 137.214844 96.359375 137.09375 96.46875 136.960938 96.5625 C 136.820312 96.648438 136.667969 96.71875 136.492188 96.769531 C 136.320312 96.816406 136.128906 96.84375 135.917969 96.84375 C 135.605469 96.84375 135.335938 96.796875 135.105469 96.703125 C 134.871094 96.601562 134.675781 96.464844 134.519531 96.289062 C 134.367188 96.113281 134.253906 95.898438 134.171875 95.660156 C 134.09375 95.417969 134.054688 95.148438 134.054688 94.855469 C 134.054688 94.5625 134.09375 94.292969 134.171875 94.054688 C 134.261719 93.808594 134.382812 93.601562 134.542969 93.433594 C 134.699219 93.269531 134.894531 93.140625 135.128906 93.042969 C 135.359375 92.953125 135.621094 92.902344 135.917969 92.902344 C 136.324219 92.902344 136.660156 92.984375 136.925781 93.140625 C 137.199219 93.300781 137.402344 93.539062 137.535156 93.859375 L 137.046875 94.019531 C 137.007812 93.929688 136.960938 93.84375 136.894531 93.761719 C 136.835938 93.671875 136.757812 93.601562 136.667969 93.542969 C 136.570312 93.476562 136.464844 93.429688 136.339844 93.390625 C 136.21875 93.347656 136.074219 93.328125 135.917969 93.328125 Z M 135.917969 93.328125 "/>
<path style=" stroke:none;fill-rule:nonzero;fill:rgb(0%,0%,0%);fill-opacity:1;" d="M 59.164062 199.695312 C 59.164062 199.992188 59.121094 200.265625 59.035156 200.507812 C 58.949219 200.753906 58.820312 200.964844 58.65625 201.136719 C 58.496094 201.3125 58.296875 201.449219 58.058594 201.539062 C 57.828125 201.632812 57.5625 201.679688 57.269531 201.679688 C 56.949219 201.679688 56.671875 201.632812 56.433594 201.539062 C 56.199219 201.4375 56.003906 201.300781 55.847656 201.128906 C 55.6875 200.949219 55.570312 200.734375 55.492188 200.496094 C 55.410156 200.253906 55.371094 199.984375 55.371094 199.695312 C 55.371094 199.398438 55.410156 199.128906 55.492188 198.890625 C 55.578125 198.644531 55.699219 198.441406 55.859375 198.269531 C 56.023438 198.105469 56.222656 197.976562 56.457031 197.878906 C 56.695312 197.789062 56.964844 197.738281 57.269531 197.738281 C 57.570312 197.738281 57.84375 197.789062 58.082031 197.878906 C 58.320312 197.976562 58.519531 198.109375 58.675781 198.28125 C 58.835938 198.449219 58.953125 198.652344 59.035156 198.890625 C 59.121094 199.128906 59.164062 199.398438 59.164062 199.695312 Z M 58.632812 199.695312 C 58.632812 199.464844 58.605469 199.253906 58.546875 199.0625 C 58.488281 198.875 58.402344 198.714844 58.289062 198.585938 C 58.171875 198.449219 58.027344 198.34375 57.855469 198.269531 C 57.6875 198.199219 57.492188 198.164062 57.269531 198.164062 C 57.042969 198.164062 56.84375 198.199219 56.671875 198.269531 C 56.5 198.34375 56.351562 198.449219 56.238281 198.585938 C 56.128906 198.714844 56.046875 198.875 55.988281 199.0625 C 55.929688 199.253906 55.902344 199.464844 55.902344 199.695312 C 55.902344 199.925781 55.929688 200.140625 55.988281 200.335938 C 56.046875 200.523438 56.132812 200.6875 56.25 200.824219 C 56.363281 200.960938 56.503906 201.070312 56.671875 201.148438 C 56.84375 201.222656 57.042969 201.257812 57.269531 201.257812 C 57.507812 201.257812 57.710938 201.222656 57.886719 201.148438 C 58.058594 201.070312 58.199219 200.960938 58.308594 200.824219 C 58.417969 200.679688 58.496094 200.511719 58.546875 200.324219 C 58.605469 200.128906 58.632812 199.917969 58.632812 199.695312 Z M 58.632812 199.695312 "/>
<path style=" stroke:none;fill-rule:nonzero;fill:rgb(0%,0%,0%);fill-opacity:1;" d="M 84.996094 245.332031 C 84.996094 245.628906 84.953125 245.902344 84.867188 246.148438 C 84.78125 246.394531 84.652344 246.601562 84.488281 246.777344 C 84.328125 246.949219 84.128906 247.085938 83.890625 247.179688 C 83.660156 247.269531 83.394531 247.320312 83.101562 247.320312 C 82.78125 247.320312 82.503906 247.269531 82.265625 247.179688 C 82.03125 247.078125 81.835938 246.9375 81.679688 246.765625 C 81.519531 246.585938 81.402344 246.375 81.324219 246.136719 C 81.242188 245.890625 81.203125 245.621094 81.203125 245.332031 C 81.203125 245.035156 81.242188 244.765625 81.324219 244.527344 C 81.410156 244.285156 81.53125 244.078125 81.691406 243.910156 C 81.855469 243.742188 82.054688 243.613281 82.289062 243.519531 C 82.527344 243.425781 82.796875 243.378906 83.101562 243.378906 C 83.402344 243.378906 83.675781 243.425781 83.914062 243.519531 C 84.152344 243.613281 84.347656 243.746094 84.507812 243.921875 C 84.667969 244.089844 84.785156 244.289062 84.867188 244.527344 C 84.953125 244.765625 84.996094 245.035156 84.996094 245.332031 Z M 84.464844 245.332031 C 84.464844 245.101562 84.4375 244.890625 84.378906 244.703125 C 84.320312 244.515625 84.234375 244.355469 84.121094 244.222656 C 84.003906 244.089844 83.859375 243.984375 83.6875 243.910156 C 83.519531 243.839844 83.324219 243.800781 83.101562 243.800781 C 82.875 243.800781 82.675781 243.839844 82.503906 243.910156 C 82.332031 243.984375 82.183594 244.089844 82.070312 244.222656 C 81.960938 244.355469 81.878906 244.515625 81.820312 244.703125 C 81.761719 244.890625 81.734375 245.101562 81.734375 245.332031 C 81.734375 245.566406 81.761719 245.777344 81.820312 245.972656 C 81.878906 246.164062 81.964844 246.324219 82.082031 246.460938 C 82.195312 246.601562 82.335938 246.707031 82.503906 246.789062 C 82.675781 246.859375 82.875 246.894531 83.101562 246.894531 C 83.339844 246.894531 83.542969 246.859375 83.71875 246.789062 C 83.890625 246.707031 84.03125 246.601562 84.140625 246.460938 C 84.25 246.316406 84.328125 246.152344 84.378906 245.960938 C 84.4375 245.765625 84.464844 245.558594 84.464844 245.332031 Z M 84.464844 245.332031 "/>
<path style=" stroke:none;fill-rule:nonzero;fill:rgb(0%,0%,0%);fill-opacity:1;" d="M 128.460938 260.515625 C 128.460938 260.8125 128.417969 261.085938 128.332031 261.328125 C 128.242188 261.578125 128.117188 261.785156 127.953125 261.960938 C 127.792969 262.132812 127.59375 262.269531 127.355469 262.359375 C 127.121094 262.453125 126.859375 262.503906 126.5625 262.503906 C 126.242188 262.503906 125.96875 262.453125 125.730469 262.359375 C 125.496094 262.261719 125.300781 262.121094 125.144531 261.949219 C 124.984375 261.769531 124.863281 261.558594 124.785156 261.320312 C 124.703125 261.074219 124.667969 260.804688 124.667969 260.515625 C 124.667969 260.21875 124.703125 259.949219 124.785156 259.710938 C 124.871094 259.46875 124.996094 259.261719 125.15625 259.09375 C 125.320312 258.925781 125.519531 258.796875 125.75 258.703125 C 125.988281 258.609375 126.261719 258.5625 126.5625 258.5625 C 126.867188 258.5625 127.136719 258.609375 127.375 258.703125 C 127.613281 258.796875 127.8125 258.929688 127.972656 259.101562 C 128.128906 259.273438 128.25 259.472656 128.332031 259.710938 C 128.417969 259.949219 128.460938 260.21875 128.460938 260.515625 Z M 127.929688 260.515625 C 127.929688 260.285156 127.898438 260.074219 127.84375 259.886719 C 127.78125 259.699219 127.695312 259.539062 127.582031 259.40625 C 127.464844 259.273438 127.324219 259.164062 127.148438 259.09375 C 126.980469 259.023438 126.785156 258.984375 126.5625 258.984375 C 126.339844 258.984375 126.140625 259.023438 125.96875 259.09375 C 125.792969 259.164062 125.648438 259.273438 125.535156 259.40625 C 125.425781 259.539062 125.339844 259.699219 125.285156 259.886719 C 125.226562 260.074219 125.199219 260.285156 125.199219 260.515625 C 125.199219 260.75 125.226562 260.960938 125.285156 261.15625 C 125.339844 261.347656 125.429688 261.507812 125.542969 261.644531 C 125.660156 261.78125 125.800781 261.890625 125.96875 261.96875 C 126.140625 262.042969 126.339844 262.078125 126.5625 262.078125 C 126.800781 262.078125 127.007812 262.042969 127.179688 261.96875 C 127.355469 261.890625 127.496094 261.78125 127.605469 261.644531 C 127.710938 261.5 127.792969 261.335938 127.84375 261.144531 C 127.898438 260.949219 127.929688 260.742188 127.929688 260.515625 Z M 127.929688 260.515625 "/>
<path style=" stroke:none;fill-rule:nonzero;fill:rgb(0%,0%,0%);fill-opacity:1;" d="M 110.449219 290.683594 C 110.449219 290.984375 110.40625 291.253906 110.320312 291.5 C 110.234375 291.746094 110.105469 291.957031 109.941406 292.128906 C 109.78125 292.304688 109.582031 292.4375 109.34375 292.53125 C 109.109375 292.625 108.847656 292.671875 108.554688 292.671875 C 108.234375 292.671875 107.957031 292.625 107.71875 292.53125 C 107.484375 292.429688 107.289062 292.292969 107.132812 292.117188 C 106.972656 291.941406 106.855469 291.726562 106.773438 291.488281 C 106.695312 291.246094 106.65625 290.976562 106.65625 290.683594 C 106.65625 290.390625 106.695312 290.121094 106.773438 289.882812 C 106.863281 289.636719 106.984375 289.429688 107.144531 289.261719 C 107.308594 289.097656 107.507812 288.96875 107.738281 288.871094 C 107.976562 288.78125 108.25 288.730469 108.554688 288.730469 C 108.855469 288.730469 109.128906 288.78125 109.367188 288.871094 C 109.605469 288.96875 109.800781 289.101562 109.960938 289.273438 C 110.121094 289.441406 110.238281 289.644531 110.320312 289.882812 C 110.40625 290.121094 110.449219 290.390625 110.449219 290.683594 Z M 109.917969 290.683594 C 109.917969 290.453125 109.890625 290.246094 109.832031 290.054688 C 109.773438 289.867188 109.6875 289.707031 109.570312 289.578125 C 109.457031 289.441406 109.3125 289.335938 109.136719 289.261719 C 108.96875 289.191406 108.773438 289.15625 108.554688 289.15625 C 108.328125 289.15625 108.128906 289.191406 107.957031 289.261719 C 107.78125 289.335938 107.636719 289.441406 107.523438 289.578125 C 107.414062 289.707031 107.332031 289.867188 107.273438 290.054688 C 107.214844 290.246094 107.1875 290.453125 107.1875 290.683594 C 107.1875 290.917969 107.214844 291.128906 107.273438 291.328125 C 107.332031 291.515625 107.417969 291.679688 107.535156 291.816406 C 107.648438 291.953125 107.789062 292.0625 107.957031 292.140625 C 108.128906 292.214844 108.328125 292.25 108.554688 292.25 C 108.792969 292.25 108.996094 292.214844 109.171875 292.140625 C 109.34375 292.0625 109.484375 291.953125 109.59375 291.816406 C 109.703125 291.671875 109.78125 291.503906 109.832031 291.316406 C 109.890625 291.121094 109.917969 290.910156 109.917969 290.683594 Z M 109.917969 290.683594 "/>
<path style=" stroke:none;fill-rule:nonzero;fill:rgb(0%,0%,0%);fill-opacity:1;" d="M 75.941406 290.402344 C 75.941406 290.699219 75.898438 290.96875 75.808594 291.214844 C 75.722656 291.460938 75.597656 291.671875 75.429688 291.84375 C 75.269531 292.019531 75.074219 292.152344 74.835938 292.246094 C 74.601562 292.339844 74.339844 292.386719 74.042969 292.386719 C 73.722656 292.386719 73.445312 292.339844 73.207031 292.246094 C 72.976562 292.144531 72.78125 292.007812 72.625 291.832031 C 72.464844 291.65625 72.34375 291.441406 72.265625 291.203125 C 72.183594 290.960938 72.144531 290.691406 72.144531 290.402344 C 72.144531 290.105469 72.183594 289.835938 72.265625 289.597656 C 72.351562 289.351562 72.472656 289.144531 72.632812 288.976562 C 72.800781 288.8125 72.996094 288.683594 73.230469 288.585938 C 73.46875 288.496094 73.738281 288.445312 74.042969 288.445312 C 74.347656 288.445312 74.617188 288.496094 74.855469 288.585938 C 75.09375 288.683594 75.292969 288.816406 75.453125 288.988281 C 75.609375 289.15625 75.730469 289.359375 75.808594 289.597656 C 75.898438 289.835938 75.941406 290.105469 75.941406 290.402344 Z M 75.410156 290.402344 C 75.410156 290.167969 75.378906 289.960938 75.324219 289.769531 C 75.261719 289.582031 75.175781 289.421875 75.0625 289.292969 C 74.945312 289.15625 74.800781 289.050781 74.628906 288.976562 C 74.460938 288.90625 74.265625 288.871094 74.042969 288.871094 C 73.820312 288.871094 73.621094 288.90625 73.445312 288.976562 C 73.273438 289.050781 73.128906 289.15625 73.011719 289.292969 C 72.90625 289.421875 72.820312 289.582031 72.765625 289.769531 C 72.703125 289.960938 72.675781 290.167969 72.675781 290.402344 C 72.675781 290.632812 72.703125 290.84375 72.765625 291.042969 C 72.820312 291.230469 72.90625 291.394531 73.023438 291.53125 C 73.136719 291.667969 73.277344 291.777344 73.445312 291.855469 C 73.621094 291.929688 73.820312 291.964844 74.042969 291.964844 C 74.28125 291.964844 74.488281 291.929688 74.660156 291.855469 C 74.835938 291.777344 74.976562 291.667969 75.085938 291.53125 C 75.191406 291.386719 75.269531 291.21875 75.324219 291.03125 C 75.378906 290.835938 75.410156 290.625 75.410156 290.402344 Z M 75.410156 290.402344 "/>
<path style=" stroke:none;fill-rule:nonzero;fill:rgb(0%,0%,0%);fill-opacity:1;" d="M 50.207031 245.332031 C 50.207031 245.628906 50.164062 245.902344 50.074219 246.148438 C 49.988281 246.394531 49.863281 246.601562 49.695312 246.777344 C 49.535156 246.949219 49.339844 247.085938 49.101562 247.179688 C 48.867188 247.269531 48.605469 247.320312 48.308594 247.320312 C 47.988281 247.320312 47.710938 247.269531 47.472656 247.179688 C 47.242188 247.078125 47.046875 246.9375 46.890625 246.765625 C 46.730469 246.585938 46.609375 246.375 46.53125 246.136719 C 46.449219 245.890625 46.410156 245.621094 46.410156 245.332031 C 46.410156 245.035156 46.449219 244.765625 46.53125 244.527344 C 46.617188 244.285156 46.738281 244.078125 46.898438 243.910156 C 47.066406 243.742188 47.261719 243.613281 47.496094 243.519531 C 47.734375 243.425781 48.003906 243.378906 48.308594 243.378906 C 48.613281 243.378906 48.882812 243.425781 49.121094 243.519531 C 49.359375 243.613281 49.558594 243.746094 49.71875 243.921875 C 49.875 244.089844 49.996094 244.289062 50.074219 244.527344 C 50.164062 244.765625 50.207031 245.035156 50.207031 245.332031 Z M 49.675781 245.332031 C 49.675781 245.101562 49.644531 244.890625 49.589844 244.703125 C 49.527344 244.515625 49.441406 244.355469 49.328125 244.222656 C 49.210938 244.089844 49.066406 243.984375 48.894531 243.910156 C 48.726562 243.839844 48.53125 243.800781 48.308594 243.800781 C 48.085938 243.800781 47.886719 243.839844 47.710938 243.910156 C 47.539062 243.984375 47.394531 244.089844 47.277344 244.222656 C 47.171875 244.355469 47.085938 244.515625 47.03125 244.703125 C 46.96875 244.890625 46.941406 245.101562 46.941406 245.332031 C 46.941406 245.566406 46.96875 245.777344 47.03125 245.972656 C 47.085938 246.164062 47.171875 246.324219 47.289062 246.460938 C 47.402344 246.601562 47.542969 246.707031 47.710938 246.789062 C 47.886719 246.859375 48.085938 246.894531 48.308594 246.894531 C 48.546875 246.894531 48.753906 246.859375 48.925781 246.789062 C 49.101562 246.707031 49.242188 246.601562 49.347656 246.460938 C 49.457031 246.316406 49.535156 246.152344 49.589844 245.960938 C 49.644531 245.765625 49.675781 245.558594 49.675781 245.332031 Z M 49.675781 245.332031 "/>
<path style="fill:none;stroke-width:0.0333333;stroke-linecap:butt;stroke-linejoin:miter;stroke:rgb(0%,0%,0%);stroke-opacity:1;stroke-miterlimit:10;" d="M 4.544785 4.330636 L 5.016395 5.212674 " transform="matrix(17.344173,0,0,17.373646,48.311186,94.874349)"/>
<path style="fill:none;stroke-width:0.0333333;stroke-linecap:butt;stroke-linejoin:miter;stroke:rgb(0%,0%,0%);stroke-opacity:1;stroke-miterlimit:10;" d="M 4.445913 4.498814 L 4.825634 5.209076 " transform="matrix(17.344173,0,0,17.373646,48.311186,94.874349)"/>
<path style="fill:none;stroke-width:0.0333333;stroke-linecap:butt;stroke-linejoin:miter;stroke:rgb(0%,0%,0%);stroke-opacity:1;stroke-miterlimit:10;" d="M 4.54028 4.33873 L 5.049727 3.453994 " transform="matrix(17.344173,0,0,17.373646,48.311186,94.874349)"/>
<path style="fill:none;stroke-width:0.0333333;stroke-linecap:butt;stroke-linejoin:miter;stroke:rgb(0%,0%,0%);stroke-opacity:1;stroke-miterlimit:10;" d="M 4.554469 4.330411 L 3.871603 4.341653 " transform="matrix(17.344173,0,0,17.373646,48.311186,94.874349)"/>
<path style="fill:none;stroke-width:0.0333333;stroke-linecap:butt;stroke-linejoin:miter;stroke:rgb(0%,0%,0%);stroke-opacity:1;stroke-miterlimit:10;" d="M 5.01662 5.196261 L 4.506948 6.075376 " transform="matrix(17.344173,0,0,17.373646,48.311186,94.874349)"/>
<path style="fill:none;stroke-width:0.0333333;stroke-linecap:butt;stroke-linejoin:miter;stroke:rgb(0%,0%,0%);stroke-opacity:1;stroke-miterlimit:10;" d="M 5.035538 3.462313 L 6.037991 3.445675 " transform="matrix(17.344173,0,0,17.373646,48.311186,94.874349)"/>
<path style="fill:none;stroke-width:0.0333333;stroke-linecap:butt;stroke-linejoin:miter;stroke:rgb(0%,0%,0%);stroke-opacity:1;stroke-miterlimit:10;" d="M 5.044998 3.462088 L 4.523164 2.601634 " transform="matrix(17.344173,0,0,17.373646,48.311186,94.874349)"/>
<path style="fill:none;stroke-width:0.0333333;stroke-linecap:butt;stroke-linejoin:miter;stroke:rgb(0%,0%,0%);stroke-opacity:1;stroke-miterlimit:10;" d="M 5.137788 3.293909 L 4.718204 2.602084 " transform="matrix(17.344173,0,0,17.373646,48.311186,94.874349)"/>
<path style="fill:none;stroke-width:0.0333333;stroke-linecap:butt;stroke-linejoin:miter;stroke:rgb(0%,0%,0%);stroke-opacity:1;stroke-miterlimit:10;" d="M 3.436478 4.528268 L 3.011489 5.204355 " transform="matrix(17.344173,0,0,17.373646,48.311186,94.874349)"/>
<path style="fill:none;stroke-width:0.0333333;stroke-linecap:butt;stroke-linejoin:miter;stroke:rgb(0%,0%,0%);stroke-opacity:1;stroke-miterlimit:10;" d="M 3.577466 4.616854 L 3.207205 5.206603 " transform="matrix(17.344173,0,0,17.373646,48.311186,94.874349)"/>
<path style="fill:none;stroke-width:0.0333333;stroke-linecap:butt;stroke-linejoin:miter;stroke:rgb(0%,0%,0%);stroke-opacity:1;stroke-miterlimit:10;" d="M 4.521362 6.067057 L 3.528368 6.067057 " transform="matrix(17.344173,0,0,17.373646,48.311186,94.874349)"/>
<path style="fill:none;stroke-width:0.0333333;stroke-linecap:butt;stroke-linejoin:miter;stroke:rgb(0%,0%,0%);stroke-opacity:1;stroke-miterlimit:10;" d="M 4.425418 5.900452 L 3.622735 5.900452 " transform="matrix(17.344173,0,0,17.373646,48.311186,94.874349)"/>
<path style="fill:none;stroke-width:0.0333333;stroke-linecap:butt;stroke-linejoin:miter;stroke:rgb(0%,0%,0%);stroke-opacity:1;stroke-miterlimit:10;" d="M 6.024028 3.453769 L 6.534376 2.610403 " transform="matrix(17.344173,0,0,17.373646,48.311186,94.874349)"/>
<path style="fill:none;stroke-width:0.0333333;stroke-linecap:butt;stroke-linejoin:miter;stroke:rgb(0%,0%,0%);stroke-opacity:1;stroke-miterlimit:10;" d="M 5.928985 3.288513 L 6.341813 2.60658 " transform="matrix(17.344173,0,0,17.373646,48.311186,94.874349)"/>
<path style="fill:none;stroke-width:0.0333333;stroke-linecap:butt;stroke-linejoin:miter;stroke:rgb(0%,0%,0%);stroke-opacity:1;stroke-miterlimit:10;" d="M 4.523164 2.618947 L 5.066844 1.72814 " transform="matrix(17.344173,0,0,17.373646,48.311186,94.874349)"/>
<path style="fill:none;stroke-width:0.0333333;stroke-linecap:butt;stroke-linejoin:miter;stroke:rgb(0%,0%,0%);stroke-opacity:1;stroke-miterlimit:10;" d="M 3.020723 5.20458 L 1.995523 5.170854 " transform="matrix(17.344173,0,0,17.373646,48.311186,94.874349)"/>
<path style="fill:none;stroke-width:0.0333333;stroke-linecap:butt;stroke-linejoin:miter;stroke:rgb(0%,0%,0%);stroke-opacity:1;stroke-miterlimit:10;" d="M 3.533098 6.058738 L 3.040092 6.927061 " transform="matrix(17.344173,0,0,17.373646,48.311186,94.874349)"/>
<path style="fill:none;stroke-width:0.0333333;stroke-linecap:butt;stroke-linejoin:miter;stroke:rgb(0%,0%,0%);stroke-opacity:1;stroke-miterlimit:10;" d="M 6.53933 2.619171 L 6.046325 1.728365 " transform="matrix(17.344173,0,0,17.373646,48.311186,94.874349)"/>
<path style="fill:none;stroke-width:0.0333333;stroke-linecap:butt;stroke-linejoin:miter;stroke:rgb(0%,0%,0%);stroke-opacity:1;stroke-miterlimit:10;" d="M 6.524466 2.610628 L 7.369265 2.596463 " transform="matrix(17.344173,0,0,17.373646,48.311186,94.874349)"/>
<path style="fill:none;stroke-width:0.0333333;stroke-linecap:butt;stroke-linejoin:miter;stroke:rgb(0%,0%,0%);stroke-opacity:1;stroke-miterlimit:10;" d="M 5.066619 1.745227 L 4.668881 1.068016 " transform="matrix(17.344173,0,0,17.373646,48.311186,94.874349)"/>
<path style="fill:none;stroke-width:0.0333333;stroke-linecap:butt;stroke-linejoin:miter;stroke:rgb(0%,0%,0%);stroke-opacity:1;stroke-miterlimit:10;" d="M 2.010837 5.162085 L 1.533372 6.067057 " transform="matrix(17.344173,0,0,17.373646,48.311186,94.874349)"/>
<path style="fill:none;stroke-width:0.0333333;stroke-linecap:butt;stroke-linejoin:miter;stroke:rgb(0%,0%,0%);stroke-opacity:1;stroke-miterlimit:10;" d="M 2.109484 5.332063 L 1.722781 6.065033 " transform="matrix(17.344173,0,0,17.373646,48.311186,94.874349)"/>
<path style="fill:none;stroke-width:0.0333333;stroke-linecap:butt;stroke-linejoin:miter;stroke:rgb(0%,0%,0%);stroke-opacity:1;stroke-miterlimit:10;" d="M 3.040317 6.911098 L 3.412605 7.60742 " transform="matrix(17.344173,0,0,17.373646,48.311186,94.874349)"/>
<path style="fill:none;stroke-width:0.0333333;stroke-linecap:butt;stroke-linejoin:miter;stroke:rgb(0%,0%,0%);stroke-opacity:1;stroke-miterlimit:10;" d="M 3.044821 6.918967 L 1.996198 6.918967 " transform="matrix(17.344173,0,0,17.373646,48.311186,94.874349)"/>
<path style="fill:none;stroke-width:0.0333333;stroke-linecap:butt;stroke-linejoin:miter;stroke:rgb(0%,0%,0%);stroke-opacity:1;stroke-miterlimit:10;" d="M 2.947752 6.752362 L 2.094169 6.752362 " transform="matrix(17.344173,0,0,17.373646,48.311186,94.874349)"/>
<path style="fill:none;stroke-width:0.0333333;stroke-linecap:butt;stroke-linejoin:miter;stroke:rgb(0%,0%,0%);stroke-opacity:1;stroke-miterlimit:10;" d="M 6.046099 1.744778 L 6.445189 1.052053 " transform="matrix(17.344173,0,0,17.373646,48.311186,94.874349)"/>
<path style="fill:none;stroke-width:0.0333333;stroke-linecap:butt;stroke-linejoin:miter;stroke:rgb(0%,0%,0%);stroke-opacity:1;stroke-miterlimit:10;" d="M 7.63052 2.777232 L 7.924432 3.282218 " transform="matrix(17.344173,0,0,17.373646,48.311186,94.874349)"/>
<path style="fill:none;stroke-width:0.0333333;stroke-linecap:butt;stroke-linejoin:miter;stroke:rgb(0%,0%,0%);stroke-opacity:1;stroke-miterlimit:10;" d="M 4.662575 0.699732 L 4.945676 0.181481 " transform="matrix(17.344173,0,0,17.373646,48.311186,94.874349)"/>
<path style="fill:none;stroke-width:0.0333333;stroke-linecap:butt;stroke-linejoin:miter;stroke:rgb(0%,0%,0%);stroke-opacity:1;stroke-miterlimit:10;" d="M 1.542831 6.067507 L 0.672357 6.039402 " transform="matrix(17.344173,0,0,17.373646,48.311186,94.874349)"/>
<path style="fill:none;stroke-width:0.0333333;stroke-linecap:butt;stroke-linejoin:miter;stroke:rgb(0%,0%,0%);stroke-opacity:1;stroke-miterlimit:10;" d="M 3.056758 8.604125 L 3.03829 8.593783 M 3.101802 8.547241 L 3.065091 8.526106 M 3.146846 8.490357 L 3.091667 8.458655 M 3.191664 8.433473 L 3.118243 8.390979 M 3.236934 8.376589 L 3.144819 8.323528 M 3.281978 8.319705 L 3.17162 8.256076 M 3.326796 8.262597 L 3.198196 8.188625 M 3.37184 8.205713 L 3.224772 8.120949 M 3.416884 8.148604 L 3.251573 8.053498 M 3.462153 8.091945 L 3.278149 7.985822 M 3.506972 8.035061 L 3.30495 7.91837 " transform="matrix(17.344173,0,0,17.373646,48.311186,94.874349)"/>
<path style="fill:none;stroke-width:0.0333333;stroke-linecap:butt;stroke-linejoin:miter;stroke:rgb(0%,0%,0%);stroke-opacity:1;stroke-miterlimit:10;" d="M 3.021173 8.661234 L 2.158582 8.661234 " transform="matrix(17.344173,0,0,17.373646,48.311186,94.874349)"/>
<path style="fill:none;stroke-width:0.0333333;stroke-linecap:butt;stroke-linejoin:miter;stroke:rgb(0%,0%,0%);stroke-opacity:1;stroke-miterlimit:10;" d="M 3.006984 8.65269 L 3.516657 9.543497 " transform="matrix(17.344173,0,0,17.373646,48.311186,94.874349)"/>
<path style="fill:none;stroke-width:0.0333333;stroke-linecap:butt;stroke-linejoin:miter;stroke:rgb(0%,0%,0%);stroke-opacity:1;stroke-miterlimit:10;" d="M 1.902732 8.845601 L 1.512201 9.543047 " transform="matrix(17.344173,0,0,17.373646,48.311186,94.874349)"/>
<path style="fill:none;stroke-width:0.0333333;stroke-linecap:butt;stroke-linejoin:miter;stroke:rgb(0%,0%,0%);stroke-opacity:1;stroke-miterlimit:10;" d="M 3.516657 9.526634 L 3.006984 10.394957 " transform="matrix(17.344173,0,0,17.373646,48.311186,94.874349)"/>
<path style="fill:none;stroke-width:0.0333333;stroke-linecap:butt;stroke-linejoin:miter;stroke:rgb(0%,0%,0%);stroke-opacity:1;stroke-miterlimit:10;" d="M 3.582421 9.544846 L 3.582421 9.525285 M 3.652914 9.554514 L 3.652914 9.515617 M 3.723633 9.564182 L 3.723633 9.505949 M 3.794352 9.57385 L 3.794352 9.496056 M 3.864846 9.583518 L 3.864846 9.486388 M 3.935565 9.593411 L 3.935565 9.47672 M 4.006059 9.603079 L 4.006059 9.467052 M 4.076778 9.612747 L 4.076778 9.457384 M 4.147272 9.622415 L 4.147272 9.447491 M 4.217991 9.632083 L 4.217991 9.437823 M 4.288485 9.641976 L 4.288485 9.428155 M 4.358978 9.651644 L 4.358978 9.418487 " transform="matrix(17.344173,0,0,17.373646,48.311186,94.874349)"/>
<path style="fill:none;stroke-width:0.0333333;stroke-linecap:butt;stroke-linejoin:miter;stroke:rgb(0%,0%,0%);stroke-opacity:1;stroke-miterlimit:10;" d="M 1.512201 9.526859 L 1.994171 10.395182 " transform="matrix(17.344173,0,0,17.373646,48.311186,94.874349)"/>
<path style=" stroke:none;fill-rule:nonzero;fill:rgb(0%,0%,0%);fill-opacity:1;" d="M 74.617188 260.53125 L 55.820312 258.355469 L 57.105469 260.53125 L 57.105469 262.558594 "/>
<path style=" stroke:none;fill-rule:nonzero;fill:rgb(0%,0%,0%);fill-opacity:1;" d="M 100.542969 275.328125 L 105.074219 288.410156 L 108.664062 286.535156 "/>
<path style="fill:none;stroke-width:0.0333333;stroke-linecap:butt;stroke-linejoin:miter;stroke:rgb(0%,0%,0%);stroke-opacity:1;stroke-miterlimit:10;" d="M 1.944172 10.443522 L 1.962415 10.454314 M 1.898678 10.500631 L 1.935164 10.521766 M 1.853184 10.557515 L 1.908137 10.589442 M 1.807689 10.614399 L 1.881111 10.657118 M 1.76242 10.671283 L 1.853859 10.724794 M 1.716926 10.728167 L 1.826833 10.792245 M 1.671431 10.785275 L 1.799807 10.859921 M 1.625937 10.842159 L 1.77278 10.927598 M 1.580668 10.899268 L 1.745754 10.995049 M 1.535173 10.956152 L 1.718502 11.062725 M 1.489679 11.013036 L 1.691476 11.130401 " transform="matrix(17.344173,0,0,17.373646,48.311186,94.874349)"/>
<path style="fill:none;stroke-width:0.0333333;stroke-linecap:butt;stroke-linejoin:miter;stroke:rgb(0%,0%,0%);stroke-opacity:1;stroke-miterlimit:10;" d="M 0.521234 9.543272 L 0.108181 8.844252 " transform="matrix(17.344173,0,0,17.373646,48.311186,94.874349)"/>
<path style="fill:none;stroke-width:0.0333333;stroke-linecap:butt;stroke-linejoin:miter;stroke:rgb(0%,0%,0%);stroke-opacity:1;stroke-miterlimit:10;" d="M 3.006984 5.196486 L 3.533323 6.075376 " transform="matrix(17.344173,0,0,17.373646,48.311186,94.874349)"/>
<path style="fill:none;stroke-width:0.0333333;stroke-linecap:butt;stroke-linejoin:miter;stroke:rgb(0%,0%,0%);stroke-opacity:1;stroke-miterlimit:10;" d="M 5.061664 1.736684 L 6.050829 1.736684 " transform="matrix(17.344173,0,0,17.373646,48.311186,94.874349)"/>
<path style="fill:none;stroke-width:0.0333333;stroke-linecap:butt;stroke-linejoin:miter;stroke:rgb(0%,0%,0%);stroke-opacity:1;stroke-miterlimit:10;" d="M 5.15513 1.903288 L 5.952633 1.903288 " transform="matrix(17.344173,0,0,17.373646,48.311186,94.874349)"/>
<path style="fill:none;stroke-width:0.0333333;stroke-linecap:butt;stroke-linejoin:miter;stroke:rgb(0%,0%,0%);stroke-opacity:1;stroke-miterlimit:10;" d="M 1.528867 6.058963 L 2.010612 6.927511 " transform="matrix(17.344173,0,0,17.373646,48.311186,94.874349)"/>
<path style="fill:none;stroke-width:0.0333333;stroke-linecap:butt;stroke-linejoin:miter;stroke:rgb(0%,0%,0%);stroke-opacity:1;stroke-miterlimit:10;" d="M 3.021173 10.386638 L 1.979532 10.386638 " transform="matrix(17.344173,0,0,17.373646,48.311186,94.874349)"/>
</g>
</svg>
