<?xml version="1.0" encoding="UTF-8"?>
<svg xmlns="http://www.w3.org/2000/svg" xmlns:xlink="http://www.w3.org/1999/xlink" width="94.4pt" height="60pt" viewBox="0 0 94.4 60" version="1.1">
<g id="surface1382">
<path style=" stroke:none;fill-rule:nonzero;fill:rgb(0%,0%,0%);fill-opacity:1;" d="M 17.253906 15.496094 C 17.035156 15.496094 16.84375 15.535156 16.679688 15.605469 C 16.507812 15.679688 16.367188 15.78125 16.253906 15.917969 C 16.144531 16.046875 16.0625 16.203125 16.003906 16.390625 C 15.945312 16.578125 15.917969 16.785156 15.917969 17.015625 C 15.917969 17.246094 15.945312 17.453125 16.003906 17.648438 C 16.070312 17.835938 16.160156 17.996094 16.277344 18.132812 C 16.390625 18.269531 16.53125 18.375 16.699219 18.453125 C 16.871094 18.527344 17.0625 18.5625 17.273438 18.5625 C 17.425781 18.5625 17.558594 18.546875 17.675781 18.507812 C 17.796875 18.464844 17.910156 18.410156 18.011719 18.335938 C 18.113281 18.265625 18.199219 18.183594 18.273438 18.089844 C 18.351562 17.996094 18.417969 17.890625 18.476562 17.765625 L 18.902344 17.980469 C 18.835938 18.125 18.753906 18.257812 18.652344 18.378906 C 18.546875 18.503906 18.429688 18.609375 18.292969 18.703125 C 18.15625 18.789062 18 18.859375 17.828125 18.90625 C 17.652344 18.953125 17.460938 18.980469 17.253906 18.980469 C 16.941406 18.980469 16.667969 18.933594 16.4375 18.839844 C 16.207031 18.742188 16.011719 18.605469 15.855469 18.433594 C 15.703125 18.253906 15.585938 18.046875 15.507812 17.808594 C 15.425781 17.566406 15.386719 17.300781 15.386719 17.015625 C 15.386719 16.722656 15.425781 16.453125 15.507812 16.21875 C 15.59375 15.976562 15.714844 15.773438 15.875 15.605469 C 16.03125 15.441406 16.226562 15.3125 16.460938 15.21875 C 16.691406 15.125 16.953125 15.078125 17.253906 15.078125 C 17.65625 15.078125 17.992188 15.160156 18.261719 15.316406 C 18.535156 15.472656 18.738281 15.710938 18.867188 16.023438 L 18.378906 16.1875 C 18.34375 16.09375 18.292969 16.007812 18.230469 15.929688 C 18.167969 15.84375 18.09375 15.773438 18 15.710938 C 17.90625 15.648438 17.796875 15.601562 17.675781 15.5625 C 17.550781 15.519531 17.410156 15.496094 17.253906 15.496094 Z M 17.253906 15.496094 "/>
<path style=" stroke:none;fill-rule:nonzero;fill:rgb(0%,0%,0%);fill-opacity:1;" d="M 49.097656 17.015625 C 49.097656 17.308594 49.054688 17.578125 48.96875 17.820312 C 48.882812 18.066406 48.753906 18.273438 48.589844 18.445312 C 48.429688 18.617188 48.230469 18.75 47.992188 18.839844 C 47.757812 18.933594 47.496094 18.980469 47.199219 18.980469 C 46.878906 18.980469 46.601562 18.933594 46.363281 18.839844 C 46.132812 18.742188 45.9375 18.605469 45.777344 18.433594 C 45.621094 18.253906 45.5 18.046875 45.421875 17.808594 C 45.339844 17.566406 45.300781 17.300781 45.300781 17.015625 C 45.300781 16.722656 45.339844 16.453125 45.421875 16.21875 C 45.507812 15.976562 45.628906 15.773438 45.789062 15.605469 C 45.957031 15.441406 46.152344 15.3125 46.386719 15.21875 C 46.625 15.125 46.894531 15.078125 47.199219 15.078125 C 47.503906 15.078125 47.773438 15.125 48.011719 15.21875 C 48.253906 15.3125 48.449219 15.445312 48.609375 15.617188 C 48.765625 15.78125 48.886719 15.980469 48.96875 16.21875 C 49.054688 16.453125 49.097656 16.722656 49.097656 17.015625 Z M 48.566406 17.015625 C 48.566406 16.785156 48.535156 16.578125 48.480469 16.390625 C 48.421875 16.203125 48.332031 16.046875 48.21875 15.917969 C 48.101562 15.78125 47.960938 15.679688 47.785156 15.605469 C 47.617188 15.535156 47.421875 15.496094 47.199219 15.496094 C 46.976562 15.496094 46.777344 15.535156 46.601562 15.605469 C 46.429688 15.679688 46.285156 15.78125 46.167969 15.917969 C 46.0625 16.046875 45.976562 16.203125 45.921875 16.390625 C 45.859375 16.578125 45.832031 16.785156 45.832031 17.015625 C 45.832031 17.246094 45.859375 17.453125 45.921875 17.648438 C 45.976562 17.835938 46.0625 17.996094 46.179688 18.132812 C 46.292969 18.269531 46.433594 18.375 46.601562 18.453125 C 46.777344 18.527344 46.976562 18.5625 47.199219 18.5625 C 47.4375 18.5625 47.644531 18.527344 47.816406 18.453125 C 47.992188 18.375 48.132812 18.269531 48.242188 18.132812 C 48.351562 17.988281 48.429688 17.824219 48.480469 17.636719 C 48.535156 17.445312 48.566406 17.238281 48.566406 17.015625 Z M 48.566406 17.015625 "/>
<path style=" stroke:none;fill-rule:nonzero;fill:rgb(0%,0%,0%);fill-opacity:1;" d="M 34.070312 42.816406 C 34.070312 43.113281 34.023438 43.382812 33.9375 43.621094 C 33.851562 43.867188 33.722656 44.074219 33.558594 44.246094 C 33.398438 44.417969 33.199219 44.554688 32.960938 44.644531 C 32.730469 44.734375 32.464844 44.785156 32.171875 44.785156 C 31.851562 44.785156 31.574219 44.734375 31.335938 44.644531 C 31.101562 44.542969 30.90625 44.40625 30.75 44.234375 C 30.589844 44.058594 30.46875 43.847656 30.390625 43.613281 C 30.3125 43.371094 30.273438 43.105469 30.273438 42.816406 C 30.273438 42.523438 30.3125 42.257812 30.390625 42.019531 C 30.480469 41.777344 30.601562 41.574219 30.761719 41.40625 C 30.925781 41.242188 31.125 41.113281 31.355469 41.019531 C 31.597656 40.929688 31.867188 40.882812 32.171875 40.882812 C 32.472656 40.882812 32.746094 40.929688 32.984375 41.019531 C 33.222656 41.113281 33.421875 41.246094 33.582031 41.417969 C 33.738281 41.585938 33.855469 41.785156 33.9375 42.019531 C 34.023438 42.257812 34.070312 42.523438 34.070312 42.816406 Z M 33.539062 42.816406 C 33.539062 42.589844 33.507812 42.382812 33.449219 42.191406 C 33.390625 42.007812 33.304688 41.847656 33.191406 41.71875 C 33.074219 41.585938 32.929688 41.480469 32.757812 41.40625 C 32.589844 41.339844 32.394531 41.300781 32.171875 41.300781 C 31.945312 41.300781 31.746094 41.339844 31.574219 41.40625 C 31.402344 41.480469 31.253906 41.585938 31.140625 41.71875 C 31.03125 41.847656 30.949219 42.007812 30.890625 42.191406 C 30.832031 42.382812 30.804688 42.589844 30.804688 42.816406 C 30.804688 43.046875 30.832031 43.257812 30.890625 43.449219 C 30.949219 43.640625 31.035156 43.800781 31.152344 43.933594 C 31.265625 44.070312 31.40625 44.179688 31.574219 44.257812 C 31.746094 44.328125 31.945312 44.363281 32.171875 44.363281 C 32.410156 44.363281 32.617188 44.328125 32.789062 44.257812 C 32.960938 44.179688 33.101562 44.070312 33.210938 43.933594 C 33.320312 43.792969 33.398438 43.628906 33.449219 43.441406 C 33.507812 43.246094 33.539062 43.039062 33.539062 42.816406 Z M 33.539062 42.816406 "/>
<path style=" stroke:none;fill-rule:nonzero;fill:rgb(0%,0%,0%);fill-opacity:1;" d="M 62.335938 41.300781 C 62.117188 41.300781 61.925781 41.339844 61.761719 41.40625 C 61.59375 41.480469 61.449219 41.585938 61.335938 41.71875 C 61.230469 41.847656 61.144531 42.007812 61.085938 42.191406 C 61.027344 42.382812 61 42.589844 61 42.816406 C 61 43.046875 61.027344 43.257812 61.085938 43.449219 C 61.152344 43.640625 61.242188 43.800781 61.359375 43.933594 C 61.472656 44.070312 61.613281 44.179688 61.78125 44.257812 C 61.957031 44.328125 62.144531 44.363281 62.355469 44.363281 C 62.507812 44.363281 62.640625 44.347656 62.757812 44.3125 C 62.878906 44.269531 62.992188 44.210938 63.09375 44.140625 C 63.195312 44.070312 63.28125 43.984375 63.355469 43.890625 C 63.433594 43.800781 63.5 43.691406 63.5625 43.570312 L 63.984375 43.785156 C 63.917969 43.929688 63.835938 44.0625 63.734375 44.183594 C 63.632812 44.304688 63.511719 44.414062 63.375 44.503906 C 63.238281 44.589844 63.082031 44.660156 62.910156 44.707031 C 62.734375 44.757812 62.542969 44.785156 62.335938 44.785156 C 62.023438 44.785156 61.753906 44.734375 61.523438 44.644531 C 61.289062 44.542969 61.09375 44.40625 60.9375 44.234375 C 60.785156 44.058594 60.667969 43.847656 60.589844 43.613281 C 60.507812 43.371094 60.46875 43.105469 60.46875 42.816406 C 60.46875 42.523438 60.507812 42.257812 60.589844 42.019531 C 60.675781 41.777344 60.796875 41.574219 60.957031 41.40625 C 61.113281 41.242188 61.308594 41.113281 61.542969 41.019531 C 61.773438 40.929688 62.035156 40.882812 62.335938 40.882812 C 62.738281 40.882812 63.074219 40.960938 63.34375 41.117188 C 63.617188 41.277344 63.820312 41.511719 63.949219 41.828125 L 63.464844 41.988281 C 63.425781 41.898438 63.375 41.8125 63.3125 41.730469 C 63.25 41.644531 63.175781 41.574219 63.082031 41.515625 C 62.988281 41.449219 62.878906 41.402344 62.757812 41.363281 C 62.632812 41.320312 62.492188 41.300781 62.335938 41.300781 Z M 62.335938 41.300781 "/>
<path style=" stroke:none;fill-rule:nonzero;fill:rgb(0%,0%,0%);fill-opacity:1;" d="M 77.363281 15.496094 C 77.148438 15.496094 76.953125 15.535156 76.789062 15.605469 C 76.621094 15.679688 76.480469 15.78125 76.367188 15.917969 C 76.257812 16.046875 76.175781 16.203125 76.117188 16.390625 C 76.058594 16.578125 76.03125 16.785156 76.03125 17.015625 C 76.03125 17.246094 76.058594 17.453125 76.117188 17.648438 C 76.183594 17.835938 76.273438 17.996094 76.386719 18.132812 C 76.503906 18.269531 76.644531 18.375 76.8125 18.453125 C 76.984375 18.527344 77.175781 18.5625 77.386719 18.5625 C 77.539062 18.5625 77.671875 18.546875 77.789062 18.507812 C 77.910156 18.464844 78.019531 18.410156 78.125 18.335938 C 78.222656 18.265625 78.3125 18.183594 78.382812 18.089844 C 78.460938 17.996094 78.53125 17.890625 78.589844 17.765625 L 79.011719 17.980469 C 78.949219 18.125 78.863281 18.257812 78.761719 18.378906 C 78.660156 18.503906 78.542969 18.609375 78.40625 18.703125 C 78.265625 18.789062 78.113281 18.859375 77.9375 18.90625 C 77.765625 18.953125 77.574219 18.980469 77.363281 18.980469 C 77.050781 18.980469 76.78125 18.933594 76.550781 18.839844 C 76.316406 18.742188 76.121094 18.605469 75.964844 18.433594 C 75.8125 18.253906 75.695312 18.046875 75.617188 17.808594 C 75.535156 17.566406 75.5 17.300781 75.5 17.015625 C 75.5 16.722656 75.535156 16.453125 75.617188 16.21875 C 75.703125 15.976562 75.828125 15.773438 75.988281 15.605469 C 76.144531 15.441406 76.339844 15.3125 76.574219 15.21875 C 76.804688 15.125 77.066406 15.078125 77.363281 15.078125 C 77.769531 15.078125 78.105469 15.160156 78.371094 15.316406 C 78.648438 15.472656 78.851562 15.710938 78.980469 16.023438 L 78.492188 16.1875 C 78.453125 16.09375 78.40625 16.007812 78.339844 15.929688 C 78.28125 15.84375 78.203125 15.773438 78.113281 15.710938 C 78.019531 15.648438 77.910156 15.601562 77.789062 15.5625 C 77.664062 15.519531 77.523438 15.496094 77.363281 15.496094 Z M 77.363281 15.496094 "/>
<path style="fill:none;stroke-width:0.0333333;stroke-linecap:butt;stroke-linejoin:miter;stroke:rgb(0%,0%,0%);stroke-opacity:1;stroke-miterlimit:10;" d="M 0.857694 0.50489 L 1.54967 0.105223 " transform="matrix(17.352941,0,0,17.201835,17.143824,17.029811)"/>
<path style="fill:none;stroke-width:0.0333333;stroke-linecap:butt;stroke-linejoin:miter;stroke:rgb(0%,0%,0%);stroke-opacity:1;stroke-miterlimit:10;" d="M 0.782734 0.451979 L 0.782734 1.343282 " transform="matrix(17.352941,0,0,17.201835,17.143824,17.029811)"/>
<path style="fill:none;stroke-width:0.0333333;stroke-linecap:butt;stroke-linejoin:miter;stroke:rgb(0%,0%,0%);stroke-opacity:1;stroke-miterlimit:10;" d="M 0.949312 0.451979 L 0.949312 1.343282 " transform="matrix(17.352941,0,0,17.201835,17.143824,17.029811)"/>
<path style="fill:none;stroke-width:0.0333333;stroke-linecap:butt;stroke-linejoin:miter;stroke:rgb(0%,0%,0%);stroke-opacity:1;stroke-miterlimit:10;" d="M 1.914342 0.105223 L 2.598213 0.499894 " transform="matrix(17.352941,0,0,17.201835,17.143824,17.029811)"/>
<path style="fill:none;stroke-width:0.0333333;stroke-linecap:butt;stroke-linejoin:miter;stroke:rgb(0%,0%,0%);stroke-opacity:1;stroke-miterlimit:10;" d="M 2.598213 0.499894 L 2.598213 1.343282 " transform="matrix(17.352941,0,0,17.201835,17.143824,17.029811)"/>
<path style="fill:none;stroke-width:0.0333333;stroke-linecap:butt;stroke-linejoin:miter;stroke:rgb(0%,0%,0%);stroke-opacity:1;stroke-miterlimit:10;" d="M 2.598213 0.499894 L 3.287938 0.101817 " transform="matrix(17.352941,0,0,17.201835,17.143824,17.029811)"/>
<path style="fill:none;stroke-width:0.0333333;stroke-linecap:butt;stroke-linejoin:miter;stroke:rgb(0%,0%,0%);stroke-opacity:1;stroke-miterlimit:10;" d="M 0.176299 0.101817 L 0.874352 0.50489 " transform="matrix(17.352941,0,0,17.201835,17.143824,17.029811)"/>
</g>
</svg>
