<?xml version="1.0" encoding="UTF-8"?>
<svg xmlns="http://www.w3.org/2000/svg" xmlns:xlink="http://www.w3.org/1999/xlink" width="155.2pt" height="114.4pt" viewBox="0 0 155.2 114.4" version="1.1">
<g id="surface142">
<path style=" stroke:none;fill-rule:nonzero;fill:rgb(0%,0%,0%);fill-opacity:1;" d="M 125.425781 9.648438 C 125.207031 9.648438 125.015625 9.6875 124.847656 9.757812 C 124.679688 9.828125 124.539062 9.933594 124.425781 10.070312 C 124.316406 10.199219 124.230469 10.359375 124.175781 10.546875 C 124.117188 10.738281 124.089844 10.945312 124.089844 11.175781 C 124.089844 11.410156 124.117188 11.621094 124.175781 11.816406 C 124.242188 12.007812 124.332031 12.167969 124.445312 12.304688 C 124.5625 12.445312 124.703125 12.550781 124.871094 12.628906 C 125.042969 12.703125 125.234375 12.738281 125.445312 12.738281 C 125.597656 12.738281 125.730469 12.722656 125.847656 12.683594 C 125.972656 12.640625 126.082031 12.585938 126.183594 12.511719 C 126.285156 12.441406 126.371094 12.355469 126.445312 12.261719 C 126.523438 12.167969 126.59375 12.0625 126.652344 11.9375 L 127.078125 12.152344 C 127.011719 12.300781 126.925781 12.433594 126.828125 12.554688 C 126.722656 12.679688 126.605469 12.789062 126.46875 12.878906 C 126.328125 12.96875 126.175781 13.039062 126 13.085938 C 125.828125 13.136719 125.632812 13.164062 125.425781 13.164062 C 125.113281 13.164062 124.839844 13.113281 124.609375 13.019531 C 124.375 12.921875 124.179688 12.78125 124.023438 12.609375 C 123.871094 12.429688 123.753906 12.21875 123.675781 11.980469 C 123.59375 11.734375 123.554688 11.46875 123.554688 11.175781 C 123.554688 10.882812 123.59375 10.613281 123.675781 10.375 C 123.761719 10.128906 123.882812 9.925781 124.046875 9.757812 C 124.203125 9.589844 124.398438 9.460938 124.632812 9.367188 C 124.863281 9.273438 125.125 9.226562 125.425781 9.226562 C 125.828125 9.226562 126.167969 9.304688 126.433594 9.464844 C 126.710938 9.625 126.914062 9.863281 127.042969 10.179688 L 126.554688 10.34375 C 126.515625 10.25 126.46875 10.164062 126.402344 10.082031 C 126.34375 9.996094 126.265625 9.925781 126.175781 9.863281 C 126.078125 9.800781 125.972656 9.75 125.847656 9.714844 C 125.722656 9.667969 125.582031 9.648438 125.425781 9.648438 Z M 125.425781 9.648438 "/>
<path style=" stroke:none;fill-rule:nonzero;fill:rgb(0%,0%,0%);fill-opacity:1;" d="M 128.3125 10.679688 C 128.371094 10.578125 128.429688 10.492188 128.488281 10.429688 C 128.554688 10.359375 128.621094 10.296875 128.695312 10.253906 C 128.773438 10.207031 128.855469 10.167969 128.945312 10.148438 C 129.035156 10.125 129.140625 10.113281 129.257812 10.113281 C 129.445312 10.113281 129.597656 10.140625 129.714844 10.191406 C 129.835938 10.242188 129.933594 10.316406 129.996094 10.40625 C 130.070312 10.503906 130.121094 10.613281 130.148438 10.742188 C 130.175781 10.867188 130.195312 11.003906 130.195312 11.15625 L 130.195312 13.109375 L 129.695312 13.109375 L 129.695312 11.242188 C 129.695312 11.121094 129.683594 11.011719 129.671875 10.917969 C 129.65625 10.824219 129.628906 10.75 129.585938 10.6875 C 129.542969 10.625 129.480469 10.578125 129.398438 10.546875 C 129.320312 10.511719 129.21875 10.492188 129.097656 10.492188 C 128.980469 10.492188 128.875 10.515625 128.78125 10.558594 C 128.6875 10.601562 128.605469 10.664062 128.542969 10.742188 C 128.476562 10.816406 128.425781 10.90625 128.390625 11.015625 C 128.351562 11.125 128.335938 11.242188 128.335938 11.371094 L 128.335938 13.109375 L 127.847656 13.109375 L 127.847656 9.082031 L 128.335938 9.082031 L 128.335938 10.125 C 128.335938 10.191406 128.332031 10.253906 128.324219 10.308594 C 128.324219 10.371094 128.320312 10.421875 128.3125 10.472656 C 128.3125 10.523438 128.3125 10.566406 128.3125 10.601562 C 128.3125 10.640625 128.3125 10.664062 128.3125 10.679688 Z M 128.3125 10.679688 "/>
<path style=" stroke:none;fill-rule:nonzero;fill:rgb(0%,0%,0%);fill-opacity:1;" d="M 131.046875 9.550781 L 131.046875 9.082031 L 131.535156 9.082031 L 131.535156 9.550781 Z M 131.046875 13.109375 L 131.046875 10.167969 L 131.535156 10.167969 L 131.535156 13.109375 Z M 131.046875 13.109375 "/>
<path style=" stroke:none;fill-rule:nonzero;fill:rgb(0%,0%,0%);fill-opacity:1;" d="M 132.355469 13.109375 L 132.355469 10.851562 C 132.355469 10.796875 132.347656 10.734375 132.34375 10.667969 C 132.34375 10.601562 132.34375 10.542969 132.34375 10.484375 C 132.34375 10.425781 132.335938 10.371094 132.332031 10.320312 C 132.332031 10.261719 132.332031 10.210938 132.332031 10.167969 L 132.800781 10.167969 C 132.800781 10.210938 132.800781 10.261719 132.800781 10.320312 C 132.804688 10.371094 132.808594 10.425781 132.808594 10.484375 C 132.808594 10.535156 132.808594 10.589844 132.808594 10.644531 C 132.816406 10.699219 132.820312 10.742188 132.820312 10.777344 L 132.832031 10.777344 C 132.859375 10.660156 132.890625 10.566406 132.929688 10.484375 C 132.972656 10.394531 133.019531 10.328125 133.070312 10.277344 C 133.128906 10.226562 133.191406 10.1875 133.265625 10.15625 C 133.335938 10.128906 133.425781 10.113281 133.527344 10.113281 C 133.5625 10.113281 133.597656 10.121094 133.636719 10.125 C 133.671875 10.132812 133.699219 10.140625 133.722656 10.148438 L 133.722656 10.589844 C 133.691406 10.585938 133.65625 10.582031 133.613281 10.582031 C 133.570312 10.574219 133.519531 10.570312 133.460938 10.570312 C 133.351562 10.570312 133.257812 10.597656 133.179688 10.644531 C 133.097656 10.699219 133.03125 10.765625 132.984375 10.851562 C 132.933594 10.9375 132.898438 11.046875 132.875 11.175781 C 132.855469 11.300781 132.84375 11.433594 132.84375 11.578125 L 132.84375 13.109375 Z M 132.355469 13.109375 "/>
<path style=" stroke:none;fill-rule:nonzero;fill:rgb(0%,0%,0%);fill-opacity:1;" d="M 135.019531 13.164062 C 134.722656 13.164062 134.5 13.085938 134.347656 12.933594 C 134.199219 12.777344 134.128906 12.558594 134.128906 12.285156 C 134.128906 12.097656 134.164062 11.941406 134.238281 11.816406 C 134.308594 11.6875 134.40625 11.589844 134.519531 11.523438 C 134.644531 11.453125 134.78125 11.402344 134.933594 11.371094 C 135.085938 11.34375 135.242188 11.328125 135.402344 11.328125 L 136.054688 11.316406 L 136.054688 11.15625 C 136.054688 11.035156 136.035156 10.933594 136.007812 10.851562 C 135.988281 10.765625 135.949219 10.699219 135.902344 10.644531 C 135.847656 10.589844 135.785156 10.546875 135.707031 10.527344 C 135.625 10.503906 135.53125 10.492188 135.421875 10.492188 C 135.328125 10.492188 135.242188 10.503906 135.164062 10.515625 C 135.089844 10.523438 135.023438 10.546875 134.964844 10.582031 C 134.914062 10.617188 134.871094 10.667969 134.835938 10.734375 C 134.796875 10.792969 134.777344 10.867188 134.769531 10.960938 L 134.261719 10.90625 C 134.273438 10.792969 134.308594 10.6875 134.359375 10.589844 C 134.40625 10.5 134.480469 10.414062 134.574219 10.34375 C 134.667969 10.273438 134.785156 10.21875 134.921875 10.179688 C 135.066406 10.136719 135.238281 10.113281 135.433594 10.113281 C 135.804688 10.113281 136.082031 10.199219 136.269531 10.375 C 136.457031 10.542969 136.554688 10.785156 136.554688 11.101562 L 136.554688 12.371094 C 136.554688 12.515625 136.570312 12.625 136.605469 12.695312 C 136.644531 12.769531 136.714844 12.804688 136.824219 12.804688 C 136.851562 12.804688 136.878906 12.804688 136.902344 12.804688 C 136.929688 12.800781 136.957031 12.789062 136.988281 12.78125 L 136.988281 13.085938 C 136.921875 13.109375 136.859375 13.121094 136.804688 13.128906 C 136.742188 13.136719 136.679688 13.140625 136.605469 13.140625 C 136.511719 13.140625 136.433594 13.128906 136.367188 13.109375 C 136.304688 13.082031 136.25 13.039062 136.207031 12.988281 C 136.167969 12.941406 136.140625 12.878906 136.117188 12.804688 C 136.097656 12.734375 136.082031 12.648438 136.074219 12.542969 L 136.054688 12.542969 C 136 12.640625 135.945312 12.726562 135.878906 12.804688 C 135.820312 12.878906 135.75 12.941406 135.660156 13 C 135.582031 13.050781 135.488281 13.089844 135.378906 13.117188 C 135.277344 13.144531 135.15625 13.164062 135.019531 13.164062 Z M 135.128906 12.792969 C 135.28125 12.792969 135.414062 12.765625 135.53125 12.707031 C 135.652344 12.648438 135.75 12.578125 135.824219 12.488281 C 135.902344 12.402344 135.960938 12.3125 136 12.207031 C 136.035156 12.097656 136.054688 12 136.054688 11.902344 L 136.054688 11.65625 L 135.519531 11.664062 C 135.402344 11.671875 135.292969 11.683594 135.183594 11.699219 C 135.074219 11.714844 134.976562 11.742188 134.890625 11.785156 C 134.808594 11.828125 134.742188 11.894531 134.695312 11.980469 C 134.652344 12.0625 134.628906 12.164062 134.628906 12.292969 C 134.628906 12.453125 134.671875 12.578125 134.761719 12.664062 C 134.847656 12.75 134.96875 12.792969 135.128906 12.792969 Z M 135.128906 12.792969 "/>
<path style=" stroke:none;fill-rule:nonzero;fill:rgb(0%,0%,0%);fill-opacity:1;" d="M 137.492188 13.109375 L 137.492188 9.082031 L 137.980469 9.082031 L 137.980469 13.109375 Z M 137.492188 13.109375 "/>
<path style=" stroke:none;fill-rule:nonzero;fill:rgb(0%,0%,0%);fill-opacity:1;" d="M 79.824219 79.546875 C 79.824219 79.84375 79.78125 80.113281 79.695312 80.359375 C 79.609375 80.605469 79.480469 80.8125 79.316406 80.988281 C 79.15625 81.160156 78.957031 81.296875 78.71875 81.390625 C 78.484375 81.480469 78.21875 81.53125 77.925781 81.53125 C 77.605469 81.53125 77.328125 81.480469 77.085938 81.390625 C 76.855469 81.289062 76.660156 81.152344 76.5 80.976562 C 76.339844 80.796875 76.222656 80.585938 76.140625 80.347656 C 76.0625 80.105469 76.023438 79.835938 76.023438 79.546875 C 76.023438 79.25 76.0625 78.980469 76.140625 78.742188 C 76.230469 78.5 76.351562 78.292969 76.511719 78.125 C 76.675781 77.960938 76.875 77.828125 77.109375 77.734375 C 77.347656 77.640625 77.621094 77.59375 77.925781 77.59375 C 78.230469 77.59375 78.5 77.640625 78.738281 77.734375 C 78.976562 77.828125 79.175781 77.960938 79.335938 78.136719 C 79.496094 78.304688 79.613281 78.503906 79.695312 78.742188 C 79.78125 78.980469 79.824219 79.25 79.824219 79.546875 Z M 79.292969 79.546875 C 79.292969 79.316406 79.261719 79.105469 79.207031 78.917969 C 79.148438 78.730469 79.058594 78.570312 78.945312 78.4375 C 78.828125 78.304688 78.683594 78.199219 78.511719 78.125 C 78.34375 78.054688 78.148438 78.015625 77.925781 78.015625 C 77.699219 78.015625 77.5 78.054688 77.328125 78.125 C 77.152344 78.199219 77.007812 78.304688 76.890625 78.4375 C 76.785156 78.570312 76.699219 78.730469 76.640625 78.917969 C 76.582031 79.105469 76.554688 79.316406 76.554688 79.546875 C 76.554688 79.777344 76.582031 79.988281 76.640625 80.183594 C 76.699219 80.375 76.785156 80.539062 76.902344 80.671875 C 77.015625 80.8125 77.160156 80.921875 77.328125 81 C 77.5 81.070312 77.699219 81.105469 77.925781 81.105469 C 78.164062 81.105469 78.371094 81.070312 78.542969 81 C 78.71875 80.921875 78.859375 80.8125 78.96875 80.671875 C 79.074219 80.53125 79.15625 80.363281 79.207031 80.175781 C 79.261719 79.980469 79.292969 79.769531 79.292969 79.546875 Z M 79.292969 79.546875 "/>
<path style=" stroke:none;fill-rule:nonzero;fill:rgb(0%,0%,0%);fill-opacity:1;" d="M 78.742188 44.367188 C 78.742188 44.664062 78.699219 44.9375 78.613281 45.179688 C 78.523438 45.429688 78.398438 45.636719 78.230469 45.808594 C 78.070312 45.984375 77.871094 46.121094 77.632812 46.210938 C 77.398438 46.304688 77.136719 46.351562 76.839844 46.351562 C 76.519531 46.351562 76.242188 46.304688 76.003906 46.210938 C 75.769531 46.109375 75.574219 45.972656 75.417969 45.800781 C 75.257812 45.621094 75.136719 45.410156 75.058594 45.171875 C 74.976562 44.925781 74.9375 44.65625 74.9375 44.367188 C 74.9375 44.070312 74.976562 43.804688 75.058594 43.566406 C 75.144531 43.320312 75.269531 43.113281 75.429688 42.945312 C 75.59375 42.78125 75.792969 42.652344 76.027344 42.554688 C 76.265625 42.464844 76.535156 42.414062 76.839844 42.414062 C 77.144531 42.414062 77.417969 42.464844 77.65625 42.554688 C 77.894531 42.652344 78.09375 42.785156 78.253906 42.957031 C 78.410156 43.125 78.53125 43.328125 78.613281 43.566406 C 78.699219 43.804688 78.742188 44.070312 78.742188 44.367188 Z M 78.210938 44.367188 C 78.210938 44.136719 78.179688 43.929688 78.121094 43.738281 C 78.0625 43.550781 77.976562 43.390625 77.863281 43.261719 C 77.746094 43.125 77.601562 43.019531 77.425781 42.945312 C 77.257812 42.875 77.0625 42.839844 76.839844 42.839844 C 76.613281 42.839844 76.417969 42.875 76.242188 42.945312 C 76.070312 43.019531 75.921875 43.125 75.808594 43.261719 C 75.699219 43.390625 75.617188 43.550781 75.558594 43.738281 C 75.5 43.929688 75.472656 44.136719 75.472656 44.367188 C 75.472656 44.601562 75.5 44.8125 75.558594 45.007812 C 75.617188 45.199219 75.703125 45.359375 75.820312 45.496094 C 75.933594 45.632812 76.074219 45.742188 76.242188 45.820312 C 76.417969 45.894531 76.613281 45.929688 76.839844 45.929688 C 77.078125 45.929688 77.285156 45.894531 77.460938 45.820312 C 77.632812 45.742188 77.773438 45.632812 77.882812 45.496094 C 77.992188 45.351562 78.070312 45.1875 78.121094 44.996094 C 78.179688 44.800781 78.210938 44.59375 78.210938 44.367188 Z M 78.210938 44.367188 "/>
<path style=" stroke:none;fill-rule:nonzero;fill:rgb(0%,0%,0%);fill-opacity:1;" d="M 109.980469 95.457031 C 109.980469 95.753906 109.9375 96.027344 109.851562 96.269531 C 109.761719 96.515625 109.636719 96.726562 109.46875 96.898438 C 109.308594 97.074219 109.113281 97.207031 108.871094 97.300781 C 108.640625 97.394531 108.375 97.441406 108.078125 97.441406 C 107.757812 97.441406 107.480469 97.394531 107.242188 97.300781 C 107.007812 97.199219 106.8125 97.0625 106.65625 96.890625 C 106.496094 96.710938 106.375 96.5 106.296875 96.261719 C 106.214844 96.015625 106.179688 95.746094 106.179688 95.457031 C 106.179688 95.160156 106.214844 94.894531 106.296875 94.65625 C 106.382812 94.410156 106.507812 94.203125 106.667969 94.035156 C 106.832031 93.871094 107.03125 93.742188 107.265625 93.644531 C 107.503906 93.554688 107.773438 93.503906 108.078125 93.503906 C 108.382812 93.503906 108.65625 93.554688 108.894531 93.644531 C 109.132812 93.742188 109.332031 93.875 109.492188 94.046875 C 109.648438 94.214844 109.769531 94.414062 109.851562 94.65625 C 109.9375 94.894531 109.980469 95.160156 109.980469 95.457031 Z M 109.449219 95.457031 C 109.449219 95.226562 109.417969 95.019531 109.359375 94.828125 C 109.300781 94.640625 109.214844 94.480469 109.101562 94.351562 C 108.984375 94.214844 108.839844 94.109375 108.664062 94.035156 C 108.496094 93.964844 108.300781 93.929688 108.078125 93.929688 C 107.855469 93.929688 107.65625 93.964844 107.480469 94.035156 C 107.308594 94.109375 107.160156 94.214844 107.046875 94.351562 C 106.9375 94.480469 106.855469 94.640625 106.796875 94.828125 C 106.738281 95.019531 106.710938 95.226562 106.710938 95.457031 C 106.710938 95.691406 106.738281 95.902344 106.796875 96.097656 C 106.855469 96.285156 106.941406 96.449219 107.058594 96.585938 C 107.171875 96.722656 107.3125 96.832031 107.480469 96.910156 C 107.65625 96.984375 107.855469 97.019531 108.078125 97.019531 C 108.316406 97.019531 108.523438 96.984375 108.699219 96.910156 C 108.871094 96.832031 109.011719 96.722656 109.121094 96.585938 C 109.230469 96.441406 109.308594 96.277344 109.359375 96.085938 C 109.417969 95.890625 109.449219 95.683594 109.449219 95.457031 Z M 109.449219 95.457031 "/>
<path style=" stroke:none;fill-rule:nonzero;fill:rgb(0%,0%,0%);fill-opacity:1;" d="M 64.828125 54.273438 C 64.828125 54.570312 64.785156 54.84375 64.695312 55.085938 C 64.609375 55.332031 64.480469 55.542969 64.316406 55.714844 C 64.15625 55.890625 63.957031 56.023438 63.71875 56.117188 C 63.484375 56.210938 63.222656 56.257812 62.925781 56.257812 C 62.605469 56.257812 62.328125 56.210938 62.089844 56.117188 C 61.855469 56.015625 61.660156 55.878906 61.503906 55.703125 C 61.34375 55.527344 61.222656 55.3125 61.144531 55.074219 C 61.0625 54.832031 61.023438 54.5625 61.023438 54.273438 C 61.023438 53.976562 61.0625 53.710938 61.144531 53.46875 C 61.230469 53.226562 61.351562 53.019531 61.511719 52.851562 C 61.679688 52.6875 61.878906 52.554688 62.109375 52.460938 C 62.351562 52.371094 62.621094 52.320312 62.925781 52.320312 C 63.230469 52.320312 63.5 52.371094 63.742188 52.460938 C 63.980469 52.554688 64.179688 52.691406 64.339844 52.863281 C 64.496094 53.03125 64.613281 53.230469 64.695312 53.46875 C 64.785156 53.710938 64.828125 53.976562 64.828125 54.273438 Z M 64.292969 54.273438 C 64.292969 54.042969 64.265625 53.832031 64.207031 53.644531 C 64.148438 53.457031 64.0625 53.296875 63.945312 53.167969 C 63.832031 53.03125 63.6875 52.925781 63.511719 52.851562 C 63.34375 52.78125 63.148438 52.742188 62.925781 52.742188 C 62.699219 52.742188 62.5 52.78125 62.328125 52.851562 C 62.152344 52.925781 62.007812 53.03125 61.894531 53.167969 C 61.785156 53.296875 61.699219 53.457031 61.644531 53.644531 C 61.582031 53.832031 61.558594 54.042969 61.558594 54.273438 C 61.558594 54.507812 61.582031 54.71875 61.644531 54.914062 C 61.699219 55.101562 61.789062 55.265625 61.90625 55.402344 C 62.019531 55.539062 62.160156 55.648438 62.328125 55.726562 C 62.5 55.800781 62.699219 55.835938 62.925781 55.835938 C 63.164062 55.835938 63.371094 55.800781 63.542969 55.726562 C 63.71875 55.648438 63.859375 55.539062 63.96875 55.402344 C 64.078125 55.257812 64.15625 55.09375 64.207031 54.902344 C 64.265625 54.707031 64.292969 54.5 64.292969 54.273438 Z M 64.292969 54.273438 "/>
<path style=" stroke:none;fill-rule:nonzero;fill:rgb(0%,0%,0%);fill-opacity:1;" d="M 123.449219 52.007812 C 123.449219 52.304688 123.40625 52.574219 123.320312 52.820312 C 123.234375 53.066406 123.105469 53.273438 122.941406 53.449219 C 122.777344 53.621094 122.582031 53.757812 122.34375 53.851562 C 122.109375 53.941406 121.84375 53.992188 121.546875 53.992188 C 121.226562 53.992188 120.953125 53.941406 120.710938 53.851562 C 120.480469 53.75 120.28125 53.613281 120.125 53.4375 C 119.964844 53.257812 119.847656 53.046875 119.765625 52.808594 C 119.683594 52.566406 119.648438 52.296875 119.648438 52.007812 C 119.648438 51.710938 119.683594 51.441406 119.765625 51.203125 C 119.855469 50.960938 119.976562 50.753906 120.136719 50.585938 C 120.300781 50.417969 120.5 50.289062 120.734375 50.195312 C 120.972656 50.101562 121.246094 50.054688 121.546875 50.054688 C 121.851562 50.054688 122.125 50.101562 122.363281 50.195312 C 122.601562 50.289062 122.800781 50.421875 122.960938 50.597656 C 123.117188 50.765625 123.238281 50.964844 123.320312 51.203125 C 123.40625 51.441406 123.449219 51.710938 123.449219 52.007812 Z M 122.917969 52.007812 C 122.917969 51.777344 122.886719 51.566406 122.832031 51.378906 C 122.769531 51.191406 122.683594 51.03125 122.570312 50.898438 C 122.453125 50.765625 122.308594 50.660156 122.136719 50.585938 C 121.96875 50.515625 121.773438 50.476562 121.546875 50.476562 C 121.324219 50.476562 121.125 50.515625 120.953125 50.585938 C 120.777344 50.660156 120.628906 50.765625 120.515625 50.898438 C 120.40625 51.03125 120.324219 51.191406 120.265625 51.378906 C 120.207031 51.566406 120.179688 51.777344 120.179688 52.007812 C 120.179688 52.238281 120.207031 52.449219 120.265625 52.644531 C 120.324219 52.835938 120.410156 53 120.527344 53.132812 C 120.640625 53.273438 120.78125 53.382812 120.953125 53.460938 C 121.125 53.53125 121.324219 53.566406 121.546875 53.566406 C 121.789062 53.566406 121.996094 53.53125 122.167969 53.460938 C 122.34375 53.382812 122.484375 53.273438 122.589844 53.132812 C 122.699219 52.992188 122.777344 52.824219 122.832031 52.636719 C 122.886719 52.441406 122.917969 52.230469 122.917969 52.007812 Z M 122.917969 52.007812 "/>
<path style=" stroke:none;fill-rule:nonzero;fill:rgb(0%,0%,0%);fill-opacity:1;" d="M 139.882812 77.96875 C 139.882812 78.265625 139.839844 78.535156 139.753906 78.78125 C 139.664062 79.027344 139.539062 79.234375 139.371094 79.410156 C 139.210938 79.582031 139.015625 79.71875 138.773438 79.8125 C 138.542969 79.902344 138.277344 79.953125 137.980469 79.953125 C 137.660156 79.953125 137.382812 79.902344 137.144531 79.8125 C 136.910156 79.710938 136.714844 79.574219 136.558594 79.398438 C 136.398438 79.21875 136.277344 79.007812 136.199219 78.769531 C 136.117188 78.527344 136.082031 78.257812 136.082031 77.96875 C 136.082031 77.671875 136.117188 77.402344 136.199219 77.164062 C 136.285156 76.921875 136.410156 76.714844 136.570312 76.546875 C 136.734375 76.382812 136.933594 76.25 137.167969 76.15625 C 137.40625 76.0625 137.675781 76.015625 137.980469 76.015625 C 138.285156 76.015625 138.558594 76.0625 138.796875 76.15625 C 139.035156 76.25 139.234375 76.382812 139.394531 76.558594 C 139.550781 76.726562 139.671875 76.925781 139.753906 77.164062 C 139.839844 77.402344 139.882812 77.671875 139.882812 77.96875 Z M 139.351562 77.96875 C 139.351562 77.738281 139.320312 77.527344 139.261719 77.339844 C 139.203125 77.152344 139.117188 76.992188 139.003906 76.859375 C 138.886719 76.726562 138.742188 76.621094 138.566406 76.546875 C 138.398438 76.476562 138.203125 76.4375 137.980469 76.4375 C 137.757812 76.4375 137.558594 76.476562 137.382812 76.546875 C 137.210938 76.621094 137.0625 76.726562 136.949219 76.859375 C 136.839844 76.992188 136.757812 77.152344 136.699219 77.339844 C 136.640625 77.527344 136.613281 77.738281 136.613281 77.96875 C 136.613281 78.199219 136.640625 78.410156 136.699219 78.605469 C 136.757812 78.796875 136.84375 78.960938 136.960938 79.09375 C 137.074219 79.234375 137.214844 79.34375 137.382812 79.421875 C 137.558594 79.492188 137.757812 79.527344 137.980469 79.527344 C 138.21875 79.527344 138.425781 79.492188 138.601562 79.421875 C 138.773438 79.34375 138.914062 79.234375 139.023438 79.09375 C 139.132812 78.953125 139.210938 78.785156 139.261719 78.597656 C 139.320312 78.402344 139.351562 78.191406 139.351562 77.96875 Z M 139.351562 77.96875 "/>
<path style=" stroke:none;fill-rule:nonzero;fill:rgb(0%,0%,0%);fill-opacity:1;" d="M 49.773438 97.28125 C 49.773438 97.582031 49.730469 97.851562 49.644531 98.09375 C 49.554688 98.34375 49.429688 98.550781 49.261719 98.726562 C 49.101562 98.898438 48.90625 99.035156 48.664062 99.125 C 48.433594 99.21875 48.167969 99.265625 47.871094 99.265625 C 47.550781 99.265625 47.273438 99.21875 47.035156 99.125 C 46.800781 99.027344 46.605469 98.886719 46.449219 98.714844 C 46.289062 98.535156 46.167969 98.324219 46.089844 98.085938 C 46.007812 97.839844 45.972656 97.570312 45.972656 97.28125 C 45.972656 96.988281 46.007812 96.71875 46.089844 96.480469 C 46.175781 96.234375 46.300781 96.03125 46.460938 95.859375 C 46.625 95.695312 46.824219 95.566406 47.058594 95.472656 C 47.296875 95.378906 47.566406 95.328125 47.871094 95.328125 C 48.175781 95.328125 48.449219 95.378906 48.6875 95.472656 C 48.925781 95.566406 49.125 95.699219 49.285156 95.871094 C 49.441406 96.039062 49.5625 96.242188 49.644531 96.480469 C 49.730469 96.71875 49.773438 96.988281 49.773438 97.28125 Z M 49.242188 97.28125 C 49.242188 97.050781 49.210938 96.84375 49.15625 96.652344 C 49.09375 96.464844 49.007812 96.304688 48.894531 96.175781 C 48.777344 96.039062 48.632812 95.933594 48.460938 95.859375 C 48.289062 95.789062 48.09375 95.753906 47.871094 95.753906 C 47.648438 95.753906 47.449219 95.789062 47.273438 95.859375 C 47.101562 95.933594 46.953125 96.039062 46.839844 96.175781 C 46.730469 96.304688 46.648438 96.464844 46.589844 96.652344 C 46.53125 96.84375 46.503906 97.050781 46.503906 97.28125 C 46.503906 97.515625 46.53125 97.726562 46.589844 97.921875 C 46.648438 98.113281 46.734375 98.273438 46.851562 98.410156 C 46.964844 98.546875 47.105469 98.65625 47.273438 98.734375 C 47.449219 98.808594 47.648438 98.84375 47.871094 98.84375 C 48.113281 98.84375 48.316406 98.808594 48.492188 98.734375 C 48.664062 98.65625 48.808594 98.546875 48.914062 98.410156 C 49.023438 98.265625 49.101562 98.101562 49.15625 97.910156 C 49.210938 97.714844 49.242188 97.507812 49.242188 97.28125 Z M 49.242188 97.28125 "/>
<path style=" stroke:none;fill-rule:nonzero;fill:rgb(0%,0%,0%);fill-opacity:1;" d="M 123.25 17.222656 C 123.25 17.523438 123.207031 17.792969 123.121094 18.039062 C 123.035156 18.285156 122.90625 18.492188 122.742188 18.667969 C 122.582031 18.839844 122.382812 18.976562 122.144531 19.066406 C 121.910156 19.160156 121.648438 19.210938 121.351562 19.210938 C 121.03125 19.210938 120.753906 19.160156 120.515625 19.066406 C 120.28125 18.96875 120.085938 18.828125 119.925781 18.65625 C 119.765625 18.476562 119.648438 18.265625 119.570312 18.027344 C 119.488281 17.78125 119.449219 17.515625 119.449219 17.222656 C 119.449219 16.929688 119.488281 16.660156 119.570312 16.421875 C 119.65625 16.175781 119.777344 15.972656 119.9375 15.804688 C 120.105469 15.636719 120.300781 15.507812 120.535156 15.414062 C 120.773438 15.320312 121.046875 15.273438 121.351562 15.273438 C 121.65625 15.273438 121.925781 15.320312 122.164062 15.414062 C 122.40625 15.507812 122.601562 15.640625 122.761719 15.8125 C 122.921875 15.980469 123.039062 16.183594 123.121094 16.421875 C 123.207031 16.660156 123.25 16.929688 123.25 17.222656 Z M 122.71875 17.222656 C 122.71875 16.992188 122.691406 16.785156 122.632812 16.59375 C 122.574219 16.40625 122.484375 16.246094 122.371094 16.117188 C 122.253906 15.980469 122.109375 15.875 121.9375 15.804688 C 121.769531 15.734375 121.574219 15.695312 121.351562 15.695312 C 121.125 15.695312 120.925781 15.734375 120.753906 15.804688 C 120.578125 15.875 120.433594 15.980469 120.316406 16.117188 C 120.210938 16.246094 120.125 16.40625 120.070312 16.59375 C 120.007812 16.785156 119.980469 16.992188 119.980469 17.222656 C 119.980469 17.457031 120.007812 17.667969 120.070312 17.863281 C 120.125 18.054688 120.210938 18.214844 120.328125 18.351562 C 120.441406 18.492188 120.585938 18.597656 120.753906 18.675781 C 120.925781 18.75 121.125 18.785156 121.351562 18.785156 C 121.589844 18.785156 121.796875 18.75 121.96875 18.675781 C 122.144531 18.597656 122.285156 18.492188 122.394531 18.351562 C 122.503906 18.207031 122.582031 18.042969 122.632812 17.851562 C 122.691406 17.65625 122.71875 17.449219 122.71875 17.222656 Z M 122.71875 17.222656 "/>
<path style=" stroke:none;fill-rule:nonzero;fill:rgb(0%,0%,0%);fill-opacity:1;" d="M 19.425781 79.988281 C 19.425781 80.285156 19.382812 80.558594 19.296875 80.800781 C 19.207031 81.046875 19.082031 81.257812 18.914062 81.429688 C 18.753906 81.601562 18.558594 81.738281 18.316406 81.832031 C 18.085938 81.921875 17.820312 81.972656 17.523438 81.972656 C 17.203125 81.972656 16.925781 81.921875 16.6875 81.832031 C 16.453125 81.730469 16.257812 81.59375 16.101562 81.417969 C 15.941406 81.238281 15.820312 81.027344 15.742188 80.789062 C 15.660156 80.546875 15.625 80.277344 15.625 79.988281 C 15.625 79.691406 15.660156 79.421875 15.742188 79.183594 C 15.828125 78.941406 15.953125 78.734375 16.113281 78.566406 C 16.277344 78.402344 16.476562 78.269531 16.710938 78.175781 C 16.949219 78.082031 17.21875 78.035156 17.523438 78.035156 C 17.828125 78.035156 18.101562 78.082031 18.339844 78.175781 C 18.578125 78.269531 18.777344 78.402344 18.9375 78.578125 C 19.09375 78.746094 19.214844 78.945312 19.296875 79.183594 C 19.382812 79.421875 19.425781 79.691406 19.425781 79.988281 Z M 18.894531 79.988281 C 18.894531 79.757812 18.863281 79.546875 18.808594 79.359375 C 18.746094 79.171875 18.660156 79.011719 18.546875 78.882812 C 18.429688 78.746094 18.285156 78.640625 18.113281 78.566406 C 17.941406 78.496094 17.746094 78.457031 17.523438 78.457031 C 17.300781 78.457031 17.101562 78.496094 16.925781 78.566406 C 16.753906 78.640625 16.605469 78.746094 16.492188 78.882812 C 16.382812 79.011719 16.300781 79.171875 16.242188 79.359375 C 16.183594 79.546875 16.15625 79.757812 16.15625 79.988281 C 16.15625 80.21875 16.183594 80.433594 16.242188 80.628906 C 16.300781 80.816406 16.386719 80.980469 16.503906 81.117188 C 16.617188 81.253906 16.757812 81.363281 16.925781 81.441406 C 17.101562 81.515625 17.300781 81.550781 17.523438 81.550781 C 17.765625 81.550781 17.96875 81.515625 18.144531 81.441406 C 18.316406 81.363281 18.460938 81.253906 18.566406 81.117188 C 18.675781 80.972656 18.753906 80.804688 18.808594 80.617188 C 18.863281 80.421875 18.894531 80.210938 18.894531 79.988281 Z M 18.894531 79.988281 "/>
<path style=" stroke:none;fill-rule:nonzero;fill:rgb(0%,0%,0%);fill-opacity:1;" d="M 18.980469 45.699219 C 18.980469 45.996094 18.9375 46.269531 18.851562 46.511719 C 18.761719 46.757812 18.636719 46.96875 18.46875 47.140625 C 18.308594 47.316406 18.113281 47.449219 17.871094 47.542969 C 17.640625 47.636719 17.375 47.683594 17.078125 47.683594 C 16.757812 47.683594 16.480469 47.636719 16.242188 47.542969 C 16.007812 47.441406 15.8125 47.304688 15.65625 47.128906 C 15.496094 46.953125 15.375 46.738281 15.296875 46.5 C 15.214844 46.257812 15.179688 45.988281 15.179688 45.699219 C 15.179688 45.402344 15.214844 45.136719 15.296875 44.894531 C 15.382812 44.652344 15.507812 44.445312 15.667969 44.277344 C 15.832031 44.113281 16.03125 43.984375 16.265625 43.886719 C 16.503906 43.796875 16.773438 43.746094 17.078125 43.746094 C 17.382812 43.746094 17.65625 43.796875 17.894531 43.886719 C 18.132812 43.984375 18.332031 44.117188 18.492188 44.289062 C 18.648438 44.457031 18.769531 44.65625 18.851562 44.894531 C 18.9375 45.136719 18.980469 45.402344 18.980469 45.699219 Z M 18.449219 45.699219 C 18.449219 45.46875 18.417969 45.257812 18.363281 45.070312 C 18.300781 44.882812 18.214844 44.722656 18.101562 44.59375 C 17.984375 44.457031 17.839844 44.351562 17.664062 44.277344 C 17.496094 44.207031 17.300781 44.167969 17.078125 44.167969 C 16.855469 44.167969 16.65625 44.207031 16.480469 44.277344 C 16.308594 44.351562 16.160156 44.457031 16.046875 44.59375 C 15.9375 44.722656 15.855469 44.882812 15.796875 45.070312 C 15.738281 45.257812 15.710938 45.46875 15.710938 45.699219 C 15.710938 45.933594 15.738281 46.144531 15.796875 46.339844 C 15.855469 46.527344 15.941406 46.691406 16.058594 46.828125 C 16.171875 46.964844 16.3125 47.074219 16.480469 47.152344 C 16.65625 47.226562 16.855469 47.261719 17.078125 47.261719 C 17.316406 47.261719 17.523438 47.226562 17.699219 47.152344 C 17.871094 47.074219 18.011719 46.964844 18.121094 46.828125 C 18.230469 46.683594 18.308594 46.519531 18.363281 46.328125 C 18.417969 46.132812 18.449219 45.925781 18.449219 45.699219 Z M 18.449219 45.699219 "/>
<path style=" stroke:none;fill-rule:nonzero;fill:rgb(0%,0%,0%);fill-opacity:1;" d="M 64.382812 19.195312 C 64.382812 19.492188 64.339844 19.765625 64.25 20.007812 C 64.164062 20.253906 64.035156 20.464844 63.871094 20.636719 C 63.710938 20.8125 63.511719 20.945312 63.273438 21.039062 C 63.039062 21.132812 62.777344 21.179688 62.480469 21.179688 C 62.160156 21.179688 61.882812 21.132812 61.644531 21.039062 C 61.410156 20.9375 61.214844 20.800781 61.058594 20.628906 C 60.898438 20.449219 60.777344 20.238281 60.699219 20 C 60.617188 19.753906 60.578125 19.484375 60.578125 19.195312 C 60.578125 18.898438 60.617188 18.632812 60.699219 18.394531 C 60.785156 18.148438 60.90625 17.941406 61.066406 17.773438 C 61.234375 17.609375 61.433594 17.480469 61.664062 17.382812 C 61.90625 17.292969 62.175781 17.242188 62.480469 17.242188 C 62.785156 17.242188 63.054688 17.292969 63.296875 17.382812 C 63.535156 17.480469 63.730469 17.613281 63.890625 17.785156 C 64.050781 17.953125 64.167969 18.15625 64.25 18.394531 C 64.339844 18.632812 64.382812 18.898438 64.382812 19.195312 Z M 63.847656 19.195312 C 63.847656 18.964844 63.820312 18.757812 63.761719 18.566406 C 63.703125 18.378906 63.617188 18.21875 63.5 18.089844 C 63.382812 17.953125 63.242188 17.847656 63.066406 17.773438 C 62.898438 17.703125 62.703125 17.667969 62.480469 17.667969 C 62.253906 17.667969 62.054688 17.703125 61.882812 17.773438 C 61.707031 17.847656 61.5625 17.953125 61.449219 18.089844 C 61.339844 18.21875 61.253906 18.378906 61.199219 18.566406 C 61.136719 18.757812 61.109375 18.964844 61.109375 19.195312 C 61.109375 19.429688 61.136719 19.640625 61.199219 19.835938 C 61.253906 20.023438 61.34375 20.1875 61.457031 20.324219 C 61.574219 20.460938 61.714844 20.570312 61.882812 20.648438 C 62.054688 20.722656 62.253906 20.757812 62.480469 20.757812 C 62.71875 20.757812 62.925781 20.722656 63.097656 20.648438 C 63.273438 20.570312 63.414062 20.460938 63.523438 20.324219 C 63.632812 20.179688 63.710938 20.015625 63.761719 19.824219 C 63.820312 19.628906 63.847656 19.421875 63.847656 19.195312 Z M 63.847656 19.195312 "/>
<path style=" stroke:none;fill-rule:nonzero;fill:rgb(0%,0%,0%);fill-opacity:1;" d="M 92.777344 70.546875 L 80.019531 75.921875 L 82.125 79.382812 "/>
<path style="fill:none;stroke-width:0.0333333;stroke-linecap:butt;stroke-linejoin:miter;stroke:rgb(0%,0%,0%);stroke-opacity:1;stroke-miterlimit:10;" d="M 4.355277 3.08086 L 4.288763 2.082373 " transform="matrix(17.383513,0,0,17.354369,17.079051,17.240645)"/>
<path style="fill:none;stroke-width:0.0333333;stroke-linecap:butt;stroke-linejoin:miter;stroke:rgb(0%,0%,0%);stroke-opacity:1;stroke-miterlimit:10;" d="M 4.346738 3.06713 L 5.203557 3.542064 " transform="matrix(17.383513,0,0,17.354369,17.079051,17.240645)"/>
<path style="fill:none;stroke-width:0.0333333;stroke-linecap:butt;stroke-linejoin:miter;stroke:rgb(0%,0%,0%);stroke-opacity:1;stroke-miterlimit:10;" d="M 3.31824 3.484442 L 2.62883 3.08086 " transform="matrix(17.383513,0,0,17.354369,17.079051,17.240645)"/>
<path style="fill:none;stroke-width:0.0333333;stroke-linecap:butt;stroke-linejoin:miter;stroke:rgb(0%,0%,0%);stroke-opacity:1;stroke-miterlimit:10;" d="M 4.281123 2.097453 L 5.152099 1.547565 " transform="matrix(17.383513,0,0,17.354369,17.079051,17.240645)"/>
<path style="fill:none;stroke-width:0.0333333;stroke-linecap:butt;stroke-linejoin:miter;stroke:rgb(0%,0%,0%);stroke-opacity:1;stroke-miterlimit:10;" d="M 4.234158 2.045233 L 4.222923 2.063465 M 4.178655 1.99864 L 4.156184 2.034429 M 4.123151 1.951597 L 4.08967 2.005843 M 4.067873 1.904779 L 4.023155 1.977032 M 4.012369 1.85796 L 3.956417 1.94822 M 3.956866 1.811142 L 3.889902 1.919409 M 3.901587 1.764324 L 3.823388 1.890373 M 3.846084 1.717506 L 3.756649 1.861787 M 3.790581 1.670688 L 3.68991 1.832751 M 3.735077 1.623644 L 3.623396 1.804164 M 3.679799 1.576826 L 3.556882 1.775353 " transform="matrix(17.383513,0,0,17.354369,17.079051,17.240645)"/>
<path style="fill:none;stroke-width:0.0333333;stroke-linecap:butt;stroke-linejoin:miter;stroke:rgb(0%,0%,0%);stroke-opacity:1;stroke-miterlimit:10;" d="M 5.186704 3.542515 L 6.049591 2.995102 " transform="matrix(17.383513,0,0,17.354369,17.079051,17.240645)"/>
<path style="fill:none;stroke-width:0.0333333;stroke-linecap:butt;stroke-linejoin:miter;stroke:rgb(0%,0%,0%);stroke-opacity:1;stroke-miterlimit:10;" d="M 5.188052 3.605089 L 5.207602 3.604414 M 5.181086 3.673065 L 5.219961 3.67149 M 5.174345 3.740817 L 5.232545 3.738341 M 5.167154 3.808568 L 5.244904 3.805417 M 5.160413 3.876319 L 5.257263 3.872493 M 5.153222 3.944296 L 5.269847 3.939569 M 5.146481 4.012047 L 5.282431 4.006645 M 5.13929 4.080023 L 5.29479 4.073496 M 5.132549 4.147775 L 5.307373 4.140572 M 5.125583 4.215526 L 5.319957 4.207648 M 5.118617 4.283502 L 5.332316 4.274724 M 5.111651 4.351254 L 5.3449 4.3418 " transform="matrix(17.383513,0,0,17.354369,17.079051,17.240645)"/>
<path style="fill:none;stroke-width:0.0333333;stroke-linecap:butt;stroke-linejoin:miter;stroke:rgb(0%,0%,0%);stroke-opacity:1;stroke-miterlimit:10;" d="M 2.64793 3.013559 L 2.626807 3.013559 M 2.658716 2.941306 L 2.616021 2.941306 M 2.669053 2.869278 L 2.60546 2.869278 M 2.679614 2.797025 L 2.594898 2.797025 M 2.6904 2.724772 L 2.584337 2.724772 M 2.700962 2.652744 L 2.573776 2.652744 M 2.711523 2.580491 L 2.563214 2.580491 M 2.722309 2.508238 L 2.552428 2.508238 M 2.73287 2.435985 L 2.541867 2.435985 M 2.743432 2.363732 L 2.531305 2.363732 M 2.753993 2.291479 L 2.520744 2.291479 " transform="matrix(17.383513,0,0,17.354369,17.079051,17.240645)"/>
<path style="fill:none;stroke-width:0.0333333;stroke-linecap:butt;stroke-linejoin:miter;stroke:rgb(0%,0%,0%);stroke-opacity:1;stroke-miterlimit:10;" d="M 2.645908 3.080635 L 1.763022 3.62197 " transform="matrix(17.383513,0,0,17.354369,17.079051,17.240645)"/>
<path style="fill:none;stroke-width:0.0333333;stroke-linecap:butt;stroke-linejoin:miter;stroke:rgb(0%,0%,0%);stroke-opacity:1;stroke-miterlimit:10;" d="M 5.13547 1.548465 L 5.825555 1.908155 " transform="matrix(17.383513,0,0,17.354369,17.079051,17.240645)"/>
<path style=" stroke:none;fill-rule:nonzero;fill:rgb(0%,0%,0%);fill-opacity:1;" d="M 106.5 44.1875 L 108.1875 25 L 106.050781 26.285156 L 104.023438 26.335938 "/>
<path style="fill:none;stroke-width:0.0333333;stroke-linecap:butt;stroke-linejoin:miter;stroke:rgb(0%,0%,0%);stroke-opacity:1;stroke-miterlimit:10;" d="M 6.049591 2.995102 L 6.771809 3.398008 " transform="matrix(17.383513,0,0,17.354369,17.079051,17.240645)"/>
<path style="fill:none;stroke-width:0.0333333;stroke-linecap:butt;stroke-linejoin:miter;stroke:rgb(0%,0%,0%);stroke-opacity:1;stroke-miterlimit:10;" d="M 2.454904 2.029252 L 1.751786 1.621844 " transform="matrix(17.383513,0,0,17.354369,17.079051,17.240645)"/>
<path style="fill:none;stroke-width:0.0333333;stroke-linecap:butt;stroke-linejoin:miter;stroke:rgb(0%,0%,0%);stroke-opacity:1;stroke-miterlimit:10;" d="M 1.7801 3.62152 L 0.885978 3.10652 " transform="matrix(17.383513,0,0,17.354369,17.079051,17.240645)"/>
<path style="fill:none;stroke-width:0.0333333;stroke-linecap:butt;stroke-linejoin:miter;stroke:rgb(0%,0%,0%);stroke-opacity:1;stroke-miterlimit:10;" d="M 1.761674 3.686796 L 1.781223 3.686796 M 1.752011 3.756573 L 1.790886 3.756573 M 1.742348 3.826575 L 1.800548 3.826575 M 1.732686 3.896577 L 1.810436 3.896577 M 1.722799 3.966579 L 1.820098 3.966579 M 1.713136 4.036581 L 1.829761 4.036581 M 1.703474 4.106359 L 1.839648 4.106359 M 1.693811 4.176361 L 1.84931 4.176361 M 1.684149 4.246363 L 1.858973 4.246363 M 1.674261 4.316365 L 1.86886 4.316365 M 1.664599 4.386367 L 1.878523 4.386367 M 1.654936 4.456369 L 1.888185 4.456369 " transform="matrix(17.383513,0,0,17.354369,17.079051,17.240645)"/>
<path style="fill:none;stroke-width:0.0333333;stroke-linecap:butt;stroke-linejoin:miter;stroke:rgb(0%,0%,0%);stroke-opacity:1;stroke-miterlimit:10;" d="M 5.110078 0.535797 L 5.817016 0.109256 " transform="matrix(17.383513,0,0,17.354369,17.079051,17.240645)"/>
<path style="fill:none;stroke-width:0.0333333;stroke-linecap:butt;stroke-linejoin:miter;stroke:rgb(0%,0%,0%);stroke-opacity:1;stroke-miterlimit:10;" d="M 1.768415 1.621844 L 0.886203 2.13977 " transform="matrix(17.383513,0,0,17.354369,17.079051,17.240645)"/>
<path style=" stroke:none;fill-rule:nonzero;fill:rgb(0%,0%,0%);fill-opacity:1;" d="M 47.675781 45.472656 L 49.574219 26.558594 L 47.425781 27.8125 L 45.398438 27.84375 "/>
<path style=" stroke:none;fill-rule:nonzero;fill:rgb(0%,0%,0%);fill-opacity:1;" d="M 32.625 71.238281 L 19.671875 76.417969 L 21.714844 79.917969 "/>
<path style="fill:none;stroke-width:0.0333333;stroke-linecap:butt;stroke-linejoin:miter;stroke:rgb(0%,0%,0%);stroke-opacity:1;stroke-miterlimit:10;" d="M 0.839688 2.093627 L 0.83025 2.110508 M 0.785084 2.052436 L 0.766433 2.086424 M 0.730704 2.01102 L 0.702615 2.062115 M 0.676099 1.969829 L 0.638348 2.03803 M 0.621495 1.928638 L 0.57453 2.013721 M 0.567115 1.887447 L 0.510713 1.989411 M 0.51251 1.846256 L 0.44667 1.965327 M 0.457906 1.805065 L 0.382628 1.941018 M 0.403526 1.763649 L 0.31881 1.916933 M 0.348921 1.722458 L 0.254768 1.892624 M 0.294317 1.681267 L 0.19095 1.868539 M 0.239712 1.640076 L 0.126908 1.844455 " transform="matrix(17.383513,0,0,17.354369,17.079051,17.240645)"/>
<path style="fill:none;stroke-width:0.0333333;stroke-linecap:butt;stroke-linejoin:miter;stroke:rgb(0%,0%,0%);stroke-opacity:1;stroke-miterlimit:10;" d="M 1.737405 0.623806 L 2.429736 0.219999 " transform="matrix(17.383513,0,0,17.354369,17.079051,17.240645)"/>
<path style="fill:none;stroke-width:0.0333333;stroke-linecap:butt;stroke-linejoin:miter;stroke:rgb(0%,0%,0%);stroke-opacity:1;stroke-miterlimit:10;" d="M 6.049591 2.995102 L 6.016334 2.16498 " transform="matrix(17.383513,0,0,17.354369,17.079051,17.240645)"/>
<path style="fill:none;stroke-width:0.0333333;stroke-linecap:butt;stroke-linejoin:miter;stroke:rgb(0%,0%,0%);stroke-opacity:1;stroke-miterlimit:10;" d="M 0.894293 3.120926 L 0.894293 2.125364 " transform="matrix(17.383513,0,0,17.354369,17.079051,17.240645)"/>
</g>
</svg>
