<?xml version="1.0" encoding="UTF-8"?>
<svg xmlns="http://www.w3.org/2000/svg" xmlns:xlink="http://www.w3.org/1999/xlink" width="144pt" height="71.2pt" viewBox="0 0 144 71.2" version="1.1">
<g id="surface422">
<path style=" stroke:none;fill-rule:nonzero;fill:rgb(0%,0%,0%);fill-opacity:1;" d="M 62.425781 53.476562 L 60.375 50.21875 C 60.378906 50.304688 60.382812 50.390625 60.382812 50.476562 C 60.390625 50.550781 60.394531 50.628906 60.394531 50.71875 C 60.402344 50.796875 60.40625 50.871094 60.40625 50.933594 L 60.40625 53.476562 L 59.9375 53.476562 L 59.9375 49.652344 L 60.546875 49.652344 L 62.609375 52.933594 C 62.609375 52.933594 62.605469 52.84375 62.601562 52.660156 C 62.589844 52.589844 62.582031 52.507812 62.578125 52.421875 C 62.578125 52.332031 62.578125 52.242188 62.578125 52.160156 L 62.578125 49.652344 L 63.046875 49.652344 L 63.046875 53.476562 Z M 62.425781 53.476562 "/>
<path style=" stroke:none;fill-rule:nonzero;fill:rgb(0%,0%,0%);fill-opacity:1;" d="M 127.738281 29.507812 L 125.6875 26.25 C 125.691406 26.335938 125.695312 26.421875 125.695312 26.507812 C 125.703125 26.582031 125.707031 26.660156 125.707031 26.746094 C 125.710938 26.828125 125.71875 26.898438 125.71875 26.964844 L 125.71875 29.507812 L 125.25 29.507812 L 125.25 25.683594 L 125.859375 25.683594 L 127.921875 28.964844 C 127.921875 28.964844 127.917969 28.875 127.910156 28.691406 C 127.902344 28.621094 127.894531 28.539062 127.890625 28.453125 C 127.890625 28.359375 127.890625 28.273438 127.890625 28.191406 L 127.890625 25.683594 L 128.355469 25.683594 L 128.355469 29.507812 Z M 127.738281 29.507812 "/>
<path style="fill:none;stroke-width:0.0333333;stroke-linecap:butt;stroke-linejoin:miter;stroke:rgb(0%,0%,0%);stroke-opacity:1;stroke-miterlimit:10;" d="M 4.616438 1.577171 L 3.769967 2.053126 " transform="matrix(17.374517,0,0,17.382812,17.057234,17.373388)"/>
<path style="fill:none;stroke-width:0.0333333;stroke-linecap:butt;stroke-linejoin:miter;stroke:rgb(0%,0%,0%);stroke-opacity:1;stroke-miterlimit:10;" d="M 4.599801 1.576947 L 5.473252 2.085935 " transform="matrix(17.374517,0,0,17.382812,17.057234,17.373388)"/>
<path style="fill:none;stroke-width:0.0333333;stroke-linecap:butt;stroke-linejoin:miter;stroke:rgb(0%,0%,0%);stroke-opacity:1;stroke-miterlimit:10;" d="M 4.60812 1.58189 L 4.60812 0.596272 " transform="matrix(17.374517,0,0,17.382812,17.057234,17.373388)"/>
<path style="fill:none;stroke-width:0.0333333;stroke-linecap:butt;stroke-linejoin:miter;stroke:rgb(0%,0%,0%);stroke-opacity:1;stroke-miterlimit:10;" d="M 4.774716 1.485935 L 4.774716 0.692003 " transform="matrix(17.374517,0,0,17.382812,17.057234,17.373388)"/>
<path style="fill:none;stroke-width:0.0333333;stroke-linecap:butt;stroke-linejoin:miter;stroke:rgb(0%,0%,0%);stroke-opacity:1;stroke-miterlimit:10;" d="M 3.779185 2.051104 L 2.697096 1.976722 " transform="matrix(17.374517,0,0,17.382812,17.057234,17.373388)"/>
<path style="fill:none;stroke-width:0.0333333;stroke-linecap:butt;stroke-linejoin:miter;stroke:rgb(0%,0%,0%);stroke-opacity:1;stroke-miterlimit:10;" d="M 5.45639 2.085935 L 6.324894 1.576947 " transform="matrix(17.374517,0,0,17.382812,17.057234,17.373388)"/>
<path style="fill:none;stroke-width:0.0333333;stroke-linecap:butt;stroke-linejoin:miter;stroke:rgb(0%,0%,0%);stroke-opacity:1;stroke-miterlimit:10;" d="M 5.456165 1.892902 L 6.158073 1.481441 " transform="matrix(17.374517,0,0,17.382812,17.057234,17.373388)"/>
<path style="fill:none;stroke-width:0.0333333;stroke-linecap:butt;stroke-linejoin:miter;stroke:rgb(0%,0%,0%);stroke-opacity:1;stroke-miterlimit:10;" d="M 4.599801 0.610655 L 5.473027 0.0991938 " transform="matrix(17.374517,0,0,17.382812,17.057234,17.373388)"/>
<path style="fill:none;stroke-width:0.0333333;stroke-linecap:butt;stroke-linejoin:miter;stroke:rgb(0%,0%,0%);stroke-opacity:1;stroke-miterlimit:10;" d="M 2.391781 1.87043 L 1.705836 1.470205 " transform="matrix(17.374517,0,0,17.382812,17.057234,17.373388)"/>
<path style="fill:none;stroke-width:0.0333333;stroke-linecap:butt;stroke-linejoin:miter;stroke:rgb(0%,0%,0%);stroke-opacity:1;stroke-miterlimit:10;" d="M 6.316576 1.591329 L 6.316576 0.741441 " transform="matrix(17.374517,0,0,17.382812,17.057234,17.373388)"/>
<path style="fill:none;stroke-width:0.0333333;stroke-linecap:butt;stroke-linejoin:miter;stroke:rgb(0%,0%,0%);stroke-opacity:1;stroke-miterlimit:10;" d="M 1.705836 1.470205 L 1.705836 0.489756 " transform="matrix(17.374517,0,0,17.382812,17.057234,17.373388)"/>
<path style="fill:none;stroke-width:0.0333333;stroke-linecap:butt;stroke-linejoin:miter;stroke:rgb(0%,0%,0%);stroke-opacity:1;stroke-miterlimit:10;" d="M 1.705836 1.470205 L 0.843177 1.987284 " transform="matrix(17.374517,0,0,17.382812,17.057234,17.373388)"/>
<path style="fill:none;stroke-width:0.0333333;stroke-linecap:butt;stroke-linejoin:miter;stroke:rgb(0%,0%,0%);stroke-opacity:1;stroke-miterlimit:10;" d="M 1.714155 0.504138 L 0.843177 -0.0048511 " transform="matrix(17.374517,0,0,17.382812,17.057234,17.373388)"/>
<path style="fill:none;stroke-width:0.0333333;stroke-linecap:butt;stroke-linejoin:miter;stroke:rgb(0%,0%,0%);stroke-opacity:1;stroke-miterlimit:10;" d="M 0.860039 1.987059 L -0.00824034 1.483014 " transform="matrix(17.374517,0,0,17.382812,17.057234,17.373388)"/>
<path style="fill:none;stroke-width:0.0333333;stroke-linecap:butt;stroke-linejoin:miter;stroke:rgb(0%,0%,0%);stroke-opacity:1;stroke-miterlimit:10;" d="M 0.860039 -0.0048511 L -0.00824034 0.504138 " transform="matrix(17.374517,0,0,17.382812,17.057234,17.373388)"/>
<path style="fill:none;stroke-width:0.0333333;stroke-linecap:butt;stroke-linejoin:miter;stroke:rgb(0%,0%,0%);stroke-opacity:1;stroke-miterlimit:10;" d="M 5.456615 0.0991938 L 6.150204 0.493576 " transform="matrix(17.374517,0,0,17.382812,17.057234,17.373388)"/>
<path style="fill:none;stroke-width:0.0333333;stroke-linecap:butt;stroke-linejoin:miter;stroke:rgb(0%,0%,0%);stroke-opacity:1;stroke-miterlimit:10;" d="M 5.457739 0.291553 L 6.067918 0.63852 " transform="matrix(17.374517,0,0,17.382812,17.057234,17.373388)"/>
<path style="fill:none;stroke-width:0.0333333;stroke-linecap:butt;stroke-linejoin:miter;stroke:rgb(0%,0%,0%);stroke-opacity:1;stroke-miterlimit:10;" d="M 0.0000782403 1.497621 L 0.0000782403 0.489756 " transform="matrix(17.374517,0,0,17.382812,17.057234,17.373388)"/>
</g>
</svg>
