<?xml version="1.0" encoding="UTF-8"?>
<svg xmlns="http://www.w3.org/2000/svg" xmlns:xlink="http://www.w3.org/1999/xlink" width="166.4pt" height="149.6pt" viewBox="0 0 166.4 149.6" version="1.1">
<g id="surface52">
<path style=" stroke:none;fill-rule:nonzero;fill:rgb(0%,0%,0%);fill-opacity:1;" d="M 132.054688 13.570312 L 132.710938 13.742188 C 132.570312 14.285156 132.324219 14.695312 131.964844 14.976562 C 131.609375 15.257812 131.171875 15.398438 130.65625 15.402344 C 130.121094 15.398438 129.6875 15.292969 129.351562 15.078125 C 129.015625 14.859375 128.757812 14.542969 128.582031 14.125 C 128.40625 13.714844 128.320312 13.269531 128.324219 12.792969 C 128.320312 12.277344 128.421875 11.824219 128.617188 11.4375 C 128.8125 11.050781 129.09375 10.757812 129.460938 10.558594 C 129.824219 10.359375 130.226562 10.257812 130.667969 10.257812 C 131.160156 10.257812 131.578125 10.386719 131.917969 10.636719 C 132.257812 10.890625 132.492188 11.246094 132.625 11.707031 L 131.980469 11.859375 C 131.859375 11.5 131.691406 11.238281 131.476562 11.070312 C 131.253906 10.90625 130.980469 10.820312 130.652344 10.820312 C 130.269531 10.820312 129.949219 10.914062 129.695312 11.09375 C 129.4375 11.28125 129.257812 11.527344 129.15625 11.835938 C 129.050781 12.144531 129 12.460938 129 12.789062 C 129 13.214844 129.058594 13.582031 129.183594 13.898438 C 129.304688 14.214844 129.496094 14.453125 129.757812 14.605469 C 130.015625 14.765625 130.296875 14.84375 130.601562 14.839844 C 130.96875 14.84375 131.28125 14.738281 131.535156 14.523438 C 131.789062 14.3125 131.960938 13.992188 132.054688 13.570312 Z M 132.054688 13.570312 "/>
<path style=" stroke:none;fill-rule:nonzero;fill:rgb(0%,0%,0%);fill-opacity:1;" d="M 133.441406 15.316406 L 133.441406 10.339844 L 134.050781 10.339844 L 134.050781 12.128906 C 134.332031 11.800781 134.691406 11.632812 135.125 11.628906 C 135.390625 11.632812 135.625 11.683594 135.820312 11.789062 C 136.015625 11.898438 136.15625 12.042969 136.242188 12.226562 C 136.324219 12.414062 136.367188 12.683594 136.371094 13.035156 L 136.371094 15.316406 L 135.761719 15.316406 L 135.761719 13.035156 C 135.757812 12.730469 135.691406 12.507812 135.5625 12.367188 C 135.429688 12.226562 135.242188 12.15625 135 12.15625 C 134.820312 12.15625 134.648438 12.207031 134.492188 12.296875 C 134.328125 12.394531 134.214844 12.523438 134.152344 12.679688 C 134.082031 12.84375 134.046875 13.0625 134.050781 13.347656 L 134.050781 15.316406 Z M 133.441406 15.316406 "/>
<path style=" stroke:none;fill-rule:nonzero;fill:rgb(0%,0%,0%);fill-opacity:1;" d="M 137.300781 11.042969 L 137.300781 10.339844 L 137.910156 10.339844 L 137.910156 11.042969 Z M 137.300781 15.316406 L 137.300781 11.710938 L 137.910156 11.710938 L 137.910156 15.316406 Z M 137.300781 15.316406 "/>
<path style=" stroke:none;fill-rule:nonzero;fill:rgb(0%,0%,0%);fill-opacity:1;" d="M 138.828125 15.316406 L 138.828125 11.710938 L 139.378906 11.710938 L 139.378906 12.261719 C 139.519531 12.003906 139.644531 11.835938 139.765625 11.753906 C 139.882812 11.675781 140.011719 11.632812 140.15625 11.628906 C 140.359375 11.632812 140.570312 11.699219 140.785156 11.828125 L 140.574219 12.394531 C 140.425781 12.308594 140.277344 12.261719 140.128906 12.261719 C 139.992188 12.261719 139.871094 12.304688 139.765625 12.386719 C 139.660156 12.46875 139.585938 12.578125 139.542969 12.714844 C 139.472656 12.9375 139.4375 13.175781 139.4375 13.429688 L 139.4375 15.316406 Z M 138.828125 15.316406 "/>
<path style=" stroke:none;fill-rule:nonzero;fill:rgb(0%,0%,0%);fill-opacity:1;" d="M 143.492188 14.871094 C 143.265625 15.066406 143.046875 15.203125 142.839844 15.28125 C 142.628906 15.363281 142.40625 15.398438 142.167969 15.398438 C 141.773438 15.398438 141.46875 15.304688 141.257812 15.109375 C 141.046875 14.917969 140.941406 14.671875 140.941406 14.367188 C 140.941406 14.195312 140.980469 14.03125 141.058594 13.882812 C 141.136719 13.738281 141.242188 13.621094 141.375 13.535156 C 141.5 13.445312 141.648438 13.382812 141.8125 13.332031 C 141.929688 13.304688 142.109375 13.269531 142.355469 13.242188 C 142.847656 13.179688 143.207031 13.109375 143.441406 13.027344 C 143.441406 12.949219 143.445312 12.894531 143.445312 12.871094 C 143.445312 12.625 143.386719 12.449219 143.273438 12.34375 C 143.117188 12.207031 142.882812 12.140625 142.578125 12.136719 C 142.289062 12.140625 142.078125 12.191406 141.941406 12.289062 C 141.804688 12.394531 141.703125 12.570312 141.640625 12.824219 L 141.042969 12.742188 C 141.09375 12.488281 141.183594 12.28125 141.3125 12.121094 C 141.433594 11.96875 141.617188 11.84375 141.851562 11.757812 C 142.082031 11.675781 142.355469 11.632812 142.667969 11.628906 C 142.972656 11.632812 143.222656 11.667969 143.414062 11.738281 C 143.605469 11.8125 143.746094 11.90625 143.839844 12.011719 C 143.925781 12.128906 143.992188 12.265625 144.027344 12.429688 C 144.046875 12.539062 144.054688 12.726562 144.058594 12.992188 L 144.058594 13.808594 C 144.054688 14.375 144.070312 14.734375 144.097656 14.886719 C 144.121094 15.039062 144.171875 15.183594 144.25 15.316406 L 143.613281 15.316406 C 143.550781 15.191406 143.507812 15.046875 143.492188 14.871094 Z M 143.441406 13.507812 C 143.21875 13.601562 142.886719 13.679688 142.445312 13.742188 C 142.195312 13.777344 142.015625 13.820312 141.914062 13.863281 C 141.808594 13.910156 141.730469 13.976562 141.675781 14.0625 C 141.617188 14.152344 141.589844 14.25 141.589844 14.351562 C 141.589844 14.515625 141.652344 14.652344 141.773438 14.757812 C 141.894531 14.871094 142.074219 14.925781 142.3125 14.921875 C 142.546875 14.925781 142.753906 14.871094 142.941406 14.765625 C 143.125 14.667969 143.257812 14.523438 143.34375 14.34375 C 143.40625 14.207031 143.4375 14.003906 143.441406 13.730469 Z M 143.441406 13.507812 "/>
<path style=" stroke:none;fill-rule:nonzero;fill:rgb(0%,0%,0%);fill-opacity:1;" d="M 144.988281 15.316406 L 144.988281 10.339844 L 145.597656 10.339844 L 145.597656 15.316406 Z M 144.988281 15.316406 "/>
<path style=" stroke:none;fill-rule:nonzero;fill:rgb(0%,0%,0%);fill-opacity:1;" d="M 143.226562 56.734375 C 143.226562 55.910156 143.445312 55.265625 143.890625 54.796875 C 144.332031 54.332031 144.902344 54.097656 145.601562 54.09375 C 146.058594 54.097656 146.472656 54.207031 146.84375 54.425781 C 147.207031 54.644531 147.488281 54.949219 147.683594 55.34375 C 147.871094 55.738281 147.96875 56.183594 147.972656 56.679688 C 147.96875 57.1875 147.867188 57.636719 147.667969 58.03125 C 147.460938 58.433594 147.171875 58.734375 146.804688 58.9375 C 146.429688 59.140625 146.03125 59.242188 145.601562 59.242188 C 145.132812 59.242188 144.714844 59.128906 144.347656 58.90625 C 143.976562 58.679688 143.699219 58.371094 143.511719 57.980469 C 143.320312 57.585938 143.226562 57.175781 143.226562 56.734375 Z M 143.90625 56.746094 C 143.902344 57.347656 144.0625 57.820312 144.386719 58.164062 C 144.707031 58.511719 145.109375 58.683594 145.597656 58.683594 C 146.089844 58.683594 146.496094 58.511719 146.816406 58.160156 C 147.136719 57.8125 147.296875 57.316406 147.296875 56.675781 C 147.296875 56.269531 147.226562 55.917969 147.089844 55.613281 C 146.953125 55.3125 146.753906 55.078125 146.492188 54.914062 C 146.226562 54.746094 145.933594 54.664062 145.609375 54.664062 C 145.140625 54.664062 144.738281 54.824219 144.40625 55.144531 C 144.070312 55.464844 143.902344 56 143.90625 56.746094 Z M 143.90625 56.746094 "/>
<path style=" stroke:none;fill-rule:nonzero;fill:rgb(0%,0%,0%);fill-opacity:1;" d="M 112.027344 38.675781 C 112.023438 37.851562 112.246094 37.203125 112.691406 36.734375 C 113.132812 36.269531 113.703125 36.039062 114.402344 36.035156 C 114.859375 36.039062 115.273438 36.144531 115.644531 36.363281 C 116.007812 36.582031 116.289062 36.890625 116.484375 37.28125 C 116.671875 37.675781 116.769531 38.121094 116.773438 38.617188 C 116.769531 39.125 116.667969 39.574219 116.464844 39.972656 C 116.261719 40.371094 115.972656 40.671875 115.605469 40.875 C 115.230469 41.078125 114.832031 41.179688 114.398438 41.183594 C 113.929688 41.179688 113.515625 41.070312 113.144531 40.84375 C 112.777344 40.617188 112.5 40.308594 112.3125 39.917969 C 112.121094 39.527344 112.023438 39.113281 112.027344 38.675781 Z M 112.703125 38.683594 C 112.703125 39.285156 112.863281 39.757812 113.1875 40.101562 C 113.507812 40.449219 113.910156 40.625 114.398438 40.621094 C 114.890625 40.625 115.296875 40.449219 115.617188 40.101562 C 115.9375 39.753906 116.09375 39.253906 116.09375 38.613281 C 116.09375 38.210938 116.023438 37.855469 115.890625 37.550781 C 115.75 37.25 115.554688 37.019531 115.292969 36.851562 C 115.027344 36.6875 114.734375 36.601562 114.40625 36.601562 C 113.941406 36.601562 113.539062 36.761719 113.207031 37.082031 C 112.871094 37.402344 112.703125 37.9375 112.703125 38.683594 Z M 112.703125 38.683594 "/>
<path style=" stroke:none;fill-rule:nonzero;fill:rgb(0%,0%,0%);fill-opacity:1;" d="M 147.136719 21.289062 L 147.792969 21.457031 C 147.652344 22 147.40625 22.410156 147.050781 22.695312 C 146.691406 22.976562 146.253906 23.117188 145.738281 23.121094 C 145.203125 23.117188 144.769531 23.011719 144.433594 22.792969 C 144.097656 22.578125 143.839844 22.257812 143.667969 21.84375 C 143.488281 21.429688 143.402344 20.984375 143.40625 20.511719 C 143.402344 19.996094 143.503906 19.542969 143.703125 19.15625 C 143.894531 18.769531 144.175781 18.476562 144.542969 18.273438 C 144.90625 18.078125 145.308594 17.976562 145.75 17.972656 C 146.246094 17.976562 146.660156 18.105469 147 18.355469 C 147.339844 18.609375 147.574219 18.964844 147.707031 19.425781 L 147.0625 19.574219 C 146.941406 19.21875 146.777344 18.953125 146.558594 18.785156 C 146.335938 18.621094 146.0625 18.539062 145.734375 18.539062 C 145.351562 18.539062 145.03125 18.632812 144.777344 18.8125 C 144.519531 18.996094 144.339844 19.246094 144.238281 19.550781 C 144.136719 19.859375 144.082031 20.179688 144.082031 20.507812 C 144.082031 20.929688 144.144531 21.300781 144.265625 21.617188 C 144.386719 21.933594 144.578125 22.167969 144.839844 22.324219 C 145.097656 22.480469 145.378906 22.558594 145.683594 22.558594 C 146.050781 22.558594 146.363281 22.453125 146.617188 22.238281 C 146.871094 22.027344 147.042969 21.710938 147.136719 21.289062 Z M 147.136719 21.289062 "/>
<path style=" stroke:none;fill-rule:nonzero;fill:rgb(0%,0%,0%);fill-opacity:1;" d="M 143.226562 92.859375 C 143.226562 92.035156 143.445312 91.390625 143.890625 90.921875 C 144.332031 90.457031 144.902344 90.222656 145.601562 90.21875 C 146.058594 90.222656 146.472656 90.332031 146.84375 90.546875 C 147.207031 90.769531 147.488281 91.074219 147.683594 91.464844 C 147.871094 91.863281 147.96875 92.308594 147.972656 92.800781 C 147.96875 93.308594 147.867188 93.761719 147.667969 94.15625 C 147.460938 94.554688 147.171875 94.859375 146.804688 95.0625 C 146.429688 95.265625 146.03125 95.367188 145.601562 95.367188 C 145.132812 95.367188 144.714844 95.253906 144.347656 95.027344 C 143.976562 94.804688 143.699219 94.492188 143.511719 94.101562 C 143.320312 93.710938 143.226562 93.300781 143.226562 92.859375 Z M 143.90625 92.871094 C 143.902344 93.46875 144.0625 93.941406 144.386719 94.289062 C 144.707031 94.636719 145.109375 94.808594 145.597656 94.804688 C 146.089844 94.808594 146.496094 94.636719 146.816406 94.285156 C 147.136719 93.9375 147.296875 93.441406 147.296875 92.800781 C 147.296875 92.394531 147.226562 92.042969 147.089844 91.738281 C 146.953125 91.4375 146.753906 91.203125 146.492188 91.035156 C 146.226562 90.871094 145.933594 90.789062 145.609375 90.789062 C 145.140625 90.789062 144.738281 90.949219 144.40625 91.269531 C 144.070312 91.589844 143.902344 92.125 143.90625 92.871094 Z M 143.90625 92.871094 "/>
<path style=" stroke:none;fill-rule:nonzero;fill:rgb(0%,0%,0%);fill-opacity:1;" d="M 112.027344 110.917969 C 112.023438 110.097656 112.246094 109.449219 112.691406 108.980469 C 113.132812 108.515625 113.703125 108.28125 114.402344 108.28125 C 114.859375 108.28125 115.273438 108.390625 115.644531 108.609375 C 116.007812 108.828125 116.289062 109.136719 116.484375 109.527344 C 116.671875 109.921875 116.769531 110.367188 116.773438 110.863281 C 116.769531 111.371094 116.667969 111.820312 116.464844 112.21875 C 116.261719 112.617188 115.972656 112.917969 115.605469 113.121094 C 115.230469 113.324219 114.832031 113.425781 114.398438 113.429688 C 113.929688 113.425781 113.515625 113.316406 113.144531 113.089844 C 112.777344 112.863281 112.5 112.554688 112.3125 112.164062 C 112.121094 111.773438 112.023438 111.359375 112.027344 110.917969 Z M 112.703125 110.929688 C 112.703125 111.53125 112.863281 112.003906 113.1875 112.347656 C 113.507812 112.695312 113.910156 112.871094 114.398438 112.867188 C 114.890625 112.871094 115.296875 112.695312 115.617188 112.34375 C 115.9375 111.996094 116.09375 111.5 116.09375 110.859375 C 116.09375 110.457031 116.023438 110.101562 115.890625 109.796875 C 115.75 109.496094 115.554688 109.261719 115.292969 109.097656 C 115.027344 108.933594 114.734375 108.847656 114.40625 108.847656 C 113.941406 108.847656 113.539062 109.007812 113.207031 109.328125 C 112.871094 109.648438 112.703125 110.183594 112.703125 110.929688 Z M 112.703125 110.929688 "/>
<path style=" stroke:none;fill-rule:nonzero;fill:rgb(0%,0%,0%);fill-opacity:1;" d="M 147.136719 129.65625 L 147.792969 129.824219 C 147.652344 130.367188 147.40625 130.777344 147.050781 131.0625 C 146.691406 131.34375 146.253906 131.484375 145.738281 131.488281 C 145.203125 131.484375 144.769531 131.378906 144.433594 131.160156 C 144.097656 130.945312 143.839844 130.625 143.667969 130.210938 C 143.488281 129.796875 143.402344 129.351562 143.40625 128.878906 C 143.402344 128.363281 143.503906 127.910156 143.703125 127.523438 C 143.894531 127.136719 144.175781 126.84375 144.542969 126.644531 C 144.90625 126.445312 145.308594 126.34375 145.75 126.339844 C 146.246094 126.34375 146.660156 126.472656 147 126.722656 C 147.339844 126.976562 147.574219 127.332031 147.707031 127.792969 L 147.0625 127.945312 C 146.941406 127.585938 146.777344 127.320312 146.558594 127.152344 C 146.335938 126.988281 146.0625 126.90625 145.734375 126.90625 C 145.351562 126.90625 145.03125 127 144.777344 127.179688 C 144.519531 127.363281 144.339844 127.613281 144.238281 127.917969 C 144.136719 128.226562 144.082031 128.546875 144.082031 128.875 C 144.082031 129.296875 144.144531 129.667969 144.265625 129.984375 C 144.386719 130.300781 144.578125 130.535156 144.839844 130.691406 C 145.097656 130.847656 145.378906 130.925781 145.683594 130.925781 C 146.050781 130.925781 146.363281 130.820312 146.617188 130.605469 C 146.871094 130.394531 147.042969 130.078125 147.136719 129.65625 Z M 147.136719 129.65625 "/>
<path style=" stroke:none;fill-rule:nonzero;fill:rgb(0%,0%,0%);fill-opacity:1;" d="M 49.628906 38.675781 C 49.625 37.851562 49.847656 37.203125 50.292969 36.734375 C 50.734375 36.269531 51.300781 36.039062 52.003906 36.035156 C 52.457031 36.039062 52.871094 36.144531 53.242188 36.363281 C 53.609375 36.582031 53.886719 36.890625 54.082031 37.28125 C 54.273438 37.675781 54.371094 38.121094 54.371094 38.617188 C 54.371094 39.125 54.265625 39.574219 54.066406 39.972656 C 53.859375 40.371094 53.574219 40.671875 53.207031 40.875 C 52.832031 41.078125 52.429688 41.179688 52 41.183594 C 51.53125 41.179688 51.113281 41.070312 50.746094 40.84375 C 50.378906 40.617188 50.097656 40.308594 49.910156 39.917969 C 49.71875 39.527344 49.625 39.113281 49.628906 38.675781 Z M 50.304688 38.683594 C 50.300781 39.285156 50.464844 39.757812 50.785156 40.101562 C 51.105469 40.449219 51.511719 40.625 51.996094 40.621094 C 52.488281 40.625 52.894531 40.449219 53.214844 40.101562 C 53.535156 39.753906 53.695312 39.253906 53.695312 38.613281 C 53.695312 38.210938 53.625 37.855469 53.488281 37.550781 C 53.351562 37.25 53.152344 37.019531 52.890625 36.851562 C 52.628906 36.6875 52.332031 36.601562 52.007812 36.601562 C 51.539062 36.601562 51.140625 36.761719 50.804688 37.082031 C 50.46875 37.402344 50.300781 37.9375 50.304688 38.683594 Z M 50.304688 38.683594 "/>
<path style=" stroke:none;fill-rule:nonzero;fill:rgb(0%,0%,0%);fill-opacity:1;" d="M 49.628906 74.796875 C 49.625 73.972656 49.847656 73.328125 50.292969 72.855469 C 50.734375 72.390625 51.300781 72.160156 52.003906 72.15625 C 52.457031 72.160156 52.871094 72.265625 53.242188 72.484375 C 53.609375 72.703125 53.886719 73.011719 54.082031 73.402344 C 54.273438 73.800781 54.371094 74.246094 54.371094 74.738281 C 54.371094 75.246094 54.265625 75.695312 54.066406 76.09375 C 53.859375 76.492188 53.574219 76.792969 53.207031 76.996094 C 52.832031 77.203125 52.429688 77.300781 52 77.304688 C 51.53125 77.300781 51.113281 77.191406 50.746094 76.964844 C 50.378906 76.738281 50.097656 76.429688 49.910156 76.039062 C 49.71875 75.648438 49.625 75.234375 49.628906 74.796875 Z M 50.304688 74.804688 C 50.300781 75.40625 50.464844 75.878906 50.785156 76.222656 C 51.105469 76.570312 51.511719 76.746094 51.996094 76.742188 C 52.488281 76.746094 52.894531 76.570312 53.214844 76.222656 C 53.535156 75.875 53.695312 75.375 53.695312 74.734375 C 53.695312 74.332031 53.625 73.976562 53.488281 73.675781 C 53.351562 73.371094 53.152344 73.140625 52.890625 72.972656 C 52.628906 72.808594 52.332031 72.722656 52.007812 72.722656 C 51.539062 72.722656 51.140625 72.882812 50.804688 73.203125 C 50.46875 73.523438 50.300781 74.058594 50.304688 74.804688 Z M 50.304688 74.804688 "/>
<path style=" stroke:none;fill-rule:nonzero;fill:rgb(0%,0%,0%);fill-opacity:1;" d="M 22.335938 57.414062 L 22.992188 57.582031 C 22.851562 58.125 22.605469 58.535156 22.25 58.816406 C 21.890625 59.101562 21.453125 59.242188 20.9375 59.242188 C 20.402344 59.242188 19.96875 59.136719 19.632812 58.917969 C 19.296875 58.699219 19.039062 58.382812 18.867188 57.96875 C 18.691406 57.554688 18.605469 57.109375 18.605469 56.632812 C 18.605469 56.117188 18.703125 55.667969 18.902344 55.28125 C 19.097656 54.894531 19.375 54.601562 19.742188 54.398438 C 20.105469 54.203125 20.511719 54.101562 20.949219 54.097656 C 21.445312 54.101562 21.863281 54.226562 22.199219 54.476562 C 22.539062 54.734375 22.773438 55.089844 22.90625 55.546875 L 22.261719 55.699219 C 22.144531 55.34375 21.976562 55.078125 21.757812 54.910156 C 21.535156 54.746094 21.261719 54.664062 20.933594 54.664062 C 20.550781 54.664062 20.230469 54.753906 19.976562 54.9375 C 19.71875 55.121094 19.539062 55.367188 19.4375 55.675781 C 19.335938 55.984375 19.285156 56.304688 19.285156 56.632812 C 19.285156 57.054688 19.34375 57.425781 19.46875 57.738281 C 19.585938 58.058594 19.777344 58.292969 20.039062 58.449219 C 20.300781 58.605469 20.582031 58.683594 20.882812 58.683594 C 21.253906 58.683594 21.5625 58.578125 21.816406 58.363281 C 22.074219 58.152344 22.242188 57.835938 22.335938 57.414062 Z M 22.335938 57.414062 "/>
<path style=" stroke:none;fill-rule:nonzero;fill:rgb(0%,0%,0%);fill-opacity:1;" d="M 70.425781 110.917969 C 70.425781 110.097656 70.648438 109.449219 71.089844 108.980469 C 71.53125 108.515625 72.101562 108.28125 72.800781 108.28125 C 73.257812 108.28125 73.671875 108.390625 74.042969 108.609375 C 74.410156 108.828125 74.6875 109.136719 74.882812 109.527344 C 75.074219 109.921875 75.167969 110.367188 75.171875 110.863281 C 75.167969 111.371094 75.066406 111.820312 74.867188 112.21875 C 74.660156 112.617188 74.375 112.917969 74.003906 113.121094 C 73.632812 113.324219 73.230469 113.425781 72.800781 113.429688 C 72.332031 113.425781 71.914062 113.316406 71.546875 113.089844 C 71.175781 112.863281 70.898438 112.554688 70.710938 112.164062 C 70.519531 111.773438 70.425781 111.359375 70.425781 110.917969 Z M 71.105469 110.929688 C 71.101562 111.53125 71.265625 112.003906 71.585938 112.347656 C 71.90625 112.695312 72.308594 112.871094 72.796875 112.867188 C 73.289062 112.871094 73.695312 112.695312 74.015625 112.34375 C 74.335938 111.996094 74.496094 111.5 74.496094 110.859375 C 74.496094 110.457031 74.425781 110.101562 74.289062 109.796875 C 74.152344 109.496094 73.953125 109.261719 73.691406 109.097656 C 73.429688 108.933594 73.132812 108.847656 72.808594 108.847656 C 72.339844 108.847656 71.9375 109.007812 71.605469 109.328125 C 71.269531 109.648438 71.101562 110.183594 71.105469 110.929688 Z M 71.105469 110.929688 "/>
<path style=" stroke:none;fill-rule:nonzero;fill:rgb(0%,0%,0%);fill-opacity:1;" d="M 132.828125 74.796875 C 132.824219 73.972656 133.046875 73.328125 133.492188 72.855469 C 133.933594 72.390625 134.5 72.160156 135.203125 72.15625 C 135.65625 72.160156 136.070312 72.265625 136.441406 72.484375 C 136.808594 72.703125 137.085938 73.011719 137.28125 73.402344 C 137.472656 73.800781 137.570312 74.246094 137.574219 74.738281 C 137.570312 75.246094 137.46875 75.695312 137.265625 76.09375 C 137.0625 76.492188 136.773438 76.792969 136.40625 76.996094 C 136.03125 77.203125 135.628906 77.300781 135.199219 77.304688 C 134.730469 77.300781 134.3125 77.191406 133.945312 76.964844 C 133.578125 76.738281 133.296875 76.429688 133.113281 76.039062 C 132.917969 75.648438 132.824219 75.234375 132.828125 74.796875 Z M 133.503906 74.804688 C 133.5 75.40625 133.664062 75.878906 133.988281 76.222656 C 134.304688 76.570312 134.710938 76.746094 135.199219 76.742188 C 135.691406 76.746094 136.097656 76.570312 136.417969 76.222656 C 136.734375 75.875 136.894531 75.375 136.894531 74.734375 C 136.894531 74.332031 136.824219 73.976562 136.691406 73.675781 C 136.550781 73.371094 136.355469 73.140625 136.089844 72.972656 C 135.828125 72.808594 135.53125 72.722656 135.207031 72.722656 C 134.738281 72.722656 134.339844 72.882812 134.003906 73.203125 C 133.667969 73.523438 133.5 74.058594 133.503906 74.804688 Z M 133.503906 74.804688 "/>
<path style=" stroke:none;fill-rule:nonzero;fill:rgb(0%,0%,0%);fill-opacity:1;" d="M 70.425781 38.675781 C 70.425781 37.851562 70.648438 37.203125 71.089844 36.734375 C 71.53125 36.269531 72.101562 36.039062 72.800781 36.035156 C 73.257812 36.039062 73.671875 36.144531 74.042969 36.363281 C 74.410156 36.582031 74.6875 36.890625 74.882812 37.28125 C 75.074219 37.675781 75.167969 38.121094 75.171875 38.617188 C 75.167969 39.125 75.066406 39.574219 74.867188 39.972656 C 74.660156 40.371094 74.375 40.671875 74.003906 40.875 C 73.632812 41.078125 73.230469 41.179688 72.800781 41.183594 C 72.332031 41.179688 71.914062 41.070312 71.546875 40.84375 C 71.175781 40.617188 70.898438 40.308594 70.710938 39.917969 C 70.519531 39.527344 70.425781 39.113281 70.425781 38.675781 Z M 71.105469 38.683594 C 71.101562 39.285156 71.265625 39.757812 71.585938 40.101562 C 71.90625 40.449219 72.308594 40.625 72.796875 40.621094 C 73.289062 40.625 73.695312 40.449219 74.015625 40.101562 C 74.335938 39.753906 74.496094 39.253906 74.496094 38.613281 C 74.496094 38.210938 74.425781 37.855469 74.289062 37.550781 C 74.152344 37.25 73.953125 37.019531 73.691406 36.851562 C 73.429688 36.6875 73.132812 36.601562 72.808594 36.601562 C 72.339844 36.601562 71.9375 36.761719 71.605469 37.082031 C 71.269531 37.402344 71.101562 37.9375 71.105469 38.683594 Z M 71.105469 38.683594 "/>
<path style="fill:none;stroke-width:0.0333333;stroke-linecap:butt;stroke-linejoin:miter;stroke:rgb(0%,0%,0%);stroke-opacity:1;stroke-miterlimit:10;" d="M 4.044516 1.67619 L 4.026111 1.665701 M 4.089025 1.620373 L 4.052216 1.599208 M 4.133533 1.564556 L 4.07832 1.532714 M 4.178042 1.508739 L 4.104612 1.466221 M 4.222551 1.452735 L 4.130529 1.399728 M 4.266872 1.396918 L 4.156821 1.333422 M 4.31138 1.341101 L 4.182925 1.266929 M 4.356077 1.285284 L 4.209029 1.200435 M 4.400586 1.22928 L 4.235133 1.133942 M 4.444907 1.173463 L 4.261238 1.067449 M 4.489415 1.117646 L 4.287342 1.000955 " transform="matrix(20.8,0,0,20.855019,20.799851,20.546932)"/>
<path style="fill:none;stroke-width:0.0333333;stroke-linecap:butt;stroke-linejoin:miter;stroke:rgb(0%,0%,0%);stroke-opacity:1;stroke-miterlimit:10;" d="M 5.403816 0.866096 L 5.816226 1.580477 " transform="matrix(20.8,0,0,20.855019,20.799851,20.546932)"/>
<path style="fill:none;stroke-width:0.0333333;stroke-linecap:butt;stroke-linejoin:miter;stroke:rgb(0%,0%,0%);stroke-opacity:1;stroke-miterlimit:10;" d="M 5.548234 0.782745 L 5.960644 1.497126 " transform="matrix(20.8,0,0,20.855019,20.799851,20.546932)"/>
<path style="fill:none;stroke-width:0.0333333;stroke-linecap:butt;stroke-linejoin:miter;stroke:rgb(0%,0%,0%);stroke-opacity:1;stroke-miterlimit:10;" d="M 5.509735 0.866096 L 4.657497 0.866096 " transform="matrix(20.8,0,0,20.855019,20.799851,20.546932)"/>
<path style="fill:none;stroke-width:0.0333333;stroke-linecap:butt;stroke-linejoin:miter;stroke:rgb(0%,0%,0%);stroke-opacity:1;stroke-miterlimit:10;" d="M 4.026111 3.530697 L 4.044516 3.520021 M 4.052216 3.59719 L 4.089025 3.576025 M 4.07832 3.663684 L 4.133533 3.631842 M 4.104612 3.72999 L 4.178042 3.687659 M 4.130529 3.796483 L 4.222551 3.743476 M 4.156821 3.862976 L 4.266872 3.799293 M 4.182925 3.92947 L 4.31138 3.85511 M 4.209029 3.995963 L 4.356077 3.910926 M 4.235133 4.062269 L 4.400586 3.966931 M 4.261238 4.128762 L 4.444907 4.022748 M 4.287342 4.195255 L 4.489415 4.078564 " transform="matrix(20.8,0,0,20.855019,20.799851,20.546932)"/>
<path style="fill:none;stroke-width:0.0333333;stroke-linecap:butt;stroke-linejoin:miter;stroke:rgb(0%,0%,0%);stroke-opacity:1;stroke-miterlimit:10;" d="M 5.548234 4.413653 L 5.960644 3.699084 " transform="matrix(20.8,0,0,20.855019,20.799851,20.546932)"/>
<path style="fill:none;stroke-width:0.0333333;stroke-linecap:butt;stroke-linejoin:miter;stroke:rgb(0%,0%,0%);stroke-opacity:1;stroke-miterlimit:10;" d="M 5.403816 4.330302 L 5.816226 3.615734 " transform="matrix(20.8,0,0,20.855019,20.799851,20.546932)"/>
<path style="fill:none;stroke-width:0.0333333;stroke-linecap:butt;stroke-linejoin:miter;stroke:rgb(0%,0%,0%);stroke-opacity:1;stroke-miterlimit:10;" d="M 5.509735 4.330302 L 4.657497 4.330302 " transform="matrix(20.8,0,0,20.855019,20.799851,20.546932)"/>
<path style="fill:none;stroke-width:0.0333333;stroke-linecap:butt;stroke-linejoin:miter;stroke:rgb(0%,0%,0%);stroke-opacity:1;stroke-miterlimit:10;" d="M 2.429807 2.588366 L 2.429807 2.607845 M 2.35957 2.578626 L 2.35957 2.617585 M 2.289333 2.568886 L 2.289333 2.627325 M 2.219095 2.559146 L 2.219095 2.637065 M 2.149046 2.549593 L 2.149046 2.646617 M 2.078808 2.539854 L 2.078808 2.656357 M 2.008383 2.529926 L 2.008383 2.666284 M 1.938333 2.520374 L 1.938333 2.675837 M 1.868096 2.510634 L 1.868096 2.685577 M 1.797859 2.500894 L 1.797859 2.695317 M 1.727621 2.491154 L 1.727621 2.705057 M 1.657384 2.481414 L 1.657384 2.714796 " transform="matrix(20.8,0,0,20.855019,20.799851,20.546932)"/>
<path style="fill:none;stroke-width:0.0333333;stroke-linecap:butt;stroke-linejoin:miter;stroke:rgb(0%,0%,0%);stroke-opacity:1;stroke-miterlimit:10;" d="M 1.047971 1.815358 L 1.460569 1.100976 " transform="matrix(20.8,0,0,20.855019,20.799851,20.546932)"/>
<path style="fill:none;stroke-width:0.0333333;stroke-linecap:butt;stroke-linejoin:miter;stroke:rgb(0%,0%,0%);stroke-opacity:1;stroke-miterlimit:10;" d="M 0.903741 1.732007 L 1.316338 1.017626 " transform="matrix(20.8,0,0,20.855019,20.799851,20.546932)"/>
<path style="fill:none;stroke-width:0.0333333;stroke-linecap:butt;stroke-linejoin:miter;stroke:rgb(0%,0%,0%);stroke-opacity:1;stroke-miterlimit:10;" d="M 0.995199 1.723766 L 1.388454 2.404807 " transform="matrix(20.8,0,0,20.855019,20.799851,20.546932)"/>
<path style="fill:none;stroke-width:0.0333333;stroke-linecap:butt;stroke-linejoin:miter;stroke:rgb(0%,0%,0%);stroke-opacity:1;stroke-miterlimit:10;" d="M 3.004852 3.472633 L 2.495162 2.589864 " transform="matrix(20.8,0,0,20.855019,20.799851,20.546932)"/>
<path style="fill:none;stroke-width:0.0333333;stroke-linecap:butt;stroke-linejoin:miter;stroke:rgb(0%,0%,0%);stroke-opacity:1;stroke-miterlimit:10;" d="M 4.009585 3.464204 L 2.990392 3.464204 " transform="matrix(20.8,0,0,20.855019,20.799851,20.546932)"/>
<path style="fill:none;stroke-width:0.0333333;stroke-linecap:butt;stroke-linejoin:miter;stroke:rgb(0%,0%,0%);stroke-opacity:1;stroke-miterlimit:10;" d="M 4.504815 2.589864 L 3.995124 3.472633 " transform="matrix(20.8,0,0,20.855019,20.799851,20.546932)"/>
<path style="fill:none;stroke-width:0.0333333;stroke-linecap:butt;stroke-linejoin:miter;stroke:rgb(0%,0%,0%);stroke-opacity:1;stroke-miterlimit:10;" d="M 3.995124 1.723766 L 4.504815 2.606347 " transform="matrix(20.8,0,0,20.855019,20.799851,20.546932)"/>
<path style="fill:none;stroke-width:0.0333333;stroke-linecap:butt;stroke-linejoin:miter;stroke:rgb(0%,0%,0%);stroke-opacity:1;stroke-miterlimit:10;" d="M 2.990392 1.732007 L 4.009585 1.732007 " transform="matrix(20.8,0,0,20.855019,20.799851,20.546932)"/>
<path style="fill:none;stroke-width:0.0333333;stroke-linecap:butt;stroke-linejoin:miter;stroke:rgb(0%,0%,0%);stroke-opacity:1;stroke-miterlimit:10;" d="M 3.004852 1.723766 L 2.495162 2.606347 " transform="matrix(20.8,0,0,20.855019,20.799851,20.546932)"/>
<path style=" stroke:none;fill-rule:nonzero;fill:rgb(0%,0%,0%);fill-opacity:1;" d="M 83.199219 92.792969 L 73.019531 105.605469 L 77.222656 108.039062 "/>
<path style=" stroke:none;fill-rule:nonzero;fill:rgb(0%,0%,0%);fill-opacity:1;" d="M 114.398438 74.730469 L 131.925781 77.164062 L 131.925781 72.296875 "/>
<path style=" stroke:none;fill-rule:nonzero;fill:rgb(0%,0%,0%);fill-opacity:1;" d="M 83.199219 56.667969 L 77.222656 41.421875 L 73.019531 43.855469 "/>
<path style="fill:none;stroke-width:0.0333333;stroke-linecap:butt;stroke-linejoin:miter;stroke:rgb(0%,0%,0%);stroke-opacity:1;stroke-miterlimit:10;" d="M 1.00966 1.732007 L 0.148783 1.732007 " transform="matrix(20.8,0,0,20.855019,20.799851,20.546932)"/>
<path style="fill:none;stroke-width:0.0333333;stroke-linecap:butt;stroke-linejoin:miter;stroke:rgb(0%,0%,0%);stroke-opacity:1;stroke-miterlimit:10;" d="M 5.495275 4.321874 L 5.890595 5.006661 " transform="matrix(20.8,0,0,20.855019,20.799851,20.546932)"/>
<path style="fill:none;stroke-width:0.0333333;stroke-linecap:butt;stroke-linejoin:miter;stroke:rgb(0%,0%,0%);stroke-opacity:1;stroke-miterlimit:10;" d="M 5.495275 0.874337 L 5.890595 0.18955 " transform="matrix(20.8,0,0,20.855019,20.799851,20.546932)"/>
</g>
</svg>
