<?xml version="1.0" encoding="UTF-8"?>
<svg xmlns="http://www.w3.org/2000/svg" xmlns:xlink="http://www.w3.org/1999/xlink" width="216.8pt" height="108.8pt" viewBox="0 0 216.8 108.8" version="1.1">
<g id="surface1312">
<path style=" stroke:none;fill-rule:nonzero;fill:rgb(0%,0%,0%);fill-opacity:1;" d="M 88.332031 78.082031 C 88.328125 77.261719 88.550781 76.617188 88.996094 76.148438 C 89.4375 75.683594 90.007812 75.449219 90.710938 75.449219 C 91.167969 75.449219 91.582031 75.558594 91.953125 75.777344 C 92.320312 75.996094 92.601562 76.300781 92.796875 76.691406 C 92.984375 77.089844 93.082031 77.53125 93.085938 78.027344 C 93.082031 78.53125 92.980469 78.984375 92.777344 79.378906 C 92.574219 79.777344 92.285156 80.078125 91.914062 80.28125 C 91.542969 80.484375 91.140625 80.585938 90.707031 80.585938 C 90.238281 80.585938 89.820312 80.472656 89.453125 80.25 C 89.082031 80.023438 88.800781 79.714844 88.613281 79.324219 C 88.421875 78.933594 88.328125 78.523438 88.332031 78.082031 Z M 89.007812 78.09375 C 89.007812 78.691406 89.167969 79.164062 89.492188 79.507812 C 89.8125 79.855469 90.214844 80.027344 90.707031 80.027344 C 91.199219 80.027344 91.605469 79.855469 91.925781 79.507812 C 92.246094 79.160156 92.40625 78.664062 92.40625 78.023438 C 92.40625 77.621094 92.335938 77.265625 92.199219 76.964844 C 92.0625 76.664062 91.863281 76.429688 91.601562 76.265625 C 91.335938 76.097656 91.042969 76.015625 90.714844 76.015625 C 90.246094 76.015625 89.84375 76.175781 89.511719 76.496094 C 89.175781 76.8125 89.007812 77.347656 89.007812 78.09375 Z M 89.007812 78.09375 "/>
<path style=" stroke:none;fill-rule:nonzero;fill:rgb(0%,0%,0%);fill-opacity:1;" d="M 67.527344 51.332031 L 67.527344 46.363281 L 68.203125 46.363281 L 70.816406 50.261719 L 70.816406 46.363281 L 71.445312 46.363281 L 71.445312 51.332031 L 70.769531 51.332031 L 68.160156 47.425781 L 68.160156 51.332031 Z M 67.527344 51.332031 "/>
<path style=" stroke:none;fill-rule:nonzero;fill:rgb(0%,0%,0%);fill-opacity:1;" d="M 136.746094 20.671875 C 136.742188 19.851562 136.964844 19.207031 137.410156 18.738281 C 137.851562 18.273438 138.421875 18.039062 139.125 18.039062 C 139.582031 18.039062 139.996094 18.148438 140.371094 18.367188 C 140.734375 18.585938 141.015625 18.890625 141.210938 19.28125 C 141.402344 19.679688 141.5 20.121094 141.5 20.617188 C 141.5 21.121094 141.394531 21.574219 141.195312 21.96875 C 140.988281 22.367188 140.699219 22.667969 140.332031 22.871094 C 139.957031 23.074219 139.554688 23.175781 139.125 23.175781 C 138.652344 23.175781 138.234375 23.0625 137.867188 22.839844 C 137.496094 22.613281 137.21875 22.304688 137.03125 21.914062 C 136.839844 21.523438 136.742188 21.113281 136.746094 20.671875 Z M 137.425781 20.683594 C 137.421875 21.28125 137.585938 21.753906 137.90625 22.097656 C 138.226562 22.445312 138.632812 22.617188 139.121094 22.617188 C 139.613281 22.617188 140.023438 22.445312 140.34375 22.09375 C 140.664062 21.75 140.824219 21.253906 140.824219 20.613281 C 140.824219 20.210938 140.753906 19.855469 140.617188 19.554688 C 140.476562 19.253906 140.28125 19.019531 140.015625 18.855469 C 139.753906 18.6875 139.457031 18.605469 139.132812 18.605469 C 138.664062 18.605469 138.261719 18.765625 137.925781 19.085938 C 137.589844 19.402344 137.421875 19.9375 137.425781 20.683594 Z M 137.425781 20.683594 "/>
<path style=" stroke:none;fill-rule:nonzero;fill:rgb(0%,0%,0%);fill-opacity:1;" d="M 158.386719 52.261719 L 158.386719 47.292969 L 159.0625 47.292969 L 161.675781 51.191406 L 161.675781 47.292969 L 162.308594 47.292969 L 162.308594 52.261719 L 161.632812 52.261719 L 159.019531 48.355469 L 159.019531 52.261719 Z M 158.386719 52.261719 "/>
<path style=" stroke:none;fill-rule:nonzero;fill:rgb(0%,0%,0%);fill-opacity:1;" d="M 197.796875 46.75 L 198.457031 46.917969 C 198.316406 47.460938 198.066406 47.871094 197.710938 48.152344 C 197.351562 48.433594 196.910156 48.574219 196.394531 48.578125 C 195.859375 48.574219 195.425781 48.46875 195.089844 48.25 C 194.75 48.035156 194.492188 47.71875 194.320312 47.304688 C 194.144531 46.890625 194.054688 46.445312 194.058594 45.972656 C 194.054688 45.457031 194.15625 45.007812 194.355469 44.621094 C 194.550781 44.234375 194.832031 43.941406 195.199219 43.742188 C 195.5625 43.542969 195.96875 43.441406 196.40625 43.441406 C 196.902344 43.441406 197.320312 43.570312 197.660156 43.820312 C 198 44.074219 198.238281 44.429688 198.371094 44.886719 L 197.722656 45.039062 C 197.605469 44.683594 197.4375 44.417969 197.21875 44.25 C 196.996094 44.089844 196.722656 44.003906 196.394531 44.003906 C 196.007812 44.003906 195.6875 44.097656 195.433594 44.277344 C 195.175781 44.460938 194.996094 44.710938 194.890625 45.015625 C 194.789062 45.324219 194.738281 45.640625 194.738281 45.96875 C 194.738281 46.390625 194.796875 46.761719 194.921875 47.074219 C 195.042969 47.390625 195.234375 47.628906 195.496094 47.78125 C 195.753906 47.941406 196.039062 48.019531 196.34375 48.015625 C 196.710938 48.019531 197.023438 47.914062 197.277344 47.699219 C 197.535156 47.488281 197.703125 47.171875 197.796875 46.75 Z M 197.796875 46.75 "/>
<path style="fill:none;stroke-width:0.0333333;stroke-linecap:butt;stroke-linejoin:miter;stroke:rgb(0%,0%,0%);stroke-opacity:1;stroke-miterlimit:10;" d="M 2.1806 1.478047 L 1.538808 1.944366 " transform="matrix(20.846154,0,0,20.816327,20.542871,20.607481)"/>
<path style="fill:none;stroke-width:0.0333333;stroke-linecap:butt;stroke-linejoin:miter;stroke:rgb(0%,0%,0%);stroke-opacity:1;stroke-miterlimit:10;" d="M 3.173552 1.724248 L 3.264059 2.585201 " transform="matrix(20.846154,0,0,20.816327,20.542871,20.607481)"/>
<path style="fill:none;stroke-width:0.0333333;stroke-linecap:butt;stroke-linejoin:miter;stroke:rgb(0%,0%,0%);stroke-opacity:1;stroke-miterlimit:10;" d="M 3.3392 1.706797 L 3.429707 2.567937 " transform="matrix(20.846154,0,0,20.816327,20.542871,20.607481)"/>
<path style="fill:none;stroke-width:0.0333333;stroke-linecap:butt;stroke-linejoin:miter;stroke:rgb(0%,0%,0%);stroke-opacity:1;stroke-miterlimit:10;" d="M 3.270055 1.767409 L 2.522952 1.434512 " transform="matrix(20.846154,0,0,20.816327,20.542871,20.607481)"/>
<path style="fill:none;stroke-width:0.0333333;stroke-linecap:butt;stroke-linejoin:miter;stroke:rgb(0%,0%,0%);stroke-opacity:1;stroke-miterlimit:10;" d="M 6.87365 1.279886 L 7.523312 0.80775 " transform="matrix(20.846154,0,0,20.816327,20.542871,20.607481)"/>
<path style="fill:none;stroke-width:0.0333333;stroke-linecap:butt;stroke-linejoin:miter;stroke:rgb(0%,0%,0%);stroke-opacity:1;stroke-miterlimit:10;" d="M 5.880886 1.033685 L 5.790379 0.172732 " transform="matrix(20.846154,0,0,20.816327,20.542871,20.607481)"/>
<path style="fill:none;stroke-width:0.0333333;stroke-linecap:butt;stroke-linejoin:miter;stroke:rgb(0%,0%,0%);stroke-opacity:1;stroke-miterlimit:10;" d="M 5.71505 1.051136 L 5.624543 0.189996 " transform="matrix(20.846154,0,0,20.816327,20.542871,20.607481)"/>
<path style="fill:none;stroke-width:0.0333333;stroke-linecap:butt;stroke-linejoin:miter;stroke:rgb(0%,0%,0%);stroke-opacity:1;stroke-miterlimit:10;" d="M 5.784008 0.990712 L 6.531485 1.323234 " transform="matrix(20.846154,0,0,20.816327,20.542871,20.607481)"/>
<path style="fill:none;stroke-width:0.0333333;stroke-linecap:butt;stroke-linejoin:miter;stroke:rgb(0%,0%,0%);stroke-opacity:1;stroke-miterlimit:10;" d="M 4.992682 1.586136 L 4.061568 1.17161 " transform="matrix(20.846154,0,0,20.816327,20.542871,20.607481)"/>
<path style="fill:none;stroke-width:0.0333333;stroke-linecap:butt;stroke-linejoin:miter;stroke:rgb(0%,0%,0%);stroke-opacity:1;stroke-miterlimit:10;" d="M 4.972632 1.394729 L 4.217284 1.058643 " transform="matrix(20.846154,0,0,20.816327,20.542871,20.607481)"/>
<path style="fill:none;stroke-width:0.0333333;stroke-linecap:butt;stroke-linejoin:miter;stroke:rgb(0%,0%,0%);stroke-opacity:1;stroke-miterlimit:10;" d="M 7.506823 0.809627 L 8.24287 1.137457 " transform="matrix(20.846154,0,0,20.816327,20.542871,20.607481)"/>
<path style="fill:none;stroke-width:0.0333333;stroke-linecap:butt;stroke-linejoin:miter;stroke:rgb(0%,0%,0%);stroke-opacity:1;stroke-miterlimit:10;" d="M 5.800685 0.988836 L 4.976192 1.587825 " transform="matrix(20.846154,0,0,20.816327,20.542871,20.607481)"/>
<path style="fill:none;stroke-width:0.0333333;stroke-linecap:butt;stroke-linejoin:miter;stroke:rgb(0%,0%,0%);stroke-opacity:1;stroke-miterlimit:10;" d="M 1.538808 1.944366 L 0.576213 1.631735 " transform="matrix(20.846154,0,0,20.816327,20.542871,20.607481)"/>
<path style="fill:none;stroke-width:0.0333333;stroke-linecap:butt;stroke-linejoin:miter;stroke:rgb(0%,0%,0%);stroke-opacity:1;stroke-miterlimit:10;" d="M 1.538808 2.956567 L 1.538808 1.944366 " transform="matrix(20.846154,0,0,20.816327,20.542871,20.607481)"/>
<path style="fill:none;stroke-width:0.0333333;stroke-linecap:butt;stroke-linejoin:miter;stroke:rgb(0%,0%,0%);stroke-opacity:1;stroke-miterlimit:10;" d="M 1.550426 2.940616 L 0.576213 3.257187 " transform="matrix(20.846154,0,0,20.816327,20.542871,20.607481)"/>
<path style="fill:none;stroke-width:0.0333333;stroke-linecap:butt;stroke-linejoin:miter;stroke:rgb(0%,0%,0%);stroke-opacity:1;stroke-miterlimit:10;" d="M 0.594764 1.625731 L -0.00711595 2.454219 " transform="matrix(20.846154,0,0,20.816327,20.542871,20.607481)"/>
<path style="fill:none;stroke-width:0.0333333;stroke-linecap:butt;stroke-linejoin:miter;stroke:rgb(0%,0%,0%);stroke-opacity:1;stroke-miterlimit:10;" d="M -0.00711595 2.434703 L 0.594764 3.263192 " transform="matrix(20.846154,0,0,20.816327,20.542871,20.607481)"/>
<path style="fill:none;stroke-width:0.0333333;stroke-linecap:butt;stroke-linejoin:miter;stroke:rgb(0%,0%,0%);stroke-opacity:1;stroke-miterlimit:10;" d="M 3.253565 1.769098 L 4.078245 1.169921 " transform="matrix(20.846154,0,0,20.816327,20.542871,20.607481)"/>
</g>
</svg>
