<?xml version="1.0" encoding="UTF-8"?>
<svg xmlns="http://www.w3.org/2000/svg" xmlns:xlink="http://www.w3.org/1999/xlink" width="83.2pt" height="76.8pt" viewBox="0 0 83.2 76.8" version="1.1">
<g id="surface682">
<path style=" stroke:none;fill-rule:nonzero;fill:rgb(0%,0%,0%);fill-opacity:1;" d="M 31.25 45.679688 C 31.085938 45.816406 30.933594 45.910156 30.792969 45.964844 C 30.640625 46.019531 30.484375 46.046875 30.320312 46.046875 C 30.039062 46.046875 29.828125 45.980469 29.683594 45.84375 C 29.535156 45.710938 29.457031 45.539062 29.460938 45.328125 C 29.457031 45.210938 29.488281 45.097656 29.546875 44.996094 C 29.597656 44.890625 29.671875 44.8125 29.765625 44.75 C 29.855469 44.691406 29.960938 44.644531 30.074219 44.609375 C 30.15625 44.589844 30.277344 44.566406 30.453125 44.542969 C 30.792969 44.507812 31.046875 44.457031 31.210938 44.398438 C 31.210938 44.34375 31.210938 44.308594 31.214844 44.289062 C 31.210938 44.117188 31.171875 43.996094 31.09375 43.921875 C 30.980469 43.828125 30.816406 43.78125 30.605469 43.777344 C 30.402344 43.78125 30.257812 43.816406 30.164062 43.882812 C 30.066406 43.957031 29.996094 44.078125 29.953125 44.253906 L 29.535156 44.199219 C 29.570312 44.023438 29.632812 43.878906 29.722656 43.765625 C 29.804688 43.660156 29.933594 43.574219 30.097656 43.515625 C 30.261719 43.460938 30.449219 43.429688 30.667969 43.425781 C 30.882812 43.429688 31.054688 43.453125 31.191406 43.503906 C 31.324219 43.554688 31.425781 43.617188 31.488281 43.695312 C 31.550781 43.773438 31.59375 43.867188 31.621094 43.980469 C 31.632812 44.054688 31.640625 44.1875 31.644531 44.375 L 31.644531 44.941406 C 31.640625 45.335938 31.648438 45.585938 31.671875 45.691406 C 31.6875 45.796875 31.726562 45.894531 31.78125 45.988281 L 31.332031 45.988281 C 31.289062 45.902344 31.257812 45.800781 31.25 45.679688 Z M 31.210938 44.734375 C 31.054688 44.796875 30.824219 44.851562 30.515625 44.890625 C 30.339844 44.917969 30.214844 44.945312 30.144531 44.976562 C 30.066406 45.011719 30.015625 45.058594 29.976562 45.117188 C 29.933594 45.175781 29.914062 45.242188 29.917969 45.316406 C 29.914062 45.433594 29.957031 45.527344 30.042969 45.601562 C 30.128906 45.675781 30.253906 45.714844 30.421875 45.714844 C 30.585938 45.714844 30.730469 45.679688 30.863281 45.605469 C 30.988281 45.535156 31.082031 45.441406 31.144531 45.3125 C 31.1875 45.21875 31.210938 45.074219 31.210938 44.886719 Z M 31.210938 44.734375 "/>
<path style=" stroke:none;fill-rule:nonzero;fill:rgb(0%,0%,0%);fill-opacity:1;" d="M 32.304688 45.988281 L 32.304688 43.484375 L 32.6875 43.484375 L 32.6875 43.839844 C 32.871094 43.566406 33.136719 43.429688 33.492188 43.425781 C 33.640625 43.429688 33.777344 43.457031 33.90625 43.507812 C 34.03125 43.566406 34.128906 43.636719 34.195312 43.722656 C 34.257812 43.808594 34.300781 43.914062 34.328125 44.035156 C 34.339844 44.113281 34.347656 44.253906 34.347656 44.449219 L 34.347656 45.988281 L 33.921875 45.988281 L 33.921875 44.464844 C 33.921875 44.292969 33.90625 44.164062 33.871094 44.078125 C 33.835938 43.992188 33.777344 43.925781 33.695312 43.871094 C 33.609375 43.824219 33.511719 43.796875 33.398438 43.792969 C 33.214844 43.796875 33.058594 43.851562 32.929688 43.964844 C 32.796875 44.082031 32.730469 44.300781 32.730469 44.621094 L 32.730469 45.988281 Z M 32.304688 45.988281 "/>
<path style=" stroke:none;fill-rule:nonzero;fill:rgb(0%,0%,0%);fill-opacity:1;" d="M 36.636719 45.988281 L 36.636719 45.675781 C 36.476562 45.921875 36.242188 46.046875 35.933594 46.046875 C 35.730469 46.046875 35.542969 45.992188 35.378906 45.882812 C 35.210938 45.773438 35.078125 45.617188 34.988281 45.421875 C 34.890625 45.222656 34.847656 44.996094 34.847656 44.738281 C 34.847656 44.488281 34.886719 44.261719 34.972656 44.058594 C 35.054688 43.855469 35.183594 43.699219 35.351562 43.589844 C 35.519531 43.484375 35.703125 43.429688 35.914062 43.425781 C 36.0625 43.429688 36.199219 43.460938 36.316406 43.523438 C 36.4375 43.589844 36.535156 43.671875 36.609375 43.769531 L 36.609375 42.527344 L 37.03125 42.527344 L 37.03125 45.988281 Z M 35.289062 44.738281 C 35.285156 45.0625 35.351562 45.300781 35.492188 45.457031 C 35.625 45.621094 35.785156 45.699219 35.972656 45.695312 C 36.15625 45.699219 36.316406 45.625 36.445312 45.46875 C 36.578125 45.320312 36.640625 45.089844 36.644531 44.773438 C 36.640625 44.433594 36.574219 44.183594 36.445312 44.019531 C 36.308594 43.863281 36.144531 43.78125 35.953125 43.777344 C 35.761719 43.78125 35.601562 43.859375 35.476562 44.011719 C 35.347656 44.167969 35.285156 44.410156 35.289062 44.738281 Z M 35.289062 44.738281 "/>
<path style=" stroke:none;fill-rule:nonzero;fill:rgb(0%,0%,0%);fill-opacity:1;" d="M 39.191406 45.988281 L 38.765625 45.988281 L 38.765625 43.28125 C 38.660156 43.382812 38.527344 43.480469 38.359375 43.574219 C 38.191406 43.675781 38.042969 43.75 37.910156 43.792969 L 37.910156 43.382812 C 38.148438 43.273438 38.359375 43.136719 38.535156 42.980469 C 38.714844 42.820312 38.839844 42.667969 38.914062 42.515625 L 39.191406 42.515625 Z M 39.191406 45.988281 "/>
<path style=" stroke:none;fill-rule:nonzero;fill:rgb(0%,0%,0%);fill-opacity:1;" d="M 50.042969 40.800781 L 50.042969 35.855469 L 50.71875 35.855469 L 53.324219 39.738281 L 53.324219 35.855469 L 53.957031 35.855469 L 53.957031 40.800781 L 53.28125 40.800781 L 50.675781 36.917969 L 50.675781 40.800781 Z M 50.042969 40.800781 "/>
<path style=" stroke:none;fill-rule:nonzero;fill:rgb(0%,0%,0%);fill-opacity:1;" d="M 48.605469 45.347656 C 48.445312 45.484375 48.292969 45.578125 48.148438 45.632812 C 48 45.6875 47.84375 45.714844 47.675781 45.714844 C 47.398438 45.714844 47.1875 45.648438 47.042969 45.511719 C 46.890625 45.378906 46.816406 45.207031 46.820312 44.996094 C 46.816406 44.878906 46.847656 44.765625 46.902344 44.664062 C 46.957031 44.558594 47.03125 44.480469 47.121094 44.417969 C 47.214844 44.359375 47.316406 44.3125 47.429688 44.277344 C 47.511719 44.257812 47.636719 44.238281 47.808594 44.210938 C 48.152344 44.175781 48.40625 44.125 48.570312 44.066406 C 48.570312 44.011719 48.570312 43.976562 48.570312 43.957031 C 48.570312 43.785156 48.527344 43.664062 48.453125 43.589844 C 48.339844 43.496094 48.175781 43.449219 47.964844 43.445312 C 47.761719 43.449219 47.613281 43.484375 47.519531 43.550781 C 47.421875 43.625 47.351562 43.75 47.308594 43.921875 L 46.890625 43.867188 C 46.925781 43.691406 46.988281 43.546875 47.078125 43.433594 C 47.164062 43.328125 47.289062 43.242188 47.457031 43.183594 C 47.617188 43.128906 47.808594 43.097656 48.027344 43.09375 C 48.242188 43.097656 48.414062 43.121094 48.550781 43.171875 C 48.683594 43.222656 48.78125 43.285156 48.847656 43.363281 C 48.910156 43.441406 48.953125 43.535156 48.980469 43.648438 C 48.992188 43.722656 49 43.855469 49 44.042969 L 49 44.609375 C 49 45.003906 49.007812 45.253906 49.027344 45.359375 C 49.046875 45.464844 49.082031 45.5625 49.136719 45.660156 L 48.691406 45.660156 C 48.648438 45.570312 48.617188 45.46875 48.605469 45.347656 Z M 48.570312 44.402344 C 48.414062 44.464844 48.179688 44.519531 47.871094 44.558594 C 47.695312 44.585938 47.570312 44.613281 47.5 44.648438 C 47.425781 44.679688 47.371094 44.726562 47.332031 44.785156 C 47.292969 44.84375 47.269531 44.910156 47.273438 44.988281 C 47.269531 45.101562 47.316406 45.195312 47.402344 45.269531 C 47.484375 45.34375 47.613281 45.382812 47.78125 45.382812 C 47.941406 45.382812 48.089844 45.347656 48.21875 45.273438 C 48.347656 45.203125 48.4375 45.109375 48.5 44.980469 C 48.542969 44.886719 48.570312 44.742188 48.570312 44.554688 Z M 48.570312 44.402344 "/>
<path style=" stroke:none;fill-rule:nonzero;fill:rgb(0%,0%,0%);fill-opacity:1;" d="M 49.660156 45.660156 L 49.660156 43.152344 L 50.046875 43.152344 L 50.046875 43.507812 C 50.226562 43.234375 50.496094 43.097656 50.847656 43.09375 C 50.996094 43.097656 51.136719 43.125 51.265625 43.175781 C 51.390625 43.234375 51.488281 43.304688 51.550781 43.390625 C 51.613281 43.476562 51.65625 43.582031 51.683594 43.703125 C 51.699219 43.785156 51.707031 43.921875 51.707031 44.117188 L 51.707031 45.660156 L 51.28125 45.660156 L 51.28125 44.132812 C 51.277344 43.960938 51.261719 43.832031 51.230469 43.746094 C 51.195312 43.660156 51.136719 43.59375 51.054688 43.539062 C 50.96875 43.492188 50.871094 43.464844 50.757812 43.460938 C 50.574219 43.464844 50.417969 43.523438 50.289062 43.636719 C 50.15625 43.75 50.089844 43.96875 50.089844 44.289062 L 50.089844 45.660156 Z M 49.660156 45.660156 "/>
<path style=" stroke:none;fill-rule:nonzero;fill:rgb(0%,0%,0%);fill-opacity:1;" d="M 53.992188 45.660156 L 53.992188 45.34375 C 53.835938 45.589844 53.597656 45.714844 53.289062 45.714844 C 53.085938 45.714844 52.902344 45.660156 52.738281 45.550781 C 52.566406 45.441406 52.4375 45.285156 52.34375 45.089844 C 52.25 44.890625 52.203125 44.664062 52.207031 44.40625 C 52.203125 44.160156 52.246094 43.933594 52.332031 43.726562 C 52.414062 43.523438 52.539062 43.367188 52.710938 43.257812 C 52.875 43.152344 53.0625 43.097656 53.269531 43.09375 C 53.417969 43.097656 53.554688 43.128906 53.675781 43.191406 C 53.792969 43.257812 53.890625 43.339844 53.96875 43.4375 L 53.96875 42.195312 L 54.390625 42.195312 L 54.390625 45.660156 Z M 52.644531 44.40625 C 52.640625 44.730469 52.710938 44.96875 52.847656 45.125 C 52.984375 45.289062 53.144531 45.367188 53.332031 45.363281 C 53.515625 45.367188 53.675781 45.292969 53.804688 45.136719 C 53.933594 44.988281 54 44.757812 54.003906 44.441406 C 54 44.101562 53.933594 43.851562 53.800781 43.6875 C 53.667969 43.53125 53.503906 43.449219 53.3125 43.445312 C 53.121094 43.449219 52.960938 43.527344 52.835938 43.679688 C 52.703125 43.835938 52.640625 44.078125 52.644531 44.40625 Z M 52.644531 44.40625 "/>
<path style=" stroke:none;fill-rule:nonzero;fill:rgb(0%,0%,0%);fill-opacity:1;" d="M 57.183594 45.25 L 57.183594 45.660156 L 54.886719 45.660156 C 54.882812 45.554688 54.898438 45.457031 54.9375 45.363281 C 54.996094 45.210938 55.085938 45.058594 55.21875 44.902344 C 55.34375 44.753906 55.53125 44.578125 55.773438 44.378906 C 56.152344 44.070312 56.40625 43.828125 56.542969 43.644531 C 56.671875 43.46875 56.738281 43.296875 56.742188 43.136719 C 56.738281 42.96875 56.679688 42.824219 56.558594 42.710938 C 56.4375 42.59375 56.277344 42.535156 56.085938 42.535156 C 55.878906 42.535156 55.714844 42.597656 55.59375 42.71875 C 55.46875 42.84375 55.40625 43.015625 55.40625 43.230469 L 54.96875 43.183594 C 54.996094 42.859375 55.109375 42.613281 55.304688 42.441406 C 55.5 42.273438 55.765625 42.1875 56.097656 42.183594 C 56.429688 42.1875 56.691406 42.277344 56.886719 42.460938 C 57.082031 42.644531 57.179688 42.875 57.179688 43.144531 C 57.179688 43.285156 57.148438 43.417969 57.089844 43.554688 C 57.035156 43.6875 56.941406 43.828125 56.808594 43.976562 C 56.675781 44.125 56.457031 44.328125 56.152344 44.585938 C 55.898438 44.800781 55.730469 44.945312 55.660156 45.023438 C 55.585938 45.101562 55.527344 45.175781 55.480469 45.25 Z M 57.183594 45.25 "/>
<path style=" stroke:none;fill-rule:nonzero;fill:rgb(0%,0%,0%);fill-opacity:1;" d="M 21.671875 57.011719 L 22.332031 57.179688 C 22.1875 57.71875 21.941406 58.128906 21.585938 58.410156 C 21.226562 58.6875 20.789062 58.828125 20.273438 58.832031 C 19.738281 58.828125 19.304688 58.722656 18.96875 58.507812 C 18.632812 58.292969 18.375 57.976562 18.203125 57.5625 C 18.027344 57.152344 17.941406 56.710938 17.941406 56.238281 C 17.941406 55.726562 18.039062 55.277344 18.238281 54.894531 C 18.433594 54.511719 18.710938 54.21875 19.082031 54.019531 C 19.441406 53.820312 19.847656 53.722656 20.285156 53.71875 C 20.78125 53.722656 21.199219 53.847656 21.535156 54.097656 C 21.875 54.351562 22.109375 54.703125 22.242188 55.160156 L 21.597656 55.3125 C 21.480469 54.953125 21.3125 54.691406 21.09375 54.527344 C 20.875 54.363281 20.597656 54.28125 20.273438 54.28125 C 19.886719 54.28125 19.566406 54.371094 19.3125 54.554688 C 19.054688 54.738281 18.878906 54.980469 18.773438 55.285156 C 18.671875 55.59375 18.621094 55.910156 18.621094 56.238281 C 18.621094 56.65625 18.679688 57.023438 18.804688 57.335938 C 18.921875 57.652344 19.117188 57.886719 19.375 58.042969 C 19.636719 58.199219 19.917969 58.277344 20.21875 58.273438 C 20.589844 58.277344 20.898438 58.171875 21.15625 57.957031 C 21.410156 57.746094 21.578125 57.433594 21.671875 57.011719 Z M 21.671875 57.011719 "/>
<path style=" stroke:none;fill-rule:nonzero;fill:rgb(0%,0%,0%);fill-opacity:1;" d="M 23.046875 58.75 L 23.046875 53.804688 L 23.65625 53.804688 L 23.65625 58.75 Z M 23.046875 58.75 "/>
<path style=" stroke:none;fill-rule:nonzero;fill:rgb(0%,0%,0%);fill-opacity:1;" d="M 60.425781 21.273438 L 61.046875 21.21875 C 61.074219 21.464844 61.140625 21.671875 61.25 21.828125 C 61.355469 21.988281 61.523438 22.117188 61.75 22.214844 C 61.976562 22.3125 62.230469 22.359375 62.511719 22.359375 C 62.761719 22.359375 62.980469 22.324219 63.175781 22.25 C 63.363281 22.175781 63.507812 22.074219 63.601562 21.941406 C 63.695312 21.816406 63.742188 21.671875 63.742188 21.519531 C 63.742188 21.363281 63.699219 21.230469 63.609375 21.113281 C 63.515625 20.996094 63.367188 20.898438 63.160156 20.820312 C 63.027344 20.769531 62.730469 20.691406 62.277344 20.582031 C 61.820312 20.472656 61.5 20.367188 61.320312 20.273438 C 61.082031 20.148438 60.90625 19.992188 60.789062 19.808594 C 60.671875 19.625 60.613281 19.421875 60.613281 19.195312 C 60.613281 18.945312 60.6875 18.714844 60.828125 18.496094 C 60.96875 18.28125 61.175781 18.117188 61.453125 18.003906 C 61.722656 17.890625 62.027344 17.835938 62.363281 17.832031 C 62.726562 17.835938 63.050781 17.894531 63.335938 18.011719 C 63.613281 18.128906 63.828125 18.300781 63.984375 18.53125 C 64.132812 18.761719 64.214844 19.023438 64.226562 19.3125 L 63.597656 19.355469 C 63.5625 19.042969 63.449219 18.808594 63.253906 18.648438 C 63.054688 18.492188 62.769531 18.410156 62.390625 18.410156 C 61.992188 18.410156 61.703125 18.484375 61.519531 18.628906 C 61.339844 18.773438 61.246094 18.949219 61.25 19.152344 C 61.246094 19.332031 61.3125 19.476562 61.441406 19.589844 C 61.566406 19.703125 61.894531 19.824219 62.429688 19.941406 C 62.964844 20.066406 63.328125 20.171875 63.53125 20.257812 C 63.816406 20.394531 64.03125 20.558594 64.167969 20.761719 C 64.308594 20.96875 64.375 21.203125 64.378906 21.464844 C 64.375 21.730469 64.296875 21.980469 64.148438 22.207031 C 63.996094 22.441406 63.777344 22.625 63.496094 22.75 C 63.210938 22.878906 62.894531 22.941406 62.539062 22.945312 C 62.089844 22.941406 61.714844 22.878906 61.410156 22.75 C 61.105469 22.621094 60.867188 22.425781 60.695312 22.164062 C 60.523438 21.902344 60.433594 21.605469 60.425781 21.273438 Z M 60.425781 21.273438 "/>
<path style=" stroke:none;fill-rule:nonzero;fill:rgb(0%,0%,0%);fill-opacity:1;" d="M 63.9375 57.011719 L 64.59375 57.179688 C 64.453125 57.71875 64.207031 58.128906 63.847656 58.410156 C 63.492188 58.6875 63.050781 58.828125 62.539062 58.832031 C 62 58.828125 61.570312 58.722656 61.234375 58.507812 C 60.898438 58.292969 60.640625 57.976562 60.464844 57.5625 C 60.289062 57.152344 60.203125 56.710938 60.207031 56.238281 C 60.203125 55.726562 60.304688 55.277344 60.5 54.894531 C 60.695312 54.511719 60.976562 54.21875 61.34375 54.019531 C 61.707031 53.820312 62.109375 53.722656 62.550781 53.71875 C 63.042969 53.722656 63.460938 53.847656 63.800781 54.097656 C 64.140625 54.351562 64.375 54.703125 64.507812 55.160156 L 63.863281 55.3125 C 63.742188 54.953125 63.574219 54.691406 63.359375 54.527344 C 63.136719 54.363281 62.863281 54.28125 62.535156 54.28125 C 62.152344 54.28125 61.832031 54.371094 61.578125 54.554688 C 61.320312 54.738281 61.140625 54.980469 61.039062 55.285156 C 60.933594 55.59375 60.882812 55.910156 60.882812 56.238281 C 60.882812 56.65625 60.941406 57.023438 61.066406 57.335938 C 61.1875 57.652344 61.378906 57.886719 61.640625 58.042969 C 61.898438 58.199219 62.179688 58.277344 62.484375 58.273438 C 62.851562 58.277344 63.164062 58.171875 63.417969 57.957031 C 63.671875 57.746094 63.84375 57.433594 63.9375 57.011719 Z M 63.9375 57.011719 "/>
<path style=" stroke:none;fill-rule:nonzero;fill:rgb(0%,0%,0%);fill-opacity:1;" d="M 22.335938 21.125 L 22.992188 21.292969 C 22.851562 21.832031 22.605469 22.242188 22.25 22.523438 C 21.890625 22.800781 21.453125 22.941406 20.9375 22.945312 C 20.402344 22.941406 19.96875 22.835938 19.632812 22.621094 C 19.296875 22.40625 19.039062 22.089844 18.867188 21.675781 C 18.691406 21.265625 18.605469 20.824219 18.605469 20.351562 C 18.605469 19.839844 18.703125 19.390625 18.902344 19.007812 C 19.097656 18.625 19.375 18.332031 19.742188 18.132812 C 20.105469 17.933594 20.511719 17.835938 20.949219 17.832031 C 21.445312 17.835938 21.863281 17.960938 22.199219 18.210938 C 22.539062 18.464844 22.773438 18.816406 22.90625 19.273438 L 22.261719 19.425781 C 22.144531 19.066406 21.976562 18.808594 21.757812 18.640625 C 21.535156 18.476562 21.261719 18.394531 20.933594 18.394531 C 20.550781 18.394531 20.230469 18.484375 19.976562 18.667969 C 19.71875 18.851562 19.539062 19.09375 19.4375 19.398438 C 19.335938 19.707031 19.285156 20.023438 19.285156 20.351562 C 19.285156 20.769531 19.34375 21.136719 19.46875 21.449219 C 19.585938 21.765625 19.777344 22 20.039062 22.15625 C 20.300781 22.3125 20.582031 22.390625 20.882812 22.386719 C 21.253906 22.390625 21.5625 22.285156 21.816406 22.070312 C 22.074219 21.859375 22.242188 21.546875 22.335938 21.125 Z M 22.335938 21.125 "/>
<path style=" stroke:none;fill-rule:nonzero;fill:rgb(0%,0%,0%);fill-opacity:1;" d="M 31.199219 38.332031 L 21.136719 50.855469 L 25.34375 53.273438 "/>
<path style="fill:none;stroke-width:0.0333333;stroke-linecap:butt;stroke-linejoin:miter;stroke:rgb(0%,0%,0%);stroke-opacity:1;stroke-miterlimit:10;" d="M 0.490385 0.866078 L 1.362718 0.866078 " transform="matrix(20.8,0,0,20.719424,20.79999,20.387392)"/>
<path style=" stroke:none;fill-rule:nonzero;fill:rgb(0%,0%,0%);fill-opacity:1;" d="M 56.800781 46.613281 L 58.023438 53.558594 L 62.226562 51.140625 "/>
<path style="fill:none;stroke-width:0.0333333;stroke-linecap:butt;stroke-linejoin:miter;stroke:rgb(0%,0%,0%);stroke-opacity:1;stroke-miterlimit:10;" d="M 1.604793 0.684711 L 1.893255 0.184916 " transform="matrix(20.8,0,0,20.719424,20.79999,20.387392)"/>
<path style="fill:none;stroke-width:0.0333333;stroke-linecap:butt;stroke-linejoin:miter;stroke:rgb(0%,0%,0%);stroke-opacity:1;stroke-miterlimit:10;" d="M 0.504846 0.874373 L 0.109338 0.189441 " transform="matrix(20.8,0,0,20.719424,20.79999,20.387392)"/>
</g>
</svg>
