<?xml version="1.0" encoding="UTF-8"?>
<svg xmlns="http://www.w3.org/2000/svg" xmlns:xlink="http://www.w3.org/1999/xlink" width="144.8pt" height="131.2pt" viewBox="0 0 144.8 131.2" version="1.1">
<g id="surface282">
<path style=" stroke:none;fill-rule:nonzero;fill:rgb(0%,0%,0%);fill-opacity:1;" d="M 110.929688 13.558594 L 111.589844 13.726562 C 111.449219 14.269531 111.203125 14.679688 110.84375 14.960938 C 110.488281 15.246094 110.046875 15.386719 109.53125 15.386719 C 108.996094 15.386719 108.5625 15.28125 108.226562 15.0625 C 107.890625 14.84375 107.632812 14.527344 107.460938 14.113281 C 107.285156 13.699219 107.199219 13.253906 107.199219 12.78125 C 107.199219 12.265625 107.296875 11.8125 107.496094 11.425781 C 107.691406 11.039062 107.96875 10.746094 108.339844 10.546875 C 108.703125 10.347656 109.105469 10.246094 109.542969 10.246094 C 110.039062 10.246094 110.457031 10.375 110.796875 10.625 C 111.132812 10.878906 111.371094 11.234375 111.503906 11.695312 L 110.859375 11.847656 C 110.738281 11.488281 110.570312 11.222656 110.355469 11.054688 C 110.132812 10.894531 109.859375 10.808594 109.53125 10.808594 C 109.144531 10.808594 108.824219 10.902344 108.570312 11.082031 C 108.3125 11.269531 108.136719 11.515625 108.03125 11.820312 C 107.929688 12.132812 107.878906 12.449219 107.878906 12.777344 C 107.878906 13.199219 107.9375 13.570312 108.0625 13.882812 C 108.179688 14.203125 108.375 14.4375 108.632812 14.59375 C 108.894531 14.75 109.175781 14.828125 109.480469 14.828125 C 109.847656 14.828125 110.160156 14.722656 110.414062 14.507812 C 110.667969 14.296875 110.839844 13.980469 110.929688 13.558594 Z M 110.929688 13.558594 "/>
<path style=" stroke:none;fill-rule:nonzero;fill:rgb(0%,0%,0%);fill-opacity:1;" d="M 112.320312 15.304688 L 112.320312 10.328125 L 112.929688 10.328125 L 112.929688 12.113281 C 113.210938 11.785156 113.570312 11.621094 114.003906 11.617188 C 114.269531 11.621094 114.503906 11.671875 114.699219 11.777344 C 114.894531 11.882812 115.035156 12.03125 115.121094 12.214844 C 115.203125 12.402344 115.246094 12.671875 115.25 13.023438 L 115.25 15.304688 L 114.636719 15.304688 L 114.636719 13.023438 C 114.636719 12.71875 114.570312 12.496094 114.441406 12.355469 C 114.308594 12.214844 114.121094 12.144531 113.878906 12.144531 C 113.699219 12.144531 113.527344 12.195312 113.371094 12.285156 C 113.207031 12.382812 113.09375 12.511719 113.03125 12.667969 C 112.960938 12.832031 112.925781 13.050781 112.929688 13.332031 L 112.929688 15.304688 Z M 112.320312 15.304688 "/>
<path style=" stroke:none;fill-rule:nonzero;fill:rgb(0%,0%,0%);fill-opacity:1;" d="M 116.179688 11.03125 L 116.179688 10.328125 L 116.789062 10.328125 L 116.789062 11.03125 Z M 116.179688 15.304688 L 116.179688 11.699219 L 116.789062 11.699219 L 116.789062 15.304688 Z M 116.179688 15.304688 "/>
<path style=" stroke:none;fill-rule:nonzero;fill:rgb(0%,0%,0%);fill-opacity:1;" d="M 117.710938 15.304688 L 117.710938 11.699219 L 118.257812 11.699219 L 118.257812 12.246094 C 118.398438 11.992188 118.523438 11.824219 118.644531 11.742188 C 118.761719 11.660156 118.894531 11.621094 119.035156 11.617188 C 119.238281 11.621094 119.449219 11.6875 119.664062 11.816406 L 119.453125 12.382812 C 119.304688 12.296875 119.15625 12.25 119.007812 12.25 C 118.871094 12.25 118.75 12.292969 118.644531 12.371094 C 118.539062 12.453125 118.464844 12.566406 118.421875 12.703125 C 118.351562 12.921875 118.316406 13.164062 118.320312 13.417969 L 118.320312 15.304688 Z M 117.710938 15.304688 "/>
<path style=" stroke:none;fill-rule:nonzero;fill:rgb(0%,0%,0%);fill-opacity:1;" d="M 122.371094 14.859375 C 122.144531 15.054688 121.925781 15.191406 121.71875 15.265625 C 121.507812 15.347656 121.285156 15.386719 121.046875 15.386719 C 120.652344 15.386719 120.347656 15.289062 120.136719 15.09375 C 119.925781 14.90625 119.820312 14.660156 119.820312 14.355469 C 119.820312 14.179688 119.859375 14.019531 119.941406 13.871094 C 120.015625 13.722656 120.121094 13.609375 120.253906 13.519531 C 120.382812 13.433594 120.527344 13.367188 120.691406 13.320312 C 120.808594 13.289062 120.992188 13.257812 121.234375 13.226562 C 121.726562 13.167969 122.089844 13.097656 122.320312 13.015625 C 122.320312 12.933594 122.324219 12.882812 122.328125 12.859375 C 122.324219 12.613281 122.265625 12.433594 122.152344 12.332031 C 121.996094 12.195312 121.761719 12.128906 121.460938 12.125 C 121.167969 12.128906 120.957031 12.179688 120.824219 12.277344 C 120.683594 12.382812 120.585938 12.558594 120.519531 12.808594 L 119.921875 12.726562 C 119.976562 12.476562 120.066406 12.269531 120.191406 12.109375 C 120.3125 11.953125 120.496094 11.832031 120.730469 11.746094 C 120.964844 11.660156 121.234375 11.621094 121.546875 11.617188 C 121.851562 11.621094 122.101562 11.65625 122.292969 11.726562 C 122.488281 11.800781 122.628906 11.890625 122.71875 12 C 122.804688 12.113281 122.871094 12.253906 122.910156 12.417969 C 122.929688 12.523438 122.9375 12.710938 122.9375 12.980469 L 122.9375 13.796875 C 122.9375 14.363281 122.949219 14.722656 122.976562 14.871094 C 123 15.023438 123.050781 15.167969 123.132812 15.304688 L 122.496094 15.304688 C 122.429688 15.179688 122.390625 15.03125 122.371094 14.859375 Z M 122.320312 13.496094 C 122.097656 13.589844 121.769531 13.667969 121.328125 13.726562 C 121.074219 13.765625 120.894531 13.804688 120.792969 13.847656 C 120.6875 13.898438 120.609375 13.964844 120.554688 14.046875 C 120.496094 14.136719 120.472656 14.234375 120.472656 14.339844 C 120.472656 14.503906 120.53125 14.640625 120.65625 14.746094 C 120.773438 14.855469 120.957031 14.910156 121.195312 14.90625 C 121.425781 14.910156 121.636719 14.859375 121.820312 14.753906 C 122.003906 14.652344 122.136719 14.511719 122.222656 14.328125 C 122.285156 14.195312 122.320312 13.992188 122.320312 13.71875 Z M 122.320312 13.496094 "/>
<path style=" stroke:none;fill-rule:nonzero;fill:rgb(0%,0%,0%);fill-opacity:1;" d="M 123.871094 15.304688 L 123.871094 10.328125 L 124.480469 10.328125 L 124.480469 15.304688 Z M 123.871094 15.304688 "/>
<path style=" stroke:none;fill-rule:nonzero;fill:rgb(0%,0%,0%);fill-opacity:1;" d="M 122.109375 56.707031 C 122.105469 55.886719 122.328125 55.242188 122.773438 54.769531 C 123.214844 54.304688 123.78125 54.074219 124.484375 54.070312 C 124.9375 54.074219 125.351562 54.183594 125.722656 54.398438 C 126.089844 54.617188 126.367188 54.925781 126.5625 55.316406 C 126.753906 55.710938 126.851562 56.15625 126.855469 56.652344 C 126.851562 57.160156 126.75 57.609375 126.546875 58.007812 C 126.34375 58.40625 126.054688 58.707031 125.6875 58.910156 C 125.3125 59.113281 124.910156 59.214844 124.480469 59.21875 C 124.011719 59.214844 123.59375 59.101562 123.226562 58.878906 C 122.859375 58.652344 122.578125 58.34375 122.390625 57.953125 C 122.199219 57.5625 122.105469 57.148438 122.109375 56.707031 Z M 122.785156 56.71875 C 122.78125 57.320312 122.945312 57.792969 123.265625 58.136719 C 123.585938 58.484375 123.992188 58.65625 124.476562 58.65625 C 124.972656 58.65625 125.378906 58.484375 125.695312 58.132812 C 126.015625 57.785156 126.175781 57.289062 126.175781 56.648438 C 126.175781 56.246094 126.105469 55.890625 125.972656 55.585938 C 125.832031 55.285156 125.636719 55.054688 125.371094 54.886719 C 125.109375 54.722656 124.8125 54.636719 124.488281 54.636719 C 124.019531 54.636719 123.621094 54.796875 123.285156 55.117188 C 122.949219 55.4375 122.78125 55.972656 122.785156 56.71875 Z M 122.785156 56.71875 "/>
<path style=" stroke:none;fill-rule:nonzero;fill:rgb(0%,0%,0%);fill-opacity:1;" d="M 90.902344 38.65625 C 90.898438 37.832031 91.121094 37.1875 91.566406 36.714844 C 92.007812 36.253906 92.574219 36.019531 93.277344 36.015625 C 93.730469 36.019531 94.144531 36.128906 94.515625 36.34375 C 94.882812 36.566406 95.160156 36.871094 95.355469 37.261719 C 95.546875 37.660156 95.644531 38.105469 95.648438 38.597656 C 95.644531 39.105469 95.542969 39.554688 95.339844 39.953125 C 95.136719 40.351562 94.847656 40.652344 94.480469 40.855469 C 94.105469 41.058594 93.703125 41.160156 93.273438 41.164062 C 92.804688 41.160156 92.386719 41.050781 92.019531 40.824219 C 91.652344 40.597656 91.371094 40.289062 91.183594 39.898438 C 90.992188 39.507812 90.898438 39.09375 90.902344 38.65625 Z M 91.578125 38.664062 C 91.574219 39.265625 91.738281 39.738281 92.058594 40.082031 C 92.378906 40.429688 92.785156 40.605469 93.269531 40.601562 C 93.765625 40.605469 94.171875 40.429688 94.492188 40.078125 C 94.808594 39.730469 94.96875 39.234375 94.96875 38.59375 C 94.96875 38.191406 94.898438 37.835938 94.765625 37.535156 C 94.625 37.230469 94.429688 37 94.164062 36.832031 C 93.902344 36.667969 93.605469 36.582031 93.28125 36.582031 C 92.8125 36.582031 92.414062 36.742188 92.078125 37.0625 C 91.742188 37.382812 91.574219 37.917969 91.578125 38.664062 Z M 91.578125 38.664062 "/>
<path style=" stroke:none;fill-rule:nonzero;fill:rgb(0%,0%,0%);fill-opacity:1;" d="M 126.015625 21.277344 L 126.675781 21.445312 C 126.535156 21.988281 126.289062 22.398438 125.929688 22.679688 C 125.574219 22.960938 125.132812 23.101562 124.617188 23.105469 C 124.082031 23.101562 123.648438 22.996094 123.3125 22.78125 C 122.976562 22.5625 122.71875 22.246094 122.546875 21.832031 C 122.371094 21.417969 122.285156 20.972656 122.285156 20.496094 C 122.285156 19.980469 122.382812 19.53125 122.582031 19.144531 C 122.777344 18.757812 123.054688 18.464844 123.425781 18.261719 C 123.789062 18.066406 124.191406 17.964844 124.628906 17.960938 C 125.125 17.964844 125.542969 18.09375 125.882812 18.34375 C 126.21875 18.597656 126.457031 18.953125 126.589844 19.410156 L 125.945312 19.5625 C 125.824219 19.207031 125.65625 18.941406 125.441406 18.773438 C 125.21875 18.609375 124.945312 18.527344 124.617188 18.527344 C 124.230469 18.527344 123.910156 18.617188 123.65625 18.800781 C 123.398438 18.984375 123.222656 19.230469 123.117188 19.539062 C 123.015625 19.847656 122.964844 20.167969 122.964844 20.496094 C 122.964844 20.917969 123.023438 21.289062 123.148438 21.601562 C 123.265625 21.917969 123.460938 22.15625 123.71875 22.3125 C 123.980469 22.46875 124.261719 22.546875 124.566406 22.542969 C 124.933594 22.546875 125.246094 22.441406 125.5 22.226562 C 125.753906 22.015625 125.925781 21.695312 126.015625 21.277344 Z M 126.015625 21.277344 "/>
<path style=" stroke:none;fill-rule:nonzero;fill:rgb(0%,0%,0%);fill-opacity:1;" d="M 18.085938 56.707031 C 18.082031 55.886719 18.304688 55.242188 18.75 54.769531 C 19.191406 54.304688 19.757812 54.074219 20.460938 54.070312 C 20.914062 54.074219 21.332031 54.183594 21.703125 54.398438 C 22.066406 54.617188 22.347656 54.925781 22.542969 55.316406 C 22.730469 55.710938 22.828125 56.15625 22.832031 56.652344 C 22.828125 57.160156 22.726562 57.609375 22.523438 58.007812 C 22.320312 58.40625 22.03125 58.707031 21.664062 58.910156 C 21.289062 59.113281 20.886719 59.214844 20.457031 59.21875 C 19.988281 59.214844 19.570312 59.101562 19.203125 58.878906 C 18.835938 58.652344 18.554688 58.34375 18.371094 57.953125 C 18.175781 57.5625 18.082031 57.148438 18.085938 56.707031 Z M 18.761719 56.71875 C 18.757812 57.320312 18.921875 57.792969 19.246094 58.136719 C 19.5625 58.484375 19.96875 58.65625 20.457031 58.65625 C 20.949219 58.65625 21.355469 58.484375 21.675781 58.132812 C 21.992188 57.785156 22.152344 57.289062 22.152344 56.648438 C 22.152344 56.246094 22.082031 55.890625 21.949219 55.585938 C 21.808594 55.285156 21.613281 55.054688 21.347656 54.886719 C 21.085938 54.722656 20.792969 54.636719 20.464844 54.636719 C 19.996094 54.636719 19.597656 54.796875 19.261719 55.117188 C 18.925781 55.4375 18.757812 55.972656 18.761719 56.71875 Z M 18.761719 56.71875 "/>
<path style=" stroke:none;fill-rule:nonzero;fill:rgb(0%,0%,0%);fill-opacity:1;" d="M 49.292969 38.65625 C 49.289062 37.832031 49.511719 37.1875 49.957031 36.714844 C 50.398438 36.253906 50.964844 36.019531 51.667969 36.015625 C 52.121094 36.019531 52.535156 36.128906 52.90625 36.34375 C 53.273438 36.566406 53.554688 36.871094 53.746094 37.261719 C 53.9375 37.660156 54.035156 38.105469 54.039062 38.597656 C 54.035156 39.105469 53.933594 39.554688 53.730469 39.953125 C 53.527344 40.351562 53.238281 40.652344 52.871094 40.855469 C 52.496094 41.058594 52.09375 41.160156 51.664062 41.164062 C 51.195312 41.160156 50.777344 41.050781 50.410156 40.824219 C 50.042969 40.597656 49.761719 40.289062 49.574219 39.898438 C 49.382812 39.507812 49.289062 39.09375 49.292969 38.65625 Z M 49.96875 38.664062 C 49.964844 39.265625 50.128906 39.738281 50.449219 40.082031 C 50.769531 40.429688 51.175781 40.605469 51.660156 40.601562 C 52.15625 40.605469 52.5625 40.429688 52.882812 40.078125 C 53.199219 39.730469 53.359375 39.234375 53.359375 38.59375 C 53.359375 38.191406 53.289062 37.835938 53.15625 37.535156 C 53.015625 37.230469 52.820312 37 52.554688 36.832031 C 52.292969 36.667969 51.996094 36.582031 51.671875 36.582031 C 51.203125 36.582031 50.804688 36.742188 50.46875 37.0625 C 50.132812 37.382812 49.964844 37.917969 49.96875 38.664062 Z M 49.96875 38.664062 "/>
<path style=" stroke:none;fill-rule:nonzero;fill:rgb(0%,0%,0%);fill-opacity:1;" d="M 21.992188 21.277344 L 22.652344 21.445312 C 22.511719 21.988281 22.265625 22.398438 21.90625 22.679688 C 21.550781 22.960938 21.109375 23.101562 20.597656 23.105469 C 20.058594 23.101562 19.625 22.996094 19.289062 22.78125 C 18.953125 22.5625 18.695312 22.246094 18.523438 21.832031 C 18.347656 21.417969 18.261719 20.972656 18.261719 20.496094 C 18.261719 19.980469 18.359375 19.53125 18.558594 19.144531 C 18.753906 18.757812 19.03125 18.464844 19.402344 18.261719 C 19.765625 18.066406 20.167969 17.964844 20.605469 17.960938 C 21.101562 17.964844 21.519531 18.09375 21.859375 18.34375 C 22.195312 18.597656 22.433594 18.953125 22.566406 19.410156 L 21.921875 19.5625 C 21.800781 19.207031 21.632812 18.941406 21.417969 18.773438 C 21.195312 18.609375 20.921875 18.527344 20.59375 18.527344 C 20.207031 18.527344 19.890625 18.617188 19.632812 18.800781 C 19.378906 18.984375 19.199219 19.230469 19.09375 19.539062 C 18.992188 19.847656 18.941406 20.167969 18.941406 20.496094 C 18.941406 20.917969 19 21.289062 19.125 21.601562 C 19.246094 21.917969 19.4375 22.15625 19.695312 22.3125 C 19.957031 22.46875 20.238281 22.546875 20.542969 22.542969 C 20.910156 22.546875 21.222656 22.441406 21.476562 22.226562 C 21.730469 22.015625 21.902344 21.695312 21.992188 21.277344 Z M 21.992188 21.277344 "/>
<path style=" stroke:none;fill-rule:nonzero;fill:rgb(0%,0%,0%);fill-opacity:1;" d="M 49.292969 110.871094 C 49.289062 110.050781 49.511719 109.402344 49.957031 108.933594 C 50.398438 108.46875 50.964844 108.234375 51.667969 108.234375 C 52.121094 108.234375 52.535156 108.34375 52.90625 108.5625 C 53.273438 108.78125 53.554688 109.089844 53.746094 109.480469 C 53.9375 109.875 54.035156 110.320312 54.039062 110.816406 C 54.035156 111.320312 53.933594 111.773438 53.730469 112.167969 C 53.527344 112.566406 53.238281 112.871094 52.871094 113.074219 C 52.496094 113.277344 52.09375 113.378906 51.664062 113.378906 C 51.195312 113.378906 50.777344 113.265625 50.410156 113.039062 C 50.042969 112.816406 49.761719 112.503906 49.574219 112.113281 C 49.382812 111.722656 49.289062 111.3125 49.292969 110.871094 Z M 49.96875 110.882812 C 49.964844 111.480469 50.128906 111.953125 50.449219 112.300781 C 50.769531 112.648438 51.175781 112.820312 51.660156 112.816406 C 52.15625 112.820312 52.5625 112.648438 52.882812 112.296875 C 53.199219 111.949219 53.359375 111.453125 53.359375 110.8125 C 53.359375 110.40625 53.289062 110.054688 53.15625 109.75 C 53.015625 109.449219 52.820312 109.214844 52.554688 109.050781 C 52.292969 108.882812 51.996094 108.800781 51.671875 108.800781 C 51.203125 108.800781 50.804688 108.960938 50.46875 109.28125 C 50.132812 109.601562 49.964844 110.136719 49.96875 110.882812 Z M 49.96875 110.882812 "/>
<path style=" stroke:none;fill-rule:nonzero;fill:rgb(0%,0%,0%);fill-opacity:1;" d="M 111.707031 74.761719 C 111.703125 73.9375 111.925781 73.292969 112.371094 72.820312 C 112.8125 72.359375 113.378906 72.125 114.082031 72.121094 C 114.535156 72.125 114.949219 72.234375 115.320312 72.449219 C 115.6875 72.671875 115.964844 72.976562 116.160156 73.367188 C 116.351562 73.765625 116.449219 74.210938 116.453125 74.703125 C 116.449219 75.210938 116.347656 75.660156 116.144531 76.058594 C 115.941406 76.457031 115.652344 76.757812 115.285156 76.960938 C 114.910156 77.164062 114.507812 77.265625 114.078125 77.269531 C 113.609375 77.265625 113.191406 77.15625 112.824219 76.929688 C 112.457031 76.703125 112.175781 76.394531 111.988281 76.003906 C 111.796875 75.613281 111.703125 75.199219 111.707031 74.761719 Z M 112.382812 74.769531 C 112.378906 75.371094 112.542969 75.84375 112.863281 76.1875 C 113.183594 76.535156 113.589844 76.710938 114.074219 76.707031 C 114.570312 76.710938 114.976562 76.535156 115.292969 76.183594 C 115.613281 75.839844 115.773438 75.339844 115.773438 74.699219 C 115.773438 74.296875 115.703125 73.941406 115.570312 73.640625 C 115.429688 73.339844 115.234375 73.105469 114.96875 72.9375 C 114.707031 72.773438 114.410156 72.6875 114.085938 72.6875 C 113.617188 72.6875 113.21875 72.847656 112.882812 73.167969 C 112.546875 73.488281 112.378906 74.023438 112.382812 74.769531 Z M 112.382812 74.769531 "/>
<path style=" stroke:none;fill-rule:nonzero;fill:rgb(0%,0%,0%);fill-opacity:1;" d="M 28.488281 74.761719 C 28.484375 73.9375 28.707031 73.292969 29.152344 72.820312 C 29.59375 72.359375 30.160156 72.125 30.863281 72.121094 C 31.316406 72.125 31.734375 72.234375 32.105469 72.449219 C 32.46875 72.671875 32.75 72.976562 32.941406 73.367188 C 33.132812 73.765625 33.230469 74.210938 33.234375 74.703125 C 33.230469 75.210938 33.128906 75.660156 32.925781 76.058594 C 32.722656 76.457031 32.433594 76.757812 32.066406 76.960938 C 31.691406 77.164062 31.289062 77.265625 30.859375 77.269531 C 30.390625 77.265625 29.972656 77.15625 29.605469 76.929688 C 29.238281 76.703125 28.957031 76.394531 28.773438 76.003906 C 28.578125 75.613281 28.484375 75.199219 28.488281 74.761719 Z M 29.164062 74.769531 C 29.160156 75.371094 29.324219 75.84375 29.648438 76.1875 C 29.964844 76.535156 30.371094 76.710938 30.859375 76.707031 C 31.351562 76.710938 31.757812 76.535156 32.078125 76.183594 C 32.394531 75.839844 32.554688 75.339844 32.554688 74.699219 C 32.554688 74.296875 32.484375 73.941406 32.351562 73.640625 C 32.210938 73.339844 32.015625 73.105469 31.75 72.9375 C 31.488281 72.773438 31.191406 72.6875 30.867188 72.6875 C 30.398438 72.6875 30 72.847656 29.664062 73.167969 C 29.328125 73.488281 29.160156 74.023438 29.164062 74.769531 Z M 29.164062 74.769531 "/>
<path style=" stroke:none;fill-rule:nonzero;fill:rgb(0%,0%,0%);fill-opacity:1;" d="M 90.902344 110.871094 C 90.898438 110.050781 91.121094 109.402344 91.566406 108.933594 C 92.007812 108.46875 92.574219 108.234375 93.277344 108.234375 C 93.730469 108.234375 94.144531 108.34375 94.515625 108.5625 C 94.882812 108.78125 95.160156 109.089844 95.355469 109.480469 C 95.546875 109.875 95.644531 110.320312 95.648438 110.816406 C 95.644531 111.320312 95.542969 111.773438 95.339844 112.167969 C 95.136719 112.566406 94.847656 112.871094 94.480469 113.074219 C 94.105469 113.277344 93.703125 113.378906 93.273438 113.378906 C 92.804688 113.378906 92.386719 113.265625 92.019531 113.039062 C 91.652344 112.816406 91.371094 112.503906 91.183594 112.113281 C 90.992188 111.722656 90.898438 111.3125 90.902344 110.871094 Z M 91.578125 110.882812 C 91.574219 111.480469 91.738281 111.953125 92.058594 112.300781 C 92.378906 112.648438 92.785156 112.820312 93.269531 112.816406 C 93.765625 112.820312 94.171875 112.648438 94.492188 112.296875 C 94.808594 111.949219 94.96875 111.453125 94.96875 110.8125 C 94.96875 110.40625 94.898438 110.054688 94.765625 109.75 C 94.625 109.449219 94.429688 109.214844 94.164062 109.050781 C 93.902344 108.882812 93.605469 108.800781 93.28125 108.800781 C 92.8125 108.800781 92.414062 108.960938 92.078125 109.28125 C 91.742188 109.601562 91.574219 110.136719 91.578125 110.882812 Z M 91.578125 110.882812 "/>
<path style=" stroke:none;fill-rule:nonzero;fill:rgb(0%,0%,0%);fill-opacity:1;" d="M 82.871094 56.644531 L 93.054688 43.832031 L 88.851562 41.402344 "/>
<path style="fill:none;stroke-width:0.0333333;stroke-linecap:butt;stroke-linejoin:miter;stroke:rgb(0%,0%,0%);stroke-opacity:1;stroke-miterlimit:10;" d="M 4.403836 0.866148 L 4.816342 1.580413 " transform="matrix(20.804598,0,0,20.847458,20.458097,20.532867)"/>
<path style="fill:none;stroke-width:0.0333333;stroke-linecap:butt;stroke-linejoin:miter;stroke:rgb(0%,0%,0%);stroke-opacity:1;stroke-miterlimit:10;" d="M 4.548034 0.782767 L 4.960541 1.497032 " transform="matrix(20.804598,0,0,20.847458,20.458097,20.532867)"/>
<path style="fill:none;stroke-width:0.0333333;stroke-linecap:butt;stroke-linejoin:miter;stroke:rgb(0%,0%,0%);stroke-opacity:1;stroke-miterlimit:10;" d="M 4.509544 0.866148 L 3.657494 0.866148 " transform="matrix(20.804598,0,0,20.847458,20.458097,20.532867)"/>
<path style="fill:none;stroke-width:0.0333333;stroke-linecap:butt;stroke-linejoin:miter;stroke:rgb(0%,0%,0%);stroke-opacity:1;stroke-miterlimit:10;" d="M 1.973859 1.665668 L 1.955459 1.676348 M 1.94776 1.599151 L 1.911147 1.620511 M 1.921662 1.532633 L 1.866461 1.564487 M 1.895376 1.466303 L 1.821962 1.50865 M 1.869465 1.399786 L 1.777463 1.452812 M 1.843179 1.333268 L 1.733152 1.396975 M 1.817268 1.266938 L 1.688465 1.341138 M 1.790982 1.200421 L 1.643966 1.285301 M 1.764883 1.133904 L 1.599467 1.229464 M 1.738785 1.067386 L 1.555156 1.173627 M 1.712686 1.001056 L 1.51047 1.117602 " transform="matrix(20.804598,0,0,20.847458,20.458097,20.532867)"/>
<path style="fill:none;stroke-width:0.0333333;stroke-linecap:butt;stroke-linejoin:miter;stroke:rgb(0%,0%,0%);stroke-opacity:1;stroke-miterlimit:10;" d="M 0.451885 0.782767 L 0.0393782 1.497032 " transform="matrix(20.804598,0,0,20.847458,20.458097,20.532867)"/>
<path style="fill:none;stroke-width:0.0333333;stroke-linecap:butt;stroke-linejoin:miter;stroke:rgb(0%,0%,0%);stroke-opacity:1;stroke-miterlimit:10;" d="M 0.596271 0.866148 L 0.183765 1.580413 " transform="matrix(20.804598,0,0,20.847458,20.458097,20.532867)"/>
<path style="fill:none;stroke-width:0.0333333;stroke-linecap:butt;stroke-linejoin:miter;stroke:rgb(0%,0%,0%);stroke-opacity:1;stroke-miterlimit:10;" d="M 0.490375 0.866148 L 1.342613 0.866148 " transform="matrix(20.804598,0,0,20.847458,20.458097,20.532867)"/>
<path style="fill:none;stroke-width:0.0333333;stroke-linecap:butt;stroke-linejoin:miter;stroke:rgb(0%,0%,0%);stroke-opacity:1;stroke-miterlimit:10;" d="M 1.495261 2.60628 L 2.004839 1.723754 " transform="matrix(20.804598,0,0,20.847458,20.458097,20.532867)"/>
<path style="fill:none;stroke-width:0.0333333;stroke-linecap:butt;stroke-linejoin:miter;stroke:rgb(0%,0%,0%);stroke-opacity:1;stroke-miterlimit:10;" d="M 2.004839 3.472506 L 1.495261 2.589792 " transform="matrix(20.804598,0,0,20.847458,20.458097,20.532867)"/>
<path style="fill:none;stroke-width:0.0333333;stroke-linecap:butt;stroke-linejoin:miter;stroke:rgb(0%,0%,0%);stroke-opacity:1;stroke-miterlimit:10;" d="M 3.009537 3.464261 L 1.990382 3.464261 " transform="matrix(20.804598,0,0,20.847458,20.458097,20.532867)"/>
<path style="fill:none;stroke-width:0.0333333;stroke-linecap:butt;stroke-linejoin:miter;stroke:rgb(0%,0%,0%);stroke-opacity:1;stroke-miterlimit:10;" d="M 3.504846 2.589792 L 2.99508 3.472506 " transform="matrix(20.804598,0,0,20.847458,20.458097,20.532867)"/>
<path style="fill:none;stroke-width:0.0333333;stroke-linecap:butt;stroke-linejoin:miter;stroke:rgb(0%,0%,0%);stroke-opacity:1;stroke-miterlimit:10;" d="M 2.99508 1.723754 L 3.504846 2.60628 " transform="matrix(20.804598,0,0,20.847458,20.458097,20.532867)"/>
<path style="fill:none;stroke-width:0.0333333;stroke-linecap:butt;stroke-linejoin:miter;stroke:rgb(0%,0%,0%);stroke-opacity:1;stroke-miterlimit:10;" d="M 3.009537 1.732186 L 1.990382 1.732186 " transform="matrix(20.804598,0,0,20.847458,20.458097,20.532867)"/>
<path style="fill:none;stroke-width:0.0333333;stroke-linecap:butt;stroke-linejoin:miter;stroke:rgb(0%,0%,0%);stroke-opacity:1;stroke-miterlimit:10;" d="M 1.955459 3.520098 L 1.973859 3.530591 M 1.911147 3.575936 L 1.94776 3.597109 M 1.866461 3.631773 L 1.921662 3.663439 M 1.821962 3.68761 L 1.895376 3.730143 M 1.777463 3.743447 L 1.869465 3.796473 M 1.733152 3.799284 L 1.843179 3.862991 M 1.688465 3.855121 L 1.817268 3.929321 M 1.643966 3.911146 L 1.790982 3.995838 M 1.599467 3.966983 L 1.764883 4.062356 M 1.555156 4.02282 L 1.738785 4.128686 M 1.51047 4.078657 L 1.712686 4.195391 " transform="matrix(20.804598,0,0,20.847458,20.458097,20.532867)"/>
<path style="fill:none;stroke-width:0.0333333;stroke-linecap:butt;stroke-linejoin:miter;stroke:rgb(0%,0%,0%);stroke-opacity:1;stroke-miterlimit:10;" d="M 3.570186 2.607779 L 3.570186 2.58848 M 3.640408 2.617523 L 3.640408 2.578549 M 3.710629 2.627266 L 3.710629 2.568806 M 3.780851 2.63701 L 3.780851 2.55925 M 3.851073 2.646753 L 3.851073 2.549506 M 3.921295 2.656309 L 3.921295 2.539763 M 3.991517 2.666052 L 3.991517 2.53002 M 4.061739 2.675983 L 4.061739 2.520276 M 4.131961 2.685539 L 4.131961 2.510533 M 4.201995 2.695283 L 4.201995 2.500977 M 4.272404 2.705026 L 4.272404 2.491046 M 4.342626 2.714769 L 4.342626 2.481303 " transform="matrix(20.804598,0,0,20.847458,20.458097,20.532867)"/>
<path style=" stroke:none;fill-rule:nonzero;fill:rgb(0%,0%,0%);fill-opacity:1;" d="M 51.664062 74.695312 L 34.136719 72.261719 L 34.136719 77.128906 "/>
<path style=" stroke:none;fill-rule:nonzero;fill:rgb(0%,0%,0%);fill-opacity:1;" d="M 82.871094 92.753906 L 88.851562 107.996094 L 93.054688 105.5625 "/>
<path style="fill:none;stroke-width:0.0333333;stroke-linecap:butt;stroke-linejoin:miter;stroke:rgb(0%,0%,0%);stroke-opacity:1;stroke-miterlimit:10;" d="M 0.504833 0.874392 L 0.109412 0.189356 " transform="matrix(20.804598,0,0,20.847458,20.458097,20.532867)"/>
<path style="fill:none;stroke-width:0.0333333;stroke-linecap:butt;stroke-linejoin:miter;stroke:rgb(0%,0%,0%);stroke-opacity:1;stroke-miterlimit:10;" d="M 4.495086 0.874392 L 4.890695 0.189356 " transform="matrix(20.804598,0,0,20.847458,20.458097,20.532867)"/>
</g>
</svg>
