<?xml version="1.0" encoding="UTF-8"?>
<svg xmlns="http://www.w3.org/2000/svg" xmlns:xlink="http://www.w3.org/1999/xlink" width="239.2pt" height="92.8pt" viewBox="0 0 239.2 92.8" version="1.1">
<g id="surface112">
<path style=" stroke:none;fill-rule:nonzero;fill:rgb(0%,0%,0%);fill-opacity:1;" d="M 205.246094 13.441406 L 205.902344 13.605469 C 205.761719 14.148438 205.515625 14.554688 205.160156 14.835938 C 204.800781 15.113281 204.363281 15.253906 203.847656 15.257812 C 203.3125 15.253906 202.878906 15.148438 202.539062 14.933594 C 202.203125 14.71875 201.949219 14.402344 201.773438 13.992188 C 201.597656 13.582031 201.511719 13.136719 201.515625 12.664062 C 201.511719 12.152344 201.613281 11.707031 201.808594 11.320312 C 202.003906 10.9375 202.285156 10.644531 202.652344 10.445312 C 203.015625 10.25 203.417969 10.148438 203.859375 10.148438 C 204.355469 10.148438 204.769531 10.277344 205.109375 10.523438 C 205.449219 10.777344 205.683594 11.132812 205.816406 11.585938 L 205.171875 11.738281 C 205.054688 11.382812 204.886719 11.121094 204.667969 10.953125 C 204.445312 10.792969 204.171875 10.707031 203.84375 10.707031 C 203.460938 10.707031 203.140625 10.800781 202.886719 10.980469 C 202.628906 11.164062 202.449219 11.410156 202.347656 11.714844 C 202.242188 12.019531 202.191406 12.335938 202.191406 12.664062 C 202.191406 13.085938 202.25 13.449219 202.375 13.765625 C 202.496094 14.078125 202.6875 14.3125 202.949219 14.46875 C 203.207031 14.625 203.488281 14.703125 203.792969 14.699219 C 204.160156 14.703125 204.472656 14.597656 204.726562 14.382812 C 204.984375 14.171875 205.152344 13.859375 205.246094 13.441406 Z M 205.246094 13.441406 "/>
<path style=" stroke:none;fill-rule:nonzero;fill:rgb(0%,0%,0%);fill-opacity:1;" d="M 206.636719 15.175781 L 206.636719 10.230469 L 207.246094 10.230469 L 207.246094 12.003906 C 207.527344 11.679688 207.882812 11.515625 208.320312 11.511719 C 208.585938 11.515625 208.820312 11.566406 209.015625 11.671875 C 209.210938 11.777344 209.351562 11.921875 209.4375 12.105469 C 209.519531 12.289062 209.5625 12.558594 209.5625 12.90625 L 209.5625 15.175781 L 208.953125 15.175781 L 208.953125 12.90625 C 208.953125 12.605469 208.886719 12.382812 208.757812 12.242188 C 208.625 12.105469 208.4375 12.035156 208.195312 12.035156 C 208.015625 12.035156 207.84375 12.082031 207.6875 12.175781 C 207.523438 12.273438 207.410156 12.398438 207.34375 12.554688 C 207.273438 12.71875 207.242188 12.9375 207.246094 13.214844 L 207.246094 15.175781 Z M 206.636719 15.175781 "/>
<path style=" stroke:none;fill-rule:nonzero;fill:rgb(0%,0%,0%);fill-opacity:1;" d="M 210.496094 10.929688 L 210.496094 10.230469 L 211.105469 10.230469 L 211.105469 10.929688 Z M 210.496094 15.175781 L 210.496094 11.59375 L 211.105469 11.59375 L 211.105469 15.175781 Z M 210.496094 15.175781 "/>
<path style=" stroke:none;fill-rule:nonzero;fill:rgb(0%,0%,0%);fill-opacity:1;" d="M 212.027344 15.175781 L 212.027344 11.59375 L 212.578125 11.59375 L 212.578125 12.136719 C 212.714844 11.882812 212.84375 11.714844 212.964844 11.632812 C 213.082031 11.554688 213.210938 11.515625 213.355469 11.511719 C 213.558594 11.515625 213.769531 11.578125 213.984375 11.707031 L 213.769531 12.273438 C 213.621094 12.1875 213.472656 12.140625 213.324219 12.140625 C 213.1875 12.140625 213.066406 12.179688 212.964844 12.261719 C 212.855469 12.34375 212.78125 12.453125 212.738281 12.589844 C 212.667969 12.808594 212.632812 13.046875 212.636719 13.300781 L 212.636719 15.175781 Z M 212.027344 15.175781 "/>
<path style=" stroke:none;fill-rule:nonzero;fill:rgb(0%,0%,0%);fill-opacity:1;" d="M 216.691406 14.730469 C 216.464844 14.925781 216.246094 15.0625 216.039062 15.136719 C 215.828125 15.21875 215.605469 15.253906 215.367188 15.253906 C 214.96875 15.253906 214.667969 15.160156 214.457031 14.964844 C 214.246094 14.777344 214.136719 14.53125 214.136719 14.230469 C 214.136719 14.058594 214.175781 13.894531 214.257812 13.75 C 214.332031 13.605469 214.441406 13.488281 214.570312 13.402344 C 214.699219 13.316406 214.847656 13.25 215.011719 13.203125 C 215.128906 13.171875 215.308594 13.140625 215.554688 13.109375 C 216.046875 13.050781 216.40625 12.980469 216.640625 12.902344 C 216.640625 12.820312 216.644531 12.769531 216.644531 12.742188 C 216.644531 12.5 216.585938 12.324219 216.472656 12.222656 C 216.316406 12.085938 216.082031 12.019531 215.777344 12.015625 C 215.488281 12.019531 215.277344 12.070312 215.140625 12.167969 C 215.003906 12.269531 214.902344 12.445312 214.835938 12.695312 L 214.242188 12.613281 C 214.292969 12.363281 214.382812 12.160156 214.511719 12 C 214.632812 11.847656 214.8125 11.726562 215.050781 11.636719 C 215.28125 11.554688 215.554688 11.515625 215.863281 11.511719 C 216.171875 11.515625 216.421875 11.550781 216.613281 11.621094 C 216.804688 11.691406 216.945312 11.785156 217.039062 11.890625 C 217.125 12.003906 217.191406 12.144531 217.226562 12.304688 C 217.246094 12.414062 217.253906 12.597656 217.257812 12.867188 L 217.257812 13.675781 C 217.253906 14.238281 217.269531 14.59375 217.296875 14.746094 C 217.320312 14.898438 217.371094 15.039062 217.449219 15.175781 L 216.8125 15.175781 C 216.75 15.050781 216.707031 14.90625 216.691406 14.730469 Z M 216.640625 13.378906 C 216.417969 13.46875 216.085938 13.546875 215.644531 13.605469 C 215.394531 13.644531 215.214844 13.683594 215.113281 13.730469 C 215.003906 13.777344 214.925781 13.84375 214.875 13.925781 C 214.816406 14.015625 214.789062 14.113281 214.789062 14.214844 C 214.789062 14.378906 214.847656 14.511719 214.972656 14.617188 C 215.09375 14.730469 215.273438 14.78125 215.511719 14.78125 C 215.746094 14.78125 215.953125 14.730469 216.136719 14.625 C 216.324219 14.527344 216.457031 14.386719 216.542969 14.207031 C 216.605469 14.070312 216.636719 13.867188 216.640625 13.597656 Z M 216.640625 13.378906 "/>
<path style=" stroke:none;fill-rule:nonzero;fill:rgb(0%,0%,0%);fill-opacity:1;" d="M 218.1875 15.175781 L 218.1875 10.230469 L 218.800781 10.230469 L 218.800781 15.175781 Z M 218.1875 15.175781 "/>
<path style=" stroke:none;fill-rule:nonzero;fill:rgb(0%,0%,0%);fill-opacity:1;" d="M 144.332031 72.21875 C 144.328125 71.402344 144.550781 70.761719 144.996094 70.292969 C 145.4375 69.832031 146.007812 69.601562 146.707031 69.597656 C 147.164062 69.601562 147.578125 69.707031 147.949219 69.925781 C 148.316406 70.144531 148.59375 70.449219 148.789062 70.835938 C 148.980469 71.230469 149.078125 71.671875 149.078125 72.164062 C 149.078125 72.667969 148.972656 73.113281 148.773438 73.507812 C 148.566406 73.90625 148.28125 74.203125 147.910156 74.40625 C 147.539062 74.609375 147.136719 74.710938 146.707031 74.710938 C 146.238281 74.710938 145.820312 74.597656 145.453125 74.375 C 145.082031 74.152344 144.804688 73.84375 144.617188 73.453125 C 144.425781 73.066406 144.328125 72.65625 144.332031 72.21875 Z M 145.007812 72.230469 C 145.007812 72.828125 145.167969 73.296875 145.492188 73.636719 C 145.8125 73.984375 146.214844 74.15625 146.703125 74.152344 C 147.195312 74.15625 147.601562 73.984375 147.921875 73.636719 C 148.242188 73.289062 148.402344 72.796875 148.402344 72.160156 C 148.402344 71.757812 148.332031 71.40625 148.195312 71.105469 C 148.058594 70.804688 147.859375 70.574219 147.597656 70.410156 C 147.335938 70.246094 147.039062 70.160156 146.714844 70.160156 C 146.246094 70.160156 145.84375 70.320312 145.511719 70.640625 C 145.175781 70.957031 145.007812 71.488281 145.007812 72.230469 Z M 145.007812 72.230469 "/>
<path style=" stroke:none;fill-rule:nonzero;fill:rgb(0%,0%,0%);fill-opacity:1;" d="M 162.773438 43.554688 L 162.773438 38.609375 L 163.449219 38.609375 L 166.054688 42.492188 L 166.054688 38.609375 L 166.6875 38.609375 L 166.6875 43.554688 L 166.011719 43.554688 L 163.40625 39.671875 L 163.40625 43.554688 Z M 162.773438 43.554688 "/>
<path style=" stroke:none;fill-rule:nonzero;fill:rgb(0%,0%,0%);fill-opacity:1;" d="M 90.257812 20.433594 C 90.257812 19.617188 90.476562 18.976562 90.921875 18.507812 C 91.363281 18.046875 91.933594 17.816406 92.636719 17.8125 C 93.089844 17.816406 93.503906 17.921875 93.875 18.136719 C 94.242188 18.355469 94.519531 18.660156 94.714844 19.050781 C 94.90625 19.445312 95.003906 19.886719 95.007812 20.378906 C 95.003906 20.882812 94.902344 21.328125 94.699219 21.722656 C 94.496094 22.121094 94.207031 22.417969 93.839844 22.621094 C 93.464844 22.824219 93.0625 22.921875 92.632812 22.925781 C 92.164062 22.921875 91.746094 22.8125 91.378906 22.589844 C 91.007812 22.363281 90.730469 22.058594 90.542969 21.667969 C 90.351562 21.28125 90.257812 20.871094 90.257812 20.433594 Z M 90.9375 20.445312 C 90.933594 21.039062 91.097656 21.511719 91.417969 21.851562 C 91.738281 22.199219 92.140625 22.371094 92.628906 22.367188 C 93.125 22.371094 93.53125 22.199219 93.847656 21.851562 C 94.167969 21.503906 94.328125 21.011719 94.328125 20.375 C 94.328125 19.972656 94.257812 19.621094 94.125 19.320312 C 93.984375 19.019531 93.785156 18.789062 93.523438 18.625 C 93.261719 18.460938 92.964844 18.375 92.640625 18.375 C 92.171875 18.375 91.769531 18.535156 91.4375 18.851562 C 91.101562 19.171875 90.933594 19.703125 90.9375 20.445312 Z M 90.9375 20.445312 "/>
<path style=" stroke:none;fill-rule:nonzero;fill:rgb(0%,0%,0%);fill-opacity:1;" d="M 72.65625 53.910156 L 72.65625 48.96875 L 73.328125 48.96875 L 75.9375 52.847656 L 75.9375 48.96875 L 76.566406 48.96875 L 76.566406 53.910156 L 75.894531 53.910156 L 73.285156 50.027344 L 73.285156 53.910156 Z M 72.65625 53.910156 "/>
<path style=" stroke:none;fill-rule:nonzero;fill:rgb(0%,0%,0%);fill-opacity:1;" d="M 58.125 21.109375 L 58.785156 21.273438 C 58.640625 21.816406 58.394531 22.222656 58.039062 22.503906 C 57.679688 22.78125 57.242188 22.921875 56.726562 22.925781 C 56.191406 22.921875 55.757812 22.816406 55.421875 22.601562 C 55.085938 22.386719 54.828125 22.070312 54.652344 21.660156 C 54.476562 21.25 54.390625 20.804688 54.394531 20.335938 C 54.390625 19.820312 54.492188 19.375 54.6875 18.988281 C 54.882812 18.605469 55.164062 18.3125 55.53125 18.113281 C 55.894531 17.917969 56.296875 17.816406 56.738281 17.816406 C 57.234375 17.816406 57.652344 17.945312 57.988281 18.191406 C 58.328125 18.445312 58.5625 18.800781 58.695312 19.253906 L 58.050781 19.40625 C 57.933594 19.050781 57.765625 18.789062 57.546875 18.621094 C 57.324219 18.460938 57.050781 18.375 56.722656 18.375 C 56.339844 18.375 56.019531 18.46875 55.765625 18.648438 C 55.507812 18.832031 55.328125 19.078125 55.226562 19.382812 C 55.121094 19.6875 55.070312 20.003906 55.070312 20.332031 C 55.070312 20.753906 55.128906 21.117188 55.253906 21.433594 C 55.375 21.746094 55.566406 21.980469 55.828125 22.136719 C 56.085938 22.292969 56.367188 22.371094 56.671875 22.367188 C 57.039062 22.371094 57.351562 22.265625 57.605469 22.050781 C 57.863281 21.839844 58.03125 21.527344 58.125 21.109375 Z M 58.125 21.109375 "/>
<path style=" stroke:none;fill-rule:nonzero;fill:rgb(0%,0%,0%);fill-opacity:1;" d="M 22.074219 41.824219 L 22.734375 41.988281 C 22.59375 42.527344 22.347656 42.9375 21.988281 43.21875 C 21.628906 43.496094 21.191406 43.636719 20.675781 43.640625 C 20.140625 43.636719 19.707031 43.53125 19.371094 43.316406 C 19.035156 43.101562 18.777344 42.785156 18.601562 42.371094 C 18.425781 41.960938 18.339844 41.519531 18.34375 41.046875 C 18.339844 40.535156 18.441406 40.089844 18.640625 39.703125 C 18.832031 39.320312 19.113281 39.027344 19.480469 38.828125 C 19.84375 38.632812 20.25 38.53125 20.6875 38.527344 C 21.183594 38.53125 21.601562 38.660156 21.9375 38.90625 C 22.277344 39.160156 22.515625 39.511719 22.648438 39.96875 L 22 40.121094 C 21.882812 39.765625 21.714844 39.503906 21.496094 39.335938 C 21.277344 39.171875 21 39.089844 20.675781 39.089844 C 20.289062 39.089844 19.96875 39.183594 19.714844 39.363281 C 19.457031 39.546875 19.277344 39.792969 19.175781 40.097656 C 19.074219 40.402344 19.019531 40.71875 19.019531 41.046875 C 19.019531 41.464844 19.082031 41.832031 19.207031 42.144531 C 19.324219 42.460938 19.515625 42.695312 19.777344 42.851562 C 20.035156 43.007812 20.320312 43.085938 20.621094 43.082031 C 20.992188 43.085938 21.300781 42.980469 21.558594 42.765625 C 21.8125 42.554688 21.984375 42.242188 22.074219 41.824219 Z M 22.074219 41.824219 "/>
<path style=" stroke:none;fill-rule:nonzero;fill:rgb(0%,0%,0%);fill-opacity:1;" d="M 184.289062 72.894531 L 184.949219 73.0625 C 184.808594 73.601562 184.5625 74.007812 184.203125 74.289062 C 183.84375 74.570312 183.40625 74.710938 182.890625 74.710938 C 182.355469 74.710938 181.921875 74.605469 181.585938 74.386719 C 181.25 74.171875 180.992188 73.855469 180.820312 73.445312 C 180.640625 73.035156 180.554688 72.589844 180.558594 72.121094 C 180.554688 71.605469 180.65625 71.160156 180.855469 70.773438 C 181.046875 70.390625 181.328125 70.097656 181.695312 69.898438 C 182.058594 69.703125 182.464844 69.601562 182.902344 69.601562 C 183.398438 69.601562 183.816406 69.730469 184.152344 69.976562 C 184.492188 70.230469 184.730469 70.585938 184.863281 71.039062 L 184.214844 71.191406 C 184.097656 70.835938 183.929688 70.574219 183.710938 70.40625 C 183.492188 70.246094 183.214844 70.160156 182.890625 70.160156 C 182.503906 70.160156 182.183594 70.253906 181.929688 70.433594 C 181.671875 70.617188 181.492188 70.863281 181.390625 71.167969 C 181.289062 71.476562 181.234375 71.789062 181.234375 72.117188 C 181.234375 72.539062 181.296875 72.90625 181.421875 73.21875 C 181.539062 73.53125 181.730469 73.769531 181.992188 73.921875 C 182.25 74.078125 182.535156 74.15625 182.835938 74.152344 C 183.207031 74.15625 183.515625 74.050781 183.773438 73.835938 C 184.027344 73.628906 184.199219 73.3125 184.289062 72.894531 Z M 184.289062 72.894531 "/>
<path style=" stroke:none;fill-rule:nonzero;fill:rgb(0%,0%,0%);fill-opacity:1;" d="M 220.335938 52.179688 L 220.996094 52.347656 C 220.855469 52.886719 220.609375 53.292969 220.25 53.574219 C 219.890625 53.855469 219.453125 53.996094 218.9375 53.996094 C 218.402344 53.996094 217.96875 53.890625 217.632812 53.671875 C 217.296875 53.457031 217.039062 53.140625 216.867188 52.730469 C 216.6875 52.320312 216.601562 51.878906 216.605469 51.40625 C 216.601562 50.894531 216.703125 50.445312 216.902344 50.058594 C 217.097656 49.675781 217.375 49.386719 217.742188 49.1875 C 218.105469 48.988281 218.511719 48.890625 218.949219 48.886719 C 219.445312 48.890625 219.863281 49.015625 220.203125 49.265625 C 220.539062 49.515625 220.777344 49.871094 220.910156 50.328125 L 220.265625 50.476562 C 220.144531 50.121094 219.976562 49.859375 219.757812 49.691406 C 219.539062 49.53125 219.265625 49.445312 218.9375 49.445312 C 218.550781 49.445312 218.230469 49.539062 217.976562 49.71875 C 217.71875 49.902344 217.539062 50.148438 217.4375 50.453125 C 217.335938 50.761719 217.28125 51.078125 217.28125 51.402344 C 217.28125 51.824219 217.34375 52.191406 217.46875 52.503906 C 217.585938 52.820312 217.777344 53.054688 218.039062 53.207031 C 218.300781 53.363281 218.582031 53.441406 218.882812 53.4375 C 219.253906 53.441406 219.566406 53.335938 219.820312 53.125 C 220.074219 52.914062 220.246094 52.597656 220.335938 52.179688 Z M 220.335938 52.179688 "/>
<path style="fill:none;stroke-width:0.0333333;stroke-linecap:butt;stroke-linejoin:miter;stroke:rgb(0%,0%,0%);stroke-opacity:1;stroke-miterlimit:10;" d="M 7.101527 1.10007 L 7.802555 1.504758 " transform="matrix(20.812065,0,0,20.714286,20.538501,20.369077)"/>
<path style="fill:none;stroke-width:0.0333333;stroke-linecap:butt;stroke-linejoin:miter;stroke:rgb(0%,0%,0%);stroke-opacity:1;stroke-miterlimit:10;" d="M 5.978943 1.451768 L 5.978943 2.333179 " transform="matrix(20.812065,0,0,20.714286,20.538501,20.369077)"/>
<path style="fill:none;stroke-width:0.0333333;stroke-linecap:butt;stroke-linejoin:miter;stroke:rgb(0%,0%,0%);stroke-opacity:1;stroke-miterlimit:10;" d="M 6.145613 1.451768 L 6.145613 2.333179 " transform="matrix(20.812065,0,0,20.714286,20.538501,20.369077)"/>
<path style="fill:none;stroke-width:0.0333333;stroke-linecap:butt;stroke-linejoin:miter;stroke:rgb(0%,0%,0%);stroke-opacity:1;stroke-miterlimit:10;" d="M 6.053832 1.504758 L 6.75486 1.10007 " transform="matrix(20.812065,0,0,20.714286,20.538501,20.369077)"/>
<path style="fill:none;stroke-width:0.0333333;stroke-linecap:butt;stroke-linejoin:miter;stroke:rgb(0%,0%,0%);stroke-opacity:1;stroke-miterlimit:10;" d="M 2.424815 1.399909 L 1.723787 0.995221 " transform="matrix(20.812065,0,0,20.714286,20.538501,20.369077)"/>
<path style="fill:none;stroke-width:0.0333333;stroke-linecap:butt;stroke-linejoin:miter;stroke:rgb(0%,0%,0%);stroke-opacity:1;stroke-miterlimit:10;" d="M 3.547398 1.048212 L 3.547398 0.1668 " transform="matrix(20.812065,0,0,20.714286,20.538501,20.369077)"/>
<path style="fill:none;stroke-width:0.0333333;stroke-linecap:butt;stroke-linejoin:miter;stroke:rgb(0%,0%,0%);stroke-opacity:1;stroke-miterlimit:10;" d="M 3.380728 1.048212 L 3.380728 0.1668 " transform="matrix(20.812065,0,0,20.714286,20.538501,20.369077)"/>
<path style="fill:none;stroke-width:0.0333333;stroke-linecap:butt;stroke-linejoin:miter;stroke:rgb(0%,0%,0%);stroke-opacity:1;stroke-miterlimit:10;" d="M 3.472322 0.995221 L 2.771481 1.399909 " transform="matrix(20.812065,0,0,20.714286,20.538501,20.369077)"/>
<path style="fill:none;stroke-width:0.0333333;stroke-linecap:butt;stroke-linejoin:miter;stroke:rgb(0%,0%,0%);stroke-opacity:1;stroke-miterlimit:10;" d="M 4.321814 1.504758 L 5.204528 0.995221 " transform="matrix(20.812065,0,0,20.714286,20.538501,20.369077)"/>
<path style="fill:none;stroke-width:0.0333333;stroke-linecap:butt;stroke-linejoin:miter;stroke:rgb(0%,0%,0%);stroke-opacity:1;stroke-miterlimit:10;" d="M 4.488484 1.601121 L 5.204528 1.18757 " transform="matrix(20.812065,0,0,20.714286,20.538501,20.369077)"/>
<path style="fill:none;stroke-width:0.0333333;stroke-linecap:butt;stroke-linejoin:miter;stroke:rgb(0%,0%,0%);stroke-opacity:1;stroke-miterlimit:10;" d="M 1.741805 0.930539 L 1.722473 0.930539 M 1.751565 0.861143 L 1.712713 0.861143 M 1.761325 0.791746 L 1.702953 0.791746 M 1.770897 0.72235 L 1.693193 0.72235 M 1.780657 0.652764 L 1.683433 0.652764 M 1.790417 0.583368 L 1.673861 0.583368 M 1.800177 0.513971 L 1.664101 0.513971 M 1.809937 0.444575 L 1.654341 0.444575 M 1.819697 0.37499 L 1.644581 0.37499 M 1.829269 0.305593 L 1.634821 0.305593 M 1.839029 0.236196 L 1.625061 0.236196 M 1.848789 0.166611 L 1.615489 0.166611 " transform="matrix(20.812065,0,0,20.714286,20.538501,20.369077)"/>
<path style="fill:none;stroke-width:0.0333333;stroke-linecap:butt;stroke-linejoin:miter;stroke:rgb(0%,0%,0%);stroke-opacity:1;stroke-miterlimit:10;" d="M 1.740491 0.995221 L 0.85759 1.504758 " transform="matrix(20.812065,0,0,20.714286,20.538501,20.369077)"/>
<path style="fill:none;stroke-width:0.0333333;stroke-linecap:butt;stroke-linejoin:miter;stroke:rgb(0%,0%,0%);stroke-opacity:1;stroke-miterlimit:10;" d="M 0.874295 1.504758 L 0.183777 1.106105 " transform="matrix(20.812065,0,0,20.714286,20.538501,20.369077)"/>
<path style="fill:none;stroke-width:0.0333333;stroke-linecap:butt;stroke-linejoin:miter;stroke:rgb(0%,0%,0%);stroke-opacity:1;stroke-miterlimit:10;" d="M 3.455805 0.995221 L 4.338331 1.504758 " transform="matrix(20.812065,0,0,20.714286,20.538501,20.369077)"/>
<path style="fill:none;stroke-width:0.0333333;stroke-linecap:butt;stroke-linejoin:miter;stroke:rgb(0%,0%,0%);stroke-opacity:1;stroke-miterlimit:10;" d="M 7.784537 1.56944 L 7.804056 1.56944 M 7.774777 1.639025 L 7.813816 1.639025 M 7.765017 1.708422 L 7.823389 1.708422 M 7.755444 1.777818 L 7.833149 1.777818 M 7.745684 1.847215 L 7.842909 1.847215 M 7.735924 1.916611 L 7.852669 1.916611 M 7.726352 1.986008 L 7.862429 1.986008 M 7.716592 2.055404 L 7.872189 2.055404 M 7.706832 2.12499 L 7.881761 2.12499 M 7.697072 2.194386 L 7.891521 2.194386 M 7.687312 2.263783 L 7.901281 2.263783 M 7.677552 2.333368 L 7.910853 2.333368 " transform="matrix(20.812065,0,0,20.714286,20.538501,20.369077)"/>
<path style="fill:none;stroke-width:0.0333333;stroke-linecap:butt;stroke-linejoin:miter;stroke:rgb(0%,0%,0%);stroke-opacity:1;stroke-miterlimit:10;" d="M 7.78585 1.504758 L 8.668564 0.995221 " transform="matrix(20.812065,0,0,20.714286,20.538501,20.369077)"/>
<path style="fill:none;stroke-width:0.0333333;stroke-linecap:butt;stroke-linejoin:miter;stroke:rgb(0%,0%,0%);stroke-opacity:1;stroke-miterlimit:10;" d="M 8.651859 0.995221 L 9.342377 1.393874 " transform="matrix(20.812065,0,0,20.714286,20.538501,20.369077)"/>
<path style="fill:none;stroke-width:0.0333333;stroke-linecap:butt;stroke-linejoin:miter;stroke:rgb(0%,0%,0%);stroke-opacity:1;stroke-miterlimit:10;" d="M 6.070537 1.504758 L 5.187823 0.995221 " transform="matrix(20.812065,0,0,20.714286,20.538501,20.369077)"/>
</g>
</svg>
