<?xml version="1.0" encoding="UTF-8"?>
<svg xmlns="http://www.w3.org/2000/svg" xmlns:xlink="http://www.w3.org/1999/xlink" width="83.2pt" height="58.4pt" viewBox="0 0 83.2 58.4" version="1.1">
<g id="surface1292">
<path style=" stroke:none;fill-rule:nonzero;fill:rgb(0%,0%,0%);fill-opacity:1;" d="M 18.84375 22.785156 L 18.84375 17.855469 L 19.519531 17.855469 L 22.125 21.726562 L 22.125 17.855469 L 22.753906 17.855469 L 22.753906 22.785156 L 22.082031 22.785156 L 19.476562 18.910156 L 19.476562 22.785156 Z M 18.84375 22.785156 "/>
<path style=" stroke:none;fill-rule:nonzero;fill:rgb(0%,0%,0%);fill-opacity:1;" d="M 60.027344 20.390625 C 60.023438 19.574219 60.246094 18.933594 60.691406 18.46875 C 61.132812 18.007812 61.703125 17.777344 62.402344 17.773438 C 62.859375 17.777344 63.273438 17.882812 63.644531 18.097656 C 64.007812 18.316406 64.289062 18.621094 64.484375 19.007812 C 64.671875 19.402344 64.769531 19.84375 64.773438 20.332031 C 64.769531 20.835938 64.667969 21.28125 64.464844 21.675781 C 64.261719 22.070312 63.972656 22.367188 63.605469 22.570312 C 63.230469 22.773438 62.832031 22.871094 62.398438 22.875 C 61.929688 22.871094 61.515625 22.761719 61.144531 22.539062 C 60.777344 22.316406 60.5 22.007812 60.3125 21.621094 C 60.121094 21.234375 60.023438 20.824219 60.027344 20.390625 Z M 60.703125 20.398438 C 60.703125 20.992188 60.863281 21.460938 61.1875 21.804688 C 61.507812 22.148438 61.910156 22.320312 62.398438 22.316406 C 62.890625 22.320312 63.296875 22.148438 63.617188 21.800781 C 63.9375 21.457031 64.09375 20.964844 64.09375 20.328125 C 64.09375 19.929688 64.023438 19.578125 63.890625 19.277344 C 63.75 18.980469 63.554688 18.746094 63.292969 18.582031 C 63.027344 18.417969 62.734375 18.335938 62.40625 18.335938 C 61.941406 18.335938 61.539062 18.496094 61.207031 18.8125 C 60.871094 19.128906 60.703125 19.660156 60.703125 20.398438 Z M 60.703125 20.398438 "/>
<path style="fill:none;stroke-width:0.0333333;stroke-linecap:butt;stroke-linejoin:miter;stroke:rgb(0%,0%,0%);stroke-opacity:1;stroke-miterlimit:10;" d="M 1.495132 0.874327 L 1.888386 0.193298 " transform="matrix(20.8,0,0,20.660377,20.799693,20.322794)"/>
<path style="fill:none;stroke-width:0.0333333;stroke-linecap:butt;stroke-linejoin:miter;stroke:rgb(0%,0%,0%);stroke-opacity:1;stroke-miterlimit:10;" d="M 0.490399 0.866008 L 1.509593 0.866008 " transform="matrix(20.8,0,0,20.660377,20.799693,20.322794)"/>
<path style="fill:none;stroke-width:0.0333333;stroke-linecap:butt;stroke-linejoin:miter;stroke:rgb(0%,0%,0%);stroke-opacity:1;stroke-miterlimit:10;" d="M 0.586553 0.699248 L 1.413439 0.699248 " transform="matrix(20.8,0,0,20.660377,20.799693,20.322794)"/>
<path style="fill:none;stroke-width:0.0333333;stroke-linecap:butt;stroke-linejoin:miter;stroke:rgb(0%,0%,0%);stroke-opacity:1;stroke-miterlimit:10;" d="M 0.50486 0.874327 L 0.104657 0.181387 " transform="matrix(20.8,0,0,20.660377,20.799693,20.322794)"/>
</g>
</svg>
