<?xml version="1.0" encoding="UTF-8"?>
<svg xmlns="http://www.w3.org/2000/svg" xmlns:xlink="http://www.w3.org/1999/xlink" width="81.6pt" height="164.8pt" viewBox="0 0 81.6 164.8" version="1.1">
<g id="surface802">
<path style=" stroke:none;fill-rule:nonzero;fill:rgb(0%,0%,0%);fill-opacity:1;" d="M 58.921875 80.300781 C 58.921875 79.480469 59.140625 78.835938 59.585938 78.367188 C 60.027344 77.902344 60.597656 77.671875 61.300781 77.667969 C 61.753906 77.671875 62.167969 77.777344 62.542969 77.996094 C 62.90625 78.214844 63.1875 78.519531 63.382812 78.910156 C 63.570312 79.304688 63.667969 79.75 63.671875 80.242188 C 63.667969 80.75 63.566406 81.199219 63.363281 81.597656 C 63.160156 81.992188 62.871094 82.292969 62.503906 82.5 C 62.128906 82.703125 61.726562 82.800781 61.296875 82.804688 C 60.828125 82.800781 60.410156 82.691406 60.042969 82.464844 C 59.671875 82.242188 59.394531 81.933594 59.207031 81.542969 C 59.015625 81.152344 58.921875 80.738281 58.921875 80.300781 Z M 59.601562 80.3125 C 59.597656 80.910156 59.761719 81.382812 60.082031 81.726562 C 60.402344 82.074219 60.804688 82.246094 61.292969 82.242188 C 61.789062 82.246094 62.195312 82.074219 62.515625 81.722656 C 62.832031 81.375 62.992188 80.878906 62.992188 80.242188 C 62.992188 79.835938 62.921875 79.484375 62.789062 79.183594 C 62.648438 78.882812 62.453125 78.648438 62.1875 78.484375 C 61.925781 78.316406 61.628906 78.234375 61.304688 78.234375 C 60.835938 78.234375 60.433594 78.394531 60.101562 78.714844 C 59.765625 79.03125 59.597656 79.566406 59.601562 80.3125 Z M 59.601562 80.3125 "/>
<path style=" stroke:none;fill-rule:nonzero;fill:rgb(0%,0%,0%);fill-opacity:1;" d="M 24.90625 93.402344 L 24.90625 88.4375 L 25.582031 88.4375 L 28.1875 92.335938 L 28.1875 88.4375 L 28.820312 88.4375 L 28.820312 93.402344 L 28.144531 93.402344 L 25.539062 89.5 L 25.539062 93.402344 Z M 24.90625 93.402344 "/>
<path style=" stroke:none;fill-rule:nonzero;fill:rgb(0%,0%,0%);fill-opacity:1;" d="M 44.320312 21.359375 L 44.976562 21.527344 C 44.835938 22.070312 44.589844 22.480469 44.230469 22.761719 C 43.875 23.042969 43.433594 23.183594 42.921875 23.1875 C 42.382812 23.183594 41.949219 23.078125 41.613281 22.863281 C 41.277344 22.644531 41.019531 22.328125 40.847656 21.914062 C 40.671875 21.5 40.582031 21.058594 40.585938 20.582031 C 40.582031 20.070312 40.683594 19.617188 40.882812 19.230469 C 41.078125 18.847656 41.355469 18.554688 41.726562 18.351562 C 42.089844 18.15625 42.492188 18.054688 42.929688 18.050781 C 43.425781 18.054688 43.84375 18.183594 44.183594 18.433594 C 44.523438 18.6875 44.757812 19.042969 44.890625 19.5 L 44.246094 19.652344 C 44.125 19.292969 43.957031 19.03125 43.742188 18.863281 C 43.519531 18.699219 43.246094 18.617188 42.917969 18.617188 C 42.53125 18.617188 42.210938 18.707031 41.957031 18.890625 C 41.699219 19.074219 41.523438 19.320312 41.417969 19.625 C 41.316406 19.9375 41.265625 20.253906 41.265625 20.582031 C 41.265625 21.003906 41.324219 21.371094 41.449219 21.6875 C 41.566406 22.003906 41.761719 22.238281 42.019531 22.394531 C 42.28125 22.550781 42.5625 22.628906 42.867188 22.625 C 43.234375 22.628906 43.546875 22.523438 43.800781 22.308594 C 44.054688 22.097656 44.226562 21.78125 44.320312 21.359375 Z M 44.320312 21.359375 "/>
<path style="fill:none;stroke-width:0.0333333;stroke-linecap:butt;stroke-linejoin:miter;stroke:rgb(0%,0%,0%);stroke-opacity:1;stroke-miterlimit:10;" d="M 0.359816 3.565815 L 0.598323 4.33362 " transform="matrix(20.816327,0,0,20.808081,20.580268,20.618648)"/>
<path style="fill:none;stroke-width:0.0333333;stroke-linecap:butt;stroke-linejoin:miter;stroke:rgb(0%,0%,0%);stroke-opacity:1;stroke-miterlimit:10;" d="M 0.915457 2.715033 L 1.752015 2.904263 " transform="matrix(20.816327,0,0,20.808081,20.580268,20.618648)"/>
<path style="fill:none;stroke-width:0.0333333;stroke-linecap:butt;stroke-linejoin:miter;stroke:rgb(0%,0%,0%);stroke-opacity:1;stroke-miterlimit:10;" d="M 0.952237 2.552461 L 1.788607 2.741878 " transform="matrix(20.816327,0,0,20.808081,20.580268,20.618648)"/>
<path style="fill:none;stroke-width:0.0333333;stroke-linecap:butt;stroke-linejoin:miter;stroke:rgb(0%,0%,0%);stroke-opacity:1;stroke-miterlimit:10;" d="M 0.987328 2.637314 L 0.446136 3.222461 " transform="matrix(20.816327,0,0,20.808081,20.580268,20.618648)"/>
<path style="fill:none;stroke-width:0.0333333;stroke-linecap:butt;stroke-linejoin:miter;stroke:rgb(0%,0%,0%);stroke-opacity:1;stroke-miterlimit:10;" d="M 1.126754 0.19404 L 1.365825 0.964098 " transform="matrix(20.816327,0,0,20.808081,20.580268,20.618648)"/>
<path style="fill:none;stroke-width:0.0333333;stroke-linecap:butt;stroke-linejoin:miter;stroke:rgb(0%,0%,0%);stroke-opacity:1;stroke-miterlimit:10;" d="M 1.369578 0.947954 L 0.6777 1.696236 " transform="matrix(20.816327,0,0,20.808081,20.580268,20.618648)"/>
<path style="fill:none;stroke-width:0.0333333;stroke-linecap:butt;stroke-linejoin:miter;stroke:rgb(0%,0%,0%);stroke-opacity:1;stroke-miterlimit:10;" d="M 1.426624 1.131739 L 0.865354 1.73885 " transform="matrix(20.816327,0,0,20.808081,20.580268,20.618648)"/>
<path style="fill:none;stroke-width:0.0333333;stroke-linecap:butt;stroke-linejoin:miter;stroke:rgb(0%,0%,0%);stroke-opacity:1;stroke-miterlimit:10;" d="M 0.598323 4.33362 L -0.00723377 5.144603 " transform="matrix(20.816327,0,0,20.808081,20.580268,20.618648)"/>
<path style="fill:none;stroke-width:0.0333333;stroke-linecap:butt;stroke-linejoin:miter;stroke:rgb(0%,0%,0%);stroke-opacity:1;stroke-miterlimit:10;" d="M 1.556856 4.658952 L 0.598323 4.33362 " transform="matrix(20.816327,0,0,20.808081,20.580268,20.618648)"/>
<path style="fill:none;stroke-width:0.0333333;stroke-linecap:butt;stroke-linejoin:miter;stroke:rgb(0%,0%,0%);stroke-opacity:1;stroke-miterlimit:10;" d="M 1.545409 4.642995 L 1.531898 5.667237 " transform="matrix(20.816327,0,0,20.808081,20.580268,20.618648)"/>
<path style="fill:none;stroke-width:0.0333333;stroke-linecap:butt;stroke-linejoin:miter;stroke:rgb(0%,0%,0%);stroke-opacity:1;stroke-miterlimit:10;" d="M -0.00704612 5.12508 L 0.584061 5.961406 " transform="matrix(20.816327,0,0,20.808081,20.580268,20.618648)"/>
<path style="fill:none;stroke-width:0.0333333;stroke-linecap:butt;stroke-linejoin:miter;stroke:rgb(0%,0%,0%);stroke-opacity:1;stroke-miterlimit:10;" d="M 0.565484 5.955023 L 1.54372 5.651468 " transform="matrix(20.816327,0,0,20.808081,20.580268,20.618648)"/>
<path style="fill:none;stroke-width:0.0333333;stroke-linecap:butt;stroke-linejoin:miter;stroke:rgb(0%,0%,0%);stroke-opacity:1;stroke-miterlimit:10;" d="M 0.983575 2.653459 L 0.681453 1.680091 " transform="matrix(20.816327,0,0,20.808081,20.580268,20.618648)"/>
</g>
</svg>
