<?xml version="1.0" encoding="UTF-8"?>
<svg xmlns="http://www.w3.org/2000/svg" xmlns:xlink="http://www.w3.org/1999/xlink" width="94.4pt" height="51.2pt" viewBox="0 0 94.4 51.2" version="1.1">
<g id="surface497">
<path style=" stroke:none;fill-rule:nonzero;fill:rgb(0%,0%,0%);fill-opacity:1;" d="M 18.433594 33.445312 L 18.433594 28.464844 L 19.101562 28.464844 L 21.695312 32.375 L 21.695312 28.464844 L 22.324219 28.464844 L 22.324219 33.445312 L 21.652344 33.445312 L 19.058594 29.53125 L 19.058594 33.445312 Z M 18.433594 33.445312 "/>
<path style=" stroke:none;fill-rule:nonzero;fill:rgb(0%,0%,0%);fill-opacity:1;" d="M 71.800781 20.585938 C 71.796875 19.761719 72.019531 19.117188 72.460938 18.648438 C 72.902344 18.183594 73.46875 17.949219 74.164062 17.945312 C 74.617188 17.949219 75.03125 18.058594 75.398438 18.273438 C 75.761719 18.496094 76.042969 18.800781 76.234375 19.191406 C 76.425781 19.589844 76.519531 20.035156 76.523438 20.53125 C 76.519531 21.039062 76.417969 21.488281 76.21875 21.886719 C 76.015625 22.285156 75.730469 22.585938 75.363281 22.789062 C 74.988281 22.996094 74.589844 23.09375 74.164062 23.097656 C 73.695312 23.09375 73.28125 22.984375 72.914062 22.757812 C 72.546875 22.53125 72.269531 22.222656 72.085938 21.832031 C 71.894531 21.441406 71.796875 21.027344 71.800781 20.585938 Z M 72.476562 20.597656 C 72.472656 21.199219 72.632812 21.671875 72.953125 22.015625 C 73.273438 22.363281 73.675781 22.539062 74.160156 22.535156 C 74.648438 22.539062 75.054688 22.363281 75.371094 22.011719 C 75.691406 21.664062 75.851562 21.167969 75.851562 20.527344 C 75.851562 20.121094 75.78125 19.769531 75.644531 19.464844 C 75.507812 19.164062 75.3125 18.929688 75.050781 18.761719 C 74.789062 18.597656 74.492188 18.511719 74.171875 18.511719 C 73.703125 18.511719 73.304688 18.675781 72.972656 18.996094 C 72.640625 19.316406 72.472656 19.851562 72.476562 20.597656 Z M 72.476562 20.597656 "/>
<path style="fill:none;stroke-width:0.0333333;stroke-linecap:butt;stroke-linejoin:miter;stroke:rgb(0%,0%,0%);stroke-opacity:1;stroke-miterlimit:10;" d="M 1.723623 0.504889 L 2.407819 0.109951 " transform="matrix(20.701754,0,0,20.869565,20.376577,20.521774)"/>
<path style="fill:none;stroke-width:0.0333333;stroke-linecap:butt;stroke-linejoin:miter;stroke:rgb(0%,0%,0%);stroke-opacity:1;stroke-miterlimit:10;" d="M 0.857716 -0.00478682 L 1.740228 0.504889 " transform="matrix(20.701754,0,0,20.869565,20.376577,20.521774)"/>
<path style="fill:none;stroke-width:0.0333333;stroke-linecap:butt;stroke-linejoin:miter;stroke:rgb(0%,0%,0%);stroke-opacity:1;stroke-miterlimit:10;" d="M 1.024331 -0.100995 L 1.740228 0.312287 " transform="matrix(20.701754,0,0,20.869565,20.376577,20.521774)"/>
<path style="fill:none;stroke-width:0.0333333;stroke-linecap:butt;stroke-linejoin:miter;stroke:rgb(0%,0%,0%);stroke-opacity:1;stroke-miterlimit:10;" d="M 0.874321 -0.00478682 L 0.173332 0.399884 " transform="matrix(20.701754,0,0,20.869565,20.376577,20.521774)"/>
</g>
</svg>
