<?xml version="1.0" encoding="UTF-8"?>
<svg xmlns="http://www.w3.org/2000/svg" xmlns:xlink="http://www.w3.org/1999/xlink" width="83.2pt" height="58.4pt" viewBox="0 0 83.2 58.4" version="1.1">
<g id="surface432">
<path style=" stroke:none;fill-rule:nonzero;fill:rgb(0%,0%,0%);fill-opacity:1;" d="M 60.449219 40.679688 L 60.449219 35.746094 L 61.121094 35.746094 L 63.726562 39.617188 L 63.726562 35.746094 L 64.359375 35.746094 L 64.359375 40.679688 L 63.683594 40.679688 L 61.078125 36.804688 L 61.078125 40.679688 Z M 60.449219 40.679688 "/>
<path style=" stroke:none;fill-rule:nonzero;fill:rgb(0%,0%,0%);fill-opacity:1;" d="M 18.425781 38.277344 C 18.425781 37.464844 18.648438 36.824219 19.089844 36.359375 C 19.53125 35.898438 20.101562 35.667969 20.800781 35.664062 C 21.257812 35.667969 21.671875 35.773438 22.042969 35.988281 C 22.410156 36.207031 22.6875 36.511719 22.882812 36.898438 C 23.074219 37.289062 23.167969 37.730469 23.171875 38.222656 C 23.167969 38.726562 23.066406 39.171875 22.867188 39.5625 C 22.660156 39.960938 22.375 40.257812 22.003906 40.460938 C 21.632812 40.660156 21.230469 40.761719 20.800781 40.765625 C 20.332031 40.761719 19.914062 40.652344 19.546875 40.425781 C 19.175781 40.203125 18.898438 39.898438 18.710938 39.511719 C 18.519531 39.121094 18.425781 38.714844 18.425781 38.277344 Z M 19.105469 38.289062 C 19.101562 38.882812 19.265625 39.351562 19.585938 39.691406 C 19.90625 40.039062 20.308594 40.210938 20.796875 40.207031 C 21.289062 40.210938 21.695312 40.039062 22.015625 39.691406 C 22.335938 39.347656 22.496094 38.855469 22.496094 38.21875 C 22.496094 37.816406 22.425781 37.46875 22.289062 37.167969 C 22.152344 36.867188 21.953125 36.636719 21.691406 36.472656 C 21.429688 36.308594 21.132812 36.226562 20.808594 36.226562 C 20.339844 36.226562 19.9375 36.382812 19.605469 36.703125 C 19.269531 37.019531 19.101562 37.550781 19.105469 38.289062 Z M 19.105469 38.289062 "/>
<path style="fill:none;stroke-width:0.0333333;stroke-linecap:butt;stroke-linejoin:miter;stroke:rgb(0%,0%,0%);stroke-opacity:1;stroke-miterlimit:10;" d="M 1.495167 -0.00826515 L 1.89537 0.684486 " transform="matrix(20.8,0,0,20.660377,20.798968,20.323105)"/>
<path style="fill:none;stroke-width:0.0333333;stroke-linecap:butt;stroke-linejoin:miter;stroke:rgb(0%,0%,0%);stroke-opacity:1;stroke-miterlimit:10;" d="M 1.509627 0.0000539094 L 0.490434 0.0000539094 " transform="matrix(20.8,0,0,20.660377,20.798968,20.323105)"/>
<path style="fill:none;stroke-width:0.0333333;stroke-linecap:butt;stroke-linejoin:miter;stroke:rgb(0%,0%,0%);stroke-opacity:1;stroke-miterlimit:10;" d="M 1.413474 0.166624 L 0.586588 0.166624 " transform="matrix(20.8,0,0,20.660377,20.798968,20.323105)"/>
<path style="fill:none;stroke-width:0.0333333;stroke-linecap:butt;stroke-linejoin:miter;stroke:rgb(0%,0%,0%);stroke-opacity:1;stroke-miterlimit:10;" d="M 0.504895 -0.00826515 L 0.111641 0.672764 " transform="matrix(20.8,0,0,20.660377,20.798968,20.323105)"/>
</g>
</svg>
