<?xml version="1.0" encoding="UTF-8"?>
<svg xmlns="http://www.w3.org/2000/svg" xmlns:xlink="http://www.w3.org/1999/xlink" width="103.2pt" height="185.6pt" viewBox="0 0 103.2 185.6" version="1.1">
<g id="surface442">
<path style=" stroke:none;fill-rule:nonzero;fill:rgb(0%,0%,0%);fill-opacity:1;" d="M 28.304688 92.847656 C 28.304688 92.023438 28.523438 91.378906 28.96875 90.910156 C 29.410156 90.445312 29.980469 90.210938 30.679688 90.210938 C 31.136719 90.210938 31.550781 90.320312 31.921875 90.539062 C 32.289062 90.757812 32.566406 91.066406 32.761719 91.457031 C 32.953125 91.851562 33.050781 92.296875 33.050781 92.789062 C 33.050781 93.296875 32.945312 93.746094 32.746094 94.144531 C 32.539062 94.542969 32.253906 94.84375 31.882812 95.046875 C 31.511719 95.25 31.109375 95.351562 30.679688 95.355469 C 30.210938 95.351562 29.792969 95.242188 29.425781 95.015625 C 29.054688 94.789062 28.777344 94.480469 28.589844 94.089844 C 28.398438 93.699219 28.304688 93.285156 28.304688 92.847656 Z M 28.984375 92.859375 C 28.980469 93.457031 29.140625 93.929688 29.464844 94.273438 C 29.785156 94.621094 30.1875 94.796875 30.675781 94.792969 C 31.167969 94.796875 31.574219 94.621094 31.894531 94.273438 C 32.214844 93.925781 32.375 93.429688 32.375 92.789062 C 32.375 92.382812 32.304688 92.03125 32.167969 91.726562 C 32.03125 91.425781 31.832031 91.191406 31.570312 91.027344 C 31.308594 90.859375 31.011719 90.777344 30.6875 90.777344 C 30.21875 90.777344 29.816406 90.9375 29.484375 91.257812 C 29.148438 91.578125 28.980469 92.113281 28.984375 92.859375 Z M 28.984375 92.859375 "/>
<path style=" stroke:none;fill-rule:nonzero;fill:rgb(0%,0%,0%);fill-opacity:1;" d="M 59.84375 77.0625 L 59.84375 72.089844 L 60.515625 72.089844 L 63.125 75.996094 L 63.125 72.089844 L 63.753906 72.089844 L 63.753906 77.0625 L 63.082031 77.0625 L 60.472656 73.15625 L 60.472656 77.0625 Z M 59.84375 77.0625 "/>
<path style=" stroke:none;fill-rule:nonzero;fill:rgb(0%,0%,0%);fill-opacity:1;" d="M 84.324219 111.308594 L 84.980469 111.476562 C 84.839844 112.019531 84.59375 112.429688 84.234375 112.710938 C 83.878906 112.992188 83.441406 113.132812 82.925781 113.136719 C 82.390625 113.132812 81.957031 113.027344 81.621094 112.8125 C 81.285156 112.59375 81.027344 112.277344 80.851562 111.863281 C 80.675781 111.449219 80.589844 111.003906 80.59375 110.53125 C 80.589844 110.015625 80.691406 109.5625 80.886719 109.175781 C 81.082031 108.789062 81.363281 108.496094 81.730469 108.296875 C 82.09375 108.097656 82.496094 108 82.9375 107.996094 C 83.433594 108 83.847656 108.125 84.1875 108.375 C 84.527344 108.628906 84.761719 108.984375 84.894531 109.445312 L 84.25 109.597656 C 84.128906 109.238281 83.960938 108.976562 83.746094 108.808594 C 83.523438 108.644531 83.25 108.558594 82.921875 108.558594 C 82.539062 108.558594 82.21875 108.652344 81.964844 108.835938 C 81.707031 109.019531 81.527344 109.265625 81.425781 109.570312 C 81.320312 109.882812 81.269531 110.199219 81.269531 110.527344 C 81.269531 110.949219 81.328125 111.320312 81.453125 111.632812 C 81.574219 111.953125 81.765625 112.1875 82.027344 112.34375 C 82.285156 112.5 82.566406 112.578125 82.871094 112.574219 C 83.238281 112.578125 83.550781 112.472656 83.804688 112.257812 C 84.058594 112.046875 84.230469 111.730469 84.324219 111.308594 Z M 84.324219 111.308594 "/>
<path style=" stroke:none;fill-rule:nonzero;fill:rgb(0%,0%,0%);fill-opacity:1;" d="M 32.035156 57.433594 L 32.695312 57.601562 C 32.554688 58.144531 32.308594 58.554688 31.949219 58.835938 C 31.589844 59.117188 31.152344 59.257812 30.636719 59.261719 C 30.101562 59.257812 29.667969 59.152344 29.332031 58.9375 C 28.996094 58.71875 28.738281 58.402344 28.566406 57.988281 C 28.390625 57.574219 28.304688 57.128906 28.304688 56.652344 C 28.304688 56.136719 28.402344 55.6875 28.601562 55.300781 C 28.796875 54.914062 29.074219 54.621094 29.441406 54.421875 C 29.804688 54.222656 30.210938 54.121094 30.648438 54.121094 C 31.144531 54.121094 31.5625 54.25 31.902344 54.5 C 32.238281 54.753906 32.476562 55.109375 32.609375 55.570312 L 31.960938 55.722656 C 31.84375 55.363281 31.675781 55.097656 31.457031 54.929688 C 31.238281 54.769531 30.964844 54.683594 30.636719 54.683594 C 30.25 54.683594 29.929688 54.777344 29.675781 54.957031 C 29.417969 55.144531 29.238281 55.390625 29.136719 55.695312 C 29.035156 56.003906 28.984375 56.324219 28.984375 56.652344 C 28.984375 57.074219 29.042969 57.445312 29.167969 57.757812 C 29.285156 58.074219 29.476562 58.3125 29.738281 58.464844 C 30 58.625 30.28125 58.703125 30.582031 58.699219 C 30.953125 58.703125 31.265625 58.597656 31.519531 58.382812 C 31.773438 58.171875 31.945312 57.851562 32.035156 57.433594 Z M 32.035156 57.433594 "/>
<path style=" stroke:none;fill-rule:nonzero;fill:rgb(0%,0%,0%);fill-opacity:1;" d="M 52.65625 21.234375 L 53.316406 21.402344 C 53.175781 21.945312 52.929688 22.355469 52.570312 22.636719 C 52.214844 22.917969 51.773438 23.058594 51.261719 23.0625 C 50.722656 23.058594 50.289062 22.953125 49.953125 22.738281 C 49.617188 22.519531 49.359375 22.203125 49.1875 21.789062 C 49.011719 21.375 48.925781 20.929688 48.925781 20.457031 C 48.925781 19.941406 49.023438 19.488281 49.222656 19.101562 C 49.417969 18.714844 49.695312 18.421875 50.066406 18.222656 C 50.429688 18.023438 50.832031 17.925781 51.269531 17.921875 C 51.765625 17.925781 52.183594 18.050781 52.523438 18.300781 C 52.863281 18.554688 53.097656 18.910156 53.230469 19.371094 L 52.585938 19.523438 C 52.464844 19.164062 52.296875 18.902344 52.082031 18.734375 C 51.859375 18.570312 51.585938 18.484375 51.257812 18.484375 C 50.871094 18.484375 50.554688 18.578125 50.296875 18.761719 C 50.042969 18.945312 49.863281 19.191406 49.757812 19.496094 C 49.65625 19.808594 49.605469 20.125 49.605469 20.453125 C 49.605469 20.875 49.664062 21.246094 49.789062 21.558594 C 49.910156 21.878906 50.101562 22.113281 50.359375 22.269531 C 50.621094 22.425781 50.902344 22.503906 51.207031 22.5 C 51.574219 22.503906 51.886719 22.398438 52.140625 22.183594 C 52.394531 21.972656 52.566406 21.65625 52.65625 21.234375 Z M 52.65625 21.234375 "/>
<path style="fill:none;stroke-width:0.0333333;stroke-linecap:butt;stroke-linejoin:miter;stroke:rgb(0%,0%,0%);stroke-opacity:1;stroke-miterlimit:10;" d="M 1.876637 2.414431 L 1.473179 1.723846 " transform="matrix(20.806452,0,0,20.838323,20.551499,20.492001)"/>
<path style="fill:none;stroke-width:0.0333333;stroke-linecap:butt;stroke-linejoin:miter;stroke:rgb(0%,0%,0%);stroke-opacity:1;stroke-miterlimit:10;" d="M 1.534571 3.380387 L 0.644672 3.384886 " transform="matrix(20.806452,0,0,20.838323,20.551499,20.492001)"/>
<path style="fill:none;stroke-width:0.0333333;stroke-linecap:butt;stroke-linejoin:miter;stroke:rgb(0%,0%,0%);stroke-opacity:1;stroke-miterlimit:10;" d="M 1.535322 3.547034 L 0.645423 3.551721 " transform="matrix(20.806452,0,0,20.838323,20.551499,20.492001)"/>
<path style="fill:none;stroke-width:0.0333333;stroke-linecap:butt;stroke-linejoin:miter;stroke:rgb(0%,0%,0%);stroke-opacity:1;stroke-miterlimit:10;" d="M 1.482003 3.472427 L 1.878702 2.777344 " transform="matrix(20.806452,0,0,20.838323,20.551499,20.492001)"/>
<path style="fill:none;stroke-width:0.0333333;stroke-linecap:butt;stroke-linejoin:miter;stroke:rgb(0%,0%,0%);stroke-opacity:1;stroke-miterlimit:10;" d="M 1.513919 6.928162 L 0.494854 6.933223 " transform="matrix(20.806452,0,0,20.838323,20.551499,20.492001)"/>
<path style="fill:none;stroke-width:0.0333333;stroke-linecap:butt;stroke-linejoin:miter;stroke:rgb(0%,0%,0%);stroke-opacity:1;stroke-miterlimit:10;" d="M 1.416856 6.761889 L 0.590039 6.766013 " transform="matrix(20.806452,0,0,20.838323,20.551499,20.492001)"/>
<path style="fill:none;stroke-width:0.0333333;stroke-linecap:butt;stroke-linejoin:miter;stroke:rgb(0%,0%,0%);stroke-opacity:1;stroke-miterlimit:10;" d="M 0.50931 6.941471 L -0.00472806 6.06137 " transform="matrix(20.806452,0,0,20.838323,20.551499,20.492001)"/>
<path style="fill:none;stroke-width:0.0333333;stroke-linecap:butt;stroke-linejoin:miter;stroke:rgb(0%,0%,0%);stroke-opacity:1;stroke-miterlimit:10;" d="M -0.00472806 6.077866 L 0.500486 5.192703 " transform="matrix(20.806452,0,0,20.838323,20.551499,20.492001)"/>
<path style="fill:none;stroke-width:0.0333333;stroke-linecap:butt;stroke-linejoin:miter;stroke:rgb(0%,0%,0%);stroke-opacity:1;stroke-miterlimit:10;" d="M 0.187708 6.077116 L 0.597361 5.358975 " transform="matrix(20.806452,0,0,20.838323,20.551499,20.492001)"/>
<path style="fill:none;stroke-width:0.0333333;stroke-linecap:butt;stroke-linejoin:miter;stroke:rgb(0%,0%,0%);stroke-opacity:1;stroke-miterlimit:10;" d="M 0.48603 5.201326 L 1.505283 5.196077 " transform="matrix(20.806452,0,0,20.838323,20.551499,20.492001)"/>
<path style="fill:none;stroke-width:0.0333333;stroke-linecap:butt;stroke-linejoin:miter;stroke:rgb(0%,0%,0%);stroke-opacity:1;stroke-miterlimit:10;" d="M 1.49552 5.196077 L 2.004865 6.067743 " transform="matrix(20.806452,0,0,20.838323,20.551499,20.492001)"/>
<path style="fill:none;stroke-width:0.0333333;stroke-linecap:butt;stroke-linejoin:miter;stroke:rgb(0%,0%,0%);stroke-opacity:1;stroke-miterlimit:10;" d="M 1.400335 5.363287 L 1.812429 6.068868 " transform="matrix(20.806452,0,0,20.838323,20.551499,20.492001)"/>
<path style="fill:none;stroke-width:0.0333333;stroke-linecap:butt;stroke-linejoin:miter;stroke:rgb(0%,0%,0%);stroke-opacity:1;stroke-miterlimit:10;" d="M 2.004677 6.05106 L 1.499463 6.936597 " transform="matrix(20.806452,0,0,20.838323,20.551499,20.492001)"/>
<path style="fill:none;stroke-width:0.0333333;stroke-linecap:butt;stroke-linejoin:miter;stroke:rgb(0%,0%,0%);stroke-opacity:1;stroke-miterlimit:10;" d="M 1.490827 5.204325 L 1.996041 4.319162 " transform="matrix(20.806452,0,0,20.838323,20.551499,20.492001)"/>
<path style="fill:none;stroke-width:0.0333333;stroke-linecap:butt;stroke-linejoin:miter;stroke:rgb(0%,0%,0%);stroke-opacity:1;stroke-miterlimit:10;" d="M 2.062126 4.33697 L 2.061939 4.317475 M 2.133093 4.346343 L 2.132905 4.307352 M 2.203872 4.355716 L 2.203684 4.297417 M 2.274838 4.365088 L 2.274463 4.287107 M 2.345805 4.374274 L 2.345242 4.277172 M 2.416771 4.383646 L 2.416208 4.267049 M 2.48755 4.393019 L 2.486987 4.256927 M 2.558517 4.402392 L 2.557766 4.246804 M 2.629483 4.411765 L 2.628732 4.236869 M 2.70045 4.421138 L 2.699511 4.226747 M 2.771417 4.43051 L 2.77029 4.216624 M 2.842383 4.439883 L 2.841069 4.206501 " transform="matrix(20.806452,0,0,20.838323,20.551499,20.492001)"/>
<path style=" stroke:none;fill-rule:nonzero;fill:rgb(0%,0%,0%);fill-opacity:1;" d="M 51.304688 56.585938 L 33.59375 54.242188 L 33.617188 59.105469 "/>
<path style="fill:none;stroke-width:0.0333333;stroke-linecap:butt;stroke-linejoin:miter;stroke:rgb(0%,0%,0%);stroke-opacity:1;stroke-miterlimit:10;" d="M 1.473367 1.74053 L 1.978393 0.855179 " transform="matrix(20.806452,0,0,20.838323,20.551499,20.492001)"/>
<path style="fill:none;stroke-width:0.0333333;stroke-linecap:butt;stroke-linejoin:miter;stroke:rgb(0%,0%,0%);stroke-opacity:1;stroke-miterlimit:10;" d="M 1.978581 0.871863 L 1.579629 0.189151 " transform="matrix(20.806452,0,0,20.838323,20.551499,20.492001)"/>
<path style="fill:none;stroke-width:0.0333333;stroke-linecap:butt;stroke-linejoin:miter;stroke:rgb(0%,0%,0%);stroke-opacity:1;stroke-miterlimit:10;" d="M 1.482003 3.455744 L 1.996041 4.335845 " transform="matrix(20.806452,0,0,20.838323,20.551499,20.492001)"/>
</g>
</svg>
