<?xml version="1.0" encoding="UTF-8"?>
<svg xmlns="http://www.w3.org/2000/svg" xmlns:xlink="http://www.w3.org/1999/xlink" width="221.6pt" height="92.8pt" viewBox="0 0 221.6 92.8" version="1.1">
<g id="surface467">
<path style=" stroke:none;fill-rule:nonzero;fill:rgb(0%,0%,0%);fill-opacity:1;" d="M 198.957031 53.910156 L 198.957031 48.96875 L 199.632812 48.96875 L 202.242188 52.847656 L 202.242188 48.96875 L 202.875 48.96875 L 202.875 53.910156 L 202.199219 53.910156 L 199.589844 50.027344 L 199.589844 53.910156 Z M 198.957031 53.910156 "/>
<path style=" stroke:none;fill-rule:nonzero;fill:rgb(0%,0%,0%);fill-opacity:1;" d="M 72.699219 43.554688 L 72.699219 38.609375 L 73.375 38.609375 L 75.984375 42.492188 L 75.984375 38.609375 L 76.617188 38.609375 L 76.617188 43.554688 L 75.941406 43.554688 L 73.332031 39.671875 L 73.332031 43.554688 Z M 72.699219 43.554688 "/>
<path style=" stroke:none;fill-rule:nonzero;fill:rgb(0%,0%,0%);fill-opacity:1;" d="M 90.320312 72.21875 C 90.316406 71.402344 90.539062 70.761719 90.984375 70.292969 C 91.425781 69.832031 91.996094 69.601562 92.695312 69.597656 C 93.152344 69.601562 93.566406 69.707031 93.9375 69.925781 C 94.304688 70.144531 94.585938 70.449219 94.78125 70.835938 C 94.96875 71.230469 95.066406 71.671875 95.070312 72.164062 C 95.066406 72.667969 94.964844 73.113281 94.761719 73.507812 C 94.558594 73.90625 94.269531 74.203125 93.902344 74.40625 C 93.527344 74.609375 93.125 74.710938 92.695312 74.710938 C 92.226562 74.710938 91.808594 74.597656 91.4375 74.375 C 91.070312 74.152344 90.789062 73.84375 90.601562 73.453125 C 90.410156 73.066406 90.316406 72.65625 90.320312 72.21875 Z M 90.996094 72.230469 C 90.992188 72.828125 91.15625 73.296875 91.480469 73.636719 C 91.800781 73.984375 92.203125 74.15625 92.691406 74.152344 C 93.183594 74.15625 93.589844 73.984375 93.910156 73.636719 C 94.230469 73.289062 94.390625 72.796875 94.390625 72.160156 C 94.390625 71.757812 94.320312 71.40625 94.183594 71.105469 C 94.046875 70.804688 93.847656 70.574219 93.585938 70.410156 C 93.324219 70.246094 93.027344 70.160156 92.703125 70.160156 C 92.234375 70.160156 91.832031 70.320312 91.5 70.640625 C 91.160156 70.957031 90.992188 71.488281 90.996094 72.230469 Z M 90.996094 72.230469 "/>
<path style=" stroke:none;fill-rule:nonzero;fill:rgb(0%,0%,0%);fill-opacity:1;" d="M 36.207031 20.433594 C 36.203125 19.617188 36.425781 18.976562 36.871094 18.507812 C 37.3125 18.046875 37.882812 17.816406 38.585938 17.8125 C 39.039062 17.816406 39.453125 17.921875 39.828125 18.136719 C 40.191406 18.355469 40.472656 18.660156 40.667969 19.050781 C 40.855469 19.445312 40.953125 19.886719 40.957031 20.378906 C 40.953125 20.882812 40.851562 21.328125 40.652344 21.722656 C 40.445312 22.121094 40.15625 22.417969 39.789062 22.621094 C 39.414062 22.824219 39.011719 22.921875 38.582031 22.925781 C 38.113281 22.921875 37.695312 22.8125 37.324219 22.589844 C 36.957031 22.363281 36.679688 22.058594 36.492188 21.667969 C 36.296875 21.28125 36.203125 20.871094 36.207031 20.433594 Z M 36.882812 20.445312 C 36.882812 21.039062 37.042969 21.511719 37.367188 21.851562 C 37.6875 22.199219 38.089844 22.371094 38.578125 22.367188 C 39.074219 22.371094 39.480469 22.199219 39.800781 21.851562 C 40.121094 21.503906 40.277344 21.011719 40.277344 20.375 C 40.277344 19.972656 40.207031 19.621094 40.074219 19.320312 C 39.933594 19.019531 39.738281 18.789062 39.472656 18.625 C 39.210938 18.460938 38.914062 18.375 38.589844 18.375 C 38.121094 18.375 37.71875 18.535156 37.386719 18.851562 C 37.050781 19.171875 36.882812 19.703125 36.882812 20.445312 Z M 36.882812 20.445312 "/>
<path style=" stroke:none;fill-rule:nonzero;fill:rgb(0%,0%,0%);fill-opacity:1;" d="M 18.171875 51.503906 C 18.167969 50.6875 18.390625 50.046875 18.835938 49.578125 C 19.277344 49.117188 19.847656 48.886719 20.550781 48.882812 C 21.007812 48.886719 21.421875 48.992188 21.792969 49.210938 C 22.160156 49.429688 22.4375 49.734375 22.632812 50.121094 C 22.824219 50.515625 22.921875 50.957031 22.921875 51.449219 C 22.921875 51.953125 22.816406 52.402344 22.617188 52.792969 C 22.410156 53.191406 22.125 53.492188 21.753906 53.691406 C 21.378906 53.894531 20.980469 53.996094 20.546875 53.996094 C 20.078125 53.996094 19.660156 53.882812 19.292969 53.660156 C 18.921875 53.4375 18.644531 53.128906 18.457031 52.742188 C 18.265625 52.351562 18.167969 51.941406 18.171875 51.503906 Z M 18.851562 51.515625 C 18.847656 52.113281 19.011719 52.582031 19.332031 52.925781 C 19.652344 53.269531 20.058594 53.441406 20.546875 53.4375 C 21.039062 53.441406 21.445312 53.269531 21.765625 52.921875 C 22.085938 52.574219 22.246094 52.082031 22.246094 51.445312 C 22.246094 51.042969 22.175781 50.695312 22.039062 50.390625 C 21.902344 50.09375 21.703125 49.859375 21.441406 49.695312 C 21.175781 49.53125 20.882812 49.445312 20.554688 49.445312 C 20.085938 49.445312 19.683594 49.605469 19.351562 49.925781 C 19.015625 50.242188 18.847656 50.773438 18.851562 51.515625 Z M 18.851562 51.515625 "/>
<path style=" stroke:none;fill-rule:nonzero;fill:rgb(0%,0%,0%);fill-opacity:1;" d="M 108.773438 22.839844 L 108.773438 17.894531 L 109.449219 17.894531 L 112.058594 21.777344 L 112.058594 17.894531 L 112.6875 17.894531 L 112.6875 22.839844 L 112.011719 22.839844 L 109.40625 18.957031 L 109.40625 22.839844 Z M 108.773438 22.839844 "/>
<path style="fill:none;stroke-width:0.0333333;stroke-linecap:butt;stroke-linejoin:miter;stroke:rgb(0%,0%,0%);stroke-opacity:1;stroke-miterlimit:10;" d="M 3.455743 1.504756 L 4.338384 0.995219 " transform="matrix(20.827068,0,0,20.714286,20.546535,20.369126)"/>
<path style="fill:none;stroke-width:0.0333333;stroke-linecap:butt;stroke-linejoin:miter;stroke:rgb(0%,0%,0%);stroke-opacity:1;stroke-miterlimit:10;" d="M 0.857524 0.995219 L 1.740352 1.504756 " transform="matrix(20.827068,0,0,20.714286,20.546535,20.369126)"/>
<path style="fill:none;stroke-width:0.0333333;stroke-linecap:butt;stroke-linejoin:miter;stroke:rgb(0%,0%,0%);stroke-opacity:1;stroke-miterlimit:10;" d="M 3.472436 1.504756 L 2.771537 1.100068 " transform="matrix(20.827068,0,0,20.714286,20.546535,20.369126)"/>
<path style="fill:none;stroke-width:0.0333333;stroke-linecap:butt;stroke-linejoin:miter;stroke:rgb(0%,0%,0%);stroke-opacity:1;stroke-miterlimit:10;" d="M 3.380721 1.451765 L 3.380721 2.333177 " transform="matrix(20.827068,0,0,20.714286,20.546535,20.369126)"/>
<path style="fill:none;stroke-width:0.0333333;stroke-linecap:butt;stroke-linejoin:miter;stroke:rgb(0%,0%,0%);stroke-opacity:1;stroke-miterlimit:10;" d="M 3.547458 1.451765 L 3.547458 2.333177 " transform="matrix(20.827068,0,0,20.714286,20.546535,20.369126)"/>
<path style="fill:none;stroke-width:0.0333333;stroke-linecap:butt;stroke-linejoin:miter;stroke:rgb(0%,0%,0%);stroke-opacity:1;stroke-miterlimit:10;" d="M 2.424746 1.100068 L 1.72366 1.504756 " transform="matrix(20.827068,0,0,20.714286,20.546535,20.369126)"/>
<path style="fill:none;stroke-width:0.0333333;stroke-linecap:butt;stroke-linejoin:miter;stroke:rgb(0%,0%,0%);stroke-opacity:1;stroke-miterlimit:10;" d="M 0.865964 1.009551 L 0.865964 0.166798 " transform="matrix(20.827068,0,0,20.714286,20.546535,20.369126)"/>
<path style="fill:none;stroke-width:0.0333333;stroke-linecap:butt;stroke-linejoin:miter;stroke:rgb(0%,0%,0%);stroke-opacity:1;stroke-miterlimit:10;" d="M 0.865964 0.903759 L 0.148561 1.317875 " transform="matrix(20.827068,0,0,20.714286,20.546535,20.369126)"/>
<path style="fill:none;stroke-width:0.0333333;stroke-linecap:butt;stroke-linejoin:miter;stroke:rgb(0%,0%,0%);stroke-opacity:1;stroke-miterlimit:10;" d="M 0.949239 1.048209 L 0.232024 1.462326 " transform="matrix(20.827068,0,0,20.714286,20.546535,20.369126)"/>
<path style="fill:none;stroke-width:0.0333333;stroke-linecap:butt;stroke-linejoin:miter;stroke:rgb(0%,0%,0%);stroke-opacity:1;stroke-miterlimit:10;" d="M 5.204519 1.504756 L 4.321879 0.995219 " transform="matrix(20.827068,0,0,20.714286,20.546535,20.369126)"/>
<path style="fill:none;stroke-width:0.0333333;stroke-linecap:butt;stroke-linejoin:miter;stroke:rgb(0%,0%,0%);stroke-opacity:1;stroke-miterlimit:10;" d="M 6.070467 0.995219 L 5.187827 1.504756 " transform="matrix(20.827068,0,0,20.714286,20.546535,20.369126)"/>
<path style="fill:none;stroke-width:0.0333333;stroke-linecap:butt;stroke-linejoin:miter;stroke:rgb(0%,0%,0%);stroke-opacity:1;stroke-miterlimit:10;" d="M 6.936603 1.504756 L 6.053775 0.995219 " transform="matrix(20.827068,0,0,20.714286,20.546535,20.369126)"/>
<path style="fill:none;stroke-width:0.0333333;stroke-linecap:butt;stroke-linejoin:miter;stroke:rgb(0%,0%,0%);stroke-opacity:1;stroke-miterlimit:10;" d="M 7.80255 0.995219 L 6.91991 1.504756 " transform="matrix(20.827068,0,0,20.714286,20.546535,20.369126)"/>
<path style=" stroke:none;fill-rule:nonzero;fill:rgb(0%,0%,0%);fill-opacity:1;" d="M 110.730469 41.082031 L 113.160156 23.738281 L 108.300781 23.738281 "/>
<path style="fill:none;stroke-width:0.0333333;stroke-linecap:butt;stroke-linejoin:miter;stroke:rgb(0%,0%,0%);stroke-opacity:1;stroke-miterlimit:10;" d="M 8.486944 1.399906 L 7.785858 0.995219 " transform="matrix(20.827068,0,0,20.714286,20.546535,20.369126)"/>
</g>
</svg>
