<?xml version="1.0" encoding="UTF-8"?>
<svg xmlns="http://www.w3.org/2000/svg" xmlns:xlink="http://www.w3.org/1999/xlink" width="76.8pt" height="72.8pt" viewBox="0 0 76.8 72.8" version="1.1">
<g id="surface367">
<path style=" stroke:none;fill-rule:nonzero;fill:rgb(0%,0%,0%);fill-opacity:1;" d="M 21.917969 52.84375 L 22.574219 53.011719 C 22.433594 53.554688 22.1875 53.964844 21.832031 54.246094 C 21.476562 54.527344 21.039062 54.667969 20.523438 54.671875 C 19.992188 54.667969 19.558594 54.5625 19.226562 54.347656 C 18.890625 54.128906 18.632812 53.8125 18.460938 53.394531 C 18.285156 52.984375 18.199219 52.539062 18.203125 52.0625 C 18.199219 51.546875 18.300781 51.097656 18.496094 50.710938 C 18.691406 50.324219 18.96875 50.03125 19.335938 49.832031 C 19.695312 49.632812 20.097656 49.53125 20.535156 49.53125 C 21.03125 49.53125 21.445312 49.660156 21.78125 49.910156 C 22.121094 50.164062 22.355469 50.519531 22.488281 50.980469 L 21.84375 51.128906 C 21.726562 50.773438 21.558594 50.507812 21.34375 50.339844 C 21.121094 50.179688 20.847656 50.09375 20.523438 50.09375 C 20.140625 50.09375 19.820312 50.1875 19.566406 50.367188 C 19.3125 50.550781 19.132812 50.800781 19.03125 51.105469 C 18.929688 51.414062 18.875 51.734375 18.875 52.0625 C 18.875 52.484375 18.9375 52.855469 19.058594 53.167969 C 19.179688 53.484375 19.371094 53.722656 19.628906 53.875 C 19.886719 54.035156 20.167969 54.113281 20.472656 54.109375 C 20.839844 54.113281 21.148438 54.007812 21.402344 53.792969 C 21.65625 53.582031 21.824219 53.261719 21.917969 52.84375 Z M 21.917969 52.84375 "/>
<path style=" stroke:none;fill-rule:nonzero;fill:rgb(0%,0%,0%);fill-opacity:1;" d="M 35.96875 20.90625 C 35.964844 20.082031 36.1875 19.4375 36.628906 18.96875 C 37.066406 18.503906 37.636719 18.269531 38.332031 18.265625 C 38.785156 18.269531 39.199219 18.378906 39.570312 18.59375 C 39.933594 18.816406 40.210938 19.121094 40.40625 19.511719 C 40.59375 19.910156 40.691406 20.355469 40.695312 20.847656 C 40.691406 21.355469 40.589844 21.804688 40.390625 22.203125 C 40.183594 22.601562 39.898438 22.902344 39.53125 23.105469 C 39.160156 23.308594 38.761719 23.410156 38.332031 23.410156 C 37.863281 23.410156 37.449219 23.296875 37.082031 23.074219 C 36.714844 22.847656 36.4375 22.539062 36.25 22.148438 C 36.058594 21.757812 35.964844 21.34375 35.96875 20.90625 Z M 36.640625 20.914062 C 36.640625 21.515625 36.800781 21.988281 37.121094 22.332031 C 37.441406 22.679688 37.84375 22.851562 38.328125 22.851562 C 38.820312 22.851562 39.222656 22.679688 39.542969 22.328125 C 39.859375 21.980469 40.019531 21.484375 40.019531 20.84375 C 40.019531 20.441406 39.949219 20.089844 39.816406 19.785156 C 39.675781 19.484375 39.480469 19.25 39.21875 19.085938 C 38.957031 18.917969 38.664062 18.835938 38.339844 18.835938 C 37.871094 18.835938 37.472656 18.996094 37.140625 19.316406 C 36.808594 19.636719 36.640625 20.167969 36.640625 20.914062 Z M 36.640625 20.914062 "/>
<path style=" stroke:none;fill-rule:nonzero;fill:rgb(0%,0%,0%);fill-opacity:1;" d="M 57.144531 52.84375 L 57.796875 53.011719 C 57.660156 53.554688 57.414062 53.964844 57.058594 54.246094 C 56.699219 54.527344 56.261719 54.667969 55.75 54.671875 C 55.214844 54.667969 54.785156 54.5625 54.449219 54.347656 C 54.117188 54.128906 53.859375 53.8125 53.6875 53.394531 C 53.511719 52.984375 53.425781 52.539062 53.429688 52.0625 C 53.425781 51.546875 53.523438 51.097656 53.722656 50.710938 C 53.917969 50.324219 54.195312 50.03125 54.5625 49.832031 C 54.921875 49.632812 55.324219 49.53125 55.761719 49.53125 C 56.253906 49.53125 56.671875 49.660156 57.007812 49.910156 C 57.34375 50.164062 57.578125 50.519531 57.710938 50.980469 L 57.070312 51.128906 C 56.953125 50.773438 56.785156 50.507812 56.566406 50.339844 C 56.347656 50.179688 56.074219 50.09375 55.75 50.09375 C 55.363281 50.09375 55.046875 50.1875 54.792969 50.367188 C 54.535156 50.550781 54.359375 50.800781 54.257812 51.105469 C 54.152344 51.414062 54.101562 51.734375 54.101562 52.0625 C 54.101562 52.484375 54.160156 52.855469 54.285156 53.167969 C 54.40625 53.484375 54.597656 53.722656 54.855469 53.875 C 55.113281 54.035156 55.394531 54.113281 55.695312 54.109375 C 56.0625 54.113281 56.375 54.007812 56.628906 53.792969 C 56.882812 53.582031 57.050781 53.261719 57.144531 52.84375 Z M 57.144531 52.84375 "/>
<path style=" stroke:none;fill-rule:nonzero;fill:rgb(0%,0%,0%);fill-opacity:1;" d="M 58.511719 54.585938 L 58.511719 49.613281 L 59.121094 49.613281 L 59.121094 54.585938 Z M 58.511719 54.585938 "/>
<path style="fill:none;stroke-width:0.0333333;stroke-linecap:butt;stroke-linejoin:miter;stroke:rgb(0%,0%,0%);stroke-opacity:1;stroke-miterlimit:10;" d="M 0.183768 1.393847 L 0.874356 0.995156 " transform="matrix(20.719424,0,0,20.839695,20.387747,20.839381)"/>
<path style="fill:none;stroke-width:0.0333333;stroke-linecap:butt;stroke-linejoin:miter;stroke:rgb(0%,0%,0%);stroke-opacity:1;stroke-miterlimit:10;" d="M 0.949392 1.048202 L 0.949392 0.166846 " transform="matrix(20.719424,0,0,20.839695,20.387747,20.839381)"/>
<path style="fill:none;stroke-width:0.0333333;stroke-linecap:butt;stroke-linejoin:miter;stroke:rgb(0%,0%,0%);stroke-opacity:1;stroke-miterlimit:10;" d="M 0.78273 1.048202 L 0.78273 0.166846 " transform="matrix(20.719424,0,0,20.839695,20.387747,20.839381)"/>
<path style="fill:none;stroke-width:0.0333333;stroke-linecap:butt;stroke-linejoin:miter;stroke:rgb(0%,0%,0%);stroke-opacity:1;stroke-miterlimit:10;" d="M 0.857766 0.995156 L 1.524411 1.380163 " transform="matrix(20.719424,0,0,20.839695,20.387747,20.839381)"/>
</g>
</svg>
