<?xml version="1.0" encoding="UTF-8"?>
<svg xmlns="http://www.w3.org/2000/svg" xmlns:xlink="http://www.w3.org/1999/xlink" width="257.6pt" height="72.8pt" viewBox="0 0 257.6 72.8" version="1.1">
<g id="surface1177">
<path style=" stroke:none;fill-rule:nonzero;fill:rgb(0%,0%,0%);fill-opacity:1;" d="M 17.121094 54.652344 L 17.121094 49.679688 L 19.324219 49.679688 C 19.765625 49.679688 20.101562 49.726562 20.332031 49.816406 C 20.5625 49.902344 20.75 50.0625 20.886719 50.285156 C 21.023438 50.515625 21.089844 50.765625 21.09375 51.035156 C 21.089844 51.390625 20.976562 51.691406 20.75 51.929688 C 20.519531 52.171875 20.167969 52.324219 19.695312 52.390625 C 19.863281 52.472656 19.996094 52.558594 20.089844 52.636719 C 20.28125 52.816406 20.464844 53.035156 20.636719 53.296875 L 21.5 54.652344 L 20.671875 54.652344 L 20.015625 53.617188 C 19.824219 53.320312 19.664062 53.09375 19.542969 52.933594 C 19.414062 52.777344 19.304688 52.667969 19.207031 52.601562 C 19.105469 52.539062 19.003906 52.496094 18.90625 52.46875 C 18.832031 52.453125 18.710938 52.445312 18.542969 52.445312 L 17.78125 52.445312 L 17.78125 54.652344 Z M 17.78125 51.875 L 19.191406 51.875 C 19.492188 51.875 19.726562 51.847656 19.898438 51.78125 C 20.066406 51.722656 20.191406 51.621094 20.28125 51.484375 C 20.367188 51.347656 20.414062 51.199219 20.414062 51.035156 C 20.414062 50.800781 20.328125 50.609375 20.160156 50.457031 C 19.988281 50.308594 19.71875 50.230469 19.351562 50.230469 L 17.78125 50.230469 Z M 17.78125 51.875 "/>
<path style=" stroke:none;fill-rule:nonzero;fill:rgb(0%,0%,0%);fill-opacity:1;" d="M 24.175781 54.652344 L 23.5625 54.652344 L 23.5625 50.761719 C 23.417969 50.902344 23.226562 51.042969 22.988281 51.183594 C 22.75 51.324219 22.535156 51.433594 22.34375 51.496094 L 22.34375 50.90625 C 22.6875 50.746094 22.984375 50.554688 23.238281 50.324219 C 23.492188 50.097656 23.671875 49.875 23.78125 49.660156 L 24.175781 49.660156 Z M 24.175781 54.652344 "/>
<path style=" stroke:none;fill-rule:nonzero;fill:rgb(0%,0%,0%);fill-opacity:1;" d="M 36.257812 20.847656 C 36.253906 20.027344 36.476562 19.378906 36.921875 18.910156 C 37.363281 18.445312 37.933594 18.214844 38.632812 18.210938 C 39.089844 18.214844 39.503906 18.320312 39.875 18.539062 C 40.242188 18.757812 40.519531 19.066406 40.714844 19.457031 C 40.90625 19.851562 41.003906 20.296875 41.007812 20.789062 C 41.003906 21.296875 40.902344 21.75 40.699219 22.144531 C 40.492188 22.542969 40.207031 22.84375 39.839844 23.046875 C 39.464844 23.253906 39.0625 23.351562 38.632812 23.355469 C 38.164062 23.351562 37.746094 23.242188 37.375 23.015625 C 37.007812 22.789062 36.730469 22.480469 36.542969 22.089844 C 36.347656 21.699219 36.253906 21.289062 36.257812 20.847656 Z M 36.933594 20.859375 C 36.933594 21.457031 37.09375 21.929688 37.417969 22.273438 C 37.738281 22.621094 38.140625 22.796875 38.628906 22.792969 C 39.121094 22.796875 39.527344 22.621094 39.847656 22.273438 C 40.167969 21.925781 40.328125 21.429688 40.328125 20.789062 C 40.328125 20.382812 40.257812 20.03125 40.121094 19.726562 C 39.984375 19.425781 39.785156 19.191406 39.523438 19.027344 C 39.261719 18.863281 38.964844 18.777344 38.640625 18.777344 C 38.171875 18.777344 37.769531 18.9375 37.4375 19.257812 C 37.101562 19.578125 36.933594 20.113281 36.933594 20.859375 Z M 36.933594 20.859375 "/>
<path style=" stroke:none;fill-rule:nonzero;fill:rgb(0%,0%,0%);fill-opacity:1;" d="M 54.242188 52.117188 C 54.238281 51.292969 54.460938 50.648438 54.90625 50.179688 C 55.347656 49.714844 55.914062 49.480469 56.617188 49.476562 C 57.074219 49.480469 57.488281 49.589844 57.859375 49.804688 C 58.226562 50.027344 58.503906 50.332031 58.699219 50.722656 C 58.890625 51.121094 58.988281 51.566406 58.988281 52.058594 C 58.988281 52.566406 58.882812 53.015625 58.683594 53.414062 C 58.476562 53.8125 58.191406 54.113281 57.820312 54.316406 C 57.449219 54.519531 57.046875 54.621094 56.613281 54.621094 C 56.144531 54.621094 55.730469 54.507812 55.359375 54.285156 C 54.992188 54.058594 54.710938 53.75 54.523438 53.359375 C 54.332031 52.96875 54.238281 52.554688 54.242188 52.117188 Z M 54.917969 52.125 C 54.914062 52.726562 55.078125 53.199219 55.402344 53.542969 C 55.71875 53.890625 56.125 54.0625 56.613281 54.0625 C 57.105469 54.0625 57.511719 53.890625 57.832031 53.539062 C 58.152344 53.191406 58.3125 52.695312 58.3125 52.054688 C 58.3125 51.652344 58.242188 51.296875 58.105469 50.996094 C 57.96875 50.695312 57.769531 50.460938 57.507812 50.292969 C 57.242188 50.128906 56.949219 50.046875 56.625 50.046875 C 56.152344 50.046875 55.753906 50.207031 55.417969 50.527344 C 55.082031 50.84375 54.914062 51.378906 54.917969 52.125 Z M 54.917969 52.125 "/>
<path style="fill:none;stroke-width:0.0333333;stroke-linecap:butt;stroke-linejoin:miter;stroke:rgb(0%,0%,0%);stroke-opacity:1;stroke-miterlimit:10;" d="M 0.229558 1.371276 L 0.872188 0.995266 " transform="matrix(20.818966,0,0,20.839695,20.646627,20.782398)"/>
<path style="fill:none;stroke-width:0.0333333;stroke-linecap:butt;stroke-linejoin:miter;stroke:rgb(0%,0%,0%);stroke-opacity:1;stroke-miterlimit:10;" d="M 0.94724 1.0485 L 0.94724 0.166769 " transform="matrix(20.818966,0,0,20.839695,20.646627,20.782398)"/>
<path style="fill:none;stroke-width:0.0333333;stroke-linecap:butt;stroke-linejoin:miter;stroke:rgb(0%,0%,0%);stroke-opacity:1;stroke-miterlimit:10;" d="M 0.780625 1.049062 L 0.780625 0.166769 " transform="matrix(20.818966,0,0,20.839695,20.646627,20.782398)"/>
<path style="fill:none;stroke-width:0.0333333;stroke-linecap:butt;stroke-linejoin:miter;stroke:rgb(0%,0%,0%);stroke-opacity:1;stroke-miterlimit:10;" d="M 0.855489 0.995453 L 1.537522 1.390208 " transform="matrix(20.818966,0,0,20.839695,20.646627,20.782398)"/>
<path style="fill:none;stroke-width:0.0625;stroke-linecap:butt;stroke-linejoin:miter;stroke:rgb(0%,0%,0%);stroke-opacity:1;stroke-miterlimit:10;" d="M -0.0000978853 -0.000034274 L 0.499934 -0.000034274 M 0.250012 -0.250083 L 0.250012 0.250014 " transform="matrix(20.818966,0,0,20.839695,73.271569,36.469464)"/>
<path style=" stroke:none;fill-rule:nonzero;fill:rgb(0%,0%,0%);fill-opacity:1;" d="M 98.378906 44.21875 L 98.378906 39.246094 L 99.054688 39.246094 L 101.664062 43.148438 L 101.664062 39.246094 L 102.292969 39.246094 L 102.292969 44.21875 L 101.621094 44.21875 L 99.011719 40.3125 L 99.011719 44.21875 Z M 98.378906 44.21875 "/>
<path style=" stroke:none;fill-rule:nonzero;fill:rgb(0%,0%,0%);fill-opacity:1;" d="M 114.339844 33.703125 L 114.339844 28.726562 L 116.546875 28.726562 C 116.988281 28.726562 117.324219 28.773438 117.554688 28.863281 C 117.785156 28.953125 117.96875 29.109375 118.105469 29.335938 C 118.242188 29.5625 118.308594 29.8125 118.3125 30.085938 C 118.308594 30.441406 118.195312 30.738281 117.972656 30.976562 C 117.742188 31.222656 117.386719 31.375 116.914062 31.4375 C 117.085938 31.523438 117.21875 31.605469 117.308594 31.6875 C 117.503906 31.863281 117.683594 32.085938 117.859375 32.347656 L 118.71875 33.703125 L 117.894531 33.703125 L 117.238281 32.667969 C 117.042969 32.371094 116.882812 32.140625 116.761719 31.984375 C 116.636719 31.828125 116.523438 31.714844 116.425781 31.648438 C 116.324219 31.585938 116.226562 31.542969 116.128906 31.515625 C 116.050781 31.503906 115.929688 31.496094 115.761719 31.492188 L 115 31.492188 L 115 33.703125 Z M 115 30.921875 L 116.414062 30.921875 C 116.710938 30.925781 116.945312 30.894531 117.117188 30.832031 C 117.285156 30.769531 117.414062 30.671875 117.503906 30.53125 C 117.589844 30.398438 117.636719 30.246094 117.636719 30.085938 C 117.636719 29.851562 117.546875 29.660156 117.378906 29.507812 C 117.207031 29.355469 116.9375 29.28125 116.574219 29.277344 L 115 29.277344 Z M 115 30.921875 "/>
<path style=" stroke:none;fill-rule:nonzero;fill:rgb(0%,0%,0%);fill-opacity:1;" d="M 122.300781 33.117188 L 122.300781 33.703125 L 119.019531 33.703125 C 119.015625 33.554688 119.035156 33.414062 119.089844 33.277344 C 119.171875 33.054688 119.308594 32.835938 119.492188 32.617188 C 119.675781 32.402344 119.941406 32.148438 120.289062 31.863281 C 120.828125 31.417969 121.191406 31.070312 121.382812 30.808594 C 121.570312 30.550781 121.664062 30.308594 121.667969 30.078125 C 121.664062 29.835938 121.578125 29.632812 121.40625 29.464844 C 121.234375 29.300781 121.007812 29.214844 120.734375 29.214844 C 120.4375 29.214844 120.203125 29.304688 120.027344 29.480469 C 119.851562 29.660156 119.761719 29.902344 119.761719 30.210938 L 119.132812 30.148438 C 119.175781 29.679688 119.335938 29.320312 119.617188 29.078125 C 119.894531 28.832031 120.273438 28.710938 120.746094 28.707031 C 121.222656 28.710938 121.597656 28.84375 121.878906 29.105469 C 122.152344 29.371094 122.292969 29.699219 122.292969 30.089844 C 122.292969 30.289062 122.25 30.484375 122.171875 30.675781 C 122.089844 30.871094 121.957031 31.074219 121.769531 31.285156 C 121.578125 31.496094 121.265625 31.789062 120.828125 32.15625 C 120.460938 32.46875 120.226562 32.675781 120.125 32.785156 C 120.015625 32.894531 119.933594 33.003906 119.867188 33.117188 Z M 122.300781 33.117188 "/>
<path style="fill:none;stroke-width:0.0333333;stroke-linecap:butt;stroke-linejoin:miter;stroke:rgb(0%,0%,0%);stroke-opacity:1;stroke-miterlimit:10;" d="M 0.173168 0.403846 L 0.618038 0.143675 " transform="matrix(20.818966,0,0,20.839695,100.336223,31.205066)"/>
<path style=" stroke:none;fill-rule:nonzero;fill:rgb(0%,0%,0%);fill-opacity:1;" d="M 134.976562 37.121094 L 161 37.121094 L 161 39.074219 L 166.203125 36.46875 L 161 33.863281 L 161 35.816406 L 134.976562 35.816406 "/>
<path style=" stroke:none;fill-rule:nonzero;fill:rgb(0%,0%,0%);fill-opacity:1;" d="M 179.335938 54.652344 L 179.335938 49.679688 L 181.539062 49.679688 C 181.980469 49.679688 182.316406 49.726562 182.546875 49.816406 C 182.777344 49.902344 182.964844 50.0625 183.101562 50.285156 C 183.238281 50.515625 183.304688 50.765625 183.308594 51.035156 C 183.304688 51.390625 183.191406 51.691406 182.964844 51.929688 C 182.734375 52.171875 182.382812 52.324219 181.910156 52.390625 C 182.078125 52.472656 182.210938 52.558594 182.304688 52.636719 C 182.496094 52.816406 182.679688 53.035156 182.851562 53.296875 L 183.714844 54.652344 L 182.886719 54.652344 L 182.230469 53.617188 C 182.039062 53.320312 181.878906 53.09375 181.757812 52.933594 C 181.628906 52.777344 181.519531 52.667969 181.421875 52.601562 C 181.320312 52.539062 181.21875 52.496094 181.121094 52.46875 C 181.046875 52.453125 180.925781 52.445312 180.757812 52.445312 L 179.996094 52.445312 L 179.996094 54.652344 Z M 179.996094 51.875 L 181.40625 51.875 C 181.707031 51.875 181.941406 51.847656 182.113281 51.78125 C 182.28125 51.722656 182.40625 51.621094 182.496094 51.484375 C 182.582031 51.347656 182.628906 51.199219 182.628906 51.035156 C 182.628906 50.800781 182.542969 50.609375 182.375 50.457031 C 182.203125 50.308594 181.933594 50.230469 181.566406 50.230469 L 179.996094 50.230469 Z M 179.996094 51.875 "/>
<path style=" stroke:none;fill-rule:nonzero;fill:rgb(0%,0%,0%);fill-opacity:1;" d="M 186.390625 54.652344 L 185.777344 54.652344 L 185.777344 50.761719 C 185.632812 50.902344 185.441406 51.042969 185.203125 51.183594 C 184.960938 51.324219 184.75 51.433594 184.558594 51.496094 L 184.558594 50.90625 C 184.902344 50.746094 185.199219 50.554688 185.453125 50.324219 C 185.707031 50.097656 185.886719 49.875 185.996094 49.660156 L 186.390625 49.660156 Z M 186.390625 54.652344 "/>
<path style=" stroke:none;fill-rule:nonzero;fill:rgb(0%,0%,0%);fill-opacity:1;" d="M 198.46875 20.847656 C 198.464844 20.027344 198.6875 19.378906 199.132812 18.910156 C 199.574219 18.445312 200.144531 18.214844 200.847656 18.210938 C 201.300781 18.214844 201.714844 18.320312 202.085938 18.539062 C 202.453125 18.757812 202.734375 19.066406 202.929688 19.457031 C 203.117188 19.851562 203.214844 20.296875 203.21875 20.789062 C 203.214844 21.296875 203.113281 21.75 202.910156 22.144531 C 202.707031 22.542969 202.417969 22.84375 202.050781 23.046875 C 201.675781 23.253906 201.273438 23.351562 200.84375 23.355469 C 200.375 23.351562 199.957031 23.242188 199.589844 23.015625 C 199.21875 22.789062 198.941406 22.480469 198.753906 22.089844 C 198.5625 21.699219 198.464844 21.289062 198.46875 20.847656 Z M 199.144531 20.859375 C 199.144531 21.457031 199.304688 21.929688 199.628906 22.273438 C 199.949219 22.621094 200.351562 22.796875 200.839844 22.792969 C 201.335938 22.796875 201.742188 22.621094 202.058594 22.273438 C 202.378906 21.925781 202.539062 21.429688 202.539062 20.789062 C 202.539062 20.382812 202.46875 20.03125 202.335938 19.726562 C 202.195312 19.425781 202 19.191406 201.734375 19.027344 C 201.472656 18.863281 201.175781 18.777344 200.851562 18.777344 C 200.382812 18.777344 199.980469 18.9375 199.648438 19.257812 C 199.3125 19.578125 199.144531 20.113281 199.144531 20.859375 Z M 199.144531 20.859375 "/>
<path style=" stroke:none;fill-rule:nonzero;fill:rgb(0%,0%,0%);fill-opacity:1;" d="M 216.871094 54.535156 L 216.871094 49.5625 L 217.546875 49.5625 L 220.15625 53.46875 L 220.15625 49.5625 L 220.785156 49.5625 L 220.785156 54.535156 L 220.113281 54.535156 L 217.503906 50.628906 L 217.503906 54.535156 Z M 216.871094 54.535156 "/>
<path style=" stroke:none;fill-rule:nonzero;fill:rgb(0%,0%,0%);fill-opacity:1;" d="M 232.835938 44.019531 L 232.835938 39.042969 L 235.039062 39.042969 C 235.480469 39.042969 235.816406 39.089844 236.046875 39.179688 C 236.277344 39.269531 236.464844 39.425781 236.601562 39.652344 C 236.738281 39.878906 236.804688 40.128906 236.808594 40.402344 C 236.804688 40.757812 236.691406 41.054688 236.464844 41.292969 C 236.234375 41.539062 235.882812 41.691406 235.410156 41.753906 C 235.578125 41.839844 235.710938 41.921875 235.804688 42.003906 C 235.996094 42.179688 236.179688 42.402344 236.351562 42.664062 L 237.214844 44.019531 L 236.386719 44.019531 L 235.730469 42.984375 C 235.539062 42.6875 235.378906 42.457031 235.257812 42.300781 C 235.128906 42.144531 235.019531 42.03125 234.921875 41.96875 C 234.820312 41.90625 234.71875 41.859375 234.621094 41.835938 C 234.546875 41.820312 234.425781 41.8125 234.257812 41.808594 L 233.496094 41.808594 L 233.496094 44.019531 Z M 233.496094 41.238281 L 234.90625 41.238281 C 235.207031 41.242188 235.441406 41.210938 235.613281 41.148438 C 235.78125 41.085938 235.90625 40.988281 235.996094 40.847656 C 236.082031 40.714844 236.128906 40.5625 236.128906 40.402344 C 236.128906 40.167969 236.042969 39.976562 235.875 39.824219 C 235.703125 39.675781 235.433594 39.597656 235.066406 39.59375 L 233.496094 39.59375 Z M 233.496094 41.238281 "/>
<path style=" stroke:none;fill-rule:nonzero;fill:rgb(0%,0%,0%);fill-opacity:1;" d="M 240.796875 43.433594 L 240.796875 44.019531 L 237.515625 44.019531 C 237.507812 43.871094 237.53125 43.730469 237.585938 43.59375 C 237.667969 43.371094 237.800781 43.152344 237.984375 42.933594 C 238.171875 42.71875 238.4375 42.464844 238.78125 42.179688 C 239.324219 41.738281 239.6875 41.386719 239.878906 41.125 C 240.066406 40.867188 240.160156 40.625 240.164062 40.394531 C 240.160156 40.152344 240.074219 39.949219 239.902344 39.78125 C 239.730469 39.617188 239.503906 39.53125 239.226562 39.53125 C 238.933594 39.53125 238.699219 39.621094 238.523438 39.796875 C 238.347656 39.976562 238.257812 40.21875 238.253906 40.527344 L 237.628906 40.464844 C 237.671875 39.996094 237.832031 39.640625 238.113281 39.394531 C 238.390625 39.152344 238.765625 39.027344 239.242188 39.027344 C 239.714844 39.027344 240.09375 39.160156 240.371094 39.421875 C 240.648438 39.6875 240.785156 40.015625 240.789062 40.40625 C 240.785156 40.609375 240.746094 40.804688 240.667969 40.992188 C 240.582031 41.1875 240.449219 41.390625 240.261719 41.601562 C 240.074219 41.8125 239.757812 42.105469 239.324219 42.472656 C 238.957031 42.785156 238.722656 42.992188 238.617188 43.101562 C 238.511719 43.210938 238.429688 43.320312 238.359375 43.433594 Z M 240.796875 43.433594 "/>
<path style="fill:none;stroke-width:0.0333333;stroke-linecap:butt;stroke-linejoin:miter;stroke:rgb(0%,0%,0%);stroke-opacity:1;stroke-miterlimit:10;" d="M 0.229633 1.371276 L 0.872263 0.995266 " transform="matrix(20.818966,0,0,20.839695,182.859912,20.782397)"/>
<path style="fill:none;stroke-width:0.0333333;stroke-linecap:butt;stroke-linejoin:miter;stroke:rgb(0%,0%,0%);stroke-opacity:1;stroke-miterlimit:10;" d="M 0.947315 1.0485 L 0.947315 0.166769 " transform="matrix(20.818966,0,0,20.839695,182.859912,20.782397)"/>
<path style="fill:none;stroke-width:0.0333333;stroke-linecap:butt;stroke-linejoin:miter;stroke:rgb(0%,0%,0%);stroke-opacity:1;stroke-miterlimit:10;" d="M 0.780513 1.049062 L 0.780513 0.166769 " transform="matrix(20.818966,0,0,20.839695,182.859912,20.782397)"/>
<path style="fill:none;stroke-width:0.0333333;stroke-linecap:butt;stroke-linejoin:miter;stroke:rgb(0%,0%,0%);stroke-opacity:1;stroke-miterlimit:10;" d="M 0.855377 0.995453 L 1.554484 1.399955 " transform="matrix(20.818966,0,0,20.839695,182.859912,20.782397)"/>
<path style="fill:none;stroke-width:0.0333333;stroke-linecap:butt;stroke-linejoin:miter;stroke:rgb(0%,0%,0%);stroke-opacity:1;stroke-miterlimit:10;" d="M 1.900848 1.399018 L 2.345905 1.139035 " transform="matrix(20.818966,0,0,20.839695,182.859912,20.782397)"/>
</g>
</svg>
