<?xml version="1.0" encoding="UTF-8"?>
<svg xmlns="http://www.w3.org/2000/svg" xmlns:xlink="http://www.w3.org/1999/xlink" width="74.4pt" height="168pt" viewBox="0 0 74.4 168" version="1.1">
<g id="surface1007">
<path style=" stroke:none;fill-rule:nonzero;fill:rgb(0%,0%,0%);fill-opacity:1;" d="M 40.320312 13.722656 L 40.972656 13.890625 C 40.832031 14.433594 40.589844 14.839844 40.234375 15.121094 C 39.878906 15.40625 39.441406 15.546875 38.929688 15.546875 C 38.398438 15.546875 37.96875 15.441406 37.632812 15.222656 C 37.300781 15.007812 37.042969 14.691406 36.871094 14.277344 C 36.695312 13.863281 36.609375 13.421875 36.613281 12.945312 C 36.609375 12.433594 36.710938 11.984375 36.90625 11.59375 C 37.101562 11.210938 37.378906 10.917969 37.742188 10.71875 C 38.105469 10.519531 38.503906 10.421875 38.941406 10.417969 C 39.433594 10.421875 39.847656 10.546875 40.183594 10.796875 C 40.519531 11.050781 40.753906 11.40625 40.886719 11.863281 L 40.246094 12.015625 C 40.128906 11.65625 39.960938 11.394531 39.746094 11.226562 C 39.523438 11.066406 39.253906 10.980469 38.925781 10.980469 C 38.546875 10.980469 38.226562 11.074219 37.976562 11.253906 C 37.71875 11.4375 37.542969 11.683594 37.441406 11.992188 C 37.335938 12.300781 37.285156 12.617188 37.285156 12.945312 C 37.285156 13.367188 37.34375 13.734375 37.46875 14.046875 C 37.585938 14.363281 37.777344 14.601562 38.035156 14.753906 C 38.296875 14.910156 38.574219 14.992188 38.875 14.988281 C 39.242188 14.992188 39.550781 14.882812 39.804688 14.671875 C 40.058594 14.460938 40.226562 14.144531 40.320312 13.722656 Z M 40.320312 13.722656 "/>
<path style=" stroke:none;fill-rule:nonzero;fill:rgb(0%,0%,0%);fill-opacity:1;" d="M 41.699219 15.464844 L 41.699219 10.5 L 42.304688 10.5 L 42.304688 12.28125 C 42.582031 11.957031 42.9375 11.789062 43.371094 11.789062 C 43.636719 11.789062 43.867188 11.839844 44.0625 11.949219 C 44.253906 12.054688 44.394531 12.199219 44.480469 12.382812 C 44.566406 12.570312 44.605469 12.839844 44.609375 13.1875 L 44.609375 15.464844 L 44.003906 15.464844 L 44.003906 13.1875 C 44 12.882812 43.933594 12.660156 43.804688 12.519531 C 43.671875 12.382812 43.488281 12.3125 43.25 12.3125 C 43.066406 12.3125 42.898438 12.363281 42.742188 12.453125 C 42.582031 12.550781 42.46875 12.679688 42.402344 12.835938 C 42.332031 12.996094 42.300781 13.21875 42.304688 13.5 L 42.304688 15.464844 Z M 41.699219 15.464844 "/>
<path style=" stroke:none;fill-rule:nonzero;fill:rgb(0%,0%,0%);fill-opacity:1;" d="M 45.53125 11.203125 L 45.53125 10.5 L 46.136719 10.5 L 46.136719 11.203125 Z M 45.53125 15.464844 L 45.53125 11.867188 L 46.136719 11.867188 L 46.136719 15.464844 Z M 45.53125 15.464844 "/>
<path style=" stroke:none;fill-rule:nonzero;fill:rgb(0%,0%,0%);fill-opacity:1;" d="M 47.050781 15.464844 L 47.050781 11.867188 L 47.597656 11.867188 L 47.597656 12.414062 C 47.734375 12.160156 47.863281 11.992188 47.984375 11.910156 C 48.097656 11.832031 48.226562 11.789062 48.371094 11.789062 C 48.574219 11.789062 48.78125 11.855469 48.996094 11.984375 L 48.785156 12.550781 C 48.636719 12.464844 48.488281 12.417969 48.339844 12.417969 C 48.207031 12.417969 48.085938 12.460938 47.984375 12.539062 C 47.875 12.621094 47.804688 12.734375 47.761719 12.871094 C 47.691406 13.089844 47.65625 13.328125 47.65625 13.582031 L 47.65625 15.464844 Z M 47.050781 15.464844 "/>
<path style=" stroke:none;fill-rule:nonzero;fill:rgb(0%,0%,0%);fill-opacity:1;" d="M 51.683594 15.019531 C 51.457031 15.214844 51.242188 15.351562 51.035156 15.425781 C 50.828125 15.507812 50.605469 15.546875 50.367188 15.546875 C 49.976562 15.546875 49.675781 15.449219 49.464844 15.253906 C 49.253906 15.066406 49.148438 14.820312 49.148438 14.515625 C 49.148438 14.34375 49.1875 14.179688 49.269531 14.035156 C 49.34375 13.886719 49.449219 13.773438 49.582031 13.683594 C 49.707031 13.597656 49.851562 13.535156 50.015625 13.484375 C 50.132812 13.457031 50.3125 13.421875 50.554688 13.394531 C 51.042969 13.332031 51.402344 13.261719 51.632812 13.183594 C 51.632812 13.101562 51.636719 13.050781 51.640625 13.023438 C 51.636719 12.777344 51.578125 12.601562 51.46875 12.5 C 51.3125 12.363281 51.078125 12.296875 50.777344 12.292969 C 50.488281 12.296875 50.28125 12.347656 50.144531 12.445312 C 50.007812 12.546875 49.910156 12.722656 49.84375 12.976562 L 49.253906 12.894531 C 49.304688 12.644531 49.390625 12.4375 49.519531 12.277344 C 49.640625 12.125 49.820312 12 50.054688 11.914062 C 50.285156 11.832031 50.554688 11.789062 50.863281 11.789062 C 51.167969 11.789062 51.414062 11.824219 51.605469 11.894531 C 51.796875 11.96875 51.9375 12.0625 52.027344 12.167969 C 52.117188 12.28125 52.179688 12.421875 52.21875 12.582031 C 52.238281 12.691406 52.246094 12.878906 52.246094 13.148438 L 52.246094 13.957031 C 52.246094 14.523438 52.257812 14.882812 52.285156 15.035156 C 52.308594 15.183594 52.359375 15.328125 52.4375 15.464844 L 51.804688 15.464844 C 51.742188 15.339844 51.699219 15.195312 51.683594 15.019531 Z M 51.632812 13.660156 C 51.414062 13.753906 51.085938 13.832031 50.644531 13.890625 C 50.394531 13.929688 50.21875 13.96875 50.117188 14.011719 C 50.011719 14.0625 49.933594 14.125 49.878906 14.210938 C 49.824219 14.300781 49.796875 14.398438 49.796875 14.5 C 49.796875 14.664062 49.855469 14.800781 49.980469 14.90625 C 50.097656 15.015625 50.277344 15.070312 50.515625 15.070312 C 50.746094 15.070312 50.953125 15.019531 51.136719 14.914062 C 51.320312 14.8125 51.449219 14.671875 51.535156 14.492188 C 51.597656 14.355469 51.632812 14.152344 51.632812 13.882812 Z M 51.632812 13.660156 "/>
<path style=" stroke:none;fill-rule:nonzero;fill:rgb(0%,0%,0%);fill-opacity:1;" d="M 53.171875 15.464844 L 53.171875 10.5 L 53.777344 10.5 L 53.777344 15.464844 Z M 53.171875 15.464844 "/>
<path style=" stroke:none;fill-rule:nonzero;fill:rgb(0%,0%,0%);fill-opacity:1;" d="M 51.417969 91.867188 C 51.417969 91.046875 51.636719 90.402344 52.078125 89.933594 C 52.515625 89.472656 53.082031 89.238281 53.777344 89.234375 C 54.230469 89.238281 54.644531 89.347656 55.011719 89.5625 C 55.375 89.78125 55.652344 90.089844 55.847656 90.476562 C 56.035156 90.875 56.132812 91.316406 56.132812 91.808594 C 56.132812 92.316406 56.027344 92.765625 55.828125 93.160156 C 55.625 93.558594 55.339844 93.859375 54.972656 94.0625 C 54.601562 94.265625 54.203125 94.367188 53.777344 94.367188 C 53.3125 94.367188 52.894531 94.253906 52.53125 94.03125 C 52.164062 93.804688 51.886719 93.496094 51.703125 93.105469 C 51.511719 92.71875 51.417969 92.304688 51.417969 91.867188 Z M 52.09375 91.878906 C 52.089844 92.476562 52.25 92.945312 52.570312 93.289062 C 52.886719 93.636719 53.289062 93.8125 53.773438 93.808594 C 54.261719 93.8125 54.667969 93.636719 54.984375 93.289062 C 55.300781 92.941406 55.460938 92.445312 55.460938 91.808594 C 55.460938 91.402344 55.390625 91.050781 55.257812 90.75 C 55.121094 90.449219 54.921875 90.214844 54.660156 90.050781 C 54.402344 89.886719 54.105469 89.800781 53.785156 89.800781 C 53.320312 89.800781 52.921875 89.960938 52.589844 90.28125 C 52.257812 90.601562 52.089844 91.132812 52.09375 91.878906 Z M 52.09375 91.878906 "/>
<path style=" stroke:none;fill-rule:nonzero;fill:rgb(0%,0%,0%);fill-opacity:1;" d="M 20.136719 77.554688 L 20.136719 72.59375 L 20.804688 72.59375 L 23.394531 76.488281 L 23.394531 72.59375 L 24.023438 72.59375 L 24.023438 77.554688 L 23.351562 77.554688 L 20.761719 73.65625 L 20.761719 77.554688 Z M 20.136719 77.554688 "/>
<path style=" stroke:none;fill-rule:nonzero;fill:rgb(0%,0%,0%);fill-opacity:1;" d="M 26.507812 147.785156 L 27.164062 147.953125 C 27.023438 148.492188 26.777344 148.902344 26.421875 149.183594 C 26.066406 149.464844 25.632812 149.605469 25.121094 149.609375 C 24.585938 149.605469 24.15625 149.5 23.824219 149.285156 C 23.488281 149.066406 23.234375 148.75 23.0625 148.335938 C 22.886719 147.925781 22.800781 147.480469 22.804688 147.007812 C 22.800781 146.492188 22.898438 146.042969 23.097656 145.65625 C 23.289062 145.269531 23.566406 144.980469 23.933594 144.777344 C 24.292969 144.582031 24.695312 144.480469 25.132812 144.476562 C 25.625 144.480469 26.039062 144.609375 26.375 144.855469 C 26.710938 145.113281 26.945312 145.464844 27.078125 145.921875 L 26.4375 146.074219 C 26.316406 145.71875 26.152344 145.457031 25.9375 145.289062 C 25.714844 145.125 25.441406 145.039062 25.117188 145.039062 C 24.734375 145.039062 24.417969 145.132812 24.164062 145.3125 C 23.910156 145.5 23.730469 145.746094 23.628906 146.050781 C 23.527344 146.359375 23.476562 146.675781 23.476562 147.003906 C 23.476562 147.425781 23.535156 147.792969 23.660156 148.109375 C 23.777344 148.425781 23.96875 148.660156 24.226562 148.816406 C 24.484375 148.972656 24.765625 149.050781 25.066406 149.046875 C 25.433594 149.050781 25.742188 148.945312 25.996094 148.730469 C 26.246094 148.519531 26.417969 148.203125 26.507812 147.785156 Z M 26.507812 147.785156 "/>
<path style=" stroke:none;fill-rule:nonzero;fill:rgb(0%,0%,0%);fill-opacity:1;" d="M 53.851562 56.558594 L 54.503906 56.726562 C 54.367188 57.265625 54.121094 57.675781 53.765625 57.957031 C 53.410156 58.238281 52.972656 58.378906 52.464844 58.382812 C 51.929688 58.378906 51.5 58.273438 51.167969 58.058594 C 50.832031 57.839844 50.578125 57.523438 50.40625 57.109375 C 50.230469 56.699219 50.144531 56.253906 50.144531 55.78125 C 50.144531 55.265625 50.242188 54.816406 50.441406 54.429688 C 50.632812 54.046875 50.910156 53.753906 51.277344 53.554688 C 51.636719 53.355469 52.039062 53.253906 52.472656 53.253906 C 52.964844 53.253906 53.378906 53.382812 53.71875 53.632812 C 54.054688 53.886719 54.289062 54.242188 54.417969 54.699219 L 53.777344 54.851562 C 53.660156 54.492188 53.492188 54.230469 53.277344 54.0625 C 53.058594 53.898438 52.785156 53.816406 52.460938 53.816406 C 52.078125 53.816406 51.761719 53.90625 51.507812 54.089844 C 51.253906 54.273438 51.074219 54.519531 50.972656 54.824219 C 50.871094 55.132812 50.820312 55.449219 50.820312 55.777344 C 50.820312 56.199219 50.878906 56.570312 51.003906 56.882812 C 51.121094 57.199219 51.3125 57.433594 51.570312 57.589844 C 51.828125 57.746094 52.109375 57.824219 52.410156 57.824219 C 52.773438 57.824219 53.085938 57.71875 53.335938 57.503906 C 53.589844 57.292969 53.761719 56.976562 53.851562 56.558594 Z M 53.851562 56.558594 "/>
<path style=" stroke:none;fill-rule:nonzero;fill:rgb(0%,0%,0%);fill-opacity:1;" d="M 31.746094 21.421875 L 32.398438 21.589844 C 32.257812 22.128906 32.015625 22.539062 31.660156 22.820312 C 31.304688 23.101562 30.867188 23.242188 30.355469 23.246094 C 29.824219 23.242188 29.394531 23.136719 29.058594 22.921875 C 28.726562 22.703125 28.46875 22.386719 28.296875 21.972656 C 28.125 21.5625 28.039062 21.117188 28.039062 20.644531 C 28.039062 20.128906 28.136719 19.679688 28.332031 19.292969 C 28.527344 18.90625 28.804688 18.617188 29.171875 18.414062 C 29.53125 18.21875 29.933594 18.117188 30.367188 18.113281 C 30.859375 18.117188 31.273438 18.246094 31.609375 18.492188 C 31.945312 18.75 32.179688 19.101562 32.3125 19.558594 L 31.671875 19.710938 C 31.554688 19.355469 31.386719 19.09375 31.171875 18.925781 C 30.953125 18.761719 30.679688 18.675781 30.355469 18.675781 C 29.972656 18.675781 29.65625 18.769531 29.402344 18.949219 C 29.144531 19.136719 28.96875 19.382812 28.867188 19.6875 C 28.765625 19.996094 28.710938 20.3125 28.710938 20.640625 C 28.710938 21.0625 28.773438 21.429688 28.894531 21.746094 C 29.015625 22.0625 29.207031 22.296875 29.464844 22.453125 C 29.722656 22.609375 30 22.6875 30.304688 22.683594 C 30.667969 22.6875 30.976562 22.582031 31.230469 22.367188 C 31.484375 22.15625 31.652344 21.839844 31.746094 21.421875 Z M 31.746094 21.421875 "/>
<path style="fill:none;stroke-width:0.0333333;stroke-linecap:butt;stroke-linejoin:miter;stroke:rgb(0%,0%,0%);stroke-opacity:1;stroke-miterlimit:10;" d="M 0.166827 2.432193 L 0.539181 1.722036 " transform="matrix(20.666667,0,0,20.792079,20.622561,20.67966)"/>
<path style="fill:none;stroke-width:0.0333333;stroke-linecap:butt;stroke-linejoin:miter;stroke:rgb(0%,0%,0%);stroke-opacity:1;stroke-miterlimit:10;" d="M 0.56035 3.546462 L 1.443603 3.510578 " transform="matrix(20.666667,0,0,20.792079,20.622561,20.67966)"/>
<path style="fill:none;stroke-width:0.0333333;stroke-linecap:butt;stroke-linejoin:miter;stroke:rgb(0%,0%,0%);stroke-opacity:1;stroke-miterlimit:10;" d="M 0.553734 3.379819 L 1.436988 3.344123 " transform="matrix(20.666667,0,0,20.792079,20.622561,20.67966)"/>
<path style="fill:none;stroke-width:0.0333333;stroke-linecap:butt;stroke-linejoin:miter;stroke:rgb(0%,0%,0%);stroke-opacity:1;stroke-miterlimit:10;" d="M 0.610249 3.469246 L 0.183082 2.79441 " transform="matrix(20.666667,0,0,20.792079,20.622561,20.67966)"/>
<path style="fill:none;stroke-width:0.0333333;stroke-linecap:butt;stroke-linejoin:miter;stroke:rgb(0%,0%,0%);stroke-opacity:1;stroke-miterlimit:10;" d="M 0.31161 5.885468 L 0.679995 5.18339 " transform="matrix(20.666667,0,0,20.792079,20.622561,20.67966)"/>
<path style="fill:none;stroke-width:0.0333333;stroke-linecap:butt;stroke-linejoin:miter;stroke:rgb(0%,0%,0%);stroke-opacity:1;stroke-miterlimit:10;" d="M 0.680562 5.200111 L 0.13564 4.338718 " transform="matrix(20.666667,0,0,20.792079,20.622561,20.67966)"/>
<path style="fill:none;stroke-width:0.0333333;stroke-linecap:butt;stroke-linejoin:miter;stroke:rgb(0%,0%,0%);stroke-opacity:1;stroke-miterlimit:10;" d="M 0.769964 5.029711 L 0.327865 4.331015 " transform="matrix(20.666667,0,0,20.792079,20.622561,20.67966)"/>
<path style="fill:none;stroke-width:0.0333333;stroke-linecap:butt;stroke-linejoin:miter;stroke:rgb(0%,0%,0%);stroke-opacity:1;stroke-miterlimit:10;" d="M 0.605713 1.737442 L 0.604957 1.718091 M 0.676403 1.744205 L 0.674891 1.705316 M 0.747472 1.751156 L 0.745015 1.692728 M 0.818351 1.75792 L 0.815138 1.680329 M 0.889042 1.764871 L 0.885262 1.667553 M 0.959921 1.771635 L 0.955196 1.655154 M 1.030801 1.778586 L 1.02532 1.642566 M 1.101681 1.785349 L 1.095443 1.629979 M 1.17256 1.7923 L 1.165378 1.617392 M 1.24344 1.799064 L 1.23569 1.604804 M 1.314319 1.806015 L 1.305625 1.592217 M 1.385199 1.812778 L 1.375748 1.579629 " transform="matrix(20.666667,0,0,20.792079,20.622561,20.67966)"/>
<path style="fill:none;stroke-width:0.0333333;stroke-linecap:butt;stroke-linejoin:miter;stroke:rgb(0%,0%,0%);stroke-opacity:1;stroke-miterlimit:10;" d="M 0.539937 1.738757 L -0.0051743 0.877364 " transform="matrix(20.666667,0,0,20.792079,20.622561,20.67966)"/>
<path style="fill:none;stroke-width:0.0333333;stroke-linecap:butt;stroke-linejoin:miter;stroke:rgb(0%,0%,0%);stroke-opacity:1;stroke-miterlimit:10;" d="M -0.00441825 0.894084 L 0.363777 0.192007 " transform="matrix(20.666667,0,0,20.792079,20.622561,20.67966)"/>
<path style="fill:none;stroke-width:0.0333333;stroke-linecap:butt;stroke-linejoin:miter;stroke:rgb(0%,0%,0%);stroke-opacity:1;stroke-miterlimit:10;" d="M 0.609493 3.452713 L 0.136207 4.355251 " transform="matrix(20.666667,0,0,20.792079,20.622561,20.67966)"/>
</g>
</svg>
