<?xml version="1.0" encoding="UTF-8"?>
<svg xmlns="http://www.w3.org/2000/svg" xmlns:xlink="http://www.w3.org/1999/xlink" width="76.8pt" height="82.4pt" viewBox="0 0 76.8 82.4" version="1.1">
<g id="surface237">
<path style=" stroke:none;fill-rule:nonzero;fill:rgb(0%,0%,0%);fill-opacity:1;" d="M 42.78125 13.457031 L 43.433594 13.621094 C 43.296875 14.164062 43.050781 14.570312 42.691406 14.851562 C 42.335938 15.132812 41.898438 15.273438 41.386719 15.277344 C 40.851562 15.273438 40.421875 15.167969 40.085938 14.953125 C 39.753906 14.734375 39.496094 14.417969 39.324219 14.007812 C 39.148438 13.597656 39.0625 13.152344 39.066406 12.679688 C 39.0625 12.167969 39.160156 11.71875 39.359375 11.332031 C 39.554688 10.949219 39.832031 10.65625 40.199219 10.457031 C 40.558594 10.261719 40.960938 10.160156 41.398438 10.160156 C 41.890625 10.160156 42.308594 10.289062 42.644531 10.535156 C 42.980469 10.789062 43.214844 11.144531 43.347656 11.601562 L 42.707031 11.75 C 42.589844 11.394531 42.421875 11.132812 42.203125 10.964844 C 41.984375 10.804688 41.710938 10.71875 41.386719 10.71875 C 41 10.71875 40.683594 10.8125 40.429688 10.992188 C 40.171875 11.175781 39.996094 11.421875 39.894531 11.726562 C 39.789062 12.035156 39.738281 12.351562 39.738281 12.679688 C 39.738281 13.097656 39.796875 13.464844 39.921875 13.78125 C 40.042969 14.09375 40.234375 14.332031 40.492188 14.484375 C 40.75 14.640625 41.03125 14.71875 41.332031 14.714844 C 41.699219 14.71875 42.011719 14.613281 42.265625 14.402344 C 42.519531 14.191406 42.6875 13.875 42.78125 13.457031 Z M 42.78125 13.457031 "/>
<path style=" stroke:none;fill-rule:nonzero;fill:rgb(0%,0%,0%);fill-opacity:1;" d="M 44.164062 15.191406 L 44.164062 10.242188 L 44.769531 10.242188 L 44.769531 12.019531 C 45.050781 11.691406 45.40625 11.527344 45.839844 11.523438 C 46.105469 11.527344 46.335938 11.578125 46.53125 11.683594 C 46.726562 11.789062 46.867188 11.933594 46.953125 12.117188 C 47.035156 12.304688 47.078125 12.574219 47.078125 12.921875 L 47.078125 15.191406 L 46.472656 15.191406 L 46.472656 12.921875 C 46.46875 12.617188 46.40625 12.398438 46.277344 12.257812 C 46.144531 12.117188 45.957031 12.046875 45.71875 12.046875 C 45.535156 12.046875 45.367188 12.097656 45.210938 12.1875 C 45.046875 12.285156 44.933594 12.414062 44.871094 12.570312 C 44.800781 12.730469 44.765625 12.949219 44.769531 13.230469 L 44.769531 15.191406 Z M 44.164062 15.191406 "/>
<path style=" stroke:none;fill-rule:nonzero;fill:rgb(0%,0%,0%);fill-opacity:1;" d="M 48.007812 10.941406 L 48.007812 10.242188 L 48.613281 10.242188 L 48.613281 10.941406 Z M 48.007812 15.191406 L 48.007812 11.605469 L 48.613281 11.605469 L 48.613281 15.191406 Z M 48.007812 15.191406 "/>
<path style=" stroke:none;fill-rule:nonzero;fill:rgb(0%,0%,0%);fill-opacity:1;" d="M 49.53125 15.191406 L 49.53125 11.605469 L 50.078125 11.605469 L 50.078125 12.152344 C 50.214844 11.898438 50.34375 11.730469 50.464844 11.644531 C 50.578125 11.566406 50.710938 11.527344 50.851562 11.523438 C 51.054688 11.527344 51.265625 11.59375 51.476562 11.722656 L 51.269531 12.285156 C 51.121094 12.199219 50.972656 12.152344 50.824219 12.152344 C 50.6875 12.152344 50.566406 12.195312 50.464844 12.277344 C 50.355469 12.355469 50.28125 12.46875 50.238281 12.605469 C 50.167969 12.824219 50.132812 13.0625 50.136719 13.316406 L 50.136719 15.191406 Z M 49.53125 15.191406 "/>
<path style=" stroke:none;fill-rule:nonzero;fill:rgb(0%,0%,0%);fill-opacity:1;" d="M 54.175781 14.75 C 53.949219 14.945312 53.730469 15.078125 53.523438 15.152344 C 53.3125 15.234375 53.09375 15.273438 52.855469 15.273438 C 52.460938 15.273438 52.160156 15.179688 51.949219 14.984375 C 51.738281 14.792969 51.632812 14.550781 51.632812 14.246094 C 51.632812 14.074219 51.671875 13.910156 51.753906 13.765625 C 51.828125 13.621094 51.933594 13.503906 52.066406 13.417969 C 52.191406 13.332031 52.335938 13.265625 52.503906 13.21875 C 52.617188 13.1875 52.796875 13.15625 53.042969 13.125 C 53.53125 13.066406 53.890625 12.996094 54.125 12.914062 C 54.125 12.835938 54.125 12.78125 54.128906 12.757812 C 54.125 12.511719 54.070312 12.335938 53.957031 12.234375 C 53.800781 12.101562 53.566406 12.03125 53.265625 12.03125 C 52.976562 12.03125 52.765625 12.082031 52.632812 12.179688 C 52.492188 12.285156 52.394531 12.460938 52.328125 12.710938 L 51.734375 12.628906 C 51.785156 12.378906 51.875 12.171875 52.003906 12.011719 C 52.125 11.859375 52.304688 11.738281 52.539062 11.652344 C 52.773438 11.566406 53.042969 11.527344 53.351562 11.523438 C 53.65625 11.527344 53.90625 11.5625 54.097656 11.632812 C 54.289062 11.707031 54.429688 11.796875 54.519531 11.90625 C 54.605469 12.019531 54.671875 12.15625 54.707031 12.320312 C 54.726562 12.425781 54.734375 12.613281 54.738281 12.878906 L 54.738281 13.691406 C 54.734375 14.253906 54.75 14.609375 54.777344 14.761719 C 54.800781 14.914062 54.851562 15.058594 54.929688 15.191406 L 54.296875 15.191406 C 54.230469 15.066406 54.191406 14.921875 54.175781 14.75 Z M 54.125 13.394531 C 53.902344 13.484375 53.574219 13.5625 53.132812 13.621094 C 52.882812 13.660156 52.703125 13.703125 52.601562 13.746094 C 52.496094 13.792969 52.417969 13.859375 52.363281 13.941406 C 52.308594 14.03125 52.28125 14.128906 52.28125 14.230469 C 52.28125 14.394531 52.339844 14.53125 52.464844 14.636719 C 52.582031 14.746094 52.765625 14.800781 53 14.796875 C 53.234375 14.800781 53.441406 14.75 53.625 14.644531 C 53.808594 14.542969 53.941406 14.402344 54.027344 14.222656 C 54.089844 14.085938 54.121094 13.886719 54.125 13.613281 Z M 54.125 13.394531 "/>
<path style=" stroke:none;fill-rule:nonzero;fill:rgb(0%,0%,0%);fill-opacity:1;" d="M 55.664062 15.191406 L 55.664062 10.242188 L 56.273438 10.242188 L 56.273438 15.191406 Z M 55.664062 15.191406 "/>
<path style=" stroke:none;fill-rule:nonzero;fill:rgb(0%,0%,0%);fill-opacity:1;" d="M 21.917969 62.609375 L 22.574219 62.777344 C 22.433594 63.316406 22.1875 63.722656 21.832031 64.003906 C 21.476562 64.285156 21.039062 64.425781 20.523438 64.429688 C 19.992188 64.425781 19.558594 64.320312 19.226562 64.105469 C 18.890625 63.890625 18.632812 63.574219 18.460938 63.160156 C 18.285156 62.75 18.199219 62.304688 18.203125 61.835938 C 18.199219 61.320312 18.300781 60.871094 18.496094 60.488281 C 18.691406 60.101562 18.96875 59.8125 19.335938 59.613281 C 19.695312 59.414062 20.097656 59.316406 20.535156 59.3125 C 21.03125 59.316406 21.445312 59.441406 21.78125 59.691406 C 22.121094 59.945312 22.355469 60.296875 22.488281 60.753906 L 21.84375 60.90625 C 21.726562 60.546875 21.558594 60.285156 21.34375 60.121094 C 21.121094 59.957031 20.847656 59.875 20.523438 59.875 C 20.140625 59.875 19.820312 59.964844 19.566406 60.144531 C 19.3125 60.328125 19.132812 60.574219 19.03125 60.878906 C 18.929688 61.1875 18.875 61.503906 18.875 61.832031 C 18.875 62.253906 18.9375 62.621094 19.058594 62.933594 C 19.179688 63.25 19.371094 63.484375 19.628906 63.636719 C 19.886719 63.792969 20.167969 63.871094 20.472656 63.871094 C 20.839844 63.871094 21.148438 63.765625 21.402344 63.554688 C 21.65625 63.34375 21.824219 63.027344 21.917969 62.609375 Z M 21.917969 62.609375 "/>
<path style=" stroke:none;fill-rule:nonzero;fill:rgb(0%,0%,0%);fill-opacity:1;" d="M 54.328125 64.34375 L 54.328125 59.394531 L 55 59.394531 L 57.59375 63.277344 L 57.59375 59.394531 L 58.222656 59.394531 L 58.222656 64.34375 L 57.550781 64.34375 L 54.953125 60.453125 L 54.953125 64.34375 Z M 54.328125 64.34375 "/>
<path style=" stroke:none;fill-rule:nonzero;fill:rgb(0%,0%,0%);fill-opacity:1;" d="M 21.917969 21.132812 L 22.574219 21.300781 C 22.433594 21.839844 22.1875 22.246094 21.832031 22.527344 C 21.476562 22.808594 21.039062 22.949219 20.523438 22.953125 C 19.992188 22.949219 19.558594 22.84375 19.226562 22.628906 C 18.890625 22.414062 18.632812 22.097656 18.460938 21.683594 C 18.285156 21.273438 18.199219 20.828125 18.203125 20.359375 C 18.199219 19.84375 18.300781 19.394531 18.496094 19.011719 C 18.691406 18.625 18.96875 18.335938 19.335938 18.136719 C 19.695312 17.9375 20.097656 17.839844 20.535156 17.835938 C 21.03125 17.839844 21.445312 17.964844 21.78125 18.214844 C 22.121094 18.46875 22.355469 18.820312 22.488281 19.277344 L 21.84375 19.429688 C 21.726562 19.070312 21.558594 18.808594 21.34375 18.644531 C 21.121094 18.480469 20.847656 18.398438 20.523438 18.398438 C 20.140625 18.398438 19.820312 18.488281 19.566406 18.667969 C 19.3125 18.851562 19.132812 19.097656 19.03125 19.40625 C 18.929688 19.710938 18.875 20.027344 18.875 20.355469 C 18.875 20.777344 18.9375 21.144531 19.058594 21.457031 C 19.179688 21.773438 19.371094 22.007812 19.628906 22.160156 C 19.886719 22.316406 20.167969 22.394531 20.472656 22.394531 C 20.839844 22.394531 21.148438 22.289062 21.402344 22.078125 C 21.65625 21.867188 21.824219 21.550781 21.917969 21.132812 Z M 21.917969 21.132812 "/>
<path style="fill:none;stroke-width:0.0333333;stroke-linecap:butt;stroke-linejoin:miter;stroke:rgb(0%,0%,0%);stroke-opacity:1;stroke-miterlimit:10;" d="M 0.183783 1.893838 L 0.874371 1.495081 " transform="matrix(20.719424,0,0,20.738255,20.387443,20.393067)"/>
<path style="fill:none;stroke-width:0.0333333;stroke-linecap:butt;stroke-linejoin:miter;stroke:rgb(0%,0%,0%);stroke-opacity:1;stroke-miterlimit:10;" d="M 0.866076 1.509585 L 0.866076 0.490182 " transform="matrix(20.719424,0,0,20.738255,20.387443,20.393067)"/>
<path style=" stroke:none;fill-rule:nonzero;fill:rgb(0%,0%,0%);fill-opacity:1;" d="M 38.332031 51.5 L 51.472656 61.886719 L 53.890625 57.695312 "/>
<path style="fill:none;stroke-width:0.0333333;stroke-linecap:butt;stroke-linejoin:miter;stroke:rgb(0%,0%,0%);stroke-opacity:1;stroke-miterlimit:10;" d="M 0.874371 0.504686 L 0.183783 0.106117 " transform="matrix(20.719424,0,0,20.738255,20.387443,20.393067)"/>
</g>
</svg>
