<?xml version="1.0" encoding="UTF-8"?>
<svg xmlns="http://www.w3.org/2000/svg" xmlns:xlink="http://www.w3.org/1999/xlink" width="203.2pt" height="68.8pt" viewBox="0 0 203.2 68.8" version="1.1">
<g id="surface1307">
<path style=" stroke:none;fill-rule:nonzero;fill:rgb(0%,0%,0%);fill-opacity:1;" d="M 17.171875 50.808594 L 17.171875 45.882812 L 19.378906 45.882812 C 19.820312 45.882812 20.15625 45.925781 20.386719 46.015625 C 20.617188 46.105469 20.800781 46.261719 20.9375 46.484375 C 21.074219 46.707031 21.140625 46.957031 21.144531 47.226562 C 21.140625 47.578125 21.027344 47.871094 20.804688 48.109375 C 20.574219 48.351562 20.21875 48.5 19.746094 48.566406 C 19.917969 48.648438 20.050781 48.734375 20.140625 48.808594 C 20.335938 48.988281 20.515625 49.207031 20.691406 49.464844 L 21.550781 50.808594 L 20.726562 50.808594 L 20.070312 49.785156 C 19.875 49.488281 19.714844 49.261719 19.59375 49.105469 C 19.46875 48.949219 19.355469 48.839844 19.257812 48.777344 C 19.15625 48.714844 19.058594 48.671875 18.960938 48.644531 C 18.882812 48.628906 18.761719 48.621094 18.59375 48.621094 L 17.832031 48.621094 L 17.832031 50.808594 Z M 17.832031 48.054688 L 19.246094 48.054688 C 19.542969 48.058594 19.777344 48.027344 19.949219 47.964844 C 20.117188 47.90625 20.246094 47.804688 20.335938 47.667969 C 20.421875 47.535156 20.46875 47.386719 20.46875 47.226562 C 20.46875 46.992188 20.378906 46.804688 20.210938 46.652344 C 20.039062 46.503906 19.769531 46.429688 19.40625 46.425781 L 17.832031 46.425781 Z M 17.832031 48.054688 "/>
<path style=" stroke:none;fill-rule:nonzero;fill:rgb(0%,0%,0%);fill-opacity:1;" d="M 24.226562 50.808594 L 23.617188 50.808594 L 23.617188 46.953125 C 23.46875 47.09375 23.277344 47.234375 23.039062 47.371094 C 22.800781 47.511719 22.585938 47.617188 22.398438 47.679688 L 22.398438 47.097656 C 22.738281 46.941406 23.035156 46.75 23.292969 46.519531 C 23.546875 46.296875 23.726562 46.078125 23.832031 45.863281 L 24.226562 45.863281 Z M 24.226562 50.808594 "/>
<path style=" stroke:none;fill-rule:nonzero;fill:rgb(0%,0%,0%);fill-opacity:1;" d="M 36.503906 38.773438 L 36.074219 38.773438 L 36.074219 36.078125 C 35.972656 36.179688 35.835938 36.277344 35.671875 36.371094 C 35.5 36.46875 35.351562 36.542969 35.21875 36.585938 L 35.21875 36.179688 C 35.457031 36.070312 35.667969 35.933594 35.847656 35.777344 C 36.023438 35.617188 36.148438 35.464844 36.226562 35.3125 L 36.503906 35.3125 Z M 36.503906 38.773438 "/>
<path style=" stroke:none;fill-rule:nonzero;fill:rgb(0%,0%,0%);fill-opacity:1;" d="M 57.039062 38.730469 L 57.039062 39.136719 L 54.738281 39.136719 C 54.734375 39.035156 54.75 38.9375 54.789062 38.84375 C 54.847656 38.6875 54.9375 38.535156 55.070312 38.382812 C 55.195312 38.234375 55.382812 38.058594 55.628906 37.863281 C 56.003906 37.554688 56.257812 37.3125 56.394531 37.128906 C 56.523438 36.953125 56.59375 36.785156 56.59375 36.621094 C 56.59375 36.457031 56.53125 36.3125 56.414062 36.199219 C 56.292969 36.082031 56.132812 36.023438 55.9375 36.023438 C 55.730469 36.023438 55.566406 36.085938 55.445312 36.207031 C 55.320312 36.332031 55.257812 36.5 55.257812 36.714844 L 54.820312 36.671875 C 54.847656 36.347656 54.960938 36.101562 55.160156 35.929688 C 55.355469 35.761719 55.621094 35.675781 55.949219 35.675781 C 56.28125 35.675781 56.542969 35.769531 56.738281 35.949219 C 56.933594 36.132812 57.03125 36.363281 57.03125 36.628906 C 57.03125 36.769531 57.003906 36.90625 56.945312 37.039062 C 56.886719 37.171875 56.792969 37.3125 56.664062 37.457031 C 56.527344 37.605469 56.3125 37.808594 56.007812 38.066406 C 55.75 38.28125 55.585938 38.425781 55.511719 38.5 C 55.4375 38.578125 55.378906 38.65625 55.332031 38.730469 Z M 57.039062 38.730469 "/>
<path style=" stroke:none;fill-rule:nonzero;fill:rgb(0%,0%,0%);fill-opacity:1;" d="M 64.710938 22.9375 L 64.710938 18.011719 L 66.914062 18.011719 C 67.355469 18.011719 67.691406 18.058594 67.921875 18.144531 C 68.152344 18.234375 68.335938 18.390625 68.472656 18.613281 C 68.609375 18.839844 68.679688 19.085938 68.679688 19.355469 C 68.679688 19.707031 68.5625 20.003906 68.339844 20.238281 C 68.109375 20.480469 67.757812 20.632812 67.28125 20.695312 C 67.453125 20.78125 67.585938 20.863281 67.675781 20.941406 C 67.871094 21.117188 68.050781 21.335938 68.226562 21.597656 L 69.085938 22.9375 L 68.261719 22.9375 L 67.605469 21.914062 C 67.410156 21.617188 67.25 21.390625 67.128906 21.238281 C 67.003906 21.082031 66.890625 20.96875 66.792969 20.90625 C 66.695312 20.84375 66.59375 20.800781 66.496094 20.773438 C 66.417969 20.761719 66.296875 20.753906 66.128906 20.75 L 65.367188 20.75 L 65.367188 22.9375 Z M 65.367188 20.1875 L 66.78125 20.1875 C 67.078125 20.1875 67.3125 20.160156 67.484375 20.09375 C 67.652344 20.035156 67.78125 19.9375 67.871094 19.796875 C 67.957031 19.664062 68.003906 19.515625 68.003906 19.355469 C 68.003906 19.125 67.917969 18.933594 67.746094 18.78125 C 67.574219 18.636719 67.304688 18.558594 66.941406 18.558594 L 65.367188 18.558594 Z M 65.367188 20.1875 "/>
<path style=" stroke:none;fill-rule:nonzero;fill:rgb(0%,0%,0%);fill-opacity:1;" d="M 72.671875 22.355469 L 72.671875 22.9375 L 69.386719 22.9375 C 69.382812 22.792969 69.402344 22.652344 69.457031 22.519531 C 69.539062 22.296875 69.675781 22.082031 69.859375 21.863281 C 70.042969 21.652344 70.308594 21.402344 70.65625 21.117188 C 71.195312 20.675781 71.558594 20.332031 71.75 20.074219 C 71.9375 19.816406 72.035156 19.574219 72.035156 19.347656 C 72.035156 19.109375 71.945312 18.90625 71.777344 18.738281 C 71.601562 18.578125 71.378906 18.496094 71.101562 18.492188 C 70.804688 18.496094 70.570312 18.585938 70.394531 18.757812 C 70.21875 18.933594 70.128906 19.175781 70.128906 19.480469 L 69.5 19.417969 C 69.542969 18.953125 69.703125 18.601562 69.988281 18.359375 C 70.261719 18.117188 70.640625 17.996094 71.113281 17.992188 C 71.589844 17.996094 71.964844 18.128906 72.246094 18.386719 C 72.519531 18.648438 72.660156 18.972656 72.664062 19.359375 C 72.660156 19.558594 72.617188 19.753906 72.539062 19.941406 C 72.457031 20.132812 72.324219 20.332031 72.136719 20.542969 C 71.945312 20.753906 71.632812 21.042969 71.195312 21.410156 C 70.828125 21.714844 70.59375 21.921875 70.492188 22.03125 C 70.386719 22.140625 70.300781 22.246094 70.234375 22.355469 Z M 72.671875 22.355469 "/>
<path style="fill:none;stroke-width:0.0333333;stroke-linecap:butt;stroke-linejoin:miter;stroke:rgb(0%,0%,0%);stroke-opacity:1;stroke-miterlimit:10;" d="M 0.187827 1.162387 L 0.679962 0.670132 " transform="matrix(20.819672,0,0,20.64,20.698876,20.465361)"/>
<path style="fill:none;stroke-width:0.0333333;stroke-linecap:butt;stroke-linejoin:miter;stroke:rgb(0%,0%,0%);stroke-opacity:1;stroke-miterlimit:10;" d="M 0.668142 0.675052 L 1.63684 0.675052 " transform="matrix(20.819672,0,0,20.64,20.698876,20.465361)"/>
<path style="fill:none;stroke-width:0.0333333;stroke-linecap:butt;stroke-linejoin:miter;stroke:rgb(0%,0%,0%);stroke-opacity:1;stroke-miterlimit:10;" d="M 0.737187 0.508507 L 1.567795 0.508507 " transform="matrix(20.819672,0,0,20.64,20.698876,20.465361)"/>
<path style="fill:none;stroke-width:0.0333333;stroke-linecap:butt;stroke-linejoin:miter;stroke:rgb(0%,0%,0%);stroke-opacity:1;stroke-miterlimit:10;" d="M 1.62502 0.679973 L 2.106273 0.198883 " transform="matrix(20.819672,0,0,20.64,20.698876,20.465361)"/>
<path style=" stroke:none;fill-rule:nonzero;fill:rgb(0%,0%,0%);fill-opacity:1;" d="M 85.34375 35.046875 L 111.367188 35.046875 L 111.367188 36.980469 L 116.574219 34.398438 L 111.367188 31.820312 L 111.367188 33.753906 L 85.34375 33.753906 "/>
<path style=" stroke:none;fill-rule:nonzero;fill:rgb(0%,0%,0%);fill-opacity:1;" d="M 129.707031 30.464844 L 129.707031 25.539062 L 131.910156 25.539062 C 132.351562 25.539062 132.6875 25.585938 132.917969 25.671875 C 133.148438 25.761719 133.332031 25.917969 133.472656 26.140625 C 133.605469 26.367188 133.675781 26.613281 133.675781 26.882812 C 133.675781 27.234375 133.558594 27.53125 133.335938 27.765625 C 133.105469 28.007812 132.753906 28.160156 132.277344 28.222656 C 132.449219 28.308594 132.582031 28.390625 132.675781 28.46875 C 132.867188 28.644531 133.046875 28.863281 133.222656 29.125 L 134.082031 30.464844 L 133.257812 30.464844 L 132.601562 29.441406 C 132.410156 29.144531 132.25 28.921875 132.125 28.765625 C 132 28.609375 131.886719 28.5 131.789062 28.433594 C 131.691406 28.371094 131.589844 28.328125 131.492188 28.300781 C 131.417969 28.289062 131.292969 28.28125 131.125 28.277344 L 130.363281 28.277344 L 130.363281 30.464844 Z M 130.363281 27.714844 L 131.777344 27.714844 C 132.074219 27.714844 132.3125 27.6875 132.480469 27.621094 C 132.648438 27.5625 132.777344 27.464844 132.867188 27.328125 C 132.953125 27.191406 133 27.042969 133 26.882812 C 133 26.652344 132.914062 26.460938 132.746094 26.3125 C 132.570312 26.164062 132.300781 26.085938 131.9375 26.085938 L 130.363281 26.085938 Z M 130.363281 27.714844 "/>
<path style=" stroke:none;fill-rule:nonzero;fill:rgb(0%,0%,0%);fill-opacity:1;" d="M 136.757812 30.464844 L 136.148438 30.464844 L 136.148438 26.613281 C 136.003906 26.75 135.808594 26.890625 135.570312 27.03125 C 135.332031 27.171875 135.117188 27.277344 134.929688 27.339844 L 134.929688 26.757812 C 135.269531 26.597656 135.570312 26.40625 135.824219 26.179688 C 136.078125 25.957031 136.257812 25.734375 136.367188 25.519531 L 136.757812 25.519531 Z M 136.757812 30.464844 "/>
<path style=" stroke:none;fill-rule:nonzero;fill:rgb(0%,0%,0%);fill-opacity:1;" d="M 148.230469 47.992188 L 147.804688 47.992188 L 147.804688 45.292969 C 147.699219 45.394531 147.566406 45.492188 147.398438 45.585938 C 147.230469 45.683594 147.082031 45.757812 146.949219 45.804688 L 146.949219 45.394531 C 147.1875 45.285156 147.398438 45.148438 147.574219 44.992188 C 147.753906 44.832031 147.878906 44.679688 147.957031 44.527344 L 148.230469 44.527344 Z M 148.230469 47.992188 "/>
<path style=" stroke:none;fill-rule:nonzero;fill:rgb(0%,0%,0%);fill-opacity:1;" d="M 171.199219 47.863281 L 171.199219 48.269531 L 168.902344 48.269531 C 168.898438 48.167969 168.914062 48.070312 168.953125 47.976562 C 169.011719 47.824219 169.101562 47.671875 169.234375 47.519531 C 169.359375 47.371094 169.546875 47.195312 169.792969 46.996094 C 170.167969 46.691406 170.421875 46.449219 170.558594 46.265625 C 170.6875 46.089844 170.757812 45.917969 170.757812 45.757812 C 170.757812 45.589844 170.695312 45.449219 170.578125 45.332031 C 170.457031 45.21875 170.296875 45.15625 170.101562 45.15625 C 169.894531 45.15625 169.730469 45.21875 169.609375 45.34375 C 169.484375 45.46875 169.421875 45.636719 169.421875 45.851562 L 168.984375 45.804688 C 169.011719 45.484375 169.125 45.234375 169.324219 45.0625 C 169.519531 44.898438 169.785156 44.8125 170.113281 44.808594 C 170.445312 44.8125 170.707031 44.902344 170.902344 45.085938 C 171.097656 45.269531 171.195312 45.496094 171.195312 45.765625 C 171.195312 45.90625 171.164062 46.039062 171.109375 46.175781 C 171.050781 46.308594 170.957031 46.449219 170.828125 46.59375 C 170.691406 46.742188 170.476562 46.945312 170.171875 47.199219 C 169.914062 47.414062 169.75 47.5625 169.675781 47.636719 C 169.601562 47.714844 169.542969 47.789062 169.496094 47.863281 Z M 171.199219 47.863281 "/>
<path style=" stroke:none;fill-rule:nonzero;fill:rgb(0%,0%,0%);fill-opacity:1;" d="M 178.660156 27.652344 L 178.660156 22.726562 L 180.867188 22.726562 C 181.308594 22.726562 181.644531 22.769531 181.875 22.859375 C 182.105469 22.949219 182.289062 23.105469 182.425781 23.328125 C 182.5625 23.554688 182.628906 23.800781 182.632812 24.070312 C 182.628906 24.421875 182.515625 24.71875 182.292969 24.953125 C 182.0625 25.195312 181.707031 25.347656 181.234375 25.410156 C 181.40625 25.492188 181.539062 25.578125 181.628906 25.65625 C 181.824219 25.832031 182.003906 26.050781 182.175781 26.3125 L 183.039062 27.652344 L 182.210938 27.652344 L 181.558594 26.628906 C 181.363281 26.332031 181.203125 26.105469 181.082031 25.949219 C 180.953125 25.792969 180.84375 25.683594 180.746094 25.621094 C 180.644531 25.558594 180.546875 25.515625 180.449219 25.488281 C 180.371094 25.476562 180.25 25.464844 180.082031 25.464844 L 179.320312 25.464844 L 179.320312 27.652344 Z M 179.320312 24.898438 L 180.734375 24.898438 C 181.03125 24.902344 181.265625 24.871094 181.4375 24.808594 C 181.605469 24.75 181.734375 24.648438 181.824219 24.511719 C 181.910156 24.378906 181.957031 24.230469 181.957031 24.070312 C 181.957031 23.839844 181.867188 23.648438 181.699219 23.496094 C 181.527344 23.347656 181.257812 23.273438 180.894531 23.269531 L 179.320312 23.269531 Z M 179.320312 24.898438 "/>
<path style=" stroke:none;fill-rule:nonzero;fill:rgb(0%,0%,0%);fill-opacity:1;" d="M 186.621094 27.070312 L 186.621094 27.652344 L 183.339844 27.652344 C 183.335938 27.507812 183.355469 27.367188 183.410156 27.234375 C 183.492188 27.011719 183.628906 26.792969 183.8125 26.578125 C 183.996094 26.363281 184.261719 26.113281 184.609375 25.828125 C 185.148438 25.390625 185.511719 25.042969 185.703125 24.785156 C 185.890625 24.53125 185.984375 24.289062 185.988281 24.0625 C 185.984375 23.820312 185.898438 23.621094 185.726562 23.453125 C 185.554688 23.292969 185.328125 23.210938 185.054688 23.207031 C 184.757812 23.210938 184.523438 23.296875 184.347656 23.46875 C 184.171875 23.648438 184.082031 23.890625 184.078125 24.195312 L 183.453125 24.132812 C 183.496094 23.667969 183.65625 23.3125 183.9375 23.070312 C 184.214844 22.832031 184.59375 22.710938 185.066406 22.707031 C 185.542969 22.710938 185.917969 22.839844 186.195312 23.097656 C 186.472656 23.363281 186.613281 23.6875 186.613281 24.074219 C 186.613281 24.273438 186.570312 24.46875 186.492188 24.65625 C 186.410156 24.847656 186.277344 25.046875 186.089844 25.257812 C 185.898438 25.464844 185.585938 25.757812 185.148438 26.121094 C 184.78125 26.429688 184.546875 26.636719 184.441406 26.742188 C 184.335938 26.851562 184.253906 26.960938 184.1875 27.070312 Z M 186.621094 27.070312 "/>
<path style="fill:none;stroke-width:0.0333333;stroke-linecap:butt;stroke-linejoin:miter;stroke:rgb(0%,0%,0%);stroke-opacity:1;stroke-miterlimit:10;" d="M 0.185943 0.325718 L 0.74825 0.898408 " transform="matrix(20.819672,0,0,20.64,133.23028,25.179514)"/>
<path style="fill:none;stroke-width:0.0333333;stroke-linecap:butt;stroke-linejoin:miter;stroke:rgb(0%,0%,0%);stroke-opacity:1;stroke-miterlimit:10;" d="M 0.736242 0.893487 L 1.706441 0.893487 " transform="matrix(20.819672,0,0,20.64,133.23028,25.179514)"/>
<path style="fill:none;stroke-width:0.0333333;stroke-linecap:butt;stroke-linejoin:miter;stroke:rgb(0%,0%,0%);stroke-opacity:1;stroke-miterlimit:10;" d="M 0.806413 0.726753 L 1.623511 0.726753 " transform="matrix(20.819672,0,0,20.64,133.23028,25.179514)"/>
<path style="fill:none;stroke-width:0.0333333;stroke-linecap:butt;stroke-linejoin:miter;stroke:rgb(0%,0%,0%);stroke-opacity:1;stroke-miterlimit:10;" d="M 1.693119 0.900111 L 2.209458 0.216707 " transform="matrix(20.819672,0,0,20.64,133.23028,25.179514)"/>
</g>
</svg>
