<?xml version="1.0" encoding="UTF-8"?>
<svg xmlns="http://www.w3.org/2000/svg" xmlns:xlink="http://www.w3.org/1999/xlink" width="94.4pt" height="168pt" viewBox="0 0 94.4 168" version="1.1">
<g id="surface87">
<path style=" stroke:none;fill-rule:nonzero;fill:rgb(0%,0%,0%);fill-opacity:1;" d="M 71.511719 92.210938 C 71.511719 91.390625 71.730469 90.746094 72.171875 90.277344 C 72.613281 89.816406 73.179688 89.582031 73.875 89.578125 C 74.328125 89.582031 74.742188 89.691406 75.109375 89.90625 C 75.476562 90.125 75.753906 90.433594 75.945312 90.820312 C 76.136719 91.21875 76.234375 91.660156 76.234375 92.152344 C 76.234375 92.660156 76.128906 93.109375 75.929688 93.503906 C 75.726562 93.902344 75.441406 94.203125 75.074219 94.40625 C 74.703125 94.609375 74.300781 94.710938 73.875 94.710938 C 73.40625 94.710938 72.992188 94.597656 72.625 94.375 C 72.257812 94.148438 71.980469 93.839844 71.796875 93.449219 C 71.605469 93.0625 71.511719 92.648438 71.511719 92.210938 Z M 72.1875 92.222656 C 72.183594 92.820312 72.34375 93.289062 72.667969 93.632812 C 72.984375 93.980469 73.386719 94.15625 73.871094 94.152344 C 74.363281 94.15625 74.765625 93.980469 75.085938 93.632812 C 75.402344 93.285156 75.5625 92.789062 75.5625 92.152344 C 75.5625 91.746094 75.492188 91.394531 75.355469 91.09375 C 75.21875 90.792969 75.023438 90.558594 74.761719 90.394531 C 74.5 90.230469 74.207031 90.144531 73.882812 90.144531 C 73.414062 90.144531 73.015625 90.304688 72.683594 90.625 C 72.351562 90.945312 72.183594 91.476562 72.1875 92.222656 Z M 72.1875 92.222656 "/>
<path style=" stroke:none;fill-rule:nonzero;fill:rgb(0%,0%,0%);fill-opacity:1;" d="M 41.382812 113.480469 L 41.382812 108.519531 L 42.054688 108.519531 L 44.644531 112.414062 L 44.644531 108.519531 L 45.273438 108.519531 L 45.273438 113.480469 L 44.601562 113.480469 L 42.011719 109.582031 L 42.011719 113.480469 Z M 41.382812 113.480469 "/>
<path style=" stroke:none;fill-rule:nonzero;fill:rgb(0%,0%,0%);fill-opacity:1;" d="M 18.300781 39.640625 C 18.300781 38.820312 18.519531 38.175781 18.964844 37.707031 C 19.402344 37.246094 19.96875 37.011719 20.667969 37.007812 C 21.121094 37.011719 21.53125 37.121094 21.902344 37.335938 C 22.265625 37.554688 22.542969 37.863281 22.738281 38.25 C 22.925781 38.648438 23.023438 39.089844 23.023438 39.582031 C 23.023438 40.089844 22.921875 40.539062 22.722656 40.933594 C 22.515625 41.332031 22.230469 41.632812 21.863281 41.835938 C 21.492188 42.039062 21.09375 42.140625 20.664062 42.140625 C 20.199219 42.140625 19.78125 42.027344 19.414062 41.804688 C 19.050781 41.578125 18.773438 41.269531 18.585938 40.878906 C 18.394531 40.492188 18.300781 40.078125 18.300781 39.640625 Z M 18.976562 39.652344 C 18.972656 40.25 19.136719 40.71875 19.457031 41.0625 C 19.773438 41.410156 20.175781 41.585938 20.660156 41.582031 C 21.152344 41.585938 21.554688 41.410156 21.875 41.0625 C 22.191406 40.714844 22.351562 40.21875 22.351562 39.582031 C 22.351562 39.175781 22.28125 38.824219 22.148438 38.523438 C 22.007812 38.222656 21.8125 37.988281 21.550781 37.824219 C 21.289062 37.660156 20.996094 37.574219 20.671875 37.574219 C 20.207031 37.574219 19.808594 37.734375 19.476562 38.054688 C 19.140625 38.375 18.972656 38.90625 18.976562 39.652344 Z M 18.976562 39.652344 "/>
<path style=" stroke:none;fill-rule:nonzero;fill:rgb(0%,0%,0%);fill-opacity:1;" d="M 48.847656 20.785156 C 48.847656 19.964844 49.066406 19.320312 49.507812 18.851562 C 49.949219 18.386719 50.515625 18.15625 51.210938 18.152344 C 51.664062 18.15625 52.078125 18.261719 52.445312 18.480469 C 52.8125 18.699219 53.089844 19.003906 53.28125 19.394531 C 53.472656 19.789062 53.570312 20.234375 53.570312 20.726562 C 53.570312 21.234375 53.464844 21.683594 53.265625 22.078125 C 53.0625 22.476562 52.777344 22.777344 52.410156 22.980469 C 52.039062 23.183594 51.636719 23.28125 51.210938 23.285156 C 50.742188 23.28125 50.328125 23.171875 49.960938 22.945312 C 49.59375 22.722656 49.316406 22.414062 49.132812 22.023438 C 48.941406 21.632812 48.847656 21.222656 48.847656 20.785156 Z M 49.523438 20.792969 C 49.519531 21.394531 49.679688 21.863281 50.003906 22.207031 C 50.320312 22.554688 50.722656 22.726562 51.207031 22.726562 C 51.699219 22.726562 52.101562 22.554688 52.421875 22.207031 C 52.738281 21.859375 52.898438 21.363281 52.898438 20.722656 C 52.898438 20.320312 52.828125 19.96875 52.691406 19.664062 C 52.554688 19.367188 52.359375 19.132812 52.097656 18.96875 C 51.835938 18.800781 51.542969 18.71875 51.21875 18.71875 C 50.75 18.71875 50.351562 18.878906 50.019531 19.199219 C 49.6875 19.515625 49.519531 20.050781 49.523438 20.792969 Z M 49.523438 20.792969 "/>
<path style=" stroke:none;fill-rule:nonzero;fill:rgb(0%,0%,0%);fill-opacity:1;" d="M 45.839844 147.746094 L 46.496094 147.914062 C 46.355469 148.453125 46.109375 148.863281 45.753906 149.144531 C 45.398438 149.425781 44.960938 149.566406 44.449219 149.570312 C 43.914062 149.566406 43.484375 149.460938 43.148438 149.246094 C 42.816406 149.027344 42.558594 148.710938 42.386719 148.296875 C 42.210938 147.886719 42.125 147.441406 42.128906 146.96875 C 42.125 146.453125 42.226562 146.003906 42.421875 145.617188 C 42.617188 145.234375 42.894531 144.941406 43.261719 144.742188 C 43.621094 144.542969 44.023438 144.441406 44.460938 144.441406 C 44.953125 144.441406 45.367188 144.570312 45.707031 144.820312 C 46.042969 145.074219 46.277344 145.429688 46.410156 145.886719 L 45.769531 146.039062 C 45.648438 145.679688 45.480469 145.417969 45.265625 145.25 C 45.046875 145.085938 44.773438 145.003906 44.445312 145.003906 C 44.0625 145.003906 43.746094 145.09375 43.492188 145.277344 C 43.238281 145.460938 43.058594 145.707031 42.957031 146.011719 C 42.855469 146.320312 42.800781 146.636719 42.800781 146.964844 C 42.800781 147.386719 42.863281 147.757812 42.984375 148.070312 C 43.105469 148.386719 43.296875 148.621094 43.554688 148.777344 C 43.8125 148.933594 44.09375 149.011719 44.394531 149.011719 C 44.761719 149.011719 45.070312 148.90625 45.324219 148.691406 C 45.578125 148.480469 45.75 148.164062 45.839844 147.746094 Z M 45.839844 147.746094 "/>
<path style="fill:none;stroke-width:0.0333333;stroke-linecap:butt;stroke-linejoin:miter;stroke:rgb(0%,0%,0%);stroke-opacity:1;stroke-miterlimit:10;" d="M 1.205028 4.521498 L 1.623546 5.202534 " transform="matrix(20.701754,0,0,20.792079,20.663178,20.71912)"/>
<path style="fill:none;stroke-width:0.0333333;stroke-linecap:butt;stroke-linejoin:miter;stroke:rgb(0%,0%,0%);stroke-opacity:1;stroke-miterlimit:10;" d="M 1.525049 3.547382 L 2.410768 3.522958 " transform="matrix(20.701754,0,0,20.792079,20.663178,20.71912)"/>
<path style="fill:none;stroke-width:0.0333333;stroke-linecap:butt;stroke-linejoin:miter;stroke:rgb(0%,0%,0%);stroke-opacity:1;stroke-miterlimit:10;" d="M 1.520332 3.380927 L 2.40624 3.356504 " transform="matrix(20.701754,0,0,20.792079,20.663178,20.71912)"/>
<path style="fill:none;stroke-width:0.0333333;stroke-linecap:butt;stroke-linejoin:miter;stroke:rgb(0%,0%,0%);stroke-opacity:1;stroke-miterlimit:10;" d="M 1.57543 3.454197 L 1.194084 4.158905 " transform="matrix(20.701754,0,0,20.792079,20.663178,20.71912)"/>
<path style="fill:none;stroke-width:0.0333333;stroke-linecap:butt;stroke-linejoin:miter;stroke:rgb(0%,0%,0%);stroke-opacity:1;stroke-miterlimit:10;" d="M 1.042565 2.619482 L 1.527691 1.722957 " transform="matrix(20.701754,0,0,20.792079,20.663178,20.71912)"/>
<path style="fill:none;stroke-width:0.0333333;stroke-linecap:butt;stroke-linejoin:miter;stroke:rgb(0%,0%,0%);stroke-opacity:1;stroke-miterlimit:10;" d="M 0.941803 2.45547 L 1.335414 1.728217 " transform="matrix(20.701754,0,0,20.792079,20.663178,20.71912)"/>
<path style="fill:none;stroke-width:0.0333333;stroke-linecap:butt;stroke-linejoin:miter;stroke:rgb(0%,0%,0%);stroke-opacity:1;stroke-miterlimit:10;" d="M 1.528257 1.739489 L 0.994637 0.871145 " transform="matrix(20.701754,0,0,20.792079,20.663178,20.71912)"/>
<path style="fill:none;stroke-width:0.0333333;stroke-linecap:butt;stroke-linejoin:miter;stroke:rgb(0%,0%,0%);stroke-opacity:1;stroke-miterlimit:10;" d="M 1.009166 0.879223 L 0.160242 0.902519 " transform="matrix(20.701754,0,0,20.792079,20.663178,20.71912)"/>
<path style="fill:none;stroke-width:0.0333333;stroke-linecap:butt;stroke-linejoin:miter;stroke:rgb(0%,0%,0%);stroke-opacity:1;stroke-miterlimit:10;" d="M 1.050112 0.961323 L 1.443346 0.234634 " transform="matrix(20.701754,0,0,20.792079,20.663178,20.71912)"/>
<path style="fill:none;stroke-width:0.0333333;stroke-linecap:butt;stroke-linejoin:miter;stroke:rgb(0%,0%,0%);stroke-opacity:1;stroke-miterlimit:10;" d="M 0.903499 0.882041 L 1.296732 0.155165 " transform="matrix(20.701754,0,0,20.792079,20.663178,20.71912)"/>
<path style="fill:none;stroke-width:0.0333333;stroke-linecap:butt;stroke-linejoin:miter;stroke:rgb(0%,0%,0%);stroke-opacity:1;stroke-miterlimit:10;" d="M 1.62298 5.185814 L 1.245786 5.882443 " transform="matrix(20.701754,0,0,20.792079,20.663178,20.71912)"/>
<path style="fill:none;stroke-width:0.0333333;stroke-linecap:butt;stroke-linejoin:miter;stroke:rgb(0%,0%,0%);stroke-opacity:1;stroke-miterlimit:10;" d="M 1.575807 3.470918 L 1.042187 2.602761 " transform="matrix(20.701754,0,0,20.792079,20.663178,20.71912)"/>
</g>
</svg>
