<?xml version="1.0" encoding="UTF-8"?>
<svg xmlns="http://www.w3.org/2000/svg" xmlns:xlink="http://www.w3.org/1999/xlink" width="103.2pt" height="182.4pt" viewBox="0 0 103.2 182.4" version="1.1">
<g id="surface362">
<path style=" stroke:none;fill-rule:nonzero;fill:rgb(0%,0%,0%);fill-opacity:1;" d="M 28.097656 89.71875 C 28.097656 88.898438 28.320312 88.253906 28.761719 87.785156 C 29.203125 87.320312 29.773438 87.089844 30.476562 87.085938 C 30.929688 87.089844 31.34375 87.199219 31.714844 87.414062 C 32.082031 87.632812 32.359375 87.9375 32.554688 88.328125 C 32.746094 88.722656 32.84375 89.167969 32.847656 89.660156 C 32.84375 90.167969 32.742188 90.617188 32.539062 91.011719 C 32.335938 91.410156 32.046875 91.710938 31.679688 91.914062 C 31.304688 92.117188 30.902344 92.214844 30.472656 92.21875 C 30.003906 92.214844 29.585938 92.105469 29.21875 91.878906 C 28.851562 91.65625 28.570312 91.347656 28.382812 90.957031 C 28.191406 90.566406 28.097656 90.15625 28.097656 89.71875 Z M 28.777344 89.726562 C 28.773438 90.328125 28.9375 90.796875 29.257812 91.140625 C 29.578125 91.488281 29.984375 91.660156 30.46875 91.660156 C 30.964844 91.660156 31.371094 91.488281 31.6875 91.140625 C 32.007812 90.792969 32.167969 90.296875 32.167969 89.65625 C 32.167969 89.253906 32.097656 88.902344 31.960938 88.597656 C 31.824219 88.300781 31.625 88.066406 31.363281 87.902344 C 31.101562 87.734375 30.804688 87.652344 30.480469 87.652344 C 30.011719 87.652344 29.609375 87.8125 29.277344 88.132812 C 28.941406 88.449219 28.773438 88.984375 28.777344 89.726562 Z M 28.777344 89.726562 "/>
<path style=" stroke:none;fill-rule:nonzero;fill:rgb(0%,0%,0%);fill-opacity:1;" d="M 59.527344 73.785156 L 59.527344 68.824219 L 60.203125 68.824219 L 62.808594 72.71875 L 62.808594 68.824219 L 63.441406 68.824219 L 63.441406 73.785156 L 62.765625 73.785156 L 60.160156 69.886719 L 60.160156 73.785156 Z M 59.527344 73.785156 "/>
<path style=" stroke:none;fill-rule:nonzero;fill:rgb(0%,0%,0%);fill-opacity:1;" d="M 84.21875 107.832031 L 84.878906 108 C 84.738281 108.542969 84.492188 108.953125 84.132812 109.234375 C 83.777344 109.515625 83.335938 109.65625 82.820312 109.65625 C 82.285156 109.65625 81.851562 109.550781 81.515625 109.332031 C 81.179688 109.117188 80.921875 108.800781 80.75 108.386719 C 80.574219 107.972656 80.488281 107.53125 80.488281 107.054688 C 80.488281 106.542969 80.585938 106.09375 80.785156 105.707031 C 80.980469 105.320312 81.257812 105.027344 81.628906 104.828125 C 81.992188 104.628906 82.394531 104.53125 82.832031 104.527344 C 83.328125 104.53125 83.746094 104.65625 84.085938 104.90625 C 84.421875 105.160156 84.660156 105.515625 84.792969 105.972656 L 84.148438 106.125 C 84.027344 105.769531 83.859375 105.503906 83.644531 105.335938 C 83.421875 105.175781 83.148438 105.089844 82.820312 105.089844 C 82.433594 105.089844 82.113281 105.183594 81.859375 105.363281 C 81.601562 105.546875 81.425781 105.792969 81.320312 106.101562 C 81.21875 106.410156 81.167969 106.726562 81.167969 107.054688 C 81.167969 107.476562 81.226562 107.84375 81.351562 108.15625 C 81.46875 108.476562 81.664062 108.710938 81.921875 108.863281 C 82.183594 109.023438 82.464844 109.101562 82.769531 109.097656 C 83.136719 109.101562 83.449219 108.996094 83.703125 108.78125 C 83.957031 108.570312 84.128906 108.253906 84.21875 107.832031 Z M 84.21875 107.832031 "/>
<path style="fill:none;stroke-width:0.0333333;stroke-linecap:butt;stroke-linejoin:miter;stroke:rgb(0%,0%,0%);stroke-opacity:1;stroke-miterlimit:10;" d="M 1.855459 2.258681 L 1.453128 1.578901 " transform="matrix(20.806452,0,0,20.790274,20.656194,20.592183)"/>
<path style="fill:none;stroke-width:0.0333333;stroke-linecap:butt;stroke-linejoin:miter;stroke:rgb(0%,0%,0%);stroke-opacity:1;stroke-miterlimit:10;" d="M 1.519025 3.227058 L 0.630066 3.236828 " transform="matrix(20.806452,0,0,20.790274,20.656194,20.592183)"/>
<path style="fill:none;stroke-width:0.0333333;stroke-linecap:butt;stroke-linejoin:miter;stroke:rgb(0%,0%,0%);stroke-opacity:1;stroke-miterlimit:10;" d="M 1.520715 3.393715 L 0.631943 3.403485 " transform="matrix(20.806452,0,0,20.790274,20.656194,20.592183)"/>
<path style="fill:none;stroke-width:0.0333333;stroke-linecap:butt;stroke-linejoin:miter;stroke:rgb(0%,0%,0%);stroke-opacity:1;stroke-miterlimit:10;" d="M 1.467208 3.319311 L 1.859777 2.621681 " transform="matrix(20.806452,0,0,20.790274,20.656194,20.592183)"/>
<path style="fill:none;stroke-width:0.0333333;stroke-linecap:butt;stroke-linejoin:miter;stroke:rgb(0%,0%,0%);stroke-opacity:1;stroke-miterlimit:10;" d="M 1.519025 6.774765 L 0.499773 6.785851 " transform="matrix(20.806452,0,0,20.790274,20.656194,20.592183)"/>
<path style="fill:none;stroke-width:0.0333333;stroke-linecap:butt;stroke-linejoin:miter;stroke:rgb(0%,0%,0%);stroke-opacity:1;stroke-miterlimit:10;" d="M 1.420836 6.609048 L 0.594207 6.618066 " transform="matrix(20.806452,0,0,20.790274,20.656194,20.592183)"/>
<path style="fill:none;stroke-width:0.0333333;stroke-linecap:butt;stroke-linejoin:miter;stroke:rgb(0%,0%,0%);stroke-opacity:1;stroke-miterlimit:10;" d="M 0.514229 6.794118 L -0.00487859 5.916867 " transform="matrix(20.806452,0,0,20.790274,20.656194,20.592183)"/>
<path style="fill:none;stroke-width:0.0333333;stroke-linecap:butt;stroke-linejoin:miter;stroke:rgb(0%,0%,0%);stroke-opacity:1;stroke-miterlimit:10;" d="M -0.00469085 5.933401 L 0.495455 5.045253 " transform="matrix(20.806452,0,0,20.790274,20.656194,20.592183)"/>
<path style="fill:none;stroke-width:0.0333333;stroke-linecap:butt;stroke-linejoin:miter;stroke:rgb(0%,0%,0%);stroke-opacity:1;stroke-miterlimit:10;" d="M 0.187745 5.931335 L 0.593268 5.210971 " transform="matrix(20.806452,0,0,20.790274,20.656194,20.592183)"/>
<path style="fill:none;stroke-width:0.0333333;stroke-linecap:butt;stroke-linejoin:miter;stroke:rgb(0%,0%,0%);stroke-opacity:1;stroke-miterlimit:10;" d="M 0.480998 5.053708 L 1.500251 5.042811 " transform="matrix(20.806452,0,0,20.790274,20.656194,20.592183)"/>
<path style="fill:none;stroke-width:0.0333333;stroke-linecap:butt;stroke-linejoin:miter;stroke:rgb(0%,0%,0%);stroke-opacity:1;stroke-miterlimit:10;" d="M 1.490488 5.042811 L 2.004714 5.911794 " transform="matrix(20.806452,0,0,20.790274,20.656194,20.592183)"/>
<path style="fill:none;stroke-width:0.0333333;stroke-linecap:butt;stroke-linejoin:miter;stroke:rgb(0%,0%,0%);stroke-opacity:1;stroke-miterlimit:10;" d="M 1.396242 5.210595 L 1.812466 5.913861 " transform="matrix(20.806452,0,0,20.790274,20.656194,20.592183)"/>
<path style="fill:none;stroke-width:0.0333333;stroke-linecap:butt;stroke-linejoin:miter;stroke:rgb(0%,0%,0%);stroke-opacity:1;stroke-miterlimit:10;" d="M 2.004527 5.895072 L 1.504569 6.78322 " transform="matrix(20.806452,0,0,20.790274,20.656194,20.592183)"/>
<path style="fill:none;stroke-width:0.0333333;stroke-linecap:butt;stroke-linejoin:miter;stroke:rgb(0%,0%,0%);stroke-opacity:1;stroke-miterlimit:10;" d="M 1.485795 5.051266 L 1.98594 4.163117 " transform="matrix(20.806452,0,0,20.790274,20.656194,20.592183)"/>
<path style="fill:none;stroke-width:0.0333333;stroke-linecap:butt;stroke-linejoin:miter;stroke:rgb(0%,0%,0%);stroke-opacity:1;stroke-miterlimit:10;" d="M 2.052025 4.180403 L 2.051838 4.161051 M 2.122992 4.189422 L 2.122617 4.150341 M 2.193959 4.198252 L 2.193208 4.140007 M 2.264925 4.207271 L 2.263986 4.129485 M 2.335704 4.216102 L 2.334765 4.118964 M 2.406671 4.22512 L 2.405356 4.108442 M 2.477637 4.234139 L 2.476323 4.098108 M 2.548604 4.243158 L 2.546914 4.087586 M 2.619383 4.251989 L 2.617693 4.077064 M 2.690349 4.261007 L 2.688284 4.066543 M 2.761316 4.270026 L 2.759063 4.056021 M 2.832282 4.278857 L 2.829842 4.045687 " transform="matrix(20.806452,0,0,20.790274,20.656194,20.592183)"/>
<path style="fill:none;stroke-width:0.0333333;stroke-linecap:butt;stroke-linejoin:miter;stroke:rgb(0%,0%,0%);stroke-opacity:1;stroke-miterlimit:10;" d="M 1.453128 1.578901 L 1.854521 0.649981 " transform="matrix(20.806452,0,0,20.790274,20.656194,20.592183)"/>
<path style="fill:none;stroke-width:0.0333333;stroke-linecap:butt;stroke-linejoin:miter;stroke:rgb(0%,0%,0%);stroke-opacity:1;stroke-miterlimit:10;" d="M 0.445327 1.484017 L 1.453128 1.578901 " transform="matrix(20.806452,0,0,20.790274,20.656194,20.592183)"/>
<path style="fill:none;stroke-width:0.0333333;stroke-linecap:butt;stroke-linejoin:miter;stroke:rgb(0%,0%,0%);stroke-opacity:1;stroke-miterlimit:10;" d="M 0.460159 1.496982 L 0.236182 0.497604 " transform="matrix(20.806452,0,0,20.790274,20.656194,20.592183)"/>
<path style="fill:none;stroke-width:0.0333333;stroke-linecap:butt;stroke-linejoin:miter;stroke:rgb(0%,0%,0%);stroke-opacity:1;stroke-miterlimit:10;" d="M 1.858839 0.669146 L 1.090222 -0.00800383 " transform="matrix(20.806452,0,0,20.790274,20.656194,20.592183)"/>
<path style="fill:none;stroke-width:0.0333333;stroke-linecap:butt;stroke-linejoin:miter;stroke:rgb(0%,0%,0%);stroke-opacity:1;stroke-miterlimit:10;" d="M 1.109747 -0.00631284 L 0.228485 0.515453 " transform="matrix(20.806452,0,0,20.790274,20.656194,20.592183)"/>
<path style="fill:none;stroke-width:0.0333333;stroke-linecap:butt;stroke-linejoin:miter;stroke:rgb(0%,0%,0%);stroke-opacity:1;stroke-miterlimit:10;" d="M 1.466833 3.302589 L 1.98594 4.179652 " transform="matrix(20.806452,0,0,20.790274,20.656194,20.592183)"/>
</g>
</svg>
