<?xml version="1.0" encoding="UTF-8"?>
<svg xmlns="http://www.w3.org/2000/svg" xmlns:xlink="http://www.w3.org/1999/xlink" width="366.4pt" height="93.6pt" viewBox="0 0 366.4 93.6" version="1.1">
<g id="surface1352">
<path style=" stroke:none;fill-rule:nonzero;fill:rgb(0%,0%,0%);fill-opacity:1;" d="M 18.625 54.398438 L 18.625 49.441406 L 19.300781 49.441406 L 21.914062 53.335938 L 21.914062 49.441406 L 22.546875 49.441406 L 22.546875 54.398438 L 21.871094 54.398438 L 19.257812 50.507812 L 19.257812 54.398438 Z M 18.625 54.398438 "/>
<path style=" stroke:none;fill-rule:nonzero;fill:rgb(0%,0%,0%);fill-opacity:1;" d="M 35.109375 64.796875 L 35.109375 59.839844 L 37.316406 59.839844 C 37.761719 59.839844 38.097656 59.882812 38.328125 59.972656 C 38.558594 60.0625 38.742188 60.21875 38.882812 60.445312 C 39.015625 60.671875 39.085938 60.921875 39.089844 61.191406 C 39.085938 61.546875 38.972656 61.84375 38.746094 62.082031 C 38.515625 62.324219 38.164062 62.476562 37.6875 62.539062 C 37.859375 62.625 37.992188 62.707031 38.082031 62.785156 C 38.277344 62.964844 38.457031 63.183594 38.632812 63.445312 L 39.496094 64.796875 L 38.667969 64.796875 L 38.011719 63.765625 C 37.816406 63.46875 37.65625 63.242188 37.535156 63.082031 C 37.40625 62.925781 37.296875 62.816406 37.199219 62.75 C 37.097656 62.6875 36.996094 62.644531 36.898438 62.617188 C 36.824219 62.605469 36.703125 62.597656 36.535156 62.59375 L 35.769531 62.59375 L 35.769531 64.796875 Z M 35.769531 62.027344 L 37.183594 62.027344 C 37.484375 62.027344 37.71875 62 37.890625 61.933594 C 38.058594 61.875 38.1875 61.773438 38.277344 61.636719 C 38.363281 61.5 38.410156 61.351562 38.410156 61.191406 C 38.410156 60.957031 38.324219 60.765625 38.152344 60.613281 C 37.980469 60.464844 37.710938 60.390625 37.34375 60.386719 L 35.769531 60.386719 Z M 35.769531 62.027344 "/>
<path style=" stroke:none;fill-rule:nonzero;fill:rgb(0%,0%,0%);fill-opacity:1;" d="M 42.175781 64.796875 L 41.5625 64.796875 L 41.5625 60.917969 C 41.417969 61.058594 41.222656 61.199219 40.984375 61.339844 C 40.746094 61.480469 40.53125 61.585938 40.339844 61.652344 L 40.339844 61.0625 C 40.683594 60.902344 40.980469 60.710938 41.238281 60.480469 C 41.492188 60.257812 41.671875 60.035156 41.78125 59.820312 L 42.175781 59.820312 Z M 42.175781 64.796875 "/>
<path style=" stroke:none;fill-rule:nonzero;fill:rgb(0%,0%,0%);fill-opacity:1;" d="M 72.375 62.371094 C 72.371094 61.554688 72.59375 60.910156 73.039062 60.441406 C 73.480469 59.980469 74.050781 59.746094 74.753906 59.742188 C 75.210938 59.746094 75.625 59.855469 76 60.070312 C 76.363281 60.289062 76.644531 60.597656 76.839844 60.984375 C 77.03125 61.378906 77.128906 61.824219 77.128906 62.316406 C 77.128906 62.820312 77.023438 63.269531 76.824219 63.664062 C 76.617188 64.0625 76.328125 64.363281 75.960938 64.566406 C 75.585938 64.769531 75.183594 64.867188 74.753906 64.871094 C 74.28125 64.867188 73.863281 64.757812 73.496094 64.535156 C 73.125 64.308594 72.847656 64 72.660156 63.609375 C 72.464844 63.222656 72.371094 62.8125 72.375 62.371094 Z M 73.054688 62.382812 C 73.050781 62.980469 73.214844 63.453125 73.535156 63.796875 C 73.855469 64.140625 74.261719 64.3125 74.75 64.3125 C 75.242188 64.3125 75.652344 64.140625 75.972656 63.792969 C 76.292969 63.445312 76.453125 62.953125 76.453125 62.3125 C 76.453125 61.910156 76.382812 61.558594 76.246094 61.253906 C 76.105469 60.957031 75.910156 60.722656 75.644531 60.558594 C 75.382812 60.394531 75.085938 60.308594 74.761719 60.308594 C 74.289062 60.308594 73.890625 60.46875 73.554688 60.789062 C 73.21875 61.105469 73.050781 61.640625 73.054688 62.382812 Z M 73.054688 62.382812 "/>
<path style=" stroke:none;fill-rule:nonzero;fill:rgb(0%,0%,0%);fill-opacity:1;" d="M 54.316406 31.21875 C 54.316406 30.398438 54.539062 29.753906 54.984375 29.289062 C 55.425781 28.824219 55.996094 28.59375 56.699219 28.589844 C 57.15625 28.59375 57.570312 28.699219 57.941406 28.917969 C 58.308594 29.136719 58.589844 29.441406 58.785156 29.832031 C 58.972656 30.226562 59.070312 30.667969 59.074219 31.160156 C 59.070312 31.667969 58.96875 32.117188 58.769531 32.511719 C 58.5625 32.910156 58.273438 33.210938 57.902344 33.410156 C 57.53125 33.613281 57.128906 33.714844 56.695312 33.71875 C 56.226562 33.714844 55.808594 33.605469 55.4375 33.378906 C 55.070312 33.15625 54.789062 32.847656 54.601562 32.457031 C 54.410156 32.066406 54.316406 31.65625 54.316406 31.21875 Z M 54.996094 31.230469 C 54.992188 31.828125 55.15625 32.296875 55.480469 32.640625 C 55.800781 32.988281 56.203125 33.160156 56.695312 33.15625 C 57.1875 33.160156 57.59375 32.988281 57.914062 32.636719 C 58.234375 32.292969 58.394531 31.796875 58.394531 31.160156 C 58.394531 30.757812 58.324219 30.40625 58.1875 30.101562 C 58.050781 29.800781 57.851562 29.570312 57.589844 29.402344 C 57.324219 29.238281 57.03125 29.15625 56.703125 29.15625 C 56.234375 29.15625 55.832031 29.316406 55.5 29.632812 C 55.164062 29.953125 54.992188 30.484375 54.996094 31.230469 Z M 54.996094 31.230469 "/>
<path style="fill:none;stroke-width:0.0333333;stroke-linecap:butt;stroke-linejoin:miter;stroke:rgb(0%,0%,0%);stroke-opacity:1;stroke-miterlimit:10;" d="M 0.17337 1.100206 L 0.635943 1.367277 " transform="matrix(20.849772,0,0,20.769231,20.584492,31.153483)"/>
<path style="fill:none;stroke-width:0.0333333;stroke-linecap:butt;stroke-linejoin:miter;stroke:rgb(0%,0%,0%);stroke-opacity:1;stroke-miterlimit:10;" d="M 1.096267 1.367277 L 1.740384 0.995258 " transform="matrix(20.849772,0,0,20.769231,20.584492,31.153483)"/>
<path style="fill:none;stroke-width:0.0333333;stroke-linecap:butt;stroke-linejoin:miter;stroke:rgb(0%,0%,0%);stroke-opacity:1;stroke-miterlimit:10;" d="M 1.723709 0.995258 L 2.407732 1.390035 " transform="matrix(20.849772,0,0,20.769231,20.584492,31.153483)"/>
<path style="fill:none;stroke-width:0.0333333;stroke-linecap:butt;stroke-linejoin:miter;stroke:rgb(0%,0%,0%);stroke-opacity:1;stroke-miterlimit:10;" d="M 1.815324 1.048108 L 1.815324 0.166771 " transform="matrix(20.849772,0,0,20.769231,20.584492,31.153483)"/>
<path style="fill:none;stroke-width:0.0333333;stroke-linecap:butt;stroke-linejoin:miter;stroke:rgb(0%,0%,0%);stroke-opacity:1;stroke-miterlimit:10;" d="M 1.648581 1.048108 L 1.648581 0.166771 " transform="matrix(20.849772,0,0,20.769231,20.584492,31.153483)"/>
<path style="fill:none;stroke-width:0.0625;stroke-linecap:butt;stroke-linejoin:miter;stroke:rgb(0%,0%,0%);stroke-opacity:1;stroke-miterlimit:10;" d="M 0.0000469311 -0.0000146009 L 0.499903 -0.0000146009 M 0.249975 -0.249971 L 0.249975 0.249942 " transform="matrix(20.849772,0,0,20.769231,91.432615,46.730772)"/>
<path style=" stroke:none;fill-rule:nonzero;fill:rgb(0%,0%,0%);fill-opacity:1;" d="M 116.578125 54.398438 L 116.578125 49.441406 L 117.253906 49.441406 L 119.863281 53.335938 L 119.863281 49.441406 L 120.496094 49.441406 L 120.496094 54.398438 L 119.820312 54.398438 L 117.210938 50.507812 L 117.210938 54.398438 Z M 116.578125 54.398438 "/>
<path style=" stroke:none;fill-rule:nonzero;fill:rgb(0%,0%,0%);fill-opacity:1;" d="M 132.609375 64.796875 L 132.609375 59.839844 L 134.816406 59.839844 C 135.257812 59.839844 135.59375 59.882812 135.824219 59.972656 C 136.054688 60.0625 136.238281 60.21875 136.378906 60.445312 C 136.515625 60.671875 136.582031 60.921875 136.585938 61.191406 C 136.582031 61.546875 136.46875 61.84375 136.242188 62.082031 C 136.011719 62.324219 135.660156 62.476562 135.183594 62.539062 C 135.355469 62.625 135.488281 62.707031 135.582031 62.785156 C 135.773438 62.964844 135.957031 63.183594 136.128906 63.445312 L 136.992188 64.796875 L 136.164062 64.796875 L 135.507812 63.765625 C 135.316406 63.46875 135.15625 63.242188 135.03125 63.082031 C 134.90625 62.925781 134.792969 62.816406 134.695312 62.75 C 134.59375 62.6875 134.496094 62.644531 134.398438 62.617188 C 134.320312 62.605469 134.199219 62.597656 134.03125 62.59375 L 133.265625 62.59375 L 133.265625 64.796875 Z M 133.265625 62.027344 L 134.683594 62.027344 C 134.980469 62.027344 135.214844 62 135.386719 61.933594 C 135.554688 61.875 135.683594 61.773438 135.773438 61.636719 C 135.859375 61.5 135.90625 61.351562 135.90625 61.191406 C 135.90625 60.957031 135.820312 60.765625 135.652344 60.613281 C 135.476562 60.464844 135.207031 60.390625 134.84375 60.386719 L 133.265625 60.386719 Z M 133.265625 62.027344 "/>
<path style=" stroke:none;fill-rule:nonzero;fill:rgb(0%,0%,0%);fill-opacity:1;" d="M 140.582031 64.210938 L 140.582031 64.796875 L 137.292969 64.796875 C 137.289062 64.648438 137.308594 64.507812 137.363281 64.375 C 137.445312 64.152344 137.582031 63.933594 137.765625 63.714844 C 137.949219 63.5 138.214844 63.25 138.5625 62.960938 C 139.105469 62.519531 139.46875 62.171875 139.660156 61.914062 C 139.847656 61.65625 139.941406 61.414062 139.945312 61.183594 C 139.941406 60.941406 139.855469 60.738281 139.683594 60.570312 C 139.511719 60.410156 139.285156 60.324219 139.007812 60.324219 C 138.710938 60.324219 138.480469 60.414062 138.304688 60.585938 C 138.125 60.765625 138.035156 61.007812 138.035156 61.316406 L 137.40625 61.253906 C 137.449219 60.789062 137.609375 60.429688 137.894531 60.1875 C 138.167969 59.945312 138.546875 59.824219 139.023438 59.820312 C 139.496094 59.824219 139.875 59.953125 140.15625 60.214844 C 140.429688 60.480469 140.570312 60.808594 140.574219 61.195312 C 140.570312 61.394531 140.527344 61.589844 140.449219 61.78125 C 140.367188 61.976562 140.234375 62.175781 140.046875 62.386719 C 139.855469 62.597656 139.539062 62.890625 139.105469 63.257812 C 138.738281 63.566406 138.5 63.773438 138.398438 63.882812 C 138.292969 63.992188 138.207031 64.101562 138.140625 64.210938 Z M 140.582031 64.210938 "/>
<path style=" stroke:none;fill-rule:nonzero;fill:rgb(0%,0%,0%);fill-opacity:1;" d="M 170.328125 62.371094 C 170.324219 61.554688 170.546875 60.910156 170.992188 60.441406 C 171.433594 59.980469 172.003906 59.746094 172.707031 59.742188 C 173.164062 59.746094 173.578125 59.855469 173.953125 60.070312 C 174.316406 60.289062 174.597656 60.597656 174.792969 60.984375 C 174.984375 61.378906 175.082031 61.824219 175.082031 62.316406 C 175.082031 62.820312 174.976562 63.269531 174.777344 63.664062 C 174.570312 64.0625 174.28125 64.363281 173.914062 64.566406 C 173.539062 64.769531 173.136719 64.867188 172.707031 64.871094 C 172.234375 64.867188 171.816406 64.757812 171.449219 64.535156 C 171.078125 64.308594 170.800781 64 170.613281 63.609375 C 170.417969 63.222656 170.324219 62.8125 170.328125 62.371094 Z M 171.007812 62.382812 C 171.003906 62.980469 171.167969 63.453125 171.488281 63.796875 C 171.808594 64.140625 172.214844 64.3125 172.703125 64.3125 C 173.195312 64.3125 173.605469 64.140625 173.925781 63.792969 C 174.246094 63.445312 174.40625 62.953125 174.40625 62.3125 C 174.40625 61.910156 174.335938 61.558594 174.199219 61.253906 C 174.058594 60.957031 173.863281 60.722656 173.597656 60.558594 C 173.335938 60.394531 173.039062 60.308594 172.714844 60.308594 C 172.242188 60.308594 171.84375 60.46875 171.507812 60.789062 C 171.171875 61.105469 171.003906 61.640625 171.007812 62.382812 Z M 171.007812 62.382812 "/>
<path style=" stroke:none;fill-rule:nonzero;fill:rgb(0%,0%,0%);fill-opacity:1;" d="M 152.269531 31.21875 C 152.269531 30.398438 152.492188 29.753906 152.9375 29.289062 C 153.378906 28.824219 153.949219 28.59375 154.652344 28.589844 C 155.109375 28.59375 155.523438 28.699219 155.894531 28.917969 C 156.261719 29.136719 156.542969 29.441406 156.738281 29.832031 C 156.925781 30.226562 157.023438 30.667969 157.027344 31.160156 C 157.023438 31.667969 156.921875 32.117188 156.722656 32.511719 C 156.515625 32.910156 156.226562 33.210938 155.859375 33.410156 C 155.484375 33.613281 155.082031 33.714844 154.648438 33.71875 C 154.179688 33.714844 153.761719 33.605469 153.390625 33.378906 C 153.023438 33.15625 152.742188 32.847656 152.554688 32.457031 C 152.363281 32.066406 152.269531 31.65625 152.269531 31.21875 Z M 152.949219 31.230469 C 152.945312 31.828125 153.109375 32.296875 153.433594 32.640625 C 153.753906 32.988281 154.15625 33.160156 154.648438 33.15625 C 155.140625 33.160156 155.546875 32.988281 155.867188 32.636719 C 156.1875 32.292969 156.347656 31.796875 156.347656 31.160156 C 156.347656 30.757812 156.277344 30.40625 156.140625 30.101562 C 156.003906 29.800781 155.804688 29.570312 155.542969 29.402344 C 155.277344 29.238281 154.984375 29.15625 154.65625 29.15625 C 154.1875 29.15625 153.785156 29.316406 153.453125 29.632812 C 153.117188 29.953125 152.945312 30.484375 152.949219 31.230469 Z M 152.949219 31.230469 "/>
<path style="fill:none;stroke-width:0.0333333;stroke-linecap:butt;stroke-linejoin:miter;stroke:rgb(0%,0%,0%);stroke-opacity:1;stroke-miterlimit:10;" d="M 0.173384 1.100206 L 0.61947 1.357685 " transform="matrix(20.849772,0,0,20.769231,118.537319,31.153483)"/>
<path style="fill:none;stroke-width:0.0333333;stroke-linecap:butt;stroke-linejoin:miter;stroke:rgb(0%,0%,0%);stroke-opacity:1;stroke-miterlimit:10;" d="M 1.112393 1.357685 L 1.740398 0.995258 " transform="matrix(20.849772,0,0,20.769231,118.537319,31.153483)"/>
<path style="fill:none;stroke-width:0.0333333;stroke-linecap:butt;stroke-linejoin:miter;stroke:rgb(0%,0%,0%);stroke-opacity:1;stroke-miterlimit:10;" d="M 1.723724 0.995258 L 2.407746 1.390035 " transform="matrix(20.849772,0,0,20.769231,118.537319,31.153483)"/>
<path style="fill:none;stroke-width:0.0333333;stroke-linecap:butt;stroke-linejoin:miter;stroke:rgb(0%,0%,0%);stroke-opacity:1;stroke-miterlimit:10;" d="M 1.815339 1.048108 L 1.815339 0.166771 " transform="matrix(20.849772,0,0,20.769231,118.537319,31.153483)"/>
<path style="fill:none;stroke-width:0.0333333;stroke-linecap:butt;stroke-linejoin:miter;stroke:rgb(0%,0%,0%);stroke-opacity:1;stroke-miterlimit:10;" d="M 1.648595 1.048108 L 1.648595 0.166771 " transform="matrix(20.849772,0,0,20.769231,118.537319,31.153483)"/>
<path style=" stroke:none;fill-rule:nonzero;fill:rgb(0%,0%,0%);fill-opacity:1;" d="M 189.386719 47.378906 L 215.449219 47.378906 L 215.449219 49.328125 L 220.660156 46.730469 L 215.449219 44.132812 L 215.449219 46.082031 L 189.386719 46.082031 "/>
<path style=" stroke:none;fill-rule:nonzero;fill:rgb(0%,0%,0%);fill-opacity:1;" d="M 235.378906 44.015625 L 235.378906 39.058594 L 236.054688 39.058594 L 238.667969 42.949219 L 238.667969 39.058594 L 239.300781 39.058594 L 239.300781 44.015625 L 238.625 44.015625 L 236.011719 40.121094 L 236.011719 44.015625 Z M 235.378906 44.015625 "/>
<path style=" stroke:none;fill-rule:nonzero;fill:rgb(0%,0%,0%);fill-opacity:1;" d="M 251.867188 54.410156 L 251.867188 49.453125 L 254.074219 49.453125 C 254.515625 49.453125 254.851562 49.5 255.082031 49.589844 C 255.316406 49.679688 255.5 49.835938 255.636719 50.058594 C 255.773438 50.285156 255.839844 50.535156 255.84375 50.804688 C 255.839844 51.160156 255.726562 51.457031 255.503906 51.695312 C 255.269531 51.9375 254.917969 52.089844 254.441406 52.15625 C 254.613281 52.238281 254.746094 52.324219 254.839844 52.402344 C 255.03125 52.582031 255.214844 52.800781 255.386719 53.0625 L 256.25 54.410156 L 255.421875 54.410156 L 254.765625 53.378906 C 254.574219 53.082031 254.414062 52.855469 254.292969 52.699219 C 254.164062 52.542969 254.050781 52.429688 253.953125 52.367188 C 253.855469 52.304688 253.753906 52.261719 253.65625 52.234375 C 253.578125 52.21875 253.457031 52.210938 253.289062 52.210938 L 252.527344 52.210938 L 252.527344 54.410156 Z M 252.527344 51.640625 L 253.941406 51.640625 C 254.238281 51.644531 254.476562 51.613281 254.648438 51.550781 C 254.816406 51.492188 254.941406 51.390625 255.03125 51.253906 C 255.121094 51.117188 255.164062 50.96875 255.164062 50.804688 C 255.164062 50.574219 255.078125 50.382812 254.910156 50.230469 C 254.738281 50.082031 254.46875 50.003906 254.101562 50.003906 L 252.527344 50.003906 Z M 252.527344 51.640625 "/>
<path style=" stroke:none;fill-rule:nonzero;fill:rgb(0%,0%,0%);fill-opacity:1;" d="M 258.929688 54.410156 L 258.320312 54.410156 L 258.320312 50.53125 C 258.171875 50.671875 257.980469 50.8125 257.742188 50.953125 C 257.503906 51.09375 257.289062 51.199219 257.097656 51.265625 L 257.097656 50.679688 C 257.441406 50.519531 257.738281 50.328125 257.992188 50.097656 C 258.25 49.875 258.429688 49.652344 258.535156 49.433594 L 258.929688 49.433594 Z M 258.929688 54.410156 "/>
<path style=" stroke:none;fill-rule:nonzero;fill:rgb(0%,0%,0%);fill-opacity:1;" d="M 289.546875 54.398438 L 289.546875 49.441406 L 290.222656 49.441406 L 292.835938 53.335938 L 292.835938 49.441406 L 293.46875 49.441406 L 293.46875 54.398438 L 292.792969 54.398438 L 290.179688 50.507812 L 290.179688 54.398438 Z M 289.546875 54.398438 "/>
<path style=" stroke:none;fill-rule:nonzero;fill:rgb(0%,0%,0%);fill-opacity:1;" d="M 271.074219 20.835938 C 271.070312 20.015625 271.292969 19.371094 271.738281 18.902344 C 272.183594 18.441406 272.75 18.207031 273.457031 18.207031 C 273.910156 18.207031 274.328125 18.316406 274.699219 18.53125 C 275.066406 18.75 275.34375 19.058594 275.539062 19.445312 C 275.730469 19.839844 275.828125 20.285156 275.832031 20.777344 C 275.828125 21.28125 275.726562 21.730469 275.523438 22.125 C 275.316406 22.523438 275.03125 22.824219 274.660156 23.027344 C 274.285156 23.230469 273.882812 23.332031 273.453125 23.332031 C 272.984375 23.332031 272.566406 23.21875 272.195312 22.996094 C 271.828125 22.769531 271.546875 22.460938 271.359375 22.074219 C 271.167969 21.683594 271.070312 21.273438 271.074219 20.835938 Z M 271.753906 20.84375 C 271.75 21.441406 271.914062 21.914062 272.234375 22.257812 C 272.554688 22.601562 272.960938 22.777344 273.449219 22.773438 C 273.945312 22.777344 274.351562 22.601562 274.671875 22.253906 C 274.992188 21.90625 275.152344 21.414062 275.152344 20.773438 C 275.152344 20.371094 275.082031 20.019531 274.945312 19.71875 C 274.808594 19.417969 274.609375 19.183594 274.34375 19.019531 C 274.082031 18.855469 273.785156 18.769531 273.460938 18.769531 C 272.992188 18.769531 272.589844 18.929688 272.253906 19.25 C 271.917969 19.570312 271.75 20.101562 271.753906 20.84375 Z M 271.753906 20.84375 "/>
<path style=" stroke:none;fill-rule:nonzero;fill:rgb(0%,0%,0%);fill-opacity:1;" d="M 305.578125 44.027344 L 305.578125 39.070312 L 307.785156 39.070312 C 308.230469 39.070312 308.566406 39.117188 308.796875 39.203125 C 309.027344 39.292969 309.210938 39.449219 309.351562 39.675781 C 309.484375 39.902344 309.554688 40.152344 309.558594 40.421875 C 309.554688 40.777344 309.441406 41.074219 309.214844 41.3125 C 308.984375 41.554688 308.632812 41.707031 308.15625 41.769531 C 308.328125 41.855469 308.460938 41.9375 308.550781 42.015625 C 308.746094 42.195312 308.925781 42.414062 309.101562 42.675781 L 309.964844 44.027344 L 309.136719 44.027344 L 308.480469 42.996094 C 308.285156 42.699219 308.125 42.472656 308.003906 42.316406 C 307.875 42.15625 307.765625 42.046875 307.667969 41.980469 C 307.566406 41.917969 307.464844 41.875 307.367188 41.847656 C 307.292969 41.835938 307.171875 41.828125 307.003906 41.824219 L 306.238281 41.824219 L 306.238281 44.027344 Z M 306.238281 41.257812 L 307.652344 41.257812 C 307.953125 41.261719 308.1875 41.230469 308.359375 41.164062 C 308.527344 41.105469 308.65625 41.003906 308.746094 40.867188 C 308.832031 40.734375 308.878906 40.582031 308.878906 40.421875 C 308.878906 40.1875 308.792969 39.996094 308.621094 39.84375 C 308.449219 39.695312 308.179688 39.621094 307.8125 39.617188 L 306.238281 39.617188 Z M 306.238281 41.257812 "/>
<path style=" stroke:none;fill-rule:nonzero;fill:rgb(0%,0%,0%);fill-opacity:1;" d="M 313.550781 43.441406 L 313.550781 44.027344 L 310.265625 44.027344 C 310.257812 43.878906 310.28125 43.738281 310.335938 43.605469 C 310.417969 43.382812 310.550781 43.164062 310.738281 42.945312 C 310.921875 42.730469 311.1875 42.480469 311.535156 42.191406 C 312.074219 41.753906 312.4375 41.402344 312.632812 41.144531 C 312.820312 40.886719 312.914062 40.644531 312.917969 40.414062 C 312.914062 40.171875 312.828125 39.96875 312.65625 39.800781 C 312.484375 39.640625 312.257812 39.554688 311.980469 39.554688 C 311.683594 39.554688 311.449219 39.644531 311.273438 39.820312 C 311.097656 39.996094 311.007812 40.242188 311.003906 40.546875 L 310.378906 40.484375 C 310.421875 40.019531 310.582031 39.660156 310.863281 39.417969 C 311.140625 39.175781 311.519531 39.054688 311.992188 39.050781 C 312.46875 39.054688 312.847656 39.1875 313.125 39.445312 C 313.402344 39.710938 313.542969 40.039062 313.542969 40.425781 C 313.542969 40.628906 313.5 40.820312 313.421875 41.011719 C 313.335938 41.207031 313.203125 41.40625 313.015625 41.617188 C 312.828125 41.828125 312.511719 42.121094 312.074219 42.488281 C 311.707031 42.796875 311.472656 43.003906 311.371094 43.113281 C 311.261719 43.222656 311.179688 43.332031 311.113281 43.441406 Z M 313.550781 43.441406 "/>
<path style=" stroke:none;fill-rule:nonzero;fill:rgb(0%,0%,0%);fill-opacity:1;" d="M 343.300781 41.601562 C 343.296875 40.785156 343.519531 40.140625 343.964844 39.671875 C 344.40625 39.210938 344.976562 38.976562 345.679688 38.976562 C 346.136719 38.976562 346.550781 39.085938 346.921875 39.300781 C 347.289062 39.519531 347.570312 39.828125 347.765625 40.214844 C 347.953125 40.609375 348.054688 41.054688 348.054688 41.546875 C 348.054688 42.050781 347.949219 42.5 347.75 42.894531 C 347.542969 43.292969 347.253906 43.59375 346.886719 43.796875 C 346.511719 44 346.109375 44.097656 345.675781 44.101562 C 345.207031 44.097656 344.789062 43.988281 344.421875 43.765625 C 344.050781 43.539062 343.769531 43.230469 343.585938 42.84375 C 343.390625 42.453125 343.296875 42.042969 343.300781 41.601562 Z M 343.976562 41.613281 C 343.976562 42.210938 344.136719 42.683594 344.460938 43.027344 C 344.78125 43.371094 345.1875 43.546875 345.675781 43.542969 C 346.167969 43.546875 346.574219 43.371094 346.894531 43.023438 C 347.214844 42.675781 347.375 42.183594 347.375 41.542969 C 347.375 41.140625 347.304688 40.789062 347.171875 40.488281 C 347.03125 40.1875 346.832031 39.953125 346.570312 39.789062 C 346.308594 39.625 346.011719 39.539062 345.683594 39.539062 C 345.214844 39.539062 344.8125 39.699219 344.480469 40.019531 C 344.144531 40.335938 343.976562 40.871094 343.976562 41.613281 Z M 343.976562 41.613281 "/>
<path style=" stroke:none;fill-rule:nonzero;fill:rgb(0%,0%,0%);fill-opacity:1;" d="M 325.242188 72.757812 C 325.238281 71.9375 325.460938 71.292969 325.90625 70.828125 C 326.351562 70.363281 326.921875 70.132812 327.625 70.128906 C 328.078125 70.132812 328.496094 70.238281 328.867188 70.457031 C 329.234375 70.675781 329.511719 70.980469 329.707031 71.371094 C 329.898438 71.765625 329.996094 72.207031 330 72.699219 C 329.996094 73.207031 329.894531 73.65625 329.691406 74.050781 C 329.484375 74.449219 329.199219 74.746094 328.828125 74.949219 C 328.453125 75.152344 328.050781 75.253906 327.621094 75.257812 C 327.152344 75.253906 326.734375 75.140625 326.363281 74.917969 C 325.996094 74.695312 325.714844 74.386719 325.527344 73.996094 C 325.335938 73.605469 325.238281 73.195312 325.242188 72.757812 Z M 325.921875 72.769531 C 325.917969 73.367188 326.082031 73.835938 326.40625 74.179688 C 326.726562 74.527344 327.128906 74.699219 327.617188 74.695312 C 328.113281 74.699219 328.519531 74.527344 328.839844 74.175781 C 329.160156 73.832031 329.320312 73.335938 329.320312 72.699219 C 329.320312 72.292969 329.25 71.941406 329.113281 71.640625 C 328.976562 71.339844 328.777344 71.109375 328.515625 70.941406 C 328.25 70.777344 327.953125 70.695312 327.628906 70.695312 C 327.160156 70.695312 326.757812 70.851562 326.421875 71.171875 C 326.085938 71.492188 325.917969 72.023438 325.921875 72.769531 Z M 325.921875 72.769531 "/>
<path style="fill:none;stroke-width:0.0333333;stroke-linecap:butt;stroke-linejoin:miter;stroke:rgb(0%,0%,0%);stroke-opacity:1;stroke-miterlimit:10;" d="M 0.173485 1.100116 L 0.63587 1.367188 " transform="matrix(20.849772,0,0,20.769231,237.339917,20.768626)"/>
<path style="fill:none;stroke-width:0.0333333;stroke-linecap:butt;stroke-linejoin:miter;stroke:rgb(0%,0%,0%);stroke-opacity:1;stroke-miterlimit:10;" d="M 1.096007 1.367188 L 1.740311 0.995168 " transform="matrix(20.849772,0,0,20.769231,237.339917,20.768626)"/>
<path style="fill:none;stroke-width:0.0333333;stroke-linecap:butt;stroke-linejoin:miter;stroke:rgb(0%,0%,0%);stroke-opacity:1;stroke-miterlimit:10;" d="M 1.723636 0.995168 L 2.424521 1.399913 " transform="matrix(20.849772,0,0,20.769231,237.339917,20.768626)"/>
<path style="fill:none;stroke-width:0.0333333;stroke-linecap:butt;stroke-linejoin:miter;stroke:rgb(0%,0%,0%);stroke-opacity:1;stroke-miterlimit:10;" d="M 1.815439 1.048018 L 1.815439 0.166869 " transform="matrix(20.849772,0,0,20.769231,237.339917,20.768626)"/>
<path style="fill:none;stroke-width:0.0333333;stroke-linecap:butt;stroke-linejoin:miter;stroke:rgb(0%,0%,0%);stroke-opacity:1;stroke-miterlimit:10;" d="M 1.648696 1.048018 L 1.648696 0.166869 " transform="matrix(20.849772,0,0,20.769231,237.339917,20.768626)"/>
<path style="fill:none;stroke-width:0.0333333;stroke-linecap:butt;stroke-linejoin:miter;stroke:rgb(0%,0%,0%);stroke-opacity:1;stroke-miterlimit:10;" d="M 2.771497 1.399913 L 3.217583 1.142434 " transform="matrix(20.849772,0,0,20.769231,237.339917,20.768626)"/>
<path style="fill:none;stroke-width:0.0333333;stroke-linecap:butt;stroke-linejoin:miter;stroke:rgb(0%,0%,0%);stroke-opacity:1;stroke-miterlimit:10;" d="M 3.710506 1.142434 L 4.338323 1.504861 " transform="matrix(20.849772,0,0,20.769231,237.339917,20.768626)"/>
<path style="fill:none;stroke-width:0.0333333;stroke-linecap:butt;stroke-linejoin:miter;stroke:rgb(0%,0%,0%);stroke-opacity:1;stroke-miterlimit:10;" d="M 4.321836 1.504861 L 5.005672 1.109896 " transform="matrix(20.849772,0,0,20.769231,237.339917,20.768626)"/>
<path style="fill:none;stroke-width:0.0333333;stroke-linecap:butt;stroke-linejoin:miter;stroke:rgb(0%,0%,0%);stroke-opacity:1;stroke-miterlimit:10;" d="M 4.246708 1.452011 L 4.246708 2.33316 " transform="matrix(20.849772,0,0,20.769231,237.339917,20.768626)"/>
<path style="fill:none;stroke-width:0.0333333;stroke-linecap:butt;stroke-linejoin:miter;stroke:rgb(0%,0%,0%);stroke-opacity:1;stroke-miterlimit:10;" d="M 4.413451 1.452011 L 4.413451 2.33316 " transform="matrix(20.849772,0,0,20.769231,237.339917,20.768626)"/>
</g>
</svg>
