<?xml version="1.0" encoding="UTF-8"?>
<svg xmlns="http://www.w3.org/2000/svg" xmlns:xlink="http://www.w3.org/1999/xlink" width="112.8pt" height="124pt" viewBox="0 0 112.8 124" version="1.1">
<g id="surface932">
<path style=" stroke:none;fill-rule:nonzero;fill:rgb(0%,0%,0%);fill-opacity:1;" d="M 78.738281 13.46875 L 79.394531 13.636719 C 79.253906 14.175781 79.011719 14.585938 78.652344 14.867188 C 78.296875 15.148438 77.859375 15.289062 77.347656 15.289062 C 76.8125 15.289062 76.378906 15.183594 76.046875 14.964844 C 75.710938 14.75 75.453125 14.433594 75.28125 14.019531 C 75.105469 13.609375 75.019531 13.167969 75.023438 12.691406 C 75.019531 12.179688 75.121094 11.730469 75.316406 11.34375 C 75.511719 10.960938 75.789062 10.667969 76.15625 10.46875 C 76.519531 10.269531 76.921875 10.171875 77.359375 10.167969 C 77.851562 10.171875 78.269531 10.296875 78.605469 10.546875 C 78.941406 10.800781 79.175781 11.15625 79.308594 11.613281 L 78.667969 11.761719 C 78.546875 11.40625 78.382812 11.144531 78.164062 10.976562 C 77.945312 10.816406 77.671875 10.730469 77.34375 10.730469 C 76.960938 10.730469 76.640625 10.824219 76.386719 11.003906 C 76.132812 11.1875 75.953125 11.433594 75.851562 11.738281 C 75.75 12.046875 75.699219 12.363281 75.699219 12.691406 C 75.699219 13.113281 75.757812 13.480469 75.882812 13.792969 C 76 14.109375 76.191406 14.34375 76.449219 14.5 C 76.710938 14.65625 76.992188 14.734375 77.292969 14.730469 C 77.660156 14.734375 77.96875 14.628906 78.222656 14.414062 C 78.476562 14.203125 78.648438 13.886719 78.738281 13.46875 Z M 78.738281 13.46875 "/>
<path style=" stroke:none;fill-rule:nonzero;fill:rgb(0%,0%,0%);fill-opacity:1;" d="M 80.125 15.207031 L 80.125 10.253906 L 80.730469 10.253906 L 80.730469 12.03125 C 81.011719 11.703125 81.371094 11.539062 81.804688 11.535156 C 82.070312 11.539062 82.300781 11.589844 82.496094 11.695312 C 82.6875 11.800781 82.828125 11.945312 82.917969 12.132812 C 83 12.316406 83.039062 12.585938 83.042969 12.933594 L 83.042969 15.207031 L 82.4375 15.207031 L 82.4375 12.933594 C 82.433594 12.632812 82.367188 12.410156 82.238281 12.269531 C 82.105469 12.132812 81.921875 12.0625 81.679688 12.0625 C 81.5 12.0625 81.328125 12.109375 81.171875 12.203125 C 81.011719 12.296875 80.898438 12.425781 80.832031 12.582031 C 80.761719 12.746094 80.730469 12.964844 80.730469 13.246094 L 80.730469 15.207031 Z M 80.125 15.207031 "/>
<path style=" stroke:none;fill-rule:nonzero;fill:rgb(0%,0%,0%);fill-opacity:1;" d="M 83.972656 10.953125 L 83.972656 10.253906 L 84.578125 10.253906 L 84.578125 10.953125 Z M 83.972656 15.207031 L 83.972656 11.617188 L 84.578125 11.617188 L 84.578125 15.207031 Z M 83.972656 15.207031 "/>
<path style=" stroke:none;fill-rule:nonzero;fill:rgb(0%,0%,0%);fill-opacity:1;" d="M 85.496094 15.207031 L 85.496094 11.617188 L 86.042969 11.617188 L 86.042969 12.164062 C 86.183594 11.910156 86.308594 11.742188 86.429688 11.65625 C 86.546875 11.578125 86.675781 11.539062 86.820312 11.535156 C 87.019531 11.539062 87.230469 11.605469 87.445312 11.734375 L 87.234375 12.296875 C 87.085938 12.210938 86.9375 12.167969 86.789062 12.167969 C 86.652344 12.167969 86.53125 12.207031 86.429688 12.289062 C 86.320312 12.367188 86.25 12.480469 86.207031 12.617188 C 86.136719 12.835938 86.101562 13.074219 86.101562 13.328125 L 86.101562 15.207031 Z M 85.496094 15.207031 "/>
<path style=" stroke:none;fill-rule:nonzero;fill:rgb(0%,0%,0%);fill-opacity:1;" d="M 90.144531 14.765625 C 89.917969 14.957031 89.699219 15.09375 89.492188 15.167969 C 89.28125 15.25 89.0625 15.289062 88.824219 15.289062 C 88.429688 15.289062 88.128906 15.195312 87.917969 15 C 87.707031 14.808594 87.601562 14.5625 87.601562 14.261719 C 87.601562 14.089844 87.636719 13.925781 87.71875 13.78125 C 87.796875 13.632812 87.898438 13.519531 88.03125 13.429688 C 88.160156 13.34375 88.304688 13.28125 88.46875 13.230469 C 88.585938 13.203125 88.765625 13.167969 89.011719 13.140625 C 89.5 13.078125 89.859375 13.007812 90.09375 12.929688 C 90.09375 12.847656 90.09375 12.796875 90.097656 12.773438 C 90.09375 12.527344 90.039062 12.351562 89.925781 12.246094 C 89.769531 12.113281 89.535156 12.042969 89.234375 12.042969 C 88.945312 12.042969 88.734375 12.097656 88.597656 12.191406 C 88.460938 12.296875 88.363281 12.472656 88.296875 12.722656 L 87.703125 12.640625 C 87.753906 12.390625 87.84375 12.183594 87.96875 12.027344 C 88.09375 11.871094 88.273438 11.75 88.507812 11.664062 C 88.738281 11.578125 89.011719 11.539062 89.320312 11.535156 C 89.625 11.539062 89.875 11.574219 90.066406 11.644531 C 90.257812 11.71875 90.398438 11.808594 90.488281 11.917969 C 90.574219 12.03125 90.640625 12.167969 90.679688 12.332031 C 90.699219 12.4375 90.707031 12.625 90.707031 12.894531 L 90.707031 13.703125 C 90.707031 14.269531 90.71875 14.625 90.746094 14.777344 C 90.769531 14.929688 90.820312 15.070312 90.898438 15.207031 L 90.265625 15.207031 C 90.199219 15.082031 90.160156 14.9375 90.144531 14.765625 Z M 90.09375 13.40625 C 89.871094 13.5 89.542969 13.578125 89.101562 13.636719 C 88.851562 13.675781 88.671875 13.714844 88.570312 13.757812 C 88.464844 13.808594 88.386719 13.871094 88.332031 13.957031 C 88.277344 14.042969 88.25 14.140625 88.25 14.246094 C 88.25 14.410156 88.308594 14.542969 88.433594 14.648438 C 88.550781 14.761719 88.730469 14.816406 88.96875 14.8125 C 89.203125 14.816406 89.410156 14.765625 89.59375 14.660156 C 89.777344 14.558594 89.910156 14.417969 89.996094 14.238281 C 90.058594 14.101562 90.089844 13.898438 90.09375 13.628906 Z M 90.09375 13.40625 "/>
<path style=" stroke:none;fill-rule:nonzero;fill:rgb(0%,0%,0%);fill-opacity:1;" d="M 91.636719 15.207031 L 91.636719 10.253906 L 92.242188 10.253906 L 92.242188 15.207031 Z M 91.636719 15.207031 "/>
<path style=" stroke:none;fill-rule:nonzero;fill:rgb(0%,0%,0%);fill-opacity:1;" d="M 53.964844 20.476562 C 53.964844 19.660156 54.183594 19.015625 54.628906 18.546875 C 55.066406 18.085938 55.632812 17.851562 56.332031 17.851562 C 56.789062 17.851562 57.199219 17.960938 57.570312 18.175781 C 57.933594 18.398438 58.210938 18.703125 58.40625 19.089844 C 58.597656 19.484375 58.691406 19.929688 58.695312 20.421875 C 58.691406 20.925781 58.589844 21.375 58.390625 21.769531 C 58.1875 22.167969 57.898438 22.46875 57.53125 22.671875 C 57.160156 22.871094 56.761719 22.972656 56.332031 22.976562 C 55.863281 22.972656 55.449219 22.863281 55.082031 22.636719 C 54.714844 22.414062 54.4375 22.105469 54.25 21.714844 C 54.058594 21.328125 53.964844 20.914062 53.964844 20.476562 Z M 54.640625 20.488281 C 54.636719 21.085938 54.800781 21.554688 55.121094 21.898438 C 55.441406 22.246094 55.84375 22.417969 56.328125 22.414062 C 56.820312 22.417969 57.222656 22.246094 57.542969 21.898438 C 57.863281 21.550781 58.019531 21.054688 58.019531 20.417969 C 58.019531 20.015625 57.949219 19.664062 57.816406 19.363281 C 57.679688 19.0625 57.480469 18.828125 57.21875 18.664062 C 56.957031 18.5 56.664062 18.414062 56.339844 18.414062 C 55.871094 18.414062 55.472656 18.574219 55.140625 18.894531 C 54.804688 19.210938 54.636719 19.746094 54.640625 20.488281 Z M 54.640625 20.488281 "/>
<path style=" stroke:none;fill-rule:nonzero;fill:rgb(0%,0%,0%);fill-opacity:1;" d="M 89.878906 82.753906 C 89.878906 81.9375 90.097656 81.292969 90.542969 80.824219 C 90.980469 80.363281 91.546875 80.128906 92.246094 80.128906 C 92.703125 80.128906 93.113281 80.238281 93.484375 80.453125 C 93.847656 80.671875 94.125 80.980469 94.320312 81.367188 C 94.511719 81.761719 94.609375 82.207031 94.609375 82.699219 C 94.609375 83.203125 94.503906 83.652344 94.304688 84.046875 C 94.101562 84.445312 93.8125 84.742188 93.445312 84.945312 C 93.074219 85.148438 92.675781 85.25 92.246094 85.253906 C 91.777344 85.25 91.363281 85.136719 90.996094 84.914062 C 90.628906 84.691406 90.351562 84.382812 90.164062 83.992188 C 89.972656 83.601562 89.878906 83.191406 89.878906 82.753906 Z M 90.554688 82.765625 C 90.550781 83.363281 90.714844 83.832031 91.035156 84.175781 C 91.355469 84.523438 91.757812 84.695312 92.242188 84.691406 C 92.734375 84.695312 93.140625 84.523438 93.457031 84.171875 C 93.777344 83.828125 93.933594 83.332031 93.933594 82.695312 C 93.933594 82.292969 93.863281 81.941406 93.730469 81.636719 C 93.59375 81.339844 93.394531 81.105469 93.132812 80.941406 C 92.871094 80.777344 92.578125 80.691406 92.253906 80.691406 C 91.785156 80.691406 91.386719 80.851562 91.054688 81.171875 C 90.71875 81.488281 90.550781 82.023438 90.554688 82.765625 Z M 90.554688 82.765625 "/>
<path style=" stroke:none;fill-rule:nonzero;fill:rgb(0%,0%,0%);fill-opacity:1;" d="M 18.050781 82.753906 C 18.050781 81.9375 18.269531 81.292969 18.714844 80.824219 C 19.152344 80.363281 19.71875 80.128906 20.417969 80.128906 C 20.871094 80.128906 21.285156 80.238281 21.65625 80.453125 C 22.019531 80.671875 22.296875 80.980469 22.492188 81.367188 C 22.683594 81.761719 22.777344 82.207031 22.78125 82.699219 C 22.777344 83.203125 22.675781 83.652344 22.476562 84.046875 C 22.273438 84.445312 21.984375 84.742188 21.617188 84.945312 C 21.246094 85.148438 20.847656 85.25 20.417969 85.253906 C 19.949219 85.25 19.535156 85.136719 19.167969 84.914062 C 18.800781 84.691406 18.519531 84.382812 18.335938 83.992188 C 18.144531 83.601562 18.050781 83.191406 18.050781 82.753906 Z M 18.726562 82.765625 C 18.722656 83.363281 18.886719 83.832031 19.207031 84.175781 C 19.527344 84.523438 19.929688 84.695312 20.414062 84.691406 C 20.90625 84.695312 21.308594 84.523438 21.628906 84.171875 C 21.949219 83.828125 22.105469 83.332031 22.105469 82.695312 C 22.105469 82.292969 22.035156 81.941406 21.902344 81.636719 C 21.765625 81.339844 21.566406 81.105469 21.304688 80.941406 C 21.042969 80.777344 20.75 80.691406 20.425781 80.691406 C 19.957031 80.691406 19.558594 80.851562 19.226562 81.171875 C 18.890625 81.488281 18.722656 82.023438 18.726562 82.765625 Z M 18.726562 82.765625 "/>
<path style=" stroke:none;fill-rule:nonzero;fill:rgb(0%,0%,0%);fill-opacity:1;" d="M 89.878906 41.238281 C 89.878906 40.417969 90.097656 39.773438 90.542969 39.308594 C 90.980469 38.84375 91.546875 38.613281 92.246094 38.609375 C 92.703125 38.613281 93.113281 38.71875 93.484375 38.9375 C 93.847656 39.15625 94.125 39.460938 94.320312 39.851562 C 94.511719 40.246094 94.609375 40.6875 94.609375 41.179688 C 94.609375 41.683594 94.503906 42.132812 94.304688 42.527344 C 94.101562 42.925781 93.8125 43.226562 93.445312 43.429688 C 93.074219 43.632812 92.675781 43.730469 92.246094 43.734375 C 91.777344 43.730469 91.363281 43.621094 90.996094 43.394531 C 90.628906 43.171875 90.351562 42.863281 90.164062 42.476562 C 89.972656 42.085938 89.878906 41.675781 89.878906 41.238281 Z M 90.554688 41.246094 C 90.550781 41.84375 90.714844 42.316406 91.035156 42.660156 C 91.355469 43.003906 91.757812 43.175781 92.242188 43.175781 C 92.734375 43.175781 93.140625 43.003906 93.457031 42.65625 C 93.777344 42.308594 93.933594 41.816406 93.933594 41.175781 C 93.933594 40.773438 93.863281 40.421875 93.730469 40.121094 C 93.59375 39.820312 93.394531 39.589844 93.132812 39.421875 C 92.871094 39.257812 92.578125 39.175781 92.253906 39.175781 C 91.785156 39.175781 91.386719 39.332031 91.054688 39.652344 C 90.71875 39.972656 90.550781 40.503906 90.554688 41.246094 Z M 90.554688 41.246094 "/>
<path style=" stroke:none;fill-rule:nonzero;fill:rgb(0%,0%,0%);fill-opacity:1;" d="M 53.964844 103.511719 C 53.964844 102.695312 54.183594 102.050781 54.628906 101.582031 C 55.066406 101.121094 55.632812 100.890625 56.332031 100.886719 C 56.789062 100.890625 57.199219 100.996094 57.570312 101.214844 C 57.933594 101.433594 58.210938 101.738281 58.40625 102.125 C 58.597656 102.523438 58.691406 102.964844 58.695312 103.457031 C 58.691406 103.960938 58.589844 104.410156 58.390625 104.804688 C 58.1875 105.203125 57.898438 105.503906 57.53125 105.707031 C 57.160156 105.910156 56.761719 106.007812 56.332031 106.011719 C 55.863281 106.007812 55.449219 105.898438 55.082031 105.671875 C 54.714844 105.449219 54.4375 105.140625 54.25 104.75 C 54.058594 104.363281 53.964844 103.953125 53.964844 103.511719 Z M 54.640625 103.523438 C 54.636719 104.121094 54.800781 104.59375 55.121094 104.933594 C 55.441406 105.28125 55.84375 105.453125 56.328125 105.453125 C 56.820312 105.453125 57.222656 105.28125 57.542969 104.933594 C 57.863281 104.585938 58.019531 104.09375 58.019531 103.453125 C 58.019531 103.050781 57.949219 102.699219 57.816406 102.398438 C 57.679688 102.097656 57.480469 101.863281 57.21875 101.699219 C 56.957031 101.535156 56.664062 101.449219 56.339844 101.449219 C 55.871094 101.449219 55.472656 101.609375 55.140625 101.929688 C 54.804688 102.25 54.636719 102.78125 54.640625 103.523438 Z M 54.640625 103.523438 "/>
<path style=" stroke:none;fill-rule:nonzero;fill:rgb(0%,0%,0%);fill-opacity:1;" d="M 18.050781 41.238281 C 18.050781 40.417969 18.269531 39.773438 18.714844 39.308594 C 19.152344 38.84375 19.71875 38.613281 20.417969 38.609375 C 20.871094 38.613281 21.285156 38.71875 21.65625 38.9375 C 22.019531 39.15625 22.296875 39.460938 22.492188 39.851562 C 22.683594 40.246094 22.777344 40.6875 22.78125 41.179688 C 22.777344 41.683594 22.675781 42.132812 22.476562 42.527344 C 22.273438 42.925781 21.984375 43.226562 21.617188 43.429688 C 21.246094 43.632812 20.847656 43.730469 20.417969 43.734375 C 19.949219 43.730469 19.535156 43.621094 19.167969 43.394531 C 18.800781 43.171875 18.519531 42.863281 18.335938 42.476562 C 18.144531 42.085938 18.050781 41.675781 18.050781 41.238281 Z M 18.726562 41.246094 C 18.722656 41.84375 18.886719 42.316406 19.207031 42.660156 C 19.527344 43.003906 19.929688 43.175781 20.414062 43.175781 C 20.90625 43.175781 21.308594 43.003906 21.628906 42.65625 C 21.949219 42.308594 22.105469 41.816406 22.105469 41.175781 C 22.105469 40.773438 22.035156 40.421875 21.902344 40.121094 C 21.765625 39.820312 21.566406 39.589844 21.304688 39.421875 C 21.042969 39.257812 20.75 39.175781 20.425781 39.175781 C 19.957031 39.175781 19.558594 39.332031 19.226562 39.652344 C 18.890625 39.972656 18.722656 40.503906 18.726562 41.246094 Z M 18.726562 41.246094 "/>
<path style="fill:none;stroke-width:0.0333333;stroke-linecap:butt;stroke-linejoin:miter;stroke:rgb(0%,0%,0%);stroke-opacity:1;stroke-miterlimit:10;" d="M 2.606407 1.504826 L 1.723627 0.995068 " transform="matrix(20.735294,0,0,20.758929,20.416327,20.413758)"/>
<path style="fill:none;stroke-width:0.0333333;stroke-linecap:butt;stroke-linejoin:miter;stroke:rgb(0%,0%,0%);stroke-opacity:1;stroke-miterlimit:10;" d="M 2.598118 2.509665 L 2.598118 1.490337 " transform="matrix(20.735294,0,0,20.758929,20.416327,20.413758)"/>
<path style="fill:none;stroke-width:0.0333333;stroke-linecap:butt;stroke-linejoin:miter;stroke:rgb(0%,0%,0%);stroke-opacity:1;stroke-miterlimit:10;" d="M 1.723627 3.004746 L 2.606407 2.495176 " transform="matrix(20.735294,0,0,20.758929,20.416327,20.413758)"/>
<path style="fill:none;stroke-width:0.0333333;stroke-linecap:butt;stroke-linejoin:miter;stroke:rgb(0%,0%,0%);stroke-opacity:1;stroke-miterlimit:10;" d="M 0.857615 2.495176 L 1.740394 3.004746 " transform="matrix(20.735294,0,0,20.758929,20.416327,20.413758)"/>
<path style="fill:none;stroke-width:0.0333333;stroke-linecap:butt;stroke-linejoin:miter;stroke:rgb(0%,0%,0%);stroke-opacity:1;stroke-miterlimit:10;" d="M 0.866092 1.490337 L 0.866092 2.509665 " transform="matrix(20.735294,0,0,20.758929,20.416327,20.413758)"/>
<path style="fill:none;stroke-width:0.0333333;stroke-linecap:butt;stroke-linejoin:miter;stroke:rgb(0%,0%,0%);stroke-opacity:1;stroke-miterlimit:10;" d="M 0.857615 1.504826 L 1.740394 0.995068 " transform="matrix(20.735294,0,0,20.758929,20.416327,20.413758)"/>
<path style=" stroke:none;fill-rule:nonzero;fill:rgb(0%,0%,0%);fill-opacity:1;" d="M 56.332031 41.171875 L 58.75 23.875 L 53.910156 23.875 "/>
<path style=" stroke:none;fill-rule:nonzero;fill:rgb(0%,0%,0%);fill-opacity:1;" d="M 74.289062 72.308594 L 87.089844 82.507812 L 89.511719 78.3125 "/>
<path style=" stroke:none;fill-rule:nonzero;fill:rgb(0%,0%,0%);fill-opacity:1;" d="M 38.375 72.308594 L 23.152344 78.3125 L 25.570312 82.507812 "/>
<path style="fill:none;stroke-width:0.0333333;stroke-linecap:butt;stroke-linejoin:miter;stroke:rgb(0%,0%,0%);stroke-opacity:1;stroke-miterlimit:10;" d="M 2.664807 1.47359 L 2.654257 1.455337 M 2.731495 1.447434 L 2.710396 1.410552 M 2.798373 1.42109 L 2.766347 1.365956 M 2.865061 1.394746 L 2.822486 1.321359 M 2.93175 1.36859 L 2.878625 1.276574 M 2.998439 1.342246 L 2.934764 1.231977 M 3.065316 1.315902 L 2.990904 1.18738 M 3.132005 1.289746 L 3.047231 1.142595 M 3.198694 1.263402 L 3.103182 1.097999 M 3.265383 1.237058 L 3.159321 1.053402 M 3.33226 1.210714 L 3.21546 1.008805 " transform="matrix(20.735294,0,0,20.758929,20.416327,20.413758)"/>
<path style="fill:none;stroke-width:0.0333333;stroke-linecap:butt;stroke-linejoin:miter;stroke:rgb(0%,0%,0%);stroke-opacity:1;stroke-miterlimit:10;" d="M 1.722309 3.069477 L 1.741901 3.069477 M 1.712701 3.138913 L 1.751509 3.138913 M 1.702905 3.208348 L 1.761305 3.208348 M 1.693109 3.277783 L 1.770912 3.277783 M 1.683501 3.347031 L 1.780709 3.347031 M 1.673705 3.416654 L 1.790316 3.416654 M 1.663909 3.48609 L 1.800112 3.48609 M 1.654301 3.555337 L 1.80972 3.555337 M 1.644505 3.624773 L 1.819516 3.624773 M 1.634709 3.694208 L 1.829312 3.694208 M 1.625101 3.763832 L 1.83892 3.763832 M 1.615305 3.833079 L 1.848716 3.833079 " transform="matrix(20.735294,0,0,20.758929,20.416327,20.413758)"/>
<path style="fill:none;stroke-width:0.0333333;stroke-linecap:butt;stroke-linejoin:miter;stroke:rgb(0%,0%,0%);stroke-opacity:1;stroke-miterlimit:10;" d="M 0.809953 1.455337 L 0.799215 1.47359 M 0.753814 1.410552 L 0.732526 1.447434 M 0.697674 1.365956 L 0.665837 1.42109 M 0.641535 1.321359 L 0.599148 1.394746 M 0.585396 1.276574 L 0.532271 1.36859 M 0.529257 1.231977 L 0.465582 1.342246 M 0.473118 1.18738 L 0.398893 1.315902 M 0.416979 1.142595 L 0.332205 1.289746 M 0.360839 1.097999 L 0.265327 1.263402 M 0.3047 1.053402 L 0.198639 1.237058 M 0.248561 1.008805 L 0.13195 1.210714 " transform="matrix(20.735294,0,0,20.758929,20.416327,20.413758)"/>
</g>
</svg>
