<?xml version="1.0" encoding="UTF-8"?>
<svg xmlns="http://www.w3.org/2000/svg" xmlns:xlink="http://www.w3.org/1999/xlink" width="167.2pt" height="93.6pt" viewBox="0 0 167.2 93.6" version="1.1">
<g id="surface672">
<path style=" stroke:none;fill-rule:nonzero;fill:rgb(0%,0%,0%);fill-opacity:1;" d="M 144.429688 51.988281 C 144.429688 51.167969 144.648438 50.523438 145.09375 50.058594 C 145.539062 49.59375 146.105469 49.363281 146.808594 49.359375 C 147.265625 49.363281 147.679688 49.46875 148.050781 49.6875 C 148.417969 49.90625 148.695312 50.210938 148.890625 50.601562 C 149.082031 50.996094 149.179688 51.4375 149.183594 51.929688 C 149.179688 52.4375 149.078125 52.886719 148.875 53.28125 C 148.671875 53.679688 148.382812 53.976562 148.011719 54.179688 C 147.640625 54.382812 147.238281 54.484375 146.808594 54.488281 C 146.335938 54.484375 145.917969 54.375 145.550781 54.148438 C 145.183594 53.925781 144.902344 53.617188 144.714844 53.226562 C 144.523438 52.835938 144.429688 52.425781 144.429688 51.988281 Z M 145.109375 52 C 145.105469 52.597656 145.269531 53.066406 145.589844 53.410156 C 145.910156 53.757812 146.316406 53.929688 146.804688 53.925781 C 147.296875 53.929688 147.703125 53.757812 148.023438 53.40625 C 148.34375 53.0625 148.503906 52.566406 148.503906 51.929688 C 148.503906 51.527344 148.433594 51.175781 148.296875 50.871094 C 148.160156 50.570312 147.960938 50.339844 147.699219 50.171875 C 147.4375 50.007812 147.140625 49.925781 146.816406 49.925781 C 146.34375 49.925781 145.945312 50.085938 145.609375 50.402344 C 145.273438 50.722656 145.105469 51.253906 145.109375 52 Z M 145.109375 52 "/>
<path style=" stroke:none;fill-rule:nonzero;fill:rgb(0%,0%,0%);fill-opacity:1;" d="M 18.574219 44.015625 L 18.574219 39.058594 L 19.25 39.058594 L 21.859375 42.949219 L 21.859375 39.058594 L 22.492188 39.058594 L 22.492188 44.015625 L 21.816406 44.015625 L 19.207031 40.121094 L 19.207031 44.015625 Z M 18.574219 44.015625 "/>
<path style=" stroke:none;fill-rule:nonzero;fill:rgb(0%,0%,0%);fill-opacity:1;" d="M 126.394531 20.835938 C 126.390625 20.015625 126.613281 19.371094 127.058594 18.902344 C 127.5 18.441406 128.070312 18.207031 128.773438 18.207031 C 129.226562 18.207031 129.644531 18.316406 130.015625 18.53125 C 130.382812 18.75 130.660156 19.058594 130.855469 19.445312 C 131.046875 19.839844 131.144531 20.285156 131.144531 20.777344 C 131.144531 21.28125 131.039062 21.730469 130.839844 22.125 C 130.632812 22.523438 130.34375 22.824219 129.976562 23.027344 C 129.601562 23.230469 129.199219 23.332031 128.769531 23.332031 C 128.300781 23.332031 127.882812 23.21875 127.515625 22.996094 C 127.144531 22.769531 126.867188 22.460938 126.679688 22.074219 C 126.484375 21.683594 126.390625 21.273438 126.394531 20.835938 Z M 127.070312 20.84375 C 127.070312 21.441406 127.230469 21.914062 127.554688 22.257812 C 127.875 22.601562 128.277344 22.777344 128.765625 22.773438 C 129.261719 22.777344 129.667969 22.601562 129.988281 22.253906 C 130.308594 21.90625 130.46875 21.414062 130.46875 20.773438 C 130.46875 20.371094 130.398438 20.019531 130.261719 19.71875 C 130.125 19.417969 129.925781 19.183594 129.664062 19.019531 C 129.398438 18.855469 129.101562 18.769531 128.777344 18.769531 C 128.308594 18.769531 127.90625 18.929688 127.574219 19.25 C 127.238281 19.570312 127.070312 20.101562 127.070312 20.84375 Z M 127.070312 20.84375 "/>
<path style=" stroke:none;fill-rule:nonzero;fill:rgb(0%,0%,0%);fill-opacity:1;" d="M 108.773438 75.167969 L 108.773438 70.210938 L 109.445312 70.210938 L 112.054688 74.105469 L 112.054688 70.210938 L 112.6875 70.210938 L 112.6875 75.167969 L 112.011719 75.167969 L 109.402344 71.273438 L 109.402344 75.167969 Z M 108.773438 75.167969 "/>
<path style="fill:none;stroke-width:0.0333333;stroke-linecap:butt;stroke-linejoin:miter;stroke:rgb(0%,0%,0%);stroke-opacity:1;stroke-miterlimit:10;" d="M 5.871789 1.39017 L 5.187885 0.995205 " transform="matrix(20.830565,0,0,20.769231,20.531077,20.767854)"/>
<path style="fill:none;stroke-width:0.0333333;stroke-linecap:butt;stroke-linejoin:miter;stroke:rgb(0%,0%,0%);stroke-opacity:1;stroke-miterlimit:10;" d="M 4.321708 1.504898 L 5.204575 0.995205 " transform="matrix(20.830565,0,0,20.769231,20.531077,20.767854)"/>
<path style="fill:none;stroke-width:0.0333333;stroke-linecap:butt;stroke-linejoin:miter;stroke:rgb(0%,0%,0%);stroke-opacity:1;stroke-miterlimit:10;" d="M 3.455718 0.995393 L 4.338397 1.504898 " transform="matrix(20.830565,0,0,20.769231,20.531077,20.767854)"/>
<path style="fill:none;stroke-width:0.0333333;stroke-linecap:butt;stroke-linejoin:miter;stroke:rgb(0%,0%,0%);stroke-opacity:1;stroke-miterlimit:10;" d="M 2.589727 1.504898 L 3.472407 0.995393 " transform="matrix(20.830565,0,0,20.769231,20.531077,20.767854)"/>
<path style="fill:none;stroke-width:0.0333333;stroke-linecap:butt;stroke-linejoin:miter;stroke:rgb(0%,0%,0%);stroke-opacity:1;stroke-miterlimit:10;" d="M 1.72355 0.995393 L 2.606417 1.504898 " transform="matrix(20.830565,0,0,20.769231,20.531077,20.767854)"/>
<path style="fill:none;stroke-width:0.0333333;stroke-linecap:butt;stroke-linejoin:miter;stroke:rgb(0%,0%,0%);stroke-opacity:1;stroke-miterlimit:10;" d="M 0.85756 1.504898 L 1.74024 0.995393 " transform="matrix(20.830565,0,0,20.769231,20.531077,20.767854)"/>
<path style="fill:none;stroke-width:0.0333333;stroke-linecap:butt;stroke-linejoin:miter;stroke:rgb(0%,0%,0%);stroke-opacity:1;stroke-miterlimit:10;" d="M 0.173281 1.100153 L 0.874249 1.504898 " transform="matrix(20.830565,0,0,20.769231,20.531077,20.767854)"/>
<path style="fill:none;stroke-width:0.0333333;stroke-linecap:butt;stroke-linejoin:miter;stroke:rgb(0%,0%,0%);stroke-opacity:1;stroke-miterlimit:10;" d="M 5.279397 1.048055 L 5.279397 0.166718 " transform="matrix(20.830565,0,0,20.769231,20.531077,20.767854)"/>
<path style="fill:none;stroke-width:0.0333333;stroke-linecap:butt;stroke-linejoin:miter;stroke:rgb(0%,0%,0%);stroke-opacity:1;stroke-miterlimit:10;" d="M 5.112875 1.048055 L 5.112875 0.166718 " transform="matrix(20.830565,0,0,20.769231,20.531077,20.767854)"/>
<path style=" stroke:none;fill-rule:nonzero;fill:rgb(0%,0%,0%);fill-opacity:1;" d="M 110.730469 51.921875 L 108.300781 69.316406 L 113.160156 69.316406 "/>
</g>
</svg>
