<?xml version="1.0" encoding="UTF-8"?>
<svg xmlns="http://www.w3.org/2000/svg" xmlns:xlink="http://www.w3.org/1999/xlink" width="168pt" height="88pt" viewBox="0 0 168 88" version="1.1">
<g id="surface907">
<path style=" stroke:none;fill-rule:nonzero;fill:rgb(0%,0%,0%);fill-opacity:1;" d="M 8.859375 33.519531 C 8.859375 32.207031 9.214844 31.179688 9.921875 30.433594 C 10.625 29.6875 11.542969 29.320312 12.660156 29.316406 C 13.394531 29.320312 14.054688 29.492188 14.644531 29.839844 C 15.230469 30.191406 15.679688 30.679688 15.988281 31.300781 C 16.296875 31.929688 16.449219 32.636719 16.453125 33.429688 C 16.449219 34.234375 16.289062 34.953125 15.964844 35.585938 C 15.636719 36.222656 15.175781 36.703125 14.585938 37.027344 C 13.984375 37.351562 13.34375 37.511719 12.65625 37.515625 C 11.90625 37.511719 11.238281 37.335938 10.652344 36.976562 C 10.0625 36.617188 9.617188 36.125 9.316406 35.5 C 9.011719 34.878906 8.859375 34.21875 8.859375 33.519531 Z M 9.945312 33.539062 C 9.941406 34.492188 10.199219 35.246094 10.714844 35.792969 C 11.226562 36.34375 11.871094 36.617188 12.652344 36.617188 C 13.4375 36.617188 14.089844 36.34375 14.601562 35.785156 C 15.113281 35.234375 15.367188 34.445312 15.371094 33.421875 C 15.367188 32.78125 15.257812 32.21875 15.042969 31.734375 C 14.824219 31.257812 14.503906 30.882812 14.082031 30.617188 C 13.660156 30.355469 13.1875 30.222656 12.667969 30.21875 C 11.921875 30.222656 11.28125 30.476562 10.746094 30.984375 C 10.210938 31.496094 9.941406 32.34375 9.945312 33.539062 Z M 9.945312 33.539062 "/>
<path style=" stroke:none;fill-rule:nonzero;fill:rgb(0%,0%,0%);fill-opacity:1;" d="M 1.707031 37.238281 L 1.707031 29.316406 L 2.757812 29.316406 L 2.757812 32.570312 L 6.882812 32.570312 L 6.882812 29.316406 L 7.933594 29.316406 L 7.933594 37.238281 L 6.882812 37.238281 L 6.882812 33.503906 L 2.757812 33.503906 L 2.757812 37.238281 Z M 1.707031 37.238281 "/>
<path style=" stroke:none;fill-rule:nonzero;fill:rgb(0%,0%,0%);fill-opacity:1;" d="M 151.269531 5.847656 C 151.269531 4.535156 151.621094 3.503906 152.332031 2.757812 C 153.035156 2.015625 153.949219 1.644531 155.070312 1.644531 C 155.800781 1.644531 156.464844 1.820312 157.054688 2.167969 C 157.640625 2.519531 158.085938 3.007812 158.398438 3.628906 C 158.703125 4.257812 158.859375 4.964844 158.863281 5.757812 C 158.859375 6.5625 158.695312 7.28125 158.375 7.914062 C 158.046875 8.546875 157.585938 9.027344 156.992188 9.351562 C 156.394531 9.679688 155.753906 9.839844 155.066406 9.84375 C 154.316406 9.839844 153.648438 9.660156 153.0625 9.300781 C 152.472656 8.941406 152.027344 8.449219 151.726562 7.828125 C 151.421875 7.203125 151.269531 6.546875 151.269531 5.847656 Z M 152.351562 5.863281 C 152.351562 6.820312 152.609375 7.574219 153.125 8.121094 C 153.636719 8.671875 154.28125 8.945312 155.0625 8.945312 C 155.847656 8.945312 156.5 8.667969 157.011719 8.113281 C 157.523438 7.5625 157.777344 6.773438 157.777344 5.75 C 157.777344 5.109375 157.667969 4.546875 157.453125 4.0625 C 157.230469 3.582031 156.914062 3.210938 156.492188 2.941406 C 156.070312 2.679688 155.597656 2.546875 155.078125 2.546875 C 154.328125 2.546875 153.691406 2.800781 153.15625 3.308594 C 152.617188 3.820312 152.351562 4.671875 152.351562 5.863281 Z M 152.351562 5.863281 "/>
<path style=" stroke:none;fill-rule:nonzero;fill:rgb(0%,0%,0%);fill-opacity:1;" d="M 159.785156 9.566406 L 159.785156 1.644531 L 160.835938 1.644531 L 160.835938 4.898438 L 164.960938 4.898438 L 164.960938 1.644531 L 166.011719 1.644531 L 166.011719 9.566406 L 164.960938 9.566406 L 164.960938 5.832031 L 160.835938 5.832031 L 160.835938 9.566406 Z M 159.785156 9.566406 "/>
<path style=" stroke:none;fill-rule:nonzero;fill:rgb(0%,0%,0%);fill-opacity:1;" d="M 151.269531 61.195312 C 151.269531 59.878906 151.621094 58.851562 152.332031 58.105469 C 153.035156 57.363281 153.949219 56.992188 155.070312 56.988281 C 155.800781 56.992188 156.464844 57.164062 157.054688 57.511719 C 157.640625 57.863281 158.085938 58.355469 158.398438 58.976562 C 158.703125 59.601562 158.859375 60.308594 158.863281 61.101562 C 158.859375 61.90625 158.695312 62.625 158.375 63.257812 C 158.046875 63.894531 157.585938 64.375 156.992188 64.699219 C 156.394531 65.027344 155.753906 65.183594 155.066406 65.1875 C 154.316406 65.183594 153.648438 65.007812 153.0625 64.648438 C 152.472656 64.289062 152.027344 63.796875 151.726562 63.171875 C 151.421875 62.550781 151.269531 61.890625 151.269531 61.195312 Z M 152.351562 61.210938 C 152.351562 62.167969 152.609375 62.921875 153.125 63.464844 C 153.636719 64.019531 154.28125 64.289062 155.0625 64.289062 C 155.847656 64.289062 156.5 64.015625 157.011719 63.457031 C 157.523438 62.90625 157.777344 62.117188 157.777344 61.097656 C 157.777344 60.453125 157.667969 59.890625 157.453125 59.40625 C 157.230469 58.929688 156.914062 58.554688 156.492188 58.289062 C 156.070312 58.027344 155.597656 57.894531 155.078125 57.890625 C 154.328125 57.894531 153.691406 58.148438 153.15625 58.65625 C 152.617188 59.167969 152.351562 60.019531 152.351562 61.210938 Z M 152.351562 61.210938 "/>
<path style=" stroke:none;fill-rule:nonzero;fill:rgb(0%,0%,0%);fill-opacity:1;" d="M 159.785156 64.914062 L 159.785156 56.988281 L 160.835938 56.988281 L 160.835938 60.242188 L 164.960938 60.242188 L 164.960938 56.988281 L 166.011719 56.988281 L 166.011719 64.914062 L 164.960938 64.914062 L 164.960938 61.179688 L 160.835938 61.179688 L 160.835938 64.914062 Z M 159.785156 64.914062 "/>
<path style=" stroke:none;fill-rule:nonzero;fill:rgb(0%,0%,0%);fill-opacity:1;" d="M 44.308594 82.226562 C 44.308594 80.914062 44.664062 79.882812 45.371094 79.136719 C 46.074219 78.394531 46.992188 78.023438 48.113281 78.023438 C 48.84375 78.023438 49.503906 78.199219 50.09375 78.546875 C 50.679688 78.898438 51.128906 79.386719 51.4375 80.007812 C 51.746094 80.636719 51.898438 81.34375 51.902344 82.136719 C 51.898438 82.941406 51.738281 83.660156 51.414062 84.292969 C 51.085938 84.925781 50.625 85.40625 50.035156 85.730469 C 49.433594 86.058594 48.792969 86.21875 48.105469 86.222656 C 47.355469 86.21875 46.6875 86.039062 46.101562 85.679688 C 45.511719 85.320312 45.070312 84.828125 44.765625 84.207031 C 44.460938 83.582031 44.308594 82.925781 44.308594 82.226562 Z M 45.394531 82.242188 C 45.390625 83.199219 45.648438 83.953125 46.164062 84.5 C 46.675781 85.050781 47.320312 85.324219 48.101562 85.324219 C 48.886719 85.324219 49.539062 85.046875 50.050781 84.492188 C 50.5625 83.941406 50.816406 83.152344 50.820312 82.128906 C 50.816406 81.488281 50.707031 80.925781 50.492188 80.441406 C 50.273438 79.960938 49.953125 79.589844 49.53125 79.320312 C 49.109375 79.058594 48.636719 78.925781 48.117188 78.925781 C 47.371094 78.925781 46.730469 79.179688 46.199219 79.691406 C 45.660156 80.199219 45.390625 81.050781 45.394531 82.242188 Z M 45.394531 82.242188 "/>
<path style=" stroke:none;fill-rule:nonzero;fill:rgb(0%,0%,0%);fill-opacity:1;" d="M 52.828125 85.945312 L 52.828125 78.023438 L 53.878906 78.023438 L 53.878906 81.277344 L 58.003906 81.277344 L 58.003906 78.023438 L 59.054688 78.023438 L 59.054688 85.945312 L 58.003906 85.945312 L 58.003906 82.210938 L 53.878906 82.210938 L 53.878906 85.945312 Z M 52.828125 85.945312 "/>
<path style="fill:none;stroke-width:0.0333333;stroke-linecap:butt;stroke-linejoin:miter;stroke:rgb(0%,0%,0%);stroke-opacity:1;stroke-miterlimit:10;" d="M 0.246899 0.999992 L 0.99989 0.999992 " transform="matrix(27.722772,0,0,27.672956,12.655283,5.741328)"/>
<path style="fill:none;stroke-width:0.0333333;stroke-linecap:butt;stroke-linejoin:miter;stroke:rgb(0%,0%,0%);stroke-opacity:1;stroke-miterlimit:10;" d="M 0.99989 0.999992 L 1.594927 0.181136 " transform="matrix(27.722772,0,0,27.672956,12.655283,5.741328)"/>
<path style="fill:none;stroke-width:0.0333333;stroke-linecap:butt;stroke-linejoin:miter;stroke:rgb(0%,0%,0%);stroke-opacity:1;stroke-miterlimit:10;" d="M 1.576187 0.187206 L 2.538843 0.500012 " transform="matrix(27.722772,0,0,27.672956,12.655283,5.741328)"/>
<path style="fill:none;stroke-width:0.0333333;stroke-linecap:butt;stroke-linejoin:miter;stroke:rgb(0%,0%,0%);stroke-opacity:1;stroke-miterlimit:10;" d="M 2.538843 0.500012 L 3.413294 -0.00476829 " transform="matrix(27.722772,0,0,27.672956,12.655283,5.741328)"/>
<path style="fill:none;stroke-width:0.0333333;stroke-linecap:butt;stroke-linejoin:miter;stroke:rgb(0%,0%,0%);stroke-opacity:1;stroke-miterlimit:10;" d="M 3.396526 -0.00476829 L 4.270836 0.500012 " transform="matrix(27.722772,0,0,27.672956,12.655283,5.741328)"/>
<path style="fill:none;stroke-width:0.0333333;stroke-linecap:butt;stroke-linejoin:miter;stroke:rgb(0%,0%,0%);stroke-opacity:1;stroke-miterlimit:10;" d="M 4.270836 0.500012 L 4.861083 0.159257 " transform="matrix(27.722772,0,0,27.672956,12.655283,5.741328)"/>
<path style="fill:none;stroke-width:0.0333333;stroke-linecap:butt;stroke-linejoin:miter;stroke:rgb(0%,0%,0%);stroke-opacity:1;stroke-miterlimit:10;" d="M 4.270836 0.500012 L 4.270836 1.499972 " transform="matrix(27.722772,0,0,27.672956,12.655283,5.741328)"/>
<path style="fill:none;stroke-width:0.0333333;stroke-linecap:butt;stroke-linejoin:miter;stroke:rgb(0%,0%,0%);stroke-opacity:1;stroke-miterlimit:10;" d="M 4.270836 1.499972 L 4.861083 1.840727 " transform="matrix(27.722772,0,0,27.672956,12.655283,5.741328)"/>
<path style="fill:none;stroke-width:0.0333333;stroke-linecap:butt;stroke-linejoin:miter;stroke:rgb(0%,0%,0%);stroke-opacity:1;stroke-miterlimit:10;" d="M 4.270836 1.499972 L 3.396526 2.004893 " transform="matrix(27.722772,0,0,27.672956,12.655283,5.741328)"/>
<path style="fill:none;stroke-width:0.0333333;stroke-linecap:butt;stroke-linejoin:miter;stroke:rgb(0%,0%,0%);stroke-opacity:1;stroke-miterlimit:10;" d="M 3.413294 2.004893 L 2.538843 1.500114 " transform="matrix(27.722772,0,0,27.672956,12.655283,5.741328)"/>
<path style="fill:none;stroke-width:0.0333333;stroke-linecap:butt;stroke-linejoin:miter;stroke:rgb(0%,0%,0%);stroke-opacity:1;stroke-miterlimit:10;" d="M 2.538843 1.500114 L 2.538843 0.500012 " transform="matrix(27.722772,0,0,27.672956,12.655283,5.741328)"/>
<path style="fill:none;stroke-width:0.0333333;stroke-linecap:butt;stroke-linejoin:miter;stroke:rgb(0%,0%,0%);stroke-opacity:1;stroke-miterlimit:10;" d="M 2.538843 1.500114 L 1.587741 1.808967 " transform="matrix(27.722772,0,0,27.672956,12.655283,5.741328)"/>
<path style="fill:none;stroke-width:0.0333333;stroke-linecap:butt;stroke-linejoin:miter;stroke:rgb(0%,0%,0%);stroke-opacity:1;stroke-miterlimit:10;" d="M 1.587741 1.808967 L 0.99989 0.999992 " transform="matrix(27.722772,0,0,27.672956,12.655283,5.741328)"/>
<path style="fill:none;stroke-width:0.0333333;stroke-linecap:butt;stroke-linejoin:miter;stroke:rgb(0%,0%,0%);stroke-opacity:1;stroke-miterlimit:10;" d="M 1.587741 1.808967 L 1.371595 2.474243 " transform="matrix(27.722772,0,0,27.672956,12.655283,5.741328)"/>
</g>
</svg>
