<?xml version="1.0" encoding="UTF-8"?>
<svg xmlns="http://www.w3.org/2000/svg" xmlns:xlink="http://www.w3.org/1999/xlink" width="281.6pt" height="88pt" viewBox="0 0 281.6 88" version="1.1">
<g id="surface1627">
<path style=" stroke:none;fill-rule:nonzero;fill:rgb(0%,0%,0%);fill-opacity:1;" d="M 144.503906 5.84375 C 144.503906 4.53125 144.859375 3.503906 145.570312 2.757812 C 146.277344 2.011719 147.195312 1.644531 148.320312 1.640625 C 149.054688 1.644531 149.71875 1.816406 150.308594 2.164062 C 150.898438 2.515625 151.347656 3.003906 151.660156 3.625 C 151.96875 4.253906 152.121094 4.960938 152.125 5.753906 C 152.121094 6.558594 151.960938 7.277344 151.636719 7.910156 C 151.308594 8.546875 150.84375 9.027344 150.25 9.351562 C 149.648438 9.675781 149.003906 9.835938 148.316406 9.839844 C 147.5625 9.835938 146.890625 9.660156 146.304688 9.300781 C 145.710938 8.941406 145.265625 8.449219 144.960938 7.824219 C 144.65625 7.203125 144.503906 6.542969 144.503906 5.84375 Z M 145.59375 5.863281 C 145.589844 6.816406 145.847656 7.570312 146.367188 8.117188 C 146.878906 8.667969 147.527344 8.941406 148.308594 8.941406 C 149.101562 8.941406 149.753906 8.667969 150.269531 8.109375 C 150.78125 7.558594 151.035156 6.769531 151.039062 5.75 C 151.035156 5.105469 150.925781 4.542969 150.710938 4.058594 C 150.488281 3.582031 150.167969 3.207031 149.746094 2.941406 C 149.324219 2.679688 148.847656 2.546875 148.324219 2.542969 C 147.574219 2.546875 146.933594 2.800781 146.398438 3.308594 C 145.859375 3.820312 145.589844 4.667969 145.59375 5.863281 Z M 145.59375 5.863281 "/>
<path style=" stroke:none;fill-rule:nonzero;fill:rgb(0%,0%,0%);fill-opacity:1;" d="M 144.503906 61.191406 C 144.503906 59.878906 144.859375 58.847656 145.570312 58.101562 C 146.277344 57.359375 147.195312 56.988281 148.320312 56.984375 C 149.054688 56.988281 149.71875 57.160156 150.308594 57.511719 C 150.898438 57.863281 151.347656 58.351562 151.660156 58.972656 C 151.96875 59.597656 152.121094 60.308594 152.125 61.097656 C 152.121094 61.90625 151.960938 62.625 151.636719 63.257812 C 151.308594 63.890625 150.84375 64.371094 150.25 64.695312 C 149.648438 65.023438 149.003906 65.183594 148.316406 65.183594 C 147.5625 65.183594 146.890625 65.003906 146.304688 64.644531 C 145.710938 64.285156 145.265625 63.792969 144.960938 63.167969 C 144.65625 62.546875 144.503906 61.886719 144.503906 61.191406 Z M 145.59375 61.207031 C 145.589844 62.164062 145.847656 62.917969 146.367188 63.464844 C 146.878906 64.015625 147.527344 64.289062 148.308594 64.289062 C 149.101562 64.289062 149.753906 64.011719 150.269531 63.457031 C 150.78125 62.90625 151.035156 62.117188 151.039062 61.09375 C 151.035156 60.449219 150.925781 59.890625 150.710938 59.40625 C 150.488281 58.925781 150.167969 58.554688 149.746094 58.285156 C 149.324219 58.023438 148.847656 57.890625 148.324219 57.890625 C 147.574219 57.890625 146.933594 58.144531 146.398438 58.652344 C 145.859375 59.164062 145.589844 60.015625 145.59375 61.207031 Z M 145.59375 61.207031 "/>
<path style=" stroke:none;fill-rule:nonzero;fill:rgb(0%,0%,0%);fill-opacity:1;" d="M 185.4375 23.332031 L 185.4375 15.40625 L 186.492188 15.40625 L 186.492188 18.660156 L 190.632812 18.660156 L 190.632812 15.40625 L 191.6875 15.40625 L 191.6875 23.332031 L 190.632812 23.332031 L 190.632812 19.59375 L 186.492188 19.59375 L 186.492188 23.332031 Z M 185.4375 23.332031 "/>
<path style=" stroke:none;fill-rule:nonzero;fill:rgb(0%,0%,0%);fill-opacity:1;" d="M 213.261719 23.332031 L 213.261719 15.40625 L 214.316406 15.40625 L 214.316406 18.660156 L 218.460938 18.660156 L 218.460938 15.40625 L 219.511719 15.40625 L 219.511719 23.332031 L 218.460938 23.332031 L 218.460938 19.59375 L 214.316406 19.59375 L 214.316406 23.332031 Z M 213.261719 23.332031 "/>
<path style=" stroke:none;fill-rule:nonzero;fill:rgb(0%,0%,0%);fill-opacity:1;" d="M 245.5625 22.339844 L 245.5625 14.417969 L 246.617188 14.417969 L 246.617188 17.671875 L 250.757812 17.671875 L 250.757812 14.417969 L 251.8125 14.417969 L 251.8125 22.339844 L 250.757812 22.339844 L 250.757812 18.605469 L 246.617188 18.605469 L 246.617188 22.339844 Z M 245.5625 22.339844 "/>
<path style=" stroke:none;fill-rule:nonzero;fill:rgb(0%,0%,0%);fill-opacity:1;" d="M 273.386719 22.339844 L 273.386719 14.417969 L 274.441406 14.417969 L 274.441406 17.671875 L 278.585938 17.671875 L 278.585938 14.417969 L 279.636719 14.417969 L 279.636719 22.339844 L 278.585938 22.339844 L 278.585938 18.605469 L 274.441406 18.605469 L 274.441406 22.339844 Z M 273.386719 22.339844 "/>
<path style=" stroke:none;fill-rule:nonzero;fill:rgb(0%,0%,0%);fill-opacity:1;" d="M 1.5625 33.519531 C 1.5625 32.203125 1.914062 31.175781 2.628906 30.429688 C 3.335938 29.6875 4.253906 29.316406 5.378906 29.3125 C 6.113281 29.316406 6.773438 29.488281 7.367188 29.835938 C 7.957031 30.1875 8.40625 30.679688 8.71875 31.300781 C 9.023438 31.925781 9.179688 32.632812 9.183594 33.425781 C 9.179688 34.230469 9.015625 34.949219 8.691406 35.582031 C 8.363281 36.21875 7.902344 36.699219 7.308594 37.023438 C 6.707031 37.351562 6.0625 37.511719 5.371094 37.511719 C 4.621094 37.511719 3.949219 37.332031 3.363281 36.972656 C 2.769531 36.613281 2.324219 36.121094 2.019531 35.496094 C 1.714844 34.875 1.5625 34.214844 1.5625 33.519531 Z M 2.648438 33.535156 C 2.648438 34.492188 2.90625 35.246094 3.425781 35.792969 C 3.9375 36.34375 4.585938 36.617188 5.367188 36.617188 C 6.15625 36.617188 6.8125 36.339844 7.324219 35.78125 C 7.835938 35.230469 8.09375 34.441406 8.09375 33.421875 C 8.09375 32.777344 7.984375 32.214844 7.765625 31.730469 C 7.546875 31.253906 7.226562 30.878906 6.804688 30.613281 C 6.378906 30.351562 5.90625 30.21875 5.382812 30.214844 C 4.632812 30.21875 3.992188 30.472656 3.457031 30.980469 C 2.914062 31.492188 2.648438 32.34375 2.648438 33.535156 Z M 2.648438 33.535156 "/>
<path style=" stroke:none;fill-rule:nonzero;fill:rgb(0%,0%,0%);fill-opacity:1;" d="M 37.148438 82.226562 C 37.148438 80.914062 37.5 79.882812 38.210938 79.136719 C 38.917969 78.394531 39.835938 78.023438 40.960938 78.023438 C 41.695312 78.023438 42.359375 78.199219 42.949219 78.546875 C 43.539062 78.898438 43.988281 79.386719 44.300781 80.007812 C 44.609375 80.636719 44.761719 81.34375 44.765625 82.136719 C 44.761719 82.941406 44.601562 83.660156 44.277344 84.292969 C 43.949219 84.925781 43.488281 85.40625 42.890625 85.730469 C 42.289062 86.058594 41.648438 86.21875 40.957031 86.222656 C 40.203125 86.21875 39.53125 86.039062 38.945312 85.679688 C 38.351562 85.320312 37.90625 84.828125 37.601562 84.207031 C 37.300781 83.582031 37.148438 82.925781 37.148438 82.226562 Z M 38.234375 82.242188 C 38.230469 83.199219 38.488281 83.953125 39.007812 84.5 C 39.523438 85.050781 40.167969 85.324219 40.949219 85.324219 C 41.742188 85.324219 42.398438 85.046875 42.910156 84.492188 C 43.421875 83.941406 43.675781 83.152344 43.679688 82.128906 C 43.675781 81.488281 43.566406 80.925781 43.351562 80.441406 C 43.128906 79.960938 42.808594 79.589844 42.386719 79.320312 C 41.964844 79.058594 41.488281 78.925781 40.96875 78.925781 C 40.21875 78.925781 39.574219 79.179688 39.039062 79.691406 C 38.5 80.199219 38.230469 81.050781 38.234375 82.242188 Z M 38.234375 82.242188 "/>
<path style=" stroke:none;fill-rule:nonzero;fill:rgb(0%,0%,0%);fill-opacity:1;" d="M 185.976562 58.410156 L 185.976562 50.488281 L 187.03125 50.488281 L 187.03125 53.742188 L 191.175781 53.742188 L 191.175781 50.488281 L 192.226562 50.488281 L 192.226562 58.410156 L 191.175781 58.410156 L 191.175781 54.675781 L 187.03125 54.675781 L 187.03125 58.410156 Z M 185.976562 58.410156 "/>
<path style=" stroke:none;fill-rule:nonzero;fill:rgb(0%,0%,0%);fill-opacity:1;" d="M 213.800781 58.410156 L 213.800781 50.488281 L 214.855469 50.488281 L 214.855469 53.742188 L 218.996094 53.742188 L 218.996094 50.488281 L 220.050781 50.488281 L 220.050781 58.410156 L 218.996094 58.410156 L 218.996094 54.675781 L 214.855469 54.675781 L 214.855469 58.410156 Z M 213.800781 58.410156 "/>
<path style=" stroke:none;fill-rule:nonzero;fill:rgb(0%,0%,0%);fill-opacity:1;" d="M 246.101562 57.421875 L 246.101562 49.496094 L 247.15625 49.496094 L 247.15625 52.75 L 251.296875 52.75 L 251.296875 49.496094 L 252.351562 49.496094 L 252.351562 57.421875 L 251.296875 57.421875 L 251.296875 53.6875 L 247.15625 53.6875 L 247.15625 57.421875 Z M 246.101562 57.421875 "/>
<path style=" stroke:none;fill-rule:nonzero;fill:rgb(0%,0%,0%);fill-opacity:1;" d="M 273.925781 57.421875 L 273.925781 49.496094 L 274.980469 49.496094 L 274.980469 52.75 L 279.121094 52.75 L 279.121094 49.496094 L 280.175781 49.496094 L 280.175781 57.421875 L 279.121094 57.421875 L 279.121094 53.6875 L 274.980469 53.6875 L 274.980469 57.421875 Z M 273.925781 57.421875 "/>
<path style="fill:none;stroke-width:0.0333333;stroke-linecap:butt;stroke-linejoin:miter;stroke:rgb(0%,0%,0%);stroke-opacity:1;stroke-miterlimit:10;" d="M 3.396472 -0.00471946 L 4.279187 0.504719 " transform="matrix(27.826087,0,0,27.672956,5.372282,5.739976)"/>
<path style="fill:none;stroke-width:0.0333333;stroke-linecap:butt;stroke-linejoin:miter;stroke:rgb(0%,0%,0%);stroke-opacity:1;stroke-miterlimit:10;" d="M 4.270905 0.596189 L 4.902759 0.231437 " transform="matrix(27.826087,0,0,27.672956,5.372282,5.739976)"/>
<path style="fill:none;stroke-width:0.0333333;stroke-linecap:butt;stroke-linejoin:miter;stroke:rgb(0%,0%,0%);stroke-opacity:1;stroke-miterlimit:10;" d="M 4.187659 0.451784 L 4.819373 0.0871742 " transform="matrix(27.826087,0,0,27.672956,5.372282,5.739976)"/>
<path style="fill:none;stroke-width:0.0333333;stroke-linecap:butt;stroke-linejoin:miter;stroke:rgb(0%,0%,0%);stroke-opacity:1;stroke-miterlimit:10;" d="M 4.270905 0.49032 L 4.270905 1.50962 " transform="matrix(27.826087,0,0,27.672956,5.372282,5.739976)"/>
<path style="fill:none;stroke-width:0.0333333;stroke-linecap:butt;stroke-linejoin:miter;stroke:rgb(0%,0%,0%);stroke-opacity:1;stroke-miterlimit:10;" d="M 4.187659 1.548156 L 4.819373 1.912907 " transform="matrix(27.826087,0,0,27.672956,5.372282,5.739976)"/>
<path style="fill:none;stroke-width:0.0333333;stroke-linecap:butt;stroke-linejoin:miter;stroke:rgb(0%,0%,0%);stroke-opacity:1;stroke-miterlimit:10;" d="M 4.270905 1.403752 L 4.902759 1.768503 " transform="matrix(27.826087,0,0,27.672956,5.372282,5.739976)"/>
<path style="fill:none;stroke-width:0.0333333;stroke-linecap:butt;stroke-linejoin:miter;stroke:rgb(0%,0%,0%);stroke-opacity:1;stroke-miterlimit:10;" d="M 4.279187 1.495222 L 3.396472 2.004801 " transform="matrix(27.826087,0,0,27.672956,5.372282,5.739976)"/>
<path style="fill:none;stroke-width:0.0333333;stroke-linecap:butt;stroke-linejoin:miter;stroke:rgb(0%,0%,0%);stroke-opacity:1;stroke-miterlimit:10;" d="M 6.805621 0.492438 L 7.360968 0.492438 " transform="matrix(27.826087,0,0,27.672956,5.372282,5.739976)"/>
<path style="fill:none;stroke-width:0.0333333;stroke-linecap:butt;stroke-linejoin:miter;stroke:rgb(0%,0%,0%);stroke-opacity:1;stroke-miterlimit:10;" d="M 8.966364 0.456725 L 9.52171 0.456725 " transform="matrix(27.826087,0,0,27.672956,5.372282,5.739976)"/>
<path style="fill:none;stroke-width:0.0333333;stroke-linecap:butt;stroke-linejoin:miter;stroke:rgb(0%,0%,0%);stroke-opacity:1;stroke-miterlimit:10;" d="M 1.594824 0.181185 L 0.992871 1.009781 " transform="matrix(27.826087,0,0,27.672956,5.372282,5.739976)"/>
<path style="fill:none;stroke-width:0.0333333;stroke-linecap:butt;stroke-linejoin:miter;stroke:rgb(0%,0%,0%);stroke-opacity:1;stroke-miterlimit:10;" d="M 1.060535 0.916758 L 0.246887 0.916758 " transform="matrix(27.826087,0,0,27.672956,5.372282,5.739976)"/>
<path style="fill:none;stroke-width:0.0333333;stroke-linecap:butt;stroke-linejoin:miter;stroke:rgb(0%,0%,0%);stroke-opacity:1;stroke-miterlimit:10;" d="M 1.060535 1.083324 L 0.246887 1.083324 " transform="matrix(27.826087,0,0,27.672956,5.372282,5.739976)"/>
<path style="fill:none;stroke-width:0.0333333;stroke-linecap:butt;stroke-linejoin:miter;stroke:rgb(0%,0%,0%);stroke-opacity:1;stroke-miterlimit:10;" d="M 0.992871 0.990301 L 1.594824 1.818755 " transform="matrix(27.826087,0,0,27.672956,5.372282,5.739976)"/>
<path style="fill:none;stroke-width:0.0333333;stroke-linecap:butt;stroke-linejoin:miter;stroke:rgb(0%,0%,0%);stroke-opacity:1;stroke-miterlimit:10;" d="M 1.527301 1.725591 L 1.293567 2.44479 " transform="matrix(27.826087,0,0,27.672956,5.372282,5.739976)"/>
<path style="fill:none;stroke-width:0.0333333;stroke-linecap:butt;stroke-linejoin:miter;stroke:rgb(0%,0%,0%);stroke-opacity:1;stroke-miterlimit:10;" d="M 1.685791 1.777114 L 1.452197 2.496312 " transform="matrix(27.826087,0,0,27.672956,5.372282,5.739976)"/>
<path style="fill:none;stroke-width:0.0333333;stroke-linecap:butt;stroke-linejoin:miter;stroke:rgb(0%,0%,0%);stroke-opacity:1;stroke-miterlimit:10;" d="M 1.576294 1.812686 L 2.538745 1.500021 " transform="matrix(27.826087,0,0,27.672956,5.372282,5.739976)"/>
<path style="fill:none;stroke-width:0.0333333;stroke-linecap:butt;stroke-linejoin:miter;stroke:rgb(0%,0%,0%);stroke-opacity:1;stroke-miterlimit:10;" d="M 6.825134 1.760175 L 7.380481 1.760175 " transform="matrix(27.826087,0,0,27.672956,5.372282,5.739976)"/>
<path style="fill:none;stroke-width:0.0333333;stroke-linecap:butt;stroke-linejoin:miter;stroke:rgb(0%,0%,0%);stroke-opacity:1;stroke-miterlimit:10;" d="M 8.985736 1.724321 L 9.541223 1.724321 " transform="matrix(27.826087,0,0,27.672956,5.372282,5.739976)"/>
<path style="fill:none;stroke-width:0.0333333;stroke-linecap:butt;stroke-linejoin:miter;stroke:rgb(0%,0%,0%);stroke-opacity:1;stroke-miterlimit:10;" d="M 2.538745 0.50006 L 2.538745 1.500021 " transform="matrix(27.826087,0,0,27.672956,5.372282,5.739976)"/>
<path style="fill:none;stroke-width:0.0333333;stroke-linecap:butt;stroke-linejoin:miter;stroke:rgb(0%,0%,0%);stroke-opacity:1;stroke-miterlimit:10;" d="M 2.538745 0.50006 L 1.576294 0.187255 " transform="matrix(27.826087,0,0,27.672956,5.372282,5.739976)"/>
<path style="fill:none;stroke-width:0.0333333;stroke-linecap:butt;stroke-linejoin:miter;stroke:rgb(0%,0%,0%);stroke-opacity:1;stroke-miterlimit:10;" d="M 2.538745 1.500021 L 3.413177 2.004801 " transform="matrix(27.826087,0,0,27.672956,5.372282,5.739976)"/>
<path style="fill:none;stroke-width:0.0333333;stroke-linecap:butt;stroke-linejoin:miter;stroke:rgb(0%,0%,0%);stroke-opacity:1;stroke-miterlimit:10;" d="M 2.538745 0.50006 L 3.413177 -0.00471946 " transform="matrix(27.826087,0,0,27.672956,5.372282,5.739976)"/>
</g>
</svg>
