<?xml version="1.0" encoding="UTF-8"?>
<svg xmlns="http://www.w3.org/2000/svg" xmlns:xlink="http://www.w3.org/1999/xlink" width="128pt" height="94.4pt" viewBox="0 0 128 94.4" version="1.1">
<g id="surface227">
<path style=" stroke:none;fill-rule:nonzero;fill:rgb(0%,0%,0%);fill-opacity:1;" d="M 63.171875 9.53125 L 63.171875 2.519531 L 60.558594 2.519531 L 60.558594 1.582031 L 66.847656 1.582031 L 66.847656 2.519531 L 64.222656 2.519531 L 64.222656 9.53125 Z M 63.171875 9.53125 "/>
<path style=" stroke:none;fill-rule:nonzero;fill:rgb(0%,0%,0%);fill-opacity:1;" d="M 68.171875 9.53125 L 68.171875 4.53125 L 67.3125 4.53125 L 67.3125 3.773438 L 68.171875 3.773438 L 68.171875 3.160156 C 68.167969 2.773438 68.203125 2.488281 68.273438 2.296875 C 68.367188 2.042969 68.53125 1.839844 68.769531 1.679688 C 69.003906 1.523438 69.335938 1.445312 69.761719 1.445312 C 70.03125 1.445312 70.335938 1.476562 70.671875 1.542969 L 70.523438 2.394531 C 70.320312 2.359375 70.128906 2.339844 69.953125 2.339844 C 69.652344 2.339844 69.441406 2.40625 69.324219 2.53125 C 69.199219 2.660156 69.140625 2.894531 69.140625 3.238281 L 69.140625 3.773438 L 70.257812 3.773438 L 70.257812 4.53125 L 69.140625 4.53125 L 69.140625 9.53125 Z M 68.171875 9.53125 "/>
<path style=" stroke:none;fill-rule:nonzero;fill:rgb(0%,0%,0%);fill-opacity:1;" d="M 71.132812 5.660156 C 71.132812 4.339844 71.484375 3.308594 72.195312 2.558594 C 72.898438 1.8125 73.8125 1.441406 74.933594 1.441406 C 75.664062 1.441406 76.324219 1.617188 76.914062 1.964844 C 77.5 2.316406 77.945312 2.808594 78.257812 3.433594 C 78.5625 4.0625 78.71875 4.773438 78.71875 5.566406 C 78.71875 6.375 78.554688 7.097656 78.234375 7.730469 C 77.90625 8.367188 77.445312 8.851562 76.851562 9.175781 C 76.253906 9.503906 75.613281 9.664062 74.925781 9.667969 C 74.175781 9.664062 73.507812 9.484375 72.925781 9.125 C 72.335938 8.761719 71.890625 8.269531 71.589844 7.644531 C 71.285156 7.019531 71.132812 6.359375 71.132812 5.660156 Z M 72.214844 5.675781 C 72.214844 6.636719 72.46875 7.390625 72.988281 7.9375 C 73.5 8.492188 74.140625 8.765625 74.921875 8.765625 C 75.707031 8.765625 76.359375 8.488281 76.871094 7.929688 C 77.382812 7.378906 77.636719 6.585938 77.636719 5.5625 C 77.636719 4.914062 77.527344 4.351562 77.3125 3.867188 C 77.089844 3.386719 76.773438 3.011719 76.351562 2.742188 C 75.929688 2.480469 75.457031 2.347656 74.9375 2.34375 C 74.191406 2.347656 73.550781 2.601562 73.019531 3.113281 C 72.480469 3.625 72.214844 4.480469 72.214844 5.675781 Z M 72.214844 5.675781 "/>
<path style=" stroke:none;fill-rule:nonzero;fill:rgb(0%,0%,0%);fill-opacity:1;" d="M 111.164062 92.824219 L 111.164062 85.8125 L 108.550781 85.8125 L 108.550781 84.875 L 114.835938 84.875 L 114.835938 85.8125 L 112.214844 85.8125 L 112.214844 92.824219 Z M 111.164062 92.824219 "/>
<path style=" stroke:none;fill-rule:nonzero;fill:rgb(0%,0%,0%);fill-opacity:1;" d="M 116.160156 92.824219 L 116.160156 87.824219 L 115.300781 87.824219 L 115.300781 87.066406 L 116.160156 87.066406 L 116.160156 86.453125 C 116.15625 86.066406 116.191406 85.78125 116.261719 85.589844 C 116.355469 85.339844 116.519531 85.132812 116.757812 84.976562 C 116.992188 84.816406 117.324219 84.738281 117.75 84.738281 C 118.023438 84.738281 118.324219 84.773438 118.660156 84.835938 L 118.515625 85.6875 C 118.308594 85.652344 118.121094 85.632812 117.941406 85.632812 C 117.644531 85.632812 117.433594 85.699219 117.3125 85.824219 C 117.1875 85.953125 117.128906 86.191406 117.128906 86.535156 L 117.128906 87.066406 L 118.25 87.066406 L 118.25 87.824219 L 117.128906 87.824219 L 117.128906 92.824219 Z M 116.160156 92.824219 "/>
<path style=" stroke:none;fill-rule:nonzero;fill:rgb(0%,0%,0%);fill-opacity:1;" d="M 119.121094 88.953125 C 119.121094 87.636719 119.472656 86.601562 120.179688 85.855469 C 120.882812 85.109375 121.800781 84.738281 122.917969 84.734375 C 123.648438 84.738281 124.308594 84.910156 124.898438 85.261719 C 125.488281 85.613281 125.933594 86.101562 126.246094 86.726562 C 126.550781 87.355469 126.703125 88.066406 126.707031 88.859375 C 126.703125 89.667969 126.542969 90.390625 126.21875 91.023438 C 125.894531 91.660156 125.433594 92.144531 124.839844 92.46875 C 124.242188 92.796875 123.601562 92.957031 122.914062 92.960938 C 122.164062 92.957031 121.496094 92.777344 120.910156 92.417969 C 120.320312 92.058594 119.878906 91.5625 119.574219 90.9375 C 119.273438 90.3125 119.121094 89.652344 119.121094 88.953125 Z M 120.203125 88.96875 C 120.199219 89.929688 120.457031 90.683594 120.972656 91.234375 C 121.484375 91.785156 122.128906 92.058594 122.910156 92.058594 C 123.695312 92.058594 124.347656 91.785156 124.859375 91.226562 C 125.367188 90.671875 125.621094 89.878906 125.625 88.855469 C 125.621094 88.210938 125.515625 87.644531 125.296875 87.160156 C 125.078125 86.679688 124.757812 86.304688 124.339844 86.039062 C 123.917969 85.773438 123.445312 85.640625 122.925781 85.640625 C 122.179688 85.640625 121.539062 85.898438 121.007812 86.40625 C 120.46875 86.917969 120.199219 87.773438 120.203125 88.96875 Z M 120.203125 88.96875 "/>
<path style=" stroke:none;fill-rule:nonzero;fill:rgb(0%,0%,0%);fill-opacity:1;" d="M 4.042969 92.824219 L 4.042969 85.8125 L 1.429688 85.8125 L 1.429688 84.875 L 7.714844 84.875 L 7.714844 85.8125 L 5.09375 85.8125 L 5.09375 92.824219 Z M 4.042969 92.824219 "/>
<path style=" stroke:none;fill-rule:nonzero;fill:rgb(0%,0%,0%);fill-opacity:1;" d="M 9.039062 92.824219 L 9.039062 87.824219 L 8.179688 87.824219 L 8.179688 87.066406 L 9.039062 87.066406 L 9.039062 86.453125 C 9.035156 86.066406 9.070312 85.78125 9.140625 85.589844 C 9.234375 85.339844 9.398438 85.132812 9.636719 84.976562 C 9.871094 84.816406 10.203125 84.738281 10.628906 84.738281 C 10.902344 84.738281 11.203125 84.773438 11.539062 84.835938 L 11.394531 85.6875 C 11.1875 85.652344 11 85.632812 10.820312 85.632812 C 10.523438 85.632812 10.3125 85.699219 10.191406 85.824219 C 10.066406 85.953125 10.007812 86.191406 10.007812 86.535156 L 10.007812 87.066406 L 11.128906 87.066406 L 11.128906 87.824219 L 10.007812 87.824219 L 10.007812 92.824219 Z M 9.039062 92.824219 "/>
<path style=" stroke:none;fill-rule:nonzero;fill:rgb(0%,0%,0%);fill-opacity:1;" d="M 12.003906 88.953125 C 12.003906 87.636719 12.355469 86.601562 13.0625 85.855469 C 13.765625 85.109375 14.679688 84.738281 15.800781 84.734375 C 16.53125 84.738281 17.191406 84.910156 17.78125 85.261719 C 18.367188 85.613281 18.816406 86.101562 19.125 86.726562 C 19.433594 87.355469 19.585938 88.066406 19.589844 88.859375 C 19.585938 89.667969 19.421875 90.390625 19.101562 91.023438 C 18.773438 91.660156 18.3125 92.144531 17.722656 92.46875 C 17.125 92.796875 16.484375 92.957031 15.796875 92.960938 C 15.046875 92.957031 14.378906 92.777344 13.792969 92.417969 C 13.203125 92.058594 12.757812 91.5625 12.457031 90.9375 C 12.152344 90.3125 12.003906 89.652344 12.003906 88.953125 Z M 13.085938 88.96875 C 13.082031 89.929688 13.339844 90.683594 13.855469 91.234375 C 14.367188 91.785156 15.011719 92.058594 15.789062 92.058594 C 16.578125 92.058594 17.230469 91.785156 17.742188 91.226562 C 18.25 90.671875 18.503906 89.878906 18.507812 88.855469 C 18.503906 88.210938 18.394531 87.644531 18.179688 87.160156 C 17.960938 86.679688 17.640625 86.304688 17.222656 86.039062 C 16.800781 85.773438 16.324219 85.640625 15.804688 85.640625 C 15.058594 85.640625 14.421875 85.898438 13.886719 86.40625 C 13.347656 86.917969 13.082031 87.773438 13.085938 88.96875 Z M 13.085938 88.96875 "/>
<path style="fill:none;stroke-width:0.0333333;stroke-linecap:butt;stroke-linejoin:miter;stroke:rgb(0%,0%,0%);stroke-opacity:1;stroke-miterlimit:10;" d="M 1.731977 1.009524 L 1.731977 0.257952 " transform="matrix(27.705628,0,0,27.764706,16.080898,5.420083)"/>
<path style="fill:none;stroke-width:0.0333333;stroke-linecap:butt;stroke-linejoin:miter;stroke:rgb(0%,0%,0%);stroke-opacity:1;stroke-miterlimit:10;" d="M 1.731977 0.999957 L 2.606404 1.504757 " transform="matrix(27.705628,0,0,27.764706,16.080898,5.420083)"/>
<path style="fill:none;stroke-width:0.0333333;stroke-linecap:butt;stroke-linejoin:miter;stroke:rgb(0%,0%,0%);stroke-opacity:1;stroke-miterlimit:10;" d="M 1.731977 1.192423 L 2.439753 1.60099 " transform="matrix(27.705628,0,0,27.764706,16.080898,5.420083)"/>
<path style="fill:none;stroke-width:0.0333333;stroke-linecap:butt;stroke-linejoin:miter;stroke:rgb(0%,0%,0%);stroke-opacity:1;stroke-miterlimit:10;" d="M 1.740295 0.995173 L 0.857549 1.504757 " transform="matrix(27.705628,0,0,27.764706,16.080898,5.420083)"/>
<path style="fill:none;stroke-width:0.0333333;stroke-linecap:butt;stroke-linejoin:miter;stroke:rgb(0%,0%,0%);stroke-opacity:1;stroke-miterlimit:10;" d="M 0.866009 1.490266 L 0.866009 2.500007 " transform="matrix(27.705628,0,0,27.764706,16.080898,5.420083)"/>
<path style="fill:none;stroke-width:0.0333333;stroke-linecap:butt;stroke-linejoin:miter;stroke:rgb(0%,0%,0%);stroke-opacity:1;stroke-miterlimit:10;" d="M 1.03252 1.586639 L 1.03252 2.403774 " transform="matrix(27.705628,0,0,27.764706,16.080898,5.420083)"/>
<path style="fill:none;stroke-width:0.0333333;stroke-linecap:butt;stroke-linejoin:miter;stroke:rgb(0%,0%,0%);stroke-opacity:1;stroke-miterlimit:10;" d="M 0.857549 2.495223 L 1.740295 3.004807 " transform="matrix(27.705628,0,0,27.764706,16.080898,5.420083)"/>
<path style="fill:none;stroke-width:0.0333333;stroke-linecap:butt;stroke-linejoin:miter;stroke:rgb(0%,0%,0%);stroke-opacity:1;stroke-miterlimit:10;" d="M 1.723658 3.004807 L 2.597945 2.500007 " transform="matrix(27.705628,0,0,27.764706,16.080898,5.420083)"/>
<path style="fill:none;stroke-width:0.0333333;stroke-linecap:butt;stroke-linejoin:miter;stroke:rgb(0%,0%,0%);stroke-opacity:1;stroke-miterlimit:10;" d="M 1.723658 2.812341 L 2.431434 2.403774 " transform="matrix(27.705628,0,0,27.764706,16.080898,5.420083)"/>
<path style="fill:none;stroke-width:0.0333333;stroke-linecap:butt;stroke-linejoin:miter;stroke:rgb(0%,0%,0%);stroke-opacity:1;stroke-miterlimit:10;" d="M 2.597945 2.509574 L 2.597945 1.490266 " transform="matrix(27.705628,0,0,27.764706,16.080898,5.420083)"/>
<path style="fill:none;stroke-width:0.0333333;stroke-linecap:butt;stroke-linejoin:miter;stroke:rgb(0%,0%,0%);stroke-opacity:1;stroke-miterlimit:10;" d="M 2.589767 2.495223 L 3.200259 2.847655 " transform="matrix(27.705628,0,0,27.764706,16.080898,5.420083)"/>
<path style="fill:none;stroke-width:0.0333333;stroke-linecap:butt;stroke-linejoin:miter;stroke:rgb(0%,0%,0%);stroke-opacity:1;stroke-miterlimit:10;" d="M 0.874327 2.495223 L 0.26595 2.846388 " transform="matrix(27.705628,0,0,27.764706,16.080898,5.420083)"/>
</g>
</svg>
