<?xml version="1.0" encoding="UTF-8"?>
<svg xmlns="http://www.w3.org/2000/svg" xmlns:xlink="http://www.w3.org/1999/xlink" width="153.6pt" height="50.4pt" viewBox="0 0 153.6 50.4" version="1.1">
<g id="surface1212">
<path style=" stroke:none;fill-rule:nonzero;fill:rgb(0%,0%,0%);fill-opacity:1;" d="M 7.492188 13.609375 L 8.546875 13.875 C 8.324219 14.738281 7.925781 15.394531 7.351562 15.847656 C 6.777344 16.300781 6.074219 16.523438 5.246094 16.527344 C 4.386719 16.523438 3.6875 16.351562 3.152344 16.003906 C 2.613281 15.65625 2.199219 15.152344 1.925781 14.492188 C 1.640625 13.832031 1.503906 13.125 1.503906 12.367188 C 1.503906 11.542969 1.660156 10.824219 1.976562 10.207031 C 2.292969 9.59375 2.746094 9.125 3.332031 8.804688 C 3.914062 8.484375 4.558594 8.328125 5.261719 8.328125 C 6.058594 8.328125 6.730469 8.53125 7.273438 8.933594 C 7.816406 9.339844 8.195312 9.90625 8.410156 10.636719 L 7.371094 10.878906 C 7.1875 10.304688 6.917969 9.882812 6.566406 9.621094 C 6.214844 9.359375 5.773438 9.226562 5.242188 9.222656 C 4.628906 9.226562 4.117188 9.375 3.707031 9.664062 C 3.292969 9.957031 3.003906 10.347656 2.839844 10.839844 C 2.671875 11.332031 2.585938 11.84375 2.589844 12.363281 C 2.585938 13.039062 2.683594 13.625 2.886719 14.128906 C 3.082031 14.628906 3.386719 15.007812 3.808594 15.253906 C 4.21875 15.503906 4.671875 15.628906 5.160156 15.628906 C 5.746094 15.628906 6.246094 15.460938 6.660156 15.121094 C 7.066406 14.785156 7.34375 14.28125 7.492188 13.609375 Z M 7.492188 13.609375 "/>
<path style=" stroke:none;fill-rule:nonzero;fill:rgb(0%,0%,0%);fill-opacity:1;" d="M 9.011719 12.527344 C 9.011719 11.214844 9.363281 10.183594 10.074219 9.4375 C 10.78125 8.695312 11.699219 8.324219 12.824219 8.320312 C 13.558594 8.324219 14.222656 8.496094 14.816406 8.847656 C 15.40625 9.199219 15.851562 9.6875 16.164062 10.308594 C 16.472656 10.9375 16.628906 11.644531 16.628906 12.4375 C 16.628906 13.242188 16.464844 13.960938 16.140625 14.59375 C 15.8125 15.230469 15.351562 15.710938 14.753906 16.035156 C 14.15625 16.363281 13.511719 16.523438 12.820312 16.527344 C 12.066406 16.523438 11.398438 16.34375 10.808594 15.984375 C 10.21875 15.625 9.773438 15.132812 9.46875 14.507812 C 9.164062 13.886719 9.011719 13.226562 9.011719 12.527344 Z M 10.097656 12.546875 C 10.09375 13.503906 10.351562 14.257812 10.871094 14.804688 C 11.386719 15.355469 12.03125 15.628906 12.816406 15.628906 C 13.605469 15.628906 14.261719 15.351562 14.773438 14.796875 C 15.285156 14.242188 15.539062 13.453125 15.542969 12.433594 C 15.539062 11.789062 15.433594 11.226562 15.214844 10.742188 C 14.996094 10.261719 14.675781 9.890625 14.253906 9.621094 C 13.828125 9.359375 13.351562 9.226562 12.832031 9.222656 C 12.082031 9.226562 11.441406 9.480469 10.90625 9.988281 C 10.363281 10.5 10.09375 11.351562 10.097656 12.546875 Z M 10.097656 12.546875 "/>
<path style=" stroke:none;fill-rule:nonzero;fill:rgb(0%,0%,0%);fill-opacity:1;" d="M 17.09375 12.527344 C 17.09375 11.214844 17.449219 10.183594 18.160156 9.4375 C 18.867188 8.695312 19.785156 8.324219 20.910156 8.320312 C 21.644531 8.324219 22.308594 8.496094 22.898438 8.847656 C 23.488281 9.199219 23.9375 9.6875 24.25 10.308594 C 24.558594 10.9375 24.710938 11.644531 24.714844 12.4375 C 24.710938 13.242188 24.550781 13.960938 24.226562 14.59375 C 23.898438 15.230469 23.433594 15.710938 22.839844 16.035156 C 22.238281 16.363281 21.59375 16.523438 20.90625 16.527344 C 20.152344 16.523438 19.480469 16.34375 18.894531 15.984375 C 18.300781 15.625 17.855469 15.132812 17.550781 14.507812 C 17.246094 13.886719 17.09375 13.226562 17.09375 12.527344 Z M 18.183594 12.546875 C 18.179688 13.503906 18.4375 14.257812 18.957031 14.804688 C 19.46875 15.355469 20.117188 15.628906 20.898438 15.628906 C 21.691406 15.628906 22.34375 15.351562 22.859375 14.796875 C 23.371094 14.242188 23.625 13.453125 23.628906 12.433594 C 23.625 11.789062 23.515625 11.226562 23.300781 10.742188 C 23.078125 10.261719 22.757812 9.890625 22.335938 9.621094 C 21.914062 9.359375 21.4375 9.226562 20.914062 9.222656 C 20.164062 9.226562 19.523438 9.480469 18.988281 9.988281 C 18.449219 10.5 18.179688 11.351562 18.183594 12.546875 Z M 18.183594 12.546875 "/>
<path style=" stroke:none;fill-rule:nonzero;fill:rgb(0%,0%,0%);fill-opacity:1;" d="M 25.175781 16.390625 L 25.175781 8.460938 L 26.230469 8.460938 L 26.230469 11.71875 L 30.371094 11.71875 L 30.371094 8.460938 L 31.425781 8.460938 L 31.425781 16.390625 L 30.371094 16.390625 L 30.371094 12.652344 L 26.230469 12.652344 L 26.230469 16.390625 Z M 25.175781 16.390625 "/>
<path style=" stroke:none;fill-rule:nonzero;fill:rgb(0%,0%,0%);fill-opacity:1;" d="M 128.300781 15.734375 L 129.355469 16 C 129.132812 16.863281 128.734375 17.519531 128.164062 17.96875 C 127.585938 18.421875 126.886719 18.644531 126.058594 18.648438 C 125.195312 18.644531 124.496094 18.476562 123.960938 18.128906 C 123.421875 17.78125 123.011719 17.273438 122.734375 16.617188 C 122.449219 15.957031 122.3125 15.246094 122.3125 14.488281 C 122.3125 13.664062 122.46875 12.945312 122.789062 12.328125 C 123.101562 11.714844 123.554688 11.246094 124.140625 10.929688 C 124.726562 10.609375 125.371094 10.449219 126.074219 10.449219 C 126.871094 10.449219 127.539062 10.652344 128.085938 11.054688 C 128.628906 11.460938 129.003906 12.027344 129.21875 12.757812 L 128.183594 13.003906 C 127.996094 12.425781 127.726562 12.007812 127.378906 11.742188 C 127.023438 11.484375 126.582031 11.351562 126.050781 11.347656 C 125.4375 11.351562 124.925781 11.496094 124.515625 11.785156 C 124.101562 12.082031 123.816406 12.472656 123.648438 12.960938 C 123.480469 13.457031 123.398438 13.964844 123.398438 14.484375 C 123.398438 15.160156 123.496094 15.746094 123.695312 16.25 C 123.890625 16.753906 124.199219 17.128906 124.617188 17.378906 C 125.03125 17.625 125.480469 17.75 125.96875 17.75 C 126.558594 17.75 127.058594 17.582031 127.46875 17.242188 C 127.878906 16.90625 128.15625 16.40625 128.300781 15.734375 Z M 128.300781 15.734375 "/>
<path style=" stroke:none;fill-rule:nonzero;fill:rgb(0%,0%,0%);fill-opacity:1;" d="M 129.820312 14.652344 C 129.820312 13.335938 130.175781 12.308594 130.886719 11.5625 C 131.59375 10.816406 132.511719 10.445312 133.636719 10.445312 C 134.371094 10.445312 135.03125 10.621094 135.625 10.96875 C 136.214844 11.320312 136.664062 11.808594 136.976562 12.433594 C 137.28125 13.058594 137.4375 13.769531 137.441406 14.558594 C 137.4375 15.367188 137.273438 16.085938 136.949219 16.71875 C 136.621094 17.355469 136.160156 17.835938 135.566406 18.160156 C 134.964844 18.488281 134.320312 18.644531 133.628906 18.648438 C 132.878906 18.644531 132.207031 18.46875 131.621094 18.109375 C 131.027344 17.75 130.582031 17.257812 130.277344 16.632812 C 129.972656 16.007812 129.820312 15.351562 129.820312 14.652344 Z M 130.90625 14.667969 C 130.90625 15.625 131.164062 16.378906 131.683594 16.925781 C 132.195312 17.476562 132.84375 17.75 133.625 17.75 C 134.414062 17.75 135.070312 17.476562 135.585938 16.917969 C 136.09375 16.367188 136.351562 15.578125 136.351562 14.554688 C 136.351562 13.910156 136.242188 13.347656 136.023438 12.863281 C 135.804688 12.386719 135.484375 12.011719 135.0625 11.746094 C 134.636719 11.484375 134.164062 11.351562 133.640625 11.347656 C 132.890625 11.351562 132.25 11.605469 131.714844 12.113281 C 131.175781 12.625 130.90625 13.476562 130.90625 14.667969 Z M 130.90625 14.667969 "/>
<path style=" stroke:none;fill-rule:nonzero;fill:rgb(0%,0%,0%);fill-opacity:1;" d="M 137.90625 14.652344 C 137.90625 13.335938 138.257812 12.308594 138.96875 11.5625 C 139.675781 10.816406 140.59375 10.445312 141.71875 10.445312 C 142.453125 10.445312 143.117188 10.621094 143.710938 10.96875 C 144.300781 11.320312 144.746094 11.808594 145.058594 12.433594 C 145.367188 13.058594 145.523438 13.769531 145.523438 14.558594 C 145.523438 15.367188 145.359375 16.085938 145.035156 16.71875 C 144.707031 17.355469 144.246094 17.835938 143.648438 18.160156 C 143.050781 18.488281 142.40625 18.644531 141.714844 18.648438 C 140.960938 18.644531 140.289062 18.46875 139.703125 18.109375 C 139.113281 17.75 138.664062 17.257812 138.363281 16.632812 C 138.058594 16.007812 137.90625 15.351562 137.90625 14.652344 Z M 138.992188 14.667969 C 138.988281 15.625 139.246094 16.378906 139.765625 16.925781 C 140.28125 17.476562 140.925781 17.75 141.710938 17.75 C 142.5 17.75 143.15625 17.476562 143.667969 16.917969 C 144.179688 16.367188 144.433594 15.578125 144.4375 14.554688 C 144.433594 13.910156 144.324219 13.347656 144.109375 12.863281 C 143.886719 12.386719 143.566406 12.011719 143.148438 11.746094 C 142.722656 11.484375 142.246094 11.351562 141.726562 11.347656 C 140.976562 11.351562 140.335938 11.605469 139.800781 12.113281 C 139.257812 12.625 138.988281 13.476562 138.992188 14.667969 Z M 138.992188 14.667969 "/>
<path style=" stroke:none;fill-rule:nonzero;fill:rgb(0%,0%,0%);fill-opacity:1;" d="M 145.988281 18.515625 L 145.988281 10.585938 L 147.039062 10.585938 L 147.039062 13.839844 L 151.183594 13.839844 L 151.183594 10.585938 L 152.238281 10.585938 L 152.238281 18.515625 L 151.183594 18.515625 L 151.183594 14.777344 L 147.039062 14.777344 L 147.039062 18.515625 Z M 145.988281 18.515625 "/>
<path style=" stroke:none;fill-rule:nonzero;fill:rgb(0%,0%,0%);fill-opacity:1;" d="M 73.226562 5.738281 C 73.226562 4.425781 73.582031 3.394531 74.292969 2.648438 C 75 1.902344 75.917969 1.535156 77.042969 1.53125 C 77.777344 1.535156 78.441406 1.707031 79.03125 2.054688 C 79.621094 2.40625 80.070312 2.894531 80.382812 3.519531 C 80.691406 4.144531 80.84375 4.855469 80.847656 5.648438 C 80.84375 6.453125 80.683594 7.171875 80.359375 7.804688 C 80.03125 8.441406 79.566406 8.921875 78.972656 9.246094 C 78.371094 9.574219 77.726562 9.734375 77.039062 9.734375 C 76.285156 9.734375 75.613281 9.554688 75.027344 9.195312 C 74.433594 8.835938 73.988281 8.34375 73.683594 7.71875 C 73.378906 7.097656 73.226562 6.4375 73.226562 5.738281 Z M 74.316406 5.753906 C 74.3125 6.710938 74.570312 7.464844 75.089844 8.011719 C 75.601562 8.566406 76.25 8.835938 77.03125 8.835938 C 77.824219 8.835938 78.476562 8.5625 78.992188 8.003906 C 79.503906 7.453125 79.757812 6.664062 79.761719 5.640625 C 79.757812 4.996094 79.648438 4.433594 79.433594 3.949219 C 79.210938 3.472656 78.890625 3.097656 78.46875 2.832031 C 78.046875 2.570312 77.570312 2.4375 77.050781 2.433594 C 76.300781 2.4375 75.65625 2.691406 75.121094 3.199219 C 74.582031 3.710938 74.3125 4.5625 74.316406 5.753906 Z M 74.316406 5.753906 "/>
<path style="fill:none;stroke-width:0.0333333;stroke-linecap:butt;stroke-linejoin:miter;stroke:rgb(0%,0%,0%);stroke-opacity:1;stroke-miterlimit:10;" d="M 2.025324 0.197331 L 2.568597 0.610352 " transform="matrix(27.826087,0,0,27.692308,27.90489,5.633113)"/>
<path style="fill:none;stroke-width:0.0333333;stroke-linecap:butt;stroke-linejoin:miter;stroke:rgb(0%,0%,0%);stroke-opacity:1;stroke-miterlimit:10;" d="M 2.561719 0.605273 L 2.228174 1.560807 " transform="matrix(27.826087,0,0,27.692308,27.90489,5.633113)"/>
<path style="fill:none;stroke-width:0.0333333;stroke-linecap:butt;stroke-linejoin:miter;stroke:rgb(0%,0%,0%);stroke-opacity:1;stroke-miterlimit:10;" d="M 2.364484 0.664659 L 2.110675 1.391536 " transform="matrix(27.826087,0,0,27.692308,27.90489,5.633113)"/>
<path style="fill:none;stroke-width:0.0333333;stroke-linecap:butt;stroke-linejoin:miter;stroke:rgb(0%,0%,0%);stroke-opacity:1;stroke-miterlimit:10;" d="M 2.244177 1.549664 L 1.22038 1.527235 " transform="matrix(27.826087,0,0,27.692308,27.90489,5.633113)"/>
<path style="fill:none;stroke-width:0.0333333;stroke-linecap:butt;stroke-linejoin:miter;stroke:rgb(0%,0%,0%);stroke-opacity:1;stroke-miterlimit:10;" d="M 1.235822 1.539225 L 0.94411 0.57015 " transform="matrix(27.826087,0,0,27.692308,27.90489,5.633113)"/>
<path style="fill:none;stroke-width:0.0333333;stroke-linecap:butt;stroke-linejoin:miter;stroke:rgb(0%,0%,0%);stroke-opacity:1;stroke-miterlimit:10;" d="M 1.36048 1.375174 L 1.138678 0.637999 " transform="matrix(27.826087,0,0,27.692308,27.90489,5.633113)"/>
<path style="fill:none;stroke-width:0.0333333;stroke-linecap:butt;stroke-linejoin:miter;stroke:rgb(0%,0%,0%);stroke-opacity:1;stroke-miterlimit:10;" d="M 1.499597 0.184635 L 0.937231 0.574946 " transform="matrix(27.826087,0,0,27.692308,27.90489,5.633113)"/>
<path style="fill:none;stroke-width:0.0333333;stroke-linecap:butt;stroke-linejoin:miter;stroke:rgb(0%,0%,0%);stroke-opacity:1;stroke-miterlimit:10;" d="M 3.256885 0.396083 L 2.553577 0.607671 " transform="matrix(27.826087,0,0,27.692308,27.90489,5.633113)"/>
<path style="fill:none;stroke-width:0.0333333;stroke-linecap:butt;stroke-linejoin:miter;stroke:rgb(0%,0%,0%);stroke-opacity:1;stroke-miterlimit:10;" d="M 0.26579 0.333171 L 0.952112 0.57283 " transform="matrix(27.826087,0,0,27.692308,27.90489,5.633113)"/>
</g>
</svg>
