<?xml version="1.0" encoding="UTF-8"?>
<svg xmlns="http://www.w3.org/2000/svg" xmlns:xlink="http://www.w3.org/1999/xlink" width="181.6pt" height="56pt" viewBox="0 0 181.6 56" version="1.1">
<g id="surface1297">
<path style=" stroke:none;fill-rule:nonzero;fill:rgb(0%,0%,0%);fill-opacity:1;" d="M 1.5625 44.804688 L 1.5625 36.945312 L 5.085938 36.945312 C 5.792969 36.949219 6.332031 37.019531 6.703125 37.15625 C 7.070312 37.300781 7.363281 37.550781 7.585938 37.90625 C 7.808594 38.265625 7.914062 38.660156 7.917969 39.089844 C 7.914062 39.652344 7.734375 40.121094 7.371094 40.5 C 7.003906 40.882812 6.441406 41.128906 5.679688 41.230469 C 5.953125 41.363281 6.167969 41.492188 6.3125 41.621094 C 6.621094 41.898438 6.910156 42.25 7.1875 42.667969 L 8.570312 44.804688 L 7.246094 44.804688 L 6.195312 43.171875 C 5.882812 42.703125 5.632812 42.339844 5.433594 42.089844 C 5.234375 41.839844 5.054688 41.664062 4.898438 41.5625 C 4.738281 41.464844 4.578125 41.394531 4.421875 41.351562 C 4.296875 41.328125 4.101562 41.316406 3.835938 41.316406 L 2.613281 41.316406 L 2.613281 44.804688 Z M 2.613281 40.414062 L 4.875 40.414062 C 5.351562 40.414062 5.730469 40.367188 6.003906 40.269531 C 6.273438 40.171875 6.476562 40.011719 6.621094 39.796875 C 6.761719 39.582031 6.832031 39.347656 6.832031 39.089844 C 6.832031 38.722656 6.695312 38.414062 6.425781 38.175781 C 6.148438 37.9375 5.71875 37.816406 5.128906 37.816406 L 2.613281 37.816406 Z M 2.613281 40.414062 "/>
<path style=" stroke:none;fill-rule:nonzero;fill:rgb(0%,0%,0%);fill-opacity:1;" d="M 12.847656 44.804688 L 11.871094 44.804688 L 11.871094 38.65625 C 11.632812 38.882812 11.328125 39.101562 10.945312 39.320312 C 10.566406 39.542969 10.21875 39.710938 9.917969 39.820312 L 9.917969 38.886719 C 10.460938 38.636719 10.9375 38.328125 11.351562 37.964844 C 11.757812 37.605469 12.046875 37.253906 12.21875 36.914062 L 12.847656 36.914062 Z M 12.847656 44.804688 "/>
<path style=" stroke:none;fill-rule:nonzero;fill:rgb(0%,0%,0%);fill-opacity:1;" d="M 35.585938 5.632812 C 35.585938 4.328125 35.9375 3.308594 36.648438 2.566406 C 37.351562 1.832031 38.269531 1.464844 39.390625 1.460938 C 40.125 1.464844 40.785156 1.636719 41.378906 1.980469 C 41.964844 2.328125 42.414062 2.816406 42.726562 3.429688 C 43.03125 4.054688 43.1875 4.753906 43.1875 5.542969 C 43.1875 6.339844 43.023438 7.054688 42.699219 7.679688 C 42.371094 8.308594 41.910156 8.789062 41.316406 9.109375 C 40.71875 9.433594 40.074219 9.589844 39.386719 9.59375 C 38.636719 9.589844 37.964844 9.414062 37.378906 9.058594 C 36.789062 8.703125 36.34375 8.214844 36.039062 7.59375 C 35.738281 6.976562 35.585938 6.324219 35.585938 5.632812 Z M 36.671875 5.648438 C 36.667969 6.597656 36.925781 7.34375 37.441406 7.886719 C 37.957031 8.433594 38.601562 8.703125 39.382812 8.703125 C 40.171875 8.703125 40.824219 8.429688 41.335938 7.878906 C 41.847656 7.332031 42.101562 6.550781 42.105469 5.535156 C 42.101562 4.898438 41.992188 4.339844 41.777344 3.859375 C 41.554688 3.386719 41.238281 3.015625 40.816406 2.75 C 40.394531 2.492188 39.917969 2.359375 39.398438 2.355469 C 38.648438 2.359375 38.007812 2.609375 37.476562 3.113281 C 36.9375 3.621094 36.667969 4.464844 36.671875 5.648438 Z M 36.671875 5.648438 "/>
<path style=" stroke:none;fill-rule:nonzero;fill:rgb(0%,0%,0%);fill-opacity:1;" d="M 44.113281 9.320312 L 44.113281 1.460938 L 45.164062 1.460938 L 45.164062 4.6875 L 49.296875 4.6875 L 49.296875 1.460938 L 50.351562 1.460938 L 50.351562 9.320312 L 49.296875 9.320312 L 49.296875 5.617188 L 45.164062 5.617188 L 45.164062 9.320312 Z M 44.113281 9.320312 "/>
<path style=" stroke:none;fill-rule:nonzero;fill:rgb(0%,0%,0%);fill-opacity:1;" d="M 50.449219 50.851562 C 50.449219 49.546875 50.800781 48.527344 51.511719 47.789062 C 52.214844 47.050781 53.132812 46.683594 54.253906 46.679688 C 54.988281 46.683594 55.648438 46.855469 56.238281 47.199219 C 56.828125 47.546875 57.277344 48.035156 57.589844 48.652344 C 57.894531 49.273438 58.050781 49.976562 58.050781 50.761719 C 58.050781 51.558594 57.886719 52.273438 57.5625 52.898438 C 57.234375 53.53125 56.773438 54.007812 56.179688 54.328125 C 55.582031 54.652344 54.9375 54.8125 54.25 54.8125 C 53.5 54.8125 52.828125 54.632812 52.242188 54.277344 C 51.652344 53.921875 51.207031 53.433594 50.902344 52.8125 C 50.601562 52.195312 50.449219 51.542969 50.449219 50.851562 Z M 51.53125 50.867188 C 51.53125 51.816406 51.789062 52.5625 52.304688 53.105469 C 52.816406 53.652344 53.464844 53.921875 54.246094 53.921875 C 55.035156 53.921875 55.6875 53.648438 56.199219 53.097656 C 56.710938 52.550781 56.964844 51.769531 56.96875 50.753906 C 56.964844 50.117188 56.855469 49.558594 56.640625 49.078125 C 56.417969 48.605469 56.097656 48.234375 55.679688 47.96875 C 55.257812 47.710938 54.78125 47.578125 54.261719 47.574219 C 53.511719 47.578125 52.871094 47.832031 52.339844 48.335938 C 51.796875 48.839844 51.53125 49.683594 51.53125 50.867188 Z M 51.53125 50.867188 "/>
<path style="fill:none;stroke-width:0.0333333;stroke-linecap:butt;stroke-linejoin:miter;stroke:rgb(0%,0%,0%);stroke-opacity:1;stroke-miterlimit:10;" d="M 0.340795 1.176422 L 0.960194 0.975211 " transform="matrix(27.767584,0,0,27.45098,7.204929,5.526386)"/>
<path style="fill:none;stroke-width:0.0333333;stroke-linecap:butt;stroke-linejoin:miter;stroke:rgb(0%,0%,0%);stroke-opacity:1;stroke-miterlimit:10;" d="M 0.94908 0.987448 L 1.100026 0.277518 " transform="matrix(27.767584,0,0,27.45098,7.204929,5.526386)"/>
<path style="fill:none;stroke-width:0.0333333;stroke-linecap:butt;stroke-linejoin:miter;stroke:rgb(0%,0%,0%);stroke-opacity:1;stroke-miterlimit:10;" d="M 0.85961 1.007797 L 1.394181 1.489195 " transform="matrix(27.767584,0,0,27.45098,7.204929,5.526386)"/>
<path style="fill:none;stroke-width:0.0333333;stroke-linecap:butt;stroke-linejoin:miter;stroke:rgb(0%,0%,0%);stroke-opacity:1;stroke-miterlimit:10;" d="M 0.971026 0.883997 L 1.505597 1.365395 " transform="matrix(27.767584,0,0,27.45098,7.204929,5.526386)"/>
<path style=" stroke:none;fill-rule:nonzero;fill:rgb(0%,0%,0%);fill-opacity:1;" d="M 69.160156 28.996094 L 103.867188 28.996094 L 103.867188 31.570312 L 110.808594 28.136719 L 103.867188 24.707031 L 103.867188 27.28125 L 69.160156 27.28125 "/>
<path style=" stroke:none;fill-rule:nonzero;fill:rgb(0%,0%,0%);fill-opacity:1;" d="M 156.429688 25.199219 L 157.484375 25.460938 C 157.261719 26.316406 156.863281 26.96875 156.292969 27.417969 C 155.71875 27.863281 155.019531 28.085938 154.191406 28.089844 C 153.332031 28.085938 152.636719 27.917969 152.101562 27.570312 C 151.5625 27.226562 151.152344 26.726562 150.875 26.074219 C 150.59375 25.417969 150.453125 24.714844 150.453125 23.964844 C 150.453125 23.148438 150.613281 22.433594 150.929688 21.824219 C 151.242188 21.214844 151.695312 20.75 152.28125 20.433594 C 152.863281 20.117188 153.503906 19.960938 154.207031 19.960938 C 155.003906 19.960938 155.671875 20.160156 156.214844 20.5625 C 156.757812 20.964844 157.132812 21.527344 157.347656 22.25 L 156.3125 22.492188 C 156.128906 21.921875 155.859375 21.503906 155.507812 21.242188 C 155.15625 20.984375 154.714844 20.855469 154.1875 20.851562 C 153.574219 20.855469 153.0625 21 152.652344 21.285156 C 152.242188 21.578125 151.953125 21.964844 151.789062 22.453125 C 151.621094 22.941406 151.535156 23.445312 151.539062 23.960938 C 151.535156 24.628906 151.632812 25.210938 151.835938 25.710938 C 152.03125 26.210938 152.335938 26.582031 152.753906 26.828125 C 153.167969 27.074219 153.617188 27.199219 154.105469 27.199219 C 154.691406 27.199219 155.1875 27.03125 155.601562 26.695312 C 156.007812 26.363281 156.285156 25.863281 156.429688 25.199219 Z M 156.429688 25.199219 "/>
<path style=" stroke:none;fill-rule:nonzero;fill:rgb(0%,0%,0%);fill-opacity:1;" d="M 157.945312 24.125 C 157.945312 22.824219 158.300781 21.800781 159.011719 21.0625 C 159.714844 20.324219 160.632812 19.957031 161.753906 19.957031 C 162.488281 19.957031 163.148438 20.128906 163.738281 20.476562 C 164.328125 20.824219 164.773438 21.308594 165.085938 21.925781 C 165.394531 22.546875 165.546875 23.25 165.550781 24.035156 C 165.546875 24.835938 165.386719 25.546875 165.0625 26.175781 C 164.734375 26.804688 164.273438 27.28125 163.679688 27.605469 C 163.082031 27.929688 162.4375 28.085938 161.75 28.089844 C 160.996094 28.085938 160.328125 27.910156 159.742188 27.554688 C 159.152344 27.195312 158.707031 26.707031 158.402344 26.089844 C 158.097656 25.472656 157.945312 24.820312 157.945312 24.125 Z M 159.03125 24.144531 C 159.027344 25.09375 159.285156 25.839844 159.804688 26.382812 C 160.316406 26.929688 160.960938 27.199219 161.742188 27.199219 C 162.53125 27.199219 163.1875 26.925781 163.699219 26.375 C 164.207031 25.828125 164.464844 25.042969 164.464844 24.03125 C 164.464844 23.390625 164.355469 22.835938 164.136719 22.355469 C 163.917969 21.878906 163.597656 21.511719 163.179688 21.246094 C 162.753906 20.984375 162.28125 20.855469 161.757812 20.851562 C 161.011719 20.855469 160.371094 21.105469 159.835938 21.609375 C 159.296875 22.117188 159.027344 22.960938 159.03125 24.144531 Z M 159.03125 24.144531 "/>
<path style=" stroke:none;fill-rule:nonzero;fill:rgb(0%,0%,0%);fill-opacity:1;" d="M 166.011719 24.125 C 166.011719 22.824219 166.363281 21.800781 167.074219 21.0625 C 167.78125 20.324219 168.695312 19.957031 169.820312 19.957031 C 170.550781 19.957031 171.210938 20.128906 171.804688 20.476562 C 172.390625 20.824219 172.839844 21.308594 173.152344 21.925781 C 173.457031 22.546875 173.613281 23.25 173.613281 24.035156 C 173.613281 24.835938 173.449219 25.546875 173.128906 26.175781 C 172.800781 26.804688 172.339844 27.28125 171.742188 27.605469 C 171.144531 27.929688 170.503906 28.085938 169.8125 28.089844 C 169.0625 28.085938 168.390625 27.910156 167.808594 27.554688 C 167.214844 27.195312 166.769531 26.707031 166.46875 26.089844 C 166.164062 25.472656 166.011719 24.820312 166.011719 24.125 Z M 167.097656 24.144531 C 167.09375 25.09375 167.351562 25.839844 167.871094 26.382812 C 168.382812 26.929688 169.027344 27.199219 169.808594 27.199219 C 170.597656 27.199219 171.25 26.925781 171.761719 26.375 C 172.273438 25.828125 172.527344 25.042969 172.53125 24.03125 C 172.527344 23.390625 172.417969 22.835938 172.203125 22.355469 C 171.984375 21.878906 171.664062 21.511719 171.242188 21.246094 C 170.820312 20.984375 170.34375 20.855469 169.824219 20.851562 C 169.074219 20.855469 168.4375 21.105469 167.902344 21.609375 C 167.363281 22.117188 167.09375 22.960938 167.097656 24.144531 Z M 167.097656 24.144531 "/>
<path style=" stroke:none;fill-rule:nonzero;fill:rgb(0%,0%,0%);fill-opacity:1;" d="M 174.078125 27.953125 L 174.078125 20.09375 L 175.132812 20.09375 L 175.132812 23.324219 L 179.261719 23.324219 L 179.261719 20.09375 L 180.316406 20.09375 L 180.316406 27.953125 L 179.261719 27.953125 L 179.261719 24.25 L 175.132812 24.25 L 175.132812 27.953125 Z M 174.078125 27.953125 "/>
<path style=" stroke:none;fill-rule:nonzero;fill:rgb(0%,0%,0%);fill-opacity:1;" d="M 121.917969 36.320312 L 121.917969 28.457031 L 125.441406 28.457031 C 126.148438 28.460938 126.6875 28.53125 127.058594 28.671875 C 127.425781 28.8125 127.71875 29.0625 127.941406 29.417969 C 128.160156 29.777344 128.269531 30.175781 128.273438 30.605469 C 128.269531 31.164062 128.089844 31.632812 127.726562 32.011719 C 127.359375 32.398438 126.796875 32.640625 126.035156 32.742188 C 126.308594 32.875 126.519531 33.003906 126.667969 33.132812 C 126.972656 33.414062 127.265625 33.761719 127.542969 34.179688 L 128.925781 36.320312 L 127.601562 36.320312 L 126.546875 34.683594 C 126.238281 34.214844 125.988281 33.851562 125.789062 33.601562 C 125.589844 33.351562 125.410156 33.175781 125.253906 33.074219 C 125.09375 32.976562 124.933594 32.90625 124.773438 32.867188 C 124.652344 32.84375 124.457031 32.828125 124.1875 32.828125 L 122.96875 32.828125 L 122.96875 36.320312 Z M 122.96875 31.929688 L 125.230469 31.929688 C 125.707031 31.929688 126.085938 31.878906 126.359375 31.78125 C 126.628906 31.683594 126.832031 31.527344 126.976562 31.308594 C 127.117188 31.09375 127.1875 30.859375 127.1875 30.605469 C 127.1875 30.234375 127.050781 29.929688 126.777344 29.6875 C 126.503906 29.449219 126.074219 29.332031 125.484375 29.328125 L 122.96875 29.328125 Z M 122.96875 31.929688 "/>
<path style=" stroke:none;fill-rule:nonzero;fill:rgb(0%,0%,0%);fill-opacity:1;" d="M 133.203125 36.320312 L 132.226562 36.320312 L 132.226562 30.167969 C 131.988281 30.394531 131.683594 30.613281 131.300781 30.835938 C 130.917969 31.054688 130.574219 31.222656 130.273438 31.332031 L 130.273438 30.398438 C 130.816406 30.148438 131.292969 29.84375 131.707031 29.476562 C 132.113281 29.117188 132.402344 28.765625 132.574219 28.425781 L 133.203125 28.425781 Z M 133.203125 36.320312 "/>
<path style="fill:none;stroke-width:0.0333333;stroke-linecap:butt;stroke-linejoin:miter;stroke:rgb(0%,0%,0%);stroke-opacity:1;stroke-miterlimit:10;" d="M 0.340807 0.198212 L 0.686872 0.0857953 " transform="matrix(27.767584,0,0,27.45098,127.56005,23.89093)"/>
</g>
</svg>
