<?xml version="1.0" encoding="UTF-8"?>
<svg xmlns="http://www.w3.org/2000/svg" xmlns:xlink="http://www.w3.org/1999/xlink" width="319.2pt" height="98.4pt" viewBox="0 0 319.2 98.4" version="1.1">
<g id="surface1722">
<path style=" stroke:none;fill-rule:nonzero;fill:rgb(0%,0%,0%);fill-opacity:1;" d="M 64.894531 80.679688 L 62.84375 77.4375 C 62.847656 77.527344 62.855469 77.613281 62.855469 77.699219 C 62.859375 77.769531 62.863281 77.847656 62.863281 77.9375 C 62.871094 78.015625 62.875 78.085938 62.875 78.152344 L 62.875 80.679688 L 62.410156 80.679688 L 62.410156 76.878906 L 63.015625 76.878906 L 65.082031 80.136719 C 65.082031 80.136719 65.074219 80.050781 65.070312 79.867188 C 65.0625 79.796875 65.054688 79.71875 65.046875 79.632812 C 65.046875 79.539062 65.046875 79.453125 65.046875 79.371094 L 65.046875 76.878906 L 65.515625 76.878906 L 65.515625 80.679688 Z M 64.894531 80.679688 "/>
<path style=" stroke:none;fill-rule:nonzero;fill:rgb(0%,0%,0%);fill-opacity:1;" d="M 90.859375 47.824219 L 88.808594 44.582031 C 88.8125 44.671875 88.816406 44.757812 88.816406 44.84375 C 88.824219 44.914062 88.828125 44.992188 88.828125 45.082031 C 88.835938 45.160156 88.839844 45.230469 88.839844 45.296875 L 88.839844 47.824219 L 88.371094 47.824219 L 88.371094 44.023438 L 88.980469 44.023438 L 91.042969 47.28125 C 91.042969 47.28125 91.039062 47.195312 91.035156 47.011719 C 91.027344 46.941406 91.015625 46.863281 91.011719 46.777344 C 91.011719 46.683594 91.011719 46.597656 91.011719 46.515625 L 91.011719 44.023438 L 91.480469 44.023438 L 91.480469 47.824219 Z M 90.859375 47.824219 "/>
<path style=" stroke:none;fill-rule:nonzero;fill:rgb(0%,0%,0%);fill-opacity:1;" d="M 54.84375 19.328125 C 54.84375 19.625 54.800781 19.894531 54.714844 20.136719 C 54.625 20.382812 54.5 20.589844 54.332031 20.761719 C 54.171875 20.933594 53.976562 21.070312 53.734375 21.164062 C 53.503906 21.253906 53.238281 21.300781 52.941406 21.300781 C 52.621094 21.300781 52.347656 21.253906 52.105469 21.164062 C 51.875 21.0625 51.679688 20.925781 51.519531 20.75 C 51.359375 20.574219 51.242188 20.363281 51.160156 20.125 C 51.082031 19.882812 51.042969 19.617188 51.042969 19.328125 C 51.042969 19.03125 51.082031 18.765625 51.160156 18.527344 C 51.25 18.285156 51.371094 18.078125 51.53125 17.914062 C 51.695312 17.746094 51.894531 17.617188 52.128906 17.523438 C 52.367188 17.433594 52.640625 17.382812 52.941406 17.382812 C 53.246094 17.382812 53.519531 17.433594 53.757812 17.523438 C 53.996094 17.617188 54.195312 17.75 54.355469 17.921875 C 54.511719 18.089844 54.632812 18.289062 54.714844 18.527344 C 54.800781 18.765625 54.84375 19.03125 54.84375 19.328125 Z M 54.3125 19.328125 C 54.3125 19.097656 54.28125 18.890625 54.226562 18.699219 C 54.164062 18.515625 54.078125 18.355469 53.964844 18.226562 C 53.847656 18.089844 53.703125 17.984375 53.53125 17.914062 C 53.363281 17.84375 53.164062 17.804688 52.941406 17.804688 C 52.71875 17.804688 52.519531 17.84375 52.347656 17.914062 C 52.171875 17.984375 52.027344 18.089844 51.910156 18.226562 C 51.804688 18.355469 51.71875 18.515625 51.660156 18.699219 C 51.601562 18.890625 51.574219 19.097656 51.574219 19.328125 C 51.574219 19.558594 51.601562 19.769531 51.660156 19.964844 C 51.71875 20.152344 51.804688 20.316406 51.921875 20.449219 C 52.035156 20.585938 52.175781 20.695312 52.347656 20.773438 C 52.519531 20.847656 52.71875 20.882812 52.941406 20.882812 C 53.183594 20.882812 53.386719 20.847656 53.5625 20.773438 C 53.734375 20.695312 53.878906 20.585938 53.984375 20.449219 C 54.09375 20.304688 54.171875 20.140625 54.226562 19.953125 C 54.28125 19.757812 54.3125 19.550781 54.3125 19.328125 Z M 54.3125 19.328125 "/>
<path style=" stroke:none;fill-rule:nonzero;fill:rgb(0%,0%,0%);fill-opacity:1;" d="M 90.035156 74.703125 C 89.816406 74.703125 89.625 74.742188 89.457031 74.8125 C 89.289062 74.886719 89.148438 74.992188 89.035156 75.125 C 88.925781 75.253906 88.84375 75.414062 88.785156 75.601562 C 88.726562 75.789062 88.699219 75.996094 88.699219 76.226562 C 88.699219 76.460938 88.726562 76.667969 88.785156 76.863281 C 88.851562 77.054688 88.941406 77.214844 89.058594 77.351562 C 89.171875 77.488281 89.3125 77.59375 89.480469 77.675781 C 89.65625 77.746094 89.84375 77.78125 90.054688 77.78125 C 90.207031 77.78125 90.339844 77.765625 90.457031 77.726562 C 90.582031 77.683594 90.691406 77.628906 90.792969 77.554688 C 90.894531 77.484375 90.980469 77.402344 91.054688 77.308594 C 91.132812 77.214844 91.203125 77.105469 91.261719 76.984375 L 91.683594 77.199219 C 91.621094 77.34375 91.535156 77.476562 91.4375 77.597656 C 91.332031 77.722656 91.214844 77.832031 91.078125 77.921875 C 90.9375 78.007812 90.785156 78.078125 90.609375 78.128906 C 90.4375 78.175781 90.242188 78.203125 90.035156 78.203125 C 89.722656 78.203125 89.449219 78.15625 89.21875 78.0625 C 88.988281 77.960938 88.789062 77.824219 88.632812 77.652344 C 88.480469 77.472656 88.363281 77.265625 88.285156 77.027344 C 88.203125 76.785156 88.167969 76.515625 88.167969 76.226562 C 88.167969 75.933594 88.203125 75.664062 88.285156 75.429688 C 88.371094 75.183594 88.496094 74.980469 88.65625 74.8125 C 88.8125 74.648438 89.007812 74.519531 89.242188 74.425781 C 89.472656 74.332031 89.734375 74.285156 90.035156 74.285156 C 90.4375 74.285156 90.777344 74.363281 91.042969 74.519531 C 91.320312 74.679688 91.523438 74.917969 91.652344 75.234375 L 91.164062 75.394531 C 91.125 75.304688 91.078125 75.21875 91.011719 75.136719 C 90.953125 75.050781 90.875 74.980469 90.785156 74.921875 C 90.6875 74.855469 90.582031 74.808594 90.457031 74.769531 C 90.332031 74.726562 90.191406 74.703125 90.035156 74.703125 Z M 90.035156 74.703125 "/>
<path style="fill:none;stroke-width:0.0333333;stroke-linecap:butt;stroke-linejoin:miter;stroke:rgb(0%,0%,0%);stroke-opacity:1;stroke-miterlimit:10;" d="M 1.791145 1.907077 L 2.700833 1.375247 " transform="matrix(17.378049,0,0,17.275281,17.170263,19.343777)"/>
<path style="fill:none;stroke-width:0.0333333;stroke-linecap:butt;stroke-linejoin:miter;stroke:rgb(0%,0%,0%);stroke-opacity:1;stroke-miterlimit:10;" d="M 1.799462 1.901876 L 1.799462 2.93026 " transform="matrix(17.378049,0,0,17.275281,17.170263,19.343777)"/>
<path style="fill:none;stroke-width:0.0333333;stroke-linecap:butt;stroke-linejoin:miter;stroke:rgb(0%,0%,0%);stroke-opacity:1;stroke-miterlimit:10;" d="M 1.96625 1.997524 L 1.96625 2.833482 " transform="matrix(17.378049,0,0,17.275281,17.170263,19.343777)"/>
<path style="fill:none;stroke-width:0.0333333;stroke-linecap:butt;stroke-linejoin:miter;stroke:rgb(0%,0%,0%);stroke-opacity:1;stroke-miterlimit:10;" d="M 1.808004 1.907077 L 0.896293 1.375247 " transform="matrix(17.378049,0,0,17.275281,17.170263,19.343777)"/>
<path style="fill:none;stroke-width:0.0333333;stroke-linecap:butt;stroke-linejoin:miter;stroke:rgb(0%,0%,0%);stroke-opacity:1;stroke-miterlimit:10;" d="M 2.692516 1.379996 L 3.575904 1.901876 " transform="matrix(17.378049,0,0,17.275281,17.170263,19.343777)"/>
<path style="fill:none;stroke-width:0.0333333;stroke-linecap:butt;stroke-linejoin:miter;stroke:rgb(0%,0%,0%);stroke-opacity:1;stroke-miterlimit:10;" d="M 2.692066 1.573327 L 3.409117 1.997072 " transform="matrix(17.378049,0,0,17.275281,17.170263,19.343777)"/>
<path style="fill:none;stroke-width:0.0333333;stroke-linecap:butt;stroke-linejoin:miter;stroke:rgb(0%,0%,0%);stroke-opacity:1;stroke-miterlimit:10;" d="M 2.692516 1.389719 L 2.692516 0.341889 " transform="matrix(17.378049,0,0,17.275281,17.170263,19.343777)"/>
<path style="fill:none;stroke-width:0.0333333;stroke-linecap:butt;stroke-linejoin:miter;stroke:rgb(0%,0%,0%);stroke-opacity:1;stroke-miterlimit:10;" d="M 2.942472 0.865804 L 2.44256 0.865804 " transform="matrix(17.378049,0,0,17.275281,17.170263,19.343777)"/>
<path style="fill:none;stroke-width:0.0333333;stroke-linecap:butt;stroke-linejoin:miter;stroke:rgb(0%,0%,0%);stroke-opacity:1;stroke-miterlimit:10;" d="M 1.79137 2.925512 L 2.526403 3.345639 " transform="matrix(17.378049,0,0,17.275281,17.170263,19.343777)"/>
<path style="fill:none;stroke-width:0.0333333;stroke-linecap:butt;stroke-linejoin:miter;stroke:rgb(0%,0%,0%);stroke-opacity:1;stroke-miterlimit:10;" d="M 1.807779 2.925512 L 0.896518 3.445357 " transform="matrix(17.378049,0,0,17.275281,17.170263,19.343777)"/>
<path style="fill:none;stroke-width:0.0333333;stroke-linecap:butt;stroke-linejoin:miter;stroke:rgb(0%,0%,0%);stroke-opacity:1;stroke-miterlimit:10;" d="M 0.913152 1.375247 L -0.0084489 1.906851 " transform="matrix(17.378049,0,0,17.275281,17.170263,19.343777)"/>
<path style="fill:none;stroke-width:0.0333333;stroke-linecap:butt;stroke-linejoin:miter;stroke:rgb(0%,0%,0%);stroke-opacity:1;stroke-miterlimit:10;" d="M 0.912478 1.5679 L 0.158338 2.003177 " transform="matrix(17.378049,0,0,17.275281,17.170263,19.343777)"/>
<path style="fill:none;stroke-width:0.0333333;stroke-linecap:butt;stroke-linejoin:miter;stroke:rgb(0%,0%,0%);stroke-opacity:1;stroke-miterlimit:10;" d="M 3.575904 1.892605 L 3.575904 2.939757 " transform="matrix(17.378049,0,0,17.275281,17.170263,19.343777)"/>
<path style="fill:none;stroke-width:0.0333333;stroke-linecap:butt;stroke-linejoin:miter;stroke:rgb(0%,0%,0%);stroke-opacity:1;stroke-miterlimit:10;" d="M 3.567812 1.906851 L 4.02142 1.637092 " transform="matrix(17.378049,0,0,17.275281,17.170263,19.343777)"/>
<path style="fill:none;stroke-width:0.0333333;stroke-linecap:butt;stroke-linejoin:miter;stroke:rgb(0%,0%,0%);stroke-opacity:1;stroke-miterlimit:10;" d="M 3.922516 1.986896 L 3.666716 1.557046 " transform="matrix(17.378049,0,0,17.275281,17.170263,19.343777)"/>
<path style="fill:none;stroke-width:0.0333333;stroke-linecap:butt;stroke-linejoin:miter;stroke:rgb(0%,0%,0%);stroke-opacity:1;stroke-miterlimit:10;" d="M 2.701282 0.356586 L 2.241831 0.101752 " transform="matrix(17.378049,0,0,17.275281,17.170263,19.343777)"/>
<path style="fill:none;stroke-width:0.0333333;stroke-linecap:butt;stroke-linejoin:miter;stroke:rgb(0%,0%,0%);stroke-opacity:1;stroke-miterlimit:10;" d="M 2.534495 0.454722 L 2.16091 0.247371 " transform="matrix(17.378049,0,0,17.275281,17.170263,19.343777)"/>
<path style="fill:none;stroke-width:0.0333333;stroke-linecap:butt;stroke-linejoin:miter;stroke:rgb(0%,0%,0%);stroke-opacity:1;stroke-miterlimit:10;" d="M 2.534495 -0.0217089 L 2.291957 0.415377 " transform="matrix(17.378049,0,0,17.275281,17.170263,19.343777)"/>
<path style="fill:none;stroke-width:0.0333333;stroke-linecap:butt;stroke-linejoin:miter;stroke:rgb(0%,0%,0%);stroke-opacity:1;stroke-miterlimit:10;" d="M 2.650932 0.0429609 L 2.408618 0.480047 " transform="matrix(17.378049,0,0,17.275281,17.170263,19.343777)"/>
<path style="fill:none;stroke-width:0.0333333;stroke-linecap:butt;stroke-linejoin:miter;stroke:rgb(0%,0%,0%);stroke-opacity:1;stroke-miterlimit:10;" d="M 0.912927 3.445131 L -0.0084489 2.925512 " transform="matrix(17.378049,0,0,17.275281,17.170263,19.343777)"/>
<path style="fill:none;stroke-width:0.0333333;stroke-linecap:butt;stroke-linejoin:miter;stroke:rgb(0%,0%,0%);stroke-opacity:1;stroke-miterlimit:10;" d="M 0.912478 3.253609 L 0.158114 2.828281 " transform="matrix(17.378049,0,0,17.275281,17.170263,19.343777)"/>
<path style="fill:none;stroke-width:0.0333333;stroke-linecap:butt;stroke-linejoin:miter;stroke:rgb(0%,0%,0%);stroke-opacity:1;stroke-miterlimit:10;" d="M 3.567812 2.925512 L 4.01108 3.189165 " transform="matrix(17.378049,0,0,17.275281,17.170263,19.343777)"/>
<path style="fill:none;stroke-width:0.0333333;stroke-linecap:butt;stroke-linejoin:miter;stroke:rgb(0%,0%,0%);stroke-opacity:1;stroke-miterlimit:10;" d="M 2.858629 3.344734 L 3.575904 2.93026 " transform="matrix(17.378049,0,0,17.275281,17.170263,19.343777)"/>
<path style="fill:none;stroke-width:0.0333333;stroke-linecap:butt;stroke-linejoin:miter;stroke:rgb(0%,0%,0%);stroke-opacity:1;stroke-miterlimit:10;" d="M 2.775011 3.200471 L 3.409117 2.833934 " transform="matrix(17.378049,0,0,17.275281,17.170263,19.343777)"/>
<path style="fill:none;stroke-width:0.0333333;stroke-linecap:butt;stroke-linejoin:miter;stroke:rgb(0%,0%,0%);stroke-opacity:1;stroke-miterlimit:10;" d="M -0.000132016 1.892379 L -0.000132016 2.939983 " transform="matrix(17.378049,0,0,17.275281,17.170263,19.343777)"/>
<path style="fill:none;stroke-width:0.0625;stroke-linecap:butt;stroke-linejoin:miter;stroke:rgb(0%,0%,0%);stroke-opacity:1;stroke-miterlimit:10;" d="M -0.0000626674 0.0000408104 L 0.49985 0.0000408104 M 0.249893 -0.250046 L 0.249893 0.249901 " transform="matrix(17.378049,0,0,17.275281,103.829214,49.061795)"/>
<path style=" stroke:none;fill-rule:nonzero;fill:rgb(0%,0%,0%);fill-opacity:1;" d="M 156.125 60.230469 C 155.910156 60.230469 155.714844 60.265625 155.550781 60.335938 C 155.382812 60.410156 155.242188 60.515625 155.125 60.648438 C 155.019531 60.78125 154.933594 60.9375 154.875 61.125 C 154.816406 61.3125 154.789062 61.523438 154.789062 61.75 C 154.789062 61.984375 154.816406 62.195312 154.875 62.386719 C 154.941406 62.578125 155.03125 62.738281 155.148438 62.875 C 155.261719 63.011719 155.402344 63.121094 155.570312 63.199219 C 155.746094 63.269531 155.933594 63.304688 156.148438 63.304688 C 156.300781 63.304688 156.433594 63.289062 156.550781 63.25 C 156.671875 63.207031 156.78125 63.152344 156.886719 63.078125 C 156.984375 63.007812 157.074219 62.925781 157.144531 62.832031 C 157.226562 62.738281 157.292969 62.632812 157.351562 62.507812 L 157.777344 62.722656 C 157.710938 62.867188 157.628906 63 157.527344 63.121094 C 157.421875 63.246094 157.304688 63.355469 157.167969 63.445312 C 157.03125 63.53125 156.875 63.601562 156.699219 63.652344 C 156.527344 63.699219 156.335938 63.726562 156.125 63.726562 C 155.8125 63.726562 155.542969 63.679688 155.3125 63.585938 C 155.078125 63.488281 154.882812 63.347656 154.722656 63.175781 C 154.574219 63 154.457031 62.789062 154.375 62.550781 C 154.296875 62.308594 154.257812 62.039062 154.257812 61.75 C 154.257812 61.457031 154.296875 61.191406 154.375 60.953125 C 154.464844 60.710938 154.585938 60.503906 154.746094 60.335938 C 154.902344 60.171875 155.097656 60.042969 155.332031 59.949219 C 155.5625 59.855469 155.828125 59.808594 156.125 59.808594 C 156.53125 59.808594 156.867188 59.886719 157.136719 60.046875 C 157.410156 60.203125 157.613281 60.441406 157.742188 60.757812 L 157.253906 60.917969 C 157.21875 60.828125 157.167969 60.742188 157.101562 60.660156 C 157.042969 60.574219 156.96875 60.503906 156.875 60.445312 C 156.78125 60.378906 156.671875 60.332031 156.550781 60.292969 C 156.425781 60.25 156.28125 60.230469 156.125 60.230469 Z M 156.125 60.230469 "/>
<path style=" stroke:none;fill-rule:nonzero;fill:rgb(0%,0%,0%);fill-opacity:1;" d="M 126.527344 60.230469 C 126.3125 60.230469 126.117188 60.265625 125.953125 60.335938 C 125.785156 60.410156 125.644531 60.515625 125.527344 60.648438 C 125.421875 60.78125 125.335938 60.9375 125.28125 61.125 C 125.21875 61.3125 125.191406 61.523438 125.191406 61.75 C 125.191406 61.984375 125.21875 62.195312 125.28125 62.386719 C 125.34375 62.578125 125.433594 62.738281 125.550781 62.875 C 125.664062 63.011719 125.804688 63.121094 125.972656 63.199219 C 126.148438 63.269531 126.339844 63.304688 126.550781 63.304688 C 126.703125 63.304688 126.835938 63.289062 126.953125 63.25 C 127.074219 63.207031 127.1875 63.152344 127.289062 63.078125 C 127.390625 63.007812 127.476562 62.925781 127.550781 62.832031 C 127.628906 62.738281 127.695312 62.632812 127.753906 62.507812 L 128.179688 62.722656 C 128.113281 62.867188 128.03125 63 127.929688 63.121094 C 127.828125 63.246094 127.707031 63.355469 127.570312 63.445312 C 127.433594 63.53125 127.277344 63.601562 127.105469 63.652344 C 126.929688 63.699219 126.738281 63.726562 126.527344 63.726562 C 126.214844 63.726562 125.945312 63.679688 125.714844 63.585938 C 125.480469 63.488281 125.285156 63.347656 125.128906 63.175781 C 124.976562 63 124.859375 62.789062 124.78125 62.550781 C 124.699219 62.308594 124.660156 62.039062 124.660156 61.75 C 124.660156 61.457031 124.699219 61.191406 124.78125 60.953125 C 124.867188 60.710938 124.988281 60.503906 125.148438 60.335938 C 125.304688 60.171875 125.503906 60.042969 125.734375 59.949219 C 125.964844 59.855469 126.230469 59.808594 126.527344 59.808594 C 126.933594 59.808594 127.269531 59.886719 127.539062 60.046875 C 127.8125 60.203125 128.015625 60.441406 128.148438 60.757812 L 127.65625 60.917969 C 127.621094 60.828125 127.570312 60.742188 127.507812 60.660156 C 127.445312 60.574219 127.371094 60.503906 127.277344 60.445312 C 127.183594 60.378906 127.074219 60.332031 126.953125 60.292969 C 126.828125 60.25 126.6875 60.230469 126.527344 60.230469 Z M 126.527344 60.230469 "/>
<path style=" stroke:none;fill-rule:nonzero;fill:rgb(0%,0%,0%);fill-opacity:1;" d="M 143.128906 36.335938 C 143.128906 36.632812 143.085938 36.90625 143 37.148438 C 142.914062 37.394531 142.785156 37.601562 142.621094 37.773438 C 142.460938 37.945312 142.261719 38.082031 142.023438 38.171875 C 141.789062 38.265625 141.523438 38.3125 141.230469 38.3125 C 140.910156 38.3125 140.632812 38.265625 140.394531 38.171875 C 140.160156 38.074219 139.964844 37.933594 139.804688 37.761719 C 139.644531 37.585938 139.527344 37.375 139.449219 37.136719 C 139.367188 36.894531 139.328125 36.625 139.328125 36.335938 C 139.328125 36.042969 139.367188 35.777344 139.449219 35.539062 C 139.535156 35.296875 139.65625 35.089844 139.816406 34.921875 C 139.984375 34.757812 140.179688 34.628906 140.414062 34.535156 C 140.652344 34.441406 140.925781 34.394531 141.230469 34.394531 C 141.535156 34.394531 141.804688 34.441406 142.042969 34.535156 C 142.28125 34.628906 142.480469 34.761719 142.640625 34.933594 C 142.796875 35.101562 142.917969 35.300781 143 35.539062 C 143.085938 35.777344 143.128906 36.042969 143.128906 36.335938 Z M 142.597656 36.335938 C 142.597656 36.109375 142.566406 35.898438 142.511719 35.710938 C 142.449219 35.523438 142.363281 35.367188 142.25 35.234375 C 142.132812 35.101562 141.988281 34.996094 141.816406 34.921875 C 141.648438 34.851562 141.453125 34.816406 141.230469 34.816406 C 141.003906 34.816406 140.804688 34.851562 140.632812 34.921875 C 140.457031 34.996094 140.3125 35.101562 140.199219 35.234375 C 140.089844 35.367188 140.003906 35.523438 139.949219 35.710938 C 139.886719 35.898438 139.859375 36.109375 139.859375 36.335938 C 139.859375 36.570312 139.886719 36.78125 139.949219 36.972656 C 140.003906 37.164062 140.089844 37.324219 140.207031 37.460938 C 140.324219 37.597656 140.464844 37.707031 140.632812 37.785156 C 140.804688 37.855469 141.003906 37.890625 141.230469 37.890625 C 141.46875 37.890625 141.675781 37.855469 141.847656 37.785156 C 142.023438 37.707031 142.164062 37.597656 142.273438 37.460938 C 142.378906 37.316406 142.460938 37.152344 142.511719 36.964844 C 142.566406 36.769531 142.597656 36.5625 142.597656 36.335938 Z M 142.597656 36.335938 "/>
<path style="fill:none;stroke-width:0.0333333;stroke-linecap:butt;stroke-linejoin:miter;stroke:rgb(0%,0%,0%);stroke-opacity:1;stroke-miterlimit:10;" d="M 0.843895 0.97075 L 1.527004 1.368491 " transform="matrix(17.378049,0,0,17.275281,126.420681,36.355024)"/>
<path style="fill:none;stroke-width:0.0333333;stroke-linecap:butt;stroke-linejoin:miter;stroke:rgb(0%,0%,0%);stroke-opacity:1;stroke-miterlimit:10;" d="M 1.059685 1.385676 L 1.311215 0.953565 " transform="matrix(17.378049,0,0,17.275281,126.420681,36.355024)"/>
<path style="fill:none;stroke-width:0.0333333;stroke-linecap:butt;stroke-linejoin:miter;stroke:rgb(0%,0%,0%);stroke-opacity:1;stroke-miterlimit:10;" d="M 0.860529 0.97075 L 0.176297 1.368717 " transform="matrix(17.378049,0,0,17.275281,126.420681,36.355024)"/>
<path style="fill:none;stroke-width:0.0333333;stroke-linecap:butt;stroke-linejoin:miter;stroke:rgb(0%,0%,0%);stroke-opacity:1;stroke-miterlimit:10;" d="M 0.935381 1.024114 L 0.935381 0.156725 " transform="matrix(17.378049,0,0,17.275281,126.420681,36.355024)"/>
<path style="fill:none;stroke-width:0.0333333;stroke-linecap:butt;stroke-linejoin:miter;stroke:rgb(0%,0%,0%);stroke-opacity:1;stroke-miterlimit:10;" d="M 0.768819 1.024114 L 0.768819 0.156725 " transform="matrix(17.378049,0,0,17.275281,126.420681,36.355024)"/>
<path style="fill:none;stroke-width:0.0333333;stroke-linecap:butt;stroke-linejoin:miter;stroke:rgb(0%,0%,0%);stroke-opacity:1;stroke-miterlimit:10;" d="M 1.102168 0.49952 L 0.602031 0.49952 " transform="matrix(17.378049,0,0,17.275281,126.420681,36.355024)"/>
<path style="fill:none;stroke-width:0.0333333;stroke-linecap:butt;stroke-linejoin:miter;stroke:rgb(0%,0%,0%);stroke-opacity:1;stroke-miterlimit:10;" d="M 1.102168 0.63293 L 0.602031 0.63293 " transform="matrix(17.378049,0,0,17.275281,126.420681,36.355024)"/>
<path style=" stroke:none;fill-rule:nonzero;fill:rgb(0%,0%,0%);fill-opacity:1;" d="M 169.917969 49.601562 L 191.640625 49.601562 L 191.640625 51.222656 L 195.988281 49.0625 L 191.640625 46.902344 L 191.640625 48.523438 L 169.917969 48.523438 "/>
<path style=" stroke:none;fill-rule:nonzero;fill:rgb(0%,0%,0%);fill-opacity:1;" d="M 291.152344 46.273438 L 289.101562 43.035156 C 289.105469 43.121094 289.109375 43.207031 289.109375 43.292969 C 289.117188 43.367188 289.121094 43.445312 289.121094 43.53125 C 289.128906 43.613281 289.132812 43.683594 289.132812 43.746094 L 289.132812 46.273438 L 288.664062 46.273438 L 288.664062 42.472656 L 289.273438 42.472656 L 291.335938 45.734375 C 291.335938 45.734375 291.332031 45.644531 291.328125 45.464844 C 291.320312 45.394531 291.308594 45.3125 291.304688 45.226562 C 291.304688 45.132812 291.304688 45.046875 291.304688 44.96875 L 291.304688 42.472656 L 291.773438 42.472656 L 291.773438 46.273438 Z M 291.152344 46.273438 "/>
<path style=" stroke:none;fill-rule:nonzero;fill:rgb(0%,0%,0%);fill-opacity:1;" d="M 259.460938 83.0625 L 257.40625 79.824219 C 257.414062 79.910156 257.417969 80 257.417969 80.085938 C 257.421875 80.15625 257.429688 80.234375 257.429688 80.320312 C 257.433594 80.402344 257.441406 80.472656 257.441406 80.539062 L 257.441406 83.0625 L 256.972656 83.0625 L 256.972656 79.265625 L 257.582031 79.265625 L 259.644531 82.523438 C 259.644531 82.523438 259.640625 82.433594 259.632812 82.253906 C 259.625 82.183594 259.617188 82.101562 259.613281 82.015625 C 259.613281 81.925781 259.613281 81.839844 259.613281 81.757812 L 259.613281 79.265625 L 260.078125 79.265625 L 260.078125 83.0625 Z M 259.460938 83.0625 "/>
<path style=" stroke:none;fill-rule:nonzero;fill:rgb(0%,0%,0%);fill-opacity:1;" d="M 285.632812 76.984375 C 285.414062 76.984375 285.222656 77.019531 285.058594 77.089844 C 284.890625 77.164062 284.746094 77.269531 284.632812 77.402344 C 284.523438 77.535156 284.441406 77.691406 284.382812 77.878906 C 284.324219 78.066406 284.296875 78.277344 284.296875 78.503906 C 284.296875 78.738281 284.324219 78.949219 284.382812 79.140625 C 284.449219 79.332031 284.539062 79.492188 284.65625 79.628906 C 284.769531 79.765625 284.910156 79.875 285.078125 79.953125 C 285.253906 80.023438 285.441406 80.058594 285.65625 80.058594 C 285.804688 80.058594 285.941406 80.042969 286.054688 80.007812 C 286.179688 79.964844 286.289062 79.90625 286.394531 79.832031 C 286.492188 79.761719 286.582031 79.679688 286.652344 79.585938 C 286.730469 79.492188 286.800781 79.386719 286.859375 79.261719 L 287.285156 79.476562 C 287.21875 79.621094 287.132812 79.753906 287.035156 79.875 C 286.929688 80 286.8125 80.109375 286.675781 80.199219 C 286.535156 80.285156 286.382812 80.355469 286.207031 80.40625 C 286.035156 80.453125 285.839844 80.480469 285.632812 80.480469 C 285.320312 80.480469 285.050781 80.433594 284.816406 80.339844 C 284.585938 80.242188 284.390625 80.101562 284.230469 79.929688 C 284.078125 79.753906 283.960938 79.542969 283.882812 79.304688 C 283.800781 79.0625 283.765625 78.792969 283.765625 78.503906 C 283.765625 78.210938 283.800781 77.945312 283.882812 77.707031 C 283.972656 77.464844 284.09375 77.257812 284.253906 77.089844 C 284.410156 76.925781 284.605469 76.796875 284.839844 76.703125 C 285.070312 76.609375 285.335938 76.5625 285.632812 76.5625 C 286.039062 76.5625 286.375 76.644531 286.644531 76.800781 C 286.917969 76.957031 287.121094 77.195312 287.25 77.511719 L 286.761719 77.675781 C 286.722656 77.582031 286.675781 77.496094 286.609375 77.414062 C 286.550781 77.328125 286.472656 77.257812 286.382812 77.199219 C 286.285156 77.132812 286.179688 77.085938 286.054688 77.046875 C 285.929688 77.003906 285.789062 76.984375 285.632812 76.984375 Z M 285.632812 76.984375 "/>
<path style=" stroke:none;fill-rule:nonzero;fill:rgb(0%,0%,0%);fill-opacity:1;" d="M 301.996094 18.269531 C 301.78125 18.269531 301.585938 18.304688 301.421875 18.375 C 301.253906 18.449219 301.113281 18.554688 301 18.691406 C 300.890625 18.820312 300.804688 18.976562 300.75 19.164062 C 300.6875 19.355469 300.660156 19.5625 300.660156 19.789062 C 300.660156 20.023438 300.6875 20.234375 300.75 20.429688 C 300.8125 20.617188 300.902344 20.777344 301.019531 20.914062 C 301.132812 21.050781 301.277344 21.160156 301.445312 21.238281 C 301.617188 21.3125 301.808594 21.347656 302.019531 21.347656 C 302.171875 21.347656 302.304688 21.328125 302.421875 21.292969 C 302.542969 21.25 302.65625 21.191406 302.757812 21.117188 C 302.859375 21.050781 302.945312 20.964844 303.019531 20.871094 C 303.097656 20.777344 303.164062 20.671875 303.226562 20.546875 L 303.648438 20.761719 C 303.582031 20.910156 303.5 21.039062 303.398438 21.164062 C 303.296875 21.285156 303.175781 21.394531 303.039062 21.484375 C 302.902344 21.574219 302.746094 21.644531 302.574219 21.691406 C 302.398438 21.738281 302.207031 21.765625 301.996094 21.765625 C 301.6875 21.765625 301.414062 21.71875 301.183594 21.625 C 300.949219 21.527344 300.753906 21.390625 300.597656 21.214844 C 300.445312 21.039062 300.328125 20.828125 300.25 20.589844 C 300.167969 20.347656 300.128906 20.078125 300.128906 19.789062 C 300.128906 19.496094 300.167969 19.230469 300.25 18.992188 C 300.335938 18.75 300.457031 18.542969 300.617188 18.375 C 300.777344 18.210938 300.972656 18.082031 301.203125 17.988281 C 301.4375 17.894531 301.699219 17.847656 301.996094 17.847656 C 302.402344 17.847656 302.738281 17.929688 303.007812 18.085938 C 303.28125 18.246094 303.484375 18.480469 303.617188 18.796875 L 303.128906 18.960938 C 303.089844 18.867188 303.039062 18.78125 302.976562 18.699219 C 302.914062 18.613281 302.839844 18.542969 302.746094 18.484375 C 302.652344 18.417969 302.542969 18.371094 302.421875 18.332031 C 302.296875 18.289062 302.15625 18.269531 301.996094 18.269531 Z M 301.996094 18.269531 "/>
<path style="fill:none;stroke-width:0.0333333;stroke-linecap:butt;stroke-linejoin:miter;stroke:rgb(0%,0%,0%);stroke-opacity:1;stroke-miterlimit:10;" d="M 2.807126 1.57028 L 1.863047 2.12246 " transform="matrix(17.378049,0,0,17.275281,209.889496,16.958908)"/>
<path style="fill:none;stroke-width:0.0333333;stroke-linecap:butt;stroke-linejoin:miter;stroke:rgb(0%,0%,0%);stroke-opacity:1;stroke-miterlimit:10;" d="M 2.79881 1.575029 L 3.716589 2.117485 " transform="matrix(17.378049,0,0,17.275281,209.889496,16.958908)"/>
<path style="fill:none;stroke-width:0.0333333;stroke-linecap:butt;stroke-linejoin:miter;stroke:rgb(0%,0%,0%);stroke-opacity:1;stroke-miterlimit:10;" d="M 2.965372 1.480059 L 3.717039 1.924155 " transform="matrix(17.378049,0,0,17.275281,209.889496,16.958908)"/>
<path style="fill:none;stroke-width:0.0333333;stroke-linecap:butt;stroke-linejoin:miter;stroke:rgb(0%,0%,0%);stroke-opacity:1;stroke-miterlimit:10;" d="M 2.79881 1.584525 L 2.79881 0.566769 " transform="matrix(17.378049,0,0,17.275281,209.889496,16.958908)"/>
<path style="fill:none;stroke-width:0.0333333;stroke-linecap:butt;stroke-linejoin:miter;stroke:rgb(0%,0%,0%);stroke-opacity:1;stroke-miterlimit:10;" d="M 3.048766 1.07576 L 2.548853 1.07576 " transform="matrix(17.378049,0,0,17.275281,209.889496,16.958908)"/>
<path style="fill:none;stroke-width:0.0333333;stroke-linecap:butt;stroke-linejoin:miter;stroke:rgb(0%,0%,0%);stroke-opacity:1;stroke-miterlimit:10;" d="M 1.871364 2.117485 L 1.871364 3.18838 " transform="matrix(17.378049,0,0,17.275281,209.889496,16.958908)"/>
<path style="fill:none;stroke-width:0.0333333;stroke-linecap:butt;stroke-linejoin:miter;stroke:rgb(0%,0%,0%);stroke-opacity:1;stroke-miterlimit:10;" d="M 2.038152 2.213133 L 2.038152 3.091375 " transform="matrix(17.378049,0,0,17.275281,209.889496,16.958908)"/>
<path style="fill:none;stroke-width:0.0333333;stroke-linecap:butt;stroke-linejoin:miter;stroke:rgb(0%,0%,0%);stroke-opacity:1;stroke-miterlimit:10;" d="M 1.879906 2.12246 L 0.93313 1.57028 " transform="matrix(17.378049,0,0,17.275281,209.889496,16.958908)"/>
<path style="fill:none;stroke-width:0.0333333;stroke-linecap:butt;stroke-linejoin:miter;stroke:rgb(0%,0%,0%);stroke-opacity:1;stroke-miterlimit:10;" d="M 3.716589 2.107988 L 3.716589 3.197877 " transform="matrix(17.378049,0,0,17.275281,209.889496,16.958908)"/>
<path style="fill:none;stroke-width:0.0333333;stroke-linecap:butt;stroke-linejoin:miter;stroke:rgb(0%,0%,0%);stroke-opacity:1;stroke-miterlimit:10;" d="M 3.708497 2.12246 L 4.456792 1.684017 " transform="matrix(17.378049,0,0,17.275281,209.889496,16.958908)"/>
<path style="fill:none;stroke-width:0.0333333;stroke-linecap:butt;stroke-linejoin:miter;stroke:rgb(0%,0%,0%);stroke-opacity:1;stroke-miterlimit:10;" d="M 4.208859 2.118842 L 3.956205 1.687635 " transform="matrix(17.378049,0,0,17.275281,209.889496,16.958908)"/>
<path style="fill:none;stroke-width:0.0333333;stroke-linecap:butt;stroke-linejoin:miter;stroke:rgb(0%,0%,0%);stroke-opacity:1;stroke-miterlimit:10;" d="M 2.791167 0.581014 L 3.724906 -0.00508325 " transform="matrix(17.378049,0,0,17.275281,209.889496,16.958908)"/>
<path style="fill:none;stroke-width:0.0333333;stroke-linecap:butt;stroke-linejoin:miter;stroke:rgb(0%,0%,0%);stroke-opacity:1;stroke-miterlimit:10;" d="M 2.957505 0.673044 L 3.731874 0.187117 " transform="matrix(17.378049,0,0,17.275281,209.889496,16.958908)"/>
<path style="fill:none;stroke-width:0.0333333;stroke-linecap:butt;stroke-linejoin:miter;stroke:rgb(0%,0%,0%);stroke-opacity:1;stroke-miterlimit:10;" d="M 3.447302 0.464337 L 3.181611 0.0405926 " transform="matrix(17.378049,0,0,17.275281,209.889496,16.958908)"/>
<path style="fill:none;stroke-width:0.0333333;stroke-linecap:butt;stroke-linejoin:miter;stroke:rgb(0%,0%,0%);stroke-opacity:1;stroke-miterlimit:10;" d="M 3.334237 0.535112 L 3.068546 0.111594 " transform="matrix(17.378049,0,0,17.275281,209.889496,16.958908)"/>
<path style="fill:none;stroke-width:0.0333333;stroke-linecap:butt;stroke-linejoin:miter;stroke:rgb(0%,0%,0%);stroke-opacity:1;stroke-miterlimit:10;" d="M 1.863272 3.183631 L 2.632697 3.622074 " transform="matrix(17.378049,0,0,17.275281,209.889496,16.958908)"/>
<path style="fill:none;stroke-width:0.0333333;stroke-linecap:butt;stroke-linejoin:miter;stroke:rgb(0%,0%,0%);stroke-opacity:1;stroke-miterlimit:10;" d="M 1.879681 3.183631 L 0.933579 3.72134 " transform="matrix(17.378049,0,0,17.275281,209.889496,16.958908)"/>
<path style="fill:none;stroke-width:0.0333333;stroke-linecap:butt;stroke-linejoin:miter;stroke:rgb(0%,0%,0%);stroke-opacity:1;stroke-miterlimit:10;" d="M 0.949988 1.57028 L -0.0082519 2.12246 " transform="matrix(17.378049,0,0,17.275281,209.889496,16.958908)"/>
<path style="fill:none;stroke-width:0.0333333;stroke-linecap:butt;stroke-linejoin:miter;stroke:rgb(0%,0%,0%);stroke-opacity:1;stroke-miterlimit:10;" d="M 0.949539 1.762933 L 0.158311 2.218786 " transform="matrix(17.378049,0,0,17.275281,209.889496,16.958908)"/>
<path style="fill:none;stroke-width:0.0333333;stroke-linecap:butt;stroke-linejoin:miter;stroke:rgb(0%,0%,0%);stroke-opacity:1;stroke-miterlimit:10;" d="M 3.708497 3.183405 L 4.17649 3.459947 " transform="matrix(17.378049,0,0,17.275281,209.889496,16.958908)"/>
<path style="fill:none;stroke-width:0.0333333;stroke-linecap:butt;stroke-linejoin:miter;stroke:rgb(0%,0%,0%);stroke-opacity:1;stroke-miterlimit:10;" d="M 4.622455 1.433705 L 4.622455 0.480392 " transform="matrix(17.378049,0,0,17.275281,209.889496,16.958908)"/>
<path style="fill:none;stroke-width:0.0333333;stroke-linecap:butt;stroke-linejoin:miter;stroke:rgb(0%,0%,0%);stroke-opacity:1;stroke-miterlimit:10;" d="M 4.455668 1.433705 L 4.455668 0.580562 " transform="matrix(17.378049,0,0,17.275281,209.889496,16.958908)"/>
<path style="fill:none;stroke-width:0.0333333;stroke-linecap:butt;stroke-linejoin:miter;stroke:rgb(0%,0%,0%);stroke-opacity:1;stroke-miterlimit:10;" d="M 4.872411 0.890344 L 4.372499 0.890344 " transform="matrix(17.378049,0,0,17.275281,209.889496,16.958908)"/>
<path style="fill:none;stroke-width:0.0333333;stroke-linecap:butt;stroke-linejoin:miter;stroke:rgb(0%,0%,0%);stroke-opacity:1;stroke-miterlimit:10;" d="M 4.872411 1.023527 L 4.372499 1.023527 " transform="matrix(17.378049,0,0,17.275281,209.889496,16.958908)"/>
<path style="fill:none;stroke-width:0.0333333;stroke-linecap:butt;stroke-linejoin:miter;stroke:rgb(0%,0%,0%);stroke-opacity:1;stroke-miterlimit:10;" d="M 0.949763 3.72134 L -0.00847668 3.183631 " transform="matrix(17.378049,0,0,17.275281,209.889496,16.958908)"/>
<path style="fill:none;stroke-width:0.0333333;stroke-linecap:butt;stroke-linejoin:miter;stroke:rgb(0%,0%,0%);stroke-opacity:1;stroke-miterlimit:10;" d="M 0.949314 3.529818 L 0.158086 3.085948 " transform="matrix(17.378049,0,0,17.275281,209.889496,16.958908)"/>
<path style="fill:none;stroke-width:0.0333333;stroke-linecap:butt;stroke-linejoin:miter;stroke:rgb(0%,0%,0%);stroke-opacity:1;stroke-miterlimit:10;" d="M 4.615038 0.48401 L 5.115175 0.248847 " transform="matrix(17.378049,0,0,17.275281,209.889496,16.958908)"/>
<path style="fill:none;stroke-width:0.0333333;stroke-linecap:butt;stroke-linejoin:miter;stroke:rgb(0%,0%,0%);stroke-opacity:1;stroke-miterlimit:10;" d="M 3.716589 3.18838 L 2.964698 3.621169 " transform="matrix(17.378049,0,0,17.275281,209.889496,16.958908)"/>
<path style="fill:none;stroke-width:0.0333333;stroke-linecap:butt;stroke-linejoin:miter;stroke:rgb(0%,0%,0%);stroke-opacity:1;stroke-miterlimit:10;" d="M 3.550027 3.091827 L 2.881754 3.47668 " transform="matrix(17.378049,0,0,17.275281,209.889496,16.958908)"/>
<path style="fill:none;stroke-width:0.0333333;stroke-linecap:butt;stroke-linejoin:miter;stroke:rgb(0%,0%,0%);stroke-opacity:1;stroke-miterlimit:10;" d="M 3.708047 -0.0044049 L 4.629873 0.484236 " transform="matrix(17.378049,0,0,17.275281,209.889496,16.958908)"/>
<path style="fill:none;stroke-width:0.0333333;stroke-linecap:butt;stroke-linejoin:miter;stroke:rgb(0%,0%,0%);stroke-opacity:1;stroke-miterlimit:10;" d="M 4.051737 0.46072 L 4.285959 0.0188852 " transform="matrix(17.378049,0,0,17.275281,209.889496,16.958908)"/>
<path style="fill:none;stroke-width:0.0333333;stroke-linecap:butt;stroke-linejoin:miter;stroke:rgb(0%,0%,0%);stroke-opacity:1;stroke-miterlimit:10;" d="M 0.0000649867 2.107988 L 0.0000649867 3.198103 " transform="matrix(17.378049,0,0,17.275281,209.889496,16.958908)"/>
</g>
</svg>
