<?xml version="1.0" encoding="UTF-8"?>
<svg xmlns="http://www.w3.org/2000/svg" xmlns:xlink="http://www.w3.org/1999/xlink" width="386.4pt" height="116.8pt" viewBox="0 0 386.4 116.8" version="1.1">
<g id="surface342">
<path style=" stroke:none;fill-rule:nonzero;fill:rgb(60.392157%,0%,100%);fill-opacity:1;" d="M 36.851562 49.578125 L 36.851562 49.261719 L 37.589844 49.261719 L 37.589844 47.066406 L 36.9375 47.535156 L 36.9375 47.1875 L 37.613281 46.722656 L 37.960938 46.722656 L 37.960938 49.261719 L 38.65625 49.261719 L 38.65625 49.578125 Z M 36.851562 49.578125 "/>
<path style=" stroke:none;fill-rule:nonzero;fill:rgb(60.392157%,0%,100%);fill-opacity:1;" d="M 57.863281 49.535156 L 57.863281 49.277344 C 57.933594 49.121094 58.019531 48.980469 58.113281 48.867188 C 58.214844 48.746094 58.320312 48.632812 58.429688 48.53125 C 58.542969 48.429688 58.65625 48.339844 58.765625 48.261719 C 58.875 48.175781 58.972656 48.09375 59.058594 48.011719 C 59.144531 47.925781 59.214844 47.835938 59.265625 47.742188 C 59.3125 47.648438 59.339844 47.542969 59.339844 47.429688 C 59.339844 47.347656 59.328125 47.28125 59.308594 47.222656 C 59.285156 47.15625 59.25 47.101562 59.199219 47.058594 C 59.15625 47.015625 59.101562 46.988281 59.035156 46.972656 C 58.972656 46.953125 58.898438 46.941406 58.820312 46.941406 C 58.746094 46.941406 58.679688 46.953125 58.613281 46.972656 C 58.546875 46.988281 58.488281 47.015625 58.4375 47.058594 C 58.386719 47.097656 58.347656 47.148438 58.320312 47.210938 C 58.289062 47.269531 58.269531 47.339844 58.253906 47.417969 L 57.886719 47.382812 C 57.898438 47.285156 57.929688 47.191406 57.972656 47.101562 C 58.015625 47.011719 58.074219 46.929688 58.15625 46.867188 C 58.234375 46.796875 58.332031 46.742188 58.4375 46.703125 C 58.546875 46.660156 58.671875 46.636719 58.820312 46.636719 C 58.964844 46.636719 59.089844 46.65625 59.199219 46.691406 C 59.3125 46.722656 59.410156 46.773438 59.480469 46.84375 C 59.5625 46.910156 59.617188 46.992188 59.65625 47.09375 C 59.699219 47.1875 59.722656 47.296875 59.722656 47.417969 C 59.722656 47.519531 59.703125 47.613281 59.667969 47.699219 C 59.636719 47.785156 59.59375 47.867188 59.535156 47.945312 C 59.476562 48.019531 59.410156 48.09375 59.328125 48.175781 C 59.257812 48.246094 59.179688 48.320312 59.089844 48.390625 C 59.007812 48.453125 58.929688 48.523438 58.839844 48.59375 C 58.757812 48.660156 58.679688 48.730469 58.601562 48.800781 C 58.527344 48.867188 58.464844 48.9375 58.40625 49.007812 C 58.347656 49.078125 58.300781 49.152344 58.265625 49.222656 L 59.765625 49.222656 L 59.765625 49.535156 Z M 57.863281 49.535156 "/>
<path style=" stroke:none;fill-rule:nonzero;fill:rgb(60.392157%,0%,100%);fill-opacity:1;" d="M 29.566406 64.578125 C 29.566406 64.707031 29.542969 64.828125 29.5 64.933594 C 29.457031 65.039062 29.390625 65.125 29.304688 65.195312 C 29.222656 65.257812 29.125 65.3125 29 65.355469 C 28.882812 65.390625 28.746094 65.410156 28.589844 65.410156 C 28.414062 65.410156 28.265625 65.386719 28.144531 65.34375 C 28.019531 65.300781 27.917969 65.246094 27.839844 65.171875 C 27.757812 65.09375 27.699219 65.011719 27.65625 64.921875 C 27.617188 64.832031 27.59375 64.734375 27.589844 64.632812 L 27.96875 64.597656 C 27.976562 64.671875 27.992188 64.738281 28.023438 64.804688 C 28.050781 64.871094 28.089844 64.921875 28.144531 64.96875 C 28.191406 65.011719 28.253906 65.046875 28.328125 65.074219 C 28.398438 65.097656 28.484375 65.109375 28.589844 65.109375 C 28.777344 65.109375 28.917969 65.0625 29.023438 64.976562 C 29.132812 64.886719 29.1875 64.746094 29.1875 64.566406 C 29.1875 64.457031 29.160156 64.371094 29.109375 64.308594 C 29.066406 64.242188 29.007812 64.195312 28.9375 64.167969 C 28.863281 64.132812 28.785156 64.109375 28.707031 64.089844 C 28.625 64.078125 28.550781 64.070312 28.480469 64.070312 L 28.273438 64.070312 L 28.273438 63.757812 L 28.46875 63.757812 C 28.539062 63.757812 28.613281 63.75 28.6875 63.734375 C 28.765625 63.722656 28.832031 63.695312 28.894531 63.660156 C 28.957031 63.625 29.007812 63.574219 29.042969 63.507812 C 29.089844 63.441406 29.109375 63.363281 29.109375 63.257812 C 29.109375 63.105469 29.0625 62.988281 28.96875 62.902344 C 28.882812 62.816406 28.746094 62.773438 28.566406 62.773438 C 28.40625 62.773438 28.277344 62.8125 28.175781 62.890625 C 28.074219 62.972656 28.015625 63.085938 28.003906 63.238281 L 27.632812 63.214844 C 27.648438 63.085938 27.679688 62.976562 27.730469 62.878906 C 27.789062 62.789062 27.855469 62.710938 27.9375 62.652344 C 28.023438 62.589844 28.121094 62.542969 28.230469 62.511719 C 28.339844 62.484375 28.453125 62.46875 28.578125 62.46875 C 28.734375 62.46875 28.875 62.492188 28.992188 62.535156 C 29.105469 62.570312 29.199219 62.625 29.273438 62.695312 C 29.34375 62.761719 29.394531 62.84375 29.425781 62.933594 C 29.460938 63.019531 29.480469 63.117188 29.480469 63.226562 C 29.480469 63.308594 29.46875 63.386719 29.445312 63.464844 C 29.425781 63.539062 29.386719 63.601562 29.335938 63.660156 C 29.292969 63.71875 29.230469 63.765625 29.152344 63.808594 C 29.078125 63.847656 28.992188 63.875 28.882812 63.898438 L 28.882812 63.90625 C 28.996094 63.921875 29.097656 63.949219 29.1875 63.992188 C 29.273438 64.03125 29.339844 64.078125 29.390625 64.132812 C 29.449219 64.195312 29.492188 64.261719 29.523438 64.339844 C 29.550781 64.414062 29.566406 64.492188 29.566406 64.578125 Z M 29.566406 64.578125 "/>
<path style=" stroke:none;fill-rule:nonzero;fill:rgb(60.392157%,0%,100%);fill-opacity:1;" d="M 68.8125 64.65625 L 68.8125 65.304688 L 68.464844 65.304688 L 68.464844 64.65625 L 67.117188 64.65625 L 67.117188 64.375 L 68.433594 62.449219 L 68.8125 62.449219 L 68.8125 64.375 L 69.214844 64.375 L 69.214844 64.65625 Z M 68.464844 62.863281 C 68.464844 62.871094 68.457031 62.882812 68.441406 62.90625 C 68.433594 62.921875 68.425781 62.941406 68.410156 62.96875 C 68.394531 62.992188 68.378906 63.019531 68.367188 63.046875 C 68.351562 63.066406 68.339844 63.085938 68.335938 63.097656 L 67.597656 64.179688 C 67.589844 64.1875 67.578125 64.203125 67.5625 64.222656 C 67.554688 64.238281 67.542969 64.257812 67.53125 64.277344 C 67.515625 64.292969 67.5 64.308594 67.488281 64.332031 C 67.472656 64.347656 67.460938 64.363281 67.453125 64.375 L 68.464844 64.375 Z M 68.464844 62.863281 "/>
<path style=" stroke:none;fill-rule:nonzero;fill:rgb(0%,0%,0%);fill-opacity:1;" d="M 16.609375 65.042969 C 16.394531 65.042969 16.203125 65.082031 16.035156 65.152344 C 15.867188 65.222656 15.726562 65.328125 15.613281 65.464844 C 15.503906 65.59375 15.417969 65.753906 15.363281 65.941406 C 15.304688 66.128906 15.277344 66.335938 15.277344 66.566406 C 15.277344 66.800781 15.304688 67.011719 15.363281 67.203125 C 15.425781 67.394531 15.515625 67.554688 15.632812 67.691406 C 15.746094 67.828125 15.890625 67.9375 16.058594 68.015625 C 16.230469 68.089844 16.421875 68.125 16.632812 68.125 C 16.785156 68.125 16.917969 68.109375 17.035156 68.070312 C 17.15625 68.027344 17.269531 67.96875 17.371094 67.898438 C 17.472656 67.828125 17.558594 67.742188 17.632812 67.648438 C 17.710938 67.554688 17.777344 67.449219 17.839844 67.324219 L 18.261719 67.539062 C 18.195312 67.6875 18.113281 67.820312 18.011719 67.941406 C 17.910156 68.066406 17.789062 68.171875 17.652344 68.265625 C 17.515625 68.351562 17.359375 68.421875 17.1875 68.46875 C 17.011719 68.519531 16.820312 68.546875 16.609375 68.546875 C 16.300781 68.546875 16.027344 68.496094 15.796875 68.40625 C 15.5625 68.304688 15.367188 68.167969 15.210938 67.996094 C 15.058594 67.816406 14.941406 67.605469 14.863281 67.367188 C 14.78125 67.125 14.742188 66.855469 14.742188 66.566406 C 14.742188 66.273438 14.78125 66.003906 14.863281 65.765625 C 14.949219 65.523438 15.070312 65.316406 15.230469 65.152344 C 15.390625 64.984375 15.585938 64.855469 15.820312 64.761719 C 16.050781 64.667969 16.3125 64.621094 16.609375 64.621094 C 17.015625 64.621094 17.351562 64.703125 17.621094 64.859375 C 17.894531 65.019531 18.097656 65.257812 18.230469 65.574219 L 17.742188 65.734375 C 17.703125 65.644531 17.652344 65.554688 17.589844 65.476562 C 17.527344 65.386719 17.453125 65.316406 17.359375 65.257812 C 17.265625 65.195312 17.15625 65.144531 17.035156 65.109375 C 16.910156 65.0625 16.769531 65.042969 16.609375 65.042969 Z M 16.609375 65.042969 "/>
<path style=" stroke:none;fill-rule:nonzero;fill:rgb(0%,0%,0%);fill-opacity:1;" d="M 19.019531 68.492188 L 19.019531 64.480469 L 19.507812 64.480469 L 19.507812 68.492188 Z M 19.019531 68.492188 "/>
<path style=" stroke:none;fill-rule:nonzero;fill:rgb(0%,0%,0%);fill-opacity:1;" d="M 78.882812 64.816406 C 78.664062 64.816406 78.472656 64.851562 78.304688 64.921875 C 78.136719 64.996094 77.996094 65.101562 77.882812 65.238281 C 77.773438 65.367188 77.6875 65.527344 77.632812 65.714844 C 77.574219 65.902344 77.546875 66.109375 77.546875 66.339844 C 77.546875 66.574219 77.574219 66.785156 77.632812 66.976562 C 77.699219 67.167969 77.785156 67.328125 77.902344 67.464844 C 78.019531 67.601562 78.160156 67.710938 78.328125 67.789062 C 78.5 67.863281 78.691406 67.898438 78.902344 67.898438 C 79.054688 67.898438 79.1875 67.878906 79.304688 67.84375 C 79.425781 67.800781 79.539062 67.742188 79.640625 67.667969 C 79.742188 67.597656 79.828125 67.515625 79.902344 67.421875 C 79.980469 67.328125 80.046875 67.222656 80.109375 67.097656 L 80.53125 67.3125 C 80.464844 67.460938 80.382812 67.589844 80.28125 67.714844 C 80.179688 67.835938 80.058594 67.945312 79.921875 68.039062 C 79.785156 68.125 79.628906 68.195312 79.457031 68.242188 C 79.28125 68.292969 79.089844 68.320312 78.882812 68.320312 C 78.570312 68.320312 78.296875 68.269531 78.066406 68.179688 C 77.832031 68.078125 77.636719 67.941406 77.480469 67.765625 C 77.328125 67.589844 77.210938 67.378906 77.132812 67.140625 C 77.050781 66.898438 77.011719 66.628906 77.011719 66.339844 C 77.011719 66.046875 77.050781 65.777344 77.132812 65.539062 C 77.21875 65.296875 77.34375 65.089844 77.503906 64.921875 C 77.660156 64.757812 77.855469 64.628906 78.089844 64.535156 C 78.320312 64.441406 78.582031 64.394531 78.882812 64.394531 C 79.285156 64.394531 79.621094 64.476562 79.890625 64.632812 C 80.164062 64.792969 80.367188 65.027344 80.5 65.34375 L 80.011719 65.507812 C 79.972656 65.414062 79.921875 65.328125 79.859375 65.25 C 79.796875 65.160156 79.722656 65.089844 79.628906 65.03125 C 79.535156 64.96875 79.425781 64.917969 79.304688 64.878906 C 79.179688 64.835938 79.039062 64.816406 78.882812 64.816406 Z M 78.882812 64.816406 "/>
<path style=" stroke:none;fill-rule:nonzero;fill:rgb(0%,0%,0%);fill-opacity:1;" d="M 81.289062 68.265625 L 81.289062 64.253906 L 81.78125 64.253906 L 81.78125 68.265625 Z M 81.289062 68.265625 "/>
<path style="fill:none;stroke-width:0.0333333;stroke-linecap:butt;stroke-linejoin:miter;stroke:rgb(0%,0%,0%);stroke-opacity:1;stroke-miterlimit:10;" d="M 1.254004 0.0000778947 L 2.331623 0.0000778947 " transform="matrix(17.374101,0,0,17.298578,17.126872,50.424434)"/>
<path style="fill:none;stroke-width:0.0333333;stroke-linecap:butt;stroke-linejoin:miter;stroke:rgb(0%,0%,0%);stroke-opacity:1;stroke-miterlimit:10;" d="M 1.350682 0.166728 L 2.235844 0.166728 " transform="matrix(17.374101,0,0,17.298578,17.126872,50.424434)"/>
<path style="fill:none;stroke-width:0.0333333;stroke-linecap:butt;stroke-linejoin:miter;stroke:rgb(0%,0%,0%);stroke-opacity:1;stroke-miterlimit:10;" d="M 1.268393 -0.0082772 L 0.734643 0.925235 " transform="matrix(17.374101,0,0,17.298578,17.126872,50.424434)"/>
<path style="fill:none;stroke-width:0.0333333;stroke-linecap:butt;stroke-linejoin:miter;stroke:rgb(0%,0%,0%);stroke-opacity:1;stroke-miterlimit:10;" d="M 2.317233 -0.0082772 L 2.86245 0.925235 " transform="matrix(17.374101,0,0,17.298578,17.126872,50.424434)"/>
<path style="fill:none;stroke-width:0.0333333;stroke-linecap:butt;stroke-linejoin:miter;stroke:rgb(0%,0%,0%);stroke-opacity:1;stroke-miterlimit:10;" d="M 0.748807 0.91688 L 0.182231 0.926816 " transform="matrix(17.374101,0,0,17.298578,17.126872,50.424434)"/>
<path style="fill:none;stroke-width:0.0333333;stroke-linecap:butt;stroke-linejoin:miter;stroke:rgb(0%,0%,0%);stroke-opacity:1;stroke-miterlimit:10;" d="M 0.394472 0.673002 L 0.40324 1.172952 " transform="matrix(17.374101,0,0,17.298578,17.126872,50.424434)"/>
<path style="fill:none;stroke-width:0.0333333;stroke-linecap:butt;stroke-linejoin:miter;stroke:rgb(0%,0%,0%);stroke-opacity:1;stroke-miterlimit:10;" d="M 0.527797 0.670744 L 0.536791 1.170694 " transform="matrix(17.374101,0,0,17.298578,17.126872,50.424434)"/>
<path style="fill:none;stroke-width:0.0333333;stroke-linecap:butt;stroke-linejoin:miter;stroke:rgb(0%,0%,0%);stroke-opacity:1;stroke-miterlimit:10;" d="M 2.848061 0.917106 L 3.403621 0.917106 " transform="matrix(17.374101,0,0,17.298578,17.126872,50.424434)"/>
<path style="fill:none;stroke-width:0.0333333;stroke-linecap:butt;stroke-linejoin:miter;stroke:rgb(0%,0%,0%);stroke-opacity:1;stroke-miterlimit:10;" d="M 3.192504 1.167081 L 3.192504 0.667131 " transform="matrix(17.374101,0,0,17.298578,17.126872,50.424434)"/>
<path style="fill:none;stroke-width:0.0333333;stroke-linecap:butt;stroke-linejoin:miter;stroke:rgb(0%,0%,0%);stroke-opacity:1;stroke-miterlimit:10;" d="M 3.059178 1.167081 L 3.059178 0.667131 " transform="matrix(17.374101,0,0,17.298578,17.126872,50.424434)"/>
<path style="fill:none;stroke-width:0.0625;stroke-linecap:butt;stroke-linejoin:miter;stroke:rgb(0%,0%,0%);stroke-opacity:1;stroke-miterlimit:10;" d="M 0.0000611264 -0.0000258449 L 0.500087 -0.0000258449 M 0.250074 -0.250001 L 0.250074 0.24995 " transform="matrix(17.374101,0,0,17.298578,93.295813,58.469197)"/>
<path style=" stroke:none;fill-rule:nonzero;fill:rgb(0%,0%,0%);fill-opacity:1;" d="M 115.992188 66.089844 C 115.773438 66.089844 115.582031 66.125 115.414062 66.195312 C 115.246094 66.269531 115.105469 66.375 114.992188 66.511719 C 114.882812 66.640625 114.800781 66.800781 114.742188 66.984375 C 114.683594 67.175781 114.65625 67.382812 114.65625 67.613281 C 114.65625 67.84375 114.683594 68.054688 114.742188 68.25 C 114.808594 68.441406 114.898438 68.601562 115.015625 68.738281 C 115.128906 68.875 115.269531 68.984375 115.4375 69.0625 C 115.609375 69.136719 115.800781 69.171875 116.011719 69.171875 C 116.164062 69.171875 116.296875 69.152344 116.414062 69.117188 C 116.535156 69.074219 116.648438 69.015625 116.75 68.941406 C 116.851562 68.871094 116.9375 68.789062 117.011719 68.695312 C 117.089844 68.601562 117.160156 68.496094 117.21875 68.371094 L 117.640625 68.585938 C 117.578125 68.730469 117.492188 68.863281 117.390625 68.984375 C 117.289062 69.109375 117.167969 69.21875 117.035156 69.308594 C 116.894531 69.398438 116.742188 69.46875 116.566406 69.515625 C 116.394531 69.566406 116.199219 69.589844 115.992188 69.589844 C 115.679688 69.589844 115.40625 69.542969 115.175781 69.449219 C 114.941406 69.351562 114.746094 69.214844 114.589844 69.039062 C 114.4375 68.863281 114.320312 68.652344 114.242188 68.414062 C 114.160156 68.167969 114.125 67.902344 114.125 67.613281 C 114.125 67.320312 114.160156 67.050781 114.242188 66.8125 C 114.328125 66.570312 114.453125 66.363281 114.613281 66.195312 C 114.769531 66.03125 114.964844 65.902344 115.199219 65.808594 C 115.429688 65.714844 115.691406 65.667969 115.992188 65.667969 C 116.394531 65.667969 116.730469 65.75 117 65.90625 C 117.273438 66.0625 117.480469 66.300781 117.609375 66.617188 L 117.121094 66.78125 C 117.082031 66.6875 117.035156 66.601562 116.96875 66.519531 C 116.910156 66.433594 116.832031 66.363281 116.742188 66.304688 C 116.644531 66.238281 116.535156 66.191406 116.414062 66.152344 C 116.289062 66.109375 116.148438 66.089844 115.992188 66.089844 Z M 115.992188 66.089844 "/>
<path style=" stroke:none;fill-rule:nonzero;fill:rgb(60.392157%,0%,100%);fill-opacity:1;" d="M 113.542969 67.527344 C 113.394531 67.75 113.261719 67.964844 113.140625 68.164062 C 113.023438 68.367188 112.921875 68.570312 112.835938 68.769531 C 112.75 68.972656 112.679688 69.179688 112.628906 69.398438 C 112.585938 69.613281 112.566406 69.847656 112.566406 70.089844 L 112.175781 70.089844 C 112.175781 69.859375 112.199219 69.636719 112.25 69.417969 C 112.308594 69.195312 112.382812 68.980469 112.476562 68.769531 C 112.570312 68.5625 112.679688 68.355469 112.804688 68.152344 C 112.925781 67.945312 113.054688 67.738281 113.195312 67.539062 L 111.652344 67.539062 L 111.652344 67.234375 L 113.542969 67.234375 Z M 113.542969 67.527344 "/>
<path style=" stroke:none;fill-rule:nonzero;fill:rgb(0%,0%,0%);fill-opacity:1;" d="M 116.816406 51.210938 L 114.765625 47.96875 C 114.769531 48.054688 114.773438 48.140625 114.773438 48.226562 C 114.78125 48.300781 114.785156 48.378906 114.785156 48.464844 C 114.792969 48.546875 114.796875 48.617188 114.796875 48.683594 L 114.796875 51.210938 L 114.328125 51.210938 L 114.328125 47.40625 L 114.9375 47.40625 L 117 50.671875 C 117 50.671875 116.996094 50.582031 116.988281 50.402344 C 116.980469 50.332031 116.972656 50.25 116.96875 50.164062 C 116.96875 50.070312 116.96875 49.984375 116.96875 49.902344 L 116.96875 47.40625 L 117.433594 47.40625 L 117.433594 51.210938 Z M 116.816406 51.210938 "/>
<path style=" stroke:none;fill-rule:nonzero;fill:rgb(60.392157%,0%,100%);fill-opacity:1;" d="M 113.75 51.027344 C 113.75 51.148438 113.726562 51.261719 113.683594 51.359375 C 113.644531 51.464844 113.589844 51.550781 113.511719 51.628906 C 113.429688 51.703125 113.328125 51.761719 113.207031 51.804688 C 113.082031 51.847656 112.9375 51.867188 112.773438 51.867188 C 112.601562 51.867188 112.460938 51.847656 112.335938 51.804688 C 112.210938 51.761719 112.109375 51.703125 112.023438 51.628906 C 111.941406 51.5625 111.882812 51.472656 111.847656 51.371094 C 111.808594 51.261719 111.792969 51.152344 111.792969 51.035156 C 111.792969 50.929688 111.808594 50.835938 111.835938 50.753906 C 111.871094 50.675781 111.917969 50.609375 111.96875 50.550781 C 112.015625 50.484375 112.078125 50.4375 112.140625 50.398438 C 112.210938 50.363281 112.285156 50.339844 112.359375 50.332031 L 112.359375 50.324219 C 112.277344 50.300781 112.207031 50.273438 112.140625 50.234375 C 112.082031 50.191406 112.03125 50.144531 111.988281 50.085938 C 111.945312 50.019531 111.914062 49.953125 111.890625 49.890625 C 111.871094 49.820312 111.859375 49.746094 111.859375 49.664062 C 111.859375 49.5625 111.875 49.46875 111.914062 49.382812 C 111.957031 49.289062 112.015625 49.210938 112.085938 49.144531 C 112.167969 49.078125 112.261719 49.03125 112.371094 48.992188 C 112.484375 48.949219 112.613281 48.929688 112.761719 48.929688 C 112.917969 48.929688 113.054688 48.949219 113.164062 48.992188 C 113.277344 49.03125 113.371094 49.078125 113.445312 49.144531 C 113.523438 49.210938 113.582031 49.289062 113.617188 49.382812 C 113.652344 49.46875 113.671875 49.5625 113.671875 49.664062 C 113.671875 49.746094 113.660156 49.820312 113.640625 49.890625 C 113.617188 49.964844 113.585938 50.027344 113.542969 50.085938 C 113.5 50.144531 113.445312 50.191406 113.378906 50.234375 C 113.320312 50.273438 113.25 50.300781 113.164062 50.324219 C 113.25 50.339844 113.324219 50.363281 113.390625 50.398438 C 113.460938 50.4375 113.523438 50.484375 113.574219 50.550781 C 113.632812 50.609375 113.675781 50.675781 113.707031 50.753906 C 113.734375 50.835938 113.75 50.925781 113.75 51.027344 Z M 113.292969 49.683594 C 113.292969 49.613281 113.28125 49.550781 113.261719 49.488281 C 113.242188 49.425781 113.214844 49.375 113.171875 49.339844 C 113.136719 49.296875 113.082031 49.261719 113.011719 49.242188 C 112.945312 49.214844 112.859375 49.199219 112.761719 49.199219 C 112.664062 49.199219 112.582031 49.214844 112.511719 49.242188 C 112.445312 49.261719 112.390625 49.296875 112.347656 49.339844 C 112.308594 49.375 112.28125 49.425781 112.261719 49.488281 C 112.238281 49.550781 112.230469 49.613281 112.230469 49.683594 C 112.230469 49.746094 112.234375 49.800781 112.25 49.859375 C 112.273438 49.917969 112.300781 49.972656 112.335938 50.019531 C 112.371094 50.070312 112.425781 50.113281 112.5 50.140625 C 112.570312 50.167969 112.664062 50.183594 112.773438 50.183594 C 112.878906 50.183594 112.96875 50.167969 113.042969 50.140625 C 113.113281 50.113281 113.167969 50.070312 113.207031 50.019531 C 113.242188 49.972656 113.261719 49.917969 113.269531 49.859375 C 113.285156 49.800781 113.292969 49.746094 113.292969 49.683594 Z M 113.367188 50.992188 C 113.367188 50.929688 113.359375 50.863281 113.335938 50.796875 C 113.320312 50.734375 113.289062 50.675781 113.238281 50.625 C 113.195312 50.578125 113.132812 50.535156 113.054688 50.507812 C 112.972656 50.480469 112.875 50.464844 112.761719 50.464844 C 112.652344 50.464844 112.558594 50.480469 112.488281 50.507812 C 112.414062 50.535156 112.351562 50.578125 112.304688 50.625 C 112.261719 50.675781 112.230469 50.734375 112.207031 50.796875 C 112.183594 50.863281 112.175781 50.933594 112.175781 51.003906 C 112.175781 51.089844 112.183594 51.171875 112.207031 51.242188 C 112.230469 51.316406 112.261719 51.378906 112.304688 51.4375 C 112.351562 51.488281 112.414062 51.527344 112.488281 51.554688 C 112.566406 51.578125 112.664062 51.585938 112.773438 51.585938 C 112.886719 51.585938 112.980469 51.578125 113.054688 51.554688 C 113.132812 51.527344 113.195312 51.488281 113.238281 51.4375 C 113.28125 51.378906 113.3125 51.316406 113.335938 51.242188 C 113.359375 51.171875 113.367188 51.085938 113.367188 50.992188 Z M 113.367188 50.992188 "/>
<path style="fill:none;stroke-width:0.0333333;stroke-linecap:butt;stroke-linejoin:miter;stroke:rgb(0%,0%,0%);stroke-opacity:1;stroke-miterlimit:10;" d="M 0.0000387614 0.90231 L 0.0000387614 0.191449 " transform="matrix(17.374101,0,0,17.298578,115.882139,49.309295)"/>
<path style="fill:none;stroke-width:0.0625;stroke-linecap:butt;stroke-linejoin:miter;stroke:rgb(0%,0%,0%);stroke-opacity:1;stroke-miterlimit:10;" d="M -0.0000099234 -0.0000258449 L 0.500016 -0.0000258449 M 0.250003 -0.250001 L 0.250003 0.24995 " transform="matrix(17.374101,0,0,17.298578,129.781422,58.469197)"/>
<path style=" stroke:none;fill-rule:nonzero;fill:rgb(60.392157%,0%,100%);fill-opacity:1;" d="M 185.273438 52.6875 C 185.273438 52.941406 185.246094 53.164062 185.195312 53.359375 C 185.152344 53.546875 185.082031 53.703125 184.992188 53.832031 C 184.902344 53.957031 184.796875 54.050781 184.664062 54.113281 C 184.539062 54.179688 184.398438 54.210938 184.242188 54.210938 C 184.132812 54.210938 184.03125 54.203125 183.9375 54.179688 C 183.851562 54.15625 183.769531 54.121094 183.699219 54.070312 C 183.632812 54.023438 183.574219 53.960938 183.523438 53.886719 C 183.480469 53.808594 183.441406 53.71875 183.40625 53.617188 L 183.765625 53.5625 C 183.800781 53.6875 183.855469 53.777344 183.9375 53.832031 C 184.015625 53.894531 184.117188 53.921875 184.242188 53.921875 C 184.34375 53.921875 184.429688 53.898438 184.511719 53.855469 C 184.601562 53.808594 184.671875 53.734375 184.730469 53.640625 C 184.789062 53.546875 184.832031 53.429688 184.859375 53.292969 C 184.894531 53.148438 184.914062 52.980469 184.914062 52.785156 C 184.886719 52.851562 184.84375 52.910156 184.796875 52.957031 C 184.742188 53.007812 184.6875 53.050781 184.621094 53.085938 C 184.5625 53.125 184.496094 53.152344 184.425781 53.175781 C 184.351562 53.191406 184.277344 53.195312 184.199219 53.195312 C 184.066406 53.195312 183.949219 53.175781 183.839844 53.132812 C 183.738281 53.082031 183.648438 53.015625 183.578125 52.9375 C 183.503906 52.851562 183.449219 52.75 183.40625 52.632812 C 183.367188 52.511719 183.351562 52.378906 183.351562 52.234375 C 183.351562 52.082031 183.371094 51.949219 183.417969 51.832031 C 183.460938 51.710938 183.519531 51.613281 183.601562 51.53125 C 183.679688 51.445312 183.777344 51.378906 183.894531 51.335938 C 184.015625 51.292969 184.15625 51.269531 184.304688 51.269531 C 184.625 51.269531 184.863281 51.390625 185.023438 51.628906 C 185.1875 51.859375 185.273438 52.210938 185.273438 52.6875 Z M 184.882812 52.332031 C 184.882812 52.222656 184.867188 52.121094 184.839844 52.027344 C 184.816406 51.9375 184.777344 51.855469 184.730469 51.789062 C 184.679688 51.71875 184.617188 51.664062 184.546875 51.628906 C 184.472656 51.585938 184.386719 51.5625 184.296875 51.5625 C 184.207031 51.5625 184.128906 51.582031 184.058594 51.617188 C 183.984375 51.648438 183.921875 51.691406 183.871094 51.746094 C 183.828125 51.804688 183.789062 51.875 183.765625 51.964844 C 183.734375 52.042969 183.71875 52.132812 183.71875 52.234375 C 183.71875 52.328125 183.730469 52.417969 183.753906 52.503906 C 183.78125 52.585938 183.816406 52.65625 183.863281 52.71875 C 183.910156 52.78125 183.972656 52.824219 184.046875 52.859375 C 184.117188 52.890625 184.199219 52.902344 184.285156 52.902344 C 184.355469 52.902344 184.425781 52.894531 184.492188 52.871094 C 184.5625 52.851562 184.628906 52.816406 184.6875 52.773438 C 184.742188 52.726562 184.789062 52.664062 184.828125 52.589844 C 184.863281 52.519531 184.882812 52.433594 184.882812 52.332031 Z M 184.882812 52.332031 "/>
<path style=" stroke:none;fill-rule:nonzero;fill:rgb(60.392157%,0%,100%);fill-opacity:1;" d="M 198.226562 51.554688 L 198.226562 51.242188 L 198.964844 51.242188 L 198.964844 49.046875 L 198.3125 49.511719 L 198.3125 49.164062 L 198.984375 48.699219 L 199.332031 48.699219 L 199.332031 51.242188 L 200.027344 51.242188 L 200.027344 51.554688 Z M 198.226562 51.554688 "/>
<path style=" stroke:none;fill-rule:nonzero;fill:rgb(60.392157%,0%,100%);fill-opacity:1;" d="M 202.324219 50.128906 C 202.324219 50.402344 202.292969 50.632812 202.238281 50.820312 C 202.183594 51.007812 202.113281 51.160156 202.019531 51.273438 C 201.933594 51.390625 201.828125 51.472656 201.703125 51.523438 C 201.578125 51.570312 201.449219 51.597656 201.3125 51.597656 C 201.175781 51.597656 201.042969 51.570312 200.921875 51.523438 C 200.804688 51.472656 200.699219 51.390625 200.609375 51.273438 C 200.519531 51.160156 200.449219 51.007812 200.402344 50.820312 C 200.351562 50.632812 200.324219 50.402344 200.324219 50.128906 C 200.324219 49.839844 200.351562 49.605469 200.402344 49.414062 C 200.449219 49.226562 200.519531 49.078125 200.609375 48.960938 C 200.699219 48.847656 200.808594 48.765625 200.933594 48.722656 C 201.054688 48.679688 201.1875 48.65625 201.324219 48.65625 C 201.460938 48.65625 201.589844 48.679688 201.714844 48.722656 C 201.835938 48.765625 201.945312 48.847656 202.03125 48.960938 C 202.117188 49.078125 202.183594 49.226562 202.238281 49.414062 C 202.292969 49.605469 202.324219 49.839844 202.324219 50.128906 Z M 201.945312 50.128906 C 201.945312 49.898438 201.925781 49.707031 201.898438 49.554688 C 201.878906 49.402344 201.835938 49.285156 201.78125 49.199219 C 201.730469 49.113281 201.664062 49.050781 201.585938 49.015625 C 201.511719 48.972656 201.425781 48.949219 201.324219 48.949219 C 201.222656 48.949219 201.132812 48.972656 201.054688 49.015625 C 200.972656 49.050781 200.90625 49.117188 200.859375 49.210938 C 200.804688 49.296875 200.765625 49.414062 200.738281 49.566406 C 200.707031 49.710938 200.695312 49.898438 200.695312 50.128906 C 200.695312 50.34375 200.707031 50.527344 200.738281 50.679688 C 200.765625 50.832031 200.804688 50.957031 200.859375 51.046875 C 200.914062 51.132812 200.980469 51.199219 201.054688 51.242188 C 201.132812 51.28125 201.222656 51.296875 201.324219 51.296875 C 201.417969 51.296875 201.5 51.28125 201.574219 51.242188 C 201.652344 51.199219 201.71875 51.132812 201.769531 51.046875 C 201.828125 50.957031 201.871094 50.832031 201.898438 50.679688 C 201.925781 50.527344 201.945312 50.34375 201.945312 50.128906 Z M 201.945312 50.128906 "/>
<path style=" stroke:none;fill-rule:nonzero;fill:rgb(60.392157%,0%,100%);fill-opacity:1;" d="M 185.339844 77.125 L 185.339844 76.8125 L 186.078125 76.8125 L 186.078125 74.617188 L 185.425781 75.082031 L 185.425781 74.734375 L 186.097656 74.269531 L 186.445312 74.269531 L 186.445312 76.8125 L 187.140625 76.8125 L 187.140625 77.125 Z M 185.339844 77.125 "/>
<path style=" stroke:none;fill-rule:nonzero;fill:rgb(60.392157%,0%,100%);fill-opacity:1;" d="M 187.589844 77.125 L 187.589844 76.8125 L 188.328125 76.8125 L 188.328125 74.617188 L 187.675781 75.082031 L 187.675781 74.734375 L 188.351562 74.269531 L 188.699219 74.269531 L 188.699219 76.8125 L 189.394531 76.8125 L 189.394531 77.125 Z M 187.589844 77.125 "/>
<path style=" stroke:none;fill-rule:nonzero;fill:rgb(60.392157%,0%,100%);fill-opacity:1;" d="M 166.300781 44.53125 L 166.300781 44.214844 L 167.042969 44.214844 L 167.042969 42.023438 L 166.390625 42.488281 L 166.390625 42.140625 L 167.0625 41.675781 L 167.410156 41.675781 L 167.410156 44.214844 L 168.105469 44.214844 L 168.105469 44.53125 Z M 166.300781 44.53125 "/>
<path style=" stroke:none;fill-rule:nonzero;fill:rgb(60.392157%,0%,100%);fill-opacity:1;" d="M 168.445312 44.53125 L 168.445312 44.269531 C 168.515625 44.113281 168.601562 43.976562 168.695312 43.859375 C 168.796875 43.738281 168.902344 43.628906 169.011719 43.523438 C 169.125 43.425781 169.238281 43.335938 169.347656 43.253906 C 169.457031 43.167969 169.554688 43.085938 169.640625 43.007812 C 169.726562 42.917969 169.796875 42.832031 169.847656 42.734375 C 169.894531 42.644531 169.921875 42.539062 169.921875 42.421875 C 169.921875 42.34375 169.914062 42.277344 169.890625 42.214844 C 169.871094 42.152344 169.832031 42.097656 169.78125 42.054688 C 169.738281 42.011719 169.683594 41.984375 169.621094 41.96875 C 169.554688 41.945312 169.480469 41.933594 169.402344 41.933594 C 169.328125 41.933594 169.261719 41.945312 169.195312 41.96875 C 169.128906 41.984375 169.070312 42.011719 169.023438 42.054688 C 168.96875 42.09375 168.929688 42.140625 168.902344 42.207031 C 168.871094 42.265625 168.851562 42.332031 168.835938 42.410156 L 168.46875 42.378906 C 168.480469 42.277344 168.511719 42.183594 168.554688 42.097656 C 168.597656 42.003906 168.660156 41.925781 168.738281 41.859375 C 168.820312 41.789062 168.914062 41.734375 169.023438 41.699219 C 169.128906 41.65625 169.253906 41.632812 169.402344 41.632812 C 169.546875 41.632812 169.671875 41.652344 169.78125 41.6875 C 169.894531 41.714844 169.992188 41.769531 170.066406 41.839844 C 170.144531 41.902344 170.199219 41.988281 170.238281 42.085938 C 170.28125 42.179688 170.304688 42.289062 170.304688 42.410156 C 170.304688 42.515625 170.285156 42.605469 170.25 42.691406 C 170.21875 42.777344 170.175781 42.863281 170.117188 42.941406 C 170.058594 43.015625 169.992188 43.089844 169.914062 43.167969 C 169.839844 43.242188 169.761719 43.3125 169.671875 43.382812 C 169.59375 43.449219 169.511719 43.519531 169.425781 43.589844 C 169.34375 43.65625 169.265625 43.726562 169.183594 43.796875 C 169.113281 43.859375 169.046875 43.929688 168.988281 44 C 168.929688 44.074219 168.882812 44.148438 168.847656 44.214844 L 170.347656 44.214844 L 170.347656 44.53125 Z M 168.445312 44.53125 "/>
<path style=" stroke:none;fill-rule:nonzero;fill:rgb(60.392157%,0%,100%);fill-opacity:1;" d="M 214.226562 53.5625 L 214.226562 53.246094 L 214.964844 53.246094 L 214.964844 51.050781 L 214.316406 51.515625 L 214.316406 51.171875 L 214.988281 50.707031 L 215.335938 50.707031 L 215.335938 53.246094 L 216.03125 53.246094 L 216.03125 53.5625 Z M 214.226562 53.5625 "/>
<path style=" stroke:none;fill-rule:nonzero;fill:rgb(60.392157%,0%,100%);fill-opacity:1;" d="M 218.304688 52.769531 C 218.304688 52.902344 218.285156 53.019531 218.238281 53.128906 C 218.195312 53.230469 218.132812 53.316406 218.042969 53.386719 C 217.964844 53.453125 217.863281 53.507812 217.742188 53.550781 C 217.625 53.585938 217.484375 53.605469 217.328125 53.605469 C 217.152344 53.605469 217.003906 53.582031 216.882812 53.539062 C 216.757812 53.496094 216.65625 53.4375 216.578125 53.367188 C 216.496094 53.289062 216.4375 53.203125 216.394531 53.117188 C 216.355469 53.027344 216.335938 52.929688 216.328125 52.824219 L 216.707031 52.792969 C 216.714844 52.867188 216.734375 52.933594 216.761719 53 C 216.789062 53.0625 216.832031 53.117188 216.882812 53.160156 C 216.929688 53.203125 216.992188 53.242188 217.066406 53.269531 C 217.136719 53.289062 217.222656 53.300781 217.328125 53.300781 C 217.515625 53.300781 217.660156 53.257812 217.761719 53.171875 C 217.871094 53.078125 217.925781 52.941406 217.925781 52.761719 C 217.925781 52.652344 217.898438 52.566406 217.847656 52.5 C 217.804688 52.4375 217.746094 52.390625 217.675781 52.359375 C 217.601562 52.324219 217.527344 52.300781 217.445312 52.285156 C 217.367188 52.269531 217.289062 52.261719 217.21875 52.261719 L 217.011719 52.261719 L 217.011719 51.949219 L 217.207031 51.949219 C 217.277344 51.949219 217.351562 51.945312 217.425781 51.929688 C 217.503906 51.914062 217.570312 51.890625 217.632812 51.851562 C 217.695312 51.816406 217.746094 51.765625 217.785156 51.699219 C 217.828125 51.636719 217.847656 51.554688 217.847656 51.453125 C 217.847656 51.300781 217.800781 51.183594 217.707031 51.09375 C 217.621094 51.007812 217.484375 50.964844 217.304688 50.964844 C 217.144531 50.964844 217.015625 51.007812 216.914062 51.085938 C 216.8125 51.164062 216.753906 51.28125 216.742188 51.429688 L 216.371094 51.410156 C 216.386719 51.28125 216.417969 51.167969 216.46875 51.074219 C 216.527344 50.980469 216.59375 50.90625 216.675781 50.847656 C 216.761719 50.78125 216.859375 50.734375 216.96875 50.707031 C 217.078125 50.679688 217.191406 50.664062 217.316406 50.664062 C 217.472656 50.664062 217.613281 50.683594 217.730469 50.726562 C 217.84375 50.765625 217.9375 50.820312 218.011719 50.890625 C 218.082031 50.957031 218.132812 51.035156 218.164062 51.128906 C 218.199219 51.214844 218.21875 51.3125 218.21875 51.421875 C 218.21875 51.5 218.207031 51.578125 218.183594 51.65625 C 218.164062 51.730469 218.125 51.796875 218.078125 51.851562 C 218.035156 51.910156 217.972656 51.960938 217.890625 52.003906 C 217.820312 52.042969 217.730469 52.070312 217.621094 52.089844 L 217.621094 52.101562 C 217.734375 52.117188 217.839844 52.144531 217.925781 52.1875 C 218.011719 52.226562 218.078125 52.269531 218.132812 52.328125 C 218.1875 52.386719 218.230469 52.457031 218.261719 52.535156 C 218.289062 52.605469 218.304688 52.683594 218.304688 52.769531 Z M 218.304688 52.769531 "/>
<path style=" stroke:none;fill-rule:nonzero;fill:rgb(0%,0%,0%);fill-opacity:1;" d="M 202.171875 33.695312 C 202.171875 33.996094 202.128906 34.265625 202.042969 34.507812 C 201.953125 34.753906 201.828125 34.960938 201.660156 35.136719 C 201.5 35.308594 201.304688 35.441406 201.066406 35.535156 C 200.832031 35.628906 200.566406 35.675781 200.273438 35.675781 C 199.953125 35.675781 199.675781 35.628906 199.4375 35.535156 C 199.203125 35.433594 199.007812 35.296875 198.847656 35.125 C 198.6875 34.945312 198.570312 34.734375 198.492188 34.496094 C 198.410156 34.253906 198.371094 33.984375 198.371094 33.695312 C 198.371094 33.402344 198.410156 33.136719 198.492188 32.898438 C 198.578125 32.652344 198.699219 32.449219 198.859375 32.28125 C 199.027344 32.117188 199.222656 31.984375 199.457031 31.890625 C 199.695312 31.800781 199.96875 31.75 200.273438 31.75 C 200.574219 31.75 200.847656 31.800781 201.085938 31.890625 C 201.324219 31.984375 201.523438 32.117188 201.683594 32.292969 C 201.839844 32.460938 201.960938 32.660156 202.042969 32.898438 C 202.128906 33.136719 202.171875 33.402344 202.171875 33.695312 Z M 201.640625 33.695312 C 201.640625 33.46875 201.609375 33.257812 201.554688 33.070312 C 201.492188 32.882812 201.40625 32.722656 201.292969 32.59375 C 201.175781 32.460938 201.03125 32.355469 200.859375 32.28125 C 200.691406 32.210938 200.496094 32.171875 200.273438 32.171875 C 200.046875 32.171875 199.847656 32.210938 199.675781 32.28125 C 199.5 32.355469 199.355469 32.460938 199.238281 32.59375 C 199.132812 32.722656 199.046875 32.882812 198.992188 33.070312 C 198.929688 33.257812 198.902344 33.46875 198.902344 33.695312 C 198.902344 33.929688 198.929688 34.140625 198.992188 34.335938 C 199.046875 34.523438 199.132812 34.6875 199.25 34.820312 C 199.363281 34.960938 199.507812 35.066406 199.675781 35.144531 C 199.847656 35.21875 200.046875 35.253906 200.273438 35.253906 C 200.511719 35.253906 200.71875 35.21875 200.890625 35.144531 C 201.066406 35.066406 201.207031 34.960938 201.3125 34.820312 C 201.421875 34.679688 201.5 34.511719 201.554688 34.324219 C 201.609375 34.128906 201.640625 33.921875 201.640625 33.695312 Z M 201.640625 33.695312 "/>
<path style=" stroke:none;fill-rule:nonzero;fill:rgb(60.392157%,0%,100%);fill-opacity:1;" d="M 193.660156 36.175781 L 193.660156 35.863281 L 194.398438 35.863281 L 194.398438 33.667969 L 193.75 34.132812 L 193.75 33.785156 L 194.421875 33.320312 L 194.769531 33.320312 L 194.769531 35.863281 L 195.464844 35.863281 L 195.464844 36.175781 Z M 193.660156 36.175781 "/>
<path style=" stroke:none;fill-rule:nonzero;fill:rgb(60.392157%,0%,100%);fill-opacity:1;" d="M 197.390625 35.527344 L 197.390625 36.175781 L 197.042969 36.175781 L 197.042969 35.527344 L 195.695312 35.527344 L 195.695312 35.246094 L 197.011719 33.320312 L 197.390625 33.320312 L 197.390625 35.246094 L 197.792969 35.246094 L 197.792969 35.527344 Z M 197.042969 33.730469 C 197.042969 33.742188 197.035156 33.753906 197.023438 33.777344 C 197.011719 33.792969 197.003906 33.8125 196.988281 33.839844 C 196.972656 33.863281 196.960938 33.890625 196.945312 33.917969 C 196.929688 33.9375 196.917969 33.957031 196.914062 33.96875 L 196.175781 35.050781 C 196.167969 35.058594 196.15625 35.074219 196.140625 35.09375 C 196.132812 35.109375 196.125 35.125 196.109375 35.148438 C 196.09375 35.164062 196.078125 35.179688 196.066406 35.203125 C 196.050781 35.21875 196.039062 35.230469 196.035156 35.246094 L 197.042969 35.246094 Z M 197.042969 33.730469 "/>
<path style=" stroke:none;fill-rule:nonzero;fill:rgb(60.392157%,0%,100%);fill-opacity:1;" d="M 166.285156 88.175781 L 166.285156 87.859375 L 167.023438 87.859375 L 167.023438 85.664062 L 166.375 86.128906 L 166.375 85.785156 L 167.046875 85.320312 L 167.394531 85.320312 L 167.394531 87.859375 L 168.089844 87.859375 L 168.089844 88.175781 Z M 166.285156 88.175781 "/>
<path style=" stroke:none;fill-rule:nonzero;fill:rgb(60.392157%,0%,100%);fill-opacity:1;" d="M 170.363281 87.246094 C 170.363281 87.390625 170.339844 87.523438 170.296875 87.644531 C 170.253906 87.761719 170.191406 87.859375 170.101562 87.945312 C 170.019531 88.035156 169.917969 88.105469 169.789062 88.152344 C 169.664062 88.195312 169.519531 88.21875 169.351562 88.21875 C 169.203125 88.21875 169.066406 88.199219 168.953125 88.164062 C 168.84375 88.128906 168.75 88.082031 168.667969 88.023438 C 168.597656 87.957031 168.535156 87.886719 168.484375 87.804688 C 168.441406 87.71875 168.410156 87.628906 168.386719 87.535156 L 168.765625 87.492188 C 168.78125 87.542969 168.800781 87.597656 168.820312 87.65625 C 168.847656 87.707031 168.886719 87.753906 168.929688 87.796875 C 168.980469 87.832031 169.039062 87.859375 169.105469 87.882812 C 169.175781 87.902344 169.257812 87.914062 169.351562 87.914062 C 169.453125 87.914062 169.539062 87.902344 169.613281 87.871094 C 169.691406 87.84375 169.757812 87.800781 169.808594 87.742188 C 169.867188 87.683594 169.910156 87.617188 169.941406 87.535156 C 169.96875 87.449219 169.984375 87.359375 169.984375 87.253906 C 169.984375 87.164062 169.96875 87.078125 169.941406 87.007812 C 169.917969 86.9375 169.878906 86.875 169.820312 86.824219 C 169.769531 86.765625 169.703125 86.722656 169.625 86.691406 C 169.550781 86.664062 169.464844 86.648438 169.363281 86.648438 C 169.304688 86.648438 169.25 86.65625 169.203125 86.671875 C 169.148438 86.679688 169.097656 86.691406 169.050781 86.714844 C 169.007812 86.730469 168.964844 86.753906 168.929688 86.78125 C 168.890625 86.800781 168.859375 86.828125 168.832031 86.855469 L 168.472656 86.855469 L 168.570312 85.320312 L 170.199219 85.320312 L 170.199219 85.621094 L 168.910156 85.621094 L 168.855469 86.53125 C 168.917969 86.480469 168.996094 86.4375 169.09375 86.402344 C 169.191406 86.367188 169.308594 86.347656 169.441406 86.347656 C 169.585938 86.347656 169.710938 86.367188 169.820312 86.410156 C 169.933594 86.453125 170.03125 86.515625 170.113281 86.59375 C 170.191406 86.675781 170.253906 86.773438 170.296875 86.886719 C 170.339844 86.996094 170.363281 87.113281 170.363281 87.246094 Z M 170.363281 87.246094 "/>
<path style=" stroke:none;fill-rule:nonzero;fill:rgb(0%,0%,0%);fill-opacity:1;" d="M 227.75 50.238281 C 227.75 50.429688 227.710938 50.589844 227.628906 50.726562 C 227.558594 50.863281 227.457031 50.972656 227.328125 51.058594 C 227.195312 51.148438 227.042969 51.210938 226.871094 51.253906 C 226.703125 51.292969 226.527344 51.308594 226.339844 51.308594 L 224.785156 51.308594 L 224.785156 47.503906 L 226.175781 47.503906 C 226.382812 47.503906 226.570312 47.523438 226.738281 47.558594 C 226.90625 47.585938 227.046875 47.640625 227.164062 47.71875 C 227.277344 47.792969 227.363281 47.890625 227.425781 48.011719 C 227.488281 48.128906 227.523438 48.265625 227.523438 48.421875 C 227.523438 48.53125 227.503906 48.632812 227.480469 48.726562 C 227.449219 48.820312 227.402344 48.90625 227.335938 48.984375 C 227.277344 49.058594 227.203125 49.121094 227.109375 49.179688 C 227.023438 49.230469 226.917969 49.269531 226.792969 49.296875 C 226.945312 49.320312 227.078125 49.359375 227.195312 49.40625 C 227.320312 49.457031 227.417969 49.523438 227.5 49.613281 C 227.578125 49.691406 227.640625 49.785156 227.683594 49.894531 C 227.726562 49.996094 227.75 50.109375 227.75 50.238281 Z M 227 48.488281 C 227 48.277344 226.925781 48.128906 226.785156 48.042969 C 226.644531 47.957031 226.441406 47.914062 226.175781 47.914062 L 225.308594 47.914062 L 225.308594 49.113281 L 226.175781 49.113281 C 226.328125 49.113281 226.453125 49.101562 226.554688 49.070312 C 226.664062 49.042969 226.75 49.003906 226.816406 48.953125 C 226.882812 48.894531 226.925781 48.828125 226.957031 48.746094 C 226.984375 48.667969 227 48.582031 227 48.488281 Z M 227.21875 50.195312 C 227.21875 50.074219 227.195312 49.972656 227.152344 49.894531 C 227.109375 49.804688 227.042969 49.738281 226.957031 49.6875 C 226.875 49.628906 226.777344 49.589844 226.664062 49.570312 C 226.546875 49.542969 226.417969 49.523438 226.273438 49.523438 L 225.308594 49.523438 L 225.308594 50.898438 L 226.316406 50.898438 C 226.445312 50.898438 226.566406 50.886719 226.675781 50.867188 C 226.789062 50.84375 226.886719 50.808594 226.96875 50.757812 C 227.046875 50.699219 227.109375 50.628906 227.152344 50.542969 C 227.195312 50.449219 227.21875 50.332031 227.21875 50.195312 Z M 227.21875 50.195312 "/>
<path style=" stroke:none;fill-rule:nonzero;fill:rgb(0%,0%,0%);fill-opacity:1;" d="M 228.582031 51.308594 L 228.582031 49.058594 C 228.582031 49.003906 228.574219 48.941406 228.570312 48.875 C 228.570312 48.8125 228.570312 48.753906 228.570312 48.691406 C 228.570312 48.636719 228.566406 48.582031 228.558594 48.53125 C 228.558594 48.472656 228.558594 48.421875 228.558594 48.378906 L 229.027344 48.378906 C 229.027344 48.421875 229.027344 48.472656 229.027344 48.53125 C 229.03125 48.582031 229.035156 48.636719 229.035156 48.691406 C 229.035156 48.746094 229.035156 48.796875 229.035156 48.855469 C 229.042969 48.90625 229.046875 48.949219 229.046875 48.984375 L 229.058594 48.984375 C 229.085938 48.871094 229.117188 48.773438 229.15625 48.691406 C 229.199219 48.605469 229.246094 48.539062 229.296875 48.488281 C 229.355469 48.4375 229.417969 48.398438 229.492188 48.367188 C 229.5625 48.339844 229.652344 48.324219 229.753906 48.324219 C 229.789062 48.324219 229.824219 48.332031 229.863281 48.335938 C 229.898438 48.34375 229.925781 48.351562 229.949219 48.359375 L 229.949219 48.800781 C 229.917969 48.796875 229.882812 48.789062 229.839844 48.789062 C 229.796875 48.785156 229.746094 48.777344 229.6875 48.777344 C 229.578125 48.777344 229.484375 48.804688 229.40625 48.855469 C 229.324219 48.90625 229.257812 48.972656 229.210938 49.058594 C 229.160156 49.148438 229.125 49.253906 229.101562 49.382812 C 229.082031 49.507812 229.070312 49.640625 229.070312 49.785156 L 229.070312 51.308594 Z M 228.582031 51.308594 "/>
<path style="fill:none;stroke-width:0.0333333;stroke-linecap:butt;stroke-linejoin:miter;stroke:rgb(0%,0%,0%);stroke-opacity:1;stroke-miterlimit:10;" d="M 1.830323 1.27386 L 2.765623 0.739586 " transform="matrix(17.374101,0,0,17.298578,152.367757,33.714026)"/>
<path style="fill:none;stroke-width:0.0333333;stroke-linecap:butt;stroke-linejoin:miter;stroke:rgb(0%,0%,0%);stroke-opacity:1;stroke-miterlimit:10;" d="M 1.838866 1.259408 L 1.838866 2.335635 " transform="matrix(17.374101,0,0,17.298578,152.367757,33.714026)"/>
<path style="fill:none;stroke-width:0.0333333;stroke-linecap:butt;stroke-linejoin:miter;stroke:rgb(0%,0%,0%);stroke-opacity:1;stroke-miterlimit:10;" d="M 1.838866 1.269118 L 0.910311 0.739586 " transform="matrix(17.374101,0,0,17.298578,152.367757,33.714026)"/>
<path style="fill:none;stroke-width:0.0333333;stroke-linecap:butt;stroke-linejoin:miter;stroke:rgb(0%,0%,0%);stroke-opacity:1;stroke-miterlimit:10;" d="M 1.672041 1.365766 L 0.910311 0.931302 " transform="matrix(17.374101,0,0,17.298578,152.367757,33.714026)"/>
<path style="fill:none;stroke-width:0.0333333;stroke-linecap:butt;stroke-linejoin:miter;stroke:rgb(0%,0%,0%);stroke-opacity:1;stroke-miterlimit:10;" d="M 2.748985 0.739586 L 3.685859 1.273635 " transform="matrix(17.374101,0,0,17.298578,152.367757,33.714026)"/>
<path style="fill:none;stroke-width:0.0333333;stroke-linecap:butt;stroke-linejoin:miter;stroke:rgb(0%,0%,0%);stroke-opacity:1;stroke-miterlimit:10;" d="M 2.840717 0.791749 L 2.840717 0.185666 " transform="matrix(17.374101,0,0,17.298578,152.367757,33.714026)"/>
<path style="fill:none;stroke-width:0.0333333;stroke-linecap:butt;stroke-linejoin:miter;stroke:rgb(0%,0%,0%);stroke-opacity:1;stroke-miterlimit:10;" d="M 2.673892 0.791749 L 2.673892 0.185666 " transform="matrix(17.374101,0,0,17.298578,152.367757,33.714026)"/>
<path style="fill:none;stroke-width:0.0333333;stroke-linecap:butt;stroke-linejoin:miter;stroke:rgb(0%,0%,0%);stroke-opacity:1;stroke-miterlimit:10;" d="M 1.84696 2.321183 L 0.910086 2.866974 " transform="matrix(17.374101,0,0,17.298578,152.367757,33.714026)"/>
<path style="fill:none;stroke-width:0.0333333;stroke-linecap:butt;stroke-linejoin:miter;stroke:rgb(0%,0%,0%);stroke-opacity:1;stroke-miterlimit:10;" d="M 1.68036 2.225438 L 0.910086 2.674129 " transform="matrix(17.374101,0,0,17.298578,152.367757,33.714026)"/>
<path style="fill:none;stroke-width:0.0333333;stroke-linecap:butt;stroke-linejoin:miter;stroke:rgb(0%,0%,0%);stroke-opacity:1;stroke-miterlimit:10;" d="M 0.926724 0.739586 L -0.00835154 1.27386 " transform="matrix(17.374101,0,0,17.298578,152.367757,33.714026)"/>
<path style="fill:none;stroke-width:0.0333333;stroke-linecap:butt;stroke-linejoin:miter;stroke:rgb(0%,0%,0%);stroke-opacity:1;stroke-miterlimit:10;" d="M 0.27741 0.822685 L 0.525399 1.256924 " transform="matrix(17.374101,0,0,17.298578,152.367757,33.714026)"/>
<path style="fill:none;stroke-width:0.0333333;stroke-linecap:butt;stroke-linejoin:miter;stroke:rgb(0%,0%,0%);stroke-opacity:1;stroke-miterlimit:10;" d="M 0.392973 0.756522 L 0.641187 1.190535 " transform="matrix(17.374101,0,0,17.298578,152.367757,33.714026)"/>
<path style="fill:none;stroke-width:0.0333333;stroke-linecap:butt;stroke-linejoin:miter;stroke:rgb(0%,0%,0%);stroke-opacity:1;stroke-miterlimit:10;" d="M 3.669222 1.273635 L 4.10562 1.026595 " transform="matrix(17.374101,0,0,17.298578,152.367757,33.714026)"/>
<path style="fill:none;stroke-width:0.0333333;stroke-linecap:butt;stroke-linejoin:miter;stroke:rgb(0%,0%,0%);stroke-opacity:1;stroke-miterlimit:10;" d="M 4.068523 1.335056 L 3.822332 0.899914 " transform="matrix(17.374101,0,0,17.298578,152.367757,33.714026)"/>
<path style="fill:none;stroke-width:0.0333333;stroke-linecap:butt;stroke-linejoin:miter;stroke:rgb(0%,0%,0%);stroke-opacity:1;stroke-miterlimit:10;" d="M 3.95251 1.400542 L 3.706319 0.965399 " transform="matrix(17.374101,0,0,17.298578,152.367757,33.714026)"/>
<path style="fill:none;stroke-width:0.0333333;stroke-linecap:butt;stroke-linejoin:miter;stroke:rgb(0%,0%,0%);stroke-opacity:1;stroke-miterlimit:10;" d="M 0.926949 2.866974 L -0.00835154 2.321183 " transform="matrix(17.374101,0,0,17.298578,152.367757,33.714026)"/>
<path style="fill:none;stroke-width:0.0333333;stroke-linecap:butt;stroke-linejoin:miter;stroke:rgb(0%,0%,0%);stroke-opacity:1;stroke-miterlimit:10;" d="M 0.527872 2.344667 L 0.275836 2.776422 " transform="matrix(17.374101,0,0,17.298578,152.367757,33.714026)"/>
<path style="fill:none;stroke-width:0.0333333;stroke-linecap:butt;stroke-linejoin:miter;stroke:rgb(0%,0%,0%);stroke-opacity:1;stroke-miterlimit:10;" d="M 0.642986 2.411734 L 0.39095 2.843715 " transform="matrix(17.374101,0,0,17.298578,152.367757,33.714026)"/>
<path style="fill:none;stroke-width:0.0333333;stroke-linecap:butt;stroke-linejoin:miter;stroke:rgb(0%,0%,0%);stroke-opacity:1;stroke-miterlimit:10;" d="M -0.0000327683 1.259408 L -0.0000327683 2.335635 " transform="matrix(17.374101,0,0,17.298578,152.367757,33.714026)"/>
<path style="fill:none;stroke-width:0.0333333;stroke-linecap:butt;stroke-linejoin:miter;stroke:rgb(0%,0%,0%);stroke-opacity:1;stroke-miterlimit:10;" d="M 0.166792 1.356056 L 0.166792 2.23989 " transform="matrix(17.374101,0,0,17.298578,152.367757,33.714026)"/>
<path style=" stroke:none;fill-rule:nonzero;fill:rgb(0%,0%,0%);fill-opacity:1;" d="M 241.265625 59.011719 L 262.984375 59.011719 L 262.984375 60.632812 L 267.328125 58.46875 L 262.984375 56.308594 L 262.984375 57.929688 L 241.265625 57.929688 "/>
<path style=" stroke:none;fill-rule:nonzero;fill:rgb(0%,0%,0%);fill-opacity:1;" d="M 296.96875 47.253906 L 294.917969 44.011719 C 294.921875 44.097656 294.929688 44.183594 294.929688 44.269531 C 294.933594 44.34375 294.9375 44.421875 294.9375 44.507812 C 294.945312 44.589844 294.949219 44.660156 294.949219 44.726562 L 294.949219 47.253906 L 294.484375 47.253906 L 294.484375 43.449219 L 295.089844 43.449219 L 297.152344 46.714844 C 297.152344 46.714844 297.148438 46.625 297.144531 46.445312 C 297.136719 46.375 297.128906 46.292969 297.121094 46.207031 C 297.121094 46.113281 297.121094 46.027344 297.121094 45.945312 L 297.121094 43.449219 L 297.589844 43.449219 L 297.589844 47.253906 Z M 296.96875 47.253906 "/>
<path style=" stroke:none;fill-rule:nonzero;fill:rgb(60.392157%,0%,100%);fill-opacity:1;" d="M 293.902344 47.070312 C 293.902344 47.195312 293.878906 47.304688 293.835938 47.40625 C 293.796875 47.507812 293.742188 47.597656 293.664062 47.675781 C 293.582031 47.75 293.480469 47.804688 293.359375 47.847656 C 293.234375 47.894531 293.089844 47.914062 292.925781 47.914062 C 292.757812 47.914062 292.613281 47.894531 292.492188 47.847656 C 292.367188 47.804688 292.261719 47.75 292.175781 47.675781 C 292.09375 47.605469 292.035156 47.519531 292 47.417969 C 291.964844 47.308594 291.949219 47.199219 291.949219 47.082031 C 291.949219 46.972656 291.960938 46.882812 291.992188 46.800781 C 292.027344 46.722656 292.070312 46.65625 292.121094 46.59375 C 292.171875 46.53125 292.230469 46.480469 292.292969 46.445312 C 292.367188 46.410156 292.4375 46.386719 292.511719 46.378906 L 292.511719 46.367188 C 292.429688 46.347656 292.359375 46.320312 292.292969 46.28125 C 292.234375 46.238281 292.1875 46.191406 292.144531 46.128906 C 292.097656 46.066406 292.066406 46 292.046875 45.9375 C 292.023438 45.867188 292.011719 45.789062 292.011719 45.707031 C 292.011719 45.609375 292.027344 45.515625 292.066406 45.425781 C 292.109375 45.335938 292.167969 45.253906 292.242188 45.191406 C 292.320312 45.125 292.414062 45.078125 292.523438 45.039062 C 292.636719 44.996094 292.765625 44.972656 292.914062 44.972656 C 293.070312 44.972656 293.207031 44.996094 293.316406 45.039062 C 293.429688 45.078125 293.523438 45.125 293.597656 45.191406 C 293.675781 45.253906 293.734375 45.335938 293.773438 45.425781 C 293.808594 45.515625 293.824219 45.609375 293.824219 45.707031 C 293.824219 45.789062 293.816406 45.867188 293.792969 45.9375 C 293.773438 46.007812 293.738281 46.074219 293.695312 46.128906 C 293.652344 46.191406 293.597656 46.238281 293.53125 46.28125 C 293.472656 46.320312 293.402344 46.347656 293.316406 46.367188 C 293.402344 46.382812 293.476562 46.410156 293.542969 46.445312 C 293.613281 46.480469 293.675781 46.53125 293.726562 46.59375 C 293.785156 46.65625 293.828125 46.722656 293.859375 46.800781 C 293.886719 46.882812 293.902344 46.972656 293.902344 47.070312 Z M 293.445312 45.730469 C 293.445312 45.660156 293.433594 45.59375 293.414062 45.535156 C 293.398438 45.472656 293.371094 45.421875 293.328125 45.382812 C 293.289062 45.339844 293.234375 45.308594 293.164062 45.289062 C 293.097656 45.261719 293.015625 45.242188 292.914062 45.242188 C 292.820312 45.242188 292.734375 45.261719 292.664062 45.289062 C 292.597656 45.308594 292.542969 45.339844 292.5 45.382812 C 292.464844 45.421875 292.4375 45.472656 292.414062 45.535156 C 292.390625 45.59375 292.382812 45.660156 292.382812 45.730469 C 292.382812 45.789062 292.386719 45.847656 292.402344 45.902344 C 292.425781 45.960938 292.453125 46.015625 292.492188 46.066406 C 292.527344 46.117188 292.578125 46.15625 292.652344 46.183594 C 292.722656 46.214844 292.816406 46.226562 292.925781 46.226562 C 293.035156 46.226562 293.121094 46.214844 293.195312 46.183594 C 293.265625 46.15625 293.320312 46.117188 293.359375 46.066406 C 293.394531 46.015625 293.414062 45.960938 293.425781 45.902344 C 293.4375 45.847656 293.445312 45.789062 293.445312 45.730469 Z M 293.523438 47.039062 C 293.523438 46.972656 293.511719 46.910156 293.488281 46.84375 C 293.472656 46.777344 293.441406 46.722656 293.390625 46.671875 C 293.347656 46.621094 293.285156 46.582031 293.207031 46.550781 C 293.125 46.523438 293.027344 46.507812 292.914062 46.507812 C 292.804688 46.507812 292.710938 46.523438 292.640625 46.550781 C 292.570312 46.582031 292.507812 46.621094 292.457031 46.671875 C 292.414062 46.722656 292.382812 46.777344 292.359375 46.84375 C 292.339844 46.910156 292.328125 46.980469 292.328125 47.050781 C 292.328125 47.136719 292.339844 47.21875 292.359375 47.289062 C 292.382812 47.359375 292.414062 47.425781 292.457031 47.480469 C 292.507812 47.535156 292.570312 47.574219 292.640625 47.601562 C 292.722656 47.621094 292.816406 47.632812 292.925781 47.632812 C 293.039062 47.632812 293.132812 47.621094 293.207031 47.601562 C 293.285156 47.574219 293.347656 47.535156 293.390625 47.480469 C 293.433594 47.425781 293.46875 47.359375 293.488281 47.289062 C 293.511719 47.21875 293.523438 47.132812 293.523438 47.039062 Z M 293.523438 47.039062 "/>
<path style=" stroke:none;fill-rule:nonzero;fill:rgb(0%,0%,0%);fill-opacity:1;" d="M 298.167969 43.128906 L 299.097656 43.128906 L 299.097656 42.199219 L 299.5625 42.199219 L 299.5625 43.128906 L 300.492188 43.128906 L 300.492188 43.589844 L 299.5625 43.589844 L 299.5625 44.515625 L 299.097656 44.515625 L 299.097656 43.589844 L 298.167969 43.589844 "/>
<path style=" stroke:none;fill-rule:nonzero;fill:rgb(60.392157%,0%,100%);fill-opacity:1;" d="M 307.539062 56.667969 L 307.539062 56.351562 L 308.277344 56.351562 L 308.277344 54.15625 L 307.628906 54.621094 L 307.628906 54.277344 L 308.300781 53.8125 L 308.648438 53.8125 L 308.648438 56.351562 L 309.34375 56.351562 L 309.34375 56.667969 Z M 307.539062 56.667969 "/>
<path style=" stroke:none;fill-rule:nonzero;fill:rgb(60.392157%,0%,100%);fill-opacity:1;" d="M 311.617188 55.878906 C 311.617188 56.007812 311.597656 56.125 311.550781 56.234375 C 311.507812 56.335938 311.445312 56.421875 311.355469 56.492188 C 311.277344 56.558594 311.175781 56.613281 311.054688 56.65625 C 310.9375 56.691406 310.796875 56.710938 310.640625 56.710938 C 310.464844 56.710938 310.316406 56.6875 310.195312 56.644531 C 310.070312 56.601562 309.96875 56.542969 309.890625 56.472656 C 309.808594 56.394531 309.75 56.308594 309.707031 56.222656 C 309.667969 56.132812 309.648438 56.035156 309.640625 55.929688 L 310.019531 55.898438 C 310.027344 55.972656 310.046875 56.039062 310.074219 56.105469 C 310.101562 56.167969 310.144531 56.222656 310.195312 56.265625 C 310.242188 56.308594 310.304688 56.347656 310.378906 56.375 C 310.449219 56.394531 310.535156 56.40625 310.640625 56.40625 C 310.828125 56.40625 310.972656 56.363281 311.074219 56.277344 C 311.183594 56.183594 311.238281 56.046875 311.238281 55.867188 C 311.238281 55.757812 311.210938 55.671875 311.160156 55.605469 C 311.117188 55.542969 311.058594 55.496094 310.988281 55.464844 C 310.914062 55.429688 310.839844 55.40625 310.757812 55.390625 C 310.679688 55.378906 310.601562 55.367188 310.53125 55.367188 L 310.324219 55.367188 L 310.324219 55.054688 L 310.519531 55.054688 C 310.589844 55.054688 310.664062 55.050781 310.738281 55.035156 C 310.816406 55.019531 310.882812 54.996094 310.945312 54.957031 C 311.007812 54.921875 311.058594 54.871094 311.097656 54.808594 C 311.140625 54.742188 311.160156 54.660156 311.160156 54.558594 C 311.160156 54.40625 311.113281 54.289062 311.019531 54.203125 C 310.933594 54.113281 310.796875 54.070312 310.617188 54.070312 C 310.457031 54.070312 310.328125 54.113281 310.226562 54.191406 C 310.125 54.273438 310.066406 54.386719 310.054688 54.535156 L 309.683594 54.515625 C 309.699219 54.386719 309.730469 54.273438 309.78125 54.179688 C 309.839844 54.085938 309.90625 54.011719 309.988281 53.953125 C 310.074219 53.886719 310.171875 53.84375 310.28125 53.8125 C 310.390625 53.785156 310.503906 53.769531 310.628906 53.769531 C 310.785156 53.769531 310.925781 53.789062 311.042969 53.832031 C 311.15625 53.871094 311.25 53.925781 311.324219 53.996094 C 311.394531 54.0625 311.445312 54.140625 311.476562 54.234375 C 311.511719 54.320312 311.53125 54.417969 311.53125 54.527344 C 311.53125 54.605469 311.519531 54.683594 311.496094 54.761719 C 311.476562 54.835938 311.4375 54.902344 311.390625 54.957031 C 311.347656 55.019531 311.285156 55.066406 311.203125 55.109375 C 311.132812 55.148438 311.042969 55.175781 310.933594 55.195312 L 310.933594 55.207031 C 311.046875 55.222656 311.152344 55.25 311.238281 55.292969 C 311.324219 55.332031 311.390625 55.378906 311.445312 55.433594 C 311.5 55.492188 311.542969 55.5625 311.574219 55.640625 C 311.601562 55.710938 311.617188 55.789062 311.617188 55.878906 Z M 311.617188 55.878906 "/>
<path style=" stroke:none;fill-rule:nonzero;fill:rgb(60.392157%,0%,100%);fill-opacity:1;" d="M 284.910156 34.242188 L 284.910156 34.890625 L 284.5625 34.890625 L 284.5625 34.242188 L 283.21875 34.242188 L 283.21875 33.960938 L 284.53125 32.035156 L 284.910156 32.035156 L 284.910156 33.960938 L 285.3125 33.960938 L 285.3125 34.242188 Z M 284.5625 32.445312 C 284.5625 32.453125 284.554688 32.46875 284.542969 32.488281 C 284.535156 32.503906 284.523438 32.527344 284.507812 32.554688 C 284.492188 32.574219 284.480469 32.601562 284.464844 32.628906 C 284.449219 32.652344 284.4375 32.671875 284.433594 32.683594 L 283.695312 33.765625 C 283.6875 33.773438 283.675781 33.785156 283.660156 33.808594 C 283.652344 33.824219 283.644531 33.839844 283.628906 33.863281 C 283.613281 33.878906 283.601562 33.894531 283.585938 33.917969 C 283.570312 33.933594 283.558594 33.945312 283.554688 33.960938 L 284.5625 33.960938 Z M 284.5625 32.445312 "/>
<path style=" stroke:none;fill-rule:nonzero;fill:rgb(60.392157%,0%,100%);fill-opacity:1;" d="M 309.027344 34.085938 C 309.027344 34.214844 309.007812 34.335938 308.964844 34.441406 C 308.917969 34.546875 308.855469 34.632812 308.769531 34.703125 C 308.6875 34.765625 308.585938 34.820312 308.464844 34.863281 C 308.347656 34.898438 308.207031 34.917969 308.050781 34.917969 C 307.878906 34.917969 307.726562 34.898438 307.605469 34.855469 C 307.480469 34.8125 307.378906 34.753906 307.300781 34.679688 C 307.21875 34.601562 307.160156 34.519531 307.117188 34.433594 C 307.078125 34.339844 307.058594 34.242188 307.050781 34.140625 L 307.433594 34.109375 C 307.4375 34.179688 307.457031 34.25 307.484375 34.3125 C 307.511719 34.378906 307.554688 34.433594 307.605469 34.476562 C 307.65625 34.519531 307.71875 34.554688 307.789062 34.582031 C 307.859375 34.605469 307.949219 34.617188 308.050781 34.617188 C 308.238281 34.617188 308.382812 34.574219 308.484375 34.488281 C 308.59375 34.394531 308.648438 34.257812 308.648438 34.074219 C 308.648438 33.96875 308.621094 33.882812 308.570312 33.816406 C 308.527344 33.75 308.46875 33.707031 308.398438 33.675781 C 308.324219 33.640625 308.25 33.617188 308.171875 33.601562 C 308.089844 33.585938 308.011719 33.578125 307.941406 33.578125 L 307.734375 33.578125 L 307.734375 33.265625 L 307.929688 33.265625 C 308.003906 33.265625 308.074219 33.257812 308.148438 33.242188 C 308.226562 33.230469 308.296875 33.207031 308.355469 33.167969 C 308.421875 33.132812 308.46875 33.082031 308.507812 33.015625 C 308.550781 32.949219 308.570312 32.871094 308.570312 32.765625 C 308.570312 32.617188 308.523438 32.496094 308.429688 32.410156 C 308.34375 32.324219 308.207031 32.28125 308.027344 32.28125 C 307.867188 32.28125 307.738281 32.320312 307.636719 32.398438 C 307.535156 32.480469 307.476562 32.59375 307.464844 32.746094 L 307.09375 32.722656 C 307.109375 32.59375 307.140625 32.484375 307.191406 32.390625 C 307.25 32.296875 307.316406 32.222656 307.398438 32.160156 C 307.484375 32.097656 307.585938 32.050781 307.691406 32.019531 C 307.800781 31.996094 307.914062 31.976562 308.039062 31.976562 C 308.199219 31.976562 308.335938 32 308.453125 32.042969 C 308.566406 32.082031 308.660156 32.136719 308.734375 32.207031 C 308.804688 32.269531 308.855469 32.351562 308.886719 32.441406 C 308.921875 32.53125 308.941406 32.625 308.941406 32.734375 C 308.941406 32.816406 308.929688 32.894531 308.910156 32.972656 C 308.886719 33.046875 308.847656 33.109375 308.800781 33.167969 C 308.757812 33.226562 308.695312 33.277344 308.617188 33.320312 C 308.542969 33.355469 308.453125 33.382812 308.34375 33.40625 L 308.34375 33.414062 C 308.457031 33.433594 308.5625 33.460938 308.648438 33.503906 C 308.734375 33.539062 308.804688 33.585938 308.855469 33.644531 C 308.910156 33.703125 308.953125 33.769531 308.984375 33.847656 C 309.011719 33.921875 309.027344 34 309.027344 34.085938 Z M 309.027344 34.085938 "/>
<path style=" stroke:none;fill-rule:nonzero;fill:rgb(0%,0%,0%);fill-opacity:1;" d="M 287.640625 53.3125 C 287.425781 53.3125 287.230469 53.351562 287.066406 53.421875 C 286.898438 53.492188 286.757812 53.597656 286.644531 53.734375 C 286.535156 53.863281 286.449219 54.023438 286.394531 54.210938 C 286.332031 54.398438 286.304688 54.605469 286.304688 54.835938 C 286.304688 55.070312 286.332031 55.28125 286.394531 55.472656 C 286.457031 55.664062 286.546875 55.824219 286.664062 55.960938 C 286.777344 56.097656 286.917969 56.207031 287.089844 56.285156 C 287.261719 56.359375 287.453125 56.394531 287.664062 56.394531 C 287.816406 56.394531 287.949219 56.378906 288.066406 56.339844 C 288.1875 56.296875 288.296875 56.238281 288.402344 56.167969 C 288.503906 56.097656 288.589844 56.011719 288.664062 55.917969 C 288.742188 55.824219 288.808594 55.71875 288.867188 55.59375 L 289.292969 55.808594 C 289.226562 55.957031 289.144531 56.089844 289.042969 56.210938 C 288.9375 56.332031 288.820312 56.441406 288.683594 56.535156 C 288.546875 56.621094 288.390625 56.691406 288.21875 56.738281 C 288.042969 56.789062 287.851562 56.816406 287.640625 56.816406 C 287.328125 56.816406 287.058594 56.765625 286.828125 56.675781 C 286.59375 56.574219 286.398438 56.4375 286.242188 56.261719 C 286.089844 56.085938 285.972656 55.875 285.894531 55.636719 C 285.8125 55.394531 285.773438 55.125 285.773438 54.835938 C 285.773438 54.542969 285.8125 54.273438 285.894531 54.035156 C 285.980469 53.792969 286.101562 53.585938 286.261719 53.421875 C 286.421875 53.253906 286.617188 53.125 286.847656 53.03125 C 287.078125 52.9375 287.34375 52.890625 287.640625 52.890625 C 288.046875 52.890625 288.382812 52.972656 288.652344 53.128906 C 288.925781 53.289062 289.128906 53.527344 289.261719 53.84375 L 288.769531 54.003906 C 288.734375 53.910156 288.683594 53.824219 288.617188 53.746094 C 288.558594 53.65625 288.484375 53.585938 288.390625 53.527344 C 288.296875 53.464844 288.1875 53.414062 288.066406 53.375 C 287.941406 53.332031 287.800781 53.3125 287.640625 53.3125 Z M 287.640625 53.3125 "/>
<path style=" stroke:none;fill-rule:nonzero;fill:rgb(60.392157%,0%,100%);fill-opacity:1;" d="M 285.191406 54.75 C 285.046875 54.972656 284.914062 55.1875 284.792969 55.386719 C 284.675781 55.589844 284.574219 55.792969 284.488281 55.992188 C 284.402344 56.195312 284.328125 56.402344 284.28125 56.621094 C 284.238281 56.835938 284.214844 57.070312 284.214844 57.3125 L 283.824219 57.3125 C 283.824219 57.082031 283.847656 56.859375 283.902344 56.640625 C 283.957031 56.421875 284.035156 56.203125 284.128906 55.992188 C 284.222656 55.785156 284.328125 55.578125 284.453125 55.378906 C 284.578125 55.167969 284.707031 54.964844 284.84375 54.761719 L 283.304688 54.761719 L 283.304688 54.457031 L 285.191406 54.457031 Z M 285.191406 54.75 "/>
<path style=" stroke:none;fill-rule:nonzero;fill:rgb(60.392157%,0%,100%);fill-opacity:1;" d="M 323.261719 60.113281 L 323.261719 59.800781 L 324 59.800781 L 324 57.605469 L 323.347656 58.070312 L 323.347656 57.722656 L 324.023438 57.257812 L 324.367188 57.257812 L 324.367188 59.800781 L 325.0625 59.800781 L 325.0625 60.113281 Z M 323.261719 60.113281 "/>
<path style=" stroke:none;fill-rule:nonzero;fill:rgb(60.392157%,0%,100%);fill-opacity:1;" d="M 327.359375 58.683594 C 327.359375 58.960938 327.332031 59.191406 327.273438 59.378906 C 327.222656 59.566406 327.148438 59.71875 327.054688 59.832031 C 326.96875 59.949219 326.863281 60.03125 326.742188 60.082031 C 326.617188 60.128906 326.484375 60.15625 326.351562 60.15625 C 326.210938 60.15625 326.082031 60.128906 325.960938 60.082031 C 325.84375 60.03125 325.738281 59.949219 325.644531 59.832031 C 325.558594 59.71875 325.488281 59.566406 325.4375 59.378906 C 325.386719 59.191406 325.363281 58.960938 325.363281 58.683594 C 325.363281 58.398438 325.386719 58.160156 325.4375 57.972656 C 325.488281 57.785156 325.558594 57.632812 325.644531 57.519531 C 325.738281 57.402344 325.84375 57.324219 325.96875 57.28125 C 326.09375 57.238281 326.222656 57.214844 326.359375 57.214844 C 326.496094 57.214844 326.628906 57.238281 326.75 57.28125 C 326.875 57.324219 326.980469 57.402344 327.066406 57.519531 C 327.152344 57.632812 327.222656 57.785156 327.273438 57.972656 C 327.332031 58.160156 327.359375 58.398438 327.359375 58.683594 Z M 326.980469 58.683594 C 326.980469 58.457031 326.964844 58.265625 326.9375 58.113281 C 326.914062 57.960938 326.875 57.84375 326.816406 57.753906 C 326.765625 57.667969 326.699219 57.609375 326.621094 57.570312 C 326.546875 57.527344 326.460938 57.507812 326.359375 57.507812 C 326.257812 57.507812 326.167969 57.527344 326.089844 57.570312 C 326.007812 57.609375 325.941406 57.675781 325.894531 57.765625 C 325.84375 57.851562 325.800781 57.972656 325.773438 58.125 C 325.746094 58.269531 325.730469 58.457031 325.730469 58.683594 C 325.730469 58.902344 325.746094 59.085938 325.773438 59.238281 C 325.800781 59.386719 325.84375 59.511719 325.894531 59.605469 C 325.949219 59.691406 326.015625 59.753906 326.089844 59.800781 C 326.167969 59.835938 326.257812 59.851562 326.359375 59.851562 C 326.453125 59.851562 326.539062 59.835938 326.609375 59.800781 C 326.691406 59.753906 326.753906 59.691406 326.804688 59.605469 C 326.863281 59.511719 326.90625 59.386719 326.9375 59.238281 C 326.964844 59.085938 326.980469 58.902344 326.980469 58.683594 Z M 326.980469 58.683594 "/>
<path style=" stroke:none;fill-rule:nonzero;fill:rgb(60.392157%,0%,100%);fill-opacity:1;" d="M 284.472656 16.433594 L 284.472656 16.175781 C 284.542969 16.015625 284.625 15.878906 284.722656 15.761719 C 284.820312 15.640625 284.925781 15.53125 285.035156 15.429688 C 285.148438 15.328125 285.265625 15.238281 285.371094 15.15625 C 285.480469 15.070312 285.578125 14.992188 285.664062 14.910156 C 285.753906 14.824219 285.820312 14.734375 285.871094 14.640625 C 285.921875 14.546875 285.949219 14.441406 285.949219 14.324219 C 285.949219 14.246094 285.9375 14.179688 285.914062 14.121094 C 285.894531 14.054688 285.855469 14 285.808594 13.957031 C 285.761719 13.914062 285.707031 13.886719 285.644531 13.871094 C 285.578125 13.851562 285.503906 13.839844 285.425781 13.839844 C 285.351562 13.839844 285.285156 13.851562 285.21875 13.871094 C 285.15625 13.886719 285.09375 13.914062 285.046875 13.957031 C 284.996094 13.996094 284.953125 14.042969 284.925781 14.109375 C 284.898438 14.167969 284.875 14.234375 284.863281 14.316406 L 284.492188 14.28125 C 284.507812 14.183594 284.535156 14.085938 284.578125 14 C 284.625 13.910156 284.683594 13.828125 284.765625 13.761719 C 284.84375 13.691406 284.9375 13.640625 285.046875 13.601562 C 285.15625 13.558594 285.28125 13.535156 285.425781 13.535156 C 285.570312 13.535156 285.699219 13.554688 285.808594 13.589844 C 285.921875 13.621094 286.015625 13.671875 286.089844 13.742188 C 286.167969 13.804688 286.226562 13.890625 286.261719 13.988281 C 286.304688 14.085938 286.328125 14.191406 286.328125 14.316406 C 286.328125 14.417969 286.308594 14.507812 286.273438 14.59375 C 286.242188 14.683594 286.199219 14.765625 286.144531 14.84375 C 286.082031 14.917969 286.015625 14.992188 285.9375 15.070312 C 285.863281 15.144531 285.785156 15.21875 285.699219 15.289062 C 285.617188 15.351562 285.535156 15.421875 285.449219 15.492188 C 285.367188 15.558594 285.289062 15.628906 285.210938 15.699219 C 285.136719 15.761719 285.070312 15.832031 285.015625 15.902344 C 284.953125 15.976562 284.90625 16.050781 284.871094 16.121094 L 286.371094 16.121094 L 286.371094 16.433594 Z M 284.472656 16.433594 "/>
<path style=" stroke:none;fill-rule:nonzero;fill:rgb(60.392157%,0%,100%);fill-opacity:1;" d="M 305.945312 16.464844 L 305.945312 16.148438 L 306.683594 16.148438 L 306.683594 13.957031 L 306.035156 14.421875 L 306.035156 14.074219 L 306.707031 13.609375 L 307.054688 13.609375 L 307.054688 16.148438 L 307.75 16.148438 L 307.75 16.464844 Z M 305.945312 16.464844 "/>
<path style=" stroke:none;fill-rule:nonzero;fill:rgb(60.392157%,0%,100%);fill-opacity:1;" d="M 336.984375 69.136719 C 336.984375 69.390625 336.957031 69.613281 336.910156 69.808594 C 336.863281 69.996094 336.792969 70.152344 336.703125 70.285156 C 336.613281 70.40625 336.507812 70.5 336.375 70.566406 C 336.25 70.628906 336.109375 70.660156 335.953125 70.660156 C 335.84375 70.660156 335.742188 70.652344 335.648438 70.628906 C 335.5625 70.609375 335.480469 70.574219 335.410156 70.519531 C 335.34375 70.472656 335.285156 70.410156 335.234375 70.335938 C 335.191406 70.257812 335.152344 70.171875 335.117188 70.066406 L 335.476562 70.011719 C 335.511719 70.136719 335.566406 70.226562 335.648438 70.285156 C 335.726562 70.34375 335.828125 70.371094 335.953125 70.371094 C 336.054688 70.371094 336.144531 70.347656 336.222656 70.304688 C 336.3125 70.257812 336.382812 70.183594 336.441406 70.089844 C 336.5 69.996094 336.542969 69.878906 336.570312 69.742188 C 336.605469 69.601562 336.625 69.429688 336.625 69.234375 C 336.597656 69.300781 336.554688 69.359375 336.507812 69.40625 C 336.453125 69.460938 336.398438 69.503906 336.332031 69.539062 C 336.273438 69.574219 336.207031 69.601562 336.136719 69.625 C 336.0625 69.640625 335.988281 69.644531 335.910156 69.644531 C 335.777344 69.644531 335.660156 69.625 335.550781 69.582031 C 335.449219 69.53125 335.359375 69.46875 335.289062 69.386719 C 335.21875 69.300781 335.160156 69.199219 335.117188 69.082031 C 335.078125 68.960938 335.0625 68.828125 335.0625 68.683594 C 335.0625 68.53125 335.082031 68.398438 335.128906 68.285156 C 335.171875 68.160156 335.230469 68.0625 335.3125 67.980469 C 335.390625 67.894531 335.488281 67.828125 335.605469 67.785156 C 335.726562 67.742188 335.867188 67.722656 336.019531 67.722656 C 336.335938 67.722656 336.574219 67.839844 336.734375 68.078125 C 336.898438 68.308594 336.984375 68.660156 336.984375 69.136719 Z M 336.59375 68.78125 C 336.59375 68.671875 336.578125 68.574219 336.550781 68.476562 C 336.527344 68.386719 336.488281 68.304688 336.441406 68.238281 C 336.390625 68.167969 336.328125 68.117188 336.257812 68.078125 C 336.183594 68.035156 336.097656 68.011719 336.007812 68.011719 C 335.921875 68.011719 335.839844 68.03125 335.769531 68.066406 C 335.695312 68.097656 335.632812 68.140625 335.582031 68.195312 C 335.539062 68.257812 335.503906 68.328125 335.476562 68.414062 C 335.445312 68.496094 335.429688 68.582031 335.429688 68.683594 C 335.429688 68.777344 335.441406 68.867188 335.464844 68.953125 C 335.492188 69.035156 335.527344 69.105469 335.574219 69.171875 C 335.621094 69.230469 335.683594 69.277344 335.757812 69.308594 C 335.828125 69.339844 335.910156 69.355469 335.996094 69.355469 C 336.066406 69.355469 336.136719 69.34375 336.203125 69.320312 C 336.273438 69.300781 336.339844 69.265625 336.398438 69.222656 C 336.453125 69.175781 336.5 69.113281 336.539062 69.039062 C 336.574219 68.96875 336.59375 68.882812 336.59375 68.78125 Z M 336.59375 68.78125 "/>
<path style=" stroke:none;fill-rule:nonzero;fill:rgb(0%,0%,0%);fill-opacity:1;" d="M 332.417969 42.714844 C 332.417969 43.015625 332.375 43.285156 332.289062 43.527344 C 332.199219 43.773438 332.074219 43.980469 331.90625 44.15625 C 331.746094 44.328125 331.550781 44.460938 331.308594 44.554688 C 331.078125 44.648438 330.8125 44.695312 330.519531 44.695312 C 330.199219 44.695312 329.921875 44.648438 329.683594 44.554688 C 329.449219 44.453125 329.253906 44.316406 329.09375 44.144531 C 328.933594 43.964844 328.816406 43.753906 328.738281 43.515625 C 328.65625 43.273438 328.617188 43.007812 328.617188 42.714844 C 328.617188 42.421875 328.65625 42.15625 328.738281 41.917969 C 328.824219 41.671875 328.945312 41.46875 329.105469 41.300781 C 329.273438 41.136719 329.46875 41.003906 329.703125 40.910156 C 329.941406 40.820312 330.214844 40.769531 330.519531 40.769531 C 330.820312 40.769531 331.09375 40.820312 331.332031 40.910156 C 331.570312 41.003906 331.769531 41.136719 331.929688 41.3125 C 332.085938 41.480469 332.207031 41.679688 332.289062 41.917969 C 332.375 42.15625 332.417969 42.421875 332.417969 42.714844 Z M 331.886719 42.714844 C 331.886719 42.488281 331.855469 42.277344 331.800781 42.089844 C 331.738281 41.902344 331.652344 41.742188 331.539062 41.613281 C 331.421875 41.480469 331.277344 41.375 331.105469 41.300781 C 330.9375 41.230469 330.742188 41.191406 330.519531 41.191406 C 330.292969 41.191406 330.09375 41.230469 329.921875 41.300781 C 329.746094 41.375 329.601562 41.480469 329.484375 41.613281 C 329.378906 41.742188 329.292969 41.902344 329.238281 42.089844 C 329.175781 42.277344 329.148438 42.488281 329.148438 42.714844 C 329.148438 42.949219 329.175781 43.160156 329.238281 43.355469 C 329.292969 43.542969 329.378906 43.707031 329.496094 43.839844 C 329.609375 43.980469 329.753906 44.085938 329.921875 44.164062 C 330.09375 44.238281 330.292969 44.273438 330.519531 44.273438 C 330.757812 44.273438 330.964844 44.238281 331.136719 44.164062 C 331.308594 44.085938 331.453125 43.980469 331.558594 43.839844 C 331.667969 43.699219 331.746094 43.53125 331.800781 43.34375 C 331.855469 43.148438 331.886719 42.941406 331.886719 42.714844 Z M 331.886719 42.714844 "/>
<path style=" stroke:none;fill-rule:nonzero;fill:rgb(60.392157%,0%,100%);fill-opacity:1;" d="M 323.90625 45.191406 L 323.90625 44.878906 L 324.644531 44.878906 L 324.644531 42.683594 L 323.996094 43.148438 L 323.996094 42.804688 L 324.667969 42.339844 L 325.015625 42.339844 L 325.015625 44.878906 L 325.710938 44.878906 L 325.710938 45.191406 Z M 323.90625 45.191406 "/>
<path style=" stroke:none;fill-rule:nonzero;fill:rgb(60.392157%,0%,100%);fill-opacity:1;" d="M 327.636719 44.542969 L 327.636719 45.191406 L 327.289062 45.191406 L 327.289062 44.542969 L 325.941406 44.542969 L 325.941406 44.261719 L 327.257812 42.339844 L 327.636719 42.339844 L 327.636719 44.261719 L 328.039062 44.261719 L 328.039062 44.542969 Z M 327.289062 42.75 C 327.289062 42.757812 327.28125 42.769531 327.269531 42.792969 C 327.257812 42.808594 327.25 42.832031 327.234375 42.855469 C 327.21875 42.878906 327.207031 42.90625 327.191406 42.933594 C 327.175781 42.953125 327.164062 42.972656 327.160156 42.988281 L 326.421875 44.066406 C 326.414062 44.078125 326.402344 44.089844 326.386719 44.113281 C 326.378906 44.128906 326.371094 44.144531 326.355469 44.164062 C 326.339844 44.183594 326.324219 44.199219 326.3125 44.21875 C 326.296875 44.234375 326.285156 44.25 326.28125 44.261719 L 327.289062 44.261719 Z M 327.289062 42.75 "/>
<path style=" stroke:none;fill-rule:nonzero;fill:rgb(60.392157%,0%,100%);fill-opacity:1;" d="M 327.675781 88.355469 L 327.675781 88.042969 L 328.414062 88.042969 L 328.414062 85.847656 L 327.761719 86.3125 L 327.761719 85.964844 L 328.4375 85.5 L 328.78125 85.5 L 328.78125 88.042969 L 329.476562 88.042969 L 329.476562 88.355469 Z M 327.675781 88.355469 "/>
<path style=" stroke:none;fill-rule:nonzero;fill:rgb(60.392157%,0%,100%);fill-opacity:1;" d="M 329.929688 88.355469 L 329.929688 88.042969 L 330.667969 88.042969 L 330.667969 85.847656 L 330.015625 86.3125 L 330.015625 85.964844 L 330.6875 85.5 L 331.035156 85.5 L 331.035156 88.042969 L 331.730469 88.042969 L 331.730469 88.355469 Z M 329.929688 88.355469 "/>
<path style=" stroke:none;fill-rule:nonzero;fill:rgb(60.392157%,0%,100%);fill-opacity:1;" d="M 356.054688 62.589844 L 356.054688 62.277344 L 356.792969 62.277344 L 356.792969 60.082031 L 356.140625 60.546875 L 356.140625 60.203125 L 356.816406 59.738281 L 357.164062 59.738281 L 357.164062 62.277344 L 357.859375 62.277344 L 357.859375 62.589844 Z M 356.054688 62.589844 "/>
<path style=" stroke:none;fill-rule:nonzero;fill:rgb(60.392157%,0%,100%);fill-opacity:1;" d="M 358.199219 62.589844 L 358.199219 62.332031 C 358.269531 62.175781 358.355469 62.035156 358.449219 61.921875 C 358.550781 61.800781 358.65625 61.6875 358.765625 61.585938 C 358.878906 61.484375 358.992188 61.394531 359.101562 61.316406 C 359.207031 61.230469 359.308594 61.148438 359.394531 61.066406 C 359.480469 60.980469 359.546875 60.890625 359.601562 60.796875 C 359.648438 60.703125 359.675781 60.597656 359.675781 60.484375 C 359.675781 60.40625 359.664062 60.335938 359.644531 60.277344 C 359.621094 60.210938 359.582031 60.160156 359.535156 60.117188 C 359.492188 60.070312 359.4375 60.046875 359.371094 60.027344 C 359.308594 60.007812 359.234375 59.996094 359.15625 59.996094 C 359.082031 59.996094 359.011719 60.007812 358.949219 60.027344 C 358.882812 60.046875 358.824219 60.070312 358.773438 60.117188 C 358.722656 60.152344 358.683594 60.203125 358.65625 60.265625 C 358.625 60.324219 358.605469 60.394531 358.589844 60.472656 L 358.222656 60.441406 C 358.234375 60.339844 358.265625 60.246094 358.308594 60.160156 C 358.351562 60.066406 358.410156 59.984375 358.492188 59.921875 C 358.570312 59.851562 358.664062 59.796875 358.773438 59.757812 C 358.882812 59.714844 359.007812 59.695312 359.15625 59.695312 C 359.296875 59.695312 359.425781 59.710938 359.535156 59.746094 C 359.648438 59.777344 359.742188 59.828125 359.816406 59.898438 C 359.894531 59.964844 359.953125 60.046875 359.992188 60.148438 C 360.035156 60.242188 360.054688 60.351562 360.054688 60.472656 C 360.054688 60.574219 360.035156 60.667969 360 60.753906 C 359.972656 60.839844 359.929688 60.921875 359.871094 61 C 359.8125 61.074219 359.742188 61.152344 359.664062 61.230469 C 359.589844 61.300781 359.511719 61.375 359.425781 61.445312 C 359.34375 61.511719 359.261719 61.582031 359.175781 61.652344 C 359.09375 61.714844 359.015625 61.785156 358.9375 61.855469 C 358.863281 61.921875 358.800781 61.992188 358.742188 62.0625 C 358.683594 62.132812 358.636719 62.207031 358.601562 62.277344 L 360.097656 62.277344 L 360.097656 62.589844 Z M 358.199219 62.589844 "/>
<path style=" stroke:none;fill-rule:nonzero;fill:rgb(60.392157%,0%,100%);fill-opacity:1;" d="M 342.558594 104.917969 L 342.558594 104.605469 L 343.296875 104.605469 L 343.296875 102.410156 L 342.644531 102.875 L 342.644531 102.527344 L 343.316406 102.0625 L 343.664062 102.0625 L 343.664062 104.605469 L 344.359375 104.605469 L 344.359375 104.917969 Z M 342.558594 104.917969 "/>
<path style=" stroke:none;fill-rule:nonzero;fill:rgb(60.392157%,0%,100%);fill-opacity:1;" d="M 346.632812 103.988281 C 346.632812 104.132812 346.613281 104.265625 346.570312 104.390625 C 346.527344 104.503906 346.460938 104.605469 346.375 104.691406 C 346.292969 104.777344 346.1875 104.847656 346.058594 104.898438 C 345.933594 104.941406 345.789062 104.960938 345.625 104.960938 C 345.472656 104.960938 345.335938 104.941406 345.222656 104.90625 C 345.113281 104.871094 345.019531 104.828125 344.941406 104.765625 C 344.867188 104.703125 344.804688 104.632812 344.757812 104.550781 C 344.710938 104.464844 344.679688 104.375 344.65625 104.28125 L 345.039062 104.238281 C 345.050781 104.289062 345.070312 104.34375 345.09375 104.398438 C 345.121094 104.449219 345.15625 104.496094 345.199219 104.539062 C 345.25 104.578125 345.308594 104.605469 345.375 104.625 C 345.445312 104.648438 345.53125 104.660156 345.625 104.660156 C 345.726562 104.660156 345.8125 104.644531 345.886719 104.617188 C 345.964844 104.589844 346.027344 104.546875 346.082031 104.484375 C 346.136719 104.429688 346.179688 104.363281 346.210938 104.28125 C 346.238281 104.195312 346.253906 104.101562 346.253906 104 C 346.253906 103.90625 346.238281 103.824219 346.210938 103.75 C 346.1875 103.679688 346.148438 103.617188 346.089844 103.566406 C 346.039062 103.511719 345.976562 103.46875 345.894531 103.4375 C 345.824219 103.410156 345.734375 103.394531 345.636719 103.394531 C 345.574219 103.394531 345.519531 103.402344 345.472656 103.414062 C 345.421875 103.425781 345.371094 103.4375 345.320312 103.460938 C 345.277344 103.476562 345.238281 103.496094 345.199219 103.523438 C 345.164062 103.546875 345.128906 103.574219 345.101562 103.597656 L 344.746094 103.597656 L 344.84375 102.0625 L 346.472656 102.0625 L 346.472656 102.367188 L 345.179688 102.367188 L 345.125 103.273438 C 345.191406 103.226562 345.269531 103.183594 345.363281 103.144531 C 345.464844 103.109375 345.582031 103.089844 345.710938 103.089844 C 345.855469 103.089844 345.984375 103.113281 346.089844 103.15625 C 346.207031 103.199219 346.304688 103.261719 346.382812 103.339844 C 346.464844 103.421875 346.527344 103.519531 346.570312 103.632812 C 346.613281 103.738281 346.632812 103.859375 346.632812 103.988281 Z M 346.632812 103.988281 "/>
<path style="fill:none;stroke-width:0.0333333;stroke-linecap:butt;stroke-linejoin:miter;stroke:rgb(0%,0%,0%);stroke-opacity:1;stroke-miterlimit:10;" d="M 0.988968 1.785281 L 1.570832 2.423655 " transform="matrix(17.374101,0,0,17.298578,281.227731,17.062491)"/>
<path style="fill:none;stroke-width:0.0333333;stroke-linecap:butt;stroke-linejoin:miter;stroke:rgb(0%,0%,0%);stroke-opacity:1;stroke-miterlimit:10;" d="M 1.140055 2.322265 L 1.509453 1.985352 " transform="matrix(17.374101,0,0,17.298578,281.227731,17.062491)"/>
<path style="fill:none;stroke-width:0.0333333;stroke-linecap:butt;stroke-linejoin:miter;stroke:rgb(0%,0%,0%);stroke-opacity:1;stroke-miterlimit:10;" d="M 1.050122 2.223585 L 1.419745 1.886671 " transform="matrix(17.374101,0,0,17.298578,281.227731,17.062491)"/>
<path style="fill:none;stroke-width:0.0333333;stroke-linecap:butt;stroke-linejoin:miter;stroke:rgb(0%,0%,0%);stroke-opacity:1;stroke-miterlimit:10;" d="M 0.655767 1.489691 L -0.00951017 0.996515 " transform="matrix(17.374101,0,0,17.298578,281.227731,17.062491)"/>
<path style="fill:none;stroke-width:0.0333333;stroke-linecap:butt;stroke-linejoin:miter;stroke:rgb(0%,0%,0%);stroke-opacity:1;stroke-miterlimit:10;" d="M 0.418345 1.002612 L 0.120667 1.404334 " transform="matrix(17.374101,0,0,17.298578,281.227731,17.062491)"/>
<path style="fill:none;stroke-width:0.0333333;stroke-linecap:butt;stroke-linejoin:miter;stroke:rgb(0%,0%,0%);stroke-opacity:1;stroke-miterlimit:10;" d="M 0.525365 1.082098 L 0.227687 1.48382 " transform="matrix(17.374101,0,0,17.298578,281.227731,17.062491)"/>
<path style="fill:none;stroke-width:0.0333333;stroke-linecap:butt;stroke-linejoin:miter;stroke:rgb(0%,0%,0%);stroke-opacity:1;stroke-miterlimit:10;" d="M 1.162988 1.40885 L 1.72799 0.996515 " transform="matrix(17.374101,0,0,17.298578,281.227731,17.062491)"/>
<path style="fill:none;stroke-width:0.0333333;stroke-linecap:butt;stroke-linejoin:miter;stroke:rgb(0%,0%,0%);stroke-opacity:1;stroke-miterlimit:10;" d="M 1.646601 1.365494 L 1.352071 0.961514 " transform="matrix(17.374101,0,0,17.298578,281.227731,17.062491)"/>
<path style="fill:none;stroke-width:0.0333333;stroke-linecap:butt;stroke-linejoin:miter;stroke:rgb(0%,0%,0%);stroke-opacity:1;stroke-miterlimit:10;" d="M 1.539131 1.444077 L 1.244377 1.040097 " transform="matrix(17.374101,0,0,17.298578,281.227731,17.062491)"/>
<path style="fill:none;stroke-width:0.0333333;stroke-linecap:butt;stroke-linejoin:miter;stroke:rgb(0%,0%,0%);stroke-opacity:1;stroke-miterlimit:10;" d="M 0.633958 1.880574 L 0.504905 2.02532 " transform="matrix(17.374101,0,0,17.298578,281.227731,17.062491)"/>
<path style="fill:none;stroke-width:0.0333333;stroke-linecap:butt;stroke-linejoin:miter;stroke:rgb(0%,0%,0%);stroke-opacity:1;stroke-miterlimit:10;" d="M 1.554869 2.418687 L 2.614277 2.194003 " transform="matrix(17.374101,0,0,17.298578,281.227731,17.062491)"/>
<path style="fill:none;stroke-width:0.0333333;stroke-linecap:butt;stroke-linejoin:miter;stroke:rgb(0%,0%,0%);stroke-opacity:1;stroke-miterlimit:10;" d="M -0.00388937 1.015257 L 0.332234 -0.011516 " transform="matrix(17.374101,0,0,17.298578,281.227731,17.062491)"/>
<path style="fill:none;stroke-width:0.0333333;stroke-linecap:butt;stroke-linejoin:miter;stroke:rgb(0%,0%,0%);stroke-opacity:1;stroke-miterlimit:10;" d="M 1.722144 1.015257 L 1.386021 -0.011516 " transform="matrix(17.374101,0,0,17.298578,281.227731,17.062491)"/>
<path style="fill:none;stroke-width:0.0333333;stroke-linecap:butt;stroke-linejoin:miter;stroke:rgb(0%,0%,0%);stroke-opacity:1;stroke-miterlimit:10;" d="M 2.598538 2.189035 L 3.323621 2.98435 " transform="matrix(17.374101,0,0,17.298578,281.227731,17.062491)"/>
<path style="fill:none;stroke-width:0.0333333;stroke-linecap:butt;stroke-linejoin:miter;stroke:rgb(0%,0%,0%);stroke-opacity:1;stroke-miterlimit:10;" d="M 2.669585 2.266715 L 2.83731 1.752312 " transform="matrix(17.374101,0,0,17.298578,281.227731,17.062491)"/>
<path style="fill:none;stroke-width:0.0333333;stroke-linecap:butt;stroke-linejoin:miter;stroke:rgb(0%,0%,0%);stroke-opacity:1;stroke-miterlimit:10;" d="M 2.510854 2.215907 L 2.678803 1.700601 " transform="matrix(17.374101,0,0,17.298578,281.227731,17.062491)"/>
<path style="fill:none;stroke-width:0.0333333;stroke-linecap:butt;stroke-linejoin:miter;stroke:rgb(0%,0%,0%);stroke-opacity:1;stroke-miterlimit:10;" d="M 3.317101 2.97735 L 2.999638 4.001639 " transform="matrix(17.374101,0,0,17.298578,281.227731,17.062491)"/>
<path style="fill:none;stroke-width:0.0333333;stroke-linecap:butt;stroke-linejoin:miter;stroke:rgb(0%,0%,0%);stroke-opacity:1;stroke-miterlimit:10;" d="M 3.447503 3.119838 L 3.186923 3.960767 " transform="matrix(17.374101,0,0,17.298578,281.227731,17.062491)"/>
<path style="fill:none;stroke-width:0.0333333;stroke-linecap:butt;stroke-linejoin:miter;stroke:rgb(0%,0%,0%);stroke-opacity:1;stroke-miterlimit:10;" d="M 3.307883 2.979156 L 4.364817 2.754698 " transform="matrix(17.374101,0,0,17.298578,281.227731,17.062491)"/>
<path style="fill:none;stroke-width:0.0333333;stroke-linecap:butt;stroke-linejoin:miter;stroke:rgb(0%,0%,0%);stroke-opacity:1;stroke-miterlimit:10;" d="M 2.996266 3.985606 L 3.721124 4.794695 " transform="matrix(17.374101,0,0,17.298578,281.227731,17.062491)"/>
<path style="fill:none;stroke-width:0.0333333;stroke-linecap:butt;stroke-linejoin:miter;stroke:rgb(0%,0%,0%);stroke-opacity:1;stroke-miterlimit:10;" d="M 4.349079 2.749504 L 5.073936 3.556109 " transform="matrix(17.374101,0,0,17.298578,281.227731,17.062491)"/>
<path style="fill:none;stroke-width:0.0333333;stroke-linecap:butt;stroke-linejoin:miter;stroke:rgb(0%,0%,0%);stroke-opacity:1;stroke-miterlimit:10;" d="M 4.289498 2.932413 L 4.886427 3.596981 " transform="matrix(17.374101,0,0,17.298578,281.227731,17.062491)"/>
<path style="fill:none;stroke-width:0.0333333;stroke-linecap:butt;stroke-linejoin:miter;stroke:rgb(0%,0%,0%);stroke-opacity:1;stroke-miterlimit:10;" d="M 4.570088 3.369362 L 4.94196 3.035158 " transform="matrix(17.374101,0,0,17.298578,281.227731,17.062491)"/>
<path style="fill:none;stroke-width:0.0333333;stroke-linecap:butt;stroke-linejoin:miter;stroke:rgb(0%,0%,0%);stroke-opacity:1;stroke-miterlimit:10;" d="M 4.48083 3.270455 L 4.852927 2.936252 " transform="matrix(17.374101,0,0,17.298578,281.227731,17.062491)"/>
<path style="fill:none;stroke-width:0.0333333;stroke-linecap:butt;stroke-linejoin:miter;stroke:rgb(0%,0%,0%);stroke-opacity:1;stroke-miterlimit:10;" d="M 3.704936 4.789502 L 4.76232 4.551043 " transform="matrix(17.374101,0,0,17.298578,281.227731,17.062491)"/>
<path style="fill:none;stroke-width:0.0333333;stroke-linecap:butt;stroke-linejoin:miter;stroke:rgb(0%,0%,0%);stroke-opacity:1;stroke-miterlimit:10;" d="M 3.763842 4.605464 L 4.631917 4.409458 " transform="matrix(17.374101,0,0,17.298578,281.227731,17.062491)"/>
<path style="fill:none;stroke-width:0.0333333;stroke-linecap:butt;stroke-linejoin:miter;stroke:rgb(0%,0%,0%);stroke-opacity:1;stroke-miterlimit:10;" d="M 4.3538 4.899473 L 4.243633 4.411716 " transform="matrix(17.374101,0,0,17.298578,281.227731,17.062491)"/>
<path style="fill:none;stroke-width:0.0333333;stroke-linecap:butt;stroke-linejoin:miter;stroke:rgb(0%,0%,0%);stroke-opacity:1;stroke-miterlimit:10;" d="M 4.223623 4.928829 L 4.11368 4.441072 " transform="matrix(17.374101,0,0,17.298578,281.227731,17.062491)"/>
<path style="fill:none;stroke-width:0.0333333;stroke-linecap:butt;stroke-linejoin:miter;stroke:rgb(0%,0%,0%);stroke-opacity:1;stroke-miterlimit:10;" d="M 0.316271 0.000000499726 L 1.401984 0.000000499726 " transform="matrix(17.374101,0,0,17.298578,281.227731,17.062491)"/>
<path style="fill:none;stroke-width:0.0333333;stroke-linecap:butt;stroke-linejoin:miter;stroke:rgb(0%,0%,0%);stroke-opacity:1;stroke-miterlimit:10;" d="M 0.437231 0.166651 L 1.281024 0.166651 " transform="matrix(17.374101,0,0,17.298578,281.227731,17.062491)"/>
<path style="fill:none;stroke-width:0.0333333;stroke-linecap:butt;stroke-linejoin:miter;stroke:rgb(0%,0%,0%);stroke-opacity:1;stroke-miterlimit:10;" d="M 5.070339 3.540076 L 4.750179 4.562334 " transform="matrix(17.374101,0,0,17.298578,281.227731,17.062491)"/>
</g>
</svg>
