<?xml version="1.0" encoding="UTF-8"?>
<svg xmlns="http://www.w3.org/2000/svg" xmlns:xlink="http://www.w3.org/1999/xlink" width="292pt" height="116.8pt" viewBox="0 0 292 116.8" version="1.1">
<g id="surface737">
<path style=" stroke:none;fill-rule:nonzero;fill:rgb(0%,0%,0%);fill-opacity:1;" d="M 31.625 42.363281 C 31.625 42.523438 31.59375 42.671875 31.527344 42.804688 C 31.46875 42.9375 31.375 43.050781 31.246094 43.152344 C 31.113281 43.253906 30.945312 43.332031 30.746094 43.390625 C 30.550781 43.4375 30.316406 43.464844 30.050781 43.464844 C 29.574219 43.464844 29.203125 43.382812 28.9375 43.214844 C 28.667969 43.050781 28.496094 42.8125 28.425781 42.492188 L 28.9375 42.394531 C 28.957031 42.496094 28.992188 42.585938 29.042969 42.664062 C 29.101562 42.746094 29.175781 42.816406 29.261719 42.882812 C 29.347656 42.941406 29.457031 42.988281 29.585938 43.023438 C 29.722656 43.050781 29.882812 43.066406 30.0625 43.066406 C 30.21875 43.066406 30.363281 43.050781 30.484375 43.023438 C 30.617188 42.996094 30.726562 42.953125 30.824219 42.902344 C 30.914062 42.847656 30.988281 42.777344 31.039062 42.699219 C 31.089844 42.609375 31.113281 42.507812 31.113281 42.382812 C 31.113281 42.261719 31.085938 42.164062 31.027344 42.082031 C 30.96875 42.003906 30.890625 41.9375 30.789062 41.886719 C 30.6875 41.839844 30.566406 41.796875 30.421875 41.769531 C 30.273438 41.734375 30.117188 41.691406 29.945312 41.648438 C 29.835938 41.628906 29.726562 41.601562 29.617188 41.574219 C 29.515625 41.546875 29.414062 41.515625 29.316406 41.476562 C 29.210938 41.441406 29.121094 41.398438 29.035156 41.347656 C 28.945312 41.289062 28.871094 41.226562 28.804688 41.152344 C 28.746094 41.082031 28.699219 40.996094 28.664062 40.902344 C 28.625 40.804688 28.609375 40.691406 28.609375 40.566406 C 28.609375 40.390625 28.644531 40.234375 28.71875 40.101562 C 28.789062 39.972656 28.890625 39.871094 29.023438 39.789062 C 29.152344 39.703125 29.304688 39.644531 29.476562 39.605469 C 29.65625 39.5625 29.851562 39.539062 30.0625 39.539062 C 30.292969 39.539062 30.492188 39.5625 30.660156 39.605469 C 30.832031 39.644531 30.976562 39.699219 31.09375 39.769531 C 31.207031 39.839844 31.300781 39.929688 31.363281 40.039062 C 31.433594 40.144531 31.496094 40.273438 31.539062 40.417969 L 31.027344 40.515625 C 31 40.421875 30.957031 40.339844 30.910156 40.265625 C 30.867188 40.195312 30.804688 40.132812 30.726562 40.082031 C 30.652344 40.03125 30.558594 39.996094 30.441406 39.972656 C 30.335938 39.945312 30.203125 39.929688 30.050781 39.929688 C 29.878906 39.929688 29.730469 39.949219 29.609375 39.984375 C 29.484375 40.015625 29.386719 40.058594 29.316406 40.113281 C 29.242188 40.164062 29.1875 40.226562 29.152344 40.296875 C 29.121094 40.371094 29.109375 40.449219 29.109375 40.535156 C 29.109375 40.652344 29.136719 40.746094 29.195312 40.816406 C 29.253906 40.890625 29.328125 40.953125 29.421875 41 C 29.523438 41.050781 29.640625 41.09375 29.769531 41.128906 C 29.902344 41.160156 30.035156 41.191406 30.183594 41.214844 C 30.296875 41.246094 30.414062 41.277344 30.53125 41.304688 C 30.644531 41.332031 30.757812 41.363281 30.867188 41.398438 C 30.972656 41.4375 31.070312 41.484375 31.160156 41.539062 C 31.25 41.59375 31.332031 41.65625 31.398438 41.734375 C 31.46875 41.808594 31.523438 41.894531 31.558594 41.996094 C 31.601562 42.097656 31.625 42.21875 31.625 42.363281 Z M 31.625 42.363281 "/>
<path style=" stroke:none;fill-rule:nonzero;fill:rgb(0%,0%,0%);fill-opacity:1;" d="M 32.398438 39.863281 L 32.398438 39.398438 L 32.886719 39.398438 L 32.886719 39.863281 Z M 32.398438 43.410156 L 32.398438 40.480469 L 32.886719 40.480469 L 32.886719 43.410156 Z M 32.398438 43.410156 "/>
<path style=" stroke:none;fill-rule:nonzero;fill:rgb(0%,0%,0%);fill-opacity:1;" d="M 17.242188 47.761719 C 17.023438 47.761719 16.832031 47.796875 16.667969 47.867188 C 16.5 47.941406 16.359375 48.046875 16.246094 48.183594 C 16.136719 48.3125 16.050781 48.472656 15.996094 48.65625 C 15.9375 48.847656 15.910156 49.054688 15.910156 49.285156 C 15.910156 49.515625 15.9375 49.726562 15.996094 49.921875 C 16.058594 50.113281 16.148438 50.273438 16.265625 50.410156 C 16.378906 50.546875 16.519531 50.65625 16.6875 50.734375 C 16.863281 50.804688 17.050781 50.839844 17.265625 50.839844 C 17.414062 50.839844 17.546875 50.824219 17.664062 50.789062 C 17.785156 50.746094 17.898438 50.6875 18 50.613281 C 18.101562 50.542969 18.1875 50.460938 18.261719 50.367188 C 18.339844 50.273438 18.40625 50.164062 18.46875 50.042969 L 18.890625 50.257812 C 18.824219 50.402344 18.742188 50.535156 18.640625 50.65625 C 18.539062 50.78125 18.417969 50.890625 18.28125 50.980469 C 18.144531 51.070312 17.992188 51.140625 17.816406 51.1875 C 17.644531 51.234375 17.449219 51.261719 17.242188 51.261719 C 16.929688 51.261719 16.660156 51.214844 16.429688 51.121094 C 16.195312 51.023438 16 50.886719 15.84375 50.710938 C 15.691406 50.535156 15.574219 50.324219 15.496094 50.085938 C 15.414062 49.839844 15.378906 49.574219 15.378906 49.285156 C 15.378906 48.988281 15.414062 48.722656 15.496094 48.484375 C 15.582031 48.242188 15.707031 48.035156 15.863281 47.867188 C 16.023438 47.703125 16.21875 47.574219 16.449219 47.480469 C 16.679688 47.386719 16.945312 47.339844 17.242188 47.339844 C 17.644531 47.339844 17.980469 47.417969 18.25 47.578125 C 18.523438 47.734375 18.726562 47.972656 18.859375 48.289062 L 18.371094 48.453125 C 18.332031 48.359375 18.28125 48.273438 18.21875 48.191406 C 18.160156 48.105469 18.082031 48.035156 17.992188 47.976562 C 17.894531 47.910156 17.785156 47.863281 17.664062 47.824219 C 17.539062 47.78125 17.398438 47.761719 17.242188 47.761719 Z M 17.242188 47.761719 "/>
<path style=" stroke:none;fill-rule:nonzero;fill:rgb(0%,0%,0%);fill-opacity:1;" d="M 17.242188 31.988281 C 17.023438 31.988281 16.832031 32.027344 16.667969 32.097656 C 16.5 32.171875 16.359375 32.273438 16.246094 32.410156 C 16.136719 32.539062 16.050781 32.699219 15.996094 32.886719 C 15.9375 33.074219 15.910156 33.285156 15.910156 33.511719 C 15.910156 33.746094 15.9375 33.957031 15.996094 34.152344 C 16.058594 34.339844 16.148438 34.503906 16.265625 34.636719 C 16.378906 34.777344 16.519531 34.882812 16.6875 34.960938 C 16.863281 35.035156 17.050781 35.070312 17.265625 35.070312 C 17.414062 35.070312 17.546875 35.054688 17.664062 35.015625 C 17.785156 34.972656 17.898438 34.917969 18 34.84375 C 18.101562 34.773438 18.1875 34.6875 18.261719 34.59375 C 18.339844 34.503906 18.40625 34.394531 18.46875 34.269531 L 18.890625 34.488281 C 18.824219 34.632812 18.742188 34.765625 18.640625 34.886719 C 18.539062 35.011719 18.417969 35.117188 18.28125 35.210938 C 18.144531 35.296875 17.992188 35.367188 17.816406 35.417969 C 17.644531 35.464844 17.449219 35.492188 17.242188 35.492188 C 16.929688 35.492188 16.660156 35.441406 16.429688 35.351562 C 16.195312 35.25 16 35.113281 15.84375 34.941406 C 15.691406 34.761719 15.574219 34.550781 15.496094 34.3125 C 15.414062 34.070312 15.378906 33.800781 15.378906 33.511719 C 15.378906 33.21875 15.414062 32.949219 15.496094 32.714844 C 15.582031 32.46875 15.707031 32.265625 15.863281 32.097656 C 16.023438 31.933594 16.21875 31.800781 16.449219 31.707031 C 16.679688 31.617188 16.945312 31.566406 17.242188 31.566406 C 17.644531 31.566406 17.980469 31.648438 18.25 31.804688 C 18.523438 31.964844 18.726562 32.203125 18.859375 32.519531 L 18.371094 32.679688 C 18.332031 32.589844 18.28125 32.503906 18.21875 32.421875 C 18.160156 32.335938 18.082031 32.265625 17.992188 32.207031 C 17.894531 32.140625 17.785156 32.089844 17.664062 32.054688 C 17.539062 32.011719 17.398438 31.988281 17.242188 31.988281 Z M 17.242188 31.988281 "/>
<path style=" stroke:none;fill-rule:nonzero;fill:rgb(0%,0%,0%);fill-opacity:1;" d="M 30.765625 23.84375 C 30.546875 23.84375 30.355469 23.878906 30.191406 23.949219 C 30.023438 24.023438 29.882812 24.128906 29.769531 24.265625 C 29.660156 24.394531 29.574219 24.554688 29.519531 24.738281 C 29.457031 24.929688 29.433594 25.136719 29.433594 25.367188 C 29.433594 25.597656 29.457031 25.808594 29.519531 26.003906 C 29.582031 26.195312 29.671875 26.355469 29.789062 26.492188 C 29.902344 26.628906 30.042969 26.738281 30.210938 26.816406 C 30.386719 26.886719 30.574219 26.921875 30.789062 26.921875 C 30.9375 26.921875 31.070312 26.90625 31.1875 26.871094 C 31.308594 26.828125 31.421875 26.769531 31.523438 26.695312 C 31.625 26.625 31.710938 26.542969 31.785156 26.449219 C 31.863281 26.355469 31.929688 26.246094 31.992188 26.125 L 32.414062 26.339844 C 32.347656 26.484375 32.265625 26.617188 32.164062 26.738281 C 32.0625 26.863281 31.941406 26.972656 31.804688 27.0625 C 31.667969 27.152344 31.511719 27.222656 31.339844 27.269531 C 31.167969 27.316406 30.972656 27.34375 30.765625 27.34375 C 30.453125 27.34375 30.183594 27.296875 29.953125 27.203125 C 29.71875 27.105469 29.523438 26.96875 29.367188 26.792969 C 29.214844 26.617188 29.097656 26.40625 29.019531 26.167969 C 28.9375 25.921875 28.902344 25.65625 28.902344 25.367188 C 28.902344 25.070312 28.9375 24.804688 29.019531 24.566406 C 29.105469 24.324219 29.226562 24.117188 29.386719 23.949219 C 29.546875 23.785156 29.742188 23.65625 29.972656 23.5625 C 30.203125 23.46875 30.46875 23.421875 30.765625 23.421875 C 31.167969 23.421875 31.503906 23.5 31.773438 23.660156 C 32.046875 23.816406 32.25 24.054688 32.382812 24.371094 L 31.894531 24.535156 C 31.855469 24.441406 31.804688 24.355469 31.742188 24.273438 C 31.679688 24.1875 31.605469 24.117188 31.511719 24.058594 C 31.417969 23.992188 31.308594 23.945312 31.1875 23.90625 C 31.0625 23.863281 30.921875 23.84375 30.765625 23.84375 Z M 30.765625 23.84375 "/>
<path style=" stroke:none;fill-rule:nonzero;fill:rgb(0%,0%,0%);fill-opacity:1;" d="M 52.195312 76.363281 C 52.195312 76.523438 52.164062 76.671875 52.097656 76.804688 C 52.039062 76.933594 51.945312 77.050781 51.816406 77.152344 C 51.6875 77.253906 51.519531 77.332031 51.316406 77.390625 C 51.121094 77.4375 50.890625 77.464844 50.625 77.464844 C 50.144531 77.464844 49.773438 77.382812 49.507812 77.214844 C 49.238281 77.050781 49.066406 76.8125 48.996094 76.492188 L 49.507812 76.394531 C 49.527344 76.496094 49.5625 76.585938 49.613281 76.664062 C 49.671875 76.746094 49.746094 76.816406 49.832031 76.882812 C 49.917969 76.941406 50.027344 76.988281 50.15625 77.023438 C 50.292969 77.050781 50.453125 77.066406 50.632812 77.066406 C 50.792969 77.066406 50.933594 77.050781 51.058594 77.023438 C 51.1875 76.996094 51.296875 76.953125 51.394531 76.902344 C 51.484375 76.847656 51.558594 76.777344 51.609375 76.699219 C 51.660156 76.609375 51.6875 76.507812 51.6875 76.382812 C 51.6875 76.261719 51.65625 76.164062 51.597656 76.082031 C 51.539062 76.003906 51.460938 75.9375 51.359375 75.886719 C 51.257812 75.839844 51.136719 75.796875 50.992188 75.769531 C 50.84375 75.734375 50.6875 75.691406 50.515625 75.648438 C 50.40625 75.628906 50.296875 75.601562 50.191406 75.574219 C 50.085938 75.546875 49.988281 75.515625 49.886719 75.476562 C 49.78125 75.441406 49.691406 75.398438 49.605469 75.347656 C 49.515625 75.289062 49.441406 75.222656 49.375 75.152344 C 49.316406 75.082031 49.269531 74.996094 49.234375 74.902344 C 49.199219 74.804688 49.179688 74.691406 49.179688 74.566406 C 49.179688 74.390625 49.214844 74.234375 49.289062 74.101562 C 49.359375 73.972656 49.464844 73.871094 49.59375 73.789062 C 49.722656 73.703125 49.875 73.644531 50.046875 73.605469 C 50.226562 73.5625 50.421875 73.539062 50.632812 73.539062 C 50.863281 73.539062 51.0625 73.5625 51.230469 73.605469 C 51.402344 73.644531 51.546875 73.699219 51.664062 73.769531 C 51.777344 73.839844 51.871094 73.929688 51.933594 74.039062 C 52.003906 74.144531 52.066406 74.273438 52.109375 74.417969 L 51.597656 74.511719 C 51.570312 74.421875 51.527344 74.339844 51.480469 74.265625 C 51.4375 74.195312 51.375 74.132812 51.296875 74.082031 C 51.222656 74.03125 51.128906 73.996094 51.015625 73.972656 C 50.90625 73.945312 50.773438 73.929688 50.625 73.929688 C 50.449219 73.929688 50.300781 73.949219 50.179688 73.984375 C 50.054688 74.011719 49.957031 74.058594 49.886719 74.113281 C 49.8125 74.164062 49.757812 74.226562 49.722656 74.296875 C 49.695312 74.371094 49.679688 74.449219 49.679688 74.535156 C 49.679688 74.652344 49.707031 74.746094 49.765625 74.816406 C 49.824219 74.890625 49.898438 74.953125 49.996094 75 C 50.09375 75.050781 50.210938 75.09375 50.339844 75.128906 C 50.472656 75.160156 50.605469 75.1875 50.753906 75.214844 C 50.867188 75.246094 50.984375 75.277344 51.101562 75.304688 C 51.214844 75.332031 51.328125 75.363281 51.4375 75.398438 C 51.546875 75.4375 51.640625 75.484375 51.730469 75.539062 C 51.820312 75.59375 51.902344 75.65625 51.96875 75.734375 C 52.039062 75.808594 52.09375 75.894531 52.128906 75.996094 C 52.175781 76.097656 52.195312 76.21875 52.195312 76.363281 Z M 52.195312 76.363281 "/>
<path style=" stroke:none;fill-rule:nonzero;fill:rgb(0%,0%,0%);fill-opacity:1;" d="M 68.308594 75.488281 C 68.308594 75.785156 68.265625 76.054688 68.175781 76.296875 C 68.089844 76.542969 67.964844 76.75 67.796875 76.925781 C 67.636719 77.097656 67.441406 77.234375 67.203125 77.324219 C 66.96875 77.417969 66.707031 77.464844 66.410156 77.464844 C 66.089844 77.464844 65.8125 77.417969 65.574219 77.324219 C 65.34375 77.226562 65.148438 77.085938 64.988281 76.914062 C 64.828125 76.734375 64.710938 76.523438 64.632812 76.285156 C 64.550781 76.042969 64.511719 75.777344 64.511719 75.488281 C 64.511719 75.191406 64.550781 74.925781 64.632812 74.6875 C 64.71875 74.441406 64.839844 74.238281 65 74.070312 C 65.164062 73.90625 65.363281 73.777344 65.597656 73.679688 C 65.835938 73.589844 66.105469 73.539062 66.410156 73.539062 C 66.714844 73.539062 66.984375 73.589844 67.222656 73.679688 C 67.460938 73.777344 67.660156 73.90625 67.820312 74.082031 C 67.976562 74.25 68.097656 74.449219 68.175781 74.6875 C 68.265625 74.925781 68.308594 75.191406 68.308594 75.488281 Z M 67.777344 75.488281 C 67.777344 75.257812 67.746094 75.046875 67.6875 74.859375 C 67.628906 74.671875 67.542969 74.511719 67.429688 74.382812 C 67.3125 74.25 67.167969 74.144531 66.996094 74.070312 C 66.828125 74 66.632812 73.960938 66.410156 73.960938 C 66.183594 73.960938 65.988281 74 65.8125 74.070312 C 65.640625 74.144531 65.492188 74.25 65.378906 74.382812 C 65.273438 74.511719 65.1875 74.671875 65.128906 74.859375 C 65.070312 75.046875 65.042969 75.257812 65.042969 75.488281 C 65.042969 75.71875 65.070312 75.929688 65.128906 76.125 C 65.1875 76.3125 65.273438 76.476562 65.390625 76.609375 C 65.503906 76.75 65.644531 76.855469 65.8125 76.933594 C 65.988281 77.007812 66.183594 77.042969 66.410156 77.042969 C 66.648438 77.042969 66.855469 77.007812 67.027344 76.933594 C 67.203125 76.855469 67.34375 76.75 67.449219 76.609375 C 67.558594 76.46875 67.636719 76.304688 67.6875 76.113281 C 67.746094 75.917969 67.777344 75.710938 67.777344 75.488281 Z M 67.777344 75.488281 "/>
<path style=" stroke:none;fill-rule:nonzero;fill:rgb(0%,0%,0%);fill-opacity:1;" d="M 36.640625 75.488281 C 36.640625 75.785156 36.597656 76.054688 36.511719 76.296875 C 36.425781 76.542969 36.296875 76.75 36.132812 76.925781 C 35.972656 77.097656 35.773438 77.234375 35.535156 77.324219 C 35.304688 77.417969 35.039062 77.464844 34.746094 77.464844 C 34.425781 77.464844 34.148438 77.417969 33.910156 77.324219 C 33.675781 77.226562 33.480469 77.085938 33.324219 76.914062 C 33.164062 76.734375 33.046875 76.523438 32.964844 76.285156 C 32.886719 76.042969 32.847656 75.777344 32.847656 75.488281 C 32.847656 75.191406 32.886719 74.925781 32.964844 74.6875 C 33.054688 74.441406 33.175781 74.238281 33.335938 74.070312 C 33.5 73.90625 33.699219 73.777344 33.929688 73.679688 C 34.171875 73.589844 34.441406 73.539062 34.746094 73.539062 C 35.046875 73.539062 35.320312 73.589844 35.558594 73.679688 C 35.796875 73.777344 35.996094 73.90625 36.152344 74.082031 C 36.3125 74.25 36.429688 74.449219 36.511719 74.6875 C 36.597656 74.925781 36.640625 75.191406 36.640625 75.488281 Z M 36.109375 75.488281 C 36.109375 75.257812 36.082031 75.046875 36.023438 74.859375 C 35.964844 74.671875 35.878906 74.511719 35.765625 74.382812 C 35.648438 74.25 35.503906 74.144531 35.332031 74.070312 C 35.160156 74 34.96875 73.960938 34.746094 73.960938 C 34.519531 73.960938 34.320312 74 34.148438 74.070312 C 33.976562 74.144531 33.828125 74.25 33.714844 74.382812 C 33.605469 74.511719 33.523438 74.671875 33.464844 74.859375 C 33.40625 75.046875 33.378906 75.257812 33.378906 75.488281 C 33.378906 75.71875 33.40625 75.929688 33.464844 76.125 C 33.523438 76.3125 33.609375 76.476562 33.726562 76.609375 C 33.839844 76.75 33.980469 76.855469 34.148438 76.933594 C 34.320312 77.007812 34.519531 77.042969 34.746094 77.042969 C 34.984375 77.042969 35.1875 77.007812 35.363281 76.933594 C 35.535156 76.855469 35.675781 76.75 35.785156 76.609375 C 35.894531 76.46875 35.972656 76.304688 36.023438 76.113281 C 36.082031 75.917969 36.109375 75.710938 36.109375 75.488281 Z M 36.109375 75.488281 "/>
<path style=" stroke:none;fill-rule:nonzero;fill:rgb(0%,0%,0%);fill-opacity:1;" d="M 50.082031 90.085938 C 49.863281 90.085938 49.671875 90.121094 49.507812 90.191406 C 49.339844 90.265625 49.199219 90.371094 49.082031 90.507812 C 48.976562 90.636719 48.890625 90.796875 48.835938 90.980469 C 48.773438 91.171875 48.746094 91.378906 48.746094 91.609375 C 48.746094 91.84375 48.773438 92.054688 48.835938 92.246094 C 48.898438 92.4375 48.988281 92.597656 49.105469 92.734375 C 49.21875 92.871094 49.359375 92.980469 49.527344 93.058594 C 49.703125 93.132812 49.890625 93.167969 50.101562 93.167969 C 50.253906 93.167969 50.386719 93.148438 50.503906 93.113281 C 50.625 93.070312 50.738281 93.011719 50.839844 92.9375 C 50.941406 92.867188 51.027344 92.785156 51.101562 92.691406 C 51.179688 92.597656 51.246094 92.492188 51.304688 92.367188 L 51.730469 92.582031 C 51.664062 92.726562 51.582031 92.859375 51.480469 92.984375 C 51.375 93.105469 51.257812 93.214844 51.121094 93.308594 C 50.984375 93.394531 50.828125 93.464844 50.65625 93.511719 C 50.480469 93.5625 50.289062 93.589844 50.082031 93.589844 C 49.769531 93.589844 49.5 93.539062 49.269531 93.449219 C 49.035156 93.347656 48.839844 93.210938 48.683594 93.035156 C 48.53125 92.859375 48.414062 92.648438 48.335938 92.410156 C 48.253906 92.167969 48.214844 91.898438 48.214844 91.609375 C 48.214844 91.316406 48.253906 91.046875 48.335938 90.808594 C 48.421875 90.566406 48.542969 90.359375 48.703125 90.191406 C 48.863281 90.027344 49.054688 89.898438 49.289062 89.804688 C 49.519531 89.710938 49.78125 89.664062 50.082031 89.664062 C 50.484375 89.664062 50.820312 89.746094 51.089844 89.902344 C 51.363281 90.0625 51.566406 90.296875 51.695312 90.613281 L 51.207031 90.777344 C 51.171875 90.683594 51.121094 90.597656 51.058594 90.515625 C 50.996094 90.429688 50.921875 90.359375 50.828125 90.300781 C 50.734375 90.238281 50.625 90.1875 50.503906 90.148438 C 50.378906 90.105469 50.238281 90.085938 50.082031 90.085938 Z M 50.082031 90.085938 "/>
<path style=" stroke:none;fill-rule:nonzero;fill:rgb(0%,0%,0%);fill-opacity:1;" d="M 52.488281 93.535156 L 52.488281 89.523438 L 52.976562 89.523438 L 52.976562 93.535156 Z M 52.488281 93.535156 "/>
<path style="fill:none;stroke-width:0.0333333;stroke-linecap:butt;stroke-linejoin:miter;stroke:rgb(0%,0%,0%);stroke-opacity:1;stroke-miterlimit:10;" d="M 0.978969 1.039877 L 1.937523 1.578216 " transform="matrix(17.347909,0,0,17.298578,17.13412,25.382693)"/>
<path style="fill:none;stroke-width:0.0333333;stroke-linecap:butt;stroke-linejoin:miter;stroke:rgb(0%,0%,0%);stroke-opacity:1;stroke-miterlimit:10;" d="M 1.39396 1.5597 L 1.638721 1.123654 " transform="matrix(17.347909,0,0,17.298578,17.13412,25.382693)"/>
<path style="fill:none;stroke-width:0.0333333;stroke-linecap:butt;stroke-linejoin:miter;stroke:rgb(0%,0%,0%);stroke-opacity:1;stroke-miterlimit:10;" d="M 1.277546 1.49444 L 1.522533 1.058394 " transform="matrix(17.347909,0,0,17.298578,17.13412,25.382693)"/>
<path style="fill:none;stroke-width:0.0333333;stroke-linecap:butt;stroke-linejoin:miter;stroke:rgb(0%,0%,0%);stroke-opacity:1;stroke-miterlimit:10;" d="M 0.581317 1.043716 L 0.176009 1.279917 " transform="matrix(17.347909,0,0,17.298578,17.13412,25.382693)"/>
<path style="fill:none;stroke-width:0.0333333;stroke-linecap:butt;stroke-linejoin:miter;stroke:rgb(0%,0%,0%);stroke-opacity:1;stroke-miterlimit:10;" d="M 0.581542 0.811806 L 0.176009 0.57425 " transform="matrix(17.347909,0,0,17.298578,17.13412,25.382693)"/>
<path style="fill:none;stroke-width:0.0333333;stroke-linecap:butt;stroke-linejoin:miter;stroke:rgb(0%,0%,0%);stroke-opacity:1;stroke-miterlimit:10;" d="M 0.779693 0.767095 L 0.779693 0.156721 " transform="matrix(17.347909,0,0,17.298578,17.13412,25.382693)"/>
<path style="fill:none;stroke-width:0.0333333;stroke-linecap:butt;stroke-linejoin:miter;stroke:rgb(0%,0%,0%);stroke-opacity:1;stroke-miterlimit:10;" d="M 1.928967 1.563764 L 1.928967 2.740704 " transform="matrix(17.347909,0,0,17.298578,17.13412,25.382693)"/>
<path style="fill:none;stroke-width:0.0333333;stroke-linecap:butt;stroke-linejoin:miter;stroke:rgb(0%,0%,0%);stroke-opacity:1;stroke-miterlimit:10;" d="M 2.064294 2.980743 L 2.687794 2.980743 " transform="matrix(17.347909,0,0,17.298578,17.13412,25.382693)"/>
<path style="fill:none;stroke-width:0.0333333;stroke-linecap:butt;stroke-linejoin:miter;stroke:rgb(0%,0%,0%);stroke-opacity:1;stroke-miterlimit:10;" d="M 2.064294 2.814093 L 2.687794 2.814093 " transform="matrix(17.347909,0,0,17.298578,17.13412,25.382693)"/>
<path style="fill:none;stroke-width:0.0333333;stroke-linecap:butt;stroke-linejoin:miter;stroke:rgb(0%,0%,0%);stroke-opacity:1;stroke-miterlimit:10;" d="M 1.793413 2.814093 L 1.167888 2.814093 " transform="matrix(17.347909,0,0,17.298578,17.13412,25.382693)"/>
<path style="fill:none;stroke-width:0.0333333;stroke-linecap:butt;stroke-linejoin:miter;stroke:rgb(0%,0%,0%);stroke-opacity:1;stroke-miterlimit:10;" d="M 1.793413 2.980743 L 1.167888 2.980743 " transform="matrix(17.347909,0,0,17.298578,17.13412,25.382693)"/>
<path style="fill:none;stroke-width:0.0333333;stroke-linecap:butt;stroke-linejoin:miter;stroke:rgb(0%,0%,0%);stroke-opacity:1;stroke-miterlimit:10;" d="M 1.928967 3.054133 L 1.928967 3.664506 " transform="matrix(17.347909,0,0,17.298578,17.13412,25.382693)"/>
<path style="fill:none;stroke-width:0.0333333;stroke-linecap:butt;stroke-linejoin:miter;stroke:rgb(0%,0%,0%);stroke-opacity:1;stroke-miterlimit:10;" d="M 1.678801 3.426047 L 2.178907 3.426047 " transform="matrix(17.347909,0,0,17.298578,17.13412,25.382693)"/>
<path style="fill:none;stroke-width:0.0333333;stroke-linecap:butt;stroke-linejoin:miter;stroke:rgb(0%,0%,0%);stroke-opacity:1;stroke-miterlimit:10;" d="M 1.678801 3.292591 L 2.178907 3.292591 " transform="matrix(17.347909,0,0,17.298578,17.13412,25.382693)"/>
<path style="fill:none;stroke-width:0.0625;stroke-linecap:butt;stroke-linejoin:miter;stroke:rgb(0%,0%,0%);stroke-opacity:1;stroke-miterlimit:10;" d="M -0.0000741595 -0.0000256849 L 0.500031 -0.0000256849 M 0.250091 -0.250001 L 0.250091 0.24995 " transform="matrix(17.347909,0,0,17.298578,80.290349,58.469194)"/>
<path style=" stroke:none;fill-rule:nonzero;fill:rgb(0%,0%,0%);fill-opacity:1;" d="M 131.570312 54.875 L 129.519531 51.628906 C 129.527344 51.71875 129.53125 51.804688 129.53125 51.890625 C 129.539062 51.964844 129.542969 52.042969 129.542969 52.128906 C 129.546875 52.210938 129.554688 52.28125 129.554688 52.34375 L 129.554688 54.875 L 129.085938 54.875 L 129.085938 51.070312 L 129.695312 51.070312 L 131.753906 54.332031 C 131.753906 54.332031 131.75 54.246094 131.742188 54.0625 C 131.734375 53.992188 131.726562 53.910156 131.722656 53.824219 C 131.722656 53.734375 131.722656 53.648438 131.722656 53.566406 L 131.722656 51.070312 L 132.1875 51.070312 L 132.1875 54.875 Z M 131.570312 54.875 "/>
<path style=" stroke:none;fill-rule:nonzero;fill:rgb(0%,0%,0%);fill-opacity:1;" d="M 111.871094 24.648438 C 111.871094 24.945312 111.828125 25.214844 111.738281 25.457031 C 111.652344 25.703125 111.523438 25.914062 111.359375 26.085938 C 111.199219 26.257812 111.003906 26.394531 110.765625 26.484375 C 110.53125 26.578125 110.269531 26.625 109.972656 26.625 C 109.652344 26.625 109.375 26.578125 109.136719 26.484375 C 108.902344 26.386719 108.710938 26.246094 108.550781 26.074219 C 108.390625 25.898438 108.273438 25.6875 108.195312 25.449219 C 108.113281 25.203125 108.074219 24.9375 108.074219 24.648438 C 108.074219 24.351562 108.113281 24.085938 108.195312 23.847656 C 108.28125 23.605469 108.402344 23.398438 108.5625 23.230469 C 108.726562 23.066406 108.925781 22.9375 109.160156 22.84375 C 109.398438 22.75 109.667969 22.703125 109.972656 22.703125 C 110.277344 22.703125 110.546875 22.75 110.785156 22.84375 C 111.023438 22.9375 111.222656 23.070312 111.382812 23.242188 C 111.539062 23.410156 111.65625 23.609375 111.738281 23.847656 C 111.828125 24.085938 111.871094 24.351562 111.871094 24.648438 Z M 111.339844 24.648438 C 111.339844 24.417969 111.308594 24.210938 111.25 24.019531 C 111.191406 23.835938 111.105469 23.675781 110.992188 23.546875 C 110.875 23.410156 110.730469 23.304688 110.558594 23.230469 C 110.390625 23.160156 110.195312 23.125 109.972656 23.125 C 109.746094 23.125 109.550781 23.160156 109.375 23.230469 C 109.203125 23.304688 109.054688 23.410156 108.941406 23.546875 C 108.832031 23.675781 108.75 23.835938 108.691406 24.019531 C 108.632812 24.210938 108.605469 24.417969 108.605469 24.648438 C 108.605469 24.878906 108.632812 25.089844 108.691406 25.285156 C 108.75 25.476562 108.835938 25.636719 108.953125 25.773438 C 109.066406 25.910156 109.207031 26.019531 109.375 26.097656 C 109.550781 26.167969 109.746094 26.203125 109.972656 26.203125 C 110.210938 26.203125 110.417969 26.167969 110.589844 26.097656 C 110.765625 26.019531 110.90625 25.910156 111.011719 25.773438 C 111.121094 25.628906 111.199219 25.464844 111.25 25.273438 C 111.308594 25.082031 111.339844 24.871094 111.339844 24.648438 Z M 111.339844 24.648438 "/>
<path style="fill:none;stroke-width:0.0333333;stroke-linecap:butt;stroke-linejoin:miter;stroke:rgb(0%,0%,0%);stroke-opacity:1;stroke-miterlimit:10;" d="M 2.208995 2.57954 L 1.721499 1.912036 " transform="matrix(17.347909,0,0,17.298578,102.842626,22.72137)"/>
<path style="fill:none;stroke-width:0.0333333;stroke-linecap:butt;stroke-linejoin:miter;stroke:rgb(0%,0%,0%);stroke-opacity:1;stroke-miterlimit:10;" d="M 2.195484 2.572992 L 3.230596 2.572992 " transform="matrix(17.347909,0,0,17.298578,102.842626,22.72137)"/>
<path style="fill:none;stroke-width:0.0333333;stroke-linecap:butt;stroke-linejoin:miter;stroke:rgb(0%,0%,0%);stroke-opacity:1;stroke-miterlimit:10;" d="M 2.204041 2.572992 L 1.889477 3.54286 " transform="matrix(17.347909,0,0,17.298578,102.842626,22.72137)"/>
<path style="fill:none;stroke-width:0.0333333;stroke-linecap:butt;stroke-linejoin:miter;stroke:rgb(0%,0%,0%);stroke-opacity:1;stroke-miterlimit:10;" d="M 2.324958 2.739416 L 2.084925 3.48031 " transform="matrix(17.347909,0,0,17.298578,102.842626,22.72137)"/>
<path style="fill:none;stroke-width:0.0333333;stroke-linecap:butt;stroke-linejoin:miter;stroke:rgb(0%,0%,0%);stroke-opacity:1;stroke-miterlimit:10;" d="M 1.808865 2.980811 L 2.284427 3.135041 " transform="matrix(17.347909,0,0,17.298578,102.842626,22.72137)"/>
<path style="fill:none;stroke-width:0.0333333;stroke-linecap:butt;stroke-linejoin:miter;stroke:rgb(0%,0%,0%);stroke-opacity:1;stroke-miterlimit:10;" d="M 1.684571 1.571961 L 2.03156 0.827455 " transform="matrix(17.347909,0,0,17.298578,102.842626,22.72137)"/>
<path style="fill:none;stroke-width:0.0333333;stroke-linecap:butt;stroke-linejoin:miter;stroke:rgb(0%,0%,0%);stroke-opacity:1;stroke-miterlimit:10;" d="M 1.458499 1.76458 L 0.579881 1.861905 " transform="matrix(17.347909,0,0,17.298578,102.842626,22.72137)"/>
<path style="fill:none;stroke-width:0.0333333;stroke-linecap:butt;stroke-linejoin:miter;stroke:rgb(0%,0%,0%);stroke-opacity:1;stroke-miterlimit:10;" d="M 3.214835 2.561249 L 3.533227 3.54286 " transform="matrix(17.347909,0,0,17.298578,102.842626,22.72137)"/>
<path style="fill:none;stroke-width:0.0333333;stroke-linecap:butt;stroke-linejoin:miter;stroke:rgb(0%,0%,0%);stroke-opacity:1;stroke-miterlimit:10;" d="M 1.883397 3.524343 L 2.714954 4.140362 " transform="matrix(17.347909,0,0,17.298578,102.842626,22.72137)"/>
<path style="fill:none;stroke-width:0.0333333;stroke-linecap:butt;stroke-linejoin:miter;stroke:rgb(0%,0%,0%);stroke-opacity:1;stroke-miterlimit:10;" d="M 2.033136 0.844165 L 1.42022 -0.00782909 " transform="matrix(17.347909,0,0,17.298578,102.842626,22.72137)"/>
<path style="fill:none;stroke-width:0.0333333;stroke-linecap:butt;stroke-linejoin:miter;stroke:rgb(0%,0%,0%);stroke-opacity:1;stroke-miterlimit:10;" d="M 0.595192 1.868906 L -0.00556446 1.029106 " transform="matrix(17.347909,0,0,17.298578,102.842626,22.72137)"/>
<path style="fill:none;stroke-width:0.0333333;stroke-linecap:butt;stroke-linejoin:miter;stroke:rgb(0%,0%,0%);stroke-opacity:1;stroke-miterlimit:10;" d="M 1.435531 -0.00105469 L 0.574702 0.0942385 " transform="matrix(17.347909,0,0,17.298578,102.842626,22.72137)"/>
<path style="fill:none;stroke-width:0.0333333;stroke-linecap:butt;stroke-linejoin:miter;stroke:rgb(0%,0%,0%);stroke-opacity:1;stroke-miterlimit:10;" d="M 3.539306 3.524343 L 2.695364 4.140362 " transform="matrix(17.347909,0,0,17.298578,102.842626,22.72137)"/>
<path style="fill:none;stroke-width:0.0333333;stroke-linecap:butt;stroke-linejoin:miter;stroke:rgb(0%,0%,0%);stroke-opacity:1;stroke-miterlimit:10;" d="M -0.00376309 1.045364 L 0.327689 0.299955 " transform="matrix(17.347909,0,0,17.298578,102.842626,22.72137)"/>
<path style=" stroke:none;fill-rule:nonzero;fill:rgb(0%,0%,0%);fill-opacity:1;" d="M 177.949219 59.011719 L 199.632812 59.011719 L 199.632812 60.632812 L 203.972656 58.46875 L 199.632812 56.308594 L 199.632812 57.929688 L 177.949219 57.929688 "/>
<path style=" stroke:none;fill-rule:nonzero;fill:rgb(0%,0%,0%);fill-opacity:1;" d="M 245.957031 54.035156 L 243.910156 50.792969 C 243.914062 50.878906 243.917969 50.964844 243.917969 51.050781 C 243.925781 51.125 243.929688 51.203125 243.929688 51.289062 C 243.9375 51.371094 243.941406 51.441406 243.941406 51.507812 L 243.941406 54.035156 L 243.476562 54.035156 L 243.476562 50.230469 L 244.082031 50.230469 L 246.140625 53.496094 C 246.140625 53.496094 246.136719 53.40625 246.132812 53.226562 C 246.125 53.15625 246.117188 53.074219 246.109375 52.988281 C 246.109375 52.894531 246.109375 52.808594 246.109375 52.726562 L 246.109375 50.230469 L 246.574219 50.230469 L 246.574219 54.035156 Z M 245.957031 54.035156 "/>
<path style=" stroke:none;fill-rule:nonzero;fill:rgb(0%,0%,0%);fill-opacity:1;" d="M 264.285156 88.039062 C 264.285156 88.199219 264.253906 88.347656 264.1875 88.480469 C 264.128906 88.613281 264.035156 88.726562 263.90625 88.828125 C 263.773438 88.929688 263.605469 89.007812 263.40625 89.066406 C 263.210938 89.113281 262.976562 89.140625 262.710938 89.140625 C 262.234375 89.140625 261.859375 89.0625 261.59375 88.894531 C 261.328125 88.726562 261.15625 88.488281 261.085938 88.167969 L 261.59375 88.070312 C 261.617188 88.175781 261.652344 88.261719 261.703125 88.339844 C 261.761719 88.421875 261.835938 88.492188 261.921875 88.558594 C 262.007812 88.617188 262.117188 88.664062 262.246094 88.699219 C 262.382812 88.726562 262.542969 88.742188 262.722656 88.742188 C 262.878906 88.742188 263.019531 88.726562 263.144531 88.699219 C 263.277344 88.671875 263.386719 88.632812 263.480469 88.578125 C 263.574219 88.523438 263.648438 88.457031 263.699219 88.375 C 263.746094 88.289062 263.773438 88.183594 263.773438 88.0625 C 263.773438 87.9375 263.746094 87.839844 263.6875 87.757812 C 263.628906 87.679688 263.550781 87.613281 263.449219 87.5625 C 263.347656 87.515625 263.226562 87.472656 263.082031 87.445312 C 262.933594 87.410156 262.777344 87.367188 262.605469 87.324219 C 262.496094 87.304688 262.386719 87.28125 262.277344 87.25 C 262.175781 87.222656 262.074219 87.191406 261.976562 87.152344 C 261.871094 87.117188 261.78125 87.074219 261.691406 87.023438 C 261.605469 86.964844 261.53125 86.902344 261.464844 86.828125 C 261.40625 86.757812 261.359375 86.675781 261.324219 86.578125 C 261.285156 86.480469 261.269531 86.367188 261.269531 86.246094 C 261.269531 86.066406 261.304688 85.910156 261.378906 85.78125 C 261.449219 85.648438 261.550781 85.546875 261.683594 85.464844 C 261.8125 85.378906 261.964844 85.320312 262.136719 85.28125 C 262.316406 85.238281 262.511719 85.21875 262.722656 85.21875 C 262.953125 85.21875 263.152344 85.238281 263.320312 85.28125 C 263.492188 85.320312 263.636719 85.375 263.753906 85.445312 C 263.867188 85.515625 263.960938 85.605469 264.023438 85.714844 C 264.09375 85.824219 264.15625 85.949219 264.199219 86.09375 L 263.6875 86.191406 C 263.660156 86.097656 263.617188 86.015625 263.570312 85.941406 C 263.527344 85.871094 263.464844 85.808594 263.382812 85.757812 C 263.3125 85.710938 263.214844 85.671875 263.101562 85.648438 C 262.996094 85.621094 262.863281 85.605469 262.710938 85.605469 C 262.539062 85.605469 262.390625 85.625 262.269531 85.660156 C 262.144531 85.691406 262.046875 85.734375 261.976562 85.789062 C 261.902344 85.839844 261.847656 85.902344 261.8125 85.972656 C 261.78125 86.046875 261.769531 86.125 261.769531 86.210938 C 261.769531 86.328125 261.796875 86.421875 261.855469 86.492188 C 261.914062 86.566406 261.988281 86.628906 262.082031 86.675781 C 262.183594 86.726562 262.300781 86.769531 262.429688 86.804688 C 262.5625 86.835938 262.695312 86.867188 262.84375 86.894531 C 262.957031 86.921875 263.074219 86.953125 263.191406 86.980469 C 263.304688 87.007812 263.417969 87.042969 263.527344 87.078125 C 263.632812 87.113281 263.730469 87.160156 263.816406 87.21875 C 263.910156 87.269531 263.992188 87.332031 264.058594 87.410156 C 264.128906 87.484375 264.179688 87.570312 264.21875 87.671875 C 264.261719 87.773438 264.285156 87.894531 264.285156 88.039062 Z M 264.285156 88.039062 "/>
<path style=" stroke:none;fill-rule:nonzero;fill:rgb(0%,0%,0%);fill-opacity:1;" d="M 276.902344 87.335938 C 276.902344 87.632812 276.859375 87.902344 276.773438 88.148438 C 276.6875 88.394531 276.558594 88.601562 276.394531 88.773438 C 276.234375 88.945312 276.035156 89.082031 275.796875 89.175781 C 275.5625 89.265625 275.300781 89.316406 275.003906 89.316406 C 274.683594 89.316406 274.410156 89.265625 274.171875 89.175781 C 273.9375 89.074219 273.742188 88.9375 273.585938 88.761719 C 273.425781 88.585938 273.304688 88.375 273.226562 88.136719 C 273.144531 87.894531 273.109375 87.625 273.109375 87.335938 C 273.109375 87.042969 273.144531 86.773438 273.226562 86.535156 C 273.3125 86.292969 273.4375 86.085938 273.59375 85.917969 C 273.761719 85.753906 273.957031 85.625 274.191406 85.53125 C 274.429688 85.4375 274.703125 85.390625 275.003906 85.390625 C 275.308594 85.390625 275.578125 85.4375 275.816406 85.53125 C 276.058594 85.625 276.253906 85.757812 276.414062 85.929688 C 276.570312 86.097656 276.691406 86.296875 276.773438 86.535156 C 276.859375 86.773438 276.902344 87.042969 276.902344 87.335938 Z M 276.371094 87.335938 C 276.371094 87.105469 276.339844 86.898438 276.285156 86.710938 C 276.226562 86.523438 276.136719 86.363281 276.023438 86.234375 C 275.90625 86.097656 275.765625 85.992188 275.589844 85.917969 C 275.421875 85.847656 275.226562 85.8125 275.003906 85.8125 C 274.78125 85.8125 274.582031 85.847656 274.410156 85.917969 C 274.234375 85.992188 274.089844 86.097656 273.976562 86.234375 C 273.867188 86.363281 273.78125 86.523438 273.726562 86.710938 C 273.664062 86.898438 273.640625 87.105469 273.640625 87.335938 C 273.640625 87.570312 273.664062 87.78125 273.726562 87.972656 C 273.78125 88.164062 273.871094 88.324219 273.984375 88.460938 C 274.101562 88.597656 274.242188 88.707031 274.410156 88.785156 C 274.582031 88.859375 274.78125 88.894531 275.003906 88.894531 C 275.242188 88.894531 275.449219 88.859375 275.621094 88.785156 C 275.796875 88.707031 275.9375 88.597656 276.046875 88.460938 C 276.15625 88.316406 276.234375 88.152344 276.285156 87.964844 C 276.339844 87.769531 276.371094 87.558594 276.371094 87.335938 Z M 276.371094 87.335938 "/>
<path style=" stroke:none;fill-rule:nonzero;fill:rgb(0%,0%,0%);fill-opacity:1;" d="M 264.582031 99.789062 C 264.582031 100.085938 264.539062 100.355469 264.453125 100.597656 C 264.367188 100.84375 264.238281 101.054688 264.074219 101.226562 C 263.914062 101.398438 263.714844 101.535156 263.476562 101.625 C 263.242188 101.71875 262.980469 101.765625 262.683594 101.765625 C 262.367188 101.765625 262.089844 101.71875 261.851562 101.625 C 261.617188 101.527344 261.421875 101.386719 261.265625 101.214844 C 261.105469 101.039062 260.984375 100.828125 260.90625 100.589844 C 260.824219 100.34375 260.789062 100.078125 260.789062 99.789062 C 260.789062 99.492188 260.824219 99.226562 260.90625 98.988281 C 260.992188 98.746094 261.117188 98.539062 261.277344 98.371094 C 261.441406 98.207031 261.640625 98.078125 261.871094 97.984375 C 262.109375 97.890625 262.382812 97.84375 262.683594 97.84375 C 262.988281 97.84375 263.261719 97.890625 263.5 97.984375 C 263.738281 98.078125 263.933594 98.210938 264.09375 98.382812 C 264.253906 98.550781 264.371094 98.75 264.453125 98.988281 C 264.539062 99.226562 264.582031 99.492188 264.582031 99.789062 Z M 264.050781 99.789062 C 264.050781 99.558594 264.023438 99.351562 263.964844 99.160156 C 263.90625 98.976562 263.816406 98.816406 263.703125 98.6875 C 263.589844 98.550781 263.445312 98.445312 263.269531 98.371094 C 263.101562 98.300781 262.90625 98.265625 262.683594 98.265625 C 262.460938 98.265625 262.261719 98.300781 262.089844 98.371094 C 261.914062 98.445312 261.769531 98.550781 261.65625 98.6875 C 261.546875 98.816406 261.460938 98.976562 261.40625 99.160156 C 261.347656 99.351562 261.320312 99.558594 261.320312 99.789062 C 261.320312 100.019531 261.347656 100.230469 261.40625 100.425781 C 261.460938 100.617188 261.550781 100.777344 261.667969 100.914062 C 261.78125 101.050781 261.921875 101.160156 262.089844 101.238281 C 262.261719 101.308594 262.460938 101.34375 262.683594 101.34375 C 262.921875 101.34375 263.128906 101.308594 263.304688 101.238281 C 263.476562 101.160156 263.617188 101.050781 263.726562 100.914062 C 263.835938 100.769531 263.914062 100.605469 263.964844 100.414062 C 264.023438 100.222656 264.050781 100.011719 264.050781 99.789062 Z M 264.050781 99.789062 "/>
<path style=" stroke:none;fill-rule:nonzero;fill:rgb(0%,0%,0%);fill-opacity:1;" d="M 246.921875 17.113281 C 246.921875 17.410156 246.878906 17.683594 246.792969 17.925781 C 246.707031 18.171875 246.578125 18.378906 246.414062 18.550781 C 246.253906 18.726562 246.054688 18.859375 245.816406 18.953125 C 245.585938 19.042969 245.320312 19.09375 245.027344 19.09375 C 244.707031 19.09375 244.429688 19.042969 244.191406 18.953125 C 243.957031 18.851562 243.761719 18.714844 243.605469 18.542969 C 243.445312 18.363281 243.324219 18.152344 243.246094 17.914062 C 243.167969 17.671875 243.128906 17.402344 243.128906 17.113281 C 243.128906 16.820312 243.167969 16.550781 243.246094 16.316406 C 243.335938 16.070312 243.457031 15.867188 243.617188 15.699219 C 243.78125 15.535156 243.980469 15.402344 244.210938 15.308594 C 244.449219 15.21875 244.722656 15.167969 245.027344 15.167969 C 245.328125 15.167969 245.601562 15.21875 245.839844 15.308594 C 246.078125 15.402344 246.273438 15.535156 246.433594 15.710938 C 246.59375 15.875 246.710938 16.078125 246.792969 16.316406 C 246.878906 16.550781 246.921875 16.820312 246.921875 17.113281 Z M 246.390625 17.113281 C 246.390625 16.886719 246.363281 16.675781 246.304688 16.488281 C 246.246094 16.300781 246.160156 16.140625 246.042969 16.011719 C 245.929688 15.875 245.785156 15.769531 245.609375 15.699219 C 245.441406 15.628906 245.246094 15.589844 245.027344 15.589844 C 244.800781 15.589844 244.601562 15.628906 244.429688 15.699219 C 244.253906 15.769531 244.109375 15.875 243.996094 16.011719 C 243.886719 16.140625 243.804688 16.300781 243.746094 16.488281 C 243.6875 16.675781 243.660156 16.886719 243.660156 17.113281 C 243.660156 17.347656 243.6875 17.558594 243.746094 17.753906 C 243.804688 17.941406 243.890625 18.105469 244.007812 18.238281 C 244.121094 18.378906 244.261719 18.484375 244.429688 18.5625 C 244.601562 18.636719 244.800781 18.671875 245.027344 18.671875 C 245.265625 18.671875 245.46875 18.636719 245.644531 18.5625 C 245.816406 18.484375 245.957031 18.378906 246.066406 18.238281 C 246.175781 18.097656 246.253906 17.929688 246.304688 17.742188 C 246.363281 17.546875 246.390625 17.339844 246.390625 17.113281 Z M 246.390625 17.113281 "/>
<path style="fill:none;stroke-width:0.0333333;stroke-linecap:butt;stroke-linejoin:miter;stroke:rgb(0%,0%,0%);stroke-opacity:1;stroke-miterlimit:10;" d="M 1.56661 3.041323 L 1.56661 4.05929 " transform="matrix(17.347909,0,0,17.298578,217.849931,17.131616)"/>
<path style="fill:none;stroke-width:0.0333333;stroke-linecap:butt;stroke-linejoin:miter;stroke:rgb(0%,0%,0%);stroke-opacity:1;stroke-miterlimit:10;" d="M 1.316445 3.550307 L 1.81655 3.550307 " transform="matrix(17.347909,0,0,17.298578,217.849931,17.131616)"/>
<path style="fill:none;stroke-width:0.0333333;stroke-linecap:butt;stroke-linejoin:miter;stroke:rgb(0%,0%,0%);stroke-opacity:1;stroke-miterlimit:10;" d="M 1.56661 3.041323 L 1.56661 2.17691 " transform="matrix(17.347909,0,0,17.298578,217.849931,17.131616)"/>
<path style="fill:none;stroke-width:0.0333333;stroke-linecap:butt;stroke-linejoin:miter;stroke:rgb(0%,0%,0%);stroke-opacity:1;stroke-miterlimit:10;" d="M 1.56661 3.041323 L 2.601272 3.041323 " transform="matrix(17.347909,0,0,17.298578,217.849931,17.131616)"/>
<path style="fill:none;stroke-width:0.0333333;stroke-linecap:butt;stroke-linejoin:miter;stroke:rgb(0%,0%,0%);stroke-opacity:1;stroke-miterlimit:10;" d="M 2.150479 3.291299 L 2.150479 2.791348 " transform="matrix(17.347909,0,0,17.298578,217.849931,17.131616)"/>
<path style="fill:none;stroke-width:0.0333333;stroke-linecap:butt;stroke-linejoin:miter;stroke:rgb(0%,0%,0%);stroke-opacity:1;stroke-miterlimit:10;" d="M 2.017403 3.291299 L 2.017403 2.791348 " transform="matrix(17.347909,0,0,17.298578,217.849931,17.131616)"/>
<path style="fill:none;stroke-width:0.0333333;stroke-linecap:butt;stroke-linejoin:miter;stroke:rgb(0%,0%,0%);stroke-opacity:1;stroke-miterlimit:10;" d="M 1.56661 3.041323 L 0.581936 2.729927 " transform="matrix(17.347909,0,0,17.298578,217.849931,17.131616)"/>
<path style="fill:none;stroke-width:0.0333333;stroke-linecap:butt;stroke-linejoin:miter;stroke:rgb(0%,0%,0%);stroke-opacity:1;stroke-miterlimit:10;" d="M 1.56661 4.05929 L 2.448156 4.050709 " transform="matrix(17.347909,0,0,17.298578,217.849931,17.131616)"/>
<path style="fill:none;stroke-width:0.0333333;stroke-linecap:butt;stroke-linejoin:miter;stroke:rgb(0%,0%,0%);stroke-opacity:1;stroke-miterlimit:10;" d="M 2.076398 4.304298 L 2.071444 3.804347 " transform="matrix(17.347909,0,0,17.298578,217.849931,17.131616)"/>
<path style="fill:none;stroke-width:0.0333333;stroke-linecap:butt;stroke-linejoin:miter;stroke:rgb(0%,0%,0%);stroke-opacity:1;stroke-miterlimit:10;" d="M 1.943097 4.305652 L 1.938143 3.805702 " transform="matrix(17.347909,0,0,17.298578,217.849931,17.131616)"/>
<path style="fill:none;stroke-width:0.0333333;stroke-linecap:butt;stroke-linejoin:miter;stroke:rgb(0%,0%,0%);stroke-opacity:1;stroke-miterlimit:10;" d="M 1.56661 4.05929 L 0.594321 4.383332 " transform="matrix(17.347909,0,0,17.298578,217.849931,17.131616)"/>
<path style="fill:none;stroke-width:0.0333333;stroke-linecap:butt;stroke-linejoin:miter;stroke:rgb(0%,0%,0%);stroke-opacity:1;stroke-miterlimit:10;" d="M 1.400209 1.930548 L 0.676734 1.527245 " transform="matrix(17.347909,0,0,17.298578,217.849931,17.131616)"/>
<path style="fill:none;stroke-width:0.0333333;stroke-linecap:butt;stroke-linejoin:miter;stroke:rgb(0%,0%,0%);stroke-opacity:1;stroke-miterlimit:10;" d="M 1.732787 1.929418 L 2.46662 1.514599 " transform="matrix(17.347909,0,0,17.298578,217.849931,17.131616)"/>
<path style="fill:none;stroke-width:0.0333333;stroke-linecap:butt;stroke-linejoin:miter;stroke:rgb(0%,0%,0%);stroke-opacity:1;stroke-miterlimit:10;" d="M 0.600401 2.723604 L -0.00711146 3.567694 " transform="matrix(17.347909,0,0,17.298578,217.849931,17.131616)"/>
<path style="fill:none;stroke-width:0.0333333;stroke-linecap:butt;stroke-linejoin:miter;stroke:rgb(0%,0%,0%);stroke-opacity:1;stroke-miterlimit:10;" d="M 2.721063 4.134712 L 3.138531 4.140357 " transform="matrix(17.347909,0,0,17.298578,217.849931,17.131616)"/>
<path style="fill:none;stroke-width:0.0333333;stroke-linecap:butt;stroke-linejoin:miter;stroke:rgb(0%,0%,0%);stroke-opacity:1;stroke-miterlimit:10;" d="M 2.723315 3.967836 L 3.140782 3.973933 " transform="matrix(17.347909,0,0,17.298578,217.849931,17.131616)"/>
<path style="fill:none;stroke-width:0.0333333;stroke-linecap:butt;stroke-linejoin:miter;stroke:rgb(0%,0%,0%);stroke-opacity:1;stroke-miterlimit:10;" d="M 2.501296 4.206295 L 2.501296 4.622469 " transform="matrix(17.347909,0,0,17.298578,217.849931,17.131616)"/>
<path style="fill:none;stroke-width:0.0333333;stroke-linecap:butt;stroke-linejoin:miter;stroke:rgb(0%,0%,0%);stroke-opacity:1;stroke-miterlimit:10;" d="M 2.667923 4.206295 L 2.667923 4.622469 " transform="matrix(17.347909,0,0,17.298578,217.849931,17.131616)"/>
<path style="fill:none;stroke-width:0.0333333;stroke-linecap:butt;stroke-linejoin:miter;stroke:rgb(0%,0%,0%);stroke-opacity:1;stroke-miterlimit:10;" d="M 0.68529 1.541697 L 0.68529 0.50431 " transform="matrix(17.347909,0,0,17.298578,217.849931,17.131616)"/>
<path style="fill:none;stroke-width:0.0333333;stroke-linecap:butt;stroke-linejoin:miter;stroke:rgb(0%,0%,0%);stroke-opacity:1;stroke-miterlimit:10;" d="M 2.458063 1.529277 L 2.44793 0.504536 " transform="matrix(17.347909,0,0,17.298578,217.849931,17.131616)"/>
<path style="fill:none;stroke-width:0.0333333;stroke-linecap:butt;stroke-linejoin:miter;stroke:rgb(0%,0%,0%);stroke-opacity:1;stroke-miterlimit:10;" d="M 0.676959 0.518762 L 1.384222 0.106201 " transform="matrix(17.347909,0,0,17.298578,217.849931,17.131616)"/>
<path style="fill:none;stroke-width:0.0333333;stroke-linecap:butt;stroke-linejoin:miter;stroke:rgb(0%,0%,0%);stroke-opacity:1;stroke-miterlimit:10;" d="M 2.584384 3.024613 L 2.584384 3.89264 " transform="matrix(17.347909,0,0,17.298578,217.849931,17.131616)"/>
<path style="fill:none;stroke-width:0.0333333;stroke-linecap:butt;stroke-linejoin:miter;stroke:rgb(0%,0%,0%);stroke-opacity:1;stroke-miterlimit:10;" d="M 0.61301 4.389429 L -0.00733663 3.547823 " transform="matrix(17.347909,0,0,17.298578,217.849931,17.131616)"/>
<path style="fill:none;stroke-width:0.0333333;stroke-linecap:butt;stroke-linejoin:miter;stroke:rgb(0%,0%,0%);stroke-opacity:1;stroke-miterlimit:10;" d="M 2.456262 0.518762 L 1.748774 0.106201 " transform="matrix(17.347909,0,0,17.298578,217.849931,17.131616)"/>
</g>
</svg>
