<?xml version="1.0" encoding="UTF-8"?>
<svg xmlns="http://www.w3.org/2000/svg" xmlns:xlink="http://www.w3.org/1999/xlink" width="64pt" height="68.8pt" viewBox="0 0 64 68.8" version="1.1">
<g id="surface612">
<path style="fill:none;stroke-width:0.06;stroke-linecap:butt;stroke-linejoin:miter;stroke:rgb(0%,0%,47.058824%);stroke-opacity:1;stroke-miterlimit:10;" d="M 0.881009 -0.00864071 L -0.0150456 0.50871 " transform="matrix(17.241379,0,0,17.2,17.138314,17.199401)"/>
<path style="fill:none;stroke-width:0.06;stroke-linecap:butt;stroke-linejoin:miter;stroke:rgb(0%,0%,47.058824%);stroke-opacity:1;stroke-miterlimit:10;" d="M 0.850876 -0.00864071 L 1.746931 0.50871 " transform="matrix(17.241379,0,0,17.2,17.138314,17.199401)"/>
<path style="fill:none;stroke-width:0.06;stroke-linecap:butt;stroke-linejoin:miter;stroke:rgb(0%,0%,47.058824%);stroke-opacity:1;stroke-miterlimit:10;" d="M 0.850876 0.183719 L 1.580407 0.604777 " transform="matrix(17.241379,0,0,17.2,17.138314,17.199401)"/>
<path style="fill:none;stroke-width:0.06;stroke-linecap:butt;stroke-linejoin:miter;stroke:rgb(0%,0%,47.058824%);stroke-opacity:1;stroke-miterlimit:10;" d="M 0.00013405 0.482593 L 0.00013405 1.517295 " transform="matrix(17.241379,0,0,17.2,17.138314,17.199401)"/>
<path style="fill:none;stroke-width:0.06;stroke-linecap:butt;stroke-linejoin:miter;stroke:rgb(0%,0%,47.058824%);stroke-opacity:1;stroke-miterlimit:10;" d="M 0.166657 0.578887 L 0.166657 1.421228 " transform="matrix(17.241379,0,0,17.2,17.138314,17.199401)"/>
<path style="fill:none;stroke-width:0.06;stroke-linecap:butt;stroke-linejoin:miter;stroke:rgb(0%,0%,47.058824%);stroke-opacity:1;stroke-miterlimit:10;" d="M -0.0150456 1.491405 L 0.881009 2.008756 " transform="matrix(17.241379,0,0,17.2,17.138314,17.199401)"/>
<path style="fill:none;stroke-width:0.06;stroke-linecap:butt;stroke-linejoin:miter;stroke:rgb(0%,0%,47.058824%);stroke-opacity:1;stroke-miterlimit:10;" d="M 0.850876 2.008756 L 1.746931 1.491405 " transform="matrix(17.241379,0,0,17.2,17.138314,17.199401)"/>
<path style="fill:none;stroke-width:0.06;stroke-linecap:butt;stroke-linejoin:miter;stroke:rgb(0%,0%,47.058824%);stroke-opacity:1;stroke-miterlimit:10;" d="M 0.850876 1.816396 L 1.580407 1.395111 " transform="matrix(17.241379,0,0,17.2,17.138314,17.199401)"/>
<path style="fill:none;stroke-width:0.06;stroke-linecap:butt;stroke-linejoin:miter;stroke:rgb(0%,0%,47.058824%);stroke-opacity:1;stroke-miterlimit:10;" d="M 1.731978 1.517295 L 1.731978 0.482593 " transform="matrix(17.241379,0,0,17.2,17.138314,17.199401)"/>
</g>
</svg>
