<?xml version="1.0" encoding="UTF-8"?>
<svg xmlns="http://www.w3.org/2000/svg" xmlns:xlink="http://www.w3.org/1999/xlink" width="172pt" height="61.6pt" viewBox="0 0 172 61.6" version="1.1">
<g id="surface1267">
<path style=" stroke:none;fill-rule:nonzero;fill:rgb(0%,0%,47.058824%);fill-opacity:1;" d="M 57.285156 46.375 L 55.617188 43.4375 C 55.628906 43.519531 55.640625 43.597656 55.648438 43.675781 C 55.65625 43.742188 55.660156 43.8125 55.660156 43.890625 C 55.664062 43.972656 55.671875 44.050781 55.671875 44.121094 L 55.671875 46.375 L 54.957031 46.375 L 54.957031 42.558594 L 55.875 42.558594 L 57.554688 45.519531 C 57.546875 45.449219 57.539062 45.367188 57.535156 45.28125 C 57.527344 45.210938 57.519531 45.128906 57.511719 45.042969 C 57.511719 44.953125 57.511719 44.863281 57.511719 44.769531 L 57.511719 42.558594 L 58.21875 42.558594 L 58.21875 46.375 Z M 57.285156 46.375 "/>
<path style=" stroke:none;fill-rule:nonzero;fill:rgb(0%,0%,47.058824%);fill-opacity:1;" d="M 17.253906 24.828125 C 17.40625 24.828125 17.535156 24.804688 17.644531 24.761719 C 17.753906 24.71875 17.84375 24.664062 17.925781 24.597656 C 18.003906 24.527344 18.070312 24.449219 18.121094 24.359375 C 18.179688 24.273438 18.226562 24.1875 18.261719 24.101562 L 18.957031 24.359375 C 18.898438 24.5 18.820312 24.636719 18.726562 24.773438 C 18.640625 24.902344 18.527344 25.019531 18.390625 25.121094 C 18.261719 25.222656 18.101562 25.304688 17.914062 25.367188 C 17.726562 25.425781 17.507812 25.457031 17.253906 25.457031 C 16.921875 25.457031 16.632812 25.40625 16.386719 25.3125 C 16.148438 25.214844 15.949219 25.074219 15.792969 24.902344 C 15.632812 24.722656 15.511719 24.511719 15.433594 24.273438 C 15.359375 24.03125 15.324219 23.761719 15.324219 23.472656 C 15.324219 23.175781 15.359375 22.90625 15.433594 22.667969 C 15.511719 22.425781 15.628906 22.21875 15.78125 22.050781 C 15.9375 21.886719 16.136719 21.757812 16.375 21.660156 C 16.617188 21.570312 16.898438 21.519531 17.222656 21.519531 C 17.464844 21.519531 17.683594 21.550781 17.871094 21.609375 C 18.058594 21.660156 18.222656 21.730469 18.359375 21.824219 C 18.496094 21.917969 18.609375 22.03125 18.695312 22.160156 C 18.78125 22.289062 18.851562 22.429688 18.902344 22.582031 L 18.199219 22.777344 C 18.175781 22.699219 18.136719 22.625 18.078125 22.550781 C 18.027344 22.472656 17.960938 22.402344 17.882812 22.34375 C 17.800781 22.289062 17.710938 22.242188 17.601562 22.203125 C 17.492188 22.167969 17.367188 22.148438 17.234375 22.148438 C 17.039062 22.148438 16.871094 22.183594 16.734375 22.246094 C 16.597656 22.3125 16.480469 22.402344 16.386719 22.519531 C 16.300781 22.632812 16.234375 22.773438 16.191406 22.929688 C 16.148438 23.089844 16.128906 23.269531 16.128906 23.472656 C 16.128906 23.675781 16.148438 23.859375 16.191406 24.023438 C 16.234375 24.183594 16.300781 24.324219 16.386719 24.449219 C 16.480469 24.5625 16.597656 24.660156 16.734375 24.730469 C 16.878906 24.792969 17.050781 24.828125 17.253906 24.828125 Z M 17.253906 24.828125 "/>
<path style=" stroke:none;fill-rule:nonzero;fill:rgb(0%,0%,47.058824%);fill-opacity:1;" d="M 78.804688 24.828125 C 78.957031 24.828125 79.085938 24.804688 79.195312 24.761719 C 79.304688 24.71875 79.394531 24.664062 79.476562 24.597656 C 79.554688 24.527344 79.621094 24.449219 79.671875 24.359375 C 79.726562 24.273438 79.773438 24.1875 79.8125 24.101562 L 80.503906 24.359375 C 80.445312 24.5 80.371094 24.636719 80.277344 24.773438 C 80.191406 24.902344 80.078125 25.019531 79.941406 25.121094 C 79.8125 25.222656 79.652344 25.304688 79.464844 25.367188 C 79.277344 25.425781 79.054688 25.457031 78.804688 25.457031 C 78.472656 25.457031 78.179688 25.40625 77.9375 25.3125 C 77.699219 25.214844 77.5 25.074219 77.339844 24.902344 C 77.179688 24.722656 77.0625 24.511719 76.984375 24.273438 C 76.910156 24.03125 76.875 23.761719 76.875 23.472656 C 76.875 23.175781 76.910156 22.90625 76.984375 22.667969 C 77.0625 22.425781 77.179688 22.21875 77.332031 22.050781 C 77.488281 21.886719 77.6875 21.757812 77.925781 21.660156 C 78.164062 21.570312 78.445312 21.519531 78.773438 21.519531 C 79.015625 21.519531 79.234375 21.550781 79.421875 21.609375 C 79.609375 21.660156 79.773438 21.730469 79.910156 21.824219 C 80.046875 21.917969 80.160156 22.03125 80.246094 22.160156 C 80.332031 22.289062 80.398438 22.429688 80.453125 22.582031 L 79.746094 22.777344 C 79.726562 22.699219 79.683594 22.625 79.628906 22.550781 C 79.578125 22.472656 79.511719 22.402344 79.433594 22.34375 C 79.351562 22.289062 79.257812 22.242188 79.152344 22.203125 C 79.042969 22.167969 78.917969 22.148438 78.78125 22.148438 C 78.585938 22.148438 78.417969 22.183594 78.285156 22.246094 C 78.144531 22.3125 78.03125 22.402344 77.9375 22.519531 C 77.851562 22.632812 77.785156 22.773438 77.742188 22.929688 C 77.699219 23.089844 77.675781 23.269531 77.675781 23.472656 C 77.675781 23.675781 77.699219 23.859375 77.742188 24.023438 C 77.785156 24.183594 77.851562 24.324219 77.9375 24.449219 C 78.03125 24.5625 78.144531 24.660156 78.285156 24.730469 C 78.429688 24.792969 78.601562 24.828125 78.804688 24.828125 Z M 78.804688 24.828125 "/>
<path style=" stroke:none;fill-rule:nonzero;fill:rgb(0%,0%,47.058824%);fill-opacity:1;" d="M 124.78125 19.175781 L 123.113281 16.238281 C 123.125 16.320312 123.136719 16.398438 123.144531 16.476562 C 123.152344 16.542969 123.15625 16.617188 123.15625 16.695312 C 123.160156 16.777344 123.167969 16.851562 123.167969 16.921875 L 123.167969 19.175781 L 122.453125 19.175781 L 122.453125 15.363281 L 123.375 15.363281 L 125.054688 18.320312 C 125.042969 18.25 125.035156 18.167969 125.03125 18.082031 C 125.023438 18.011719 125.015625 17.929688 125.007812 17.84375 C 125.007812 17.757812 125.007812 17.667969 125.007812 17.574219 L 125.007812 15.363281 L 125.714844 15.363281 L 125.714844 19.175781 Z M 124.78125 19.175781 "/>
<path style=" stroke:none;fill-rule:nonzero;fill:rgb(0%,0%,47.058824%);fill-opacity:1;" d="M 133.453125 45.863281 L 131.78125 42.925781 C 131.796875 43.007812 131.808594 43.085938 131.816406 43.167969 C 131.820312 43.230469 131.824219 43.304688 131.824219 43.382812 C 131.832031 43.464844 131.835938 43.539062 131.835938 43.609375 L 131.835938 45.863281 L 131.121094 45.863281 L 131.121094 42.050781 L 132.042969 42.050781 L 133.722656 45.007812 C 133.714844 44.9375 133.707031 44.855469 133.699219 44.769531 C 133.691406 44.699219 133.683594 44.617188 133.679688 44.53125 C 133.679688 44.445312 133.679688 44.355469 133.679688 44.261719 L 133.679688 42.050781 L 134.382812 42.050781 L 134.382812 45.863281 Z M 133.453125 45.863281 "/>
<path style=" stroke:none;fill-rule:nonzero;fill:rgb(0%,0%,47.058824%);fill-opacity:1;" d="M 93.421875 24.316406 C 93.574219 24.316406 93.703125 24.292969 93.8125 24.25 C 93.921875 24.207031 94.015625 24.152344 94.09375 24.085938 C 94.171875 24.015625 94.238281 23.933594 94.289062 23.847656 C 94.347656 23.761719 94.394531 23.675781 94.429688 23.589844 L 95.125 23.847656 C 95.066406 23.988281 94.988281 24.125 94.898438 24.261719 C 94.808594 24.390625 94.695312 24.507812 94.5625 24.605469 C 94.429688 24.710938 94.269531 24.792969 94.085938 24.855469 C 93.894531 24.914062 93.675781 24.941406 93.421875 24.941406 C 93.089844 24.941406 92.800781 24.894531 92.554688 24.800781 C 92.316406 24.703125 92.117188 24.5625 91.960938 24.390625 C 91.800781 24.210938 91.679688 24 91.601562 23.761719 C 91.53125 23.519531 91.496094 23.25 91.496094 22.960938 C 91.496094 22.664062 91.53125 22.394531 91.601562 22.15625 C 91.679688 21.914062 91.796875 21.707031 91.949219 21.539062 C 92.105469 21.375 92.308594 21.246094 92.546875 21.148438 C 92.785156 21.058594 93.066406 21.007812 93.390625 21.007812 C 93.632812 21.007812 93.851562 21.039062 94.039062 21.09375 C 94.226562 21.148438 94.390625 21.21875 94.527344 21.3125 C 94.664062 21.40625 94.777344 21.519531 94.863281 21.648438 C 94.949219 21.777344 95.019531 21.917969 95.070312 22.070312 L 94.367188 22.265625 C 94.34375 22.1875 94.304688 22.113281 94.246094 22.039062 C 94.195312 21.960938 94.128906 21.890625 94.050781 21.832031 C 93.96875 21.777344 93.878906 21.730469 93.769531 21.691406 C 93.660156 21.65625 93.535156 21.636719 93.402344 21.636719 C 93.207031 21.636719 93.039062 21.667969 92.902344 21.734375 C 92.765625 21.800781 92.648438 21.890625 92.554688 22.003906 C 92.46875 22.121094 92.40625 22.261719 92.359375 22.417969 C 92.316406 22.578125 92.296875 22.757812 92.296875 22.960938 C 92.296875 23.164062 92.316406 23.347656 92.359375 23.511719 C 92.40625 23.671875 92.46875 23.8125 92.554688 23.933594 C 92.648438 24.050781 92.765625 24.148438 92.902344 24.21875 C 93.046875 24.28125 93.21875 24.316406 93.421875 24.316406 Z M 93.421875 24.316406 "/>
<path style=" stroke:none;fill-rule:nonzero;fill:rgb(0%,0%,47.058824%);fill-opacity:1;" d="M 154.972656 24.316406 C 155.125 24.316406 155.253906 24.292969 155.363281 24.25 C 155.472656 24.207031 155.5625 24.152344 155.644531 24.085938 C 155.722656 24.015625 155.789062 23.933594 155.839844 23.847656 C 155.898438 23.761719 155.941406 23.675781 155.980469 23.589844 L 156.675781 23.847656 C 156.613281 23.988281 156.539062 24.125 156.445312 24.261719 C 156.359375 24.390625 156.246094 24.507812 156.109375 24.605469 C 155.980469 24.710938 155.820312 24.792969 155.632812 24.855469 C 155.445312 24.914062 155.226562 24.941406 154.972656 24.941406 C 154.640625 24.941406 154.351562 24.894531 154.105469 24.800781 C 153.867188 24.703125 153.667969 24.5625 153.511719 24.390625 C 153.351562 24.210938 153.230469 24 153.152344 23.761719 C 153.078125 23.519531 153.042969 23.25 153.042969 22.960938 C 153.042969 22.664062 153.078125 22.394531 153.152344 22.15625 C 153.230469 21.914062 153.347656 21.707031 153.5 21.539062 C 153.65625 21.375 153.855469 21.246094 154.09375 21.148438 C 154.332031 21.058594 154.617188 21.007812 154.941406 21.007812 C 155.183594 21.007812 155.402344 21.039062 155.589844 21.09375 C 155.777344 21.148438 155.941406 21.21875 156.078125 21.3125 C 156.214844 21.40625 156.328125 21.519531 156.414062 21.648438 C 156.5 21.777344 156.570312 21.917969 156.621094 22.070312 L 155.914062 22.265625 C 155.894531 22.1875 155.851562 22.113281 155.796875 22.039062 C 155.746094 21.960938 155.679688 21.890625 155.601562 21.832031 C 155.519531 21.777344 155.429688 21.730469 155.320312 21.691406 C 155.210938 21.65625 155.085938 21.636719 154.953125 21.636719 C 154.757812 21.636719 154.589844 21.667969 154.453125 21.734375 C 154.316406 21.800781 154.199219 21.890625 154.105469 22.003906 C 154.019531 22.121094 153.953125 22.261719 153.910156 22.417969 C 153.867188 22.578125 153.847656 22.757812 153.847656 22.960938 C 153.847656 23.164062 153.867188 23.347656 153.910156 23.511719 C 153.953125 23.671875 154.019531 23.8125 154.105469 23.933594 C 154.199219 24.050781 154.316406 24.148438 154.453125 24.21875 C 154.597656 24.28125 154.769531 24.316406 154.972656 24.316406 Z M 154.972656 24.316406 "/>
<path style="fill:none;stroke-width:0.06;stroke-linecap:butt;stroke-linejoin:miter;stroke:rgb(0%,0%,47.058824%);stroke-opacity:1;stroke-miterlimit:10;" d="M 1.792625 0.01688 L 0.954319 0.625713 " transform="matrix(17.33871,0,0,17.342342,17.140844,17.269761)"/>
<path style="fill:none;stroke-width:0.06;stroke-linecap:butt;stroke-linejoin:miter;stroke:rgb(0%,0%,47.058824%);stroke-opacity:1;stroke-miterlimit:10;" d="M 1.757255 0.01688 L 2.595561 0.625713 " transform="matrix(17.33871,0,0,17.342342,17.140844,17.269761)"/>
<path style="fill:none;stroke-width:0.06;stroke-linecap:butt;stroke-linejoin:miter;stroke:rgb(0%,0%,47.058824%);stroke-opacity:1;stroke-miterlimit:10;" d="M 0.966034 0.617379 L 1.281666 1.58908 " transform="matrix(17.33871,0,0,17.342342,17.140844,17.269761)"/>
<path style="fill:none;stroke-width:0.06;stroke-linecap:butt;stroke-linejoin:miter;stroke:rgb(0%,0%,47.058824%);stroke-opacity:1;stroke-miterlimit:10;" d="M 1.161811 0.681123 L 1.402873 1.422399 " transform="matrix(17.33871,0,0,17.342342,17.140844,17.269761)"/>
<path style="fill:none;stroke-width:0.06;stroke-linecap:butt;stroke-linejoin:miter;stroke:rgb(0%,0%,47.058824%);stroke-opacity:1;stroke-miterlimit:10;" d="M 1.253279 1.568357 L 2.137771 1.568357 " transform="matrix(17.33871,0,0,17.342342,17.140844,17.269761)"/>
<path style="fill:none;stroke-width:0.06;stroke-linecap:butt;stroke-linejoin:miter;stroke:rgb(0%,0%,47.058824%);stroke-opacity:1;stroke-miterlimit:10;" d="M 2.333323 1.389289 L 2.584072 0.617379 " transform="matrix(17.33871,0,0,17.342342,17.140844,17.269761)"/>
<path style="fill:none;stroke-width:0.06;stroke-linecap:butt;stroke-linejoin:miter;stroke:rgb(0%,0%,47.058824%);stroke-opacity:1;stroke-miterlimit:10;" d="M 2.174718 1.337708 L 2.388069 0.681123 " transform="matrix(17.33871,0,0,17.342342,17.140844,17.269761)"/>
<path style="fill:none;stroke-width:0.06;stroke-linecap:butt;stroke-linejoin:miter;stroke:rgb(0%,0%,47.058824%);stroke-opacity:1;stroke-miterlimit:10;" d="M 0.979777 0.620983 L 0.173912 0.4052 " transform="matrix(17.33871,0,0,17.342342,17.140844,17.269761)"/>
<path style="fill:none;stroke-width:0.06;stroke-linecap:butt;stroke-linejoin:miter;stroke:rgb(0%,0%,47.058824%);stroke-opacity:1;stroke-miterlimit:10;" d="M 2.570104 0.620983 L 3.376194 0.4052 " transform="matrix(17.33871,0,0,17.342342,17.140844,17.269761)"/>
<path style="fill:none;stroke-width:0.06;stroke-linecap:butt;stroke-linejoin:miter;stroke:rgb(0%,0%,47.058824%);stroke-opacity:1;stroke-miterlimit:10;" d="M 6.005111 0.11824 L 5.347262 0.596206 " transform="matrix(17.33871,0,0,17.342342,17.140844,17.269761)"/>
<path style="fill:none;stroke-width:0.06;stroke-linecap:butt;stroke-linejoin:miter;stroke:rgb(0%,0%,47.058824%);stroke-opacity:1;stroke-miterlimit:10;" d="M 6.330881 0.118465 L 6.988505 0.596206 " transform="matrix(17.33871,0,0,17.342342,17.140844,17.269761)"/>
<path style="fill:none;stroke-width:0.06;stroke-linecap:butt;stroke-linejoin:miter;stroke:rgb(0%,0%,47.058824%);stroke-opacity:1;stroke-miterlimit:10;" d="M 5.358752 0.587872 L 5.674609 1.559573 " transform="matrix(17.33871,0,0,17.342342,17.140844,17.269761)"/>
<path style="fill:none;stroke-width:0.06;stroke-linecap:butt;stroke-linejoin:miter;stroke:rgb(0%,0%,47.058824%);stroke-opacity:1;stroke-miterlimit:10;" d="M 5.554755 0.651616 L 5.795816 1.392893 " transform="matrix(17.33871,0,0,17.342342,17.140844,17.269761)"/>
<path style="fill:none;stroke-width:0.06;stroke-linecap:butt;stroke-linejoin:miter;stroke:rgb(0%,0%,47.058824%);stroke-opacity:1;stroke-miterlimit:10;" d="M 5.37272 0.591476 L 4.566855 0.375693 " transform="matrix(17.33871,0,0,17.342342,17.140844,17.269761)"/>
<path style="fill:none;stroke-width:0.06;stroke-linecap:butt;stroke-linejoin:miter;stroke:rgb(0%,0%,47.058824%);stroke-opacity:1;stroke-miterlimit:10;" d="M 5.645998 1.53885 L 6.530489 1.53885 " transform="matrix(17.33871,0,0,17.342342,17.140844,17.269761)"/>
<path style="fill:none;stroke-width:0.06;stroke-linecap:butt;stroke-linejoin:miter;stroke:rgb(0%,0%,47.058824%);stroke-opacity:1;stroke-miterlimit:10;" d="M 6.726041 1.359782 L 6.97679 0.587872 " transform="matrix(17.33871,0,0,17.342342,17.140844,17.269761)"/>
<path style="fill:none;stroke-width:0.06;stroke-linecap:butt;stroke-linejoin:miter;stroke:rgb(0%,0%,47.058824%);stroke-opacity:1;stroke-miterlimit:10;" d="M 6.567436 1.308426 L 6.781012 0.651616 " transform="matrix(17.33871,0,0,17.342342,17.140844,17.269761)"/>
<path style="fill:none;stroke-width:0.06;stroke-linecap:butt;stroke-linejoin:miter;stroke:rgb(0%,0%,47.058824%);stroke-opacity:1;stroke-miterlimit:10;" d="M 6.963047 0.591476 L 7.768912 0.375693 " transform="matrix(17.33871,0,0,17.342342,17.140844,17.269761)"/>
</g>
</svg>
