<?xml version="1.0" encoding="UTF-8"?>
<svg xmlns="http://www.w3.org/2000/svg" xmlns:xlink="http://www.w3.org/1999/xlink" width="96pt" height="60.8pt" viewBox="0 0 96 60.8" version="1.1">
<g id="surface512">
<path style=" stroke:none;fill-rule:nonzero;fill:rgb(0%,0%,0%);fill-opacity:1;" d="M 17.1875 21.253906 C 16.972656 21.253906 16.78125 21.292969 16.613281 21.363281 C 16.445312 21.433594 16.304688 21.539062 16.191406 21.675781 C 16.082031 21.804688 16 21.964844 15.941406 22.148438 C 15.882812 22.339844 15.855469 22.546875 15.855469 22.777344 C 15.855469 23.007812 15.882812 23.21875 15.941406 23.414062 C 16.007812 23.601562 16.097656 23.761719 16.214844 23.898438 C 16.328125 24.035156 16.46875 24.144531 16.636719 24.222656 C 16.808594 24.296875 17 24.332031 17.210938 24.332031 C 17.363281 24.332031 17.496094 24.3125 17.613281 24.277344 C 17.734375 24.234375 17.84375 24.175781 17.949219 24.105469 C 18.046875 24.035156 18.136719 23.949219 18.207031 23.855469 C 18.285156 23.761719 18.355469 23.65625 18.414062 23.53125 L 18.835938 23.746094 C 18.773438 23.894531 18.6875 24.023438 18.585938 24.148438 C 18.484375 24.269531 18.367188 24.378906 18.230469 24.46875 C 18.089844 24.558594 17.9375 24.628906 17.765625 24.675781 C 17.589844 24.722656 17.398438 24.75 17.1875 24.75 C 16.878906 24.75 16.605469 24.703125 16.375 24.609375 C 16.144531 24.511719 15.949219 24.375 15.792969 24.199219 C 15.640625 24.023438 15.523438 23.8125 15.445312 23.574219 C 15.363281 23.332031 15.324219 23.066406 15.324219 22.777344 C 15.324219 22.480469 15.363281 22.214844 15.445312 21.976562 C 15.53125 21.734375 15.652344 21.527344 15.8125 21.363281 C 15.96875 21.195312 16.164062 21.066406 16.398438 20.972656 C 16.628906 20.882812 16.890625 20.832031 17.1875 20.832031 C 17.59375 20.832031 17.929688 20.914062 18.195312 21.070312 C 18.472656 21.230469 18.675781 21.464844 18.804688 21.78125 L 18.316406 21.945312 C 18.277344 21.851562 18.230469 21.765625 18.164062 21.683594 C 18.105469 21.597656 18.027344 21.527344 17.9375 21.46875 C 17.84375 21.40625 17.734375 21.355469 17.613281 21.316406 C 17.488281 21.273438 17.347656 21.253906 17.1875 21.253906 Z M 17.1875 21.253906 "/>
<path style=" stroke:none;fill-rule:nonzero;fill:rgb(0%,0%,0%);fill-opacity:1;" d="M 78.75 21.253906 C 78.535156 21.253906 78.339844 21.292969 78.175781 21.363281 C 78.007812 21.433594 77.867188 21.539062 77.753906 21.675781 C 77.644531 21.804688 77.558594 21.964844 77.503906 22.148438 C 77.445312 22.339844 77.417969 22.546875 77.417969 22.777344 C 77.417969 23.007812 77.445312 23.21875 77.503906 23.414062 C 77.570312 23.601562 77.65625 23.761719 77.773438 23.898438 C 77.886719 24.035156 78.027344 24.144531 78.195312 24.222656 C 78.371094 24.296875 78.558594 24.332031 78.773438 24.332031 C 78.921875 24.332031 79.054688 24.3125 79.171875 24.277344 C 79.292969 24.234375 79.40625 24.175781 79.507812 24.105469 C 79.609375 24.035156 79.695312 23.949219 79.769531 23.855469 C 79.847656 23.761719 79.914062 23.65625 79.976562 23.53125 L 80.398438 23.746094 C 80.332031 23.894531 80.25 24.023438 80.148438 24.148438 C 80.046875 24.269531 79.925781 24.378906 79.789062 24.46875 C 79.652344 24.558594 79.496094 24.628906 79.324219 24.675781 C 79.152344 24.722656 78.957031 24.75 78.75 24.75 C 78.4375 24.75 78.167969 24.703125 77.9375 24.609375 C 77.703125 24.511719 77.507812 24.375 77.351562 24.199219 C 77.199219 24.023438 77.082031 23.8125 77.003906 23.574219 C 76.921875 23.332031 76.886719 23.066406 76.886719 22.777344 C 76.886719 22.480469 76.921875 22.214844 77.003906 21.976562 C 77.089844 21.734375 77.214844 21.527344 77.375 21.363281 C 77.53125 21.195312 77.726562 21.066406 77.957031 20.972656 C 78.1875 20.882812 78.453125 20.832031 78.75 20.832031 C 79.152344 20.832031 79.488281 20.914062 79.757812 21.070312 C 80.03125 21.230469 80.234375 21.464844 80.363281 21.78125 L 79.878906 21.945312 C 79.839844 21.851562 79.789062 21.765625 79.726562 21.683594 C 79.664062 21.597656 79.589844 21.527344 79.496094 21.46875 C 79.402344 21.40625 79.292969 21.355469 79.171875 21.316406 C 79.046875 21.273438 78.90625 21.253906 78.75 21.253906 Z M 78.75 21.253906 "/>
<path style="fill:none;stroke-width:0.0333333;stroke-linecap:butt;stroke-linejoin:miter;stroke:rgb(0%,0%,0%);stroke-opacity:1;stroke-miterlimit:10;" d="M 1.784783 -0.00706929 L 0.959428 0.592458 " transform="matrix(17.34104,0,0,17.272727,17.081263,17.110387)"/>
<path style="fill:none;stroke-width:0.0333333;stroke-linecap:butt;stroke-linejoin:miter;stroke:rgb(0%,0%,0%);stroke-opacity:1;stroke-miterlimit:10;" d="M 1.765185 -0.00706929 L 2.584007 0.587935 " transform="matrix(17.34104,0,0,17.272727,17.081263,17.110387)"/>
<path style="fill:none;stroke-width:0.0333333;stroke-linecap:butt;stroke-linejoin:miter;stroke:rgb(0%,0%,0%);stroke-opacity:1;stroke-miterlimit:10;" d="M 1.765185 0.198955 L 2.38803 0.651483 " transform="matrix(17.34104,0,0,17.272727,17.081263,17.110387)"/>
<path style="fill:none;stroke-width:0.0333333;stroke-linecap:butt;stroke-linejoin:miter;stroke:rgb(0%,0%,0%);stroke-opacity:1;stroke-miterlimit:10;" d="M 0.965961 0.587935 L 1.278622 1.550435 " transform="matrix(17.34104,0,0,17.272727,17.081263,17.110387)"/>
<path style="fill:none;stroke-width:0.0333333;stroke-linecap:butt;stroke-linejoin:miter;stroke:rgb(0%,0%,0%);stroke-opacity:1;stroke-miterlimit:10;" d="M 1.161938 0.651483 L 1.399813 1.383535 " transform="matrix(17.34104,0,0,17.272727,17.081263,17.110387)"/>
<path style="fill:none;stroke-width:0.0333333;stroke-linecap:butt;stroke-linejoin:miter;stroke:rgb(0%,0%,0%);stroke-opacity:1;stroke-miterlimit:10;" d="M 1.262854 1.538675 L 2.287113 1.538675 " transform="matrix(17.34104,0,0,17.272727,17.081263,17.110387)"/>
<path style="fill:none;stroke-width:0.0333333;stroke-linecap:butt;stroke-linejoin:miter;stroke:rgb(0%,0%,0%);stroke-opacity:1;stroke-miterlimit:10;" d="M 2.27112 1.550435 L 2.586935 0.579115 " transform="matrix(17.34104,0,0,17.272727,17.081263,17.110387)"/>
<path style="fill:none;stroke-width:0.0333333;stroke-linecap:butt;stroke-linejoin:miter;stroke:rgb(0%,0%,0%);stroke-opacity:1;stroke-miterlimit:10;" d="M 0.97362 0.58997 L 0.170341 0.374674 " transform="matrix(17.34104,0,0,17.272727,17.081263,17.110387)"/>
<path style="fill:none;stroke-width:0.0333333;stroke-linecap:butt;stroke-linejoin:miter;stroke:rgb(0%,0%,0%);stroke-opacity:1;stroke-miterlimit:10;" d="M 2.575221 0.590196 L 3.379401 0.374674 " transform="matrix(17.34104,0,0,17.272727,17.081263,17.110387)"/>
</g>
</svg>
