<?xml version="1.0" encoding="UTF-8"?>
<svg xmlns="http://www.w3.org/2000/svg" xmlns:xlink="http://www.w3.org/1999/xlink" width="100.8pt" height="97.6pt" viewBox="0 0 100.8 97.6" version="1.1">
<g id="surface1247">
<path style=" stroke:none;fill-rule:nonzero;fill:rgb(0%,0%,0%);fill-opacity:1;" d="M 33.359375 19.125 L 32.375 17.542969 L 31.183594 17.542969 L 31.183594 19.125 L 30.664062 19.125 L 30.664062 15.3125 L 32.460938 15.3125 C 32.675781 15.3125 32.867188 15.339844 33.035156 15.386719 C 33.199219 15.429688 33.339844 15.5 33.457031 15.59375 C 33.570312 15.6875 33.65625 15.804688 33.714844 15.941406 C 33.773438 16.078125 33.800781 16.230469 33.800781 16.394531 C 33.800781 16.519531 33.78125 16.640625 33.746094 16.761719 C 33.710938 16.878906 33.652344 16.988281 33.574219 17.089844 C 33.5 17.183594 33.40625 17.265625 33.292969 17.335938 C 33.175781 17.402344 33.035156 17.453125 32.871094 17.476562 L 33.953125 19.125 Z M 33.28125 16.40625 C 33.28125 16.292969 33.261719 16.191406 33.21875 16.101562 C 33.179688 16.015625 33.121094 15.949219 33.042969 15.898438 C 32.972656 15.839844 32.882812 15.796875 32.773438 15.765625 C 32.664062 15.738281 32.542969 15.722656 32.40625 15.722656 L 31.183594 15.722656 L 31.183594 17.132812 L 32.425781 17.132812 C 32.578125 17.132812 32.707031 17.117188 32.816406 17.078125 C 32.925781 17.042969 33.011719 16.992188 33.078125 16.925781 C 33.148438 16.859375 33.199219 16.785156 33.226562 16.699219 C 33.261719 16.605469 33.28125 16.507812 33.28125 16.40625 Z M 33.28125 16.40625 "/>
<path style=" stroke:none;fill-rule:nonzero;fill:rgb(0%,0%,0%);fill-opacity:1;" d="M 34.796875 19.125 L 34.796875 18.714844 L 35.769531 18.714844 L 35.769531 15.777344 L 34.902344 16.382812 L 34.902344 15.929688 L 35.8125 15.3125 L 36.257812 15.3125 L 36.257812 18.714844 L 37.1875 18.714844 L 37.1875 19.125 Z M 34.796875 19.125 "/>
<path style=" stroke:none;fill-rule:nonzero;fill:rgb(0%,0%,0%);fill-opacity:1;" d="M 19.125 57.394531 C 19.125 57.695312 19.082031 57.964844 18.996094 58.207031 C 18.910156 58.453125 18.78125 58.664062 18.617188 58.835938 C 18.457031 59.011719 18.257812 59.144531 18.023438 59.238281 C 17.789062 59.328125 17.527344 59.378906 17.230469 59.378906 C 16.914062 59.378906 16.636719 59.328125 16.398438 59.238281 C 16.167969 59.136719 15.972656 59 15.816406 58.824219 C 15.65625 58.648438 15.535156 58.4375 15.457031 58.199219 C 15.375 57.953125 15.339844 57.6875 15.339844 57.394531 C 15.339844 57.101562 15.375 56.832031 15.457031 56.59375 C 15.542969 56.351562 15.667969 56.144531 15.824219 55.976562 C 15.992188 55.8125 16.1875 55.683594 16.421875 55.585938 C 16.660156 55.496094 16.929688 55.445312 17.230469 55.445312 C 17.535156 55.445312 17.804688 55.496094 18.042969 55.585938 C 18.28125 55.683594 18.480469 55.816406 18.636719 55.988281 C 18.796875 56.15625 18.914062 56.355469 18.996094 56.59375 C 19.082031 56.832031 19.125 57.101562 19.125 57.394531 Z M 18.59375 57.394531 C 18.59375 57.164062 18.566406 56.957031 18.507812 56.769531 C 18.449219 56.582031 18.363281 56.421875 18.25 56.292969 C 18.132812 56.15625 17.988281 56.050781 17.816406 55.976562 C 17.648438 55.90625 17.453125 55.867188 17.230469 55.867188 C 17.007812 55.867188 16.808594 55.90625 16.636719 55.976562 C 16.464844 56.050781 16.316406 56.15625 16.203125 56.292969 C 16.097656 56.421875 16.011719 56.582031 15.957031 56.769531 C 15.894531 56.957031 15.867188 57.164062 15.867188 57.394531 C 15.867188 57.628906 15.894531 57.839844 15.957031 58.035156 C 16.011719 58.222656 16.097656 58.386719 16.214844 58.523438 C 16.328125 58.660156 16.46875 58.769531 16.636719 58.847656 C 16.808594 58.921875 17.007812 58.957031 17.230469 58.957031 C 17.46875 58.957031 17.675781 58.921875 17.847656 58.847656 C 18.023438 58.769531 18.164062 58.660156 18.269531 58.523438 C 18.378906 58.378906 18.457031 58.214844 18.507812 58.023438 C 18.566406 57.828125 18.59375 57.621094 18.59375 57.394531 Z M 18.59375 57.394531 "/>
<path style=" stroke:none;fill-rule:nonzero;fill:rgb(0%,0%,0%);fill-opacity:1;" d="M 51.550781 59.320312 L 49.503906 56.070312 C 49.511719 56.15625 49.515625 56.242188 49.515625 56.328125 C 49.523438 56.402344 49.527344 56.480469 49.527344 56.566406 C 49.53125 56.648438 49.539062 56.71875 49.539062 56.785156 L 49.539062 59.320312 L 49.074219 59.320312 L 49.074219 55.507812 L 49.679688 55.507812 L 51.734375 58.777344 C 51.734375 58.777344 51.726562 58.6875 51.722656 58.507812 C 51.714844 58.4375 51.707031 58.355469 51.703125 58.269531 C 51.703125 58.175781 51.703125 58.089844 51.703125 58.007812 L 51.703125 55.507812 L 52.167969 55.507812 L 52.167969 59.320312 Z M 51.550781 59.320312 "/>
<path style="fill:none;stroke-width:0.0333333;stroke-linecap:butt;stroke-linejoin:miter;stroke:rgb(0%,0%,0%);stroke-opacity:1;stroke-miterlimit:10;" d="M 0.739887 0.163213 L 0.174523 0.574135 " transform="matrix(17.307692,0,0,17.329545,17.233318,17.218464)"/>
<path style="fill:none;stroke-width:0.0333333;stroke-linecap:butt;stroke-linejoin:miter;stroke:rgb(0%,0%,0%);stroke-opacity:1;stroke-miterlimit:10;" d="M 1.189245 0.163213 L 1.75461 0.574135 " transform="matrix(17.307692,0,0,17.329545,17.233318,17.218464)"/>
<path style="fill:none;stroke-width:0.0333333;stroke-linecap:butt;stroke-linejoin:miter;stroke:rgb(0%,0%,0%);stroke-opacity:1;stroke-miterlimit:10;" d="M 0.180617 0.555426 L 0.48237 1.484115 " transform="matrix(17.307692,0,0,17.329545,17.233318,17.218464)"/>
<path style="fill:none;stroke-width:0.0333333;stroke-linecap:butt;stroke-linejoin:miter;stroke:rgb(0%,0%,0%);stroke-opacity:1;stroke-miterlimit:10;" d="M 0.376519 0.618992 L 0.603342 1.317537 " transform="matrix(17.307692,0,0,17.329545,17.233318,17.218464)"/>
<path style="fill:none;stroke-width:0.0333333;stroke-linecap:butt;stroke-linejoin:miter;stroke:rgb(0%,0%,0%);stroke-opacity:1;stroke-miterlimit:10;" d="M 0.472665 1.484115 L 1.456242 1.484115 " transform="matrix(17.307692,0,0,17.329545,17.233318,17.218464)"/>
<path style="fill:none;stroke-width:0.0333333;stroke-linecap:butt;stroke-linejoin:miter;stroke:rgb(0%,0%,0%);stroke-opacity:1;stroke-miterlimit:10;" d="M 1.446762 1.484115 L 1.748516 0.555426 " transform="matrix(17.307692,0,0,17.329545,17.233318,17.218464)"/>
<path style="fill:none;stroke-width:0.0333333;stroke-linecap:butt;stroke-linejoin:miter;stroke:rgb(0%,0%,0%);stroke-opacity:1;stroke-miterlimit:10;" d="M 1.32579 1.317537 L 1.552613 0.618992 " transform="matrix(17.307692,0,0,17.329545,17.233318,17.218464)"/>
<path style="fill:none;stroke-width:0.0333333;stroke-linecap:butt;stroke-linejoin:miter;stroke:rgb(0%,0%,0%);stroke-opacity:1;stroke-miterlimit:10;" d="M 0.48711 1.475775 L 0.105912 2.135775 " transform="matrix(17.307692,0,0,17.329545,17.233318,17.218464)"/>
<path style="fill:none;stroke-width:0.0333333;stroke-linecap:butt;stroke-linejoin:miter;stroke:rgb(0%,0%,0%);stroke-opacity:1;stroke-miterlimit:10;" d="M 1.442023 1.475775 L 1.82954 2.147045 " transform="matrix(17.307692,0,0,17.329545,17.233318,17.218464)"/>
<path style=" stroke:none;fill-rule:nonzero;fill:rgb(0%,0%,0%);fill-opacity:1;" d="M 19.925781 78.558594 L 18.941406 76.976562 L 17.75 76.976562 L 17.75 78.558594 L 17.230469 78.558594 L 17.230469 74.746094 L 19.027344 74.746094 C 19.242188 74.746094 19.433594 74.773438 19.601562 74.820312 C 19.765625 74.863281 19.90625 74.933594 20.023438 75.027344 C 20.136719 75.121094 20.222656 75.238281 20.28125 75.371094 C 20.339844 75.511719 20.367188 75.664062 20.367188 75.828125 C 20.367188 75.953125 20.351562 76.074219 20.316406 76.195312 C 20.277344 76.3125 20.21875 76.421875 20.140625 76.519531 C 20.070312 76.617188 19.972656 76.699219 19.859375 76.769531 C 19.746094 76.835938 19.605469 76.882812 19.4375 76.910156 L 20.519531 78.558594 Z M 19.851562 75.839844 C 19.851562 75.726562 19.828125 75.621094 19.785156 75.535156 C 19.746094 75.449219 19.691406 75.378906 19.613281 75.328125 C 19.539062 75.273438 19.449219 75.230469 19.339844 75.199219 C 19.234375 75.171875 19.109375 75.15625 18.972656 75.15625 L 17.75 75.15625 L 17.75 76.5625 L 18.996094 76.5625 C 19.148438 76.5625 19.277344 76.546875 19.382812 76.511719 C 19.492188 76.476562 19.578125 76.421875 19.644531 76.359375 C 19.714844 76.292969 19.765625 76.21875 19.796875 76.132812 C 19.832031 76.039062 19.851562 75.941406 19.851562 75.839844 Z M 19.851562 75.839844 "/>
<path style=" stroke:none;fill-rule:nonzero;fill:rgb(0%,0%,0%);fill-opacity:1;" d="M 21.363281 78.558594 L 21.363281 78.144531 L 22.335938 78.144531 L 22.335938 75.210938 L 21.472656 75.816406 L 21.472656 75.363281 L 22.378906 74.746094 L 22.824219 74.746094 L 22.824219 78.144531 L 23.753906 78.144531 L 23.753906 78.558594 Z M 21.363281 78.558594 "/>
<path style=" stroke:none;fill-rule:nonzero;fill:rgb(0%,0%,0%);fill-opacity:1;" d="M 24.417969 76.238281 L 24.417969 75.839844 L 27.113281 75.839844 L 27.113281 76.238281 Z M 24.417969 77.625 L 24.417969 77.226562 L 27.113281 77.226562 L 27.113281 77.625 Z M 24.417969 77.625 "/>
<path style=" stroke:none;fill-rule:nonzero;fill:rgb(0%,0%,0%);fill-opacity:1;" d="M 17.230469 80.867188 L 17.230469 80.660156 L 18.390625 80.164062 L 17.230469 79.664062 L 17.230469 79.457031 L 18.574219 80.023438 L 18.574219 80.304688 Z M 17.230469 80.867188 "/>
<path style=" stroke:none;fill-rule:nonzero;fill:rgb(0%,0%,0%);fill-opacity:1;" d="M 20.207031 80.121094 C 20.207031 80.300781 20.1875 80.457031 20.152344 80.585938 C 20.121094 80.710938 20.074219 80.808594 20.011719 80.886719 C 19.953125 80.960938 19.882812 81.015625 19.804688 81.050781 C 19.722656 81.085938 19.636719 81.105469 19.546875 81.105469 C 19.453125 81.105469 19.363281 81.085938 19.285156 81.050781 C 19.207031 81.015625 19.136719 80.960938 19.070312 80.886719 C 19.011719 80.808594 18.964844 80.710938 18.929688 80.585938 C 18.898438 80.457031 18.886719 80.300781 18.886719 80.121094 C 18.886719 79.925781 18.898438 79.765625 18.929688 79.644531 C 18.964844 79.511719 19.011719 79.414062 19.070312 79.339844 C 19.136719 79.269531 19.207031 79.21875 19.285156 79.1875 C 19.363281 79.152344 19.453125 79.132812 19.558594 79.132812 C 19.644531 79.132812 19.722656 79.152344 19.804688 79.1875 C 19.882812 79.21875 19.953125 79.269531 20.011719 79.339844 C 20.074219 79.414062 20.121094 79.511719 20.152344 79.644531 C 20.1875 79.765625 20.207031 79.925781 20.207031 80.121094 Z M 19.96875 80.121094 C 19.96875 79.96875 19.957031 79.84375 19.933594 79.742188 C 19.917969 79.640625 19.894531 79.5625 19.859375 79.503906 C 19.820312 79.4375 19.777344 79.394531 19.730469 79.371094 C 19.679688 79.34375 19.621094 79.328125 19.558594 79.328125 C 19.484375 79.328125 19.421875 79.34375 19.371094 79.371094 C 19.320312 79.394531 19.277344 79.4375 19.242188 79.503906 C 19.207031 79.5625 19.179688 79.640625 19.15625 79.742188 C 19.140625 79.84375 19.136719 79.96875 19.136719 80.121094 C 19.136719 80.265625 19.140625 80.386719 19.15625 80.488281 C 19.179688 80.589844 19.207031 80.671875 19.242188 80.738281 C 19.277344 80.796875 19.320312 80.839844 19.371094 80.867188 C 19.421875 80.886719 19.480469 80.898438 19.546875 80.898438 C 19.609375 80.898438 19.667969 80.886719 19.71875 80.867188 C 19.769531 80.839844 19.8125 80.796875 19.847656 80.738281 C 19.882812 80.671875 19.914062 80.589844 19.933594 80.488281 C 19.957031 80.386719 19.96875 80.265625 19.96875 80.121094 Z M 19.96875 80.121094 "/>
<path style=" stroke:none;fill-rule:nonzero;fill:rgb(0%,0%,0%);fill-opacity:1;" d="M 48.492188 76.085938 C 48.277344 76.085938 48.085938 76.125 47.921875 76.195312 C 47.753906 76.269531 47.613281 76.375 47.5 76.511719 C 47.390625 76.640625 47.308594 76.800781 47.25 76.988281 C 47.191406 77.175781 47.164062 77.382812 47.164062 77.613281 C 47.164062 77.847656 47.191406 78.058594 47.25 78.253906 C 47.316406 78.441406 47.402344 78.605469 47.519531 78.742188 C 47.632812 78.878906 47.773438 78.988281 47.941406 79.066406 C 48.117188 79.140625 48.304688 79.175781 48.515625 79.175781 C 48.667969 79.175781 48.800781 79.15625 48.914062 79.121094 C 49.039062 79.078125 49.148438 79.019531 49.25 78.945312 C 49.351562 78.875 49.4375 78.792969 49.511719 78.699219 C 49.589844 78.605469 49.65625 78.496094 49.714844 78.371094 L 50.136719 78.589844 C 50.074219 78.734375 49.988281 78.867188 49.890625 78.992188 C 49.785156 79.113281 49.667969 79.222656 49.53125 79.316406 C 49.394531 79.402344 49.242188 79.472656 49.066406 79.519531 C 48.894531 79.570312 48.703125 79.597656 48.492188 79.597656 C 48.183594 79.597656 47.914062 79.546875 47.683594 79.457031 C 47.449219 79.355469 47.253906 79.21875 47.097656 79.042969 C 46.945312 78.867188 46.832031 78.65625 46.753906 78.417969 C 46.671875 78.171875 46.632812 77.90625 46.632812 77.613281 C 46.632812 77.320312 46.671875 77.050781 46.753906 76.8125 C 46.839844 76.570312 46.960938 76.363281 47.121094 76.195312 C 47.277344 76.03125 47.472656 75.902344 47.703125 75.804688 C 47.933594 75.714844 48.195312 75.664062 48.492188 75.664062 C 48.898438 75.664062 49.230469 75.746094 49.5 75.902344 C 49.773438 76.0625 49.976562 76.300781 50.105469 76.617188 L 49.617188 76.78125 C 49.582031 76.6875 49.53125 76.601562 49.46875 76.519531 C 49.40625 76.433594 49.332031 76.363281 49.242188 76.304688 C 49.144531 76.238281 49.039062 76.191406 48.914062 76.152344 C 48.792969 76.109375 48.652344 76.085938 48.492188 76.085938 Z M 48.492188 76.085938 "/>
<path style=" stroke:none;fill-rule:nonzero;fill:rgb(0%,0%,0%);fill-opacity:1;" d="M 46.140625 72.253906 L 46.855469 71.984375 L 46.972656 72.339844 L 46.21875 72.535156 L 46.714844 73.207031 L 46.390625 73.402344 L 45.988281 72.707031 L 45.566406 73.402344 L 45.242188 73.207031 L 45.75 72.535156 L 44.996094 72.339844 L 45.125 71.972656 L 45.839844 72.265625 L 45.804688 71.460938 L 46.171875 71.460938 Z M 46.140625 72.253906 "/>
<path style=" stroke:none;fill-rule:nonzero;fill:rgb(0%,0%,0%);fill-opacity:1;" d="M 49.988281 72.253906 L 50.699219 71.984375 L 50.820312 72.339844 L 50.0625 72.535156 L 50.558594 73.207031 L 50.234375 73.402344 L 49.835938 72.707031 L 49.414062 73.402344 L 49.089844 73.207031 L 49.597656 72.535156 L 48.839844 72.339844 L 48.96875 71.972656 L 49.683594 72.265625 L 49.652344 71.460938 L 50.019531 71.460938 Z M 49.988281 72.253906 "/>
<path style=" stroke:none;fill-rule:nonzero;fill:rgb(0%,0%,0%);fill-opacity:1;" d="M 51.722656 72.652344 L 51.332031 72.652344 L 51.277344 71.460938 L 51.777344 71.460938 Z M 51.722656 72.652344 "/>
<path style=" stroke:none;fill-rule:nonzero;fill:rgb(0%,0%,0%);fill-opacity:1;" d="M 62.339844 76.085938 C 62.125 76.085938 61.933594 76.125 61.765625 76.195312 C 61.597656 76.269531 61.457031 76.375 61.34375 76.511719 C 61.238281 76.640625 61.152344 76.800781 61.097656 76.988281 C 61.035156 77.175781 61.007812 77.382812 61.007812 77.613281 C 61.007812 77.847656 61.035156 78.058594 61.097656 78.253906 C 61.160156 78.441406 61.25 78.605469 61.367188 78.742188 C 61.480469 78.878906 61.621094 78.988281 61.789062 79.066406 C 61.960938 79.140625 62.152344 79.175781 62.363281 79.175781 C 62.511719 79.175781 62.644531 79.15625 62.761719 79.121094 C 62.882812 79.078125 62.996094 79.019531 63.097656 78.945312 C 63.199219 78.875 63.285156 78.792969 63.355469 78.699219 C 63.433594 78.605469 63.503906 78.496094 63.5625 78.371094 L 63.984375 78.589844 C 63.917969 78.734375 63.835938 78.867188 63.734375 78.992188 C 63.632812 79.113281 63.515625 79.222656 63.378906 79.316406 C 63.242188 79.402344 63.085938 79.472656 62.914062 79.519531 C 62.742188 79.570312 62.546875 79.597656 62.339844 79.597656 C 62.027344 79.597656 61.757812 79.546875 61.527344 79.457031 C 61.296875 79.355469 61.101562 79.21875 60.945312 79.042969 C 60.792969 78.867188 60.675781 78.65625 60.597656 78.417969 C 60.515625 78.171875 60.480469 77.90625 60.480469 77.613281 C 60.480469 77.320312 60.515625 77.050781 60.597656 76.8125 C 60.683594 76.570312 60.808594 76.363281 60.964844 76.195312 C 61.125 76.03125 61.316406 75.902344 61.550781 75.804688 C 61.78125 75.714844 62.042969 75.664062 62.339844 75.664062 C 62.742188 75.664062 63.078125 75.746094 63.347656 75.902344 C 63.621094 76.0625 63.820312 76.300781 63.953125 76.617188 L 63.464844 76.78125 C 63.425781 76.6875 63.378906 76.601562 63.3125 76.519531 C 63.253906 76.433594 63.179688 76.363281 63.085938 76.304688 C 62.992188 76.238281 62.882812 76.191406 62.761719 76.152344 C 62.636719 76.109375 62.496094 76.085938 62.339844 76.085938 Z M 62.339844 76.085938 "/>
<path style=" stroke:none;fill-rule:nonzero;fill:rgb(0%,0%,0%);fill-opacity:1;" d="M 57.195312 77.453125 L 57.910156 77.179688 L 58.03125 77.539062 L 57.273438 77.734375 L 57.769531 78.40625 L 57.445312 78.601562 L 57.046875 77.90625 L 56.625 78.601562 L 56.296875 78.40625 L 56.808594 77.734375 L 56.050781 77.539062 L 56.179688 77.171875 L 56.894531 77.464844 L 56.859375 76.660156 L 57.230469 76.660156 Z M 57.195312 77.453125 "/>
<path style=" stroke:none;fill-rule:nonzero;fill:rgb(0%,0%,0%);fill-opacity:1;" d="M 83.949219 76.085938 C 83.734375 76.085938 83.542969 76.125 83.378906 76.195312 C 83.210938 76.269531 83.070312 76.375 82.957031 76.511719 C 82.847656 76.640625 82.761719 76.800781 82.707031 76.988281 C 82.648438 77.175781 82.621094 77.382812 82.621094 77.613281 C 82.621094 77.847656 82.648438 78.058594 82.707031 78.253906 C 82.769531 78.441406 82.859375 78.605469 82.976562 78.742188 C 83.089844 78.878906 83.230469 78.988281 83.398438 79.066406 C 83.570312 79.140625 83.761719 79.175781 83.972656 79.175781 C 84.125 79.175781 84.257812 79.15625 84.371094 79.121094 C 84.492188 79.078125 84.605469 79.019531 84.707031 78.945312 C 84.808594 78.875 84.894531 78.792969 84.96875 78.699219 C 85.046875 78.605469 85.113281 78.496094 85.171875 78.371094 L 85.59375 78.589844 C 85.53125 78.734375 85.445312 78.867188 85.347656 78.992188 C 85.242188 79.113281 85.125 79.222656 84.988281 79.316406 C 84.851562 79.402344 84.695312 79.472656 84.523438 79.519531 C 84.351562 79.570312 84.160156 79.597656 83.949219 79.597656 C 83.640625 79.597656 83.367188 79.546875 83.140625 79.457031 C 82.90625 79.355469 82.710938 79.21875 82.554688 79.042969 C 82.402344 78.867188 82.289062 78.65625 82.207031 78.417969 C 82.128906 78.171875 82.089844 77.90625 82.089844 77.613281 C 82.089844 77.320312 82.128906 77.050781 82.207031 76.8125 C 82.296875 76.570312 82.417969 76.363281 82.578125 76.195312 C 82.734375 76.03125 82.929688 75.902344 83.160156 75.804688 C 83.390625 75.714844 83.652344 75.664062 83.949219 75.664062 C 84.351562 75.664062 84.6875 75.746094 84.957031 75.902344 C 85.230469 76.0625 85.433594 76.300781 85.5625 76.617188 L 85.074219 76.78125 C 85.039062 76.6875 84.988281 76.601562 84.925781 76.519531 C 84.863281 76.433594 84.789062 76.363281 84.695312 76.304688 C 84.601562 76.238281 84.492188 76.191406 84.371094 76.152344 C 84.246094 76.109375 84.105469 76.085938 83.949219 76.085938 Z M 83.949219 76.085938 "/>
<path style=" stroke:none;fill-rule:nonzero;fill:rgb(0%,0%,0%);fill-opacity:1;" d="M 88.710938 77.453125 L 89.425781 77.179688 L 89.546875 77.539062 L 88.789062 77.734375 L 89.285156 78.40625 L 88.960938 78.601562 L 88.5625 77.90625 L 88.140625 78.601562 L 87.816406 78.40625 L 88.324219 77.734375 L 87.566406 77.539062 L 87.695312 77.171875 L 88.410156 77.464844 L 88.378906 76.660156 L 88.746094 76.660156 Z M 88.710938 77.453125 "/>
<path style=" stroke:none;fill-rule:nonzero;fill:rgb(0%,0%,0%);fill-opacity:1;" d="M 90.449219 77.851562 L 90.058594 77.851562 L 90.003906 76.660156 L 90.503906 76.660156 Z M 90.449219 77.851562 "/>
<path style="fill:none;stroke-width:0.0333333;stroke-linecap:butt;stroke-linejoin:miter;stroke:rgb(0%,0%,0%);stroke-opacity:1;stroke-miterlimit:10;" d="M 0.144506 0.0834538 L 1.103933 0.0834538 " transform="matrix(17.307692,0,0,17.329545,62.233316,77.631909)"/>
<path style="fill:none;stroke-width:0.0333333;stroke-linecap:butt;stroke-linejoin:miter;stroke:rgb(0%,0%,0%);stroke-opacity:1;stroke-miterlimit:10;" d="M 0.144506 -0.0833495 L 1.103933 -0.0833495 " transform="matrix(17.307692,0,0,17.329545,62.233316,77.631909)"/>
</g>
</svg>
