<?xml version="1.0" encoding="UTF-8"?>
<svg xmlns="http://www.w3.org/2000/svg" xmlns:xlink="http://www.w3.org/1999/xlink" width="64pt" height="68.8pt" viewBox="0 0 64 68.8" version="1.1">
<g id="surface177">
<path style="fill:none;stroke-width:0.0333333;stroke-linecap:butt;stroke-linejoin:miter;stroke:rgb(0%,0%,0%);stroke-opacity:1;stroke-miterlimit:10;" d="M 0.874247 -0.0048002 L -0.00844041 0.504829 " transform="matrix(17.241379,0,0,17.2,17.137712,17.199751)"/>
<path style="fill:none;stroke-width:0.0333333;stroke-linecap:butt;stroke-linejoin:miter;stroke:rgb(0%,0%,0%);stroke-opacity:1;stroke-miterlimit:10;" d="M 0.857481 -0.0048002 L 1.740396 0.504829 " transform="matrix(17.241379,0,0,17.2,17.137712,17.199751)"/>
<path style="fill:none;stroke-width:0.0333333;stroke-linecap:butt;stroke-linejoin:miter;stroke:rgb(0%,0%,0%);stroke-opacity:1;stroke-miterlimit:10;" d="M 0.857481 0.18756 L 1.573646 0.601123 " transform="matrix(17.241379,0,0,17.2,17.137712,17.199751)"/>
<path style="fill:none;stroke-width:0.0333333;stroke-linecap:butt;stroke-linejoin:miter;stroke:rgb(0%,0%,0%);stroke-opacity:1;stroke-miterlimit:10;" d="M 0.00016897 0.490294 L 0.00016897 1.50978 " transform="matrix(17.241379,0,0,17.2,17.137712,17.199751)"/>
<path style="fill:none;stroke-width:0.0333333;stroke-linecap:butt;stroke-linejoin:miter;stroke:rgb(0%,0%,0%);stroke-opacity:1;stroke-miterlimit:10;" d="M -0.00844041 1.495245 L 0.874247 2.004875 " transform="matrix(17.241379,0,0,17.2,17.137712,17.199751)"/>
<path style="fill:none;stroke-width:0.0333333;stroke-linecap:butt;stroke-linejoin:miter;stroke:rgb(0%,0%,0%);stroke-opacity:1;stroke-miterlimit:10;" d="M 0.857481 2.004875 L 1.740396 1.495245 " transform="matrix(17.241379,0,0,17.2,17.137712,17.199751)"/>
<path style="fill:none;stroke-width:0.0333333;stroke-linecap:butt;stroke-linejoin:miter;stroke:rgb(0%,0%,0%);stroke-opacity:1;stroke-miterlimit:10;" d="M 0.857481 1.812287 L 1.573646 1.398952 " transform="matrix(17.241379,0,0,17.2,17.137712,17.199751)"/>
<path style="fill:none;stroke-width:0.0333333;stroke-linecap:butt;stroke-linejoin:miter;stroke:rgb(0%,0%,0%);stroke-opacity:1;stroke-miterlimit:10;" d="M 1.732013 1.50978 L 1.732013 0.490294 " transform="matrix(17.241379,0,0,17.2,17.137712,17.199751)"/>
</g>
</svg>
