<?xml version="1.0" encoding="UTF-8"?>
<svg xmlns="http://www.w3.org/2000/svg" xmlns:xlink="http://www.w3.org/1999/xlink" width="135.2pt" height="82.4pt" viewBox="0 0 135.2 82.4" version="1.1">
<g id="surface262">
<path style=" stroke:none;fill-rule:nonzero;fill:rgb(0%,0%,47.058824%);fill-opacity:1;" d="M 19.726562 64.988281 C 19.726562 65.285156 19.675781 65.554688 19.585938 65.796875 C 19.5 66.042969 19.371094 66.25 19.207031 66.425781 C 19.039062 66.597656 18.839844 66.730469 18.601562 66.824219 C 18.363281 66.914062 18.09375 66.964844 17.789062 66.964844 C 17.46875 66.964844 17.195312 66.914062 16.957031 66.824219 C 16.71875 66.722656 16.515625 66.585938 16.351562 66.414062 C 16.191406 66.234375 16.070312 66.023438 15.992188 65.789062 C 15.910156 65.542969 15.875 65.277344 15.875 64.988281 C 15.875 64.695312 15.910156 64.425781 15.992188 64.1875 C 16.078125 63.945312 16.203125 63.742188 16.371094 63.574219 C 16.535156 63.410156 16.738281 63.277344 16.976562 63.183594 C 17.214844 63.09375 17.488281 63.042969 17.800781 63.042969 C 18.109375 63.042969 18.382812 63.09375 18.621094 63.183594 C 18.859375 63.277344 19.058594 63.410156 19.21875 63.582031 C 19.382812 63.75 19.511719 63.949219 19.597656 64.1875 C 19.683594 64.425781 19.726562 64.695312 19.726562 64.988281 Z M 18.914062 64.988281 C 18.914062 64.789062 18.886719 64.605469 18.839844 64.449219 C 18.789062 64.292969 18.714844 64.152344 18.621094 64.039062 C 18.527344 63.925781 18.410156 63.832031 18.277344 63.765625 C 18.136719 63.703125 17.976562 63.671875 17.800781 63.671875 C 17.609375 63.671875 17.445312 63.703125 17.300781 63.765625 C 17.164062 63.832031 17.046875 63.925781 16.957031 64.039062 C 16.859375 64.152344 16.789062 64.292969 16.738281 64.449219 C 16.695312 64.605469 16.675781 64.789062 16.675781 64.988281 C 16.675781 65.191406 16.699219 65.375 16.75 65.539062 C 16.796875 65.699219 16.871094 65.839844 16.964844 65.960938 C 17.058594 66.078125 17.175781 66.171875 17.3125 66.242188 C 17.449219 66.304688 17.609375 66.339844 17.789062 66.339844 C 17.984375 66.339844 18.148438 66.304688 18.285156 66.242188 C 18.429688 66.171875 18.550781 66.078125 18.644531 65.960938 C 18.734375 65.839844 18.804688 65.695312 18.851562 65.527344 C 18.894531 65.363281 18.914062 65.183594 18.914062 64.988281 Z M 18.914062 64.988281 "/>
<path style=" stroke:none;fill-rule:nonzero;fill:rgb(0%,0%,47.058824%);fill-opacity:1;" d="M 53.117188 66.136719 L 51.453125 63.207031 C 51.464844 63.289062 51.476562 63.367188 51.484375 63.445312 C 51.488281 63.511719 51.496094 63.582031 51.496094 63.664062 C 51.5 63.742188 51.503906 63.820312 51.503906 63.890625 L 51.503906 66.136719 L 50.792969 66.136719 L 50.792969 62.332031 L 51.710938 62.332031 L 53.390625 65.28125 C 53.378906 65.210938 53.371094 65.132812 53.367188 65.042969 C 53.359375 64.972656 53.351562 64.894531 53.34375 64.808594 C 53.34375 64.71875 53.34375 64.632812 53.34375 64.535156 L 53.34375 62.332031 L 54.050781 62.332031 L 54.050781 66.136719 Z M 53.117188 66.136719 "/>
<path style=" stroke:none;fill-rule:nonzero;fill:rgb(0%,0%,47.058824%);fill-opacity:1;" d="M 85.222656 58.800781 C 85.222656 59.097656 85.171875 59.367188 85.082031 59.613281 C 84.996094 59.855469 84.867188 60.066406 84.703125 60.238281 C 84.535156 60.410156 84.335938 60.546875 84.097656 60.636719 C 83.859375 60.730469 83.589844 60.777344 83.285156 60.777344 C 82.964844 60.777344 82.691406 60.730469 82.453125 60.636719 C 82.214844 60.539062 82.011719 60.398438 81.847656 60.226562 C 81.6875 60.050781 81.566406 59.839844 81.488281 59.601562 C 81.40625 59.359375 81.371094 59.089844 81.371094 58.800781 C 81.371094 58.507812 81.40625 58.238281 81.488281 58.003906 C 81.574219 57.757812 81.699219 57.554688 81.867188 57.386719 C 82.03125 57.222656 82.234375 57.09375 82.472656 56.996094 C 82.710938 56.90625 82.984375 56.855469 83.296875 56.855469 C 83.605469 56.855469 83.878906 56.90625 84.117188 56.996094 C 84.355469 57.09375 84.554688 57.226562 84.714844 57.398438 C 84.878906 57.566406 85.007812 57.765625 85.09375 58.003906 C 85.179688 58.238281 85.222656 58.507812 85.222656 58.800781 Z M 84.410156 58.800781 C 84.410156 58.601562 84.382812 58.421875 84.335938 58.261719 C 84.285156 58.105469 84.210938 57.96875 84.117188 57.851562 C 84.023438 57.738281 83.90625 57.644531 83.773438 57.582031 C 83.632812 57.515625 83.472656 57.484375 83.296875 57.484375 C 83.105469 57.484375 82.941406 57.515625 82.796875 57.582031 C 82.660156 57.644531 82.542969 57.738281 82.453125 57.851562 C 82.355469 57.96875 82.285156 58.105469 82.234375 58.261719 C 82.191406 58.421875 82.171875 58.601562 82.171875 58.800781 C 82.171875 59.003906 82.195312 59.1875 82.246094 59.351562 C 82.296875 59.511719 82.367188 59.652344 82.460938 59.773438 C 82.554688 59.890625 82.671875 59.984375 82.808594 60.054688 C 82.945312 60.121094 83.105469 60.152344 83.285156 60.152344 C 83.480469 60.152344 83.644531 60.121094 83.78125 60.054688 C 83.925781 59.984375 84.046875 59.890625 84.140625 59.773438 C 84.230469 59.652344 84.300781 59.507812 84.347656 59.339844 C 84.390625 59.175781 84.410156 58.996094 84.410156 58.800781 Z M 84.410156 58.800781 "/>
<path style=" stroke:none;fill-rule:nonzero;fill:rgb(0%,0%,47.058824%);fill-opacity:1;" d="M 118.625 60.71875 L 116.957031 57.792969 C 116.972656 57.871094 116.984375 57.949219 116.992188 58.03125 C 116.996094 58.09375 117 58.167969 117 58.246094 C 117.007812 58.328125 117.011719 58.402344 117.011719 58.472656 L 117.011719 60.71875 L 116.296875 60.71875 L 116.296875 56.917969 L 117.21875 56.917969 L 118.894531 59.867188 C 118.886719 59.796875 118.878906 59.714844 118.875 59.628906 C 118.867188 59.558594 118.859375 59.476562 118.851562 59.390625 C 118.851562 59.304688 118.851562 59.214844 118.851562 59.121094 L 118.851562 56.917969 L 119.554688 56.917969 L 119.554688 60.71875 Z M 118.625 60.71875 "/>
<path style="fill:none;stroke-width:0.06;stroke-linecap:butt;stroke-linejoin:miter;stroke:rgb(0%,0%,47.058824%);stroke-opacity:1;stroke-miterlimit:10;" d="M 2.008485 1.001317 L 1.471351 0.117081 " transform="matrix(17.315574,0,0,17.281879,17.132082,17.257864)"/>
<path style="fill:none;stroke-width:0.06;stroke-linecap:butt;stroke-linejoin:miter;stroke:rgb(0%,0%,47.058824%);stroke-opacity:1;stroke-miterlimit:10;" d="M 1.816055 1.005837 L 1.378859 0.285927 " transform="matrix(17.315574,0,0,17.281879,17.132082,17.257864)"/>
<path style="fill:none;stroke-width:0.06;stroke-linecap:butt;stroke-linejoin:miter;stroke:rgb(0%,0%,47.058824%);stroke-opacity:1;stroke-miterlimit:10;" d="M 2.007808 0.971481 L 1.510604 1.878997 " transform="matrix(17.315574,0,0,17.281879,17.132082,17.257864)"/>
<path style="fill:none;stroke-width:0.06;stroke-linecap:butt;stroke-linejoin:miter;stroke:rgb(0%,0%,47.058824%);stroke-opacity:1;stroke-miterlimit:10;" d="M 1.49752 0.131547 L 0.463182 0.154603 " transform="matrix(17.315574,0,0,17.281879,17.132082,17.257864)"/>
<path style="fill:none;stroke-width:0.06;stroke-linecap:butt;stroke-linejoin:miter;stroke:rgb(0%,0%,47.058824%);stroke-opacity:1;stroke-miterlimit:10;" d="M 0.488899 0.139006 L -0.00830471 1.046297 " transform="matrix(17.315574,0,0,17.281879,17.132082,17.257864)"/>
<path style="fill:none;stroke-width:0.06;stroke-linecap:butt;stroke-linejoin:miter;stroke:rgb(0%,0%,47.058824%);stroke-opacity:1;stroke-miterlimit:10;" d="M 0.588837 0.303557 L 0.184125 1.042228 " transform="matrix(17.315574,0,0,17.281879,17.132082,17.257864)"/>
<path style="fill:none;stroke-width:0.06;stroke-linecap:butt;stroke-linejoin:miter;stroke:rgb(0%,0%,47.058824%);stroke-opacity:1;stroke-miterlimit:10;" d="M -0.00898148 1.016461 L 0.528152 1.900696 " transform="matrix(17.315574,0,0,17.281879,17.132082,17.257864)"/>
<path style="fill:none;stroke-width:0.06;stroke-linecap:butt;stroke-linejoin:miter;stroke:rgb(0%,0%,47.058824%);stroke-opacity:1;stroke-miterlimit:10;" d="M 0.519129 1.886004 L 1.518951 1.863627 " transform="matrix(17.315574,0,0,17.281879,17.132082,17.257864)"/>
<path style="fill:none;stroke-width:0.06;stroke-linecap:butt;stroke-linejoin:miter;stroke:rgb(0%,0%,47.058824%);stroke-opacity:1;stroke-miterlimit:10;" d="M 0.611621 1.717159 L 1.419014 1.699302 " transform="matrix(17.315574,0,0,17.281879,17.132082,17.257864)"/>
<path style="fill:none;stroke-width:0.06;stroke-linecap:butt;stroke-linejoin:miter;stroke:rgb(0%,0%,47.058824%);stroke-opacity:1;stroke-miterlimit:10;" d="M 0.527476 1.87086 L 0.14036 2.576983 " transform="matrix(17.315574,0,0,17.281879,17.132082,17.257864)"/>
<path style="fill:none;stroke-width:0.06;stroke-linecap:butt;stroke-linejoin:miter;stroke:rgb(0%,0%,47.058824%);stroke-opacity:1;stroke-miterlimit:10;" d="M 1.509928 1.848935 L 1.932912 2.545338 " transform="matrix(17.315574,0,0,17.281879,17.132082,17.257864)"/>
<path style="fill:none;stroke-width:0.06;stroke-linecap:butt;stroke-linejoin:miter;stroke:rgb(0%,0%,47.058824%);stroke-opacity:1;stroke-miterlimit:10;" d="M 4.838984 -0.0128868 L 3.994595 0.600563 " transform="matrix(17.315574,0,0,17.281879,17.132082,17.257864)"/>
<path style="fill:none;stroke-width:0.06;stroke-linecap:butt;stroke-linejoin:miter;stroke:rgb(0%,0%,47.058824%);stroke-opacity:1;stroke-miterlimit:10;" d="M 4.803567 -0.0128868 L 5.647731 0.600563 " transform="matrix(17.315574,0,0,17.281879,17.132082,17.257864)"/>
<path style="fill:none;stroke-width:0.06;stroke-linecap:butt;stroke-linejoin:miter;stroke:rgb(0%,0%,47.058824%);stroke-opacity:1;stroke-miterlimit:10;" d="M 4.005423 0.56711 L 4.321026 1.53882 " transform="matrix(17.315574,0,0,17.281879,17.132082,17.257864)"/>
<path style="fill:none;stroke-width:0.06;stroke-linecap:butt;stroke-linejoin:miter;stroke:rgb(0%,0%,47.058824%);stroke-opacity:1;stroke-miterlimit:10;" d="M 4.201462 0.630851 L 4.442169 1.372235 " transform="matrix(17.315574,0,0,17.281879,17.132082,17.257864)"/>
<path style="fill:none;stroke-width:0.06;stroke-linecap:butt;stroke-linejoin:miter;stroke:rgb(0%,0%,47.058824%);stroke-opacity:1;stroke-miterlimit:10;" d="M 4.303655 1.53882 L 5.33867 1.53882 " transform="matrix(17.315574,0,0,17.281879,17.132082,17.257864)"/>
<path style="fill:none;stroke-width:0.06;stroke-linecap:butt;stroke-linejoin:miter;stroke:rgb(0%,0%,47.058824%);stroke-opacity:1;stroke-miterlimit:10;" d="M 4.329824 1.523676 L 3.927594 2.220305 " transform="matrix(17.315574,0,0,17.281879,17.132082,17.257864)"/>
<path style="fill:none;stroke-width:0.06;stroke-linecap:butt;stroke-linejoin:miter;stroke:rgb(0%,0%,47.058824%);stroke-opacity:1;stroke-miterlimit:10;" d="M 5.3213 1.53882 L 5.636902 0.56711 " transform="matrix(17.315574,0,0,17.281879,17.132082,17.257864)"/>
<path style="fill:none;stroke-width:0.06;stroke-linecap:butt;stroke-linejoin:miter;stroke:rgb(0%,0%,47.058824%);stroke-opacity:1;stroke-miterlimit:10;" d="M 5.200157 1.372235 L 5.440863 0.630851 " transform="matrix(17.315574,0,0,17.281879,17.132082,17.257864)"/>
<path style="fill:none;stroke-width:0.06;stroke-linecap:butt;stroke-linejoin:miter;stroke:rgb(0%,0%,47.058824%);stroke-opacity:1;stroke-miterlimit:10;" d="M 5.312502 1.523676 L 5.720371 2.23025 " transform="matrix(17.315574,0,0,17.281879,17.132082,17.257864)"/>
</g>
</svg>
