<?xml version="1.0" encoding="UTF-8"?>
<svg xmlns="http://www.w3.org/2000/svg" xmlns:xlink="http://www.w3.org/1999/xlink" width="94.4pt" height="68.8pt" viewBox="0 0 94.4 68.8" version="1.1">
<g id="surface757">
<path style=" stroke:none;fill-rule:nonzero;fill:rgb(0%,0%,0%);fill-opacity:1;" d="M 18.078125 19.09375 L 16.027344 15.867188 C 16.03125 15.953125 16.039062 16.039062 16.039062 16.125 C 16.042969 16.199219 16.046875 16.277344 16.046875 16.363281 C 16.054688 16.441406 16.058594 16.511719 16.058594 16.578125 L 16.058594 19.09375 L 15.59375 19.09375 L 15.59375 15.308594 L 16.199219 15.308594 L 18.261719 18.554688 C 18.261719 18.554688 18.253906 18.464844 18.25 18.285156 C 18.242188 18.214844 18.234375 18.136719 18.230469 18.050781 C 18.230469 17.957031 18.230469 17.871094 18.230469 17.792969 L 18.230469 15.308594 L 18.695312 15.308594 L 18.695312 19.09375 Z M 18.078125 19.09375 "/>
<path style=" stroke:none;fill-rule:nonzero;fill:rgb(0%,0%,0%);fill-opacity:1;" d="M 77.363281 15.667969 C 77.148438 15.667969 76.953125 15.707031 76.789062 15.777344 C 76.621094 15.847656 76.480469 15.953125 76.367188 16.085938 C 76.257812 16.214844 76.175781 16.375 76.117188 16.558594 C 76.058594 16.75 76.03125 16.957031 76.03125 17.183594 C 76.03125 17.414062 76.058594 17.625 76.117188 17.816406 C 76.183594 18.007812 76.273438 18.167969 76.386719 18.300781 C 76.503906 18.4375 76.644531 18.546875 76.8125 18.625 C 76.984375 18.695312 77.175781 18.730469 77.386719 18.730469 C 77.539062 18.730469 77.671875 18.714844 77.789062 18.679688 C 77.910156 18.636719 78.019531 18.578125 78.125 18.507812 C 78.222656 18.4375 78.3125 18.351562 78.382812 18.257812 C 78.460938 18.167969 78.53125 18.058594 78.589844 17.9375 L 79.011719 18.152344 C 78.949219 18.296875 78.863281 18.429688 78.761719 18.550781 C 78.660156 18.671875 78.542969 18.78125 78.40625 18.871094 C 78.265625 18.957031 78.113281 19.027344 77.9375 19.074219 C 77.765625 19.125 77.574219 19.152344 77.363281 19.152344 C 77.050781 19.152344 76.78125 19.101562 76.550781 19.011719 C 76.316406 18.910156 76.121094 18.773438 75.964844 18.601562 C 75.8125 18.425781 75.695312 18.214844 75.617188 17.980469 C 75.535156 17.738281 75.5 17.472656 75.5 17.183594 C 75.5 16.890625 75.535156 16.625 75.617188 16.386719 C 75.703125 16.148438 75.828125 15.941406 75.988281 15.777344 C 76.144531 15.613281 76.339844 15.484375 76.574219 15.386719 C 76.804688 15.296875 77.066406 15.25 77.363281 15.25 C 77.769531 15.25 78.105469 15.328125 78.371094 15.484375 C 78.648438 15.644531 78.851562 15.878906 78.980469 16.195312 L 78.492188 16.355469 C 78.453125 16.265625 78.40625 16.179688 78.339844 16.097656 C 78.28125 16.011719 78.203125 15.941406 78.113281 15.882812 C 78.019531 15.820312 77.910156 15.769531 77.789062 15.734375 C 77.664062 15.691406 77.523438 15.667969 77.363281 15.667969 Z M 77.363281 15.667969 "/>
<path style="fill:none;stroke-width:0.0333333;stroke-linecap:butt;stroke-linejoin:miter;stroke:rgb(0%,0%,0%);stroke-opacity:1;stroke-miterlimit:10;" d="M 1.740289 -0.00481132 L 0.857649 0.504818 " transform="matrix(17.352941,0,0,17.2,17.144609,17.199942)"/>
<path style="fill:none;stroke-width:0.0333333;stroke-linecap:butt;stroke-linejoin:miter;stroke:rgb(0%,0%,0%);stroke-opacity:1;stroke-miterlimit:10;" d="M 1.723632 -0.00481132 L 2.598168 0.500049 " transform="matrix(17.352941,0,0,17.2,17.144609,17.199942)"/>
<path style="fill:none;stroke-width:0.0333333;stroke-linecap:butt;stroke-linejoin:miter;stroke:rgb(0%,0%,0%);stroke-opacity:1;stroke-miterlimit:10;" d="M 1.723632 0.187549 L 2.431365 0.596342 " transform="matrix(17.352941,0,0,17.2,17.144609,17.199942)"/>
<path style="fill:none;stroke-width:0.0333333;stroke-linecap:butt;stroke-linejoin:miter;stroke:rgb(0%,0%,0%);stroke-opacity:1;stroke-miterlimit:10;" d="M 0.865978 0.500049 L 0.865978 1.509769 " transform="matrix(17.352941,0,0,17.2,17.144609,17.199942)"/>
<path style="fill:none;stroke-width:0.0333333;stroke-linecap:butt;stroke-linejoin:miter;stroke:rgb(0%,0%,0%);stroke-opacity:1;stroke-miterlimit:10;" d="M 1.032556 0.596342 L 1.032556 1.413475 " transform="matrix(17.352941,0,0,17.2,17.144609,17.199942)"/>
<path style="fill:none;stroke-width:0.0333333;stroke-linecap:butt;stroke-linejoin:miter;stroke:rgb(0%,0%,0%);stroke-opacity:1;stroke-miterlimit:10;" d="M 0.857649 1.495234 L 1.740289 2.004863 " transform="matrix(17.352941,0,0,17.2,17.144609,17.199942)"/>
<path style="fill:none;stroke-width:0.0333333;stroke-linecap:butt;stroke-linejoin:miter;stroke:rgb(0%,0%,0%);stroke-opacity:1;stroke-miterlimit:10;" d="M 1.723632 2.004863 L 2.606272 1.495234 " transform="matrix(17.352941,0,0,17.2,17.144609,17.199942)"/>
<path style="fill:none;stroke-width:0.0333333;stroke-linecap:butt;stroke-linejoin:miter;stroke:rgb(0%,0%,0%);stroke-opacity:1;stroke-miterlimit:10;" d="M 1.723632 1.812276 L 2.439694 1.39894 " transform="matrix(17.352941,0,0,17.2,17.144609,17.199942)"/>
<path style="fill:none;stroke-width:0.0333333;stroke-linecap:butt;stroke-linejoin:miter;stroke:rgb(0%,0%,0%);stroke-opacity:1;stroke-miterlimit:10;" d="M 2.598168 1.509769 L 2.598168 0.490283 " transform="matrix(17.352941,0,0,17.2,17.144609,17.199942)"/>
<path style="fill:none;stroke-width:0.0333333;stroke-linecap:butt;stroke-linejoin:miter;stroke:rgb(0%,0%,0%);stroke-opacity:1;stroke-miterlimit:10;" d="M 0.874307 0.504818 L 0.165899 0.0957973 " transform="matrix(17.352941,0,0,17.2,17.144609,17.199942)"/>
<path style="fill:none;stroke-width:0.0333333;stroke-linecap:butt;stroke-linejoin:miter;stroke:rgb(0%,0%,0%);stroke-opacity:1;stroke-miterlimit:10;" d="M 2.589614 0.504818 L 3.287668 0.101929 " transform="matrix(17.352941,0,0,17.2,17.144609,17.199942)"/>
</g>
</svg>
