<?xml version="1.0" encoding="UTF-8"?>
<svg xmlns="http://www.w3.org/2000/svg" xmlns:xlink="http://www.w3.org/1999/xlink" width="64pt" height="68.8pt" viewBox="0 0 64 68.8" version="1.1">
<g id="surface1542">
<path style=" stroke:none;fill-rule:nonzero;fill:rgb(0%,0%,0%);fill-opacity:1;" d="M 32.996094 53.578125 L 30.960938 50.324219 C 30.964844 50.414062 30.96875 50.5 30.96875 50.585938 C 30.976562 50.660156 30.980469 50.738281 30.980469 50.824219 C 30.984375 50.90625 30.992188 50.976562 30.992188 51.039062 L 30.992188 53.578125 L 30.527344 53.578125 L 30.527344 49.761719 L 31.132812 49.761719 L 33.179688 53.035156 C 33.179688 53.035156 33.171875 52.945312 33.167969 52.765625 C 33.160156 52.695312 33.152344 52.613281 33.148438 52.527344 C 33.148438 52.433594 33.148438 52.347656 33.148438 52.265625 L 33.148438 49.761719 L 33.609375 49.761719 L 33.609375 53.578125 Z M 32.996094 53.578125 "/>
<path style=" stroke:none;fill-rule:nonzero;fill:rgb(0%,0%,0%);fill-opacity:1;" d="M 34.183594 49.4375 L 35.109375 49.4375 L 35.109375 48.507812 L 35.570312 48.507812 L 35.570312 49.4375 L 36.492188 49.4375 L 36.492188 49.898438 L 35.570312 49.898438 L 35.570312 50.828125 L 35.109375 50.828125 L 35.109375 49.898438 L 34.183594 49.898438 "/>
<path style="fill:none;stroke-width:0.0333333;stroke-linecap:butt;stroke-linejoin:miter;stroke:rgb(0%,0%,0%);stroke-opacity:1;stroke-miterlimit:10;" d="M 0.874277 -0.00496214 L -0.00841032 0.504871 " transform="matrix(17.241379,0,0,17.33871,17.137193,16.992287)"/>
<path style="fill:none;stroke-width:0.0333333;stroke-linecap:butt;stroke-linejoin:miter;stroke:rgb(0%,0%,0%);stroke-opacity:1;stroke-miterlimit:10;" d="M 0.857738 -0.00496214 L 1.740426 0.504871 " transform="matrix(17.241379,0,0,17.33871,17.137193,16.992287)"/>
<path style="fill:none;stroke-width:0.0333333;stroke-linecap:butt;stroke-linejoin:miter;stroke:rgb(0%,0%,0%);stroke-opacity:1;stroke-miterlimit:10;" d="M 0.857738 0.187661 L 1.573676 0.60107 " transform="matrix(17.241379,0,0,17.33871,17.137193,16.992287)"/>
<path style="fill:none;stroke-width:0.0333333;stroke-linecap:butt;stroke-linejoin:miter;stroke:rgb(0%,0%,0%);stroke-opacity:1;stroke-miterlimit:10;" d="M -0.0000275125 0.490227 L -0.0000275125 1.509667 " transform="matrix(17.241379,0,0,17.33871,17.137193,16.992287)"/>
<path style="fill:none;stroke-width:0.0333333;stroke-linecap:butt;stroke-linejoin:miter;stroke:rgb(0%,0%,0%);stroke-opacity:1;stroke-miterlimit:10;" d="M 0.166722 0.586651 L 0.166722 1.413468 " transform="matrix(17.241379,0,0,17.33871,17.137193,16.992287)"/>
<path style="fill:none;stroke-width:0.0333333;stroke-linecap:butt;stroke-linejoin:miter;stroke:rgb(0%,0%,0%);stroke-opacity:1;stroke-miterlimit:10;" d="M -0.00841032 1.495023 L 0.700051 1.904151 " transform="matrix(17.241379,0,0,17.33871,17.137193,16.992287)"/>
<path style="fill:none;stroke-width:0.0333333;stroke-linecap:butt;stroke-linejoin:miter;stroke:rgb(0%,0%,0%);stroke-opacity:1;stroke-miterlimit:10;" d="M 1.195316 1.809754 L 1.740426 1.495023 " transform="matrix(17.241379,0,0,17.33871,17.137193,16.992287)"/>
<path style="fill:none;stroke-width:0.0333333;stroke-linecap:butt;stroke-linejoin:miter;stroke:rgb(0%,0%,0%);stroke-opacity:1;stroke-miterlimit:10;" d="M 1.112168 1.665343 L 1.573676 1.398824 " transform="matrix(17.241379,0,0,17.33871,17.137193,16.992287)"/>
<path style="fill:none;stroke-width:0.0333333;stroke-linecap:butt;stroke-linejoin:miter;stroke:rgb(0%,0%,0%);stroke-opacity:1;stroke-miterlimit:10;" d="M 1.732043 1.509667 L 1.732043 0.490227 " transform="matrix(17.241379,0,0,17.33871,17.137193,16.992287)"/>
</g>
</svg>
