<?xml version="1.0" encoding="UTF-8"?>
<svg xmlns="http://www.w3.org/2000/svg" xmlns:xlink="http://www.w3.org/1999/xlink" width="100.8pt" height="91.2pt" viewBox="0 0 100.8 91.2" version="1.1">
<g id="surface12">
<path style=" stroke:none;fill-rule:nonzero;fill:rgb(0%,0%,0%);fill-opacity:1;" d="M 33 53.957031 L 30.957031 50.699219 C 30.960938 50.789062 30.96875 50.875 30.96875 50.960938 C 30.972656 51.035156 30.976562 51.113281 30.976562 51.199219 C 30.984375 51.28125 30.988281 51.351562 30.988281 51.417969 L 30.988281 53.957031 L 30.523438 53.957031 L 30.523438 50.136719 L 31.128906 50.136719 L 33.183594 53.414062 C 33.183594 53.414062 33.179688 53.328125 33.175781 53.144531 C 33.164062 53.074219 33.15625 52.992188 33.152344 52.90625 C 33.152344 52.8125 33.152344 52.726562 33.152344 52.644531 L 33.152344 50.136719 L 33.617188 50.136719 L 33.617188 53.957031 Z M 33 53.957031 "/>
<path style=" stroke:none;fill-rule:nonzero;fill:rgb(0%,0%,0%);fill-opacity:1;" d="M 34.195312 49.808594 L 35.125 49.808594 L 35.125 48.878906 L 35.585938 48.878906 L 35.585938 49.808594 L 36.515625 49.808594 L 36.515625 50.273438 L 35.585938 50.273438 L 35.585938 51.207031 L 35.125 51.207031 L 35.125 50.273438 L 34.195312 50.273438 "/>
<path style=" stroke:none;fill-rule:nonzero;fill:rgb(0%,0%,0%);fill-opacity:1;" d="M 33.097656 71.335938 L 33.097656 69.566406 L 31.042969 69.566406 L 31.042969 71.335938 L 30.523438 71.335938 L 30.523438 67.515625 L 31.042969 67.515625 L 31.042969 69.132812 L 33.097656 69.132812 L 33.097656 67.515625 L 33.617188 67.515625 L 33.617188 71.335938 Z M 33.097656 71.335938 "/>
<path style=" stroke:none;fill-rule:nonzero;fill:rgb(0%,0%,0%);fill-opacity:1;" d="M 51.273438 56.59375 C 51.273438 56.894531 51.230469 57.164062 51.144531 57.410156 C 51.058594 57.65625 50.929688 57.867188 50.765625 58.039062 C 50.605469 58.214844 50.410156 58.347656 50.171875 58.441406 C 49.9375 58.535156 49.675781 58.582031 49.382812 58.582031 C 49.0625 58.582031 48.785156 58.535156 48.546875 58.441406 C 48.316406 58.339844 48.121094 58.203125 47.964844 58.027344 C 47.804688 57.851562 47.683594 57.636719 47.605469 57.398438 C 47.527344 57.15625 47.488281 56.886719 47.488281 56.59375 C 47.488281 56.300781 47.527344 56.03125 47.605469 55.792969 C 47.695312 55.546875 47.816406 55.339844 47.976562 55.171875 C 48.140625 55.007812 48.335938 54.875 48.570312 54.78125 C 48.808594 54.6875 49.078125 54.640625 49.382812 54.640625 C 49.683594 54.640625 49.953125 54.6875 50.191406 54.78125 C 50.429688 54.875 50.628906 55.007812 50.789062 55.183594 C 50.945312 55.351562 51.0625 55.554688 51.144531 55.792969 C 51.230469 56.03125 51.273438 56.300781 51.273438 56.59375 Z M 50.742188 56.59375 C 50.742188 56.363281 50.714844 56.15625 50.65625 55.964844 C 50.597656 55.777344 50.511719 55.617188 50.398438 55.488281 C 50.28125 55.351562 50.136719 55.246094 49.964844 55.171875 C 49.796875 55.101562 49.601562 55.0625 49.382812 55.0625 C 49.15625 55.0625 48.960938 55.101562 48.785156 55.171875 C 48.613281 55.246094 48.46875 55.351562 48.351562 55.488281 C 48.246094 55.617188 48.160156 55.777344 48.105469 55.964844 C 48.046875 56.15625 48.019531 56.363281 48.019531 56.59375 C 48.019531 56.828125 48.046875 57.039062 48.105469 57.234375 C 48.160156 57.425781 48.246094 57.589844 48.363281 57.726562 C 48.476562 57.863281 48.617188 57.972656 48.785156 58.050781 C 48.960938 58.125 49.15625 58.160156 49.382812 58.160156 C 49.617188 58.160156 49.824219 58.125 49.996094 58.050781 C 50.171875 57.972656 50.3125 57.863281 50.417969 57.726562 C 50.527344 57.582031 50.605469 57.414062 50.65625 57.226562 C 50.714844 57.03125 50.742188 56.820312 50.742188 56.59375 Z M 50.742188 56.59375 "/>
<path style=" stroke:none;fill-rule:nonzero;fill:rgb(0%,0%,0%);fill-opacity:1;" d="M 51.851562 54.265625 L 54.167969 54.265625 L 54.167969 54.730469 L 51.851562 54.730469 "/>
<path style=" stroke:none;fill-rule:nonzero;fill:rgb(0%,0%,0%);fill-opacity:1;" d="M 65.730469 54.84375 C 65.515625 54.84375 65.324219 54.882812 65.15625 54.953125 C 64.992188 55.027344 64.851562 55.132812 64.734375 55.269531 C 64.628906 55.398438 64.542969 55.558594 64.488281 55.746094 C 64.429688 55.9375 64.402344 56.144531 64.402344 56.375 C 64.402344 56.609375 64.429688 56.820312 64.488281 57.015625 C 64.550781 57.207031 64.640625 57.371094 64.757812 57.503906 C 64.871094 57.644531 65.011719 57.753906 65.179688 57.832031 C 65.351562 57.902344 65.542969 57.941406 65.753906 57.941406 C 65.90625 57.941406 66.035156 57.921875 66.152344 57.886719 C 66.273438 57.839844 66.386719 57.785156 66.488281 57.710938 C 66.589844 57.640625 66.675781 57.554688 66.75 57.460938 C 66.828125 57.371094 66.894531 57.261719 66.953125 57.136719 L 67.375 57.351562 C 67.3125 57.5 67.226562 57.632812 67.125 57.753906 C 67.023438 57.878906 66.90625 57.988281 66.769531 58.082031 C 66.632812 58.167969 66.476562 58.238281 66.304688 58.285156 C 66.132812 58.335938 65.941406 58.363281 65.730469 58.363281 C 65.421875 58.363281 65.148438 58.3125 64.921875 58.222656 C 64.6875 58.121094 64.492188 57.984375 64.335938 57.808594 C 64.183594 57.628906 64.066406 57.417969 63.988281 57.179688 C 63.910156 56.933594 63.871094 56.664062 63.871094 56.375 C 63.871094 56.078125 63.910156 55.8125 63.988281 55.570312 C 64.078125 55.328125 64.199219 55.121094 64.359375 54.953125 C 64.515625 54.785156 64.710938 54.65625 64.941406 54.5625 C 65.171875 54.46875 65.433594 54.421875 65.730469 54.421875 C 66.132812 54.421875 66.46875 54.5 66.738281 54.660156 C 67.011719 54.820312 67.214844 55.058594 67.34375 55.375 L 66.855469 55.539062 C 66.820312 55.445312 66.769531 55.359375 66.703125 55.277344 C 66.644531 55.191406 66.570312 55.121094 66.476562 55.0625 C 66.382812 54.996094 66.273438 54.945312 66.152344 54.910156 C 66.027344 54.867188 65.886719 54.84375 65.730469 54.84375 Z M 65.730469 54.84375 "/>
<path style=" stroke:none;fill-rule:nonzero;fill:rgb(0%,0%,0%);fill-opacity:1;" d="M 68.144531 58.308594 L 68.144531 56.050781 C 68.144531 55.992188 68.136719 55.929688 68.132812 55.863281 C 68.132812 55.800781 68.132812 55.738281 68.132812 55.679688 C 68.132812 55.625 68.125 55.570312 68.121094 55.515625 C 68.121094 55.460938 68.121094 55.410156 68.121094 55.367188 L 68.585938 55.367188 C 68.585938 55.410156 68.585938 55.460938 68.585938 55.515625 C 68.589844 55.570312 68.597656 55.625 68.597656 55.679688 C 68.597656 55.730469 68.597656 55.785156 68.597656 55.84375 C 68.601562 55.894531 68.609375 55.9375 68.609375 55.972656 L 68.617188 55.972656 C 68.644531 55.859375 68.679688 55.761719 68.714844 55.679688 C 68.757812 55.59375 68.804688 55.527344 68.855469 55.472656 C 68.914062 55.425781 68.976562 55.382812 69.050781 55.355469 C 69.121094 55.328125 69.207031 55.3125 69.3125 55.3125 C 69.347656 55.3125 69.382812 55.316406 69.417969 55.320312 C 69.453125 55.328125 69.484375 55.339844 69.503906 55.34375 L 69.503906 55.789062 C 69.476562 55.785156 69.441406 55.777344 69.398438 55.777344 C 69.355469 55.773438 69.304688 55.765625 69.246094 55.765625 C 69.136719 55.765625 69.042969 55.792969 68.964844 55.84375 C 68.882812 55.894531 68.820312 55.960938 68.769531 56.050781 C 68.71875 56.136719 68.683594 56.246094 68.660156 56.375 C 68.640625 56.5 68.628906 56.632812 68.628906 56.777344 L 68.628906 58.308594 Z M 68.144531 58.308594 "/>
<path style=" stroke:none;fill-rule:nonzero;fill:rgb(0%,0%,0%);fill-opacity:1;" d="M 68.796875 73.75 C 68.796875 74.050781 68.753906 74.320312 68.667969 74.566406 C 68.582031 74.8125 68.453125 75.023438 68.289062 75.195312 C 68.128906 75.367188 67.933594 75.503906 67.695312 75.597656 C 67.460938 75.691406 67.199219 75.738281 66.90625 75.738281 C 66.585938 75.738281 66.308594 75.691406 66.070312 75.597656 C 65.839844 75.496094 65.644531 75.359375 65.488281 75.183594 C 65.328125 75.003906 65.210938 74.792969 65.132812 74.554688 C 65.050781 74.308594 65.011719 74.042969 65.011719 73.75 C 65.011719 73.453125 65.050781 73.1875 65.132812 72.945312 C 65.21875 72.703125 65.339844 72.496094 65.5 72.328125 C 65.664062 72.164062 65.859375 72.03125 66.09375 71.9375 C 66.332031 71.84375 66.601562 71.796875 66.90625 71.796875 C 67.207031 71.796875 67.476562 71.84375 67.714844 71.9375 C 67.953125 72.03125 68.152344 72.164062 68.3125 72.339844 C 68.46875 72.507812 68.585938 72.707031 68.667969 72.945312 C 68.753906 73.1875 68.796875 73.453125 68.796875 73.75 Z M 68.269531 73.75 C 68.269531 73.519531 68.238281 73.3125 68.179688 73.121094 C 68.121094 72.933594 68.035156 72.773438 67.921875 72.644531 C 67.804688 72.507812 67.664062 72.402344 67.488281 72.328125 C 67.320312 72.257812 67.125 72.21875 66.90625 72.21875 C 66.679688 72.21875 66.484375 72.257812 66.308594 72.328125 C 66.136719 72.402344 65.992188 72.507812 65.878906 72.644531 C 65.769531 72.773438 65.683594 72.933594 65.628906 73.121094 C 65.570312 73.3125 65.542969 73.519531 65.542969 73.75 C 65.542969 73.984375 65.570312 74.195312 65.628906 74.390625 C 65.683594 74.582031 65.773438 74.746094 65.886719 74.878906 C 66 75.019531 66.140625 75.128906 66.308594 75.207031 C 66.484375 75.28125 66.679688 75.316406 66.90625 75.316406 C 67.144531 75.316406 67.347656 75.28125 67.523438 75.207031 C 67.695312 75.128906 67.835938 75.019531 67.945312 74.878906 C 68.050781 74.738281 68.128906 74.570312 68.179688 74.378906 C 68.238281 74.183594 68.269531 73.976562 68.269531 73.75 Z M 68.269531 73.75 "/>
<path style=" stroke:none;fill-rule:nonzero;fill:rgb(0%,0%,0%);fill-opacity:1;" d="M 68.363281 38.996094 C 68.363281 39.296875 68.320312 39.566406 68.234375 39.8125 C 68.144531 40.058594 68.019531 40.269531 67.855469 40.441406 C 67.695312 40.617188 67.496094 40.75 67.257812 40.84375 C 67.027344 40.9375 66.765625 40.984375 66.46875 40.984375 C 66.152344 40.984375 65.875 40.9375 65.636719 40.84375 C 65.402344 40.742188 65.210938 40.605469 65.050781 40.429688 C 64.894531 40.25 64.773438 40.039062 64.695312 39.800781 C 64.613281 39.558594 64.578125 39.289062 64.578125 38.996094 C 64.578125 38.703125 64.613281 38.433594 64.695312 38.195312 C 64.78125 37.949219 64.902344 37.742188 65.0625 37.574219 C 65.226562 37.410156 65.425781 37.277344 65.660156 37.183594 C 65.894531 37.089844 66.167969 37.042969 66.46875 37.042969 C 66.773438 37.042969 67.042969 37.089844 67.28125 37.183594 C 67.519531 37.277344 67.714844 37.410156 67.875 37.585938 C 68.03125 37.753906 68.152344 37.953125 68.234375 38.195312 C 68.320312 38.433594 68.363281 38.703125 68.363281 38.996094 Z M 67.832031 38.996094 C 67.832031 38.765625 67.804688 38.558594 67.746094 38.367188 C 67.6875 38.179688 67.601562 38.019531 67.488281 37.890625 C 67.371094 37.753906 67.226562 37.648438 67.054688 37.574219 C 66.886719 37.503906 66.691406 37.464844 66.46875 37.464844 C 66.246094 37.464844 66.046875 37.503906 65.875 37.574219 C 65.703125 37.648438 65.554688 37.753906 65.441406 37.890625 C 65.332031 38.019531 65.25 38.179688 65.191406 38.367188 C 65.132812 38.558594 65.105469 38.765625 65.105469 38.996094 C 65.105469 39.230469 65.132812 39.441406 65.191406 39.636719 C 65.25 39.828125 65.335938 39.992188 65.453125 40.128906 C 65.566406 40.265625 65.707031 40.375 65.875 40.453125 C 66.046875 40.527344 66.246094 40.5625 66.46875 40.5625 C 66.707031 40.5625 66.914062 40.527344 67.085938 40.453125 C 67.257812 40.375 67.398438 40.265625 67.507812 40.128906 C 67.617188 39.984375 67.695312 39.816406 67.746094 39.628906 C 67.804688 39.433594 67.832031 39.222656 67.832031 38.996094 Z M 67.832031 38.996094 "/>
<path style=" stroke:none;fill-rule:nonzero;fill:rgb(0%,0%,0%);fill-opacity:1;" d="M 83.480469 54.695312 C 83.261719 54.695312 83.070312 54.734375 82.90625 54.804688 C 82.738281 54.875 82.597656 54.984375 82.484375 55.117188 C 82.375 55.25 82.292969 55.410156 82.234375 55.597656 C 82.175781 55.785156 82.148438 55.996094 82.148438 56.226562 C 82.148438 56.460938 82.175781 56.671875 82.234375 56.867188 C 82.300781 57.058594 82.390625 57.21875 82.507812 57.355469 C 82.621094 57.496094 82.761719 57.601562 82.929688 57.679688 C 83.101562 57.753906 83.289062 57.789062 83.5 57.789062 C 83.652344 57.789062 83.785156 57.773438 83.902344 57.734375 C 84.023438 57.691406 84.132812 57.636719 84.238281 57.5625 C 84.335938 57.492188 84.421875 57.40625 84.496094 57.3125 C 84.574219 57.21875 84.644531 57.109375 84.703125 56.988281 L 85.125 57.203125 C 85.058594 57.351562 84.976562 57.484375 84.875 57.605469 C 84.773438 57.730469 84.652344 57.839844 84.519531 57.929688 C 84.378906 58.019531 84.226562 58.089844 84.054688 58.136719 C 83.878906 58.1875 83.6875 58.214844 83.480469 58.214844 C 83.167969 58.214844 82.898438 58.164062 82.667969 58.074219 C 82.4375 57.972656 82.242188 57.832031 82.085938 57.660156 C 81.933594 57.480469 81.816406 57.269531 81.738281 57.03125 C 81.65625 56.785156 81.621094 56.515625 81.621094 56.226562 C 81.621094 55.929688 81.65625 55.660156 81.738281 55.421875 C 81.824219 55.179688 81.945312 54.972656 82.105469 54.804688 C 82.261719 54.636719 82.457031 54.507812 82.691406 54.414062 C 82.921875 54.320312 83.183594 54.269531 83.480469 54.269531 C 83.882812 54.269531 84.21875 54.351562 84.484375 54.511719 C 84.757812 54.671875 84.960938 54.910156 85.089844 55.226562 L 84.605469 55.390625 C 84.566406 55.296875 84.519531 55.210938 84.453125 55.128906 C 84.394531 55.042969 84.316406 54.972656 84.226562 54.910156 C 84.132812 54.847656 84.023438 54.796875 83.902344 54.761719 C 83.777344 54.714844 83.636719 54.695312 83.480469 54.695312 Z M 83.480469 54.695312 "/>
<path style=" stroke:none;fill-rule:nonzero;fill:rgb(0%,0%,0%);fill-opacity:1;" d="M 85.878906 58.160156 L 85.878906 54.128906 L 86.367188 54.128906 L 86.367188 58.160156 Z M 85.878906 58.160156 "/>
<path style="fill:none;stroke-width:0.0333333;stroke-linecap:butt;stroke-linejoin:miter;stroke:rgb(0%,0%,0%);stroke-opacity:1;stroke-miterlimit:10;" d="M 0.874258 -0.00488313 L -0.00820727 0.504695 " transform="matrix(17.307692,0,0,17.378049,17.083455,17.291891)"/>
<path style="fill:none;stroke-width:0.0333333;stroke-linecap:butt;stroke-linejoin:miter;stroke:rgb(0%,0%,0%);stroke-opacity:1;stroke-miterlimit:10;" d="M 0.857557 -0.00488313 L 1.740473 0.504695 " transform="matrix(17.307692,0,0,17.378049,17.083455,17.291891)"/>
<path style="fill:none;stroke-width:0.0333333;stroke-linecap:butt;stroke-linejoin:miter;stroke:rgb(0%,0%,0%);stroke-opacity:1;stroke-miterlimit:10;" d="M 0.857557 0.187529 L 1.573685 0.601126 " transform="matrix(17.307692,0,0,17.378049,17.083455,17.291891)"/>
<path style="fill:none;stroke-width:0.0333333;stroke-linecap:butt;stroke-linejoin:miter;stroke:rgb(0%,0%,0%);stroke-opacity:1;stroke-miterlimit:10;" d="M -0.0000822744 0.490534 L -0.0000822744 1.509689 " transform="matrix(17.307692,0,0,17.378049,17.083455,17.291891)"/>
<path style="fill:none;stroke-width:0.0333333;stroke-linecap:butt;stroke-linejoin:miter;stroke:rgb(0%,0%,0%);stroke-opacity:1;stroke-miterlimit:10;" d="M 0.166706 0.58674 L 0.166706 1.413483 " transform="matrix(17.307692,0,0,17.378049,17.083455,17.291891)"/>
<path style="fill:none;stroke-width:0.0333333;stroke-linecap:butt;stroke-linejoin:miter;stroke:rgb(0%,0%,0%);stroke-opacity:1;stroke-miterlimit:10;" d="M -0.00820727 1.495078 L 0.700248 1.904179 " transform="matrix(17.307692,0,0,17.378049,17.083455,17.291891)"/>
<path style="fill:none;stroke-width:0.0333333;stroke-linecap:butt;stroke-linejoin:miter;stroke:rgb(0%,0%,0%);stroke-opacity:1;stroke-miterlimit:10;" d="M 1.195421 1.809771 L 1.740473 1.495078 " transform="matrix(17.307692,0,0,17.378049,17.083455,17.291891)"/>
<path style="fill:none;stroke-width:0.0333333;stroke-linecap:butt;stroke-linejoin:miter;stroke:rgb(0%,0%,0%);stroke-opacity:1;stroke-miterlimit:10;" d="M 1.111914 1.665687 L 1.573685 1.399097 " transform="matrix(17.307692,0,0,17.378049,17.083455,17.291891)"/>
<path style="fill:none;stroke-width:0.0333333;stroke-linecap:butt;stroke-linejoin:miter;stroke:rgb(0%,0%,0%);stroke-opacity:1;stroke-miterlimit:10;" d="M 1.732123 1.509689 L 1.732123 0.490534 " transform="matrix(17.307692,0,0,17.378049,17.083455,17.291891)"/>
<path style="fill:none;stroke-width:0.0333333;stroke-linecap:butt;stroke-linejoin:miter;stroke:rgb(0%,0%,0%);stroke-opacity:1;stroke-miterlimit:10;" d="M 0.866133 2.153461 L 0.866133 2.846685 " transform="matrix(17.307692,0,0,17.378049,17.083455,17.291891)"/>
<path style="fill:none;stroke-width:0.0333333;stroke-linecap:butt;stroke-linejoin:miter;stroke:rgb(0%,0%,0%);stroke-opacity:1;stroke-miterlimit:10;" d="M 2.187123 2.258659 L 2.658824 2.252589 " transform="matrix(17.307692,0,0,17.378049,17.083455,17.291891)"/>
<path style="fill:none;stroke-width:0.0333333;stroke-linecap:butt;stroke-linejoin:miter;stroke:rgb(0%,0%,0%);stroke-opacity:1;stroke-miterlimit:10;" d="M 2.784761 2.410161 L 2.793338 3.09237 " transform="matrix(17.307692,0,0,17.378049,17.083455,17.291891)"/>
<path style="fill:none;stroke-width:0.0333333;stroke-linecap:butt;stroke-linejoin:miter;stroke:rgb(0%,0%,0%);stroke-opacity:1;stroke-miterlimit:10;" d="M 2.951324 2.408138 L 2.9599 3.090347 " transform="matrix(17.307692,0,0,17.378049,17.083455,17.291891)"/>
<path style="fill:none;stroke-width:0.0333333;stroke-linecap:butt;stroke-linejoin:miter;stroke:rgb(0%,0%,0%);stroke-opacity:1;stroke-miterlimit:10;" d="M 2.947261 2.089848 L 2.938685 1.407639 " transform="matrix(17.307692,0,0,17.378049,17.083455,17.291891)"/>
<path style="fill:none;stroke-width:0.0333333;stroke-linecap:butt;stroke-linejoin:miter;stroke:rgb(0%,0%,0%);stroke-opacity:1;stroke-miterlimit:10;" d="M 2.780699 2.092096 L 2.772123 1.409887 " transform="matrix(17.307692,0,0,17.378049,17.083455,17.291891)"/>
<path style="fill:none;stroke-width:0.0333333;stroke-linecap:butt;stroke-linejoin:miter;stroke:rgb(0%,0%,0%);stroke-opacity:1;stroke-miterlimit:10;" d="M 3.073425 2.24742 L 3.684154 2.239552 " transform="matrix(17.307692,0,0,17.378049,17.083455,17.291891)"/>
</g>
</svg>
