<?xml version="1.0" encoding="UTF-8"?>
<svg xmlns="http://www.w3.org/2000/svg" xmlns:xlink="http://www.w3.org/1999/xlink" width="144pt" height="96.8pt" viewBox="0 0 144 96.8" version="1.1">
<g id="surface1582">
<path style=" stroke:none;fill-rule:nonzero;fill:rgb(0%,0%,0%);fill-opacity:1;" d="M 68.226562 44.34375 C 68.226562 44.660156 68.175781 44.941406 68.082031 45.1875 C 67.988281 45.421875 67.859375 45.625 67.691406 45.789062 C 67.523438 45.957031 67.328125 46.082031 67.09375 46.167969 C 66.871094 46.25 66.628906 46.289062 66.367188 46.289062 L 64.933594 46.289062 L 64.933594 42.484375 L 66.203125 42.484375 C 66.492188 42.484375 66.761719 42.523438 67.007812 42.59375 C 67.261719 42.664062 67.476562 42.777344 67.660156 42.929688 C 67.839844 43.078125 67.976562 43.273438 68.074219 43.511719 C 68.171875 43.742188 68.226562 44.019531 68.226562 44.34375 Z M 67.703125 44.34375 C 67.703125 44.082031 67.664062 43.863281 67.59375 43.683594 C 67.523438 43.507812 67.414062 43.359375 67.28125 43.242188 C 67.148438 43.121094 66.988281 43.035156 66.800781 42.980469 C 66.613281 42.925781 66.410156 42.894531 66.195312 42.894531 L 65.457031 42.894531 L 65.457031 45.878906 L 66.304688 45.878906 C 66.503906 45.878906 66.6875 45.84375 66.855469 45.78125 C 67.03125 45.714844 67.175781 45.617188 67.300781 45.488281 C 67.433594 45.359375 67.53125 45.203125 67.59375 45.011719 C 67.664062 44.820312 67.703125 44.597656 67.703125 44.34375 Z M 67.703125 44.34375 "/>
<path style=" stroke:none;fill-rule:nonzero;fill:rgb(0%,0%,0%);fill-opacity:1;" d="M 128.410156 44.34375 C 128.410156 44.660156 128.363281 44.941406 128.269531 45.1875 C 128.175781 45.421875 128.042969 45.625 127.878906 45.789062 C 127.710938 45.957031 127.511719 46.082031 127.28125 46.167969 C 127.054688 46.25 126.816406 46.289062 126.554688 46.289062 L 125.121094 46.289062 L 125.121094 42.484375 L 126.390625 42.484375 C 126.679688 42.484375 126.949219 42.523438 127.195312 42.59375 C 127.449219 42.664062 127.664062 42.777344 127.847656 42.929688 C 128.027344 43.078125 128.164062 43.273438 128.257812 43.511719 C 128.359375 43.742188 128.410156 44.019531 128.410156 44.34375 Z M 127.890625 44.34375 C 127.890625 44.082031 127.851562 43.863281 127.78125 43.683594 C 127.707031 43.507812 127.601562 43.359375 127.464844 43.242188 C 127.335938 43.121094 127.175781 43.035156 126.988281 42.980469 C 126.796875 42.925781 126.597656 42.894531 126.378906 42.894531 L 125.640625 42.894531 L 125.640625 45.878906 L 126.488281 45.878906 C 126.691406 45.878906 126.875 45.84375 127.042969 45.78125 C 127.214844 45.714844 127.363281 45.617188 127.488281 45.488281 C 127.617188 45.359375 127.714844 45.203125 127.78125 45.011719 C 127.851562 44.820312 127.890625 44.597656 127.890625 44.34375 Z M 127.890625 44.34375 "/>
<path style=" stroke:none;fill-rule:nonzero;fill:rgb(0%,0%,0%);fill-opacity:1;" d="M 128.410156 78.914062 C 128.410156 79.234375 128.363281 79.515625 128.269531 79.757812 C 128.175781 79.996094 128.042969 80.199219 127.878906 80.363281 C 127.710938 80.53125 127.511719 80.652344 127.28125 80.742188 C 127.054688 80.820312 126.816406 80.859375 126.554688 80.859375 L 125.121094 80.859375 L 125.121094 77.054688 L 126.390625 77.054688 C 126.679688 77.054688 126.949219 77.09375 127.195312 77.164062 C 127.449219 77.238281 127.664062 77.347656 127.847656 77.5 C 128.027344 77.652344 128.164062 77.84375 128.257812 78.082031 C 128.359375 78.316406 128.410156 78.589844 128.410156 78.914062 Z M 127.890625 78.914062 C 127.890625 78.65625 127.851562 78.4375 127.78125 78.253906 C 127.707031 78.078125 127.601562 77.929688 127.464844 77.8125 C 127.335938 77.691406 127.175781 77.605469 126.988281 77.554688 C 126.796875 77.496094 126.597656 77.46875 126.378906 77.46875 L 125.640625 77.46875 L 125.640625 80.449219 L 126.488281 80.449219 C 126.691406 80.449219 126.875 80.417969 127.042969 80.351562 C 127.214844 80.285156 127.363281 80.191406 127.488281 80.058594 C 127.617188 79.929688 127.714844 79.773438 127.78125 79.585938 C 127.851562 79.390625 127.890625 79.167969 127.890625 78.914062 Z M 127.890625 78.914062 "/>
<path style=" stroke:none;fill-rule:nonzero;fill:rgb(0%,0%,0%);fill-opacity:1;" d="M 68.226562 78.914062 C 68.226562 79.234375 68.175781 79.515625 68.082031 79.757812 C 67.988281 79.996094 67.859375 80.199219 67.691406 80.363281 C 67.523438 80.53125 67.328125 80.652344 67.09375 80.742188 C 66.871094 80.820312 66.628906 80.859375 66.367188 80.859375 L 64.933594 80.859375 L 64.933594 77.054688 L 66.203125 77.054688 C 66.492188 77.054688 66.761719 77.09375 67.007812 77.164062 C 67.261719 77.238281 67.476562 77.347656 67.660156 77.5 C 67.839844 77.652344 67.976562 77.84375 68.074219 78.082031 C 68.171875 78.316406 68.226562 78.589844 68.226562 78.914062 Z M 67.703125 78.914062 C 67.703125 78.65625 67.664062 78.4375 67.59375 78.253906 C 67.523438 78.078125 67.414062 77.929688 67.28125 77.8125 C 67.148438 77.691406 66.988281 77.605469 66.800781 77.554688 C 66.613281 77.496094 66.410156 77.46875 66.195312 77.46875 L 65.457031 77.46875 L 65.457031 80.449219 L 66.304688 80.449219 C 66.503906 80.449219 66.6875 80.417969 66.855469 80.351562 C 67.03125 80.285156 67.175781 80.191406 67.300781 80.058594 C 67.433594 79.929688 67.53125 79.773438 67.59375 79.585938 C 67.664062 79.390625 67.703125 79.167969 67.703125 78.914062 Z M 67.703125 78.914062 "/>
<path style=" stroke:none;fill-rule:nonzero;fill:rgb(0%,0%,0%);fill-opacity:1;" d="M 26.664062 15.683594 C 26.449219 15.683594 26.253906 15.722656 26.089844 15.792969 C 25.921875 15.863281 25.78125 15.96875 25.664062 16.105469 C 25.558594 16.234375 25.472656 16.394531 25.414062 16.582031 C 25.355469 16.769531 25.328125 16.976562 25.328125 17.207031 C 25.328125 17.441406 25.355469 17.648438 25.414062 17.84375 C 25.480469 18.035156 25.570312 18.195312 25.6875 18.332031 C 25.800781 18.46875 25.941406 18.578125 26.109375 18.65625 C 26.285156 18.726562 26.472656 18.761719 26.6875 18.761719 C 26.839844 18.761719 26.972656 18.746094 27.089844 18.710938 C 27.210938 18.664062 27.320312 18.609375 27.425781 18.535156 C 27.523438 18.464844 27.613281 18.382812 27.683594 18.289062 C 27.765625 18.195312 27.832031 18.085938 27.890625 17.964844 L 28.316406 18.179688 C 28.25 18.324219 28.164062 18.457031 28.066406 18.578125 C 27.960938 18.703125 27.84375 18.8125 27.707031 18.902344 C 27.570312 18.988281 27.414062 19.058594 27.238281 19.109375 C 27.066406 19.15625 26.875 19.183594 26.664062 19.183594 C 26.351562 19.183594 26.082031 19.136719 25.851562 19.042969 C 25.617188 18.945312 25.421875 18.804688 25.261719 18.632812 C 25.113281 18.457031 24.996094 18.246094 24.917969 18.007812 C 24.835938 17.765625 24.796875 17.496094 24.796875 17.207031 C 24.796875 16.914062 24.835938 16.644531 24.917969 16.40625 C 25.003906 16.164062 25.125 15.960938 25.285156 15.792969 C 25.441406 15.628906 25.636719 15.496094 25.871094 15.402344 C 26.101562 15.3125 26.367188 15.261719 26.664062 15.261719 C 27.070312 15.261719 27.40625 15.34375 27.675781 15.5 C 27.949219 15.660156 28.152344 15.898438 28.28125 16.214844 L 27.792969 16.375 C 27.753906 16.285156 27.707031 16.195312 27.640625 16.117188 C 27.582031 16.03125 27.507812 15.960938 27.414062 15.898438 C 27.320312 15.835938 27.210938 15.785156 27.089844 15.75 C 26.964844 15.707031 26.820312 15.683594 26.664062 15.683594 Z M 26.664062 15.683594 "/>
<path style=" stroke:none;fill-rule:nonzero;fill:rgb(0%,0%,0%);fill-opacity:1;" d="M 113.535156 15.683594 C 113.320312 15.683594 113.128906 15.722656 112.960938 15.792969 C 112.792969 15.863281 112.652344 15.96875 112.539062 16.105469 C 112.429688 16.234375 112.34375 16.394531 112.289062 16.582031 C 112.230469 16.769531 112.203125 16.976562 112.203125 17.207031 C 112.203125 17.441406 112.230469 17.648438 112.289062 17.84375 C 112.351562 18.035156 112.441406 18.195312 112.558594 18.332031 C 112.671875 18.46875 112.816406 18.578125 112.984375 18.65625 C 113.15625 18.726562 113.347656 18.761719 113.558594 18.761719 C 113.710938 18.761719 113.84375 18.746094 113.960938 18.710938 C 114.082031 18.664062 114.195312 18.609375 114.296875 18.535156 C 114.398438 18.464844 114.484375 18.382812 114.558594 18.289062 C 114.636719 18.195312 114.703125 18.085938 114.765625 17.964844 L 115.1875 18.179688 C 115.121094 18.324219 115.039062 18.457031 114.9375 18.578125 C 114.835938 18.703125 114.714844 18.8125 114.578125 18.902344 C 114.441406 18.988281 114.285156 19.058594 114.113281 19.109375 C 113.9375 19.15625 113.746094 19.183594 113.535156 19.183594 C 113.226562 19.183594 112.953125 19.136719 112.722656 19.042969 C 112.488281 18.945312 112.292969 18.804688 112.136719 18.632812 C 111.984375 18.457031 111.867188 18.246094 111.789062 18.007812 C 111.707031 17.765625 111.667969 17.496094 111.667969 17.207031 C 111.667969 16.914062 111.707031 16.644531 111.789062 16.40625 C 111.875 16.164062 111.996094 15.960938 112.15625 15.792969 C 112.316406 15.628906 112.511719 15.496094 112.746094 15.402344 C 112.976562 15.3125 113.238281 15.261719 113.535156 15.261719 C 113.941406 15.261719 114.277344 15.34375 114.546875 15.5 C 114.820312 15.660156 115.023438 15.898438 115.15625 16.214844 L 114.667969 16.375 C 114.628906 16.285156 114.578125 16.195312 114.515625 16.117188 C 114.453125 16.03125 114.378906 15.960938 114.285156 15.898438 C 114.191406 15.835938 114.082031 15.785156 113.960938 15.75 C 113.835938 15.707031 113.695312 15.683594 113.535156 15.683594 Z M 113.535156 15.683594 "/>
<path style="fill:none;stroke-width:0.0333333;stroke-linecap:butt;stroke-linejoin:miter;stroke:rgb(0%,0%,0%);stroke-opacity:1;stroke-miterlimit:10;" d="M 4.588494 1.566651 L 3.70605 2.076239 " transform="matrix(17.374517,0,0,17.285714,17.093539,17.224)"/>
<path style="fill:none;stroke-width:0.0333333;stroke-linecap:butt;stroke-linejoin:miter;stroke:rgb(0%,0%,0%);stroke-opacity:1;stroke-miterlimit:10;" d="M 3.714369 2.071494 L 3.714369 3.071462 " transform="matrix(17.374517,0,0,17.285714,17.093539,17.224)"/>
<path style="fill:none;stroke-width:0.0333333;stroke-linecap:butt;stroke-linejoin:miter;stroke:rgb(0%,0%,0%);stroke-opacity:1;stroke-miterlimit:10;" d="M 3.880965 2.167536 L 3.880965 2.975193 " transform="matrix(17.374517,0,0,17.285714,17.093539,17.224)"/>
<path style="fill:none;stroke-width:0.0333333;stroke-linecap:butt;stroke-linejoin:miter;stroke:rgb(0%,0%,0%);stroke-opacity:1;stroke-miterlimit:10;" d="M 3.70605 3.06649 L 4.588494 3.576304 " transform="matrix(17.374517,0,0,17.285714,17.093539,17.224)"/>
<path style="fill:none;stroke-width:0.0333333;stroke-linecap:butt;stroke-linejoin:miter;stroke:rgb(0%,0%,0%);stroke-opacity:1;stroke-miterlimit:10;" d="M 4.571857 3.576304 L 5.446431 3.071462 " transform="matrix(17.374517,0,0,17.285714,17.093539,17.224)"/>
<path style="fill:none;stroke-width:0.0333333;stroke-linecap:butt;stroke-linejoin:miter;stroke:rgb(0%,0%,0%);stroke-opacity:1;stroke-miterlimit:10;" d="M 4.571857 3.383768 L 5.27961 2.975193 " transform="matrix(17.374517,0,0,17.285714,17.093539,17.224)"/>
<path style="fill:none;stroke-width:0.0333333;stroke-linecap:butt;stroke-linejoin:miter;stroke:rgb(0%,0%,0%);stroke-opacity:1;stroke-miterlimit:10;" d="M 5.446431 3.081179 L 5.446431 2.061777 " transform="matrix(17.374517,0,0,17.285714,17.093539,17.224)"/>
<path style="fill:none;stroke-width:0.0333333;stroke-linecap:butt;stroke-linejoin:miter;stroke:rgb(0%,0%,0%);stroke-opacity:1;stroke-miterlimit:10;" d="M 4.571857 1.566651 L 5.446431 2.071494 " transform="matrix(17.374517,0,0,17.285714,17.093539,17.224)"/>
<path style="fill:none;stroke-width:0.0333333;stroke-linecap:butt;stroke-linejoin:miter;stroke:rgb(0%,0%,0%);stroke-opacity:1;stroke-miterlimit:10;" d="M 4.571857 1.758962 L 5.27961 2.167536 " transform="matrix(17.374517,0,0,17.285714,17.093539,17.224)"/>
<path style="fill:none;stroke-width:0.0333333;stroke-linecap:butt;stroke-linejoin:miter;stroke:rgb(0%,0%,0%);stroke-opacity:1;stroke-miterlimit:10;" d="M 3.722688 2.076239 L 3.018306 1.669473 " transform="matrix(17.374517,0,0,17.285714,17.093539,17.224)"/>
<path style="fill:none;stroke-width:0.0333333;stroke-linecap:butt;stroke-linejoin:miter;stroke:rgb(0%,0%,0%);stroke-opacity:1;stroke-miterlimit:10;" d="M 5.437888 2.076239 L 6.142494 1.669473 " transform="matrix(17.374517,0,0,17.285714,17.093539,17.224)"/>
<path style="fill:none;stroke-width:0.0333333;stroke-linecap:butt;stroke-linejoin:miter;stroke:rgb(0%,0%,0%);stroke-opacity:1;stroke-miterlimit:10;" d="M 5.437888 3.06649 L 6.142494 3.473256 " transform="matrix(17.374517,0,0,17.285714,17.093539,17.224)"/>
<path style="fill:none;stroke-width:0.0333333;stroke-linecap:butt;stroke-linejoin:miter;stroke:rgb(0%,0%,0%);stroke-opacity:1;stroke-miterlimit:10;" d="M 3.722688 3.06649 L 3.018306 3.473256 " transform="matrix(17.374517,0,0,17.285714,17.093539,17.224)"/>
<path style="fill:none;stroke-width:0.0333333;stroke-linecap:butt;stroke-linejoin:miter;stroke:rgb(0%,0%,0%);stroke-opacity:1;stroke-miterlimit:10;" d="M 0.874362 1.60213 L -0.00830642 2.111944 " transform="matrix(17.374517,0,0,17.285714,17.093539,17.224)"/>
<path style="fill:none;stroke-width:0.0333333;stroke-linecap:butt;stroke-linejoin:miter;stroke:rgb(0%,0%,0%);stroke-opacity:1;stroke-miterlimit:10;" d="M 0.0000121578 2.097482 L 0.0000121578 3.116658 " transform="matrix(17.374517,0,0,17.285714,17.093539,17.224)"/>
<path style="fill:none;stroke-width:0.0333333;stroke-linecap:butt;stroke-linejoin:miter;stroke:rgb(0%,0%,0%);stroke-opacity:1;stroke-miterlimit:10;" d="M 0.166609 2.19375 L 0.166609 3.020616 " transform="matrix(17.374517,0,0,17.285714,17.093539,17.224)"/>
<path style="fill:none;stroke-width:0.0333333;stroke-linecap:butt;stroke-linejoin:miter;stroke:rgb(0%,0%,0%);stroke-opacity:1;stroke-miterlimit:10;" d="M -0.00830642 3.102421 L 0.874362 3.612009 " transform="matrix(17.374517,0,0,17.285714,17.093539,17.224)"/>
<path style="fill:none;stroke-width:0.0333333;stroke-linecap:butt;stroke-linejoin:miter;stroke:rgb(0%,0%,0%);stroke-opacity:1;stroke-miterlimit:10;" d="M 0.857725 3.612009 L 1.740393 3.102421 " transform="matrix(17.374517,0,0,17.285714,17.093539,17.224)"/>
<path style="fill:none;stroke-width:0.0333333;stroke-linecap:butt;stroke-linejoin:miter;stroke:rgb(0%,0%,0%);stroke-opacity:1;stroke-miterlimit:10;" d="M 0.857725 3.419473 L 1.573572 3.006153 " transform="matrix(17.374517,0,0,17.285714,17.093539,17.224)"/>
<path style="fill:none;stroke-width:0.0333333;stroke-linecap:butt;stroke-linejoin:miter;stroke:rgb(0%,0%,0%);stroke-opacity:1;stroke-miterlimit:10;" d="M 1.73185 3.116658 L 1.73185 2.097482 " transform="matrix(17.374517,0,0,17.285714,17.093539,17.224)"/>
<path style="fill:none;stroke-width:0.0333333;stroke-linecap:butt;stroke-linejoin:miter;stroke:rgb(0%,0%,0%);stroke-opacity:1;stroke-miterlimit:10;" d="M 0.857725 1.60213 L 1.740393 2.111944 " transform="matrix(17.374517,0,0,17.285714,17.093539,17.224)"/>
<path style="fill:none;stroke-width:0.0333333;stroke-linecap:butt;stroke-linejoin:miter;stroke:rgb(0%,0%,0%);stroke-opacity:1;stroke-miterlimit:10;" d="M 0.857725 1.794667 L 1.573572 2.208213 " transform="matrix(17.374517,0,0,17.285714,17.093539,17.224)"/>
<path style="fill:none;stroke-width:0.0333333;stroke-linecap:butt;stroke-linejoin:miter;stroke:rgb(0%,0%,0%);stroke-opacity:1;stroke-miterlimit:10;" d="M 0.689105 -0.0000777455 L 1.544569 -0.0000777455 " transform="matrix(17.374517,0,0,17.285714,17.093539,17.224)"/>
<path style="fill:none;stroke-width:0.0333333;stroke-linecap:butt;stroke-linejoin:miter;stroke:rgb(0%,0%,0%);stroke-opacity:1;stroke-miterlimit:10;" d="M 1.544569 -0.0000777455 L 2.544597 -0.0000777455 " transform="matrix(17.374517,0,0,17.285714,17.093539,17.224)"/>
<path style="fill:none;stroke-width:0.0333333;stroke-linecap:butt;stroke-linejoin:miter;stroke:rgb(0%,0%,0%);stroke-opacity:1;stroke-miterlimit:10;" d="M 1.544569 0.166697 L 2.544597 0.166697 " transform="matrix(17.374517,0,0,17.285714,17.093539,17.224)"/>
<path style="fill:none;stroke-width:0.0333333;stroke-linecap:butt;stroke-linejoin:miter;stroke:rgb(0%,0%,0%);stroke-opacity:1;stroke-miterlimit:10;" d="M 1.544569 -0.166852 L 2.544597 -0.166852 " transform="matrix(17.374517,0,0,17.285714,17.093539,17.224)"/>
<path style="fill:none;stroke-width:0.0333333;stroke-linecap:butt;stroke-linejoin:miter;stroke:rgb(0%,0%,0%);stroke-opacity:1;stroke-miterlimit:10;" d="M 2.544597 -0.0000777455 L 3.544625 -0.0000777455 " transform="matrix(17.374517,0,0,17.285714,17.093539,17.224)"/>
<path style="fill:none;stroke-width:0.0333333;stroke-linecap:butt;stroke-linejoin:miter;stroke:rgb(0%,0%,0%);stroke-opacity:1;stroke-miterlimit:10;" d="M 3.544625 -0.0000777455 L 4.544653 -0.0000777455 " transform="matrix(17.374517,0,0,17.285714,17.093539,17.224)"/>
<path style="fill:none;stroke-width:0.0333333;stroke-linecap:butt;stroke-linejoin:miter;stroke:rgb(0%,0%,0%);stroke-opacity:1;stroke-miterlimit:10;" d="M 3.544625 0.166697 L 4.544653 0.166697 " transform="matrix(17.374517,0,0,17.285714,17.093539,17.224)"/>
<path style="fill:none;stroke-width:0.0333333;stroke-linecap:butt;stroke-linejoin:miter;stroke:rgb(0%,0%,0%);stroke-opacity:1;stroke-miterlimit:10;" d="M 3.544625 -0.166852 L 4.544653 -0.166852 " transform="matrix(17.374517,0,0,17.285714,17.093539,17.224)"/>
<path style="fill:none;stroke-width:0.0333333;stroke-linecap:butt;stroke-linejoin:miter;stroke:rgb(0%,0%,0%);stroke-opacity:1;stroke-miterlimit:10;" d="M 4.544653 -0.0000777455 L 5.400117 -0.0000777455 " transform="matrix(17.374517,0,0,17.285714,17.093539,17.224)"/>
</g>
</svg>
