<?xml version="1.0" encoding="UTF-8"?>
<svg xmlns="http://www.w3.org/2000/svg" xmlns:xlink="http://www.w3.org/1999/xlink" width="64pt" height="68.8pt" viewBox="0 0 64 68.8" version="1.1">
<g id="surface1482">
<path style=" stroke:none;fill-rule:nonzero;fill:rgb(0%,0%,0%);fill-opacity:1;" d="M 32.574219 33.625 C 32.574219 33.792969 32.542969 33.945312 32.488281 34.089844 C 32.425781 34.226562 32.347656 34.347656 32.238281 34.453125 C 32.132812 34.5625 31.992188 34.648438 31.828125 34.710938 C 31.671875 34.769531 31.480469 34.796875 31.257812 34.796875 L 30.148438 34.796875 L 30.148438 36.269531 L 29.632812 36.269531 L 29.632812 32.488281 L 31.226562 32.488281 C 31.453125 32.488281 31.652344 32.515625 31.820312 32.574219 C 31.984375 32.625 32.121094 32.699219 32.226562 32.796875 C 32.339844 32.898438 32.425781 33.019531 32.488281 33.164062 C 32.542969 33.300781 32.574219 33.453125 32.574219 33.625 Z M 32.054688 33.625 C 32.054688 33.390625 31.980469 33.210938 31.828125 33.089844 C 31.683594 32.960938 31.464844 32.894531 31.171875 32.894531 L 30.148438 32.894531 L 30.148438 34.390625 L 31.195312 34.390625 C 31.488281 34.390625 31.703125 34.324219 31.839844 34.195312 C 31.984375 34.0625 32.054688 33.871094 32.054688 33.625 Z M 32.054688 33.625 "/>
<path style=" stroke:none;fill-rule:nonzero;fill:rgb(0%,0%,0%);fill-opacity:1;" d="M 34.507812 36.25 C 34.425781 36.269531 34.347656 36.285156 34.269531 36.292969 C 34.199219 36.304688 34.109375 36.3125 34.011719 36.3125 C 33.625 36.3125 33.429688 36.097656 33.429688 35.65625 L 33.429688 33.710938 L 33.09375 33.710938 L 33.09375 33.355469 L 33.449219 33.355469 L 33.589844 32.710938 L 33.914062 32.710938 L 33.914062 33.355469 L 34.453125 33.355469 L 34.453125 33.710938 L 33.914062 33.710938 L 33.914062 35.550781 C 33.914062 35.6875 33.9375 35.785156 33.980469 35.839844 C 34.027344 35.898438 34.109375 35.925781 34.226562 35.925781 C 34.269531 35.925781 34.3125 35.921875 34.355469 35.914062 C 34.398438 35.910156 34.449219 35.902344 34.507812 35.894531 Z M 34.507812 36.25 "/>
<path style=" stroke:none;fill-rule:nonzero;fill:rgb(0%,0%,0%);fill-opacity:1;" d="M 35.082031 33.835938 L 35.082031 33.578125 C 35.152344 33.421875 35.234375 33.285156 35.328125 33.167969 C 35.429688 33.046875 35.535156 32.9375 35.640625 32.835938 C 35.753906 32.738281 35.867188 32.648438 35.976562 32.566406 C 36.082031 32.480469 36.179688 32.402344 36.265625 32.320312 C 36.351562 32.234375 36.417969 32.144531 36.472656 32.050781 C 36.519531 31.960938 36.546875 31.855469 36.546875 31.738281 C 36.546875 31.660156 36.535156 31.59375 36.515625 31.535156 C 36.492188 31.46875 36.453125 31.417969 36.40625 31.375 C 36.363281 31.332031 36.308594 31.304688 36.246094 31.289062 C 36.179688 31.265625 36.105469 31.253906 36.027344 31.253906 C 35.957031 31.253906 35.890625 31.265625 35.824219 31.289062 C 35.757812 31.304688 35.699219 31.332031 35.652344 31.375 C 35.601562 31.410156 35.558594 31.460938 35.535156 31.523438 C 35.503906 31.582031 35.480469 31.652344 35.46875 31.730469 L 35.101562 31.695312 C 35.117188 31.597656 35.144531 31.503906 35.1875 31.417969 C 35.230469 31.324219 35.289062 31.246094 35.371094 31.179688 C 35.449219 31.109375 35.542969 31.058594 35.652344 31.019531 C 35.757812 30.976562 35.882812 30.953125 36.027344 30.953125 C 36.171875 30.953125 36.296875 30.972656 36.40625 31.007812 C 36.519531 31.039062 36.613281 31.089844 36.6875 31.160156 C 36.765625 31.222656 36.820312 31.308594 36.859375 31.40625 C 36.902344 31.5 36.921875 31.609375 36.921875 31.730469 C 36.921875 31.832031 36.90625 31.921875 36.871094 32.007812 C 36.839844 32.09375 36.796875 32.175781 36.742188 32.253906 C 36.679688 32.328125 36.613281 32.402344 36.535156 32.480469 C 36.460938 32.554688 36.382812 32.625 36.296875 32.695312 C 36.21875 32.761719 36.136719 32.832031 36.050781 32.898438 C 35.96875 32.964844 35.890625 33.035156 35.8125 33.105469 C 35.742188 33.167969 35.675781 33.238281 35.621094 33.308594 C 35.558594 33.382812 35.515625 33.453125 35.480469 33.523438 L 36.964844 33.523438 L 36.964844 33.835938 Z M 35.082031 33.835938 "/>
<path style=" stroke:none;fill-rule:nonzero;fill:rgb(0%,0%,0%);fill-opacity:1;" d="M 36.96875 32.144531 L 37.894531 32.144531 L 37.894531 31.222656 L 38.355469 31.222656 L 38.355469 32.144531 L 39.277344 32.144531 L 39.277344 32.605469 L 38.355469 32.605469 L 38.355469 33.527344 L 37.894531 33.527344 L 37.894531 32.605469 L 36.96875 32.605469 "/>
<path style=" stroke:none;fill-rule:nonzero;fill:rgb(0%,0%,0%);fill-opacity:1;" d="M 31.558594 15.738281 C 31.339844 15.738281 31.148438 15.777344 30.984375 15.84375 C 30.820312 15.917969 30.679688 16.023438 30.566406 16.15625 C 30.457031 16.285156 30.375 16.445312 30.316406 16.628906 C 30.257812 16.820312 30.230469 17.023438 30.230469 17.253906 C 30.230469 17.484375 30.257812 17.695312 30.316406 17.886719 C 30.382812 18.074219 30.472656 18.238281 30.585938 18.371094 C 30.699219 18.507812 30.839844 18.617188 31.007812 18.695312 C 31.179688 18.765625 31.367188 18.800781 31.578125 18.800781 C 31.730469 18.800781 31.863281 18.785156 31.976562 18.746094 C 32.097656 18.703125 32.210938 18.648438 32.3125 18.574219 C 32.410156 18.507812 32.496094 18.421875 32.570312 18.328125 C 32.648438 18.238281 32.714844 18.128906 32.773438 18.007812 L 33.195312 18.222656 C 33.128906 18.367188 33.046875 18.5 32.945312 18.617188 C 32.84375 18.742188 32.726562 18.851562 32.589844 18.941406 C 32.453125 19.027344 32.300781 19.097656 32.128906 19.144531 C 31.957031 19.195312 31.765625 19.222656 31.558594 19.222656 C 31.246094 19.222656 30.976562 19.171875 30.75 19.082031 C 30.515625 18.980469 30.324219 18.84375 30.167969 18.671875 C 30.015625 18.496094 29.898438 18.285156 29.820312 18.050781 C 29.742188 17.808594 29.703125 17.542969 29.703125 17.253906 C 29.703125 16.960938 29.742188 16.695312 29.820312 16.457031 C 29.910156 16.214844 30.03125 16.011719 30.1875 15.84375 C 30.34375 15.679688 30.539062 15.550781 30.769531 15.457031 C 31 15.367188 31.261719 15.320312 31.558594 15.320312 C 31.957031 15.320312 32.292969 15.398438 32.558594 15.554688 C 32.832031 15.714844 33.035156 15.949219 33.164062 16.265625 L 32.679688 16.425781 C 32.640625 16.335938 32.589844 16.25 32.527344 16.167969 C 32.46875 16.082031 32.390625 16.011719 32.300781 15.953125 C 32.207031 15.886719 32.097656 15.839844 31.976562 15.800781 C 31.851562 15.757812 31.714844 15.738281 31.558594 15.738281 Z M 31.558594 15.738281 "/>
<path style=" stroke:none;fill-rule:nonzero;fill:rgb(0%,0%,0%);fill-opacity:1;" d="M 33.949219 19.167969 L 33.949219 15.179688 L 34.433594 15.179688 L 34.433594 19.167969 Z M 33.949219 19.167969 "/>
<path style=" stroke:none;fill-rule:nonzero;fill:rgb(0%,0%,0%);fill-opacity:1;" d="M 31.558594 50.136719 C 31.339844 50.136719 31.148438 50.175781 30.984375 50.246094 C 30.820312 50.316406 30.679688 50.421875 30.566406 50.558594 C 30.457031 50.6875 30.375 50.84375 30.316406 51.03125 C 30.257812 51.21875 30.230469 51.425781 30.230469 51.652344 C 30.230469 51.886719 30.257812 52.09375 30.316406 52.289062 C 30.382812 52.476562 30.472656 52.636719 30.585938 52.773438 C 30.699219 52.910156 30.839844 53.015625 31.007812 53.09375 C 31.179688 53.167969 31.367188 53.203125 31.578125 53.203125 C 31.730469 53.203125 31.863281 53.1875 31.976562 53.148438 C 32.097656 53.105469 32.210938 53.046875 32.3125 52.976562 C 32.410156 52.90625 32.496094 52.824219 32.570312 52.730469 C 32.648438 52.636719 32.714844 52.53125 32.773438 52.40625 L 33.195312 52.621094 C 33.128906 52.765625 33.046875 52.898438 32.945312 53.019531 C 32.84375 53.144531 32.726562 53.25 32.589844 53.339844 C 32.453125 53.425781 32.300781 53.496094 32.128906 53.546875 C 31.957031 53.59375 31.765625 53.621094 31.558594 53.621094 C 31.246094 53.621094 30.976562 53.574219 30.75 53.480469 C 30.515625 53.382812 30.324219 53.246094 30.167969 53.074219 C 30.015625 52.894531 29.898438 52.6875 29.820312 52.449219 C 29.742188 52.207031 29.703125 51.941406 29.703125 51.652344 C 29.703125 51.359375 29.742188 51.09375 29.820312 50.859375 C 29.910156 50.617188 30.03125 50.414062 30.1875 50.246094 C 30.34375 50.082031 30.539062 49.953125 30.769531 49.859375 C 31 49.765625 31.261719 49.71875 31.558594 49.71875 C 31.957031 49.71875 32.292969 49.800781 32.558594 49.957031 C 32.832031 50.113281 33.035156 50.351562 33.164062 50.664062 L 32.679688 50.824219 C 32.640625 50.734375 32.589844 50.648438 32.527344 50.566406 C 32.46875 50.480469 32.390625 50.414062 32.300781 50.351562 C 32.207031 50.289062 32.097656 50.238281 31.976562 50.203125 C 31.851562 50.160156 31.714844 50.136719 31.558594 50.136719 Z M 31.558594 50.136719 "/>
<path style=" stroke:none;fill-rule:nonzero;fill:rgb(0%,0%,0%);fill-opacity:1;" d="M 33.949219 53.566406 L 33.949219 49.578125 L 34.433594 49.578125 L 34.433594 53.566406 Z M 33.949219 53.566406 "/>
<path style=" stroke:none;fill-rule:nonzero;fill:rgb(0%,0%,0%);fill-opacity:1;" d="M 46.488281 24.339844 C 46.273438 24.339844 46.082031 24.375 45.914062 24.445312 C 45.75 24.519531 45.609375 24.621094 45.496094 24.757812 C 45.386719 24.886719 45.304688 25.042969 45.246094 25.230469 C 45.1875 25.417969 45.160156 25.625 45.160156 25.855469 C 45.160156 26.085938 45.1875 26.292969 45.246094 26.488281 C 45.3125 26.675781 45.402344 26.835938 45.515625 26.972656 C 45.628906 27.109375 45.769531 27.214844 45.9375 27.292969 C 46.109375 27.367188 46.296875 27.402344 46.507812 27.402344 C 46.660156 27.402344 46.792969 27.386719 46.90625 27.347656 C 47.027344 27.304688 47.140625 27.25 47.242188 27.175781 C 47.339844 27.105469 47.425781 27.023438 47.5 26.929688 C 47.578125 26.835938 47.644531 26.730469 47.703125 26.605469 L 48.125 26.820312 C 48.058594 26.964844 47.976562 27.097656 47.878906 27.21875 C 47.773438 27.34375 47.65625 27.449219 47.523438 27.542969 C 47.382812 27.628906 47.230469 27.699219 47.058594 27.746094 C 46.886719 27.792969 46.695312 27.820312 46.488281 27.820312 C 46.175781 27.820312 45.90625 27.773438 45.679688 27.679688 C 45.445312 27.582031 45.253906 27.445312 45.097656 27.273438 C 44.945312 27.09375 44.832031 26.886719 44.753906 26.648438 C 44.671875 26.40625 44.632812 26.140625 44.632812 25.855469 C 44.632812 25.5625 44.671875 25.292969 44.753906 25.058594 C 44.839844 24.816406 44.960938 24.613281 45.117188 24.445312 C 45.273438 24.28125 45.46875 24.152344 45.699219 24.058594 C 45.929688 23.96875 46.191406 23.917969 46.488281 23.917969 C 46.886719 23.917969 47.222656 24 47.488281 24.15625 C 47.761719 24.3125 47.964844 24.550781 48.09375 24.863281 L 47.609375 25.027344 C 47.570312 24.933594 47.523438 24.847656 47.457031 24.769531 C 47.398438 24.683594 47.320312 24.613281 47.230469 24.554688 C 47.136719 24.488281 47.027344 24.441406 46.90625 24.402344 C 46.785156 24.359375 46.644531 24.339844 46.488281 24.339844 Z M 46.488281 24.339844 "/>
<path style=" stroke:none;fill-rule:nonzero;fill:rgb(0%,0%,0%);fill-opacity:1;" d="M 48.878906 27.765625 L 48.878906 23.777344 L 49.363281 23.777344 L 49.363281 27.765625 Z M 48.878906 27.765625 "/>
<path style=" stroke:none;fill-rule:nonzero;fill:rgb(0%,0%,0%);fill-opacity:1;" d="M 46.488281 41.539062 C 46.273438 41.539062 46.082031 41.574219 45.914062 41.644531 C 45.75 41.71875 45.609375 41.824219 45.496094 41.957031 C 45.386719 42.085938 45.304688 42.246094 45.246094 42.429688 C 45.1875 42.617188 45.160156 42.824219 45.160156 43.054688 C 45.160156 43.285156 45.1875 43.496094 45.246094 43.6875 C 45.3125 43.875 45.402344 44.039062 45.515625 44.171875 C 45.628906 44.308594 45.769531 44.417969 45.9375 44.496094 C 46.109375 44.566406 46.296875 44.601562 46.507812 44.601562 C 46.660156 44.601562 46.792969 44.585938 46.90625 44.546875 C 47.027344 44.503906 47.140625 44.449219 47.242188 44.375 C 47.339844 44.304688 47.425781 44.222656 47.5 44.128906 C 47.578125 44.039062 47.644531 43.929688 47.703125 43.804688 L 48.125 44.019531 C 48.058594 44.167969 47.976562 44.296875 47.878906 44.417969 C 47.773438 44.542969 47.65625 44.648438 47.523438 44.742188 C 47.382812 44.828125 47.230469 44.898438 47.058594 44.945312 C 46.886719 44.992188 46.695312 45.019531 46.488281 45.019531 C 46.175781 45.019531 45.90625 44.972656 45.679688 44.882812 C 45.445312 44.78125 45.253906 44.644531 45.097656 44.472656 C 44.945312 44.296875 44.832031 44.085938 44.753906 43.847656 C 44.671875 43.605469 44.632812 43.339844 44.632812 43.054688 C 44.632812 42.761719 44.671875 42.496094 44.753906 42.257812 C 44.839844 42.015625 44.960938 41.8125 45.117188 41.644531 C 45.273438 41.480469 45.46875 41.351562 45.699219 41.257812 C 45.929688 41.167969 46.191406 41.117188 46.488281 41.117188 C 46.886719 41.117188 47.222656 41.199219 47.488281 41.355469 C 47.761719 41.515625 47.964844 41.75 48.09375 42.066406 L 47.609375 42.226562 C 47.570312 42.132812 47.523438 42.046875 47.457031 41.96875 C 47.398438 41.882812 47.320312 41.8125 47.230469 41.753906 C 47.136719 41.6875 47.027344 41.640625 46.90625 41.601562 C 46.785156 41.558594 46.644531 41.539062 46.488281 41.539062 Z M 46.488281 41.539062 "/>
<path style=" stroke:none;fill-rule:nonzero;fill:rgb(0%,0%,0%);fill-opacity:1;" d="M 48.878906 44.96875 L 48.878906 40.980469 L 49.363281 40.980469 L 49.363281 44.96875 Z M 48.878906 44.96875 "/>
<path style=" stroke:none;fill-rule:nonzero;fill:rgb(0%,0%,0%);fill-opacity:1;" d="M 16.625 24.339844 C 16.410156 24.339844 16.21875 24.375 16.054688 24.445312 C 15.886719 24.519531 15.746094 24.621094 15.632812 24.757812 C 15.523438 24.886719 15.441406 25.042969 15.386719 25.230469 C 15.324219 25.417969 15.300781 25.625 15.300781 25.855469 C 15.300781 26.085938 15.324219 26.292969 15.386719 26.488281 C 15.449219 26.675781 15.539062 26.835938 15.65625 26.972656 C 15.769531 27.109375 15.90625 27.214844 16.074219 27.292969 C 16.246094 27.367188 16.4375 27.402344 16.644531 27.402344 C 16.796875 27.402344 16.929688 27.386719 17.042969 27.347656 C 17.164062 27.304688 17.277344 27.25 17.378906 27.175781 C 17.476562 27.105469 17.566406 27.023438 17.636719 26.929688 C 17.714844 26.835938 17.78125 26.730469 17.84375 26.605469 L 18.261719 26.820312 C 18.199219 26.964844 18.113281 27.097656 18.015625 27.21875 C 17.914062 27.34375 17.792969 27.449219 17.660156 27.542969 C 17.523438 27.628906 17.367188 27.699219 17.195312 27.746094 C 17.023438 27.792969 16.832031 27.820312 16.625 27.820312 C 16.316406 27.820312 16.046875 27.773438 15.816406 27.679688 C 15.585938 27.582031 15.390625 27.445312 15.234375 27.273438 C 15.082031 27.09375 14.96875 26.886719 14.890625 26.648438 C 14.808594 26.40625 14.769531 26.140625 14.769531 25.855469 C 14.769531 25.5625 14.808594 25.292969 14.890625 25.058594 C 14.976562 24.816406 15.097656 24.613281 15.257812 24.445312 C 15.414062 24.28125 15.605469 24.152344 15.835938 24.058594 C 16.066406 23.96875 16.328125 23.917969 16.625 23.917969 C 17.027344 23.917969 17.359375 24 17.625 24.15625 C 17.898438 24.3125 18.101562 24.550781 18.230469 24.863281 L 17.746094 25.027344 C 17.707031 24.933594 17.660156 24.847656 17.59375 24.769531 C 17.535156 24.683594 17.460938 24.613281 17.367188 24.554688 C 17.273438 24.488281 17.164062 24.441406 17.042969 24.402344 C 16.921875 24.359375 16.78125 24.339844 16.625 24.339844 Z M 16.625 24.339844 "/>
<path style=" stroke:none;fill-rule:nonzero;fill:rgb(0%,0%,0%);fill-opacity:1;" d="M 19.015625 27.765625 L 19.015625 23.777344 L 19.5 23.777344 L 19.5 27.765625 Z M 19.015625 27.765625 "/>
<path style=" stroke:none;fill-rule:nonzero;fill:rgb(0%,0%,0%);fill-opacity:1;" d="M 16.625 41.539062 C 16.410156 41.539062 16.21875 41.574219 16.054688 41.644531 C 15.886719 41.71875 15.746094 41.824219 15.632812 41.957031 C 15.523438 42.085938 15.441406 42.246094 15.386719 42.429688 C 15.324219 42.617188 15.300781 42.824219 15.300781 43.054688 C 15.300781 43.285156 15.324219 43.496094 15.386719 43.6875 C 15.449219 43.875 15.539062 44.039062 15.65625 44.171875 C 15.769531 44.308594 15.90625 44.417969 16.074219 44.496094 C 16.246094 44.566406 16.4375 44.601562 16.644531 44.601562 C 16.796875 44.601562 16.929688 44.585938 17.042969 44.546875 C 17.164062 44.503906 17.277344 44.449219 17.378906 44.375 C 17.476562 44.304688 17.566406 44.222656 17.636719 44.128906 C 17.714844 44.039062 17.78125 43.929688 17.84375 43.804688 L 18.261719 44.019531 C 18.199219 44.167969 18.113281 44.296875 18.015625 44.417969 C 17.914062 44.542969 17.792969 44.648438 17.660156 44.742188 C 17.523438 44.828125 17.367188 44.898438 17.195312 44.945312 C 17.023438 44.992188 16.832031 45.019531 16.625 45.019531 C 16.316406 45.019531 16.046875 44.972656 15.816406 44.882812 C 15.585938 44.78125 15.390625 44.644531 15.234375 44.472656 C 15.082031 44.296875 14.96875 44.085938 14.890625 43.847656 C 14.808594 43.605469 14.769531 43.339844 14.769531 43.054688 C 14.769531 42.761719 14.808594 42.496094 14.890625 42.257812 C 14.976562 42.015625 15.097656 41.8125 15.257812 41.644531 C 15.414062 41.480469 15.605469 41.351562 15.835938 41.257812 C 16.066406 41.167969 16.328125 41.117188 16.625 41.117188 C 17.027344 41.117188 17.359375 41.199219 17.625 41.355469 C 17.898438 41.515625 18.101562 41.75 18.230469 42.066406 L 17.746094 42.226562 C 17.707031 42.132812 17.660156 42.046875 17.59375 41.96875 C 17.535156 41.882812 17.460938 41.8125 17.367188 41.753906 C 17.273438 41.6875 17.164062 41.640625 17.042969 41.601562 C 16.921875 41.558594 16.78125 41.539062 16.625 41.539062 Z M 16.625 41.539062 "/>
<path style=" stroke:none;fill-rule:nonzero;fill:rgb(0%,0%,0%);fill-opacity:1;" d="M 19.015625 44.96875 L 19.015625 40.980469 L 19.5 40.980469 L 19.5 44.96875 Z M 19.015625 44.96875 "/>
<path style="fill:none;stroke-width:0.0333333;stroke-linecap:butt;stroke-linejoin:miter;stroke:rgb(0%,0%,0%);stroke-opacity:1;stroke-miterlimit:10;" d="M 0.866091 0.845491 L 0.866091 0.160762 " transform="matrix(17.241379,0,0,17.2,17.137714,17.199745)"/>
<path style="fill:none;stroke-width:0.0333333;stroke-linecap:butt;stroke-linejoin:miter;stroke:rgb(0%,0%,0%);stroke-opacity:1;stroke-miterlimit:10;" d="M 0.866091 1.154584 L 0.866091 1.839313 " transform="matrix(17.241379,0,0,17.2,17.137714,17.199745)"/>
<path style="fill:none;stroke-width:0.0333333;stroke-linecap:butt;stroke-linejoin:miter;stroke:rgb(0%,0%,0%);stroke-opacity:1;stroke-miterlimit:10;" d="M 1.317403 0.739432 L 1.526973 0.618383 " transform="matrix(17.241379,0,0,17.2,17.137714,17.199745)"/>
<path style="fill:none;stroke-width:0.0333333;stroke-linecap:butt;stroke-linejoin:miter;stroke:rgb(0%,0%,0%);stroke-opacity:1;stroke-miterlimit:10;" d="M 1.071583 1.118701 L 1.526973 1.381465 " transform="matrix(17.241379,0,0,17.2,17.137714,17.199745)"/>
<path style="fill:none;stroke-width:0.0333333;stroke-linecap:butt;stroke-linejoin:miter;stroke:rgb(0%,0%,0%);stroke-opacity:1;stroke-miterlimit:10;" d="M 0.660598 0.881374 L 0.204981 0.618383 " transform="matrix(17.241379,0,0,17.2,17.137714,17.199745)"/>
<path style="fill:none;stroke-width:0.0333333;stroke-linecap:butt;stroke-linejoin:miter;stroke:rgb(0%,0%,0%);stroke-opacity:1;stroke-miterlimit:10;" d="M 0.660598 1.118701 L 0.204981 1.381692 " transform="matrix(17.241379,0,0,17.2,17.137714,17.199745)"/>
</g>
</svg>
