<?xml version="1.0" encoding="UTF-8"?>
<svg xmlns="http://www.w3.org/2000/svg" xmlns:xlink="http://www.w3.org/1999/xlink" width="94.4pt" height="60pt" viewBox="0 0 94.4 60" version="1.1">
<g id="surface322">
<path style=" stroke:none;fill-rule:nonzero;fill:rgb(0%,0%,0%);fill-opacity:1;" d="M 18.078125 44.726562 L 16.027344 41.5 C 16.03125 41.585938 16.039062 41.671875 16.039062 41.757812 C 16.042969 41.828125 16.046875 41.90625 16.046875 41.992188 C 16.054688 42.074219 16.058594 42.144531 16.058594 42.210938 L 16.058594 44.726562 L 15.59375 44.726562 L 15.59375 40.941406 L 16.199219 40.941406 L 18.261719 44.1875 C 18.261719 44.1875 18.253906 44.097656 18.25 43.917969 C 18.242188 43.847656 18.234375 43.769531 18.230469 43.683594 C 18.230469 43.589844 18.230469 43.503906 18.230469 43.425781 L 18.230469 40.941406 L 18.695312 40.941406 L 18.695312 44.726562 Z M 18.078125 44.726562 "/>
<path style=" stroke:none;fill-rule:nonzero;fill:rgb(0%,0%,0%);fill-opacity:1;" d="M 77.363281 41.300781 C 77.148438 41.300781 76.953125 41.339844 76.789062 41.40625 C 76.621094 41.480469 76.480469 41.585938 76.367188 41.71875 C 76.257812 41.847656 76.175781 42.007812 76.117188 42.191406 C 76.058594 42.382812 76.03125 42.589844 76.03125 42.816406 C 76.03125 43.046875 76.058594 43.257812 76.117188 43.449219 C 76.183594 43.640625 76.273438 43.800781 76.386719 43.933594 C 76.503906 44.070312 76.644531 44.179688 76.8125 44.257812 C 76.984375 44.328125 77.175781 44.363281 77.386719 44.363281 C 77.539062 44.363281 77.671875 44.347656 77.789062 44.3125 C 77.910156 44.269531 78.019531 44.210938 78.125 44.140625 C 78.222656 44.070312 78.3125 43.984375 78.382812 43.890625 C 78.460938 43.800781 78.53125 43.691406 78.589844 43.570312 L 79.011719 43.785156 C 78.949219 43.929688 78.863281 44.0625 78.761719 44.183594 C 78.660156 44.304688 78.542969 44.414062 78.40625 44.503906 C 78.265625 44.589844 78.113281 44.660156 77.9375 44.707031 C 77.765625 44.757812 77.574219 44.785156 77.363281 44.785156 C 77.050781 44.785156 76.78125 44.734375 76.550781 44.644531 C 76.316406 44.542969 76.121094 44.40625 75.964844 44.234375 C 75.8125 44.058594 75.695312 43.847656 75.617188 43.613281 C 75.535156 43.371094 75.5 43.105469 75.5 42.816406 C 75.5 42.523438 75.535156 42.257812 75.617188 42.019531 C 75.703125 41.777344 75.828125 41.574219 75.988281 41.40625 C 76.144531 41.242188 76.339844 41.113281 76.574219 41.019531 C 76.804688 40.929688 77.066406 40.882812 77.363281 40.882812 C 77.769531 40.882812 78.105469 40.960938 78.371094 41.117188 C 78.648438 41.277344 78.851562 41.511719 78.980469 41.828125 L 78.492188 41.988281 C 78.453125 41.898438 78.40625 41.8125 78.339844 41.730469 C 78.28125 41.644531 78.203125 41.574219 78.113281 41.515625 C 78.019531 41.449219 77.910156 41.402344 77.789062 41.363281 C 77.664062 41.320312 77.523438 41.300781 77.363281 41.300781 Z M 77.363281 41.300781 "/>
<path style=" stroke:none;fill-rule:nonzero;fill:rgb(0%,0%,0%);fill-opacity:1;" d="M 34.070312 17.015625 C 34.070312 17.308594 34.023438 17.578125 33.9375 17.820312 C 33.851562 18.066406 33.722656 18.273438 33.558594 18.445312 C 33.398438 18.617188 33.199219 18.75 32.960938 18.839844 C 32.730469 18.933594 32.464844 18.980469 32.171875 18.980469 C 31.851562 18.980469 31.574219 18.933594 31.335938 18.839844 C 31.101562 18.742188 30.90625 18.605469 30.75 18.433594 C 30.589844 18.253906 30.46875 18.046875 30.390625 17.808594 C 30.3125 17.566406 30.273438 17.300781 30.273438 17.015625 C 30.273438 16.722656 30.3125 16.453125 30.390625 16.21875 C 30.480469 15.976562 30.601562 15.773438 30.761719 15.605469 C 30.925781 15.441406 31.125 15.3125 31.355469 15.21875 C 31.597656 15.125 31.867188 15.078125 32.171875 15.078125 C 32.472656 15.078125 32.746094 15.125 32.984375 15.21875 C 33.222656 15.3125 33.421875 15.445312 33.582031 15.617188 C 33.738281 15.78125 33.855469 15.980469 33.9375 16.21875 C 34.023438 16.453125 34.070312 16.722656 34.070312 17.015625 Z M 33.539062 17.015625 C 33.539062 16.785156 33.507812 16.578125 33.449219 16.390625 C 33.390625 16.203125 33.304688 16.046875 33.191406 15.917969 C 33.074219 15.78125 32.929688 15.679688 32.757812 15.605469 C 32.589844 15.535156 32.394531 15.496094 32.171875 15.496094 C 31.945312 15.496094 31.746094 15.535156 31.574219 15.605469 C 31.402344 15.679688 31.253906 15.78125 31.140625 15.917969 C 31.03125 16.046875 30.949219 16.203125 30.890625 16.390625 C 30.832031 16.578125 30.804688 16.785156 30.804688 17.015625 C 30.804688 17.246094 30.832031 17.453125 30.890625 17.648438 C 30.949219 17.835938 31.035156 17.996094 31.152344 18.132812 C 31.265625 18.269531 31.40625 18.375 31.574219 18.453125 C 31.746094 18.527344 31.945312 18.5625 32.171875 18.5625 C 32.410156 18.5625 32.617188 18.527344 32.789062 18.453125 C 32.960938 18.375 33.101562 18.269531 33.210938 18.132812 C 33.320312 17.988281 33.398438 17.824219 33.449219 17.636719 C 33.507812 17.445312 33.539062 17.238281 33.539062 17.015625 Z M 33.539062 17.015625 "/>
<path style=" stroke:none;fill-rule:nonzero;fill:rgb(0%,0%,0%);fill-opacity:1;" d="M 64.125 17.015625 C 64.125 17.308594 64.082031 17.578125 63.996094 17.820312 C 63.90625 18.066406 63.78125 18.273438 63.613281 18.445312 C 63.453125 18.617188 63.257812 18.75 63.019531 18.839844 C 62.785156 18.933594 62.523438 18.980469 62.226562 18.980469 C 61.90625 18.980469 61.628906 18.933594 61.390625 18.839844 C 61.160156 18.742188 60.964844 18.605469 60.804688 18.433594 C 60.644531 18.253906 60.527344 18.046875 60.449219 17.808594 C 60.367188 17.566406 60.328125 17.300781 60.328125 17.015625 C 60.328125 16.722656 60.367188 16.453125 60.449219 16.21875 C 60.535156 15.976562 60.65625 15.773438 60.816406 15.605469 C 60.980469 15.441406 61.179688 15.3125 61.414062 15.21875 C 61.652344 15.125 61.921875 15.078125 62.226562 15.078125 C 62.53125 15.078125 62.800781 15.125 63.039062 15.21875 C 63.277344 15.3125 63.476562 15.445312 63.636719 15.617188 C 63.792969 15.78125 63.914062 15.980469 63.996094 16.21875 C 64.082031 16.453125 64.125 16.722656 64.125 17.015625 Z M 63.59375 17.015625 C 63.59375 16.785156 63.5625 16.578125 63.507812 16.390625 C 63.445312 16.203125 63.359375 16.046875 63.246094 15.917969 C 63.128906 15.78125 62.984375 15.679688 62.8125 15.605469 C 62.644531 15.535156 62.449219 15.496094 62.226562 15.496094 C 62 15.496094 61.804688 15.535156 61.628906 15.605469 C 61.457031 15.679688 61.308594 15.78125 61.195312 15.917969 C 61.085938 16.046875 61.003906 16.203125 60.945312 16.390625 C 60.886719 16.578125 60.859375 16.785156 60.859375 17.015625 C 60.859375 17.246094 60.886719 17.453125 60.945312 17.648438 C 61.003906 17.835938 61.089844 17.996094 61.207031 18.132812 C 61.320312 18.269531 61.460938 18.375 61.628906 18.453125 C 61.804688 18.527344 62 18.5625 62.226562 18.5625 C 62.464844 18.5625 62.671875 18.527344 62.84375 18.453125 C 63.019531 18.375 63.160156 18.269531 63.269531 18.132812 C 63.375 17.988281 63.453125 17.824219 63.507812 17.636719 C 63.5625 17.445312 63.59375 17.238281 63.59375 17.015625 Z M 63.59375 17.015625 "/>
<path style="fill:none;stroke-width:0.0333333;stroke-linecap:butt;stroke-linejoin:miter;stroke:rgb(0%,0%,0%);stroke-opacity:1;stroke-miterlimit:10;" d="M 0.165948 1.404138 L 0.874356 0.995161 " transform="matrix(17.352941,0,0,17.201835,17.143751,17.029845)"/>
<path style="fill:none;stroke-width:0.0333333;stroke-linecap:butt;stroke-linejoin:miter;stroke:rgb(0%,0%,0%);stroke-opacity:1;stroke-miterlimit:10;" d="M 0.857699 0.995161 L 1.740339 1.504736 " transform="matrix(17.352941,0,0,17.201835,17.143751,17.029845)"/>
<path style="fill:none;stroke-width:0.0333333;stroke-linecap:butt;stroke-linejoin:miter;stroke:rgb(0%,0%,0%);stroke-opacity:1;stroke-miterlimit:10;" d="M 0.949317 1.048071 L 0.949317 0.156769 " transform="matrix(17.352941,0,0,17.201835,17.143751,17.029845)"/>
<path style="fill:none;stroke-width:0.0333333;stroke-linecap:butt;stroke-linejoin:miter;stroke:rgb(0%,0%,0%);stroke-opacity:1;stroke-miterlimit:10;" d="M 0.782738 1.048071 L 0.782738 0.156769 " transform="matrix(17.352941,0,0,17.201835,17.143751,17.029845)"/>
<path style="fill:none;stroke-width:0.0333333;stroke-linecap:butt;stroke-linejoin:miter;stroke:rgb(0%,0%,0%);stroke-opacity:1;stroke-miterlimit:10;" d="M 1.723681 1.504736 L 2.597993 0.99993 " transform="matrix(17.352941,0,0,17.201835,17.143751,17.029845)"/>
<path style="fill:none;stroke-width:0.0333333;stroke-linecap:butt;stroke-linejoin:miter;stroke:rgb(0%,0%,0%);stroke-opacity:1;stroke-miterlimit:10;" d="M 1.723681 1.312396 L 2.431414 0.903646 " transform="matrix(17.352941,0,0,17.201835,17.143751,17.029845)"/>
<path style="fill:none;stroke-width:0.0333333;stroke-linecap:butt;stroke-linejoin:miter;stroke:rgb(0%,0%,0%);stroke-opacity:1;stroke-miterlimit:10;" d="M 2.589664 0.995161 L 3.287942 1.398234 " transform="matrix(17.352941,0,0,17.201835,17.143751,17.029845)"/>
<path style="fill:none;stroke-width:0.0333333;stroke-linecap:butt;stroke-linejoin:miter;stroke:rgb(0%,0%,0%);stroke-opacity:1;stroke-miterlimit:10;" d="M 2.597993 1.009694 L 2.597993 0.156769 " transform="matrix(17.352941,0,0,17.201835,17.143751,17.029845)"/>
</g>
</svg>
