<?xml version="1.0" encoding="UTF-8"?>
<svg xmlns="http://www.w3.org/2000/svg" xmlns:xlink="http://www.w3.org/1999/xlink" width="52pt" height="34.4pt" viewBox="0 0 52 34.4" version="1.1">
<g id="surface1062">
<path style=" stroke:none;fill-rule:nonzero;fill:rgb(0%,0%,0%);fill-opacity:1;" d="M 17.394531 15.792969 C 17.179688 15.792969 16.988281 15.832031 16.824219 15.902344 C 16.65625 15.976562 16.515625 16.082031 16.402344 16.21875 C 16.292969 16.347656 16.210938 16.507812 16.152344 16.695312 C 16.09375 16.882812 16.066406 17.09375 16.066406 17.324219 C 16.066406 17.554688 16.09375 17.765625 16.152344 17.960938 C 16.21875 18.152344 16.308594 18.3125 16.421875 18.449219 C 16.535156 18.585938 16.675781 18.695312 16.84375 18.773438 C 17.015625 18.847656 17.207031 18.882812 17.417969 18.882812 C 17.566406 18.882812 17.699219 18.867188 17.816406 18.828125 C 17.9375 18.785156 18.050781 18.726562 18.152344 18.65625 C 18.25 18.585938 18.339844 18.5 18.410156 18.40625 C 18.488281 18.3125 18.558594 18.207031 18.617188 18.082031 L 19.039062 18.296875 C 18.972656 18.445312 18.890625 18.578125 18.789062 18.699219 C 18.6875 18.824219 18.566406 18.933594 18.433594 19.023438 C 18.292969 19.109375 18.140625 19.179688 17.96875 19.230469 C 17.796875 19.277344 17.601562 19.304688 17.394531 19.304688 C 17.085938 19.304688 16.816406 19.257812 16.585938 19.164062 C 16.351562 19.0625 16.15625 18.925781 16 18.753906 C 15.851562 18.574219 15.734375 18.363281 15.65625 18.125 C 15.574219 17.878906 15.535156 17.613281 15.535156 17.324219 C 15.535156 17.027344 15.574219 16.757812 15.65625 16.519531 C 15.742188 16.277344 15.863281 16.070312 16.023438 15.902344 C 16.179688 15.738281 16.375 15.609375 16.605469 15.511719 C 16.835938 15.421875 17.097656 15.371094 17.394531 15.371094 C 17.796875 15.371094 18.132812 15.453125 18.398438 15.609375 C 18.671875 15.769531 18.875 16.007812 19.003906 16.324219 L 18.519531 16.488281 C 18.480469 16.394531 18.433594 16.308594 18.367188 16.226562 C 18.308594 16.140625 18.234375 16.070312 18.140625 16.011719 C 18.046875 15.945312 17.9375 15.898438 17.816406 15.859375 C 17.691406 15.816406 17.550781 15.792969 17.394531 15.792969 Z M 17.394531 15.792969 "/>
<path style=" stroke:none;fill-rule:nonzero;fill:rgb(0%,0%,0%);fill-opacity:1;" d="M 34.683594 15.792969 C 34.464844 15.792969 34.273438 15.832031 34.109375 15.902344 C 33.941406 15.976562 33.800781 16.082031 33.6875 16.21875 C 33.582031 16.347656 33.496094 16.507812 33.441406 16.695312 C 33.378906 16.882812 33.355469 17.09375 33.355469 17.324219 C 33.355469 17.554688 33.378906 17.765625 33.441406 17.960938 C 33.503906 18.152344 33.59375 18.3125 33.710938 18.449219 C 33.824219 18.585938 33.964844 18.695312 34.132812 18.773438 C 34.304688 18.847656 34.492188 18.882812 34.703125 18.882812 C 34.855469 18.882812 34.988281 18.867188 35.105469 18.828125 C 35.226562 18.785156 35.335938 18.726562 35.4375 18.65625 C 35.539062 18.585938 35.625 18.5 35.699219 18.40625 C 35.777344 18.3125 35.84375 18.207031 35.902344 18.082031 L 36.324219 18.296875 C 36.261719 18.445312 36.175781 18.578125 36.078125 18.699219 C 35.972656 18.824219 35.855469 18.933594 35.71875 19.023438 C 35.582031 19.109375 35.429688 19.179688 35.253906 19.230469 C 35.082031 19.277344 34.890625 19.304688 34.683594 19.304688 C 34.371094 19.304688 34.101562 19.257812 33.871094 19.164062 C 33.640625 19.0625 33.445312 18.925781 33.289062 18.753906 C 33.136719 18.574219 33.019531 18.363281 32.941406 18.125 C 32.863281 17.878906 32.824219 17.613281 32.824219 17.324219 C 32.824219 17.027344 32.863281 16.757812 32.941406 16.519531 C 33.03125 16.277344 33.152344 16.070312 33.308594 15.902344 C 33.46875 15.738281 33.660156 15.609375 33.894531 15.511719 C 34.125 15.421875 34.386719 15.371094 34.683594 15.371094 C 35.085938 15.371094 35.421875 15.453125 35.6875 15.609375 C 35.960938 15.769531 36.164062 16.007812 36.292969 16.324219 L 35.804688 16.488281 C 35.769531 16.394531 35.71875 16.308594 35.65625 16.226562 C 35.59375 16.140625 35.519531 16.070312 35.429688 16.011719 C 35.332031 15.945312 35.226562 15.898438 35.105469 15.859375 C 34.980469 15.816406 34.839844 15.792969 34.683594 15.792969 Z M 34.683594 15.792969 "/>
<path style="fill:none;stroke-width:0.0333333;stroke-linecap:butt;stroke-linejoin:miter;stroke:rgb(0%,0%,0%);stroke-opacity:1;stroke-miterlimit:10;" d="M 0.144495 0.0831977 L 0.85537 0.0831977 " transform="matrix(17.287234,0,0,17.33871,17.287234,17.33871)"/>
<path style="fill:none;stroke-width:0.0333333;stroke-linecap:butt;stroke-linejoin:miter;stroke:rgb(0%,0%,0%);stroke-opacity:1;stroke-miterlimit:10;" d="M 0.144495 -0.0832922 L 0.85537 -0.0832922 " transform="matrix(17.287234,0,0,17.33871,17.287234,17.33871)"/>
</g>
</svg>
