<?xml version="1.0" encoding="UTF-8"?>
<svg xmlns="http://www.w3.org/2000/svg" xmlns:xlink="http://www.w3.org/1999/xlink" width="214.4pt" height="68.8pt" viewBox="0 0 214.4 68.8" version="1.1">
<g id="surface1117">
<path style="fill:none;stroke-width:0.0333333;stroke-linecap:butt;stroke-linejoin:miter;stroke:rgb(0%,0%,0%);stroke-opacity:1;stroke-miterlimit:10;" d="M 1.7321 1.50978 L 1.7321 0.490295 " transform="matrix(17.357513,0,0,17.2,17.044423,17.199745)"/>
<path style="fill:none;stroke-width:0.0333333;stroke-linecap:butt;stroke-linejoin:miter;stroke:rgb(0%,0%,0%);stroke-opacity:1;stroke-miterlimit:10;" d="M 0.857569 -0.00479988 L 1.740427 0.504829 " transform="matrix(17.357513,0,0,17.2,17.044423,17.199745)"/>
<path style="fill:none;stroke-width:0.0333333;stroke-linecap:butt;stroke-linejoin:miter;stroke:rgb(0%,0%,0%);stroke-opacity:1;stroke-miterlimit:10;" d="M 0.857569 0.18756 L 1.573667 0.601123 " transform="matrix(17.357513,0,0,17.2,17.044423,17.199745)"/>
<path style="fill:none;stroke-width:0.0333333;stroke-linecap:butt;stroke-linejoin:miter;stroke:rgb(0%,0%,0%);stroke-opacity:1;stroke-miterlimit:10;" d="M 0.857569 2.004875 L 1.740427 1.495246 " transform="matrix(17.357513,0,0,17.2,17.044423,17.199745)"/>
<path style="fill:none;stroke-width:0.0333333;stroke-linecap:butt;stroke-linejoin:miter;stroke:rgb(0%,0%,0%);stroke-opacity:1;stroke-miterlimit:10;" d="M 0.857569 1.812288 L 1.573667 1.398952 " transform="matrix(17.357513,0,0,17.2,17.044423,17.199745)"/>
<path style="fill:none;stroke-width:0.0333333;stroke-linecap:butt;stroke-linejoin:miter;stroke:rgb(0%,0%,0%);stroke-opacity:1;stroke-miterlimit:10;" d="M -0.00841051 1.495246 L 0.874222 2.004875 " transform="matrix(17.357513,0,0,17.2,17.044423,17.199745)"/>
<path style="fill:none;stroke-width:0.0333333;stroke-linecap:butt;stroke-linejoin:miter;stroke:rgb(0%,0%,0%);stroke-opacity:1;stroke-miterlimit:10;" d="M 0.000141265 0.490295 L 0.000141265 1.50978 " transform="matrix(17.357513,0,0,17.2,17.044423,17.199745)"/>
<path style="fill:none;stroke-width:0.0333333;stroke-linecap:butt;stroke-linejoin:miter;stroke:rgb(0%,0%,0%);stroke-opacity:1;stroke-miterlimit:10;" d="M 0.166676 0.586588 L 0.166676 1.413487 " transform="matrix(17.357513,0,0,17.2,17.044423,17.199745)"/>
<path style="fill:none;stroke-width:0.0333333;stroke-linecap:butt;stroke-linejoin:miter;stroke:rgb(0%,0%,0%);stroke-opacity:1;stroke-miterlimit:10;" d="M 0.874222 -0.00479988 L -0.00841051 0.504829 " transform="matrix(17.357513,0,0,17.2,17.044423,17.199745)"/>
<path style="fill:none;stroke-width:0.0625;stroke-linecap:butt;stroke-linejoin:miter;stroke:rgb(0%,0%,0%);stroke-opacity:1;stroke-miterlimit:10;" d="M 0.000115952 -0.000090723 L 0.50017 -0.000090723 M 0.250143 -0.249909 L 0.250143 0.249955 " transform="matrix(17.357513,0,0,17.2,60.994081,34.399998)"/>
<path style=" stroke:none;fill-rule:nonzero;fill:rgb(0%,0%,0%);fill-opacity:1;" d="M 115.519531 47.285156 C 115.519531 47.578125 115.476562 47.847656 115.390625 48.089844 C 115.300781 48.335938 115.175781 48.542969 115.011719 48.714844 C 114.851562 48.886719 114.652344 49.019531 114.414062 49.113281 C 114.179688 49.203125 113.917969 49.25 113.621094 49.25 C 113.300781 49.25 113.023438 49.203125 112.785156 49.113281 C 112.550781 49.011719 112.355469 48.875 112.199219 48.703125 C 112.039062 48.527344 111.921875 48.316406 111.84375 48.078125 C 111.761719 47.835938 111.722656 47.570312 111.722656 47.285156 C 111.722656 46.992188 111.761719 46.726562 111.84375 46.488281 C 111.929688 46.246094 112.050781 46.042969 112.210938 45.875 C 112.375 45.710938 112.574219 45.582031 112.808594 45.488281 C 113.046875 45.398438 113.316406 45.347656 113.621094 45.347656 C 113.925781 45.347656 114.195312 45.398438 114.433594 45.488281 C 114.671875 45.582031 114.871094 45.714844 115.03125 45.886719 C 115.1875 46.054688 115.308594 46.25 115.390625 46.488281 C 115.476562 46.726562 115.519531 46.992188 115.519531 47.285156 Z M 114.988281 47.285156 C 114.988281 47.054688 114.957031 46.847656 114.902344 46.660156 C 114.839844 46.476562 114.753906 46.316406 114.640625 46.1875 C 114.523438 46.054688 114.378906 45.949219 114.207031 45.875 C 114.039062 45.804688 113.84375 45.769531 113.621094 45.769531 C 113.394531 45.769531 113.199219 45.804688 113.023438 45.875 C 112.851562 45.949219 112.703125 46.054688 112.589844 46.1875 C 112.480469 46.316406 112.398438 46.476562 112.339844 46.660156 C 112.28125 46.847656 112.253906 47.054688 112.253906 47.285156 C 112.253906 47.515625 112.28125 47.726562 112.339844 47.917969 C 112.398438 48.105469 112.484375 48.265625 112.601562 48.402344 C 112.714844 48.539062 112.855469 48.644531 113.023438 48.722656 C 113.199219 48.796875 113.394531 48.832031 113.621094 48.832031 C 113.859375 48.832031 114.066406 48.796875 114.238281 48.722656 C 114.414062 48.644531 114.554688 48.539062 114.664062 48.402344 C 114.769531 48.257812 114.851562 48.09375 114.902344 47.90625 C 114.957031 47.714844 114.988281 47.507812 114.988281 47.285156 Z M 114.988281 47.285156 "/>
<path style=" stroke:none;fill-rule:nonzero;fill:rgb(0%,0%,0%);fill-opacity:1;" d="M 100.488281 21.484375 C 100.488281 21.78125 100.445312 22.046875 100.359375 22.289062 C 100.273438 22.535156 100.144531 22.742188 99.980469 22.914062 C 99.820312 23.085938 99.621094 23.21875 99.382812 23.3125 C 99.148438 23.402344 98.886719 23.449219 98.589844 23.449219 C 98.269531 23.449219 97.992188 23.402344 97.753906 23.3125 C 97.523438 23.210938 97.328125 23.074219 97.167969 22.902344 C 97.007812 22.726562 96.890625 22.515625 96.8125 22.28125 C 96.730469 22.039062 96.691406 21.769531 96.691406 21.484375 C 96.691406 21.191406 96.730469 20.925781 96.8125 20.6875 C 96.898438 20.445312 97.019531 20.242188 97.179688 20.074219 C 97.347656 19.910156 97.542969 19.78125 97.777344 19.6875 C 98.015625 19.597656 98.285156 19.550781 98.589844 19.550781 C 98.894531 19.550781 99.164062 19.597656 99.40625 19.6875 C 99.644531 19.78125 99.839844 19.914062 100 20.085938 C 100.160156 20.253906 100.277344 20.453125 100.359375 20.6875 C 100.445312 20.925781 100.488281 21.191406 100.488281 21.484375 Z M 99.957031 21.484375 C 99.957031 21.253906 99.929688 21.046875 99.871094 20.859375 C 99.8125 20.675781 99.722656 20.515625 99.609375 20.386719 C 99.492188 20.253906 99.351562 20.148438 99.175781 20.074219 C 99.007812 20.003906 98.8125 19.96875 98.589844 19.96875 C 98.367188 19.96875 98.167969 20.003906 97.992188 20.074219 C 97.820312 20.148438 97.675781 20.253906 97.558594 20.386719 C 97.453125 20.515625 97.367188 20.675781 97.3125 20.859375 C 97.25 21.046875 97.222656 21.253906 97.222656 21.484375 C 97.222656 21.714844 97.25 21.925781 97.3125 22.117188 C 97.367188 22.304688 97.453125 22.46875 97.570312 22.601562 C 97.683594 22.738281 97.824219 22.847656 97.992188 22.925781 C 98.167969 22.996094 98.367188 23.03125 98.589844 23.03125 C 98.828125 23.03125 99.035156 22.996094 99.210938 22.925781 C 99.382812 22.847656 99.523438 22.738281 99.632812 22.601562 C 99.742188 22.460938 99.820312 22.296875 99.871094 22.105469 C 99.929688 21.914062 99.957031 21.707031 99.957031 21.484375 Z M 99.957031 21.484375 "/>
<path style=" stroke:none;fill-rule:nonzero;fill:rgb(0%,0%,0%);fill-opacity:1;" d="M 83.664062 45.769531 C 83.449219 45.769531 83.257812 45.804688 83.089844 45.875 C 82.921875 45.949219 82.78125 46.054688 82.667969 46.1875 C 82.558594 46.316406 82.476562 46.476562 82.417969 46.660156 C 82.359375 46.847656 82.332031 47.054688 82.332031 47.285156 C 82.332031 47.515625 82.359375 47.726562 82.417969 47.917969 C 82.484375 48.105469 82.574219 48.265625 82.691406 48.402344 C 82.804688 48.539062 82.945312 48.644531 83.113281 48.722656 C 83.285156 48.796875 83.476562 48.832031 83.6875 48.832031 C 83.839844 48.832031 83.972656 48.816406 84.089844 48.777344 C 84.210938 48.734375 84.320312 48.679688 84.425781 48.605469 C 84.527344 48.535156 84.613281 48.453125 84.6875 48.359375 C 84.765625 48.265625 84.832031 48.160156 84.890625 48.035156 L 85.316406 48.25 C 85.25 48.398438 85.164062 48.527344 85.066406 48.648438 C 84.960938 48.773438 84.84375 48.878906 84.707031 48.972656 C 84.570312 49.058594 84.414062 49.128906 84.242188 49.175781 C 84.066406 49.222656 83.875 49.25 83.664062 49.25 C 83.355469 49.25 83.082031 49.203125 82.851562 49.113281 C 82.617188 49.011719 82.421875 48.875 82.265625 48.703125 C 82.113281 48.527344 81.996094 48.316406 81.917969 48.078125 C 81.839844 47.835938 81.800781 47.570312 81.800781 47.285156 C 81.800781 46.992188 81.839844 46.726562 81.917969 46.488281 C 82.007812 46.246094 82.128906 46.042969 82.289062 45.875 C 82.445312 45.710938 82.640625 45.582031 82.875 45.488281 C 83.105469 45.398438 83.367188 45.347656 83.664062 45.347656 C 84.070312 45.347656 84.40625 45.429688 84.675781 45.585938 C 84.949219 45.742188 85.152344 45.980469 85.28125 46.292969 L 84.792969 46.457031 C 84.757812 46.363281 84.707031 46.277344 84.640625 46.199219 C 84.582031 46.113281 84.507812 46.042969 84.414062 45.984375 C 84.320312 45.917969 84.210938 45.871094 84.089844 45.832031 C 83.964844 45.789062 83.824219 45.769531 83.664062 45.769531 Z M 83.664062 45.769531 "/>
<path style="fill:none;stroke-width:0.0333333;stroke-linecap:butt;stroke-linejoin:miter;stroke:rgb(0%,0%,0%);stroke-opacity:1;stroke-miterlimit:10;" d="M 0.857638 0.995196 L 1.549657 1.394679 " transform="matrix(17.357513,0,0,17.2,83.558847,21.499808)"/>
<path style="fill:none;stroke-width:0.0333333;stroke-linecap:butt;stroke-linejoin:miter;stroke:rgb(0%,0%,0%);stroke-opacity:1;stroke-miterlimit:10;" d="M 0.949457 1.048113 L 0.949457 0.156715 " transform="matrix(17.357513,0,0,17.2,83.558847,21.499808)"/>
<path style="fill:none;stroke-width:0.0333333;stroke-linecap:butt;stroke-linejoin:miter;stroke:rgb(0%,0%,0%);stroke-opacity:1;stroke-miterlimit:10;" d="M 0.782698 1.048113 L 0.782698 0.156715 " transform="matrix(17.357513,0,0,17.2,83.558847,21.499808)"/>
<path style="fill:none;stroke-width:0.0333333;stroke-linecap:butt;stroke-linejoin:miter;stroke:rgb(0%,0%,0%);stroke-opacity:1;stroke-miterlimit:10;" d="M 0.176422 1.398312 L 0.874517 0.995196 " transform="matrix(17.357513,0,0,17.2,83.558847,21.499808)"/>
<path style=" stroke:none;fill-rule:nonzero;fill:rgb(0%,0%,0%);fill-opacity:1;" d="M 127.507812 34.9375 L 149.203125 34.9375 L 149.203125 36.550781 L 153.542969 34.398438 L 149.203125 32.25 L 149.203125 33.863281 L 127.507812 33.863281 "/>
<path style=" stroke:none;fill-rule:nonzero;fill:rgb(0%,0%,0%);fill-opacity:1;" d="M 183.394531 53.492188 L 181.34375 50.265625 C 181.347656 50.351562 181.351562 50.4375 181.351562 50.523438 C 181.359375 50.597656 181.363281 50.675781 181.363281 50.761719 C 181.371094 50.84375 181.375 50.910156 181.375 50.976562 L 181.375 53.492188 L 180.910156 53.492188 L 180.910156 49.707031 L 181.515625 49.707031 L 183.578125 52.953125 C 183.578125 52.953125 183.570312 52.867188 183.566406 52.6875 C 183.558594 52.617188 183.550781 52.535156 183.542969 52.449219 C 183.542969 52.359375 183.542969 52.273438 183.542969 52.191406 L 183.542969 49.707031 L 184.011719 49.707031 L 184.011719 53.492188 Z M 183.394531 53.492188 "/>
<path style="fill:none;stroke-width:0.0333333;stroke-linecap:butt;stroke-linejoin:miter;stroke:rgb(0%,0%,0%);stroke-opacity:1;stroke-miterlimit:10;" d="M 1.731896 1.50978 L 1.731896 0.490295 " transform="matrix(17.357513,0,0,17.2,167.430785,17.199745)"/>
<path style="fill:none;stroke-width:0.0333333;stroke-linecap:butt;stroke-linejoin:miter;stroke:rgb(0%,0%,0%);stroke-opacity:1;stroke-miterlimit:10;" d="M 0.85759 -0.00479988 L 1.740447 0.504829 " transform="matrix(17.357513,0,0,17.2,167.430785,17.199745)"/>
<path style="fill:none;stroke-width:0.0333333;stroke-linecap:butt;stroke-linejoin:miter;stroke:rgb(0%,0%,0%);stroke-opacity:1;stroke-miterlimit:10;" d="M 0.85759 0.18756 L 1.573688 0.601123 " transform="matrix(17.357513,0,0,17.2,167.430785,17.199745)"/>
<path style="fill:none;stroke-width:0.0333333;stroke-linecap:butt;stroke-linejoin:miter;stroke:rgb(0%,0%,0%);stroke-opacity:1;stroke-miterlimit:10;" d="M 1.032001 1.904266 L 1.740447 1.495246 " transform="matrix(17.357513,0,0,17.2,167.430785,17.199745)"/>
<path style="fill:none;stroke-width:0.0333333;stroke-linecap:butt;stroke-linejoin:miter;stroke:rgb(0%,0%,0%);stroke-opacity:1;stroke-miterlimit:10;" d="M 0.948508 1.759826 L 1.573688 1.398952 " transform="matrix(17.357513,0,0,17.2,167.430785,17.199745)"/>
<path style="fill:none;stroke-width:0.0333333;stroke-linecap:butt;stroke-linejoin:miter;stroke:rgb(0%,0%,0%);stroke-opacity:1;stroke-miterlimit:10;" d="M -0.00838997 1.495246 L 0.700057 1.904266 " transform="matrix(17.357513,0,0,17.2,167.430785,17.199745)"/>
<path style="fill:none;stroke-width:0.0333333;stroke-linecap:butt;stroke-linejoin:miter;stroke:rgb(0%,0%,0%);stroke-opacity:1;stroke-miterlimit:10;" d="M -0.0000632396 0.490295 L -0.0000632396 1.50978 " transform="matrix(17.357513,0,0,17.2,167.430785,17.199745)"/>
<path style="fill:none;stroke-width:0.0333333;stroke-linecap:butt;stroke-linejoin:miter;stroke:rgb(0%,0%,0%);stroke-opacity:1;stroke-miterlimit:10;" d="M 0.166696 0.586588 L 0.166696 1.413487 " transform="matrix(17.357513,0,0,17.2,167.430785,17.199745)"/>
<path style="fill:none;stroke-width:0.0333333;stroke-linecap:butt;stroke-linejoin:miter;stroke:rgb(0%,0%,0%);stroke-opacity:1;stroke-miterlimit:10;" d="M 0.874243 -0.00479988 L -0.00838997 0.504829 " transform="matrix(17.357513,0,0,17.2,167.430785,17.199745)"/>
</g>
</svg>
