<?xml version="1.0" encoding="UTF-8"?>
<svg xmlns="http://www.w3.org/2000/svg" xmlns:xlink="http://www.w3.org/1999/xlink" width="119.2pt" height="68.8pt" viewBox="0 0 119.2 68.8" version="1.1">
<g id="surface437">
<path style=" stroke:none;fill-rule:nonzero;fill:rgb(0%,0%,0%);fill-opacity:1;" d="M 33.105469 53.492188 L 31.058594 50.265625 C 31.0625 50.351562 31.070312 50.4375 31.070312 50.523438 C 31.074219 50.597656 31.082031 50.675781 31.082031 50.761719 C 31.085938 50.84375 31.089844 50.910156 31.089844 50.976562 L 31.089844 53.492188 L 30.625 53.492188 L 30.625 49.707031 L 31.230469 49.707031 L 33.289062 52.953125 C 33.289062 52.953125 33.285156 52.867188 33.277344 52.6875 C 33.269531 52.617188 33.261719 52.535156 33.257812 52.449219 C 33.257812 52.359375 33.257812 52.273438 33.257812 52.191406 L 33.257812 49.707031 L 33.722656 49.707031 L 33.722656 53.492188 Z M 33.105469 53.492188 "/>
<path style=" stroke:none;fill-rule:nonzero;fill:rgb(0%,0%,0%);fill-opacity:1;" d="M 64.074219 51.582031 C 64.074219 51.878906 64.03125 52.148438 63.945312 52.390625 C 63.859375 52.632812 63.730469 52.839844 63.566406 53.011719 C 63.40625 53.1875 63.207031 53.320312 62.96875 53.410156 C 62.738281 53.503906 62.476562 53.550781 62.179688 53.550781 C 61.859375 53.550781 61.585938 53.503906 61.347656 53.410156 C 61.113281 53.3125 60.917969 53.175781 60.761719 53.003906 C 60.601562 52.824219 60.484375 52.617188 60.402344 52.378906 C 60.324219 52.136719 60.285156 51.871094 60.285156 51.582031 C 60.285156 51.289062 60.324219 51.023438 60.402344 50.789062 C 60.492188 50.546875 60.613281 50.34375 60.773438 50.175781 C 60.9375 50.011719 61.136719 49.882812 61.367188 49.789062 C 61.605469 49.695312 61.875 49.648438 62.179688 49.648438 C 62.484375 49.648438 62.753906 49.695312 62.992188 49.789062 C 63.230469 49.882812 63.429688 50.015625 63.585938 50.1875 C 63.746094 50.351562 63.863281 50.550781 63.945312 50.789062 C 64.03125 51.023438 64.074219 51.289062 64.074219 51.582031 Z M 63.542969 51.582031 C 63.542969 51.355469 63.515625 51.148438 63.457031 50.960938 C 63.398438 50.773438 63.3125 50.617188 63.199219 50.488281 C 63.082031 50.351562 62.9375 50.25 62.765625 50.175781 C 62.597656 50.105469 62.402344 50.066406 62.179688 50.066406 C 61.957031 50.066406 61.757812 50.105469 61.585938 50.175781 C 61.410156 50.25 61.265625 50.351562 61.152344 50.488281 C 61.042969 50.617188 60.957031 50.773438 60.902344 50.960938 C 60.84375 51.148438 60.816406 51.355469 60.816406 51.582031 C 60.816406 51.816406 60.84375 52.023438 60.902344 52.21875 C 60.957031 52.40625 61.046875 52.566406 61.160156 52.703125 C 61.277344 52.839844 61.417969 52.945312 61.585938 53.023438 C 61.757812 53.097656 61.957031 53.132812 62.179688 53.132812 C 62.417969 53.132812 62.625 53.097656 62.796875 53.023438 C 62.96875 52.945312 63.109375 52.839844 63.21875 52.703125 C 63.328125 52.558594 63.40625 52.394531 63.457031 52.207031 C 63.515625 52.015625 63.542969 51.808594 63.542969 51.582031 Z M 63.542969 51.582031 "/>
<path style="fill:none;stroke-width:0.0333333;stroke-linecap:butt;stroke-linejoin:miter;stroke:rgb(0%,0%,0%);stroke-opacity:1;stroke-miterlimit:10;" d="M 0.874238 -0.00478036 L -0.00844322 0.504622 " transform="matrix(17.325581,0,0,17.2,17.169721,17.19941)"/>
<path style="fill:none;stroke-width:0.0333333;stroke-linecap:butt;stroke-linejoin:miter;stroke:rgb(0%,0%,0%);stroke-opacity:1;stroke-miterlimit:10;" d="M 0.85778 -0.00478036 L 1.740235 0.504622 " transform="matrix(17.325581,0,0,17.2,17.169721,17.19941)"/>
<path style="fill:none;stroke-width:0.0333333;stroke-linecap:butt;stroke-linejoin:miter;stroke:rgb(0%,0%,0%);stroke-opacity:1;stroke-miterlimit:10;" d="M 0.85778 0.18758 L 1.573619 0.600915 " transform="matrix(17.325581,0,0,17.2,17.169721,17.19941)"/>
<path style="fill:none;stroke-width:0.0333333;stroke-linecap:butt;stroke-linejoin:miter;stroke:rgb(0%,0%,0%);stroke-opacity:1;stroke-miterlimit:10;" d="M -0.000101146 0.490314 L -0.000101146 1.5098 " transform="matrix(17.325581,0,0,17.2,17.169721,17.19941)"/>
<path style="fill:none;stroke-width:0.0333333;stroke-linecap:butt;stroke-linejoin:miter;stroke:rgb(0%,0%,0%);stroke-opacity:1;stroke-miterlimit:10;" d="M 0.16674 0.586608 L 0.16674 1.413506 " transform="matrix(17.325581,0,0,17.2,17.169721,17.19941)"/>
<path style="fill:none;stroke-width:0.0333333;stroke-linecap:butt;stroke-linejoin:miter;stroke:rgb(0%,0%,0%);stroke-opacity:1;stroke-miterlimit:10;" d="M -0.00844322 1.495265 L 0.700182 1.904286 " transform="matrix(17.325581,0,0,17.2,17.169721,17.19941)"/>
<path style="fill:none;stroke-width:0.0333333;stroke-linecap:butt;stroke-linejoin:miter;stroke:rgb(0%,0%,0%);stroke-opacity:1;stroke-miterlimit:10;" d="M 1.032061 1.904286 L 1.740235 1.495265 " transform="matrix(17.325581,0,0,17.2,17.169721,17.19941)"/>
<path style="fill:none;stroke-width:0.0333333;stroke-linecap:butt;stroke-linejoin:miter;stroke:rgb(0%,0%,0%);stroke-opacity:1;stroke-miterlimit:10;" d="M 1.648698 1.548181 L 2.373782 1.966967 " transform="matrix(17.325581,0,0,17.2,17.169721,17.19941)"/>
<path style="fill:none;stroke-width:0.0333333;stroke-linecap:butt;stroke-linejoin:miter;stroke:rgb(0%,0%,0%);stroke-opacity:1;stroke-miterlimit:10;" d="M 1.731893 1.403741 L 2.457203 1.822527 " transform="matrix(17.325581,0,0,17.2,17.169721,17.19941)"/>
<path style="fill:none;stroke-width:0.0333333;stroke-linecap:butt;stroke-linejoin:miter;stroke:rgb(0%,0%,0%);stroke-opacity:1;stroke-miterlimit:10;" d="M 1.731893 1.5098 L 1.731893 0.490314 " transform="matrix(17.325581,0,0,17.2,17.169721,17.19941)"/>
<path style="fill:none;stroke-width:0.0333333;stroke-linecap:butt;stroke-linejoin:miter;stroke:rgb(0%,0%,0%);stroke-opacity:1;stroke-miterlimit:10;" d="M 1.98193 0.933401 L 1.481857 0.933401 " transform="matrix(17.325581,0,0,17.2,17.169721,17.19941)"/>
<path style="fill:none;stroke-width:0.0333333;stroke-linecap:butt;stroke-linejoin:miter;stroke:rgb(0%,0%,0%);stroke-opacity:1;stroke-miterlimit:10;" d="M 1.98193 1.066713 L 1.481857 1.066713 " transform="matrix(17.325581,0,0,17.2,17.169721,17.19941)"/>
<path style=" stroke:none;fill-rule:nonzero;fill:rgb(0%,0%,0%);fill-opacity:1;" d="M 76.042969 34.9375 L 97.699219 34.9375 L 97.699219 36.550781 L 102.03125 34.398438 L 97.699219 32.25 L 97.699219 33.863281 L 76.042969 33.863281 "/>
</g>
</svg>
