<?xml version="1.0" encoding="UTF-8"?>
<svg xmlns="http://www.w3.org/2000/svg" xmlns:xlink="http://www.w3.org/1999/xlink" width="239.2pt" height="124pt" viewBox="0 0 239.2 124" version="1.1">
<g id="surface637">
<path style=" stroke:none;fill-rule:nonzero;fill:rgb(60.392157%,0%,100%);fill-opacity:1;" d="M 46.078125 82.039062 L 46.078125 81.726562 L 46.816406 81.726562 L 46.816406 79.53125 L 46.164062 79.996094 L 46.164062 79.648438 L 46.839844 79.183594 L 47.183594 79.183594 L 47.183594 81.726562 L 47.878906 81.726562 L 47.878906 82.039062 Z M 46.078125 82.039062 "/>
<path style=" stroke:none;fill-rule:nonzero;fill:rgb(60.392157%,0%,100%);fill-opacity:1;" d="M 67.160156 69.796875 L 67.160156 69.535156 C 67.230469 69.378906 67.3125 69.242188 67.410156 69.125 C 67.507812 69.003906 67.613281 68.894531 67.722656 68.789062 C 67.835938 68.691406 67.949219 68.601562 68.058594 68.519531 C 68.167969 68.433594 68.265625 68.351562 68.351562 68.273438 C 68.4375 68.183594 68.507812 68.097656 68.558594 68 C 68.605469 67.910156 68.632812 67.804688 68.632812 67.6875 C 68.632812 67.609375 68.621094 67.542969 68.601562 67.484375 C 68.578125 67.417969 68.542969 67.363281 68.492188 67.320312 C 68.449219 67.277344 68.394531 67.25 68.332031 67.234375 C 68.265625 67.210938 68.191406 67.203125 68.113281 67.203125 C 68.039062 67.203125 67.972656 67.210938 67.90625 67.234375 C 67.84375 67.25 67.78125 67.277344 67.734375 67.320312 C 67.683594 67.359375 67.640625 67.40625 67.613281 67.472656 C 67.585938 67.53125 67.5625 67.597656 67.550781 67.675781 L 67.179688 67.644531 C 67.195312 67.542969 67.222656 67.449219 67.269531 67.363281 C 67.3125 67.273438 67.371094 67.191406 67.453125 67.125 C 67.53125 67.054688 67.625 67 67.734375 66.964844 C 67.84375 66.921875 67.96875 66.898438 68.113281 66.898438 C 68.257812 66.898438 68.382812 66.917969 68.492188 66.953125 C 68.605469 66.984375 68.703125 67.035156 68.773438 67.105469 C 68.851562 67.167969 68.910156 67.253906 68.949219 67.351562 C 68.992188 67.449219 69.011719 67.554688 69.011719 67.675781 C 69.011719 67.78125 68.996094 67.871094 68.957031 67.957031 C 68.929688 68.046875 68.886719 68.128906 68.828125 68.207031 C 68.769531 68.28125 68.703125 68.355469 68.621094 68.433594 C 68.550781 68.507812 68.472656 68.582031 68.382812 68.652344 C 68.304688 68.714844 68.222656 68.785156 68.136719 68.855469 C 68.054688 68.921875 67.976562 68.992188 67.898438 69.0625 C 67.824219 69.125 67.757812 69.195312 67.703125 69.265625 C 67.640625 69.339844 67.597656 69.414062 67.5625 69.484375 L 69.054688 69.484375 L 69.054688 69.796875 Z M 67.160156 69.796875 "/>
<path style=" stroke:none;fill-rule:nonzero;fill:rgb(60.392157%,0%,100%);fill-opacity:1;" d="M 50.449219 101.332031 C 50.449219 101.460938 50.425781 101.582031 50.382812 101.6875 C 50.339844 101.792969 50.273438 101.878906 50.1875 101.949219 C 50.105469 102.011719 50.007812 102.066406 49.882812 102.109375 C 49.765625 102.144531 49.628906 102.164062 49.472656 102.164062 C 49.296875 102.164062 49.148438 102.144531 49.027344 102.101562 C 48.902344 102.054688 48.800781 102 48.722656 101.925781 C 48.644531 101.847656 48.582031 101.765625 48.539062 101.679688 C 48.5 101.585938 48.480469 101.488281 48.476562 101.386719 L 48.855469 101.355469 C 48.859375 101.425781 48.878906 101.496094 48.910156 101.558594 C 48.933594 101.625 48.976562 101.679688 49.027344 101.722656 C 49.078125 101.765625 49.140625 101.800781 49.210938 101.828125 C 49.28125 101.851562 49.367188 101.863281 49.472656 101.863281 C 49.660156 101.863281 49.800781 101.820312 49.90625 101.730469 C 50.015625 101.640625 50.066406 101.503906 50.066406 101.320312 C 50.066406 101.214844 50.042969 101.125 49.992188 101.0625 C 49.949219 100.996094 49.890625 100.949219 49.820312 100.921875 C 49.746094 100.886719 49.667969 100.863281 49.589844 100.84375 C 49.511719 100.832031 49.433594 100.824219 49.363281 100.824219 L 49.15625 100.824219 L 49.15625 100.511719 L 49.351562 100.511719 C 49.421875 100.511719 49.496094 100.503906 49.570312 100.488281 C 49.648438 100.476562 49.714844 100.449219 49.777344 100.414062 C 49.839844 100.378906 49.890625 100.328125 49.925781 100.261719 C 49.96875 100.195312 49.992188 100.117188 49.992188 100.011719 C 49.992188 99.863281 49.945312 99.742188 49.851562 99.65625 C 49.765625 99.570312 49.628906 99.527344 49.449219 99.527344 C 49.289062 99.527344 49.160156 99.566406 49.058594 99.644531 C 48.957031 99.726562 48.898438 99.839844 48.886719 99.992188 L 48.519531 99.96875 C 48.53125 99.839844 48.5625 99.730469 48.617188 99.632812 C 48.671875 99.542969 48.742188 99.46875 48.820312 99.40625 C 48.910156 99.34375 49.007812 99.296875 49.113281 99.265625 C 49.222656 99.238281 49.335938 99.222656 49.460938 99.222656 C 49.617188 99.222656 49.757812 99.246094 49.875 99.289062 C 49.988281 99.328125 50.082031 99.378906 50.15625 99.449219 C 50.226562 99.515625 50.277344 99.597656 50.308594 99.6875 C 50.34375 99.773438 50.359375 99.871094 50.359375 99.980469 C 50.359375 100.0625 50.351562 100.140625 50.328125 100.21875 C 50.308594 100.292969 50.269531 100.355469 50.21875 100.414062 C 50.175781 100.472656 50.113281 100.519531 50.035156 100.566406 C 49.960938 100.601562 49.875 100.628906 49.765625 100.652344 L 49.765625 100.660156 C 49.878906 100.679688 49.980469 100.707031 50.066406 100.75 C 50.15625 100.785156 50.222656 100.832031 50.273438 100.890625 C 50.332031 100.949219 50.375 101.015625 50.402344 101.09375 C 50.429688 101.167969 50.449219 101.246094 50.449219 101.332031 Z M 50.449219 101.332031 "/>
<path style=" stroke:none;fill-rule:nonzero;fill:rgb(60.392157%,0%,100%);fill-opacity:1;" d="M 33.980469 73.511719 L 33.980469 74.160156 L 33.636719 74.160156 L 33.636719 73.511719 L 32.292969 73.511719 L 32.292969 73.230469 L 33.601562 71.308594 L 33.980469 71.308594 L 33.980469 73.230469 L 34.382812 73.230469 L 34.382812 73.511719 Z M 33.636719 71.71875 C 33.636719 71.726562 33.628906 71.738281 33.613281 71.761719 C 33.605469 71.777344 33.59375 71.800781 33.582031 71.828125 C 33.566406 71.847656 33.550781 71.875 33.539062 71.902344 C 33.523438 71.921875 33.511719 71.941406 33.503906 71.957031 L 32.769531 73.039062 C 32.761719 73.046875 32.75 73.058594 32.734375 73.082031 C 32.726562 73.097656 32.714844 73.113281 32.703125 73.132812 C 32.6875 73.152344 32.671875 73.167969 32.660156 73.1875 C 32.644531 73.203125 32.632812 73.21875 32.628906 73.230469 L 33.636719 73.230469 Z M 33.636719 71.71875 "/>
<path style=" stroke:none;fill-rule:nonzero;fill:rgb(60.392157%,0%,100%);fill-opacity:1;" d="M 85.046875 78.21875 C 85.046875 78.363281 85.027344 78.496094 84.984375 78.617188 C 84.9375 78.734375 84.875 78.835938 84.789062 78.921875 C 84.707031 79.007812 84.601562 79.078125 84.472656 79.128906 C 84.347656 79.171875 84.203125 79.191406 84.039062 79.191406 C 83.886719 79.191406 83.753906 79.171875 83.636719 79.136719 C 83.53125 79.101562 83.433594 79.058594 83.355469 78.996094 C 83.285156 78.933594 83.222656 78.863281 83.171875 78.78125 C 83.128906 78.695312 83.097656 78.605469 83.074219 78.511719 L 83.453125 78.46875 C 83.46875 78.519531 83.488281 78.574219 83.507812 78.628906 C 83.535156 78.679688 83.574219 78.726562 83.617188 78.769531 C 83.664062 78.808594 83.726562 78.835938 83.789062 78.855469 C 83.859375 78.878906 83.945312 78.890625 84.039062 78.890625 C 84.140625 78.890625 84.226562 78.875 84.300781 78.847656 C 84.378906 78.820312 84.441406 78.777344 84.496094 78.714844 C 84.550781 78.660156 84.59375 78.59375 84.625 78.511719 C 84.652344 78.425781 84.667969 78.332031 84.667969 78.230469 C 84.667969 78.136719 84.652344 78.054688 84.625 77.980469 C 84.601562 77.910156 84.5625 77.847656 84.503906 77.796875 C 84.453125 77.742188 84.390625 77.699219 84.308594 77.667969 C 84.238281 77.640625 84.152344 77.625 84.050781 77.625 C 83.992188 77.625 83.9375 77.632812 83.886719 77.644531 C 83.835938 77.652344 83.785156 77.667969 83.734375 77.6875 C 83.691406 77.707031 83.652344 77.726562 83.617188 77.753906 C 83.578125 77.777344 83.546875 77.804688 83.519531 77.828125 L 83.160156 77.828125 L 83.257812 76.292969 L 84.886719 76.292969 L 84.886719 76.597656 L 83.59375 76.597656 L 83.539062 77.503906 C 83.605469 77.457031 83.683594 77.414062 83.78125 77.375 C 83.878906 77.339844 83.996094 77.320312 84.125 77.320312 C 84.269531 77.320312 84.398438 77.34375 84.503906 77.386719 C 84.621094 77.429688 84.71875 77.492188 84.796875 77.570312 C 84.875 77.652344 84.9375 77.75 84.984375 77.863281 C 85.027344 77.96875 85.046875 78.089844 85.046875 78.21875 Z M 85.046875 78.21875 "/>
<path style=" stroke:none;fill-rule:nonzero;fill:rgb(60.392157%,0%,100%);fill-opacity:1;" d="M 69.085938 50.417969 C 69.085938 50.554688 69.066406 50.683594 69.019531 50.804688 C 68.984375 50.929688 68.925781 51.03125 68.847656 51.117188 C 68.765625 51.199219 68.667969 51.265625 68.554688 51.3125 C 68.4375 51.363281 68.304688 51.390625 68.152344 51.390625 C 67.984375 51.390625 67.84375 51.355469 67.71875 51.292969 C 67.597656 51.226562 67.492188 51.136719 67.40625 51.023438 C 67.324219 50.898438 67.265625 50.75 67.222656 50.578125 C 67.183594 50.40625 67.167969 50.207031 67.167969 49.984375 C 67.167969 49.730469 67.1875 49.507812 67.234375 49.3125 C 67.277344 49.117188 67.339844 48.960938 67.429688 48.835938 C 67.519531 48.707031 67.628906 48.609375 67.753906 48.546875 C 67.882812 48.480469 68.027344 48.449219 68.1875 48.449219 C 68.285156 48.449219 68.375 48.460938 68.457031 48.480469 C 68.542969 48.496094 68.621094 48.53125 68.683594 48.578125 C 68.753906 48.621094 68.816406 48.683594 68.871094 48.761719 C 68.925781 48.835938 68.96875 48.925781 69 49.03125 L 68.652344 49.085938 C 68.613281 48.964844 68.554688 48.878906 68.46875 48.828125 C 68.386719 48.769531 68.296875 48.742188 68.1875 48.742188 C 68.082031 48.742188 67.992188 48.765625 67.90625 48.816406 C 67.824219 48.859375 67.753906 48.929688 67.699219 49.019531 C 67.648438 49.117188 67.605469 49.234375 67.570312 49.378906 C 67.539062 49.523438 67.527344 49.6875 67.527344 49.875 C 67.589844 49.753906 67.683594 49.660156 67.808594 49.59375 C 67.929688 49.53125 68.066406 49.496094 68.21875 49.496094 C 68.347656 49.496094 68.464844 49.519531 68.566406 49.5625 C 68.675781 49.605469 68.765625 49.667969 68.835938 49.746094 C 68.914062 49.828125 68.976562 49.925781 69.019531 50.039062 C 69.066406 50.144531 69.085938 50.273438 69.085938 50.417969 Z M 68.707031 50.425781 C 68.707031 50.328125 68.695312 50.238281 68.675781 50.15625 C 68.652344 50.078125 68.613281 50.011719 68.566406 49.960938 C 68.515625 49.90625 68.453125 49.863281 68.382812 49.832031 C 68.308594 49.796875 68.222656 49.777344 68.132812 49.777344 C 68.066406 49.777344 67.996094 49.789062 67.925781 49.8125 C 67.863281 49.832031 67.800781 49.863281 67.742188 49.90625 C 67.691406 49.953125 67.648438 50.011719 67.613281 50.082031 C 67.574219 50.152344 67.558594 50.242188 67.558594 50.339844 C 67.558594 50.449219 67.570312 50.550781 67.601562 50.644531 C 67.628906 50.730469 67.667969 50.8125 67.71875 50.882812 C 67.769531 50.945312 67.832031 51 67.90625 51.042969 C 67.976562 51.082031 68.054688 51.097656 68.144531 51.097656 C 68.230469 51.097656 68.308594 51.082031 68.382812 51.054688 C 68.453125 51.019531 68.511719 50.972656 68.554688 50.914062 C 68.605469 50.855469 68.640625 50.789062 68.664062 50.707031 C 68.691406 50.621094 68.707031 50.53125 68.707031 50.425781 Z M 68.707031 50.425781 "/>
<path style=" stroke:none;fill-rule:nonzero;fill:rgb(0%,0%,0%);fill-opacity:1;" d="M 66.515625 108.664062 L 64.464844 105.421875 C 64.472656 105.507812 64.476562 105.59375 64.476562 105.679688 C 64.480469 105.753906 64.488281 105.832031 64.488281 105.917969 C 64.492188 106 64.5 106.070312 64.5 106.136719 L 64.5 108.664062 L 64.03125 108.664062 L 64.03125 104.859375 L 64.640625 104.859375 L 66.699219 108.125 C 66.699219 108.125 66.695312 108.035156 66.6875 107.855469 C 66.679688 107.785156 66.671875 107.703125 66.667969 107.617188 C 66.667969 107.523438 66.667969 107.4375 66.667969 107.355469 L 66.667969 104.859375 L 67.132812 104.859375 L 67.132812 108.664062 Z M 66.515625 108.664062 "/>
<path style=" stroke:none;fill-rule:nonzero;fill:rgb(60.392157%,0%,100%);fill-opacity:1;" d="M 63.453125 106.671875 C 63.304688 106.898438 63.171875 107.109375 63.050781 107.3125 C 62.933594 107.515625 62.835938 107.714844 62.746094 107.917969 C 62.660156 108.121094 62.589844 108.328125 62.542969 108.542969 C 62.5 108.761719 62.476562 108.992188 62.476562 109.234375 L 62.085938 109.234375 C 62.085938 109.007812 62.109375 108.78125 62.164062 108.566406 C 62.21875 108.34375 62.296875 108.128906 62.390625 107.917969 C 62.480469 107.707031 62.589844 107.503906 62.714844 107.300781 C 62.835938 107.09375 62.96875 106.886719 63.105469 106.683594 L 61.566406 106.683594 L 61.566406 106.382812 L 63.453125 106.382812 Z M 63.453125 106.671875 "/>
<path style=" stroke:none;fill-rule:nonzero;fill:rgb(60.392157%,0%,100%);fill-opacity:1;" d="M 34.316406 110.304688 C 34.316406 110.429688 34.296875 110.539062 34.253906 110.636719 C 34.214844 110.742188 34.160156 110.832031 34.078125 110.910156 C 34 110.980469 33.898438 111.039062 33.777344 111.082031 C 33.652344 111.125 33.507812 111.148438 33.34375 111.148438 C 33.175781 111.148438 33.03125 111.125 32.910156 111.082031 C 32.785156 111.039062 32.679688 110.980469 32.59375 110.910156 C 32.511719 110.839844 32.457031 110.753906 32.421875 110.648438 C 32.382812 110.542969 32.367188 110.429688 32.367188 110.3125 C 32.367188 110.207031 32.378906 110.113281 32.410156 110.03125 C 32.445312 109.953125 32.488281 109.886719 32.539062 109.828125 C 32.589844 109.761719 32.648438 109.714844 32.714844 109.675781 C 32.785156 109.640625 32.859375 109.621094 32.929688 109.613281 L 32.929688 109.601562 C 32.847656 109.578125 32.777344 109.550781 32.714844 109.515625 C 32.65625 109.472656 32.605469 109.421875 32.5625 109.363281 C 32.519531 109.296875 32.488281 109.234375 32.464844 109.167969 C 32.441406 109.097656 32.433594 109.023438 32.433594 108.941406 C 32.433594 108.839844 32.449219 108.746094 32.488281 108.660156 C 32.53125 108.566406 32.585938 108.488281 32.660156 108.421875 C 32.738281 108.355469 32.832031 108.308594 32.941406 108.269531 C 33.054688 108.226562 33.183594 108.207031 33.332031 108.207031 C 33.488281 108.207031 33.625 108.226562 33.734375 108.269531 C 33.847656 108.308594 33.941406 108.355469 34.015625 108.421875 C 34.09375 108.488281 34.148438 108.566406 34.1875 108.660156 C 34.222656 108.746094 34.242188 108.839844 34.242188 108.941406 C 34.242188 109.023438 34.230469 109.097656 34.210938 109.167969 C 34.1875 109.242188 34.15625 109.304688 34.113281 109.363281 C 34.070312 109.421875 34.015625 109.472656 33.949219 109.515625 C 33.890625 109.550781 33.820312 109.578125 33.734375 109.601562 C 33.820312 109.617188 33.894531 109.640625 33.960938 109.675781 C 34.03125 109.714844 34.09375 109.761719 34.144531 109.828125 C 34.203125 109.886719 34.246094 109.953125 34.273438 110.03125 C 34.300781 110.113281 34.316406 110.203125 34.316406 110.304688 Z M 33.863281 108.960938 C 33.863281 108.890625 33.851562 108.828125 33.832031 108.769531 C 33.8125 108.703125 33.785156 108.65625 33.742188 108.617188 C 33.707031 108.574219 33.652344 108.542969 33.582031 108.519531 C 33.515625 108.492188 33.433594 108.476562 33.332031 108.476562 C 33.238281 108.476562 33.152344 108.492188 33.082031 108.519531 C 33.015625 108.542969 32.964844 108.574219 32.917969 108.617188 C 32.882812 108.65625 32.855469 108.703125 32.832031 108.769531 C 32.8125 108.828125 32.800781 108.890625 32.800781 108.960938 C 32.800781 109.023438 32.804688 109.078125 32.824219 109.136719 C 32.84375 109.195312 32.871094 109.25 32.910156 109.296875 C 32.945312 109.347656 33 109.390625 33.070312 109.417969 C 33.140625 109.445312 33.234375 109.460938 33.34375 109.460938 C 33.449219 109.460938 33.539062 109.445312 33.613281 109.417969 C 33.683594 109.390625 33.738281 109.347656 33.777344 109.296875 C 33.8125 109.25 33.832031 109.195312 33.839844 109.136719 C 33.855469 109.078125 33.863281 109.023438 33.863281 108.960938 Z M 33.9375 110.269531 C 33.9375 110.207031 33.929688 110.140625 33.90625 110.078125 C 33.890625 110.011719 33.859375 109.953125 33.808594 109.902344 C 33.765625 109.855469 33.703125 109.8125 33.625 109.785156 C 33.542969 109.757812 33.445312 109.742188 33.332031 109.742188 C 33.222656 109.742188 33.132812 109.757812 33.0625 109.785156 C 32.988281 109.8125 32.925781 109.855469 32.875 109.902344 C 32.832031 109.953125 32.800781 110.011719 32.777344 110.078125 C 32.757812 110.140625 32.746094 110.210938 32.746094 110.28125 C 32.746094 110.367188 32.757812 110.449219 32.777344 110.519531 C 32.800781 110.59375 32.832031 110.65625 32.875 110.714844 C 32.925781 110.765625 32.988281 110.804688 33.0625 110.832031 C 33.140625 110.855469 33.234375 110.867188 33.34375 110.867188 C 33.457031 110.867188 33.550781 110.855469 33.625 110.832031 C 33.703125 110.804688 33.765625 110.765625 33.808594 110.714844 C 33.851562 110.65625 33.882812 110.59375 33.90625 110.519531 C 33.929688 110.449219 33.9375 110.367188 33.9375 110.269531 Z M 33.9375 110.269531 "/>
<path style=" stroke:none;fill-rule:nonzero;fill:rgb(60.392157%,0%,100%);fill-opacity:1;" d="M 20.679688 80.597656 C 20.679688 80.851562 20.652344 81.074219 20.601562 81.269531 C 20.558594 81.457031 20.488281 81.613281 20.398438 81.742188 C 20.3125 81.867188 20.203125 81.960938 20.070312 82.023438 C 19.949219 82.089844 19.808594 82.121094 19.648438 82.121094 C 19.542969 82.121094 19.4375 82.109375 19.347656 82.089844 C 19.257812 82.066406 19.179688 82.03125 19.109375 81.980469 C 19.042969 81.933594 18.984375 81.871094 18.933594 81.796875 C 18.890625 81.71875 18.851562 81.628906 18.816406 81.527344 L 19.171875 81.472656 C 19.207031 81.597656 19.265625 81.6875 19.347656 81.742188 C 19.425781 81.804688 19.523438 81.832031 19.648438 81.832031 C 19.75 81.832031 19.839844 81.808594 19.921875 81.765625 C 20.007812 81.714844 20.078125 81.644531 20.136719 81.550781 C 20.195312 81.457031 20.238281 81.339844 20.265625 81.203125 C 20.300781 81.058594 20.320312 80.890625 20.320312 80.695312 C 20.292969 80.761719 20.25 80.820312 20.203125 80.867188 C 20.152344 80.917969 20.09375 80.960938 20.027344 80.996094 C 19.96875 81.035156 19.902344 81.0625 19.832031 81.085938 C 19.761719 81.101562 19.683594 81.105469 19.605469 81.105469 C 19.476562 81.105469 19.355469 81.085938 19.25 81.039062 C 19.144531 80.992188 19.058594 80.925781 18.988281 80.847656 C 18.914062 80.761719 18.859375 80.660156 18.816406 80.542969 C 18.777344 80.421875 18.761719 80.289062 18.761719 80.144531 C 18.761719 79.992188 18.78125 79.859375 18.824219 79.742188 C 18.867188 79.621094 18.929688 79.523438 19.011719 79.441406 C 19.089844 79.355469 19.1875 79.289062 19.300781 79.246094 C 19.425781 79.203125 19.5625 79.179688 19.714844 79.179688 C 20.03125 79.179688 20.269531 79.300781 20.429688 79.539062 C 20.59375 79.769531 20.679688 80.121094 20.679688 80.597656 Z M 20.289062 80.242188 C 20.289062 80.132812 20.273438 80.03125 20.246094 79.9375 C 20.222656 79.847656 20.1875 79.765625 20.136719 79.699219 C 20.085938 79.628906 20.023438 79.574219 19.953125 79.539062 C 19.878906 79.496094 19.796875 79.472656 19.703125 79.472656 C 19.617188 79.472656 19.535156 79.492188 19.464844 79.527344 C 19.390625 79.558594 19.328125 79.601562 19.28125 79.65625 C 19.238281 79.714844 19.199219 79.785156 19.171875 79.875 C 19.144531 79.953125 19.128906 80.042969 19.128906 80.144531 C 19.128906 80.238281 19.140625 80.328125 19.160156 80.414062 C 19.1875 80.496094 19.226562 80.566406 19.269531 80.628906 C 19.320312 80.691406 19.382812 80.734375 19.453125 80.769531 C 19.523438 80.800781 19.605469 80.8125 19.691406 80.8125 C 19.761719 80.8125 19.832031 80.804688 19.898438 80.78125 C 19.96875 80.761719 20.035156 80.726562 20.09375 80.683594 C 20.152344 80.636719 20.195312 80.574219 20.234375 80.5 C 20.269531 80.429688 20.289062 80.34375 20.289062 80.242188 Z M 20.289062 80.242188 "/>
<path style=" stroke:none;fill-rule:nonzero;fill:rgb(0%,0%,0%);fill-opacity:1;" d="M 35.238281 57.023438 C 35.238281 57.320312 35.195312 57.59375 35.105469 57.835938 C 35.019531 58.082031 34.894531 58.289062 34.726562 58.460938 C 34.566406 58.636719 34.371094 58.769531 34.132812 58.863281 C 33.898438 58.953125 33.636719 59.003906 33.339844 59.003906 C 33.019531 59.003906 32.742188 58.953125 32.503906 58.863281 C 32.273438 58.761719 32.078125 58.625 31.921875 58.453125 C 31.761719 58.273438 31.640625 58.0625 31.5625 57.824219 C 31.480469 57.582031 31.441406 57.3125 31.441406 57.023438 C 31.441406 56.730469 31.480469 56.460938 31.5625 56.226562 C 31.648438 55.980469 31.769531 55.777344 31.929688 55.609375 C 32.097656 55.445312 32.292969 55.3125 32.527344 55.21875 C 32.765625 55.128906 33.035156 55.078125 33.339844 55.078125 C 33.644531 55.078125 33.914062 55.128906 34.152344 55.21875 C 34.390625 55.3125 34.589844 55.445312 34.75 55.621094 C 34.90625 55.785156 35.027344 55.988281 35.105469 56.226562 C 35.195312 56.460938 35.238281 56.730469 35.238281 57.023438 Z M 34.707031 57.023438 C 34.707031 56.796875 34.675781 56.585938 34.617188 56.398438 C 34.558594 56.210938 34.472656 56.050781 34.359375 55.921875 C 34.242188 55.785156 34.097656 55.679688 33.925781 55.609375 C 33.757812 55.539062 33.5625 55.5 33.339844 55.5 C 33.113281 55.5 32.917969 55.539062 32.742188 55.609375 C 32.570312 55.679688 32.425781 55.785156 32.308594 55.921875 C 32.203125 56.050781 32.117188 56.210938 32.0625 56.398438 C 32 56.585938 31.972656 56.796875 31.972656 57.023438 C 31.972656 57.257812 32 57.46875 32.0625 57.664062 C 32.117188 57.851562 32.203125 58.015625 32.320312 58.148438 C 32.433594 58.289062 32.574219 58.394531 32.742188 58.472656 C 32.917969 58.546875 33.113281 58.582031 33.339844 58.582031 C 33.578125 58.582031 33.785156 58.546875 33.957031 58.472656 C 34.132812 58.394531 34.273438 58.289062 34.378906 58.148438 C 34.488281 58.007812 34.566406 57.839844 34.617188 57.652344 C 34.675781 57.457031 34.707031 57.25 34.707031 57.023438 Z M 34.707031 57.023438 "/>
<path style=" stroke:none;fill-rule:nonzero;fill:rgb(60.392157%,0%,100%);fill-opacity:1;" d="M 76.460938 97.441406 L 76.460938 97.125 L 77.199219 97.125 L 77.199219 94.929688 L 76.550781 95.394531 L 76.550781 95.050781 L 77.222656 94.585938 L 77.566406 94.585938 L 77.566406 97.125 L 78.261719 97.125 L 78.261719 97.441406 Z M 76.460938 97.441406 "/>
<path style=" stroke:none;fill-rule:nonzero;fill:rgb(60.392157%,0%,100%);fill-opacity:1;" d="M 78.710938 97.441406 L 78.710938 97.125 L 79.449219 97.125 L 79.449219 94.929688 L 78.796875 95.394531 L 78.796875 95.050781 L 79.46875 94.585938 L 79.816406 94.585938 L 79.816406 97.125 L 80.511719 97.125 L 80.511719 97.441406 Z M 78.710938 97.441406 "/>
<path style=" stroke:none;fill-rule:nonzero;fill:rgb(60.392157%,0%,100%);fill-opacity:1;" d="M 50.492188 41.851562 L 50.492188 41.535156 L 51.230469 41.535156 L 51.230469 39.34375 L 50.582031 39.808594 L 50.582031 39.460938 L 51.253906 38.996094 L 51.597656 38.996094 L 51.597656 41.535156 L 52.292969 41.535156 L 52.292969 41.851562 Z M 50.492188 41.851562 "/>
<path style=" stroke:none;fill-rule:nonzero;fill:rgb(60.392157%,0%,100%);fill-opacity:1;" d="M 52.632812 41.851562 L 52.632812 41.589844 C 52.703125 41.433594 52.789062 41.296875 52.882812 41.179688 C 52.984375 41.058594 53.089844 40.949219 53.199219 40.84375 C 53.3125 40.746094 53.425781 40.65625 53.535156 40.574219 C 53.640625 40.488281 53.738281 40.40625 53.828125 40.324219 C 53.914062 40.238281 53.980469 40.148438 54.03125 40.054688 C 54.082031 39.964844 54.109375 39.859375 54.109375 39.742188 C 54.109375 39.664062 54.097656 39.597656 54.074219 39.535156 C 54.054688 39.472656 54.015625 39.417969 53.96875 39.375 C 53.921875 39.332031 53.871094 39.304688 53.804688 39.289062 C 53.738281 39.265625 53.667969 39.253906 53.585938 39.253906 C 53.515625 39.253906 53.445312 39.265625 53.382812 39.289062 C 53.316406 39.304688 53.257812 39.332031 53.207031 39.375 C 53.15625 39.414062 53.117188 39.460938 53.089844 39.527344 C 53.058594 39.585938 53.039062 39.652344 53.023438 39.730469 L 52.65625 39.699219 C 52.667969 39.597656 52.699219 39.503906 52.742188 39.417969 C 52.785156 39.324219 52.84375 39.246094 52.925781 39.179688 C 53.003906 39.109375 53.101562 39.054688 53.207031 39.019531 C 53.316406 38.972656 53.441406 38.953125 53.585938 38.953125 C 53.730469 38.953125 53.859375 38.972656 53.96875 39.007812 C 54.082031 39.035156 54.175781 39.085938 54.25 39.15625 C 54.328125 39.222656 54.382812 39.308594 54.421875 39.40625 C 54.464844 39.5 54.488281 39.609375 54.488281 39.730469 C 54.488281 39.832031 54.46875 39.925781 54.433594 40.011719 C 54.402344 40.097656 54.359375 40.183594 54.304688 40.261719 C 54.242188 40.332031 54.175781 40.410156 54.097656 40.488281 C 54.023438 40.5625 53.945312 40.632812 53.859375 40.703125 C 53.777344 40.769531 53.695312 40.839844 53.609375 40.910156 C 53.527344 40.972656 53.449219 41.042969 53.371094 41.113281 C 53.296875 41.179688 53.234375 41.25 53.175781 41.320312 C 53.117188 41.394531 53.070312 41.464844 53.035156 41.535156 L 54.53125 41.535156 L 54.53125 41.851562 Z M 52.632812 41.851562 "/>
<path style=" stroke:none;fill-rule:nonzero;fill:rgb(60.392157%,0%,100%);fill-opacity:1;" d="M 18.203125 97.40625 L 18.203125 97.089844 L 18.941406 97.089844 L 18.941406 94.894531 L 18.289062 95.359375 L 18.289062 95.015625 L 18.960938 94.550781 L 19.308594 94.550781 L 19.308594 97.089844 L 20 97.089844 L 20 97.40625 Z M 18.203125 97.40625 "/>
<path style=" stroke:none;fill-rule:nonzero;fill:rgb(60.392157%,0%,100%);fill-opacity:1;" d="M 22.273438 96.617188 C 22.273438 96.746094 22.25 96.863281 22.207031 96.972656 C 22.164062 97.074219 22.097656 97.160156 22.011719 97.230469 C 21.929688 97.296875 21.832031 97.351562 21.707031 97.394531 C 21.59375 97.429688 21.453125 97.449219 21.296875 97.449219 C 21.125 97.449219 20.972656 97.425781 20.851562 97.382812 C 20.726562 97.339844 20.628906 97.28125 20.546875 97.210938 C 20.46875 97.132812 20.40625 97.046875 20.363281 96.960938 C 20.328125 96.871094 20.304688 96.773438 20.300781 96.667969 L 20.679688 96.636719 C 20.683594 96.710938 20.703125 96.777344 20.734375 96.84375 C 20.761719 96.90625 20.800781 96.960938 20.851562 97.003906 C 20.902344 97.046875 20.964844 97.085938 21.035156 97.113281 C 21.105469 97.132812 21.195312 97.144531 21.296875 97.144531 C 21.484375 97.144531 21.628906 97.101562 21.730469 97.015625 C 21.839844 96.921875 21.894531 96.785156 21.894531 96.605469 C 21.894531 96.496094 21.867188 96.410156 21.816406 96.34375 C 21.773438 96.28125 21.714844 96.234375 21.644531 96.203125 C 21.570312 96.167969 21.496094 96.144531 21.414062 96.128906 C 21.335938 96.117188 21.257812 96.105469 21.1875 96.105469 L 20.980469 96.105469 L 20.980469 95.792969 L 21.175781 95.792969 C 21.246094 95.792969 21.320312 95.789062 21.394531 95.773438 C 21.472656 95.757812 21.539062 95.734375 21.601562 95.695312 C 21.664062 95.660156 21.714844 95.609375 21.75 95.546875 C 21.796875 95.480469 21.816406 95.398438 21.816406 95.296875 C 21.816406 95.144531 21.769531 95.027344 21.675781 94.941406 C 21.589844 94.851562 21.453125 94.808594 21.273438 94.808594 C 21.113281 94.808594 20.984375 94.851562 20.882812 94.929688 C 20.78125 95.011719 20.726562 95.125 20.710938 95.273438 L 20.34375 95.253906 C 20.355469 95.125 20.390625 95.011719 20.441406 94.917969 C 20.496094 94.824219 20.566406 94.75 20.644531 94.691406 C 20.734375 94.625 20.832031 94.582031 20.9375 94.550781 C 21.046875 94.523438 21.160156 94.507812 21.285156 94.507812 C 21.441406 94.507812 21.582031 94.527344 21.699219 94.570312 C 21.8125 94.609375 21.90625 94.664062 21.980469 94.734375 C 22.050781 94.800781 22.101562 94.878906 22.132812 94.972656 C 22.167969 95.058594 22.183594 95.15625 22.183594 95.265625 C 22.183594 95.34375 22.175781 95.421875 22.152344 95.5 C 22.132812 95.574219 22.09375 95.640625 22.042969 95.695312 C 22 95.757812 21.9375 95.804688 21.859375 95.847656 C 21.785156 95.886719 21.699219 95.914062 21.589844 95.933594 L 21.589844 95.945312 C 21.703125 95.960938 21.804688 95.988281 21.894531 96.03125 C 21.980469 96.070312 22.046875 96.117188 22.097656 96.171875 C 22.15625 96.230469 22.199219 96.300781 22.230469 96.378906 C 22.253906 96.449219 22.273438 96.527344 22.273438 96.617188 Z M 22.273438 96.617188 "/>
<path style=" stroke:none;fill-rule:nonzero;fill:rgb(0%,0%,0%);fill-opacity:1;" d="M 94.332031 104.011719 C 94.332031 104.3125 94.289062 104.582031 94.203125 104.824219 C 94.113281 105.070312 93.988281 105.277344 93.824219 105.453125 C 93.664062 105.625 93.464844 105.757812 93.226562 105.851562 C 92.992188 105.945312 92.730469 105.992188 92.433594 105.992188 C 92.113281 105.992188 91.839844 105.945312 91.601562 105.851562 C 91.367188 105.75 91.171875 105.613281 91.015625 105.441406 C 90.855469 105.261719 90.734375 105.050781 90.65625 104.8125 C 90.574219 104.570312 90.539062 104.304688 90.539062 104.011719 C 90.539062 103.71875 90.574219 103.453125 90.65625 103.214844 C 90.742188 102.96875 90.867188 102.765625 91.027344 102.597656 C 91.191406 102.433594 91.390625 102.300781 91.621094 102.207031 C 91.859375 102.117188 92.132812 102.066406 92.433594 102.066406 C 92.738281 102.066406 93.007812 102.117188 93.246094 102.207031 C 93.484375 102.300781 93.683594 102.433594 93.84375 102.609375 C 94 102.777344 94.121094 102.976562 94.203125 103.214844 C 94.289062 103.453125 94.332031 103.71875 94.332031 104.011719 Z M 93.800781 104.011719 C 93.800781 103.785156 93.769531 103.574219 93.714844 103.386719 C 93.652344 103.199219 93.566406 103.039062 93.453125 102.910156 C 93.335938 102.777344 93.195312 102.671875 93.019531 102.597656 C 92.851562 102.527344 92.65625 102.488281 92.433594 102.488281 C 92.210938 102.488281 92.011719 102.527344 91.839844 102.597656 C 91.664062 102.671875 91.519531 102.777344 91.40625 102.910156 C 91.296875 103.039062 91.210938 103.199219 91.15625 103.386719 C 91.097656 103.574219 91.070312 103.785156 91.070312 104.011719 C 91.070312 104.246094 91.097656 104.457031 91.15625 104.652344 C 91.210938 104.839844 91.300781 105.003906 91.414062 105.136719 C 91.53125 105.277344 91.671875 105.382812 91.839844 105.460938 C 92.011719 105.535156 92.210938 105.570312 92.433594 105.570312 C 92.671875 105.570312 92.878906 105.535156 93.050781 105.460938 C 93.226562 105.382812 93.367188 105.277344 93.476562 105.136719 C 93.582031 104.996094 93.664062 104.828125 93.714844 104.640625 C 93.769531 104.445312 93.800781 104.238281 93.800781 104.011719 Z M 93.800781 104.011719 "/>
<path style=" stroke:none;fill-rule:nonzero;fill:rgb(60.392157%,0%,100%);fill-opacity:1;" d="M 85.835938 106.492188 L 85.835938 106.179688 L 86.574219 106.179688 L 86.574219 103.984375 L 85.921875 104.449219 L 85.921875 104.101562 L 86.59375 103.636719 L 86.941406 103.636719 L 86.941406 106.179688 L 87.636719 106.179688 L 87.636719 106.492188 Z M 85.835938 106.492188 "/>
<path style=" stroke:none;fill-rule:nonzero;fill:rgb(60.392157%,0%,100%);fill-opacity:1;" d="M 89.558594 105.84375 L 89.558594 106.492188 L 89.210938 106.492188 L 89.210938 105.84375 L 87.867188 105.84375 L 87.867188 105.5625 L 89.179688 103.636719 L 89.558594 103.636719 L 89.558594 105.5625 L 89.960938 105.5625 L 89.960938 105.84375 Z M 89.210938 104.046875 C 89.210938 104.058594 89.203125 104.070312 89.191406 104.09375 C 89.183594 104.109375 89.171875 104.128906 89.15625 104.15625 C 89.140625 104.179688 89.128906 104.207031 89.113281 104.234375 C 89.097656 104.253906 89.085938 104.273438 89.082031 104.285156 L 88.34375 105.367188 C 88.335938 105.375 88.324219 105.390625 88.3125 105.410156 C 88.304688 105.425781 88.292969 105.445312 88.28125 105.464844 C 88.265625 105.480469 88.25 105.496094 88.238281 105.519531 C 88.21875 105.535156 88.210938 105.550781 88.203125 105.5625 L 89.210938 105.5625 Z M 89.210938 104.046875 "/>
<path style=" stroke:none;fill-rule:nonzero;fill:rgb(0%,0%,0%);fill-opacity:1;" d="M 51.359375 23.75 C 51.359375 24.046875 51.316406 24.320312 51.226562 24.5625 C 51.140625 24.808594 51.015625 25.015625 50.847656 25.1875 C 50.6875 25.363281 50.492188 25.496094 50.253906 25.589844 C 50.019531 25.679688 49.757812 25.730469 49.460938 25.730469 C 49.140625 25.730469 48.863281 25.679688 48.625 25.589844 C 48.394531 25.488281 48.199219 25.351562 48.042969 25.179688 C 47.882812 25 47.761719 24.789062 47.683594 24.550781 C 47.601562 24.308594 47.5625 24.039062 47.5625 23.75 C 47.5625 23.457031 47.601562 23.1875 47.683594 22.949219 C 47.769531 22.707031 47.890625 22.503906 48.050781 22.335938 C 48.21875 22.167969 48.414062 22.039062 48.648438 21.945312 C 48.886719 21.855469 49.15625 21.804688 49.460938 21.804688 C 49.765625 21.804688 50.035156 21.855469 50.273438 21.945312 C 50.511719 22.039062 50.710938 22.171875 50.871094 22.34375 C 51.027344 22.511719 51.148438 22.714844 51.226562 22.949219 C 51.316406 23.1875 51.359375 23.457031 51.359375 23.75 Z M 50.828125 23.75 C 50.828125 23.519531 50.796875 23.3125 50.742188 23.125 C 50.679688 22.9375 50.59375 22.777344 50.480469 22.648438 C 50.363281 22.511719 50.21875 22.40625 50.046875 22.335938 C 49.878906 22.265625 49.683594 22.226562 49.460938 22.226562 C 49.234375 22.226562 49.039062 22.265625 48.863281 22.335938 C 48.691406 22.40625 48.546875 22.511719 48.429688 22.648438 C 48.324219 22.777344 48.238281 22.9375 48.183594 23.125 C 48.121094 23.3125 48.09375 23.519531 48.09375 23.75 C 48.09375 23.984375 48.121094 24.195312 48.183594 24.390625 C 48.238281 24.578125 48.324219 24.742188 48.441406 24.875 C 48.554688 25.011719 48.695312 25.121094 48.863281 25.199219 C 49.039062 25.273438 49.234375 25.308594 49.460938 25.308594 C 49.699219 25.308594 49.90625 25.273438 50.078125 25.199219 C 50.253906 25.121094 50.394531 25.011719 50.5 24.875 C 50.609375 24.730469 50.6875 24.566406 50.742188 24.378906 C 50.796875 24.183594 50.828125 23.976562 50.828125 23.75 Z M 50.828125 23.75 "/>
<path style=" stroke:none;fill-rule:nonzero;fill:rgb(0%,0%,0%);fill-opacity:1;" d="M 40.023438 48.636719 C 40.023438 48.933594 39.980469 49.207031 39.890625 49.449219 C 39.804688 49.695312 39.679688 49.902344 39.511719 50.074219 C 39.351562 50.25 39.15625 50.382812 38.917969 50.476562 C 38.683594 50.566406 38.421875 50.617188 38.125 50.617188 C 37.804688 50.617188 37.53125 50.566406 37.289062 50.476562 C 37.058594 50.375 36.863281 50.238281 36.707031 50.066406 C 36.546875 49.886719 36.425781 49.675781 36.347656 49.4375 C 36.265625 49.195312 36.230469 48.925781 36.230469 48.636719 C 36.230469 48.34375 36.265625 48.074219 36.347656 47.835938 C 36.433594 47.59375 36.554688 47.390625 36.714844 47.222656 C 36.882812 47.054688 37.078125 46.925781 37.3125 46.832031 C 37.550781 46.738281 37.820312 46.691406 38.125 46.691406 C 38.429688 46.691406 38.699219 46.738281 38.9375 46.832031 C 39.175781 46.925781 39.375 47.058594 39.535156 47.230469 C 39.691406 47.398438 39.8125 47.597656 39.890625 47.835938 C 39.980469 48.074219 40.023438 48.34375 40.023438 48.636719 Z M 39.492188 48.636719 C 39.492188 48.40625 39.460938 48.199219 39.40625 48.011719 C 39.34375 47.824219 39.257812 47.664062 39.144531 47.535156 C 39.027344 47.398438 38.882812 47.292969 38.710938 47.222656 C 38.542969 47.152344 38.347656 47.113281 38.125 47.113281 C 37.902344 47.113281 37.703125 47.152344 37.53125 47.222656 C 37.355469 47.292969 37.210938 47.398438 37.097656 47.535156 C 36.988281 47.664062 36.902344 47.824219 36.847656 48.011719 C 36.785156 48.199219 36.761719 48.40625 36.761719 48.636719 C 36.761719 48.871094 36.785156 49.082031 36.847656 49.277344 C 36.902344 49.464844 36.988281 49.625 37.105469 49.761719 C 37.21875 49.898438 37.363281 50.007812 37.53125 50.085938 C 37.703125 50.160156 37.902344 50.195312 38.125 50.195312 C 38.363281 50.195312 38.570312 50.160156 38.742188 50.085938 C 38.917969 50.007812 39.058594 49.898438 39.167969 49.761719 C 39.273438 49.617188 39.351562 49.453125 39.40625 49.265625 C 39.460938 49.070312 39.492188 48.863281 39.492188 48.636719 Z M 39.492188 48.636719 "/>
<path style=" stroke:none;fill-rule:nonzero;fill:rgb(60.392157%,0%,100%);fill-opacity:1;" d="M 31.582031 51.160156 L 31.582031 50.847656 L 32.316406 50.847656 L 32.316406 48.652344 L 31.667969 49.117188 L 31.667969 48.769531 L 32.339844 48.304688 L 32.6875 48.304688 L 32.6875 50.847656 L 33.378906 50.847656 L 33.378906 51.160156 Z M 31.582031 51.160156 "/>
<path style=" stroke:none;fill-rule:nonzero;fill:rgb(60.392157%,0%,100%);fill-opacity:1;" d="M 35.652344 50.230469 C 35.652344 50.367188 35.628906 50.496094 35.585938 50.617188 C 35.546875 50.742188 35.492188 50.847656 35.414062 50.933594 C 35.332031 51.011719 35.234375 51.078125 35.121094 51.128906 C 35.003906 51.175781 34.871094 51.203125 34.71875 51.203125 C 34.550781 51.203125 34.40625 51.171875 34.285156 51.105469 C 34.160156 51.039062 34.058594 50.953125 33.972656 50.835938 C 33.890625 50.714844 33.828125 50.566406 33.785156 50.390625 C 33.75 50.21875 33.730469 50.019531 33.730469 49.796875 C 33.730469 49.546875 33.753906 49.320312 33.796875 49.125 C 33.839844 48.933594 33.90625 48.773438 33.992188 48.652344 C 34.085938 48.519531 34.191406 48.425781 34.316406 48.359375 C 34.449219 48.292969 34.589844 48.261719 34.75 48.261719 C 34.851562 48.261719 34.941406 48.273438 35.023438 48.292969 C 35.109375 48.308594 35.183594 48.34375 35.25 48.390625 C 35.320312 48.433594 35.382812 48.496094 35.433594 48.574219 C 35.492188 48.648438 35.535156 48.738281 35.5625 48.84375 L 35.21875 48.898438 C 35.179688 48.777344 35.121094 48.691406 35.03125 48.640625 C 34.953125 48.582031 34.859375 48.554688 34.75 48.554688 C 34.648438 48.554688 34.554688 48.582031 34.46875 48.628906 C 34.386719 48.671875 34.320312 48.742188 34.261719 48.835938 C 34.210938 48.929688 34.167969 49.046875 34.132812 49.191406 C 34.105469 49.335938 34.089844 49.503906 34.089844 49.6875 C 34.15625 49.566406 34.246094 49.472656 34.371094 49.40625 C 34.492188 49.34375 34.632812 49.3125 34.785156 49.3125 C 34.914062 49.3125 35.027344 49.332031 35.128906 49.375 C 35.238281 49.417969 35.328125 49.480469 35.402344 49.558594 C 35.480469 49.640625 35.542969 49.738281 35.585938 49.851562 C 35.628906 49.960938 35.652344 50.085938 35.652344 50.230469 Z M 35.273438 50.242188 C 35.273438 50.140625 35.261719 50.050781 35.238281 49.96875 C 35.21875 49.890625 35.179688 49.828125 35.128906 49.777344 C 35.078125 49.71875 35.015625 49.675781 34.945312 49.644531 C 34.875 49.609375 34.789062 49.589844 34.695312 49.589844 C 34.632812 49.589844 34.5625 49.601562 34.492188 49.625 C 34.425781 49.644531 34.363281 49.679688 34.308594 49.722656 C 34.253906 49.765625 34.210938 49.824219 34.175781 49.894531 C 34.140625 49.96875 34.121094 50.054688 34.121094 50.152344 C 34.121094 50.261719 34.136719 50.363281 34.164062 50.457031 C 34.191406 50.542969 34.234375 50.625 34.285156 50.695312 C 34.332031 50.757812 34.394531 50.8125 34.46875 50.855469 C 34.539062 50.894531 34.621094 50.910156 34.707031 50.910156 C 34.792969 50.910156 34.875 50.898438 34.945312 50.867188 C 35.015625 50.832031 35.078125 50.785156 35.121094 50.726562 C 35.167969 50.671875 35.207031 50.601562 35.226562 50.523438 C 35.253906 50.433594 35.273438 50.34375 35.273438 50.242188 Z M 35.273438 50.242188 "/>
<path style=" stroke:none;fill-rule:nonzero;fill:rgb(0%,0%,0%);fill-opacity:1;" d="M 38.234375 15.554688 C 38.015625 15.554688 37.824219 15.59375 37.660156 15.664062 C 37.492188 15.738281 37.351562 15.84375 37.238281 15.976562 C 37.128906 16.105469 37.042969 16.265625 36.988281 16.453125 C 36.929688 16.640625 36.902344 16.851562 36.902344 17.082031 C 36.902344 17.3125 36.929688 17.523438 36.988281 17.71875 C 37.050781 17.90625 37.140625 18.070312 37.257812 18.203125 C 37.371094 18.34375 37.511719 18.449219 37.679688 18.527344 C 37.855469 18.601562 38.042969 18.636719 38.253906 18.636719 C 38.40625 18.636719 38.539062 18.621094 38.65625 18.582031 C 38.777344 18.539062 38.890625 18.484375 38.992188 18.410156 C 39.09375 18.339844 39.179688 18.257812 39.253906 18.160156 C 39.332031 18.070312 39.398438 17.960938 39.457031 17.835938 L 39.882812 18.054688 C 39.816406 18.199219 39.734375 18.332031 39.632812 18.453125 C 39.53125 18.578125 39.410156 18.6875 39.273438 18.777344 C 39.136719 18.863281 38.980469 18.933594 38.808594 18.984375 C 38.636719 19.03125 38.441406 19.058594 38.234375 19.058594 C 37.921875 19.058594 37.652344 19.011719 37.421875 18.917969 C 37.1875 18.816406 36.992188 18.679688 36.835938 18.507812 C 36.683594 18.328125 36.566406 18.117188 36.488281 17.878906 C 36.40625 17.636719 36.371094 17.371094 36.371094 17.082031 C 36.371094 16.785156 36.40625 16.519531 36.488281 16.28125 C 36.574219 16.035156 36.699219 15.832031 36.855469 15.664062 C 37.015625 15.5 37.210938 15.371094 37.441406 15.273438 C 37.671875 15.183594 37.9375 15.132812 38.234375 15.132812 C 38.636719 15.132812 38.972656 15.214844 39.242188 15.371094 C 39.515625 15.53125 39.71875 15.769531 39.847656 16.085938 L 39.363281 16.246094 C 39.324219 16.15625 39.273438 16.070312 39.210938 15.988281 C 39.148438 15.902344 39.074219 15.832031 38.980469 15.773438 C 38.886719 15.707031 38.777344 15.660156 38.65625 15.621094 C 38.53125 15.578125 38.390625 15.554688 38.234375 15.554688 Z M 38.234375 15.554688 "/>
<path style="fill:none;stroke-width:0.0333333;stroke-linecap:butt;stroke-linejoin:miter;stroke:rgb(0%,0%,0%);stroke-opacity:1;stroke-miterlimit:10;" d="M 1.853313 3.59439 L 2.799504 3.040939 " transform="matrix(17.343387,0,0,17.299107,17.17368,17.097597)"/>
<path style="fill:none;stroke-width:0.0333333;stroke-linecap:butt;stroke-linejoin:miter;stroke:rgb(0%,0%,0%);stroke-opacity:1;stroke-miterlimit:10;" d="M 1.861647 3.589423 L 1.861647 4.663584 " transform="matrix(17.343387,0,0,17.299107,17.17368,17.097597)"/>
<path style="fill:none;stroke-width:0.0333333;stroke-linecap:butt;stroke-linejoin:miter;stroke:rgb(0%,0%,0%);stroke-opacity:1;stroke-miterlimit:10;" d="M 2.028317 3.685165 L 2.028317 4.56581 " transform="matrix(17.343387,0,0,17.299107,17.17368,17.097597)"/>
<path style="fill:none;stroke-width:0.0333333;stroke-linecap:butt;stroke-linejoin:miter;stroke:rgb(0%,0%,0%);stroke-opacity:1;stroke-miterlimit:10;" d="M 1.870205 3.59439 L 0.923789 3.040713 " transform="matrix(17.343387,0,0,17.299107,17.17368,17.097597)"/>
<path style="fill:none;stroke-width:0.0333333;stroke-linecap:butt;stroke-linejoin:miter;stroke:rgb(0%,0%,0%);stroke-opacity:1;stroke-miterlimit:10;" d="M 2.791171 3.045681 L 3.718217 3.59439 " transform="matrix(17.343387,0,0,17.299107,17.17368,17.097597)"/>
<path style="fill:none;stroke-width:0.0333333;stroke-linecap:butt;stroke-linejoin:miter;stroke:rgb(0%,0%,0%);stroke-opacity:1;stroke-miterlimit:10;" d="M 2.79072 3.238971 L 3.551547 3.689229 " transform="matrix(17.343387,0,0,17.299107,17.17368,17.097597)"/>
<path style="fill:none;stroke-width:0.0333333;stroke-linecap:butt;stroke-linejoin:miter;stroke:rgb(0%,0%,0%);stroke-opacity:1;stroke-miterlimit:10;" d="M 2.791171 3.055165 L 2.791171 1.972649 " transform="matrix(17.343387,0,0,17.299107,17.17368,17.097597)"/>
<path style="fill:none;stroke-width:0.0333333;stroke-linecap:butt;stroke-linejoin:miter;stroke:rgb(0%,0%,0%);stroke-opacity:1;stroke-miterlimit:10;" d="M 1.853538 4.659068 L 2.554003 5.050616 " transform="matrix(17.343387,0,0,17.299107,17.17368,17.097597)"/>
<path style="fill:none;stroke-width:0.0333333;stroke-linecap:butt;stroke-linejoin:miter;stroke:rgb(0%,0%,0%);stroke-opacity:1;stroke-miterlimit:10;" d="M 1.869755 4.659068 L 0.92424 5.187907 " transform="matrix(17.343387,0,0,17.299107,17.17368,17.097597)"/>
<path style="fill:none;stroke-width:0.0333333;stroke-linecap:butt;stroke-linejoin:miter;stroke:rgb(0%,0%,0%);stroke-opacity:1;stroke-miterlimit:10;" d="M 0.940456 3.040713 L -0.00843756 3.59439 " transform="matrix(17.343387,0,0,17.299107,17.17368,17.097597)"/>
<path style="fill:none;stroke-width:0.0333333;stroke-linecap:butt;stroke-linejoin:miter;stroke:rgb(0%,0%,0%);stroke-opacity:1;stroke-miterlimit:10;" d="M 1.015458 3.094455 L 1.015458 2.46581 " transform="matrix(17.343387,0,0,17.299107,17.17368,17.097597)"/>
<path style="fill:none;stroke-width:0.0333333;stroke-linecap:butt;stroke-linejoin:miter;stroke:rgb(0%,0%,0%);stroke-opacity:1;stroke-miterlimit:10;" d="M 0.848788 3.094229 L 0.848788 2.46581 " transform="matrix(17.343387,0,0,17.299107,17.17368,17.097597)"/>
<path style="fill:none;stroke-width:0.0333333;stroke-linecap:butt;stroke-linejoin:miter;stroke:rgb(0%,0%,0%);stroke-opacity:1;stroke-miterlimit:10;" d="M 1.182353 2.688907 L 0.682343 2.688907 " transform="matrix(17.343387,0,0,17.299107,17.17368,17.097597)"/>
<path style="fill:none;stroke-width:0.0333333;stroke-linecap:butt;stroke-linejoin:miter;stroke:rgb(0%,0%,0%);stroke-opacity:1;stroke-miterlimit:10;" d="M 1.182353 2.822358 L 0.682343 2.822358 " transform="matrix(17.343387,0,0,17.299107,17.17368,17.097597)"/>
<path style="fill:none;stroke-width:0.0333333;stroke-linecap:butt;stroke-linejoin:miter;stroke:rgb(0%,0%,0%);stroke-opacity:1;stroke-miterlimit:10;" d="M 3.710109 3.579939 L 3.710109 4.673294 " transform="matrix(17.343387,0,0,17.299107,17.17368,17.097597)"/>
<path style="fill:none;stroke-width:0.0333333;stroke-linecap:butt;stroke-linejoin:miter;stroke:rgb(0%,0%,0%);stroke-opacity:1;stroke-miterlimit:10;" d="M 2.799729 1.9871 L 1.853313 1.444261 " transform="matrix(17.343387,0,0,17.299107,17.17368,17.097597)"/>
<path style="fill:none;stroke-width:0.0333333;stroke-linecap:butt;stroke-linejoin:miter;stroke:rgb(0%,0%,0%);stroke-opacity:1;stroke-miterlimit:10;" d="M 0.940456 5.187907 L -0.00843756 4.658842 " transform="matrix(17.343387,0,0,17.299107,17.17368,17.097597)"/>
<path style="fill:none;stroke-width:0.0333333;stroke-linecap:butt;stroke-linejoin:miter;stroke:rgb(0%,0%,0%);stroke-opacity:1;stroke-miterlimit:10;" d="M 3.625647 4.711229 L 3.950879 4.897971 " transform="matrix(17.343387,0,0,17.299107,17.17368,17.097597)"/>
<path style="fill:none;stroke-width:0.0333333;stroke-linecap:butt;stroke-linejoin:miter;stroke:rgb(0%,0%,0%);stroke-opacity:1;stroke-miterlimit:10;" d="M 3.710109 4.567616 L 4.033764 4.753455 " transform="matrix(17.343387,0,0,17.299107,17.17368,17.097597)"/>
<path style="fill:none;stroke-width:0.0333333;stroke-linecap:butt;stroke-linejoin:miter;stroke:rgb(0%,0%,0%);stroke-opacity:1;stroke-miterlimit:10;" d="M 1.861647 1.458939 L 1.861647 0.54239 " transform="matrix(17.343387,0,0,17.299107,17.17368,17.097597)"/>
<path style="fill:none;stroke-width:0.0333333;stroke-linecap:butt;stroke-linejoin:miter;stroke:rgb(0%,0%,0%);stroke-opacity:1;stroke-miterlimit:10;" d="M 2.111652 0.933939 L 1.611641 0.933939 " transform="matrix(17.343387,0,0,17.299107,17.17368,17.097597)"/>
<path style="fill:none;stroke-width:0.0333333;stroke-linecap:butt;stroke-linejoin:miter;stroke:rgb(0%,0%,0%);stroke-opacity:1;stroke-miterlimit:10;" d="M 2.111652 1.067165 L 1.611641 1.067165 " transform="matrix(17.343387,0,0,17.299107,17.17368,17.097597)"/>
<path style="fill:none;stroke-width:0.0333333;stroke-linecap:butt;stroke-linejoin:miter;stroke:rgb(0%,0%,0%);stroke-opacity:1;stroke-miterlimit:10;" d="M 1.861647 1.353036 L 1.349248 1.647036 " transform="matrix(17.343387,0,0,17.299107,17.17368,17.097597)"/>
<path style="fill:none;stroke-width:0.0333333;stroke-linecap:butt;stroke-linejoin:miter;stroke:rgb(0%,0%,0%);stroke-opacity:1;stroke-miterlimit:10;" d="M 1.945432 1.4971 L 1.432133 1.791552 " transform="matrix(17.343387,0,0,17.299107,17.17368,17.097597)"/>
<path style="fill:none;stroke-width:0.0333333;stroke-linecap:butt;stroke-linejoin:miter;stroke:rgb(0%,0%,0%);stroke-opacity:1;stroke-miterlimit:10;" d="M 1.679886 0.278423 L 1.383934 0.103874 " transform="matrix(17.343387,0,0,17.299107,17.17368,17.097597)"/>
<path style="fill:none;stroke-width:0.0333333;stroke-linecap:butt;stroke-linejoin:miter;stroke:rgb(0%,0%,0%);stroke-opacity:1;stroke-miterlimit:10;" d="M 2.95739 5.089229 L 3.718442 4.658842 " transform="matrix(17.343387,0,0,17.299107,17.17368,17.097597)"/>
<path style="fill:none;stroke-width:0.0333333;stroke-linecap:butt;stroke-linejoin:miter;stroke:rgb(0%,0%,0%);stroke-opacity:1;stroke-miterlimit:10;" d="M -0.000104054 3.579939 L -0.000104054 4.67352 " transform="matrix(17.343387,0,0,17.299107,17.17368,17.097597)"/>
<path style=" stroke:none;fill-rule:nonzero;fill:rgb(0%,0%,0%);fill-opacity:1;" d="M 106.308594 62.472656 L 127.988281 62.472656 L 127.988281 64.09375 L 132.324219 61.929688 L 127.988281 59.769531 L 127.988281 61.390625 L 106.308594 61.390625 "/>
<path style=" stroke:none;fill-rule:nonzero;fill:rgb(60.392157%,0%,100%);fill-opacity:1;" d="M 175.183594 81.9375 L 175.183594 81.621094 L 175.921875 81.621094 L 175.921875 79.425781 L 175.269531 79.890625 L 175.269531 79.546875 L 175.941406 79.082031 L 176.289062 79.082031 L 176.289062 81.621094 L 176.984375 81.621094 L 176.984375 81.9375 Z M 175.183594 81.9375 "/>
<path style=" stroke:none;fill-rule:nonzero;fill:rgb(60.392157%,0%,100%);fill-opacity:1;" d="M 196.25 69.746094 L 196.25 69.484375 C 196.320312 69.328125 196.40625 69.191406 196.5 69.074219 C 196.601562 68.953125 196.707031 68.84375 196.816406 68.738281 C 196.929688 68.640625 197.042969 68.550781 197.152344 68.46875 C 197.257812 68.382812 197.355469 68.300781 197.445312 68.21875 C 197.53125 68.132812 197.597656 68.046875 197.648438 67.949219 C 197.699219 67.859375 197.726562 67.753906 197.726562 67.636719 C 197.726562 67.558594 197.714844 67.492188 197.691406 67.429688 C 197.671875 67.367188 197.632812 67.3125 197.585938 67.269531 C 197.542969 67.226562 197.488281 67.199219 197.421875 67.183594 C 197.355469 67.160156 197.285156 67.148438 197.207031 67.148438 C 197.132812 67.148438 197.0625 67.160156 197 67.183594 C 196.933594 67.199219 196.875 67.226562 196.824219 67.269531 C 196.773438 67.308594 196.734375 67.355469 196.707031 67.421875 C 196.675781 67.480469 196.65625 67.546875 196.640625 67.625 L 196.273438 67.59375 C 196.285156 67.492188 196.316406 67.398438 196.359375 67.3125 C 196.402344 67.21875 196.460938 67.140625 196.542969 67.074219 C 196.621094 67.003906 196.71875 66.949219 196.824219 66.914062 C 196.933594 66.871094 197.058594 66.847656 197.207031 66.847656 C 197.347656 66.847656 197.476562 66.867188 197.585938 66.902344 C 197.699219 66.929688 197.792969 66.984375 197.867188 67.054688 C 197.945312 67.117188 198 67.203125 198.039062 67.300781 C 198.082031 67.394531 198.105469 67.503906 198.105469 67.625 C 198.105469 67.730469 198.085938 67.820312 198.050781 67.90625 C 198.019531 67.992188 197.976562 68.078125 197.921875 68.15625 C 197.859375 68.230469 197.792969 68.304688 197.714844 68.382812 C 197.640625 68.457031 197.5625 68.527344 197.476562 68.597656 C 197.394531 68.664062 197.3125 68.734375 197.226562 68.804688 C 197.144531 68.871094 197.066406 68.941406 196.988281 69.011719 C 196.914062 69.074219 196.851562 69.144531 196.792969 69.214844 C 196.734375 69.289062 196.6875 69.359375 196.652344 69.429688 L 198.148438 69.429688 L 198.148438 69.746094 Z M 196.25 69.746094 "/>
<path style=" stroke:none;fill-rule:nonzero;fill:rgb(60.392157%,0%,100%);fill-opacity:1;" d="M 179.554688 101.144531 C 179.554688 101.277344 179.53125 101.394531 179.488281 101.503906 C 179.445312 101.605469 179.378906 101.691406 179.292969 101.761719 C 179.210938 101.828125 179.109375 101.882812 178.988281 101.925781 C 178.871094 101.960938 178.734375 101.976562 178.578125 101.976562 C 178.402344 101.976562 178.253906 101.957031 178.132812 101.914062 C 178.007812 101.871094 177.90625 101.8125 177.828125 101.742188 C 177.746094 101.660156 177.6875 101.578125 177.644531 101.492188 C 177.605469 101.398438 177.585938 101.300781 177.578125 101.199219 L 177.960938 101.167969 C 177.964844 101.242188 177.984375 101.308594 178.011719 101.371094 C 178.039062 101.4375 178.082031 101.492188 178.132812 101.535156 C 178.179688 101.578125 178.242188 101.617188 178.316406 101.644531 C 178.386719 101.664062 178.472656 101.675781 178.578125 101.675781 C 178.765625 101.675781 178.90625 101.632812 179.011719 101.546875 C 179.121094 101.453125 179.171875 101.316406 179.171875 101.136719 C 179.171875 101.027344 179.144531 100.941406 179.097656 100.875 C 179.054688 100.8125 178.996094 100.765625 178.925781 100.734375 C 178.851562 100.699219 178.773438 100.675781 178.695312 100.660156 C 178.613281 100.644531 178.539062 100.636719 178.46875 100.636719 L 178.261719 100.636719 L 178.261719 100.324219 L 178.457031 100.324219 C 178.527344 100.324219 178.601562 100.320312 178.675781 100.300781 C 178.753906 100.289062 178.820312 100.265625 178.878906 100.226562 C 178.945312 100.191406 178.996094 100.140625 179.03125 100.074219 C 179.074219 100.011719 179.097656 99.929688 179.097656 99.828125 C 179.097656 99.675781 179.046875 99.554688 178.957031 99.46875 C 178.871094 99.382812 178.734375 99.339844 178.554688 99.339844 C 178.394531 99.339844 178.265625 99.378906 178.164062 99.460938 C 178.0625 99.539062 178.003906 99.652344 177.992188 99.804688 L 177.625 99.785156 C 177.636719 99.652344 177.667969 99.542969 177.722656 99.449219 C 177.777344 99.355469 177.84375 99.28125 177.925781 99.222656 C 178.011719 99.15625 178.109375 99.109375 178.21875 99.082031 C 178.328125 99.054688 178.441406 99.039062 178.566406 99.039062 C 178.722656 99.039062 178.863281 99.058594 178.976562 99.101562 C 179.09375 99.140625 179.1875 99.195312 179.261719 99.265625 C 179.332031 99.328125 179.382812 99.410156 179.410156 99.503906 C 179.445312 99.589844 179.464844 99.6875 179.464844 99.792969 C 179.464844 99.875 179.457031 99.953125 179.433594 100.03125 C 179.410156 100.105469 179.375 100.171875 179.324219 100.226562 C 179.28125 100.285156 179.21875 100.335938 179.140625 100.378906 C 179.066406 100.414062 178.976562 100.441406 178.871094 100.464844 L 178.871094 100.476562 C 178.984375 100.492188 179.085938 100.519531 179.171875 100.5625 C 179.261719 100.601562 179.328125 100.644531 179.378906 100.703125 C 179.4375 100.761719 179.480469 100.828125 179.507812 100.90625 C 179.535156 100.980469 179.554688 101.058594 179.554688 101.144531 Z M 179.554688 101.144531 "/>
<path style=" stroke:none;fill-rule:nonzero;fill:rgb(60.392157%,0%,100%);fill-opacity:1;" d="M 163.132812 73.457031 L 163.132812 74.105469 L 162.785156 74.105469 L 162.785156 73.457031 L 161.441406 73.457031 L 161.441406 73.175781 L 162.753906 71.25 L 163.132812 71.25 L 163.132812 73.175781 L 163.535156 73.175781 L 163.535156 73.457031 Z M 162.785156 71.660156 C 162.785156 71.667969 162.777344 71.683594 162.765625 71.703125 C 162.757812 71.722656 162.746094 71.742188 162.734375 71.769531 C 162.714844 71.792969 162.703125 71.816406 162.6875 71.84375 C 162.671875 71.867188 162.660156 71.886719 162.65625 71.898438 L 161.917969 72.980469 C 161.910156 72.988281 161.902344 73.003906 161.886719 73.023438 C 161.878906 73.039062 161.867188 73.054688 161.855469 73.078125 C 161.839844 73.09375 161.824219 73.109375 161.8125 73.132812 C 161.792969 73.148438 161.785156 73.160156 161.777344 73.175781 L 162.785156 73.175781 Z M 162.785156 71.660156 "/>
<path style=" stroke:none;fill-rule:nonzero;fill:rgb(60.392157%,0%,100%);fill-opacity:1;" d="M 214.085938 78.117188 C 214.085938 78.261719 214.0625 78.394531 214.019531 78.515625 C 213.976562 78.632812 213.910156 78.734375 213.824219 78.820312 C 213.742188 78.90625 213.640625 78.976562 213.511719 79.023438 C 213.386719 79.066406 213.242188 79.089844 213.078125 79.089844 C 212.925781 79.089844 212.789062 79.070312 212.675781 79.035156 C 212.566406 79 212.472656 78.953125 212.394531 78.894531 C 212.320312 78.828125 212.257812 78.757812 212.210938 78.679688 C 212.167969 78.59375 212.132812 78.503906 212.113281 78.40625 L 212.492188 78.363281 C 212.503906 78.417969 212.523438 78.46875 212.546875 78.527344 C 212.574219 78.578125 212.609375 78.625 212.65625 78.667969 C 212.703125 78.707031 212.761719 78.734375 212.828125 78.753906 C 212.898438 78.777344 212.980469 78.785156 213.078125 78.785156 C 213.175781 78.785156 213.265625 78.773438 213.335938 78.742188 C 213.414062 78.714844 213.480469 78.671875 213.53125 78.613281 C 213.589844 78.558594 213.632812 78.488281 213.664062 78.40625 C 213.691406 78.320312 213.707031 78.230469 213.707031 78.128906 C 213.707031 78.035156 213.691406 77.953125 213.664062 77.878906 C 213.640625 77.808594 213.601562 77.746094 213.542969 77.695312 C 213.492188 77.636719 213.425781 77.59375 213.347656 77.566406 C 213.273438 77.539062 213.1875 77.523438 213.089844 77.523438 C 213.027344 77.523438 212.972656 77.53125 212.925781 77.542969 C 212.875 77.550781 212.824219 77.566406 212.773438 77.585938 C 212.730469 77.601562 212.691406 77.625 212.65625 77.652344 C 212.617188 77.671875 212.582031 77.699219 212.558594 77.726562 L 212.199219 77.726562 L 212.296875 76.191406 L 213.921875 76.191406 L 213.921875 76.496094 L 212.632812 76.496094 L 212.578125 77.402344 C 212.644531 77.355469 212.722656 77.3125 212.816406 77.273438 C 212.917969 77.238281 213.035156 77.21875 213.164062 77.21875 C 213.308594 77.21875 213.433594 77.242188 213.542969 77.285156 C 213.65625 77.328125 213.753906 77.390625 213.835938 77.46875 C 213.914062 77.546875 213.976562 77.644531 214.019531 77.757812 C 214.0625 77.867188 214.085938 77.988281 214.085938 78.117188 Z M 214.085938 78.117188 "/>
<path style=" stroke:none;fill-rule:nonzero;fill:rgb(60.392157%,0%,100%);fill-opacity:1;" d="M 198.179688 53.226562 C 198.179688 53.363281 198.160156 53.496094 198.117188 53.617188 C 198.078125 53.742188 198.019531 53.84375 197.941406 53.929688 C 197.859375 54.011719 197.761719 54.074219 197.648438 54.125 C 197.53125 54.171875 197.398438 54.199219 197.25 54.199219 C 197.082031 54.199219 196.9375 54.167969 196.816406 54.101562 C 196.691406 54.039062 196.585938 53.949219 196.5 53.832031 C 196.417969 53.710938 196.359375 53.5625 196.316406 53.390625 C 196.277344 53.214844 196.261719 53.019531 196.261719 52.792969 C 196.261719 52.542969 196.285156 52.320312 196.328125 52.125 C 196.371094 51.929688 196.433594 51.773438 196.523438 51.648438 C 196.613281 51.519531 196.722656 51.421875 196.847656 51.355469 C 196.976562 51.292969 197.121094 51.257812 197.28125 51.257812 C 197.382812 51.257812 197.472656 51.269531 197.550781 51.292969 C 197.640625 51.308594 197.714844 51.339844 197.78125 51.390625 C 197.851562 51.433594 197.914062 51.496094 197.964844 51.574219 C 198.019531 51.644531 198.0625 51.734375 198.09375 51.84375 L 197.746094 51.898438 C 197.710938 51.777344 197.648438 51.6875 197.5625 51.636719 C 197.480469 51.582031 197.390625 51.550781 197.28125 51.550781 C 197.179688 51.550781 197.085938 51.578125 197 51.628906 C 196.917969 51.671875 196.851562 51.742188 196.792969 51.832031 C 196.742188 51.925781 196.699219 52.046875 196.664062 52.1875 C 196.632812 52.335938 196.621094 52.5 196.621094 52.6875 C 196.683594 52.566406 196.777344 52.46875 196.902344 52.40625 C 197.023438 52.339844 197.160156 52.308594 197.3125 52.308594 C 197.445312 52.308594 197.558594 52.328125 197.660156 52.375 C 197.769531 52.417969 197.859375 52.476562 197.929688 52.558594 C 198.011719 52.636719 198.074219 52.734375 198.117188 52.847656 C 198.160156 52.957031 198.179688 53.082031 198.179688 53.226562 Z M 197.800781 53.238281 C 197.800781 53.136719 197.789062 53.046875 197.769531 52.96875 C 197.746094 52.890625 197.710938 52.824219 197.660156 52.773438 C 197.609375 52.714844 197.546875 52.671875 197.476562 52.644531 C 197.402344 52.609375 197.320312 52.589844 197.226562 52.589844 C 197.160156 52.589844 197.089844 52.601562 197.019531 52.621094 C 196.957031 52.644531 196.894531 52.675781 196.835938 52.71875 C 196.785156 52.761719 196.742188 52.820312 196.707031 52.890625 C 196.667969 52.964844 196.652344 53.050781 196.652344 53.152344 C 196.652344 53.257812 196.664062 53.363281 196.695312 53.453125 C 196.722656 53.539062 196.761719 53.621094 196.816406 53.691406 C 196.863281 53.757812 196.925781 53.8125 197 53.855469 C 197.070312 53.890625 197.152344 53.910156 197.238281 53.910156 C 197.324219 53.910156 197.402344 53.894531 197.476562 53.863281 C 197.546875 53.828125 197.605469 53.785156 197.648438 53.722656 C 197.699219 53.667969 197.734375 53.601562 197.757812 53.519531 C 197.785156 53.433594 197.800781 53.339844 197.800781 53.238281 Z M 197.800781 53.238281 "/>
<path style=" stroke:none;fill-rule:nonzero;fill:rgb(0%,0%,0%);fill-opacity:1;" d="M 195.609375 108.640625 L 193.558594 105.398438 C 193.566406 105.484375 193.570312 105.570312 193.570312 105.65625 C 193.578125 105.730469 193.582031 105.808594 193.582031 105.894531 C 193.585938 105.976562 193.59375 106.046875 193.59375 106.109375 L 193.59375 108.640625 L 193.125 108.640625 L 193.125 104.835938 L 193.734375 104.835938 L 195.792969 108.101562 C 195.792969 108.101562 195.789062 108.011719 195.78125 107.832031 C 195.773438 107.761719 195.765625 107.679688 195.761719 107.59375 C 195.761719 107.5 195.761719 107.414062 195.761719 107.332031 L 195.761719 104.835938 L 196.226562 104.835938 L 196.226562 108.640625 Z M 195.609375 108.640625 "/>
<path style=" stroke:none;fill-rule:nonzero;fill:rgb(60.392157%,0%,100%);fill-opacity:1;" d="M 192.546875 106.652344 C 192.402344 106.875 192.269531 107.089844 192.144531 107.289062 C 192.027344 107.492188 191.929688 107.695312 191.84375 107.894531 C 191.753906 108.097656 191.683594 108.304688 191.636719 108.523438 C 191.59375 108.738281 191.570312 108.972656 191.570312 109.214844 L 191.179688 109.214844 C 191.179688 108.984375 191.207031 108.761719 191.257812 108.542969 C 191.3125 108.320312 191.390625 108.105469 191.484375 107.894531 C 191.578125 107.6875 191.683594 107.480469 191.808594 107.277344 C 191.933594 107.070312 192.0625 106.867188 192.199219 106.664062 L 190.660156 106.664062 L 190.660156 106.359375 L 192.546875 106.359375 Z M 192.546875 106.652344 "/>
<path style=" stroke:none;fill-rule:nonzero;fill:rgb(60.392157%,0%,100%);fill-opacity:1;" d="M 163.480469 110.296875 C 163.480469 110.417969 163.457031 110.53125 163.414062 110.628906 C 163.378906 110.734375 163.320312 110.824219 163.242188 110.902344 C 163.160156 110.972656 163.058594 111.03125 162.9375 111.074219 C 162.8125 111.117188 162.671875 111.136719 162.503906 111.136719 C 162.335938 111.136719 162.191406 111.117188 162.070312 111.074219 C 161.945312 111.03125 161.84375 110.972656 161.757812 110.902344 C 161.675781 110.832031 161.617188 110.742188 161.582031 110.640625 C 161.546875 110.53125 161.527344 110.421875 161.527344 110.304688 C 161.527344 110.199219 161.542969 110.105469 161.574219 110.023438 C 161.609375 109.945312 161.652344 109.878906 161.703125 109.820312 C 161.75 109.753906 161.8125 109.707031 161.875 109.667969 C 161.945312 109.632812 162.019531 109.613281 162.09375 109.601562 L 162.09375 109.59375 C 162.011719 109.570312 161.941406 109.542969 161.875 109.507812 C 161.816406 109.460938 161.769531 109.414062 161.722656 109.355469 C 161.679688 109.289062 161.648438 109.226562 161.625 109.160156 C 161.605469 109.089844 161.59375 109.015625 161.59375 108.933594 C 161.59375 108.832031 161.609375 108.738281 161.648438 108.652344 C 161.691406 108.558594 161.75 108.480469 161.820312 108.414062 C 161.902344 108.347656 161.996094 108.300781 162.105469 108.261719 C 162.21875 108.21875 162.347656 108.199219 162.492188 108.199219 C 162.652344 108.199219 162.785156 108.21875 162.894531 108.261719 C 163.007812 108.300781 163.105469 108.347656 163.175781 108.414062 C 163.253906 108.480469 163.3125 108.558594 163.351562 108.652344 C 163.386719 108.738281 163.40625 108.832031 163.40625 108.933594 C 163.40625 109.015625 163.394531 109.089844 163.371094 109.160156 C 163.351562 109.234375 163.316406 109.296875 163.273438 109.355469 C 163.230469 109.414062 163.175781 109.460938 163.113281 109.507812 C 163.050781 109.542969 162.980469 109.570312 162.894531 109.59375 C 162.980469 109.609375 163.058594 109.632812 163.121094 109.667969 C 163.191406 109.707031 163.253906 109.753906 163.308594 109.820312 C 163.363281 109.878906 163.40625 109.945312 163.4375 110.023438 C 163.464844 110.105469 163.480469 110.195312 163.480469 110.296875 Z M 163.023438 108.953125 C 163.023438 108.882812 163.015625 108.820312 162.992188 108.761719 C 162.976562 108.695312 162.949219 108.648438 162.90625 108.609375 C 162.867188 108.566406 162.8125 108.53125 162.742188 108.511719 C 162.679688 108.484375 162.59375 108.46875 162.492188 108.46875 C 162.398438 108.46875 162.316406 108.484375 162.246094 108.511719 C 162.179688 108.53125 162.125 108.566406 162.082031 108.609375 C 162.042969 108.648438 162.015625 108.695312 161.996094 108.761719 C 161.972656 108.820312 161.960938 108.882812 161.960938 108.953125 C 161.960938 109.015625 161.96875 109.070312 161.984375 109.128906 C 162.007812 109.1875 162.035156 109.242188 162.070312 109.289062 C 162.105469 109.339844 162.160156 109.382812 162.234375 109.410156 C 162.304688 109.4375 162.394531 109.453125 162.503906 109.453125 C 162.613281 109.453125 162.703125 109.4375 162.777344 109.410156 C 162.847656 109.382812 162.902344 109.339844 162.9375 109.289062 C 162.972656 109.242188 162.996094 109.1875 163.003906 109.128906 C 163.015625 109.070312 163.023438 109.015625 163.023438 108.953125 Z M 163.101562 110.261719 C 163.101562 110.199219 163.089844 110.132812 163.070312 110.066406 C 163.050781 110.003906 163.019531 109.945312 162.972656 109.894531 C 162.925781 109.847656 162.867188 109.804688 162.785156 109.777344 C 162.707031 109.75 162.609375 109.734375 162.492188 109.734375 C 162.386719 109.734375 162.292969 109.75 162.222656 109.777344 C 162.148438 109.804688 162.085938 109.847656 162.039062 109.894531 C 161.996094 109.945312 161.960938 110.003906 161.941406 110.066406 C 161.917969 110.132812 161.910156 110.203125 161.910156 110.273438 C 161.910156 110.359375 161.917969 110.441406 161.941406 110.511719 C 161.960938 110.585938 161.996094 110.648438 162.039062 110.707031 C 162.085938 110.757812 162.148438 110.796875 162.222656 110.824219 C 162.300781 110.847656 162.394531 110.859375 162.503906 110.859375 C 162.617188 110.859375 162.714844 110.847656 162.785156 110.824219 C 162.867188 110.796875 162.925781 110.757812 162.972656 110.707031 C 163.015625 110.648438 163.046875 110.585938 163.070312 110.511719 C 163.089844 110.441406 163.101562 110.359375 163.101562 110.261719 Z M 163.101562 110.261719 "/>
<path style=" stroke:none;fill-rule:nonzero;fill:rgb(60.392157%,0%,100%);fill-opacity:1;" d="M 149.703125 80.503906 C 149.703125 80.757812 149.675781 80.980469 149.628906 81.171875 C 149.585938 81.363281 149.511719 81.519531 149.421875 81.648438 C 149.335938 81.773438 149.226562 81.867188 149.097656 81.929688 C 148.972656 81.996094 148.832031 82.027344 148.671875 82.027344 C 148.566406 82.027344 148.460938 82.015625 148.371094 81.996094 C 148.285156 81.972656 148.203125 81.9375 148.132812 81.886719 C 148.066406 81.839844 148.007812 81.777344 147.957031 81.703125 C 147.914062 81.625 147.875 81.535156 147.839844 81.433594 L 148.195312 81.378906 C 148.230469 81.503906 148.289062 81.59375 148.371094 81.648438 C 148.449219 81.707031 148.546875 81.734375 148.671875 81.734375 C 148.773438 81.734375 148.863281 81.714844 148.945312 81.671875 C 149.03125 81.621094 149.101562 81.550781 149.160156 81.453125 C 149.21875 81.363281 149.261719 81.246094 149.292969 81.109375 C 149.328125 80.964844 149.34375 80.796875 149.34375 80.601562 C 149.316406 80.664062 149.273438 80.726562 149.226562 80.773438 C 149.175781 80.824219 149.117188 80.867188 149.054688 80.902344 C 148.992188 80.941406 148.929688 80.96875 148.859375 80.988281 C 148.785156 81.003906 148.707031 81.011719 148.628906 81.011719 C 148.5 81.011719 148.378906 80.988281 148.273438 80.945312 C 148.167969 80.898438 148.082031 80.832031 148.011719 80.75 C 147.9375 80.664062 147.882812 80.566406 147.839844 80.449219 C 147.800781 80.328125 147.785156 80.195312 147.785156 80.050781 C 147.785156 79.898438 147.804688 79.765625 147.851562 79.648438 C 147.894531 79.527344 147.953125 79.425781 148.035156 79.347656 C 148.113281 79.257812 148.210938 79.195312 148.328125 79.152344 C 148.449219 79.109375 148.585938 79.085938 148.738281 79.085938 C 149.054688 79.085938 149.292969 79.207031 149.453125 79.445312 C 149.621094 79.675781 149.703125 80.027344 149.703125 80.503906 Z M 149.3125 80.144531 C 149.3125 80.039062 149.296875 79.9375 149.269531 79.84375 C 149.246094 79.75 149.210938 79.671875 149.160156 79.605469 C 149.109375 79.535156 149.046875 79.480469 148.976562 79.445312 C 148.902344 79.398438 148.820312 79.378906 148.726562 79.378906 C 148.640625 79.378906 148.558594 79.398438 148.488281 79.433594 C 148.417969 79.460938 148.355469 79.503906 148.304688 79.5625 C 148.261719 79.621094 148.222656 79.691406 148.195312 79.777344 C 148.167969 79.859375 148.152344 79.949219 148.152344 80.050781 C 148.152344 80.144531 148.164062 80.234375 148.1875 80.320312 C 148.210938 80.398438 148.25 80.46875 148.292969 80.535156 C 148.34375 80.59375 148.40625 80.640625 148.476562 80.675781 C 148.546875 80.707031 148.628906 80.71875 148.71875 80.71875 C 148.789062 80.71875 148.859375 80.707031 148.921875 80.6875 C 148.992188 80.664062 149.058594 80.632812 149.117188 80.589844 C 149.175781 80.539062 149.222656 80.480469 149.257812 80.40625 C 149.292969 80.335938 149.3125 80.25 149.3125 80.144531 Z M 149.3125 80.144531 "/>
<path style=" stroke:none;fill-rule:nonzero;fill:rgb(0%,0%,0%);fill-opacity:1;" d="M 163.429688 53.15625 L 161.378906 49.914062 C 161.386719 50 161.390625 50.085938 161.390625 50.171875 C 161.394531 50.246094 161.402344 50.324219 161.402344 50.410156 C 161.40625 50.492188 161.414062 50.5625 161.414062 50.625 L 161.414062 53.15625 L 160.945312 53.15625 L 160.945312 49.351562 L 161.554688 49.351562 L 163.613281 52.617188 C 163.613281 52.617188 163.609375 52.527344 163.601562 52.347656 C 163.59375 52.277344 163.585938 52.195312 163.582031 52.109375 C 163.582031 52.015625 163.582031 51.929688 163.582031 51.847656 L 163.582031 49.351562 L 164.046875 49.351562 L 164.046875 53.15625 Z M 163.429688 53.15625 "/>
<path style=" stroke:none;fill-rule:nonzero;fill:rgb(60.392157%,0%,100%);fill-opacity:1;" d="M 205.488281 97.246094 L 205.488281 96.933594 L 206.226562 96.933594 L 206.226562 94.738281 L 205.574219 95.203125 L 205.574219 94.855469 L 206.25 94.390625 L 206.59375 94.390625 L 206.59375 96.933594 L 207.289062 96.933594 L 207.289062 97.246094 Z M 205.488281 97.246094 "/>
<path style=" stroke:none;fill-rule:nonzero;fill:rgb(60.392157%,0%,100%);fill-opacity:1;" d="M 207.738281 97.246094 L 207.738281 96.933594 L 208.476562 96.933594 L 208.476562 94.738281 L 207.824219 95.203125 L 207.824219 94.855469 L 208.496094 94.390625 L 208.84375 94.390625 L 208.84375 96.933594 L 209.539062 96.933594 L 209.539062 97.246094 Z M 207.738281 97.246094 "/>
<path style=" stroke:none;fill-rule:nonzero;fill:rgb(60.392157%,0%,100%);fill-opacity:1;" d="M 205.671875 41.8125 L 205.671875 41.5 L 206.410156 41.5 L 206.410156 39.304688 L 205.761719 39.769531 L 205.761719 39.421875 L 206.433594 38.957031 L 206.777344 38.957031 L 206.777344 41.5 L 207.472656 41.5 L 207.472656 41.8125 Z M 205.671875 41.8125 "/>
<path style=" stroke:none;fill-rule:nonzero;fill:rgb(60.392157%,0%,100%);fill-opacity:1;" d="M 207.8125 41.8125 L 207.8125 41.554688 C 207.882812 41.394531 207.96875 41.257812 208.0625 41.140625 C 208.164062 41.019531 208.269531 40.910156 208.378906 40.808594 C 208.492188 40.707031 208.605469 40.617188 208.714844 40.535156 C 208.820312 40.449219 208.917969 40.367188 209.007812 40.289062 C 209.09375 40.203125 209.160156 40.113281 209.210938 40.019531 C 209.261719 39.925781 209.289062 39.820312 209.289062 39.703125 C 209.289062 39.625 209.277344 39.558594 209.253906 39.5 C 209.234375 39.433594 209.195312 39.378906 209.148438 39.335938 C 209.105469 39.292969 209.050781 39.265625 208.984375 39.25 C 208.917969 39.226562 208.847656 39.21875 208.769531 39.21875 C 208.695312 39.21875 208.625 39.226562 208.5625 39.25 C 208.496094 39.265625 208.4375 39.292969 208.386719 39.335938 C 208.335938 39.375 208.296875 39.421875 208.269531 39.488281 C 208.238281 39.546875 208.21875 39.613281 208.203125 39.691406 L 207.835938 39.660156 C 207.847656 39.5625 207.878906 39.464844 207.921875 39.378906 C 207.964844 39.289062 208.023438 39.207031 208.105469 39.140625 C 208.183594 39.070312 208.28125 39.019531 208.386719 38.980469 C 208.496094 38.9375 208.621094 38.914062 208.769531 38.914062 C 208.910156 38.914062 209.039062 38.933594 209.148438 38.96875 C 209.261719 39 209.355469 39.050781 209.429688 39.121094 C 209.507812 39.183594 209.5625 39.269531 209.601562 39.367188 C 209.644531 39.464844 209.667969 39.570312 209.667969 39.691406 C 209.667969 39.796875 209.648438 39.886719 209.613281 39.972656 C 209.582031 40.0625 209.539062 40.144531 209.484375 40.222656 C 209.421875 40.296875 209.355469 40.371094 209.277344 40.449219 C 209.203125 40.523438 209.125 40.597656 209.039062 40.667969 C 208.957031 40.730469 208.875 40.800781 208.789062 40.871094 C 208.707031 40.9375 208.628906 41.007812 208.550781 41.078125 C 208.476562 41.140625 208.414062 41.210938 208.355469 41.28125 C 208.296875 41.355469 208.25 41.429688 208.214844 41.5 L 209.710938 41.5 L 209.710938 41.8125 Z M 207.8125 41.8125 "/>
<path style=" stroke:none;fill-rule:nonzero;fill:rgb(60.392157%,0%,100%);fill-opacity:1;" d="M 141.09375 100.785156 L 141.09375 100.472656 L 141.832031 100.472656 L 141.832031 98.277344 L 141.179688 98.742188 L 141.179688 98.398438 L 141.851562 97.933594 L 142.199219 97.933594 L 142.199219 100.472656 L 142.894531 100.472656 L 142.894531 100.785156 Z M 141.09375 100.785156 "/>
<path style=" stroke:none;fill-rule:nonzero;fill:rgb(60.392157%,0%,100%);fill-opacity:1;" d="M 145.164062 99.996094 C 145.164062 100.125 145.140625 100.246094 145.097656 100.355469 C 145.054688 100.457031 144.988281 100.542969 144.902344 100.613281 C 144.820312 100.679688 144.722656 100.730469 144.601562 100.777344 C 144.484375 100.8125 144.34375 100.828125 144.1875 100.828125 C 144.015625 100.828125 143.867188 100.808594 143.742188 100.765625 C 143.617188 100.722656 143.519531 100.664062 143.441406 100.589844 C 143.359375 100.511719 143.300781 100.429688 143.253906 100.34375 C 143.21875 100.25 143.195312 100.152344 143.191406 100.050781 L 143.570312 100.019531 C 143.574219 100.089844 143.59375 100.160156 143.625 100.222656 C 143.652344 100.289062 143.691406 100.34375 143.742188 100.386719 C 143.792969 100.429688 143.855469 100.46875 143.929688 100.496094 C 144 100.515625 144.085938 100.527344 144.1875 100.527344 C 144.375 100.527344 144.519531 100.484375 144.621094 100.398438 C 144.730469 100.304688 144.785156 100.167969 144.785156 99.984375 C 144.785156 99.878906 144.757812 99.792969 144.707031 99.726562 C 144.664062 99.660156 144.605469 99.617188 144.535156 99.585938 C 144.460938 99.550781 144.386719 99.527344 144.308594 99.511719 C 144.226562 99.496094 144.148438 99.488281 144.078125 99.488281 L 143.875 99.488281 L 143.875 99.175781 L 144.070312 99.175781 C 144.140625 99.175781 144.210938 99.167969 144.285156 99.152344 C 144.363281 99.140625 144.433594 99.117188 144.492188 99.078125 C 144.554688 99.042969 144.605469 98.992188 144.644531 98.925781 C 144.6875 98.863281 144.707031 98.78125 144.707031 98.679688 C 144.707031 98.527344 144.660156 98.40625 144.566406 98.320312 C 144.480469 98.234375 144.34375 98.191406 144.167969 98.191406 C 144.007812 98.191406 143.875 98.230469 143.777344 98.308594 C 143.671875 98.390625 143.617188 98.503906 143.601562 98.65625 L 143.234375 98.632812 C 143.246094 98.503906 143.28125 98.394531 143.332031 98.300781 C 143.386719 98.207031 143.457031 98.132812 143.539062 98.074219 C 143.625 98.007812 143.722656 97.960938 143.832031 97.933594 C 143.9375 97.90625 144.050781 97.886719 144.175781 97.886719 C 144.335938 97.886719 144.472656 97.910156 144.589844 97.953125 C 144.703125 97.992188 144.796875 98.046875 144.871094 98.117188 C 144.941406 98.179688 144.992188 98.261719 145.023438 98.355469 C 145.058594 98.441406 145.078125 98.539062 145.078125 98.644531 C 145.078125 98.726562 145.066406 98.804688 145.042969 98.882812 C 145.023438 98.957031 144.984375 99.019531 144.9375 99.078125 C 144.890625 99.136719 144.832031 99.1875 144.75 99.230469 C 144.679688 99.265625 144.589844 99.292969 144.480469 99.316406 L 144.480469 99.328125 C 144.59375 99.34375 144.699219 99.371094 144.785156 99.414062 C 144.871094 99.449219 144.9375 99.496094 144.988281 99.554688 C 145.046875 99.613281 145.089844 99.679688 145.121094 99.757812 C 145.148438 99.832031 145.164062 99.910156 145.164062 99.996094 Z M 145.164062 99.996094 "/>
<path style=" stroke:none;fill-rule:nonzero;fill:rgb(0%,0%,0%);fill-opacity:1;" d="M 152.972656 44.753906 C 152.972656 45.050781 152.929688 45.320312 152.839844 45.5625 C 152.753906 45.808594 152.628906 46.019531 152.460938 46.191406 C 152.300781 46.363281 152.105469 46.5 151.867188 46.589844 C 151.632812 46.683594 151.371094 46.730469 151.074219 46.730469 C 150.753906 46.730469 150.476562 46.683594 150.238281 46.589844 C 150.007812 46.492188 149.8125 46.351562 149.65625 46.179688 C 149.496094 46.003906 149.375 45.792969 149.296875 45.554688 C 149.214844 45.308594 149.175781 45.042969 149.175781 44.753906 C 149.175781 44.457031 149.214844 44.191406 149.296875 43.953125 C 149.382812 43.710938 149.503906 43.503906 149.664062 43.335938 C 149.832031 43.171875 150.027344 43.042969 150.261719 42.949219 C 150.5 42.855469 150.769531 42.808594 151.074219 42.808594 C 151.378906 42.808594 151.648438 42.855469 151.886719 42.949219 C 152.125 43.042969 152.324219 43.175781 152.484375 43.347656 C 152.640625 43.515625 152.761719 43.714844 152.839844 43.953125 C 152.929688 44.191406 152.972656 44.457031 152.972656 44.753906 Z M 152.441406 44.753906 C 152.441406 44.523438 152.410156 44.316406 152.355469 44.125 C 152.292969 43.941406 152.207031 43.78125 152.09375 43.652344 C 151.976562 43.515625 151.832031 43.410156 151.660156 43.335938 C 151.492188 43.265625 151.296875 43.230469 151.074219 43.230469 C 150.847656 43.230469 150.652344 43.265625 150.476562 43.335938 C 150.304688 43.410156 150.160156 43.515625 150.042969 43.652344 C 149.9375 43.78125 149.851562 43.941406 149.796875 44.125 C 149.734375 44.316406 149.707031 44.523438 149.707031 44.753906 C 149.707031 44.984375 149.734375 45.195312 149.796875 45.390625 C 149.851562 45.582031 149.9375 45.742188 150.054688 45.878906 C 150.167969 46.015625 150.308594 46.125 150.476562 46.203125 C 150.652344 46.273438 150.847656 46.308594 151.074219 46.308594 C 151.3125 46.308594 151.519531 46.273438 151.691406 46.203125 C 151.867188 46.125 152.007812 46.015625 152.113281 45.878906 C 152.222656 45.734375 152.300781 45.570312 152.355469 45.378906 C 152.410156 45.1875 152.441406 44.976562 152.441406 44.753906 Z M 152.441406 44.753906 "/>
<path style=" stroke:none;fill-rule:nonzero;fill:rgb(0%,0%,0%);fill-opacity:1;" d="M 223.457031 103.851562 C 223.457031 104.148438 223.414062 104.417969 223.324219 104.664062 C 223.238281 104.910156 223.113281 105.117188 222.945312 105.289062 C 222.785156 105.460938 222.589844 105.597656 222.351562 105.6875 C 222.117188 105.78125 221.855469 105.828125 221.558594 105.828125 C 221.238281 105.828125 220.960938 105.78125 220.722656 105.6875 C 220.492188 105.589844 220.296875 105.453125 220.140625 105.277344 C 219.980469 105.101562 219.859375 104.890625 219.78125 104.652344 C 219.699219 104.410156 219.664062 104.140625 219.664062 103.851562 C 219.664062 103.558594 219.699219 103.289062 219.78125 103.050781 C 219.867188 102.808594 219.988281 102.601562 220.148438 102.433594 C 220.316406 102.269531 220.511719 102.140625 220.746094 102.046875 C 220.984375 101.953125 221.253906 101.90625 221.558594 101.90625 C 221.863281 101.90625 222.132812 101.953125 222.371094 102.046875 C 222.609375 102.140625 222.808594 102.273438 222.96875 102.445312 C 223.125 102.613281 223.246094 102.8125 223.324219 103.050781 C 223.414062 103.289062 223.457031 103.558594 223.457031 103.851562 Z M 222.925781 103.851562 C 222.925781 103.621094 222.894531 103.414062 222.839844 103.222656 C 222.777344 103.039062 222.691406 102.878906 222.578125 102.75 C 222.460938 102.613281 222.316406 102.507812 222.144531 102.433594 C 221.976562 102.363281 221.78125 102.328125 221.558594 102.328125 C 221.335938 102.328125 221.136719 102.363281 220.960938 102.433594 C 220.789062 102.507812 220.644531 102.613281 220.53125 102.75 C 220.421875 102.878906 220.335938 103.039062 220.28125 103.222656 C 220.21875 103.414062 220.191406 103.621094 220.191406 103.851562 C 220.191406 104.082031 220.21875 104.292969 220.28125 104.488281 C 220.335938 104.679688 220.421875 104.839844 220.539062 104.976562 C 220.652344 105.113281 220.792969 105.222656 220.960938 105.300781 C 221.136719 105.375 221.335938 105.410156 221.558594 105.410156 C 221.796875 105.410156 222.003906 105.375 222.175781 105.300781 C 222.351562 105.222656 222.492188 105.113281 222.601562 104.976562 C 222.707031 104.832031 222.785156 104.667969 222.839844 104.476562 C 222.894531 104.285156 222.925781 104.074219 222.925781 103.851562 Z M 222.925781 103.851562 "/>
<path style=" stroke:none;fill-rule:nonzero;fill:rgb(60.392157%,0%,100%);fill-opacity:1;" d="M 214.960938 106.328125 L 214.960938 106.015625 L 215.699219 106.015625 L 215.699219 103.820312 L 215.046875 104.285156 L 215.046875 103.9375 L 215.71875 103.472656 L 216.066406 103.472656 L 216.066406 106.015625 L 216.761719 106.015625 L 216.761719 106.328125 Z M 214.960938 106.328125 "/>
<path style=" stroke:none;fill-rule:nonzero;fill:rgb(60.392157%,0%,100%);fill-opacity:1;" d="M 218.683594 105.679688 L 218.683594 106.328125 L 218.335938 106.328125 L 218.335938 105.679688 L 216.992188 105.679688 L 216.992188 105.398438 L 218.304688 103.472656 L 218.683594 103.472656 L 218.683594 105.398438 L 219.085938 105.398438 L 219.085938 105.679688 Z M 218.335938 103.882812 C 218.335938 103.890625 218.328125 103.90625 218.316406 103.925781 C 218.304688 103.941406 218.296875 103.964844 218.28125 103.992188 C 218.265625 104.011719 218.253906 104.039062 218.238281 104.066406 C 218.222656 104.089844 218.210938 104.109375 218.207031 104.121094 L 217.46875 105.203125 C 217.460938 105.210938 217.449219 105.222656 217.4375 105.246094 C 217.429688 105.261719 217.417969 105.277344 217.402344 105.300781 C 217.386719 105.316406 217.375 105.332031 217.359375 105.355469 C 217.34375 105.371094 217.332031 105.382812 217.328125 105.398438 L 218.335938 105.398438 Z M 218.335938 103.882812 "/>
<path style=" stroke:none;fill-rule:nonzero;fill:rgb(0%,0%,0%);fill-opacity:1;" d="M 211.671875 25.554688 L 209.625 22.308594 C 209.628906 22.398438 209.636719 22.484375 209.636719 22.570312 C 209.640625 22.644531 209.644531 22.722656 209.644531 22.808594 C 209.652344 22.890625 209.65625 22.960938 209.65625 23.023438 L 209.65625 25.554688 L 209.191406 25.554688 L 209.191406 21.75 L 209.796875 21.75 L 211.859375 25.011719 C 211.859375 25.011719 211.851562 24.925781 211.847656 24.742188 C 211.839844 24.671875 211.832031 24.589844 211.824219 24.503906 C 211.824219 24.414062 211.824219 24.328125 211.824219 24.246094 L 211.824219 21.75 L 212.292969 21.75 L 212.292969 25.554688 Z M 211.671875 25.554688 "/>
<path style=" stroke:none;fill-rule:nonzero;fill:rgb(0%,0%,0%);fill-opacity:1;" d="M 224.058594 48.601562 C 224.058594 48.898438 224.015625 49.167969 223.929688 49.410156 C 223.84375 49.65625 223.714844 49.863281 223.550781 50.039062 C 223.390625 50.210938 223.191406 50.347656 222.953125 50.4375 C 222.722656 50.53125 222.457031 50.578125 222.164062 50.578125 C 221.84375 50.578125 221.566406 50.53125 221.328125 50.4375 C 221.09375 50.335938 220.902344 50.199219 220.742188 50.027344 C 220.582031 49.847656 220.464844 49.636719 220.386719 49.398438 C 220.304688 49.15625 220.265625 48.890625 220.265625 48.601562 C 220.265625 48.304688 220.304688 48.039062 220.386719 47.800781 C 220.472656 47.554688 220.59375 47.351562 220.753906 47.183594 C 220.917969 47.019531 221.117188 46.890625 221.351562 46.792969 C 221.589844 46.703125 221.859375 46.652344 222.164062 46.652344 C 222.46875 46.652344 222.738281 46.703125 222.976562 46.792969 C 223.214844 46.890625 223.414062 47.019531 223.574219 47.195312 C 223.730469 47.363281 223.847656 47.5625 223.929688 47.800781 C 224.015625 48.039062 224.058594 48.304688 224.058594 48.601562 Z M 223.527344 48.601562 C 223.527344 48.371094 223.5 48.160156 223.441406 47.972656 C 223.382812 47.785156 223.296875 47.625 223.183594 47.496094 C 223.066406 47.363281 222.921875 47.257812 222.75 47.183594 C 222.582031 47.113281 222.386719 47.074219 222.164062 47.074219 C 221.9375 47.074219 221.742188 47.113281 221.566406 47.183594 C 221.394531 47.257812 221.246094 47.363281 221.132812 47.496094 C 221.023438 47.625 220.941406 47.785156 220.882812 47.972656 C 220.824219 48.160156 220.796875 48.371094 220.796875 48.601562 C 220.796875 48.832031 220.824219 49.042969 220.882812 49.238281 C 220.941406 49.425781 221.027344 49.589844 221.144531 49.722656 C 221.257812 49.863281 221.398438 49.96875 221.566406 50.046875 C 221.742188 50.121094 221.9375 50.15625 222.164062 50.15625 C 222.402344 50.15625 222.609375 50.121094 222.78125 50.046875 C 222.953125 49.96875 223.09375 49.863281 223.203125 49.722656 C 223.3125 49.582031 223.390625 49.414062 223.441406 49.226562 C 223.5 49.03125 223.527344 48.824219 223.527344 48.601562 Z M 223.527344 48.601562 "/>
<path style=" stroke:none;fill-rule:nonzero;fill:rgb(60.392157%,0%,100%);fill-opacity:1;" d="M 215.617188 51.117188 L 215.617188 50.804688 L 216.355469 50.804688 L 216.355469 48.609375 L 215.707031 49.074219 L 215.707031 48.730469 L 216.378906 48.265625 L 216.722656 48.265625 L 216.722656 50.804688 L 217.417969 50.804688 L 217.417969 51.117188 Z M 215.617188 51.117188 "/>
<path style=" stroke:none;fill-rule:nonzero;fill:rgb(60.392157%,0%,100%);fill-opacity:1;" d="M 219.6875 50.1875 C 219.6875 50.328125 219.667969 50.457031 219.625 50.578125 C 219.585938 50.703125 219.527344 50.804688 219.449219 50.890625 C 219.367188 50.972656 219.269531 51.039062 219.15625 51.085938 C 219.039062 51.136719 218.90625 51.164062 218.757812 51.164062 C 218.589844 51.164062 218.445312 51.128906 218.324219 51.066406 C 218.199219 51 218.09375 50.910156 218.007812 50.792969 C 217.925781 50.671875 217.867188 50.523438 217.824219 50.351562 C 217.785156 50.179688 217.769531 49.980469 217.769531 49.757812 C 217.769531 49.503906 217.792969 49.28125 217.835938 49.085938 C 217.878906 48.890625 217.945312 48.734375 218.03125 48.609375 C 218.121094 48.480469 218.230469 48.382812 218.355469 48.320312 C 218.484375 48.253906 218.628906 48.222656 218.789062 48.222656 C 218.890625 48.222656 218.980469 48.230469 219.058594 48.253906 C 219.148438 48.269531 219.222656 48.300781 219.289062 48.351562 C 219.359375 48.394531 219.421875 48.457031 219.472656 48.535156 C 219.527344 48.609375 219.570312 48.695312 219.601562 48.804688 L 219.253906 48.859375 C 219.21875 48.738281 219.15625 48.652344 219.070312 48.601562 C 218.988281 48.542969 218.898438 48.511719 218.789062 48.511719 C 218.6875 48.511719 218.59375 48.539062 218.507812 48.589844 C 218.425781 48.632812 218.359375 48.703125 218.300781 48.792969 C 218.25 48.890625 218.207031 49.007812 218.171875 49.152344 C 218.140625 49.296875 218.128906 49.460938 218.128906 49.648438 C 218.191406 49.527344 218.285156 49.433594 218.410156 49.367188 C 218.53125 49.300781 218.667969 49.269531 218.820312 49.269531 C 218.953125 49.269531 219.066406 49.292969 219.167969 49.335938 C 219.277344 49.378906 219.367188 49.441406 219.4375 49.519531 C 219.519531 49.601562 219.582031 49.695312 219.625 49.8125 C 219.667969 49.917969 219.6875 50.046875 219.6875 50.1875 Z M 219.308594 50.199219 C 219.308594 50.101562 219.296875 50.011719 219.277344 49.929688 C 219.253906 49.851562 219.21875 49.785156 219.167969 49.734375 C 219.117188 49.679688 219.054688 49.636719 218.984375 49.605469 C 218.910156 49.570312 218.828125 49.550781 218.734375 49.550781 C 218.667969 49.550781 218.597656 49.5625 218.527344 49.582031 C 218.464844 49.605469 218.402344 49.636719 218.34375 49.679688 C 218.292969 49.722656 218.25 49.785156 218.214844 49.855469 C 218.175781 49.925781 218.160156 50.011719 218.160156 50.113281 C 218.160156 50.222656 218.171875 50.324219 218.203125 50.417969 C 218.230469 50.503906 218.269531 50.582031 218.324219 50.652344 C 218.371094 50.71875 218.433594 50.773438 218.507812 50.816406 C 218.578125 50.855469 218.660156 50.871094 218.746094 50.871094 C 218.832031 50.871094 218.910156 50.855469 218.984375 50.828125 C 219.054688 50.792969 219.113281 50.746094 219.15625 50.6875 C 219.207031 50.628906 219.246094 50.5625 219.265625 50.480469 C 219.292969 50.394531 219.308594 50.300781 219.308594 50.199219 Z M 219.308594 50.199219 "/>
<path style=" stroke:none;fill-rule:nonzero;fill:rgb(0%,0%,0%);fill-opacity:1;" d="M 224.058594 17.105469 C 224.058594 17.402344 224.015625 17.671875 223.929688 17.914062 C 223.84375 18.160156 223.714844 18.371094 223.550781 18.542969 C 223.390625 18.714844 223.191406 18.851562 222.953125 18.941406 C 222.722656 19.035156 222.457031 19.082031 222.164062 19.082031 C 221.84375 19.082031 221.566406 19.035156 221.328125 18.941406 C 221.09375 18.84375 220.902344 18.703125 220.742188 18.53125 C 220.582031 18.351562 220.464844 18.140625 220.386719 17.90625 C 220.304688 17.660156 220.265625 17.394531 220.265625 17.105469 C 220.265625 16.808594 220.304688 16.542969 220.386719 16.304688 C 220.472656 16.0625 220.59375 15.855469 220.753906 15.6875 C 220.917969 15.523438 221.117188 15.394531 221.351562 15.300781 C 221.589844 15.207031 221.859375 15.160156 222.164062 15.160156 C 222.46875 15.160156 222.738281 15.207031 222.976562 15.300781 C 223.214844 15.394531 223.414062 15.527344 223.574219 15.699219 C 223.730469 15.867188 223.847656 16.066406 223.929688 16.304688 C 224.015625 16.542969 224.058594 16.808594 224.058594 17.105469 Z M 223.527344 17.105469 C 223.527344 16.875 223.5 16.667969 223.441406 16.476562 C 223.382812 16.289062 223.296875 16.132812 223.183594 16 C 223.066406 15.867188 222.921875 15.761719 222.75 15.6875 C 222.582031 15.617188 222.386719 15.578125 222.164062 15.578125 C 221.9375 15.578125 221.742188 15.617188 221.566406 15.6875 C 221.394531 15.761719 221.246094 15.867188 221.132812 16 C 221.023438 16.132812 220.941406 16.289062 220.882812 16.476562 C 220.824219 16.667969 220.796875 16.875 220.796875 17.105469 C 220.796875 17.335938 220.824219 17.546875 220.882812 17.742188 C 220.941406 17.929688 221.027344 18.09375 221.144531 18.230469 C 221.257812 18.367188 221.398438 18.476562 221.566406 18.554688 C 221.742188 18.625 221.9375 18.660156 222.164062 18.660156 C 222.402344 18.660156 222.609375 18.625 222.78125 18.554688 C 222.953125 18.476562 223.09375 18.367188 223.203125 18.230469 C 223.3125 18.085938 223.390625 17.921875 223.441406 17.730469 C 223.5 17.535156 223.527344 17.328125 223.527344 17.105469 Z M 223.527344 17.105469 "/>
<path style="fill:none;stroke-width:0.0333333;stroke-linecap:butt;stroke-linejoin:miter;stroke:rgb(0%,0%,0%);stroke-opacity:1;stroke-miterlimit:10;" d="M 1.857856 3.587132 L 2.803372 3.036616 " transform="matrix(17.343387,0,0,17.299107,146.200354,17.121598)"/>
<path style="fill:none;stroke-width:0.0333333;stroke-linecap:butt;stroke-linejoin:miter;stroke:rgb(0%,0%,0%);stroke-opacity:1;stroke-miterlimit:10;" d="M 1.865965 3.582164 L 1.865965 4.650455 " transform="matrix(17.343387,0,0,17.299107,146.200354,17.121598)"/>
<path style="fill:none;stroke-width:0.0333333;stroke-linecap:butt;stroke-linejoin:miter;stroke:rgb(0%,0%,0%);stroke-opacity:1;stroke-miterlimit:10;" d="M 2.03286 3.678132 L 2.03286 4.55381 " transform="matrix(17.343387,0,0,17.299107,146.200354,17.121598)"/>
<path style="fill:none;stroke-width:0.0333333;stroke-linecap:butt;stroke-linejoin:miter;stroke:rgb(0%,0%,0%);stroke-opacity:1;stroke-miterlimit:10;" d="M 1.874523 3.587132 L 0.93126 3.036616 " transform="matrix(17.343387,0,0,17.299107,146.200354,17.121598)"/>
<path style="fill:none;stroke-width:0.0333333;stroke-linecap:butt;stroke-linejoin:miter;stroke:rgb(0%,0%,0%);stroke-opacity:1;stroke-miterlimit:10;" d="M 2.795038 3.041358 L 3.718931 3.586906 " transform="matrix(17.343387,0,0,17.299107,146.200354,17.121598)"/>
<path style="fill:none;stroke-width:0.0333333;stroke-linecap:butt;stroke-linejoin:miter;stroke:rgb(0%,0%,0%);stroke-opacity:1;stroke-miterlimit:10;" d="M 2.794362 3.234648 L 3.552036 3.682197 " transform="matrix(17.343387,0,0,17.299107,146.200354,17.121598)"/>
<path style="fill:none;stroke-width:0.0333333;stroke-linecap:butt;stroke-linejoin:miter;stroke:rgb(0%,0%,0%);stroke-opacity:1;stroke-miterlimit:10;" d="M 2.795038 3.051068 L 2.795038 1.963584 " transform="matrix(17.343387,0,0,17.299107,146.200354,17.121598)"/>
<path style="fill:none;stroke-width:0.0333333;stroke-linecap:butt;stroke-linejoin:miter;stroke:rgb(0%,0%,0%);stroke-opacity:1;stroke-miterlimit:10;" d="M 1.857856 4.645713 L 2.559673 5.046293 " transform="matrix(17.343387,0,0,17.299107,146.200354,17.121598)"/>
<path style="fill:none;stroke-width:0.0333333;stroke-linecap:butt;stroke-linejoin:miter;stroke:rgb(0%,0%,0%);stroke-opacity:1;stroke-miterlimit:10;" d="M 1.874298 4.645713 L 0.931486 5.185164 " transform="matrix(17.343387,0,0,17.299107,146.200354,17.121598)"/>
<path style="fill:none;stroke-width:0.0333333;stroke-linecap:butt;stroke-linejoin:miter;stroke:rgb(0%,0%,0%);stroke-opacity:1;stroke-miterlimit:10;" d="M 0.948153 3.036616 L -0.00839896 3.586906 " transform="matrix(17.343387,0,0,17.299107,146.200354,17.121598)"/>
<path style="fill:none;stroke-width:0.0333333;stroke-linecap:butt;stroke-linejoin:miter;stroke:rgb(0%,0%,0%);stroke-opacity:1;stroke-miterlimit:10;" d="M 1.023154 3.090132 L 1.023154 2.126616 " transform="matrix(17.343387,0,0,17.299107,146.200354,17.121598)"/>
<path style="fill:none;stroke-width:0.0333333;stroke-linecap:butt;stroke-linejoin:miter;stroke:rgb(0%,0%,0%);stroke-opacity:1;stroke-miterlimit:10;" d="M 0.856259 3.089229 L 0.856259 2.126616 " transform="matrix(17.343387,0,0,17.299107,146.200354,17.121598)"/>
<path style="fill:none;stroke-width:0.0333333;stroke-linecap:butt;stroke-linejoin:miter;stroke:rgb(0%,0%,0%);stroke-opacity:1;stroke-miterlimit:10;" d="M 1.189599 2.517261 L 0.689589 2.517261 " transform="matrix(17.343387,0,0,17.299107,146.200354,17.121598)"/>
<path style="fill:none;stroke-width:0.0333333;stroke-linecap:butt;stroke-linejoin:miter;stroke:rgb(0%,0%,0%);stroke-opacity:1;stroke-miterlimit:10;" d="M 1.189599 2.650487 L 0.689589 2.650487 " transform="matrix(17.343387,0,0,17.299107,146.200354,17.121598)"/>
<path style="fill:none;stroke-width:0.0333333;stroke-linecap:butt;stroke-linejoin:miter;stroke:rgb(0%,0%,0%);stroke-opacity:1;stroke-miterlimit:10;" d="M 3.710823 3.572681 L 3.710823 4.660164 " transform="matrix(17.343387,0,0,17.299107,146.200354,17.121598)"/>
<path style="fill:none;stroke-width:0.0333333;stroke-linecap:butt;stroke-linejoin:miter;stroke:rgb(0%,0%,0%);stroke-opacity:1;stroke-miterlimit:10;" d="M 2.786705 1.97781 L 3.729742 1.441068 " transform="matrix(17.343387,0,0,17.299107,146.200354,17.121598)"/>
<path style="fill:none;stroke-width:0.0333333;stroke-linecap:butt;stroke-linejoin:miter;stroke:rgb(0%,0%,0%);stroke-opacity:1;stroke-miterlimit:10;" d="M 0.947927 5.185164 L -0.00839896 4.645487 " transform="matrix(17.343387,0,0,17.299107,146.200354,17.121598)"/>
<path style="fill:none;stroke-width:0.0333333;stroke-linecap:butt;stroke-linejoin:miter;stroke:rgb(0%,0%,0%);stroke-opacity:1;stroke-miterlimit:10;" d="M 0.773599 1.878455 L 0.463908 1.702326 " transform="matrix(17.343387,0,0,17.299107,146.200354,17.121598)"/>
<path style="fill:none;stroke-width:0.0333333;stroke-linecap:butt;stroke-linejoin:miter;stroke:rgb(0%,0%,0%);stroke-opacity:1;stroke-miterlimit:10;" d="M 3.627263 4.698777 L 3.956324 4.887552 " transform="matrix(17.343387,0,0,17.299107,146.200354,17.121598)"/>
<path style="fill:none;stroke-width:0.0333333;stroke-linecap:butt;stroke-linejoin:miter;stroke:rgb(0%,0%,0%);stroke-opacity:1;stroke-miterlimit:10;" d="M 3.710823 4.554261 L 4.039208 4.74281 " transform="matrix(17.343387,0,0,17.299107,146.200354,17.121598)"/>
<path style="fill:none;stroke-width:0.0333333;stroke-linecap:butt;stroke-linejoin:miter;stroke:rgb(0%,0%,0%);stroke-opacity:1;stroke-miterlimit:10;" d="M 3.721409 1.455519 L 3.721409 0.530842 " transform="matrix(17.343387,0,0,17.299107,146.200354,17.121598)"/>
<path style="fill:none;stroke-width:0.0333333;stroke-linecap:butt;stroke-linejoin:miter;stroke:rgb(0%,0%,0%);stroke-opacity:1;stroke-miterlimit:10;" d="M 3.971414 0.926455 L 3.471404 0.926455 " transform="matrix(17.343387,0,0,17.299107,146.200354,17.121598)"/>
<path style="fill:none;stroke-width:0.0333333;stroke-linecap:butt;stroke-linejoin:miter;stroke:rgb(0%,0%,0%);stroke-opacity:1;stroke-miterlimit:10;" d="M 3.971414 1.059681 L 3.471404 1.059681 " transform="matrix(17.343387,0,0,17.299107,146.200354,17.121598)"/>
<path style="fill:none;stroke-width:0.0333333;stroke-linecap:butt;stroke-linejoin:miter;stroke:rgb(0%,0%,0%);stroke-opacity:1;stroke-miterlimit:10;" d="M 3.637173 1.493681 L 3.992586 1.696003 " transform="matrix(17.343387,0,0,17.299107,146.200354,17.121598)"/>
<path style="fill:none;stroke-width:0.0333333;stroke-linecap:butt;stroke-linejoin:miter;stroke:rgb(0%,0%,0%);stroke-opacity:1;stroke-miterlimit:10;" d="M 3.721409 1.349842 L 4.07502 1.551261 " transform="matrix(17.343387,0,0,17.299107,146.200354,17.121598)"/>
<path style="fill:none;stroke-width:0.0333333;stroke-linecap:butt;stroke-linejoin:miter;stroke:rgb(0%,0%,0%);stroke-opacity:1;stroke-miterlimit:10;" d="M 3.887403 0.282455 L 4.197545 0.104745 " transform="matrix(17.343387,0,0,17.299107,146.200354,17.121598)"/>
<path style="fill:none;stroke-width:0.0333333;stroke-linecap:butt;stroke-linejoin:miter;stroke:rgb(0%,0%,0%);stroke-opacity:1;stroke-miterlimit:10;" d="M 2.961032 5.084455 L 3.718931 4.645487 " transform="matrix(17.343387,0,0,17.299107,146.200354,17.121598)"/>
<path style="fill:none;stroke-width:0.0333333;stroke-linecap:butt;stroke-linejoin:miter;stroke:rgb(0%,0%,0%);stroke-opacity:1;stroke-miterlimit:10;" d="M -0.0000654535 3.572681 L -0.0000654535 4.660164 " transform="matrix(17.343387,0,0,17.299107,146.200354,17.121598)"/>
</g>
</svg>
