<?xml version="1.0" encoding="UTF-8"?>
<svg xmlns="http://www.w3.org/2000/svg" xmlns:xlink="http://www.w3.org/1999/xlink" width="304.8pt" height="86.4pt" viewBox="0 0 304.8 86.4" version="1.1">
<g id="surface892">
<path style=" stroke:none;fill-rule:nonzero;fill:rgb(60.392157%,0%,100%);fill-opacity:1;" d="M 31.191406 15.878906 L 31.191406 15.5625 L 31.929688 15.5625 L 31.929688 13.367188 L 31.277344 13.832031 L 31.277344 13.488281 L 31.949219 13.019531 L 32.296875 13.019531 L 32.296875 15.5625 L 32.992188 15.5625 L 32.992188 15.878906 Z M 31.191406 15.878906 "/>
<path style=" stroke:none;fill-rule:nonzero;fill:rgb(60.392157%,0%,100%);fill-opacity:1;" d="M 13.597656 25.957031 L 13.597656 25.695312 C 13.667969 25.539062 13.753906 25.402344 13.847656 25.285156 C 13.949219 25.164062 14.054688 25.054688 14.160156 24.949219 C 14.277344 24.851562 14.390625 24.761719 14.496094 24.679688 C 14.605469 24.59375 14.703125 24.511719 14.789062 24.429688 C 14.878906 24.34375 14.945312 24.253906 14.996094 24.160156 C 15.046875 24.070312 15.074219 23.964844 15.074219 23.847656 C 15.074219 23.769531 15.0625 23.699219 15.039062 23.640625 C 15.019531 23.578125 14.980469 23.523438 14.929688 23.480469 C 14.886719 23.4375 14.835938 23.410156 14.769531 23.390625 C 14.703125 23.371094 14.628906 23.359375 14.550781 23.359375 C 14.480469 23.359375 14.410156 23.371094 14.347656 23.390625 C 14.28125 23.410156 14.222656 23.4375 14.171875 23.480469 C 14.121094 23.515625 14.082031 23.566406 14.054688 23.628906 C 14.023438 23.691406 14 23.757812 13.988281 23.835938 L 13.621094 23.804688 C 13.632812 23.703125 13.664062 23.609375 13.707031 23.523438 C 13.75 23.429688 13.808594 23.347656 13.890625 23.285156 C 13.96875 23.214844 14.0625 23.160156 14.171875 23.121094 C 14.28125 23.078125 14.40625 23.058594 14.550781 23.058594 C 14.695312 23.058594 14.824219 23.074219 14.929688 23.109375 C 15.046875 23.140625 15.140625 23.191406 15.214844 23.261719 C 15.292969 23.328125 15.347656 23.410156 15.386719 23.511719 C 15.429688 23.605469 15.453125 23.714844 15.453125 23.835938 C 15.453125 23.9375 15.433594 24.03125 15.398438 24.117188 C 15.367188 24.203125 15.324219 24.289062 15.269531 24.367188 C 15.207031 24.4375 15.140625 24.515625 15.0625 24.59375 C 14.988281 24.667969 14.910156 24.738281 14.824219 24.808594 C 14.742188 24.875 14.660156 24.945312 14.574219 25.015625 C 14.492188 25.078125 14.414062 25.148438 14.335938 25.21875 C 14.261719 25.285156 14.195312 25.355469 14.140625 25.425781 C 14.082031 25.5 14.035156 25.570312 14 25.640625 L 15.496094 25.640625 L 15.496094 25.957031 Z M 13.597656 25.957031 "/>
<path style=" stroke:none;fill-rule:nonzero;fill:rgb(60.392157%,0%,100%);fill-opacity:1;" d="M 15.496094 45.382812 C 15.496094 45.511719 15.472656 45.628906 15.429688 45.738281 C 15.386719 45.839844 15.320312 45.925781 15.234375 45.996094 C 15.152344 46.0625 15.054688 46.117188 14.929688 46.160156 C 14.816406 46.195312 14.675781 46.214844 14.519531 46.214844 C 14.347656 46.214844 14.195312 46.191406 14.074219 46.148438 C 13.949219 46.105469 13.851562 46.050781 13.769531 45.976562 C 13.691406 45.898438 13.628906 45.8125 13.585938 45.726562 C 13.550781 45.636719 13.527344 45.539062 13.523438 45.433594 L 13.902344 45.402344 C 13.90625 45.476562 13.925781 45.542969 13.957031 45.609375 C 13.984375 45.671875 14.023438 45.726562 14.074219 45.769531 C 14.125 45.8125 14.1875 45.851562 14.257812 45.878906 C 14.328125 45.902344 14.417969 45.910156 14.519531 45.910156 C 14.707031 45.910156 14.851562 45.867188 14.953125 45.78125 C 15.0625 45.691406 15.117188 45.550781 15.117188 45.371094 C 15.117188 45.261719 15.089844 45.175781 15.039062 45.109375 C 14.996094 45.046875 14.9375 45 14.867188 44.96875 C 14.792969 44.933594 14.71875 44.910156 14.640625 44.894531 C 14.558594 44.882812 14.480469 44.871094 14.410156 44.871094 L 14.207031 44.871094 L 14.207031 44.558594 L 14.398438 44.558594 C 14.472656 44.558594 14.542969 44.554688 14.617188 44.539062 C 14.695312 44.523438 14.761719 44.5 14.824219 44.460938 C 14.886719 44.425781 14.9375 44.375 14.976562 44.308594 C 15.019531 44.246094 15.039062 44.164062 15.039062 44.0625 C 15.039062 43.910156 14.992188 43.792969 14.898438 43.703125 C 14.8125 43.617188 14.675781 43.574219 14.496094 43.574219 C 14.339844 43.574219 14.207031 43.617188 14.109375 43.695312 C 14.003906 43.773438 13.949219 43.886719 13.933594 44.039062 L 13.566406 44.019531 C 13.578125 43.886719 13.613281 43.777344 13.664062 43.683594 C 13.71875 43.589844 13.789062 43.515625 13.867188 43.457031 C 13.957031 43.390625 14.054688 43.34375 14.160156 43.316406 C 14.269531 43.289062 14.382812 43.273438 14.507812 43.273438 C 14.664062 43.273438 14.804688 43.292969 14.921875 43.335938 C 15.035156 43.375 15.128906 43.429688 15.203125 43.5 C 15.273438 43.5625 15.324219 43.644531 15.355469 43.738281 C 15.390625 43.824219 15.410156 43.921875 15.410156 44.027344 C 15.410156 44.109375 15.398438 44.1875 15.375 44.265625 C 15.355469 44.339844 15.316406 44.40625 15.269531 44.460938 C 15.222656 44.519531 15.160156 44.570312 15.082031 44.613281 C 15.011719 44.652344 14.921875 44.679688 14.8125 44.699219 L 14.8125 44.710938 C 14.925781 44.726562 15.027344 44.753906 15.117188 44.796875 C 15.203125 44.835938 15.269531 44.882812 15.320312 44.9375 C 15.378906 44.996094 15.421875 45.066406 15.453125 45.144531 C 15.480469 45.214844 15.496094 45.292969 15.496094 45.382812 Z M 15.496094 45.382812 "/>
<path style=" stroke:none;fill-rule:nonzero;fill:rgb(60.392157%,0%,100%);fill-opacity:1;" d="M 32.738281 55.640625 L 32.738281 56.289062 L 32.390625 56.289062 L 32.390625 55.640625 L 31.046875 55.640625 L 31.046875 55.359375 L 32.355469 53.433594 L 32.738281 53.433594 L 32.738281 55.359375 L 33.136719 55.359375 L 33.136719 55.640625 Z M 32.390625 53.847656 C 32.390625 53.855469 32.382812 53.867188 32.367188 53.890625 C 32.359375 53.90625 32.347656 53.925781 32.335938 53.953125 C 32.320312 53.976562 32.304688 54.003906 32.292969 54.03125 C 32.277344 54.050781 32.265625 54.070312 32.257812 54.082031 L 31.523438 55.164062 C 31.515625 55.171875 31.503906 55.1875 31.488281 55.207031 C 31.480469 55.226562 31.472656 55.242188 31.457031 55.261719 C 31.441406 55.277344 31.425781 55.296875 31.414062 55.316406 C 31.398438 55.332031 31.386719 55.347656 31.382812 55.359375 L 32.390625 55.359375 Z M 32.390625 53.847656 "/>
<path style=" stroke:none;fill-rule:nonzero;fill:rgb(60.392157%,0%,100%);fill-opacity:1;" d="M 48.105469 46.671875 C 48.105469 46.816406 48.082031 46.949219 48.039062 47.070312 C 47.996094 47.1875 47.929688 47.289062 47.84375 47.375 C 47.761719 47.460938 47.660156 47.53125 47.53125 47.578125 C 47.40625 47.625 47.261719 47.644531 47.097656 47.644531 C 46.945312 47.644531 46.808594 47.625 46.695312 47.589844 C 46.585938 47.554688 46.492188 47.507812 46.414062 47.449219 C 46.339844 47.386719 46.277344 47.316406 46.230469 47.234375 C 46.183594 47.148438 46.152344 47.058594 46.132812 46.964844 L 46.511719 46.921875 C 46.523438 46.972656 46.542969 47.027344 46.566406 47.082031 C 46.59375 47.132812 46.628906 47.179688 46.671875 47.222656 C 46.722656 47.261719 46.78125 47.289062 46.847656 47.308594 C 46.917969 47.332031 47 47.34375 47.097656 47.34375 C 47.195312 47.34375 47.285156 47.328125 47.355469 47.296875 C 47.433594 47.273438 47.5 47.226562 47.550781 47.167969 C 47.609375 47.113281 47.652344 47.042969 47.683594 46.964844 C 47.710938 46.875 47.726562 46.785156 47.726562 46.683594 C 47.726562 46.589844 47.710938 46.507812 47.683594 46.433594 C 47.660156 46.363281 47.621094 46.300781 47.5625 46.25 C 47.511719 46.191406 47.445312 46.148438 47.367188 46.121094 C 47.292969 46.09375 47.207031 46.078125 47.105469 46.078125 C 47.046875 46.078125 46.992188 46.085938 46.945312 46.097656 C 46.894531 46.105469 46.839844 46.121094 46.792969 46.140625 C 46.75 46.15625 46.707031 46.179688 46.671875 46.207031 C 46.636719 46.226562 46.601562 46.253906 46.574219 46.28125 L 46.21875 46.28125 L 46.316406 44.746094 L 47.941406 44.746094 L 47.941406 45.046875 L 46.652344 45.046875 L 46.597656 45.957031 C 46.664062 45.910156 46.742188 45.867188 46.835938 45.828125 C 46.9375 45.792969 47.054688 45.773438 47.183594 45.773438 C 47.328125 45.773438 47.453125 45.796875 47.5625 45.839844 C 47.675781 45.882812 47.773438 45.945312 47.855469 46.023438 C 47.933594 46.101562 47.996094 46.199219 48.039062 46.3125 C 48.082031 46.421875 48.105469 46.542969 48.105469 46.671875 Z M 48.105469 46.671875 "/>
<path style=" stroke:none;fill-rule:nonzero;fill:rgb(60.392157%,0%,100%);fill-opacity:1;" d="M 50.625 24.992188 C 50.625 25.128906 50.605469 25.257812 50.5625 25.378906 C 50.523438 25.503906 50.464844 25.605469 50.386719 25.695312 C 50.304688 25.773438 50.207031 25.839844 50.09375 25.886719 C 49.976562 25.9375 49.84375 25.964844 49.695312 25.964844 C 49.523438 25.964844 49.382812 25.933594 49.257812 25.867188 C 49.136719 25.800781 49.03125 25.710938 48.945312 25.597656 C 48.863281 25.476562 48.804688 25.324219 48.761719 25.152344 C 48.722656 24.980469 48.707031 24.78125 48.707031 24.558594 C 48.707031 24.304688 48.726562 24.082031 48.773438 23.886719 C 48.816406 23.691406 48.878906 23.535156 48.96875 23.410156 C 49.058594 23.28125 49.167969 23.183594 49.292969 23.121094 C 49.421875 23.054688 49.566406 23.023438 49.726562 23.023438 C 49.828125 23.023438 49.914062 23.03125 49.996094 23.054688 C 50.082031 23.070312 50.160156 23.101562 50.226562 23.152344 C 50.296875 23.195312 50.359375 23.257812 50.410156 23.335938 C 50.464844 23.410156 50.507812 23.496094 50.539062 23.605469 L 50.191406 23.660156 C 50.152344 23.539062 50.09375 23.453125 50.007812 23.402344 C 49.925781 23.34375 49.835938 23.3125 49.726562 23.3125 C 49.621094 23.3125 49.53125 23.339844 49.445312 23.390625 C 49.363281 23.433594 49.292969 23.503906 49.238281 23.59375 C 49.1875 23.691406 49.144531 23.808594 49.109375 23.953125 C 49.078125 24.097656 49.066406 24.261719 49.066406 24.449219 C 49.128906 24.328125 49.222656 24.234375 49.347656 24.167969 C 49.46875 24.105469 49.605469 24.070312 49.757812 24.070312 C 49.886719 24.070312 50.003906 24.09375 50.105469 24.136719 C 50.214844 24.179688 50.304688 24.242188 50.375 24.320312 C 50.457031 24.402344 50.515625 24.5 50.5625 24.613281 C 50.605469 24.71875 50.625 24.847656 50.625 24.992188 Z M 50.246094 25 C 50.246094 24.902344 50.234375 24.8125 50.214844 24.730469 C 50.191406 24.652344 50.152344 24.585938 50.105469 24.535156 C 50.054688 24.480469 49.992188 24.4375 49.921875 24.40625 C 49.847656 24.371094 49.765625 24.351562 49.671875 24.351562 C 49.605469 24.351562 49.535156 24.363281 49.464844 24.386719 C 49.402344 24.40625 49.339844 24.4375 49.28125 24.480469 C 49.230469 24.527344 49.1875 24.585938 49.152344 24.65625 C 49.113281 24.726562 49.097656 24.816406 49.097656 24.914062 C 49.097656 25.023438 49.109375 25.125 49.140625 25.21875 C 49.167969 25.304688 49.207031 25.386719 49.257812 25.457031 C 49.308594 25.519531 49.371094 25.574219 49.445312 25.617188 C 49.515625 25.65625 49.597656 25.671875 49.683594 25.671875 C 49.769531 25.671875 49.847656 25.660156 49.921875 25.628906 C 49.992188 25.59375 50.050781 25.546875 50.09375 25.488281 C 50.144531 25.429688 50.179688 25.363281 50.203125 25.28125 C 50.230469 25.195312 50.246094 25.105469 50.246094 25 Z M 50.246094 25 "/>
<path style=" stroke:none;fill-rule:nonzero;fill:rgb(60.392157%,0%,100%);fill-opacity:1;" d="M 65.589844 52.226562 C 65.445312 52.449219 65.3125 52.664062 65.1875 52.863281 C 65.074219 53.066406 64.972656 53.269531 64.886719 53.46875 C 64.796875 53.671875 64.726562 53.882812 64.679688 54.097656 C 64.636719 54.3125 64.613281 54.546875 64.613281 54.789062 L 64.222656 54.789062 C 64.222656 54.558594 64.25 54.335938 64.300781 54.117188 C 64.355469 53.898438 64.433594 53.679688 64.527344 53.46875 C 64.621094 53.261719 64.726562 53.054688 64.851562 52.851562 C 64.976562 52.644531 65.105469 52.441406 65.242188 52.238281 L 63.703125 52.238281 L 63.703125 51.933594 L 65.589844 51.933594 Z M 65.589844 52.226562 "/>
<path style=" stroke:none;fill-rule:nonzero;fill:rgb(0%,0%,0%);fill-opacity:1;" d="M 64.042969 69.214844 C 64.042969 69.511719 64 69.78125 63.910156 70.027344 C 63.824219 70.273438 63.699219 70.480469 63.53125 70.652344 C 63.371094 70.828125 63.175781 70.960938 62.9375 71.054688 C 62.703125 71.144531 62.441406 71.195312 62.144531 71.195312 C 61.824219 71.195312 61.546875 71.144531 61.308594 71.054688 C 61.078125 70.953125 60.882812 70.816406 60.722656 70.640625 C 60.5625 70.464844 60.445312 70.253906 60.367188 70.015625 C 60.285156 69.773438 60.246094 69.503906 60.246094 69.214844 C 60.246094 68.917969 60.285156 68.652344 60.367188 68.414062 C 60.453125 68.171875 60.574219 67.964844 60.734375 67.796875 C 60.898438 67.632812 61.097656 67.503906 61.332031 67.40625 C 61.570312 67.316406 61.839844 67.265625 62.144531 67.265625 C 62.449219 67.265625 62.71875 67.316406 62.957031 67.40625 C 63.195312 67.503906 63.394531 67.636719 63.554688 67.808594 C 63.710938 67.976562 63.832031 68.175781 63.910156 68.414062 C 64 68.652344 64.042969 68.917969 64.042969 69.214844 Z M 63.511719 69.214844 C 63.511719 68.984375 63.480469 68.777344 63.425781 68.585938 C 63.363281 68.402344 63.277344 68.242188 63.164062 68.109375 C 63.046875 67.976562 62.902344 67.871094 62.730469 67.796875 C 62.5625 67.726562 62.367188 67.6875 62.144531 67.6875 C 61.917969 67.6875 61.722656 67.726562 61.546875 67.796875 C 61.375 67.871094 61.226562 67.976562 61.113281 68.109375 C 61.007812 68.242188 60.921875 68.402344 60.863281 68.585938 C 60.804688 68.777344 60.777344 68.984375 60.777344 69.214844 C 60.777344 69.445312 60.804688 69.65625 60.863281 69.851562 C 60.921875 70.042969 61.007812 70.203125 61.125 70.339844 C 61.238281 70.476562 61.378906 70.585938 61.546875 70.664062 C 61.722656 70.738281 61.917969 70.773438 62.144531 70.773438 C 62.382812 70.773438 62.589844 70.738281 62.761719 70.664062 C 62.9375 70.585938 63.078125 70.476562 63.183594 70.339844 C 63.292969 70.195312 63.371094 70.03125 63.425781 69.84375 C 63.480469 69.648438 63.511719 69.4375 63.511719 69.214844 Z M 63.511719 69.214844 "/>
<path style=" stroke:none;fill-rule:nonzero;fill:rgb(60.392157%,0%,100%);fill-opacity:1;" d="M 59.667969 70.9375 C 59.667969 71.0625 59.648438 71.171875 59.605469 71.273438 C 59.566406 71.375 59.507812 71.464844 59.429688 71.542969 C 59.351562 71.617188 59.25 71.671875 59.128906 71.714844 C 59.003906 71.757812 58.859375 71.78125 58.695312 71.78125 C 58.527344 71.78125 58.382812 71.757812 58.261719 71.714844 C 58.136719 71.671875 58.03125 71.617188 57.945312 71.542969 C 57.863281 71.472656 57.808594 71.386719 57.773438 71.285156 C 57.734375 71.175781 57.71875 71.0625 57.71875 70.949219 C 57.71875 70.839844 57.730469 70.746094 57.761719 70.667969 C 57.796875 70.589844 57.839844 70.519531 57.890625 70.460938 C 57.941406 70.394531 58 70.347656 58.066406 70.308594 C 58.136719 70.273438 58.207031 70.253906 58.28125 70.246094 L 58.28125 70.234375 C 58.199219 70.210938 58.128906 70.183594 58.066406 70.148438 C 58.003906 70.105469 57.957031 70.054688 57.914062 69.996094 C 57.871094 69.929688 57.835938 69.867188 57.816406 69.800781 C 57.792969 69.730469 57.78125 69.65625 57.78125 69.574219 C 57.78125 69.472656 57.800781 69.378906 57.835938 69.292969 C 57.878906 69.199219 57.9375 69.121094 58.011719 69.054688 C 58.089844 68.988281 58.183594 68.941406 58.292969 68.902344 C 58.40625 68.859375 58.535156 68.839844 58.683594 68.839844 C 58.839844 68.839844 58.976562 68.859375 59.082031 68.902344 C 59.199219 68.941406 59.292969 68.988281 59.367188 69.054688 C 59.445312 69.121094 59.5 69.199219 59.539062 69.292969 C 59.574219 69.378906 59.59375 69.472656 59.59375 69.574219 C 59.59375 69.65625 59.582031 69.730469 59.5625 69.800781 C 59.539062 69.875 59.507812 69.9375 59.464844 69.996094 C 59.421875 70.054688 59.367188 70.105469 59.300781 70.148438 C 59.242188 70.183594 59.171875 70.210938 59.082031 70.234375 C 59.171875 70.25 59.246094 70.273438 59.3125 70.308594 C 59.382812 70.347656 59.445312 70.394531 59.496094 70.460938 C 59.554688 70.519531 59.597656 70.589844 59.625 70.667969 C 59.652344 70.746094 59.667969 70.835938 59.667969 70.9375 Z M 59.214844 69.597656 C 59.214844 69.527344 59.203125 69.460938 59.179688 69.402344 C 59.164062 69.335938 59.136719 69.289062 59.09375 69.25 C 59.058594 69.207031 59.003906 69.175781 58.933594 69.152344 C 58.867188 69.125 58.78125 69.109375 58.683594 69.109375 C 58.585938 69.109375 58.503906 69.125 58.433594 69.152344 C 58.367188 69.175781 58.3125 69.207031 58.269531 69.25 C 58.234375 69.289062 58.207031 69.335938 58.183594 69.402344 C 58.164062 69.460938 58.152344 69.527344 58.152344 69.597656 C 58.152344 69.65625 58.15625 69.710938 58.171875 69.769531 C 58.195312 69.828125 58.222656 69.882812 58.261719 69.929688 C 58.296875 69.984375 58.347656 70.023438 58.421875 70.050781 C 58.492188 70.078125 58.585938 70.09375 58.695312 70.09375 C 58.800781 70.09375 58.890625 70.078125 58.964844 70.050781 C 59.035156 70.023438 59.089844 69.984375 59.128906 69.929688 C 59.164062 69.882812 59.183594 69.828125 59.191406 69.769531 C 59.207031 69.710938 59.214844 69.65625 59.214844 69.597656 Z M 59.289062 70.90625 C 59.289062 70.839844 59.277344 70.773438 59.257812 70.710938 C 59.242188 70.644531 59.207031 70.589844 59.160156 70.535156 C 59.117188 70.488281 59.054688 70.449219 58.976562 70.417969 C 58.894531 70.390625 58.796875 70.375 58.683594 70.375 C 58.574219 70.375 58.480469 70.390625 58.410156 70.417969 C 58.339844 70.449219 58.277344 70.488281 58.226562 70.535156 C 58.183594 70.589844 58.152344 70.644531 58.128906 70.710938 C 58.109375 70.773438 58.097656 70.84375 58.097656 70.914062 C 58.097656 71.003906 58.109375 71.082031 58.128906 71.152344 C 58.152344 71.226562 58.183594 71.292969 58.226562 71.347656 C 58.277344 71.398438 58.339844 71.441406 58.410156 71.46875 C 58.492188 71.488281 58.585938 71.5 58.695312 71.5 C 58.808594 71.5 58.902344 71.488281 58.976562 71.46875 C 59.054688 71.441406 59.117188 71.398438 59.160156 71.347656 C 59.203125 71.292969 59.234375 71.226562 59.257812 71.152344 C 59.277344 71.082031 59.289062 71 59.289062 70.90625 Z M 59.289062 70.90625 "/>
<path style=" stroke:none;fill-rule:nonzero;fill:rgb(60.392157%,0%,100%);fill-opacity:1;" d="M 75.578125 41.746094 C 75.578125 42 75.550781 42.222656 75.503906 42.417969 C 75.460938 42.605469 75.390625 42.761719 75.296875 42.894531 C 75.210938 43.019531 75.101562 43.109375 74.972656 43.175781 C 74.847656 43.238281 74.707031 43.273438 74.550781 43.273438 C 74.441406 43.273438 74.339844 43.261719 74.246094 43.238281 C 74.160156 43.21875 74.078125 43.183594 74.007812 43.132812 C 73.941406 43.082031 73.882812 43.019531 73.832031 42.949219 C 73.789062 42.867188 73.75 42.78125 73.714844 42.675781 L 74.074219 42.621094 C 74.109375 42.746094 74.164062 42.835938 74.246094 42.894531 C 74.324219 42.953125 74.425781 42.980469 74.550781 42.980469 C 74.648438 42.980469 74.738281 42.957031 74.820312 42.914062 C 74.90625 42.867188 74.976562 42.792969 75.039062 42.699219 C 75.09375 42.605469 75.136719 42.492188 75.167969 42.351562 C 75.203125 42.210938 75.222656 42.039062 75.222656 41.84375 C 75.191406 41.910156 75.152344 41.96875 75.101562 42.015625 C 75.050781 42.070312 74.996094 42.113281 74.929688 42.148438 C 74.871094 42.183594 74.804688 42.210938 74.734375 42.234375 C 74.660156 42.25 74.585938 42.253906 74.507812 42.253906 C 74.375 42.253906 74.257812 42.234375 74.148438 42.191406 C 74.046875 42.140625 73.957031 42.078125 73.886719 41.996094 C 73.816406 41.910156 73.757812 41.808594 73.714844 41.691406 C 73.675781 41.570312 73.660156 41.4375 73.660156 41.292969 C 73.660156 41.140625 73.683594 41.007812 73.726562 40.890625 C 73.769531 40.769531 73.828125 40.671875 73.910156 40.589844 C 73.988281 40.503906 74.085938 40.4375 74.203125 40.394531 C 74.324219 40.351562 74.460938 40.328125 74.613281 40.328125 C 74.933594 40.328125 75.171875 40.449219 75.332031 40.6875 C 75.496094 40.917969 75.578125 41.269531 75.578125 41.746094 Z M 75.1875 41.390625 C 75.1875 41.28125 75.171875 41.179688 75.144531 41.085938 C 75.125 40.996094 75.085938 40.914062 75.039062 40.847656 C 74.984375 40.777344 74.921875 40.722656 74.851562 40.6875 C 74.78125 40.644531 74.695312 40.621094 74.605469 40.621094 C 74.515625 40.621094 74.4375 40.640625 74.367188 40.675781 C 74.292969 40.707031 74.230469 40.75 74.179688 40.804688 C 74.136719 40.863281 74.097656 40.933594 74.074219 41.023438 C 74.042969 41.101562 74.027344 41.191406 74.027344 41.292969 C 74.027344 41.386719 74.039062 41.476562 74.0625 41.5625 C 74.089844 41.644531 74.125 41.714844 74.171875 41.777344 C 74.21875 41.839844 74.28125 41.882812 74.355469 41.917969 C 74.425781 41.949219 74.507812 41.964844 74.59375 41.964844 C 74.664062 41.964844 74.734375 41.953125 74.800781 41.929688 C 74.871094 41.910156 74.933594 41.875 74.996094 41.832031 C 75.050781 41.785156 75.097656 41.722656 75.136719 41.648438 C 75.171875 41.578125 75.1875 41.492188 75.1875 41.390625 Z M 75.1875 41.390625 "/>
<path style=" stroke:none;fill-rule:nonzero;fill:rgb(0%,0%,0%);fill-opacity:1;" d="M 79.066406 25.945312 C 79.066406 26.242188 79.023438 26.511719 78.9375 26.757812 C 78.847656 27.003906 78.722656 27.210938 78.554688 27.382812 C 78.394531 27.558594 78.199219 27.691406 77.960938 27.785156 C 77.726562 27.875 77.464844 27.925781 77.167969 27.925781 C 76.847656 27.925781 76.570312 27.875 76.332031 27.785156 C 76.101562 27.683594 75.90625 27.546875 75.746094 27.375 C 75.585938 27.195312 75.46875 26.984375 75.390625 26.746094 C 75.308594 26.503906 75.269531 26.234375 75.269531 25.945312 C 75.269531 25.652344 75.308594 25.382812 75.390625 25.144531 C 75.476562 24.902344 75.597656 24.695312 75.757812 24.527344 C 75.925781 24.363281 76.121094 24.234375 76.355469 24.140625 C 76.59375 24.046875 76.863281 24 77.167969 24 C 77.472656 24 77.742188 24.046875 77.980469 24.140625 C 78.21875 24.234375 78.417969 24.367188 78.578125 24.539062 C 78.734375 24.707031 78.855469 24.90625 78.9375 25.144531 C 79.023438 25.382812 79.066406 25.652344 79.066406 25.945312 Z M 78.535156 25.945312 C 78.535156 25.714844 78.503906 25.507812 78.449219 25.316406 C 78.386719 25.132812 78.300781 24.972656 78.1875 24.84375 C 78.070312 24.707031 77.925781 24.601562 77.753906 24.527344 C 77.585938 24.457031 77.390625 24.421875 77.167969 24.421875 C 76.941406 24.421875 76.746094 24.457031 76.570312 24.527344 C 76.398438 24.601562 76.253906 24.707031 76.136719 24.84375 C 76.03125 24.972656 75.945312 25.132812 75.890625 25.316406 C 75.828125 25.507812 75.800781 25.714844 75.800781 25.945312 C 75.800781 26.179688 75.828125 26.390625 75.890625 26.582031 C 75.945312 26.773438 76.03125 26.933594 76.148438 27.070312 C 76.261719 27.207031 76.402344 27.316406 76.570312 27.394531 C 76.746094 27.46875 76.941406 27.503906 77.167969 27.503906 C 77.40625 27.503906 77.613281 27.46875 77.785156 27.394531 C 77.960938 27.316406 78.101562 27.207031 78.210938 27.070312 C 78.316406 26.925781 78.394531 26.761719 78.449219 26.574219 C 78.503906 26.378906 78.535156 26.167969 78.535156 25.945312 Z M 78.535156 25.945312 "/>
<path style=" stroke:none;fill-rule:nonzero;fill:rgb(60.392157%,0%,100%);fill-opacity:1;" d="M 70.601562 28.464844 L 70.601562 28.152344 L 71.335938 28.152344 L 71.335938 25.957031 L 70.6875 26.421875 L 70.6875 26.074219 L 71.359375 25.609375 L 71.707031 25.609375 L 71.707031 28.152344 L 72.398438 28.152344 L 72.398438 28.464844 Z M 70.601562 28.464844 "/>
<path style=" stroke:none;fill-rule:nonzero;fill:rgb(60.392157%,0%,100%);fill-opacity:1;" d="M 74.691406 27.039062 C 74.691406 27.3125 74.664062 27.542969 74.605469 27.730469 C 74.554688 27.917969 74.480469 28.070312 74.390625 28.183594 C 74.300781 28.300781 74.195312 28.382812 74.074219 28.433594 C 73.949219 28.480469 73.820312 28.507812 73.683594 28.507812 C 73.546875 28.507812 73.414062 28.480469 73.292969 28.433594 C 73.175781 28.382812 73.070312 28.300781 72.980469 28.183594 C 72.894531 28.070312 72.820312 27.917969 72.773438 27.730469 C 72.722656 27.542969 72.699219 27.3125 72.699219 27.039062 C 72.699219 26.75 72.722656 26.511719 72.773438 26.324219 C 72.820312 26.136719 72.894531 25.984375 72.980469 25.871094 C 73.070312 25.757812 73.179688 25.675781 73.304688 25.632812 C 73.425781 25.589844 73.558594 25.566406 73.695312 25.566406 C 73.832031 25.566406 73.960938 25.589844 74.085938 25.632812 C 74.207031 25.675781 74.3125 25.757812 74.398438 25.871094 C 74.488281 25.984375 74.554688 26.136719 74.605469 26.324219 C 74.664062 26.511719 74.691406 26.75 74.691406 27.039062 Z M 74.3125 27.039062 C 74.3125 26.808594 74.296875 26.617188 74.269531 26.464844 C 74.25 26.3125 74.207031 26.195312 74.152344 26.109375 C 74.097656 26.019531 74.035156 25.960938 73.957031 25.921875 C 73.882812 25.878906 73.796875 25.859375 73.695312 25.859375 C 73.59375 25.859375 73.503906 25.878906 73.425781 25.921875 C 73.34375 25.960938 73.277344 26.027344 73.230469 26.117188 C 73.175781 26.203125 73.136719 26.324219 73.109375 26.476562 C 73.078125 26.621094 73.066406 26.808594 73.066406 27.039062 C 73.066406 27.253906 73.078125 27.4375 73.109375 27.589844 C 73.136719 27.742188 73.175781 27.867188 73.230469 27.957031 C 73.285156 28.042969 73.351562 28.109375 73.425781 28.152344 C 73.503906 28.191406 73.59375 28.207031 73.695312 28.207031 C 73.789062 28.207031 73.871094 28.191406 73.945312 28.152344 C 74.023438 28.109375 74.089844 28.042969 74.140625 27.957031 C 74.195312 27.867188 74.238281 27.742188 74.269531 27.589844 C 74.296875 27.4375 74.3125 27.253906 74.3125 27.039062 Z M 74.3125 27.039062 "/>
<path style="fill:none;stroke-width:0.0333333;stroke-linecap:butt;stroke-linejoin:miter;stroke:rgb(0%,0%,0%);stroke-opacity:1;stroke-miterlimit:10;" d="M 0.874296 -0.00490387 L -0.00828233 0.50494 " transform="matrix(17.349727,0,0,17.307692,17.069477,17.307531)"/>
<path style="fill:none;stroke-width:0.0333333;stroke-linecap:butt;stroke-linejoin:miter;stroke:rgb(0%,0%,0%);stroke-opacity:1;stroke-miterlimit:10;" d="M 0.857635 -0.00490387 L 1.740439 0.50494 " transform="matrix(17.349727,0,0,17.307692,17.069477,17.307531)"/>
<path style="fill:none;stroke-width:0.0333333;stroke-linecap:butt;stroke-linejoin:miter;stroke:rgb(0%,0%,0%);stroke-opacity:1;stroke-miterlimit:10;" d="M 0.857635 0.187613 L 1.573605 0.601086 " transform="matrix(17.349727,0,0,17.307692,17.069477,17.307531)"/>
<path style="fill:none;stroke-width:0.0333333;stroke-linecap:butt;stroke-linejoin:miter;stroke:rgb(0%,0%,0%);stroke-opacity:1;stroke-miterlimit:10;" d="M 0.0000481372 0.49027 L 0.0000481372 1.509732 " transform="matrix(17.349727,0,0,17.307692,17.069477,17.307531)"/>
<path style="fill:none;stroke-width:0.0333333;stroke-linecap:butt;stroke-linejoin:miter;stroke:rgb(0%,0%,0%);stroke-opacity:1;stroke-miterlimit:10;" d="M 0.166657 0.586641 L 0.166657 1.41336 " transform="matrix(17.349727,0,0,17.307692,17.069477,17.307531)"/>
<path style="fill:none;stroke-width:0.0333333;stroke-linecap:butt;stroke-linejoin:miter;stroke:rgb(0%,0%,0%);stroke-opacity:1;stroke-miterlimit:10;" d="M -0.00828233 1.495061 L 0.874296 2.004905 " transform="matrix(17.349727,0,0,17.307692,17.069477,17.307531)"/>
<path style="fill:none;stroke-width:0.0333333;stroke-linecap:butt;stroke-linejoin:miter;stroke:rgb(0%,0%,0%);stroke-opacity:1;stroke-miterlimit:10;" d="M 0.857635 2.004905 L 1.731884 1.500027 " transform="matrix(17.349727,0,0,17.307692,17.069477,17.307531)"/>
<path style="fill:none;stroke-width:0.0333333;stroke-linecap:butt;stroke-linejoin:miter;stroke:rgb(0%,0%,0%);stroke-opacity:1;stroke-miterlimit:10;" d="M 0.857635 1.812388 L 1.565275 1.403655 " transform="matrix(17.349727,0,0,17.307692,17.069477,17.307531)"/>
<path style="fill:none;stroke-width:0.0333333;stroke-linecap:butt;stroke-linejoin:miter;stroke:rgb(0%,0%,0%);stroke-opacity:1;stroke-miterlimit:10;" d="M 1.723553 1.495061 L 2.598027 1.99994 " transform="matrix(17.349727,0,0,17.307692,17.069477,17.307531)"/>
<path style="fill:none;stroke-width:0.0333333;stroke-linecap:butt;stroke-linejoin:miter;stroke:rgb(0%,0%,0%);stroke-opacity:1;stroke-miterlimit:10;" d="M 1.731884 1.509732 L 1.731884 0.49027 " transform="matrix(17.349727,0,0,17.307692,17.069477,17.307531)"/>
<path style="fill:none;stroke-width:0.0333333;stroke-linecap:butt;stroke-linejoin:miter;stroke:rgb(0%,0%,0%);stroke-opacity:1;stroke-miterlimit:10;" d="M 2.598027 1.99994 L 3.4725 1.495061 " transform="matrix(17.349727,0,0,17.307692,17.069477,17.307531)"/>
<path style="fill:none;stroke-width:0.0333333;stroke-linecap:butt;stroke-linejoin:miter;stroke:rgb(0%,0%,0%);stroke-opacity:1;stroke-miterlimit:10;" d="M 2.598027 1.99994 L 2.598027 2.84336 " transform="matrix(17.349727,0,0,17.307692,17.069477,17.307531)"/>
<path style="fill:none;stroke-width:0.0333333;stroke-linecap:butt;stroke-linejoin:miter;stroke:rgb(0%,0%,0%);stroke-opacity:1;stroke-miterlimit:10;" d="M 3.463945 1.509732 L 3.463945 0.690686 " transform="matrix(17.349727,0,0,17.307692,17.069477,17.307531)"/>
<path style=" stroke:none;fill-rule:nonzero;fill:rgb(0%,0%,0%);fill-opacity:1;" d="M 91.046875 43.808594 L 112.734375 43.808594 L 112.734375 45.433594 L 117.074219 43.269531 L 112.734375 41.105469 L 112.734375 42.726562 L 91.046875 42.726562 "/>
<path style=" stroke:none;fill-rule:nonzero;fill:rgb(60.392157%,0%,100%);fill-opacity:1;" d="M 146.964844 14.996094 C 146.964844 15.125 146.945312 15.246094 146.902344 15.351562 C 146.855469 15.457031 146.792969 15.542969 146.707031 15.613281 C 146.625 15.675781 146.523438 15.730469 146.402344 15.773438 C 146.285156 15.808594 146.148438 15.828125 145.988281 15.828125 C 145.816406 15.828125 145.667969 15.808594 145.546875 15.761719 C 145.421875 15.71875 145.320312 15.664062 145.242188 15.589844 C 145.160156 15.511719 145.101562 15.429688 145.058594 15.339844 C 145.019531 15.25 144.996094 15.152344 144.992188 15.050781 L 145.371094 15.015625 C 145.378906 15.089844 145.394531 15.15625 145.425781 15.222656 C 145.453125 15.289062 145.492188 15.339844 145.546875 15.386719 C 145.59375 15.429688 145.65625 15.464844 145.730469 15.492188 C 145.800781 15.515625 145.886719 15.527344 145.988281 15.527344 C 146.175781 15.527344 146.320312 15.480469 146.421875 15.394531 C 146.53125 15.304688 146.585938 15.164062 146.585938 14.984375 C 146.585938 14.875 146.558594 14.789062 146.511719 14.726562 C 146.46875 14.660156 146.40625 14.613281 146.335938 14.585938 C 146.261719 14.550781 146.1875 14.523438 146.109375 14.507812 C 146.027344 14.496094 145.953125 14.488281 145.882812 14.488281 L 145.675781 14.488281 L 145.675781 14.171875 L 145.871094 14.171875 C 145.941406 14.171875 146.015625 14.167969 146.085938 14.152344 C 146.167969 14.136719 146.234375 14.113281 146.292969 14.074219 C 146.359375 14.039062 146.40625 13.988281 146.445312 13.925781 C 146.488281 13.859375 146.511719 13.777344 146.511719 13.675781 C 146.511719 13.523438 146.460938 13.40625 146.371094 13.320312 C 146.28125 13.230469 146.148438 13.1875 145.96875 13.1875 C 145.808594 13.1875 145.679688 13.230469 145.578125 13.308594 C 145.476562 13.390625 145.417969 13.503906 145.402344 13.652344 L 145.035156 13.632812 C 145.050781 13.503906 145.082031 13.390625 145.132812 13.296875 C 145.191406 13.207031 145.257812 13.128906 145.339844 13.070312 C 145.425781 13.003906 145.523438 12.960938 145.632812 12.929688 C 145.742188 12.902344 145.855469 12.886719 145.980469 12.886719 C 146.136719 12.886719 146.273438 12.90625 146.390625 12.949219 C 146.503906 12.988281 146.601562 13.042969 146.671875 13.113281 C 146.742188 13.179688 146.796875 13.257812 146.824219 13.351562 C 146.859375 13.4375 146.878906 13.535156 146.878906 13.644531 C 146.878906 13.722656 146.867188 13.804688 146.847656 13.882812 C 146.824219 13.953125 146.785156 14.019531 146.738281 14.074219 C 146.695312 14.136719 146.632812 14.183594 146.554688 14.226562 C 146.480469 14.265625 146.390625 14.292969 146.28125 14.3125 L 146.28125 14.324219 C 146.394531 14.339844 146.5 14.367188 146.585938 14.410156 C 146.671875 14.449219 146.742188 14.496094 146.792969 14.550781 C 146.847656 14.613281 146.890625 14.679688 146.921875 14.757812 C 146.949219 14.832031 146.964844 14.910156 146.964844 14.996094 Z M 146.964844 14.996094 "/>
<path style=" stroke:none;fill-rule:nonzero;fill:rgb(60.392157%,0%,100%);fill-opacity:1;" d="M 127.480469 25.957031 L 127.480469 25.695312 C 127.550781 25.539062 127.632812 25.402344 127.730469 25.285156 C 127.828125 25.164062 127.933594 25.054688 128.042969 24.949219 C 128.15625 24.851562 128.269531 24.761719 128.378906 24.679688 C 128.488281 24.59375 128.585938 24.511719 128.671875 24.429688 C 128.757812 24.34375 128.828125 24.253906 128.878906 24.160156 C 128.925781 24.070312 128.953125 23.964844 128.953125 23.847656 C 128.953125 23.769531 128.945312 23.699219 128.921875 23.640625 C 128.898438 23.578125 128.863281 23.523438 128.8125 23.480469 C 128.769531 23.4375 128.714844 23.410156 128.652344 23.390625 C 128.585938 23.371094 128.511719 23.359375 128.433594 23.359375 C 128.359375 23.359375 128.292969 23.371094 128.226562 23.390625 C 128.164062 23.410156 128.101562 23.4375 128.054688 23.480469 C 128.003906 23.515625 127.960938 23.566406 127.933594 23.628906 C 127.90625 23.691406 127.882812 23.757812 127.871094 23.835938 L 127.5 23.804688 C 127.515625 23.703125 127.542969 23.609375 127.589844 23.523438 C 127.632812 23.429688 127.691406 23.347656 127.773438 23.285156 C 127.851562 23.214844 127.945312 23.160156 128.054688 23.121094 C 128.164062 23.078125 128.289062 23.058594 128.433594 23.058594 C 128.578125 23.058594 128.707031 23.074219 128.8125 23.109375 C 128.925781 23.140625 129.023438 23.191406 129.09375 23.261719 C 129.175781 23.328125 129.230469 23.410156 129.269531 23.511719 C 129.3125 23.605469 129.335938 23.714844 129.335938 23.835938 C 129.335938 23.9375 129.316406 24.03125 129.28125 24.117188 C 129.25 24.203125 129.207031 24.289062 129.148438 24.367188 C 129.089844 24.4375 129.023438 24.515625 128.945312 24.59375 C 128.871094 24.667969 128.792969 24.738281 128.707031 24.808594 C 128.625 24.875 128.542969 24.945312 128.457031 25.015625 C 128.375 25.078125 128.296875 25.148438 128.21875 25.21875 C 128.144531 25.285156 128.078125 25.355469 128.023438 25.425781 C 127.960938 25.5 127.917969 25.570312 127.882812 25.640625 L 129.378906 25.640625 L 129.378906 25.957031 Z M 127.480469 25.957031 "/>
<path style=" stroke:none;fill-rule:nonzero;fill:rgb(60.392157%,0%,100%);fill-opacity:1;" d="M 127.570312 46.125 L 127.570312 45.8125 L 128.308594 45.8125 L 128.308594 43.617188 L 127.660156 44.082031 L 127.660156 43.734375 L 128.332031 43.269531 L 128.679688 43.269531 L 128.679688 45.8125 L 129.371094 45.8125 L 129.371094 46.125 Z M 127.570312 46.125 "/>
<path style=" stroke:none;fill-rule:nonzero;fill:rgb(60.392157%,0%,100%);fill-opacity:1;" d="M 146.9375 55.355469 C 146.9375 55.492188 146.917969 55.621094 146.875 55.746094 C 146.835938 55.867188 146.777344 55.972656 146.699219 56.058594 C 146.617188 56.140625 146.519531 56.203125 146.40625 56.253906 C 146.289062 56.300781 146.15625 56.328125 146.007812 56.328125 C 145.839844 56.328125 145.695312 56.296875 145.574219 56.230469 C 145.449219 56.167969 145.34375 56.078125 145.257812 55.960938 C 145.175781 55.839844 145.117188 55.691406 145.074219 55.515625 C 145.035156 55.34375 145.019531 55.148438 145.019531 54.921875 C 145.019531 54.671875 145.039062 54.445312 145.085938 54.25 C 145.128906 54.058594 145.191406 53.898438 145.28125 53.777344 C 145.371094 53.644531 145.480469 53.546875 145.605469 53.484375 C 145.734375 53.417969 145.878906 53.386719 146.039062 53.386719 C 146.140625 53.386719 146.226562 53.398438 146.308594 53.417969 C 146.394531 53.433594 146.472656 53.46875 146.539062 53.515625 C 146.609375 53.558594 146.671875 53.621094 146.722656 53.699219 C 146.777344 53.773438 146.820312 53.863281 146.851562 53.96875 L 146.503906 54.023438 C 146.46875 53.902344 146.40625 53.816406 146.320312 53.765625 C 146.238281 53.707031 146.148438 53.679688 146.039062 53.679688 C 145.9375 53.679688 145.84375 53.707031 145.757812 53.753906 C 145.675781 53.796875 145.609375 53.867188 145.550781 53.960938 C 145.5 54.054688 145.457031 54.171875 145.421875 54.316406 C 145.390625 54.460938 145.378906 54.628906 145.378906 54.8125 C 145.441406 54.691406 145.535156 54.597656 145.660156 54.53125 C 145.78125 54.46875 145.917969 54.433594 146.070312 54.433594 C 146.203125 54.433594 146.316406 54.457031 146.417969 54.5 C 146.527344 54.542969 146.617188 54.605469 146.6875 54.683594 C 146.769531 54.765625 146.832031 54.863281 146.875 54.976562 C 146.917969 55.085938 146.9375 55.210938 146.9375 55.355469 Z M 146.558594 55.367188 C 146.558594 55.265625 146.546875 55.175781 146.527344 55.09375 C 146.503906 55.015625 146.46875 54.953125 146.417969 54.902344 C 146.367188 54.84375 146.304688 54.800781 146.234375 54.769531 C 146.160156 54.734375 146.078125 54.714844 145.984375 54.714844 C 145.917969 54.714844 145.847656 54.726562 145.777344 54.75 C 145.714844 54.769531 145.652344 54.804688 145.59375 54.847656 C 145.542969 54.890625 145.5 54.949219 145.464844 55.019531 C 145.425781 55.09375 145.410156 55.179688 145.410156 55.277344 C 145.410156 55.386719 145.421875 55.488281 145.453125 55.582031 C 145.480469 55.667969 145.519531 55.75 145.574219 55.820312 C 145.621094 55.886719 145.683594 55.9375 145.757812 55.980469 C 145.828125 56.019531 145.910156 56.035156 145.996094 56.035156 C 146.082031 56.035156 146.160156 56.023438 146.234375 55.992188 C 146.304688 55.957031 146.363281 55.910156 146.40625 55.851562 C 146.457031 55.796875 146.492188 55.726562 146.515625 55.648438 C 146.542969 55.558594 146.558594 55.46875 146.558594 55.367188 Z M 146.558594 55.367188 "/>
<path style=" stroke:none;fill-rule:nonzero;fill:rgb(60.392157%,0%,100%);fill-opacity:1;" d="M 164.53125 42.28125 C 164.53125 42.425781 164.507812 42.558594 164.464844 42.679688 C 164.421875 42.796875 164.355469 42.894531 164.269531 42.984375 C 164.1875 43.070312 164.085938 43.140625 163.953125 43.1875 C 163.832031 43.230469 163.6875 43.253906 163.519531 43.253906 C 163.371094 43.253906 163.234375 43.234375 163.121094 43.199219 C 163.011719 43.164062 162.917969 43.117188 162.839844 43.058594 C 162.765625 42.992188 162.703125 42.921875 162.652344 42.84375 C 162.609375 42.753906 162.578125 42.667969 162.554688 42.570312 L 162.9375 42.527344 C 162.949219 42.578125 162.96875 42.632812 162.988281 42.691406 C 163.015625 42.742188 163.054688 42.789062 163.097656 42.832031 C 163.148438 42.867188 163.207031 42.894531 163.273438 42.917969 C 163.34375 42.9375 163.425781 42.949219 163.519531 42.949219 C 163.621094 42.949219 163.707031 42.9375 163.78125 42.90625 C 163.859375 42.878906 163.925781 42.835938 163.976562 42.777344 C 164.035156 42.71875 164.078125 42.652344 164.105469 42.570312 C 164.132812 42.484375 164.148438 42.394531 164.148438 42.289062 C 164.148438 42.199219 164.132812 42.113281 164.105469 42.042969 C 164.085938 41.972656 164.042969 41.910156 163.988281 41.859375 C 163.9375 41.800781 163.871094 41.757812 163.792969 41.726562 C 163.71875 41.699219 163.632812 41.683594 163.53125 41.683594 C 163.472656 41.683594 163.417969 41.691406 163.371094 41.707031 C 163.316406 41.714844 163.265625 41.726562 163.21875 41.75 C 163.175781 41.765625 163.132812 41.789062 163.097656 41.8125 C 163.058594 41.835938 163.027344 41.863281 163 41.890625 L 162.644531 41.890625 L 162.742188 40.355469 L 164.367188 40.355469 L 164.367188 40.65625 L 163.078125 40.65625 L 163.023438 41.566406 C 163.085938 41.515625 163.167969 41.472656 163.261719 41.4375 C 163.359375 41.402344 163.476562 41.382812 163.609375 41.382812 C 163.75 41.382812 163.878906 41.402344 163.988281 41.445312 C 164.101562 41.488281 164.199219 41.550781 164.28125 41.628906 C 164.359375 41.710938 164.421875 41.808594 164.464844 41.921875 C 164.507812 42.03125 164.53125 42.148438 164.53125 42.28125 Z M 164.53125 42.28125 "/>
<path style=" stroke:none;fill-rule:nonzero;fill:rgb(60.392157%,0%,100%);fill-opacity:1;" d="M 164.203125 25.269531 L 164.203125 25.917969 L 163.855469 25.917969 L 163.855469 25.269531 L 162.511719 25.269531 L 162.511719 24.988281 L 163.820312 23.0625 L 164.203125 23.0625 L 164.203125 24.988281 L 164.601562 24.988281 L 164.601562 25.269531 Z M 163.855469 23.472656 C 163.855469 23.480469 163.847656 23.496094 163.832031 23.515625 C 163.824219 23.53125 163.8125 23.554688 163.800781 23.582031 C 163.785156 23.601562 163.769531 23.628906 163.757812 23.65625 C 163.742188 23.679688 163.730469 23.699219 163.722656 23.710938 L 162.988281 24.792969 C 162.980469 24.800781 162.96875 24.816406 162.953125 24.835938 C 162.945312 24.851562 162.9375 24.867188 162.921875 24.890625 C 162.90625 24.90625 162.890625 24.921875 162.878906 24.945312 C 162.863281 24.960938 162.851562 24.972656 162.847656 24.988281 L 163.855469 24.988281 Z M 163.855469 23.472656 "/>
<path style=" stroke:none;fill-rule:nonzero;fill:rgb(60.392157%,0%,100%);fill-opacity:1;" d="M 174.585938 52.292969 C 174.441406 52.519531 174.308594 52.730469 174.1875 52.933594 C 174.070312 53.132812 173.96875 53.335938 173.882812 53.539062 C 173.796875 53.742188 173.726562 53.949219 173.675781 54.164062 C 173.632812 54.382812 173.609375 54.613281 173.609375 54.855469 L 173.222656 54.855469 C 173.222656 54.628906 173.246094 54.402344 173.296875 54.1875 C 173.355469 53.964844 173.429688 53.75 173.523438 53.539062 C 173.617188 53.328125 173.726562 53.125 173.851562 52.921875 C 173.972656 52.710938 174.101562 52.507812 174.238281 52.304688 L 172.699219 52.304688 L 172.699219 52 L 174.585938 52 Z M 174.585938 52.292969 "/>
<path style=" stroke:none;fill-rule:nonzero;fill:rgb(0%,0%,0%);fill-opacity:1;" d="M 177.925781 69.214844 C 177.925781 69.511719 177.882812 69.78125 177.796875 70.027344 C 177.710938 70.273438 177.582031 70.480469 177.417969 70.652344 C 177.257812 70.828125 177.058594 70.960938 176.820312 71.054688 C 176.585938 71.144531 176.324219 71.195312 176.027344 71.195312 C 175.710938 71.195312 175.433594 71.144531 175.195312 71.054688 C 174.960938 70.953125 174.765625 70.816406 174.609375 70.640625 C 174.449219 70.464844 174.328125 70.253906 174.25 70.015625 C 174.167969 69.773438 174.132812 69.503906 174.132812 69.214844 C 174.132812 68.917969 174.167969 68.652344 174.25 68.414062 C 174.335938 68.171875 174.460938 67.964844 174.621094 67.796875 C 174.785156 67.632812 174.984375 67.503906 175.214844 67.40625 C 175.453125 67.316406 175.726562 67.265625 176.027344 67.265625 C 176.332031 67.265625 176.605469 67.316406 176.84375 67.40625 C 177.082031 67.503906 177.277344 67.636719 177.4375 67.808594 C 177.597656 67.976562 177.714844 68.175781 177.796875 68.414062 C 177.882812 68.652344 177.925781 68.917969 177.925781 69.214844 Z M 177.394531 69.214844 C 177.394531 68.984375 177.367188 68.777344 177.308594 68.585938 C 177.25 68.402344 177.164062 68.242188 177.046875 68.109375 C 176.933594 67.976562 176.789062 67.871094 176.613281 67.796875 C 176.445312 67.726562 176.25 67.6875 176.027344 67.6875 C 175.804688 67.6875 175.605469 67.726562 175.433594 67.796875 C 175.257812 67.871094 175.113281 67.976562 175 68.109375 C 174.890625 68.242188 174.804688 68.402344 174.75 68.585938 C 174.691406 68.777344 174.664062 68.984375 174.664062 69.214844 C 174.664062 69.445312 174.691406 69.65625 174.75 69.851562 C 174.804688 70.042969 174.894531 70.203125 175.011719 70.339844 C 175.125 70.476562 175.265625 70.585938 175.433594 70.664062 C 175.605469 70.738281 175.804688 70.773438 176.027344 70.773438 C 176.269531 70.773438 176.472656 70.738281 176.648438 70.664062 C 176.820312 70.585938 176.960938 70.476562 177.070312 70.339844 C 177.179688 70.195312 177.257812 70.03125 177.308594 69.84375 C 177.367188 69.648438 177.394531 69.4375 177.394531 69.214844 Z M 177.394531 69.214844 "/>
<path style=" stroke:none;fill-rule:nonzero;fill:rgb(60.392157%,0%,100%);fill-opacity:1;" d="M 173.550781 70.9375 C 173.550781 71.0625 173.53125 71.171875 173.488281 71.273438 C 173.449219 71.375 173.390625 71.464844 173.3125 71.542969 C 173.230469 71.617188 173.132812 71.671875 173.007812 71.714844 C 172.882812 71.757812 172.742188 71.78125 172.574219 71.78125 C 172.40625 71.78125 172.265625 71.757812 172.140625 71.714844 C 172.015625 71.671875 171.914062 71.617188 171.828125 71.542969 C 171.746094 71.472656 171.6875 71.386719 171.652344 71.285156 C 171.617188 71.175781 171.601562 71.0625 171.601562 70.949219 C 171.601562 70.839844 171.613281 70.746094 171.644531 70.667969 C 171.679688 70.589844 171.722656 70.519531 171.773438 70.460938 C 171.820312 70.394531 171.882812 70.347656 171.945312 70.308594 C 172.015625 70.273438 172.089844 70.253906 172.164062 70.246094 L 172.164062 70.234375 C 172.082031 70.210938 172.011719 70.183594 171.945312 70.148438 C 171.886719 70.105469 171.839844 70.054688 171.792969 69.996094 C 171.75 69.929688 171.71875 69.867188 171.695312 69.800781 C 171.675781 69.730469 171.664062 69.65625 171.664062 69.574219 C 171.664062 69.472656 171.679688 69.378906 171.71875 69.292969 C 171.761719 69.199219 171.820312 69.121094 171.890625 69.054688 C 171.972656 68.988281 172.066406 68.941406 172.175781 68.902344 C 172.289062 68.859375 172.417969 68.839844 172.566406 68.839844 C 172.722656 68.839844 172.859375 68.859375 172.964844 68.902344 C 173.078125 68.941406 173.175781 68.988281 173.246094 69.054688 C 173.328125 69.121094 173.382812 69.199219 173.421875 69.292969 C 173.457031 69.378906 173.476562 69.472656 173.476562 69.574219 C 173.476562 69.65625 173.464844 69.730469 173.441406 69.800781 C 173.421875 69.875 173.390625 69.9375 173.34375 69.996094 C 173.300781 70.054688 173.246094 70.105469 173.183594 70.148438 C 173.125 70.183594 173.050781 70.210938 172.964844 70.234375 C 173.050781 70.25 173.128906 70.273438 173.195312 70.308594 C 173.265625 70.347656 173.328125 70.394531 173.378906 70.460938 C 173.433594 70.519531 173.476562 70.589844 173.507812 70.667969 C 173.535156 70.746094 173.550781 70.835938 173.550781 70.9375 Z M 173.097656 69.597656 C 173.097656 69.527344 173.085938 69.460938 173.0625 69.402344 C 173.046875 69.335938 173.019531 69.289062 172.976562 69.25 C 172.9375 69.207031 172.882812 69.175781 172.8125 69.152344 C 172.75 69.125 172.664062 69.109375 172.566406 69.109375 C 172.46875 69.109375 172.386719 69.125 172.316406 69.152344 C 172.25 69.175781 172.195312 69.207031 172.152344 69.25 C 172.113281 69.289062 172.085938 69.335938 172.066406 69.402344 C 172.042969 69.460938 172.035156 69.527344 172.035156 69.597656 C 172.035156 69.65625 172.039062 69.710938 172.054688 69.769531 C 172.078125 69.828125 172.105469 69.882812 172.140625 69.929688 C 172.175781 69.984375 172.230469 70.023438 172.304688 70.050781 C 172.375 70.078125 172.46875 70.09375 172.574219 70.09375 C 172.683594 70.09375 172.773438 70.078125 172.847656 70.050781 C 172.917969 70.023438 172.972656 69.984375 173.007812 69.929688 C 173.042969 69.882812 173.066406 69.828125 173.074219 69.769531 C 173.089844 69.710938 173.097656 69.65625 173.097656 69.597656 Z M 173.171875 70.90625 C 173.171875 70.839844 173.160156 70.773438 173.140625 70.710938 C 173.125 70.644531 173.089844 70.589844 173.042969 70.535156 C 173 70.488281 172.9375 70.449219 172.859375 70.417969 C 172.777344 70.390625 172.679688 70.375 172.566406 70.375 C 172.457031 70.375 172.363281 70.390625 172.292969 70.417969 C 172.21875 70.449219 172.15625 70.488281 172.109375 70.535156 C 172.066406 70.589844 172.035156 70.644531 172.011719 70.710938 C 171.988281 70.773438 171.980469 70.84375 171.980469 70.914062 C 171.980469 71.003906 171.988281 71.082031 172.011719 71.152344 C 172.035156 71.226562 172.066406 71.292969 172.109375 71.347656 C 172.15625 71.398438 172.21875 71.441406 172.292969 71.46875 C 172.371094 71.488281 172.46875 71.5 172.574219 71.5 C 172.6875 71.5 172.785156 71.488281 172.859375 71.46875 C 172.9375 71.441406 173 71.398438 173.042969 71.347656 C 173.085938 71.292969 173.117188 71.226562 173.140625 71.152344 C 173.160156 71.082031 173.171875 71 173.171875 70.90625 Z M 173.171875 70.90625 "/>
<path style=" stroke:none;fill-rule:nonzero;fill:rgb(60.392157%,0%,100%);fill-opacity:1;" d="M 189.46875 41.746094 C 189.46875 42 189.441406 42.222656 189.390625 42.417969 C 189.347656 42.605469 189.277344 42.761719 189.183594 42.894531 C 189.097656 43.019531 188.988281 43.109375 188.859375 43.175781 C 188.734375 43.238281 188.59375 43.273438 188.4375 43.273438 C 188.328125 43.273438 188.226562 43.261719 188.132812 43.238281 C 188.046875 43.21875 187.964844 43.183594 187.894531 43.132812 C 187.828125 43.082031 187.769531 43.019531 187.722656 42.949219 C 187.679688 42.867188 187.636719 42.78125 187.601562 42.675781 L 187.960938 42.621094 C 187.996094 42.746094 188.050781 42.835938 188.132812 42.894531 C 188.210938 42.953125 188.3125 42.980469 188.4375 42.980469 C 188.539062 42.980469 188.625 42.957031 188.707031 42.914062 C 188.792969 42.867188 188.867188 42.792969 188.925781 42.699219 C 188.980469 42.605469 189.023438 42.492188 189.054688 42.351562 C 189.089844 42.210938 189.109375 42.039062 189.109375 41.84375 C 189.078125 41.910156 189.039062 41.96875 188.988281 42.015625 C 188.9375 42.070312 188.882812 42.113281 188.816406 42.148438 C 188.757812 42.183594 188.691406 42.210938 188.621094 42.234375 C 188.546875 42.25 188.472656 42.253906 188.394531 42.253906 C 188.261719 42.253906 188.144531 42.234375 188.035156 42.191406 C 187.933594 42.140625 187.847656 42.078125 187.777344 41.996094 C 187.703125 41.910156 187.644531 41.808594 187.601562 41.691406 C 187.5625 41.570312 187.546875 41.4375 187.546875 41.292969 C 187.546875 41.140625 187.570312 41.007812 187.613281 40.890625 C 187.65625 40.769531 187.714844 40.671875 187.796875 40.589844 C 187.875 40.503906 187.972656 40.4375 188.089844 40.394531 C 188.210938 40.351562 188.351562 40.328125 188.503906 40.328125 C 188.820312 40.328125 189.058594 40.449219 189.21875 40.6875 C 189.382812 40.917969 189.46875 41.269531 189.46875 41.746094 Z M 189.078125 41.390625 C 189.078125 41.28125 189.058594 41.179688 189.035156 41.085938 C 189.011719 40.996094 188.972656 40.914062 188.925781 40.847656 C 188.875 40.777344 188.8125 40.722656 188.742188 40.6875 C 188.667969 40.644531 188.582031 40.621094 188.492188 40.621094 C 188.40625 40.621094 188.324219 40.640625 188.253906 40.675781 C 188.179688 40.707031 188.117188 40.75 188.066406 40.804688 C 188.023438 40.863281 187.988281 40.933594 187.960938 41.023438 C 187.929688 41.101562 187.917969 41.191406 187.917969 41.292969 C 187.917969 41.386719 187.925781 41.476562 187.949219 41.5625 C 187.976562 41.644531 188.015625 41.714844 188.058594 41.777344 C 188.105469 41.839844 188.167969 41.882812 188.242188 41.917969 C 188.3125 41.949219 188.394531 41.964844 188.480469 41.964844 C 188.550781 41.964844 188.621094 41.953125 188.6875 41.929688 C 188.757812 41.910156 188.820312 41.875 188.882812 41.832031 C 188.9375 41.785156 188.984375 41.722656 189.023438 41.648438 C 189.058594 41.578125 189.078125 41.492188 189.078125 41.390625 Z M 189.078125 41.390625 "/>
<path style=" stroke:none;fill-rule:nonzero;fill:rgb(0%,0%,0%);fill-opacity:1;" d="M 192.953125 25.945312 C 192.953125 26.242188 192.910156 26.511719 192.824219 26.757812 C 192.738281 27.003906 192.609375 27.210938 192.445312 27.382812 C 192.285156 27.558594 192.085938 27.691406 191.847656 27.785156 C 191.613281 27.875 191.351562 27.925781 191.054688 27.925781 C 190.734375 27.925781 190.460938 27.875 190.222656 27.785156 C 189.988281 27.683594 189.792969 27.546875 189.636719 27.375 C 189.476562 27.195312 189.355469 26.984375 189.277344 26.746094 C 189.195312 26.503906 189.15625 26.234375 189.15625 25.945312 C 189.15625 25.652344 189.195312 25.382812 189.277344 25.144531 C 189.363281 24.902344 189.484375 24.695312 189.644531 24.527344 C 189.8125 24.363281 190.007812 24.234375 190.242188 24.140625 C 190.480469 24.046875 190.753906 24 191.054688 24 C 191.359375 24 191.628906 24.046875 191.867188 24.140625 C 192.109375 24.234375 192.304688 24.367188 192.464844 24.539062 C 192.621094 24.707031 192.742188 24.90625 192.824219 25.144531 C 192.910156 25.382812 192.953125 25.652344 192.953125 25.945312 Z M 192.421875 25.945312 C 192.421875 25.714844 192.390625 25.507812 192.335938 25.316406 C 192.277344 25.132812 192.1875 24.972656 192.074219 24.84375 C 191.957031 24.707031 191.816406 24.601562 191.640625 24.527344 C 191.472656 24.457031 191.277344 24.421875 191.054688 24.421875 C 190.832031 24.421875 190.632812 24.457031 190.460938 24.527344 C 190.285156 24.601562 190.140625 24.707031 190.027344 24.84375 C 189.917969 24.972656 189.832031 25.132812 189.777344 25.316406 C 189.714844 25.507812 189.6875 25.714844 189.6875 25.945312 C 189.6875 26.179688 189.714844 26.390625 189.777344 26.582031 C 189.832031 26.773438 189.917969 26.933594 190.035156 27.070312 C 190.148438 27.207031 190.292969 27.316406 190.460938 27.394531 C 190.632812 27.46875 190.832031 27.503906 191.054688 27.503906 C 191.292969 27.503906 191.5 27.46875 191.671875 27.394531 C 191.847656 27.316406 191.988281 27.207031 192.097656 27.070312 C 192.207031 26.925781 192.285156 26.761719 192.335938 26.574219 C 192.390625 26.378906 192.421875 26.167969 192.421875 25.945312 Z M 192.421875 25.945312 "/>
<path style=" stroke:none;fill-rule:nonzero;fill:rgb(60.392157%,0%,100%);fill-opacity:1;" d="M 184.484375 28.464844 L 184.484375 28.152344 L 185.222656 28.152344 L 185.222656 25.957031 L 184.570312 26.421875 L 184.570312 26.074219 L 185.242188 25.609375 L 185.589844 25.609375 L 185.589844 28.152344 L 186.285156 28.152344 L 186.285156 28.464844 Z M 184.484375 28.464844 "/>
<path style=" stroke:none;fill-rule:nonzero;fill:rgb(60.392157%,0%,100%);fill-opacity:1;" d="M 188.578125 27.039062 C 188.578125 27.3125 188.546875 27.542969 188.492188 27.730469 C 188.4375 27.917969 188.367188 28.070312 188.273438 28.183594 C 188.1875 28.300781 188.082031 28.382812 187.960938 28.433594 C 187.835938 28.480469 187.703125 28.507812 187.570312 28.507812 C 187.429688 28.507812 187.300781 28.480469 187.179688 28.433594 C 187.0625 28.382812 186.957031 28.300781 186.863281 28.183594 C 186.777344 28.070312 186.707031 27.917969 186.65625 27.730469 C 186.605469 27.542969 186.582031 27.3125 186.582031 27.039062 C 186.582031 26.75 186.605469 26.511719 186.65625 26.324219 C 186.707031 26.136719 186.777344 25.984375 186.863281 25.871094 C 186.957031 25.757812 187.066406 25.675781 187.1875 25.632812 C 187.3125 25.589844 187.441406 25.566406 187.578125 25.566406 C 187.714844 25.566406 187.84375 25.589844 187.96875 25.632812 C 188.09375 25.675781 188.199219 25.757812 188.285156 25.871094 C 188.371094 25.984375 188.4375 26.136719 188.492188 26.324219 C 188.546875 26.511719 188.578125 26.75 188.578125 27.039062 Z M 188.199219 27.039062 C 188.199219 26.808594 188.179688 26.617188 188.15625 26.464844 C 188.132812 26.3125 188.09375 26.195312 188.035156 26.109375 C 187.984375 26.019531 187.917969 25.960938 187.839844 25.921875 C 187.765625 25.878906 187.679688 25.859375 187.578125 25.859375 C 187.476562 25.859375 187.386719 25.878906 187.308594 25.921875 C 187.226562 25.960938 187.164062 26.027344 187.113281 26.117188 C 187.0625 26.203125 187.019531 26.324219 186.996094 26.476562 C 186.964844 26.621094 186.949219 26.808594 186.949219 27.039062 C 186.949219 27.253906 186.964844 27.4375 186.996094 27.589844 C 187.019531 27.742188 187.0625 27.867188 187.113281 27.957031 C 187.171875 28.042969 187.234375 28.109375 187.308594 28.152344 C 187.386719 28.191406 187.476562 28.207031 187.578125 28.207031 C 187.671875 28.207031 187.757812 28.191406 187.828125 28.152344 C 187.90625 28.109375 187.972656 28.042969 188.023438 27.957031 C 188.082031 27.867188 188.125 27.742188 188.15625 27.589844 C 188.179688 27.4375 188.199219 27.253906 188.199219 27.039062 Z M 188.199219 27.039062 "/>
<path style="fill:none;stroke-width:0.0333333;stroke-linecap:butt;stroke-linejoin:miter;stroke:rgb(0%,0%,0%);stroke-opacity:1;stroke-miterlimit:10;" d="M 0.874455 -0.00490387 L -0.00834921 0.50494 " transform="matrix(17.349727,0,0,17.307692,130.95345,17.307531)"/>
<path style="fill:none;stroke-width:0.0333333;stroke-linecap:butt;stroke-linejoin:miter;stroke:rgb(0%,0%,0%);stroke-opacity:1;stroke-miterlimit:10;" d="M 0.857794 -0.00490387 L 1.740372 0.50494 " transform="matrix(17.349727,0,0,17.307692,130.95345,17.307531)"/>
<path style="fill:none;stroke-width:0.0333333;stroke-linecap:butt;stroke-linejoin:miter;stroke:rgb(0%,0%,0%);stroke-opacity:1;stroke-miterlimit:10;" d="M 0.857794 0.187613 L 1.573763 0.601086 " transform="matrix(17.349727,0,0,17.307692,130.95345,17.307531)"/>
<path style="fill:none;stroke-width:0.0333333;stroke-linecap:butt;stroke-linejoin:miter;stroke:rgb(0%,0%,0%);stroke-opacity:1;stroke-miterlimit:10;" d="M -0.0000187506 0.49027 L -0.0000187506 1.509732 " transform="matrix(17.349727,0,0,17.307692,130.95345,17.307531)"/>
<path style="fill:none;stroke-width:0.0333333;stroke-linecap:butt;stroke-linejoin:miter;stroke:rgb(0%,0%,0%);stroke-opacity:1;stroke-miterlimit:10;" d="M 0.166591 0.586641 L 0.166591 1.41336 " transform="matrix(17.349727,0,0,17.307692,130.95345,17.307531)"/>
<path style="fill:none;stroke-width:0.0333333;stroke-linecap:butt;stroke-linejoin:miter;stroke:rgb(0%,0%,0%);stroke-opacity:1;stroke-miterlimit:10;" d="M -0.00834921 1.495061 L 0.874455 2.004905 " transform="matrix(17.349727,0,0,17.307692,130.95345,17.307531)"/>
<path style="fill:none;stroke-width:0.0333333;stroke-linecap:butt;stroke-linejoin:miter;stroke:rgb(0%,0%,0%);stroke-opacity:1;stroke-miterlimit:10;" d="M 0.857794 2.004905 L 1.732042 1.500027 " transform="matrix(17.349727,0,0,17.307692,130.95345,17.307531)"/>
<path style="fill:none;stroke-width:0.0333333;stroke-linecap:butt;stroke-linejoin:miter;stroke:rgb(0%,0%,0%);stroke-opacity:1;stroke-miterlimit:10;" d="M 0.857794 1.812388 L 1.565433 1.403655 " transform="matrix(17.349727,0,0,17.307692,130.95345,17.307531)"/>
<path style="fill:none;stroke-width:0.0333333;stroke-linecap:butt;stroke-linejoin:miter;stroke:rgb(0%,0%,0%);stroke-opacity:1;stroke-miterlimit:10;" d="M 1.723712 1.495061 L 2.60629 2.004905 " transform="matrix(17.349727,0,0,17.307692,130.95345,17.307531)"/>
<path style="fill:none;stroke-width:0.0333333;stroke-linecap:butt;stroke-linejoin:miter;stroke:rgb(0%,0%,0%);stroke-opacity:1;stroke-miterlimit:10;" d="M 1.732042 1.509732 L 1.732042 0.49027 " transform="matrix(17.349727,0,0,17.307692,130.95345,17.307531)"/>
<path style="fill:none;stroke-width:0.0333333;stroke-linecap:butt;stroke-linejoin:miter;stroke:rgb(0%,0%,0%);stroke-opacity:1;stroke-miterlimit:10;" d="M 2.589855 2.004905 L 3.472433 1.495061 " transform="matrix(17.349727,0,0,17.307692,130.95345,17.307531)"/>
<path style=" stroke:none;fill-rule:nonzero;fill:rgb(0%,0%,0%);fill-opacity:1;" d="M 176.027344 51.921875 L 174.003906 66.519531 L 178.054688 66.519531 "/>
<path style="fill:none;stroke-width:0.0333333;stroke-linecap:butt;stroke-linejoin:miter;stroke:rgb(0%,0%,0%);stroke-opacity:1;stroke-miterlimit:10;" d="M 3.464103 1.509732 L 3.464103 0.690686 " transform="matrix(17.349727,0,0,17.307692,130.95345,17.307531)"/>
<path style="fill:none;stroke-width:0.0625;stroke-linecap:butt;stroke-linejoin:miter;stroke:rgb(0%,0%,0%);stroke-opacity:1;stroke-miterlimit:10;" d="M -0.0000896783 0.0000173611 L 0.499963 0.0000173611 M 0.250049 -0.250052 L 0.250049 0.250087 " transform="matrix(17.349727,0,0,17.307692,204.93515,43.269231)"/>
<path style=" stroke:none;fill-rule:nonzero;fill:rgb(0%,0%,0%);fill-opacity:1;" d="M 289.488281 25.945312 C 289.488281 26.242188 289.445312 26.511719 289.359375 26.757812 C 289.269531 27.003906 289.144531 27.210938 288.980469 27.382812 C 288.820312 27.558594 288.621094 27.691406 288.382812 27.785156 C 288.148438 27.875 287.886719 27.925781 287.589844 27.925781 C 287.269531 27.925781 286.996094 27.875 286.753906 27.785156 C 286.523438 27.683594 286.328125 27.546875 286.171875 27.375 C 286.011719 27.195312 285.890625 26.984375 285.8125 26.746094 C 285.730469 26.503906 285.691406 26.234375 285.691406 25.945312 C 285.691406 25.652344 285.730469 25.382812 285.8125 25.144531 C 285.898438 24.902344 286.019531 24.695312 286.179688 24.527344 C 286.347656 24.363281 286.542969 24.234375 286.777344 24.140625 C 287.015625 24.046875 287.285156 24 287.589844 24 C 287.894531 24 288.164062 24.046875 288.402344 24.140625 C 288.640625 24.234375 288.839844 24.367188 289 24.539062 C 289.15625 24.707031 289.277344 24.90625 289.359375 25.144531 C 289.445312 25.382812 289.488281 25.652344 289.488281 25.945312 Z M 288.957031 25.945312 C 288.957031 25.714844 288.925781 25.507812 288.871094 25.316406 C 288.8125 25.132812 288.722656 24.972656 288.609375 24.84375 C 288.492188 24.707031 288.351562 24.601562 288.175781 24.527344 C 288.007812 24.457031 287.8125 24.421875 287.589844 24.421875 C 287.367188 24.421875 287.167969 24.457031 286.996094 24.527344 C 286.820312 24.601562 286.675781 24.707031 286.5625 24.84375 C 286.453125 24.972656 286.367188 25.132812 286.3125 25.316406 C 286.25 25.507812 286.222656 25.714844 286.222656 25.945312 C 286.222656 26.179688 286.25 26.390625 286.3125 26.582031 C 286.367188 26.773438 286.453125 26.933594 286.570312 27.070312 C 286.683594 27.207031 286.828125 27.316406 286.996094 27.394531 C 287.167969 27.46875 287.367188 27.503906 287.589844 27.503906 C 287.828125 27.503906 288.035156 27.46875 288.207031 27.394531 C 288.382812 27.316406 288.523438 27.207031 288.632812 27.070312 C 288.738281 26.925781 288.820312 26.761719 288.871094 26.574219 C 288.925781 26.378906 288.957031 26.167969 288.957031 25.945312 Z M 288.957031 25.945312 "/>
<path style=" stroke:none;fill-rule:nonzero;fill:rgb(60.392157%,0%,100%);fill-opacity:1;" d="M 281.023438 28.464844 L 281.023438 28.152344 L 281.757812 28.152344 L 281.757812 25.957031 L 281.109375 26.421875 L 281.109375 26.074219 L 281.78125 25.609375 L 282.128906 25.609375 L 282.128906 28.152344 L 282.820312 28.152344 L 282.820312 28.464844 Z M 281.023438 28.464844 "/>
<path style=" stroke:none;fill-rule:nonzero;fill:rgb(60.392157%,0%,100%);fill-opacity:1;" d="M 285.113281 27.039062 C 285.113281 27.3125 285.085938 27.542969 285.027344 27.730469 C 284.976562 27.917969 284.902344 28.070312 284.8125 28.183594 C 284.726562 28.300781 284.617188 28.382812 284.496094 28.433594 C 284.371094 28.480469 284.242188 28.507812 284.105469 28.507812 C 283.96875 28.507812 283.839844 28.480469 283.714844 28.433594 C 283.601562 28.382812 283.492188 28.300781 283.402344 28.183594 C 283.316406 28.070312 283.246094 27.917969 283.195312 27.730469 C 283.144531 27.542969 283.121094 27.3125 283.121094 27.039062 C 283.121094 26.75 283.144531 26.511719 283.195312 26.324219 C 283.246094 26.136719 283.316406 25.984375 283.402344 25.871094 C 283.492188 25.757812 283.601562 25.675781 283.726562 25.632812 C 283.847656 25.589844 283.980469 25.566406 284.117188 25.566406 C 284.253906 25.566406 284.382812 25.589844 284.507812 25.632812 C 284.628906 25.675781 284.734375 25.757812 284.824219 25.871094 C 284.910156 25.984375 284.976562 26.136719 285.027344 26.324219 C 285.085938 26.511719 285.113281 26.75 285.113281 27.039062 Z M 284.734375 27.039062 C 284.734375 26.808594 284.71875 26.617188 284.691406 26.464844 C 284.671875 26.3125 284.628906 26.195312 284.574219 26.109375 C 284.519531 26.019531 284.457031 25.960938 284.378906 25.921875 C 284.304688 25.878906 284.21875 25.859375 284.117188 25.859375 C 284.015625 25.859375 283.925781 25.878906 283.847656 25.921875 C 283.765625 25.960938 283.699219 26.027344 283.652344 26.117188 C 283.601562 26.203125 283.558594 26.324219 283.53125 26.476562 C 283.503906 26.621094 283.488281 26.808594 283.488281 27.039062 C 283.488281 27.253906 283.503906 27.4375 283.53125 27.589844 C 283.558594 27.742188 283.601562 27.867188 283.652344 27.957031 C 283.707031 28.042969 283.773438 28.109375 283.847656 28.152344 C 283.925781 28.191406 284.015625 28.207031 284.117188 28.207031 C 284.210938 28.207031 284.292969 28.191406 284.367188 28.152344 C 284.445312 28.109375 284.511719 28.042969 284.5625 27.957031 C 284.617188 27.867188 284.664062 27.742188 284.691406 27.589844 C 284.71875 27.4375 284.734375 27.253906 284.734375 27.039062 Z M 284.734375 27.039062 "/>
<path style=" stroke:none;fill-rule:nonzero;fill:rgb(60.392157%,0%,100%);fill-opacity:1;" d="M 286.003906 41.746094 C 286.003906 42 285.976562 42.222656 285.929688 42.417969 C 285.886719 42.605469 285.816406 42.761719 285.722656 42.894531 C 285.636719 43.019531 285.527344 43.109375 285.398438 43.175781 C 285.273438 43.238281 285.132812 43.273438 284.976562 43.273438 C 284.867188 43.273438 284.761719 43.261719 284.671875 43.238281 C 284.585938 43.21875 284.503906 43.183594 284.433594 43.132812 C 284.367188 43.082031 284.308594 43.019531 284.257812 42.949219 C 284.214844 42.867188 284.175781 42.78125 284.140625 42.675781 L 284.496094 42.621094 C 284.53125 42.746094 284.589844 42.835938 284.671875 42.894531 C 284.75 42.953125 284.851562 42.980469 284.976562 42.980469 C 285.074219 42.980469 285.164062 42.957031 285.246094 42.914062 C 285.332031 42.867188 285.402344 42.792969 285.460938 42.699219 C 285.519531 42.605469 285.5625 42.492188 285.59375 42.351562 C 285.628906 42.210938 285.648438 42.039062 285.648438 41.84375 C 285.617188 41.910156 285.578125 41.96875 285.527344 42.015625 C 285.476562 42.070312 285.417969 42.113281 285.355469 42.148438 C 285.292969 42.183594 285.230469 42.210938 285.160156 42.234375 C 285.085938 42.25 285.011719 42.253906 284.929688 42.253906 C 284.800781 42.253906 284.683594 42.234375 284.574219 42.191406 C 284.46875 42.140625 284.382812 42.078125 284.3125 41.996094 C 284.238281 41.910156 284.183594 41.808594 284.140625 41.691406 C 284.101562 41.570312 284.085938 41.4375 284.085938 41.292969 C 284.085938 41.140625 284.105469 41.007812 284.152344 40.890625 C 284.195312 40.769531 284.253906 40.671875 284.335938 40.589844 C 284.414062 40.503906 284.511719 40.4375 284.628906 40.394531 C 284.75 40.351562 284.886719 40.328125 285.039062 40.328125 C 285.355469 40.328125 285.59375 40.449219 285.753906 40.6875 C 285.921875 40.917969 286.003906 41.269531 286.003906 41.746094 Z M 285.613281 41.390625 C 285.613281 41.28125 285.597656 41.179688 285.570312 41.085938 C 285.550781 40.996094 285.511719 40.914062 285.460938 40.847656 C 285.410156 40.777344 285.347656 40.722656 285.277344 40.6875 C 285.207031 40.644531 285.121094 40.621094 285.027344 40.621094 C 284.941406 40.621094 284.859375 40.640625 284.789062 40.675781 C 284.71875 40.707031 284.65625 40.75 284.605469 40.804688 C 284.5625 40.863281 284.523438 40.933594 284.496094 41.023438 C 284.46875 41.101562 284.453125 41.191406 284.453125 41.292969 C 284.453125 41.386719 284.464844 41.476562 284.488281 41.5625 C 284.515625 41.644531 284.550781 41.714844 284.59375 41.777344 C 284.644531 41.839844 284.707031 41.882812 284.78125 41.917969 C 284.851562 41.949219 284.929688 41.964844 285.019531 41.964844 C 285.089844 41.964844 285.160156 41.953125 285.222656 41.929688 C 285.292969 41.910156 285.359375 41.875 285.417969 41.832031 C 285.476562 41.785156 285.523438 41.722656 285.558594 41.648438 C 285.59375 41.578125 285.613281 41.492188 285.613281 41.390625 Z M 285.613281 41.390625 "/>
<path style=" stroke:none;fill-rule:nonzero;fill:rgb(0%,0%,0%);fill-opacity:1;" d="M 274.460938 69.214844 C 274.460938 69.511719 274.417969 69.78125 274.332031 70.027344 C 274.246094 70.273438 274.117188 70.480469 273.953125 70.652344 C 273.792969 70.828125 273.59375 70.960938 273.355469 71.054688 C 273.121094 71.144531 272.859375 71.195312 272.5625 71.195312 C 272.246094 71.195312 271.96875 71.144531 271.730469 71.054688 C 271.496094 70.953125 271.300781 70.816406 271.144531 70.640625 C 270.984375 70.464844 270.863281 70.253906 270.785156 70.015625 C 270.703125 69.773438 270.667969 69.503906 270.667969 69.214844 C 270.667969 68.917969 270.703125 68.652344 270.785156 68.414062 C 270.871094 68.171875 270.996094 67.964844 271.15625 67.796875 C 271.320312 67.632812 271.519531 67.503906 271.75 67.40625 C 271.988281 67.316406 272.261719 67.265625 272.5625 67.265625 C 272.867188 67.265625 273.140625 67.316406 273.378906 67.40625 C 273.617188 67.503906 273.8125 67.636719 273.972656 67.808594 C 274.132812 67.976562 274.25 68.175781 274.332031 68.414062 C 274.417969 68.652344 274.460938 68.917969 274.460938 69.214844 Z M 273.929688 69.214844 C 273.929688 68.984375 273.902344 68.777344 273.84375 68.585938 C 273.785156 68.402344 273.699219 68.242188 273.582031 68.109375 C 273.46875 67.976562 273.324219 67.871094 273.148438 67.796875 C 272.980469 67.726562 272.785156 67.6875 272.5625 67.6875 C 272.339844 67.6875 272.140625 67.726562 271.96875 67.796875 C 271.792969 67.871094 271.648438 67.976562 271.535156 68.109375 C 271.425781 68.242188 271.339844 68.402344 271.285156 68.585938 C 271.226562 68.777344 271.199219 68.984375 271.199219 69.214844 C 271.199219 69.445312 271.226562 69.65625 271.285156 69.851562 C 271.339844 70.042969 271.429688 70.203125 271.542969 70.339844 C 271.660156 70.476562 271.800781 70.585938 271.96875 70.664062 C 272.140625 70.738281 272.339844 70.773438 272.5625 70.773438 C 272.804688 70.773438 273.007812 70.738281 273.183594 70.664062 C 273.355469 70.585938 273.496094 70.476562 273.605469 70.339844 C 273.714844 70.195312 273.792969 70.03125 273.84375 69.84375 C 273.902344 69.648438 273.929688 69.4375 273.929688 69.214844 Z M 273.929688 69.214844 "/>
<path style=" stroke:none;fill-rule:nonzero;fill:rgb(60.392157%,0%,100%);fill-opacity:1;" d="M 270.089844 70.9375 C 270.089844 71.0625 270.066406 71.171875 270.023438 71.273438 C 269.984375 71.375 269.929688 71.464844 269.851562 71.542969 C 269.769531 71.617188 269.667969 71.671875 269.546875 71.714844 C 269.421875 71.757812 269.277344 71.78125 269.113281 71.78125 C 268.945312 71.78125 268.800781 71.757812 268.679688 71.714844 C 268.554688 71.671875 268.453125 71.617188 268.363281 71.542969 C 268.285156 71.472656 268.226562 71.386719 268.191406 71.285156 C 268.152344 71.175781 268.136719 71.0625 268.136719 70.949219 C 268.136719 70.839844 268.152344 70.746094 268.179688 70.667969 C 268.214844 70.589844 268.257812 70.519531 268.3125 70.460938 C 268.359375 70.394531 268.417969 70.347656 268.484375 70.308594 C 268.554688 70.273438 268.628906 70.253906 268.703125 70.246094 L 268.703125 70.234375 C 268.621094 70.210938 268.550781 70.183594 268.484375 70.148438 C 268.425781 70.105469 268.375 70.054688 268.332031 69.996094 C 268.289062 69.929688 268.257812 69.867188 268.234375 69.800781 C 268.214844 69.730469 268.203125 69.65625 268.203125 69.574219 C 268.203125 69.472656 268.21875 69.378906 268.257812 69.292969 C 268.300781 69.199219 268.355469 69.121094 268.429688 69.054688 C 268.507812 68.988281 268.605469 68.941406 268.710938 68.902344 C 268.824219 68.859375 268.957031 68.839844 269.101562 68.839844 C 269.257812 68.839844 269.394531 68.859375 269.503906 68.902344 C 269.617188 68.941406 269.710938 68.988281 269.785156 69.054688 C 269.863281 69.121094 269.921875 69.199219 269.960938 69.292969 C 269.996094 69.378906 270.011719 69.472656 270.011719 69.574219 C 270.011719 69.65625 270.003906 69.730469 269.980469 69.800781 C 269.960938 69.875 269.925781 69.9375 269.882812 69.996094 C 269.839844 70.054688 269.785156 70.105469 269.71875 70.148438 C 269.660156 70.183594 269.589844 70.210938 269.503906 70.234375 C 269.589844 70.25 269.667969 70.273438 269.730469 70.308594 C 269.800781 70.347656 269.863281 70.394531 269.914062 70.460938 C 269.972656 70.519531 270.015625 70.589844 270.046875 70.667969 C 270.074219 70.746094 270.089844 70.835938 270.089844 70.9375 Z M 269.632812 69.597656 C 269.632812 69.527344 269.621094 69.460938 269.601562 69.402344 C 269.585938 69.335938 269.558594 69.289062 269.515625 69.25 C 269.476562 69.207031 269.421875 69.175781 269.351562 69.152344 C 269.285156 69.125 269.203125 69.109375 269.101562 69.109375 C 269.007812 69.109375 268.921875 69.125 268.851562 69.152344 C 268.789062 69.175781 268.734375 69.207031 268.691406 69.25 C 268.652344 69.289062 268.625 69.335938 268.605469 69.402344 C 268.582031 69.460938 268.570312 69.527344 268.570312 69.597656 C 268.570312 69.65625 268.578125 69.710938 268.59375 69.769531 C 268.613281 69.828125 268.640625 69.882812 268.679688 69.929688 C 268.714844 69.984375 268.769531 70.023438 268.84375 70.050781 C 268.914062 70.078125 269.003906 70.09375 269.113281 70.09375 C 269.222656 70.09375 269.3125 70.078125 269.382812 70.050781 C 269.453125 70.023438 269.507812 69.984375 269.546875 69.929688 C 269.582031 69.882812 269.605469 69.828125 269.613281 69.769531 C 269.625 69.710938 269.632812 69.65625 269.632812 69.597656 Z M 269.710938 70.90625 C 269.710938 70.839844 269.699219 70.773438 269.675781 70.710938 C 269.660156 70.644531 269.628906 70.589844 269.578125 70.535156 C 269.535156 70.488281 269.472656 70.449219 269.394531 70.417969 C 269.3125 70.390625 269.214844 70.375 269.101562 70.375 C 268.992188 70.375 268.902344 70.390625 268.832031 70.417969 C 268.757812 70.449219 268.695312 70.488281 268.648438 70.535156 C 268.605469 70.589844 268.570312 70.644531 268.550781 70.710938 C 268.527344 70.773438 268.515625 70.84375 268.515625 70.914062 C 268.515625 71.003906 268.527344 71.082031 268.550781 71.152344 C 268.570312 71.226562 268.605469 71.292969 268.648438 71.347656 C 268.695312 71.398438 268.757812 71.441406 268.832031 71.46875 C 268.910156 71.488281 269.003906 71.5 269.113281 71.5 C 269.226562 71.5 269.320312 71.488281 269.394531 71.46875 C 269.472656 71.441406 269.535156 71.398438 269.578125 71.347656 C 269.621094 71.292969 269.65625 71.226562 269.675781 71.152344 C 269.699219 71.082031 269.710938 71 269.710938 70.90625 Z M 269.710938 70.90625 "/>
<path style=" stroke:none;fill-rule:nonzero;fill:rgb(60.392157%,0%,100%);fill-opacity:1;" d="M 271.125 52.292969 C 270.976562 52.519531 270.84375 52.730469 270.722656 52.933594 C 270.605469 53.132812 270.507812 53.335938 270.417969 53.539062 C 270.332031 53.742188 270.261719 53.949219 270.214844 54.164062 C 270.171875 54.382812 270.148438 54.613281 270.148438 54.855469 L 269.757812 54.855469 C 269.757812 54.628906 269.78125 54.402344 269.835938 54.1875 C 269.890625 53.964844 269.96875 53.75 270.0625 53.539062 C 270.152344 53.328125 270.261719 53.125 270.386719 52.921875 C 270.507812 52.710938 270.640625 52.507812 270.777344 52.304688 L 269.238281 52.304688 L 269.238281 52 L 271.125 52 Z M 271.125 52.292969 "/>
<path style=" stroke:none;fill-rule:nonzero;fill:rgb(60.392157%,0%,100%);fill-opacity:1;" d="M 260.738281 25.269531 L 260.738281 25.917969 L 260.390625 25.917969 L 260.390625 25.269531 L 259.046875 25.269531 L 259.046875 24.988281 L 260.355469 23.0625 L 260.738281 23.0625 L 260.738281 24.988281 L 261.136719 24.988281 L 261.136719 25.269531 Z M 260.390625 23.472656 C 260.390625 23.480469 260.382812 23.496094 260.367188 23.515625 C 260.359375 23.53125 260.347656 23.554688 260.335938 23.582031 C 260.320312 23.601562 260.304688 23.628906 260.292969 23.65625 C 260.277344 23.679688 260.265625 23.699219 260.257812 23.710938 L 259.523438 24.792969 C 259.515625 24.800781 259.503906 24.816406 259.488281 24.835938 C 259.480469 24.851562 259.46875 24.867188 259.457031 24.890625 C 259.441406 24.90625 259.425781 24.921875 259.414062 24.945312 C 259.398438 24.960938 259.386719 24.972656 259.382812 24.988281 L 260.390625 24.988281 Z M 260.390625 23.472656 "/>
<path style=" stroke:none;fill-rule:nonzero;fill:rgb(60.392157%,0%,100%);fill-opacity:1;" d="M 258.523438 46.671875 C 258.523438 46.816406 258.503906 46.949219 258.460938 47.070312 C 258.417969 47.1875 258.351562 47.289062 258.265625 47.375 C 258.183594 47.460938 258.078125 47.53125 257.949219 47.578125 C 257.824219 47.625 257.679688 47.644531 257.515625 47.644531 C 257.363281 47.644531 257.230469 47.625 257.113281 47.589844 C 257.007812 47.554688 256.910156 47.507812 256.832031 47.449219 C 256.757812 47.386719 256.699219 47.316406 256.648438 47.234375 C 256.605469 47.148438 256.574219 47.058594 256.550781 46.964844 L 256.929688 46.921875 C 256.945312 46.972656 256.964844 47.027344 256.984375 47.082031 C 257.011719 47.132812 257.050781 47.179688 257.09375 47.222656 C 257.140625 47.261719 257.203125 47.289062 257.265625 47.308594 C 257.335938 47.332031 257.421875 47.34375 257.515625 47.34375 C 257.617188 47.34375 257.703125 47.328125 257.777344 47.296875 C 257.855469 47.273438 257.921875 47.226562 257.972656 47.167969 C 258.027344 47.113281 258.070312 47.042969 258.101562 46.964844 C 258.128906 46.875 258.144531 46.785156 258.144531 46.683594 C 258.144531 46.589844 258.128906 46.507812 258.101562 46.433594 C 258.078125 46.363281 258.039062 46.300781 257.980469 46.25 C 257.929688 46.191406 257.867188 46.148438 257.789062 46.121094 C 257.714844 46.09375 257.628906 46.078125 257.527344 46.078125 C 257.46875 46.078125 257.414062 46.085938 257.363281 46.097656 C 257.3125 46.105469 257.261719 46.121094 257.210938 46.140625 C 257.167969 46.15625 257.128906 46.179688 257.09375 46.207031 C 257.054688 46.226562 257.023438 46.253906 256.996094 46.28125 L 256.636719 46.28125 L 256.734375 44.746094 L 258.363281 44.746094 L 258.363281 45.046875 L 257.070312 45.046875 L 257.015625 45.957031 C 257.082031 45.910156 257.160156 45.867188 257.253906 45.828125 C 257.355469 45.792969 257.472656 45.773438 257.601562 45.773438 C 257.746094 45.773438 257.875 45.796875 257.980469 45.839844 C 258.097656 45.882812 258.195312 45.945312 258.273438 46.023438 C 258.355469 46.101562 258.417969 46.199219 258.460938 46.3125 C 258.503906 46.421875 258.523438 46.542969 258.523438 46.671875 Z M 258.523438 46.671875 "/>
<path style=" stroke:none;fill-rule:nonzero;fill:rgb(60.392157%,0%,100%);fill-opacity:1;" d="M 243.472656 55.355469 C 243.472656 55.492188 243.453125 55.621094 243.410156 55.746094 C 243.371094 55.867188 243.3125 55.972656 243.234375 56.058594 C 243.152344 56.140625 243.054688 56.203125 242.941406 56.253906 C 242.824219 56.300781 242.691406 56.328125 242.542969 56.328125 C 242.371094 56.328125 242.230469 56.296875 242.105469 56.230469 C 241.984375 56.167969 241.878906 56.078125 241.792969 55.960938 C 241.710938 55.839844 241.652344 55.691406 241.609375 55.515625 C 241.570312 55.34375 241.554688 55.148438 241.554688 54.921875 C 241.554688 54.671875 241.574219 54.445312 241.621094 54.25 C 241.664062 54.058594 241.726562 53.898438 241.816406 53.777344 C 241.90625 53.644531 242.015625 53.546875 242.140625 53.484375 C 242.269531 53.417969 242.414062 53.386719 242.574219 53.386719 C 242.675781 53.386719 242.761719 53.398438 242.84375 53.417969 C 242.929688 53.433594 243.007812 53.46875 243.074219 53.515625 C 243.144531 53.558594 243.207031 53.621094 243.257812 53.699219 C 243.3125 53.773438 243.355469 53.863281 243.386719 53.96875 L 243.039062 54.023438 C 243 53.902344 242.941406 53.816406 242.855469 53.765625 C 242.773438 53.707031 242.683594 53.679688 242.574219 53.679688 C 242.46875 53.679688 242.378906 53.707031 242.292969 53.753906 C 242.210938 53.796875 242.140625 53.867188 242.085938 53.960938 C 242.035156 54.054688 241.992188 54.171875 241.957031 54.316406 C 241.925781 54.460938 241.914062 54.628906 241.914062 54.8125 C 241.976562 54.691406 242.070312 54.597656 242.195312 54.53125 C 242.316406 54.46875 242.453125 54.433594 242.605469 54.433594 C 242.734375 54.433594 242.851562 54.457031 242.953125 54.5 C 243.0625 54.542969 243.152344 54.605469 243.222656 54.683594 C 243.304688 54.765625 243.363281 54.863281 243.410156 54.976562 C 243.453125 55.085938 243.472656 55.210938 243.472656 55.355469 Z M 243.09375 55.367188 C 243.09375 55.265625 243.082031 55.175781 243.0625 55.09375 C 243.039062 55.015625 243 54.953125 242.953125 54.902344 C 242.902344 54.84375 242.839844 54.800781 242.769531 54.769531 C 242.695312 54.734375 242.613281 54.714844 242.519531 54.714844 C 242.453125 54.714844 242.382812 54.726562 242.3125 54.75 C 242.25 54.769531 242.1875 54.804688 242.128906 54.847656 C 242.078125 54.890625 242.035156 54.949219 242 55.019531 C 241.960938 55.09375 241.945312 55.179688 241.945312 55.277344 C 241.945312 55.386719 241.957031 55.488281 241.988281 55.582031 C 242.015625 55.667969 242.054688 55.75 242.105469 55.820312 C 242.15625 55.886719 242.21875 55.9375 242.292969 55.980469 C 242.363281 56.019531 242.445312 56.035156 242.53125 56.035156 C 242.617188 56.035156 242.695312 56.023438 242.769531 55.992188 C 242.839844 55.957031 242.898438 55.910156 242.941406 55.851562 C 242.992188 55.796875 243.027344 55.726562 243.050781 55.648438 C 243.078125 55.558594 243.09375 55.46875 243.09375 55.367188 Z M 243.09375 55.367188 "/>
<path style=" stroke:none;fill-rule:nonzero;fill:rgb(60.392157%,0%,100%);fill-opacity:1;" d="M 224.109375 46.125 L 224.109375 45.8125 L 224.847656 45.8125 L 224.847656 43.617188 L 224.195312 44.082031 L 224.195312 43.734375 L 224.867188 43.269531 L 225.214844 43.269531 L 225.214844 45.8125 L 225.910156 45.8125 L 225.910156 46.125 Z M 224.109375 46.125 "/>
<path style=" stroke:none;fill-rule:nonzero;fill:rgb(60.392157%,0%,100%);fill-opacity:1;" d="M 224.015625 25.957031 L 224.015625 25.695312 C 224.089844 25.539062 224.171875 25.402344 224.265625 25.285156 C 224.367188 25.164062 224.472656 25.054688 224.582031 24.949219 C 224.695312 24.851562 224.808594 24.761719 224.917969 24.679688 C 225.027344 24.59375 225.125 24.511719 225.210938 24.429688 C 225.296875 24.34375 225.363281 24.253906 225.417969 24.160156 C 225.464844 24.070312 225.492188 23.964844 225.492188 23.847656 C 225.492188 23.769531 225.480469 23.699219 225.460938 23.640625 C 225.4375 23.578125 225.398438 23.523438 225.351562 23.480469 C 225.308594 23.4375 225.253906 23.410156 225.1875 23.390625 C 225.125 23.371094 225.050781 23.359375 224.972656 23.359375 C 224.898438 23.359375 224.832031 23.371094 224.765625 23.390625 C 224.699219 23.410156 224.640625 23.4375 224.59375 23.480469 C 224.539062 23.515625 224.5 23.566406 224.472656 23.628906 C 224.441406 23.691406 224.421875 23.757812 224.40625 23.835938 L 224.039062 23.804688 C 224.054688 23.703125 224.082031 23.609375 224.125 23.523438 C 224.167969 23.429688 224.230469 23.347656 224.308594 23.285156 C 224.390625 23.214844 224.484375 23.160156 224.59375 23.121094 C 224.699219 23.078125 224.824219 23.058594 224.972656 23.058594 C 225.117188 23.058594 225.242188 23.074219 225.351562 23.109375 C 225.464844 23.140625 225.558594 23.191406 225.632812 23.261719 C 225.710938 23.328125 225.769531 23.410156 225.808594 23.511719 C 225.851562 23.605469 225.871094 23.714844 225.871094 23.835938 C 225.871094 23.9375 225.851562 24.03125 225.816406 24.117188 C 225.789062 24.203125 225.746094 24.289062 225.6875 24.367188 C 225.628906 24.4375 225.558594 24.515625 225.480469 24.59375 C 225.40625 24.667969 225.328125 24.738281 225.242188 24.808594 C 225.160156 24.875 225.082031 24.945312 224.992188 25.015625 C 224.910156 25.078125 224.832031 25.148438 224.753906 25.21875 C 224.683594 25.285156 224.617188 25.355469 224.558594 25.425781 C 224.5 25.5 224.453125 25.570312 224.417969 25.640625 L 225.914062 25.640625 L 225.914062 25.957031 Z M 224.015625 25.957031 "/>
<path style=" stroke:none;fill-rule:nonzero;fill:rgb(60.392157%,0%,100%);fill-opacity:1;" d="M 243.5 14.996094 C 243.5 15.125 243.480469 15.246094 243.4375 15.351562 C 243.390625 15.457031 243.328125 15.542969 243.242188 15.613281 C 243.160156 15.675781 243.058594 15.730469 242.9375 15.773438 C 242.820312 15.808594 242.683594 15.828125 242.523438 15.828125 C 242.351562 15.828125 242.203125 15.808594 242.082031 15.761719 C 241.957031 15.71875 241.855469 15.664062 241.777344 15.589844 C 241.695312 15.511719 241.636719 15.429688 241.59375 15.339844 C 241.554688 15.25 241.53125 15.152344 241.527344 15.050781 L 241.90625 15.015625 C 241.914062 15.089844 241.929688 15.15625 241.960938 15.222656 C 241.988281 15.289062 242.027344 15.339844 242.082031 15.386719 C 242.128906 15.429688 242.191406 15.464844 242.265625 15.492188 C 242.335938 15.515625 242.421875 15.527344 242.523438 15.527344 C 242.710938 15.527344 242.855469 15.480469 242.957031 15.394531 C 243.066406 15.304688 243.121094 15.164062 243.121094 14.984375 C 243.121094 14.875 243.09375 14.789062 243.046875 14.726562 C 243 14.660156 242.941406 14.613281 242.871094 14.585938 C 242.796875 14.550781 242.722656 14.523438 242.644531 14.507812 C 242.5625 14.496094 242.488281 14.488281 242.417969 14.488281 L 242.210938 14.488281 L 242.210938 14.171875 L 242.40625 14.171875 C 242.476562 14.171875 242.550781 14.167969 242.621094 14.152344 C 242.699219 14.136719 242.769531 14.113281 242.828125 14.074219 C 242.894531 14.039062 242.941406 13.988281 242.980469 13.925781 C 243.023438 13.859375 243.046875 13.777344 243.046875 13.675781 C 243.046875 13.523438 242.996094 13.40625 242.90625 13.320312 C 242.816406 13.230469 242.683594 13.1875 242.503906 13.1875 C 242.34375 13.1875 242.214844 13.230469 242.113281 13.308594 C 242.007812 13.390625 241.953125 13.503906 241.9375 13.652344 L 241.570312 13.632812 C 241.585938 13.503906 241.617188 13.390625 241.667969 13.296875 C 241.726562 13.207031 241.792969 13.128906 241.875 13.070312 C 241.960938 13.003906 242.058594 12.960938 242.167969 12.929688 C 242.273438 12.902344 242.390625 12.886719 242.515625 12.886719 C 242.671875 12.886719 242.808594 12.90625 242.925781 12.949219 C 243.039062 12.988281 243.132812 13.042969 243.207031 13.113281 C 243.277344 13.179688 243.328125 13.257812 243.359375 13.351562 C 243.394531 13.4375 243.414062 13.535156 243.414062 13.644531 C 243.414062 13.722656 243.402344 13.804688 243.382812 13.882812 C 243.359375 13.953125 243.320312 14.019531 243.273438 14.074219 C 243.230469 14.136719 243.167969 14.183594 243.089844 14.226562 C 243.015625 14.265625 242.925781 14.292969 242.816406 14.3125 L 242.816406 14.324219 C 242.929688 14.339844 243.035156 14.367188 243.121094 14.410156 C 243.207031 14.449219 243.277344 14.496094 243.328125 14.550781 C 243.382812 14.613281 243.425781 14.679688 243.457031 14.757812 C 243.484375 14.832031 243.5 14.910156 243.5 14.996094 Z M 243.5 14.996094 "/>
<path style="fill:none;stroke-width:0.0333333;stroke-linecap:butt;stroke-linejoin:miter;stroke:rgb(0%,0%,0%);stroke-opacity:1;stroke-miterlimit:10;" d="M 3.464034 1.509731 L 3.464034 0.690686 " transform="matrix(17.349727,0,0,17.307692,227.489798,17.307533)"/>
<path style="fill:none;stroke-width:0.0333333;stroke-linecap:butt;stroke-linejoin:miter;stroke:rgb(0%,0%,0%);stroke-opacity:1;stroke-miterlimit:10;" d="M 2.58821 2.070356 L 2.607798 2.070356 M 2.578528 2.140547 L 2.617479 2.140547 M 2.568847 2.210738 L 2.62716 2.210738 M 2.559166 2.281155 L 2.636842 2.281155 M 2.549484 2.351346 L 2.646748 2.351346 M 2.539803 2.421537 L 2.65643 2.421537 M 2.530122 2.491954 L 2.666111 2.491954 M 2.52044 2.562145 L 2.675792 2.562145 M 2.510534 2.632561 L 2.685699 2.632561 M 2.500853 2.702752 L 2.69538 2.702752 M 2.491171 2.772943 L 2.705061 2.772943 M 2.48149 2.84336 L 2.714743 2.84336 " transform="matrix(17.349727,0,0,17.307692,227.489798,17.307533)"/>
<path style="fill:none;stroke-width:0.0333333;stroke-linecap:butt;stroke-linejoin:miter;stroke:rgb(0%,0%,0%);stroke-opacity:1;stroke-miterlimit:10;" d="M 2.589786 2.004905 L 3.47259 1.495061 " transform="matrix(17.349727,0,0,17.307692,227.489798,17.307533)"/>
<path style="fill:none;stroke-width:0.0333333;stroke-linecap:butt;stroke-linejoin:miter;stroke:rgb(0%,0%,0%);stroke-opacity:1;stroke-miterlimit:10;" d="M 1.731973 1.509731 L 1.731973 0.49027 " transform="matrix(17.349727,0,0,17.307692,227.489798,17.307533)"/>
<path style="fill:none;stroke-width:0.0333333;stroke-linecap:butt;stroke-linejoin:miter;stroke:rgb(0%,0%,0%);stroke-opacity:1;stroke-miterlimit:10;" d="M 1.723643 1.495061 L 2.606447 2.004905 " transform="matrix(17.349727,0,0,17.307692,227.489798,17.307533)"/>
<path style="fill:none;stroke-width:0.0333333;stroke-linecap:butt;stroke-linejoin:miter;stroke:rgb(0%,0%,0%);stroke-opacity:1;stroke-miterlimit:10;" d="M 0.857725 2.004905 L 1.731973 1.500027 " transform="matrix(17.349727,0,0,17.307692,227.489798,17.307533)"/>
<path style="fill:none;stroke-width:0.0333333;stroke-linecap:butt;stroke-linejoin:miter;stroke:rgb(0%,0%,0%);stroke-opacity:1;stroke-miterlimit:10;" d="M 0.857725 1.812388 L 1.565364 1.403655 " transform="matrix(17.349727,0,0,17.307692,227.489798,17.307533)"/>
<path style="fill:none;stroke-width:0.0333333;stroke-linecap:butt;stroke-linejoin:miter;stroke:rgb(0%,0%,0%);stroke-opacity:1;stroke-miterlimit:10;" d="M -0.00819273 1.495061 L 0.874161 2.004905 " transform="matrix(17.349727,0,0,17.307692,227.489798,17.307533)"/>
<path style="fill:none;stroke-width:0.0333333;stroke-linecap:butt;stroke-linejoin:miter;stroke:rgb(0%,0%,0%);stroke-opacity:1;stroke-miterlimit:10;" d="M -0.0000874177 0.49027 L -0.0000874177 1.509731 " transform="matrix(17.349727,0,0,17.307692,227.489798,17.307533)"/>
<path style="fill:none;stroke-width:0.0333333;stroke-linecap:butt;stroke-linejoin:miter;stroke:rgb(0%,0%,0%);stroke-opacity:1;stroke-miterlimit:10;" d="M 0.166747 0.586641 L 0.166747 1.41336 " transform="matrix(17.349727,0,0,17.307692,227.489798,17.307533)"/>
<path style="fill:none;stroke-width:0.0333333;stroke-linecap:butt;stroke-linejoin:miter;stroke:rgb(0%,0%,0%);stroke-opacity:1;stroke-miterlimit:10;" d="M 0.857725 -0.00490399 L 1.740304 0.50494 " transform="matrix(17.349727,0,0,17.307692,227.489798,17.307533)"/>
<path style="fill:none;stroke-width:0.0333333;stroke-linecap:butt;stroke-linejoin:miter;stroke:rgb(0%,0%,0%);stroke-opacity:1;stroke-miterlimit:10;" d="M 0.857725 0.187613 L 1.573695 0.601086 " transform="matrix(17.349727,0,0,17.307692,227.489798,17.307533)"/>
<path style="fill:none;stroke-width:0.0333333;stroke-linecap:butt;stroke-linejoin:miter;stroke:rgb(0%,0%,0%);stroke-opacity:1;stroke-miterlimit:10;" d="M 0.874161 -0.00490399 L -0.00819273 0.50494 " transform="matrix(17.349727,0,0,17.307692,227.489798,17.307533)"/>
</g>
</svg>
