<?xml version="1.0" encoding="UTF-8"?>
<svg xmlns="http://www.w3.org/2000/svg" xmlns:xlink="http://www.w3.org/1999/xlink" width="195.2pt" height="112.8pt" viewBox="0 0 195.2 112.8" version="1.1">
<g id="surface427">
<path style=" stroke:none;fill-rule:nonzero;fill:rgb(0%,0%,0%);fill-opacity:1;" d="M 104.089844 45.765625 L 102.042969 42.511719 C 102.046875 42.597656 102.050781 42.683594 102.050781 42.769531 C 102.058594 42.84375 102.0625 42.921875 102.0625 43.011719 C 102.066406 43.089844 102.074219 43.160156 102.074219 43.226562 L 102.074219 45.765625 L 101.609375 45.765625 L 101.609375 41.945312 L 102.214844 41.945312 L 104.273438 45.222656 C 104.273438 45.222656 104.265625 45.132812 104.261719 44.953125 C 104.253906 44.882812 104.246094 44.800781 104.238281 44.714844 C 104.238281 44.621094 104.238281 44.535156 104.238281 44.453125 L 104.238281 41.945312 L 104.707031 41.945312 L 104.707031 45.765625 Z M 104.089844 45.765625 "/>
<path style=" stroke:none;fill-rule:nonzero;fill:rgb(0%,0%,0%);fill-opacity:1;" d="M 134.105469 28.402344 L 132.054688 25.144531 C 132.0625 25.234375 132.066406 25.320312 132.066406 25.40625 C 132.074219 25.480469 132.078125 25.558594 132.078125 25.644531 C 132.082031 25.726562 132.089844 25.796875 132.089844 25.863281 L 132.089844 28.402344 L 131.625 28.402344 L 131.625 24.582031 L 132.230469 24.582031 L 134.289062 27.859375 C 134.289062 27.859375 134.28125 27.769531 134.277344 27.589844 C 134.269531 27.515625 134.261719 27.4375 134.253906 27.347656 C 134.253906 27.257812 134.253906 27.171875 134.253906 27.089844 L 134.253906 24.582031 L 134.722656 24.582031 L 134.722656 28.402344 Z M 134.105469 28.402344 "/>
<path style=" stroke:none;fill-rule:nonzero;fill:rgb(0%,0%,0%);fill-opacity:1;" d="M 63.238281 19.097656 L 61.191406 15.84375 C 61.195312 15.929688 61.199219 16.015625 61.199219 16.101562 C 61.207031 16.175781 61.210938 16.253906 61.210938 16.339844 C 61.214844 16.421875 61.222656 16.492188 61.222656 16.558594 L 61.222656 19.097656 L 60.757812 19.097656 L 60.757812 15.277344 L 61.363281 15.277344 L 63.421875 18.554688 C 63.421875 18.554688 63.414062 18.464844 63.410156 18.285156 C 63.402344 18.214844 63.394531 18.132812 63.386719 18.046875 C 63.386719 17.953125 63.386719 17.867188 63.386719 17.785156 L 63.386719 15.277344 L 63.855469 15.277344 L 63.855469 19.097656 Z M 63.238281 19.097656 "/>
<path style=" stroke:none;fill-rule:nonzero;fill:rgb(0%,0%,0%);fill-opacity:1;" d="M 93.25 36.460938 L 91.203125 33.207031 C 91.210938 33.292969 91.214844 33.378906 91.214844 33.46875 C 91.222656 33.539062 91.226562 33.621094 91.226562 33.707031 C 91.230469 33.789062 91.238281 33.859375 91.238281 33.921875 L 91.238281 36.460938 L 90.773438 36.460938 L 90.773438 32.644531 L 91.378906 32.644531 L 93.4375 35.921875 C 93.4375 35.921875 93.429688 35.832031 93.425781 35.648438 C 93.417969 35.578125 93.410156 35.496094 93.402344 35.410156 C 93.402344 35.316406 93.402344 35.230469 93.402344 35.148438 L 93.402344 32.644531 L 93.871094 32.644531 L 93.871094 36.460938 Z M 93.25 36.460938 "/>
<path style="fill:none;stroke-width:0.0333333;stroke-linecap:butt;stroke-linejoin:miter;stroke:rgb(0%,0%,0%);stroke-opacity:1;stroke-miterlimit:10;" d="M 0.87452 0.995289 L -0.00841037 1.504814 " transform="matrix(17.329545,0,0,17.364532,17.282467,17.189922)"/>
<path style="fill:none;stroke-width:0.0333333;stroke-linecap:butt;stroke-linejoin:miter;stroke:rgb(0%,0%,0%);stroke-opacity:1;stroke-miterlimit:10;" d="M 0.87452 1.187626 L 0.158393 1.601095 " transform="matrix(17.329545,0,0,17.364532,17.282467,17.189922)"/>
<path style="fill:none;stroke-width:0.0333333;stroke-linecap:butt;stroke-linejoin:miter;stroke:rgb(0%,0%,0%);stroke-opacity:1;stroke-miterlimit:10;" d="M 0.000155205 1.490417 L 0.000155205 2.509691 " transform="matrix(17.329545,0,0,17.364532,17.282467,17.189922)"/>
<path style="fill:none;stroke-width:0.0333333;stroke-linecap:butt;stroke-linejoin:miter;stroke:rgb(0%,0%,0%);stroke-opacity:1;stroke-miterlimit:10;" d="M -0.00841037 2.495294 L 0.87452 3.004818 " transform="matrix(17.329545,0,0,17.364532,17.282467,17.189922)"/>
<path style="fill:none;stroke-width:0.0333333;stroke-linecap:butt;stroke-linejoin:miter;stroke:rgb(0%,0%,0%);stroke-opacity:1;stroke-miterlimit:10;" d="M 0.158393 2.399013 L 0.87452 2.812481 " transform="matrix(17.329545,0,0,17.364532,17.282467,17.189922)"/>
<path style="fill:none;stroke-width:0.0333333;stroke-linecap:butt;stroke-linejoin:miter;stroke:rgb(0%,0%,0%);stroke-opacity:1;stroke-miterlimit:10;" d="M 0.857614 3.004818 L 1.740319 2.495294 " transform="matrix(17.329545,0,0,17.364532,17.282467,17.189922)"/>
<path style="fill:none;stroke-width:0.0333333;stroke-linecap:butt;stroke-linejoin:miter;stroke:rgb(0%,0%,0%);stroke-opacity:1;stroke-miterlimit:10;" d="M 0.857614 0.995289 L 1.740319 1.504814 " transform="matrix(17.329545,0,0,17.364532,17.282467,17.189922)"/>
<path style="fill:none;stroke-width:0.0333333;stroke-linecap:butt;stroke-linejoin:miter;stroke:rgb(0%,0%,0%);stroke-opacity:1;stroke-miterlimit:10;" d="M 2.606569 0.995289 L 1.723639 1.504814 " transform="matrix(17.329545,0,0,17.364532,17.282467,17.189922)"/>
<path style="fill:none;stroke-width:0.0333333;stroke-linecap:butt;stroke-linejoin:miter;stroke:rgb(0%,0%,0%);stroke-opacity:1;stroke-miterlimit:10;" d="M 1.731979 2.500018 L 1.731979 1.50009 " transform="matrix(17.329545,0,0,17.364532,17.282467,17.189922)"/>
<path style="fill:none;stroke-width:0.0333333;stroke-linecap:butt;stroke-linejoin:miter;stroke:rgb(0%,0%,0%);stroke-opacity:1;stroke-miterlimit:10;" d="M 1.565401 2.403962 L 1.565401 1.596146 " transform="matrix(17.329545,0,0,17.364532,17.282467,17.189922)"/>
<path style="fill:none;stroke-width:0.0333333;stroke-linecap:butt;stroke-linejoin:miter;stroke:rgb(0%,0%,0%);stroke-opacity:1;stroke-miterlimit:10;" d="M 1.723639 2.495294 L 2.606569 3.004818 " transform="matrix(17.329545,0,0,17.364532,17.282467,17.189922)"/>
<path style="fill:none;stroke-width:0.0333333;stroke-linecap:butt;stroke-linejoin:miter;stroke:rgb(0%,0%,0%);stroke-opacity:1;stroke-miterlimit:10;" d="M 3.464028 2.509691 L 3.464028 1.490417 " transform="matrix(17.329545,0,0,17.364532,17.282467,17.189922)"/>
<path style="fill:none;stroke-width:0.0333333;stroke-linecap:butt;stroke-linejoin:miter;stroke:rgb(0%,0%,0%);stroke-opacity:1;stroke-miterlimit:10;" d="M 2.598004 1.000013 L 3.464028 1.50009 " transform="matrix(17.329545,0,0,17.364532,17.282467,17.189922)"/>
<path style="fill:none;stroke-width:0.0333333;stroke-linecap:butt;stroke-linejoin:miter;stroke:rgb(0%,0%,0%);stroke-opacity:1;stroke-miterlimit:10;" d="M 2.598004 1.192351 L 3.29745 1.596146 " transform="matrix(17.329545,0,0,17.364532,17.282467,17.189922)"/>
<path style="fill:none;stroke-width:0.0333333;stroke-linecap:butt;stroke-linejoin:miter;stroke:rgb(0%,0%,0%);stroke-opacity:1;stroke-miterlimit:10;" d="M 6.687389 1.535633 L 5.821364 2.035709 " transform="matrix(17.329545,0,0,17.364532,17.282467,17.189922)"/>
<path style="fill:none;stroke-width:0.0333333;stroke-linecap:butt;stroke-linejoin:miter;stroke:rgb(0%,0%,0%);stroke-opacity:1;stroke-miterlimit:10;" d="M 6.687389 1.728195 L 5.988167 2.13199 " transform="matrix(17.329545,0,0,17.364532,17.282467,17.189922)"/>
<path style="fill:none;stroke-width:0.0333333;stroke-linecap:butt;stroke-linejoin:miter;stroke:rgb(0%,0%,0%);stroke-opacity:1;stroke-miterlimit:10;" d="M 5.821364 2.026261 L 5.821364 3.04531 " transform="matrix(17.329545,0,0,17.364532,17.282467,17.189922)"/>
<path style="fill:none;stroke-width:0.0333333;stroke-linecap:butt;stroke-linejoin:miter;stroke:rgb(0%,0%,0%);stroke-opacity:1;stroke-miterlimit:10;" d="M 5.813249 3.030913 L 6.695729 3.540438 " transform="matrix(17.329545,0,0,17.364532,17.282467,17.189922)"/>
<path style="fill:none;stroke-width:0.0333333;stroke-linecap:butt;stroke-linejoin:miter;stroke:rgb(0%,0%,0%);stroke-opacity:1;stroke-miterlimit:10;" d="M 5.979827 2.934632 L 6.695729 3.348101 " transform="matrix(17.329545,0,0,17.364532,17.282467,17.189922)"/>
<path style="fill:none;stroke-width:0.0333333;stroke-linecap:butt;stroke-linejoin:miter;stroke:rgb(0%,0%,0%);stroke-opacity:1;stroke-miterlimit:10;" d="M 6.679049 3.540438 L 7.561754 3.030913 " transform="matrix(17.329545,0,0,17.364532,17.282467,17.189922)"/>
<path style="fill:none;stroke-width:0.0333333;stroke-linecap:butt;stroke-linejoin:miter;stroke:rgb(0%,0%,0%);stroke-opacity:1;stroke-miterlimit:10;" d="M 6.679049 1.530909 L 7.561754 2.040433 " transform="matrix(17.329545,0,0,17.364532,17.282467,17.189922)"/>
<path style="fill:none;stroke-width:0.0333333;stroke-linecap:butt;stroke-linejoin:miter;stroke:rgb(0%,0%,0%);stroke-opacity:1;stroke-miterlimit:10;" d="M 8.427778 1.530909 L 7.545073 2.040433 " transform="matrix(17.329545,0,0,17.364532,17.282467,17.189922)"/>
<path style="fill:none;stroke-width:0.0333333;stroke-linecap:butt;stroke-linejoin:miter;stroke:rgb(0%,0%,0%);stroke-opacity:1;stroke-miterlimit:10;" d="M 7.553413 3.035637 L 7.553413 2.035709 " transform="matrix(17.329545,0,0,17.364532,17.282467,17.189922)"/>
<path style="fill:none;stroke-width:0.0333333;stroke-linecap:butt;stroke-linejoin:miter;stroke:rgb(0%,0%,0%);stroke-opacity:1;stroke-miterlimit:10;" d="M 7.386836 2.939581 L 7.386836 2.13199 " transform="matrix(17.329545,0,0,17.364532,17.282467,17.189922)"/>
<path style="fill:none;stroke-width:0.0333333;stroke-linecap:butt;stroke-linejoin:miter;stroke:rgb(0%,0%,0%);stroke-opacity:1;stroke-miterlimit:10;" d="M 7.545073 3.030913 L 8.427778 3.540438 " transform="matrix(17.329545,0,0,17.364532,17.282467,17.189922)"/>
<path style="fill:none;stroke-width:0.0333333;stroke-linecap:butt;stroke-linejoin:miter;stroke:rgb(0%,0%,0%);stroke-opacity:1;stroke-miterlimit:10;" d="M 8.411098 3.540438 L 9.293803 3.030913 " transform="matrix(17.329545,0,0,17.364532,17.282467,17.189922)"/>
<path style="fill:none;stroke-width:0.0333333;stroke-linecap:butt;stroke-linejoin:miter;stroke:rgb(0%,0%,0%);stroke-opacity:1;stroke-miterlimit:10;" d="M 8.411098 3.348101 L 9.126999 2.934632 " transform="matrix(17.329545,0,0,17.364532,17.282467,17.189922)"/>
<path style="fill:none;stroke-width:0.0333333;stroke-linecap:butt;stroke-linejoin:miter;stroke:rgb(0%,0%,0%);stroke-opacity:1;stroke-miterlimit:10;" d="M 9.285463 3.04531 L 9.285463 2.026261 " transform="matrix(17.329545,0,0,17.364532,17.282467,17.189922)"/>
<path style="fill:none;stroke-width:0.0333333;stroke-linecap:butt;stroke-linejoin:miter;stroke:rgb(0%,0%,0%);stroke-opacity:1;stroke-miterlimit:10;" d="M 8.411098 1.530909 L 9.293803 2.040433 " transform="matrix(17.329545,0,0,17.364532,17.282467,17.189922)"/>
<path style="fill:none;stroke-width:0.0333333;stroke-linecap:butt;stroke-linejoin:miter;stroke:rgb(0%,0%,0%);stroke-opacity:1;stroke-miterlimit:10;" d="M 8.411098 1.723246 L 9.126999 2.136714 " transform="matrix(17.329545,0,0,17.364532,17.282467,17.189922)"/>
<path style="fill:none;stroke-width:0.0333333;stroke-linecap:butt;stroke-linejoin:miter;stroke:rgb(0%,0%,0%);stroke-opacity:1;stroke-miterlimit:10;" d="M 5.829704 2.040433 L 5.121241 1.631689 " transform="matrix(17.329545,0,0,17.364532,17.282467,17.189922)"/>
<path style="fill:none;stroke-width:0.0333333;stroke-linecap:butt;stroke-linejoin:miter;stroke:rgb(0%,0%,0%);stroke-opacity:1;stroke-miterlimit:10;" d="M 6.687389 1.545306 L 6.687389 0.689125 " transform="matrix(17.329545,0,0,17.364532,17.282467,17.189922)"/>
<path style="fill:none;stroke-width:0.0333333;stroke-linecap:butt;stroke-linejoin:miter;stroke:rgb(0%,0%,0%);stroke-opacity:1;stroke-miterlimit:10;" d="M 3.455913 2.495294 L 4.338393 3.004818 " transform="matrix(17.329545,0,0,17.364532,17.282467,17.189922)"/>
<path style="fill:none;stroke-width:0.0333333;stroke-linecap:butt;stroke-linejoin:miter;stroke:rgb(0%,0%,0%);stroke-opacity:1;stroke-miterlimit:10;" d="M 2.598004 3.000094 L 3.464028 2.500018 " transform="matrix(17.329545,0,0,17.364532,17.282467,17.189922)"/>
<path style="fill:none;stroke-width:0.0333333;stroke-linecap:butt;stroke-linejoin:miter;stroke:rgb(0%,0%,0%);stroke-opacity:1;stroke-miterlimit:10;" d="M 2.598004 2.807757 L 3.29745 2.403962 " transform="matrix(17.329545,0,0,17.364532,17.282467,17.189922)"/>
<path style="fill:none;stroke-width:0.0333333;stroke-linecap:butt;stroke-linejoin:miter;stroke:rgb(0%,0%,0%);stroke-opacity:1;stroke-miterlimit:10;" d="M 2.598004 2.990421 L 2.598004 4.009695 " transform="matrix(17.329545,0,0,17.364532,17.282467,17.189922)"/>
<path style="fill:none;stroke-width:0.0333333;stroke-linecap:butt;stroke-linejoin:miter;stroke:rgb(0%,0%,0%);stroke-opacity:1;stroke-miterlimit:10;" d="M 2.589663 3.995298 L 3.472368 4.504823 " transform="matrix(17.329545,0,0,17.364532,17.282467,17.189922)"/>
<path style="fill:none;stroke-width:0.0333333;stroke-linecap:butt;stroke-linejoin:miter;stroke:rgb(0%,0%,0%);stroke-opacity:1;stroke-miterlimit:10;" d="M 2.756241 3.899017 L 3.472368 4.312486 " transform="matrix(17.329545,0,0,17.364532,17.282467,17.189922)"/>
<path style="fill:none;stroke-width:0.0333333;stroke-linecap:butt;stroke-linejoin:miter;stroke:rgb(0%,0%,0%);stroke-opacity:1;stroke-miterlimit:10;" d="M 3.455913 4.504823 L 4.338393 3.995298 " transform="matrix(17.329545,0,0,17.364532,17.282467,17.189922)"/>
<path style="fill:none;stroke-width:0.0333333;stroke-linecap:butt;stroke-linejoin:miter;stroke:rgb(0%,0%,0%);stroke-opacity:1;stroke-miterlimit:10;" d="M 4.330053 4.009695 L 4.330053 2.990421 " transform="matrix(17.329545,0,0,17.364532,17.282467,17.189922)"/>
<path style="fill:none;stroke-width:0.0333333;stroke-linecap:butt;stroke-linejoin:miter;stroke:rgb(0%,0%,0%);stroke-opacity:1;stroke-miterlimit:10;" d="M 4.163249 3.913414 L 4.163249 3.086702 " transform="matrix(17.329545,0,0,17.364532,17.282467,17.189922)"/>
<path style="fill:none;stroke-width:0.0333333;stroke-linecap:butt;stroke-linejoin:miter;stroke:rgb(0%,0%,0%);stroke-opacity:1;stroke-miterlimit:10;" d="M 2.598004 1.009687 L 2.598004 0.15328 " transform="matrix(17.329545,0,0,17.364532,17.282467,17.189922)"/>
<path style="fill:none;stroke-width:0.0333333;stroke-linecap:butt;stroke-linejoin:miter;stroke:rgb(0%,0%,0%);stroke-opacity:1;stroke-miterlimit:10;" d="M 3.455913 1.504814 L 4.164151 1.095845 " transform="matrix(17.329545,0,0,17.364532,17.282467,17.189922)"/>
</g>
</svg>
