<?xml version="1.0" encoding="UTF-8"?>
<svg xmlns="http://www.w3.org/2000/svg" xmlns:xlink="http://www.w3.org/1999/xlink" width="105.6pt" height="82.4pt" viewBox="0 0 105.6 82.4" version="1.1">
<g id="surface1837">
<path style=" stroke:none;fill-rule:nonzero;fill:rgb(0%,0%,0%);fill-opacity:1;" d="M 90.492188 47.683594 C 90.492188 47.980469 90.449219 48.25 90.363281 48.492188 C 90.277344 48.738281 90.152344 48.945312 89.984375 49.117188 C 89.828125 49.292969 89.628906 49.425781 89.390625 49.519531 C 89.160156 49.609375 88.898438 49.660156 88.605469 49.660156 C 88.285156 49.660156 88.011719 49.609375 87.773438 49.519531 C 87.539062 49.417969 87.347656 49.28125 87.1875 49.109375 C 87.03125 48.929688 86.910156 48.71875 86.832031 48.480469 C 86.75 48.238281 86.714844 47.972656 86.714844 47.683594 C 86.714844 47.386719 86.75 47.121094 86.832031 46.882812 C 86.917969 46.640625 87.039062 46.433594 87.199219 46.265625 C 87.363281 46.101562 87.5625 45.972656 87.792969 45.878906 C 88.03125 45.785156 88.300781 45.738281 88.605469 45.738281 C 88.90625 45.738281 89.175781 45.785156 89.414062 45.878906 C 89.652344 45.972656 89.847656 46.105469 90.007812 46.277344 C 90.164062 46.445312 90.28125 46.644531 90.363281 46.882812 C 90.449219 47.121094 90.492188 47.386719 90.492188 47.683594 Z M 89.964844 47.683594 C 89.964844 47.453125 89.933594 47.246094 89.878906 47.054688 C 89.820312 46.867188 89.730469 46.710938 89.617188 46.578125 C 89.503906 46.445312 89.359375 46.339844 89.1875 46.265625 C 89.019531 46.195312 88.824219 46.160156 88.605469 46.160156 C 88.378906 46.160156 88.183594 46.195312 88.011719 46.265625 C 87.835938 46.339844 87.691406 46.445312 87.578125 46.578125 C 87.46875 46.710938 87.386719 46.867188 87.328125 47.054688 C 87.269531 47.246094 87.242188 47.453125 87.242188 47.683594 C 87.242188 47.914062 87.269531 48.125 87.328125 48.320312 C 87.386719 48.507812 87.472656 48.671875 87.589844 48.804688 C 87.703125 48.941406 87.84375 49.050781 88.011719 49.128906 C 88.183594 49.203125 88.378906 49.238281 88.605469 49.238281 C 88.839844 49.238281 89.046875 49.203125 89.21875 49.128906 C 89.390625 49.050781 89.53125 48.941406 89.640625 48.804688 C 89.75 48.660156 89.828125 48.496094 89.878906 48.308594 C 89.933594 48.113281 89.964844 47.90625 89.964844 47.683594 Z M 89.964844 47.683594 "/>
<path style=" stroke:none;fill-rule:nonzero;fill:rgb(0%,0%,0%);fill-opacity:1;" d="M 85.679688 17.261719 C 85.679688 17.558594 85.636719 17.828125 85.550781 18.074219 C 85.464844 18.320312 85.335938 18.527344 85.171875 18.699219 C 85.011719 18.871094 84.816406 19.007812 84.578125 19.097656 C 84.347656 19.191406 84.085938 19.238281 83.789062 19.238281 C 83.472656 19.238281 83.195312 19.191406 82.957031 19.097656 C 82.726562 19 82.53125 18.863281 82.375 18.6875 C 82.214844 18.511719 82.097656 18.300781 82.019531 18.0625 C 81.9375 17.820312 81.902344 17.550781 81.902344 17.261719 C 81.902344 16.96875 81.9375 16.703125 82.019531 16.464844 C 82.105469 16.21875 82.226562 16.015625 82.386719 15.847656 C 82.550781 15.683594 82.75 15.554688 82.980469 15.460938 C 83.21875 15.367188 83.488281 15.320312 83.789062 15.320312 C 84.09375 15.320312 84.363281 15.367188 84.601562 15.460938 C 84.835938 15.554688 85.035156 15.6875 85.195312 15.859375 C 85.351562 16.027344 85.46875 16.226562 85.550781 16.464844 C 85.636719 16.703125 85.679688 16.96875 85.679688 17.261719 Z M 85.152344 17.261719 C 85.152344 17.035156 85.121094 16.824219 85.066406 16.636719 C 85.003906 16.449219 84.917969 16.289062 84.804688 16.160156 C 84.6875 16.027344 84.546875 15.921875 84.375 15.847656 C 84.207031 15.777344 84.011719 15.738281 83.789062 15.738281 C 83.566406 15.738281 83.371094 15.777344 83.195312 15.847656 C 83.023438 15.921875 82.878906 16.027344 82.765625 16.160156 C 82.65625 16.289062 82.574219 16.449219 82.515625 16.636719 C 82.457031 16.824219 82.429688 17.035156 82.429688 17.261719 C 82.429688 17.496094 82.457031 17.707031 82.515625 17.898438 C 82.574219 18.089844 82.660156 18.25 82.773438 18.386719 C 82.890625 18.523438 83.027344 18.632812 83.195312 18.710938 C 83.371094 18.785156 83.566406 18.816406 83.789062 18.816406 C 84.027344 18.816406 84.234375 18.785156 84.40625 18.710938 C 84.578125 18.632812 84.71875 18.523438 84.828125 18.386719 C 84.933594 18.242188 85.011719 18.078125 85.066406 17.890625 C 85.121094 17.695312 85.152344 17.488281 85.152344 17.261719 Z M 85.152344 17.261719 "/>
<path style=" stroke:none;fill-rule:nonzero;fill:rgb(0%,0%,0%);fill-opacity:1;" d="M 16.617188 63.507812 C 16.402344 63.507812 16.210938 63.546875 16.046875 63.617188 C 15.878906 63.6875 15.738281 63.792969 15.625 63.929688 C 15.515625 64.058594 15.433594 64.21875 15.378906 64.40625 C 15.316406 64.59375 15.289062 64.800781 15.289062 65.03125 C 15.289062 65.261719 15.316406 65.472656 15.378906 65.667969 C 15.441406 65.859375 15.53125 66.019531 15.648438 66.15625 C 15.761719 66.292969 15.902344 66.398438 16.066406 66.480469 C 16.242188 66.550781 16.429688 66.585938 16.640625 66.585938 C 16.792969 66.585938 16.925781 66.570312 17.039062 66.53125 C 17.160156 66.488281 17.273438 66.433594 17.375 66.359375 C 17.472656 66.289062 17.5625 66.207031 17.632812 66.109375 C 17.710938 66.019531 17.78125 65.910156 17.839844 65.789062 L 18.261719 66.003906 C 18.195312 66.148438 18.113281 66.28125 18.011719 66.402344 C 17.910156 66.527344 17.789062 66.636719 17.65625 66.726562 C 17.519531 66.8125 17.363281 66.882812 17.191406 66.933594 C 17.019531 66.980469 16.828125 67.007812 16.617188 67.007812 C 16.308594 67.007812 16.039062 66.960938 15.808594 66.867188 C 15.578125 66.765625 15.382812 66.628906 15.226562 66.457031 C 15.074219 66.277344 14.957031 66.066406 14.878906 65.832031 C 14.800781 65.585938 14.761719 65.320312 14.761719 65.03125 C 14.761719 64.738281 14.800781 64.46875 14.878906 64.230469 C 14.964844 63.988281 15.089844 63.785156 15.246094 63.617188 C 15.402344 63.453125 15.597656 63.320312 15.832031 63.226562 C 16.058594 63.136719 16.320312 63.085938 16.617188 63.085938 C 17.019531 63.085938 17.355469 63.167969 17.621094 63.324219 C 17.894531 63.484375 18.097656 63.722656 18.226562 64.039062 L 17.742188 64.199219 C 17.703125 64.109375 17.65625 64.019531 17.589844 63.941406 C 17.53125 63.855469 17.457031 63.785156 17.363281 63.722656 C 17.269531 63.660156 17.160156 63.609375 17.039062 63.574219 C 16.914062 63.53125 16.773438 63.507812 16.617188 63.507812 Z M 16.617188 63.507812 "/>
<path style=" stroke:none;fill-rule:nonzero;fill:rgb(0%,0%,0%);fill-opacity:1;" d="M 19.015625 66.953125 L 19.015625 62.945312 L 19.5 62.945312 L 19.5 66.953125 Z M 19.015625 66.953125 "/>
<path style="fill:none;stroke-width:0.0333333;stroke-linecap:butt;stroke-linejoin:miter;stroke:rgb(0%,0%,0%);stroke-opacity:1;stroke-miterlimit:10;" d="M 1.740242 0.755185 L 0.85759 1.26466 " transform="matrix(17.277487,0,0,17.281879,17.132214,17.281017)"/>
<path style="fill:none;stroke-width:0.0333333;stroke-linecap:butt;stroke-linejoin:miter;stroke:rgb(0%,0%,0%);stroke-opacity:1;stroke-miterlimit:10;" d="M 0.865956 1.25042 L 0.865956 2.260103 " transform="matrix(17.277487,0,0,17.281879,17.132214,17.281017)"/>
<path style="fill:none;stroke-width:0.0333333;stroke-linecap:butt;stroke-linejoin:miter;stroke:rgb(0%,0%,0%);stroke-opacity:1;stroke-miterlimit:10;" d="M 1.032583 1.346709 L 1.032583 2.163814 " transform="matrix(17.277487,0,0,17.281879,17.132214,17.281017)"/>
<path style="fill:none;stroke-width:0.0333333;stroke-linecap:butt;stroke-linejoin:miter;stroke:rgb(0%,0%,0%);stroke-opacity:1;stroke-miterlimit:10;" d="M 0.85759 2.255356 L 1.740242 2.764831 " transform="matrix(17.277487,0,0,17.281879,17.132214,17.281017)"/>
<path style="fill:none;stroke-width:0.0333333;stroke-linecap:butt;stroke-linejoin:miter;stroke:rgb(0%,0%,0%);stroke-opacity:1;stroke-miterlimit:10;" d="M 1.723737 2.764831 L 2.598023 2.260103 " transform="matrix(17.277487,0,0,17.281879,17.132214,17.281017)"/>
<path style="fill:none;stroke-width:0.0333333;stroke-linecap:butt;stroke-linejoin:miter;stroke:rgb(0%,0%,0%);stroke-opacity:1;stroke-miterlimit:10;" d="M 1.723737 2.572479 L 2.431396 2.163814 " transform="matrix(17.277487,0,0,17.281879,17.132214,17.281017)"/>
<path style="fill:none;stroke-width:0.0333333;stroke-linecap:butt;stroke-linejoin:miter;stroke:rgb(0%,0%,0%);stroke-opacity:1;stroke-miterlimit:10;" d="M 1.723737 0.755185 L 2.598023 1.260139 " transform="matrix(17.277487,0,0,17.281879,17.132214,17.281017)"/>
<path style="fill:none;stroke-width:0.0333333;stroke-linecap:butt;stroke-linejoin:miter;stroke:rgb(0%,0%,0%);stroke-opacity:1;stroke-miterlimit:10;" d="M 1.723737 0.947764 L 2.431396 1.356203 " transform="matrix(17.277487,0,0,17.281879,17.132214,17.281017)"/>
<path style="fill:none;stroke-width:0.0333333;stroke-linecap:butt;stroke-linejoin:miter;stroke:rgb(0%,0%,0%);stroke-opacity:1;stroke-miterlimit:10;" d="M 2.586493 2.25626 L 3.560484 2.572931 " transform="matrix(17.277487,0,0,17.281879,17.132214,17.281017)"/>
<path style="fill:none;stroke-width:0.0333333;stroke-linecap:butt;stroke-linejoin:miter;stroke:rgb(0%,0%,0%);stroke-opacity:1;stroke-miterlimit:10;" d="M 2.598023 1.247934 L 2.598023 2.272309 " transform="matrix(17.277487,0,0,17.281879,17.132214,17.281017)"/>
<path style="fill:none;stroke-width:0.0333333;stroke-linecap:butt;stroke-linejoin:miter;stroke:rgb(0%,0%,0%);stroke-opacity:1;stroke-miterlimit:10;" d="M 2.586493 1.263756 L 3.560484 0.947312 " transform="matrix(17.277487,0,0,17.281879,17.132214,17.281017)"/>
<path style="fill:none;stroke-width:0.0333333;stroke-linecap:butt;stroke-linejoin:miter;stroke:rgb(0%,0%,0%);stroke-opacity:1;stroke-miterlimit:10;" d="M 3.541945 2.578807 L 4.009497 1.935296 " transform="matrix(17.277487,0,0,17.281879,17.132214,17.281017)"/>
<path style="fill:none;stroke-width:0.0333333;stroke-linecap:butt;stroke-linejoin:miter;stroke:rgb(0%,0%,0%);stroke-opacity:1;stroke-miterlimit:10;" d="M 4.009497 1.584947 L 3.541945 0.941209 " transform="matrix(17.277487,0,0,17.281879,17.132214,17.281017)"/>
<path style="fill:none;stroke-width:0.0333333;stroke-linecap:butt;stroke-linejoin:miter;stroke:rgb(0%,0%,0%);stroke-opacity:1;stroke-miterlimit:10;" d="M 3.609546 1.034334 L 3.876783 0.212483 " transform="matrix(17.277487,0,0,17.281879,17.132214,17.281017)"/>
<path style="fill:none;stroke-width:0.0333333;stroke-linecap:butt;stroke-linejoin:miter;stroke:rgb(0%,0%,0%);stroke-opacity:1;stroke-miterlimit:10;" d="M 3.451057 0.982799 L 3.718295 0.160948 " transform="matrix(17.277487,0,0,17.281879,17.132214,17.281017)"/>
<path style="fill:none;stroke-width:0.0333333;stroke-linecap:butt;stroke-linejoin:miter;stroke:rgb(0%,0%,0%);stroke-opacity:1;stroke-miterlimit:10;" d="M 0.874095 2.255356 L 0.204871 2.641644 " transform="matrix(17.277487,0,0,17.281879,17.132214,17.281017)"/>
</g>
</svg>
