<?xml version="1.0" encoding="UTF-8"?>
<svg xmlns="http://www.w3.org/2000/svg" xmlns:xlink="http://www.w3.org/1999/xlink" width="156pt" height="120pt" viewBox="0 0 156 120" version="1.1">
<g id="surface1197">
<path style=" stroke:none;fill-rule:nonzero;fill:rgb(0%,0%,0%);fill-opacity:1;" d="M 46.636719 24.105469 C 46.421875 24.105469 46.230469 24.144531 46.0625 24.214844 C 45.894531 24.289062 45.753906 24.394531 45.640625 24.527344 C 45.53125 24.65625 45.449219 24.816406 45.390625 25.003906 C 45.332031 25.191406 45.304688 25.402344 45.304688 25.628906 C 45.304688 25.863281 45.332031 26.074219 45.390625 26.265625 C 45.457031 26.457031 45.546875 26.617188 45.664062 26.753906 C 45.777344 26.890625 45.917969 27 46.085938 27.078125 C 46.257812 27.148438 46.449219 27.183594 46.660156 27.183594 C 46.8125 27.183594 46.945312 27.167969 47.0625 27.132812 C 47.183594 27.089844 47.292969 27.03125 47.398438 26.957031 C 47.496094 26.886719 47.585938 26.804688 47.65625 26.710938 C 47.734375 26.617188 47.804688 26.511719 47.863281 26.386719 L 48.285156 26.601562 C 48.222656 26.746094 48.136719 26.878906 48.035156 27 C 47.933594 27.125 47.816406 27.234375 47.679688 27.324219 C 47.539062 27.414062 47.386719 27.480469 47.214844 27.53125 C 47.039062 27.578125 46.847656 27.605469 46.636719 27.605469 C 46.328125 27.605469 46.054688 27.558594 45.824219 27.464844 C 45.59375 27.367188 45.398438 27.230469 45.238281 27.054688 C 45.085938 26.878906 44.972656 26.667969 44.894531 26.429688 C 44.8125 26.1875 44.773438 25.917969 44.773438 25.628906 C 44.773438 25.335938 44.8125 25.070312 44.894531 24.832031 C 44.980469 24.585938 45.101562 24.382812 45.261719 24.214844 C 45.417969 24.050781 45.613281 23.921875 45.847656 23.828125 C 46.078125 23.734375 46.339844 23.6875 46.636719 23.6875 C 47.042969 23.6875 47.378906 23.765625 47.648438 23.921875 C 47.921875 24.082031 48.125 24.320312 48.253906 24.636719 L 47.765625 24.796875 C 47.726562 24.707031 47.679688 24.621094 47.613281 24.539062 C 47.554688 24.453125 47.480469 24.382812 47.386719 24.324219 C 47.292969 24.257812 47.183594 24.210938 47.0625 24.171875 C 46.9375 24.128906 46.796875 24.105469 46.636719 24.105469 Z M 46.636719 24.105469 "/>
<path style=" stroke:none;fill-rule:nonzero;fill:rgb(0%,0%,0%);fill-opacity:1;" d="M 49.042969 27.550781 L 49.042969 23.546875 L 49.53125 23.546875 L 49.53125 27.550781 Z M 49.042969 27.550781 "/>
<path style=" stroke:none;fill-rule:nonzero;fill:rgb(0%,0%,0%);fill-opacity:1;" d="M 76.6875 24.105469 C 76.46875 24.105469 76.277344 24.144531 76.113281 24.214844 C 75.945312 24.289062 75.804688 24.394531 75.6875 24.527344 C 75.582031 24.65625 75.496094 24.816406 75.441406 25.003906 C 75.378906 25.191406 75.351562 25.402344 75.351562 25.628906 C 75.351562 25.863281 75.378906 26.074219 75.441406 26.265625 C 75.503906 26.457031 75.59375 26.617188 75.710938 26.753906 C 75.824219 26.890625 75.964844 27 76.132812 27.078125 C 76.308594 27.148438 76.496094 27.183594 76.707031 27.183594 C 76.859375 27.183594 76.992188 27.167969 77.109375 27.132812 C 77.230469 27.089844 77.34375 27.03125 77.445312 26.957031 C 77.546875 26.886719 77.632812 26.804688 77.707031 26.710938 C 77.785156 26.617188 77.851562 26.511719 77.914062 26.386719 L 78.335938 26.601562 C 78.269531 26.746094 78.1875 26.878906 78.085938 27 C 77.984375 27.125 77.863281 27.234375 77.726562 27.324219 C 77.589844 27.414062 77.433594 27.480469 77.261719 27.53125 C 77.089844 27.578125 76.894531 27.605469 76.6875 27.605469 C 76.375 27.605469 76.105469 27.558594 75.875 27.464844 C 75.640625 27.367188 75.445312 27.230469 75.289062 27.054688 C 75.136719 26.878906 75.019531 26.667969 74.941406 26.429688 C 74.859375 26.1875 74.820312 25.917969 74.820312 25.628906 C 74.820312 25.335938 74.859375 25.070312 74.941406 24.832031 C 75.027344 24.585938 75.148438 24.382812 75.308594 24.214844 C 75.46875 24.050781 75.664062 23.921875 75.894531 23.828125 C 76.125 23.734375 76.390625 23.6875 76.6875 23.6875 C 77.089844 23.6875 77.425781 23.765625 77.695312 23.921875 C 77.96875 24.082031 78.171875 24.320312 78.300781 24.636719 L 77.816406 24.796875 C 77.777344 24.707031 77.726562 24.621094 77.664062 24.539062 C 77.601562 24.453125 77.527344 24.382812 77.433594 24.324219 C 77.339844 24.257812 77.230469 24.210938 77.109375 24.171875 C 76.984375 24.128906 76.84375 24.105469 76.6875 24.105469 Z M 76.6875 24.105469 "/>
<path style=" stroke:none;fill-rule:nonzero;fill:rgb(0%,0%,0%);fill-opacity:1;" d="M 79.09375 27.550781 L 79.09375 23.546875 L 79.582031 23.546875 L 79.582031 27.550781 Z M 79.09375 27.550781 "/>
<path style=" stroke:none;fill-rule:nonzero;fill:rgb(0%,0%,0%);fill-opacity:1;" d="M 61.664062 15.464844 C 61.445312 15.464844 61.253906 15.503906 61.089844 15.574219 C 60.921875 15.648438 60.78125 15.753906 60.667969 15.886719 C 60.558594 16.015625 60.472656 16.175781 60.417969 16.363281 C 60.355469 16.550781 60.332031 16.761719 60.332031 16.988281 C 60.332031 17.222656 60.355469 17.433594 60.417969 17.625 C 60.480469 17.816406 60.570312 17.976562 60.6875 18.113281 C 60.800781 18.25 60.941406 18.359375 61.109375 18.4375 C 61.285156 18.507812 61.472656 18.542969 61.6875 18.542969 C 61.835938 18.542969 61.96875 18.527344 62.085938 18.492188 C 62.207031 18.449219 62.320312 18.390625 62.421875 18.316406 C 62.523438 18.246094 62.609375 18.164062 62.683594 18.070312 C 62.761719 17.976562 62.828125 17.871094 62.890625 17.746094 L 63.3125 17.960938 C 63.246094 18.105469 63.164062 18.238281 63.0625 18.359375 C 62.960938 18.484375 62.839844 18.59375 62.703125 18.683594 C 62.566406 18.773438 62.414062 18.84375 62.238281 18.890625 C 62.066406 18.9375 61.871094 18.964844 61.664062 18.964844 C 61.351562 18.964844 61.082031 18.917969 60.851562 18.824219 C 60.617188 18.726562 60.421875 18.589844 60.265625 18.414062 C 60.113281 18.238281 59.996094 18.027344 59.917969 17.789062 C 59.835938 17.546875 59.800781 17.277344 59.800781 16.988281 C 59.800781 16.695312 59.835938 16.429688 59.917969 16.191406 C 60.003906 15.945312 60.128906 15.742188 60.285156 15.574219 C 60.445312 15.410156 60.640625 15.28125 60.871094 15.1875 C 61.101562 15.09375 61.367188 15.046875 61.664062 15.046875 C 62.066406 15.046875 62.402344 15.125 62.671875 15.28125 C 62.945312 15.441406 63.148438 15.679688 63.28125 15.996094 L 62.792969 16.15625 C 62.753906 16.066406 62.703125 15.980469 62.640625 15.898438 C 62.582031 15.8125 62.503906 15.742188 62.414062 15.683594 C 62.316406 15.617188 62.207031 15.570312 62.085938 15.53125 C 61.960938 15.488281 61.820312 15.464844 61.664062 15.464844 Z M 61.664062 15.464844 "/>
<path style=" stroke:none;fill-rule:nonzero;fill:rgb(0%,0%,0%);fill-opacity:1;" d="M 64.070312 18.910156 L 64.070312 14.90625 L 64.558594 14.90625 L 64.558594 18.910156 Z M 64.070312 18.910156 "/>
<path style=" stroke:none;fill-rule:nonzero;fill:rgb(0%,0%,0%);fill-opacity:1;" d="M 121.441406 101.859375 L 121.441406 103.273438 L 123.566406 103.273438 L 123.566406 103.695312 L 121.441406 103.695312 L 121.441406 105.238281 L 120.921875 105.238281 L 120.921875 101.4375 L 123.632812 101.4375 L 123.632812 101.859375 Z M 121.441406 101.859375 "/>
<path style=" stroke:none;fill-rule:nonzero;fill:rgb(0%,0%,0%);fill-opacity:1;" d="M 138.199219 80.105469 L 138.199219 81.519531 L 140.324219 81.519531 L 140.324219 81.941406 L 138.199219 81.941406 L 138.199219 83.488281 L 137.679688 83.488281 L 137.679688 79.683594 L 140.390625 79.683594 L 140.390625 80.105469 Z M 138.199219 80.105469 "/>
<path style=" stroke:none;fill-rule:nonzero;fill:rgb(0%,0%,0%);fill-opacity:1;" d="M 136.46875 93.21875 L 136.46875 94.632812 L 138.59375 94.632812 L 138.59375 95.054688 L 136.46875 95.054688 L 136.46875 96.597656 L 135.945312 96.597656 L 135.945312 92.796875 L 138.65625 92.796875 L 138.65625 93.21875 Z M 136.46875 93.21875 "/>
<path style="fill:none;stroke-width:0.0333333;stroke-linecap:butt;stroke-linejoin:miter;stroke:rgb(0%,0%,0%);stroke-opacity:1;stroke-miterlimit:10;" d="M 0.874387 1.995111 L -0.00846677 2.504835 " transform="matrix(17.348754,0,0,17.281106,17.103919,16.936333)"/>
<path style="fill:none;stroke-width:0.0333333;stroke-linecap:butt;stroke-linejoin:miter;stroke:rgb(0%,0%,0%);stroke-opacity:1;stroke-miterlimit:10;" d="M 0.874387 2.187699 L 0.158377 2.601129 " transform="matrix(17.348754,0,0,17.281106,17.103919,16.936333)"/>
<path style="fill:none;stroke-width:0.0333333;stroke-linecap:butt;stroke-linejoin:miter;stroke:rgb(0%,0%,0%);stroke-opacity:1;stroke-miterlimit:10;" d="M 0.857725 1.995111 L 1.740353 2.504835 " transform="matrix(17.348754,0,0,17.281106,17.103919,16.936333)"/>
<path style="fill:none;stroke-width:0.0333333;stroke-linecap:butt;stroke-linejoin:miter;stroke:rgb(0%,0%,0%);stroke-opacity:1;stroke-miterlimit:10;" d="M 0.0000893228 2.490369 L 0.0000893228 3.50959 " transform="matrix(17.348754,0,0,17.281106,17.103919,16.936333)"/>
<path style="fill:none;stroke-width:0.0333333;stroke-linecap:butt;stroke-linejoin:miter;stroke:rgb(0%,0%,0%);stroke-opacity:1;stroke-miterlimit:10;" d="M -0.00846677 3.495124 L 0.874387 4.004848 " transform="matrix(17.348754,0,0,17.281106,17.103919,16.936333)"/>
<path style="fill:none;stroke-width:0.0333333;stroke-linecap:butt;stroke-linejoin:miter;stroke:rgb(0%,0%,0%);stroke-opacity:1;stroke-miterlimit:10;" d="M 0.158377 3.39883 L 0.874387 3.81226 " transform="matrix(17.348754,0,0,17.281106,17.103919,16.936333)"/>
<path style="fill:none;stroke-width:0.0333333;stroke-linecap:butt;stroke-linejoin:miter;stroke:rgb(0%,0%,0%);stroke-opacity:1;stroke-miterlimit:10;" d="M 0.857725 4.004848 L 1.740353 3.495124 " transform="matrix(17.348754,0,0,17.281106,17.103919,16.936333)"/>
<path style="fill:none;stroke-width:0.0333333;stroke-linecap:butt;stroke-linejoin:miter;stroke:rgb(0%,0%,0%);stroke-opacity:1;stroke-miterlimit:10;" d="M 1.732022 3.50959 L 1.732022 2.499862 " transform="matrix(17.348754,0,0,17.281106,17.103919,16.936333)"/>
<path style="fill:none;stroke-width:0.0333333;stroke-linecap:butt;stroke-linejoin:miter;stroke:rgb(0%,0%,0%);stroke-opacity:1;stroke-miterlimit:10;" d="M 1.565403 3.413297 L 1.565403 2.596156 " transform="matrix(17.348754,0,0,17.281106,17.103919,16.936333)"/>
<path style="fill:none;stroke-width:0.0333333;stroke-linecap:butt;stroke-linejoin:miter;stroke:rgb(0%,0%,0%);stroke-opacity:1;stroke-miterlimit:10;" d="M 1.723691 2.504835 L 2.598214 1.999858 " transform="matrix(17.348754,0,0,17.281106,17.103919,16.936333)"/>
<path style="fill:none;stroke-width:0.0333333;stroke-linecap:butt;stroke-linejoin:miter;stroke:rgb(0%,0%,0%);stroke-opacity:1;stroke-miterlimit:10;" d="M 4.338477 1.995111 L 3.46418 2.499862 " transform="matrix(17.348754,0,0,17.281106,17.103919,16.936333)"/>
<path style="fill:none;stroke-width:0.0333333;stroke-linecap:butt;stroke-linejoin:miter;stroke:rgb(0%,0%,0%);stroke-opacity:1;stroke-miterlimit:10;" d="M 4.338477 2.187699 L 3.630798 2.596156 " transform="matrix(17.348754,0,0,17.281106,17.103919,16.936333)"/>
<path style="fill:none;stroke-width:0.0333333;stroke-linecap:butt;stroke-linejoin:miter;stroke:rgb(0%,0%,0%);stroke-opacity:1;stroke-miterlimit:10;" d="M 3.46418 2.490369 L 3.46418 3.50959 " transform="matrix(17.348754,0,0,17.281106,17.103919,16.936333)"/>
<path style="fill:none;stroke-width:0.0333333;stroke-linecap:butt;stroke-linejoin:miter;stroke:rgb(0%,0%,0%);stroke-opacity:1;stroke-miterlimit:10;" d="M 4.321815 1.995111 L 5.204669 2.504835 " transform="matrix(17.348754,0,0,17.281106,17.103919,16.936333)"/>
<path style="fill:none;stroke-width:0.0333333;stroke-linecap:butt;stroke-linejoin:miter;stroke:rgb(0%,0%,0%);stroke-opacity:1;stroke-miterlimit:10;" d="M 3.455849 3.495124 L 4.338477 4.004848 " transform="matrix(17.348754,0,0,17.281106,17.103919,16.936333)"/>
<path style="fill:none;stroke-width:0.0333333;stroke-linecap:butt;stroke-linejoin:miter;stroke:rgb(0%,0%,0%);stroke-opacity:1;stroke-miterlimit:10;" d="M 3.622468 3.39883 L 4.338477 3.81226 " transform="matrix(17.348754,0,0,17.281106,17.103919,16.936333)"/>
<path style="fill:none;stroke-width:0.0333333;stroke-linecap:butt;stroke-linejoin:miter;stroke:rgb(0%,0%,0%);stroke-opacity:1;stroke-miterlimit:10;" d="M 4.321815 4.004848 L 5.204669 3.495124 " transform="matrix(17.348754,0,0,17.281106,17.103919,16.936333)"/>
<path style="fill:none;stroke-width:0.0333333;stroke-linecap:butt;stroke-linejoin:miter;stroke:rgb(0%,0%,0%);stroke-opacity:1;stroke-miterlimit:10;" d="M 5.196338 3.499871 L 5.196338 2.490369 " transform="matrix(17.348754,0,0,17.281106,17.103919,16.936333)"/>
<path style="fill:none;stroke-width:0.0333333;stroke-linecap:butt;stroke-linejoin:miter;stroke:rgb(0%,0%,0%);stroke-opacity:1;stroke-miterlimit:10;" d="M 5.029494 3.403803 L 5.029494 2.586436 " transform="matrix(17.348754,0,0,17.281106,17.103919,16.936333)"/>
<path style="fill:none;stroke-width:0.0333333;stroke-linecap:butt;stroke-linejoin:miter;stroke:rgb(0%,0%,0%);stroke-opacity:1;stroke-miterlimit:10;" d="M 2.598214 1.999858 L 3.472511 2.504835 " transform="matrix(17.348754,0,0,17.281106,17.103919,16.936333)"/>
<path style="fill:none;stroke-width:0.0333333;stroke-linecap:butt;stroke-linejoin:miter;stroke:rgb(0%,0%,0%);stroke-opacity:1;stroke-miterlimit:10;" d="M 2.598214 1.999858 L 2.598214 0.99985 " transform="matrix(17.348754,0,0,17.281106,17.103919,16.936333)"/>
<path style="fill:none;stroke-width:0.0333333;stroke-linecap:butt;stroke-linejoin:miter;stroke:rgb(0%,0%,0%);stroke-opacity:1;stroke-miterlimit:10;" d="M 5.187782 3.495124 L 6.062304 3.999875 " transform="matrix(17.348754,0,0,17.281106,17.103919,16.936333)"/>
<path style="fill:none;stroke-width:0.0333333;stroke-linecap:butt;stroke-linejoin:miter;stroke:rgb(0%,0%,0%);stroke-opacity:1;stroke-miterlimit:10;" d="M 2.598214 0.99985 L 1.937143 0.618292 " transform="matrix(17.348754,0,0,17.281106,17.103919,16.936333)"/>
<path style="fill:none;stroke-width:0.0333333;stroke-linecap:butt;stroke-linejoin:miter;stroke:rgb(0%,0%,0%);stroke-opacity:1;stroke-miterlimit:10;" d="M 2.598214 0.99985 L 3.259059 0.618292 " transform="matrix(17.348754,0,0,17.281106,17.103919,16.936333)"/>
<path style="fill:none;stroke-width:0.0333333;stroke-linecap:butt;stroke-linejoin:miter;stroke:rgb(0%,0%,0%);stroke-opacity:1;stroke-miterlimit:10;" d="M 2.598214 0.99985 L 2.598214 0.160783 " transform="matrix(17.348754,0,0,17.281106,17.103919,16.936333)"/>
<path style="fill:none;stroke-width:0.0333333;stroke-linecap:butt;stroke-linejoin:miter;stroke:rgb(0%,0%,0%);stroke-opacity:1;stroke-miterlimit:10;" d="M 6.062304 3.999875 L 6.062304 4.846401 " transform="matrix(17.348754,0,0,17.281106,17.103919,16.936333)"/>
<path style="fill:none;stroke-width:0.0333333;stroke-linecap:butt;stroke-linejoin:miter;stroke:rgb(0%,0%,0%);stroke-opacity:1;stroke-miterlimit:10;" d="M 6.062304 3.999875 L 6.880762 3.780614 " transform="matrix(17.348754,0,0,17.281106,17.103919,16.936333)"/>
<path style="fill:none;stroke-width:0.0333333;stroke-linecap:butt;stroke-linejoin:miter;stroke:rgb(0%,0%,0%);stroke-opacity:1;stroke-miterlimit:10;" d="M 6.062304 3.999875 L 6.770883 4.40901 " transform="matrix(17.348754,0,0,17.281106,17.103919,16.936333)"/>
</g>
</svg>
