<?xml version="1.0" encoding="UTF-8"?>
<svg xmlns="http://www.w3.org/2000/svg" xmlns:xlink="http://www.w3.org/1999/xlink" width="66.4pt" height="76.8pt" viewBox="0 0 66.4 76.8" version="1.1">
<g id="surface987">
<path style=" stroke:none;fill-rule:nonzero;fill:rgb(0%,0%,0%);fill-opacity:1;" d="M 36.792969 9.433594 C 36.578125 9.433594 36.386719 9.472656 36.21875 9.542969 C 36.054688 9.613281 35.914062 9.71875 35.800781 9.855469 C 35.691406 9.984375 35.605469 10.144531 35.550781 10.328125 C 35.492188 10.519531 35.464844 10.726562 35.464844 10.957031 C 35.464844 11.1875 35.492188 11.398438 35.550781 11.59375 C 35.617188 11.78125 35.703125 11.941406 35.820312 12.078125 C 35.933594 12.214844 36.074219 12.324219 36.242188 12.402344 C 36.414062 12.476562 36.605469 12.511719 36.816406 12.511719 C 36.964844 12.511719 37.097656 12.492188 37.214844 12.457031 C 37.335938 12.414062 37.445312 12.355469 37.550781 12.285156 C 37.648438 12.214844 37.738281 12.128906 37.808594 12.035156 C 37.886719 11.941406 37.957031 11.835938 38.015625 11.710938 L 38.4375 11.925781 C 38.371094 12.074219 38.289062 12.203125 38.1875 12.328125 C 38.085938 12.449219 37.964844 12.558594 37.832031 12.648438 C 37.691406 12.738281 37.539062 12.808594 37.367188 12.855469 C 37.191406 12.902344 37 12.929688 36.792969 12.929688 C 36.484375 12.929688 36.210938 12.882812 35.984375 12.789062 C 35.75 12.691406 35.554688 12.554688 35.398438 12.378906 C 35.246094 12.203125 35.132812 11.992188 35.054688 11.753906 C 34.972656 11.511719 34.933594 11.246094 34.933594 10.957031 C 34.933594 10.660156 34.972656 10.394531 35.054688 10.15625 C 35.140625 9.914062 35.261719 9.710938 35.421875 9.542969 C 35.578125 9.378906 35.773438 9.25 36.003906 9.152344 C 36.234375 9.0625 36.496094 9.011719 36.792969 9.011719 C 37.195312 9.011719 37.53125 9.09375 37.796875 9.25 C 38.070312 9.410156 38.273438 9.648438 38.402344 9.964844 L 37.917969 10.125 C 37.878906 10.035156 37.832031 9.945312 37.765625 9.867188 C 37.707031 9.78125 37.632812 9.710938 37.539062 9.648438 C 37.445312 9.585938 37.335938 9.535156 37.214844 9.5 C 37.089844 9.457031 36.949219 9.433594 36.792969 9.433594 Z M 36.792969 9.433594 "/>
<path style=" stroke:none;fill-rule:nonzero;fill:rgb(0%,0%,0%);fill-opacity:1;" d="M 39.667969 10.460938 C 39.722656 10.359375 39.78125 10.277344 39.839844 10.210938 C 39.90625 10.140625 39.972656 10.082031 40.046875 10.039062 C 40.125 9.988281 40.207031 9.953125 40.292969 9.929688 C 40.386719 9.910156 40.492188 9.898438 40.609375 9.898438 C 40.792969 9.898438 40.945312 9.925781 41.0625 9.972656 C 41.183594 10.023438 41.277344 10.097656 41.34375 10.191406 C 41.414062 10.285156 41.464844 10.394531 41.492188 10.523438 C 41.519531 10.648438 41.535156 10.785156 41.535156 10.933594 L 41.535156 12.875 L 41.039062 12.875 L 41.039062 11.019531 C 41.039062 10.898438 41.03125 10.792969 41.019531 10.695312 C 41.003906 10.605469 40.976562 10.53125 40.933594 10.46875 C 40.886719 10.40625 40.828125 10.359375 40.746094 10.328125 C 40.667969 10.296875 40.566406 10.277344 40.445312 10.277344 C 40.328125 10.277344 40.222656 10.296875 40.132812 10.339844 C 40.039062 10.382812 39.960938 10.445312 39.894531 10.523438 C 39.828125 10.597656 39.777344 10.6875 39.742188 10.792969 C 39.707031 10.902344 39.6875 11.019531 39.6875 11.148438 L 39.6875 12.875 L 39.203125 12.875 L 39.203125 8.875 L 39.6875 8.875 L 39.6875 9.910156 C 39.6875 9.972656 39.683594 10.035156 39.679688 10.09375 C 39.679688 10.152344 39.671875 10.207031 39.667969 10.253906 C 39.667969 10.304688 39.667969 10.347656 39.667969 10.382812 C 39.667969 10.421875 39.667969 10.445312 39.667969 10.460938 Z M 39.667969 10.460938 "/>
<path style=" stroke:none;fill-rule:nonzero;fill:rgb(0%,0%,0%);fill-opacity:1;" d="M 42.382812 9.335938 L 42.382812 8.875 L 42.871094 8.875 L 42.871094 9.335938 Z M 42.382812 12.875 L 42.382812 9.953125 L 42.871094 9.953125 L 42.871094 12.875 Z M 42.382812 12.875 "/>
<path style=" stroke:none;fill-rule:nonzero;fill:rgb(0%,0%,0%);fill-opacity:1;" d="M 43.6875 12.875 L 43.6875 10.632812 C 43.6875 10.574219 43.679688 10.511719 43.675781 10.449219 C 43.675781 10.382812 43.675781 10.324219 43.675781 10.265625 C 43.675781 10.207031 43.667969 10.15625 43.664062 10.101562 C 43.664062 10.046875 43.664062 9.996094 43.664062 9.953125 L 44.128906 9.953125 C 44.128906 9.996094 44.128906 10.046875 44.128906 10.101562 C 44.132812 10.15625 44.140625 10.207031 44.140625 10.265625 C 44.140625 10.316406 44.140625 10.371094 44.140625 10.425781 C 44.144531 10.476562 44.152344 10.523438 44.152344 10.558594 L 44.160156 10.558594 C 44.1875 10.441406 44.222656 10.347656 44.257812 10.265625 C 44.300781 10.179688 44.347656 10.113281 44.398438 10.058594 C 44.457031 10.011719 44.519531 9.972656 44.59375 9.941406 C 44.664062 9.914062 44.75 9.898438 44.851562 9.898438 C 44.886719 9.898438 44.921875 9.902344 44.960938 9.910156 C 44.996094 9.917969 45.027344 9.925781 45.046875 9.929688 L 45.046875 10.375 C 45.019531 10.367188 44.984375 10.363281 44.941406 10.363281 C 44.894531 10.355469 44.84375 10.351562 44.789062 10.351562 C 44.679688 10.351562 44.585938 10.378906 44.507812 10.425781 C 44.425781 10.476562 44.363281 10.546875 44.3125 10.632812 C 44.261719 10.71875 44.226562 10.828125 44.203125 10.957031 C 44.183594 11.078125 44.171875 11.210938 44.171875 11.355469 L 44.171875 12.875 Z M 43.6875 12.875 "/>
<path style=" stroke:none;fill-rule:nonzero;fill:rgb(0%,0%,0%);fill-opacity:1;" d="M 46.339844 12.929688 C 46.042969 12.929688 45.820312 12.855469 45.667969 12.703125 C 45.523438 12.546875 45.453125 12.332031 45.453125 12.058594 C 45.453125 11.871094 45.488281 11.714844 45.5625 11.59375 C 45.632812 11.464844 45.726562 11.367188 45.84375 11.300781 C 45.964844 11.230469 46.101562 11.179688 46.253906 11.148438 C 46.402344 11.125 46.558594 11.105469 46.71875 11.105469 L 47.367188 11.097656 L 47.367188 10.933594 C 47.367188 10.8125 47.347656 10.714844 47.324219 10.632812 C 47.300781 10.546875 47.261719 10.476562 47.214844 10.425781 C 47.164062 10.371094 47.097656 10.328125 47.019531 10.308594 C 46.9375 10.285156 46.847656 10.277344 46.738281 10.277344 C 46.644531 10.277344 46.558594 10.285156 46.480469 10.296875 C 46.40625 10.304688 46.339844 10.328125 46.285156 10.363281 C 46.234375 10.398438 46.191406 10.449219 46.15625 10.511719 C 46.117188 10.574219 46.097656 10.648438 46.089844 10.738281 L 45.582031 10.6875 C 45.597656 10.574219 45.628906 10.46875 45.679688 10.375 C 45.726562 10.28125 45.800781 10.199219 45.894531 10.125 C 45.988281 10.054688 46.105469 10 46.242188 9.964844 C 46.386719 9.921875 46.554688 9.898438 46.75 9.898438 C 47.117188 9.898438 47.394531 9.984375 47.582031 10.15625 C 47.769531 10.324219 47.863281 10.566406 47.863281 10.878906 L 47.863281 12.144531 C 47.863281 12.289062 47.878906 12.398438 47.917969 12.464844 C 47.953125 12.539062 48.023438 12.574219 48.132812 12.574219 C 48.160156 12.574219 48.1875 12.574219 48.207031 12.574219 C 48.234375 12.570312 48.265625 12.5625 48.296875 12.554688 L 48.296875 12.855469 C 48.230469 12.875 48.167969 12.890625 48.113281 12.898438 C 48.050781 12.902344 47.988281 12.910156 47.917969 12.910156 C 47.824219 12.910156 47.742188 12.898438 47.679688 12.875 C 47.613281 12.851562 47.558594 12.808594 47.515625 12.757812 C 47.480469 12.710938 47.453125 12.648438 47.429688 12.574219 C 47.410156 12.503906 47.394531 12.417969 47.386719 12.316406 L 47.367188 12.316406 C 47.3125 12.410156 47.257812 12.496094 47.191406 12.574219 C 47.132812 12.648438 47.0625 12.710938 46.976562 12.769531 C 46.894531 12.820312 46.804688 12.859375 46.695312 12.886719 C 46.59375 12.914062 46.472656 12.929688 46.339844 12.929688 Z M 46.445312 12.5625 C 46.597656 12.5625 46.730469 12.535156 46.847656 12.476562 C 46.96875 12.421875 47.066406 12.347656 47.140625 12.261719 C 47.21875 12.175781 47.273438 12.082031 47.3125 11.980469 C 47.347656 11.875 47.367188 11.773438 47.367188 11.679688 L 47.367188 11.429688 L 46.835938 11.441406 C 46.71875 11.449219 46.609375 11.460938 46.5 11.472656 C 46.394531 11.488281 46.296875 11.515625 46.210938 11.558594 C 46.128906 11.601562 46.0625 11.667969 46.015625 11.753906 C 45.972656 11.835938 45.949219 11.9375 45.949219 12.066406 C 45.949219 12.226562 45.992188 12.347656 46.078125 12.433594 C 46.167969 12.519531 46.289062 12.5625 46.445312 12.5625 Z M 46.445312 12.5625 "/>
<path style=" stroke:none;fill-rule:nonzero;fill:rgb(0%,0%,0%);fill-opacity:1;" d="M 48.796875 12.875 L 48.796875 8.875 L 49.285156 8.875 L 49.285156 12.875 Z M 48.796875 12.875 "/>
<path style=" stroke:none;fill-rule:nonzero;fill:rgb(0%,0%,0%);fill-opacity:1;" d="M 35.648438 42.929688 L 33.605469 39.691406 C 33.609375 39.777344 33.617188 39.863281 33.617188 39.949219 C 33.621094 40.023438 33.625 40.101562 33.625 40.1875 C 33.632812 40.269531 33.636719 40.339844 33.636719 40.402344 L 33.636719 42.929688 L 33.171875 42.929688 L 33.171875 39.128906 L 33.777344 39.128906 L 35.832031 42.386719 C 35.832031 42.386719 35.828125 42.300781 35.820312 42.117188 C 35.8125 42.046875 35.804688 41.96875 35.800781 41.882812 C 35.800781 41.789062 35.800781 41.703125 35.800781 41.621094 L 35.800781 39.128906 L 36.265625 39.128906 L 36.265625 42.929688 Z M 35.648438 42.929688 "/>
<path style=" stroke:none;fill-rule:nonzero;fill:rgb(0%,0%,0%);fill-opacity:1;" d="M 34.828125 58.132812 C 34.609375 58.132812 34.417969 58.171875 34.253906 58.242188 C 34.085938 58.3125 33.945312 58.417969 33.832031 58.554688 C 33.722656 58.683594 33.640625 58.84375 33.582031 59.027344 C 33.523438 59.21875 33.496094 59.425781 33.496094 59.65625 C 33.496094 59.886719 33.523438 60.097656 33.582031 60.292969 C 33.648438 60.480469 33.738281 60.640625 33.855469 60.777344 C 33.96875 60.914062 34.109375 61.023438 34.273438 61.101562 C 34.449219 61.171875 34.636719 61.207031 34.847656 61.207031 C 35 61.207031 35.132812 61.191406 35.246094 61.15625 C 35.371094 61.113281 35.480469 61.054688 35.582031 60.980469 C 35.683594 60.910156 35.769531 60.828125 35.84375 60.734375 C 35.921875 60.640625 35.988281 60.535156 36.046875 60.410156 L 36.46875 60.625 C 36.40625 60.773438 36.320312 60.902344 36.21875 61.023438 C 36.117188 61.148438 36 61.257812 35.863281 61.347656 C 35.726562 61.433594 35.570312 61.503906 35.398438 61.554688 C 35.226562 61.601562 35.035156 61.628906 34.828125 61.628906 C 34.515625 61.628906 34.246094 61.582031 34.015625 61.488281 C 33.785156 61.390625 33.589844 61.25 33.433594 61.078125 C 33.28125 60.902344 33.164062 60.691406 33.085938 60.453125 C 33.003906 60.210938 32.96875 59.941406 32.96875 59.65625 C 32.96875 59.359375 33.003906 59.09375 33.085938 58.855469 C 33.171875 58.613281 33.292969 58.410156 33.453125 58.242188 C 33.609375 58.078125 33.804688 57.945312 34.039062 57.851562 C 34.265625 57.761719 34.53125 57.710938 34.828125 57.710938 C 35.230469 57.710938 35.5625 57.792969 35.832031 57.949219 C 36.105469 58.109375 36.308594 58.347656 36.4375 58.660156 L 35.949219 58.824219 C 35.914062 58.730469 35.863281 58.644531 35.800781 58.566406 C 35.738281 58.476562 35.664062 58.410156 35.570312 58.347656 C 35.476562 58.285156 35.371094 58.234375 35.246094 58.199219 C 35.125 58.15625 34.984375 58.132812 34.828125 58.132812 Z M 34.828125 58.132812 "/>
<path style=" stroke:none;fill-rule:nonzero;fill:rgb(0%,0%,0%);fill-opacity:1;" d="M 18.046875 38.554688 L 16.003906 35.316406 C 16.007812 35.402344 16.015625 35.488281 16.015625 35.578125 C 16.019531 35.648438 16.023438 35.726562 16.023438 35.8125 C 16.03125 35.894531 16.035156 35.964844 16.035156 36.03125 L 16.035156 38.554688 L 15.570312 38.554688 L 15.570312 34.757812 L 16.175781 34.757812 L 18.230469 38.015625 C 18.230469 38.015625 18.222656 37.925781 18.21875 37.746094 C 18.210938 37.675781 18.203125 37.59375 18.195312 37.507812 C 18.195312 37.417969 18.195312 37.328125 18.195312 37.25 L 18.195312 34.757812 L 18.660156 34.757812 L 18.660156 38.554688 Z M 18.046875 38.554688 "/>
<path style=" stroke:none;fill-rule:nonzero;fill:rgb(0%,0%,0%);fill-opacity:1;" d="M 51.175781 16.972656 C 51.175781 17.269531 51.132812 17.539062 51.046875 17.78125 C 50.960938 18.027344 50.832031 18.234375 50.667969 18.40625 C 50.507812 18.578125 50.3125 18.714844 50.074219 18.808594 C 49.839844 18.898438 49.578125 18.945312 49.285156 18.945312 C 48.964844 18.945312 48.691406 18.898438 48.453125 18.808594 C 48.21875 18.707031 48.023438 18.570312 47.867188 18.398438 C 47.707031 18.21875 47.589844 18.007812 47.511719 17.769531 C 47.429688 17.527344 47.394531 17.261719 47.394531 16.972656 C 47.394531 16.679688 47.429688 16.410156 47.511719 16.171875 C 47.597656 15.929688 47.71875 15.726562 47.878906 15.558594 C 48.042969 15.394531 48.242188 15.265625 48.472656 15.171875 C 48.710938 15.078125 48.980469 15.03125 49.285156 15.03125 C 49.585938 15.03125 49.855469 15.078125 50.09375 15.171875 C 50.332031 15.265625 50.53125 15.398438 50.6875 15.570312 C 50.84375 15.738281 50.964844 15.9375 51.046875 16.171875 C 51.132812 16.410156 51.175781 16.679688 51.175781 16.972656 Z M 50.644531 16.972656 C 50.644531 16.742188 50.617188 16.535156 50.558594 16.347656 C 50.5 16.160156 50.414062 16 50.300781 15.871094 C 50.183594 15.738281 50.039062 15.632812 49.867188 15.558594 C 49.699219 15.488281 49.503906 15.449219 49.285156 15.449219 C 49.058594 15.449219 48.863281 15.488281 48.691406 15.558594 C 48.515625 15.632812 48.371094 15.738281 48.257812 15.871094 C 48.148438 16 48.066406 16.160156 48.007812 16.347656 C 47.949219 16.535156 47.921875 16.742188 47.921875 16.972656 C 47.921875 17.203125 47.949219 17.414062 48.007812 17.609375 C 48.066406 17.796875 48.152344 17.960938 48.269531 18.09375 C 48.382812 18.230469 48.523438 18.339844 48.691406 18.417969 C 48.863281 18.492188 49.058594 18.527344 49.285156 18.527344 C 49.523438 18.527344 49.726562 18.492188 49.898438 18.417969 C 50.074219 18.339844 50.214844 18.230469 50.320312 18.09375 C 50.429688 17.953125 50.507812 17.785156 50.558594 17.597656 C 50.617188 17.402344 50.644531 17.195312 50.644531 16.972656 Z M 50.644531 16.972656 "/>
<path style="fill:none;stroke-width:0.0333333;stroke-linecap:butt;stroke-linejoin:miter;stroke:rgb(0%,0%,0%);stroke-opacity:1;stroke-miterlimit:10;" d="M 1.018004 1.545825 L 1.018004 2.315257 " transform="matrix(17.291667,0,0,17.266187,17.115761,16.989187)"/>
<path style="fill:none;stroke-width:0.0333333;stroke-linecap:butt;stroke-linejoin:miter;stroke:rgb(0%,0%,0%);stroke-opacity:1;stroke-miterlimit:10;" d="M 0.822146 1.33271 L 0.81695 1.353297 M 0.758667 1.306014 L 0.748501 1.347189 M 0.695414 1.279318 L 0.680052 1.34108 M 0.632161 1.252622 L 0.611604 1.334972 M 0.568908 1.226152 L 0.543381 1.328864 M 0.505429 1.19923 L 0.474932 1.322755 M 0.442176 1.172534 L 0.406483 1.316647 M 0.378923 1.145838 L 0.338034 1.310538 M 0.31567 1.119142 L 0.269586 1.30443 M 0.252417 1.092672 L 0.201137 1.298322 M 0.189164 1.065976 L 0.132688 1.292213 " transform="matrix(17.291667,0,0,17.266187,17.115761,16.989187)"/>
<path style="fill:none;stroke-width:0.0333333;stroke-linecap:butt;stroke-linejoin:miter;stroke:rgb(0%,0%,0%);stroke-opacity:1;stroke-miterlimit:10;" d="M 1.21454 1.289725 L 1.204601 1.272983 M 1.278245 1.263934 L 1.258817 1.23045 M 1.34195 1.238369 L 1.312583 1.187918 M 1.405655 1.212578 L 1.366799 1.145385 M 1.46936 1.187013 L 1.420564 1.102853 M 1.533064 1.161222 L 1.474781 1.06032 M 1.596995 1.135657 L 1.528546 1.017788 M 1.6607 1.109866 L 1.582763 0.975255 M 1.724405 1.084075 L 1.636528 0.932723 M 1.78811 1.058284 L 1.690745 0.89019 M 1.851814 1.032719 L 1.74451 0.847658 M 1.915745 1.006928 L 1.798501 0.805125 " transform="matrix(17.291667,0,0,17.266187,17.115761,16.989187)"/>
<path style="fill:none;stroke-width:0.0333333;stroke-linecap:butt;stroke-linejoin:miter;stroke:rgb(0%,0%,0%);stroke-opacity:1;stroke-miterlimit:10;" d="M 1.848878 0.92028 L 1.858366 0.158766 " transform="matrix(17.291667,0,0,17.266187,17.115761,16.989187)"/>
<path style="fill:none;stroke-width:0.0333333;stroke-linecap:butt;stroke-linejoin:miter;stroke:rgb(0%,0%,0%);stroke-opacity:1;stroke-miterlimit:10;" d="M 1.68329 0.82345 L 1.691649 0.156504 " transform="matrix(17.291667,0,0,17.266187,17.115761,16.989187)"/>
</g>
</svg>
