<?xml version="1.0" encoding="UTF-8"?>
<svg xmlns="http://www.w3.org/2000/svg" xmlns:xlink="http://www.w3.org/1999/xlink" width="139.2pt" height="85.6pt" viewBox="0 0 139.2 85.6" version="1.1">
<g id="surface527">
<path style=" stroke:none;fill-rule:nonzero;fill:rgb(0%,0%,47.058824%);fill-opacity:1;" d="M 16.519531 70.089844 C 16.671875 70.089844 16.800781 70.066406 16.910156 70.023438 C 17.019531 69.980469 17.113281 69.925781 17.191406 69.863281 C 17.269531 69.792969 17.335938 69.710938 17.386719 69.625 C 17.445312 69.539062 17.492188 69.453125 17.527344 69.367188 L 18.222656 69.625 C 18.160156 69.761719 18.085938 69.902344 17.992188 70.035156 C 17.90625 70.164062 17.792969 70.28125 17.660156 70.378906 C 17.527344 70.484375 17.367188 70.5625 17.183594 70.628906 C 16.992188 70.683594 16.773438 70.714844 16.519531 70.714844 C 16.1875 70.714844 15.898438 70.667969 15.65625 70.574219 C 15.417969 70.476562 15.214844 70.335938 15.058594 70.164062 C 14.898438 69.988281 14.78125 69.777344 14.703125 69.539062 C 14.628906 69.296875 14.59375 69.03125 14.59375 68.742188 C 14.59375 68.445312 14.628906 68.179688 14.703125 67.941406 C 14.78125 67.699219 14.894531 67.496094 15.046875 67.328125 C 15.203125 67.164062 15.40625 67.035156 15.644531 66.941406 C 15.882812 66.847656 16.164062 66.800781 16.488281 66.800781 C 16.730469 66.800781 16.949219 66.828125 17.136719 66.886719 C 17.324219 66.9375 17.488281 67.011719 17.625 67.101562 C 17.761719 67.195312 17.875 67.304688 17.960938 67.4375 C 18.046875 67.566406 18.117188 67.707031 18.167969 67.855469 L 17.464844 68.050781 C 17.441406 67.972656 17.402344 67.898438 17.34375 67.824219 C 17.292969 67.746094 17.226562 67.679688 17.148438 67.621094 C 17.066406 67.5625 16.976562 67.515625 16.867188 67.480469 C 16.757812 67.445312 16.632812 67.425781 16.5 67.425781 C 16.304688 67.425781 16.136719 67.457031 16 67.523438 C 15.863281 67.585938 15.746094 67.679688 15.65625 67.792969 C 15.566406 67.90625 15.503906 68.046875 15.460938 68.203125 C 15.417969 68.359375 15.394531 68.542969 15.394531 68.742188 C 15.394531 68.941406 15.417969 69.125 15.460938 69.292969 C 15.503906 69.449219 15.566406 69.589844 15.65625 69.710938 C 15.746094 69.828125 15.863281 69.921875 16 69.992188 C 16.144531 70.058594 16.316406 70.089844 16.519531 70.089844 Z M 16.519531 70.089844 "/>
<path style=" stroke:none;fill-rule:nonzero;fill:rgb(0%,0%,47.058824%);fill-opacity:1;" d="M 18.925781 70.660156 L 18.925781 66.660156 L 19.683594 66.660156 L 19.683594 70.660156 Z M 18.925781 70.660156 "/>
<path style=" stroke:none;fill-rule:nonzero;fill:rgb(0%,0%,47.058824%);fill-opacity:1;" d="M 77.871094 36.070312 L 76.203125 33.144531 C 76.21875 33.226562 76.226562 33.304688 76.234375 33.382812 C 76.242188 33.449219 76.246094 33.519531 76.246094 33.597656 C 76.253906 33.679688 76.257812 33.753906 76.257812 33.824219 L 76.257812 36.070312 L 75.542969 36.070312 L 75.542969 32.273438 L 76.464844 32.273438 L 78.140625 35.21875 C 78.132812 35.148438 78.125 35.066406 78.121094 34.980469 C 78.113281 34.910156 78.105469 34.828125 78.097656 34.742188 C 78.097656 34.65625 78.097656 34.566406 78.097656 34.472656 L 78.097656 32.273438 L 78.804688 32.273438 L 78.804688 36.070312 Z M 77.871094 36.070312 "/>
<path style=" stroke:none;fill-rule:nonzero;fill:rgb(0%,0%,0%);fill-opacity:1;" d="M 94.078125 60.042969 C 94.078125 60.339844 94.035156 60.609375 93.949219 60.851562 C 93.863281 61.097656 93.734375 61.304688 93.570312 61.476562 C 93.410156 61.648438 93.210938 61.785156 92.972656 61.875 C 92.742188 61.96875 92.476562 62.015625 92.183594 62.015625 C 91.863281 62.015625 91.585938 61.96875 91.347656 61.875 C 91.117188 61.777344 90.921875 61.636719 90.765625 61.464844 C 90.605469 61.289062 90.484375 61.078125 90.40625 60.839844 C 90.324219 60.597656 90.289062 60.332031 90.289062 60.042969 C 90.289062 59.746094 90.324219 59.480469 90.40625 59.242188 C 90.492188 59 90.613281 58.796875 90.773438 58.628906 C 90.941406 58.464844 91.136719 58.335938 91.371094 58.242188 C 91.609375 58.148438 91.878906 58.101562 92.183594 58.101562 C 92.484375 58.101562 92.757812 58.148438 92.996094 58.242188 C 93.234375 58.335938 93.429688 58.46875 93.589844 58.640625 C 93.75 58.808594 93.867188 59.007812 93.949219 59.242188 C 94.035156 59.480469 94.078125 59.746094 94.078125 60.042969 Z M 93.546875 60.042969 C 93.546875 59.8125 93.519531 59.605469 93.460938 59.417969 C 93.402344 59.230469 93.316406 59.070312 93.199219 58.941406 C 93.085938 58.808594 92.941406 58.703125 92.769531 58.628906 C 92.601562 58.558594 92.40625 58.519531 92.183594 58.519531 C 91.957031 58.519531 91.761719 58.558594 91.585938 58.628906 C 91.414062 58.703125 91.269531 58.808594 91.152344 58.941406 C 91.046875 59.070312 90.960938 59.230469 90.90625 59.417969 C 90.84375 59.605469 90.816406 59.8125 90.816406 60.042969 C 90.816406 60.273438 90.84375 60.484375 90.90625 60.679688 C 90.960938 60.867188 91.046875 61.027344 91.164062 61.164062 C 91.277344 61.300781 91.417969 61.410156 91.585938 61.488281 C 91.761719 61.558594 91.957031 61.59375 92.183594 61.59375 C 92.421875 61.59375 92.628906 61.558594 92.800781 61.488281 C 92.972656 61.410156 93.113281 61.300781 93.222656 61.164062 C 93.332031 61.019531 93.410156 60.855469 93.460938 60.667969 C 93.519531 60.472656 93.546875 60.265625 93.546875 60.042969 Z M 93.546875 60.042969 "/>
<path style=" stroke:none;fill-rule:nonzero;fill:rgb(0%,0%,0%);fill-opacity:1;" d="M 108.125 36.070312 L 106.078125 32.832031 C 106.082031 32.917969 106.089844 33.007812 106.089844 33.09375 C 106.09375 33.164062 106.097656 33.242188 106.097656 33.328125 C 106.105469 33.410156 106.109375 33.480469 106.109375 33.546875 L 106.109375 36.070312 L 105.644531 36.070312 L 105.644531 32.273438 L 106.25 32.273438 L 108.308594 35.53125 C 108.308594 35.53125 108.304688 35.441406 108.296875 35.261719 C 108.289062 35.191406 108.28125 35.109375 108.277344 35.023438 C 108.277344 34.929688 108.277344 34.84375 108.277344 34.765625 L 108.277344 32.273438 L 108.742188 32.273438 L 108.742188 36.070312 Z M 108.125 36.070312 "/>
<path style=" stroke:none;fill-rule:nonzero;fill:rgb(0%,0%,0%);fill-opacity:1;" d="M 107.300781 15.375 C 107.085938 15.375 106.890625 15.414062 106.726562 15.484375 C 106.558594 15.554688 106.417969 15.660156 106.304688 15.796875 C 106.195312 15.925781 106.113281 16.085938 106.054688 16.269531 C 105.996094 16.460938 105.96875 16.667969 105.96875 16.898438 C 105.96875 17.128906 105.996094 17.339844 106.054688 17.53125 C 106.121094 17.722656 106.210938 17.882812 106.328125 18.019531 C 106.441406 18.15625 106.582031 18.265625 106.75 18.34375 C 106.921875 18.414062 107.113281 18.449219 107.324219 18.449219 C 107.472656 18.449219 107.605469 18.433594 107.722656 18.394531 C 107.84375 18.351562 107.957031 18.296875 108.058594 18.222656 C 108.160156 18.152344 108.246094 18.070312 108.320312 17.976562 C 108.398438 17.882812 108.464844 17.777344 108.523438 17.652344 L 108.949219 17.867188 C 108.882812 18.011719 108.796875 18.144531 108.699219 18.265625 C 108.59375 18.390625 108.476562 18.5 108.339844 18.589844 C 108.203125 18.675781 108.046875 18.746094 107.875 18.796875 C 107.703125 18.84375 107.511719 18.871094 107.300781 18.871094 C 106.988281 18.871094 106.71875 18.820312 106.488281 18.730469 C 106.257812 18.628906 106.0625 18.492188 105.902344 18.320312 C 105.753906 18.140625 105.636719 17.933594 105.558594 17.695312 C 105.476562 17.453125 105.4375 17.183594 105.4375 16.898438 C 105.4375 16.601562 105.476562 16.335938 105.558594 16.097656 C 105.644531 15.855469 105.765625 15.652344 105.925781 15.484375 C 106.082031 15.320312 106.277344 15.191406 106.511719 15.09375 C 106.742188 15.003906 107.003906 14.957031 107.300781 14.957031 C 107.703125 14.957031 108.039062 15.035156 108.308594 15.191406 C 108.582031 15.351562 108.785156 15.589844 108.914062 15.90625 L 108.429688 16.066406 C 108.390625 15.972656 108.339844 15.886719 108.277344 15.808594 C 108.214844 15.722656 108.140625 15.652344 108.046875 15.589844 C 107.953125 15.527344 107.84375 15.476562 107.722656 15.441406 C 107.597656 15.398438 107.457031 15.375 107.300781 15.375 Z M 107.300781 15.375 "/>
<path style=" stroke:none;fill-rule:nonzero;fill:rgb(0%,0%,0%);fill-opacity:1;" d="M 122.308594 41.261719 C 122.09375 41.261719 121.898438 41.300781 121.734375 41.371094 C 121.566406 41.445312 121.425781 41.546875 121.3125 41.683594 C 121.203125 41.8125 121.121094 41.972656 121.0625 42.160156 C 121.003906 42.347656 120.976562 42.554688 120.976562 42.785156 C 120.976562 43.015625 121.003906 43.226562 121.0625 43.421875 C 121.128906 43.609375 121.21875 43.769531 121.332031 43.90625 C 121.449219 44.042969 121.589844 44.152344 121.757812 44.230469 C 121.929688 44.300781 122.117188 44.335938 122.332031 44.335938 C 122.480469 44.335938 122.613281 44.320312 122.730469 44.28125 C 122.851562 44.238281 122.964844 44.183594 123.066406 44.109375 C 123.167969 44.039062 123.253906 43.957031 123.328125 43.863281 C 123.40625 43.769531 123.472656 43.664062 123.53125 43.539062 L 123.953125 43.753906 C 123.890625 43.898438 123.804688 44.03125 123.707031 44.152344 C 123.601562 44.277344 123.484375 44.386719 123.347656 44.476562 C 123.210938 44.5625 123.054688 44.632812 122.882812 44.683594 C 122.710938 44.730469 122.515625 44.757812 122.308594 44.757812 C 121.996094 44.757812 121.726562 44.710938 121.496094 44.617188 C 121.261719 44.519531 121.066406 44.378906 120.910156 44.207031 C 120.757812 44.03125 120.644531 43.820312 120.566406 43.582031 C 120.484375 43.339844 120.445312 43.074219 120.445312 42.785156 C 120.445312 42.488281 120.484375 42.222656 120.566406 41.984375 C 120.652344 41.742188 120.773438 41.539062 120.933594 41.371094 C 121.089844 41.207031 121.285156 41.078125 121.519531 40.984375 C 121.746094 40.890625 122.011719 40.84375 122.308594 40.84375 C 122.710938 40.84375 123.046875 40.921875 123.316406 41.078125 C 123.589844 41.238281 123.792969 41.476562 123.921875 41.792969 L 123.433594 41.953125 C 123.398438 41.863281 123.347656 41.773438 123.285156 41.695312 C 123.222656 41.609375 123.148438 41.539062 123.054688 41.480469 C 122.960938 41.414062 122.851562 41.367188 122.730469 41.328125 C 122.605469 41.285156 122.464844 41.261719 122.308594 41.261719 Z M 122.308594 41.261719 "/>
<path style="fill:none;stroke-width:0.06;stroke-linecap:butt;stroke-linejoin:miter;stroke:rgb(0%,0%,47.058824%);stroke-opacity:1;stroke-miterlimit:10;" d="M 1.747147 0.991444 L 0.850976 1.508639 " transform="matrix(17.330677,0,0,17.258065,17.138732,16.91303)"/>
<path style="fill:none;stroke-width:0.06;stroke-linecap:butt;stroke-linejoin:miter;stroke:rgb(0%,0%,47.058824%);stroke-opacity:1;stroke-miterlimit:10;" d="M 0.866077 1.48261 L 0.866077 2.500023 " transform="matrix(17.330677,0,0,17.258065,17.138732,16.91303)"/>
<path style="fill:none;stroke-width:0.06;stroke-linecap:butt;stroke-linejoin:miter;stroke:rgb(0%,0%,47.058824%);stroke-opacity:1;stroke-miterlimit:10;" d="M 1.03287 1.578805 L 1.03287 2.403827 " transform="matrix(17.330677,0,0,17.258065,17.138732,16.91303)"/>
<path style="fill:none;stroke-width:0.06;stroke-linecap:butt;stroke-linejoin:miter;stroke:rgb(0%,0%,47.058824%);stroke-opacity:1;stroke-miterlimit:10;" d="M 0.850976 2.491422 L 1.747147 3.008617 " transform="matrix(17.330677,0,0,17.258065,17.138732,16.91303)"/>
<path style="fill:none;stroke-width:0.06;stroke-linecap:butt;stroke-linejoin:miter;stroke:rgb(0%,0%,47.058824%);stroke-opacity:1;stroke-miterlimit:10;" d="M 1.717169 3.008617 L 2.613115 2.491422 " transform="matrix(17.330677,0,0,17.258065,17.138732,16.91303)"/>
<path style="fill:none;stroke-width:0.06;stroke-linecap:butt;stroke-linejoin:miter;stroke:rgb(0%,0%,47.058824%);stroke-opacity:1;stroke-miterlimit:10;" d="M 1.717169 2.816225 L 2.446548 2.395226 " transform="matrix(17.330677,0,0,17.258065,17.138732,16.91303)"/>
<path style="fill:none;stroke-width:0.06;stroke-linecap:butt;stroke-linejoin:miter;stroke:rgb(0%,0%,47.058824%);stroke-opacity:1;stroke-miterlimit:10;" d="M 2.598013 2.517225 L 2.598013 1.48261 " transform="matrix(17.330677,0,0,17.258065,17.138732,16.91303)"/>
<path style="fill:none;stroke-width:0.06;stroke-linecap:butt;stroke-linejoin:miter;stroke:rgb(0%,0%,47.058824%);stroke-opacity:1;stroke-miterlimit:10;" d="M 1.717169 0.991444 L 2.598013 1.500038 " transform="matrix(17.330677,0,0,17.258065,17.138732,16.91303)"/>
<path style="fill:none;stroke-width:0.06;stroke-linecap:butt;stroke-linejoin:miter;stroke:rgb(0%,0%,47.058824%);stroke-opacity:1;stroke-miterlimit:10;" d="M 1.717169 1.183836 L 2.431446 1.596234 " transform="matrix(17.330677,0,0,17.258065,17.138732,16.91303)"/>
<path style="fill:none;stroke-width:0.06;stroke-linecap:butt;stroke-linejoin:miter;stroke:rgb(0%,0%,47.058824%);stroke-opacity:1;stroke-miterlimit:10;" d="M 0.881179 2.491422 L 0.212431 2.877564 " transform="matrix(17.330677,0,0,17.258065,17.138732,16.91303)"/>
<path style="fill:none;stroke-width:0.06;stroke-linecap:butt;stroke-linejoin:miter;stroke:rgb(0%,0%,47.058824%);stroke-opacity:1;stroke-miterlimit:10;" d="M 2.583137 1.508639 L 3.29471 1.097826 " transform="matrix(17.330677,0,0,17.258065,17.138732,16.91303)"/>
<path style="fill:none;stroke-width:0.0333333;stroke-linecap:butt;stroke-linejoin:miter;stroke:rgb(0%,0%,0%);stroke-opacity:1;stroke-miterlimit:10;" d="M 3.633478 1.097826 L 4.338514 1.504791 " transform="matrix(17.330677,0,0,17.258065,17.138732,16.91303)"/>
<path style="fill:none;stroke-width:0.0333333;stroke-linecap:butt;stroke-linejoin:miter;stroke:rgb(0%,0%,0%);stroke-opacity:1;stroke-miterlimit:10;" d="M 4.246779 1.451827 L 4.246779 2.343167 " transform="matrix(17.330677,0,0,17.258065,17.138732,16.91303)"/>
<path style="fill:none;stroke-width:0.0333333;stroke-linecap:butt;stroke-linejoin:miter;stroke:rgb(0%,0%,0%);stroke-opacity:1;stroke-miterlimit:10;" d="M 4.413346 1.451827 L 4.413346 2.343167 " transform="matrix(17.330677,0,0,17.258065,17.138732,16.91303)"/>
<path style="fill:none;stroke-width:0.0333333;stroke-linecap:butt;stroke-linejoin:miter;stroke:rgb(0%,0%,0%);stroke-opacity:1;stroke-miterlimit:10;" d="M 4.321835 1.504791 L 5.030252 1.095789 " transform="matrix(17.330677,0,0,17.258065,17.138732,16.91303)"/>
<path style="fill:none;stroke-width:0.0333333;stroke-linecap:butt;stroke-linejoin:miter;stroke:rgb(0%,0%,0%);stroke-opacity:1;stroke-miterlimit:10;" d="M 5.196143 0.846811 L 5.196143 0.15669 " transform="matrix(17.330677,0,0,17.258065,17.138732,16.91303)"/>
<path style="fill:none;stroke-width:0.0333333;stroke-linecap:butt;stroke-linejoin:miter;stroke:rgb(0%,0%,0%);stroke-opacity:1;stroke-miterlimit:10;" d="M 5.362259 1.095789 L 5.885852 1.398183 " transform="matrix(17.330677,0,0,17.258065,17.138732,16.91303)"/>
</g>
</svg>
