<?xml version="1.0" encoding="UTF-8"?>
<svg xmlns="http://www.w3.org/2000/svg" xmlns:xlink="http://www.w3.org/1999/xlink" width="179.2pt" height="144pt" viewBox="0 0 179.2 144" version="1.1">
<g id="surface627">
<path style=" stroke:none;fill-rule:nonzero;fill:rgb(0%,0%,47.058824%);fill-opacity:1;" d="M 123.949219 75.234375 L 122.28125 72.304688 C 122.292969 72.382812 122.304688 72.460938 122.3125 72.539062 C 122.320312 72.605469 122.324219 72.679688 122.324219 72.757812 C 122.328125 72.839844 122.335938 72.914062 122.335938 72.984375 L 122.335938 75.234375 L 121.621094 75.234375 L 121.621094 71.425781 L 122.539062 71.425781 L 124.21875 74.378906 C 124.210938 74.308594 124.203125 74.226562 124.199219 74.140625 C 124.191406 74.070312 124.183594 73.992188 124.175781 73.902344 C 124.175781 73.816406 124.175781 73.726562 124.175781 73.632812 L 124.175781 71.425781 L 124.882812 71.425781 L 124.882812 75.234375 Z M 123.949219 75.234375 "/>
<path style=" stroke:none;fill-rule:nonzero;fill:rgb(0%,0%,47.058824%);fill-opacity:1;" d="M 142.015625 50.914062 C 142.015625 51.210938 141.964844 51.480469 141.875 51.726562 C 141.789062 51.972656 141.660156 52.179688 141.496094 52.351562 C 141.328125 52.527344 141.125 52.660156 140.886719 52.753906 C 140.648438 52.84375 140.378906 52.894531 140.074219 52.894531 C 139.757812 52.894531 139.480469 52.84375 139.242188 52.753906 C 139.003906 52.652344 138.800781 52.515625 138.632812 52.34375 C 138.476562 52.164062 138.355469 51.953125 138.277344 51.714844 C 138.195312 51.472656 138.15625 51.203125 138.15625 50.914062 C 138.15625 50.621094 138.195312 50.351562 138.277344 50.113281 C 138.363281 49.871094 138.488281 49.664062 138.65625 49.496094 C 138.820312 49.332031 139.023438 49.203125 139.261719 49.109375 C 139.5 49.015625 139.773438 48.96875 140.085938 48.96875 C 140.394531 48.96875 140.671875 49.015625 140.910156 49.109375 C 141.148438 49.203125 141.347656 49.335938 141.507812 49.507812 C 141.671875 49.675781 141.796875 49.875 141.886719 50.113281 C 141.972656 50.351562 142.015625 50.621094 142.015625 50.914062 Z M 141.203125 50.914062 C 141.203125 50.714844 141.175781 50.53125 141.125 50.375 C 141.074219 50.214844 141.003906 50.078125 140.910156 49.960938 C 140.816406 49.847656 140.699219 49.757812 140.5625 49.691406 C 140.425781 49.628906 140.265625 49.59375 140.085938 49.59375 C 139.898438 49.59375 139.730469 49.628906 139.589844 49.691406 C 139.449219 49.757812 139.332031 49.847656 139.242188 49.960938 C 139.148438 50.078125 139.074219 50.214844 139.023438 50.375 C 138.980469 50.53125 138.960938 50.714844 138.960938 50.914062 C 138.960938 51.117188 138.984375 51.300781 139.035156 51.464844 C 139.085938 51.625 139.15625 51.765625 139.253906 51.886719 C 139.34375 52.003906 139.460938 52.097656 139.597656 52.167969 C 139.734375 52.234375 139.894531 52.265625 140.074219 52.265625 C 140.269531 52.265625 140.4375 52.234375 140.574219 52.167969 C 140.71875 52.097656 140.835938 52.003906 140.933594 51.886719 C 141.023438 51.765625 141.09375 51.621094 141.136719 51.457031 C 141.179688 51.289062 141.203125 51.109375 141.203125 50.914062 Z M 141.203125 50.914062 "/>
<path style=" stroke:none;fill-rule:nonzero;fill:rgb(0%,0%,0%);fill-opacity:1;" d="M 124.816406 40.621094 L 124.816406 38.859375 L 122.757812 38.859375 L 122.757812 40.621094 L 122.238281 40.621094 L 122.238281 36.8125 L 122.757812 36.8125 L 122.757812 38.425781 L 124.816406 38.425781 L 124.816406 36.8125 L 125.335938 36.8125 L 125.335938 40.621094 Z M 124.816406 40.621094 "/>
<path style=" stroke:none;fill-rule:nonzero;fill:rgb(0%,0%,0%);fill-opacity:1;" d="M 102.964844 94.785156 C 102.964844 95.082031 102.921875 95.351562 102.835938 95.59375 C 102.75 95.839844 102.621094 96.050781 102.457031 96.222656 C 102.296875 96.394531 102.097656 96.53125 101.859375 96.621094 C 101.628906 96.714844 101.363281 96.761719 101.070312 96.761719 C 100.75 96.761719 100.472656 96.714844 100.234375 96.621094 C 100 96.523438 99.808594 96.386719 99.648438 96.210938 C 99.488281 96.035156 99.371094 95.824219 99.292969 95.585938 C 99.210938 95.339844 99.171875 95.074219 99.171875 94.785156 C 99.171875 94.488281 99.210938 94.222656 99.292969 93.984375 C 99.378906 93.738281 99.5 93.535156 99.660156 93.367188 C 99.824219 93.203125 100.023438 93.070312 100.257812 92.976562 C 100.496094 92.886719 100.765625 92.835938 101.070312 92.835938 C 101.371094 92.835938 101.644531 92.886719 101.882812 92.976562 C 102.121094 93.070312 102.316406 93.203125 102.476562 93.378906 C 102.636719 93.546875 102.753906 93.746094 102.835938 93.984375 C 102.921875 94.222656 102.964844 94.488281 102.964844 94.785156 Z M 102.433594 94.785156 C 102.433594 94.554688 102.40625 94.347656 102.347656 94.15625 C 102.289062 93.96875 102.203125 93.808594 102.085938 93.679688 C 101.972656 93.546875 101.828125 93.441406 101.65625 93.367188 C 101.488281 93.296875 101.292969 93.257812 101.070312 93.257812 C 100.84375 93.257812 100.648438 93.296875 100.472656 93.367188 C 100.300781 93.441406 100.152344 93.546875 100.039062 93.679688 C 99.929688 93.808594 99.847656 93.96875 99.789062 94.15625 C 99.730469 94.347656 99.703125 94.554688 99.703125 94.785156 C 99.703125 95.015625 99.730469 95.226562 99.789062 95.421875 C 99.847656 95.613281 99.933594 95.773438 100.050781 95.910156 C 100.164062 96.046875 100.304688 96.15625 100.472656 96.234375 C 100.648438 96.304688 100.84375 96.339844 101.070312 96.339844 C 101.308594 96.339844 101.511719 96.304688 101.6875 96.234375 C 101.859375 96.15625 102 96.046875 102.109375 95.910156 C 102.21875 95.765625 102.296875 95.601562 102.347656 95.410156 C 102.40625 95.214844 102.433594 95.007812 102.433594 94.785156 Z M 102.433594 94.785156 "/>
<path style=" stroke:none;fill-rule:nonzero;fill:rgb(0%,0%,0%);fill-opacity:1;" d="M 161.765625 97.792969 C 161.550781 97.792969 161.359375 97.828125 161.191406 97.898438 C 161.023438 97.972656 160.882812 98.078125 160.769531 98.214844 C 160.660156 98.34375 160.578125 98.503906 160.519531 98.6875 C 160.460938 98.878906 160.433594 99.085938 160.433594 99.316406 C 160.433594 99.550781 160.460938 99.761719 160.519531 99.953125 C 160.585938 100.144531 160.675781 100.304688 160.792969 100.441406 C 160.90625 100.578125 161.046875 100.6875 161.214844 100.765625 C 161.386719 100.839844 161.578125 100.875 161.789062 100.875 C 161.941406 100.875 162.074219 100.859375 162.1875 100.820312 C 162.3125 100.777344 162.421875 100.71875 162.523438 100.648438 C 162.625 100.578125 162.710938 100.492188 162.785156 100.398438 C 162.863281 100.304688 162.929688 100.199219 162.992188 100.074219 L 163.414062 100.289062 C 163.347656 100.4375 163.265625 100.570312 163.164062 100.691406 C 163.0625 100.816406 162.941406 100.921875 162.808594 101.015625 C 162.667969 101.101562 162.515625 101.171875 162.339844 101.21875 C 162.167969 101.269531 161.976562 101.296875 161.765625 101.296875 C 161.457031 101.296875 161.183594 101.246094 160.953125 101.15625 C 160.722656 101.054688 160.527344 100.917969 160.367188 100.746094 C 160.21875 100.566406 160.101562 100.355469 160.023438 100.117188 C 159.941406 99.875 159.902344 99.605469 159.902344 99.316406 C 159.902344 99.023438 159.941406 98.753906 160.023438 98.515625 C 160.109375 98.273438 160.230469 98.066406 160.390625 97.898438 C 160.546875 97.734375 160.742188 97.605469 160.976562 97.511719 C 161.207031 97.417969 161.46875 97.371094 161.765625 97.371094 C 162.171875 97.371094 162.507812 97.449219 162.773438 97.605469 C 163.046875 97.765625 163.25 98.003906 163.382812 98.320312 L 162.894531 98.484375 C 162.855469 98.390625 162.808594 98.304688 162.742188 98.222656 C 162.683594 98.136719 162.605469 98.066406 162.515625 98.007812 C 162.417969 97.941406 162.3125 97.894531 162.1875 97.855469 C 162.066406 97.8125 161.921875 97.792969 161.765625 97.792969 Z M 161.765625 97.792969 "/>
<path style=" stroke:none;fill-rule:nonzero;fill:rgb(0%,0%,0%);fill-opacity:1;" d="M 133.066406 106.613281 C 132.847656 106.613281 132.65625 106.652344 132.492188 106.722656 C 132.324219 106.792969 132.183594 106.898438 132.066406 107.035156 C 131.960938 107.164062 131.875 107.324219 131.820312 107.511719 C 131.757812 107.699219 131.730469 107.90625 131.730469 108.136719 C 131.730469 108.371094 131.757812 108.582031 131.820312 108.777344 C 131.882812 108.964844 131.972656 109.128906 132.089844 109.261719 C 132.203125 109.402344 132.34375 109.507812 132.511719 109.585938 C 132.6875 109.660156 132.875 109.695312 133.085938 109.695312 C 133.238281 109.695312 133.371094 109.679688 133.488281 109.640625 C 133.609375 109.597656 133.71875 109.542969 133.824219 109.46875 C 133.921875 109.398438 134.011719 109.3125 134.082031 109.21875 C 134.164062 109.128906 134.230469 109.019531 134.289062 108.894531 L 134.710938 109.113281 C 134.648438 109.257812 134.5625 109.390625 134.460938 109.511719 C 134.359375 109.636719 134.242188 109.746094 134.105469 109.835938 C 133.96875 109.921875 133.8125 109.992188 133.640625 110.042969 C 133.464844 110.089844 133.273438 110.117188 133.066406 110.117188 C 132.753906 110.117188 132.484375 110.070312 132.253906 109.976562 C 132.019531 109.875 131.824219 109.738281 131.667969 109.566406 C 131.515625 109.386719 131.398438 109.175781 131.320312 108.9375 C 131.238281 108.695312 131.203125 108.425781 131.203125 108.136719 C 131.203125 107.84375 131.238281 107.574219 131.320312 107.335938 C 131.40625 107.09375 131.527344 106.886719 131.6875 106.722656 C 131.847656 106.554688 132.042969 106.425781 132.273438 106.332031 C 132.503906 106.238281 132.765625 106.191406 133.066406 106.191406 C 133.46875 106.191406 133.804688 106.273438 134.074219 106.429688 C 134.347656 106.589844 134.550781 106.828125 134.679688 107.144531 L 134.191406 107.304688 C 134.152344 107.214844 134.105469 107.125 134.039062 107.046875 C 133.980469 106.957031 133.90625 106.886719 133.8125 106.828125 C 133.71875 106.765625 133.609375 106.714844 133.488281 106.675781 C 133.363281 106.632812 133.222656 106.613281 133.066406 106.613281 Z M 133.066406 106.613281 "/>
<path style=" stroke:none;fill-rule:nonzero;fill:rgb(0%,0%,0%);fill-opacity:1;" d="M 39.378906 44.90625 L 37.328125 41.664062 C 37.335938 41.75 37.339844 41.835938 37.339844 41.921875 C 37.347656 41.996094 37.351562 42.074219 37.351562 42.160156 C 37.355469 42.242188 37.363281 42.3125 37.363281 42.375 L 37.363281 44.90625 L 36.894531 44.90625 L 36.894531 41.101562 L 37.503906 41.101562 L 39.5625 44.367188 C 39.5625 44.367188 39.554688 44.277344 39.550781 44.097656 C 39.542969 44.027344 39.535156 43.945312 39.53125 43.859375 C 39.53125 43.765625 39.53125 43.679688 39.53125 43.597656 L 39.53125 41.101562 L 39.996094 41.101562 L 39.996094 44.90625 Z M 39.378906 44.90625 "/>
<path style=" stroke:none;fill-rule:nonzero;fill:rgb(0%,0%,47.058824%);fill-opacity:1;" d="M 54.160156 70.871094 L 52.492188 67.9375 C 52.503906 68.019531 52.515625 68.097656 52.523438 68.175781 C 52.53125 68.242188 52.535156 68.3125 52.535156 68.390625 C 52.539062 68.472656 52.546875 68.550781 52.546875 68.621094 L 52.546875 70.871094 L 51.832031 70.871094 L 51.832031 67.0625 L 52.75 67.0625 L 54.429688 70.015625 C 54.421875 69.945312 54.414062 69.863281 54.410156 69.777344 C 54.402344 69.707031 54.394531 69.625 54.386719 69.539062 C 54.386719 69.453125 54.386719 69.363281 54.386719 69.269531 L 54.386719 67.0625 L 55.09375 67.0625 L 55.09375 70.871094 Z M 54.160156 70.871094 "/>
<path style=" stroke:none;fill-rule:nonzero;fill:rgb(0%,0%,47.058824%);fill-opacity:1;" d="M 41.363281 96.433594 C 41.363281 96.730469 41.316406 97 41.222656 97.246094 C 41.136719 97.492188 41.007812 97.699219 40.84375 97.871094 C 40.675781 98.046875 40.476562 98.179688 40.238281 98.273438 C 40 98.363281 39.726562 98.414062 39.421875 98.414062 C 39.105469 98.414062 38.828125 98.363281 38.589844 98.273438 C 38.351562 98.171875 38.148438 98.035156 37.984375 97.863281 C 37.824219 97.683594 37.703125 97.472656 37.625 97.234375 C 37.542969 96.992188 37.503906 96.722656 37.503906 96.433594 C 37.503906 96.140625 37.542969 95.871094 37.625 95.632812 C 37.710938 95.390625 37.835938 95.183594 38.003906 95.015625 C 38.167969 94.851562 38.371094 94.722656 38.609375 94.628906 C 38.847656 94.535156 39.125 94.488281 39.433594 94.488281 C 39.742188 94.488281 40.019531 94.535156 40.257812 94.628906 C 40.496094 94.722656 40.695312 94.855469 40.855469 95.027344 C 41.019531 95.195312 41.148438 95.394531 41.234375 95.632812 C 41.320312 95.871094 41.363281 96.140625 41.363281 96.433594 Z M 40.550781 96.433594 C 40.550781 96.234375 40.523438 96.050781 40.476562 95.894531 C 40.421875 95.734375 40.351562 95.597656 40.257812 95.480469 C 40.164062 95.367188 40.046875 95.277344 39.910156 95.210938 C 39.773438 95.144531 39.613281 95.113281 39.433594 95.113281 C 39.246094 95.113281 39.078125 95.144531 38.9375 95.210938 C 38.796875 95.277344 38.679688 95.367188 38.589844 95.480469 C 38.496094 95.597656 38.421875 95.734375 38.371094 95.894531 C 38.328125 96.050781 38.308594 96.234375 38.308594 96.433594 C 38.308594 96.636719 38.332031 96.820312 38.382812 96.984375 C 38.433594 97.144531 38.503906 97.285156 38.601562 97.40625 C 38.691406 97.523438 38.808594 97.617188 38.945312 97.6875 C 39.082031 97.753906 39.242188 97.785156 39.421875 97.785156 C 39.617188 97.785156 39.785156 97.753906 39.921875 97.6875 C 40.066406 97.617188 40.183594 97.523438 40.28125 97.40625 C 40.371094 97.285156 40.441406 97.140625 40.484375 96.972656 C 40.527344 96.808594 40.550781 96.628906 40.550781 96.433594 Z M 40.550781 96.433594 "/>
<path style=" stroke:none;fill-rule:nonzero;fill:rgb(0%,0%,0%);fill-opacity:1;" d="M 74.21875 126.894531 C 74.21875 127.191406 74.175781 127.464844 74.085938 127.707031 C 74 127.953125 73.875 128.160156 73.707031 128.332031 C 73.546875 128.507812 73.351562 128.640625 73.113281 128.734375 C 72.878906 128.824219 72.617188 128.875 72.320312 128.875 C 72 128.875 71.726562 128.824219 71.488281 128.734375 C 71.253906 128.632812 71.058594 128.496094 70.902344 128.324219 C 70.742188 128.144531 70.625 127.933594 70.542969 127.695312 C 70.464844 127.453125 70.425781 127.183594 70.425781 126.894531 C 70.425781 126.601562 70.464844 126.332031 70.542969 126.09375 C 70.632812 125.851562 70.753906 125.644531 70.914062 125.476562 C 71.078125 125.3125 71.277344 125.183594 71.507812 125.089844 C 71.746094 124.996094 72.019531 124.949219 72.320312 124.949219 C 72.625 124.949219 72.894531 124.996094 73.132812 125.089844 C 73.371094 125.183594 73.570312 125.316406 73.730469 125.488281 C 73.886719 125.65625 74.007812 125.855469 74.085938 126.09375 C 74.175781 126.332031 74.21875 126.601562 74.21875 126.894531 Z M 73.6875 126.894531 C 73.6875 126.664062 73.65625 126.457031 73.601562 126.269531 C 73.539062 126.082031 73.453125 125.921875 73.339844 125.792969 C 73.222656 125.65625 73.082031 125.550781 72.90625 125.476562 C 72.738281 125.40625 72.542969 125.371094 72.320312 125.371094 C 72.097656 125.371094 71.898438 125.40625 71.726562 125.476562 C 71.550781 125.550781 71.40625 125.65625 71.292969 125.792969 C 71.183594 125.921875 71.101562 126.082031 71.042969 126.269531 C 70.984375 126.457031 70.957031 126.664062 70.957031 126.894531 C 70.957031 127.128906 70.984375 127.339844 71.042969 127.535156 C 71.101562 127.722656 71.1875 127.886719 71.304688 128.019531 C 71.417969 128.15625 71.558594 128.265625 71.726562 128.34375 C 71.898438 128.417969 72.097656 128.453125 72.320312 128.453125 C 72.558594 128.453125 72.765625 128.417969 72.9375 128.34375 C 73.113281 128.265625 73.253906 128.15625 73.363281 128.019531 C 73.46875 127.875 73.546875 127.710938 73.601562 127.523438 C 73.65625 127.328125 73.6875 127.121094 73.6875 126.894531 Z M 73.6875 126.894531 "/>
<path style=" stroke:none;fill-rule:nonzero;fill:rgb(0%,0%,0%);fill-opacity:1;" d="M 85.871094 91.085938 C 85.871094 91.382812 85.828125 91.652344 85.742188 91.894531 C 85.65625 92.140625 85.527344 92.351562 85.363281 92.523438 C 85.203125 92.695312 85.003906 92.832031 84.765625 92.921875 C 84.535156 93.015625 84.269531 93.0625 83.976562 93.0625 C 83.65625 93.0625 83.378906 93.015625 83.140625 92.921875 C 82.910156 92.824219 82.714844 92.683594 82.554688 92.511719 C 82.394531 92.332031 82.277344 92.121094 82.199219 91.886719 C 82.117188 91.640625 82.078125 91.375 82.078125 91.085938 C 82.078125 90.789062 82.117188 90.523438 82.199219 90.285156 C 82.285156 90.039062 82.40625 89.835938 82.566406 89.667969 C 82.730469 89.503906 82.929688 89.371094 83.164062 89.277344 C 83.402344 89.1875 83.671875 89.136719 83.976562 89.136719 C 84.277344 89.136719 84.550781 89.1875 84.789062 89.277344 C 85.027344 89.371094 85.222656 89.503906 85.382812 89.679688 C 85.542969 89.847656 85.660156 90.046875 85.742188 90.285156 C 85.828125 90.523438 85.871094 90.789062 85.871094 91.085938 Z M 85.339844 91.085938 C 85.339844 90.855469 85.3125 90.644531 85.253906 90.457031 C 85.195312 90.269531 85.109375 90.109375 84.996094 89.980469 C 84.878906 89.847656 84.734375 89.742188 84.5625 89.667969 C 84.394531 89.597656 84.199219 89.558594 83.976562 89.558594 C 83.75 89.558594 83.554688 89.597656 83.378906 89.667969 C 83.207031 89.742188 83.058594 89.847656 82.945312 89.980469 C 82.835938 90.109375 82.753906 90.269531 82.695312 90.457031 C 82.636719 90.644531 82.609375 90.855469 82.609375 91.085938 C 82.609375 91.316406 82.636719 91.527344 82.695312 91.722656 C 82.753906 91.910156 82.839844 92.074219 82.957031 92.210938 C 83.070312 92.347656 83.210938 92.457031 83.378906 92.535156 C 83.554688 92.605469 83.75 92.640625 83.976562 92.640625 C 84.214844 92.640625 84.417969 92.605469 84.59375 92.535156 C 84.765625 92.457031 84.90625 92.347656 85.015625 92.210938 C 85.125 92.066406 85.203125 91.902344 85.253906 91.710938 C 85.3125 91.515625 85.339844 91.308594 85.339844 91.085938 Z M 85.339844 91.085938 "/>
<path style=" stroke:none;fill-rule:nonzero;fill:rgb(0%,0%,0%);fill-opacity:1;" d="M 19.160156 126.9375 C 19.160156 127.234375 19.117188 127.507812 19.03125 127.75 C 18.945312 127.996094 18.816406 128.203125 18.652344 128.378906 C 18.492188 128.550781 18.292969 128.683594 18.054688 128.777344 C 17.824219 128.871094 17.558594 128.917969 17.265625 128.917969 C 16.945312 128.917969 16.667969 128.871094 16.429688 128.777344 C 16.195312 128.675781 16 128.539062 15.84375 128.367188 C 15.683594 128.1875 15.566406 127.976562 15.488281 127.738281 C 15.40625 127.496094 15.367188 127.226562 15.367188 126.9375 C 15.367188 126.644531 15.40625 126.375 15.488281 126.136719 C 15.574219 125.894531 15.695312 125.6875 15.855469 125.519531 C 16.019531 125.355469 16.21875 125.226562 16.453125 125.132812 C 16.691406 125.039062 16.960938 124.992188 17.265625 124.992188 C 17.566406 124.992188 17.839844 125.039062 18.078125 125.132812 C 18.316406 125.226562 18.511719 125.359375 18.671875 125.53125 C 18.832031 125.699219 18.949219 125.898438 19.03125 126.136719 C 19.117188 126.375 19.160156 126.644531 19.160156 126.9375 Z M 18.628906 126.9375 C 18.628906 126.707031 18.601562 126.5 18.542969 126.3125 C 18.484375 126.125 18.398438 125.964844 18.28125 125.835938 C 18.167969 125.699219 18.023438 125.59375 17.847656 125.519531 C 17.679688 125.449219 17.488281 125.414062 17.265625 125.414062 C 17.039062 125.414062 16.839844 125.449219 16.667969 125.519531 C 16.496094 125.59375 16.347656 125.699219 16.234375 125.835938 C 16.125 125.964844 16.042969 126.125 15.984375 126.3125 C 15.925781 126.5 15.898438 126.707031 15.898438 126.9375 C 15.898438 127.171875 15.925781 127.382812 15.984375 127.578125 C 16.042969 127.765625 16.128906 127.929688 16.246094 128.0625 C 16.359375 128.203125 16.5 128.308594 16.667969 128.386719 C 16.839844 128.460938 17.039062 128.496094 17.265625 128.496094 C 17.503906 128.496094 17.707031 128.460938 17.882812 128.386719 C 18.054688 128.308594 18.195312 128.203125 18.304688 128.0625 C 18.414062 127.921875 18.492188 127.753906 18.542969 127.566406 C 18.601562 127.371094 18.628906 127.164062 18.628906 126.9375 Z M 18.628906 126.9375 "/>
<path style=" stroke:none;fill-rule:nonzero;fill:rgb(0%,0%,0%);fill-opacity:1;" d="M 25.328125 68.949219 C 25.328125 69.246094 25.285156 69.515625 25.199219 69.761719 C 25.113281 70.007812 24.984375 70.214844 24.820312 70.386719 C 24.660156 70.5625 24.460938 70.695312 24.222656 70.789062 C 23.992188 70.878906 23.726562 70.929688 23.433594 70.929688 C 23.113281 70.929688 22.835938 70.878906 22.597656 70.789062 C 22.367188 70.6875 22.171875 70.550781 22.011719 70.378906 C 21.851562 70.199219 21.734375 69.988281 21.65625 69.75 C 21.574219 69.507812 21.535156 69.238281 21.535156 68.949219 C 21.535156 68.65625 21.574219 68.386719 21.65625 68.148438 C 21.742188 67.90625 21.863281 67.699219 22.023438 67.53125 C 22.1875 67.367188 22.386719 67.238281 22.621094 67.144531 C 22.859375 67.050781 23.128906 67.003906 23.433594 67.003906 C 23.734375 67.003906 24.007812 67.050781 24.246094 67.144531 C 24.484375 67.238281 24.679688 67.371094 24.839844 67.542969 C 25 67.710938 25.117188 67.910156 25.199219 68.148438 C 25.285156 68.386719 25.328125 68.65625 25.328125 68.949219 Z M 24.796875 68.949219 C 24.796875 68.71875 24.769531 68.511719 24.710938 68.320312 C 24.652344 68.136719 24.566406 67.976562 24.453125 67.847656 C 24.335938 67.710938 24.191406 67.605469 24.019531 67.53125 C 23.851562 67.460938 23.65625 67.425781 23.433594 67.425781 C 23.207031 67.425781 23.011719 67.460938 22.835938 67.53125 C 22.664062 67.605469 22.515625 67.710938 22.402344 67.847656 C 22.292969 67.976562 22.210938 68.136719 22.152344 68.320312 C 22.09375 68.511719 22.066406 68.71875 22.066406 68.949219 C 22.066406 69.183594 22.09375 69.394531 22.152344 69.585938 C 22.210938 69.777344 22.296875 69.9375 22.414062 70.074219 C 22.527344 70.210938 22.667969 70.320312 22.835938 70.398438 C 23.011719 70.472656 23.207031 70.507812 23.433594 70.507812 C 23.671875 70.507812 23.875 70.472656 24.050781 70.398438 C 24.222656 70.320312 24.363281 70.210938 24.472656 70.074219 C 24.582031 69.929688 24.660156 69.765625 24.710938 69.578125 C 24.769531 69.382812 24.796875 69.175781 24.796875 68.949219 Z M 24.796875 68.949219 "/>
<path style=" stroke:none;fill-rule:nonzero;fill:rgb(0%,0%,0%);fill-opacity:1;" d="M 55.359375 17.027344 C 55.359375 17.324219 55.316406 17.59375 55.226562 17.835938 C 55.140625 18.082031 55.015625 18.292969 54.847656 18.464844 C 54.6875 18.636719 54.492188 18.773438 54.253906 18.867188 C 54.019531 18.957031 53.757812 19.007812 53.460938 19.007812 C 53.140625 19.007812 52.867188 18.957031 52.628906 18.867188 C 52.394531 18.765625 52.199219 18.628906 52.042969 18.453125 C 51.882812 18.277344 51.761719 18.066406 51.683594 17.828125 C 51.601562 17.582031 51.566406 17.316406 51.566406 17.027344 C 51.566406 16.730469 51.601562 16.464844 51.683594 16.226562 C 51.769531 15.984375 51.894531 15.777344 52.054688 15.609375 C 52.21875 15.445312 52.417969 15.316406 52.648438 15.21875 C 52.886719 15.128906 53.160156 15.078125 53.460938 15.078125 C 53.765625 15.078125 54.035156 15.128906 54.273438 15.21875 C 54.511719 15.316406 54.710938 15.445312 54.871094 15.621094 C 55.027344 15.789062 55.148438 15.988281 55.226562 16.226562 C 55.316406 16.464844 55.359375 16.730469 55.359375 17.027344 Z M 54.828125 17.027344 C 54.828125 16.796875 54.796875 16.589844 54.742188 16.398438 C 54.679688 16.210938 54.59375 16.054688 54.480469 15.921875 C 54.363281 15.789062 54.21875 15.683594 54.046875 15.609375 C 53.878906 15.539062 53.683594 15.5 53.460938 15.5 C 53.238281 15.5 53.039062 15.539062 52.867188 15.609375 C 52.691406 15.683594 52.546875 15.789062 52.433594 15.921875 C 52.324219 16.054688 52.238281 16.210938 52.183594 16.398438 C 52.125 16.589844 52.097656 16.796875 52.097656 17.027344 C 52.097656 17.257812 52.125 17.46875 52.183594 17.664062 C 52.238281 17.855469 52.328125 18.015625 52.441406 18.152344 C 52.558594 18.289062 52.699219 18.398438 52.867188 18.476562 C 53.039062 18.550781 53.238281 18.585938 53.460938 18.585938 C 53.699219 18.585938 53.90625 18.550781 54.078125 18.476562 C 54.253906 18.398438 54.394531 18.289062 54.5 18.152344 C 54.609375 18.007812 54.6875 17.84375 54.742188 17.652344 C 54.796875 17.460938 54.828125 17.25 54.828125 17.027344 Z M 54.828125 17.027344 "/>
<path style=" stroke:none;fill-rule:nonzero;fill:rgb(0%,0%,0%);fill-opacity:1;" d="M 83.597656 32.808594 C 83.382812 32.808594 83.191406 32.847656 83.023438 32.917969 C 82.855469 32.988281 82.714844 33.09375 82.601562 33.230469 C 82.492188 33.359375 82.410156 33.519531 82.351562 33.707031 C 82.292969 33.894531 82.265625 34.105469 82.265625 34.335938 C 82.265625 34.566406 82.292969 34.777344 82.351562 34.972656 C 82.417969 35.160156 82.507812 35.324219 82.625 35.460938 C 82.738281 35.597656 82.878906 35.707031 83.046875 35.785156 C 83.21875 35.855469 83.410156 35.890625 83.621094 35.890625 C 83.773438 35.890625 83.90625 35.875 84.023438 35.835938 C 84.144531 35.792969 84.253906 35.738281 84.359375 35.664062 C 84.457031 35.59375 84.542969 35.511719 84.617188 35.414062 C 84.695312 35.324219 84.765625 35.214844 84.824219 35.089844 L 85.246094 35.308594 C 85.179688 35.453125 85.097656 35.585938 84.996094 35.707031 C 84.894531 35.832031 84.773438 35.941406 84.640625 36.03125 C 84.5 36.117188 84.347656 36.1875 84.171875 36.238281 C 84 36.285156 83.808594 36.3125 83.597656 36.3125 C 83.289062 36.3125 83.015625 36.265625 82.785156 36.171875 C 82.554688 36.074219 82.359375 35.933594 82.203125 35.761719 C 82.050781 35.582031 81.933594 35.371094 81.855469 35.132812 C 81.773438 34.890625 81.734375 34.625 81.734375 34.335938 C 81.734375 34.039062 81.773438 33.773438 81.855469 33.535156 C 81.941406 33.289062 82.0625 33.085938 82.222656 32.917969 C 82.378906 32.753906 82.574219 32.621094 82.808594 32.527344 C 83.039062 32.4375 83.300781 32.386719 83.597656 32.386719 C 84.003906 32.386719 84.339844 32.46875 84.605469 32.625 C 84.878906 32.785156 85.082031 33.023438 85.214844 33.339844 L 84.726562 33.5 C 84.6875 33.410156 84.640625 33.324219 84.574219 33.242188 C 84.515625 33.15625 84.4375 33.085938 84.347656 33.023438 C 84.25 32.960938 84.144531 32.910156 84.023438 32.875 C 83.898438 32.832031 83.757812 32.808594 83.597656 32.808594 Z M 83.597656 32.808594 "/>
<path style="fill:none;stroke-width:0.0333333;stroke-linecap:butt;stroke-linejoin:miter;stroke:rgb(0%,0%,0%);stroke-opacity:1;stroke-miterlimit:10;" d="M 5.189775 1.91901 L 4.574912 2.73828 " transform="matrix(17.337461,0,0,17.307692,17.264668,17.044184)"/>
<path style="fill:none;stroke-width:0.06;stroke-linecap:butt;stroke-linejoin:miter;stroke:rgb(0%,0%,47.058824%);stroke-opacity:1;stroke-miterlimit:10;" d="M 5.170849 1.924652 L 6.128629 2.25236 " transform="matrix(17.337461,0,0,17.307692,17.264668,17.044184)"/>
<path style="fill:none;stroke-width:0.0333333;stroke-linecap:butt;stroke-linejoin:miter;stroke:rgb(0%,0%,0%);stroke-opacity:1;stroke-miterlimit:10;" d="M 4.575363 2.718645 L 5.16454 3.556423 " transform="matrix(17.337461,0,0,17.307692,17.264668,17.044184)"/>
<path style="fill:none;stroke-width:0.0333333;stroke-linecap:butt;stroke-linejoin:miter;stroke:rgb(0%,0%,0%);stroke-opacity:1;stroke-miterlimit:10;" d="M 5.14584 3.550103 L 5.94613 3.303419 " transform="matrix(17.337461,0,0,17.307692,17.264668,17.044184)"/>
<path style="fill:none;stroke-width:0.0333333;stroke-linecap:butt;stroke-linejoin:miter;stroke:rgb(0%,0%,0%);stroke-opacity:1;stroke-miterlimit:10;" d="M 6.282964 3.31019 L 7.070862 3.579669 " transform="matrix(17.337461,0,0,17.307692,17.264668,17.044184)"/>
<path style="fill:none;stroke-width:0.06;stroke-linecap:butt;stroke-linejoin:miter;stroke:rgb(0%,0%,47.058824%);stroke-opacity:1;stroke-miterlimit:10;" d="M 6.128629 2.25236 L 6.115561 3.09736 " transform="matrix(17.337461,0,0,17.307692,17.264668,17.044184)"/>
<path style="fill:none;stroke-width:0.06;stroke-linecap:butt;stroke-linejoin:miter;stroke:rgb(0%,0%,47.058824%);stroke-opacity:1;stroke-miterlimit:10;" d="M 6.128629 2.25236 L 6.900305 2.014704 " transform="matrix(17.337461,0,0,17.307692,17.264668,17.044184)"/>
<path style="fill:none;stroke-width:0.0333333;stroke-linecap:butt;stroke-linejoin:miter;stroke:rgb(0%,0%,0%);stroke-opacity:1;stroke-miterlimit:10;" d="M 7.051936 3.585312 L 7.666799 2.766267 " transform="matrix(17.337461,0,0,17.307692,17.264668,17.044184)"/>
<path style="fill:none;stroke-width:0.0333333;stroke-linecap:butt;stroke-linejoin:miter;stroke:rgb(0%,0%,0%);stroke-opacity:1;stroke-miterlimit:10;" d="M 7.666574 2.785902 L 7.209201 2.135451 " transform="matrix(17.337461,0,0,17.307692,17.264668,17.044184)"/>
<path style=" stroke:none;fill-rule:nonzero;fill:rgb(0%,0%,0%);fill-opacity:1;" d="M 123.519531 56.027344 L 125.765625 41.4375 L 121.722656 41.375 "/>
<path style="fill:none;stroke-width:0.0333333;stroke-linecap:butt;stroke-linejoin:miter;stroke:rgb(0%,0%,0%);stroke-opacity:1;stroke-miterlimit:10;" d="M 5.0983 3.462308 L 4.819145 4.278419 " transform="matrix(17.337461,0,0,17.307692,17.264668,17.044184)"/>
<path style="fill:none;stroke-width:0.0333333;stroke-linecap:butt;stroke-linejoin:miter;stroke:rgb(0%,0%,0%);stroke-opacity:1;stroke-miterlimit:10;" d="M 5.256015 3.516249 L 4.976634 4.33236 " transform="matrix(17.337461,0,0,17.307692,17.264668,17.044184)"/>
<path style=" stroke:none;fill-rule:nonzero;fill:rgb(0%,0%,0%);fill-opacity:1;" d="M 139.65625 78.933594 L 143.054688 97.308594 L 144.757812 95.472656 L 147.199219 96.03125 "/>
<path style="fill:none;stroke-width:0.0333333;stroke-linecap:butt;stroke-linejoin:miter;stroke:rgb(0%,0%,0%);stroke-opacity:1;stroke-miterlimit:10;" d="M 7.34416 4.529392 L 8.161573 4.716267 " transform="matrix(17.337461,0,0,17.307692,17.264668,17.044184)"/>
<path style="fill:none;stroke-width:0.0333333;stroke-linecap:butt;stroke-linejoin:miter;stroke:rgb(0%,0%,0%);stroke-opacity:1;stroke-miterlimit:10;" d="M 7.360156 4.524426 L 6.818068 5.107846 " transform="matrix(17.337461,0,0,17.307692,17.264668,17.044184)"/>
<path style="fill:none;stroke-width:0.0333333;stroke-linecap:butt;stroke-linejoin:miter;stroke:rgb(0%,0%,0%);stroke-opacity:1;stroke-miterlimit:10;" d="M 2.096311 0.995242 L 1.387721 1.404201 " transform="matrix(17.337461,0,0,17.307692,17.264668,17.044184)"/>
<path style="fill:none;stroke-width:0.0333333;stroke-linecap:butt;stroke-linejoin:miter;stroke:rgb(0%,0%,0%);stroke-opacity:1;stroke-miterlimit:10;" d="M 2.079413 0.995242 L 2.962165 1.50486 " transform="matrix(17.337461,0,0,17.307692,17.264668,17.044184)"/>
<path style="fill:none;stroke-width:0.0333333;stroke-linecap:butt;stroke-linejoin:miter;stroke:rgb(0%,0%,0%);stroke-opacity:1;stroke-miterlimit:10;" d="M 1.221895 1.653367 L 1.221895 2.509652 " transform="matrix(17.337461,0,0,17.307692,17.264668,17.044184)"/>
<path style="fill:none;stroke-width:0.0333333;stroke-linecap:butt;stroke-linejoin:miter;stroke:rgb(0%,0%,0%);stroke-opacity:1;stroke-miterlimit:10;" d="M 1.213333 2.495208 L 1.918318 2.90236 " transform="matrix(17.337461,0,0,17.307692,17.264668,17.044184)"/>
<path style="fill:none;stroke-width:0.0333333;stroke-linecap:butt;stroke-linejoin:miter;stroke:rgb(0%,0%,0%);stroke-opacity:1;stroke-miterlimit:10;" d="M 2.257405 2.902135 L 2.962165 2.495208 " transform="matrix(17.337461,0,0,17.307692,17.264668,17.044184)"/>
<path style="fill:none;stroke-width:0.0333333;stroke-linecap:butt;stroke-linejoin:miter;stroke:rgb(0%,0%,0%);stroke-opacity:1;stroke-miterlimit:10;" d="M 2.953829 2.509652 L 2.953829 1.500121 " transform="matrix(17.337461,0,0,17.307692,17.264668,17.044184)"/>
<path style="fill:none;stroke-width:0.0333333;stroke-linecap:butt;stroke-linejoin:miter;stroke:rgb(0%,0%,0%);stroke-opacity:1;stroke-miterlimit:10;" d="M 2.787102 2.41328 L 2.787102 1.596267 " transform="matrix(17.337461,0,0,17.307692,17.264668,17.044184)"/>
<path style="fill:none;stroke-width:0.06;stroke-linecap:butt;stroke-linejoin:miter;stroke:rgb(0%,0%,47.058824%);stroke-opacity:1;stroke-miterlimit:10;" d="M 2.104422 3.879166 L 2.071302 3.879166 M 2.12132 3.757968 L 2.054404 3.757968 M 2.137993 3.636996 L 2.037956 3.636996 M 2.15444 3.516249 L 2.021284 3.516249 M 2.171338 3.395277 L 2.004611 3.395277 M 2.188011 3.274305 L 1.987938 3.274305 M 2.204458 3.153333 L 1.971265 3.153333 " transform="matrix(17.337461,0,0,17.307692,17.264668,17.044184)"/>
<path style="fill:none;stroke-width:0.06;stroke-linecap:butt;stroke-linejoin:miter;stroke:rgb(0%,0%,47.058824%);stroke-opacity:1;stroke-miterlimit:10;" d="M 2.105548 3.987274 L 1.454411 4.460329 " transform="matrix(17.337461,0,0,17.307692,17.264668,17.044184)"/>
<path style="fill:none;stroke-width:0.06;stroke-linecap:butt;stroke-linejoin:miter;stroke:rgb(0%,0%,47.058824%);stroke-opacity:1;stroke-miterlimit:10;" d="M 2.0704 3.987274 L 2.896826 4.587846 " transform="matrix(17.337461,0,0,17.307692,17.264668,17.044184)"/>
<path style="fill:none;stroke-width:0.0333333;stroke-linecap:butt;stroke-linejoin:miter;stroke:rgb(0%,0%,0%);stroke-opacity:1;stroke-miterlimit:10;" d="M 1.33973 4.775173 L 1.588018 5.538923 " transform="matrix(17.337461,0,0,17.307692,17.264668,17.044184)"/>
<path style="fill:none;stroke-width:0.0333333;stroke-linecap:butt;stroke-linejoin:miter;stroke:rgb(0%,0%,0%);stroke-opacity:1;stroke-miterlimit:10;" d="M 1.588018 5.538923 L 2.58793 5.538923 " transform="matrix(17.337461,0,0,17.307692,17.264668,17.044184)"/>
<path style="fill:none;stroke-width:0.0333333;stroke-linecap:butt;stroke-linejoin:miter;stroke:rgb(0%,0%,0%);stroke-opacity:1;stroke-miterlimit:10;" d="M 2.58793 5.538923 L 2.896826 4.587846 " transform="matrix(17.337461,0,0,17.307692,17.264668,17.044184)"/>
<path style="fill:none;stroke-width:0.0333333;stroke-linecap:butt;stroke-linejoin:miter;stroke:rgb(0%,0%,0%);stroke-opacity:1;stroke-miterlimit:10;" d="M 2.58793 5.538923 L 3.048458 6.172673 " transform="matrix(17.337461,0,0,17.307692,17.264668,17.044184)"/>
<path style="fill:none;stroke-width:0.0333333;stroke-linecap:butt;stroke-linejoin:miter;stroke:rgb(0%,0%,0%);stroke-opacity:1;stroke-miterlimit:10;" d="M 2.896826 4.587846 L 3.664222 4.338454 " transform="matrix(17.337461,0,0,17.307692,17.264668,17.044184)"/>
<path style="fill:none;stroke-width:0.0333333;stroke-linecap:butt;stroke-linejoin:miter;stroke:rgb(0%,0%,0%);stroke-opacity:1;stroke-miterlimit:10;" d="M 1.588018 5.538923 L 0.995011 6.354808 " transform="matrix(17.337461,0,0,17.307692,17.264668,17.044184)"/>
<path style="fill:none;stroke-width:0.0333333;stroke-linecap:butt;stroke-linejoin:miter;stroke:rgb(0%,0%,0%);stroke-opacity:1;stroke-miterlimit:10;" d="M 1.008529 6.347812 L 0.153039 6.350069 " transform="matrix(17.337461,0,0,17.307692,17.264668,17.044184)"/>
<path style="fill:none;stroke-width:0.0333333;stroke-linecap:butt;stroke-linejoin:miter;stroke:rgb(0%,0%,0%);stroke-opacity:1;stroke-miterlimit:10;" d="M 1.221895 2.403801 L 0.496632 2.822465 " transform="matrix(17.337461,0,0,17.307692,17.264668,17.044184)"/>
<path style="fill:none;stroke-width:0.0333333;stroke-linecap:butt;stroke-linejoin:miter;stroke:rgb(0%,0%,0%);stroke-opacity:1;stroke-miterlimit:10;" d="M 1.305033 2.548246 L 0.57977 2.966909 " transform="matrix(17.337461,0,0,17.307692,17.264668,17.044184)"/>
<path style="fill:none;stroke-width:0.0333333;stroke-linecap:butt;stroke-linejoin:miter;stroke:rgb(0%,0%,0%);stroke-opacity:1;stroke-miterlimit:10;" d="M 2.171338 1.04828 L 2.171338 0.156787 " transform="matrix(17.337461,0,0,17.307692,17.264668,17.044184)"/>
<path style="fill:none;stroke-width:0.0333333;stroke-linecap:butt;stroke-linejoin:miter;stroke:rgb(0%,0%,0%);stroke-opacity:1;stroke-miterlimit:10;" d="M 2.004611 1.048055 L 2.004611 0.156787 " transform="matrix(17.337461,0,0,17.307692,17.264668,17.044184)"/>
<path style="fill:none;stroke-width:0.0333333;stroke-linecap:butt;stroke-linejoin:miter;stroke:rgb(0%,0%,0%);stroke-opacity:1;stroke-miterlimit:10;" d="M 2.945493 1.50486 L 3.643493 1.10177 " transform="matrix(17.337461,0,0,17.307692,17.264668,17.044184)"/>
</g>
</svg>
