<?xml version="1.0" encoding="UTF-8"?>
<svg xmlns="http://www.w3.org/2000/svg" xmlns:xlink="http://www.w3.org/1999/xlink" width="78.4pt" height="43.2pt" viewBox="0 0 78.4 43.2" version="1.1">
<g id="surface832">
<path style=" stroke:none;fill-rule:nonzero;fill:rgb(0%,0%,0%);fill-opacity:1;" d="M 61.855469 15.59375 C 61.640625 15.59375 61.449219 15.632812 61.285156 15.703125 C 61.117188 15.773438 60.976562 15.878906 60.863281 16.015625 C 60.757812 16.144531 60.671875 16.304688 60.617188 16.492188 C 60.558594 16.679688 60.53125 16.886719 60.53125 17.117188 C 60.53125 17.351562 60.558594 17.5625 60.617188 17.757812 C 60.679688 17.945312 60.769531 18.109375 60.886719 18.242188 C 61 18.382812 61.140625 18.488281 61.304688 18.566406 C 61.480469 18.640625 61.667969 18.675781 61.878906 18.675781 C 62.027344 18.675781 62.160156 18.660156 62.277344 18.621094 C 62.398438 18.578125 62.507812 18.523438 62.613281 18.449219 C 62.710938 18.378906 62.796875 18.292969 62.871094 18.199219 C 62.949219 18.109375 63.015625 18 63.074219 17.875 L 63.496094 18.09375 C 63.429688 18.238281 63.347656 18.371094 63.246094 18.492188 C 63.144531 18.617188 63.027344 18.726562 62.890625 18.816406 C 62.753906 18.902344 62.601562 18.972656 62.429688 19.023438 C 62.253906 19.070312 62.0625 19.097656 61.855469 19.097656 C 61.546875 19.097656 61.277344 19.050781 61.046875 18.957031 C 60.816406 18.855469 60.621094 18.71875 60.464844 18.546875 C 60.316406 18.367188 60.199219 18.15625 60.121094 17.917969 C 60.039062 17.675781 60 17.40625 60 17.117188 C 60 16.824219 60.039062 16.554688 60.121094 16.316406 C 60.207031 16.074219 60.328125 15.867188 60.488281 15.703125 C 60.644531 15.535156 60.835938 15.40625 61.070312 15.3125 C 61.296875 15.21875 61.558594 15.171875 61.855469 15.171875 C 62.257812 15.171875 62.59375 15.253906 62.859375 15.410156 C 63.132812 15.570312 63.332031 15.808594 63.464844 16.125 L 62.976562 16.285156 C 62.941406 16.195312 62.890625 16.105469 62.828125 16.027344 C 62.769531 15.9375 62.691406 15.867188 62.601562 15.808594 C 62.507812 15.746094 62.398438 15.695312 62.277344 15.65625 C 62.152344 15.613281 62.011719 15.59375 61.855469 15.59375 Z M 61.855469 15.59375 "/>
<path style=" stroke:none;fill-rule:nonzero;fill:rgb(0%,0%,0%);fill-opacity:1;" d="M 48.695312 25.773438 C 48.695312 26.070312 48.652344 26.339844 48.566406 26.582031 C 48.480469 26.828125 48.351562 27.039062 48.1875 27.210938 C 48.03125 27.382812 47.832031 27.519531 47.59375 27.609375 C 47.363281 27.703125 47.101562 27.75 46.808594 27.75 C 46.488281 27.75 46.214844 27.703125 45.976562 27.609375 C 45.746094 27.511719 45.550781 27.375 45.394531 27.199219 C 45.238281 27.023438 45.117188 26.8125 45.039062 26.574219 C 44.957031 26.328125 44.921875 26.0625 44.921875 25.773438 C 44.921875 25.476562 44.957031 25.210938 45.039062 24.972656 C 45.125 24.726562 45.246094 24.523438 45.40625 24.355469 C 45.570312 24.191406 45.769531 24.058594 46 23.964844 C 46.238281 23.875 46.507812 23.824219 46.808594 23.824219 C 47.109375 23.824219 47.378906 23.875 47.617188 23.964844 C 47.855469 24.058594 48.050781 24.191406 48.210938 24.367188 C 48.367188 24.535156 48.484375 24.734375 48.566406 24.972656 C 48.652344 25.210938 48.695312 25.476562 48.695312 25.773438 Z M 48.167969 25.773438 C 48.167969 25.542969 48.136719 25.335938 48.082031 25.144531 C 48.019531 24.957031 47.933594 24.796875 47.820312 24.667969 C 47.707031 24.535156 47.5625 24.429688 47.390625 24.355469 C 47.222656 24.285156 47.03125 24.246094 46.808594 24.246094 C 46.585938 24.246094 46.386719 24.285156 46.214844 24.355469 C 46.042969 24.429688 45.898438 24.535156 45.785156 24.667969 C 45.675781 24.796875 45.59375 24.957031 45.535156 25.144531 C 45.476562 25.335938 45.449219 25.542969 45.449219 25.773438 C 45.449219 26.003906 45.476562 26.214844 45.535156 26.410156 C 45.59375 26.601562 45.679688 26.761719 45.792969 26.898438 C 45.90625 27.035156 46.046875 27.144531 46.214844 27.222656 C 46.386719 27.292969 46.585938 27.328125 46.808594 27.328125 C 47.046875 27.328125 47.25 27.292969 47.421875 27.222656 C 47.59375 27.144531 47.734375 27.035156 47.84375 26.898438 C 47.953125 26.753906 48.03125 26.589844 48.082031 26.398438 C 48.136719 26.203125 48.167969 25.996094 48.167969 25.773438 Z M 48.167969 25.773438 "/>
<path style=" stroke:none;fill-rule:nonzero;fill:rgb(0%,0%,0%);fill-opacity:1;" d="M 14.175781 25.175781 C 14.175781 25.34375 14.144531 25.5 14.089844 25.640625 C 14.027344 25.78125 13.949219 25.902344 13.839844 26.011719 C 13.734375 26.117188 13.59375 26.203125 13.429688 26.269531 C 13.273438 26.328125 13.082031 26.355469 12.859375 26.355469 L 11.75 26.355469 L 11.75 27.839844 L 11.230469 27.839844 L 11.230469 24.03125 L 12.828125 24.03125 C 13.054688 24.03125 13.253906 24.058594 13.421875 24.117188 C 13.585938 24.167969 13.722656 24.246094 13.828125 24.34375 C 13.941406 24.445312 14.027344 24.570312 14.089844 24.710938 C 14.144531 24.851562 14.175781 25.003906 14.175781 25.175781 Z M 13.65625 25.175781 C 13.65625 24.9375 13.582031 24.761719 13.429688 24.636719 C 13.285156 24.507812 13.066406 24.441406 12.773438 24.441406 L 11.75 24.441406 L 11.75 25.945312 L 12.792969 25.945312 C 13.089844 25.945312 13.304688 25.878906 13.441406 25.75 C 13.585938 25.617188 13.65625 25.421875 13.65625 25.175781 Z M 13.65625 25.175781 "/>
<path style=" stroke:none;fill-rule:nonzero;fill:rgb(0%,0%,0%);fill-opacity:1;" d="M 17.449219 26.367188 C 17.449219 26.882812 17.335938 27.261719 17.113281 27.515625 C 16.890625 27.769531 16.5625 27.890625 16.132812 27.890625 C 15.929688 27.890625 15.75 27.863281 15.59375 27.804688 C 15.433594 27.742188 15.296875 27.648438 15.183594 27.523438 C 15.074219 27.394531 14.992188 27.238281 14.933594 27.046875 C 14.875 26.855469 14.847656 26.625 14.847656 26.367188 C 14.847656 25.359375 15.28125 24.851562 16.152344 24.851562 C 16.375 24.851562 16.570312 24.886719 16.734375 24.949219 C 16.902344 25.015625 17.03125 25.113281 17.136719 25.242188 C 17.242188 25.367188 17.320312 25.519531 17.371094 25.707031 C 17.421875 25.898438 17.449219 26.117188 17.449219 26.367188 Z M 16.941406 26.367188 C 16.941406 26.144531 16.921875 25.960938 16.886719 25.816406 C 16.847656 25.664062 16.800781 25.546875 16.734375 25.457031 C 16.671875 25.367188 16.585938 25.304688 16.488281 25.273438 C 16.394531 25.238281 16.285156 25.21875 16.164062 25.21875 C 16.035156 25.21875 15.917969 25.238281 15.820312 25.273438 C 15.726562 25.3125 15.640625 25.378906 15.570312 25.46875 C 15.5 25.554688 15.445312 25.675781 15.410156 25.828125 C 15.371094 25.972656 15.355469 26.152344 15.355469 26.367188 C 15.355469 26.601562 15.371094 26.789062 15.410156 26.941406 C 15.453125 27.085938 15.507812 27.207031 15.570312 27.296875 C 15.640625 27.382812 15.726562 27.445312 15.820312 27.480469 C 15.910156 27.519531 16.015625 27.535156 16.132812 27.535156 C 16.253906 27.535156 16.363281 27.519531 16.464844 27.480469 C 16.566406 27.445312 16.652344 27.382812 16.726562 27.296875 C 16.796875 27.207031 16.847656 27.085938 16.886719 26.941406 C 16.921875 26.789062 16.941406 26.601562 16.941406 26.367188 Z M 16.941406 26.367188 "/>
<path style=" stroke:none;fill-rule:nonzero;fill:rgb(0%,0%,0%);fill-opacity:1;" d="M 18.1875 27.839844 L 18.1875 23.824219 L 18.671875 23.824219 L 18.671875 27.839844 Z M 18.1875 27.839844 "/>
<path style="fill:none;stroke-width:0.0333333;stroke-linecap:butt;stroke-linejoin:miter;stroke:rgb(0%,0%,0%);stroke-opacity:1;stroke-miterlimit:10;" d="M 2.421648 0.101685 L 1.914278 0.394637 " transform="matrix(17.253521,0,0,17.307692,16.925084,17.134594)"/>
<path style="fill:none;stroke-width:0.0333333;stroke-linecap:butt;stroke-linejoin:miter;stroke:rgb(0%,0%,0%);stroke-opacity:1;stroke-miterlimit:10;" d="M 1.549769 0.394637 L 0.857882 -0.00484251 " transform="matrix(17.253521,0,0,17.307692,16.925084,17.134594)"/>
<path style="fill:none;stroke-width:0.0333333;stroke-linecap:butt;stroke-linejoin:miter;stroke:rgb(0%,0%,0%);stroke-opacity:1;stroke-miterlimit:10;" d="M 0.874409 -0.00484251 L 0.176408 0.398248 " transform="matrix(17.253521,0,0,17.307692,16.925084,17.134594)"/>
</g>
</svg>
