<?xml version="1.0" encoding="UTF-8"?>
<svg xmlns="http://www.w3.org/2000/svg" xmlns:xlink="http://www.w3.org/1999/xlink" width="68pt" height="78.4pt" viewBox="0 0 68 78.4" version="1.1">
<g id="surface1027">
<path style=" stroke:none;fill-rule:nonzero;fill:rgb(0%,0%,0%);fill-opacity:1;" d="M 51.621094 19.050781 L 51.621094 17.292969 L 49.570312 17.292969 L 49.570312 19.050781 L 49.050781 19.050781 L 49.050781 15.257812 L 49.570312 15.257812 L 49.570312 16.863281 L 51.621094 16.863281 L 51.621094 15.257812 L 52.140625 15.257812 L 52.140625 19.050781 Z M 51.621094 19.050781 "/>
<path style="fill:none;stroke-width:0.0333333;stroke-linecap:butt;stroke-linejoin:miter;stroke:rgb(0%,0%,0%);stroke-opacity:1;stroke-miterlimit:10;" d="M 0.874283 0.56672 L -0.00842291 1.076127 " transform="matrix(17.276423,0,0,17.253521,17.125987,17.155681)"/>
<path style="fill:none;stroke-width:0.0333333;stroke-linecap:butt;stroke-linejoin:miter;stroke:rgb(0%,0%,0%);stroke-opacity:1;stroke-miterlimit:10;" d="M 0.857777 0.56672 L 1.740483 1.076127 " transform="matrix(17.276423,0,0,17.253521,17.125987,17.155681)"/>
<path style="fill:none;stroke-width:0.0333333;stroke-linecap:butt;stroke-linejoin:miter;stroke:rgb(0%,0%,0%);stroke-opacity:1;stroke-miterlimit:10;" d="M 0.857777 0.758936 L 1.573619 1.172348 " transform="matrix(17.276423,0,0,17.253521,17.125987,17.155681)"/>
<path style="fill:none;stroke-width:0.0333333;stroke-linecap:butt;stroke-linejoin:miter;stroke:rgb(0%,0%,0%);stroke-opacity:1;stroke-miterlimit:10;" d="M -0.0000571059 1.061863 L -0.0000571059 2.080904 " transform="matrix(17.276423,0,0,17.253521,17.125987,17.155681)"/>
<path style="fill:none;stroke-width:0.0333333;stroke-linecap:butt;stroke-linejoin:miter;stroke:rgb(0%,0%,0%);stroke-opacity:1;stroke-miterlimit:10;" d="M 0.166581 1.158085 L 0.166581 1.984682 " transform="matrix(17.276423,0,0,17.253521,17.125987,17.155681)"/>
<path style="fill:none;stroke-width:0.0333333;stroke-linecap:butt;stroke-linejoin:miter;stroke:rgb(0%,0%,0%);stroke-opacity:1;stroke-miterlimit:10;" d="M -0.00842291 2.06664 L 0.874283 2.576047 " transform="matrix(17.276423,0,0,17.253521,17.125987,17.155681)"/>
<path style="fill:none;stroke-width:0.0333333;stroke-linecap:butt;stroke-linejoin:miter;stroke:rgb(0%,0%,0%);stroke-opacity:1;stroke-miterlimit:10;" d="M 0.857777 2.576047 L 1.740483 2.06664 " transform="matrix(17.276423,0,0,17.253521,17.125987,17.155681)"/>
<path style="fill:none;stroke-width:0.0333333;stroke-linecap:butt;stroke-linejoin:miter;stroke:rgb(0%,0%,0%);stroke-opacity:1;stroke-miterlimit:10;" d="M 0.857777 2.383604 L 1.573619 1.970419 " transform="matrix(17.276423,0,0,17.253521,17.125987,17.155681)"/>
<path style="fill:none;stroke-width:0.0333333;stroke-linecap:butt;stroke-linejoin:miter;stroke:rgb(0%,0%,0%);stroke-opacity:1;stroke-miterlimit:10;" d="M 1.732118 2.080904 L 1.732118 1.061863 " transform="matrix(17.276423,0,0,17.253521,17.125987,17.155681)"/>
</g>
</svg>
