<?xml version="1.0" encoding="UTF-8"?>
<svg xmlns="http://www.w3.org/2000/svg" xmlns:xlink="http://www.w3.org/1999/xlink" width="111.2pt" height="68.8pt" viewBox="0 0 111.2 68.8" version="1.1">
<g id="surface272">
<path style=" stroke:none;fill-rule:nonzero;fill:rgb(0%,0%,0%);fill-opacity:1;" d="M 18.011719 44.890625 L 15.96875 41.664062 C 15.972656 41.75 15.976562 41.835938 15.976562 41.921875 C 15.984375 41.996094 15.988281 42.074219 15.988281 42.160156 C 15.996094 42.238281 16 42.308594 16 42.375 L 16 44.890625 L 15.535156 44.890625 L 15.535156 41.105469 L 16.140625 41.105469 L 18.195312 44.351562 C 18.195312 44.351562 18.1875 44.261719 18.183594 44.082031 C 18.175781 44.011719 18.167969 43.933594 18.160156 43.847656 C 18.160156 43.753906 18.160156 43.667969 18.160156 43.589844 L 18.160156 41.105469 L 18.625 41.105469 L 18.625 44.890625 Z M 18.011719 44.890625 "/>
<path style=" stroke:none;fill-rule:nonzero;fill:rgb(0%,0%,0%);fill-opacity:1;" d="M 95.1875 44.890625 L 93.144531 41.664062 C 93.148438 41.75 93.15625 41.835938 93.15625 41.921875 C 93.160156 41.996094 93.167969 42.074219 93.167969 42.160156 C 93.171875 42.238281 93.175781 42.308594 93.175781 42.375 L 93.175781 44.890625 L 92.710938 44.890625 L 92.710938 41.105469 L 93.316406 41.105469 L 95.371094 44.351562 C 95.371094 44.351562 95.367188 44.261719 95.359375 44.082031 C 95.351562 44.011719 95.34375 43.933594 95.339844 43.847656 C 95.339844 43.753906 95.339844 43.667969 95.339844 43.589844 L 95.339844 41.105469 L 95.804688 41.105469 L 95.804688 44.890625 Z M 95.1875 44.890625 "/>
<path style="fill:none;stroke-width:0.0333333;stroke-linecap:butt;stroke-linejoin:miter;stroke:rgb(0%,0%,0%);stroke-opacity:1;stroke-miterlimit:10;" d="M 0.874249 -0.00477364 L -0.00828916 0.504629 " transform="matrix(17.288557,0,0,17.2,17.080808,17.199294)"/>
<path style="fill:none;stroke-width:0.0333333;stroke-linecap:butt;stroke-linejoin:miter;stroke:rgb(0%,0%,0%);stroke-opacity:1;stroke-miterlimit:10;" d="M 0.874249 0.187586 L 0.158232 0.600922 " transform="matrix(17.288557,0,0,17.2,17.080808,17.199294)"/>
<path style="fill:none;stroke-width:0.0333333;stroke-linecap:butt;stroke-linejoin:miter;stroke:rgb(0%,0%,0%);stroke-opacity:1;stroke-miterlimit:10;" d="M 0.857529 -0.00477364 L 1.736 0.50213 " transform="matrix(17.288557,0,0,17.2,17.080808,17.199294)"/>
<path style="fill:none;stroke-width:0.0333333;stroke-linecap:butt;stroke-linejoin:miter;stroke:rgb(0%,0%,0%);stroke-opacity:1;stroke-miterlimit:10;" d="M 0.0000707817 0.490321 L 0.0000707817 1.346516 " transform="matrix(17.288557,0,0,17.2,17.080808,17.199294)"/>
<path style="fill:none;stroke-width:0.0333333;stroke-linecap:butt;stroke-linejoin:miter;stroke:rgb(0%,0%,0%);stroke-opacity:1;stroke-miterlimit:10;" d="M 0.165914 1.59588 L 0.874249 2.004901 " transform="matrix(17.288557,0,0,17.2,17.080808,17.199294)"/>
<path style="fill:none;stroke-width:0.0333333;stroke-linecap:butt;stroke-linejoin:miter;stroke:rgb(0%,0%,0%);stroke-opacity:1;stroke-miterlimit:10;" d="M 0.249287 1.45144 L 0.874249 1.812314 " transform="matrix(17.288557,0,0,17.2,17.080808,17.199294)"/>
<path style="fill:none;stroke-width:0.0333333;stroke-linecap:butt;stroke-linejoin:miter;stroke:rgb(0%,0%,0%);stroke-opacity:1;stroke-miterlimit:10;" d="M 0.857529 2.004901 L 1.736 1.49777 " transform="matrix(17.288557,0,0,17.2,17.080808,17.199294)"/>
<path style="fill:none;stroke-width:0.0333333;stroke-linecap:butt;stroke-linejoin:miter;stroke:rgb(0%,0%,0%);stroke-opacity:1;stroke-miterlimit:10;" d="M 1.731933 1.500041 L 1.731933 0.500086 " transform="matrix(17.288557,0,0,17.2,17.080808,17.199294)"/>
<path style="fill:none;stroke-width:0.0333333;stroke-linecap:butt;stroke-linejoin:miter;stroke:rgb(0%,0%,0%);stroke-opacity:1;stroke-miterlimit:10;" d="M 1.565413 1.403747 L 1.565413 0.59638 " transform="matrix(17.288557,0,0,17.2,17.080808,17.199294)"/>
<path style="fill:none;stroke-width:0.0333333;stroke-linecap:butt;stroke-linejoin:miter;stroke:rgb(0%,0%,0%);stroke-opacity:1;stroke-miterlimit:10;" d="M 1.72764 0.500086 L 2.748683 0.500086 " transform="matrix(17.288557,0,0,17.2,17.080808,17.199294)"/>
<path style="fill:none;stroke-width:0.0333333;stroke-linecap:butt;stroke-linejoin:miter;stroke:rgb(0%,0%,0%);stroke-opacity:1;stroke-miterlimit:10;" d="M 1.72764 1.500041 L 2.748683 1.500041 " transform="matrix(17.288557,0,0,17.2,17.080808,17.199294)"/>
<path style="fill:none;stroke-width:0.0333333;stroke-linecap:butt;stroke-linejoin:miter;stroke:rgb(0%,0%,0%);stroke-opacity:1;stroke-miterlimit:10;" d="M 2.731963 0.483281 L 2.731963 1.51662 " transform="matrix(17.288557,0,0,17.2,17.080808,17.199294)"/>
<path style="fill:none;stroke-width:0.0333333;stroke-linecap:butt;stroke-linejoin:miter;stroke:rgb(0%,0%,0%);stroke-opacity:1;stroke-miterlimit:10;" d="M 2.731963 1.500041 L 3.606367 2.004901 " transform="matrix(17.288557,0,0,17.2,17.080808,17.199294)"/>
<path style="fill:none;stroke-width:0.0333333;stroke-linecap:butt;stroke-linejoin:miter;stroke:rgb(0%,0%,0%);stroke-opacity:1;stroke-miterlimit:10;" d="M 2.898709 1.403747 L 3.606367 1.812314 " transform="matrix(17.288557,0,0,17.2,17.080808,17.199294)"/>
<path style="fill:none;stroke-width:0.0333333;stroke-linecap:butt;stroke-linejoin:miter;stroke:rgb(0%,0%,0%);stroke-opacity:1;stroke-miterlimit:10;" d="M 3.606367 -0.00477364 L 2.731963 0.500086 " transform="matrix(17.288557,0,0,17.2,17.080808,17.199294)"/>
<path style="fill:none;stroke-width:0.0333333;stroke-linecap:butt;stroke-linejoin:miter;stroke:rgb(0%,0%,0%);stroke-opacity:1;stroke-miterlimit:10;" d="M 3.606367 0.187586 L 2.898709 0.596153 " transform="matrix(17.288557,0,0,17.2,17.080808,17.199294)"/>
<path style="fill:none;stroke-width:0.0333333;stroke-linecap:butt;stroke-linejoin:miter;stroke:rgb(0%,0%,0%);stroke-opacity:1;stroke-miterlimit:10;" d="M 3.589647 -0.00477364 L 4.472411 0.504629 " transform="matrix(17.288557,0,0,17.2,17.080808,17.199294)"/>
<path style="fill:none;stroke-width:0.0333333;stroke-linecap:butt;stroke-linejoin:miter;stroke:rgb(0%,0%,0%);stroke-opacity:1;stroke-miterlimit:10;" d="M 3.589647 2.004901 L 4.298208 1.59588 " transform="matrix(17.288557,0,0,17.2,17.080808,17.199294)"/>
<path style="fill:none;stroke-width:0.0333333;stroke-linecap:butt;stroke-linejoin:miter;stroke:rgb(0%,0%,0%);stroke-opacity:1;stroke-miterlimit:10;" d="M 4.464051 1.346516 L 4.464051 0.490321 " transform="matrix(17.288557,0,0,17.2,17.080808,17.199294)"/>
<path style="fill:none;stroke-width:0.0333333;stroke-linecap:butt;stroke-linejoin:miter;stroke:rgb(0%,0%,0%);stroke-opacity:1;stroke-miterlimit:10;" d="M 4.297304 1.346516 L 4.297304 0.586614 " transform="matrix(17.288557,0,0,17.2,17.080808,17.199294)"/>
</g>
</svg>
