<?xml version="1.0" encoding="UTF-8"?>
<svg xmlns="http://www.w3.org/2000/svg" xmlns:xlink="http://www.w3.org/1999/xlink" width="155.2pt" height="155.2pt" viewBox="0 0 155.2 155.2" version="1.1">
<g id="surface677">
<path style=" stroke:none;fill-rule:nonzero;fill:rgb(0%,0%,0%);fill-opacity:1;" d="M 76.960938 18.878906 L 75.972656 17.300781 L 74.777344 17.300781 L 74.777344 18.878906 L 74.253906 18.878906 L 74.253906 15.070312 L 76.058594 15.070312 C 76.277344 15.070312 76.464844 15.097656 76.632812 15.144531 C 76.800781 15.1875 76.941406 15.257812 77.058594 15.351562 C 77.171875 15.445312 77.257812 15.5625 77.320312 15.699219 C 77.375 15.835938 77.40625 15.988281 77.40625 16.152344 C 77.40625 16.277344 77.386719 16.398438 77.351562 16.519531 C 77.3125 16.636719 77.257812 16.746094 77.175781 16.84375 C 77.105469 16.941406 77.007812 17.023438 76.894531 17.09375 C 76.777344 17.160156 76.636719 17.207031 76.472656 17.234375 L 77.558594 18.878906 Z M 76.882812 16.164062 C 76.882812 16.050781 76.863281 15.945312 76.820312 15.859375 C 76.78125 15.773438 76.722656 15.707031 76.644531 15.652344 C 76.570312 15.597656 76.480469 15.554688 76.375 15.523438 C 76.265625 15.496094 76.140625 15.480469 76.003906 15.480469 L 74.777344 15.480469 L 74.777344 16.886719 L 76.027344 16.886719 C 76.179688 16.886719 76.308594 16.871094 76.417969 16.835938 C 76.527344 16.800781 76.613281 16.746094 76.675781 16.683594 C 76.75 16.617188 76.800781 16.542969 76.828125 16.457031 C 76.863281 16.363281 76.882812 16.265625 76.882812 16.164062 Z M 76.882812 16.164062 "/>
<path style=" stroke:none;fill-rule:nonzero;fill:rgb(0%,0%,0%);fill-opacity:1;" d="M 78.402344 18.878906 L 78.402344 18.46875 L 79.382812 18.46875 L 79.382812 15.535156 L 78.511719 16.140625 L 78.511719 15.6875 L 79.425781 15.070312 L 79.871094 15.070312 L 79.871094 18.46875 L 80.804688 18.46875 L 80.804688 18.878906 Z M 78.402344 18.878906 "/>
<path style=" stroke:none;fill-rule:nonzero;fill:rgb(0%,0%,0%);fill-opacity:1;" d="M 16.746094 70.878906 L 15.757812 69.296875 L 14.5625 69.296875 L 14.5625 70.878906 L 14.039062 70.878906 L 14.039062 67.066406 L 15.84375 67.066406 C 16.0625 67.066406 16.25 67.09375 16.417969 67.140625 C 16.585938 67.183594 16.726562 67.257812 16.84375 67.347656 C 16.957031 67.441406 17.042969 67.558594 17.105469 67.695312 C 17.160156 67.832031 17.191406 67.984375 17.191406 68.148438 C 17.191406 68.273438 17.171875 68.394531 17.136719 68.515625 C 17.097656 68.632812 17.042969 68.742188 16.960938 68.84375 C 16.890625 68.9375 16.792969 69.019531 16.679688 69.089844 C 16.5625 69.15625 16.421875 69.203125 16.257812 69.230469 L 17.34375 70.878906 Z M 16.667969 68.160156 C 16.667969 68.046875 16.648438 67.941406 16.605469 67.855469 C 16.566406 67.769531 16.507812 67.703125 16.429688 67.652344 C 16.355469 67.59375 16.265625 67.550781 16.160156 67.519531 C 16.050781 67.492188 15.925781 67.476562 15.789062 67.476562 L 14.5625 67.476562 L 14.5625 68.886719 L 15.8125 68.886719 C 15.964844 68.886719 16.09375 68.867188 16.203125 68.832031 C 16.3125 68.796875 16.398438 68.746094 16.460938 68.679688 C 16.535156 68.613281 16.585938 68.539062 16.613281 68.453125 C 16.648438 68.359375 16.667969 68.261719 16.667969 68.160156 Z M 16.667969 68.160156 "/>
<path style=" stroke:none;fill-rule:nonzero;fill:rgb(0%,0%,0%);fill-opacity:1;" d="M 18.046875 70.878906 L 18.046875 70.53125 C 18.140625 70.324219 18.253906 70.136719 18.386719 69.980469 C 18.515625 69.8125 18.652344 69.664062 18.796875 69.535156 C 18.949219 69.40625 19.097656 69.285156 19.242188 69.175781 C 19.386719 69.0625 19.515625 68.949219 19.632812 68.84375 C 19.75 68.726562 19.839844 68.609375 19.90625 68.484375 C 19.976562 68.363281 20.015625 68.222656 20.015625 68.0625 C 20.015625 67.953125 19.996094 67.863281 19.960938 67.78125 C 19.929688 67.703125 19.882812 67.632812 19.820312 67.574219 C 19.757812 67.519531 19.6875 67.476562 19.601562 67.445312 C 19.519531 67.417969 19.429688 67.402344 19.320312 67.402344 C 19.222656 67.402344 19.132812 67.417969 19.046875 67.445312 C 18.960938 67.476562 18.878906 67.519531 18.808594 67.574219 C 18.742188 67.625 18.6875 67.691406 18.644531 67.769531 C 18.609375 67.851562 18.582031 67.941406 18.570312 68.050781 L 18.070312 68.007812 C 18.082031 67.871094 18.117188 67.742188 18.179688 67.617188 C 18.242188 67.496094 18.324219 67.390625 18.429688 67.304688 C 18.535156 67.210938 18.660156 67.140625 18.808594 67.089844 C 18.953125 67.03125 19.125 67 19.320312 67 C 19.507812 67 19.671875 67.027344 19.820312 67.078125 C 19.972656 67.121094 20.097656 67.183594 20.199219 67.273438 C 20.308594 67.359375 20.386719 67.46875 20.4375 67.597656 C 20.496094 67.726562 20.523438 67.878906 20.523438 68.050781 C 20.523438 68.179688 20.5 68.304688 20.449219 68.417969 C 20.40625 68.535156 20.34375 68.648438 20.265625 68.753906 C 20.191406 68.859375 20.105469 68.957031 20.003906 69.058594 C 19.902344 69.152344 19.792969 69.246094 19.679688 69.339844 C 19.570312 69.425781 19.453125 69.519531 19.339844 69.609375 C 19.230469 69.707031 19.125 69.800781 19.027344 69.890625 C 18.929688 69.980469 18.84375 70.070312 18.765625 70.164062 C 18.683594 70.257812 18.625 70.359375 18.582031 70.464844 L 20.578125 70.464844 L 20.578125 70.878906 Z M 18.046875 70.878906 "/>
<path style=" stroke:none;fill-rule:nonzero;fill:rgb(0%,0%,0%);fill-opacity:1;" d="M 137.183594 70.878906 L 136.195312 69.296875 L 135 69.296875 L 135 70.878906 L 134.476562 70.878906 L 134.476562 67.066406 L 136.28125 67.066406 C 136.5 67.066406 136.6875 67.09375 136.855469 67.140625 C 137.023438 67.183594 137.164062 67.257812 137.28125 67.347656 C 137.394531 67.441406 137.480469 67.558594 137.542969 67.695312 C 137.597656 67.832031 137.628906 67.984375 137.628906 68.148438 C 137.628906 68.273438 137.609375 68.394531 137.574219 68.515625 C 137.535156 68.632812 137.480469 68.742188 137.398438 68.84375 C 137.328125 68.9375 137.230469 69.019531 137.117188 69.089844 C 137 69.15625 136.859375 69.203125 136.695312 69.230469 L 137.78125 70.878906 Z M 137.105469 68.160156 C 137.105469 68.046875 137.085938 67.941406 137.042969 67.855469 C 137.003906 67.769531 136.945312 67.703125 136.867188 67.652344 C 136.792969 67.59375 136.703125 67.550781 136.597656 67.519531 C 136.488281 67.492188 136.363281 67.476562 136.226562 67.476562 L 135 67.476562 L 135 68.886719 L 136.25 68.886719 C 136.402344 68.886719 136.53125 68.867188 136.640625 68.832031 C 136.75 68.796875 136.835938 68.746094 136.902344 68.679688 C 136.972656 68.613281 137.023438 68.539062 137.050781 68.453125 C 137.089844 68.359375 137.105469 68.261719 137.105469 68.160156 Z M 137.105469 68.160156 "/>
<path style=" stroke:none;fill-rule:nonzero;fill:rgb(0%,0%,0%);fill-opacity:1;" d="M 138.484375 70.878906 L 138.484375 70.53125 C 138.578125 70.324219 138.691406 70.136719 138.824219 69.980469 C 138.953125 69.8125 139.089844 69.664062 139.234375 69.535156 C 139.386719 69.40625 139.535156 69.285156 139.679688 69.175781 C 139.824219 69.0625 139.957031 68.949219 140.070312 68.84375 C 140.1875 68.726562 140.277344 68.609375 140.34375 68.484375 C 140.414062 68.363281 140.453125 68.222656 140.453125 68.0625 C 140.453125 67.953125 140.433594 67.863281 140.398438 67.78125 C 140.367188 67.703125 140.320312 67.632812 140.257812 67.574219 C 140.195312 67.519531 140.125 67.476562 140.039062 67.445312 C 139.957031 67.417969 139.867188 67.402344 139.757812 67.402344 C 139.660156 67.402344 139.574219 67.417969 139.484375 67.445312 C 139.398438 67.476562 139.316406 67.519531 139.246094 67.574219 C 139.179688 67.625 139.125 67.691406 139.082031 67.769531 C 139.046875 67.851562 139.019531 67.941406 139.007812 68.050781 L 138.507812 68.007812 C 138.519531 67.871094 138.554688 67.742188 138.617188 67.617188 C 138.679688 67.496094 138.761719 67.390625 138.867188 67.304688 C 138.976562 67.210938 139.101562 67.140625 139.246094 67.089844 C 139.390625 67.03125 139.5625 67 139.757812 67 C 139.945312 67 140.109375 67.027344 140.257812 67.078125 C 140.410156 67.121094 140.535156 67.183594 140.636719 67.273438 C 140.746094 67.359375 140.824219 67.46875 140.875 67.597656 C 140.933594 67.726562 140.964844 67.878906 140.964844 68.050781 C 140.964844 68.179688 140.9375 68.304688 140.886719 68.417969 C 140.84375 68.535156 140.78125 68.648438 140.703125 68.753906 C 140.628906 68.859375 140.542969 68.957031 140.441406 69.058594 C 140.339844 69.152344 140.230469 69.246094 140.117188 69.339844 C 140.007812 69.425781 139.894531 69.519531 139.777344 69.609375 C 139.671875 69.707031 139.5625 69.800781 139.464844 69.890625 C 139.367188 69.980469 139.28125 70.070312 139.203125 70.164062 C 139.121094 70.257812 139.0625 70.359375 139.019531 70.464844 L 141.015625 70.464844 L 141.015625 70.878906 Z M 138.484375 70.878906 "/>
<path style=" stroke:none;fill-rule:nonzero;fill:rgb(0%,0%,0%);fill-opacity:1;" d="M 16.746094 36.234375 L 15.757812 34.652344 L 14.5625 34.652344 L 14.5625 36.234375 L 14.039062 36.234375 L 14.039062 32.421875 L 15.84375 32.421875 C 16.0625 32.421875 16.25 32.449219 16.417969 32.5 C 16.585938 32.542969 16.726562 32.613281 16.84375 32.703125 C 16.957031 32.800781 17.042969 32.917969 17.105469 33.050781 C 17.160156 33.191406 17.191406 33.339844 17.191406 33.507812 C 17.191406 33.628906 17.171875 33.753906 17.136719 33.875 C 17.097656 33.992188 17.042969 34.097656 16.960938 34.199219 C 16.890625 34.292969 16.792969 34.378906 16.679688 34.449219 C 16.5625 34.511719 16.421875 34.5625 16.257812 34.589844 L 17.34375 36.234375 Z M 16.667969 33.515625 C 16.667969 33.402344 16.648438 33.300781 16.605469 33.214844 C 16.566406 33.128906 16.507812 33.058594 16.429688 33.007812 C 16.355469 32.953125 16.265625 32.90625 16.160156 32.878906 C 16.050781 32.851562 15.925781 32.835938 15.789062 32.835938 L 14.5625 32.835938 L 14.5625 34.242188 L 15.8125 34.242188 C 15.964844 34.242188 16.09375 34.226562 16.203125 34.1875 C 16.3125 34.152344 16.398438 34.101562 16.460938 34.035156 C 16.535156 33.972656 16.585938 33.894531 16.613281 33.808594 C 16.648438 33.71875 16.667969 33.621094 16.667969 33.515625 Z M 16.667969 33.515625 "/>
<path style=" stroke:none;fill-rule:nonzero;fill:rgb(0%,0%,0%);fill-opacity:1;" d="M 18.046875 36.234375 L 18.046875 35.886719 C 18.140625 35.679688 18.253906 35.496094 18.386719 35.335938 C 18.515625 35.171875 18.652344 35.023438 18.796875 34.890625 C 18.949219 34.761719 19.097656 34.644531 19.242188 34.535156 C 19.386719 34.421875 19.515625 34.308594 19.632812 34.199219 C 19.75 34.085938 19.839844 33.964844 19.90625 33.839844 C 19.976562 33.71875 20.015625 33.578125 20.015625 33.417969 C 20.015625 33.3125 19.996094 33.21875 19.960938 33.136719 C 19.929688 33.058594 19.882812 32.992188 19.820312 32.933594 C 19.757812 32.875 19.6875 32.832031 19.601562 32.800781 C 19.519531 32.773438 19.429688 32.757812 19.320312 32.757812 C 19.222656 32.757812 19.132812 32.773438 19.046875 32.800781 C 18.960938 32.832031 18.878906 32.875 18.808594 32.933594 C 18.742188 32.984375 18.6875 33.046875 18.644531 33.128906 C 18.609375 33.207031 18.582031 33.300781 18.570312 33.410156 L 18.070312 33.367188 C 18.082031 33.230469 18.117188 33.101562 18.179688 32.976562 C 18.242188 32.855469 18.324219 32.75 18.429688 32.660156 C 18.535156 32.570312 18.660156 32.496094 18.808594 32.445312 C 18.953125 32.386719 19.125 32.359375 19.320312 32.359375 C 19.507812 32.359375 19.671875 32.386719 19.820312 32.433594 C 19.972656 32.476562 20.097656 32.542969 20.199219 32.628906 C 20.308594 32.714844 20.386719 32.824219 20.4375 32.953125 C 20.496094 33.082031 20.523438 33.234375 20.523438 33.410156 C 20.523438 33.539062 20.5 33.664062 20.449219 33.777344 C 20.40625 33.894531 20.34375 34.003906 20.265625 34.113281 C 20.191406 34.214844 20.105469 34.316406 20.003906 34.414062 C 19.902344 34.511719 19.792969 34.605469 19.679688 34.695312 C 19.570312 34.785156 19.453125 34.875 19.339844 34.96875 C 19.230469 35.0625 19.125 35.15625 19.027344 35.25 C 18.929688 35.335938 18.84375 35.429688 18.765625 35.519531 C 18.683594 35.613281 18.625 35.714844 18.582031 35.824219 L 20.578125 35.824219 L 20.578125 36.234375 Z M 18.046875 36.234375 "/>
<path style=" stroke:none;fill-rule:nonzero;fill:rgb(0%,0%,0%);fill-opacity:1;" d="M 137.183594 36.234375 L 136.195312 34.652344 L 135 34.652344 L 135 36.234375 L 134.476562 36.234375 L 134.476562 32.421875 L 136.28125 32.421875 C 136.5 32.421875 136.6875 32.449219 136.855469 32.5 C 137.023438 32.542969 137.164062 32.613281 137.28125 32.703125 C 137.394531 32.800781 137.480469 32.917969 137.542969 33.050781 C 137.597656 33.191406 137.628906 33.339844 137.628906 33.507812 C 137.628906 33.628906 137.609375 33.753906 137.574219 33.875 C 137.535156 33.992188 137.480469 34.097656 137.398438 34.199219 C 137.328125 34.292969 137.230469 34.378906 137.117188 34.449219 C 137 34.511719 136.859375 34.5625 136.695312 34.589844 L 137.78125 36.234375 Z M 137.105469 33.515625 C 137.105469 33.402344 137.085938 33.300781 137.042969 33.214844 C 137.003906 33.128906 136.945312 33.058594 136.867188 33.007812 C 136.792969 32.953125 136.703125 32.90625 136.597656 32.878906 C 136.488281 32.851562 136.363281 32.835938 136.226562 32.835938 L 135 32.835938 L 135 34.242188 L 136.25 34.242188 C 136.402344 34.242188 136.53125 34.226562 136.640625 34.1875 C 136.75 34.152344 136.835938 34.101562 136.902344 34.035156 C 136.972656 33.972656 137.023438 33.894531 137.050781 33.808594 C 137.089844 33.71875 137.105469 33.621094 137.105469 33.515625 Z M 137.105469 33.515625 "/>
<path style=" stroke:none;fill-rule:nonzero;fill:rgb(0%,0%,0%);fill-opacity:1;" d="M 138.484375 36.234375 L 138.484375 35.886719 C 138.578125 35.679688 138.691406 35.496094 138.824219 35.335938 C 138.953125 35.171875 139.089844 35.023438 139.234375 34.890625 C 139.386719 34.761719 139.535156 34.644531 139.679688 34.535156 C 139.824219 34.421875 139.957031 34.308594 140.070312 34.199219 C 140.1875 34.085938 140.277344 33.964844 140.34375 33.839844 C 140.414062 33.71875 140.453125 33.578125 140.453125 33.417969 C 140.453125 33.3125 140.433594 33.21875 140.398438 33.136719 C 140.367188 33.058594 140.320312 32.992188 140.257812 32.933594 C 140.195312 32.875 140.125 32.832031 140.039062 32.800781 C 139.957031 32.773438 139.867188 32.757812 139.757812 32.757812 C 139.660156 32.757812 139.574219 32.773438 139.484375 32.800781 C 139.398438 32.832031 139.316406 32.875 139.246094 32.933594 C 139.179688 32.984375 139.125 33.046875 139.082031 33.128906 C 139.046875 33.207031 139.019531 33.300781 139.007812 33.410156 L 138.507812 33.367188 C 138.519531 33.230469 138.554688 33.101562 138.617188 32.976562 C 138.679688 32.855469 138.761719 32.75 138.867188 32.660156 C 138.976562 32.570312 139.101562 32.496094 139.246094 32.445312 C 139.390625 32.386719 139.5625 32.359375 139.757812 32.359375 C 139.945312 32.359375 140.109375 32.386719 140.257812 32.433594 C 140.410156 32.476562 140.535156 32.542969 140.636719 32.628906 C 140.746094 32.714844 140.824219 32.824219 140.875 32.953125 C 140.933594 33.082031 140.964844 33.234375 140.964844 33.410156 C 140.964844 33.539062 140.9375 33.664062 140.886719 33.777344 C 140.84375 33.894531 140.78125 34.003906 140.703125 34.113281 C 140.628906 34.214844 140.542969 34.316406 140.441406 34.414062 C 140.339844 34.511719 140.230469 34.605469 140.117188 34.695312 C 140.007812 34.785156 139.894531 34.875 139.777344 34.96875 C 139.671875 35.0625 139.5625 35.15625 139.464844 35.25 C 139.367188 35.335938 139.28125 35.429688 139.203125 35.519531 C 139.121094 35.613281 139.0625 35.714844 139.019531 35.824219 L 141.015625 35.824219 L 141.015625 36.234375 Z M 138.484375 36.234375 "/>
<path style="fill:none;stroke-width:0.0333333;stroke-linecap:butt;stroke-linejoin:miter;stroke:rgb(0%,0%,0%);stroke-opacity:1;stroke-miterlimit:10;" d="M 1.740461 0.99501 L 0.866114 1.499939 " transform="matrix(17.383513,0,0,17.321429,17.311083,16.975951)"/>
<path style="fill:none;stroke-width:0.0333333;stroke-linecap:butt;stroke-linejoin:miter;stroke:rgb(0%,0%,0%);stroke-opacity:1;stroke-miterlimit:10;" d="M 1.740461 1.1876 L 1.032849 1.596234 " transform="matrix(17.383513,0,0,17.321429,17.311083,16.975951)"/>
<path style="fill:none;stroke-width:0.0333333;stroke-linecap:butt;stroke-linejoin:miter;stroke:rgb(0%,0%,0%);stroke-opacity:1;stroke-miterlimit:10;" d="M 1.723608 0.99501 L 2.606493 1.5049 " transform="matrix(17.383513,0,0,17.321429,17.311083,16.975951)"/>
<path style="fill:none;stroke-width:0.0333333;stroke-linecap:butt;stroke-linejoin:miter;stroke:rgb(0%,0%,0%);stroke-opacity:1;stroke-miterlimit:10;" d="M 0.866114 1.490467 L 0.866114 2.509571 " transform="matrix(17.383513,0,0,17.321429,17.311083,16.975951)"/>
<path style="fill:none;stroke-width:0.0333333;stroke-linecap:butt;stroke-linejoin:miter;stroke:rgb(0%,0%,0%);stroke-opacity:1;stroke-miterlimit:10;" d="M 0.866114 2.499874 L 1.740461 3.004803 " transform="matrix(17.383513,0,0,17.321429,17.311083,16.975951)"/>
<path style="fill:none;stroke-width:0.0333333;stroke-linecap:butt;stroke-linejoin:miter;stroke:rgb(0%,0%,0%);stroke-opacity:1;stroke-miterlimit:10;" d="M 1.032849 2.403805 L 1.740461 2.812213 " transform="matrix(17.383513,0,0,17.321429,17.311083,16.975951)"/>
<path style="fill:none;stroke-width:0.0333333;stroke-linecap:butt;stroke-linejoin:miter;stroke:rgb(0%,0%,0%);stroke-opacity:1;stroke-miterlimit:10;" d="M 1.723608 3.004803 L 2.606493 2.495138 " transform="matrix(17.383513,0,0,17.321429,17.311083,16.975951)"/>
<path style="fill:none;stroke-width:0.0333333;stroke-linecap:butt;stroke-linejoin:miter;stroke:rgb(0%,0%,0%);stroke-opacity:1;stroke-miterlimit:10;" d="M 2.598179 2.509571 L 2.598179 1.499939 " transform="matrix(17.383513,0,0,17.321429,17.311083,16.975951)"/>
<path style="fill:none;stroke-width:0.0333333;stroke-linecap:butt;stroke-linejoin:miter;stroke:rgb(0%,0%,0%);stroke-opacity:1;stroke-miterlimit:10;" d="M 2.431444 2.413276 L 2.431444 1.596234 " transform="matrix(17.383513,0,0,17.321429,17.311083,16.975951)"/>
<path style="fill:none;stroke-width:0.0333333;stroke-linecap:butt;stroke-linejoin:miter;stroke:rgb(0%,0%,0%);stroke-opacity:1;stroke-miterlimit:10;" d="M 2.589865 1.5049 L 3.472526 0.99501 " transform="matrix(17.383513,0,0,17.321429,17.311083,16.975951)"/>
<path style="fill:none;stroke-width:0.0333333;stroke-linecap:butt;stroke-linejoin:miter;stroke:rgb(0%,0%,0%);stroke-opacity:1;stroke-miterlimit:10;" d="M 5.204591 0.99501 L 4.330244 1.499939 " transform="matrix(17.383513,0,0,17.321429,17.311083,16.975951)"/>
<path style="fill:none;stroke-width:0.0333333;stroke-linecap:butt;stroke-linejoin:miter;stroke:rgb(0%,0%,0%);stroke-opacity:1;stroke-miterlimit:10;" d="M 5.204591 1.1876 L 4.496754 1.596234 " transform="matrix(17.383513,0,0,17.321429,17.311083,16.975951)"/>
<path style="fill:none;stroke-width:0.0333333;stroke-linecap:butt;stroke-linejoin:miter;stroke:rgb(0%,0%,0%);stroke-opacity:1;stroke-miterlimit:10;" d="M 4.330244 1.490467 L 4.330244 2.509571 " transform="matrix(17.383513,0,0,17.321429,17.311083,16.975951)"/>
<path style="fill:none;stroke-width:0.0333333;stroke-linecap:butt;stroke-linejoin:miter;stroke:rgb(0%,0%,0%);stroke-opacity:1;stroke-miterlimit:10;" d="M 5.187962 0.99501 L 6.070624 1.5049 " transform="matrix(17.383513,0,0,17.321429,17.311083,16.975951)"/>
<path style="fill:none;stroke-width:0.0333333;stroke-linecap:butt;stroke-linejoin:miter;stroke:rgb(0%,0%,0%);stroke-opacity:1;stroke-miterlimit:10;" d="M 4.32193 2.495138 L 5.204591 3.004803 " transform="matrix(17.383513,0,0,17.321429,17.311083,16.975951)"/>
<path style="fill:none;stroke-width:0.0333333;stroke-linecap:butt;stroke-linejoin:miter;stroke:rgb(0%,0%,0%);stroke-opacity:1;stroke-miterlimit:10;" d="M 4.48844 2.398843 L 5.204591 2.812213 " transform="matrix(17.383513,0,0,17.321429,17.311083,16.975951)"/>
<path style="fill:none;stroke-width:0.0333333;stroke-linecap:butt;stroke-linejoin:miter;stroke:rgb(0%,0%,0%);stroke-opacity:1;stroke-miterlimit:10;" d="M 5.187962 3.004803 L 6.070624 2.495138 " transform="matrix(17.383513,0,0,17.321429,17.311083,16.975951)"/>
<path style="fill:none;stroke-width:0.0333333;stroke-linecap:butt;stroke-linejoin:miter;stroke:rgb(0%,0%,0%);stroke-opacity:1;stroke-miterlimit:10;" d="M 6.062309 2.499874 L 6.062309 1.499939 " transform="matrix(17.383513,0,0,17.321429,17.311083,16.975951)"/>
<path style="fill:none;stroke-width:0.0333333;stroke-linecap:butt;stroke-linejoin:miter;stroke:rgb(0%,0%,0%);stroke-opacity:1;stroke-miterlimit:10;" d="M 5.895574 2.403805 L 5.895574 1.596234 " transform="matrix(17.383513,0,0,17.321429,17.311083,16.975951)"/>
<path style="fill:none;stroke-width:0.0333333;stroke-linecap:butt;stroke-linejoin:miter;stroke:rgb(0%,0%,0%);stroke-opacity:1;stroke-miterlimit:10;" d="M 3.455897 0.99501 L 4.338558 1.5049 " transform="matrix(17.383513,0,0,17.321429,17.311083,16.975951)"/>
<path style="fill:none;stroke-width:0.0333333;stroke-linecap:butt;stroke-linejoin:miter;stroke:rgb(0%,0%,0%);stroke-opacity:1;stroke-dasharray:0.1,0.0666667;stroke-dashoffset:0.153346;stroke-miterlimit:10;" d="M 3.464212 0.999971 L 3.464212 0.153386 " transform="matrix(17.383513,0,0,17.321429,17.311083,16.975951)"/>
<path style="fill:none;stroke-width:0.0333333;stroke-linecap:butt;stroke-linejoin:miter;stroke:rgb(0%,0%,0%);stroke-opacity:1;stroke-miterlimit:10;" d="M 0.874428 2.495138 L 0.240746 2.860924 " transform="matrix(17.383513,0,0,17.321429,17.311083,16.975951)"/>
<path style="fill:none;stroke-width:0.0333333;stroke-linecap:butt;stroke-linejoin:miter;stroke:rgb(0%,0%,0%);stroke-opacity:1;stroke-miterlimit:10;" d="M 6.053995 2.495138 L 6.687677 2.860924 " transform="matrix(17.383513,0,0,17.321429,17.311083,16.975951)"/>
<path style="fill:none;stroke-width:0.0333333;stroke-linecap:butt;stroke-linejoin:miter;stroke:rgb(0%,0%,0%);stroke-opacity:1;stroke-miterlimit:10;" d="M 0.874428 1.5049 L 0.240746 1.139114 " transform="matrix(17.383513,0,0,17.321429,17.311083,16.975951)"/>
<path style="fill:none;stroke-width:0.0333333;stroke-linecap:butt;stroke-linejoin:miter;stroke:rgb(0%,0%,0%);stroke-opacity:1;stroke-miterlimit:10;" d="M 6.053995 1.5049 L 6.687677 1.139114 " transform="matrix(17.383513,0,0,17.321429,17.311083,16.975951)"/>
<path style=" stroke:none;fill-rule:nonzero;fill:rgb(0%,0%,0%);fill-opacity:1;" d="M 20.015625 95.84375 L 19.027344 94.265625 L 17.832031 94.265625 L 17.832031 95.84375 L 17.308594 95.84375 L 17.308594 92.035156 L 19.113281 92.035156 C 19.332031 92.035156 19.519531 92.0625 19.691406 92.109375 C 19.855469 92.152344 19.996094 92.222656 20.113281 92.316406 C 20.226562 92.410156 20.3125 92.527344 20.375 92.660156 C 20.429688 92.800781 20.460938 92.949219 20.460938 93.117188 C 20.460938 93.242188 20.441406 93.363281 20.40625 93.484375 C 20.367188 93.601562 20.3125 93.707031 20.234375 93.808594 C 20.160156 93.902344 20.0625 93.988281 19.949219 94.058594 C 19.832031 94.121094 19.691406 94.171875 19.527344 94.199219 L 20.613281 95.84375 Z M 19.9375 93.128906 C 19.9375 93.011719 19.917969 92.910156 19.875 92.824219 C 19.835938 92.738281 19.777344 92.667969 19.699219 92.617188 C 19.628906 92.5625 19.539062 92.519531 19.429688 92.488281 C 19.320312 92.460938 19.195312 92.445312 19.058594 92.445312 L 17.832031 92.445312 L 17.832031 93.851562 L 19.082031 93.851562 C 19.234375 93.851562 19.363281 93.835938 19.472656 93.796875 C 19.582031 93.761719 19.667969 93.710938 19.734375 93.648438 C 19.804688 93.582031 19.855469 93.507812 19.886719 93.417969 C 19.921875 93.328125 19.9375 93.230469 19.9375 93.128906 Z M 19.9375 93.128906 "/>
<path style=" stroke:none;fill-rule:nonzero;fill:rgb(0%,0%,0%);fill-opacity:1;" d="M 21.460938 95.84375 L 21.460938 95.433594 L 22.4375 95.433594 L 22.4375 92.5 L 21.566406 93.105469 L 21.566406 92.652344 L 22.480469 92.035156 L 22.925781 92.035156 L 22.925781 95.433594 L 23.859375 95.433594 L 23.859375 95.84375 Z M 21.460938 95.84375 "/>
<path style=" stroke:none;fill-rule:nonzero;fill:rgb(0%,0%,0%);fill-opacity:1;" d="M 24.527344 93.527344 L 24.527344 93.128906 L 27.234375 93.128906 L 27.234375 93.527344 Z M 24.527344 94.914062 L 24.527344 94.511719 L 27.234375 94.511719 L 27.234375 94.914062 Z M 24.527344 94.914062 "/>
<path style=" stroke:none;fill-rule:nonzero;fill:rgb(0%,0%,0%);fill-opacity:1;" d="M 17.308594 98.15625 L 17.308594 97.949219 L 18.472656 97.453125 L 17.308594 96.953125 L 17.308594 96.75 L 18.65625 97.3125 L 18.65625 97.59375 Z M 17.308594 98.15625 "/>
<path style=" stroke:none;fill-rule:nonzero;fill:rgb(0%,0%,0%);fill-opacity:1;" d="M 20.296875 97.410156 C 20.296875 97.589844 20.277344 97.746094 20.242188 97.875 C 20.214844 98 20.167969 98.097656 20.101562 98.175781 C 20.042969 98.25 19.972656 98.304688 19.894531 98.339844 C 19.8125 98.375 19.726562 98.394531 19.632812 98.394531 C 19.539062 98.394531 19.453125 98.375 19.375 98.339844 C 19.292969 98.304688 19.222656 98.25 19.15625 98.175781 C 19.097656 98.097656 19.050781 98 19.015625 97.875 C 18.984375 97.746094 18.972656 97.589844 18.972656 97.410156 C 18.972656 97.214844 18.984375 97.058594 19.015625 96.933594 C 19.050781 96.800781 19.097656 96.703125 19.15625 96.628906 C 19.222656 96.558594 19.292969 96.507812 19.375 96.476562 C 19.453125 96.441406 19.542969 96.421875 19.644531 96.421875 C 19.730469 96.421875 19.8125 96.441406 19.894531 96.476562 C 19.972656 96.507812 20.042969 96.558594 20.101562 96.628906 C 20.167969 96.703125 20.214844 96.800781 20.242188 96.933594 C 20.277344 97.058594 20.296875 97.214844 20.296875 97.410156 Z M 20.058594 97.410156 C 20.058594 97.257812 20.046875 97.132812 20.027344 97.03125 C 20.007812 96.929688 19.984375 96.851562 19.949219 96.792969 C 19.910156 96.726562 19.867188 96.683594 19.820312 96.660156 C 19.765625 96.632812 19.710938 96.617188 19.644531 96.617188 C 19.570312 96.617188 19.507812 96.632812 19.460938 96.660156 C 19.410156 96.683594 19.367188 96.726562 19.332031 96.792969 C 19.292969 96.851562 19.265625 96.929688 19.242188 97.03125 C 19.226562 97.132812 19.222656 97.257812 19.222656 97.410156 C 19.222656 97.554688 19.226562 97.675781 19.242188 97.777344 C 19.265625 97.878906 19.292969 97.960938 19.332031 98.027344 C 19.367188 98.085938 19.410156 98.128906 19.460938 98.15625 C 19.507812 98.175781 19.570312 98.1875 19.632812 98.1875 C 19.699219 98.1875 19.757812 98.175781 19.808594 98.15625 C 19.855469 98.128906 19.902344 98.085938 19.9375 98.027344 C 19.972656 97.960938 20.003906 97.878906 20.027344 97.777344 C 20.046875 97.675781 20.058594 97.554688 20.058594 97.410156 Z M 20.058594 97.410156 "/>
<path style=" stroke:none;fill-rule:nonzero;fill:rgb(0%,0%,0%);fill-opacity:1;" d="M 50.5 94.90625 C 50.5 95.203125 50.457031 95.472656 50.371094 95.71875 C 50.285156 95.964844 50.15625 96.171875 49.992188 96.34375 C 49.832031 96.519531 49.632812 96.652344 49.394531 96.746094 C 49.160156 96.835938 48.898438 96.886719 48.601562 96.886719 C 48.28125 96.886719 48.003906 96.835938 47.765625 96.746094 C 47.53125 96.644531 47.335938 96.507812 47.175781 96.335938 C 47.015625 96.15625 46.898438 95.945312 46.820312 95.707031 C 46.738281 95.460938 46.699219 95.195312 46.699219 94.90625 C 46.699219 94.609375 46.738281 94.34375 46.820312 94.105469 C 46.90625 93.859375 47.027344 93.65625 47.1875 93.488281 C 47.355469 93.320312 47.550781 93.191406 47.785156 93.097656 C 48.023438 93.003906 48.296875 92.957031 48.601562 92.957031 C 48.90625 92.957031 49.175781 93.003906 49.414062 93.097656 C 49.65625 93.191406 49.851562 93.324219 50.011719 93.496094 C 50.171875 93.664062 50.289062 93.867188 50.371094 94.105469 C 50.457031 94.34375 50.5 94.609375 50.5 94.90625 Z M 49.96875 94.90625 C 49.96875 94.675781 49.941406 94.464844 49.882812 94.277344 C 49.824219 94.089844 49.734375 93.929688 49.621094 93.800781 C 49.503906 93.664062 49.359375 93.558594 49.1875 93.488281 C 49.019531 93.417969 48.824219 93.378906 48.601562 93.378906 C 48.375 93.378906 48.175781 93.417969 48.003906 93.488281 C 47.828125 93.558594 47.683594 93.664062 47.566406 93.800781 C 47.460938 93.929688 47.375 94.089844 47.320312 94.277344 C 47.257812 94.464844 47.230469 94.675781 47.230469 94.90625 C 47.230469 95.136719 47.257812 95.347656 47.320312 95.542969 C 47.375 95.734375 47.460938 95.894531 47.578125 96.03125 C 47.691406 96.167969 47.835938 96.277344 48.003906 96.355469 C 48.175781 96.429688 48.375 96.464844 48.601562 96.464844 C 48.839844 96.464844 49.046875 96.429688 49.21875 96.355469 C 49.394531 96.277344 49.535156 96.167969 49.644531 96.03125 C 49.753906 95.886719 49.832031 95.722656 49.882812 95.53125 C 49.941406 95.339844 49.96875 95.128906 49.96875 94.90625 Z M 49.96875 94.90625 "/>
<path style=" stroke:none;fill-rule:nonzero;fill:rgb(0%,0%,0%);fill-opacity:1;" d="M 48.757812 89.546875 L 49.476562 89.277344 L 49.59375 89.632812 L 48.835938 89.828125 L 49.332031 90.5 L 49.007812 90.695312 L 48.605469 90 L 48.183594 90.695312 L 47.855469 90.5 L 48.367188 89.828125 L 47.605469 89.632812 L 47.738281 89.265625 L 48.453125 89.558594 L 48.421875 88.757812 L 48.789062 88.757812 Z M 48.757812 89.546875 "/>
<path style=" stroke:none;fill-rule:nonzero;fill:rgb(0%,0%,0%);fill-opacity:1;" d="M 77.71875 108.597656 L 78.4375 108.328125 L 78.558594 108.683594 L 77.796875 108.878906 L 78.296875 109.550781 L 77.96875 109.746094 L 77.570312 109.050781 L 77.144531 109.746094 L 76.820312 109.550781 L 77.328125 108.878906 L 76.570312 108.683594 L 76.699219 108.316406 L 77.417969 108.609375 L 77.382812 107.808594 L 77.753906 107.808594 Z M 77.71875 108.597656 "/>
<path style=" stroke:none;fill-rule:nonzero;fill:rgb(0%,0%,0%);fill-opacity:1;" d="M 92.101562 93.449219 C 91.886719 93.449219 91.691406 93.488281 91.527344 93.558594 C 91.359375 93.628906 91.21875 93.734375 91.101562 93.871094 C 90.996094 94 90.910156 94.160156 90.851562 94.347656 C 90.792969 94.539062 90.765625 94.746094 90.765625 94.976562 C 90.765625 95.207031 90.792969 95.417969 90.851562 95.613281 C 90.917969 95.804688 91.007812 95.964844 91.125 96.101562 C 91.238281 96.238281 91.378906 96.347656 91.546875 96.425781 C 91.722656 96.5 91.914062 96.535156 92.125 96.535156 C 92.277344 96.535156 92.410156 96.519531 92.527344 96.480469 C 92.648438 96.4375 92.761719 96.378906 92.863281 96.308594 C 92.964844 96.238281 93.050781 96.152344 93.125 96.058594 C 93.203125 95.964844 93.269531 95.859375 93.332031 95.734375 L 93.753906 95.949219 C 93.6875 96.097656 93.605469 96.230469 93.503906 96.351562 C 93.402344 96.476562 93.28125 96.582031 93.144531 96.675781 C 93.007812 96.761719 92.851562 96.832031 92.679688 96.882812 C 92.503906 96.929688 92.3125 96.957031 92.101562 96.957031 C 91.789062 96.957031 91.519531 96.90625 91.289062 96.816406 C 91.054688 96.714844 90.859375 96.578125 90.703125 96.40625 C 90.550781 96.226562 90.433594 96.015625 90.355469 95.777344 C 90.273438 95.53125 90.234375 95.265625 90.234375 94.976562 C 90.234375 94.679688 90.273438 94.414062 90.355469 94.175781 C 90.441406 93.929688 90.5625 93.726562 90.722656 93.558594 C 90.878906 93.390625 91.074219 93.261719 91.308594 93.167969 C 91.539062 93.074219 91.804688 93.027344 92.101562 93.027344 C 92.507812 93.027344 92.84375 93.109375 93.113281 93.265625 C 93.386719 93.425781 93.589844 93.664062 93.722656 93.980469 L 93.234375 94.140625 C 93.195312 94.050781 93.144531 93.964844 93.082031 93.882812 C 93.019531 93.796875 92.945312 93.726562 92.851562 93.664062 C 92.757812 93.601562 92.648438 93.550781 92.527344 93.515625 C 92.402344 93.472656 92.261719 93.449219 92.101562 93.449219 Z M 92.101562 93.449219 "/>
<path style=" stroke:none;fill-rule:nonzero;fill:rgb(0%,0%,0%);fill-opacity:1;" d="M 94.515625 96.902344 L 94.515625 92.886719 L 95.003906 92.886719 L 95.003906 96.902344 Z M 94.515625 96.902344 "/>
<path style=" stroke:none;fill-rule:nonzero;fill:rgb(0%,0%,0%);fill-opacity:1;" d="M 61.992188 93.449219 C 61.773438 93.449219 61.582031 93.488281 61.414062 93.558594 C 61.246094 93.628906 61.105469 93.734375 60.992188 93.871094 C 60.882812 94 60.800781 94.160156 60.742188 94.347656 C 60.683594 94.539062 60.65625 94.746094 60.65625 94.976562 C 60.65625 95.207031 60.683594 95.417969 60.742188 95.613281 C 60.808594 95.804688 60.898438 95.964844 61.011719 96.101562 C 61.128906 96.238281 61.269531 96.347656 61.4375 96.425781 C 61.609375 96.5 61.800781 96.535156 62.011719 96.535156 C 62.164062 96.535156 62.296875 96.519531 62.414062 96.480469 C 62.539062 96.4375 62.648438 96.378906 62.75 96.308594 C 62.851562 96.238281 62.9375 96.152344 63.011719 96.058594 C 63.089844 95.964844 63.160156 95.859375 63.21875 95.734375 L 63.644531 95.949219 C 63.578125 96.097656 63.492188 96.230469 63.394531 96.351562 C 63.289062 96.476562 63.171875 96.582031 63.035156 96.675781 C 62.894531 96.761719 62.742188 96.832031 62.566406 96.882812 C 62.394531 96.929688 62.199219 96.957031 61.992188 96.957031 C 61.679688 96.957031 61.40625 96.90625 61.175781 96.816406 C 60.941406 96.714844 60.746094 96.578125 60.589844 96.40625 C 60.4375 96.226562 60.320312 96.015625 60.242188 95.777344 C 60.160156 95.53125 60.121094 95.265625 60.121094 94.976562 C 60.121094 94.679688 60.160156 94.414062 60.242188 94.175781 C 60.328125 93.929688 60.449219 93.726562 60.613281 93.558594 C 60.769531 93.390625 60.964844 93.261719 61.199219 93.167969 C 61.429688 93.074219 61.691406 93.027344 61.992188 93.027344 C 62.394531 93.027344 62.734375 93.109375 63 93.265625 C 63.277344 93.425781 63.480469 93.664062 63.609375 93.980469 L 63.121094 94.140625 C 63.082031 94.050781 63.035156 93.964844 62.96875 93.882812 C 62.910156 93.796875 62.832031 93.726562 62.742188 93.664062 C 62.644531 93.601562 62.539062 93.550781 62.414062 93.515625 C 62.289062 93.472656 62.148438 93.449219 61.992188 93.449219 Z M 61.992188 93.449219 "/>
<path style=" stroke:none;fill-rule:nonzero;fill:rgb(0%,0%,0%);fill-opacity:1;" d="M 64.402344 96.902344 L 64.402344 92.886719 L 64.890625 92.886719 L 64.890625 96.902344 Z M 64.402344 96.902344 "/>
<path style=" stroke:none;fill-rule:nonzero;fill:rgb(0%,0%,0%);fill-opacity:1;" d="M 77.046875 84.789062 C 76.828125 84.789062 76.636719 84.828125 76.472656 84.898438 C 76.304688 84.96875 76.160156 85.074219 76.046875 85.210938 C 75.9375 85.339844 75.855469 85.5 75.796875 85.6875 C 75.738281 85.875 75.710938 86.085938 75.710938 86.316406 C 75.710938 86.546875 75.738281 86.757812 75.796875 86.953125 C 75.863281 87.144531 75.953125 87.304688 76.070312 87.441406 C 76.183594 87.578125 76.324219 87.6875 76.492188 87.765625 C 76.667969 87.839844 76.855469 87.875 77.070312 87.875 C 77.222656 87.875 77.355469 87.859375 77.472656 87.820312 C 77.59375 87.777344 77.703125 87.71875 77.808594 87.644531 C 77.90625 87.574219 77.996094 87.492188 78.066406 87.398438 C 78.148438 87.304688 78.214844 87.195312 78.273438 87.074219 L 78.699219 87.289062 C 78.632812 87.433594 78.550781 87.566406 78.449219 87.691406 C 78.34375 87.8125 78.226562 87.921875 78.089844 88.015625 C 77.953125 88.101562 77.796875 88.171875 77.621094 88.21875 C 77.449219 88.269531 77.257812 88.296875 77.046875 88.296875 C 76.734375 88.296875 76.464844 88.246094 76.230469 88.15625 C 76 88.054688 75.804688 87.917969 75.644531 87.742188 C 75.492188 87.566406 75.375 87.355469 75.296875 87.117188 C 75.214844 86.871094 75.179688 86.605469 75.179688 86.316406 C 75.179688 86.019531 75.214844 85.75 75.296875 85.515625 C 75.382812 85.269531 75.507812 85.0625 75.667969 84.898438 C 75.824219 84.730469 76.019531 84.601562 76.253906 84.507812 C 76.484375 84.414062 76.75 84.367188 77.046875 84.367188 C 77.453125 84.367188 77.789062 84.449219 78.058594 84.605469 C 78.332031 84.765625 78.535156 85.003906 78.664062 85.320312 L 78.175781 85.480469 C 78.140625 85.390625 78.089844 85.300781 78.023438 85.222656 C 77.964844 85.136719 77.890625 85.0625 77.796875 85.003906 C 77.703125 84.941406 77.59375 84.890625 77.472656 84.851562 C 77.347656 84.808594 77.203125 84.789062 77.046875 84.789062 Z M 77.046875 84.789062 "/>
<path style=" stroke:none;fill-rule:nonzero;fill:rgb(0%,0%,0%);fill-opacity:1;" d="M 79.457031 88.242188 L 79.457031 84.226562 L 79.945312 84.226562 L 79.945312 88.242188 Z M 79.457031 88.242188 "/>
<path style="fill:none;stroke-width:0.0333333;stroke-linecap:butt;stroke-linejoin:miter;stroke:rgb(0%,0%,0%);stroke-opacity:1;stroke-miterlimit:10;" d="M 0.874324 1.004966 L 0.204912 0.618207 " transform="matrix(17.383513,0,0,17.321429,62.508214,86.260526)"/>
<path style="fill:none;stroke-width:0.0333333;stroke-linecap:butt;stroke-linejoin:miter;stroke:rgb(0%,0%,0%);stroke-opacity:1;stroke-miterlimit:10;" d="M 0.857695 1.004966 L 1.527106 0.618207 " transform="matrix(17.383513,0,0,17.321429,62.508214,86.260526)"/>
<path style="fill:none;stroke-width:0.0333333;stroke-linecap:butt;stroke-linejoin:miter;stroke:rgb(0%,0%,0%);stroke-opacity:1;stroke-miterlimit:10;" d="M 0.866009 1.000004 L 0.866009 0.160861 " transform="matrix(17.383513,0,0,17.321429,62.508214,86.260526)"/>
<path style=" stroke:none;fill-rule:nonzero;fill:rgb(0%,0%,0%);fill-opacity:1;" d="M 20.015625 130.550781 L 19.027344 128.972656 L 17.832031 128.972656 L 17.832031 130.550781 L 17.308594 130.550781 L 17.308594 126.742188 L 19.113281 126.742188 C 19.332031 126.742188 19.519531 126.769531 19.691406 126.816406 C 19.855469 126.859375 19.996094 126.929688 20.113281 127.023438 C 20.226562 127.117188 20.3125 127.234375 20.375 127.371094 C 20.429688 127.507812 20.460938 127.660156 20.460938 127.824219 C 20.460938 127.949219 20.441406 128.070312 20.40625 128.191406 C 20.367188 128.308594 20.3125 128.417969 20.234375 128.515625 C 20.160156 128.613281 20.0625 128.695312 19.949219 128.765625 C 19.832031 128.832031 19.691406 128.878906 19.527344 128.90625 L 20.613281 130.550781 Z M 19.9375 127.835938 C 19.9375 127.722656 19.917969 127.617188 19.875 127.53125 C 19.835938 127.445312 19.777344 127.378906 19.699219 127.324219 C 19.628906 127.269531 19.539062 127.226562 19.429688 127.195312 C 19.320312 127.167969 19.195312 127.152344 19.058594 127.152344 L 17.832031 127.152344 L 17.832031 128.558594 L 19.082031 128.558594 C 19.234375 128.558594 19.363281 128.542969 19.472656 128.507812 C 19.582031 128.472656 19.667969 128.417969 19.734375 128.355469 C 19.804688 128.289062 19.855469 128.214844 19.886719 128.128906 C 19.921875 128.035156 19.9375 127.9375 19.9375 127.835938 Z M 19.9375 127.835938 "/>
<path style=" stroke:none;fill-rule:nonzero;fill:rgb(0%,0%,0%);fill-opacity:1;" d="M 21.316406 130.550781 L 21.316406 130.207031 C 21.410156 129.996094 21.523438 129.8125 21.65625 129.652344 C 21.785156 129.488281 21.921875 129.339844 22.066406 129.210938 C 22.21875 129.078125 22.367188 128.960938 22.511719 128.851562 C 22.65625 128.738281 22.789062 128.625 22.90625 128.515625 C 23.019531 128.402344 23.109375 128.285156 23.175781 128.160156 C 23.246094 128.039062 23.285156 127.898438 23.285156 127.738281 C 23.285156 127.628906 23.265625 127.539062 23.230469 127.457031 C 23.199219 127.378906 23.15625 127.308594 23.089844 127.25 C 23.03125 127.195312 22.957031 127.148438 22.871094 127.121094 C 22.789062 127.09375 22.699219 127.078125 22.589844 127.078125 C 22.496094 127.078125 22.40625 127.09375 22.316406 127.121094 C 22.230469 127.148438 22.148438 127.195312 22.078125 127.25 C 22.015625 127.300781 21.960938 127.367188 21.914062 127.445312 C 21.878906 127.527344 21.851562 127.617188 21.839844 127.726562 L 21.339844 127.683594 C 21.355469 127.546875 21.390625 127.417969 21.449219 127.292969 C 21.515625 127.171875 21.59375 127.066406 21.699219 126.980469 C 21.808594 126.886719 21.933594 126.816406 22.078125 126.761719 C 22.222656 126.707031 22.394531 126.675781 22.589844 126.675781 C 22.777344 126.675781 22.941406 126.703125 23.089844 126.753906 C 23.242188 126.796875 23.367188 126.859375 23.46875 126.945312 C 23.578125 127.035156 23.65625 127.140625 23.707031 127.273438 C 23.765625 127.402344 23.796875 127.554688 23.796875 127.726562 C 23.796875 127.855469 23.769531 127.980469 23.71875 128.09375 C 23.675781 128.210938 23.613281 128.320312 23.535156 128.429688 C 23.460938 128.53125 23.375 128.632812 23.273438 128.734375 C 23.171875 128.828125 23.0625 128.921875 22.949219 129.015625 C 22.839844 129.101562 22.726562 129.195312 22.609375 129.285156 C 22.503906 129.378906 22.398438 129.476562 22.296875 129.566406 C 22.199219 129.652344 22.113281 129.746094 22.035156 129.835938 C 21.953125 129.933594 21.894531 130.03125 21.851562 130.140625 L 23.851562 130.140625 L 23.851562 130.550781 Z M 21.316406 130.550781 "/>
<path style=" stroke:none;fill-rule:nonzero;fill:rgb(0%,0%,0%);fill-opacity:1;" d="M 24.527344 128.234375 L 24.527344 127.835938 L 27.234375 127.835938 L 27.234375 128.234375 Z M 24.527344 129.621094 L 24.527344 129.21875 L 27.234375 129.21875 L 27.234375 129.621094 Z M 24.527344 129.621094 "/>
<path style=" stroke:none;fill-rule:nonzero;fill:rgb(0%,0%,0%);fill-opacity:1;" d="M 17.308594 132.828125 L 17.308594 132.621094 L 18.472656 132.125 L 17.308594 131.625 L 17.308594 131.421875 L 18.65625 131.984375 L 18.65625 132.265625 Z M 17.308594 132.828125 "/>
<path style=" stroke:none;fill-rule:nonzero;fill:rgb(0%,0%,0%);fill-opacity:1;" d="M 19.082031 133.035156 L 19.082031 132.828125 L 19.558594 132.828125 L 19.558594 131.355469 L 19.132812 131.671875 L 19.132812 131.433594 L 19.578125 131.128906 L 19.808594 131.128906 L 19.808594 132.828125 L 20.277344 132.828125 L 20.277344 133.035156 Z M 19.082031 133.035156 "/>
<path style=" stroke:none;fill-rule:nonzero;fill:rgb(0%,0%,0%);fill-opacity:1;" d="M 48.984375 130.394531 C 48.984375 130.585938 48.941406 130.746094 48.863281 130.882812 C 48.789062 131.019531 48.691406 131.132812 48.558594 131.21875 C 48.429688 131.304688 48.277344 131.371094 48.101562 131.414062 C 47.933594 131.449219 47.757812 131.46875 47.570312 131.46875 L 46.015625 131.46875 L 46.015625 127.65625 L 47.40625 127.65625 C 47.617188 127.65625 47.804688 127.675781 47.972656 127.710938 C 48.140625 127.738281 48.28125 127.792969 48.398438 127.871094 C 48.511719 127.945312 48.597656 128.042969 48.65625 128.164062 C 48.722656 128.28125 48.753906 128.417969 48.753906 128.578125 C 48.753906 128.683594 48.738281 128.789062 48.710938 128.878906 C 48.683594 128.972656 48.636719 129.0625 48.570312 129.140625 C 48.511719 129.210938 48.433594 129.277344 48.34375 129.335938 C 48.253906 129.386719 48.148438 129.425781 48.027344 129.453125 C 48.179688 129.476562 48.3125 129.511719 48.429688 129.5625 C 48.550781 129.613281 48.652344 129.679688 48.734375 129.765625 C 48.8125 129.847656 48.875 129.941406 48.917969 130.046875 C 48.960938 130.152344 48.984375 130.265625 48.984375 130.394531 Z M 48.234375 128.640625 C 48.234375 128.433594 48.160156 128.285156 48.015625 128.199219 C 47.878906 128.109375 47.675781 128.066406 47.40625 128.066406 L 46.539062 128.066406 L 46.539062 129.269531 L 47.40625 129.269531 C 47.558594 129.269531 47.683594 129.253906 47.789062 129.226562 C 47.898438 129.199219 47.984375 129.160156 48.050781 129.105469 C 48.113281 129.050781 48.160156 128.980469 48.191406 128.902344 C 48.21875 128.824219 48.234375 128.734375 48.234375 128.640625 Z M 48.449219 130.351562 C 48.449219 130.230469 48.429688 130.128906 48.386719 130.046875 C 48.34375 129.960938 48.277344 129.894531 48.191406 129.84375 C 48.109375 129.785156 48.011719 129.746094 47.898438 129.722656 C 47.78125 129.695312 47.648438 129.679688 47.507812 129.679688 L 46.539062 129.679688 L 46.539062 131.054688 L 47.550781 131.054688 C 47.679688 131.054688 47.800781 131.042969 47.90625 131.023438 C 48.023438 131 48.121094 130.964844 48.203125 130.914062 C 48.28125 130.859375 48.34375 130.785156 48.386719 130.699219 C 48.429688 130.605469 48.449219 130.488281 48.449219 130.351562 Z M 48.449219 130.351562 "/>
<path style=" stroke:none;fill-rule:nonzero;fill:rgb(0%,0%,0%);fill-opacity:1;" d="M 49.816406 131.46875 L 49.816406 129.214844 C 49.816406 129.160156 49.808594 129.097656 49.804688 129.03125 C 49.804688 128.964844 49.804688 128.90625 49.804688 128.847656 C 49.804688 128.789062 49.796875 128.734375 49.792969 128.683594 C 49.792969 128.628906 49.792969 128.578125 49.792969 128.53125 L 50.261719 128.53125 C 50.261719 128.578125 50.261719 128.628906 50.261719 128.683594 C 50.265625 128.734375 50.269531 128.789062 50.269531 128.847656 C 50.269531 128.898438 50.269531 128.953125 50.269531 129.007812 C 50.277344 129.0625 50.28125 129.105469 50.28125 129.140625 L 50.292969 129.140625 C 50.320312 129.027344 50.351562 128.929688 50.390625 128.847656 C 50.433594 128.761719 50.480469 128.691406 50.53125 128.640625 C 50.589844 128.59375 50.652344 128.550781 50.726562 128.523438 C 50.796875 128.496094 50.886719 128.480469 50.988281 128.480469 C 51.023438 128.480469 51.058594 128.484375 51.097656 128.488281 C 51.132812 128.496094 51.160156 128.507812 51.183594 128.511719 L 51.183594 128.957031 C 51.152344 128.949219 51.117188 128.945312 51.074219 128.945312 C 51.03125 128.9375 50.980469 128.933594 50.921875 128.933594 C 50.8125 128.933594 50.71875 128.960938 50.640625 129.007812 C 50.558594 129.0625 50.492188 129.128906 50.445312 129.214844 C 50.394531 129.300781 50.359375 129.410156 50.335938 129.539062 C 50.316406 129.664062 50.304688 129.796875 50.304688 129.941406 L 50.304688 131.46875 Z M 49.816406 131.46875 "/>
<path style=" stroke:none;fill-rule:nonzero;fill:rgb(0%,0%,0%);fill-opacity:1;" d="M 48.757812 124.1875 L 49.476562 123.914062 L 49.59375 124.273438 L 48.835938 124.46875 L 49.332031 125.140625 L 49.007812 125.335938 L 48.605469 124.640625 L 48.183594 125.335938 L 47.855469 125.140625 L 48.367188 124.46875 L 47.605469 124.273438 L 47.738281 123.90625 L 48.453125 124.199219 L 48.421875 123.394531 L 48.789062 123.394531 Z M 48.757812 124.1875 "/>
<path style=" stroke:none;fill-rule:nonzero;fill:rgb(0%,0%,0%);fill-opacity:1;" d="M 64.410156 129.546875 C 64.410156 129.84375 64.363281 130.113281 64.277344 130.355469 C 64.191406 130.605469 64.0625 130.8125 63.898438 130.984375 C 63.738281 131.160156 63.539062 131.292969 63.300781 131.386719 C 63.066406 131.476562 62.804688 131.527344 62.507812 131.527344 C 62.1875 131.527344 61.910156 131.476562 61.671875 131.386719 C 61.4375 131.285156 61.242188 131.148438 61.085938 130.972656 C 60.921875 130.796875 60.804688 130.585938 60.726562 130.347656 C 60.644531 130.101562 60.605469 129.835938 60.605469 129.546875 C 60.605469 129.25 60.644531 128.980469 60.726562 128.746094 C 60.8125 128.5 60.933594 128.296875 61.09375 128.128906 C 61.261719 127.960938 61.457031 127.832031 61.691406 127.738281 C 61.929688 127.644531 62.203125 127.597656 62.507812 127.597656 C 62.8125 127.597656 63.082031 127.644531 63.320312 127.738281 C 63.5625 127.832031 63.757812 127.964844 63.917969 128.136719 C 64.078125 128.304688 64.195312 128.507812 64.277344 128.746094 C 64.363281 128.980469 64.410156 129.25 64.410156 129.546875 Z M 63.875 129.546875 C 63.875 129.316406 63.847656 129.105469 63.789062 128.917969 C 63.730469 128.730469 63.644531 128.570312 63.527344 128.441406 C 63.410156 128.304688 63.269531 128.199219 63.09375 128.128906 C 62.925781 128.058594 62.730469 128.019531 62.507812 128.019531 C 62.28125 128.019531 62.082031 128.058594 61.910156 128.128906 C 61.734375 128.199219 61.589844 128.304688 61.476562 128.441406 C 61.367188 128.570312 61.28125 128.730469 61.226562 128.917969 C 61.164062 129.105469 61.136719 129.316406 61.136719 129.546875 C 61.136719 129.777344 61.164062 129.988281 61.226562 130.183594 C 61.28125 130.375 61.371094 130.535156 61.484375 130.671875 C 61.601562 130.808594 61.742188 130.917969 61.910156 130.996094 C 62.082031 131.070312 62.28125 131.105469 62.507812 131.105469 C 62.746094 131.105469 62.953125 131.070312 63.125 130.996094 C 63.300781 130.917969 63.441406 130.808594 63.550781 130.671875 C 63.660156 130.527344 63.738281 130.363281 63.789062 130.171875 C 63.847656 129.976562 63.875 129.769531 63.875 129.546875 Z M 63.875 129.546875 "/>
<path style=" stroke:none;fill-rule:nonzero;fill:rgb(0%,0%,0%);fill-opacity:1;" d="M 62.664062 124.1875 L 63.382812 123.914062 L 63.5 124.273438 L 62.742188 124.46875 L 63.242188 125.140625 L 62.914062 125.335938 L 62.511719 124.640625 L 62.089844 125.335938 L 61.761719 125.140625 L 62.273438 124.46875 L 61.511719 124.273438 L 61.644531 123.90625 L 62.359375 124.199219 L 62.328125 123.394531 L 62.699219 123.394531 Z M 62.664062 124.1875 "/>
<path style=" stroke:none;fill-rule:nonzero;fill:rgb(0%,0%,0%);fill-opacity:1;" d="M 91.628906 143.238281 L 92.34375 142.96875 L 92.464844 143.328125 L 91.703125 143.523438 L 92.203125 144.191406 L 91.878906 144.386719 L 91.476562 143.695312 L 91.050781 144.386719 L 90.726562 144.191406 L 91.234375 143.523438 L 90.476562 143.328125 L 90.605469 142.957031 L 91.324219 143.25 L 91.289062 142.449219 L 91.660156 142.449219 Z M 91.628906 143.238281 "/>
<path style=" stroke:none;fill-rule:nonzero;fill:rgb(0%,0%,0%);fill-opacity:1;" d="M 105.6875 128.078125 L 105.6875 129.496094 L 107.816406 129.496094 L 107.816406 129.917969 L 105.6875 129.917969 L 105.6875 131.46875 L 105.164062 131.46875 L 105.164062 127.65625 L 107.882812 127.65625 L 107.882812 128.078125 Z M 105.6875 128.078125 "/>
<path style=" stroke:none;fill-rule:nonzero;fill:rgb(0%,0%,0%);fill-opacity:1;" d="M 75.578125 128.078125 L 75.578125 129.496094 L 77.707031 129.496094 L 77.707031 129.917969 L 75.578125 129.917969 L 75.578125 131.46875 L 75.054688 131.46875 L 75.054688 127.65625 L 77.773438 127.65625 L 77.773438 128.078125 Z M 75.578125 128.078125 "/>
<path style=" stroke:none;fill-rule:nonzero;fill:rgb(0%,0%,0%);fill-opacity:1;" d="M 90.632812 119.417969 L 90.632812 120.835938 L 92.761719 120.835938 L 92.761719 121.257812 L 90.632812 121.257812 L 90.632812 122.804688 L 90.113281 122.804688 L 90.113281 118.996094 L 92.828125 118.996094 L 92.828125 119.417969 Z M 90.632812 119.417969 "/>
<path style="fill:none;stroke-width:0.0333333;stroke-linecap:butt;stroke-linejoin:miter;stroke:rgb(0%,0%,0%);stroke-opacity:1;stroke-miterlimit:10;" d="M 0.874292 1.004633 L 0.157466 0.591038 " transform="matrix(17.383513,0,0,17.321429,76.415023,120.903003)"/>
<path style="fill:none;stroke-width:0.0333333;stroke-linecap:butt;stroke-linejoin:miter;stroke:rgb(0%,0%,0%);stroke-opacity:1;stroke-miterlimit:10;" d="M 0.857663 1.004633 L 1.574713 0.591038 " transform="matrix(17.383513,0,0,17.321429,76.415023,120.903003)"/>
<path style="fill:none;stroke-width:0.0333333;stroke-linecap:butt;stroke-linejoin:miter;stroke:rgb(0%,0%,0%);stroke-opacity:1;stroke-miterlimit:10;" d="M 0.865977 1.000123 L 0.865977 0.153312 " transform="matrix(17.383513,0,0,17.321429,76.415023,120.903003)"/>
</g>
</svg>
