<?xml version="1.0" encoding="UTF-8"?>
<svg xmlns="http://www.w3.org/2000/svg" xmlns:xlink="http://www.w3.org/1999/xlink" width="138.4pt" height="125.6pt" viewBox="0 0 138.4 125.6" version="1.1">
<g id="surface1847">
<path style=" stroke:none;fill-rule:nonzero;fill:rgb(0%,0%,0%);fill-opacity:1;" d="M 44.832031 18.351562 C 44.832031 18.652344 44.789062 18.921875 44.703125 19.167969 C 44.613281 19.414062 44.488281 19.621094 44.324219 19.796875 C 44.164062 19.96875 43.964844 20.105469 43.726562 20.199219 C 43.496094 20.289062 43.234375 20.339844 42.9375 20.339844 C 42.621094 20.339844 42.34375 20.289062 42.105469 20.199219 C 41.875 20.097656 41.679688 19.957031 41.523438 19.785156 C 41.363281 19.605469 41.246094 19.394531 41.164062 19.15625 C 41.085938 18.910156 41.046875 18.644531 41.046875 18.351562 C 41.046875 18.054688 41.085938 17.789062 41.164062 17.550781 C 41.253906 17.304688 41.375 17.097656 41.535156 16.929688 C 41.699219 16.765625 41.894531 16.632812 42.128906 16.539062 C 42.367188 16.449219 42.636719 16.398438 42.9375 16.398438 C 43.242188 16.398438 43.511719 16.449219 43.75 16.539062 C 43.988281 16.632812 44.183594 16.765625 44.34375 16.941406 C 44.5 17.109375 44.621094 17.308594 44.703125 17.550781 C 44.789062 17.789062 44.832031 18.054688 44.832031 18.351562 Z M 44.300781 18.351562 C 44.300781 18.121094 44.273438 17.914062 44.214844 17.722656 C 44.15625 17.535156 44.070312 17.375 43.957031 17.246094 C 43.839844 17.109375 43.695312 17.003906 43.523438 16.929688 C 43.355469 16.859375 43.160156 16.820312 42.9375 16.820312 C 42.714844 16.820312 42.515625 16.859375 42.34375 16.929688 C 42.171875 17.003906 42.027344 17.109375 41.910156 17.246094 C 41.804688 17.375 41.71875 17.535156 41.664062 17.722656 C 41.605469 17.914062 41.578125 18.121094 41.578125 18.351562 C 41.578125 18.585938 41.605469 18.796875 41.664062 18.992188 C 41.71875 19.183594 41.804688 19.34375 41.921875 19.480469 C 42.035156 19.621094 42.175781 19.726562 42.34375 19.808594 C 42.515625 19.878906 42.714844 19.914062 42.9375 19.914062 C 43.175781 19.914062 43.382812 19.878906 43.554688 19.808594 C 43.726562 19.726562 43.867188 19.621094 43.976562 19.480469 C 44.085938 19.335938 44.164062 19.171875 44.214844 18.980469 C 44.273438 18.785156 44.300781 18.578125 44.300781 18.351562 Z M 44.300781 18.351562 "/>
<path style=" stroke:none;fill-rule:nonzero;fill:rgb(0%,0%,0%);fill-opacity:1;" d="M 44.832031 108.59375 C 44.832031 108.894531 44.789062 109.164062 44.703125 109.410156 C 44.613281 109.65625 44.488281 109.863281 44.324219 110.039062 C 44.164062 110.210938 43.964844 110.347656 43.726562 110.441406 C 43.496094 110.53125 43.234375 110.582031 42.9375 110.582031 C 42.621094 110.582031 42.34375 110.53125 42.105469 110.441406 C 41.875 110.339844 41.679688 110.199219 41.523438 110.027344 C 41.363281 109.847656 41.246094 109.636719 41.164062 109.398438 C 41.085938 109.152344 41.046875 108.882812 41.046875 108.59375 C 41.046875 108.296875 41.085938 108.03125 41.164062 107.789062 C 41.253906 107.546875 41.375 107.339844 41.535156 107.171875 C 41.699219 107.007812 41.894531 106.875 42.128906 106.78125 C 42.367188 106.6875 42.636719 106.640625 42.9375 106.640625 C 43.242188 106.640625 43.511719 106.6875 43.75 106.78125 C 43.988281 106.875 44.183594 107.007812 44.34375 107.183594 C 44.5 107.351562 44.621094 107.550781 44.703125 107.789062 C 44.789062 108.03125 44.832031 108.296875 44.832031 108.59375 Z M 44.300781 108.59375 C 44.300781 108.363281 44.273438 108.15625 44.214844 107.964844 C 44.15625 107.777344 44.070312 107.617188 43.957031 107.488281 C 43.839844 107.351562 43.695312 107.246094 43.523438 107.171875 C 43.355469 107.101562 43.160156 107.0625 42.9375 107.0625 C 42.714844 107.0625 42.515625 107.101562 42.34375 107.171875 C 42.171875 107.246094 42.027344 107.351562 41.910156 107.488281 C 41.804688 107.617188 41.71875 107.777344 41.664062 107.964844 C 41.605469 108.15625 41.578125 108.363281 41.578125 108.59375 C 41.578125 108.828125 41.605469 109.039062 41.664062 109.234375 C 41.71875 109.425781 41.804688 109.585938 41.921875 109.722656 C 42.035156 109.863281 42.175781 109.96875 42.34375 110.046875 C 42.515625 110.121094 42.714844 110.15625 42.9375 110.15625 C 43.175781 110.15625 43.382812 110.121094 43.554688 110.046875 C 43.726562 109.96875 43.867188 109.863281 43.976562 109.722656 C 44.085938 109.578125 44.164062 109.414062 44.214844 109.222656 C 44.273438 109.027344 44.300781 108.820312 44.300781 108.59375 Z M 44.300781 108.59375 "/>
<path style=" stroke:none;fill-rule:nonzero;fill:rgb(0%,0%,0%);fill-opacity:1;" d="M 62.132812 48.433594 C 62.132812 48.730469 62.089844 49.003906 62 49.246094 C 61.914062 49.492188 61.789062 49.703125 61.625 49.875 C 61.464844 50.050781 61.265625 50.1875 61.027344 50.277344 C 60.796875 50.371094 60.535156 50.417969 60.238281 50.417969 C 59.921875 50.417969 59.644531 50.371094 59.40625 50.277344 C 59.175781 50.179688 58.980469 50.039062 58.824219 49.867188 C 58.664062 49.6875 58.542969 49.476562 58.464844 49.234375 C 58.386719 48.992188 58.347656 48.722656 58.347656 48.433594 C 58.347656 48.136719 58.386719 47.867188 58.464844 47.628906 C 58.550781 47.386719 58.675781 47.179688 58.832031 47.011719 C 59 46.84375 59.195312 46.714844 59.429688 46.621094 C 59.667969 46.527344 59.9375 46.480469 60.238281 46.480469 C 60.542969 46.480469 60.8125 46.527344 61.050781 46.621094 C 61.289062 46.714844 61.484375 46.847656 61.644531 47.023438 C 61.800781 47.191406 61.921875 47.390625 62 47.628906 C 62.089844 47.867188 62.132812 48.136719 62.132812 48.433594 Z M 61.601562 48.433594 C 61.601562 48.203125 61.570312 47.992188 61.515625 47.804688 C 61.457031 47.617188 61.367188 47.457031 61.253906 47.324219 C 61.140625 47.191406 60.996094 47.085938 60.824219 47.011719 C 60.65625 46.941406 60.460938 46.902344 60.238281 46.902344 C 60.015625 46.902344 59.816406 46.941406 59.644531 47.011719 C 59.472656 47.085938 59.324219 47.191406 59.210938 47.324219 C 59.105469 47.457031 59.019531 47.617188 58.964844 47.804688 C 58.902344 47.992188 58.875 48.203125 58.875 48.433594 C 58.875 48.667969 58.902344 48.878906 58.964844 49.074219 C 59.019531 49.261719 59.105469 49.425781 59.222656 49.5625 C 59.335938 49.699219 59.476562 49.808594 59.644531 49.886719 C 59.816406 49.960938 60.015625 49.996094 60.238281 49.996094 C 60.476562 49.996094 60.683594 49.960938 60.855469 49.886719 C 61.027344 49.808594 61.167969 49.699219 61.277344 49.5625 C 61.386719 49.417969 61.464844 49.253906 61.515625 49.0625 C 61.570312 48.867188 61.601562 48.65625 61.601562 48.433594 Z M 61.601562 48.433594 "/>
<path style=" stroke:none;fill-rule:nonzero;fill:rgb(0%,0%,0%);fill-opacity:1;" d="M 18.882812 63.472656 C 18.882812 63.769531 18.839844 64.042969 18.75 64.285156 C 18.664062 64.53125 18.539062 64.742188 18.375 64.914062 C 18.214844 65.089844 18.015625 65.226562 17.777344 65.316406 C 17.546875 65.410156 17.285156 65.457031 16.988281 65.457031 C 16.671875 65.457031 16.394531 65.410156 16.15625 65.316406 C 15.925781 65.214844 15.730469 65.078125 15.574219 64.90625 C 15.414062 64.726562 15.292969 64.515625 15.214844 64.273438 C 15.136719 64.03125 15.097656 63.761719 15.097656 63.472656 C 15.097656 63.175781 15.136719 62.90625 15.214844 62.667969 C 15.300781 62.425781 15.425781 62.21875 15.582031 62.050781 C 15.75 61.882812 15.945312 61.753906 16.179688 61.660156 C 16.417969 61.566406 16.6875 61.519531 16.988281 61.519531 C 17.292969 61.519531 17.5625 61.566406 17.800781 61.660156 C 18.039062 61.753906 18.234375 61.886719 18.394531 62.0625 C 18.550781 62.230469 18.671875 62.429688 18.75 62.667969 C 18.839844 62.90625 18.882812 63.175781 18.882812 63.472656 Z M 18.351562 63.472656 C 18.351562 63.242188 18.320312 63.03125 18.265625 62.84375 C 18.207031 62.65625 18.117188 62.496094 18.003906 62.363281 C 17.890625 62.230469 17.746094 62.125 17.574219 62.050781 C 17.40625 61.980469 17.210938 61.941406 16.988281 61.941406 C 16.765625 61.941406 16.566406 61.980469 16.394531 62.050781 C 16.222656 62.125 16.074219 62.230469 15.960938 62.363281 C 15.855469 62.496094 15.769531 62.65625 15.714844 62.84375 C 15.652344 63.03125 15.625 63.242188 15.625 63.472656 C 15.625 63.707031 15.652344 63.917969 15.714844 64.113281 C 15.769531 64.300781 15.855469 64.464844 15.972656 64.601562 C 16.085938 64.738281 16.226562 64.847656 16.394531 64.925781 C 16.566406 65 16.765625 65.035156 16.988281 65.035156 C 17.226562 65.035156 17.433594 65 17.605469 64.925781 C 17.777344 64.847656 17.917969 64.738281 18.027344 64.601562 C 18.136719 64.457031 18.214844 64.292969 18.265625 64.101562 C 18.320312 63.90625 18.351562 63.695312 18.351562 63.472656 Z M 18.351562 63.472656 "/>
<path style=" stroke:none;fill-rule:nonzero;fill:rgb(0%,0%,0%);fill-opacity:1;" d="M 62.132812 78.511719 C 62.132812 78.8125 62.089844 79.082031 62 79.328125 C 61.914062 79.574219 61.789062 79.785156 61.625 79.957031 C 61.464844 80.132812 61.265625 80.265625 61.027344 80.359375 C 60.796875 80.449219 60.535156 80.5 60.238281 80.5 C 59.921875 80.5 59.644531 80.449219 59.40625 80.359375 C 59.175781 80.257812 58.980469 80.121094 58.824219 79.945312 C 58.664062 79.765625 58.542969 79.554688 58.464844 79.316406 C 58.386719 79.074219 58.347656 78.804688 58.347656 78.511719 C 58.347656 78.21875 58.386719 77.949219 58.464844 77.710938 C 58.550781 77.464844 58.675781 77.261719 58.832031 77.089844 C 59 76.925781 59.195312 76.796875 59.429688 76.699219 C 59.667969 76.609375 59.9375 76.558594 60.238281 76.558594 C 60.542969 76.558594 60.8125 76.609375 61.050781 76.699219 C 61.289062 76.796875 61.484375 76.929688 61.644531 77.101562 C 61.800781 77.269531 61.921875 77.472656 62 77.710938 C 62.089844 77.949219 62.132812 78.21875 62.132812 78.511719 Z M 61.601562 78.511719 C 61.601562 78.28125 61.570312 78.074219 61.515625 77.882812 C 61.457031 77.695312 61.367188 77.535156 61.253906 77.40625 C 61.140625 77.269531 60.996094 77.164062 60.824219 77.089844 C 60.65625 77.019531 60.460938 76.984375 60.238281 76.984375 C 60.015625 76.984375 59.816406 77.019531 59.644531 77.089844 C 59.472656 77.164062 59.324219 77.269531 59.210938 77.40625 C 59.105469 77.535156 59.019531 77.695312 58.964844 77.882812 C 58.902344 78.074219 58.875 78.28125 58.875 78.511719 C 58.875 78.746094 58.902344 78.957031 58.964844 79.152344 C 59.019531 79.34375 59.105469 79.507812 59.222656 79.640625 C 59.335938 79.78125 59.476562 79.890625 59.644531 79.96875 C 59.816406 80.042969 60.015625 80.078125 60.238281 80.078125 C 60.476562 80.078125 60.683594 80.042969 60.855469 79.96875 C 61.027344 79.890625 61.167969 79.78125 61.277344 79.640625 C 61.386719 79.5 61.464844 79.332031 61.515625 79.144531 C 61.570312 78.949219 61.601562 78.738281 61.601562 78.511719 Z M 61.601562 78.511719 "/>
<path style=" stroke:none;fill-rule:nonzero;fill:rgb(0%,0%,0%);fill-opacity:1;" d="M 106 17.109375 C 106 17.40625 105.957031 17.679688 105.871094 17.921875 C 105.785156 18.171875 105.65625 18.378906 105.492188 18.554688 C 105.332031 18.726562 105.136719 18.863281 104.898438 18.953125 C 104.664062 19.046875 104.402344 19.097656 104.109375 19.097656 C 103.789062 19.097656 103.511719 19.046875 103.277344 18.953125 C 103.042969 18.855469 102.847656 18.714844 102.691406 18.542969 C 102.53125 18.363281 102.414062 18.152344 102.335938 17.914062 C 102.253906 17.667969 102.214844 17.398438 102.214844 17.109375 C 102.214844 16.8125 102.253906 16.546875 102.335938 16.304688 C 102.421875 16.0625 102.542969 15.855469 102.703125 15.6875 C 102.867188 15.523438 103.066406 15.390625 103.296875 15.296875 C 103.535156 15.203125 103.804688 15.15625 104.109375 15.15625 C 104.410156 15.15625 104.679688 15.203125 104.917969 15.296875 C 105.15625 15.390625 105.355469 15.523438 105.515625 15.699219 C 105.671875 15.867188 105.789062 16.066406 105.871094 16.304688 C 105.957031 16.546875 106 16.8125 106 17.109375 Z M 105.46875 17.109375 C 105.46875 16.878906 105.441406 16.667969 105.382812 16.480469 C 105.324219 16.292969 105.238281 16.132812 105.125 16.003906 C 105.007812 15.867188 104.863281 15.761719 104.691406 15.6875 C 104.523438 15.617188 104.328125 15.578125 104.109375 15.578125 C 103.882812 15.578125 103.6875 15.617188 103.511719 15.6875 C 103.339844 15.761719 103.195312 15.867188 103.082031 16.003906 C 102.972656 16.132812 102.890625 16.292969 102.832031 16.480469 C 102.773438 16.667969 102.746094 16.878906 102.746094 17.109375 C 102.746094 17.34375 102.773438 17.554688 102.832031 17.75 C 102.890625 17.941406 102.976562 18.101562 103.089844 18.238281 C 103.207031 18.375 103.347656 18.484375 103.511719 18.5625 C 103.6875 18.636719 103.882812 18.671875 104.109375 18.671875 C 104.347656 18.671875 104.550781 18.636719 104.722656 18.5625 C 104.898438 18.484375 105.039062 18.375 105.144531 18.238281 C 105.253906 18.09375 105.332031 17.929688 105.382812 17.738281 C 105.441406 17.542969 105.46875 17.335938 105.46875 17.109375 Z M 105.46875 17.109375 "/>
<path style=" stroke:none;fill-rule:nonzero;fill:rgb(0%,0%,0%);fill-opacity:1;" d="M 105.664062 51.246094 C 105.664062 51.636719 105.578125 51.929688 105.414062 52.117188 C 105.246094 52.304688 105.003906 52.398438 104.679688 52.398438 C 104.527344 52.398438 104.390625 52.375 104.269531 52.332031 C 104.144531 52.285156 104.039062 52.210938 103.953125 52.117188 C 103.871094 52.023438 103.8125 51.902344 103.769531 51.757812 C 103.726562 51.613281 103.707031 51.441406 103.707031 51.246094 C 103.707031 50.488281 104.03125 50.105469 104.6875 50.105469 C 104.863281 50.105469 105.007812 50.132812 105.132812 50.183594 C 105.253906 50.226562 105.355469 50.300781 105.433594 50.398438 C 105.515625 50.496094 105.570312 50.613281 105.609375 50.757812 C 105.644531 50.898438 105.664062 51.058594 105.664062 51.246094 Z M 105.285156 51.246094 C 105.285156 51.082031 105.269531 50.941406 105.242188 50.835938 C 105.21875 50.71875 105.179688 50.628906 105.132812 50.5625 C 105.082031 50.496094 105.015625 50.453125 104.9375 50.421875 C 104.863281 50.394531 104.785156 50.378906 104.699219 50.378906 C 104.605469 50.378906 104.519531 50.394531 104.441406 50.421875 C 104.367188 50.453125 104.304688 50.503906 104.246094 50.574219 C 104.195312 50.640625 104.152344 50.726562 104.128906 50.835938 C 104.105469 50.941406 104.09375 51.082031 104.09375 51.246094 C 104.09375 51.421875 104.109375 51.566406 104.136719 51.679688 C 104.164062 51.789062 104.207031 51.875 104.257812 51.941406 C 104.304688 52.007812 104.367188 52.054688 104.441406 52.082031 C 104.511719 52.113281 104.59375 52.125 104.679688 52.125 C 104.769531 52.125 104.855469 52.113281 104.925781 52.082031 C 105.003906 52.054688 105.070312 52.007812 105.121094 51.941406 C 105.171875 51.875 105.210938 51.789062 105.242188 51.679688 C 105.269531 51.566406 105.285156 51.421875 105.285156 51.246094 Z M 105.285156 51.246094 "/>
<path style=" stroke:none;fill-rule:nonzero;fill:rgb(0%,0%,0%);fill-opacity:1;" d="M 106.066406 52.355469 L 106.066406 50.660156 C 106.066406 50.617188 106.0625 50.574219 106.054688 50.53125 C 106.054688 50.480469 106.054688 50.433594 106.054688 50.390625 C 106.054688 50.339844 106.054688 50.296875 106.054688 50.257812 C 106.054688 50.214844 106.054688 50.179688 106.054688 50.152344 L 106.390625 50.152344 C 106.398438 50.179688 106.402344 50.214844 106.402344 50.257812 C 106.402344 50.296875 106.402344 50.335938 106.402344 50.378906 C 106.40625 50.421875 106.414062 50.464844 106.414062 50.507812 C 106.414062 50.546875 106.414062 50.578125 106.414062 50.605469 L 106.425781 50.605469 C 106.445312 50.519531 106.46875 50.449219 106.5 50.390625 C 106.527344 50.324219 106.558594 50.277344 106.597656 50.238281 C 106.640625 50.195312 106.6875 50.160156 106.738281 50.140625 C 106.792969 50.117188 106.863281 50.105469 106.941406 50.105469 C 106.96875 50.105469 106.996094 50.113281 107.019531 50.117188 C 107.046875 50.125 107.074219 50.128906 107.09375 50.128906 L 107.09375 50.464844 C 107.066406 50.460938 107.03125 50.453125 106.996094 50.453125 C 106.96875 50.449219 106.933594 50.445312 106.898438 50.445312 C 106.8125 50.445312 106.742188 50.464844 106.683594 50.507812 C 106.625 50.546875 106.574219 50.59375 106.53125 50.660156 C 106.496094 50.726562 106.46875 50.808594 106.445312 50.898438 C 106.429688 50.996094 106.425781 51.09375 106.425781 51.203125 L 106.425781 52.355469 Z M 106.066406 52.355469 "/>
<path style=" stroke:none;fill-rule:nonzero;fill:rgb(0%,0%,0%);fill-opacity:1;" d="M 107.433594 52.355469 L 107.433594 52.039062 L 108.167969 52.039062 L 108.167969 49.835938 L 107.519531 50.300781 L 107.519531 49.957031 L 108.1875 49.488281 L 108.535156 49.488281 L 108.535156 52.039062 L 109.226562 52.039062 L 109.226562 52.355469 Z M 107.433594 52.355469 "/>
<path style=" stroke:none;fill-rule:nonzero;fill:rgb(0%,0%,0%);fill-opacity:1;" d="M 92.269531 58.820312 C 92.269531 59.210938 92.1875 59.5 92.023438 59.6875 C 91.855469 59.878906 91.613281 59.972656 91.289062 59.972656 C 91.136719 59.972656 90.996094 59.949219 90.875 59.90625 C 90.753906 59.855469 90.648438 59.785156 90.5625 59.6875 C 90.480469 59.597656 90.421875 59.476562 90.378906 59.332031 C 90.335938 59.1875 90.3125 59.015625 90.3125 58.820312 C 90.3125 58.0625 90.640625 57.679688 91.296875 57.679688 C 91.472656 57.679688 91.617188 57.707031 91.742188 57.757812 C 91.863281 57.800781 91.964844 57.875 92.042969 57.972656 C 92.121094 58.070312 92.179688 58.1875 92.21875 58.332031 C 92.253906 58.46875 92.269531 58.632812 92.269531 58.820312 Z M 91.894531 58.820312 C 91.894531 58.65625 91.875 58.515625 91.847656 58.410156 C 91.828125 58.292969 91.789062 58.203125 91.742188 58.136719 C 91.691406 58.070312 91.625 58.027344 91.546875 57.996094 C 91.472656 57.96875 91.394531 57.953125 91.308594 57.953125 C 91.214844 57.953125 91.128906 57.96875 91.050781 57.996094 C 90.976562 58.027344 90.910156 58.078125 90.855469 58.148438 C 90.804688 58.210938 90.761719 58.300781 90.734375 58.410156 C 90.714844 58.515625 90.703125 58.65625 90.703125 58.820312 C 90.703125 58.996094 90.71875 59.140625 90.746094 59.253906 C 90.773438 59.363281 90.8125 59.449219 90.867188 59.515625 C 90.914062 59.582031 90.976562 59.628906 91.050781 59.65625 C 91.121094 59.6875 91.199219 59.699219 91.289062 59.699219 C 91.378906 59.699219 91.464844 59.6875 91.535156 59.65625 C 91.613281 59.628906 91.679688 59.582031 91.730469 59.515625 C 91.777344 59.449219 91.820312 59.363281 91.847656 59.253906 C 91.875 59.140625 91.894531 58.996094 91.894531 58.820312 Z M 91.894531 58.820312 "/>
<path style=" stroke:none;fill-rule:nonzero;fill:rgb(0%,0%,0%);fill-opacity:1;" d="M 92.675781 59.929688 L 92.675781 58.234375 C 92.675781 58.191406 92.671875 58.148438 92.664062 58.105469 C 92.664062 58.054688 92.664062 58.007812 92.664062 57.964844 C 92.664062 57.914062 92.664062 57.871094 92.664062 57.832031 C 92.664062 57.789062 92.664062 57.753906 92.664062 57.722656 L 93 57.722656 C 93.003906 57.753906 93.011719 57.789062 93.011719 57.832031 C 93.011719 57.871094 93.011719 57.910156 93.011719 57.953125 C 93.015625 57.996094 93.023438 58.039062 93.023438 58.082031 C 93.023438 58.121094 93.023438 58.152344 93.023438 58.179688 L 93.03125 58.179688 C 93.054688 58.09375 93.078125 58.023438 93.109375 57.964844 C 93.136719 57.898438 93.167969 57.847656 93.207031 57.8125 C 93.25 57.769531 93.296875 57.734375 93.347656 57.714844 C 93.402344 57.691406 93.472656 57.679688 93.550781 57.679688 C 93.578125 57.679688 93.605469 57.6875 93.628906 57.691406 C 93.65625 57.699219 93.679688 57.703125 93.703125 57.703125 L 93.703125 58.039062 C 93.671875 58.035156 93.640625 58.027344 93.605469 58.027344 C 93.578125 58.023438 93.542969 58.015625 93.507812 58.015625 C 93.421875 58.015625 93.347656 58.039062 93.292969 58.082031 C 93.234375 58.121094 93.183594 58.167969 93.140625 58.234375 C 93.101562 58.300781 93.074219 58.382812 93.054688 58.472656 C 93.039062 58.570312 93.03125 58.667969 93.03125 58.777344 L 93.03125 59.929688 Z M 92.675781 59.929688 "/>
<path style=" stroke:none;fill-rule:nonzero;fill:rgb(0%,0%,0%);fill-opacity:1;" d="M 95.855469 59.136719 C 95.855469 59.265625 95.835938 59.386719 95.792969 59.492188 C 95.75 59.597656 95.683594 59.683594 95.597656 59.753906 C 95.515625 59.820312 95.417969 59.875 95.296875 59.917969 C 95.179688 59.953125 95.039062 59.972656 94.882812 59.972656 C 94.710938 59.972656 94.5625 59.949219 94.441406 59.90625 C 94.316406 59.863281 94.214844 59.804688 94.136719 59.734375 C 94.058594 59.652344 93.996094 59.570312 93.953125 59.484375 C 93.917969 59.390625 93.894531 59.292969 93.890625 59.191406 L 94.269531 59.15625 C 94.273438 59.230469 94.292969 59.296875 94.320312 59.363281 C 94.347656 59.429688 94.390625 59.484375 94.441406 59.527344 C 94.488281 59.570312 94.550781 59.609375 94.625 59.636719 C 94.695312 59.65625 94.78125 59.667969 94.882812 59.667969 C 95.070312 59.667969 95.214844 59.625 95.316406 59.539062 C 95.425781 59.445312 95.480469 59.304688 95.480469 59.125 C 95.480469 59.015625 95.453125 58.929688 95.402344 58.863281 C 95.359375 58.800781 95.300781 58.753906 95.230469 58.722656 C 95.15625 58.6875 95.082031 58.664062 95.003906 58.648438 C 94.921875 58.632812 94.847656 58.625 94.777344 58.625 L 94.570312 58.625 L 94.570312 58.3125 L 94.765625 58.3125 C 94.835938 58.3125 94.910156 58.304688 94.980469 58.289062 C 95.058594 58.273438 95.128906 58.25 95.1875 58.210938 C 95.25 58.175781 95.300781 58.125 95.339844 58.0625 C 95.382812 57.996094 95.402344 57.914062 95.402344 57.8125 C 95.402344 57.660156 95.355469 57.539062 95.261719 57.453125 C 95.175781 57.367188 95.039062 57.324219 94.863281 57.324219 C 94.703125 57.324219 94.574219 57.363281 94.472656 57.441406 C 94.371094 57.523438 94.3125 57.636719 94.300781 57.789062 L 93.933594 57.769531 C 93.945312 57.636719 93.980469 57.527344 94.03125 57.429688 C 94.085938 57.339844 94.152344 57.261719 94.234375 57.203125 C 94.320312 57.136719 94.417969 57.09375 94.527344 57.0625 C 94.636719 57.035156 94.75 57.019531 94.875 57.019531 C 95.03125 57.019531 95.167969 57.039062 95.285156 57.085938 C 95.398438 57.121094 95.492188 57.175781 95.566406 57.246094 C 95.636719 57.3125 95.6875 57.394531 95.714844 57.484375 C 95.75 57.574219 95.769531 57.671875 95.769531 57.777344 C 95.769531 57.859375 95.761719 57.9375 95.738281 58.015625 C 95.714844 58.089844 95.679688 58.15625 95.628906 58.210938 C 95.585938 58.273438 95.523438 58.320312 95.445312 58.363281 C 95.375 58.402344 95.285156 58.429688 95.175781 58.453125 L 95.175781 58.460938 C 95.289062 58.480469 95.390625 58.507812 95.480469 58.550781 C 95.566406 58.585938 95.632812 58.632812 95.683594 58.691406 C 95.742188 58.75 95.785156 58.816406 95.8125 58.898438 C 95.839844 58.96875 95.855469 59.046875 95.855469 59.136719 Z M 95.855469 59.136719 "/>
<path style=" stroke:none;fill-rule:nonzero;fill:rgb(0%,0%,0%);fill-opacity:1;" d="M 105.671875 81.355469 C 105.671875 81.746094 105.589844 82.035156 105.425781 82.222656 C 105.257812 82.414062 105.015625 82.503906 104.6875 82.503906 C 104.539062 82.503906 104.398438 82.484375 104.277344 82.441406 C 104.152344 82.390625 104.050781 82.316406 103.964844 82.222656 C 103.882812 82.128906 103.824219 82.011719 103.78125 81.863281 C 103.738281 81.722656 103.714844 81.550781 103.714844 81.355469 C 103.714844 80.59375 104.042969 80.214844 104.699219 80.214844 C 104.875 80.214844 105.019531 80.242188 105.144531 80.289062 C 105.265625 80.335938 105.363281 80.40625 105.445312 80.507812 C 105.523438 80.601562 105.582031 80.722656 105.621094 80.867188 C 105.65625 81.003906 105.671875 81.167969 105.671875 81.355469 Z M 105.292969 81.355469 C 105.292969 81.1875 105.277344 81.050781 105.25 80.941406 C 105.230469 80.828125 105.191406 80.734375 105.144531 80.671875 C 105.09375 80.605469 105.027344 80.558594 104.949219 80.53125 C 104.875 80.503906 104.796875 80.488281 104.710938 80.488281 C 104.617188 80.488281 104.53125 80.503906 104.453125 80.53125 C 104.378906 80.558594 104.3125 80.609375 104.257812 80.683594 C 104.207031 80.746094 104.164062 80.832031 104.136719 80.941406 C 104.117188 81.050781 104.105469 81.1875 104.105469 81.355469 C 104.105469 81.527344 104.117188 81.675781 104.148438 81.789062 C 104.175781 81.898438 104.214844 81.984375 104.269531 82.050781 C 104.316406 82.113281 104.378906 82.164062 104.453125 82.191406 C 104.523438 82.21875 104.601562 82.234375 104.6875 82.234375 C 104.78125 82.234375 104.863281 82.21875 104.9375 82.191406 C 105.015625 82.164062 105.082031 82.113281 105.132812 82.050781 C 105.179688 81.984375 105.222656 81.898438 105.25 81.789062 C 105.277344 81.675781 105.292969 81.527344 105.292969 81.355469 Z M 105.292969 81.355469 "/>
<path style=" stroke:none;fill-rule:nonzero;fill:rgb(0%,0%,0%);fill-opacity:1;" d="M 106.078125 82.460938 L 106.078125 80.769531 C 106.078125 80.726562 106.074219 80.683594 106.066406 80.636719 C 106.066406 80.589844 106.066406 80.539062 106.066406 80.496094 C 106.066406 80.449219 106.066406 80.40625 106.066406 80.367188 C 106.066406 80.324219 106.066406 80.289062 106.066406 80.257812 L 106.402344 80.257812 C 106.40625 80.289062 106.414062 80.324219 106.414062 80.367188 C 106.414062 80.40625 106.414062 80.441406 106.414062 80.488281 C 106.417969 80.53125 106.425781 80.574219 106.425781 80.617188 C 106.425781 80.65625 106.425781 80.6875 106.425781 80.714844 L 106.433594 80.714844 C 106.457031 80.628906 106.480469 80.558594 106.511719 80.496094 C 106.539062 80.433594 106.570312 80.382812 106.609375 80.34375 C 106.652344 80.300781 106.695312 80.269531 106.75 80.246094 C 106.804688 80.226562 106.871094 80.214844 106.953125 80.214844 C 106.980469 80.214844 107.007812 80.21875 107.03125 80.226562 C 107.058594 80.234375 107.082031 80.238281 107.105469 80.238281 L 107.105469 80.574219 C 107.074219 80.566406 107.042969 80.5625 107.007812 80.5625 C 106.976562 80.558594 106.945312 80.550781 106.910156 80.550781 C 106.824219 80.550781 106.75 80.574219 106.695312 80.617188 C 106.636719 80.65625 106.585938 80.703125 106.542969 80.769531 C 106.503906 80.832031 106.476562 80.914062 106.457031 81.007812 C 106.441406 81.101562 106.433594 81.203125 106.433594 81.3125 L 106.433594 82.460938 Z M 106.078125 82.460938 "/>
<path style=" stroke:none;fill-rule:nonzero;fill:rgb(0%,0%,0%);fill-opacity:1;" d="M 107.335938 82.460938 L 107.335938 82.203125 C 107.40625 82.042969 107.488281 81.90625 107.582031 81.789062 C 107.683594 81.667969 107.789062 81.554688 107.898438 81.453125 C 108.011719 81.351562 108.125 81.261719 108.230469 81.179688 C 108.339844 81.09375 108.4375 81.011719 108.523438 80.929688 C 108.609375 80.84375 108.679688 80.753906 108.730469 80.660156 C 108.777344 80.566406 108.804688 80.460938 108.804688 80.34375 C 108.804688 80.265625 108.792969 80.199219 108.773438 80.140625 C 108.75 80.074219 108.714844 80.019531 108.664062 79.976562 C 108.621094 79.933594 108.566406 79.90625 108.503906 79.890625 C 108.4375 79.867188 108.363281 79.855469 108.285156 79.855469 C 108.214844 79.855469 108.144531 79.867188 108.082031 79.890625 C 108.015625 79.90625 107.957031 79.933594 107.90625 79.976562 C 107.855469 80.015625 107.816406 80.0625 107.789062 80.128906 C 107.757812 80.1875 107.738281 80.253906 107.722656 80.335938 L 107.355469 80.300781 C 107.371094 80.203125 107.398438 80.105469 107.441406 80.019531 C 107.484375 79.925781 107.546875 79.847656 107.625 79.78125 C 107.703125 79.710938 107.800781 79.65625 107.90625 79.617188 C 108.015625 79.574219 108.140625 79.554688 108.285156 79.554688 C 108.429688 79.554688 108.554688 79.570312 108.664062 79.605469 C 108.777344 79.636719 108.871094 79.6875 108.945312 79.757812 C 109.023438 79.824219 109.082031 79.910156 109.117188 80.007812 C 109.160156 80.105469 109.183594 80.210938 109.183594 80.335938 C 109.183594 80.4375 109.164062 80.53125 109.128906 80.617188 C 109.101562 80.703125 109.054688 80.789062 109 80.867188 C 108.941406 80.941406 108.871094 81.015625 108.792969 81.09375 C 108.722656 81.167969 108.644531 81.242188 108.554688 81.3125 C 108.476562 81.375 108.394531 81.445312 108.308594 81.515625 C 108.226562 81.582031 108.148438 81.652344 108.070312 81.722656 C 107.996094 81.789062 107.933594 81.859375 107.875 81.929688 C 107.816406 82.003906 107.769531 82.078125 107.734375 82.148438 L 109.226562 82.148438 L 109.226562 82.460938 Z M 107.335938 82.460938 "/>
<path style=" stroke:none;fill-rule:nonzero;fill:rgb(0%,0%,0%);fill-opacity:1;" d="M 106 107.355469 C 106 107.652344 105.957031 107.925781 105.871094 108.167969 C 105.785156 108.414062 105.65625 108.625 105.492188 108.796875 C 105.332031 108.972656 105.136719 109.105469 104.898438 109.199219 C 104.664062 109.292969 104.402344 109.339844 104.109375 109.339844 C 103.789062 109.339844 103.511719 109.292969 103.277344 109.199219 C 103.042969 109.097656 102.847656 108.960938 102.691406 108.785156 C 102.53125 108.609375 102.414062 108.394531 102.335938 108.15625 C 102.253906 107.914062 102.214844 107.644531 102.214844 107.355469 C 102.214844 107.058594 102.253906 106.789062 102.335938 106.550781 C 102.421875 106.304688 102.542969 106.101562 102.703125 105.933594 C 102.867188 105.765625 103.066406 105.636719 103.296875 105.542969 C 103.535156 105.449219 103.804688 105.398438 104.109375 105.398438 C 104.410156 105.398438 104.679688 105.449219 104.917969 105.542969 C 105.15625 105.636719 105.355469 105.769531 105.515625 105.941406 C 105.671875 106.109375 105.789062 106.3125 105.871094 106.550781 C 105.957031 106.789062 106 107.058594 106 107.355469 Z M 105.46875 107.355469 C 105.46875 107.125 105.441406 106.914062 105.382812 106.722656 C 105.324219 106.539062 105.238281 106.378906 105.125 106.246094 C 105.007812 106.109375 104.863281 106.003906 104.691406 105.933594 C 104.523438 105.863281 104.328125 105.824219 104.109375 105.824219 C 103.882812 105.824219 103.6875 105.863281 103.511719 105.933594 C 103.339844 106.003906 103.195312 106.109375 103.082031 106.246094 C 102.972656 106.378906 102.890625 106.539062 102.832031 106.722656 C 102.773438 106.914062 102.746094 107.125 102.746094 107.355469 C 102.746094 107.585938 102.773438 107.800781 102.832031 107.996094 C 102.890625 108.183594 102.976562 108.347656 103.089844 108.484375 C 103.207031 108.621094 103.347656 108.730469 103.511719 108.808594 C 103.6875 108.882812 103.882812 108.917969 104.109375 108.917969 C 104.347656 108.917969 104.550781 108.882812 104.722656 108.808594 C 104.898438 108.730469 105.039062 108.621094 105.144531 108.484375 C 105.253906 108.339844 105.332031 108.171875 105.382812 107.984375 C 105.441406 107.789062 105.46875 107.578125 105.46875 107.355469 Z M 105.46875 107.355469 "/>
<path style=" stroke:none;fill-rule:nonzero;fill:rgb(0%,0%,0%);fill-opacity:1;" d="M 123.300781 47.191406 C 123.300781 47.488281 123.257812 47.761719 123.171875 48.003906 C 123.085938 48.25 122.957031 48.460938 122.792969 48.632812 C 122.632812 48.808594 122.433594 48.941406 122.199219 49.035156 C 121.964844 49.128906 121.703125 49.175781 121.40625 49.175781 C 121.089844 49.175781 120.8125 49.128906 120.574219 49.035156 C 120.34375 48.933594 120.148438 48.796875 119.992188 48.621094 C 119.832031 48.445312 119.714844 48.230469 119.636719 47.992188 C 119.554688 47.75 119.515625 47.480469 119.515625 47.191406 C 119.515625 46.894531 119.554688 46.625 119.636719 46.386719 C 119.722656 46.144531 119.84375 45.9375 120.003906 45.769531 C 120.167969 45.601562 120.363281 45.472656 120.597656 45.378906 C 120.835938 45.285156 121.105469 45.234375 121.40625 45.234375 C 121.710938 45.234375 121.980469 45.285156 122.21875 45.378906 C 122.457031 45.472656 122.65625 45.605469 122.8125 45.777344 C 122.96875 45.945312 123.089844 46.148438 123.171875 46.386719 C 123.257812 46.625 123.300781 46.894531 123.300781 47.191406 Z M 122.769531 47.191406 C 122.769531 46.960938 122.742188 46.75 122.683594 46.558594 C 122.625 46.375 122.539062 46.214844 122.425781 46.082031 C 122.308594 45.945312 122.164062 45.839844 121.992188 45.769531 C 121.824219 45.699219 121.628906 45.660156 121.40625 45.660156 C 121.183594 45.660156 120.988281 45.699219 120.8125 45.769531 C 120.640625 45.839844 120.496094 45.945312 120.382812 46.082031 C 120.273438 46.214844 120.1875 46.375 120.132812 46.558594 C 120.074219 46.75 120.046875 46.960938 120.046875 47.191406 C 120.046875 47.421875 120.074219 47.636719 120.132812 47.832031 C 120.1875 48.019531 120.277344 48.183594 120.390625 48.320312 C 120.503906 48.457031 120.644531 48.566406 120.8125 48.644531 C 120.988281 48.71875 121.183594 48.753906 121.40625 48.753906 C 121.644531 48.753906 121.851562 48.71875 122.023438 48.644531 C 122.199219 48.566406 122.339844 48.457031 122.445312 48.320312 C 122.554688 48.175781 122.632812 48.007812 122.683594 47.820312 C 122.742188 47.625 122.769531 47.414062 122.769531 47.191406 Z M 122.769531 47.191406 "/>
<path style=" stroke:none;fill-rule:nonzero;fill:rgb(0%,0%,0%);fill-opacity:1;" d="M 80.050781 62.230469 C 80.050781 62.53125 80.007812 62.800781 79.921875 63.046875 C 79.835938 63.292969 79.707031 63.5 79.542969 63.675781 C 79.382812 63.847656 79.183594 63.984375 78.949219 64.078125 C 78.714844 64.167969 78.453125 64.21875 78.15625 64.21875 C 77.839844 64.21875 77.5625 64.167969 77.324219 64.078125 C 77.09375 63.976562 76.898438 63.839844 76.742188 63.664062 C 76.582031 63.484375 76.464844 63.273438 76.386719 63.035156 C 76.304688 62.789062 76.265625 62.523438 76.265625 62.230469 C 76.265625 61.9375 76.304688 61.667969 76.386719 61.429688 C 76.472656 61.183594 76.59375 60.976562 76.753906 60.808594 C 76.917969 60.644531 77.113281 60.515625 77.347656 60.417969 C 77.585938 60.328125 77.855469 60.277344 78.15625 60.277344 C 78.460938 60.277344 78.730469 60.328125 78.96875 60.417969 C 79.207031 60.515625 79.40625 60.648438 79.5625 60.820312 C 79.71875 60.988281 79.839844 61.191406 79.921875 61.429688 C 80.007812 61.667969 80.050781 61.9375 80.050781 62.230469 Z M 79.519531 62.230469 C 79.519531 62 79.492188 61.792969 79.433594 61.601562 C 79.375 61.414062 79.289062 61.253906 79.175781 61.125 C 79.058594 60.988281 78.914062 60.882812 78.742188 60.808594 C 78.574219 60.738281 78.378906 60.703125 78.15625 60.703125 C 77.933594 60.703125 77.738281 60.738281 77.5625 60.808594 C 77.390625 60.882812 77.246094 60.988281 77.132812 61.125 C 77.023438 61.253906 76.9375 61.414062 76.882812 61.601562 C 76.824219 61.792969 76.796875 62 76.796875 62.230469 C 76.796875 62.464844 76.824219 62.675781 76.882812 62.871094 C 76.9375 63.0625 77.027344 63.226562 77.140625 63.359375 C 77.253906 63.5 77.394531 63.609375 77.5625 63.6875 C 77.738281 63.757812 77.933594 63.792969 78.15625 63.792969 C 78.394531 63.792969 78.601562 63.757812 78.773438 63.6875 C 78.949219 63.609375 79.089844 63.5 79.195312 63.359375 C 79.304688 63.21875 79.382812 63.050781 79.433594 62.859375 C 79.492188 62.664062 79.519531 62.457031 79.519531 62.230469 Z M 79.519531 62.230469 "/>
<path style=" stroke:none;fill-rule:nonzero;fill:rgb(0%,0%,0%);fill-opacity:1;" d="M 123.300781 77.273438 C 123.300781 77.570312 123.257812 77.84375 123.171875 78.085938 C 123.085938 78.335938 122.957031 78.542969 122.792969 78.71875 C 122.632812 78.890625 122.433594 79.027344 122.199219 79.117188 C 121.964844 79.210938 121.703125 79.261719 121.40625 79.261719 C 121.089844 79.261719 120.8125 79.210938 120.574219 79.117188 C 120.34375 79.019531 120.148438 78.878906 119.992188 78.707031 C 119.832031 78.527344 119.714844 78.316406 119.636719 78.078125 C 119.554688 77.832031 119.515625 77.5625 119.515625 77.273438 C 119.515625 76.976562 119.554688 76.710938 119.636719 76.46875 C 119.722656 76.226562 119.84375 76.019531 120.003906 75.851562 C 120.167969 75.6875 120.363281 75.554688 120.597656 75.460938 C 120.835938 75.367188 121.105469 75.320312 121.40625 75.320312 C 121.710938 75.320312 121.980469 75.367188 122.21875 75.460938 C 122.457031 75.554688 122.65625 75.6875 122.8125 75.863281 C 122.96875 76.03125 123.089844 76.230469 123.171875 76.46875 C 123.257812 76.710938 123.300781 76.976562 123.300781 77.273438 Z M 122.769531 77.273438 C 122.769531 77.042969 122.742188 76.832031 122.683594 76.644531 C 122.625 76.457031 122.539062 76.296875 122.425781 76.167969 C 122.308594 76.03125 122.164062 75.925781 121.992188 75.851562 C 121.824219 75.78125 121.628906 75.742188 121.40625 75.742188 C 121.183594 75.742188 120.988281 75.78125 120.8125 75.851562 C 120.640625 75.925781 120.496094 76.03125 120.382812 76.167969 C 120.273438 76.296875 120.1875 76.457031 120.132812 76.644531 C 120.074219 76.832031 120.046875 77.042969 120.046875 77.273438 C 120.046875 77.507812 120.074219 77.71875 120.132812 77.914062 C 120.1875 78.105469 120.277344 78.265625 120.390625 78.402344 C 120.503906 78.539062 120.644531 78.648438 120.8125 78.726562 C 120.988281 78.800781 121.183594 78.835938 121.40625 78.835938 C 121.644531 78.835938 121.851562 78.800781 122.023438 78.726562 C 122.199219 78.648438 122.339844 78.539062 122.445312 78.402344 C 122.554688 78.257812 122.632812 78.09375 122.683594 77.902344 C 122.742188 77.707031 122.769531 77.5 122.769531 77.273438 Z M 122.769531 77.273438 "/>
<path style="fill:none;stroke-width:0.0333333;stroke-linecap:butt;stroke-linejoin:miter;stroke:rgb(0%,0%,0%);stroke-opacity:1;stroke-miterlimit:10;" d="M 1.39391 0.255114 L 0.995156 0.945845 " transform="matrix(17.3,0,0,17.367257,16.990825,17.127959)"/>
<path style="fill:none;stroke-width:0.0333333;stroke-linecap:butt;stroke-linejoin:miter;stroke:rgb(0%,0%,0%);stroke-opacity:1;stroke-miterlimit:10;" d="M 1.538419 0.33856 L 1.187759 0.945845 " transform="matrix(17.3,0,0,17.367257,16.990825,17.127959)"/>
<path style="fill:none;stroke-width:0.0333333;stroke-linecap:butt;stroke-linejoin:miter;stroke:rgb(0%,0%,0%);stroke-opacity:1;stroke-miterlimit:10;" d="M 0.995156 0.929201 L 1.500034 1.803466 " transform="matrix(17.3,0,0,17.367257,16.990825,17.127959)"/>
<path style="fill:none;stroke-width:0.0333333;stroke-linecap:butt;stroke-linejoin:miter;stroke:rgb(0%,0%,0%);stroke-opacity:1;stroke-miterlimit:10;" d="M 1.500034 1.803466 L 1.000124 2.669635 " transform="matrix(17.3,0,0,17.367257,16.990825,17.127959)"/>
<path style="fill:none;stroke-width:0.0333333;stroke-linecap:butt;stroke-linejoin:miter;stroke:rgb(0%,0%,0%);stroke-opacity:1;stroke-miterlimit:10;" d="M 1.000124 2.669635 L 1.500034 3.535578 " transform="matrix(17.3,0,0,17.367257,16.990825,17.127959)"/>
<path style="fill:none;stroke-width:0.0333333;stroke-linecap:butt;stroke-linejoin:miter;stroke:rgb(0%,0%,0%);stroke-opacity:1;stroke-miterlimit:10;" d="M 1.500034 3.535578 L 0.995156 4.409844 " transform="matrix(17.3,0,0,17.367257,16.990825,17.127959)"/>
<path style="fill:none;stroke-width:0.0333333;stroke-linecap:butt;stroke-linejoin:miter;stroke:rgb(0%,0%,0%);stroke-opacity:1;stroke-miterlimit:10;" d="M 0.995156 4.393199 L 1.39391 5.083705 " transform="matrix(17.3,0,0,17.367257,16.990825,17.127959)"/>
<path style="fill:none;stroke-width:0.0333333;stroke-linecap:butt;stroke-linejoin:miter;stroke:rgb(0%,0%,0%);stroke-opacity:1;stroke-miterlimit:10;" d="M 1.500034 1.803466 L 2.347216 1.803466 " transform="matrix(17.3,0,0,17.367257,16.990825,17.127959)"/>
<path style="fill:none;stroke-width:0.0333333;stroke-linecap:butt;stroke-linejoin:miter;stroke:rgb(0%,0%,0%);stroke-opacity:1;stroke-miterlimit:10;" d="M 1.000124 2.669635 L 0.152716 2.669635 " transform="matrix(17.3,0,0,17.367257,16.990825,17.127959)"/>
<path style="fill:none;stroke-width:0.0333333;stroke-linecap:butt;stroke-linejoin:miter;stroke:rgb(0%,0%,0%);stroke-opacity:1;stroke-miterlimit:10;" d="M 1.500034 3.535578 L 2.347216 3.535578 " transform="matrix(17.3,0,0,17.367257,16.990825,17.127959)"/>
<path style="fill:none;stroke-width:0.0333333;stroke-linecap:butt;stroke-linejoin:miter;stroke:rgb(0%,0%,0%);stroke-opacity:1;stroke-miterlimit:10;" d="M 4.929857 0.183815 L 4.531103 0.87432 " transform="matrix(17.3,0,0,17.367257,16.990825,17.127959)"/>
<path style="fill:none;stroke-width:0.0333333;stroke-linecap:butt;stroke-linejoin:miter;stroke:rgb(0%,0%,0%);stroke-opacity:1;stroke-miterlimit:10;" d="M 5.073914 0.267035 L 4.723254 0.87432 " transform="matrix(17.3,0,0,17.367257,16.990825,17.127959)"/>
<path style="fill:none;stroke-width:0.0333333;stroke-linecap:butt;stroke-linejoin:miter;stroke:rgb(0%,0%,0%);stroke-opacity:1;stroke-miterlimit:10;" d="M 4.531103 0.857676 L 5.040496 1.740264 " transform="matrix(17.3,0,0,17.367257,16.990825,17.127959)"/>
<path style="fill:none;stroke-width:0.0333333;stroke-linecap:butt;stroke-linejoin:miter;stroke:rgb(0%,0%,0%);stroke-opacity:1;stroke-miterlimit:10;" d="M 5.040496 1.723619 L 4.531103 2.606432 " transform="matrix(17.3,0,0,17.367257,16.990825,17.127959)"/>
<path style="fill:none;stroke-width:0.0333333;stroke-linecap:butt;stroke-linejoin:miter;stroke:rgb(0%,0%,0%);stroke-opacity:1;stroke-miterlimit:10;" d="M 4.531103 2.589788 L 5.040496 3.472375 " transform="matrix(17.3,0,0,17.367257,16.990825,17.127959)"/>
<path style="fill:none;stroke-width:0.0333333;stroke-linecap:butt;stroke-linejoin:miter;stroke:rgb(0%,0%,0%);stroke-opacity:1;stroke-miterlimit:10;" d="M 5.040496 3.455731 L 4.531103 4.338544 " transform="matrix(17.3,0,0,17.367257,16.990825,17.127959)"/>
<path style="fill:none;stroke-width:0.0333333;stroke-linecap:butt;stroke-linejoin:miter;stroke:rgb(0%,0%,0%);stroke-opacity:1;stroke-miterlimit:10;" d="M 4.531103 4.321675 L 4.929857 5.012405 " transform="matrix(17.3,0,0,17.367257,16.990825,17.127959)"/>
<path style=" stroke:none;fill-rule:nonzero;fill:rgb(0%,0%,0%);fill-opacity:1;" d="M 104.109375 47.210938 L 118.765625 49.234375 L 118.765625 45.183594 "/>
<path style=" stroke:none;fill-rule:nonzero;fill:rgb(0%,0%,0%);fill-opacity:1;" d="M 95.457031 62.25 L 80.800781 60.222656 L 80.800781 64.273438 "/>
<path style=" stroke:none;fill-rule:nonzero;fill:rgb(0%,0%,0%);fill-opacity:1;" d="M 104.109375 77.289062 L 118.765625 79.316406 L 118.765625 75.261719 "/>
</g>
</svg>
