<?xml version="1.0" encoding="UTF-8"?>
<svg xmlns="http://www.w3.org/2000/svg" xmlns:xlink="http://www.w3.org/1999/xlink" width="112.8pt" height="65.6pt" viewBox="0 0 112.8 65.6" version="1.1">
<g id="surface1107">
<path style=" stroke:none;fill-rule:nonzero;fill:rgb(0%,0%,0%);fill-opacity:1;" d="M 18.988281 47.332031 C 18.988281 47.632812 18.945312 47.902344 18.859375 48.148438 C 18.773438 48.394531 18.644531 48.601562 18.480469 48.777344 C 18.320312 48.949219 18.121094 49.085938 17.882812 49.179688 C 17.648438 49.269531 17.386719 49.320312 17.089844 49.320312 C 16.769531 49.320312 16.492188 49.269531 16.253906 49.179688 C 16.023438 49.078125 15.824219 48.941406 15.667969 48.765625 C 15.507812 48.585938 15.390625 48.375 15.3125 48.136719 C 15.230469 47.890625 15.191406 47.625 15.191406 47.332031 C 15.191406 47.035156 15.230469 46.769531 15.3125 46.53125 C 15.398438 46.285156 15.519531 46.078125 15.679688 45.910156 C 15.84375 45.746094 16.042969 45.613281 16.277344 45.519531 C 16.515625 45.425781 16.785156 45.378906 17.089844 45.378906 C 17.394531 45.378906 17.664062 45.425781 17.90625 45.519531 C 18.144531 45.613281 18.339844 45.746094 18.5 45.921875 C 18.660156 46.089844 18.777344 46.289062 18.859375 46.53125 C 18.945312 46.769531 18.988281 47.035156 18.988281 47.332031 Z M 18.457031 47.332031 C 18.457031 47.101562 18.429688 46.894531 18.371094 46.703125 C 18.3125 46.515625 18.226562 46.355469 18.109375 46.226562 C 17.992188 46.089844 17.851562 45.984375 17.675781 45.910156 C 17.507812 45.839844 17.3125 45.800781 17.089844 45.800781 C 16.867188 45.800781 16.667969 45.839844 16.492188 45.910156 C 16.320312 45.984375 16.171875 46.089844 16.058594 46.226562 C 15.949219 46.355469 15.867188 46.515625 15.808594 46.703125 C 15.75 46.894531 15.722656 47.101562 15.722656 47.332031 C 15.722656 47.566406 15.75 47.777344 15.808594 47.972656 C 15.867188 48.164062 15.953125 48.328125 16.070312 48.460938 C 16.183594 48.601562 16.324219 48.710938 16.492188 48.789062 C 16.667969 48.859375 16.867188 48.898438 17.089844 48.898438 C 17.328125 48.898438 17.535156 48.859375 17.710938 48.789062 C 17.882812 48.710938 18.023438 48.601562 18.132812 48.460938 C 18.242188 48.316406 18.320312 48.152344 18.371094 47.960938 C 18.429688 47.765625 18.457031 47.558594 18.457031 47.332031 Z M 18.457031 47.332031 "/>
<path style=" stroke:none;fill-rule:nonzero;fill:rgb(0%,0%,0%);fill-opacity:1;" d="M 19.402344 17.246094 C 19.402344 17.542969 19.359375 17.816406 19.273438 18.058594 C 19.183594 18.308594 19.058594 18.515625 18.890625 18.6875 C 18.730469 18.863281 18.535156 19 18.296875 19.089844 C 18.0625 19.183594 17.796875 19.230469 17.503906 19.230469 C 17.183594 19.230469 16.90625 19.183594 16.667969 19.089844 C 16.433594 18.992188 16.238281 18.851562 16.082031 18.679688 C 15.921875 18.5 15.800781 18.289062 15.722656 18.046875 C 15.640625 17.804688 15.605469 17.535156 15.605469 17.246094 C 15.605469 16.949219 15.640625 16.679688 15.722656 16.441406 C 15.808594 16.199219 15.933594 15.992188 16.09375 15.824219 C 16.257812 15.65625 16.457031 15.527344 16.6875 15.433594 C 16.925781 15.339844 17.199219 15.289062 17.503906 15.289062 C 17.808594 15.289062 18.078125 15.339844 18.316406 15.433594 C 18.554688 15.527344 18.753906 15.660156 18.914062 15.832031 C 19.070312 16.003906 19.191406 16.203125 19.273438 16.441406 C 19.359375 16.679688 19.402344 16.949219 19.402344 17.246094 Z M 18.871094 17.246094 C 18.871094 17.015625 18.839844 16.804688 18.785156 16.617188 C 18.722656 16.429688 18.636719 16.269531 18.523438 16.136719 C 18.40625 16.003906 18.261719 15.894531 18.089844 15.824219 C 17.921875 15.753906 17.726562 15.714844 17.503906 15.714844 C 17.277344 15.714844 17.078125 15.753906 16.90625 15.824219 C 16.730469 15.894531 16.585938 16.003906 16.472656 16.136719 C 16.363281 16.269531 16.277344 16.429688 16.222656 16.617188 C 16.164062 16.804688 16.136719 17.015625 16.136719 17.246094 C 16.136719 17.480469 16.164062 17.691406 16.222656 17.886719 C 16.277344 18.074219 16.367188 18.238281 16.484375 18.375 C 16.597656 18.511719 16.738281 18.621094 16.90625 18.699219 C 17.078125 18.773438 17.277344 18.808594 17.503906 18.808594 C 17.742188 18.808594 17.949219 18.773438 18.121094 18.699219 C 18.296875 18.621094 18.4375 18.511719 18.542969 18.375 C 18.652344 18.230469 18.730469 18.066406 18.785156 17.875 C 18.839844 17.679688 18.871094 17.46875 18.871094 17.246094 Z M 18.871094 17.246094 "/>
<path style=" stroke:none;fill-rule:nonzero;fill:rgb(0%,0%,0%);fill-opacity:1;" d="M 86.378906 35.960938 L 86.378906 30.78125 L 87.472656 30.78125 L 87.472656 31.128906 L 86.84375 31.128906 L 86.84375 35.613281 L 87.472656 35.613281 L 87.472656 35.960938 Z M 86.378906 35.960938 "/>
<path style=" stroke:none;fill-rule:nonzero;fill:rgb(0%,0%,0%);fill-opacity:1;" d="M 90.621094 34.8125 L 90.621094 33.042969 L 88.558594 33.042969 L 88.558594 34.8125 L 88.039062 34.8125 L 88.039062 30.988281 L 88.558594 30.988281 L 88.558594 32.605469 L 90.621094 32.605469 L 90.621094 30.988281 L 91.144531 30.988281 L 91.144531 34.8125 Z M 90.621094 34.8125 "/>
<path style=" stroke:none;fill-rule:nonzero;fill:rgb(0%,0%,0%);fill-opacity:1;" d="M 92.800781 34.214844 L 92.800781 34.667969 C 92.800781 34.773438 92.796875 34.855469 92.792969 34.929688 C 92.785156 35.007812 92.769531 35.082031 92.75 35.148438 C 92.730469 35.21875 92.710938 35.285156 92.683594 35.34375 C 92.660156 35.40625 92.632812 35.46875 92.597656 35.527344 L 92.261719 35.527344 C 92.339844 35.402344 92.402344 35.28125 92.445312 35.160156 C 92.492188 35.042969 92.519531 34.925781 92.519531 34.8125 L 92.28125 34.8125 L 92.28125 34.214844 Z M 92.800781 34.214844 "/>
<path style=" stroke:none;fill-rule:nonzero;fill:rgb(0%,0%,0%);fill-opacity:1;" d="M 95.515625 31.347656 C 95.300781 31.347656 95.105469 31.386719 94.941406 31.457031 C 94.773438 31.527344 94.632812 31.636719 94.519531 31.769531 C 94.410156 31.902344 94.324219 32.0625 94.269531 32.25 C 94.207031 32.4375 94.183594 32.648438 94.183594 32.878906 C 94.183594 33.113281 94.207031 33.324219 94.269531 33.519531 C 94.332031 33.707031 94.421875 33.871094 94.539062 34.007812 C 94.652344 34.144531 94.796875 34.253906 94.964844 34.332031 C 95.136719 34.40625 95.328125 34.441406 95.539062 34.441406 C 95.691406 34.441406 95.824219 34.425781 95.941406 34.386719 C 96.0625 34.34375 96.171875 34.285156 96.277344 34.214844 C 96.375 34.144531 96.464844 34.058594 96.535156 33.964844 C 96.617188 33.871094 96.683594 33.761719 96.742188 33.636719 L 97.167969 33.855469 C 97.101562 34.003906 97.015625 34.136719 96.917969 34.257812 C 96.8125 34.382812 96.695312 34.492188 96.558594 34.582031 C 96.421875 34.667969 96.265625 34.742188 96.09375 34.789062 C 95.917969 34.839844 95.726562 34.863281 95.515625 34.863281 C 95.203125 34.863281 94.933594 34.816406 94.703125 34.722656 C 94.46875 34.625 94.273438 34.484375 94.117188 34.3125 C 93.964844 34.132812 93.847656 33.921875 93.769531 33.683594 C 93.6875 33.4375 93.648438 33.167969 93.648438 32.878906 C 93.648438 32.582031 93.6875 32.3125 93.769531 32.074219 C 93.855469 31.832031 93.976562 31.625 94.136719 31.457031 C 94.296875 31.289062 94.492188 31.160156 94.722656 31.066406 C 94.953125 30.972656 95.21875 30.921875 95.515625 30.921875 C 95.921875 30.921875 96.257812 31.003906 96.527344 31.164062 C 96.800781 31.324219 97.003906 31.5625 97.132812 31.878906 L 96.644531 32.042969 C 96.609375 31.949219 96.558594 31.863281 96.492188 31.78125 C 96.433594 31.695312 96.359375 31.625 96.265625 31.5625 C 96.171875 31.5 96.0625 31.449219 95.941406 31.414062 C 95.816406 31.367188 95.675781 31.347656 95.515625 31.347656 Z M 95.515625 31.347656 "/>
<path style=" stroke:none;fill-rule:nonzero;fill:rgb(0%,0%,0%);fill-opacity:1;" d="M 98.585938 34.214844 L 98.585938 34.667969 C 98.585938 34.773438 98.582031 34.855469 98.578125 34.929688 C 98.566406 35.007812 98.554688 35.082031 98.53125 35.148438 C 98.515625 35.21875 98.496094 35.285156 98.46875 35.34375 C 98.445312 35.40625 98.417969 35.46875 98.382812 35.527344 L 98.042969 35.527344 C 98.125 35.402344 98.1875 35.28125 98.230469 35.160156 C 98.277344 35.042969 98.304688 34.925781 98.304688 34.8125 L 98.066406 34.8125 L 98.066406 34.214844 Z M 98.585938 34.214844 "/>
<path style=" stroke:none;fill-rule:nonzero;fill:rgb(0%,0%,0%);fill-opacity:1;" d="M 102.09375 34.8125 L 100.042969 31.554688 C 100.046875 31.640625 100.054688 31.726562 100.054688 31.8125 C 100.058594 31.886719 100.0625 31.964844 100.0625 32.054688 C 100.070312 32.132812 100.074219 32.203125 100.074219 32.269531 L 100.074219 34.8125 L 99.609375 34.8125 L 99.609375 30.988281 L 100.214844 30.988281 L 102.277344 34.269531 C 102.277344 34.269531 102.273438 34.179688 102.265625 33.996094 C 102.257812 33.925781 102.25 33.84375 102.246094 33.757812 C 102.246094 33.664062 102.246094 33.578125 102.246094 33.496094 L 102.246094 30.988281 L 102.710938 30.988281 L 102.710938 34.8125 Z M 102.09375 34.8125 "/>
<path style=" stroke:none;fill-rule:nonzero;fill:rgb(0%,0%,0%);fill-opacity:1;" d="M 103.375 35.960938 L 103.375 35.613281 L 104.003906 35.613281 L 104.003906 31.128906 L 103.375 31.128906 L 103.375 30.78125 L 104.480469 30.78125 L 104.480469 35.960938 Z M 103.375 35.960938 "/>
<path style="fill:none;stroke-width:0.0333333;stroke-linecap:butt;stroke-linejoin:miter;stroke:rgb(0%,0%,0%);stroke-opacity:1;stroke-miterlimit:10;" d="M 2.02827 0.0191245 L 1.506823 0.894681 " transform="matrix(17.364532,0,0,17.372881,17.092538,17.261502)"/>
<path style="fill:none;stroke-width:0.0333333;stroke-linecap:butt;stroke-linejoin:miter;stroke:rgb(0%,0%,0%);stroke-opacity:1;stroke-miterlimit:10;" d="M 2.013873 0.027219 L 3.032922 0.0411596 " transform="matrix(17.364532,0,0,17.372881,17.092538,17.261502)"/>
<path style="fill:none;stroke-width:0.0333333;stroke-linecap:butt;stroke-linejoin:miter;stroke:rgb(0%,0%,0%);stroke-opacity:1;stroke-miterlimit:10;" d="M 2.107679 0.19518 L 2.934392 0.206423 " transform="matrix(17.364532,0,0,17.372881,17.092538,17.261502)"/>
<path style="fill:none;stroke-width:0.0333333;stroke-linecap:butt;stroke-linejoin:miter;stroke:rgb(0%,0%,0%);stroke-opacity:1;stroke-miterlimit:10;" d="M 1.511547 0.886362 L 2.00465 1.767764 " transform="matrix(17.364532,0,0,17.372881,17.092538,17.261502)"/>
<path style="fill:none;stroke-width:0.0333333;stroke-linecap:butt;stroke-linejoin:miter;stroke:rgb(0%,0%,0%);stroke-opacity:1;stroke-miterlimit:10;" d="M 1.704109 0.88906 L 2.102955 1.602276 " transform="matrix(17.364532,0,0,17.372881,17.092538,17.261502)"/>
<path style="fill:none;stroke-width:0.0333333;stroke-linecap:butt;stroke-linejoin:miter;stroke:rgb(0%,0%,0%);stroke-opacity:1;stroke-miterlimit:10;" d="M 1.990253 1.758995 L 3.009302 1.772936 " transform="matrix(17.364532,0,0,17.372881,17.092538,17.261502)"/>
<path style="fill:none;stroke-width:0.0333333;stroke-linecap:butt;stroke-linejoin:miter;stroke:rgb(0%,0%,0%);stroke-opacity:1;stroke-miterlimit:10;" d="M 2.99468 1.78103 L 3.511403 0.913793 " transform="matrix(17.364532,0,0,17.372881,17.092538,17.261502)"/>
<path style="fill:none;stroke-width:0.0333333;stroke-linecap:butt;stroke-linejoin:miter;stroke:rgb(0%,0%,0%);stroke-opacity:1;stroke-miterlimit:10;" d="M 2.900873 1.613069 L 3.319066 0.911095 " transform="matrix(17.364532,0,0,17.372881,17.092538,17.261502)"/>
<path style="fill:none;stroke-width:0.0333333;stroke-linecap:butt;stroke-linejoin:miter;stroke:rgb(0%,0%,0%);stroke-opacity:1;stroke-miterlimit:10;" d="M 3.516127 0.922112 L 3.018525 0.0326154 " transform="matrix(17.364532,0,0,17.372881,17.092538,17.261502)"/>
<path style="fill:none;stroke-width:0.0333333;stroke-linecap:butt;stroke-linejoin:miter;stroke:rgb(0%,0%,0%);stroke-opacity:1;stroke-miterlimit:10;" d="M 1.52122 0.886586 L 0.502171 0.872646 " transform="matrix(17.364532,0,0,17.372881,17.092538,17.261502)"/>
<path style="fill:none;stroke-width:0.0333333;stroke-linecap:butt;stroke-linejoin:miter;stroke:rgb(0%,0%,0%);stroke-opacity:1;stroke-miterlimit:10;" d="M 0.516568 0.864551 L 0.108948 1.548987 " transform="matrix(17.364532,0,0,17.372881,17.092538,17.261502)"/>
<path style="fill:none;stroke-width:0.0333333;stroke-linecap:butt;stroke-linejoin:miter;stroke:rgb(0%,0%,0%);stroke-opacity:1;stroke-miterlimit:10;" d="M 0.6079 0.873995 L 0.199605 0.14369 " transform="matrix(17.364532,0,0,17.372881,17.092538,17.261502)"/>
<path style="fill:none;stroke-width:0.0333333;stroke-linecap:butt;stroke-linejoin:miter;stroke:rgb(0%,0%,0%);stroke-opacity:1;stroke-miterlimit:10;" d="M 0.462579 0.95539 L 0.0540592 0.225085 " transform="matrix(17.364532,0,0,17.372881,17.092538,17.261502)"/>
<path style="fill:none;stroke-width:0.0333333;stroke-linecap:butt;stroke-linejoin:miter;stroke:rgb(0%,0%,0%);stroke-opacity:1;stroke-miterlimit:10;" d="M 3.501955 0.913568 L 3.945342 0.919639 " transform="matrix(17.364532,0,0,17.372881,17.092538,17.261502)"/>
</g>
</svg>
