<?xml version="1.0" encoding="UTF-8"?>
<svg xmlns="http://www.w3.org/2000/svg" xmlns:xlink="http://www.w3.org/1999/xlink" width="64pt" height="86.4pt" viewBox="0 0 64 86.4" version="1.1">
<g id="surface1517">
<path style=" stroke:none;fill-rule:nonzero;fill:rgb(0%,0%,0%);fill-opacity:1;" d="M 25.675781 25.984375 L 25.277344 25.984375 L 25.210938 23.25 L 25.742188 23.25 Z M 25.203125 27.058594 L 25.203125 26.515625 L 25.730469 26.515625 L 25.730469 27.058594 Z M 25.203125 27.058594 "/>
<path style=" stroke:none;fill-rule:nonzero;fill:rgb(0%,0%,0%);fill-opacity:1;" d="M 26.699219 28.203125 L 26.699219 23.042969 L 27.789062 23.042969 L 27.789062 23.390625 L 27.164062 23.390625 L 27.164062 27.855469 L 27.789062 27.855469 L 27.789062 28.203125 Z M 26.699219 28.203125 "/>
<path style=" stroke:none;fill-rule:nonzero;fill:rgb(0%,0%,0%);fill-opacity:1;" d="M 30.03125 23.605469 C 29.816406 23.605469 29.625 23.644531 29.460938 23.714844 C 29.292969 23.789062 29.152344 23.894531 29.039062 24.027344 C 28.933594 24.15625 28.847656 24.316406 28.792969 24.503906 C 28.734375 24.691406 28.707031 24.902344 28.707031 25.132812 C 28.707031 25.363281 28.734375 25.574219 28.792969 25.769531 C 28.855469 25.957031 28.945312 26.121094 29.0625 26.257812 C 29.175781 26.394531 29.316406 26.503906 29.480469 26.582031 C 29.65625 26.652344 29.84375 26.6875 30.054688 26.6875 C 30.203125 26.6875 30.335938 26.671875 30.453125 26.636719 C 30.574219 26.589844 30.683594 26.535156 30.785156 26.460938 C 30.886719 26.390625 30.972656 26.308594 31.042969 26.214844 C 31.121094 26.121094 31.191406 26.011719 31.25 25.886719 L 31.667969 26.105469 C 31.605469 26.25 31.519531 26.382812 31.421875 26.503906 C 31.320312 26.628906 31.199219 26.738281 31.066406 26.828125 C 30.929688 26.917969 30.773438 26.988281 30.601562 27.035156 C 30.429688 27.082031 30.238281 27.109375 30.03125 27.109375 C 29.722656 27.109375 29.453125 27.0625 29.222656 26.96875 C 28.992188 26.871094 28.796875 26.730469 28.640625 26.558594 C 28.492188 26.378906 28.375 26.167969 28.296875 25.933594 C 28.214844 25.6875 28.179688 25.421875 28.179688 25.132812 C 28.179688 24.835938 28.214844 24.570312 28.296875 24.332031 C 28.382812 24.085938 28.503906 23.882812 28.664062 23.714844 C 28.820312 23.550781 29.011719 23.417969 29.246094 23.324219 C 29.472656 23.234375 29.734375 23.183594 30.03125 23.183594 C 30.433594 23.183594 30.765625 23.265625 31.035156 23.421875 C 31.304688 23.582031 31.507812 23.820312 31.636719 24.136719 L 31.152344 24.296875 C 31.113281 24.207031 31.066406 24.121094 31 24.039062 C 30.941406 23.953125 30.867188 23.882812 30.773438 23.824219 C 30.679688 23.757812 30.574219 23.707031 30.453125 23.671875 C 30.328125 23.628906 30.1875 23.605469 30.03125 23.605469 Z M 30.03125 23.605469 "/>
<path style=" stroke:none;fill-rule:nonzero;fill:rgb(0%,0%,0%);fill-opacity:1;" d="M 33.082031 26.460938 L 33.082031 26.917969 C 33.082031 27.019531 33.074219 27.101562 33.070312 27.175781 C 33.0625 27.253906 33.046875 27.328125 33.027344 27.390625 C 33.011719 27.460938 32.988281 27.527344 32.960938 27.585938 C 32.941406 27.652344 32.910156 27.710938 32.875 27.769531 L 32.542969 27.769531 C 32.621094 27.644531 32.679688 27.523438 32.722656 27.402344 C 32.773438 27.285156 32.800781 27.171875 32.800781 27.058594 L 32.5625 27.058594 L 32.5625 26.460938 Z M 33.082031 26.460938 "/>
<path style=" stroke:none;fill-rule:nonzero;fill:rgb(0%,0%,0%);fill-opacity:1;" d="M 36.5625 27.058594 L 34.523438 23.8125 C 34.53125 23.898438 34.535156 23.984375 34.535156 24.070312 C 34.542969 24.144531 34.546875 24.222656 34.546875 24.308594 C 34.550781 24.390625 34.558594 24.460938 34.558594 24.527344 L 34.558594 27.058594 L 34.09375 27.058594 L 34.09375 23.25 L 34.699219 23.25 L 36.746094 26.515625 C 36.746094 26.515625 36.738281 26.425781 36.734375 26.246094 C 36.726562 26.175781 36.71875 26.09375 36.710938 26.007812 C 36.710938 25.914062 36.710938 25.828125 36.710938 25.746094 L 36.710938 23.25 L 37.175781 23.25 L 37.175781 27.058594 Z M 36.5625 27.058594 "/>
<path style=" stroke:none;fill-rule:nonzero;fill:rgb(0%,0%,0%);fill-opacity:1;" d="M 37.832031 28.203125 L 37.832031 27.855469 L 38.457031 27.855469 L 38.457031 23.390625 L 37.832031 23.390625 L 37.832031 23.042969 L 38.929688 23.042969 L 38.929688 28.203125 Z M 37.832031 28.203125 "/>
<path style=" stroke:none;fill-rule:nonzero;fill:rgb(0%,0%,0%);fill-opacity:1;" d="M 47.105469 15.429688 C 46.890625 15.429688 46.699219 15.464844 46.535156 15.535156 C 46.367188 15.609375 46.226562 15.714844 46.117188 15.851562 C 46.007812 15.980469 45.925781 16.140625 45.867188 16.324219 C 45.808594 16.515625 45.78125 16.722656 45.78125 16.953125 C 45.78125 17.1875 45.808594 17.398438 45.867188 17.589844 C 45.933594 17.78125 46.019531 17.941406 46.136719 18.078125 C 46.25 18.214844 46.390625 18.324219 46.558594 18.402344 C 46.730469 18.476562 46.917969 18.511719 47.128906 18.511719 C 47.277344 18.511719 47.410156 18.496094 47.527344 18.457031 C 47.648438 18.414062 47.757812 18.355469 47.859375 18.285156 C 47.960938 18.214844 48.046875 18.128906 48.121094 18.035156 C 48.199219 17.941406 48.265625 17.835938 48.324219 17.710938 L 48.746094 17.925781 C 48.679688 18.074219 48.597656 18.207031 48.496094 18.328125 C 48.394531 18.453125 48.277344 18.558594 48.140625 18.652344 C 48.003906 18.738281 47.851562 18.808594 47.679688 18.855469 C 47.503906 18.90625 47.3125 18.933594 47.105469 18.933594 C 46.796875 18.933594 46.527344 18.882812 46.296875 18.792969 C 46.066406 18.691406 45.871094 18.554688 45.714844 18.382812 C 45.566406 18.203125 45.449219 17.992188 45.371094 17.753906 C 45.289062 17.511719 45.253906 17.242188 45.253906 16.953125 C 45.253906 16.660156 45.289062 16.390625 45.371094 16.152344 C 45.457031 15.910156 45.578125 15.703125 45.738281 15.535156 C 45.894531 15.371094 46.089844 15.242188 46.320312 15.148438 C 46.550781 15.054688 46.808594 15.007812 47.105469 15.007812 C 47.507812 15.007812 47.84375 15.085938 48.109375 15.246094 C 48.382812 15.402344 48.582031 15.640625 48.710938 15.957031 L 48.226562 16.121094 C 48.191406 16.027344 48.140625 15.941406 48.078125 15.859375 C 48.015625 15.773438 47.941406 15.703125 47.851562 15.644531 C 47.757812 15.578125 47.648438 15.53125 47.527344 15.492188 C 47.402344 15.449219 47.261719 15.429688 47.105469 15.429688 Z M 47.105469 15.429688 "/>
<path style=" stroke:none;fill-rule:nonzero;fill:rgb(0%,0%,0%);fill-opacity:1;" d="M 17.242188 15.429688 C 17.027344 15.429688 16.835938 15.464844 16.671875 15.535156 C 16.507812 15.609375 16.367188 15.714844 16.253906 15.851562 C 16.144531 15.980469 16.0625 16.140625 16.003906 16.324219 C 15.945312 16.515625 15.917969 16.722656 15.917969 16.953125 C 15.917969 17.1875 15.945312 17.398438 16.003906 17.589844 C 16.070312 17.78125 16.160156 17.941406 16.273438 18.078125 C 16.386719 18.214844 16.527344 18.324219 16.695312 18.402344 C 16.867188 18.476562 17.054688 18.511719 17.265625 18.511719 C 17.417969 18.511719 17.546875 18.496094 17.664062 18.457031 C 17.785156 18.414062 17.894531 18.355469 18 18.285156 C 18.097656 18.214844 18.183594 18.128906 18.257812 18.035156 C 18.335938 17.941406 18.402344 17.835938 18.460938 17.710938 L 18.882812 17.925781 C 18.816406 18.074219 18.734375 18.207031 18.632812 18.328125 C 18.53125 18.453125 18.414062 18.558594 18.277344 18.652344 C 18.140625 18.738281 17.988281 18.808594 17.816406 18.855469 C 17.644531 18.90625 17.453125 18.933594 17.242188 18.933594 C 16.933594 18.933594 16.664062 18.882812 16.4375 18.792969 C 16.203125 18.691406 16.011719 18.554688 15.855469 18.382812 C 15.703125 18.203125 15.585938 17.992188 15.507812 17.753906 C 15.429688 17.511719 15.390625 17.242188 15.390625 16.953125 C 15.390625 16.660156 15.429688 16.390625 15.507812 16.152344 C 15.59375 15.910156 15.714844 15.703125 15.875 15.535156 C 16.03125 15.371094 16.226562 15.242188 16.457031 15.148438 C 16.6875 15.054688 16.949219 15.007812 17.242188 15.007812 C 17.644531 15.007812 17.980469 15.085938 18.246094 15.246094 C 18.519531 15.402344 18.71875 15.640625 18.851562 15.957031 L 18.363281 16.121094 C 18.328125 16.027344 18.277344 15.941406 18.214844 15.859375 C 18.15625 15.773438 18.078125 15.703125 17.988281 15.644531 C 17.894531 15.578125 17.785156 15.53125 17.664062 15.492188 C 17.539062 15.449219 17.398438 15.429688 17.242188 15.429688 Z M 17.242188 15.429688 "/>
<path style="fill:none;stroke-width:0.0333333;stroke-linecap:butt;stroke-linejoin:miter;stroke:rgb(0%,0%,0%);stroke-opacity:1;stroke-miterlimit:10;" d="M 0.866113 1.500063 L 0.0470894 2.094993 " transform="matrix(17.241379,0,0,17.307692,17.137333,16.970972)"/>
<path style="fill:none;stroke-width:0.0333333;stroke-linecap:butt;stroke-linejoin:miter;stroke:rgb(0%,0%,0%);stroke-opacity:1;stroke-miterlimit:10;" d="M 0.866113 1.500063 L 1.684683 2.094993 " transform="matrix(17.241379,0,0,17.307692,17.137333,16.970972)"/>
<path style="fill:none;stroke-width:0.0333333;stroke-linecap:butt;stroke-linejoin:miter;stroke:rgb(0%,0%,0%);stroke-opacity:1;stroke-miterlimit:10;" d="M 0.0532066 2.076486 L 0.369714 3.050358 " transform="matrix(17.241379,0,0,17.307692,17.137333,16.970972)"/>
<path style="fill:none;stroke-width:0.0333333;stroke-linecap:butt;stroke-linejoin:miter;stroke:rgb(0%,0%,0%);stroke-opacity:1;stroke-miterlimit:10;" d="M 0.249183 2.140132 L 0.490699 2.883795 " transform="matrix(17.241379,0,0,17.307692,17.137333,16.970972)"/>
<path style="fill:none;stroke-width:0.0333333;stroke-linecap:butt;stroke-linejoin:miter;stroke:rgb(0%,0%,0%);stroke-opacity:1;stroke-miterlimit:10;" d="M 0.353855 3.039073 L 1.378144 3.039073 " transform="matrix(17.241379,0,0,17.307692,17.137333,16.970972)"/>
<path style="fill:none;stroke-width:0.0333333;stroke-linecap:butt;stroke-linejoin:miter;stroke:rgb(0%,0%,0%);stroke-opacity:1;stroke-miterlimit:10;" d="M 1.362285 3.050358 L 1.678792 2.076486 " transform="matrix(17.241379,0,0,17.307692,17.137333,16.970972)"/>
<path style="fill:none;stroke-width:0.0333333;stroke-linecap:butt;stroke-linejoin:miter;stroke:rgb(0%,0%,0%);stroke-opacity:1;stroke-miterlimit:10;" d="M 1.2413 2.883795 L 1.482816 2.140132 " transform="matrix(17.241379,0,0,17.307692,17.137333,16.970972)"/>
<path style="fill:none;stroke-width:0.0333333;stroke-linecap:butt;stroke-linejoin:miter;stroke:rgb(0%,0%,0%);stroke-opacity:1;stroke-miterlimit:10;" d="M 0.866113 1.500063 L 0.866113 0.692528 " transform="matrix(17.241379,0,0,17.307692,17.137333,16.970972)"/>
<path style="fill:none;stroke-width:0.0333333;stroke-linecap:butt;stroke-linejoin:miter;stroke:rgb(0%,0%,0%);stroke-opacity:1;stroke-miterlimit:10;" d="M 1.280496 0.260774 L 1.555769 0.101886 " transform="matrix(17.241379,0,0,17.307692,17.137333,16.970972)"/>
<path style="fill:none;stroke-width:0.0333333;stroke-linecap:butt;stroke-linejoin:miter;stroke:rgb(0%,0%,0%);stroke-opacity:1;stroke-miterlimit:10;" d="M 0.451503 0.260774 L 0.176457 0.101886 " transform="matrix(17.241379,0,0,17.307692,17.137333,16.970972)"/>
</g>
</svg>
