<?xml version="1.0" encoding="UTF-8"?>
<svg xmlns="http://www.w3.org/2000/svg" xmlns:xlink="http://www.w3.org/1999/xlink" width="109.6pt" height="94.4pt" viewBox="0 0 109.6 94.4" version="1.1">
<g id="surface387">
<path style=" stroke:none;fill-rule:nonzero;fill:rgb(0%,0%,47.058824%);fill-opacity:1;" d="M 17.910156 44.855469 L 16.242188 41.933594 C 16.257812 42.011719 16.269531 42.089844 16.277344 42.167969 C 16.28125 42.234375 16.289062 42.304688 16.289062 42.382812 C 16.292969 42.464844 16.296875 42.542969 16.296875 42.609375 L 16.296875 44.855469 L 15.585938 44.855469 L 15.585938 41.058594 L 16.503906 41.058594 L 18.179688 44.003906 C 18.171875 43.933594 18.164062 43.851562 18.15625 43.765625 C 18.148438 43.695312 18.140625 43.613281 18.136719 43.527344 C 18.136719 43.441406 18.136719 43.351562 18.136719 43.257812 L 18.136719 41.058594 L 18.839844 41.058594 L 18.839844 44.855469 Z M 17.910156 44.855469 "/>
<path style=" stroke:none;fill-rule:nonzero;fill:rgb(0%,0%,47.058824%);fill-opacity:1;" d="M 92.808594 53.480469 L 91.144531 50.558594 C 91.15625 50.636719 91.167969 50.714844 91.175781 50.792969 C 91.183594 50.859375 91.1875 50.933594 91.1875 51.011719 C 91.191406 51.089844 91.199219 51.167969 91.199219 51.238281 L 91.199219 53.480469 L 90.484375 53.480469 L 90.484375 49.683594 L 91.402344 49.683594 L 93.078125 52.628906 C 93.070312 52.558594 93.0625 52.476562 93.058594 52.390625 C 93.050781 52.320312 93.042969 52.238281 93.035156 52.152344 C 93.035156 52.066406 93.035156 51.976562 93.035156 51.882812 L 93.035156 49.683594 L 93.738281 49.683594 L 93.738281 53.480469 Z M 92.808594 53.480469 "/>
<path style=" stroke:none;fill-rule:nonzero;fill:rgb(0%,0%,0%);fill-opacity:1;" d="M 49.0625 77.441406 C 49.0625 77.738281 49.019531 78.007812 48.933594 78.25 C 48.847656 78.496094 48.722656 78.703125 48.554688 78.875 C 48.398438 79.050781 48.199219 79.183594 47.960938 79.277344 C 47.730469 79.367188 47.464844 79.417969 47.171875 79.417969 C 46.851562 79.417969 46.578125 79.367188 46.339844 79.277344 C 46.105469 79.175781 45.914062 79.039062 45.757812 78.867188 C 45.597656 78.6875 45.476562 78.476562 45.398438 78.242188 C 45.316406 78 45.28125 77.730469 45.28125 77.441406 C 45.28125 77.148438 45.316406 76.882812 45.398438 76.644531 C 45.484375 76.402344 45.605469 76.199219 45.765625 76.03125 C 45.929688 75.867188 46.128906 75.738281 46.359375 75.640625 C 46.597656 75.550781 46.871094 75.503906 47.171875 75.503906 C 47.476562 75.503906 47.746094 75.550781 47.984375 75.640625 C 48.222656 75.738281 48.417969 75.867188 48.578125 76.042969 C 48.734375 76.207031 48.851562 76.40625 48.933594 76.644531 C 49.019531 76.882812 49.0625 77.148438 49.0625 77.441406 Z M 48.535156 77.441406 C 48.535156 77.214844 48.503906 77.007812 48.449219 76.816406 C 48.386719 76.632812 48.300781 76.472656 48.1875 76.34375 C 48.070312 76.207031 47.929688 76.101562 47.757812 76.03125 C 47.589844 75.960938 47.394531 75.921875 47.171875 75.921875 C 46.949219 75.921875 46.75 75.960938 46.578125 76.03125 C 46.40625 76.101562 46.257812 76.207031 46.144531 76.34375 C 46.035156 76.472656 45.953125 76.632812 45.894531 76.816406 C 45.835938 77.007812 45.808594 77.214844 45.808594 77.441406 C 45.808594 77.675781 45.835938 77.886719 45.894531 78.078125 C 45.953125 78.269531 46.039062 78.429688 46.15625 78.5625 C 46.269531 78.703125 46.410156 78.808594 46.578125 78.886719 C 46.75 78.960938 46.949219 78.996094 47.171875 78.996094 C 47.410156 78.996094 47.617188 78.960938 47.789062 78.886719 C 47.960938 78.808594 48.101562 78.703125 48.210938 78.5625 C 48.316406 78.421875 48.398438 78.257812 48.449219 78.066406 C 48.503906 77.875 48.535156 77.667969 48.535156 77.441406 Z M 48.535156 77.441406 "/>
<path style=" stroke:none;fill-rule:nonzero;fill:rgb(0%,0%,0%);fill-opacity:1;" d="M 19.101562 77.441406 C 19.101562 77.738281 19.058594 78.007812 18.972656 78.25 C 18.886719 78.496094 18.761719 78.703125 18.59375 78.875 C 18.4375 79.050781 18.238281 79.183594 18 79.277344 C 17.769531 79.367188 17.507812 79.417969 17.210938 79.417969 C 16.890625 79.417969 16.617188 79.367188 16.378906 79.277344 C 16.148438 79.175781 15.953125 79.039062 15.796875 78.867188 C 15.636719 78.6875 15.515625 78.476562 15.4375 78.242188 C 15.355469 78 15.320312 77.730469 15.320312 77.441406 C 15.320312 77.148438 15.355469 76.882812 15.4375 76.644531 C 15.523438 76.402344 15.648438 76.199219 15.804688 76.03125 C 15.972656 75.867188 16.167969 75.738281 16.402344 75.640625 C 16.636719 75.550781 16.910156 75.503906 17.210938 75.503906 C 17.515625 75.503906 17.785156 75.550781 18.023438 75.640625 C 18.261719 75.738281 18.457031 75.867188 18.617188 76.042969 C 18.773438 76.207031 18.894531 76.40625 18.972656 76.644531 C 19.058594 76.882812 19.101562 77.148438 19.101562 77.441406 Z M 18.574219 77.441406 C 18.574219 77.214844 18.542969 77.007812 18.488281 76.816406 C 18.429688 76.632812 18.339844 76.472656 18.226562 76.34375 C 18.113281 76.207031 17.96875 76.101562 17.796875 76.03125 C 17.628906 75.960938 17.433594 75.921875 17.210938 75.921875 C 16.988281 75.921875 16.789062 75.960938 16.617188 76.03125 C 16.445312 76.101562 16.296875 76.207031 16.183594 76.34375 C 16.078125 76.472656 15.992188 76.632812 15.9375 76.816406 C 15.875 77.007812 15.847656 77.214844 15.847656 77.441406 C 15.847656 77.675781 15.875 77.886719 15.9375 78.078125 C 15.992188 78.269531 16.078125 78.429688 16.195312 78.5625 C 16.308594 78.703125 16.449219 78.808594 16.617188 78.886719 C 16.789062 78.960938 16.988281 78.996094 17.210938 78.996094 C 17.449219 78.996094 17.65625 78.960938 17.828125 78.886719 C 18 78.808594 18.140625 78.703125 18.25 78.5625 C 18.359375 78.421875 18.4375 78.257812 18.488281 78.066406 C 18.542969 77.875 18.574219 77.667969 18.574219 77.441406 Z M 18.574219 77.441406 "/>
<path style=" stroke:none;fill-rule:nonzero;fill:rgb(0%,0%,0%);fill-opacity:1;" d="M 94.003906 17.0625 C 94.003906 17.359375 93.960938 17.628906 93.875 17.871094 C 93.789062 18.117188 93.660156 18.324219 93.496094 18.496094 C 93.335938 18.667969 93.140625 18.804688 92.902344 18.894531 C 92.667969 18.988281 92.40625 19.035156 92.113281 19.035156 C 91.792969 19.035156 91.515625 18.988281 91.277344 18.894531 C 91.046875 18.796875 90.851562 18.660156 90.695312 18.484375 C 90.535156 18.308594 90.417969 18.097656 90.339844 17.859375 C 90.257812 17.617188 90.21875 17.351562 90.21875 17.0625 C 90.21875 16.769531 90.257812 16.503906 90.339844 16.265625 C 90.425781 16.023438 90.546875 15.816406 90.707031 15.648438 C 90.871094 15.484375 91.070312 15.355469 91.300781 15.261719 C 91.539062 15.171875 91.808594 15.121094 92.113281 15.121094 C 92.414062 15.121094 92.683594 15.171875 92.921875 15.261719 C 93.160156 15.355469 93.359375 15.488281 93.515625 15.660156 C 93.675781 15.828125 93.792969 16.027344 93.875 16.265625 C 93.960938 16.503906 94.003906 16.769531 94.003906 17.0625 Z M 93.472656 17.0625 C 93.472656 16.832031 93.445312 16.625 93.386719 16.4375 C 93.328125 16.25 93.242188 16.09375 93.128906 15.964844 C 93.011719 15.828125 92.867188 15.722656 92.695312 15.648438 C 92.527344 15.582031 92.332031 15.542969 92.113281 15.542969 C 91.886719 15.542969 91.691406 15.582031 91.515625 15.648438 C 91.34375 15.722656 91.199219 15.828125 91.085938 15.964844 C 90.976562 16.09375 90.894531 16.25 90.835938 16.4375 C 90.777344 16.625 90.75 16.832031 90.75 17.0625 C 90.75 17.292969 90.777344 17.503906 90.835938 17.699219 C 90.894531 17.886719 90.980469 18.050781 91.09375 18.183594 C 91.210938 18.320312 91.347656 18.429688 91.515625 18.507812 C 91.691406 18.582031 91.886719 18.617188 92.113281 18.617188 C 92.347656 18.617188 92.554688 18.582031 92.726562 18.507812 C 92.902344 18.429688 93.042969 18.320312 93.148438 18.183594 C 93.257812 18.042969 93.335938 17.875 93.386719 17.6875 C 93.445312 17.492188 93.472656 17.285156 93.472656 17.0625 Z M 93.472656 17.0625 "/>
<path style=" stroke:none;fill-rule:nonzero;fill:rgb(0%,0%,0%);fill-opacity:1;" d="M 64.042969 17.0625 C 64.042969 17.359375 64 17.628906 63.914062 17.871094 C 63.828125 18.117188 63.699219 18.324219 63.535156 18.496094 C 63.375 18.667969 63.179688 18.804688 62.941406 18.894531 C 62.707031 18.988281 62.445312 19.035156 62.152344 19.035156 C 61.832031 19.035156 61.554688 18.988281 61.320312 18.894531 C 61.085938 18.796875 60.890625 18.660156 60.734375 18.484375 C 60.574219 18.308594 60.457031 18.097656 60.378906 17.859375 C 60.296875 17.617188 60.257812 17.351562 60.257812 17.0625 C 60.257812 16.769531 60.296875 16.503906 60.378906 16.265625 C 60.464844 16.023438 60.585938 15.816406 60.746094 15.648438 C 60.910156 15.484375 61.109375 15.355469 61.339844 15.261719 C 61.578125 15.171875 61.847656 15.121094 62.152344 15.121094 C 62.453125 15.121094 62.722656 15.171875 62.960938 15.261719 C 63.199219 15.355469 63.398438 15.488281 63.554688 15.660156 C 63.714844 15.828125 63.832031 16.027344 63.914062 16.265625 C 64 16.503906 64.042969 16.769531 64.042969 17.0625 Z M 63.511719 17.0625 C 63.511719 16.832031 63.484375 16.625 63.425781 16.4375 C 63.367188 16.25 63.28125 16.09375 63.167969 15.964844 C 63.050781 15.828125 62.90625 15.722656 62.734375 15.648438 C 62.566406 15.582031 62.371094 15.542969 62.152344 15.542969 C 61.925781 15.542969 61.730469 15.582031 61.554688 15.648438 C 61.382812 15.722656 61.238281 15.828125 61.125 15.964844 C 61.015625 16.09375 60.933594 16.25 60.875 16.4375 C 60.816406 16.625 60.789062 16.832031 60.789062 17.0625 C 60.789062 17.292969 60.816406 17.503906 60.875 17.699219 C 60.933594 17.886719 61.019531 18.050781 61.136719 18.183594 C 61.25 18.320312 61.390625 18.429688 61.554688 18.507812 C 61.730469 18.582031 61.925781 18.617188 62.152344 18.617188 C 62.390625 18.617188 62.59375 18.582031 62.765625 18.507812 C 62.941406 18.429688 63.082031 18.320312 63.1875 18.183594 C 63.296875 18.042969 63.375 17.875 63.425781 17.6875 C 63.484375 17.492188 63.511719 17.285156 63.511719 17.0625 Z M 63.511719 17.0625 "/>
<path style="fill:none;stroke-width:0.06;stroke-linecap:butt;stroke-linejoin:miter;stroke:rgb(0%,0%,47.058824%);stroke-opacity:1;stroke-miterlimit:10;" d="M 0.880913 -0.00865169 L -0.01492 0.508515 " transform="matrix(17.29798,0,0,17.251462,17.21121,17.078942)"/>
<path style="fill:none;stroke-width:0.06;stroke-linecap:butt;stroke-linejoin:miter;stroke:rgb(0%,0%,47.058824%);stroke-opacity:1;stroke-miterlimit:10;" d="M 0.880913 0.183814 L 0.151736 0.604747 " transform="matrix(17.29798,0,0,17.251462,17.21121,17.078942)"/>
<path style="fill:none;stroke-width:0.06;stroke-linecap:butt;stroke-linejoin:miter;stroke:rgb(0%,0%,47.058824%);stroke-opacity:1;stroke-miterlimit:10;" d="M 0.850878 -0.00865169 L 1.746937 0.508515 " transform="matrix(17.29798,0,0,17.251462,17.21121,17.078942)"/>
<path style="fill:none;stroke-width:0.06;stroke-linecap:butt;stroke-linejoin:miter;stroke:rgb(0%,0%,47.058824%);stroke-opacity:1;stroke-miterlimit:10;" d="M -0.0000157743 0.482702 L -0.0000157743 1.346759 " transform="matrix(17.29798,0,0,17.251462,17.21121,17.078942)"/>
<path style="fill:none;stroke-width:0.06;stroke-linecap:butt;stroke-linejoin:miter;stroke:rgb(0%,0%,47.058824%);stroke-opacity:1;stroke-miterlimit:10;" d="M 0.16935 1.59787 L 0.866008 2.00001 " transform="matrix(17.29798,0,0,17.251462,17.21121,17.078942)"/>
<path style="fill:none;stroke-width:0.06;stroke-linecap:butt;stroke-linejoin:miter;stroke:rgb(0%,0%,47.058824%);stroke-opacity:1;stroke-miterlimit:10;" d="M 0.252904 1.453634 L 0.866008 1.807544 " transform="matrix(17.29798,0,0,17.251462,17.21121,17.078942)"/>
<path style="fill:none;stroke-width:0.06;stroke-linecap:butt;stroke-linejoin:miter;stroke:rgb(0%,0%,47.058824%);stroke-opacity:1;stroke-miterlimit:10;" d="M 0.857653 2.004765 L 1.746937 1.491448 " transform="matrix(17.29798,0,0,17.251462,17.21121,17.078942)"/>
<path style="fill:none;stroke-width:0.06;stroke-linecap:butt;stroke-linejoin:miter;stroke:rgb(0%,0%,47.058824%);stroke-opacity:1;stroke-miterlimit:10;" d="M 1.732033 1.500052 L 1.732033 0.482702 " transform="matrix(17.29798,0,0,17.251462,17.21121,17.078942)"/>
<path style="fill:none;stroke-width:0.06;stroke-linecap:butt;stroke-linejoin:miter;stroke:rgb(0%,0%,47.058824%);stroke-opacity:1;stroke-miterlimit:10;" d="M 1.565377 1.403819 L 1.565377 0.578934 " transform="matrix(17.29798,0,0,17.251462,17.21121,17.078942)"/>
<path style="fill:none;stroke-width:0.06;stroke-linecap:butt;stroke-linejoin:miter;stroke:rgb(0%,0%,47.058824%);stroke-opacity:1;stroke-miterlimit:10;" d="M 1.717128 1.491448 L 2.612961 2.00884 " transform="matrix(17.29798,0,0,17.251462,17.21121,17.078942)"/>
<path style="fill:none;stroke-width:0.06;stroke-linecap:butt;stroke-linejoin:miter;stroke:rgb(0%,0%,47.058824%);stroke-opacity:1;stroke-miterlimit:10;" d="M 3.464081 1.500052 L 2.598057 2.00001 " transform="matrix(17.29798,0,0,17.251462,17.21121,17.078942)"/>
<path style="fill:none;stroke-width:0.06;stroke-linecap:butt;stroke-linejoin:miter;stroke:rgb(0%,0%,47.058824%);stroke-opacity:1;stroke-miterlimit:10;" d="M 3.464081 1.692291 L 2.764713 2.096242 " transform="matrix(17.29798,0,0,17.251462,17.21121,17.078942)"/>
<path style="fill:none;stroke-width:0.06;stroke-linecap:butt;stroke-linejoin:miter;stroke:rgb(0%,0%,47.058824%);stroke-opacity:1;stroke-miterlimit:10;" d="M 2.598057 1.982574 L 2.598057 3.01736 " transform="matrix(17.29798,0,0,17.251462,17.21121,17.078942)"/>
<path style="fill:none;stroke-width:0.06;stroke-linecap:butt;stroke-linejoin:miter;stroke:rgb(0%,0%,47.058824%);stroke-opacity:1;stroke-miterlimit:10;" d="M 3.455726 1.495071 L 4.160739 1.902192 " transform="matrix(17.29798,0,0,17.251462,17.21121,17.078942)"/>
<path style="fill:none;stroke-width:0.06;stroke-linecap:butt;stroke-linejoin:miter;stroke:rgb(0%,0%,47.058824%);stroke-opacity:1;stroke-miterlimit:10;" d="M 2.582927 2.991321 L 3.478985 3.508487 " transform="matrix(17.29798,0,0,17.251462,17.21121,17.078942)"/>
<path style="fill:none;stroke-width:0.06;stroke-linecap:butt;stroke-linejoin:miter;stroke:rgb(0%,0%,47.058824%);stroke-opacity:1;stroke-miterlimit:10;" d="M 2.749809 2.895088 L 3.478985 3.316248 " transform="matrix(17.29798,0,0,17.251462,17.21121,17.078942)"/>
<path style="fill:none;stroke-width:0.06;stroke-linecap:butt;stroke-linejoin:miter;stroke:rgb(0%,0%,47.058824%);stroke-opacity:1;stroke-miterlimit:10;" d="M 3.449177 3.508487 L 4.345009 2.991321 " transform="matrix(17.29798,0,0,17.251462,17.21121,17.078942)"/>
<path style="fill:none;stroke-width:0.06;stroke-linecap:butt;stroke-linejoin:miter;stroke:rgb(0%,0%,47.058824%);stroke-opacity:1;stroke-miterlimit:10;" d="M 4.330105 3.01736 L 4.330105 2.153529 " transform="matrix(17.29798,0,0,17.251462,17.21121,17.078942)"/>
<path style="fill:none;stroke-width:0.06;stroke-linecap:butt;stroke-linejoin:miter;stroke:rgb(0%,0%,47.058824%);stroke-opacity:1;stroke-miterlimit:10;" d="M 4.163223 2.921127 L 4.163223 2.153529 " transform="matrix(17.29798,0,0,17.251462,17.21121,17.078942)"/>
<path style="fill:none;stroke-width:0.0333333;stroke-linecap:butt;stroke-linejoin:miter;stroke:rgb(0%,0%,0%);stroke-opacity:1;stroke-miterlimit:10;" d="M 0.866008 1.9905 L 0.866008 3.009661 " transform="matrix(17.29798,0,0,17.251462,17.21121,17.078942)"/>
<path style="fill:none;stroke-width:0.0333333;stroke-linecap:butt;stroke-linejoin:miter;stroke:rgb(0%,0%,0%);stroke-opacity:1;stroke-miterlimit:10;" d="M 3.464081 1.509562 L 3.464081 0.4904 " transform="matrix(17.29798,0,0,17.251462,17.21121,17.078942)"/>
<path style="fill:none;stroke-width:0.0333333;stroke-linecap:butt;stroke-linejoin:miter;stroke:rgb(0%,0%,0%);stroke-opacity:1;stroke-miterlimit:10;" d="M 0.78268 3.048154 L 1.508018 3.466824 " transform="matrix(17.29798,0,0,17.251462,17.21121,17.078942)"/>
<path style="fill:none;stroke-width:0.0333333;stroke-linecap:butt;stroke-linejoin:miter;stroke:rgb(0%,0%,0%);stroke-opacity:1;stroke-miterlimit:10;" d="M 0.866008 2.903692 L 1.591346 3.322588 " transform="matrix(17.29798,0,0,17.251462,17.21121,17.078942)"/>
<path style="fill:none;stroke-width:0.0333333;stroke-linecap:butt;stroke-linejoin:miter;stroke:rgb(0%,0%,0%);stroke-opacity:1;stroke-miterlimit:10;" d="M 0.874364 2.99517 L 0.182448 3.394592 " transform="matrix(17.29798,0,0,17.251462,17.21121,17.078942)"/>
<path style="fill:none;stroke-width:0.0333333;stroke-linecap:butt;stroke-linejoin:miter;stroke:rgb(0%,0%,0%);stroke-opacity:1;stroke-miterlimit:10;" d="M 3.455726 0.504892 L 4.147642 0.105243 " transform="matrix(17.29798,0,0,17.251462,17.21121,17.078942)"/>
<path style="fill:none;stroke-width:0.0333333;stroke-linecap:butt;stroke-linejoin:miter;stroke:rgb(0%,0%,0%);stroke-opacity:1;stroke-miterlimit:10;" d="M 3.547409 0.451907 L 2.822071 0.0332379 " transform="matrix(17.29798,0,0,17.251462,17.21121,17.078942)"/>
<path style="fill:none;stroke-width:0.0333333;stroke-linecap:butt;stroke-linejoin:miter;stroke:rgb(0%,0%,0%);stroke-opacity:1;stroke-miterlimit:10;" d="M 3.464081 0.596143 L 2.738743 0.177474 " transform="matrix(17.29798,0,0,17.251462,17.21121,17.078942)"/>
</g>
</svg>
