<?xml version="1.0" encoding="UTF-8"?>
<svg xmlns="http://www.w3.org/2000/svg" xmlns:xlink="http://www.w3.org/1999/xlink" width="94.4pt" height="43.2pt" viewBox="0 0 94.4 43.2" version="1.1">
<g id="surface1327">
<path style=" stroke:none;fill-rule:nonzero;fill:rgb(0%,0%,0%);fill-opacity:1;" d="M 17.253906 24.246094 C 17.035156 24.246094 16.84375 24.285156 16.679688 24.355469 C 16.507812 24.429688 16.367188 24.535156 16.253906 24.667969 C 16.144531 24.796875 16.0625 24.957031 16.003906 25.144531 C 15.945312 25.335938 15.917969 25.542969 15.917969 25.773438 C 15.917969 26.003906 15.945312 26.214844 16.003906 26.410156 C 16.070312 26.601562 16.160156 26.761719 16.277344 26.898438 C 16.390625 27.035156 16.53125 27.144531 16.699219 27.222656 C 16.871094 27.292969 17.0625 27.328125 17.273438 27.328125 C 17.425781 27.328125 17.558594 27.3125 17.675781 27.277344 C 17.796875 27.234375 17.910156 27.175781 18.011719 27.101562 C 18.113281 27.03125 18.199219 26.949219 18.273438 26.855469 C 18.351562 26.761719 18.417969 26.652344 18.476562 26.53125 L 18.902344 26.746094 C 18.835938 26.890625 18.753906 27.023438 18.652344 27.144531 C 18.546875 27.269531 18.429688 27.378906 18.292969 27.46875 C 18.15625 27.558594 18 27.628906 17.828125 27.675781 C 17.652344 27.726562 17.460938 27.75 17.253906 27.75 C 16.941406 27.75 16.667969 27.703125 16.4375 27.609375 C 16.207031 27.511719 16.011719 27.375 15.855469 27.199219 C 15.703125 27.023438 15.585938 26.8125 15.507812 26.574219 C 15.425781 26.328125 15.386719 26.0625 15.386719 25.773438 C 15.386719 25.476562 15.425781 25.210938 15.507812 24.972656 C 15.59375 24.726562 15.714844 24.523438 15.875 24.355469 C 16.03125 24.191406 16.226562 24.058594 16.460938 23.964844 C 16.691406 23.875 16.953125 23.824219 17.253906 23.824219 C 17.65625 23.824219 17.992188 23.90625 18.261719 24.0625 C 18.535156 24.222656 18.738281 24.460938 18.867188 24.777344 L 18.378906 24.9375 C 18.34375 24.847656 18.292969 24.761719 18.230469 24.679688 C 18.167969 24.59375 18.09375 24.523438 18 24.464844 C 17.90625 24.398438 17.796875 24.351562 17.675781 24.3125 C 17.550781 24.269531 17.410156 24.246094 17.253906 24.246094 Z M 17.253906 24.246094 "/>
<path style=" stroke:none;fill-rule:nonzero;fill:rgb(0%,0%,0%);fill-opacity:1;" d="M 77.363281 24.246094 C 77.148438 24.246094 76.953125 24.285156 76.789062 24.355469 C 76.621094 24.429688 76.480469 24.535156 76.367188 24.667969 C 76.257812 24.796875 76.175781 24.957031 76.117188 25.144531 C 76.058594 25.335938 76.03125 25.542969 76.03125 25.773438 C 76.03125 26.003906 76.058594 26.214844 76.117188 26.410156 C 76.183594 26.601562 76.273438 26.761719 76.386719 26.898438 C 76.503906 27.035156 76.644531 27.144531 76.8125 27.222656 C 76.984375 27.292969 77.175781 27.328125 77.386719 27.328125 C 77.539062 27.328125 77.671875 27.3125 77.789062 27.277344 C 77.910156 27.234375 78.019531 27.175781 78.125 27.101562 C 78.222656 27.03125 78.3125 26.949219 78.382812 26.855469 C 78.460938 26.761719 78.53125 26.652344 78.589844 26.53125 L 79.011719 26.746094 C 78.949219 26.890625 78.863281 27.023438 78.761719 27.144531 C 78.660156 27.269531 78.542969 27.378906 78.40625 27.46875 C 78.265625 27.558594 78.113281 27.628906 77.9375 27.675781 C 77.765625 27.726562 77.574219 27.75 77.363281 27.75 C 77.050781 27.75 76.78125 27.703125 76.550781 27.609375 C 76.316406 27.511719 76.121094 27.375 75.964844 27.199219 C 75.8125 27.023438 75.695312 26.8125 75.617188 26.574219 C 75.535156 26.328125 75.5 26.0625 75.5 25.773438 C 75.5 25.476562 75.535156 25.210938 75.617188 24.972656 C 75.703125 24.726562 75.828125 24.523438 75.988281 24.355469 C 76.144531 24.191406 76.339844 24.058594 76.574219 23.964844 C 76.804688 23.875 77.066406 23.824219 77.363281 23.824219 C 77.769531 23.824219 78.105469 23.90625 78.371094 24.0625 C 78.648438 24.222656 78.851562 24.460938 78.980469 24.777344 L 78.492188 24.9375 C 78.453125 24.847656 78.40625 24.761719 78.339844 24.679688 C 78.28125 24.59375 78.203125 24.523438 78.113281 24.464844 C 78.019531 24.398438 77.910156 24.351562 77.789062 24.3125 C 77.664062 24.269531 77.523438 24.246094 77.363281 24.246094 Z M 77.363281 24.246094 "/>
<path style="fill:none;stroke-width:0.0333333;stroke-linecap:butt;stroke-linejoin:miter;stroke:rgb(0%,0%,0%);stroke-opacity:1;stroke-miterlimit:10;" d="M 0.176301 0.398246 L 0.874355 -0.00484467 " transform="matrix(17.352941,0,0,17.307692,17.143782,17.134631)"/>
<path style="fill:none;stroke-width:0.0333333;stroke-linecap:butt;stroke-linejoin:miter;stroke:rgb(0%,0%,0%);stroke-opacity:1;stroke-dasharray:0.1,0.0666667;stroke-dashoffset:0.166663;stroke-miterlimit:10;" d="M 0.259815 0.542464 L 0.874355 0.187673 " transform="matrix(17.352941,0,0,17.307692,17.143782,17.134631)"/>
<path style="fill:none;stroke-width:0.0333333;stroke-linecap:butt;stroke-linejoin:miter;stroke:rgb(0%,0%,0%);stroke-opacity:1;stroke-miterlimit:10;" d="M 0.857697 -0.00484467 L 1.740562 0.504773 " transform="matrix(17.352941,0,0,17.307692,17.143782,17.134631)"/>
<path style="fill:none;stroke-width:0.0333333;stroke-linecap:butt;stroke-linejoin:miter;stroke:rgb(0%,0%,0%);stroke-opacity:1;stroke-dasharray:0.1,0.0666667;stroke-dashoffset:0.166663;stroke-miterlimit:10;" d="M 0.857697 0.187673 L 1.573759 0.601145 " transform="matrix(17.352941,0,0,17.307692,17.143782,17.134631)"/>
<path style="fill:none;stroke-width:0.0333333;stroke-linecap:butt;stroke-linejoin:miter;stroke:rgb(0%,0%,0%);stroke-opacity:1;stroke-miterlimit:10;" d="M 1.723679 0.504773 L 2.60632 -0.00484467 " transform="matrix(17.352941,0,0,17.307692,17.143782,17.134631)"/>
<path style="fill:none;stroke-width:0.0333333;stroke-linecap:butt;stroke-linejoin:miter;stroke:rgb(0%,0%,0%);stroke-opacity:1;stroke-dasharray:0.1,0.0666667;stroke-dashoffset:0.166663;stroke-miterlimit:10;" d="M 1.723679 0.312256 L 2.439741 -0.100991 " transform="matrix(17.352941,0,0,17.307692,17.143782,17.134631)"/>
<path style="fill:none;stroke-width:0.0333333;stroke-linecap:butt;stroke-linejoin:miter;stroke:rgb(0%,0%,0%);stroke-opacity:1;stroke-miterlimit:10;" d="M 2.589662 -0.00484467 L 3.28794 0.398246 " transform="matrix(17.352941,0,0,17.307692,17.143782,17.134631)"/>
<path style="fill:none;stroke-width:0.0333333;stroke-linecap:butt;stroke-linejoin:miter;stroke:rgb(0%,0%,0%);stroke-opacity:1;stroke-dasharray:0.1,0.0666667;stroke-dashoffset:0.166663;stroke-miterlimit:10;" d="M 2.589662 0.187673 L 3.204426 0.542464 " transform="matrix(17.352941,0,0,17.307692,17.143782,17.134631)"/>
</g>
</svg>
