<?xml version="1.0" encoding="UTF-8"?>
<svg xmlns="http://www.w3.org/2000/svg" xmlns:xlink="http://www.w3.org/1999/xlink" width="64pt" height="121.6pt" viewBox="0 0 64 121.6" version="1.1">
<g id="surface517">
<path style=" stroke:none;fill-rule:nonzero;fill:rgb(0%,0%,0%);fill-opacity:1;" d="M 18.0625 27.933594 L 16.027344 24.679688 C 16.03125 24.765625 16.039062 24.851562 16.039062 24.941406 C 16.042969 25.011719 16.046875 25.09375 16.046875 25.179688 C 16.054688 25.261719 16.058594 25.332031 16.058594 25.394531 L 16.058594 27.933594 L 15.59375 27.933594 L 15.59375 24.117188 L 16.199219 24.117188 L 18.246094 27.390625 C 18.246094 27.390625 18.242188 27.300781 18.234375 27.121094 C 18.226562 27.050781 18.21875 26.96875 18.214844 26.882812 C 18.214844 26.789062 18.214844 26.703125 18.214844 26.621094 L 18.214844 24.117188 L 18.675781 24.117188 L 18.675781 27.933594 Z M 18.0625 27.933594 "/>
<path style=" stroke:none;fill-rule:nonzero;fill:rgb(0%,0%,0%);fill-opacity:1;" d="M 18.0625 97.34375 L 16.027344 94.089844 C 16.03125 94.175781 16.039062 94.261719 16.039062 94.347656 C 16.042969 94.421875 16.046875 94.5 16.046875 94.589844 C 16.054688 94.667969 16.058594 94.738281 16.058594 94.804688 L 16.058594 97.34375 L 15.59375 97.34375 L 15.59375 93.523438 L 16.199219 93.523438 L 18.246094 96.800781 C 18.246094 96.800781 18.242188 96.710938 18.234375 96.527344 C 18.226562 96.457031 18.21875 96.378906 18.214844 96.289062 C 18.214844 96.199219 18.214844 96.113281 18.214844 96.03125 L 18.214844 93.523438 L 18.675781 93.523438 L 18.675781 97.34375 Z M 18.0625 97.34375 "/>
<path style="fill:none;stroke-width:0.0333333;stroke-linecap:butt;stroke-linejoin:miter;stroke:rgb(0%,0%,0%);stroke-opacity:1;stroke-miterlimit:10;" d="M 0.874473 -0.00492121 L 0.165785 0.404353 " transform="matrix(17.241379,0,0,17.351598,17.13773,17.351016)"/>
<path style="fill:none;stroke-width:0.0333333;stroke-linecap:butt;stroke-linejoin:miter;stroke:rgb(0%,0%,0%);stroke-opacity:1;stroke-miterlimit:10;" d="M 0.874473 0.187784 L 0.249387 0.548657 " transform="matrix(17.241379,0,0,17.351598,17.13773,17.351016)"/>
<path style="fill:none;stroke-width:0.0333333;stroke-linecap:butt;stroke-linejoin:miter;stroke:rgb(0%,0%,0%);stroke-opacity:1;stroke-miterlimit:10;" d="M 0.857707 -0.00492121 L 1.740394 0.504983 " transform="matrix(17.241379,0,0,17.351598,17.13773,17.351016)"/>
<path style="fill:none;stroke-width:0.0333333;stroke-linecap:butt;stroke-linejoin:miter;stroke:rgb(0%,0%,0%);stroke-opacity:1;stroke-miterlimit:10;" d="M 0.00016789 0.653339 L 0.00016789 1.509484 " transform="matrix(17.241379,0,0,17.351598,17.13773,17.351016)"/>
<path style="fill:none;stroke-width:0.0333333;stroke-linecap:butt;stroke-linejoin:miter;stroke:rgb(0%,0%,0%);stroke-opacity:1;stroke-miterlimit:10;" d="M -0.00844149 1.495301 L 0.86609 2.000027 " transform="matrix(17.241379,0,0,17.351598,17.13773,17.351016)"/>
<path style="fill:none;stroke-width:0.0333333;stroke-linecap:butt;stroke-linejoin:miter;stroke:rgb(0%,0%,0%);stroke-opacity:1;stroke-miterlimit:10;" d="M 0.158309 1.398948 L 0.86609 1.807547 " transform="matrix(17.241379,0,0,17.351598,17.13773,17.351016)"/>
<path style="fill:none;stroke-width:0.0333333;stroke-linecap:butt;stroke-linejoin:miter;stroke:rgb(0%,0%,0%);stroke-opacity:1;stroke-miterlimit:10;" d="M 0.857707 2.00498 L 1.740394 1.495301 " transform="matrix(17.241379,0,0,17.351598,17.13773,17.351016)"/>
<path style="fill:none;stroke-width:0.0333333;stroke-linecap:butt;stroke-linejoin:miter;stroke:rgb(0%,0%,0%);stroke-opacity:1;stroke-miterlimit:10;" d="M 1.732012 1.509484 L 1.732012 0.49035 " transform="matrix(17.241379,0,0,17.351598,17.13773,17.351016)"/>
<path style="fill:none;stroke-width:0.0333333;stroke-linecap:butt;stroke-linejoin:miter;stroke:rgb(0%,0%,0%);stroke-opacity:1;stroke-miterlimit:10;" d="M 1.565488 1.413581 L 1.565488 0.586703 " transform="matrix(17.241379,0,0,17.351598,17.13773,17.351016)"/>
<path style="fill:none;stroke-width:0.0333333;stroke-linecap:butt;stroke-linejoin:miter;stroke:rgb(0%,0%,0%);stroke-opacity:1;stroke-miterlimit:10;" d="M 0.86609 1.990347 L 0.86609 3.009706 " transform="matrix(17.241379,0,0,17.351598,17.13773,17.351016)"/>
<path style="fill:none;stroke-width:0.0333333;stroke-linecap:butt;stroke-linejoin:miter;stroke:rgb(0%,0%,0%);stroke-opacity:1;stroke-miterlimit:10;" d="M 0.86609 3.000025 L -0.00844149 3.504977 " transform="matrix(17.241379,0,0,17.351598,17.13773,17.351016)"/>
<path style="fill:none;stroke-width:0.0333333;stroke-linecap:butt;stroke-linejoin:miter;stroke:rgb(0%,0%,0%);stroke-opacity:1;stroke-miterlimit:10;" d="M 0.86609 3.192506 L 0.158309 3.601105 " transform="matrix(17.241379,0,0,17.351598,17.13773,17.351016)"/>
<path style="fill:none;stroke-width:0.0333333;stroke-linecap:butt;stroke-linejoin:miter;stroke:rgb(0%,0%,0%);stroke-opacity:1;stroke-miterlimit:10;" d="M 0.857707 2.995298 L 1.740394 3.504977 " transform="matrix(17.241379,0,0,17.351598,17.13773,17.351016)"/>
<path style="fill:none;stroke-width:0.0333333;stroke-linecap:butt;stroke-linejoin:miter;stroke:rgb(0%,0%,0%);stroke-opacity:1;stroke-miterlimit:10;" d="M 0.00016789 3.490344 L 0.00016789 4.346713 " transform="matrix(17.241379,0,0,17.351598,17.13773,17.351016)"/>
<path style="fill:none;stroke-width:0.0333333;stroke-linecap:butt;stroke-linejoin:miter;stroke:rgb(0%,0%,0%);stroke-opacity:1;stroke-miterlimit:10;" d="M 0.165785 4.595925 L 0.874473 5.004974 " transform="matrix(17.241379,0,0,17.351598,17.13773,17.351016)"/>
<path style="fill:none;stroke-width:0.0333333;stroke-linecap:butt;stroke-linejoin:miter;stroke:rgb(0%,0%,0%);stroke-opacity:1;stroke-miterlimit:10;" d="M 0.249387 4.451396 L 0.874473 4.812268 " transform="matrix(17.241379,0,0,17.351598,17.13773,17.351016)"/>
<path style="fill:none;stroke-width:0.0333333;stroke-linecap:butt;stroke-linejoin:miter;stroke:rgb(0%,0%,0%);stroke-opacity:1;stroke-miterlimit:10;" d="M 0.857707 5.004974 L 1.740394 4.495295 " transform="matrix(17.241379,0,0,17.351598,17.13773,17.351016)"/>
<path style="fill:none;stroke-width:0.0333333;stroke-linecap:butt;stroke-linejoin:miter;stroke:rgb(0%,0%,0%);stroke-opacity:1;stroke-miterlimit:10;" d="M 1.732012 4.509703 L 1.732012 3.490569 " transform="matrix(17.241379,0,0,17.351598,17.13773,17.351016)"/>
<path style="fill:none;stroke-width:0.0333333;stroke-linecap:butt;stroke-linejoin:miter;stroke:rgb(0%,0%,0%);stroke-opacity:1;stroke-miterlimit:10;" d="M 1.565488 4.413575 L 1.565488 3.586697 " transform="matrix(17.241379,0,0,17.351598,17.13773,17.351016)"/>
</g>
</svg>
