<?xml version="1.0" encoding="UTF-8"?>
<svg xmlns="http://www.w3.org/2000/svg" xmlns:xlink="http://www.w3.org/1999/xlink" width="137.6pt" height="86.4pt" viewBox="0 0 137.6 86.4" version="1.1">
<g id="surface572">
<path style=" stroke:none;fill-rule:nonzero;fill:rgb(0%,0%,47.058824%);fill-opacity:1;" d="M 33.03125 53.828125 L 31.363281 50.894531 C 31.375 50.976562 31.386719 51.054688 31.394531 51.132812 C 31.398438 51.199219 31.40625 51.269531 31.40625 51.351562 C 31.410156 51.429688 31.414062 51.507812 31.414062 51.578125 L 31.414062 53.828125 L 30.699219 53.828125 L 30.699219 50.019531 L 31.621094 50.019531 L 33.300781 52.972656 C 33.292969 52.902344 33.285156 52.820312 33.28125 52.734375 C 33.269531 52.664062 33.261719 52.582031 33.257812 52.496094 C 33.257812 52.410156 33.257812 52.320312 33.257812 52.226562 L 33.257812 50.019531 L 33.960938 50.019531 L 33.960938 53.828125 Z M 33.03125 53.828125 "/>
<path style=" stroke:none;fill-rule:nonzero;fill:rgb(0%,0%,47.058824%);fill-opacity:1;" d="M 34.539062 49.695312 L 35.46875 49.695312 L 35.46875 48.765625 L 35.933594 48.765625 L 35.933594 49.695312 L 36.859375 49.695312 L 36.859375 50.15625 L 35.933594 50.15625 L 35.933594 51.085938 L 35.46875 51.085938 L 35.46875 50.15625 L 34.539062 50.15625 "/>
<path style=" stroke:none;fill-rule:nonzero;fill:rgb(0%,0%,47.058824%);fill-opacity:1;" d="M 34.261719 69.214844 C 34.261719 69.511719 34.210938 69.78125 34.121094 70.027344 C 34.03125 70.273438 33.90625 70.480469 33.738281 70.652344 C 33.570312 70.828125 33.371094 70.960938 33.132812 71.054688 C 32.894531 71.144531 32.625 71.195312 32.320312 71.195312 C 32 71.195312 31.722656 71.144531 31.484375 71.054688 C 31.246094 70.953125 31.042969 70.816406 30.878906 70.640625 C 30.71875 70.464844 30.601562 70.253906 30.523438 70.015625 C 30.441406 69.773438 30.402344 69.503906 30.402344 69.214844 C 30.402344 68.917969 30.441406 68.652344 30.523438 68.414062 C 30.609375 68.171875 30.734375 67.964844 30.902344 67.796875 C 31.066406 67.632812 31.269531 67.503906 31.507812 67.40625 C 31.746094 67.316406 32.019531 67.265625 32.332031 67.265625 C 32.640625 67.265625 32.917969 67.316406 33.15625 67.40625 C 33.394531 67.503906 33.589844 67.636719 33.75 67.808594 C 33.917969 67.976562 34.042969 68.175781 34.128906 68.414062 C 34.21875 68.652344 34.261719 68.917969 34.261719 69.214844 Z M 33.449219 69.214844 C 33.449219 69.015625 33.421875 68.832031 33.371094 68.671875 C 33.320312 68.515625 33.246094 68.378906 33.15625 68.261719 C 33.058594 68.148438 32.945312 68.058594 32.808594 67.992188 C 32.671875 67.925781 32.511719 67.894531 32.332031 67.894531 C 32.140625 67.894531 31.976562 67.925781 31.832031 67.992188 C 31.695312 68.058594 31.578125 68.148438 31.484375 68.261719 C 31.390625 68.378906 31.316406 68.515625 31.269531 68.671875 C 31.226562 68.832031 31.203125 69.015625 31.203125 69.214844 C 31.203125 69.417969 31.230469 69.601562 31.28125 69.765625 C 31.328125 69.925781 31.402344 70.066406 31.496094 70.1875 C 31.589844 70.304688 31.707031 70.398438 31.84375 70.46875 C 31.980469 70.535156 32.140625 70.566406 32.320312 70.566406 C 32.515625 70.566406 32.679688 70.535156 32.820312 70.46875 C 32.960938 70.398438 33.082031 70.304688 33.175781 70.1875 C 33.269531 70.066406 33.339844 69.921875 33.382812 69.753906 C 33.425781 69.589844 33.449219 69.410156 33.449219 69.214844 Z M 33.449219 69.214844 "/>
<path style=" stroke:none;fill-rule:nonzero;fill:rgb(0%,0%,47.058824%);fill-opacity:1;" d="M 34.835938 66.894531 L 37.15625 66.894531 L 37.15625 67.355469 L 34.835938 67.355469 "/>
<path style=" stroke:none;fill-rule:nonzero;fill:rgb(0%,0%,47.058824%);fill-opacity:1;" d="M 19.246094 43.253906 C 19.246094 43.550781 19.195312 43.820312 19.105469 44.0625 C 19.019531 44.308594 18.890625 44.519531 18.726562 44.691406 C 18.558594 44.863281 18.355469 45 18.117188 45.09375 C 17.878906 45.183594 17.609375 45.234375 17.304688 45.234375 C 16.988281 45.234375 16.710938 45.183594 16.472656 45.09375 C 16.234375 44.992188 16.03125 44.855469 15.863281 44.679688 C 15.703125 44.503906 15.585938 44.292969 15.507812 44.054688 C 15.425781 43.808594 15.386719 43.542969 15.386719 43.253906 C 15.386719 42.957031 15.425781 42.691406 15.507812 42.453125 C 15.59375 42.210938 15.71875 42.003906 15.886719 41.835938 C 16.050781 41.671875 16.253906 41.542969 16.492188 41.445312 C 16.730469 41.355469 17.003906 41.304688 17.316406 41.304688 C 17.625 41.304688 17.902344 41.355469 18.140625 41.445312 C 18.378906 41.542969 18.578125 41.671875 18.738281 41.847656 C 18.902344 42.015625 19.027344 42.214844 19.117188 42.453125 C 19.203125 42.691406 19.246094 42.957031 19.246094 43.253906 Z M 18.433594 43.253906 C 18.433594 43.054688 18.40625 42.871094 18.355469 42.710938 C 18.304688 42.554688 18.234375 42.417969 18.140625 42.300781 C 18.046875 42.1875 17.929688 42.09375 17.792969 42.03125 C 17.65625 41.964844 17.496094 41.933594 17.316406 41.933594 C 17.128906 41.933594 16.960938 41.964844 16.820312 42.03125 C 16.679688 42.09375 16.5625 42.1875 16.472656 42.300781 C 16.375 42.417969 16.304688 42.554688 16.253906 42.710938 C 16.210938 42.871094 16.191406 43.054688 16.191406 43.253906 C 16.191406 43.457031 16.214844 43.640625 16.265625 43.804688 C 16.316406 43.964844 16.386719 44.105469 16.484375 44.226562 C 16.574219 44.34375 16.691406 44.4375 16.828125 44.507812 C 16.964844 44.574219 17.125 44.605469 17.304688 44.605469 C 17.5 44.605469 17.667969 44.574219 17.804688 44.507812 C 17.949219 44.4375 18.066406 44.34375 18.164062 44.226562 C 18.253906 44.105469 18.324219 43.960938 18.367188 43.792969 C 18.410156 43.628906 18.433594 43.449219 18.433594 43.253906 Z M 18.433594 43.253906 "/>
<path style=" stroke:none;fill-rule:nonzero;fill:rgb(0%,0%,47.058824%);fill-opacity:1;" d="M 120.703125 33.632812 L 119.035156 30.703125 C 119.050781 30.785156 119.058594 30.863281 119.066406 30.941406 C 119.074219 31.003906 119.078125 31.078125 119.078125 31.15625 C 119.085938 31.238281 119.089844 31.3125 119.089844 31.382812 L 119.089844 33.632812 L 118.375 33.632812 L 118.375 29.824219 L 119.296875 29.824219 L 120.976562 32.777344 C 120.96875 32.707031 120.960938 32.628906 120.953125 32.542969 C 120.945312 32.472656 120.9375 32.390625 120.933594 32.304688 C 120.933594 32.214844 120.933594 32.128906 120.933594 32.03125 L 120.933594 29.824219 L 121.636719 29.824219 L 121.636719 33.632812 Z M 120.703125 33.632812 "/>
<path style=" stroke:none;fill-rule:nonzero;fill:rgb(0%,0%,47.058824%);fill-opacity:1;" d="M 122.214844 29.5 L 123.144531 29.5 L 123.144531 28.574219 L 123.605469 28.574219 L 123.605469 29.5 L 124.535156 29.5 L 124.535156 29.964844 L 123.605469 29.964844 L 123.605469 30.890625 L 123.144531 30.890625 L 123.144531 29.964844 L 122.214844 29.964844 "/>
<path style=" stroke:none;fill-rule:nonzero;fill:rgb(0%,0%,47.058824%);fill-opacity:1;" d="M 120.003906 28.789062 L 120.582031 28.789062 C 120.582031 29.558594 119.429688 29.558594 119.429688 28.789062 C 119.429688 28.019531 120.582031 28.019531 120.582031 28.789062 "/>
<path style=" stroke:none;fill-rule:nonzero;fill:rgb(0%,0%,47.058824%);fill-opacity:1;" d="M 121.933594 49.019531 C 121.933594 49.320312 121.886719 49.589844 121.792969 49.832031 C 121.707031 50.078125 121.578125 50.285156 121.414062 50.460938 C 121.246094 50.632812 121.046875 50.769531 120.808594 50.859375 C 120.570312 50.953125 120.296875 51 119.996094 51 C 119.675781 51 119.398438 50.953125 119.160156 50.859375 C 118.921875 50.761719 118.71875 50.621094 118.554688 50.449219 C 118.394531 50.269531 118.273438 50.058594 118.195312 49.820312 C 118.113281 49.578125 118.078125 49.3125 118.078125 49.019531 C 118.078125 48.726562 118.113281 48.457031 118.195312 48.222656 C 118.28125 47.976562 118.40625 47.773438 118.574219 47.605469 C 118.742188 47.4375 118.945312 47.308594 119.183594 47.214844 C 119.421875 47.121094 119.695312 47.074219 120.003906 47.074219 C 120.3125 47.074219 120.589844 47.121094 120.828125 47.214844 C 121.066406 47.308594 121.265625 47.441406 121.425781 47.613281 C 121.589844 47.78125 121.71875 47.984375 121.804688 48.222656 C 121.890625 48.457031 121.933594 48.726562 121.933594 49.019531 Z M 121.121094 49.019531 C 121.121094 48.820312 121.09375 48.640625 121.046875 48.480469 C 120.996094 48.324219 120.921875 48.1875 120.828125 48.070312 C 120.734375 47.957031 120.617188 47.863281 120.480469 47.800781 C 120.34375 47.734375 120.183594 47.703125 120.003906 47.703125 C 119.816406 47.703125 119.652344 47.734375 119.507812 47.800781 C 119.367188 47.863281 119.253906 47.957031 119.160156 48.070312 C 119.066406 48.1875 118.992188 48.324219 118.945312 48.480469 C 118.898438 48.640625 118.878906 48.820312 118.878906 49.019531 C 118.878906 49.222656 118.902344 49.40625 118.953125 49.574219 C 119.003906 49.734375 119.078125 49.875 119.171875 49.996094 C 119.261719 50.109375 119.378906 50.207031 119.519531 50.277344 C 119.652344 50.339844 119.8125 50.375 119.996094 50.375 C 120.191406 50.375 120.355469 50.339844 120.492188 50.277344 C 120.636719 50.207031 120.757812 50.109375 120.851562 49.996094 C 120.941406 49.875 121.011719 49.730469 121.058594 49.5625 C 121.101562 49.398438 121.121094 49.214844 121.121094 49.019531 Z M 121.121094 49.019531 "/>
<path style=" stroke:none;fill-rule:nonzero;fill:rgb(0%,0%,47.058824%);fill-opacity:1;" d="M 122.511719 46.703125 L 124.832031 46.703125 L 124.832031 47.167969 L 122.511719 47.167969 "/>
<path style=" stroke:none;fill-rule:nonzero;fill:rgb(0%,0%,47.058824%);fill-opacity:1;" d="M 106.917969 23.058594 C 106.917969 23.355469 106.867188 23.628906 106.777344 23.871094 C 106.691406 24.117188 106.5625 24.324219 106.398438 24.5 C 106.230469 24.671875 106.027344 24.808594 105.789062 24.898438 C 105.550781 24.992188 105.28125 25.039062 104.976562 25.039062 C 104.65625 25.039062 104.382812 24.992188 104.144531 24.898438 C 103.90625 24.796875 103.703125 24.660156 103.535156 24.488281 C 103.375 24.308594 103.257812 24.097656 103.179688 23.859375 C 103.097656 23.617188 103.058594 23.347656 103.058594 23.058594 C 103.058594 22.765625 103.097656 22.496094 103.179688 22.257812 C 103.265625 22.015625 103.390625 21.808594 103.558594 21.644531 C 103.722656 21.476562 103.925781 21.347656 104.164062 21.253906 C 104.402344 21.160156 104.675781 21.113281 104.988281 21.113281 C 105.296875 21.113281 105.574219 21.160156 105.8125 21.253906 C 106.050781 21.347656 106.25 21.480469 106.40625 21.652344 C 106.574219 21.820312 106.699219 22.019531 106.789062 22.257812 C 106.875 22.496094 106.917969 22.765625 106.917969 23.058594 Z M 106.105469 23.058594 C 106.105469 22.859375 106.078125 22.679688 106.027344 22.519531 C 105.976562 22.363281 105.90625 22.222656 105.8125 22.109375 C 105.71875 21.996094 105.601562 21.902344 105.464844 21.835938 C 105.328125 21.773438 105.167969 21.738281 104.988281 21.738281 C 104.800781 21.738281 104.632812 21.773438 104.488281 21.835938 C 104.351562 21.902344 104.234375 21.996094 104.144531 22.109375 C 104.046875 22.222656 103.976562 22.363281 103.925781 22.519531 C 103.882812 22.679688 103.863281 22.859375 103.863281 23.058594 C 103.863281 23.261719 103.886719 23.445312 103.9375 23.613281 C 103.984375 23.769531 104.058594 23.910156 104.152344 24.035156 C 104.246094 24.148438 104.363281 24.246094 104.5 24.316406 C 104.636719 24.378906 104.796875 24.410156 104.976562 24.410156 C 105.171875 24.410156 105.339844 24.378906 105.476562 24.316406 C 105.621094 24.246094 105.738281 24.148438 105.832031 24.035156 C 105.925781 23.910156 105.996094 23.769531 106.039062 23.601562 C 106.082031 23.4375 106.105469 23.253906 106.105469 23.058594 Z M 106.105469 23.058594 "/>
<path style="fill:none;stroke-width:0.0333333;stroke-linecap:butt;stroke-linejoin:miter;stroke:rgb(0%,0%,0%);stroke-opacity:1;stroke-miterlimit:10;" d="M 2.606341 -0.00489931 L 1.723652 0.504944 " transform="matrix(17.33871,0,0,17.307692,17.317227,17.307452)"/>
<path style="fill:none;stroke-width:0.0333333;stroke-linecap:butt;stroke-linejoin:miter;stroke:rgb(0%,0%,0%);stroke-opacity:1;stroke-miterlimit:10;" d="M 1.731988 0.490274 L 1.731988 1.500031 " transform="matrix(17.33871,0,0,17.307692,17.317227,17.307452)"/>
<path style="fill:none;stroke-width:0.0333333;stroke-linecap:butt;stroke-linejoin:miter;stroke:rgb(0%,0%,0%);stroke-opacity:1;stroke-miterlimit:10;" d="M 1.898703 0.586646 L 1.898703 1.40366 " transform="matrix(17.33871,0,0,17.307692,17.317227,17.307452)"/>
<path style="fill:none;stroke-width:0.0333333;stroke-linecap:butt;stroke-linejoin:miter;stroke:rgb(0%,0%,0%);stroke-opacity:1;stroke-miterlimit:10;" d="M 1.723652 1.495066 L 2.606341 2.00491 " transform="matrix(17.33871,0,0,17.307692,17.317227,17.307452)"/>
<path style="fill:none;stroke-width:0.0333333;stroke-linecap:butt;stroke-linejoin:miter;stroke:rgb(0%,0%,0%);stroke-opacity:1;stroke-miterlimit:10;" d="M 2.589669 2.00491 L 3.472358 1.495066 " transform="matrix(17.33871,0,0,17.307692,17.317227,17.307452)"/>
<path style="fill:none;stroke-width:0.0333333;stroke-linecap:butt;stroke-linejoin:miter;stroke:rgb(0%,0%,0%);stroke-opacity:1;stroke-miterlimit:10;" d="M 2.589669 1.812392 L 3.305868 1.39892 " transform="matrix(17.33871,0,0,17.307692,17.317227,17.307452)"/>
<path style="fill:none;stroke-width:0.0333333;stroke-linecap:butt;stroke-linejoin:miter;stroke:rgb(0%,0%,0%);stroke-opacity:1;stroke-miterlimit:10;" d="M 3.464022 1.509736 L 3.464022 0.490274 " transform="matrix(17.33871,0,0,17.307692,17.317227,17.307452)"/>
<path style="fill:none;stroke-width:0.0333333;stroke-linecap:butt;stroke-linejoin:miter;stroke:rgb(0%,0%,0%);stroke-opacity:1;stroke-miterlimit:10;" d="M 2.589669 -0.00489931 L 3.472358 0.504944 " transform="matrix(17.33871,0,0,17.307692,17.317227,17.307452)"/>
<path style="fill:none;stroke-width:0.0333333;stroke-linecap:butt;stroke-linejoin:miter;stroke:rgb(0%,0%,0%);stroke-opacity:1;stroke-miterlimit:10;" d="M 2.589669 0.187618 L 3.305868 0.60109 " transform="matrix(17.33871,0,0,17.307692,17.317227,17.307452)"/>
<path style="fill:none;stroke-width:0.0333333;stroke-linecap:butt;stroke-linejoin:miter;stroke:rgb(0%,0%,0%);stroke-opacity:1;stroke-miterlimit:10;" d="M 1.740323 1.495066 L 1.198724 1.807878 " transform="matrix(17.33871,0,0,17.307692,17.317227,17.307452)"/>
<path style="fill:none;stroke-width:0.06;stroke-linecap:butt;stroke-linejoin:miter;stroke:rgb(0%,0%,47.058824%);stroke-opacity:1;stroke-miterlimit:10;" d="M 0.86597 2.153191 L 0.86597 2.843365 " transform="matrix(17.33871,0,0,17.307692,17.317227,17.307452)"/>
<path style="fill:none;stroke-width:0.06;stroke-linecap:butt;stroke-linejoin:miter;stroke:rgb(0%,0%,47.058824%);stroke-opacity:1;stroke-miterlimit:10;" d="M 0.738005 1.829997 L 0.225469 1.533885 " transform="matrix(17.33871,0,0,17.307692,17.317227,17.307452)"/>
<path style="fill:none;stroke-width:0.06;stroke-linecap:butt;stroke-linejoin:miter;stroke:rgb(0%,0%,47.058824%);stroke-opacity:1;stroke-miterlimit:10;" d="M 0.654873 1.974441 L 0.142111 1.67833 " transform="matrix(17.33871,0,0,17.307692,17.317227,17.307452)"/>
<path style="fill:none;stroke-width:0.06;stroke-linecap:butt;stroke-linejoin:miter;stroke:rgb(0%,0%,47.058824%);stroke-opacity:1;stroke-miterlimit:10;" d="M 5.922395 0.986802 L 5.922395 1.676524 " transform="matrix(17.33871,0,0,17.307692,17.317227,17.307452)"/>
<path style="fill:none;stroke-width:0.06;stroke-linecap:butt;stroke-linejoin:miter;stroke:rgb(0%,0%,47.058824%);stroke-opacity:1;stroke-miterlimit:10;" d="M 5.794655 0.663382 L 5.281893 0.367271 " transform="matrix(17.33871,0,0,17.307692,17.317227,17.307452)"/>
<path style="fill:none;stroke-width:0.06;stroke-linecap:butt;stroke-linejoin:miter;stroke:rgb(0%,0%,47.058824%);stroke-opacity:1;stroke-miterlimit:10;" d="M 5.711297 0.807601 L 5.198536 0.51149 " transform="matrix(17.33871,0,0,17.307692,17.317227,17.307452)"/>
</g>
</svg>
