<?xml version="1.0" encoding="UTF-8"?>
<svg xmlns="http://www.w3.org/2000/svg" xmlns:xlink="http://www.w3.org/1999/xlink" width="64pt" height="68.8pt" viewBox="0 0 64 68.8" version="1.1">
<g id="surface102">
<path style=" stroke:none;fill-rule:nonzero;fill:rgb(0%,0%,0%);fill-opacity:1;" d="M 48.304688 18.898438 L 47.871094 17.78125 L 46.136719 17.78125 L 45.707031 18.898438 L 45.167969 18.898438 L 46.71875 15.085938 L 47.300781 15.085938 L 48.832031 18.898438 Z M 47.226562 16.113281 C 47.195312 16.042969 47.164062 15.96875 47.140625 15.898438 C 47.117188 15.828125 47.097656 15.761719 47.074219 15.703125 C 47.054688 15.636719 47.035156 15.589844 47.019531 15.550781 C 47.011719 15.507812 47.003906 15.484375 47 15.476562 C 47 15.484375 46.992188 15.507812 46.976562 15.550781 C 46.960938 15.589844 46.945312 15.636719 46.921875 15.703125 C 46.90625 15.761719 46.886719 15.828125 46.859375 15.910156 C 46.828125 15.980469 46.804688 16.054688 46.785156 16.125 L 46.296875 17.382812 L 47.710938 17.382812 Z M 47.226562 16.113281 "/>
<path style=" stroke:none;fill-rule:nonzero;fill:rgb(0%,0%,0%);fill-opacity:1;" d="M 17.242188 15.449219 C 17.027344 15.449219 16.835938 15.484375 16.671875 15.554688 C 16.507812 15.628906 16.367188 15.734375 16.253906 15.871094 C 16.144531 16 16.0625 16.160156 16.003906 16.347656 C 15.945312 16.535156 15.917969 16.746094 15.917969 16.976562 C 15.917969 17.207031 15.945312 17.421875 16.003906 17.613281 C 16.070312 17.804688 16.160156 17.96875 16.273438 18.101562 C 16.386719 18.242188 16.527344 18.347656 16.695312 18.429688 C 16.867188 18.5 17.054688 18.535156 17.265625 18.535156 C 17.417969 18.535156 17.546875 18.519531 17.664062 18.480469 C 17.785156 18.4375 17.894531 18.382812 18 18.308594 C 18.097656 18.238281 18.183594 18.152344 18.257812 18.058594 C 18.335938 17.96875 18.402344 17.859375 18.460938 17.734375 L 18.882812 17.949219 C 18.816406 18.097656 18.734375 18.230469 18.632812 18.351562 C 18.53125 18.476562 18.414062 18.585938 18.277344 18.675781 C 18.140625 18.765625 17.988281 18.835938 17.816406 18.882812 C 17.644531 18.933594 17.453125 18.957031 17.242188 18.957031 C 16.933594 18.957031 16.664062 18.910156 16.4375 18.816406 C 16.203125 18.71875 16.011719 18.578125 15.855469 18.40625 C 15.703125 18.226562 15.585938 18.015625 15.507812 17.777344 C 15.429688 17.535156 15.390625 17.265625 15.390625 16.976562 C 15.390625 16.679688 15.429688 16.414062 15.507812 16.171875 C 15.59375 15.929688 15.714844 15.722656 15.875 15.554688 C 16.03125 15.390625 16.226562 15.261719 16.457031 15.164062 C 16.6875 15.074219 16.949219 15.023438 17.242188 15.023438 C 17.644531 15.023438 17.980469 15.105469 18.246094 15.261719 C 18.519531 15.421875 18.71875 15.660156 18.851562 15.980469 L 18.363281 16.140625 C 18.328125 16.050781 18.277344 15.960938 18.214844 15.882812 C 18.15625 15.792969 18.078125 15.722656 17.988281 15.664062 C 17.894531 15.597656 17.785156 15.550781 17.664062 15.511719 C 17.539062 15.46875 17.398438 15.449219 17.242188 15.449219 Z M 17.242188 15.449219 "/>
<path style=" stroke:none;fill-rule:nonzero;fill:rgb(0%,0%,0%);fill-opacity:1;" d="M 47.105469 50.125 C 46.890625 50.125 46.699219 50.164062 46.535156 50.234375 C 46.367188 50.304688 46.226562 50.414062 46.117188 50.546875 C 46.007812 50.679688 45.925781 50.835938 45.867188 51.023438 C 45.808594 51.214844 45.78125 51.421875 45.78125 51.652344 C 45.78125 51.886719 45.808594 52.097656 45.867188 52.292969 C 45.933594 52.480469 46.019531 52.644531 46.136719 52.78125 C 46.25 52.917969 46.390625 53.027344 46.558594 53.105469 C 46.730469 53.179688 46.917969 53.214844 47.128906 53.214844 C 47.277344 53.214844 47.410156 53.199219 47.527344 53.160156 C 47.648438 53.117188 47.757812 53.058594 47.859375 52.984375 C 47.960938 52.914062 48.046875 52.832031 48.121094 52.738281 C 48.199219 52.644531 48.265625 52.535156 48.324219 52.410156 L 48.746094 52.628906 C 48.679688 52.773438 48.597656 52.90625 48.496094 53.03125 C 48.394531 53.152344 48.277344 53.261719 48.140625 53.355469 C 48.003906 53.441406 47.851562 53.511719 47.679688 53.558594 C 47.503906 53.609375 47.3125 53.636719 47.105469 53.636719 C 46.796875 53.636719 46.527344 53.585938 46.296875 53.496094 C 46.066406 53.394531 45.871094 53.257812 45.714844 53.082031 C 45.566406 52.90625 45.449219 52.695312 45.371094 52.453125 C 45.289062 52.210938 45.253906 51.941406 45.253906 51.652344 C 45.253906 51.359375 45.289062 51.089844 45.371094 50.851562 C 45.457031 50.605469 45.578125 50.402344 45.738281 50.234375 C 45.894531 50.066406 46.089844 49.9375 46.320312 49.84375 C 46.550781 49.75 46.808594 49.703125 47.105469 49.703125 C 47.507812 49.703125 47.84375 49.785156 48.109375 49.941406 C 48.382812 50.101562 48.582031 50.339844 48.710938 50.65625 L 48.226562 50.820312 C 48.191406 50.726562 48.140625 50.640625 48.078125 50.558594 C 48.015625 50.472656 47.941406 50.402344 47.851562 50.34375 C 47.757812 50.277344 47.648438 50.226562 47.527344 50.191406 C 47.402344 50.148438 47.261719 50.125 47.105469 50.125 Z M 47.105469 50.125 "/>
<path style=" stroke:none;fill-rule:nonzero;fill:rgb(0%,0%,0%);fill-opacity:1;" d="M 18.441406 53.578125 L 18.007812 52.460938 L 16.273438 52.460938 L 15.84375 53.578125 L 15.304688 53.578125 L 16.855469 49.761719 L 17.4375 49.761719 L 18.96875 53.578125 Z M 17.363281 50.792969 C 17.332031 50.722656 17.304688 50.648438 17.277344 50.574219 C 17.253906 50.503906 17.234375 50.4375 17.210938 50.378906 C 17.191406 50.316406 17.171875 50.265625 17.15625 50.226562 C 17.148438 50.183594 17.140625 50.160156 17.136719 50.152344 C 17.136719 50.160156 17.128906 50.183594 17.113281 50.226562 C 17.097656 50.265625 17.082031 50.316406 17.0625 50.378906 C 17.042969 50.4375 17.023438 50.507812 16.996094 50.585938 C 16.964844 50.660156 16.941406 50.730469 16.921875 50.800781 L 16.4375 52.058594 L 17.847656 52.058594 Z M 17.363281 50.792969 "/>
<path style="fill:none;stroke-width:0.0333333;stroke-linecap:butt;stroke-linejoin:miter;stroke:rgb(0%,0%,0%);stroke-opacity:1;stroke-miterlimit:10;" d="M 0.866118 0.49991 L 1.553508 0.103173 " transform="matrix(17.241379,0,0,17.33871,17.137248,16.992356)"/>
<path style="fill:none;stroke-width:0.0333333;stroke-linecap:butt;stroke-linejoin:miter;stroke:rgb(0%,0%,0%);stroke-opacity:1;stroke-miterlimit:10;" d="M 0.866118 0.49991 L 0.176461 0.101822 " transform="matrix(17.241379,0,0,17.33871,17.137248,16.992356)"/>
<path style="fill:none;stroke-width:0.0333333;stroke-linecap:butt;stroke-linejoin:miter;stroke:rgb(0%,0%,0%);stroke-opacity:1;stroke-miterlimit:10;" d="M 0.866118 0.49991 L 0.866118 1.509663 " transform="matrix(17.241379,0,0,17.33871,17.137248,16.992356)"/>
<path style="fill:none;stroke-width:0.0333333;stroke-linecap:butt;stroke-linejoin:miter;stroke:rgb(0%,0%,0%);stroke-opacity:1;stroke-miterlimit:10;" d="M 0.857735 1.495019 L 1.555774 1.898064 " transform="matrix(17.241379,0,0,17.33871,17.137248,16.992356)"/>
<path style="fill:none;stroke-width:0.0333333;stroke-linecap:butt;stroke-linejoin:miter;stroke:rgb(0%,0%,0%);stroke-opacity:1;stroke-miterlimit:10;" d="M 0.866118 1.403777 L 0.13704 1.82462 " transform="matrix(17.241379,0,0,17.33871,17.137248,16.992356)"/>
<path style="fill:none;stroke-width:0.0333333;stroke-linecap:butt;stroke-linejoin:miter;stroke:rgb(0%,0%,0%);stroke-opacity:1;stroke-miterlimit:10;" d="M 0.949266 1.548188 L 0.220188 1.969031 " transform="matrix(17.241379,0,0,17.33871,17.137248,16.992356)"/>
</g>
</svg>
