<?xml version="1.0" encoding="UTF-8"?>
<svg xmlns="http://www.w3.org/2000/svg" xmlns:xlink="http://www.w3.org/1999/xlink" width="64pt" height="68.8pt" viewBox="0 0 64 68.8" version="1.1">
<g id="surface752">
<path style=" stroke:none;fill-rule:nonzero;fill:rgb(0%,0%,0%);fill-opacity:1;" d="M 47.925781 18.898438 L 45.890625 15.648438 C 45.894531 15.734375 45.898438 15.820312 45.898438 15.910156 C 45.90625 15.980469 45.910156 16.058594 45.910156 16.148438 C 45.914062 16.226562 45.921875 16.296875 45.921875 16.363281 L 45.921875 18.898438 L 45.457031 18.898438 L 45.457031 15.085938 L 46.0625 15.085938 L 48.109375 18.355469 C 48.109375 18.355469 48.101562 18.269531 48.097656 18.085938 C 48.089844 18.015625 48.082031 17.933594 48.078125 17.847656 C 48.078125 17.757812 48.078125 17.667969 48.078125 17.589844 L 48.078125 15.085938 L 48.539062 15.085938 L 48.539062 18.898438 Z M 47.925781 18.898438 "/>
<path style=" stroke:none;fill-rule:nonzero;fill:rgb(0%,0%,0%);fill-opacity:1;" d="M 17.242188 15.449219 C 17.027344 15.449219 16.835938 15.484375 16.671875 15.554688 C 16.507812 15.628906 16.367188 15.734375 16.253906 15.871094 C 16.144531 16 16.0625 16.160156 16.003906 16.347656 C 15.945312 16.535156 15.917969 16.746094 15.917969 16.976562 C 15.917969 17.207031 15.945312 17.421875 16.003906 17.613281 C 16.070312 17.804688 16.160156 17.96875 16.273438 18.101562 C 16.386719 18.242188 16.527344 18.347656 16.695312 18.429688 C 16.867188 18.5 17.054688 18.535156 17.265625 18.535156 C 17.417969 18.535156 17.546875 18.519531 17.664062 18.480469 C 17.785156 18.4375 17.894531 18.382812 18 18.308594 C 18.097656 18.238281 18.183594 18.152344 18.257812 18.058594 C 18.335938 17.96875 18.402344 17.859375 18.460938 17.734375 L 18.882812 17.949219 C 18.816406 18.097656 18.734375 18.230469 18.632812 18.351562 C 18.53125 18.476562 18.414062 18.585938 18.277344 18.675781 C 18.140625 18.765625 17.988281 18.835938 17.816406 18.882812 C 17.644531 18.933594 17.453125 18.957031 17.242188 18.957031 C 16.933594 18.957031 16.664062 18.910156 16.4375 18.816406 C 16.203125 18.71875 16.011719 18.578125 15.855469 18.40625 C 15.703125 18.226562 15.585938 18.015625 15.507812 17.777344 C 15.429688 17.535156 15.390625 17.265625 15.390625 16.976562 C 15.390625 16.679688 15.429688 16.414062 15.507812 16.171875 C 15.59375 15.929688 15.714844 15.722656 15.875 15.554688 C 16.03125 15.390625 16.226562 15.261719 16.457031 15.164062 C 16.6875 15.074219 16.949219 15.023438 17.242188 15.023438 C 17.644531 15.023438 17.980469 15.105469 18.246094 15.261719 C 18.519531 15.421875 18.71875 15.660156 18.851562 15.980469 L 18.363281 16.140625 C 18.328125 16.050781 18.277344 15.960938 18.214844 15.882812 C 18.15625 15.792969 18.078125 15.722656 17.988281 15.664062 C 17.894531 15.597656 17.785156 15.550781 17.664062 15.511719 C 17.539062 15.46875 17.398438 15.449219 17.242188 15.449219 Z M 17.242188 15.449219 "/>
<path style=" stroke:none;fill-rule:nonzero;fill:rgb(0%,0%,0%);fill-opacity:1;" d="M 47.925781 53.578125 L 45.890625 50.324219 C 45.894531 50.414062 45.898438 50.5 45.898438 50.585938 C 45.90625 50.660156 45.910156 50.738281 45.910156 50.824219 C 45.914062 50.90625 45.921875 50.976562 45.921875 51.039062 L 45.921875 53.578125 L 45.457031 53.578125 L 45.457031 49.761719 L 46.0625 49.761719 L 48.109375 53.035156 C 48.109375 53.035156 48.101562 52.945312 48.097656 52.765625 C 48.089844 52.695312 48.082031 52.613281 48.078125 52.527344 C 48.078125 52.433594 48.078125 52.347656 48.078125 52.265625 L 48.078125 49.761719 L 48.539062 49.761719 L 48.539062 53.578125 Z M 47.925781 53.578125 "/>
<path style=" stroke:none;fill-rule:nonzero;fill:rgb(0%,0%,0%);fill-opacity:1;" d="M 17.242188 50.125 C 17.027344 50.125 16.835938 50.164062 16.671875 50.234375 C 16.507812 50.304688 16.367188 50.414062 16.253906 50.546875 C 16.144531 50.679688 16.0625 50.835938 16.003906 51.023438 C 15.945312 51.214844 15.917969 51.421875 15.917969 51.652344 C 15.917969 51.886719 15.945312 52.097656 16.003906 52.292969 C 16.070312 52.480469 16.160156 52.644531 16.273438 52.78125 C 16.386719 52.917969 16.527344 53.027344 16.695312 53.105469 C 16.867188 53.179688 17.054688 53.214844 17.265625 53.214844 C 17.417969 53.214844 17.546875 53.199219 17.664062 53.160156 C 17.785156 53.117188 17.894531 53.058594 18 52.984375 C 18.097656 52.914062 18.183594 52.832031 18.257812 52.738281 C 18.335938 52.644531 18.402344 52.535156 18.460938 52.410156 L 18.882812 52.628906 C 18.816406 52.773438 18.734375 52.90625 18.632812 53.03125 C 18.53125 53.152344 18.414062 53.261719 18.277344 53.355469 C 18.140625 53.441406 17.988281 53.511719 17.816406 53.558594 C 17.644531 53.609375 17.453125 53.636719 17.242188 53.636719 C 16.933594 53.636719 16.664062 53.585938 16.4375 53.496094 C 16.203125 53.394531 16.011719 53.257812 15.855469 53.082031 C 15.703125 52.90625 15.585938 52.695312 15.507812 52.453125 C 15.429688 52.210938 15.390625 51.941406 15.390625 51.652344 C 15.390625 51.359375 15.429688 51.089844 15.507812 50.851562 C 15.59375 50.605469 15.714844 50.402344 15.875 50.234375 C 16.03125 50.066406 16.226562 49.9375 16.457031 49.84375 C 16.6875 49.75 16.949219 49.703125 17.242188 49.703125 C 17.644531 49.703125 17.980469 49.785156 18.246094 49.941406 C 18.519531 50.101562 18.71875 50.339844 18.851562 50.65625 L 18.363281 50.820312 C 18.328125 50.726562 18.277344 50.640625 18.214844 50.558594 C 18.15625 50.472656 18.078125 50.402344 17.988281 50.34375 C 17.894531 50.277344 17.785156 50.226562 17.664062 50.191406 C 17.539062 50.148438 17.398438 50.125 17.242188 50.125 Z M 17.242188 50.125 "/>
<path style="fill:none;stroke-width:0.0333333;stroke-linecap:butt;stroke-linejoin:miter;stroke:rgb(0%,0%,0%);stroke-opacity:1;stroke-miterlimit:10;" d="M 0.857726 0.504882 L 1.566187 0.0957536 " transform="matrix(17.241379,0,0,17.33871,17.137401,16.9921)"/>
<path style="fill:none;stroke-width:0.0333333;stroke-linecap:butt;stroke-linejoin:miter;stroke:rgb(0%,0%,0%);stroke-opacity:1;stroke-miterlimit:10;" d="M 0.874265 0.504882 L 0.176453 0.101836 " transform="matrix(17.241379,0,0,17.33871,17.137401,16.9921)"/>
<path style="fill:none;stroke-width:0.0333333;stroke-linecap:butt;stroke-linejoin:miter;stroke:rgb(0%,0%,0%);stroke-opacity:1;stroke-miterlimit:10;" d="M 0.782734 0.451938 L 0.782734 1.548203 " transform="matrix(17.241379,0,0,17.33871,17.137401,16.9921)"/>
<path style="fill:none;stroke-width:0.0333333;stroke-linecap:butt;stroke-linejoin:miter;stroke:rgb(0%,0%,0%);stroke-opacity:1;stroke-miterlimit:10;" d="M 0.949257 0.451938 L 0.949257 1.548203 " transform="matrix(17.241379,0,0,17.33871,17.137401,16.9921)"/>
<path style="fill:none;stroke-width:0.0333333;stroke-linecap:butt;stroke-linejoin:miter;stroke:rgb(0%,0%,0%);stroke-opacity:1;stroke-miterlimit:10;" d="M 1.041015 0.82502 L 1.041015 1.174896 L 0.690976 1.174896 L 0.690976 0.82502 Z M 1.041015 0.82502 " transform="matrix(17.241379,0,0,17.33871,17.137401,16.9921)"/>
<path style="fill:none;stroke-width:0.0333333;stroke-linecap:butt;stroke-linejoin:miter;stroke:rgb(0%,0%,0%);stroke-opacity:1;stroke-miterlimit:10;" d="M 0.857726 1.495259 L 1.566187 1.904162 " transform="matrix(17.241379,0,0,17.33871,17.137401,16.9921)"/>
<path style="fill:none;stroke-width:0.0333333;stroke-linecap:butt;stroke-linejoin:miter;stroke:rgb(0%,0%,0%);stroke-opacity:1;stroke-miterlimit:10;" d="M 0.874265 1.495259 L 0.176453 1.898079 " transform="matrix(17.241379,0,0,17.33871,17.137401,16.9921)"/>
</g>
</svg>
