<?xml version="1.0" encoding="UTF-8"?>
<svg xmlns="http://www.w3.org/2000/svg" xmlns:xlink="http://www.w3.org/1999/xlink" width="193.6pt" height="120pt" viewBox="0 0 193.6 120" version="1.1">
<g id="surface1157">
<path style=" stroke:none;fill-rule:nonzero;fill:rgb(0%,0%,0%);fill-opacity:1;" d="M 162.902344 17.226562 C 162.902344 17.523438 162.855469 17.792969 162.769531 18.039062 C 162.683594 18.28125 162.554688 18.492188 162.390625 18.664062 C 162.230469 18.835938 162.03125 18.972656 161.792969 19.0625 C 161.558594 19.15625 161.296875 19.203125 161 19.203125 C 160.679688 19.203125 160.402344 19.15625 160.164062 19.0625 C 159.929688 18.964844 159.734375 18.824219 159.574219 18.652344 C 159.414062 18.472656 159.296875 18.265625 159.21875 18.027344 C 159.136719 17.785156 159.097656 17.515625 159.097656 17.226562 C 159.097656 16.933594 159.136719 16.664062 159.21875 16.429688 C 159.304688 16.183594 159.425781 15.980469 159.585938 15.8125 C 159.753906 15.648438 159.949219 15.519531 160.183594 15.421875 C 160.421875 15.332031 160.695312 15.28125 161 15.28125 C 161.304688 15.28125 161.574219 15.332031 161.8125 15.421875 C 162.054688 15.519531 162.25 15.648438 162.410156 15.824219 C 162.570312 15.992188 162.6875 16.191406 162.769531 16.429688 C 162.855469 16.664062 162.902344 16.933594 162.902344 17.226562 Z M 162.367188 17.226562 C 162.367188 16.996094 162.339844 16.789062 162.28125 16.601562 C 162.222656 16.414062 162.132812 16.253906 162.019531 16.125 C 161.902344 15.992188 161.761719 15.886719 161.585938 15.8125 C 161.417969 15.742188 161.222656 15.703125 161 15.703125 C 160.773438 15.703125 160.574219 15.742188 160.402344 15.8125 C 160.226562 15.886719 160.082031 15.992188 159.96875 16.125 C 159.859375 16.253906 159.773438 16.414062 159.71875 16.601562 C 159.65625 16.789062 159.628906 16.996094 159.628906 17.226562 C 159.628906 17.460938 159.65625 17.671875 159.71875 17.863281 C 159.773438 18.054688 159.859375 18.214844 159.976562 18.351562 C 160.09375 18.488281 160.234375 18.597656 160.402344 18.675781 C 160.574219 18.746094 160.773438 18.78125 161 18.78125 C 161.238281 18.78125 161.445312 18.746094 161.617188 18.675781 C 161.792969 18.597656 161.933594 18.488281 162.042969 18.351562 C 162.152344 18.207031 162.230469 18.042969 162.28125 17.855469 C 162.339844 17.660156 162.367188 17.453125 162.367188 17.226562 Z M 162.367188 17.226562 "/>
<path style=" stroke:none;fill-rule:nonzero;fill:rgb(0%,0%,0%);fill-opacity:1;" d="M 176.4375 26.714844 C 176.4375 26.90625 176.394531 27.066406 176.316406 27.203125 C 176.242188 27.339844 176.144531 27.449219 176.011719 27.535156 C 175.882812 27.621094 175.730469 27.6875 175.554688 27.730469 C 175.386719 27.769531 175.210938 27.785156 175.023438 27.785156 L 173.46875 27.785156 L 173.46875 23.984375 L 174.859375 23.984375 C 175.070312 23.984375 175.257812 24 175.425781 24.035156 C 175.59375 24.066406 175.734375 24.121094 175.851562 24.199219 C 175.964844 24.273438 176.050781 24.367188 176.109375 24.492188 C 176.175781 24.605469 176.207031 24.746094 176.207031 24.902344 C 176.207031 25.007812 176.191406 25.113281 176.164062 25.203125 C 176.136719 25.296875 176.089844 25.382812 176.023438 25.460938 C 175.964844 25.535156 175.886719 25.601562 175.796875 25.65625 C 175.707031 25.707031 175.601562 25.75 175.480469 25.777344 C 175.632812 25.796875 175.765625 25.835938 175.882812 25.882812 C 176.003906 25.933594 176.105469 26.003906 176.1875 26.089844 C 176.265625 26.171875 176.328125 26.261719 176.371094 26.371094 C 176.414062 26.472656 176.4375 26.585938 176.4375 26.714844 Z M 175.6875 24.964844 C 175.6875 24.757812 175.613281 24.609375 175.46875 24.523438 C 175.332031 24.4375 175.128906 24.394531 174.859375 24.394531 L 173.992188 24.394531 L 173.992188 25.59375 L 174.859375 25.59375 C 175.011719 25.59375 175.136719 25.578125 175.242188 25.550781 C 175.351562 25.523438 175.4375 25.480469 175.503906 25.429688 C 175.566406 25.375 175.613281 25.304688 175.644531 25.226562 C 175.671875 25.148438 175.6875 25.058594 175.6875 24.964844 Z M 175.902344 26.671875 C 175.902344 26.550781 175.882812 26.449219 175.839844 26.371094 C 175.796875 26.285156 175.730469 26.214844 175.644531 26.164062 C 175.5625 26.109375 175.464844 26.066406 175.351562 26.046875 C 175.234375 26.019531 175.101562 26.003906 174.957031 26.003906 L 173.992188 26.003906 L 173.992188 27.375 L 175.003906 27.375 C 175.132812 27.375 175.253906 27.363281 175.359375 27.34375 C 175.476562 27.320312 175.574219 27.285156 175.652344 27.234375 C 175.734375 27.175781 175.796875 27.105469 175.839844 27.019531 C 175.882812 26.925781 175.902344 26.808594 175.902344 26.671875 Z M 175.902344 26.671875 "/>
<path style=" stroke:none;fill-rule:nonzero;fill:rgb(0%,0%,0%);fill-opacity:1;" d="M 177.269531 27.785156 L 177.269531 25.539062 C 177.269531 25.480469 177.261719 25.417969 177.257812 25.355469 C 177.257812 25.289062 177.257812 25.230469 177.257812 25.171875 C 177.257812 25.113281 177.25 25.058594 177.246094 25.007812 C 177.246094 24.953125 177.246094 24.902344 177.246094 24.859375 L 177.714844 24.859375 C 177.714844 24.902344 177.714844 24.953125 177.714844 25.007812 C 177.71875 25.058594 177.722656 25.113281 177.722656 25.171875 C 177.722656 25.222656 177.722656 25.277344 177.722656 25.332031 C 177.730469 25.382812 177.734375 25.425781 177.734375 25.460938 L 177.746094 25.460938 C 177.773438 25.347656 177.804688 25.253906 177.84375 25.171875 C 177.886719 25.085938 177.933594 25.015625 177.984375 24.964844 C 178.042969 24.917969 178.105469 24.875 178.179688 24.847656 C 178.25 24.820312 178.339844 24.804688 178.441406 24.804688 C 178.476562 24.804688 178.511719 24.808594 178.550781 24.816406 C 178.585938 24.824219 178.617188 24.832031 178.636719 24.835938 L 178.636719 25.277344 C 178.605469 25.273438 178.570312 25.269531 178.527344 25.269531 C 178.484375 25.261719 178.433594 25.257812 178.375 25.257812 C 178.265625 25.257812 178.171875 25.285156 178.09375 25.332031 C 178.011719 25.382812 177.945312 25.453125 177.898438 25.539062 C 177.847656 25.625 177.8125 25.734375 177.789062 25.863281 C 177.769531 25.988281 177.757812 26.117188 177.757812 26.261719 L 177.757812 27.785156 Z M 177.269531 27.785156 "/>
<path style=" stroke:none;fill-rule:nonzero;fill:rgb(0%,0%,0%);fill-opacity:1;" d="M 49.277344 39.445312 C 49.277344 39.742188 49.234375 40.015625 49.148438 40.257812 C 49.0625 40.503906 48.933594 40.710938 48.769531 40.882812 C 48.609375 41.054688 48.410156 41.191406 48.171875 41.28125 C 47.9375 41.375 47.671875 41.421875 47.378906 41.421875 C 47.054688 41.421875 46.78125 41.375 46.539062 41.28125 C 46.308594 41.183594 46.109375 41.046875 45.953125 40.871094 C 45.792969 40.695312 45.671875 40.484375 45.59375 40.246094 C 45.511719 40.003906 45.476562 39.734375 45.476562 39.445312 C 45.476562 39.152344 45.511719 38.886719 45.59375 38.648438 C 45.683594 38.40625 45.804688 38.199219 45.964844 38.03125 C 46.128906 37.867188 46.328125 37.738281 46.5625 37.644531 C 46.800781 37.550781 47.074219 37.503906 47.378906 37.503906 C 47.679688 37.503906 47.953125 37.550781 48.191406 37.644531 C 48.429688 37.738281 48.628906 37.871094 48.789062 38.042969 C 48.945312 38.210938 49.066406 38.410156 49.148438 38.648438 C 49.234375 38.886719 49.277344 39.152344 49.277344 39.445312 Z M 48.746094 39.445312 C 48.746094 39.21875 48.714844 39.007812 48.660156 38.820312 C 48.597656 38.632812 48.511719 38.476562 48.398438 38.34375 C 48.28125 38.210938 48.136719 38.105469 47.964844 38.03125 C 47.796875 37.960938 47.601562 37.925781 47.378906 37.925781 C 47.152344 37.925781 46.953125 37.960938 46.78125 38.03125 C 46.605469 38.105469 46.457031 38.210938 46.34375 38.34375 C 46.234375 38.476562 46.152344 38.632812 46.09375 38.820312 C 46.035156 39.007812 46.007812 39.21875 46.007812 39.445312 C 46.007812 39.679688 46.035156 39.890625 46.09375 40.085938 C 46.152344 40.273438 46.238281 40.433594 46.355469 40.570312 C 46.46875 40.707031 46.609375 40.816406 46.78125 40.894531 C 46.953125 40.96875 47.152344 41.003906 47.378906 41.003906 C 47.617188 41.003906 47.824219 40.96875 47.996094 40.894531 C 48.171875 40.816406 48.3125 40.707031 48.421875 40.570312 C 48.527344 40.425781 48.609375 40.261719 48.660156 40.074219 C 48.714844 39.878906 48.746094 39.671875 48.746094 39.445312 Z M 48.746094 39.445312 "/>
<path style=" stroke:none;fill-rule:nonzero;fill:rgb(0%,0%,0%);fill-opacity:1;" d="M 76.972656 89.835938 C 76.753906 89.835938 76.5625 89.875 76.394531 89.945312 C 76.226562 90.019531 76.085938 90.125 75.972656 90.257812 C 75.863281 90.386719 75.78125 90.546875 75.722656 90.734375 C 75.664062 90.921875 75.636719 91.128906 75.636719 91.359375 C 75.636719 91.59375 75.664062 91.804688 75.722656 91.996094 C 75.789062 92.1875 75.878906 92.347656 75.996094 92.484375 C 76.109375 92.621094 76.25 92.730469 76.417969 92.808594 C 76.59375 92.878906 76.78125 92.914062 76.992188 92.914062 C 77.144531 92.914062 77.28125 92.898438 77.394531 92.863281 C 77.519531 92.820312 77.628906 92.761719 77.734375 92.6875 C 77.832031 92.617188 77.921875 92.535156 77.992188 92.441406 C 78.074219 92.347656 78.140625 92.242188 78.199219 92.117188 L 78.625 92.332031 C 78.558594 92.476562 78.472656 92.609375 78.375 92.730469 C 78.269531 92.855469 78.152344 92.964844 78.015625 93.054688 C 77.875 93.140625 77.722656 93.210938 77.546875 93.261719 C 77.375 93.308594 77.179688 93.335938 76.972656 93.335938 C 76.660156 93.335938 76.386719 93.289062 76.15625 93.195312 C 75.921875 93.097656 75.726562 92.957031 75.570312 92.785156 C 75.417969 92.609375 75.300781 92.398438 75.222656 92.160156 C 75.140625 91.917969 75.101562 91.648438 75.101562 91.359375 C 75.101562 91.066406 75.140625 90.796875 75.222656 90.5625 C 75.308594 90.316406 75.433594 90.113281 75.59375 89.945312 C 75.75 89.78125 75.945312 89.652344 76.179688 89.554688 C 76.410156 89.464844 76.671875 89.417969 76.972656 89.417969 C 77.378906 89.417969 77.714844 89.496094 77.984375 89.652344 C 78.257812 89.8125 78.460938 90.050781 78.589844 90.367188 L 78.101562 90.527344 C 78.0625 90.4375 78.015625 90.351562 77.949219 90.269531 C 77.890625 90.183594 77.8125 90.113281 77.722656 90.054688 C 77.628906 89.988281 77.519531 89.941406 77.394531 89.902344 C 77.269531 89.859375 77.128906 89.835938 76.972656 89.835938 Z M 76.972656 89.835938 "/>
<path style=" stroke:none;fill-rule:nonzero;fill:rgb(0%,0%,0%);fill-opacity:1;" d="M 79.382812 93.28125 L 79.382812 89.277344 L 79.871094 89.277344 L 79.871094 93.28125 Z M 79.382812 93.28125 "/>
<path style=" stroke:none;fill-rule:nonzero;fill:rgb(0%,0%,0%);fill-opacity:1;" d="M 107.710938 72.484375 C 107.492188 72.484375 107.300781 72.523438 107.136719 72.59375 C 106.96875 72.667969 106.824219 72.773438 106.710938 72.90625 C 106.601562 73.035156 106.519531 73.195312 106.460938 73.382812 C 106.402344 73.570312 106.375 73.78125 106.375 74.007812 C 106.375 74.242188 106.402344 74.453125 106.460938 74.644531 C 106.527344 74.835938 106.617188 74.996094 106.734375 75.132812 C 106.847656 75.269531 106.988281 75.378906 107.15625 75.457031 C 107.332031 75.527344 107.519531 75.5625 107.734375 75.5625 C 107.886719 75.5625 108.019531 75.546875 108.136719 75.511719 C 108.257812 75.46875 108.367188 75.410156 108.472656 75.335938 C 108.574219 75.265625 108.660156 75.183594 108.734375 75.089844 C 108.8125 74.996094 108.878906 74.890625 108.9375 74.765625 L 109.363281 74.980469 C 109.296875 75.125 109.214844 75.257812 109.113281 75.378906 C 109.007812 75.503906 108.890625 75.613281 108.753906 75.703125 C 108.617188 75.792969 108.460938 75.863281 108.289062 75.910156 C 108.113281 75.957031 107.921875 75.984375 107.710938 75.984375 C 107.398438 75.984375 107.128906 75.9375 106.894531 75.84375 C 106.664062 75.746094 106.46875 75.609375 106.308594 75.433594 C 106.15625 75.257812 106.039062 75.046875 105.960938 74.808594 C 105.878906 74.566406 105.84375 74.296875 105.84375 74.007812 C 105.84375 73.714844 105.878906 73.449219 105.960938 73.210938 C 106.050781 72.964844 106.171875 72.761719 106.332031 72.59375 C 106.488281 72.429688 106.683594 72.300781 106.917969 72.207031 C 107.148438 72.113281 107.414062 72.066406 107.710938 72.066406 C 108.117188 72.066406 108.453125 72.144531 108.722656 72.300781 C 108.996094 72.460938 109.199219 72.699219 109.332031 73.015625 L 108.839844 73.175781 C 108.804688 73.085938 108.753906 73 108.6875 72.917969 C 108.628906 72.832031 108.554688 72.761719 108.460938 72.703125 C 108.367188 72.636719 108.257812 72.589844 108.136719 72.550781 C 108.011719 72.507812 107.867188 72.484375 107.710938 72.484375 Z M 107.710938 72.484375 "/>
<path style=" stroke:none;fill-rule:nonzero;fill:rgb(0%,0%,0%);fill-opacity:1;" d="M 172.214844 68.453125 C 172.214844 68.75 172.171875 69.019531 172.085938 69.261719 C 171.996094 69.507812 171.871094 69.714844 171.703125 69.886719 C 171.542969 70.0625 171.347656 70.195312 171.105469 70.289062 C 170.875 70.378906 170.609375 70.429688 170.3125 70.429688 C 169.992188 70.429688 169.714844 70.378906 169.476562 70.289062 C 169.242188 70.1875 169.046875 70.050781 168.890625 69.878906 C 168.730469 69.699219 168.609375 69.488281 168.53125 69.25 C 168.449219 69.007812 168.414062 68.742188 168.414062 68.453125 C 168.414062 68.15625 168.449219 67.890625 168.53125 67.652344 C 168.617188 67.410156 168.742188 67.203125 168.902344 67.039062 C 169.066406 66.871094 169.265625 66.742188 169.5 66.648438 C 169.738281 66.554688 170.007812 66.507812 170.3125 66.507812 C 170.617188 66.507812 170.890625 66.554688 171.128906 66.648438 C 171.367188 66.742188 171.566406 66.875 171.726562 67.046875 C 171.882812 67.214844 172.003906 67.414062 172.085938 67.652344 C 172.171875 67.890625 172.214844 68.15625 172.214844 68.453125 Z M 171.683594 68.453125 C 171.683594 68.222656 171.652344 68.015625 171.597656 67.824219 C 171.535156 67.640625 171.449219 67.480469 171.335938 67.351562 C 171.21875 67.214844 171.074219 67.109375 170.902344 67.039062 C 170.730469 66.96875 170.535156 66.929688 170.3125 66.929688 C 170.089844 66.929688 169.890625 66.96875 169.714844 67.039062 C 169.542969 67.109375 169.394531 67.214844 169.28125 67.351562 C 169.171875 67.480469 169.089844 67.640625 169.03125 67.824219 C 168.972656 68.015625 168.945312 68.222656 168.945312 68.453125 C 168.945312 68.683594 168.972656 68.894531 169.03125 69.089844 C 169.089844 69.277344 169.175781 69.441406 169.292969 69.574219 C 169.40625 69.714844 169.546875 69.820312 169.714844 69.898438 C 169.890625 69.972656 170.089844 70.007812 170.3125 70.007812 C 170.554688 70.007812 170.757812 69.972656 170.933594 69.898438 C 171.105469 69.820312 171.25 69.714844 171.355469 69.574219 C 171.464844 69.433594 171.542969 69.265625 171.597656 69.078125 C 171.652344 68.882812 171.683594 68.675781 171.683594 68.453125 Z M 171.683594 68.453125 "/>
<path style=" stroke:none;fill-rule:nonzero;fill:rgb(0%,0%,0%);fill-opacity:1;" d="M 172.792969 66.136719 L 175.117188 66.136719 L 175.117188 66.601562 L 172.792969 66.601562 "/>
<path style="fill:none;stroke-width:0.0333333;stroke-linecap:butt;stroke-linejoin:miter;stroke:rgb(0%,0%,0%);stroke-opacity:1;stroke-miterlimit:10;" d="M 6.54407 -0.00465532 L 5.661263 0.504843 " transform="matrix(17.385057,0,0,17.281106,17.266119,17.244512)"/>
<path style="fill:none;stroke-width:0.0333333;stroke-linecap:butt;stroke-linejoin:miter;stroke:rgb(0%,0%,0%);stroke-opacity:1;stroke-miterlimit:10;" d="M 6.527219 -0.00465532 L 7.401488 0.49987 " transform="matrix(17.385057,0,0,17.281106,17.266119,17.244512)"/>
<path style="fill:none;stroke-width:0.0333333;stroke-linecap:butt;stroke-linejoin:miter;stroke:rgb(0%,0%,0%);stroke-opacity:1;stroke-miterlimit:10;" d="M 6.527219 0.18748 L 7.234992 0.596163 " transform="matrix(17.385057,0,0,17.281106,17.266119,17.244512)"/>
<path style="fill:none;stroke-width:0.0333333;stroke-linecap:butt;stroke-linejoin:miter;stroke:rgb(0%,0%,0%);stroke-opacity:1;stroke-miterlimit:10;" d="M 5.669576 0.490376 L 5.669576 1.509598 " transform="matrix(17.385057,0,0,17.281106,17.266119,17.244512)"/>
<path style="fill:none;stroke-width:0.0333333;stroke-linecap:butt;stroke-linejoin:miter;stroke:rgb(0%,0%,0%);stroke-opacity:1;stroke-miterlimit:10;" d="M 5.836297 0.58667 L 5.836297 1.413304 " transform="matrix(17.385057,0,0,17.281106,17.266119,17.244512)"/>
<path style="fill:none;stroke-width:0.0333333;stroke-linecap:butt;stroke-linejoin:miter;stroke:rgb(0%,0%,0%);stroke-opacity:1;stroke-miterlimit:10;" d="M 5.661263 1.495131 L 6.54407 2.004855 " transform="matrix(17.385057,0,0,17.281106,17.266119,17.244512)"/>
<path style="fill:none;stroke-width:0.0333333;stroke-linecap:butt;stroke-linejoin:miter;stroke:rgb(0%,0%,0%);stroke-opacity:1;stroke-miterlimit:10;" d="M 6.527219 2.004855 L 7.410026 1.495131 " transform="matrix(17.385057,0,0,17.281106,17.266119,17.244512)"/>
<path style="fill:none;stroke-width:0.0333333;stroke-linecap:butt;stroke-linejoin:miter;stroke:rgb(0%,0%,0%);stroke-opacity:1;stroke-miterlimit:10;" d="M 6.527219 1.812494 L 7.243306 1.399063 " transform="matrix(17.385057,0,0,17.281106,17.266119,17.244512)"/>
<path style="fill:none;stroke-width:0.0333333;stroke-linecap:butt;stroke-linejoin:miter;stroke:rgb(0%,0%,0%);stroke-opacity:1;stroke-miterlimit:10;" d="M 7.401488 1.509598 L 7.401488 0.490376 " transform="matrix(17.385057,0,0,17.281106,17.266119,17.244512)"/>
<path style="fill:none;stroke-width:0.0333333;stroke-linecap:butt;stroke-linejoin:miter;stroke:rgb(0%,0%,0%);stroke-opacity:1;stroke-miterlimit:10;" d="M 7.393174 0.504843 L 8.08522 0.105201 " transform="matrix(17.385057,0,0,17.281106,17.266119,17.244512)"/>
<path style="fill:none;stroke-width:0.0333333;stroke-linecap:butt;stroke-linejoin:miter;stroke:rgb(0%,0%,0%);stroke-opacity:1;stroke-miterlimit:10;" d="M 8.449892 0.105201 L 8.923314 0.378485 " transform="matrix(17.385057,0,0,17.281106,17.266119,17.244512)"/>
<path style="fill:none;stroke-width:0.0333333;stroke-linecap:butt;stroke-linejoin:miter;stroke:rgb(0%,0%,0%);stroke-opacity:1;stroke-miterlimit:10;" d="M 3.472557 1.280844 L 2.598288 1.785821 " transform="matrix(17.385057,0,0,17.281106,17.266119,17.244512)"/>
<path style="fill:none;stroke-width:0.0333333;stroke-linecap:butt;stroke-linejoin:miter;stroke:rgb(0%,0%,0%);stroke-opacity:1;stroke-miterlimit:10;" d="M 3.472557 1.473431 L 2.764783 1.881888 " transform="matrix(17.385057,0,0,17.281106,17.266119,17.244512)"/>
<path style="fill:none;stroke-width:0.0333333;stroke-linecap:butt;stroke-linejoin:miter;stroke:rgb(0%,0%,0%);stroke-opacity:1;stroke-miterlimit:10;" d="M 3.455705 1.280844 L 4.338512 1.790568 " transform="matrix(17.385057,0,0,17.281106,17.266119,17.244512)"/>
<path style="fill:none;stroke-width:0.0333333;stroke-linecap:butt;stroke-linejoin:miter;stroke:rgb(0%,0%,0%);stroke-opacity:1;stroke-miterlimit:10;" d="M 2.598288 1.776101 L 2.598288 2.795323 " transform="matrix(17.385057,0,0,17.281106,17.266119,17.244512)"/>
<path style="fill:none;stroke-width:0.0333333;stroke-linecap:butt;stroke-linejoin:miter;stroke:rgb(0%,0%,0%);stroke-opacity:1;stroke-miterlimit:10;" d="M 2.589749 2.780856 L 3.464243 3.285607 " transform="matrix(17.385057,0,0,17.281106,17.266119,17.244512)"/>
<path style="fill:none;stroke-width:0.0333333;stroke-linecap:butt;stroke-linejoin:miter;stroke:rgb(0%,0%,0%);stroke-opacity:1;stroke-miterlimit:10;" d="M 2.75647 2.684562 L 3.464243 3.093246 " transform="matrix(17.385057,0,0,17.281106,17.266119,17.244512)"/>
<path style="fill:none;stroke-width:0.0333333;stroke-linecap:butt;stroke-linejoin:miter;stroke:rgb(0%,0%,0%);stroke-opacity:1;stroke-miterlimit:10;" d="M 3.455705 3.29058 L 4.338512 2.780856 " transform="matrix(17.385057,0,0,17.281106,17.266119,17.244512)"/>
<path style="fill:none;stroke-width:0.0333333;stroke-linecap:butt;stroke-linejoin:miter;stroke:rgb(0%,0%,0%);stroke-opacity:1;stroke-miterlimit:10;" d="M 4.330199 2.785603 L 4.330199 1.776101 " transform="matrix(17.385057,0,0,17.281106,17.266119,17.244512)"/>
<path style="fill:none;stroke-width:0.0333333;stroke-linecap:butt;stroke-linejoin:miter;stroke:rgb(0%,0%,0%);stroke-opacity:1;stroke-miterlimit:10;" d="M 4.163479 2.689535 L 4.163479 1.872169 " transform="matrix(17.385057,0,0,17.281106,17.266119,17.244512)"/>
<path style="fill:none;stroke-width:0.0333333;stroke-linecap:butt;stroke-linejoin:miter;stroke:rgb(0%,0%,0%);stroke-opacity:1;stroke-miterlimit:10;" d="M 2.606601 1.790568 L 1.914556 1.390926 " transform="matrix(17.385057,0,0,17.281106,17.266119,17.244512)"/>
<path style="fill:none;stroke-width:0.0333333;stroke-linecap:butt;stroke-linejoin:miter;stroke:rgb(0%,0%,0%);stroke-opacity:1;stroke-miterlimit:10;" d="M 3.464243 3.276113 L 3.464243 4.1249 " transform="matrix(17.385057,0,0,17.281106,17.266119,17.244512)"/>
<path style="fill:none;stroke-width:0.0333333;stroke-linecap:butt;stroke-linejoin:miter;stroke:rgb(0%,0%,0%);stroke-opacity:1;stroke-miterlimit:10;" d="M 4.321885 2.780856 L 5.019997 3.183888 " transform="matrix(17.385057,0,0,17.281106,17.266119,17.244512)"/>
<path style="fill:none;stroke-width:0.0333333;stroke-linecap:butt;stroke-linejoin:miter;stroke:rgb(0%,0%,0%);stroke-opacity:1;stroke-miterlimit:10;" d="M 1.549659 1.390926 L 0.857838 1.790568 " transform="matrix(17.385057,0,0,17.281106,17.266119,17.244512)"/>
<path style="fill:none;stroke-width:0.0333333;stroke-linecap:butt;stroke-linejoin:miter;stroke:rgb(0%,0%,0%);stroke-opacity:1;stroke-miterlimit:10;" d="M 0.866152 1.776101 L 0.866152 2.795323 " transform="matrix(17.385057,0,0,17.281106,17.266119,17.244512)"/>
<path style="fill:none;stroke-width:0.0333333;stroke-linecap:butt;stroke-linejoin:miter;stroke:rgb(0%,0%,0%);stroke-opacity:1;stroke-miterlimit:10;" d="M 0.866152 2.785603 L -0.00834193 3.29058 " transform="matrix(17.385057,0,0,17.281106,17.266119,17.244512)"/>
<path style="fill:none;stroke-width:0.0333333;stroke-linecap:butt;stroke-linejoin:miter;stroke:rgb(0%,0%,0%);stroke-opacity:1;stroke-miterlimit:10;" d="M 0.866152 2.978191 L 0.158378 3.386874 " transform="matrix(17.385057,0,0,17.281106,17.266119,17.244512)"/>
<path style="fill:none;stroke-width:0.0333333;stroke-linecap:butt;stroke-linejoin:miter;stroke:rgb(0%,0%,0%);stroke-opacity:1;stroke-miterlimit:10;" d="M 0.857838 2.780856 L 1.740421 3.29058 " transform="matrix(17.385057,0,0,17.281106,17.266119,17.244512)"/>
<path style="fill:none;stroke-width:0.0333333;stroke-linecap:butt;stroke-linejoin:miter;stroke:rgb(0%,0%,0%);stroke-opacity:1;stroke-miterlimit:10;" d="M -0.0000283947 3.276113 L -0.0000283947 4.295335 " transform="matrix(17.385057,0,0,17.281106,17.266119,17.244512)"/>
<path style="fill:none;stroke-width:0.0333333;stroke-linecap:butt;stroke-linejoin:miter;stroke:rgb(0%,0%,0%);stroke-opacity:1;stroke-miterlimit:10;" d="M -0.00834193 4.280869 L 0.874241 4.790593 " transform="matrix(17.385057,0,0,17.281106,17.266119,17.244512)"/>
<path style="fill:none;stroke-width:0.0333333;stroke-linecap:butt;stroke-linejoin:miter;stroke:rgb(0%,0%,0%);stroke-opacity:1;stroke-miterlimit:10;" d="M 0.158378 4.184575 L 0.874241 4.598005 " transform="matrix(17.385057,0,0,17.281106,17.266119,17.244512)"/>
<path style="fill:none;stroke-width:0.0333333;stroke-linecap:butt;stroke-linejoin:miter;stroke:rgb(0%,0%,0%);stroke-opacity:1;stroke-miterlimit:10;" d="M 0.857838 4.790593 L 1.740421 4.280869 " transform="matrix(17.385057,0,0,17.281106,17.266119,17.244512)"/>
<path style="fill:none;stroke-width:0.0333333;stroke-linecap:butt;stroke-linejoin:miter;stroke:rgb(0%,0%,0%);stroke-opacity:1;stroke-miterlimit:10;" d="M 1.732107 4.295335 L 1.732107 3.276113 " transform="matrix(17.385057,0,0,17.281106,17.266119,17.244512)"/>
<path style="fill:none;stroke-width:0.0333333;stroke-linecap:butt;stroke-linejoin:miter;stroke:rgb(0%,0%,0%);stroke-opacity:1;stroke-miterlimit:10;" d="M 1.565387 4.199042 L 1.565387 3.372181 " transform="matrix(17.385057,0,0,17.281106,17.266119,17.244512)"/>
<path style="fill:none;stroke-width:0.0333333;stroke-linecap:butt;stroke-linejoin:miter;stroke:rgb(0%,0%,0%);stroke-opacity:1;stroke-miterlimit:10;" d="M 7.079731 2.959429 L 6.196924 3.468927 " transform="matrix(17.385057,0,0,17.281106,17.266119,17.244512)"/>
<path style="fill:none;stroke-width:0.0333333;stroke-linecap:butt;stroke-linejoin:miter;stroke:rgb(0%,0%,0%);stroke-opacity:1;stroke-miterlimit:10;" d="M 6.205238 3.454686 L 6.205238 4.473908 " transform="matrix(17.385057,0,0,17.281106,17.266119,17.244512)"/>
<path style="fill:none;stroke-width:0.0333333;stroke-linecap:butt;stroke-linejoin:miter;stroke:rgb(0%,0%,0%);stroke-opacity:1;stroke-miterlimit:10;" d="M 6.371958 3.55098 L 6.371958 4.377614 " transform="matrix(17.385057,0,0,17.281106,17.266119,17.244512)"/>
<path style="fill:none;stroke-width:0.0333333;stroke-linecap:butt;stroke-linejoin:miter;stroke:rgb(0%,0%,0%);stroke-opacity:1;stroke-miterlimit:10;" d="M 6.196924 4.459442 L 7.079731 4.968939 " transform="matrix(17.385057,0,0,17.281106,17.266119,17.244512)"/>
<path style="fill:none;stroke-width:0.0333333;stroke-linecap:butt;stroke-linejoin:miter;stroke:rgb(0%,0%,0%);stroke-opacity:1;stroke-miterlimit:10;" d="M 7.06288 4.968939 L 7.945687 4.459442 " transform="matrix(17.385057,0,0,17.281106,17.266119,17.244512)"/>
<path style="fill:none;stroke-width:0.0333333;stroke-linecap:butt;stroke-linejoin:miter;stroke:rgb(0%,0%,0%);stroke-opacity:1;stroke-miterlimit:10;" d="M 7.06288 4.776578 L 7.778967 4.363148 " transform="matrix(17.385057,0,0,17.281106,17.266119,17.244512)"/>
<path style="fill:none;stroke-width:0.0333333;stroke-linecap:butt;stroke-linejoin:miter;stroke:rgb(0%,0%,0%);stroke-opacity:1;stroke-miterlimit:10;" d="M 7.937373 4.473908 L 7.937373 3.454686 " transform="matrix(17.385057,0,0,17.281106,17.266119,17.244512)"/>
<path style="fill:none;stroke-width:0.0333333;stroke-linecap:butt;stroke-linejoin:miter;stroke:rgb(0%,0%,0%);stroke-opacity:1;stroke-miterlimit:10;" d="M 7.06288 2.959429 L 7.937373 3.464406 " transform="matrix(17.385057,0,0,17.281106,17.266119,17.244512)"/>
<path style="fill:none;stroke-width:0.0333333;stroke-linecap:butt;stroke-linejoin:miter;stroke:rgb(0%,0%,0%);stroke-opacity:1;stroke-miterlimit:10;" d="M 7.06288 3.151791 L 7.770653 3.560474 " transform="matrix(17.385057,0,0,17.281106,17.266119,17.244512)"/>
<path style="fill:none;stroke-width:0.0333333;stroke-linecap:butt;stroke-linejoin:miter;stroke:rgb(0%,0%,0%);stroke-opacity:1;stroke-miterlimit:10;" d="M 7.92906 3.468927 L 8.620881 3.069511 " transform="matrix(17.385057,0,0,17.281106,17.266119,17.244512)"/>
</g>
</svg>
