<?xml version="1.0" encoding="UTF-8"?>
<svg xmlns="http://www.w3.org/2000/svg" xmlns:xlink="http://www.w3.org/1999/xlink" width="64pt" height="68.8pt" viewBox="0 0 64 68.8" version="1.1">
<g id="surface837">
<path style="fill:none;stroke-width:0.0333333;stroke-linecap:butt;stroke-linejoin:miter;stroke:rgb(0%,0%,0%);stroke-opacity:1;stroke-miterlimit:10;" d="M 0.874277 -0.00496214 L -0.00841032 0.504871 " transform="matrix(17.241379,0,0,17.33871,17.137193,16.992287)"/>
<path style="fill:none;stroke-width:0.0333333;stroke-linecap:butt;stroke-linejoin:miter;stroke:rgb(0%,0%,0%);stroke-opacity:1;stroke-miterlimit:10;" d="M -0.0000275125 0.490227 L -0.0000275125 1.509667 " transform="matrix(17.241379,0,0,17.33871,17.137193,16.992287)"/>
<path style="fill:none;stroke-width:0.0333333;stroke-linecap:butt;stroke-linejoin:miter;stroke:rgb(0%,0%,0%);stroke-opacity:1;stroke-miterlimit:10;" d="M -0.00841032 1.495023 L 0.874277 2.004856 " transform="matrix(17.241379,0,0,17.33871,17.137193,16.992287)"/>
<path style="fill:none;stroke-width:0.0333333;stroke-linecap:butt;stroke-linejoin:miter;stroke:rgb(0%,0%,0%);stroke-opacity:1;stroke-miterlimit:10;" d="M 0.857738 2.004856 L 1.740426 1.495023 " transform="matrix(17.241379,0,0,17.33871,17.137193,16.992287)"/>
<path style="fill:none;stroke-width:0.0333333;stroke-linecap:butt;stroke-linejoin:miter;stroke:rgb(0%,0%,0%);stroke-opacity:1;stroke-miterlimit:10;" d="M 1.732043 1.509667 L 1.732043 0.490227 " transform="matrix(17.241379,0,0,17.33871,17.137193,16.992287)"/>
<path style="fill:none;stroke-width:0.0333333;stroke-linecap:butt;stroke-linejoin:miter;stroke:rgb(0%,0%,0%);stroke-opacity:1;stroke-miterlimit:10;" d="M 0.857738 -0.00496214 L 1.740426 0.504871 " transform="matrix(17.241379,0,0,17.33871,17.137193,16.992287)"/>
</g>
</svg>
