<?xml version="1.0" encoding="UTF-8"?>
<svg xmlns="http://www.w3.org/2000/svg" xmlns:xlink="http://www.w3.org/1999/xlink" width="158.4pt" height="103.2pt" viewBox="0 0 158.4 103.2" version="1.1">
<g id="surface1077">
<path style=" stroke:none;fill-rule:nonzero;fill:rgb(0%,0%,47.058824%);fill-opacity:1;" d="M 112.371094 78.964844 L 110.699219 76.027344 C 110.710938 76.109375 110.722656 76.1875 110.730469 76.265625 C 110.738281 76.332031 110.742188 76.402344 110.742188 76.484375 C 110.75 76.5625 110.753906 76.640625 110.753906 76.710938 L 110.753906 78.964844 L 110.035156 78.964844 L 110.035156 75.148438 L 110.960938 75.148438 L 112.640625 78.109375 C 112.632812 78.039062 112.625 77.957031 112.621094 77.871094 C 112.613281 77.800781 112.605469 77.71875 112.597656 77.632812 C 112.597656 77.542969 112.597656 77.457031 112.597656 77.359375 L 112.597656 75.148438 L 113.304688 75.148438 L 113.304688 78.964844 Z M 112.371094 78.964844 "/>
<path style=" stroke:none;fill-rule:nonzero;fill:rgb(0%,0%,47.058824%);fill-opacity:1;" d="M 82.71875 49.367188 L 81.046875 46.429688 C 81.0625 46.511719 81.074219 46.589844 81.082031 46.667969 C 81.085938 46.734375 81.089844 46.804688 81.089844 46.886719 C 81.097656 46.964844 81.101562 47.042969 81.101562 47.113281 L 81.101562 49.367188 L 80.386719 49.367188 L 80.386719 45.550781 L 81.308594 45.550781 L 82.992188 48.511719 C 82.984375 48.441406 82.976562 48.359375 82.96875 48.273438 C 82.960938 48.203125 82.953125 48.121094 82.949219 48.035156 C 82.949219 47.945312 82.949219 47.859375 82.949219 47.761719 L 82.949219 45.550781 L 83.652344 45.550781 L 83.652344 49.367188 Z M 82.71875 49.367188 "/>
<path style=" stroke:none;fill-rule:nonzero;fill:rgb(0%,0%,0%);fill-opacity:1;" d="M 73.445312 60.933594 C 73.226562 60.933594 73.035156 60.96875 72.867188 61.039062 C 72.699219 61.113281 72.558594 61.21875 72.445312 61.355469 C 72.335938 61.484375 72.253906 61.644531 72.195312 61.832031 C 72.136719 62.019531 72.109375 62.230469 72.109375 62.460938 C 72.109375 62.691406 72.136719 62.90625 72.195312 63.097656 C 72.261719 63.289062 72.351562 63.453125 72.46875 63.585938 C 72.582031 63.726562 72.722656 63.832031 72.890625 63.914062 C 73.0625 63.984375 73.253906 64.019531 73.464844 64.019531 C 73.617188 64.019531 73.75 64.003906 73.867188 63.964844 C 73.988281 63.921875 74.101562 63.867188 74.203125 63.792969 C 74.304688 63.722656 74.390625 63.636719 74.464844 63.542969 C 74.542969 63.453125 74.609375 63.34375 74.671875 63.21875 L 75.09375 63.433594 C 75.027344 63.582031 74.945312 63.714844 74.84375 63.835938 C 74.742188 63.960938 74.621094 64.070312 74.484375 64.160156 C 74.347656 64.25 74.191406 64.320312 74.019531 64.367188 C 73.84375 64.414062 73.652344 64.441406 73.445312 64.441406 C 73.132812 64.441406 72.859375 64.394531 72.628906 64.300781 C 72.394531 64.203125 72.199219 64.0625 72.042969 63.890625 C 71.890625 63.710938 71.773438 63.5 71.695312 63.261719 C 71.613281 63.019531 71.578125 62.75 71.578125 62.460938 C 71.578125 62.164062 71.613281 61.898438 71.695312 61.65625 C 71.78125 61.414062 71.90625 61.207031 72.066406 61.039062 C 72.222656 60.875 72.417969 60.746094 72.652344 60.648438 C 72.882812 60.558594 73.144531 60.507812 73.445312 60.507812 C 73.847656 60.507812 74.183594 60.589844 74.453125 60.746094 C 74.726562 60.90625 74.929688 61.144531 75.0625 61.464844 L 74.574219 61.625 C 74.535156 61.535156 74.484375 61.445312 74.421875 61.367188 C 74.359375 61.277344 74.285156 61.207031 74.191406 61.148438 C 74.097656 61.082031 73.988281 61.035156 73.867188 60.996094 C 73.742188 60.953125 73.601562 60.933594 73.445312 60.933594 Z M 73.445312 60.933594 "/>
<path style=" stroke:none;fill-rule:nonzero;fill:rgb(0%,0%,0%);fill-opacity:1;" d="M 126.820312 84.183594 C 126.605469 84.183594 126.414062 84.21875 126.246094 84.289062 C 126.078125 84.363281 125.9375 84.46875 125.824219 84.605469 C 125.714844 84.734375 125.628906 84.894531 125.574219 85.082031 C 125.515625 85.269531 125.488281 85.480469 125.488281 85.710938 C 125.488281 85.941406 125.515625 86.15625 125.574219 86.347656 C 125.640625 86.539062 125.726562 86.703125 125.84375 86.835938 C 125.960938 86.976562 126.101562 87.082031 126.269531 87.164062 C 126.441406 87.234375 126.632812 87.269531 126.84375 87.269531 C 126.996094 87.269531 127.128906 87.253906 127.246094 87.214844 C 127.367188 87.171875 127.480469 87.117188 127.582031 87.042969 C 127.683594 86.972656 127.769531 86.886719 127.84375 86.792969 C 127.921875 86.703125 127.988281 86.59375 128.046875 86.46875 L 128.472656 86.683594 C 128.40625 86.832031 128.324219 86.964844 128.222656 87.085938 C 128.121094 87.210938 128 87.320312 127.863281 87.410156 C 127.726562 87.5 127.570312 87.570312 127.398438 87.617188 C 127.222656 87.667969 127.03125 87.691406 126.820312 87.691406 C 126.511719 87.691406 126.238281 87.644531 126.007812 87.550781 C 125.773438 87.453125 125.578125 87.3125 125.421875 87.140625 C 125.269531 86.960938 125.152344 86.75 125.074219 86.511719 C 124.992188 86.269531 124.953125 86 124.953125 85.710938 C 124.953125 85.414062 124.992188 85.148438 125.074219 84.90625 C 125.160156 84.664062 125.285156 84.457031 125.445312 84.289062 C 125.601562 84.125 125.796875 83.996094 126.03125 83.898438 C 126.261719 83.808594 126.523438 83.757812 126.820312 83.757812 C 127.226562 83.757812 127.5625 83.839844 127.832031 83.996094 C 128.105469 84.15625 128.308594 84.394531 128.441406 84.714844 L 127.949219 84.875 C 127.914062 84.785156 127.863281 84.695312 127.800781 84.617188 C 127.738281 84.527344 127.664062 84.457031 127.570312 84.398438 C 127.476562 84.332031 127.367188 84.285156 127.246094 84.246094 C 127.121094 84.203125 126.980469 84.183594 126.820312 84.183594 Z M 126.820312 84.183594 "/>
<path style=" stroke:none;fill-rule:nonzero;fill:rgb(0%,0%,0%);fill-opacity:1;" d="M 113.570312 17.84375 C 113.570312 18.140625 113.527344 18.410156 113.441406 18.65625 C 113.351562 18.902344 113.226562 19.109375 113.058594 19.285156 C 112.898438 19.457031 112.703125 19.59375 112.464844 19.683594 C 112.230469 19.777344 111.964844 19.824219 111.671875 19.824219 C 111.351562 19.824219 111.074219 19.777344 110.835938 19.683594 C 110.601562 19.585938 110.40625 19.445312 110.25 19.273438 C 110.089844 19.09375 109.96875 18.882812 109.890625 18.644531 C 109.808594 18.402344 109.769531 18.132812 109.769531 17.84375 C 109.769531 17.546875 109.808594 17.277344 109.890625 17.039062 C 109.976562 16.796875 110.097656 16.589844 110.257812 16.421875 C 110.425781 16.257812 110.625 16.128906 110.855469 16.03125 C 111.09375 15.941406 111.367188 15.890625 111.671875 15.890625 C 111.976562 15.890625 112.246094 15.941406 112.484375 16.03125 C 112.722656 16.128906 112.921875 16.261719 113.082031 16.433594 C 113.238281 16.601562 113.359375 16.800781 113.441406 17.039062 C 113.527344 17.277344 113.570312 17.546875 113.570312 17.84375 Z M 113.039062 17.84375 C 113.039062 17.613281 113.007812 17.402344 112.953125 17.214844 C 112.890625 17.027344 112.804688 16.867188 112.691406 16.738281 C 112.574219 16.601562 112.429688 16.496094 112.257812 16.421875 C 112.089844 16.351562 111.894531 16.316406 111.671875 16.316406 C 111.445312 16.316406 111.246094 16.351562 111.074219 16.421875 C 110.898438 16.496094 110.753906 16.601562 110.640625 16.738281 C 110.53125 16.867188 110.445312 17.027344 110.390625 17.214844 C 110.332031 17.402344 110.304688 17.613281 110.304688 17.84375 C 110.304688 18.074219 110.332031 18.285156 110.390625 18.480469 C 110.445312 18.671875 110.535156 18.835938 110.652344 18.96875 C 110.765625 19.109375 110.90625 19.214844 111.074219 19.292969 C 111.246094 19.367188 111.445312 19.402344 111.671875 19.402344 C 111.910156 19.402344 112.117188 19.367188 112.289062 19.292969 C 112.464844 19.214844 112.605469 19.109375 112.714844 18.96875 C 112.820312 18.824219 112.898438 18.660156 112.953125 18.472656 C 113.007812 18.277344 113.039062 18.066406 113.039062 17.84375 Z M 113.039062 17.84375 "/>
<path style=" stroke:none;fill-rule:nonzero;fill:rgb(0%,0%,0%);fill-opacity:1;" d="M 143.222656 47.441406 C 143.222656 47.742188 143.179688 48.011719 143.089844 48.253906 C 143.003906 48.503906 142.878906 48.710938 142.710938 48.882812 C 142.550781 49.058594 142.351562 49.191406 142.113281 49.285156 C 141.882812 49.378906 141.617188 49.425781 141.320312 49.425781 C 141 49.425781 140.726562 49.378906 140.484375 49.285156 C 140.253906 49.183594 140.058594 49.046875 139.898438 48.875 C 139.738281 48.695312 139.621094 48.484375 139.542969 48.246094 C 139.460938 48 139.421875 47.734375 139.421875 47.441406 C 139.421875 47.148438 139.460938 46.878906 139.542969 46.640625 C 139.628906 46.398438 139.75 46.191406 139.910156 46.023438 C 140.078125 45.859375 140.273438 45.726562 140.507812 45.632812 C 140.746094 45.542969 141.019531 45.492188 141.320312 45.492188 C 141.625 45.492188 141.898438 45.542969 142.136719 45.632812 C 142.375 45.726562 142.574219 45.859375 142.734375 46.035156 C 142.890625 46.203125 143.011719 46.402344 143.089844 46.640625 C 143.179688 46.878906 143.222656 47.148438 143.222656 47.441406 Z M 142.691406 47.441406 C 142.691406 47.210938 142.660156 47.003906 142.601562 46.816406 C 142.542969 46.628906 142.457031 46.46875 142.34375 46.335938 C 142.226562 46.203125 142.082031 46.097656 141.90625 46.023438 C 141.738281 45.953125 141.542969 45.914062 141.320312 45.914062 C 141.097656 45.914062 140.898438 45.953125 140.726562 46.023438 C 140.550781 46.097656 140.40625 46.203125 140.289062 46.335938 C 140.183594 46.46875 140.097656 46.628906 140.042969 46.816406 C 139.980469 47.003906 139.953125 47.210938 139.953125 47.441406 C 139.953125 47.675781 139.980469 47.886719 140.042969 48.082031 C 140.097656 48.273438 140.183594 48.433594 140.300781 48.570312 C 140.414062 48.707031 140.558594 48.816406 140.726562 48.894531 C 140.898438 48.96875 141.097656 49.003906 141.320312 49.003906 C 141.5625 49.003906 141.765625 48.96875 141.941406 48.894531 C 142.113281 48.816406 142.253906 48.707031 142.363281 48.570312 C 142.472656 48.425781 142.550781 48.261719 142.601562 48.070312 C 142.660156 47.875 142.691406 47.667969 142.691406 47.441406 Z M 142.691406 47.441406 "/>
<path style=" stroke:none;fill-rule:nonzero;fill:rgb(0%,0%,47.058824%);fill-opacity:1;" d="M 62.902344 36.238281 L 61.230469 33.300781 C 61.242188 33.382812 61.253906 33.460938 61.261719 33.539062 C 61.265625 33.605469 61.273438 33.679688 61.273438 33.757812 C 61.277344 33.835938 61.285156 33.914062 61.285156 33.984375 L 61.285156 36.238281 L 60.566406 36.238281 L 60.566406 32.421875 L 61.488281 32.421875 L 63.171875 35.382812 C 63.164062 35.3125 63.15625 35.230469 63.152344 35.144531 C 63.140625 35.074219 63.132812 34.992188 63.128906 34.90625 C 63.128906 34.816406 63.128906 34.730469 63.128906 34.632812 L 63.128906 32.421875 L 63.835938 32.421875 L 63.835938 36.238281 Z M 62.902344 36.238281 "/>
<path style=" stroke:none;fill-rule:nonzero;fill:rgb(0%,0%,47.058824%);fill-opacity:1;" d="M 62.902344 70.914062 L 61.230469 67.980469 C 61.242188 68.058594 61.253906 68.136719 61.261719 68.21875 C 61.265625 68.28125 61.273438 68.355469 61.273438 68.433594 C 61.277344 68.515625 61.285156 68.589844 61.285156 68.660156 L 61.285156 70.914062 L 60.566406 70.914062 L 60.566406 67.101562 L 61.488281 67.101562 L 63.171875 70.058594 C 63.164062 69.988281 63.15625 69.90625 63.152344 69.820312 C 63.140625 69.75 63.132812 69.667969 63.128906 69.582031 C 63.128906 69.496094 63.128906 69.40625 63.128906 69.3125 L 63.128906 67.101562 L 63.835938 67.101562 L 63.835938 70.914062 Z M 62.902344 70.914062 "/>
<path style=" stroke:none;fill-rule:nonzero;fill:rgb(0%,0%,0%);fill-opacity:1;" d="M 18.976562 42.984375 C 18.976562 43.28125 18.933594 43.550781 18.847656 43.796875 C 18.761719 44.042969 18.632812 44.25 18.46875 44.425781 C 18.308594 44.597656 18.109375 44.734375 17.871094 44.824219 C 17.636719 44.917969 17.375 44.96875 17.078125 44.96875 C 16.757812 44.96875 16.480469 44.917969 16.242188 44.824219 C 16.007812 44.726562 15.8125 44.585938 15.65625 44.414062 C 15.496094 44.234375 15.375 44.023438 15.296875 43.785156 C 15.214844 43.542969 15.179688 43.273438 15.179688 42.984375 C 15.179688 42.6875 15.214844 42.421875 15.296875 42.183594 C 15.382812 41.9375 15.507812 41.730469 15.667969 41.5625 C 15.832031 41.398438 16.03125 41.269531 16.265625 41.175781 C 16.503906 41.082031 16.773438 41.03125 17.078125 41.03125 C 17.382812 41.03125 17.652344 41.082031 17.890625 41.175781 C 18.132812 41.269531 18.328125 41.402344 18.488281 41.574219 C 18.648438 41.742188 18.765625 41.945312 18.847656 42.183594 C 18.933594 42.421875 18.976562 42.6875 18.976562 42.984375 Z M 18.445312 42.984375 C 18.445312 42.753906 18.414062 42.542969 18.359375 42.355469 C 18.300781 42.167969 18.210938 42.007812 18.097656 41.878906 C 17.980469 41.742188 17.839844 41.636719 17.664062 41.5625 C 17.496094 41.492188 17.300781 41.457031 17.078125 41.457031 C 16.851562 41.457031 16.65625 41.492188 16.480469 41.5625 C 16.308594 41.636719 16.160156 41.742188 16.046875 41.878906 C 15.9375 42.007812 15.855469 42.167969 15.796875 42.355469 C 15.738281 42.542969 15.710938 42.753906 15.710938 42.984375 C 15.710938 43.214844 15.738281 43.429688 15.796875 43.625 C 15.855469 43.8125 15.941406 43.976562 16.058594 44.109375 C 16.171875 44.25 16.3125 44.355469 16.480469 44.4375 C 16.65625 44.507812 16.851562 44.542969 17.078125 44.542969 C 17.316406 44.542969 17.523438 44.507812 17.695312 44.4375 C 17.871094 44.355469 18.011719 44.25 18.121094 44.109375 C 18.230469 43.96875 18.308594 43.800781 18.359375 43.613281 C 18.414062 43.417969 18.445312 43.207031 18.445312 42.984375 Z M 18.445312 42.984375 "/>
<path style=" stroke:none;fill-rule:nonzero;fill:rgb(0%,0%,0%);fill-opacity:1;" d="M 18.976562 60.324219 C 18.976562 60.621094 18.933594 60.890625 18.847656 61.136719 C 18.761719 61.382812 18.632812 61.589844 18.46875 61.765625 C 18.308594 61.9375 18.109375 62.074219 17.871094 62.164062 C 17.636719 62.257812 17.375 62.304688 17.078125 62.304688 C 16.757812 62.304688 16.480469 62.257812 16.242188 62.164062 C 16.007812 62.0625 15.8125 61.925781 15.65625 61.753906 C 15.496094 61.574219 15.375 61.363281 15.296875 61.125 C 15.214844 60.878906 15.179688 60.613281 15.179688 60.324219 C 15.179688 60.027344 15.214844 59.757812 15.296875 59.519531 C 15.382812 59.277344 15.507812 59.070312 15.667969 58.902344 C 15.832031 58.738281 16.03125 58.609375 16.265625 58.511719 C 16.503906 58.421875 16.773438 58.371094 17.078125 58.371094 C 17.382812 58.371094 17.652344 58.421875 17.890625 58.511719 C 18.132812 58.609375 18.328125 58.742188 18.488281 58.914062 C 18.648438 59.082031 18.765625 59.28125 18.847656 59.519531 C 18.933594 59.757812 18.976562 60.027344 18.976562 60.324219 Z M 18.445312 60.324219 C 18.445312 60.09375 18.414062 59.882812 18.359375 59.695312 C 18.300781 59.507812 18.210938 59.347656 18.097656 59.21875 C 17.980469 59.082031 17.839844 58.976562 17.664062 58.902344 C 17.496094 58.832031 17.300781 58.792969 17.078125 58.792969 C 16.851562 58.792969 16.65625 58.832031 16.480469 58.902344 C 16.308594 58.976562 16.160156 59.082031 16.046875 59.21875 C 15.9375 59.347656 15.855469 59.507812 15.796875 59.695312 C 15.738281 59.882812 15.710938 60.09375 15.710938 60.324219 C 15.710938 60.554688 15.738281 60.765625 15.796875 60.960938 C 15.855469 61.152344 15.941406 61.3125 16.058594 61.449219 C 16.171875 61.585938 16.3125 61.695312 16.480469 61.773438 C 16.65625 61.847656 16.851562 61.882812 17.078125 61.882812 C 17.316406 61.882812 17.523438 61.847656 17.695312 61.773438 C 17.871094 61.695312 18.011719 61.585938 18.121094 61.449219 C 18.230469 61.304688 18.308594 61.140625 18.359375 60.949219 C 18.414062 60.757812 18.445312 60.546875 18.445312 60.324219 Z M 18.445312 60.324219 "/>
<path style=" stroke:none;fill-rule:nonzero;fill:rgb(0%,0%,0%);fill-opacity:1;" d="M 34.019531 86.332031 C 34.019531 86.628906 33.976562 86.898438 33.890625 87.144531 C 33.804688 87.390625 33.675781 87.597656 33.511719 87.773438 C 33.351562 87.945312 33.152344 88.082031 32.914062 88.171875 C 32.679688 88.265625 32.417969 88.3125 32.121094 88.3125 C 31.800781 88.3125 31.523438 88.265625 31.285156 88.171875 C 31.050781 88.074219 30.855469 87.933594 30.699219 87.761719 C 30.539062 87.582031 30.417969 87.371094 30.339844 87.132812 C 30.257812 86.886719 30.222656 86.621094 30.222656 86.332031 C 30.222656 86.035156 30.257812 85.765625 30.339844 85.527344 C 30.425781 85.285156 30.550781 85.078125 30.710938 84.910156 C 30.875 84.746094 31.074219 84.617188 31.304688 84.519531 C 31.546875 84.429688 31.816406 84.378906 32.121094 84.378906 C 32.425781 84.378906 32.695312 84.429688 32.933594 84.519531 C 33.171875 84.617188 33.371094 84.75 33.53125 84.921875 C 33.6875 85.089844 33.808594 85.289062 33.890625 85.527344 C 33.976562 85.765625 34.019531 86.035156 34.019531 86.332031 Z M 33.488281 86.332031 C 33.488281 86.101562 33.457031 85.890625 33.402344 85.703125 C 33.34375 85.515625 33.253906 85.355469 33.140625 85.226562 C 33.023438 85.089844 32.878906 84.984375 32.707031 84.910156 C 32.539062 84.839844 32.34375 84.800781 32.121094 84.800781 C 31.894531 84.800781 31.699219 84.839844 31.523438 84.910156 C 31.351562 84.984375 31.203125 85.089844 31.089844 85.226562 C 30.980469 85.355469 30.898438 85.515625 30.839844 85.703125 C 30.78125 85.890625 30.753906 86.101562 30.753906 86.332031 C 30.753906 86.5625 30.78125 86.773438 30.839844 86.96875 C 30.898438 87.160156 30.984375 87.320312 31.101562 87.457031 C 31.214844 87.59375 31.355469 87.703125 31.523438 87.78125 C 31.699219 87.855469 31.894531 87.890625 32.121094 87.890625 C 32.359375 87.890625 32.566406 87.855469 32.738281 87.78125 C 32.914062 87.703125 33.054688 87.59375 33.164062 87.457031 C 33.269531 87.3125 33.351562 87.148438 33.402344 86.960938 C 33.457031 86.765625 33.488281 86.554688 33.488281 86.332031 Z M 33.488281 86.332031 "/>
<path style=" stroke:none;fill-rule:nonzero;fill:rgb(0%,0%,0%);fill-opacity:1;" d="M 34.019531 16.976562 C 34.019531 17.273438 33.976562 17.542969 33.890625 17.789062 C 33.804688 18.035156 33.675781 18.242188 33.511719 18.417969 C 33.351562 18.589844 33.152344 18.726562 32.914062 18.816406 C 32.679688 18.910156 32.417969 18.957031 32.121094 18.957031 C 31.800781 18.957031 31.523438 18.910156 31.285156 18.816406 C 31.050781 18.71875 30.855469 18.578125 30.699219 18.40625 C 30.539062 18.226562 30.417969 18.015625 30.339844 17.777344 C 30.257812 17.535156 30.222656 17.265625 30.222656 16.976562 C 30.222656 16.679688 30.257812 16.414062 30.339844 16.171875 C 30.425781 15.929688 30.550781 15.722656 30.710938 15.554688 C 30.875 15.390625 31.074219 15.261719 31.304688 15.164062 C 31.546875 15.074219 31.816406 15.023438 32.121094 15.023438 C 32.425781 15.023438 32.695312 15.074219 32.933594 15.164062 C 33.171875 15.261719 33.371094 15.394531 33.53125 15.566406 C 33.6875 15.734375 33.808594 15.933594 33.890625 16.171875 C 33.976562 16.414062 34.019531 16.679688 34.019531 16.976562 Z M 33.488281 16.976562 C 33.488281 16.746094 33.457031 16.535156 33.402344 16.347656 C 33.34375 16.160156 33.253906 16 33.140625 15.871094 C 33.023438 15.734375 32.878906 15.628906 32.707031 15.554688 C 32.539062 15.484375 32.34375 15.449219 32.121094 15.449219 C 31.894531 15.449219 31.699219 15.484375 31.523438 15.554688 C 31.351562 15.628906 31.203125 15.734375 31.089844 15.871094 C 30.980469 16 30.898438 16.160156 30.839844 16.347656 C 30.78125 16.535156 30.753906 16.746094 30.753906 16.976562 C 30.753906 17.207031 30.78125 17.421875 30.839844 17.613281 C 30.898438 17.804688 30.984375 17.96875 31.101562 18.101562 C 31.214844 18.242188 31.355469 18.347656 31.523438 18.429688 C 31.699219 18.5 31.894531 18.535156 32.121094 18.535156 C 32.359375 18.535156 32.566406 18.5 32.738281 18.429688 C 32.914062 18.347656 33.054688 18.242188 33.164062 18.101562 C 33.269531 17.960938 33.351562 17.792969 33.402344 17.605469 C 33.457031 17.410156 33.488281 17.199219 33.488281 16.976562 Z M 33.488281 16.976562 "/>
<path style="fill:none;stroke-width:0.06;stroke-linecap:butt;stroke-linejoin:miter;stroke:rgb(0%,0%,47.058824%);stroke-opacity:1;stroke-miterlimit:10;" d="M 5.446298 2.464232 L 4.738971 1.75727 " transform="matrix(17.368421,0,0,17.33871,17.078276,16.992142)"/>
<path style="fill:none;stroke-width:0.06;stroke-linecap:butt;stroke-linejoin:miter;stroke:rgb(0%,0%,47.058824%);stroke-opacity:1;stroke-miterlimit:10;" d="M 5.446298 2.228578 L 4.974897 1.75727 " transform="matrix(17.368421,0,0,17.33871,17.078276,16.992142)"/>
<path style="fill:none;stroke-width:0.06;stroke-linecap:butt;stroke-linejoin:miter;stroke:rgb(0%,0%,47.058824%);stroke-opacity:1;stroke-miterlimit:10;" d="M 5.437527 2.473019 L 6.1534 1.75727 " transform="matrix(17.368421,0,0,17.33871,17.078276,16.992142)"/>
<path style="fill:none;stroke-width:0.06;stroke-linecap:butt;stroke-linejoin:miter;stroke:rgb(0%,0%,47.058824%);stroke-opacity:1;stroke-miterlimit:10;" d="M 4.7302 1.765831 L 5.458218 1.038367 " transform="matrix(17.368421,0,0,17.33871,17.078276,16.992142)"/>
<path style="fill:none;stroke-width:0.0333333;stroke-linecap:butt;stroke-linejoin:miter;stroke:rgb(0%,0%,0%);stroke-opacity:1;stroke-miterlimit:10;" d="M 6.1534 1.75727 L 5.434603 1.038367 " transform="matrix(17.368421,0,0,17.33871,17.078276,16.992142)"/>
<path style="fill:none;stroke-width:0.06;stroke-linecap:butt;stroke-linejoin:miter;stroke:rgb(0%,0%,47.058824%);stroke-opacity:1;stroke-miterlimit:10;" d="M 5.446298 2.451841 L 5.446298 3.310875 " transform="matrix(17.368421,0,0,17.33871,17.078276,16.992142)"/>
<path style="fill:none;stroke-width:0.06;stroke-linecap:butt;stroke-linejoin:miter;stroke:rgb(0%,0%,47.058824%);stroke-opacity:1;stroke-miterlimit:10;" d="M 4.751566 1.75727 L 3.876459 1.75727 " transform="matrix(17.368421,0,0,17.33871,17.078276,16.992142)"/>
<path style="fill:none;stroke-width:0.0333333;stroke-linecap:butt;stroke-linejoin:miter;stroke:rgb(0%,0%,0%);stroke-opacity:1;stroke-miterlimit:10;" d="M 3.638509 1.931645 L 3.343209 2.443055 " transform="matrix(17.368421,0,0,17.33871,17.078276,16.992142)"/>
<path style="fill:none;stroke-width:0.0333333;stroke-linecap:butt;stroke-linejoin:miter;stroke:rgb(0%,0%,0%);stroke-opacity:1;stroke-miterlimit:10;" d="M 5.615877 3.562074 L 6.136083 3.862386 " transform="matrix(17.368421,0,0,17.33871,17.078276,16.992142)"/>
<path style="fill:none;stroke-width:0.0333333;stroke-linecap:butt;stroke-linejoin:miter;stroke:rgb(0%,0%,0%);stroke-opacity:1;stroke-miterlimit:10;" d="M 5.529738 1.13344 L 5.529738 0.206819 " transform="matrix(17.368421,0,0,17.33871,17.078276,16.992142)"/>
<path style="fill:none;stroke-width:0.0333333;stroke-linecap:butt;stroke-linejoin:miter;stroke:rgb(0%,0%,0%);stroke-opacity:1;stroke-miterlimit:10;" d="M 5.362858 1.13344 L 5.362858 0.206819 " transform="matrix(17.368421,0,0,17.33871,17.078276,16.992142)"/>
<path style="fill:none;stroke-width:0.0333333;stroke-linecap:butt;stroke-linejoin:miter;stroke:rgb(0%,0%,0%);stroke-opacity:1;stroke-miterlimit:10;" d="M 6.070185 1.840402 L 7.000844 1.840402 " transform="matrix(17.368421,0,0,17.33871,17.078276,16.992142)"/>
<path style="fill:none;stroke-width:0.0333333;stroke-linecap:butt;stroke-linejoin:miter;stroke:rgb(0%,0%,0%);stroke-opacity:1;stroke-miterlimit:10;" d="M 6.070185 1.673912 L 7.000844 1.673912 " transform="matrix(17.368421,0,0,17.33871,17.078276,16.992142)"/>
<path style="fill:none;stroke-width:0.06;stroke-linecap:butt;stroke-linejoin:miter;stroke:rgb(0%,0%,47.058824%);stroke-opacity:1;stroke-miterlimit:10;" d="M 1.648547 1.451776 L 1.648547 2.54804 " transform="matrix(17.368421,0,0,17.33871,17.078276,16.992142)"/>
<path style="fill:none;stroke-width:0.06;stroke-linecap:butt;stroke-linejoin:miter;stroke:rgb(0%,0%,47.058824%);stroke-opacity:1;stroke-miterlimit:10;" d="M 1.815202 1.451776 L 1.815202 2.54804 " transform="matrix(17.368421,0,0,17.33871,17.078276,16.992142)"/>
<path style="fill:none;stroke-width:0.06;stroke-linecap:butt;stroke-linejoin:miter;stroke:rgb(0%,0%,47.058824%);stroke-opacity:1;stroke-miterlimit:10;" d="M 1.716918 1.508549 L 2.428519 1.097844 " transform="matrix(17.368421,0,0,17.33871,17.078276,16.992142)"/>
<path style="fill:none;stroke-width:0.06;stroke-linecap:butt;stroke-linejoin:miter;stroke:rgb(0%,0%,47.058824%);stroke-opacity:1;stroke-miterlimit:10;" d="M 1.747056 1.508549 L 0.85778 0.995112 " transform="matrix(17.368421,0,0,17.33871,17.078276,16.992142)"/>
<path style="fill:none;stroke-width:0.06;stroke-linecap:butt;stroke-linejoin:miter;stroke:rgb(0%,0%,47.058824%);stroke-opacity:1;stroke-miterlimit:10;" d="M 1.747056 2.491492 L 0.85778 3.00493 " transform="matrix(17.368421,0,0,17.33871,17.078276,16.992142)"/>
<path style="fill:none;stroke-width:0.06;stroke-linecap:butt;stroke-linejoin:miter;stroke:rgb(0%,0%,47.058824%);stroke-opacity:1;stroke-miterlimit:10;" d="M 1.716918 2.491492 L 2.428519 2.902197 " transform="matrix(17.368421,0,0,17.33871,17.078276,16.992142)"/>
<path style="fill:none;stroke-width:0.0333333;stroke-linecap:butt;stroke-linejoin:miter;stroke:rgb(0%,0%,0%);stroke-opacity:1;stroke-miterlimit:10;" d="M 0.874423 0.995112 L 0.18239 1.394777 " transform="matrix(17.368421,0,0,17.33871,17.078276,16.992142)"/>
<path style="fill:none;stroke-width:0.0333333;stroke-linecap:butt;stroke-linejoin:miter;stroke:rgb(0%,0%,0%);stroke-opacity:1;stroke-miterlimit:10;" d="M 0.949317 2.951761 L 0.223997 2.533171 " transform="matrix(17.368421,0,0,17.33871,17.078276,16.992142)"/>
<path style="fill:none;stroke-width:0.0333333;stroke-linecap:butt;stroke-linejoin:miter;stroke:rgb(0%,0%,0%);stroke-opacity:1;stroke-miterlimit:10;" d="M 0.866102 3.096173 L 0.140782 2.677583 " transform="matrix(17.368421,0,0,17.33871,17.078276,16.992142)"/>
<path style="fill:none;stroke-width:0.0333333;stroke-linecap:butt;stroke-linejoin:miter;stroke:rgb(0%,0%,0%);stroke-opacity:1;stroke-miterlimit:10;" d="M 0.866102 2.990286 L 0.866102 3.843237 " transform="matrix(17.368421,0,0,17.33871,17.078276,16.992142)"/>
<path style="fill:none;stroke-width:0.0333333;stroke-linecap:butt;stroke-linejoin:miter;stroke:rgb(0%,0%,0%);stroke-opacity:1;stroke-miterlimit:10;" d="M 0.949317 1.048055 L 0.949317 0.156805 " transform="matrix(17.368421,0,0,17.33871,17.078276,16.992142)"/>
<path style="fill:none;stroke-width:0.0333333;stroke-linecap:butt;stroke-linejoin:miter;stroke:rgb(0%,0%,0%);stroke-opacity:1;stroke-miterlimit:10;" d="M 0.782887 1.048055 L 0.782887 0.156805 " transform="matrix(17.368421,0,0,17.33871,17.078276,16.992142)"/>
</g>
</svg>
