<?xml version="1.0" encoding="UTF-8"?>
<svg xmlns="http://www.w3.org/2000/svg" xmlns:xlink="http://www.w3.org/1999/xlink" width="77.6pt" height="51.2pt" viewBox="0 0 77.6 51.2" version="1.1">
<g id="surface1427">
<path style="fill:none;stroke-width:0.0333333;stroke-linecap:butt;stroke-linejoin:miter;stroke:rgb(0%,0%,0%);stroke-opacity:1;stroke-miterlimit:10;" d="M 1.651777 -0.0000395369 L 1.651777 0.999921 " transform="matrix(17.321429,0,0,17.391304,16.994339,17.043656)"/>
<path style="fill:none;stroke-width:0.0333333;stroke-linecap:butt;stroke-linejoin:miter;stroke:rgb(0%,0%,0%);stroke-opacity:1;stroke-miterlimit:10;" d="M 1.651777 0.999921 L 2.517756 0.499941 " transform="matrix(17.321429,0,0,17.391304,16.994339,17.043656)"/>
<path style="fill:none;stroke-width:0.0333333;stroke-linecap:butt;stroke-linejoin:miter;stroke:rgb(0%,0%,0%);stroke-opacity:1;stroke-miterlimit:10;" d="M 1.651777 -0.0000395369 L 2.517756 0.499941 " transform="matrix(17.321429,0,0,17.391304,16.994339,17.043656)"/>
<path style="fill:none;stroke-width:0.0333333;stroke-linecap:butt;stroke-linejoin:miter;stroke:rgb(0%,0%,0%);stroke-opacity:1;stroke-miterlimit:10;" d="M 0.866081 -0.0000395369 L 0.866081 0.999921 " transform="matrix(17.321429,0,0,17.391304,16.994339,17.043656)"/>
<path style="fill:none;stroke-width:0.0333333;stroke-linecap:butt;stroke-linejoin:miter;stroke:rgb(0%,0%,0%);stroke-opacity:1;stroke-miterlimit:10;" d="M 0.866081 0.999921 L -0.000124212 0.499941 " transform="matrix(17.321429,0,0,17.391304,16.994339,17.043656)"/>
<path style="fill:none;stroke-width:0.0333333;stroke-linecap:butt;stroke-linejoin:miter;stroke:rgb(0%,0%,0%);stroke-opacity:1;stroke-miterlimit:10;" d="M -0.000124212 0.499941 L 0.866081 -0.0000395369 " transform="matrix(17.321429,0,0,17.391304,16.994339,17.043656)"/>
</g>
</svg>
