<?xml version="1.0" encoding="UTF-8"?>
<svg xmlns="http://www.w3.org/2000/svg" xmlns:xlink="http://www.w3.org/1999/xlink" width="124pt" height="121.6pt" viewBox="0 0 124 121.6" version="1.1">
<g id="surface1717">
<path style=" stroke:none;fill-rule:nonzero;fill:rgb(0%,0%,47.058824%);fill-opacity:1;" d="M 62.84375 52.96875 C 62.84375 53.164062 62.804688 53.332031 62.726562 53.46875 C 62.644531 53.605469 62.535156 53.722656 62.402344 53.8125 C 62.269531 53.902344 62.113281 53.964844 61.9375 54.007812 C 61.753906 54.046875 61.570312 54.0625 61.375 54.0625 L 59.460938 54.0625 L 59.460938 50.246094 L 61.210938 50.246094 C 61.433594 50.246094 61.632812 50.265625 61.804688 50.300781 C 61.984375 50.339844 62.132812 50.394531 62.25 50.472656 C 62.371094 50.554688 62.460938 50.65625 62.519531 50.777344 C 62.585938 50.902344 62.617188 51.042969 62.617188 51.199219 C 62.617188 51.417969 62.554688 51.601562 62.433594 51.753906 C 62.316406 51.898438 62.136719 52 61.894531 52.058594 C 62.199219 52.09375 62.4375 52.191406 62.597656 52.351562 C 62.761719 52.503906 62.84375 52.707031 62.84375 52.96875 Z M 61.816406 51.308594 C 61.816406 51.136719 61.761719 51.015625 61.65625 50.941406 C 61.546875 50.871094 61.386719 50.832031 61.167969 50.832031 L 60.261719 50.832031 L 60.261719 51.785156 L 61.179688 51.785156 C 61.402344 51.785156 61.5625 51.75 61.664062 51.667969 C 61.765625 51.589844 61.816406 51.46875 61.816406 51.308594 Z M 62.042969 52.914062 C 62.042969 52.8125 62.023438 52.730469 61.980469 52.664062 C 61.941406 52.59375 61.886719 52.535156 61.816406 52.492188 C 61.746094 52.449219 61.660156 52.421875 61.570312 52.40625 C 61.480469 52.382812 61.386719 52.371094 61.277344 52.371094 L 60.261719 52.371094 L 60.261719 53.46875 L 61.296875 53.46875 C 61.40625 53.46875 61.503906 53.460938 61.589844 53.445312 C 61.683594 53.425781 61.761719 53.398438 61.828125 53.359375 C 61.894531 53.316406 61.941406 53.257812 61.980469 53.183594 C 62.023438 53.113281 62.042969 53.023438 62.042969 52.914062 Z M 62.042969 52.914062 "/>
<path style=" stroke:none;fill-rule:nonzero;fill:rgb(0%,0%,47.058824%);fill-opacity:1;" d="M 63.644531 50.605469 L 63.644531 50.039062 L 64.402344 50.039062 L 64.402344 50.605469 Z M 63.644531 54.0625 L 63.644531 51.125 L 64.402344 51.125 L 64.402344 54.0625 Z M 63.644531 54.0625 "/>
<path style=" stroke:none;fill-rule:nonzero;fill:rgb(0%,0%,47.058824%);fill-opacity:1;" d="M 64.976562 51.339844 L 64.976562 50.9375 C 65.042969 50.800781 65.121094 50.675781 65.214844 50.558594 C 65.308594 50.445312 65.402344 50.339844 65.507812 50.242188 C 65.613281 50.152344 65.714844 50.066406 65.808594 49.984375 C 65.910156 49.898438 66 49.816406 66.078125 49.746094 C 66.167969 49.667969 66.234375 49.585938 66.285156 49.507812 C 66.332031 49.425781 66.359375 49.34375 66.359375 49.257812 C 66.359375 49.136719 66.328125 49.046875 66.265625 48.984375 C 66.199219 48.921875 66.105469 48.886719 65.984375 48.886719 C 65.859375 48.886719 65.765625 48.921875 65.703125 48.984375 C 65.636719 49.050781 65.597656 49.148438 65.582031 49.277344 L 65.007812 49.246094 C 65.015625 49.136719 65.042969 49.035156 65.085938 48.929688 C 65.128906 48.832031 65.1875 48.746094 65.269531 48.671875 C 65.347656 48.601562 65.445312 48.542969 65.5625 48.496094 C 65.675781 48.453125 65.816406 48.433594 65.984375 48.433594 C 66.132812 48.433594 66.265625 48.453125 66.382812 48.488281 C 66.503906 48.523438 66.605469 48.578125 66.683594 48.648438 C 66.765625 48.714844 66.824219 48.796875 66.871094 48.898438 C 66.914062 48.992188 66.933594 49.105469 66.933594 49.234375 C 66.933594 49.375 66.90625 49.496094 66.847656 49.605469 C 66.796875 49.710938 66.730469 49.816406 66.652344 49.90625 C 66.570312 49.996094 66.484375 50.078125 66.382812 50.15625 C 66.28125 50.238281 66.179688 50.316406 66.078125 50.394531 C 65.984375 50.46875 65.898438 50.542969 65.820312 50.625 C 65.746094 50.695312 65.695312 50.78125 65.660156 50.871094 L 66.976562 50.871094 L 66.976562 51.339844 Z M 64.976562 51.339844 "/>
<path style=" stroke:none;fill-rule:nonzero;fill:rgb(0%,0%,47.058824%);fill-opacity:1;" d="M 66.976562 49.632812 L 67.90625 49.632812 L 67.90625 48.703125 L 68.367188 48.703125 L 68.367188 49.632812 L 69.292969 49.632812 L 69.292969 50.097656 L 68.367188 50.097656 L 68.367188 51.027344 L 67.90625 51.027344 L 67.90625 50.097656 L 66.976562 50.097656 "/>
<path style="fill:none;stroke-width:0.06;stroke-linecap:butt;stroke-linejoin:miter;stroke:rgb(0%,0%,47.058824%);stroke-opacity:1;stroke-miterlimit:10;" d="M 3.058864 1.733955 L 3.472315 1.495325 " transform="matrix(17.299107,0,0,17.351598,16.986733,17.350603)"/>
<path style="fill:none;stroke-width:0.06;stroke-linecap:butt;stroke-linejoin:miter;stroke:rgb(0%,0%,47.058824%);stroke-opacity:1;stroke-miterlimit:10;" d="M 2.389573 1.87961 L 1.72367 1.495325 " transform="matrix(17.299107,0,0,17.351598,16.986733,17.350603)"/>
<path style="fill:none;stroke-width:0.06;stroke-linecap:butt;stroke-linejoin:miter;stroke:rgb(0%,0%,47.058824%);stroke-opacity:1;stroke-miterlimit:10;" d="M 2.597993 2.159213 L 2.597993 3.009504 " transform="matrix(17.299107,0,0,17.351598,16.986733,17.350603)"/>
<path style="fill:none;stroke-width:0.0333333;stroke-linecap:butt;stroke-linejoin:miter;stroke:rgb(0%,0%,0%);stroke-opacity:1;stroke-miterlimit:10;" d="M 0.857477 2.004779 L 1.732025 1.500052 " transform="matrix(17.299107,0,0,17.351598,16.986733,17.350603)"/>
<path style="fill:none;stroke-width:0.0333333;stroke-linecap:butt;stroke-linejoin:miter;stroke:rgb(0%,0%,0%);stroke-opacity:1;stroke-miterlimit:10;" d="M 0.857477 1.812298 L 1.56538 1.403699 " transform="matrix(17.299107,0,0,17.351598,16.986733,17.350603)"/>
<path style="fill:none;stroke-width:0.0333333;stroke-linecap:butt;stroke-linejoin:miter;stroke:rgb(0%,0%,0%);stroke-opacity:1;stroke-miterlimit:10;" d="M 1.732025 1.509507 L 1.732025 0.490374 " transform="matrix(17.299107,0,0,17.351598,16.986733,17.350603)"/>
<path style="fill:none;stroke-width:0.0333333;stroke-linecap:butt;stroke-linejoin:miter;stroke:rgb(0%,0%,0%);stroke-opacity:1;stroke-miterlimit:10;" d="M 0.874412 -0.00489741 L -0.00826534 0.504782 " transform="matrix(17.299107,0,0,17.351598,16.986733,17.350603)"/>
<path style="fill:none;stroke-width:0.0333333;stroke-linecap:butt;stroke-linejoin:miter;stroke:rgb(0%,0%,0%);stroke-opacity:1;stroke-miterlimit:10;" d="M -0.000136308 0.490374 L -0.000136308 1.509507 " transform="matrix(17.299107,0,0,17.351598,16.986733,17.350603)"/>
<path style="fill:none;stroke-width:0.0333333;stroke-linecap:butt;stroke-linejoin:miter;stroke:rgb(0%,0%,0%);stroke-opacity:1;stroke-miterlimit:10;" d="M 0.166735 0.586727 L 0.166735 1.41338 " transform="matrix(17.299107,0,0,17.351598,16.986733,17.350603)"/>
<path style="fill:none;stroke-width:0.0333333;stroke-linecap:butt;stroke-linejoin:miter;stroke:rgb(0%,0%,0%);stroke-opacity:1;stroke-miterlimit:10;" d="M -0.00826534 1.495325 L 0.874412 2.004779 " transform="matrix(17.299107,0,0,17.351598,16.986733,17.350603)"/>
<path style="fill:none;stroke-width:0.0333333;stroke-linecap:butt;stroke-linejoin:miter;stroke:rgb(0%,0%,0%);stroke-opacity:1;stroke-miterlimit:10;" d="M 0.857477 -0.00489741 L 1.74038 0.504782 " transform="matrix(17.299107,0,0,17.351598,16.986733,17.350603)"/>
<path style="fill:none;stroke-width:0.0333333;stroke-linecap:butt;stroke-linejoin:miter;stroke:rgb(0%,0%,0%);stroke-opacity:1;stroke-miterlimit:10;" d="M 0.857477 0.187808 L 1.573735 0.60091 " transform="matrix(17.299107,0,0,17.351598,16.986733,17.350603)"/>
<path style="fill:none;stroke-width:0.0333333;stroke-linecap:butt;stroke-linejoin:miter;stroke:rgb(0%,0%,0%);stroke-opacity:1;stroke-miterlimit:10;" d="M 2.597993 3.000049 L 1.72367 3.504776 " transform="matrix(17.299107,0,0,17.351598,16.986733,17.350603)"/>
<path style="fill:none;stroke-width:0.0333333;stroke-linecap:butt;stroke-linejoin:miter;stroke:rgb(0%,0%,0%);stroke-opacity:1;stroke-miterlimit:10;" d="M 2.597993 3.192304 L 1.890315 3.600903 " transform="matrix(17.299107,0,0,17.351598,16.986733,17.350603)"/>
<path style="fill:none;stroke-width:0.0333333;stroke-linecap:butt;stroke-linejoin:miter;stroke:rgb(0%,0%,0%);stroke-opacity:1;stroke-miterlimit:10;" d="M 2.589864 2.995322 L 3.472315 3.504776 " transform="matrix(17.299107,0,0,17.351598,16.986733,17.350603)"/>
<path style="fill:none;stroke-width:0.0333333;stroke-linecap:butt;stroke-linejoin:miter;stroke:rgb(0%,0%,0%);stroke-opacity:1;stroke-miterlimit:10;" d="M 1.732025 3.490368 L 1.732025 4.509501 " transform="matrix(17.299107,0,0,17.351598,16.986733,17.350603)"/>
<path style="fill:none;stroke-width:0.0333333;stroke-linecap:butt;stroke-linejoin:miter;stroke:rgb(0%,0%,0%);stroke-opacity:1;stroke-miterlimit:10;" d="M 1.72367 4.495318 L 2.606348 5.004998 " transform="matrix(17.299107,0,0,17.351598,16.986733,17.350603)"/>
<path style="fill:none;stroke-width:0.0333333;stroke-linecap:butt;stroke-linejoin:miter;stroke:rgb(0%,0%,0%);stroke-opacity:1;stroke-miterlimit:10;" d="M 1.890315 4.398966 L 2.606348 4.812292 " transform="matrix(17.299107,0,0,17.351598,16.986733,17.350603)"/>
<path style="fill:none;stroke-width:0.0333333;stroke-linecap:butt;stroke-linejoin:miter;stroke:rgb(0%,0%,0%);stroke-opacity:1;stroke-miterlimit:10;" d="M 2.589864 5.004998 L 3.472315 4.495318 " transform="matrix(17.299107,0,0,17.351598,16.986733,17.350603)"/>
<path style="fill:none;stroke-width:0.0333333;stroke-linecap:butt;stroke-linejoin:miter;stroke:rgb(0%,0%,0%);stroke-opacity:1;stroke-miterlimit:10;" d="M 3.46396 4.509501 L 3.46396 3.490368 " transform="matrix(17.299107,0,0,17.351598,16.986733,17.350603)"/>
<path style="fill:none;stroke-width:0.0333333;stroke-linecap:butt;stroke-linejoin:miter;stroke:rgb(0%,0%,0%);stroke-opacity:1;stroke-miterlimit:10;" d="M 3.297315 4.413374 L 3.297315 3.586721 " transform="matrix(17.299107,0,0,17.351598,16.986733,17.350603)"/>
<path style="fill:none;stroke-width:0.0333333;stroke-linecap:butt;stroke-linejoin:miter;stroke:rgb(0%,0%,0%);stroke-opacity:1;stroke-miterlimit:10;" d="M 3.46396 0.490374 L 3.46396 1.500052 " transform="matrix(17.299107,0,0,17.351598,16.986733,17.350603)"/>
<path style="fill:none;stroke-width:0.0333333;stroke-linecap:butt;stroke-linejoin:miter;stroke:rgb(0%,0%,0%);stroke-opacity:1;stroke-miterlimit:10;" d="M 3.630606 0.586727 L 3.630606 1.403699 " transform="matrix(17.299107,0,0,17.351598,16.986733,17.350603)"/>
<path style="fill:none;stroke-width:0.0333333;stroke-linecap:butt;stroke-linejoin:miter;stroke:rgb(0%,0%,0%);stroke-opacity:1;stroke-miterlimit:10;" d="M 3.455606 1.495325 L 4.338283 2.004779 " transform="matrix(17.299107,0,0,17.351598,16.986733,17.350603)"/>
<path style="fill:none;stroke-width:0.0333333;stroke-linecap:butt;stroke-linejoin:miter;stroke:rgb(0%,0%,0%);stroke-opacity:1;stroke-miterlimit:10;" d="M 4.338283 -0.00489741 L 3.455606 0.504782 " transform="matrix(17.299107,0,0,17.351598,16.986733,17.350603)"/>
<path style="fill:none;stroke-width:0.0333333;stroke-linecap:butt;stroke-linejoin:miter;stroke:rgb(0%,0%,0%);stroke-opacity:1;stroke-miterlimit:10;" d="M 4.321573 2.004779 L 5.204477 1.495325 " transform="matrix(17.299107,0,0,17.351598,16.986733,17.350603)"/>
<path style="fill:none;stroke-width:0.0333333;stroke-linecap:butt;stroke-linejoin:miter;stroke:rgb(0%,0%,0%);stroke-opacity:1;stroke-miterlimit:10;" d="M 4.321573 1.812298 L 5.037831 1.398972 " transform="matrix(17.299107,0,0,17.351598,16.986733,17.350603)"/>
<path style="fill:none;stroke-width:0.0333333;stroke-linecap:butt;stroke-linejoin:miter;stroke:rgb(0%,0%,0%);stroke-opacity:1;stroke-miterlimit:10;" d="M 5.196122 1.509507 L 5.196122 0.490374 " transform="matrix(17.299107,0,0,17.351598,16.986733,17.350603)"/>
<path style="fill:none;stroke-width:0.0333333;stroke-linecap:butt;stroke-linejoin:miter;stroke:rgb(0%,0%,0%);stroke-opacity:1;stroke-miterlimit:10;" d="M 4.321573 -0.00489741 L 5.204477 0.504782 " transform="matrix(17.299107,0,0,17.351598,16.986733,17.350603)"/>
<path style="fill:none;stroke-width:0.0333333;stroke-linecap:butt;stroke-linejoin:miter;stroke:rgb(0%,0%,0%);stroke-opacity:1;stroke-miterlimit:10;" d="M 4.321573 0.187808 L 5.037831 0.60091 " transform="matrix(17.299107,0,0,17.351598,16.986733,17.350603)"/>
</g>
</svg>
