<?xml version="1.0" encoding="UTF-8"?>
<svg xmlns="http://www.w3.org/2000/svg" xmlns:xlink="http://www.w3.org/1999/xlink" width="99.2pt" height="92pt" viewBox="0 0 99.2 92" version="1.1">
<g id="surface1817">
<path style=" stroke:none;fill-rule:nonzero;fill:rgb(0%,0%,47.058824%);fill-opacity:1;" d="M 44.300781 42.011719 L 42.636719 39.078125 C 42.648438 39.15625 42.660156 39.234375 42.667969 39.316406 C 42.671875 39.378906 42.679688 39.453125 42.679688 39.53125 C 42.683594 39.613281 42.691406 39.6875 42.691406 39.757812 L 42.691406 42.011719 L 41.976562 42.011719 L 41.976562 38.199219 L 42.894531 38.199219 L 44.574219 41.15625 C 44.566406 41.085938 44.558594 41.003906 44.550781 40.917969 C 44.542969 40.847656 44.535156 40.765625 44.53125 40.679688 C 44.53125 40.59375 44.53125 40.503906 44.53125 40.40625 L 44.53125 38.199219 L 45.234375 38.199219 L 45.234375 42.011719 Z M 44.300781 42.011719 "/>
<path style=" stroke:none;fill-rule:nonzero;fill:rgb(0%,0%,47.058824%);fill-opacity:1;" d="M 62.347656 17.675781 C 62.347656 17.972656 62.300781 18.246094 62.207031 18.488281 C 62.121094 18.734375 61.996094 18.941406 61.828125 19.117188 C 61.660156 19.289062 61.460938 19.425781 61.222656 19.515625 C 60.984375 19.609375 60.714844 19.65625 60.410156 19.65625 C 60.09375 19.65625 59.816406 19.609375 59.578125 19.515625 C 59.339844 19.417969 59.136719 19.277344 58.972656 19.105469 C 58.8125 18.925781 58.691406 18.714844 58.613281 18.476562 C 58.535156 18.234375 58.496094 17.964844 58.496094 17.675781 C 58.496094 17.382812 58.535156 17.113281 58.613281 16.875 C 58.703125 16.632812 58.824219 16.425781 58.992188 16.257812 C 59.160156 16.09375 59.363281 15.964844 59.601562 15.867188 C 59.839844 15.777344 60.109375 15.726562 60.421875 15.726562 C 60.730469 15.726562 61.007812 15.777344 61.246094 15.867188 C 61.484375 15.964844 61.679688 16.097656 61.839844 16.269531 C 62.003906 16.4375 62.132812 16.636719 62.21875 16.875 C 62.304688 17.113281 62.347656 17.382812 62.347656 17.675781 Z M 61.539062 17.675781 C 61.539062 17.476562 61.511719 17.296875 61.460938 17.136719 C 61.410156 16.976562 61.335938 16.839844 61.246094 16.722656 C 61.148438 16.609375 61.035156 16.519531 60.898438 16.453125 C 60.761719 16.386719 60.601562 16.355469 60.421875 16.355469 C 60.234375 16.355469 60.066406 16.386719 59.925781 16.453125 C 59.785156 16.519531 59.671875 16.609375 59.578125 16.722656 C 59.484375 16.839844 59.410156 16.976562 59.363281 17.136719 C 59.316406 17.296875 59.296875 17.476562 59.296875 17.675781 C 59.296875 17.878906 59.320312 18.0625 59.371094 18.230469 C 59.421875 18.386719 59.496094 18.527344 59.589844 18.652344 C 59.679688 18.765625 59.796875 18.863281 59.933594 18.933594 C 60.070312 18.996094 60.230469 19.03125 60.410156 19.03125 C 60.605469 19.03125 60.769531 18.996094 60.910156 18.933594 C 61.054688 18.863281 61.171875 18.765625 61.265625 18.652344 C 61.359375 18.527344 61.429688 18.386719 61.472656 18.21875 C 61.515625 18.050781 61.539062 17.871094 61.539062 17.675781 Z M 61.539062 17.675781 "/>
<path style=" stroke:none;fill-rule:nonzero;fill:rgb(0%,0%,0%);fill-opacity:1;" d="M 23.34375 61.574219 C 23.34375 61.875 23.296875 62.144531 23.210938 62.386719 C 23.125 62.632812 23 62.84375 22.832031 63.015625 C 22.671875 63.1875 22.476562 63.324219 22.238281 63.414062 C 22.003906 63.507812 21.742188 63.554688 21.449219 63.554688 C 21.128906 63.554688 20.851562 63.507812 20.613281 63.414062 C 20.382812 63.316406 20.1875 63.175781 20.03125 63.003906 C 19.871094 62.824219 19.75 62.613281 19.671875 62.375 C 19.589844 62.132812 19.554688 61.863281 19.554688 61.574219 C 19.554688 61.28125 19.589844 61.011719 19.671875 60.773438 C 19.757812 60.53125 19.882812 60.324219 20.039062 60.15625 C 20.207031 59.992188 20.402344 59.863281 20.636719 59.769531 C 20.875 59.675781 21.144531 59.628906 21.449219 59.628906 C 21.75 59.628906 22.019531 59.675781 22.257812 59.769531 C 22.496094 59.863281 22.695312 59.996094 22.855469 60.167969 C 23.011719 60.335938 23.132812 60.535156 23.210938 60.773438 C 23.296875 61.011719 23.34375 61.28125 23.34375 61.574219 Z M 22.8125 61.574219 C 22.8125 61.34375 22.78125 61.136719 22.726562 60.949219 C 22.664062 60.761719 22.578125 60.601562 22.464844 60.472656 C 22.347656 60.335938 22.207031 60.230469 22.03125 60.15625 C 21.863281 60.085938 21.667969 60.050781 21.449219 60.050781 C 21.222656 60.050781 21.027344 60.085938 20.851562 60.15625 C 20.679688 60.230469 20.53125 60.335938 20.417969 60.472656 C 20.3125 60.601562 20.226562 60.761719 20.171875 60.949219 C 20.109375 61.136719 20.082031 61.34375 20.082031 61.574219 C 20.082031 61.808594 20.109375 62.019531 20.171875 62.214844 C 20.226562 62.402344 20.3125 62.566406 20.429688 62.703125 C 20.542969 62.839844 20.683594 62.949219 20.851562 63.027344 C 21.027344 63.097656 21.222656 63.132812 21.449219 63.132812 C 21.6875 63.132812 21.890625 63.097656 22.066406 63.027344 C 22.238281 62.949219 22.378906 62.839844 22.488281 62.703125 C 22.59375 62.558594 22.671875 62.394531 22.726562 62.203125 C 22.78125 62.007812 22.8125 61.800781 22.8125 61.574219 Z M 22.8125 61.574219 "/>
<path style=" stroke:none;fill-rule:nonzero;fill:rgb(0%,0%,0%);fill-opacity:1;" d="M 82.078125 64.582031 C 81.863281 64.582031 81.671875 64.621094 81.503906 64.691406 C 81.335938 64.761719 81.195312 64.867188 81.082031 65.003906 C 80.972656 65.132812 80.890625 65.292969 80.832031 65.480469 C 80.773438 65.667969 80.746094 65.878906 80.746094 66.109375 C 80.746094 66.339844 80.773438 66.550781 80.832031 66.746094 C 80.898438 66.9375 80.988281 67.097656 81.105469 67.234375 C 81.21875 67.371094 81.359375 67.480469 81.527344 67.558594 C 81.699219 67.632812 81.890625 67.667969 82.101562 67.667969 C 82.25 67.667969 82.382812 67.652344 82.5 67.613281 C 82.621094 67.570312 82.734375 67.511719 82.835938 67.441406 C 82.9375 67.371094 83.023438 67.285156 83.097656 67.191406 C 83.175781 67.097656 83.242188 66.992188 83.300781 66.867188 L 83.722656 67.082031 C 83.660156 67.230469 83.574219 67.359375 83.476562 67.484375 C 83.371094 67.609375 83.253906 67.714844 83.117188 67.808594 C 82.980469 67.894531 82.824219 67.964844 82.652344 68.011719 C 82.480469 68.0625 82.285156 68.089844 82.078125 68.089844 C 81.765625 68.089844 81.496094 68.039062 81.265625 67.949219 C 81.035156 67.847656 80.839844 67.710938 80.683594 67.535156 C 80.53125 67.359375 80.414062 67.148438 80.335938 66.910156 C 80.253906 66.664062 80.21875 66.398438 80.21875 66.109375 C 80.21875 65.8125 80.253906 65.546875 80.335938 65.308594 C 80.421875 65.0625 80.542969 64.859375 80.703125 64.691406 C 80.859375 64.523438 81.054688 64.394531 81.289062 64.300781 C 81.519531 64.207031 81.78125 64.160156 82.078125 64.160156 C 82.480469 64.160156 82.816406 64.242188 83.085938 64.398438 C 83.359375 64.558594 83.5625 64.796875 83.691406 65.113281 L 83.203125 65.273438 C 83.167969 65.183594 83.117188 65.097656 83.050781 65.015625 C 82.992188 64.929688 82.917969 64.859375 82.824219 64.796875 C 82.730469 64.734375 82.621094 64.683594 82.5 64.648438 C 82.375 64.605469 82.234375 64.582031 82.078125 64.582031 Z M 82.078125 64.582031 "/>
<path style=" stroke:none;fill-rule:nonzero;fill:rgb(0%,0%,0%);fill-opacity:1;" d="M 53.410156 73.410156 C 53.191406 73.410156 53 73.445312 52.835938 73.519531 C 52.667969 73.589844 52.527344 73.695312 52.414062 73.832031 C 52.304688 73.960938 52.21875 74.121094 52.164062 74.308594 C 52.105469 74.496094 52.078125 74.707031 52.078125 74.9375 C 52.078125 75.167969 52.105469 75.378906 52.164062 75.574219 C 52.230469 75.765625 52.316406 75.925781 52.433594 76.0625 C 52.546875 76.199219 52.6875 76.308594 52.855469 76.386719 C 53.03125 76.460938 53.21875 76.496094 53.429688 76.496094 C 53.582031 76.496094 53.714844 76.476562 53.832031 76.441406 C 53.953125 76.398438 54.0625 76.339844 54.167969 76.265625 C 54.265625 76.195312 54.351562 76.113281 54.425781 76.019531 C 54.503906 75.925781 54.570312 75.816406 54.632812 75.695312 L 55.054688 75.910156 C 54.988281 76.054688 54.90625 76.1875 54.804688 76.308594 C 54.703125 76.433594 54.582031 76.542969 54.449219 76.636719 C 54.308594 76.722656 54.15625 76.792969 53.980469 76.839844 C 53.808594 76.890625 53.617188 76.917969 53.410156 76.917969 C 53.097656 76.917969 52.828125 76.867188 52.597656 76.777344 C 52.363281 76.675781 52.167969 76.539062 52.011719 76.363281 C 51.859375 76.1875 51.746094 75.976562 51.664062 75.738281 C 51.585938 75.492188 51.546875 75.226562 51.546875 74.9375 C 51.546875 74.640625 51.585938 74.371094 51.664062 74.132812 C 51.753906 73.890625 51.875 73.683594 52.035156 73.519531 C 52.191406 73.351562 52.386719 73.222656 52.617188 73.128906 C 52.847656 73.035156 53.109375 72.988281 53.410156 72.988281 C 53.8125 72.988281 54.148438 73.070312 54.414062 73.226562 C 54.6875 73.386719 54.890625 73.625 55.019531 73.941406 L 54.535156 74.101562 C 54.496094 74.011719 54.449219 73.921875 54.382812 73.84375 C 54.324219 73.753906 54.246094 73.683594 54.15625 73.625 C 54.0625 73.5625 53.953125 73.511719 53.832031 73.472656 C 53.707031 73.429688 53.566406 73.410156 53.410156 73.410156 Z M 53.410156 73.410156 "/>
<path style="fill:none;stroke-width:0.0333333;stroke-linecap:butt;stroke-linejoin:miter;stroke:rgb(0%,0%,0%);stroke-opacity:1;stroke-miterlimit:10;" d="M -0.00730857 0.80964 L 0.607553 -0.00975949 " transform="matrix(17.318436,0,0,17.319277,17.091417,17.184652)"/>
<path style="fill:none;stroke-width:0.06;stroke-linecap:butt;stroke-linejoin:miter;stroke:rgb(0%,0%,47.058824%);stroke-opacity:1;stroke-miterlimit:10;" d="M 1.567061 0.330811 L 0.588832 -0.00389536 " transform="matrix(17.318436,0,0,17.319277,17.091417,17.184652)"/>
<path style="fill:none;stroke-width:0.0333333;stroke-linecap:butt;stroke-linejoin:miter;stroke:rgb(0%,0%,0%);stroke-opacity:1;stroke-miterlimit:10;" d="M 0.582065 1.627686 L -0.00685746 0.790018 " transform="matrix(17.318436,0,0,17.319277,17.091417,17.184652)"/>
<path style="fill:none;stroke-width:0.0333333;stroke-linecap:butt;stroke-linejoin:miter;stroke:rgb(0%,0%,0%);stroke-opacity:1;stroke-miterlimit:10;" d="M 0.563795 1.621371 L 1.364062 1.374852 " transform="matrix(17.318436,0,0,17.319277,17.091417,17.184652)"/>
<path style="fill:none;stroke-width:0.0333333;stroke-linecap:butt;stroke-linejoin:miter;stroke:rgb(0%,0%,0%);stroke-opacity:1;stroke-miterlimit:10;" d="M 1.70059 1.381618 L 2.488677 1.651143 " transform="matrix(17.318436,0,0,17.319277,17.091417,17.184652)"/>
<path style="fill:none;stroke-width:0.06;stroke-linecap:butt;stroke-linejoin:miter;stroke:rgb(0%,0%,47.058824%);stroke-opacity:1;stroke-miterlimit:10;" d="M 1.546761 0.301942 L 1.533228 1.168705 " transform="matrix(17.318436,0,0,17.319277,17.091417,17.184652)"/>
<path style="fill:none;stroke-width:0.06;stroke-linecap:butt;stroke-linejoin:miter;stroke:rgb(0%,0%,47.058824%);stroke-opacity:1;stroke-miterlimit:10;" d="M 1.680515 0.302618 L 1.669012 0.265629 M 1.81472 0.281643 L 1.791714 0.207439 M 1.948699 0.260667 L 1.914415 0.149249 M 2.082904 0.239692 L 2.037117 0.091284 M 2.217109 0.218942 L 2.159818 0.0330938 M 2.351089 0.197966 L 2.28252 -0.0250964 " transform="matrix(17.318436,0,0,17.319277,17.091417,17.184652)"/>
<path style="fill:none;stroke-width:0.0333333;stroke-linecap:butt;stroke-linejoin:miter;stroke:rgb(0%,0%,0%);stroke-opacity:1;stroke-miterlimit:10;" d="M 2.46973 1.656781 L 3.084592 0.837607 " transform="matrix(17.318436,0,0,17.319277,17.091417,17.184652)"/>
<path style="fill:none;stroke-width:0.0333333;stroke-linecap:butt;stroke-linejoin:miter;stroke:rgb(0%,0%,0%);stroke-opacity:1;stroke-miterlimit:10;" d="M 3.084366 0.85723 L 2.626942 0.206988 " transform="matrix(17.318436,0,0,17.319277,17.091417,17.184652)"/>
<path style="fill:none;stroke-width:0.0333333;stroke-linecap:butt;stroke-linejoin:miter;stroke:rgb(0%,0%,0%);stroke-opacity:1;stroke-miterlimit:10;" d="M 0.515978 1.533635 L 0.236967 2.349876 " transform="matrix(17.318436,0,0,17.319277,17.091417,17.184652)"/>
<path style="fill:none;stroke-width:0.0333333;stroke-linecap:butt;stroke-linejoin:miter;stroke:rgb(0%,0%,0%);stroke-opacity:1;stroke-miterlimit:10;" d="M 0.67364 1.587539 L 0.394404 2.403781 " transform="matrix(17.318436,0,0,17.319277,17.091417,17.184652)"/>
<path style=" stroke:none;fill-rule:nonzero;fill:rgb(0%,0%,0%);fill-opacity:1;" d="M 59.992188 45.710938 L 63.386719 64.097656 L 65.085938 62.265625 L 67.527344 62.824219 "/>
<path style="fill:none;stroke-width:0.0333333;stroke-linecap:butt;stroke-linejoin:miter;stroke:rgb(0%,0%,0%);stroke-opacity:1;stroke-miterlimit:10;" d="M 2.762049 2.600681 L 3.579458 2.787656 " transform="matrix(17.318436,0,0,17.319277,17.091417,17.184652)"/>
<path style="fill:none;stroke-width:0.0333333;stroke-linecap:butt;stroke-linejoin:miter;stroke:rgb(0%,0%,0%);stroke-opacity:1;stroke-miterlimit:10;" d="M 2.778063 2.595944 L 2.23583 3.179425 " transform="matrix(17.318436,0,0,17.319277,17.091417,17.184652)"/>
</g>
</svg>
