<?xml version="1.0" encoding="UTF-8"?>
<svg xmlns="http://www.w3.org/2000/svg" xmlns:xlink="http://www.w3.org/1999/xlink" width="64pt" height="68.8pt" viewBox="0 0 64 68.8" version="1.1">
<g id="surface977">
<path style="fill:none;stroke-width:0.06;stroke-linecap:butt;stroke-linejoin:miter;stroke:rgb(0%,0%,47.058824%);stroke-opacity:1;stroke-miterlimit:10;" d="M 0.881074 -0.00856679 L -0.0149804 0.508475 " transform="matrix(17.241379,0,0,17.33871,17.137188,16.992287)"/>
<path style="fill:none;stroke-width:0.06;stroke-linecap:butt;stroke-linejoin:miter;stroke:rgb(0%,0%,47.058824%);stroke-opacity:1;stroke-miterlimit:10;" d="M 0.850942 -0.00856679 L 1.747223 0.508475 " transform="matrix(17.241379,0,0,17.33871,17.137188,16.992287)"/>
<path style="fill:none;stroke-width:0.06;stroke-linecap:butt;stroke-linejoin:miter;stroke:rgb(0%,0%,47.058824%);stroke-opacity:1;stroke-miterlimit:10;" d="M 0.850942 0.183831 L 1.580473 0.6049 " transform="matrix(17.241379,0,0,17.33871,17.137188,16.992287)"/>
<path style="fill:none;stroke-width:0.06;stroke-linecap:butt;stroke-linejoin:miter;stroke:rgb(0%,0%,47.058824%);stroke-opacity:1;stroke-miterlimit:10;" d="M -0.0000272325 0.482567 L -0.0000272325 1.517327 " transform="matrix(17.241379,0,0,17.33871,17.137188,16.992287)"/>
<path style="fill:none;stroke-width:0.06;stroke-linecap:butt;stroke-linejoin:miter;stroke:rgb(0%,0%,47.058824%);stroke-opacity:1;stroke-miterlimit:10;" d="M 0.166723 0.578991 L 0.166723 1.421128 " transform="matrix(17.241379,0,0,17.33871,17.137188,16.992287)"/>
<path style="fill:none;stroke-width:0.06;stroke-linecap:butt;stroke-linejoin:miter;stroke:rgb(0%,0%,47.058824%);stroke-opacity:1;stroke-miterlimit:10;" d="M -0.0149804 1.491419 L 0.881074 2.008461 " transform="matrix(17.241379,0,0,17.33871,17.137188,16.992287)"/>
<path style="fill:none;stroke-width:0.06;stroke-linecap:butt;stroke-linejoin:miter;stroke:rgb(0%,0%,47.058824%);stroke-opacity:1;stroke-miterlimit:10;" d="M 0.850942 2.008461 L 1.747223 1.491419 " transform="matrix(17.241379,0,0,17.33871,17.137188,16.992287)"/>
<path style="fill:none;stroke-width:0.06;stroke-linecap:butt;stroke-linejoin:miter;stroke:rgb(0%,0%,47.058824%);stroke-opacity:1;stroke-miterlimit:10;" d="M 0.850942 1.816288 L 1.580473 1.39522 " transform="matrix(17.241379,0,0,17.33871,17.137188,16.992287)"/>
<path style="fill:none;stroke-width:0.06;stroke-linecap:butt;stroke-linejoin:miter;stroke:rgb(0%,0%,47.058824%);stroke-opacity:1;stroke-miterlimit:10;" d="M 1.732043 1.517327 L 1.732043 0.482567 " transform="matrix(17.241379,0,0,17.33871,17.137188,16.992287)"/>
</g>
</svg>
