<?xml version="1.0" encoding="UTF-8"?>
<svg xmlns="http://www.w3.org/2000/svg" xmlns:xlink="http://www.w3.org/1999/xlink" width="64pt" height="43.2pt" viewBox="0 0 64 43.2" version="1.1">
<g id="surface1302">
<path style=" stroke:none;fill-rule:nonzero;fill:rgb(0%,0%,0%);fill-opacity:1;" d="M 17.242188 24.246094 C 17.027344 24.246094 16.835938 24.285156 16.671875 24.355469 C 16.507812 24.429688 16.367188 24.535156 16.253906 24.667969 C 16.144531 24.796875 16.0625 24.957031 16.003906 25.144531 C 15.945312 25.335938 15.917969 25.542969 15.917969 25.773438 C 15.917969 26.003906 15.945312 26.214844 16.003906 26.410156 C 16.070312 26.601562 16.160156 26.761719 16.273438 26.898438 C 16.386719 27.035156 16.527344 27.144531 16.695312 27.222656 C 16.867188 27.292969 17.054688 27.328125 17.265625 27.328125 C 17.417969 27.328125 17.546875 27.3125 17.664062 27.277344 C 17.785156 27.234375 17.894531 27.175781 18 27.101562 C 18.097656 27.03125 18.183594 26.949219 18.257812 26.855469 C 18.335938 26.761719 18.402344 26.652344 18.460938 26.53125 L 18.882812 26.746094 C 18.816406 26.890625 18.734375 27.023438 18.632812 27.144531 C 18.53125 27.269531 18.414062 27.378906 18.277344 27.46875 C 18.140625 27.558594 17.988281 27.628906 17.816406 27.675781 C 17.644531 27.726562 17.453125 27.75 17.242188 27.75 C 16.933594 27.75 16.664062 27.703125 16.4375 27.609375 C 16.203125 27.511719 16.011719 27.375 15.855469 27.199219 C 15.703125 27.023438 15.585938 26.8125 15.507812 26.574219 C 15.429688 26.328125 15.390625 26.0625 15.390625 25.773438 C 15.390625 25.476562 15.429688 25.210938 15.507812 24.972656 C 15.59375 24.726562 15.714844 24.523438 15.875 24.355469 C 16.03125 24.191406 16.226562 24.058594 16.457031 23.964844 C 16.6875 23.875 16.949219 23.824219 17.242188 23.824219 C 17.644531 23.824219 17.980469 23.90625 18.246094 24.0625 C 18.519531 24.222656 18.71875 24.460938 18.851562 24.777344 L 18.363281 24.9375 C 18.328125 24.847656 18.277344 24.761719 18.214844 24.679688 C 18.15625 24.59375 18.078125 24.523438 17.988281 24.464844 C 17.894531 24.398438 17.785156 24.351562 17.664062 24.3125 C 17.539062 24.269531 17.398438 24.246094 17.242188 24.246094 Z M 17.242188 24.246094 "/>
<path style=" stroke:none;fill-rule:nonzero;fill:rgb(0%,0%,0%);fill-opacity:1;" d="M 43.648438 26.171875 C 43.648438 26.332031 43.617188 26.480469 43.550781 26.617188 C 43.492188 26.746094 43.398438 26.863281 43.269531 26.960938 C 43.140625 27.066406 42.972656 27.144531 42.773438 27.199219 C 42.582031 27.25 42.347656 27.277344 42.085938 27.277344 C 41.609375 27.277344 41.238281 27.195312 40.976562 27.027344 C 40.707031 26.863281 40.539062 26.621094 40.46875 26.300781 L 40.976562 26.203125 C 40.996094 26.308594 41.03125 26.398438 41.082031 26.476562 C 41.140625 26.554688 41.210938 26.625 41.296875 26.691406 C 41.382812 26.75 41.492188 26.796875 41.621094 26.832031 C 41.757812 26.863281 41.914062 26.875 42.097656 26.875 C 42.253906 26.875 42.390625 26.863281 42.515625 26.832031 C 42.644531 26.804688 42.757812 26.765625 42.851562 26.714844 C 42.941406 26.65625 43.015625 26.589844 43.066406 26.507812 C 43.113281 26.421875 43.140625 26.320312 43.140625 26.195312 C 43.140625 26.074219 43.113281 25.972656 43.054688 25.890625 C 42.996094 25.8125 42.917969 25.746094 42.816406 25.695312 C 42.714844 25.648438 42.59375 25.605469 42.453125 25.578125 C 42.304688 25.542969 42.148438 25.5 41.976562 25.457031 C 41.871094 25.4375 41.761719 25.414062 41.652344 25.382812 C 41.550781 25.355469 41.453125 25.324219 41.351562 25.285156 C 41.25 25.25 41.160156 25.207031 41.070312 25.15625 C 40.984375 25.097656 40.910156 25.035156 40.847656 24.960938 C 40.785156 24.890625 40.742188 24.808594 40.707031 24.710938 C 40.667969 24.613281 40.652344 24.5 40.652344 24.375 C 40.652344 24.199219 40.6875 24.042969 40.757812 23.910156 C 40.828125 23.78125 40.933594 23.679688 41.0625 23.597656 C 41.191406 23.511719 41.339844 23.453125 41.515625 23.414062 C 41.691406 23.371094 41.886719 23.347656 42.097656 23.347656 C 42.324219 23.347656 42.523438 23.371094 42.6875 23.414062 C 42.859375 23.453125 43.003906 23.507812 43.121094 23.578125 C 43.234375 23.648438 43.324219 23.738281 43.390625 23.847656 C 43.460938 23.953125 43.519531 24.082031 43.5625 24.226562 L 43.054688 24.324219 C 43.023438 24.230469 42.984375 24.148438 42.9375 24.074219 C 42.894531 24.003906 42.832031 23.941406 42.753906 23.890625 C 42.679688 23.839844 42.585938 23.804688 42.472656 23.78125 C 42.367188 23.753906 42.234375 23.738281 42.085938 23.738281 C 41.914062 23.738281 41.765625 23.757812 41.644531 23.792969 C 41.519531 23.824219 41.421875 23.867188 41.351562 23.921875 C 41.28125 23.972656 41.226562 24.035156 41.191406 24.105469 C 41.160156 24.179688 41.148438 24.257812 41.148438 24.34375 C 41.148438 24.460938 41.175781 24.554688 41.234375 24.625 C 41.289062 24.699219 41.367188 24.761719 41.460938 24.808594 C 41.558594 24.859375 41.675781 24.902344 41.804688 24.9375 C 41.933594 24.96875 42.070312 25 42.214844 25.027344 C 42.328125 25.054688 42.445312 25.085938 42.558594 25.113281 C 42.671875 25.140625 42.785156 25.175781 42.894531 25.210938 C 43 25.246094 43.097656 25.292969 43.183594 25.351562 C 43.277344 25.402344 43.355469 25.464844 43.421875 25.546875 C 43.492188 25.617188 43.546875 25.703125 43.582031 25.804688 C 43.625 25.90625 43.648438 26.027344 43.648438 26.171875 Z M 43.648438 26.171875 "/>
<path style=" stroke:none;fill-rule:nonzero;fill:rgb(0%,0%,0%);fill-opacity:1;" d="M 44.398438 25.78125 C 44.398438 25.53125 44.414062 25.292969 44.449219 25.070312 C 44.484375 24.839844 44.542969 24.621094 44.621094 24.410156 C 44.710938 24.191406 44.8125 23.988281 44.933594 23.792969 C 45.066406 23.59375 45.214844 23.398438 45.386719 23.207031 L 45.863281 23.207031 C 45.691406 23.398438 45.542969 23.59375 45.421875 23.792969 C 45.296875 23.988281 45.195312 24.191406 45.117188 24.410156 C 45.039062 24.621094 44.980469 24.839844 44.933594 25.070312 C 44.898438 25.300781 44.882812 25.539062 44.882812 25.78125 C 44.882812 26.039062 44.898438 26.277344 44.933594 26.507812 C 44.980469 26.742188 45.039062 26.960938 45.117188 27.179688 C 45.195312 27.386719 45.296875 27.589844 45.421875 27.785156 C 45.542969 27.984375 45.691406 28.179688 45.863281 28.367188 L 45.386719 28.367188 C 45.214844 28.179688 45.066406 27.984375 44.933594 27.785156 C 44.8125 27.589844 44.710938 27.386719 44.621094 27.179688 C 44.542969 26.960938 44.484375 26.742188 44.449219 26.519531 C 44.414062 26.289062 44.398438 26.046875 44.398438 25.792969 Z M 44.398438 25.78125 "/>
<path style=" stroke:none;fill-rule:nonzero;fill:rgb(0%,0%,0%);fill-opacity:1;" d="M 48.527344 26.410156 C 48.527344 26.546875 48.5 26.671875 48.441406 26.777344 C 48.390625 26.886719 48.316406 26.976562 48.214844 27.046875 C 48.113281 27.121094 47.992188 27.179688 47.839844 27.222656 C 47.695312 27.257812 47.53125 27.277344 47.34375 27.277344 C 47.171875 27.277344 47.015625 27.257812 46.878906 27.234375 C 46.75 27.210938 46.632812 27.171875 46.523438 27.113281 C 46.421875 27.058594 46.335938 26.980469 46.265625 26.886719 C 46.203125 26.785156 46.148438 26.667969 46.117188 26.53125 L 46.546875 26.453125 C 46.589844 26.605469 46.675781 26.722656 46.804688 26.800781 C 46.933594 26.871094 47.113281 26.90625 47.34375 26.90625 C 47.445312 26.90625 47.539062 26.902344 47.625 26.886719 C 47.714844 26.871094 47.789062 26.847656 47.851562 26.8125 C 47.914062 26.777344 47.964844 26.730469 48 26.671875 C 48.035156 26.613281 48.054688 26.539062 48.054688 26.453125 C 48.054688 26.363281 48.035156 26.289062 47.992188 26.238281 C 47.945312 26.179688 47.886719 26.132812 47.816406 26.097656 C 47.746094 26.054688 47.65625 26.019531 47.546875 25.988281 C 47.445312 25.960938 47.332031 25.933594 47.203125 25.902344 C 47.085938 25.867188 46.972656 25.832031 46.859375 25.792969 C 46.742188 25.757812 46.636719 25.710938 46.546875 25.652344 C 46.453125 25.589844 46.375 25.511719 46.320312 25.414062 C 46.261719 25.324219 46.234375 25.207031 46.234375 25.070312 C 46.234375 24.804688 46.324219 24.601562 46.515625 24.464844 C 46.707031 24.320312 46.984375 24.246094 47.34375 24.246094 C 47.667969 24.246094 47.921875 24.304688 48.109375 24.421875 C 48.304688 24.535156 48.425781 24.71875 48.476562 24.960938 L 48.035156 25.015625 C 48.015625 24.945312 47.992188 24.882812 47.945312 24.832031 C 47.902344 24.78125 47.851562 24.742188 47.785156 24.710938 C 47.726562 24.675781 47.660156 24.652344 47.582031 24.636719 C 47.507812 24.621094 47.429688 24.613281 47.34375 24.613281 C 47.128906 24.613281 46.964844 24.652344 46.859375 24.722656 C 46.757812 24.789062 46.707031 24.886719 46.707031 25.015625 C 46.707031 25.097656 46.722656 25.164062 46.761719 25.21875 C 46.804688 25.273438 46.859375 25.316406 46.921875 25.351562 C 46.992188 25.378906 47.078125 25.410156 47.171875 25.4375 C 47.269531 25.464844 47.378906 25.496094 47.496094 25.523438 C 47.574219 25.539062 47.652344 25.5625 47.730469 25.589844 C 47.808594 25.609375 47.886719 25.636719 47.96875 25.664062 C 48.046875 25.695312 48.121094 25.730469 48.183594 25.773438 C 48.25 25.816406 48.304688 25.871094 48.355469 25.933594 C 48.40625 25.992188 48.445312 26.0625 48.476562 26.140625 C 48.511719 26.222656 48.527344 26.308594 48.527344 26.410156 Z M 48.527344 26.410156 "/>
<path style=" stroke:none;fill-rule:nonzero;fill:rgb(0%,0%,0%);fill-opacity:1;" d="M 49.117188 27.222656 L 49.117188 26.875 C 49.207031 26.667969 49.320312 26.484375 49.449219 26.324219 C 49.578125 26.160156 49.714844 26.011719 49.859375 25.878906 C 50.011719 25.75 50.15625 25.632812 50.300781 25.523438 C 50.445312 25.410156 50.574219 25.296875 50.691406 25.1875 C 50.804688 25.074219 50.894531 24.957031 50.960938 24.832031 C 51.027344 24.710938 51.066406 24.570312 51.066406 24.410156 C 51.066406 24.300781 51.046875 24.210938 51.011719 24.128906 C 50.984375 24.050781 50.9375 23.980469 50.871094 23.921875 C 50.8125 23.867188 50.742188 23.824219 50.65625 23.792969 C 50.578125 23.765625 50.484375 23.75 50.378906 23.75 C 50.28125 23.75 50.195312 23.765625 50.109375 23.792969 C 50.023438 23.824219 49.941406 23.867188 49.871094 23.921875 C 49.804688 23.972656 49.753906 24.039062 49.710938 24.117188 C 49.671875 24.199219 49.648438 24.289062 49.632812 24.398438 L 49.136719 24.355469 C 49.152344 24.21875 49.1875 24.089844 49.246094 23.964844 C 49.308594 23.84375 49.390625 23.738281 49.492188 23.652344 C 49.601562 23.558594 49.726562 23.488281 49.871094 23.4375 C 50.011719 23.378906 50.183594 23.347656 50.378906 23.347656 C 50.5625 23.347656 50.726562 23.375 50.871094 23.425781 C 51.023438 23.46875 51.148438 23.53125 51.25 23.621094 C 51.359375 23.707031 51.4375 23.8125 51.488281 23.945312 C 51.542969 24.074219 51.574219 24.226562 51.574219 24.398438 C 51.574219 24.527344 51.546875 24.652344 51.496094 24.765625 C 51.453125 24.882812 51.394531 24.992188 51.316406 25.101562 C 51.242188 25.203125 51.15625 25.304688 51.054688 25.40625 C 50.953125 25.5 50.847656 25.59375 50.734375 25.6875 C 50.625 25.773438 50.511719 25.863281 50.398438 25.957031 C 50.289062 26.050781 50.1875 26.144531 50.085938 26.238281 C 49.992188 26.324219 49.90625 26.414062 49.828125 26.507812 C 49.746094 26.601562 49.6875 26.703125 49.644531 26.8125 L 51.628906 26.8125 L 51.628906 27.222656 Z M 49.117188 27.222656 "/>
<path style=" stroke:none;fill-rule:nonzero;fill:rgb(0%,0%,0%);fill-opacity:1;" d="M 53.527344 25.792969 C 53.527344 26.046875 53.507812 26.289062 53.464844 26.519531 C 53.425781 26.742188 53.371094 26.960938 53.292969 27.179688 C 53.210938 27.386719 53.109375 27.589844 52.980469 27.785156 C 52.855469 27.984375 52.710938 28.179688 52.535156 28.367188 L 52.0625 28.367188 C 52.234375 28.179688 52.378906 27.984375 52.503906 27.785156 C 52.625 27.589844 52.726562 27.386719 52.804688 27.179688 C 52.882812 26.960938 52.941406 26.742188 52.980469 26.507812 C 53.023438 26.277344 53.042969 26.039062 53.042969 25.78125 C 53.042969 25.539062 53.023438 25.300781 52.980469 25.070312 C 52.941406 24.839844 52.882812 24.621094 52.804688 24.410156 C 52.726562 24.191406 52.625 23.988281 52.503906 23.792969 C 52.378906 23.59375 52.234375 23.398438 52.0625 23.207031 L 52.535156 23.207031 C 52.710938 23.398438 52.855469 23.59375 52.980469 23.792969 C 53.109375 23.988281 53.210938 24.191406 53.292969 24.410156 C 53.371094 24.621094 53.425781 24.839844 53.464844 25.070312 C 53.507812 25.292969 53.527344 25.53125 53.527344 25.78125 Z M 53.527344 25.792969 "/>
<path style="fill:none;stroke-width:0.0333333;stroke-linecap:butt;stroke-linejoin:miter;stroke:rgb(0%,0%,0%);stroke-opacity:1;stroke-miterlimit:10;" d="M 0.176441 0.398026 L 0.874253 -0.00483827 " transform="matrix(17.241379,0,0,17.307692,17.137601,17.134521)"/>
<path style="fill:none;stroke-width:0.0333333;stroke-linecap:butt;stroke-linejoin:miter;stroke:rgb(0%,0%,0%);stroke-opacity:1;stroke-miterlimit:10;" d="M 0.857488 -0.00483827 L 1.332136 0.269155 " transform="matrix(17.241379,0,0,17.307692,17.137601,17.134521)"/>
</g>
</svg>
