<?xml version="1.0" encoding="UTF-8"?>
<svg xmlns="http://www.w3.org/2000/svg" xmlns:xlink="http://www.w3.org/1999/xlink" width="77.6pt" height="124pt" viewBox="0 0 77.6 124" version="1.1">
<g id="surface1017">
<path style=" stroke:none;fill-rule:nonzero;fill:rgb(0%,0%,0%);fill-opacity:1;" d="M 45.023438 16.96875 C 45.023438 17.265625 44.980469 17.535156 44.894531 17.78125 C 44.808594 18.027344 44.679688 18.234375 44.515625 18.40625 C 44.355469 18.582031 44.160156 18.714844 43.921875 18.808594 C 43.6875 18.898438 43.425781 18.949219 43.128906 18.949219 C 42.8125 18.949219 42.535156 18.898438 42.296875 18.808594 C 42.0625 18.707031 41.867188 18.570312 41.710938 18.398438 C 41.550781 18.21875 41.433594 18.007812 41.355469 17.769531 C 41.273438 17.527344 41.234375 17.257812 41.234375 16.96875 C 41.234375 16.675781 41.273438 16.40625 41.355469 16.167969 C 41.441406 15.925781 41.5625 15.71875 41.722656 15.554688 C 41.886719 15.386719 42.085938 15.257812 42.320312 15.164062 C 42.554688 15.070312 42.828125 15.023438 43.128906 15.023438 C 43.433594 15.023438 43.703125 15.070312 43.941406 15.164062 C 44.179688 15.257812 44.378906 15.390625 44.539062 15.5625 C 44.695312 15.730469 44.8125 15.929688 44.894531 16.167969 C 44.980469 16.40625 45.023438 16.675781 45.023438 16.96875 Z M 44.496094 16.96875 C 44.496094 16.738281 44.464844 16.53125 44.40625 16.34375 C 44.347656 16.15625 44.261719 15.996094 44.148438 15.867188 C 44.03125 15.730469 43.886719 15.625 43.714844 15.554688 C 43.546875 15.484375 43.351562 15.445312 43.128906 15.445312 C 42.90625 15.445312 42.707031 15.484375 42.535156 15.554688 C 42.363281 15.625 42.214844 15.730469 42.101562 15.867188 C 41.992188 15.996094 41.910156 16.15625 41.851562 16.34375 C 41.792969 16.53125 41.765625 16.738281 41.765625 16.96875 C 41.765625 17.203125 41.792969 17.414062 41.851562 17.605469 C 41.910156 17.796875 41.996094 17.957031 42.113281 18.09375 C 42.226562 18.230469 42.367188 18.339844 42.535156 18.417969 C 42.707031 18.492188 42.90625 18.527344 43.128906 18.527344 C 43.367188 18.527344 43.574219 18.492188 43.746094 18.417969 C 43.921875 18.339844 44.0625 18.230469 44.167969 18.09375 C 44.277344 17.949219 44.355469 17.785156 44.40625 17.597656 C 44.464844 17.402344 44.496094 17.195312 44.496094 16.96875 Z M 44.496094 16.96875 "/>
<path style=" stroke:none;fill-rule:nonzero;fill:rgb(0%,0%,0%);fill-opacity:1;" d="M 44.6875 43.53125 C 44.6875 43.921875 44.601562 44.210938 44.4375 44.398438 C 44.269531 44.585938 44.027344 44.675781 43.703125 44.675781 C 43.550781 44.675781 43.410156 44.65625 43.289062 44.613281 C 43.164062 44.5625 43.0625 44.492188 42.976562 44.398438 C 42.894531 44.304688 42.835938 44.1875 42.792969 44.039062 C 42.75 43.898438 42.726562 43.726562 42.726562 43.53125 C 42.726562 42.773438 43.054688 42.394531 43.710938 42.394531 C 43.886719 42.394531 44.03125 42.421875 44.15625 42.472656 C 44.277344 42.515625 44.378906 42.589844 44.460938 42.6875 C 44.539062 42.78125 44.59375 42.902344 44.632812 43.046875 C 44.667969 43.183594 44.6875 43.34375 44.6875 43.53125 Z M 44.308594 43.53125 C 44.308594 43.367188 44.292969 43.230469 44.265625 43.121094 C 44.242188 43.007812 44.203125 42.914062 44.15625 42.851562 C 44.105469 42.785156 44.039062 42.738281 43.960938 42.710938 C 43.886719 42.683594 43.808594 42.667969 43.722656 42.667969 C 43.628906 42.667969 43.542969 42.683594 43.464844 42.710938 C 43.390625 42.738281 43.324219 42.789062 43.269531 42.859375 C 43.21875 42.925781 43.175781 43.011719 43.148438 43.121094 C 43.128906 43.230469 43.117188 43.367188 43.117188 43.53125 C 43.117188 43.703125 43.128906 43.851562 43.160156 43.964844 C 43.1875 44.070312 43.226562 44.160156 43.277344 44.222656 C 43.328125 44.289062 43.390625 44.335938 43.464844 44.363281 C 43.535156 44.394531 43.613281 44.40625 43.703125 44.40625 C 43.792969 44.40625 43.878906 44.394531 43.949219 44.363281 C 44.027344 44.335938 44.09375 44.289062 44.144531 44.222656 C 44.195312 44.160156 44.234375 44.070312 44.265625 43.964844 C 44.292969 43.851562 44.308594 43.703125 44.308594 43.53125 Z M 44.308594 43.53125 "/>
<path style=" stroke:none;fill-rule:nonzero;fill:rgb(0%,0%,0%);fill-opacity:1;" d="M 45.09375 44.632812 L 45.09375 42.949219 C 45.09375 42.90625 45.085938 42.859375 45.082031 42.816406 C 45.082031 42.769531 45.082031 42.71875 45.082031 42.675781 C 45.082031 42.628906 45.082031 42.585938 45.082031 42.546875 C 45.082031 42.503906 45.082031 42.46875 45.082031 42.441406 L 45.417969 42.441406 C 45.421875 42.46875 45.425781 42.503906 45.425781 42.546875 C 45.425781 42.585938 45.425781 42.625 45.425781 42.667969 C 45.433594 42.710938 45.4375 42.753906 45.4375 42.796875 C 45.4375 42.835938 45.4375 42.867188 45.4375 42.894531 L 45.449219 42.894531 C 45.472656 42.808594 45.496094 42.738281 45.523438 42.675781 C 45.550781 42.613281 45.585938 42.5625 45.621094 42.527344 C 45.664062 42.484375 45.710938 42.449219 45.761719 42.429688 C 45.820312 42.40625 45.886719 42.394531 45.96875 42.394531 C 45.996094 42.394531 46.023438 42.402344 46.042969 42.40625 C 46.070312 42.414062 46.097656 42.417969 46.121094 42.417969 L 46.121094 42.753906 C 46.089844 42.746094 46.058594 42.742188 46.023438 42.742188 C 45.992188 42.738281 45.960938 42.730469 45.925781 42.730469 C 45.839844 42.730469 45.765625 42.753906 45.710938 42.796875 C 45.648438 42.835938 45.601562 42.882812 45.558594 42.949219 C 45.519531 43.011719 45.492188 43.09375 45.472656 43.1875 C 45.453125 43.28125 45.449219 43.378906 45.449219 43.488281 L 45.449219 44.632812 Z M 45.09375 44.632812 "/>
<path style=" stroke:none;fill-rule:nonzero;fill:rgb(0%,0%,0%);fill-opacity:1;" d="M 46.457031 44.632812 L 46.457031 44.320312 L 47.195312 44.320312 L 47.195312 42.125 L 46.546875 42.589844 L 46.546875 42.246094 L 47.214844 41.78125 L 47.5625 41.78125 L 47.5625 44.320312 L 48.253906 44.320312 L 48.253906 44.632812 Z M 46.457031 44.632812 "/>
<path style=" stroke:none;fill-rule:nonzero;fill:rgb(0%,0%,0%);fill-opacity:1;" d="M 31.304688 58.511719 C 31.304688 58.902344 31.21875 59.191406 31.054688 59.375 C 30.886719 59.566406 30.644531 59.65625 30.316406 59.65625 C 30.167969 59.65625 30.027344 59.636719 29.90625 59.59375 C 29.78125 59.542969 29.679688 59.472656 29.59375 59.375 C 29.511719 59.285156 29.453125 59.164062 29.410156 59.019531 C 29.367188 58.875 29.34375 58.707031 29.34375 58.511719 C 29.34375 57.753906 29.671875 57.375 30.328125 57.375 C 30.5 57.375 30.648438 57.402344 30.773438 57.453125 C 30.894531 57.496094 30.996094 57.566406 31.074219 57.667969 C 31.152344 57.761719 31.210938 57.882812 31.25 58.023438 C 31.285156 58.164062 31.304688 58.324219 31.304688 58.511719 Z M 30.925781 58.511719 C 30.925781 58.347656 30.90625 58.207031 30.882812 58.101562 C 30.859375 57.988281 30.820312 57.894531 30.773438 57.832031 C 30.722656 57.765625 30.65625 57.71875 30.578125 57.691406 C 30.503906 57.664062 30.425781 57.648438 30.339844 57.648438 C 30.246094 57.648438 30.160156 57.664062 30.078125 57.691406 C 30.007812 57.71875 29.941406 57.769531 29.886719 57.839844 C 29.832031 57.90625 29.792969 57.992188 29.765625 58.101562 C 29.742188 58.207031 29.734375 58.347656 29.734375 58.511719 C 29.734375 58.683594 29.746094 58.832031 29.777344 58.945312 C 29.804688 59.050781 29.84375 59.136719 29.894531 59.203125 C 29.945312 59.269531 30.007812 59.316406 30.078125 59.34375 C 30.148438 59.375 30.230469 59.386719 30.316406 59.386719 C 30.410156 59.386719 30.492188 59.375 30.566406 59.34375 C 30.644531 59.316406 30.710938 59.269531 30.761719 59.203125 C 30.808594 59.136719 30.851562 59.050781 30.882812 58.945312 C 30.90625 58.832031 30.925781 58.683594 30.925781 58.511719 Z M 30.925781 58.511719 "/>
<path style=" stroke:none;fill-rule:nonzero;fill:rgb(0%,0%,0%);fill-opacity:1;" d="M 31.707031 59.613281 L 31.707031 57.925781 C 31.707031 57.882812 31.703125 57.839844 31.699219 57.796875 C 31.699219 57.75 31.699219 57.699219 31.699219 57.65625 C 31.699219 57.609375 31.699219 57.566406 31.699219 57.527344 C 31.699219 57.484375 31.699219 57.449219 31.699219 57.417969 L 32.035156 57.417969 C 32.039062 57.449219 32.042969 57.484375 32.042969 57.527344 C 32.042969 57.566406 32.042969 57.601562 32.042969 57.648438 C 32.050781 57.691406 32.054688 57.734375 32.054688 57.777344 C 32.054688 57.8125 32.054688 57.847656 32.054688 57.875 L 32.066406 57.875 C 32.085938 57.789062 32.113281 57.71875 32.140625 57.65625 C 32.167969 57.59375 32.199219 57.542969 32.238281 57.507812 C 32.28125 57.460938 32.328125 57.429688 32.378906 57.410156 C 32.4375 57.386719 32.503906 57.375 32.585938 57.375 C 32.613281 57.375 32.640625 57.382812 32.660156 57.386719 C 32.6875 57.394531 32.714844 57.398438 32.738281 57.398438 L 32.738281 57.734375 C 32.707031 57.726562 32.675781 57.722656 32.640625 57.722656 C 32.609375 57.71875 32.578125 57.710938 32.542969 57.710938 C 32.457031 57.710938 32.382812 57.734375 32.324219 57.777344 C 32.265625 57.8125 32.21875 57.863281 32.175781 57.925781 C 32.136719 57.992188 32.109375 58.074219 32.085938 58.164062 C 32.070312 58.261719 32.066406 58.359375 32.066406 58.46875 L 32.066406 59.613281 Z M 31.707031 59.613281 "/>
<path style=" stroke:none;fill-rule:nonzero;fill:rgb(0%,0%,0%);fill-opacity:1;" d="M 33.074219 59.613281 L 33.074219 59.300781 L 33.8125 59.300781 L 33.8125 57.105469 L 33.160156 57.570312 L 33.160156 57.226562 L 33.832031 56.761719 L 34.179688 56.761719 L 34.179688 59.300781 L 34.871094 59.300781 L 34.871094 59.613281 Z M 33.074219 59.613281 "/>
<path style=" stroke:none;fill-rule:nonzero;fill:rgb(0%,0%,0%);fill-opacity:1;" d="M 44.695312 80.960938 C 44.695312 81.347656 44.609375 81.636719 44.445312 81.824219 C 44.277344 82.015625 44.035156 82.105469 43.710938 82.105469 C 43.558594 82.105469 43.421875 82.085938 43.296875 82.039062 C 43.171875 81.992188 43.070312 81.917969 42.984375 81.824219 C 42.902344 81.734375 42.84375 81.613281 42.800781 81.46875 C 42.757812 81.324219 42.734375 81.15625 42.734375 80.960938 C 42.734375 80.203125 43.0625 79.824219 43.71875 79.824219 C 43.894531 79.824219 44.039062 79.851562 44.164062 79.898438 C 44.285156 79.945312 44.386719 80.015625 44.46875 80.117188 C 44.546875 80.210938 44.601562 80.328125 44.640625 80.472656 C 44.675781 80.609375 44.695312 80.773438 44.695312 80.960938 Z M 44.316406 80.960938 C 44.316406 80.796875 44.300781 80.65625 44.273438 80.550781 C 44.25 80.433594 44.214844 80.34375 44.164062 80.277344 C 44.113281 80.214844 44.046875 80.167969 43.96875 80.136719 C 43.894531 80.109375 43.816406 80.09375 43.730469 80.09375 C 43.636719 80.09375 43.550781 80.109375 43.472656 80.136719 C 43.398438 80.167969 43.332031 80.21875 43.277344 80.289062 C 43.226562 80.355469 43.183594 80.441406 43.15625 80.550781 C 43.136719 80.65625 43.125 80.796875 43.125 80.960938 C 43.125 81.132812 43.136719 81.277344 43.167969 81.390625 C 43.195312 81.5 43.234375 81.585938 43.289062 81.652344 C 43.335938 81.714844 43.398438 81.765625 43.472656 81.792969 C 43.542969 81.820312 43.621094 81.835938 43.710938 81.835938 C 43.800781 81.835938 43.886719 81.820312 43.957031 81.792969 C 44.035156 81.765625 44.101562 81.714844 44.152344 81.652344 C 44.203125 81.585938 44.242188 81.5 44.273438 81.390625 C 44.300781 81.277344 44.316406 81.132812 44.316406 80.960938 Z M 44.316406 80.960938 "/>
<path style=" stroke:none;fill-rule:nonzero;fill:rgb(0%,0%,0%);fill-opacity:1;" d="M 45.101562 82.0625 L 45.101562 80.375 C 45.101562 80.332031 45.09375 80.289062 45.089844 80.246094 C 45.089844 80.199219 45.089844 80.148438 45.089844 80.105469 C 45.089844 80.058594 45.089844 80.015625 45.089844 79.976562 C 45.089844 79.933594 45.089844 79.898438 45.089844 79.867188 L 45.425781 79.867188 C 45.429688 79.898438 45.4375 79.933594 45.4375 79.976562 C 45.4375 80.015625 45.4375 80.050781 45.4375 80.09375 C 45.441406 80.136719 45.445312 80.179688 45.445312 80.226562 C 45.445312 80.261719 45.445312 80.292969 45.445312 80.320312 L 45.457031 80.320312 C 45.480469 80.234375 45.503906 80.164062 45.53125 80.105469 C 45.558594 80.039062 45.59375 79.992188 45.628906 79.953125 C 45.675781 79.910156 45.71875 79.878906 45.769531 79.855469 C 45.828125 79.835938 45.894531 79.824219 45.976562 79.824219 C 46.003906 79.824219 46.03125 79.828125 46.054688 79.835938 C 46.078125 79.84375 46.105469 79.847656 46.128906 79.847656 L 46.128906 80.179688 C 46.097656 80.175781 46.066406 80.171875 46.03125 80.171875 C 46 80.164062 45.96875 80.160156 45.933594 80.160156 C 45.847656 80.160156 45.773438 80.179688 45.71875 80.226562 C 45.65625 80.261719 45.609375 80.3125 45.566406 80.375 C 45.527344 80.441406 45.5 80.523438 45.480469 80.613281 C 45.460938 80.707031 45.457031 80.808594 45.457031 80.917969 L 45.457031 82.0625 Z M 45.101562 82.0625 "/>
<path style=" stroke:none;fill-rule:nonzero;fill:rgb(0%,0%,0%);fill-opacity:1;" d="M 46.359375 82.0625 L 46.359375 81.804688 C 46.429688 81.644531 46.511719 81.507812 46.605469 81.390625 C 46.707031 81.269531 46.8125 81.160156 46.921875 81.058594 C 47.035156 80.957031 47.148438 80.867188 47.257812 80.785156 C 47.363281 80.699219 47.460938 80.621094 47.550781 80.539062 C 47.636719 80.453125 47.703125 80.363281 47.753906 80.269531 C 47.804688 80.175781 47.832031 80.070312 47.832031 79.953125 C 47.832031 79.875 47.820312 79.808594 47.796875 79.75 C 47.777344 79.683594 47.738281 79.628906 47.691406 79.585938 C 47.644531 79.542969 47.59375 79.515625 47.527344 79.5 C 47.460938 79.480469 47.390625 79.46875 47.3125 79.46875 C 47.238281 79.46875 47.171875 79.480469 47.105469 79.5 C 47.039062 79.515625 46.980469 79.542969 46.933594 79.585938 C 46.878906 79.625 46.839844 79.671875 46.8125 79.738281 C 46.78125 79.796875 46.761719 79.863281 46.746094 79.945312 L 46.378906 79.910156 C 46.394531 79.8125 46.421875 79.714844 46.464844 79.628906 C 46.507812 79.539062 46.570312 79.457031 46.652344 79.390625 C 46.730469 79.320312 46.824219 79.269531 46.933594 79.230469 C 47.039062 79.1875 47.164062 79.164062 47.3125 79.164062 C 47.453125 79.164062 47.582031 79.183594 47.691406 79.21875 C 47.804688 79.25 47.898438 79.300781 47.972656 79.371094 C 48.050781 79.433594 48.105469 79.519531 48.144531 79.617188 C 48.1875 79.714844 48.210938 79.820312 48.210938 79.945312 C 48.210938 80.046875 48.191406 80.136719 48.15625 80.226562 C 48.125 80.3125 48.082031 80.394531 48.023438 80.472656 C 47.964844 80.546875 47.898438 80.621094 47.820312 80.699219 C 47.746094 80.773438 47.667969 80.847656 47.582031 80.917969 C 47.5 80.980469 47.417969 81.050781 47.332031 81.121094 C 47.25 81.1875 47.171875 81.257812 47.09375 81.328125 C 47.019531 81.390625 46.957031 81.460938 46.898438 81.53125 C 46.839844 81.605469 46.792969 81.679688 46.757812 81.75 L 48.253906 81.75 L 48.253906 82.0625 Z M 46.359375 82.0625 "/>
<path style=" stroke:none;fill-rule:nonzero;fill:rgb(0%,0%,0%);fill-opacity:1;" d="M 45.023438 106.855469 C 45.023438 107.15625 44.980469 107.425781 44.894531 107.667969 C 44.808594 107.914062 44.679688 108.121094 44.515625 108.296875 C 44.355469 108.46875 44.160156 108.601562 43.921875 108.695312 C 43.6875 108.785156 43.425781 108.835938 43.128906 108.835938 C 42.8125 108.835938 42.535156 108.785156 42.296875 108.695312 C 42.0625 108.59375 41.867188 108.457031 41.710938 108.285156 C 41.550781 108.105469 41.433594 107.894531 41.355469 107.65625 C 41.273438 107.414062 41.234375 107.144531 41.234375 106.855469 C 41.234375 106.5625 41.273438 106.292969 41.355469 106.058594 C 41.441406 105.8125 41.5625 105.609375 41.722656 105.441406 C 41.886719 105.277344 42.085938 105.144531 42.320312 105.050781 C 42.554688 104.960938 42.828125 104.910156 43.128906 104.910156 C 43.433594 104.910156 43.703125 104.960938 43.941406 105.050781 C 44.179688 105.144531 44.378906 105.277344 44.539062 105.453125 C 44.695312 105.621094 44.8125 105.820312 44.894531 106.058594 C 44.980469 106.292969 45.023438 106.5625 45.023438 106.855469 Z M 44.496094 106.855469 C 44.496094 106.628906 44.464844 106.417969 44.40625 106.230469 C 44.347656 106.042969 44.261719 105.882812 44.148438 105.753906 C 44.03125 105.621094 43.886719 105.515625 43.714844 105.441406 C 43.546875 105.371094 43.351562 105.332031 43.128906 105.332031 C 42.90625 105.332031 42.707031 105.371094 42.535156 105.441406 C 42.363281 105.515625 42.214844 105.621094 42.101562 105.753906 C 41.992188 105.882812 41.910156 106.042969 41.851562 106.230469 C 41.792969 106.417969 41.765625 106.628906 41.765625 106.855469 C 41.765625 107.089844 41.792969 107.300781 41.851562 107.496094 C 41.910156 107.683594 41.996094 107.847656 42.113281 107.980469 C 42.226562 108.121094 42.367188 108.226562 42.535156 108.304688 C 42.707031 108.378906 42.90625 108.414062 43.128906 108.414062 C 43.367188 108.414062 43.574219 108.378906 43.746094 108.304688 C 43.921875 108.226562 44.0625 108.121094 44.167969 107.980469 C 44.277344 107.839844 44.355469 107.671875 44.40625 107.484375 C 44.464844 107.289062 44.496094 107.082031 44.496094 106.855469 Z M 44.496094 106.855469 "/>
<path style=" stroke:none;fill-rule:nonzero;fill:rgb(0%,0%,0%);fill-opacity:1;" d="M 62.347656 46.933594 C 62.347656 47.230469 62.304688 47.5 62.214844 47.742188 C 62.128906 47.988281 62.003906 48.195312 61.835938 48.371094 C 61.679688 48.542969 61.480469 48.679688 61.242188 48.769531 C 61.007812 48.863281 60.746094 48.910156 60.453125 48.910156 C 60.132812 48.910156 59.855469 48.863281 59.617188 48.769531 C 59.386719 48.671875 59.191406 48.53125 59.035156 48.359375 C 58.875 48.179688 58.753906 47.96875 58.675781 47.730469 C 58.59375 47.488281 58.558594 47.222656 58.558594 46.933594 C 58.558594 46.636719 58.59375 46.371094 58.675781 46.132812 C 58.761719 45.886719 58.882812 45.683594 59.042969 45.515625 C 59.210938 45.351562 59.40625 45.222656 59.640625 45.125 C 59.878906 45.035156 60.148438 44.984375 60.453125 44.984375 C 60.753906 44.984375 61.027344 45.035156 61.265625 45.125 C 61.5 45.222656 61.699219 45.351562 61.859375 45.527344 C 62.015625 45.695312 62.136719 45.894531 62.214844 46.132812 C 62.304688 46.371094 62.347656 46.636719 62.347656 46.933594 Z M 61.816406 46.933594 C 61.816406 46.703125 61.785156 46.492188 61.730469 46.304688 C 61.667969 46.117188 61.582031 45.957031 61.46875 45.828125 C 61.351562 45.695312 61.210938 45.589844 61.035156 45.515625 C 60.867188 45.445312 60.671875 45.40625 60.453125 45.40625 C 60.226562 45.40625 60.03125 45.445312 59.855469 45.515625 C 59.683594 45.589844 59.535156 45.695312 59.421875 45.828125 C 59.316406 45.957031 59.230469 46.117188 59.175781 46.304688 C 59.113281 46.492188 59.085938 46.703125 59.085938 46.933594 C 59.085938 47.164062 59.113281 47.375 59.175781 47.570312 C 59.230469 47.757812 59.316406 47.921875 59.433594 48.054688 C 59.546875 48.195312 59.6875 48.300781 59.855469 48.378906 C 60.03125 48.453125 60.226562 48.488281 60.453125 48.488281 C 60.691406 48.488281 60.894531 48.453125 61.070312 48.378906 C 61.242188 48.300781 61.382812 48.195312 61.492188 48.054688 C 61.597656 47.914062 61.679688 47.75 61.730469 47.558594 C 61.785156 47.363281 61.816406 47.15625 61.816406 46.933594 Z M 61.816406 46.933594 "/>
<path style=" stroke:none;fill-rule:nonzero;fill:rgb(0%,0%,0%);fill-opacity:1;" d="M 19.042969 61.910156 C 19.042969 62.210938 19 62.480469 18.914062 62.722656 C 18.828125 62.96875 18.699219 63.175781 18.535156 63.351562 C 18.375 63.523438 18.175781 63.65625 17.9375 63.75 C 17.707031 63.84375 17.441406 63.890625 17.148438 63.890625 C 16.828125 63.890625 16.554688 63.84375 16.316406 63.75 C 16.082031 63.648438 15.886719 63.511719 15.730469 63.339844 C 15.570312 63.160156 15.453125 62.949219 15.371094 62.710938 C 15.292969 62.46875 15.253906 62.199219 15.253906 61.910156 C 15.253906 61.617188 15.292969 61.351562 15.371094 61.113281 C 15.460938 60.867188 15.582031 60.664062 15.742188 60.496094 C 15.90625 60.332031 16.101562 60.199219 16.335938 60.105469 C 16.574219 60.015625 16.84375 59.964844 17.148438 59.964844 C 17.453125 59.964844 17.722656 60.015625 17.960938 60.105469 C 18.199219 60.199219 18.394531 60.332031 18.554688 60.507812 C 18.710938 60.675781 18.832031 60.875 18.914062 61.113281 C 19 61.351562 19.042969 61.617188 19.042969 61.910156 Z M 18.511719 61.910156 C 18.511719 61.683594 18.484375 61.472656 18.425781 61.285156 C 18.367188 61.097656 18.28125 60.9375 18.164062 60.808594 C 18.050781 60.675781 17.90625 60.570312 17.734375 60.496094 C 17.566406 60.425781 17.371094 60.386719 17.148438 60.386719 C 16.921875 60.386719 16.726562 60.425781 16.554688 60.496094 C 16.378906 60.570312 16.234375 60.675781 16.121094 60.808594 C 16.011719 60.9375 15.925781 61.097656 15.871094 61.285156 C 15.8125 61.472656 15.785156 61.683594 15.785156 61.910156 C 15.785156 62.144531 15.8125 62.355469 15.871094 62.550781 C 15.925781 62.738281 16.015625 62.902344 16.128906 63.035156 C 16.246094 63.175781 16.386719 63.28125 16.554688 63.359375 C 16.726562 63.433594 16.921875 63.46875 17.148438 63.46875 C 17.386719 63.46875 17.59375 63.433594 17.765625 63.359375 C 17.9375 63.28125 18.078125 63.175781 18.1875 63.035156 C 18.296875 62.894531 18.375 62.726562 18.425781 62.539062 C 18.484375 62.34375 18.511719 62.136719 18.511719 61.910156 Z M 18.511719 61.910156 "/>
<path style=" stroke:none;fill-rule:nonzero;fill:rgb(0%,0%,0%);fill-opacity:1;" d="M 62.347656 76.894531 C 62.347656 77.191406 62.304688 77.460938 62.214844 77.707031 C 62.128906 77.953125 62.003906 78.160156 61.835938 78.332031 C 61.679688 78.503906 61.480469 78.640625 61.242188 78.734375 C 61.007812 78.824219 60.746094 78.875 60.453125 78.875 C 60.132812 78.875 59.855469 78.824219 59.617188 78.734375 C 59.386719 78.632812 59.191406 78.496094 59.035156 78.320312 C 58.875 78.144531 58.753906 77.933594 58.675781 77.695312 C 58.59375 77.453125 58.558594 77.183594 58.558594 76.894531 C 58.558594 76.601562 58.59375 76.332031 58.675781 76.09375 C 58.761719 75.851562 58.882812 75.644531 59.042969 75.476562 C 59.210938 75.3125 59.40625 75.183594 59.640625 75.089844 C 59.878906 74.996094 60.148438 74.949219 60.453125 74.949219 C 60.753906 74.949219 61.027344 74.996094 61.265625 75.089844 C 61.5 75.183594 61.699219 75.316406 61.859375 75.488281 C 62.015625 75.65625 62.136719 75.855469 62.214844 76.09375 C 62.304688 76.332031 62.347656 76.601562 62.347656 76.894531 Z M 61.816406 76.894531 C 61.816406 76.664062 61.785156 76.457031 61.730469 76.265625 C 61.667969 76.082031 61.582031 75.921875 61.46875 75.792969 C 61.351562 75.65625 61.210938 75.550781 61.035156 75.476562 C 60.867188 75.40625 60.671875 75.371094 60.453125 75.371094 C 60.226562 75.371094 60.03125 75.40625 59.855469 75.476562 C 59.683594 75.550781 59.535156 75.65625 59.421875 75.792969 C 59.316406 75.921875 59.230469 76.082031 59.175781 76.265625 C 59.113281 76.457031 59.085938 76.664062 59.085938 76.894531 C 59.085938 77.128906 59.113281 77.335938 59.175781 77.53125 C 59.230469 77.722656 59.316406 77.882812 59.433594 78.019531 C 59.546875 78.15625 59.6875 78.265625 59.855469 78.34375 C 60.03125 78.417969 60.226562 78.453125 60.453125 78.453125 C 60.691406 78.453125 60.894531 78.417969 61.070312 78.34375 C 61.242188 78.265625 61.382812 78.15625 61.492188 78.019531 C 61.597656 77.875 61.679688 77.710938 61.730469 77.523438 C 61.785156 77.328125 61.816406 77.117188 61.816406 76.894531 Z M 61.816406 76.894531 "/>
<path style="fill:none;stroke-width:0.0333333;stroke-linecap:butt;stroke-linejoin:miter;stroke:rgb(0%,0%,0%);stroke-opacity:1;stroke-miterlimit:10;" d="M 1.393922 0.183694 L 0.995211 0.874436 " transform="matrix(17.321429,0,0,17.299107,17.148246,16.986326)"/>
<path style="fill:none;stroke-width:0.0333333;stroke-linecap:butt;stroke-linejoin:miter;stroke:rgb(0%,0%,0%);stroke-opacity:1;stroke-miterlimit:10;" d="M 1.538252 0.267016 L 1.187575 0.874436 " transform="matrix(17.321429,0,0,17.299107,17.148246,16.986326)"/>
<path style="fill:none;stroke-width:0.0333333;stroke-linecap:butt;stroke-linejoin:miter;stroke:rgb(0%,0%,0%);stroke-opacity:1;stroke-miterlimit:10;" d="M 0.995211 0.857726 L 1.504876 1.740178 " transform="matrix(17.321429,0,0,17.299107,17.148246,16.986326)"/>
<path style="fill:none;stroke-width:0.0333333;stroke-linecap:butt;stroke-linejoin:miter;stroke:rgb(0%,0%,0%);stroke-opacity:1;stroke-miterlimit:10;" d="M 1.504876 1.723694 L 0.995211 2.606371 " transform="matrix(17.321429,0,0,17.299107,17.148246,16.986326)"/>
<path style="fill:none;stroke-width:0.0333333;stroke-linecap:butt;stroke-linejoin:miter;stroke:rgb(0%,0%,0%);stroke-opacity:1;stroke-miterlimit:10;" d="M 0.995211 2.589661 L 1.504876 3.472565 " transform="matrix(17.321429,0,0,17.299107,17.148246,16.986326)"/>
<path style="fill:none;stroke-width:0.0333333;stroke-linecap:butt;stroke-linejoin:miter;stroke:rgb(0%,0%,0%);stroke-opacity:1;stroke-miterlimit:10;" d="M 1.504876 3.455629 L 0.995211 4.338307 " transform="matrix(17.321429,0,0,17.299107,17.148246,16.986326)"/>
<path style="fill:none;stroke-width:0.0333333;stroke-linecap:butt;stroke-linejoin:miter;stroke:rgb(0%,0%,0%);stroke-opacity:1;stroke-miterlimit:10;" d="M 0.995211 4.321823 L 1.393922 5.012565 " transform="matrix(17.321429,0,0,17.299107,17.148246,16.986326)"/>
<path style=" stroke:none;fill-rule:nonzero;fill:rgb(0%,0%,0%);fill-opacity:1;" d="M 43.128906 46.949219 L 57.808594 48.96875 L 57.808594 44.929688 "/>
<path style=" stroke:none;fill-rule:nonzero;fill:rgb(0%,0%,0%);fill-opacity:1;" d="M 34.46875 61.929688 L 19.792969 59.910156 L 19.792969 63.945312 "/>
<path style=" stroke:none;fill-rule:nonzero;fill:rgb(0%,0%,0%);fill-opacity:1;" d="M 43.128906 76.910156 L 57.808594 78.929688 L 57.808594 74.894531 "/>
</g>
</svg>
