<?xml version="1.0" encoding="UTF-8"?>
<svg xmlns="http://www.w3.org/2000/svg" xmlns:xlink="http://www.w3.org/1999/xlink" width="104.8pt" height="85.6pt" viewBox="0 0 104.8 85.6" version="1.1">
<g id="surface1332">
<path style=" stroke:none;fill-rule:nonzero;fill:rgb(0%,0%,0%);fill-opacity:1;" d="M 75.144531 9.363281 C 74.925781 9.363281 74.734375 9.398438 74.570312 9.46875 C 74.402344 9.542969 74.261719 9.648438 74.148438 9.78125 C 74.039062 9.914062 73.957031 10.070312 73.898438 10.257812 C 73.839844 10.445312 73.8125 10.652344 73.8125 10.882812 C 73.8125 11.117188 73.839844 11.324219 73.898438 11.519531 C 73.964844 11.707031 74.054688 11.871094 74.167969 12.003906 C 74.28125 12.144531 74.425781 12.25 74.59375 12.328125 C 74.765625 12.402344 74.953125 12.4375 75.164062 12.4375 C 75.316406 12.4375 75.449219 12.421875 75.566406 12.382812 C 75.6875 12.339844 75.800781 12.28125 75.902344 12.210938 C 76.003906 12.140625 76.089844 12.054688 76.164062 11.960938 C 76.242188 11.871094 76.308594 11.761719 76.367188 11.636719 L 76.789062 11.855469 C 76.726562 12 76.640625 12.132812 76.542969 12.253906 C 76.4375 12.378906 76.320312 12.484375 76.183594 12.578125 C 76.046875 12.664062 75.890625 12.734375 75.71875 12.78125 C 75.542969 12.832031 75.351562 12.855469 75.144531 12.855469 C 74.832031 12.855469 74.5625 12.808594 74.332031 12.71875 C 74.097656 12.617188 73.902344 12.480469 73.746094 12.308594 C 73.59375 12.128906 73.480469 11.917969 73.402344 11.679688 C 73.320312 11.4375 73.28125 11.171875 73.28125 10.882812 C 73.28125 10.589844 73.320312 10.324219 73.402344 10.085938 C 73.488281 9.84375 73.609375 9.636719 73.769531 9.46875 C 73.925781 9.304688 74.121094 9.175781 74.355469 9.082031 C 74.582031 8.992188 74.847656 8.941406 75.144531 8.941406 C 75.546875 8.941406 75.882812 9.023438 76.152344 9.179688 C 76.425781 9.339844 76.628906 9.574219 76.757812 9.890625 L 76.269531 10.054688 C 76.234375 9.960938 76.183594 9.875 76.117188 9.792969 C 76.058594 9.707031 75.984375 9.636719 75.890625 9.578125 C 75.796875 9.511719 75.6875 9.464844 75.566406 9.425781 C 75.441406 9.382812 75.300781 9.363281 75.144531 9.363281 Z M 75.144531 9.363281 "/>
<path style=" stroke:none;fill-rule:nonzero;fill:rgb(0%,0%,0%);fill-opacity:1;" d="M 78.023438 10.386719 C 78.082031 10.289062 78.136719 10.203125 78.199219 10.140625 C 78.261719 10.070312 78.328125 10.007812 78.402344 9.964844 C 78.480469 9.917969 78.566406 9.878906 78.652344 9.859375 C 78.746094 9.835938 78.851562 9.828125 78.964844 9.828125 C 79.152344 9.828125 79.304688 9.851562 79.421875 9.902344 C 79.542969 9.953125 79.636719 10.027344 79.703125 10.117188 C 79.773438 10.210938 79.824219 10.324219 79.855469 10.453125 C 79.882812 10.574219 79.898438 10.710938 79.898438 10.863281 L 79.898438 12.804688 L 79.398438 12.804688 L 79.398438 10.949219 C 79.398438 10.828125 79.390625 10.71875 79.378906 10.625 C 79.363281 10.53125 79.335938 10.457031 79.292969 10.398438 C 79.246094 10.332031 79.183594 10.289062 79.105469 10.257812 C 79.027344 10.222656 78.925781 10.203125 78.804688 10.203125 C 78.6875 10.203125 78.582031 10.226562 78.488281 10.269531 C 78.394531 10.3125 78.316406 10.375 78.25 10.453125 C 78.1875 10.523438 78.136719 10.613281 78.101562 10.722656 C 78.0625 10.828125 78.046875 10.949219 78.046875 11.078125 L 78.046875 12.804688 L 77.558594 12.804688 L 77.558594 8.800781 L 78.046875 8.800781 L 78.046875 9.835938 C 78.046875 9.902344 78.039062 9.964844 78.035156 10.019531 C 78.035156 10.078125 78.03125 10.132812 78.023438 10.183594 C 78.023438 10.234375 78.023438 10.277344 78.023438 10.3125 C 78.023438 10.347656 78.023438 10.375 78.023438 10.386719 Z M 78.023438 10.386719 "/>
<path style=" stroke:none;fill-rule:nonzero;fill:rgb(0%,0%,0%);fill-opacity:1;" d="M 80.746094 9.265625 L 80.746094 8.800781 L 81.234375 8.800781 L 81.234375 9.265625 Z M 80.746094 12.804688 L 80.746094 9.878906 L 81.234375 9.878906 L 81.234375 12.804688 Z M 80.746094 12.804688 "/>
<path style=" stroke:none;fill-rule:nonzero;fill:rgb(0%,0%,0%);fill-opacity:1;" d="M 82.050781 12.804688 L 82.050781 10.558594 C 82.050781 10.503906 82.046875 10.441406 82.039062 10.375 C 82.039062 10.3125 82.039062 10.253906 82.039062 10.191406 C 82.039062 10.136719 82.035156 10.082031 82.03125 10.03125 C 82.03125 9.976562 82.03125 9.921875 82.03125 9.878906 L 82.496094 9.878906 C 82.496094 9.921875 82.496094 9.976562 82.496094 10.03125 C 82.5 10.082031 82.507812 10.136719 82.507812 10.191406 C 82.507812 10.246094 82.507812 10.296875 82.507812 10.355469 C 82.511719 10.40625 82.515625 10.449219 82.515625 10.484375 L 82.527344 10.484375 C 82.554688 10.371094 82.585938 10.273438 82.625 10.191406 C 82.667969 10.105469 82.714844 10.039062 82.765625 9.988281 C 82.824219 9.941406 82.886719 9.898438 82.960938 9.871094 C 83.03125 9.84375 83.117188 9.828125 83.222656 9.828125 C 83.257812 9.828125 83.292969 9.832031 83.328125 9.835938 C 83.363281 9.84375 83.394531 9.851562 83.414062 9.859375 L 83.414062 10.300781 C 83.386719 10.296875 83.351562 10.289062 83.308594 10.289062 C 83.265625 10.285156 83.210938 10.28125 83.15625 10.28125 C 83.046875 10.28125 82.953125 10.304688 82.875 10.355469 C 82.792969 10.40625 82.726562 10.472656 82.679688 10.558594 C 82.628906 10.644531 82.59375 10.753906 82.570312 10.882812 C 82.550781 11.007812 82.539062 11.140625 82.539062 11.28125 L 82.539062 12.804688 Z M 82.050781 12.804688 "/>
<path style=" stroke:none;fill-rule:nonzero;fill:rgb(0%,0%,0%);fill-opacity:1;" d="M 84.710938 12.855469 C 84.410156 12.855469 84.191406 12.78125 84.039062 12.628906 C 83.890625 12.472656 83.820312 12.257812 83.820312 11.984375 C 83.820312 11.796875 83.855469 11.644531 83.929688 11.519531 C 84 11.390625 84.09375 11.292969 84.210938 11.230469 C 84.332031 11.160156 84.472656 11.105469 84.625 11.078125 C 84.773438 11.050781 84.929688 11.035156 85.089844 11.035156 L 85.738281 11.023438 L 85.738281 10.863281 C 85.738281 10.742188 85.722656 10.640625 85.695312 10.558594 C 85.671875 10.472656 85.636719 10.40625 85.585938 10.355469 C 85.535156 10.296875 85.46875 10.257812 85.390625 10.234375 C 85.3125 10.214844 85.21875 10.203125 85.109375 10.203125 C 85.015625 10.203125 84.929688 10.210938 84.851562 10.226562 C 84.777344 10.234375 84.710938 10.253906 84.65625 10.289062 C 84.605469 10.328125 84.5625 10.375 84.527344 10.441406 C 84.488281 10.5 84.464844 10.574219 84.460938 10.667969 L 83.953125 10.613281 C 83.964844 10.5 83.996094 10.394531 84.050781 10.300781 C 84.097656 10.210938 84.171875 10.125 84.265625 10.054688 C 84.359375 9.984375 84.472656 9.929688 84.613281 9.890625 C 84.753906 9.847656 84.925781 9.828125 85.121094 9.828125 C 85.488281 9.828125 85.765625 9.914062 85.957031 10.085938 C 86.140625 10.253906 86.238281 10.492188 86.238281 10.808594 L 86.238281 12.070312 C 86.238281 12.214844 86.253906 12.324219 86.289062 12.394531 C 86.328125 12.464844 86.398438 12.5 86.507812 12.5 C 86.535156 12.5 86.5625 12.5 86.582031 12.5 C 86.609375 12.496094 86.640625 12.488281 86.671875 12.480469 L 86.671875 12.78125 C 86.605469 12.804688 86.542969 12.816406 86.484375 12.824219 C 86.425781 12.832031 86.363281 12.835938 86.289062 12.835938 C 86.195312 12.835938 86.117188 12.824219 86.054688 12.804688 C 85.988281 12.777344 85.933594 12.734375 85.890625 12.683594 C 85.851562 12.636719 85.824219 12.574219 85.804688 12.5 C 85.78125 12.429688 85.765625 12.34375 85.761719 12.242188 L 85.738281 12.242188 C 85.6875 12.335938 85.628906 12.421875 85.566406 12.5 C 85.503906 12.574219 85.433594 12.640625 85.347656 12.695312 C 85.265625 12.746094 85.175781 12.789062 85.066406 12.8125 C 84.964844 12.839844 84.84375 12.855469 84.710938 12.855469 Z M 84.816406 12.492188 C 84.96875 12.492188 85.101562 12.464844 85.21875 12.402344 C 85.339844 12.347656 85.4375 12.273438 85.511719 12.1875 C 85.589844 12.101562 85.648438 12.011719 85.683594 11.90625 C 85.71875 11.800781 85.738281 11.699219 85.738281 11.605469 L 85.738281 11.359375 L 85.207031 11.367188 C 85.089844 11.375 84.980469 11.386719 84.871094 11.402344 C 84.765625 11.417969 84.667969 11.445312 84.578125 11.488281 C 84.5 11.53125 84.433594 11.59375 84.386719 11.679688 C 84.339844 11.761719 84.320312 11.863281 84.320312 11.996094 C 84.320312 12.152344 84.363281 12.273438 84.449219 12.359375 C 84.535156 12.449219 84.660156 12.492188 84.816406 12.492188 Z M 84.816406 12.492188 "/>
<path style=" stroke:none;fill-rule:nonzero;fill:rgb(0%,0%,0%);fill-opacity:1;" d="M 87.171875 12.804688 L 87.171875 8.800781 L 87.660156 8.800781 L 87.660156 12.804688 Z M 87.171875 12.804688 "/>
<path style=" stroke:none;fill-rule:nonzero;fill:rgb(0%,0%,0%);fill-opacity:1;" d="M 62.097656 56.675781 C 62.097656 56.96875 62.054688 57.238281 61.96875 57.484375 C 61.882812 57.726562 61.753906 57.9375 61.589844 58.109375 C 61.429688 58.28125 61.234375 58.414062 60.996094 58.507812 C 60.761719 58.597656 60.5 58.648438 60.203125 58.648438 C 59.882812 58.648438 59.609375 58.597656 59.371094 58.507812 C 59.136719 58.40625 58.941406 58.269531 58.785156 58.097656 C 58.625 57.917969 58.507812 57.710938 58.429688 57.472656 C 58.347656 57.230469 58.308594 56.960938 58.308594 56.675781 C 58.308594 56.378906 58.347656 56.113281 58.429688 55.875 C 58.515625 55.632812 58.636719 55.429688 58.796875 55.261719 C 58.960938 55.097656 59.160156 54.96875 59.390625 54.871094 C 59.628906 54.78125 59.902344 54.730469 60.203125 54.730469 C 60.507812 54.730469 60.777344 54.78125 61.015625 54.871094 C 61.253906 54.96875 61.453125 55.097656 61.613281 55.273438 C 61.769531 55.4375 61.886719 55.636719 61.96875 55.875 C 62.054688 56.113281 62.097656 56.378906 62.097656 56.675781 Z M 61.570312 56.675781 C 61.570312 56.445312 61.539062 56.238281 61.480469 56.046875 C 61.421875 55.863281 61.335938 55.703125 61.222656 55.574219 C 61.105469 55.4375 60.960938 55.332031 60.789062 55.261719 C 60.621094 55.191406 60.425781 55.152344 60.203125 55.152344 C 59.980469 55.152344 59.78125 55.191406 59.609375 55.261719 C 59.433594 55.332031 59.289062 55.4375 59.175781 55.574219 C 59.066406 55.703125 58.984375 55.863281 58.925781 56.046875 C 58.867188 56.238281 58.839844 56.445312 58.839844 56.675781 C 58.839844 56.90625 58.867188 57.117188 58.925781 57.308594 C 58.984375 57.5 59.070312 57.660156 59.1875 57.796875 C 59.300781 57.933594 59.441406 58.042969 59.609375 58.121094 C 59.78125 58.191406 59.980469 58.226562 60.203125 58.226562 C 60.441406 58.226562 60.648438 58.191406 60.820312 58.121094 C 60.996094 58.042969 61.136719 57.933594 61.242188 57.796875 C 61.351562 57.652344 61.429688 57.488281 61.480469 57.300781 C 61.539062 57.105469 61.570312 56.898438 61.570312 56.675781 Z M 61.570312 56.675781 "/>
<path style=" stroke:none;fill-rule:nonzero;fill:rgb(0%,0%,0%);fill-opacity:1;" d="M 89.554688 42.597656 C 89.554688 42.894531 89.511719 43.164062 89.421875 43.40625 C 89.335938 43.652344 89.210938 43.859375 89.042969 44.03125 C 88.882812 44.203125 88.6875 44.339844 88.449219 44.429688 C 88.214844 44.523438 87.953125 44.570312 87.660156 44.570312 C 87.339844 44.570312 87.0625 44.523438 86.824219 44.429688 C 86.589844 44.332031 86.398438 44.195312 86.238281 44.023438 C 86.078125 43.84375 85.960938 43.632812 85.882812 43.394531 C 85.800781 43.152344 85.761719 42.886719 85.761719 42.597656 C 85.761719 42.304688 85.800781 42.035156 85.882812 41.800781 C 85.96875 41.558594 86.089844 41.351562 86.25 41.183594 C 86.414062 41.019531 86.613281 40.890625 86.847656 40.796875 C 87.085938 40.703125 87.355469 40.65625 87.660156 40.65625 C 87.960938 40.65625 88.230469 40.703125 88.46875 40.796875 C 88.707031 40.890625 88.90625 41.023438 89.066406 41.195312 C 89.222656 41.363281 89.34375 41.5625 89.421875 41.800781 C 89.511719 42.035156 89.554688 42.304688 89.554688 42.597656 Z M 89.023438 42.597656 C 89.023438 42.367188 88.992188 42.160156 88.9375 41.972656 C 88.875 41.785156 88.789062 41.628906 88.675781 41.496094 C 88.558594 41.363281 88.417969 41.257812 88.242188 41.183594 C 88.074219 41.113281 87.878906 41.078125 87.660156 41.078125 C 87.433594 41.078125 87.234375 41.113281 87.0625 41.183594 C 86.890625 41.257812 86.742188 41.363281 86.628906 41.496094 C 86.519531 41.628906 86.4375 41.785156 86.378906 41.972656 C 86.320312 42.160156 86.292969 42.367188 86.292969 42.597656 C 86.292969 42.828125 86.320312 43.039062 86.378906 43.234375 C 86.4375 43.421875 86.523438 43.585938 86.640625 43.71875 C 86.753906 43.855469 86.894531 43.964844 87.0625 44.042969 C 87.234375 44.117188 87.433594 44.152344 87.660156 44.152344 C 87.898438 44.152344 88.101562 44.117188 88.277344 44.042969 C 88.449219 43.964844 88.589844 43.855469 88.699219 43.71875 C 88.804688 43.578125 88.882812 43.414062 88.9375 43.222656 C 88.992188 43.027344 89.023438 42.820312 89.023438 42.597656 Z M 89.023438 42.597656 "/>
<path style=" stroke:none;fill-rule:nonzero;fill:rgb(0%,0%,0%);fill-opacity:1;" d="M 44.585938 18.8125 L 44.585938 17.054688 L 42.527344 17.054688 L 42.527344 18.8125 L 42.007812 18.8125 L 42.007812 15.015625 L 42.527344 15.015625 L 42.527344 16.621094 L 44.585938 16.621094 L 44.585938 15.015625 L 45.105469 15.015625 L 45.105469 18.8125 Z M 44.585938 18.8125 "/>
<path style=" stroke:none;fill-rule:nonzero;fill:rgb(0%,0%,0%);fill-opacity:1;" d="M 44.804688 70.585938 L 44.804688 68.828125 L 42.75 68.828125 L 42.75 70.585938 L 42.230469 70.585938 L 42.230469 66.789062 L 42.75 66.789062 L 42.75 68.394531 L 44.804688 68.394531 L 44.804688 66.789062 L 45.328125 66.789062 L 45.328125 70.585938 Z M 44.804688 70.585938 "/>
<path style="fill:none;stroke-width:0.0333333;stroke-linecap:butt;stroke-linejoin:miter;stroke:rgb(0%,0%,0%);stroke-opacity:1;stroke-miterlimit:10;" d="M 1.536649 1.000042 L 0.572713 0.691309 " transform="matrix(17.328042,0,0,17.258065,17.001793,16.913093)"/>
<path style="fill:none;stroke-width:0.0333333;stroke-linecap:butt;stroke-linejoin:miter;stroke:rgb(0%,0%,0%);stroke-opacity:1;stroke-miterlimit:10;" d="M 0.591423 0.685198 L -0.00709181 1.516331 " transform="matrix(17.328042,0,0,17.258065,17.001793,16.913093)"/>
<path style="fill:none;stroke-width:0.0333333;stroke-linecap:butt;stroke-linejoin:miter;stroke:rgb(0%,0%,0%);stroke-opacity:1;stroke-miterlimit:10;" d="M 0.655896 0.880759 L 0.198951 1.515426 " transform="matrix(17.328042,0,0,17.258065,17.001793,16.913093)"/>
<path style="fill:none;stroke-width:0.0333333;stroke-linecap:butt;stroke-linejoin:miter;stroke:rgb(0%,0%,0%);stroke-opacity:1;stroke-miterlimit:10;" d="M -0.00709181 1.496639 L 0.598412 2.322793 " transform="matrix(17.328042,0,0,17.258065,17.001793,16.913093)"/>
<path style="fill:none;stroke-width:0.0333333;stroke-linecap:butt;stroke-linejoin:miter;stroke:rgb(0%,0%,0%);stroke-opacity:1;stroke-miterlimit:10;" d="M 0.579701 2.316908 L 1.540932 2.000027 " transform="matrix(17.328042,0,0,17.258065,17.001793,16.913093)"/>
<path style="fill:none;stroke-width:0.0333333;stroke-linecap:butt;stroke-linejoin:miter;stroke:rgb(0%,0%,0%);stroke-opacity:1;stroke-miterlimit:10;" d="M 1.536649 1.000042 L 2.49788 0.683161 " transform="matrix(17.328042,0,0,17.258065,17.001793,16.913093)"/>
<path style="fill:none;stroke-width:0.0333333;stroke-linecap:butt;stroke-linejoin:miter;stroke:rgb(0%,0%,0%);stroke-opacity:1;stroke-miterlimit:10;" d="M 1.536649 1.000042 L 1.540932 2.000027 " transform="matrix(17.328042,0,0,17.258065,17.001793,16.913093)"/>
<path style="fill:none;stroke-width:0.0333333;stroke-linecap:butt;stroke-linejoin:miter;stroke:rgb(0%,0%,0%);stroke-opacity:1;stroke-miterlimit:10;" d="M 1.540932 2.000027 L 2.310097 2.246289 " transform="matrix(17.328042,0,0,17.258065,17.001793,16.913093)"/>
<path style="fill:none;stroke-width:0.0333333;stroke-linecap:butt;stroke-linejoin:miter;stroke:rgb(0%,0%,0%);stroke-opacity:1;stroke-miterlimit:10;" d="M 2.619837 2.129269 L 3.084672 1.483511 " transform="matrix(17.328042,0,0,17.258065,17.001793,16.913093)"/>
<path style="fill:none;stroke-width:0.0333333;stroke-linecap:butt;stroke-linejoin:miter;stroke:rgb(0%,0%,0%);stroke-opacity:1;stroke-miterlimit:10;" d="M 2.479394 0.677276 L 3.084672 1.503203 " transform="matrix(17.328042,0,0,17.258065,17.001793,16.913093)"/>
<path style="fill:none;stroke-width:0.0333333;stroke-linecap:butt;stroke-linejoin:miter;stroke:rgb(0%,0%,0%);stroke-opacity:1;stroke-miterlimit:10;" d="M 3.017494 1.576991 L 3.924622 1.57337 " transform="matrix(17.328042,0,0,17.258065,17.001793,16.913093)"/>
<path style="fill:none;stroke-width:0.0333333;stroke-linecap:butt;stroke-linejoin:miter;stroke:rgb(0%,0%,0%);stroke-opacity:1;stroke-miterlimit:10;" d="M 3.016818 1.410402 L 3.923946 1.406554 " transform="matrix(17.328042,0,0,17.258065,17.001793,16.913093)"/>
<path style=" stroke:none;fill-rule:nonzero;fill:rgb(0%,0%,0%);fill-opacity:1;" d="M 43.628906 34.171875 L 45.589844 19.558594 L 41.546875 19.578125 "/>
<path style=" stroke:none;fill-rule:nonzero;fill:rgb(0%,0%,0%);fill-opacity:1;" d="M 43.703125 51.429688 L 41.746094 66.042969 L 45.785156 66.023438 "/>
</g>
</svg>
