<?xml version="1.0" encoding="UTF-8"?>
<svg xmlns="http://www.w3.org/2000/svg" xmlns:xlink="http://www.w3.org/1999/xlink" width="139.2pt" height="68.8pt" viewBox="0 0 139.2 68.8" version="1.1">
<g id="surface277">
<path style=" stroke:none;fill-rule:nonzero;fill:rgb(0%,0%,47.058824%);fill-opacity:1;" d="M 76.566406 15.921875 L 76.566406 17.09375 L 78.515625 17.09375 L 78.515625 17.707031 L 76.566406 17.707031 L 76.566406 19.09375 L 75.765625 19.09375 L 75.765625 15.308594 L 78.582031 15.308594 L 78.582031 15.921875 Z M 76.566406 15.921875 "/>
<path style=" stroke:none;fill-rule:nonzero;fill:rgb(0%,0%,0%);fill-opacity:1;" d="M 93.113281 44.890625 L 91.066406 41.667969 C 91.074219 41.753906 91.078125 41.839844 91.078125 41.925781 C 91.082031 41.996094 91.089844 42.074219 91.089844 42.160156 C 91.09375 42.242188 91.101562 42.3125 91.101562 42.375 L 91.101562 44.890625 L 90.632812 44.890625 L 90.632812 41.109375 L 91.242188 41.109375 L 93.296875 44.355469 C 93.296875 44.355469 93.292969 44.265625 93.289062 44.085938 C 93.28125 44.015625 93.273438 43.933594 93.265625 43.847656 C 93.265625 43.757812 93.265625 43.671875 93.265625 43.589844 L 93.265625 41.109375 L 93.730469 41.109375 L 93.730469 44.890625 Z M 93.113281 44.890625 "/>
<path style=" stroke:none;fill-rule:nonzero;fill:rgb(0%,0%,0%);fill-opacity:1;" d="M 122.308594 41.46875 C 122.09375 41.46875 121.898438 41.503906 121.734375 41.574219 C 121.566406 41.648438 121.425781 41.753906 121.3125 41.886719 C 121.203125 42.015625 121.121094 42.175781 121.0625 42.359375 C 121.003906 42.546875 120.976562 42.753906 120.976562 42.984375 C 120.976562 43.214844 121.003906 43.425781 121.0625 43.617188 C 121.128906 43.804688 121.21875 43.96875 121.332031 44.101562 C 121.449219 44.238281 121.589844 44.347656 121.757812 44.425781 C 121.929688 44.496094 122.117188 44.53125 122.332031 44.53125 C 122.480469 44.53125 122.613281 44.515625 122.730469 44.476562 C 122.851562 44.433594 122.964844 44.378906 123.066406 44.304688 C 123.167969 44.234375 123.253906 44.152344 123.328125 44.058594 C 123.40625 43.96875 123.472656 43.859375 123.53125 43.738281 L 123.953125 43.953125 C 123.890625 44.097656 123.804688 44.226562 123.707031 44.347656 C 123.601562 44.472656 123.484375 44.582031 123.347656 44.671875 C 123.210938 44.757812 123.054688 44.828125 122.882812 44.875 C 122.710938 44.925781 122.515625 44.949219 122.308594 44.949219 C 121.996094 44.949219 121.726562 44.902344 121.496094 44.8125 C 121.261719 44.710938 121.066406 44.574219 120.910156 44.402344 C 120.757812 44.226562 120.644531 44.015625 120.566406 43.78125 C 120.484375 43.539062 120.445312 43.269531 120.445312 42.984375 C 120.445312 42.691406 120.484375 42.425781 120.566406 42.1875 C 120.652344 41.945312 120.773438 41.742188 120.933594 41.574219 C 121.089844 41.410156 121.285156 41.28125 121.519531 41.1875 C 121.746094 41.097656 122.011719 41.050781 122.308594 41.050781 C 122.710938 41.050781 123.046875 41.128906 123.316406 41.285156 C 123.589844 41.445312 123.792969 41.679688 123.921875 41.996094 L 123.433594 42.15625 C 123.398438 42.066406 123.347656 41.980469 123.285156 41.898438 C 123.222656 41.8125 123.148438 41.742188 123.054688 41.683594 C 122.960938 41.617188 122.851562 41.570312 122.730469 41.53125 C 122.605469 41.488281 122.464844 41.46875 122.308594 41.46875 Z M 122.308594 41.46875 "/>
<path style=" stroke:none;fill-rule:nonzero;fill:rgb(0%,0%,47.058824%);fill-opacity:1;" d="M 16.519531 18.597656 C 16.671875 18.597656 16.800781 18.574219 16.910156 18.53125 C 17.019531 18.488281 17.113281 18.4375 17.191406 18.371094 C 17.269531 18.300781 17.335938 18.222656 17.386719 18.136719 C 17.445312 18.050781 17.492188 17.964844 17.527344 17.878906 L 18.222656 18.136719 C 18.160156 18.273438 18.085938 18.410156 17.992188 18.542969 C 17.90625 18.671875 17.792969 18.789062 17.660156 18.886719 C 17.527344 18.988281 17.367188 19.070312 17.183594 19.136719 C 16.992188 19.191406 16.773438 19.222656 16.519531 19.222656 C 16.1875 19.222656 15.898438 19.171875 15.65625 19.082031 C 15.417969 18.980469 15.214844 18.84375 15.058594 18.671875 C 14.898438 18.496094 14.78125 18.285156 14.703125 18.050781 C 14.628906 17.808594 14.59375 17.542969 14.59375 17.253906 C 14.59375 16.960938 14.628906 16.695312 14.703125 16.457031 C 14.78125 16.214844 14.894531 16.011719 15.046875 15.84375 C 15.203125 15.679688 15.40625 15.550781 15.644531 15.457031 C 15.882812 15.367188 16.164062 15.320312 16.488281 15.320312 C 16.730469 15.320312 16.949219 15.347656 17.136719 15.40625 C 17.324219 15.457031 17.488281 15.527344 17.625 15.621094 C 17.761719 15.714844 17.875 15.824219 17.960938 15.953125 C 18.046875 16.082031 18.117188 16.222656 18.167969 16.371094 L 17.464844 16.566406 C 17.441406 16.488281 17.402344 16.414062 17.34375 16.339844 C 17.292969 16.261719 17.226562 16.195312 17.148438 16.136719 C 17.066406 16.078125 16.976562 16.035156 16.867188 15.996094 C 16.757812 15.960938 16.632812 15.941406 16.5 15.941406 C 16.304688 15.941406 16.136719 15.972656 16 16.039062 C 15.863281 16.101562 15.746094 16.195312 15.65625 16.308594 C 15.566406 16.421875 15.503906 16.558594 15.460938 16.714844 C 15.417969 16.875 15.394531 17.054688 15.394531 17.253906 C 15.394531 17.457031 15.417969 17.636719 15.460938 17.800781 C 15.503906 17.960938 15.566406 18.101562 15.65625 18.222656 C 15.746094 18.335938 15.863281 18.429688 16 18.5 C 16.144531 18.566406 16.316406 18.597656 16.519531 18.597656 Z M 16.519531 18.597656 "/>
<path style=" stroke:none;fill-rule:nonzero;fill:rgb(0%,0%,47.058824%);fill-opacity:1;" d="M 18.925781 19.167969 L 18.925781 15.179688 L 19.683594 15.179688 L 19.683594 19.167969 Z M 18.925781 19.167969 "/>
<path style="fill:none;stroke-width:0.06;stroke-linecap:butt;stroke-linejoin:miter;stroke:rgb(0%,0%,47.058824%);stroke-opacity:1;stroke-miterlimit:10;" d="M 3.304195 0.0923883 L 2.583156 0.508676 " transform="matrix(17.330677,0,0,17.2,17.138415,17.199984)"/>
<path style="fill:none;stroke-width:0.06;stroke-linecap:butt;stroke-linejoin:miter;stroke:rgb(0%,0%,47.058824%);stroke-opacity:1;stroke-miterlimit:10;" d="M 2.598032 0.500046 L 2.598032 1.500001 " transform="matrix(17.330677,0,0,17.2,17.138415,17.199984)"/>
<path style="fill:none;stroke-width:0.06;stroke-linecap:butt;stroke-linejoin:miter;stroke:rgb(0%,0%,47.058824%);stroke-opacity:1;stroke-miterlimit:10;" d="M 2.431465 0.59634 L 2.431465 1.403707 " transform="matrix(17.330677,0,0,17.2,17.138415,17.199984)"/>
<path style="fill:none;stroke-width:0.0333333;stroke-linecap:butt;stroke-linejoin:miter;stroke:rgb(0%,0%,0%);stroke-opacity:1;stroke-miterlimit:10;" d="M 2.589692 1.495232 L 3.472565 2.004861 " transform="matrix(17.330677,0,0,17.2,17.138415,17.199984)"/>
<path style="fill:none;stroke-width:0.0333333;stroke-linecap:butt;stroke-linejoin:miter;stroke:rgb(0%,0%,0%);stroke-opacity:1;stroke-miterlimit:10;" d="M 3.455885 2.004861 L 4.164302 1.59584 " transform="matrix(17.330677,0,0,17.2,17.138415,17.199984)"/>
<path style="fill:none;stroke-width:0.0333333;stroke-linecap:butt;stroke-linejoin:miter;stroke:rgb(0%,0%,0%);stroke-opacity:1;stroke-miterlimit:10;" d="M 4.496084 1.59584 L 5.204501 2.004861 " transform="matrix(17.330677,0,0,17.2,17.138415,17.199984)"/>
<path style="fill:none;stroke-width:0.0333333;stroke-linecap:butt;stroke-linejoin:miter;stroke:rgb(0%,0%,0%);stroke-opacity:1;stroke-miterlimit:10;" d="M 5.187821 2.004861 L 5.88587 1.601745 " transform="matrix(17.330677,0,0,17.2,17.138415,17.199984)"/>
<path style="fill:none;stroke-width:0.06;stroke-linecap:butt;stroke-linejoin:miter;stroke:rgb(0%,0%,47.058824%);stroke-opacity:1;stroke-miterlimit:10;" d="M 2.606371 1.495232 L 1.717188 2.008495 " transform="matrix(17.330677,0,0,17.2,17.138415,17.199984)"/>
<path style="fill:none;stroke-width:0.06;stroke-linecap:butt;stroke-linejoin:miter;stroke:rgb(0%,0%,47.058824%);stroke-opacity:1;stroke-miterlimit:10;" d="M 1.747165 2.008495 L 0.850994 1.491371 " transform="matrix(17.330677,0,0,17.2,17.138415,17.199984)"/>
<path style="fill:none;stroke-width:0.06;stroke-linecap:butt;stroke-linejoin:miter;stroke:rgb(0%,0%,47.058824%);stroke-opacity:1;stroke-miterlimit:10;" d="M 1.747165 1.816362 L 1.017561 1.395077 " transform="matrix(17.330677,0,0,17.2,17.138415,17.199984)"/>
<path style="fill:none;stroke-width:0.06;stroke-linecap:butt;stroke-linejoin:miter;stroke:rgb(0%,0%,47.058824%);stroke-opacity:1;stroke-miterlimit:10;" d="M 0.866096 1.517261 L 0.866096 0.482559 " transform="matrix(17.330677,0,0,17.2,17.138415,17.199984)"/>
<path style="fill:none;stroke-width:0.06;stroke-linecap:butt;stroke-linejoin:miter;stroke:rgb(0%,0%,47.058824%);stroke-opacity:1;stroke-miterlimit:10;" d="M 0.881197 0.508676 L 0.21245 0.122594 " transform="matrix(17.330677,0,0,17.2,17.138415,17.199984)"/>
<path style="fill:none;stroke-width:0.06;stroke-linecap:butt;stroke-linejoin:miter;stroke:rgb(0%,0%,47.058824%);stroke-opacity:1;stroke-miterlimit:10;" d="M 0.866096 0.500046 L 1.747165 -0.00867459 " transform="matrix(17.330677,0,0,17.2,17.138415,17.199984)"/>
<path style="fill:none;stroke-width:0.06;stroke-linecap:butt;stroke-linejoin:miter;stroke:rgb(0%,0%,47.058824%);stroke-opacity:1;stroke-miterlimit:10;" d="M 1.032663 0.59634 L 1.747165 0.183686 " transform="matrix(17.330677,0,0,17.2,17.138415,17.199984)"/>
<path style="fill:none;stroke-width:0.06;stroke-linecap:butt;stroke-linejoin:miter;stroke:rgb(0%,0%,47.058824%);stroke-opacity:1;stroke-miterlimit:10;" d="M 2.613133 0.508676 L 1.717188 -0.00867459 " transform="matrix(17.330677,0,0,17.2,17.138415,17.199984)"/>
</g>
</svg>
