<?xml version="1.0" encoding="UTF-8"?>
<svg xmlns="http://www.w3.org/2000/svg" xmlns:xlink="http://www.w3.org/1999/xlink" width="169.6pt" height="86.4pt" viewBox="0 0 169.6 86.4" version="1.1">
<g id="surface1812">
<path style=" stroke:none;fill-rule:nonzero;fill:rgb(0%,0%,47.058824%);fill-opacity:1;" d="M 152.632812 35.953125 C 152.785156 35.953125 152.914062 35.929688 153.023438 35.886719 C 153.132812 35.84375 153.226562 35.789062 153.304688 35.722656 C 153.386719 35.652344 153.449219 35.574219 153.5 35.484375 C 153.558594 35.398438 153.605469 35.3125 153.644531 35.226562 L 154.339844 35.484375 C 154.277344 35.625 154.203125 35.761719 154.109375 35.898438 C 154.023438 36.027344 153.910156 36.144531 153.773438 36.242188 C 153.644531 36.347656 153.484375 36.425781 153.296875 36.492188 C 153.105469 36.550781 152.886719 36.578125 152.632812 36.578125 C 152.300781 36.578125 152.007812 36.53125 151.765625 36.4375 C 151.523438 36.339844 151.324219 36.199219 151.167969 36.027344 C 151.007812 35.847656 150.886719 35.636719 150.808594 35.398438 C 150.734375 35.15625 150.699219 34.886719 150.699219 34.597656 C 150.699219 34.304688 150.734375 34.035156 150.808594 33.796875 C 150.886719 33.554688 151.003906 33.351562 151.15625 33.183594 C 151.3125 33.015625 151.515625 32.886719 151.753906 32.792969 C 151.992188 32.699219 152.273438 32.652344 152.601562 32.652344 C 152.84375 32.652344 153.0625 32.683594 153.253906 32.738281 C 153.4375 32.789062 153.601562 32.863281 153.742188 32.953125 C 153.875 33.050781 153.992188 33.160156 154.078125 33.289062 C 154.164062 33.421875 154.230469 33.5625 154.285156 33.710938 L 153.578125 33.90625 C 153.554688 33.828125 153.515625 33.753906 153.457031 33.679688 C 153.40625 33.601562 153.339844 33.535156 153.261719 33.472656 C 153.179688 33.417969 153.089844 33.371094 152.980469 33.332031 C 152.871094 33.296875 152.746094 33.28125 152.609375 33.28125 C 152.414062 33.28125 152.246094 33.3125 152.113281 33.375 C 151.972656 33.441406 151.855469 33.535156 151.765625 33.648438 C 151.675781 33.761719 151.613281 33.902344 151.570312 34.058594 C 151.523438 34.21875 151.503906 34.398438 151.503906 34.597656 C 151.503906 34.800781 151.523438 34.984375 151.570312 35.152344 C 151.613281 35.308594 151.675781 35.449219 151.765625 35.574219 C 151.855469 35.6875 151.972656 35.785156 152.113281 35.855469 C 152.253906 35.917969 152.429688 35.953125 152.632812 35.953125 Z M 152.632812 35.953125 "/>
<path style=" stroke:none;fill-rule:nonzero;fill:rgb(0%,0%,0%);fill-opacity:1;" d="M 64.125 34.597656 C 64.125 34.898438 64.082031 35.167969 63.996094 35.410156 C 63.910156 35.65625 63.78125 35.863281 63.617188 36.039062 C 63.457031 36.210938 63.257812 36.347656 63.019531 36.4375 C 62.785156 36.53125 62.523438 36.578125 62.226562 36.578125 C 61.90625 36.578125 61.628906 36.53125 61.390625 36.4375 C 61.15625 36.339844 60.960938 36.199219 60.804688 36.027344 C 60.644531 35.847656 60.523438 35.636719 60.445312 35.398438 C 60.363281 35.15625 60.324219 34.886719 60.324219 34.597656 C 60.324219 34.304688 60.363281 34.035156 60.445312 33.796875 C 60.53125 33.554688 60.652344 33.351562 60.8125 33.183594 C 60.980469 33.015625 61.179688 32.886719 61.410156 32.792969 C 61.652344 32.699219 61.921875 32.652344 62.226562 32.652344 C 62.53125 32.652344 62.800781 32.699219 63.039062 32.792969 C 63.28125 32.886719 63.476562 33.019531 63.636719 33.191406 C 63.796875 33.359375 63.914062 33.5625 63.996094 33.796875 C 64.082031 34.035156 64.125 34.304688 64.125 34.597656 Z M 63.59375 34.597656 C 63.59375 34.371094 63.566406 34.160156 63.507812 33.972656 C 63.449219 33.785156 63.359375 33.625 63.246094 33.496094 C 63.128906 33.359375 62.988281 33.253906 62.8125 33.183594 C 62.644531 33.113281 62.449219 33.074219 62.226562 33.074219 C 62 33.074219 61.800781 33.113281 61.628906 33.183594 C 61.453125 33.253906 61.308594 33.359375 61.195312 33.496094 C 61.085938 33.625 61 33.785156 60.945312 33.972656 C 60.886719 34.160156 60.859375 34.371094 60.859375 34.597656 C 60.859375 34.832031 60.886719 35.042969 60.945312 35.238281 C 61 35.425781 61.089844 35.589844 61.207031 35.722656 C 61.320312 35.863281 61.460938 35.96875 61.628906 36.046875 C 61.800781 36.121094 62 36.15625 62.226562 36.15625 C 62.464844 36.15625 62.671875 36.121094 62.84375 36.046875 C 63.019531 35.96875 63.160156 35.863281 63.269531 35.722656 C 63.378906 35.582031 63.457031 35.414062 63.507812 35.226562 C 63.566406 35.03125 63.59375 34.824219 63.59375 34.597656 Z M 63.59375 34.597656 "/>
<path style=" stroke:none;fill-rule:nonzero;fill:rgb(0%,0%,0%);fill-opacity:1;" d="M 31.292969 15.824219 L 31.292969 17.242188 L 33.421875 17.242188 L 33.421875 17.664062 L 31.292969 17.664062 L 31.292969 19.210938 L 30.769531 19.210938 L 30.769531 15.402344 L 33.484375 15.402344 L 33.484375 15.824219 Z M 31.292969 15.824219 "/>
<path style="fill:none;stroke-width:0.06;stroke-linecap:butt;stroke-linejoin:miter;stroke:rgb(0%,0%,47.058824%);stroke-opacity:1;stroke-miterlimit:10;" d="M 7.615471 1.103256 L 6.913216 1.508603 " transform="matrix(17.377049,0,0,17.307692,17.079643,17.307531)"/>
<path style="fill:none;stroke-width:0.06;stroke-linecap:butt;stroke-linejoin:miter;stroke:rgb(0%,0%,47.058824%);stroke-opacity:1;stroke-miterlimit:10;" d="M 6.943114 1.508603 L 6.047311 0.991311 " transform="matrix(17.377049,0,0,17.307692,17.079643,17.307531)"/>
<path style="fill:none;stroke-width:0.06;stroke-linecap:butt;stroke-linejoin:miter;stroke:rgb(0%,0%,47.058824%);stroke-opacity:1;stroke-miterlimit:10;" d="M 6.077208 0.991311 L 5.181181 1.508603 " transform="matrix(17.377049,0,0,17.307692,17.079643,17.307531)"/>
<path style="fill:none;stroke-width:0.06;stroke-linecap:butt;stroke-linejoin:miter;stroke:rgb(0%,0%,47.058824%);stroke-opacity:1;stroke-miterlimit:10;" d="M 5.211079 1.508603 L 4.315051 0.991311 " transform="matrix(17.377049,0,0,17.307692,17.079643,17.307531)"/>
<path style="fill:none;stroke-width:0.06;stroke-linecap:butt;stroke-linejoin:miter;stroke:rgb(0%,0%,47.058824%);stroke-opacity:1;stroke-miterlimit:10;" d="M 4.345174 0.991311 L 3.45589 1.504766 " transform="matrix(17.377049,0,0,17.307692,17.079643,17.307531)"/>
<path style="fill:none;stroke-width:0.0333333;stroke-linecap:butt;stroke-linejoin:miter;stroke:rgb(0%,0%,0%);stroke-opacity:1;stroke-miterlimit:10;" d="M 3.472525 1.504766 L 2.78061 1.105287 " transform="matrix(17.377049,0,0,17.307692,17.079643,17.307531)"/>
<path style="fill:none;stroke-width:0.0333333;stroke-linecap:butt;stroke-linejoin:miter;stroke:rgb(0%,0%,0%);stroke-opacity:1;stroke-miterlimit:10;" d="M 2.41577 1.105287 L 1.72363 1.504766 " transform="matrix(17.377049,0,0,17.307692,17.079643,17.307531)"/>
<path style="fill:none;stroke-width:0.0333333;stroke-linecap:butt;stroke-linejoin:miter;stroke:rgb(0%,0%,0%);stroke-opacity:1;stroke-miterlimit:10;" d="M 1.731948 2.509784 L 1.731948 1.500027 " transform="matrix(17.377049,0,0,17.307692,17.079643,17.307531)"/>
<path style="fill:none;stroke-width:0.0333333;stroke-linecap:butt;stroke-linejoin:miter;stroke:rgb(0%,0%,0%);stroke-opacity:1;stroke-miterlimit:10;" d="M 1.565375 2.413412 L 1.565375 1.596173 " transform="matrix(17.377049,0,0,17.307692,17.079643,17.307531)"/>
<path style="fill:none;stroke-width:0.0333333;stroke-linecap:butt;stroke-linejoin:miter;stroke:rgb(0%,0%,0%);stroke-opacity:1;stroke-miterlimit:10;" d="M 0.857725 0.995148 L 1.74049 1.504766 " transform="matrix(17.377049,0,0,17.307692,17.079643,17.307531)"/>
<path style="fill:none;stroke-width:0.0333333;stroke-linecap:butt;stroke-linejoin:miter;stroke:rgb(0%,0%,0%);stroke-opacity:1;stroke-miterlimit:10;" d="M 0.866043 1.000113 L -0.00840472 1.504766 " transform="matrix(17.377049,0,0,17.307692,17.079643,17.307531)"/>
<path style="fill:none;stroke-width:0.0333333;stroke-linecap:butt;stroke-linejoin:miter;stroke:rgb(0%,0%,0%);stroke-opacity:1;stroke-miterlimit:10;" d="M 0.866043 1.192405 L 0.158392 1.601138 " transform="matrix(17.377049,0,0,17.307692,17.079643,17.307531)"/>
<path style="fill:none;stroke-width:0.0333333;stroke-linecap:butt;stroke-linejoin:miter;stroke:rgb(0%,0%,0%);stroke-opacity:1;stroke-miterlimit:10;" d="M -0.0000873606 1.490322 L -0.0000873606 2.509784 " transform="matrix(17.377049,0,0,17.307692,17.079643,17.307531)"/>
<path style="fill:none;stroke-width:0.0333333;stroke-linecap:butt;stroke-linejoin:miter;stroke:rgb(0%,0%,0%);stroke-opacity:1;stroke-miterlimit:10;" d="M -0.00840472 2.495113 L 0.87436 3.004957 " transform="matrix(17.377049,0,0,17.307692,17.079643,17.307531)"/>
<path style="fill:none;stroke-width:0.0333333;stroke-linecap:butt;stroke-linejoin:miter;stroke:rgb(0%,0%,0%);stroke-opacity:1;stroke-miterlimit:10;" d="M 0.158392 2.398968 L 0.87436 2.81244 " transform="matrix(17.377049,0,0,17.307692,17.079643,17.307531)"/>
<path style="fill:none;stroke-width:0.0333333;stroke-linecap:butt;stroke-linejoin:miter;stroke:rgb(0%,0%,0%);stroke-opacity:1;stroke-miterlimit:10;" d="M 0.857725 3.004957 L 1.74049 2.495113 " transform="matrix(17.377049,0,0,17.307692,17.079643,17.307531)"/>
<path style="fill:none;stroke-width:0.0333333;stroke-linecap:butt;stroke-linejoin:miter;stroke:rgb(0%,0%,0%);stroke-opacity:1;stroke-miterlimit:10;" d="M 0.866043 1.009593 L 0.866043 0.153308 " transform="matrix(17.377049,0,0,17.307692,17.079643,17.307531)"/>
</g>
</svg>
