<?xml version="1.0" encoding="UTF-8"?>
<svg xmlns="http://www.w3.org/2000/svg" xmlns:xlink="http://www.w3.org/1999/xlink" width="109.6pt" height="43.2pt" viewBox="0 0 109.6 43.2" version="1.1">
<g id="surface217">
<path style=" stroke:none;fill-rule:nonzero;fill:rgb(0%,0%,0%);fill-opacity:1;" d="M 17.316406 24.246094 C 17.101562 24.246094 16.910156 24.285156 16.742188 24.355469 C 16.578125 24.429688 16.4375 24.535156 16.320312 24.667969 C 16.214844 24.796875 16.128906 24.957031 16.074219 25.144531 C 16.015625 25.335938 15.988281 25.542969 15.988281 25.773438 C 15.988281 26.003906 16.015625 26.214844 16.074219 26.410156 C 16.136719 26.601562 16.226562 26.761719 16.34375 26.898438 C 16.457031 27.035156 16.597656 27.144531 16.765625 27.222656 C 16.9375 27.292969 17.128906 27.328125 17.339844 27.328125 C 17.488281 27.328125 17.621094 27.3125 17.738281 27.277344 C 17.859375 27.234375 17.972656 27.175781 18.074219 27.101562 C 18.171875 27.03125 18.261719 26.949219 18.332031 26.855469 C 18.410156 26.761719 18.480469 26.652344 18.539062 26.53125 L 18.960938 26.746094 C 18.894531 26.890625 18.8125 27.023438 18.710938 27.144531 C 18.609375 27.269531 18.488281 27.378906 18.355469 27.46875 C 18.21875 27.558594 18.0625 27.628906 17.890625 27.675781 C 17.71875 27.726562 17.523438 27.75 17.316406 27.75 C 17.007812 27.75 16.734375 27.703125 16.507812 27.609375 C 16.273438 27.511719 16.078125 27.375 15.921875 27.199219 C 15.769531 27.023438 15.65625 26.8125 15.578125 26.574219 C 15.496094 26.328125 15.457031 26.0625 15.457031 25.773438 C 15.457031 25.476562 15.496094 25.210938 15.578125 24.972656 C 15.664062 24.726562 15.785156 24.523438 15.945312 24.355469 C 16.101562 24.191406 16.296875 24.058594 16.527344 23.964844 C 16.757812 23.875 17.019531 23.824219 17.316406 23.824219 C 17.71875 23.824219 18.054688 23.90625 18.324219 24.0625 C 18.59375 24.222656 18.796875 24.460938 18.929688 24.777344 L 18.441406 24.9375 C 18.402344 24.847656 18.355469 24.761719 18.289062 24.679688 C 18.230469 24.59375 18.15625 24.523438 18.0625 24.464844 C 17.96875 24.398438 17.859375 24.351562 17.738281 24.3125 C 17.613281 24.269531 17.472656 24.246094 17.316406 24.246094 Z M 17.316406 24.246094 "/>
<path style=" stroke:none;fill-rule:nonzero;fill:rgb(0%,0%,0%);fill-opacity:1;" d="M 92.21875 15.59375 C 92.003906 15.59375 91.8125 15.632812 91.648438 15.703125 C 91.480469 15.773438 91.339844 15.878906 91.226562 16.015625 C 91.117188 16.144531 91.035156 16.304688 90.976562 16.492188 C 90.917969 16.679688 90.890625 16.886719 90.890625 17.117188 C 90.890625 17.351562 90.917969 17.5625 90.976562 17.757812 C 91.042969 17.945312 91.128906 18.109375 91.246094 18.242188 C 91.359375 18.382812 91.5 18.488281 91.667969 18.566406 C 91.839844 18.640625 92.03125 18.675781 92.242188 18.675781 C 92.394531 18.675781 92.523438 18.660156 92.640625 18.621094 C 92.761719 18.578125 92.875 18.523438 92.976562 18.449219 C 93.078125 18.378906 93.164062 18.292969 93.234375 18.199219 C 93.316406 18.109375 93.382812 18 93.441406 17.875 L 93.863281 18.09375 C 93.796875 18.238281 93.714844 18.371094 93.613281 18.492188 C 93.511719 18.617188 93.394531 18.726562 93.257812 18.816406 C 93.121094 18.902344 92.964844 18.972656 92.792969 19.023438 C 92.621094 19.070312 92.429688 19.097656 92.21875 19.097656 C 91.910156 19.097656 91.640625 19.050781 91.410156 18.957031 C 91.175781 18.855469 90.980469 18.71875 90.824219 18.546875 C 90.675781 18.367188 90.558594 18.15625 90.480469 17.917969 C 90.398438 17.675781 90.359375 17.40625 90.359375 17.117188 C 90.359375 16.824219 90.398438 16.554688 90.480469 16.316406 C 90.566406 16.074219 90.6875 15.867188 90.847656 15.703125 C 91.003906 15.535156 91.199219 15.40625 91.429688 15.3125 C 91.660156 15.21875 91.921875 15.171875 92.21875 15.171875 C 92.621094 15.171875 92.957031 15.253906 93.226562 15.410156 C 93.5 15.570312 93.699219 15.808594 93.832031 16.125 L 93.34375 16.285156 C 93.304688 16.195312 93.257812 16.105469 93.191406 16.027344 C 93.132812 15.9375 93.058594 15.867188 92.964844 15.808594 C 92.871094 15.746094 92.761719 15.695312 92.640625 15.65625 C 92.515625 15.613281 92.375 15.59375 92.21875 15.59375 Z M 92.21875 15.59375 "/>
<path style="fill:none;stroke-width:0.0333333;stroke-linecap:butt;stroke-linejoin:miter;stroke:rgb(0%,0%,0%);stroke-opacity:1;stroke-miterlimit:10;" d="M 0.176405 0.398018 L 0.874418 -0.00484611 " transform="matrix(17.29798,0,0,17.307692,17.210271,17.134656)"/>
<path style=" stroke:none;fill-rule:nonzero;fill:rgb(0%,0%,0%);fill-opacity:1;" d="M 21.761719 17.695312 C 21.761719 17.820312 21.769531 17.933594 21.785156 18.042969 C 21.804688 18.144531 21.839844 18.234375 21.882812 18.3125 C 21.925781 18.386719 21.980469 18.445312 22.042969 18.488281 C 22.113281 18.53125 22.207031 18.550781 22.3125 18.550781 C 22.445312 18.550781 22.550781 18.519531 22.640625 18.453125 C 22.726562 18.382812 22.777344 18.269531 22.800781 18.117188 L 23.167969 18.152344 C 23.152344 18.238281 23.125 18.324219 23.082031 18.410156 C 23.042969 18.492188 22.988281 18.5625 22.917969 18.628906 C 22.855469 18.691406 22.769531 18.746094 22.671875 18.789062 C 22.570312 18.824219 22.453125 18.84375 22.324219 18.84375 C 22.152344 18.84375 22.003906 18.8125 21.882812 18.757812 C 21.765625 18.699219 21.667969 18.621094 21.589844 18.519531 C 21.515625 18.410156 21.464844 18.289062 21.429688 18.152344 C 21.390625 18.015625 21.375 17.863281 21.375 17.695312 C 21.375 17.554688 21.382812 17.425781 21.40625 17.320312 C 21.433594 17.203125 21.472656 17.101562 21.515625 17.015625 C 21.558594 16.929688 21.605469 16.859375 21.664062 16.800781 C 21.730469 16.742188 21.796875 16.699219 21.859375 16.667969 C 21.929688 16.632812 22.003906 16.609375 22.078125 16.59375 C 22.15625 16.570312 22.234375 16.5625 22.3125 16.5625 C 22.4375 16.5625 22.542969 16.582031 22.640625 16.617188 C 22.738281 16.652344 22.824219 16.699219 22.886719 16.757812 C 22.957031 16.816406 23.015625 16.882812 23.058594 16.960938 C 23.105469 17.042969 23.136719 17.128906 23.15625 17.222656 L 22.777344 17.253906 C 22.757812 17.132812 22.707031 17.035156 22.628906 16.960938 C 22.554688 16.890625 22.445312 16.851562 22.304688 16.851562 C 22.199219 16.851562 22.113281 16.871094 22.042969 16.90625 C 21.980469 16.9375 21.925781 16.988281 21.882812 17.058594 C 21.839844 17.132812 21.804688 17.222656 21.785156 17.328125 C 21.769531 17.433594 21.761719 17.554688 21.761719 17.695312 Z M 21.761719 17.695312 "/>
<path style=" stroke:none;fill-rule:nonzero;fill:rgb(0%,0%,0%);fill-opacity:1;" d="M 23.855469 16.984375 C 23.898438 16.90625 23.941406 16.839844 23.984375 16.789062 C 24.035156 16.738281 24.085938 16.699219 24.148438 16.667969 C 24.203125 16.632812 24.265625 16.609375 24.332031 16.59375 C 24.402344 16.570312 24.476562 16.5625 24.558594 16.5625 C 24.699219 16.5625 24.816406 16.582031 24.902344 16.625 C 24.996094 16.664062 25.070312 16.71875 25.121094 16.789062 C 25.167969 16.851562 25.207031 16.933594 25.226562 17.027344 C 25.25 17.121094 25.261719 17.226562 25.261719 17.339844 L 25.261719 18.800781 L 24.894531 18.800781 L 24.894531 17.40625 C 24.894531 17.3125 24.882812 17.230469 24.871094 17.167969 C 24.863281 17.097656 24.839844 17.039062 24.804688 16.992188 C 24.777344 16.945312 24.730469 16.90625 24.664062 16.886719 C 24.605469 16.859375 24.53125 16.84375 24.4375 16.84375 C 24.351562 16.84375 24.269531 16.863281 24.199219 16.898438 C 24.136719 16.925781 24.078125 16.96875 24.027344 17.027344 C 23.976562 17.085938 23.9375 17.152344 23.910156 17.230469 C 23.878906 17.3125 23.867188 17.402344 23.867188 17.503906 L 23.867188 18.800781 L 23.507812 18.800781 L 23.507812 15.792969 L 23.867188 15.792969 L 23.867188 16.570312 C 23.867188 16.617188 23.867188 16.664062 23.867188 16.710938 C 23.867188 16.757812 23.859375 16.796875 23.855469 16.832031 C 23.855469 16.871094 23.855469 16.902344 23.855469 16.929688 C 23.855469 16.949219 23.855469 16.96875 23.855469 16.984375 Z M 23.855469 16.984375 "/>
<path style=" stroke:none;fill-rule:nonzero;fill:rgb(0%,0%,0%);fill-opacity:1;" d="M 27.136719 18.800781 L 27.136719 17.40625 C 27.136719 17.304688 27.125 17.21875 27.101562 17.144531 C 27.085938 17.074219 27.0625 17.015625 27.027344 16.972656 C 26.996094 16.921875 26.953125 16.890625 26.898438 16.875 C 26.839844 16.851562 26.769531 16.84375 26.679688 16.84375 C 26.59375 16.84375 26.515625 16.863281 26.445312 16.898438 C 26.378906 16.925781 26.320312 16.96875 26.269531 17.027344 C 26.21875 17.085938 26.179688 17.15625 26.152344 17.242188 C 26.121094 17.324219 26.109375 17.414062 26.109375 17.523438 L 26.109375 18.800781 L 25.75 18.800781 L 25.75 17.070312 C 25.75 17.027344 25.746094 16.980469 25.742188 16.929688 C 25.742188 16.878906 25.742188 16.832031 25.742188 16.789062 C 25.742188 16.738281 25.742188 16.699219 25.742188 16.667969 C 25.742188 16.632812 25.742188 16.613281 25.742188 16.605469 L 26.074219 16.605469 C 26.082031 16.613281 26.085938 16.632812 26.085938 16.660156 C 26.085938 16.6875 26.085938 16.722656 26.085938 16.765625 C 26.09375 16.804688 26.097656 16.84375 26.097656 16.886719 C 26.097656 16.921875 26.097656 16.957031 26.097656 16.984375 C 26.132812 16.917969 26.171875 16.863281 26.214844 16.808594 C 26.261719 16.761719 26.304688 16.71875 26.355469 16.679688 C 26.414062 16.644531 26.480469 16.617188 26.550781 16.59375 C 26.621094 16.570312 26.707031 16.5625 26.800781 16.5625 C 26.921875 16.5625 27.027344 16.582031 27.113281 16.617188 C 27.207031 16.644531 27.277344 16.691406 27.332031 16.757812 C 27.386719 16.816406 27.429688 16.894531 27.460938 16.992188 C 27.488281 17.089844 27.503906 17.203125 27.503906 17.339844 L 27.503906 18.800781 Z M 27.136719 18.800781 "/>
<path style="fill:none;stroke-width:0.0333333;stroke-linecap:butt;stroke-linejoin:miter;stroke:rgb(0%,0%,0%);stroke-opacity:1;stroke-miterlimit:10;" d="M 0.857707 -0.00484611 L 1.740442 0.504772 " transform="matrix(17.29798,0,0,17.307692,17.210271,17.134656)"/>
<path style=" stroke:none;fill-rule:nonzero;fill:rgb(0%,0%,0%);fill-opacity:1;" d="M 38.863281 18.621094 C 38.863281 18.742188 38.867188 18.855469 38.886719 18.964844 C 38.90625 19.066406 38.9375 19.15625 38.984375 19.234375 C 39.027344 19.308594 39.078125 19.367188 39.144531 19.410156 C 39.214844 19.453125 39.308594 19.472656 39.414062 19.472656 C 39.542969 19.472656 39.652344 19.441406 39.738281 19.375 C 39.824219 19.304688 39.878906 19.191406 39.902344 19.042969 L 40.269531 19.074219 C 40.253906 19.160156 40.226562 19.246094 40.183594 19.332031 C 40.144531 19.414062 40.089844 19.484375 40.019531 19.550781 C 39.957031 19.613281 39.871094 19.667969 39.773438 19.710938 C 39.667969 19.746094 39.554688 19.765625 39.425781 19.765625 C 39.253906 19.765625 39.105469 19.734375 38.984375 19.679688 C 38.867188 19.621094 38.769531 19.542969 38.691406 19.441406 C 38.617188 19.332031 38.5625 19.210938 38.527344 19.074219 C 38.492188 18.9375 38.472656 18.785156 38.472656 18.621094 C 38.472656 18.476562 38.484375 18.347656 38.507812 18.242188 C 38.535156 18.128906 38.570312 18.023438 38.613281 17.9375 C 38.660156 17.851562 38.707031 17.78125 38.765625 17.722656 C 38.832031 17.664062 38.894531 17.621094 38.960938 17.589844 C 39.03125 17.554688 39.105469 17.53125 39.175781 17.515625 C 39.253906 17.496094 39.335938 17.484375 39.414062 17.484375 C 39.535156 17.484375 39.644531 17.503906 39.738281 17.539062 C 39.839844 17.574219 39.921875 17.621094 39.988281 17.679688 C 40.058594 17.738281 40.117188 17.804688 40.160156 17.882812 C 40.203125 17.964844 40.238281 18.050781 40.257812 18.144531 L 39.878906 18.175781 C 39.859375 18.054688 39.808594 17.957031 39.730469 17.882812 C 39.65625 17.8125 39.546875 17.777344 39.402344 17.777344 C 39.300781 17.777344 39.214844 17.792969 39.144531 17.828125 C 39.078125 17.859375 39.027344 17.910156 38.984375 17.980469 C 38.9375 18.054688 38.90625 18.144531 38.886719 18.25 C 38.867188 18.355469 38.863281 18.476562 38.863281 18.621094 Z M 38.863281 18.621094 "/>
<path style=" stroke:none;fill-rule:nonzero;fill:rgb(0%,0%,0%);fill-opacity:1;" d="M 40.957031 17.90625 C 41 17.828125 41.042969 17.761719 41.085938 17.710938 C 41.132812 17.660156 41.1875 17.621094 41.246094 17.589844 C 41.304688 17.554688 41.367188 17.53125 41.429688 17.515625 C 41.5 17.496094 41.578125 17.484375 41.660156 17.484375 C 41.800781 17.484375 41.917969 17.503906 42.003906 17.546875 C 42.097656 17.585938 42.167969 17.640625 42.21875 17.710938 C 42.269531 17.777344 42.308594 17.855469 42.328125 17.949219 C 42.351562 18.042969 42.359375 18.148438 42.359375 18.261719 L 42.359375 19.722656 L 41.992188 19.722656 L 41.992188 18.328125 C 41.992188 18.234375 41.984375 18.152344 41.972656 18.089844 C 41.964844 18.019531 41.941406 17.960938 41.90625 17.917969 C 41.878906 17.867188 41.832031 17.828125 41.765625 17.808594 C 41.707031 17.78125 41.632812 17.765625 41.539062 17.765625 C 41.453125 17.765625 41.371094 17.785156 41.300781 17.820312 C 41.238281 17.847656 41.175781 17.890625 41.128906 17.949219 C 41.078125 18.007812 41.035156 18.074219 41.007812 18.152344 C 40.980469 18.234375 40.964844 18.324219 40.964844 18.425781 L 40.964844 19.722656 L 40.609375 19.722656 L 40.609375 16.714844 L 40.964844 16.714844 L 40.964844 17.496094 C 40.964844 17.539062 40.964844 17.585938 40.964844 17.636719 C 40.964844 17.679688 40.960938 17.71875 40.957031 17.753906 C 40.957031 17.792969 40.957031 17.824219 40.957031 17.851562 C 40.957031 17.871094 40.957031 17.890625 40.957031 17.90625 Z M 40.957031 17.90625 "/>
<path style=" stroke:none;fill-rule:nonzero;fill:rgb(0%,0%,0%);fill-opacity:1;" d="M 44.234375 19.722656 L 44.234375 18.328125 C 44.234375 18.226562 44.226562 18.140625 44.203125 18.066406 C 44.1875 17.996094 44.164062 17.9375 44.128906 17.894531 C 44.097656 17.847656 44.054688 17.8125 44 17.796875 C 43.9375 17.777344 43.867188 17.765625 43.78125 17.765625 C 43.695312 17.765625 43.613281 17.785156 43.542969 17.820312 C 43.480469 17.847656 43.421875 17.890625 43.371094 17.949219 C 43.320312 18.007812 43.28125 18.078125 43.253906 18.164062 C 43.222656 18.246094 43.210938 18.339844 43.210938 18.445312 L 43.210938 19.722656 L 42.851562 19.722656 L 42.851562 17.992188 C 42.851562 17.949219 42.847656 17.902344 42.839844 17.851562 C 42.839844 17.800781 42.839844 17.753906 42.839844 17.710938 C 42.839844 17.660156 42.839844 17.621094 42.839844 17.589844 C 42.839844 17.554688 42.839844 17.535156 42.839844 17.527344 L 43.175781 17.527344 C 43.183594 17.535156 43.1875 17.554688 43.1875 17.582031 C 43.1875 17.609375 43.1875 17.644531 43.1875 17.6875 C 43.191406 17.726562 43.199219 17.765625 43.199219 17.808594 C 43.199219 17.847656 43.199219 17.878906 43.199219 17.90625 C 43.234375 17.839844 43.273438 17.785156 43.316406 17.730469 C 43.359375 17.683594 43.40625 17.640625 43.457031 17.601562 C 43.515625 17.566406 43.578125 17.539062 43.652344 17.515625 C 43.722656 17.496094 43.804688 17.484375 43.902344 17.484375 C 44.023438 17.484375 44.128906 17.503906 44.214844 17.539062 C 44.304688 17.566406 44.378906 17.613281 44.429688 17.679688 C 44.488281 17.738281 44.53125 17.816406 44.5625 17.917969 C 44.585938 18.011719 44.605469 18.128906 44.605469 18.261719 L 44.605469 19.722656 Z M 44.234375 19.722656 "/>
<path style="fill:none;stroke-width:0.0333333;stroke-linecap:butt;stroke-linejoin:miter;stroke:rgb(0%,0%,0%);stroke-opacity:1;stroke-miterlimit:10;" d="M 1.723732 0.504772 L 2.606241 -0.00484611 " transform="matrix(17.29798,0,0,17.307692,17.210271,17.134656)"/>
<path style=" stroke:none;fill-rule:nonzero;fill:rgb(0%,0%,0%);fill-opacity:1;" d="M 50.125 18.621094 C 50.125 18.742188 50.132812 18.855469 50.148438 18.964844 C 50.167969 19.066406 50.203125 19.15625 50.246094 19.234375 C 50.289062 19.308594 50.34375 19.367188 50.40625 19.410156 C 50.476562 19.453125 50.570312 19.472656 50.675781 19.472656 C 50.808594 19.472656 50.914062 19.441406 51.003906 19.375 C 51.089844 19.304688 51.140625 19.191406 51.164062 19.042969 L 51.53125 19.074219 C 51.515625 19.160156 51.488281 19.246094 51.445312 19.332031 C 51.40625 19.414062 51.351562 19.484375 51.28125 19.550781 C 51.21875 19.613281 51.132812 19.667969 51.035156 19.710938 C 50.933594 19.746094 50.816406 19.765625 50.6875 19.765625 C 50.515625 19.765625 50.367188 19.734375 50.246094 19.679688 C 50.128906 19.621094 50.03125 19.542969 49.953125 19.441406 C 49.878906 19.332031 49.828125 19.210938 49.792969 19.074219 C 49.753906 18.9375 49.738281 18.785156 49.738281 18.621094 C 49.738281 18.476562 49.746094 18.347656 49.769531 18.242188 C 49.796875 18.128906 49.835938 18.023438 49.878906 17.9375 C 49.921875 17.851562 49.96875 17.78125 50.027344 17.722656 C 50.09375 17.664062 50.160156 17.621094 50.222656 17.589844 C 50.292969 17.554688 50.367188 17.53125 50.441406 17.515625 C 50.519531 17.496094 50.597656 17.484375 50.675781 17.484375 C 50.800781 17.484375 50.90625 17.503906 51.003906 17.539062 C 51.101562 17.574219 51.1875 17.621094 51.25 17.679688 C 51.320312 17.738281 51.378906 17.804688 51.421875 17.882812 C 51.46875 17.964844 51.5 18.050781 51.519531 18.144531 L 51.140625 18.175781 C 51.121094 18.054688 51.070312 17.957031 50.992188 17.882812 C 50.917969 17.8125 50.808594 17.777344 50.667969 17.777344 C 50.5625 17.777344 50.476562 17.792969 50.40625 17.828125 C 50.34375 17.859375 50.289062 17.910156 50.246094 17.980469 C 50.203125 18.054688 50.167969 18.144531 50.148438 18.25 C 50.132812 18.355469 50.125 18.476562 50.125 18.621094 Z M 50.125 18.621094 "/>
<path style=" stroke:none;fill-rule:nonzero;fill:rgb(0%,0%,0%);fill-opacity:1;" d="M 52.21875 17.90625 C 52.261719 17.828125 52.304688 17.761719 52.347656 17.710938 C 52.398438 17.660156 52.449219 17.621094 52.511719 17.589844 C 52.566406 17.554688 52.628906 17.53125 52.695312 17.515625 C 52.765625 17.496094 52.839844 17.484375 52.921875 17.484375 C 53.0625 17.484375 53.179688 17.503906 53.265625 17.546875 C 53.359375 17.585938 53.433594 17.640625 53.484375 17.710938 C 53.53125 17.777344 53.570312 17.855469 53.589844 17.949219 C 53.613281 18.042969 53.625 18.148438 53.625 18.261719 L 53.625 19.722656 L 53.257812 19.722656 L 53.257812 18.328125 C 53.257812 18.234375 53.25 18.152344 53.234375 18.089844 C 53.226562 18.019531 53.203125 17.960938 53.167969 17.917969 C 53.140625 17.867188 53.09375 17.828125 53.027344 17.808594 C 52.96875 17.78125 52.894531 17.765625 52.800781 17.765625 C 52.714844 17.765625 52.632812 17.785156 52.5625 17.820312 C 52.5 17.847656 52.441406 17.890625 52.390625 17.949219 C 52.339844 18.007812 52.300781 18.074219 52.273438 18.152344 C 52.242188 18.234375 52.230469 18.324219 52.230469 18.425781 L 52.230469 19.722656 L 51.871094 19.722656 L 51.871094 16.714844 L 52.230469 16.714844 L 52.230469 17.496094 C 52.230469 17.539062 52.230469 17.585938 52.230469 17.636719 C 52.230469 17.679688 52.222656 17.71875 52.21875 17.753906 C 52.21875 17.792969 52.21875 17.824219 52.21875 17.851562 C 52.21875 17.871094 52.21875 17.890625 52.21875 17.90625 Z M 52.21875 17.90625 "/>
<path style=" stroke:none;fill-rule:nonzero;fill:rgb(0%,0%,0%);fill-opacity:1;" d="M 55.5 19.722656 L 55.5 18.328125 C 55.5 18.226562 55.488281 18.140625 55.464844 18.066406 C 55.449219 17.996094 55.425781 17.9375 55.390625 17.894531 C 55.359375 17.847656 55.316406 17.8125 55.261719 17.796875 C 55.203125 17.777344 55.132812 17.765625 55.042969 17.765625 C 54.957031 17.765625 54.878906 17.785156 54.808594 17.820312 C 54.742188 17.847656 54.683594 17.890625 54.632812 17.949219 C 54.582031 18.007812 54.542969 18.078125 54.515625 18.164062 C 54.484375 18.246094 54.472656 18.339844 54.472656 18.445312 L 54.472656 19.722656 L 54.113281 19.722656 L 54.113281 17.992188 C 54.113281 17.949219 54.109375 17.902344 54.105469 17.851562 C 54.105469 17.800781 54.105469 17.753906 54.105469 17.710938 C 54.105469 17.660156 54.105469 17.621094 54.105469 17.589844 C 54.105469 17.554688 54.105469 17.535156 54.105469 17.527344 L 54.4375 17.527344 C 54.445312 17.535156 54.449219 17.554688 54.449219 17.582031 C 54.449219 17.609375 54.449219 17.644531 54.449219 17.6875 C 54.457031 17.726562 54.460938 17.765625 54.460938 17.808594 C 54.460938 17.847656 54.460938 17.878906 54.460938 17.90625 C 54.496094 17.839844 54.535156 17.785156 54.578125 17.730469 C 54.625 17.683594 54.667969 17.640625 54.71875 17.601562 C 54.777344 17.566406 54.84375 17.539062 54.914062 17.515625 C 54.984375 17.496094 55.070312 17.484375 55.164062 17.484375 C 55.285156 17.484375 55.390625 17.503906 55.476562 17.539062 C 55.570312 17.566406 55.640625 17.613281 55.695312 17.679688 C 55.75 17.738281 55.792969 17.816406 55.824219 17.917969 C 55.851562 18.011719 55.867188 18.128906 55.867188 18.261719 L 55.867188 19.722656 Z M 55.5 19.722656 "/>
<path style="fill:none;stroke-width:0.0333333;stroke-linecap:butt;stroke-linejoin:miter;stroke:rgb(0%,0%,0%);stroke-opacity:1;stroke-miterlimit:10;" d="M 2.589756 -0.00484611 L 3.472491 0.504772 " transform="matrix(17.29798,0,0,17.307692,17.210271,17.134656)"/>
<path style=" stroke:none;fill-rule:nonzero;fill:rgb(0%,0%,0%);fill-opacity:1;" d="M 68.824219 18.621094 C 68.824219 18.742188 68.828125 18.855469 68.847656 18.964844 C 68.867188 19.066406 68.898438 19.15625 68.941406 19.234375 C 68.988281 19.308594 69.039062 19.367188 69.105469 19.410156 C 69.175781 19.453125 69.269531 19.472656 69.375 19.472656 C 69.503906 19.472656 69.613281 19.441406 69.699219 19.375 C 69.785156 19.304688 69.839844 19.191406 69.863281 19.042969 L 70.230469 19.074219 C 70.214844 19.160156 70.1875 19.246094 70.144531 19.332031 C 70.105469 19.414062 70.050781 19.484375 69.980469 19.550781 C 69.917969 19.613281 69.832031 19.667969 69.734375 19.710938 C 69.628906 19.746094 69.515625 19.765625 69.386719 19.765625 C 69.214844 19.765625 69.066406 19.734375 68.941406 19.679688 C 68.828125 19.621094 68.730469 19.542969 68.652344 19.441406 C 68.578125 19.332031 68.523438 19.210938 68.488281 19.074219 C 68.453125 18.9375 68.433594 18.785156 68.433594 18.621094 C 68.433594 18.476562 68.445312 18.347656 68.46875 18.242188 C 68.496094 18.128906 68.53125 18.023438 68.574219 17.9375 C 68.617188 17.851562 68.667969 17.78125 68.726562 17.722656 C 68.792969 17.664062 68.855469 17.621094 68.921875 17.589844 C 68.992188 17.554688 69.066406 17.53125 69.136719 17.515625 C 69.214844 17.496094 69.292969 17.484375 69.375 17.484375 C 69.496094 17.484375 69.605469 17.503906 69.699219 17.539062 C 69.800781 17.574219 69.882812 17.621094 69.949219 17.679688 C 70.019531 17.738281 70.078125 17.804688 70.121094 17.882812 C 70.164062 17.964844 70.199219 18.050781 70.21875 18.144531 L 69.839844 18.175781 C 69.820312 18.054688 69.769531 17.957031 69.6875 17.882812 C 69.617188 17.8125 69.507812 17.777344 69.363281 17.777344 C 69.261719 17.777344 69.175781 17.792969 69.105469 17.828125 C 69.039062 17.859375 68.988281 17.910156 68.941406 17.980469 C 68.898438 18.054688 68.867188 18.144531 68.847656 18.25 C 68.828125 18.355469 68.824219 18.476562 68.824219 18.621094 Z M 68.824219 18.621094 "/>
<path style=" stroke:none;fill-rule:nonzero;fill:rgb(0%,0%,0%);fill-opacity:1;" d="M 70.917969 17.90625 C 70.960938 17.828125 71.003906 17.761719 71.046875 17.710938 C 71.09375 17.660156 71.148438 17.621094 71.207031 17.589844 C 71.265625 17.554688 71.328125 17.53125 71.390625 17.515625 C 71.460938 17.496094 71.539062 17.484375 71.617188 17.484375 C 71.761719 17.484375 71.878906 17.503906 71.964844 17.546875 C 72.058594 17.585938 72.128906 17.640625 72.179688 17.710938 C 72.230469 17.777344 72.269531 17.855469 72.289062 17.949219 C 72.3125 18.042969 72.320312 18.148438 72.320312 18.261719 L 72.320312 19.722656 L 71.953125 19.722656 L 71.953125 18.328125 C 71.953125 18.234375 71.945312 18.152344 71.933594 18.089844 C 71.925781 18.019531 71.902344 17.960938 71.867188 17.917969 C 71.839844 17.867188 71.792969 17.828125 71.726562 17.808594 C 71.667969 17.78125 71.59375 17.765625 71.5 17.765625 C 71.414062 17.765625 71.332031 17.785156 71.261719 17.820312 C 71.199219 17.847656 71.136719 17.890625 71.089844 17.949219 C 71.039062 18.007812 70.996094 18.074219 70.96875 18.152344 C 70.941406 18.234375 70.925781 18.324219 70.925781 18.425781 L 70.925781 19.722656 L 70.570312 19.722656 L 70.570312 16.714844 L 70.925781 16.714844 L 70.925781 17.496094 C 70.925781 17.539062 70.925781 17.585938 70.925781 17.636719 C 70.925781 17.679688 70.921875 17.71875 70.917969 17.753906 C 70.917969 17.792969 70.917969 17.824219 70.917969 17.851562 C 70.917969 17.871094 70.917969 17.890625 70.917969 17.90625 Z M 70.917969 17.90625 "/>
<path style=" stroke:none;fill-rule:nonzero;fill:rgb(0%,0%,0%);fill-opacity:1;" d="M 74.195312 19.722656 L 74.195312 18.328125 C 74.195312 18.226562 74.1875 18.140625 74.164062 18.066406 C 74.148438 17.996094 74.125 17.9375 74.089844 17.894531 C 74.058594 17.847656 74.015625 17.8125 73.960938 17.796875 C 73.898438 17.777344 73.828125 17.765625 73.742188 17.765625 C 73.65625 17.765625 73.574219 17.785156 73.503906 17.820312 C 73.441406 17.847656 73.378906 17.890625 73.332031 17.949219 C 73.28125 18.007812 73.238281 18.078125 73.214844 18.164062 C 73.183594 18.246094 73.167969 18.339844 73.167969 18.445312 L 73.167969 19.722656 L 72.8125 19.722656 L 72.8125 17.992188 C 72.8125 17.949219 72.808594 17.902344 72.800781 17.851562 C 72.800781 17.800781 72.800781 17.753906 72.800781 17.710938 C 72.800781 17.660156 72.800781 17.621094 72.800781 17.589844 C 72.800781 17.554688 72.800781 17.535156 72.800781 17.527344 L 73.136719 17.527344 C 73.144531 17.535156 73.148438 17.554688 73.148438 17.582031 C 73.148438 17.609375 73.148438 17.644531 73.148438 17.6875 C 73.152344 17.726562 73.160156 17.765625 73.160156 17.808594 C 73.160156 17.847656 73.160156 17.878906 73.160156 17.90625 C 73.195312 17.839844 73.234375 17.785156 73.277344 17.730469 C 73.320312 17.683594 73.367188 17.640625 73.417969 17.601562 C 73.476562 17.566406 73.539062 17.539062 73.613281 17.515625 C 73.683594 17.496094 73.765625 17.484375 73.863281 17.484375 C 73.984375 17.484375 74.089844 17.503906 74.175781 17.539062 C 74.265625 17.566406 74.339844 17.613281 74.390625 17.679688 C 74.449219 17.738281 74.492188 17.816406 74.519531 17.917969 C 74.546875 18.011719 74.566406 18.128906 74.566406 18.261719 L 74.566406 19.722656 Z M 74.195312 19.722656 "/>
<path style="fill:none;stroke-width:0.0333333;stroke-linecap:butt;stroke-linejoin:miter;stroke:rgb(0%,0%,0%);stroke-opacity:1;stroke-miterlimit:10;" d="M 3.45578 0.504772 L 4.153793 0.101907 " transform="matrix(17.29798,0,0,17.307692,17.210271,17.134656)"/>
<path style=" stroke:none;fill-rule:nonzero;fill:rgb(0%,0%,0%);fill-opacity:1;" d="M 78.492188 19.542969 C 78.492188 19.664062 78.496094 19.78125 78.515625 19.886719 C 78.535156 19.992188 78.566406 20.078125 78.609375 20.15625 C 78.65625 20.230469 78.707031 20.289062 78.773438 20.332031 C 78.84375 20.375 78.9375 20.394531 79.042969 20.394531 C 79.171875 20.394531 79.28125 20.363281 79.367188 20.296875 C 79.453125 20.226562 79.507812 20.113281 79.53125 19.964844 L 79.898438 19.996094 C 79.882812 20.082031 79.855469 20.167969 79.8125 20.253906 C 79.773438 20.335938 79.71875 20.40625 79.648438 20.472656 C 79.585938 20.535156 79.5 20.589844 79.402344 20.632812 C 79.296875 20.667969 79.183594 20.6875 79.054688 20.6875 C 78.882812 20.6875 78.734375 20.660156 78.609375 20.601562 C 78.496094 20.542969 78.398438 20.464844 78.320312 20.363281 C 78.246094 20.253906 78.191406 20.132812 78.15625 19.996094 C 78.121094 19.859375 78.101562 19.710938 78.101562 19.542969 C 78.101562 19.398438 78.113281 19.269531 78.136719 19.164062 C 78.164062 19.050781 78.199219 18.945312 78.242188 18.859375 C 78.285156 18.773438 78.335938 18.703125 78.394531 18.644531 C 78.460938 18.585938 78.523438 18.542969 78.589844 18.515625 C 78.660156 18.480469 78.734375 18.453125 78.804688 18.4375 C 78.882812 18.417969 78.960938 18.40625 79.042969 18.40625 C 79.164062 18.40625 79.273438 18.425781 79.367188 18.460938 C 79.46875 18.496094 79.550781 18.542969 79.617188 18.601562 C 79.6875 18.660156 79.746094 18.726562 79.789062 18.804688 C 79.832031 18.886719 79.867188 18.972656 79.886719 19.066406 L 79.507812 19.097656 C 79.488281 18.976562 79.4375 18.878906 79.355469 18.804688 C 79.285156 18.734375 79.175781 18.699219 79.03125 18.699219 C 78.929688 18.699219 78.84375 18.714844 78.773438 18.75 C 78.707031 18.78125 78.65625 18.832031 78.609375 18.902344 C 78.566406 18.976562 78.535156 19.066406 78.515625 19.171875 C 78.496094 19.277344 78.492188 19.398438 78.492188 19.542969 Z M 78.492188 19.542969 "/>
<path style=" stroke:none;fill-rule:nonzero;fill:rgb(0%,0%,0%);fill-opacity:1;" d="M 80.585938 18.828125 C 80.628906 18.75 80.671875 18.683594 80.714844 18.632812 C 80.761719 18.585938 80.816406 18.542969 80.875 18.515625 C 80.933594 18.480469 80.996094 18.453125 81.058594 18.4375 C 81.128906 18.417969 81.207031 18.40625 81.285156 18.40625 C 81.429688 18.40625 81.546875 18.425781 81.632812 18.46875 C 81.726562 18.507812 81.796875 18.5625 81.847656 18.632812 C 81.898438 18.699219 81.9375 18.777344 81.957031 18.871094 C 81.980469 18.964844 81.988281 19.070312 81.988281 19.183594 L 81.988281 20.644531 L 81.621094 20.644531 L 81.621094 19.25 C 81.621094 19.15625 81.613281 19.078125 81.601562 19.011719 C 81.59375 18.941406 81.570312 18.882812 81.535156 18.839844 C 81.507812 18.789062 81.460938 18.75 81.394531 18.730469 C 81.335938 18.703125 81.261719 18.6875 81.167969 18.6875 C 81.082031 18.6875 81 18.707031 80.929688 18.742188 C 80.867188 18.769531 80.804688 18.8125 80.757812 18.871094 C 80.707031 18.929688 80.664062 18.996094 80.636719 19.078125 C 80.609375 19.15625 80.59375 19.246094 80.59375 19.347656 L 80.59375 20.644531 L 80.238281 20.644531 L 80.238281 17.636719 L 80.59375 17.636719 L 80.59375 18.417969 C 80.59375 18.460938 80.59375 18.507812 80.59375 18.558594 C 80.59375 18.601562 80.589844 18.640625 80.585938 18.675781 C 80.585938 18.714844 80.585938 18.746094 80.585938 18.773438 C 80.585938 18.796875 80.585938 18.8125 80.585938 18.828125 Z M 80.585938 18.828125 "/>
<path style=" stroke:none;fill-rule:nonzero;fill:rgb(0%,0%,0%);fill-opacity:1;" d="M 83.863281 20.644531 L 83.863281 19.25 C 83.863281 19.148438 83.855469 19.0625 83.832031 18.988281 C 83.816406 18.917969 83.792969 18.859375 83.757812 18.816406 C 83.726562 18.769531 83.683594 18.734375 83.628906 18.71875 C 83.566406 18.699219 83.496094 18.6875 83.410156 18.6875 C 83.324219 18.6875 83.242188 18.707031 83.171875 18.742188 C 83.109375 18.769531 83.046875 18.8125 83 18.871094 C 82.949219 18.929688 82.90625 19 82.882812 19.085938 C 82.851562 19.167969 82.835938 19.261719 82.835938 19.367188 L 82.835938 20.644531 L 82.480469 20.644531 L 82.480469 18.914062 C 82.480469 18.871094 82.476562 18.824219 82.46875 18.773438 C 82.46875 18.726562 82.46875 18.675781 82.46875 18.632812 C 82.46875 18.585938 82.46875 18.542969 82.46875 18.515625 C 82.46875 18.480469 82.46875 18.457031 82.46875 18.449219 L 82.804688 18.449219 C 82.8125 18.457031 82.816406 18.476562 82.816406 18.503906 C 82.816406 18.53125 82.816406 18.566406 82.816406 18.609375 C 82.820312 18.648438 82.828125 18.6875 82.828125 18.730469 C 82.828125 18.769531 82.828125 18.800781 82.828125 18.828125 C 82.863281 18.761719 82.902344 18.707031 82.945312 18.65625 C 82.988281 18.605469 83.035156 18.5625 83.085938 18.523438 C 83.144531 18.488281 83.207031 18.460938 83.28125 18.4375 C 83.351562 18.417969 83.433594 18.40625 83.53125 18.40625 C 83.652344 18.40625 83.757812 18.425781 83.84375 18.460938 C 83.933594 18.488281 84.007812 18.535156 84.058594 18.601562 C 84.117188 18.660156 84.160156 18.738281 84.1875 18.839844 C 84.214844 18.933594 84.234375 19.050781 84.234375 19.183594 L 84.234375 20.644531 Z M 83.863281 20.644531 "/>
</g>
</svg>
