<?xml version="1.0" encoding="UTF-8"?>
<svg xmlns="http://www.w3.org/2000/svg" xmlns:xlink="http://www.w3.org/1999/xlink" width="68.8pt" height="120pt" viewBox="0 0 68.8 120" version="1.1">
<g id="surface1642">
<path style=" stroke:none;fill-rule:nonzero;fill:rgb(0%,0%,0%);fill-opacity:1;" d="M 39.144531 9.375 C 38.929688 9.375 38.734375 9.414062 38.570312 9.484375 C 38.402344 9.554688 38.261719 9.660156 38.148438 9.796875 C 38.039062 9.925781 37.957031 10.085938 37.898438 10.269531 C 37.839844 10.460938 37.8125 10.667969 37.8125 10.898438 C 37.8125 11.128906 37.839844 11.339844 37.898438 11.535156 C 37.964844 11.722656 38.054688 11.886719 38.167969 12.019531 C 38.285156 12.160156 38.425781 12.265625 38.59375 12.34375 C 38.765625 12.417969 38.957031 12.453125 39.167969 12.453125 C 39.316406 12.453125 39.449219 12.4375 39.566406 12.398438 C 39.6875 12.355469 39.800781 12.300781 39.902344 12.226562 C 40.003906 12.15625 40.089844 12.074219 40.164062 11.976562 C 40.242188 11.886719 40.308594 11.777344 40.371094 11.652344 L 40.792969 11.871094 C 40.726562 12.015625 40.644531 12.148438 40.542969 12.269531 C 40.441406 12.394531 40.320312 12.5 40.183594 12.59375 C 40.046875 12.679688 39.890625 12.75 39.71875 12.796875 C 39.546875 12.847656 39.351562 12.875 39.144531 12.875 C 38.832031 12.875 38.5625 12.824219 38.332031 12.734375 C 38.097656 12.632812 37.902344 12.496094 37.746094 12.324219 C 37.59375 12.144531 37.480469 11.933594 37.398438 11.695312 C 37.320312 11.453125 37.28125 11.1875 37.28125 10.898438 C 37.28125 10.605469 37.320312 10.335938 37.398438 10.097656 C 37.488281 9.855469 37.609375 9.652344 37.769531 9.484375 C 37.925781 9.316406 38.121094 9.1875 38.355469 9.09375 C 38.585938 9.003906 38.847656 8.953125 39.144531 8.953125 C 39.546875 8.953125 39.882812 9.035156 40.152344 9.191406 C 40.425781 9.351562 40.628906 9.589844 40.757812 9.902344 L 40.273438 10.066406 C 40.234375 9.972656 40.183594 9.886719 40.121094 9.808594 C 40.0625 9.71875 39.984375 9.652344 39.890625 9.589844 C 39.796875 9.527344 39.6875 9.476562 39.566406 9.441406 C 39.441406 9.398438 39.300781 9.375 39.144531 9.375 Z M 39.144531 9.375 "/>
<path style=" stroke:none;fill-rule:nonzero;fill:rgb(0%,0%,0%);fill-opacity:1;" d="M 42.027344 10.402344 C 42.082031 10.300781 42.140625 10.21875 42.199219 10.152344 C 42.265625 10.082031 42.332031 10.023438 42.40625 9.980469 C 42.484375 9.929688 42.566406 9.894531 42.65625 9.871094 C 42.746094 9.851562 42.851562 9.839844 42.96875 9.839844 C 43.15625 9.839844 43.308594 9.867188 43.425781 9.914062 C 43.546875 9.964844 43.640625 10.039062 43.707031 10.132812 C 43.777344 10.226562 43.828125 10.335938 43.859375 10.464844 C 43.886719 10.589844 43.902344 10.726562 43.902344 10.875 L 43.902344 12.820312 L 43.402344 12.820312 L 43.402344 10.960938 C 43.402344 10.839844 43.394531 10.734375 43.382812 10.640625 C 43.363281 10.546875 43.335938 10.472656 43.292969 10.410156 C 43.25 10.347656 43.1875 10.300781 43.109375 10.269531 C 43.027344 10.238281 42.929688 10.21875 42.808594 10.21875 C 42.691406 10.21875 42.585938 10.238281 42.492188 10.28125 C 42.398438 10.324219 42.320312 10.386719 42.253906 10.464844 C 42.1875 10.539062 42.136719 10.628906 42.101562 10.734375 C 42.0625 10.84375 42.046875 10.960938 42.046875 11.09375 L 42.046875 12.820312 L 41.558594 12.820312 L 41.558594 8.8125 L 42.046875 8.8125 L 42.046875 9.851562 C 42.046875 9.914062 42.042969 9.976562 42.039062 10.035156 C 42.039062 10.09375 42.03125 10.148438 42.027344 10.195312 C 42.027344 10.246094 42.027344 10.289062 42.027344 10.324219 C 42.027344 10.363281 42.027344 10.386719 42.027344 10.402344 Z M 42.027344 10.402344 "/>
<path style=" stroke:none;fill-rule:nonzero;fill:rgb(0%,0%,0%);fill-opacity:1;" d="M 44.75 9.277344 L 44.75 8.8125 L 45.238281 8.8125 L 45.238281 9.277344 Z M 44.75 12.820312 L 44.75 9.894531 L 45.238281 9.894531 L 45.238281 12.820312 Z M 44.75 12.820312 "/>
<path style=" stroke:none;fill-rule:nonzero;fill:rgb(0%,0%,0%);fill-opacity:1;" d="M 46.054688 12.820312 L 46.054688 10.574219 C 46.054688 10.515625 46.050781 10.453125 46.046875 10.390625 C 46.046875 10.324219 46.046875 10.265625 46.046875 10.207031 C 46.046875 10.148438 46.039062 10.097656 46.035156 10.042969 C 46.035156 9.988281 46.035156 9.9375 46.035156 9.894531 L 46.5 9.894531 C 46.5 9.9375 46.5 9.988281 46.5 10.042969 C 46.503906 10.097656 46.511719 10.148438 46.511719 10.207031 C 46.511719 10.257812 46.511719 10.3125 46.511719 10.367188 C 46.515625 10.421875 46.523438 10.464844 46.523438 10.5 L 46.53125 10.5 C 46.558594 10.386719 46.59375 10.289062 46.628906 10.207031 C 46.671875 10.121094 46.71875 10.054688 46.769531 10 C 46.828125 9.953125 46.894531 9.914062 46.964844 9.882812 C 47.035156 9.855469 47.125 9.839844 47.226562 9.839844 C 47.261719 9.839844 47.296875 9.84375 47.335938 9.851562 C 47.371094 9.859375 47.398438 9.867188 47.421875 9.871094 L 47.421875 10.316406 C 47.390625 10.308594 47.355469 10.304688 47.3125 10.304688 C 47.269531 10.296875 47.21875 10.292969 47.160156 10.292969 C 47.054688 10.292969 46.957031 10.320312 46.878906 10.367188 C 46.796875 10.421875 46.734375 10.488281 46.683594 10.574219 C 46.632812 10.660156 46.597656 10.769531 46.578125 10.898438 C 46.554688 11.023438 46.542969 11.15625 46.542969 11.296875 L 46.542969 12.820312 Z M 46.054688 12.820312 "/>
<path style=" stroke:none;fill-rule:nonzero;fill:rgb(0%,0%,0%);fill-opacity:1;" d="M 48.714844 12.875 C 48.417969 12.875 48.195312 12.796875 48.042969 12.648438 C 47.898438 12.492188 47.828125 12.273438 47.828125 12 C 47.828125 11.8125 47.863281 11.660156 47.9375 11.535156 C 48.007812 11.40625 48.101562 11.308594 48.21875 11.242188 C 48.339844 11.171875 48.476562 11.121094 48.628906 11.09375 C 48.78125 11.066406 48.9375 11.050781 49.09375 11.050781 L 49.746094 11.039062 L 49.746094 10.875 C 49.746094 10.753906 49.730469 10.65625 49.703125 10.574219 C 49.679688 10.488281 49.644531 10.421875 49.59375 10.367188 C 49.542969 10.3125 49.476562 10.269531 49.398438 10.25 C 49.316406 10.226562 49.226562 10.21875 49.117188 10.21875 C 49.023438 10.21875 48.9375 10.226562 48.855469 10.238281 C 48.785156 10.246094 48.71875 10.269531 48.664062 10.304688 C 48.609375 10.339844 48.566406 10.390625 48.53125 10.453125 C 48.496094 10.515625 48.472656 10.589844 48.46875 10.683594 L 47.957031 10.628906 C 47.972656 10.515625 48.003906 10.410156 48.054688 10.316406 C 48.105469 10.222656 48.175781 10.140625 48.273438 10.066406 C 48.363281 9.996094 48.480469 9.941406 48.617188 9.902344 C 48.761719 9.859375 48.933594 9.839844 49.128906 9.839844 C 49.496094 9.839844 49.773438 9.925781 49.960938 10.097656 C 50.148438 10.265625 50.246094 10.507812 50.246094 10.824219 L 50.246094 12.085938 C 50.246094 12.230469 50.261719 12.339844 50.296875 12.410156 C 50.332031 12.484375 50.40625 12.519531 50.515625 12.519531 C 50.542969 12.519531 50.570312 12.519531 50.589844 12.519531 C 50.617188 12.511719 50.648438 12.503906 50.679688 12.496094 L 50.679688 12.796875 C 50.613281 12.820312 50.550781 12.832031 50.492188 12.84375 C 50.433594 12.847656 50.367188 12.851562 50.296875 12.851562 C 50.203125 12.851562 50.125 12.84375 50.058594 12.820312 C 49.996094 12.792969 49.941406 12.753906 49.898438 12.703125 C 49.859375 12.652344 49.832031 12.589844 49.8125 12.519531 C 49.789062 12.449219 49.773438 12.363281 49.765625 12.257812 L 49.746094 12.257812 C 49.695312 12.351562 49.636719 12.441406 49.574219 12.519531 C 49.511719 12.589844 49.441406 12.65625 49.355469 12.710938 C 49.273438 12.765625 49.183594 12.804688 49.074219 12.832031 C 48.972656 12.859375 48.851562 12.875 48.714844 12.875 Z M 48.824219 12.507812 C 48.976562 12.507812 49.109375 12.480469 49.226562 12.421875 C 49.347656 12.363281 49.445312 12.292969 49.519531 12.203125 C 49.597656 12.117188 49.652344 12.027344 49.691406 11.925781 C 49.726562 11.816406 49.746094 11.714844 49.746094 11.621094 L 49.746094 11.375 L 49.214844 11.382812 C 49.097656 11.390625 48.988281 11.402344 48.878906 11.417969 C 48.769531 11.433594 48.671875 11.460938 48.585938 11.503906 C 48.503906 11.546875 48.441406 11.609375 48.390625 11.695312 C 48.347656 11.777344 48.328125 11.878906 48.328125 12.011719 C 48.328125 12.167969 48.371094 12.292969 48.457031 12.378906 C 48.542969 12.464844 48.664062 12.507812 48.824219 12.507812 Z M 48.824219 12.507812 "/>
<path style=" stroke:none;fill-rule:nonzero;fill:rgb(0%,0%,0%);fill-opacity:1;" d="M 51.179688 12.820312 L 51.179688 8.8125 L 51.667969 8.8125 L 51.667969 12.820312 Z M 51.179688 12.820312 "/>
<path style=" stroke:none;fill-rule:nonzero;fill:rgb(0%,0%,0%);fill-opacity:1;" d="M 35.808594 50.742188 C 35.808594 50.910156 35.78125 51.0625 35.722656 51.207031 C 35.664062 51.34375 35.582031 51.464844 35.472656 51.574219 C 35.367188 51.679688 35.226562 51.769531 35.0625 51.832031 C 34.902344 51.890625 34.710938 51.917969 34.488281 51.917969 L 33.371094 51.917969 L 33.371094 53.398438 L 32.851562 53.398438 L 32.851562 49.597656 L 34.457031 49.597656 C 34.6875 49.597656 34.882812 49.625 35.050781 49.683594 C 35.214844 49.734375 35.355469 49.808594 35.464844 49.910156 C 35.578125 50.011719 35.664062 50.132812 35.722656 50.277344 C 35.78125 50.414062 35.808594 50.570312 35.808594 50.742188 Z M 35.289062 50.742188 C 35.289062 50.503906 35.214844 50.324219 35.0625 50.203125 C 34.914062 50.070312 34.695312 50.007812 34.402344 50.007812 L 33.371094 50.007812 L 33.371094 51.507812 L 34.421875 51.507812 C 34.71875 51.507812 34.933594 51.445312 35.074219 51.3125 C 35.214844 51.179688 35.289062 50.988281 35.289062 50.742188 Z M 35.289062 50.742188 "/>
<path style=" stroke:none;fill-rule:nonzero;fill:rgb(0%,0%,0%);fill-opacity:1;" d="M 51.777344 49.957031 C 51.5625 49.957031 51.367188 49.996094 51.203125 50.066406 C 51.035156 50.140625 50.894531 50.246094 50.78125 50.378906 C 50.671875 50.507812 50.589844 50.667969 50.53125 50.855469 C 50.472656 51.042969 50.445312 51.253906 50.445312 51.480469 C 50.445312 51.714844 50.472656 51.925781 50.53125 52.117188 C 50.597656 52.308594 50.6875 52.46875 50.800781 52.605469 C 50.917969 52.742188 51.058594 52.851562 51.226562 52.929688 C 51.398438 53 51.589844 53.035156 51.800781 53.035156 C 51.949219 53.035156 52.082031 53.019531 52.199219 52.984375 C 52.320312 52.941406 52.433594 52.882812 52.535156 52.808594 C 52.636719 52.738281 52.722656 52.65625 52.796875 52.5625 C 52.875 52.46875 52.941406 52.363281 53.003906 52.238281 L 53.425781 52.453125 C 53.359375 52.597656 53.277344 52.730469 53.175781 52.851562 C 53.074219 52.976562 52.953125 53.085938 52.816406 53.175781 C 52.679688 53.261719 52.527344 53.332031 52.351562 53.382812 C 52.179688 53.429688 51.984375 53.457031 51.777344 53.457031 C 51.464844 53.457031 51.195312 53.410156 50.964844 53.316406 C 50.730469 53.21875 50.535156 53.078125 50.378906 52.90625 C 50.226562 52.730469 50.113281 52.519531 50.03125 52.28125 C 49.953125 52.039062 49.914062 51.769531 49.914062 51.480469 C 49.914062 51.1875 49.953125 50.917969 50.03125 50.683594 C 50.121094 50.4375 50.242188 50.234375 50.402344 50.066406 C 50.558594 49.902344 50.753906 49.773438 50.988281 49.679688 C 51.21875 49.585938 51.480469 49.539062 51.777344 49.539062 C 52.179688 49.539062 52.515625 49.617188 52.785156 49.773438 C 53.058594 49.933594 53.261719 50.171875 53.390625 50.488281 L 52.90625 50.648438 C 52.867188 50.558594 52.816406 50.472656 52.753906 50.390625 C 52.695312 50.304688 52.617188 50.234375 52.527344 50.175781 C 52.429688 50.109375 52.320312 50.0625 52.199219 50.023438 C 52.074219 49.980469 51.933594 49.957031 51.777344 49.957031 Z M 51.777344 49.957031 "/>
<path style=" stroke:none;fill-rule:nonzero;fill:rgb(0%,0%,0%);fill-opacity:1;" d="M 18.886719 51.480469 C 18.886719 51.777344 18.84375 52.046875 18.757812 52.292969 C 18.671875 52.539062 18.542969 52.746094 18.378906 52.917969 C 18.21875 53.089844 18.019531 53.226562 17.78125 53.316406 C 17.550781 53.410156 17.289062 53.457031 16.992188 53.457031 C 16.671875 53.457031 16.394531 53.410156 16.15625 53.316406 C 15.925781 53.21875 15.730469 53.078125 15.574219 52.90625 C 15.414062 52.730469 15.292969 52.519531 15.214844 52.28125 C 15.132812 52.039062 15.09375 51.769531 15.09375 51.480469 C 15.09375 51.1875 15.132812 50.917969 15.214844 50.683594 C 15.300781 50.4375 15.421875 50.234375 15.582031 50.066406 C 15.75 49.902344 15.945312 49.773438 16.179688 49.679688 C 16.417969 49.585938 16.6875 49.539062 16.992188 49.539062 C 17.296875 49.539062 17.566406 49.585938 17.804688 49.679688 C 18.042969 49.773438 18.242188 49.90625 18.402344 50.078125 C 18.558594 50.246094 18.675781 50.445312 18.757812 50.683594 C 18.84375 50.917969 18.886719 51.1875 18.886719 51.480469 Z M 18.355469 51.480469 C 18.355469 51.253906 18.328125 51.042969 18.269531 50.855469 C 18.210938 50.667969 18.125 50.507812 18.011719 50.378906 C 17.894531 50.246094 17.75 50.140625 17.578125 50.066406 C 17.410156 49.996094 17.214844 49.957031 16.992188 49.957031 C 16.765625 49.957031 16.570312 49.996094 16.394531 50.066406 C 16.222656 50.140625 16.078125 50.246094 15.960938 50.378906 C 15.855469 50.507812 15.769531 50.667969 15.714844 50.855469 C 15.652344 51.042969 15.625 51.253906 15.625 51.480469 C 15.625 51.714844 15.652344 51.925781 15.714844 52.117188 C 15.769531 52.308594 15.855469 52.46875 15.972656 52.605469 C 16.085938 52.742188 16.226562 52.851562 16.394531 52.929688 C 16.570312 53 16.765625 53.035156 16.992188 53.035156 C 17.230469 53.035156 17.4375 53 17.609375 52.929688 C 17.78125 52.851562 17.925781 52.742188 18.03125 52.605469 C 18.140625 52.460938 18.21875 52.296875 18.269531 52.109375 C 18.328125 51.914062 18.355469 51.707031 18.355469 51.480469 Z M 18.355469 51.480469 "/>
<path style=" stroke:none;fill-rule:nonzero;fill:rgb(0%,0%,0%);fill-opacity:1;" d="M 51.777344 32.675781 C 51.5625 32.675781 51.367188 32.714844 51.203125 32.785156 C 51.035156 32.859375 50.894531 32.964844 50.78125 33.097656 C 50.671875 33.226562 50.589844 33.386719 50.53125 33.574219 C 50.472656 33.761719 50.445312 33.972656 50.445312 34.199219 C 50.445312 34.433594 50.472656 34.644531 50.53125 34.835938 C 50.597656 35.027344 50.6875 35.1875 50.800781 35.324219 C 50.917969 35.460938 51.058594 35.570312 51.226562 35.648438 C 51.398438 35.71875 51.589844 35.753906 51.800781 35.753906 C 51.949219 35.753906 52.082031 35.738281 52.199219 35.703125 C 52.320312 35.660156 52.433594 35.601562 52.535156 35.527344 C 52.636719 35.457031 52.722656 35.375 52.796875 35.28125 C 52.875 35.1875 52.941406 35.082031 53.003906 34.957031 L 53.425781 35.171875 C 53.359375 35.316406 53.277344 35.449219 53.175781 35.570312 C 53.074219 35.695312 52.953125 35.804688 52.816406 35.894531 C 52.679688 35.984375 52.527344 36.050781 52.351562 36.101562 C 52.179688 36.148438 51.984375 36.175781 51.777344 36.175781 C 51.464844 36.175781 51.195312 36.128906 50.964844 36.035156 C 50.730469 35.9375 50.535156 35.800781 50.378906 35.625 C 50.226562 35.449219 50.113281 35.238281 50.03125 35 C 49.953125 34.757812 49.914062 34.488281 49.914062 34.199219 C 49.914062 33.90625 49.953125 33.640625 50.03125 33.402344 C 50.121094 33.15625 50.242188 32.953125 50.402344 32.785156 C 50.558594 32.621094 50.753906 32.492188 50.988281 32.398438 C 51.21875 32.304688 51.480469 32.257812 51.777344 32.257812 C 52.179688 32.257812 52.515625 32.335938 52.785156 32.492188 C 53.058594 32.652344 53.261719 32.890625 53.390625 33.207031 L 52.90625 33.367188 C 52.867188 33.277344 52.816406 33.191406 52.753906 33.109375 C 52.695312 33.023438 52.617188 32.953125 52.527344 32.894531 C 52.429688 32.828125 52.320312 32.78125 52.199219 32.742188 C 52.074219 32.699219 51.933594 32.675781 51.777344 32.675781 Z M 51.777344 32.675781 "/>
<path style=" stroke:none;fill-rule:nonzero;fill:rgb(0%,0%,0%);fill-opacity:1;" d="M 17.101562 32.675781 C 16.882812 32.675781 16.691406 32.714844 16.527344 32.785156 C 16.359375 32.859375 16.21875 32.964844 16.101562 33.097656 C 15.996094 33.226562 15.910156 33.386719 15.855469 33.574219 C 15.792969 33.761719 15.765625 33.972656 15.765625 34.199219 C 15.765625 34.433594 15.792969 34.644531 15.855469 34.835938 C 15.917969 35.027344 16.007812 35.1875 16.125 35.324219 C 16.238281 35.460938 16.378906 35.570312 16.546875 35.648438 C 16.722656 35.71875 16.910156 35.753906 17.121094 35.753906 C 17.273438 35.753906 17.40625 35.738281 17.523438 35.703125 C 17.644531 35.660156 17.757812 35.601562 17.859375 35.527344 C 17.960938 35.457031 18.046875 35.375 18.117188 35.28125 C 18.199219 35.1875 18.265625 35.082031 18.324219 34.957031 L 18.746094 35.171875 C 18.683594 35.316406 18.597656 35.449219 18.5 35.570312 C 18.394531 35.695312 18.277344 35.804688 18.140625 35.894531 C 18.003906 35.984375 17.847656 36.050781 17.675781 36.101562 C 17.5 36.148438 17.308594 36.175781 17.101562 36.175781 C 16.789062 36.175781 16.519531 36.128906 16.289062 36.035156 C 16.054688 35.9375 15.859375 35.800781 15.703125 35.625 C 15.550781 35.449219 15.433594 35.238281 15.355469 35 C 15.273438 34.757812 15.238281 34.488281 15.238281 34.199219 C 15.238281 33.90625 15.273438 33.640625 15.355469 33.402344 C 15.441406 33.15625 15.5625 32.953125 15.722656 32.785156 C 15.882812 32.621094 16.078125 32.492188 16.308594 32.398438 C 16.539062 32.304688 16.800781 32.257812 17.101562 32.257812 C 17.503906 32.257812 17.839844 32.335938 18.109375 32.492188 C 18.382812 32.652344 18.585938 32.890625 18.714844 33.207031 L 18.226562 33.367188 C 18.1875 33.277344 18.140625 33.191406 18.074219 33.109375 C 18.015625 33.023438 17.941406 32.953125 17.847656 32.894531 C 17.753906 32.828125 17.644531 32.78125 17.523438 32.742188 C 17.398438 32.699219 17.257812 32.675781 17.101562 32.675781 Z M 17.101562 32.675781 "/>
<path style=" stroke:none;fill-rule:nonzero;fill:rgb(0%,0%,0%);fill-opacity:1;" d="M 34.4375 15.394531 C 34.222656 15.394531 34.03125 15.433594 33.863281 15.503906 C 33.695312 15.578125 33.554688 15.683594 33.441406 15.816406 C 33.332031 15.945312 33.25 16.105469 33.191406 16.292969 C 33.132812 16.480469 33.105469 16.691406 33.105469 16.917969 C 33.105469 17.152344 33.132812 17.363281 33.191406 17.554688 C 33.257812 17.746094 33.347656 17.90625 33.464844 18.042969 C 33.578125 18.179688 33.71875 18.289062 33.886719 18.367188 C 34.058594 18.441406 34.25 18.472656 34.460938 18.472656 C 34.613281 18.472656 34.746094 18.457031 34.863281 18.421875 C 34.984375 18.378906 35.09375 18.320312 35.199219 18.246094 C 35.296875 18.175781 35.382812 18.09375 35.457031 18 C 35.535156 17.90625 35.605469 17.800781 35.664062 17.675781 L 36.085938 17.890625 C 36.019531 18.039062 35.9375 18.167969 35.835938 18.289062 C 35.734375 18.414062 35.613281 18.523438 35.480469 18.613281 C 35.339844 18.703125 35.1875 18.773438 35.011719 18.820312 C 34.839844 18.867188 34.648438 18.894531 34.4375 18.894531 C 34.128906 18.894531 33.855469 18.847656 33.625 18.753906 C 33.394531 18.65625 33.199219 18.519531 33.042969 18.34375 C 32.890625 18.167969 32.773438 17.957031 32.695312 17.71875 C 32.613281 17.476562 32.574219 17.207031 32.574219 16.917969 C 32.574219 16.625 32.613281 16.359375 32.695312 16.121094 C 32.78125 15.878906 32.902344 15.671875 33.0625 15.503906 C 33.21875 15.339844 33.414062 15.210938 33.648438 15.117188 C 33.878906 15.023438 34.140625 14.976562 34.4375 14.976562 C 34.84375 14.976562 35.179688 15.054688 35.445312 15.210938 C 35.71875 15.371094 35.921875 15.609375 36.054688 15.925781 L 35.566406 16.085938 C 35.527344 15.996094 35.480469 15.910156 35.414062 15.828125 C 35.355469 15.742188 35.277344 15.671875 35.1875 15.613281 C 35.09375 15.546875 34.984375 15.5 34.863281 15.460938 C 34.738281 15.417969 34.597656 15.394531 34.4375 15.394531 Z M 34.4375 15.394531 "/>
<path style="fill:none;stroke-width:0.0333333;stroke-linecap:butt;stroke-linejoin:miter;stroke:rgb(0%,0%,0%);stroke-opacity:1;stroke-miterlimit:10;" d="M 1.008187 2.99516 L 0.125723 3.504884 " transform="matrix(17.33871,0,0,17.281106,16.991997,16.935642)"/>
<path style="fill:none;stroke-width:0.0333333;stroke-linecap:butt;stroke-linejoin:miter;stroke:rgb(0%,0%,0%);stroke-opacity:1;stroke-miterlimit:10;" d="M 0.991741 2.99516 L 1.87443 3.504884 " transform="matrix(17.33871,0,0,17.281106,16.991997,16.935642)"/>
<path style="fill:none;stroke-width:0.0333333;stroke-linecap:butt;stroke-linejoin:miter;stroke:rgb(0%,0%,0%);stroke-opacity:1;stroke-miterlimit:10;" d="M 0.991741 3.187747 L 1.707715 3.601177 " transform="matrix(17.33871,0,0,17.281106,16.991997,16.935642)"/>
<path style="fill:none;stroke-width:0.0333333;stroke-linecap:butt;stroke-linejoin:miter;stroke:rgb(0%,0%,0%);stroke-opacity:1;stroke-miterlimit:10;" d="M 0.133834 3.490191 L 0.133834 4.509639 " transform="matrix(17.33871,0,0,17.281106,16.991997,16.935642)"/>
<path style="fill:none;stroke-width:0.0333333;stroke-linecap:butt;stroke-linejoin:miter;stroke:rgb(0%,0%,0%);stroke-opacity:1;stroke-miterlimit:10;" d="M 0.300549 3.586485 L 0.300549 4.413345 " transform="matrix(17.33871,0,0,17.281106,16.991997,16.935642)"/>
<path style="fill:none;stroke-width:0.0333333;stroke-linecap:butt;stroke-linejoin:miter;stroke:rgb(0%,0%,0%);stroke-opacity:1;stroke-miterlimit:10;" d="M 0.125723 4.495172 L 1.008187 5.004896 " transform="matrix(17.33871,0,0,17.281106,16.991997,16.935642)"/>
<path style="fill:none;stroke-width:0.0333333;stroke-linecap:butt;stroke-linejoin:miter;stroke:rgb(0%,0%,0%);stroke-opacity:1;stroke-miterlimit:10;" d="M 0.991741 5.004896 L 1.87443 4.495172 " transform="matrix(17.33871,0,0,17.281106,16.991997,16.935642)"/>
<path style="fill:none;stroke-width:0.0333333;stroke-linecap:butt;stroke-linejoin:miter;stroke:rgb(0%,0%,0%);stroke-opacity:1;stroke-miterlimit:10;" d="M 0.991741 4.812309 L 1.707715 4.398878 " transform="matrix(17.33871,0,0,17.281106,16.991997,16.935642)"/>
<path style="fill:none;stroke-width:0.0333333;stroke-linecap:butt;stroke-linejoin:miter;stroke:rgb(0%,0%,0%);stroke-opacity:1;stroke-miterlimit:10;" d="M 1.866094 4.509639 L 1.866094 3.490191 " transform="matrix(17.33871,0,0,17.281106,16.991997,16.935642)"/>
<path style="fill:none;stroke-width:0.0333333;stroke-linecap:butt;stroke-linejoin:miter;stroke:rgb(0%,0%,0%);stroke-opacity:1;stroke-miterlimit:10;" d="M 0.990389 2.223905 L 1.009764 2.223905 M 0.980701 2.29443 L 1.019451 2.29443 M 0.970789 2.364955 L 1.029139 2.364955 M 0.961101 2.435706 L 1.038826 2.435706 M 0.951414 2.506005 L 1.048514 2.506005 M 0.941726 2.576756 L 1.058201 2.576756 M 0.931813 2.647281 L 1.068114 2.647281 M 0.922126 2.717806 L 1.077802 2.717806 M 0.912438 2.788331 L 1.087489 2.788331 M 0.902751 2.858856 L 1.097177 2.858856 M 0.893063 2.929381 L 1.106864 2.929381 M 0.883376 2.999906 L 1.116777 2.999906 " transform="matrix(17.33871,0,0,17.281106,16.991997,16.935642)"/>
<path style="fill:none;stroke-width:0.0333333;stroke-linecap:butt;stroke-linejoin:miter;stroke:rgb(0%,0%,0%);stroke-opacity:1;stroke-miterlimit:10;" d="M 1.128492 1.999898 L 1.855505 1.999898 " transform="matrix(17.33871,0,0,17.281106,16.991997,16.935642)"/>
<path style="fill:none;stroke-width:0.0333333;stroke-linecap:butt;stroke-linejoin:miter;stroke:rgb(0%,0%,0%);stroke-opacity:1;stroke-miterlimit:10;" d="M 0.871435 1.916715 L 0.152758 1.916715 " transform="matrix(17.33871,0,0,17.281106,16.991997,16.935642)"/>
<path style="fill:none;stroke-width:0.0333333;stroke-linecap:butt;stroke-linejoin:miter;stroke:rgb(0%,0%,0%);stroke-opacity:1;stroke-miterlimit:10;" d="M 0.871435 2.083308 L 0.152758 2.083308 " transform="matrix(17.33871,0,0,17.281106,16.991997,16.935642)"/>
<path style="fill:none;stroke-width:0.0333333;stroke-linecap:butt;stroke-linejoin:miter;stroke:rgb(0%,0%,0%);stroke-opacity:1;stroke-miterlimit:10;" d="M 1.000076 1.846642 L 1.000076 0.99989 " transform="matrix(17.33871,0,0,17.281106,16.991997,16.935642)"/>
<path style="fill:none;stroke-width:0.0333333;stroke-linecap:butt;stroke-linejoin:miter;stroke:rgb(0%,0%,0%);stroke-opacity:1;stroke-miterlimit:10;" d="M 1.000076 0.99989 L 1.855505 0.99989 " transform="matrix(17.33871,0,0,17.281106,16.991997,16.935642)"/>
<path style="fill:none;stroke-width:0.0333333;stroke-linecap:butt;stroke-linejoin:miter;stroke:rgb(0%,0%,0%);stroke-opacity:1;stroke-miterlimit:10;" d="M 1.000076 0.99989 L 0.144422 0.99989 " transform="matrix(17.33871,0,0,17.281106,16.991997,16.935642)"/>
<path style="fill:none;stroke-width:0.0333333;stroke-linecap:butt;stroke-linejoin:miter;stroke:rgb(0%,0%,0%);stroke-opacity:1;stroke-miterlimit:10;" d="M 1.000076 0.99989 L 1.000076 0.156754 " transform="matrix(17.33871,0,0,17.281106,16.991997,16.935642)"/>
</g>
</svg>
