<?xml version="1.0" encoding="UTF-8"?>
<svg xmlns="http://www.w3.org/2000/svg" xmlns:xlink="http://www.w3.org/1999/xlink" width="124.8pt" height="149.6pt" viewBox="0 0 124.8 149.6" version="1.1">
<g id="surface1807">
<path style=" stroke:none;fill-rule:nonzero;fill:rgb(0%,0%,47.058824%);fill-opacity:1;" d="M 17.632812 44.289062 C 17.785156 44.289062 17.914062 44.265625 18.023438 44.222656 C 18.132812 44.179688 18.222656 44.125 18.304688 44.0625 C 18.382812 43.992188 18.449219 43.910156 18.5 43.824219 C 18.558594 43.734375 18.605469 43.648438 18.640625 43.5625 L 19.335938 43.824219 C 19.273438 43.960938 19.199219 44.097656 19.105469 44.234375 C 19.019531 44.363281 18.90625 44.480469 18.769531 44.582031 C 18.640625 44.683594 18.480469 44.765625 18.292969 44.828125 C 18.105469 44.886719 17.886719 44.914062 17.632812 44.914062 C 17.300781 44.914062 17.011719 44.867188 16.765625 44.773438 C 16.527344 44.675781 16.328125 44.535156 16.171875 44.363281 C 16.011719 44.183594 15.890625 43.972656 15.8125 43.734375 C 15.742188 43.492188 15.707031 43.226562 15.707031 42.933594 C 15.707031 42.640625 15.742188 42.371094 15.8125 42.132812 C 15.890625 41.890625 16.007812 41.683594 16.160156 41.519531 C 16.316406 41.351562 16.519531 41.222656 16.757812 41.128906 C 16.996094 41.035156 17.277344 40.988281 17.601562 40.988281 C 17.84375 40.988281 18.0625 41.015625 18.25 41.074219 C 18.4375 41.125 18.601562 41.199219 18.738281 41.289062 C 18.875 41.386719 18.988281 41.496094 19.074219 41.625 C 19.160156 41.753906 19.230469 41.894531 19.28125 42.046875 L 18.578125 42.242188 C 18.554688 42.164062 18.515625 42.089844 18.457031 42.015625 C 18.40625 41.9375 18.339844 41.871094 18.261719 41.808594 C 18.179688 41.753906 18.089844 41.707031 17.980469 41.667969 C 17.871094 41.632812 17.746094 41.613281 17.613281 41.613281 C 17.417969 41.613281 17.25 41.648438 17.113281 41.710938 C 16.976562 41.777344 16.859375 41.871094 16.765625 41.984375 C 16.679688 42.097656 16.617188 42.238281 16.574219 42.394531 C 16.527344 42.554688 16.507812 42.734375 16.507812 42.933594 C 16.507812 43.136719 16.527344 43.320312 16.574219 43.488281 C 16.617188 43.648438 16.679688 43.789062 16.765625 43.910156 C 16.859375 44.027344 16.976562 44.121094 17.113281 44.191406 C 17.257812 44.253906 17.429688 44.289062 17.632812 44.289062 Z M 17.632812 44.289062 "/>
<path style=" stroke:none;fill-rule:nonzero;fill:rgb(0%,0%,0%);fill-opacity:1;" d="M 79.460938 42.933594 C 79.460938 43.234375 79.417969 43.503906 79.328125 43.746094 C 79.242188 43.992188 79.117188 44.203125 78.949219 44.375 C 78.789062 44.546875 78.59375 44.683594 78.355469 44.773438 C 78.121094 44.867188 77.859375 44.914062 77.5625 44.914062 C 77.246094 44.914062 76.96875 44.867188 76.730469 44.773438 C 76.496094 44.675781 76.300781 44.535156 76.144531 44.363281 C 75.984375 44.183594 75.867188 43.972656 75.789062 43.734375 C 75.707031 43.492188 75.667969 43.226562 75.667969 42.933594 C 75.667969 42.640625 75.707031 42.371094 75.789062 42.132812 C 75.875 41.890625 75.996094 41.683594 76.15625 41.519531 C 76.320312 41.351562 76.519531 41.222656 76.75 41.128906 C 76.988281 41.035156 77.261719 40.988281 77.5625 40.988281 C 77.867188 40.988281 78.136719 41.035156 78.375 41.128906 C 78.613281 41.222656 78.8125 41.355469 78.972656 41.527344 C 79.128906 41.695312 79.25 41.894531 79.328125 42.132812 C 79.417969 42.371094 79.460938 42.640625 79.460938 42.933594 Z M 78.929688 42.933594 C 78.929688 42.707031 78.898438 42.496094 78.84375 42.308594 C 78.78125 42.121094 78.695312 41.960938 78.582031 41.832031 C 78.464844 41.695312 78.324219 41.589844 78.148438 41.519531 C 77.980469 41.449219 77.785156 41.410156 77.5625 41.410156 C 77.339844 41.410156 77.140625 41.449219 76.96875 41.519531 C 76.792969 41.589844 76.648438 41.695312 76.535156 41.832031 C 76.425781 41.960938 76.34375 42.121094 76.285156 42.308594 C 76.226562 42.496094 76.199219 42.707031 76.199219 42.933594 C 76.199219 43.167969 76.226562 43.378906 76.285156 43.574219 C 76.34375 43.761719 76.429688 43.925781 76.546875 44.0625 C 76.660156 44.199219 76.800781 44.308594 76.96875 44.386719 C 77.140625 44.457031 77.339844 44.492188 77.5625 44.492188 C 77.800781 44.492188 78.007812 44.457031 78.179688 44.386719 C 78.355469 44.308594 78.496094 44.199219 78.605469 44.0625 C 78.710938 43.917969 78.789062 43.753906 78.84375 43.5625 C 78.898438 43.367188 78.929688 43.160156 78.929688 42.933594 Z M 78.929688 42.933594 "/>
<path style=" stroke:none;fill-rule:nonzero;fill:rgb(0%,0%,0%);fill-opacity:1;" d="M 107.695312 41.410156 C 107.476562 41.410156 107.285156 41.449219 107.121094 41.519531 C 106.953125 41.589844 106.8125 41.695312 106.699219 41.832031 C 106.589844 41.960938 106.503906 42.121094 106.449219 42.308594 C 106.390625 42.496094 106.363281 42.707031 106.363281 42.933594 C 106.363281 43.167969 106.390625 43.378906 106.449219 43.574219 C 106.511719 43.761719 106.601562 43.925781 106.71875 44.0625 C 106.832031 44.199219 106.972656 44.308594 107.140625 44.386719 C 107.316406 44.457031 107.503906 44.492188 107.714844 44.492188 C 107.867188 44.492188 108 44.476562 108.117188 44.441406 C 108.238281 44.394531 108.347656 44.339844 108.453125 44.265625 C 108.550781 44.195312 108.640625 44.113281 108.710938 44.015625 C 108.792969 43.925781 108.859375 43.816406 108.917969 43.691406 L 109.339844 43.910156 C 109.277344 44.054688 109.191406 44.1875 109.089844 44.308594 C 108.988281 44.433594 108.871094 44.542969 108.734375 44.632812 C 108.597656 44.722656 108.441406 44.792969 108.269531 44.839844 C 108.09375 44.886719 107.902344 44.914062 107.695312 44.914062 C 107.382812 44.914062 107.113281 44.867188 106.882812 44.773438 C 106.648438 44.675781 106.453125 44.535156 106.296875 44.363281 C 106.144531 44.183594 106.027344 43.972656 105.949219 43.734375 C 105.867188 43.492188 105.832031 43.226562 105.832031 42.933594 C 105.832031 42.640625 105.867188 42.371094 105.949219 42.132812 C 106.035156 41.890625 106.160156 41.683594 106.316406 41.519531 C 106.476562 41.351562 106.671875 41.222656 106.902344 41.128906 C 107.132812 41.035156 107.394531 40.988281 107.695312 40.988281 C 108.097656 40.988281 108.433594 41.070312 108.703125 41.226562 C 108.976562 41.386719 109.179688 41.625 109.308594 41.941406 L 108.820312 42.101562 C 108.78125 42.011719 108.734375 41.921875 108.667969 41.84375 C 108.609375 41.753906 108.535156 41.683594 108.441406 41.625 C 108.347656 41.5625 108.238281 41.511719 108.117188 41.472656 C 107.992188 41.429688 107.851562 41.410156 107.695312 41.410156 Z M 107.695312 41.410156 "/>
<path style=" stroke:none;fill-rule:nonzero;fill:rgb(0%,0%,47.058824%);fill-opacity:1;" d="M 34.457031 16.964844 C 34.457031 17.261719 34.410156 17.53125 34.316406 17.773438 C 34.230469 18.019531 34.101562 18.230469 33.9375 18.402344 C 33.769531 18.574219 33.570312 18.710938 33.332031 18.804688 C 33.09375 18.894531 32.824219 18.945312 32.519531 18.945312 C 32.199219 18.945312 31.921875 18.894531 31.683594 18.804688 C 31.445312 18.703125 31.242188 18.566406 31.078125 18.390625 C 30.917969 18.214844 30.800781 18.003906 30.71875 17.765625 C 30.640625 17.519531 30.601562 17.253906 30.601562 16.964844 C 30.601562 16.667969 30.640625 16.398438 30.71875 16.164062 C 30.808594 15.917969 30.933594 15.714844 31.101562 15.546875 C 31.265625 15.378906 31.46875 15.25 31.707031 15.15625 C 31.945312 15.0625 32.21875 15.015625 32.53125 15.015625 C 32.839844 15.015625 33.113281 15.0625 33.351562 15.15625 C 33.589844 15.25 33.789062 15.382812 33.949219 15.554688 C 34.113281 15.722656 34.242188 15.925781 34.328125 16.164062 C 34.414062 16.398438 34.457031 16.667969 34.457031 16.964844 Z M 33.644531 16.964844 C 33.644531 16.761719 33.617188 16.582031 33.570312 16.421875 C 33.519531 16.265625 33.445312 16.128906 33.351562 16.011719 C 33.257812 15.898438 33.140625 15.804688 33.007812 15.742188 C 32.867188 15.675781 32.707031 15.644531 32.53125 15.644531 C 32.339844 15.644531 32.175781 15.675781 32.03125 15.742188 C 31.894531 15.804688 31.777344 15.898438 31.683594 16.011719 C 31.589844 16.128906 31.515625 16.265625 31.46875 16.421875 C 31.425781 16.582031 31.402344 16.761719 31.402344 16.964844 C 31.402344 17.164062 31.425781 17.351562 31.480469 17.515625 C 31.527344 17.675781 31.601562 17.816406 31.695312 17.9375 C 31.789062 18.054688 31.902344 18.148438 32.042969 18.21875 C 32.175781 18.285156 32.335938 18.316406 32.519531 18.316406 C 32.714844 18.316406 32.878906 18.285156 33.015625 18.21875 C 33.160156 18.148438 33.28125 18.054688 33.375 17.9375 C 33.46875 17.816406 33.539062 17.671875 33.582031 17.503906 C 33.625 17.339844 33.644531 17.15625 33.644531 16.964844 Z M 33.644531 16.964844 "/>
<path style=" stroke:none;fill-rule:nonzero;fill:rgb(0%,0%,0%);fill-opacity:1;" d="M 64.449219 16.964844 C 64.449219 17.261719 64.40625 17.53125 64.320312 17.773438 C 64.234375 18.019531 64.105469 18.230469 63.941406 18.402344 C 63.78125 18.574219 63.582031 18.710938 63.34375 18.804688 C 63.113281 18.894531 62.847656 18.945312 62.554688 18.945312 C 62.234375 18.945312 61.957031 18.894531 61.71875 18.804688 C 61.488281 18.703125 61.292969 18.566406 61.136719 18.390625 C 60.976562 18.214844 60.855469 18.003906 60.777344 17.765625 C 60.695312 17.519531 60.660156 17.253906 60.660156 16.964844 C 60.660156 16.667969 60.695312 16.398438 60.777344 16.164062 C 60.863281 15.917969 60.984375 15.714844 61.144531 15.546875 C 61.3125 15.378906 61.507812 15.25 61.742188 15.15625 C 61.980469 15.0625 62.25 15.015625 62.554688 15.015625 C 62.859375 15.015625 63.128906 15.0625 63.367188 15.15625 C 63.605469 15.25 63.804688 15.382812 63.960938 15.554688 C 64.121094 15.722656 64.238281 15.925781 64.320312 16.164062 C 64.40625 16.398438 64.449219 16.667969 64.449219 16.964844 Z M 63.917969 16.964844 C 63.917969 16.734375 63.890625 16.523438 63.832031 16.335938 C 63.773438 16.148438 63.6875 15.988281 63.574219 15.859375 C 63.457031 15.722656 63.3125 15.617188 63.140625 15.546875 C 62.972656 15.476562 62.777344 15.4375 62.554688 15.4375 C 62.328125 15.4375 62.132812 15.476562 61.957031 15.546875 C 61.785156 15.617188 61.640625 15.722656 61.523438 15.859375 C 61.417969 15.988281 61.332031 16.148438 61.277344 16.335938 C 61.214844 16.523438 61.1875 16.734375 61.1875 16.964844 C 61.1875 17.195312 61.214844 17.40625 61.277344 17.601562 C 61.332031 17.789062 61.417969 17.953125 61.535156 18.089844 C 61.648438 18.226562 61.789062 18.335938 61.957031 18.414062 C 62.132812 18.484375 62.328125 18.519531 62.554688 18.519531 C 62.792969 18.519531 63 18.484375 63.171875 18.414062 C 63.34375 18.335938 63.484375 18.226562 63.59375 18.089844 C 63.703125 17.945312 63.78125 17.78125 63.832031 17.589844 C 63.890625 17.394531 63.917969 17.1875 63.917969 16.964844 Z M 63.917969 16.964844 "/>
<path style=" stroke:none;fill-rule:nonzero;fill:rgb(0%,0%,47.058824%);fill-opacity:1;" d="M 46.933594 58.980469 L 46.933594 60.15625 L 48.886719 60.15625 L 48.886719 60.773438 L 46.933594 60.773438 L 46.933594 62.171875 L 46.132812 62.171875 L 46.132812 58.363281 L 48.949219 58.363281 L 48.949219 58.980469 Z M 46.933594 58.980469 "/>
<path style=" stroke:none;fill-rule:nonzero;fill:rgb(0%,0%,0%);fill-opacity:1;" d="M 16.378906 79.191406 L 16.378906 80.609375 L 18.5 80.609375 L 18.5 81.03125 L 16.378906 81.03125 L 16.378906 82.578125 L 15.855469 82.578125 L 15.855469 78.769531 L 18.566406 78.769531 L 18.566406 79.191406 Z M 16.378906 79.191406 "/>
<path style=" stroke:none;fill-rule:nonzero;fill:rgb(0%,0%,0%);fill-opacity:1;" d="M 46.71875 131.144531 C 46.503906 131.144531 46.308594 131.183594 46.144531 131.253906 C 45.976562 131.328125 45.835938 131.433594 45.722656 131.566406 C 45.613281 131.699219 45.53125 131.859375 45.472656 132.042969 C 45.414062 132.234375 45.386719 132.441406 45.386719 132.671875 C 45.386719 132.90625 45.414062 133.117188 45.472656 133.3125 C 45.539062 133.5 45.628906 133.664062 45.742188 133.796875 C 45.859375 133.933594 46 134.042969 46.167969 134.121094 C 46.339844 134.195312 46.527344 134.230469 46.742188 134.230469 C 46.890625 134.230469 47.023438 134.214844 47.140625 134.175781 C 47.261719 134.132812 47.375 134.078125 47.476562 134.003906 C 47.578125 133.933594 47.664062 133.847656 47.738281 133.753906 C 47.816406 133.664062 47.882812 133.554688 47.941406 133.429688 L 48.367188 133.644531 C 48.300781 133.792969 48.214844 133.925781 48.117188 134.046875 C 48.011719 134.171875 47.894531 134.277344 47.757812 134.371094 C 47.621094 134.457031 47.464844 134.527344 47.292969 134.578125 C 47.121094 134.625 46.925781 134.652344 46.71875 134.652344 C 46.40625 134.652344 46.136719 134.605469 45.90625 134.511719 C 45.671875 134.410156 45.476562 134.273438 45.320312 134.101562 C 45.167969 133.921875 45.054688 133.710938 44.972656 133.472656 C 44.894531 133.230469 44.855469 132.960938 44.855469 132.671875 C 44.855469 132.378906 44.894531 132.109375 44.972656 131.871094 C 45.0625 131.628906 45.183594 131.421875 45.34375 131.253906 C 45.5 131.089844 45.695312 130.960938 45.929688 130.863281 C 46.15625 130.773438 46.421875 130.722656 46.71875 130.722656 C 47.121094 130.722656 47.457031 130.804688 47.726562 130.960938 C 48 131.121094 48.203125 131.359375 48.332031 131.675781 L 47.84375 131.839844 C 47.808594 131.746094 47.757812 131.660156 47.695312 131.578125 C 47.632812 131.492188 47.558594 131.421875 47.464844 131.363281 C 47.371094 131.296875 47.261719 131.25 47.140625 131.210938 C 47.015625 131.167969 46.875 131.144531 46.71875 131.144531 Z M 46.71875 131.144531 "/>
<path style=" stroke:none;fill-rule:nonzero;fill:rgb(0%,0%,0%);fill-opacity:1;" d="M 49.121094 134.597656 L 49.121094 130.582031 L 49.609375 130.582031 L 49.609375 134.597656 Z M 49.121094 134.597656 "/>
<path style=" stroke:none;fill-rule:nonzero;fill:rgb(0%,0%,47.058824%);fill-opacity:1;" d="M 79.183594 63.34375 C 79.183594 63.640625 79.136719 63.910156 79.042969 64.152344 C 78.957031 64.398438 78.828125 64.609375 78.664062 64.78125 C 78.496094 64.953125 78.296875 65.089844 78.058594 65.183594 C 77.820312 65.273438 77.546875 65.324219 77.246094 65.324219 C 76.925781 65.324219 76.648438 65.273438 76.410156 65.183594 C 76.171875 65.082031 75.96875 64.945312 75.804688 64.769531 C 75.644531 64.59375 75.523438 64.382812 75.445312 64.144531 C 75.363281 63.898438 75.328125 63.632812 75.328125 63.34375 C 75.328125 63.046875 75.363281 62.78125 75.445312 62.542969 C 75.53125 62.296875 75.65625 62.09375 75.824219 61.925781 C 75.992188 61.761719 76.195312 61.628906 76.433594 61.535156 C 76.671875 61.441406 76.945312 61.394531 77.253906 61.394531 C 77.5625 61.394531 77.839844 61.441406 78.078125 61.535156 C 78.316406 61.628906 78.515625 61.761719 78.675781 61.9375 C 78.839844 62.101562 78.96875 62.304688 79.054688 62.542969 C 79.140625 62.78125 79.183594 63.046875 79.183594 63.34375 Z M 78.371094 63.34375 C 78.371094 63.140625 78.34375 62.960938 78.296875 62.800781 C 78.242188 62.644531 78.171875 62.507812 78.078125 62.390625 C 77.984375 62.277344 77.867188 62.183594 77.730469 62.121094 C 77.59375 62.054688 77.433594 62.023438 77.253906 62.023438 C 77.066406 62.023438 76.902344 62.054688 76.757812 62.121094 C 76.617188 62.183594 76.503906 62.277344 76.410156 62.390625 C 76.316406 62.507812 76.242188 62.644531 76.195312 62.800781 C 76.148438 62.960938 76.128906 63.140625 76.128906 63.34375 C 76.128906 63.546875 76.152344 63.730469 76.203125 63.894531 C 76.253906 64.054688 76.328125 64.195312 76.421875 64.316406 C 76.511719 64.433594 76.628906 64.527344 76.769531 64.597656 C 76.902344 64.664062 77.0625 64.695312 77.246094 64.695312 C 77.4375 64.695312 77.605469 64.664062 77.742188 64.597656 C 77.886719 64.527344 78.003906 64.433594 78.101562 64.316406 C 78.191406 64.195312 78.261719 64.050781 78.304688 63.882812 C 78.347656 63.71875 78.371094 63.539062 78.371094 63.34375 Z M 78.371094 63.34375 "/>
<path style=" stroke:none;fill-rule:nonzero;fill:rgb(0%,0%,47.058824%);fill-opacity:1;" d="M 92.382812 107.980469 C 92.53125 107.980469 92.664062 107.960938 92.769531 107.917969 C 92.878906 107.875 92.972656 107.820312 93.054688 107.753906 C 93.132812 107.683594 93.195312 107.601562 93.246094 107.515625 C 93.304688 107.429688 93.351562 107.34375 93.390625 107.257812 L 94.082031 107.515625 C 94.023438 107.65625 93.945312 107.792969 93.855469 107.929688 C 93.769531 108.058594 93.652344 108.175781 93.519531 108.273438 C 93.390625 108.378906 93.230469 108.457031 93.042969 108.523438 C 92.851562 108.582031 92.632812 108.609375 92.382812 108.609375 C 92.046875 108.609375 91.757812 108.5625 91.515625 108.46875 C 91.277344 108.367188 91.074219 108.230469 90.917969 108.058594 C 90.757812 107.878906 90.640625 107.667969 90.5625 107.429688 C 90.488281 107.1875 90.453125 106.917969 90.453125 106.628906 C 90.453125 106.335938 90.488281 106.066406 90.5625 105.828125 C 90.640625 105.585938 90.757812 105.378906 90.90625 105.210938 C 91.066406 105.046875 91.265625 104.917969 91.503906 104.820312 C 91.742188 104.730469 92.023438 104.679688 92.347656 104.679688 C 92.59375 104.679688 92.808594 104.710938 93 104.769531 C 93.1875 104.820312 93.347656 104.894531 93.484375 104.984375 C 93.621094 105.078125 93.734375 105.191406 93.820312 105.320312 C 93.910156 105.449219 93.976562 105.589844 94.027344 105.742188 L 93.324219 105.9375 C 93.300781 105.859375 93.261719 105.78125 93.203125 105.710938 C 93.152344 105.632812 93.089844 105.5625 93.007812 105.503906 C 92.929688 105.445312 92.835938 105.402344 92.726562 105.363281 C 92.621094 105.328125 92.496094 105.308594 92.359375 105.308594 C 92.164062 105.308594 91.996094 105.339844 91.859375 105.40625 C 91.722656 105.472656 91.605469 105.5625 91.515625 105.675781 C 91.429688 105.792969 91.363281 105.929688 91.320312 106.089844 C 91.277344 106.246094 91.253906 106.429688 91.253906 106.628906 C 91.253906 106.832031 91.277344 107.015625 91.320312 107.179688 C 91.363281 107.339844 91.429688 107.480469 91.515625 107.601562 C 91.605469 107.71875 91.722656 107.816406 91.859375 107.886719 C 92.003906 107.949219 92.179688 107.980469 92.382812 107.980469 Z M 92.382812 107.980469 "/>
<path style=" stroke:none;fill-rule:nonzero;fill:rgb(0%,0%,47.058824%);fill-opacity:1;" d="M 107.390625 82.011719 C 107.542969 82.011719 107.671875 81.988281 107.78125 81.945312 C 107.890625 81.902344 107.980469 81.847656 108.0625 81.78125 C 108.140625 81.710938 108.207031 81.632812 108.257812 81.542969 C 108.3125 81.457031 108.359375 81.371094 108.398438 81.285156 L 109.089844 81.542969 C 109.03125 81.683594 108.957031 81.820312 108.863281 81.957031 C 108.777344 82.085938 108.664062 82.203125 108.527344 82.300781 C 108.398438 82.40625 108.238281 82.484375 108.050781 82.550781 C 107.863281 82.609375 107.644531 82.636719 107.390625 82.636719 C 107.058594 82.636719 106.769531 82.589844 106.523438 82.496094 C 106.285156 82.398438 106.085938 82.257812 105.929688 82.085938 C 105.769531 81.90625 105.648438 81.695312 105.570312 81.457031 C 105.496094 81.214844 105.460938 80.945312 105.460938 80.65625 C 105.460938 80.363281 105.496094 80.09375 105.570312 79.855469 C 105.648438 79.613281 105.765625 79.40625 105.917969 79.238281 C 106.074219 79.074219 106.273438 78.945312 106.511719 78.851562 C 106.75 78.757812 107.035156 78.710938 107.359375 78.710938 C 107.601562 78.710938 107.820312 78.738281 108.007812 78.796875 C 108.195312 78.847656 108.359375 78.921875 108.496094 79.011719 C 108.632812 79.105469 108.746094 79.21875 108.832031 79.347656 C 108.917969 79.476562 108.984375 79.617188 109.039062 79.769531 L 108.332031 79.964844 C 108.3125 79.886719 108.269531 79.808594 108.214844 79.738281 C 108.164062 79.660156 108.097656 79.589844 108.019531 79.53125 C 107.9375 79.476562 107.847656 79.429688 107.738281 79.390625 C 107.628906 79.355469 107.503906 79.335938 107.371094 79.335938 C 107.175781 79.335938 107.007812 79.371094 106.871094 79.433594 C 106.734375 79.5 106.617188 79.589844 106.523438 79.703125 C 106.4375 79.820312 106.371094 79.960938 106.328125 80.117188 C 106.285156 80.277344 106.265625 80.457031 106.265625 80.65625 C 106.265625 80.859375 106.285156 81.042969 106.328125 81.210938 C 106.371094 81.367188 106.4375 81.507812 106.523438 81.632812 C 106.617188 81.746094 106.734375 81.84375 106.871094 81.914062 C 107.015625 81.976562 107.1875 82.011719 107.390625 82.011719 Z M 107.390625 82.011719 "/>
<path style=" stroke:none;fill-rule:nonzero;fill:rgb(0%,0%,0%);fill-opacity:1;" d="M 107.386719 96.445312 C 107.167969 96.445312 106.976562 96.484375 106.8125 96.554688 C 106.644531 96.628906 106.503906 96.734375 106.390625 96.867188 C 106.28125 97 106.195312 97.15625 106.140625 97.34375 C 106.078125 97.535156 106.054688 97.742188 106.054688 97.972656 C 106.054688 98.203125 106.078125 98.414062 106.140625 98.609375 C 106.203125 98.800781 106.292969 98.960938 106.410156 99.097656 C 106.523438 99.234375 106.664062 99.34375 106.832031 99.421875 C 107.007812 99.496094 107.195312 99.53125 107.40625 99.53125 C 107.558594 99.53125 107.691406 99.515625 107.808594 99.476562 C 107.929688 99.433594 108.039062 99.375 108.144531 99.304688 C 108.242188 99.234375 108.332031 99.148438 108.402344 99.054688 C 108.480469 98.960938 108.550781 98.855469 108.609375 98.730469 L 109.03125 98.945312 C 108.96875 99.09375 108.882812 99.226562 108.78125 99.347656 C 108.679688 99.472656 108.5625 99.578125 108.425781 99.671875 C 108.289062 99.757812 108.132812 99.828125 107.960938 99.875 C 107.785156 99.925781 107.59375 99.953125 107.386719 99.953125 C 107.074219 99.953125 106.804688 99.902344 106.574219 99.8125 C 106.339844 99.710938 106.144531 99.574219 105.988281 99.402344 C 105.835938 99.222656 105.71875 99.011719 105.640625 98.773438 C 105.558594 98.53125 105.523438 98.261719 105.523438 97.972656 C 105.523438 97.675781 105.558594 97.410156 105.640625 97.171875 C 105.726562 96.929688 105.851562 96.722656 106.007812 96.554688 C 106.167969 96.390625 106.363281 96.257812 106.59375 96.164062 C 106.824219 96.074219 107.085938 96.023438 107.386719 96.023438 C 107.789062 96.023438 108.125 96.105469 108.394531 96.261719 C 108.667969 96.421875 108.871094 96.660156 109 96.976562 L 108.511719 97.140625 C 108.472656 97.046875 108.425781 96.960938 108.359375 96.878906 C 108.300781 96.792969 108.226562 96.722656 108.132812 96.664062 C 108.039062 96.597656 107.929688 96.550781 107.808594 96.511719 C 107.683594 96.46875 107.542969 96.445312 107.386719 96.445312 Z M 107.386719 96.445312 "/>
<path style="fill:none;stroke-width:0.06;stroke-linecap:butt;stroke-linejoin:miter;stroke:rgb(0%,0%,47.058824%);stroke-opacity:1;stroke-miterlimit:10;" d="M 0.196668 1.396688 L 0.898666 0.991282 " transform="matrix(17.333333,0,0,17.314815,17.212189,16.980672)"/>
<path style="fill:none;stroke-width:0.06;stroke-linecap:butt;stroke-linejoin:miter;stroke:rgb(0%,0%,47.058824%);stroke-opacity:1;stroke-miterlimit:10;" d="M 0.868693 0.991282 L 1.749853 1.500013 " transform="matrix(17.333333,0,0,17.314815,17.212189,16.980672)"/>
<path style="fill:none;stroke-width:0.06;stroke-linecap:butt;stroke-linejoin:miter;stroke:rgb(0%,0%,47.058824%);stroke-opacity:1;stroke-miterlimit:10;" d="M 1.749853 1.500013 L 2.624252 0.995343 " transform="matrix(17.333333,0,0,17.314815,17.212189,16.980672)"/>
<path style="fill:none;stroke-width:0.0333333;stroke-linecap:butt;stroke-linejoin:miter;stroke:rgb(0%,0%,0%);stroke-opacity:1;stroke-miterlimit:10;" d="M 2.607575 0.995343 L 3.299432 1.394657 " transform="matrix(17.333333,0,0,17.314815,17.212189,16.980672)"/>
<path style="fill:none;stroke-width:0.0333333;stroke-linecap:butt;stroke-linejoin:miter;stroke:rgb(0%,0%,0%);stroke-opacity:1;stroke-miterlimit:10;" d="M 3.664291 1.394657 L 4.356148 0.995343 " transform="matrix(17.333333,0,0,17.314815,17.212189,16.980672)"/>
<path style="fill:none;stroke-width:0.0333333;stroke-linecap:butt;stroke-linejoin:miter;stroke:rgb(0%,0%,0%);stroke-opacity:1;stroke-miterlimit:10;" d="M 4.339696 0.995343 L 5.037638 1.398267 " transform="matrix(17.333333,0,0,17.314815,17.212189,16.980672)"/>
<path style="fill:none;stroke-width:0.06;stroke-linecap:butt;stroke-linejoin:miter;stroke:rgb(0%,0%,47.058824%);stroke-opacity:1;stroke-miterlimit:10;" d="M 0.967175 1.048133 L 0.967175 0.156781 " transform="matrix(17.333333,0,0,17.314815,17.212189,16.980672)"/>
<path style="fill:none;stroke-width:0.06;stroke-linecap:butt;stroke-linejoin:miter;stroke:rgb(0%,0%,47.058824%);stroke-opacity:1;stroke-miterlimit:10;" d="M 0.800409 1.048133 L 0.800409 0.156781 " transform="matrix(17.333333,0,0,17.314815,17.212189,16.980672)"/>
<path style="fill:none;stroke-width:0.0333333;stroke-linecap:butt;stroke-linejoin:miter;stroke:rgb(0%,0%,0%);stroke-opacity:1;stroke-miterlimit:10;" d="M 2.699071 1.048133 L 2.699071 0.156781 " transform="matrix(17.333333,0,0,17.314815,17.212189,16.980672)"/>
<path style="fill:none;stroke-width:0.0333333;stroke-linecap:butt;stroke-linejoin:miter;stroke:rgb(0%,0%,0%);stroke-opacity:1;stroke-miterlimit:10;" d="M 2.53253 1.048133 L 2.53253 0.156781 " transform="matrix(17.333333,0,0,17.314815,17.212189,16.980672)"/>
<path style="fill:none;stroke-width:0.06;stroke-linecap:butt;stroke-linejoin:miter;stroke:rgb(0%,0%,47.058824%);stroke-opacity:1;stroke-miterlimit:10;" d="M 1.749853 1.500013 L 1.749853 2.346696 " transform="matrix(17.333333,0,0,17.314815,17.212189,16.980672)"/>
<path style="fill:none;stroke-width:0.0333333;stroke-linecap:butt;stroke-linejoin:miter;stroke:rgb(0%,0%,0%);stroke-opacity:1;stroke-miterlimit:10;" d="M 1.740162 3.67391 L 0.857876 4.183319 " transform="matrix(17.333333,0,0,17.314815,17.212189,16.980672)"/>
<path style="fill:none;stroke-width:0.0333333;stroke-linecap:butt;stroke-linejoin:miter;stroke:rgb(0%,0%,0%);stroke-opacity:1;stroke-miterlimit:10;" d="M 0.865989 4.178581 L 0.865989 5.188148 " transform="matrix(17.333333,0,0,17.314815,17.212189,16.980672)"/>
<path style="fill:none;stroke-width:0.0333333;stroke-linecap:butt;stroke-linejoin:miter;stroke:rgb(0%,0%,0%);stroke-opacity:1;stroke-miterlimit:10;" d="M 1.032755 4.274687 L 1.032755 5.092042 " transform="matrix(17.333333,0,0,17.314815,17.212189,16.980672)"/>
<path style="fill:none;stroke-width:0.0333333;stroke-linecap:butt;stroke-linejoin:miter;stroke:rgb(0%,0%,0%);stroke-opacity:1;stroke-miterlimit:10;" d="M 0.857876 5.173935 L 1.740162 5.683344 " transform="matrix(17.333333,0,0,17.314815,17.212189,16.980672)"/>
<path style="fill:none;stroke-width:0.0333333;stroke-linecap:butt;stroke-linejoin:miter;stroke:rgb(0%,0%,0%);stroke-opacity:1;stroke-miterlimit:10;" d="M 1.732049 5.678606 L 2.606448 5.173935 " transform="matrix(17.333333,0,0,17.314815,17.212189,16.980672)"/>
<path style="fill:none;stroke-width:0.0333333;stroke-linecap:butt;stroke-linejoin:miter;stroke:rgb(0%,0%,0%);stroke-opacity:1;stroke-miterlimit:10;" d="M 1.732049 5.486168 L 2.439907 5.077604 " transform="matrix(17.333333,0,0,17.314815,17.212189,16.980672)"/>
<path style="fill:none;stroke-width:0.0333333;stroke-linecap:butt;stroke-linejoin:miter;stroke:rgb(0%,0%,0%);stroke-opacity:1;stroke-miterlimit:10;" d="M 2.59811 5.188148 L 2.59811 4.16888 " transform="matrix(17.333333,0,0,17.314815,17.212189,16.980672)"/>
<path style="fill:none;stroke-width:0.0333333;stroke-linecap:butt;stroke-linejoin:miter;stroke:rgb(0%,0%,0%);stroke-opacity:1;stroke-miterlimit:10;" d="M 1.723711 3.67391 L 2.59811 4.178581 " transform="matrix(17.333333,0,0,17.314815,17.212189,16.980672)"/>
<path style="fill:none;stroke-width:0.0333333;stroke-linecap:butt;stroke-linejoin:miter;stroke:rgb(0%,0%,0%);stroke-opacity:1;stroke-miterlimit:10;" d="M 1.723711 3.866123 L 2.431343 4.274687 " transform="matrix(17.333333,0,0,17.314815,17.212189,16.980672)"/>
<path style="fill:none;stroke-width:0.0333333;stroke-linecap:butt;stroke-linejoin:miter;stroke:rgb(0%,0%,0%);stroke-opacity:1;stroke-miterlimit:10;" d="M 0.874327 4.183319 L 0.157455 3.769565 " transform="matrix(17.333333,0,0,17.314815,17.212189,16.980672)"/>
<path style="fill:none;stroke-width:0.0333333;stroke-linecap:butt;stroke-linejoin:miter;stroke:rgb(0%,0%,0%);stroke-opacity:1;stroke-miterlimit:10;" d="M 1.732049 5.668905 L 1.732049 6.517844 " transform="matrix(17.333333,0,0,17.314815,17.212189,16.980672)"/>
<path style="fill:none;stroke-width:0.06;stroke-linecap:butt;stroke-linejoin:miter;stroke:rgb(0%,0%,47.058824%);stroke-opacity:1;stroke-miterlimit:10;" d="M 2.589772 4.183319 L 3.47927 3.66985 " transform="matrix(17.333333,0,0,17.314815,17.212189,16.980672)"/>
<path style="fill:none;stroke-width:0.06;stroke-linecap:butt;stroke-linejoin:miter;stroke:rgb(0%,0%,47.058824%);stroke-opacity:1;stroke-miterlimit:10;" d="M 3.547554 3.726701 L 3.547554 2.835349 " transform="matrix(17.333333,0,0,17.314815,17.212189,16.980672)"/>
<path style="fill:none;stroke-width:0.06;stroke-linecap:butt;stroke-linejoin:miter;stroke:rgb(0%,0%,47.058824%);stroke-opacity:1;stroke-miterlimit:10;" d="M 3.380787 3.726701 L 3.380787 2.835349 " transform="matrix(17.333333,0,0,17.314815,17.212189,16.980672)"/>
<path style="fill:none;stroke-width:0.06;stroke-linecap:butt;stroke-linejoin:miter;stroke:rgb(0%,0%,47.058824%);stroke-opacity:1;stroke-miterlimit:10;" d="M 3.449071 3.66985 L 4.330231 4.178581 " transform="matrix(17.333333,0,0,17.314815,17.212189,16.980672)"/>
<path style="fill:none;stroke-width:0.06;stroke-linecap:butt;stroke-linejoin:miter;stroke:rgb(0%,0%,47.058824%);stroke-opacity:1;stroke-miterlimit:10;" d="M 4.330231 4.178581 L 4.330006 5.02188 " transform="matrix(17.333333,0,0,17.314815,17.212189,16.980672)"/>
<path style="fill:none;stroke-width:0.06;stroke-linecap:butt;stroke-linejoin:miter;stroke:rgb(0%,0%,47.058824%);stroke-opacity:1;stroke-miterlimit:10;" d="M 4.330231 4.178581 L 5.017356 3.781748 " transform="matrix(17.333333,0,0,17.314815,17.212189,16.980672)"/>
<path style="fill:none;stroke-width:0.0333333;stroke-linecap:butt;stroke-linejoin:miter;stroke:rgb(0%,0%,0%);stroke-opacity:1;stroke-miterlimit:10;" d="M 4.330231 4.178581 L 5.019835 4.576768 " transform="matrix(17.333333,0,0,17.314815,17.212189,16.980672)"/>
</g>
</svg>
