<?xml version="1.0" encoding="UTF-8"?>
<svg xmlns="http://www.w3.org/2000/svg" xmlns:xlink="http://www.w3.org/1999/xlink" width="109.6pt" height="85.6pt" viewBox="0 0 109.6 85.6" version="1.1">
<g id="surface1262">
<path style=" stroke:none;fill-rule:nonzero;fill:rgb(0%,0%,0%);fill-opacity:1;" d="M 64.042969 16.898438 C 64.042969 17.191406 64 17.464844 63.914062 17.707031 C 63.828125 17.949219 63.699219 18.160156 63.535156 18.332031 C 63.375 18.503906 63.179688 18.640625 62.941406 18.730469 C 62.707031 18.820312 62.445312 18.871094 62.152344 18.871094 C 61.832031 18.871094 61.554688 18.820312 61.320312 18.730469 C 61.085938 18.628906 60.890625 18.492188 60.734375 18.320312 C 60.574219 18.140625 60.457031 17.933594 60.378906 17.695312 C 60.296875 17.453125 60.257812 17.183594 60.257812 16.898438 C 60.257812 16.601562 60.296875 16.335938 60.378906 16.097656 C 60.464844 15.855469 60.585938 15.652344 60.746094 15.484375 C 60.910156 15.320312 61.109375 15.191406 61.339844 15.09375 C 61.578125 15.003906 61.847656 14.957031 62.152344 14.957031 C 62.453125 14.957031 62.722656 15.003906 62.960938 15.09375 C 63.199219 15.191406 63.398438 15.320312 63.554688 15.496094 C 63.714844 15.660156 63.832031 15.859375 63.914062 16.097656 C 64 16.335938 64.042969 16.601562 64.042969 16.898438 Z M 63.511719 16.898438 C 63.511719 16.667969 63.484375 16.460938 63.425781 16.269531 C 63.367188 16.085938 63.28125 15.925781 63.167969 15.796875 C 63.050781 15.660156 62.90625 15.554688 62.734375 15.484375 C 62.566406 15.414062 62.371094 15.375 62.152344 15.375 C 61.925781 15.375 61.730469 15.414062 61.554688 15.484375 C 61.382812 15.554688 61.238281 15.660156 61.125 15.796875 C 61.015625 15.925781 60.933594 16.085938 60.875 16.269531 C 60.816406 16.460938 60.789062 16.667969 60.789062 16.898438 C 60.789062 17.128906 60.816406 17.339844 60.875 17.53125 C 60.933594 17.722656 61.019531 17.882812 61.136719 18.019531 C 61.25 18.15625 61.390625 18.265625 61.554688 18.34375 C 61.730469 18.414062 61.925781 18.449219 62.152344 18.449219 C 62.390625 18.449219 62.59375 18.414062 62.765625 18.34375 C 62.941406 18.265625 63.082031 18.15625 63.1875 18.019531 C 63.296875 17.875 63.375 17.710938 63.425781 17.523438 C 63.484375 17.328125 63.511719 17.121094 63.511719 16.898438 Z M 63.511719 16.898438 "/>
<path style=" stroke:none;fill-rule:nonzero;fill:rgb(0%,0%,0%);fill-opacity:1;" d="M 78.769531 60.015625 C 78.769531 60.332031 78.71875 60.613281 78.628906 60.855469 C 78.53125 61.09375 78.402344 61.296875 78.238281 61.460938 C 78.070312 61.628906 77.875 61.75 77.644531 61.835938 C 77.417969 61.917969 77.179688 61.957031 76.917969 61.957031 L 75.492188 61.957031 L 75.492188 58.160156 L 76.757812 58.160156 C 77.042969 58.160156 77.3125 58.199219 77.558594 58.265625 C 77.808594 58.339844 78.023438 58.449219 78.207031 58.601562 C 78.382812 58.753906 78.523438 58.945312 78.617188 59.183594 C 78.714844 59.417969 78.769531 59.691406 78.769531 60.015625 Z M 78.25 60.015625 C 78.25 59.757812 78.210938 59.539062 78.140625 59.355469 C 78.066406 59.179688 77.960938 59.03125 77.828125 58.914062 C 77.699219 58.792969 77.539062 58.707031 77.351562 58.65625 C 77.164062 58.597656 76.960938 58.570312 76.746094 58.570312 L 76.011719 58.570312 L 76.011719 61.546875 L 76.855469 61.546875 C 77.054688 61.546875 77.238281 61.515625 77.40625 61.449219 C 77.578125 61.386719 77.726562 61.289062 77.847656 61.160156 C 77.980469 61.027344 78.074219 60.871094 78.140625 60.683594 C 78.210938 60.488281 78.25 60.269531 78.25 60.015625 Z M 78.25 60.015625 "/>
<path style=" stroke:none;fill-rule:nonzero;fill:rgb(0%,0%,0%);fill-opacity:1;" d="M 92.21875 32.632812 C 92.003906 32.632812 91.8125 32.671875 91.648438 32.742188 C 91.480469 32.816406 91.339844 32.917969 91.226562 33.054688 C 91.117188 33.183594 91.035156 33.34375 90.976562 33.527344 C 90.917969 33.71875 90.890625 33.925781 90.890625 34.15625 C 90.890625 34.386719 90.917969 34.597656 90.976562 34.792969 C 91.042969 34.980469 91.128906 35.140625 91.246094 35.277344 C 91.359375 35.414062 91.5 35.523438 91.667969 35.601562 C 91.839844 35.671875 92.03125 35.707031 92.242188 35.707031 C 92.394531 35.707031 92.523438 35.691406 92.640625 35.652344 C 92.761719 35.609375 92.875 35.554688 92.976562 35.480469 C 93.078125 35.410156 93.164062 35.328125 93.234375 35.234375 C 93.316406 35.140625 93.382812 35.035156 93.441406 34.910156 L 93.863281 35.125 C 93.796875 35.269531 93.714844 35.402344 93.613281 35.523438 C 93.511719 35.648438 93.394531 35.757812 93.257812 35.847656 C 93.121094 35.933594 92.964844 36.003906 92.792969 36.054688 C 92.621094 36.101562 92.429688 36.128906 92.21875 36.128906 C 91.910156 36.128906 91.640625 36.082031 91.410156 35.988281 C 91.175781 35.890625 90.980469 35.75 90.824219 35.578125 C 90.675781 35.402344 90.558594 35.191406 90.480469 34.953125 C 90.398438 34.710938 90.359375 34.441406 90.359375 34.15625 C 90.359375 33.859375 90.398438 33.59375 90.480469 33.355469 C 90.566406 33.113281 90.6875 32.910156 90.847656 32.742188 C 91.003906 32.578125 91.199219 32.449219 91.429688 32.351562 C 91.660156 32.261719 91.921875 32.214844 92.21875 32.214844 C 92.621094 32.214844 92.957031 32.292969 93.226562 32.449219 C 93.5 32.609375 93.699219 32.847656 93.832031 33.164062 L 93.34375 33.324219 C 93.304688 33.234375 93.257812 33.144531 93.191406 33.066406 C 93.132812 32.980469 93.058594 32.910156 92.964844 32.851562 C 92.871094 32.785156 92.761719 32.738281 92.640625 32.699219 C 92.515625 32.65625 92.375 32.632812 92.21875 32.632812 Z M 92.21875 32.632812 "/>
<path style=" stroke:none;fill-rule:nonzero;fill:rgb(0%,0%,0%);fill-opacity:1;" d="M 93.75 51.386719 C 93.75 51.703125 93.699219 51.984375 93.609375 52.226562 C 93.515625 52.464844 93.382812 52.667969 93.21875 52.832031 C 93.050781 53 92.855469 53.121094 92.625 53.207031 C 92.402344 53.289062 92.160156 53.328125 91.902344 53.328125 L 90.472656 53.328125 L 90.472656 49.53125 L 91.738281 49.53125 C 92.023438 49.53125 92.292969 49.570312 92.539062 49.636719 C 92.789062 49.710938 93.007812 49.820312 93.1875 49.972656 C 93.367188 50.125 93.503906 50.316406 93.597656 50.554688 C 93.699219 50.789062 93.75 51.0625 93.75 51.386719 Z M 93.230469 51.386719 C 93.230469 51.128906 93.191406 50.910156 93.121094 50.726562 C 93.050781 50.550781 92.945312 50.402344 92.808594 50.285156 C 92.679688 50.164062 92.519531 50.078125 92.332031 50.027344 C 92.144531 49.96875 91.945312 49.941406 91.726562 49.941406 L 90.992188 49.941406 L 90.992188 52.917969 L 91.835938 52.917969 C 92.035156 52.917969 92.21875 52.886719 92.386719 52.820312 C 92.558594 52.753906 92.707031 52.660156 92.832031 52.527344 C 92.960938 52.398438 93.058594 52.242188 93.121094 52.054688 C 93.191406 51.859375 93.230469 51.640625 93.230469 51.386719 Z M 93.230469 51.386719 "/>
<path style="fill:none;stroke-width:0.0333333;stroke-linecap:butt;stroke-linejoin:miter;stroke:rgb(0%,0%,0%);stroke-opacity:1;stroke-miterlimit:10;" d="M 0.874414 0.995055 L -0.00832108 1.504781 " transform="matrix(17.29798,0,0,17.258065,17.210344,16.913209)"/>
<path style="fill:none;stroke-width:0.0333333;stroke-linecap:butt;stroke-linejoin:miter;stroke:rgb(0%,0%,0%);stroke-opacity:1;stroke-miterlimit:10;" d="M 0.0000343057 1.490295 L 0.0000343057 2.509746 " transform="matrix(17.29798,0,0,17.258065,17.210344,16.913209)"/>
<path style="fill:none;stroke-width:0.0333333;stroke-linecap:butt;stroke-linejoin:miter;stroke:rgb(0%,0%,0%);stroke-opacity:1;stroke-miterlimit:10;" d="M 0.16669 1.586491 L 0.16669 2.413323 " transform="matrix(17.29798,0,0,17.258065,17.210344,16.913209)"/>
<path style="fill:none;stroke-width:0.0333333;stroke-linecap:butt;stroke-linejoin:miter;stroke:rgb(0%,0%,0%);stroke-opacity:1;stroke-miterlimit:10;" d="M -0.00832108 2.495033 L 0.874414 3.004759 " transform="matrix(17.29798,0,0,17.258065,17.210344,16.913209)"/>
<path style="fill:none;stroke-width:0.0333333;stroke-linecap:butt;stroke-linejoin:miter;stroke:rgb(0%,0%,0%);stroke-opacity:1;stroke-miterlimit:10;" d="M 0.857703 3.004759 L 1.740438 2.495033 " transform="matrix(17.29798,0,0,17.258065,17.210344,16.913209)"/>
<path style="fill:none;stroke-width:0.0333333;stroke-linecap:butt;stroke-linejoin:miter;stroke:rgb(0%,0%,0%);stroke-opacity:1;stroke-miterlimit:10;" d="M 0.857703 2.812367 L 1.573782 2.398837 " transform="matrix(17.29798,0,0,17.258065,17.210344,16.913209)"/>
<path style="fill:none;stroke-width:0.0333333;stroke-linecap:butt;stroke-linejoin:miter;stroke:rgb(0%,0%,0%);stroke-opacity:1;stroke-miterlimit:10;" d="M 1.732083 2.509746 L 1.732083 1.490295 " transform="matrix(17.29798,0,0,17.258065,17.210344,16.913209)"/>
<path style="fill:none;stroke-width:0.0333333;stroke-linecap:butt;stroke-linejoin:miter;stroke:rgb(0%,0%,0%);stroke-opacity:1;stroke-miterlimit:10;" d="M 0.857703 0.995055 L 1.732083 1.500028 " transform="matrix(17.29798,0,0,17.258065,17.210344,16.913209)"/>
<path style="fill:none;stroke-width:0.0333333;stroke-linecap:butt;stroke-linejoin:miter;stroke:rgb(0%,0%,0%);stroke-opacity:1;stroke-miterlimit:10;" d="M 0.857703 1.187674 L 1.565427 1.596224 " transform="matrix(17.29798,0,0,17.258065,17.210344,16.913209)"/>
<path style="fill:none;stroke-width:0.0333333;stroke-linecap:butt;stroke-linejoin:miter;stroke:rgb(0%,0%,0%);stroke-opacity:1;stroke-miterlimit:10;" d="M 1.723727 1.504781 L 2.606236 0.995055 " transform="matrix(17.29798,0,0,17.258065,17.210344,16.913209)"/>
<path style="fill:none;stroke-width:0.0333333;stroke-linecap:butt;stroke-linejoin:miter;stroke:rgb(0%,0%,0%);stroke-opacity:1;stroke-miterlimit:10;" d="M 2.681209 1.04802 L 2.681209 0.156679 " transform="matrix(17.29798,0,0,17.258065,17.210344,16.913209)"/>
<path style="fill:none;stroke-width:0.0333333;stroke-linecap:butt;stroke-linejoin:miter;stroke:rgb(0%,0%,0%);stroke-opacity:1;stroke-miterlimit:10;" d="M 2.514779 1.04802 L 2.514779 0.156679 " transform="matrix(17.29798,0,0,17.258065,17.210344,16.913209)"/>
<path style="fill:none;stroke-width:0.0333333;stroke-linecap:butt;stroke-linejoin:miter;stroke:rgb(0%,0%,0%);stroke-opacity:1;stroke-miterlimit:10;" d="M 2.589751 0.995055 L 3.464131 1.500028 " transform="matrix(17.29798,0,0,17.258065,17.210344,16.913209)"/>
<path style="fill:none;stroke-width:0.0333333;stroke-linecap:butt;stroke-linejoin:miter;stroke:rgb(0%,0%,0%);stroke-opacity:1;stroke-miterlimit:10;" d="M 3.464131 1.500028 L 3.464131 2.346778 " transform="matrix(17.29798,0,0,17.258065,17.210344,16.913209)"/>
<path style="fill:none;stroke-width:0.0333333;stroke-linecap:butt;stroke-linejoin:miter;stroke:rgb(0%,0%,0%);stroke-opacity:1;stroke-miterlimit:10;" d="M 3.464131 1.500028 L 4.153789 1.101889 " transform="matrix(17.29798,0,0,17.258065,17.210344,16.913209)"/>
<path style="fill:none;stroke-width:0.0333333;stroke-linecap:butt;stroke-linejoin:miter;stroke:rgb(0%,0%,0%);stroke-opacity:1;stroke-miterlimit:10;" d="M 3.464131 1.500028 L 4.160112 1.901787 " transform="matrix(17.29798,0,0,17.258065,17.210344,16.913209)"/>
</g>
</svg>
