<?xml version="1.0" encoding="UTF-8"?>
<svg xmlns="http://www.w3.org/2000/svg" xmlns:xlink="http://www.w3.org/1999/xlink" width="71.2pt" height="78.4pt" viewBox="0 0 71.2 78.4" version="1.1">
<g id="surface622">
<path style=" stroke:none;fill-rule:nonzero;fill:rgb(0%,0%,47.058824%);fill-opacity:1;" d="M 54.382812 19.152344 L 54.382812 17.511719 L 52.710938 17.511719 L 52.710938 19.152344 L 51.90625 19.152344 L 51.90625 15.328125 L 52.710938 15.328125 L 52.710938 16.847656 L 54.382812 16.847656 L 54.382812 15.328125 L 55.175781 15.328125 L 55.175781 19.152344 Z M 54.382812 19.152344 "/>
<path style=" stroke:none;fill-rule:nonzero;fill:rgb(0%,0%,47.058824%);fill-opacity:1;" d="M 55.753906 15.003906 L 56.6875 15.003906 L 56.6875 14.070312 L 57.152344 14.070312 L 57.152344 15.003906 L 58.082031 15.003906 L 58.082031 15.46875 L 57.152344 15.46875 L 57.152344 16.398438 L 56.6875 16.398438 L 56.6875 15.46875 L 55.753906 15.46875 "/>
<path style="fill:none;stroke-width:0.0333333;stroke-linecap:butt;stroke-linejoin:miter;stroke:rgb(0%,0%,0%);stroke-opacity:1;stroke-miterlimit:10;" d="M 0.874318 0.530871 L -0.00837865 1.040512 " transform="matrix(17.382812,0,0,17.375887,17.380019,17.24049)"/>
<path style="fill:none;stroke-width:0.0333333;stroke-linecap:butt;stroke-linejoin:miter;stroke:rgb(0%,0%,0%);stroke-opacity:1;stroke-miterlimit:10;" d="M 0.857689 0.530871 L 1.740385 1.040512 " transform="matrix(17.382812,0,0,17.375887,17.380019,17.24049)"/>
<path style="fill:none;stroke-width:0.0333333;stroke-linecap:butt;stroke-linejoin:miter;stroke:rgb(0%,0%,0%);stroke-opacity:1;stroke-miterlimit:10;" d="M 0.857689 0.723307 L 1.573644 1.13673 " transform="matrix(17.382812,0,0,17.375887,17.380019,17.24049)"/>
<path style="fill:none;stroke-width:0.0333333;stroke-linecap:butt;stroke-linejoin:miter;stroke:rgb(0%,0%,0%);stroke-opacity:1;stroke-miterlimit:10;" d="M -0.0000640391 1.0259 L -0.0000640391 2.045182 " transform="matrix(17.382812,0,0,17.375887,17.380019,17.24049)"/>
<path style="fill:none;stroke-width:0.0333333;stroke-linecap:butt;stroke-linejoin:miter;stroke:rgb(0%,0%,0%);stroke-opacity:1;stroke-miterlimit:10;" d="M 0.166678 1.122118 L 0.166678 1.948964 " transform="matrix(17.382812,0,0,17.375887,17.380019,17.24049)"/>
<path style="fill:none;stroke-width:0.0333333;stroke-linecap:butt;stroke-linejoin:miter;stroke:rgb(0%,0%,0%);stroke-opacity:1;stroke-miterlimit:10;" d="M -0.00837865 2.030794 L 0.874318 2.540436 " transform="matrix(17.382812,0,0,17.375887,17.380019,17.24049)"/>
<path style="fill:none;stroke-width:0.0333333;stroke-linecap:butt;stroke-linejoin:miter;stroke:rgb(0%,0%,0%);stroke-opacity:1;stroke-miterlimit:10;" d="M 0.857689 2.540436 L 1.740385 2.030794 " transform="matrix(17.382812,0,0,17.375887,17.380019,17.24049)"/>
<path style="fill:none;stroke-width:0.0333333;stroke-linecap:butt;stroke-linejoin:miter;stroke:rgb(0%,0%,0%);stroke-opacity:1;stroke-miterlimit:10;" d="M 0.857689 2.347999 L 1.573644 1.934576 " transform="matrix(17.382812,0,0,17.375887,17.380019,17.24049)"/>
<path style="fill:none;stroke-width:0.0333333;stroke-linecap:butt;stroke-linejoin:miter;stroke:rgb(0%,0%,0%);stroke-opacity:1;stroke-miterlimit:10;" d="M 1.732071 2.045182 L 1.732071 1.0259 " transform="matrix(17.382812,0,0,17.375887,17.380019,17.24049)"/>
</g>
</svg>
