<?xml version="1.0" encoding="UTF-8"?>
<svg xmlns="http://www.w3.org/2000/svg" xmlns:xlink="http://www.w3.org/1999/xlink" width="64pt" height="43.2pt" viewBox="0 0 64 43.2" version="1.1">
<g id="surface72">
<path style=" stroke:none;fill-rule:nonzero;fill:rgb(0%,0%,0%);fill-opacity:1;" d="M 18.726562 26.648438 C 18.726562 26.808594 18.695312 26.957031 18.628906 27.09375 C 18.570312 27.222656 18.476562 27.339844 18.347656 27.4375 C 18.21875 27.539062 18.050781 27.621094 17.851562 27.675781 C 17.660156 27.726562 17.425781 27.75 17.164062 27.75 C 16.6875 27.75 16.316406 27.671875 16.054688 27.503906 C 15.785156 27.339844 15.617188 27.097656 15.546875 26.777344 L 16.054688 26.679688 C 16.074219 26.785156 16.109375 26.871094 16.160156 26.953125 C 16.21875 27.03125 16.289062 27.101562 16.375 27.167969 C 16.460938 27.226562 16.570312 27.273438 16.699219 27.308594 C 16.835938 27.339844 16.992188 27.351562 17.175781 27.351562 C 17.332031 27.351562 17.46875 27.339844 17.59375 27.308594 C 17.722656 27.28125 17.835938 27.242188 17.929688 27.1875 C 18.019531 27.132812 18.09375 27.066406 18.144531 26.984375 C 18.191406 26.898438 18.21875 26.792969 18.21875 26.671875 C 18.21875 26.546875 18.191406 26.449219 18.132812 26.367188 C 18.074219 26.289062 17.996094 26.222656 17.894531 26.171875 C 17.792969 26.125 17.671875 26.082031 17.53125 26.054688 C 17.382812 26.019531 17.226562 25.976562 17.054688 25.933594 C 16.949219 25.914062 16.839844 25.886719 16.730469 25.859375 C 16.628906 25.832031 16.53125 25.800781 16.429688 25.761719 C 16.328125 25.726562 16.238281 25.683594 16.148438 25.632812 C 16.0625 25.574219 15.988281 25.511719 15.925781 25.4375 C 15.863281 25.367188 15.820312 25.28125 15.785156 25.1875 C 15.746094 25.089844 15.730469 24.976562 15.730469 24.851562 C 15.730469 24.675781 15.765625 24.515625 15.835938 24.386719 C 15.90625 24.257812 16.011719 24.15625 16.140625 24.074219 C 16.269531 23.988281 16.417969 23.929688 16.59375 23.890625 C 16.769531 23.847656 16.964844 23.824219 17.175781 23.824219 C 17.402344 23.824219 17.601562 23.847656 17.765625 23.890625 C 17.9375 23.929688 18.082031 23.980469 18.199219 24.050781 C 18.3125 24.125 18.402344 24.214844 18.46875 24.324219 C 18.539062 24.429688 18.597656 24.558594 18.640625 24.703125 L 18.132812 24.796875 C 18.101562 24.707031 18.0625 24.621094 18.015625 24.550781 C 17.972656 24.480469 17.910156 24.417969 17.832031 24.367188 C 17.757812 24.316406 17.664062 24.28125 17.550781 24.257812 C 17.445312 24.230469 17.3125 24.214844 17.164062 24.214844 C 16.992188 24.214844 16.84375 24.234375 16.722656 24.269531 C 16.597656 24.296875 16.5 24.339844 16.429688 24.398438 C 16.359375 24.449219 16.304688 24.511719 16.269531 24.582031 C 16.238281 24.65625 16.226562 24.734375 16.226562 24.820312 C 16.226562 24.9375 16.253906 25.03125 16.3125 25.101562 C 16.367188 25.175781 16.445312 25.238281 16.539062 25.285156 C 16.636719 25.335938 16.753906 25.378906 16.882812 25.414062 C 17.011719 25.445312 17.148438 25.476562 17.292969 25.5 C 17.40625 25.53125 17.523438 25.5625 17.636719 25.589844 C 17.75 25.617188 17.863281 25.652344 17.972656 25.6875 C 18.078125 25.722656 18.175781 25.769531 18.261719 25.828125 C 18.355469 25.878906 18.433594 25.941406 18.5 26.019531 C 18.570312 26.09375 18.625 26.179688 18.660156 26.28125 C 18.703125 26.382812 18.726562 26.503906 18.726562 26.648438 Z M 18.726562 26.648438 "/>
<path style=" stroke:none;fill-rule:nonzero;fill:rgb(0%,0%,0%);fill-opacity:1;" d="M 19.300781 24.179688 C 19.300781 23.992188 19.3125 23.816406 19.34375 23.648438 C 19.371094 23.476562 19.414062 23.3125 19.472656 23.152344 C 19.535156 22.996094 19.613281 22.839844 19.710938 22.6875 C 19.800781 22.535156 19.914062 22.390625 20.042969 22.253906 L 20.398438 22.253906 C 20.269531 22.390625 20.15625 22.535156 20.066406 22.6875 C 19.96875 22.839844 19.894531 22.996094 19.839844 23.152344 C 19.777344 23.3125 19.734375 23.476562 19.710938 23.648438 C 19.679688 23.824219 19.664062 24.003906 19.664062 24.191406 C 19.664062 24.378906 19.679688 24.558594 19.710938 24.730469 C 19.734375 24.898438 19.777344 25.0625 19.839844 25.230469 C 19.894531 25.386719 19.96875 25.535156 20.066406 25.683594 C 20.15625 25.835938 20.269531 25.980469 20.398438 26.125 L 20.042969 26.125 C 19.914062 25.980469 19.800781 25.835938 19.710938 25.683594 C 19.613281 25.535156 19.535156 25.386719 19.472656 25.230469 C 19.414062 25.070312 19.371094 24.902344 19.34375 24.730469 C 19.3125 24.558594 19.300781 24.378906 19.300781 24.191406 Z M 19.300781 24.179688 "/>
<path style=" stroke:none;fill-rule:nonzero;fill:rgb(0%,0%,0%);fill-opacity:1;" d="M 20.757812 25.261719 L 20.757812 22.40625 L 21.144531 22.40625 L 21.144531 25.261719 Z M 20.757812 25.261719 "/>
<path style=" stroke:none;fill-rule:nonzero;fill:rgb(0%,0%,0%);fill-opacity:1;" d="M 21.875 25.261719 L 21.875 22.40625 L 22.261719 22.40625 L 22.261719 25.261719 Z M 21.875 25.261719 "/>
<path style=" stroke:none;fill-rule:nonzero;fill:rgb(0%,0%,0%);fill-opacity:1;" d="M 23.734375 24.191406 C 23.734375 24.378906 23.71875 24.558594 23.691406 24.730469 C 23.660156 24.902344 23.613281 25.070312 23.550781 25.230469 C 23.492188 25.386719 23.414062 25.535156 23.324219 25.683594 C 23.230469 25.835938 23.121094 25.980469 22.988281 26.125 L 22.632812 26.125 C 22.765625 25.980469 22.875 25.835938 22.96875 25.683594 C 23.058594 25.535156 23.136719 25.386719 23.195312 25.230469 C 23.25 25.0625 23.292969 24.898438 23.324219 24.730469 C 23.351562 24.558594 23.367188 24.378906 23.367188 24.191406 C 23.367188 24.003906 23.351562 23.824219 23.324219 23.648438 C 23.292969 23.476562 23.25 23.3125 23.195312 23.152344 C 23.136719 22.996094 23.058594 22.839844 22.96875 22.6875 C 22.875 22.535156 22.765625 22.390625 22.632812 22.253906 L 22.988281 22.253906 C 23.121094 22.390625 23.230469 22.535156 23.324219 22.6875 C 23.414062 22.839844 23.492188 22.996094 23.550781 23.152344 C 23.613281 23.3125 23.660156 23.476562 23.691406 23.648438 C 23.71875 23.816406 23.734375 23.992188 23.734375 24.179688 Z M 23.734375 24.191406 "/>
<path style=" stroke:none;fill-rule:nonzero;fill:rgb(0%,0%,0%);fill-opacity:1;" d="M 48.882812 25.773438 C 48.882812 26.070312 48.839844 26.339844 48.753906 26.582031 C 48.667969 26.828125 48.542969 27.039062 48.378906 27.210938 C 48.21875 27.382812 48.023438 27.519531 47.785156 27.609375 C 47.554688 27.703125 47.292969 27.75 47 27.75 C 46.679688 27.75 46.40625 27.703125 46.167969 27.609375 C 45.9375 27.511719 45.742188 27.375 45.585938 27.199219 C 45.429688 27.023438 45.308594 26.8125 45.230469 26.574219 C 45.152344 26.328125 45.113281 26.0625 45.113281 25.773438 C 45.113281 25.476562 45.152344 25.210938 45.230469 24.972656 C 45.316406 24.726562 45.4375 24.523438 45.597656 24.355469 C 45.761719 24.191406 45.960938 24.058594 46.191406 23.964844 C 46.429688 23.875 46.695312 23.824219 47 23.824219 C 47.300781 23.824219 47.570312 23.875 47.808594 23.964844 C 48.042969 24.058594 48.242188 24.191406 48.398438 24.367188 C 48.554688 24.535156 48.675781 24.734375 48.753906 24.972656 C 48.839844 25.210938 48.882812 25.476562 48.882812 25.773438 Z M 48.355469 25.773438 C 48.355469 25.542969 48.328125 25.335938 48.269531 25.144531 C 48.210938 24.957031 48.125 24.796875 48.011719 24.667969 C 47.894531 24.535156 47.753906 24.429688 47.582031 24.355469 C 47.414062 24.285156 47.21875 24.246094 47 24.246094 C 46.773438 24.246094 46.578125 24.285156 46.40625 24.355469 C 46.234375 24.429688 46.089844 24.535156 45.976562 24.667969 C 45.867188 24.796875 45.785156 24.957031 45.726562 25.144531 C 45.667969 25.335938 45.640625 25.542969 45.640625 25.773438 C 45.640625 26.003906 45.667969 26.214844 45.726562 26.410156 C 45.785156 26.601562 45.871094 26.761719 45.984375 26.898438 C 46.097656 27.035156 46.238281 27.144531 46.40625 27.222656 C 46.578125 27.292969 46.773438 27.328125 47 27.328125 C 47.234375 27.328125 47.441406 27.292969 47.613281 27.222656 C 47.785156 27.144531 47.925781 27.035156 48.035156 26.898438 C 48.140625 26.753906 48.21875 26.589844 48.269531 26.398438 C 48.328125 26.203125 48.355469 25.996094 48.355469 25.773438 Z M 48.355469 25.773438 "/>
<path style="fill:none;stroke-width:0.0333333;stroke-linecap:butt;stroke-linejoin:miter;stroke:rgb(0%,0%,0%);stroke-opacity:1;stroke-miterlimit:10;" d="M 0.87448 -0.00483827 L 0.426566 0.253582 " transform="matrix(17.241379,0,0,17.307692,17.137603,17.134521)"/>
<path style="fill:none;stroke-width:0.0333333;stroke-linecap:butt;stroke-linejoin:miter;stroke:rgb(0%,0%,0%);stroke-opacity:1;stroke-miterlimit:10;" d="M 0.857714 -0.00483827 L 1.549636 0.394641 " transform="matrix(17.241379,0,0,17.307692,17.137603,17.134521)"/>
<path style="fill:none;stroke-width:0.0333333;stroke-linecap:butt;stroke-linejoin:miter;stroke:rgb(0%,0%,0%);stroke-opacity:1;stroke-miterlimit:10;" d="M 0.857714 0.187679 L 1.466261 0.539085 " transform="matrix(17.241379,0,0,17.307692,17.137603,17.134521)"/>
</g>
</svg>
