<?xml version="1.0" encoding="UTF-8"?>
<svg xmlns="http://www.w3.org/2000/svg" xmlns:xlink="http://www.w3.org/1999/xlink" width="94.4pt" height="68.8pt" viewBox="0 0 94.4 68.8" version="1.1">
<g id="surface1487">
<path style=" stroke:none;fill-rule:nonzero;fill:rgb(0%,0%,0%);fill-opacity:1;" d="M 33.835938 43.855469 C 33.835938 44.011719 33.800781 44.160156 33.738281 44.296875 C 33.679688 44.425781 33.585938 44.539062 33.457031 44.640625 C 33.328125 44.742188 33.160156 44.820312 32.960938 44.875 C 32.765625 44.925781 32.535156 44.949219 32.269531 44.949219 C 31.796875 44.949219 31.425781 44.871094 31.160156 44.703125 C 30.894531 44.539062 30.722656 44.300781 30.652344 43.984375 L 31.160156 43.886719 C 31.183594 43.988281 31.21875 44.078125 31.269531 44.15625 C 31.324219 44.234375 31.398438 44.304688 31.484375 44.371094 C 31.570312 44.429688 31.679688 44.476562 31.808594 44.511719 C 31.941406 44.539062 32.101562 44.554688 32.28125 44.554688 C 32.4375 44.554688 32.578125 44.539062 32.703125 44.511719 C 32.832031 44.484375 32.941406 44.441406 33.035156 44.390625 C 33.128906 44.335938 33.199219 44.269531 33.253906 44.1875 C 33.300781 44.101562 33.328125 44 33.328125 43.875 C 33.328125 43.753906 33.296875 43.65625 33.242188 43.574219 C 33.183594 43.496094 33.105469 43.433594 33.003906 43.382812 C 32.902344 43.332031 32.78125 43.292969 32.636719 43.261719 C 32.492188 43.226562 32.335938 43.1875 32.164062 43.144531 C 32.054688 43.125 31.949219 43.097656 31.839844 43.070312 C 31.738281 43.042969 31.636719 43.011719 31.539062 42.972656 C 31.433594 42.9375 31.34375 42.894531 31.257812 42.84375 C 31.171875 42.789062 31.097656 42.722656 31.03125 42.652344 C 30.972656 42.582031 30.925781 42.496094 30.890625 42.402344 C 30.851562 42.304688 30.835938 42.195312 30.835938 42.070312 C 30.835938 41.894531 30.871094 41.738281 30.945312 41.609375 C 31.015625 41.480469 31.117188 41.375 31.246094 41.296875 C 31.375 41.210938 31.527344 41.152344 31.699219 41.113281 C 31.878906 41.070312 32.070312 41.050781 32.28125 41.050781 C 32.511719 41.050781 32.707031 41.070312 32.875 41.113281 C 33.046875 41.152344 33.191406 41.203125 33.304688 41.273438 C 33.417969 41.347656 33.511719 41.4375 33.574219 41.542969 C 33.644531 41.652344 33.703125 41.777344 33.75 41.917969 L 33.242188 42.015625 C 33.210938 41.925781 33.171875 41.839844 33.121094 41.769531 C 33.078125 41.699219 33.019531 41.636719 32.941406 41.585938 C 32.867188 41.539062 32.773438 41.5 32.660156 41.480469 C 32.550781 41.453125 32.421875 41.4375 32.269531 41.4375 C 32.097656 41.4375 31.949219 41.453125 31.828125 41.488281 C 31.703125 41.519531 31.609375 41.5625 31.539062 41.617188 C 31.464844 41.667969 31.410156 41.730469 31.375 41.800781 C 31.347656 41.875 31.332031 41.953125 31.332031 42.039062 C 31.332031 42.152344 31.359375 42.246094 31.417969 42.316406 C 31.476562 42.390625 31.550781 42.453125 31.644531 42.5 C 31.746094 42.550781 31.859375 42.59375 31.992188 42.628906 C 32.121094 42.660156 32.253906 42.6875 32.402344 42.714844 C 32.511719 42.746094 32.628906 42.773438 32.746094 42.800781 C 32.859375 42.832031 32.972656 42.863281 33.078125 42.898438 C 33.1875 42.933594 33.285156 42.980469 33.371094 43.039062 C 33.460938 43.089844 33.542969 43.152344 33.609375 43.230469 C 33.679688 43.304688 33.730469 43.390625 33.769531 43.488281 C 33.8125 43.589844 33.835938 43.710938 33.835938 43.855469 Z M 33.835938 43.855469 "/>
<path style=" stroke:none;fill-rule:nonzero;fill:rgb(0%,0%,0%);fill-opacity:1;" d="M 34.410156 40.679688 L 35.332031 40.679688 L 35.332031 39.757812 L 35.792969 39.757812 L 35.792969 40.679688 L 36.71875 40.679688 L 36.71875 41.136719 L 35.792969 41.136719 L 35.792969 42.058594 L 35.332031 42.058594 L 35.332031 41.136719 L 34.410156 41.136719 "/>
<path style=" stroke:none;fill-rule:nonzero;fill:rgb(0%,0%,0%);fill-opacity:1;" d="M 17.324219 49.921875 C 17.109375 49.921875 16.917969 49.957031 16.753906 50.027344 C 16.585938 50.101562 16.445312 50.207031 16.332031 50.339844 C 16.222656 50.46875 16.140625 50.628906 16.085938 50.8125 C 16.023438 51 15.996094 51.207031 15.996094 51.4375 C 15.996094 51.667969 16.023438 51.875 16.085938 52.070312 C 16.148438 52.257812 16.238281 52.417969 16.355469 52.554688 C 16.46875 52.691406 16.605469 52.796875 16.773438 52.875 C 16.945312 52.949219 17.136719 52.984375 17.347656 52.984375 C 17.496094 52.984375 17.628906 52.96875 17.746094 52.929688 C 17.867188 52.886719 17.976562 52.832031 18.078125 52.757812 C 18.179688 52.6875 18.265625 52.605469 18.335938 52.511719 C 18.414062 52.417969 18.484375 52.3125 18.542969 52.1875 L 18.964844 52.402344 C 18.898438 52.546875 18.816406 52.679688 18.714844 52.800781 C 18.613281 52.925781 18.492188 53.03125 18.359375 53.125 C 18.222656 53.210938 18.066406 53.28125 17.894531 53.328125 C 17.722656 53.375 17.53125 53.402344 17.324219 53.402344 C 17.015625 53.402344 16.746094 53.355469 16.515625 53.261719 C 16.285156 53.164062 16.089844 53.027344 15.933594 52.855469 C 15.78125 52.675781 15.667969 52.46875 15.589844 52.230469 C 15.507812 51.988281 15.46875 51.722656 15.46875 51.4375 C 15.46875 51.144531 15.507812 50.878906 15.589844 50.640625 C 15.675781 50.398438 15.796875 50.195312 15.953125 50.027344 C 16.109375 49.863281 16.304688 49.734375 16.539062 49.640625 C 16.765625 49.550781 17.027344 49.5 17.324219 49.5 C 17.726562 49.5 18.058594 49.582031 18.328125 49.738281 C 18.597656 49.894531 18.800781 50.132812 18.929688 50.445312 L 18.445312 50.609375 C 18.40625 50.515625 18.359375 50.429688 18.292969 50.351562 C 18.234375 50.265625 18.160156 50.195312 18.066406 50.136719 C 17.972656 50.070312 17.867188 50.023438 17.746094 49.984375 C 17.621094 49.941406 17.480469 49.921875 17.324219 49.921875 Z M 17.324219 49.921875 "/>
<path style=" stroke:none;fill-rule:nonzero;fill:rgb(0%,0%,0%);fill-opacity:1;" d="M 47.203125 50.214844 C 46.988281 50.214844 46.796875 50.253906 46.632812 50.324219 C 46.464844 50.394531 46.324219 50.5 46.210938 50.636719 C 46.105469 50.765625 46.019531 50.921875 45.964844 51.109375 C 45.90625 51.296875 45.878906 51.503906 45.878906 51.730469 C 45.878906 51.960938 45.90625 52.171875 45.964844 52.367188 C 46.027344 52.554688 46.117188 52.714844 46.234375 52.851562 C 46.347656 52.988281 46.488281 53.09375 46.65625 53.171875 C 46.828125 53.246094 47.015625 53.28125 47.226562 53.28125 C 47.375 53.28125 47.507812 53.261719 47.625 53.226562 C 47.746094 53.183594 47.855469 53.125 47.960938 53.054688 C 48.058594 52.984375 48.144531 52.902344 48.21875 52.808594 C 48.296875 52.714844 48.363281 52.609375 48.421875 52.484375 L 48.84375 52.699219 C 48.777344 52.84375 48.695312 52.976562 48.59375 53.097656 C 48.492188 53.21875 48.375 53.328125 48.238281 53.417969 C 48.101562 53.503906 47.949219 53.574219 47.777344 53.625 C 47.601562 53.671875 47.410156 53.699219 47.203125 53.699219 C 46.894531 53.699219 46.625 53.652344 46.394531 53.558594 C 46.164062 53.460938 45.96875 53.324219 45.8125 53.152344 C 45.664062 52.972656 45.546875 52.765625 45.46875 52.527344 C 45.386719 52.285156 45.351562 52.019531 45.351562 51.730469 C 45.351562 51.4375 45.386719 51.171875 45.46875 50.9375 C 45.554688 50.695312 45.675781 50.488281 45.835938 50.324219 C 45.992188 50.160156 46.183594 50.03125 46.417969 49.9375 C 46.644531 49.84375 46.90625 49.796875 47.203125 49.796875 C 47.605469 49.796875 47.941406 49.878906 48.207031 50.03125 C 48.480469 50.191406 48.679688 50.429688 48.8125 50.742188 L 48.324219 50.902344 C 48.289062 50.8125 48.238281 50.726562 48.175781 50.644531 C 48.117188 50.558594 48.039062 50.488281 47.949219 50.429688 C 47.855469 50.367188 47.746094 50.316406 47.625 50.28125 C 47.5 50.238281 47.359375 50.214844 47.203125 50.214844 Z M 47.203125 50.214844 "/>
<path style=" stroke:none;fill-rule:nonzero;fill:rgb(0%,0%,0%);fill-opacity:1;" d="M 19.449219 17.035156 C 19.449219 17.332031 19.40625 17.601562 19.320312 17.84375 C 19.234375 18.085938 19.105469 18.292969 18.941406 18.464844 C 18.78125 18.636719 18.585938 18.773438 18.347656 18.863281 C 18.117188 18.953125 17.855469 19.003906 17.5625 19.003906 C 17.242188 19.003906 16.96875 18.953125 16.730469 18.863281 C 16.5 18.765625 16.304688 18.628906 16.148438 18.453125 C 15.988281 18.277344 15.871094 18.066406 15.792969 17.832031 C 15.710938 17.589844 15.675781 17.324219 15.675781 17.035156 C 15.675781 16.742188 15.710938 16.476562 15.792969 16.242188 C 15.878906 16 16 15.792969 16.160156 15.628906 C 16.324219 15.464844 16.519531 15.335938 16.753906 15.242188 C 16.988281 15.148438 17.257812 15.101562 17.5625 15.101562 C 17.863281 15.101562 18.132812 15.148438 18.371094 15.242188 C 18.605469 15.335938 18.804688 15.464844 18.964844 15.636719 C 19.121094 15.804688 19.238281 16.003906 19.320312 16.242188 C 19.40625 16.476562 19.449219 16.742188 19.449219 17.035156 Z M 18.921875 17.035156 C 18.921875 16.808594 18.890625 16.601562 18.832031 16.414062 C 18.773438 16.226562 18.6875 16.070312 18.574219 15.941406 C 18.460938 15.804688 18.316406 15.699219 18.144531 15.628906 C 17.976562 15.558594 17.78125 15.519531 17.5625 15.519531 C 17.335938 15.519531 17.140625 15.558594 16.96875 15.628906 C 16.796875 15.699219 16.648438 15.804688 16.539062 15.941406 C 16.429688 16.070312 16.347656 16.226562 16.289062 16.414062 C 16.230469 16.601562 16.203125 16.808594 16.203125 17.035156 C 16.203125 17.265625 16.230469 17.476562 16.289062 17.671875 C 16.347656 17.859375 16.433594 18.019531 16.546875 18.152344 C 16.660156 18.292969 16.800781 18.398438 16.96875 18.476562 C 17.140625 18.550781 17.335938 18.585938 17.5625 18.585938 C 17.796875 18.585938 18.003906 18.550781 18.175781 18.476562 C 18.347656 18.398438 18.488281 18.292969 18.597656 18.152344 C 18.703125 18.011719 18.78125 17.847656 18.832031 17.660156 C 18.890625 17.464844 18.921875 17.257812 18.921875 17.035156 Z M 18.921875 17.035156 "/>
<path style=" stroke:none;fill-rule:nonzero;fill:rgb(0%,0%,0%);fill-opacity:1;" d="M 49.324219 17.332031 C 49.324219 17.628906 49.28125 17.894531 49.195312 18.136719 C 49.109375 18.382812 48.984375 18.589844 48.820312 18.761719 C 48.660156 18.933594 48.464844 19.066406 48.226562 19.160156 C 47.992188 19.25 47.734375 19.300781 47.4375 19.300781 C 47.121094 19.300781 46.847656 19.25 46.609375 19.160156 C 46.375 19.058594 46.183594 18.921875 46.027344 18.75 C 45.867188 18.574219 45.75 18.363281 45.671875 18.128906 C 45.589844 17.886719 45.550781 17.621094 45.550781 17.332031 C 45.550781 17.039062 45.589844 16.773438 45.671875 16.535156 C 45.757812 16.292969 45.878906 16.089844 46.039062 15.921875 C 46.203125 15.757812 46.398438 15.628906 46.628906 15.535156 C 46.867188 15.445312 47.136719 15.398438 47.4375 15.398438 C 47.742188 15.398438 48.011719 15.445312 48.246094 15.535156 C 48.484375 15.628906 48.679688 15.761719 48.839844 15.933594 C 48.996094 16.101562 49.117188 16.300781 49.195312 16.535156 C 49.28125 16.773438 49.324219 17.039062 49.324219 17.332031 Z M 48.796875 17.332031 C 48.796875 17.101562 48.769531 16.894531 48.710938 16.707031 C 48.652344 16.523438 48.566406 16.363281 48.453125 16.234375 C 48.335938 16.101562 48.195312 15.996094 48.019531 15.921875 C 47.855469 15.855469 47.660156 15.816406 47.4375 15.816406 C 47.214844 15.816406 47.019531 15.855469 46.847656 15.921875 C 46.671875 15.996094 46.527344 16.101562 46.414062 16.234375 C 46.308594 16.363281 46.222656 16.523438 46.167969 16.707031 C 46.105469 16.894531 46.082031 17.101562 46.082031 17.332031 C 46.082031 17.5625 46.105469 17.773438 46.167969 17.964844 C 46.222656 18.152344 46.308594 18.316406 46.425781 18.449219 C 46.539062 18.585938 46.679688 18.695312 46.847656 18.773438 C 47.019531 18.84375 47.214844 18.878906 47.4375 18.878906 C 47.675781 18.878906 47.882812 18.84375 48.054688 18.773438 C 48.226562 18.695312 48.367188 18.585938 48.472656 18.449219 C 48.582031 18.308594 48.660156 18.144531 48.710938 17.957031 C 48.769531 17.761719 48.796875 17.554688 48.796875 17.332031 Z M 48.796875 17.332031 "/>
<path style=" stroke:none;fill-rule:nonzero;fill:rgb(0%,0%,0%);fill-opacity:1;" d="M 77.425781 16.113281 C 77.210938 16.113281 77.019531 16.152344 76.855469 16.222656 C 76.6875 16.292969 76.546875 16.398438 76.433594 16.535156 C 76.328125 16.664062 76.242188 16.820312 76.1875 17.007812 C 76.128906 17.195312 76.101562 17.402344 76.101562 17.628906 C 76.101562 17.859375 76.128906 18.070312 76.1875 18.265625 C 76.25 18.453125 76.339844 18.613281 76.457031 18.746094 C 76.570312 18.886719 76.710938 18.992188 76.875 19.070312 C 77.050781 19.144531 77.238281 19.179688 77.449219 19.179688 C 77.597656 19.179688 77.730469 19.160156 77.847656 19.125 C 77.96875 19.082031 78.078125 19.023438 78.179688 18.953125 C 78.28125 18.882812 78.367188 18.800781 78.441406 18.703125 C 78.519531 18.613281 78.585938 18.507812 78.644531 18.382812 L 79.066406 18.597656 C 79 18.742188 78.917969 18.875 78.816406 18.996094 C 78.714844 19.117188 78.597656 19.226562 78.460938 19.316406 C 78.324219 19.402344 78.171875 19.472656 78 19.523438 C 77.824219 19.570312 77.632812 19.597656 77.425781 19.597656 C 77.117188 19.597656 76.847656 19.550781 76.617188 19.457031 C 76.386719 19.359375 76.191406 19.222656 76.035156 19.050781 C 75.886719 18.871094 75.769531 18.660156 75.691406 18.425781 C 75.609375 18.183594 75.570312 17.917969 75.570312 17.628906 C 75.570312 17.335938 75.609375 17.070312 75.691406 16.835938 C 75.777344 16.59375 75.898438 16.386719 76.058594 16.222656 C 76.214844 16.058594 76.40625 15.929688 76.640625 15.835938 C 76.867188 15.742188 77.128906 15.695312 77.425781 15.695312 C 77.828125 15.695312 78.164062 15.777344 78.429688 15.929688 C 78.703125 16.089844 78.902344 16.328125 79.035156 16.640625 L 78.546875 16.800781 C 78.511719 16.710938 78.460938 16.625 78.398438 16.542969 C 78.335938 16.457031 78.261719 16.386719 78.171875 16.328125 C 78.078125 16.265625 77.96875 16.214844 77.847656 16.179688 C 77.722656 16.136719 77.582031 16.113281 77.425781 16.113281 Z M 77.425781 16.113281 "/>
<path style="fill:none;stroke-width:0.0333333;stroke-linecap:butt;stroke-linejoin:miter;stroke:rgb(0%,0%,0%);stroke-opacity:1;stroke-miterlimit:10;" d="M 0.873628 1.260161 L 0.8811 0.498896 " transform="matrix(17.251462,0,0,17.2,17.217699,17.051797)"/>
<path style="fill:none;stroke-width:0.0333333;stroke-linecap:butt;stroke-linejoin:miter;stroke:rgb(0%,0%,0%);stroke-opacity:1;stroke-miterlimit:10;" d="M 0.701088 1.604456 L 0.176903 1.900377 " transform="matrix(17.251462,0,0,17.2,17.217699,17.051797)"/>
<path style="fill:none;stroke-width:0.0333333;stroke-linecap:butt;stroke-linejoin:miter;stroke:rgb(0%,0%,0%);stroke-opacity:1;stroke-miterlimit:10;" d="M 1.040054 1.608544 L 1.556088 1.913322 " transform="matrix(17.251462,0,0,17.2,17.217699,17.051797)"/>
<path style="fill:none;stroke-width:0.0333333;stroke-linecap:butt;stroke-linejoin:miter;stroke:rgb(0%,0%,0%);stroke-opacity:1;stroke-miterlimit:10;" d="M 0.964879 0.461196 L 0.244379 0.0355969 " transform="matrix(17.251462,0,0,17.2,17.217699,17.051797)"/>
<path style="fill:none;stroke-width:0.0333333;stroke-linecap:butt;stroke-linejoin:miter;stroke:rgb(0%,0%,0%);stroke-opacity:1;stroke-miterlimit:10;" d="M 0.880195 0.604956 L 0.159468 0.179129 " transform="matrix(17.251462,0,0,17.2,17.217699,17.051797)"/>
<path style="fill:none;stroke-width:0.0333333;stroke-linecap:butt;stroke-linejoin:miter;stroke:rgb(0%,0%,0%);stroke-opacity:1;stroke-miterlimit:10;" d="M 0.872496 0.513204 L 1.568995 0.120535 " transform="matrix(17.251462,0,0,17.2,17.217699,17.051797)"/>
<path style="fill:none;stroke-width:0.0333333;stroke-linecap:butt;stroke-linejoin:miter;stroke:rgb(0%,0%,0%);stroke-opacity:1;stroke-miterlimit:10;" d="M 1.933774 0.124623 L 2.621442 0.530691 " transform="matrix(17.251462,0,0,17.2,17.217699,17.051797)"/>
<path style="fill:none;stroke-width:0.0333333;stroke-linecap:butt;stroke-linejoin:miter;stroke:rgb(0%,0%,0%);stroke-opacity:1;stroke-miterlimit:10;" d="M 2.604686 0.530464 L 3.307072 0.134162 " transform="matrix(17.251462,0,0,17.2,17.217699,17.051797)"/>
</g>
</svg>
