<?xml version="1.0" encoding="UTF-8"?>
<svg xmlns="http://www.w3.org/2000/svg" xmlns:xlink="http://www.w3.org/1999/xlink" width="109.6pt" height="77.6pt" viewBox="0 0 109.6 77.6" version="1.1">
<g id="surface897">
<path style=" stroke:none;fill-rule:nonzero;fill:rgb(0%,0%,0%);fill-opacity:1;" d="M 48.101562 62.355469 L 46.058594 59.109375 C 46.0625 59.195312 46.070312 59.28125 46.070312 59.371094 C 46.074219 59.441406 46.082031 59.519531 46.082031 59.605469 C 46.085938 59.6875 46.089844 59.757812 46.089844 59.824219 L 46.089844 62.355469 L 45.625 62.355469 L 45.625 58.546875 L 46.230469 58.546875 L 48.285156 61.816406 C 48.285156 61.816406 48.28125 61.726562 48.273438 61.546875 C 48.265625 61.476562 48.257812 61.394531 48.253906 61.308594 C 48.253906 61.214844 48.253906 61.128906 48.253906 61.046875 L 48.253906 58.546875 L 48.71875 58.546875 L 48.71875 62.355469 Z M 48.101562 62.355469 "/>
<path style=" stroke:none;fill-rule:nonzero;fill:rgb(0%,0%,0%);fill-opacity:1;" d="M 63.082031 19.054688 L 61.039062 15.804688 C 61.042969 15.890625 61.046875 15.980469 61.046875 16.066406 C 61.054688 16.140625 61.058594 16.21875 61.058594 16.304688 C 61.066406 16.386719 61.070312 16.457031 61.070312 16.519531 L 61.070312 19.054688 L 60.605469 19.054688 L 60.605469 15.242188 L 61.210938 15.242188 L 63.265625 18.511719 C 63.265625 18.511719 63.257812 18.421875 63.253906 18.242188 C 63.246094 18.171875 63.238281 18.089844 63.230469 18.003906 C 63.230469 17.910156 63.230469 17.824219 63.230469 17.742188 L 63.230469 15.242188 L 63.695312 15.242188 L 63.695312 19.054688 Z M 63.082031 19.054688 "/>
<path style=" stroke:none;fill-rule:nonzero;fill:rgb(0%,0%,0%);fill-opacity:1;" d="M 18.136719 27.714844 L 16.09375 24.464844 C 16.101562 24.554688 16.105469 24.640625 16.105469 24.726562 C 16.113281 24.800781 16.117188 24.878906 16.117188 24.964844 C 16.121094 25.046875 16.128906 25.117188 16.128906 25.179688 L 16.128906 27.714844 L 15.664062 27.714844 L 15.664062 23.902344 L 16.269531 23.902344 L 18.324219 27.171875 C 18.324219 27.171875 18.316406 27.082031 18.3125 26.902344 C 18.304688 26.832031 18.296875 26.75 18.289062 26.664062 C 18.289062 26.570312 18.289062 26.484375 18.289062 26.40625 L 18.289062 23.902344 L 18.753906 23.902344 L 18.753906 27.714844 Z M 18.136719 27.714844 "/>
<path style=" stroke:none;fill-rule:nonzero;fill:rgb(0%,0%,0%);fill-opacity:1;" d="M 93.042969 53.695312 L 91 50.445312 C 91.003906 50.53125 91.007812 50.621094 91.007812 50.707031 C 91.015625 50.777344 91.019531 50.855469 91.019531 50.945312 C 91.023438 51.023438 91.03125 51.09375 91.03125 51.160156 L 91.03125 53.695312 L 90.566406 53.695312 L 90.566406 49.882812 L 91.171875 49.882812 L 93.226562 53.152344 C 93.226562 53.152344 93.21875 53.0625 93.214844 52.882812 C 93.207031 52.8125 93.199219 52.730469 93.191406 52.644531 C 93.191406 52.550781 93.191406 52.464844 93.191406 52.382812 L 93.191406 49.882812 L 93.65625 49.882812 L 93.65625 53.695312 Z M 93.042969 53.695312 "/>
<path style="fill:none;stroke-width:0.0333333;stroke-linecap:butt;stroke-linejoin:miter;stroke:rgb(0%,0%,0%);stroke-opacity:1;stroke-miterlimit:10;" d="M 1.732111 1.595988 L 2.681238 1.048211 " transform="matrix(17.29798,0,0,17.321429,17.209848,17.148172)"/>
<path style="fill:none;stroke-width:0.0333333;stroke-linecap:butt;stroke-linejoin:miter;stroke:rgb(0%,0%,0%);stroke-opacity:1;stroke-miterlimit:10;" d="M 1.648783 1.451658 L 2.598136 0.903656 " transform="matrix(17.29798,0,0,17.321429,17.209848,17.148172)"/>
<path style="fill:none;stroke-width:0.0333333;stroke-linecap:butt;stroke-linejoin:miter;stroke:rgb(0%,0%,0%);stroke-opacity:1;stroke-miterlimit:10;" d="M 1.740467 1.504655 L 0.866087 0.999951 " transform="matrix(17.29798,0,0,17.321429,17.209848,17.148172)"/>
<path style="fill:none;stroke-width:0.0333333;stroke-linecap:butt;stroke-linejoin:miter;stroke:rgb(0%,0%,0%);stroke-opacity:1;stroke-miterlimit:10;" d="M 1.732111 1.490222 L 1.732111 2.346729 " transform="matrix(17.29798,0,0,17.321429,17.209848,17.148172)"/>
<path style="fill:none;stroke-width:0.0333333;stroke-linecap:butt;stroke-linejoin:miter;stroke:rgb(0%,0%,0%);stroke-opacity:1;stroke-miterlimit:10;" d="M 2.58978 0.995215 L 3.46416 1.499919 " transform="matrix(17.29798,0,0,17.321429,17.209848,17.148172)"/>
<path style="fill:none;stroke-width:0.0333333;stroke-linecap:butt;stroke-linejoin:miter;stroke:rgb(0%,0%,0%);stroke-opacity:1;stroke-miterlimit:10;" d="M 2.598136 1.009648 L 2.598136 0.153366 " transform="matrix(17.29798,0,0,17.321429,17.209848,17.148172)"/>
<path style="fill:none;stroke-width:0.0333333;stroke-linecap:butt;stroke-linejoin:miter;stroke:rgb(0%,0%,0%);stroke-opacity:1;stroke-miterlimit:10;" d="M 0.866087 0.999951 L 0.165816 0.595827 " transform="matrix(17.29798,0,0,17.321429,17.209848,17.148172)"/>
<path style="fill:none;stroke-width:0.0333333;stroke-linecap:butt;stroke-linejoin:miter;stroke:rgb(0%,0%,0%);stroke-opacity:1;stroke-miterlimit:10;" d="M 0.949415 0.855621 L 0.24937 0.451497 " transform="matrix(17.29798,0,0,17.321429,17.209848,17.148172)"/>
<path style="fill:none;stroke-width:0.0333333;stroke-linecap:butt;stroke-linejoin:miter;stroke:rgb(0%,0%,0%);stroke-opacity:1;stroke-miterlimit:10;" d="M 0.782759 1.144281 L 0.0824877 0.740157 " transform="matrix(17.29798,0,0,17.321429,17.209848,17.148172)"/>
<path style="fill:none;stroke-width:0.0333333;stroke-linecap:butt;stroke-linejoin:miter;stroke:rgb(0%,0%,0%);stroke-opacity:1;stroke-miterlimit:10;" d="M 3.46416 1.499919 L 4.164205 1.904042 " transform="matrix(17.29798,0,0,17.321429,17.209848,17.148172)"/>
<path style="fill:none;stroke-width:0.0333333;stroke-linecap:butt;stroke-linejoin:miter;stroke:rgb(0%,0%,0%);stroke-opacity:1;stroke-miterlimit:10;" d="M 3.380832 1.644249 L 4.080877 2.048372 " transform="matrix(17.29798,0,0,17.321429,17.209848,17.148172)"/>
<path style="fill:none;stroke-width:0.0333333;stroke-linecap:butt;stroke-linejoin:miter;stroke:rgb(0%,0%,0%);stroke-opacity:1;stroke-miterlimit:10;" d="M 3.547488 1.355363 L 4.247533 1.759712 " transform="matrix(17.29798,0,0,17.321429,17.209848,17.148172)"/>
</g>
</svg>
