<?xml version="1.0" encoding="UTF-8"?>
<svg xmlns="http://www.w3.org/2000/svg" xmlns:xlink="http://www.w3.org/1999/xlink" width="124pt" height="138.4pt" viewBox="0 0 124 138.4" version="1.1">
<g id="surface222">
<path style=" stroke:none;fill-rule:nonzero;fill:rgb(0%,0%,0%);fill-opacity:1;" d="M 47.78125 70.070312 C 47.78125 70.257812 47.738281 70.421875 47.660156 70.558594 C 47.589844 70.695312 47.488281 70.808594 47.359375 70.894531 C 47.230469 70.980469 47.078125 71.046875 46.90625 71.089844 C 46.738281 71.128906 46.5625 71.144531 46.375 71.144531 L 44.828125 71.144531 L 44.828125 67.324219 L 46.214844 67.324219 C 46.421875 67.324219 46.609375 67.34375 46.773438 67.378906 C 46.941406 67.40625 47.082031 67.460938 47.195312 67.539062 C 47.308594 67.613281 47.398438 67.710938 47.457031 67.832031 C 47.519531 67.949219 47.554688 68.089844 47.554688 68.246094 C 47.554688 68.355469 47.539062 68.457031 47.511719 68.550781 C 47.480469 68.644531 47.433594 68.730469 47.371094 68.808594 C 47.308594 68.882812 47.234375 68.949219 47.144531 69.003906 C 47.054688 69.058594 46.949219 69.097656 46.828125 69.125 C 46.980469 69.148438 47.113281 69.183594 47.230469 69.234375 C 47.351562 69.285156 47.449219 69.351562 47.53125 69.441406 C 47.609375 69.519531 47.671875 69.613281 47.714844 69.722656 C 47.757812 69.824219 47.78125 69.9375 47.78125 70.070312 Z M 47.035156 68.3125 C 47.035156 68.101562 46.960938 67.953125 46.820312 67.867188 C 46.679688 67.777344 46.476562 67.734375 46.214844 67.734375 L 45.347656 67.734375 L 45.347656 68.941406 L 46.214844 68.941406 C 46.363281 68.941406 46.488281 68.925781 46.589844 68.898438 C 46.699219 68.871094 46.785156 68.828125 46.851562 68.777344 C 46.914062 68.722656 46.960938 68.652344 46.992188 68.570312 C 47.019531 68.492188 47.035156 68.40625 47.035156 68.3125 Z M 47.25 70.027344 C 47.25 69.902344 47.230469 69.804688 47.1875 69.722656 C 47.144531 69.636719 47.078125 69.566406 46.992188 69.515625 C 46.910156 69.457031 46.8125 69.417969 46.699219 69.398438 C 46.582031 69.371094 46.453125 69.351562 46.308594 69.351562 L 45.347656 69.351562 L 45.347656 70.730469 L 46.351562 70.730469 C 46.484375 70.730469 46.601562 70.722656 46.710938 70.699219 C 46.824219 70.675781 46.921875 70.640625 47.003906 70.589844 C 47.082031 70.535156 47.144531 70.460938 47.1875 70.375 C 47.230469 70.28125 47.25 70.164062 47.25 70.027344 Z M 47.25 70.027344 "/>
<path style=" stroke:none;fill-rule:nonzero;fill:rgb(0%,0%,0%);fill-opacity:1;" d="M 48.585938 67.582031 L 48.585938 67.117188 L 49.074219 67.117188 L 49.074219 67.582031 Z M 48.585938 71.144531 L 48.585938 68.203125 L 49.074219 68.203125 L 49.074219 71.144531 Z M 48.585938 71.144531 "/>
<path style=" stroke:none;fill-rule:nonzero;fill:rgb(0%,0%,0%);fill-opacity:1;" d="M 106.980469 67.582031 C 106.765625 67.582031 106.574219 67.621094 106.410156 67.691406 C 106.242188 67.765625 106.101562 67.871094 105.988281 68.007812 C 105.878906 68.136719 105.792969 68.296875 105.738281 68.484375 C 105.679688 68.675781 105.652344 68.882812 105.652344 69.113281 C 105.652344 69.347656 105.679688 69.558594 105.738281 69.753906 C 105.804688 69.945312 105.890625 70.109375 106.007812 70.242188 C 106.121094 70.382812 106.261719 70.488281 106.429688 70.570312 C 106.601562 70.640625 106.792969 70.675781 107.003906 70.675781 C 107.15625 70.675781 107.285156 70.660156 107.402344 70.625 C 107.523438 70.578125 107.636719 70.523438 107.738281 70.449219 C 107.839844 70.378906 107.925781 70.292969 107.996094 70.199219 C 108.078125 70.109375 108.144531 70 108.203125 69.875 L 108.625 70.089844 C 108.558594 70.238281 108.476562 70.371094 108.375 70.492188 C 108.273438 70.617188 108.15625 70.726562 108.019531 70.820312 C 107.882812 70.90625 107.726562 70.976562 107.554688 71.023438 C 107.382812 71.074219 107.191406 71.101562 106.980469 71.101562 C 106.671875 71.101562 106.398438 71.050781 106.171875 70.960938 C 105.9375 70.859375 105.742188 70.722656 105.585938 70.546875 C 105.433594 70.367188 105.320312 70.15625 105.242188 69.917969 C 105.160156 69.671875 105.121094 69.40625 105.121094 69.113281 C 105.121094 68.820312 105.160156 68.550781 105.242188 68.3125 C 105.328125 68.066406 105.449219 67.859375 105.609375 67.691406 C 105.765625 67.527344 105.960938 67.394531 106.191406 67.300781 C 106.421875 67.210938 106.683594 67.160156 106.980469 67.160156 C 107.382812 67.160156 107.71875 67.242188 107.988281 67.398438 C 108.261719 67.558594 108.460938 67.796875 108.59375 68.117188 L 108.105469 68.277344 C 108.066406 68.1875 108.019531 68.097656 107.953125 68.019531 C 107.894531 67.929688 107.820312 67.859375 107.726562 67.800781 C 107.632812 67.734375 107.523438 67.6875 107.402344 67.648438 C 107.277344 67.605469 107.136719 67.582031 106.980469 67.582031 Z M 106.980469 67.582031 "/>
<path style=" stroke:none;fill-rule:nonzero;fill:rgb(0%,0%,0%);fill-opacity:1;" d="M 17.09375 15.476562 C 16.878906 15.476562 16.683594 15.511719 16.519531 15.582031 C 16.351562 15.65625 16.210938 15.761719 16.097656 15.898438 C 15.992188 16.027344 15.90625 16.1875 15.851562 16.375 C 15.789062 16.566406 15.765625 16.773438 15.765625 17.003906 C 15.765625 17.238281 15.789062 17.449219 15.851562 17.644531 C 15.914062 17.835938 16.003906 18 16.121094 18.136719 C 16.234375 18.273438 16.375 18.382812 16.542969 18.460938 C 16.714844 18.535156 16.90625 18.570312 17.117188 18.570312 C 17.265625 18.570312 17.398438 18.554688 17.515625 18.515625 C 17.636719 18.472656 17.746094 18.414062 17.851562 18.339844 C 17.949219 18.269531 18.035156 18.1875 18.109375 18.089844 C 18.1875 18 18.257812 17.890625 18.316406 17.765625 L 18.738281 17.984375 C 18.671875 18.128906 18.589844 18.261719 18.488281 18.382812 C 18.386719 18.507812 18.265625 18.617188 18.132812 18.710938 C 17.992188 18.796875 17.839844 18.867188 17.667969 18.917969 C 17.492188 18.964844 17.300781 18.992188 17.09375 18.992188 C 16.78125 18.992188 16.511719 18.945312 16.28125 18.851562 C 16.050781 18.75 15.855469 18.613281 15.699219 18.4375 C 15.546875 18.257812 15.429688 18.046875 15.351562 17.808594 C 15.273438 17.566406 15.234375 17.296875 15.234375 17.003906 C 15.234375 16.710938 15.273438 16.441406 15.351562 16.203125 C 15.4375 15.957031 15.5625 15.75 15.71875 15.582031 C 15.878906 15.417969 16.070312 15.289062 16.304688 15.191406 C 16.535156 15.101562 16.796875 15.050781 17.09375 15.050781 C 17.496094 15.050781 17.832031 15.132812 18.097656 15.289062 C 18.371094 15.449219 18.574219 15.691406 18.703125 16.007812 L 18.21875 16.167969 C 18.179688 16.078125 18.132812 15.992188 18.066406 15.910156 C 18.007812 15.824219 17.929688 15.75 17.839844 15.691406 C 17.746094 15.628906 17.636719 15.578125 17.515625 15.539062 C 17.390625 15.496094 17.25 15.476562 17.09375 15.476562 Z M 17.09375 15.476562 "/>
<path style=" stroke:none;fill-rule:nonzero;fill:rgb(0%,0%,0%);fill-opacity:1;" d="M 17.09375 119.691406 C 16.878906 119.691406 16.683594 119.730469 16.519531 119.800781 C 16.351562 119.875 16.210938 119.980469 16.097656 120.117188 C 15.992188 120.246094 15.90625 120.40625 15.851562 120.59375 C 15.789062 120.78125 15.765625 120.992188 15.765625 121.222656 C 15.765625 121.457031 15.789062 121.667969 15.851562 121.863281 C 15.914062 122.054688 16.003906 122.214844 16.121094 122.351562 C 16.234375 122.488281 16.375 122.597656 16.542969 122.675781 C 16.714844 122.75 16.90625 122.785156 17.117188 122.785156 C 17.265625 122.785156 17.398438 122.769531 17.515625 122.730469 C 17.636719 122.6875 17.746094 122.632812 17.851562 122.558594 C 17.949219 122.488281 18.035156 122.402344 18.109375 122.308594 C 18.1875 122.214844 18.257812 122.109375 18.316406 121.984375 L 18.738281 122.199219 C 18.671875 122.347656 18.589844 122.480469 18.488281 122.601562 C 18.386719 122.726562 18.265625 122.835938 18.132812 122.925781 C 17.992188 123.015625 17.839844 123.085938 17.667969 123.132812 C 17.492188 123.183594 17.300781 123.210938 17.09375 123.210938 C 16.78125 123.210938 16.511719 123.160156 16.28125 123.066406 C 16.050781 122.96875 15.855469 122.828125 15.699219 122.65625 C 15.546875 122.476562 15.429688 122.265625 15.351562 122.027344 C 15.273438 121.78125 15.234375 121.511719 15.234375 121.222656 C 15.234375 120.925781 15.273438 120.65625 15.351562 120.417969 C 15.4375 120.175781 15.5625 119.96875 15.71875 119.800781 C 15.878906 119.636719 16.070312 119.503906 16.304688 119.410156 C 16.535156 119.316406 16.796875 119.269531 17.09375 119.269531 C 17.496094 119.269531 17.832031 119.351562 18.097656 119.507812 C 18.371094 119.667969 18.574219 119.90625 18.703125 120.222656 L 18.21875 120.386719 C 18.179688 120.292969 18.132812 120.207031 18.066406 120.125 C 18.007812 120.039062 17.929688 119.96875 17.839844 119.910156 C 17.746094 119.84375 17.636719 119.796875 17.515625 119.757812 C 17.390625 119.714844 17.25 119.691406 17.09375 119.691406 Z M 17.09375 119.691406 "/>
<path style="fill:none;stroke-width:0.0333333;stroke-linecap:butt;stroke-linejoin:miter;stroke:rgb(0%,0%,0%);stroke-opacity:1;stroke-miterlimit:10;" d="M 1.53873 2.888352 L 0.857698 2.495242 " transform="matrix(17.299107,0,0,17.369478,16.986807,17.022237)"/>
<path style="fill:none;stroke-width:0.0333333;stroke-linecap:butt;stroke-linejoin:miter;stroke:rgb(0%,0%,0%);stroke-opacity:1;stroke-miterlimit:10;" d="M 1.732021 3.159122 L 1.732021 4.009662 " transform="matrix(17.299107,0,0,17.369478,16.986807,17.022237)"/>
<path style="fill:none;stroke-width:0.0333333;stroke-linecap:butt;stroke-linejoin:miter;stroke:rgb(0%,0%,0%);stroke-opacity:1;stroke-miterlimit:10;" d="M 1.925537 2.888352 L 2.606343 2.495242 " transform="matrix(17.299107,0,0,17.369478,16.986807,17.022237)"/>
<path style="fill:none;stroke-width:0.0333333;stroke-linecap:butt;stroke-linejoin:miter;stroke:rgb(0%,0%,0%);stroke-opacity:1;stroke-miterlimit:10;" d="M 2.589859 2.495242 L 3.472537 3.004846 " transform="matrix(17.299107,0,0,17.369478,16.986807,17.022237)"/>
<path style="fill:none;stroke-width:0.0333333;stroke-linecap:butt;stroke-linejoin:miter;stroke:rgb(0%,0%,0%);stroke-opacity:1;stroke-miterlimit:10;" d="M 3.455601 3.004846 L 4.338505 2.495242 " transform="matrix(17.299107,0,0,17.369478,16.986807,17.022237)"/>
<path style="fill:none;stroke-width:0.0333333;stroke-linecap:butt;stroke-linejoin:miter;stroke:rgb(0%,0%,0%);stroke-opacity:1;stroke-miterlimit:10;" d="M 4.321795 2.495242 L 5.019763 2.898023 " transform="matrix(17.299107,0,0,17.369478,16.986807,17.022237)"/>
<path style="fill:none;stroke-width:0.0333333;stroke-linecap:butt;stroke-linejoin:miter;stroke:rgb(0%,0%,0%);stroke-opacity:1;stroke-miterlimit:10;" d="M 0.866053 2.509635 L 0.866053 1.490201 " transform="matrix(17.299107,0,0,17.369478,16.986807,17.022237)"/>
<path style="fill:none;stroke-width:0.0333333;stroke-linecap:butt;stroke-linejoin:miter;stroke:rgb(0%,0%,0%);stroke-opacity:1;stroke-miterlimit:10;" d="M 0.874408 1.504819 L -0.00826962 0.995215 " transform="matrix(17.299107,0,0,17.369478,16.986807,17.022237)"/>
<path style="fill:none;stroke-width:0.0333333;stroke-linecap:butt;stroke-linejoin:miter;stroke:rgb(0%,0%,0%);stroke-opacity:1;stroke-miterlimit:10;" d="M -0.000140588 1.009608 L -0.000140588 0.156819 " transform="matrix(17.299107,0,0,17.369478,16.986807,17.022237)"/>
<path style="fill:none;stroke-width:0.0333333;stroke-linecap:butt;stroke-linejoin:miter;stroke:rgb(0%,0%,0%);stroke-opacity:1;stroke-miterlimit:10;" d="M 1.740376 3.995044 L 0.857698 4.504873 " transform="matrix(17.299107,0,0,17.369478,16.986807,17.022237)"/>
<path style="fill:none;stroke-width:0.0333333;stroke-linecap:butt;stroke-linejoin:miter;stroke:rgb(0%,0%,0%);stroke-opacity:1;stroke-miterlimit:10;" d="M 0.866053 4.490255 L 0.866053 5.509689 " transform="matrix(17.299107,0,0,17.369478,16.986807,17.022237)"/>
<path style="fill:none;stroke-width:0.0333333;stroke-linecap:butt;stroke-linejoin:miter;stroke:rgb(0%,0%,0%);stroke-opacity:1;stroke-miterlimit:10;" d="M 0.874408 5.495071 L 0.17644 5.898077 " transform="matrix(17.299107,0,0,17.369478,16.986807,17.022237)"/>
</g>
</svg>
