<?xml version="1.0" encoding="UTF-8"?>
<svg xmlns="http://www.w3.org/2000/svg" xmlns:xlink="http://www.w3.org/1999/xlink" width="94.4pt" height="85.6pt" viewBox="0 0 94.4 85.6" version="1.1">
<g id="surface1072">
<path style=" stroke:none;fill-rule:nonzero;fill:rgb(0%,0%,0%);fill-opacity:1;" d="M 34.070312 16.898438 C 34.070312 17.191406 34.027344 17.464844 33.941406 17.707031 C 33.855469 17.949219 33.726562 18.160156 33.5625 18.332031 C 33.402344 18.503906 33.203125 18.640625 32.964844 18.730469 C 32.730469 18.820312 32.46875 18.871094 32.171875 18.871094 C 31.851562 18.871094 31.578125 18.820312 31.339844 18.730469 C 31.105469 18.628906 30.910156 18.492188 30.753906 18.320312 C 30.59375 18.140625 30.472656 17.933594 30.394531 17.695312 C 30.3125 17.453125 30.277344 17.183594 30.277344 16.898438 C 30.277344 16.601562 30.3125 16.335938 30.394531 16.097656 C 30.480469 15.855469 30.605469 15.652344 30.761719 15.484375 C 30.929688 15.320312 31.125 15.191406 31.359375 15.09375 C 31.597656 15.003906 31.871094 14.957031 32.171875 14.957031 C 32.476562 14.957031 32.75 15.003906 32.988281 15.09375 C 33.226562 15.191406 33.421875 15.320312 33.582031 15.496094 C 33.742188 15.660156 33.859375 15.859375 33.941406 16.097656 C 34.027344 16.335938 34.070312 16.601562 34.070312 16.898438 Z M 33.539062 16.898438 C 33.539062 16.667969 33.511719 16.460938 33.453125 16.269531 C 33.394531 16.085938 33.308594 15.925781 33.191406 15.796875 C 33.078125 15.660156 32.933594 15.554688 32.757812 15.484375 C 32.589844 15.414062 32.394531 15.375 32.171875 15.375 C 31.949219 15.375 31.75 15.414062 31.578125 15.484375 C 31.402344 15.554688 31.257812 15.660156 31.144531 15.796875 C 31.035156 15.925781 30.949219 16.085938 30.894531 16.269531 C 30.835938 16.460938 30.808594 16.667969 30.808594 16.898438 C 30.808594 17.128906 30.835938 17.339844 30.894531 17.53125 C 30.949219 17.722656 31.039062 17.882812 31.152344 18.019531 C 31.269531 18.15625 31.410156 18.265625 31.578125 18.34375 C 31.75 18.414062 31.949219 18.449219 32.171875 18.449219 C 32.410156 18.449219 32.617188 18.414062 32.792969 18.34375 C 32.964844 18.265625 33.105469 18.15625 33.214844 18.019531 C 33.324219 17.875 33.402344 17.710938 33.453125 17.523438 C 33.511719 17.328125 33.539062 17.121094 33.539062 16.898438 Z M 33.539062 16.898438 "/>
<path style="fill:none;stroke-width:0.0333333;stroke-linecap:butt;stroke-linejoin:miter;stroke:rgb(0%,0%,0%);stroke-opacity:1;stroke-miterlimit:10;" d="M 1.732041 1.500015 L 0.866059 1.000022 " transform="matrix(17.352941,0,0,17.258065,17.14321,16.91343)"/>
<path style="fill:none;stroke-width:0.0333333;stroke-linecap:butt;stroke-linejoin:miter;stroke:rgb(0%,0%,0%);stroke-opacity:1;stroke-miterlimit:10;" d="M 1.565463 1.596211 L 0.866059 1.192414 " transform="matrix(17.352941,0,0,17.258065,17.14321,16.91343)"/>
<path style="fill:none;stroke-width:0.0333333;stroke-linecap:butt;stroke-linejoin:miter;stroke:rgb(0%,0%,0%);stroke-opacity:1;stroke-miterlimit:10;" d="M 1.732041 1.490282 L 1.732041 2.509507 " transform="matrix(17.352941,0,0,17.258065,17.14321,16.91343)"/>
<path style="fill:none;stroke-width:0.0333333;stroke-linecap:butt;stroke-linejoin:miter;stroke:rgb(0%,0%,0%);stroke-opacity:1;stroke-miterlimit:10;" d="M 1.723712 1.504768 L 2.606353 0.995042 " transform="matrix(17.352941,0,0,17.258065,17.14321,16.91343)"/>
<path style="fill:none;stroke-width:0.0333333;stroke-linecap:butt;stroke-linejoin:miter;stroke:rgb(0%,0%,0%);stroke-opacity:1;stroke-miterlimit:10;" d="M 0.874388 0.995042 L -0.00847789 1.504768 " transform="matrix(17.352941,0,0,17.258065,17.14321,16.91343)"/>
<path style="fill:none;stroke-width:0.0333333;stroke-linecap:butt;stroke-linejoin:miter;stroke:rgb(0%,0%,0%);stroke-opacity:1;stroke-miterlimit:10;" d="M 0.0000761364 1.490282 L 0.0000761364 2.509507 " transform="matrix(17.352941,0,0,17.258065,17.14321,16.91343)"/>
<path style="fill:none;stroke-width:0.0333333;stroke-linecap:butt;stroke-linejoin:miter;stroke:rgb(0%,0%,0%);stroke-opacity:1;stroke-miterlimit:10;" d="M -0.00847789 2.495021 L 0.874388 3.004746 " transform="matrix(17.352941,0,0,17.258065,17.14321,16.91343)"/>
<path style="fill:none;stroke-width:0.0333333;stroke-linecap:butt;stroke-linejoin:miter;stroke:rgb(0%,0%,0%);stroke-opacity:1;stroke-miterlimit:10;" d="M 0.857955 3.004746 L 1.732041 2.5 " transform="matrix(17.352941,0,0,17.258065,17.14321,16.91343)"/>
<path style="fill:none;stroke-width:0.0333333;stroke-linecap:butt;stroke-linejoin:miter;stroke:rgb(0%,0%,0%);stroke-opacity:1;stroke-miterlimit:10;" d="M 0.857955 2.812354 L 1.565463 2.403804 " transform="matrix(17.352941,0,0,17.258065,17.14321,16.91343)"/>
<path style="fill:none;stroke-width:0.0333333;stroke-linecap:butt;stroke-linejoin:miter;stroke:rgb(0%,0%,0%);stroke-opacity:1;stroke-miterlimit:10;" d="M 1.723712 2.495021 L 2.606353 3.004746 " transform="matrix(17.352941,0,0,17.258065,17.14321,16.91343)"/>
<path style="fill:none;stroke-width:0.0333333;stroke-linecap:butt;stroke-linejoin:miter;stroke:rgb(0%,0%,0%);stroke-opacity:1;stroke-miterlimit:10;" d="M 2.589695 3.004746 L 3.47256 2.495021 " transform="matrix(17.352941,0,0,17.258065,17.14321,16.91343)"/>
<path style="fill:none;stroke-width:0.0333333;stroke-linecap:butt;stroke-linejoin:miter;stroke:rgb(0%,0%,0%);stroke-opacity:1;stroke-miterlimit:10;" d="M 2.589695 2.812354 L 3.305757 2.398825 " transform="matrix(17.352941,0,0,17.258065,17.14321,16.91343)"/>
<path style="fill:none;stroke-width:0.0333333;stroke-linecap:butt;stroke-linejoin:miter;stroke:rgb(0%,0%,0%);stroke-opacity:1;stroke-miterlimit:10;" d="M 3.464006 2.509507 L 3.464006 1.490282 " transform="matrix(17.352941,0,0,17.258065,17.14321,16.91343)"/>
<path style="fill:none;stroke-width:0.0333333;stroke-linecap:butt;stroke-linejoin:miter;stroke:rgb(0%,0%,0%);stroke-opacity:1;stroke-miterlimit:10;" d="M 3.47256 1.504768 L 2.589695 0.995042 " transform="matrix(17.352941,0,0,17.258065,17.14321,16.91343)"/>
<path style="fill:none;stroke-width:0.0333333;stroke-linecap:butt;stroke-linejoin:miter;stroke:rgb(0%,0%,0%);stroke-opacity:1;stroke-miterlimit:10;" d="M 3.305757 1.600964 L 2.589695 1.187661 " transform="matrix(17.352941,0,0,17.258065,17.14321,16.91343)"/>
<path style="fill:none;stroke-width:0.0333333;stroke-linecap:butt;stroke-linejoin:miter;stroke:rgb(0%,0%,0%);stroke-opacity:1;stroke-miterlimit:10;" d="M 0.866059 1.009755 L 0.866059 0.156893 " transform="matrix(17.352941,0,0,17.258065,17.14321,16.91343)"/>
</g>
</svg>
