<?xml version="1.0" encoding="UTF-8"?>
<svg xmlns="http://www.w3.org/2000/svg" xmlns:xlink="http://www.w3.org/1999/xlink" width="109.6pt" height="68.8pt" viewBox="0 0 109.6 68.8" version="1.1">
<g id="surface122">
<path style=" stroke:none;fill-rule:nonzero;fill:rgb(0%,0%,0%);fill-opacity:1;" d="M 33.203125 53.664062 L 31.15625 50.4375 C 31.164062 50.523438 31.167969 50.609375 31.167969 50.695312 C 31.175781 50.769531 31.179688 50.847656 31.179688 50.933594 C 31.183594 51.015625 31.191406 51.085938 31.191406 51.148438 L 31.191406 53.664062 L 30.726562 53.664062 L 30.726562 49.878906 L 31.332031 49.878906 L 33.386719 53.125 C 33.386719 53.125 33.378906 53.039062 33.375 52.859375 C 33.367188 52.789062 33.359375 52.707031 33.351562 52.621094 C 33.351562 52.53125 33.351562 52.445312 33.351562 52.363281 L 33.351562 49.878906 L 33.816406 49.878906 L 33.816406 53.664062 Z M 33.203125 53.664062 "/>
<path style=" stroke:none;fill-rule:nonzero;fill:rgb(0%,0%,0%);fill-opacity:1;" d="M 33.164062 19.222656 L 31.121094 16 C 31.125 16.085938 31.132812 16.171875 31.132812 16.257812 C 31.136719 16.328125 31.140625 16.40625 31.140625 16.492188 C 31.148438 16.574219 31.152344 16.644531 31.152344 16.707031 L 31.152344 19.222656 L 30.6875 19.222656 L 30.6875 15.441406 L 31.292969 15.441406 L 33.347656 18.6875 C 33.347656 18.6875 33.34375 18.597656 33.335938 18.417969 C 33.328125 18.347656 33.320312 18.265625 33.316406 18.179688 C 33.316406 18.089844 33.316406 18.003906 33.316406 17.921875 L 33.316406 15.441406 L 33.78125 15.441406 L 33.78125 19.222656 Z M 33.164062 19.222656 "/>
<path style=" stroke:none;fill-rule:nonzero;fill:rgb(0%,0%,0%);fill-opacity:1;" d="M 78.140625 44.898438 L 76.097656 41.671875 C 76.101562 41.757812 76.109375 41.84375 76.109375 41.929688 C 76.113281 42.003906 76.121094 42.082031 76.121094 42.167969 C 76.125 42.246094 76.128906 42.316406 76.128906 42.382812 L 76.128906 44.898438 L 75.664062 44.898438 L 75.664062 41.113281 L 76.269531 41.113281 L 78.324219 44.359375 C 78.324219 44.359375 78.320312 44.269531 78.3125 44.089844 C 78.304688 44.019531 78.296875 43.941406 78.292969 43.855469 C 78.292969 43.761719 78.292969 43.675781 78.292969 43.597656 L 78.292969 41.113281 L 78.757812 41.113281 L 78.757812 44.898438 Z M 78.140625 44.898438 "/>
<path style=" stroke:none;fill-rule:nonzero;fill:rgb(0%,0%,0%);fill-opacity:1;" d="M 63.039062 19.117188 L 60.996094 15.894531 C 61.003906 15.980469 61.007812 16.066406 61.007812 16.152344 C 61.011719 16.222656 61.019531 16.300781 61.019531 16.386719 C 61.023438 16.46875 61.03125 16.539062 61.03125 16.601562 L 61.03125 19.117188 L 60.566406 19.117188 L 60.566406 15.335938 L 61.171875 15.335938 L 63.222656 18.582031 C 63.222656 18.582031 63.21875 18.492188 63.214844 18.3125 C 63.207031 18.242188 63.195312 18.164062 63.191406 18.074219 C 63.191406 17.984375 63.191406 17.898438 63.191406 17.816406 L 63.191406 15.335938 L 63.65625 15.335938 L 63.65625 19.117188 Z M 63.039062 19.117188 "/>
<path style=" stroke:none;fill-rule:nonzero;fill:rgb(0%,0%,0%);fill-opacity:1;" d="M 92.957031 18.921875 L 90.914062 15.695312 C 90.917969 15.78125 90.925781 15.867188 90.925781 15.953125 C 90.929688 16.027344 90.9375 16.101562 90.9375 16.191406 C 90.941406 16.269531 90.945312 16.339844 90.945312 16.40625 L 90.945312 18.921875 L 90.480469 18.921875 L 90.480469 15.136719 L 91.085938 15.136719 L 93.140625 18.382812 C 93.140625 18.382812 93.136719 18.292969 93.128906 18.113281 C 93.121094 18.042969 93.113281 17.964844 93.109375 17.878906 C 93.109375 17.785156 93.109375 17.699219 93.109375 17.621094 L 93.109375 15.136719 L 93.574219 15.136719 L 93.574219 18.921875 Z M 92.957031 18.921875 "/>
<path style="fill:none;stroke-width:0.0333333;stroke-linecap:butt;stroke-linejoin:miter;stroke:rgb(0%,0%,0%);stroke-opacity:1;stroke-miterlimit:10;" d="M 1.72301 1.510213 L 2.605971 2.017344 " transform="matrix(17.29798,0,0,17.2,17.29306,17.028247)"/>
<path style="fill:none;stroke-width:0.0333333;stroke-linecap:butt;stroke-linejoin:miter;stroke:rgb(0%,0%,0%);stroke-opacity:1;stroke-miterlimit:10;" d="M 0.00134968 0.508214 L -0.00000524978 1.529517 " transform="matrix(17.29798,0,0,17.2,17.29306,17.028247)"/>
<path style="fill:none;stroke-width:0.0333333;stroke-linecap:butt;stroke-linejoin:miter;stroke:rgb(0%,0%,0%);stroke-opacity:1;stroke-miterlimit:10;" d="M 0.168006 0.604281 L 0.166877 1.43345 " transform="matrix(17.29798,0,0,17.2,17.29306,17.028247)"/>
<path style="fill:none;stroke-width:0.0333333;stroke-linecap:butt;stroke-linejoin:miter;stroke:rgb(0%,0%,0%);stroke-opacity:1;stroke-miterlimit:10;" d="M 2.58926 2.017344 L 3.298113 1.606279 " transform="matrix(17.29798,0,0,17.2,17.29306,17.028247)"/>
<path style="fill:none;stroke-width:0.0333333;stroke-linecap:butt;stroke-linejoin:miter;stroke:rgb(0%,0%,0%);stroke-opacity:1;stroke-miterlimit:10;" d="M 2.589034 1.824984 L 3.214559 1.462293 " transform="matrix(17.29798,0,0,17.2,17.29306,17.028247)"/>
<path style="fill:none;stroke-width:0.0333333;stroke-linecap:butt;stroke-linejoin:miter;stroke:rgb(0%,0%,0%);stroke-opacity:1;stroke-miterlimit:10;" d="M 1.730462 0.513211 L 1.029965 0.112593 " transform="matrix(17.29798,0,0,17.2,17.29306,17.028247)"/>
<path style="fill:none;stroke-width:0.0333333;stroke-linecap:butt;stroke-linejoin:miter;stroke:rgb(0%,0%,0%);stroke-opacity:1;stroke-miterlimit:10;" d="M 1.563806 0.609958 L 0.947089 0.25726 " transform="matrix(17.29798,0,0,17.2,17.29306,17.028247)"/>
<path style="fill:none;stroke-width:0.0333333;stroke-linecap:butt;stroke-linejoin:miter;stroke:rgb(0%,0%,0%);stroke-opacity:1;stroke-miterlimit:10;" d="M 3.463188 1.356461 L 3.457994 0.495042 " transform="matrix(17.29798,0,0,17.2,17.29306,17.028247)"/>
<path style="fill:none;stroke-width:0.0333333;stroke-linecap:butt;stroke-linejoin:miter;stroke:rgb(0%,0%,0%);stroke-opacity:1;stroke-miterlimit:10;" d="M 0.698008 0.113955 L -0.00700571 0.522522 " transform="matrix(17.29798,0,0,17.2,17.29306,17.028247)"/>
<path style="fill:none;stroke-width:0.0333333;stroke-linecap:butt;stroke-linejoin:miter;stroke:rgb(0%,0%,0%);stroke-opacity:1;stroke-miterlimit:10;" d="M 3.45822 0.504808 L 2.757271 0.106007 " transform="matrix(17.29798,0,0,17.2,17.29306,17.028247)"/>
<path style="fill:none;stroke-width:0.0333333;stroke-linecap:butt;stroke-linejoin:miter;stroke:rgb(0%,0%,0%);stroke-opacity:1;stroke-miterlimit:10;" d="M 3.292016 0.60201 L 2.674621 0.251128 " transform="matrix(17.29798,0,0,17.2,17.29306,17.028247)"/>
<path style="fill:none;stroke-width:0.0333333;stroke-linecap:butt;stroke-linejoin:miter;stroke:rgb(0%,0%,0%);stroke-opacity:1;stroke-miterlimit:10;" d="M 2.425088 0.108278 L 1.722107 0.51798 " transform="matrix(17.29798,0,0,17.2,17.29306,17.028247)"/>
<path style="fill:none;stroke-width:0.0333333;stroke-linecap:butt;stroke-linejoin:miter;stroke:rgb(0%,0%,0%);stroke-opacity:1;stroke-miterlimit:10;" d="M 3.449865 0.509577 L 4.154878 0.0969224 " transform="matrix(17.29798,0,0,17.2,17.29306,17.028247)"/>
<path style="fill:none;stroke-width:0.0333333;stroke-linecap:butt;stroke-linejoin:miter;stroke:rgb(0%,0%,0%);stroke-opacity:1;stroke-miterlimit:10;" d="M -0.00836063 1.515209 L 0.70004 1.92423 " transform="matrix(17.29798,0,0,17.2,17.29306,17.028247)"/>
<path style="fill:none;stroke-width:0.0333333;stroke-linecap:butt;stroke-linejoin:miter;stroke:rgb(0%,0%,0%);stroke-opacity:1;stroke-miterlimit:10;" d="M 1.730462 0.503672 L 1.731366 1.524521 " transform="matrix(17.29798,0,0,17.2,17.29306,17.028247)"/>
<path style="fill:none;stroke-width:0.0333333;stroke-linecap:butt;stroke-linejoin:miter;stroke:rgb(0%,0%,0%);stroke-opacity:1;stroke-miterlimit:10;" d="M 1.031772 1.923321 L 1.731366 1.514982 " transform="matrix(17.29798,0,0,17.2,17.29306,17.028247)"/>
<path style="fill:none;stroke-width:0.0333333;stroke-linecap:butt;stroke-linejoin:miter;stroke:rgb(0%,0%,0%);stroke-opacity:1;stroke-miterlimit:10;" d="M 0.94754 1.779335 L 1.56471 1.419143 " transform="matrix(17.29798,0,0,17.2,17.29306,17.028247)"/>
</g>
</svg>
