<?xml version="1.0" encoding="UTF-8"?>
<svg xmlns="http://www.w3.org/2000/svg" xmlns:xlink="http://www.w3.org/1999/xlink" width="104pt" height="64pt" viewBox="0 0 104 64" version="1.1">
<g id="surface347">
<path style=" stroke:none;fill-rule:nonzero;fill:rgb(0%,0%,47.058824%);fill-opacity:1;" d="M 17.308594 33.398438 C 17.460938 33.398438 17.589844 33.378906 17.699219 33.335938 C 17.804688 33.292969 17.898438 33.238281 17.980469 33.171875 C 18.058594 33.101562 18.121094 33.023438 18.171875 32.9375 C 18.230469 32.851562 18.277344 32.765625 18.3125 32.679688 L 19.003906 32.9375 C 18.945312 33.074219 18.871094 33.210938 18.777344 33.347656 C 18.691406 33.476562 18.578125 33.589844 18.441406 33.691406 C 18.3125 33.792969 18.15625 33.875 17.96875 33.9375 C 17.777344 33.996094 17.558594 34.023438 17.308594 34.023438 C 16.976562 34.023438 16.6875 33.976562 16.445312 33.882812 C 16.207031 33.785156 16.007812 33.648438 15.851562 33.476562 C 15.691406 33.296875 15.570312 33.085938 15.492188 32.851562 C 15.421875 32.609375 15.386719 32.339844 15.386719 32.054688 C 15.386719 31.757812 15.421875 31.492188 15.492188 31.253906 C 15.570312 31.011719 15.6875 30.808594 15.839844 30.640625 C 15.996094 30.476562 16.195312 30.347656 16.433594 30.253906 C 16.671875 30.160156 16.953125 30.113281 17.277344 30.113281 C 17.519531 30.113281 17.734375 30.144531 17.925781 30.199219 C 18.109375 30.25 18.273438 30.324219 18.410156 30.414062 C 18.546875 30.507812 18.660156 30.621094 18.746094 30.75 C 18.832031 30.878906 18.898438 31.019531 18.949219 31.167969 L 18.25 31.363281 C 18.226562 31.285156 18.1875 31.210938 18.128906 31.136719 C 18.078125 31.058594 18.015625 30.992188 17.933594 30.933594 C 17.855469 30.875 17.761719 30.828125 17.65625 30.792969 C 17.546875 30.757812 17.421875 30.738281 17.289062 30.738281 C 17.09375 30.738281 16.925781 30.769531 16.789062 30.835938 C 16.652344 30.898438 16.535156 30.992188 16.445312 31.105469 C 16.359375 31.21875 16.292969 31.359375 16.25 31.515625 C 16.207031 31.671875 16.183594 31.851562 16.183594 32.054688 C 16.183594 32.253906 16.207031 32.4375 16.25 32.601562 C 16.292969 32.761719 16.359375 32.902344 16.445312 33.023438 C 16.535156 33.136719 16.652344 33.234375 16.789062 33.304688 C 16.933594 33.367188 17.105469 33.398438 17.308594 33.398438 Z M 17.308594 33.398438 "/>
<path style=" stroke:none;fill-rule:nonzero;fill:rgb(0%,0%,0%);fill-opacity:1;" d="M 86.636719 30.535156 C 86.421875 30.535156 86.226562 30.570312 86.0625 30.640625 C 85.894531 30.714844 85.753906 30.820312 85.640625 30.953125 C 85.535156 31.082031 85.449219 31.242188 85.394531 31.429688 C 85.335938 31.617188 85.308594 31.824219 85.308594 32.054688 C 85.308594 32.285156 85.335938 32.496094 85.394531 32.6875 C 85.457031 32.878906 85.546875 33.039062 85.664062 33.171875 C 85.777344 33.3125 85.917969 33.417969 86.085938 33.496094 C 86.257812 33.570312 86.445312 33.605469 86.65625 33.605469 C 86.808594 33.605469 86.941406 33.589844 87.058594 33.550781 C 87.179688 33.507812 87.289062 33.449219 87.390625 33.378906 C 87.492188 33.308594 87.578125 33.226562 87.652344 33.128906 C 87.730469 33.039062 87.796875 32.929688 87.855469 32.808594 L 88.277344 33.023438 C 88.214844 33.167969 88.128906 33.300781 88.03125 33.421875 C 87.925781 33.546875 87.808594 33.652344 87.671875 33.746094 C 87.535156 33.832031 87.382812 33.902344 87.207031 33.949219 C 87.035156 33.996094 86.84375 34.023438 86.636719 34.023438 C 86.324219 34.023438 86.054688 33.976562 85.824219 33.882812 C 85.59375 33.785156 85.398438 33.648438 85.242188 33.476562 C 85.089844 33.296875 84.976562 33.085938 84.898438 32.851562 C 84.816406 32.609375 84.777344 32.339844 84.777344 32.054688 C 84.777344 31.757812 84.816406 31.492188 84.898438 31.253906 C 84.984375 31.011719 85.105469 30.808594 85.265625 30.640625 C 85.421875 30.476562 85.613281 30.347656 85.847656 30.253906 C 86.078125 30.160156 86.339844 30.113281 86.636719 30.113281 C 87.039062 30.113281 87.375 30.195312 87.640625 30.351562 C 87.914062 30.507812 88.117188 30.746094 88.246094 31.0625 L 87.757812 31.222656 C 87.722656 31.132812 87.671875 31.046875 87.609375 30.964844 C 87.550781 30.878906 87.472656 30.808594 87.382812 30.75 C 87.285156 30.683594 87.179688 30.636719 87.058594 30.597656 C 86.933594 30.554688 86.792969 30.535156 86.636719 30.535156 Z M 86.636719 30.535156 "/>
<path style="fill:none;stroke-width:0.06;stroke-linecap:butt;stroke-linejoin:miter;stroke:rgb(0%,0%,47.058824%);stroke-opacity:1;stroke-miterlimit:10;" d="M 0.996488 0.875122 L 1.516651 -0.00824489 " transform="matrix(17.287234,0,0,17.241379,17.195353,17.126528)"/>
<path style="fill:none;stroke-width:0.0333333;stroke-linecap:butt;stroke-linejoin:miter;stroke:rgb(0%,0%,0%);stroke-opacity:1;stroke-miterlimit:10;" d="M 0.996488 0.85813 L 1.516651 1.741497 " transform="matrix(17.287234,0,0,17.241379,17.195353,17.126528)"/>
<path style="fill:none;stroke-width:0.06;stroke-linecap:butt;stroke-linejoin:miter;stroke:rgb(0%,0%,47.058824%);stroke-opacity:1;stroke-miterlimit:10;" d="M 1.050493 0.783364 L 0.148002 0.783364 " transform="matrix(17.287234,0,0,17.241379,17.195353,17.126528)"/>
<path style="fill:none;stroke-width:0.06;stroke-linecap:butt;stroke-linejoin:miter;stroke:rgb(0%,0%,47.058824%);stroke-opacity:1;stroke-miterlimit:10;" d="M 1.050493 0.949888 L 0.148002 0.949888 " transform="matrix(17.287234,0,0,17.241379,17.195353,17.126528)"/>
<path style="fill:none;stroke-width:0.0333333;stroke-linecap:butt;stroke-linejoin:miter;stroke:rgb(0%,0%,0%);stroke-opacity:1;stroke-miterlimit:10;" d="M 1.502416 -0.00008864 L 2.508397 -0.00008864 " transform="matrix(17.287234,0,0,17.241379,17.195353,17.126528)"/>
<path style="fill:none;stroke-width:0.0333333;stroke-linecap:butt;stroke-linejoin:miter;stroke:rgb(0%,0%,0%);stroke-opacity:1;stroke-miterlimit:10;" d="M 1.502416 1.733341 L 2.508397 1.733341 " transform="matrix(17.287234,0,0,17.241379,17.195353,17.126528)"/>
<path style="fill:none;stroke-width:0.0333333;stroke-linecap:butt;stroke-linejoin:miter;stroke:rgb(0%,0%,0%);stroke-opacity:1;stroke-miterlimit:10;" d="M 2.494161 -0.00824489 L 3.014099 0.875122 " transform="matrix(17.287234,0,0,17.241379,17.195353,17.126528)"/>
<path style="fill:none;stroke-width:0.0333333;stroke-linecap:butt;stroke-linejoin:miter;stroke:rgb(0%,0%,0%);stroke-opacity:1;stroke-miterlimit:10;" d="M 2.960094 0.949888 L 3.8662 0.949888 " transform="matrix(17.287234,0,0,17.241379,17.195353,17.126528)"/>
<path style="fill:none;stroke-width:0.0333333;stroke-linecap:butt;stroke-linejoin:miter;stroke:rgb(0%,0%,0%);stroke-opacity:1;stroke-miterlimit:10;" d="M 2.960094 0.783364 L 3.8662 0.783364 " transform="matrix(17.287234,0,0,17.241379,17.195353,17.126528)"/>
<path style="fill:none;stroke-width:0.0333333;stroke-linecap:butt;stroke-linejoin:miter;stroke:rgb(0%,0%,0%);stroke-opacity:1;stroke-miterlimit:10;" d="M 2.494161 1.741497 L 3.014099 0.85813 " transform="matrix(17.287234,0,0,17.241379,17.195353,17.126528)"/>
</g>
</svg>
