<?xml version="1.0" encoding="UTF-8"?>
<svg xmlns="http://www.w3.org/2000/svg" xmlns:xlink="http://www.w3.org/1999/xlink" width="111.2pt" height="92.8pt" viewBox="0 0 111.2 92.8" version="1.1">
<g id="surface317">
<path style=" stroke:none;fill-rule:nonzero;fill:rgb(0%,0%,0%);fill-opacity:1;" d="M 63.1875 25.425781 L 61.136719 22.191406 C 61.140625 22.277344 61.144531 22.363281 61.144531 22.449219 C 61.152344 22.519531 61.15625 22.601562 61.15625 22.6875 C 61.164062 22.765625 61.167969 22.835938 61.167969 22.902344 L 61.167969 25.425781 L 60.703125 25.425781 L 60.703125 21.628906 L 61.308594 21.628906 L 63.371094 24.886719 C 63.371094 24.886719 63.367188 24.796875 63.363281 24.617188 C 63.355469 24.546875 63.34375 24.464844 63.339844 24.378906 C 63.339844 24.289062 63.339844 24.203125 63.339844 24.121094 L 63.339844 21.628906 L 63.808594 21.628906 L 63.808594 25.425781 Z M 63.1875 25.425781 "/>
<path style=" stroke:none;fill-rule:nonzero;fill:rgb(0%,0%,0%);fill-opacity:1;" d="M 78.238281 51.320312 L 76.183594 48.082031 C 76.1875 48.167969 76.195312 48.253906 76.195312 48.339844 C 76.199219 48.414062 76.207031 48.492188 76.207031 48.578125 C 76.210938 48.660156 76.214844 48.730469 76.214844 48.792969 L 76.214844 51.320312 L 75.75 51.320312 L 75.75 47.523438 L 76.359375 47.523438 L 78.421875 50.78125 C 78.421875 50.78125 78.414062 50.691406 78.410156 50.511719 C 78.402344 50.441406 78.394531 50.359375 78.386719 50.273438 C 78.386719 50.179688 78.386719 50.09375 78.386719 50.015625 L 78.386719 47.523438 L 78.855469 47.523438 L 78.855469 51.320312 Z M 78.238281 51.320312 "/>
<path style=" stroke:none;fill-rule:nonzero;fill:rgb(0%,0%,0%);fill-opacity:1;" d="M 86.097656 15.671875 C 85.882812 15.671875 85.6875 15.707031 85.523438 15.777344 C 85.355469 15.851562 85.214844 15.957031 85.097656 16.089844 C 84.992188 16.222656 84.90625 16.378906 84.851562 16.566406 C 84.789062 16.753906 84.761719 16.960938 84.761719 17.191406 C 84.761719 17.421875 84.789062 17.632812 84.851562 17.828125 C 84.914062 18.015625 85.003906 18.179688 85.121094 18.3125 C 85.234375 18.453125 85.375 18.558594 85.542969 18.636719 C 85.71875 18.710938 85.910156 18.746094 86.121094 18.746094 C 86.273438 18.746094 86.40625 18.730469 86.523438 18.691406 C 86.644531 18.648438 86.753906 18.589844 86.859375 18.519531 C 86.960938 18.449219 87.046875 18.363281 87.121094 18.269531 C 87.199219 18.179688 87.265625 18.070312 87.324219 17.945312 L 87.75 18.164062 C 87.683594 18.308594 87.601562 18.441406 87.5 18.5625 C 87.394531 18.6875 87.277344 18.792969 87.140625 18.886719 C 87.003906 18.972656 86.847656 19.042969 86.675781 19.089844 C 86.5 19.140625 86.308594 19.167969 86.097656 19.167969 C 85.785156 19.167969 85.515625 19.117188 85.285156 19.027344 C 85.050781 18.925781 84.855469 18.789062 84.699219 18.617188 C 84.546875 18.4375 84.429688 18.226562 84.351562 17.988281 C 84.269531 17.746094 84.230469 17.480469 84.230469 17.191406 C 84.230469 16.898438 84.269531 16.628906 84.351562 16.394531 C 84.4375 16.152344 84.558594 15.945312 84.71875 15.777344 C 84.875 15.613281 85.074219 15.484375 85.304688 15.390625 C 85.535156 15.296875 85.800781 15.25 86.097656 15.25 C 86.503906 15.25 86.839844 15.332031 87.109375 15.488281 C 87.382812 15.644531 87.585938 15.882812 87.714844 16.199219 L 87.226562 16.359375 C 87.191406 16.269531 87.140625 16.183594 87.074219 16.101562 C 87.015625 16.015625 86.941406 15.945312 86.847656 15.886719 C 86.753906 15.820312 86.644531 15.773438 86.523438 15.734375 C 86.398438 15.691406 86.257812 15.671875 86.097656 15.671875 Z M 86.097656 15.671875 "/>
<path style=" stroke:none;fill-rule:nonzero;fill:rgb(0%,0%,0%);fill-opacity:1;" d="M 94.195312 35.085938 C 93.976562 35.085938 93.785156 35.125 93.617188 35.195312 C 93.449219 35.269531 93.308594 35.375 93.195312 35.507812 C 93.085938 35.636719 93.003906 35.796875 92.945312 35.984375 C 92.886719 36.171875 92.859375 36.378906 92.859375 36.609375 C 92.859375 36.839844 92.886719 37.050781 92.945312 37.246094 C 93.011719 37.433594 93.101562 37.597656 93.21875 37.730469 C 93.332031 37.867188 93.472656 37.976562 93.640625 38.054688 C 93.8125 38.128906 94.003906 38.164062 94.214844 38.164062 C 94.367188 38.164062 94.5 38.144531 94.617188 38.109375 C 94.738281 38.066406 94.851562 38.007812 94.953125 37.9375 C 95.054688 37.867188 95.140625 37.78125 95.214844 37.6875 C 95.292969 37.597656 95.363281 37.488281 95.421875 37.363281 L 95.84375 37.578125 C 95.78125 37.726562 95.695312 37.859375 95.59375 37.980469 C 95.492188 38.101562 95.371094 38.210938 95.238281 38.300781 C 95.097656 38.390625 94.945312 38.460938 94.769531 38.507812 C 94.597656 38.554688 94.402344 38.582031 94.195312 38.582031 C 93.882812 38.582031 93.609375 38.535156 93.378906 38.441406 C 93.144531 38.34375 92.949219 38.207031 92.792969 38.03125 C 92.640625 37.855469 92.523438 37.644531 92.445312 37.40625 C 92.363281 37.164062 92.328125 36.898438 92.328125 36.609375 C 92.328125 36.316406 92.363281 36.046875 92.445312 35.808594 C 92.53125 35.566406 92.65625 35.363281 92.816406 35.195312 C 92.972656 35.03125 93.167969 34.902344 93.402344 34.808594 C 93.632812 34.714844 93.894531 34.667969 94.195312 34.667969 C 94.597656 34.667969 94.933594 34.746094 95.203125 34.902344 C 95.476562 35.0625 95.683594 35.300781 95.8125 35.617188 L 95.324219 35.777344 C 95.285156 35.6875 95.238281 35.601562 95.171875 35.519531 C 95.113281 35.433594 95.035156 35.363281 94.945312 35.304688 C 94.847656 35.238281 94.738281 35.191406 94.617188 35.152344 C 94.492188 35.109375 94.351562 35.085938 94.195312 35.085938 Z M 94.195312 35.085938 "/>
<path style=" stroke:none;fill-rule:nonzero;fill:rgb(0%,0%,0%);fill-opacity:1;" d="M 64.15625 75.296875 C 64.15625 75.59375 64.109375 75.863281 64.023438 76.105469 C 63.9375 76.351562 63.808594 76.558594 63.644531 76.730469 C 63.484375 76.90625 63.285156 77.039062 63.046875 77.132812 C 62.8125 77.222656 62.550781 77.269531 62.253906 77.269531 C 61.933594 77.269531 61.65625 77.222656 61.417969 77.132812 C 61.183594 77.03125 60.988281 76.894531 60.832031 76.722656 C 60.671875 76.542969 60.550781 76.332031 60.472656 76.09375 C 60.390625 75.851562 60.355469 75.585938 60.355469 75.296875 C 60.355469 75.003906 60.390625 74.734375 60.472656 74.5 C 60.558594 74.257812 60.683594 74.050781 60.84375 73.882812 C 61.007812 73.71875 61.207031 73.589844 61.441406 73.496094 C 61.679688 73.402344 61.949219 73.355469 62.253906 73.355469 C 62.558594 73.355469 62.828125 73.402344 63.070312 73.496094 C 63.308594 73.589844 63.503906 73.722656 63.664062 73.894531 C 63.824219 74.0625 63.941406 74.261719 64.023438 74.5 C 64.109375 74.734375 64.15625 75.003906 64.15625 75.296875 Z M 63.621094 75.296875 C 63.621094 75.066406 63.59375 74.859375 63.535156 74.671875 C 63.476562 74.484375 63.390625 74.324219 63.273438 74.195312 C 63.15625 74.0625 63.015625 73.957031 62.839844 73.882812 C 62.671875 73.8125 62.476562 73.777344 62.253906 73.777344 C 62.027344 73.777344 61.832031 73.8125 61.65625 73.882812 C 61.484375 73.957031 61.335938 74.0625 61.222656 74.195312 C 61.113281 74.324219 61.03125 74.484375 60.972656 74.671875 C 60.914062 74.859375 60.886719 75.066406 60.886719 75.296875 C 60.886719 75.527344 60.914062 75.738281 60.972656 75.933594 C 61.03125 76.121094 61.117188 76.285156 61.234375 76.417969 C 61.347656 76.554688 61.488281 76.664062 61.65625 76.742188 C 61.832031 76.816406 62.027344 76.851562 62.253906 76.851562 C 62.492188 76.851562 62.699219 76.816406 62.875 76.742188 C 63.046875 76.664062 63.1875 76.554688 63.296875 76.417969 C 63.40625 76.277344 63.484375 76.113281 63.535156 75.921875 C 63.59375 75.726562 63.621094 75.519531 63.621094 75.296875 Z M 63.621094 75.296875 "/>
<path style="fill:none;stroke-width:0.0333333;stroke-linecap:butt;stroke-linejoin:miter;stroke:rgb(0%,0%,0%);stroke-opacity:1;stroke-miterlimit:10;" d="M 0.874282 0.361233 L -0.00836205 0.870845 " transform="matrix(17.375,0,0,17.261905,17.114041,17.209747)"/>
<path style="fill:none;stroke-width:0.0333333;stroke-linecap:butt;stroke-linejoin:miter;stroke:rgb(0%,0%,0%);stroke-opacity:1;stroke-miterlimit:10;" d="M 0.857645 0.361233 L 1.731971 0.866093 " transform="matrix(17.375,0,0,17.261905,17.114041,17.209747)"/>
<path style="fill:none;stroke-width:0.0333333;stroke-linecap:butt;stroke-linejoin:miter;stroke:rgb(0%,0%,0%);stroke-opacity:1;stroke-miterlimit:10;" d="M 0.857645 0.553582 L 1.565379 0.962267 " transform="matrix(17.375,0,0,17.261905,17.114041,17.209747)"/>
<path style="fill:none;stroke-width:0.0333333;stroke-linecap:butt;stroke-linejoin:miter;stroke:rgb(0%,0%,0%);stroke-opacity:1;stroke-miterlimit:10;" d="M -0.0000437096 0.856362 L -0.0000437096 1.875586 " transform="matrix(17.375,0,0,17.261905,17.114041,17.209747)"/>
<path style="fill:none;stroke-width:0.0333333;stroke-linecap:butt;stroke-linejoin:miter;stroke:rgb(0%,0%,0%);stroke-opacity:1;stroke-miterlimit:10;" d="M 0.166773 0.952763 L 0.166773 1.779412 " transform="matrix(17.375,0,0,17.261905,17.114041,17.209747)"/>
<path style="fill:none;stroke-width:0.0333333;stroke-linecap:butt;stroke-linejoin:miter;stroke:rgb(0%,0%,0%);stroke-opacity:1;stroke-miterlimit:10;" d="M -0.00836205 1.86133 L 0.874282 2.370942 " transform="matrix(17.375,0,0,17.261905,17.114041,17.209747)"/>
<path style="fill:none;stroke-width:0.0333333;stroke-linecap:butt;stroke-linejoin:miter;stroke:rgb(0%,0%,0%);stroke-opacity:1;stroke-miterlimit:10;" d="M 0.857645 2.370942 L 1.731971 1.866082 " transform="matrix(17.375,0,0,17.261905,17.114041,17.209747)"/>
<path style="fill:none;stroke-width:0.0333333;stroke-linecap:butt;stroke-linejoin:miter;stroke:rgb(0%,0%,0%);stroke-opacity:1;stroke-miterlimit:10;" d="M 0.857645 2.178366 L 1.565379 1.769907 " transform="matrix(17.375,0,0,17.261905,17.114041,17.209747)"/>
<path style="fill:none;stroke-width:0.0333333;stroke-linecap:butt;stroke-linejoin:miter;stroke:rgb(0%,0%,0%);stroke-opacity:1;stroke-miterlimit:10;" d="M 2.432061 0.461933 L 1.723877 0.870845 " transform="matrix(17.375,0,0,17.261905,17.114041,17.209747)"/>
<path style="fill:none;stroke-width:0.0333333;stroke-linecap:butt;stroke-linejoin:miter;stroke:rgb(0%,0%,0%);stroke-opacity:1;stroke-miterlimit:10;" d="M 1.731971 0.856362 L 1.731971 1.875586 " transform="matrix(17.375,0,0,17.261905,17.114041,17.209747)"/>
<path style="fill:none;stroke-width:0.0333333;stroke-linecap:butt;stroke-linejoin:miter;stroke:rgb(0%,0%,0%);stroke-opacity:1;stroke-miterlimit:10;" d="M 1.723877 1.86133 L 2.606521 2.370942 " transform="matrix(17.375,0,0,17.261905,17.114041,17.209747)"/>
<path style="fill:none;stroke-width:0.0333333;stroke-linecap:butt;stroke-linejoin:miter;stroke:rgb(0%,0%,0%);stroke-opacity:1;stroke-miterlimit:10;" d="M 2.763895 0.461933 L 3.463985 0.866093 " transform="matrix(17.375,0,0,17.261905,17.114041,17.209747)"/>
<path style="fill:none;stroke-width:0.0333333;stroke-linecap:butt;stroke-linejoin:miter;stroke:rgb(0%,0%,0%);stroke-opacity:1;stroke-miterlimit:10;" d="M 2.58966 2.370942 L 3.298068 1.961804 " transform="matrix(17.375,0,0,17.261905,17.114041,17.209747)"/>
<path style="fill:none;stroke-width:0.0333333;stroke-linecap:butt;stroke-linejoin:miter;stroke:rgb(0%,0%,0%);stroke-opacity:1;stroke-miterlimit:10;" d="M 3.463985 1.712655 L 3.463985 0.866093 " transform="matrix(17.375,0,0,17.261905,17.114041,17.209747)"/>
<path style="fill:none;stroke-width:0.0333333;stroke-linecap:butt;stroke-linejoin:miter;stroke:rgb(0%,0%,0%);stroke-opacity:1;stroke-miterlimit:10;" d="M 3.463985 0.866093 L 3.860118 0.180198 " transform="matrix(17.375,0,0,17.261905,17.114041,17.209747)"/>
<path style="fill:none;stroke-width:0.0333333;stroke-linecap:butt;stroke-linejoin:miter;stroke:rgb(0%,0%,0%);stroke-opacity:1;stroke-miterlimit:10;" d="M 3.463985 0.866093 L 4.259624 1.079034 " transform="matrix(17.375,0,0,17.261905,17.114041,17.209747)"/>
<path style="fill:none;stroke-width:0.0333333;stroke-linecap:butt;stroke-linejoin:miter;stroke:rgb(0%,0%,0%);stroke-opacity:1;stroke-miterlimit:10;" d="M 2.514794 2.317763 L 2.514794 3.209358 " transform="matrix(17.375,0,0,17.261905,17.114041,17.209747)"/>
<path style="fill:none;stroke-width:0.0333333;stroke-linecap:butt;stroke-linejoin:miter;stroke:rgb(0%,0%,0%);stroke-opacity:1;stroke-miterlimit:10;" d="M 2.681386 2.317763 L 2.681386 3.209358 " transform="matrix(17.375,0,0,17.261905,17.114041,17.209747)"/>
</g>
</svg>
