<?xml version="1.0" encoding="UTF-8"?>
<svg xmlns="http://www.w3.org/2000/svg" xmlns:xlink="http://www.w3.org/1999/xlink" width="94.4pt" height="85.6pt" viewBox="0 0 94.4 85.6" version="1.1">
<g id="surface312">
<path style=" stroke:none;fill-rule:nonzero;fill:rgb(0%,0%,47.058824%);fill-opacity:1;" d="M 17.839844 61.957031 L 16.171875 59.035156 C 16.183594 59.113281 16.195312 59.191406 16.203125 59.269531 C 16.207031 59.335938 16.214844 59.40625 16.214844 59.488281 C 16.21875 59.566406 16.226562 59.644531 16.226562 59.714844 L 16.226562 61.957031 L 15.507812 61.957031 L 15.507812 58.160156 L 16.429688 58.160156 L 18.113281 61.105469 C 18.105469 61.035156 18.097656 60.953125 18.089844 60.867188 C 18.082031 60.796875 18.074219 60.714844 18.070312 60.628906 C 18.070312 60.542969 18.070312 60.453125 18.070312 60.359375 L 18.070312 58.160156 L 18.773438 58.160156 L 18.773438 61.957031 Z M 17.839844 61.957031 "/>
<path style=" stroke:none;fill-rule:nonzero;fill:rgb(0%,0%,47.058824%);fill-opacity:1;" d="M 34.105469 16.898438 C 34.105469 17.191406 34.054688 17.464844 33.964844 17.707031 C 33.875 17.949219 33.75 18.160156 33.582031 18.332031 C 33.414062 18.503906 33.214844 18.640625 32.976562 18.730469 C 32.738281 18.820312 32.464844 18.871094 32.164062 18.871094 C 31.84375 18.871094 31.566406 18.820312 31.328125 18.730469 C 31.089844 18.628906 30.886719 18.492188 30.71875 18.320312 C 30.558594 18.140625 30.441406 17.933594 30.363281 17.695312 C 30.28125 17.453125 30.242188 17.183594 30.242188 16.898438 C 30.242188 16.601562 30.28125 16.335938 30.363281 16.097656 C 30.449219 15.855469 30.574219 15.652344 30.742188 15.484375 C 30.90625 15.320312 31.109375 15.191406 31.347656 15.09375 C 31.585938 15.003906 31.863281 14.957031 32.171875 14.957031 C 32.484375 14.957031 32.757812 15.003906 32.996094 15.09375 C 33.234375 15.191406 33.433594 15.320312 33.59375 15.496094 C 33.757812 15.660156 33.886719 15.859375 33.972656 16.097656 C 34.0625 16.335938 34.105469 16.601562 34.105469 16.898438 Z M 33.289062 16.898438 C 33.289062 16.695312 33.261719 16.515625 33.214844 16.355469 C 33.164062 16.199219 33.089844 16.0625 32.996094 15.949219 C 32.902344 15.835938 32.785156 15.742188 32.652344 15.679688 C 32.511719 15.613281 32.351562 15.582031 32.171875 15.582031 C 31.984375 15.582031 31.816406 15.613281 31.675781 15.679688 C 31.535156 15.742188 31.417969 15.835938 31.328125 15.949219 C 31.234375 16.0625 31.160156 16.199219 31.109375 16.355469 C 31.066406 16.515625 31.046875 16.695312 31.046875 16.898438 C 31.046875 17.097656 31.070312 17.28125 31.121094 17.445312 C 31.171875 17.605469 31.242188 17.746094 31.339844 17.867188 C 31.429688 17.984375 31.546875 18.078125 31.683594 18.148438 C 31.820312 18.210938 31.980469 18.246094 32.164062 18.246094 C 32.359375 18.246094 32.523438 18.210938 32.660156 18.148438 C 32.804688 18.078125 32.925781 17.984375 33.019531 17.867188 C 33.113281 17.746094 33.183594 17.601562 33.226562 17.4375 C 33.269531 17.273438 33.289062 17.089844 33.289062 16.898438 Z M 33.289062 16.898438 "/>
<path style="fill:none;stroke-width:0.06;stroke-linecap:butt;stroke-linejoin:miter;stroke:rgb(0%,0%,47.058824%);stroke-opacity:1;stroke-miterlimit:10;" d="M 1.747123 1.508616 L 0.851202 0.991421 " transform="matrix(17.352941,0,0,17.258065,17.14321,16.91343)"/>
<path style="fill:none;stroke-width:0.06;stroke-linecap:butt;stroke-linejoin:miter;stroke:rgb(0%,0%,47.058824%);stroke-opacity:1;stroke-miterlimit:10;" d="M 1.732041 1.482586 L 1.732041 2.517202 " transform="matrix(17.352941,0,0,17.258065,17.14321,16.91343)"/>
<path style="fill:none;stroke-width:0.06;stroke-linecap:butt;stroke-linejoin:miter;stroke:rgb(0%,0%,47.058824%);stroke-opacity:1;stroke-miterlimit:10;" d="M 1.732041 1.500015 L 2.613106 0.991421 " transform="matrix(17.352941,0,0,17.258065,17.14321,16.91343)"/>
<path style="fill:none;stroke-width:0.06;stroke-linecap:butt;stroke-linejoin:miter;stroke:rgb(0%,0%,47.058824%);stroke-opacity:1;stroke-miterlimit:10;" d="M 1.898845 1.596211 L 2.613106 1.183813 " transform="matrix(17.352941,0,0,17.258065,17.14321,16.91343)"/>
<path style="fill:none;stroke-width:0.06;stroke-linecap:butt;stroke-linejoin:miter;stroke:rgb(0%,0%,47.058824%);stroke-opacity:1;stroke-miterlimit:10;" d="M 0.881141 0.991421 L -0.015006 1.508616 " transform="matrix(17.352941,0,0,17.258065,17.14321,16.91343)"/>
<path style="fill:none;stroke-width:0.06;stroke-linecap:butt;stroke-linejoin:miter;stroke:rgb(0%,0%,47.058824%);stroke-opacity:1;stroke-miterlimit:10;" d="M 0.0000761364 1.482586 L 0.0000761364 2.346766 " transform="matrix(17.352941,0,0,17.258065,17.14321,16.91343)"/>
<path style="fill:none;stroke-width:0.06;stroke-linecap:butt;stroke-linejoin:miter;stroke:rgb(0%,0%,47.058824%);stroke-opacity:1;stroke-miterlimit:10;" d="M 0.169356 2.597781 L 0.881141 3.008594 " transform="matrix(17.352941,0,0,17.258065,17.14321,16.91343)"/>
<path style="fill:none;stroke-width:0.06;stroke-linecap:butt;stroke-linejoin:miter;stroke:rgb(0%,0%,47.058824%);stroke-opacity:1;stroke-miterlimit:10;" d="M 0.851202 3.008594 L 1.747123 2.491173 " transform="matrix(17.352941,0,0,17.258065,17.14321,16.91343)"/>
<path style="fill:none;stroke-width:0.06;stroke-linecap:butt;stroke-linejoin:miter;stroke:rgb(0%,0%,47.058824%);stroke-opacity:1;stroke-miterlimit:10;" d="M 1.732041 2.5 L 2.613106 3.008594 " transform="matrix(17.352941,0,0,17.258065,17.14321,16.91343)"/>
<path style="fill:none;stroke-width:0.06;stroke-linecap:butt;stroke-linejoin:miter;stroke:rgb(0%,0%,47.058824%);stroke-opacity:1;stroke-miterlimit:10;" d="M 1.898845 2.403804 L 2.613106 2.816202 " transform="matrix(17.352941,0,0,17.258065,17.14321,16.91343)"/>
<path style="fill:none;stroke-width:0.06;stroke-linecap:butt;stroke-linejoin:miter;stroke:rgb(0%,0%,47.058824%);stroke-opacity:1;stroke-miterlimit:10;" d="M 2.583167 3.008594 L 3.479088 2.491173 " transform="matrix(17.352941,0,0,17.258065,17.14321,16.91343)"/>
<path style="fill:none;stroke-width:0.06;stroke-linecap:butt;stroke-linejoin:miter;stroke:rgb(0%,0%,47.058824%);stroke-opacity:1;stroke-miterlimit:10;" d="M 3.464006 2.517202 L 3.464006 1.482586 " transform="matrix(17.352941,0,0,17.258065,17.14321,16.91343)"/>
<path style="fill:none;stroke-width:0.06;stroke-linecap:butt;stroke-linejoin:miter;stroke:rgb(0%,0%,47.058824%);stroke-opacity:1;stroke-miterlimit:10;" d="M 3.297653 2.421006 L 3.297653 1.578782 " transform="matrix(17.352941,0,0,17.258065,17.14321,16.91343)"/>
<path style="fill:none;stroke-width:0.06;stroke-linecap:butt;stroke-linejoin:miter;stroke:rgb(0%,0%,47.058824%);stroke-opacity:1;stroke-miterlimit:10;" d="M 3.479088 1.508616 L 2.583167 0.991421 " transform="matrix(17.352941,0,0,17.258065,17.14321,16.91343)"/>
<path style="fill:none;stroke-width:0.06;stroke-linecap:butt;stroke-linejoin:miter;stroke:rgb(0%,0%,47.058824%);stroke-opacity:1;stroke-miterlimit:10;" d="M 0.949348 1.048007 L 0.949348 0.156893 " transform="matrix(17.352941,0,0,17.258065,17.14321,16.91343)"/>
<path style="fill:none;stroke-width:0.06;stroke-linecap:butt;stroke-linejoin:miter;stroke:rgb(0%,0%,47.058824%);stroke-opacity:1;stroke-miterlimit:10;" d="M 0.782769 1.048007 L 0.782769 0.156893 " transform="matrix(17.352941,0,0,17.258065,17.14321,16.91343)"/>
</g>
</svg>
