<?xml version="1.0" encoding="UTF-8"?>
<svg xmlns="http://www.w3.org/2000/svg" xmlns:xlink="http://www.w3.org/1999/xlink" width="139.2pt" height="120pt" viewBox="0 0 139.2 120" version="1.1">
<g id="surface1172">
<path style=" stroke:none;fill-rule:nonzero;fill:rgb(0%,0%,0%);fill-opacity:1;" d="M 63.003906 53.398438 L 60.957031 50.160156 C 60.960938 50.246094 60.964844 50.332031 60.964844 50.417969 C 60.972656 50.492188 60.976562 50.570312 60.976562 50.65625 C 60.980469 50.734375 60.988281 50.804688 60.988281 50.871094 L 60.988281 53.398438 L 60.523438 53.398438 L 60.523438 49.597656 L 61.128906 49.597656 L 63.1875 52.859375 C 63.1875 52.859375 63.179688 52.769531 63.175781 52.589844 C 63.167969 52.519531 63.160156 52.4375 63.152344 52.351562 C 63.152344 52.257812 63.152344 52.171875 63.152344 52.089844 L 63.152344 49.597656 L 63.621094 49.597656 L 63.621094 53.398438 Z M 63.003906 53.398438 "/>
<path style=" stroke:none;fill-rule:nonzero;fill:rgb(0%,0%,0%);fill-opacity:1;" d="M 78.011719 44.757812 L 75.964844 41.519531 C 75.96875 41.605469 75.976562 41.691406 75.976562 41.777344 C 75.980469 41.851562 75.988281 41.929688 75.988281 42.015625 C 75.992188 42.09375 75.996094 42.164062 75.996094 42.230469 L 75.996094 44.757812 L 75.53125 44.757812 L 75.53125 40.957031 L 76.136719 40.957031 L 78.195312 44.21875 C 78.195312 44.21875 78.191406 44.128906 78.1875 43.949219 C 78.175781 43.878906 78.167969 43.796875 78.164062 43.710938 C 78.164062 43.617188 78.164062 43.53125 78.164062 43.453125 L 78.164062 40.957031 L 78.628906 40.957031 L 78.628906 44.757812 Z M 78.011719 44.757812 "/>
<path style=" stroke:none;fill-rule:nonzero;fill:rgb(0%,0%,0%);fill-opacity:1;" d="M 108.898438 25.402344 C 108.898438 25.699219 108.855469 25.96875 108.769531 26.210938 C 108.683594 26.457031 108.554688 26.664062 108.390625 26.835938 C 108.230469 27.011719 108.03125 27.144531 107.792969 27.238281 C 107.5625 27.328125 107.296875 27.378906 107.003906 27.378906 C 106.683594 27.378906 106.40625 27.328125 106.167969 27.238281 C 105.9375 27.136719 105.742188 27 105.585938 26.828125 C 105.425781 26.648438 105.304688 26.4375 105.226562 26.199219 C 105.144531 25.957031 105.109375 25.6875 105.109375 25.402344 C 105.109375 25.105469 105.144531 24.839844 105.226562 24.601562 C 105.3125 24.359375 105.433594 24.152344 105.59375 23.984375 C 105.761719 23.820312 105.957031 23.691406 106.191406 23.597656 C 106.429688 23.503906 106.699219 23.457031 107.003906 23.457031 C 107.308594 23.457031 107.578125 23.503906 107.816406 23.597656 C 108.054688 23.691406 108.25 23.824219 108.410156 23.996094 C 108.570312 24.164062 108.6875 24.363281 108.769531 24.601562 C 108.855469 24.839844 108.898438 25.105469 108.898438 25.402344 Z M 108.367188 25.402344 C 108.367188 25.171875 108.339844 24.964844 108.28125 24.773438 C 108.222656 24.585938 108.136719 24.429688 108.023438 24.300781 C 107.90625 24.164062 107.761719 24.058594 107.589844 23.984375 C 107.421875 23.914062 107.226562 23.878906 107.003906 23.878906 C 106.777344 23.878906 106.582031 23.914062 106.40625 23.984375 C 106.234375 24.058594 106.089844 24.164062 105.972656 24.300781 C 105.867188 24.429688 105.78125 24.585938 105.726562 24.773438 C 105.664062 24.964844 105.636719 25.171875 105.636719 25.402344 C 105.636719 25.632812 105.664062 25.84375 105.726562 26.039062 C 105.78125 26.226562 105.867188 26.390625 105.984375 26.523438 C 106.097656 26.660156 106.238281 26.769531 106.40625 26.847656 C 106.582031 26.921875 106.777344 26.957031 107.003906 26.957031 C 107.242188 26.957031 107.449219 26.921875 107.621094 26.847656 C 107.792969 26.769531 107.933594 26.660156 108.042969 26.523438 C 108.152344 26.378906 108.230469 26.214844 108.28125 26.027344 C 108.339844 25.832031 108.367188 25.625 108.367188 25.402344 Z M 108.367188 25.402344 "/>
<path style="fill:none;stroke-width:0.0333333;stroke-linecap:butt;stroke-linejoin:miter;stroke:rgb(0%,0%,0%);stroke-opacity:1;stroke-miterlimit:10;" d="M 0.874305 -0.00473305 L -0.00834206 0.504765 " transform="matrix(17.330677,0,0,17.281106,17.046917,16.937261)"/>
<path style="fill:none;stroke-width:0.0333333;stroke-linecap:butt;stroke-linejoin:miter;stroke:rgb(0%,0%,0%);stroke-opacity:1;stroke-miterlimit:10;" d="M 0.874305 0.187628 L 0.15845 0.601059 " transform="matrix(17.330677,0,0,17.281106,17.046917,16.937261)"/>
<path style="fill:none;stroke-width:0.0333333;stroke-linecap:butt;stroke-linejoin:miter;stroke:rgb(0%,0%,0%);stroke-opacity:1;stroke-miterlimit:10;" d="M 0.857851 -0.00473305 L 1.740499 0.504765 " transform="matrix(17.330677,0,0,17.281106,17.046917,16.937261)"/>
<path style="fill:none;stroke-width:0.0333333;stroke-linecap:butt;stroke-linejoin:miter;stroke:rgb(0%,0%,0%);stroke-opacity:1;stroke-miterlimit:10;" d="M -0.00000243839 0.490298 L -0.00000243839 1.50952 " transform="matrix(17.330677,0,0,17.281106,17.046917,16.937261)"/>
<path style="fill:none;stroke-width:0.0333333;stroke-linecap:butt;stroke-linejoin:miter;stroke:rgb(0%,0%,0%);stroke-opacity:1;stroke-miterlimit:10;" d="M -0.00834206 1.495279 L 0.874305 2.004777 " transform="matrix(17.330677,0,0,17.281106,17.046917,16.937261)"/>
<path style="fill:none;stroke-width:0.0333333;stroke-linecap:butt;stroke-linejoin:miter;stroke:rgb(0%,0%,0%);stroke-opacity:1;stroke-miterlimit:10;" d="M 0.15845 1.398986 L 0.874305 1.812416 " transform="matrix(17.330677,0,0,17.281106,17.046917,16.937261)"/>
<path style="fill:none;stroke-width:0.0333333;stroke-linecap:butt;stroke-linejoin:miter;stroke:rgb(0%,0%,0%);stroke-opacity:1;stroke-miterlimit:10;" d="M 0.857851 2.004777 L 1.740499 1.495279 " transform="matrix(17.330677,0,0,17.281106,17.046917,16.937261)"/>
<path style="fill:none;stroke-width:0.0333333;stroke-linecap:butt;stroke-linejoin:miter;stroke:rgb(0%,0%,0%);stroke-opacity:1;stroke-miterlimit:10;" d="M 1.732159 1.4998 L 1.732159 0.490298 " transform="matrix(17.330677,0,0,17.281106,17.046917,16.937261)"/>
<path style="fill:none;stroke-width:0.0333333;stroke-linecap:butt;stroke-linejoin:miter;stroke:rgb(0%,0%,0%);stroke-opacity:1;stroke-miterlimit:10;" d="M 1.565367 1.403733 L 1.565367 0.586592 " transform="matrix(17.330677,0,0,17.281106,17.046917,16.937261)"/>
<path style="fill:none;stroke-width:0.0333333;stroke-linecap:butt;stroke-linejoin:miter;stroke:rgb(0%,0%,0%);stroke-opacity:1;stroke-miterlimit:10;" d="M 1.723819 1.495279 L 2.432236 1.904189 " transform="matrix(17.330677,0,0,17.281106,17.046917,16.937261)"/>
<path style="fill:none;stroke-width:0.0333333;stroke-linecap:butt;stroke-linejoin:miter;stroke:rgb(0%,0%,0%);stroke-opacity:1;stroke-miterlimit:10;" d="M 2.805491 1.976296 L 3.339902 1.667975 " transform="matrix(17.330677,0,0,17.281106,17.046917,16.937261)"/>
<path style="fill:none;stroke-width:0.0333333;stroke-linecap:butt;stroke-linejoin:miter;stroke:rgb(0%,0%,0%);stroke-opacity:1;stroke-miterlimit:10;" d="M 2.72232 1.831855 L 3.256506 1.523535 " transform="matrix(17.330677,0,0,17.281106,17.046917,16.937261)"/>
<path style="fill:none;stroke-width:0.0333333;stroke-linecap:butt;stroke-linejoin:miter;stroke:rgb(0%,0%,0%);stroke-opacity:1;stroke-miterlimit:10;" d="M 3.629986 1.595868 L 4.338403 2.004777 " transform="matrix(17.330677,0,0,17.281106,17.046917,16.937261)"/>
<path style="fill:none;stroke-width:0.0333333;stroke-linecap:butt;stroke-linejoin:miter;stroke:rgb(0%,0%,0%);stroke-opacity:1;stroke-miterlimit:10;" d="M 5.190847 1.490759 L 4.330063 1.999804 " transform="matrix(17.330677,0,0,17.281106,17.046917,16.937261)"/>
<path style="fill:none;stroke-width:0.0333333;stroke-linecap:butt;stroke-linejoin:miter;stroke:rgb(0%,0%,0%);stroke-opacity:1;stroke-miterlimit:10;" d="M 5.192876 1.68312 L 4.497757 2.094516 " transform="matrix(17.330677,0,0,17.281106,17.046917,16.937261)"/>
<path style="fill:none;stroke-width:0.0333333;stroke-linecap:butt;stroke-linejoin:miter;stroke:rgb(0%,0%,0%);stroke-opacity:1;stroke-miterlimit:10;" d="M 4.330063 1.990537 L 4.340882 3.009533 " transform="matrix(17.330677,0,0,17.281106,17.046917,16.937261)"/>
<path style="fill:none;stroke-width:0.0333333;stroke-linecap:butt;stroke-linejoin:miter;stroke:rgb(0%,0%,0%);stroke-opacity:1;stroke-miterlimit:10;" d="M 6.072818 2.990997 L 6.061999 1.971775 " transform="matrix(17.330677,0,0,17.281106,17.046917,16.937261)"/>
<path style="fill:none;stroke-width:0.0333333;stroke-linecap:butt;stroke-linejoin:miter;stroke:rgb(0%,0%,0%);stroke-opacity:1;stroke-miterlimit:10;" d="M 5.905124 2.896512 L 5.896334 2.069651 " transform="matrix(17.330677,0,0,17.281106,17.046917,16.937261)"/>
<path style="fill:none;stroke-width:0.0333333;stroke-linecap:butt;stroke-linejoin:miter;stroke:rgb(0%,0%,0%);stroke-opacity:1;stroke-miterlimit:10;" d="M 6.081158 2.97653 L 5.20392 3.495522 " transform="matrix(17.330677,0,0,17.281106,17.046917,16.937261)"/>
<path style="fill:none;stroke-width:0.0333333;stroke-linecap:butt;stroke-linejoin:miter;stroke:rgb(0%,0%,0%);stroke-opacity:1;stroke-miterlimit:10;" d="M 6.070339 1.986242 L 5.182057 1.485786 " transform="matrix(17.330677,0,0,17.281106,17.046917,16.937261)"/>
<path style="fill:none;stroke-width:0.0333333;stroke-linecap:butt;stroke-linejoin:miter;stroke:rgb(0%,0%,0%);stroke-opacity:1;stroke-miterlimit:10;" d="M 5.222853 4.500277 L 5.21226 3.490775 " transform="matrix(17.330677,0,0,17.281106,17.046917,16.937261)"/>
<path style="fill:none;stroke-width:0.0333333;stroke-linecap:butt;stroke-linejoin:miter;stroke:rgb(0%,0%,0%);stroke-opacity:1;stroke-miterlimit:10;" d="M 5.055385 4.405792 L 5.046594 3.588651 " transform="matrix(17.330677,0,0,17.281106,17.046917,16.937261)"/>
<path style="fill:none;stroke-width:0.0333333;stroke-linecap:butt;stroke-linejoin:miter;stroke:rgb(0%,0%,0%);stroke-opacity:1;stroke-miterlimit:10;" d="M 4.332542 2.995292 L 5.220599 3.495296 " transform="matrix(17.330677,0,0,17.281106,17.046917,16.937261)"/>
<path style="fill:none;stroke-width:0.0333333;stroke-linecap:butt;stroke-linejoin:miter;stroke:rgb(0%,0%,0%);stroke-opacity:1;stroke-miterlimit:10;" d="M 4.340657 2.999813 L 3.471759 3.514058 " transform="matrix(17.330677,0,0,17.281106,17.046917,16.937261)"/>
<path style="fill:none;stroke-width:0.0333333;stroke-linecap:butt;stroke-linejoin:miter;stroke:rgb(0%,0%,0%);stroke-opacity:1;stroke-miterlimit:10;" d="M 4.342685 3.1924 L 3.639678 3.608543 " transform="matrix(17.330677,0,0,17.281106,17.046917,16.937261)"/>
<path style="fill:none;stroke-width:0.0333333;stroke-linecap:butt;stroke-linejoin:miter;stroke:rgb(0%,0%,0%);stroke-opacity:1;stroke-miterlimit:10;" d="M 3.480098 3.499591 L 3.491142 4.518813 " transform="matrix(17.330677,0,0,17.281106,17.046917,16.937261)"/>
<path style="fill:none;stroke-width:0.0333333;stroke-linecap:butt;stroke-linejoin:miter;stroke:rgb(0%,0%,0%);stroke-opacity:1;stroke-miterlimit:10;" d="M 3.482577 4.504346 L 4.370634 5.004576 " transform="matrix(17.330677,0,0,17.281106,17.046917,16.937261)"/>
<path style="fill:none;stroke-width:0.0333333;stroke-linecap:butt;stroke-linejoin:miter;stroke:rgb(0%,0%,0%);stroke-opacity:1;stroke-miterlimit:10;" d="M 3.648243 4.40647 L 4.368606 4.811989 " transform="matrix(17.330677,0,0,17.281106,17.046917,16.937261)"/>
<path style="fill:none;stroke-width:0.0333333;stroke-linecap:butt;stroke-linejoin:miter;stroke:rgb(0%,0%,0%);stroke-opacity:1;stroke-miterlimit:10;" d="M 4.353955 5.004802 L 5.230967 4.485585 " transform="matrix(17.330677,0,0,17.281106,17.046917,16.937261)"/>
<path style="fill:none;stroke-width:0.0333333;stroke-linecap:butt;stroke-linejoin:miter;stroke:rgb(0%,0%,0%);stroke-opacity:1;stroke-miterlimit:10;" d="M 5.190847 1.500478 L 5.190847 0.647397 " transform="matrix(17.330677,0,0,17.281106,17.046917,16.937261)"/>
</g>
</svg>
