<?xml version="1.0" encoding="UTF-8"?>
<svg xmlns="http://www.w3.org/2000/svg" xmlns:xlink="http://www.w3.org/1999/xlink" width="124pt" height="86.4pt" viewBox="0 0 124 86.4" version="1.1">
<g id="surface902">
<path style=" stroke:none;fill-rule:nonzero;fill:rgb(0%,0%,0%);fill-opacity:1;" d="M 47.960938 54.046875 L 45.917969 50.804688 C 45.921875 50.890625 45.929688 50.976562 45.929688 51.0625 C 45.933594 51.136719 45.941406 51.214844 45.941406 51.300781 C 45.945312 51.382812 45.949219 51.453125 45.949219 51.515625 L 45.949219 54.046875 L 45.484375 54.046875 L 45.484375 50.242188 L 46.089844 50.242188 L 48.144531 53.507812 C 48.144531 53.507812 48.140625 53.417969 48.132812 53.238281 C 48.125 53.167969 48.117188 53.085938 48.113281 53 C 48.113281 52.90625 48.113281 52.820312 48.113281 52.738281 L 48.113281 50.242188 L 48.578125 50.242188 L 48.578125 54.046875 Z M 47.960938 54.046875 "/>
<path style=" stroke:none;fill-rule:nonzero;fill:rgb(0%,0%,0%);fill-opacity:1;" d="M 47.925781 19.402344 L 45.882812 16.15625 C 45.886719 16.242188 45.894531 16.328125 45.894531 16.414062 C 45.898438 16.488281 45.90625 16.566406 45.90625 16.652344 C 45.910156 16.734375 45.914062 16.804688 45.914062 16.871094 L 45.914062 19.402344 L 45.449219 19.402344 L 45.449219 15.59375 L 46.054688 15.59375 L 48.109375 18.859375 C 48.109375 18.859375 48.105469 18.769531 48.101562 18.589844 C 48.089844 18.519531 48.082031 18.4375 48.078125 18.351562 C 48.078125 18.257812 48.078125 18.171875 48.078125 18.09375 L 48.078125 15.59375 L 48.542969 15.59375 L 48.542969 19.402344 Z M 47.925781 19.402344 "/>
<path style=" stroke:none;fill-rule:nonzero;fill:rgb(0%,0%,0%);fill-opacity:1;" d="M 92.898438 45.230469 L 90.855469 41.984375 C 90.859375 42.070312 90.867188 42.15625 90.867188 42.246094 C 90.871094 42.316406 90.878906 42.394531 90.878906 42.480469 C 90.882812 42.5625 90.886719 42.632812 90.886719 42.699219 L 90.886719 45.230469 L 90.421875 45.230469 L 90.421875 41.421875 L 91.027344 41.421875 L 93.082031 44.6875 C 93.082031 44.6875 93.078125 44.601562 93.070312 44.417969 C 93.0625 44.347656 93.054688 44.265625 93.050781 44.179688 C 93.050781 44.089844 93.050781 44.003906 93.050781 43.921875 L 93.050781 41.421875 L 93.515625 41.421875 L 93.515625 45.230469 Z M 92.898438 45.230469 "/>
<path style=" stroke:none;fill-rule:nonzero;fill:rgb(0%,0%,0%);fill-opacity:1;" d="M 77.796875 19.296875 L 75.753906 16.054688 C 75.757812 16.140625 75.765625 16.226562 75.765625 16.3125 C 75.769531 16.386719 75.777344 16.464844 75.777344 16.550781 C 75.78125 16.632812 75.785156 16.703125 75.785156 16.765625 L 75.785156 19.296875 L 75.320312 19.296875 L 75.320312 15.492188 L 75.925781 15.492188 L 77.980469 18.757812 C 77.980469 18.757812 77.976562 18.667969 77.96875 18.488281 C 77.960938 18.417969 77.953125 18.335938 77.949219 18.25 C 77.949219 18.15625 77.949219 18.070312 77.949219 17.988281 L 77.949219 15.492188 L 78.414062 15.492188 L 78.414062 19.296875 Z M 77.796875 19.296875 "/>
<path style=" stroke:none;fill-rule:nonzero;fill:rgb(0%,0%,0%);fill-opacity:1;" d="M 107.710938 19.09375 L 105.667969 15.851562 C 105.671875 15.9375 105.679688 16.023438 105.679688 16.109375 C 105.683594 16.183594 105.6875 16.261719 105.6875 16.347656 C 105.695312 16.429688 105.699219 16.5 105.699219 16.5625 L 105.699219 19.09375 L 105.234375 19.09375 L 105.234375 15.289062 L 105.839844 15.289062 L 107.894531 18.554688 C 107.894531 18.554688 107.890625 18.464844 107.882812 18.285156 C 107.875 18.214844 107.867188 18.132812 107.863281 18.046875 C 107.863281 17.953125 107.863281 17.867188 107.863281 17.785156 L 107.863281 15.289062 L 108.328125 15.289062 L 108.328125 19.09375 Z M 107.710938 19.09375 "/>
<path style=" stroke:none;fill-rule:nonzero;fill:rgb(0%,0%,0%);fill-opacity:1;" d="M 78.910156 69.328125 C 78.910156 69.625 78.867188 69.894531 78.78125 70.140625 C 78.695312 70.386719 78.566406 70.59375 78.402344 70.765625 C 78.242188 70.941406 78.046875 71.074219 77.808594 71.167969 C 77.574219 71.257812 77.3125 71.308594 77.019531 71.308594 C 76.699219 71.308594 76.425781 71.257812 76.1875 71.167969 C 75.953125 71.066406 75.757812 70.929688 75.601562 70.757812 C 75.441406 70.578125 75.324219 70.367188 75.246094 70.128906 C 75.164062 69.886719 75.125 69.617188 75.125 69.328125 C 75.125 69.035156 75.164062 68.765625 75.246094 68.527344 C 75.332031 68.285156 75.453125 68.078125 75.613281 67.910156 C 75.777344 67.746094 75.976562 67.617188 76.207031 67.523438 C 76.445312 67.429688 76.714844 67.382812 77.019531 67.382812 C 77.320312 67.382812 77.59375 67.429688 77.828125 67.523438 C 78.066406 67.617188 78.265625 67.75 78.425781 67.921875 C 78.582031 68.089844 78.699219 68.289062 78.78125 68.527344 C 78.867188 68.765625 78.910156 69.035156 78.910156 69.328125 Z M 78.382812 69.328125 C 78.382812 69.097656 78.351562 68.890625 78.292969 68.699219 C 78.234375 68.515625 78.148438 68.355469 78.035156 68.226562 C 77.917969 68.089844 77.777344 67.984375 77.601562 67.910156 C 77.433594 67.839844 77.242188 67.804688 77.019531 67.804688 C 76.792969 67.804688 76.597656 67.839844 76.425781 67.910156 C 76.25 67.984375 76.105469 68.089844 75.992188 68.226562 C 75.882812 68.355469 75.800781 68.515625 75.742188 68.699219 C 75.683594 68.890625 75.65625 69.097656 75.65625 69.328125 C 75.65625 69.5625 75.683594 69.773438 75.742188 69.964844 C 75.800781 70.15625 75.886719 70.316406 76.003906 70.453125 C 76.117188 70.589844 76.257812 70.699219 76.425781 70.777344 C 76.597656 70.851562 76.792969 70.886719 77.019531 70.886719 C 77.257812 70.886719 77.460938 70.851562 77.636719 70.777344 C 77.808594 70.699219 77.949219 70.589844 78.058594 70.453125 C 78.164062 70.308594 78.242188 70.144531 78.292969 69.957031 C 78.351562 69.761719 78.382812 69.550781 78.382812 69.328125 Z M 78.382812 69.328125 "/>
<path style=" stroke:none;fill-rule:nonzero;fill:rgb(0%,0%,0%);fill-opacity:1;" d="M 18.96875 17.472656 C 18.96875 17.769531 18.925781 18.039062 18.839844 18.285156 C 18.753906 18.53125 18.625 18.738281 18.460938 18.910156 C 18.300781 19.085938 18.105469 19.21875 17.867188 19.3125 C 17.632812 19.402344 17.371094 19.453125 17.078125 19.453125 C 16.757812 19.453125 16.484375 19.402344 16.246094 19.3125 C 16.011719 19.210938 15.816406 19.074219 15.660156 18.902344 C 15.5 18.722656 15.382812 18.511719 15.304688 18.273438 C 15.222656 18.03125 15.183594 17.761719 15.183594 17.472656 C 15.183594 17.179688 15.222656 16.910156 15.304688 16.671875 C 15.390625 16.429688 15.511719 16.222656 15.671875 16.054688 C 15.835938 15.890625 16.035156 15.761719 16.265625 15.667969 C 16.503906 15.574219 16.773438 15.527344 17.078125 15.527344 C 17.378906 15.527344 17.652344 15.574219 17.886719 15.667969 C 18.125 15.761719 18.324219 15.894531 18.484375 16.066406 C 18.640625 16.234375 18.757812 16.433594 18.839844 16.671875 C 18.925781 16.910156 18.96875 17.179688 18.96875 17.472656 Z M 18.441406 17.472656 C 18.441406 17.242188 18.410156 17.035156 18.351562 16.84375 C 18.292969 16.660156 18.207031 16.5 18.09375 16.371094 C 17.976562 16.234375 17.835938 16.128906 17.660156 16.054688 C 17.492188 15.984375 17.300781 15.949219 17.078125 15.949219 C 16.851562 15.949219 16.65625 15.984375 16.484375 16.054688 C 16.308594 16.128906 16.164062 16.234375 16.050781 16.371094 C 15.941406 16.5 15.859375 16.660156 15.800781 16.84375 C 15.742188 17.035156 15.714844 17.242188 15.714844 17.472656 C 15.714844 17.707031 15.742188 17.917969 15.800781 18.109375 C 15.859375 18.300781 15.945312 18.460938 16.0625 18.597656 C 16.175781 18.734375 16.316406 18.84375 16.484375 18.921875 C 16.65625 18.996094 16.851562 19.03125 17.078125 19.03125 C 17.316406 19.03125 17.519531 18.996094 17.695312 18.921875 C 17.867188 18.84375 18.007812 18.734375 18.117188 18.597656 C 18.222656 18.453125 18.300781 18.289062 18.351562 18.101562 C 18.410156 17.90625 18.441406 17.695312 18.441406 17.472656 Z M 18.441406 17.472656 "/>
<path style="fill:none;stroke-width:0.0333333;stroke-linecap:butt;stroke-linejoin:miter;stroke:rgb(0%,0%,0%);stroke-opacity:1;stroke-miterlimit:10;" d="M 2.58865 1.509842 L 3.471328 2.016978 " transform="matrix(17.299107,0,0,17.307692,17.078038,17.192336)"/>
<path style="fill:none;stroke-width:0.0333333;stroke-linecap:butt;stroke-linejoin:miter;stroke:rgb(0%,0%,0%);stroke-opacity:1;stroke-miterlimit:10;" d="M 0.867102 0.517689 L 0.865973 1.529252 " transform="matrix(17.299107,0,0,17.307692,17.078038,17.192336)"/>
<path style="fill:none;stroke-width:0.0333333;stroke-linecap:butt;stroke-linejoin:miter;stroke:rgb(0%,0%,0%);stroke-opacity:1;stroke-miterlimit:10;" d="M 1.033747 0.613609 L 1.032618 1.433106 " transform="matrix(17.299107,0,0,17.307692,17.078038,17.192336)"/>
<path style="fill:none;stroke-width:0.0333333;stroke-linecap:butt;stroke-linejoin:miter;stroke:rgb(0%,0%,0%);stroke-opacity:1;stroke-miterlimit:10;" d="M 3.463199 2.012238 L 4.163199 1.606214 " transform="matrix(17.299107,0,0,17.307692,17.078038,17.192336)"/>
<path style="fill:none;stroke-width:0.0333333;stroke-linecap:butt;stroke-linejoin:miter;stroke:rgb(0%,0%,0%);stroke-opacity:1;stroke-miterlimit:10;" d="M 3.462521 1.819721 L 4.07965 1.461995 " transform="matrix(17.299107,0,0,17.307692,17.078038,17.192336)"/>
<path style="fill:none;stroke-width:0.0333333;stroke-linecap:butt;stroke-linejoin:miter;stroke:rgb(0%,0%,0%);stroke-opacity:1;stroke-miterlimit:10;" d="M 2.596102 0.513175 L 1.89565 0.112568 " transform="matrix(17.299107,0,0,17.307692,17.078038,17.192336)"/>
<path style="fill:none;stroke-width:0.0333333;stroke-linecap:butt;stroke-linejoin:miter;stroke:rgb(0%,0%,0%);stroke-opacity:1;stroke-miterlimit:10;" d="M 2.429231 0.609773 L 1.813005 0.257238 " transform="matrix(17.299107,0,0,17.307692,17.078038,17.192336)"/>
<path style="fill:none;stroke-width:0.0333333;stroke-linecap:butt;stroke-linejoin:miter;stroke:rgb(0%,0%,0%);stroke-opacity:1;stroke-miterlimit:10;" d="M 4.328263 1.356144 L 4.323295 0.49512 " transform="matrix(17.299107,0,0,17.307692,17.078038,17.192336)"/>
<path style="fill:none;stroke-width:0.0333333;stroke-linecap:butt;stroke-linejoin:miter;stroke:rgb(0%,0%,0%);stroke-opacity:1;stroke-miterlimit:10;" d="M 1.563715 0.113922 L 0.858973 0.522429 " transform="matrix(17.299107,0,0,17.307692,17.078038,17.192336)"/>
<path style="fill:none;stroke-width:0.0333333;stroke-linecap:butt;stroke-linejoin:miter;stroke:rgb(0%,0%,0%);stroke-opacity:1;stroke-miterlimit:10;" d="M 4.323295 0.504599 L 3.622392 0.106248 " transform="matrix(17.299107,0,0,17.307692,17.078038,17.192336)"/>
<path style="fill:none;stroke-width:0.0333333;stroke-linecap:butt;stroke-linejoin:miter;stroke:rgb(0%,0%,0%);stroke-opacity:1;stroke-miterlimit:10;" d="M 4.157328 0.601873 L 3.540199 0.251144 " transform="matrix(17.299107,0,0,17.307692,17.078038,17.192336)"/>
<path style="fill:none;stroke-width:0.0333333;stroke-linecap:butt;stroke-linejoin:miter;stroke:rgb(0%,0%,0%);stroke-opacity:1;stroke-miterlimit:10;" d="M 3.290457 0.10828 L 2.587747 0.517915 " transform="matrix(17.299107,0,0,17.307692,17.078038,17.192336)"/>
<path style="fill:none;stroke-width:0.0333333;stroke-linecap:butt;stroke-linejoin:miter;stroke:rgb(0%,0%,0%);stroke-opacity:1;stroke-miterlimit:10;" d="M 4.314941 0.509564 L 5.019908 0.0969949 " transform="matrix(17.299107,0,0,17.307692,17.078038,17.192336)"/>
<path style="fill:none;stroke-width:0.0333333;stroke-linecap:butt;stroke-linejoin:miter;stroke:rgb(0%,0%,0%);stroke-opacity:1;stroke-miterlimit:10;" d="M 0.857392 1.514807 L 1.565747 1.923766 " transform="matrix(17.299107,0,0,17.307692,17.078038,17.192336)"/>
<path style="fill:none;stroke-width:0.0333333;stroke-linecap:butt;stroke-linejoin:miter;stroke:rgb(0%,0%,0%);stroke-opacity:1;stroke-miterlimit:10;" d="M 2.596102 0.503471 L 2.596779 1.524287 " transform="matrix(17.299107,0,0,17.307692,17.078038,17.192336)"/>
<path style="fill:none;stroke-width:0.0333333;stroke-linecap:butt;stroke-linejoin:miter;stroke:rgb(0%,0%,0%);stroke-opacity:1;stroke-miterlimit:10;" d="M 1.897231 1.922863 L 2.596779 1.514582 " transform="matrix(17.299107,0,0,17.307692,17.078038,17.192336)"/>
<path style="fill:none;stroke-width:0.0333333;stroke-linecap:butt;stroke-linejoin:miter;stroke:rgb(0%,0%,0%);stroke-opacity:1;stroke-miterlimit:10;" d="M 1.813457 1.77887 L 2.430134 1.419113 " transform="matrix(17.299107,0,0,17.307692,17.078038,17.192336)"/>
<path style="fill:none;stroke-width:0.0333333;stroke-linecap:butt;stroke-linejoin:miter;stroke:rgb(0%,0%,0%);stroke-opacity:1;stroke-miterlimit:10;" d="M 3.463199 2.002533 L 3.464553 2.856335 " transform="matrix(17.299107,0,0,17.307692,17.078038,17.192336)"/>
<path style="fill:none;stroke-width:0.0333333;stroke-linecap:butt;stroke-linejoin:miter;stroke:rgb(0%,0%,0%);stroke-opacity:1;stroke-miterlimit:10;" d="M 0.875682 0.522429 L 0.182457 0.122498 " transform="matrix(17.299107,0,0,17.307692,17.078038,17.192336)"/>
</g>
</svg>
