<?xml version="1.0" encoding="UTF-8"?>
<svg xmlns="http://www.w3.org/2000/svg" xmlns:xlink="http://www.w3.org/1999/xlink" width="124pt" height="88.8pt" viewBox="0 0 124 88.8" version="1.1">
<g id="surface1162">
<path style=" stroke:none;fill-rule:nonzero;fill:rgb(0%,0%,0%);fill-opacity:1;" d="M 77.664062 21.886719 L 75.617188 18.632812 C 75.625 18.71875 75.628906 18.808594 75.628906 18.894531 C 75.636719 18.96875 75.640625 19.046875 75.640625 19.132812 C 75.644531 19.214844 75.652344 19.285156 75.652344 19.347656 L 75.652344 21.886719 L 75.1875 21.886719 L 75.1875 18.070312 L 75.792969 18.070312 L 77.847656 21.34375 C 77.847656 21.34375 77.839844 21.253906 77.835938 21.074219 C 77.828125 21.003906 77.820312 20.921875 77.8125 20.835938 C 77.8125 20.742188 77.8125 20.65625 77.8125 20.574219 L 77.8125 18.070312 L 78.277344 18.070312 L 78.277344 21.886719 Z M 77.664062 21.886719 "/>
<path style=" stroke:none;fill-rule:nonzero;fill:rgb(0%,0%,47.058824%);fill-opacity:1;" d="M 47.863281 24.847656 L 46.199219 21.910156 C 46.214844 21.992188 46.222656 22.070312 46.230469 22.148438 C 46.238281 22.214844 46.242188 22.285156 46.242188 22.367188 C 46.25 22.445312 46.253906 22.523438 46.253906 22.59375 L 46.253906 24.847656 L 45.539062 24.847656 L 45.539062 21.03125 L 46.457031 21.03125 L 48.132812 23.992188 C 48.125 23.921875 48.117188 23.839844 48.113281 23.753906 C 48.105469 23.683594 48.097656 23.601562 48.089844 23.515625 C 48.089844 23.425781 48.089844 23.339844 48.089844 23.242188 L 48.089844 21.03125 L 48.792969 21.03125 L 48.792969 24.847656 Z M 47.863281 24.847656 "/>
<path style=" stroke:none;fill-rule:nonzero;fill:rgb(0%,0%,47.058824%);fill-opacity:1;" d="M 51.113281 59.25 L 49.449219 56.3125 C 49.460938 56.394531 49.472656 56.472656 49.480469 56.550781 C 49.484375 56.617188 49.492188 56.691406 49.492188 56.769531 C 49.496094 56.847656 49.503906 56.925781 49.503906 56.996094 L 49.503906 59.25 L 48.789062 59.25 L 48.789062 55.433594 L 49.707031 55.433594 L 51.382812 58.394531 C 51.375 58.324219 51.367188 58.242188 51.363281 58.15625 C 51.355469 58.085938 51.347656 58.003906 51.339844 57.917969 C 51.339844 57.832031 51.339844 57.742188 51.339844 57.644531 L 51.339844 55.433594 L 52.042969 55.433594 L 52.042969 59.25 Z M 51.113281 59.25 "/>
<path style=" stroke:none;fill-rule:nonzero;fill:rgb(0%,0%,47.058824%);fill-opacity:1;" d="M 95 46.433594 L 93.335938 43.496094 C 93.351562 43.578125 93.359375 43.65625 93.371094 43.734375 C 93.375 43.796875 93.378906 43.871094 93.378906 43.949219 C 93.386719 44.03125 93.390625 44.105469 93.390625 44.179688 L 93.390625 46.433594 L 92.675781 46.433594 L 92.675781 42.617188 L 93.597656 42.617188 L 95.273438 45.574219 C 95.265625 45.503906 95.257812 45.425781 95.25 45.335938 C 95.242188 45.265625 95.234375 45.1875 95.230469 45.097656 C 95.230469 45.011719 95.230469 44.921875 95.230469 44.828125 L 95.230469 42.617188 L 95.933594 42.617188 L 95.933594 46.433594 Z M 95 46.433594 "/>
<path style=" stroke:none;fill-rule:nonzero;fill:rgb(0%,0%,47.058824%);fill-opacity:1;" d="M 83.738281 71.726562 C 83.738281 72.023438 83.691406 72.296875 83.597656 72.539062 C 83.511719 72.785156 83.382812 72.996094 83.21875 73.167969 C 83.050781 73.34375 82.851562 73.476562 82.613281 73.570312 C 82.375 73.664062 82.105469 73.710938 81.804688 73.710938 C 81.484375 73.710938 81.207031 73.664062 80.96875 73.570312 C 80.734375 73.46875 80.53125 73.332031 80.363281 73.15625 C 80.207031 72.980469 80.085938 72.769531 80.007812 72.53125 C 79.925781 72.285156 79.890625 72.015625 79.890625 71.726562 C 79.890625 71.433594 79.925781 71.164062 80.007812 70.925781 C 80.09375 70.679688 80.21875 70.476562 80.386719 70.308594 C 80.550781 70.140625 80.753906 70.011719 80.992188 69.917969 C 81.230469 69.824219 81.503906 69.777344 81.8125 69.777344 C 82.121094 69.777344 82.398438 69.824219 82.636719 69.917969 C 82.875 70.011719 83.070312 70.144531 83.230469 70.316406 C 83.394531 70.484375 83.523438 70.6875 83.609375 70.925781 C 83.695312 71.164062 83.738281 71.433594 83.738281 71.726562 Z M 82.925781 71.726562 C 82.925781 71.527344 82.902344 71.34375 82.851562 71.183594 C 82.800781 71.027344 82.726562 70.890625 82.636719 70.773438 C 82.542969 70.660156 82.425781 70.566406 82.289062 70.503906 C 82.152344 70.4375 81.992188 70.40625 81.8125 70.40625 C 81.625 70.40625 81.460938 70.4375 81.316406 70.503906 C 81.179688 70.566406 81.0625 70.660156 80.96875 70.773438 C 80.875 70.890625 80.804688 71.027344 80.753906 71.183594 C 80.710938 71.34375 80.691406 71.527344 80.691406 71.726562 C 80.691406 71.929688 80.714844 72.113281 80.765625 72.28125 C 80.8125 72.441406 80.886719 72.582031 80.980469 72.703125 C 81.074219 72.820312 81.191406 72.914062 81.328125 72.984375 C 81.460938 73.050781 81.621094 73.082031 81.804688 73.082031 C 81.996094 73.082031 82.164062 73.050781 82.300781 72.984375 C 82.445312 72.914062 82.5625 72.820312 82.65625 72.703125 C 82.75 72.582031 82.820312 72.4375 82.863281 72.269531 C 82.90625 72.105469 82.925781 71.921875 82.925781 71.726562 Z M 82.925781 71.726562 "/>
<path style=" stroke:none;fill-rule:nonzero;fill:rgb(0%,0%,0%);fill-opacity:1;" d="M 107.6875 18.960938 L 105.644531 15.710938 C 105.648438 15.796875 105.65625 15.882812 105.65625 15.96875 C 105.660156 16.042969 105.664062 16.121094 105.664062 16.207031 C 105.671875 16.289062 105.675781 16.359375 105.675781 16.425781 L 105.675781 18.960938 L 105.210938 18.960938 L 105.210938 15.144531 L 105.816406 15.144531 L 107.871094 18.417969 C 107.871094 18.417969 107.867188 18.332031 107.859375 18.148438 C 107.851562 18.078125 107.84375 17.996094 107.839844 17.910156 C 107.839844 17.816406 107.839844 17.730469 107.839844 17.648438 L 107.839844 15.144531 L 108.304688 15.144531 L 108.304688 18.960938 Z M 107.6875 18.960938 "/>
<path style=" stroke:none;fill-rule:nonzero;fill:rgb(0%,0%,47.058824%);fill-opacity:1;" d="M 19.027344 25.761719 C 19.027344 26.0625 18.980469 26.332031 18.886719 26.578125 C 18.800781 26.824219 18.675781 27.03125 18.511719 27.207031 C 18.34375 27.378906 18.140625 27.515625 17.90625 27.605469 C 17.667969 27.699219 17.394531 27.746094 17.09375 27.746094 C 16.773438 27.746094 16.5 27.699219 16.261719 27.605469 C 16.023438 27.507812 15.820312 27.367188 15.65625 27.195312 C 15.496094 27.015625 15.378906 26.804688 15.300781 26.566406 C 15.21875 26.320312 15.179688 26.054688 15.179688 25.761719 C 15.179688 25.46875 15.21875 25.199219 15.300781 24.960938 C 15.386719 24.71875 15.507812 24.511719 15.675781 24.34375 C 15.84375 24.179688 16.046875 24.046875 16.28125 23.953125 C 16.519531 23.859375 16.792969 23.8125 17.105469 23.8125 C 17.414062 23.8125 17.6875 23.859375 17.925781 23.953125 C 18.164062 24.046875 18.363281 24.179688 18.519531 24.355469 C 18.6875 24.523438 18.8125 24.722656 18.898438 24.960938 C 18.984375 25.199219 19.027344 25.46875 19.027344 25.761719 Z M 18.21875 25.761719 C 18.21875 25.5625 18.191406 25.382812 18.140625 25.222656 C 18.089844 25.0625 18.019531 24.925781 17.925781 24.808594 C 17.832031 24.695312 17.714844 24.605469 17.582031 24.539062 C 17.441406 24.472656 17.28125 24.441406 17.105469 24.441406 C 16.914062 24.441406 16.75 24.472656 16.605469 24.539062 C 16.46875 24.605469 16.351562 24.695312 16.261719 24.808594 C 16.167969 24.925781 16.09375 25.0625 16.046875 25.222656 C 16 25.382812 15.980469 25.5625 15.980469 25.761719 C 15.980469 25.96875 16.003906 26.152344 16.054688 26.316406 C 16.105469 26.476562 16.175781 26.617188 16.273438 26.738281 C 16.363281 26.855469 16.480469 26.949219 16.617188 27.019531 C 16.753906 27.085938 16.914062 27.117188 17.09375 27.117188 C 17.289062 27.117188 17.453125 27.085938 17.589844 27.019531 C 17.734375 26.949219 17.851562 26.855469 17.949219 26.738281 C 18.039062 26.617188 18.109375 26.472656 18.152344 26.304688 C 18.195312 26.140625 18.21875 25.957031 18.21875 25.761719 Z M 18.21875 25.761719 "/>
<path style="fill:none;stroke-width:0.06;stroke-linecap:butt;stroke-linejoin:miter;stroke:rgb(0%,0%,47.058824%);stroke-opacity:1;stroke-miterlimit:10;" d="M 2.635649 0.751095 L 2.732069 1.735555 " transform="matrix(17.299107,0,0,17.34375,17.104841,17.055219)"/>
<path style="fill:none;stroke-width:0.06;stroke-linecap:butt;stroke-linejoin:miter;stroke:rgb(0%,0%,47.058824%);stroke-opacity:1;stroke-miterlimit:10;" d="M 2.810875 0.830375 L 2.888552 1.623618 " transform="matrix(17.299107,0,0,17.34375,17.104841,17.055219)"/>
<path style="fill:none;stroke-width:0.0333333;stroke-linecap:butt;stroke-linejoin:miter;stroke:rgb(0%,0%,0%);stroke-opacity:1;stroke-miterlimit:10;" d="M 2.627746 0.756726 L 3.286649 0.283528 " transform="matrix(17.299107,0,0,17.34375,17.104841,17.055219)"/>
<path style="fill:none;stroke-width:0.06;stroke-linecap:butt;stroke-linejoin:miter;stroke:rgb(0%,0%,47.058824%);stroke-opacity:1;stroke-miterlimit:10;" d="M 2.644456 0.75515 L 1.909456 0.417987 " transform="matrix(17.299107,0,0,17.34375,17.104841,17.055219)"/>
<path style="fill:none;stroke-width:0.0333333;stroke-linecap:butt;stroke-linejoin:miter;stroke:rgb(0%,0%,0%);stroke-opacity:1;stroke-miterlimit:10;" d="M 2.723262 1.731501 L 3.657875 2.155825 " transform="matrix(17.299107,0,0,17.34375,17.104841,17.055219)"/>
<path style="fill:none;stroke-width:0.06;stroke-linecap:butt;stroke-linejoin:miter;stroke:rgb(0%,0%,47.058824%);stroke-opacity:1;stroke-miterlimit:10;" d="M 2.739972 1.729699 L 2.08852 2.204249 " transform="matrix(17.299107,0,0,17.34375,17.104841,17.055219)"/>
<path style="fill:none;stroke-width:0.0333333;stroke-linecap:butt;stroke-linejoin:miter;stroke:rgb(0%,0%,0%);stroke-opacity:1;stroke-miterlimit:10;" d="M 3.614746 0.243663 L 4.371423 0.582627 " transform="matrix(17.299107,0,0,17.34375,17.104841,17.055219)"/>
<path style="fill:none;stroke-width:0.0333333;stroke-linecap:butt;stroke-linejoin:miter;stroke:rgb(0%,0%,0%);stroke-opacity:1;stroke-miterlimit:10;" d="M 3.546552 0.39569 L 4.214262 0.694789 " transform="matrix(17.299107,0,0,17.34375,17.104841,17.055219)"/>
<path style="fill:none;stroke-width:0.0333333;stroke-linecap:butt;stroke-linejoin:miter;stroke:rgb(0%,0%,0%);stroke-opacity:1;stroke-miterlimit:10;" d="M 1.574133 0.45515 L 0.909133 0.924969 " transform="matrix(17.299107,0,0,17.34375,17.104841,17.055219)"/>
<path style="fill:none;stroke-width:0.06;stroke-linecap:butt;stroke-linejoin:miter;stroke:rgb(0%,0%,47.058824%);stroke-opacity:1;stroke-miterlimit:10;" d="M 3.641391 2.157402 L 4.298488 1.698618 " transform="matrix(17.299107,0,0,17.34375,17.104841,17.055219)"/>
<path style="fill:none;stroke-width:0.06;stroke-linecap:butt;stroke-linejoin:miter;stroke:rgb(0%,0%,47.058824%);stroke-opacity:1;stroke-miterlimit:10;" d="M 3.561907 2.112357 L 3.642069 2.991411 " transform="matrix(17.299107,0,0,17.34375,17.104841,17.055219)"/>
<path style="fill:none;stroke-width:0.06;stroke-linecap:butt;stroke-linejoin:miter;stroke:rgb(0%,0%,47.058824%);stroke-opacity:1;stroke-miterlimit:10;" d="M 3.727875 2.097041 L 3.808036 2.976095 " transform="matrix(17.299107,0,0,17.34375,17.104841,17.055219)"/>
<path style="fill:none;stroke-width:0.06;stroke-linecap:butt;stroke-linejoin:miter;stroke:rgb(0%,0%,47.058824%);stroke-opacity:1;stroke-miterlimit:10;" d="M 1.754101 2.244339 L 1.000133 1.899294 " transform="matrix(17.299107,0,0,17.34375,17.104841,17.055219)"/>
<path style="fill:none;stroke-width:0.06;stroke-linecap:butt;stroke-linejoin:miter;stroke:rgb(0%,0%,47.058824%);stroke-opacity:1;stroke-miterlimit:10;" d="M 1.823423 2.092762 L 1.156617 1.787357 " transform="matrix(17.299107,0,0,17.34375,17.104841,17.055219)"/>
<path style="fill:none;stroke-width:0.0333333;stroke-linecap:butt;stroke-linejoin:miter;stroke:rgb(0%,0%,0%);stroke-opacity:1;stroke-miterlimit:10;" d="M 4.36352 0.588032 L 5.022423 0.115059 " transform="matrix(17.299107,0,0,17.34375,17.104841,17.055219)"/>
<path style="fill:none;stroke-width:0.06;stroke-linecap:butt;stroke-linejoin:miter;stroke:rgb(0%,0%,47.058824%);stroke-opacity:1;stroke-miterlimit:10;" d="M 0.995843 0.863933 L 0.221778 0.512357 " transform="matrix(17.299107,0,0,17.34375,17.104841,17.055219)"/>
<path style="fill:none;stroke-width:0.06;stroke-linecap:butt;stroke-linejoin:miter;stroke:rgb(0%,0%,47.058824%);stroke-opacity:1;stroke-miterlimit:10;" d="M 0.926746 1.015285 L 0.152681 0.663933 " transform="matrix(17.299107,0,0,17.34375,17.104841,17.055219)"/>
<path style="fill:none;stroke-width:0.0333333;stroke-linecap:butt;stroke-linejoin:miter;stroke:rgb(0%,0%,0%);stroke-opacity:1;stroke-miterlimit:10;" d="M 4.37052 0.572942 L 4.447972 1.421591 " transform="matrix(17.299107,0,0,17.34375,17.104841,17.055219)"/>
<path style="fill:none;stroke-width:0.06;stroke-linecap:butt;stroke-linejoin:miter;stroke:rgb(0%,0%,47.058824%);stroke-opacity:1;stroke-miterlimit:10;" d="M 0.916133 0.909654 L 1.01752 1.923618 " transform="matrix(17.299107,0,0,17.34375,17.104841,17.055219)"/>
</g>
</svg>
