<?xml version="1.0" encoding="UTF-8"?>
<svg xmlns="http://www.w3.org/2000/svg" xmlns:xlink="http://www.w3.org/1999/xlink" width="94.4pt" height="68.8pt" viewBox="0 0 94.4 68.8" version="1.1">
<g id="surface1762">
<path style="fill:none;stroke-width:0.0333333;stroke-linecap:butt;stroke-linejoin:miter;stroke:rgb(0%,0%,0%);stroke-opacity:1;stroke-miterlimit:10;" d="M 1.740367 0.504869 L 0.857951 -0.00496398 " transform="matrix(17.352941,0,0,17.33871,17.143268,16.992319)"/>
<path style="fill:none;stroke-width:0.0333333;stroke-linecap:butt;stroke-linejoin:miter;stroke:rgb(0%,0%,0%);stroke-opacity:1;stroke-miterlimit:10;" d="M 1.732038 0.499912 L 1.732038 1.499978 " transform="matrix(17.352941,0,0,17.33871,17.143268,16.992319)"/>
<path style="fill:none;stroke-width:0.0333333;stroke-linecap:butt;stroke-linejoin:miter;stroke:rgb(0%,0%,0%);stroke-opacity:1;stroke-miterlimit:10;" d="M 1.898841 0.596337 L 1.898841 1.403779 " transform="matrix(17.352941,0,0,17.33871,17.143268,16.992319)"/>
<path style="fill:none;stroke-width:0.0333333;stroke-linecap:butt;stroke-linejoin:miter;stroke:rgb(0%,0%,0%);stroke-opacity:1;stroke-miterlimit:10;" d="M 1.723709 0.504869 L 2.606349 -0.00496398 " transform="matrix(17.352941,0,0,17.33871,17.143268,16.992319)"/>
<path style="fill:none;stroke-width:0.0333333;stroke-linecap:butt;stroke-linejoin:miter;stroke:rgb(0%,0%,0%);stroke-opacity:1;stroke-miterlimit:10;" d="M 0.874384 -0.00496398 L -0.00848125 0.504869 " transform="matrix(17.352941,0,0,17.33871,17.143268,16.992319)"/>
<path style="fill:none;stroke-width:0.0333333;stroke-linecap:butt;stroke-linejoin:miter;stroke:rgb(0%,0%,0%);stroke-opacity:1;stroke-miterlimit:10;" d="M 0.874384 0.18766 L 0.158322 0.601068 " transform="matrix(17.352941,0,0,17.33871,17.143268,16.992319)"/>
<path style="fill:none;stroke-width:0.0333333;stroke-linecap:butt;stroke-linejoin:miter;stroke:rgb(0%,0%,0%);stroke-opacity:1;stroke-miterlimit:10;" d="M 0.0000727764 0.490225 L 0.0000727764 1.509665 " transform="matrix(17.352941,0,0,17.33871,17.143268,16.992319)"/>
<path style="fill:none;stroke-width:0.0333333;stroke-linecap:butt;stroke-linejoin:miter;stroke:rgb(0%,0%,0%);stroke-opacity:1;stroke-miterlimit:10;" d="M -0.00848125 1.495021 L 0.874384 2.004854 " transform="matrix(17.352941,0,0,17.33871,17.143268,16.992319)"/>
<path style="fill:none;stroke-width:0.0333333;stroke-linecap:butt;stroke-linejoin:miter;stroke:rgb(0%,0%,0%);stroke-opacity:1;stroke-miterlimit:10;" d="M 0.158322 1.398822 L 0.874384 1.812231 " transform="matrix(17.352941,0,0,17.33871,17.143268,16.992319)"/>
<path style="fill:none;stroke-width:0.0333333;stroke-linecap:butt;stroke-linejoin:miter;stroke:rgb(0%,0%,0%);stroke-opacity:1;stroke-miterlimit:10;" d="M 0.857951 2.004854 L 1.740367 1.495021 " transform="matrix(17.352941,0,0,17.33871,17.143268,16.992319)"/>
<path style="fill:none;stroke-width:0.0333333;stroke-linecap:butt;stroke-linejoin:miter;stroke:rgb(0%,0%,0%);stroke-opacity:1;stroke-miterlimit:10;" d="M 1.723709 1.495021 L 2.606349 2.004854 " transform="matrix(17.352941,0,0,17.33871,17.143268,16.992319)"/>
<path style="fill:none;stroke-width:0.0333333;stroke-linecap:butt;stroke-linejoin:miter;stroke:rgb(0%,0%,0%);stroke-opacity:1;stroke-miterlimit:10;" d="M 2.589691 2.004854 L 3.472557 1.495021 " transform="matrix(17.352941,0,0,17.33871,17.143268,16.992319)"/>
<path style="fill:none;stroke-width:0.0333333;stroke-linecap:butt;stroke-linejoin:miter;stroke:rgb(0%,0%,0%);stroke-opacity:1;stroke-miterlimit:10;" d="M 2.589691 1.812231 L 3.305753 1.398822 " transform="matrix(17.352941,0,0,17.33871,17.143268,16.992319)"/>
<path style="fill:none;stroke-width:0.0333333;stroke-linecap:butt;stroke-linejoin:miter;stroke:rgb(0%,0%,0%);stroke-opacity:1;stroke-miterlimit:10;" d="M 3.464003 1.509665 L 3.464003 0.490225 " transform="matrix(17.352941,0,0,17.33871,17.143268,16.992319)"/>
<path style="fill:none;stroke-width:0.0333333;stroke-linecap:butt;stroke-linejoin:miter;stroke:rgb(0%,0%,0%);stroke-opacity:1;stroke-miterlimit:10;" d="M 3.472557 0.504869 L 2.589691 -0.00496398 " transform="matrix(17.352941,0,0,17.33871,17.143268,16.992319)"/>
<path style="fill:none;stroke-width:0.0333333;stroke-linecap:butt;stroke-linejoin:miter;stroke:rgb(0%,0%,0%);stroke-opacity:1;stroke-miterlimit:10;" d="M 3.305753 0.601068 L 2.589691 0.18766 " transform="matrix(17.352941,0,0,17.33871,17.143268,16.992319)"/>
</g>
</svg>
