<?xml version="1.0" encoding="UTF-8"?>
<svg xmlns="http://www.w3.org/2000/svg" xmlns:xlink="http://www.w3.org/1999/xlink" width="64pt" height="43.2pt" viewBox="0 0 64 43.2" version="1.1">
<g id="surface1362">
<path style=" stroke:none;fill-rule:nonzero;fill:rgb(0%,0%,0%);fill-opacity:1;" d="M 17.242188 24.246094 C 17.027344 24.246094 16.835938 24.285156 16.671875 24.355469 C 16.507812 24.429688 16.367188 24.535156 16.253906 24.667969 C 16.144531 24.796875 16.0625 24.957031 16.003906 25.144531 C 15.945312 25.335938 15.917969 25.542969 15.917969 25.773438 C 15.917969 26.003906 15.945312 26.214844 16.003906 26.410156 C 16.070312 26.601562 16.160156 26.761719 16.273438 26.898438 C 16.386719 27.035156 16.527344 27.144531 16.695312 27.222656 C 16.867188 27.292969 17.054688 27.328125 17.265625 27.328125 C 17.417969 27.328125 17.546875 27.3125 17.664062 27.277344 C 17.785156 27.234375 17.894531 27.175781 18 27.101562 C 18.097656 27.03125 18.183594 26.949219 18.257812 26.855469 C 18.335938 26.761719 18.402344 26.652344 18.460938 26.53125 L 18.882812 26.746094 C 18.816406 26.890625 18.734375 27.023438 18.632812 27.144531 C 18.53125 27.269531 18.414062 27.378906 18.277344 27.46875 C 18.140625 27.558594 17.988281 27.628906 17.816406 27.675781 C 17.644531 27.726562 17.453125 27.75 17.242188 27.75 C 16.933594 27.75 16.664062 27.703125 16.4375 27.609375 C 16.203125 27.511719 16.011719 27.375 15.855469 27.199219 C 15.703125 27.023438 15.585938 26.8125 15.507812 26.574219 C 15.429688 26.328125 15.390625 26.0625 15.390625 25.773438 C 15.390625 25.476562 15.429688 25.210938 15.507812 24.972656 C 15.59375 24.726562 15.714844 24.523438 15.875 24.355469 C 16.03125 24.191406 16.226562 24.058594 16.457031 23.964844 C 16.6875 23.875 16.949219 23.824219 17.242188 23.824219 C 17.644531 23.824219 17.980469 23.90625 18.246094 24.0625 C 18.519531 24.222656 18.71875 24.460938 18.851562 24.777344 L 18.363281 24.9375 C 18.328125 24.847656 18.277344 24.761719 18.214844 24.679688 C 18.15625 24.59375 18.078125 24.523438 17.988281 24.464844 C 17.894531 24.398438 17.785156 24.351562 17.664062 24.3125 C 17.539062 24.269531 17.398438 24.246094 17.242188 24.246094 Z M 17.242188 24.246094 "/>
<path style=" stroke:none;fill-rule:nonzero;fill:rgb(0%,0%,0%);fill-opacity:1;" d="M 47.105469 24.246094 C 46.890625 24.246094 46.699219 24.285156 46.535156 24.355469 C 46.367188 24.429688 46.226562 24.535156 46.117188 24.667969 C 46.007812 24.796875 45.925781 24.957031 45.867188 25.144531 C 45.808594 25.335938 45.78125 25.542969 45.78125 25.773438 C 45.78125 26.003906 45.808594 26.214844 45.867188 26.410156 C 45.933594 26.601562 46.019531 26.761719 46.136719 26.898438 C 46.25 27.035156 46.390625 27.144531 46.558594 27.222656 C 46.730469 27.292969 46.917969 27.328125 47.128906 27.328125 C 47.277344 27.328125 47.410156 27.3125 47.527344 27.277344 C 47.648438 27.234375 47.757812 27.175781 47.859375 27.101562 C 47.960938 27.03125 48.046875 26.949219 48.121094 26.855469 C 48.199219 26.761719 48.265625 26.652344 48.324219 26.53125 L 48.746094 26.746094 C 48.679688 26.890625 48.597656 27.023438 48.496094 27.144531 C 48.394531 27.269531 48.277344 27.378906 48.140625 27.46875 C 48.003906 27.558594 47.851562 27.628906 47.679688 27.675781 C 47.503906 27.726562 47.3125 27.75 47.105469 27.75 C 46.796875 27.75 46.527344 27.703125 46.296875 27.609375 C 46.066406 27.511719 45.871094 27.375 45.714844 27.199219 C 45.566406 27.023438 45.449219 26.8125 45.371094 26.574219 C 45.289062 26.328125 45.253906 26.0625 45.253906 25.773438 C 45.253906 25.476562 45.289062 25.210938 45.371094 24.972656 C 45.457031 24.726562 45.578125 24.523438 45.738281 24.355469 C 45.894531 24.191406 46.089844 24.058594 46.320312 23.964844 C 46.550781 23.875 46.808594 23.824219 47.105469 23.824219 C 47.507812 23.824219 47.84375 23.90625 48.109375 24.0625 C 48.382812 24.222656 48.582031 24.460938 48.710938 24.777344 L 48.226562 24.9375 C 48.191406 24.847656 48.140625 24.761719 48.078125 24.679688 C 48.015625 24.59375 47.941406 24.523438 47.851562 24.464844 C 47.757812 24.398438 47.648438 24.351562 47.527344 24.3125 C 47.402344 24.269531 47.261719 24.246094 47.105469 24.246094 Z M 47.105469 24.246094 "/>
<path style="fill:none;stroke-width:0.0333333;stroke-linecap:butt;stroke-linejoin:miter;stroke:rgb(0%,0%,0%);stroke-opacity:1;stroke-miterlimit:10;" d="M 0.176441 0.398252 L 0.87448 -0.00483827 " transform="matrix(17.241379,0,0,17.307692,17.137603,17.134521)"/>
<path style="fill:none;stroke-width:0.0333333;stroke-linecap:butt;stroke-linejoin:miter;stroke:rgb(0%,0%,0%);stroke-opacity:1;stroke-miterlimit:10;" d="M 0.857714 -0.00483827 L 1.555753 0.398026 " transform="matrix(17.241379,0,0,17.307692,17.137603,17.134521)"/>
<path style="fill:none;stroke-width:0.0333333;stroke-linecap:butt;stroke-linejoin:miter;stroke:rgb(0%,0%,0%);stroke-opacity:1;stroke-miterlimit:10;" d="M 0.857714 0.187679 L 1.472378 0.542471 " transform="matrix(17.241379,0,0,17.307692,17.137603,17.134521)"/>
</g>
</svg>
