<?xml version="1.0" encoding="UTF-8"?>
<svg xmlns="http://www.w3.org/2000/svg" xmlns:xlink="http://www.w3.org/1999/xlink" width="78.4pt" height="68.8pt" viewBox="0 0 78.4 68.8" version="1.1">
<g id="surface537">
<path style=" stroke:none;fill-rule:nonzero;fill:rgb(0%,0%,47.058824%);fill-opacity:1;" d="M 61.863281 18.527344 C 62.011719 18.527344 62.140625 18.507812 62.25 18.464844 C 62.359375 18.421875 62.449219 18.367188 62.53125 18.300781 C 62.609375 18.230469 62.671875 18.152344 62.726562 18.066406 C 62.78125 17.980469 62.828125 17.894531 62.863281 17.808594 L 63.554688 18.066406 C 63.496094 18.203125 63.421875 18.339844 63.328125 18.472656 C 63.242188 18.601562 63.128906 18.71875 62.996094 18.816406 C 62.863281 18.921875 62.707031 19 62.519531 19.066406 C 62.332031 19.121094 62.113281 19.152344 61.863281 19.152344 C 61.53125 19.152344 61.242188 19.101562 61 19.011719 C 60.761719 18.910156 60.5625 18.773438 60.40625 18.601562 C 60.246094 18.425781 60.128906 18.214844 60.050781 17.980469 C 59.976562 17.738281 59.941406 17.472656 59.941406 17.183594 C 59.941406 16.890625 59.976562 16.625 60.050781 16.386719 C 60.128906 16.148438 60.246094 15.941406 60.394531 15.777344 C 60.550781 15.613281 60.75 15.484375 60.988281 15.386719 C 61.226562 15.296875 61.507812 15.25 61.828125 15.25 C 62.070312 15.25 62.289062 15.277344 62.476562 15.335938 C 62.664062 15.386719 62.824219 15.457031 62.960938 15.550781 C 63.097656 15.644531 63.210938 15.753906 63.296875 15.882812 C 63.382812 16.011719 63.449219 16.152344 63.5 16.300781 L 62.800781 16.496094 C 62.777344 16.417969 62.738281 16.34375 62.679688 16.269531 C 62.628906 16.191406 62.566406 16.125 62.488281 16.066406 C 62.40625 16.007812 62.316406 15.964844 62.207031 15.925781 C 62.097656 15.890625 61.976562 15.871094 61.839844 15.871094 C 61.644531 15.871094 61.480469 15.90625 61.34375 15.96875 C 61.207031 16.035156 61.089844 16.125 61 16.238281 C 60.914062 16.351562 60.847656 16.492188 60.804688 16.644531 C 60.761719 16.804688 60.742188 16.984375 60.742188 17.183594 C 60.742188 17.386719 60.761719 17.566406 60.804688 17.730469 C 60.847656 17.890625 60.914062 18.03125 61 18.152344 C 61.089844 18.265625 61.207031 18.359375 61.34375 18.429688 C 61.488281 18.496094 61.660156 18.527344 61.863281 18.527344 Z M 61.863281 18.527344 "/>
<path style="fill:none;stroke-width:0.0333333;stroke-linecap:butt;stroke-linejoin:miter;stroke:rgb(0%,0%,0%);stroke-opacity:1;stroke-miterlimit:10;" d="M 0.857822 2.004879 L 1.740341 1.49525 " transform="matrix(17.253521,0,0,17.2,16.926111,17.199672)"/>
<path style="fill:none;stroke-width:0.06;stroke-linecap:butt;stroke-linejoin:miter;stroke:rgb(0%,0%,47.058824%);stroke-opacity:1;stroke-miterlimit:10;" d="M 1.732191 0.490299 L 1.732191 1.509785 " transform="matrix(17.253521,0,0,17.2,16.926111,17.199672)"/>
<path style="fill:none;stroke-width:0.0333333;stroke-linecap:butt;stroke-linejoin:miter;stroke:rgb(0%,0%,0%);stroke-opacity:1;stroke-miterlimit:10;" d="M 0.857822 -0.0047956 L 1.740341 0.504834 " transform="matrix(17.253521,0,0,17.2,16.926111,17.199672)"/>
<path style="fill:none;stroke-width:0.0333333;stroke-linecap:butt;stroke-linejoin:miter;stroke:rgb(0%,0%,0%);stroke-opacity:1;stroke-miterlimit:10;" d="M 0.87435 -0.0047956 L -0.00839601 0.504834 " transform="matrix(17.253521,0,0,17.2,16.926111,17.199672)"/>
<path style="fill:none;stroke-width:0.0333333;stroke-linecap:butt;stroke-linejoin:miter;stroke:rgb(0%,0%,0%);stroke-opacity:1;stroke-miterlimit:10;" d="M 0.87435 0.187565 L 0.158463 0.6009 " transform="matrix(17.253521,0,0,17.2,16.926111,17.199672)"/>
<path style="fill:none;stroke-width:0.0333333;stroke-linecap:butt;stroke-linejoin:miter;stroke:rgb(0%,0%,0%);stroke-opacity:1;stroke-miterlimit:10;" d="M -0.0000190957 0.490299 L -0.0000190957 1.509785 " transform="matrix(17.253521,0,0,17.2,16.926111,17.199672)"/>
<path style="fill:none;stroke-width:0.0333333;stroke-linecap:butt;stroke-linejoin:miter;stroke:rgb(0%,0%,0%);stroke-opacity:1;stroke-miterlimit:10;" d="M -0.00839601 1.49525 L 0.87435 2.004879 " transform="matrix(17.253521,0,0,17.2,16.926111,17.199672)"/>
<path style="fill:none;stroke-width:0.0333333;stroke-linecap:butt;stroke-linejoin:miter;stroke:rgb(0%,0%,0%);stroke-opacity:1;stroke-miterlimit:10;" d="M 0.158463 1.399183 L 0.87435 1.812292 " transform="matrix(17.253521,0,0,17.2,16.926111,17.199672)"/>
<path style="fill:none;stroke-width:0.06;stroke-linecap:butt;stroke-linejoin:miter;stroke:rgb(0%,0%,47.058824%);stroke-opacity:1;stroke-miterlimit:10;" d="M 1.732191 0.596358 L 2.460756 0.175528 " transform="matrix(17.253521,0,0,17.2,16.926111,17.199672)"/>
<path style="fill:none;stroke-width:0.06;stroke-linecap:butt;stroke-linejoin:miter;stroke:rgb(0%,0%,47.058824%);stroke-opacity:1;stroke-miterlimit:10;" d="M 1.648648 0.451918 L 2.377439 0.0310874 " transform="matrix(17.253521,0,0,17.2,16.926111,17.199672)"/>
</g>
</svg>
