<?xml version="1.0" encoding="UTF-8"?>
<svg xmlns="http://www.w3.org/2000/svg" xmlns:xlink="http://www.w3.org/1999/xlink" width="91.2pt" height="86.4pt" viewBox="0 0 91.2 86.4" version="1.1">
<g id="surface302">
<path style=" stroke:none;fill-rule:nonzero;fill:rgb(0%,0%,0%);fill-opacity:1;" d="M 47.183594 41.851562 C 46.96875 41.851562 46.777344 41.890625 46.613281 41.960938 C 46.445312 42.035156 46.304688 42.140625 46.191406 42.273438 C 46.082031 42.402344 46 42.5625 45.941406 42.75 C 45.882812 42.9375 45.855469 43.148438 45.855469 43.378906 C 45.855469 43.609375 45.882812 43.820312 45.941406 44.015625 C 46.007812 44.203125 46.097656 44.367188 46.210938 44.503906 C 46.324219 44.640625 46.464844 44.75 46.632812 44.828125 C 46.804688 44.898438 46.996094 44.933594 47.207031 44.933594 C 47.355469 44.933594 47.488281 44.917969 47.605469 44.882812 C 47.726562 44.835938 47.835938 44.78125 47.941406 44.707031 C 48.039062 44.636719 48.125 44.554688 48.199219 44.460938 C 48.277344 44.367188 48.34375 44.257812 48.402344 44.132812 L 48.824219 44.351562 C 48.761719 44.496094 48.675781 44.628906 48.578125 44.75 C 48.472656 44.875 48.355469 44.984375 48.21875 45.074219 C 48.082031 45.164062 47.929688 45.234375 47.757812 45.28125 C 47.582031 45.328125 47.390625 45.355469 47.183594 45.355469 C 46.875 45.355469 46.605469 45.308594 46.375 45.214844 C 46.140625 45.117188 45.949219 44.976562 45.792969 44.804688 C 45.640625 44.625 45.523438 44.414062 45.445312 44.179688 C 45.363281 43.933594 45.328125 43.667969 45.328125 43.378906 C 45.328125 43.082031 45.363281 42.816406 45.445312 42.578125 C 45.53125 42.332031 45.652344 42.128906 45.8125 41.960938 C 45.96875 41.796875 46.164062 41.664062 46.394531 41.570312 C 46.625 41.480469 46.886719 41.429688 47.183594 41.429688 C 47.585938 41.429688 47.921875 41.511719 48.1875 41.667969 C 48.460938 41.828125 48.664062 42.066406 48.792969 42.382812 L 48.308594 42.542969 C 48.269531 42.453125 48.21875 42.367188 48.15625 42.285156 C 48.097656 42.199219 48.019531 42.128906 47.929688 42.070312 C 47.835938 42.003906 47.726562 41.953125 47.605469 41.917969 C 47.480469 41.875 47.339844 41.851562 47.183594 41.851562 Z M 47.183594 41.851562 "/>
<path style=" stroke:none;fill-rule:nonzero;fill:rgb(0%,0%,0%);fill-opacity:1;" d="M 40.644531 42.714844 L 40.644531 42.402344 L 41.378906 42.402344 L 41.378906 40.207031 L 40.730469 40.671875 L 40.730469 40.324219 L 41.402344 39.859375 L 41.746094 39.859375 L 41.746094 42.402344 L 42.4375 42.402344 L 42.4375 42.714844 Z M 40.644531 42.714844 "/>
<path style=" stroke:none;fill-rule:nonzero;fill:rgb(0%,0%,0%);fill-opacity:1;" d="M 44.351562 42.066406 L 44.351562 42.714844 L 44.007812 42.714844 L 44.007812 42.066406 L 42.667969 42.066406 L 42.667969 41.785156 L 43.976562 39.859375 L 44.351562 39.859375 L 44.351562 41.785156 L 44.753906 41.785156 L 44.753906 42.066406 Z M 44.007812 40.269531 C 44.007812 40.277344 44 40.292969 43.984375 40.3125 C 43.976562 40.328125 43.964844 40.351562 43.953125 40.378906 C 43.9375 40.398438 43.921875 40.425781 43.910156 40.453125 C 43.894531 40.476562 43.882812 40.496094 43.878906 40.507812 L 43.144531 41.589844 C 43.136719 41.597656 43.125 41.613281 43.109375 41.632812 C 43.101562 41.648438 43.09375 41.664062 43.078125 41.6875 C 43.0625 41.703125 43.050781 41.71875 43.035156 41.742188 C 43.019531 41.757812 43.007812 41.769531 43.003906 41.785156 L 44.007812 41.785156 Z M 44.007812 40.269531 "/>
<path style=" stroke:none;fill-rule:nonzero;fill:rgb(0%,0%,0%);fill-opacity:1;" d="M 47.183594 59.019531 C 46.96875 59.019531 46.777344 59.058594 46.613281 59.128906 C 46.445312 59.199219 46.304688 59.304688 46.191406 59.441406 C 46.082031 59.570312 46 59.730469 45.941406 59.917969 C 45.882812 60.105469 45.855469 60.316406 45.855469 60.542969 C 45.855469 60.777344 45.882812 60.988281 45.941406 61.183594 C 46.007812 61.371094 46.097656 61.535156 46.210938 61.667969 C 46.324219 61.808594 46.464844 61.914062 46.632812 61.992188 C 46.804688 62.066406 46.996094 62.101562 47.207031 62.101562 C 47.355469 62.101562 47.488281 62.085938 47.605469 62.046875 C 47.726562 62.003906 47.835938 61.949219 47.941406 61.875 C 48.039062 61.804688 48.125 61.722656 48.199219 61.625 C 48.277344 61.535156 48.34375 61.425781 48.402344 61.300781 L 48.824219 61.519531 C 48.761719 61.664062 48.675781 61.796875 48.578125 61.917969 C 48.472656 62.042969 48.355469 62.152344 48.21875 62.242188 C 48.082031 62.328125 47.929688 62.398438 47.757812 62.449219 C 47.582031 62.496094 47.390625 62.523438 47.183594 62.523438 C 46.875 62.523438 46.605469 62.476562 46.375 62.382812 C 46.140625 62.285156 45.949219 62.144531 45.792969 61.972656 C 45.640625 61.792969 45.523438 61.582031 45.445312 61.34375 C 45.363281 61.101562 45.328125 60.832031 45.328125 60.542969 C 45.328125 60.25 45.363281 59.980469 45.445312 59.742188 C 45.53125 59.5 45.652344 59.296875 45.8125 59.128906 C 45.96875 58.960938 46.164062 58.832031 46.394531 58.738281 C 46.625 58.644531 46.886719 58.597656 47.183594 58.597656 C 47.585938 58.597656 47.921875 58.679688 48.1875 58.835938 C 48.460938 58.996094 48.664062 59.234375 48.792969 59.550781 L 48.308594 59.710938 C 48.269531 59.621094 48.21875 59.53125 48.15625 59.453125 C 48.097656 59.367188 48.019531 59.296875 47.929688 59.234375 C 47.835938 59.171875 47.726562 59.121094 47.605469 59.085938 C 47.480469 59.039062 47.339844 59.019531 47.183594 59.019531 Z M 47.183594 59.019531 "/>
<path style=" stroke:none;fill-rule:nonzero;fill:rgb(0%,0%,0%);fill-opacity:1;" d="M 40.644531 59.882812 L 40.644531 59.566406 L 41.378906 59.566406 L 41.378906 57.371094 L 40.730469 57.835938 L 40.730469 57.492188 L 41.402344 57.027344 L 41.746094 57.027344 L 41.746094 59.566406 L 42.4375 59.566406 L 42.4375 59.882812 Z M 40.644531 59.882812 "/>
<path style=" stroke:none;fill-rule:nonzero;fill:rgb(0%,0%,0%);fill-opacity:1;" d="M 44.351562 59.234375 L 44.351562 59.882812 L 44.007812 59.882812 L 44.007812 59.234375 L 42.667969 59.234375 L 42.667969 58.953125 L 43.976562 57.027344 L 44.351562 57.027344 L 44.351562 58.953125 L 44.753906 58.953125 L 44.753906 59.234375 Z M 44.007812 57.4375 C 44.007812 57.445312 44 57.457031 43.984375 57.480469 C 43.976562 57.496094 43.964844 57.519531 43.953125 57.546875 C 43.9375 57.566406 43.921875 57.59375 43.910156 57.621094 C 43.894531 57.644531 43.882812 57.660156 43.878906 57.675781 L 43.144531 58.757812 C 43.136719 58.765625 43.125 58.777344 43.109375 58.800781 C 43.101562 58.816406 43.09375 58.832031 43.078125 58.855469 C 43.0625 58.871094 43.050781 58.886719 43.035156 58.910156 C 43.019531 58.925781 43.007812 58.9375 43.003906 58.953125 L 44.007812 58.953125 Z M 44.007812 57.4375 "/>
<path style=" stroke:none;fill-rule:nonzero;fill:rgb(0%,0%,0%);fill-opacity:1;" d="M 32.382812 32.9375 C 32.164062 32.9375 31.972656 32.972656 31.808594 33.042969 C 31.640625 33.117188 31.5 33.222656 31.386719 33.359375 C 31.28125 33.488281 31.195312 33.648438 31.140625 33.832031 C 31.082031 34.023438 31.054688 34.230469 31.054688 34.460938 C 31.054688 34.695312 31.082031 34.90625 31.140625 35.097656 C 31.203125 35.289062 31.292969 35.449219 31.410156 35.585938 C 31.523438 35.722656 31.664062 35.832031 31.832031 35.910156 C 32.003906 35.984375 32.191406 36.019531 32.402344 36.019531 C 32.554688 36.019531 32.6875 36.003906 32.800781 35.964844 C 32.921875 35.921875 33.035156 35.863281 33.136719 35.792969 C 33.238281 35.722656 33.324219 35.636719 33.394531 35.542969 C 33.472656 35.449219 33.542969 35.34375 33.601562 35.21875 L 34.023438 35.433594 C 33.957031 35.582031 33.875 35.714844 33.773438 35.835938 C 33.671875 35.960938 33.550781 36.066406 33.417969 36.160156 C 33.28125 36.246094 33.125 36.316406 32.953125 36.363281 C 32.78125 36.414062 32.589844 36.441406 32.382812 36.441406 C 32.070312 36.441406 31.800781 36.390625 31.570312 36.300781 C 31.339844 36.199219 31.144531 36.0625 30.988281 35.890625 C 30.835938 35.710938 30.722656 35.5 30.644531 35.261719 C 30.5625 35.019531 30.523438 34.75 30.523438 34.460938 C 30.523438 34.167969 30.5625 33.898438 30.644531 33.660156 C 30.730469 33.417969 30.851562 33.210938 31.011719 33.042969 C 31.167969 32.878906 31.359375 32.75 31.59375 32.65625 C 31.824219 32.5625 32.085938 32.515625 32.382812 32.515625 C 32.78125 32.515625 33.117188 32.59375 33.386719 32.753906 C 33.65625 32.910156 33.859375 33.148438 33.988281 33.464844 L 33.503906 33.628906 C 33.464844 33.535156 33.417969 33.449219 33.351562 33.367188 C 33.292969 33.28125 33.21875 33.210938 33.125 33.152344 C 33.03125 33.085938 32.921875 33.039062 32.800781 33 C 32.679688 32.957031 32.539062 32.9375 32.382812 32.9375 Z M 32.382812 32.9375 "/>
<path style=" stroke:none;fill-rule:nonzero;fill:rgb(0%,0%,0%);fill-opacity:1;" d="M 25.839844 33.796875 L 25.839844 33.484375 L 26.574219 33.484375 L 26.574219 31.289062 L 25.929688 31.753906 L 25.929688 31.40625 L 26.597656 30.941406 L 26.941406 30.941406 L 26.941406 33.484375 L 27.632812 33.484375 L 27.632812 33.796875 Z M 25.839844 33.796875 "/>
<path style=" stroke:none;fill-rule:nonzero;fill:rgb(0%,0%,0%);fill-opacity:1;" d="M 29.550781 33.148438 L 29.550781 33.796875 L 29.203125 33.796875 L 29.203125 33.148438 L 27.863281 33.148438 L 27.863281 32.867188 L 29.171875 30.941406 L 29.550781 30.941406 L 29.550781 32.867188 L 29.949219 32.867188 L 29.949219 33.148438 Z M 29.203125 31.355469 C 29.203125 31.363281 29.195312 31.375 29.183594 31.398438 C 29.175781 31.414062 29.164062 31.433594 29.148438 31.460938 C 29.132812 31.484375 29.121094 31.511719 29.105469 31.539062 C 29.089844 31.558594 29.078125 31.578125 29.074219 31.59375 L 28.339844 32.671875 C 28.332031 32.683594 28.320312 32.695312 28.308594 32.71875 C 28.300781 32.734375 28.289062 32.75 28.277344 32.769531 C 28.257812 32.789062 28.246094 32.804688 28.230469 32.824219 C 28.214844 32.839844 28.207031 32.855469 28.199219 32.867188 L 29.203125 32.867188 Z M 29.203125 31.355469 "/>
<path style=" stroke:none;fill-rule:nonzero;fill:rgb(0%,0%,0%);fill-opacity:1;" d="M 64.96875 40.003906 L 62.929688 36.761719 C 62.933594 36.847656 62.941406 36.933594 62.941406 37.019531 C 62.945312 37.09375 62.949219 37.171875 62.949219 37.257812 C 62.957031 37.339844 62.960938 37.410156 62.960938 37.472656 L 62.960938 40.003906 L 62.496094 40.003906 L 62.496094 36.199219 L 63.101562 36.199219 L 65.152344 39.464844 C 65.152344 39.464844 65.148438 39.375 65.140625 39.195312 C 65.132812 39.125 65.125 39.042969 65.121094 38.957031 C 65.121094 38.863281 65.121094 38.777344 65.121094 38.695312 L 65.121094 36.199219 L 65.585938 36.199219 L 65.585938 40.003906 Z M 64.96875 40.003906 "/>
<path style=" stroke:none;fill-rule:nonzero;fill:rgb(0%,0%,0%);fill-opacity:1;" d="M 33.203125 71.171875 L 31.160156 67.925781 C 31.167969 68.015625 31.171875 68.101562 31.171875 68.1875 C 31.175781 68.261719 31.183594 68.339844 31.183594 68.425781 C 31.1875 68.507812 31.195312 68.578125 31.195312 68.640625 L 31.195312 71.171875 L 30.730469 71.171875 L 30.730469 67.363281 L 31.332031 67.363281 L 33.386719 70.632812 C 33.386719 70.632812 33.378906 70.542969 33.375 70.359375 C 33.367188 70.289062 33.359375 70.210938 33.351562 70.125 C 33.351562 70.03125 33.351562 69.945312 33.351562 69.863281 L 33.351562 67.363281 L 33.816406 67.363281 L 33.816406 71.171875 Z M 33.203125 71.171875 "/>
<path style=" stroke:none;fill-rule:nonzero;fill:rgb(0%,0%,0%);fill-opacity:1;" d="M 64.761719 67.589844 L 62.722656 64.34375 C 62.726562 64.429688 62.730469 64.515625 62.730469 64.605469 C 62.738281 64.675781 62.742188 64.753906 62.742188 64.839844 C 62.75 64.921875 62.753906 64.992188 62.753906 65.058594 L 62.753906 67.589844 L 62.289062 67.589844 L 62.289062 63.78125 L 62.894531 63.78125 L 64.945312 67.046875 C 64.945312 67.046875 64.941406 66.960938 64.933594 66.777344 C 64.925781 66.707031 64.917969 66.625 64.914062 66.539062 C 64.914062 66.449219 64.914062 66.363281 64.914062 66.28125 L 64.914062 63.78125 L 65.378906 63.78125 L 65.378906 67.589844 Z M 64.761719 67.589844 "/>
<path style=" stroke:none;fill-rule:nonzero;fill:rgb(0%,0%,0%);fill-opacity:1;" d="M 18.148438 45.296875 L 16.109375 42.050781 C 16.113281 42.140625 16.121094 42.226562 16.121094 42.3125 C 16.125 42.386719 16.132812 42.464844 16.132812 42.550781 C 16.136719 42.632812 16.140625 42.703125 16.140625 42.765625 L 16.140625 45.296875 L 15.675781 45.296875 L 15.675781 41.488281 L 16.28125 41.488281 L 18.332031 44.757812 C 18.332031 44.757812 18.328125 44.667969 18.324219 44.484375 C 18.316406 44.414062 18.304688 44.335938 18.300781 44.25 C 18.300781 44.15625 18.300781 44.070312 18.300781 43.988281 L 18.300781 41.488281 L 18.765625 41.488281 L 18.765625 45.296875 Z M 18.148438 45.296875 "/>
<path style=" stroke:none;fill-rule:nonzero;fill:rgb(0%,0%,0%);fill-opacity:1;" d="M 33.203125 19.171875 L 31.160156 15.929688 C 31.167969 16.015625 31.171875 16.101562 31.171875 16.1875 C 31.175781 16.261719 31.183594 16.339844 31.183594 16.425781 C 31.1875 16.507812 31.195312 16.578125 31.195312 16.640625 L 31.195312 19.171875 L 30.730469 19.171875 L 30.730469 15.367188 L 31.332031 15.367188 L 33.386719 18.632812 C 33.386719 18.632812 33.378906 18.542969 33.375 18.363281 C 33.367188 18.292969 33.359375 18.210938 33.351562 18.125 C 33.351562 18.03125 33.351562 17.945312 33.351562 17.863281 L 33.351562 15.367188 L 33.816406 15.367188 L 33.816406 19.171875 Z M 33.203125 19.171875 "/>
<path style=" stroke:none;fill-rule:nonzero;fill:rgb(0%,0%,0%);fill-opacity:1;" d="M 74.085938 50.347656 C 73.871094 50.347656 73.679688 50.386719 73.515625 50.457031 C 73.347656 50.53125 73.207031 50.636719 73.09375 50.769531 C 72.984375 50.902344 72.902344 51.058594 72.84375 51.246094 C 72.785156 51.4375 72.757812 51.644531 72.757812 51.875 C 72.757812 52.105469 72.785156 52.316406 72.84375 52.511719 C 72.910156 52.703125 73 52.863281 73.113281 53 C 73.226562 53.136719 73.367188 53.246094 73.535156 53.324219 C 73.707031 53.398438 73.898438 53.433594 74.109375 53.433594 C 74.257812 53.433594 74.390625 53.414062 74.507812 53.378906 C 74.628906 53.335938 74.738281 53.277344 74.84375 53.203125 C 74.941406 53.132812 75.027344 53.050781 75.101562 52.957031 C 75.179688 52.863281 75.246094 52.757812 75.304688 52.632812 L 75.726562 52.847656 C 75.664062 52.992188 75.578125 53.125 75.480469 53.25 C 75.375 53.371094 75.257812 53.480469 75.121094 53.574219 C 74.984375 53.660156 74.832031 53.730469 74.660156 53.777344 C 74.484375 53.828125 74.292969 53.855469 74.085938 53.855469 C 73.777344 53.855469 73.507812 53.804688 73.277344 53.714844 C 73.042969 53.613281 72.851562 53.476562 72.695312 53.300781 C 72.542969 53.125 72.425781 52.914062 72.347656 52.675781 C 72.265625 52.429688 72.230469 52.164062 72.230469 51.875 C 72.230469 51.578125 72.265625 51.3125 72.347656 51.074219 C 72.433594 50.832031 72.554688 50.625 72.714844 50.457031 C 72.871094 50.292969 73.066406 50.164062 73.296875 50.066406 C 73.527344 49.976562 73.789062 49.925781 74.085938 49.925781 C 74.488281 49.925781 74.824219 50.007812 75.089844 50.164062 C 75.363281 50.324219 75.566406 50.5625 75.695312 50.878906 L 75.210938 51.042969 C 75.171875 50.949219 75.121094 50.863281 75.058594 50.78125 C 75 50.695312 74.921875 50.625 74.832031 50.566406 C 74.738281 50.5 74.628906 50.453125 74.507812 50.414062 C 74.382812 50.371094 74.242188 50.347656 74.085938 50.347656 Z M 74.085938 50.347656 "/>
<path style=" stroke:none;fill-rule:nonzero;fill:rgb(0%,0%,0%);fill-opacity:1;" d="M 67.546875 51.214844 L 67.546875 50.902344 L 68.28125 50.902344 L 68.28125 48.703125 L 67.632812 49.171875 L 67.632812 48.824219 L 68.304688 48.359375 L 68.648438 48.359375 L 68.648438 50.902344 L 69.339844 50.902344 L 69.339844 51.214844 Z M 67.546875 51.214844 "/>
<path style=" stroke:none;fill-rule:nonzero;fill:rgb(0%,0%,0%);fill-opacity:1;" d="M 71.253906 50.566406 L 71.253906 51.214844 L 70.910156 51.214844 L 70.910156 50.566406 L 69.570312 50.566406 L 69.570312 50.285156 L 70.878906 48.359375 L 71.253906 48.359375 L 71.253906 50.285156 L 71.652344 50.285156 L 71.652344 50.566406 Z M 70.910156 48.769531 C 70.910156 48.777344 70.902344 48.792969 70.886719 48.8125 C 70.878906 48.828125 70.867188 48.851562 70.855469 48.878906 C 70.839844 48.898438 70.824219 48.925781 70.8125 48.953125 C 70.796875 48.976562 70.785156 48.996094 70.78125 49.007812 L 70.046875 50.089844 C 70.039062 50.097656 70.027344 50.109375 70.011719 50.132812 C 70.003906 50.148438 69.996094 50.164062 69.980469 50.1875 C 69.964844 50.203125 69.953125 50.21875 69.9375 50.242188 C 69.921875 50.257812 69.910156 50.269531 69.90625 50.285156 L 70.910156 50.285156 Z M 70.910156 48.769531 "/>
<path style=" stroke:none;fill-rule:nonzero;fill:rgb(0%,0%,0%);fill-opacity:1;" d="M 17.328125 58.808594 C 17.113281 58.808594 16.921875 58.847656 16.757812 58.917969 C 16.589844 58.988281 16.449219 59.09375 16.335938 59.230469 C 16.226562 59.359375 16.144531 59.519531 16.089844 59.707031 C 16.027344 59.894531 16 60.105469 16 60.332031 C 16 60.566406 16.027344 60.777344 16.089844 60.972656 C 16.152344 61.160156 16.242188 61.324219 16.359375 61.457031 C 16.472656 61.597656 16.613281 61.703125 16.777344 61.78125 C 16.953125 61.855469 17.140625 61.890625 17.351562 61.890625 C 17.503906 61.890625 17.632812 61.875 17.75 61.835938 C 17.871094 61.792969 17.984375 61.738281 18.085938 61.664062 C 18.183594 61.59375 18.269531 61.511719 18.34375 61.414062 C 18.421875 61.324219 18.488281 61.214844 18.550781 61.089844 L 18.96875 61.308594 C 18.90625 61.453125 18.820312 61.585938 18.722656 61.707031 C 18.621094 61.832031 18.5 61.941406 18.367188 62.03125 C 18.226562 62.117188 18.074219 62.1875 17.902344 62.238281 C 17.730469 62.285156 17.539062 62.3125 17.328125 62.3125 C 17.019531 62.3125 16.75 62.265625 16.519531 62.171875 C 16.289062 62.074219 16.09375 61.933594 15.9375 61.761719 C 15.785156 61.582031 15.667969 61.371094 15.589844 61.132812 C 15.511719 60.890625 15.472656 60.621094 15.472656 60.332031 C 15.472656 60.039062 15.511719 59.769531 15.589844 59.53125 C 15.675781 59.289062 15.800781 59.085938 15.957031 58.917969 C 16.113281 58.75 16.308594 58.621094 16.542969 58.527344 C 16.769531 58.433594 17.03125 58.386719 17.328125 58.386719 C 17.730469 58.386719 18.066406 58.46875 18.332031 58.625 C 18.605469 58.785156 18.808594 59.023438 18.9375 59.339844 L 18.453125 59.5 C 18.414062 59.410156 18.367188 59.320312 18.300781 59.242188 C 18.242188 59.15625 18.167969 59.085938 18.074219 59.023438 C 17.980469 58.960938 17.871094 58.910156 17.75 58.875 C 17.625 58.828125 17.484375 58.808594 17.328125 58.808594 Z M 17.328125 58.808594 "/>
<path style=" stroke:none;fill-rule:nonzero;fill:rgb(0%,0%,0%);fill-opacity:1;" d="M 10.789062 59.671875 L 10.789062 59.359375 L 11.519531 59.359375 L 11.519531 57.164062 L 10.875 57.628906 L 10.875 57.28125 L 11.542969 56.816406 L 11.886719 56.816406 L 11.886719 59.359375 L 12.578125 59.359375 L 12.578125 59.671875 Z M 10.789062 59.671875 "/>
<path style=" stroke:none;fill-rule:nonzero;fill:rgb(0%,0%,0%);fill-opacity:1;" d="M 14.496094 59.023438 L 14.496094 59.671875 L 14.148438 59.671875 L 14.148438 59.023438 L 12.8125 59.023438 L 12.8125 58.742188 L 14.117188 56.816406 L 14.496094 56.816406 L 14.496094 58.742188 L 14.894531 58.742188 L 14.894531 59.023438 Z M 14.148438 57.230469 C 14.148438 57.238281 14.140625 57.25 14.128906 57.273438 C 14.121094 57.289062 14.109375 57.308594 14.09375 57.335938 C 14.078125 57.359375 14.066406 57.386719 14.050781 57.414062 C 14.035156 57.433594 14.027344 57.453125 14.019531 57.46875 L 13.285156 58.546875 C 13.277344 58.558594 13.265625 58.570312 13.253906 58.59375 C 13.246094 58.609375 13.234375 58.625 13.222656 58.644531 C 13.203125 58.664062 13.191406 58.679688 13.179688 58.699219 C 13.160156 58.714844 13.152344 58.730469 13.144531 58.742188 L 14.148438 58.742188 Z M 14.148438 57.230469 "/>
<path style="fill:none;stroke-width:0.0333333;stroke-linecap:butt;stroke-linejoin:miter;stroke:rgb(0%,0%,0%);stroke-opacity:1;stroke-miterlimit:10;" d="M 1.728555 1.66604 L 1.728555 2.253748 " transform="matrix(17.272727,0,0,17.307692,17.221259,17.270162)"/>
<path style="fill:none;stroke-width:0.0333333;stroke-linecap:butt;stroke-linejoin:miter;stroke:rgb(0%,0%,0%);stroke-opacity:1;stroke-miterlimit:10;" d="M 1.356989 1.188696 L 1.089904 1.028227 " transform="matrix(17.272727,0,0,17.307692,17.221259,17.270162)"/>
<path style="fill:none;stroke-width:0.0333333;stroke-linecap:butt;stroke-linejoin:miter;stroke:rgb(0%,0%,0%);stroke-opacity:1;stroke-miterlimit:10;" d="M 1.271051 1.331561 L 1.003967 1.171092 " transform="matrix(17.272727,0,0,17.307692,17.221259,17.270162)"/>
<path style="fill:none;stroke-width:0.0333333;stroke-linecap:butt;stroke-linejoin:miter;stroke:rgb(0%,0%,0%);stroke-opacity:1;stroke-miterlimit:10;" d="M 1.902918 1.455241 L 2.548354 1.254148 " transform="matrix(17.272727,0,0,17.307692,17.221259,17.270162)"/>
<path style="fill:none;stroke-width:0.0333333;stroke-linecap:butt;stroke-linejoin:miter;stroke:rgb(0%,0%,0%);stroke-opacity:1;stroke-miterlimit:10;" d="M 1.55261 2.604477 L 1.037211 2.907134 " transform="matrix(17.272727,0,0,17.307692,17.221259,17.270162)"/>
<path style="fill:none;stroke-width:0.0333333;stroke-linecap:butt;stroke-linejoin:miter;stroke:rgb(0%,0%,0%);stroke-opacity:1;stroke-miterlimit:10;" d="M 1.880303 2.634721 L 2.509908 2.826786 " transform="matrix(17.272727,0,0,17.307692,17.221259,17.270162)"/>
<path style="fill:none;stroke-width:0.0333333;stroke-linecap:butt;stroke-linejoin:miter;stroke:rgb(0%,0%,0%);stroke-opacity:1;stroke-miterlimit:10;" d="M 1.928925 2.47538 L 2.558757 2.667446 " transform="matrix(17.272727,0,0,17.307692,17.221259,17.270162)"/>
<path style="fill:none;stroke-width:0.0333333;stroke-linecap:butt;stroke-linejoin:miter;stroke:rgb(0%,0%,0%);stroke-opacity:1;stroke-miterlimit:10;" d="M 0.695722 1.098193 L 0.165397 1.411457 " transform="matrix(17.272727,0,0,17.307692,17.221259,17.270162)"/>
<path style="fill:none;stroke-width:0.0333333;stroke-linecap:butt;stroke-linejoin:miter;stroke:rgb(0%,0%,0%);stroke-opacity:1;stroke-miterlimit:10;" d="M 0.871668 0.746786 L 0.871668 0.15321 " transform="matrix(17.272727,0,0,17.307692,17.221259,17.270162)"/>
<path style="fill:none;stroke-width:0.0333333;stroke-linecap:butt;stroke-linejoin:miter;stroke:rgb(0%,0%,0%);stroke-opacity:1;stroke-miterlimit:10;" d="M 2.761388 1.416196 L 2.962211 1.694252 " transform="matrix(17.272727,0,0,17.307692,17.221259,17.270162)"/>
<path style="fill:none;stroke-width:0.0333333;stroke-linecap:butt;stroke-linejoin:miter;stroke:rgb(0%,0%,0%);stroke-opacity:1;stroke-miterlimit:10;" d="M 2.896401 1.318471 L 3.097449 1.596752 " transform="matrix(17.272727,0,0,17.307692,17.221259,17.270162)"/>
<path style="fill:none;stroke-width:0.0333333;stroke-linecap:butt;stroke-linejoin:miter;stroke:rgb(0%,0%,0%);stroke-opacity:1;stroke-miterlimit:10;" d="M 0.748416 2.834911 L 0.218317 2.521422 " transform="matrix(17.272727,0,0,17.307692,17.221259,17.270162)"/>
<path style="fill:none;stroke-width:0.0333333;stroke-linecap:butt;stroke-linejoin:miter;stroke:rgb(0%,0%,0%);stroke-opacity:1;stroke-miterlimit:10;" d="M 0.663609 2.978227 L 0.13351 2.664738 " transform="matrix(17.272727,0,0,17.307692,17.221259,17.270162)"/>
<path style="fill:none;stroke-width:0.0333333;stroke-linecap:butt;stroke-linejoin:miter;stroke:rgb(0%,0%,0%);stroke-opacity:1;stroke-miterlimit:10;" d="M 2.818605 2.634495 L 3.160093 2.171144 " transform="matrix(17.272727,0,0,17.307692,17.221259,17.270162)"/>
<path style="fill:none;stroke-width:0.0333333;stroke-linecap:butt;stroke-linejoin:miter;stroke:rgb(0%,0%,0%);stroke-opacity:1;stroke-miterlimit:10;" d="M 0.0000808713 1.662655 L 0.0000808713 2.241786 " transform="matrix(17.272727,0,0,17.307692,17.221259,17.270162)"/>
</g>
</svg>
