<?xml version="1.0" encoding="UTF-8"?>
<svg xmlns="http://www.w3.org/2000/svg" xmlns:xlink="http://www.w3.org/1999/xlink" width="175.2pt" height="68.8pt" viewBox="0 0 175.2 68.8" version="1.1">
<g id="surface1617">
<path style=" stroke:none;fill-rule:nonzero;fill:rgb(0%,0%,0%);fill-opacity:1;" d="M 33.144531 20.367188 C 33.144531 20.660156 33.101562 20.929688 33.015625 21.171875 C 32.925781 21.417969 32.800781 21.625 32.636719 21.796875 C 32.476562 21.96875 32.277344 22.101562 32.039062 22.195312 C 31.808594 22.285156 31.542969 22.332031 31.25 22.332031 C 30.929688 22.332031 30.652344 22.285156 30.414062 22.195312 C 30.183594 22.09375 29.988281 21.957031 29.832031 21.785156 C 29.671875 21.609375 29.550781 21.398438 29.472656 21.160156 C 29.390625 20.917969 29.355469 20.652344 29.355469 20.367188 C 29.355469 20.074219 29.390625 19.808594 29.472656 19.570312 C 29.558594 19.328125 29.679688 19.125 29.839844 18.957031 C 30.007812 18.792969 30.203125 18.664062 30.4375 18.570312 C 30.675781 18.480469 30.945312 18.429688 31.25 18.429688 C 31.550781 18.429688 31.824219 18.480469 32.0625 18.570312 C 32.300781 18.664062 32.496094 18.796875 32.65625 18.96875 C 32.8125 19.136719 32.933594 19.332031 33.015625 19.570312 C 33.101562 19.808594 33.144531 20.074219 33.144531 20.367188 Z M 32.613281 20.367188 C 32.613281 20.136719 32.582031 19.929688 32.527344 19.742188 C 32.46875 19.558594 32.378906 19.398438 32.265625 19.269531 C 32.152344 19.136719 32.007812 19.03125 31.832031 18.957031 C 31.664062 18.886719 31.472656 18.851562 31.25 18.851562 C 31.023438 18.851562 30.828125 18.886719 30.652344 18.957031 C 30.480469 19.03125 30.332031 19.136719 30.21875 19.269531 C 30.113281 19.398438 30.027344 19.558594 29.972656 19.742188 C 29.910156 19.929688 29.882812 20.136719 29.882812 20.367188 C 29.882812 20.597656 29.910156 20.804688 29.972656 21 C 30.027344 21.1875 30.113281 21.347656 30.230469 21.484375 C 30.34375 21.621094 30.484375 21.726562 30.652344 21.804688 C 30.828125 21.878906 31.023438 21.914062 31.25 21.914062 C 31.488281 21.914062 31.691406 21.878906 31.867188 21.804688 C 32.039062 21.726562 32.179688 21.621094 32.289062 21.484375 C 32.398438 21.339844 32.476562 21.175781 32.527344 20.988281 C 32.582031 20.796875 32.613281 20.589844 32.613281 20.367188 Z M 32.613281 20.367188 "/>
<path style=" stroke:none;fill-rule:nonzero;fill:rgb(0%,0%,0%);fill-opacity:1;" d="M 101.902344 32.867188 C 101.683594 32.867188 101.492188 32.90625 101.328125 32.976562 C 101.160156 33.046875 101.019531 33.152344 100.90625 33.289062 C 100.796875 33.417969 100.710938 33.574219 100.65625 33.761719 C 100.597656 33.949219 100.570312 34.15625 100.570312 34.382812 C 100.570312 34.613281 100.597656 34.824219 100.65625 35.019531 C 100.71875 35.207031 100.808594 35.367188 100.925781 35.5 C 101.039062 35.640625 101.179688 35.746094 101.347656 35.824219 C 101.523438 35.898438 101.710938 35.933594 101.921875 35.933594 C 102.074219 35.933594 102.207031 35.914062 102.324219 35.878906 C 102.445312 35.835938 102.554688 35.777344 102.660156 35.707031 C 102.757812 35.636719 102.847656 35.554688 102.917969 35.457031 C 102.996094 35.367188 103.066406 35.261719 103.125 35.136719 L 103.546875 35.351562 C 103.480469 35.496094 103.398438 35.628906 103.296875 35.75 C 103.195312 35.871094 103.074219 35.980469 102.941406 36.070312 C 102.800781 36.15625 102.648438 36.226562 102.476562 36.277344 C 102.300781 36.324219 102.109375 36.351562 101.902344 36.351562 C 101.589844 36.351562 101.320312 36.304688 101.089844 36.210938 C 100.855469 36.113281 100.660156 35.976562 100.503906 35.804688 C 100.351562 35.625 100.234375 35.414062 100.15625 35.179688 C 100.078125 34.9375 100.039062 34.671875 100.039062 34.382812 C 100.039062 34.089844 100.078125 33.824219 100.15625 33.589844 C 100.246094 33.347656 100.367188 33.140625 100.527344 32.976562 C 100.683594 32.8125 100.878906 32.683594 101.109375 32.589844 C 101.339844 32.496094 101.601562 32.449219 101.902344 32.449219 C 102.304688 32.449219 102.640625 32.53125 102.90625 32.683594 C 103.179688 32.84375 103.382812 33.082031 103.515625 33.394531 L 103.027344 33.554688 C 102.988281 33.464844 102.941406 33.378906 102.875 33.296875 C 102.816406 33.210938 102.738281 33.140625 102.648438 33.082031 C 102.554688 33.019531 102.445312 32.96875 102.324219 32.933594 C 102.199219 32.890625 102.058594 32.867188 101.902344 32.867188 Z M 101.902344 32.867188 "/>
<path style=" stroke:none;fill-rule:nonzero;fill:rgb(0%,0%,0%);fill-opacity:1;" d="M 58.582031 47.765625 C 58.367188 47.765625 58.175781 47.800781 58.007812 47.871094 C 57.839844 47.945312 57.699219 48.050781 57.585938 48.183594 C 57.480469 48.3125 57.394531 48.472656 57.339844 48.65625 C 57.277344 48.84375 57.25 49.050781 57.25 49.28125 C 57.25 49.511719 57.277344 49.722656 57.339844 49.914062 C 57.402344 50.101562 57.492188 50.265625 57.609375 50.398438 C 57.722656 50.535156 57.863281 50.644531 58.03125 50.722656 C 58.203125 50.792969 58.394531 50.828125 58.605469 50.828125 C 58.757812 50.828125 58.890625 50.8125 59.003906 50.773438 C 59.128906 50.730469 59.238281 50.675781 59.339844 50.601562 C 59.441406 50.53125 59.527344 50.449219 59.601562 50.355469 C 59.679688 50.265625 59.746094 50.15625 59.808594 50.03125 L 60.230469 50.25 C 60.164062 50.394531 60.082031 50.523438 59.980469 50.644531 C 59.878906 50.769531 59.757812 50.878906 59.621094 50.96875 C 59.484375 51.054688 59.332031 51.125 59.15625 51.171875 C 58.984375 51.222656 58.792969 51.246094 58.582031 51.246094 C 58.273438 51.246094 58 51.199219 57.769531 51.109375 C 57.539062 51.007812 57.34375 50.871094 57.1875 50.699219 C 57.035156 50.523438 56.917969 50.3125 56.839844 50.078125 C 56.757812 49.835938 56.722656 49.566406 56.722656 49.28125 C 56.722656 48.988281 56.757812 48.722656 56.839844 48.484375 C 56.925781 48.242188 57.046875 48.039062 57.207031 47.871094 C 57.363281 47.707031 57.558594 47.578125 57.792969 47.484375 C 58.023438 47.394531 58.285156 47.34375 58.582031 47.34375 C 58.988281 47.34375 59.324219 47.425781 59.589844 47.582031 C 59.863281 47.742188 60.066406 47.976562 60.195312 48.292969 L 59.710938 48.453125 C 59.671875 48.363281 59.621094 48.277344 59.558594 48.195312 C 59.5 48.109375 59.421875 48.039062 59.332031 47.980469 C 59.234375 47.914062 59.128906 47.867188 59.003906 47.828125 C 58.882812 47.785156 58.742188 47.765625 58.582031 47.765625 Z M 58.582031 47.765625 "/>
<path style=" stroke:none;fill-rule:nonzero;fill:rgb(0%,0%,0%);fill-opacity:1;" d="M 60.371094 19.488281 C 60.371094 19.785156 60.328125 20.054688 60.238281 20.296875 C 60.152344 20.539062 60.027344 20.746094 59.859375 20.917969 C 59.703125 21.089844 59.503906 21.226562 59.265625 21.316406 C 59.03125 21.410156 58.769531 21.457031 58.476562 21.457031 C 58.15625 21.457031 57.878906 21.410156 57.640625 21.316406 C 57.410156 21.21875 57.214844 21.082031 57.054688 20.910156 C 56.898438 20.730469 56.777344 20.523438 56.699219 20.285156 C 56.617188 20.042969 56.578125 19.777344 56.578125 19.488281 C 56.578125 19.195312 56.617188 18.929688 56.699219 18.695312 C 56.785156 18.453125 56.90625 18.25 57.066406 18.082031 C 57.234375 17.917969 57.429688 17.789062 57.664062 17.695312 C 57.902344 17.601562 58.171875 17.554688 58.476562 17.554688 C 58.777344 17.554688 59.050781 17.601562 59.289062 17.695312 C 59.527344 17.789062 59.722656 17.921875 59.882812 18.09375 C 60.039062 18.257812 60.160156 18.457031 60.238281 18.695312 C 60.328125 18.929688 60.371094 19.195312 60.371094 19.488281 Z M 59.839844 19.488281 C 59.839844 19.261719 59.808594 19.054688 59.753906 18.867188 C 59.691406 18.679688 59.605469 18.523438 59.492188 18.394531 C 59.375 18.257812 59.234375 18.152344 59.058594 18.082031 C 58.890625 18.011719 58.695312 17.972656 58.476562 17.972656 C 58.25 17.972656 58.054688 18.011719 57.878906 18.082031 C 57.707031 18.152344 57.558594 18.257812 57.445312 18.394531 C 57.339844 18.523438 57.253906 18.679688 57.199219 18.867188 C 57.136719 19.054688 57.109375 19.261719 57.109375 19.488281 C 57.109375 19.722656 57.136719 19.929688 57.199219 20.125 C 57.253906 20.3125 57.339844 20.472656 57.457031 20.609375 C 57.570312 20.746094 57.710938 20.851562 57.878906 20.929688 C 58.054688 21.003906 58.25 21.039062 58.476562 21.039062 C 58.714844 21.039062 58.917969 21.003906 59.09375 20.929688 C 59.265625 20.851562 59.40625 20.746094 59.515625 20.609375 C 59.621094 20.464844 59.703125 20.300781 59.753906 20.113281 C 59.808594 19.917969 59.839844 19.710938 59.839844 19.488281 Z M 59.839844 19.488281 "/>
<path style=" stroke:none;fill-rule:nonzero;fill:rgb(0%,0%,0%);fill-opacity:1;" d="M 116.425781 34.355469 C 116.425781 34.675781 116.378906 34.953125 116.285156 35.195312 C 116.191406 35.433594 116.0625 35.632812 115.898438 35.796875 C 115.730469 35.964844 115.53125 36.085938 115.300781 36.171875 C 115.078125 36.253906 114.835938 36.292969 114.574219 36.292969 L 113.148438 36.292969 L 113.148438 32.507812 L 114.414062 32.507812 C 114.699219 32.507812 114.96875 32.546875 115.214844 32.617188 C 115.464844 32.6875 115.683594 32.796875 115.863281 32.949219 C 116.042969 33.097656 116.179688 33.292969 116.277344 33.527344 C 116.375 33.761719 116.425781 34.035156 116.425781 34.355469 Z M 115.90625 34.355469 C 115.90625 34.097656 115.871094 33.882812 115.800781 33.703125 C 115.726562 33.523438 115.621094 33.375 115.484375 33.261719 C 115.355469 33.140625 115.195312 33.054688 115.007812 33.003906 C 114.820312 32.945312 114.621094 32.917969 114.402344 32.917969 L 113.667969 32.917969 L 113.667969 35.882812 L 114.511719 35.882812 C 114.710938 35.882812 114.894531 35.851562 115.0625 35.785156 C 115.238281 35.722656 115.382812 35.625 115.507812 35.496094 C 115.636719 35.367188 115.734375 35.210938 115.800781 35.023438 C 115.871094 34.828125 115.90625 34.609375 115.90625 34.355469 Z M 115.90625 34.355469 "/>
<path style=" stroke:none;fill-rule:nonzero;fill:rgb(0%,0%,0%);fill-opacity:1;" d="M 133.753906 17.15625 C 133.753906 17.472656 133.703125 17.753906 133.613281 17.996094 C 133.519531 18.230469 133.386719 18.433594 133.222656 18.597656 C 133.054688 18.765625 132.859375 18.886719 132.628906 18.972656 C 132.402344 19.054688 132.160156 19.09375 131.902344 19.09375 L 130.472656 19.09375 L 130.472656 15.308594 L 131.738281 15.308594 C 132.027344 15.308594 132.292969 15.34375 132.539062 15.414062 C 132.792969 15.488281 133.007812 15.597656 133.191406 15.75 C 133.371094 15.898438 133.507812 16.09375 133.601562 16.328125 C 133.703125 16.558594 133.753906 16.835938 133.753906 17.15625 Z M 133.234375 17.15625 C 133.234375 16.898438 133.195312 16.679688 133.125 16.5 C 133.050781 16.324219 132.945312 16.175781 132.8125 16.058594 C 132.679688 15.941406 132.523438 15.855469 132.335938 15.800781 C 132.144531 15.746094 131.945312 15.714844 131.730469 15.714844 L 130.992188 15.714844 L 130.992188 18.683594 L 131.835938 18.683594 C 132.039062 18.683594 132.222656 18.652344 132.390625 18.585938 C 132.5625 18.523438 132.707031 18.425781 132.832031 18.296875 C 132.964844 18.167969 133.0625 18.011719 133.125 17.824219 C 133.195312 17.628906 133.234375 17.410156 133.234375 17.15625 Z M 133.234375 17.15625 "/>
<path style=" stroke:none;fill-rule:nonzero;fill:rgb(0%,0%,0%);fill-opacity:1;" d="M 133.753906 51.558594 C 133.753906 51.875 133.703125 52.152344 133.613281 52.394531 C 133.519531 52.632812 133.386719 52.832031 133.222656 52.996094 C 133.054688 53.164062 132.859375 53.289062 132.628906 53.375 C 132.402344 53.453125 132.160156 53.492188 131.902344 53.492188 L 130.472656 53.492188 L 130.472656 49.707031 L 131.738281 49.707031 C 132.027344 49.707031 132.292969 49.746094 132.539062 49.816406 C 132.792969 49.886719 133.007812 50 133.191406 50.148438 C 133.371094 50.300781 133.507812 50.492188 133.601562 50.730469 C 133.703125 50.960938 133.753906 51.234375 133.753906 51.558594 Z M 133.234375 51.558594 C 133.234375 51.300781 133.195312 51.082031 133.125 50.902344 C 133.050781 50.722656 132.945312 50.574219 132.8125 50.460938 C 132.679688 50.339844 132.523438 50.253906 132.335938 50.203125 C 132.144531 50.144531 131.945312 50.117188 131.730469 50.117188 L 130.992188 50.117188 L 130.992188 53.082031 L 131.835938 53.082031 C 132.039062 53.082031 132.222656 53.050781 132.390625 52.988281 C 132.5625 52.921875 132.707031 52.824219 132.832031 52.695312 C 132.964844 52.566406 133.0625 52.410156 133.125 52.222656 C 133.195312 52.03125 133.234375 51.808594 133.234375 51.558594 Z M 133.234375 51.558594 "/>
<path style=" stroke:none;fill-rule:nonzero;fill:rgb(0%,0%,0%);fill-opacity:1;" d="M 160 19.488281 C 160 19.785156 159.957031 20.054688 159.871094 20.296875 C 159.78125 20.539062 159.65625 20.746094 159.492188 20.917969 C 159.332031 21.089844 159.132812 21.226562 158.894531 21.316406 C 158.664062 21.410156 158.398438 21.457031 158.105469 21.457031 C 157.785156 21.457031 157.507812 21.410156 157.269531 21.316406 C 157.039062 21.21875 156.84375 21.082031 156.6875 20.910156 C 156.527344 20.730469 156.40625 20.523438 156.328125 20.285156 C 156.246094 20.042969 156.210938 19.777344 156.210938 19.488281 C 156.210938 19.195312 156.246094 18.929688 156.328125 18.695312 C 156.414062 18.453125 156.539062 18.25 156.695312 18.082031 C 156.863281 17.917969 157.058594 17.789062 157.292969 17.695312 C 157.53125 17.601562 157.800781 17.554688 158.105469 17.554688 C 158.40625 17.554688 158.679688 17.601562 158.917969 17.695312 C 159.15625 17.789062 159.351562 17.921875 159.511719 18.09375 C 159.667969 18.257812 159.789062 18.457031 159.871094 18.695312 C 159.957031 18.929688 160 19.195312 160 19.488281 Z M 159.46875 19.488281 C 159.46875 19.261719 159.4375 19.054688 159.382812 18.867188 C 159.324219 18.679688 159.234375 18.523438 159.121094 18.394531 C 159.007812 18.257812 158.863281 18.152344 158.6875 18.082031 C 158.523438 18.011719 158.328125 17.972656 158.105469 17.972656 C 157.878906 17.972656 157.683594 18.011719 157.507812 18.082031 C 157.335938 18.152344 157.191406 18.257812 157.074219 18.394531 C 156.96875 18.523438 156.882812 18.679688 156.828125 18.867188 C 156.765625 19.054688 156.742188 19.261719 156.742188 19.488281 C 156.742188 19.722656 156.765625 19.929688 156.828125 20.125 C 156.882812 20.3125 156.96875 20.472656 157.085938 20.609375 C 157.199219 20.746094 157.339844 20.851562 157.507812 20.929688 C 157.683594 21.003906 157.878906 21.039062 158.105469 21.039062 C 158.34375 21.039062 158.546875 21.003906 158.722656 20.929688 C 158.894531 20.851562 159.035156 20.746094 159.144531 20.609375 C 159.253906 20.464844 159.332031 20.300781 159.382812 20.113281 C 159.4375 19.917969 159.46875 19.710938 159.46875 19.488281 Z M 159.46875 19.488281 "/>
<path style=" stroke:none;fill-rule:nonzero;fill:rgb(0%,0%,0%);fill-opacity:1;" d="M 159.746094 49.253906 C 159.746094 49.570312 159.695312 49.851562 159.605469 50.09375 C 159.507812 50.328125 159.378906 50.53125 159.214844 50.695312 C 159.046875 50.859375 158.847656 50.984375 158.617188 51.070312 C 158.394531 51.152344 158.152344 51.1875 157.894531 51.1875 L 156.464844 51.1875 L 156.464844 47.40625 L 157.730469 47.40625 C 158.019531 47.40625 158.285156 47.441406 158.53125 47.511719 C 158.785156 47.585938 159 47.695312 159.183594 47.84375 C 159.359375 47.996094 159.5 48.191406 159.59375 48.425781 C 159.695312 48.65625 159.746094 48.929688 159.746094 49.253906 Z M 159.226562 49.253906 C 159.226562 48.996094 159.1875 48.777344 159.117188 48.597656 C 159.042969 48.421875 158.9375 48.273438 158.804688 48.15625 C 158.671875 48.035156 158.511719 47.949219 158.328125 47.898438 C 158.136719 47.84375 157.9375 47.8125 157.71875 47.8125 L 156.984375 47.8125 L 156.984375 50.78125 L 157.828125 50.78125 C 158.027344 50.78125 158.214844 50.75 158.378906 50.683594 C 158.554688 50.617188 158.699219 50.523438 158.824219 50.394531 C 158.953125 50.265625 159.050781 50.109375 159.117188 49.921875 C 159.1875 49.726562 159.226562 49.507812 159.226562 49.253906 Z M 159.226562 49.253906 "/>
<path style="fill:none;stroke-width:0.0333333;stroke-linecap:butt;stroke-linejoin:miter;stroke:rgb(0%,0%,0%);stroke-opacity:1;stroke-miterlimit:10;" d="M 0.63446 0.311798 L -0.00989544 0.780093 " transform="matrix(17.325949,0,0,17.2,17.233948,17.199582)"/>
<path style="fill:none;stroke-width:0.0333333;stroke-linecap:butt;stroke-linejoin:miter;stroke:rgb(0%,0%,0%);stroke-opacity:1;stroke-miterlimit:10;" d="M -0.00380811 0.761471 L 0.312733 1.735535 " transform="matrix(17.325949,0,0,17.2,17.233948,17.199582)"/>
<path style="fill:none;stroke-width:0.0333333;stroke-linecap:butt;stroke-linejoin:miter;stroke:rgb(0%,0%,0%);stroke-opacity:1;stroke-miterlimit:10;" d="M 0.192114 0.825288 L 0.433803 1.568838 " transform="matrix(17.325949,0,0,17.2,17.233948,17.199582)"/>
<path style="fill:none;stroke-width:0.0333333;stroke-linecap:butt;stroke-linejoin:miter;stroke:rgb(0%,0%,0%);stroke-opacity:1;stroke-miterlimit:10;" d="M 0.296951 1.723952 L 1.3212 1.723952 " transform="matrix(17.325949,0,0,17.2,17.233948,17.199582)"/>
<path style="fill:none;stroke-width:0.0333333;stroke-linecap:butt;stroke-linejoin:miter;stroke:rgb(0%,0%,0%);stroke-opacity:1;stroke-miterlimit:10;" d="M 1.305418 1.735535 L 1.621734 0.761471 " transform="matrix(17.325949,0,0,17.2,17.233948,17.199582)"/>
<path style="fill:none;stroke-width:0.0333333;stroke-linecap:butt;stroke-linejoin:miter;stroke:rgb(0%,0%,0%);stroke-opacity:1;stroke-miterlimit:10;" d="M 1.184123 1.568838 L 1.425812 0.825288 " transform="matrix(17.325949,0,0,17.2,17.233948,17.199582)"/>
<path style="fill:none;stroke-width:0.0333333;stroke-linecap:butt;stroke-linejoin:miter;stroke:rgb(0%,0%,0%);stroke-opacity:1;stroke-miterlimit:10;" d="M 0.983466 0.311798 L 1.627821 0.780093 " transform="matrix(17.325949,0,0,17.2,17.233948,17.199582)"/>
<path style="fill:none;stroke-width:0.0333333;stroke-linecap:butt;stroke-linejoin:miter;stroke:rgb(0%,0%,0%);stroke-opacity:1;stroke-miterlimit:10;" d="M 2.870764 0.999933 L 3.880359 0.999933 " transform="matrix(17.325949,0,0,17.2,17.233948,17.199582)"/>
<path style="fill:none;stroke-width:0.0333333;stroke-linecap:butt;stroke-linejoin:miter;stroke:rgb(0%,0%,0%);stroke-opacity:1;stroke-miterlimit:10;" d="M 3.880359 0.999933 L 4.735966 0.999933 " transform="matrix(17.325949,0,0,17.2,17.233948,17.199582)"/>
<path style="fill:none;stroke-width:0.0333333;stroke-linecap:butt;stroke-linejoin:miter;stroke:rgb(0%,0%,0%);stroke-opacity:1;stroke-miterlimit:10;" d="M 3.880359 1.16663 L 4.735966 1.16663 " transform="matrix(17.325949,0,0,17.2,17.233948,17.199582)"/>
<path style="fill:none;stroke-width:0.0333333;stroke-linecap:butt;stroke-linejoin:miter;stroke:rgb(0%,0%,0%);stroke-opacity:1;stroke-miterlimit:10;" d="M 3.880359 0.833236 L 4.735966 0.833236 " transform="matrix(17.325949,0,0,17.2,17.233948,17.199582)"/>
<path style="fill:none;stroke-width:0.0333333;stroke-linecap:butt;stroke-linejoin:miter;stroke:rgb(0%,0%,0%);stroke-opacity:1;stroke-miterlimit:10;" d="M 2.885418 0.991758 L 2.484331 1.686025 " transform="matrix(17.325949,0,0,17.2,17.233948,17.199582)"/>
<path style="fill:none;stroke-width:0.0333333;stroke-linecap:butt;stroke-linejoin:miter;stroke:rgb(0%,0%,0%);stroke-opacity:1;stroke-miterlimit:10;" d="M 2.976728 0.999933 L 2.558506 0.276142 " transform="matrix(17.325949,0,0,17.2,17.233948,17.199582)"/>
<path style="fill:none;stroke-width:0.0333333;stroke-linecap:butt;stroke-linejoin:miter;stroke:rgb(0%,0%,0%);stroke-opacity:1;stroke-miterlimit:10;" d="M 2.832436 1.083282 L 2.41444 0.35949 " transform="matrix(17.325949,0,0,17.2,17.233948,17.199582)"/>
<path style="fill:none;stroke-width:0.0333333;stroke-linecap:butt;stroke-linejoin:miter;stroke:rgb(0%,0%,0%);stroke-opacity:1;stroke-miterlimit:10;" d="M 6.630704 0.999933 L 5.768558 0.999933 " transform="matrix(17.325949,0,0,17.2,17.233948,17.199582)"/>
<path style="fill:none;stroke-width:0.0333333;stroke-linecap:butt;stroke-linejoin:miter;stroke:rgb(0%,0%,0%);stroke-opacity:1;stroke-miterlimit:10;" d="M 6.630704 0.999933 L 6.630704 0.153276 " transform="matrix(17.325949,0,0,17.2,17.233948,17.199582)"/>
<path style="fill:none;stroke-width:0.0333333;stroke-linecap:butt;stroke-linejoin:miter;stroke:rgb(0%,0%,0%);stroke-opacity:1;stroke-miterlimit:10;" d="M 6.630704 0.999933 L 6.630704 1.846818 " transform="matrix(17.325949,0,0,17.2,17.233948,17.199582)"/>
<path style="fill:none;stroke-width:0.0333333;stroke-linecap:butt;stroke-linejoin:miter;stroke:rgb(0%,0%,0%);stroke-opacity:1;stroke-miterlimit:10;" d="M 6.630704 0.999933 L 7.640299 0.999933 " transform="matrix(17.325949,0,0,17.2,17.233948,17.199582)"/>
<path style="fill:none;stroke-width:0.0333333;stroke-linecap:butt;stroke-linejoin:miter;stroke:rgb(0%,0%,0%);stroke-opacity:1;stroke-miterlimit:10;" d="M 7.678852 1.083282 L 8.096623 0.35949 " transform="matrix(17.325949,0,0,17.2,17.233948,17.199582)"/>
<path style="fill:none;stroke-width:0.0333333;stroke-linecap:butt;stroke-linejoin:miter;stroke:rgb(0%,0%,0%);stroke-opacity:1;stroke-miterlimit:10;" d="M 7.534334 0.999933 L 7.952331 0.276142 " transform="matrix(17.325949,0,0,17.2,17.233948,17.199582)"/>
<path style="fill:none;stroke-width:0.0333333;stroke-linecap:butt;stroke-linejoin:miter;stroke:rgb(0%,0%,0%);stroke-opacity:1;stroke-miterlimit:10;" d="M 7.625869 0.991758 L 8.029662 1.691249 " transform="matrix(17.325949,0,0,17.2,17.233948,17.199582)"/>
</g>
</svg>
