<?xml version="1.0" encoding="UTF-8"?>
<svg xmlns="http://www.w3.org/2000/svg" xmlns:xlink="http://www.w3.org/1999/xlink" width="85.6pt" height="64pt" viewBox="0 0 85.6 64" version="1.1">
<g id="surface1782">
<path style=" stroke:none;fill-rule:nonzero;fill:rgb(0%,0%,0%);fill-opacity:1;" d="M 26.484375 48.90625 L 24.445312 45.671875 C 24.453125 45.757812 24.457031 45.847656 24.457031 45.933594 C 24.464844 46.003906 24.46875 46.082031 24.46875 46.167969 C 24.472656 46.25 24.480469 46.320312 24.480469 46.382812 L 24.480469 48.90625 L 24.015625 48.90625 L 24.015625 45.113281 L 24.621094 45.113281 L 26.667969 48.367188 C 26.667969 48.367188 26.664062 48.277344 26.660156 48.097656 C 26.648438 48.027344 26.640625 47.945312 26.636719 47.859375 C 26.636719 47.769531 26.636719 47.683594 26.636719 47.601562 L 26.636719 45.113281 L 27.101562 45.113281 L 27.101562 48.90625 Z M 26.484375 48.90625 "/>
<path style=" stroke:none;fill-rule:nonzero;fill:rgb(0%,0%,0%);fill-opacity:1;" d="M 69.613281 33.945312 L 67.574219 30.710938 C 67.578125 30.796875 67.585938 30.882812 67.585938 30.96875 C 67.589844 31.042969 67.59375 31.121094 67.59375 31.207031 C 67.601562 31.289062 67.605469 31.359375 67.605469 31.421875 L 67.605469 33.945312 L 67.140625 33.945312 L 67.140625 30.152344 L 67.746094 30.152344 L 69.796875 33.40625 C 69.796875 33.40625 69.789062 33.316406 69.785156 33.136719 C 69.777344 33.066406 69.769531 32.984375 69.761719 32.898438 C 69.761719 32.808594 69.761719 32.722656 69.761719 32.640625 L 69.761719 30.152344 L 70.226562 30.152344 L 70.226562 33.945312 Z M 69.613281 33.945312 "/>
<path style="fill:none;stroke-width:0.0333333;stroke-linecap:butt;stroke-linejoin:miter;stroke:rgb(0%,0%,0%);stroke-opacity:1;stroke-miterlimit:10;" d="M 1.50862 -0.00009884 L 0.489395 0.00126053 " transform="matrix(17.258065,0,0,17.241379,16.913364,17.126704)"/>
<path style="fill:none;stroke-width:0.0333333;stroke-linecap:butt;stroke-linejoin:miter;stroke:rgb(0%,0%,0%);stroke-opacity:1;stroke-miterlimit:10;" d="M 1.494134 -0.00825509 L 2.000011 0.86537 " transform="matrix(17.258065,0,0,17.241379,16.913364,17.126704)"/>
<path style="fill:none;stroke-width:0.0333333;stroke-linecap:butt;stroke-linejoin:miter;stroke:rgb(0%,0%,0%);stroke-opacity:1;stroke-miterlimit:10;" d="M 1.398164 0.158495 L 1.807393 0.865823 " transform="matrix(17.258065,0,0,17.241379,16.913364,17.126704)"/>
<path style="fill:none;stroke-width:0.0333333;stroke-linecap:butt;stroke-linejoin:miter;stroke:rgb(0%,0%,0%);stroke-opacity:1;stroke-miterlimit:10;" d="M 0.503655 -0.00712228 L -0.0049391 0.876245 " transform="matrix(17.258065,0,0,17.241379,16.913364,17.126704)"/>
<path style="fill:none;stroke-width:0.0333333;stroke-linecap:butt;stroke-linejoin:miter;stroke:rgb(0%,0%,0%);stroke-opacity:1;stroke-miterlimit:10;" d="M 0.600077 0.159401 L 0.187679 0.876018 " transform="matrix(17.258065,0,0,17.241379,16.913364,17.126704)"/>
<path style="fill:none;stroke-width:0.0333333;stroke-linecap:butt;stroke-linejoin:miter;stroke:rgb(0%,0%,0%);stroke-opacity:1;stroke-miterlimit:10;" d="M -0.0049391 0.859479 L 0.401121 1.560917 " transform="matrix(17.258065,0,0,17.241379,16.913364,17.126704)"/>
<path style="fill:none;stroke-width:0.0333333;stroke-linecap:butt;stroke-linejoin:miter;stroke:rgb(0%,0%,0%);stroke-opacity:1;stroke-miterlimit:10;" d="M 0.633802 1.733104 L 1.510657 1.732198 " transform="matrix(17.258065,0,0,17.241379,16.913364,17.126704)"/>
<path style="fill:none;stroke-width:0.0333333;stroke-linecap:butt;stroke-linejoin:miter;stroke:rgb(0%,0%,0%);stroke-opacity:1;stroke-miterlimit:10;" d="M 0.633802 1.566581 L 1.414234 1.565448 " transform="matrix(17.258065,0,0,17.241379,16.913364,17.126704)"/>
<path style="fill:none;stroke-width:0.0333333;stroke-linecap:butt;stroke-linejoin:miter;stroke:rgb(0%,0%,0%);stroke-opacity:1;stroke-miterlimit:10;" d="M 1.496171 1.740354 L 2.004764 0.857214 " transform="matrix(17.258065,0,0,17.241379,16.913364,17.126704)"/>
<path style="fill:none;stroke-width:0.0333333;stroke-linecap:butt;stroke-linejoin:miter;stroke:rgb(0%,0%,0%);stroke-opacity:1;stroke-miterlimit:10;" d="M 1.990278 0.86537 L 2.867133 0.86537 " transform="matrix(17.258065,0,0,17.241379,16.913364,17.126704)"/>
</g>
</svg>
