<?xml version="1.0" encoding="UTF-8"?>
<svg xmlns="http://www.w3.org/2000/svg" xmlns:xlink="http://www.w3.org/1999/xlink" width="94.4pt" height="60pt" viewBox="0 0 94.4 60" version="1.1">
<g id="surface32">
<path style=" stroke:none;fill-rule:nonzero;fill:rgb(0%,0%,47.058824%);fill-opacity:1;" d="M 17.84375 44.726562 L 16.171875 41.8125 C 16.1875 41.890625 16.199219 41.96875 16.207031 42.046875 C 16.210938 42.113281 16.21875 42.183594 16.21875 42.261719 C 16.222656 42.34375 16.226562 42.417969 16.226562 42.488281 L 16.226562 44.726562 L 15.511719 44.726562 L 15.511719 40.941406 L 16.433594 40.941406 L 18.113281 43.875 C 18.105469 43.804688 18.097656 43.726562 18.09375 43.640625 C 18.085938 43.570312 18.078125 43.488281 18.070312 43.402344 C 18.070312 43.316406 18.070312 43.226562 18.070312 43.132812 L 18.070312 40.941406 L 18.777344 40.941406 L 18.777344 44.726562 Z M 17.84375 44.726562 "/>
<path style=" stroke:none;fill-rule:nonzero;fill:rgb(0%,0%,47.058824%);fill-opacity:1;" d="M 47.3125 44.160156 C 47.464844 44.160156 47.59375 44.140625 47.703125 44.097656 C 47.808594 44.054688 47.902344 44 47.984375 43.933594 C 48.0625 43.863281 48.128906 43.785156 48.179688 43.699219 C 48.234375 43.613281 48.28125 43.527344 48.320312 43.441406 L 49.015625 43.699219 C 48.953125 43.835938 48.878906 43.972656 48.785156 44.105469 C 48.699219 44.234375 48.585938 44.351562 48.449219 44.449219 C 48.320312 44.554688 48.160156 44.632812 47.972656 44.699219 C 47.78125 44.753906 47.5625 44.785156 47.3125 44.785156 C 46.976562 44.785156 46.6875 44.734375 46.445312 44.644531 C 46.203125 44.542969 46.003906 44.40625 45.847656 44.234375 C 45.6875 44.058594 45.566406 43.847656 45.488281 43.613281 C 45.414062 43.371094 45.378906 43.105469 45.378906 42.816406 C 45.378906 42.523438 45.414062 42.257812 45.488281 42.019531 C 45.566406 41.777344 45.683594 41.574219 45.835938 41.40625 C 45.992188 41.242188 46.195312 41.113281 46.433594 41.019531 C 46.671875 40.929688 46.953125 40.882812 47.277344 40.882812 C 47.523438 40.882812 47.738281 40.910156 47.929688 40.96875 C 48.117188 41.019531 48.277344 41.089844 48.417969 41.183594 C 48.554688 41.277344 48.667969 41.386719 48.753906 41.515625 C 48.839844 41.644531 48.90625 41.785156 48.960938 41.933594 L 48.253906 42.128906 C 48.234375 42.050781 48.191406 41.976562 48.136719 41.902344 C 48.082031 41.824219 48.019531 41.757812 47.941406 41.699219 C 47.859375 41.640625 47.765625 41.597656 47.660156 41.558594 C 47.550781 41.523438 47.425781 41.503906 47.289062 41.503906 C 47.09375 41.503906 46.925781 41.535156 46.789062 41.601562 C 46.652344 41.667969 46.535156 41.757812 46.445312 41.871094 C 46.355469 41.984375 46.292969 42.121094 46.25 42.277344 C 46.203125 42.4375 46.183594 42.617188 46.183594 42.816406 C 46.183594 43.019531 46.203125 43.199219 46.25 43.363281 C 46.292969 43.523438 46.355469 43.664062 46.445312 43.785156 C 46.535156 43.898438 46.652344 43.992188 46.789062 44.0625 C 46.933594 44.128906 47.109375 44.160156 47.3125 44.160156 Z M 47.3125 44.160156 "/>
<path style=" stroke:none;fill-rule:nonzero;fill:rgb(0%,0%,47.058824%);fill-opacity:1;" d="M 49.59375 40.511719 L 51.914062 40.511719 L 51.914062 40.96875 L 49.59375 40.96875 "/>
<path style=" stroke:none;fill-rule:nonzero;fill:rgb(0%,0%,47.058824%);fill-opacity:1;" d="M 77.371094 44.160156 C 77.523438 44.160156 77.652344 44.140625 77.761719 44.097656 C 77.867188 44.054688 77.960938 44 78.042969 43.933594 C 78.121094 43.863281 78.1875 43.785156 78.238281 43.699219 C 78.292969 43.613281 78.339844 43.527344 78.378906 43.441406 L 79.074219 43.699219 C 79.011719 43.835938 78.9375 43.972656 78.84375 44.105469 C 78.757812 44.234375 78.644531 44.351562 78.507812 44.449219 C 78.378906 44.554688 78.21875 44.632812 78.03125 44.699219 C 77.839844 44.753906 77.621094 44.785156 77.371094 44.785156 C 77.035156 44.785156 76.746094 44.734375 76.503906 44.644531 C 76.261719 44.542969 76.0625 44.40625 75.90625 44.234375 C 75.746094 44.058594 75.625 43.847656 75.546875 43.613281 C 75.472656 43.371094 75.4375 43.105469 75.4375 42.816406 C 75.4375 42.523438 75.472656 42.257812 75.546875 42.019531 C 75.625 41.777344 75.742188 41.574219 75.894531 41.40625 C 76.050781 41.242188 76.253906 41.113281 76.492188 41.019531 C 76.730469 40.929688 77.011719 40.882812 77.335938 40.882812 C 77.582031 40.882812 77.796875 40.910156 77.988281 40.96875 C 78.175781 41.019531 78.335938 41.089844 78.476562 41.183594 C 78.613281 41.277344 78.726562 41.386719 78.8125 41.515625 C 78.898438 41.644531 78.964844 41.785156 79.019531 41.933594 L 78.3125 42.128906 C 78.292969 42.050781 78.25 41.976562 78.195312 41.902344 C 78.140625 41.824219 78.078125 41.757812 78 41.699219 C 77.917969 41.640625 77.824219 41.597656 77.714844 41.558594 C 77.609375 41.523438 77.484375 41.503906 77.347656 41.503906 C 77.152344 41.503906 76.984375 41.535156 76.847656 41.601562 C 76.710938 41.667969 76.59375 41.757812 76.503906 41.871094 C 76.414062 41.984375 76.351562 42.121094 76.308594 42.277344 C 76.261719 42.4375 76.242188 42.617188 76.242188 42.816406 C 76.242188 43.019531 76.261719 43.199219 76.308594 43.363281 C 76.351562 43.523438 76.414062 43.664062 76.503906 43.785156 C 76.59375 43.898438 76.710938 43.992188 76.847656 44.0625 C 76.992188 44.128906 77.167969 44.160156 77.371094 44.160156 Z M 77.371094 44.160156 "/>
<path style=" stroke:none;fill-rule:nonzero;fill:rgb(0%,0%,47.058824%);fill-opacity:1;" d="M 34.101562 17.015625 C 34.101562 17.308594 34.050781 17.578125 33.960938 17.820312 C 33.875 18.066406 33.746094 18.273438 33.582031 18.445312 C 33.414062 18.617188 33.210938 18.75 32.972656 18.839844 C 32.734375 18.933594 32.464844 18.980469 32.160156 18.980469 C 31.839844 18.980469 31.5625 18.933594 31.324219 18.839844 C 31.085938 18.742188 30.882812 18.605469 30.71875 18.433594 C 30.558594 18.253906 30.4375 18.046875 30.359375 17.808594 C 30.277344 17.566406 30.238281 17.300781 30.238281 17.015625 C 30.238281 16.722656 30.277344 16.453125 30.359375 16.21875 C 30.445312 15.976562 30.570312 15.773438 30.738281 15.605469 C 30.90625 15.441406 31.109375 15.3125 31.347656 15.21875 C 31.585938 15.125 31.859375 15.078125 32.171875 15.078125 C 32.480469 15.078125 32.757812 15.125 32.996094 15.21875 C 33.234375 15.3125 33.429688 15.445312 33.589844 15.617188 C 33.757812 15.78125 33.882812 15.980469 33.972656 16.21875 C 34.058594 16.453125 34.101562 16.722656 34.101562 17.015625 Z M 33.289062 17.015625 C 33.289062 16.816406 33.261719 16.632812 33.210938 16.476562 C 33.160156 16.320312 33.085938 16.183594 32.996094 16.066406 C 32.898438 15.953125 32.785156 15.863281 32.648438 15.796875 C 32.507812 15.734375 32.351562 15.703125 32.171875 15.703125 C 31.980469 15.703125 31.816406 15.734375 31.671875 15.796875 C 31.535156 15.863281 31.417969 15.953125 31.324219 16.066406 C 31.230469 16.183594 31.15625 16.320312 31.109375 16.476562 C 31.066406 16.632812 31.042969 16.816406 31.042969 17.015625 C 31.042969 17.214844 31.066406 17.398438 31.117188 17.5625 C 31.167969 17.71875 31.242188 17.859375 31.335938 17.980469 C 31.429688 18.097656 31.542969 18.191406 31.683594 18.261719 C 31.816406 18.324219 31.976562 18.359375 32.160156 18.359375 C 32.355469 18.359375 32.519531 18.324219 32.660156 18.261719 C 32.800781 18.191406 32.921875 18.097656 33.015625 17.980469 C 33.109375 17.859375 33.179688 17.71875 33.222656 17.550781 C 33.265625 17.386719 33.289062 17.207031 33.289062 17.015625 Z M 33.289062 17.015625 "/>
<path style=" stroke:none;fill-rule:nonzero;fill:rgb(0%,0%,47.058824%);fill-opacity:1;" d="M 64.15625 17.015625 C 64.15625 17.308594 64.109375 17.578125 64.015625 17.820312 C 63.929688 18.066406 63.800781 18.273438 63.636719 18.445312 C 63.46875 18.617188 63.269531 18.75 63.027344 18.839844 C 62.789062 18.933594 62.519531 18.980469 62.214844 18.980469 C 61.894531 18.980469 61.621094 18.933594 61.378906 18.839844 C 61.140625 18.742188 60.9375 18.605469 60.773438 18.433594 C 60.613281 18.253906 60.492188 18.046875 60.414062 17.808594 C 60.335938 17.566406 60.296875 17.300781 60.296875 17.015625 C 60.296875 16.722656 60.335938 16.453125 60.414062 16.21875 C 60.503906 15.976562 60.625 15.773438 60.796875 15.605469 C 60.960938 15.441406 61.164062 15.3125 61.402344 15.21875 C 61.640625 15.125 61.914062 15.078125 62.226562 15.078125 C 62.535156 15.078125 62.8125 15.125 63.050781 15.21875 C 63.289062 15.3125 63.488281 15.445312 63.648438 15.617188 C 63.8125 15.78125 63.941406 15.980469 64.027344 16.21875 C 64.113281 16.453125 64.15625 16.722656 64.15625 17.015625 Z M 63.34375 17.015625 C 63.34375 16.816406 63.316406 16.632812 63.269531 16.476562 C 63.214844 16.320312 63.144531 16.183594 63.050781 16.066406 C 62.957031 15.953125 62.839844 15.863281 62.703125 15.796875 C 62.566406 15.734375 62.40625 15.703125 62.226562 15.703125 C 62.035156 15.703125 61.871094 15.734375 61.726562 15.796875 C 61.589844 15.863281 61.472656 15.953125 61.378906 16.066406 C 61.285156 16.183594 61.210938 16.320312 61.164062 16.476562 C 61.121094 16.632812 61.097656 16.816406 61.097656 17.015625 C 61.097656 17.214844 61.121094 17.398438 61.175781 17.5625 C 61.222656 17.71875 61.296875 17.859375 61.390625 17.980469 C 61.484375 18.097656 61.601562 18.191406 61.738281 18.261719 C 61.875 18.324219 62.035156 18.359375 62.214844 18.359375 C 62.410156 18.359375 62.578125 18.324219 62.714844 18.261719 C 62.859375 18.191406 62.976562 18.097656 63.074219 17.980469 C 63.164062 17.859375 63.234375 17.71875 63.277344 17.550781 C 63.320312 17.386719 63.34375 17.207031 63.34375 17.015625 Z M 63.34375 17.015625 "/>
<path style="fill:none;stroke-width:0.06;stroke-linecap:butt;stroke-linejoin:miter;stroke:rgb(0%,0%,47.058824%);stroke-opacity:1;stroke-miterlimit:10;" d="M 0.169326 1.402093 L 0.881111 0.9913 " transform="matrix(17.352941,0,0,17.201835,17.143729,17.029858)"/>
<path style="fill:none;stroke-width:0.06;stroke-linecap:butt;stroke-linejoin:miter;stroke:rgb(0%,0%,47.058824%);stroke-opacity:1;stroke-miterlimit:10;" d="M 0.851172 0.9913 L 1.553052 1.396643 " transform="matrix(17.352941,0,0,17.201835,17.143729,17.029858)"/>
<path style="fill:none;stroke-width:0.06;stroke-linecap:butt;stroke-linejoin:miter;stroke:rgb(0%,0%,47.058824%);stroke-opacity:1;stroke-miterlimit:10;" d="M 0.949318 1.04807 L 0.949318 0.156768 " transform="matrix(17.352941,0,0,17.201835,17.143729,17.029858)"/>
<path style="fill:none;stroke-width:0.06;stroke-linecap:butt;stroke-linejoin:miter;stroke:rgb(0%,0%,47.058824%);stroke-opacity:1;stroke-miterlimit:10;" d="M 0.78274 1.04807 L 0.78274 0.156768 " transform="matrix(17.352941,0,0,17.201835,17.143729,17.029858)"/>
<path style="fill:none;stroke-width:0.06;stroke-linecap:butt;stroke-linejoin:miter;stroke:rgb(0%,0%,47.058824%);stroke-opacity:1;stroke-miterlimit:10;" d="M 2.075523 1.301723 L 2.613076 0.9913 " transform="matrix(17.352941,0,0,17.201835,17.143729,17.029858)"/>
<path style="fill:none;stroke-width:0.06;stroke-linecap:butt;stroke-linejoin:miter;stroke:rgb(0%,0%,47.058824%);stroke-opacity:1;stroke-miterlimit:10;" d="M 2.582912 0.9913 L 3.285242 1.396643 " transform="matrix(17.352941,0,0,17.201835,17.143729,17.029858)"/>
<path style="fill:none;stroke-width:0.06;stroke-linecap:butt;stroke-linejoin:miter;stroke:rgb(0%,0%,47.058824%);stroke-opacity:1;stroke-miterlimit:10;" d="M 2.681508 1.04807 L 2.681508 0.156768 " transform="matrix(17.352941,0,0,17.201835,17.143729,17.029858)"/>
<path style="fill:none;stroke-width:0.06;stroke-linecap:butt;stroke-linejoin:miter;stroke:rgb(0%,0%,47.058824%);stroke-opacity:1;stroke-miterlimit:10;" d="M 2.514705 1.04807 L 2.514705 0.156768 " transform="matrix(17.352941,0,0,17.201835,17.143729,17.029858)"/>
</g>
</svg>
