<?xml version="1.0" encoding="UTF-8"?>
<svg xmlns="http://www.w3.org/2000/svg" xmlns:xlink="http://www.w3.org/1999/xlink" width="94.4pt" height="60.8pt" viewBox="0 0 94.4 60.8" version="1.1">
<g id="surface702">
<path style=" stroke:none;fill-rule:nonzero;fill:rgb(0%,0%,0%);fill-opacity:1;" d="M 18.078125 45.445312 L 16.027344 42.203125 C 16.03125 42.292969 16.039062 42.378906 16.039062 42.464844 C 16.042969 42.535156 16.046875 42.613281 16.046875 42.703125 C 16.054688 42.78125 16.058594 42.851562 16.058594 42.917969 L 16.058594 45.445312 L 15.59375 45.445312 L 15.59375 41.644531 L 16.199219 41.644531 L 18.261719 44.902344 C 18.261719 44.902344 18.253906 44.816406 18.25 44.632812 C 18.242188 44.5625 18.234375 44.484375 18.230469 44.394531 C 18.230469 44.304688 18.230469 44.21875 18.230469 44.136719 L 18.230469 41.644531 L 18.695312 41.644531 L 18.695312 45.445312 Z M 18.078125 45.445312 "/>
<path style=" stroke:none;fill-rule:nonzero;fill:rgb(0%,0%,0%);fill-opacity:1;" d="M 47.304688 41.75 C 47.089844 41.75 46.894531 41.789062 46.730469 41.859375 C 46.5625 41.933594 46.421875 42.039062 46.308594 42.171875 C 46.199219 42.300781 46.117188 42.460938 46.058594 42.648438 C 46 42.835938 45.972656 43.042969 45.972656 43.273438 C 45.972656 43.503906 46 43.714844 46.058594 43.910156 C 46.125 44.097656 46.214844 44.261719 46.328125 44.394531 C 46.445312 44.535156 46.585938 44.640625 46.753906 44.71875 C 46.925781 44.792969 47.117188 44.828125 47.328125 44.828125 C 47.480469 44.828125 47.613281 44.8125 47.730469 44.773438 C 47.851562 44.730469 47.960938 44.675781 48.066406 44.601562 C 48.164062 44.53125 48.253906 44.449219 48.324219 44.351562 C 48.402344 44.261719 48.472656 44.152344 48.53125 44.027344 L 48.953125 44.246094 C 48.890625 44.390625 48.804688 44.523438 48.703125 44.644531 C 48.601562 44.769531 48.484375 44.875 48.347656 44.96875 C 48.207031 45.054688 48.054688 45.125 47.878906 45.171875 C 47.707031 45.222656 47.515625 45.25 47.304688 45.25 C 46.992188 45.25 46.722656 45.199219 46.492188 45.109375 C 46.257812 45.007812 46.0625 44.871094 45.90625 44.699219 C 45.753906 44.519531 45.636719 44.308594 45.558594 44.074219 C 45.476562 43.828125 45.441406 43.5625 45.441406 43.273438 C 45.441406 42.980469 45.476562 42.710938 45.558594 42.476562 C 45.644531 42.230469 45.769531 42.027344 45.929688 41.859375 C 46.085938 41.695312 46.28125 41.566406 46.515625 41.472656 C 46.746094 41.378906 47.007812 41.332031 47.304688 41.332031 C 47.710938 41.332031 48.046875 41.410156 48.3125 41.566406 C 48.589844 41.726562 48.792969 41.964844 48.921875 42.28125 L 48.433594 42.441406 C 48.394531 42.351562 48.347656 42.265625 48.28125 42.183594 C 48.222656 42.097656 48.144531 42.027344 48.054688 41.96875 C 47.960938 41.902344 47.851562 41.855469 47.730469 41.816406 C 47.605469 41.773438 47.464844 41.75 47.304688 41.75 Z M 47.304688 41.75 "/>
<path style=" stroke:none;fill-rule:nonzero;fill:rgb(0%,0%,0%);fill-opacity:1;" d="M 49.535156 40.960938 L 51.855469 40.960938 L 51.855469 41.421875 L 49.535156 41.421875 "/>
<path style=" stroke:none;fill-rule:nonzero;fill:rgb(0%,0%,0%);fill-opacity:1;" d="M 77.363281 41.496094 C 77.144531 41.496094 76.953125 41.535156 76.785156 41.605469 C 76.617188 41.679688 76.476562 41.785156 76.363281 41.917969 C 76.253906 42.046875 76.171875 42.207031 76.113281 42.394531 C 76.054688 42.582031 76.027344 42.789062 76.027344 43.019531 C 76.027344 43.253906 76.054688 43.460938 76.113281 43.65625 C 76.179688 43.847656 76.269531 44.007812 76.386719 44.144531 C 76.5 44.28125 76.640625 44.386719 76.808594 44.464844 C 76.980469 44.539062 77.171875 44.574219 77.382812 44.574219 C 77.535156 44.574219 77.667969 44.558594 77.785156 44.519531 C 77.90625 44.476562 78.019531 44.421875 78.121094 44.347656 C 78.222656 44.277344 78.308594 44.195312 78.382812 44.097656 C 78.460938 44.007812 78.527344 43.898438 78.585938 43.777344 L 79.011719 43.992188 C 78.945312 44.136719 78.859375 44.269531 78.761719 44.390625 C 78.65625 44.515625 78.539062 44.621094 78.402344 44.714844 C 78.265625 44.800781 78.109375 44.871094 77.9375 44.917969 C 77.761719 44.96875 77.570312 44.996094 77.363281 44.996094 C 77.050781 44.996094 76.777344 44.945312 76.546875 44.855469 C 76.316406 44.753906 76.121094 44.617188 75.960938 44.445312 C 75.8125 44.265625 75.695312 44.054688 75.617188 43.820312 C 75.535156 43.574219 75.496094 43.308594 75.496094 43.019531 C 75.496094 42.726562 75.535156 42.457031 75.617188 42.222656 C 75.703125 41.976562 75.824219 41.773438 75.984375 41.605469 C 76.140625 41.441406 76.335938 41.3125 76.570312 41.21875 C 76.800781 41.125 77.0625 41.078125 77.363281 41.078125 C 77.765625 41.078125 78.101562 41.15625 78.371094 41.3125 C 78.644531 41.472656 78.847656 41.710938 78.976562 42.027344 L 78.488281 42.1875 C 78.453125 42.097656 78.402344 42.011719 78.335938 41.929688 C 78.277344 41.84375 78.203125 41.773438 78.109375 41.714844 C 78.015625 41.648438 77.90625 41.601562 77.785156 41.5625 C 77.660156 41.519531 77.519531 41.496094 77.363281 41.496094 Z M 77.363281 41.496094 "/>
<path style=" stroke:none;fill-rule:nonzero;fill:rgb(0%,0%,0%);fill-opacity:1;" d="M 33.847656 17.492188 C 33.847656 17.789062 33.804688 18.0625 33.714844 18.304688 C 33.628906 18.550781 33.503906 18.757812 33.335938 18.929688 C 33.175781 19.101562 32.980469 19.238281 32.738281 19.328125 C 32.507812 19.421875 32.242188 19.46875 31.949219 19.46875 C 31.628906 19.46875 31.351562 19.421875 31.113281 19.328125 C 30.878906 19.230469 30.683594 19.089844 30.527344 18.917969 C 30.367188 18.742188 30.25 18.53125 30.167969 18.292969 C 30.089844 18.050781 30.050781 17.78125 30.050781 17.492188 C 30.050781 17.199219 30.089844 16.933594 30.167969 16.695312 C 30.257812 16.453125 30.378906 16.246094 30.539062 16.078125 C 30.703125 15.914062 30.902344 15.785156 31.136719 15.691406 C 31.375 15.597656 31.644531 15.550781 31.949219 15.550781 C 32.253906 15.550781 32.523438 15.597656 32.761719 15.691406 C 33 15.785156 33.199219 15.917969 33.359375 16.089844 C 33.515625 16.257812 33.636719 16.457031 33.714844 16.695312 C 33.804688 16.933594 33.847656 17.199219 33.847656 17.492188 Z M 33.316406 17.492188 C 33.316406 17.265625 33.285156 17.058594 33.226562 16.867188 C 33.167969 16.683594 33.082031 16.523438 32.96875 16.394531 C 32.851562 16.257812 32.707031 16.152344 32.535156 16.078125 C 32.367188 16.007812 32.171875 15.972656 31.949219 15.972656 C 31.722656 15.972656 31.527344 16.007812 31.351562 16.078125 C 31.179688 16.152344 31.03125 16.257812 30.917969 16.394531 C 30.808594 16.523438 30.726562 16.683594 30.667969 16.867188 C 30.609375 17.058594 30.582031 17.265625 30.582031 17.492188 C 30.582031 17.726562 30.609375 17.9375 30.667969 18.132812 C 30.726562 18.320312 30.8125 18.480469 30.929688 18.617188 C 31.042969 18.753906 31.183594 18.863281 31.351562 18.941406 C 31.527344 19.011719 31.722656 19.046875 31.949219 19.046875 C 32.1875 19.046875 32.394531 19.011719 32.566406 18.941406 C 32.738281 18.863281 32.882812 18.753906 32.988281 18.617188 C 33.097656 18.472656 33.175781 18.308594 33.226562 18.121094 C 33.285156 17.925781 33.316406 17.71875 33.316406 17.492188 Z M 33.316406 17.492188 "/>
<path style=" stroke:none;fill-rule:nonzero;fill:rgb(0%,0%,0%);fill-opacity:1;" d="M 63.902344 17.238281 C 63.902344 17.535156 63.859375 17.804688 63.773438 18.046875 C 63.683594 18.292969 63.558594 18.5 63.390625 18.671875 C 63.234375 18.847656 63.035156 18.980469 62.796875 19.074219 C 62.5625 19.164062 62.300781 19.214844 62.003906 19.214844 C 61.683594 19.214844 61.40625 19.164062 61.167969 19.074219 C 60.9375 18.972656 60.742188 18.835938 60.582031 18.664062 C 60.421875 18.484375 60.304688 18.273438 60.226562 18.035156 C 60.144531 17.792969 60.105469 17.527344 60.105469 17.238281 C 60.105469 16.945312 60.144531 16.675781 60.226562 16.4375 C 60.3125 16.195312 60.433594 15.992188 60.59375 15.824219 C 60.757812 15.660156 60.957031 15.527344 61.191406 15.433594 C 61.429688 15.34375 61.699219 15.292969 62.003906 15.292969 C 62.308594 15.292969 62.578125 15.34375 62.816406 15.433594 C 63.054688 15.527344 63.253906 15.660156 63.414062 15.835938 C 63.570312 16 63.691406 16.203125 63.773438 16.4375 C 63.859375 16.675781 63.902344 16.945312 63.902344 17.238281 Z M 63.371094 17.238281 C 63.371094 17.007812 63.339844 16.800781 63.285156 16.613281 C 63.222656 16.425781 63.136719 16.265625 63.023438 16.136719 C 62.90625 16 62.761719 15.894531 62.589844 15.824219 C 62.421875 15.753906 62.226562 15.714844 62.003906 15.714844 C 61.777344 15.714844 61.582031 15.753906 61.40625 15.824219 C 61.234375 15.894531 61.085938 16 60.972656 16.136719 C 60.867188 16.265625 60.78125 16.425781 60.722656 16.613281 C 60.664062 16.800781 60.636719 17.007812 60.636719 17.238281 C 60.636719 17.46875 60.664062 17.679688 60.722656 17.875 C 60.78125 18.0625 60.867188 18.226562 60.984375 18.359375 C 61.097656 18.496094 61.238281 18.605469 61.40625 18.683594 C 61.582031 18.757812 61.777344 18.792969 62.003906 18.792969 C 62.242188 18.792969 62.449219 18.757812 62.621094 18.683594 C 62.796875 18.605469 62.9375 18.496094 63.046875 18.359375 C 63.152344 18.21875 63.234375 18.050781 63.285156 17.863281 C 63.339844 17.667969 63.371094 17.460938 63.371094 17.238281 Z M 63.371094 17.238281 "/>
<path style="fill:none;stroke-width:0.0333333;stroke-linecap:butt;stroke-linejoin:miter;stroke:rgb(0%,0%,0%);stroke-opacity:1;stroke-miterlimit:10;" d="M 0.165648 1.424686 L 0.870005 1.009924 " transform="matrix(17.352941,0,0,17.272727,17.145048,17.255074)"/>
<path style="fill:none;stroke-width:0.0333333;stroke-linecap:butt;stroke-linejoin:miter;stroke:rgb(0%,0%,0%);stroke-opacity:1;stroke-miterlimit:10;" d="M 0.853347 1.01015 L 1.555002 1.407272 " transform="matrix(17.352941,0,0,17.272727,17.145048,17.255074)"/>
<path style="fill:none;stroke-width:0.0333333;stroke-linecap:butt;stroke-linejoin:miter;stroke:rgb(0%,0%,0%);stroke-opacity:1;stroke-miterlimit:10;" d="M 0.945415 1.062165 L 0.937987 0.172034 " transform="matrix(17.352941,0,0,17.272727,17.145048,17.255074)"/>
<path style="fill:none;stroke-width:0.0333333;stroke-linecap:butt;stroke-linejoin:miter;stroke:rgb(0%,0%,0%);stroke-opacity:1;stroke-miterlimit:10;" d="M 0.778612 1.063522 L 0.771183 0.173617 " transform="matrix(17.352941,0,0,17.272727,17.145048,17.255074)"/>
<path style="fill:none;stroke-width:0.0333333;stroke-linecap:butt;stroke-linejoin:miter;stroke:rgb(0%,0%,0%);stroke-opacity:1;stroke-miterlimit:10;" d="M 2.07162 1.307539 L 2.60197 0.994998 " transform="matrix(17.352941,0,0,17.272727,17.145048,17.255074)"/>
<path style="fill:none;stroke-width:0.0333333;stroke-linecap:butt;stroke-linejoin:miter;stroke:rgb(0%,0%,0%);stroke-opacity:1;stroke-miterlimit:10;" d="M 2.585312 0.995224 L 3.287192 1.392572 " transform="matrix(17.352941,0,0,17.272727,17.145048,17.255074)"/>
<path style="fill:none;stroke-width:0.0333333;stroke-linecap:butt;stroke-linejoin:miter;stroke:rgb(0%,0%,0%);stroke-opacity:1;stroke-miterlimit:10;" d="M 2.67738 1.047465 L 2.669727 0.157334 " transform="matrix(17.352941,0,0,17.272727,17.145048,17.255074)"/>
<path style="fill:none;stroke-width:0.0333333;stroke-linecap:butt;stroke-linejoin:miter;stroke:rgb(0%,0%,0%);stroke-opacity:1;stroke-miterlimit:10;" d="M 2.510802 1.048822 L 2.503148 0.158917 " transform="matrix(17.352941,0,0,17.272727,17.145048,17.255074)"/>
</g>
</svg>
