<?xml version="1.0" encoding="UTF-8"?>
<svg xmlns="http://www.w3.org/2000/svg" xmlns:xlink="http://www.w3.org/1999/xlink" width="52pt" height="34.4pt" viewBox="0 0 52 34.4" version="1.1">
<g id="surface337">
<path style=" stroke:none;fill-rule:nonzero;fill:rgb(0%,0%,0%);fill-opacity:1;" d="M 17.394531 15.792969 C 17.179688 15.792969 16.988281 15.832031 16.824219 15.902344 C 16.65625 15.976562 16.515625 16.082031 16.402344 16.21875 C 16.292969 16.347656 16.210938 16.507812 16.152344 16.695312 C 16.09375 16.882812 16.066406 17.09375 16.066406 17.324219 C 16.066406 17.554688 16.09375 17.765625 16.152344 17.960938 C 16.21875 18.152344 16.308594 18.3125 16.421875 18.449219 C 16.535156 18.585938 16.675781 18.695312 16.84375 18.773438 C 17.015625 18.847656 17.207031 18.882812 17.417969 18.882812 C 17.566406 18.882812 17.699219 18.867188 17.816406 18.828125 C 17.9375 18.785156 18.050781 18.726562 18.152344 18.65625 C 18.25 18.585938 18.339844 18.5 18.410156 18.40625 C 18.488281 18.3125 18.558594 18.207031 18.617188 18.082031 L 19.039062 18.296875 C 18.972656 18.445312 18.890625 18.578125 18.789062 18.699219 C 18.6875 18.824219 18.566406 18.933594 18.433594 19.023438 C 18.292969 19.109375 18.140625 19.179688 17.96875 19.230469 C 17.796875 19.277344 17.601562 19.304688 17.394531 19.304688 C 17.085938 19.304688 16.816406 19.257812 16.585938 19.164062 C 16.351562 19.0625 16.15625 18.925781 16 18.753906 C 15.851562 18.574219 15.734375 18.363281 15.65625 18.125 C 15.574219 17.878906 15.535156 17.613281 15.535156 17.324219 C 15.535156 17.027344 15.574219 16.757812 15.65625 16.519531 C 15.742188 16.277344 15.863281 16.070312 16.023438 15.902344 C 16.179688 15.738281 16.375 15.609375 16.605469 15.511719 C 16.835938 15.421875 17.097656 15.371094 17.394531 15.371094 C 17.796875 15.371094 18.132812 15.453125 18.398438 15.609375 C 18.671875 15.769531 18.875 16.007812 19.003906 16.324219 L 18.519531 16.488281 C 18.480469 16.394531 18.433594 16.308594 18.367188 16.226562 C 18.308594 16.140625 18.234375 16.070312 18.140625 16.011719 C 18.046875 15.945312 17.9375 15.898438 17.816406 15.859375 C 17.691406 15.816406 17.550781 15.792969 17.394531 15.792969 Z M 17.394531 15.792969 "/>
<path style=" stroke:none;fill-rule:nonzero;fill:rgb(0%,0%,0%);fill-opacity:1;" d="M 35.503906 19.246094 L 33.460938 15.996094 C 33.46875 16.082031 33.472656 16.167969 33.472656 16.253906 C 33.476562 16.328125 33.484375 16.40625 33.484375 16.492188 C 33.488281 16.574219 33.492188 16.644531 33.492188 16.710938 L 33.492188 19.246094 L 33.03125 19.246094 L 33.03125 15.429688 L 33.632812 15.429688 L 35.6875 18.703125 C 35.6875 18.703125 35.683594 18.613281 35.675781 18.433594 C 35.667969 18.363281 35.660156 18.28125 35.65625 18.195312 C 35.65625 18.101562 35.65625 18.015625 35.65625 17.933594 L 35.65625 15.429688 L 36.121094 15.429688 L 36.121094 19.246094 Z M 35.503906 19.246094 "/>
<path style="fill:none;stroke-width:0.0333333;stroke-linecap:butt;stroke-linejoin:miter;stroke:rgb(0%,0%,0%);stroke-opacity:1;stroke-miterlimit:10;" d="M 0.144495 0.0831977 L 0.867346 0.0831977 " transform="matrix(17.287234,0,0,17.33871,17.287234,17.33871)"/>
<path style="fill:none;stroke-width:0.0333333;stroke-linecap:butt;stroke-linejoin:miter;stroke:rgb(0%,0%,0%);stroke-opacity:1;stroke-miterlimit:10;" d="M 0.144495 -0.0832922 L 0.867346 -0.0832922 " transform="matrix(17.287234,0,0,17.33871,17.287234,17.33871)"/>
</g>
</svg>
