<?xml version="1.0" encoding="UTF-8"?>
<svg xmlns="http://www.w3.org/2000/svg" xmlns:xlink="http://www.w3.org/1999/xlink" width="214.4pt" height="43.2pt" viewBox="0 0 214.4 43.2" version="1.1">
<g id="surface242">
<path style=" stroke:none;fill-rule:nonzero;fill:rgb(0%,0%,0%);fill-opacity:1;" d="M 18.007812 27.691406 L 15.957031 24.445312 C 15.964844 24.535156 15.96875 24.621094 15.96875 24.707031 C 15.972656 24.78125 15.980469 24.859375 15.980469 24.945312 C 15.984375 25.027344 15.992188 25.097656 15.992188 25.160156 L 15.992188 27.691406 L 15.523438 27.691406 L 15.523438 23.882812 L 16.132812 23.882812 L 18.191406 27.152344 C 18.191406 27.152344 18.1875 27.0625 18.183594 26.882812 C 18.175781 26.8125 18.164062 26.730469 18.160156 26.644531 C 18.160156 26.550781 18.160156 26.464844 18.160156 26.382812 L 18.160156 23.882812 L 18.625 23.882812 L 18.625 27.691406 Z M 18.007812 27.691406 "/>
<path style=" stroke:none;fill-rule:nonzero;fill:rgb(0%,0%,0%);fill-opacity:1;" d="M 19.207031 23.558594 L 21.527344 23.558594 L 21.527344 24.023438 L 19.207031 24.023438 "/>
<path style=" stroke:none;fill-rule:nonzero;fill:rgb(0%,0%,0%);fill-opacity:1;" d="M 78.519531 27.691406 L 78.085938 26.578125 L 76.335938 26.578125 L 75.902344 27.691406 L 75.363281 27.691406 L 76.921875 23.882812 L 77.507812 23.882812 L 79.050781 27.691406 Z M 77.433594 24.914062 C 77.402344 24.84375 77.375 24.769531 77.347656 24.695312 C 77.324219 24.625 77.304688 24.5625 77.28125 24.5 C 77.261719 24.4375 77.242188 24.386719 77.226562 24.351562 C 77.21875 24.304688 77.210938 24.28125 77.207031 24.273438 C 77.207031 24.28125 77.199219 24.304688 77.183594 24.351562 C 77.167969 24.386719 77.152344 24.4375 77.128906 24.5 C 77.113281 24.5625 77.089844 24.628906 77.066406 24.707031 C 77.035156 24.78125 77.011719 24.851562 76.988281 24.921875 L 76.5 26.179688 L 77.921875 26.179688 Z M 77.433594 24.914062 "/>
<path style=" stroke:none;fill-rule:nonzero;fill:rgb(0%,0%,0%);fill-opacity:1;" d="M 93.550781 19.039062 L 93.113281 17.925781 L 91.367188 17.925781 L 90.933594 19.039062 L 90.390625 19.039062 L 91.953125 15.230469 L 92.539062 15.230469 L 94.082031 19.039062 Z M 92.464844 16.257812 C 92.433594 16.1875 92.40625 16.113281 92.378906 16.042969 C 92.355469 15.972656 92.332031 15.90625 92.3125 15.847656 C 92.289062 15.78125 92.269531 15.734375 92.257812 15.695312 C 92.25 15.652344 92.242188 15.628906 92.234375 15.621094 C 92.234375 15.628906 92.226562 15.652344 92.214844 15.695312 C 92.199219 15.734375 92.183594 15.78125 92.160156 15.847656 C 92.144531 15.90625 92.121094 15.972656 92.09375 16.054688 C 92.066406 16.125 92.039062 16.199219 92.019531 16.269531 L 91.53125 17.523438 L 92.953125 17.523438 Z M 92.464844 16.257812 "/>
<path style=" stroke:none;fill-rule:nonzero;fill:rgb(0%,0%,0%);fill-opacity:1;" d="M 108.582031 27.691406 L 108.148438 26.578125 L 106.402344 26.578125 L 105.96875 27.691406 L 105.425781 27.691406 L 106.988281 23.882812 L 107.574219 23.882812 L 109.113281 27.691406 Z M 107.496094 24.914062 C 107.46875 24.84375 107.4375 24.769531 107.410156 24.695312 C 107.390625 24.625 107.367188 24.5625 107.34375 24.5 C 107.324219 24.4375 107.304688 24.386719 107.292969 24.351562 C 107.28125 24.304688 107.273438 24.28125 107.269531 24.273438 C 107.269531 24.28125 107.261719 24.304688 107.246094 24.351562 C 107.230469 24.386719 107.214844 24.4375 107.195312 24.5 C 107.175781 24.5625 107.15625 24.628906 107.128906 24.707031 C 107.097656 24.78125 107.074219 24.851562 107.050781 24.921875 L 106.5625 26.179688 L 107.984375 26.179688 Z M 107.496094 24.914062 "/>
<path style=" stroke:none;fill-rule:nonzero;fill:rgb(0%,0%,0%);fill-opacity:1;" d="M 123.613281 19.039062 L 123.179688 17.925781 L 121.433594 17.925781 L 121 19.039062 L 120.457031 19.039062 L 122.019531 15.230469 L 122.605469 15.230469 L 124.144531 19.039062 Z M 122.527344 16.257812 C 122.496094 16.1875 122.46875 16.113281 122.441406 16.042969 C 122.417969 15.972656 122.398438 15.90625 122.375 15.847656 C 122.355469 15.78125 122.335938 15.734375 122.320312 15.695312 C 122.3125 15.652344 122.304688 15.628906 122.300781 15.621094 C 122.300781 15.628906 122.292969 15.652344 122.277344 15.695312 C 122.261719 15.734375 122.246094 15.78125 122.222656 15.847656 C 122.207031 15.90625 122.1875 15.972656 122.160156 16.054688 C 122.128906 16.125 122.105469 16.199219 122.082031 16.269531 L 121.59375 17.523438 L 123.015625 17.523438 Z M 122.527344 16.257812 "/>
<path style=" stroke:none;fill-rule:nonzero;fill:rgb(0%,0%,0%);fill-opacity:1;" d="M 138.644531 27.691406 L 138.210938 26.578125 L 136.464844 26.578125 L 136.03125 27.691406 L 135.488281 27.691406 L 137.050781 23.882812 L 137.636719 23.882812 L 139.175781 27.691406 Z M 137.5625 24.914062 C 137.53125 24.84375 137.5 24.769531 137.472656 24.695312 C 137.453125 24.625 137.429688 24.5625 137.410156 24.5 C 137.386719 24.4375 137.367188 24.386719 137.355469 24.351562 C 137.347656 24.304688 137.339844 24.28125 137.332031 24.273438 C 137.332031 24.28125 137.324219 24.304688 137.3125 24.351562 C 137.296875 24.386719 137.277344 24.4375 137.257812 24.5 C 137.242188 24.5625 137.21875 24.628906 137.191406 24.707031 C 137.164062 24.78125 137.136719 24.851562 137.117188 24.921875 L 136.628906 26.179688 L 138.050781 26.179688 Z M 137.5625 24.914062 "/>
<path style=" stroke:none;fill-rule:nonzero;fill:rgb(0%,0%,0%);fill-opacity:1;" d="M 199.359375 25.773438 C 199.359375 26.070312 199.316406 26.339844 199.230469 26.582031 C 199.140625 26.828125 199.015625 27.039062 198.847656 27.210938 C 198.6875 27.382812 198.492188 27.519531 198.253906 27.609375 C 198.019531 27.703125 197.757812 27.75 197.460938 27.75 C 197.140625 27.75 196.863281 27.703125 196.625 27.609375 C 196.390625 27.511719 196.195312 27.375 196.039062 27.199219 C 195.878906 27.023438 195.761719 26.8125 195.679688 26.574219 C 195.601562 26.328125 195.5625 26.0625 195.5625 25.773438 C 195.5625 25.476562 195.601562 25.210938 195.679688 24.972656 C 195.769531 24.726562 195.890625 24.523438 196.050781 24.355469 C 196.214844 24.191406 196.414062 24.058594 196.648438 23.964844 C 196.886719 23.875 197.15625 23.824219 197.460938 23.824219 C 197.765625 23.824219 198.035156 23.875 198.273438 23.964844 C 198.511719 24.058594 198.710938 24.191406 198.871094 24.367188 C 199.027344 24.535156 199.148438 24.734375 199.230469 24.972656 C 199.316406 25.210938 199.359375 25.476562 199.359375 25.773438 Z M 198.828125 25.773438 C 198.828125 25.542969 198.796875 25.335938 198.742188 25.144531 C 198.679688 24.957031 198.59375 24.796875 198.480469 24.667969 C 198.363281 24.535156 198.21875 24.429688 198.046875 24.355469 C 197.878906 24.285156 197.683594 24.246094 197.460938 24.246094 C 197.234375 24.246094 197.039062 24.285156 196.863281 24.355469 C 196.691406 24.429688 196.542969 24.535156 196.429688 24.667969 C 196.320312 24.796875 196.238281 24.957031 196.179688 25.144531 C 196.121094 25.335938 196.09375 25.542969 196.09375 25.773438 C 196.09375 26.003906 196.121094 26.214844 196.179688 26.410156 C 196.238281 26.601562 196.324219 26.761719 196.441406 26.898438 C 196.554688 27.035156 196.695312 27.144531 196.863281 27.222656 C 197.039062 27.292969 197.234375 27.328125 197.460938 27.328125 C 197.699219 27.328125 197.90625 27.292969 198.078125 27.222656 C 198.253906 27.144531 198.394531 27.035156 198.503906 26.898438 C 198.609375 26.753906 198.6875 26.589844 198.742188 26.398438 C 198.796875 26.203125 198.828125 25.996094 198.828125 25.773438 Z M 198.828125 25.773438 "/>
<path style="fill:none;stroke-width:0.0333333;stroke-linecap:butt;stroke-linejoin:miter;stroke:rgb(0%,0%,0%);stroke-opacity:1;stroke-miterlimit:10;" d="M 0.329293 0.309775 L 0.874356 -0.00484291 " transform="matrix(17.357513,0,0,17.307692,17.077254,17.134601)"/>
<path style="fill:none;stroke-width:0.0333333;stroke-linecap:butt;stroke-linejoin:miter;stroke:rgb(0%,0%,0%);stroke-opacity:1;stroke-miterlimit:10;" d="M 0.857703 -0.00484291 L 1.740336 0.504775 " transform="matrix(17.357513,0,0,17.307692,17.077254,17.134601)"/>
<path style="fill:none;stroke-width:0.0333333;stroke-linecap:butt;stroke-linejoin:miter;stroke:rgb(0%,0%,0%);stroke-opacity:1;stroke-miterlimit:10;" d="M 1.024462 -0.100989 L 1.740336 0.312258 " transform="matrix(17.357513,0,0,17.307692,17.077254,17.134601)"/>
<path style="fill:none;stroke-width:0.0333333;stroke-linecap:butt;stroke-linejoin:miter;stroke:rgb(0%,0%,0%);stroke-opacity:1;stroke-miterlimit:10;" d="M 1.723682 0.504775 L 2.60654 -0.00484291 " transform="matrix(17.357513,0,0,17.307692,17.077254,17.134601)"/>
<path style="fill:none;stroke-width:0.0333333;stroke-linecap:butt;stroke-linejoin:miter;stroke:rgb(0%,0%,0%);stroke-opacity:1;stroke-miterlimit:10;" d="M 2.589662 -0.00484291 L 3.285506 0.396893 " transform="matrix(17.357513,0,0,17.307692,17.077254,17.134601)"/>
<path style="fill:none;stroke-width:0.0333333;stroke-linecap:butt;stroke-linejoin:miter;stroke:rgb(0%,0%,0%);stroke-opacity:1;stroke-miterlimit:10;" d="M 2.589662 0.187674 L 3.202239 0.541338 " transform="matrix(17.357513,0,0,17.307692,17.077254,17.134601)"/>
<path style="fill:none;stroke-width:0.0333333;stroke-linecap:butt;stroke-linejoin:miter;stroke:rgb(0%,0%,0%);stroke-opacity:1;stroke-miterlimit:10;" d="M 3.642655 0.396893 L 4.151486 0.103039 " transform="matrix(17.357513,0,0,17.307692,17.077254,17.134601)"/>
<path style="fill:none;stroke-width:0.0333333;stroke-linecap:butt;stroke-linejoin:miter;stroke:rgb(0%,0%,0%);stroke-opacity:1;stroke-miterlimit:10;" d="M 4.467001 0.175261 L 4.975831 0.469115 " transform="matrix(17.357513,0,0,17.307692,17.077254,17.134601)"/>
<path style="fill:none;stroke-width:0.0333333;stroke-linecap:butt;stroke-linejoin:miter;stroke:rgb(0%,0%,0%);stroke-opacity:1;stroke-miterlimit:10;" d="M 4.550268 0.0310425 L 5.059324 0.324671 " transform="matrix(17.357513,0,0,17.307692,17.077254,17.134601)"/>
<path style="fill:none;stroke-width:0.0333333;stroke-linecap:butt;stroke-linejoin:miter;stroke:rgb(0%,0%,0%);stroke-opacity:1;stroke-miterlimit:10;" d="M 5.374839 0.396893 L 5.88367 0.103039 " transform="matrix(17.357513,0,0,17.307692,17.077254,17.134601)"/>
<path style="fill:none;stroke-width:0.0333333;stroke-linecap:butt;stroke-linejoin:miter;stroke:rgb(0%,0%,0%);stroke-opacity:1;stroke-miterlimit:10;" d="M 6.199185 0.175261 L 6.708015 0.469115 " transform="matrix(17.357513,0,0,17.307692,17.077254,17.134601)"/>
<path style="fill:none;stroke-width:0.0333333;stroke-linecap:butt;stroke-linejoin:miter;stroke:rgb(0%,0%,0%);stroke-opacity:1;stroke-miterlimit:10;" d="M 6.282452 0.0310425 L 6.791283 0.324671 " transform="matrix(17.357513,0,0,17.307692,17.077254,17.134601)"/>
<path style="fill:none;stroke-width:0.0333333;stroke-linecap:butt;stroke-linejoin:miter;stroke:rgb(0%,0%,0%);stroke-opacity:1;stroke-miterlimit:10;" d="M 7.107023 0.396893 L 7.802642 -0.00484291 " transform="matrix(17.357513,0,0,17.307692,17.077254,17.134601)"/>
<path style="fill:none;stroke-width:0.0333333;stroke-linecap:butt;stroke-linejoin:miter;stroke:rgb(0%,0%,0%);stroke-opacity:1;stroke-miterlimit:10;" d="M 7.785764 -0.00484291 L 8.668622 0.504775 " transform="matrix(17.357513,0,0,17.307692,17.077254,17.134601)"/>
<path style="fill:none;stroke-width:0.0333333;stroke-linecap:butt;stroke-linejoin:miter;stroke:rgb(0%,0%,0%);stroke-opacity:1;stroke-miterlimit:10;" d="M 7.952523 -0.100989 L 8.668622 0.312258 " transform="matrix(17.357513,0,0,17.307692,17.077254,17.134601)"/>
<path style="fill:none;stroke-width:0.0333333;stroke-linecap:butt;stroke-linejoin:miter;stroke:rgb(0%,0%,0%);stroke-opacity:1;stroke-miterlimit:10;" d="M 8.651968 0.504775 L 9.534826 -0.00484291 " transform="matrix(17.357513,0,0,17.307692,17.077254,17.134601)"/>
<path style="fill:none;stroke-width:0.0333333;stroke-linecap:butt;stroke-linejoin:miter;stroke:rgb(0%,0%,0%);stroke-opacity:1;stroke-miterlimit:10;" d="M 9.517948 -0.00484291 L 10.209966 0.394636 " transform="matrix(17.357513,0,0,17.307692,17.077254,17.134601)"/>
<path style="fill:none;stroke-width:0.0333333;stroke-linecap:butt;stroke-linejoin:miter;stroke:rgb(0%,0%,0%);stroke-opacity:1;stroke-miterlimit:10;" d="M 9.517948 0.187674 L 10.126699 0.539081 " transform="matrix(17.357513,0,0,17.307692,17.077254,17.134601)"/>
</g>
</svg>
