<?xml version="1.0" encoding="UTF-8"?>
<svg xmlns="http://www.w3.org/2000/svg" xmlns:xlink="http://www.w3.org/1999/xlink" width="61.6pt" height="64pt" viewBox="0 0 61.6 64" version="1.1">
<g id="surface647">
<path style=" stroke:none;fill-rule:nonzero;fill:rgb(0%,0%,47.058824%);fill-opacity:1;" d="M 31.1875 35.363281 C 31.1875 35.558594 31.148438 35.726562 31.070312 35.863281 C 30.988281 36 30.878906 36.117188 30.746094 36.210938 C 30.613281 36.296875 30.457031 36.363281 30.277344 36.40625 C 30.097656 36.441406 29.910156 36.460938 29.714844 36.460938 L 27.796875 36.460938 L 27.796875 32.632812 L 29.550781 32.632812 C 29.773438 32.632812 29.976562 32.652344 30.148438 32.6875 C 30.328125 32.726562 30.476562 32.78125 30.59375 32.863281 C 30.714844 32.941406 30.804688 33.042969 30.863281 33.164062 C 30.929688 33.289062 30.960938 33.433594 30.960938 33.589844 C 30.960938 33.808594 30.898438 33.992188 30.777344 34.144531 C 30.660156 34.289062 30.480469 34.390625 30.234375 34.449219 C 30.542969 34.488281 30.78125 34.585938 30.941406 34.742188 C 31.105469 34.894531 31.1875 35.101562 31.1875 35.363281 Z M 30.160156 33.699219 C 30.160156 33.523438 30.105469 33.402344 29.996094 33.328125 C 29.886719 33.257812 29.726562 33.21875 29.507812 33.21875 L 28.597656 33.21875 L 28.597656 34.175781 L 29.519531 34.175781 C 29.742188 34.175781 29.90625 34.136719 30.007812 34.058594 C 30.109375 33.976562 30.160156 33.859375 30.160156 33.699219 Z M 30.386719 35.308594 C 30.386719 35.207031 30.367188 35.121094 30.320312 35.058594 C 30.285156 34.988281 30.230469 34.925781 30.160156 34.882812 C 30.085938 34.839844 30.003906 34.8125 29.910156 34.796875 C 29.824219 34.773438 29.726562 34.761719 29.617188 34.761719 L 28.597656 34.761719 L 28.597656 35.863281 L 29.640625 35.863281 C 29.746094 35.863281 29.84375 35.855469 29.933594 35.839844 C 30.023438 35.816406 30.105469 35.789062 30.171875 35.753906 C 30.234375 35.710938 30.285156 35.652344 30.320312 35.578125 C 30.367188 35.507812 30.386719 35.414062 30.386719 35.308594 Z M 30.386719 35.308594 "/>
<path style=" stroke:none;fill-rule:nonzero;fill:rgb(0%,0%,47.058824%);fill-opacity:1;" d="M 31.421875 17.136719 C 31.421875 17.4375 31.375 17.710938 31.28125 17.953125 C 31.195312 18.199219 31.066406 18.410156 30.902344 18.585938 C 30.734375 18.757812 30.535156 18.894531 30.292969 18.988281 C 30.054688 19.078125 29.785156 19.128906 29.480469 19.128906 C 29.164062 19.128906 28.886719 19.078125 28.648438 18.988281 C 28.410156 18.886719 28.207031 18.746094 28.039062 18.574219 C 27.878906 18.394531 27.761719 18.183594 27.683594 17.941406 C 27.601562 17.699219 27.5625 17.429688 27.5625 17.136719 C 27.5625 16.84375 27.601562 16.574219 27.683594 16.335938 C 27.769531 16.089844 27.894531 15.882812 28.0625 15.714844 C 28.226562 15.550781 28.429688 15.417969 28.667969 15.324219 C 28.90625 15.230469 29.179688 15.183594 29.492188 15.183594 C 29.800781 15.183594 30.078125 15.230469 30.316406 15.324219 C 30.554688 15.417969 30.753906 15.550781 30.914062 15.726562 C 31.078125 15.894531 31.207031 16.09375 31.292969 16.335938 C 31.378906 16.574219 31.421875 16.84375 31.421875 17.136719 Z M 30.609375 17.136719 C 30.609375 16.9375 30.582031 16.753906 30.535156 16.59375 C 30.480469 16.4375 30.410156 16.300781 30.316406 16.183594 C 30.222656 16.066406 30.105469 15.976562 29.96875 15.910156 C 29.832031 15.84375 29.671875 15.8125 29.492188 15.8125 C 29.304688 15.8125 29.136719 15.84375 28.996094 15.910156 C 28.855469 15.976562 28.738281 16.066406 28.648438 16.183594 C 28.550781 16.300781 28.480469 16.4375 28.429688 16.59375 C 28.386719 16.753906 28.367188 16.9375 28.367188 17.136719 C 28.367188 17.34375 28.390625 17.527344 28.441406 17.691406 C 28.488281 17.851562 28.5625 17.996094 28.660156 18.117188 C 28.75 18.234375 28.867188 18.328125 29.003906 18.398438 C 29.140625 18.464844 29.300781 18.496094 29.480469 18.496094 C 29.675781 18.496094 29.84375 18.464844 29.980469 18.398438 C 30.125 18.328125 30.242188 18.234375 30.339844 18.117188 C 30.429688 17.996094 30.5 17.851562 30.542969 17.683594 C 30.585938 17.515625 30.609375 17.335938 30.609375 17.136719 Z M 30.609375 17.136719 "/>
<path style=" stroke:none;fill-rule:nonzero;fill:rgb(0%,0%,47.058824%);fill-opacity:1;" d="M 32 14.808594 L 34.320312 14.808594 L 34.320312 15.273438 L 32 15.273438 "/>
<path style=" stroke:none;fill-rule:nonzero;fill:rgb(0%,0%,47.058824%);fill-opacity:1;" d="M 19.15625 46.828125 C 19.15625 47.128906 19.109375 47.398438 19.015625 47.644531 C 18.929688 47.890625 18.804688 48.101562 18.636719 48.273438 C 18.46875 48.449219 18.269531 48.585938 18.03125 48.675781 C 17.792969 48.769531 17.519531 48.816406 17.21875 48.816406 C 16.898438 48.816406 16.621094 48.769531 16.382812 48.675781 C 16.144531 48.574219 15.941406 48.4375 15.777344 48.261719 C 15.617188 48.085938 15.496094 47.871094 15.417969 47.632812 C 15.335938 47.386719 15.300781 47.121094 15.300781 46.828125 C 15.300781 46.53125 15.335938 46.261719 15.417969 46.023438 C 15.503906 45.78125 15.628906 45.574219 15.796875 45.40625 C 15.964844 45.238281 16.167969 45.109375 16.40625 45.011719 C 16.644531 44.921875 16.917969 44.871094 17.230469 44.871094 C 17.539062 44.871094 17.8125 44.921875 18.050781 45.011719 C 18.289062 45.109375 18.488281 45.242188 18.648438 45.414062 C 18.8125 45.585938 18.941406 45.785156 19.027344 46.023438 C 19.113281 46.261719 19.15625 46.53125 19.15625 46.828125 Z M 18.34375 46.828125 C 18.34375 46.628906 18.316406 46.445312 18.269531 46.285156 C 18.21875 46.128906 18.144531 45.988281 18.050781 45.871094 C 17.957031 45.757812 17.839844 45.664062 17.707031 45.601562 C 17.566406 45.535156 17.40625 45.503906 17.230469 45.503906 C 17.039062 45.503906 16.875 45.535156 16.730469 45.601562 C 16.589844 45.664062 16.476562 45.757812 16.382812 45.871094 C 16.289062 45.988281 16.214844 46.128906 16.167969 46.285156 C 16.121094 46.445312 16.101562 46.628906 16.101562 46.828125 C 16.101562 47.03125 16.125 47.21875 16.175781 47.382812 C 16.226562 47.542969 16.300781 47.683594 16.394531 47.808594 C 16.484375 47.925781 16.601562 48.019531 16.742188 48.089844 C 16.875 48.15625 17.035156 48.1875 17.21875 48.1875 C 17.414062 48.1875 17.578125 48.15625 17.714844 48.089844 C 17.859375 48.019531 17.980469 47.925781 18.074219 47.808594 C 18.167969 47.683594 18.238281 47.539062 18.28125 47.371094 C 18.324219 47.207031 18.34375 47.023438 18.34375 46.828125 Z M 18.34375 46.828125 "/>
<path style=" stroke:none;fill-rule:nonzero;fill:rgb(0%,0%,47.058824%);fill-opacity:1;" d="M 19.734375 44.496094 L 22.054688 44.496094 L 22.054688 44.960938 L 19.734375 44.960938 "/>
<path style=" stroke:none;fill-rule:nonzero;fill:rgb(0%,0%,47.058824%);fill-opacity:1;" d="M 46.441406 43.226562 C 46.441406 43.523438 46.390625 43.796875 46.296875 44.039062 C 46.210938 44.289062 46.085938 44.496094 45.917969 44.671875 C 45.75 44.84375 45.550781 44.980469 45.3125 45.074219 C 45.074219 45.164062 44.804688 45.214844 44.5 45.214844 C 44.179688 45.214844 43.902344 45.164062 43.664062 45.074219 C 43.425781 44.972656 43.222656 44.835938 43.058594 44.660156 C 42.898438 44.480469 42.777344 44.269531 42.699219 44.03125 C 42.617188 43.785156 42.582031 43.515625 42.582031 43.226562 C 42.582031 42.929688 42.617188 42.660156 42.699219 42.421875 C 42.785156 42.175781 42.910156 41.96875 43.078125 41.800781 C 43.246094 41.636719 43.449219 41.503906 43.6875 41.410156 C 43.925781 41.316406 44.199219 41.269531 44.511719 41.269531 C 44.820312 41.269531 45.09375 41.316406 45.332031 41.410156 C 45.574219 41.503906 45.769531 41.636719 45.929688 41.8125 C 46.09375 41.980469 46.222656 42.183594 46.308594 42.421875 C 46.394531 42.660156 46.441406 42.929688 46.441406 43.226562 Z M 45.625 43.226562 C 45.625 43.023438 45.597656 42.84375 45.550781 42.683594 C 45.5 42.523438 45.425781 42.386719 45.332031 42.269531 C 45.238281 42.15625 45.121094 42.0625 44.988281 41.996094 C 44.847656 41.933594 44.6875 41.898438 44.511719 41.898438 C 44.320312 41.898438 44.15625 41.933594 44.011719 41.996094 C 43.875 42.0625 43.757812 42.15625 43.664062 42.269531 C 43.570312 42.386719 43.496094 42.523438 43.449219 42.683594 C 43.40625 42.84375 43.382812 43.023438 43.382812 43.226562 C 43.382812 43.429688 43.40625 43.613281 43.457031 43.78125 C 43.507812 43.941406 43.582031 44.082031 43.675781 44.203125 C 43.769531 44.320312 43.882812 44.414062 44.023438 44.488281 C 44.15625 44.550781 44.316406 44.585938 44.5 44.585938 C 44.695312 44.585938 44.859375 44.550781 44.996094 44.488281 C 45.140625 44.414062 45.261719 44.320312 45.355469 44.203125 C 45.449219 44.082031 45.519531 43.9375 45.5625 43.769531 C 45.605469 43.601562 45.625 43.421875 45.625 43.226562 Z M 45.625 43.226562 "/>
<path style=" stroke:none;fill-rule:nonzero;fill:rgb(0%,0%,47.058824%);fill-opacity:1;" d="M 47.015625 40.894531 L 49.335938 40.894531 L 49.335938 41.359375 L 47.015625 41.359375 "/>
<path style="fill:none;stroke-width:0.06;stroke-linecap:butt;stroke-linejoin:miter;stroke:rgb(0%,0%,47.058824%);stroke-opacity:1;stroke-miterlimit:10;" d="M 0.707137 0.846616 L 0.707137 0.156616 " transform="matrix(17.342342,0,0,17.391304,17.228779,17.155146)"/>
<path style="fill:none;stroke-width:0.06;stroke-linecap:butt;stroke-linejoin:miter;stroke:rgb(0%,0%,47.058824%);stroke-opacity:1;stroke-miterlimit:10;" d="M 0.560053 1.147144 L 0.28458 1.422739 " transform="matrix(17.342342,0,0,17.391304,17.228779,17.155146)"/>
<path style="fill:none;stroke-width:0.06;stroke-linecap:butt;stroke-linejoin:miter;stroke:rgb(0%,0%,47.058824%);stroke-opacity:1;stroke-miterlimit:10;" d="M 0.879448 1.099526 L 1.389174 1.393989 " transform="matrix(17.342342,0,0,17.391304,17.228779,17.155146)"/>
</g>
</svg>
