<?xml version="1.0" encoding="UTF-8"?>
<svg xmlns="http://www.w3.org/2000/svg" xmlns:xlink="http://www.w3.org/1999/xlink" width="171.2pt" height="431.2pt" viewBox="0 0 171.2 431.2" version="1.1">
<g id="surface1342">
<path style=" stroke:none;fill-rule:nonzero;fill:rgb(0%,0%,47.058824%);fill-opacity:1;" d="M 104.1875 262.25 C 104.339844 262.25 104.46875 262.230469 104.574219 262.1875 C 104.683594 262.144531 104.777344 262.089844 104.855469 262.023438 C 104.9375 261.953125 105 261.871094 105.050781 261.785156 C 105.109375 261.699219 105.15625 261.609375 105.191406 261.523438 L 105.886719 261.785156 C 105.824219 261.921875 105.75 262.0625 105.65625 262.199219 C 105.570312 262.328125 105.457031 262.445312 105.324219 262.546875 C 105.191406 262.648438 105.035156 262.730469 104.847656 262.796875 C 104.65625 262.851562 104.4375 262.882812 104.1875 262.882812 C 103.855469 262.882812 103.5625 262.832031 103.320312 262.742188 C 103.082031 262.640625 102.882812 262.5 102.726562 262.328125 C 102.566406 262.148438 102.445312 261.9375 102.367188 261.699219 C 102.296875 261.453125 102.261719 261.183594 102.261719 260.894531 C 102.261719 260.597656 102.296875 260.328125 102.367188 260.089844 C 102.445312 259.84375 102.5625 259.636719 102.714844 259.46875 C 102.871094 259.304688 103.070312 259.171875 103.308594 259.078125 C 103.546875 258.984375 103.828125 258.9375 104.152344 258.9375 C 104.398438 258.9375 104.613281 258.96875 104.804688 259.023438 C 104.988281 259.074219 105.152344 259.148438 105.289062 259.242188 C 105.425781 259.335938 105.539062 259.449219 105.625 259.578125 C 105.710938 259.707031 105.78125 259.851562 105.832031 260.003906 L 105.128906 260.199219 C 105.105469 260.117188 105.066406 260.042969 105.007812 259.96875 C 104.957031 259.890625 104.890625 259.824219 104.8125 259.761719 C 104.734375 259.707031 104.640625 259.660156 104.53125 259.621094 C 104.425781 259.585938 104.300781 259.566406 104.164062 259.566406 C 103.96875 259.566406 103.800781 259.601562 103.667969 259.664062 C 103.527344 259.730469 103.414062 259.824219 103.320312 259.9375 C 103.234375 260.054688 103.167969 260.191406 103.125 260.351562 C 103.082031 260.511719 103.0625 260.691406 103.0625 260.894531 C 103.0625 261.097656 103.082031 261.28125 103.125 261.449219 C 103.167969 261.609375 103.234375 261.75 103.320312 261.871094 C 103.414062 261.988281 103.527344 262.082031 103.667969 262.152344 C 103.808594 262.21875 103.984375 262.25 104.1875 262.25 Z M 104.1875 262.25 "/>
<path style=" stroke:none;fill-rule:nonzero;fill:rgb(0%,0%,47.058824%);fill-opacity:1;" d="M 106.585938 262.828125 L 106.585938 258.796875 L 107.34375 258.796875 L 107.34375 262.828125 Z M 106.585938 262.828125 "/>
<path style=" stroke:none;fill-rule:nonzero;fill:rgb(0%,0%,47.058824%);fill-opacity:1;" d="M 72.492188 262.007812 C 72.644531 262.007812 72.773438 261.984375 72.878906 261.941406 C 72.988281 261.898438 73.082031 261.84375 73.164062 261.777344 C 73.242188 261.707031 73.304688 261.625 73.355469 261.539062 C 73.414062 261.453125 73.460938 261.367188 73.496094 261.277344 L 74.191406 261.539062 C 74.128906 261.679688 74.054688 261.816406 73.960938 261.953125 C 73.875 262.082031 73.761719 262.199219 73.628906 262.300781 C 73.496094 262.402344 73.339844 262.484375 73.152344 262.550781 C 72.960938 262.609375 72.742188 262.636719 72.492188 262.636719 C 72.160156 262.636719 71.867188 262.589844 71.625 262.496094 C 71.386719 262.394531 71.1875 262.257812 71.03125 262.082031 C 70.871094 261.902344 70.75 261.691406 70.671875 261.453125 C 70.601562 261.207031 70.566406 260.941406 70.566406 260.648438 C 70.566406 260.351562 70.601562 260.082031 70.671875 259.84375 C 70.75 259.601562 70.867188 259.394531 71.019531 259.226562 C 71.175781 259.058594 71.375 258.929688 71.613281 258.835938 C 71.851562 258.742188 72.132812 258.691406 72.457031 258.691406 C 72.703125 258.691406 72.917969 258.722656 73.109375 258.78125 C 73.292969 258.832031 73.457031 258.90625 73.59375 258.996094 C 73.730469 259.09375 73.84375 259.203125 73.929688 259.332031 C 74.015625 259.464844 74.085938 259.605469 74.136719 259.757812 L 73.433594 259.953125 C 73.410156 259.875 73.371094 259.796875 73.3125 259.726562 C 73.261719 259.644531 73.199219 259.578125 73.117188 259.519531 C 73.039062 259.460938 72.945312 259.414062 72.835938 259.378906 C 72.730469 259.34375 72.605469 259.324219 72.46875 259.324219 C 72.273438 259.324219 72.105469 259.355469 71.972656 259.421875 C 71.832031 259.484375 71.71875 259.578125 71.625 259.691406 C 71.539062 259.808594 71.472656 259.949219 71.429688 260.105469 C 71.386719 260.265625 71.367188 260.449219 71.367188 260.648438 C 71.367188 260.851562 71.386719 261.039062 71.429688 261.203125 C 71.472656 261.363281 71.539062 261.503906 71.625 261.625 C 71.71875 261.742188 71.832031 261.839844 71.972656 261.910156 C 72.113281 261.976562 72.289062 262.007812 72.492188 262.007812 Z M 72.492188 262.007812 "/>
<path style=" stroke:none;fill-rule:nonzero;fill:rgb(0%,0%,47.058824%);fill-opacity:1;" d="M 74.894531 262.582031 L 74.894531 258.550781 L 75.648438 258.550781 L 75.648438 262.582031 Z M 74.894531 262.582031 "/>
<path style=" stroke:none;fill-rule:nonzero;fill:rgb(0%,0%,47.058824%);fill-opacity:1;" d="M 88.164062 278.152344 C 88.316406 278.152344 88.445312 278.132812 88.550781 278.085938 C 88.660156 278.042969 88.753906 277.988281 88.832031 277.925781 C 88.914062 277.855469 88.976562 277.773438 89.027344 277.683594 C 89.085938 277.597656 89.132812 277.511719 89.167969 277.425781 L 89.863281 277.683594 C 89.800781 277.824219 89.726562 277.960938 89.632812 278.097656 C 89.546875 278.230469 89.433594 278.34375 89.300781 278.445312 C 89.167969 278.550781 89.007812 278.632812 88.824219 278.695312 C 88.632812 278.753906 88.414062 278.78125 88.164062 278.78125 C 87.832031 278.78125 87.539062 278.734375 87.296875 278.640625 C 87.058594 278.542969 86.859375 278.402344 86.703125 278.230469 C 86.542969 278.050781 86.421875 277.835938 86.34375 277.597656 C 86.273438 277.355469 86.238281 277.085938 86.238281 276.792969 C 86.238281 276.5 86.273438 276.230469 86.34375 275.992188 C 86.421875 275.746094 86.539062 275.539062 86.691406 275.371094 C 86.847656 275.207031 87.046875 275.074219 87.285156 274.980469 C 87.523438 274.886719 87.804688 274.839844 88.128906 274.839844 C 88.375 274.839844 88.589844 274.867188 88.78125 274.925781 C 88.964844 274.976562 89.128906 275.050781 89.265625 275.144531 C 89.402344 275.238281 89.515625 275.347656 89.601562 275.480469 C 89.6875 275.609375 89.757812 275.75 89.808594 275.902344 L 89.105469 276.097656 C 89.082031 276.019531 89.042969 275.945312 88.984375 275.871094 C 88.933594 275.792969 88.867188 275.722656 88.789062 275.664062 C 88.710938 275.605469 88.617188 275.5625 88.507812 275.523438 C 88.402344 275.488281 88.277344 275.46875 88.140625 275.46875 C 87.945312 275.46875 87.777344 275.5 87.644531 275.566406 C 87.503906 275.632812 87.390625 275.722656 87.296875 275.839844 C 87.210938 275.953125 87.144531 276.09375 87.101562 276.25 C 87.058594 276.410156 87.039062 276.59375 87.039062 276.792969 C 87.039062 277 87.058594 277.183594 87.101562 277.347656 C 87.144531 277.507812 87.210938 277.648438 87.296875 277.773438 C 87.390625 277.890625 87.503906 277.984375 87.644531 278.054688 C 87.785156 278.121094 87.960938 278.152344 88.164062 278.152344 Z M 88.164062 278.152344 "/>
<path style=" stroke:none;fill-rule:nonzero;fill:rgb(0%,0%,47.058824%);fill-opacity:1;" d="M 90.5625 278.730469 L 90.5625 274.695312 L 91.320312 274.695312 L 91.320312 278.730469 Z M 90.5625 278.730469 "/>
<path style=" stroke:none;fill-rule:nonzero;fill:rgb(0%,0%,47.058824%);fill-opacity:1;" d="M 34.339844 212.527344 C 34.339844 212.722656 34.296875 212.890625 34.21875 213.027344 C 34.136719 213.164062 34.03125 213.28125 33.894531 213.375 C 33.765625 213.460938 33.609375 213.527344 33.429688 213.570312 C 33.25 213.609375 33.0625 213.625 32.867188 213.625 L 30.953125 213.625 L 30.953125 209.800781 L 32.703125 209.800781 C 32.925781 209.800781 33.125 209.820312 33.300781 209.855469 C 33.476562 209.890625 33.625 209.949219 33.742188 210.027344 C 33.863281 210.109375 33.953125 210.210938 34.015625 210.332031 C 34.078125 210.457031 34.109375 210.597656 34.109375 210.757812 C 34.109375 210.972656 34.050781 211.15625 33.925781 211.308594 C 33.8125 211.457031 33.628906 211.558594 33.386719 211.613281 C 33.695312 211.652344 33.929688 211.75 34.089844 211.90625 C 34.253906 212.058594 34.339844 212.265625 34.339844 212.527344 Z M 33.308594 210.863281 C 33.308594 210.691406 33.257812 210.570312 33.148438 210.496094 C 33.039062 210.425781 32.878906 210.386719 32.660156 210.386719 L 31.753906 210.386719 L 31.753906 211.34375 L 32.671875 211.34375 C 32.894531 211.34375 33.054688 211.304688 33.160156 211.222656 C 33.257812 211.144531 33.308594 211.023438 33.308594 210.863281 Z M 33.539062 212.472656 C 33.539062 212.371094 33.515625 212.289062 33.472656 212.222656 C 33.433594 212.152344 33.378906 212.09375 33.308594 212.050781 C 33.238281 212.003906 33.152344 211.980469 33.0625 211.960938 C 32.976562 211.941406 32.878906 211.929688 32.769531 211.929688 L 31.753906 211.929688 L 31.753906 213.027344 L 32.789062 213.027344 C 32.898438 213.027344 32.996094 213.023438 33.082031 213.003906 C 33.175781 212.984375 33.257812 212.957031 33.320312 212.917969 C 33.386719 212.875 33.433594 212.816406 33.472656 212.746094 C 33.515625 212.675781 33.539062 212.582031 33.539062 212.472656 Z M 33.539062 212.472656 "/>
<path style=" stroke:none;fill-rule:nonzero;fill:rgb(0%,0%,47.058824%);fill-opacity:1;" d="M 35.136719 213.625 L 35.136719 211.375 C 35.136719 211.308594 35.136719 211.246094 35.136719 211.179688 C 35.136719 211.109375 35.132812 211.039062 35.128906 210.972656 C 35.128906 210.90625 35.121094 210.851562 35.117188 210.800781 C 35.117188 210.75 35.117188 210.710938 35.117188 210.679688 L 35.839844 210.679688 C 35.839844 210.703125 35.839844 210.742188 35.839844 210.800781 C 35.847656 210.851562 35.851562 210.90625 35.851562 210.972656 C 35.859375 211.039062 35.863281 211.105469 35.863281 211.167969 C 35.867188 211.230469 35.875 211.273438 35.875 211.308594 L 35.886719 211.308594 C 35.921875 211.203125 35.957031 211.109375 35.992188 211.027344 C 36.035156 210.941406 36.082031 210.871094 36.132812 210.808594 C 36.183594 210.753906 36.246094 210.710938 36.316406 210.679688 C 36.386719 210.644531 36.480469 210.625 36.589844 210.625 C 36.632812 210.625 36.675781 210.632812 36.71875 210.636719 C 36.761719 210.644531 36.796875 210.65625 36.828125 210.667969 L 36.828125 211.308594 C 36.773438 211.296875 36.722656 211.285156 36.675781 211.277344 C 36.625 211.273438 36.566406 211.265625 36.5 211.265625 C 36.308594 211.265625 36.15625 211.34375 36.046875 211.496094 C 35.945312 211.648438 35.894531 211.875 35.894531 212.179688 L 35.894531 213.625 Z M 35.136719 213.625 "/>
<path style=" stroke:none;fill-rule:nonzero;fill:rgb(0%,0%,47.058824%);fill-opacity:1;" d="M 145.371094 214.101562 C 145.371094 214.296875 145.332031 214.46875 145.253906 214.601562 C 145.171875 214.742188 145.0625 214.859375 144.929688 214.949219 C 144.796875 215.039062 144.640625 215.101562 144.464844 215.144531 C 144.28125 215.183594 144.09375 215.199219 143.898438 215.199219 L 141.984375 215.199219 L 141.984375 211.375 L 143.738281 211.375 C 143.960938 211.375 144.160156 211.394531 144.332031 211.429688 C 144.511719 211.46875 144.660156 211.523438 144.777344 211.605469 C 144.898438 211.683594 144.988281 211.785156 145.046875 211.90625 C 145.113281 212.03125 145.144531 212.175781 145.144531 212.332031 C 145.144531 212.550781 145.082031 212.734375 144.960938 212.886719 C 144.84375 213.03125 144.664062 213.132812 144.417969 213.191406 C 144.726562 213.226562 144.964844 213.324219 145.125 213.484375 C 145.289062 213.636719 145.371094 213.84375 145.371094 214.101562 Z M 144.34375 212.441406 C 144.34375 212.265625 144.289062 212.144531 144.179688 212.070312 C 144.074219 212 143.910156 211.960938 143.695312 211.960938 L 142.785156 211.960938 L 142.785156 212.917969 L 143.707031 212.917969 C 143.925781 212.917969 144.089844 212.878906 144.191406 212.800781 C 144.292969 212.71875 144.34375 212.601562 144.34375 212.441406 Z M 144.570312 214.046875 C 144.570312 213.949219 144.550781 213.863281 144.507812 213.796875 C 144.46875 213.726562 144.414062 213.667969 144.34375 213.625 C 144.269531 213.582031 144.1875 213.554688 144.09375 213.539062 C 144.007812 213.515625 143.910156 213.503906 143.804688 213.503906 L 142.785156 213.503906 L 142.785156 214.601562 L 143.824219 214.601562 C 143.933594 214.601562 144.03125 214.597656 144.117188 214.582031 C 144.207031 214.558594 144.289062 214.53125 144.355469 214.496094 C 144.417969 214.449219 144.46875 214.394531 144.507812 214.320312 C 144.550781 214.25 144.570312 214.15625 144.570312 214.046875 Z M 144.570312 214.046875 "/>
<path style=" stroke:none;fill-rule:nonzero;fill:rgb(0%,0%,47.058824%);fill-opacity:1;" d="M 146.171875 215.199219 L 146.171875 212.953125 C 146.171875 212.886719 146.171875 212.820312 146.171875 212.753906 C 146.171875 212.683594 146.167969 212.613281 146.160156 212.550781 C 146.160156 212.484375 146.15625 212.425781 146.148438 212.375 C 146.148438 212.328125 146.148438 212.285156 146.148438 212.253906 L 146.875 212.253906 C 146.875 212.277344 146.875 212.316406 146.875 212.375 C 146.878906 212.425781 146.886719 212.484375 146.886719 212.550781 C 146.890625 212.613281 146.898438 212.679688 146.898438 212.746094 C 146.902344 212.804688 146.90625 212.851562 146.90625 212.886719 L 146.917969 212.886719 C 146.953125 212.777344 146.988281 212.683594 147.027344 212.601562 C 147.070312 212.515625 147.117188 212.445312 147.167969 212.386719 C 147.214844 212.328125 147.277344 212.285156 147.351562 212.253906 C 147.421875 212.21875 147.511719 212.203125 147.621094 212.203125 C 147.664062 212.203125 147.707031 212.207031 147.75 212.210938 C 147.796875 212.21875 147.832031 212.230469 147.859375 212.246094 L 147.859375 212.886719 C 147.808594 212.871094 147.757812 212.863281 147.707031 212.851562 C 147.65625 212.847656 147.601562 212.84375 147.535156 212.84375 C 147.339844 212.84375 147.1875 212.917969 147.082031 213.070312 C 146.976562 213.222656 146.929688 213.449219 146.929688 213.753906 L 146.929688 215.199219 Z M 146.171875 215.199219 "/>
<path style=" stroke:none;fill-rule:nonzero;fill:rgb(0%,0%,47.058824%);fill-opacity:1;" d="M 88.617188 119.972656 C 88.617188 120.273438 88.570312 120.542969 88.476562 120.789062 C 88.390625 121.035156 88.261719 121.246094 88.097656 121.417969 C 87.929688 121.59375 87.730469 121.730469 87.492188 121.820312 C 87.253906 121.914062 86.984375 121.960938 86.679688 121.960938 C 86.359375 121.960938 86.085938 121.914062 85.847656 121.820312 C 85.609375 121.71875 85.40625 121.582031 85.242188 121.40625 C 85.082031 121.230469 84.960938 121.015625 84.882812 120.777344 C 84.804688 120.535156 84.765625 120.265625 84.765625 119.972656 C 84.765625 119.675781 84.804688 119.410156 84.882812 119.167969 C 84.972656 118.925781 85.09375 118.71875 85.261719 118.550781 C 85.429688 118.382812 85.628906 118.253906 85.867188 118.160156 C 86.105469 118.066406 86.378906 118.019531 86.691406 118.019531 C 87 118.019531 87.277344 118.066406 87.515625 118.160156 C 87.75 118.253906 87.949219 118.386719 88.109375 118.5625 C 88.273438 118.730469 88.402344 118.929688 88.488281 119.167969 C 88.574219 119.410156 88.617188 119.675781 88.617188 119.972656 Z M 87.804688 119.972656 C 87.804688 119.773438 87.777344 119.589844 87.730469 119.429688 C 87.679688 119.273438 87.605469 119.132812 87.515625 119.015625 C 87.417969 118.902344 87.300781 118.8125 87.167969 118.746094 C 87.03125 118.679688 86.871094 118.648438 86.691406 118.648438 C 86.5 118.648438 86.335938 118.679688 86.195312 118.746094 C 86.054688 118.8125 85.9375 118.902344 85.847656 119.015625 C 85.753906 119.132812 85.679688 119.273438 85.628906 119.429688 C 85.585938 119.589844 85.566406 119.773438 85.566406 119.972656 C 85.566406 120.175781 85.589844 120.363281 85.640625 120.527344 C 85.691406 120.6875 85.761719 120.828125 85.859375 120.953125 C 85.949219 121.070312 86.066406 121.164062 86.203125 121.234375 C 86.339844 121.300781 86.5 121.332031 86.679688 121.332031 C 86.875 121.332031 87.039062 121.300781 87.179688 121.234375 C 87.320312 121.164062 87.441406 121.070312 87.535156 120.953125 C 87.628906 120.828125 87.699219 120.683594 87.742188 120.515625 C 87.785156 120.351562 87.804688 120.167969 87.804688 119.972656 Z M 87.804688 119.972656 "/>
<path style=" stroke:none;fill-rule:nonzero;fill:rgb(0%,0%,47.058824%);fill-opacity:1;" d="M 153.253906 157.550781 C 153.253906 157.746094 153.214844 157.914062 153.136719 158.046875 C 153.054688 158.1875 152.945312 158.304688 152.8125 158.394531 C 152.683594 158.484375 152.523438 158.546875 152.347656 158.59375 C 152.164062 158.628906 151.976562 158.644531 151.785156 158.644531 L 149.867188 158.644531 L 149.867188 154.820312 L 151.621094 154.820312 C 151.84375 154.820312 152.042969 154.839844 152.214844 154.875 C 152.394531 154.914062 152.542969 154.96875 152.660156 155.050781 C 152.78125 155.132812 152.871094 155.230469 152.929688 155.355469 C 152.996094 155.480469 153.027344 155.621094 153.027344 155.777344 C 153.027344 155.996094 152.964844 156.179688 152.84375 156.332031 C 152.726562 156.476562 152.546875 156.578125 152.304688 156.636719 C 152.613281 156.675781 152.847656 156.773438 153.007812 156.929688 C 153.171875 157.082031 153.253906 157.289062 153.253906 157.550781 Z M 152.226562 155.886719 C 152.226562 155.710938 152.171875 155.589844 152.066406 155.515625 C 151.957031 155.445312 151.792969 155.40625 151.578125 155.40625 L 150.667969 155.40625 L 150.667969 156.363281 L 151.589844 156.363281 C 151.8125 156.363281 151.972656 156.328125 152.074219 156.246094 C 152.175781 156.164062 152.226562 156.046875 152.226562 155.886719 Z M 152.453125 157.496094 C 152.453125 157.394531 152.433594 157.308594 152.390625 157.246094 C 152.351562 157.175781 152.296875 157.113281 152.226562 157.070312 C 152.152344 157.027344 152.070312 157 151.976562 156.984375 C 151.890625 156.960938 151.792969 156.949219 151.6875 156.949219 L 150.667969 156.949219 L 150.667969 158.046875 L 151.707031 158.046875 C 151.816406 158.046875 151.914062 158.042969 152 158.027344 C 152.09375 158.003906 152.171875 157.976562 152.238281 157.941406 C 152.304688 157.898438 152.351562 157.839844 152.390625 157.765625 C 152.433594 157.695312 152.453125 157.601562 152.453125 157.496094 Z M 152.453125 157.496094 "/>
<path style=" stroke:none;fill-rule:nonzero;fill:rgb(0%,0%,47.058824%);fill-opacity:1;" d="M 154.054688 158.644531 L 154.054688 156.398438 C 154.054688 156.332031 154.054688 156.265625 154.054688 156.203125 C 154.054688 156.128906 154.050781 156.058594 154.042969 155.996094 C 154.042969 155.929688 154.039062 155.871094 154.035156 155.820312 C 154.035156 155.773438 154.035156 155.730469 154.035156 155.703125 L 154.757812 155.703125 C 154.757812 155.722656 154.757812 155.765625 154.757812 155.820312 C 154.765625 155.871094 154.769531 155.929688 154.769531 155.996094 C 154.773438 156.058594 154.78125 156.125 154.78125 156.191406 C 154.785156 156.25 154.789062 156.296875 154.789062 156.332031 L 154.800781 156.332031 C 154.835938 156.222656 154.871094 156.128906 154.910156 156.050781 C 154.953125 155.960938 155 155.890625 155.050781 155.832031 C 155.097656 155.773438 155.160156 155.730469 155.234375 155.703125 C 155.304688 155.667969 155.398438 155.648438 155.503906 155.648438 C 155.546875 155.648438 155.589844 155.652344 155.636719 155.65625 C 155.679688 155.667969 155.714844 155.675781 155.742188 155.691406 L 155.742188 156.332031 C 155.691406 156.316406 155.640625 156.308594 155.589844 156.300781 C 155.539062 156.292969 155.484375 156.289062 155.417969 156.289062 C 155.222656 156.289062 155.070312 156.363281 154.964844 156.515625 C 154.859375 156.667969 154.8125 156.898438 154.8125 157.199219 L 154.8125 158.644531 Z M 154.054688 158.644531 "/>
<path style=" stroke:none;fill-rule:nonzero;fill:rgb(0%,0%,47.058824%);fill-opacity:1;" d="M 20.804688 157.550781 C 20.804688 157.746094 20.761719 157.914062 20.683594 158.046875 C 20.605469 158.1875 20.496094 158.304688 20.359375 158.394531 C 20.230469 158.484375 20.074219 158.546875 19.894531 158.59375 C 19.714844 158.628906 19.527344 158.644531 19.332031 158.644531 L 17.417969 158.644531 L 17.417969 154.820312 L 19.167969 154.820312 C 19.390625 154.820312 19.589844 154.839844 19.765625 154.875 C 19.945312 154.914062 20.09375 154.96875 20.207031 155.050781 C 20.332031 155.132812 20.417969 155.230469 20.480469 155.355469 C 20.542969 155.480469 20.578125 155.621094 20.578125 155.777344 C 20.578125 155.996094 20.515625 156.179688 20.390625 156.332031 C 20.277344 156.476562 20.09375 156.578125 19.851562 156.636719 C 20.160156 156.675781 20.394531 156.773438 20.554688 156.929688 C 20.71875 157.082031 20.804688 157.289062 20.804688 157.550781 Z M 19.777344 155.886719 C 19.777344 155.710938 19.722656 155.589844 19.613281 155.515625 C 19.503906 155.445312 19.34375 155.40625 19.125 155.40625 L 18.21875 155.40625 L 18.21875 156.363281 L 19.136719 156.363281 C 19.359375 156.363281 19.519531 156.328125 19.625 156.246094 C 19.722656 156.164062 19.777344 156.046875 19.777344 155.886719 Z M 20.003906 157.496094 C 20.003906 157.394531 19.980469 157.308594 19.9375 157.246094 C 19.898438 157.175781 19.847656 157.113281 19.777344 157.070312 C 19.703125 157.027344 19.617188 157 19.527344 156.984375 C 19.441406 156.960938 19.34375 156.949219 19.234375 156.949219 L 18.21875 156.949219 L 18.21875 158.046875 L 19.257812 158.046875 C 19.363281 158.046875 19.460938 158.042969 19.546875 158.027344 C 19.640625 158.003906 19.722656 157.976562 19.785156 157.941406 C 19.851562 157.898438 19.898438 157.839844 19.9375 157.765625 C 19.980469 157.695312 20.003906 157.601562 20.003906 157.496094 Z M 20.003906 157.496094 "/>
<path style=" stroke:none;fill-rule:nonzero;fill:rgb(0%,0%,47.058824%);fill-opacity:1;" d="M 21.605469 158.644531 L 21.605469 156.398438 C 21.605469 156.332031 21.605469 156.265625 21.605469 156.203125 C 21.605469 156.128906 21.597656 156.058594 21.59375 155.996094 C 21.59375 155.929688 21.585938 155.871094 21.582031 155.820312 C 21.582031 155.773438 21.582031 155.730469 21.582031 155.703125 L 22.308594 155.703125 C 22.308594 155.722656 22.308594 155.765625 22.308594 155.820312 C 22.3125 155.871094 22.316406 155.929688 22.316406 155.996094 C 22.324219 156.058594 22.328125 156.125 22.328125 156.191406 C 22.335938 156.25 22.339844 156.296875 22.339844 156.332031 L 22.351562 156.332031 C 22.386719 156.222656 22.421875 156.128906 22.457031 156.050781 C 22.5 155.960938 22.546875 155.890625 22.597656 155.832031 C 22.648438 155.773438 22.710938 155.730469 22.78125 155.703125 C 22.851562 155.667969 22.945312 155.648438 23.054688 155.648438 C 23.097656 155.648438 23.140625 155.652344 23.183594 155.65625 C 23.226562 155.667969 23.261719 155.675781 23.292969 155.691406 L 23.292969 156.332031 C 23.242188 156.316406 23.1875 156.308594 23.140625 156.300781 C 23.089844 156.292969 23.03125 156.289062 22.96875 156.289062 C 22.773438 156.289062 22.621094 156.363281 22.511719 156.515625 C 22.410156 156.667969 22.359375 156.898438 22.359375 157.199219 L 22.359375 158.644531 Z M 21.605469 158.644531 "/>
<path style=" stroke:none;fill-rule:nonzero;fill:rgb(0%,0%,47.058824%);fill-opacity:1;" d="M 55.703125 16.152344 L 55.703125 17.339844 L 57.652344 17.339844 L 57.652344 17.957031 L 55.703125 17.957031 L 55.703125 19.359375 L 54.902344 19.359375 L 54.902344 15.535156 L 57.71875 15.535156 L 57.71875 16.152344 Z M 55.703125 16.152344 "/>
<path style=" stroke:none;fill-rule:nonzero;fill:rgb(0%,0%,47.058824%);fill-opacity:1;" d="M 42.691406 33.460938 L 42.691406 34.648438 L 44.640625 34.648438 L 44.640625 35.265625 L 42.691406 35.265625 L 42.691406 36.667969 L 41.890625 36.667969 L 41.890625 32.84375 L 44.703125 32.84375 L 44.703125 33.460938 Z M 42.691406 33.460938 "/>
<path style=" stroke:none;fill-rule:nonzero;fill:rgb(0%,0%,47.058824%);fill-opacity:1;" d="M 73.941406 27.769531 L 73.941406 28.953125 L 75.890625 28.953125 L 75.890625 29.570312 L 73.941406 29.570312 L 73.941406 30.972656 L 73.140625 30.972656 L 73.140625 27.148438 L 75.953125 27.148438 L 75.953125 27.769531 Z M 73.941406 27.769531 "/>
<path style=" stroke:none;fill-rule:nonzero;fill:rgb(0%,0%,0%);fill-opacity:1;" d="M 35.292969 94.914062 L 35.292969 96.339844 L 37.414062 96.339844 L 37.414062 96.761719 L 35.292969 96.761719 L 35.292969 98.316406 L 34.773438 98.316406 L 34.773438 94.492188 L 37.480469 94.492188 L 37.480469 94.914062 Z M 35.292969 94.914062 "/>
<path style=" stroke:none;fill-rule:nonzero;fill:rgb(0%,0%,0%);fill-opacity:1;" d="M 24.339844 65.152344 L 24.339844 66.578125 L 26.460938 66.578125 L 26.460938 67 L 24.339844 67 L 24.339844 68.554688 L 23.820312 68.554688 L 23.820312 64.730469 L 26.527344 64.730469 L 26.527344 65.152344 Z M 24.339844 65.152344 "/>
<path style=" stroke:none;fill-rule:nonzero;fill:rgb(0%,0%,0%);fill-opacity:1;" d="M 16.222656 85.085938 L 16.222656 86.507812 L 18.34375 86.507812 L 18.34375 86.933594 L 16.222656 86.933594 L 16.222656 88.488281 L 15.703125 88.488281 L 15.703125 84.660156 L 18.40625 84.660156 L 18.40625 85.085938 Z M 16.222656 85.085938 "/>
<path style=" stroke:none;fill-rule:nonzero;fill:rgb(0%,0%,47.058824%);fill-opacity:1;" d="M 88.707031 96.609375 C 88.707031 96.910156 88.65625 97.179688 88.566406 97.425781 C 88.480469 97.671875 88.351562 97.882812 88.1875 98.054688 C 88.019531 98.230469 87.820312 98.363281 87.582031 98.457031 C 87.34375 98.550781 87.074219 98.597656 86.769531 98.597656 C 86.449219 98.597656 86.175781 98.550781 85.9375 98.457031 C 85.699219 98.355469 85.496094 98.21875 85.332031 98.042969 C 85.171875 97.863281 85.050781 97.652344 84.972656 97.414062 C 84.890625 97.167969 84.855469 96.902344 84.855469 96.609375 C 84.855469 96.3125 84.890625 96.042969 84.972656 95.804688 C 85.058594 95.5625 85.183594 95.355469 85.351562 95.1875 C 85.515625 95.019531 85.71875 94.890625 85.957031 94.796875 C 86.195312 94.703125 86.46875 94.652344 86.78125 94.652344 C 87.089844 94.652344 87.363281 94.703125 87.601562 94.796875 C 87.839844 94.890625 88.039062 95.023438 88.199219 95.195312 C 88.363281 95.367188 88.492188 95.566406 88.578125 95.804688 C 88.664062 96.042969 88.707031 96.3125 88.707031 96.609375 Z M 87.894531 96.609375 C 87.894531 96.410156 87.867188 96.226562 87.820312 96.066406 C 87.769531 95.910156 87.695312 95.769531 87.601562 95.652344 C 87.507812 95.539062 87.390625 95.445312 87.257812 95.382812 C 87.117188 95.316406 86.960938 95.285156 86.78125 95.285156 C 86.589844 95.285156 86.425781 95.316406 86.28125 95.382812 C 86.144531 95.445312 86.027344 95.539062 85.9375 95.652344 C 85.84375 95.769531 85.769531 95.910156 85.71875 96.066406 C 85.675781 96.226562 85.65625 96.410156 85.65625 96.609375 C 85.65625 96.8125 85.679688 97 85.730469 97.164062 C 85.78125 97.324219 85.851562 97.464844 85.949219 97.585938 C 86.039062 97.703125 86.15625 97.800781 86.292969 97.871094 C 86.429688 97.933594 86.589844 97.96875 86.769531 97.96875 C 86.964844 97.96875 87.128906 97.933594 87.265625 97.871094 C 87.410156 97.800781 87.53125 97.703125 87.625 97.585938 C 87.714844 97.464844 87.785156 97.320312 87.832031 97.152344 C 87.875 96.988281 87.894531 96.804688 87.894531 96.609375 Z M 87.894531 96.609375 "/>
<path style=" stroke:none;fill-rule:nonzero;fill:rgb(0%,0%,47.058824%);fill-opacity:1;" d="M 152.289062 67.582031 L 152.289062 68.765625 L 154.238281 68.765625 L 154.238281 69.386719 L 152.289062 69.386719 L 152.289062 70.789062 L 151.488281 70.789062 L 151.488281 66.960938 L 154.300781 66.960938 L 154.300781 67.582031 Z M 152.289062 67.582031 "/>
<path style=" stroke:none;fill-rule:nonzero;fill:rgb(0%,0%,47.058824%);fill-opacity:1;" d="M 132.105469 92.09375 L 132.105469 93.277344 L 134.054688 93.277344 L 134.054688 93.898438 L 132.105469 93.898438 L 132.105469 95.300781 L 131.304688 95.300781 L 131.304688 91.476562 L 134.117188 91.476562 L 134.117188 92.09375 Z M 132.105469 92.09375 "/>
<path style=" stroke:none;fill-rule:nonzero;fill:rgb(0%,0%,47.058824%);fill-opacity:1;" d="M 153.402344 89.136719 L 153.402344 90.320312 L 155.347656 90.320312 L 155.347656 90.941406 L 153.402344 90.941406 L 153.402344 92.339844 L 152.601562 92.339844 L 152.601562 88.515625 L 155.414062 88.515625 L 155.414062 89.136719 Z M 153.402344 89.136719 "/>
<path style=" stroke:none;fill-rule:nonzero;fill:rgb(0%,0%,0%);fill-opacity:1;" d="M 97.738281 27.347656 L 97.738281 28.773438 L 99.859375 28.773438 L 99.859375 29.195312 L 97.738281 29.195312 L 97.738281 30.75 L 97.21875 30.75 L 97.21875 26.925781 L 99.921875 26.925781 L 99.921875 27.347656 Z M 97.738281 27.347656 "/>
<path style=" stroke:none;fill-rule:nonzero;fill:rgb(0%,0%,0%);fill-opacity:1;" d="M 128.875 32.652344 L 128.875 34.074219 L 130.996094 34.074219 L 130.996094 34.5 L 128.875 34.5 L 128.875 36.054688 L 128.355469 36.054688 L 128.355469 32.230469 L 131.0625 32.230469 L 131.0625 32.652344 Z M 128.875 32.652344 "/>
<path style=" stroke:none;fill-rule:nonzero;fill:rgb(0%,0%,0%);fill-opacity:1;" d="M 115.75 15.566406 L 115.75 16.992188 L 117.871094 16.992188 L 117.871094 17.414062 L 115.75 17.414062 L 115.75 18.96875 L 115.230469 18.96875 L 115.230469 15.144531 L 117.9375 15.144531 L 117.9375 15.566406 Z M 115.75 15.566406 "/>
<path style=" stroke:none;fill-rule:nonzero;fill:rgb(0%,0%,47.058824%);fill-opacity:1;" d="M 103.304688 342.707031 C 103.304688 343.007812 103.257812 343.277344 103.164062 343.523438 C 103.078125 343.769531 102.949219 343.980469 102.785156 344.152344 C 102.617188 344.328125 102.417969 344.460938 102.179688 344.554688 C 101.941406 344.648438 101.671875 344.695312 101.367188 344.695312 C 101.046875 344.695312 100.773438 344.648438 100.535156 344.554688 C 100.296875 344.453125 100.09375 344.316406 99.929688 344.140625 C 99.769531 343.964844 99.648438 343.75 99.570312 343.511719 C 99.488281 343.265625 99.453125 343 99.453125 342.707031 C 99.453125 342.410156 99.488281 342.144531 99.570312 341.902344 C 99.65625 341.660156 99.78125 341.453125 99.949219 341.285156 C 100.113281 341.117188 100.316406 340.988281 100.554688 340.894531 C 100.792969 340.800781 101.066406 340.75 101.378906 340.75 C 101.6875 340.75 101.960938 340.800781 102.199219 340.894531 C 102.4375 340.988281 102.636719 341.121094 102.796875 341.296875 C 102.960938 341.464844 103.089844 341.664062 103.175781 341.902344 C 103.261719 342.144531 103.304688 342.410156 103.304688 342.707031 Z M 102.492188 342.707031 C 102.492188 342.507812 102.464844 342.324219 102.417969 342.164062 C 102.367188 342.007812 102.292969 341.867188 102.199219 341.75 C 102.105469 341.636719 101.988281 341.546875 101.855469 341.480469 C 101.714844 341.414062 101.558594 341.382812 101.378906 341.382812 C 101.1875 341.382812 101.023438 341.414062 100.878906 341.480469 C 100.742188 341.546875 100.625 341.636719 100.535156 341.75 C 100.441406 341.867188 100.367188 342.007812 100.316406 342.164062 C 100.273438 342.324219 100.253906 342.507812 100.253906 342.707031 C 100.253906 342.910156 100.277344 343.097656 100.328125 343.261719 C 100.378906 343.421875 100.449219 343.5625 100.546875 343.6875 C 100.636719 343.800781 100.753906 343.898438 100.890625 343.96875 C 101.027344 344.035156 101.1875 344.066406 101.367188 344.066406 C 101.5625 344.066406 101.726562 344.035156 101.867188 343.96875 C 102.007812 343.898438 102.128906 343.800781 102.222656 343.6875 C 102.3125 343.5625 102.382812 343.417969 102.429688 343.25 C 102.472656 343.085938 102.492188 342.902344 102.492188 342.707031 Z M 102.492188 342.707031 "/>
<path style=" stroke:none;fill-rule:nonzero;fill:rgb(0%,0%,0%);fill-opacity:1;" d="M 115.0625 335.730469 C 115.0625 336.027344 115.019531 336.300781 114.933594 336.542969 C 114.84375 336.789062 114.71875 337 114.554688 337.175781 C 114.394531 337.347656 114.195312 337.484375 113.957031 337.574219 C 113.726562 337.667969 113.464844 337.71875 113.167969 337.71875 C 112.847656 337.71875 112.574219 337.667969 112.335938 337.574219 C 112.101562 337.476562 111.90625 337.335938 111.75 337.164062 C 111.589844 336.984375 111.472656 336.773438 111.394531 336.53125 C 111.3125 336.289062 111.273438 336.019531 111.273438 335.730469 C 111.273438 335.433594 111.3125 335.164062 111.394531 334.925781 C 111.480469 334.679688 111.601562 334.472656 111.761719 334.304688 C 111.925781 334.140625 112.125 334.007812 112.355469 333.914062 C 112.59375 333.820312 112.863281 333.773438 113.167969 333.773438 C 113.472656 333.773438 113.742188 333.820312 113.980469 333.914062 C 114.21875 334.007812 114.414062 334.140625 114.574219 334.316406 C 114.730469 334.484375 114.851562 334.683594 114.933594 334.925781 C 115.019531 335.164062 115.0625 335.433594 115.0625 335.730469 Z M 114.53125 335.730469 C 114.53125 335.496094 114.5 335.289062 114.445312 335.097656 C 114.386719 334.910156 114.300781 334.75 114.183594 334.621094 C 114.070312 334.484375 113.925781 334.378906 113.753906 334.304688 C 113.585938 334.234375 113.390625 334.195312 113.167969 334.195312 C 112.945312 334.195312 112.746094 334.234375 112.574219 334.304688 C 112.398438 334.378906 112.253906 334.484375 112.140625 334.621094 C 112.03125 334.75 111.949219 334.910156 111.890625 335.097656 C 111.832031 335.289062 111.804688 335.496094 111.804688 335.730469 C 111.804688 335.960938 111.832031 336.175781 111.890625 336.371094 C 111.949219 336.558594 112.035156 336.722656 112.152344 336.859375 C 112.265625 336.996094 112.40625 337.105469 112.574219 337.183594 C 112.746094 337.257812 112.945312 337.292969 113.167969 337.292969 C 113.40625 337.292969 113.613281 337.257812 113.785156 337.183594 C 113.957031 337.105469 114.097656 336.996094 114.207031 336.859375 C 114.316406 336.714844 114.394531 336.550781 114.445312 336.359375 C 114.5 336.164062 114.53125 335.953125 114.53125 335.730469 Z M 114.53125 335.730469 "/>
<path style=" stroke:none;fill-rule:nonzero;fill:rgb(0%,0%,0%);fill-opacity:1;" d="M 111.332031 303.339844 C 111.332031 303.636719 111.289062 303.910156 111.203125 304.15625 C 111.117188 304.402344 110.992188 304.609375 110.824219 304.785156 C 110.664062 304.957031 110.46875 305.09375 110.230469 305.1875 C 109.996094 305.28125 109.734375 305.328125 109.441406 305.328125 C 109.121094 305.328125 108.84375 305.28125 108.605469 305.1875 C 108.375 305.085938 108.179688 304.949219 108.023438 304.773438 C 107.863281 304.59375 107.742188 304.382812 107.664062 304.144531 C 107.585938 303.898438 107.546875 303.628906 107.546875 303.339844 C 107.546875 303.042969 107.585938 302.773438 107.664062 302.535156 C 107.753906 302.289062 107.875 302.085938 108.035156 301.917969 C 108.199219 301.75 108.394531 301.621094 108.628906 301.523438 C 108.867188 301.433594 109.136719 301.382812 109.441406 301.382812 C 109.742188 301.382812 110.015625 301.433594 110.25 301.523438 C 110.488281 301.621094 110.6875 301.753906 110.847656 301.925781 C 111.003906 302.09375 111.121094 302.296875 111.203125 302.535156 C 111.289062 302.773438 111.332031 303.042969 111.332031 303.339844 Z M 110.804688 303.339844 C 110.804688 303.109375 110.773438 302.898438 110.71875 302.710938 C 110.65625 302.523438 110.570312 302.363281 110.457031 302.230469 C 110.339844 302.09375 110.199219 301.988281 110.023438 301.917969 C 109.855469 301.84375 109.660156 301.808594 109.441406 301.808594 C 109.214844 301.808594 109.019531 301.84375 108.84375 301.917969 C 108.671875 301.988281 108.527344 302.09375 108.414062 302.230469 C 108.304688 302.363281 108.21875 302.523438 108.164062 302.710938 C 108.105469 302.898438 108.078125 303.109375 108.078125 303.339844 C 108.078125 303.574219 108.105469 303.785156 108.164062 303.980469 C 108.21875 304.171875 108.308594 304.332031 108.421875 304.46875 C 108.535156 304.609375 108.675781 304.71875 108.84375 304.796875 C 109.019531 304.871094 109.214844 304.90625 109.441406 304.90625 C 109.679688 304.90625 109.882812 304.871094 110.058594 304.796875 C 110.230469 304.71875 110.371094 304.609375 110.480469 304.46875 C 110.585938 304.324219 110.664062 304.160156 110.71875 303.96875 C 110.773438 303.773438 110.804688 303.566406 110.804688 303.339844 Z M 110.804688 303.339844 "/>
<path style=" stroke:none;fill-rule:nonzero;fill:rgb(0%,0%,47.058824%);fill-opacity:1;" d="M 43.585938 414.128906 C 43.585938 414.425781 43.535156 414.699219 43.445312 414.941406 C 43.359375 415.191406 43.230469 415.398438 43.066406 415.574219 C 42.898438 415.746094 42.699219 415.882812 42.460938 415.976562 C 42.222656 416.066406 41.949219 416.117188 41.648438 416.117188 C 41.328125 416.117188 41.054688 416.066406 40.816406 415.976562 C 40.578125 415.875 40.375 415.738281 40.207031 415.5625 C 40.050781 415.382812 39.929688 415.171875 39.851562 414.933594 C 39.769531 414.6875 39.734375 414.417969 39.734375 414.128906 C 39.734375 413.832031 39.769531 413.5625 39.851562 413.324219 C 39.9375 413.078125 40.0625 412.871094 40.230469 412.703125 C 40.394531 412.539062 40.597656 412.410156 40.835938 412.3125 C 41.074219 412.222656 41.347656 412.171875 41.660156 412.171875 C 41.96875 412.171875 42.242188 412.222656 42.480469 412.3125 C 42.71875 412.410156 42.917969 412.542969 43.078125 412.714844 C 43.242188 412.882812 43.367188 413.085938 43.457031 413.324219 C 43.542969 413.5625 43.585938 413.832031 43.585938 414.128906 Z M 42.773438 414.128906 C 42.773438 413.925781 42.746094 413.746094 42.699219 413.585938 C 42.644531 413.425781 42.574219 413.289062 42.480469 413.171875 C 42.386719 413.058594 42.269531 412.964844 42.136719 412.898438 C 41.996094 412.835938 41.835938 412.800781 41.660156 412.800781 C 41.46875 412.800781 41.304688 412.835938 41.160156 412.898438 C 41.023438 412.964844 40.90625 413.058594 40.816406 413.171875 C 40.71875 413.289062 40.648438 413.425781 40.597656 413.585938 C 40.554688 413.746094 40.535156 413.925781 40.535156 414.128906 C 40.535156 414.332031 40.558594 414.515625 40.609375 414.683594 C 40.65625 414.84375 40.730469 414.984375 40.824219 415.105469 C 40.917969 415.222656 41.035156 415.316406 41.171875 415.386719 C 41.308594 415.453125 41.46875 415.488281 41.648438 415.488281 C 41.84375 415.488281 42.007812 415.453125 42.144531 415.386719 C 42.289062 415.316406 42.410156 415.222656 42.503906 415.105469 C 42.59375 414.984375 42.664062 414.839844 42.707031 414.671875 C 42.75 414.503906 42.773438 414.324219 42.773438 414.128906 Z M 42.773438 414.128906 "/>
<path style=" stroke:none;fill-rule:nonzero;fill:rgb(0%,0%,47.058824%);fill-opacity:1;" d="M 143.953125 406.199219 C 143.953125 406.496094 143.902344 406.769531 143.8125 407.011719 C 143.722656 407.261719 143.597656 407.46875 143.433594 407.644531 C 143.265625 407.816406 143.0625 407.953125 142.828125 408.046875 C 142.589844 408.136719 142.316406 408.1875 142.015625 408.1875 C 141.695312 408.1875 141.417969 408.136719 141.179688 408.046875 C 140.945312 407.945312 140.742188 407.804688 140.574219 407.632812 C 140.414062 407.453125 140.296875 407.242188 140.21875 407.003906 C 140.136719 406.757812 140.097656 406.488281 140.097656 406.199219 C 140.097656 405.902344 140.136719 405.632812 140.21875 405.394531 C 140.304688 405.148438 140.429688 404.941406 140.597656 404.773438 C 140.761719 404.609375 140.964844 404.476562 141.203125 404.382812 C 141.441406 404.289062 141.714844 404.242188 142.027344 404.242188 C 142.332031 404.242188 142.609375 404.289062 142.847656 404.382812 C 143.085938 404.476562 143.285156 404.609375 143.441406 404.785156 C 143.609375 404.953125 143.734375 405.15625 143.820312 405.394531 C 143.910156 405.632812 143.953125 405.902344 143.953125 406.199219 Z M 143.140625 406.199219 C 143.140625 405.996094 143.113281 405.816406 143.0625 405.65625 C 143.011719 405.496094 142.941406 405.359375 142.847656 405.242188 C 142.753906 405.128906 142.636719 405.035156 142.5 404.96875 C 142.363281 404.90625 142.203125 404.871094 142.027344 404.871094 C 141.835938 404.871094 141.671875 404.90625 141.527344 404.96875 C 141.390625 405.035156 141.273438 405.128906 141.179688 405.242188 C 141.085938 405.359375 141.015625 405.496094 140.964844 405.65625 C 140.921875 405.816406 140.898438 405.996094 140.898438 406.199219 C 140.898438 406.402344 140.925781 406.585938 140.976562 406.753906 C 141.023438 406.914062 141.097656 407.054688 141.191406 407.175781 C 141.285156 407.292969 141.402344 407.386719 141.539062 407.457031 C 141.671875 407.523438 141.832031 407.554688 142.015625 407.554688 C 142.210938 407.554688 142.375 407.523438 142.511719 407.457031 C 142.65625 407.386719 142.773438 407.292969 142.871094 407.175781 C 142.960938 407.054688 143.03125 406.910156 143.074219 406.742188 C 143.117188 406.574219 143.140625 406.394531 143.140625 406.199219 Z M 143.140625 406.199219 "/>
<path style="fill:none;stroke-width:0.06;stroke-linecap:butt;stroke-linejoin:miter;stroke:rgb(0%,0%,47.058824%);stroke-opacity:1;stroke-miterlimit:10;" d="M 4.156749 13.092204 L 3.348377 12.627599 " transform="matrix(17.313916,0,0,17.387097,17.053827,17.055995)"/>
<path style="fill:none;stroke-width:0.06;stroke-linecap:butt;stroke-linejoin:miter;stroke:rgb(0%,0%,47.058824%);stroke-opacity:1;stroke-miterlimit:10;" d="M 4.156749 13.092204 L 4.965348 12.639956 " transform="matrix(17.313916,0,0,17.387097,17.053827,17.055995)"/>
<path style="fill:none;stroke-width:0.06;stroke-linecap:butt;stroke-linejoin:miter;stroke:rgb(0%,0%,47.058824%);stroke-opacity:1;stroke-miterlimit:10;" d="M 4.156749 13.092204 L 4.14953 14.013999 " transform="matrix(17.313916,0,0,17.387097,17.053827,17.055995)"/>
<path style="fill:none;stroke-width:0.06;stroke-linecap:butt;stroke-linejoin:miter;stroke:rgb(0%,0%,47.058824%);stroke-opacity:1;stroke-miterlimit:10;" d="M 3.363719 12.636361 L 2.542486 13.098045 " transform="matrix(17.313916,0,0,17.387097,17.053827,17.055995)"/>
<path style="fill:none;stroke-width:0.06;stroke-linecap:butt;stroke-linejoin:miter;stroke:rgb(0%,0%,47.058824%);stroke-opacity:1;stroke-miterlimit:10;" d="M 3.197667 12.538408 L 2.543389 12.906182 " transform="matrix(17.313916,0,0,17.387097,17.053827,17.055995)"/>
<path style="fill:none;stroke-width:0.06;stroke-linecap:butt;stroke-linejoin:miter;stroke:rgb(0%,0%,47.058824%);stroke-opacity:1;stroke-miterlimit:10;" d="M 3.363493 12.653885 L 3.370713 11.68828 " transform="matrix(17.313916,0,0,17.387097,17.053827,17.055995)"/>
<path style="fill:none;stroke-width:0.06;stroke-linecap:butt;stroke-linejoin:miter;stroke:rgb(0%,0%,47.058824%);stroke-opacity:1;stroke-miterlimit:10;" d="M 4.950232 12.648493 L 5.767403 13.122533 " transform="matrix(17.313916,0,0,17.387097,17.053827,17.055995)"/>
<path style="fill:none;stroke-width:0.06;stroke-linecap:butt;stroke-linejoin:miter;stroke:rgb(0%,0%,47.058824%);stroke-opacity:1;stroke-miterlimit:10;" d="M 5.117411 12.553011 L 5.769433 12.930895 " transform="matrix(17.313916,0,0,17.387097,17.053827,17.055995)"/>
<path style="fill:none;stroke-width:0.06;stroke-linecap:butt;stroke-linejoin:miter;stroke:rgb(0%,0%,47.058824%);stroke-opacity:1;stroke-miterlimit:10;" d="M 4.950006 12.666017 L 4.957451 11.699738 " transform="matrix(17.313916,0,0,17.387097,17.053827,17.055995)"/>
<path style="fill:none;stroke-width:0.06;stroke-linecap:butt;stroke-linejoin:miter;stroke:rgb(0%,0%,47.058824%);stroke-opacity:1;stroke-miterlimit:10;" d="M 4.14953 14.013999 L 4.877133 14.019615 " transform="matrix(17.313916,0,0,17.387097,17.053827,17.055995)"/>
<path style="fill:none;stroke-width:0.06;stroke-linecap:butt;stroke-linejoin:miter;stroke:rgb(0%,0%,47.058824%);stroke-opacity:1;stroke-miterlimit:10;" d="M 4.14953 14.013999 L 3.42847 14.008158 " transform="matrix(17.313916,0,0,17.387097,17.053827,17.055995)"/>
<path style="fill:none;stroke-width:0.06;stroke-linecap:butt;stroke-linejoin:miter;stroke:rgb(0%,0%,47.058824%);stroke-opacity:1;stroke-miterlimit:10;" d="M 4.14953 14.013999 L 4.14389 14.773812 " transform="matrix(17.313916,0,0,17.387097,17.053827,17.055995)"/>
<path style="fill:none;stroke-width:0.06;stroke-linecap:butt;stroke-linejoin:miter;stroke:rgb(0%,0%,47.058824%);stroke-opacity:1;stroke-miterlimit:10;" d="M 2.572042 13.098045 L 1.729601 12.615243 " transform="matrix(17.313916,0,0,17.387097,17.053827,17.055995)"/>
<path style="fill:none;stroke-width:0.06;stroke-linecap:butt;stroke-linejoin:miter;stroke:rgb(0%,0%,47.058824%);stroke-opacity:1;stroke-miterlimit:10;" d="M 3.384926 11.714116 L 2.566176 11.207949 " transform="matrix(17.313916,0,0,17.387097,17.053827,17.055995)"/>
<path style="fill:none;stroke-width:0.06;stroke-linecap:butt;stroke-linejoin:miter;stroke:rgb(0%,0%,47.058824%);stroke-opacity:1;stroke-miterlimit:10;" d="M 3.217747 11.806453 L 2.562566 11.401609 " transform="matrix(17.313916,0,0,17.387097,17.053827,17.055995)"/>
<path style="fill:none;stroke-width:0.06;stroke-linecap:butt;stroke-linejoin:miter;stroke:rgb(0%,0%,47.058824%);stroke-opacity:1;stroke-miterlimit:10;" d="M 5.737848 13.122084 L 6.587282 12.652537 " transform="matrix(17.313916,0,0,17.387097,17.053827,17.055995)"/>
<path style="fill:none;stroke-width:0.06;stroke-linecap:butt;stroke-linejoin:miter;stroke:rgb(0%,0%,47.058824%);stroke-opacity:1;stroke-miterlimit:10;" d="M 4.942109 11.725799 L 5.782068 11.252432 " transform="matrix(17.313916,0,0,17.387097,17.053827,17.055995)"/>
<path style="fill:none;stroke-width:0.06;stroke-linecap:butt;stroke-linejoin:miter;stroke:rgb(0%,0%,47.058824%);stroke-opacity:1;stroke-miterlimit:10;" d="M 5.108161 11.823528 L 5.780263 11.444744 " transform="matrix(17.313916,0,0,17.387097,17.053827,17.055995)"/>
<path style="fill:none;stroke-width:0.06;stroke-linecap:butt;stroke-linejoin:miter;stroke:rgb(0%,0%,47.058824%);stroke-opacity:1;stroke-miterlimit:10;" d="M 1.744717 12.641753 L 1.76209 11.683337 " transform="matrix(17.313916,0,0,17.387097,17.053827,17.055995)"/>
<path style="fill:none;stroke-width:0.06;stroke-linecap:butt;stroke-linejoin:miter;stroke:rgb(0%,0%,47.058824%);stroke-opacity:1;stroke-miterlimit:10;" d="M 1.913251 12.546046 L 1.926787 11.781291 " transform="matrix(17.313916,0,0,17.387097,17.053827,17.055995)"/>
<path style="fill:none;stroke-width:0.06;stroke-linecap:butt;stroke-linejoin:miter;stroke:rgb(0%,0%,47.058824%);stroke-opacity:1;stroke-miterlimit:10;" d="M 6.57194 12.678373 L 6.57916 11.739279 " transform="matrix(17.313916,0,0,17.387097,17.053827,17.055995)"/>
<path style="fill:none;stroke-width:0.06;stroke-linecap:butt;stroke-linejoin:miter;stroke:rgb(0%,0%,47.058824%);stroke-opacity:1;stroke-miterlimit:10;" d="M 6.405889 12.579746 L 6.411529 11.834087 " transform="matrix(17.313916,0,0,17.387097,17.053827,17.055995)"/>
<path style="fill:none;stroke-width:0.06;stroke-linecap:butt;stroke-linejoin:miter;stroke:rgb(0%,0%,47.058824%);stroke-opacity:1;stroke-miterlimit:10;" d="M 1.777206 11.692549 L 1.195123 11.333087 " transform="matrix(17.313916,0,0,17.387097,17.053827,17.055995)"/>
<path style="fill:none;stroke-width:0.06;stroke-linecap:butt;stroke-linejoin:miter;stroke:rgb(0%,0%,47.058824%);stroke-opacity:1;stroke-miterlimit:10;" d="M 6.563818 11.747816 L 7.158083 11.413966 " transform="matrix(17.313916,0,0,17.387097,17.053827,17.055995)"/>
<path style="fill:none;stroke-width:0.06;stroke-linecap:butt;stroke-linejoin:miter;stroke:rgb(0%,0%,47.058824%);stroke-opacity:1;stroke-miterlimit:10;" d="M 2.596633 11.208623 L 1.746522 11.692099 " transform="matrix(17.313916,0,0,17.387097,17.053827,17.055995)"/>
<path style="fill:none;stroke-width:0.06;stroke-linecap:butt;stroke-linejoin:miter;stroke:rgb(0%,0%,47.058824%);stroke-opacity:1;stroke-miterlimit:10;" d="M 5.752061 11.252208 L 6.593825 11.748041 " transform="matrix(17.313916,0,0,17.387097,17.053827,17.055995)"/>
<path style="fill:none;stroke-width:0.06;stroke-linecap:butt;stroke-linejoin:miter;stroke:rgb(0%,0%,47.058824%);stroke-opacity:1;stroke-miterlimit:10;" d="M 4.581354 8.736648 L 3.453062 8.736648 " transform="matrix(17.313916,0,0,17.387097,17.053827,17.055995)"/>
<path style="fill:none;stroke-width:0.06;stroke-linecap:butt;stroke-linejoin:miter;stroke:rgb(0%,0%,47.058824%);stroke-opacity:1;stroke-miterlimit:10;" d="M 4.568043 8.736648 L 4.905334 7.680054 " transform="matrix(17.313916,0,0,17.387097,17.053827,17.055995)"/>
<path style="fill:none;stroke-width:0.06;stroke-linecap:butt;stroke-linejoin:miter;stroke:rgb(0%,0%,47.058824%);stroke-opacity:1;stroke-miterlimit:10;" d="M 4.446211 8.569947 L 4.710179 7.743634 " transform="matrix(17.313916,0,0,17.387097,17.053827,17.055995)"/>
<path style="fill:none;stroke-width:0.06;stroke-linecap:butt;stroke-linejoin:miter;stroke:rgb(0%,0%,47.058824%);stroke-opacity:1;stroke-miterlimit:10;" d="M 4.559018 8.726763 L 5.324975 9.578238 " transform="matrix(17.313916,0,0,17.387097,17.053827,17.055995)"/>
<path style="fill:none;stroke-width:0.06;stroke-linecap:butt;stroke-linejoin:miter;stroke:rgb(0%,0%,47.058824%);stroke-opacity:1;stroke-miterlimit:10;" d="M 3.466373 8.736648 L 3.126148 7.680054 " transform="matrix(17.313916,0,0,17.387097,17.053827,17.055995)"/>
<path style="fill:none;stroke-width:0.06;stroke-linecap:butt;stroke-linejoin:miter;stroke:rgb(0%,0%,47.058824%);stroke-opacity:1;stroke-miterlimit:10;" d="M 3.278437 8.696433 L 2.997323 7.824064 " transform="matrix(17.313916,0,0,17.387097,17.053827,17.055995)"/>
<path style="fill:none;stroke-width:0.06;stroke-linecap:butt;stroke-linejoin:miter;stroke:rgb(0%,0%,47.058824%);stroke-opacity:1;stroke-miterlimit:10;" d="M 3.475397 8.726763 L 2.709666 9.578238 " transform="matrix(17.313916,0,0,17.387097,17.053827,17.055995)"/>
<path style="fill:none;stroke-width:0.06;stroke-linecap:butt;stroke-linejoin:miter;stroke:rgb(0%,0%,47.058824%);stroke-opacity:1;stroke-miterlimit:10;" d="M 4.915938 7.687918 L 4.00446 7.01842 " transform="matrix(17.313916,0,0,17.387097,17.053827,17.055995)"/>
<path style="fill:none;stroke-width:0.06;stroke-linecap:butt;stroke-linejoin:miter;stroke:rgb(0%,0%,47.058824%);stroke-opacity:1;stroke-miterlimit:10;" d="M 4.892475 7.68275 L 6.013547 7.455166 " transform="matrix(17.313916,0,0,17.387097,17.053827,17.055995)"/>
<path style="fill:none;stroke-width:0.06;stroke-linecap:butt;stroke-linejoin:miter;stroke:rgb(0%,0%,47.058824%);stroke-opacity:1;stroke-miterlimit:10;" d="M 5.296097 9.569027 L 6.421907 9.324144 " transform="matrix(17.313916,0,0,17.387097,17.053827,17.055995)"/>
<path style="fill:none;stroke-width:0.06;stroke-linecap:butt;stroke-linejoin:miter;stroke:rgb(0%,0%,47.058824%);stroke-opacity:1;stroke-miterlimit:10;" d="M 5.355433 9.385701 L 6.293082 9.181482 " transform="matrix(17.313916,0,0,17.387097,17.053827,17.055995)"/>
<path style="fill:none;stroke-width:0.06;stroke-linecap:butt;stroke-linejoin:miter;stroke:rgb(0%,0%,47.058824%);stroke-opacity:1;stroke-miterlimit:10;" d="M 3.139008 7.682526 L 2.01771 7.455166 " transform="matrix(17.313916,0,0,17.387097,17.053827,17.055995)"/>
<path style="fill:none;stroke-width:0.06;stroke-linecap:butt;stroke-linejoin:miter;stroke:rgb(0%,0%,47.058824%);stroke-opacity:1;stroke-miterlimit:10;" d="M 2.738544 9.569027 L 1.612734 9.324144 " transform="matrix(17.313916,0,0,17.387097,17.053827,17.055995)"/>
<path style="fill:none;stroke-width:0.06;stroke-linecap:butt;stroke-linejoin:miter;stroke:rgb(0%,0%,47.058824%);stroke-opacity:1;stroke-miterlimit:10;" d="M 2.679208 9.385701 L 1.741785 9.181482 " transform="matrix(17.313916,0,0,17.387097,17.053827,17.055995)"/>
<path style="fill:none;stroke-width:0.06;stroke-linecap:butt;stroke-linejoin:miter;stroke:rgb(0%,0%,47.058824%);stroke-opacity:1;stroke-miterlimit:10;" d="M 4.105535 7.092559 L 4.105535 6.077079 " transform="matrix(17.313916,0,0,17.387097,17.053827,17.055995)"/>
<path style="fill:none;stroke-width:0.06;stroke-linecap:butt;stroke-linejoin:miter;stroke:rgb(0%,0%,47.058824%);stroke-opacity:1;stroke-miterlimit:10;" d="M 3.938807 7.09166 L 3.938807 6.077079 " transform="matrix(17.313916,0,0,17.387097,17.053827,17.055995)"/>
<path style="fill:none;stroke-width:0.06;stroke-linecap:butt;stroke-linejoin:miter;stroke:rgb(0%,0%,47.058824%);stroke-opacity:1;stroke-miterlimit:10;" d="M 5.985797 7.446179 L 6.751979 8.264629 " transform="matrix(17.313916,0,0,17.387097,17.053827,17.055995)"/>
<path style="fill:none;stroke-width:0.06;stroke-linecap:butt;stroke-linejoin:miter;stroke:rgb(0%,0%,47.058824%);stroke-opacity:1;stroke-miterlimit:10;" d="M 5.927588 7.628157 L 6.562916 8.306642 " transform="matrix(17.313916,0,0,17.387097,17.053827,17.055995)"/>
<path style="fill:none;stroke-width:0.06;stroke-linecap:butt;stroke-linejoin:miter;stroke:rgb(0%,0%,47.058824%);stroke-opacity:1;stroke-miterlimit:10;" d="M 2.045686 7.446179 L 1.286046 8.264629 " transform="matrix(17.313916,0,0,17.387097,17.053827,17.055995)"/>
<path style="fill:none;stroke-width:0.06;stroke-linecap:butt;stroke-linejoin:miter;stroke:rgb(0%,0%,47.058824%);stroke-opacity:1;stroke-miterlimit:10;" d="M 2.10412 7.628157 L 1.474658 8.306417 " transform="matrix(17.313916,0,0,17.387097,17.053827,17.055995)"/>
<path style="fill:none;stroke-width:0.06;stroke-linecap:butt;stroke-linejoin:miter;stroke:rgb(0%,0%,47.058824%);stroke-opacity:1;stroke-miterlimit:10;" d="M 6.735058 8.268224 L 7.606828 8.083101 " transform="matrix(17.313916,0,0,17.387097,17.053827,17.055995)"/>
<path style="fill:none;stroke-width:0.06;stroke-linecap:butt;stroke-linejoin:miter;stroke:rgb(0%,0%,47.058824%);stroke-opacity:1;stroke-miterlimit:10;" d="M 1.302967 8.268224 L 0.424428 8.082876 " transform="matrix(17.313916,0,0,17.387097,17.053827,17.055995)"/>
<path style="fill:none;stroke-width:0.06;stroke-linecap:butt;stroke-linejoin:miter;stroke:rgb(0%,0%,47.058824%);stroke-opacity:1;stroke-miterlimit:10;" d="M 3.115544 7.687693 L 4.039882 7.018644 " transform="matrix(17.313916,0,0,17.387097,17.053827,17.055995)"/>
<path style="fill:none;stroke-width:0.06;stroke-linecap:butt;stroke-linejoin:miter;stroke:rgb(0%,0%,47.058824%);stroke-opacity:1;stroke-miterlimit:10;" d="M 6.399797 9.344139 L 6.757169 8.248004 " transform="matrix(17.313916,0,0,17.387097,17.053827,17.055995)"/>
<path style="fill:none;stroke-width:0.06;stroke-linecap:butt;stroke-linejoin:miter;stroke:rgb(0%,0%,47.058824%);stroke-opacity:1;stroke-miterlimit:10;" d="M 1.634844 9.344139 L 1.280631 8.248004 " transform="matrix(17.313916,0,0,17.387097,17.053827,17.055995)"/>
<path style="fill:none;stroke-width:0.06;stroke-linecap:butt;stroke-linejoin:miter;stroke:rgb(0%,0%,47.058824%);stroke-opacity:1;stroke-miterlimit:10;" d="M 2.431259 0.934751 L 2.437576 1.86733 " transform="matrix(17.313916,0,0,17.387097,17.053827,17.055995)"/>
<path style="fill:none;stroke-width:0.06;stroke-linecap:butt;stroke-linejoin:miter;stroke:rgb(0%,0%,47.058824%);stroke-opacity:1;stroke-miterlimit:10;" d="M 2.431259 0.934751 L 2.297921 0.192686 " transform="matrix(17.313916,0,0,17.387097,17.053827,17.055995)"/>
<path style="fill:none;stroke-width:0.06;stroke-linecap:butt;stroke-linejoin:miter;stroke:rgb(0%,0%,47.058824%);stroke-opacity:1;stroke-miterlimit:10;" d="M 2.431259 0.934751 L 1.649509 1.005969 " transform="matrix(17.313916,0,0,17.387097,17.053827,17.055995)"/>
<path style="fill:none;stroke-width:0.06;stroke-linecap:butt;stroke-linejoin:miter;stroke:rgb(0%,0%,47.058824%);stroke-opacity:1;stroke-miterlimit:10;" d="M 2.431259 0.934751 L 3.169691 0.732104 " transform="matrix(17.313916,0,0,17.387097,17.053827,17.055995)"/>
<path style="fill:none;stroke-width:0.06;stroke-linecap:butt;stroke-linejoin:miter;stroke:rgb(0%,0%,47.058824%);stroke-opacity:1;stroke-miterlimit:10;" d="M 2.437576 1.850031 L 1.632588 2.32115 " transform="matrix(17.313916,0,0,17.387097,17.053827,17.055995)"/>
<path style="fill:none;stroke-width:0.06;stroke-linecap:butt;stroke-linejoin:miter;stroke:rgb(0%,0%,47.058824%);stroke-opacity:1;stroke-miterlimit:10;" d="M 2.439381 2.042118 L 1.799767 2.416183 " transform="matrix(17.313916,0,0,17.387097,17.053827,17.055995)"/>
<path style="fill:none;stroke-width:0.06;stroke-linecap:butt;stroke-linejoin:miter;stroke:rgb(0%,0%,47.058824%);stroke-opacity:1;stroke-miterlimit:10;" d="M 2.42246 1.841493 L 3.249333 2.30475 " transform="matrix(17.313916,0,0,17.387097,17.053827,17.055995)"/>
<path style="fill:none;stroke-width:0.06;stroke-linecap:butt;stroke-linejoin:miter;stroke:rgb(0%,0%,47.058824%);stroke-opacity:1;stroke-miterlimit:10;" d="M 1.647478 2.295089 L 1.654021 3.224523 " transform="matrix(17.313916,0,0,17.387097,17.053827,17.055995)"/>
<path style="fill:none;stroke-width:0.06;stroke-linecap:butt;stroke-linejoin:miter;stroke:rgb(0%,0%,47.058824%);stroke-opacity:1;stroke-miterlimit:10;" d="M 3.233991 2.278914 L 3.240534 3.202057 " transform="matrix(17.313916,0,0,17.387097,17.053827,17.055995)"/>
<path style="fill:none;stroke-width:0.06;stroke-linecap:butt;stroke-linejoin:miter;stroke:rgb(0%,0%,47.058824%);stroke-opacity:1;stroke-miterlimit:10;" d="M 3.06794 2.376867 L 3.073129 3.107024 " transform="matrix(17.313916,0,0,17.387097,17.053827,17.055995)"/>
<path style="fill:none;stroke-width:0.0333333;stroke-linecap:butt;stroke-linejoin:miter;stroke:rgb(0%,0%,0%);stroke-opacity:1;stroke-miterlimit:10;" d="M 1.662369 3.20992 L 0.863923 3.677221 " transform="matrix(17.313916,0,0,17.387097,17.053827,17.055995)"/>
<path style="fill:none;stroke-width:0.06;stroke-linecap:butt;stroke-linejoin:miter;stroke:rgb(0%,0%,47.058824%);stroke-opacity:1;stroke-miterlimit:10;" d="M 1.654021 3.214863 L 2.462393 3.676322 " transform="matrix(17.313916,0,0,17.387097,17.053827,17.055995)"/>
<path style="fill:none;stroke-width:0.06;stroke-linecap:butt;stroke-linejoin:miter;stroke:rgb(0%,0%,47.058824%);stroke-opacity:1;stroke-miterlimit:10;" d="M 1.820072 3.117583 L 2.46104 3.483785 " transform="matrix(17.313916,0,0,17.387097,17.053827,17.055995)"/>
<path style="fill:none;stroke-width:0.06;stroke-linecap:butt;stroke-linejoin:miter;stroke:rgb(0%,0%,47.058824%);stroke-opacity:1;stroke-miterlimit:10;" d="M 3.225418 3.193295 L 4.036046 3.663516 " transform="matrix(17.313916,0,0,17.387097,17.053827,17.055995)"/>
<path style="fill:none;stroke-width:0.0333333;stroke-linecap:butt;stroke-linejoin:miter;stroke:rgb(0%,0%,0%);stroke-opacity:1;stroke-miterlimit:10;" d="M 0.863923 3.677221 L 1.055018 4.390079 " transform="matrix(17.313916,0,0,17.387097,17.053827,17.055995)"/>
<path style="fill:none;stroke-width:0.0333333;stroke-linecap:butt;stroke-linejoin:miter;stroke:rgb(0%,0%,0%);stroke-opacity:1;stroke-miterlimit:10;" d="M 0.863923 3.677221 L 0.551223 3.023899 " transform="matrix(17.313916,0,0,17.387097,17.053827,17.055995)"/>
<path style="fill:none;stroke-width:0.0333333;stroke-linecap:butt;stroke-linejoin:miter;stroke:rgb(0%,0%,0%);stroke-opacity:1;stroke-miterlimit:10;" d="M 0.863923 3.677221 L 0.156174 3.940302 " transform="matrix(17.313916,0,0,17.387097,17.053827,17.055995)"/>
<path style="fill:none;stroke-width:0.06;stroke-linecap:butt;stroke-linejoin:miter;stroke:rgb(0%,0%,47.058824%);stroke-opacity:1;stroke-miterlimit:10;" d="M 4.005814 3.663516 L 4.829303 3.18678 " transform="matrix(17.313916,0,0,17.387097,17.053827,17.055995)"/>
<path style="fill:none;stroke-width:0.06;stroke-linecap:butt;stroke-linejoin:miter;stroke:rgb(0%,0%,47.058824%);stroke-opacity:1;stroke-miterlimit:10;" d="M 3.937228 3.606227 L 3.942868 4.419285 " transform="matrix(17.313916,0,0,17.387097,17.053827,17.055995)"/>
<path style="fill:none;stroke-width:0.06;stroke-linecap:butt;stroke-linejoin:miter;stroke:rgb(0%,0%,47.058824%);stroke-opacity:1;stroke-miterlimit:10;" d="M 4.103956 3.606676 L 4.109596 4.418162 " transform="matrix(17.313916,0,0,17.387097,17.053827,17.055995)"/>
<path style="fill:none;stroke-width:0.06;stroke-linecap:butt;stroke-linejoin:miter;stroke:rgb(0%,0%,47.058824%);stroke-opacity:1;stroke-miterlimit:10;" d="M 4.814187 3.195542 L 5.631809 3.650261 " transform="matrix(17.313916,0,0,17.387097,17.053827,17.055995)"/>
<path style="fill:none;stroke-width:0.06;stroke-linecap:butt;stroke-linejoin:miter;stroke:rgb(0%,0%,47.058824%);stroke-opacity:1;stroke-miterlimit:10;" d="M 4.980238 3.097139 L 5.629779 3.458398 " transform="matrix(17.313916,0,0,17.387097,17.053827,17.055995)"/>
<path style="fill:none;stroke-width:0.06;stroke-linecap:butt;stroke-linejoin:miter;stroke:rgb(0%,0%,47.058824%);stroke-opacity:1;stroke-miterlimit:10;" d="M 4.814187 3.212841 L 4.807418 2.272398 " transform="matrix(17.313916,0,0,17.387097,17.053827,17.055995)"/>
<path style="fill:none;stroke-width:0.06;stroke-linecap:butt;stroke-linejoin:miter;stroke:rgb(0%,0%,47.058824%);stroke-opacity:1;stroke-miterlimit:10;" d="M 5.602254 3.65071 L 6.422133 3.170604 " transform="matrix(17.313916,0,0,17.387097,17.053827,17.055995)"/>
<path style="fill:none;stroke-width:0.06;stroke-linecap:butt;stroke-linejoin:miter;stroke:rgb(0%,0%,47.058824%);stroke-opacity:1;stroke-miterlimit:10;" d="M 4.792753 2.298684 L 5.604285 1.824194 " transform="matrix(17.313916,0,0,17.387097,17.053827,17.055995)"/>
<path style="fill:none;stroke-width:0.06;stroke-linecap:butt;stroke-linejoin:miter;stroke:rgb(0%,0%,47.058824%);stroke-opacity:1;stroke-miterlimit:10;" d="M 4.959933 2.393941 L 5.604736 2.016956 " transform="matrix(17.313916,0,0,17.387097,17.053827,17.055995)"/>
<path style="fill:none;stroke-width:0.06;stroke-linecap:butt;stroke-linejoin:miter;stroke:rgb(0%,0%,47.058824%);stroke-opacity:1;stroke-miterlimit:10;" d="M 6.391901 3.170829 L 7.203432 3.635433 " transform="matrix(17.313916,0,0,17.387097,17.053827,17.055995)"/>
<path style="fill:none;stroke-width:0.06;stroke-linecap:butt;stroke-linejoin:miter;stroke:rgb(0%,0%,47.058824%);stroke-opacity:1;stroke-miterlimit:10;" d="M 6.407017 3.179591 L 6.400474 2.266333 " transform="matrix(17.313916,0,0,17.387097,17.053827,17.055995)"/>
<path style="fill:none;stroke-width:0.06;stroke-linecap:butt;stroke-linejoin:miter;stroke:rgb(0%,0%,47.058824%);stroke-opacity:1;stroke-miterlimit:10;" d="M 6.239612 3.084333 L 6.234648 2.362938 " transform="matrix(17.313916,0,0,17.387097,17.053827,17.055995)"/>
<path style="fill:none;stroke-width:0.0333333;stroke-linecap:butt;stroke-linejoin:miter;stroke:rgb(0%,0%,0%);stroke-opacity:1;stroke-miterlimit:10;" d="M 5.604285 1.83363 L 5.591425 0.91206 " transform="matrix(17.313916,0,0,17.387097,17.053827,17.055995)"/>
<path style="fill:none;stroke-width:0.06;stroke-linecap:butt;stroke-linejoin:miter;stroke:rgb(0%,0%,47.058824%);stroke-opacity:1;stroke-miterlimit:10;" d="M 7.203432 3.635433 L 7.708129 3.120729 " transform="matrix(17.313916,0,0,17.387097,17.053827,17.055995)"/>
<path style="fill:none;stroke-width:0.06;stroke-linecap:butt;stroke-linejoin:miter;stroke:rgb(0%,0%,47.058824%);stroke-opacity:1;stroke-miterlimit:10;" d="M 7.203432 3.635433 L 6.792364 4.228321 " transform="matrix(17.313916,0,0,17.387097,17.053827,17.055995)"/>
<path style="fill:none;stroke-width:0.06;stroke-linecap:butt;stroke-linejoin:miter;stroke:rgb(0%,0%,47.058824%);stroke-opacity:1;stroke-miterlimit:10;" d="M 7.203432 3.635433 L 7.760697 4.096443 " transform="matrix(17.313916,0,0,17.387097,17.053827,17.055995)"/>
<path style="fill:none;stroke-width:0.0333333;stroke-linecap:butt;stroke-linejoin:miter;stroke:rgb(0%,0%,0%);stroke-opacity:1;stroke-miterlimit:10;" d="M 5.591425 0.91206 L 4.855248 0.716602 " transform="matrix(17.313916,0,0,17.387097,17.053827,17.055995)"/>
<path style="fill:none;stroke-width:0.0333333;stroke-linecap:butt;stroke-linejoin:miter;stroke:rgb(0%,0%,0%);stroke-opacity:1;stroke-miterlimit:10;" d="M 5.591425 0.91206 L 6.377461 0.972719 " transform="matrix(17.313916,0,0,17.387097,17.053827,17.055995)"/>
<path style="fill:none;stroke-width:0.0333333;stroke-linecap:butt;stroke-linejoin:miter;stroke:rgb(0%,0%,0%);stroke-opacity:1;stroke-miterlimit:10;" d="M 5.591425 0.91206 L 5.719347 0.169097 " transform="matrix(17.313916,0,0,17.387097,17.053827,17.055995)"/>
<path style="fill:none;stroke-width:0.06;stroke-linecap:butt;stroke-linejoin:miter;stroke:rgb(0%,0%,47.058824%);stroke-opacity:1;stroke-miterlimit:10;" d="M 3.255424 3.19307 L 2.432161 3.676322 " transform="matrix(17.313916,0,0,17.387097,17.053827,17.055995)"/>
<path style="fill:none;stroke-width:0.06;stroke-linecap:butt;stroke-linejoin:miter;stroke:rgb(0%,0%,47.058824%);stroke-opacity:1;stroke-miterlimit:10;" d="M 5.595937 1.819476 L 6.41559 2.291944 " transform="matrix(17.313916,0,0,17.387097,17.053827,17.055995)"/>
<path style="fill:none;stroke-width:0.0333333;stroke-linecap:butt;stroke-linejoin:miter;stroke:rgb(0%,0%,0%);stroke-opacity:1;stroke-miterlimit:10;" d="M 4.083651 19.440302 L 3.429147 18.581637 " transform="matrix(17.313916,0,0,17.387097,17.053827,17.055995)"/>
<path style="fill:none;stroke-width:0.06;stroke-linecap:butt;stroke-linejoin:miter;stroke:rgb(0%,0%,47.058824%);stroke-opacity:1;stroke-miterlimit:10;" d="M 4.083651 19.440302 L 3.401847 20.288408 " transform="matrix(17.313916,0,0,17.387097,17.053827,17.055995)"/>
<path style="fill:none;stroke-width:0.06;stroke-linecap:butt;stroke-linejoin:miter;stroke:rgb(0%,0%,47.058824%);stroke-opacity:1;stroke-miterlimit:10;" d="M 4.083651 19.440302 L 4.863596 20.187534 " transform="matrix(17.313916,0,0,17.387097,17.053827,17.055995)"/>
<path style="fill:none;stroke-width:0.06;stroke-linecap:butt;stroke-linejoin:miter;stroke:rgb(0%,0%,47.058824%);stroke-opacity:1;stroke-miterlimit:10;" d="M 4.083651 19.440302 L 4.707246 18.877744 " transform="matrix(17.313916,0,0,17.387097,17.053827,17.055995)"/>
<path style="fill:none;stroke-width:0.0333333;stroke-linecap:butt;stroke-linejoin:miter;stroke:rgb(0%,0%,0%);stroke-opacity:1;stroke-miterlimit:10;" d="M 3.434787 18.589276 L 3.858714 17.593566 " transform="matrix(17.313916,0,0,17.387097,17.053827,17.055995)"/>
<path style="fill:none;stroke-width:0.0333333;stroke-linecap:butt;stroke-linejoin:miter;stroke:rgb(0%,0%,0%);stroke-opacity:1;stroke-miterlimit:10;" d="M 3.319724 18.434258 L 3.66762 17.616931 " transform="matrix(17.313916,0,0,17.387097,17.053827,17.055995)"/>
<path style="fill:none;stroke-width:0.0333333;stroke-linecap:butt;stroke-linejoin:miter;stroke:rgb(0%,0%,0%);stroke-opacity:1;stroke-miterlimit:10;" d="M 3.444263 18.588152 L 2.355904 18.709022 " transform="matrix(17.313916,0,0,17.387097,17.053827,17.055995)"/>
<path style="fill:none;stroke-width:0.06;stroke-linecap:butt;stroke-linejoin:miter;stroke:rgb(0%,0%,47.058824%);stroke-opacity:1;stroke-miterlimit:10;" d="M 3.412451 20.275152 L 3.820134 21.306134 " transform="matrix(17.313916,0,0,17.387097,17.053827,17.055995)"/>
<path style="fill:none;stroke-width:0.06;stroke-linecap:butt;stroke-linejoin:miter;stroke:rgb(0%,0%,47.058824%);stroke-opacity:1;stroke-miterlimit:10;" d="M 3.293327 20.42725 L 3.629942 21.278501 " transform="matrix(17.313916,0,0,17.387097,17.053827,17.055995)"/>
<path style="fill:none;stroke-width:0.06;stroke-linecap:butt;stroke-linejoin:miter;stroke:rgb(0%,0%,47.058824%);stroke-opacity:1;stroke-miterlimit:10;" d="M 3.429147 20.277399 L 2.326123 20.128447 " transform="matrix(17.313916,0,0,17.387097,17.053827,17.055995)"/>
<path style="fill:none;stroke-width:0.06;stroke-linecap:butt;stroke-linejoin:miter;stroke:rgb(0%,0%,47.058824%);stroke-opacity:1;stroke-miterlimit:10;" d="M 4.851187 20.175626 L 4.606397 21.239409 " transform="matrix(17.313916,0,0,17.387097,17.053827,17.055995)"/>
<path style="fill:none;stroke-width:0.06;stroke-linecap:butt;stroke-linejoin:miter;stroke:rgb(0%,0%,47.058824%);stroke-opacity:1;stroke-miterlimit:10;" d="M 4.991519 20.308178 L 4.790272 21.184142 " transform="matrix(17.313916,0,0,17.387097,17.053827,17.055995)"/>
<path style="fill:none;stroke-width:0.06;stroke-linecap:butt;stroke-linejoin:miter;stroke:rgb(0%,0%,47.058824%);stroke-opacity:1;stroke-miterlimit:10;" d="M 4.834492 20.180344 L 5.904801 19.86896 " transform="matrix(17.313916,0,0,17.387097,17.053827,17.055995)"/>
<path style="fill:none;stroke-width:0.0333333;stroke-linecap:butt;stroke-linejoin:miter;stroke:rgb(0%,0%,0%);stroke-opacity:1;stroke-miterlimit:10;" d="M 3.86458 17.601205 L 3.201051 16.722095 " transform="matrix(17.313916,0,0,17.387097,17.053827,17.055995)"/>
<path style="fill:none;stroke-width:0.0333333;stroke-linecap:butt;stroke-linejoin:miter;stroke:rgb(0%,0%,0%);stroke-opacity:1;stroke-miterlimit:10;" d="M 3.849239 17.594914 L 4.924963 17.460565 " transform="matrix(17.313916,0,0,17.387097,17.053827,17.055995)"/>
<path style="fill:none;stroke-width:0.0333333;stroke-linecap:butt;stroke-linejoin:miter;stroke:rgb(0%,0%,0%);stroke-opacity:1;stroke-miterlimit:10;" d="M 2.37102 18.715537 L 1.710875 17.842718 " transform="matrix(17.313916,0,0,17.387097,17.053827,17.055995)"/>
<path style="fill:none;stroke-width:0.0333333;stroke-linecap:butt;stroke-linejoin:miter;stroke:rgb(0%,0%,0%);stroke-opacity:1;stroke-miterlimit:10;" d="M 2.446826 18.5394 L 1.90197 17.819128 " transform="matrix(17.313916,0,0,17.387097,17.053827,17.055995)"/>
<path style="fill:none;stroke-width:0.06;stroke-linecap:butt;stroke-linejoin:miter;stroke:rgb(0%,0%,47.058824%);stroke-opacity:1;stroke-miterlimit:10;" d="M 3.824647 21.276479 L 3.14149 22.148399 " transform="matrix(17.313916,0,0,17.387097,17.053827,17.055995)"/>
<path style="fill:none;stroke-width:0.06;stroke-linecap:butt;stroke-linejoin:miter;stroke:rgb(0%,0%,47.058824%);stroke-opacity:1;stroke-miterlimit:10;" d="M 2.353422 20.117438 L 1.657631 20.989134 " transform="matrix(17.313916,0,0,17.387097,17.053827,17.055995)"/>
<path style="fill:none;stroke-width:0.06;stroke-linecap:butt;stroke-linejoin:miter;stroke:rgb(0%,0%,47.058824%);stroke-opacity:1;stroke-miterlimit:10;" d="M 2.424942 20.295372 L 1.848951 21.016543 " transform="matrix(17.313916,0,0,17.387097,17.053827,17.055995)"/>
<path style="fill:none;stroke-width:0.06;stroke-linecap:butt;stroke-linejoin:miter;stroke:rgb(0%,0%,47.058824%);stroke-opacity:1;stroke-miterlimit:10;" d="M 4.597824 21.210877 L 5.400104 21.973161 " transform="matrix(17.313916,0,0,17.387097,17.053827,17.055995)"/>
<path style="fill:none;stroke-width:0.06;stroke-linecap:butt;stroke-linejoin:miter;stroke:rgb(0%,0%,47.058824%);stroke-opacity:1;stroke-miterlimit:10;" d="M 5.875923 19.862445 L 6.691515 20.608329 " transform="matrix(17.313916,0,0,17.387097,17.053827,17.055995)"/>
<path style="fill:none;stroke-width:0.06;stroke-linecap:butt;stroke-linejoin:miter;stroke:rgb(0%,0%,47.058824%);stroke-opacity:1;stroke-miterlimit:10;" d="M 5.832605 20.048467 L 6.506963 20.665393 " transform="matrix(17.313916,0,0,17.387097,17.053827,17.055995)"/>
<path style="fill:none;stroke-width:0.0333333;stroke-linecap:butt;stroke-linejoin:miter;stroke:rgb(0%,0%,0%);stroke-opacity:1;stroke-miterlimit:10;" d="M 3.216168 16.728611 L 2.127809 16.855995 " transform="matrix(17.313916,0,0,17.387097,17.053827,17.055995)"/>
<path style="fill:none;stroke-width:0.0333333;stroke-linecap:butt;stroke-linejoin:miter;stroke:rgb(0%,0%,0%);stroke-opacity:1;stroke-miterlimit:10;" d="M 3.140813 16.905196 L 2.243549 17.010339 " transform="matrix(17.313916,0,0,17.387097,17.053827,17.055995)"/>
<path style="fill:none;stroke-width:0.0333333;stroke-linecap:butt;stroke-linejoin:miter;stroke:rgb(0%,0%,0%);stroke-opacity:1;stroke-miterlimit:10;" d="M 4.909621 17.45405 L 5.423117 18.154327 " transform="matrix(17.313916,0,0,17.387097,17.053827,17.055995)"/>
<path style="fill:none;stroke-width:0.0333333;stroke-linecap:butt;stroke-linejoin:miter;stroke:rgb(0%,0%,0%);stroke-opacity:1;stroke-miterlimit:10;" d="M 4.972793 17.540096 L 5.333549 16.686599 " transform="matrix(17.313916,0,0,17.387097,17.053827,17.055995)"/>
<path style="fill:none;stroke-width:0.0333333;stroke-linecap:butt;stroke-linejoin:miter;stroke:rgb(0%,0%,0%);stroke-opacity:1;stroke-miterlimit:10;" d="M 4.819827 17.47382 L 5.180131 16.621671 " transform="matrix(17.313916,0,0,17.387097,17.053827,17.055995)"/>
<path style="fill:none;stroke-width:0.06;stroke-linecap:butt;stroke-linejoin:miter;stroke:rgb(0%,0%,47.058824%);stroke-opacity:1;stroke-miterlimit:10;" d="M 3.169466 22.137165 L 2.082912 21.980575 " transform="matrix(17.313916,0,0,17.387097,17.053827,17.055995)"/>
<path style="fill:none;stroke-width:0.06;stroke-linecap:butt;stroke-linejoin:miter;stroke:rgb(0%,0%,47.058824%);stroke-opacity:1;stroke-miterlimit:10;" d="M 3.097721 21.958333 L 2.200682 21.829151 " transform="matrix(17.313916,0,0,17.387097,17.053827,17.055995)"/>
<path style="fill:none;stroke-width:0.06;stroke-linecap:butt;stroke-linejoin:miter;stroke:rgb(0%,0%,47.058824%);stroke-opacity:1;stroke-miterlimit:10;" d="M 5.370775 21.966421 L 6.431383 21.6465 " transform="matrix(17.313916,0,0,17.387097,17.053827,17.055995)"/>
<path style="fill:none;stroke-width:0.06;stroke-linecap:butt;stroke-linejoin:miter;stroke:rgb(0%,0%,47.058824%);stroke-opacity:1;stroke-miterlimit:10;" d="M 5.415446 21.778827 L 6.291051 21.514622 " transform="matrix(17.313916,0,0,17.387097,17.053827,17.055995)"/>
<path style="fill:none;stroke-width:0.06;stroke-linecap:butt;stroke-linejoin:miter;stroke:rgb(0%,0%,47.058824%);stroke-opacity:1;stroke-miterlimit:10;" d="M 2.09329 21.96687 L 1.554751 22.6649 " transform="matrix(17.313916,0,0,17.387097,17.053827,17.055995)"/>
<path style="fill:none;stroke-width:0.06;stroke-linecap:butt;stroke-linejoin:miter;stroke:rgb(0%,0%,47.058824%);stroke-opacity:1;stroke-miterlimit:10;" d="M 6.418523 21.634593 L 7.05746 22.231749 " transform="matrix(17.313916,0,0,17.387097,17.053827,17.055995)"/>
<path style="fill:none;stroke-width:0.0333333;stroke-linecap:butt;stroke-linejoin:miter;stroke:rgb(0%,0%,0%);stroke-opacity:1;stroke-miterlimit:10;" d="M 1.712906 17.859343 L 2.141346 16.845885 " transform="matrix(17.313916,0,0,17.387097,17.053827,17.055995)"/>
<path style="fill:none;stroke-width:0.06;stroke-linecap:butt;stroke-linejoin:miter;stroke:rgb(0%,0%,47.058824%);stroke-opacity:1;stroke-miterlimit:10;" d="M 1.661692 20.959029 L 2.089455 21.996751 " transform="matrix(17.313916,0,0,17.387097,17.053827,17.055995)"/>
<path style="fill:none;stroke-width:0.06;stroke-linecap:butt;stroke-linejoin:miter;stroke:rgb(0%,0%,47.058824%);stroke-opacity:1;stroke-miterlimit:10;" d="M 6.682491 20.579347 L 6.427096 21.66335 " transform="matrix(17.313916,0,0,17.387097,17.053827,17.055995)"/>
</g>
</svg>
