<?xml version="1.0" encoding="UTF-8"?>
<svg xmlns="http://www.w3.org/2000/svg" xmlns:xlink="http://www.w3.org/1999/xlink" width="80pt" height="109.6pt" viewBox="0 0 80 109.6" version="1.1">
<g id="surface1417">
<path style=" stroke:none;fill-rule:nonzero;fill:rgb(0%,0%,0%);fill-opacity:1;" d="M 37.527344 15.542969 C 37.3125 15.542969 37.121094 15.578125 36.957031 15.648438 C 36.789062 15.722656 36.648438 15.828125 36.535156 15.960938 C 36.429688 16.09375 36.34375 16.253906 36.289062 16.4375 C 36.226562 16.628906 36.203125 16.835938 36.203125 17.066406 C 36.203125 17.296875 36.226562 17.507812 36.289062 17.703125 C 36.351562 17.894531 36.441406 18.054688 36.558594 18.191406 C 36.671875 18.328125 36.808594 18.4375 36.976562 18.515625 C 37.148438 18.585938 37.339844 18.621094 37.546875 18.621094 C 37.699219 18.621094 37.832031 18.605469 37.945312 18.566406 C 38.070312 18.523438 38.179688 18.46875 38.28125 18.394531 C 38.382812 18.324219 38.46875 18.242188 38.539062 18.148438 C 38.617188 18.054688 38.683594 17.945312 38.746094 17.824219 L 39.164062 18.039062 C 39.101562 18.183594 39.015625 18.316406 38.917969 18.4375 C 38.816406 18.5625 38.695312 18.671875 38.5625 18.761719 C 38.425781 18.847656 38.269531 18.917969 38.097656 18.96875 C 37.925781 19.015625 37.734375 19.042969 37.527344 19.042969 C 37.21875 19.042969 36.949219 18.996094 36.71875 18.902344 C 36.488281 18.804688 36.292969 18.664062 36.136719 18.492188 C 35.984375 18.3125 35.871094 18.101562 35.792969 17.867188 C 35.710938 17.621094 35.671875 17.355469 35.671875 17.066406 C 35.671875 16.769531 35.710938 16.503906 35.792969 16.265625 C 35.878906 16.023438 36 15.816406 36.160156 15.648438 C 36.316406 15.484375 36.507812 15.355469 36.742188 15.261719 C 36.96875 15.167969 37.230469 15.121094 37.527344 15.121094 C 37.929688 15.121094 38.261719 15.199219 38.527344 15.355469 C 38.800781 15.515625 39.003906 15.753906 39.132812 16.070312 L 38.648438 16.234375 C 38.609375 16.140625 38.5625 16.054688 38.496094 15.972656 C 38.4375 15.886719 38.363281 15.816406 38.269531 15.757812 C 38.175781 15.691406 38.070312 15.644531 37.945312 15.605469 C 37.824219 15.5625 37.683594 15.542969 37.527344 15.542969 Z M 37.527344 15.542969 "/>
<path style=" stroke:none;fill-rule:nonzero;fill:rgb(0%,0%,0%);fill-opacity:1;" d="M 39.917969 18.988281 L 39.917969 14.980469 L 40.402344 14.980469 L 40.402344 18.988281 Z M 39.917969 18.988281 "/>
<path style=" stroke:none;fill-rule:nonzero;fill:rgb(0%,0%,0%);fill-opacity:1;" d="M 44.898438 39.222656 C 44.675781 39.222656 44.507812 39.167969 44.394531 39.050781 C 44.285156 38.929688 44.230469 38.765625 44.230469 38.5625 C 44.230469 38.421875 44.257812 38.304688 44.320312 38.21875 C 44.375 38.125 44.449219 38.054688 44.535156 38 C 44.621094 37.945312 44.71875 37.902344 44.835938 37.882812 C 44.949219 37.859375 45.066406 37.851562 45.179688 37.851562 L 45.664062 37.839844 L 45.664062 37.71875 C 45.664062 37.632812 45.65625 37.558594 45.632812 37.492188 C 45.617188 37.429688 45.589844 37.378906 45.546875 37.34375 C 45.507812 37.296875 45.464844 37.273438 45.40625 37.253906 C 45.347656 37.234375 45.28125 37.222656 45.203125 37.222656 C 45.128906 37.222656 45.066406 37.230469 45.007812 37.246094 C 44.949219 37.253906 44.898438 37.273438 44.855469 37.296875 C 44.820312 37.320312 44.789062 37.359375 44.761719 37.40625 C 44.738281 37.449219 44.722656 37.503906 44.71875 37.570312 L 44.328125 37.535156 C 44.34375 37.449219 44.367188 37.371094 44.40625 37.296875 C 44.449219 37.226562 44.5 37.167969 44.566406 37.113281 C 44.636719 37.058594 44.722656 37.015625 44.824219 36.984375 C 44.933594 36.957031 45.0625 36.941406 45.210938 36.941406 C 45.484375 36.941406 45.691406 37.007812 45.828125 37.136719 C 45.96875 37.261719 46.042969 37.445312 46.042969 37.6875 L 46.042969 38.628906 C 46.042969 38.738281 46.054688 38.820312 46.074219 38.878906 C 46.101562 38.929688 46.160156 38.953125 46.246094 38.953125 C 46.261719 38.953125 46.28125 38.953125 46.300781 38.953125 C 46.324219 38.949219 46.34375 38.941406 46.367188 38.941406 L 46.367188 39.167969 C 46.316406 39.175781 46.269531 39.183594 46.226562 39.191406 C 46.183594 39.195312 46.132812 39.203125 46.085938 39.203125 C 46.011719 39.203125 45.949219 39.195312 45.902344 39.179688 C 45.851562 39.160156 45.8125 39.132812 45.785156 39.09375 C 45.753906 39.050781 45.730469 39.003906 45.707031 38.953125 C 45.691406 38.894531 45.6875 38.832031 45.6875 38.757812 L 45.664062 38.757812 C 45.628906 38.832031 45.585938 38.894531 45.535156 38.953125 C 45.492188 39.011719 45.4375 39.0625 45.375 39.105469 C 45.316406 39.140625 45.246094 39.167969 45.167969 39.191406 C 45.089844 39.210938 45 39.222656 44.898438 39.222656 Z M 44.976562 38.941406 C 45.089844 38.941406 45.191406 38.925781 45.277344 38.886719 C 45.367188 38.84375 45.445312 38.789062 45.503906 38.726562 C 45.558594 38.65625 45.601562 38.578125 45.621094 38.5 C 45.648438 38.421875 45.664062 38.347656 45.664062 38.28125 L 45.664062 38.097656 L 45.277344 38.109375 C 45.183594 38.109375 45.097656 38.117188 45.019531 38.132812 C 44.9375 38.140625 44.867188 38.160156 44.804688 38.195312 C 44.742188 38.226562 44.699219 38.273438 44.664062 38.335938 C 44.625 38.394531 44.609375 38.472656 44.609375 38.574219 C 44.609375 38.691406 44.640625 38.78125 44.707031 38.84375 C 44.769531 38.910156 44.859375 38.941406 44.976562 38.941406 Z M 44.976562 38.941406 "/>
<path style=" stroke:none;fill-rule:nonzero;fill:rgb(0%,0%,0%);fill-opacity:1;" d="M 47.964844 39.179688 L 47.964844 37.785156 C 47.964844 37.683594 47.953125 37.597656 47.933594 37.527344 C 47.917969 37.457031 47.894531 37.394531 47.859375 37.351562 C 47.828125 37.304688 47.785156 37.273438 47.726562 37.253906 C 47.667969 37.234375 47.597656 37.222656 47.511719 37.222656 C 47.425781 37.222656 47.347656 37.242188 47.277344 37.277344 C 47.210938 37.308594 47.152344 37.351562 47.101562 37.40625 C 47.050781 37.464844 47.011719 37.535156 46.984375 37.625 C 46.957031 37.703125 46.941406 37.796875 46.941406 37.902344 L 46.941406 39.179688 L 46.585938 39.179688 L 46.585938 37.449219 C 46.585938 37.40625 46.582031 37.359375 46.574219 37.308594 C 46.574219 37.261719 46.574219 37.210938 46.574219 37.167969 C 46.574219 37.121094 46.574219 37.078125 46.574219 37.050781 C 46.574219 37.015625 46.574219 36.992188 46.574219 36.984375 L 46.910156 36.984375 C 46.914062 36.992188 46.921875 37.011719 46.921875 37.039062 C 46.921875 37.070312 46.921875 37.105469 46.921875 37.148438 C 46.925781 37.183594 46.929688 37.222656 46.929688 37.265625 C 46.929688 37.304688 46.929688 37.335938 46.929688 37.363281 C 46.964844 37.296875 47.007812 37.242188 47.050781 37.191406 C 47.09375 37.140625 47.136719 37.097656 47.191406 37.0625 C 47.246094 37.027344 47.3125 36.996094 47.382812 36.972656 C 47.453125 36.953125 47.539062 36.941406 47.632812 36.941406 C 47.753906 36.941406 47.859375 36.960938 47.945312 36.996094 C 48.035156 37.027344 48.109375 37.070312 48.160156 37.136719 C 48.214844 37.195312 48.257812 37.273438 48.289062 37.375 C 48.316406 37.46875 48.332031 37.585938 48.332031 37.71875 L 48.332031 39.179688 Z M 47.964844 39.179688 "/>
<path style=" stroke:none;fill-rule:nonzero;fill:rgb(0%,0%,0%);fill-opacity:1;" d="M 50.191406 38.824219 C 50.125 38.96875 50.035156 39.070312 49.921875 39.136719 C 49.8125 39.195312 49.675781 39.222656 49.511719 39.222656 C 49.230469 39.222656 49.027344 39.132812 48.898438 38.941406 C 48.769531 38.753906 48.703125 38.472656 48.703125 38.089844 C 48.703125 37.324219 48.972656 36.941406 49.511719 36.941406 C 49.675781 36.941406 49.8125 36.972656 49.921875 37.039062 C 50.035156 37.097656 50.125 37.195312 50.191406 37.332031 C 50.191406 37.316406 50.191406 37.296875 50.191406 37.265625 C 50.191406 37.238281 50.191406 37.210938 50.191406 37.179688 C 50.191406 37.144531 50.191406 37.113281 50.191406 37.082031 C 50.191406 37.054688 50.191406 37.035156 50.191406 37.019531 L 50.191406 36.175781 L 50.554688 36.175781 L 50.554688 38.726562 C 50.554688 38.777344 50.554688 38.828125 50.554688 38.878906 C 50.554688 38.929688 50.554688 38.972656 50.554688 39.019531 C 50.554688 39.054688 50.554688 39.089844 50.554688 39.113281 C 50.5625 39.144531 50.566406 39.167969 50.566406 39.179688 L 50.222656 39.179688 C 50.214844 39.167969 50.210938 39.148438 50.210938 39.125 C 50.210938 39.097656 50.207031 39.070312 50.199219 39.039062 C 50.199219 39.003906 50.199219 38.96875 50.199219 38.929688 C 50.199219 38.894531 50.199219 38.859375 50.199219 38.824219 Z M 49.089844 38.078125 C 49.089844 38.230469 49.097656 38.359375 49.113281 38.464844 C 49.132812 38.574219 49.160156 38.667969 49.199219 38.738281 C 49.242188 38.808594 49.296875 38.863281 49.359375 38.898438 C 49.425781 38.929688 49.503906 38.941406 49.597656 38.941406 C 49.695312 38.941406 49.785156 38.929688 49.855469 38.898438 C 49.925781 38.863281 49.988281 38.8125 50.039062 38.746094 C 50.085938 38.675781 50.125 38.585938 50.148438 38.476562 C 50.175781 38.363281 50.191406 38.222656 50.191406 38.054688 C 50.191406 37.902344 50.175781 37.773438 50.148438 37.667969 C 50.125 37.558594 50.085938 37.472656 50.039062 37.40625 C 49.988281 37.335938 49.925781 37.285156 49.855469 37.253906 C 49.785156 37.226562 49.699219 37.210938 49.609375 37.210938 C 49.515625 37.210938 49.4375 37.230469 49.371094 37.265625 C 49.304688 37.296875 49.253906 37.347656 49.210938 37.417969 C 49.167969 37.484375 49.132812 37.574219 49.113281 37.6875 C 49.097656 37.796875 49.089844 37.925781 49.089844 38.078125 Z M 49.089844 38.078125 "/>
<path style=" stroke:none;fill-rule:nonzero;fill:rgb(0%,0%,0%);fill-opacity:1;" d="M 51.078125 39.179688 L 51.078125 38.867188 L 51.8125 38.867188 L 51.8125 36.671875 L 51.164062 37.136719 L 51.164062 36.789062 L 51.832031 36.324219 L 52.175781 36.324219 L 52.175781 38.867188 L 52.867188 38.867188 L 52.867188 39.179688 Z M 51.078125 39.179688 "/>
<path style=" stroke:none;fill-rule:nonzero;fill:rgb(0%,0%,0%);fill-opacity:1;" d="M 29.679688 43.246094 C 29.457031 43.246094 29.285156 43.191406 29.171875 43.074219 C 29.066406 42.953125 29.011719 42.789062 29.011719 42.589844 C 29.011719 42.445312 29.039062 42.328125 29.097656 42.242188 C 29.152344 42.148438 29.226562 42.078125 29.3125 42.027344 C 29.398438 41.96875 29.5 41.929688 29.613281 41.90625 C 29.726562 41.886719 29.84375 41.875 29.960938 41.875 L 30.445312 41.863281 L 30.445312 41.746094 C 30.445312 41.660156 30.433594 41.582031 30.414062 41.519531 C 30.394531 41.453125 30.367188 41.40625 30.324219 41.367188 C 30.289062 41.324219 30.242188 41.296875 30.1875 41.28125 C 30.125 41.257812 30.058594 41.246094 29.980469 41.246094 C 29.910156 41.246094 29.84375 41.253906 29.789062 41.269531 C 29.726562 41.277344 29.679688 41.296875 29.636719 41.324219 C 29.597656 41.34375 29.566406 41.382812 29.539062 41.429688 C 29.519531 41.476562 29.5 41.527344 29.496094 41.59375 L 29.109375 41.5625 C 29.121094 41.476562 29.144531 41.394531 29.183594 41.324219 C 29.226562 41.253906 29.28125 41.191406 29.34375 41.140625 C 29.414062 41.082031 29.5 41.039062 29.605469 41.007812 C 29.710938 40.984375 29.839844 40.964844 29.992188 40.964844 C 30.265625 40.964844 30.46875 41.03125 30.605469 41.160156 C 30.75 41.285156 30.820312 41.46875 30.820312 41.710938 L 30.820312 42.652344 C 30.820312 42.761719 30.832031 42.84375 30.855469 42.902344 C 30.882812 42.953125 30.941406 42.976562 31.027344 42.976562 C 31.039062 42.976562 31.058594 42.976562 31.082031 42.976562 C 31.101562 42.972656 31.125 42.964844 31.144531 42.964844 L 31.144531 43.195312 C 31.09375 43.203125 31.046875 43.207031 31.003906 43.214844 C 30.960938 43.21875 30.914062 43.226562 30.863281 43.226562 C 30.792969 43.226562 30.730469 43.21875 30.679688 43.203125 C 30.628906 43.183594 30.589844 43.15625 30.5625 43.117188 C 30.535156 43.074219 30.507812 43.027344 30.488281 42.976562 C 30.472656 42.921875 30.464844 42.855469 30.464844 42.78125 L 30.445312 42.78125 C 30.40625 42.855469 30.363281 42.921875 30.316406 42.976562 C 30.273438 43.035156 30.21875 43.085938 30.152344 43.128906 C 30.09375 43.167969 30.027344 43.195312 29.949219 43.214844 C 29.867188 43.238281 29.777344 43.246094 29.679688 43.246094 Z M 29.753906 42.964844 C 29.867188 42.964844 29.96875 42.949219 30.054688 42.914062 C 30.148438 42.871094 30.222656 42.816406 30.28125 42.75 C 30.339844 42.679688 30.378906 42.605469 30.402344 42.523438 C 30.429688 42.445312 30.445312 42.371094 30.445312 42.308594 L 30.445312 42.125 L 30.054688 42.132812 C 29.960938 42.132812 29.875 42.140625 29.796875 42.15625 C 29.71875 42.164062 29.648438 42.183594 29.582031 42.21875 C 29.523438 42.25 29.476562 42.296875 29.441406 42.359375 C 29.40625 42.421875 29.386719 42.5 29.386719 42.597656 C 29.386719 42.714844 29.421875 42.804688 29.484375 42.871094 C 29.550781 42.933594 29.640625 42.964844 29.753906 42.964844 Z M 29.753906 42.964844 "/>
<path style=" stroke:none;fill-rule:nonzero;fill:rgb(0%,0%,0%);fill-opacity:1;" d="M 32.746094 43.203125 L 32.746094 41.808594 C 32.746094 41.710938 32.734375 41.625 32.710938 41.550781 C 32.695312 41.480469 32.671875 41.421875 32.636719 41.378906 C 32.605469 41.328125 32.5625 41.296875 32.507812 41.28125 C 32.449219 41.257812 32.378906 41.246094 32.292969 41.246094 C 32.207031 41.246094 32.125 41.265625 32.054688 41.300781 C 31.992188 41.332031 31.929688 41.375 31.882812 41.429688 C 31.832031 41.492188 31.789062 41.5625 31.765625 41.648438 C 31.734375 41.730469 31.722656 41.820312 31.722656 41.929688 L 31.722656 43.203125 L 31.367188 43.203125 L 31.367188 41.476562 C 31.367188 41.429688 31.359375 41.386719 31.355469 41.335938 C 31.355469 41.285156 31.355469 41.238281 31.355469 41.195312 C 31.355469 41.144531 31.355469 41.105469 31.355469 41.074219 C 31.355469 41.039062 31.355469 41.019531 31.355469 41.007812 L 31.6875 41.007812 C 31.695312 41.019531 31.699219 41.035156 31.699219 41.0625 C 31.699219 41.09375 31.699219 41.128906 31.699219 41.171875 C 31.703125 41.210938 31.710938 41.246094 31.710938 41.289062 C 31.710938 41.328125 31.710938 41.359375 31.710938 41.386719 C 31.746094 41.324219 31.785156 41.265625 31.828125 41.214844 C 31.871094 41.167969 31.917969 41.125 31.96875 41.085938 C 32.023438 41.050781 32.089844 41.019531 32.164062 41 C 32.234375 40.976562 32.316406 40.964844 32.410156 40.964844 C 32.53125 40.964844 32.636719 40.984375 32.722656 41.019531 C 32.816406 41.050781 32.886719 41.097656 32.9375 41.160156 C 32.996094 41.21875 33.039062 41.300781 33.066406 41.398438 C 33.09375 41.492188 33.109375 41.609375 33.109375 41.746094 L 33.109375 43.203125 Z M 32.746094 43.203125 "/>
<path style=" stroke:none;fill-rule:nonzero;fill:rgb(0%,0%,0%);fill-opacity:1;" d="M 34.96875 42.847656 C 34.90625 42.992188 34.8125 43.097656 34.699219 43.160156 C 34.59375 43.21875 34.453125 43.246094 34.289062 43.246094 C 34.011719 43.246094 33.804688 43.15625 33.675781 42.964844 C 33.546875 42.78125 33.480469 42.496094 33.480469 42.113281 C 33.480469 41.351562 33.75 40.964844 34.289062 40.964844 C 34.453125 40.964844 34.59375 41 34.699219 41.0625 C 34.8125 41.125 34.90625 41.21875 34.96875 41.355469 C 34.96875 41.34375 34.96875 41.320312 34.96875 41.289062 C 34.96875 41.265625 34.96875 41.234375 34.96875 41.203125 C 34.96875 41.167969 34.96875 41.136719 34.96875 41.105469 C 34.96875 41.078125 34.96875 41.058594 34.96875 41.042969 L 34.96875 40.199219 L 35.335938 40.199219 L 35.335938 42.75 C 35.335938 42.800781 35.335938 42.851562 35.335938 42.902344 C 35.335938 42.953125 35.335938 43 35.335938 43.042969 C 35.335938 43.078125 35.335938 43.113281 35.335938 43.140625 C 35.339844 43.167969 35.347656 43.191406 35.347656 43.203125 L 35 43.203125 C 34.992188 43.191406 34.992188 43.171875 34.992188 43.148438 C 34.992188 43.125 34.984375 43.09375 34.980469 43.0625 C 34.980469 43.027344 34.980469 42.992188 34.980469 42.957031 C 34.980469 42.921875 34.980469 42.886719 34.980469 42.847656 Z M 33.871094 42.101562 C 33.871094 42.253906 33.875 42.382812 33.890625 42.492188 C 33.914062 42.597656 33.941406 42.691406 33.976562 42.761719 C 34.019531 42.835938 34.074219 42.886719 34.140625 42.921875 C 34.203125 42.953125 34.28125 42.964844 34.375 42.964844 C 34.476562 42.964844 34.5625 42.953125 34.636719 42.921875 C 34.707031 42.886719 34.765625 42.835938 34.816406 42.773438 C 34.867188 42.703125 34.90625 42.609375 34.925781 42.5 C 34.953125 42.386719 34.96875 42.246094 34.96875 42.078125 C 34.96875 41.929688 34.953125 41.800781 34.925781 41.691406 C 34.90625 41.582031 34.867188 41.496094 34.816406 41.429688 C 34.765625 41.359375 34.707031 41.308594 34.636719 41.28125 C 34.5625 41.253906 34.480469 41.238281 34.386719 41.238281 C 34.292969 41.238281 34.214844 41.253906 34.148438 41.289062 C 34.085938 41.320312 34.03125 41.371094 33.988281 41.441406 C 33.945312 41.507812 33.914062 41.597656 33.890625 41.710938 C 33.875 41.820312 33.871094 41.949219 33.871094 42.101562 Z M 33.871094 42.101562 "/>
<path style=" stroke:none;fill-rule:nonzero;fill:rgb(0%,0%,0%);fill-opacity:1;" d="M 35.75 43.203125 L 35.75 42.945312 C 35.820312 42.789062 35.902344 42.648438 35.996094 42.535156 C 36.097656 42.414062 36.203125 42.300781 36.308594 42.199219 C 36.421875 42.097656 36.535156 42.007812 36.644531 41.929688 C 36.753906 41.84375 36.847656 41.761719 36.933594 41.679688 C 37.019531 41.59375 37.089844 41.503906 37.140625 41.410156 C 37.1875 41.316406 37.214844 41.210938 37.214844 41.097656 C 37.214844 41.019531 37.203125 40.949219 37.183594 40.890625 C 37.160156 40.824219 37.125 40.773438 37.074219 40.730469 C 37.03125 40.683594 36.976562 40.660156 36.914062 40.640625 C 36.847656 40.621094 36.777344 40.609375 36.699219 40.609375 C 36.625 40.609375 36.558594 40.621094 36.492188 40.640625 C 36.429688 40.660156 36.371094 40.683594 36.320312 40.730469 C 36.269531 40.765625 36.230469 40.816406 36.203125 40.878906 C 36.171875 40.9375 36.152344 41.007812 36.136719 41.085938 L 35.769531 41.054688 C 35.785156 40.953125 35.816406 40.859375 35.859375 40.773438 C 35.902344 40.679688 35.960938 40.597656 36.039062 40.535156 C 36.117188 40.464844 36.214844 40.410156 36.320312 40.371094 C 36.429688 40.328125 36.550781 40.308594 36.699219 40.308594 C 36.839844 40.308594 36.96875 40.324219 37.074219 40.359375 C 37.1875 40.390625 37.28125 40.441406 37.355469 40.511719 C 37.433594 40.578125 37.488281 40.660156 37.527344 40.761719 C 37.570312 40.855469 37.59375 40.964844 37.59375 41.085938 C 37.59375 41.1875 37.574219 41.28125 37.539062 41.367188 C 37.507812 41.453125 37.464844 41.535156 37.410156 41.613281 C 37.351562 41.6875 37.28125 41.765625 37.203125 41.84375 C 37.132812 41.914062 37.054688 41.988281 36.96875 42.058594 C 36.886719 42.125 36.804688 42.195312 36.71875 42.265625 C 36.640625 42.328125 36.5625 42.398438 36.484375 42.46875 C 36.410156 42.535156 36.34375 42.605469 36.289062 42.675781 C 36.230469 42.746094 36.183594 42.820312 36.148438 42.890625 L 37.636719 42.890625 L 37.636719 43.203125 Z M 35.75 43.203125 "/>
<path style=" stroke:none;fill-rule:nonzero;fill:rgb(0%,0%,0%);fill-opacity:1;" d="M 43.023438 69.136719 C 42.800781 69.136719 42.628906 69.078125 42.515625 68.960938 C 42.410156 68.839844 42.355469 68.679688 42.355469 68.476562 C 42.355469 68.332031 42.382812 68.214844 42.441406 68.128906 C 42.496094 68.039062 42.570312 67.964844 42.65625 67.914062 C 42.742188 67.855469 42.84375 67.816406 42.957031 67.792969 C 43.070312 67.773438 43.1875 67.761719 43.304688 67.761719 L 43.789062 67.75 L 43.789062 67.632812 C 43.789062 67.546875 43.777344 67.46875 43.753906 67.40625 C 43.738281 67.339844 43.710938 67.292969 43.667969 67.253906 C 43.632812 67.210938 43.585938 67.183594 43.527344 67.167969 C 43.46875 67.144531 43.402344 67.136719 43.324219 67.136719 C 43.25 67.136719 43.1875 67.144531 43.128906 67.15625 C 43.070312 67.164062 43.023438 67.183594 42.980469 67.210938 C 42.941406 67.230469 42.910156 67.269531 42.882812 67.320312 C 42.859375 67.363281 42.84375 67.417969 42.839844 67.480469 L 42.453125 67.449219 C 42.464844 67.363281 42.488281 67.285156 42.527344 67.210938 C 42.570312 67.140625 42.625 67.078125 42.6875 67.027344 C 42.757812 66.96875 42.84375 66.925781 42.945312 66.898438 C 43.054688 66.871094 43.183594 66.855469 43.335938 66.855469 C 43.605469 66.855469 43.8125 66.917969 43.949219 67.046875 C 44.09375 67.171875 44.164062 67.355469 44.164062 67.601562 L 44.164062 68.539062 C 44.164062 68.648438 44.175781 68.734375 44.195312 68.789062 C 44.222656 68.839844 44.285156 68.863281 44.371094 68.863281 C 44.382812 68.863281 44.402344 68.863281 44.421875 68.863281 C 44.445312 68.859375 44.464844 68.855469 44.488281 68.855469 L 44.488281 69.082031 C 44.4375 69.089844 44.390625 69.09375 44.347656 69.101562 C 44.304688 69.109375 44.257812 69.113281 44.207031 69.113281 C 44.136719 69.113281 44.074219 69.105469 44.023438 69.09375 C 43.972656 69.070312 43.933594 69.042969 43.90625 69.003906 C 43.875 68.960938 43.851562 68.917969 43.832031 68.863281 C 43.816406 68.808594 43.808594 68.742188 43.808594 68.671875 L 43.789062 68.671875 C 43.75 68.742188 43.707031 68.808594 43.660156 68.863281 C 43.617188 68.925781 43.5625 68.972656 43.496094 69.015625 C 43.4375 69.054688 43.371094 69.082031 43.292969 69.101562 C 43.210938 69.125 43.121094 69.136719 43.023438 69.136719 Z M 43.097656 68.855469 C 43.210938 68.855469 43.3125 68.835938 43.398438 68.800781 C 43.492188 68.757812 43.566406 68.703125 43.625 68.636719 C 43.683594 68.566406 43.722656 68.492188 43.746094 68.410156 C 43.773438 68.332031 43.789062 68.257812 43.789062 68.195312 L 43.789062 68.011719 L 43.398438 68.023438 C 43.304688 68.023438 43.21875 68.03125 43.140625 68.042969 C 43.058594 68.050781 42.992188 68.074219 42.925781 68.109375 C 42.867188 68.136719 42.820312 68.183594 42.785156 68.25 C 42.746094 68.308594 42.730469 68.386719 42.730469 68.488281 C 42.730469 68.601562 42.765625 68.691406 42.828125 68.757812 C 42.894531 68.820312 42.980469 68.855469 43.097656 68.855469 Z M 43.097656 68.855469 "/>
<path style=" stroke:none;fill-rule:nonzero;fill:rgb(0%,0%,0%);fill-opacity:1;" d="M 46.085938 69.09375 L 46.085938 67.695312 C 46.085938 67.597656 46.078125 67.511719 46.054688 67.4375 C 46.039062 67.367188 46.015625 67.308594 45.980469 67.265625 C 45.949219 67.214844 45.90625 67.183594 45.851562 67.167969 C 45.792969 67.144531 45.722656 67.136719 45.636719 67.136719 C 45.550781 67.136719 45.46875 67.152344 45.398438 67.1875 C 45.332031 67.21875 45.273438 67.261719 45.226562 67.320312 C 45.175781 67.378906 45.132812 67.449219 45.105469 67.535156 C 45.078125 67.617188 45.0625 67.707031 45.0625 67.816406 L 45.0625 69.09375 L 44.707031 69.09375 L 44.707031 67.363281 C 44.707031 67.320312 44.703125 67.273438 44.699219 67.222656 C 44.699219 67.171875 44.699219 67.125 44.699219 67.082031 C 44.699219 67.03125 44.699219 66.992188 44.699219 66.960938 C 44.699219 66.925781 44.699219 66.90625 44.699219 66.898438 L 45.03125 66.898438 C 45.039062 66.90625 45.042969 66.925781 45.042969 66.953125 C 45.042969 66.980469 45.042969 67.015625 45.042969 67.058594 C 45.046875 67.097656 45.054688 67.136719 45.054688 67.179688 C 45.054688 67.214844 45.054688 67.25 45.054688 67.277344 C 45.089844 67.210938 45.128906 67.152344 45.171875 67.101562 C 45.214844 67.054688 45.261719 67.011719 45.3125 66.972656 C 45.367188 66.9375 45.433594 66.90625 45.507812 66.886719 C 45.574219 66.863281 45.660156 66.855469 45.753906 66.855469 C 45.875 66.855469 45.980469 66.871094 46.066406 66.90625 C 46.15625 66.9375 46.230469 66.984375 46.28125 67.046875 C 46.339844 67.109375 46.382812 67.1875 46.410156 67.285156 C 46.4375 67.382812 46.453125 67.496094 46.453125 67.632812 L 46.453125 69.09375 Z M 46.085938 69.09375 "/>
<path style=" stroke:none;fill-rule:nonzero;fill:rgb(0%,0%,0%);fill-opacity:1;" d="M 48.3125 68.734375 C 48.246094 68.882812 48.15625 68.984375 48.042969 69.046875 C 47.933594 69.105469 47.796875 69.136719 47.632812 69.136719 C 47.351562 69.136719 47.148438 69.042969 47.019531 68.855469 C 46.890625 68.667969 46.824219 68.382812 46.824219 68 C 46.824219 67.238281 47.09375 66.855469 47.632812 66.855469 C 47.796875 66.855469 47.933594 66.886719 48.042969 66.953125 C 48.15625 67.011719 48.246094 67.109375 48.3125 67.242188 C 48.3125 67.230469 48.3125 67.207031 48.3125 67.179688 C 48.3125 67.152344 48.3125 67.121094 48.3125 67.09375 C 48.3125 67.058594 48.3125 67.023438 48.3125 66.996094 C 48.3125 66.96875 48.3125 66.945312 48.3125 66.929688 L 48.3125 66.085938 L 48.679688 66.085938 L 48.679688 68.636719 C 48.679688 68.6875 48.679688 68.742188 48.679688 68.789062 C 48.679688 68.839844 48.679688 68.886719 48.679688 68.929688 C 48.679688 68.96875 48.679688 69 48.679688 69.027344 C 48.683594 69.058594 48.691406 69.078125 48.691406 69.09375 L 48.34375 69.09375 C 48.335938 69.078125 48.332031 69.058594 48.332031 69.039062 C 48.332031 69.011719 48.328125 68.980469 48.324219 68.953125 C 48.324219 68.917969 48.324219 68.882812 48.324219 68.84375 C 48.324219 68.808594 48.324219 68.773438 48.324219 68.734375 Z M 47.214844 67.988281 C 47.214844 68.140625 47.21875 68.269531 47.234375 68.378906 C 47.257812 68.488281 47.285156 68.578125 47.320312 68.648438 C 47.363281 68.722656 47.417969 68.777344 47.484375 68.8125 C 47.546875 68.839844 47.625 68.855469 47.71875 68.855469 C 47.820312 68.855469 47.90625 68.839844 47.976562 68.8125 C 48.046875 68.777344 48.109375 68.722656 48.160156 68.660156 C 48.210938 68.589844 48.246094 68.496094 48.269531 68.390625 C 48.296875 68.277344 48.3125 68.136719 48.3125 67.96875 C 48.3125 67.816406 48.296875 67.6875 48.269531 67.578125 C 48.246094 67.46875 48.210938 67.382812 48.160156 67.320312 C 48.109375 67.25 48.046875 67.195312 47.976562 67.167969 C 47.90625 67.140625 47.820312 67.125 47.730469 67.125 C 47.636719 67.125 47.558594 67.144531 47.492188 67.179688 C 47.429688 67.207031 47.375 67.257812 47.332031 67.328125 C 47.289062 67.394531 47.257812 67.488281 47.234375 67.601562 C 47.21875 67.707031 47.214844 67.835938 47.214844 67.988281 Z M 47.214844 67.988281 "/>
<path style=" stroke:none;fill-rule:nonzero;fill:rgb(0%,0%,0%);fill-opacity:1;" d="M 51.011719 68.300781 C 51.011719 68.433594 50.988281 68.550781 50.945312 68.660156 C 50.902344 68.761719 50.839844 68.847656 50.753906 68.917969 C 50.671875 68.984375 50.570312 69.039062 50.449219 69.082031 C 50.335938 69.117188 50.199219 69.136719 50.042969 69.136719 C 49.867188 69.136719 49.722656 69.113281 49.597656 69.070312 C 49.476562 69.027344 49.375 68.96875 49.296875 68.898438 C 49.21875 68.820312 49.15625 68.734375 49.113281 68.648438 C 49.078125 68.558594 49.054688 68.460938 49.050781 68.355469 L 49.425781 68.324219 C 49.433594 68.398438 49.453125 68.464844 49.480469 68.53125 C 49.507812 68.59375 49.546875 68.648438 49.597656 68.691406 C 49.648438 68.734375 49.710938 68.773438 49.78125 68.800781 C 49.851562 68.820312 49.9375 68.832031 50.042969 68.832031 C 50.226562 68.832031 50.371094 68.789062 50.472656 68.703125 C 50.582031 68.609375 50.632812 68.472656 50.632812 68.292969 C 50.632812 68.183594 50.605469 68.097656 50.558594 68.03125 C 50.515625 67.96875 50.457031 67.921875 50.386719 67.890625 C 50.3125 67.855469 50.238281 67.832031 50.160156 67.816406 C 50.078125 67.800781 50.003906 67.792969 49.933594 67.792969 L 49.730469 67.792969 L 49.730469 67.480469 L 49.921875 67.480469 C 49.992188 67.480469 50.066406 67.476562 50.136719 67.460938 C 50.214844 67.445312 50.285156 67.421875 50.34375 67.382812 C 50.40625 67.347656 50.457031 67.296875 50.492188 67.230469 C 50.535156 67.167969 50.558594 67.085938 50.558594 66.984375 C 50.558594 66.832031 50.511719 66.714844 50.417969 66.625 C 50.332031 66.539062 50.199219 66.496094 50.019531 66.496094 C 49.859375 66.496094 49.730469 66.539062 49.632812 66.617188 C 49.53125 66.695312 49.472656 66.8125 49.460938 66.960938 L 49.09375 66.941406 C 49.105469 66.8125 49.140625 66.699219 49.191406 66.605469 C 49.246094 66.511719 49.3125 66.4375 49.394531 66.378906 C 49.480469 66.3125 49.578125 66.265625 49.6875 66.238281 C 49.792969 66.210938 49.90625 66.195312 50.03125 66.195312 C 50.1875 66.195312 50.324219 66.214844 50.441406 66.257812 C 50.554688 66.296875 50.648438 66.351562 50.71875 66.421875 C 50.789062 66.488281 50.839844 66.566406 50.871094 66.660156 C 50.90625 66.746094 50.925781 66.84375 50.925781 66.953125 C 50.925781 67.03125 50.914062 67.109375 50.894531 67.1875 C 50.871094 67.261719 50.832031 67.328125 50.785156 67.382812 C 50.742188 67.441406 50.679688 67.492188 50.601562 67.535156 C 50.527344 67.574219 50.441406 67.601562 50.332031 67.621094 L 50.332031 67.632812 C 50.445312 67.648438 50.546875 67.675781 50.632812 67.71875 C 50.71875 67.757812 50.789062 67.800781 50.839844 67.859375 C 50.894531 67.917969 50.9375 67.988281 50.96875 68.066406 C 50.996094 68.136719 51.011719 68.214844 51.011719 68.300781 Z M 51.011719 68.300781 "/>
<path style=" stroke:none;fill-rule:nonzero;fill:rgb(0%,0%,0%);fill-opacity:1;" d="M 27.746094 73.113281 C 27.523438 73.113281 27.351562 73.058594 27.238281 72.941406 C 27.132812 72.820312 27.078125 72.65625 27.078125 72.453125 C 27.078125 72.3125 27.105469 72.195312 27.164062 72.109375 C 27.21875 72.015625 27.292969 71.945312 27.378906 71.890625 C 27.464844 71.835938 27.566406 71.792969 27.679688 71.773438 C 27.792969 71.75 27.910156 71.742188 28.023438 71.742188 L 28.511719 71.730469 L 28.511719 71.609375 C 28.511719 71.523438 28.5 71.449219 28.476562 71.382812 C 28.460938 71.320312 28.433594 71.269531 28.390625 71.234375 C 28.355469 71.1875 28.308594 71.164062 28.25 71.144531 C 28.191406 71.125 28.125 71.113281 28.046875 71.113281 C 27.972656 71.113281 27.910156 71.121094 27.851562 71.136719 C 27.792969 71.144531 27.746094 71.164062 27.703125 71.1875 C 27.664062 71.210938 27.632812 71.25 27.605469 71.296875 C 27.582031 71.339844 27.566406 71.394531 27.5625 71.460938 L 27.175781 71.425781 C 27.1875 71.339844 27.210938 71.261719 27.25 71.1875 C 27.292969 71.117188 27.347656 71.058594 27.410156 71.003906 C 27.480469 70.949219 27.566406 70.90625 27.667969 70.875 C 27.777344 70.847656 27.90625 70.832031 28.058594 70.832031 C 28.328125 70.832031 28.535156 70.898438 28.671875 71.027344 C 28.816406 71.152344 28.886719 71.335938 28.886719 71.578125 L 28.886719 72.519531 C 28.886719 72.628906 28.898438 72.710938 28.917969 72.769531 C 28.945312 72.820312 29.007812 72.84375 29.09375 72.84375 C 29.105469 72.84375 29.125 72.84375 29.144531 72.84375 C 29.167969 72.839844 29.1875 72.832031 29.210938 72.832031 L 29.210938 73.058594 C 29.160156 73.066406 29.113281 73.074219 29.070312 73.082031 C 29.027344 73.085938 28.980469 73.09375 28.929688 73.09375 C 28.859375 73.09375 28.796875 73.082031 28.746094 73.070312 C 28.695312 73.046875 28.65625 73.023438 28.628906 72.984375 C 28.597656 72.941406 28.574219 72.894531 28.554688 72.84375 C 28.539062 72.785156 28.53125 72.722656 28.53125 72.648438 L 28.511719 72.648438 C 28.472656 72.722656 28.429688 72.785156 28.382812 72.84375 C 28.335938 72.902344 28.285156 72.953125 28.21875 72.996094 C 28.160156 73.03125 28.09375 73.058594 28.015625 73.082031 C 27.933594 73.101562 27.84375 73.113281 27.746094 73.113281 Z M 27.820312 72.832031 C 27.933594 72.832031 28.035156 72.816406 28.121094 72.777344 C 28.214844 72.734375 28.289062 72.679688 28.347656 72.617188 C 28.40625 72.546875 28.445312 72.46875 28.46875 72.390625 C 28.492188 72.3125 28.511719 72.238281 28.511719 72.171875 L 28.511719 71.988281 L 28.121094 72 C 28.027344 72 27.941406 72.007812 27.863281 72.023438 C 27.78125 72.03125 27.710938 72.050781 27.648438 72.085938 C 27.589844 72.117188 27.542969 72.164062 27.507812 72.226562 C 27.46875 72.285156 27.453125 72.363281 27.453125 72.464844 C 27.453125 72.582031 27.488281 72.671875 27.550781 72.734375 C 27.617188 72.800781 27.703125 72.832031 27.820312 72.832031 Z M 27.820312 72.832031 "/>
<path style=" stroke:none;fill-rule:nonzero;fill:rgb(0%,0%,0%);fill-opacity:1;" d="M 30.808594 73.070312 L 30.808594 71.675781 C 30.808594 71.574219 30.800781 71.488281 30.777344 71.417969 C 30.761719 71.347656 30.738281 71.285156 30.703125 71.242188 C 30.671875 71.195312 30.628906 71.164062 30.574219 71.144531 C 30.515625 71.125 30.445312 71.113281 30.359375 71.113281 C 30.273438 71.113281 30.191406 71.132812 30.121094 71.167969 C 30.054688 71.199219 29.996094 71.242188 29.949219 71.296875 C 29.898438 71.355469 29.855469 71.425781 29.828125 71.511719 C 29.800781 71.59375 29.785156 71.6875 29.785156 71.792969 L 29.785156 73.070312 L 29.429688 73.070312 L 29.429688 71.339844 C 29.429688 71.296875 29.425781 71.25 29.421875 71.199219 C 29.421875 71.152344 29.421875 71.101562 29.421875 71.058594 C 29.421875 71.011719 29.421875 70.96875 29.421875 70.941406 C 29.421875 70.90625 29.421875 70.882812 29.421875 70.875 L 29.753906 70.875 C 29.757812 70.882812 29.765625 70.902344 29.765625 70.929688 C 29.765625 70.960938 29.765625 70.996094 29.765625 71.039062 C 29.769531 71.074219 29.777344 71.113281 29.777344 71.15625 C 29.777344 71.195312 29.777344 71.226562 29.777344 71.253906 C 29.8125 71.1875 29.851562 71.132812 29.894531 71.082031 C 29.9375 71.03125 29.984375 70.988281 30.035156 70.953125 C 30.089844 70.917969 30.15625 70.886719 30.226562 70.863281 C 30.296875 70.84375 30.382812 70.832031 30.476562 70.832031 C 30.597656 70.832031 30.703125 70.851562 30.789062 70.886719 C 30.878906 70.917969 30.953125 70.960938 31.003906 71.027344 C 31.0625 71.085938 31.105469 71.164062 31.132812 71.265625 C 31.160156 71.359375 31.175781 71.476562 31.175781 71.609375 L 31.175781 73.070312 Z M 30.808594 73.070312 "/>
<path style=" stroke:none;fill-rule:nonzero;fill:rgb(0%,0%,0%);fill-opacity:1;" d="M 33.035156 72.714844 C 32.96875 72.859375 32.878906 72.960938 32.765625 73.027344 C 32.65625 73.082031 32.519531 73.113281 32.355469 73.113281 C 32.074219 73.113281 31.871094 73.023438 31.742188 72.832031 C 31.613281 72.644531 31.546875 72.363281 31.546875 71.976562 C 31.546875 71.214844 31.816406 70.832031 32.355469 70.832031 C 32.519531 70.832031 32.65625 70.863281 32.765625 70.929688 C 32.878906 70.988281 32.96875 71.085938 33.035156 71.222656 C 33.035156 71.207031 33.035156 71.1875 33.035156 71.15625 C 33.035156 71.128906 33.035156 71.101562 33.035156 71.070312 C 33.035156 71.035156 33.035156 71.003906 33.035156 70.972656 C 33.035156 70.945312 33.035156 70.925781 33.035156 70.90625 L 33.035156 70.066406 L 33.402344 70.066406 L 33.402344 72.617188 C 33.402344 72.667969 33.402344 72.71875 33.402344 72.769531 C 33.402344 72.820312 33.402344 72.863281 33.402344 72.910156 C 33.402344 72.945312 33.402344 72.980469 33.402344 73.003906 C 33.40625 73.035156 33.410156 73.058594 33.410156 73.070312 L 33.066406 73.070312 C 33.058594 73.058594 33.054688 73.039062 33.054688 73.015625 C 33.054688 72.988281 33.050781 72.960938 33.046875 72.929688 C 33.046875 72.894531 33.046875 72.859375 33.046875 72.820312 C 33.046875 72.785156 33.046875 72.75 33.046875 72.714844 Z M 31.9375 71.96875 C 31.9375 72.117188 31.941406 72.25 31.957031 72.355469 C 31.980469 72.464844 32.003906 72.558594 32.042969 72.628906 C 32.085938 72.699219 32.140625 72.753906 32.207031 72.789062 C 32.269531 72.820312 32.347656 72.832031 32.441406 72.832031 C 32.542969 72.832031 32.628906 72.820312 32.699219 72.789062 C 32.769531 72.753906 32.832031 72.703125 32.882812 72.636719 C 32.933594 72.566406 32.96875 72.476562 32.992188 72.367188 C 33.019531 72.253906 33.035156 72.113281 33.035156 71.945312 C 33.035156 71.792969 33.019531 71.664062 32.992188 71.558594 C 32.96875 71.449219 32.933594 71.363281 32.882812 71.296875 C 32.832031 71.226562 32.769531 71.175781 32.699219 71.144531 C 32.628906 71.117188 32.542969 71.101562 32.453125 71.101562 C 32.359375 71.101562 32.28125 71.121094 32.214844 71.15625 C 32.152344 71.1875 32.097656 71.238281 32.054688 71.308594 C 32.011719 71.375 31.980469 71.464844 31.957031 71.578125 C 31.941406 71.6875 31.9375 71.816406 31.9375 71.96875 Z M 31.9375 71.96875 "/>
<path style=" stroke:none;fill-rule:nonzero;fill:rgb(0%,0%,0%);fill-opacity:1;" d="M 35.390625 72.421875 L 35.390625 73.070312 L 35.042969 73.070312 L 35.042969 72.421875 L 33.707031 72.421875 L 33.707031 72.140625 L 35.011719 70.214844 L 35.390625 70.214844 L 35.390625 72.140625 L 35.789062 72.140625 L 35.789062 72.421875 Z M 35.042969 70.628906 C 35.042969 70.636719 35.035156 70.648438 35.023438 70.671875 C 35.015625 70.6875 35.003906 70.707031 34.988281 70.734375 C 34.972656 70.757812 34.960938 70.785156 34.945312 70.8125 C 34.929688 70.832031 34.921875 70.851562 34.914062 70.863281 L 34.183594 71.945312 C 34.175781 71.953125 34.164062 71.96875 34.148438 71.988281 C 34.140625 72.003906 34.128906 72.023438 34.117188 72.042969 C 34.101562 72.058594 34.085938 72.074219 34.074219 72.097656 C 34.058594 72.113281 34.046875 72.128906 34.042969 72.140625 L 35.042969 72.140625 Z M 35.042969 70.628906 "/>
<path style=" stroke:none;fill-rule:nonzero;fill:rgb(0%,0%,0%);fill-opacity:1;" d="M 43.84375 92.292969 C 43.84375 92.589844 43.800781 92.859375 43.714844 93.105469 C 43.628906 93.351562 43.503906 93.558594 43.335938 93.730469 C 43.179688 93.902344 42.980469 94.039062 42.746094 94.128906 C 42.511719 94.222656 42.253906 94.269531 41.957031 94.269531 C 41.640625 94.269531 41.367188 94.222656 41.128906 94.128906 C 40.898438 94.03125 40.703125 93.894531 40.546875 93.71875 C 40.386719 93.542969 40.269531 93.332031 40.191406 93.09375 C 40.109375 92.851562 40.074219 92.582031 40.074219 92.292969 C 40.074219 92 40.109375 91.730469 40.191406 91.492188 C 40.277344 91.25 40.398438 91.042969 40.558594 90.875 C 40.722656 90.710938 40.917969 90.582031 41.148438 90.488281 C 41.386719 90.394531 41.65625 90.347656 41.957031 90.347656 C 42.261719 90.347656 42.53125 90.394531 42.765625 90.488281 C 43.003906 90.582031 43.199219 90.714844 43.359375 90.886719 C 43.515625 91.054688 43.632812 91.253906 43.714844 91.492188 C 43.800781 91.730469 43.84375 92 43.84375 92.292969 Z M 43.316406 92.292969 C 43.316406 92.0625 43.285156 91.855469 43.230469 91.664062 C 43.171875 91.480469 43.085938 91.320312 42.972656 91.191406 C 42.855469 91.054688 42.710938 90.949219 42.539062 90.875 C 42.375 90.804688 42.179688 90.769531 41.957031 90.769531 C 41.734375 90.769531 41.539062 90.804688 41.367188 90.875 C 41.195312 90.949219 41.046875 91.054688 40.933594 91.191406 C 40.828125 91.320312 40.742188 91.480469 40.6875 91.664062 C 40.628906 91.855469 40.601562 92.0625 40.601562 92.292969 C 40.601562 92.523438 40.628906 92.734375 40.6875 92.929688 C 40.742188 93.121094 40.828125 93.28125 40.945312 93.417969 C 41.058594 93.554688 41.199219 93.664062 41.367188 93.742188 C 41.539062 93.816406 41.734375 93.851562 41.957031 93.851562 C 42.195312 93.851562 42.398438 93.816406 42.574219 93.742188 C 42.746094 93.664062 42.886719 93.554688 42.992188 93.417969 C 43.101562 93.273438 43.179688 93.109375 43.230469 92.917969 C 43.285156 92.726562 43.316406 92.515625 43.316406 92.292969 Z M 43.316406 92.292969 "/>
<path style=" stroke:none;fill-rule:nonzero;fill:rgb(0%,0%,0%);fill-opacity:1;" d="M 63.019531 32.050781 C 62.804688 32.050781 62.613281 32.085938 62.449219 32.15625 C 62.28125 32.230469 62.140625 32.335938 62.027344 32.472656 C 61.921875 32.601562 61.835938 32.761719 61.78125 32.945312 C 61.722656 33.136719 61.695312 33.34375 61.695312 33.574219 C 61.695312 33.808594 61.722656 34.015625 61.78125 34.210938 C 61.84375 34.402344 61.933594 34.5625 62.050781 34.699219 C 62.164062 34.835938 62.304688 34.945312 62.46875 35.023438 C 62.644531 35.097656 62.832031 35.132812 63.042969 35.132812 C 63.191406 35.132812 63.324219 35.113281 63.441406 35.078125 C 63.5625 35.035156 63.671875 34.976562 63.773438 34.902344 C 63.875 34.832031 63.960938 34.75 64.03125 34.65625 C 64.109375 34.5625 64.179688 34.457031 64.238281 34.332031 L 64.65625 34.546875 C 64.59375 34.691406 64.507812 34.824219 64.410156 34.949219 C 64.308594 35.070312 64.1875 35.179688 64.054688 35.273438 C 63.917969 35.359375 63.761719 35.429688 63.589844 35.476562 C 63.417969 35.527344 63.226562 35.554688 63.019531 35.554688 C 62.710938 35.554688 62.441406 35.503906 62.210938 35.414062 C 61.980469 35.3125 61.785156 35.175781 61.628906 35 C 61.480469 34.824219 61.363281 34.613281 61.285156 34.375 C 61.203125 34.132812 61.167969 33.863281 61.167969 33.574219 C 61.167969 33.28125 61.203125 33.011719 61.285156 32.773438 C 61.371094 32.53125 61.492188 32.324219 61.652344 32.15625 C 61.808594 31.992188 62 31.863281 62.234375 31.769531 C 62.460938 31.675781 62.722656 31.628906 63.019531 31.628906 C 63.421875 31.628906 63.753906 31.710938 64.023438 31.867188 C 64.292969 32.027344 64.496094 32.261719 64.625 32.578125 L 64.140625 32.742188 C 64.101562 32.648438 64.054688 32.5625 63.988281 32.480469 C 63.929688 32.394531 63.855469 32.324219 63.761719 32.265625 C 63.667969 32.203125 63.5625 32.152344 63.441406 32.113281 C 63.316406 32.070312 63.175781 32.050781 63.019531 32.050781 Z M 63.019531 32.050781 "/>
<path style=" stroke:none;fill-rule:nonzero;fill:rgb(0%,0%,0%);fill-opacity:1;" d="M 19.066406 44.289062 C 18.851562 44.289062 18.660156 44.324219 18.492188 44.394531 C 18.328125 44.46875 18.1875 44.574219 18.074219 44.710938 C 17.964844 44.839844 17.882812 45 17.824219 45.1875 C 17.765625 45.375 17.738281 45.582031 17.738281 45.8125 C 17.738281 46.046875 17.765625 46.257812 17.824219 46.449219 C 17.890625 46.640625 17.980469 46.800781 18.09375 46.9375 C 18.207031 47.074219 18.347656 47.183594 18.515625 47.261719 C 18.6875 47.335938 18.875 47.371094 19.085938 47.371094 C 19.238281 47.371094 19.371094 47.351562 19.484375 47.316406 C 19.605469 47.273438 19.71875 47.214844 19.820312 47.140625 C 19.917969 47.070312 20.003906 46.988281 20.078125 46.894531 C 20.15625 46.800781 20.222656 46.695312 20.28125 46.570312 L 20.703125 46.785156 C 20.636719 46.929688 20.554688 47.0625 20.457031 47.1875 C 20.351562 47.308594 20.234375 47.417969 20.101562 47.511719 C 19.960938 47.597656 19.808594 47.667969 19.636719 47.714844 C 19.464844 47.765625 19.273438 47.792969 19.066406 47.792969 C 18.753906 47.792969 18.484375 47.742188 18.257812 47.652344 C 18.023438 47.550781 17.832031 47.414062 17.675781 47.238281 C 17.523438 47.0625 17.410156 46.851562 17.332031 46.613281 C 17.25 46.371094 17.210938 46.101562 17.210938 45.8125 C 17.210938 45.519531 17.25 45.25 17.332031 45.011719 C 17.417969 44.769531 17.539062 44.5625 17.695312 44.394531 C 17.851562 44.230469 18.046875 44.101562 18.277344 44.007812 C 18.507812 43.914062 18.769531 43.867188 19.066406 43.867188 C 19.464844 43.867188 19.800781 43.949219 20.066406 44.105469 C 20.339844 44.265625 20.542969 44.5 20.671875 44.816406 L 20.1875 44.980469 C 20.148438 44.886719 20.101562 44.800781 20.035156 44.71875 C 19.976562 44.632812 19.898438 44.5625 19.808594 44.503906 C 19.714844 44.441406 19.605469 44.390625 19.484375 44.351562 C 19.363281 44.308594 19.222656 44.289062 19.066406 44.289062 Z M 19.066406 44.289062 "/>
<path style=" stroke:none;fill-rule:nonzero;fill:rgb(0%,0%,0%);fill-opacity:1;" d="M 61.148438 61.949219 C 60.933594 61.949219 60.742188 61.988281 60.578125 62.058594 C 60.410156 62.132812 60.269531 62.238281 60.15625 62.371094 C 60.046875 62.503906 59.964844 62.660156 59.910156 62.847656 C 59.847656 63.039062 59.820312 63.246094 59.820312 63.476562 C 59.820312 63.707031 59.847656 63.917969 59.910156 64.113281 C 59.972656 64.300781 60.0625 64.464844 60.179688 64.601562 C 60.289062 64.738281 60.429688 64.847656 60.597656 64.925781 C 60.769531 64.996094 60.960938 65.03125 61.167969 65.03125 C 61.320312 65.03125 61.453125 65.015625 61.566406 64.976562 C 61.6875 64.933594 61.800781 64.878906 61.902344 64.804688 C 62 64.734375 62.085938 64.652344 62.160156 64.554688 C 62.238281 64.464844 62.304688 64.355469 62.367188 64.230469 L 62.785156 64.449219 C 62.722656 64.59375 62.636719 64.726562 62.539062 64.847656 C 62.433594 64.972656 62.316406 65.082031 62.183594 65.171875 C 62.042969 65.257812 61.890625 65.328125 61.71875 65.378906 C 61.546875 65.425781 61.355469 65.453125 61.148438 65.453125 C 60.835938 65.453125 60.570312 65.40625 60.339844 65.3125 C 60.109375 65.214844 59.914062 65.074219 59.757812 64.902344 C 59.605469 64.722656 59.492188 64.511719 59.414062 64.277344 C 59.332031 64.03125 59.292969 63.765625 59.292969 63.476562 C 59.292969 63.179688 59.332031 62.914062 59.414062 62.675781 C 59.5 62.433594 59.621094 62.226562 59.777344 62.058594 C 59.933594 61.894531 60.128906 61.765625 60.359375 61.671875 C 60.589844 61.578125 60.851562 61.53125 61.148438 61.53125 C 61.550781 61.53125 61.882812 61.609375 62.148438 61.765625 C 62.421875 61.925781 62.625 62.164062 62.753906 62.480469 L 62.269531 62.644531 C 62.230469 62.550781 62.183594 62.464844 62.117188 62.382812 C 62.058594 62.296875 61.984375 62.226562 61.890625 62.167969 C 61.796875 62.101562 61.6875 62.054688 61.566406 62.015625 C 61.445312 61.972656 61.304688 61.949219 61.148438 61.949219 Z M 61.148438 61.949219 "/>
<path style=" stroke:none;fill-rule:nonzero;fill:rgb(0%,0%,0%);fill-opacity:1;" d="M 17.191406 74.1875 C 16.976562 74.1875 16.785156 74.226562 16.621094 74.296875 C 16.453125 74.371094 16.316406 74.476562 16.203125 74.609375 C 16.09375 74.742188 16.011719 74.898438 15.953125 75.085938 C 15.894531 75.277344 15.867188 75.484375 15.867188 75.714844 C 15.867188 75.945312 15.894531 76.15625 15.953125 76.351562 C 16.019531 76.539062 16.105469 76.703125 16.222656 76.839844 C 16.335938 76.976562 16.476562 77.085938 16.644531 77.164062 C 16.816406 77.234375 17.003906 77.269531 17.214844 77.269531 C 17.367188 77.269531 17.496094 77.253906 17.613281 77.214844 C 17.734375 77.171875 17.84375 77.117188 17.945312 77.042969 C 18.046875 76.972656 18.132812 76.890625 18.207031 76.796875 C 18.285156 76.703125 18.351562 76.59375 18.410156 76.46875 L 18.832031 76.6875 C 18.765625 76.832031 18.683594 76.964844 18.582031 77.085938 C 18.480469 77.210938 18.363281 77.320312 18.226562 77.410156 C 18.089844 77.496094 17.9375 77.566406 17.765625 77.617188 C 17.589844 77.664062 17.398438 77.691406 17.191406 77.691406 C 16.882812 77.691406 16.613281 77.644531 16.382812 77.550781 C 16.152344 77.453125 15.960938 77.3125 15.804688 77.140625 C 15.652344 76.960938 15.535156 76.75 15.457031 76.515625 C 15.378906 76.269531 15.339844 76.003906 15.339844 75.714844 C 15.339844 75.417969 15.378906 75.152344 15.457031 74.914062 C 15.542969 74.671875 15.664062 74.464844 15.824219 74.296875 C 15.980469 74.132812 16.175781 74.003906 16.40625 73.910156 C 16.636719 73.816406 16.898438 73.769531 17.191406 73.769531 C 17.59375 73.769531 17.929688 73.847656 18.195312 74.003906 C 18.46875 74.164062 18.667969 74.402344 18.796875 74.71875 L 18.3125 74.882812 C 18.277344 74.789062 18.226562 74.703125 18.164062 74.621094 C 18.101562 74.535156 18.027344 74.464844 17.9375 74.40625 C 17.84375 74.339844 17.734375 74.292969 17.613281 74.253906 C 17.488281 74.210938 17.347656 74.1875 17.191406 74.1875 Z M 17.191406 74.1875 "/>
<path style="fill:none;stroke-width:0.0333333;stroke-linecap:butt;stroke-linejoin:miter;stroke:rgb(0%,0%,0%);stroke-opacity:1;stroke-miterlimit:10;" d="M 1.315197 0.200912 L 1.66433 0.904344 " transform="matrix(17.241379,0,0,17.29798,17.085908,17.012918)"/>
<path style="fill:none;stroke-width:0.0333333;stroke-linecap:butt;stroke-linejoin:miter;stroke:rgb(0%,0%,0%);stroke-opacity:1;stroke-miterlimit:10;" d="M 1.665236 0.887634 L 1.101322 1.736721 " transform="matrix(17.241379,0,0,17.29798,17.085908,17.012918)"/>
<path style="fill:none;stroke-width:0.0333333;stroke-linecap:butt;stroke-linejoin:miter;stroke:rgb(0%,0%,0%);stroke-opacity:1;stroke-miterlimit:10;" d="M 1.102455 1.720011 L 1.55558 2.63278 " transform="matrix(17.241379,0,0,17.29798,17.085908,17.012918)"/>
<path style="fill:none;stroke-width:0.0333333;stroke-linecap:butt;stroke-linejoin:miter;stroke:rgb(0%,0%,0%);stroke-opacity:1;stroke-miterlimit:10;" d="M 1.556713 2.616295 L 0.992799 3.465156 " transform="matrix(17.241379,0,0,17.29798,17.085908,17.012918)"/>
<path style="fill:none;stroke-width:0.0333333;stroke-linecap:butt;stroke-linejoin:miter;stroke:rgb(0%,0%,0%);stroke-opacity:1;stroke-miterlimit:10;" d="M 0.993705 3.448672 L 1.350088 4.166331 " transform="matrix(17.241379,0,0,17.29798,17.085908,17.012918)"/>
<path style=" stroke:none;fill-rule:nonzero;fill:rgb(0%,0%,0%);fill-opacity:1;" d="M 45.707031 32.507812 L 60.167969 35.441406 L 60.421875 31.410156 "/>
<path style=" stroke:none;fill-rule:nonzero;fill:rgb(0%,0%,0%);fill-opacity:1;" d="M 36.167969 46.914062 L 21.707031 43.980469 L 21.453125 48.011719 "/>
<path style=" stroke:none;fill-rule:nonzero;fill:rgb(0%,0%,0%);fill-opacity:1;" d="M 43.832031 62.40625 L 58.292969 65.34375 L 58.546875 61.3125 "/>
<path style=" stroke:none;fill-rule:nonzero;fill:rgb(0%,0%,0%);fill-opacity:1;" d="M 34.292969 76.816406 L 19.832031 73.882812 L 19.578125 77.910156 "/>
</g>
</svg>
