<?xml version="1.0" encoding="UTF-8"?>
<svg xmlns="http://www.w3.org/2000/svg" xmlns:xlink="http://www.w3.org/1999/xlink" width="138.4pt" height="110.4pt" viewBox="0 0 138.4 110.4" version="1.1">
<g id="surface742">
<path style=" stroke:none;fill-rule:nonzero;fill:rgb(0%,0%,0%);fill-opacity:1;" d="M 37.792969 16.230469 C 37.578125 16.230469 37.386719 16.269531 37.21875 16.339844 C 37.050781 16.414062 36.910156 16.519531 36.796875 16.652344 C 36.6875 16.785156 36.601562 16.945312 36.546875 17.128906 C 36.488281 17.320312 36.460938 17.527344 36.460938 17.757812 C 36.460938 17.992188 36.488281 18.203125 36.546875 18.398438 C 36.613281 18.589844 36.699219 18.75 36.816406 18.886719 C 36.933594 19.023438 37.074219 19.132812 37.242188 19.210938 C 37.414062 19.285156 37.605469 19.320312 37.816406 19.320312 C 37.96875 19.320312 38.101562 19.304688 38.21875 19.265625 C 38.339844 19.222656 38.453125 19.164062 38.554688 19.09375 C 38.65625 19.023438 38.742188 18.9375 38.816406 18.84375 C 38.894531 18.75 38.960938 18.640625 39.023438 18.519531 L 39.445312 18.734375 C 39.378906 18.878906 39.296875 19.011719 39.195312 19.136719 C 39.09375 19.261719 38.972656 19.367188 38.835938 19.460938 C 38.699219 19.546875 38.542969 19.617188 38.371094 19.667969 C 38.195312 19.714844 38.003906 19.742188 37.792969 19.742188 C 37.484375 19.742188 37.210938 19.695312 36.980469 19.601562 C 36.746094 19.5 36.550781 19.363281 36.394531 19.191406 C 36.242188 19.011719 36.125 18.800781 36.046875 18.5625 C 35.964844 18.316406 35.925781 18.050781 35.925781 17.757812 C 35.925781 17.464844 35.964844 17.195312 36.046875 16.957031 C 36.132812 16.714844 36.257812 16.507812 36.417969 16.339844 C 36.574219 16.175781 36.769531 16.042969 37.003906 15.949219 C 37.234375 15.859375 37.496094 15.808594 37.792969 15.808594 C 38.199219 15.808594 38.535156 15.890625 38.804688 16.046875 C 39.078125 16.207031 39.28125 16.445312 39.414062 16.761719 L 38.925781 16.925781 C 38.886719 16.832031 38.835938 16.746094 38.773438 16.664062 C 38.710938 16.578125 38.636719 16.507812 38.542969 16.449219 C 38.449219 16.382812 38.339844 16.335938 38.21875 16.296875 C 38.09375 16.253906 37.953125 16.230469 37.792969 16.230469 Z M 37.792969 16.230469 "/>
<path style=" stroke:none;fill-rule:nonzero;fill:rgb(0%,0%,0%);fill-opacity:1;" d="M 40.203125 19.6875 L 40.203125 15.667969 L 40.691406 15.667969 L 40.691406 19.6875 Z M 40.203125 19.6875 "/>
<path style=" stroke:none;fill-rule:nonzero;fill:rgb(0%,0%,0%);fill-opacity:1;" d="M 47.816406 29.980469 C 47.816406 30.367188 47.730469 30.660156 47.566406 30.847656 C 47.398438 31.035156 47.152344 31.128906 46.828125 31.128906 C 46.675781 31.128906 46.535156 31.105469 46.414062 31.0625 C 46.289062 31.015625 46.1875 30.941406 46.101562 30.847656 C 46.019531 30.753906 45.957031 30.632812 45.914062 30.488281 C 45.871094 30.34375 45.851562 30.175781 45.851562 29.980469 C 45.851562 29.21875 46.179688 28.839844 46.835938 28.839844 C 47.011719 28.839844 47.15625 28.867188 47.28125 28.917969 C 47.40625 28.960938 47.503906 29.035156 47.585938 29.132812 C 47.664062 29.230469 47.722656 29.347656 47.761719 29.492188 C 47.796875 29.628906 47.816406 29.792969 47.816406 29.980469 Z M 47.433594 29.980469 C 47.433594 29.8125 47.417969 29.675781 47.390625 29.566406 C 47.371094 29.453125 47.332031 29.359375 47.28125 29.296875 C 47.230469 29.230469 47.167969 29.183594 47.085938 29.15625 C 47.015625 29.128906 46.9375 29.113281 46.847656 29.113281 C 46.753906 29.113281 46.667969 29.128906 46.589844 29.15625 C 46.515625 29.183594 46.449219 29.238281 46.394531 29.308594 C 46.339844 29.371094 46.300781 29.457031 46.273438 29.566406 C 46.25 29.675781 46.242188 29.8125 46.242188 29.980469 C 46.242188 30.152344 46.253906 30.296875 46.285156 30.414062 C 46.3125 30.519531 46.351562 30.605469 46.402344 30.671875 C 46.453125 30.738281 46.515625 30.785156 46.589844 30.8125 C 46.660156 30.84375 46.738281 30.855469 46.828125 30.855469 C 46.917969 30.855469 47.003906 30.84375 47.078125 30.8125 C 47.15625 30.785156 47.21875 30.738281 47.273438 30.671875 C 47.320312 30.605469 47.363281 30.519531 47.390625 30.414062 C 47.417969 30.296875 47.433594 30.152344 47.433594 29.980469 Z M 47.433594 29.980469 "/>
<path style=" stroke:none;fill-rule:nonzero;fill:rgb(0%,0%,0%);fill-opacity:1;" d="M 48.222656 31.085938 L 48.222656 29.394531 C 48.222656 29.351562 48.214844 29.308594 48.210938 29.265625 C 48.210938 29.214844 48.210938 29.167969 48.210938 29.121094 C 48.210938 29.074219 48.210938 29.03125 48.210938 28.992188 C 48.210938 28.949219 48.210938 28.914062 48.210938 28.882812 L 48.546875 28.882812 C 48.550781 28.914062 48.558594 28.949219 48.558594 28.992188 C 48.558594 29.03125 48.558594 29.070312 48.558594 29.113281 C 48.5625 29.15625 48.570312 29.199219 48.570312 29.242188 C 48.570312 29.28125 48.570312 29.3125 48.570312 29.339844 L 48.578125 29.339844 C 48.601562 29.253906 48.625 29.183594 48.65625 29.121094 C 48.683594 29.058594 48.714844 29.007812 48.753906 28.972656 C 48.796875 28.929688 48.84375 28.894531 48.894531 28.875 C 48.953125 28.851562 49.019531 28.839844 49.101562 28.839844 C 49.128906 28.839844 49.15625 28.847656 49.175781 28.851562 C 49.203125 28.859375 49.230469 28.863281 49.253906 28.863281 L 49.253906 29.199219 C 49.222656 29.191406 49.191406 29.1875 49.15625 29.1875 C 49.125 29.183594 49.09375 29.175781 49.058594 29.175781 C 48.96875 29.175781 48.898438 29.199219 48.839844 29.242188 C 48.78125 29.28125 48.730469 29.328125 48.6875 29.394531 C 48.648438 29.457031 48.625 29.539062 48.601562 29.632812 C 48.585938 29.726562 48.578125 29.828125 48.578125 29.9375 L 48.578125 31.085938 Z M 48.222656 31.085938 "/>
<path style=" stroke:none;fill-rule:nonzero;fill:rgb(0%,0%,0%);fill-opacity:1;" d="M 49.589844 31.085938 L 49.589844 30.769531 L 50.328125 30.769531 L 50.328125 28.570312 L 49.679688 29.035156 L 49.679688 28.691406 L 50.351562 28.222656 L 50.699219 28.222656 L 50.699219 30.769531 L 51.394531 30.769531 L 51.394531 31.085938 Z M 49.589844 31.085938 "/>
<path style=" stroke:none;fill-rule:nonzero;fill:rgb(0%,0%,0%);fill-opacity:1;" d="M 33.027344 51.539062 C 33.027344 51.929688 32.941406 52.21875 32.777344 52.40625 C 32.609375 52.59375 32.363281 52.6875 32.039062 52.6875 C 31.886719 52.6875 31.75 52.664062 31.625 52.621094 C 31.5 52.574219 31.398438 52.5 31.3125 52.40625 C 31.230469 52.3125 31.171875 52.195312 31.125 52.046875 C 31.082031 51.90625 31.0625 51.734375 31.0625 51.539062 C 31.0625 50.78125 31.390625 50.402344 32.050781 50.402344 C 32.222656 50.402344 32.371094 50.429688 32.496094 50.476562 C 32.617188 50.519531 32.71875 50.59375 32.796875 50.695312 C 32.878906 50.789062 32.933594 50.90625 32.972656 51.050781 C 33.007812 51.1875 33.027344 51.351562 33.027344 51.539062 Z M 32.644531 51.539062 C 32.644531 51.375 32.628906 51.234375 32.601562 51.128906 C 32.582031 51.011719 32.542969 50.921875 32.496094 50.855469 C 32.441406 50.792969 32.378906 50.746094 32.300781 50.714844 C 32.226562 50.6875 32.148438 50.671875 32.058594 50.671875 C 31.964844 50.671875 31.878906 50.6875 31.800781 50.714844 C 31.726562 50.746094 31.660156 50.796875 31.605469 50.867188 C 31.554688 50.933594 31.511719 51.019531 31.484375 51.128906 C 31.464844 51.234375 31.453125 51.375 31.453125 51.539062 C 31.453125 51.710938 31.464844 51.859375 31.496094 51.972656 C 31.523438 52.082031 31.5625 52.167969 31.613281 52.230469 C 31.664062 52.296875 31.726562 52.347656 31.800781 52.371094 C 31.871094 52.402344 31.953125 52.417969 32.039062 52.417969 C 32.128906 52.417969 32.214844 52.402344 32.289062 52.371094 C 32.367188 52.347656 32.433594 52.296875 32.484375 52.230469 C 32.53125 52.167969 32.574219 52.082031 32.601562 51.972656 C 32.628906 51.859375 32.644531 51.710938 32.644531 51.539062 Z M 32.644531 51.539062 "/>
<path style=" stroke:none;fill-rule:nonzero;fill:rgb(0%,0%,0%);fill-opacity:1;" d="M 33.433594 52.644531 L 33.433594 50.953125 C 33.433594 50.910156 33.425781 50.867188 33.421875 50.824219 C 33.421875 50.773438 33.421875 50.726562 33.421875 50.683594 C 33.421875 50.632812 33.421875 50.589844 33.421875 50.550781 C 33.421875 50.507812 33.421875 50.472656 33.421875 50.445312 L 33.757812 50.445312 C 33.765625 50.472656 33.769531 50.507812 33.769531 50.550781 C 33.769531 50.589844 33.769531 50.628906 33.769531 50.671875 C 33.773438 50.714844 33.78125 50.757812 33.78125 50.800781 C 33.78125 50.839844 33.78125 50.871094 33.78125 50.898438 L 33.792969 50.898438 C 33.8125 50.8125 33.835938 50.742188 33.867188 50.683594 C 33.894531 50.617188 33.925781 50.570312 33.964844 50.53125 C 34.007812 50.488281 34.054688 50.457031 34.105469 50.433594 C 34.164062 50.410156 34.230469 50.402344 34.3125 50.402344 C 34.339844 50.402344 34.367188 50.40625 34.386719 50.410156 C 34.414062 50.421875 34.441406 50.421875 34.464844 50.421875 L 34.464844 50.757812 C 34.433594 50.753906 34.402344 50.746094 34.367188 50.746094 C 34.335938 50.742188 34.304688 50.738281 34.269531 50.738281 C 34.183594 50.738281 34.109375 50.757812 34.050781 50.800781 C 33.992188 50.839844 33.941406 50.886719 33.898438 50.953125 C 33.863281 51.019531 33.835938 51.101562 33.8125 51.191406 C 33.796875 51.285156 33.792969 51.386719 33.792969 51.496094 L 33.792969 52.644531 Z M 33.433594 52.644531 "/>
<path style=" stroke:none;fill-rule:nonzero;fill:rgb(0%,0%,0%);fill-opacity:1;" d="M 34.804688 52.644531 L 34.804688 52.328125 L 35.542969 52.328125 L 35.542969 50.128906 L 34.890625 50.597656 L 34.890625 50.25 L 35.5625 49.785156 L 35.910156 49.785156 L 35.910156 52.328125 L 36.605469 52.328125 L 36.605469 52.644531 Z M 34.804688 52.644531 "/>
<path style=" stroke:none;fill-rule:nonzero;fill:rgb(0%,0%,0%);fill-opacity:1;" d="M 44 68.933594 C 43.777344 68.933594 43.605469 68.878906 43.492188 68.761719 C 43.382812 68.640625 43.328125 68.476562 43.328125 68.273438 C 43.328125 68.128906 43.355469 68.015625 43.414062 67.925781 C 43.472656 67.835938 43.546875 67.761719 43.632812 67.710938 C 43.71875 67.652344 43.820312 67.613281 43.9375 67.589844 C 44.050781 67.570312 44.167969 67.558594 44.285156 67.558594 L 44.773438 67.546875 L 44.773438 67.429688 C 44.773438 67.34375 44.761719 67.265625 44.738281 67.203125 C 44.722656 67.136719 44.695312 67.085938 44.652344 67.050781 C 44.613281 67.007812 44.570312 66.980469 44.511719 66.964844 C 44.453125 66.941406 44.382812 66.929688 44.304688 66.929688 C 44.234375 66.929688 44.167969 66.9375 44.109375 66.953125 C 44.050781 66.960938 44 66.980469 43.957031 67.007812 C 43.921875 67.027344 43.886719 67.066406 43.859375 67.113281 C 43.839844 67.15625 43.824219 67.210938 43.816406 67.277344 L 43.425781 67.246094 C 43.441406 67.15625 43.464844 67.078125 43.503906 67.007812 C 43.546875 66.9375 43.601562 66.875 43.664062 66.820312 C 43.734375 66.765625 43.824219 66.722656 43.925781 66.691406 C 44.035156 66.664062 44.164062 66.648438 44.316406 66.648438 C 44.589844 66.648438 44.796875 66.714844 44.933594 66.84375 C 45.078125 66.96875 45.152344 67.152344 45.152344 67.394531 L 45.152344 68.339844 C 45.152344 68.449219 45.164062 68.53125 45.183594 68.589844 C 45.210938 68.640625 45.273438 68.664062 45.359375 68.664062 C 45.371094 68.664062 45.390625 68.664062 45.414062 68.664062 C 45.433594 68.660156 45.457031 68.652344 45.476562 68.652344 L 45.476562 68.878906 C 45.425781 68.890625 45.378906 68.894531 45.335938 68.902344 C 45.292969 68.90625 45.246094 68.914062 45.195312 68.914062 C 45.121094 68.914062 45.058594 68.90625 45.011719 68.890625 C 44.960938 68.871094 44.917969 68.84375 44.890625 68.804688 C 44.863281 68.761719 44.835938 68.714844 44.816406 68.664062 C 44.800781 68.605469 44.792969 68.542969 44.792969 68.46875 L 44.773438 68.46875 C 44.734375 68.542969 44.691406 68.605469 44.640625 68.664062 C 44.597656 68.722656 44.542969 68.773438 44.480469 68.816406 C 44.417969 68.855469 44.351562 68.878906 44.273438 68.902344 C 44.191406 68.925781 44.101562 68.933594 44 68.933594 Z M 44.078125 68.652344 C 44.191406 68.652344 44.292969 68.636719 44.382812 68.597656 C 44.472656 68.554688 44.550781 68.5 44.609375 68.4375 C 44.667969 68.367188 44.707031 68.289062 44.730469 68.210938 C 44.757812 68.128906 44.773438 68.058594 44.773438 67.992188 L 44.773438 67.808594 L 44.382812 67.820312 C 44.285156 67.820312 44.199219 67.828125 44.121094 67.839844 C 44.039062 67.847656 43.96875 67.871094 43.902344 67.90625 C 43.84375 67.933594 43.796875 67.980469 43.761719 68.046875 C 43.726562 68.105469 43.707031 68.183594 43.707031 68.285156 C 43.707031 68.402344 43.742188 68.492188 43.804688 68.554688 C 43.871094 68.621094 43.960938 68.652344 44.078125 68.652344 Z M 44.078125 68.652344 "/>
<path style=" stroke:none;fill-rule:nonzero;fill:rgb(0%,0%,0%);fill-opacity:1;" d="M 47.546875 67.785156 C 47.546875 68.554688 47.277344 68.933594 46.742188 68.933594 C 46.574219 68.933594 46.433594 68.90625 46.320312 68.847656 C 46.210938 68.785156 46.125 68.683594 46.058594 68.542969 L 46.046875 68.542969 C 46.046875 68.582031 46.046875 68.621094 46.046875 68.664062 C 46.046875 68.703125 46.042969 68.738281 46.035156 68.773438 C 46.035156 68.800781 46.035156 68.828125 46.035156 68.847656 C 46.035156 68.871094 46.03125 68.886719 46.027344 68.890625 L 45.679688 68.890625 C 45.679688 68.878906 45.679688 68.855469 45.679688 68.828125 C 45.679688 68.800781 45.679688 68.765625 45.679688 68.730469 C 45.683594 68.6875 45.6875 68.640625 45.6875 68.589844 C 45.6875 68.539062 45.6875 68.488281 45.6875 68.4375 L 45.6875 65.878906 L 46.058594 65.878906 L 46.058594 66.734375 C 46.058594 66.777344 46.054688 66.820312 46.046875 66.855469 C 46.046875 66.890625 46.046875 66.925781 46.046875 66.953125 C 46.046875 66.988281 46.046875 67.023438 46.046875 67.050781 L 46.058594 67.050781 C 46.125 66.90625 46.210938 66.804688 46.320312 66.746094 C 46.433594 66.679688 46.574219 66.648438 46.742188 66.648438 C 47.015625 66.648438 47.21875 66.742188 47.351562 66.929688 C 47.480469 67.121094 47.546875 67.40625 47.546875 67.785156 Z M 47.164062 67.796875 C 47.164062 67.644531 47.15625 67.515625 47.132812 67.40625 C 47.117188 67.300781 47.089844 67.210938 47.046875 67.136719 C 47.003906 67.066406 46.949219 67.015625 46.882812 66.984375 C 46.816406 66.949219 46.738281 66.929688 46.644531 66.929688 C 46.550781 66.929688 46.460938 66.949219 46.382812 66.984375 C 46.3125 67.015625 46.25 67.066406 46.199219 67.136719 C 46.15625 67.203125 46.117188 67.292969 46.089844 67.40625 C 46.070312 67.515625 46.058594 67.652344 46.058594 67.820312 C 46.058594 67.980469 46.070312 68.113281 46.089844 68.21875 C 46.117188 68.324219 46.15625 68.410156 46.199219 68.480469 C 46.25 68.542969 46.3125 68.59375 46.382812 68.621094 C 46.460938 68.652344 46.550781 68.664062 46.644531 68.664062 C 46.730469 68.664062 46.808594 68.652344 46.871094 68.621094 C 46.9375 68.585938 46.992188 68.535156 47.035156 68.46875 C 47.078125 68.398438 47.113281 68.304688 47.132812 68.199219 C 47.15625 68.085938 47.164062 67.949219 47.164062 67.796875 Z M 47.164062 67.796875 "/>
<path style=" stroke:none;fill-rule:nonzero;fill:rgb(0%,0%,0%);fill-opacity:1;" d="M 49.589844 68.285156 C 49.589844 68.386719 49.570312 68.476562 49.527344 68.554688 C 49.488281 68.636719 49.429688 68.703125 49.351562 68.761719 C 49.277344 68.820312 49.191406 68.863281 49.082031 68.890625 C 48.972656 68.917969 48.84375 68.933594 48.703125 68.933594 C 48.570312 68.933594 48.453125 68.925781 48.355469 68.902344 C 48.25 68.878906 48.160156 68.847656 48.082031 68.804688 C 48.007812 68.761719 47.945312 68.707031 47.886719 68.640625 C 47.835938 68.570312 47.800781 68.480469 47.777344 68.371094 L 48.105469 68.316406 C 48.132812 68.433594 48.195312 68.519531 48.289062 68.578125 C 48.390625 68.628906 48.527344 68.652344 48.703125 68.652344 C 48.78125 68.652344 48.851562 68.652344 48.917969 68.640625 C 48.984375 68.628906 49.039062 68.609375 49.082031 68.589844 C 49.128906 68.5625 49.167969 68.523438 49.191406 68.480469 C 49.21875 68.4375 49.234375 68.382812 49.234375 68.316406 C 49.234375 68.246094 49.21875 68.191406 49.191406 68.15625 C 49.160156 68.113281 49.117188 68.078125 49.058594 68.046875 C 49 68.019531 48.933594 67.992188 48.851562 67.96875 C 48.773438 67.949219 48.683594 67.925781 48.59375 67.894531 C 48.503906 67.875 48.417969 67.847656 48.332031 67.820312 C 48.246094 67.792969 48.164062 67.753906 48.09375 67.710938 C 48.027344 67.660156 47.972656 67.601562 47.929688 67.539062 C 47.886719 67.464844 47.867188 67.378906 47.867188 67.277344 C 47.867188 67.078125 47.933594 66.925781 48.070312 66.820312 C 48.214844 66.714844 48.425781 66.660156 48.703125 66.660156 C 48.945312 66.660156 49.136719 66.703125 49.277344 66.789062 C 49.421875 66.875 49.515625 67.015625 49.558594 67.203125 L 49.222656 67.234375 C 49.214844 67.175781 49.191406 67.132812 49.15625 67.09375 C 49.128906 67.058594 49.085938 67.027344 49.039062 67.007812 C 48.996094 66.980469 48.941406 66.960938 48.886719 66.953125 C 48.824219 66.9375 48.765625 66.929688 48.703125 66.929688 C 48.53125 66.929688 48.410156 66.957031 48.332031 67.007812 C 48.257812 67.058594 48.222656 67.132812 48.222656 67.234375 C 48.222656 67.300781 48.238281 67.351562 48.265625 67.386719 C 48.292969 67.421875 48.335938 67.457031 48.386719 67.484375 C 48.433594 67.511719 48.496094 67.539062 48.570312 67.558594 C 48.640625 67.574219 48.726562 67.589844 48.820312 67.613281 C 48.878906 67.628906 48.933594 67.644531 48.996094 67.667969 C 49.050781 67.683594 49.109375 67.699219 49.167969 67.722656 C 49.226562 67.742188 49.277344 67.773438 49.332031 67.808594 C 49.378906 67.839844 49.421875 67.878906 49.460938 67.925781 C 49.503906 67.96875 49.535156 68.023438 49.558594 68.078125 C 49.582031 68.136719 49.589844 68.207031 49.589844 68.285156 Z M 49.589844 68.285156 "/>
<path style=" stroke:none;fill-rule:nonzero;fill:rgb(0%,0%,0%);fill-opacity:1;" d="M 29.765625 74.96875 C 29.539062 74.96875 29.367188 74.910156 29.253906 74.792969 C 29.144531 74.671875 29.089844 74.511719 29.089844 74.308594 C 29.089844 74.164062 29.117188 74.046875 29.179688 73.960938 C 29.234375 73.867188 29.308594 73.792969 29.394531 73.742188 C 29.480469 73.6875 29.582031 73.644531 29.699219 73.625 C 29.8125 73.601562 29.929688 73.589844 30.046875 73.589844 L 30.535156 73.582031 L 30.535156 73.460938 C 30.535156 73.375 30.523438 73.300781 30.503906 73.234375 C 30.484375 73.167969 30.460938 73.121094 30.414062 73.082031 C 30.378906 73.039062 30.332031 73.011719 30.273438 72.996094 C 30.214844 72.972656 30.148438 72.964844 30.066406 72.964844 C 29.996094 72.964844 29.929688 72.972656 29.871094 72.984375 C 29.8125 72.992188 29.765625 73.011719 29.722656 73.039062 C 29.683594 73.0625 29.648438 73.097656 29.625 73.148438 C 29.601562 73.191406 29.585938 73.246094 29.578125 73.308594 L 29.1875 73.277344 C 29.203125 73.191406 29.226562 73.113281 29.265625 73.039062 C 29.308594 72.96875 29.363281 72.90625 29.425781 72.855469 C 29.5 72.796875 29.585938 72.753906 29.6875 72.726562 C 29.796875 72.699219 29.925781 72.679688 30.078125 72.679688 C 30.351562 72.679688 30.558594 72.746094 30.699219 72.875 C 30.839844 73 30.914062 73.183594 30.914062 73.429688 L 30.914062 74.371094 C 30.914062 74.480469 30.925781 74.5625 30.949219 74.621094 C 30.976562 74.671875 31.035156 74.695312 31.121094 74.695312 C 31.136719 74.695312 31.152344 74.695312 31.175781 74.695312 C 31.195312 74.691406 31.21875 74.6875 31.242188 74.6875 L 31.242188 74.914062 C 31.1875 74.921875 31.144531 74.925781 31.097656 74.933594 C 31.054688 74.941406 31.007812 74.945312 30.957031 74.945312 C 30.886719 74.945312 30.824219 74.9375 30.773438 74.925781 C 30.722656 74.902344 30.679688 74.875 30.65625 74.835938 C 30.625 74.792969 30.601562 74.75 30.578125 74.695312 C 30.5625 74.640625 30.558594 74.574219 30.558594 74.5 L 30.535156 74.5 C 30.496094 74.574219 30.453125 74.640625 30.40625 74.695312 C 30.359375 74.757812 30.308594 74.804688 30.242188 74.847656 C 30.183594 74.886719 30.113281 74.914062 30.035156 74.933594 C 29.953125 74.957031 29.863281 74.96875 29.765625 74.96875 Z M 29.839844 74.6875 C 29.953125 74.6875 30.058594 74.667969 30.144531 74.632812 C 30.238281 74.589844 30.3125 74.535156 30.371094 74.46875 C 30.429688 74.398438 30.46875 74.324219 30.492188 74.242188 C 30.519531 74.164062 30.535156 74.089844 30.535156 74.023438 L 30.535156 73.839844 L 30.144531 73.851562 C 30.050781 73.851562 29.960938 73.859375 29.882812 73.875 C 29.800781 73.882812 29.730469 73.902344 29.667969 73.9375 C 29.605469 73.96875 29.5625 74.015625 29.527344 74.078125 C 29.488281 74.140625 29.472656 74.21875 29.472656 74.316406 C 29.472656 74.433594 29.503906 74.523438 29.570312 74.589844 C 29.632812 74.652344 29.722656 74.6875 29.839844 74.6875 Z M 29.839844 74.6875 "/>
<path style=" stroke:none;fill-rule:nonzero;fill:rgb(0%,0%,0%);fill-opacity:1;" d="M 33.308594 73.820312 C 33.308594 74.585938 33.039062 74.96875 32.503906 74.96875 C 32.335938 74.96875 32.195312 74.9375 32.082031 74.882812 C 31.972656 74.816406 31.886719 74.714844 31.820312 74.578125 L 31.808594 74.578125 C 31.808594 74.617188 31.808594 74.652344 31.808594 74.695312 C 31.808594 74.734375 31.804688 74.769531 31.800781 74.804688 C 31.800781 74.835938 31.800781 74.859375 31.800781 74.882812 C 31.800781 74.902344 31.792969 74.917969 31.789062 74.925781 L 31.441406 74.925781 C 31.441406 74.910156 31.441406 74.890625 31.441406 74.859375 C 31.441406 74.832031 31.441406 74.800781 31.441406 74.761719 C 31.445312 74.71875 31.453125 74.671875 31.453125 74.621094 C 31.453125 74.570312 31.453125 74.519531 31.453125 74.46875 L 31.453125 71.910156 L 31.820312 71.910156 L 31.820312 72.769531 C 31.820312 72.8125 31.816406 72.851562 31.808594 72.886719 C 31.808594 72.925781 31.808594 72.957031 31.808594 72.984375 C 31.808594 73.023438 31.808594 73.054688 31.808594 73.082031 L 31.820312 73.082031 C 31.886719 72.9375 31.972656 72.839844 32.082031 72.777344 C 32.195312 72.714844 32.335938 72.679688 32.503906 72.679688 C 32.777344 72.679688 32.980469 72.777344 33.113281 72.964844 C 33.242188 73.152344 33.308594 73.4375 33.308594 73.820312 Z M 32.929688 73.828125 C 32.929688 73.679688 32.917969 73.546875 32.894531 73.441406 C 32.878906 73.332031 32.851562 73.242188 32.808594 73.167969 C 32.765625 73.097656 32.710938 73.046875 32.644531 73.015625 C 32.582031 72.980469 32.5 72.964844 32.40625 72.964844 C 32.3125 72.964844 32.226562 72.980469 32.148438 73.015625 C 32.074219 73.046875 32.011719 73.097656 31.960938 73.167969 C 31.917969 73.234375 31.878906 73.324219 31.851562 73.441406 C 31.832031 73.546875 31.820312 73.6875 31.820312 73.851562 C 31.820312 74.011719 31.832031 74.144531 31.851562 74.253906 C 31.878906 74.355469 31.917969 74.441406 31.960938 74.511719 C 32.011719 74.578125 32.074219 74.625 32.148438 74.652344 C 32.226562 74.683594 32.3125 74.695312 32.40625 74.695312 C 32.492188 74.695312 32.570312 74.683594 32.636719 74.652344 C 32.699219 74.617188 32.753906 74.566406 32.796875 74.5 C 32.839844 74.429688 32.875 74.339844 32.894531 74.230469 C 32.917969 74.117188 32.929688 73.980469 32.929688 73.828125 Z M 32.929688 73.828125 "/>
<path style=" stroke:none;fill-rule:nonzero;fill:rgb(0%,0%,0%);fill-opacity:1;" d="M 35.355469 74.316406 C 35.355469 74.421875 35.332031 74.511719 35.289062 74.589844 C 35.25 74.667969 35.195312 74.738281 35.113281 74.792969 C 35.042969 74.855469 34.953125 74.898438 34.84375 74.925781 C 34.734375 74.953125 34.609375 74.96875 34.464844 74.96875 C 34.332031 74.96875 34.214844 74.957031 34.117188 74.933594 C 34.011719 74.914062 33.921875 74.882812 33.84375 74.835938 C 33.773438 74.792969 33.707031 74.738281 33.648438 74.675781 C 33.597656 74.605469 33.5625 74.511719 33.539062 74.402344 L 33.867188 74.351562 C 33.894531 74.464844 33.957031 74.554688 34.050781 74.609375 C 34.152344 74.660156 34.289062 74.6875 34.464844 74.6875 C 34.542969 74.6875 34.617188 74.683594 34.679688 74.675781 C 34.746094 74.660156 34.800781 74.640625 34.84375 74.621094 C 34.890625 74.59375 34.929688 74.554688 34.953125 74.511719 C 34.980469 74.46875 34.996094 74.414062 34.996094 74.351562 C 34.996094 74.28125 34.980469 74.226562 34.953125 74.1875 C 34.921875 74.144531 34.878906 74.109375 34.820312 74.078125 C 34.761719 74.050781 34.695312 74.023438 34.617188 74.003906 C 34.535156 73.980469 34.449219 73.957031 34.355469 73.925781 C 34.269531 73.90625 34.179688 73.882812 34.09375 73.851562 C 34.007812 73.824219 33.925781 73.785156 33.855469 73.742188 C 33.789062 73.695312 33.734375 73.636719 33.691406 73.570312 C 33.648438 73.5 33.628906 73.414062 33.628906 73.308594 C 33.628906 73.109375 33.695312 72.957031 33.835938 72.855469 C 33.976562 72.746094 34.1875 72.691406 34.464844 72.691406 C 34.707031 72.691406 34.902344 72.734375 35.039062 72.820312 C 35.183594 72.910156 35.277344 73.046875 35.320312 73.234375 L 34.984375 73.265625 C 34.976562 73.210938 34.953125 73.164062 34.917969 73.125 C 34.890625 73.089844 34.847656 73.0625 34.800781 73.039062 C 34.757812 73.011719 34.707031 72.992188 34.648438 72.984375 C 34.589844 72.972656 34.527344 72.964844 34.464844 72.964844 C 34.296875 72.964844 34.171875 72.988281 34.09375 73.039062 C 34.019531 73.089844 33.984375 73.167969 33.984375 73.265625 C 33.984375 73.332031 34 73.382812 34.03125 73.417969 C 34.054688 73.457031 34.097656 73.488281 34.148438 73.515625 C 34.199219 73.546875 34.261719 73.570312 34.332031 73.589844 C 34.402344 73.609375 34.488281 73.625 34.582031 73.644531 C 34.640625 73.660156 34.695312 73.679688 34.757812 73.699219 C 34.8125 73.714844 34.871094 73.730469 34.929688 73.753906 C 34.988281 73.777344 35.042969 73.804688 35.09375 73.839844 C 35.140625 73.871094 35.1875 73.910156 35.222656 73.960938 C 35.265625 74.003906 35.300781 74.054688 35.320312 74.113281 C 35.34375 74.171875 35.355469 74.238281 35.355469 74.316406 Z M 35.355469 74.316406 "/>
<path style=" stroke:none;fill-rule:nonzero;fill:rgb(0%,0%,0%);fill-opacity:1;" d="M 44.160156 93.15625 C 44.160156 93.453125 44.117188 93.722656 44.027344 93.96875 C 43.941406 94.214844 43.816406 94.421875 43.648438 94.597656 C 43.488281 94.769531 43.289062 94.90625 43.050781 94.996094 C 42.820312 95.089844 42.554688 95.136719 42.257812 95.136719 C 41.9375 95.136719 41.664062 95.089844 41.421875 94.996094 C 41.191406 94.898438 40.996094 94.757812 40.835938 94.585938 C 40.675781 94.40625 40.558594 94.195312 40.480469 93.957031 C 40.398438 93.714844 40.359375 93.445312 40.359375 93.15625 C 40.359375 92.859375 40.398438 92.589844 40.480469 92.351562 C 40.566406 92.109375 40.6875 91.902344 40.847656 91.734375 C 41.015625 91.570312 41.210938 91.441406 41.445312 91.34375 C 41.683594 91.253906 41.957031 91.203125 42.257812 91.203125 C 42.5625 91.203125 42.835938 91.253906 43.074219 91.34375 C 43.3125 91.441406 43.511719 91.574219 43.671875 91.746094 C 43.828125 91.914062 43.949219 92.113281 44.027344 92.351562 C 44.117188 92.589844 44.160156 92.859375 44.160156 93.15625 Z M 43.628906 93.15625 C 43.628906 92.925781 43.597656 92.714844 43.539062 92.527344 C 43.480469 92.339844 43.394531 92.179688 43.28125 92.050781 C 43.164062 91.914062 43.019531 91.808594 42.84375 91.734375 C 42.675781 91.664062 42.480469 91.628906 42.257812 91.628906 C 42.035156 91.628906 41.835938 91.664062 41.664062 91.734375 C 41.488281 91.808594 41.34375 91.914062 41.226562 92.050781 C 41.121094 92.179688 41.035156 92.339844 40.976562 92.527344 C 40.917969 92.714844 40.890625 92.925781 40.890625 93.15625 C 40.890625 93.386719 40.917969 93.597656 40.976562 93.792969 C 41.035156 93.984375 41.121094 94.144531 41.238281 94.28125 C 41.351562 94.417969 41.492188 94.527344 41.664062 94.605469 C 41.835938 94.679688 42.035156 94.714844 42.257812 94.714844 C 42.5 94.714844 42.703125 94.679688 42.878906 94.605469 C 43.050781 94.527344 43.191406 94.417969 43.300781 94.28125 C 43.410156 94.136719 43.488281 93.972656 43.539062 93.785156 C 43.597656 93.589844 43.628906 93.378906 43.628906 93.15625 Z M 43.628906 93.15625 "/>
<path style=" stroke:none;fill-rule:nonzero;fill:rgb(0%,0%,0%);fill-opacity:1;" d="M 63.476562 32.777344 C 63.261719 32.777344 63.066406 32.816406 62.902344 32.886719 C 62.734375 32.957031 62.59375 33.0625 62.480469 33.199219 C 62.371094 33.328125 62.285156 33.488281 62.230469 33.675781 C 62.167969 33.867188 62.140625 34.074219 62.140625 34.304688 C 62.140625 34.539062 62.167969 34.75 62.230469 34.945312 C 62.292969 35.132812 62.382812 35.296875 62.5 35.433594 C 62.613281 35.570312 62.753906 35.679688 62.921875 35.757812 C 63.097656 35.828125 63.289062 35.867188 63.5 35.867188 C 63.652344 35.867188 63.785156 35.847656 63.902344 35.8125 C 64.023438 35.769531 64.132812 35.710938 64.238281 35.636719 C 64.335938 35.566406 64.425781 35.484375 64.496094 35.386719 C 64.578125 35.296875 64.644531 35.1875 64.703125 35.0625 L 65.128906 35.28125 C 65.0625 35.425781 64.976562 35.558594 64.878906 35.679688 C 64.773438 35.804688 64.65625 35.914062 64.519531 36.007812 C 64.382812 36.09375 64.226562 36.164062 64.050781 36.210938 C 63.878906 36.261719 63.6875 36.289062 63.476562 36.289062 C 63.164062 36.289062 62.894531 36.238281 62.664062 36.148438 C 62.429688 36.046875 62.234375 35.910156 62.078125 35.734375 C 61.925781 35.554688 61.808594 35.34375 61.730469 35.105469 C 61.648438 34.863281 61.609375 34.59375 61.609375 34.304688 C 61.609375 34.007812 61.648438 33.742188 61.730469 33.503906 C 61.816406 33.257812 61.9375 33.054688 62.097656 32.886719 C 62.257812 32.71875 62.453125 32.589844 62.683594 32.496094 C 62.914062 32.402344 63.179688 32.355469 63.476562 32.355469 C 63.882812 32.355469 64.21875 32.4375 64.488281 32.59375 C 64.761719 32.753906 64.964844 32.992188 65.09375 33.308594 L 64.605469 33.46875 C 64.566406 33.378906 64.519531 33.292969 64.453125 33.210938 C 64.394531 33.125 64.320312 33.054688 64.226562 32.992188 C 64.132812 32.929688 64.023438 32.878906 63.902344 32.84375 C 63.777344 32.800781 63.632812 32.777344 63.476562 32.777344 Z M 63.476562 32.777344 "/>
<path style=" stroke:none;fill-rule:nonzero;fill:rgb(0%,0%,0%);fill-opacity:1;" d="M 19.195312 45.042969 C 18.980469 45.042969 18.785156 45.082031 18.621094 45.152344 C 18.453125 45.222656 18.3125 45.328125 18.195312 45.464844 C 18.089844 45.59375 18.003906 45.753906 17.949219 45.941406 C 17.886719 46.132812 17.859375 46.339844 17.859375 46.570312 C 17.859375 46.804688 17.886719 47.015625 17.949219 47.210938 C 18.011719 47.398438 18.101562 47.5625 18.21875 47.699219 C 18.332031 47.835938 18.472656 47.945312 18.640625 48.023438 C 18.816406 48.097656 19.007812 48.132812 19.21875 48.132812 C 19.371094 48.132812 19.503906 48.113281 19.621094 48.078125 C 19.742188 48.035156 19.851562 47.976562 19.957031 47.902344 C 20.054688 47.832031 20.144531 47.75 20.214844 47.652344 C 20.296875 47.5625 20.363281 47.453125 20.421875 47.328125 L 20.847656 47.546875 C 20.78125 47.691406 20.695312 47.824219 20.597656 47.945312 C 20.492188 48.070312 20.375 48.179688 20.238281 48.273438 C 20.101562 48.359375 19.945312 48.429688 19.769531 48.476562 C 19.597656 48.527344 19.40625 48.554688 19.195312 48.554688 C 18.882812 48.554688 18.613281 48.503906 18.382812 48.414062 C 18.148438 48.3125 17.953125 48.175781 17.796875 48 C 17.644531 47.820312 17.527344 47.609375 17.449219 47.371094 C 17.367188 47.128906 17.328125 46.859375 17.328125 46.570312 C 17.328125 46.277344 17.367188 46.007812 17.449219 45.769531 C 17.535156 45.523438 17.65625 45.320312 17.816406 45.152344 C 17.976562 44.984375 18.171875 44.855469 18.402344 44.761719 C 18.632812 44.667969 18.898438 44.621094 19.195312 44.621094 C 19.601562 44.621094 19.9375 44.703125 20.207031 44.859375 C 20.480469 45.019531 20.683594 45.257812 20.8125 45.574219 L 20.324219 45.738281 C 20.285156 45.644531 20.238281 45.558594 20.171875 45.476562 C 20.113281 45.390625 20.039062 45.320312 19.945312 45.257812 C 19.851562 45.195312 19.742188 45.144531 19.621094 45.109375 C 19.496094 45.066406 19.351562 45.042969 19.195312 45.042969 Z M 19.195312 45.042969 "/>
<path style=" stroke:none;fill-rule:nonzero;fill:rgb(0%,0%,0%);fill-opacity:1;" d="M 61.589844 62.746094 C 61.375 62.746094 61.179688 62.785156 61.015625 62.855469 C 60.847656 62.929688 60.707031 63.035156 60.59375 63.171875 C 60.484375 63.300781 60.398438 63.460938 60.34375 63.648438 C 60.28125 63.835938 60.253906 64.046875 60.253906 64.277344 C 60.253906 64.507812 60.28125 64.71875 60.34375 64.914062 C 60.40625 65.105469 60.496094 65.265625 60.613281 65.402344 C 60.726562 65.539062 60.871094 65.648438 61.039062 65.726562 C 61.210938 65.800781 61.402344 65.835938 61.613281 65.835938 C 61.765625 65.835938 61.898438 65.820312 62.015625 65.78125 C 62.136719 65.738281 62.246094 65.683594 62.351562 65.609375 C 62.453125 65.539062 62.539062 65.453125 62.613281 65.359375 C 62.691406 65.265625 62.757812 65.160156 62.816406 65.035156 L 63.242188 65.25 C 63.175781 65.398438 63.09375 65.53125 62.992188 65.652344 C 62.886719 65.777344 62.769531 65.886719 62.632812 65.976562 C 62.496094 66.0625 62.339844 66.132812 62.167969 66.183594 C 61.992188 66.230469 61.800781 66.257812 61.589844 66.257812 C 61.277344 66.257812 61.007812 66.210938 60.777344 66.117188 C 60.542969 66.015625 60.347656 65.878906 60.191406 65.707031 C 60.039062 65.527344 59.921875 65.316406 59.84375 65.078125 C 59.761719 64.832031 59.722656 64.566406 59.722656 64.277344 C 59.722656 63.980469 59.761719 63.710938 59.84375 63.472656 C 59.929688 63.230469 60.050781 63.023438 60.210938 62.855469 C 60.371094 62.691406 60.566406 62.5625 60.796875 62.464844 C 61.027344 62.375 61.292969 62.324219 61.589844 62.324219 C 61.996094 62.324219 62.332031 62.40625 62.601562 62.5625 C 62.875 62.722656 63.078125 62.960938 63.207031 63.277344 L 62.71875 63.441406 C 62.683594 63.347656 62.632812 63.261719 62.566406 63.179688 C 62.507812 63.09375 62.433594 63.023438 62.339844 62.964844 C 62.246094 62.898438 62.136719 62.851562 62.015625 62.8125 C 61.890625 62.769531 61.75 62.746094 61.589844 62.746094 Z M 61.589844 62.746094 "/>
<path style=" stroke:none;fill-rule:nonzero;fill:rgb(0%,0%,0%);fill-opacity:1;" d="M 17.308594 75.011719 C 17.089844 75.011719 16.898438 75.050781 16.730469 75.121094 C 16.5625 75.191406 16.421875 75.296875 16.308594 75.433594 C 16.199219 75.5625 16.117188 75.722656 16.058594 75.910156 C 16 76.101562 15.972656 76.308594 15.972656 76.539062 C 15.972656 76.773438 16 76.984375 16.058594 77.179688 C 16.125 77.367188 16.214844 77.53125 16.328125 77.664062 C 16.445312 77.804688 16.585938 77.914062 16.753906 77.992188 C 16.925781 78.0625 17.117188 78.097656 17.328125 78.097656 C 17.480469 78.097656 17.613281 78.082031 17.730469 78.042969 C 17.851562 78 17.964844 77.945312 18.066406 77.871094 C 18.167969 77.800781 18.253906 77.71875 18.328125 77.621094 C 18.40625 77.53125 18.472656 77.421875 18.535156 77.296875 L 18.957031 77.515625 C 18.890625 77.660156 18.808594 77.792969 18.707031 77.914062 C 18.605469 78.039062 18.484375 78.148438 18.347656 78.238281 C 18.210938 78.328125 18.054688 78.398438 17.882812 78.445312 C 17.707031 78.496094 17.515625 78.523438 17.308594 78.523438 C 16.996094 78.523438 16.722656 78.472656 16.492188 78.378906 C 16.257812 78.28125 16.0625 78.140625 15.90625 77.96875 C 15.753906 77.789062 15.636719 77.578125 15.558594 77.339844 C 15.476562 77.097656 15.441406 76.828125 15.441406 76.539062 C 15.441406 76.242188 15.476562 75.976562 15.558594 75.738281 C 15.644531 75.492188 15.769531 75.289062 15.929688 75.121094 C 16.085938 74.953125 16.28125 74.824219 16.515625 74.730469 C 16.746094 74.636719 17.007812 74.589844 17.308594 74.589844 C 17.710938 74.589844 18.046875 74.667969 18.316406 74.828125 C 18.589844 74.988281 18.792969 75.226562 18.925781 75.542969 L 18.4375 75.703125 C 18.398438 75.613281 18.347656 75.527344 18.285156 75.445312 C 18.222656 75.359375 18.148438 75.289062 18.054688 75.226562 C 17.960938 75.164062 17.851562 75.113281 17.730469 75.074219 C 17.605469 75.03125 17.464844 75.011719 17.308594 75.011719 Z M 17.308594 75.011719 "/>
<path style=" stroke:none;fill-rule:nonzero;fill:rgb(0%,0%,0%);fill-opacity:1;" d="M 95.484375 15.613281 C 95.269531 15.613281 95.078125 15.652344 94.910156 15.722656 C 94.742188 15.796875 94.601562 15.902344 94.488281 16.035156 C 94.378906 16.167969 94.292969 16.328125 94.238281 16.511719 C 94.179688 16.703125 94.152344 16.910156 94.152344 17.140625 C 94.152344 17.375 94.179688 17.585938 94.238281 17.78125 C 94.300781 17.96875 94.390625 18.132812 94.507812 18.269531 C 94.621094 18.40625 94.765625 18.515625 94.933594 18.59375 C 95.105469 18.667969 95.296875 18.703125 95.507812 18.703125 C 95.660156 18.703125 95.792969 18.6875 95.910156 18.648438 C 96.03125 18.605469 96.144531 18.546875 96.246094 18.472656 C 96.347656 18.402344 96.433594 18.320312 96.507812 18.226562 C 96.585938 18.132812 96.652344 18.023438 96.710938 17.898438 L 97.136719 18.117188 C 97.070312 18.261719 96.988281 18.394531 96.886719 18.519531 C 96.785156 18.640625 96.664062 18.75 96.527344 18.84375 C 96.390625 18.929688 96.234375 19 96.0625 19.046875 C 95.886719 19.097656 95.695312 19.125 95.484375 19.125 C 95.175781 19.125 94.902344 19.074219 94.671875 18.984375 C 94.4375 18.882812 94.242188 18.746094 94.085938 18.570312 C 93.933594 18.394531 93.816406 18.183594 93.738281 17.945312 C 93.65625 17.699219 93.617188 17.429688 93.617188 17.140625 C 93.617188 16.847656 93.65625 16.578125 93.738281 16.339844 C 93.824219 16.097656 93.945312 15.890625 94.105469 15.722656 C 94.265625 15.558594 94.460938 15.425781 94.695312 15.332031 C 94.925781 15.238281 95.1875 15.191406 95.484375 15.191406 C 95.890625 15.191406 96.226562 15.273438 96.496094 15.429688 C 96.769531 15.589844 96.972656 15.828125 97.105469 16.144531 L 96.613281 16.308594 C 96.578125 16.214844 96.527344 16.128906 96.464844 16.046875 C 96.402344 15.960938 96.328125 15.890625 96.234375 15.832031 C 96.140625 15.765625 96.03125 15.714844 95.910156 15.679688 C 95.785156 15.636719 95.644531 15.613281 95.484375 15.613281 Z M 95.484375 15.613281 "/>
<path style=" stroke:none;fill-rule:nonzero;fill:rgb(0%,0%,0%);fill-opacity:1;" d="M 97.894531 19.070312 L 97.894531 15.050781 L 98.382812 15.050781 L 98.382812 19.070312 Z M 97.894531 19.070312 "/>
<path style=" stroke:none;fill-rule:nonzero;fill:rgb(0%,0%,0%);fill-opacity:1;" d="M 89.339844 44.378906 C 89.117188 44.378906 88.945312 44.324219 88.832031 44.207031 C 88.722656 44.082031 88.667969 43.921875 88.667969 43.71875 C 88.667969 43.574219 88.695312 43.457031 88.753906 43.371094 C 88.8125 43.28125 88.886719 43.207031 88.972656 43.15625 C 89.058594 43.097656 89.160156 43.058594 89.277344 43.035156 C 89.390625 43.015625 89.507812 43.003906 89.625 43.003906 L 90.113281 42.992188 L 90.113281 42.875 C 90.113281 42.785156 90.101562 42.710938 90.078125 42.644531 C 90.0625 42.582031 90.035156 42.53125 89.992188 42.492188 C 89.953125 42.449219 89.910156 42.421875 89.851562 42.40625 C 89.792969 42.386719 89.722656 42.375 89.644531 42.375 C 89.570312 42.375 89.507812 42.382812 89.449219 42.394531 C 89.390625 42.40625 89.339844 42.421875 89.296875 42.449219 C 89.261719 42.472656 89.226562 42.511719 89.199219 42.558594 C 89.179688 42.601562 89.164062 42.65625 89.15625 42.722656 L 88.765625 42.6875 C 88.78125 42.601562 88.804688 42.523438 88.84375 42.449219 C 88.886719 42.378906 88.941406 42.316406 89.003906 42.265625 C 89.074219 42.210938 89.164062 42.167969 89.265625 42.136719 C 89.375 42.109375 89.503906 42.09375 89.65625 42.09375 C 89.929688 42.09375 90.136719 42.15625 90.273438 42.289062 C 90.417969 42.414062 90.492188 42.597656 90.492188 42.839844 L 90.492188 43.785156 C 90.492188 43.890625 90.503906 43.976562 90.523438 44.03125 C 90.550781 44.082031 90.613281 44.109375 90.699219 44.109375 C 90.710938 44.109375 90.730469 44.109375 90.753906 44.109375 C 90.773438 44.101562 90.796875 44.097656 90.816406 44.097656 L 90.816406 44.324219 C 90.765625 44.332031 90.71875 44.339844 90.675781 44.347656 C 90.632812 44.351562 90.585938 44.359375 90.535156 44.359375 C 90.460938 44.359375 90.398438 44.347656 90.351562 44.335938 C 90.300781 44.3125 90.257812 44.285156 90.230469 44.25 C 90.203125 44.207031 90.175781 44.160156 90.15625 44.109375 C 90.140625 44.050781 90.132812 43.988281 90.132812 43.914062 L 90.113281 43.914062 C 90.074219 43.988281 90.03125 44.050781 89.980469 44.109375 C 89.9375 44.167969 89.882812 44.214844 89.820312 44.261719 C 89.757812 44.296875 89.691406 44.324219 89.613281 44.347656 C 89.53125 44.367188 89.441406 44.378906 89.339844 44.378906 Z M 89.417969 44.097656 C 89.53125 44.097656 89.632812 44.082031 89.722656 44.042969 C 89.8125 44 89.890625 43.945312 89.949219 43.878906 C 90.007812 43.808594 90.046875 43.734375 90.070312 43.652344 C 90.097656 43.574219 90.113281 43.5 90.113281 43.4375 L 90.113281 43.253906 L 89.722656 43.261719 C 89.625 43.261719 89.539062 43.269531 89.460938 43.285156 C 89.378906 43.292969 89.308594 43.316406 89.242188 43.351562 C 89.183594 43.378906 89.136719 43.425781 89.101562 43.492188 C 89.066406 43.550781 89.046875 43.628906 89.046875 43.730469 C 89.046875 43.84375 89.082031 43.933594 89.144531 44 C 89.210938 44.066406 89.300781 44.097656 89.417969 44.097656 Z M 89.417969 44.097656 "/>
<path style=" stroke:none;fill-rule:nonzero;fill:rgb(0%,0%,0%);fill-opacity:1;" d="M 92.886719 43.230469 C 92.886719 43.996094 92.617188 44.378906 92.082031 44.378906 C 91.914062 44.378906 91.773438 44.347656 91.660156 44.292969 C 91.550781 44.226562 91.464844 44.128906 91.398438 43.988281 L 91.386719 43.988281 C 91.386719 44.027344 91.386719 44.066406 91.386719 44.109375 C 91.386719 44.144531 91.382812 44.179688 91.375 44.214844 C 91.375 44.246094 91.375 44.269531 91.375 44.292969 C 91.375 44.3125 91.371094 44.332031 91.367188 44.335938 L 91.019531 44.335938 C 91.019531 44.324219 91.019531 44.300781 91.019531 44.269531 C 91.019531 44.242188 91.019531 44.210938 91.019531 44.171875 C 91.023438 44.128906 91.027344 44.082031 91.027344 44.03125 C 91.027344 43.984375 91.027344 43.933594 91.027344 43.878906 L 91.027344 41.324219 L 91.398438 41.324219 L 91.398438 42.179688 C 91.398438 42.222656 91.394531 42.261719 91.386719 42.296875 C 91.386719 42.335938 91.386719 42.371094 91.386719 42.394531 C 91.386719 42.433594 91.386719 42.464844 91.386719 42.492188 L 91.398438 42.492188 C 91.464844 42.351562 91.550781 42.25 91.660156 42.191406 C 91.773438 42.125 91.914062 42.09375 92.082031 42.09375 C 92.355469 42.09375 92.558594 42.1875 92.691406 42.375 C 92.820312 42.5625 92.886719 42.847656 92.886719 43.230469 Z M 92.503906 43.242188 C 92.503906 43.089844 92.496094 42.960938 92.472656 42.851562 C 92.457031 42.742188 92.429688 42.652344 92.386719 42.582031 C 92.34375 42.511719 92.289062 42.457031 92.222656 42.429688 C 92.15625 42.394531 92.078125 42.375 91.984375 42.375 C 91.890625 42.375 91.800781 42.394531 91.722656 42.429688 C 91.652344 42.457031 91.589844 42.511719 91.539062 42.582031 C 91.496094 42.644531 91.457031 42.738281 91.429688 42.851562 C 91.410156 42.960938 91.398438 43.097656 91.398438 43.261719 C 91.398438 43.421875 91.410156 43.554688 91.429688 43.664062 C 91.457031 43.765625 91.496094 43.855469 91.539062 43.925781 C 91.589844 43.988281 91.652344 44.039062 91.722656 44.066406 C 91.800781 44.09375 91.890625 44.109375 91.984375 44.109375 C 92.070312 44.109375 92.148438 44.09375 92.210938 44.066406 C 92.277344 44.03125 92.332031 43.976562 92.375 43.914062 C 92.417969 43.84375 92.449219 43.75 92.472656 43.640625 C 92.496094 43.527344 92.503906 43.394531 92.503906 43.242188 Z M 92.503906 43.242188 "/>
<path style=" stroke:none;fill-rule:nonzero;fill:rgb(0%,0%,0%);fill-opacity:1;" d="M 94.929688 43.730469 C 94.929688 43.832031 94.910156 43.921875 94.867188 44 C 94.828125 44.082031 94.769531 44.148438 94.691406 44.207031 C 94.617188 44.265625 94.53125 44.308594 94.421875 44.335938 C 94.3125 44.363281 94.183594 44.378906 94.039062 44.378906 C 93.910156 44.378906 93.792969 44.367188 93.695312 44.347656 C 93.589844 44.324219 93.5 44.292969 93.421875 44.25 C 93.347656 44.207031 93.285156 44.152344 93.226562 44.085938 C 93.175781 44.015625 93.140625 43.925781 93.117188 43.816406 L 93.445312 43.761719 C 93.472656 43.878906 93.535156 43.964844 93.628906 44.023438 C 93.730469 44.074219 93.867188 44.097656 94.039062 44.097656 C 94.121094 44.097656 94.191406 44.09375 94.257812 44.085938 C 94.324219 44.074219 94.378906 44.054688 94.421875 44.03125 C 94.46875 44.003906 94.507812 43.96875 94.53125 43.925781 C 94.554688 43.878906 94.574219 43.828125 94.574219 43.761719 C 94.574219 43.691406 94.554688 43.636719 94.53125 43.597656 C 94.5 43.554688 94.457031 43.519531 94.398438 43.492188 C 94.339844 43.464844 94.273438 43.4375 94.191406 43.414062 C 94.113281 43.394531 94.023438 43.367188 93.933594 43.339844 C 93.84375 43.316406 93.757812 43.292969 93.671875 43.261719 C 93.585938 43.234375 93.503906 43.199219 93.433594 43.15625 C 93.367188 43.105469 93.3125 43.046875 93.269531 42.980469 C 93.226562 42.910156 93.203125 42.824219 93.203125 42.722656 C 93.203125 42.519531 93.273438 42.371094 93.410156 42.265625 C 93.554688 42.15625 93.765625 42.105469 94.039062 42.105469 C 94.285156 42.105469 94.476562 42.148438 94.617188 42.234375 C 94.761719 42.320312 94.855469 42.457031 94.898438 42.644531 L 94.5625 42.679688 C 94.554688 42.621094 94.53125 42.574219 94.496094 42.539062 C 94.46875 42.503906 94.425781 42.472656 94.378906 42.449219 C 94.335938 42.421875 94.28125 42.40625 94.226562 42.394531 C 94.164062 42.382812 94.105469 42.375 94.039062 42.375 C 93.871094 42.375 93.75 42.402344 93.671875 42.449219 C 93.597656 42.503906 93.5625 42.578125 93.5625 42.679688 C 93.5625 42.742188 93.578125 42.792969 93.605469 42.828125 C 93.632812 42.867188 93.675781 42.898438 93.726562 42.925781 C 93.773438 42.957031 93.835938 42.980469 93.910156 43.003906 C 93.980469 43.019531 94.066406 43.035156 94.160156 43.058594 C 94.21875 43.074219 94.273438 43.089844 94.335938 43.113281 C 94.390625 43.128906 94.449219 43.144531 94.507812 43.164062 C 94.566406 43.1875 94.617188 43.21875 94.671875 43.253906 C 94.71875 43.28125 94.761719 43.324219 94.800781 43.371094 C 94.84375 43.414062 94.875 43.464844 94.898438 43.523438 C 94.921875 43.582031 94.929688 43.652344 94.929688 43.730469 Z M 94.929688 43.730469 "/>
<path style=" stroke:none;fill-rule:nonzero;fill:rgb(0%,0%,0%);fill-opacity:1;" d="M 101.691406 68.316406 C 101.46875 68.316406 101.296875 68.257812 101.183594 68.140625 C 101.074219 68.019531 101.019531 67.855469 101.019531 67.652344 C 101.019531 67.511719 101.046875 67.394531 101.105469 67.308594 C 101.164062 67.214844 101.238281 67.140625 101.324219 67.089844 C 101.410156 67.035156 101.511719 66.992188 101.628906 66.972656 C 101.742188 66.949219 101.859375 66.9375 101.976562 66.9375 L 102.464844 66.925781 L 102.464844 66.808594 C 102.464844 66.722656 102.453125 66.644531 102.429688 66.582031 C 102.414062 66.515625 102.386719 66.46875 102.34375 66.429688 C 102.304688 66.386719 102.261719 66.359375 102.203125 66.34375 C 102.144531 66.320312 102.074219 66.308594 101.996094 66.308594 C 101.921875 66.308594 101.859375 66.316406 101.800781 66.332031 C 101.742188 66.339844 101.691406 66.359375 101.648438 66.386719 C 101.613281 66.40625 101.578125 66.445312 101.550781 66.496094 C 101.53125 66.539062 101.515625 66.59375 101.507812 66.65625 L 101.117188 66.625 C 101.132812 66.539062 101.15625 66.460938 101.195312 66.386719 C 101.238281 66.316406 101.292969 66.253906 101.355469 66.203125 C 101.425781 66.144531 101.515625 66.101562 101.617188 66.070312 C 101.726562 66.042969 101.855469 66.027344 102.007812 66.027344 C 102.28125 66.027344 102.488281 66.09375 102.625 66.222656 C 102.769531 66.347656 102.84375 66.53125 102.84375 66.777344 L 102.84375 67.71875 C 102.84375 67.828125 102.855469 67.910156 102.875 67.96875 C 102.902344 68.019531 102.964844 68.042969 103.050781 68.042969 C 103.0625 68.042969 103.082031 68.042969 103.105469 68.042969 C 103.125 68.039062 103.148438 68.03125 103.167969 68.03125 L 103.167969 68.261719 C 103.117188 68.269531 103.070312 68.273438 103.027344 68.28125 C 102.984375 68.289062 102.9375 68.292969 102.886719 68.292969 C 102.8125 68.292969 102.75 68.285156 102.703125 68.269531 C 102.652344 68.25 102.609375 68.222656 102.582031 68.183594 C 102.554688 68.140625 102.527344 68.09375 102.507812 68.042969 C 102.492188 67.988281 102.484375 67.921875 102.484375 67.847656 L 102.464844 67.847656 C 102.425781 67.921875 102.382812 67.988281 102.332031 68.042969 C 102.289062 68.101562 102.234375 68.152344 102.171875 68.195312 C 102.109375 68.234375 102.042969 68.261719 101.964844 68.28125 C 101.882812 68.304688 101.792969 68.316406 101.691406 68.316406 Z M 101.769531 68.03125 C 101.882812 68.03125 101.984375 68.015625 102.074219 67.980469 C 102.164062 67.933594 102.242188 67.882812 102.300781 67.816406 C 102.359375 67.746094 102.398438 67.671875 102.421875 67.589844 C 102.449219 67.511719 102.464844 67.4375 102.464844 67.371094 L 102.464844 67.1875 L 102.074219 67.199219 C 101.976562 67.199219 101.890625 67.207031 101.8125 67.21875 C 101.730469 67.226562 101.660156 67.25 101.59375 67.285156 C 101.535156 67.316406 101.488281 67.359375 101.453125 67.425781 C 101.417969 67.484375 101.398438 67.5625 101.398438 67.664062 C 101.398438 67.78125 101.433594 67.871094 101.496094 67.933594 C 101.5625 68 101.652344 68.03125 101.769531 68.03125 Z M 101.769531 68.03125 "/>
<path style=" stroke:none;fill-rule:nonzero;fill:rgb(0%,0%,0%);fill-opacity:1;" d="M 105.238281 67.167969 C 105.238281 67.933594 104.96875 68.316406 104.433594 68.316406 C 104.265625 68.316406 104.125 68.285156 104.011719 68.226562 C 103.902344 68.164062 103.816406 68.0625 103.75 67.925781 L 103.738281 67.925781 C 103.738281 67.960938 103.738281 68 103.738281 68.042969 C 103.738281 68.082031 103.734375 68.117188 103.726562 68.152344 C 103.726562 68.183594 103.726562 68.207031 103.726562 68.226562 C 103.726562 68.25 103.722656 68.265625 103.71875 68.269531 L 103.371094 68.269531 C 103.371094 68.257812 103.371094 68.234375 103.371094 68.207031 C 103.371094 68.179688 103.371094 68.148438 103.371094 68.109375 C 103.375 68.066406 103.378906 68.019531 103.378906 67.96875 C 103.378906 67.917969 103.378906 67.867188 103.378906 67.816406 L 103.378906 65.257812 L 103.75 65.257812 L 103.75 66.113281 C 103.75 66.160156 103.742188 66.199219 103.738281 66.234375 C 103.738281 66.273438 103.738281 66.304688 103.738281 66.332031 C 103.738281 66.371094 103.738281 66.402344 103.738281 66.429688 L 103.75 66.429688 C 103.816406 66.285156 103.902344 66.183594 104.011719 66.125 C 104.125 66.0625 104.265625 66.027344 104.433594 66.027344 C 104.707031 66.027344 104.910156 66.125 105.042969 66.308594 C 105.171875 66.5 105.238281 66.785156 105.238281 67.167969 Z M 104.855469 67.175781 C 104.855469 67.023438 104.847656 66.894531 104.824219 66.785156 C 104.808594 66.679688 104.78125 66.589844 104.738281 66.515625 C 104.695312 66.445312 104.640625 66.394531 104.574219 66.363281 C 104.507812 66.328125 104.429688 66.308594 104.335938 66.308594 C 104.242188 66.308594 104.152344 66.328125 104.074219 66.363281 C 104 66.394531 103.9375 66.445312 103.890625 66.515625 C 103.847656 66.582031 103.808594 66.671875 103.78125 66.785156 C 103.761719 66.894531 103.75 67.035156 103.75 67.199219 C 103.75 67.359375 103.761719 67.492188 103.78125 67.597656 C 103.808594 67.703125 103.847656 67.789062 103.890625 67.859375 C 103.9375 67.925781 104 67.972656 104.074219 68 C 104.152344 68.03125 104.242188 68.042969 104.335938 68.042969 C 104.421875 68.042969 104.5 68.03125 104.5625 68 C 104.628906 67.964844 104.683594 67.914062 104.726562 67.847656 C 104.769531 67.777344 104.800781 67.6875 104.824219 67.578125 C 104.847656 67.464844 104.855469 67.328125 104.855469 67.175781 Z M 104.855469 67.175781 "/>
<path style=" stroke:none;fill-rule:nonzero;fill:rgb(0%,0%,0%);fill-opacity:1;" d="M 107.28125 67.664062 C 107.28125 67.765625 107.261719 67.855469 107.21875 67.933594 C 107.179688 68.015625 107.121094 68.085938 107.042969 68.140625 C 106.96875 68.199219 106.878906 68.246094 106.773438 68.269531 C 106.664062 68.296875 106.535156 68.316406 106.390625 68.316406 C 106.261719 68.316406 106.144531 68.304688 106.042969 68.28125 C 105.941406 68.261719 105.851562 68.226562 105.773438 68.183594 C 105.699219 68.140625 105.636719 68.085938 105.578125 68.023438 C 105.527344 67.953125 105.492188 67.859375 105.46875 67.75 L 105.796875 67.695312 C 105.824219 67.8125 105.886719 67.898438 105.980469 67.957031 C 106.082031 68.007812 106.21875 68.03125 106.390625 68.03125 C 106.472656 68.03125 106.542969 68.03125 106.609375 68.023438 C 106.675781 68.007812 106.730469 67.988281 106.773438 67.96875 C 106.820312 67.941406 106.859375 67.902344 106.878906 67.859375 C 106.90625 67.816406 106.925781 67.761719 106.925781 67.695312 C 106.925781 67.625 106.90625 67.574219 106.878906 67.535156 C 106.851562 67.492188 106.808594 67.457031 106.75 67.425781 C 106.691406 67.398438 106.621094 67.371094 106.542969 67.351562 C 106.460938 67.328125 106.375 67.304688 106.285156 67.273438 C 106.195312 67.253906 106.109375 67.226562 106.023438 67.199219 C 105.9375 67.171875 105.855469 67.132812 105.785156 67.089844 C 105.71875 67.042969 105.664062 66.980469 105.621094 66.917969 C 105.578125 66.847656 105.554688 66.761719 105.554688 66.65625 C 105.554688 66.457031 105.625 66.304688 105.761719 66.203125 C 105.90625 66.09375 106.117188 66.039062 106.390625 66.039062 C 106.636719 66.039062 106.828125 66.082031 106.96875 66.167969 C 107.113281 66.257812 107.207031 66.394531 107.25 66.582031 L 106.914062 66.613281 C 106.90625 66.554688 106.882812 66.511719 106.847656 66.472656 C 106.820312 66.4375 106.777344 66.40625 106.730469 66.386719 C 106.683594 66.359375 106.632812 66.339844 106.578125 66.332031 C 106.515625 66.316406 106.457031 66.308594 106.390625 66.308594 C 106.222656 66.308594 106.101562 66.335938 106.023438 66.386719 C 105.949219 66.4375 105.914062 66.511719 105.914062 66.613281 C 105.914062 66.679688 105.929688 66.730469 105.957031 66.765625 C 105.984375 66.804688 106.027344 66.835938 106.078125 66.863281 C 106.125 66.890625 106.1875 66.917969 106.261719 66.9375 C 106.332031 66.953125 106.417969 66.972656 106.511719 66.992188 C 106.570312 67.007812 106.625 67.023438 106.683594 67.046875 C 106.742188 67.0625 106.800781 67.078125 106.859375 67.101562 C 106.917969 67.121094 106.96875 67.152344 107.023438 67.1875 C 107.070312 67.21875 107.113281 67.257812 107.152344 67.308594 C 107.195312 67.351562 107.226562 67.402344 107.25 67.457031 C 107.273438 67.519531 107.28125 67.585938 107.28125 67.664062 Z M 107.28125 67.664062 "/>
<path style=" stroke:none;fill-rule:nonzero;fill:rgb(0%,0%,0%);fill-opacity:1;" d="M 87.457031 74.347656 C 87.230469 74.347656 87.058594 74.289062 86.945312 74.175781 C 86.835938 74.050781 86.78125 73.890625 86.78125 73.6875 C 86.78125 73.542969 86.808594 73.425781 86.867188 73.339844 C 86.925781 73.246094 87 73.175781 87.085938 73.121094 C 87.171875 73.066406 87.273438 73.023438 87.390625 73.003906 C 87.503906 72.980469 87.621094 72.972656 87.738281 72.972656 L 88.226562 72.960938 L 88.226562 72.839844 C 88.226562 72.753906 88.214844 72.679688 88.195312 72.613281 C 88.175781 72.546875 88.148438 72.5 88.105469 72.460938 C 88.070312 72.417969 88.023438 72.390625 87.964844 72.375 C 87.90625 72.355469 87.839844 72.34375 87.757812 72.34375 C 87.6875 72.34375 87.621094 72.351562 87.5625 72.363281 C 87.503906 72.371094 87.457031 72.390625 87.410156 72.417969 C 87.375 72.441406 87.339844 72.476562 87.3125 72.527344 C 87.292969 72.570312 87.277344 72.625 87.269531 72.691406 L 86.878906 72.65625 C 86.894531 72.570312 86.917969 72.492188 86.957031 72.417969 C 87 72.347656 87.054688 72.285156 87.117188 72.234375 C 87.1875 72.175781 87.277344 72.132812 87.378906 72.105469 C 87.488281 72.078125 87.617188 72.0625 87.769531 72.0625 C 88.042969 72.0625 88.25 72.125 88.390625 72.257812 C 88.53125 72.378906 88.605469 72.566406 88.605469 72.808594 L 88.605469 73.75 C 88.605469 73.859375 88.617188 73.945312 88.636719 74 C 88.664062 74.050781 88.726562 74.078125 88.8125 74.078125 C 88.824219 74.078125 88.84375 74.078125 88.867188 74.078125 C 88.886719 74.070312 88.910156 74.066406 88.933594 74.066406 L 88.933594 74.292969 C 88.878906 74.300781 88.835938 74.308594 88.789062 74.316406 C 88.746094 74.320312 88.699219 74.324219 88.648438 74.324219 C 88.578125 74.324219 88.515625 74.316406 88.464844 74.304688 C 88.414062 74.28125 88.371094 74.253906 88.34375 74.21875 C 88.316406 74.175781 88.292969 74.128906 88.269531 74.078125 C 88.253906 74.019531 88.246094 73.953125 88.246094 73.882812 L 88.226562 73.882812 C 88.1875 73.953125 88.144531 74.019531 88.097656 74.078125 C 88.050781 74.136719 88 74.183594 87.933594 74.226562 C 87.875 74.265625 87.804688 74.292969 87.726562 74.316406 C 87.644531 74.335938 87.554688 74.347656 87.457031 74.347656 Z M 87.53125 74.066406 C 87.644531 74.066406 87.75 74.050781 87.835938 74.011719 C 87.925781 73.96875 88.003906 73.914062 88.0625 73.847656 C 88.121094 73.777344 88.160156 73.703125 88.183594 73.621094 C 88.210938 73.542969 88.226562 73.46875 88.226562 73.40625 L 88.226562 73.21875 L 87.835938 73.230469 C 87.742188 73.230469 87.652344 73.238281 87.574219 73.253906 C 87.492188 73.261719 87.421875 73.28125 87.359375 73.316406 C 87.296875 73.347656 87.25 73.394531 87.214844 73.457031 C 87.179688 73.519531 87.164062 73.597656 87.164062 73.695312 C 87.164062 73.8125 87.195312 73.902344 87.261719 73.96875 C 87.324219 74.03125 87.414062 74.066406 87.53125 74.066406 Z M 87.53125 74.066406 "/>
<path style=" stroke:none;fill-rule:nonzero;fill:rgb(0%,0%,0%);fill-opacity:1;" d="M 91 73.199219 C 91 73.964844 90.730469 74.347656 90.195312 74.347656 C 90.027344 74.347656 89.886719 74.316406 89.773438 74.261719 C 89.664062 74.195312 89.578125 74.09375 89.511719 73.957031 L 89.5 73.957031 C 89.5 73.996094 89.5 74.03125 89.5 74.078125 C 89.5 74.113281 89.496094 74.148438 89.488281 74.183594 C 89.488281 74.214844 89.488281 74.238281 89.488281 74.261719 C 89.488281 74.28125 89.484375 74.296875 89.480469 74.304688 L 89.132812 74.304688 C 89.132812 74.289062 89.132812 74.269531 89.132812 74.238281 C 89.132812 74.210938 89.132812 74.179688 89.132812 74.140625 C 89.136719 74.097656 89.144531 74.050781 89.144531 74 C 89.144531 73.953125 89.144531 73.898438 89.144531 73.847656 L 89.144531 71.292969 L 89.511719 71.292969 L 89.511719 72.148438 C 89.511719 72.191406 89.507812 72.230469 89.5 72.265625 C 89.5 72.304688 89.5 72.335938 89.5 72.363281 C 89.5 72.402344 89.5 72.433594 89.5 72.460938 L 89.511719 72.460938 C 89.578125 72.316406 89.664062 72.21875 89.773438 72.160156 C 89.886719 72.09375 90.027344 72.0625 90.195312 72.0625 C 90.46875 72.0625 90.671875 72.15625 90.804688 72.34375 C 90.933594 72.53125 91 72.816406 91 73.199219 Z M 90.621094 73.210938 C 90.621094 73.058594 90.609375 72.929688 90.585938 72.820312 C 90.570312 72.710938 90.542969 72.621094 90.5 72.546875 C 90.457031 72.476562 90.402344 72.425781 90.335938 72.398438 C 90.273438 72.363281 90.191406 72.34375 90.097656 72.34375 C 90.003906 72.34375 89.917969 72.363281 89.835938 72.398438 C 89.765625 72.425781 89.703125 72.476562 89.652344 72.546875 C 89.609375 72.613281 89.570312 72.707031 89.542969 72.820312 C 89.523438 72.929688 89.511719 73.066406 89.511719 73.230469 C 89.511719 73.390625 89.523438 73.523438 89.542969 73.632812 C 89.570312 73.734375 89.609375 73.820312 89.652344 73.890625 C 89.703125 73.957031 89.765625 74.007812 89.835938 74.03125 C 89.917969 74.0625 90.003906 74.078125 90.097656 74.078125 C 90.183594 74.078125 90.261719 74.0625 90.324219 74.03125 C 90.390625 73.996094 90.445312 73.945312 90.488281 73.882812 C 90.53125 73.8125 90.566406 73.71875 90.585938 73.609375 C 90.609375 73.496094 90.621094 73.359375 90.621094 73.210938 Z M 90.621094 73.210938 "/>
<path style=" stroke:none;fill-rule:nonzero;fill:rgb(0%,0%,0%);fill-opacity:1;" d="M 93.046875 73.695312 C 93.046875 73.800781 93.023438 73.890625 92.980469 73.96875 C 92.941406 74.050781 92.886719 74.117188 92.804688 74.175781 C 92.734375 74.234375 92.644531 74.277344 92.535156 74.304688 C 92.425781 74.332031 92.296875 74.347656 92.15625 74.347656 C 92.023438 74.347656 91.90625 74.335938 91.808594 74.316406 C 91.703125 74.292969 91.613281 74.261719 91.535156 74.21875 C 91.460938 74.175781 91.398438 74.121094 91.339844 74.054688 C 91.289062 73.984375 91.253906 73.890625 91.230469 73.785156 L 91.558594 73.730469 C 91.585938 73.847656 91.648438 73.933594 91.742188 73.988281 C 91.84375 74.042969 91.980469 74.066406 92.15625 74.066406 C 92.234375 74.066406 92.308594 74.0625 92.371094 74.054688 C 92.4375 74.042969 92.492188 74.023438 92.535156 74 C 92.582031 73.972656 92.621094 73.933594 92.644531 73.890625 C 92.671875 73.847656 92.6875 73.792969 92.6875 73.730469 C 92.6875 73.660156 92.671875 73.605469 92.644531 73.566406 C 92.613281 73.523438 92.570312 73.488281 92.511719 73.457031 C 92.453125 73.433594 92.386719 73.40625 92.308594 73.382812 C 92.226562 73.359375 92.136719 73.335938 92.046875 73.308594 C 91.960938 73.285156 91.871094 73.261719 91.785156 73.230469 C 91.699219 73.203125 91.617188 73.167969 91.546875 73.121094 C 91.480469 73.074219 91.425781 73.015625 91.382812 72.949219 C 91.339844 72.878906 91.320312 72.792969 91.320312 72.691406 C 91.320312 72.488281 91.386719 72.335938 91.523438 72.234375 C 91.667969 72.125 91.878906 72.070312 92.15625 72.070312 C 92.398438 72.070312 92.589844 72.113281 92.730469 72.203125 C 92.875 72.289062 92.96875 72.425781 93.011719 72.613281 L 92.675781 72.644531 C 92.667969 72.589844 92.644531 72.542969 92.609375 72.503906 C 92.582031 72.46875 92.539062 72.441406 92.492188 72.417969 C 92.449219 72.390625 92.394531 72.371094 92.339844 72.363281 C 92.28125 72.351562 92.21875 72.34375 92.15625 72.34375 C 91.988281 72.34375 91.863281 72.371094 91.785156 72.417969 C 91.710938 72.46875 91.675781 72.546875 91.675781 72.644531 C 91.675781 72.710938 91.691406 72.761719 91.71875 72.796875 C 91.746094 72.835938 91.789062 72.867188 91.839844 72.894531 C 91.890625 72.925781 91.953125 72.949219 92.023438 72.972656 C 92.09375 72.988281 92.179688 73.003906 92.273438 73.023438 C 92.332031 73.042969 92.386719 73.058594 92.449219 73.078125 C 92.503906 73.097656 92.5625 73.113281 92.621094 73.132812 C 92.679688 73.15625 92.734375 73.183594 92.785156 73.21875 C 92.832031 73.25 92.875 73.289062 92.914062 73.339844 C 92.957031 73.382812 92.992188 73.433594 93.011719 73.492188 C 93.035156 73.550781 93.046875 73.617188 93.046875 73.695312 Z M 93.046875 73.695312 "/>
<path style=" stroke:none;fill-rule:nonzero;fill:rgb(0%,0%,0%);fill-opacity:1;" d="M 101.851562 92.539062 C 101.851562 92.835938 101.808594 93.105469 101.71875 93.351562 C 101.632812 93.597656 101.503906 93.804688 101.339844 93.976562 C 101.179688 94.152344 100.980469 94.289062 100.742188 94.378906 C 100.507812 94.472656 100.246094 94.519531 99.949219 94.519531 C 99.628906 94.519531 99.351562 94.472656 99.113281 94.378906 C 98.882812 94.277344 98.6875 94.140625 98.527344 93.96875 C 98.367188 93.789062 98.25 93.578125 98.171875 93.339844 C 98.089844 93.09375 98.050781 92.828125 98.050781 92.539062 C 98.050781 92.242188 98.089844 91.972656 98.171875 91.734375 C 98.257812 91.492188 98.378906 91.285156 98.539062 91.117188 C 98.703125 90.953125 98.902344 90.824219 99.136719 90.726562 C 99.375 90.636719 99.648438 90.585938 99.949219 90.585938 C 100.253906 90.585938 100.527344 90.636719 100.765625 90.726562 C 101.003906 90.824219 101.203125 90.957031 101.363281 91.128906 C 101.519531 91.296875 101.636719 91.496094 101.71875 91.734375 C 101.808594 91.972656 101.851562 92.242188 101.851562 92.539062 Z M 101.316406 92.539062 C 101.316406 92.308594 101.289062 92.097656 101.230469 91.910156 C 101.171875 91.722656 101.085938 91.5625 100.972656 91.433594 C 100.855469 91.296875 100.710938 91.191406 100.535156 91.117188 C 100.367188 91.046875 100.171875 91.007812 99.949219 91.007812 C 99.726562 91.007812 99.527344 91.046875 99.351562 91.117188 C 99.179688 91.191406 99.03125 91.296875 98.917969 91.433594 C 98.8125 91.5625 98.726562 91.722656 98.667969 91.910156 C 98.609375 92.097656 98.582031 92.308594 98.582031 92.539062 C 98.582031 92.769531 98.609375 92.980469 98.667969 93.175781 C 98.726562 93.367188 98.8125 93.527344 98.929688 93.664062 C 99.042969 93.800781 99.183594 93.910156 99.351562 93.988281 C 99.527344 94.0625 99.726562 94.097656 99.949219 94.097656 C 100.1875 94.097656 100.394531 94.0625 100.570312 93.988281 C 100.742188 93.910156 100.882812 93.800781 100.992188 93.664062 C 101.101562 93.519531 101.179688 93.355469 101.230469 93.164062 C 101.289062 92.96875 101.316406 92.761719 101.316406 92.539062 Z M 101.316406 92.539062 "/>
<path style=" stroke:none;fill-rule:nonzero;fill:rgb(0%,0%,0%);fill-opacity:1;" d="M 121.167969 32.160156 C 120.953125 32.160156 120.757812 32.199219 120.59375 32.269531 C 120.425781 32.339844 120.285156 32.445312 120.167969 32.582031 C 120.0625 32.710938 119.976562 32.871094 119.921875 33.058594 C 119.859375 33.25 119.832031 33.457031 119.832031 33.6875 C 119.832031 33.921875 119.859375 34.132812 119.921875 34.328125 C 119.984375 34.515625 120.074219 34.679688 120.191406 34.8125 C 120.304688 34.953125 120.445312 35.0625 120.613281 35.140625 C 120.789062 35.210938 120.976562 35.246094 121.191406 35.246094 C 121.34375 35.246094 121.476562 35.230469 121.589844 35.195312 C 121.714844 35.148438 121.824219 35.09375 121.929688 35.019531 C 122.027344 34.949219 122.117188 34.867188 122.1875 34.769531 C 122.265625 34.679688 122.335938 34.570312 122.394531 34.445312 L 122.820312 34.664062 C 122.753906 34.808594 122.667969 34.941406 122.570312 35.0625 C 122.464844 35.1875 122.347656 35.296875 122.210938 35.386719 C 122.070312 35.476562 121.917969 35.546875 121.742188 35.59375 C 121.570312 35.644531 121.378906 35.671875 121.167969 35.671875 C 120.855469 35.671875 120.585938 35.621094 120.355469 35.53125 C 120.121094 35.429688 119.925781 35.289062 119.769531 35.117188 C 119.617188 34.9375 119.5 34.726562 119.421875 34.488281 C 119.339844 34.246094 119.300781 33.976562 119.300781 33.6875 C 119.300781 33.390625 119.339844 33.125 119.421875 32.886719 C 119.507812 32.640625 119.628906 32.4375 119.789062 32.269531 C 119.945312 32.101562 120.140625 31.972656 120.375 31.878906 C 120.605469 31.785156 120.871094 31.738281 121.167969 31.738281 C 121.574219 31.738281 121.910156 31.816406 122.179688 31.976562 C 122.453125 32.136719 122.65625 32.375 122.785156 32.691406 L 122.296875 32.851562 C 122.257812 32.761719 122.210938 32.675781 122.144531 32.59375 C 122.085938 32.507812 122.007812 32.4375 121.917969 32.375 C 121.824219 32.3125 121.714844 32.261719 121.589844 32.222656 C 121.46875 32.179688 121.324219 32.160156 121.167969 32.160156 Z M 121.167969 32.160156 "/>
<path style=" stroke:none;fill-rule:nonzero;fill:rgb(0%,0%,0%);fill-opacity:1;" d="M 76.886719 44.425781 C 76.671875 44.425781 76.476562 44.464844 76.3125 44.535156 C 76.144531 44.605469 76.003906 44.710938 75.886719 44.847656 C 75.78125 44.976562 75.695312 45.136719 75.636719 45.324219 C 75.578125 45.515625 75.550781 45.722656 75.550781 45.953125 C 75.550781 46.1875 75.578125 46.398438 75.636719 46.59375 C 75.703125 46.78125 75.792969 46.945312 75.910156 47.078125 C 76.023438 47.21875 76.164062 47.328125 76.332031 47.40625 C 76.507812 47.476562 76.695312 47.511719 76.910156 47.511719 C 77.0625 47.511719 77.195312 47.496094 77.308594 47.460938 C 77.433594 47.414062 77.542969 47.359375 77.648438 47.285156 C 77.746094 47.214844 77.835938 47.132812 77.90625 47.035156 C 77.984375 46.945312 78.054688 46.835938 78.113281 46.710938 L 78.539062 46.929688 C 78.472656 47.074219 78.386719 47.207031 78.289062 47.328125 C 78.183594 47.453125 78.066406 47.5625 77.929688 47.652344 C 77.789062 47.742188 77.636719 47.8125 77.460938 47.859375 C 77.289062 47.910156 77.097656 47.9375 76.886719 47.9375 C 76.574219 47.9375 76.304688 47.886719 76.074219 47.796875 C 75.839844 47.695312 75.644531 47.558594 75.488281 47.382812 C 75.335938 47.203125 75.21875 46.992188 75.140625 46.753906 C 75.058594 46.511719 75.019531 46.242188 75.019531 45.953125 C 75.019531 45.65625 75.058594 45.390625 75.140625 45.152344 C 75.226562 44.90625 75.347656 44.703125 75.507812 44.535156 C 75.664062 44.367188 75.859375 44.238281 76.09375 44.144531 C 76.324219 44.050781 76.589844 44.003906 76.886719 44.003906 C 77.292969 44.003906 77.628906 44.082031 77.898438 44.242188 C 78.171875 44.402344 78.375 44.640625 78.503906 44.957031 L 78.015625 45.117188 C 77.976562 45.027344 77.929688 44.941406 77.863281 44.859375 C 77.804688 44.773438 77.726562 44.703125 77.636719 44.640625 C 77.542969 44.578125 77.433594 44.527344 77.308594 44.492188 C 77.1875 44.445312 77.042969 44.425781 76.886719 44.425781 Z M 76.886719 44.425781 "/>
<path style=" stroke:none;fill-rule:nonzero;fill:rgb(0%,0%,0%);fill-opacity:1;" d="M 119.28125 62.128906 C 119.066406 62.128906 118.871094 62.164062 118.707031 62.234375 C 118.539062 62.308594 118.398438 62.414062 118.285156 62.550781 C 118.175781 62.679688 118.089844 62.839844 118.035156 63.027344 C 117.972656 63.214844 117.945312 63.425781 117.945312 63.65625 C 117.945312 63.886719 117.972656 64.101562 118.035156 64.292969 C 118.097656 64.484375 118.1875 64.648438 118.304688 64.78125 C 118.417969 64.921875 118.558594 65.027344 118.730469 65.105469 C 118.902344 65.179688 119.09375 65.214844 119.304688 65.214844 C 119.457031 65.214844 119.589844 65.199219 119.707031 65.160156 C 119.828125 65.117188 119.9375 65.0625 120.042969 64.988281 C 120.140625 64.917969 120.230469 64.832031 120.300781 64.738281 C 120.382812 64.648438 120.449219 64.539062 120.507812 64.414062 L 120.933594 64.628906 C 120.867188 64.777344 120.78125 64.910156 120.683594 65.03125 C 120.578125 65.15625 120.460938 65.265625 120.324219 65.355469 C 120.1875 65.441406 120.03125 65.515625 119.859375 65.5625 C 119.683594 65.609375 119.492188 65.636719 119.28125 65.636719 C 118.96875 65.636719 118.699219 65.589844 118.46875 65.496094 C 118.234375 65.398438 118.039062 65.257812 117.882812 65.085938 C 117.730469 64.90625 117.613281 64.695312 117.535156 64.457031 C 117.453125 64.214844 117.414062 63.945312 117.414062 63.65625 C 117.414062 63.359375 117.453125 63.09375 117.535156 62.855469 C 117.621094 62.609375 117.742188 62.402344 117.902344 62.234375 C 118.0625 62.070312 118.257812 61.941406 118.488281 61.847656 C 118.71875 61.753906 118.984375 61.703125 119.28125 61.703125 C 119.6875 61.703125 120.023438 61.785156 120.292969 61.945312 C 120.566406 62.101562 120.769531 62.339844 120.898438 62.660156 L 120.410156 62.820312 C 120.375 62.730469 120.324219 62.640625 120.257812 62.5625 C 120.199219 62.472656 120.125 62.402344 120.03125 62.34375 C 119.9375 62.28125 119.828125 62.230469 119.707031 62.191406 C 119.582031 62.148438 119.441406 62.128906 119.28125 62.128906 Z M 119.28125 62.128906 "/>
<path style=" stroke:none;fill-rule:nonzero;fill:rgb(0%,0%,0%);fill-opacity:1;" d="M 75 74.394531 C 74.78125 74.394531 74.589844 74.429688 74.421875 74.5 C 74.253906 74.574219 74.113281 74.679688 74 74.816406 C 73.890625 74.945312 73.808594 75.105469 73.75 75.292969 C 73.691406 75.480469 73.664062 75.691406 73.664062 75.921875 C 73.664062 76.152344 73.691406 76.367188 73.75 76.558594 C 73.816406 76.75 73.90625 76.914062 74.019531 77.046875 C 74.136719 77.1875 74.277344 77.292969 74.445312 77.375 C 74.617188 77.445312 74.808594 77.480469 75.019531 77.480469 C 75.171875 77.480469 75.304688 77.464844 75.421875 77.425781 C 75.542969 77.382812 75.65625 77.328125 75.757812 77.253906 C 75.859375 77.183594 75.945312 77.097656 76.019531 77.003906 C 76.097656 76.914062 76.164062 76.804688 76.226562 76.679688 L 76.648438 76.894531 C 76.582031 77.042969 76.5 77.175781 76.398438 77.296875 C 76.296875 77.421875 76.175781 77.53125 76.039062 77.621094 C 75.902344 77.707031 75.746094 77.78125 75.574219 77.828125 C 75.398438 77.875 75.207031 77.902344 75 77.902344 C 74.6875 77.902344 74.414062 77.855469 74.183594 77.761719 C 73.949219 77.664062 73.753906 77.523438 73.597656 77.351562 C 73.445312 77.171875 73.328125 76.960938 73.25 76.722656 C 73.167969 76.480469 73.132812 76.210938 73.132812 75.921875 C 73.132812 75.625 73.167969 75.359375 73.25 75.121094 C 73.335938 74.875 73.460938 74.667969 73.621094 74.5 C 73.777344 74.335938 73.972656 74.207031 74.207031 74.113281 C 74.4375 74.019531 74.699219 73.972656 75 73.972656 C 75.402344 73.972656 75.738281 74.050781 76.007812 74.210938 C 76.28125 74.367188 76.484375 74.605469 76.617188 74.925781 L 76.128906 75.085938 C 76.089844 74.996094 76.039062 74.90625 75.976562 74.828125 C 75.914062 74.738281 75.839844 74.667969 75.746094 74.609375 C 75.652344 74.546875 75.542969 74.496094 75.421875 74.457031 C 75.296875 74.414062 75.15625 74.394531 75 74.394531 Z M 75 74.394531 "/>
<path style="fill:none;stroke-width:0.0333333;stroke-linecap:butt;stroke-linejoin:miter;stroke:rgb(0%,0%,0%);stroke-opacity:1;stroke-miterlimit:10;" d="M 1.315085 0.236681 L 1.664342 0.940121 " transform="matrix(17.369478,0,0,17.336683,17.200628,17.088135)"/>
<path style="fill:none;stroke-width:0.0333333;stroke-linecap:butt;stroke-linejoin:miter;stroke:rgb(0%,0%,0%);stroke-opacity:1;stroke-miterlimit:10;" d="M 1.665241 0.923448 L 1.101213 1.772217 " transform="matrix(17.369478,0,0,17.336683,17.200628,17.088135)"/>
<path style="fill:none;stroke-width:0.0333333;stroke-linecap:butt;stroke-linejoin:miter;stroke:rgb(0%,0%,0%);stroke-opacity:1;stroke-miterlimit:10;" d="M 1.102338 1.755769 L 1.555719 2.668753 " transform="matrix(17.369478,0,0,17.336683,17.200628,17.088135)"/>
<path style="fill:none;stroke-width:0.0333333;stroke-linecap:butt;stroke-linejoin:miter;stroke:rgb(0%,0%,0%);stroke-opacity:1;stroke-miterlimit:10;" d="M 1.556844 2.65208 L 0.99259 3.501075 " transform="matrix(17.369478,0,0,17.336683,17.200628,17.088135)"/>
<path style="fill:none;stroke-width:0.0333333;stroke-linecap:butt;stroke-linejoin:miter;stroke:rgb(0%,0%,0%);stroke-opacity:1;stroke-miterlimit:10;" d="M 0.993715 3.484401 L 1.349943 4.202261 " transform="matrix(17.369478,0,0,17.336683,17.200628,17.088135)"/>
<path style=" stroke:none;fill-rule:nonzero;fill:rgb(0%,0%,0%);fill-opacity:1;" d="M 46.035156 33.234375 L 60.601562 36.175781 L 60.859375 32.140625 "/>
<path style="fill:none;stroke-width:0.0333333;stroke-linecap:butt;stroke-linejoin:miter;stroke:rgb(0%,0%,0%);stroke-opacity:1;stroke-miterlimit:10;" d="M 1.036669 1.750361 L 1.035545 1.769739 M 0.966953 1.736166 L 0.964479 1.774695 M 0.897012 1.721971 L 0.893413 1.780103 M 0.82707 1.707776 L 0.822123 1.785511 M 0.757129 1.693807 L 0.751057 1.790693 M 0.687188 1.679386 L 0.679766 1.795875 M 0.617471 1.665417 L 0.6087 1.801283 M 0.54753 1.651222 L 0.537635 1.806465 M 0.477589 1.637252 L 0.466569 1.811873 M 0.407647 1.622832 L 0.395503 1.817055 M 0.337706 1.608862 L 0.324437 1.822237 M 0.267765 1.594667 L 0.253147 1.827645 " transform="matrix(17.369478,0,0,17.336683,17.200628,17.088135)"/>
<path style=" stroke:none;fill-rule:nonzero;fill:rgb(0%,0%,0%);fill-opacity:1;" d="M 44.144531 63.207031 L 58.71875 66.144531 L 58.972656 62.109375 "/>
<path style="fill:none;stroke-width:0.0333333;stroke-linecap:butt;stroke-linejoin:miter;stroke:rgb(0%,0%,0%);stroke-opacity:1;stroke-miterlimit:10;" d="M 0.928047 3.478768 L 0.926922 3.498145 M 0.85833 3.464573 L 0.855856 3.503553 M 0.788389 3.450604 L 0.784791 3.508735 M 0.718448 3.436409 L 0.713725 3.513918 M 0.648506 3.422214 L 0.642434 3.519325 M 0.578565 3.408019 L 0.571368 3.524733 M 0.508849 3.394049 L 0.500078 3.529915 M 0.438682 3.379854 L 0.429012 3.535097 M 0.368966 3.365659 L 0.357946 3.540505 M 0.299025 3.351689 L 0.286656 3.545687 M 0.229083 3.337494 L 0.21559 3.55087 M 0.159142 3.323299 L 0.144524 3.556277 " transform="matrix(17.369478,0,0,17.336683,17.200628,17.088135)"/>
<path style="fill:none;stroke-width:0.0333333;stroke-linecap:butt;stroke-linejoin:miter;stroke:rgb(0%,0%,0%);stroke-opacity:1;stroke-miterlimit:10;" d="M 4.636509 0.200856 L 4.981493 0.895734 " transform="matrix(17.369478,0,0,17.336683,17.200628,17.088135)"/>
<path style="fill:none;stroke-width:0.0333333;stroke-linecap:butt;stroke-linejoin:miter;stroke:rgb(0%,0%,0%);stroke-opacity:1;stroke-miterlimit:10;" d="M 4.981493 0.895734 L 4.422637 1.736617 " transform="matrix(17.369478,0,0,17.336683,17.200628,17.088135)"/>
<path style="fill:none;stroke-width:0.0333333;stroke-linecap:butt;stroke-linejoin:miter;stroke:rgb(0%,0%,0%);stroke-opacity:1;stroke-miterlimit:10;" d="M 4.423762 1.719943 L 4.877143 2.632928 " transform="matrix(17.369478,0,0,17.336683,17.200628,17.088135)"/>
<path style="fill:none;stroke-width:0.0333333;stroke-linecap:butt;stroke-linejoin:miter;stroke:rgb(0%,0%,0%);stroke-opacity:1;stroke-miterlimit:10;" d="M 4.878268 2.61648 L 4.314015 3.465249 " transform="matrix(17.369478,0,0,17.336683,17.200628,17.088135)"/>
<path style="fill:none;stroke-width:0.0333333;stroke-linecap:butt;stroke-linejoin:miter;stroke:rgb(0%,0%,0%);stroke-opacity:1;stroke-miterlimit:10;" d="M 4.315139 3.448576 L 4.671368 4.166436 " transform="matrix(17.369478,0,0,17.336683,17.200628,17.088135)"/>
<path style="fill:none;stroke-width:0.0333333;stroke-linecap:butt;stroke-linejoin:miter;stroke:rgb(0%,0%,0%);stroke-opacity:1;stroke-miterlimit:10;" d="M 4.981493 0.895734 L 5.82866 0.949134 " transform="matrix(17.369478,0,0,17.336683,17.200628,17.088135)"/>
<path style="fill:none;stroke-width:0.0333333;stroke-linecap:butt;stroke-linejoin:miter;stroke:rgb(0%,0%,0%);stroke-opacity:1;stroke-miterlimit:10;" d="M 4.358094 1.714536 L 4.356969 1.733913 M 4.288377 1.700341 L 4.285903 1.739095 M 4.218211 1.686146 L 4.214613 1.744503 M 4.148495 1.672176 L 4.143547 1.749685 M 4.078553 1.657981 L 4.072481 1.754868 M 4.008612 1.643786 L 4.001191 1.760275 M 3.938896 1.629591 L 3.930125 1.765683 M 3.868954 1.615622 L 3.859059 1.77064 M 3.799013 1.601427 L 3.787993 1.776047 M 3.729072 1.587232 L 3.716928 1.781455 M 3.65913 1.573037 L 3.645862 1.786637 M 3.589189 1.559067 L 3.574571 1.79182 " transform="matrix(17.369478,0,0,17.336683,17.200628,17.088135)"/>
<path style=" stroke:none;fill-rule:nonzero;fill:rgb(0%,0%,0%);fill-opacity:1;" d="M 101.835938 62.585938 L 116.40625 65.527344 L 116.664062 61.488281 "/>
<path style="fill:none;stroke-width:0.0333333;stroke-linecap:butt;stroke-linejoin:miter;stroke:rgb(0%,0%,0%);stroke-opacity:1;stroke-miterlimit:10;" d="M 4.249471 3.443168 L 4.248346 3.462545 M 4.179754 3.428973 L 4.177281 3.467728 M 4.109813 3.414778 L 4.106215 3.473135 M 4.039872 3.400808 L 4.034924 3.478318 M 3.969931 3.386614 L 3.963859 3.4835 M 3.899989 3.372419 L 3.892793 3.488907 M 3.830273 3.358224 L 3.821502 3.49409 M 3.760107 3.344254 L 3.750436 3.499497 M 3.69039 3.330059 L 3.679371 3.50468 M 3.620449 3.315864 L 3.60808 3.509862 M 3.550508 3.301894 L 3.537014 3.51527 M 3.480566 3.287699 L 3.465949 3.520452 " transform="matrix(17.369478,0,0,17.336683,17.200628,17.088135)"/>
</g>
</svg>
