<?xml version="1.0" encoding="UTF-8"?>
<svg xmlns="http://www.w3.org/2000/svg" xmlns:xlink="http://www.w3.org/1999/xlink" width="96pt" height="109.6pt" viewBox="0 0 96 109.6" version="1.1">
<g id="surface352">
<path style=" stroke:none;fill-rule:nonzero;fill:rgb(0%,0%,47.058824%);fill-opacity:1;" d="M 48.765625 35.226562 C 48.765625 35.402344 48.734375 35.5625 48.667969 35.703125 C 48.605469 35.851562 48.5 35.972656 48.367188 36.070312 C 48.234375 36.175781 48.066406 36.253906 47.855469 36.308594 C 47.652344 36.359375 47.410156 36.386719 47.128906 36.386719 C 46.875 36.386719 46.652344 36.363281 46.457031 36.320312 C 46.261719 36.273438 46.09375 36.203125 45.960938 36.113281 C 45.820312 36.027344 45.710938 35.921875 45.625 35.789062 C 45.535156 35.660156 45.472656 35.507812 45.4375 35.335938 L 46.207031 35.207031 C 46.230469 35.292969 46.261719 35.375 46.304688 35.445312 C 46.347656 35.519531 46.40625 35.578125 46.480469 35.628906 C 46.550781 35.679688 46.640625 35.71875 46.75 35.746094 C 46.859375 35.777344 46.992188 35.789062 47.152344 35.789062 C 47.417969 35.789062 47.621094 35.753906 47.769531 35.671875 C 47.914062 35.585938 47.984375 35.457031 47.984375 35.28125 C 47.984375 35.175781 47.957031 35.085938 47.898438 35.023438 C 47.839844 34.957031 47.761719 34.902344 47.660156 34.859375 C 47.566406 34.816406 47.457031 34.78125 47.335938 34.753906 C 47.210938 34.726562 47.082031 34.695312 46.945312 34.667969 C 46.835938 34.640625 46.730469 34.613281 46.621094 34.589844 C 46.511719 34.5625 46.40625 34.53125 46.304688 34.492188 C 46.210938 34.449219 46.121094 34.402344 46.035156 34.351562 C 45.949219 34.304688 45.871094 34.242188 45.808594 34.167969 C 45.746094 34.089844 45.703125 34 45.667969 33.898438 C 45.628906 33.789062 45.613281 33.667969 45.613281 33.53125 C 45.613281 33.34375 45.648438 33.183594 45.722656 33.042969 C 45.800781 32.910156 45.90625 32.796875 46.046875 32.710938 C 46.179688 32.621094 46.339844 32.5625 46.523438 32.527344 C 46.710938 32.480469 46.914062 32.460938 47.140625 32.460938 C 47.382812 32.460938 47.597656 32.480469 47.769531 32.527344 C 47.949219 32.5625 48.101562 32.621094 48.222656 32.699219 C 48.347656 32.78125 48.441406 32.878906 48.507812 33 C 48.578125 33.117188 48.628906 33.257812 48.65625 33.421875 L 47.886719 33.519531 C 47.84375 33.363281 47.761719 33.246094 47.640625 33.164062 C 47.523438 33.078125 47.347656 33.035156 47.117188 33.035156 C 46.980469 33.035156 46.863281 33.042969 46.773438 33.066406 C 46.675781 33.085938 46.601562 33.121094 46.542969 33.164062 C 46.492188 33.207031 46.453125 33.257812 46.425781 33.316406 C 46.402344 33.367188 46.394531 33.421875 46.394531 33.488281 C 46.394531 33.582031 46.414062 33.65625 46.457031 33.714844 C 46.507812 33.773438 46.570312 33.824219 46.652344 33.867188 C 46.730469 33.910156 46.828125 33.949219 46.933594 33.972656 C 47.046875 33.996094 47.175781 34.023438 47.3125 34.050781 C 47.4375 34.078125 47.554688 34.109375 47.671875 34.136719 C 47.785156 34.167969 47.898438 34.199219 48.007812 34.234375 C 48.117188 34.273438 48.214844 34.316406 48.300781 34.375 C 48.390625 34.425781 48.472656 34.492188 48.539062 34.570312 C 48.609375 34.648438 48.664062 34.742188 48.703125 34.851562 C 48.746094 34.957031 48.765625 35.085938 48.765625 35.226562 Z M 48.765625 35.226562 "/>
<path style=" stroke:none;fill-rule:nonzero;fill:rgb(0%,0%,47.058824%);fill-opacity:1;" d="M 49.519531 32.882812 L 49.519531 32.320312 L 50.277344 32.320312 L 50.277344 32.882812 Z M 49.519531 36.332031 L 49.519531 33.402344 L 50.277344 33.402344 L 50.277344 36.332031 Z M 49.519531 36.332031 "/>
<path style=" stroke:none;fill-rule:nonzero;fill:rgb(0%,0%,47.058824%);fill-opacity:1;" d="M 62.992188 27.039062 C 63.144531 27.039062 63.273438 27.015625 63.382812 26.972656 C 63.488281 26.929688 63.582031 26.875 63.664062 26.8125 C 63.742188 26.742188 63.808594 26.660156 63.859375 26.574219 C 63.914062 26.488281 63.960938 26.402344 64 26.316406 L 64.691406 26.574219 C 64.632812 26.710938 64.558594 26.851562 64.464844 26.984375 C 64.378906 27.113281 64.265625 27.230469 64.128906 27.332031 C 64 27.433594 63.839844 27.515625 63.652344 27.578125 C 63.460938 27.636719 63.242188 27.664062 62.992188 27.664062 C 62.65625 27.664062 62.367188 27.617188 62.125 27.527344 C 61.886719 27.425781 61.683594 27.289062 61.527344 27.113281 C 61.367188 26.9375 61.25 26.726562 61.171875 26.488281 C 61.097656 26.246094 61.0625 25.976562 61.0625 25.6875 C 61.0625 25.394531 61.097656 25.125 61.171875 24.886719 C 61.25 24.644531 61.367188 24.4375 61.515625 24.269531 C 61.675781 24.105469 61.875 23.976562 62.113281 23.882812 C 62.351562 23.789062 62.632812 23.742188 62.957031 23.742188 C 63.203125 23.742188 63.417969 23.769531 63.609375 23.828125 C 63.796875 23.878906 63.957031 23.953125 64.097656 24.042969 C 64.230469 24.140625 64.347656 24.25 64.433594 24.378906 C 64.519531 24.507812 64.585938 24.648438 64.640625 24.800781 L 63.933594 24.996094 C 63.914062 24.917969 63.871094 24.839844 63.816406 24.769531 C 63.761719 24.691406 63.699219 24.621094 63.621094 24.5625 C 63.539062 24.507812 63.445312 24.460938 63.339844 24.421875 C 63.230469 24.386719 63.105469 24.367188 62.96875 24.367188 C 62.773438 24.367188 62.605469 24.402344 62.472656 24.464844 C 62.332031 24.53125 62.214844 24.621094 62.125 24.734375 C 62.039062 24.851562 61.972656 24.988281 61.929688 25.148438 C 61.886719 25.304688 61.863281 25.488281 61.863281 25.6875 C 61.863281 25.890625 61.886719 26.074219 61.929688 26.238281 C 61.972656 26.398438 62.039062 26.539062 62.125 26.660156 C 62.214844 26.777344 62.332031 26.871094 62.472656 26.941406 C 62.613281 27.007812 62.789062 27.039062 62.992188 27.039062 Z M 62.992188 27.039062 "/>
<path style=" stroke:none;fill-rule:nonzero;fill:rgb(0%,0%,47.058824%);fill-opacity:1;" d="M 32.957031 27.039062 C 33.109375 27.039062 33.238281 27.015625 33.347656 26.972656 C 33.453125 26.929688 33.546875 26.875 33.628906 26.8125 C 33.707031 26.742188 33.773438 26.660156 33.824219 26.574219 C 33.878906 26.488281 33.925781 26.402344 33.964844 26.316406 L 34.65625 26.574219 C 34.597656 26.710938 34.523438 26.851562 34.429688 26.984375 C 34.34375 27.113281 34.230469 27.230469 34.09375 27.332031 C 33.964844 27.433594 33.804688 27.515625 33.617188 27.578125 C 33.425781 27.636719 33.207031 27.664062 32.957031 27.664062 C 32.621094 27.664062 32.332031 27.617188 32.089844 27.527344 C 31.851562 27.425781 31.648438 27.289062 31.492188 27.113281 C 31.332031 26.9375 31.214844 26.726562 31.136719 26.488281 C 31.0625 26.246094 31.027344 25.976562 31.027344 25.6875 C 31.027344 25.394531 31.0625 25.125 31.136719 24.886719 C 31.214844 24.644531 31.332031 24.4375 31.480469 24.269531 C 31.640625 24.105469 31.839844 23.976562 32.078125 23.882812 C 32.316406 23.789062 32.597656 23.742188 32.921875 23.742188 C 33.167969 23.742188 33.382812 23.769531 33.574219 23.828125 C 33.761719 23.878906 33.921875 23.953125 34.0625 24.042969 C 34.195312 24.140625 34.3125 24.25 34.398438 24.378906 C 34.484375 24.507812 34.550781 24.648438 34.601562 24.800781 L 33.898438 24.996094 C 33.878906 24.917969 33.835938 24.839844 33.78125 24.769531 C 33.726562 24.691406 33.664062 24.621094 33.585938 24.5625 C 33.503906 24.507812 33.410156 24.460938 33.304688 24.421875 C 33.195312 24.386719 33.070312 24.367188 32.933594 24.367188 C 32.738281 24.367188 32.570312 24.402344 32.4375 24.464844 C 32.296875 24.53125 32.179688 24.621094 32.089844 24.734375 C 32.003906 24.851562 31.9375 24.988281 31.894531 25.148438 C 31.851562 25.304688 31.828125 25.488281 31.828125 25.6875 C 31.828125 25.890625 31.851562 26.074219 31.894531 26.238281 C 31.9375 26.398438 32.003906 26.539062 32.089844 26.660156 C 32.179688 26.777344 32.296875 26.871094 32.4375 26.941406 C 32.578125 27.007812 32.753906 27.039062 32.957031 27.039062 Z M 32.957031 27.039062 "/>
<path style=" stroke:none;fill-rule:nonzero;fill:rgb(0%,0%,0%);fill-opacity:1;" d="M 66.832031 90.726562 C 66.613281 90.726562 66.421875 90.761719 66.257812 90.832031 C 66.089844 90.90625 65.949219 91.011719 65.832031 91.148438 C 65.726562 91.277344 65.640625 91.4375 65.585938 91.621094 C 65.523438 91.8125 65.496094 92.019531 65.496094 92.25 C 65.496094 92.480469 65.523438 92.691406 65.585938 92.886719 C 65.648438 93.078125 65.738281 93.238281 65.855469 93.375 C 65.96875 93.511719 66.109375 93.621094 66.277344 93.699219 C 66.453125 93.769531 66.640625 93.804688 66.851562 93.804688 C 67.003906 93.804688 67.136719 93.789062 67.253906 93.753906 C 67.375 93.710938 67.488281 93.652344 67.589844 93.578125 C 67.691406 93.507812 67.777344 93.425781 67.847656 93.332031 C 67.929688 93.238281 67.996094 93.128906 68.054688 93.007812 L 68.476562 93.222656 C 68.414062 93.367188 68.328125 93.5 68.230469 93.621094 C 68.125 93.746094 68.007812 93.855469 67.871094 93.945312 C 67.734375 94.035156 67.578125 94.105469 67.40625 94.152344 C 67.230469 94.199219 67.039062 94.226562 66.832031 94.226562 C 66.519531 94.226562 66.25 94.179688 66.019531 94.085938 C 65.785156 93.988281 65.589844 93.851562 65.433594 93.675781 C 65.28125 93.5 65.164062 93.289062 65.085938 93.050781 C 65.003906 92.804688 64.964844 92.539062 64.964844 92.25 C 64.964844 91.953125 65.003906 91.6875 65.085938 91.449219 C 65.171875 91.207031 65.292969 91 65.453125 90.832031 C 65.613281 90.667969 65.804688 90.539062 66.039062 90.445312 C 66.269531 90.351562 66.53125 90.304688 66.832031 90.304688 C 67.234375 90.304688 67.570312 90.382812 67.839844 90.542969 C 68.113281 90.699219 68.316406 90.9375 68.445312 91.253906 L 67.957031 91.417969 C 67.921875 91.324219 67.871094 91.238281 67.804688 91.15625 C 67.746094 91.070312 67.671875 91 67.578125 90.941406 C 67.484375 90.875 67.375 90.828125 67.253906 90.789062 C 67.128906 90.746094 66.988281 90.726562 66.832031 90.726562 Z M 66.832031 90.726562 "/>
<path style=" stroke:none;fill-rule:nonzero;fill:rgb(0%,0%,0%);fill-opacity:1;" d="M 78.488281 54.933594 C 78.273438 54.933594 78.082031 54.972656 77.914062 55.042969 C 77.746094 55.117188 77.605469 55.222656 77.492188 55.355469 C 77.382812 55.484375 77.300781 55.644531 77.242188 55.832031 C 77.183594 56.019531 77.15625 56.230469 77.15625 56.460938 C 77.15625 56.691406 77.183594 56.902344 77.242188 57.097656 C 77.308594 57.285156 77.398438 57.449219 77.515625 57.582031 C 77.628906 57.722656 77.769531 57.828125 77.9375 57.90625 C 78.109375 57.980469 78.300781 58.015625 78.511719 58.015625 C 78.664062 58.015625 78.796875 58 78.914062 57.960938 C 79.035156 57.917969 79.144531 57.863281 79.25 57.789062 C 79.347656 57.71875 79.433594 57.632812 79.507812 57.539062 C 79.585938 57.449219 79.65625 57.339844 79.714844 57.214844 L 80.136719 57.433594 C 80.070312 57.578125 79.988281 57.710938 79.886719 57.832031 C 79.785156 57.957031 79.664062 58.0625 79.53125 58.15625 C 79.390625 58.242188 79.238281 58.3125 79.0625 58.363281 C 78.890625 58.410156 78.699219 58.4375 78.488281 58.4375 C 78.179688 58.4375 77.90625 58.390625 77.675781 58.296875 C 77.445312 58.195312 77.25 58.058594 77.089844 57.886719 C 76.941406 57.707031 76.824219 57.496094 76.746094 57.257812 C 76.664062 57.015625 76.625 56.75 76.625 56.460938 C 76.625 56.164062 76.664062 55.898438 76.746094 55.660156 C 76.832031 55.414062 76.953125 55.210938 77.113281 55.042969 C 77.269531 54.878906 77.464844 54.75 77.699219 54.652344 C 77.929688 54.5625 78.191406 54.511719 78.488281 54.511719 C 78.894531 54.511719 79.230469 54.59375 79.496094 54.75 C 79.773438 54.910156 79.976562 55.148438 80.105469 55.464844 L 79.617188 55.625 C 79.578125 55.535156 79.53125 55.449219 79.464844 55.367188 C 79.40625 55.28125 79.328125 55.210938 79.238281 55.152344 C 79.144531 55.085938 79.035156 55.039062 78.914062 55 C 78.789062 54.957031 78.648438 54.933594 78.488281 54.933594 Z M 78.488281 54.933594 "/>
<path style=" stroke:none;fill-rule:nonzero;fill:rgb(0%,0%,0%);fill-opacity:1;" d="M 17.445312 54.933594 C 17.230469 54.933594 17.039062 54.972656 16.871094 55.042969 C 16.703125 55.117188 16.5625 55.222656 16.449219 55.355469 C 16.339844 55.484375 16.257812 55.644531 16.199219 55.832031 C 16.140625 56.019531 16.113281 56.230469 16.113281 56.460938 C 16.113281 56.691406 16.140625 56.902344 16.199219 57.097656 C 16.265625 57.285156 16.355469 57.449219 16.472656 57.582031 C 16.585938 57.722656 16.726562 57.828125 16.894531 57.90625 C 17.066406 57.980469 17.257812 58.015625 17.46875 58.015625 C 17.621094 58.015625 17.753906 58 17.871094 57.960938 C 17.992188 57.917969 18.101562 57.863281 18.207031 57.789062 C 18.304688 57.71875 18.390625 57.632812 18.464844 57.539062 C 18.542969 57.449219 18.613281 57.339844 18.671875 57.214844 L 19.09375 57.433594 C 19.027344 57.578125 18.945312 57.710938 18.84375 57.832031 C 18.742188 57.957031 18.621094 58.0625 18.488281 58.15625 C 18.347656 58.242188 18.195312 58.3125 18.019531 58.363281 C 17.847656 58.410156 17.65625 58.4375 17.445312 58.4375 C 17.136719 58.4375 16.863281 58.390625 16.632812 58.296875 C 16.402344 58.195312 16.207031 58.058594 16.046875 57.886719 C 15.898438 57.707031 15.78125 57.496094 15.703125 57.257812 C 15.621094 57.015625 15.582031 56.75 15.582031 56.460938 C 15.582031 56.164062 15.621094 55.898438 15.703125 55.660156 C 15.789062 55.414062 15.910156 55.210938 16.070312 55.042969 C 16.226562 54.878906 16.421875 54.75 16.65625 54.652344 C 16.886719 54.5625 17.148438 54.511719 17.445312 54.511719 C 17.851562 54.511719 18.1875 54.59375 18.453125 54.75 C 18.726562 54.910156 18.929688 55.148438 19.0625 55.464844 L 18.574219 55.625 C 18.535156 55.535156 18.488281 55.449219 18.421875 55.367188 C 18.363281 55.28125 18.285156 55.210938 18.195312 55.152344 C 18.101562 55.085938 17.992188 55.039062 17.871094 55 C 17.746094 54.957031 17.605469 54.933594 17.445312 54.933594 Z M 17.445312 54.933594 "/>
<path style=" stroke:none;fill-rule:nonzero;fill:rgb(0%,0%,0%);fill-opacity:1;" d="M 29.105469 90.726562 C 28.890625 90.726562 28.695312 90.761719 28.53125 90.832031 C 28.363281 90.90625 28.222656 91.011719 28.109375 91.148438 C 28 91.277344 27.917969 91.4375 27.859375 91.621094 C 27.800781 91.8125 27.773438 92.019531 27.773438 92.25 C 27.773438 92.480469 27.800781 92.691406 27.859375 92.886719 C 27.925781 93.078125 28.015625 93.238281 28.128906 93.375 C 28.246094 93.511719 28.386719 93.621094 28.554688 93.699219 C 28.726562 93.769531 28.917969 93.804688 29.128906 93.804688 C 29.277344 93.804688 29.410156 93.789062 29.527344 93.753906 C 29.652344 93.710938 29.761719 93.652344 29.863281 93.578125 C 29.964844 93.507812 30.050781 93.425781 30.125 93.332031 C 30.203125 93.238281 30.269531 93.128906 30.332031 93.007812 L 30.753906 93.222656 C 30.6875 93.367188 30.605469 93.5 30.503906 93.621094 C 30.402344 93.746094 30.28125 93.855469 30.144531 93.945312 C 30.007812 94.035156 29.855469 94.105469 29.679688 94.152344 C 29.507812 94.199219 29.316406 94.226562 29.105469 94.226562 C 28.792969 94.226562 28.523438 94.179688 28.292969 94.085938 C 28.058594 93.988281 27.863281 93.851562 27.707031 93.675781 C 27.554688 93.5 27.441406 93.289062 27.359375 93.050781 C 27.28125 92.804688 27.242188 92.539062 27.242188 92.25 C 27.242188 91.953125 27.28125 91.6875 27.359375 91.449219 C 27.449219 91.207031 27.570312 91 27.730469 90.832031 C 27.886719 90.667969 28.082031 90.539062 28.316406 90.445312 C 28.546875 90.351562 28.808594 90.304688 29.105469 90.304688 C 29.507812 90.304688 29.84375 90.382812 30.113281 90.542969 C 30.386719 90.699219 30.589844 90.9375 30.722656 91.253906 L 30.234375 91.417969 C 30.195312 91.324219 30.144531 91.238281 30.082031 91.15625 C 30.023438 91.070312 29.945312 91 29.855469 90.941406 C 29.757812 90.875 29.652344 90.828125 29.527344 90.789062 C 29.402344 90.746094 29.261719 90.726562 29.105469 90.726562 Z M 29.105469 90.726562 "/>
<path style=" stroke:none;fill-rule:nonzero;fill:rgb(0%,0%,0%);fill-opacity:1;" d="M 47.96875 15.515625 C 47.75 15.515625 47.558594 15.550781 47.390625 15.621094 C 47.222656 15.695312 47.082031 15.800781 46.96875 15.9375 C 46.863281 16.066406 46.777344 16.226562 46.71875 16.410156 C 46.660156 16.601562 46.632812 16.808594 46.632812 17.039062 C 46.632812 17.269531 46.660156 17.480469 46.71875 17.675781 C 46.785156 17.867188 46.875 18.027344 46.992188 18.164062 C 47.105469 18.300781 47.246094 18.410156 47.414062 18.488281 C 47.585938 18.558594 47.777344 18.59375 47.988281 18.59375 C 48.140625 18.59375 48.273438 18.578125 48.390625 18.542969 C 48.511719 18.496094 48.621094 18.441406 48.726562 18.367188 C 48.824219 18.296875 48.914062 18.214844 48.984375 18.121094 C 49.0625 18.027344 49.132812 17.917969 49.191406 17.796875 L 49.613281 18.011719 C 49.550781 18.15625 49.464844 18.289062 49.363281 18.410156 C 49.261719 18.535156 49.144531 18.644531 49.007812 18.734375 C 48.871094 18.824219 48.714844 18.894531 48.542969 18.941406 C 48.367188 18.988281 48.175781 19.015625 47.96875 19.015625 C 47.65625 19.015625 47.382812 18.96875 47.152344 18.875 C 46.921875 18.777344 46.726562 18.636719 46.570312 18.464844 C 46.417969 18.289062 46.300781 18.078125 46.222656 17.839844 C 46.140625 17.59375 46.101562 17.328125 46.101562 17.039062 C 46.101562 16.742188 46.140625 16.476562 46.222656 16.238281 C 46.308594 15.996094 46.429688 15.789062 46.589844 15.621094 C 46.746094 15.457031 46.941406 15.328125 47.175781 15.234375 C 47.40625 15.140625 47.667969 15.09375 47.96875 15.09375 C 48.371094 15.09375 48.707031 15.171875 48.976562 15.332031 C 49.25 15.488281 49.453125 15.726562 49.582031 16.042969 L 49.09375 16.207031 C 49.054688 16.113281 49.007812 16.027344 48.941406 15.945312 C 48.882812 15.859375 48.808594 15.789062 48.714844 15.730469 C 48.621094 15.664062 48.511719 15.617188 48.390625 15.578125 C 48.265625 15.535156 48.125 15.515625 47.96875 15.515625 Z M 47.96875 15.515625 "/>
<path style="fill:none;stroke-width:0.06;stroke-linecap:butt;stroke-linejoin:miter;stroke:rgb(0%,0%,47.058824%);stroke-opacity:1;stroke-miterlimit:10;" d="M 1.759968 1.999993 L 0.944075 2.592774 " transform="matrix(17.34104,0,0,17.29798,17.339696,17.056501)"/>
<path style="fill:none;stroke-width:0.06;stroke-linecap:butt;stroke-linejoin:miter;stroke:rgb(0%,0%,47.058824%);stroke-opacity:1;stroke-miterlimit:10;" d="M 1.759968 1.999993 L 2.575861 2.592774 " transform="matrix(17.34104,0,0,17.29798,17.339696,17.056501)"/>
<path style="fill:none;stroke-width:0.06;stroke-linecap:butt;stroke-linejoin:miter;stroke:rgb(0%,0%,47.058824%);stroke-opacity:1;stroke-miterlimit:10;" d="M 0.951058 2.587806 L 1.260115 3.538739 " transform="matrix(17.34104,0,0,17.29798,17.339696,17.056501)"/>
<path style="fill:none;stroke-width:0.06;stroke-linecap:butt;stroke-linejoin:miter;stroke:rgb(0%,0%,47.058824%);stroke-opacity:1;stroke-miterlimit:10;" d="M 1.147035 2.651713 L 1.38108 3.372083 " transform="matrix(17.34104,0,0,17.29798,17.339696,17.056501)"/>
<path style="fill:none;stroke-width:0.06;stroke-linecap:butt;stroke-linejoin:miter;stroke:rgb(0%,0%,47.058824%);stroke-opacity:1;stroke-miterlimit:10;" d="M 1.251555 3.538739 L 2.268606 3.538739 " transform="matrix(17.34104,0,0,17.29798,17.339696,17.056501)"/>
<path style="fill:none;stroke-width:0.06;stroke-linecap:butt;stroke-linejoin:miter;stroke:rgb(0%,0%,47.058824%);stroke-opacity:1;stroke-miterlimit:10;" d="M 2.260046 3.538739 L 2.568878 2.587806 " transform="matrix(17.34104,0,0,17.29798,17.339696,17.056501)"/>
<path style="fill:none;stroke-width:0.06;stroke-linecap:butt;stroke-linejoin:miter;stroke:rgb(0%,0%,47.058824%);stroke-opacity:1;stroke-miterlimit:10;" d="M 2.139081 3.372083 L 2.373127 2.651713 " transform="matrix(17.34104,0,0,17.29798,17.339696,17.056501)"/>
<path style="fill:none;stroke-width:0.06;stroke-linecap:butt;stroke-linejoin:miter;stroke:rgb(0%,0%,47.058824%);stroke-opacity:1;stroke-miterlimit:10;" d="M 1.759968 1.999993 L 1.759968 1.160842 " transform="matrix(17.34104,0,0,17.29798,17.339696,17.056501)"/>
<path style="fill:none;stroke-width:0.06;stroke-linecap:butt;stroke-linejoin:miter;stroke:rgb(0%,0%,47.058824%);stroke-opacity:1;stroke-miterlimit:10;" d="M 1.966757 0.880598 L 2.447012 0.603289 " transform="matrix(17.34104,0,0,17.29798,17.339696,17.056501)"/>
<path style="fill:none;stroke-width:0.06;stroke-linecap:butt;stroke-linejoin:miter;stroke:rgb(0%,0%,47.058824%);stroke-opacity:1;stroke-miterlimit:10;" d="M 1.553179 0.880598 L 1.072924 0.603289 " transform="matrix(17.34104,0,0,17.29798,17.339696,17.056501)"/>
<path style="fill:none;stroke-width:0.0333333;stroke-linecap:butt;stroke-linejoin:miter;stroke:rgb(0%,0%,0%);stroke-opacity:1;stroke-miterlimit:10;" d="M 2.255091 3.531964 L 2.723407 4.176684 " transform="matrix(17.34104,0,0,17.29798,17.339696,17.056501)"/>
<path style="fill:none;stroke-width:0.0333333;stroke-linecap:butt;stroke-linejoin:miter;stroke:rgb(0%,0%,0%);stroke-opacity:1;stroke-miterlimit:10;" d="M 2.560769 2.590516 L 3.344675 2.335789 " transform="matrix(17.34104,0,0,17.29798,17.339696,17.056501)"/>
<path style="fill:none;stroke-width:0.0333333;stroke-linecap:butt;stroke-linejoin:miter;stroke:rgb(0%,0%,0%);stroke-opacity:1;stroke-miterlimit:10;" d="M 0.959167 2.590516 L 0.175486 2.335789 " transform="matrix(17.34104,0,0,17.29798,17.339696,17.056501)"/>
<path style="fill:none;stroke-width:0.0333333;stroke-linecap:butt;stroke-linejoin:miter;stroke:rgb(0%,0%,0%);stroke-opacity:1;stroke-miterlimit:10;" d="M 1.265071 3.531964 L 0.796755 4.176684 " transform="matrix(17.34104,0,0,17.29798,17.339696,17.056501)"/>
<path style="fill:none;stroke-width:0.0333333;stroke-linecap:butt;stroke-linejoin:miter;stroke:rgb(0%,0%,0%);stroke-opacity:1;stroke-miterlimit:10;" d="M 1.759968 0.839047 L 1.759968 0.156841 " transform="matrix(17.34104,0,0,17.29798,17.339696,17.056501)"/>
</g>
</svg>
