<?xml version="1.0" encoding="UTF-8"?>
<svg xmlns="http://www.w3.org/2000/svg" xmlns:xlink="http://www.w3.org/1999/xlink" width="64pt" height="60pt" viewBox="0 0 64 60" version="1.1">
<g id="surface532">
<path style=" stroke:none;fill-rule:nonzero;fill:rgb(0%,0%,0%);fill-opacity:1;" d="M 47.925781 18.921875 L 45.890625 15.695312 C 45.894531 15.78125 45.898438 15.867188 45.898438 15.953125 C 45.90625 16.027344 45.910156 16.105469 45.910156 16.191406 C 45.914062 16.273438 45.921875 16.339844 45.921875 16.40625 L 45.921875 18.921875 L 45.457031 18.921875 L 45.457031 15.136719 L 46.0625 15.136719 L 48.109375 18.382812 C 48.109375 18.382812 48.101562 18.296875 48.097656 18.117188 C 48.089844 18.046875 48.082031 17.964844 48.078125 17.878906 C 48.078125 17.789062 48.078125 17.703125 48.078125 17.621094 L 48.078125 15.136719 L 48.539062 15.136719 L 48.539062 18.921875 Z M 47.925781 18.921875 "/>
<path style=" stroke:none;fill-rule:nonzero;fill:rgb(0%,0%,0%);fill-opacity:1;" d="M 19.023438 17.015625 C 19.023438 17.308594 18.980469 17.578125 18.894531 17.820312 C 18.804688 18.066406 18.679688 18.273438 18.515625 18.445312 C 18.355469 18.617188 18.160156 18.75 17.921875 18.839844 C 17.691406 18.933594 17.429688 18.980469 17.136719 18.980469 C 16.820312 18.980469 16.542969 18.933594 16.304688 18.839844 C 16.074219 18.742188 15.882812 18.605469 15.726562 18.433594 C 15.566406 18.253906 15.445312 18.046875 15.367188 17.808594 C 15.289062 17.566406 15.25 17.300781 15.25 17.015625 C 15.25 16.722656 15.289062 16.453125 15.367188 16.21875 C 15.457031 15.976562 15.578125 15.773438 15.734375 15.605469 C 15.898438 15.441406 16.097656 15.3125 16.328125 15.21875 C 16.566406 15.125 16.835938 15.078125 17.136719 15.078125 C 17.4375 15.078125 17.707031 15.125 17.945312 15.21875 C 18.179688 15.3125 18.378906 15.445312 18.539062 15.617188 C 18.695312 15.78125 18.8125 15.980469 18.894531 16.21875 C 18.980469 16.453125 19.023438 16.722656 19.023438 17.015625 Z M 18.492188 17.015625 C 18.492188 16.785156 18.464844 16.578125 18.40625 16.390625 C 18.347656 16.203125 18.261719 16.046875 18.148438 15.917969 C 18.035156 15.78125 17.890625 15.679688 17.71875 15.605469 C 17.550781 15.535156 17.355469 15.496094 17.136719 15.496094 C 16.914062 15.496094 16.714844 15.535156 16.542969 15.605469 C 16.371094 15.679688 16.226562 15.78125 16.113281 15.917969 C 16.003906 16.046875 15.921875 16.203125 15.863281 16.390625 C 15.804688 16.578125 15.777344 16.785156 15.777344 17.015625 C 15.777344 17.246094 15.804688 17.453125 15.863281 17.648438 C 15.921875 17.835938 16.007812 17.996094 16.125 18.132812 C 16.238281 18.269531 16.375 18.375 16.542969 18.453125 C 16.714844 18.527344 16.914062 18.5625 17.136719 18.5625 C 17.375 18.5625 17.578125 18.527344 17.75 18.453125 C 17.921875 18.375 18.0625 18.269531 18.171875 18.132812 C 18.277344 17.988281 18.355469 17.824219 18.40625 17.636719 C 18.464844 17.445312 18.492188 17.238281 18.492188 17.015625 Z M 18.492188 17.015625 "/>
<path style=" stroke:none;fill-rule:nonzero;fill:rgb(0%,0%,0%);fill-opacity:1;" d="M 32.175781 41.300781 C 31.960938 41.300781 31.769531 41.339844 31.605469 41.40625 C 31.4375 41.480469 31.296875 41.585938 31.183594 41.71875 C 31.078125 41.847656 30.992188 42.007812 30.9375 42.191406 C 30.878906 42.382812 30.851562 42.589844 30.851562 42.816406 C 30.851562 43.046875 30.878906 43.257812 30.9375 43.449219 C 31.003906 43.640625 31.089844 43.800781 31.207031 43.933594 C 31.320312 44.070312 31.460938 44.179688 31.628906 44.257812 C 31.800781 44.328125 31.988281 44.363281 32.199219 44.363281 C 32.347656 44.363281 32.480469 44.347656 32.597656 44.3125 C 32.71875 44.269531 32.828125 44.210938 32.929688 44.140625 C 33.03125 44.070312 33.117188 43.984375 33.191406 43.890625 C 33.269531 43.800781 33.335938 43.691406 33.394531 43.570312 L 33.816406 43.785156 C 33.75 43.929688 33.667969 44.0625 33.566406 44.183594 C 33.464844 44.304688 33.347656 44.414062 33.210938 44.503906 C 33.074219 44.589844 32.921875 44.660156 32.746094 44.707031 C 32.574219 44.757812 32.382812 44.785156 32.175781 44.785156 C 31.867188 44.785156 31.597656 44.734375 31.367188 44.644531 C 31.136719 44.542969 30.941406 44.40625 30.785156 44.234375 C 30.636719 44.058594 30.519531 43.847656 30.441406 43.613281 C 30.359375 43.371094 30.324219 43.105469 30.324219 42.816406 C 30.324219 42.523438 30.359375 42.257812 30.441406 42.019531 C 30.527344 41.777344 30.648438 41.574219 30.808594 41.40625 C 30.964844 41.242188 31.160156 41.113281 31.390625 41.019531 C 31.617188 40.929688 31.878906 40.882812 32.175781 40.882812 C 32.578125 40.882812 32.914062 40.960938 33.179688 41.117188 C 33.449219 41.277344 33.652344 41.511719 33.78125 41.828125 L 33.296875 41.988281 C 33.257812 41.898438 33.210938 41.8125 33.148438 41.730469 C 33.085938 41.644531 33.011719 41.574219 32.921875 41.515625 C 32.824219 41.449219 32.71875 41.402344 32.597656 41.363281 C 32.472656 41.320312 32.332031 41.300781 32.175781 41.300781 Z M 32.175781 41.300781 "/>
<path style="fill:none;stroke-width:0.0333333;stroke-linecap:butt;stroke-linejoin:miter;stroke:rgb(0%,0%,0%);stroke-opacity:1;stroke-miterlimit:10;" d="M 0.857728 0.504884 L 1.566188 0.0956795 " transform="matrix(17.241379,0,0,17.201835,17.137375,17.029919)"/>
<path style="fill:none;stroke-width:0.0333333;stroke-linecap:butt;stroke-linejoin:miter;stroke:rgb(0%,0%,0%);stroke-opacity:1;stroke-miterlimit:10;" d="M 0.874267 0.504884 L 0.182345 0.105217 " transform="matrix(17.241379,0,0,17.201835,17.137375,17.029919)"/>
<path style="fill:none;stroke-width:0.0333333;stroke-linecap:butt;stroke-linejoin:miter;stroke:rgb(0%,0%,0%);stroke-opacity:1;stroke-miterlimit:10;" d="M 0.856368 0.570284 L 0.875626 0.570284 M 0.846626 0.640452 L 0.885368 0.640452 M 0.836884 0.710848 L 0.895337 0.710848 M 0.827142 0.781017 L 0.904853 0.781017 M 0.817399 0.851413 L 0.914595 0.851413 M 0.807657 0.921582 L 0.924337 0.921582 M 0.797915 0.991977 L 0.934079 0.991977 M 0.788173 1.062146 L 0.943821 1.062146 M 0.778431 1.132315 L 0.953563 1.132315 M 0.768915 1.202711 L 0.963306 1.202711 M 0.759173 1.272879 L 0.972821 1.272879 M 0.749204 1.343275 L 0.98279 1.343275 " transform="matrix(17.241379,0,0,17.201835,17.137375,17.029919)"/>
</g>
</svg>
