<?xml version="1.0" encoding="UTF-8"?>
<svg xmlns="http://www.w3.org/2000/svg" xmlns:xlink="http://www.w3.org/1999/xlink" width="103.2pt" height="64pt" viewBox="0 0 103.2 64" version="1.1">
<g id="surface332">
<path style=" stroke:none;fill-rule:nonzero;fill:rgb(0%,0%,0%);fill-opacity:1;" d="M 18.886719 32.363281 C 18.886719 32.660156 18.84375 32.929688 18.757812 33.171875 C 18.671875 33.414062 18.542969 33.625 18.378906 33.796875 C 18.21875 33.96875 18.019531 34.101562 17.78125 34.195312 C 17.550781 34.285156 17.289062 34.335938 16.992188 34.335938 C 16.671875 34.335938 16.394531 34.285156 16.15625 34.195312 C 15.925781 34.09375 15.730469 33.957031 15.574219 33.785156 C 15.414062 33.605469 15.292969 33.398438 15.214844 33.160156 C 15.132812 32.917969 15.09375 32.652344 15.09375 32.363281 C 15.09375 32.070312 15.132812 31.800781 15.214844 31.566406 C 15.300781 31.324219 15.421875 31.117188 15.582031 30.949219 C 15.75 30.785156 15.945312 30.65625 16.179688 30.5625 C 16.417969 30.472656 16.6875 30.421875 16.992188 30.421875 C 17.296875 30.421875 17.566406 30.472656 17.804688 30.5625 C 18.042969 30.65625 18.242188 30.789062 18.402344 30.960938 C 18.558594 31.128906 18.675781 31.328125 18.757812 31.566406 C 18.84375 31.800781 18.886719 32.070312 18.886719 32.363281 Z M 18.355469 32.363281 C 18.355469 32.132812 18.328125 31.925781 18.269531 31.738281 C 18.210938 31.550781 18.125 31.394531 18.011719 31.261719 C 17.894531 31.128906 17.75 31.023438 17.578125 30.949219 C 17.410156 30.882812 17.214844 30.84375 16.992188 30.84375 C 16.765625 30.84375 16.570312 30.882812 16.394531 30.949219 C 16.222656 31.023438 16.078125 31.128906 15.960938 31.261719 C 15.855469 31.394531 15.769531 31.550781 15.714844 31.738281 C 15.652344 31.925781 15.625 32.132812 15.625 32.363281 C 15.625 32.59375 15.652344 32.804688 15.714844 33 C 15.769531 33.1875 15.855469 33.347656 15.972656 33.484375 C 16.085938 33.621094 16.226562 33.726562 16.394531 33.804688 C 16.570312 33.878906 16.765625 33.914062 16.992188 33.914062 C 17.230469 33.914062 17.4375 33.878906 17.609375 33.804688 C 17.78125 33.726562 17.925781 33.621094 18.03125 33.484375 C 18.140625 33.339844 18.21875 33.175781 18.269531 32.988281 C 18.328125 32.792969 18.355469 32.585938 18.355469 32.363281 Z M 18.355469 32.363281 "/>
<path style=" stroke:none;fill-rule:nonzero;fill:rgb(0%,0%,0%);fill-opacity:1;" d="M 86.453125 30.378906 C 86.234375 30.378906 86.042969 30.414062 85.878906 30.484375 C 85.710938 30.558594 85.570312 30.664062 85.457031 30.796875 C 85.347656 30.925781 85.261719 31.085938 85.207031 31.273438 C 85.148438 31.460938 85.121094 31.667969 85.121094 31.898438 C 85.121094 32.128906 85.148438 32.339844 85.207031 32.53125 C 85.269531 32.722656 85.359375 32.882812 85.476562 33.015625 C 85.589844 33.15625 85.730469 33.261719 85.898438 33.339844 C 86.074219 33.414062 86.261719 33.449219 86.472656 33.449219 C 86.625 33.449219 86.757812 33.433594 86.875 33.394531 C 86.996094 33.351562 87.109375 33.292969 87.210938 33.222656 C 87.3125 33.152344 87.398438 33.070312 87.472656 32.972656 C 87.550781 32.882812 87.617188 32.773438 87.675781 32.652344 L 88.101562 32.867188 C 88.035156 33.011719 87.949219 33.144531 87.851562 33.265625 C 87.746094 33.390625 87.628906 33.496094 87.492188 33.589844 C 87.355469 33.675781 87.199219 33.746094 87.027344 33.792969 C 86.851562 33.839844 86.660156 33.867188 86.453125 33.867188 C 86.140625 33.867188 85.871094 33.820312 85.640625 33.726562 C 85.40625 33.628906 85.210938 33.492188 85.054688 33.320312 C 84.902344 33.140625 84.785156 32.929688 84.707031 32.695312 C 84.625 32.453125 84.589844 32.183594 84.589844 31.898438 C 84.589844 31.601562 84.625 31.335938 84.707031 31.097656 C 84.792969 30.855469 84.917969 30.652344 85.078125 30.484375 C 85.234375 30.320312 85.429688 30.191406 85.660156 30.097656 C 85.890625 30.003906 86.15625 29.957031 86.453125 29.957031 C 86.855469 29.957031 87.191406 30.039062 87.460938 30.195312 C 87.734375 30.351562 87.9375 30.589844 88.066406 30.90625 L 87.578125 31.066406 C 87.542969 30.976562 87.492188 30.890625 87.429688 30.808594 C 87.367188 30.722656 87.292969 30.652344 87.199219 30.59375 C 87.105469 30.527344 86.996094 30.480469 86.875 30.441406 C 86.75 30.398438 86.609375 30.378906 86.453125 30.378906 Z M 86.453125 30.378906 "/>
<path style=" stroke:none;fill-rule:nonzero;fill:rgb(0%,0%,0%);fill-opacity:1;" d="M 92.53125 31.898438 C 92.53125 32.191406 92.488281 32.460938 92.402344 32.703125 C 92.3125 32.949219 92.1875 33.15625 92.023438 33.328125 C 91.863281 33.503906 91.664062 33.636719 91.425781 33.726562 C 91.191406 33.820312 90.929688 33.867188 90.632812 33.867188 C 90.316406 33.867188 90.039062 33.820312 89.800781 33.726562 C 89.566406 33.628906 89.371094 33.492188 89.214844 33.320312 C 89.054688 33.140625 88.9375 32.929688 88.855469 32.695312 C 88.777344 32.453125 88.738281 32.183594 88.738281 31.898438 C 88.738281 31.601562 88.777344 31.335938 88.855469 31.097656 C 88.945312 30.855469 89.066406 30.652344 89.226562 30.484375 C 89.390625 30.320312 89.589844 30.191406 89.820312 30.097656 C 90.058594 30.003906 90.332031 29.957031 90.632812 29.957031 C 90.9375 29.957031 91.207031 30.003906 91.445312 30.097656 C 91.6875 30.191406 91.882812 30.324219 92.042969 30.496094 C 92.199219 30.664062 92.320312 30.863281 92.402344 31.097656 C 92.488281 31.335938 92.53125 31.601562 92.53125 31.898438 Z M 92 31.898438 C 92 31.667969 91.96875 31.460938 91.914062 31.273438 C 91.855469 31.085938 91.765625 30.925781 91.652344 30.796875 C 91.535156 30.664062 91.394531 30.558594 91.21875 30.484375 C 91.050781 30.414062 90.855469 30.378906 90.632812 30.378906 C 90.410156 30.378906 90.210938 30.414062 90.039062 30.484375 C 89.863281 30.558594 89.71875 30.664062 89.605469 30.796875 C 89.496094 30.925781 89.414062 31.085938 89.355469 31.273438 C 89.296875 31.460938 89.269531 31.667969 89.269531 31.898438 C 89.269531 32.128906 89.296875 32.339844 89.355469 32.53125 C 89.414062 32.722656 89.5 32.882812 89.617188 33.015625 C 89.730469 33.15625 89.871094 33.261719 90.039062 33.339844 C 90.210938 33.414062 90.410156 33.449219 90.632812 33.449219 C 90.871094 33.449219 91.078125 33.414062 91.253906 33.339844 C 91.425781 33.261719 91.566406 33.15625 91.675781 33.015625 C 91.78125 32.875 91.863281 32.710938 91.914062 32.523438 C 91.96875 32.328125 92 32.121094 92 31.898438 Z M 92 31.898438 "/>
<path style=" stroke:none;fill-rule:nonzero;fill:rgb(0%,0%,0%);fill-opacity:1;" d="M 92.820312 34.410156 L 92.820312 34.152344 C 92.890625 33.996094 92.972656 33.859375 93.066406 33.742188 C 93.167969 33.621094 93.273438 33.511719 93.382812 33.40625 C 93.496094 33.308594 93.609375 33.21875 93.71875 33.136719 C 93.828125 33.050781 93.925781 32.972656 94.011719 32.890625 C 94.097656 32.804688 94.164062 32.714844 94.21875 32.621094 C 94.265625 32.53125 94.292969 32.425781 94.292969 32.308594 C 94.292969 32.230469 94.28125 32.164062 94.261719 32.105469 C 94.238281 32.039062 94.199219 31.984375 94.152344 31.941406 C 94.109375 31.898438 94.054688 31.871094 93.988281 31.855469 C 93.925781 31.835938 93.851562 31.824219 93.773438 31.824219 C 93.699219 31.824219 93.632812 31.835938 93.566406 31.855469 C 93.5 31.871094 93.441406 31.898438 93.394531 31.941406 C 93.34375 31.980469 93.300781 32.027344 93.273438 32.09375 C 93.246094 32.152344 93.222656 32.21875 93.210938 32.296875 L 92.839844 32.265625 C 92.855469 32.164062 92.882812 32.070312 92.925781 31.984375 C 92.96875 31.894531 93.03125 31.8125 93.113281 31.75 C 93.191406 31.679688 93.285156 31.625 93.394531 31.585938 C 93.5 31.542969 93.625 31.523438 93.773438 31.523438 C 93.917969 31.523438 94.042969 31.539062 94.152344 31.574219 C 94.265625 31.605469 94.359375 31.65625 94.433594 31.726562 C 94.511719 31.792969 94.570312 31.875 94.605469 31.976562 C 94.648438 32.070312 94.671875 32.175781 94.671875 32.296875 C 94.671875 32.398438 94.652344 32.492188 94.617188 32.578125 C 94.589844 32.664062 94.542969 32.746094 94.488281 32.824219 C 94.429688 32.898438 94.359375 32.972656 94.28125 33.050781 C 94.207031 33.125 94.128906 33.199219 94.042969 33.269531 C 93.960938 33.332031 93.882812 33.402344 93.792969 33.472656 C 93.714844 33.539062 93.632812 33.605469 93.554688 33.675781 C 93.484375 33.742188 93.417969 33.8125 93.359375 33.882812 C 93.300781 33.953125 93.253906 34.027344 93.21875 34.097656 L 94.714844 34.097656 L 94.714844 34.410156 Z M 92.820312 34.410156 "/>
<path style=" stroke:none;fill-rule:nonzero;fill:rgb(0%,0%,0%);fill-opacity:1;" d="M 98.257812 33.75 L 98.257812 31.21875 C 98.257812 31.125 98.257812 31.03125 98.257812 30.9375 C 98.257812 30.847656 98.257812 30.757812 98.265625 30.679688 C 98.265625 30.585938 98.269531 30.496094 98.277344 30.410156 C 98.25 30.503906 98.222656 30.59375 98.203125 30.679688 C 98.171875 30.757812 98.140625 30.839844 98.117188 30.925781 C 98.09375 31.011719 98.066406 31.09375 98.039062 31.164062 L 97.054688 33.75 L 96.683594 33.75 L 95.6875 31.164062 C 95.679688 31.136719 95.667969 31.105469 95.65625 31.066406 C 95.640625 31.03125 95.625 30.996094 95.613281 30.960938 C 95.605469 30.914062 95.59375 30.871094 95.578125 30.828125 C 95.5625 30.785156 95.550781 30.742188 95.535156 30.699219 C 95.507812 30.609375 95.476562 30.511719 95.449219 30.410156 C 95.449219 30.511719 95.453125 30.613281 95.460938 30.710938 C 95.460938 30.792969 95.460938 30.878906 95.460938 30.96875 C 95.464844 31.0625 95.472656 31.148438 95.472656 31.21875 L 95.472656 33.75 L 95.003906 33.75 L 95.003906 29.957031 L 95.6875 29.957031 L 96.707031 32.585938 C 96.710938 32.625 96.722656 32.667969 96.738281 32.726562 C 96.761719 32.785156 96.777344 32.84375 96.792969 32.898438 C 96.816406 32.957031 96.832031 33.015625 96.847656 33.070312 C 96.859375 33.121094 96.871094 33.164062 96.871094 33.191406 C 96.875 33.164062 96.886719 33.121094 96.902344 33.070312 C 96.914062 33.015625 96.929688 32.957031 96.945312 32.898438 C 96.964844 32.835938 96.984375 32.777344 97 32.726562 C 97.019531 32.667969 97.039062 32.625 97.054688 32.585938 L 98.050781 29.957031 L 98.722656 29.957031 L 98.722656 33.75 Z M 98.257812 33.75 "/>
<path style=" stroke:none;fill-rule:nonzero;fill:rgb(0%,0%,0%);fill-opacity:1;" d="M 100.109375 32.390625 C 100.109375 32.542969 100.121094 32.683594 100.152344 32.8125 C 100.1875 32.941406 100.238281 33.054688 100.304688 33.148438 C 100.371094 33.242188 100.449219 33.3125 100.554688 33.363281 C 100.660156 33.414062 100.785156 33.4375 100.933594 33.4375 C 101.140625 33.4375 101.308594 33.398438 101.429688 33.320312 C 101.5625 33.234375 101.648438 33.125 101.691406 32.996094 L 102.125 33.113281 C 102.09375 33.195312 102.050781 33.277344 101.996094 33.363281 C 101.933594 33.441406 101.859375 33.511719 101.765625 33.578125 C 101.679688 33.640625 101.566406 33.695312 101.429688 33.738281 C 101.292969 33.78125 101.128906 33.804688 100.933594 33.804688 C 100.5 33.804688 100.167969 33.675781 99.9375 33.414062 C 99.710938 33.15625 99.601562 32.777344 99.601562 32.273438 C 99.601562 32 99.632812 31.773438 99.699219 31.585938 C 99.769531 31.390625 99.863281 31.238281 99.980469 31.121094 C 100.101562 31 100.242188 30.914062 100.402344 30.863281 C 100.558594 30.804688 100.730469 30.777344 100.910156 30.777344 C 101.15625 30.777344 101.359375 30.816406 101.527344 30.894531 C 101.695312 30.976562 101.824219 31.085938 101.917969 31.226562 C 102.019531 31.367188 102.09375 31.53125 102.136719 31.722656 C 102.179688 31.914062 102.199219 32.113281 102.199219 32.328125 L 102.199219 32.390625 Z M 101.703125 32.027344 C 101.671875 31.71875 101.59375 31.496094 101.464844 31.359375 C 101.332031 31.214844 101.144531 31.140625 100.898438 31.140625 C 100.820312 31.140625 100.730469 31.160156 100.640625 31.183594 C 100.554688 31.207031 100.46875 31.25 100.390625 31.316406 C 100.316406 31.378906 100.253906 31.472656 100.207031 31.585938 C 100.15625 31.699219 100.125 31.847656 100.121094 32.027344 Z M 101.703125 32.027344 "/>
<path style="fill:none;stroke-width:0.0333333;stroke-linecap:butt;stroke-linejoin:miter;stroke:rgb(0%,0%,0%);stroke-opacity:1;stroke-miterlimit:10;" d="M 2.501789 -0.000124562 L 1.482349 0.0091645 " transform="matrix(17.33871,0,0,17.241379,16.9933,17.060741)"/>
<path style="fill:none;stroke-width:0.0333333;stroke-linecap:butt;stroke-linejoin:miter;stroke:rgb(0%,0%,0%);stroke-opacity:1;stroke-miterlimit:10;" d="M 2.48737 -0.00828081 L 2.999907 0.861493 " transform="matrix(17.33871,0,0,17.241379,16.9933,17.060741)"/>
<path style="fill:none;stroke-width:0.0333333;stroke-linecap:butt;stroke-linejoin:miter;stroke:rgb(0%,0%,0%);stroke-opacity:1;stroke-miterlimit:10;" d="M 2.392523 0.159149 L 2.807508 0.863079 " transform="matrix(17.33871,0,0,17.241379,16.9933,17.060741)"/>
<path style="fill:none;stroke-width:0.0333333;stroke-linecap:butt;stroke-linejoin:miter;stroke:rgb(0%,0%,0%);stroke-opacity:1;stroke-miterlimit:10;" d="M 1.496767 0.000555125 L 1.000001 0.879618 " transform="matrix(17.33871,0,0,17.241379,16.9933,17.060741)"/>
<path style="fill:none;stroke-width:0.0333333;stroke-linecap:butt;stroke-linejoin:miter;stroke:rgb(0%,0%,0%);stroke-opacity:1;stroke-miterlimit:10;" d="M 1.594543 0.166399 L 1.192174 0.877805 " transform="matrix(17.33871,0,0,17.241379,16.9933,17.060741)"/>
<path style="fill:none;stroke-width:0.0333333;stroke-linecap:butt;stroke-linejoin:miter;stroke:rgb(0%,0%,0%);stroke-opacity:1;stroke-miterlimit:10;" d="M 0.99482 0.871235 L 1.512538 1.749165 " transform="matrix(17.33871,0,0,17.241379,16.9933,17.060741)"/>
<path style="fill:none;stroke-width:0.0333333;stroke-linecap:butt;stroke-linejoin:miter;stroke:rgb(0%,0%,0%);stroke-opacity:1;stroke-miterlimit:10;" d="M 1.498119 1.741008 L 2.517334 1.731946 " transform="matrix(17.33871,0,0,17.241379,16.9933,17.060741)"/>
<path style="fill:none;stroke-width:0.0333333;stroke-linecap:butt;stroke-linejoin:miter;stroke:rgb(0%,0%,0%);stroke-opacity:1;stroke-miterlimit:10;" d="M 1.592741 1.573352 L 2.419558 1.566102 " transform="matrix(17.33871,0,0,17.241379,16.9933,17.060741)"/>
<path style="fill:none;stroke-width:0.0333333;stroke-linecap:butt;stroke-linejoin:miter;stroke:rgb(0%,0%,0%);stroke-opacity:1;stroke-miterlimit:10;" d="M 2.502915 1.740329 L 3.004638 0.852883 " transform="matrix(17.33871,0,0,17.241379,16.9933,17.060741)"/>
<path style="fill:none;stroke-width:0.0333333;stroke-linecap:butt;stroke-linejoin:miter;stroke:rgb(0%,0%,0%);stroke-opacity:1;stroke-miterlimit:10;" d="M 1.009463 0.879391 L 0.153584 0.887094 " transform="matrix(17.33871,0,0,17.241379,16.9933,17.060741)"/>
<path style="fill:none;stroke-width:0.0333333;stroke-linecap:butt;stroke-linejoin:miter;stroke:rgb(0%,0%,0%);stroke-opacity:1;stroke-miterlimit:10;" d="M 2.989994 0.861493 L 3.855336 0.861493 " transform="matrix(17.33871,0,0,17.241379,16.9933,17.060741)"/>
</g>
</svg>
