<?xml version="1.0" encoding="UTF-8"?>
<svg xmlns="http://www.w3.org/2000/svg" xmlns:xlink="http://www.w3.org/1999/xlink" width="94.4pt" height="68.8pt" viewBox="0 0 94.4 68.8" version="1.1">
<g id="surface1697">
<path style=" stroke:none;fill-rule:nonzero;fill:rgb(0%,0%,0%);fill-opacity:1;" d="M 18.296875 19.09375 L 17.148438 17.4375 L 15.976562 19.09375 L 15.410156 19.09375 L 16.863281 17.125 L 15.519531 15.308594 L 16.09375 15.308594 L 17.15625 16.792969 L 18.1875 15.308594 L 18.761719 15.308594 L 17.449219 17.101562 L 18.871094 19.09375 Z M 18.296875 19.09375 "/>
<path style=" stroke:none;fill-rule:nonzero;fill:rgb(0%,0%,0%);fill-opacity:1;" d="M 78.410156 19.09375 L 77.261719 17.4375 L 76.089844 19.09375 L 75.527344 19.09375 L 76.980469 17.125 L 75.632812 15.308594 L 76.210938 15.308594 L 77.273438 16.792969 L 78.300781 15.308594 L 78.878906 15.308594 L 77.566406 17.101562 L 78.984375 19.09375 Z M 78.410156 19.09375 "/>
<path style="fill:none;stroke-width:0.0333333;stroke-linecap:butt;stroke-linejoin:miter;stroke:rgb(0%,0%,0%);stroke-opacity:1;stroke-miterlimit:10;" d="M 1.740575 -0.00481132 L 0.85771 0.504818 " transform="matrix(17.352941,0,0,17.2,17.143554,17.199942)"/>
<path style="fill:none;stroke-width:0.0333333;stroke-linecap:butt;stroke-linejoin:miter;stroke:rgb(0%,0%,0%);stroke-opacity:1;stroke-miterlimit:10;" d="M 1.723692 -0.00481132 L 2.598004 0.500049 " transform="matrix(17.352941,0,0,17.2,17.143554,17.199942)"/>
<path style="fill:none;stroke-width:0.0333333;stroke-linecap:butt;stroke-linejoin:miter;stroke:rgb(0%,0%,0%);stroke-opacity:1;stroke-miterlimit:10;" d="M 1.723692 0.187549 L 2.431425 0.596342 " transform="matrix(17.352941,0,0,17.2,17.143554,17.199942)"/>
<path style="fill:none;stroke-width:0.0333333;stroke-linecap:butt;stroke-linejoin:miter;stroke:rgb(0%,0%,0%);stroke-opacity:1;stroke-miterlimit:10;" d="M 0.866039 0.500049 L 0.866039 1.509769 " transform="matrix(17.352941,0,0,17.2,17.143554,17.199942)"/>
<path style="fill:none;stroke-width:0.0333333;stroke-linecap:butt;stroke-linejoin:miter;stroke:rgb(0%,0%,0%);stroke-opacity:1;stroke-miterlimit:10;" d="M 1.032617 0.596342 L 1.032617 1.413475 " transform="matrix(17.352941,0,0,17.2,17.143554,17.199942)"/>
<path style="fill:none;stroke-width:0.0333333;stroke-linecap:butt;stroke-linejoin:miter;stroke:rgb(0%,0%,0%);stroke-opacity:1;stroke-miterlimit:10;" d="M 0.85771 1.495234 L 1.740575 2.004863 " transform="matrix(17.352941,0,0,17.2,17.143554,17.199942)"/>
<path style="fill:none;stroke-width:0.0333333;stroke-linecap:butt;stroke-linejoin:miter;stroke:rgb(0%,0%,0%);stroke-opacity:1;stroke-miterlimit:10;" d="M 1.723692 2.004863 L 2.606333 1.495234 " transform="matrix(17.352941,0,0,17.2,17.143554,17.199942)"/>
<path style="fill:none;stroke-width:0.0333333;stroke-linecap:butt;stroke-linejoin:miter;stroke:rgb(0%,0%,0%);stroke-opacity:1;stroke-miterlimit:10;" d="M 1.723692 1.812276 L 2.439754 1.39894 " transform="matrix(17.352941,0,0,17.2,17.143554,17.199942)"/>
<path style="fill:none;stroke-width:0.0333333;stroke-linecap:butt;stroke-linejoin:miter;stroke:rgb(0%,0%,0%);stroke-opacity:1;stroke-miterlimit:10;" d="M 2.598004 1.509769 L 2.598004 0.490283 " transform="matrix(17.352941,0,0,17.2,17.143554,17.199942)"/>
<path style="fill:none;stroke-width:0.0333333;stroke-linecap:butt;stroke-linejoin:miter;stroke:rgb(0%,0%,0%);stroke-opacity:1;stroke-miterlimit:10;" d="M 0.874368 0.504818 L 0.173613 0.100339 " transform="matrix(17.352941,0,0,17.2,17.143554,17.199942)"/>
<path style="fill:none;stroke-width:0.0333333;stroke-linecap:butt;stroke-linejoin:miter;stroke:rgb(0%,0%,0%);stroke-opacity:1;stroke-miterlimit:10;" d="M 2.589675 0.504818 L 3.29043 0.100339 " transform="matrix(17.352941,0,0,17.2,17.143554,17.199942)"/>
</g>
</svg>
