<?xml version="1.0" encoding="UTF-8"?>
<svg xmlns="http://www.w3.org/2000/svg" xmlns:xlink="http://www.w3.org/1999/xlink" width="94.4pt" height="68.8pt" viewBox="0 0 94.4 68.8" version="1.1">
<g id="surface192">
<path style=" stroke:none;fill-rule:nonzero;fill:rgb(0%,0%,0%);fill-opacity:1;" d="M 64.125 17.183594 C 64.125 17.480469 64.082031 17.75 63.996094 17.988281 C 63.90625 18.234375 63.78125 18.441406 63.613281 18.613281 C 63.453125 18.785156 63.257812 18.921875 63.019531 19.011719 C 62.785156 19.101562 62.523438 19.152344 62.226562 19.152344 C 61.90625 19.152344 61.628906 19.101562 61.390625 19.011719 C 61.160156 18.910156 60.964844 18.773438 60.804688 18.601562 C 60.644531 18.425781 60.527344 18.214844 60.449219 17.980469 C 60.367188 17.738281 60.328125 17.472656 60.328125 17.183594 C 60.328125 16.890625 60.367188 16.625 60.449219 16.386719 C 60.535156 16.148438 60.65625 15.941406 60.816406 15.777344 C 60.980469 15.613281 61.179688 15.484375 61.414062 15.386719 C 61.652344 15.296875 61.921875 15.25 62.226562 15.25 C 62.53125 15.25 62.800781 15.296875 63.039062 15.386719 C 63.277344 15.484375 63.476562 15.613281 63.636719 15.785156 C 63.792969 15.953125 63.914062 16.152344 63.996094 16.386719 C 64.082031 16.625 64.125 16.890625 64.125 17.183594 Z M 63.59375 17.183594 C 63.59375 16.957031 63.5625 16.75 63.507812 16.558594 C 63.445312 16.375 63.359375 16.214844 63.246094 16.085938 C 63.128906 15.953125 62.984375 15.847656 62.8125 15.777344 C 62.644531 15.707031 62.449219 15.667969 62.226562 15.667969 C 62 15.667969 61.804688 15.707031 61.628906 15.777344 C 61.457031 15.847656 61.308594 15.953125 61.195312 16.085938 C 61.085938 16.214844 61.003906 16.375 60.945312 16.558594 C 60.886719 16.75 60.859375 16.957031 60.859375 17.183594 C 60.859375 17.414062 60.886719 17.625 60.945312 17.816406 C 61.003906 18.007812 61.089844 18.167969 61.207031 18.300781 C 61.320312 18.4375 61.460938 18.546875 61.628906 18.625 C 61.804688 18.695312 62 18.730469 62.226562 18.730469 C 62.464844 18.730469 62.671875 18.695312 62.84375 18.625 C 63.019531 18.546875 63.160156 18.4375 63.269531 18.300781 C 63.375 18.160156 63.453125 17.996094 63.507812 17.808594 C 63.5625 17.613281 63.59375 17.40625 63.59375 17.183594 Z M 63.59375 17.183594 "/>
<path style=" stroke:none;fill-rule:nonzero;fill:rgb(0%,0%,0%);fill-opacity:1;" d="M 78.285156 27.691406 L 78.285156 25.941406 L 76.226562 25.941406 L 76.226562 27.691406 L 75.703125 27.691406 L 75.703125 23.90625 L 76.226562 23.90625 L 76.226562 25.507812 L 78.285156 25.507812 L 78.285156 23.90625 L 78.808594 23.90625 L 78.808594 27.691406 Z M 78.285156 27.691406 "/>
<path style="fill:none;stroke-width:0.0333333;stroke-linecap:butt;stroke-linejoin:miter;stroke:rgb(0%,0%,0%);stroke-opacity:1;stroke-miterlimit:10;" d="M 0.874143 -0.00481132 L -0.00849773 0.504818 " transform="matrix(17.352941,0,0,17.2,17.143554,17.199942)"/>
<path style="fill:none;stroke-width:0.0333333;stroke-linecap:butt;stroke-linejoin:miter;stroke:rgb(0%,0%,0%);stroke-opacity:1;stroke-miterlimit:10;" d="M 0.857485 -0.00481132 L 1.732021 0.500049 " transform="matrix(17.352941,0,0,17.2,17.143554,17.199942)"/>
<path style="fill:none;stroke-width:0.0333333;stroke-linecap:butt;stroke-linejoin:miter;stroke:rgb(0%,0%,0%);stroke-opacity:1;stroke-miterlimit:10;" d="M 0.85771 0.187549 L 1.565443 0.596342 " transform="matrix(17.352941,0,0,17.2,17.143554,17.199942)"/>
<path style="fill:none;stroke-width:0.0333333;stroke-linecap:butt;stroke-linejoin:miter;stroke:rgb(0%,0%,0%);stroke-opacity:1;stroke-miterlimit:10;" d="M 0.0000562964 0.490283 L 0.0000562964 1.509769 " transform="matrix(17.352941,0,0,17.2,17.143554,17.199942)"/>
<path style="fill:none;stroke-width:0.0333333;stroke-linecap:butt;stroke-linejoin:miter;stroke:rgb(0%,0%,0%);stroke-opacity:1;stroke-miterlimit:10;" d="M 0.166635 0.586577 L 0.166635 1.413475 " transform="matrix(17.352941,0,0,17.2,17.143554,17.199942)"/>
<path style="fill:none;stroke-width:0.0333333;stroke-linecap:butt;stroke-linejoin:miter;stroke:rgb(0%,0%,0%);stroke-opacity:1;stroke-miterlimit:10;" d="M -0.00849773 1.495234 L 0.874143 2.004863 " transform="matrix(17.352941,0,0,17.2,17.143554,17.199942)"/>
<path style="fill:none;stroke-width:0.0333333;stroke-linecap:butt;stroke-linejoin:miter;stroke:rgb(0%,0%,0%);stroke-opacity:1;stroke-miterlimit:10;" d="M 0.857485 2.004863 L 1.74035 1.495234 " transform="matrix(17.352941,0,0,17.2,17.143554,17.199942)"/>
<path style="fill:none;stroke-width:0.0333333;stroke-linecap:butt;stroke-linejoin:miter;stroke:rgb(0%,0%,0%);stroke-opacity:1;stroke-miterlimit:10;" d="M 0.85771 1.812276 L 1.573547 1.39894 " transform="matrix(17.352941,0,0,17.2,17.143554,17.199942)"/>
<path style="fill:none;stroke-width:0.0333333;stroke-linecap:butt;stroke-linejoin:miter;stroke:rgb(0%,0%,0%);stroke-opacity:1;stroke-miterlimit:10;" d="M 1.732021 1.509769 L 1.732021 0.490283 " transform="matrix(17.352941,0,0,17.2,17.143554,17.199942)"/>
<path style="fill:none;stroke-width:0.0333333;stroke-linecap:butt;stroke-linejoin:miter;stroke:rgb(0%,0%,0%);stroke-opacity:1;stroke-miterlimit:10;" d="M 1.723692 0.504818 L 2.415668 0.105336 " transform="matrix(17.352941,0,0,17.2,17.143554,17.199942)"/>
<path style="fill:none;stroke-width:0.0333333;stroke-linecap:butt;stroke-linejoin:miter;stroke:rgb(0%,0%,0%);stroke-opacity:1;stroke-miterlimit:10;" d="M 2.780565 0.105336 L 3.298083 0.404209 " transform="matrix(17.352941,0,0,17.2,17.143554,17.199942)"/>
</g>
</svg>
