<?xml version="1.0" encoding="UTF-8"?>
<svg xmlns="http://www.w3.org/2000/svg" xmlns:xlink="http://www.w3.org/1999/xlink" width="86.4pt" height="64pt" viewBox="0 0 86.4 64" version="1.1">
<g id="surface1612">
<path style=" stroke:none;fill-rule:nonzero;fill:rgb(0%,0%,0%);fill-opacity:1;" d="M 17.414062 30.535156 C 17.199219 30.535156 17.007812 30.570312 16.84375 30.640625 C 16.675781 30.714844 16.535156 30.820312 16.421875 30.953125 C 16.3125 31.082031 16.230469 31.242188 16.171875 31.429688 C 16.113281 31.617188 16.085938 31.824219 16.085938 32.054688 C 16.085938 32.285156 16.113281 32.496094 16.171875 32.6875 C 16.238281 32.878906 16.324219 33.039062 16.441406 33.171875 C 16.554688 33.3125 16.695312 33.417969 16.863281 33.496094 C 17.039062 33.570312 17.226562 33.605469 17.4375 33.605469 C 17.589844 33.605469 17.722656 33.589844 17.835938 33.550781 C 17.960938 33.507812 18.070312 33.449219 18.171875 33.378906 C 18.273438 33.308594 18.359375 33.226562 18.433594 33.128906 C 18.511719 33.039062 18.578125 32.929688 18.636719 32.808594 L 19.058594 33.023438 C 18.996094 33.167969 18.910156 33.300781 18.8125 33.421875 C 18.707031 33.546875 18.589844 33.652344 18.453125 33.746094 C 18.316406 33.832031 18.164062 33.902344 17.988281 33.949219 C 17.816406 33.996094 17.625 34.023438 17.414062 34.023438 C 17.105469 34.023438 16.835938 33.976562 16.605469 33.882812 C 16.371094 33.785156 16.175781 33.648438 16.019531 33.476562 C 15.867188 33.296875 15.753906 33.085938 15.675781 32.851562 C 15.59375 32.609375 15.554688 32.339844 15.554688 32.054688 C 15.554688 31.757812 15.59375 31.492188 15.675781 31.253906 C 15.761719 31.011719 15.882812 30.808594 16.042969 30.640625 C 16.199219 30.476562 16.394531 30.347656 16.625 30.253906 C 16.855469 30.160156 17.117188 30.113281 17.414062 30.113281 C 17.820312 30.113281 18.152344 30.195312 18.421875 30.351562 C 18.695312 30.507812 18.898438 30.746094 19.027344 31.0625 L 18.539062 31.222656 C 18.503906 31.132812 18.453125 31.046875 18.390625 30.964844 C 18.328125 30.878906 18.253906 30.808594 18.164062 30.75 C 18.066406 30.683594 17.960938 30.636719 17.835938 30.597656 C 17.714844 30.554688 17.574219 30.535156 17.414062 30.535156 Z M 17.414062 30.535156 "/>
<path style="fill:none;stroke-width:0.0333333;stroke-linecap:butt;stroke-linejoin:miter;stroke:rgb(0%,0%,0%);stroke-opacity:1;stroke-miterlimit:10;" d="M 1.490313 -0.0000449125 L 2.509774 -0.0000449125 " transform="matrix(17.307692,0,0,17.241379,17.307692,17.137493)"/>
<path style="fill:none;stroke-width:0.0333333;stroke-linecap:butt;stroke-linejoin:miter;stroke:rgb(0%,0%,0%);stroke-opacity:1;stroke-miterlimit:10;" d="M 2.495104 -0.00842772 L 3.004948 0.87426 " transform="matrix(17.307692,0,0,17.241379,17.307692,17.137493)"/>
<path style="fill:none;stroke-width:0.0333333;stroke-linecap:butt;stroke-linejoin:miter;stroke:rgb(0%,0%,0%);stroke-opacity:1;stroke-miterlimit:10;" d="M 2.398958 0.158322 L 2.812431 0.87426 " transform="matrix(17.307692,0,0,17.241379,17.307692,17.137493)"/>
<path style="fill:none;stroke-width:0.0333333;stroke-linecap:butt;stroke-linejoin:miter;stroke:rgb(0%,0%,0%);stroke-opacity:1;stroke-miterlimit:10;" d="M 3.004948 0.857721 L 2.495104 1.740408 " transform="matrix(17.307692,0,0,17.241379,17.307692,17.137493)"/>
<path style="fill:none;stroke-width:0.0333333;stroke-linecap:butt;stroke-linejoin:miter;stroke:rgb(0%,0%,0%);stroke-opacity:1;stroke-miterlimit:10;" d="M 2.509774 1.732025 L 1.490313 1.732025 " transform="matrix(17.307692,0,0,17.241379,17.307692,17.137493)"/>
<path style="fill:none;stroke-width:0.0333333;stroke-linecap:butt;stroke-linejoin:miter;stroke:rgb(0%,0%,0%);stroke-opacity:1;stroke-miterlimit:10;" d="M 2.413403 1.565502 L 1.586458 1.565502 " transform="matrix(17.307692,0,0,17.241379,17.307692,17.137493)"/>
<path style="fill:none;stroke-width:0.0333333;stroke-linecap:butt;stroke-linejoin:miter;stroke:rgb(0%,0%,0%);stroke-opacity:1;stroke-miterlimit:10;" d="M 1.504757 1.740408 L 0.995139 0.857721 " transform="matrix(17.307692,0,0,17.241379,17.307692,17.137493)"/>
<path style="fill:none;stroke-width:0.0333333;stroke-linecap:butt;stroke-linejoin:miter;stroke:rgb(0%,0%,0%);stroke-opacity:1;stroke-miterlimit:10;" d="M 1.000104 0.866104 L 1.504757 -0.00842772 " transform="matrix(17.307692,0,0,17.241379,17.307692,17.137493)"/>
<path style="fill:none;stroke-width:0.0333333;stroke-linecap:butt;stroke-linejoin:miter;stroke:rgb(0%,0%,0%);stroke-opacity:1;stroke-miterlimit:10;" d="M 1.192396 0.866104 L 1.601128 0.158322 " transform="matrix(17.307692,0,0,17.241379,17.307692,17.137493)"/>
<path style="fill:none;stroke-width:0.0333333;stroke-linecap:butt;stroke-linejoin:miter;stroke:rgb(0%,0%,0%);stroke-opacity:1;stroke-miterlimit:10;" d="M 1.009583 0.866104 L 0.144497 0.866104 " transform="matrix(17.307692,0,0,17.241379,17.307692,17.137493)"/>
</g>
</svg>
