<?xml version="1.0" encoding="UTF-8"?>
<svg xmlns="http://www.w3.org/2000/svg" xmlns:xlink="http://www.w3.org/1999/xlink" width="34.4pt" height="52pt" viewBox="0 0 34.4 52" version="1.1">
<g id="surface1282">
<path style=" stroke:none;fill-rule:nonzero;fill:rgb(0%,0%,0%);fill-opacity:1;" d="M 18.980469 34.53125 C 18.980469 34.851562 18.933594 35.132812 18.839844 35.375 C 18.746094 35.613281 18.613281 35.8125 18.449219 35.980469 C 18.28125 36.148438 18.082031 36.269531 17.851562 36.355469 C 17.628906 36.4375 17.386719 36.476562 17.128906 36.476562 L 15.695312 36.476562 L 15.695312 32.671875 L 16.964844 32.671875 C 17.253906 32.671875 17.519531 32.710938 17.765625 32.78125 C 18.019531 32.855469 18.234375 32.964844 18.417969 33.117188 C 18.597656 33.265625 18.734375 33.460938 18.828125 33.699219 C 18.929688 33.929688 18.980469 34.207031 18.980469 34.53125 Z M 18.460938 34.53125 C 18.460938 34.273438 18.421875 34.054688 18.351562 33.871094 C 18.277344 33.695312 18.171875 33.546875 18.039062 33.429688 C 17.90625 33.308594 17.746094 33.222656 17.5625 33.167969 C 17.371094 33.113281 17.171875 33.082031 16.953125 33.082031 L 16.21875 33.082031 L 16.21875 36.066406 L 17.0625 36.066406 C 17.261719 36.066406 17.445312 36.03125 17.613281 35.96875 C 17.789062 35.902344 17.933594 35.804688 18.058594 35.675781 C 18.1875 35.546875 18.285156 35.390625 18.351562 35.199219 C 18.421875 35.007812 18.460938 34.785156 18.460938 34.53125 Z M 18.460938 34.53125 "/>
<path style=" stroke:none;fill-rule:nonzero;fill:rgb(0%,0%,0%);fill-opacity:1;" d="M 19.234375 17.269531 C 19.234375 17.566406 19.191406 17.839844 19.105469 18.082031 C 19.019531 18.328125 18.890625 18.535156 18.726562 18.707031 C 18.566406 18.882812 18.367188 19.015625 18.128906 19.109375 C 17.898438 19.199219 17.632812 19.25 17.339844 19.25 C 17.019531 19.25 16.742188 19.199219 16.503906 19.109375 C 16.269531 19.007812 16.078125 18.871094 15.917969 18.695312 C 15.757812 18.519531 15.640625 18.308594 15.5625 18.070312 C 15.480469 17.828125 15.441406 17.558594 15.441406 17.269531 C 15.441406 16.976562 15.480469 16.710938 15.5625 16.472656 C 15.648438 16.226562 15.769531 16.023438 15.929688 15.855469 C 16.09375 15.691406 16.292969 15.5625 16.527344 15.464844 C 16.765625 15.375 17.035156 15.328125 17.339844 15.328125 C 17.640625 15.328125 17.914062 15.375 18.152344 15.464844 C 18.390625 15.5625 18.585938 15.695312 18.746094 15.867188 C 18.90625 16.035156 19.023438 16.234375 19.105469 16.472656 C 19.191406 16.710938 19.234375 16.976562 19.234375 17.269531 Z M 18.703125 17.269531 C 18.703125 17.042969 18.675781 16.832031 18.617188 16.644531 C 18.558594 16.457031 18.472656 16.296875 18.355469 16.167969 C 18.242188 16.035156 18.097656 15.929688 17.925781 15.855469 C 17.757812 15.785156 17.5625 15.746094 17.339844 15.746094 C 17.113281 15.746094 16.917969 15.785156 16.742188 15.855469 C 16.570312 15.929688 16.421875 16.035156 16.308594 16.167969 C 16.199219 16.296875 16.117188 16.457031 16.058594 16.644531 C 16 16.832031 15.972656 17.042969 15.972656 17.269531 C 15.972656 17.503906 16 17.714844 16.058594 17.910156 C 16.117188 18.097656 16.203125 18.257812 16.320312 18.394531 C 16.433594 18.53125 16.574219 18.640625 16.742188 18.71875 C 16.917969 18.792969 17.113281 18.828125 17.339844 18.828125 C 17.578125 18.828125 17.78125 18.792969 17.957031 18.71875 C 18.128906 18.640625 18.269531 18.53125 18.378906 18.394531 C 18.488281 18.25 18.566406 18.085938 18.617188 17.898438 C 18.675781 17.703125 18.703125 17.496094 18.703125 17.269531 Z M 18.703125 17.269531 "/>
<path style="fill:none;stroke-width:0.0333333;stroke-linecap:butt;stroke-linejoin:miter;stroke:rgb(0%,0%,0%);stroke-opacity:1;stroke-miterlimit:10;" d="M 0.000065407 0.846784 L 0.000065407 0.156697 " transform="matrix(17.33871,0,0,17.287234,17.33871,17.287234)"/>
</g>
</svg>
