<?xml version="1.0" encoding="UTF-8"?>
<svg xmlns="http://www.w3.org/2000/svg" xmlns:xlink="http://www.w3.org/1999/xlink" width="124pt" height="102.4pt" viewBox="0 0 124 102.4" version="1.1">
<g id="surface1557">
<path style=" stroke:none;fill-rule:nonzero;fill:rgb(0%,0%,0%);fill-opacity:1;" d="M 61.671875 53.976562 L 61.671875 50.148438 L 62.191406 50.148438 L 62.191406 53.976562 Z M 61.671875 53.976562 "/>
<path style=" stroke:none;fill-rule:nonzero;fill:rgb(0%,0%,0%);fill-opacity:1;" d="M 48.839844 25.957031 C 48.839844 26.253906 48.796875 26.527344 48.710938 26.773438 C 48.625 27.019531 48.496094 27.226562 48.332031 27.402344 C 48.171875 27.574219 47.976562 27.710938 47.738281 27.804688 C 47.503906 27.898438 47.242188 27.945312 46.949219 27.945312 C 46.628906 27.945312 46.351562 27.898438 46.117188 27.804688 C 45.882812 27.703125 45.6875 27.566406 45.53125 27.390625 C 45.371094 27.210938 45.253906 27 45.175781 26.761719 C 45.09375 26.515625 45.054688 26.246094 45.054688 25.957031 C 45.054688 25.660156 45.09375 25.390625 45.175781 25.152344 C 45.261719 24.90625 45.382812 24.699219 45.542969 24.53125 C 45.707031 24.367188 45.90625 24.238281 46.136719 24.140625 C 46.375 24.050781 46.644531 24 46.949219 24 C 47.25 24 47.519531 24.050781 47.757812 24.140625 C 47.996094 24.238281 48.195312 24.371094 48.355469 24.542969 C 48.511719 24.710938 48.628906 24.914062 48.710938 25.152344 C 48.796875 25.390625 48.839844 25.660156 48.839844 25.957031 Z M 48.308594 25.957031 C 48.308594 25.726562 48.28125 25.515625 48.222656 25.324219 C 48.164062 25.136719 48.078125 24.976562 47.964844 24.847656 C 47.847656 24.710938 47.703125 24.605469 47.53125 24.53125 C 47.363281 24.460938 47.167969 24.425781 46.949219 24.425781 C 46.722656 24.425781 46.527344 24.460938 46.351562 24.53125 C 46.179688 24.605469 46.035156 24.710938 45.921875 24.847656 C 45.8125 24.976562 45.730469 25.136719 45.671875 25.324219 C 45.613281 25.515625 45.585938 25.726562 45.585938 25.957031 C 45.585938 26.191406 45.613281 26.402344 45.671875 26.597656 C 45.730469 26.789062 45.816406 26.949219 45.933594 27.085938 C 46.046875 27.226562 46.1875 27.335938 46.351562 27.414062 C 46.527344 27.488281 46.722656 27.523438 46.949219 27.523438 C 47.1875 27.523438 47.390625 27.488281 47.5625 27.414062 C 47.738281 27.335938 47.878906 27.226562 47.984375 27.085938 C 48.09375 26.941406 48.171875 26.777344 48.222656 26.585938 C 48.28125 26.390625 48.308594 26.183594 48.308594 25.957031 Z M 48.308594 25.957031 "/>
<path style=" stroke:none;fill-rule:nonzero;fill:rgb(0%,0%,0%);fill-opacity:1;" d="M 7.628906 28.03125 L 6.648438 26.445312 L 5.457031 26.445312 L 5.457031 28.03125 L 4.9375 28.03125 L 4.9375 24.207031 L 6.734375 24.207031 C 6.949219 24.207031 7.136719 24.234375 7.304688 24.28125 C 7.472656 24.324219 7.613281 24.398438 7.726562 24.488281 C 7.839844 24.585938 7.929688 24.699219 7.988281 24.835938 C 8.042969 24.976562 8.074219 25.128906 8.074219 25.292969 C 8.074219 25.417969 8.054688 25.539062 8.019531 25.664062 C 7.980469 25.78125 7.925781 25.886719 7.847656 25.988281 C 7.773438 26.085938 7.679688 26.167969 7.566406 26.238281 C 7.449219 26.304688 7.308594 26.351562 7.144531 26.378906 L 8.226562 28.03125 Z M 7.554688 25.304688 C 7.554688 25.191406 7.535156 25.085938 7.488281 25 C 7.453125 24.914062 7.394531 24.84375 7.316406 24.792969 C 7.242188 24.738281 7.15625 24.691406 7.046875 24.664062 C 6.9375 24.636719 6.8125 24.621094 6.679688 24.621094 L 5.457031 24.621094 L 5.457031 26.03125 L 6.699219 26.03125 C 6.851562 26.03125 6.980469 26.015625 7.089844 25.976562 C 7.199219 25.941406 7.285156 25.890625 7.347656 25.824219 C 7.417969 25.761719 7.472656 25.683594 7.5 25.597656 C 7.535156 25.503906 7.554688 25.40625 7.554688 25.304688 Z M 7.554688 25.304688 "/>
<path style=" stroke:none;fill-rule:nonzero;fill:rgb(0%,0%,0%);fill-opacity:1;" d="M 9.390625 26.664062 C 9.390625 26.816406 9.40625 26.957031 9.433594 27.085938 C 9.46875 27.21875 9.523438 27.332031 9.585938 27.425781 C 9.652344 27.519531 9.734375 27.59375 9.835938 27.640625 C 9.945312 27.691406 10.066406 27.71875 10.214844 27.71875 C 10.421875 27.71875 10.585938 27.679688 10.710938 27.597656 C 10.839844 27.511719 10.925781 27.402344 10.96875 27.273438 L 11.402344 27.390625 C 11.375 27.472656 11.328125 27.554688 11.273438 27.640625 C 11.214844 27.722656 11.136719 27.792969 11.046875 27.859375 C 10.960938 27.925781 10.847656 27.976562 10.710938 28.023438 C 10.574219 28.066406 10.410156 28.085938 10.214844 28.085938 C 9.78125 28.085938 9.449219 27.957031 9.21875 27.695312 C 8.996094 27.433594 8.882812 27.050781 8.882812 26.542969 C 8.882812 26.269531 8.917969 26.039062 8.980469 25.847656 C 9.050781 25.652344 9.144531 25.496094 9.261719 25.378906 C 9.382812 25.257812 9.523438 25.171875 9.683594 25.121094 C 9.839844 25.0625 10.011719 25.03125 10.191406 25.03125 C 10.433594 25.03125 10.640625 25.074219 10.808594 25.152344 C 10.972656 25.234375 11.101562 25.34375 11.199219 25.488281 C 11.296875 25.628906 11.371094 25.792969 11.414062 25.988281 C 11.457031 26.179688 11.480469 26.378906 11.480469 26.597656 L 11.480469 26.664062 Z M 10.980469 26.292969 C 10.953125 25.984375 10.875 25.757812 10.742188 25.621094 C 10.613281 25.476562 10.425781 25.402344 10.179688 25.402344 C 10.101562 25.402344 10.011719 25.417969 9.921875 25.445312 C 9.835938 25.46875 9.75 25.511719 9.671875 25.574219 C 9.601562 25.640625 9.539062 25.734375 9.488281 25.847656 C 9.4375 25.964844 9.40625 26.113281 9.402344 26.292969 Z M 10.980469 26.292969 "/>
<path style=" stroke:none;fill-rule:nonzero;fill:rgb(0%,0%,0%);fill-opacity:1;" d="M 14.425781 27.21875 C 14.425781 27.355469 14.394531 27.476562 14.335938 27.585938 C 14.285156 27.695312 14.210938 27.789062 14.109375 27.859375 C 14.007812 27.933594 13.882812 27.988281 13.730469 28.03125 C 13.585938 28.066406 13.421875 28.085938 13.234375 28.085938 C 13.0625 28.085938 12.90625 28.070312 12.769531 28.042969 C 12.640625 28.023438 12.519531 27.984375 12.414062 27.925781 C 12.308594 27.867188 12.222656 27.789062 12.152344 27.695312 C 12.089844 27.59375 12.039062 27.476562 12.003906 27.335938 L 12.433594 27.261719 C 12.476562 27.414062 12.566406 27.53125 12.695312 27.609375 C 12.824219 27.683594 13.003906 27.71875 13.234375 27.71875 C 13.335938 27.71875 13.429688 27.710938 13.515625 27.695312 C 13.609375 27.683594 13.683594 27.65625 13.742188 27.621094 C 13.808594 27.585938 13.855469 27.539062 13.894531 27.476562 C 13.929688 27.421875 13.949219 27.347656 13.949219 27.261719 C 13.949219 27.167969 13.925781 27.09375 13.882812 27.042969 C 13.839844 26.988281 13.78125 26.941406 13.710938 26.902344 C 13.636719 26.859375 13.546875 26.824219 13.441406 26.792969 C 13.335938 26.765625 13.222656 26.738281 13.09375 26.707031 C 12.976562 26.671875 12.863281 26.636719 12.75 26.597656 C 12.632812 26.5625 12.527344 26.515625 12.433594 26.457031 C 12.339844 26.390625 12.265625 26.3125 12.207031 26.21875 C 12.148438 26.125 12.121094 26.007812 12.121094 25.871094 C 12.121094 25.601562 12.214844 25.398438 12.402344 25.261719 C 12.597656 25.117188 12.871094 25.042969 13.234375 25.042969 C 13.558594 25.042969 13.8125 25.101562 14.003906 25.21875 C 14.195312 25.335938 14.320312 25.515625 14.371094 25.761719 L 13.925781 25.816406 C 13.910156 25.746094 13.882812 25.683594 13.839844 25.628906 C 13.796875 25.582031 13.742188 25.539062 13.679688 25.511719 C 13.617188 25.476562 13.550781 25.449219 13.472656 25.433594 C 13.398438 25.421875 13.320312 25.414062 13.234375 25.414062 C 13.019531 25.414062 12.855469 25.449219 12.75 25.523438 C 12.644531 25.585938 12.597656 25.683594 12.597656 25.816406 C 12.597656 25.898438 12.613281 25.964844 12.652344 26.023438 C 12.695312 26.074219 12.75 26.117188 12.8125 26.152344 C 12.882812 26.183594 12.96875 26.210938 13.0625 26.238281 C 13.160156 26.269531 13.269531 26.300781 13.386719 26.324219 C 13.464844 26.34375 13.542969 26.363281 13.625 26.390625 C 13.703125 26.414062 13.78125 26.441406 13.863281 26.46875 C 13.941406 26.496094 14.011719 26.53125 14.078125 26.574219 C 14.144531 26.621094 14.199219 26.675781 14.25 26.738281 C 14.300781 26.800781 14.339844 26.867188 14.371094 26.945312 C 14.40625 27.027344 14.425781 27.117188 14.425781 27.21875 Z M 14.425781 27.21875 "/>
<path style=" stroke:none;fill-rule:nonzero;fill:rgb(0%,0%,0%);fill-opacity:1;" d="M 15.101562 24.46875 L 15.101562 24 L 15.585938 24 L 15.585938 24.46875 Z M 15.101562 28.03125 L 15.101562 25.085938 L 15.585938 25.085938 L 15.585938 28.03125 Z M 15.101562 28.03125 "/>
<path style=" stroke:none;fill-rule:nonzero;fill:rgb(0%,0%,0%);fill-opacity:1;" d="M 18.238281 28.03125 L 18.238281 26.164062 C 18.238281 26.027344 18.230469 25.910156 18.207031 25.816406 C 18.191406 25.714844 18.160156 25.636719 18.109375 25.574219 C 18.066406 25.519531 18.003906 25.476562 17.925781 25.457031 C 17.84375 25.429688 17.753906 25.414062 17.644531 25.414062 C 17.527344 25.414062 17.421875 25.433594 17.332031 25.476562 C 17.238281 25.515625 17.160156 25.574219 17.09375 25.652344 C 17.027344 25.734375 16.976562 25.832031 16.941406 25.945312 C 16.90625 26.054688 16.886719 26.183594 16.886719 26.324219 L 16.886719 28.03125 L 16.402344 28.03125 L 16.402344 25.71875 C 16.402344 25.660156 16.394531 25.597656 16.390625 25.53125 C 16.390625 25.460938 16.390625 25.398438 16.390625 25.335938 C 16.390625 25.273438 16.386719 25.21875 16.378906 25.175781 C 16.378906 25.128906 16.378906 25.101562 16.378906 25.085938 L 16.84375 25.085938 C 16.84375 25.101562 16.84375 25.128906 16.84375 25.175781 C 16.84375 25.210938 16.84375 25.253906 16.84375 25.304688 C 16.851562 25.355469 16.855469 25.410156 16.855469 25.46875 C 16.863281 25.519531 16.867188 25.5625 16.867188 25.597656 C 16.914062 25.511719 16.964844 25.433594 17.019531 25.371094 C 17.074219 25.300781 17.140625 25.238281 17.210938 25.195312 C 17.292969 25.148438 17.378906 25.105469 17.472656 25.074219 C 17.5625 25.050781 17.675781 25.03125 17.808594 25.03125 C 17.964844 25.03125 18.101562 25.054688 18.21875 25.097656 C 18.339844 25.136719 18.4375 25.195312 18.511719 25.28125 C 18.589844 25.363281 18.644531 25.472656 18.683594 25.609375 C 18.71875 25.738281 18.738281 25.898438 18.738281 26.074219 L 18.738281 28.03125 Z M 18.238281 28.03125 "/>
<path style=" stroke:none;fill-rule:nonzero;fill:rgb(0%,0%,0%);fill-opacity:1;" d="M 81.726562 74.738281 C 81.511719 74.738281 81.320312 74.773438 81.15625 74.84375 C 80.988281 74.917969 80.847656 75.023438 80.734375 75.160156 C 80.625 75.289062 80.539062 75.449219 80.484375 75.636719 C 80.425781 75.828125 80.398438 76.039062 80.398438 76.269531 C 80.398438 76.503906 80.425781 76.714844 80.484375 76.910156 C 80.550781 77.101562 80.636719 77.261719 80.753906 77.398438 C 80.867188 77.539062 81.007812 77.648438 81.175781 77.726562 C 81.347656 77.800781 81.539062 77.835938 81.75 77.835938 C 81.902344 77.835938 82.03125 77.816406 82.148438 77.78125 C 82.269531 77.738281 82.382812 77.679688 82.484375 77.605469 C 82.585938 77.535156 82.671875 77.449219 82.742188 77.355469 C 82.820312 77.261719 82.890625 77.15625 82.949219 77.03125 L 83.371094 77.246094 C 83.304688 77.394531 83.222656 77.527344 83.121094 77.648438 C 83.019531 77.773438 82.902344 77.882812 82.765625 77.976562 C 82.628906 78.0625 82.472656 78.132812 82.300781 78.183594 C 82.128906 78.230469 81.9375 78.257812 81.726562 78.257812 C 81.417969 78.257812 81.144531 78.210938 80.917969 78.117188 C 80.683594 78.015625 80.488281 77.878906 80.332031 77.703125 C 80.179688 77.523438 80.066406 77.3125 79.988281 77.074219 C 79.90625 76.828125 79.867188 76.558594 79.867188 76.269531 C 79.867188 75.972656 79.90625 75.703125 79.988281 75.464844 C 80.074219 75.21875 80.195312 75.011719 80.355469 74.84375 C 80.511719 74.679688 80.707031 74.550781 80.9375 74.453125 C 81.167969 74.363281 81.429688 74.3125 81.726562 74.3125 C 82.128906 74.3125 82.464844 74.394531 82.734375 74.550781 C 83.007812 74.710938 83.207031 74.949219 83.339844 75.269531 L 82.851562 75.433594 C 82.8125 75.339844 82.765625 75.253906 82.699219 75.171875 C 82.640625 75.085938 82.566406 75.011719 82.472656 74.953125 C 82.378906 74.886719 82.269531 74.839844 82.148438 74.800781 C 82.023438 74.757812 81.882812 74.738281 81.726562 74.738281 Z M 81.726562 74.738281 "/>
<path style=" stroke:none;fill-rule:nonzero;fill:rgb(0%,0%,0%);fill-opacity:1;" d="M 68.527344 84.964844 C 68.527344 85.261719 68.484375 85.535156 68.398438 85.78125 C 68.3125 86.027344 68.183594 86.238281 68.019531 86.410156 C 67.859375 86.585938 67.664062 86.71875 67.425781 86.8125 C 67.195312 86.90625 66.929688 86.953125 66.636719 86.953125 C 66.316406 86.953125 66.042969 86.90625 65.804688 86.8125 C 65.570312 86.710938 65.378906 86.574219 65.21875 86.398438 C 65.0625 86.21875 64.941406 86.007812 64.863281 85.769531 C 64.78125 85.523438 64.746094 85.253906 64.746094 84.964844 C 64.746094 84.667969 64.78125 84.398438 64.863281 84.160156 C 64.949219 83.914062 65.070312 83.710938 65.230469 83.539062 C 65.394531 83.375 65.59375 83.246094 65.824219 83.148438 C 66.0625 83.058594 66.332031 83.007812 66.636719 83.007812 C 66.9375 83.007812 67.210938 83.058594 67.449219 83.148438 C 67.683594 83.246094 67.882812 83.378906 68.042969 83.550781 C 68.199219 83.71875 68.316406 83.921875 68.398438 84.160156 C 68.484375 84.398438 68.527344 84.667969 68.527344 84.964844 Z M 68 84.964844 C 68 84.734375 67.96875 84.523438 67.914062 84.335938 C 67.851562 84.148438 67.765625 83.988281 67.652344 83.855469 C 67.535156 83.71875 67.394531 83.613281 67.21875 83.539062 C 67.054688 83.46875 66.859375 83.433594 66.636719 83.433594 C 66.414062 83.433594 66.214844 83.46875 66.042969 83.539062 C 65.867188 83.613281 65.722656 83.71875 65.609375 83.855469 C 65.5 83.988281 65.417969 84.148438 65.359375 84.335938 C 65.300781 84.523438 65.273438 84.734375 65.273438 84.964844 C 65.273438 85.199219 65.300781 85.410156 65.359375 85.605469 C 65.417969 85.796875 65.503906 85.960938 65.621094 86.09375 C 65.734375 86.234375 65.875 86.34375 66.042969 86.421875 C 66.214844 86.496094 66.414062 86.53125 66.636719 86.53125 C 66.875 86.53125 67.078125 86.496094 67.253906 86.421875 C 67.425781 86.34375 67.566406 86.234375 67.675781 86.09375 C 67.78125 85.949219 67.859375 85.785156 67.914062 85.59375 C 67.96875 85.398438 68 85.191406 68 84.964844 Z M 68 84.964844 "/>
<path style=" stroke:none;fill-rule:nonzero;fill:rgb(0%,0%,0%);fill-opacity:1;" d="M 30.609375 84.226562 C 30.609375 84.394531 30.582031 84.550781 30.523438 84.691406 C 30.464844 84.832031 30.382812 84.953125 30.277344 85.0625 C 30.167969 85.171875 30.03125 85.257812 29.867188 85.324219 C 29.707031 85.382812 29.515625 85.410156 29.292969 85.410156 L 28.179688 85.410156 L 28.179688 86.898438 L 27.660156 86.898438 L 27.660156 83.074219 L 29.261719 83.074219 C 29.488281 83.074219 29.6875 83.101562 29.855469 83.160156 C 30.019531 83.210938 30.15625 83.289062 30.265625 83.386719 C 30.378906 83.492188 30.464844 83.613281 30.523438 83.757812 C 30.582031 83.898438 30.609375 84.050781 30.609375 84.226562 Z M 30.09375 84.226562 C 30.09375 83.988281 30.015625 83.808594 29.867188 83.683594 C 29.71875 83.550781 29.5 83.488281 29.207031 83.488281 L 28.179688 83.488281 L 28.179688 84.996094 L 29.226562 84.996094 C 29.523438 84.996094 29.738281 84.933594 29.875 84.800781 C 30.019531 84.664062 30.09375 84.472656 30.09375 84.226562 Z M 30.09375 84.226562 "/>
<path style=" stroke:none;fill-rule:nonzero;fill:rgb(0%,0%,0%);fill-opacity:1;" d="M 35.09375 84.964844 C 35.09375 85.261719 35.050781 85.535156 34.964844 85.78125 C 34.875 86.027344 34.75 86.238281 34.585938 86.410156 C 34.425781 86.585938 34.226562 86.71875 33.988281 86.8125 C 33.757812 86.90625 33.496094 86.953125 33.199219 86.953125 C 32.882812 86.953125 32.605469 86.90625 32.367188 86.8125 C 32.136719 86.710938 31.941406 86.574219 31.785156 86.398438 C 31.625 86.21875 31.507812 86.007812 31.425781 85.769531 C 31.347656 85.523438 31.308594 85.253906 31.308594 84.964844 C 31.308594 84.667969 31.347656 84.398438 31.425781 84.160156 C 31.515625 83.914062 31.636719 83.710938 31.796875 83.539062 C 31.960938 83.375 32.15625 83.246094 32.390625 83.148438 C 32.628906 83.058594 32.898438 83.007812 33.199219 83.007812 C 33.503906 83.007812 33.773438 83.058594 34.011719 83.148438 C 34.25 83.246094 34.445312 83.378906 34.605469 83.550781 C 34.761719 83.71875 34.882812 83.921875 34.964844 84.160156 C 35.050781 84.398438 35.09375 84.667969 35.09375 84.964844 Z M 34.5625 84.964844 C 34.5625 84.734375 34.535156 84.523438 34.476562 84.335938 C 34.417969 84.148438 34.332031 83.988281 34.21875 83.855469 C 34.101562 83.71875 33.957031 83.613281 33.785156 83.539062 C 33.617188 83.46875 33.421875 83.433594 33.199219 83.433594 C 32.976562 83.433594 32.777344 83.46875 32.605469 83.539062 C 32.433594 83.613281 32.289062 83.71875 32.171875 83.855469 C 32.066406 83.988281 31.980469 84.148438 31.925781 84.335938 C 31.867188 84.523438 31.839844 84.734375 31.839844 84.964844 C 31.839844 85.199219 31.867188 85.410156 31.925781 85.605469 C 31.980469 85.796875 32.066406 85.960938 32.183594 86.09375 C 32.296875 86.234375 32.4375 86.34375 32.605469 86.421875 C 32.777344 86.496094 32.976562 86.53125 33.199219 86.53125 C 33.4375 86.53125 33.644531 86.496094 33.816406 86.421875 C 33.988281 86.34375 34.128906 86.234375 34.238281 86.09375 C 34.347656 85.949219 34.425781 85.785156 34.476562 85.59375 C 34.535156 85.398438 34.5625 85.191406 34.5625 84.964844 Z M 34.5625 84.964844 "/>
<path style=" stroke:none;fill-rule:nonzero;fill:rgb(0%,0%,0%);fill-opacity:1;" d="M 35.984375 86.898438 L 35.984375 83.074219 L 36.503906 83.074219 L 36.503906 86.476562 L 38.429688 86.476562 L 38.429688 86.898438 Z M 35.984375 86.898438 "/>
<path style="fill:none;stroke-width:0.0333333;stroke-linecap:butt;stroke-linejoin:miter;stroke:rgb(0%,0%,0%);stroke-opacity:1;stroke-miterlimit:10;" d="M 4.338541 -0.00482329 L 3.455864 0.504815 " transform="matrix(17.299107,0,0,17.391304,16.986173,17.279196)"/>
<path style="fill:none;stroke-width:0.0333333;stroke-linecap:butt;stroke-linejoin:miter;stroke:rgb(0%,0%,0%);stroke-opacity:1;stroke-miterlimit:10;" d="M 4.321832 -0.00482329 L 5.204509 0.504815 " transform="matrix(17.299107,0,0,17.391304,16.986173,17.279196)"/>
<path style="fill:none;stroke-width:0.0333333;stroke-linecap:butt;stroke-linejoin:miter;stroke:rgb(0%,0%,0%);stroke-opacity:1;stroke-miterlimit:10;" d="M 4.321832 0.187667 L 5.037864 0.600948 " transform="matrix(17.299107,0,0,17.391304,16.986173,17.279196)"/>
<path style="fill:none;stroke-width:0.0333333;stroke-linecap:butt;stroke-linejoin:miter;stroke:rgb(0%,0%,0%);stroke-opacity:1;stroke-miterlimit:10;" d="M 3.464219 0.500099 L 3.464219 1.50006 " transform="matrix(17.299107,0,0,17.391304,16.986173,17.279196)"/>
<path style="fill:none;stroke-width:0.0333333;stroke-linecap:butt;stroke-linejoin:miter;stroke:rgb(0%,0%,0%);stroke-opacity:1;stroke-miterlimit:10;" d="M 3.630864 0.596231 L 3.630864 1.403702 " transform="matrix(17.299107,0,0,17.391304,16.986173,17.279196)"/>
<path style="fill:none;stroke-width:0.0333333;stroke-linecap:butt;stroke-linejoin:miter;stroke:rgb(0%,0%,0%);stroke-opacity:1;stroke-miterlimit:10;" d="M 3.455864 1.495118 L 4.338541 2.004981 " transform="matrix(17.299107,0,0,17.391304,16.986173,17.279196)"/>
<path style="fill:none;stroke-width:0.0333333;stroke-linecap:butt;stroke-linejoin:miter;stroke:rgb(0%,0%,0%);stroke-opacity:1;stroke-miterlimit:10;" d="M 4.321832 2.004981 L 5.204509 1.495118 " transform="matrix(17.299107,0,0,17.391304,16.986173,17.279196)"/>
<path style="fill:none;stroke-width:0.0333333;stroke-linecap:butt;stroke-linejoin:miter;stroke:rgb(0%,0%,0%);stroke-opacity:1;stroke-miterlimit:10;" d="M 4.321832 1.812491 L 5.037864 1.398985 " transform="matrix(17.299107,0,0,17.391304,16.986173,17.279196)"/>
<path style="fill:none;stroke-width:0.0333333;stroke-linecap:butt;stroke-linejoin:miter;stroke:rgb(0%,0%,0%);stroke-opacity:1;stroke-miterlimit:10;" d="M 5.196154 1.509493 L 5.196154 0.49044 " transform="matrix(17.299107,0,0,17.391304,16.986173,17.279196)"/>
<path style="fill:none;stroke-width:0.0333333;stroke-linecap:butt;stroke-linejoin:miter;stroke:rgb(0%,0%,0%);stroke-opacity:1;stroke-miterlimit:10;" d="M 3.472573 1.495118 L 2.706412 1.937599 " transform="matrix(17.299107,0,0,17.391304,16.986173,17.279196)"/>
<path style="fill:none;stroke-width:0.0333333;stroke-linecap:butt;stroke-linejoin:miter;stroke:rgb(0%,0%,0%);stroke-opacity:1;stroke-miterlimit:10;" d="M 3.472573 0.504815 L 2.589896 -0.00482329 " transform="matrix(17.299107,0,0,17.391304,16.986173,17.279196)"/>
<path style="fill:none;stroke-width:0.0333333;stroke-linecap:butt;stroke-linejoin:miter;stroke:rgb(0%,0%,0%);stroke-opacity:1;stroke-miterlimit:10;" d="M 2.60638 -0.00482329 L 1.914509 0.394757 " transform="matrix(17.299107,0,0,17.391304,16.986173,17.279196)"/>
<path style="fill:none;stroke-width:0.0333333;stroke-linecap:butt;stroke-linejoin:miter;stroke:rgb(0%,0%,0%);stroke-opacity:1;stroke-miterlimit:10;" d="M 1.549606 0.394757 L 0.857735 -0.00482329 " transform="matrix(17.299107,0,0,17.391304,16.986173,17.279196)"/>
<path style="fill:none;stroke-width:0.0333333;stroke-linecap:butt;stroke-linejoin:miter;stroke:rgb(0%,0%,0%);stroke-opacity:1;stroke-miterlimit:10;" d="M 0.874444 -0.00482329 L 0.176477 0.398126 " transform="matrix(17.299107,0,0,17.391304,16.986173,17.279196)"/>
<path style="fill:none;stroke-width:0.0333333;stroke-linecap:butt;stroke-linejoin:miter;stroke:rgb(0%,0%,0%);stroke-opacity:1;stroke-miterlimit:10;" d="M 3.559961 3.494815 L 3.052573 3.787481 " transform="matrix(17.299107,0,0,17.391304,16.986173,17.279196)"/>
<path style="fill:none;stroke-width:0.0333333;stroke-linecap:butt;stroke-linejoin:miter;stroke:rgb(0%,0%,0%);stroke-opacity:1;stroke-miterlimit:10;" d="M 2.68767 3.787481 L 1.995799 3.387901 " transform="matrix(17.299107,0,0,17.391304,16.986173,17.279196)"/>
<path style="fill:none;stroke-width:0.0333333;stroke-linecap:butt;stroke-linejoin:miter;stroke:rgb(0%,0%,0%);stroke-opacity:1;stroke-miterlimit:10;" d="M 2.012509 3.387901 L 1.314541 3.791075 " transform="matrix(17.299107,0,0,17.391304,16.986173,17.279196)"/>
</g>
</svg>
