<?xml version="1.0" encoding="UTF-8"?>
<svg xmlns="http://www.w3.org/2000/svg" xmlns:xlink="http://www.w3.org/1999/xlink" width="78.4pt" height="43.2pt" viewBox="0 0 78.4 43.2" version="1.1">
<g id="surface417">
<path style=" stroke:none;fill-rule:nonzero;fill:rgb(0%,0%,0%);fill-opacity:1;" d="M 18.8125 25.773438 C 18.8125 26.070312 18.769531 26.339844 18.683594 26.582031 C 18.597656 26.828125 18.46875 27.039062 18.304688 27.210938 C 18.144531 27.382812 17.949219 27.519531 17.710938 27.609375 C 17.480469 27.703125 17.21875 27.75 16.925781 27.75 C 16.605469 27.75 16.332031 27.703125 16.09375 27.609375 C 15.863281 27.511719 15.667969 27.375 15.511719 27.199219 C 15.351562 27.023438 15.234375 26.8125 15.15625 26.574219 C 15.074219 26.328125 15.039062 26.0625 15.039062 25.773438 C 15.039062 25.476562 15.074219 25.210938 15.15625 24.972656 C 15.242188 24.726562 15.363281 24.523438 15.523438 24.355469 C 15.6875 24.191406 15.882812 24.058594 16.117188 23.964844 C 16.351562 23.875 16.621094 23.824219 16.925781 23.824219 C 17.226562 23.824219 17.496094 23.875 17.734375 23.964844 C 17.96875 24.058594 18.167969 24.191406 18.328125 24.367188 C 18.484375 24.535156 18.601562 24.734375 18.683594 24.972656 C 18.769531 25.210938 18.8125 25.476562 18.8125 25.773438 Z M 18.285156 25.773438 C 18.285156 25.542969 18.253906 25.335938 18.195312 25.144531 C 18.136719 24.957031 18.050781 24.796875 17.9375 24.667969 C 17.824219 24.535156 17.679688 24.429688 17.507812 24.355469 C 17.339844 24.285156 17.144531 24.246094 16.925781 24.246094 C 16.699219 24.246094 16.503906 24.285156 16.332031 24.355469 C 16.160156 24.429688 16.011719 24.535156 15.898438 24.667969 C 15.792969 24.796875 15.707031 24.957031 15.652344 25.144531 C 15.59375 25.335938 15.566406 25.542969 15.566406 25.773438 C 15.566406 26.003906 15.59375 26.214844 15.652344 26.410156 C 15.707031 26.601562 15.796875 26.761719 15.910156 26.898438 C 16.023438 27.035156 16.164062 27.144531 16.332031 27.222656 C 16.503906 27.292969 16.699219 27.328125 16.925781 27.328125 C 17.160156 27.328125 17.367188 27.292969 17.539062 27.222656 C 17.710938 27.144531 17.851562 27.035156 17.960938 26.898438 C 18.066406 26.753906 18.144531 26.589844 18.195312 26.398438 C 18.253906 26.203125 18.285156 25.996094 18.285156 25.773438 Z M 18.285156 25.773438 "/>
<path style=" stroke:none;fill-rule:nonzero;fill:rgb(0%,0%,0%);fill-opacity:1;" d="M 61.855469 15.59375 C 61.640625 15.59375 61.449219 15.632812 61.285156 15.703125 C 61.117188 15.773438 60.976562 15.878906 60.863281 16.015625 C 60.757812 16.144531 60.671875 16.304688 60.617188 16.492188 C 60.558594 16.679688 60.53125 16.886719 60.53125 17.117188 C 60.53125 17.351562 60.558594 17.5625 60.617188 17.757812 C 60.679688 17.945312 60.769531 18.109375 60.886719 18.242188 C 61 18.382812 61.140625 18.488281 61.304688 18.566406 C 61.480469 18.640625 61.667969 18.675781 61.878906 18.675781 C 62.027344 18.675781 62.160156 18.660156 62.277344 18.621094 C 62.398438 18.578125 62.507812 18.523438 62.613281 18.449219 C 62.710938 18.378906 62.796875 18.292969 62.871094 18.199219 C 62.949219 18.109375 63.015625 18 63.074219 17.875 L 63.496094 18.09375 C 63.429688 18.238281 63.347656 18.371094 63.246094 18.492188 C 63.144531 18.617188 63.027344 18.726562 62.890625 18.816406 C 62.753906 18.902344 62.601562 18.972656 62.429688 19.023438 C 62.253906 19.070312 62.0625 19.097656 61.855469 19.097656 C 61.546875 19.097656 61.277344 19.050781 61.046875 18.957031 C 60.816406 18.855469 60.621094 18.71875 60.464844 18.546875 C 60.316406 18.367188 60.199219 18.15625 60.121094 17.917969 C 60.039062 17.675781 60 17.40625 60 17.117188 C 60 16.824219 60.039062 16.554688 60.121094 16.316406 C 60.207031 16.074219 60.328125 15.867188 60.488281 15.703125 C 60.644531 15.535156 60.835938 15.40625 61.070312 15.3125 C 61.296875 15.21875 61.558594 15.171875 61.855469 15.171875 C 62.257812 15.171875 62.59375 15.253906 62.859375 15.410156 C 63.132812 15.570312 63.332031 15.808594 63.464844 16.125 L 62.976562 16.285156 C 62.941406 16.195312 62.890625 16.105469 62.828125 16.027344 C 62.769531 15.9375 62.691406 15.867188 62.601562 15.808594 C 62.507812 15.746094 62.398438 15.695312 62.277344 15.65625 C 62.152344 15.613281 62.011719 15.59375 61.855469 15.59375 Z M 61.855469 15.59375 "/>
<path style="fill:none;stroke-width:0.0333333;stroke-linecap:butt;stroke-linejoin:miter;stroke:rgb(0%,0%,0%);stroke-opacity:1;stroke-miterlimit:10;" d="M 0.182522 0.394636 L 0.874409 -0.00484267 " transform="matrix(17.253521,0,0,17.307692,16.925079,17.134597)"/>
<path style="fill:none;stroke-width:0.0333333;stroke-linecap:butt;stroke-linejoin:miter;stroke:rgb(0%,0%,0%);stroke-opacity:1;stroke-miterlimit:10;" d="M 0.857656 -0.00484267 L 1.740175 0.504775 " transform="matrix(17.253521,0,0,17.307692,16.925079,17.134597)"/>
<path style="fill:none;stroke-width:0.0333333;stroke-linecap:butt;stroke-linejoin:miter;stroke:rgb(0%,0%,0%);stroke-opacity:1;stroke-miterlimit:10;" d="M 1.723647 0.504775 L 2.421648 0.101685 " transform="matrix(17.253521,0,0,17.307692,16.925079,17.134597)"/>
</g>
</svg>
