<?xml version="1.0" encoding="UTF-8"?>
<svg xmlns="http://www.w3.org/2000/svg" xmlns:xlink="http://www.w3.org/1999/xlink" width="97.6pt" height="85.6pt" viewBox="0 0 97.6 85.6" version="1.1">
<g id="surface267">
<path style=" stroke:none;fill-rule:nonzero;fill:rgb(0%,0%,0%);fill-opacity:1;" d="M 49.796875 61.664062 L 47.75 58.425781 C 47.757812 58.511719 47.761719 58.597656 47.761719 58.683594 C 47.765625 58.757812 47.773438 58.835938 47.773438 58.921875 C 47.777344 59.003906 47.785156 59.074219 47.785156 59.136719 L 47.785156 61.664062 L 47.316406 61.664062 L 47.316406 57.867188 L 47.925781 57.867188 L 49.980469 61.125 C 49.980469 61.125 49.976562 61.035156 49.972656 60.855469 C 49.964844 60.785156 49.957031 60.703125 49.949219 60.617188 C 49.949219 60.523438 49.949219 60.4375 49.949219 60.355469 L 49.949219 57.867188 L 50.414062 57.867188 L 50.414062 61.664062 Z M 49.796875 61.664062 "/>
<path style=" stroke:none;fill-rule:nonzero;fill:rgb(0%,0%,0%);fill-opacity:1;" d="M 63.984375 66.855469 C 63.765625 66.855469 63.574219 66.894531 63.410156 66.964844 C 63.242188 67.035156 63.101562 67.140625 62.988281 67.277344 C 62.878906 67.40625 62.796875 67.566406 62.738281 67.75 C 62.679688 67.941406 62.652344 68.148438 62.652344 68.378906 C 62.652344 68.609375 62.679688 68.820312 62.738281 69.011719 C 62.804688 69.203125 62.894531 69.363281 63.007812 69.5 C 63.121094 69.636719 63.265625 69.746094 63.429688 69.824219 C 63.605469 69.894531 63.792969 69.929688 64.003906 69.929688 C 64.15625 69.929688 64.289062 69.914062 64.40625 69.875 C 64.527344 69.832031 64.640625 69.777344 64.742188 69.703125 C 64.84375 69.632812 64.929688 69.550781 65.003906 69.457031 C 65.082031 69.363281 65.148438 69.257812 65.207031 69.132812 L 65.628906 69.347656 C 65.566406 69.492188 65.480469 69.625 65.382812 69.746094 C 65.277344 69.871094 65.160156 69.980469 65.023438 70.070312 C 64.886719 70.15625 64.730469 70.226562 64.558594 70.273438 C 64.382812 70.324219 64.191406 70.351562 63.984375 70.351562 C 63.671875 70.351562 63.402344 70.300781 63.171875 70.210938 C 62.9375 70.109375 62.742188 69.972656 62.585938 69.800781 C 62.433594 69.621094 62.320312 69.414062 62.238281 69.175781 C 62.160156 68.933594 62.121094 68.664062 62.121094 68.378906 C 62.121094 68.082031 62.160156 67.816406 62.238281 67.578125 C 62.328125 67.335938 62.449219 67.132812 62.609375 66.964844 C 62.765625 66.800781 62.960938 66.671875 63.191406 66.574219 C 63.421875 66.484375 63.6875 66.433594 63.984375 66.433594 C 64.386719 66.433594 64.722656 66.515625 64.992188 66.671875 C 65.265625 66.832031 65.46875 67.070312 65.597656 67.382812 L 65.109375 67.546875 C 65.074219 67.453125 65.023438 67.367188 64.957031 67.289062 C 64.898438 67.203125 64.824219 67.132812 64.730469 67.070312 C 64.636719 67.007812 64.527344 66.957031 64.40625 66.921875 C 64.28125 66.878906 64.140625 66.855469 63.984375 66.855469 Z M 63.984375 66.855469 "/>
<path style="fill:none;stroke-width:0.0333333;stroke-linecap:butt;stroke-linejoin:miter;stroke:rgb(0%,0%,0%);stroke-opacity:1;stroke-miterlimit:10;" d="M 1.832017 1.466019 L 2.697817 0.966026 " transform="matrix(17.329545,0,0,17.258065,17.123065,17.207159)"/>
<path style="fill:none;stroke-width:0.0333333;stroke-linecap:butt;stroke-linejoin:miter;stroke:rgb(0%,0%,0%);stroke-opacity:1;stroke-miterlimit:10;" d="M 1.832017 1.466019 L 0.965993 0.966026 " transform="matrix(17.329545,0,0,17.258065,17.123065,17.207159)"/>
<path style="fill:none;stroke-width:0.0333333;stroke-linecap:butt;stroke-linejoin:miter;stroke:rgb(0%,0%,0%);stroke-opacity:1;stroke-miterlimit:10;" d="M 1.832017 1.466019 L 1.832017 2.312544 " transform="matrix(17.329545,0,0,17.258065,17.123065,17.207159)"/>
<path style="fill:none;stroke-width:0.0333333;stroke-linecap:butt;stroke-linejoin:miter;stroke:rgb(0%,0%,0%);stroke-opacity:1;stroke-miterlimit:10;" d="M 1.997919 2.561748 L 2.521546 2.864143 " transform="matrix(17.329545,0,0,17.258065,17.123065,17.207159)"/>
<path style="fill:none;stroke-width:0.06;stroke-linecap:butt;stroke-linejoin:miter;stroke:rgb(0%,0%,47.058824%);stroke-opacity:1;stroke-miterlimit:10;" d="M 0.965993 0.966026 L 0.000111681 1.224737 " transform="matrix(17.329545,0,0,17.258065,17.123065,17.207159)"/>
<path style="fill:none;stroke-width:0.06;stroke-linecap:butt;stroke-linejoin:miter;stroke:rgb(0%,0%,47.058824%);stroke-opacity:1;stroke-miterlimit:10;" d="M 0.965993 0.966026 L 0.258882 0.258703 " transform="matrix(17.329545,0,0,17.258065,17.123065,17.207159)"/>
<path style="fill:none;stroke-width:0.06;stroke-linecap:butt;stroke-linejoin:miter;stroke:rgb(0%,0%,47.058824%);stroke-opacity:1;stroke-miterlimit:10;" d="M 0.258882 0.258703 L 0.000111681 1.224737 " transform="matrix(17.329545,0,0,17.258065,17.123065,17.207159)"/>
<path style="fill:none;stroke-width:0.06;stroke-linecap:butt;stroke-linejoin:miter;stroke:rgb(0%,0%,47.058824%);stroke-opacity:1;stroke-miterlimit:10;" d="M 2.697817 0.966026 L 2.956813 -0.00000738776 " transform="matrix(17.329545,0,0,17.258065,17.123065,17.207159)"/>
<path style="fill:none;stroke-width:0.06;stroke-linecap:butt;stroke-linejoin:miter;stroke:rgb(0%,0%,47.058824%);stroke-opacity:1;stroke-miterlimit:10;" d="M 2.956813 -0.00000738776 L 3.663698 0.70709 " transform="matrix(17.329545,0,0,17.258065,17.123065,17.207159)"/>
<path style="fill:none;stroke-width:0.06;stroke-linecap:butt;stroke-linejoin:miter;stroke:rgb(0%,0%,47.058824%);stroke-opacity:1;stroke-miterlimit:10;" d="M 3.663698 0.70709 L 2.697817 0.966026 " transform="matrix(17.329545,0,0,17.258065,17.123065,17.207159)"/>
</g>
</svg>
