<?xml version="1.0" encoding="UTF-8"?>
<svg xmlns="http://www.w3.org/2000/svg" xmlns:xlink="http://www.w3.org/1999/xlink" width="184.8pt" height="91.2pt" viewBox="0 0 184.8 91.2" version="1.1">
<g id="surface202">
<path style=" stroke:none;fill-rule:nonzero;fill:rgb(0%,0%,0%);fill-opacity:1;" d="M 18.765625 26.714844 C 18.765625 26.875 18.734375 27.023438 18.667969 27.160156 C 18.609375 27.289062 18.515625 27.402344 18.386719 27.503906 C 18.253906 27.605469 18.085938 27.683594 17.886719 27.742188 C 17.691406 27.789062 17.457031 27.816406 17.191406 27.816406 C 16.714844 27.816406 16.34375 27.734375 16.078125 27.570312 C 15.808594 27.402344 15.636719 27.164062 15.566406 26.84375 L 16.078125 26.75 C 16.097656 26.851562 16.132812 26.941406 16.183594 27.019531 C 16.242188 27.097656 16.316406 27.167969 16.402344 27.234375 C 16.488281 27.292969 16.597656 27.339844 16.726562 27.375 C 16.863281 27.402344 17.023438 27.417969 17.203125 27.417969 C 17.359375 27.417969 17.503906 27.402344 17.625 27.375 C 17.757812 27.347656 17.867188 27.308594 17.960938 27.253906 C 18.054688 27.199219 18.128906 27.132812 18.179688 27.050781 C 18.226562 26.964844 18.253906 26.863281 18.253906 26.738281 C 18.253906 26.617188 18.226562 26.515625 18.167969 26.433594 C 18.109375 26.355469 18.03125 26.292969 17.929688 26.242188 C 17.828125 26.191406 17.707031 26.152344 17.5625 26.121094 C 17.414062 26.085938 17.257812 26.046875 17.085938 26.003906 C 16.976562 25.980469 16.867188 25.957031 16.757812 25.929688 C 16.65625 25.902344 16.554688 25.867188 16.457031 25.832031 C 16.351562 25.796875 16.261719 25.753906 16.175781 25.703125 C 16.085938 25.644531 16.011719 25.578125 15.945312 25.507812 C 15.886719 25.4375 15.839844 25.351562 15.804688 25.257812 C 15.769531 25.160156 15.75 25.046875 15.75 24.925781 C 15.75 24.746094 15.785156 24.589844 15.859375 24.460938 C 15.929688 24.332031 16.035156 24.226562 16.164062 24.148438 C 16.292969 24.058594 16.445312 24 16.617188 23.964844 C 16.796875 23.921875 16.992188 23.898438 17.203125 23.898438 C 17.433594 23.898438 17.632812 23.921875 17.800781 23.964844 C 17.972656 24 18.117188 24.054688 18.234375 24.125 C 18.347656 24.199219 18.441406 24.285156 18.503906 24.394531 C 18.574219 24.503906 18.636719 24.628906 18.679688 24.773438 L 18.167969 24.871094 C 18.140625 24.777344 18.097656 24.695312 18.050781 24.621094 C 18.007812 24.550781 17.945312 24.488281 17.867188 24.4375 C 17.792969 24.390625 17.699219 24.351562 17.582031 24.332031 C 17.476562 24.304688 17.34375 24.285156 17.191406 24.285156 C 17.019531 24.285156 16.871094 24.304688 16.75 24.339844 C 16.625 24.371094 16.527344 24.414062 16.457031 24.46875 C 16.382812 24.523438 16.328125 24.582031 16.292969 24.652344 C 16.265625 24.726562 16.25 24.804688 16.25 24.890625 C 16.25 25.007812 16.277344 25.101562 16.335938 25.171875 C 16.394531 25.246094 16.46875 25.308594 16.566406 25.355469 C 16.664062 25.40625 16.78125 25.449219 16.910156 25.484375 C 17.042969 25.515625 17.175781 25.542969 17.324219 25.570312 C 17.4375 25.601562 17.554688 25.632812 17.671875 25.65625 C 17.785156 25.6875 17.898438 25.71875 18.007812 25.753906 C 18.113281 25.792969 18.210938 25.839844 18.300781 25.894531 C 18.390625 25.945312 18.472656 26.011719 18.539062 26.089844 C 18.609375 26.164062 18.660156 26.25 18.699219 26.347656 C 18.742188 26.453125 18.765625 26.574219 18.765625 26.714844 Z M 18.765625 26.714844 "/>
<path style=" stroke:none;fill-rule:nonzero;fill:rgb(0%,0%,0%);fill-opacity:1;" d="M 167.460938 24.320312 C 167.246094 24.320312 167.054688 24.355469 166.886719 24.425781 C 166.71875 24.5 166.578125 24.605469 166.464844 24.742188 C 166.355469 24.871094 166.273438 25.027344 166.214844 25.214844 C 166.15625 25.40625 166.128906 25.613281 166.128906 25.839844 C 166.128906 26.074219 166.15625 26.285156 166.214844 26.480469 C 166.28125 26.667969 166.371094 26.828125 166.488281 26.964844 C 166.601562 27.101562 166.742188 27.210938 166.910156 27.289062 C 167.082031 27.359375 167.273438 27.394531 167.484375 27.394531 C 167.636719 27.394531 167.769531 27.378906 167.882812 27.34375 C 168.007812 27.300781 168.117188 27.242188 168.222656 27.167969 C 168.320312 27.097656 168.40625 27.015625 168.480469 26.921875 C 168.558594 26.828125 168.628906 26.722656 168.6875 26.597656 L 169.109375 26.8125 C 169.042969 26.957031 168.960938 27.089844 168.859375 27.210938 C 168.757812 27.335938 168.636719 27.445312 168.503906 27.535156 C 168.363281 27.621094 168.210938 27.691406 168.035156 27.742188 C 167.863281 27.789062 167.671875 27.816406 167.460938 27.816406 C 167.148438 27.816406 166.878906 27.769531 166.648438 27.675781 C 166.417969 27.578125 166.222656 27.4375 166.0625 27.265625 C 165.910156 27.089844 165.796875 26.878906 165.71875 26.640625 C 165.636719 26.398438 165.597656 26.128906 165.597656 25.839844 C 165.597656 25.546875 165.636719 25.28125 165.71875 25.042969 C 165.804688 24.800781 165.925781 24.59375 166.085938 24.425781 C 166.242188 24.261719 166.4375 24.132812 166.671875 24.039062 C 166.902344 23.945312 167.164062 23.898438 167.460938 23.898438 C 167.867188 23.898438 168.203125 23.980469 168.46875 24.136719 C 168.742188 24.296875 168.945312 24.53125 169.078125 24.847656 L 168.589844 25.011719 C 168.550781 24.917969 168.503906 24.832031 168.4375 24.75 C 168.378906 24.664062 168.300781 24.59375 168.210938 24.535156 C 168.113281 24.46875 168.007812 24.421875 167.882812 24.382812 C 167.761719 24.339844 167.621094 24.320312 167.460938 24.320312 Z M 167.460938 24.320312 "/>
<path style=" stroke:none;fill-rule:nonzero;fill:rgb(0%,0%,0%);fill-opacity:1;" d="M 48.171875 73.960938 C 48.171875 74.257812 48.128906 74.527344 48.042969 74.769531 C 47.957031 75.015625 47.828125 75.222656 47.664062 75.394531 C 47.503906 75.566406 47.308594 75.703125 47.066406 75.792969 C 46.835938 75.886719 46.574219 75.933594 46.277344 75.933594 C 45.957031 75.933594 45.679688 75.886719 45.441406 75.792969 C 45.210938 75.695312 45.015625 75.558594 44.855469 75.382812 C 44.695312 75.207031 44.578125 74.996094 44.5 74.757812 C 44.417969 74.515625 44.378906 74.25 44.378906 73.960938 C 44.378906 73.664062 44.417969 73.398438 44.5 73.160156 C 44.585938 72.917969 44.707031 72.710938 44.867188 72.546875 C 45.03125 72.378906 45.230469 72.25 45.464844 72.15625 C 45.703125 72.066406 45.972656 72.015625 46.277344 72.015625 C 46.582031 72.015625 46.851562 72.066406 47.089844 72.15625 C 47.328125 72.25 47.527344 72.382812 47.6875 72.554688 C 47.84375 72.722656 47.960938 72.921875 48.042969 73.160156 C 48.128906 73.398438 48.171875 73.664062 48.171875 73.960938 Z M 47.644531 73.960938 C 47.644531 73.730469 47.613281 73.523438 47.554688 73.332031 C 47.496094 73.148438 47.410156 72.988281 47.296875 72.859375 C 47.179688 72.722656 47.035156 72.617188 46.863281 72.546875 C 46.695312 72.476562 46.5 72.4375 46.277344 72.4375 C 46.050781 72.4375 45.855469 72.476562 45.679688 72.546875 C 45.507812 72.617188 45.359375 72.722656 45.246094 72.859375 C 45.140625 72.988281 45.054688 73.148438 44.996094 73.332031 C 44.9375 73.523438 44.910156 73.730469 44.910156 73.960938 C 44.910156 74.191406 44.9375 74.402344 44.996094 74.597656 C 45.054688 74.785156 45.140625 74.949219 45.257812 75.082031 C 45.371094 75.21875 45.511719 75.328125 45.679688 75.40625 C 45.855469 75.480469 46.050781 75.515625 46.277344 75.515625 C 46.515625 75.515625 46.722656 75.480469 46.894531 75.40625 C 47.066406 75.328125 47.210938 75.21875 47.316406 75.082031 C 47.425781 74.9375 47.503906 74.773438 47.554688 74.585938 C 47.613281 74.390625 47.644531 74.183594 47.644531 73.960938 Z M 47.644531 73.960938 "/>
<path style=" stroke:none;fill-rule:nonzero;fill:rgb(0%,0%,0%);fill-opacity:1;" d="M 92.929688 66.199219 C 92.929688 66.355469 92.898438 66.503906 92.832031 66.640625 C 92.773438 66.769531 92.679688 66.886719 92.550781 66.984375 C 92.421875 67.089844 92.253906 67.167969 92.050781 67.222656 C 91.859375 67.273438 91.625 67.300781 91.359375 67.300781 C 90.882812 67.300781 90.507812 67.21875 90.242188 67.050781 C 89.972656 66.886719 89.804688 66.644531 89.734375 66.328125 L 90.242188 66.230469 C 90.265625 66.332031 90.300781 66.421875 90.351562 66.5 C 90.40625 66.582031 90.480469 66.652344 90.566406 66.714844 C 90.65625 66.773438 90.761719 66.820312 90.894531 66.855469 C 91.027344 66.886719 91.1875 66.898438 91.371094 66.898438 C 91.527344 66.898438 91.667969 66.886719 91.792969 66.855469 C 91.921875 66.828125 92.035156 66.789062 92.128906 66.738281 C 92.21875 66.679688 92.292969 66.613281 92.34375 66.53125 C 92.394531 66.445312 92.421875 66.34375 92.421875 66.21875 C 92.421875 66.097656 92.390625 65.996094 92.335938 65.917969 C 92.273438 65.839844 92.195312 65.773438 92.097656 65.722656 C 91.992188 65.675781 91.871094 65.632812 91.726562 65.605469 C 91.582031 65.570312 91.425781 65.527344 91.25 65.484375 C 91.140625 65.464844 91.035156 65.4375 90.925781 65.410156 C 90.824219 65.382812 90.722656 65.351562 90.621094 65.3125 C 90.519531 65.277344 90.425781 65.234375 90.339844 65.183594 C 90.253906 65.125 90.175781 65.0625 90.113281 64.988281 C 90.054688 64.917969 90.007812 64.835938 89.972656 64.742188 C 89.933594 64.640625 89.917969 64.53125 89.917969 64.40625 C 89.917969 64.226562 89.953125 64.070312 90.027344 63.941406 C 90.097656 63.8125 90.199219 63.710938 90.328125 63.628906 C 90.460938 63.542969 90.609375 63.484375 90.785156 63.445312 C 90.964844 63.402344 91.160156 63.378906 91.371094 63.378906 C 91.601562 63.378906 91.796875 63.402344 91.964844 63.445312 C 92.140625 63.484375 92.28125 63.535156 92.398438 63.605469 C 92.511719 63.679688 92.605469 63.769531 92.671875 63.875 C 92.742188 63.984375 92.800781 64.113281 92.84375 64.253906 L 92.335938 64.351562 C 92.304688 64.261719 92.265625 64.175781 92.214844 64.101562 C 92.171875 64.035156 92.109375 63.972656 92.03125 63.917969 C 91.957031 63.871094 91.863281 63.832031 91.75 63.8125 C 91.640625 63.785156 91.511719 63.769531 91.359375 63.769531 C 91.183594 63.769531 91.035156 63.789062 90.914062 63.824219 C 90.789062 63.851562 90.691406 63.894531 90.621094 63.953125 C 90.546875 64.003906 90.496094 64.066406 90.460938 64.136719 C 90.429688 64.207031 90.414062 64.285156 90.414062 64.375 C 90.414062 64.488281 90.441406 64.582031 90.503906 64.652344 C 90.558594 64.726562 90.636719 64.789062 90.730469 64.835938 C 90.832031 64.890625 90.945312 64.933594 91.078125 64.96875 C 91.207031 64.996094 91.34375 65.027344 91.488281 65.054688 C 91.601562 65.082031 91.71875 65.113281 91.835938 65.140625 C 91.949219 65.167969 92.0625 65.203125 92.171875 65.238281 C 92.28125 65.273438 92.378906 65.320312 92.464844 65.378906 C 92.554688 65.429688 92.636719 65.492188 92.703125 65.570312 C 92.773438 65.644531 92.828125 65.730469 92.867188 65.832031 C 92.910156 65.933594 92.929688 66.054688 92.929688 66.199219 Z M 92.929688 66.199219 "/>
<path style=" stroke:none;fill-rule:nonzero;fill:rgb(0%,0%,0%);fill-opacity:1;" d="M 138.285156 73.960938 C 138.285156 74.257812 138.242188 74.527344 138.15625 74.769531 C 138.070312 75.015625 137.941406 75.222656 137.777344 75.394531 C 137.617188 75.566406 137.417969 75.703125 137.179688 75.792969 C 136.949219 75.886719 136.683594 75.933594 136.390625 75.933594 C 136.070312 75.933594 135.792969 75.886719 135.554688 75.792969 C 135.320312 75.695312 135.125 75.558594 134.96875 75.382812 C 134.808594 75.207031 134.691406 74.996094 134.613281 74.757812 C 134.53125 74.515625 134.492188 74.25 134.492188 73.960938 C 134.492188 73.664062 134.53125 73.398438 134.613281 73.160156 C 134.699219 72.917969 134.820312 72.710938 134.980469 72.546875 C 135.144531 72.378906 135.34375 72.25 135.578125 72.15625 C 135.816406 72.066406 136.085938 72.015625 136.390625 72.015625 C 136.691406 72.015625 136.964844 72.066406 137.203125 72.15625 C 137.441406 72.25 137.636719 72.382812 137.796875 72.554688 C 137.957031 72.722656 138.074219 72.921875 138.15625 73.160156 C 138.242188 73.398438 138.285156 73.664062 138.285156 73.960938 Z M 137.753906 73.960938 C 137.753906 73.730469 137.726562 73.523438 137.667969 73.332031 C 137.609375 73.148438 137.523438 72.988281 137.410156 72.859375 C 137.292969 72.722656 137.148438 72.617188 136.976562 72.546875 C 136.808594 72.476562 136.613281 72.4375 136.390625 72.4375 C 136.164062 72.4375 135.964844 72.476562 135.792969 72.546875 C 135.621094 72.617188 135.472656 72.722656 135.359375 72.859375 C 135.25 72.988281 135.167969 73.148438 135.109375 73.332031 C 135.050781 73.523438 135.023438 73.730469 135.023438 73.960938 C 135.023438 74.191406 135.050781 74.402344 135.109375 74.597656 C 135.167969 74.785156 135.253906 74.949219 135.371094 75.082031 C 135.484375 75.21875 135.625 75.328125 135.792969 75.40625 C 135.964844 75.480469 136.164062 75.515625 136.390625 75.515625 C 136.628906 75.515625 136.832031 75.480469 137.007812 75.40625 C 137.179688 75.328125 137.320312 75.21875 137.429688 75.082031 C 137.539062 74.9375 137.617188 74.773438 137.667969 74.585938 C 137.726562 74.390625 137.753906 74.183594 137.753906 73.960938 Z M 137.753906 73.960938 "/>
<path style=" stroke:none;fill-rule:nonzero;fill:rgb(0%,0%,0%);fill-opacity:1;" d="M 93.230469 48.050781 C 93.230469 48.347656 93.183594 48.617188 93.097656 48.859375 C 93.011719 49.105469 92.882812 49.3125 92.71875 49.488281 C 92.558594 49.660156 92.363281 49.792969 92.125 49.886719 C 91.890625 49.976562 91.628906 50.027344 91.332031 50.027344 C 91.011719 50.027344 90.734375 49.976562 90.496094 49.886719 C 90.265625 49.785156 90.070312 49.648438 89.910156 49.476562 C 89.753906 49.296875 89.632812 49.085938 89.554688 48.847656 C 89.472656 48.605469 89.433594 48.339844 89.433594 48.050781 C 89.433594 47.757812 89.472656 47.488281 89.554688 47.25 C 89.640625 47.007812 89.761719 46.804688 89.921875 46.636719 C 90.089844 46.472656 90.285156 46.34375 90.519531 46.246094 C 90.757812 46.15625 91.027344 46.105469 91.332031 46.105469 C 91.636719 46.105469 91.90625 46.15625 92.144531 46.246094 C 92.382812 46.34375 92.582031 46.472656 92.742188 46.648438 C 92.898438 46.816406 93.015625 47.015625 93.097656 47.25 C 93.183594 47.488281 93.230469 47.757812 93.230469 48.050781 Z M 92.699219 48.050781 C 92.699219 47.820312 92.667969 47.613281 92.609375 47.425781 C 92.550781 47.238281 92.464844 47.078125 92.351562 46.949219 C 92.234375 46.816406 92.089844 46.710938 91.917969 46.636719 C 91.75 46.566406 91.554688 46.527344 91.332031 46.527344 C 91.105469 46.527344 90.910156 46.566406 90.734375 46.636719 C 90.5625 46.710938 90.414062 46.816406 90.300781 46.949219 C 90.195312 47.078125 90.109375 47.238281 90.054688 47.425781 C 89.992188 47.613281 89.964844 47.820312 89.964844 48.050781 C 89.964844 48.28125 89.992188 48.492188 90.054688 48.6875 C 90.109375 48.875 90.195312 49.039062 90.3125 49.171875 C 90.425781 49.3125 90.566406 49.417969 90.734375 49.496094 C 90.910156 49.570312 91.105469 49.605469 91.332031 49.605469 C 91.570312 49.605469 91.777344 49.570312 91.949219 49.496094 C 92.125 49.417969 92.265625 49.3125 92.371094 49.171875 C 92.480469 49.03125 92.558594 48.867188 92.609375 48.675781 C 92.667969 48.480469 92.699219 48.273438 92.699219 48.050781 Z M 92.699219 48.050781 "/>
<path style="fill:none;stroke-width:0.0333333;stroke-linecap:butt;stroke-linejoin:miter;stroke:rgb(0%,0%,0%);stroke-opacity:1;stroke-miterlimit:10;" d="M 0.169432 0.40204 L 0.874219 -0.00480623 " transform="matrix(17.342342,0,0,17.272727,17.167119,17.223642)"/>
<path style="fill:none;stroke-width:0.0333333;stroke-linecap:butt;stroke-linejoin:miter;stroke:rgb(0%,0%,0%);stroke-opacity:1;stroke-miterlimit:10;" d="M 0.857776 -0.00480623 L 1.74028 0.504939 " transform="matrix(17.342342,0,0,17.272727,17.167119,17.223642)"/>
<path style="fill:none;stroke-width:0.0333333;stroke-linecap:butt;stroke-linejoin:miter;stroke:rgb(0%,0%,0%);stroke-opacity:1;stroke-miterlimit:10;" d="M 1.723612 0.504939 L 2.606342 -0.00480623 " transform="matrix(17.342342,0,0,17.272727,17.167119,17.223642)"/>
<path style="fill:none;stroke-width:0.0333333;stroke-linecap:butt;stroke-linejoin:miter;stroke:rgb(0%,0%,0%);stroke-opacity:1;stroke-miterlimit:10;" d="M 2.589899 -0.00480623 L 3.472403 0.504939 " transform="matrix(17.342342,0,0,17.272727,17.167119,17.223642)"/>
<path style="fill:none;stroke-width:0.0333333;stroke-linecap:butt;stroke-linejoin:miter;stroke:rgb(0%,0%,0%);stroke-opacity:1;stroke-miterlimit:10;" d="M 3.455735 0.504939 L 4.338464 -0.00480623 " transform="matrix(17.342342,0,0,17.272727,17.167119,17.223642)"/>
<path style="fill:none;stroke-width:0.0333333;stroke-linecap:butt;stroke-linejoin:miter;stroke:rgb(0%,0%,0%);stroke-opacity:1;stroke-miterlimit:10;" d="M 4.321796 -0.00480623 L 5.204525 0.504939 " transform="matrix(17.342342,0,0,17.272727,17.167119,17.223642)"/>
<path style="fill:none;stroke-width:0.0333333;stroke-linecap:butt;stroke-linejoin:miter;stroke:rgb(0%,0%,0%);stroke-opacity:1;stroke-miterlimit:10;" d="M 5.187857 0.504939 L 6.070361 -0.00480623 " transform="matrix(17.342342,0,0,17.272727,17.167119,17.223642)"/>
<path style="fill:none;stroke-width:0.0333333;stroke-linecap:butt;stroke-linejoin:miter;stroke:rgb(0%,0%,0%);stroke-opacity:1;stroke-miterlimit:10;" d="M 6.053919 -0.00480623 L 6.936423 0.504939 " transform="matrix(17.342342,0,0,17.272727,17.167119,17.223642)"/>
<path style="fill:none;stroke-width:0.0333333;stroke-linecap:butt;stroke-linejoin:miter;stroke:rgb(0%,0%,0%);stroke-opacity:1;stroke-miterlimit:10;" d="M 6.91998 0.504939 L 7.802484 -0.00480623 " transform="matrix(17.342342,0,0,17.272727,17.167119,17.223642)"/>
<path style="fill:none;stroke-width:0.0333333;stroke-linecap:butt;stroke-linejoin:miter;stroke:rgb(0%,0%,0%);stroke-opacity:1;stroke-miterlimit:10;" d="M 7.785816 -0.00480623 L 8.483846 0.398195 " transform="matrix(17.342342,0,0,17.272727,17.167119,17.223642)"/>
<path style="fill:none;stroke-width:0.0333333;stroke-linecap:butt;stroke-linejoin:miter;stroke:rgb(0%,0%,0%);stroke-opacity:1;stroke-miterlimit:10;" d="M 1.860786 3.180309 L 2.552959 2.7807 " transform="matrix(17.342342,0,0,17.272727,17.167119,17.223642)"/>
<path style="fill:none;stroke-width:0.0333333;stroke-linecap:butt;stroke-linejoin:miter;stroke:rgb(0%,0%,0%);stroke-opacity:1;stroke-miterlimit:10;" d="M 2.536291 2.7807 L 3.41902 3.290445 " transform="matrix(17.342342,0,0,17.272727,17.167119,17.223642)"/>
<path style="fill:none;stroke-width:0.0333333;stroke-linecap:butt;stroke-linejoin:miter;stroke:rgb(0%,0%,0%);stroke-opacity:1;stroke-miterlimit:10;" d="M 3.402352 3.290445 L 4.107139 2.883598 " transform="matrix(17.342342,0,0,17.272727,17.167119,17.223642)"/>
<path style="fill:none;stroke-width:0.0333333;stroke-linecap:butt;stroke-linejoin:miter;stroke:rgb(0%,0%,0%);stroke-opacity:1;stroke-miterlimit:10;" d="M 4.446131 2.883598 L 5.151143 3.290445 " transform="matrix(17.342342,0,0,17.272727,17.167119,17.223642)"/>
<path style="fill:none;stroke-width:0.0333333;stroke-linecap:butt;stroke-linejoin:miter;stroke:rgb(0%,0%,0%);stroke-opacity:1;stroke-miterlimit:10;" d="M 5.134249 3.290445 L 6.016979 2.7807 " transform="matrix(17.342342,0,0,17.272727,17.167119,17.223642)"/>
<path style="fill:none;stroke-width:0.0333333;stroke-linecap:butt;stroke-linejoin:miter;stroke:rgb(0%,0%,0%);stroke-opacity:1;stroke-miterlimit:10;" d="M 6.000311 2.7807 L 6.692259 3.180309 " transform="matrix(17.342342,0,0,17.272727,17.167119,17.223642)"/>
<path style="fill:none;stroke-width:0.0333333;stroke-linecap:butt;stroke-linejoin:miter;stroke:rgb(0%,0%,0%);stroke-opacity:1;stroke-miterlimit:10;" d="M 4.359862 2.628952 L 4.359862 1.942583 " transform="matrix(17.342342,0,0,17.272727,17.167119,17.223642)"/>
<path style="fill:none;stroke-width:0.0333333;stroke-linecap:butt;stroke-linejoin:miter;stroke:rgb(0%,0%,0%);stroke-opacity:1;stroke-miterlimit:10;" d="M 4.193182 2.628952 L 4.193182 1.942583 " transform="matrix(17.342342,0,0,17.272727,17.167119,17.223642)"/>
</g>
</svg>
