<?xml version="1.0" encoding="UTF-8"?>
<svg xmlns="http://www.w3.org/2000/svg" xmlns:xlink="http://www.w3.org/1999/xlink" width="34.4pt" height="52pt" viewBox="0 0 34.4 52" version="1.1">
<g id="surface967">
<path style=" stroke:none;fill-rule:nonzero;fill:rgb(0%,0%,0%);fill-opacity:1;" d="M 17.445312 15.746094 C 17.230469 15.746094 17.039062 15.785156 16.871094 15.855469 C 16.703125 15.929688 16.5625 16.035156 16.449219 16.167969 C 16.339844 16.296875 16.257812 16.457031 16.199219 16.644531 C 16.140625 16.832031 16.113281 17.042969 16.113281 17.269531 C 16.113281 17.503906 16.140625 17.714844 16.199219 17.910156 C 16.265625 18.097656 16.355469 18.257812 16.472656 18.394531 C 16.585938 18.53125 16.726562 18.640625 16.894531 18.71875 C 17.066406 18.792969 17.257812 18.828125 17.46875 18.828125 C 17.621094 18.828125 17.753906 18.8125 17.871094 18.773438 C 17.992188 18.730469 18.101562 18.671875 18.207031 18.601562 C 18.304688 18.53125 18.390625 18.445312 18.464844 18.351562 C 18.542969 18.257812 18.613281 18.152344 18.671875 18.027344 L 19.09375 18.242188 C 19.027344 18.390625 18.945312 18.523438 18.84375 18.644531 C 18.742188 18.765625 18.621094 18.875 18.488281 18.96875 C 18.347656 19.054688 18.195312 19.125 18.019531 19.171875 C 17.847656 19.222656 17.65625 19.25 17.445312 19.25 C 17.136719 19.25 16.863281 19.199219 16.632812 19.109375 C 16.402344 19.007812 16.207031 18.871094 16.050781 18.695312 C 15.898438 18.519531 15.78125 18.308594 15.703125 18.070312 C 15.621094 17.828125 15.582031 17.558594 15.582031 17.269531 C 15.582031 16.976562 15.621094 16.710938 15.703125 16.472656 C 15.789062 16.226562 15.910156 16.023438 16.070312 15.855469 C 16.226562 15.691406 16.421875 15.5625 16.65625 15.464844 C 16.886719 15.375 17.148438 15.328125 17.445312 15.328125 C 17.851562 15.328125 18.1875 15.40625 18.453125 15.5625 C 18.726562 15.722656 18.933594 15.960938 19.0625 16.277344 L 18.574219 16.4375 C 18.535156 16.347656 18.488281 16.261719 18.421875 16.179688 C 18.363281 16.09375 18.285156 16.023438 18.195312 15.964844 C 18.101562 15.898438 17.992188 15.851562 17.871094 15.8125 C 17.746094 15.769531 17.605469 15.746094 17.445312 15.746094 Z M 17.445312 15.746094 "/>
<path style=" stroke:none;fill-rule:nonzero;fill:rgb(0%,0%,0%);fill-opacity:1;" d="M 10.96875 16.652344 L 10.96875 16.339844 L 11.707031 16.339844 L 11.707031 14.144531 L 11.054688 14.609375 L 11.054688 14.265625 L 11.726562 13.800781 L 12.074219 13.800781 L 12.074219 16.339844 L 12.769531 16.339844 L 12.769531 16.652344 Z M 10.96875 16.652344 "/>
<path style=" stroke:none;fill-rule:nonzero;fill:rgb(0%,0%,0%);fill-opacity:1;" d="M 13.109375 16.652344 L 13.109375 16.394531 C 13.179688 16.238281 13.261719 16.097656 13.359375 15.984375 C 13.457031 15.859375 13.5625 15.75 13.671875 15.648438 C 13.785156 15.546875 13.898438 15.457031 14.007812 15.378906 C 14.117188 15.292969 14.214844 15.210938 14.300781 15.128906 C 14.386719 15.042969 14.457031 14.953125 14.507812 14.859375 C 14.554688 14.765625 14.582031 14.660156 14.582031 14.546875 C 14.582031 14.46875 14.570312 14.398438 14.550781 14.339844 C 14.527344 14.277344 14.492188 14.222656 14.441406 14.179688 C 14.398438 14.136719 14.34375 14.109375 14.28125 14.09375 C 14.214844 14.070312 14.140625 14.058594 14.0625 14.058594 C 13.988281 14.058594 13.921875 14.070312 13.855469 14.09375 C 13.792969 14.109375 13.730469 14.136719 13.683594 14.179688 C 13.632812 14.214844 13.589844 14.265625 13.5625 14.328125 C 13.535156 14.390625 13.511719 14.457031 13.5 14.535156 L 13.128906 14.503906 C 13.144531 14.402344 13.175781 14.308594 13.21875 14.222656 C 13.261719 14.128906 13.320312 14.046875 13.402344 13.984375 C 13.480469 13.914062 13.574219 13.859375 13.683594 13.820312 C 13.792969 13.777344 13.917969 13.757812 14.0625 13.757812 C 14.207031 13.757812 14.332031 13.777344 14.441406 13.8125 C 14.554688 13.839844 14.652344 13.890625 14.722656 13.960938 C 14.800781 14.027344 14.859375 14.109375 14.898438 14.210938 C 14.941406 14.304688 14.960938 14.414062 14.960938 14.535156 C 14.960938 14.636719 14.941406 14.730469 14.90625 14.816406 C 14.878906 14.902344 14.835938 14.984375 14.777344 15.0625 C 14.71875 15.136719 14.652344 15.210938 14.570312 15.292969 C 14.5 15.363281 14.421875 15.4375 14.332031 15.507812 C 14.253906 15.570312 14.171875 15.640625 14.085938 15.710938 C 14.003906 15.777344 13.925781 15.847656 13.847656 15.917969 C 13.773438 15.984375 13.707031 16.054688 13.652344 16.125 C 13.589844 16.195312 13.546875 16.269531 13.511719 16.339844 L 15.003906 16.339844 L 15.003906 16.652344 Z M 13.109375 16.652344 "/>
<path style=" stroke:none;fill-rule:nonzero;fill:rgb(0%,0%,0%);fill-opacity:1;" d="M 19.234375 34.558594 C 19.234375 34.855469 19.191406 35.125 19.105469 35.367188 C 19.019531 35.613281 18.890625 35.824219 18.726562 35.996094 C 18.566406 36.167969 18.367188 36.304688 18.128906 36.394531 C 17.898438 36.488281 17.632812 36.535156 17.339844 36.535156 C 17.019531 36.535156 16.742188 36.488281 16.503906 36.394531 C 16.269531 36.296875 16.078125 36.15625 15.917969 35.984375 C 15.757812 35.804688 15.640625 35.59375 15.5625 35.359375 C 15.480469 35.113281 15.441406 34.847656 15.441406 34.558594 C 15.441406 34.265625 15.480469 33.996094 15.5625 33.757812 C 15.648438 33.515625 15.769531 33.308594 15.929688 33.144531 C 16.09375 32.976562 16.292969 32.847656 16.527344 32.753906 C 16.765625 32.660156 17.035156 32.613281 17.339844 32.613281 C 17.640625 32.613281 17.914062 32.660156 18.152344 32.753906 C 18.390625 32.847656 18.585938 32.980469 18.746094 33.152344 C 18.90625 33.320312 19.023438 33.519531 19.105469 33.757812 C 19.191406 33.996094 19.234375 34.265625 19.234375 34.558594 Z M 18.703125 34.558594 C 18.703125 34.328125 18.675781 34.121094 18.617188 33.929688 C 18.558594 33.746094 18.472656 33.585938 18.355469 33.457031 C 18.242188 33.320312 18.097656 33.214844 17.925781 33.144531 C 17.757812 33.074219 17.5625 33.035156 17.339844 33.035156 C 17.113281 33.035156 16.917969 33.074219 16.742188 33.144531 C 16.570312 33.214844 16.421875 33.320312 16.308594 33.457031 C 16.199219 33.585938 16.117188 33.746094 16.058594 33.929688 C 16 34.121094 15.972656 34.328125 15.972656 34.558594 C 15.972656 34.789062 16 35 16.058594 35.195312 C 16.117188 35.386719 16.203125 35.546875 16.320312 35.683594 C 16.433594 35.820312 16.574219 35.929688 16.742188 36.007812 C 16.917969 36.078125 17.113281 36.113281 17.339844 36.113281 C 17.578125 36.113281 17.78125 36.078125 17.957031 36.007812 C 18.128906 35.929688 18.269531 35.820312 18.378906 35.683594 C 18.488281 35.539062 18.566406 35.375 18.617188 35.183594 C 18.675781 34.992188 18.703125 34.78125 18.703125 34.558594 Z M 18.703125 34.558594 "/>
<path style="fill:none;stroke-width:0.0333333;stroke-linecap:butt;stroke-linejoin:miter;stroke:rgb(0%,0%,0%);stroke-opacity:1;stroke-miterlimit:10;" d="M -0.0832922 0.156697 L -0.0832922 0.843168 " transform="matrix(17.33871,0,0,17.287234,17.33871,17.287234)"/>
<path style="fill:none;stroke-width:0.0333333;stroke-linecap:butt;stroke-linejoin:miter;stroke:rgb(0%,0%,0%);stroke-opacity:1;stroke-miterlimit:10;" d="M 0.0831977 0.156697 L 0.0831977 0.843168 " transform="matrix(17.33871,0,0,17.287234,17.33871,17.287234)"/>
</g>
</svg>
