<?xml version="1.0" encoding="UTF-8"?>
<svg xmlns="http://www.w3.org/2000/svg" xmlns:xlink="http://www.w3.org/1999/xlink" width="124pt" height="68.8pt" viewBox="0 0 124 68.8" version="1.1">
<g id="surface1552">
<path style=" stroke:none;fill-rule:nonzero;fill:rgb(0%,0%,0%);fill-opacity:1;" d="M 32.898438 53.578125 L 30.855469 50.324219 C 30.859375 50.414062 30.867188 50.5 30.867188 50.585938 C 30.871094 50.660156 30.875 50.738281 30.875 50.824219 C 30.882812 50.90625 30.886719 50.976562 30.886719 51.039062 L 30.886719 53.578125 L 30.421875 53.578125 L 30.421875 49.761719 L 31.027344 49.761719 L 33.082031 53.035156 C 33.082031 53.035156 33.078125 52.945312 33.070312 52.765625 C 33.0625 52.695312 33.054688 52.613281 33.050781 52.527344 C 33.050781 52.433594 33.050781 52.347656 33.050781 52.265625 L 33.050781 49.761719 L 33.515625 49.761719 L 33.515625 53.578125 Z M 32.898438 53.578125 "/>
<path style=" stroke:none;fill-rule:nonzero;fill:rgb(0%,0%,0%);fill-opacity:1;" d="M 92.824219 53.578125 L 90.78125 50.324219 C 90.785156 50.414062 90.789062 50.5 90.789062 50.585938 C 90.796875 50.660156 90.800781 50.738281 90.800781 50.824219 C 90.808594 50.90625 90.8125 50.976562 90.8125 51.039062 L 90.8125 53.578125 L 90.347656 53.578125 L 90.347656 49.761719 L 90.953125 49.761719 L 93.007812 53.035156 C 93.007812 53.035156 93 52.945312 92.996094 52.765625 C 92.988281 52.695312 92.980469 52.613281 92.972656 52.527344 C 92.972656 52.433594 92.972656 52.347656 92.972656 52.265625 L 92.972656 49.761719 L 93.441406 49.761719 L 93.441406 53.578125 Z M 92.824219 53.578125 "/>
<path style="fill:none;stroke-width:0.0333333;stroke-linecap:butt;stroke-linejoin:miter;stroke:rgb(0%,0%,0%);stroke-opacity:1;stroke-miterlimit:10;" d="M 0.874428 -0.0049463 L -0.00824946 0.504887 " transform="matrix(17.299107,0,0,17.33871,16.986458,16.992012)"/>
<path style="fill:none;stroke-width:0.0333333;stroke-linecap:butt;stroke-linejoin:miter;stroke:rgb(0%,0%,0%);stroke-opacity:1;stroke-miterlimit:10;" d="M -0.000120428 0.490243 L -0.000120428 1.509683 " transform="matrix(17.299107,0,0,17.33871,16.986458,16.992012)"/>
<path style="fill:none;stroke-width:0.0333333;stroke-linecap:butt;stroke-linejoin:miter;stroke:rgb(0%,0%,0%);stroke-opacity:1;stroke-miterlimit:10;" d="M -0.00824946 1.495264 L 0.700105 1.904167 " transform="matrix(17.299107,0,0,17.33871,16.986458,16.992012)"/>
<path style="fill:none;stroke-width:0.0333333;stroke-linecap:butt;stroke-linejoin:miter;stroke:rgb(0%,0%,0%);stroke-opacity:1;stroke-miterlimit:10;" d="M 1.032041 1.904167 L 1.740396 1.495264 " transform="matrix(17.299107,0,0,17.33871,16.986458,16.992012)"/>
<path style="fill:none;stroke-width:0.0333333;stroke-linecap:butt;stroke-linejoin:miter;stroke:rgb(0%,0%,0%);stroke-opacity:1;stroke-miterlimit:10;" d="M 1.732041 1.509683 L 1.732041 0.49993 " transform="matrix(17.299107,0,0,17.33871,16.986458,16.992012)"/>
<path style="fill:none;stroke-width:0.0333333;stroke-linecap:butt;stroke-linejoin:miter;stroke:rgb(0%,0%,0%);stroke-opacity:1;stroke-miterlimit:10;" d="M 0.857718 -0.0049463 L 1.732041 0.49993 " transform="matrix(17.299107,0,0,17.33871,16.986458,16.992012)"/>
<path style="fill:none;stroke-width:0.0333333;stroke-linecap:butt;stroke-linejoin:miter;stroke:rgb(0%,0%,0%);stroke-opacity:1;stroke-miterlimit:10;" d="M 1.732041 0.49993 L 2.606589 -0.0049463 " transform="matrix(17.299107,0,0,17.33871,16.986458,16.992012)"/>
<path style="fill:none;stroke-width:0.0333333;stroke-linecap:butt;stroke-linejoin:miter;stroke:rgb(0%,0%,0%);stroke-opacity:1;stroke-miterlimit:10;" d="M 2.58988 -0.0049463 L 3.463976 0.49993 " transform="matrix(17.299107,0,0,17.33871,16.986458,16.992012)"/>
<path style="fill:none;stroke-width:0.0333333;stroke-linecap:butt;stroke-linejoin:miter;stroke:rgb(0%,0%,0%);stroke-opacity:1;stroke-miterlimit:10;" d="M 4.338299 -0.0049463 L 3.463976 0.49993 " transform="matrix(17.299107,0,0,17.33871,16.986458,16.992012)"/>
<path style="fill:none;stroke-width:0.0333333;stroke-linecap:butt;stroke-linejoin:miter;stroke:rgb(0%,0%,0%);stroke-opacity:1;stroke-miterlimit:10;" d="M 3.463976 0.49993 L 3.463976 1.509683 " transform="matrix(17.299107,0,0,17.33871,16.986458,16.992012)"/>
<path style="fill:none;stroke-width:0.0333333;stroke-linecap:butt;stroke-linejoin:miter;stroke:rgb(0%,0%,0%);stroke-opacity:1;stroke-miterlimit:10;" d="M 3.455622 1.495264 L 4.164202 1.904167 " transform="matrix(17.299107,0,0,17.33871,16.986458,16.992012)"/>
<path style="fill:none;stroke-width:0.0333333;stroke-linecap:butt;stroke-linejoin:miter;stroke:rgb(0%,0%,0%);stroke-opacity:1;stroke-miterlimit:10;" d="M 4.496138 1.904167 L 5.204492 1.495264 " transform="matrix(17.299107,0,0,17.33871,16.986458,16.992012)"/>
<path style="fill:none;stroke-width:0.0333333;stroke-linecap:butt;stroke-linejoin:miter;stroke:rgb(0%,0%,0%);stroke-opacity:1;stroke-miterlimit:10;" d="M 5.196138 1.509683 L 5.196138 0.490243 " transform="matrix(17.299107,0,0,17.33871,16.986458,16.992012)"/>
<path style="fill:none;stroke-width:0.0333333;stroke-linecap:butt;stroke-linejoin:miter;stroke:rgb(0%,0%,0%);stroke-opacity:1;stroke-miterlimit:10;" d="M 4.321815 -0.0049463 L 5.204492 0.504887 " transform="matrix(17.299107,0,0,17.33871,16.986458,16.992012)"/>
</g>
</svg>
