<?xml version="1.0" encoding="UTF-8"?>
<svg xmlns="http://www.w3.org/2000/svg" xmlns:xlink="http://www.w3.org/1999/xlink" width="212pt" height="186.4pt" viewBox="0 0 212 186.4" version="1.1">
<g id="surface1042">
<path style=" stroke:none;fill-rule:nonzero;fill:rgb(0%,0%,0%);fill-opacity:1;" d="M 79.027344 88.800781 C 79.027344 89.121094 78.980469 89.402344 78.886719 89.648438 C 78.792969 89.886719 78.660156 90.089844 78.496094 90.253906 C 78.328125 90.421875 78.128906 90.546875 77.898438 90.632812 C 77.671875 90.714844 77.429688 90.753906 77.167969 90.753906 L 75.734375 90.753906 L 75.734375 86.9375 L 77.007812 86.9375 C 77.292969 86.9375 77.5625 86.976562 77.8125 87.046875 C 78.0625 87.121094 78.28125 87.230469 78.460938 87.382812 C 78.640625 87.535156 78.78125 87.730469 78.875 87.96875 C 78.976562 88.203125 79.027344 88.476562 79.027344 88.800781 Z M 78.507812 88.800781 C 78.507812 88.542969 78.46875 88.324219 78.398438 88.140625 C 78.324219 87.960938 78.21875 87.8125 78.082031 87.699219 C 77.953125 87.574219 77.792969 87.488281 77.605469 87.4375 C 77.414062 87.378906 77.210938 87.351562 76.996094 87.351562 L 76.257812 87.351562 L 76.257812 90.339844 L 77.105469 90.339844 C 77.304688 90.339844 77.488281 90.308594 77.660156 90.242188 C 77.832031 90.179688 77.980469 90.082031 78.105469 89.949219 C 78.234375 89.820312 78.332031 89.664062 78.398438 89.472656 C 78.46875 89.277344 78.507812 89.058594 78.507812 88.800781 Z M 78.507812 88.800781 "/>
<path style=" stroke:none;fill-rule:nonzero;fill:rgb(0%,0%,0%);fill-opacity:1;" d="M 48.199219 38.742188 L 46.144531 35.492188 C 46.148438 35.578125 46.15625 35.667969 46.15625 35.753906 C 46.160156 35.828125 46.167969 35.90625 46.167969 35.992188 C 46.171875 36.074219 46.175781 36.144531 46.175781 36.207031 L 46.175781 38.742188 L 45.710938 38.742188 L 45.710938 34.929688 L 46.320312 34.929688 L 48.382812 38.203125 C 48.382812 38.203125 48.378906 38.113281 48.371094 37.929688 C 48.363281 37.859375 48.355469 37.78125 48.351562 37.691406 C 48.351562 37.601562 48.351562 37.515625 48.351562 37.433594 L 48.351562 34.929688 L 48.816406 34.929688 L 48.816406 38.742188 Z M 48.199219 38.742188 "/>
<path style=" stroke:none;fill-rule:nonzero;fill:rgb(0%,0%,0%);fill-opacity:1;" d="M 49.398438 34.605469 L 50.332031 34.605469 L 50.332031 33.675781 L 50.796875 33.675781 L 50.796875 34.605469 L 51.726562 34.605469 L 51.726562 35.066406 L 50.796875 35.066406 L 50.796875 35.996094 L 50.332031 35.996094 L 50.332031 35.066406 L 49.398438 35.066406 "/>
<path style=" stroke:none;fill-rule:nonzero;fill:rgb(0%,0%,47.058824%);fill-opacity:1;" d="M 18.851562 88.8125 C 18.851562 89.132812 18.804688 89.414062 18.710938 89.660156 C 18.617188 89.898438 18.484375 90.101562 18.320312 90.265625 C 18.152344 90.425781 17.953125 90.546875 17.722656 90.632812 C 17.496094 90.714844 17.253906 90.753906 16.996094 90.753906 L 15.441406 90.753906 L 15.441406 86.9375 L 16.832031 86.9375 C 17.128906 86.9375 17.398438 86.976562 17.648438 87.046875 C 17.890625 87.121094 18.105469 87.238281 18.289062 87.394531 C 18.46875 87.546875 18.605469 87.742188 18.699219 87.980469 C 18.800781 88.210938 18.851562 88.488281 18.851562 88.8125 Z M 18.046875 88.8125 C 18.046875 88.589844 18.015625 88.398438 17.949219 88.238281 C 17.890625 88.082031 17.808594 87.953125 17.699219 87.847656 C 17.59375 87.75 17.460938 87.675781 17.308594 87.632812 C 17.164062 87.582031 16.996094 87.554688 16.808594 87.554688 L 16.246094 87.554688 L 16.246094 90.136719 L 16.929688 90.136719 C 17.085938 90.136719 17.234375 90.109375 17.375 90.046875 C 17.511719 89.992188 17.628906 89.90625 17.722656 89.800781 C 17.824219 89.691406 17.902344 89.554688 17.960938 89.386719 C 18.019531 89.222656 18.046875 89.03125 18.046875 88.8125 Z M 18.046875 88.8125 "/>
<path style=" stroke:none;fill-rule:nonzero;fill:rgb(0%,0%,0%);fill-opacity:1;" d="M 64.222656 28.152344 C 64.222656 28.449219 64.179688 28.722656 64.09375 28.964844 C 64.003906 29.210938 63.878906 29.421875 63.710938 29.59375 C 63.550781 29.765625 63.355469 29.902344 63.113281 29.996094 C 62.882812 30.085938 62.617188 30.136719 62.320312 30.136719 C 62 30.136719 61.722656 30.085938 61.484375 29.996094 C 61.25 29.894531 61.054688 29.757812 60.898438 29.582031 C 60.738281 29.402344 60.617188 29.191406 60.539062 28.953125 C 60.457031 28.710938 60.417969 28.441406 60.417969 28.152344 C 60.417969 27.855469 60.457031 27.589844 60.539062 27.351562 C 60.625 27.105469 60.75 26.902344 60.910156 26.734375 C 61.074219 26.566406 61.273438 26.4375 61.507812 26.34375 C 61.746094 26.25 62.015625 26.203125 62.320312 26.203125 C 62.625 26.203125 62.898438 26.25 63.136719 26.34375 C 63.375 26.4375 63.574219 26.570312 63.734375 26.742188 C 63.890625 26.910156 64.011719 27.113281 64.09375 27.351562 C 64.179688 27.589844 64.222656 27.855469 64.222656 28.152344 Z M 63.691406 28.152344 C 63.691406 27.921875 63.660156 27.714844 63.605469 27.523438 C 63.542969 27.335938 63.457031 27.175781 63.34375 27.046875 C 63.226562 26.910156 63.082031 26.804688 62.90625 26.734375 C 62.738281 26.664062 62.542969 26.625 62.320312 26.625 C 62.097656 26.625 61.898438 26.664062 61.722656 26.734375 C 61.550781 26.804688 61.402344 26.910156 61.289062 27.046875 C 61.179688 27.175781 61.097656 27.335938 61.039062 27.523438 C 60.980469 27.714844 60.953125 27.921875 60.953125 28.152344 C 60.953125 28.386719 60.980469 28.597656 61.039062 28.792969 C 61.097656 28.980469 61.183594 29.144531 61.300781 29.28125 C 61.414062 29.417969 61.554688 29.527344 61.722656 29.605469 C 61.898438 29.675781 62.097656 29.710938 62.320312 29.710938 C 62.558594 29.710938 62.765625 29.675781 62.941406 29.605469 C 63.113281 29.527344 63.257812 29.417969 63.363281 29.28125 C 63.472656 29.136719 63.550781 28.96875 63.605469 28.78125 C 63.660156 28.585938 63.691406 28.378906 63.691406 28.152344 Z M 63.691406 28.152344 "/>
<path style=" stroke:none;fill-rule:nonzero;fill:rgb(0%,0%,0%);fill-opacity:1;" d="M 64.804688 25.828125 L 67.128906 25.828125 L 67.128906 26.292969 L 64.804688 26.292969 "/>
<path style=" stroke:none;fill-rule:nonzero;fill:rgb(0%,0%,0%);fill-opacity:1;" d="M 34.109375 28.152344 C 34.109375 28.449219 34.066406 28.722656 33.976562 28.964844 C 33.890625 29.210938 33.761719 29.421875 33.597656 29.59375 C 33.4375 29.765625 33.238281 29.902344 33 29.996094 C 32.765625 30.085938 32.503906 30.136719 32.207031 30.136719 C 31.886719 30.136719 31.609375 30.085938 31.371094 29.996094 C 31.136719 29.894531 30.941406 29.757812 30.78125 29.582031 C 30.621094 29.402344 30.503906 29.191406 30.425781 28.953125 C 30.34375 28.710938 30.304688 28.441406 30.304688 28.152344 C 30.304688 27.855469 30.34375 27.589844 30.425781 27.351562 C 30.511719 27.105469 30.632812 26.902344 30.792969 26.734375 C 30.960938 26.566406 31.15625 26.4375 31.390625 26.34375 C 31.628906 26.25 31.902344 26.203125 32.207031 26.203125 C 32.511719 26.203125 32.78125 26.25 33.023438 26.34375 C 33.261719 26.4375 33.460938 26.570312 33.621094 26.742188 C 33.777344 26.910156 33.898438 27.113281 33.976562 27.351562 C 34.066406 27.589844 34.109375 27.855469 34.109375 28.152344 Z M 33.574219 28.152344 C 33.574219 27.921875 33.546875 27.714844 33.488281 27.523438 C 33.429688 27.335938 33.34375 27.175781 33.226562 27.046875 C 33.113281 26.910156 32.96875 26.804688 32.792969 26.734375 C 32.625 26.664062 32.429688 26.625 32.207031 26.625 C 31.980469 26.625 31.78125 26.664062 31.609375 26.734375 C 31.433594 26.804688 31.289062 26.910156 31.175781 27.046875 C 31.066406 27.175781 30.980469 27.335938 30.925781 27.523438 C 30.863281 27.714844 30.835938 27.921875 30.835938 28.152344 C 30.835938 28.386719 30.863281 28.597656 30.925781 28.792969 C 30.980469 28.980469 31.066406 29.144531 31.183594 29.28125 C 31.300781 29.417969 31.441406 29.527344 31.609375 29.605469 C 31.78125 29.675781 31.980469 29.710938 32.207031 29.710938 C 32.445312 29.710938 32.652344 29.675781 32.824219 29.605469 C 33 29.527344 33.140625 29.417969 33.25 29.28125 C 33.359375 29.136719 33.4375 28.96875 33.488281 28.78125 C 33.546875 28.585938 33.574219 28.378906 33.574219 28.152344 Z M 33.574219 28.152344 "/>
<path style=" stroke:none;fill-rule:nonzero;fill:rgb(0%,0%,47.058824%);fill-opacity:1;" d="M 79.316406 36.820312 C 79.316406 37.117188 79.265625 37.390625 79.175781 37.632812 C 79.085938 37.878906 78.960938 38.089844 78.792969 38.261719 C 78.625 38.433594 78.425781 38.570312 78.183594 38.664062 C 77.945312 38.753906 77.675781 38.804688 77.371094 38.804688 C 77.050781 38.804688 76.773438 38.753906 76.535156 38.664062 C 76.292969 38.5625 76.089844 38.425781 75.925781 38.25 C 75.765625 38.070312 75.644531 37.859375 75.566406 37.621094 C 75.484375 37.378906 75.445312 37.109375 75.445312 36.820312 C 75.445312 36.527344 75.484375 36.257812 75.566406 36.019531 C 75.652344 35.773438 75.777344 35.570312 75.945312 35.402344 C 76.113281 35.234375 76.316406 35.105469 76.554688 35.011719 C 76.792969 34.917969 77.070312 34.871094 77.382812 34.871094 C 77.691406 34.871094 77.96875 34.917969 78.207031 35.011719 C 78.445312 35.105469 78.644531 35.238281 78.804688 35.414062 C 78.972656 35.578125 79.097656 35.78125 79.183594 36.019531 C 79.273438 36.257812 79.316406 36.527344 79.316406 36.820312 Z M 78.5 36.820312 C 78.5 36.621094 78.472656 36.4375 78.425781 36.277344 C 78.371094 36.121094 78.300781 35.984375 78.207031 35.867188 C 78.113281 35.753906 77.996094 35.660156 77.859375 35.597656 C 77.722656 35.53125 77.5625 35.5 77.382812 35.5 C 77.191406 35.5 77.027344 35.53125 76.882812 35.597656 C 76.742188 35.660156 76.625 35.753906 76.535156 35.867188 C 76.4375 35.984375 76.363281 36.121094 76.316406 36.277344 C 76.273438 36.4375 76.25 36.621094 76.25 36.820312 C 76.25 37.023438 76.277344 37.207031 76.328125 37.375 C 76.375 37.53125 76.449219 37.675781 76.542969 37.796875 C 76.636719 37.914062 76.753906 38.007812 76.890625 38.078125 C 77.027344 38.144531 77.1875 38.175781 77.371094 38.175781 C 77.566406 38.175781 77.730469 38.144531 77.871094 38.078125 C 78.015625 38.007812 78.132812 37.914062 78.230469 37.796875 C 78.320312 37.675781 78.390625 37.53125 78.433594 37.363281 C 78.480469 37.195312 78.5 37.015625 78.5 36.820312 Z M 78.5 36.820312 "/>
<path style=" stroke:none;fill-rule:nonzero;fill:rgb(0%,0%,47.058824%);fill-opacity:1;" d="M 94.375 62.824219 C 94.375 63.125 94.328125 63.394531 94.234375 63.636719 C 94.148438 63.882812 94.019531 64.09375 93.855469 64.265625 C 93.6875 64.441406 93.484375 64.574219 93.246094 64.667969 C 93.007812 64.757812 92.734375 64.808594 92.429688 64.808594 C 92.109375 64.808594 91.832031 64.757812 91.59375 64.667969 C 91.355469 64.566406 91.152344 64.429688 90.984375 64.253906 C 90.824219 64.078125 90.707031 63.867188 90.625 63.628906 C 90.546875 63.382812 90.507812 63.113281 90.507812 62.824219 C 90.507812 62.53125 90.546875 62.261719 90.625 62.023438 C 90.714844 61.78125 90.839844 61.574219 91.007812 61.40625 C 91.171875 61.242188 91.375 61.109375 91.617188 61.015625 C 91.855469 60.921875 92.128906 60.875 92.441406 60.875 C 92.75 60.875 93.027344 60.921875 93.265625 61.015625 C 93.507812 61.109375 93.703125 61.242188 93.863281 61.417969 C 94.03125 61.585938 94.160156 61.785156 94.246094 62.023438 C 94.332031 62.261719 94.375 62.53125 94.375 62.824219 Z M 93.5625 62.824219 C 93.5625 62.625 93.535156 62.441406 93.484375 62.285156 C 93.433594 62.125 93.359375 61.988281 93.265625 61.871094 C 93.171875 61.757812 93.054688 61.664062 92.917969 61.601562 C 92.78125 61.535156 92.621094 61.503906 92.441406 61.503906 C 92.25 61.503906 92.085938 61.535156 91.941406 61.601562 C 91.804688 61.664062 91.6875 61.757812 91.59375 61.871094 C 91.5 61.988281 91.425781 62.125 91.375 62.285156 C 91.332031 62.441406 91.3125 62.625 91.3125 62.824219 C 91.3125 63.027344 91.335938 63.210938 91.386719 63.378906 C 91.4375 63.539062 91.507812 63.679688 91.605469 63.800781 C 91.695312 63.917969 91.8125 64.011719 91.953125 64.082031 C 92.089844 64.148438 92.25 64.179688 92.429688 64.179688 C 92.625 64.179688 92.792969 64.148438 92.929688 64.082031 C 93.074219 64.011719 93.195312 63.917969 93.289062 63.800781 C 93.382812 63.679688 93.453125 63.535156 93.496094 63.367188 C 93.539062 63.203125 93.5625 63.019531 93.5625 62.824219 Z M 93.5625 62.824219 "/>
<path style=" stroke:none;fill-rule:nonzero;fill:rgb(0%,0%,47.058824%);fill-opacity:1;" d="M 19.179688 138.984375 C 19.179688 139.28125 19.132812 139.550781 19.039062 139.796875 C 18.953125 140.042969 18.824219 140.25 18.660156 140.425781 C 18.492188 140.597656 18.289062 140.734375 18.050781 140.824219 C 17.8125 140.917969 17.539062 140.964844 17.234375 140.964844 C 16.914062 140.964844 16.636719 140.917969 16.398438 140.824219 C 16.160156 140.726562 15.957031 140.585938 15.789062 140.414062 C 15.628906 140.234375 15.511719 140.023438 15.433594 139.785156 C 15.351562 139.542969 15.3125 139.273438 15.3125 138.984375 C 15.3125 138.6875 15.351562 138.417969 15.433594 138.179688 C 15.519531 137.9375 15.644531 137.730469 15.8125 137.5625 C 15.976562 137.398438 16.183594 137.269531 16.421875 137.171875 C 16.660156 137.082031 16.933594 137.03125 17.246094 137.03125 C 17.558594 137.03125 17.835938 137.082031 18.074219 137.171875 C 18.3125 137.269531 18.511719 137.402344 18.671875 137.574219 C 18.835938 137.742188 18.964844 137.941406 19.050781 138.179688 C 19.136719 138.417969 19.179688 138.6875 19.179688 138.984375 Z M 18.367188 138.984375 C 18.367188 138.78125 18.339844 138.601562 18.289062 138.441406 C 18.238281 138.285156 18.164062 138.144531 18.074219 138.03125 C 17.976562 137.914062 17.859375 137.824219 17.726562 137.757812 C 17.585938 137.695312 17.425781 137.660156 17.246094 137.660156 C 17.058594 137.660156 16.890625 137.695312 16.746094 137.757812 C 16.609375 137.824219 16.492188 137.914062 16.398438 138.03125 C 16.304688 138.144531 16.230469 138.285156 16.183594 138.441406 C 16.136719 138.601562 16.117188 138.78125 16.117188 138.984375 C 16.117188 139.1875 16.140625 139.371094 16.191406 139.535156 C 16.242188 139.695312 16.316406 139.835938 16.410156 139.957031 C 16.503906 140.074219 16.621094 140.167969 16.757812 140.238281 C 16.894531 140.304688 17.054688 140.335938 17.234375 140.335938 C 17.433594 140.335938 17.597656 140.304688 17.734375 140.238281 C 17.878906 140.167969 18 140.074219 18.09375 139.957031 C 18.1875 139.835938 18.257812 139.691406 18.300781 139.523438 C 18.34375 139.359375 18.367188 139.179688 18.367188 138.984375 Z M 18.367188 138.984375 "/>
<path style=" stroke:none;fill-rule:nonzero;fill:rgb(0%,0%,47.058824%);fill-opacity:1;" d="M 24.027344 169.496094 C 24.027344 169.792969 23.980469 170.0625 23.886719 170.308594 C 23.800781 170.554688 23.671875 170.761719 23.507812 170.9375 C 23.339844 171.109375 23.136719 171.246094 22.898438 171.335938 C 22.660156 171.429688 22.386719 171.476562 22.082031 171.476562 C 21.761719 171.476562 21.484375 171.429688 21.246094 171.335938 C 21.007812 171.238281 20.804688 171.097656 20.636719 170.925781 C 20.476562 170.746094 20.359375 170.535156 20.277344 170.296875 C 20.199219 170.054688 20.160156 169.785156 20.160156 169.496094 C 20.160156 169.199219 20.199219 168.929688 20.277344 168.691406 C 20.367188 168.449219 20.492188 168.242188 20.660156 168.074219 C 20.824219 167.910156 21.027344 167.78125 21.269531 167.683594 C 21.507812 167.59375 21.78125 167.542969 22.09375 167.542969 C 22.402344 167.542969 22.679688 167.59375 22.921875 167.683594 C 23.160156 167.78125 23.359375 167.914062 23.519531 168.085938 C 23.683594 168.253906 23.8125 168.453125 23.898438 168.691406 C 23.984375 168.929688 24.027344 169.199219 24.027344 169.496094 Z M 23.214844 169.496094 C 23.214844 169.292969 23.1875 169.113281 23.136719 168.953125 C 23.085938 168.796875 23.011719 168.65625 22.921875 168.542969 C 22.824219 168.425781 22.707031 168.335938 22.574219 168.269531 C 22.433594 168.207031 22.273438 168.171875 22.09375 168.171875 C 21.902344 168.171875 21.738281 168.207031 21.59375 168.269531 C 21.457031 168.335938 21.339844 168.425781 21.246094 168.542969 C 21.152344 168.65625 21.078125 168.796875 21.027344 168.953125 C 20.984375 169.113281 20.964844 169.292969 20.964844 169.496094 C 20.964844 169.699219 20.988281 169.882812 21.039062 170.046875 C 21.089844 170.207031 21.164062 170.347656 21.257812 170.46875 C 21.351562 170.585938 21.464844 170.679688 21.605469 170.75 C 21.742188 170.816406 21.902344 170.847656 22.082031 170.847656 C 22.277344 170.847656 22.445312 170.816406 22.582031 170.75 C 22.726562 170.679688 22.847656 170.585938 22.941406 170.46875 C 23.035156 170.347656 23.105469 170.203125 23.148438 170.035156 C 23.191406 169.871094 23.214844 169.691406 23.214844 169.496094 Z M 23.214844 169.496094 "/>
<path style=" stroke:none;fill-rule:nonzero;fill:rgb(0%,0%,0%);fill-opacity:1;" d="M 91.082031 104.308594 C 91.082031 104.609375 91.039062 104.878906 90.953125 105.125 C 90.867188 105.371094 90.738281 105.578125 90.570312 105.75 C 90.410156 105.925781 90.214844 106.058594 89.972656 106.152344 C 89.742188 106.246094 89.476562 106.292969 89.179688 106.292969 C 88.859375 106.292969 88.582031 106.246094 88.34375 106.152344 C 88.109375 106.050781 87.914062 105.914062 87.757812 105.742188 C 87.597656 105.5625 87.476562 105.351562 87.398438 105.113281 C 87.316406 104.867188 87.277344 104.601562 87.277344 104.308594 C 87.277344 104.015625 87.316406 103.746094 87.398438 103.507812 C 87.484375 103.265625 87.609375 103.058594 87.769531 102.890625 C 87.933594 102.726562 88.132812 102.597656 88.367188 102.5 C 88.605469 102.410156 88.875 102.359375 89.179688 102.359375 C 89.484375 102.359375 89.757812 102.410156 89.996094 102.5 C 90.234375 102.597656 90.433594 102.726562 90.59375 102.902344 C 90.75 103.070312 90.871094 103.269531 90.953125 103.507812 C 91.039062 103.746094 91.082031 104.015625 91.082031 104.308594 Z M 90.550781 104.308594 C 90.550781 104.082031 90.519531 103.871094 90.464844 103.683594 C 90.402344 103.496094 90.316406 103.335938 90.203125 103.207031 C 90.085938 103.070312 89.941406 102.964844 89.769531 102.890625 C 89.597656 102.820312 89.402344 102.78125 89.179688 102.78125 C 88.957031 102.78125 88.757812 102.820312 88.582031 102.890625 C 88.410156 102.964844 88.261719 103.070312 88.148438 103.207031 C 88.039062 103.335938 87.957031 103.496094 87.898438 103.683594 C 87.839844 103.871094 87.8125 104.082031 87.8125 104.308594 C 87.8125 104.542969 87.839844 104.753906 87.898438 104.949219 C 87.957031 105.140625 88.042969 105.300781 88.160156 105.4375 C 88.273438 105.574219 88.414062 105.683594 88.582031 105.761719 C 88.757812 105.835938 88.957031 105.871094 89.179688 105.871094 C 89.421875 105.871094 89.625 105.835938 89.800781 105.761719 C 89.972656 105.683594 90.117188 105.574219 90.222656 105.4375 C 90.332031 105.292969 90.410156 105.128906 90.464844 104.9375 C 90.519531 104.742188 90.550781 104.535156 90.550781 104.308594 Z M 90.550781 104.308594 "/>
<path style=" stroke:none;fill-rule:nonzero;fill:rgb(0%,0%,47.058824%);fill-opacity:1;" d="M 154.304688 95.023438 C 154.304688 95.320312 154.257812 95.589844 154.164062 95.835938 C 154.078125 96.082031 153.949219 96.289062 153.785156 96.464844 C 153.617188 96.636719 153.414062 96.773438 153.175781 96.863281 C 152.9375 96.957031 152.664062 97.003906 152.359375 97.003906 C 152.039062 97.003906 151.761719 96.957031 151.523438 96.863281 C 151.285156 96.765625 151.082031 96.625 150.914062 96.453125 C 150.753906 96.273438 150.636719 96.0625 150.558594 95.824219 C 150.476562 95.578125 150.4375 95.3125 150.4375 95.023438 C 150.4375 94.726562 150.476562 94.457031 150.558594 94.21875 C 150.644531 93.976562 150.769531 93.769531 150.9375 93.601562 C 151.101562 93.4375 151.308594 93.308594 151.546875 93.210938 C 151.785156 93.121094 152.058594 93.070312 152.371094 93.070312 C 152.679688 93.070312 152.957031 93.121094 153.199219 93.210938 C 153.4375 93.308594 153.636719 93.441406 153.796875 93.613281 C 153.960938 93.78125 154.089844 93.980469 154.175781 94.21875 C 154.261719 94.457031 154.304688 94.726562 154.304688 95.023438 Z M 153.492188 95.023438 C 153.492188 94.820312 153.464844 94.640625 153.414062 94.480469 C 153.363281 94.324219 153.289062 94.183594 153.199219 94.070312 C 153.101562 93.953125 152.984375 93.863281 152.851562 93.796875 C 152.710938 93.734375 152.550781 93.699219 152.371094 93.699219 C 152.179688 93.699219 152.015625 93.734375 151.871094 93.796875 C 151.734375 93.863281 151.617188 93.953125 151.523438 94.070312 C 151.429688 94.183594 151.355469 94.324219 151.308594 94.480469 C 151.261719 94.640625 151.242188 94.820312 151.242188 95.023438 C 151.242188 95.226562 151.265625 95.410156 151.316406 95.574219 C 151.367188 95.734375 151.441406 95.875 151.535156 95.996094 C 151.628906 96.113281 151.742188 96.207031 151.882812 96.277344 C 152.019531 96.34375 152.179688 96.375 152.359375 96.375 C 152.554688 96.375 152.722656 96.34375 152.859375 96.277344 C 153.003906 96.207031 153.125 96.113281 153.21875 95.996094 C 153.3125 95.875 153.382812 95.730469 153.425781 95.5625 C 153.46875 95.398438 153.492188 95.21875 153.492188 95.023438 Z M 153.492188 95.023438 "/>
<path style=" stroke:none;fill-rule:nonzero;fill:rgb(0%,0%,47.058824%);fill-opacity:1;" d="M 124.1875 95.023438 C 124.1875 95.320312 124.136719 95.589844 124.042969 95.835938 C 123.957031 96.082031 123.832031 96.289062 123.664062 96.464844 C 123.496094 96.636719 123.296875 96.773438 123.054688 96.863281 C 122.816406 96.957031 122.546875 97.003906 122.242188 97.003906 C 121.921875 97.003906 121.644531 96.957031 121.402344 96.863281 C 121.164062 96.765625 120.960938 96.625 120.796875 96.453125 C 120.636719 96.273438 120.515625 96.0625 120.4375 95.824219 C 120.355469 95.578125 120.316406 95.3125 120.316406 95.023438 C 120.316406 94.726562 120.355469 94.457031 120.4375 94.21875 C 120.523438 93.976562 120.648438 93.769531 120.816406 93.601562 C 120.984375 93.4375 121.1875 93.308594 121.425781 93.210938 C 121.664062 93.121094 121.9375 93.070312 122.25 93.070312 C 122.5625 93.070312 122.839844 93.121094 123.078125 93.210938 C 123.316406 93.308594 123.515625 93.441406 123.675781 93.613281 C 123.839844 93.78125 123.96875 93.980469 124.054688 94.21875 C 124.144531 94.457031 124.1875 94.726562 124.1875 95.023438 Z M 123.371094 95.023438 C 123.371094 94.820312 123.34375 94.640625 123.296875 94.480469 C 123.242188 94.324219 123.171875 94.183594 123.078125 94.070312 C 122.984375 93.953125 122.867188 93.863281 122.730469 93.796875 C 122.589844 93.734375 122.429688 93.699219 122.25 93.699219 C 122.0625 93.699219 121.894531 93.734375 121.75 93.796875 C 121.613281 93.863281 121.496094 93.953125 121.402344 94.070312 C 121.308594 94.183594 121.234375 94.324219 121.1875 94.480469 C 121.144531 94.640625 121.121094 94.820312 121.121094 95.023438 C 121.121094 95.226562 121.144531 95.410156 121.199219 95.574219 C 121.246094 95.734375 121.320312 95.875 121.414062 95.996094 C 121.507812 96.113281 121.625 96.207031 121.761719 96.277344 C 121.898438 96.34375 122.058594 96.375 122.242188 96.375 C 122.4375 96.375 122.601562 96.34375 122.742188 96.277344 C 122.882812 96.207031 123.003906 96.113281 123.097656 95.996094 C 123.191406 95.875 123.261719 95.730469 123.304688 95.5625 C 123.347656 95.398438 123.371094 95.21875 123.371094 95.023438 Z M 123.371094 95.023438 "/>
<path style=" stroke:none;fill-rule:nonzero;fill:rgb(0%,0%,47.058824%);fill-opacity:1;" d="M 138.011719 18.933594 L 136.339844 15.996094 C 136.351562 16.078125 136.363281 16.15625 136.371094 16.234375 C 136.378906 16.300781 136.382812 16.371094 136.382812 16.449219 C 136.386719 16.53125 136.394531 16.609375 136.394531 16.679688 L 136.394531 18.933594 L 135.675781 18.933594 L 135.675781 15.117188 L 136.601562 15.117188 L 138.285156 18.074219 C 138.277344 18.003906 138.269531 17.925781 138.261719 17.835938 C 138.253906 17.765625 138.246094 17.6875 138.242188 17.597656 C 138.242188 17.511719 138.242188 17.421875 138.242188 17.328125 L 138.242188 15.117188 L 138.949219 15.117188 L 138.949219 18.933594 Z M 138.011719 18.933594 "/>
<path style=" stroke:none;fill-rule:nonzero;fill:rgb(0%,0%,0%);fill-opacity:1;" d="M 107.578125 35.195312 C 107.578125 35.386719 107.535156 35.546875 107.457031 35.683594 C 107.382812 35.820312 107.285156 35.933594 107.152344 36.019531 C 107.023438 36.105469 106.871094 36.171875 106.695312 36.214844 C 106.527344 36.25 106.351562 36.269531 106.164062 36.269531 L 104.609375 36.269531 L 104.609375 32.453125 L 106 32.453125 C 106.210938 32.453125 106.398438 32.472656 106.566406 32.507812 C 106.734375 32.539062 106.875 32.59375 106.992188 32.671875 C 107.105469 32.742188 107.191406 32.839844 107.25 32.964844 C 107.316406 33.078125 107.347656 33.21875 107.347656 33.375 C 107.347656 33.484375 107.332031 33.585938 107.304688 33.679688 C 107.277344 33.773438 107.230469 33.859375 107.164062 33.9375 C 107.105469 34.011719 107.027344 34.078125 106.9375 34.132812 C 106.847656 34.183594 106.742188 34.226562 106.621094 34.253906 C 106.773438 34.273438 106.90625 34.3125 107.023438 34.359375 C 107.144531 34.414062 107.246094 34.480469 107.328125 34.566406 C 107.40625 34.648438 107.46875 34.742188 107.511719 34.847656 C 107.554688 34.953125 107.578125 35.066406 107.578125 35.195312 Z M 106.828125 33.441406 C 106.828125 33.230469 106.753906 33.082031 106.609375 32.996094 C 106.472656 32.910156 106.269531 32.867188 106 32.867188 L 105.132812 32.867188 L 105.132812 34.070312 L 106 34.070312 C 106.152344 34.070312 106.277344 34.054688 106.382812 34.023438 C 106.492188 34 106.578125 33.957031 106.644531 33.90625 C 106.707031 33.847656 106.753906 33.78125 106.785156 33.699219 C 106.8125 33.621094 106.828125 33.535156 106.828125 33.441406 Z M 107.046875 35.152344 C 107.046875 35.03125 107.023438 34.929688 106.980469 34.847656 C 106.9375 34.761719 106.871094 34.695312 106.785156 34.644531 C 106.703125 34.585938 106.605469 34.546875 106.492188 34.523438 C 106.375 34.496094 106.242188 34.480469 106.097656 34.480469 L 105.132812 34.480469 L 105.132812 35.855469 L 106.144531 35.855469 C 106.273438 35.855469 106.394531 35.84375 106.5 35.824219 C 106.617188 35.800781 106.714844 35.765625 106.796875 35.714844 C 106.875 35.660156 106.9375 35.585938 106.980469 35.5 C 107.023438 35.40625 107.046875 35.289062 107.046875 35.152344 Z M 107.046875 35.152344 "/>
<path style=" stroke:none;fill-rule:nonzero;fill:rgb(0%,0%,0%);fill-opacity:1;" d="M 108.410156 36.269531 L 108.410156 34.015625 C 108.410156 33.957031 108.402344 33.894531 108.398438 33.832031 C 108.398438 33.765625 108.398438 33.707031 108.398438 33.644531 C 108.398438 33.589844 108.394531 33.535156 108.386719 33.484375 C 108.386719 33.425781 108.386719 33.375 108.386719 33.332031 L 108.855469 33.332031 C 108.855469 33.375 108.855469 33.425781 108.855469 33.484375 C 108.859375 33.535156 108.867188 33.589844 108.867188 33.644531 C 108.867188 33.699219 108.867188 33.75 108.867188 33.808594 C 108.871094 33.859375 108.875 33.902344 108.875 33.9375 L 108.886719 33.9375 C 108.914062 33.824219 108.945312 33.726562 108.984375 33.644531 C 109.027344 33.558594 109.074219 33.492188 109.125 33.441406 C 109.183594 33.390625 109.25 33.351562 109.320312 33.320312 C 109.390625 33.292969 109.480469 33.277344 109.582031 33.277344 C 109.617188 33.277344 109.652344 33.28125 109.691406 33.289062 C 109.726562 33.296875 109.757812 33.304688 109.777344 33.308594 L 109.777344 33.753906 C 109.75 33.75 109.714844 33.742188 109.667969 33.742188 C 109.625 33.738281 109.574219 33.734375 109.515625 33.734375 C 109.410156 33.734375 109.3125 33.757812 109.234375 33.808594 C 109.152344 33.859375 109.089844 33.925781 109.039062 34.015625 C 108.988281 34.101562 108.953125 34.210938 108.929688 34.339844 C 108.910156 34.464844 108.898438 34.597656 108.898438 34.742188 L 108.898438 36.269531 Z M 108.410156 36.269531 "/>
<path style=" stroke:none;fill-rule:nonzero;fill:rgb(0%,0%,0%);fill-opacity:1;" d="M 169.332031 69.015625 C 169.332031 69.316406 169.289062 69.585938 169.199219 69.832031 C 169.113281 70.078125 168.984375 70.285156 168.820312 70.457031 C 168.660156 70.632812 168.460938 70.765625 168.222656 70.859375 C 167.988281 70.953125 167.726562 71 167.429688 71 C 167.109375 71 166.832031 70.953125 166.59375 70.859375 C 166.359375 70.757812 166.164062 70.621094 166.003906 70.449219 C 165.84375 70.269531 165.726562 70.058594 165.648438 69.820312 C 165.566406 69.574219 165.527344 69.308594 165.527344 69.015625 C 165.527344 68.722656 165.566406 68.453125 165.648438 68.214844 C 165.734375 67.972656 165.855469 67.765625 166.015625 67.597656 C 166.183594 67.433594 166.378906 67.304688 166.613281 67.207031 C 166.851562 67.117188 167.125 67.066406 167.429688 67.066406 C 167.734375 67.066406 168.003906 67.117188 168.242188 67.207031 C 168.484375 67.304688 168.679688 67.433594 168.84375 67.609375 C 169 67.777344 169.117188 67.976562 169.199219 68.214844 C 169.289062 68.453125 169.332031 68.722656 169.332031 69.015625 Z M 168.796875 69.015625 C 168.796875 68.789062 168.769531 68.578125 168.710938 68.390625 C 168.652344 68.203125 168.566406 68.042969 168.449219 67.914062 C 168.332031 67.777344 168.191406 67.671875 168.015625 67.597656 C 167.847656 67.527344 167.652344 67.488281 167.429688 67.488281 C 167.203125 67.488281 167.003906 67.527344 166.832031 67.597656 C 166.65625 67.671875 166.511719 67.777344 166.398438 67.914062 C 166.289062 68.042969 166.203125 68.203125 166.148438 68.390625 C 166.085938 68.578125 166.058594 68.789062 166.058594 69.015625 C 166.058594 69.25 166.085938 69.460938 166.148438 69.65625 C 166.203125 69.847656 166.289062 70.007812 166.40625 70.144531 C 166.523438 70.28125 166.664062 70.390625 166.832031 70.46875 C 167.003906 70.542969 167.203125 70.578125 167.429688 70.578125 C 167.667969 70.578125 167.875 70.542969 168.046875 70.46875 C 168.222656 70.390625 168.363281 70.28125 168.472656 70.144531 C 168.582031 70 168.660156 69.835938 168.710938 69.644531 C 168.769531 69.449219 168.796875 69.242188 168.796875 69.015625 Z M 168.796875 69.015625 "/>
<path style=" stroke:none;fill-rule:nonzero;fill:rgb(0%,0%,0%);fill-opacity:1;" d="M 182.597656 58.820312 C 182.378906 58.820312 182.1875 58.859375 182.023438 58.929688 C 181.851562 59.003906 181.710938 59.109375 181.597656 59.242188 C 181.488281 59.375 181.40625 59.535156 181.347656 59.722656 C 181.289062 59.910156 181.261719 60.117188 181.261719 60.347656 C 181.261719 60.582031 181.289062 60.792969 181.347656 60.988281 C 181.414062 61.179688 181.503906 61.339844 181.621094 61.476562 C 181.734375 61.613281 181.875 61.722656 182.042969 61.800781 C 182.21875 61.875 182.40625 61.910156 182.621094 61.910156 C 182.773438 61.910156 182.90625 61.894531 183.023438 61.855469 C 183.144531 61.8125 183.253906 61.753906 183.359375 61.683594 C 183.460938 61.613281 183.546875 61.527344 183.621094 61.433594 C 183.699219 61.339844 183.765625 61.230469 183.824219 61.109375 L 184.25 61.324219 C 184.183594 61.472656 184.101562 61.601562 184 61.726562 C 183.894531 61.851562 183.777344 61.957031 183.640625 62.050781 C 183.503906 62.136719 183.347656 62.207031 183.171875 62.257812 C 183 62.304688 182.808594 62.332031 182.597656 62.332031 C 182.285156 62.332031 182.011719 62.285156 181.78125 62.191406 C 181.550781 62.089844 181.351562 61.953125 181.195312 61.78125 C 181.042969 61.601562 180.925781 61.390625 180.847656 61.152344 C 180.765625 60.90625 180.726562 60.640625 180.726562 60.347656 C 180.726562 60.054688 180.765625 59.785156 180.847656 59.546875 C 180.933594 59.304688 181.058594 59.097656 181.21875 58.929688 C 181.375 58.765625 181.570312 58.632812 181.804688 58.539062 C 182.035156 58.449219 182.300781 58.398438 182.597656 58.398438 C 183.003906 58.398438 183.339844 58.480469 183.609375 58.636719 C 183.882812 58.796875 184.085938 59.035156 184.21875 59.351562 L 183.726562 59.515625 C 183.691406 59.421875 183.640625 59.335938 183.574219 59.253906 C 183.515625 59.167969 183.441406 59.097656 183.347656 59.039062 C 183.253906 58.972656 183.144531 58.925781 183.023438 58.886719 C 182.898438 58.84375 182.753906 58.820312 182.597656 58.820312 Z M 182.597656 58.820312 "/>
<path style=" stroke:none;fill-rule:nonzero;fill:rgb(0%,0%,47.058824%);fill-opacity:1;" d="M 166.808594 112.546875 C 166.808594 112.847656 166.761719 113.117188 166.667969 113.359375 C 166.582031 113.605469 166.453125 113.816406 166.289062 113.988281 C 166.121094 114.164062 165.917969 114.296875 165.679688 114.390625 C 165.441406 114.480469 165.167969 114.53125 164.863281 114.53125 C 164.542969 114.53125 164.265625 114.480469 164.027344 114.390625 C 163.789062 114.289062 163.585938 114.152344 163.417969 113.976562 C 163.257812 113.800781 163.140625 113.589844 163.058594 113.351562 C 162.980469 113.105469 162.941406 112.835938 162.941406 112.546875 C 162.941406 112.253906 162.980469 111.984375 163.058594 111.746094 C 163.148438 111.503906 163.273438 111.296875 163.441406 111.128906 C 163.605469 110.964844 163.808594 110.832031 164.050781 110.738281 C 164.289062 110.644531 164.5625 110.597656 164.875 110.597656 C 165.183594 110.597656 165.460938 110.644531 165.699219 110.738281 C 165.941406 110.832031 166.136719 110.964844 166.296875 111.140625 C 166.464844 111.308594 166.59375 111.507812 166.679688 111.746094 C 166.765625 111.984375 166.808594 112.253906 166.808594 112.546875 Z M 165.996094 112.546875 C 165.996094 112.347656 165.96875 112.164062 165.917969 112.007812 C 165.867188 111.847656 165.792969 111.710938 165.699219 111.59375 C 165.605469 111.480469 165.488281 111.386719 165.351562 111.324219 C 165.214844 111.257812 165.054688 111.226562 164.875 111.226562 C 164.683594 111.226562 164.519531 111.257812 164.375 111.324219 C 164.238281 111.386719 164.121094 111.480469 164.027344 111.59375 C 163.933594 111.710938 163.859375 111.847656 163.808594 112.007812 C 163.765625 112.164062 163.746094 112.347656 163.746094 112.546875 C 163.746094 112.75 163.769531 112.933594 163.820312 113.101562 C 163.871094 113.261719 163.941406 113.402344 164.039062 113.523438 C 164.128906 113.640625 164.246094 113.734375 164.386719 113.804688 C 164.523438 113.871094 164.683594 113.902344 164.863281 113.902344 C 165.058594 113.902344 165.226562 113.871094 165.363281 113.804688 C 165.507812 113.734375 165.628906 113.640625 165.722656 113.523438 C 165.816406 113.402344 165.886719 113.257812 165.929688 113.089844 C 165.972656 112.925781 165.996094 112.742188 165.996094 112.546875 Z M 165.996094 112.546875 "/>
<path style=" stroke:none;fill-rule:nonzero;fill:rgb(0%,0%,47.058824%);fill-opacity:1;" d="M 181.867188 138.550781 C 181.867188 138.851562 181.816406 139.121094 181.726562 139.363281 C 181.640625 139.613281 181.511719 139.820312 181.34375 139.992188 C 181.175781 140.167969 180.976562 140.300781 180.738281 140.394531 C 180.496094 140.488281 180.226562 140.535156 179.921875 140.535156 C 179.601562 140.535156 179.324219 140.488281 179.085938 140.394531 C 178.84375 140.292969 178.640625 140.15625 178.476562 139.984375 C 178.316406 139.804688 178.195312 139.59375 178.117188 139.355469 C 178.035156 139.109375 177.996094 138.84375 177.996094 138.550781 C 177.996094 138.257812 178.035156 137.988281 178.117188 137.75 C 178.203125 137.507812 178.328125 137.300781 178.496094 137.132812 C 178.664062 136.96875 178.867188 136.835938 179.105469 136.742188 C 179.34375 136.652344 179.621094 136.601562 179.933594 136.601562 C 180.242188 136.601562 180.519531 136.652344 180.757812 136.742188 C 180.996094 136.835938 181.195312 136.96875 181.355469 137.144531 C 181.523438 137.3125 181.648438 137.511719 181.738281 137.75 C 181.824219 137.988281 181.867188 138.257812 181.867188 138.550781 Z M 181.050781 138.550781 C 181.050781 138.351562 181.023438 138.171875 180.976562 138.011719 C 180.925781 137.851562 180.851562 137.714844 180.757812 137.597656 C 180.664062 137.484375 180.546875 137.394531 180.410156 137.328125 C 180.273438 137.261719 180.113281 137.230469 179.933594 137.230469 C 179.742188 137.230469 179.578125 137.261719 179.433594 137.328125 C 179.292969 137.394531 179.175781 137.484375 179.085938 137.597656 C 178.988281 137.714844 178.917969 137.851562 178.867188 138.011719 C 178.824219 138.171875 178.800781 138.351562 178.800781 138.550781 C 178.800781 138.753906 178.828125 138.941406 178.878906 139.105469 C 178.925781 139.265625 179 139.40625 179.09375 139.527344 C 179.1875 139.644531 179.304688 139.738281 179.445312 139.808594 C 179.578125 139.875 179.738281 139.90625 179.921875 139.90625 C 180.117188 139.90625 180.28125 139.875 180.421875 139.808594 C 180.566406 139.738281 180.683594 139.644531 180.78125 139.527344 C 180.871094 139.40625 180.941406 139.261719 180.988281 139.09375 C 181.03125 138.929688 181.050781 138.746094 181.050781 138.550781 Z M 181.050781 138.550781 "/>
<path style=" stroke:none;fill-rule:nonzero;fill:rgb(0%,0%,0%);fill-opacity:1;" d="M 195.097656 163.027344 C 194.882812 163.027344 194.6875 163.066406 194.523438 163.136719 C 194.355469 163.210938 194.210938 163.316406 194.097656 163.453125 C 193.988281 163.582031 193.90625 163.742188 193.847656 163.929688 C 193.789062 164.117188 193.761719 164.328125 193.761719 164.558594 C 193.761719 164.789062 193.789062 165 193.847656 165.195312 C 193.914062 165.386719 194.003906 165.546875 194.121094 165.683594 C 194.234375 165.820312 194.375 165.929688 194.542969 166.007812 C 194.71875 166.082031 194.910156 166.117188 195.121094 166.117188 C 195.273438 166.117188 195.40625 166.101562 195.523438 166.0625 C 195.644531 166.019531 195.757812 165.960938 195.859375 165.890625 C 195.960938 165.820312 196.046875 165.734375 196.121094 165.640625 C 196.199219 165.546875 196.265625 165.441406 196.328125 165.316406 L 196.75 165.53125 C 196.683594 165.679688 196.601562 165.8125 196.5 165.933594 C 196.398438 166.058594 196.277344 166.164062 196.140625 166.257812 C 196.003906 166.34375 195.847656 166.414062 195.675781 166.464844 C 195.5 166.511719 195.308594 166.539062 195.097656 166.539062 C 194.785156 166.539062 194.515625 166.492188 194.285156 166.398438 C 194.050781 166.296875 193.855469 166.160156 193.695312 165.988281 C 193.542969 165.808594 193.425781 165.597656 193.347656 165.359375 C 193.265625 165.113281 193.230469 164.847656 193.230469 164.558594 C 193.230469 164.261719 193.265625 163.992188 193.347656 163.753906 C 193.4375 163.511719 193.558594 163.304688 193.71875 163.136719 C 193.875 162.972656 194.070312 162.84375 194.304688 162.746094 C 194.535156 162.65625 194.800781 162.605469 195.097656 162.605469 C 195.503906 162.605469 195.839844 162.6875 196.109375 162.84375 C 196.382812 163.003906 196.585938 163.242188 196.71875 163.558594 L 196.230469 163.722656 C 196.191406 163.628906 196.140625 163.542969 196.078125 163.460938 C 196.015625 163.375 195.941406 163.304688 195.847656 163.246094 C 195.753906 163.179688 195.644531 163.132812 195.523438 163.09375 C 195.398438 163.050781 195.257812 163.027344 195.097656 163.027344 Z M 195.097656 163.027344 "/>
<path style=" stroke:none;fill-rule:nonzero;fill:rgb(0%,0%,0%);fill-opacity:1;" d="M 164.359375 163.097656 C 164.140625 163.097656 163.949219 163.136719 163.78125 163.207031 C 163.613281 163.28125 163.472656 163.386719 163.359375 163.523438 C 163.25 163.652344 163.167969 163.8125 163.109375 164 C 163.050781 164.1875 163.023438 164.398438 163.023438 164.628906 C 163.023438 164.859375 163.050781 165.070312 163.109375 165.265625 C 163.175781 165.457031 163.265625 165.617188 163.378906 165.753906 C 163.496094 165.890625 163.636719 166 163.804688 166.078125 C 163.980469 166.152344 164.167969 166.1875 164.378906 166.1875 C 164.53125 166.1875 164.664062 166.171875 164.78125 166.132812 C 164.90625 166.089844 165.015625 166.03125 165.121094 165.960938 C 165.21875 165.890625 165.308594 165.804688 165.378906 165.710938 C 165.460938 165.617188 165.527344 165.511719 165.585938 165.386719 L 166.011719 165.601562 C 165.945312 165.75 165.863281 165.882812 165.761719 166.003906 C 165.65625 166.128906 165.539062 166.234375 165.402344 166.328125 C 165.261719 166.414062 165.109375 166.484375 164.933594 166.535156 C 164.761719 166.582031 164.566406 166.609375 164.359375 166.609375 C 164.046875 166.609375 163.773438 166.5625 163.542969 166.46875 C 163.308594 166.367188 163.113281 166.230469 162.957031 166.058594 C 162.804688 165.878906 162.6875 165.667969 162.609375 165.429688 C 162.527344 165.183594 162.488281 164.917969 162.488281 164.628906 C 162.488281 164.332031 162.527344 164.0625 162.609375 163.824219 C 162.695312 163.582031 162.820312 163.375 162.980469 163.207031 C 163.136719 163.042969 163.332031 162.914062 163.566406 162.816406 C 163.796875 162.726562 164.058594 162.675781 164.359375 162.675781 C 164.765625 162.675781 165.101562 162.757812 165.371094 162.914062 C 165.644531 163.074219 165.847656 163.3125 165.976562 163.628906 L 165.488281 163.792969 C 165.449219 163.699219 165.402344 163.613281 165.335938 163.53125 C 165.277344 163.445312 165.199219 163.375 165.109375 163.316406 C 165.015625 163.25 164.90625 163.203125 164.78125 163.164062 C 164.65625 163.121094 164.515625 163.097656 164.359375 163.097656 Z M 164.359375 163.097656 "/>
<path style=" stroke:none;fill-rule:nonzero;fill:rgb(0%,0%,0%);fill-opacity:1;" d="M 166.769531 166.554688 L 166.769531 162.535156 L 167.257812 162.535156 L 167.257812 166.554688 Z M 166.769531 166.554688 "/>
<path style=" stroke:none;fill-rule:nonzero;fill:rgb(0%,0%,0%);fill-opacity:1;" d="M 104.375 131.808594 L 104.375 127.992188 L 104.898438 127.992188 L 104.898438 131.808594 Z M 104.375 131.808594 "/>
<path style="fill:none;stroke-width:0.06;stroke-linecap:butt;stroke-linejoin:miter;stroke:rgb(0%,0%,47.058824%);stroke-opacity:1;stroke-miterlimit:10;" d="M 1.740402 2.137966 L 0.851028 2.651474 " transform="matrix(17.388451,0,0,17.33631,17.147259,17.025411)"/>
<path style="fill:none;stroke-width:0.06;stroke-linecap:butt;stroke-linejoin:miter;stroke:rgb(0%,0%,47.058824%);stroke-opacity:1;stroke-miterlimit:10;" d="M 1.73209 2.142697 L 2.598101 2.642687 " transform="matrix(17.388451,0,0,17.33631,17.147259,17.025411)"/>
<path style="fill:none;stroke-width:0.06;stroke-linecap:butt;stroke-linejoin:miter;stroke:rgb(0%,0%,47.058824%);stroke-opacity:1;stroke-miterlimit:10;" d="M 1.73209 2.335348 L 2.431414 2.739124 " transform="matrix(17.388451,0,0,17.33631,17.147259,17.025411)"/>
<path style="fill:none;stroke-width:0.06;stroke-linecap:butt;stroke-linejoin:miter;stroke:rgb(0%,0%,47.058824%);stroke-opacity:1;stroke-miterlimit:10;" d="M 0.866079 2.625337 L 0.866079 3.64289 " transform="matrix(17.388451,0,0,17.33631,17.147259,17.025411)"/>
<path style="fill:none;stroke-width:0.06;stroke-linecap:butt;stroke-linejoin:miter;stroke:rgb(0%,0%,47.058824%);stroke-opacity:1;stroke-miterlimit:10;" d="M 1.032766 2.721775 L 1.032766 3.546678 " transform="matrix(17.388451,0,0,17.33631,17.147259,17.025411)"/>
<path style="fill:none;stroke-width:0.06;stroke-linecap:butt;stroke-linejoin:miter;stroke:rgb(0%,0%,47.058824%);stroke-opacity:1;stroke-miterlimit:10;" d="M 0.851028 3.634103 L 1.747141 4.151442 " transform="matrix(17.388451,0,0,17.33631,17.147259,17.025411)"/>
<path style="fill:none;stroke-width:0.06;stroke-linecap:butt;stroke-linejoin:miter;stroke:rgb(0%,0%,47.058824%);stroke-opacity:1;stroke-miterlimit:10;" d="M 1.717264 4.151442 L 2.598101 3.64289 " transform="matrix(17.388451,0,0,17.33631,17.147259,17.025411)"/>
<path style="fill:none;stroke-width:0.06;stroke-linecap:butt;stroke-linejoin:miter;stroke:rgb(0%,0%,47.058824%);stroke-opacity:1;stroke-miterlimit:10;" d="M 1.717264 3.959242 L 2.431414 3.546678 " transform="matrix(17.388451,0,0,17.33631,17.147259,17.025411)"/>
<path style="fill:none;stroke-width:0.06;stroke-linecap:butt;stroke-linejoin:miter;stroke:rgb(0%,0%,47.058824%);stroke-opacity:1;stroke-miterlimit:10;" d="M 2.598101 3.652354 L 2.598101 2.625337 " transform="matrix(17.388451,0,0,17.33631,17.147259,17.025411)"/>
<path style="fill:none;stroke-width:0.06;stroke-linecap:butt;stroke-linejoin:miter;stroke:rgb(0%,0%,47.058824%);stroke-opacity:1;stroke-miterlimit:10;" d="M 2.58305 2.651474 L 3.479164 2.134135 " transform="matrix(17.388451,0,0,17.33631,17.147259,17.025411)"/>
<path style="fill:none;stroke-width:0.0333333;stroke-linecap:butt;stroke-linejoin:miter;stroke:rgb(0%,0%,0%);stroke-opacity:1;stroke-miterlimit:10;" d="M 2.589565 3.638159 L 3.29428 4.044639 " transform="matrix(17.388451,0,0,17.33631,17.147259,17.025411)"/>
<path style="fill:none;stroke-width:0.0333333;stroke-linecap:butt;stroke-linejoin:miter;stroke:rgb(0%,0%,0%);stroke-opacity:1;stroke-miterlimit:10;" d="M 1.73209 2.152386 L 1.73209 1.296163 " transform="matrix(17.388451,0,0,17.33631,17.147259,17.025411)"/>
<path style="fill:none;stroke-width:0.06;stroke-linecap:butt;stroke-linejoin:miter;stroke:rgb(0%,0%,47.058824%);stroke-opacity:1;stroke-miterlimit:10;" d="M 0.88113 3.634103 L 0.172371 4.043287 " transform="matrix(17.388451,0,0,17.33631,17.147259,17.025411)"/>
<path style="fill:none;stroke-width:0.0333333;stroke-linecap:butt;stroke-linejoin:miter;stroke:rgb(0%,0%,0%);stroke-opacity:1;stroke-miterlimit:10;" d="M 2.061422 0.952547 L 2.415689 0.74818 " transform="matrix(17.388451,0,0,17.33631,17.147259,17.025411)"/>
<path style="fill:none;stroke-width:0.0333333;stroke-linecap:butt;stroke-linejoin:miter;stroke:rgb(0%,0%,0%);stroke-opacity:1;stroke-miterlimit:10;" d="M 1.607861 0.974854 L 1.090051 0.675852 " transform="matrix(17.388451,0,0,17.33631,17.147259,17.025411)"/>
<path style="fill:none;stroke-width:0.0333333;stroke-linecap:butt;stroke-linejoin:miter;stroke:rgb(0%,0%,0%);stroke-opacity:1;stroke-miterlimit:10;" d="M 1.524517 1.119285 L 1.006932 0.820283 " transform="matrix(17.388451,0,0,17.33631,17.147259,17.025411)"/>
<path style="fill:none;stroke-width:0.06;stroke-linecap:butt;stroke-linejoin:miter;stroke:rgb(0%,0%,47.058824%);stroke-opacity:1;stroke-miterlimit:10;" d="M 3.547456 2.190916 L 3.547456 1.299543 " transform="matrix(17.388451,0,0,17.33631,17.147259,17.025411)"/>
<path style="fill:none;stroke-width:0.06;stroke-linecap:butt;stroke-linejoin:miter;stroke:rgb(0%,0%,47.058824%);stroke-opacity:1;stroke-miterlimit:10;" d="M 3.380769 2.190916 L 3.380769 1.299543 " transform="matrix(17.388451,0,0,17.33631,17.147259,17.025411)"/>
<path style="fill:none;stroke-width:0.06;stroke-linecap:butt;stroke-linejoin:miter;stroke:rgb(0%,0%,47.058824%);stroke-opacity:1;stroke-miterlimit:10;" d="M 3.449286 2.134135 L 4.146363 2.536785 " transform="matrix(17.388451,0,0,17.33631,17.147259,17.025411)"/>
<path style="fill:none;stroke-width:0.06;stroke-linecap:butt;stroke-linejoin:miter;stroke:rgb(0%,0%,47.058824%);stroke-opacity:1;stroke-miterlimit:10;" d="M 2.425573 6.027247 L 1.53822 6.539403 " transform="matrix(17.388451,0,0,17.33631,17.147259,17.025411)"/>
<path style="fill:none;stroke-width:0.06;stroke-linecap:butt;stroke-linejoin:miter;stroke:rgb(0%,0%,47.058824%);stroke-opacity:1;stroke-miterlimit:10;" d="M 2.395695 6.027247 L 3.276758 6.535798 " transform="matrix(17.388451,0,0,17.33631,17.147259,17.025411)"/>
<path style="fill:none;stroke-width:0.06;stroke-linecap:butt;stroke-linejoin:miter;stroke:rgb(0%,0%,47.058824%);stroke-opacity:1;stroke-miterlimit:10;" d="M 2.395695 6.219446 L 3.11007 6.632011 " transform="matrix(17.388451,0,0,17.33631,17.147259,17.025411)"/>
<path style="fill:none;stroke-width:0.06;stroke-linecap:butt;stroke-linejoin:miter;stroke:rgb(0%,0%,47.058824%);stroke-opacity:1;stroke-miterlimit:10;" d="M 1.533054 7.529017 L 2.425573 8.044328 " transform="matrix(17.388451,0,0,17.33631,17.147259,17.025411)"/>
<path style="fill:none;stroke-width:0.06;stroke-linecap:butt;stroke-linejoin:miter;stroke:rgb(0%,0%,47.058824%);stroke-opacity:1;stroke-miterlimit:10;" d="M 2.395695 8.044328 L 3.291584 7.527214 " transform="matrix(17.388451,0,0,17.33631,17.147259,17.025411)"/>
<path style="fill:none;stroke-width:0.06;stroke-linecap:butt;stroke-linejoin:miter;stroke:rgb(0%,0%,47.058824%);stroke-opacity:1;stroke-miterlimit:10;" d="M 2.395695 7.851903 L 3.125121 7.431002 " transform="matrix(17.388451,0,0,17.33631,17.147259,17.025411)"/>
<path style="fill:none;stroke-width:0.06;stroke-linecap:butt;stroke-linejoin:miter;stroke:rgb(0%,0%,47.058824%);stroke-opacity:1;stroke-miterlimit:10;" d="M 3.276758 7.553126 L 3.276758 6.518448 " transform="matrix(17.388451,0,0,17.33631,17.147259,17.025411)"/>
<path style="fill:none;stroke-width:0.06;stroke-linecap:butt;stroke-linejoin:miter;stroke:rgb(0%,0%,47.058824%);stroke-opacity:1;stroke-miterlimit:10;" d="M 0.572691 7.851453 L 1.557315 7.531721 " transform="matrix(17.388451,0,0,17.33631,17.147259,17.025411)"/>
<path style="fill:none;stroke-width:0.06;stroke-linecap:butt;stroke-linejoin:miter;stroke:rgb(0%,0%,47.058824%);stroke-opacity:1;stroke-miterlimit:10;" d="M 1.544735 6.535798 L 1.544735 7.535777 " transform="matrix(17.388451,0,0,17.33631,17.147259,17.025411)"/>
<path style="fill:none;stroke-width:0.06;stroke-linecap:butt;stroke-linejoin:miter;stroke:rgb(0%,0%,47.058824%);stroke-opacity:1;stroke-miterlimit:10;" d="M 1.711198 6.632011 L 1.711198 7.439564 " transform="matrix(17.388451,0,0,17.33631,17.147259,17.025411)"/>
<path style="fill:none;stroke-width:0.0333333;stroke-linecap:butt;stroke-linejoin:miter;stroke:rgb(0%,0%,0%);stroke-opacity:1;stroke-miterlimit:10;" d="M 0.581902 6.223051 L 1.551699 6.538051 " transform="matrix(17.388451,0,0,17.33631,17.147259,17.025411)"/>
<path style="fill:none;stroke-width:0.0333333;stroke-linecap:butt;stroke-linejoin:miter;stroke:rgb(0%,0%,0%);stroke-opacity:1;stroke-miterlimit:10;" d="M 0.600772 6.216968 L 0.133732 6.859586 " transform="matrix(17.388451,0,0,17.33631,17.147259,17.025411)"/>
<path style="fill:none;stroke-width:0.06;stroke-linecap:butt;stroke-linejoin:miter;stroke:rgb(0%,0%,47.058824%);stroke-opacity:1;stroke-miterlimit:10;" d="M 0.133732 7.211764 L 0.606388 7.862268 " transform="matrix(17.388451,0,0,17.33631,17.147259,17.025411)"/>
<path style="fill:none;stroke-width:0.06;stroke-linecap:butt;stroke-linejoin:miter;stroke:rgb(0%,0%,47.058824%);stroke-opacity:1;stroke-miterlimit:10;" d="M 0.533153 7.761324 L 0.266274 8.582848 " transform="matrix(17.388451,0,0,17.33631,17.147259,17.025411)"/>
<path style="fill:none;stroke-width:0.06;stroke-linecap:butt;stroke-linejoin:miter;stroke:rgb(0%,0%,47.058824%);stroke-opacity:1;stroke-miterlimit:10;" d="M 0.691529 7.812923 L 0.424649 8.634446 " transform="matrix(17.388451,0,0,17.33631,17.147259,17.025411)"/>
<path style="fill:none;stroke-width:0.06;stroke-linecap:butt;stroke-linejoin:miter;stroke:rgb(0%,0%,47.058824%);stroke-opacity:1;stroke-miterlimit:10;" d="M 3.261706 6.54436 L 4.151081 6.030852 " transform="matrix(17.388451,0,0,17.33631,17.147259,17.025411)"/>
<path style="fill:none;stroke-width:0.0333333;stroke-linecap:butt;stroke-linejoin:miter;stroke:rgb(0%,0%,0%);stroke-opacity:1;stroke-miterlimit:10;" d="M 4.142544 6.045498 L 4.142544 5.192429 " transform="matrix(17.388451,0,0,17.33631,17.147259,17.025411)"/>
<path style="fill:none;stroke-width:0.0333333;stroke-linecap:butt;stroke-linejoin:miter;stroke:rgb(0%,0%,0%);stroke-opacity:1;stroke-miterlimit:10;" d="M 3.976081 5.949285 L 3.976081 5.192429 " transform="matrix(17.388451,0,0,17.33631,17.147259,17.025411)"/>
<path style="fill:none;stroke-width:0.06;stroke-linecap:butt;stroke-linejoin:miter;stroke:rgb(0%,0%,47.058824%);stroke-opacity:1;stroke-miterlimit:10;" d="M 6.925686 0.991302 L 6.036312 1.504811 " transform="matrix(17.388451,0,0,17.33631,17.147259,17.025411)"/>
<path style="fill:none;stroke-width:0.06;stroke-linecap:butt;stroke-linejoin:miter;stroke:rgb(0%,0%,47.058824%);stroke-opacity:1;stroke-miterlimit:10;" d="M 6.910635 0.999865 L 7.791697 1.508642 " transform="matrix(17.388451,0,0,17.33631,17.147259,17.025411)"/>
<path style="fill:none;stroke-width:0.06;stroke-linecap:butt;stroke-linejoin:miter;stroke:rgb(0%,0%,47.058824%);stroke-opacity:1;stroke-miterlimit:10;" d="M 6.910635 1.192515 L 7.62501 1.604854 " transform="matrix(17.388451,0,0,17.33631,17.147259,17.025411)"/>
<path style="fill:none;stroke-width:0.06;stroke-linecap:butt;stroke-linejoin:miter;stroke:rgb(0%,0%,47.058824%);stroke-opacity:1;stroke-miterlimit:10;" d="M 6.044624 1.499854 L 6.044624 2.517408 " transform="matrix(17.388451,0,0,17.33631,17.147259,17.025411)"/>
<path style="fill:none;stroke-width:0.06;stroke-linecap:butt;stroke-linejoin:miter;stroke:rgb(0%,0%,47.058824%);stroke-opacity:1;stroke-miterlimit:10;" d="M 6.211311 1.596292 L 6.211311 2.42097 " transform="matrix(17.388451,0,0,17.33631,17.147259,17.025411)"/>
<path style="fill:none;stroke-width:0.06;stroke-linecap:butt;stroke-linejoin:miter;stroke:rgb(0%,0%,47.058824%);stroke-opacity:1;stroke-miterlimit:10;" d="M 6.029572 2.49127 L 6.925686 3.008609 " transform="matrix(17.388451,0,0,17.33631,17.147259,17.025411)"/>
<path style="fill:none;stroke-width:0.06;stroke-linecap:butt;stroke-linejoin:miter;stroke:rgb(0%,0%,47.058824%);stroke-opacity:1;stroke-miterlimit:10;" d="M 6.910635 3.000047 L 7.776646 2.500058 " transform="matrix(17.388451,0,0,17.33631,17.147259,17.025411)"/>
<path style="fill:none;stroke-width:0.06;stroke-linecap:butt;stroke-linejoin:miter;stroke:rgb(0%,0%,47.058824%);stroke-opacity:1;stroke-miterlimit:10;" d="M 6.910635 2.807622 L 7.610183 2.40362 " transform="matrix(17.388451,0,0,17.33631,17.147259,17.025411)"/>
<path style="fill:none;stroke-width:0.06;stroke-linecap:butt;stroke-linejoin:miter;stroke:rgb(0%,0%,47.058824%);stroke-opacity:1;stroke-miterlimit:10;" d="M 7.776646 2.509747 L 7.776646 1.482729 " transform="matrix(17.388451,0,0,17.33631,17.147259,17.025411)"/>
<path style="fill:none;stroke-width:0.06;stroke-linecap:butt;stroke-linejoin:miter;stroke:rgb(0%,0%,47.058824%);stroke-opacity:1;stroke-miterlimit:10;" d="M 6.910635 2.982697 L 6.910635 4.017375 " transform="matrix(17.388451,0,0,17.33631,17.147259,17.025411)"/>
<path style="fill:none;stroke-width:0.06;stroke-linecap:butt;stroke-linejoin:miter;stroke:rgb(0%,0%,47.058824%);stroke-opacity:1;stroke-miterlimit:10;" d="M 6.895584 3.991463 L 7.592886 4.393888 " transform="matrix(17.388451,0,0,17.33631,17.147259,17.025411)"/>
<path style="fill:none;stroke-width:0.06;stroke-linecap:butt;stroke-linejoin:miter;stroke:rgb(0%,0%,47.058824%);stroke-opacity:1;stroke-miterlimit:10;" d="M 6.910635 3.903813 L 6.1866 4.321785 " transform="matrix(17.388451,0,0,17.33631,17.147259,17.025411)"/>
<path style="fill:none;stroke-width:0.06;stroke-linecap:butt;stroke-linejoin:miter;stroke:rgb(0%,0%,47.058824%);stroke-opacity:1;stroke-miterlimit:10;" d="M 6.993979 4.048019 L 6.270169 4.465991 " transform="matrix(17.388451,0,0,17.33631,17.147259,17.025411)"/>
<path style="fill:none;stroke-width:0.06;stroke-linecap:butt;stroke-linejoin:miter;stroke:rgb(0%,0%,47.058824%);stroke-opacity:1;stroke-miterlimit:10;" d="M 6.910635 1.017214 L 6.910635 0.15333 " transform="matrix(17.388451,0,0,17.33631,17.147259,17.025411)"/>
<path style="fill:none;stroke-width:0.0333333;stroke-linecap:butt;stroke-linejoin:miter;stroke:rgb(0%,0%,0%);stroke-opacity:1;stroke-miterlimit:10;" d="M 6.052936 1.504811 L 5.389106 1.121539 " transform="matrix(17.388451,0,0,17.33631,17.147259,17.025411)"/>
<path style="fill:none;stroke-width:0.0333333;stroke-linecap:butt;stroke-linejoin:miter;stroke:rgb(0%,0%,0%);stroke-opacity:1;stroke-miterlimit:10;" d="M 7.768334 2.495101 L 8.460245 2.894596 " transform="matrix(17.388451,0,0,17.33631,17.147259,17.025411)"/>
<path style="fill:none;stroke-width:0.0333333;stroke-linecap:butt;stroke-linejoin:miter;stroke:rgb(0%,0%,0%);stroke-opacity:1;stroke-miterlimit:10;" d="M 8.82507 2.894596 L 9.332546 2.601903 " transform="matrix(17.388451,0,0,17.33631,17.147259,17.025411)"/>
<path style="fill:none;stroke-width:0.06;stroke-linecap:butt;stroke-linejoin:miter;stroke:rgb(0%,0%,47.058824%);stroke-opacity:1;stroke-miterlimit:10;" d="M 6.778768 6.502225 L 5.889393 7.015959 " transform="matrix(17.388451,0,0,17.33631,17.147259,17.025411)"/>
<path style="fill:none;stroke-width:0.06;stroke-linecap:butt;stroke-linejoin:miter;stroke:rgb(0%,0%,47.058824%);stroke-opacity:1;stroke-miterlimit:10;" d="M 6.748665 6.502225 L 7.629728 7.011002 " transform="matrix(17.388451,0,0,17.33631,17.147259,17.025411)"/>
<path style="fill:none;stroke-width:0.06;stroke-linecap:butt;stroke-linejoin:miter;stroke:rgb(0%,0%,47.058824%);stroke-opacity:1;stroke-miterlimit:10;" d="M 6.748665 6.694875 L 7.46304 7.107214 " transform="matrix(17.388451,0,0,17.33631,17.147259,17.025411)"/>
<path style="fill:none;stroke-width:0.06;stroke-linecap:butt;stroke-linejoin:miter;stroke:rgb(0%,0%,47.058824%);stroke-opacity:1;stroke-miterlimit:10;" d="M 5.897705 7.011002 L 5.897705 8.02833 " transform="matrix(17.388451,0,0,17.33631,17.147259,17.025411)"/>
<path style="fill:none;stroke-width:0.06;stroke-linecap:butt;stroke-linejoin:miter;stroke:rgb(0%,0%,47.058824%);stroke-opacity:1;stroke-miterlimit:10;" d="M 6.064393 7.107214 L 6.064393 7.932118 " transform="matrix(17.388451,0,0,17.33631,17.147259,17.025411)"/>
<path style="fill:none;stroke-width:0.06;stroke-linecap:butt;stroke-linejoin:miter;stroke:rgb(0%,0%,47.058824%);stroke-opacity:1;stroke-miterlimit:10;" d="M 5.882654 8.002418 L 6.778768 8.519757 " transform="matrix(17.388451,0,0,17.33631,17.147259,17.025411)"/>
<path style="fill:none;stroke-width:0.06;stroke-linecap:butt;stroke-linejoin:miter;stroke:rgb(0%,0%,47.058824%);stroke-opacity:1;stroke-miterlimit:10;" d="M 6.748665 8.519757 L 7.629728 8.010981 " transform="matrix(17.388451,0,0,17.33631,17.147259,17.025411)"/>
<path style="fill:none;stroke-width:0.06;stroke-linecap:butt;stroke-linejoin:miter;stroke:rgb(0%,0%,47.058824%);stroke-opacity:1;stroke-miterlimit:10;" d="M 6.748665 8.327107 L 7.46304 7.914768 " transform="matrix(17.388451,0,0,17.33631,17.147259,17.025411)"/>
<path style="fill:none;stroke-width:0.06;stroke-linecap:butt;stroke-linejoin:miter;stroke:rgb(0%,0%,47.058824%);stroke-opacity:1;stroke-miterlimit:10;" d="M 7.629728 8.020669 L 7.629728 6.993652 " transform="matrix(17.388451,0,0,17.33631,17.147259,17.025411)"/>
<path style="fill:none;stroke-width:0.06;stroke-linecap:butt;stroke-linejoin:miter;stroke:rgb(0%,0%,47.058824%);stroke-opacity:1;stroke-miterlimit:10;" d="M 7.614676 7.019564 L 8.51079 6.502225 " transform="matrix(17.388451,0,0,17.33631,17.147259,17.025411)"/>
<path style="fill:none;stroke-width:0.06;stroke-linecap:butt;stroke-linejoin:miter;stroke:rgb(0%,0%,47.058824%);stroke-opacity:1;stroke-miterlimit:10;" d="M 8.579083 6.559232 L 8.579083 5.667858 " transform="matrix(17.388451,0,0,17.33631,17.147259,17.025411)"/>
<path style="fill:none;stroke-width:0.06;stroke-linecap:butt;stroke-linejoin:miter;stroke:rgb(0%,0%,47.058824%);stroke-opacity:1;stroke-miterlimit:10;" d="M 8.412395 6.559232 L 8.412395 5.667858 " transform="matrix(17.388451,0,0,17.33631,17.147259,17.025411)"/>
<path style="fill:none;stroke-width:0.06;stroke-linecap:butt;stroke-linejoin:miter;stroke:rgb(0%,0%,47.058824%);stroke-opacity:1;stroke-miterlimit:10;" d="M 8.480687 6.502225 L 9.177989 6.904875 " transform="matrix(17.388451,0,0,17.33631,17.147259,17.025411)"/>
<path style="fill:none;stroke-width:0.0333333;stroke-linecap:butt;stroke-linejoin:miter;stroke:rgb(0%,0%,0%);stroke-opacity:1;stroke-miterlimit:10;" d="M 9.36175 7.167826 L 9.36175 8.020669 " transform="matrix(17.388451,0,0,17.33631,17.147259,17.025411)"/>
<path style="fill:none;stroke-width:0.0333333;stroke-linecap:butt;stroke-linejoin:miter;stroke:rgb(0%,0%,0%);stroke-opacity:1;stroke-miterlimit:10;" d="M 9.353438 8.006249 L 10.051414 8.409124 " transform="matrix(17.388451,0,0,17.33631,17.147259,17.025411)"/>
<path style="fill:none;stroke-width:0.0333333;stroke-linecap:butt;stroke-linejoin:miter;stroke:rgb(0%,0%,0%);stroke-opacity:1;stroke-miterlimit:10;" d="M 7.621416 8.006249 L 8.290637 8.392676 " transform="matrix(17.388451,0,0,17.33631,17.147259,17.025411)"/>
<path style="fill:none;stroke-width:0.0333333;stroke-linecap:butt;stroke-linejoin:miter;stroke:rgb(0%,0%,0%);stroke-opacity:1;stroke-miterlimit:10;" d="M 5.906017 7.015959 L 5.139973 6.573652 " transform="matrix(17.388451,0,0,17.33631,17.147259,17.025411)"/>
</g>
</svg>
