<?xml version="1.0" encoding="UTF-8"?>
<svg xmlns="http://www.w3.org/2000/svg" xmlns:xlink="http://www.w3.org/1999/xlink" width="129.6pt" height="65.6pt" viewBox="0 0 129.6 65.6" version="1.1">
<g id="surface1152">
<path style=" stroke:none;fill-rule:nonzero;fill:rgb(0%,0%,0%);fill-opacity:1;" d="M 111.933594 30.277344 C 111.71875 30.277344 111.527344 30.316406 111.363281 30.386719 C 111.195312 30.460938 111.054688 30.566406 110.941406 30.699219 C 110.832031 30.832031 110.746094 30.992188 110.691406 31.179688 C 110.632812 31.367188 110.605469 31.578125 110.605469 31.808594 C 110.605469 32.042969 110.632812 32.253906 110.691406 32.449219 C 110.753906 32.640625 110.84375 32.800781 110.960938 32.9375 C 111.074219 33.078125 111.214844 33.183594 111.382812 33.261719 C 111.554688 33.335938 111.746094 33.371094 111.957031 33.371094 C 112.109375 33.371094 112.242188 33.355469 112.355469 33.316406 C 112.476562 33.273438 112.589844 33.21875 112.691406 33.144531 C 112.792969 33.074219 112.878906 32.988281 112.953125 32.894531 C 113.03125 32.800781 113.097656 32.695312 113.15625 32.570312 L 113.578125 32.785156 C 113.515625 32.933594 113.429688 33.066406 113.332031 33.1875 C 113.226562 33.3125 113.109375 33.421875 112.972656 33.511719 C 112.835938 33.601562 112.679688 33.671875 112.507812 33.71875 C 112.335938 33.769531 112.144531 33.796875 111.933594 33.796875 C 111.625 33.796875 111.351562 33.746094 111.125 33.65625 C 110.890625 33.554688 110.695312 33.414062 110.539062 33.242188 C 110.386719 33.0625 110.273438 32.851562 110.191406 32.613281 C 110.113281 32.367188 110.074219 32.097656 110.074219 31.808594 C 110.074219 31.511719 110.113281 31.242188 110.191406 31.003906 C 110.28125 30.761719 110.402344 30.554688 110.5625 30.386719 C 110.71875 30.21875 110.914062 30.089844 111.144531 29.996094 C 111.375 29.902344 111.636719 29.855469 111.933594 29.855469 C 112.335938 29.855469 112.671875 29.9375 112.941406 30.09375 C 113.214844 30.253906 113.417969 30.492188 113.546875 30.808594 L 113.058594 30.972656 C 113.023438 30.878906 112.972656 30.792969 112.910156 30.710938 C 112.847656 30.625 112.773438 30.554688 112.679688 30.496094 C 112.585938 30.429688 112.476562 30.378906 112.355469 30.34375 C 112.230469 30.300781 112.089844 30.277344 111.933594 30.277344 Z M 111.933594 30.277344 "/>
<path style=" stroke:none;fill-rule:nonzero;fill:rgb(0%,0%,0%);fill-opacity:1;" d="M 114.335938 33.742188 L 114.335938 29.714844 L 114.820312 29.714844 L 114.820312 33.742188 Z M 114.335938 33.742188 "/>
<path style=" stroke:none;fill-rule:nonzero;fill:rgb(0%,0%,0%);fill-opacity:1;" d="M 36.730469 48.140625 C 36.730469 48.4375 36.6875 48.710938 36.601562 48.953125 C 36.515625 49.199219 36.386719 49.410156 36.222656 49.582031 C 36.0625 49.757812 35.863281 49.894531 35.625 49.984375 C 35.394531 50.078125 35.132812 50.125 34.835938 50.125 C 34.519531 50.125 34.242188 50.078125 34.003906 49.984375 C 33.773438 49.882812 33.578125 49.746094 33.421875 49.574219 C 33.261719 49.394531 33.140625 49.179688 33.0625 48.941406 C 32.980469 48.699219 32.945312 48.429688 32.945312 48.140625 C 32.945312 47.84375 32.980469 47.574219 33.0625 47.335938 C 33.148438 47.089844 33.269531 46.886719 33.429688 46.714844 C 33.597656 46.550781 33.792969 46.421875 34.027344 46.324219 C 34.265625 46.234375 34.535156 46.183594 34.835938 46.183594 C 35.140625 46.183594 35.410156 46.234375 35.648438 46.324219 C 35.886719 46.421875 36.082031 46.554688 36.242188 46.726562 C 36.398438 46.894531 36.519531 47.097656 36.601562 47.335938 C 36.6875 47.574219 36.730469 47.84375 36.730469 48.140625 Z M 36.199219 48.140625 C 36.199219 47.910156 36.171875 47.699219 36.113281 47.507812 C 36.054688 47.320312 35.96875 47.160156 35.855469 47.03125 C 35.738281 46.894531 35.59375 46.789062 35.421875 46.714844 C 35.253906 46.644531 35.058594 46.609375 34.835938 46.609375 C 34.613281 46.609375 34.414062 46.644531 34.242188 46.714844 C 34.070312 46.789062 33.921875 46.894531 33.808594 47.03125 C 33.703125 47.160156 33.617188 47.320312 33.5625 47.507812 C 33.5 47.699219 33.472656 47.910156 33.472656 48.140625 C 33.472656 48.371094 33.5 48.585938 33.5625 48.78125 C 33.617188 48.96875 33.703125 49.132812 33.820312 49.269531 C 33.933594 49.40625 34.074219 49.515625 34.242188 49.59375 C 34.414062 49.667969 34.613281 49.703125 34.835938 49.703125 C 35.074219 49.703125 35.28125 49.667969 35.453125 49.59375 C 35.625 49.515625 35.765625 49.40625 35.875 49.269531 C 35.984375 49.125 36.0625 48.957031 36.113281 48.769531 C 36.171875 48.574219 36.199219 48.363281 36.199219 48.140625 Z M 36.199219 48.140625 "/>
<path style=" stroke:none;fill-rule:nonzero;fill:rgb(0%,0%,0%);fill-opacity:1;" d="M 16.496094 16.894531 C 16.28125 16.894531 16.089844 16.933594 15.921875 17.003906 C 15.753906 17.078125 15.613281 17.183594 15.5 17.320312 C 15.394531 17.449219 15.308594 17.609375 15.253906 17.796875 C 15.191406 17.988281 15.164062 18.195312 15.164062 18.425781 C 15.164062 18.660156 15.191406 18.871094 15.253906 19.066406 C 15.316406 19.257812 15.40625 19.417969 15.523438 19.554688 C 15.636719 19.695312 15.777344 19.800781 15.945312 19.882812 C 16.117188 19.953125 16.308594 19.988281 16.519531 19.988281 C 16.667969 19.988281 16.800781 19.972656 16.917969 19.933594 C 17.039062 19.890625 17.152344 19.835938 17.253906 19.761719 C 17.355469 19.691406 17.441406 19.605469 17.511719 19.511719 C 17.589844 19.417969 17.660156 19.3125 17.71875 19.1875 L 18.140625 19.402344 C 18.074219 19.550781 17.992188 19.683594 17.890625 19.804688 C 17.789062 19.929688 17.671875 20.039062 17.535156 20.128906 C 17.398438 20.21875 17.242188 20.289062 17.070312 20.335938 C 16.898438 20.386719 16.703125 20.414062 16.496094 20.414062 C 16.183594 20.414062 15.914062 20.363281 15.683594 20.273438 C 15.453125 20.171875 15.257812 20.03125 15.101562 19.859375 C 14.949219 19.679688 14.832031 19.46875 14.753906 19.230469 C 14.671875 18.984375 14.636719 18.714844 14.636719 18.425781 C 14.636719 18.128906 14.671875 17.863281 14.753906 17.621094 C 14.839844 17.378906 14.964844 17.171875 15.121094 17.003906 C 15.28125 16.839844 15.472656 16.707031 15.707031 16.613281 C 15.9375 16.519531 16.199219 16.472656 16.496094 16.472656 C 16.898438 16.472656 17.234375 16.554688 17.503906 16.710938 C 17.777344 16.871094 17.976562 17.109375 18.109375 17.425781 L 17.621094 17.589844 C 17.582031 17.496094 17.535156 17.410156 17.46875 17.328125 C 17.410156 17.242188 17.335938 17.171875 17.242188 17.113281 C 17.148438 17.046875 17.039062 17 16.917969 16.960938 C 16.792969 16.917969 16.652344 16.894531 16.496094 16.894531 Z M 16.496094 16.894531 "/>
<path style=" stroke:none;fill-rule:nonzero;fill:rgb(0%,0%,0%);fill-opacity:1;" d="M 18.898438 20.359375 L 18.898438 16.332031 L 19.382812 16.332031 L 19.382812 20.359375 Z M 18.898438 20.359375 "/>
<path style="fill:none;stroke-width:0.0333333;stroke-linecap:butt;stroke-linejoin:miter;stroke:rgb(0%,0%,0%);stroke-opacity:1;stroke-miterlimit:10;" d="M 4.00925 -0.0000926171 L 2.990014 0.0174455 " transform="matrix(17.307692,0,0,17.372881,17.011484,17.165672)"/>
<path style="fill:none;stroke-width:0.0333333;stroke-linecap:butt;stroke-linejoin:miter;stroke:rgb(0%,0%,0%);stroke-opacity:1;stroke-miterlimit:10;" d="M 3.004232 0.00912613 L 2.514701 0.891878 " transform="matrix(17.307692,0,0,17.372881,17.011484,17.165672)"/>
<path style="fill:none;stroke-width:0.0333333;stroke-linecap:butt;stroke-linejoin:miter;stroke:rgb(0%,0%,0%);stroke-opacity:1;stroke-miterlimit:10;" d="M 3.103312 0.173939 L 2.707218 0.88873 " transform="matrix(17.307692,0,0,17.372881,17.011484,17.165672)"/>
<path style="fill:none;stroke-width:0.0333333;stroke-linecap:butt;stroke-linejoin:miter;stroke:rgb(0%,0%,0%);stroke-opacity:1;stroke-miterlimit:10;" d="M 2.509736 0.883783 L 3.034701 1.757316 " transform="matrix(17.307692,0,0,17.372881,17.011484,17.165672)"/>
<path style="fill:none;stroke-width:0.0333333;stroke-linecap:butt;stroke-linejoin:miter;stroke:rgb(0%,0%,0%);stroke-opacity:1;stroke-miterlimit:10;" d="M 3.020031 1.749446 L 4.039041 1.731683 " transform="matrix(17.307692,0,0,17.372881,17.011484,17.165672)"/>
<path style="fill:none;stroke-width:0.0333333;stroke-linecap:butt;stroke-linejoin:miter;stroke:rgb(0%,0%,0%);stroke-opacity:1;stroke-miterlimit:10;" d="M 3.113468 1.581035 L 3.940187 1.56687 " transform="matrix(17.307692,0,0,17.372881,17.011484,17.165672)"/>
<path style="fill:none;stroke-width:0.0333333;stroke-linecap:butt;stroke-linejoin:miter;stroke:rgb(0%,0%,0%);stroke-opacity:1;stroke-miterlimit:10;" d="M 4.024823 1.740228 L 4.519093 0.848932 " transform="matrix(17.307692,0,0,17.372881,17.011484,17.165672)"/>
<path style="fill:none;stroke-width:0.0333333;stroke-linecap:butt;stroke-linejoin:miter;stroke:rgb(0%,0%,0%);stroke-opacity:1;stroke-miterlimit:10;" d="M 3.994354 -0.00818713 L 4.514354 0.857476 " transform="matrix(17.307692,0,0,17.372881,17.011484,17.165672)"/>
<path style="fill:none;stroke-width:0.0333333;stroke-linecap:butt;stroke-linejoin:miter;stroke:rgb(0%,0%,0%);stroke-opacity:1;stroke-miterlimit:10;" d="M 3.901142 0.159999 L 4.322062 0.860624 " transform="matrix(17.307692,0,0,17.372881,17.011484,17.165672)"/>
<path style="fill:none;stroke-width:0.0333333;stroke-linecap:butt;stroke-linejoin:miter;stroke:rgb(0%,0%,0%);stroke-opacity:1;stroke-miterlimit:10;" d="M 2.524406 0.891878 L 1.50517 0.909416 " transform="matrix(17.307692,0,0,17.372881,17.011484,17.165672)"/>
<path style="fill:none;stroke-width:0.0333333;stroke-linecap:butt;stroke-linejoin:miter;stroke:rgb(0%,0%,0%);stroke-opacity:1;stroke-miterlimit:10;" d="M 4.504875 0.857476 L 5.332045 0.843086 " transform="matrix(17.307692,0,0,17.372881,17.011484,17.165672)"/>
<path style="fill:none;stroke-width:0.0333333;stroke-linecap:butt;stroke-linejoin:miter;stroke:rgb(0%,0%,0%);stroke-opacity:1;stroke-miterlimit:10;" d="M 1.465448 0.826672 L 1.059423 1.558776 " transform="matrix(17.307692,0,0,17.372881,17.011484,17.165672)"/>
<path style="fill:none;stroke-width:0.0333333;stroke-linecap:butt;stroke-linejoin:miter;stroke:rgb(0%,0%,0%);stroke-opacity:1;stroke-miterlimit:10;" d="M 1.611246 0.907617 L 1.205222 1.639496 " transform="matrix(17.307692,0,0,17.372881,17.011484,17.165672)"/>
<path style="fill:none;stroke-width:0.0333333;stroke-linecap:butt;stroke-linejoin:miter;stroke:rgb(0%,0%,0%);stroke-opacity:1;stroke-miterlimit:10;" d="M 1.51984 0.91751 L 0.994875 0.0437527 " transform="matrix(17.307692,0,0,17.372881,17.011484,17.165672)"/>
<path style="fill:none;stroke-width:0.0333333;stroke-linecap:butt;stroke-linejoin:miter;stroke:rgb(0%,0%,0%);stroke-opacity:1;stroke-miterlimit:10;" d="M 1.009545 0.0518472 L 0.182375 0.0662374 " transform="matrix(17.307692,0,0,17.372881,17.011484,17.165672)"/>
</g>
</svg>
