<?xml version="1.0" encoding="UTF-8"?>
<svg xmlns="http://www.w3.org/2000/svg" xmlns:xlink="http://www.w3.org/1999/xlink" width="140.8pt" height="135.2pt" viewBox="0 0 140.8 135.2" version="1.1">
<g id="surface137">
<path style=" stroke:none;fill-rule:nonzero;fill:rgb(0%,0%,47.058824%);fill-opacity:1;" d="M 110.117188 43.757812 C 110.117188 43.929688 110.085938 44.089844 110.023438 44.234375 C 109.957031 44.378906 109.855469 44.5 109.71875 44.601562 C 109.589844 44.703125 109.417969 44.78125 109.210938 44.839844 C 109.007812 44.886719 108.765625 44.914062 108.484375 44.914062 C 108.230469 44.914062 108.007812 44.894531 107.8125 44.851562 C 107.617188 44.800781 107.449219 44.730469 107.316406 44.644531 C 107.175781 44.558594 107.066406 44.449219 106.980469 44.320312 C 106.894531 44.191406 106.832031 44.039062 106.796875 43.863281 L 107.5625 43.734375 C 107.585938 43.820312 107.617188 43.902344 107.660156 43.972656 C 107.703125 44.046875 107.761719 44.109375 107.835938 44.15625 C 107.90625 44.207031 107.996094 44.25 108.105469 44.277344 C 108.214844 44.304688 108.347656 44.320312 108.507812 44.320312 C 108.769531 44.320312 108.976562 44.28125 109.121094 44.199219 C 109.265625 44.113281 109.339844 43.984375 109.339844 43.8125 C 109.339844 43.703125 109.308594 43.617188 109.253906 43.550781 C 109.195312 43.488281 109.113281 43.433594 109.015625 43.390625 C 108.921875 43.347656 108.8125 43.3125 108.691406 43.28125 C 108.566406 43.253906 108.433594 43.222656 108.300781 43.195312 C 108.191406 43.167969 108.082031 43.140625 107.976562 43.117188 C 107.867188 43.089844 107.761719 43.058594 107.660156 43.019531 C 107.566406 42.976562 107.476562 42.933594 107.390625 42.878906 C 107.304688 42.832031 107.226562 42.769531 107.164062 42.695312 C 107.105469 42.617188 107.058594 42.527344 107.023438 42.425781 C 106.984375 42.316406 106.96875 42.195312 106.96875 42.058594 C 106.96875 41.871094 107.003906 41.707031 107.078125 41.570312 C 107.15625 41.4375 107.261719 41.320312 107.402344 41.234375 C 107.535156 41.148438 107.695312 41.089844 107.878906 41.050781 C 108.066406 41.007812 108.269531 40.988281 108.496094 40.988281 C 108.738281 40.988281 108.949219 41.007812 109.121094 41.050781 C 109.300781 41.089844 109.453125 41.144531 109.578125 41.222656 C 109.699219 41.304688 109.792969 41.40625 109.859375 41.527344 C 109.929688 41.644531 109.980469 41.785156 110.011719 41.949219 L 109.242188 42.046875 C 109.199219 41.890625 109.113281 41.769531 108.992188 41.691406 C 108.875 41.601562 108.703125 41.558594 108.472656 41.558594 C 108.335938 41.558594 108.21875 41.570312 108.128906 41.59375 C 108.03125 41.613281 107.957031 41.648438 107.898438 41.691406 C 107.847656 41.734375 107.808594 41.785156 107.78125 41.839844 C 107.757812 41.894531 107.746094 41.949219 107.746094 42.015625 C 107.746094 42.109375 107.769531 42.183594 107.8125 42.242188 C 107.863281 42.300781 107.925781 42.351562 108.007812 42.394531 C 108.085938 42.4375 108.179688 42.472656 108.289062 42.5 C 108.402344 42.523438 108.53125 42.550781 108.667969 42.578125 C 108.789062 42.605469 108.910156 42.636719 109.027344 42.664062 C 109.140625 42.695312 109.253906 42.726562 109.359375 42.761719 C 109.46875 42.800781 109.566406 42.84375 109.652344 42.902344 C 109.746094 42.953125 109.828125 43.019531 109.890625 43.097656 C 109.960938 43.179688 110.015625 43.269531 110.054688 43.378906 C 110.097656 43.488281 110.117188 43.613281 110.117188 43.757812 Z M 110.117188 43.757812 "/>
<path style=" stroke:none;fill-rule:nonzero;fill:rgb(0%,0%,47.058824%);fill-opacity:1;" d="M 110.699219 40.613281 L 111.625 40.613281 L 111.625 39.683594 L 112.089844 39.683594 L 112.089844 40.613281 L 113.019531 40.613281 L 113.019531 41.074219 L 112.089844 41.074219 L 112.089844 42.003906 L 111.625 42.003906 L 111.625 41.074219 L 110.699219 41.074219 "/>
<path style=" stroke:none;fill-rule:nonzero;fill:rgb(0%,0%,0%);fill-opacity:1;" d="M 48.554688 41.410156 C 48.339844 41.410156 48.148438 41.445312 47.980469 41.515625 C 47.8125 41.589844 47.671875 41.695312 47.558594 41.832031 C 47.449219 41.960938 47.367188 42.121094 47.308594 42.308594 C 47.25 42.496094 47.222656 42.703125 47.222656 42.933594 C 47.222656 43.167969 47.25 43.378906 47.308594 43.574219 C 47.375 43.761719 47.464844 43.925781 47.582031 44.058594 C 47.695312 44.199219 47.835938 44.304688 48.003906 44.382812 C 48.175781 44.457031 48.367188 44.492188 48.578125 44.492188 C 48.730469 44.492188 48.859375 44.476562 48.976562 44.4375 C 49.097656 44.394531 49.210938 44.339844 49.3125 44.265625 C 49.414062 44.195312 49.5 44.113281 49.574219 44.015625 C 49.652344 43.925781 49.71875 43.816406 49.777344 43.691406 L 50.199219 43.910156 C 50.136719 44.054688 50.050781 44.1875 49.953125 44.308594 C 49.847656 44.433594 49.730469 44.542969 49.59375 44.632812 C 49.457031 44.71875 49.300781 44.789062 49.128906 44.839844 C 48.957031 44.886719 48.765625 44.914062 48.554688 44.914062 C 48.242188 44.914062 47.972656 44.867188 47.742188 44.773438 C 47.511719 44.675781 47.316406 44.535156 47.160156 44.363281 C 47.007812 44.183594 46.890625 43.972656 46.8125 43.734375 C 46.730469 43.492188 46.691406 43.222656 46.691406 42.933594 C 46.691406 42.640625 46.730469 42.371094 46.8125 42.132812 C 46.898438 41.890625 47.019531 41.683594 47.179688 41.515625 C 47.335938 41.351562 47.53125 41.222656 47.765625 41.128906 C 47.996094 41.035156 48.257812 40.988281 48.554688 40.988281 C 48.957031 40.988281 49.292969 41.066406 49.5625 41.222656 C 49.835938 41.382812 50.039062 41.621094 50.167969 41.9375 L 49.679688 42.101562 C 49.644531 42.007812 49.59375 41.921875 49.53125 41.839844 C 49.46875 41.753906 49.394531 41.683594 49.300781 41.625 C 49.207031 41.558594 49.097656 41.511719 48.976562 41.472656 C 48.851562 41.429688 48.710938 41.410156 48.554688 41.410156 Z M 48.554688 41.410156 "/>
<path style=" stroke:none;fill-rule:nonzero;fill:rgb(0%,0%,0%);fill-opacity:1;" d="M 63.558594 15.433594 C 63.34375 15.433594 63.148438 15.472656 62.984375 15.542969 C 62.816406 15.617188 62.675781 15.722656 62.5625 15.855469 C 62.453125 15.988281 62.371094 16.148438 62.3125 16.332031 C 62.253906 16.523438 62.226562 16.730469 62.226562 16.960938 C 62.226562 17.195312 62.253906 17.40625 62.3125 17.601562 C 62.378906 17.789062 62.46875 17.953125 62.585938 18.085938 C 62.699219 18.226562 62.839844 18.332031 63.007812 18.410156 C 63.179688 18.484375 63.367188 18.519531 63.582031 18.519531 C 63.730469 18.519531 63.863281 18.503906 63.980469 18.464844 C 64.101562 18.421875 64.214844 18.367188 64.316406 18.292969 C 64.417969 18.222656 64.503906 18.136719 64.578125 18.042969 C 64.65625 17.953125 64.722656 17.84375 64.78125 17.71875 L 65.203125 17.933594 C 65.140625 18.082031 65.054688 18.214844 64.957031 18.335938 C 64.851562 18.460938 64.734375 18.566406 64.597656 18.660156 C 64.460938 18.746094 64.304688 18.816406 64.132812 18.867188 C 63.960938 18.914062 63.765625 18.941406 63.558594 18.941406 C 63.246094 18.941406 62.976562 18.894531 62.746094 18.800781 C 62.515625 18.699219 62.320312 18.5625 62.160156 18.390625 C 62.011719 18.210938 61.894531 18 61.816406 17.761719 C 61.734375 17.519531 61.695312 17.25 61.695312 16.960938 C 61.695312 16.667969 61.734375 16.398438 61.816406 16.160156 C 61.902344 15.917969 62.023438 15.710938 62.183594 15.542969 C 62.339844 15.378906 62.535156 15.25 62.769531 15.152344 C 63 15.0625 63.261719 15.011719 63.558594 15.011719 C 63.960938 15.011719 64.296875 15.09375 64.566406 15.25 C 64.839844 15.410156 65.042969 15.648438 65.171875 15.964844 L 64.683594 16.128906 C 64.648438 16.035156 64.597656 15.949219 64.53125 15.867188 C 64.472656 15.78125 64.398438 15.710938 64.304688 15.652344 C 64.210938 15.585938 64.101562 15.539062 63.980469 15.5 C 63.855469 15.457031 63.714844 15.433594 63.558594 15.433594 Z M 63.558594 15.433594 "/>
<path style=" stroke:none;fill-rule:nonzero;fill:rgb(0%,0%,0%);fill-opacity:1;" d="M 124.933594 35.125 C 124.933594 35.316406 124.894531 35.476562 124.816406 35.613281 C 124.742188 35.75 124.644531 35.863281 124.511719 35.949219 C 124.382812 36.035156 124.230469 36.101562 124.058594 36.144531 C 123.890625 36.179688 123.714844 36.199219 123.527344 36.199219 L 121.980469 36.199219 L 121.980469 32.386719 L 123.367188 32.386719 C 123.574219 32.386719 123.761719 32.40625 123.929688 32.441406 C 124.09375 32.472656 124.234375 32.527344 124.351562 32.605469 C 124.464844 32.679688 124.550781 32.773438 124.609375 32.898438 C 124.675781 33.011719 124.707031 33.152344 124.707031 33.308594 C 124.707031 33.417969 124.691406 33.519531 124.664062 33.609375 C 124.636719 33.707031 124.589844 33.792969 124.523438 33.871094 C 124.464844 33.945312 124.390625 34.007812 124.296875 34.066406 C 124.210938 34.117188 124.105469 34.15625 123.984375 34.183594 C 124.132812 34.207031 124.265625 34.246094 124.382812 34.292969 C 124.503906 34.34375 124.605469 34.410156 124.6875 34.5 C 124.765625 34.578125 124.828125 34.671875 124.871094 34.78125 C 124.914062 34.882812 124.933594 34.996094 124.933594 35.125 Z M 124.1875 33.375 C 124.1875 33.164062 124.117188 33.015625 123.972656 32.929688 C 123.832031 32.84375 123.632812 32.800781 123.367188 32.800781 L 122.5 32.800781 L 122.5 34 L 123.367188 34 C 123.515625 34 123.640625 33.988281 123.746094 33.957031 C 123.851562 33.929688 123.941406 33.890625 124.003906 33.839844 C 124.070312 33.78125 124.117188 33.714844 124.144531 33.632812 C 124.171875 33.554688 124.1875 33.46875 124.1875 33.375 Z M 124.40625 35.082031 C 124.40625 34.960938 124.382812 34.859375 124.339844 34.78125 C 124.296875 34.695312 124.230469 34.625 124.144531 34.574219 C 124.0625 34.515625 123.964844 34.476562 123.851562 34.457031 C 123.738281 34.429688 123.605469 34.410156 123.464844 34.410156 L 122.5 34.410156 L 122.5 35.785156 L 123.507812 35.785156 C 123.636719 35.785156 123.753906 35.777344 123.863281 35.753906 C 123.976562 35.730469 124.074219 35.695312 124.15625 35.644531 C 124.234375 35.589844 124.296875 35.515625 124.339844 35.429688 C 124.382812 35.335938 124.40625 35.222656 124.40625 35.082031 Z M 124.40625 35.082031 "/>
<path style=" stroke:none;fill-rule:nonzero;fill:rgb(0%,0%,0%);fill-opacity:1;" d="M 125.515625 32.0625 L 127.832031 32.0625 L 127.832031 32.527344 L 125.515625 32.527344 "/>
<path style=" stroke:none;fill-rule:nonzero;fill:rgb(0%,0%,0%);fill-opacity:1;" d="M 17.308594 26.566406 C 17.09375 26.566406 16.902344 26.605469 16.734375 26.675781 C 16.566406 26.746094 16.425781 26.851562 16.3125 26.988281 C 16.203125 27.117188 16.121094 27.277344 16.0625 27.464844 C 16.003906 27.652344 15.976562 27.863281 15.976562 28.09375 C 15.976562 28.324219 16.003906 28.535156 16.0625 28.730469 C 16.128906 28.917969 16.21875 29.082031 16.335938 29.21875 C 16.449219 29.355469 16.589844 29.464844 16.757812 29.542969 C 16.929688 29.613281 17.121094 29.648438 17.332031 29.648438 C 17.484375 29.648438 17.613281 29.632812 17.730469 29.597656 C 17.851562 29.554688 17.964844 29.496094 18.066406 29.421875 C 18.167969 29.351562 18.253906 29.269531 18.328125 29.175781 C 18.40625 29.082031 18.472656 28.972656 18.53125 28.847656 L 18.953125 29.066406 C 18.890625 29.210938 18.804688 29.34375 18.707031 29.464844 C 18.601562 29.589844 18.484375 29.699219 18.347656 29.789062 C 18.210938 29.878906 18.054688 29.949219 17.882812 29.996094 C 17.710938 30.046875 17.519531 30.074219 17.308594 30.074219 C 16.996094 30.074219 16.726562 30.023438 16.496094 29.929688 C 16.265625 29.832031 16.070312 29.695312 15.914062 29.519531 C 15.761719 29.339844 15.644531 29.128906 15.566406 28.894531 C 15.484375 28.648438 15.445312 28.382812 15.445312 28.09375 C 15.445312 27.796875 15.484375 27.527344 15.566406 27.289062 C 15.652344 27.046875 15.773438 26.84375 15.933594 26.675781 C 16.089844 26.507812 16.285156 26.378906 16.519531 26.285156 C 16.75 26.191406 17.011719 26.144531 17.308594 26.144531 C 17.710938 26.144531 18.046875 26.226562 18.316406 26.382812 C 18.589844 26.542969 18.792969 26.78125 18.921875 27.097656 L 18.433594 27.257812 C 18.398438 27.167969 18.347656 27.078125 18.285156 27 C 18.222656 26.914062 18.148438 26.84375 18.054688 26.78125 C 17.960938 26.71875 17.851562 26.667969 17.730469 26.628906 C 17.605469 26.585938 17.464844 26.566406 17.308594 26.566406 Z M 17.308594 26.566406 "/>
<path style=" stroke:none;fill-rule:nonzero;fill:rgb(0%,0%,0%);fill-opacity:1;" d="M 17.308594 116.542969 C 17.09375 116.542969 16.902344 116.578125 16.734375 116.648438 C 16.566406 116.722656 16.425781 116.828125 16.3125 116.964844 C 16.203125 117.09375 16.121094 117.253906 16.0625 117.441406 C 16.003906 117.628906 15.976562 117.835938 15.976562 118.066406 C 15.976562 118.300781 16.003906 118.511719 16.0625 118.707031 C 16.128906 118.894531 16.21875 119.058594 16.335938 119.195312 C 16.449219 119.332031 16.589844 119.441406 16.757812 119.519531 C 16.929688 119.589844 17.121094 119.625 17.332031 119.625 C 17.484375 119.625 17.613281 119.609375 17.730469 119.570312 C 17.851562 119.527344 17.964844 119.472656 18.066406 119.398438 C 18.167969 119.328125 18.253906 119.246094 18.328125 119.148438 C 18.40625 119.058594 18.472656 118.949219 18.53125 118.824219 L 18.953125 119.042969 C 18.890625 119.1875 18.804688 119.320312 18.707031 119.441406 C 18.601562 119.566406 18.484375 119.675781 18.347656 119.765625 C 18.210938 119.855469 18.054688 119.925781 17.882812 119.972656 C 17.710938 120.019531 17.519531 120.046875 17.308594 120.046875 C 16.996094 120.046875 16.726562 120 16.496094 119.90625 C 16.265625 119.808594 16.070312 119.667969 15.914062 119.496094 C 15.761719 119.316406 15.644531 119.105469 15.566406 118.867188 C 15.484375 118.625 15.445312 118.355469 15.445312 118.066406 C 15.445312 117.773438 15.484375 117.503906 15.566406 117.265625 C 15.652344 117.023438 15.773438 116.816406 15.933594 116.648438 C 16.089844 116.484375 16.285156 116.355469 16.519531 116.261719 C 16.75 116.167969 17.011719 116.121094 17.308594 116.121094 C 17.710938 116.121094 18.046875 116.199219 18.316406 116.359375 C 18.589844 116.515625 18.792969 116.753906 18.921875 117.070312 L 18.433594 117.234375 C 18.398438 117.140625 18.347656 117.054688 18.285156 116.976562 C 18.222656 116.886719 18.148438 116.816406 18.054688 116.757812 C 17.960938 116.695312 17.851562 116.644531 17.730469 116.605469 C 17.605469 116.5625 17.464844 116.542969 17.308594 116.542969 Z M 17.308594 116.542969 "/>
<path style=" stroke:none;fill-rule:nonzero;fill:rgb(0%,0%,47.058824%);fill-opacity:1;" d="M 53.511719 88.898438 C 53.511719 89.070312 53.480469 89.230469 53.414062 89.371094 C 53.347656 89.519531 53.246094 89.640625 53.109375 89.742188 C 52.980469 89.84375 52.808594 89.921875 52.601562 89.980469 C 52.398438 90.027344 52.15625 90.054688 51.875 90.054688 C 51.621094 90.054688 51.398438 90.03125 51.207031 89.988281 C 51.011719 89.941406 50.84375 89.871094 50.707031 89.785156 C 50.570312 89.699219 50.457031 89.589844 50.371094 89.460938 C 50.285156 89.328125 50.222656 89.179688 50.1875 89.003906 L 50.957031 88.875 C 50.976562 88.960938 51.011719 89.042969 51.054688 89.113281 C 51.097656 89.1875 51.152344 89.25 51.226562 89.296875 C 51.296875 89.347656 51.390625 89.390625 51.496094 89.414062 C 51.605469 89.445312 51.738281 89.460938 51.898438 89.460938 C 52.164062 89.460938 52.367188 89.421875 52.515625 89.339844 C 52.660156 89.253906 52.730469 89.125 52.730469 88.949219 C 52.730469 88.84375 52.703125 88.753906 52.644531 88.691406 C 52.585938 88.625 52.507812 88.570312 52.40625 88.527344 C 52.3125 88.484375 52.203125 88.449219 52.082031 88.421875 C 51.957031 88.394531 51.828125 88.363281 51.691406 88.332031 C 51.585938 88.308594 51.476562 88.28125 51.367188 88.257812 C 51.257812 88.230469 51.152344 88.199219 51.054688 88.160156 C 50.957031 88.117188 50.871094 88.070312 50.78125 88.019531 C 50.695312 87.972656 50.621094 87.910156 50.554688 87.835938 C 50.496094 87.757812 50.449219 87.667969 50.414062 87.566406 C 50.378906 87.457031 50.359375 87.335938 50.359375 87.199219 C 50.359375 87.011719 50.394531 86.847656 50.46875 86.710938 C 50.546875 86.574219 50.65625 86.460938 50.792969 86.375 C 50.929688 86.289062 51.089844 86.230469 51.269531 86.191406 C 51.457031 86.148438 51.664062 86.125 51.886719 86.125 C 52.132812 86.125 52.34375 86.148438 52.515625 86.191406 C 52.695312 86.230469 52.84375 86.285156 52.96875 86.363281 C 53.089844 86.445312 53.1875 86.546875 53.25 86.667969 C 53.320312 86.785156 53.375 86.925781 53.402344 87.089844 L 52.632812 87.1875 C 52.589844 87.03125 52.507812 86.910156 52.386719 86.828125 C 52.269531 86.742188 52.097656 86.699219 51.867188 86.699219 C 51.726562 86.699219 51.609375 86.710938 51.519531 86.730469 C 51.425781 86.753906 51.347656 86.785156 51.292969 86.828125 C 51.242188 86.871094 51.199219 86.925781 51.171875 86.980469 C 51.152344 87.03125 51.140625 87.089844 51.140625 87.152344 C 51.140625 87.25 51.160156 87.324219 51.207031 87.382812 C 51.253906 87.441406 51.320312 87.488281 51.398438 87.53125 C 51.480469 87.578125 51.574219 87.613281 51.679688 87.640625 C 51.796875 87.664062 51.921875 87.691406 52.058594 87.71875 C 52.183594 87.746094 52.300781 87.777344 52.417969 87.804688 C 52.53125 87.832031 52.644531 87.867188 52.753906 87.902344 C 52.863281 87.9375 52.960938 87.984375 53.046875 88.042969 C 53.136719 88.09375 53.21875 88.15625 53.285156 88.238281 C 53.355469 88.316406 53.410156 88.410156 53.445312 88.519531 C 53.488281 88.625 53.511719 88.753906 53.511719 88.898438 Z M 53.511719 88.898438 "/>
<path style=" stroke:none;fill-rule:nonzero;fill:rgb(0%,0%,0%);fill-opacity:1;" d="M 121.242188 85.730469 C 121.023438 85.730469 120.832031 85.769531 120.667969 85.839844 C 120.5 85.914062 120.359375 86.019531 120.246094 86.152344 C 120.136719 86.28125 120.050781 86.441406 119.996094 86.628906 C 119.9375 86.820312 119.910156 87.027344 119.910156 87.257812 C 119.910156 87.488281 119.9375 87.699219 119.996094 87.894531 C 120.0625 88.085938 120.148438 88.246094 120.265625 88.382812 C 120.378906 88.519531 120.519531 88.628906 120.6875 88.707031 C 120.863281 88.78125 121.050781 88.816406 121.261719 88.816406 C 121.414062 88.816406 121.546875 88.800781 121.664062 88.761719 C 121.785156 88.71875 121.894531 88.660156 122 88.589844 C 122.097656 88.519531 122.183594 88.433594 122.257812 88.339844 C 122.335938 88.246094 122.40625 88.140625 122.464844 88.015625 L 122.886719 88.230469 C 122.820312 88.378906 122.738281 88.507812 122.636719 88.632812 C 122.535156 88.753906 122.414062 88.863281 122.28125 88.957031 C 122.140625 89.042969 121.988281 89.113281 121.816406 89.160156 C 121.640625 89.210938 121.449219 89.238281 121.242188 89.238281 C 120.929688 89.238281 120.660156 89.1875 120.429688 89.097656 C 120.195312 88.996094 120 88.859375 119.84375 88.683594 C 119.691406 88.507812 119.578125 88.296875 119.496094 88.058594 C 119.417969 87.8125 119.378906 87.546875 119.378906 87.257812 C 119.378906 86.960938 119.417969 86.695312 119.496094 86.457031 C 119.585938 86.210938 119.707031 86.007812 119.867188 85.839844 C 120.023438 85.675781 120.21875 85.542969 120.449219 85.449219 C 120.679688 85.359375 120.941406 85.308594 121.242188 85.308594 C 121.644531 85.308594 121.980469 85.390625 122.246094 85.546875 C 122.519531 85.707031 122.722656 85.945312 122.855469 86.261719 L 122.367188 86.421875 C 122.328125 86.332031 122.28125 86.246094 122.214844 86.164062 C 122.15625 86.078125 122.078125 86.007812 121.988281 85.949219 C 121.894531 85.882812 121.785156 85.832031 121.664062 85.796875 C 121.539062 85.753906 121.398438 85.730469 121.242188 85.730469 Z M 121.242188 85.730469 "/>
<path style="fill:none;stroke-width:0.06;stroke-linecap:butt;stroke-linejoin:miter;stroke:rgb(0%,0%,47.058824%);stroke-opacity:1;stroke-miterlimit:10;" d="M 3.527455 1.504863 L 4.416816 0.991416 " transform="matrix(17.322835,0,0,17.315574,17.203079,16.977596)"/>
<path style="fill:none;stroke-width:0.06;stroke-linecap:butt;stroke-linejoin:miter;stroke:rgb(0%,0%,47.058824%);stroke-opacity:1;stroke-miterlimit:10;" d="M 4.386824 0.991416 L 5.095562 1.400414 " transform="matrix(17.322835,0,0,17.315574,17.203079,16.977596)"/>
<path style="fill:none;stroke-width:0.0333333;stroke-linecap:butt;stroke-linejoin:miter;stroke:rgb(0%,0%,0%);stroke-opacity:1;stroke-miterlimit:10;" d="M 3.544141 1.504863 L 2.669664 0.999988 " transform="matrix(17.322835,0,0,17.315574,17.203079,16.977596)"/>
<path style="fill:none;stroke-width:0.0333333;stroke-linecap:butt;stroke-linejoin:miter;stroke:rgb(0%,0%,0%);stroke-opacity:1;stroke-miterlimit:10;" d="M 2.669664 0.999988 L 1.980093 1.398158 " transform="matrix(17.322835,0,0,17.315574,17.203079,16.977596)"/>
<path style="fill:none;stroke-width:0.0333333;stroke-linecap:butt;stroke-linejoin:miter;stroke:rgb(0%,0%,0%);stroke-opacity:1;stroke-miterlimit:10;" d="M 2.669664 0.999988 L 2.669664 0.156727 " transform="matrix(17.322835,0,0,17.315574,17.203079,16.977596)"/>
<path style="fill:none;stroke-width:0.0333333;stroke-linecap:butt;stroke-linejoin:miter;stroke:rgb(0%,0%,0%);stroke-opacity:1;stroke-miterlimit:10;" d="M 5.60496 1.30544 L 5.970942 1.09406 " transform="matrix(17.322835,0,0,17.315574,17.203079,16.977596)"/>
<path style="fill:none;stroke-width:0.0333333;stroke-linecap:butt;stroke-linejoin:miter;stroke:rgb(0%,0%,0%);stroke-opacity:1;stroke-miterlimit:10;" d="M 0.104182 0.822899 L 0.504891 1.51727 " transform="matrix(17.322835,0,0,17.315574,17.203079,16.977596)"/>
<path style="fill:none;stroke-width:0.0333333;stroke-linecap:butt;stroke-linejoin:miter;stroke:rgb(0%,0%,0%);stroke-opacity:1;stroke-miterlimit:10;" d="M 0.504891 1.500351 L -0.00473279 2.383317 " transform="matrix(17.322835,0,0,17.315574,17.203079,16.977596)"/>
<path style="fill:none;stroke-width:0.0333333;stroke-linecap:butt;stroke-linejoin:miter;stroke:rgb(0%,0%,0%);stroke-opacity:1;stroke-miterlimit:10;" d="M -0.00473279 2.366623 L 0.49993 3.241017 " transform="matrix(17.322835,0,0,17.315574,17.203079,16.977596)"/>
<path style="fill:none;stroke-width:0.0333333;stroke-linecap:butt;stroke-linejoin:miter;stroke:rgb(0%,0%,0%);stroke-opacity:1;stroke-miterlimit:10;" d="M 0.49993 3.241017 L -0.00473279 4.11541 " transform="matrix(17.322835,0,0,17.315574,17.203079,16.977596)"/>
<path style="fill:none;stroke-width:0.0333333;stroke-linecap:butt;stroke-linejoin:miter;stroke:rgb(0%,0%,0%);stroke-opacity:1;stroke-miterlimit:10;" d="M -0.00473279 4.098491 L 0.504891 4.981231 " transform="matrix(17.322835,0,0,17.315574,17.203079,16.977596)"/>
<path style="fill:none;stroke-width:0.0333333;stroke-linecap:butt;stroke-linejoin:miter;stroke:rgb(0%,0%,0%);stroke-opacity:1;stroke-miterlimit:10;" d="M 0.504891 4.964763 L 0.104182 5.658909 " transform="matrix(17.322835,0,0,17.315574,17.203079,16.977596)"/>
<path style="fill:none;stroke-width:0.06;stroke-linecap:butt;stroke-linejoin:miter;stroke:rgb(0%,0%,47.058824%);stroke-opacity:1;stroke-miterlimit:10;" d="M 0.49993 3.241017 L 1.517373 3.241017 " transform="matrix(17.322835,0,0,17.315574,17.203079,16.977596)"/>
<path style="fill:none;stroke-width:0.06;stroke-linecap:butt;stroke-linejoin:miter;stroke:rgb(0%,0%,47.058824%);stroke-opacity:1;stroke-miterlimit:10;" d="M 1.491215 3.225902 L 1.897336 3.929071 " transform="matrix(17.322835,0,0,17.315574,17.203079,16.977596)"/>
<path style="fill:none;stroke-width:0.0333333;stroke-linecap:butt;stroke-linejoin:miter;stroke:rgb(0%,0%,0%);stroke-opacity:1;stroke-miterlimit:10;" d="M 2.13952 4.106838 L 3.009488 4.106838 " transform="matrix(17.322835,0,0,17.315574,17.203079,16.977596)"/>
<path style="fill:none;stroke-width:0.0333333;stroke-linecap:butt;stroke-linejoin:miter;stroke:rgb(0%,0%,0%);stroke-opacity:1;stroke-miterlimit:10;" d="M 3.490924 3.224774 L 3.000242 4.106838 " transform="matrix(17.322835,0,0,17.315574,17.203079,16.977596)"/>
<path style="fill:none;stroke-width:0.0333333;stroke-linecap:butt;stroke-linejoin:miter;stroke:rgb(0%,0%,0%);stroke-opacity:1;stroke-miterlimit:10;" d="M 3.589917 3.389907 L 3.192591 4.103905 " transform="matrix(17.322835,0,0,17.315574,17.203079,16.977596)"/>
<path style="fill:none;stroke-width:0.0333333;stroke-linecap:butt;stroke-linejoin:miter;stroke:rgb(0%,0%,0%);stroke-opacity:1;stroke-miterlimit:10;" d="M 2.995281 4.098716 L 3.51866 4.973335 " transform="matrix(17.322835,0,0,17.315574,17.203079,16.977596)"/>
<path style="fill:none;stroke-width:0.0333333;stroke-linecap:butt;stroke-linejoin:miter;stroke:rgb(0%,0%,0%);stroke-opacity:1;stroke-miterlimit:10;" d="M 3.504003 4.965214 L 4.52325 4.948971 " transform="matrix(17.322835,0,0,17.315574,17.203079,16.977596)"/>
<path style="fill:none;stroke-width:0.0333333;stroke-linecap:butt;stroke-linejoin:miter;stroke:rgb(0%,0%,0%);stroke-opacity:1;stroke-miterlimit:10;" d="M 3.597584 4.796923 L 4.424482 4.783838 " transform="matrix(17.322835,0,0,17.315574,17.203079,16.977596)"/>
<path style="fill:none;stroke-width:0.0333333;stroke-linecap:butt;stroke-linejoin:miter;stroke:rgb(0%,0%,0%);stroke-opacity:1;stroke-miterlimit:10;" d="M 4.509044 4.957544 L 5.004461 4.067133 " transform="matrix(17.322835,0,0,17.315574,17.203079,16.977596)"/>
<path style="fill:none;stroke-width:0.0333333;stroke-linecap:butt;stroke-linejoin:miter;stroke:rgb(0%,0%,0%);stroke-opacity:1;stroke-miterlimit:10;" d="M 4.999726 4.07548 L 4.481308 3.209208 " transform="matrix(17.322835,0,0,17.315574,17.203079,16.977596)"/>
<path style="fill:none;stroke-width:0.0333333;stroke-linecap:butt;stroke-linejoin:miter;stroke:rgb(0%,0%,0%);stroke-opacity:1;stroke-miterlimit:10;" d="M 4.807377 4.078639 L 4.387726 3.377274 " transform="matrix(17.322835,0,0,17.315574,17.203079,16.977596)"/>
<path style="fill:none;stroke-width:0.0333333;stroke-linecap:butt;stroke-linejoin:miter;stroke:rgb(0%,0%,0%);stroke-opacity:1;stroke-miterlimit:10;" d="M 3.476718 3.233346 L 4.49574 3.217329 " transform="matrix(17.322835,0,0,17.315574,17.203079,16.977596)"/>
<path style="fill:none;stroke-width:0.0333333;stroke-linecap:butt;stroke-linejoin:miter;stroke:rgb(0%,0%,0%);stroke-opacity:1;stroke-miterlimit:10;" d="M 4.990255 4.075706 L 5.853458 4.061945 " transform="matrix(17.322835,0,0,17.315574,17.203079,16.977596)"/>
</g>
</svg>
