<?xml version="1.0" encoding="UTF-8"?>
<svg xmlns="http://www.w3.org/2000/svg" xmlns:xlink="http://www.w3.org/1999/xlink" width="104.8pt" height="63.2pt" viewBox="0 0 104.8 63.2" version="1.1">
<g id="surface1412">
<path style=" stroke:none;fill-rule:nonzero;fill:rgb(0%,0%,0%);fill-opacity:1;" d="M 75.132812 9.542969 C 74.917969 9.542969 74.722656 9.578125 74.558594 9.648438 C 74.390625 9.722656 74.25 9.828125 74.136719 9.964844 C 74.027344 10.09375 73.945312 10.253906 73.886719 10.441406 C 73.828125 10.628906 73.800781 10.839844 73.800781 11.070312 C 73.800781 11.300781 73.828125 11.511719 73.886719 11.707031 C 73.953125 11.898438 74.042969 12.058594 74.160156 12.195312 C 74.273438 12.332031 74.414062 12.441406 74.582031 12.519531 C 74.753906 12.59375 74.945312 12.628906 75.15625 12.628906 C 75.304688 12.628906 75.4375 12.613281 75.554688 12.574219 C 75.675781 12.53125 75.789062 12.472656 75.890625 12.402344 C 75.992188 12.332031 76.078125 12.246094 76.152344 12.152344 C 76.230469 12.058594 76.296875 11.953125 76.355469 11.828125 L 76.78125 12.042969 C 76.714844 12.1875 76.628906 12.320312 76.53125 12.445312 C 76.425781 12.570312 76.308594 12.675781 76.171875 12.769531 C 76.035156 12.855469 75.878906 12.925781 75.707031 12.972656 C 75.535156 13.023438 75.339844 13.050781 75.132812 13.050781 C 74.820312 13.050781 74.550781 13 74.320312 12.910156 C 74.089844 12.808594 73.894531 12.671875 73.734375 12.5 C 73.585938 12.320312 73.46875 12.109375 73.390625 11.871094 C 73.308594 11.625 73.269531 11.359375 73.269531 11.070312 C 73.269531 10.773438 73.308594 10.503906 73.390625 10.265625 C 73.476562 10.023438 73.597656 9.816406 73.757812 9.648438 C 73.914062 9.484375 74.109375 9.355469 74.34375 9.261719 C 74.574219 9.167969 74.835938 9.121094 75.132812 9.121094 C 75.535156 9.121094 75.871094 9.199219 76.140625 9.359375 C 76.414062 9.519531 76.617188 9.757812 76.746094 10.074219 L 76.257812 10.234375 C 76.222656 10.144531 76.171875 10.054688 76.109375 9.976562 C 76.046875 9.886719 75.972656 9.816406 75.878906 9.757812 C 75.785156 9.695312 75.675781 9.644531 75.554688 9.605469 C 75.429688 9.5625 75.289062 9.542969 75.132812 9.542969 Z M 75.132812 9.542969 "/>
<path style=" stroke:none;fill-rule:nonzero;fill:rgb(0%,0%,0%);fill-opacity:1;" d="M 78.011719 10.570312 C 78.070312 10.46875 78.125 10.386719 78.1875 10.320312 C 78.25 10.25 78.320312 10.191406 78.390625 10.148438 C 78.472656 10.101562 78.554688 10.0625 78.640625 10.039062 C 78.734375 10.019531 78.839844 10.007812 78.957031 10.007812 C 79.140625 10.007812 79.292969 10.035156 79.410156 10.082031 C 79.53125 10.136719 79.625 10.207031 79.691406 10.300781 C 79.761719 10.394531 79.8125 10.503906 79.84375 10.636719 C 79.871094 10.761719 79.886719 10.894531 79.886719 11.046875 L 79.886719 12.996094 L 79.386719 12.996094 L 79.386719 11.132812 C 79.386719 11.011719 79.378906 10.902344 79.367188 10.808594 C 79.351562 10.71875 79.324219 10.640625 79.28125 10.582031 C 79.238281 10.515625 79.175781 10.46875 79.097656 10.441406 C 79.015625 10.40625 78.914062 10.386719 78.792969 10.386719 C 78.675781 10.386719 78.570312 10.410156 78.480469 10.453125 C 78.382812 10.496094 78.304688 10.558594 78.242188 10.636719 C 78.175781 10.707031 78.125 10.796875 78.089844 10.90625 C 78.050781 11.015625 78.035156 11.132812 78.035156 11.265625 L 78.035156 12.996094 L 77.546875 12.996094 L 77.546875 8.980469 L 78.035156 8.980469 L 78.035156 10.019531 C 78.035156 10.082031 78.03125 10.144531 78.023438 10.203125 C 78.023438 10.261719 78.019531 10.316406 78.011719 10.363281 C 78.011719 10.417969 78.011719 10.460938 78.011719 10.496094 C 78.011719 10.53125 78.011719 10.558594 78.011719 10.570312 Z M 78.011719 10.570312 "/>
<path style=" stroke:none;fill-rule:nonzero;fill:rgb(0%,0%,0%);fill-opacity:1;" d="M 80.734375 9.445312 L 80.734375 8.980469 L 81.222656 8.980469 L 81.222656 9.445312 Z M 80.734375 12.996094 L 80.734375 10.0625 L 81.222656 10.0625 L 81.222656 12.996094 Z M 80.734375 12.996094 "/>
<path style=" stroke:none;fill-rule:nonzero;fill:rgb(0%,0%,0%);fill-opacity:1;" d="M 82.039062 12.996094 L 82.039062 10.742188 C 82.039062 10.6875 82.035156 10.625 82.03125 10.558594 C 82.03125 10.496094 82.03125 10.433594 82.03125 10.375 C 82.03125 10.320312 82.023438 10.265625 82.019531 10.214844 C 82.019531 10.15625 82.019531 10.105469 82.019531 10.0625 L 82.484375 10.0625 C 82.484375 10.105469 82.484375 10.15625 82.484375 10.214844 C 82.488281 10.265625 82.496094 10.320312 82.496094 10.375 C 82.496094 10.425781 82.496094 10.480469 82.496094 10.539062 C 82.5 10.589844 82.507812 10.632812 82.507812 10.667969 L 82.515625 10.667969 C 82.542969 10.554688 82.578125 10.457031 82.613281 10.375 C 82.65625 10.289062 82.703125 10.222656 82.753906 10.171875 C 82.8125 10.121094 82.875 10.082031 82.949219 10.050781 C 83.019531 10.023438 83.105469 10.007812 83.210938 10.007812 C 83.246094 10.007812 83.28125 10.011719 83.316406 10.019531 C 83.351562 10.027344 83.382812 10.035156 83.40625 10.039062 L 83.40625 10.484375 C 83.375 10.480469 83.339844 10.472656 83.296875 10.472656 C 83.253906 10.46875 83.203125 10.460938 83.144531 10.460938 C 83.035156 10.460938 82.941406 10.488281 82.863281 10.539062 C 82.78125 10.589844 82.71875 10.65625 82.667969 10.742188 C 82.617188 10.832031 82.582031 10.9375 82.558594 11.070312 C 82.539062 11.191406 82.527344 11.324219 82.527344 11.46875 L 82.527344 12.996094 Z M 82.039062 12.996094 "/>
<path style=" stroke:none;fill-rule:nonzero;fill:rgb(0%,0%,0%);fill-opacity:1;" d="M 84.699219 13.050781 C 84.402344 13.050781 84.179688 12.972656 84.027344 12.824219 C 83.882812 12.664062 83.8125 12.449219 83.8125 12.171875 C 83.8125 11.988281 83.847656 11.832031 83.917969 11.707031 C 83.988281 11.578125 84.085938 11.480469 84.199219 11.414062 C 84.324219 11.34375 84.460938 11.292969 84.613281 11.265625 C 84.765625 11.238281 84.917969 11.21875 85.078125 11.21875 L 85.726562 11.210938 L 85.726562 11.046875 C 85.726562 10.925781 85.710938 10.824219 85.683594 10.742188 C 85.664062 10.65625 85.625 10.589844 85.578125 10.539062 C 85.523438 10.480469 85.460938 10.441406 85.382812 10.417969 C 85.300781 10.398438 85.207031 10.386719 85.101562 10.386719 C 85.003906 10.386719 84.917969 10.394531 84.839844 10.410156 C 84.765625 10.417969 84.703125 10.4375 84.644531 10.472656 C 84.59375 10.511719 84.550781 10.558594 84.515625 10.625 C 84.476562 10.683594 84.457031 10.761719 84.449219 10.851562 L 83.941406 10.796875 C 83.953125 10.683594 83.988281 10.578125 84.039062 10.484375 C 84.085938 10.390625 84.160156 10.308594 84.253906 10.234375 C 84.347656 10.164062 84.464844 10.109375 84.601562 10.074219 C 84.746094 10.03125 84.914062 10.007812 85.109375 10.007812 C 85.480469 10.007812 85.753906 10.09375 85.945312 10.265625 C 86.132812 10.433594 86.226562 10.675781 86.226562 10.992188 L 86.226562 12.261719 C 86.226562 12.40625 86.242188 12.515625 86.28125 12.585938 C 86.316406 12.65625 86.386719 12.691406 86.496094 12.691406 C 86.523438 12.691406 86.550781 12.691406 86.574219 12.691406 C 86.601562 12.6875 86.628906 12.679688 86.660156 12.671875 L 86.660156 12.972656 C 86.59375 12.996094 86.53125 13.007812 86.476562 13.019531 C 86.414062 13.023438 86.351562 13.027344 86.28125 13.027344 C 86.183594 13.027344 86.105469 13.019531 86.042969 12.996094 C 85.976562 12.96875 85.921875 12.929688 85.878906 12.878906 C 85.839844 12.828125 85.816406 12.765625 85.792969 12.691406 C 85.769531 12.621094 85.753906 12.535156 85.75 12.433594 L 85.726562 12.433594 C 85.675781 12.527344 85.621094 12.613281 85.554688 12.691406 C 85.496094 12.765625 85.425781 12.832031 85.339844 12.886719 C 85.257812 12.9375 85.164062 12.980469 85.054688 13.007812 C 84.953125 13.035156 84.835938 13.050781 84.699219 13.050781 Z M 84.808594 12.683594 C 84.957031 12.683594 85.089844 12.65625 85.207031 12.59375 C 85.328125 12.539062 85.425781 12.464844 85.5 12.378906 C 85.578125 12.292969 85.636719 12.199219 85.671875 12.097656 C 85.707031 11.988281 85.726562 11.890625 85.726562 11.792969 L 85.726562 11.546875 L 85.195312 11.554688 C 85.082031 11.5625 84.96875 11.574219 84.863281 11.589844 C 84.753906 11.605469 84.65625 11.632812 84.570312 11.675781 C 84.488281 11.71875 84.421875 11.785156 84.375 11.871094 C 84.332031 11.953125 84.308594 12.054688 84.308594 12.183594 C 84.308594 12.34375 84.351562 12.464844 84.4375 12.550781 C 84.527344 12.640625 84.648438 12.683594 84.808594 12.683594 Z M 84.808594 12.683594 "/>
<path style=" stroke:none;fill-rule:nonzero;fill:rgb(0%,0%,0%);fill-opacity:1;" d="M 87.160156 12.996094 L 87.160156 8.980469 L 87.648438 8.980469 L 87.648438 12.996094 Z M 87.160156 12.996094 "/>
<path style=" stroke:none;fill-rule:nonzero;fill:rgb(0%,0%,47.058824%);fill-opacity:1;" d="M 62.40625 45.128906 C 62.40625 45.425781 62.359375 45.695312 62.265625 45.941406 C 62.179688 46.1875 62.054688 46.394531 61.886719 46.566406 C 61.71875 46.742188 61.519531 46.875 61.28125 46.96875 C 61.042969 47.0625 60.773438 47.109375 60.46875 47.109375 C 60.148438 47.109375 59.875 47.0625 59.636719 46.96875 C 59.398438 46.867188 59.195312 46.730469 59.027344 46.558594 C 58.871094 46.378906 58.75 46.167969 58.671875 45.929688 C 58.589844 45.683594 58.550781 45.417969 58.550781 45.128906 C 58.550781 44.832031 58.589844 44.566406 58.671875 44.328125 C 58.757812 44.082031 58.882812 43.878906 59.050781 43.710938 C 59.214844 43.542969 59.417969 43.414062 59.65625 43.320312 C 59.894531 43.226562 60.167969 43.179688 60.480469 43.179688 C 60.789062 43.179688 61.066406 43.226562 61.304688 43.320312 C 61.542969 43.414062 61.738281 43.546875 61.898438 43.71875 C 62.0625 43.886719 62.191406 44.089844 62.277344 44.328125 C 62.363281 44.566406 62.40625 44.832031 62.40625 45.128906 Z M 61.597656 45.128906 C 61.597656 44.925781 61.570312 44.746094 61.519531 44.585938 C 61.46875 44.429688 61.394531 44.292969 61.304688 44.175781 C 61.207031 44.0625 61.09375 43.96875 60.957031 43.902344 C 60.820312 43.839844 60.660156 43.808594 60.480469 43.808594 C 60.289062 43.808594 60.125 43.839844 59.980469 43.902344 C 59.84375 43.96875 59.726562 44.0625 59.636719 44.175781 C 59.539062 44.292969 59.46875 44.429688 59.417969 44.585938 C 59.375 44.746094 59.355469 44.925781 59.355469 45.128906 C 59.355469 45.332031 59.378906 45.515625 59.429688 45.679688 C 59.476562 45.839844 59.550781 45.980469 59.644531 46.101562 C 59.738281 46.21875 59.855469 46.3125 59.992188 46.382812 C 60.128906 46.449219 60.289062 46.480469 60.46875 46.480469 C 60.664062 46.480469 60.828125 46.449219 60.96875 46.382812 C 61.109375 46.3125 61.230469 46.21875 61.324219 46.101562 C 61.417969 45.980469 61.488281 45.835938 61.53125 45.667969 C 61.574219 45.503906 61.597656 45.324219 61.597656 45.128906 Z M 61.597656 45.128906 "/>
<path style=" stroke:none;fill-rule:nonzero;fill:rgb(0%,0%,0%);fill-opacity:1;" d="M 89.542969 30.457031 C 89.542969 30.753906 89.5 31.023438 89.414062 31.269531 C 89.324219 31.515625 89.199219 31.722656 89.035156 31.894531 C 88.875 32.070312 88.675781 32.203125 88.4375 32.296875 C 88.207031 32.390625 87.941406 32.4375 87.648438 32.4375 C 87.328125 32.4375 87.050781 32.390625 86.8125 32.296875 C 86.582031 32.195312 86.386719 32.058594 86.230469 31.886719 C 86.070312 31.707031 85.949219 31.496094 85.871094 31.257812 C 85.789062 31.015625 85.753906 30.746094 85.753906 30.457031 C 85.753906 30.160156 85.789062 29.894531 85.871094 29.65625 C 85.957031 29.410156 86.078125 29.207031 86.238281 29.039062 C 86.40625 28.871094 86.601562 28.742188 86.835938 28.648438 C 87.074219 28.554688 87.34375 28.507812 87.648438 28.507812 C 87.949219 28.507812 88.222656 28.554688 88.460938 28.648438 C 88.699219 28.742188 88.894531 28.875 89.054688 29.046875 C 89.210938 29.214844 89.332031 29.417969 89.414062 29.65625 C 89.5 29.894531 89.542969 30.160156 89.542969 30.457031 Z M 89.011719 30.457031 C 89.011719 30.226562 88.980469 30.015625 88.925781 29.828125 C 88.867188 29.640625 88.777344 29.480469 88.664062 29.351562 C 88.550781 29.214844 88.40625 29.109375 88.230469 29.039062 C 88.0625 28.96875 87.871094 28.929688 87.648438 28.929688 C 87.421875 28.929688 87.226562 28.96875 87.050781 29.039062 C 86.878906 29.109375 86.730469 29.214844 86.617188 29.351562 C 86.511719 29.480469 86.425781 29.640625 86.371094 29.828125 C 86.308594 30.015625 86.28125 30.226562 86.28125 30.457031 C 86.28125 30.6875 86.308594 30.898438 86.371094 31.09375 C 86.425781 31.285156 86.511719 31.445312 86.628906 31.582031 C 86.742188 31.71875 86.882812 31.828125 87.050781 31.90625 C 87.226562 31.980469 87.421875 32.015625 87.648438 32.015625 C 87.886719 32.015625 88.089844 31.980469 88.265625 31.90625 C 88.4375 31.828125 88.578125 31.71875 88.6875 31.582031 C 88.796875 31.4375 88.875 31.273438 88.925781 31.085938 C 88.980469 30.890625 89.011719 30.679688 89.011719 30.457031 Z M 89.011719 30.457031 "/>
<path style="fill:none;stroke-width:0.06;stroke-linecap:butt;stroke-linejoin:miter;stroke:rgb(0%,0%,47.058824%);stroke-opacity:1;stroke-miterlimit:10;" d="M 1.547117 0.33817 L 0.547113 0.0396415 " transform="matrix(17.328042,0,0,17.324561,17.011798,17.121822)"/>
<path style="fill:none;stroke-width:0.06;stroke-linecap:butt;stroke-linejoin:miter;stroke:rgb(0%,0%,47.058824%);stroke-opacity:1;stroke-miterlimit:10;" d="M 0.580476 0.0279168 L -0.0124032 0.88675 " transform="matrix(17.328042,0,0,17.324561,17.011798,17.121822)"/>
<path style="fill:none;stroke-width:0.06;stroke-linecap:butt;stroke-linejoin:miter;stroke:rgb(0%,0%,47.058824%);stroke-opacity:1;stroke-miterlimit:10;" d="M 0.648781 0.222276 L 0.193639 0.881789 " transform="matrix(17.328042,0,0,17.324561,17.011798,17.121822)"/>
<path style="fill:none;stroke-width:0.06;stroke-linecap:butt;stroke-linejoin:miter;stroke:rgb(0%,0%,47.058824%);stroke-opacity:1;stroke-miterlimit:10;" d="M -0.0130795 0.85135 L 0.620377 1.680872 " transform="matrix(17.328042,0,0,17.324561,17.011798,17.121822)"/>
<path style="fill:none;stroke-width:0.06;stroke-linecap:butt;stroke-linejoin:miter;stroke:rgb(0%,0%,47.058824%);stroke-opacity:1;stroke-miterlimit:10;" d="M 0.586563 1.6705 L 1.571013 1.324396 " transform="matrix(17.328042,0,0,17.324561,17.011798,17.121822)"/>
<path style=" stroke:none;fill-rule:nonzero;fill:rgb(0%,0%,47.058824%);fill-opacity:1;" d="M 43.460938 22.871094 L 61.34375 18.808594 L 60.003906 17.050781 L 59.332031 15.144531 "/>
<path style="fill:none;stroke-width:0.06;stroke-linecap:butt;stroke-linejoin:miter;stroke:rgb(0%,0%,47.058824%);stroke-opacity:1;stroke-miterlimit:10;" d="M 1.525702 0.309986 L 1.55095 1.353483 " transform="matrix(17.328042,0,0,17.324561,17.011798,17.121822)"/>
<path style=" stroke:none;fill-rule:nonzero;fill:rgb(0%,0%,47.058824%);fill-opacity:1;" d="M 43.878906 40.191406 L 56.699219 46.125 L 57.855469 42.253906 "/>
<path style="fill:none;stroke-width:0.0333333;stroke-linecap:butt;stroke-linejoin:miter;stroke:rgb(0%,0%,0%);stroke-opacity:1;stroke-miterlimit:10;" d="M 2.631884 1.438937 L 3.083644 0.78461 " transform="matrix(17.328042,0,0,17.324561,17.011798,17.121822)"/>
<path style="fill:none;stroke-width:0.0333333;stroke-linecap:butt;stroke-linejoin:miter;stroke:rgb(0%,0%,0%);stroke-opacity:1;stroke-miterlimit:10;" d="M 2.462361 -0.00951196 L 3.084095 0.804226 " transform="matrix(17.328042,0,0,17.324561,17.011798,17.121822)"/>
<path style="fill:none;stroke-width:0.0333333;stroke-linecap:butt;stroke-linejoin:miter;stroke:rgb(0%,0%,0%);stroke-opacity:1;stroke-miterlimit:10;" d="M 3.01827 0.879309 L 3.922241 0.857664 " transform="matrix(17.328042,0,0,17.324561,17.011798,17.121822)"/>
<path style="fill:none;stroke-width:0.0333333;stroke-linecap:butt;stroke-linejoin:miter;stroke:rgb(0%,0%,0%);stroke-opacity:1;stroke-miterlimit:10;" d="M 3.014212 0.712683 L 3.918184 0.691038 " transform="matrix(17.328042,0,0,17.324561,17.011798,17.121822)"/>
</g>
</svg>
