<?xml version="1.0" encoding="UTF-8"?>
<svg xmlns="http://www.w3.org/2000/svg" xmlns:xlink="http://www.w3.org/1999/xlink" width="103.2pt" height="64pt" viewBox="0 0 103.2 64" version="1.1">
<g id="surface1407">
<path style=" stroke:none;fill-rule:nonzero;fill:rgb(0%,0%,0%);fill-opacity:1;" d="M 87.65625 33.808594 L 87.222656 32.699219 L 85.476562 32.699219 L 85.042969 33.808594 L 84.5 33.808594 L 86.0625 30.015625 L 86.648438 30.015625 L 88.1875 33.808594 Z M 86.570312 31.039062 C 86.542969 30.96875 86.511719 30.898438 86.484375 30.824219 C 86.464844 30.753906 86.441406 30.691406 86.421875 30.628906 C 86.398438 30.566406 86.378906 30.515625 86.367188 30.480469 C 86.359375 30.4375 86.347656 30.414062 86.34375 30.402344 C 86.34375 30.414062 86.335938 30.4375 86.324219 30.480469 C 86.304688 30.515625 86.289062 30.566406 86.269531 30.628906 C 86.25 30.691406 86.230469 30.757812 86.203125 30.835938 C 86.171875 30.90625 86.148438 30.980469 86.128906 31.050781 L 85.640625 32.300781 L 87.058594 32.300781 Z M 86.570312 31.039062 "/>
<path style=" stroke:none;fill-rule:nonzero;fill:rgb(0%,0%,0%);fill-opacity:1;" d="M 18.886719 32.363281 C 18.886719 32.660156 18.84375 32.929688 18.757812 33.171875 C 18.671875 33.414062 18.542969 33.625 18.378906 33.796875 C 18.21875 33.96875 18.019531 34.101562 17.78125 34.195312 C 17.550781 34.285156 17.289062 34.335938 16.992188 34.335938 C 16.671875 34.335938 16.394531 34.285156 16.15625 34.195312 C 15.925781 34.09375 15.730469 33.957031 15.574219 33.785156 C 15.414062 33.605469 15.292969 33.398438 15.214844 33.160156 C 15.132812 32.917969 15.09375 32.652344 15.09375 32.363281 C 15.09375 32.070312 15.132812 31.800781 15.214844 31.566406 C 15.300781 31.324219 15.421875 31.117188 15.582031 30.949219 C 15.75 30.785156 15.945312 30.65625 16.179688 30.5625 C 16.417969 30.472656 16.6875 30.421875 16.992188 30.421875 C 17.296875 30.421875 17.566406 30.472656 17.804688 30.5625 C 18.042969 30.65625 18.242188 30.789062 18.402344 30.960938 C 18.558594 31.128906 18.675781 31.328125 18.757812 31.566406 C 18.84375 31.800781 18.886719 32.070312 18.886719 32.363281 Z M 18.355469 32.363281 C 18.355469 32.132812 18.328125 31.925781 18.269531 31.738281 C 18.210938 31.550781 18.125 31.394531 18.011719 31.261719 C 17.894531 31.128906 17.75 31.023438 17.578125 30.949219 C 17.410156 30.882812 17.214844 30.84375 16.992188 30.84375 C 16.765625 30.84375 16.570312 30.882812 16.394531 30.949219 C 16.222656 31.023438 16.078125 31.128906 15.960938 31.261719 C 15.855469 31.394531 15.769531 31.550781 15.714844 31.738281 C 15.652344 31.925781 15.625 32.132812 15.625 32.363281 C 15.625 32.59375 15.652344 32.804688 15.714844 33 C 15.769531 33.1875 15.855469 33.347656 15.972656 33.484375 C 16.085938 33.621094 16.226562 33.726562 16.394531 33.804688 C 16.570312 33.878906 16.765625 33.914062 16.992188 33.914062 C 17.230469 33.914062 17.4375 33.878906 17.609375 33.804688 C 17.78125 33.726562 17.925781 33.621094 18.03125 33.484375 C 18.140625 33.339844 18.21875 33.175781 18.269531 32.988281 C 18.328125 32.792969 18.355469 32.585938 18.355469 32.363281 Z M 18.355469 32.363281 "/>
<path style="fill:none;stroke-width:0.0333333;stroke-linecap:butt;stroke-linejoin:miter;stroke:rgb(0%,0%,0%);stroke-opacity:1;stroke-miterlimit:10;" d="M 2.501789 -0.000124562 L 1.482349 0.0091645 " transform="matrix(17.33871,0,0,17.241379,16.9933,17.060741)"/>
<path style="fill:none;stroke-width:0.0333333;stroke-linecap:butt;stroke-linejoin:miter;stroke:rgb(0%,0%,0%);stroke-opacity:1;stroke-miterlimit:10;" d="M 2.48737 -0.00828081 L 2.999907 0.861493 " transform="matrix(17.33871,0,0,17.241379,16.9933,17.060741)"/>
<path style="fill:none;stroke-width:0.0333333;stroke-linecap:butt;stroke-linejoin:miter;stroke:rgb(0%,0%,0%);stroke-opacity:1;stroke-miterlimit:10;" d="M 2.392523 0.159149 L 2.807508 0.863079 " transform="matrix(17.33871,0,0,17.241379,16.9933,17.060741)"/>
<path style="fill:none;stroke-width:0.0333333;stroke-linecap:butt;stroke-linejoin:miter;stroke:rgb(0%,0%,0%);stroke-opacity:1;stroke-miterlimit:10;" d="M 1.496767 0.000555125 L 1.000001 0.879618 " transform="matrix(17.33871,0,0,17.241379,16.9933,17.060741)"/>
<path style="fill:none;stroke-width:0.0333333;stroke-linecap:butt;stroke-linejoin:miter;stroke:rgb(0%,0%,0%);stroke-opacity:1;stroke-miterlimit:10;" d="M 1.594543 0.166399 L 1.192174 0.877805 " transform="matrix(17.33871,0,0,17.241379,16.9933,17.060741)"/>
<path style="fill:none;stroke-width:0.0333333;stroke-linecap:butt;stroke-linejoin:miter;stroke:rgb(0%,0%,0%);stroke-opacity:1;stroke-miterlimit:10;" d="M 0.99482 0.871235 L 1.512538 1.749165 " transform="matrix(17.33871,0,0,17.241379,16.9933,17.060741)"/>
<path style="fill:none;stroke-width:0.0333333;stroke-linecap:butt;stroke-linejoin:miter;stroke:rgb(0%,0%,0%);stroke-opacity:1;stroke-miterlimit:10;" d="M 1.498119 1.741008 L 2.517334 1.731946 " transform="matrix(17.33871,0,0,17.241379,16.9933,17.060741)"/>
<path style="fill:none;stroke-width:0.0333333;stroke-linecap:butt;stroke-linejoin:miter;stroke:rgb(0%,0%,0%);stroke-opacity:1;stroke-miterlimit:10;" d="M 1.592741 1.573352 L 2.419558 1.566102 " transform="matrix(17.33871,0,0,17.241379,16.9933,17.060741)"/>
<path style="fill:none;stroke-width:0.0333333;stroke-linecap:butt;stroke-linejoin:miter;stroke:rgb(0%,0%,0%);stroke-opacity:1;stroke-miterlimit:10;" d="M 2.502915 1.740329 L 3.004638 0.852883 " transform="matrix(17.33871,0,0,17.241379,16.9933,17.060741)"/>
<path style="fill:none;stroke-width:0.0333333;stroke-linecap:butt;stroke-linejoin:miter;stroke:rgb(0%,0%,0%);stroke-opacity:1;stroke-miterlimit:10;" d="M 2.989994 0.861493 L 3.850154 0.861493 " transform="matrix(17.33871,0,0,17.241379,16.9933,17.060741)"/>
<path style="fill:none;stroke-width:0.0333333;stroke-linecap:butt;stroke-linejoin:miter;stroke:rgb(0%,0%,0%);stroke-opacity:1;stroke-miterlimit:10;" d="M 1.009463 0.879391 L 0.153584 0.887094 " transform="matrix(17.33871,0,0,17.241379,16.9933,17.060741)"/>
</g>
</svg>
