<?xml version="1.0" encoding="UTF-8"?>
<svg xmlns="http://www.w3.org/2000/svg" xmlns:xlink="http://www.w3.org/1999/xlink" width="91.2pt" height="68.8pt" viewBox="0 0 91.2 68.8" version="1.1">
<g id="surface1742">
<path style=" stroke:none;fill-rule:nonzero;fill:rgb(0%,0%,0%);fill-opacity:1;" d="M 75.851562 34.382812 C 75.851562 34.679688 75.808594 34.949219 75.722656 35.191406 C 75.636719 35.433594 75.507812 35.640625 75.34375 35.8125 C 75.183594 35.984375 74.984375 36.121094 74.746094 36.210938 C 74.511719 36.304688 74.246094 36.351562 73.953125 36.351562 C 73.632812 36.351562 73.355469 36.304688 73.117188 36.210938 C 72.882812 36.113281 72.6875 35.976562 72.527344 35.804688 C 72.367188 35.625 72.25 35.414062 72.171875 35.179688 C 72.089844 34.9375 72.050781 34.671875 72.050781 34.382812 C 72.050781 34.089844 72.089844 33.824219 72.171875 33.589844 C 72.257812 33.347656 72.378906 33.140625 72.539062 32.976562 C 72.707031 32.8125 72.902344 32.683594 73.136719 32.589844 C 73.375 32.496094 73.648438 32.449219 73.953125 32.449219 C 74.257812 32.449219 74.527344 32.496094 74.765625 32.589844 C 75.003906 32.683594 75.203125 32.8125 75.363281 32.988281 C 75.519531 33.152344 75.640625 33.351562 75.722656 33.589844 C 75.808594 33.824219 75.851562 34.089844 75.851562 34.382812 Z M 75.320312 34.382812 C 75.320312 34.15625 75.289062 33.949219 75.234375 33.761719 C 75.171875 33.574219 75.085938 33.417969 74.972656 33.289062 C 74.855469 33.152344 74.710938 33.046875 74.539062 32.976562 C 74.371094 32.90625 74.175781 32.867188 73.953125 32.867188 C 73.726562 32.867188 73.527344 32.90625 73.355469 32.976562 C 73.179688 33.046875 73.035156 33.152344 72.921875 33.289062 C 72.8125 33.417969 72.726562 33.574219 72.671875 33.761719 C 72.609375 33.949219 72.582031 34.15625 72.582031 34.382812 C 72.582031 34.613281 72.609375 34.824219 72.671875 35.019531 C 72.726562 35.207031 72.8125 35.367188 72.929688 35.5 C 73.042969 35.640625 73.1875 35.746094 73.355469 35.824219 C 73.527344 35.898438 73.726562 35.933594 73.953125 35.933594 C 74.191406 35.933594 74.398438 35.898438 74.570312 35.824219 C 74.746094 35.746094 74.886719 35.640625 74.996094 35.5 C 75.101562 35.359375 75.183594 35.195312 75.234375 35.007812 C 75.289062 34.8125 75.320312 34.605469 75.320312 34.382812 Z M 75.320312 34.382812 "/>
<path style="fill:none;stroke-width:0.06;stroke-linecap:butt;stroke-linejoin:miter;stroke:rgb(0%,0%,47.058824%);stroke-opacity:1;stroke-miterlimit:10;" d="M 0.881152 -0.00866451 L -0.0150484 0.508687 " transform="matrix(17.378049,0,0,17.2,17.109169,17.199811)"/>
<path style="fill:none;stroke-width:0.06;stroke-linecap:butt;stroke-linejoin:miter;stroke:rgb(0%,0%,47.058824%);stroke-opacity:1;stroke-miterlimit:10;" d="M 0.851032 -0.00866451 L 1.732172 0.500056 " transform="matrix(17.378049,0,0,17.2,17.109169,17.199811)"/>
<path style="fill:none;stroke-width:0.06;stroke-linecap:butt;stroke-linejoin:miter;stroke:rgb(0%,0%,47.058824%);stroke-opacity:1;stroke-miterlimit:10;" d="M 0.851032 0.183696 L 1.565385 0.59635 " transform="matrix(17.378049,0,0,17.2,17.109169,17.199811)"/>
<path style="fill:none;stroke-width:0.06;stroke-linecap:butt;stroke-linejoin:miter;stroke:rgb(0%,0%,47.058824%);stroke-opacity:1;stroke-miterlimit:10;" d="M 0.0000118737 0.482569 L 0.0000118737 1.517271 " transform="matrix(17.378049,0,0,17.2,17.109169,17.199811)"/>
<path style="fill:none;stroke-width:0.06;stroke-linecap:butt;stroke-linejoin:miter;stroke:rgb(0%,0%,47.058824%);stroke-opacity:1;stroke-miterlimit:10;" d="M 0.166799 0.578863 L 0.166799 1.421205 " transform="matrix(17.378049,0,0,17.2,17.109169,17.199811)"/>
<path style="fill:none;stroke-width:0.06;stroke-linecap:butt;stroke-linejoin:miter;stroke:rgb(0%,0%,47.058824%);stroke-opacity:1;stroke-miterlimit:10;" d="M -0.0150484 1.491381 L 0.881152 2.008505 " transform="matrix(17.378049,0,0,17.2,17.109169,17.199811)"/>
<path style="fill:none;stroke-width:0.06;stroke-linecap:butt;stroke-linejoin:miter;stroke:rgb(0%,0%,47.058824%);stroke-opacity:1;stroke-miterlimit:10;" d="M 0.851032 2.008505 L 1.732172 1.500011 " transform="matrix(17.378049,0,0,17.2,17.109169,17.199811)"/>
<path style="fill:none;stroke-width:0.06;stroke-linecap:butt;stroke-linejoin:miter;stroke:rgb(0%,0%,47.058824%);stroke-opacity:1;stroke-miterlimit:10;" d="M 0.851032 1.816372 L 1.565385 1.403717 " transform="matrix(17.378049,0,0,17.2,17.109169,17.199811)"/>
<path style="fill:none;stroke-width:0.06;stroke-linecap:butt;stroke-linejoin:miter;stroke:rgb(0%,0%,47.058824%);stroke-opacity:1;stroke-miterlimit:10;" d="M 1.711492 1.493198 L 2.694458 1.812738 " transform="matrix(17.378049,0,0,17.2,17.109169,17.199811)"/>
<path style="fill:none;stroke-width:0.06;stroke-linecap:butt;stroke-linejoin:miter;stroke:rgb(0%,0%,47.058824%);stroke-opacity:1;stroke-miterlimit:10;" d="M 1.732172 0.487793 L 1.732172 1.521813 " transform="matrix(17.378049,0,0,17.2,17.109169,17.199811)"/>
<path style="fill:none;stroke-width:0.0333333;stroke-linecap:butt;stroke-linejoin:miter;stroke:rgb(0%,0%,0%);stroke-opacity:1;stroke-miterlimit:10;" d="M 1.720708 0.50369 L 2.694683 0.187329 " transform="matrix(17.378049,0,0,17.2,17.109169,17.199811)"/>
<path style="fill:none;stroke-width:0.0333333;stroke-linecap:butt;stroke-linejoin:miter;stroke:rgb(0%,0%,0%);stroke-opacity:1;stroke-miterlimit:10;" d="M 2.676026 1.81887 L 3.14357 1.175247 " transform="matrix(17.378049,0,0,17.2,17.109169,17.199811)"/>
<path style="fill:none;stroke-width:0.0333333;stroke-linecap:butt;stroke-linejoin:miter;stroke:rgb(0%,0%,0%);stroke-opacity:1;stroke-miterlimit:10;" d="M 3.14357 0.82482 L 2.676026 0.181197 " transform="matrix(17.378049,0,0,17.2,17.109169,17.199811)"/>
</g>
</svg>
