<?xml version="1.0" encoding="UTF-8"?>
<svg xmlns="http://www.w3.org/2000/svg" xmlns:xlink="http://www.w3.org/1999/xlink" width="148.8pt" height="109.6pt" viewBox="0 0 148.8 109.6" version="1.1">
<g id="surface1232">
<path style=" stroke:none;fill-rule:nonzero;fill:rgb(0%,0%,0%);fill-opacity:1;" d="M 18.246094 73.398438 L 16.195312 70.152344 C 16.203125 70.242188 16.207031 70.328125 16.207031 70.414062 C 16.210938 70.488281 16.21875 70.566406 16.21875 70.652344 C 16.222656 70.734375 16.226562 70.804688 16.226562 70.867188 L 16.226562 73.398438 L 15.761719 73.398438 L 15.761719 69.59375 L 16.371094 69.59375 L 18.429688 72.855469 C 18.429688 72.855469 18.425781 72.769531 18.417969 72.585938 C 18.410156 72.515625 18.402344 72.433594 18.398438 72.347656 C 18.398438 72.257812 18.398438 72.171875 18.398438 72.089844 L 18.398438 69.59375 L 18.863281 69.59375 L 18.863281 73.398438 Z M 18.246094 73.398438 "/>
<path style=" stroke:none;fill-rule:nonzero;fill:rgb(0%,0%,0%);fill-opacity:1;" d="M 19.210938 41.519531 C 19.210938 41.816406 19.167969 42.085938 19.082031 42.328125 C 18.992188 42.574219 18.867188 42.78125 18.699219 42.957031 C 18.539062 43.128906 18.34375 43.265625 18.105469 43.355469 C 17.871094 43.449219 17.609375 43.496094 17.3125 43.496094 C 16.992188 43.496094 16.714844 43.449219 16.476562 43.355469 C 16.246094 43.253906 16.050781 43.117188 15.890625 42.945312 C 15.730469 42.765625 15.613281 42.554688 15.535156 42.316406 C 15.453125 42.074219 15.414062 41.808594 15.414062 41.519531 C 15.414062 41.222656 15.453125 40.957031 15.535156 40.71875 C 15.621094 40.472656 15.742188 40.269531 15.902344 40.101562 C 16.070312 39.9375 16.265625 39.808594 16.5 39.710938 C 16.738281 39.621094 17.007812 39.570312 17.3125 39.570312 C 17.617188 39.570312 17.886719 39.621094 18.125 39.710938 C 18.363281 39.808594 18.5625 39.9375 18.722656 40.113281 C 18.878906 40.28125 19 40.480469 19.082031 40.71875 C 19.167969 40.957031 19.210938 41.222656 19.210938 41.519531 Z M 18.679688 41.519531 C 18.679688 41.289062 18.648438 41.078125 18.59375 40.890625 C 18.53125 40.703125 18.445312 40.542969 18.332031 40.414062 C 18.214844 40.28125 18.070312 40.175781 17.898438 40.101562 C 17.730469 40.03125 17.535156 39.992188 17.3125 39.992188 C 17.085938 39.992188 16.890625 40.03125 16.714844 40.101562 C 16.542969 40.175781 16.394531 40.28125 16.28125 40.414062 C 16.175781 40.542969 16.089844 40.703125 16.03125 40.890625 C 15.972656 41.078125 15.945312 41.289062 15.945312 41.519531 C 15.945312 41.75 15.972656 41.960938 16.03125 42.15625 C 16.089844 42.34375 16.175781 42.507812 16.292969 42.640625 C 16.40625 42.78125 16.546875 42.886719 16.714844 42.964844 C 16.890625 43.039062 17.085938 43.074219 17.3125 43.074219 C 17.550781 43.074219 17.757812 43.039062 17.929688 42.964844 C 18.105469 42.886719 18.246094 42.78125 18.355469 42.640625 C 18.460938 42.5 18.539062 42.335938 18.59375 42.144531 C 18.648438 41.949219 18.679688 41.742188 18.679688 41.519531 Z M 18.679688 41.519531 "/>
<path style=" stroke:none;fill-rule:nonzero;fill:rgb(0%,0%,0%);fill-opacity:1;" d="M 133.105469 33.761719 C 133.105469 34.0625 133.0625 34.332031 132.972656 34.574219 C 132.886719 34.820312 132.761719 35.027344 132.59375 35.203125 C 132.433594 35.375 132.238281 35.507812 132 35.601562 C 131.765625 35.691406 131.503906 35.742188 131.207031 35.742188 C 130.886719 35.742188 130.609375 35.691406 130.371094 35.601562 C 130.140625 35.5 129.945312 35.363281 129.785156 35.191406 C 129.625 35.011719 129.507812 34.800781 129.429688 34.5625 C 129.347656 34.320312 129.308594 34.050781 129.308594 33.761719 C 129.308594 33.46875 129.347656 33.203125 129.429688 32.964844 C 129.515625 32.71875 129.636719 32.515625 129.796875 32.347656 C 129.960938 32.183594 130.160156 32.050781 130.394531 31.957031 C 130.632812 31.867188 130.902344 31.816406 131.207031 31.816406 C 131.511719 31.816406 131.78125 31.867188 132.019531 31.957031 C 132.257812 32.050781 132.457031 32.183594 132.617188 32.359375 C 132.773438 32.527344 132.894531 32.726562 132.972656 32.964844 C 133.0625 33.203125 133.105469 33.46875 133.105469 33.761719 Z M 132.574219 33.761719 C 132.574219 33.535156 132.542969 33.324219 132.488281 33.136719 C 132.425781 32.949219 132.339844 32.789062 132.226562 32.660156 C 132.109375 32.527344 131.964844 32.421875 131.792969 32.347656 C 131.625 32.277344 131.429688 32.238281 131.207031 32.238281 C 130.980469 32.238281 130.785156 32.277344 130.609375 32.347656 C 130.4375 32.421875 130.289062 32.527344 130.175781 32.660156 C 130.066406 32.789062 129.984375 32.949219 129.925781 33.136719 C 129.867188 33.324219 129.839844 33.535156 129.839844 33.761719 C 129.839844 33.996094 129.867188 34.207031 129.925781 34.402344 C 129.984375 34.589844 130.070312 34.753906 130.1875 34.886719 C 130.300781 35.027344 130.441406 35.132812 130.609375 35.210938 C 130.785156 35.285156 130.980469 35.320312 131.207031 35.320312 C 131.445312 35.320312 131.652344 35.285156 131.824219 35.210938 C 132 35.132812 132.140625 35.027344 132.246094 34.886719 C 132.355469 34.746094 132.433594 34.578125 132.488281 34.390625 C 132.542969 34.195312 132.574219 33.988281 132.574219 33.761719 Z M 132.574219 33.761719 "/>
<path style=" stroke:none;fill-rule:nonzero;fill:rgb(0%,0%,0%);fill-opacity:1;" d="M 133.105469 75.523438 C 133.105469 75.820312 133.0625 76.09375 132.972656 76.335938 C 132.886719 76.582031 132.761719 76.789062 132.59375 76.960938 C 132.433594 77.136719 132.238281 77.269531 132 77.363281 C 131.765625 77.453125 131.503906 77.503906 131.207031 77.503906 C 130.886719 77.503906 130.609375 77.453125 130.371094 77.363281 C 130.140625 77.261719 129.945312 77.125 129.785156 76.953125 C 129.625 76.773438 129.507812 76.5625 129.429688 76.324219 C 129.347656 76.082031 129.308594 75.8125 129.308594 75.523438 C 129.308594 75.230469 129.347656 74.960938 129.429688 74.722656 C 129.515625 74.480469 129.636719 74.277344 129.796875 74.109375 C 129.960938 73.945312 130.160156 73.8125 130.394531 73.71875 C 130.632812 73.628906 130.902344 73.578125 131.207031 73.578125 C 131.511719 73.578125 131.78125 73.628906 132.019531 73.71875 C 132.257812 73.8125 132.457031 73.945312 132.617188 74.117188 C 132.773438 74.285156 132.894531 74.488281 132.972656 74.722656 C 133.0625 74.960938 133.105469 75.230469 133.105469 75.523438 Z M 132.574219 75.523438 C 132.574219 75.292969 132.542969 75.085938 132.488281 74.898438 C 132.425781 74.710938 132.339844 74.550781 132.226562 74.421875 C 132.109375 74.285156 131.964844 74.179688 131.792969 74.109375 C 131.625 74.039062 131.429688 74 131.207031 74 C 130.980469 74 130.785156 74.039062 130.609375 74.109375 C 130.4375 74.179688 130.289062 74.285156 130.175781 74.421875 C 130.066406 74.550781 129.984375 74.710938 129.925781 74.898438 C 129.867188 75.085938 129.839844 75.292969 129.839844 75.523438 C 129.839844 75.757812 129.867188 75.96875 129.925781 76.164062 C 129.984375 76.351562 130.070312 76.515625 130.1875 76.648438 C 130.300781 76.785156 130.441406 76.894531 130.609375 76.972656 C 130.785156 77.046875 130.980469 77.082031 131.207031 77.082031 C 131.445312 77.082031 131.652344 77.046875 131.824219 76.972656 C 132 76.894531 132.140625 76.785156 132.246094 76.648438 C 132.355469 76.503906 132.433594 76.339844 132.488281 76.152344 C 132.542969 75.957031 132.574219 75.75 132.574219 75.523438 Z M 132.574219 75.523438 "/>
<path style=" stroke:none;fill-rule:nonzero;fill:rgb(0%,0%,0%);fill-opacity:1;" d="M 90.25 35.683594 L 88.203125 32.4375 C 88.207031 32.527344 88.210938 32.613281 88.210938 32.699219 C 88.21875 32.773438 88.222656 32.851562 88.222656 32.9375 C 88.230469 33.015625 88.234375 33.085938 88.234375 33.152344 L 88.234375 35.683594 L 87.769531 35.683594 L 87.769531 31.875 L 88.375 31.875 L 90.433594 35.140625 C 90.433594 35.140625 90.429688 35.054688 90.425781 34.871094 C 90.417969 34.800781 90.410156 34.71875 90.402344 34.632812 C 90.402344 34.542969 90.402344 34.457031 90.402344 34.375 L 90.402344 31.875 L 90.867188 31.875 L 90.867188 35.683594 Z M 90.25 35.683594 "/>
<path style=" stroke:none;fill-rule:nonzero;fill:rgb(0%,0%,0%);fill-opacity:1;" d="M 72.667969 36.71875 C 72.449219 36.71875 72.257812 36.753906 72.09375 36.824219 C 71.925781 36.898438 71.785156 37.003906 71.667969 37.140625 C 71.5625 37.269531 71.476562 37.429688 71.421875 37.613281 C 71.359375 37.804688 71.332031 38.011719 71.332031 38.242188 C 71.332031 38.472656 71.359375 38.683594 71.421875 38.878906 C 71.484375 39.070312 71.574219 39.230469 71.691406 39.367188 C 71.804688 39.503906 71.945312 39.613281 72.113281 39.691406 C 72.289062 39.765625 72.476562 39.800781 72.6875 39.800781 C 72.839844 39.800781 72.972656 39.78125 73.089844 39.746094 C 73.210938 39.703125 73.324219 39.644531 73.425781 39.570312 C 73.527344 39.5 73.613281 39.417969 73.6875 39.324219 C 73.765625 39.230469 73.832031 39.125 73.890625 39 L 74.316406 39.214844 C 74.25 39.359375 74.167969 39.492188 74.066406 39.613281 C 73.964844 39.738281 73.84375 39.847656 73.707031 39.9375 C 73.570312 40.027344 73.414062 40.097656 73.242188 40.144531 C 73.066406 40.195312 72.875 40.21875 72.667969 40.21875 C 72.355469 40.21875 72.085938 40.171875 71.855469 40.078125 C 71.621094 39.980469 71.425781 39.84375 71.269531 39.667969 C 71.117188 39.492188 71 39.28125 70.921875 39.042969 C 70.839844 38.796875 70.800781 38.53125 70.800781 38.242188 C 70.800781 37.949219 70.839844 37.679688 70.921875 37.441406 C 71.007812 37.199219 71.128906 36.992188 71.289062 36.824219 C 71.445312 36.660156 71.640625 36.53125 71.875 36.4375 C 72.105469 36.34375 72.367188 36.296875 72.667969 36.296875 C 73.070312 36.296875 73.40625 36.378906 73.675781 36.535156 C 73.949219 36.691406 74.152344 36.929688 74.28125 37.246094 L 73.792969 37.410156 C 73.757812 37.316406 73.707031 37.230469 73.644531 37.148438 C 73.582031 37.0625 73.507812 36.992188 73.414062 36.933594 C 73.320312 36.867188 73.210938 36.820312 73.089844 36.78125 C 72.964844 36.738281 72.824219 36.71875 72.667969 36.71875 Z M 72.667969 36.71875 "/>
<path style=" stroke:none;fill-rule:nonzero;fill:rgb(0%,0%,0%);fill-opacity:1;" d="M 93.917969 15.53125 C 93.703125 15.53125 93.507812 15.566406 93.34375 15.636719 C 93.175781 15.710938 93.035156 15.816406 92.921875 15.953125 C 92.8125 16.082031 92.730469 16.242188 92.671875 16.425781 C 92.613281 16.617188 92.585938 16.824219 92.585938 17.054688 C 92.585938 17.289062 92.613281 17.496094 92.671875 17.691406 C 92.738281 17.882812 92.828125 18.042969 92.941406 18.179688 C 93.058594 18.316406 93.199219 18.425781 93.367188 18.503906 C 93.539062 18.578125 93.730469 18.613281 93.941406 18.613281 C 94.09375 18.613281 94.226562 18.59375 94.34375 18.558594 C 94.464844 18.515625 94.574219 18.457031 94.679688 18.382812 C 94.777344 18.3125 94.863281 18.230469 94.9375 18.136719 C 95.015625 18.042969 95.085938 17.9375 95.144531 17.8125 L 95.566406 18.027344 C 95.503906 18.171875 95.417969 18.304688 95.316406 18.429688 C 95.214844 18.550781 95.09375 18.660156 94.960938 18.753906 C 94.820312 18.839844 94.667969 18.910156 94.492188 18.957031 C 94.320312 19.007812 94.128906 19.03125 93.917969 19.03125 C 93.605469 19.03125 93.335938 18.984375 93.105469 18.894531 C 92.871094 18.792969 92.675781 18.65625 92.519531 18.480469 C 92.367188 18.304688 92.25 18.09375 92.171875 17.855469 C 92.09375 17.613281 92.054688 17.34375 92.054688 17.054688 C 92.054688 16.761719 92.09375 16.492188 92.171875 16.253906 C 92.261719 16.011719 92.382812 15.804688 92.542969 15.636719 C 92.699219 15.472656 92.894531 15.34375 93.128906 15.25 C 93.359375 15.15625 93.621094 15.109375 93.917969 15.109375 C 94.324219 15.109375 94.660156 15.191406 94.925781 15.347656 C 95.203125 15.507812 95.40625 15.742188 95.535156 16.058594 L 95.046875 16.222656 C 95.007812 16.128906 94.960938 16.042969 94.894531 15.960938 C 94.835938 15.875 94.757812 15.804688 94.667969 15.746094 C 94.574219 15.683594 94.464844 15.632812 94.34375 15.59375 C 94.21875 15.550781 94.078125 15.53125 93.917969 15.53125 Z M 93.917969 15.53125 "/>
<path style=" stroke:none;fill-rule:nonzero;fill:rgb(0%,0%,0%);fill-opacity:1;" d="M 90.25 77.445312 L 88.203125 74.199219 C 88.207031 74.285156 88.210938 74.375 88.210938 74.460938 C 88.21875 74.53125 88.222656 74.609375 88.222656 74.699219 C 88.230469 74.777344 88.234375 74.847656 88.234375 74.914062 L 88.234375 77.445312 L 87.769531 77.445312 L 87.769531 73.636719 L 88.375 73.636719 L 90.433594 76.902344 C 90.433594 76.902344 90.429688 76.8125 90.425781 76.632812 C 90.417969 76.5625 90.410156 76.480469 90.402344 76.394531 C 90.402344 76.304688 90.402344 76.214844 90.402344 76.136719 L 90.402344 73.636719 L 90.867188 73.636719 L 90.867188 77.445312 Z M 90.25 77.445312 "/>
<path style=" stroke:none;fill-rule:nonzero;fill:rgb(0%,0%,0%);fill-opacity:1;" d="M 72.667969 69.523438 C 72.449219 69.523438 72.257812 69.5625 72.09375 69.632812 C 71.925781 69.707031 71.785156 69.8125 71.667969 69.945312 C 71.5625 70.074219 71.476562 70.234375 71.421875 70.421875 C 71.359375 70.609375 71.332031 70.820312 71.332031 71.046875 C 71.332031 71.28125 71.359375 71.492188 71.421875 71.6875 C 71.484375 71.875 71.574219 72.039062 71.691406 72.171875 C 71.804688 72.3125 71.945312 72.417969 72.113281 72.496094 C 72.289062 72.570312 72.476562 72.605469 72.6875 72.605469 C 72.839844 72.605469 72.972656 72.589844 73.089844 72.550781 C 73.210938 72.507812 73.324219 72.453125 73.425781 72.378906 C 73.527344 72.308594 73.613281 72.222656 73.6875 72.128906 C 73.765625 72.039062 73.832031 71.929688 73.890625 71.804688 L 74.316406 72.023438 C 74.25 72.167969 74.167969 72.300781 74.066406 72.421875 C 73.964844 72.546875 73.84375 72.652344 73.707031 72.746094 C 73.570312 72.832031 73.414062 72.902344 73.242188 72.953125 C 73.066406 73 72.875 73.027344 72.667969 73.027344 C 72.355469 73.027344 72.085938 72.980469 71.855469 72.886719 C 71.621094 72.785156 71.425781 72.648438 71.269531 72.476562 C 71.117188 72.296875 71 72.085938 70.921875 71.847656 C 70.839844 71.605469 70.800781 71.339844 70.800781 71.046875 C 70.800781 70.753906 70.839844 70.488281 70.921875 70.25 C 71.007812 70.003906 71.128906 69.800781 71.289062 69.632812 C 71.445312 69.46875 71.640625 69.335938 71.875 69.242188 C 72.105469 69.152344 72.367188 69.101562 72.667969 69.101562 C 73.070312 69.101562 73.40625 69.183594 73.675781 69.339844 C 73.949219 69.5 74.152344 69.738281 74.28125 70.054688 L 73.792969 70.214844 C 73.757812 70.125 73.707031 70.039062 73.644531 69.957031 C 73.582031 69.871094 73.507812 69.800781 73.414062 69.742188 C 73.320312 69.675781 73.210938 69.628906 73.089844 69.589844 C 72.964844 69.546875 72.824219 69.523438 72.667969 69.523438 Z M 72.667969 69.523438 "/>
<path style=" stroke:none;fill-rule:nonzero;fill:rgb(0%,0%,0%);fill-opacity:1;" d="M 93.917969 90.710938 C 93.703125 90.710938 93.507812 90.746094 93.34375 90.816406 C 93.175781 90.890625 93.035156 90.996094 92.921875 91.128906 C 92.8125 91.261719 92.730469 91.417969 92.671875 91.605469 C 92.613281 91.796875 92.585938 92.003906 92.585938 92.234375 C 92.585938 92.464844 92.613281 92.675781 92.671875 92.871094 C 92.738281 93.058594 92.828125 93.222656 92.941406 93.359375 C 93.058594 93.496094 93.199219 93.605469 93.367188 93.683594 C 93.539062 93.753906 93.730469 93.789062 93.941406 93.789062 C 94.09375 93.789062 94.226562 93.773438 94.34375 93.734375 C 94.464844 93.691406 94.574219 93.636719 94.679688 93.5625 C 94.777344 93.492188 94.863281 93.410156 94.9375 93.316406 C 95.015625 93.222656 95.085938 93.113281 95.144531 92.988281 L 95.566406 93.207031 C 95.503906 93.351562 95.417969 93.484375 95.316406 93.605469 C 95.214844 93.730469 95.09375 93.839844 94.960938 93.929688 C 94.820312 94.015625 94.667969 94.085938 94.492188 94.136719 C 94.320312 94.183594 94.128906 94.210938 93.917969 94.210938 C 93.605469 94.210938 93.335938 94.164062 93.105469 94.070312 C 92.871094 93.972656 92.675781 93.832031 92.519531 93.660156 C 92.367188 93.480469 92.25 93.269531 92.171875 93.035156 C 92.09375 92.789062 92.054688 92.523438 92.054688 92.234375 C 92.054688 91.9375 92.09375 91.671875 92.171875 91.433594 C 92.261719 91.191406 92.382812 90.984375 92.542969 90.816406 C 92.699219 90.652344 92.894531 90.523438 93.128906 90.429688 C 93.359375 90.335938 93.621094 90.289062 93.917969 90.289062 C 94.324219 90.289062 94.660156 90.367188 94.925781 90.523438 C 95.203125 90.683594 95.40625 90.921875 95.535156 91.238281 L 95.046875 91.402344 C 95.007812 91.308594 94.960938 91.222656 94.894531 91.140625 C 94.835938 91.054688 94.757812 90.984375 94.667969 90.925781 C 94.574219 90.859375 94.464844 90.8125 94.34375 90.773438 C 94.21875 90.730469 94.078125 90.710938 93.917969 90.710938 Z M 93.917969 90.710938 "/>
<path style="fill:none;stroke-width:0.06;stroke-linecap:butt;stroke-linejoin:miter;stroke:rgb(0%,0%,47.058824%);stroke-opacity:1;stroke-miterlimit:10;" d="M 1.499993 2.280215 L 2.228303 1.551941 " transform="matrix(17.350746,0,0,17.29798,17.31385,17.072517)"/>
<path style="fill:none;stroke-width:0.06;stroke-linecap:butt;stroke-linejoin:miter;stroke:rgb(0%,0%,47.058824%);stroke-opacity:1;stroke-miterlimit:10;" d="M 2.185977 1.551941 L 2.914287 2.280215 " transform="matrix(17.350746,0,0,17.29798,17.31385,17.072517)"/>
<path style="fill:none;stroke-width:0.06;stroke-linecap:butt;stroke-linejoin:miter;stroke:rgb(0%,0%,47.058824%);stroke-opacity:1;stroke-miterlimit:10;" d="M 2.914287 2.280215 L 2.185977 3.008488 " transform="matrix(17.350746,0,0,17.29798,17.31385,17.072517)"/>
<path style="fill:none;stroke-width:0.06;stroke-linecap:butt;stroke-linejoin:miter;stroke:rgb(0%,0%,47.058824%);stroke-opacity:1;stroke-miterlimit:10;" d="M 1.499993 2.280215 L 2.228303 3.008488 " transform="matrix(17.350746,0,0,17.29798,17.31385,17.072517)"/>
<path style="fill:none;stroke-width:0.0333333;stroke-linecap:butt;stroke-linejoin:miter;stroke:rgb(0%,0%,0%);stroke-opacity:1;stroke-miterlimit:10;" d="M 1.499993 2.280215 L 0.49049 2.280215 " transform="matrix(17.350746,0,0,17.29798,17.31385,17.072517)"/>
<path style="fill:none;stroke-width:0.0333333;stroke-linecap:butt;stroke-linejoin:miter;stroke:rgb(0%,0%,0%);stroke-opacity:1;stroke-miterlimit:10;" d="M 0.504674 2.271859 L 0.0996567 2.973712 " transform="matrix(17.350746,0,0,17.29798,17.31385,17.072517)"/>
<path style="fill:none;stroke-width:0.0333333;stroke-linecap:butt;stroke-linejoin:miter;stroke:rgb(0%,0%,0%);stroke-opacity:1;stroke-miterlimit:10;" d="M 0.596078 2.280215 L 0.178229 1.556232 " transform="matrix(17.350746,0,0,17.29798,17.31385,17.072517)"/>
<path style="fill:none;stroke-width:0.0333333;stroke-linecap:butt;stroke-linejoin:miter;stroke:rgb(0%,0%,0%);stroke-opacity:1;stroke-miterlimit:10;" d="M 0.451767 2.363543 L 0.0339175 1.63956 " transform="matrix(17.350746,0,0,17.29798,17.31385,17.072517)"/>
<path style="fill:none;stroke-width:0.06;stroke-linecap:butt;stroke-linejoin:miter;stroke:rgb(0%,0%,47.058824%);stroke-opacity:1;stroke-miterlimit:10;" d="M 4.850218 1.672982 L 5.887187 1.672982 " transform="matrix(17.350746,0,0,17.29798,17.31385,17.072517)"/>
<path style="fill:none;stroke-width:0.06;stroke-linecap:butt;stroke-linejoin:miter;stroke:rgb(0%,0%,47.058824%);stroke-opacity:1;stroke-miterlimit:10;" d="M 5.857244 1.642947 L 5.857244 2.702952 " transform="matrix(17.350746,0,0,17.29798,17.31385,17.072517)"/>
<path style="fill:none;stroke-width:0.06;stroke-linecap:butt;stroke-linejoin:miter;stroke:rgb(0%,0%,47.058824%);stroke-opacity:1;stroke-miterlimit:10;" d="M 5.887187 2.673144 L 4.850218 2.673144 " transform="matrix(17.350746,0,0,17.29798,17.31385,17.072517)"/>
<path style="fill:none;stroke-width:0.06;stroke-linecap:butt;stroke-linejoin:miter;stroke:rgb(0%,0%,47.058824%);stroke-opacity:1;stroke-miterlimit:10;" d="M 4.857197 1.672982 L 4.857197 2.673144 " transform="matrix(17.350746,0,0,17.29798,17.31385,17.072517)"/>
<path style="fill:none;stroke-width:0.06;stroke-linecap:butt;stroke-linejoin:miter;stroke:rgb(0%,0%,47.058824%);stroke-opacity:1;stroke-miterlimit:10;" d="M 5.023797 1.839863 L 5.023797 2.506488 " transform="matrix(17.350746,0,0,17.29798,17.31385,17.072517)"/>
<path style="fill:none;stroke-width:0.0333333;stroke-linecap:butt;stroke-linejoin:miter;stroke:rgb(0%,0%,0%);stroke-opacity:1;stroke-miterlimit:10;" d="M 5.857244 1.791086 L 6.468484 1.179562 " transform="matrix(17.350746,0,0,17.29798,17.31385,17.072517)"/>
<path style="fill:none;stroke-width:0.0333333;stroke-linecap:butt;stroke-linejoin:miter;stroke:rgb(0%,0%,0%);stroke-opacity:1;stroke-miterlimit:10;" d="M 5.739274 1.672982 L 6.350514 1.061684 " transform="matrix(17.350746,0,0,17.29798,17.31385,17.072517)"/>
<path style="fill:none;stroke-width:0.0333333;stroke-linecap:butt;stroke-linejoin:miter;stroke:rgb(0%,0%,0%);stroke-opacity:1;stroke-miterlimit:10;" d="M 5.739274 2.673144 L 6.350514 3.284216 " transform="matrix(17.350746,0,0,17.29798,17.31385,17.072517)"/>
<path style="fill:none;stroke-width:0.0333333;stroke-linecap:butt;stroke-linejoin:miter;stroke:rgb(0%,0%,0%);stroke-opacity:1;stroke-miterlimit:10;" d="M 5.857244 2.555265 L 6.468484 3.166563 " transform="matrix(17.350746,0,0,17.29798,17.31385,17.072517)"/>
<path style="fill:none;stroke-width:0.0333333;stroke-linecap:butt;stroke-linejoin:miter;stroke:rgb(0%,0%,0%);stroke-opacity:1;stroke-miterlimit:10;" d="M 4.86215 1.67795 L 4.29301 1.10888 " transform="matrix(17.350746,0,0,17.29798,17.31385,17.072517)"/>
<path style="fill:none;stroke-width:0.0333333;stroke-linecap:butt;stroke-linejoin:miter;stroke:rgb(0%,0%,0%);stroke-opacity:1;stroke-miterlimit:10;" d="M 3.991555 1.008616 L 3.35465 1.179111 " transform="matrix(17.350746,0,0,17.29798,17.31385,17.072517)"/>
<path style="fill:none;stroke-width:0.0333333;stroke-linecap:butt;stroke-linejoin:miter;stroke:rgb(0%,0%,0%);stroke-opacity:1;stroke-miterlimit:10;" d="M 4.197328 0.789795 L 4.359875 0.182336 " transform="matrix(17.350746,0,0,17.29798,17.31385,17.072517)"/>
<path style="fill:none;stroke-width:0.0333333;stroke-linecap:butt;stroke-linejoin:miter;stroke:rgb(0%,0%,0%);stroke-opacity:1;stroke-miterlimit:10;" d="M 4.86215 2.668175 L 4.29301 3.237019 " transform="matrix(17.350746,0,0,17.29798,17.31385,17.072517)"/>
<path style="fill:none;stroke-width:0.0333333;stroke-linecap:butt;stroke-linejoin:miter;stroke:rgb(0%,0%,0%);stroke-opacity:1;stroke-miterlimit:10;" d="M 3.991555 3.337509 L 3.35465 3.167014 " transform="matrix(17.350746,0,0,17.29798,17.31385,17.072517)"/>
<path style="fill:none;stroke-width:0.0333333;stroke-linecap:butt;stroke-linejoin:miter;stroke:rgb(0%,0%,0%);stroke-opacity:1;stroke-miterlimit:10;" d="M 4.197328 3.55633 L 4.359875 4.163563 " transform="matrix(17.350746,0,0,17.29798,17.31385,17.072517)"/>
</g>
</svg>
