<?xml version="1.0" encoding="UTF-8"?>
<svg xmlns="http://www.w3.org/2000/svg" xmlns:xlink="http://www.w3.org/1999/xlink" width="103.2pt" height="64pt" viewBox="0 0 103.2 64" version="1.1">
<g id="surface1802">
<path style=" stroke:none;fill-rule:nonzero;fill:rgb(0%,0%,47.058824%);fill-opacity:1;" d="M 18.921875 32.363281 C 18.921875 32.660156 18.871094 32.929688 18.78125 33.171875 C 18.691406 33.414062 18.566406 33.625 18.402344 33.796875 C 18.234375 33.96875 18.03125 34.101562 17.792969 34.195312 C 17.554688 34.285156 17.285156 34.335938 16.980469 34.335938 C 16.660156 34.335938 16.386719 34.285156 16.148438 34.195312 C 15.910156 34.09375 15.703125 33.957031 15.539062 33.785156 C 15.378906 33.605469 15.261719 33.398438 15.183594 33.160156 C 15.101562 32.917969 15.0625 32.652344 15.0625 32.363281 C 15.0625 32.070312 15.101562 31.800781 15.183594 31.566406 C 15.269531 31.324219 15.394531 31.117188 15.5625 30.949219 C 15.726562 30.785156 15.929688 30.65625 16.167969 30.5625 C 16.40625 30.472656 16.679688 30.421875 16.992188 30.421875 C 17.300781 30.421875 17.578125 30.472656 17.816406 30.5625 C 18.054688 30.65625 18.25 30.789062 18.410156 30.960938 C 18.578125 31.128906 18.703125 31.328125 18.789062 31.566406 C 18.878906 31.800781 18.921875 32.070312 18.921875 32.363281 Z M 18.109375 32.363281 C 18.109375 32.164062 18.082031 31.984375 18.03125 31.824219 C 17.980469 31.667969 17.90625 31.53125 17.816406 31.414062 C 17.71875 31.300781 17.605469 31.210938 17.46875 31.144531 C 17.332031 31.082031 17.171875 31.046875 16.992188 31.046875 C 16.800781 31.046875 16.636719 31.082031 16.492188 31.144531 C 16.355469 31.210938 16.238281 31.300781 16.148438 31.414062 C 16.050781 31.53125 15.980469 31.667969 15.929688 31.824219 C 15.886719 31.984375 15.863281 32.164062 15.863281 32.363281 C 15.863281 32.566406 15.890625 32.746094 15.941406 32.914062 C 15.988281 33.070312 16.0625 33.210938 16.15625 33.332031 C 16.25 33.449219 16.367188 33.542969 16.503906 33.613281 C 16.640625 33.675781 16.800781 33.710938 16.980469 33.710938 C 17.175781 33.710938 17.339844 33.675781 17.480469 33.613281 C 17.625 33.542969 17.742188 33.449219 17.835938 33.332031 C 17.929688 33.210938 18 33.070312 18.042969 32.902344 C 18.085938 32.738281 18.109375 32.554688 18.109375 32.363281 Z M 18.109375 32.363281 "/>
<path style=" stroke:none;fill-rule:nonzero;fill:rgb(0%,0%,47.058824%);fill-opacity:1;" d="M 86.515625 33.242188 C 86.667969 33.242188 86.800781 33.222656 86.90625 33.179688 C 87.015625 33.136719 87.109375 33.082031 87.1875 33.015625 C 87.269531 32.945312 87.332031 32.867188 87.382812 32.78125 C 87.441406 32.695312 87.488281 32.609375 87.523438 32.523438 L 88.21875 32.78125 C 88.160156 32.917969 88.082031 33.054688 87.992188 33.191406 C 87.90625 33.320312 87.789062 33.433594 87.65625 33.535156 C 87.523438 33.636719 87.367188 33.71875 87.179688 33.78125 C 86.988281 33.839844 86.769531 33.867188 86.515625 33.867188 C 86.183594 33.867188 85.894531 33.820312 85.652344 33.726562 C 85.414062 33.628906 85.210938 33.492188 85.054688 33.320312 C 84.894531 33.140625 84.777344 32.929688 84.695312 32.695312 C 84.625 32.453125 84.589844 32.183594 84.589844 31.898438 C 84.589844 31.601562 84.625 31.335938 84.695312 31.097656 C 84.777344 30.855469 84.890625 30.652344 85.042969 30.484375 C 85.199219 30.320312 85.402344 30.191406 85.640625 30.097656 C 85.878906 30.003906 86.160156 29.957031 86.484375 29.957031 C 86.730469 29.957031 86.945312 29.988281 87.136719 30.042969 C 87.320312 30.09375 87.484375 30.167969 87.621094 30.257812 C 87.757812 30.351562 87.871094 30.464844 87.957031 30.59375 C 88.046875 30.722656 88.113281 30.863281 88.164062 31.011719 L 87.460938 31.207031 C 87.4375 31.128906 87.398438 31.054688 87.339844 30.980469 C 87.289062 30.902344 87.222656 30.835938 87.144531 30.777344 C 87.066406 30.71875 86.972656 30.671875 86.863281 30.636719 C 86.757812 30.601562 86.632812 30.582031 86.496094 30.582031 C 86.300781 30.582031 86.132812 30.613281 85.996094 30.679688 C 85.859375 30.742188 85.742188 30.835938 85.652344 30.949219 C 85.5625 31.0625 85.5 31.203125 85.457031 31.359375 C 85.414062 31.515625 85.390625 31.695312 85.390625 31.898438 C 85.390625 32.097656 85.414062 32.28125 85.457031 32.445312 C 85.5 32.605469 85.5625 32.746094 85.652344 32.867188 C 85.742188 32.980469 85.859375 33.078125 85.996094 33.148438 C 86.140625 33.210938 86.3125 33.242188 86.515625 33.242188 Z M 86.515625 33.242188 "/>
<path style=" stroke:none;fill-rule:nonzero;fill:rgb(0%,0%,47.058824%);fill-opacity:1;" d="M 92.617188 31.898438 C 92.617188 32.191406 92.570312 32.460938 92.476562 32.703125 C 92.390625 32.949219 92.261719 33.15625 92.097656 33.328125 C 91.929688 33.503906 91.730469 33.636719 91.492188 33.726562 C 91.253906 33.820312 90.980469 33.867188 90.679688 33.867188 C 90.359375 33.867188 90.082031 33.820312 89.84375 33.726562 C 89.605469 33.628906 89.402344 33.492188 89.238281 33.320312 C 89.078125 33.140625 88.957031 32.929688 88.878906 32.695312 C 88.796875 32.453125 88.757812 32.183594 88.757812 31.898438 C 88.757812 31.601562 88.796875 31.335938 88.878906 31.097656 C 88.964844 30.855469 89.089844 30.652344 89.257812 30.484375 C 89.421875 30.320312 89.625 30.191406 89.863281 30.097656 C 90.101562 30.003906 90.378906 29.957031 90.6875 29.957031 C 90.996094 29.957031 91.273438 30.003906 91.511719 30.097656 C 91.75 30.191406 91.949219 30.324219 92.109375 30.496094 C 92.273438 30.664062 92.402344 30.863281 92.488281 31.097656 C 92.574219 31.335938 92.617188 31.601562 92.617188 31.898438 Z M 91.804688 31.898438 C 91.804688 31.695312 91.777344 31.515625 91.730469 31.359375 C 91.675781 31.203125 91.605469 31.0625 91.511719 30.949219 C 91.417969 30.835938 91.300781 30.742188 91.164062 30.679688 C 91.027344 30.613281 90.867188 30.582031 90.6875 30.582031 C 90.5 30.582031 90.332031 30.613281 90.191406 30.679688 C 90.050781 30.742188 89.933594 30.835938 89.84375 30.949219 C 89.75 31.0625 89.675781 31.203125 89.625 31.359375 C 89.582031 31.515625 89.5625 31.695312 89.5625 31.898438 C 89.5625 32.097656 89.585938 32.28125 89.636719 32.445312 C 89.6875 32.605469 89.757812 32.746094 89.855469 32.867188 C 89.945312 32.980469 90.0625 33.078125 90.199219 33.148438 C 90.335938 33.210938 90.496094 33.242188 90.679688 33.242188 C 90.871094 33.242188 91.039062 33.210938 91.175781 33.148438 C 91.320312 33.078125 91.4375 32.980469 91.535156 32.867188 C 91.625 32.746094 91.695312 32.601562 91.738281 32.433594 C 91.78125 32.269531 91.804688 32.089844 91.804688 31.898438 Z M 91.804688 31.898438 "/>
<path style=" stroke:none;fill-rule:nonzero;fill:rgb(0%,0%,47.058824%);fill-opacity:1;" d="M 92.90625 34.410156 L 92.90625 34.011719 C 92.96875 33.875 93.050781 33.75 93.144531 33.632812 C 93.234375 33.519531 93.332031 33.414062 93.4375 33.320312 C 93.546875 33.230469 93.644531 33.144531 93.738281 33.0625 C 93.839844 32.976562 93.929688 32.898438 94.011719 32.824219 C 94.097656 32.746094 94.164062 32.667969 94.21875 32.589844 C 94.265625 32.511719 94.292969 32.425781 94.292969 32.339844 C 94.292969 32.21875 94.261719 32.132812 94.195312 32.070312 C 94.128906 32.007812 94.035156 31.976562 93.914062 31.976562 C 93.789062 31.976562 93.695312 32.007812 93.632812 32.070312 C 93.566406 32.136719 93.527344 32.234375 93.511719 32.363281 L 92.9375 32.332031 C 92.945312 32.222656 92.96875 32.121094 93.015625 32.019531 C 93.058594 31.917969 93.117188 31.832031 93.199219 31.757812 C 93.277344 31.6875 93.375 31.628906 93.492188 31.585938 C 93.605469 31.542969 93.746094 31.523438 93.914062 31.523438 C 94.066406 31.523438 94.199219 31.539062 94.3125 31.574219 C 94.4375 31.613281 94.535156 31.667969 94.617188 31.738281 C 94.695312 31.800781 94.757812 31.886719 94.800781 31.984375 C 94.84375 32.078125 94.867188 32.191406 94.867188 32.320312 C 94.867188 32.457031 94.835938 32.578125 94.78125 32.6875 C 94.730469 32.792969 94.664062 32.894531 94.585938 32.988281 C 94.503906 33.074219 94.414062 33.15625 94.3125 33.234375 C 94.210938 33.316406 94.109375 33.394531 94.011719 33.472656 C 93.917969 33.546875 93.828125 33.621094 93.75 33.699219 C 93.679688 33.773438 93.625 33.855469 93.589844 33.945312 L 94.910156 33.945312 L 94.910156 34.410156 Z M 92.90625 34.410156 "/>
<path style=" stroke:none;fill-rule:nonzero;fill:rgb(0%,0%,47.058824%);fill-opacity:1;" d="M 98.375 33.75 L 98.375 31.445312 C 98.375 31.359375 98.375 31.269531 98.375 31.175781 C 98.382812 31.074219 98.386719 30.980469 98.386719 30.894531 C 98.390625 30.804688 98.398438 30.710938 98.398438 30.625 C 98.359375 30.761719 98.324219 30.894531 98.289062 31.023438 C 98.273438 31.082031 98.257812 31.140625 98.246094 31.195312 C 98.230469 31.253906 98.214844 31.3125 98.203125 31.367188 C 98.1875 31.417969 98.171875 31.472656 98.160156 31.519531 C 98.140625 31.5625 98.128906 31.601562 98.117188 31.628906 L 97.433594 33.75 L 96.859375 33.75 L 96.175781 31.628906 C 96.160156 31.601562 96.144531 31.5625 96.132812 31.519531 C 96.117188 31.472656 96.101562 31.417969 96.089844 31.367188 C 96.074219 31.3125 96.058594 31.253906 96.046875 31.195312 C 96.03125 31.140625 96.011719 31.082031 95.992188 31.023438 C 95.953125 30.894531 95.917969 30.761719 95.882812 30.625 C 95.886719 30.726562 95.894531 30.828125 95.894531 30.925781 C 95.898438 31.011719 95.90625 31.105469 95.90625 31.207031 C 95.910156 31.300781 95.914062 31.378906 95.914062 31.445312 L 95.914062 33.75 L 95.199219 33.75 L 95.199219 29.957031 L 96.273438 29.957031 L 96.957031 32.078125 C 96.976562 32.132812 96.992188 32.199219 97.011719 32.285156 C 97.03125 32.367188 97.054688 32.441406 97.074219 32.511719 C 97.097656 32.605469 97.121094 32.699219 97.152344 32.789062 C 97.171875 32.699219 97.195312 32.609375 97.214844 32.523438 C 97.230469 32.488281 97.242188 32.453125 97.25 32.414062 C 97.261719 32.371094 97.273438 32.332031 97.28125 32.296875 C 97.292969 32.253906 97.304688 32.21875 97.3125 32.1875 C 97.328125 32.152344 97.335938 32.121094 97.347656 32.089844 L 98.019531 29.957031 L 99.078125 29.957031 L 99.078125 33.75 Z M 98.375 33.75 "/>
<path style=" stroke:none;fill-rule:nonzero;fill:rgb(0%,0%,47.058824%);fill-opacity:1;" d="M 101.234375 33.804688 C 101.019531 33.804688 100.828125 33.773438 100.660156 33.71875 C 100.492188 33.652344 100.351562 33.554688 100.226562 33.425781 C 100.113281 33.296875 100.023438 33.140625 99.957031 32.953125 C 99.890625 32.757812 99.859375 32.53125 99.859375 32.273438 C 99.859375 32 99.894531 31.773438 99.96875 31.585938 C 100.046875 31.390625 100.148438 31.238281 100.273438 31.121094 C 100.402344 31 100.546875 30.914062 100.714844 30.863281 C 100.882812 30.804688 101.058594 30.777344 101.246094 30.777344 C 101.476562 30.777344 101.671875 30.820312 101.832031 30.90625 C 101.996094 30.984375 102.128906 31.097656 102.234375 31.238281 C 102.339844 31.382812 102.417969 31.558594 102.460938 31.757812 C 102.507812 31.949219 102.535156 32.171875 102.535156 32.414062 L 102.535156 32.433594 L 100.660156 32.433594 C 100.660156 32.558594 100.671875 32.671875 100.695312 32.78125 C 100.714844 32.882812 100.75 32.972656 100.792969 33.050781 C 100.839844 33.128906 100.90625 33.191406 100.988281 33.234375 C 101.066406 33.277344 101.160156 33.296875 101.269531 33.296875 C 101.402344 33.296875 101.511719 33.269531 101.59375 33.210938 C 101.679688 33.15625 101.738281 33.070312 101.777344 32.953125 L 102.492188 33.007812 C 102.464844 33.09375 102.421875 33.183594 102.363281 33.277344 C 102.304688 33.371094 102.226562 33.457031 102.125 33.535156 C 102.03125 33.617188 101.90625 33.679688 101.757812 33.726562 C 101.609375 33.777344 101.4375 33.804688 101.234375 33.804688 Z M 101.234375 31.261719 C 101.15625 31.261719 101.078125 31.277344 101.007812 31.304688 C 100.945312 31.324219 100.882812 31.367188 100.835938 31.421875 C 100.785156 31.480469 100.742188 31.558594 100.714844 31.648438 C 100.6875 31.734375 100.667969 31.839844 100.660156 31.960938 L 101.800781 31.960938 C 101.785156 31.722656 101.726562 31.550781 101.625 31.433594 C 101.53125 31.320312 101.402344 31.261719 101.234375 31.261719 Z M 101.234375 31.261719 "/>
<path style="fill:none;stroke-width:0.06;stroke-linecap:butt;stroke-linejoin:miter;stroke:rgb(0%,0%,47.058824%);stroke-opacity:1;stroke-miterlimit:10;" d="M 2.509449 -0.000124562 L 1.474689 0.0091645 " transform="matrix(17.33871,0,0,17.241379,16.9933,17.060741)"/>
<path style="fill:none;stroke-width:0.06;stroke-linecap:butt;stroke-linejoin:miter;stroke:rgb(0%,0%,47.058824%);stroke-opacity:1;stroke-miterlimit:10;" d="M 2.483315 -0.0150777 L 2.999907 0.861493 " transform="matrix(17.33871,0,0,17.241379,16.9933,17.060741)"/>
<path style="fill:none;stroke-width:0.06;stroke-linecap:butt;stroke-linejoin:miter;stroke:rgb(0%,0%,47.058824%);stroke-opacity:1;stroke-miterlimit:10;" d="M 2.388468 0.152579 L 2.807508 0.863079 " transform="matrix(17.33871,0,0,17.241379,16.9933,17.060741)"/>
<path style="fill:none;stroke-width:0.06;stroke-linecap:butt;stroke-linejoin:miter;stroke:rgb(0%,0%,47.058824%);stroke-opacity:1;stroke-miterlimit:10;" d="M 1.500597 -0.00601519 L 1.000001 0.879618 " transform="matrix(17.33871,0,0,17.241379,16.9933,17.060741)"/>
<path style="fill:none;stroke-width:0.06;stroke-linecap:butt;stroke-linejoin:miter;stroke:rgb(0%,0%,47.058824%);stroke-opacity:1;stroke-miterlimit:10;" d="M 1.598373 0.159602 L 1.192174 0.877805 " transform="matrix(17.33871,0,0,17.241379,16.9933,17.060741)"/>
<path style="fill:none;stroke-width:0.06;stroke-linecap:butt;stroke-linejoin:miter;stroke:rgb(0%,0%,47.058824%);stroke-opacity:1;stroke-miterlimit:10;" d="M 0.99099 0.864438 L 1.516593 1.755961 " transform="matrix(17.33871,0,0,17.241379,16.9933,17.060741)"/>
<path style="fill:none;stroke-width:0.06;stroke-linecap:butt;stroke-linejoin:miter;stroke:rgb(0%,0%,47.058824%);stroke-opacity:1;stroke-miterlimit:10;" d="M 1.490234 1.741008 L 2.524994 1.731946 " transform="matrix(17.33871,0,0,17.241379,16.9933,17.060741)"/>
<path style="fill:none;stroke-width:0.06;stroke-linecap:butt;stroke-linejoin:miter;stroke:rgb(0%,0%,47.058824%);stroke-opacity:1;stroke-miterlimit:10;" d="M 1.585081 1.573579 L 2.427218 1.566102 " transform="matrix(17.33871,0,0,17.241379,16.9933,17.060741)"/>
<path style="fill:none;stroke-width:0.06;stroke-linecap:butt;stroke-linejoin:miter;stroke:rgb(0%,0%,47.058824%);stroke-opacity:1;stroke-miterlimit:10;" d="M 2.499086 1.747125 L 3.008468 0.846313 " transform="matrix(17.33871,0,0,17.241379,16.9933,17.060741)"/>
<path style="fill:none;stroke-width:0.06;stroke-linecap:butt;stroke-linejoin:miter;stroke:rgb(0%,0%,47.058824%);stroke-opacity:1;stroke-miterlimit:10;" d="M 1.017349 0.879391 L 0.155612 0.887094 " transform="matrix(17.33871,0,0,17.241379,16.9933,17.060741)"/>
<path style="fill:none;stroke-width:0.06;stroke-linecap:butt;stroke-linejoin:miter;stroke:rgb(0%,0%,47.058824%);stroke-opacity:1;stroke-miterlimit:10;" d="M 2.982334 0.861493 L 3.855336 0.861493 " transform="matrix(17.33871,0,0,17.241379,16.9933,17.060741)"/>
</g>
</svg>
