<?xml version="1.0" encoding="UTF-8"?>
<svg xmlns="http://www.w3.org/2000/svg" xmlns:xlink="http://www.w3.org/1999/xlink" width="139.2pt" height="170.4pt" viewBox="0 0 139.2 170.4" version="1.1">
<g id="surface482">
<path style=" stroke:none;fill-rule:nonzero;fill:rgb(0%,0%,47.058824%);fill-opacity:1;" d="M 89.1875 101.820312 L 87.519531 98.882812 C 87.535156 98.964844 87.542969 99.042969 87.550781 99.121094 C 87.558594 99.1875 87.5625 99.261719 87.5625 99.339844 C 87.570312 99.421875 87.574219 99.496094 87.574219 99.566406 L 87.574219 101.820312 L 86.859375 101.820312 L 86.859375 98.007812 L 87.78125 98.007812 L 89.457031 100.964844 C 89.449219 100.894531 89.441406 100.8125 89.4375 100.726562 C 89.429688 100.65625 89.421875 100.574219 89.414062 100.488281 C 89.414062 100.402344 89.414062 100.3125 89.414062 100.21875 L 89.414062 98.007812 L 90.121094 98.007812 L 90.121094 101.820312 Z M 89.1875 101.820312 "/>
<path style=" stroke:none;fill-rule:nonzero;fill:rgb(0%,0%,47.058824%);fill-opacity:1;" d="M 58.570312 104.886719 L 56.902344 101.949219 C 56.914062 102.03125 56.925781 102.109375 56.933594 102.1875 C 56.9375 102.253906 56.945312 102.328125 56.945312 102.40625 C 56.949219 102.484375 56.957031 102.5625 56.957031 102.632812 L 56.957031 104.886719 L 56.242188 104.886719 L 56.242188 101.070312 L 57.160156 101.070312 L 58.839844 104.03125 C 58.832031 103.960938 58.824219 103.878906 58.820312 103.792969 C 58.8125 103.722656 58.800781 103.640625 58.796875 103.554688 C 58.796875 103.46875 58.796875 103.378906 58.796875 103.28125 L 58.796875 101.070312 L 59.5 101.070312 L 59.5 104.886719 Z M 58.570312 104.886719 "/>
<path style=" stroke:none;fill-rule:nonzero;fill:rgb(0%,0%,47.058824%);fill-opacity:1;" d="M 61.933594 140.453125 L 60.265625 137.515625 C 60.277344 137.597656 60.289062 137.675781 60.296875 137.753906 C 60.300781 137.820312 60.308594 137.890625 60.308594 137.972656 C 60.3125 138.050781 60.320312 138.128906 60.320312 138.199219 L 60.320312 140.453125 L 59.605469 140.453125 L 59.605469 136.636719 L 60.523438 136.636719 L 62.203125 139.597656 C 62.195312 139.527344 62.1875 139.445312 62.183594 139.359375 C 62.171875 139.289062 62.164062 139.207031 62.160156 139.121094 C 62.160156 139.035156 62.160156 138.945312 62.160156 138.847656 L 62.160156 136.636719 L 62.863281 136.636719 L 62.863281 140.453125 Z M 61.933594 140.453125 "/>
<path style=" stroke:none;fill-rule:nonzero;fill:rgb(0%,0%,47.058824%);fill-opacity:1;" d="M 107.390625 127.203125 L 105.722656 124.265625 C 105.734375 124.347656 105.746094 124.425781 105.753906 124.503906 C 105.761719 124.570312 105.765625 124.640625 105.765625 124.71875 C 105.769531 124.800781 105.777344 124.878906 105.777344 124.949219 L 105.777344 127.203125 L 105.0625 127.203125 L 105.0625 123.386719 L 105.984375 123.386719 L 107.660156 126.347656 C 107.652344 126.277344 107.644531 126.195312 107.640625 126.109375 C 107.632812 126.039062 107.625 125.957031 107.617188 125.871094 C 107.617188 125.78125 107.617188 125.695312 107.617188 125.597656 L 107.617188 123.386719 L 108.320312 123.386719 L 108.320312 127.203125 Z M 107.390625 127.203125 "/>
<path style=" stroke:none;fill-rule:nonzero;fill:rgb(0%,0%,47.058824%);fill-opacity:1;" d="M 95.679688 153.417969 C 95.679688 153.71875 95.632812 153.988281 95.539062 154.230469 C 95.453125 154.480469 95.328125 154.6875 95.160156 154.859375 C 94.992188 155.035156 94.792969 155.167969 94.554688 155.261719 C 94.316406 155.355469 94.046875 155.402344 93.742188 155.402344 C 93.421875 155.402344 93.148438 155.355469 92.910156 155.261719 C 92.671875 155.160156 92.46875 155.023438 92.300781 154.851562 C 92.140625 154.671875 92.023438 154.460938 91.945312 154.222656 C 91.863281 153.976562 91.824219 153.707031 91.824219 153.417969 C 91.824219 153.125 91.863281 152.855469 91.945312 152.617188 C 92.03125 152.371094 92.15625 152.167969 92.324219 152 C 92.488281 151.832031 92.691406 151.703125 92.929688 151.609375 C 93.167969 151.515625 93.441406 151.46875 93.753906 151.46875 C 94.0625 151.46875 94.339844 151.515625 94.578125 151.609375 C 94.816406 151.703125 95.011719 151.835938 95.171875 152.007812 C 95.335938 152.175781 95.464844 152.378906 95.550781 152.617188 C 95.636719 152.855469 95.679688 153.125 95.679688 153.417969 Z M 94.871094 153.417969 C 94.871094 153.21875 94.84375 153.035156 94.792969 152.875 C 94.742188 152.71875 94.667969 152.582031 94.578125 152.464844 C 94.480469 152.351562 94.367188 152.257812 94.230469 152.195312 C 94.09375 152.128906 93.933594 152.097656 93.753906 152.097656 C 93.5625 152.097656 93.398438 152.128906 93.253906 152.195312 C 93.117188 152.257812 93 152.351562 92.910156 152.464844 C 92.8125 152.582031 92.742188 152.71875 92.691406 152.875 C 92.648438 153.035156 92.628906 153.21875 92.628906 153.417969 C 92.628906 153.621094 92.652344 153.804688 92.703125 153.972656 C 92.75 154.132812 92.824219 154.273438 92.917969 154.394531 C 93.011719 154.511719 93.128906 154.605469 93.265625 154.675781 C 93.402344 154.742188 93.5625 154.773438 93.742188 154.773438 C 93.9375 154.773438 94.101562 154.742188 94.242188 154.675781 C 94.382812 154.605469 94.503906 154.511719 94.597656 154.394531 C 94.691406 154.273438 94.761719 154.128906 94.804688 153.960938 C 94.847656 153.796875 94.871094 153.613281 94.871094 153.417969 Z M 94.871094 153.417969 "/>
<path style=" stroke:none;fill-rule:nonzero;fill:rgb(0%,0%,47.058824%);fill-opacity:1;" d="M 120.28125 98.800781 L 118.613281 95.863281 C 118.628906 95.945312 118.640625 96.023438 118.648438 96.101562 C 118.652344 96.164062 118.660156 96.238281 118.660156 96.316406 C 118.664062 96.398438 118.667969 96.476562 118.667969 96.546875 L 118.667969 98.800781 L 117.953125 98.800781 L 117.953125 94.984375 L 118.875 94.984375 L 120.554688 97.945312 C 120.546875 97.875 120.539062 97.792969 120.53125 97.707031 C 120.523438 97.636719 120.515625 97.554688 120.511719 97.46875 C 120.511719 97.378906 120.511719 97.289062 120.511719 97.195312 L 120.511719 94.984375 L 121.214844 94.984375 L 121.214844 98.800781 Z M 120.28125 98.800781 "/>
<path style=" stroke:none;fill-rule:nonzero;fill:rgb(0%,0%,47.058824%);fill-opacity:1;" d="M 28.660156 105.898438 C 28.660156 106.195312 28.613281 106.46875 28.519531 106.710938 C 28.433594 106.957031 28.304688 107.167969 28.140625 107.339844 C 27.972656 107.511719 27.773438 107.648438 27.535156 107.742188 C 27.296875 107.832031 27.023438 107.882812 26.722656 107.882812 C 26.402344 107.882812 26.125 107.832031 25.886719 107.742188 C 25.648438 107.640625 25.445312 107.503906 25.28125 107.328125 C 25.121094 107.152344 25.003906 106.9375 24.921875 106.699219 C 24.84375 106.457031 24.804688 106.1875 24.804688 105.898438 C 24.804688 105.601562 24.84375 105.335938 24.921875 105.097656 C 25.011719 104.851562 25.136719 104.644531 25.304688 104.476562 C 25.46875 104.3125 25.671875 104.183594 25.910156 104.089844 C 26.148438 103.996094 26.421875 103.945312 26.734375 103.945312 C 27.042969 103.945312 27.316406 103.996094 27.554688 104.089844 C 27.792969 104.183594 27.992188 104.316406 28.152344 104.488281 C 28.316406 104.65625 28.445312 104.859375 28.53125 105.097656 C 28.617188 105.335938 28.660156 105.601562 28.660156 105.898438 Z M 27.847656 105.898438 C 27.847656 105.699219 27.820312 105.515625 27.773438 105.355469 C 27.722656 105.199219 27.648438 105.0625 27.554688 104.945312 C 27.460938 104.832031 27.34375 104.738281 27.210938 104.671875 C 27.070312 104.609375 26.910156 104.574219 26.734375 104.574219 C 26.542969 104.574219 26.378906 104.609375 26.234375 104.671875 C 26.097656 104.738281 25.980469 104.832031 25.886719 104.945312 C 25.792969 105.0625 25.71875 105.199219 25.671875 105.355469 C 25.628906 105.515625 25.605469 105.699219 25.605469 105.898438 C 25.605469 106.101562 25.628906 106.285156 25.683594 106.453125 C 25.730469 106.609375 25.804688 106.753906 25.898438 106.875 C 25.992188 106.992188 26.105469 107.085938 26.246094 107.15625 C 26.378906 107.222656 26.539062 107.253906 26.722656 107.253906 C 26.917969 107.253906 27.082031 107.222656 27.21875 107.15625 C 27.363281 107.085938 27.484375 106.992188 27.578125 106.875 C 27.667969 106.753906 27.738281 106.609375 27.785156 106.441406 C 27.828125 106.273438 27.847656 106.09375 27.847656 105.898438 Z M 27.847656 105.898438 "/>
<path style=" stroke:none;fill-rule:nonzero;fill:rgb(0%,0%,47.058824%);fill-opacity:1;" d="M 74.117188 75.347656 L 72.449219 72.410156 C 72.464844 72.488281 72.476562 72.566406 72.484375 72.648438 C 72.488281 72.710938 72.492188 72.785156 72.492188 72.863281 C 72.5 72.945312 72.503906 73.019531 72.503906 73.089844 L 72.503906 75.347656 L 71.789062 75.347656 L 71.789062 71.53125 L 72.710938 71.53125 L 74.390625 74.488281 C 74.382812 74.417969 74.371094 74.339844 74.367188 74.25 C 74.359375 74.179688 74.351562 74.097656 74.347656 74.011719 C 74.347656 73.925781 74.347656 73.835938 74.347656 73.742188 L 74.347656 71.53125 L 75.050781 71.53125 L 75.050781 75.347656 Z M 74.117188 75.347656 "/>
<path style=" stroke:none;fill-rule:nonzero;fill:rgb(0%,0%,47.058824%);fill-opacity:1;" d="M 46 68.050781 L 44.332031 65.113281 C 44.34375 65.195312 44.355469 65.273438 44.363281 65.351562 C 44.371094 65.417969 44.375 65.488281 44.375 65.566406 C 44.378906 65.648438 44.386719 65.726562 44.386719 65.796875 L 44.386719 68.050781 L 43.671875 68.050781 L 43.671875 64.234375 L 44.589844 64.234375 L 46.269531 67.195312 C 46.261719 67.125 46.253906 67.042969 46.25 66.957031 C 46.242188 66.886719 46.230469 66.804688 46.226562 66.71875 C 46.226562 66.628906 46.226562 66.539062 46.226562 66.445312 L 46.226562 64.234375 L 46.929688 64.234375 L 46.929688 68.050781 Z M 46 68.050781 "/>
<path style=" stroke:none;fill-rule:nonzero;fill:rgb(0%,0%,47.058824%);fill-opacity:1;" d="M 82.574219 42.84375 L 80.90625 39.90625 C 80.917969 39.984375 80.929688 40.066406 80.9375 40.144531 C 80.941406 40.207031 80.949219 40.28125 80.949219 40.359375 C 80.953125 40.441406 80.957031 40.515625 80.957031 40.589844 L 80.957031 42.84375 L 80.242188 42.84375 L 80.242188 39.027344 L 81.164062 39.027344 L 82.84375 41.988281 C 82.835938 41.914062 82.828125 41.835938 82.820312 41.746094 C 82.8125 41.675781 82.804688 41.597656 82.800781 41.507812 C 82.800781 41.421875 82.800781 41.332031 82.800781 41.238281 L 82.800781 39.027344 L 83.503906 39.027344 L 83.503906 42.84375 Z M 82.574219 42.84375 "/>
<path style=" stroke:none;fill-rule:nonzero;fill:rgb(0%,0%,47.058824%);fill-opacity:1;" d="M 38.324219 39.996094 L 36.65625 37.058594 C 36.667969 37.140625 36.679688 37.21875 36.6875 37.296875 C 36.691406 37.363281 36.699219 37.4375 36.699219 37.515625 C 36.703125 37.597656 36.707031 37.671875 36.707031 37.742188 L 36.707031 39.996094 L 35.992188 39.996094 L 35.992188 36.179688 L 36.914062 36.179688 L 38.59375 39.140625 C 38.585938 39.070312 38.578125 38.988281 38.570312 38.902344 C 38.5625 38.832031 38.554688 38.75 38.550781 38.664062 C 38.550781 38.578125 38.550781 38.488281 38.550781 38.394531 L 38.550781 36.179688 L 39.253906 36.179688 L 39.253906 39.996094 Z M 38.324219 39.996094 "/>
<path style=" stroke:none;fill-rule:nonzero;fill:rgb(0%,0%,47.058824%);fill-opacity:1;" d="M 60.082031 17.222656 C 60.082031 17.519531 60.03125 17.792969 59.941406 18.035156 C 59.851562 18.28125 59.726562 18.492188 59.5625 18.664062 C 59.394531 18.839844 59.191406 18.972656 58.953125 19.066406 C 58.714844 19.160156 58.445312 19.207031 58.140625 19.207031 C 57.820312 19.207031 57.546875 19.160156 57.308594 19.066406 C 57.070312 18.964844 56.867188 18.828125 56.699219 18.65625 C 56.542969 18.476562 56.421875 18.265625 56.34375 18.027344 C 56.261719 17.78125 56.222656 17.511719 56.222656 17.222656 C 56.222656 16.929688 56.261719 16.660156 56.34375 16.421875 C 56.429688 16.175781 56.554688 15.972656 56.722656 15.804688 C 56.886719 15.636719 57.089844 15.507812 57.328125 15.414062 C 57.566406 15.320312 57.839844 15.273438 58.152344 15.273438 C 58.460938 15.273438 58.738281 15.320312 58.976562 15.414062 C 59.214844 15.507812 59.410156 15.640625 59.570312 15.8125 C 59.738281 15.980469 59.863281 16.183594 59.949219 16.421875 C 60.039062 16.660156 60.082031 16.929688 60.082031 17.222656 Z M 59.269531 17.222656 C 59.269531 17.023438 59.242188 16.839844 59.191406 16.679688 C 59.140625 16.523438 59.066406 16.386719 58.976562 16.269531 C 58.882812 16.15625 58.765625 16.0625 58.628906 16 C 58.492188 15.933594 58.332031 15.902344 58.152344 15.902344 C 57.964844 15.902344 57.796875 15.933594 57.652344 16 C 57.515625 16.0625 57.398438 16.15625 57.308594 16.269531 C 57.214844 16.386719 57.140625 16.523438 57.089844 16.679688 C 57.046875 16.839844 57.027344 17.023438 57.027344 17.222656 C 57.027344 17.425781 57.050781 17.609375 57.101562 17.777344 C 57.152344 17.9375 57.222656 18.078125 57.320312 18.199219 C 57.410156 18.316406 57.527344 18.410156 57.664062 18.480469 C 57.800781 18.546875 57.960938 18.578125 58.140625 18.578125 C 58.335938 18.578125 58.5 18.546875 58.640625 18.480469 C 58.785156 18.410156 58.902344 18.316406 58.996094 18.199219 C 59.089844 18.078125 59.160156 17.933594 59.203125 17.765625 C 59.246094 17.601562 59.269531 17.417969 59.269531 17.222656 Z M 59.269531 17.222656 "/>
<path style=" stroke:none;fill-rule:nonzero;fill:rgb(0%,0%,47.058824%);fill-opacity:1;" d="M 17.710938 60.671875 L 16.042969 57.734375 C 16.054688 57.8125 16.066406 57.890625 16.074219 57.972656 C 16.078125 58.035156 16.085938 58.109375 16.085938 58.1875 C 16.089844 58.269531 16.097656 58.34375 16.097656 58.414062 L 16.097656 60.671875 L 15.382812 60.671875 L 15.382812 56.855469 L 16.300781 56.855469 L 17.980469 59.8125 C 17.972656 59.742188 17.964844 59.664062 17.957031 59.574219 C 17.949219 59.503906 17.941406 59.425781 17.9375 59.335938 C 17.9375 59.25 17.9375 59.160156 17.9375 59.066406 L 17.9375 56.855469 L 18.640625 56.855469 L 18.640625 60.671875 Z M 17.710938 60.671875 "/>
<path style=" stroke:none;fill-rule:nonzero;fill:rgb(0%,0%,0%);fill-opacity:1;" d="M 124.222656 59.824219 C 124.222656 60.125 124.179688 60.394531 124.09375 60.636719 C 124.007812 60.882812 123.878906 61.09375 123.714844 61.265625 C 123.554688 61.441406 123.355469 61.574219 123.117188 61.667969 C 122.886719 61.761719 122.621094 61.808594 122.328125 61.808594 C 122.007812 61.808594 121.730469 61.761719 121.492188 61.667969 C 121.261719 61.566406 121.066406 61.429688 120.910156 61.257812 C 120.75 61.078125 120.628906 60.867188 120.550781 60.628906 C 120.46875 60.382812 120.433594 60.113281 120.433594 59.824219 C 120.433594 59.53125 120.46875 59.261719 120.550781 59.023438 C 120.636719 58.777344 120.757812 58.574219 120.917969 58.40625 C 121.085938 58.238281 121.28125 58.109375 121.515625 58.015625 C 121.753906 57.921875 122.023438 57.875 122.328125 57.875 C 122.628906 57.875 122.902344 57.921875 123.140625 58.015625 C 123.378906 58.109375 123.574219 58.242188 123.734375 58.414062 C 123.894531 58.582031 124.011719 58.785156 124.09375 59.023438 C 124.179688 59.261719 124.222656 59.53125 124.222656 59.824219 Z M 123.691406 59.824219 C 123.691406 59.59375 123.664062 59.386719 123.605469 59.195312 C 123.546875 59.007812 123.460938 58.847656 123.34375 58.71875 C 123.230469 58.582031 123.085938 58.476562 122.914062 58.40625 C 122.746094 58.335938 122.550781 58.296875 122.328125 58.296875 C 122.101562 58.296875 121.90625 58.335938 121.730469 58.40625 C 121.558594 58.476562 121.414062 58.582031 121.296875 58.71875 C 121.191406 58.847656 121.105469 59.007812 121.050781 59.195312 C 120.988281 59.386719 120.960938 59.59375 120.960938 59.824219 C 120.960938 60.058594 120.988281 60.269531 121.050781 60.464844 C 121.105469 60.652344 121.191406 60.816406 121.308594 60.953125 C 121.421875 61.089844 121.5625 61.199219 121.730469 61.277344 C 121.90625 61.351562 122.101562 61.386719 122.328125 61.386719 C 122.566406 61.386719 122.773438 61.351562 122.945312 61.277344 C 123.117188 61.199219 123.257812 61.089844 123.367188 60.953125 C 123.476562 60.808594 123.554688 60.644531 123.605469 60.453125 C 123.664062 60.257812 123.691406 60.050781 123.691406 59.824219 Z M 123.691406 59.824219 "/>
<path style=" stroke:none;fill-rule:nonzero;fill:rgb(0%,0%,0%);fill-opacity:1;" d="M 116.417969 31.898438 C 116.417969 32.195312 116.371094 32.46875 116.285156 32.710938 C 116.199219 32.957031 116.070312 33.167969 115.90625 33.339844 C 115.746094 33.515625 115.550781 33.648438 115.3125 33.742188 C 115.078125 33.835938 114.816406 33.882812 114.519531 33.882812 C 114.199219 33.882812 113.925781 33.835938 113.6875 33.742188 C 113.453125 33.640625 113.257812 33.503906 113.101562 33.328125 C 112.941406 33.152344 112.824219 32.941406 112.746094 32.703125 C 112.664062 32.457031 112.625 32.1875 112.625 31.898438 C 112.625 31.605469 112.664062 31.335938 112.746094 31.097656 C 112.832031 30.851562 112.953125 30.648438 113.113281 30.480469 C 113.277344 30.3125 113.476562 30.183594 113.707031 30.089844 C 113.945312 29.996094 114.21875 29.949219 114.519531 29.949219 C 114.824219 29.949219 115.09375 29.996094 115.332031 30.089844 C 115.570312 30.183594 115.769531 30.316406 115.929688 30.488281 C 116.085938 30.65625 116.203125 30.859375 116.285156 31.097656 C 116.371094 31.335938 116.417969 31.605469 116.417969 31.898438 Z M 115.886719 31.898438 C 115.886719 31.667969 115.855469 31.460938 115.796875 31.269531 C 115.738281 31.082031 115.652344 30.921875 115.539062 30.792969 C 115.421875 30.65625 115.277344 30.550781 115.105469 30.480469 C 114.9375 30.410156 114.742188 30.371094 114.519531 30.371094 C 114.296875 30.371094 114.097656 30.410156 113.925781 30.480469 C 113.75 30.550781 113.605469 30.65625 113.492188 30.792969 C 113.382812 30.921875 113.300781 31.082031 113.242188 31.269531 C 113.183594 31.460938 113.15625 31.667969 113.15625 31.898438 C 113.15625 32.132812 113.183594 32.34375 113.242188 32.539062 C 113.300781 32.726562 113.386719 32.890625 113.503906 33.027344 C 113.617188 33.164062 113.757812 33.273438 113.925781 33.351562 C 114.097656 33.425781 114.296875 33.460938 114.519531 33.460938 C 114.757812 33.460938 114.964844 33.425781 115.136719 33.351562 C 115.3125 33.273438 115.453125 33.164062 115.558594 33.027344 C 115.667969 32.882812 115.746094 32.71875 115.796875 32.527344 C 115.855469 32.332031 115.886719 32.125 115.886719 31.898438 Z M 115.886719 31.898438 "/>
<path style="fill:none;stroke-width:0.06;stroke-linecap:butt;stroke-linejoin:miter;stroke:rgb(0%,0%,47.058824%);stroke-opacity:1;stroke-miterlimit:10;" d="M 3.28586 5.368793 L 3.385485 6.386271 " transform="matrix(17.330677,0,0,17.345277,17.010847,17.240087)"/>
<path style="fill:none;stroke-width:0.06;stroke-linecap:butt;stroke-linejoin:miter;stroke:rgb(0%,0%,47.058824%);stroke-opacity:1;stroke-miterlimit:10;" d="M 3.461218 5.448065 L 3.542135 6.274569 " transform="matrix(17.330677,0,0,17.345277,17.010847,17.240087)"/>
<path style="fill:none;stroke-width:0.06;stroke-linecap:butt;stroke-linejoin:miter;stroke:rgb(0%,0%,47.058824%);stroke-opacity:1;stroke-miterlimit:10;" d="M 3.27166 5.378927 L 3.961369 4.8837 " transform="matrix(17.330677,0,0,17.345277,17.010847,17.240087)"/>
<path style="fill:none;stroke-width:0.06;stroke-linecap:butt;stroke-linejoin:miter;stroke:rgb(0%,0%,47.058824%);stroke-opacity:1;stroke-miterlimit:10;" d="M 3.301638 5.375999 L 2.529209 5.021751 " transform="matrix(17.330677,0,0,17.345277,17.010847,17.240087)"/>
<path style="fill:none;stroke-width:0.06;stroke-linecap:butt;stroke-linejoin:miter;stroke:rgb(0%,0%,47.058824%);stroke-opacity:1;stroke-miterlimit:10;" d="M 3.369482 6.379289 L 4.349049 6.82407 " transform="matrix(17.330677,0,0,17.345277,17.010847,17.240087)"/>
<path style="fill:none;stroke-width:0.06;stroke-linecap:butt;stroke-linejoin:miter;stroke:rgb(0%,0%,47.058824%);stroke-opacity:1;stroke-miterlimit:10;" d="M 3.399459 6.376136 L 2.714484 6.875191 " transform="matrix(17.330677,0,0,17.345277,17.010847,17.240087)"/>
<path style="fill:none;stroke-width:0.06;stroke-linecap:butt;stroke-linejoin:miter;stroke:rgb(0%,0%,47.058824%);stroke-opacity:1;stroke-miterlimit:10;" d="M 4.296081 4.843163 L 5.080231 5.194484 " transform="matrix(17.330677,0,0,17.345277,17.010847,17.240087)"/>
<path style="fill:none;stroke-width:0.06;stroke-linecap:butt;stroke-linejoin:miter;stroke:rgb(0%,0%,47.058824%);stroke-opacity:1;stroke-miterlimit:10;" d="M 4.228012 4.995402 L 4.922905 5.306636 " transform="matrix(17.330677,0,0,17.345277,17.010847,17.240087)"/>
<path style="fill:none;stroke-width:0.06;stroke-linecap:butt;stroke-linejoin:miter;stroke:rgb(0%,0%,47.058824%);stroke-opacity:1;stroke-miterlimit:10;" d="M 2.193821 5.05891 L 1.494871 5.553011 " transform="matrix(17.330677,0,0,17.345277,17.010847,17.240087)"/>
<path style="fill:none;stroke-width:0.06;stroke-linecap:butt;stroke-linejoin:miter;stroke:rgb(0%,0%,47.058824%);stroke-opacity:1;stroke-miterlimit:10;" d="M 4.319522 6.826772 L 5.010358 6.344608 " transform="matrix(17.330677,0,0,17.345277,17.010847,17.240087)"/>
<path style="fill:none;stroke-width:0.06;stroke-linecap:butt;stroke-linejoin:miter;stroke:rgb(0%,0%,47.058824%);stroke-opacity:1;stroke-miterlimit:10;" d="M 4.246269 6.777227 L 4.329665 7.69021 " transform="matrix(17.330677,0,0,17.345277,17.010847,17.240087)"/>
<path style="fill:none;stroke-width:0.06;stroke-linecap:butt;stroke-linejoin:miter;stroke:rgb(0%,0%,47.058824%);stroke-opacity:1;stroke-miterlimit:10;" d="M 4.41216 6.761913 L 4.495556 7.675121 " transform="matrix(17.330677,0,0,17.345277,17.010847,17.240087)"/>
<path style="fill:none;stroke-width:0.06;stroke-linecap:butt;stroke-linejoin:miter;stroke:rgb(0%,0%,47.058824%);stroke-opacity:1;stroke-miterlimit:10;" d="M 2.380223 6.915053 L 1.595397 6.55585 " transform="matrix(17.330677,0,0,17.345277,17.010847,17.240087)"/>
<path style="fill:none;stroke-width:0.06;stroke-linecap:butt;stroke-linejoin:miter;stroke:rgb(0%,0%,47.058824%);stroke-opacity:1;stroke-miterlimit:10;" d="M 2.449644 6.76349 L 1.751821 6.444148 " transform="matrix(17.330677,0,0,17.345277,17.010847,17.240087)"/>
<path style="fill:none;stroke-width:0.06;stroke-linecap:butt;stroke-linejoin:miter;stroke:rgb(0%,0%,47.058824%);stroke-opacity:1;stroke-miterlimit:10;" d="M 5.066256 5.204393 L 5.755515 4.709391 " transform="matrix(17.330677,0,0,17.345277,17.010847,17.240087)"/>
<path style="fill:none;stroke-width:0.06;stroke-linecap:butt;stroke-linejoin:miter;stroke:rgb(0%,0%,47.058824%);stroke-opacity:1;stroke-miterlimit:10;" d="M 1.587959 5.487251 L 0.782622 5.121292 " transform="matrix(17.330677,0,0,17.345277,17.010847,17.240087)"/>
<path style="fill:none;stroke-width:0.06;stroke-linecap:butt;stroke-linejoin:miter;stroke:rgb(0%,0%,47.058824%);stroke-opacity:1;stroke-miterlimit:10;" d="M 1.518763 5.638814 L 0.713877 5.273305 " transform="matrix(17.330677,0,0,17.345277,17.010847,17.240087)"/>
<path style="fill:none;stroke-width:0.06;stroke-linecap:butt;stroke-linejoin:miter;stroke:rgb(0%,0%,47.058824%);stroke-opacity:1;stroke-miterlimit:10;" d="M 5.078653 5.177368 L 5.159795 6.06738 " transform="matrix(17.330677,0,0,17.345277,17.010847,17.240087)"/>
<path style="fill:none;stroke-width:0.06;stroke-linecap:butt;stroke-linejoin:miter;stroke:rgb(0%,0%,47.058824%);stroke-opacity:1;stroke-miterlimit:10;" d="M 1.507267 5.525536 L 1.612752 6.580172 " transform="matrix(17.330677,0,0,17.345277,17.010847,17.240087)"/>
<path style="fill:none;stroke-width:0.06;stroke-linecap:butt;stroke-linejoin:miter;stroke:rgb(0%,0%,47.058824%);stroke-opacity:1;stroke-miterlimit:10;" d="M 2.57564 2.553275 L 2.821997 1.624978 " transform="matrix(17.330677,0,0,17.345277,17.010847,17.240087)"/>
<path style="fill:none;stroke-width:0.06;stroke-linecap:butt;stroke-linejoin:miter;stroke:rgb(0%,0%,47.058824%);stroke-opacity:1;stroke-miterlimit:10;" d="M 2.438825 2.418827 L 2.636046 1.676325 " transform="matrix(17.330677,0,0,17.345277,17.010847,17.240087)"/>
<path style="fill:none;stroke-width:0.06;stroke-linecap:butt;stroke-linejoin:miter;stroke:rgb(0%,0%,47.058824%);stroke-opacity:1;stroke-miterlimit:10;" d="M 2.563244 2.540663 L 3.110278 3.093768 " transform="matrix(17.330677,0,0,17.345277,17.010847,17.240087)"/>
<path style="fill:none;stroke-width:0.06;stroke-linecap:butt;stroke-linejoin:miter;stroke:rgb(0%,0%,47.058824%);stroke-opacity:1;stroke-miterlimit:10;" d="M 2.59277 2.54832 L 1.797126 2.77285 " transform="matrix(17.330677,0,0,17.345277,17.010847,17.240087)"/>
<path style="fill:none;stroke-width:0.06;stroke-linecap:butt;stroke-linejoin:miter;stroke:rgb(0%,0%,47.058824%);stroke-opacity:1;stroke-miterlimit:10;" d="M 2.805093 1.629707 L 3.578198 1.412384 " transform="matrix(17.330677,0,0,17.345277,17.010847,17.240087)"/>
<path style="fill:none;stroke-width:0.06;stroke-linecap:butt;stroke-linejoin:miter;stroke:rgb(0%,0%,47.058824%);stroke-opacity:1;stroke-miterlimit:10;" d="M 2.834394 1.637139 L 2.112904 0.93112 " transform="matrix(17.330677,0,0,17.345277,17.010847,17.240087)"/>
<path style="fill:none;stroke-width:0.06;stroke-linecap:butt;stroke-linejoin:miter;stroke:rgb(0%,0%,47.058824%);stroke-opacity:1;stroke-miterlimit:10;" d="M 3.421999 3.193308 L 4.214714 2.971706 " transform="matrix(17.330677,0,0,17.345277,17.010847,17.240087)"/>
<path style="fill:none;stroke-width:0.06;stroke-linecap:butt;stroke-linejoin:miter;stroke:rgb(0%,0%,47.058824%);stroke-opacity:1;stroke-miterlimit:10;" d="M 3.377145 3.032737 L 4.077448 2.837033 " transform="matrix(17.330677,0,0,17.345277,17.010847,17.240087)"/>
<path style="fill:none;stroke-width:0.06;stroke-linecap:butt;stroke-linejoin:miter;stroke:rgb(0%,0%,47.058824%);stroke-opacity:1;stroke-miterlimit:10;" d="M 1.487433 2.673985 L 0.943103 2.127636 " transform="matrix(17.330677,0,0,17.345277,17.010847,17.240087)"/>
<path style="fill:none;stroke-width:0.06;stroke-linecap:butt;stroke-linejoin:miter;stroke:rgb(0%,0%,47.058824%);stroke-opacity:1;stroke-miterlimit:10;" d="M 1.60554 2.556202 L 1.128829 2.077866 " transform="matrix(17.330677,0,0,17.345277,17.010847,17.240087)"/>
<path style="fill:none;stroke-width:0.06;stroke-linecap:butt;stroke-linejoin:miter;stroke:rgb(0%,0%,47.058824%);stroke-opacity:1;stroke-miterlimit:10;" d="M 3.89037 1.508997 L 4.439433 2.040707 " transform="matrix(17.330677,0,0,17.345277,17.010847,17.240087)"/>
<path style="fill:none;stroke-width:0.06;stroke-linecap:butt;stroke-linejoin:miter;stroke:rgb(0%,0%,47.058824%);stroke-opacity:1;stroke-miterlimit:10;" d="M 3.774292 1.628807 L 4.253707 2.092955 " transform="matrix(17.330677,0,0,17.345277,17.010847,17.240087)"/>
<path style="fill:none;stroke-width:0.06;stroke-linecap:butt;stroke-linejoin:miter;stroke:rgb(0%,0%,47.058824%);stroke-opacity:1;stroke-miterlimit:10;" d="M 2.141755 0.938552 L 1.353548 1.156776 " transform="matrix(17.330677,0,0,17.345277,17.010847,17.240087)"/>
<path style="fill:none;stroke-width:0.06;stroke-linecap:butt;stroke-linejoin:miter;stroke:rgb(0%,0%,47.058824%);stroke-opacity:1;stroke-miterlimit:10;" d="M 2.193596 1.010167 L 2.405692 0.205959 " transform="matrix(17.330677,0,0,17.345277,17.010847,17.240087)"/>
<path style="fill:none;stroke-width:0.06;stroke-linecap:butt;stroke-linejoin:miter;stroke:rgb(0%,0%,47.058824%);stroke-opacity:1;stroke-miterlimit:10;" d="M 2.032213 0.968955 L 2.24476 0.163395 " transform="matrix(17.330677,0,0,17.345277,17.010847,17.240087)"/>
<path style="fill:none;stroke-width:0.06;stroke-linecap:butt;stroke-linejoin:miter;stroke:rgb(0%,0%,47.058824%);stroke-opacity:1;stroke-miterlimit:10;" d="M 0.959557 2.123132 L 0.164589 2.347437 " transform="matrix(17.330677,0,0,17.345277,17.010847,17.240087)"/>
<path style="fill:none;stroke-width:0.0333333;stroke-linecap:butt;stroke-linejoin:miter;stroke:rgb(0%,0%,0%);stroke-opacity:1;stroke-miterlimit:10;" d="M 4.430191 2.043184 L 5.391952 1.771587 " transform="matrix(17.330677,0,0,17.345277,17.010847,17.240087)"/>
<path style="fill:none;stroke-width:0.0333333;stroke-linecap:butt;stroke-linejoin:miter;stroke:rgb(0%,0%,0%);stroke-opacity:1;stroke-miterlimit:10;" d="M 5.375724 1.767533 L 5.920729 2.302846 " transform="matrix(17.330677,0,0,17.345277,17.010847,17.240087)"/>
<path style="fill:none;stroke-width:0.0333333;stroke-linecap:butt;stroke-linejoin:miter;stroke:rgb(0%,0%,0%);stroke-opacity:1;stroke-miterlimit:10;" d="M 5.451006 1.841626 L 5.658595 1.051605 " transform="matrix(17.330677,0,0,17.345277,17.010847,17.240087)"/>
<path style="fill:none;stroke-width:0.0333333;stroke-linecap:butt;stroke-linejoin:miter;stroke:rgb(0%,0%,0%);stroke-opacity:1;stroke-miterlimit:10;" d="M 5.289623 1.800638 L 5.497437 1.009266 " transform="matrix(17.330677,0,0,17.345277,17.010847,17.240087)"/>
<path style="fill:none;stroke-width:0.06;stroke-linecap:butt;stroke-linejoin:miter;stroke:rgb(0%,0%,47.058824%);stroke-opacity:1;stroke-miterlimit:10;" d="M 4.193752 2.993101 L 4.441912 2.031474 " transform="matrix(17.330677,0,0,17.345277,17.010847,17.240087)"/>
<path style="fill:none;stroke-width:0.06;stroke-linecap:butt;stroke-linejoin:miter;stroke:rgb(0%,0%,47.058824%);stroke-opacity:1;stroke-miterlimit:10;" d="M 0.938821 2.144076 L 1.142353 1.379279 " transform="matrix(17.330677,0,0,17.345277,17.010847,17.240087)"/>
</g>
</svg>
