<?xml version="1.0" encoding="UTF-8"?>
<svg xmlns="http://www.w3.org/2000/svg" xmlns:xlink="http://www.w3.org/1999/xlink" width="62.4pt" height="60.8pt" viewBox="0 0 62.4 60.8" version="1.1">
<g id="surface1567">
<path style=" stroke:none;fill-rule:nonzero;fill:rgb(0%,0%,0%);fill-opacity:1;" d="M 31.988281 19.007812 L 29.949219 15.769531 C 29.957031 15.855469 29.960938 15.941406 29.960938 16.027344 C 29.96875 16.101562 29.972656 16.179688 29.972656 16.265625 C 29.976562 16.347656 29.984375 16.417969 29.984375 16.480469 L 29.984375 19.007812 L 29.519531 19.007812 L 29.519531 15.207031 L 30.125 15.207031 L 32.171875 18.46875 C 32.171875 18.46875 32.167969 18.378906 32.160156 18.199219 C 32.152344 18.128906 32.144531 18.046875 32.140625 17.960938 C 32.140625 17.871094 32.140625 17.78125 32.140625 17.703125 L 32.140625 15.207031 L 32.605469 15.207031 L 32.605469 19.007812 Z M 31.988281 19.007812 "/>
<path style="fill:none;stroke-width:0.0333333;stroke-linecap:butt;stroke-linejoin:miter;stroke:rgb(0%,0%,0%);stroke-opacity:1;stroke-miterlimit:10;" d="M 0.649259 0.116187 L -0.00990763 0.594949 " transform="matrix(17.256637,0,0,17.272727,17.10066,17.110329)"/>
<path style="fill:none;stroke-width:0.0333333;stroke-linecap:butt;stroke-linejoin:miter;stroke:rgb(0%,0%,0%);stroke-opacity:1;stroke-miterlimit:10;" d="M 0.968882 0.116187 L 1.628049 0.594949 " transform="matrix(17.256637,0,0,17.272727,17.10066,17.110329)"/>
<path style="fill:none;stroke-width:0.0333333;stroke-linecap:butt;stroke-linejoin:miter;stroke:rgb(0%,0%,0%);stroke-opacity:1;stroke-miterlimit:10;" d="M -0.00379586 0.576178 L 0.312885 1.550438 " transform="matrix(17.256637,0,0,17.272727,17.10066,17.110329)"/>
<path style="fill:none;stroke-width:0.0333333;stroke-linecap:butt;stroke-linejoin:miter;stroke:rgb(0%,0%,0%);stroke-opacity:1;stroke-miterlimit:10;" d="M 0.192234 0.639953 L 0.433989 1.383539 " transform="matrix(17.256637,0,0,17.272727,17.10066,17.110329)"/>
<path style="fill:none;stroke-width:0.0333333;stroke-linecap:butt;stroke-linejoin:miter;stroke:rgb(0%,0%,0%);stroke-opacity:1;stroke-miterlimit:10;" d="M 0.297039 1.538678 L 1.321328 1.538678 " transform="matrix(17.256637,0,0,17.272727,17.10066,17.110329)"/>
<path style="fill:none;stroke-width:0.0333333;stroke-linecap:butt;stroke-linejoin:miter;stroke:rgb(0%,0%,0%);stroke-opacity:1;stroke-miterlimit:10;" d="M 1.305257 1.550438 L 1.621937 0.576178 " transform="matrix(17.256637,0,0,17.272727,17.10066,17.110329)"/>
<path style="fill:none;stroke-width:0.0333333;stroke-linecap:butt;stroke-linejoin:miter;stroke:rgb(0%,0%,0%);stroke-opacity:1;stroke-miterlimit:10;" d="M 1.184153 1.383539 L 1.425908 0.639953 " transform="matrix(17.256637,0,0,17.272727,17.10066,17.110329)"/>
</g>
</svg>
