<?xml version="1.0" encoding="UTF-8"?>
<svg xmlns="http://www.w3.org/2000/svg" xmlns:xlink="http://www.w3.org/1999/xlink" width="96pt" height="60.8pt" viewBox="0 0 96 60.8" version="1.1">
<g id="surface157">
<path style=" stroke:none;fill-rule:nonzero;fill:rgb(0%,0%,0%);fill-opacity:1;" d="M 49.171875 19.007812 L 48.738281 17.894531 L 46.996094 17.894531 L 46.5625 19.007812 L 46.019531 19.007812 L 47.578125 15.207031 L 48.164062 15.207031 L 49.703125 19.007812 Z M 48.089844 16.234375 C 48.058594 16.164062 48.027344 16.089844 48.003906 16.019531 C 47.980469 15.949219 47.957031 15.882812 47.9375 15.824219 C 47.914062 15.757812 47.898438 15.710938 47.882812 15.671875 C 47.875 15.628906 47.867188 15.605469 47.859375 15.597656 C 47.859375 15.605469 47.851562 15.628906 47.839844 15.671875 C 47.824219 15.710938 47.808594 15.757812 47.785156 15.824219 C 47.769531 15.882812 47.746094 15.949219 47.71875 16.027344 C 47.691406 16.101562 47.667969 16.175781 47.644531 16.246094 L 47.15625 17.496094 L 48.578125 17.496094 Z M 48.089844 16.234375 "/>
<path style=" stroke:none;fill-rule:nonzero;fill:rgb(0%,0%,0%);fill-opacity:1;" d="M 57.84375 45.589844 L 57.410156 44.476562 L 55.664062 44.476562 L 55.230469 45.589844 L 54.6875 45.589844 L 56.25 41.789062 L 56.835938 41.789062 L 58.375 45.589844 Z M 56.757812 42.816406 C 56.730469 42.746094 56.699219 42.671875 56.671875 42.597656 C 56.652344 42.527344 56.628906 42.464844 56.609375 42.40625 C 56.585938 42.339844 56.566406 42.292969 56.554688 42.253906 C 56.546875 42.210938 56.539062 42.1875 56.53125 42.179688 C 56.53125 42.1875 56.523438 42.210938 56.511719 42.253906 C 56.492188 42.292969 56.476562 42.339844 56.457031 42.40625 C 56.441406 42.464844 56.417969 42.53125 56.390625 42.609375 C 56.359375 42.683594 56.335938 42.753906 56.316406 42.824219 L 55.828125 44.078125 L 57.246094 44.078125 Z M 56.757812 42.816406 "/>
<path style=" stroke:none;fill-rule:nonzero;fill:rgb(0%,0%,0%);fill-opacity:1;" d="M 17.1875 21.253906 C 16.972656 21.253906 16.78125 21.292969 16.613281 21.363281 C 16.445312 21.433594 16.304688 21.539062 16.191406 21.675781 C 16.082031 21.804688 16 21.964844 15.941406 22.148438 C 15.882812 22.339844 15.855469 22.546875 15.855469 22.777344 C 15.855469 23.007812 15.882812 23.21875 15.941406 23.414062 C 16.007812 23.601562 16.097656 23.761719 16.214844 23.898438 C 16.328125 24.035156 16.46875 24.144531 16.636719 24.222656 C 16.808594 24.296875 17 24.332031 17.210938 24.332031 C 17.363281 24.332031 17.496094 24.3125 17.613281 24.277344 C 17.734375 24.234375 17.84375 24.175781 17.949219 24.105469 C 18.046875 24.035156 18.136719 23.949219 18.207031 23.855469 C 18.285156 23.761719 18.355469 23.65625 18.414062 23.53125 L 18.835938 23.746094 C 18.773438 23.894531 18.6875 24.023438 18.585938 24.148438 C 18.484375 24.269531 18.367188 24.378906 18.230469 24.46875 C 18.089844 24.558594 17.9375 24.628906 17.765625 24.675781 C 17.589844 24.722656 17.398438 24.75 17.1875 24.75 C 16.878906 24.75 16.605469 24.703125 16.375 24.609375 C 16.144531 24.511719 15.949219 24.375 15.792969 24.199219 C 15.640625 24.023438 15.523438 23.8125 15.445312 23.574219 C 15.363281 23.332031 15.324219 23.066406 15.324219 22.777344 C 15.324219 22.480469 15.363281 22.214844 15.445312 21.976562 C 15.53125 21.734375 15.652344 21.527344 15.8125 21.363281 C 15.96875 21.195312 16.164062 21.066406 16.398438 20.972656 C 16.628906 20.882812 16.890625 20.832031 17.1875 20.832031 C 17.59375 20.832031 17.929688 20.914062 18.195312 21.070312 C 18.472656 21.230469 18.675781 21.464844 18.804688 21.78125 L 18.316406 21.945312 C 18.277344 21.851562 18.230469 21.765625 18.164062 21.683594 C 18.105469 21.597656 18.027344 21.527344 17.9375 21.46875 C 17.84375 21.40625 17.734375 21.355469 17.613281 21.316406 C 17.488281 21.273438 17.347656 21.253906 17.1875 21.253906 Z M 17.1875 21.253906 "/>
<path style=" stroke:none;fill-rule:nonzero;fill:rgb(0%,0%,0%);fill-opacity:1;" d="M 78.746094 21.253906 C 78.53125 21.253906 78.339844 21.292969 78.171875 21.363281 C 78.003906 21.433594 77.863281 21.539062 77.75 21.675781 C 77.640625 21.804688 77.558594 21.964844 77.5 22.148438 C 77.441406 22.339844 77.414062 22.546875 77.414062 22.777344 C 77.414062 23.007812 77.441406 23.21875 77.5 23.414062 C 77.566406 23.601562 77.65625 23.761719 77.773438 23.898438 C 77.886719 24.035156 78.027344 24.144531 78.195312 24.222656 C 78.367188 24.296875 78.558594 24.332031 78.769531 24.332031 C 78.921875 24.332031 79.054688 24.3125 79.171875 24.277344 C 79.292969 24.234375 79.402344 24.175781 79.507812 24.105469 C 79.605469 24.035156 79.691406 23.949219 79.765625 23.855469 C 79.84375 23.761719 79.914062 23.65625 79.972656 23.53125 L 80.394531 23.746094 C 80.328125 23.894531 80.246094 24.023438 80.144531 24.148438 C 80.042969 24.269531 79.921875 24.378906 79.789062 24.46875 C 79.648438 24.558594 79.496094 24.628906 79.320312 24.675781 C 79.148438 24.722656 78.957031 24.75 78.746094 24.75 C 78.4375 24.75 78.164062 24.703125 77.933594 24.609375 C 77.703125 24.511719 77.507812 24.375 77.347656 24.199219 C 77.199219 24.023438 77.082031 23.8125 77.003906 23.574219 C 76.921875 23.332031 76.882812 23.066406 76.882812 22.777344 C 76.882812 22.480469 76.921875 22.214844 77.003906 21.976562 C 77.089844 21.734375 77.210938 21.527344 77.371094 21.363281 C 77.527344 21.195312 77.722656 21.066406 77.957031 20.972656 C 78.1875 20.882812 78.449219 20.832031 78.746094 20.832031 C 79.152344 20.832031 79.488281 20.914062 79.753906 21.070312 C 80.027344 21.230469 80.230469 21.464844 80.363281 21.78125 L 79.875 21.945312 C 79.835938 21.851562 79.789062 21.765625 79.722656 21.683594 C 79.664062 21.597656 79.585938 21.527344 79.496094 21.46875 C 79.398438 21.40625 79.292969 21.355469 79.171875 21.316406 C 79.046875 21.273438 78.90625 21.253906 78.746094 21.253906 Z M 78.746094 21.253906 "/>
<path style="fill:none;stroke-width:0.0333333;stroke-linecap:butt;stroke-linejoin:miter;stroke:rgb(0%,0%,0%);stroke-opacity:1;stroke-miterlimit:10;" d="M 1.604097 0.124113 L 0.959402 0.592473 " transform="matrix(17.34104,0,0,17.272727,17.081718,17.110129)"/>
<path style="fill:none;stroke-width:0.0333333;stroke-linecap:butt;stroke-linejoin:miter;stroke:rgb(0%,0%,0%);stroke-opacity:1;stroke-miterlimit:10;" d="M 1.945818 0.124113 L 2.590513 0.592473 " transform="matrix(17.34104,0,0,17.272727,17.081718,17.110129)"/>
<path style="fill:none;stroke-width:0.0333333;stroke-linecap:butt;stroke-linejoin:miter;stroke:rgb(0%,0%,0%);stroke-opacity:1;stroke-miterlimit:10;" d="M 0.965935 0.587724 L 1.278596 1.55045 " transform="matrix(17.34104,0,0,17.272727,17.081718,17.110129)"/>
<path style="fill:none;stroke-width:0.0333333;stroke-linecap:butt;stroke-linejoin:miter;stroke:rgb(0%,0%,0%);stroke-opacity:1;stroke-miterlimit:10;" d="M 1.161911 0.651498 L 1.399786 1.38355 " transform="matrix(17.34104,0,0,17.272727,17.081718,17.110129)"/>
<path style="fill:none;stroke-width:0.0333333;stroke-linecap:butt;stroke-linejoin:miter;stroke:rgb(0%,0%,0%);stroke-opacity:1;stroke-miterlimit:10;" d="M 1.262828 1.53869 L 2.12535 1.53869 " transform="matrix(17.34104,0,0,17.272727,17.081718,17.110129)"/>
<path style="fill:none;stroke-width:0.0333333;stroke-linecap:butt;stroke-linejoin:miter;stroke:rgb(0%,0%,0%);stroke-opacity:1;stroke-miterlimit:10;" d="M 2.334392 1.356186 L 2.58398 0.587724 " transform="matrix(17.34104,0,0,17.272727,17.081718,17.110129)"/>
<path style="fill:none;stroke-width:0.0333333;stroke-linecap:butt;stroke-linejoin:miter;stroke:rgb(0%,0%,0%);stroke-opacity:1;stroke-miterlimit:10;" d="M 2.175808 1.304623 L 2.388004 0.651498 " transform="matrix(17.34104,0,0,17.272727,17.081718,17.110129)"/>
<path style="fill:none;stroke-width:0.0333333;stroke-linecap:butt;stroke-linejoin:miter;stroke:rgb(0%,0%,0%);stroke-opacity:1;stroke-miterlimit:10;" d="M 0.973594 0.589985 L 0.170315 0.374463 " transform="matrix(17.34104,0,0,17.272727,17.081718,17.110129)"/>
<path style="fill:none;stroke-width:0.0333333;stroke-linecap:butt;stroke-linejoin:miter;stroke:rgb(0%,0%,0%);stroke-opacity:1;stroke-miterlimit:10;" d="M 2.576096 0.589985 L 3.379375 0.374463 " transform="matrix(17.34104,0,0,17.272727,17.081718,17.110129)"/>
</g>
</svg>
