<?xml version="1.0" encoding="UTF-8"?>
<svg xmlns="http://www.w3.org/2000/svg" xmlns:xlink="http://www.w3.org/1999/xlink" width="64pt" height="68.8pt" viewBox="0 0 64 68.8" version="1.1">
<g id="surface47">
<path style="fill:none;stroke-width:0.0333333;stroke-linecap:butt;stroke-linejoin:miter;stroke:rgb(0%,0%,0%);stroke-opacity:1;stroke-miterlimit:10;" d="M 0.874212 -0.00477988 L -0.00847533 0.504622 " transform="matrix(17.241379,0,0,17.2,17.138314,17.199401)"/>
<path style="fill:none;stroke-width:0.0333333;stroke-linecap:butt;stroke-linejoin:miter;stroke:rgb(0%,0%,0%);stroke-opacity:1;stroke-miterlimit:10;" d="M 0.857447 -0.00477988 L 1.740361 0.504622 " transform="matrix(17.241379,0,0,17.2,17.138314,17.199401)"/>
<path style="fill:none;stroke-width:0.0333333;stroke-linecap:butt;stroke-linejoin:miter;stroke:rgb(0%,0%,0%);stroke-opacity:1;stroke-miterlimit:10;" d="M 0.00013405 0.490315 L 0.00013405 1.5098 " transform="matrix(17.241379,0,0,17.2,17.138314,17.199401)"/>
<path style="fill:none;stroke-width:0.0333333;stroke-linecap:butt;stroke-linejoin:miter;stroke:rgb(0%,0%,0%);stroke-opacity:1;stroke-miterlimit:10;" d="M -0.00847533 1.495266 L 0.874212 2.004895 " transform="matrix(17.241379,0,0,17.2,17.138314,17.199401)"/>
<path style="fill:none;stroke-width:0.0333333;stroke-linecap:butt;stroke-linejoin:miter;stroke:rgb(0%,0%,0%);stroke-opacity:1;stroke-miterlimit:10;" d="M 0.857447 2.004895 L 1.740361 1.495266 " transform="matrix(17.241379,0,0,17.2,17.138314,17.199401)"/>
<path style="fill:none;stroke-width:0.0333333;stroke-linecap:butt;stroke-linejoin:miter;stroke:rgb(0%,0%,0%);stroke-opacity:1;stroke-miterlimit:10;" d="M 1.731978 1.5098 L 1.731978 0.490315 " transform="matrix(17.241379,0,0,17.2,17.138314,17.199401)"/>
<path style="fill:none;stroke-width:0.0333333;stroke-linecap:butt;stroke-linejoin:miter;stroke:rgb(0%,0%,0%);stroke-opacity:1;stroke-miterlimit:10;" d="M 0.303501 0.67518 C 0.419501 0.474417 0.634056 0.350416 0.866056 0.350416 " transform="matrix(17.241379,0,0,17.2,17.138314,17.199401)"/>
<path style="fill:none;stroke-width:0.0333333;stroke-linecap:butt;stroke-linejoin:miter;stroke:rgb(0%,0%,0%);stroke-opacity:1;stroke-miterlimit:10;" d="M 0.303501 1.324935 C 0.187501 1.123718 0.187501 0.876397 0.303501 0.67518 " transform="matrix(17.241379,0,0,17.2,17.138314,17.199401)"/>
<path style="fill:none;stroke-width:0.0333333;stroke-linecap:butt;stroke-linejoin:miter;stroke:rgb(0%,0%,0%);stroke-opacity:1;stroke-miterlimit:10;" d="M 0.866056 1.649472 C 0.634056 1.649472 0.419501 1.525698 0.303501 1.324935 " transform="matrix(17.241379,0,0,17.2,17.138314,17.199401)"/>
<path style="fill:none;stroke-width:0.0333333;stroke-linecap:butt;stroke-linejoin:miter;stroke:rgb(0%,0%,0%);stroke-opacity:1;stroke-miterlimit:10;" d="M 1.428384 1.324708 C 1.312384 1.525698 1.098056 1.649472 0.866056 1.649472 " transform="matrix(17.241379,0,0,17.2,17.138314,17.199401)"/>
<path style="fill:none;stroke-width:0.0333333;stroke-linecap:butt;stroke-linejoin:miter;stroke:rgb(0%,0%,0%);stroke-opacity:1;stroke-miterlimit:10;" d="M 1.428384 0.675407 C 1.544384 0.876397 1.544384 1.123718 1.428384 1.324708 " transform="matrix(17.241379,0,0,17.2,17.138314,17.199401)"/>
<path style="fill:none;stroke-width:0.0333333;stroke-linecap:butt;stroke-linejoin:miter;stroke:rgb(0%,0%,0%);stroke-opacity:1;stroke-miterlimit:10;" d="M 0.866056 0.350416 C 1.098056 0.350416 1.312384 0.474417 1.428384 0.675407 " transform="matrix(17.241379,0,0,17.2,17.138314,17.199401)"/>
</g>
</svg>
