<?xml version="1.0" encoding="UTF-8"?>
<svg xmlns="http://www.w3.org/2000/svg" xmlns:xlink="http://www.w3.org/1999/xlink" width="109.6pt" height="68.8pt" viewBox="0 0 109.6 68.8" version="1.1">
<g id="surface1737">
<path style=" stroke:none;fill-rule:nonzero;fill:rgb(0%,0%,0%);fill-opacity:1;" d="M 19.101562 51.652344 C 19.101562 51.949219 19.058594 52.222656 18.972656 52.464844 C 18.882812 52.710938 18.757812 52.921875 18.59375 53.09375 C 18.433594 53.269531 18.234375 53.402344 17.996094 53.496094 C 17.765625 53.585938 17.503906 53.636719 17.207031 53.636719 C 16.890625 53.636719 16.613281 53.585938 16.375 53.496094 C 16.144531 53.394531 15.949219 53.257812 15.792969 53.082031 C 15.632812 52.90625 15.515625 52.695312 15.4375 52.453125 C 15.355469 52.210938 15.316406 51.941406 15.316406 51.652344 C 15.316406 51.359375 15.355469 51.089844 15.4375 50.851562 C 15.523438 50.605469 15.644531 50.402344 15.804688 50.234375 C 15.96875 50.066406 16.164062 49.9375 16.398438 49.84375 C 16.636719 49.75 16.90625 49.703125 17.207031 49.703125 C 17.511719 49.703125 17.78125 49.75 18.019531 49.84375 C 18.257812 49.9375 18.453125 50.070312 18.613281 50.246094 C 18.769531 50.414062 18.890625 50.613281 18.972656 50.851562 C 19.058594 51.089844 19.101562 51.359375 19.101562 51.652344 Z M 18.570312 51.652344 C 18.570312 51.421875 18.542969 51.214844 18.484375 51.023438 C 18.425781 50.835938 18.339844 50.679688 18.226562 50.546875 C 18.109375 50.414062 17.964844 50.304688 17.792969 50.234375 C 17.625 50.164062 17.429688 50.125 17.207031 50.125 C 16.984375 50.125 16.789062 50.164062 16.613281 50.234375 C 16.441406 50.304688 16.296875 50.414062 16.183594 50.546875 C 16.074219 50.679688 15.988281 50.835938 15.933594 51.023438 C 15.875 51.214844 15.847656 51.421875 15.847656 51.652344 C 15.847656 51.886719 15.875 52.097656 15.933594 52.292969 C 15.988281 52.480469 16.078125 52.644531 16.191406 52.78125 C 16.304688 52.917969 16.445312 53.027344 16.613281 53.105469 C 16.789062 53.179688 16.984375 53.214844 17.207031 53.214844 C 17.445312 53.214844 17.652344 53.179688 17.824219 53.105469 C 17.996094 53.027344 18.136719 52.917969 18.246094 52.78125 C 18.355469 52.636719 18.433594 52.472656 18.484375 52.28125 C 18.542969 52.085938 18.570312 51.878906 18.570312 51.652344 Z M 18.570312 51.652344 "/>
<path style=" stroke:none;fill-rule:nonzero;fill:rgb(0%,0%,0%);fill-opacity:1;" d="M 18.136719 18.898438 L 16.09375 15.648438 C 16.101562 15.734375 16.105469 15.820312 16.105469 15.910156 C 16.113281 15.980469 16.117188 16.058594 16.117188 16.148438 C 16.121094 16.226562 16.128906 16.296875 16.128906 16.363281 L 16.128906 18.898438 L 15.664062 18.898438 L 15.664062 15.085938 L 16.269531 15.085938 L 18.324219 18.355469 C 18.324219 18.355469 18.316406 18.269531 18.3125 18.085938 C 18.304688 18.015625 18.296875 17.933594 18.289062 17.847656 C 18.289062 17.757812 18.289062 17.667969 18.289062 17.589844 L 18.289062 15.085938 L 18.753906 15.085938 L 18.753906 18.898438 Z M 18.136719 18.898438 "/>
<path style="fill:none;stroke-width:0.0333333;stroke-linecap:butt;stroke-linejoin:miter;stroke:rgb(0%,0%,0%);stroke-opacity:1;stroke-dasharray:0.1,0.0666667;stroke-dashoffset:0.147389;stroke-miterlimit:10;" d="M 2.606471 0.504884 L 1.723736 -0.00494918 " transform="matrix(17.29798,0,0,17.33871,17.210197,16.992062)"/>
<path style="fill:none;stroke-width:0.0333333;stroke-linecap:butt;stroke-linejoin:miter;stroke:rgb(0%,0%,0%);stroke-opacity:1;stroke-miterlimit:10;" d="M 2.598115 0.49024 L 2.598115 1.50968 " transform="matrix(17.29798,0,0,17.33871,17.210197,16.992062)"/>
<path style="fill:none;stroke-width:0.0333333;stroke-linecap:butt;stroke-linejoin:miter;stroke:rgb(0%,0%,0%);stroke-opacity:1;stroke-dasharray:0.1,0.0666667;stroke-dashoffset:0.157117;stroke-miterlimit:10;" d="M 2.598115 0.499927 L 3.472495 -0.00494918 " transform="matrix(17.29798,0,0,17.33871,17.210197,16.992062)"/>
<path style="fill:none;stroke-width:0.0333333;stroke-linecap:butt;stroke-linejoin:miter;stroke:rgb(0%,0%,0%);stroke-opacity:1;stroke-dasharray:0.1,0.0666667;stroke-dashoffset:0.157012;stroke-miterlimit:10;" d="M 1.740447 -0.00494918 L 0.866067 0.499927 " transform="matrix(17.29798,0,0,17.33871,17.210197,16.992062)"/>
<path style="fill:none;stroke-width:0.0333333;stroke-linecap:butt;stroke-linejoin:miter;stroke:rgb(0%,0%,0%);stroke-opacity:1;stroke-miterlimit:10;" d="M 0.866067 0.49024 L 0.866067 1.50968 " transform="matrix(17.29798,0,0,17.33871,17.210197,16.992062)"/>
<path style="fill:none;stroke-width:0.0333333;stroke-linecap:butt;stroke-linejoin:miter;stroke:rgb(0%,0%,0%);stroke-opacity:1;stroke-dasharray:0.1,0.0666667;stroke-dashoffset:0.157012;stroke-miterlimit:10;" d="M 0.866067 1.499993 L 1.740447 2.004869 " transform="matrix(17.29798,0,0,17.33871,17.210197,16.992062)"/>
<path style="fill:none;stroke-width:0.0333333;stroke-linecap:butt;stroke-linejoin:miter;stroke:rgb(0%,0%,0%);stroke-opacity:1;stroke-dasharray:0.1,0.0666667;stroke-dashoffset:0.147389;stroke-miterlimit:10;" d="M 1.723736 2.004869 L 2.606471 1.495262 " transform="matrix(17.29798,0,0,17.33871,17.210197,16.992062)"/>
<path style="fill:none;stroke-width:0.0333333;stroke-linecap:butt;stroke-linejoin:miter;stroke:rgb(0%,0%,0%);stroke-opacity:1;stroke-dasharray:0.1,0.0666667;stroke-dashoffset:0.157117;stroke-miterlimit:10;" d="M 2.598115 1.499993 L 3.472495 2.004869 " transform="matrix(17.29798,0,0,17.33871,17.210197,16.992062)"/>
<path style="fill:none;stroke-width:0.0333333;stroke-linecap:butt;stroke-linejoin:miter;stroke:rgb(0%,0%,0%);stroke-opacity:1;stroke-dasharray:0.1,0.0666667;stroke-dashoffset:0.147389;stroke-miterlimit:10;" d="M 3.455784 2.004869 L 4.338519 1.495262 " transform="matrix(17.29798,0,0,17.33871,17.210197,16.992062)"/>
<path style="fill:none;stroke-width:0.0333333;stroke-linecap:butt;stroke-linejoin:miter;stroke:rgb(0%,0%,0%);stroke-opacity:1;stroke-dasharray:0.1,0.0666667;stroke-dashoffset:0.14742;stroke-miterlimit:10;" d="M 4.330164 1.50968 L 4.330164 0.49024 " transform="matrix(17.29798,0,0,17.33871,17.210197,16.992062)"/>
<path style="fill:none;stroke-width:0.0333333;stroke-linecap:butt;stroke-linejoin:miter;stroke:rgb(0%,0%,0%);stroke-opacity:1;stroke-dasharray:0.1,0.0666667;stroke-dashoffset:0.147389;stroke-miterlimit:10;" d="M 4.338519 0.504884 L 3.455784 -0.00494918 " transform="matrix(17.29798,0,0,17.33871,17.210197,16.992062)"/>
<path style="fill:none;stroke-width:0.0333333;stroke-linecap:butt;stroke-linejoin:miter;stroke:rgb(0%,0%,0%);stroke-opacity:1;stroke-miterlimit:10;" d="M 0.874422 1.495262 L 0.182506 1.894702 " transform="matrix(17.29798,0,0,17.33871,17.210197,16.992062)"/>
<path style="fill:none;stroke-width:0.0333333;stroke-linecap:butt;stroke-linejoin:miter;stroke:rgb(0%,0%,0%);stroke-opacity:1;stroke-miterlimit:10;" d="M 0.874422 0.504884 L 0.165796 0.0957558 " transform="matrix(17.29798,0,0,17.33871,17.210197,16.992062)"/>
</g>
</svg>
