<?xml version="1.0" encoding="UTF-8"?>
<svg xmlns="http://www.w3.org/2000/svg" xmlns:xlink="http://www.w3.org/1999/xlink" width="110.4pt" height="124pt" viewBox="0 0 110.4 124" version="1.1">
<g id="surface307">
<path style=" stroke:none;fill-rule:nonzero;fill:rgb(0%,0%,47.058824%);fill-opacity:1;" d="M 19.175781 51.71875 C 19.175781 52.015625 19.128906 52.285156 19.035156 52.53125 C 18.949219 52.777344 18.820312 52.984375 18.65625 53.15625 C 18.488281 53.328125 18.289062 53.464844 18.050781 53.558594 C 17.8125 53.648438 17.539062 53.699219 17.238281 53.699219 C 16.917969 53.699219 16.640625 53.648438 16.402344 53.558594 C 16.164062 53.457031 15.960938 53.320312 15.796875 53.144531 C 15.636719 52.96875 15.515625 52.757812 15.4375 52.519531 C 15.355469 52.277344 15.320312 52.007812 15.320312 51.71875 C 15.320312 51.425781 15.355469 51.15625 15.4375 50.917969 C 15.523438 50.675781 15.648438 50.46875 15.816406 50.300781 C 15.980469 50.136719 16.183594 50.007812 16.421875 49.914062 C 16.664062 49.820312 16.9375 49.773438 17.246094 49.773438 C 17.554688 49.773438 17.832031 49.820312 18.070312 49.914062 C 18.308594 50.007812 18.507812 50.140625 18.667969 50.3125 C 18.832031 50.480469 18.960938 50.679688 19.046875 50.917969 C 19.132812 51.15625 19.175781 51.425781 19.175781 51.71875 Z M 18.363281 51.71875 C 18.363281 51.519531 18.335938 51.335938 18.289062 51.179688 C 18.234375 51.023438 18.164062 50.882812 18.070312 50.765625 C 17.976562 50.652344 17.859375 50.5625 17.722656 50.496094 C 17.585938 50.433594 17.425781 50.398438 17.246094 50.398438 C 17.058594 50.398438 16.890625 50.433594 16.75 50.496094 C 16.609375 50.5625 16.496094 50.652344 16.402344 50.765625 C 16.308594 50.882812 16.234375 51.023438 16.183594 51.179688 C 16.140625 51.335938 16.121094 51.519531 16.121094 51.71875 C 16.121094 51.921875 16.144531 52.105469 16.195312 52.269531 C 16.246094 52.429688 16.316406 52.570312 16.414062 52.691406 C 16.503906 52.808594 16.621094 52.902344 16.757812 52.972656 C 16.894531 53.039062 17.054688 53.070312 17.238281 53.070312 C 17.429688 53.070312 17.597656 53.039062 17.734375 52.972656 C 17.878906 52.902344 17.996094 52.808594 18.09375 52.691406 C 18.183594 52.570312 18.253906 52.425781 18.296875 52.257812 C 18.339844 52.09375 18.363281 51.914062 18.363281 51.71875 Z M 18.363281 51.71875 "/>
<path style=" stroke:none;fill-rule:nonzero;fill:rgb(0%,0%,47.058824%);fill-opacity:1;" d="M 17.945312 19.042969 L 16.277344 16.113281 C 16.292969 16.195312 16.300781 16.273438 16.308594 16.351562 C 16.316406 16.414062 16.320312 16.488281 16.320312 16.566406 C 16.328125 16.648438 16.332031 16.722656 16.332031 16.792969 L 16.332031 19.042969 L 15.617188 19.042969 L 15.617188 15.238281 L 16.539062 15.238281 L 18.21875 18.1875 C 18.207031 18.117188 18.199219 18.035156 18.195312 17.949219 C 18.1875 17.878906 18.179688 17.800781 18.171875 17.710938 C 18.171875 17.625 18.171875 17.535156 18.171875 17.441406 L 18.171875 15.238281 L 18.878906 15.238281 L 18.878906 19.042969 Z M 17.945312 19.042969 "/>
<path style=" stroke:none;fill-rule:nonzero;fill:rgb(0%,0%,47.058824%);fill-opacity:1;" d="M 19.871094 106.707031 C 19.871094 107.003906 19.820312 107.273438 19.730469 107.515625 C 19.640625 107.761719 19.515625 107.972656 19.347656 108.144531 C 19.179688 108.316406 18.980469 108.453125 18.742188 108.542969 C 18.503906 108.636719 18.234375 108.683594 17.929688 108.683594 C 17.609375 108.683594 17.332031 108.636719 17.09375 108.542969 C 16.855469 108.445312 16.652344 108.304688 16.488281 108.132812 C 16.328125 107.953125 16.210938 107.742188 16.132812 107.503906 C 16.050781 107.261719 16.011719 106.996094 16.011719 106.707031 C 16.011719 106.410156 16.050781 106.144531 16.132812 105.90625 C 16.21875 105.664062 16.34375 105.457031 16.511719 105.289062 C 16.675781 105.125 16.878906 104.996094 17.117188 104.898438 C 17.355469 104.808594 17.628906 104.757812 17.941406 104.757812 C 18.25 104.757812 18.527344 104.808594 18.765625 104.898438 C 19.003906 104.996094 19.199219 105.128906 19.359375 105.300781 C 19.527344 105.46875 19.652344 105.667969 19.738281 105.90625 C 19.824219 106.144531 19.871094 106.410156 19.871094 106.707031 Z M 19.058594 106.707031 C 19.058594 106.503906 19.03125 106.324219 18.980469 106.164062 C 18.929688 106.007812 18.855469 105.871094 18.765625 105.753906 C 18.667969 105.640625 18.554688 105.550781 18.417969 105.484375 C 18.28125 105.417969 18.121094 105.386719 17.941406 105.386719 C 17.75 105.386719 17.585938 105.417969 17.441406 105.484375 C 17.304688 105.550781 17.1875 105.640625 17.09375 105.753906 C 17 105.871094 16.925781 106.007812 16.878906 106.164062 C 16.835938 106.324219 16.8125 106.503906 16.8125 106.707031 C 16.8125 106.910156 16.839844 107.09375 16.890625 107.257812 C 16.9375 107.417969 17.011719 107.558594 17.105469 107.679688 C 17.199219 107.796875 17.316406 107.890625 17.453125 107.960938 C 17.589844 108.023438 17.75 108.058594 17.929688 108.058594 C 18.125 108.058594 18.289062 108.023438 18.429688 107.960938 C 18.570312 107.890625 18.691406 107.796875 18.785156 107.679688 C 18.878906 107.558594 18.949219 107.414062 18.992188 107.246094 C 19.035156 107.082031 19.058594 106.898438 19.058594 106.707031 Z M 19.058594 106.707031 "/>
<path style=" stroke:none;fill-rule:nonzero;fill:rgb(0%,0%,47.058824%);fill-opacity:1;" d="M 18.640625 74.027344 L 16.972656 71.097656 C 16.984375 71.175781 16.996094 71.257812 17.003906 71.335938 C 17.007812 71.398438 17.015625 71.472656 17.015625 71.550781 C 17.019531 71.632812 17.023438 71.707031 17.023438 71.777344 L 17.023438 74.027344 L 16.308594 74.027344 L 16.308594 70.222656 L 17.230469 70.222656 L 18.910156 73.171875 C 18.902344 73.101562 18.894531 73.019531 18.890625 72.933594 C 18.878906 72.863281 18.871094 72.785156 18.867188 72.695312 C 18.867188 72.609375 18.867188 72.519531 18.867188 72.425781 L 18.867188 70.222656 L 19.570312 70.222656 L 19.570312 74.027344 Z M 18.640625 74.027344 "/>
<path style="fill:none;stroke-width:0.06;stroke-linecap:butt;stroke-linejoin:miter;stroke:rgb(0%,0%,47.058824%);stroke-opacity:1;stroke-miterlimit:10;" d="M 0.881168 1.491297 L 0.183812 1.89391 " transform="matrix(17.336683,0,0,17.299107,17.24691,17.139388)"/>
<path style="fill:none;stroke-width:0.06;stroke-linecap:butt;stroke-linejoin:miter;stroke:rgb(0%,0%,47.058824%);stroke-opacity:1;stroke-miterlimit:10;" d="M 0.881168 0.508588 L 0.169391 0.0978457 " transform="matrix(17.336683,0,0,17.299107,17.24691,17.139388)"/>
<path style="fill:none;stroke-width:0.06;stroke-linecap:butt;stroke-linejoin:miter;stroke:rgb(0%,0%,47.058824%);stroke-opacity:1;stroke-miterlimit:10;" d="M 4.345192 0.508588 L 3.449106 -0.00873494 " transform="matrix(17.336683,0,0,17.299107,17.24691,17.139388)"/>
<path style="fill:none;stroke-width:0.06;stroke-linecap:butt;stroke-linejoin:miter;stroke:rgb(0%,0%,47.058824%);stroke-opacity:1;stroke-miterlimit:10;" d="M 4.178457 0.604781 L 3.449106 0.183652 " transform="matrix(17.336683,0,0,17.299107,17.24691,17.139388)"/>
<path style="fill:none;stroke-width:0.06;stroke-linecap:butt;stroke-linejoin:miter;stroke:rgb(0%,0%,47.058824%);stroke-opacity:1;stroke-miterlimit:10;" d="M 2.583213 0.508588 L 3.479073 -0.00873494 " transform="matrix(17.336683,0,0,17.299107,17.24691,17.139388)"/>
<path style="fill:none;stroke-width:0.06;stroke-linecap:butt;stroke-linejoin:miter;stroke:rgb(0%,0%,47.058824%);stroke-opacity:1;stroke-miterlimit:10;" d="M 2.61318 0.508588 L 1.717094 -0.00873494 " transform="matrix(17.336683,0,0,17.299107,17.24691,17.139388)"/>
<path style="fill:none;stroke-width:0.06;stroke-linecap:butt;stroke-linejoin:miter;stroke:rgb(0%,0%,47.058824%);stroke-opacity:1;stroke-miterlimit:10;" d="M 1.747061 -0.00873494 L 0.866072 0.500007 " transform="matrix(17.336683,0,0,17.299107,17.24691,17.139388)"/>
<path style="fill:none;stroke-width:0.06;stroke-linecap:butt;stroke-linejoin:miter;stroke:rgb(0%,0%,47.058824%);stroke-opacity:1;stroke-miterlimit:10;" d="M 1.747061 0.183652 L 1.032581 0.596201 " transform="matrix(17.336683,0,0,17.299107,17.24691,17.139388)"/>
<path style="fill:none;stroke-width:0.06;stroke-linecap:butt;stroke-linejoin:miter;stroke:rgb(0%,0%,47.058824%);stroke-opacity:1;stroke-miterlimit:10;" d="M 0.866072 0.48262 L 0.866072 1.517265 " transform="matrix(17.336683,0,0,17.299107,17.24691,17.139388)"/>
<path style="fill:none;stroke-width:0.06;stroke-linecap:butt;stroke-linejoin:miter;stroke:rgb(0%,0%,47.058824%);stroke-opacity:1;stroke-miterlimit:10;" d="M 0.866072 1.500104 L 1.747061 2.00862 " transform="matrix(17.336683,0,0,17.299107,17.24691,17.139388)"/>
<path style="fill:none;stroke-width:0.06;stroke-linecap:butt;stroke-linejoin:miter;stroke:rgb(0%,0%,47.058824%);stroke-opacity:1;stroke-miterlimit:10;" d="M 1.032581 1.403684 L 1.747061 1.816007 " transform="matrix(17.336683,0,0,17.299107,17.24691,17.139388)"/>
<path style="fill:none;stroke-width:0.06;stroke-linecap:butt;stroke-linejoin:miter;stroke:rgb(0%,0%,47.058824%);stroke-opacity:1;stroke-miterlimit:10;" d="M 2.598084 0.500007 L 2.598084 1.500104 " transform="matrix(17.336683,0,0,17.299107,17.24691,17.139388)"/>
<path style="fill:none;stroke-width:0.06;stroke-linecap:butt;stroke-linejoin:miter;stroke:rgb(0%,0%,47.058824%);stroke-opacity:1;stroke-miterlimit:10;" d="M 2.764818 0.596201 L 2.764818 1.403684 " transform="matrix(17.336683,0,0,17.299107,17.24691,17.139388)"/>
<path style="fill:none;stroke-width:0.06;stroke-linecap:butt;stroke-linejoin:miter;stroke:rgb(0%,0%,47.058824%);stroke-opacity:1;stroke-miterlimit:10;" d="M 1.717094 2.00862 L 2.61318 1.491297 " transform="matrix(17.336683,0,0,17.299107,17.24691,17.139388)"/>
<path style="fill:none;stroke-width:0.06;stroke-linecap:butt;stroke-linejoin:miter;stroke:rgb(0%,0%,47.058824%);stroke-opacity:1;stroke-miterlimit:10;" d="M 2.583213 1.491297 L 3.479073 2.00862 " transform="matrix(17.336683,0,0,17.299107,17.24691,17.139388)"/>
<path style="fill:none;stroke-width:0.06;stroke-linecap:butt;stroke-linejoin:miter;stroke:rgb(0%,0%,47.058824%);stroke-opacity:1;stroke-miterlimit:10;" d="M 4.330096 1.517265 L 4.330096 0.48262 " transform="matrix(17.336683,0,0,17.299107,17.24691,17.139388)"/>
<path style="fill:none;stroke-width:0.06;stroke-linecap:butt;stroke-linejoin:miter;stroke:rgb(0%,0%,47.058824%);stroke-opacity:1;stroke-miterlimit:10;" d="M 3.449106 2.00862 L 4.345192 1.491297 " transform="matrix(17.336683,0,0,17.299107,17.24691,17.139388)"/>
<path style="fill:none;stroke-width:0.06;stroke-linecap:butt;stroke-linejoin:miter;stroke:rgb(0%,0%,47.058824%);stroke-opacity:1;stroke-miterlimit:10;" d="M 3.449106 1.816007 L 4.178457 1.395104 " transform="matrix(17.336683,0,0,17.299107,17.24691,17.139388)"/>
<path style="fill:none;stroke-width:0.06;stroke-linecap:butt;stroke-linejoin:miter;stroke:rgb(0%,0%,47.058824%);stroke-opacity:1;stroke-miterlimit:10;" d="M 2.638415 3.678459 L 3.51918 3.169942 " transform="matrix(17.336683,0,0,17.299107,17.24691,17.139388)"/>
<path style="fill:none;stroke-width:0.06;stroke-linecap:butt;stroke-linejoin:miter;stroke:rgb(0%,0%,47.058824%);stroke-opacity:1;stroke-miterlimit:10;" d="M 2.804925 3.774652 L 3.51918 3.36233 " transform="matrix(17.336683,0,0,17.299107,17.24691,17.139388)"/>
<path style="fill:none;stroke-width:0.06;stroke-linecap:butt;stroke-linejoin:miter;stroke:rgb(0%,0%,47.058824%);stroke-opacity:1;stroke-miterlimit:10;" d="M 2.653286 3.687265 L 1.7572 3.169942 " transform="matrix(17.336683,0,0,17.299107,17.24691,17.139388)"/>
<path style="fill:none;stroke-width:0.06;stroke-linecap:butt;stroke-linejoin:miter;stroke:rgb(0%,0%,47.058824%);stroke-opacity:1;stroke-miterlimit:10;" d="M 2.638415 3.661072 L 2.638415 4.695717 " transform="matrix(17.336683,0,0,17.299107,17.24691,17.139388)"/>
<path style="fill:none;stroke-width:0.06;stroke-linecap:butt;stroke-linejoin:miter;stroke:rgb(0%,0%,47.058824%);stroke-opacity:1;stroke-miterlimit:10;" d="M 1.787168 3.169942 L 0.906178 3.678459 " transform="matrix(17.336683,0,0,17.299107,17.24691,17.139388)"/>
<path style="fill:none;stroke-width:0.06;stroke-linecap:butt;stroke-linejoin:miter;stroke:rgb(0%,0%,47.058824%);stroke-opacity:1;stroke-miterlimit:10;" d="M 1.787168 3.36233 L 1.072913 3.774652 " transform="matrix(17.336683,0,0,17.299107,17.24691,17.139388)"/>
<path style="fill:none;stroke-width:0.06;stroke-linecap:butt;stroke-linejoin:miter;stroke:rgb(0%,0%,47.058824%);stroke-opacity:1;stroke-miterlimit:10;" d="M 0.921049 3.687265 L 0.209498 3.276297 " transform="matrix(17.336683,0,0,17.299107,17.24691,17.139388)"/>
<path style="fill:none;stroke-width:0.06;stroke-linecap:butt;stroke-linejoin:miter;stroke:rgb(0%,0%,47.058824%);stroke-opacity:1;stroke-miterlimit:10;" d="M 0.906178 3.661072 L 0.906178 4.695717 " transform="matrix(17.336683,0,0,17.299107,17.24691,17.139388)"/>
<path style="fill:none;stroke-width:0.06;stroke-linecap:butt;stroke-linejoin:miter;stroke:rgb(0%,0%,47.058824%);stroke-opacity:1;stroke-miterlimit:10;" d="M 0.921049 4.669749 L 0.223918 5.072362 " transform="matrix(17.336683,0,0,17.299107,17.24691,17.139388)"/>
<path style="fill:none;stroke-width:0.06;stroke-linecap:butt;stroke-linejoin:miter;stroke:rgb(0%,0%,47.058824%);stroke-opacity:1;stroke-miterlimit:10;" d="M 0.906178 4.678555 L 1.787168 5.187297 " transform="matrix(17.336683,0,0,17.299107,17.24691,17.139388)"/>
<path style="fill:none;stroke-width:0.06;stroke-linecap:butt;stroke-linejoin:miter;stroke:rgb(0%,0%,47.058824%);stroke-opacity:1;stroke-miterlimit:10;" d="M 1.072913 4.582136 L 1.787168 4.994684 " transform="matrix(17.336683,0,0,17.299107,17.24691,17.139388)"/>
<path style="fill:none;stroke-width:0.06;stroke-linecap:butt;stroke-linejoin:miter;stroke:rgb(0%,0%,47.058824%);stroke-opacity:1;stroke-miterlimit:10;" d="M 1.7572 5.187297 L 2.653286 4.669749 " transform="matrix(17.336683,0,0,17.299107,17.24691,17.139388)"/>
<path style="fill:none;stroke-width:0.06;stroke-linecap:butt;stroke-linejoin:miter;stroke:rgb(0%,0%,47.058824%);stroke-opacity:1;stroke-miterlimit:10;" d="M 2.638415 4.678555 L 3.51918 5.187297 " transform="matrix(17.336683,0,0,17.299107,17.24691,17.139388)"/>
<path style="fill:none;stroke-width:0.06;stroke-linecap:butt;stroke-linejoin:miter;stroke:rgb(0%,0%,47.058824%);stroke-opacity:1;stroke-miterlimit:10;" d="M 2.804925 4.582136 L 3.51918 4.994684 " transform="matrix(17.336683,0,0,17.299107,17.24691,17.139388)"/>
<path style="fill:none;stroke-width:0.06;stroke-linecap:butt;stroke-linejoin:miter;stroke:rgb(0%,0%,47.058824%);stroke-opacity:1;stroke-miterlimit:10;" d="M 3.489212 5.187297 L 4.385298 4.669749 " transform="matrix(17.336683,0,0,17.299107,17.24691,17.139388)"/>
<path style="fill:none;stroke-width:0.06;stroke-linecap:butt;stroke-linejoin:miter;stroke:rgb(0%,0%,47.058824%);stroke-opacity:1;stroke-miterlimit:10;" d="M 4.370427 4.695717 L 4.370427 3.661072 " transform="matrix(17.336683,0,0,17.299107,17.24691,17.139388)"/>
<path style="fill:none;stroke-width:0.06;stroke-linecap:butt;stroke-linejoin:miter;stroke:rgb(0%,0%,47.058824%);stroke-opacity:1;stroke-miterlimit:10;" d="M 4.203693 4.599523 L 4.203693 3.757265 " transform="matrix(17.336683,0,0,17.299107,17.24691,17.139388)"/>
<path style="fill:none;stroke-width:0.06;stroke-linecap:butt;stroke-linejoin:miter;stroke:rgb(0%,0%,47.058824%);stroke-opacity:1;stroke-miterlimit:10;" d="M 4.385298 3.687265 L 3.489212 3.169942 " transform="matrix(17.336683,0,0,17.299107,17.24691,17.139388)"/>
</g>
</svg>
