<?xml version="1.0" encoding="UTF-8"?>
<svg xmlns="http://www.w3.org/2000/svg" xmlns:xlink="http://www.w3.org/1999/xlink" width="78.4pt" height="68.8pt" viewBox="0 0 78.4 68.8" version="1.1">
<g id="surface1662">
<path style=" stroke:none;fill-rule:nonzero;fill:rgb(0%,0%,0%);fill-opacity:1;" d="M 17.03125 15.667969 C 16.816406 15.667969 16.625 15.707031 16.460938 15.777344 C 16.292969 15.847656 16.152344 15.953125 16.039062 16.085938 C 15.933594 16.214844 15.847656 16.375 15.792969 16.558594 C 15.734375 16.75 15.707031 16.957031 15.707031 17.183594 C 15.707031 17.414062 15.734375 17.625 15.792969 17.816406 C 15.855469 18.007812 15.945312 18.167969 16.0625 18.300781 C 16.175781 18.4375 16.316406 18.546875 16.484375 18.625 C 16.65625 18.695312 16.84375 18.730469 17.054688 18.730469 C 17.203125 18.730469 17.335938 18.714844 17.453125 18.679688 C 17.574219 18.636719 17.683594 18.578125 17.789062 18.507812 C 17.886719 18.4375 17.972656 18.351562 18.046875 18.257812 C 18.125 18.167969 18.191406 18.058594 18.25 17.9375 L 18.671875 18.152344 C 18.605469 18.296875 18.523438 18.429688 18.421875 18.550781 C 18.320312 18.671875 18.203125 18.78125 18.066406 18.871094 C 17.929688 18.957031 17.777344 19.027344 17.605469 19.074219 C 17.429688 19.125 17.238281 19.152344 17.03125 19.152344 C 16.722656 19.152344 16.453125 19.101562 16.222656 19.011719 C 15.992188 18.910156 15.796875 18.773438 15.640625 18.601562 C 15.492188 18.425781 15.375 18.214844 15.296875 17.980469 C 15.214844 17.738281 15.175781 17.472656 15.175781 17.183594 C 15.175781 16.890625 15.214844 16.625 15.296875 16.386719 C 15.382812 16.148438 15.503906 15.941406 15.664062 15.777344 C 15.820312 15.613281 16.011719 15.484375 16.246094 15.386719 C 16.472656 15.296875 16.734375 15.25 17.03125 15.25 C 17.433594 15.25 17.769531 15.328125 18.035156 15.484375 C 18.308594 15.644531 18.511719 15.878906 18.640625 16.195312 L 18.152344 16.355469 C 18.117188 16.265625 18.066406 16.179688 18.003906 16.097656 C 17.945312 16.011719 17.867188 15.941406 17.777344 15.882812 C 17.683594 15.820312 17.574219 15.769531 17.453125 15.734375 C 17.328125 15.691406 17.1875 15.667969 17.03125 15.667969 Z M 17.03125 15.667969 "/>
<path style=" stroke:none;fill-rule:nonzero;fill:rgb(0%,0%,0%);fill-opacity:1;" d="M 17.03125 50.066406 C 16.816406 50.066406 16.625 50.105469 16.460938 50.175781 C 16.292969 50.25 16.152344 50.351562 16.039062 50.488281 C 15.933594 50.617188 15.847656 50.773438 15.792969 50.960938 C 15.734375 51.148438 15.707031 51.355469 15.707031 51.582031 C 15.707031 51.816406 15.734375 52.023438 15.792969 52.21875 C 15.855469 52.40625 15.945312 52.566406 16.0625 52.703125 C 16.175781 52.839844 16.316406 52.945312 16.484375 53.023438 C 16.65625 53.097656 16.84375 53.132812 17.054688 53.132812 C 17.203125 53.132812 17.335938 53.117188 17.453125 53.078125 C 17.574219 53.035156 17.683594 52.980469 17.789062 52.90625 C 17.886719 52.835938 17.972656 52.753906 18.046875 52.660156 C 18.125 52.566406 18.191406 52.460938 18.25 52.335938 L 18.671875 52.550781 C 18.605469 52.695312 18.523438 52.828125 18.421875 52.949219 C 18.320312 53.074219 18.203125 53.179688 18.066406 53.273438 C 17.929688 53.359375 17.777344 53.425781 17.605469 53.476562 C 17.429688 53.523438 17.238281 53.550781 17.03125 53.550781 C 16.722656 53.550781 16.453125 53.503906 16.222656 53.410156 C 15.992188 53.3125 15.796875 53.175781 15.640625 53.003906 C 15.492188 52.824219 15.375 52.617188 15.296875 52.378906 C 15.214844 52.136719 15.175781 51.871094 15.175781 51.582031 C 15.175781 51.289062 15.214844 51.023438 15.296875 50.789062 C 15.382812 50.546875 15.503906 50.34375 15.664062 50.175781 C 15.820312 50.011719 16.011719 49.882812 16.246094 49.789062 C 16.472656 49.695312 16.734375 49.648438 17.03125 49.648438 C 17.433594 49.648438 17.769531 49.730469 18.035156 49.886719 C 18.308594 50.042969 18.511719 50.28125 18.640625 50.59375 L 18.152344 50.757812 C 18.117188 50.664062 18.066406 50.578125 18.003906 50.5 C 17.945312 50.414062 17.867188 50.34375 17.777344 50.28125 C 17.683594 50.21875 17.574219 50.171875 17.453125 50.132812 C 17.328125 50.089844 17.1875 50.066406 17.03125 50.066406 Z M 17.03125 50.066406 "/>
<path style="fill:none;stroke-width:0.06;stroke-linecap:butt;stroke-linejoin:miter;stroke:rgb(0%,0%,47.058824%);stroke-opacity:1;stroke-miterlimit:10;" d="M 1.746965 -0.00867215 L 0.866031 0.500049 " transform="matrix(17.253521,0,0,17.2,16.925108,17.199942)"/>
<path style="fill:none;stroke-width:0.06;stroke-linecap:butt;stroke-linejoin:miter;stroke:rgb(0%,0%,47.058824%);stroke-opacity:1;stroke-miterlimit:10;" d="M 1.71708 -0.00867215 L 2.613183 0.508679 " transform="matrix(17.253521,0,0,17.2,16.925108,17.199942)"/>
<path style="fill:none;stroke-width:0.06;stroke-linecap:butt;stroke-linejoin:miter;stroke:rgb(0%,0%,47.058824%);stroke-opacity:1;stroke-miterlimit:10;" d="M 1.71708 0.183688 L 2.446324 0.604745 " transform="matrix(17.253521,0,0,17.2,16.925108,17.199942)"/>
<path style="fill:none;stroke-width:0.06;stroke-linecap:butt;stroke-linejoin:miter;stroke:rgb(0%,0%,47.058824%);stroke-opacity:1;stroke-miterlimit:10;" d="M 0.866031 0.500049 L 0.866031 1.500003 " transform="matrix(17.253521,0,0,17.2,16.925108,17.199942)"/>
<path style="fill:none;stroke-width:0.06;stroke-linecap:butt;stroke-linejoin:miter;stroke:rgb(0%,0%,47.058824%);stroke-opacity:1;stroke-miterlimit:10;" d="M 0.866031 1.500003 L 1.746965 2.008497 " transform="matrix(17.253521,0,0,17.2,16.925108,17.199942)"/>
<path style="fill:none;stroke-width:0.06;stroke-linecap:butt;stroke-linejoin:miter;stroke:rgb(0%,0%,47.058824%);stroke-opacity:1;stroke-miterlimit:10;" d="M 1.71708 2.008497 L 2.613183 1.491373 " transform="matrix(17.253521,0,0,17.2,16.925108,17.199942)"/>
<path style="fill:none;stroke-width:0.06;stroke-linecap:butt;stroke-linejoin:miter;stroke:rgb(0%,0%,47.058824%);stroke-opacity:1;stroke-miterlimit:10;" d="M 1.71708 1.816364 L 2.446324 1.39508 " transform="matrix(17.253521,0,0,17.2,16.925108,17.199942)"/>
<path style="fill:none;stroke-width:0.06;stroke-linecap:butt;stroke-linejoin:miter;stroke:rgb(0%,0%,47.058824%);stroke-opacity:1;stroke-miterlimit:10;" d="M 2.598014 1.517264 L 2.598014 0.482561 " transform="matrix(17.253521,0,0,17.2,16.925108,17.199942)"/>
<path style="fill:none;stroke-width:0.0333333;stroke-linecap:butt;stroke-linejoin:miter;stroke:rgb(0%,0%,0%);stroke-opacity:1;stroke-miterlimit:10;" d="M 0.866031 0.500049 L 0.176407 0.101702 " transform="matrix(17.253521,0,0,17.2,16.925108,17.199942)"/>
<path style="fill:none;stroke-width:0.0333333;stroke-linecap:butt;stroke-linejoin:miter;stroke:rgb(0%,0%,0%);stroke-opacity:1;stroke-miterlimit:10;" d="M 0.866031 1.500003 L 0.176407 1.89835 " transform="matrix(17.253521,0,0,17.2,16.925108,17.199942)"/>
</g>
</svg>
