<?xml version="1.0" encoding="UTF-8"?>
<svg xmlns="http://www.w3.org/2000/svg" xmlns:xlink="http://www.w3.org/1999/xlink" width="155.2pt" height="114.4pt" viewBox="0 0 155.2 114.4" version="1.1">
<g id="surface187">
<path style=" stroke:none;fill-rule:nonzero;fill:rgb(0%,0%,0%);fill-opacity:1;" d="M 125.425781 9.648438 C 125.207031 9.648438 125.015625 9.6875 124.847656 9.757812 C 124.679688 9.828125 124.539062 9.933594 124.425781 10.070312 C 124.316406 10.199219 124.230469 10.359375 124.175781 10.546875 C 124.117188 10.738281 124.089844 10.945312 124.089844 11.175781 C 124.089844 11.410156 124.117188 11.621094 124.175781 11.816406 C 124.242188 12.007812 124.332031 12.167969 124.445312 12.304688 C 124.5625 12.445312 124.703125 12.550781 124.871094 12.628906 C 125.042969 12.703125 125.234375 12.738281 125.445312 12.738281 C 125.597656 12.738281 125.730469 12.722656 125.847656 12.683594 C 125.972656 12.640625 126.082031 12.585938 126.183594 12.511719 C 126.285156 12.441406 126.371094 12.355469 126.445312 12.261719 C 126.523438 12.167969 126.59375 12.0625 126.652344 11.9375 L 127.078125 12.152344 C 127.011719 12.300781 126.925781 12.433594 126.828125 12.554688 C 126.722656 12.679688 126.605469 12.789062 126.46875 12.878906 C 126.328125 12.96875 126.175781 13.039062 126 13.085938 C 125.828125 13.136719 125.632812 13.164062 125.425781 13.164062 C 125.113281 13.164062 124.839844 13.113281 124.609375 13.019531 C 124.375 12.921875 124.179688 12.78125 124.023438 12.609375 C 123.871094 12.429688 123.753906 12.21875 123.675781 11.980469 C 123.59375 11.734375 123.554688 11.46875 123.554688 11.175781 C 123.554688 10.882812 123.59375 10.613281 123.675781 10.375 C 123.761719 10.128906 123.882812 9.925781 124.046875 9.757812 C 124.203125 9.589844 124.398438 9.460938 124.632812 9.367188 C 124.863281 9.273438 125.125 9.226562 125.425781 9.226562 C 125.828125 9.226562 126.167969 9.304688 126.433594 9.464844 C 126.710938 9.625 126.914062 9.863281 127.042969 10.179688 L 126.554688 10.34375 C 126.515625 10.25 126.46875 10.164062 126.402344 10.082031 C 126.34375 9.996094 126.265625 9.925781 126.175781 9.863281 C 126.078125 9.800781 125.972656 9.75 125.847656 9.714844 C 125.722656 9.667969 125.582031 9.648438 125.425781 9.648438 Z M 125.425781 9.648438 "/>
<path style=" stroke:none;fill-rule:nonzero;fill:rgb(0%,0%,0%);fill-opacity:1;" d="M 128.3125 10.679688 C 128.371094 10.578125 128.429688 10.492188 128.488281 10.429688 C 128.554688 10.359375 128.621094 10.296875 128.695312 10.253906 C 128.773438 10.207031 128.855469 10.167969 128.945312 10.148438 C 129.035156 10.125 129.140625 10.113281 129.257812 10.113281 C 129.445312 10.113281 129.597656 10.140625 129.714844 10.191406 C 129.835938 10.242188 129.933594 10.316406 129.996094 10.40625 C 130.070312 10.503906 130.121094 10.613281 130.148438 10.742188 C 130.175781 10.867188 130.195312 11.003906 130.195312 11.15625 L 130.195312 13.109375 L 129.695312 13.109375 L 129.695312 11.242188 C 129.695312 11.121094 129.683594 11.011719 129.671875 10.917969 C 129.65625 10.824219 129.628906 10.75 129.585938 10.6875 C 129.542969 10.625 129.480469 10.578125 129.398438 10.546875 C 129.320312 10.511719 129.21875 10.492188 129.097656 10.492188 C 128.980469 10.492188 128.875 10.515625 128.78125 10.558594 C 128.6875 10.601562 128.605469 10.664062 128.542969 10.742188 C 128.476562 10.816406 128.425781 10.90625 128.390625 11.015625 C 128.351562 11.125 128.335938 11.242188 128.335938 11.371094 L 128.335938 13.109375 L 127.847656 13.109375 L 127.847656 9.082031 L 128.335938 9.082031 L 128.335938 10.125 C 128.335938 10.191406 128.332031 10.253906 128.324219 10.308594 C 128.324219 10.371094 128.320312 10.421875 128.3125 10.472656 C 128.3125 10.523438 128.3125 10.566406 128.3125 10.601562 C 128.3125 10.640625 128.3125 10.664062 128.3125 10.679688 Z M 128.3125 10.679688 "/>
<path style=" stroke:none;fill-rule:nonzero;fill:rgb(0%,0%,0%);fill-opacity:1;" d="M 131.046875 9.550781 L 131.046875 9.082031 L 131.535156 9.082031 L 131.535156 9.550781 Z M 131.046875 13.109375 L 131.046875 10.167969 L 131.535156 10.167969 L 131.535156 13.109375 Z M 131.046875 13.109375 "/>
<path style=" stroke:none;fill-rule:nonzero;fill:rgb(0%,0%,0%);fill-opacity:1;" d="M 132.355469 13.109375 L 132.355469 10.851562 C 132.355469 10.796875 132.347656 10.734375 132.34375 10.667969 C 132.34375 10.601562 132.34375 10.542969 132.34375 10.484375 C 132.34375 10.425781 132.335938 10.371094 132.332031 10.320312 C 132.332031 10.261719 132.332031 10.210938 132.332031 10.167969 L 132.800781 10.167969 C 132.800781 10.210938 132.800781 10.261719 132.800781 10.320312 C 132.804688 10.371094 132.808594 10.425781 132.808594 10.484375 C 132.808594 10.535156 132.808594 10.589844 132.808594 10.644531 C 132.816406 10.699219 132.820312 10.742188 132.820312 10.777344 L 132.832031 10.777344 C 132.859375 10.660156 132.890625 10.566406 132.929688 10.484375 C 132.972656 10.394531 133.019531 10.328125 133.070312 10.277344 C 133.128906 10.226562 133.191406 10.1875 133.265625 10.15625 C 133.335938 10.128906 133.425781 10.113281 133.527344 10.113281 C 133.5625 10.113281 133.597656 10.121094 133.636719 10.125 C 133.671875 10.132812 133.699219 10.140625 133.722656 10.148438 L 133.722656 10.589844 C 133.691406 10.585938 133.65625 10.582031 133.613281 10.582031 C 133.570312 10.574219 133.519531 10.570312 133.460938 10.570312 C 133.351562 10.570312 133.257812 10.597656 133.179688 10.644531 C 133.097656 10.699219 133.03125 10.765625 132.984375 10.851562 C 132.933594 10.9375 132.898438 11.046875 132.875 11.175781 C 132.855469 11.300781 132.84375 11.433594 132.84375 11.578125 L 132.84375 13.109375 Z M 132.355469 13.109375 "/>
<path style=" stroke:none;fill-rule:nonzero;fill:rgb(0%,0%,0%);fill-opacity:1;" d="M 135.019531 13.164062 C 134.722656 13.164062 134.5 13.085938 134.347656 12.933594 C 134.199219 12.777344 134.128906 12.558594 134.128906 12.285156 C 134.128906 12.097656 134.164062 11.941406 134.238281 11.816406 C 134.308594 11.6875 134.40625 11.589844 134.519531 11.523438 C 134.644531 11.453125 134.78125 11.402344 134.933594 11.371094 C 135.085938 11.34375 135.242188 11.328125 135.402344 11.328125 L 136.054688 11.316406 L 136.054688 11.15625 C 136.054688 11.035156 136.035156 10.933594 136.007812 10.851562 C 135.988281 10.765625 135.949219 10.699219 135.902344 10.644531 C 135.847656 10.589844 135.785156 10.546875 135.707031 10.527344 C 135.625 10.503906 135.53125 10.492188 135.421875 10.492188 C 135.328125 10.492188 135.242188 10.503906 135.164062 10.515625 C 135.089844 10.523438 135.023438 10.546875 134.964844 10.582031 C 134.914062 10.617188 134.871094 10.667969 134.835938 10.734375 C 134.796875 10.792969 134.777344 10.867188 134.769531 10.960938 L 134.261719 10.90625 C 134.273438 10.792969 134.308594 10.6875 134.359375 10.589844 C 134.40625 10.5 134.480469 10.414062 134.574219 10.34375 C 134.667969 10.273438 134.785156 10.21875 134.921875 10.179688 C 135.066406 10.136719 135.238281 10.113281 135.433594 10.113281 C 135.804688 10.113281 136.082031 10.199219 136.269531 10.375 C 136.457031 10.542969 136.554688 10.785156 136.554688 11.101562 L 136.554688 12.371094 C 136.554688 12.515625 136.570312 12.625 136.605469 12.695312 C 136.644531 12.769531 136.714844 12.804688 136.824219 12.804688 C 136.851562 12.804688 136.878906 12.804688 136.902344 12.804688 C 136.929688 12.800781 136.957031 12.789062 136.988281 12.78125 L 136.988281 13.085938 C 136.921875 13.109375 136.859375 13.121094 136.804688 13.128906 C 136.742188 13.136719 136.679688 13.140625 136.605469 13.140625 C 136.511719 13.140625 136.433594 13.128906 136.367188 13.109375 C 136.304688 13.082031 136.25 13.039062 136.207031 12.988281 C 136.167969 12.941406 136.140625 12.878906 136.117188 12.804688 C 136.097656 12.734375 136.082031 12.648438 136.074219 12.542969 L 136.054688 12.542969 C 136 12.640625 135.945312 12.726562 135.878906 12.804688 C 135.820312 12.878906 135.75 12.941406 135.660156 13 C 135.582031 13.050781 135.488281 13.089844 135.378906 13.117188 C 135.277344 13.144531 135.15625 13.164062 135.019531 13.164062 Z M 135.128906 12.792969 C 135.28125 12.792969 135.414062 12.765625 135.53125 12.707031 C 135.652344 12.648438 135.75 12.578125 135.824219 12.488281 C 135.902344 12.402344 135.960938 12.3125 136 12.207031 C 136.035156 12.097656 136.054688 12 136.054688 11.902344 L 136.054688 11.65625 L 135.519531 11.664062 C 135.402344 11.671875 135.292969 11.683594 135.183594 11.699219 C 135.074219 11.714844 134.976562 11.742188 134.890625 11.785156 C 134.808594 11.828125 134.742188 11.894531 134.695312 11.980469 C 134.652344 12.0625 134.628906 12.164062 134.628906 12.292969 C 134.628906 12.453125 134.671875 12.578125 134.761719 12.664062 C 134.847656 12.75 134.96875 12.792969 135.128906 12.792969 Z M 135.128906 12.792969 "/>
<path style=" stroke:none;fill-rule:nonzero;fill:rgb(0%,0%,0%);fill-opacity:1;" d="M 137.492188 13.109375 L 137.492188 9.082031 L 137.980469 9.082031 L 137.980469 13.109375 Z M 137.492188 13.109375 "/>
<path style=" stroke:none;fill-rule:nonzero;fill:rgb(0%,0%,47.058824%);fill-opacity:1;" d="M 79.859375 79.546875 C 79.859375 79.84375 79.808594 80.113281 79.71875 80.359375 C 79.628906 80.605469 79.503906 80.8125 79.335938 80.988281 C 79.167969 81.160156 78.96875 81.296875 78.726562 81.390625 C 78.488281 81.480469 78.21875 81.53125 77.914062 81.53125 C 77.59375 81.53125 77.316406 81.480469 77.078125 81.390625 C 76.835938 81.289062 76.632812 81.152344 76.46875 80.976562 C 76.308594 80.796875 76.1875 80.585938 76.109375 80.347656 C 76.027344 80.105469 75.992188 79.835938 75.992188 79.546875 C 75.992188 79.25 76.027344 78.980469 76.109375 78.742188 C 76.195312 78.5 76.320312 78.292969 76.488281 78.125 C 76.65625 77.960938 76.859375 77.828125 77.097656 77.734375 C 77.335938 77.640625 77.613281 77.59375 77.925781 77.59375 C 78.234375 77.59375 78.511719 77.640625 78.75 77.734375 C 78.988281 77.828125 79.1875 77.960938 79.347656 78.136719 C 79.511719 78.304688 79.640625 78.503906 79.726562 78.742188 C 79.816406 78.980469 79.859375 79.25 79.859375 79.546875 Z M 79.042969 79.546875 C 79.042969 79.34375 79.015625 79.164062 78.96875 79.003906 C 78.914062 78.847656 78.84375 78.707031 78.75 78.589844 C 78.65625 78.476562 78.539062 78.386719 78.402344 78.320312 C 78.265625 78.253906 78.105469 78.222656 77.925781 78.222656 C 77.734375 78.222656 77.570312 78.253906 77.425781 78.320312 C 77.285156 78.386719 77.167969 78.476562 77.078125 78.589844 C 76.980469 78.707031 76.910156 78.847656 76.859375 79.003906 C 76.816406 79.164062 76.792969 79.34375 76.792969 79.546875 C 76.792969 79.75 76.820312 79.933594 76.871094 80.097656 C 76.917969 80.257812 76.992188 80.398438 77.085938 80.523438 C 77.179688 80.636719 77.296875 80.734375 77.433594 80.804688 C 77.570312 80.867188 77.730469 80.902344 77.914062 80.902344 C 78.109375 80.902344 78.273438 80.867188 78.414062 80.804688 C 78.558594 80.734375 78.675781 80.636719 78.773438 80.523438 C 78.863281 80.398438 78.933594 80.253906 78.976562 80.085938 C 79.023438 79.921875 79.042969 79.742188 79.042969 79.546875 Z M 79.042969 79.546875 "/>
<path style=" stroke:none;fill-rule:nonzero;fill:rgb(0%,0%,0%);fill-opacity:1;" d="M 78.742188 44.367188 C 78.742188 44.664062 78.699219 44.9375 78.613281 45.179688 C 78.523438 45.429688 78.398438 45.636719 78.230469 45.808594 C 78.070312 45.984375 77.871094 46.121094 77.632812 46.210938 C 77.398438 46.304688 77.136719 46.351562 76.839844 46.351562 C 76.519531 46.351562 76.242188 46.304688 76.003906 46.210938 C 75.769531 46.109375 75.574219 45.972656 75.417969 45.800781 C 75.257812 45.621094 75.136719 45.410156 75.058594 45.171875 C 74.976562 44.925781 74.9375 44.65625 74.9375 44.367188 C 74.9375 44.070312 74.976562 43.804688 75.058594 43.566406 C 75.144531 43.320312 75.269531 43.113281 75.429688 42.945312 C 75.59375 42.78125 75.792969 42.652344 76.027344 42.554688 C 76.265625 42.464844 76.535156 42.414062 76.839844 42.414062 C 77.144531 42.414062 77.417969 42.464844 77.65625 42.554688 C 77.894531 42.652344 78.09375 42.785156 78.253906 42.957031 C 78.410156 43.125 78.53125 43.328125 78.613281 43.566406 C 78.699219 43.804688 78.742188 44.070312 78.742188 44.367188 Z M 78.210938 44.367188 C 78.210938 44.136719 78.179688 43.929688 78.121094 43.738281 C 78.0625 43.550781 77.976562 43.390625 77.863281 43.261719 C 77.746094 43.125 77.601562 43.019531 77.425781 42.945312 C 77.257812 42.875 77.0625 42.839844 76.839844 42.839844 C 76.613281 42.839844 76.417969 42.875 76.242188 42.945312 C 76.070312 43.019531 75.921875 43.125 75.808594 43.261719 C 75.699219 43.390625 75.617188 43.550781 75.558594 43.738281 C 75.5 43.929688 75.472656 44.136719 75.472656 44.367188 C 75.472656 44.601562 75.5 44.8125 75.558594 45.007812 C 75.617188 45.199219 75.703125 45.359375 75.820312 45.496094 C 75.933594 45.632812 76.074219 45.742188 76.242188 45.820312 C 76.417969 45.894531 76.613281 45.929688 76.839844 45.929688 C 77.078125 45.929688 77.285156 45.894531 77.460938 45.820312 C 77.632812 45.742188 77.773438 45.632812 77.882812 45.496094 C 77.992188 45.351562 78.070312 45.1875 78.121094 44.996094 C 78.179688 44.800781 78.210938 44.59375 78.210938 44.367188 Z M 78.210938 44.367188 "/>
<path style=" stroke:none;fill-rule:nonzero;fill:rgb(0%,0%,0%);fill-opacity:1;" d="M 109.980469 95.457031 C 109.980469 95.753906 109.9375 96.027344 109.851562 96.269531 C 109.761719 96.515625 109.636719 96.726562 109.46875 96.898438 C 109.308594 97.074219 109.113281 97.207031 108.871094 97.300781 C 108.640625 97.394531 108.375 97.441406 108.078125 97.441406 C 107.757812 97.441406 107.480469 97.394531 107.242188 97.300781 C 107.007812 97.199219 106.8125 97.0625 106.65625 96.890625 C 106.496094 96.710938 106.375 96.5 106.296875 96.261719 C 106.214844 96.015625 106.179688 95.746094 106.179688 95.457031 C 106.179688 95.160156 106.214844 94.894531 106.296875 94.65625 C 106.382812 94.410156 106.507812 94.203125 106.667969 94.035156 C 106.832031 93.871094 107.03125 93.742188 107.265625 93.644531 C 107.503906 93.554688 107.773438 93.503906 108.078125 93.503906 C 108.382812 93.503906 108.65625 93.554688 108.894531 93.644531 C 109.132812 93.742188 109.332031 93.875 109.492188 94.046875 C 109.648438 94.214844 109.769531 94.414062 109.851562 94.65625 C 109.9375 94.894531 109.980469 95.160156 109.980469 95.457031 Z M 109.449219 95.457031 C 109.449219 95.226562 109.417969 95.019531 109.359375 94.828125 C 109.300781 94.640625 109.214844 94.480469 109.101562 94.351562 C 108.984375 94.214844 108.839844 94.109375 108.664062 94.035156 C 108.496094 93.964844 108.300781 93.929688 108.078125 93.929688 C 107.855469 93.929688 107.65625 93.964844 107.480469 94.035156 C 107.308594 94.109375 107.160156 94.214844 107.046875 94.351562 C 106.9375 94.480469 106.855469 94.640625 106.796875 94.828125 C 106.738281 95.019531 106.710938 95.226562 106.710938 95.457031 C 106.710938 95.691406 106.738281 95.902344 106.796875 96.097656 C 106.855469 96.285156 106.941406 96.449219 107.058594 96.585938 C 107.171875 96.722656 107.3125 96.832031 107.480469 96.910156 C 107.65625 96.984375 107.855469 97.019531 108.078125 97.019531 C 108.316406 97.019531 108.523438 96.984375 108.699219 96.910156 C 108.871094 96.832031 109.011719 96.722656 109.121094 96.585938 C 109.230469 96.441406 109.308594 96.277344 109.359375 96.085938 C 109.417969 95.890625 109.449219 95.683594 109.449219 95.457031 Z M 109.449219 95.457031 "/>
<path style=" stroke:none;fill-rule:nonzero;fill:rgb(0%,0%,47.058824%);fill-opacity:1;" d="M 64.859375 54.273438 C 64.859375 54.570312 64.8125 54.84375 64.71875 55.085938 C 64.632812 55.332031 64.503906 55.542969 64.339844 55.714844 C 64.167969 55.890625 63.96875 56.023438 63.730469 56.117188 C 63.492188 56.210938 63.21875 56.257812 62.914062 56.257812 C 62.59375 56.257812 62.316406 56.210938 62.078125 56.117188 C 61.839844 56.015625 61.636719 55.878906 61.46875 55.703125 C 61.308594 55.527344 61.191406 55.3125 61.109375 55.074219 C 61.03125 54.832031 60.992188 54.5625 60.992188 54.273438 C 60.992188 53.976562 61.03125 53.710938 61.109375 53.46875 C 61.199219 53.226562 61.324219 53.019531 61.492188 52.851562 C 61.65625 52.6875 61.859375 52.554688 62.101562 52.460938 C 62.339844 52.371094 62.613281 52.320312 62.925781 52.320312 C 63.234375 52.320312 63.511719 52.371094 63.75 52.460938 C 63.992188 52.554688 64.1875 52.691406 64.347656 52.863281 C 64.515625 53.03125 64.640625 53.230469 64.730469 53.46875 C 64.816406 53.710938 64.859375 53.976562 64.859375 54.273438 Z M 64.042969 54.273438 C 64.042969 54.074219 64.015625 53.890625 63.96875 53.730469 C 63.917969 53.574219 63.84375 53.433594 63.75 53.320312 C 63.65625 53.203125 63.539062 53.113281 63.402344 53.046875 C 63.265625 52.980469 63.105469 52.949219 62.925781 52.949219 C 62.734375 52.949219 62.570312 52.980469 62.425781 53.046875 C 62.289062 53.113281 62.171875 53.203125 62.078125 53.320312 C 61.984375 53.433594 61.910156 53.574219 61.859375 53.730469 C 61.816406 53.890625 61.796875 54.074219 61.796875 54.273438 C 61.796875 54.476562 61.820312 54.660156 61.871094 54.828125 C 61.921875 54.984375 61.992188 55.128906 62.089844 55.25 C 62.179688 55.367188 62.296875 55.460938 62.4375 55.53125 C 62.574219 55.597656 62.734375 55.628906 62.914062 55.628906 C 63.109375 55.628906 63.277344 55.597656 63.414062 55.53125 C 63.558594 55.460938 63.679688 55.367188 63.773438 55.25 C 63.867188 55.128906 63.9375 54.984375 63.980469 54.816406 C 64.023438 54.648438 64.042969 54.46875 64.042969 54.273438 Z M 64.042969 54.273438 "/>
<path style=" stroke:none;fill-rule:nonzero;fill:rgb(0%,0%,0%);fill-opacity:1;" d="M 123.449219 52.007812 C 123.449219 52.304688 123.40625 52.574219 123.320312 52.820312 C 123.234375 53.066406 123.105469 53.273438 122.941406 53.449219 C 122.777344 53.621094 122.582031 53.757812 122.34375 53.851562 C 122.109375 53.941406 121.84375 53.992188 121.546875 53.992188 C 121.226562 53.992188 120.953125 53.941406 120.710938 53.851562 C 120.480469 53.75 120.28125 53.613281 120.125 53.4375 C 119.964844 53.257812 119.847656 53.046875 119.765625 52.808594 C 119.683594 52.566406 119.648438 52.296875 119.648438 52.007812 C 119.648438 51.710938 119.683594 51.441406 119.765625 51.203125 C 119.855469 50.960938 119.976562 50.753906 120.136719 50.585938 C 120.300781 50.417969 120.5 50.289062 120.734375 50.195312 C 120.972656 50.101562 121.246094 50.054688 121.546875 50.054688 C 121.851562 50.054688 122.125 50.101562 122.363281 50.195312 C 122.601562 50.289062 122.800781 50.421875 122.960938 50.597656 C 123.117188 50.765625 123.238281 50.964844 123.320312 51.203125 C 123.40625 51.441406 123.449219 51.710938 123.449219 52.007812 Z M 122.917969 52.007812 C 122.917969 51.777344 122.886719 51.566406 122.832031 51.378906 C 122.769531 51.191406 122.683594 51.03125 122.570312 50.898438 C 122.453125 50.765625 122.308594 50.660156 122.136719 50.585938 C 121.96875 50.515625 121.773438 50.476562 121.546875 50.476562 C 121.324219 50.476562 121.125 50.515625 120.953125 50.585938 C 120.777344 50.660156 120.628906 50.765625 120.515625 50.898438 C 120.40625 51.03125 120.324219 51.191406 120.265625 51.378906 C 120.207031 51.566406 120.179688 51.777344 120.179688 52.007812 C 120.179688 52.238281 120.207031 52.449219 120.265625 52.644531 C 120.324219 52.835938 120.410156 53 120.527344 53.132812 C 120.640625 53.273438 120.78125 53.382812 120.953125 53.460938 C 121.125 53.53125 121.324219 53.566406 121.546875 53.566406 C 121.789062 53.566406 121.996094 53.53125 122.167969 53.460938 C 122.34375 53.382812 122.484375 53.273438 122.589844 53.132812 C 122.699219 52.992188 122.777344 52.824219 122.832031 52.636719 C 122.886719 52.441406 122.917969 52.230469 122.917969 52.007812 Z M 122.917969 52.007812 "/>
<path style=" stroke:none;fill-rule:nonzero;fill:rgb(0%,0%,0%);fill-opacity:1;" d="M 139.882812 77.96875 C 139.882812 78.265625 139.839844 78.535156 139.753906 78.78125 C 139.664062 79.027344 139.539062 79.234375 139.371094 79.410156 C 139.210938 79.582031 139.015625 79.71875 138.773438 79.8125 C 138.542969 79.902344 138.277344 79.953125 137.980469 79.953125 C 137.660156 79.953125 137.382812 79.902344 137.144531 79.8125 C 136.910156 79.710938 136.714844 79.574219 136.558594 79.398438 C 136.398438 79.21875 136.277344 79.007812 136.199219 78.769531 C 136.117188 78.527344 136.082031 78.257812 136.082031 77.96875 C 136.082031 77.671875 136.117188 77.402344 136.199219 77.164062 C 136.285156 76.921875 136.410156 76.714844 136.570312 76.546875 C 136.734375 76.382812 136.933594 76.25 137.167969 76.15625 C 137.40625 76.0625 137.675781 76.015625 137.980469 76.015625 C 138.285156 76.015625 138.558594 76.0625 138.796875 76.15625 C 139.035156 76.25 139.234375 76.382812 139.394531 76.558594 C 139.550781 76.726562 139.671875 76.925781 139.753906 77.164062 C 139.839844 77.402344 139.882812 77.671875 139.882812 77.96875 Z M 139.351562 77.96875 C 139.351562 77.738281 139.320312 77.527344 139.261719 77.339844 C 139.203125 77.152344 139.117188 76.992188 139.003906 76.859375 C 138.886719 76.726562 138.742188 76.621094 138.566406 76.546875 C 138.398438 76.476562 138.203125 76.4375 137.980469 76.4375 C 137.757812 76.4375 137.558594 76.476562 137.382812 76.546875 C 137.210938 76.621094 137.0625 76.726562 136.949219 76.859375 C 136.839844 76.992188 136.757812 77.152344 136.699219 77.339844 C 136.640625 77.527344 136.613281 77.738281 136.613281 77.96875 C 136.613281 78.199219 136.640625 78.410156 136.699219 78.605469 C 136.757812 78.796875 136.84375 78.960938 136.960938 79.09375 C 137.074219 79.234375 137.214844 79.34375 137.382812 79.421875 C 137.558594 79.492188 137.757812 79.527344 137.980469 79.527344 C 138.21875 79.527344 138.425781 79.492188 138.601562 79.421875 C 138.773438 79.34375 138.914062 79.234375 139.023438 79.09375 C 139.132812 78.953125 139.210938 78.785156 139.261719 78.597656 C 139.320312 78.402344 139.351562 78.191406 139.351562 77.96875 Z M 139.351562 77.96875 "/>
<path style=" stroke:none;fill-rule:nonzero;fill:rgb(0%,0%,47.058824%);fill-opacity:1;" d="M 49.804688 97.28125 C 49.804688 97.582031 49.757812 97.851562 49.664062 98.09375 C 49.578125 98.34375 49.449219 98.550781 49.285156 98.726562 C 49.117188 98.898438 48.914062 99.035156 48.675781 99.125 C 48.4375 99.21875 48.164062 99.265625 47.863281 99.265625 C 47.542969 99.265625 47.265625 99.21875 47.023438 99.125 C 46.785156 99.027344 46.582031 98.886719 46.417969 98.714844 C 46.257812 98.535156 46.136719 98.324219 46.058594 98.085938 C 45.976562 97.839844 45.9375 97.570312 45.9375 97.28125 C 45.9375 96.988281 45.976562 96.71875 46.058594 96.480469 C 46.144531 96.234375 46.269531 96.03125 46.4375 95.859375 C 46.605469 95.695312 46.808594 95.566406 47.046875 95.472656 C 47.285156 95.378906 47.558594 95.328125 47.871094 95.328125 C 48.183594 95.328125 48.460938 95.378906 48.699219 95.472656 C 48.9375 95.566406 49.136719 95.699219 49.296875 95.871094 C 49.460938 96.039062 49.589844 96.242188 49.675781 96.480469 C 49.761719 96.71875 49.804688 96.988281 49.804688 97.28125 Z M 48.992188 97.28125 C 48.992188 97.082031 48.964844 96.898438 48.914062 96.738281 C 48.863281 96.582031 48.789062 96.445312 48.699219 96.328125 C 48.601562 96.214844 48.488281 96.121094 48.351562 96.054688 C 48.210938 95.992188 48.050781 95.957031 47.871094 95.957031 C 47.683594 95.957031 47.515625 95.992188 47.371094 96.054688 C 47.234375 96.121094 47.117188 96.214844 47.023438 96.328125 C 46.929688 96.445312 46.855469 96.582031 46.808594 96.738281 C 46.765625 96.898438 46.742188 97.082031 46.742188 97.28125 C 46.742188 97.484375 46.765625 97.667969 46.820312 97.835938 C 46.867188 97.996094 46.941406 98.136719 47.035156 98.257812 C 47.128906 98.375 47.246094 98.46875 47.382812 98.539062 C 47.519531 98.605469 47.679688 98.636719 47.863281 98.636719 C 48.058594 98.636719 48.222656 98.605469 48.363281 98.539062 C 48.503906 98.46875 48.625 98.375 48.71875 98.257812 C 48.8125 98.136719 48.882812 97.992188 48.925781 97.824219 C 48.96875 97.660156 48.992188 97.476562 48.992188 97.28125 Z M 48.992188 97.28125 "/>
<path style=" stroke:none;fill-rule:nonzero;fill:rgb(0%,0%,0%);fill-opacity:1;" d="M 123.25 17.222656 C 123.25 17.523438 123.207031 17.792969 123.121094 18.039062 C 123.035156 18.285156 122.90625 18.492188 122.742188 18.667969 C 122.582031 18.839844 122.382812 18.976562 122.144531 19.066406 C 121.910156 19.160156 121.648438 19.210938 121.351562 19.210938 C 121.03125 19.210938 120.753906 19.160156 120.515625 19.066406 C 120.28125 18.96875 120.085938 18.828125 119.925781 18.65625 C 119.765625 18.476562 119.648438 18.265625 119.570312 18.027344 C 119.488281 17.78125 119.449219 17.515625 119.449219 17.222656 C 119.449219 16.929688 119.488281 16.660156 119.570312 16.421875 C 119.65625 16.175781 119.777344 15.972656 119.9375 15.804688 C 120.105469 15.636719 120.300781 15.507812 120.535156 15.414062 C 120.773438 15.320312 121.046875 15.273438 121.351562 15.273438 C 121.65625 15.273438 121.925781 15.320312 122.164062 15.414062 C 122.40625 15.507812 122.601562 15.640625 122.761719 15.8125 C 122.921875 15.980469 123.039062 16.183594 123.121094 16.421875 C 123.207031 16.660156 123.25 16.929688 123.25 17.222656 Z M 122.71875 17.222656 C 122.71875 16.992188 122.691406 16.785156 122.632812 16.59375 C 122.574219 16.40625 122.484375 16.246094 122.371094 16.117188 C 122.253906 15.980469 122.109375 15.875 121.9375 15.804688 C 121.769531 15.734375 121.574219 15.695312 121.351562 15.695312 C 121.125 15.695312 120.925781 15.734375 120.753906 15.804688 C 120.578125 15.875 120.433594 15.980469 120.316406 16.117188 C 120.210938 16.246094 120.125 16.40625 120.070312 16.59375 C 120.007812 16.785156 119.980469 16.992188 119.980469 17.222656 C 119.980469 17.457031 120.007812 17.667969 120.070312 17.863281 C 120.125 18.054688 120.210938 18.214844 120.328125 18.351562 C 120.441406 18.492188 120.585938 18.597656 120.753906 18.675781 C 120.925781 18.75 121.125 18.785156 121.351562 18.785156 C 121.589844 18.785156 121.796875 18.75 121.96875 18.675781 C 122.144531 18.597656 122.285156 18.492188 122.394531 18.351562 C 122.503906 18.207031 122.582031 18.042969 122.632812 17.851562 C 122.691406 17.65625 122.71875 17.449219 122.71875 17.222656 Z M 122.71875 17.222656 "/>
<path style=" stroke:none;fill-rule:nonzero;fill:rgb(0%,0%,47.058824%);fill-opacity:1;" d="M 19.457031 79.988281 C 19.457031 80.285156 19.410156 80.558594 19.316406 80.800781 C 19.230469 81.046875 19.101562 81.257812 18.9375 81.429688 C 18.769531 81.601562 18.566406 81.738281 18.328125 81.832031 C 18.089844 81.921875 17.816406 81.972656 17.515625 81.972656 C 17.195312 81.972656 16.917969 81.921875 16.675781 81.832031 C 16.4375 81.730469 16.234375 81.59375 16.070312 81.417969 C 15.910156 81.238281 15.789062 81.027344 15.710938 80.789062 C 15.628906 80.546875 15.589844 80.277344 15.589844 79.988281 C 15.589844 79.691406 15.628906 79.421875 15.710938 79.183594 C 15.796875 78.941406 15.921875 78.734375 16.089844 78.566406 C 16.257812 78.402344 16.460938 78.269531 16.699219 78.175781 C 16.9375 78.082031 17.210938 78.035156 17.523438 78.035156 C 17.835938 78.035156 18.113281 78.082031 18.351562 78.175781 C 18.589844 78.269531 18.789062 78.402344 18.949219 78.578125 C 19.113281 78.746094 19.242188 78.945312 19.328125 79.183594 C 19.414062 79.421875 19.457031 79.691406 19.457031 79.988281 Z M 18.644531 79.988281 C 18.644531 79.785156 18.617188 79.605469 18.566406 79.445312 C 18.515625 79.289062 18.441406 79.148438 18.351562 79.03125 C 18.253906 78.917969 18.136719 78.828125 18.003906 78.761719 C 17.863281 78.695312 17.703125 78.664062 17.523438 78.664062 C 17.335938 78.664062 17.167969 78.695312 17.023438 78.761719 C 16.886719 78.828125 16.769531 78.917969 16.675781 79.03125 C 16.582031 79.148438 16.507812 79.289062 16.460938 79.445312 C 16.417969 79.605469 16.394531 79.785156 16.394531 79.988281 C 16.394531 80.191406 16.417969 80.375 16.472656 80.539062 C 16.519531 80.699219 16.59375 80.839844 16.6875 80.964844 C 16.78125 81.082031 16.898438 81.175781 17.035156 81.246094 C 17.171875 81.3125 17.332031 81.34375 17.515625 81.34375 C 17.710938 81.34375 17.875 81.3125 18.011719 81.246094 C 18.15625 81.175781 18.277344 81.082031 18.371094 80.964844 C 18.464844 80.839844 18.535156 80.699219 18.578125 80.53125 C 18.621094 80.363281 18.644531 80.183594 18.644531 79.988281 Z M 18.644531 79.988281 "/>
<path style=" stroke:none;fill-rule:nonzero;fill:rgb(0%,0%,47.058824%);fill-opacity:1;" d="M 19.011719 45.699219 C 19.011719 45.996094 18.964844 46.269531 18.871094 46.511719 C 18.785156 46.757812 18.65625 46.96875 18.492188 47.140625 C 18.324219 47.316406 18.121094 47.449219 17.882812 47.542969 C 17.644531 47.636719 17.371094 47.683594 17.070312 47.683594 C 16.746094 47.683594 16.472656 47.636719 16.230469 47.542969 C 15.992188 47.441406 15.789062 47.304688 15.625 47.128906 C 15.464844 46.953125 15.34375 46.738281 15.265625 46.5 C 15.183594 46.257812 15.144531 45.988281 15.144531 45.699219 C 15.144531 45.402344 15.183594 45.136719 15.265625 44.894531 C 15.351562 44.652344 15.476562 44.445312 15.644531 44.277344 C 15.8125 44.113281 16.015625 43.984375 16.253906 43.886719 C 16.492188 43.796875 16.765625 43.746094 17.078125 43.746094 C 17.390625 43.746094 17.664062 43.796875 17.90625 43.886719 C 18.144531 43.984375 18.34375 44.117188 18.503906 44.289062 C 18.667969 44.457031 18.796875 44.65625 18.882812 44.894531 C 18.96875 45.136719 19.011719 45.402344 19.011719 45.699219 Z M 18.199219 45.699219 C 18.199219 45.5 18.171875 45.316406 18.121094 45.15625 C 18.070312 45 17.996094 44.859375 17.90625 44.746094 C 17.808594 44.628906 17.691406 44.539062 17.558594 44.472656 C 17.417969 44.40625 17.257812 44.375 17.078125 44.375 C 16.890625 44.375 16.722656 44.40625 16.578125 44.472656 C 16.441406 44.539062 16.324219 44.628906 16.230469 44.746094 C 16.136719 44.859375 16.0625 45 16.015625 45.15625 C 15.972656 45.316406 15.949219 45.5 15.949219 45.699219 C 15.949219 45.902344 15.972656 46.085938 16.027344 46.253906 C 16.074219 46.410156 16.148438 46.554688 16.242188 46.675781 C 16.335938 46.792969 16.453125 46.886719 16.589844 46.957031 C 16.726562 47.023438 16.886719 47.054688 17.070312 47.054688 C 17.265625 47.054688 17.429688 47.023438 17.566406 46.957031 C 17.710938 46.886719 17.832031 46.792969 17.925781 46.675781 C 18.019531 46.554688 18.089844 46.410156 18.132812 46.242188 C 18.175781 46.074219 18.199219 45.894531 18.199219 45.699219 Z M 18.199219 45.699219 "/>
<path style=" stroke:none;fill-rule:nonzero;fill:rgb(0%,0%,47.058824%);fill-opacity:1;" d="M 64.414062 19.195312 C 64.414062 19.492188 64.363281 19.765625 64.273438 20.007812 C 64.1875 20.253906 64.058594 20.464844 63.890625 20.636719 C 63.722656 20.8125 63.523438 20.945312 63.285156 21.039062 C 63.046875 21.132812 62.773438 21.179688 62.46875 21.179688 C 62.148438 21.179688 61.871094 21.132812 61.632812 21.039062 C 61.394531 20.9375 61.191406 20.800781 61.023438 20.628906 C 60.863281 20.449219 60.746094 20.238281 60.664062 20 C 60.585938 19.753906 60.546875 19.484375 60.546875 19.195312 C 60.546875 18.898438 60.585938 18.632812 60.664062 18.394531 C 60.753906 18.148438 60.878906 17.941406 61.046875 17.773438 C 61.210938 17.609375 61.414062 17.480469 61.65625 17.382812 C 61.894531 17.292969 62.167969 17.242188 62.480469 17.242188 C 62.789062 17.242188 63.066406 17.292969 63.304688 17.382812 C 63.542969 17.480469 63.742188 17.613281 63.902344 17.785156 C 64.070312 17.953125 64.195312 18.15625 64.285156 18.394531 C 64.371094 18.632812 64.414062 18.898438 64.414062 19.195312 Z M 63.597656 19.195312 C 63.597656 18.996094 63.570312 18.8125 63.523438 18.652344 C 63.472656 18.496094 63.398438 18.359375 63.304688 18.242188 C 63.210938 18.128906 63.09375 18.035156 62.957031 17.96875 C 62.820312 17.90625 62.660156 17.871094 62.480469 17.871094 C 62.289062 17.871094 62.125 17.90625 61.980469 17.96875 C 61.84375 18.035156 61.726562 18.128906 61.632812 18.242188 C 61.539062 18.359375 61.464844 18.496094 61.414062 18.652344 C 61.371094 18.8125 61.351562 18.996094 61.351562 19.195312 C 61.351562 19.398438 61.375 19.582031 61.425781 19.75 C 61.476562 19.910156 61.546875 20.050781 61.644531 20.171875 C 61.734375 20.289062 61.851562 20.382812 61.992188 20.453125 C 62.128906 20.519531 62.289062 20.550781 62.46875 20.550781 C 62.664062 20.550781 62.832031 20.519531 62.96875 20.453125 C 63.113281 20.382812 63.234375 20.289062 63.328125 20.171875 C 63.421875 20.050781 63.492188 19.90625 63.535156 19.738281 C 63.578125 19.574219 63.597656 19.390625 63.597656 19.195312 Z M 63.597656 19.195312 "/>
<path style=" stroke:none;fill-rule:nonzero;fill:rgb(0%,0%,0%);fill-opacity:1;" d="M 92.777344 70.546875 L 80.042969 75.90625 L 82.152344 79.367188 "/>
<path style="fill:none;stroke-width:0.0333333;stroke-linecap:butt;stroke-linejoin:miter;stroke:rgb(0%,0%,0%);stroke-opacity:1;stroke-miterlimit:10;" d="M 4.355277 3.08086 L 4.288763 2.082373 " transform="matrix(17.383513,0,0,17.354369,17.079051,17.240645)"/>
<path style="fill:none;stroke-width:0.0333333;stroke-linecap:butt;stroke-linejoin:miter;stroke:rgb(0%,0%,0%);stroke-opacity:1;stroke-miterlimit:10;" d="M 4.346738 3.06713 L 5.203557 3.542064 " transform="matrix(17.383513,0,0,17.354369,17.079051,17.240645)"/>
<path style="fill:none;stroke-width:0.06;stroke-linecap:butt;stroke-linejoin:miter;stroke:rgb(0%,0%,47.058824%);stroke-opacity:1;stroke-miterlimit:10;" d="M 2.740735 3.168869 L 2.760285 3.135331 M 2.844327 3.251927 L 2.883426 3.184851 M 2.947468 3.335209 L 3.006567 3.23437 M 3.05106 3.418041 L 3.129484 3.283889 M 3.154426 3.501324 L 3.252625 3.333408 M 3.257793 3.584381 L 3.375766 3.382928 " transform="matrix(17.383513,0,0,17.354369,17.079051,17.240645)"/>
<path style="fill:none;stroke-width:0.0333333;stroke-linecap:butt;stroke-linejoin:miter;stroke:rgb(0%,0%,0%);stroke-opacity:1;stroke-miterlimit:10;" d="M 4.281123 2.097453 L 5.151874 1.54779 " transform="matrix(17.383513,0,0,17.354369,17.079051,17.240645)"/>
<path style="fill:none;stroke-width:0.0333333;stroke-linecap:butt;stroke-linejoin:miter;stroke:rgb(0%,0%,0%);stroke-opacity:1;stroke-miterlimit:10;" d="M 4.234158 2.045233 L 4.222923 2.063465 M 4.178655 1.99864 L 4.156184 2.034429 M 4.123151 1.951597 L 4.08967 2.005843 M 4.067873 1.904779 L 4.023155 1.977032 M 4.012369 1.85796 L 3.956417 1.94822 M 3.956866 1.811142 L 3.889902 1.919409 M 3.901587 1.764324 L 3.823388 1.890373 M 3.846084 1.717506 L 3.756649 1.861787 M 3.790581 1.670688 L 3.68991 1.832751 M 3.735077 1.623644 L 3.623396 1.804164 M 3.679799 1.576826 L 3.556882 1.775353 " transform="matrix(17.383513,0,0,17.354369,17.079051,17.240645)"/>
<path style="fill:none;stroke-width:0.0333333;stroke-linecap:butt;stroke-linejoin:miter;stroke:rgb(0%,0%,0%);stroke-opacity:1;stroke-miterlimit:10;" d="M 5.186704 3.542515 L 6.049591 2.995102 " transform="matrix(17.383513,0,0,17.354369,17.079051,17.240645)"/>
<path style="fill:none;stroke-width:0.0333333;stroke-linecap:butt;stroke-linejoin:miter;stroke:rgb(0%,0%,0%);stroke-opacity:1;stroke-miterlimit:10;" d="M 5.188052 3.605089 L 5.207602 3.604414 M 5.181086 3.673065 L 5.219961 3.67149 M 5.174345 3.740817 L 5.232545 3.738341 M 5.167154 3.808568 L 5.244904 3.805417 M 5.160413 3.876319 L 5.257263 3.872493 M 5.153222 3.944296 L 5.269847 3.939569 M 5.146481 4.012047 L 5.282431 4.006645 M 5.13929 4.080023 L 5.29479 4.073496 M 5.132549 4.147775 L 5.307373 4.140572 M 5.125583 4.215526 L 5.319957 4.207648 M 5.118617 4.283502 L 5.332316 4.274724 M 5.111651 4.351254 L 5.3449 4.3418 " transform="matrix(17.383513,0,0,17.354369,17.079051,17.240645)"/>
<path style="fill:none;stroke-width:0.06;stroke-linecap:butt;stroke-linejoin:miter;stroke:rgb(0%,0%,47.058824%);stroke-opacity:1;stroke-miterlimit:10;" d="M 2.637369 3.102694 L 2.637369 2.291479 " transform="matrix(17.383513,0,0,17.354369,17.079051,17.240645)"/>
<path style="fill:none;stroke-width:0.06;stroke-linecap:butt;stroke-linejoin:miter;stroke:rgb(0%,0%,47.058824%);stroke-opacity:1;stroke-miterlimit:10;" d="M 2.651525 3.077034 L 1.75628 3.626022 " transform="matrix(17.383513,0,0,17.354369,17.079051,17.240645)"/>
<path style=" stroke:none;fill-rule:nonzero;fill:rgb(0%,0%,0%);fill-opacity:1;" d="M 106.5 44.1875 L 117.410156 52.148438 L 119.285156 48.558594 "/>
<path style="fill:none;stroke-width:0.0333333;stroke-linecap:butt;stroke-linejoin:miter;stroke:rgb(0%,0%,0%);stroke-opacity:1;stroke-miterlimit:10;" d="M 5.144234 1.562421 L 5.118168 0.521166 " transform="matrix(17.383513,0,0,17.354369,17.079051,17.240645)"/>
<path style="fill:none;stroke-width:0.0333333;stroke-linecap:butt;stroke-linejoin:miter;stroke:rgb(0%,0%,0%);stroke-opacity:1;stroke-miterlimit:10;" d="M 6.049591 2.995102 L 6.771809 3.398008 " transform="matrix(17.383513,0,0,17.354369,17.079051,17.240645)"/>
<path style="fill:none;stroke-width:0.06;stroke-linecap:butt;stroke-linejoin:miter;stroke:rgb(0%,0%,47.058824%);stroke-opacity:1;stroke-miterlimit:10;" d="M 2.453556 2.028352 L 1.745045 1.618017 " transform="matrix(17.383513,0,0,17.354369,17.079051,17.240645)"/>
<path style="fill:none;stroke-width:0.06;stroke-linecap:butt;stroke-linejoin:miter;stroke:rgb(0%,0%,47.058824%);stroke-opacity:1;stroke-miterlimit:10;" d="M 1.786841 3.625572 L 0.879237 3.102694 " transform="matrix(17.383513,0,0,17.354369,17.079051,17.240645)"/>
<path style="fill:none;stroke-width:0.06;stroke-linecap:butt;stroke-linejoin:miter;stroke:rgb(0%,0%,47.058824%);stroke-opacity:1;stroke-miterlimit:10;" d="M 1.752011 3.756573 L 1.790886 3.756573 M 1.732686 3.896577 L 1.810436 3.896577 M 1.713136 4.036581 L 1.829761 4.036581 M 1.693811 4.176361 L 1.84931 4.176361 M 1.674261 4.316365 L 1.86886 4.316365 M 1.654936 4.456369 L 1.888185 4.456369 " transform="matrix(17.383513,0,0,17.354369,17.079051,17.240645)"/>
<path style="fill:none;stroke-width:0.0333333;stroke-linecap:butt;stroke-linejoin:miter;stroke:rgb(0%,0%,0%);stroke-opacity:1;stroke-miterlimit:10;" d="M 5.110078 0.535797 L 5.817016 0.109256 " transform="matrix(17.383513,0,0,17.354369,17.079051,17.240645)"/>
<path style="fill:none;stroke-width:0.06;stroke-linecap:butt;stroke-linejoin:miter;stroke:rgb(0%,0%,47.058824%);stroke-opacity:1;stroke-miterlimit:10;" d="M 1.775156 1.617792 L 0.879462 2.143596 " transform="matrix(17.383513,0,0,17.354369,17.079051,17.240645)"/>
<path style=" stroke:none;fill-rule:nonzero;fill:rgb(0%,0%,47.058824%);fill-opacity:1;" d="M 47.675781 45.472656 L 49.574219 26.425781 L 47.425781 27.675781 L 45.394531 27.707031 "/>
<path style=" stroke:none;fill-rule:nonzero;fill:rgb(0%,0%,47.058824%);fill-opacity:1;" d="M 32.625 71.238281 L 19.699219 76.402344 L 21.738281 79.902344 "/>
<path style="fill:none;stroke-width:0.06;stroke-linecap:butt;stroke-linejoin:miter;stroke:rgb(0%,0%,47.058824%);stroke-opacity:1;stroke-miterlimit:10;" d="M 0.785533 2.052436 L 0.766657 2.086649 M 0.676549 1.970054 L 0.639022 2.038255 M 0.567789 1.887897 L 0.511387 1.990087 M 0.459029 1.805515 L 0.383751 1.941693 M 0.350045 1.723133 L 0.256116 1.893524 M 0.241285 1.640751 L 0.128481 1.84513 " transform="matrix(17.383513,0,0,17.354369,17.079051,17.240645)"/>
<path style="fill:none;stroke-width:0.06;stroke-linecap:butt;stroke-linejoin:miter;stroke:rgb(0%,0%,47.058824%);stroke-opacity:1;stroke-miterlimit:10;" d="M 1.730888 0.627858 L 2.428388 0.220675 " transform="matrix(17.383513,0,0,17.354369,17.079051,17.240645)"/>
<path style="fill:none;stroke-width:0.0333333;stroke-linecap:butt;stroke-linejoin:miter;stroke:rgb(0%,0%,0%);stroke-opacity:1;stroke-miterlimit:10;" d="M 6.049591 2.995102 L 6.016334 2.16498 " transform="matrix(17.383513,0,0,17.354369,17.079051,17.240645)"/>
<path style="fill:none;stroke-width:0.06;stroke-linecap:butt;stroke-linejoin:miter;stroke:rgb(0%,0%,47.058824%);stroke-opacity:1;stroke-miterlimit:10;" d="M 0.894293 3.128804 L 0.894293 2.117711 " transform="matrix(17.383513,0,0,17.354369,17.079051,17.240645)"/>
</g>
</svg>
