<?xml version="1.0" encoding="UTF-8"?>
<svg xmlns="http://www.w3.org/2000/svg" xmlns:xlink="http://www.w3.org/1999/xlink" width="78.4pt" height="68.8pt" viewBox="0 0 78.4 68.8" version="1.1">
<g id="surface982">
<path style=" stroke:none;fill-rule:nonzero;fill:rgb(0%,0%,0%);fill-opacity:1;" d="M 18.886719 51.832031 C 18.886719 52.128906 18.84375 52.398438 18.757812 52.640625 C 18.671875 52.882812 18.542969 53.089844 18.378906 53.261719 C 18.222656 53.4375 18.023438 53.570312 17.789062 53.660156 C 17.554688 53.753906 17.292969 53.800781 17 53.800781 C 16.683594 53.800781 16.40625 53.753906 16.167969 53.660156 C 15.9375 53.5625 15.742188 53.425781 15.585938 53.253906 C 15.429688 53.074219 15.308594 52.867188 15.230469 52.628906 C 15.152344 52.386719 15.113281 52.121094 15.113281 51.832031 C 15.113281 51.539062 15.152344 51.273438 15.230469 51.039062 C 15.316406 50.796875 15.4375 50.59375 15.597656 50.425781 C 15.761719 50.261719 15.960938 50.132812 16.191406 50.039062 C 16.429688 49.945312 16.699219 49.898438 17 49.898438 C 17.300781 49.898438 17.570312 49.945312 17.808594 50.039062 C 18.046875 50.132812 18.242188 50.265625 18.402344 50.4375 C 18.558594 50.601562 18.675781 50.800781 18.757812 51.039062 C 18.84375 51.273438 18.886719 51.539062 18.886719 51.832031 Z M 18.359375 51.832031 C 18.359375 51.605469 18.328125 51.398438 18.273438 51.210938 C 18.214844 51.023438 18.128906 50.867188 18.015625 50.738281 C 17.898438 50.601562 17.753906 50.5 17.582031 50.425781 C 17.414062 50.355469 17.222656 50.316406 17 50.316406 C 16.777344 50.316406 16.578125 50.355469 16.40625 50.425781 C 16.234375 50.5 16.089844 50.601562 15.976562 50.738281 C 15.867188 50.867188 15.785156 51.023438 15.726562 51.210938 C 15.667969 51.398438 15.640625 51.605469 15.640625 51.832031 C 15.640625 52.066406 15.667969 52.273438 15.726562 52.46875 C 15.785156 52.65625 15.871094 52.816406 15.988281 52.953125 C 16.101562 53.089844 16.238281 53.195312 16.40625 53.273438 C 16.578125 53.347656 16.777344 53.382812 17 53.382812 C 17.238281 53.382812 17.441406 53.347656 17.613281 53.273438 C 17.789062 53.195312 17.925781 53.089844 18.035156 52.953125 C 18.144531 52.808594 18.222656 52.644531 18.273438 52.457031 C 18.328125 52.265625 18.359375 52.058594 18.359375 51.832031 Z M 18.359375 51.832031 "/>
<path style="fill:none;stroke-width:0.0333333;stroke-linecap:butt;stroke-linejoin:miter;stroke:rgb(0%,0%,0%);stroke-opacity:1;stroke-miterlimit:10;" d="M 0.840093 0.505113 L 0.857526 1.524145 " transform="matrix(17.253521,0,0,17.2,17.001524,16.948769)"/>
<path style="fill:none;stroke-width:0.0333333;stroke-linecap:butt;stroke-linejoin:miter;stroke:rgb(0%,0%,0%);stroke-opacity:1;stroke-miterlimit:10;" d="M 0.831943 0.519648 L 1.705859 -0.00497019 " transform="matrix(17.253521,0,0,17.2,17.001524,16.948769)"/>
<path style="fill:none;stroke-width:0.0333333;stroke-linecap:butt;stroke-linejoin:miter;stroke:rgb(0%,0%,0%);stroke-opacity:1;stroke-miterlimit:10;" d="M 1.00016 0.612989 L 1.709028 0.18739 " transform="matrix(17.253521,0,0,17.2,17.001524,16.948769)"/>
<path style="fill:none;stroke-width:0.0333333;stroke-linecap:butt;stroke-linejoin:miter;stroke:rgb(0%,0%,0%);stroke-opacity:1;stroke-miterlimit:10;" d="M 0.8573 1.514606 L 1.740272 2.00425 " transform="matrix(17.253521,0,0,17.2,17.001524,16.948769)"/>
<path style="fill:none;stroke-width:0.0333333;stroke-linecap:butt;stroke-linejoin:miter;stroke:rgb(0%,0%,0%);stroke-opacity:1;stroke-miterlimit:10;" d="M 1.022348 1.415588 L 1.736876 1.81189 " transform="matrix(17.253521,0,0,17.2,17.001524,16.948769)"/>
<path style="fill:none;stroke-width:0.0333333;stroke-linecap:butt;stroke-linejoin:miter;stroke:rgb(0%,0%,0%);stroke-opacity:1;stroke-miterlimit:10;" d="M 1.723518 2.004705 L 2.597434 1.479859 " transform="matrix(17.253521,0,0,17.2,17.001524,16.948769)"/>
<path style="fill:none;stroke-width:0.0333333;stroke-linecap:butt;stroke-linejoin:miter;stroke:rgb(0%,0%,0%);stroke-opacity:1;stroke-miterlimit:10;" d="M 2.58951 1.494621 L 2.57185 0.475362 " transform="matrix(17.253521,0,0,17.2,17.001524,16.948769)"/>
<path style="fill:none;stroke-width:0.0333333;stroke-linecap:butt;stroke-linejoin:miter;stroke:rgb(0%,0%,0%);stroke-opacity:1;stroke-miterlimit:10;" d="M 2.421066 1.40128 L 2.407029 0.574381 " transform="matrix(17.253521,0,0,17.2,17.001524,16.948769)"/>
<path style="fill:none;stroke-width:0.0333333;stroke-linecap:butt;stroke-linejoin:miter;stroke:rgb(0%,0%,0%);stroke-opacity:1;stroke-miterlimit:10;" d="M 2.580454 0.48967 L 1.689105 -0.00451598 " transform="matrix(17.253521,0,0,17.2,17.001524,16.948769)"/>
<path style="fill:none;stroke-width:0.0333333;stroke-linecap:butt;stroke-linejoin:miter;stroke:rgb(0%,0%,0%);stroke-opacity:1;stroke-miterlimit:10;" d="M 0.865451 1.50961 L 0.181487 1.920221 " transform="matrix(17.253521,0,0,17.2,17.001524,16.948769)"/>
</g>
</svg>
