<?xml version="1.0" encoding="UTF-8"?>
<svg xmlns="http://www.w3.org/2000/svg" xmlns:xlink="http://www.w3.org/1999/xlink" width="140.8pt" height="162.4pt" viewBox="0 0 140.8 162.4" version="1.1">
<g id="surface127">
<path style=" stroke:none;fill-rule:nonzero;fill:rgb(0%,0%,0%);fill-opacity:1;" d="M 93.488281 9.617188 C 93.269531 9.617188 93.078125 9.65625 92.914062 9.726562 C 92.746094 9.800781 92.605469 9.90625 92.492188 10.039062 C 92.382812 10.171875 92.296875 10.332031 92.242188 10.515625 C 92.183594 10.707031 92.15625 10.914062 92.15625 11.144531 C 92.15625 11.378906 92.183594 11.589844 92.242188 11.785156 C 92.304688 11.972656 92.394531 12.136719 92.511719 12.269531 C 92.625 12.410156 92.765625 12.515625 92.933594 12.59375 C 93.109375 12.667969 93.296875 12.703125 93.507812 12.703125 C 93.660156 12.703125 93.792969 12.6875 93.910156 12.648438 C 94.03125 12.605469 94.140625 12.550781 94.246094 12.476562 C 94.34375 12.40625 94.429688 12.320312 94.503906 12.226562 C 94.582031 12.136719 94.648438 12.027344 94.710938 11.902344 L 95.132812 12.121094 C 95.066406 12.265625 94.984375 12.398438 94.882812 12.519531 C 94.78125 12.644531 94.660156 12.753906 94.527344 12.84375 C 94.386719 12.929688 94.234375 13 94.058594 13.050781 C 93.886719 13.097656 93.695312 13.125 93.488281 13.125 C 93.175781 13.125 92.90625 13.078125 92.675781 12.984375 C 92.441406 12.886719 92.246094 12.746094 92.089844 12.574219 C 91.9375 12.394531 91.820312 12.183594 91.742188 11.945312 C 91.664062 11.703125 91.625 11.433594 91.625 11.144531 C 91.625 10.851562 91.664062 10.582031 91.742188 10.34375 C 91.828125 10.101562 91.953125 9.894531 92.113281 9.726562 C 92.269531 9.5625 92.464844 9.433594 92.695312 9.335938 C 92.925781 9.246094 93.1875 9.195312 93.488281 9.195312 C 93.890625 9.195312 94.226562 9.277344 94.492188 9.433594 C 94.765625 9.59375 94.96875 9.832031 95.101562 10.148438 L 94.613281 10.3125 C 94.574219 10.21875 94.527344 10.132812 94.460938 10.050781 C 94.402344 9.964844 94.324219 9.894531 94.234375 9.835938 C 94.140625 9.769531 94.03125 9.722656 93.910156 9.683594 C 93.785156 9.640625 93.644531 9.617188 93.488281 9.617188 Z M 93.488281 9.617188 "/>
<path style=" stroke:none;fill-rule:nonzero;fill:rgb(0%,0%,0%);fill-opacity:1;" d="M 96.367188 10.648438 C 96.421875 10.546875 96.480469 10.460938 96.539062 10.398438 C 96.605469 10.328125 96.671875 10.269531 96.746094 10.226562 C 96.824219 10.175781 96.90625 10.136719 96.992188 10.117188 C 97.085938 10.09375 97.191406 10.082031 97.308594 10.082031 C 97.496094 10.082031 97.644531 10.109375 97.761719 10.160156 C 97.882812 10.210938 97.980469 10.285156 98.042969 10.375 C 98.113281 10.472656 98.164062 10.582031 98.195312 10.710938 C 98.222656 10.835938 98.238281 10.972656 98.238281 11.125 L 98.238281 13.070312 L 97.742188 13.070312 L 97.742188 11.210938 C 97.742188 11.089844 97.730469 10.980469 97.71875 10.886719 C 97.703125 10.792969 97.675781 10.71875 97.632812 10.65625 C 97.589844 10.59375 97.527344 10.546875 97.449219 10.515625 C 97.367188 10.480469 97.265625 10.460938 97.144531 10.460938 C 97.027344 10.460938 96.921875 10.484375 96.832031 10.527344 C 96.734375 10.570312 96.65625 10.632812 96.59375 10.710938 C 96.527344 10.785156 96.476562 10.875 96.441406 10.984375 C 96.402344 11.089844 96.386719 11.210938 96.386719 11.339844 L 96.386719 13.070312 L 95.898438 13.070312 L 95.898438 9.054688 L 96.386719 9.054688 L 96.386719 10.09375 C 96.386719 10.160156 96.382812 10.222656 96.375 10.277344 C 96.375 10.339844 96.371094 10.390625 96.367188 10.441406 C 96.367188 10.492188 96.367188 10.535156 96.367188 10.570312 C 96.367188 10.609375 96.367188 10.632812 96.367188 10.648438 Z M 96.367188 10.648438 "/>
<path style=" stroke:none;fill-rule:nonzero;fill:rgb(0%,0%,0%);fill-opacity:1;" d="M 99.085938 9.519531 L 99.085938 9.054688 L 99.574219 9.054688 L 99.574219 9.519531 Z M 99.085938 13.070312 L 99.085938 10.136719 L 99.574219 10.136719 L 99.574219 13.070312 Z M 99.085938 13.070312 "/>
<path style=" stroke:none;fill-rule:nonzero;fill:rgb(0%,0%,0%);fill-opacity:1;" d="M 100.390625 13.070312 L 100.390625 10.820312 C 100.390625 10.761719 100.386719 10.699219 100.378906 10.636719 C 100.378906 10.570312 100.378906 10.511719 100.378906 10.453125 C 100.378906 10.394531 100.375 10.339844 100.371094 10.289062 C 100.371094 10.234375 100.371094 10.179688 100.371094 10.136719 L 100.835938 10.136719 C 100.835938 10.179688 100.835938 10.234375 100.835938 10.289062 C 100.839844 10.339844 100.847656 10.394531 100.847656 10.453125 C 100.847656 10.503906 100.847656 10.558594 100.847656 10.613281 C 100.851562 10.664062 100.855469 10.710938 100.855469 10.746094 L 100.867188 10.746094 C 100.894531 10.628906 100.925781 10.535156 100.964844 10.453125 C 101.007812 10.367188 101.054688 10.296875 101.105469 10.246094 C 101.164062 10.199219 101.226562 10.15625 101.300781 10.128906 C 101.371094 10.101562 101.457031 10.082031 101.5625 10.082031 C 101.597656 10.082031 101.632812 10.089844 101.667969 10.09375 C 101.703125 10.101562 101.734375 10.109375 101.753906 10.117188 L 101.753906 10.558594 C 101.726562 10.554688 101.691406 10.550781 101.648438 10.550781 C 101.605469 10.542969 101.550781 10.539062 101.496094 10.539062 C 101.386719 10.539062 101.292969 10.566406 101.214844 10.613281 C 101.132812 10.664062 101.066406 10.734375 101.019531 10.820312 C 100.96875 10.90625 100.933594 11.015625 100.910156 11.144531 C 100.890625 11.269531 100.878906 11.402344 100.878906 11.546875 L 100.878906 13.070312 Z M 100.390625 13.070312 "/>
<path style=" stroke:none;fill-rule:nonzero;fill:rgb(0%,0%,0%);fill-opacity:1;" d="M 103.050781 13.125 C 102.75 13.125 102.53125 13.050781 102.378906 12.898438 C 102.230469 12.742188 102.160156 12.523438 102.160156 12.25 C 102.160156 12.0625 102.195312 11.90625 102.269531 11.785156 C 102.339844 11.652344 102.433594 11.554688 102.550781 11.492188 C 102.671875 11.421875 102.8125 11.371094 102.960938 11.339844 C 103.113281 11.3125 103.269531 11.296875 103.429688 11.296875 L 104.078125 11.285156 L 104.078125 11.125 C 104.078125 11 104.0625 10.902344 104.035156 10.820312 C 104.011719 10.734375 103.976562 10.664062 103.925781 10.613281 C 103.875 10.558594 103.808594 10.515625 103.730469 10.496094 C 103.648438 10.472656 103.558594 10.460938 103.449219 10.460938 C 103.355469 10.460938 103.269531 10.472656 103.191406 10.484375 C 103.117188 10.492188 103.050781 10.515625 102.996094 10.550781 C 102.945312 10.585938 102.902344 10.636719 102.863281 10.699219 C 102.828125 10.761719 102.804688 10.835938 102.800781 10.929688 L 102.292969 10.875 C 102.304688 10.761719 102.335938 10.65625 102.390625 10.558594 C 102.4375 10.46875 102.511719 10.382812 102.605469 10.3125 C 102.699219 10.242188 102.8125 10.1875 102.953125 10.148438 C 103.09375 10.105469 103.265625 10.082031 103.460938 10.082031 C 103.828125 10.082031 104.105469 10.171875 104.292969 10.34375 C 104.480469 10.511719 104.574219 10.753906 104.574219 11.070312 L 104.574219 12.335938 C 104.574219 12.480469 104.59375 12.589844 104.628906 12.660156 C 104.664062 12.734375 104.738281 12.769531 104.847656 12.769531 C 104.875 12.769531 104.902344 12.769531 104.921875 12.769531 C 104.949219 12.761719 104.980469 12.753906 105.007812 12.746094 L 105.007812 13.050781 C 104.945312 13.070312 104.882812 13.085938 104.824219 13.09375 C 104.765625 13.097656 104.699219 13.105469 104.628906 13.105469 C 104.535156 13.105469 104.457031 13.09375 104.390625 13.070312 C 104.328125 13.042969 104.273438 13.003906 104.230469 12.953125 C 104.191406 12.902344 104.164062 12.839844 104.144531 12.769531 C 104.121094 12.699219 104.105469 12.613281 104.097656 12.507812 L 104.078125 12.507812 C 104.027344 12.605469 103.96875 12.691406 103.90625 12.769531 C 103.84375 12.839844 103.773438 12.90625 103.6875 12.964844 C 103.605469 13.015625 103.515625 13.054688 103.40625 13.082031 C 103.304688 13.109375 103.183594 13.125 103.050781 13.125 Z M 103.15625 12.757812 C 103.308594 12.757812 103.441406 12.730469 103.558594 12.671875 C 103.679688 12.613281 103.777344 12.542969 103.851562 12.453125 C 103.929688 12.367188 103.984375 12.277344 104.023438 12.171875 C 104.058594 12.066406 104.078125 11.964844 104.078125 11.871094 L 104.078125 11.621094 L 103.546875 11.632812 C 103.429688 11.640625 103.320312 11.652344 103.210938 11.664062 C 103.101562 11.679688 103.007812 11.707031 102.917969 11.75 C 102.839844 11.792969 102.773438 11.859375 102.722656 11.945312 C 102.679688 12.027344 102.660156 12.128906 102.660156 12.261719 C 102.660156 12.417969 102.703125 12.542969 102.789062 12.628906 C 102.875 12.714844 102.996094 12.757812 103.15625 12.757812 Z M 103.15625 12.757812 "/>
<path style=" stroke:none;fill-rule:nonzero;fill:rgb(0%,0%,0%);fill-opacity:1;" d="M 105.511719 13.070312 L 105.511719 9.054688 L 106 9.054688 L 106 13.070312 Z M 105.511719 13.070312 "/>
<path style=" stroke:none;fill-rule:nonzero;fill:rgb(0%,0%,0%);fill-opacity:1;" d="M 87.496094 46.808594 C 87.496094 47.105469 87.453125 47.375 87.367188 47.617188 C 87.28125 47.863281 87.152344 48.074219 86.988281 48.246094 C 86.828125 48.417969 86.628906 48.554688 86.390625 48.648438 C 86.160156 48.738281 85.898438 48.789062 85.601562 48.789062 C 85.28125 48.789062 85.007812 48.738281 84.769531 48.648438 C 84.535156 48.546875 84.339844 48.410156 84.183594 48.234375 C 84.023438 48.058594 83.90625 47.847656 83.828125 47.609375 C 83.746094 47.363281 83.707031 47.097656 83.707031 46.808594 C 83.707031 46.511719 83.746094 46.242188 83.828125 46.003906 C 83.914062 45.761719 84.035156 45.554688 84.195312 45.386719 C 84.359375 45.222656 84.558594 45.09375 84.789062 45 C 85.027344 44.90625 85.296875 44.859375 85.601562 44.859375 C 85.90625 44.859375 86.175781 44.90625 86.414062 45 C 86.652344 45.09375 86.851562 45.226562 87.007812 45.398438 C 87.167969 45.566406 87.285156 45.765625 87.367188 46.003906 C 87.453125 46.242188 87.496094 46.511719 87.496094 46.808594 Z M 86.964844 46.808594 C 86.964844 46.578125 86.9375 46.367188 86.878906 46.179688 C 86.820312 45.992188 86.734375 45.832031 86.621094 45.703125 C 86.503906 45.566406 86.359375 45.460938 86.1875 45.386719 C 86.019531 45.316406 85.824219 45.28125 85.601562 45.28125 C 85.378906 45.28125 85.179688 45.316406 85.007812 45.386719 C 84.832031 45.460938 84.6875 45.566406 84.574219 45.703125 C 84.464844 45.832031 84.382812 45.992188 84.324219 46.179688 C 84.265625 46.367188 84.238281 46.578125 84.238281 46.808594 C 84.238281 47.039062 84.265625 47.25 84.324219 47.445312 C 84.382812 47.636719 84.46875 47.796875 84.585938 47.933594 C 84.699219 48.070312 84.839844 48.179688 85.007812 48.257812 C 85.179688 48.332031 85.378906 48.367188 85.601562 48.367188 C 85.839844 48.367188 86.046875 48.332031 86.21875 48.257812 C 86.390625 48.179688 86.53125 48.070312 86.640625 47.933594 C 86.75 47.789062 86.828125 47.625 86.878906 47.433594 C 86.9375 47.238281 86.964844 47.03125 86.964844 46.808594 Z M 86.964844 46.808594 "/>
<path style=" stroke:none;fill-rule:nonzero;fill:rgb(0%,0%,0%);fill-opacity:1;" d="M 61.585938 31.859375 C 61.585938 32.15625 61.542969 32.429688 61.457031 32.671875 C 61.367188 32.917969 61.242188 33.125 61.078125 33.300781 C 60.917969 33.472656 60.71875 33.609375 60.480469 33.699219 C 60.25 33.792969 59.984375 33.839844 59.691406 33.839844 C 59.371094 33.839844 59.09375 33.792969 58.855469 33.699219 C 58.625 33.601562 58.429688 33.460938 58.273438 33.289062 C 58.113281 33.109375 57.992188 32.898438 57.914062 32.660156 C 57.832031 32.417969 57.796875 32.148438 57.796875 31.859375 C 57.796875 31.566406 57.832031 31.296875 57.914062 31.058594 C 58 30.816406 58.125 30.609375 58.285156 30.441406 C 58.449219 30.277344 58.644531 30.144531 58.878906 30.050781 C 59.117188 29.960938 59.386719 29.910156 59.691406 29.910156 C 59.992188 29.910156 60.265625 29.960938 60.503906 30.050781 C 60.742188 30.144531 60.9375 30.277344 61.097656 30.453125 C 61.253906 30.621094 61.375 30.820312 61.457031 31.058594 C 61.542969 31.296875 61.585938 31.566406 61.585938 31.859375 Z M 61.054688 31.859375 C 61.054688 31.628906 61.023438 31.421875 60.96875 31.230469 C 60.910156 31.042969 60.820312 30.886719 60.707031 30.753906 C 60.59375 30.621094 60.449219 30.515625 60.273438 30.441406 C 60.109375 30.371094 59.914062 30.332031 59.691406 30.332031 C 59.464844 30.332031 59.269531 30.371094 59.09375 30.441406 C 58.921875 30.515625 58.777344 30.621094 58.664062 30.753906 C 58.554688 30.886719 58.46875 31.042969 58.414062 31.230469 C 58.355469 31.421875 58.328125 31.628906 58.328125 31.859375 C 58.328125 32.09375 58.355469 32.304688 58.414062 32.5 C 58.46875 32.6875 58.554688 32.851562 58.671875 32.984375 C 58.785156 33.125 58.925781 33.230469 59.09375 33.308594 C 59.269531 33.382812 59.464844 33.417969 59.691406 33.417969 C 59.929688 33.417969 60.132812 33.382812 60.308594 33.308594 C 60.480469 33.230469 60.621094 33.125 60.730469 32.984375 C 60.839844 32.84375 60.917969 32.675781 60.96875 32.488281 C 61.023438 32.292969 61.054688 32.085938 61.054688 31.859375 Z M 61.054688 31.859375 "/>
<path style=" stroke:none;fill-rule:nonzero;fill:rgb(0%,0%,0%);fill-opacity:1;" d="M 70.355469 76.371094 C 70.355469 76.667969 70.3125 76.941406 70.226562 77.183594 C 70.136719 77.429688 70.011719 77.636719 69.847656 77.8125 C 69.6875 77.984375 69.488281 78.121094 69.25 78.210938 C 69.019531 78.304688 68.753906 78.351562 68.460938 78.351562 C 68.140625 78.351562 67.863281 78.304688 67.625 78.210938 C 67.394531 78.113281 67.199219 77.972656 67.042969 77.800781 C 66.882812 77.621094 66.761719 77.410156 66.683594 77.171875 C 66.605469 76.929688 66.566406 76.660156 66.566406 76.371094 C 66.566406 76.078125 66.605469 75.808594 66.683594 75.570312 C 66.769531 75.328125 66.894531 75.121094 67.054688 74.953125 C 67.21875 74.789062 67.414062 74.65625 67.648438 74.5625 C 67.886719 74.472656 68.15625 74.421875 68.460938 74.421875 C 68.761719 74.421875 69.035156 74.472656 69.273438 74.5625 C 69.511719 74.65625 69.707031 74.789062 69.867188 74.964844 C 70.023438 75.132812 70.144531 75.332031 70.226562 75.570312 C 70.3125 75.808594 70.355469 76.078125 70.355469 76.371094 Z M 69.824219 76.371094 C 69.824219 76.140625 69.792969 75.933594 69.738281 75.742188 C 69.679688 75.558594 69.589844 75.398438 69.476562 75.265625 C 69.363281 75.132812 69.21875 75.027344 69.046875 74.953125 C 68.878906 74.882812 68.683594 74.84375 68.460938 74.84375 C 68.234375 74.84375 68.039062 74.882812 67.863281 74.953125 C 67.691406 75.027344 67.546875 75.132812 67.433594 75.265625 C 67.324219 75.398438 67.238281 75.558594 67.183594 75.742188 C 67.125 75.933594 67.097656 76.140625 67.097656 76.371094 C 67.097656 76.605469 67.125 76.816406 67.183594 77.011719 C 67.238281 77.199219 67.328125 77.363281 67.441406 77.496094 C 67.554688 77.636719 67.695312 77.742188 67.863281 77.820312 C 68.039062 77.894531 68.234375 77.929688 68.460938 77.929688 C 68.699219 77.929688 68.902344 77.894531 69.078125 77.820312 C 69.25 77.742188 69.390625 77.636719 69.5 77.496094 C 69.609375 77.355469 69.6875 77.1875 69.738281 77 C 69.792969 76.804688 69.824219 76.597656 69.824219 76.371094 Z M 69.824219 76.371094 "/>
<path style=" stroke:none;fill-rule:nonzero;fill:rgb(0%,0%,0%);fill-opacity:1;" d="M 36.671875 76.371094 C 36.671875 76.667969 36.628906 76.941406 36.539062 77.183594 C 36.453125 77.429688 36.328125 77.636719 36.160156 77.8125 C 36 77.984375 35.804688 78.121094 35.566406 78.210938 C 35.332031 78.304688 35.070312 78.351562 34.777344 78.351562 C 34.457031 78.351562 34.179688 78.304688 33.941406 78.210938 C 33.710938 78.113281 33.515625 77.972656 33.355469 77.800781 C 33.199219 77.621094 33.078125 77.410156 33 77.171875 C 32.917969 76.929688 32.882812 76.660156 32.882812 76.371094 C 32.882812 76.078125 32.917969 75.808594 33 75.570312 C 33.085938 75.328125 33.207031 75.121094 33.367188 74.953125 C 33.535156 74.789062 33.730469 74.65625 33.964844 74.5625 C 34.203125 74.472656 34.472656 74.421875 34.777344 74.421875 C 35.078125 74.421875 35.347656 74.472656 35.585938 74.5625 C 35.824219 74.65625 36.023438 74.789062 36.183594 74.964844 C 36.339844 75.132812 36.460938 75.332031 36.539062 75.570312 C 36.628906 75.808594 36.671875 76.078125 36.671875 76.371094 Z M 36.140625 76.371094 C 36.140625 76.140625 36.109375 75.933594 36.054688 75.742188 C 35.992188 75.558594 35.90625 75.398438 35.792969 75.265625 C 35.675781 75.132812 35.535156 75.027344 35.359375 74.953125 C 35.191406 74.882812 34.996094 74.84375 34.777344 74.84375 C 34.550781 74.84375 34.351562 74.882812 34.179688 74.953125 C 34.007812 75.027344 33.859375 75.132812 33.746094 75.265625 C 33.640625 75.398438 33.554688 75.558594 33.496094 75.742188 C 33.4375 75.933594 33.410156 76.140625 33.410156 76.371094 C 33.410156 76.605469 33.4375 76.816406 33.496094 77.011719 C 33.554688 77.199219 33.640625 77.363281 33.757812 77.496094 C 33.871094 77.636719 34.011719 77.742188 34.179688 77.820312 C 34.351562 77.894531 34.550781 77.929688 34.777344 77.929688 C 35.015625 77.929688 35.21875 77.894531 35.394531 77.820312 C 35.566406 77.742188 35.707031 77.636719 35.816406 77.496094 C 35.921875 77.355469 36 77.1875 36.054688 77 C 36.109375 76.804688 36.140625 76.597656 36.140625 76.371094 Z M 36.140625 76.371094 "/>
<path style=" stroke:none;fill-rule:nonzero;fill:rgb(0%,0%,0%);fill-opacity:1;" d="M 19.058594 46.808594 C 19.058594 47.105469 19.015625 47.375 18.929688 47.617188 C 18.84375 47.863281 18.714844 48.074219 18.550781 48.246094 C 18.390625 48.417969 18.195312 48.554688 17.957031 48.648438 C 17.722656 48.738281 17.460938 48.789062 17.164062 48.789062 C 16.847656 48.789062 16.570312 48.738281 16.332031 48.648438 C 16.097656 48.546875 15.90625 48.410156 15.746094 48.234375 C 15.585938 48.058594 15.46875 47.847656 15.390625 47.609375 C 15.308594 47.363281 15.269531 47.097656 15.269531 46.808594 C 15.269531 46.511719 15.308594 46.242188 15.390625 46.003906 C 15.476562 45.761719 15.597656 45.554688 15.757812 45.386719 C 15.921875 45.222656 16.121094 45.09375 16.355469 45 C 16.59375 44.90625 16.863281 44.859375 17.164062 44.859375 C 17.46875 44.859375 17.738281 44.90625 17.976562 45 C 18.214844 45.09375 18.414062 45.226562 18.574219 45.398438 C 18.730469 45.566406 18.847656 45.765625 18.929688 46.003906 C 19.015625 46.242188 19.058594 46.511719 19.058594 46.808594 Z M 18.53125 46.808594 C 18.53125 46.578125 18.5 46.367188 18.445312 46.179688 C 18.382812 45.992188 18.296875 45.832031 18.183594 45.703125 C 18.066406 45.566406 17.921875 45.460938 17.75 45.386719 C 17.582031 45.316406 17.386719 45.28125 17.164062 45.28125 C 16.941406 45.28125 16.742188 45.316406 16.570312 45.386719 C 16.398438 45.460938 16.25 45.566406 16.136719 45.703125 C 16.027344 45.832031 15.945312 45.992188 15.886719 46.179688 C 15.828125 46.367188 15.800781 46.578125 15.800781 46.808594 C 15.800781 47.039062 15.828125 47.25 15.886719 47.445312 C 15.945312 47.636719 16.03125 47.796875 16.148438 47.933594 C 16.261719 48.070312 16.402344 48.179688 16.570312 48.257812 C 16.742188 48.332031 16.941406 48.367188 17.164062 48.367188 C 17.402344 48.367188 17.609375 48.332031 17.78125 48.257812 C 17.957031 48.179688 18.097656 48.070312 18.207031 47.933594 C 18.3125 47.789062 18.390625 47.625 18.445312 47.433594 C 18.5 47.238281 18.53125 47.03125 18.53125 46.808594 Z M 18.53125 46.808594 "/>
<path style=" stroke:none;fill-rule:nonzero;fill:rgb(0%,0%,0%);fill-opacity:1;" d="M 19.328125 17.175781 C 19.328125 17.476562 19.285156 17.746094 19.199219 17.988281 C 19.113281 18.234375 18.984375 18.445312 18.820312 18.617188 C 18.660156 18.789062 18.460938 18.925781 18.222656 19.019531 C 17.992188 19.109375 17.730469 19.160156 17.433594 19.160156 C 17.113281 19.160156 16.839844 19.109375 16.601562 19.019531 C 16.367188 18.917969 16.171875 18.78125 16.015625 18.605469 C 15.855469 18.425781 15.738281 18.214844 15.660156 17.976562 C 15.578125 17.734375 15.539062 17.46875 15.539062 17.175781 C 15.539062 16.882812 15.578125 16.613281 15.660156 16.375 C 15.746094 16.132812 15.867188 15.925781 16.027344 15.757812 C 16.191406 15.59375 16.390625 15.464844 16.621094 15.371094 C 16.859375 15.277344 17.128906 15.230469 17.433594 15.230469 C 17.738281 15.230469 18.007812 15.277344 18.246094 15.371094 C 18.484375 15.464844 18.679688 15.597656 18.839844 15.769531 C 19 15.9375 19.117188 16.136719 19.199219 16.375 C 19.285156 16.613281 19.328125 16.882812 19.328125 17.175781 Z M 18.796875 17.175781 C 18.796875 16.949219 18.769531 16.738281 18.710938 16.550781 C 18.652344 16.363281 18.566406 16.203125 18.453125 16.074219 C 18.335938 15.9375 18.191406 15.832031 18.019531 15.757812 C 17.851562 15.6875 17.65625 15.652344 17.433594 15.652344 C 17.210938 15.652344 17.011719 15.6875 16.839844 15.757812 C 16.664062 15.832031 16.519531 15.9375 16.40625 16.074219 C 16.296875 16.203125 16.214844 16.363281 16.15625 16.550781 C 16.097656 16.738281 16.070312 16.949219 16.070312 17.175781 C 16.070312 17.410156 16.097656 17.621094 16.15625 17.816406 C 16.214844 18.003906 16.300781 18.167969 16.417969 18.304688 C 16.53125 18.441406 16.671875 18.550781 16.839844 18.628906 C 17.011719 18.699219 17.210938 18.734375 17.433594 18.734375 C 17.671875 18.734375 17.878906 18.699219 18.050781 18.628906 C 18.222656 18.550781 18.363281 18.441406 18.472656 18.304688 C 18.582031 18.160156 18.660156 17.996094 18.710938 17.804688 C 18.769531 17.609375 18.796875 17.402344 18.796875 17.175781 Z M 18.796875 17.175781 "/>
<path style=" stroke:none;fill-rule:nonzero;fill:rgb(0%,0%,0%);fill-opacity:1;" d="M 105.429688 41.023438 L 104.445312 39.441406 L 103.253906 39.441406 L 103.253906 41.023438 L 102.734375 41.023438 L 102.734375 37.210938 L 104.53125 37.210938 C 104.75 37.210938 104.9375 37.238281 105.105469 37.289062 C 105.269531 37.332031 105.414062 37.402344 105.527344 37.496094 C 105.640625 37.589844 105.730469 37.707031 105.789062 37.839844 C 105.84375 37.980469 105.875 38.128906 105.875 38.296875 C 105.875 38.417969 105.855469 38.542969 105.820312 38.664062 C 105.78125 38.78125 105.726562 38.886719 105.648438 38.988281 C 105.574219 39.082031 105.480469 39.167969 105.367188 39.238281 C 105.25 39.300781 105.109375 39.351562 104.945312 39.378906 L 106.027344 41.023438 Z M 105.355469 38.304688 C 105.355469 38.191406 105.332031 38.089844 105.289062 38.003906 C 105.253906 37.917969 105.195312 37.847656 105.117188 37.796875 C 105.042969 37.742188 104.953125 37.695312 104.847656 37.667969 C 104.738281 37.640625 104.613281 37.625 104.476562 37.625 L 103.253906 37.625 L 103.253906 39.03125 L 104.5 39.03125 C 104.652344 39.03125 104.78125 39.015625 104.890625 38.976562 C 104.996094 38.941406 105.085938 38.890625 105.148438 38.824219 C 105.21875 38.761719 105.269531 38.683594 105.300781 38.597656 C 105.335938 38.507812 105.355469 38.410156 105.355469 38.304688 Z M 105.355469 38.304688 "/>
<path style=" stroke:none;fill-rule:nonzero;fill:rgb(0%,0%,0%);fill-opacity:1;" d="M 106.871094 41.023438 L 106.871094 40.613281 L 107.84375 40.613281 L 107.84375 37.679688 L 106.976562 38.285156 L 106.976562 37.828125 L 107.886719 37.210938 L 108.332031 37.210938 L 108.332031 40.613281 L 109.261719 40.613281 L 109.261719 41.023438 Z M 106.871094 41.023438 "/>
<path style="fill:none;stroke-width:0.0333333;stroke-linecap:butt;stroke-linejoin:miter;stroke:rgb(0%,0%,0%);stroke-opacity:1;stroke-miterlimit:10;" d="M 3.030678 1.720294 L 3.030678 1.700899 M 3.100582 1.729992 L 3.100582 1.691202 M 3.170261 1.739689 L 3.170261 1.681504 M 3.23994 1.749387 L 3.23994 1.671807 M 3.309618 1.75931 L 3.309618 1.661884 M 3.379297 1.769007 L 3.379297 1.652186 M 3.449201 1.778705 L 3.449201 1.642489 M 3.51888 1.788402 L 3.51888 1.632791 M 3.588558 1.7981 L 3.588558 1.623094 M 3.658237 1.807797 L 3.658237 1.613396 M 3.727916 1.817495 L 3.727916 1.603698 M 3.79782 1.827192 L 3.79782 1.594001 " transform="matrix(17.322835,0,0,17.320819,17.168029,17.195285)"/>
<path style="fill:none;stroke-width:0.0333333;stroke-linecap:butt;stroke-linejoin:miter;stroke:rgb(0%,0%,0%);stroke-opacity:1;stroke-miterlimit:10;" d="M 2.965735 1.718941 L 2.562321 1.031095 " transform="matrix(17.322835,0,0,17.320819,17.168029,17.195285)"/>
<path style="fill:none;stroke-width:0.0333333;stroke-linecap:butt;stroke-linejoin:miter;stroke:rgb(0%,0%,0%);stroke-opacity:1;stroke-miterlimit:10;" d="M 2.965735 1.702252 L 2.465357 2.574351 " transform="matrix(17.322835,0,0,17.320819,17.168029,17.195285)"/>
<path style="fill:none;stroke-width:0.0333333;stroke-linecap:butt;stroke-linejoin:miter;stroke:rgb(0%,0%,0%);stroke-opacity:1;stroke-miterlimit:10;" d="M 2.302097 0.847744 L 1.470914 0.847744 " transform="matrix(17.322835,0,0,17.320819,17.168029,17.195285)"/>
<path style="fill:none;stroke-width:0.0333333;stroke-linecap:butt;stroke-linejoin:miter;stroke:rgb(0%,0%,0%);stroke-opacity:1;stroke-miterlimit:10;" d="M 2.479789 2.566007 L 1.486248 2.566007 " transform="matrix(17.322835,0,0,17.320819,17.168029,17.195285)"/>
<path style="fill:none;stroke-width:0.0333333;stroke-linecap:butt;stroke-linejoin:miter;stroke:rgb(0%,0%,0%);stroke-opacity:1;stroke-miterlimit:10;" d="M 2.496025 2.63186 L 2.51429 2.621486 M 2.521731 2.697938 L 2.558487 2.676739 M 2.547438 2.764016 L 2.602685 2.732218 M 2.57337 2.829869 L 2.646657 2.787471 M 2.599077 2.895948 L 2.69108 2.84295 M 2.624783 2.962026 L 2.735277 2.898428 M 2.650716 3.028104 L 2.779474 2.953907 M 2.676648 3.093957 L 2.823446 3.00916 M 2.702354 3.15981 L 2.867644 3.064639 M 2.728061 3.225888 L 2.911841 3.120118 M 2.753993 3.291967 L 2.956039 3.175371 " transform="matrix(17.322835,0,0,17.320819,17.168029,17.195285)"/>
<path style="fill:none;stroke-width:0.0333333;stroke-linecap:butt;stroke-linejoin:miter;stroke:rgb(0%,0%,0%);stroke-opacity:1;stroke-miterlimit:10;" d="M 1.485346 0.839174 L 0.984743 1.718941 " transform="matrix(17.322835,0,0,17.320819,17.168029,17.195285)"/>
<path style=" stroke:none;fill-rule:nonzero;fill:rgb(0%,0%,0%);fill-opacity:1;" d="M 42.816406 31.878906 L 36.253906 16.058594 L 34.492188 17.046875 L 32.007812 17.046875 "/>
<path style=" stroke:none;fill-rule:nonzero;fill:rgb(0%,0%,0%);fill-opacity:1;" d="M 43.078125 61.640625 L 34.8125 72.203125 L 38.335938 74.1875 "/>
<path style="fill:none;stroke-width:0.0333333;stroke-linecap:butt;stroke-linejoin:miter;stroke:rgb(0%,0%,0%);stroke-opacity:1;stroke-miterlimit:10;" d="M 0.919799 1.700899 L 0.919799 1.720294 M 0.850121 1.691202 L 0.850121 1.729992 M 0.780442 1.681504 L 0.780442 1.739689 M 0.710764 1.671807 L 0.710764 1.749387 M 0.640859 1.661884 L 0.640859 1.75931 M 0.571181 1.652186 L 0.571181 1.769007 M 0.501502 1.642489 L 0.501502 1.778705 M 0.431598 1.632791 L 0.431598 1.788402 M 0.361919 1.623094 L 0.361919 1.7981 M 0.292241 1.613396 L 0.292241 1.807797 M 0.222337 1.603698 L 0.222337 1.817495 M 0.152658 1.594001 L 0.152658 1.827192 " transform="matrix(17.322835,0,0,17.320819,17.168029,17.195285)"/>
<path style="fill:none;stroke-width:0.0333333;stroke-linecap:butt;stroke-linejoin:miter;stroke:rgb(0%,0%,0%);stroke-opacity:1;stroke-miterlimit:10;" d="M 1.014508 0.00000160246 L 0.168217 0.00000160246 " transform="matrix(17.322835,0,0,17.320819,17.168029,17.195285)"/>
<path style="fill:none;stroke-width:0.0333333;stroke-linecap:butt;stroke-linejoin:miter;stroke:rgb(0%,0%,0%);stroke-opacity:1;stroke-miterlimit:10;" d="M 1.50068 2.574126 L 0.984517 1.702252 " transform="matrix(17.322835,0,0,17.320819,17.168029,17.195285)"/>
<path style="fill:none;stroke-width:0.0333333;stroke-linecap:butt;stroke-linejoin:miter;stroke:rgb(0%,0%,0%);stroke-opacity:1;stroke-miterlimit:10;" d="M 4.874569 1.361486 L 4.136065 1.640459 " transform="matrix(17.322835,0,0,17.320819,17.168029,17.195285)"/>
<path style=" stroke:none;fill-rule:nonzero;fill:rgb(0%,0%,0%);fill-opacity:1;" d="M 19.863281 120.242188 L 18.878906 118.660156 L 17.6875 118.660156 L 17.6875 120.242188 L 17.167969 120.242188 L 17.167969 116.429688 L 18.964844 116.429688 C 19.183594 116.429688 19.371094 116.457031 19.539062 116.507812 C 19.703125 116.550781 19.84375 116.621094 19.960938 116.710938 C 20.074219 116.808594 20.164062 116.921875 20.222656 117.058594 C 20.277344 117.195312 20.308594 117.347656 20.308594 117.511719 C 20.308594 117.636719 20.289062 117.761719 20.253906 117.882812 C 20.214844 118 20.160156 118.105469 20.082031 118.207031 C 20.007812 118.300781 19.914062 118.386719 19.800781 118.457031 C 19.683594 118.519531 19.542969 118.570312 19.378906 118.597656 L 20.460938 120.242188 Z M 19.789062 117.523438 C 19.789062 117.410156 19.765625 117.308594 19.722656 117.222656 C 19.6875 117.132812 19.628906 117.066406 19.550781 117.015625 C 19.476562 116.957031 19.386719 116.914062 19.28125 116.886719 C 19.171875 116.859375 19.046875 116.84375 18.910156 116.84375 L 17.6875 116.84375 L 17.6875 118.25 L 18.933594 118.25 C 19.085938 118.25 19.214844 118.234375 19.324219 118.195312 C 19.429688 118.160156 19.519531 118.109375 19.582031 118.042969 C 19.652344 117.980469 19.703125 117.902344 19.734375 117.816406 C 19.769531 117.726562 19.789062 117.628906 19.789062 117.523438 Z M 19.789062 117.523438 "/>
<path style=" stroke:none;fill-rule:nonzero;fill:rgb(0%,0%,0%);fill-opacity:1;" d="M 21.304688 120.242188 L 21.304688 119.832031 L 22.277344 119.832031 L 22.277344 116.898438 L 21.410156 117.503906 L 21.410156 117.046875 L 22.320312 116.429688 L 22.765625 116.429688 L 22.765625 119.832031 L 23.695312 119.832031 L 23.695312 120.242188 Z M 21.304688 120.242188 "/>
<path style=" stroke:none;fill-rule:nonzero;fill:rgb(0%,0%,0%);fill-opacity:1;" d="M 24.359375 117.925781 L 24.359375 117.523438 L 27.058594 117.523438 L 27.058594 117.925781 Z M 24.359375 119.3125 L 24.359375 118.910156 L 27.058594 118.910156 L 27.058594 119.3125 Z M 24.359375 119.3125 "/>
<path style=" stroke:none;fill-rule:nonzero;fill:rgb(0%,0%,0%);fill-opacity:1;" d="M 17.167969 122.550781 L 17.167969 122.34375 L 18.328125 121.847656 L 17.167969 121.347656 L 17.167969 121.144531 L 18.511719 121.707031 L 18.511719 121.988281 Z M 17.167969 122.550781 "/>
<path style=" stroke:none;fill-rule:nonzero;fill:rgb(0%,0%,0%);fill-opacity:1;" d="M 20.144531 121.804688 C 20.144531 121.984375 20.125 122.140625 20.089844 122.269531 C 20.0625 122.394531 20.015625 122.492188 19.949219 122.570312 C 19.890625 122.644531 19.824219 122.699219 19.746094 122.734375 C 19.664062 122.769531 19.578125 122.789062 19.484375 122.789062 C 19.390625 122.789062 19.304688 122.769531 19.226562 122.734375 C 19.144531 122.699219 19.074219 122.644531 19.007812 122.570312 C 18.949219 122.492188 18.902344 122.394531 18.867188 122.269531 C 18.835938 122.140625 18.824219 121.984375 18.824219 121.804688 C 18.824219 121.609375 18.835938 121.453125 18.867188 121.328125 C 18.902344 121.195312 18.949219 121.097656 19.007812 121.023438 C 19.074219 120.953125 19.144531 120.902344 19.226562 120.871094 C 19.304688 120.835938 19.394531 120.816406 19.496094 120.816406 C 19.582031 120.816406 19.664062 120.835938 19.746094 120.871094 C 19.824219 120.902344 19.890625 120.953125 19.949219 121.023438 C 20.015625 121.097656 20.0625 121.195312 20.089844 121.328125 C 20.125 121.453125 20.144531 121.609375 20.144531 121.804688 Z M 19.90625 121.804688 C 19.90625 121.652344 19.894531 121.527344 19.875 121.425781 C 19.859375 121.324219 19.832031 121.246094 19.796875 121.1875 C 19.761719 121.121094 19.71875 121.078125 19.667969 121.054688 C 19.617188 121.027344 19.558594 121.011719 19.496094 121.011719 C 19.421875 121.011719 19.359375 121.027344 19.3125 121.054688 C 19.261719 121.078125 19.214844 121.121094 19.179688 121.1875 C 19.144531 121.246094 19.117188 121.324219 19.09375 121.425781 C 19.078125 121.527344 19.074219 121.652344 19.074219 121.804688 C 19.074219 121.949219 19.078125 122.070312 19.09375 122.171875 C 19.117188 122.273438 19.144531 122.355469 19.179688 122.421875 C 19.214844 122.480469 19.261719 122.523438 19.3125 122.550781 C 19.359375 122.570312 19.417969 122.582031 19.484375 122.582031 C 19.550781 122.582031 19.605469 122.570312 19.65625 122.550781 C 19.707031 122.523438 19.75 122.480469 19.789062 122.421875 C 19.824219 122.355469 19.851562 122.273438 19.875 122.171875 C 19.894531 122.070312 19.90625 121.949219 19.90625 121.804688 Z M 19.90625 121.804688 "/>
<path style=" stroke:none;fill-rule:nonzero;fill:rgb(0%,0%,0%);fill-opacity:1;" d="M 95.289062 144.910156 C 95.289062 145.207031 95.246094 145.480469 95.160156 145.722656 C 95.074219 145.96875 94.945312 146.175781 94.78125 146.351562 C 94.621094 146.523438 94.421875 146.660156 94.183594 146.75 C 93.953125 146.84375 93.691406 146.890625 93.394531 146.890625 C 93.074219 146.890625 92.800781 146.84375 92.5625 146.75 C 92.328125 146.652344 92.132812 146.511719 91.976562 146.339844 C 91.816406 146.160156 91.699219 145.949219 91.617188 145.710938 C 91.539062 145.46875 91.5 145.199219 91.5 144.910156 C 91.5 144.617188 91.539062 144.347656 91.617188 144.109375 C 91.707031 143.867188 91.828125 143.660156 91.988281 143.492188 C 92.152344 143.328125 92.351562 143.195312 92.582031 143.101562 C 92.820312 143.011719 93.089844 142.960938 93.394531 142.960938 C 93.699219 142.960938 93.96875 143.011719 94.207031 143.101562 C 94.445312 143.195312 94.640625 143.328125 94.800781 143.503906 C 94.957031 143.671875 95.078125 143.871094 95.160156 144.109375 C 95.246094 144.347656 95.289062 144.617188 95.289062 144.910156 Z M 94.757812 144.910156 C 94.757812 144.679688 94.730469 144.472656 94.671875 144.28125 C 94.613281 144.09375 94.527344 143.9375 94.414062 143.804688 C 94.296875 143.671875 94.152344 143.566406 93.980469 143.492188 C 93.8125 143.421875 93.617188 143.382812 93.394531 143.382812 C 93.167969 143.382812 92.972656 143.421875 92.800781 143.492188 C 92.625 143.566406 92.480469 143.671875 92.367188 143.804688 C 92.257812 143.9375 92.171875 144.09375 92.117188 144.28125 C 92.058594 144.472656 92.03125 144.679688 92.03125 144.910156 C 92.03125 145.144531 92.058594 145.355469 92.117188 145.550781 C 92.171875 145.738281 92.261719 145.902344 92.375 146.035156 C 92.492188 146.175781 92.632812 146.28125 92.800781 146.359375 C 92.972656 146.433594 93.167969 146.46875 93.394531 146.46875 C 93.632812 146.46875 93.839844 146.433594 94.011719 146.359375 C 94.183594 146.28125 94.324219 146.175781 94.433594 146.035156 C 94.542969 145.894531 94.621094 145.726562 94.671875 145.539062 C 94.730469 145.34375 94.757812 145.136719 94.757812 144.910156 Z M 94.757812 144.910156 "/>
<path style=" stroke:none;fill-rule:nonzero;fill:rgb(0%,0%,0%);fill-opacity:1;" d="M 44.015625 138.863281 L 44.730469 138.589844 L 44.851562 138.949219 L 44.09375 139.144531 L 44.589844 139.8125 L 44.265625 140.007812 L 43.863281 139.316406 L 43.441406 140.007812 L 43.117188 139.8125 L 43.625 139.144531 L 42.867188 138.949219 L 43 138.582031 L 43.714844 138.871094 L 43.679688 138.070312 L 44.046875 138.070312 Z M 44.015625 138.863281 "/>
<path style=" stroke:none;fill-rule:nonzero;fill:rgb(0%,0%,0%);fill-opacity:1;" d="M 93.503906 92.164062 C 93.285156 92.164062 93.09375 92.203125 92.929688 92.273438 C 92.761719 92.347656 92.621094 92.453125 92.507812 92.589844 C 92.398438 92.71875 92.316406 92.878906 92.257812 93.0625 C 92.199219 93.253906 92.171875 93.460938 92.171875 93.691406 C 92.171875 93.925781 92.199219 94.136719 92.257812 94.332031 C 92.324219 94.519531 92.410156 94.683594 92.527344 94.816406 C 92.640625 94.957031 92.78125 95.0625 92.949219 95.144531 C 93.125 95.214844 93.3125 95.25 93.523438 95.25 C 93.675781 95.25 93.808594 95.234375 93.925781 95.195312 C 94.046875 95.152344 94.15625 95.097656 94.261719 95.023438 C 94.359375 94.953125 94.449219 94.871094 94.519531 94.773438 C 94.597656 94.683594 94.667969 94.574219 94.726562 94.449219 L 95.148438 94.667969 C 95.082031 94.8125 95 94.945312 94.898438 95.066406 C 94.796875 95.191406 94.675781 95.300781 94.542969 95.390625 C 94.402344 95.476562 94.25 95.546875 94.078125 95.597656 C 93.902344 95.644531 93.710938 95.671875 93.503906 95.671875 C 93.191406 95.671875 92.921875 95.625 92.691406 95.53125 C 92.457031 95.433594 92.261719 95.292969 92.105469 95.121094 C 91.953125 94.941406 91.839844 94.730469 91.757812 94.492188 C 91.679688 94.25 91.640625 93.980469 91.640625 93.691406 C 91.640625 93.398438 91.679688 93.128906 91.757812 92.890625 C 91.847656 92.648438 91.96875 92.441406 92.128906 92.273438 C 92.285156 92.109375 92.480469 91.980469 92.710938 91.882812 C 92.941406 91.792969 93.203125 91.742188 93.503906 91.742188 C 93.90625 91.742188 94.242188 91.824219 94.507812 91.980469 C 94.78125 92.140625 94.984375 92.378906 95.117188 92.695312 L 94.628906 92.859375 C 94.589844 92.765625 94.542969 92.679688 94.476562 92.597656 C 94.417969 92.511719 94.339844 92.441406 94.25 92.382812 C 94.15625 92.316406 94.046875 92.269531 93.925781 92.230469 C 93.800781 92.1875 93.660156 92.164062 93.503906 92.164062 Z M 93.503906 92.164062 "/>
<path style=" stroke:none;fill-rule:nonzero;fill:rgb(0%,0%,0%);fill-opacity:1;" d="M 125.386719 144.910156 C 125.386719 145.207031 125.34375 145.480469 125.257812 145.722656 C 125.171875 145.96875 125.042969 146.175781 124.878906 146.351562 C 124.71875 146.523438 124.519531 146.660156 124.285156 146.75 C 124.050781 146.84375 123.789062 146.890625 123.492188 146.890625 C 123.171875 146.890625 122.898438 146.84375 122.660156 146.75 C 122.425781 146.652344 122.230469 146.511719 122.074219 146.339844 C 121.914062 146.160156 121.796875 145.949219 121.71875 145.710938 C 121.636719 145.46875 121.597656 145.199219 121.597656 144.910156 C 121.597656 144.617188 121.636719 144.347656 121.71875 144.109375 C 121.804688 143.867188 121.925781 143.660156 122.085938 143.492188 C 122.25 143.328125 122.449219 143.195312 122.679688 143.101562 C 122.917969 143.011719 123.191406 142.960938 123.492188 142.960938 C 123.796875 142.960938 124.066406 143.011719 124.304688 143.101562 C 124.542969 143.195312 124.742188 143.328125 124.898438 143.503906 C 125.058594 143.671875 125.175781 143.871094 125.257812 144.109375 C 125.34375 144.347656 125.386719 144.617188 125.386719 144.910156 Z M 124.855469 144.910156 C 124.855469 144.679688 124.828125 144.472656 124.769531 144.28125 C 124.710938 144.09375 124.625 143.9375 124.511719 143.804688 C 124.394531 143.671875 124.25 143.566406 124.078125 143.492188 C 123.910156 143.421875 123.714844 143.382812 123.492188 143.382812 C 123.269531 143.382812 123.070312 143.421875 122.898438 143.492188 C 122.722656 143.566406 122.578125 143.671875 122.464844 143.804688 C 122.355469 143.9375 122.273438 144.09375 122.214844 144.28125 C 122.15625 144.472656 122.128906 144.679688 122.128906 144.910156 C 122.128906 145.144531 122.15625 145.355469 122.214844 145.550781 C 122.273438 145.738281 122.359375 145.902344 122.476562 146.035156 C 122.589844 146.175781 122.730469 146.28125 122.898438 146.359375 C 123.070312 146.433594 123.269531 146.46875 123.492188 146.46875 C 123.730469 146.46875 123.9375 146.433594 124.109375 146.359375 C 124.285156 146.28125 124.425781 146.175781 124.53125 146.035156 C 124.640625 145.894531 124.71875 145.726562 124.769531 145.539062 C 124.828125 145.34375 124.855469 145.136719 124.855469 144.910156 Z M 124.855469 144.910156 "/>
<path style="fill:none;stroke-width:0.0333333;stroke-linecap:butt;stroke-linejoin:miter;stroke:rgb(0%,0%,0%);stroke-opacity:1;stroke-miterlimit:10;" d="M 1.733537 2.466256 L 1.733537 1.480493 " transform="matrix(17.322835,0,0,17.320819,48.349131,93.708211)"/>
<path style="fill:none;stroke-width:0.0333333;stroke-linecap:butt;stroke-linejoin:miter;stroke:rgb(0%,0%,0%);stroke-opacity:1;stroke-miterlimit:10;" d="M 1.566895 2.369055 L 1.566895 1.577694 " transform="matrix(17.322835,0,0,17.320819,48.349131,93.708211)"/>
<path style="fill:none;stroke-width:0.0333333;stroke-linecap:butt;stroke-linejoin:miter;stroke:rgb(0%,0%,0%);stroke-opacity:1;stroke-miterlimit:10;" d="M 1.741655 2.46152 L 0.858608 2.961731 " transform="matrix(17.322835,0,0,17.320819,48.349131,93.708211)"/>
<path style="fill:none;stroke-width:0.0333333;stroke-linecap:butt;stroke-linejoin:miter;stroke:rgb(0%,0%,0%);stroke-opacity:1;stroke-miterlimit:10;" d="M 1.725419 2.46152 L 2.41747 2.853705 " transform="matrix(17.322835,0,0,17.320819,48.349131,93.708211)"/>
<path style="fill:none;stroke-width:0.0333333;stroke-linecap:butt;stroke-linejoin:miter;stroke:rgb(0%,0%,0%);stroke-opacity:1;stroke-miterlimit:10;" d="M 1.741655 1.485229 L 0.858608 0.984793 " transform="matrix(17.322835,0,0,17.320819,48.349131,93.708211)"/>
<path style="fill:none;stroke-width:0.0333333;stroke-linecap:butt;stroke-linejoin:miter;stroke:rgb(0%,0%,0%);stroke-opacity:1;stroke-miterlimit:10;" d="M 1.725419 1.485229 L 2.608917 0.984793 " transform="matrix(17.322835,0,0,17.320819,48.349131,93.708211)"/>
<path style="fill:none;stroke-width:0.0333333;stroke-linecap:butt;stroke-linejoin:miter;stroke:rgb(0%,0%,0%);stroke-opacity:1;stroke-miterlimit:10;" d="M 0.875069 2.961731 L -0.00842854 2.46152 " transform="matrix(17.322835,0,0,17.320819,48.349131,93.708211)"/>
<path style="fill:none;stroke-width:0.0333333;stroke-linecap:butt;stroke-linejoin:miter;stroke:rgb(0%,0%,0%);stroke-opacity:1;stroke-miterlimit:10;" d="M 0.875069 2.770261 L 0.158214 2.364319 " transform="matrix(17.322835,0,0,17.320819,48.349131,93.708211)"/>
<path style="fill:none;stroke-width:0.0333333;stroke-linecap:butt;stroke-linejoin:miter;stroke:rgb(0%,0%,0%);stroke-opacity:1;stroke-miterlimit:10;" d="M 2.783226 2.853931 L 3.479562 2.46152 " transform="matrix(17.322835,0,0,17.320819,48.349131,93.708211)"/>
<path style="fill:none;stroke-width:0.0333333;stroke-linecap:butt;stroke-linejoin:miter;stroke:rgb(0%,0%,0%);stroke-opacity:1;stroke-miterlimit:10;" d="M 0.875069 0.984793 L -0.00842854 1.485229 " transform="matrix(17.322835,0,0,17.320819,48.349131,93.708211)"/>
<path style="fill:none;stroke-width:0.0333333;stroke-linecap:butt;stroke-linejoin:miter;stroke:rgb(0%,0%,0%);stroke-opacity:1;stroke-miterlimit:10;" d="M 0.875069 1.176487 L 0.158214 1.58243 " transform="matrix(17.322835,0,0,17.320819,48.349131,93.708211)"/>
<path style="fill:none;stroke-width:0.0333333;stroke-linecap:butt;stroke-linejoin:miter;stroke:rgb(0%,0%,0%);stroke-opacity:1;stroke-miterlimit:10;" d="M 2.600348 0.989529 L 3.479562 1.485229 " transform="matrix(17.322835,0,0,17.320819,48.349131,93.708211)"/>
<path style="fill:none;stroke-width:0.0333333;stroke-linecap:butt;stroke-linejoin:miter;stroke:rgb(0%,0%,0%);stroke-opacity:1;stroke-miterlimit:10;" d="M 2.600574 1.180998 L 3.312919 1.582655 " transform="matrix(17.322835,0,0,17.320819,48.349131,93.708211)"/>
<path style="fill:none;stroke-width:0.0333333;stroke-linecap:butt;stroke-linejoin:miter;stroke:rgb(0%,0%,0%);stroke-opacity:1;stroke-miterlimit:10;" d="M 2.600348 0.999226 L 2.600348 0.156671 " transform="matrix(17.322835,0,0,17.320819,48.349131,93.708211)"/>
<path style="fill:none;stroke-width:0.0333333;stroke-linecap:butt;stroke-linejoin:miter;stroke:rgb(0%,0%,0%);stroke-opacity:1;stroke-miterlimit:10;" d="M 3.386206 2.514067 L 4.113885 2.926098 " transform="matrix(17.322835,0,0,17.320819,48.349131,93.708211)"/>
<path style="fill:none;stroke-width:0.0333333;stroke-linecap:butt;stroke-linejoin:miter;stroke:rgb(0%,0%,0%);stroke-opacity:1;stroke-miterlimit:10;" d="M 3.471218 2.370408 L 4.196191 2.781086 " transform="matrix(17.322835,0,0,17.320819,48.349131,93.708211)"/>
<path style="fill:none;stroke-width:0.0333333;stroke-linecap:butt;stroke-linejoin:miter;stroke:rgb(0%,0%,0%);stroke-opacity:1;stroke-miterlimit:10;" d="M 0.000140355 2.475953 L 0.000140355 1.470796 " transform="matrix(17.322835,0,0,17.320819,48.349131,93.708211)"/>
<path style="fill:none;stroke-width:0.0333333;stroke-linecap:butt;stroke-linejoin:miter;stroke:rgb(0%,0%,0%);stroke-opacity:1;stroke-miterlimit:10;" d="M 3.471218 2.475953 L 3.471218 1.470796 " transform="matrix(17.322835,0,0,17.320819,48.349131,93.708211)"/>
</g>
</svg>
