<?xml version="1.0" encoding="UTF-8"?>
<svg xmlns="http://www.w3.org/2000/svg" xmlns:xlink="http://www.w3.org/1999/xlink" width="249.6pt" height="135.2pt" viewBox="0 0 249.6 135.2" version="1.1">
<g id="surface792">
<path style=" stroke:none;fill-rule:nonzero;fill:rgb(0%,0%,0%);fill-opacity:1;" d="M 76.691406 66.75 C 76.691406 67.046875 76.648438 67.316406 76.5625 67.558594 C 76.472656 67.808594 76.347656 68.015625 76.179688 68.1875 C 76.019531 68.363281 75.824219 68.496094 75.585938 68.589844 C 75.351562 68.679688 75.085938 68.730469 74.792969 68.730469 C 74.472656 68.730469 74.195312 68.679688 73.957031 68.589844 C 73.722656 68.488281 73.527344 68.351562 73.371094 68.175781 C 73.210938 68 73.089844 67.789062 73.011719 67.550781 C 72.929688 67.304688 72.890625 67.039062 72.890625 66.75 C 72.890625 66.453125 72.929688 66.1875 73.011719 65.949219 C 73.097656 65.703125 73.21875 65.5 73.378906 65.332031 C 73.546875 65.167969 73.742188 65.035156 73.976562 64.941406 C 74.214844 64.847656 74.488281 64.800781 74.792969 64.800781 C 75.09375 64.800781 75.367188 64.847656 75.605469 64.941406 C 75.84375 65.035156 76.042969 65.167969 76.203125 65.34375 C 76.359375 65.507812 76.480469 65.710938 76.5625 65.949219 C 76.648438 66.1875 76.691406 66.453125 76.691406 66.75 Z M 76.160156 66.75 C 76.160156 66.519531 76.128906 66.308594 76.074219 66.121094 C 76.011719 65.933594 75.925781 65.773438 75.8125 65.644531 C 75.695312 65.507812 75.550781 65.402344 75.378906 65.332031 C 75.210938 65.261719 75.015625 65.222656 74.792969 65.222656 C 74.566406 65.222656 74.367188 65.261719 74.195312 65.332031 C 74.019531 65.402344 73.875 65.507812 73.761719 65.644531 C 73.652344 65.773438 73.566406 65.933594 73.511719 66.121094 C 73.449219 66.308594 73.421875 66.519531 73.421875 66.75 C 73.421875 66.980469 73.449219 67.191406 73.511719 67.386719 C 73.566406 67.578125 73.65625 67.738281 73.769531 67.875 C 73.886719 68.011719 74.027344 68.121094 74.195312 68.199219 C 74.367188 68.273438 74.566406 68.308594 74.792969 68.308594 C 75.03125 68.308594 75.238281 68.273438 75.410156 68.199219 C 75.585938 68.121094 75.726562 68.011719 75.832031 67.875 C 75.941406 67.730469 76.019531 67.566406 76.074219 67.375 C 76.128906 67.183594 76.160156 66.972656 76.160156 66.75 Z M 76.160156 66.75 "/>
<path style=" stroke:none;fill-rule:nonzero;fill:rgb(0%,0%,0%);fill-opacity:1;" d="M 16.570312 31.621094 C 16.355469 31.621094 16.160156 31.65625 15.996094 31.726562 C 15.828125 31.800781 15.6875 31.90625 15.574219 32.042969 C 15.464844 32.171875 15.378906 32.332031 15.324219 32.519531 C 15.261719 32.707031 15.234375 32.914062 15.234375 33.144531 C 15.234375 33.378906 15.261719 33.589844 15.324219 33.785156 C 15.386719 33.972656 15.476562 34.136719 15.59375 34.269531 C 15.707031 34.410156 15.847656 34.515625 16.015625 34.597656 C 16.191406 34.667969 16.382812 34.703125 16.59375 34.703125 C 16.746094 34.703125 16.878906 34.6875 16.996094 34.648438 C 17.117188 34.605469 17.226562 34.550781 17.332031 34.476562 C 17.433594 34.40625 17.519531 34.324219 17.59375 34.226562 C 17.671875 34.136719 17.738281 34.027344 17.796875 33.902344 L 18.222656 34.121094 C 18.15625 34.265625 18.070312 34.398438 17.972656 34.519531 C 17.867188 34.644531 17.75 34.753906 17.613281 34.84375 C 17.476562 34.929688 17.320312 35 17.148438 35.050781 C 16.972656 35.097656 16.78125 35.125 16.570312 35.125 C 16.257812 35.125 15.988281 35.078125 15.757812 34.984375 C 15.523438 34.886719 15.328125 34.746094 15.171875 34.574219 C 15.019531 34.394531 14.902344 34.183594 14.824219 33.945312 C 14.742188 33.703125 14.703125 33.433594 14.703125 33.144531 C 14.703125 32.851562 14.742188 32.582031 14.824219 32.34375 C 14.910156 32.101562 15.03125 31.894531 15.191406 31.726562 C 15.351562 31.5625 15.546875 31.433594 15.777344 31.339844 C 16.007812 31.246094 16.273438 31.199219 16.570312 31.199219 C 16.976562 31.199219 17.3125 31.277344 17.582031 31.4375 C 17.855469 31.59375 18.058594 31.832031 18.1875 32.148438 L 17.699219 32.3125 C 17.664062 32.21875 17.613281 32.132812 17.546875 32.054688 C 17.488281 31.964844 17.414062 31.894531 17.320312 31.835938 C 17.226562 31.769531 17.117188 31.722656 16.996094 31.683594 C 16.871094 31.640625 16.730469 31.621094 16.570312 31.621094 Z M 16.570312 31.621094 "/>
<path style=" stroke:none;fill-rule:nonzero;fill:rgb(0%,0%,0%);fill-opacity:1;" d="M 18.980469 35.070312 L 18.980469 31.058594 L 19.46875 31.058594 L 19.46875 35.070312 Z M 18.980469 35.070312 "/>
<path style=" stroke:none;fill-rule:nonzero;fill:rgb(0%,0%,47.058824%);fill-opacity:1;" d="M 140.9375 91.070312 L 139.265625 88.140625 C 139.28125 88.21875 139.289062 88.296875 139.296875 88.378906 C 139.304688 88.441406 139.308594 88.515625 139.308594 88.59375 C 139.316406 88.675781 139.320312 88.75 139.320312 88.820312 L 139.320312 91.070312 L 138.605469 91.070312 L 138.605469 87.261719 L 139.527344 87.261719 L 141.210938 90.21875 C 141.203125 90.148438 141.191406 90.066406 141.1875 89.980469 C 141.179688 89.910156 141.171875 89.828125 141.164062 89.742188 C 141.164062 89.652344 141.164062 89.566406 141.164062 89.46875 L 141.164062 87.261719 L 141.871094 87.261719 L 141.871094 91.070312 Z M 140.9375 91.070312 "/>
<path style=" stroke:none;fill-rule:nonzero;fill:rgb(0%,0%,47.058824%);fill-opacity:1;" d="M 183.84375 72.214844 L 182.171875 69.28125 C 182.183594 69.363281 182.195312 69.441406 182.203125 69.519531 C 182.210938 69.585938 182.214844 69.65625 182.214844 69.734375 C 182.222656 69.816406 182.226562 69.894531 182.226562 69.964844 L 182.226562 72.214844 L 181.507812 72.214844 L 181.507812 68.40625 L 182.433594 68.40625 L 184.117188 71.359375 C 184.105469 71.289062 184.097656 71.207031 184.09375 71.121094 C 184.085938 71.050781 184.078125 70.96875 184.070312 70.882812 C 184.070312 70.796875 184.070312 70.707031 184.070312 70.613281 L 184.070312 68.40625 L 184.777344 68.40625 L 184.777344 72.214844 Z M 183.84375 72.214844 "/>
<path style=" stroke:none;fill-rule:nonzero;fill:rgb(0%,0%,47.058824%);fill-opacity:1;" d="M 166.359375 22.675781 C 166.359375 22.972656 166.3125 23.242188 166.21875 23.488281 C 166.132812 23.734375 166.003906 23.941406 165.839844 24.113281 C 165.671875 24.289062 165.46875 24.421875 165.230469 24.515625 C 164.992188 24.605469 164.722656 24.65625 164.417969 24.65625 C 164.097656 24.65625 163.820312 24.605469 163.582031 24.515625 C 163.34375 24.414062 163.140625 24.277344 162.972656 24.105469 C 162.8125 23.925781 162.695312 23.714844 162.613281 23.476562 C 162.535156 23.234375 162.496094 22.964844 162.496094 22.675781 C 162.496094 22.378906 162.535156 22.113281 162.613281 21.875 C 162.703125 21.632812 162.828125 21.425781 162.996094 21.257812 C 163.160156 21.09375 163.363281 20.960938 163.601562 20.867188 C 163.84375 20.777344 164.117188 20.726562 164.429688 20.726562 C 164.738281 20.726562 165.015625 20.777344 165.253906 20.867188 C 165.492188 20.960938 165.691406 21.09375 165.851562 21.269531 C 166.015625 21.4375 166.144531 21.636719 166.230469 21.875 C 166.316406 22.113281 166.359375 22.378906 166.359375 22.675781 Z M 165.546875 22.675781 C 165.546875 22.476562 165.519531 22.292969 165.46875 22.132812 C 165.417969 21.976562 165.34375 21.839844 165.253906 21.722656 C 165.160156 21.609375 165.042969 21.515625 164.90625 21.453125 C 164.765625 21.386719 164.605469 21.355469 164.429688 21.355469 C 164.238281 21.355469 164.074219 21.386719 163.929688 21.453125 C 163.789062 21.515625 163.671875 21.609375 163.582031 21.722656 C 163.484375 21.839844 163.414062 21.976562 163.363281 22.132812 C 163.320312 22.292969 163.300781 22.476562 163.300781 22.675781 C 163.300781 22.878906 163.324219 23.0625 163.375 23.226562 C 163.421875 23.386719 163.496094 23.527344 163.59375 23.648438 C 163.683594 23.765625 163.800781 23.859375 163.941406 23.929688 C 164.074219 23.996094 164.234375 24.027344 164.417969 24.027344 C 164.613281 24.027344 164.777344 23.996094 164.917969 23.929688 C 165.0625 23.859375 165.179688 23.765625 165.273438 23.648438 C 165.367188 23.527344 165.4375 23.382812 165.480469 23.214844 C 165.523438 23.050781 165.546875 22.871094 165.546875 22.675781 Z M 165.546875 22.675781 "/>
<path style=" stroke:none;fill-rule:nonzero;fill:rgb(0%,0%,47.058824%);fill-opacity:1;" d="M 177.921875 18.570312 C 178.074219 18.570312 178.203125 18.550781 178.3125 18.507812 C 178.421875 18.460938 178.511719 18.410156 178.59375 18.34375 C 178.671875 18.273438 178.738281 18.191406 178.789062 18.105469 C 178.847656 18.019531 178.894531 17.933594 178.929688 17.847656 L 179.625 18.105469 C 179.566406 18.242188 179.488281 18.382812 179.398438 18.515625 C 179.3125 18.648438 179.195312 18.761719 179.0625 18.863281 C 178.929688 18.964844 178.769531 19.046875 178.582031 19.113281 C 178.394531 19.167969 178.171875 19.199219 177.921875 19.199219 C 177.585938 19.199219 177.296875 19.148438 177.050781 19.058594 C 176.8125 18.957031 176.613281 18.820312 176.457031 18.648438 C 176.296875 18.46875 176.175781 18.257812 176.097656 18.019531 C 176.023438 17.777344 175.988281 17.507812 175.988281 17.21875 C 175.988281 16.921875 176.023438 16.65625 176.097656 16.417969 C 176.175781 16.171875 176.292969 15.96875 176.445312 15.800781 C 176.601562 15.636719 176.804688 15.503906 177.042969 15.410156 C 177.28125 15.320312 177.5625 15.269531 177.886719 15.269531 C 178.132812 15.269531 178.351562 15.300781 178.539062 15.355469 C 178.726562 15.40625 178.890625 15.480469 179.027344 15.574219 C 179.164062 15.667969 179.277344 15.777344 179.367188 15.910156 C 179.453125 16.039062 179.519531 16.179688 179.570312 16.332031 L 178.867188 16.527344 C 178.84375 16.445312 178.804688 16.371094 178.746094 16.296875 C 178.695312 16.21875 178.628906 16.152344 178.550781 16.09375 C 178.46875 16.035156 178.378906 15.988281 178.269531 15.953125 C 178.160156 15.917969 178.035156 15.898438 177.898438 15.898438 C 177.703125 15.898438 177.535156 15.929688 177.398438 15.996094 C 177.261719 16.058594 177.144531 16.152344 177.050781 16.265625 C 176.964844 16.382812 176.902344 16.519531 176.855469 16.675781 C 176.8125 16.835938 176.792969 17.019531 176.792969 17.21875 C 176.792969 17.421875 176.8125 17.605469 176.855469 17.769531 C 176.902344 17.929688 176.964844 18.070312 177.050781 18.191406 C 177.144531 18.308594 177.261719 18.402344 177.398438 18.472656 C 177.542969 18.539062 177.71875 18.570312 177.921875 18.570312 Z M 177.921875 18.570312 "/>
<path style=" stroke:none;fill-rule:nonzero;fill:rgb(0%,0%,0%);fill-opacity:1;" d="M 205.625 117.808594 C 205.625 118.105469 205.582031 118.375 205.492188 118.621094 C 205.40625 118.867188 205.28125 119.074219 205.113281 119.246094 C 204.953125 119.421875 204.753906 119.554688 204.515625 119.648438 C 204.28125 119.738281 204.019531 119.789062 203.722656 119.789062 C 203.402344 119.789062 203.125 119.738281 202.886719 119.648438 C 202.65625 119.546875 202.460938 119.410156 202.300781 119.238281 C 202.140625 119.058594 202.023438 118.847656 201.941406 118.609375 C 201.863281 118.367188 201.824219 118.097656 201.824219 117.808594 C 201.824219 117.511719 201.863281 117.246094 201.941406 117.007812 C 202.03125 116.765625 202.152344 116.558594 202.3125 116.390625 C 202.476562 116.226562 202.675781 116.09375 202.910156 116 C 203.148438 115.910156 203.421875 115.859375 203.722656 115.859375 C 204.027344 115.859375 204.300781 115.910156 204.539062 116 C 204.777344 116.09375 204.976562 116.226562 205.136719 116.402344 C 205.292969 116.570312 205.414062 116.769531 205.492188 117.007812 C 205.582031 117.246094 205.625 117.511719 205.625 117.808594 Z M 205.09375 117.808594 C 205.09375 117.578125 205.0625 117.371094 205.003906 117.179688 C 204.945312 116.992188 204.859375 116.835938 204.746094 116.703125 C 204.628906 116.570312 204.484375 116.464844 204.308594 116.390625 C 204.140625 116.320312 203.945312 116.28125 203.722656 116.28125 C 203.5 116.28125 203.300781 116.320312 203.125 116.390625 C 202.953125 116.464844 202.804688 116.570312 202.691406 116.703125 C 202.582031 116.835938 202.5 116.992188 202.441406 117.179688 C 202.382812 117.371094 202.355469 117.578125 202.355469 117.808594 C 202.355469 118.039062 202.382812 118.25 202.441406 118.445312 C 202.5 118.636719 202.585938 118.796875 202.703125 118.933594 C 202.816406 119.070312 202.957031 119.179688 203.125 119.257812 C 203.300781 119.332031 203.5 119.367188 203.722656 119.367188 C 203.960938 119.367188 204.167969 119.332031 204.34375 119.257812 C 204.515625 119.179688 204.65625 119.070312 204.765625 118.933594 C 204.875 118.789062 204.953125 118.625 205.003906 118.4375 C 205.0625 118.242188 205.09375 118.03125 205.09375 117.808594 Z M 205.09375 117.808594 "/>
<path style=" stroke:none;fill-rule:nonzero;fill:rgb(0%,0%,0%);fill-opacity:1;" d="M 190.957031 95.515625 C 190.957031 95.8125 190.914062 96.082031 190.828125 96.324219 C 190.742188 96.570312 190.613281 96.78125 190.449219 96.953125 C 190.289062 97.125 190.089844 97.261719 189.851562 97.355469 C 189.617188 97.445312 189.355469 97.496094 189.058594 97.496094 C 188.738281 97.496094 188.460938 97.445312 188.222656 97.355469 C 187.988281 97.253906 187.792969 97.117188 187.636719 96.941406 C 187.476562 96.765625 187.355469 96.554688 187.277344 96.316406 C 187.195312 96.070312 187.15625 95.804688 187.15625 95.515625 C 187.15625 95.21875 187.195312 94.953125 187.277344 94.714844 C 187.363281 94.46875 187.488281 94.265625 187.648438 94.097656 C 187.8125 93.929688 188.011719 93.800781 188.242188 93.707031 C 188.484375 93.613281 188.753906 93.566406 189.058594 93.566406 C 189.363281 93.566406 189.632812 93.613281 189.871094 93.707031 C 190.113281 93.800781 190.308594 93.933594 190.46875 94.109375 C 190.628906 94.273438 190.746094 94.476562 190.828125 94.714844 C 190.914062 94.953125 190.957031 95.21875 190.957031 95.515625 Z M 190.425781 95.515625 C 190.425781 95.285156 190.394531 95.074219 190.339844 94.886719 C 190.28125 94.699219 190.191406 94.539062 190.078125 94.410156 C 189.960938 94.273438 189.816406 94.167969 189.644531 94.097656 C 189.476562 94.027344 189.28125 93.988281 189.058594 93.988281 C 188.832031 93.988281 188.636719 94.027344 188.460938 94.097656 C 188.289062 94.167969 188.140625 94.273438 188.027344 94.410156 C 187.917969 94.539062 187.835938 94.699219 187.777344 94.886719 C 187.71875 95.074219 187.691406 95.285156 187.691406 95.515625 C 187.691406 95.746094 187.71875 95.957031 187.777344 96.152344 C 187.835938 96.34375 187.921875 96.503906 188.039062 96.640625 C 188.152344 96.777344 188.292969 96.886719 188.460938 96.964844 C 188.636719 97.039062 188.832031 97.074219 189.058594 97.074219 C 189.296875 97.074219 189.503906 97.039062 189.675781 96.964844 C 189.851562 96.886719 189.992188 96.777344 190.101562 96.640625 C 190.210938 96.496094 190.289062 96.332031 190.339844 96.140625 C 190.394531 95.945312 190.425781 95.738281 190.425781 95.515625 Z M 190.425781 95.515625 "/>
<path style=" stroke:none;fill-rule:nonzero;fill:rgb(0%,0%,0%);fill-opacity:1;" d="M 217.886719 91.230469 C 217.667969 91.230469 217.476562 91.265625 217.308594 91.335938 C 217.140625 91.410156 217 91.515625 216.886719 91.652344 C 216.777344 91.78125 216.691406 91.941406 216.636719 92.128906 C 216.578125 92.316406 216.550781 92.523438 216.550781 92.753906 C 216.550781 92.988281 216.578125 93.199219 216.636719 93.394531 C 216.703125 93.582031 216.789062 93.746094 216.90625 93.878906 C 217.023438 94.019531 217.164062 94.125 217.332031 94.203125 C 217.503906 94.277344 217.695312 94.3125 217.90625 94.3125 C 218.058594 94.3125 218.191406 94.296875 218.308594 94.257812 C 218.429688 94.214844 218.542969 94.160156 218.644531 94.085938 C 218.746094 94.015625 218.832031 93.929688 218.90625 93.835938 C 218.984375 93.746094 219.050781 93.636719 219.113281 93.511719 L 219.535156 93.730469 C 219.46875 93.875 219.386719 94.007812 219.285156 94.128906 C 219.183594 94.253906 219.0625 94.363281 218.925781 94.453125 C 218.789062 94.539062 218.632812 94.609375 218.460938 94.660156 C 218.285156 94.707031 218.09375 94.734375 217.886719 94.734375 C 217.574219 94.734375 217.300781 94.6875 217.070312 94.59375 C 216.835938 94.496094 216.640625 94.355469 216.484375 94.183594 C 216.332031 94.003906 216.214844 93.792969 216.136719 93.554688 C 216.054688 93.3125 216.015625 93.042969 216.015625 92.753906 C 216.015625 92.460938 216.054688 92.191406 216.136719 91.953125 C 216.222656 91.710938 216.347656 91.503906 216.507812 91.335938 C 216.664062 91.171875 216.859375 91.042969 217.09375 90.949219 C 217.324219 90.855469 217.585938 90.808594 217.886719 90.808594 C 218.289062 90.808594 218.625 90.886719 218.894531 91.042969 C 219.167969 91.203125 219.371094 91.441406 219.503906 91.757812 L 219.015625 91.921875 C 218.976562 91.828125 218.925781 91.742188 218.863281 91.660156 C 218.800781 91.574219 218.726562 91.503906 218.632812 91.445312 C 218.539062 91.378906 218.429688 91.332031 218.308594 91.292969 C 218.183594 91.25 218.042969 91.230469 217.886719 91.230469 Z M 217.886719 91.230469 "/>
<path style=" stroke:none;fill-rule:nonzero;fill:rgb(0%,0%,0%);fill-opacity:1;" d="M 232.480469 116.28125 C 232.261719 116.28125 232.070312 116.320312 231.90625 116.390625 C 231.734375 116.464844 231.59375 116.570312 231.480469 116.703125 C 231.371094 116.835938 231.289062 116.992188 231.230469 117.179688 C 231.171875 117.371094 231.144531 117.578125 231.144531 117.808594 C 231.144531 118.039062 231.171875 118.25 231.230469 118.445312 C 231.296875 118.636719 231.386719 118.796875 231.503906 118.933594 C 231.617188 119.070312 231.757812 119.179688 231.925781 119.257812 C 232.101562 119.332031 232.289062 119.367188 232.5 119.367188 C 232.652344 119.367188 232.785156 119.351562 232.902344 119.3125 C 233.027344 119.269531 233.136719 119.210938 233.238281 119.140625 C 233.339844 119.070312 233.425781 118.984375 233.5 118.890625 C 233.578125 118.796875 233.648438 118.691406 233.707031 118.566406 L 234.128906 118.78125 C 234.066406 118.929688 233.980469 119.0625 233.878906 119.183594 C 233.777344 119.308594 233.65625 119.414062 233.523438 119.507812 C 233.382812 119.59375 233.230469 119.664062 233.054688 119.710938 C 232.882812 119.761719 232.6875 119.789062 232.480469 119.789062 C 232.167969 119.789062 231.894531 119.738281 231.664062 119.648438 C 231.433594 119.546875 231.238281 119.410156 231.078125 119.238281 C 230.925781 119.058594 230.8125 118.847656 230.730469 118.609375 C 230.652344 118.367188 230.613281 118.097656 230.613281 117.808594 C 230.613281 117.511719 230.652344 117.246094 230.730469 117.007812 C 230.820312 116.765625 230.941406 116.558594 231.101562 116.390625 C 231.257812 116.226562 231.453125 116.09375 231.6875 116 C 231.917969 115.910156 232.179688 115.859375 232.480469 115.859375 C 232.882812 115.859375 233.222656 115.941406 233.488281 116.097656 C 233.765625 116.257812 233.96875 116.496094 234.097656 116.8125 L 233.609375 116.976562 C 233.570312 116.882812 233.523438 116.796875 233.457031 116.714844 C 233.398438 116.628906 233.320312 116.558594 233.230469 116.5 C 233.132812 116.433594 233.027344 116.386719 232.902344 116.347656 C 232.777344 116.304688 232.636719 116.28125 232.480469 116.28125 Z M 232.480469 116.28125 "/>
<path style="fill:none;stroke-width:0.0333333;stroke-linecap:butt;stroke-linejoin:miter;stroke:rgb(0%,0%,0%);stroke-opacity:1;stroke-miterlimit:10;" d="M 2.509282 1.414332 L 1.648519 0.910811 " transform="matrix(17.371938,0,0,17.315574,17.088594,17.236595)"/>
<path style="fill:none;stroke-width:0.0333333;stroke-linecap:butt;stroke-linejoin:miter;stroke:rgb(0%,0%,0%);stroke-opacity:1;stroke-miterlimit:10;" d="M 1.664709 2.817738 L 0.800123 2.361817 " transform="matrix(17.371938,0,0,17.315574,17.088594,17.236595)"/>
<path style="fill:none;stroke-width:0.0333333;stroke-linecap:butt;stroke-linejoin:miter;stroke:rgb(0%,0%,0%);stroke-opacity:1;stroke-miterlimit:10;" d="M 1.664484 2.629143 L 0.966744 2.261203 " transform="matrix(17.371938,0,0,17.315574,17.088594,17.236595)"/>
<path style="fill:none;stroke-width:0.0333333;stroke-linecap:butt;stroke-linejoin:miter;stroke:rgb(0%,0%,0%);stroke-opacity:1;stroke-miterlimit:10;" d="M 1.665383 0.910811 L 0.808893 1.409594 " transform="matrix(17.371938,0,0,17.315574,17.088594,17.236595)"/>
<path style="fill:none;stroke-width:0.0333333;stroke-linecap:butt;stroke-linejoin:miter;stroke:rgb(0%,0%,0%);stroke-opacity:1;stroke-miterlimit:10;" d="M 1.665159 1.103692 L 0.975739 1.505245 " transform="matrix(17.371938,0,0,17.315574,17.088594,17.236595)"/>
<path style="fill:none;stroke-width:0.06;stroke-linecap:butt;stroke-linejoin:miter;stroke:rgb(0%,0%,47.058824%);stroke-opacity:1;stroke-miterlimit:10;" d="M 7.587965 2.637265 L 6.613198 2.637265 " transform="matrix(17.371938,0,0,17.315574,17.088594,17.236595)"/>
<path style="fill:none;stroke-width:0.06;stroke-linecap:butt;stroke-linejoin:miter;stroke:rgb(0%,0%,47.058824%);stroke-opacity:1;stroke-miterlimit:10;" d="M 7.566379 2.646288 L 8.260296 1.92823 " transform="matrix(17.371938,0,0,17.315574,17.088594,17.236595)"/>
<path style="fill:none;stroke-width:0.06;stroke-linecap:butt;stroke-linejoin:miter;stroke:rgb(0%,0%,47.058824%);stroke-opacity:1;stroke-miterlimit:10;" d="M 7.575148 2.637265 L 7.878484 3.6134 " transform="matrix(17.371938,0,0,17.315574,17.088594,17.236595)"/>
<path style="fill:none;stroke-width:0.06;stroke-linecap:butt;stroke-linejoin:miter;stroke:rgb(0%,0%,47.058824%);stroke-opacity:1;stroke-miterlimit:10;" d="M 7.763581 2.681932 L 8.008453 3.469924 " transform="matrix(17.371938,0,0,17.315574,17.088594,17.236595)"/>
<path style="fill:none;stroke-width:0.06;stroke-linecap:butt;stroke-linejoin:miter;stroke:rgb(0%,0%,47.058824%);stroke-opacity:1;stroke-miterlimit:10;" d="M 6.641305 2.617638 L 6.283778 3.587908 " transform="matrix(17.371938,0,0,17.315574,17.088594,17.236595)"/>
<path style="fill:none;stroke-width:0.06;stroke-linecap:butt;stroke-linejoin:miter;stroke:rgb(0%,0%,47.058824%);stroke-opacity:1;stroke-miterlimit:10;" d="M 6.63411 2.637265 L 5.973697 1.881758 " transform="matrix(17.371938,0,0,17.315574,17.088594,17.236595)"/>
<path style="fill:none;stroke-width:0.06;stroke-linecap:butt;stroke-linejoin:miter;stroke:rgb(0%,0%,47.058824%);stroke-opacity:1;stroke-miterlimit:10;" d="M 6.443429 2.672457 L 5.908487 2.060427 " transform="matrix(17.371938,0,0,17.315574,17.088594,17.236595)"/>
<path style="fill:none;stroke-width:0.06;stroke-linecap:butt;stroke-linejoin:miter;stroke:rgb(0%,0%,47.058824%);stroke-opacity:1;stroke-miterlimit:10;" d="M 8.247929 1.940863 L 9.220897 2.146603 " transform="matrix(17.371938,0,0,17.315574,17.088594,17.236595)"/>
<path style="fill:none;stroke-width:0.06;stroke-linecap:butt;stroke-linejoin:miter;stroke:rgb(0%,0%,47.058824%);stroke-opacity:1;stroke-miterlimit:10;" d="M 8.303919 2.122915 L 9.097898 2.290981 " transform="matrix(17.371938,0,0,17.315574,17.088594,17.236595)"/>
<path style="fill:none;stroke-width:0.06;stroke-linecap:butt;stroke-linejoin:miter;stroke:rgb(0%,0%,47.058824%);stroke-opacity:1;stroke-miterlimit:10;" d="M 8.253325 1.957782 L 7.963706 1.016614 " transform="matrix(17.371938,0,0,17.315574,17.088594,17.236595)"/>
<path style="fill:none;stroke-width:0.06;stroke-linecap:butt;stroke-linejoin:miter;stroke:rgb(0%,0%,47.058824%);stroke-opacity:1;stroke-miterlimit:10;" d="M 7.889052 3.606181 L 7.254048 4.041122 " transform="matrix(17.371938,0,0,17.315574,17.088594,17.236595)"/>
<path style="fill:none;stroke-width:0.06;stroke-linecap:butt;stroke-linejoin:miter;stroke:rgb(0%,0%,47.058824%);stroke-opacity:1;stroke-miterlimit:10;" d="M 7.866117 3.610918 L 8.888779 3.820944 " transform="matrix(17.371938,0,0,17.315574,17.088594,17.236595)"/>
<path style="fill:none;stroke-width:0.06;stroke-linecap:butt;stroke-linejoin:miter;stroke:rgb(0%,0%,47.058824%);stroke-opacity:1;stroke-miterlimit:10;" d="M 6.291648 3.566702 L 5.266738 3.736799 " transform="matrix(17.371938,0,0,17.315574,17.088594,17.236595)"/>
<path style="fill:none;stroke-width:0.06;stroke-linecap:butt;stroke-linejoin:miter;stroke:rgb(0%,0%,47.058824%);stroke-opacity:1;stroke-miterlimit:10;" d="M 6.168875 3.418263 L 5.336669 3.556325 " transform="matrix(17.371938,0,0,17.315574,17.088594,17.236595)"/>
<path style="fill:none;stroke-width:0.06;stroke-linecap:butt;stroke-linejoin:miter;stroke:rgb(0%,0%,47.058824%);stroke-opacity:1;stroke-miterlimit:10;" d="M 6.00068 1.891684 L 5.0068 2.044635 " transform="matrix(17.371938,0,0,17.315574,17.088594,17.236595)"/>
<path style="fill:none;stroke-width:0.06;stroke-linecap:butt;stroke-linejoin:miter;stroke:rgb(0%,0%,47.058824%);stroke-opacity:1;stroke-miterlimit:10;" d="M 9.199085 2.128104 L 9.489829 2.885415 " transform="matrix(17.371938,0,0,17.315574,17.088594,17.236595)"/>
<path style="fill:none;stroke-width:0.06;stroke-linecap:butt;stroke-linejoin:miter;stroke:rgb(0%,0%,47.058824%);stroke-opacity:1;stroke-miterlimit:10;" d="M 7.959209 1.042782 L 8.354737 0.491662 " transform="matrix(17.371938,0,0,17.315574,17.088594,17.236595)"/>
<path style="fill:none;stroke-width:0.06;stroke-linecap:butt;stroke-linejoin:miter;stroke:rgb(0%,0%,47.058824%);stroke-opacity:1;stroke-miterlimit:10;" d="M 5.295295 3.748078 L 4.657143 2.938655 " transform="matrix(17.371938,0,0,17.315574,17.088594,17.236595)"/>
<path style="fill:none;stroke-width:0.06;stroke-linecap:butt;stroke-linejoin:miter;stroke:rgb(0%,0%,47.058824%);stroke-opacity:1;stroke-miterlimit:10;" d="M 8.668866 0.238548 L 9.070016 0.0743171 " transform="matrix(17.371938,0,0,17.315574,17.088594,17.236595)"/>
<path style="fill:none;stroke-width:0.06;stroke-linecap:butt;stroke-linejoin:miter;stroke:rgb(0%,0%,47.058824%);stroke-opacity:1;stroke-miterlimit:10;" d="M 6.273435 3.553393 L 6.926652 4.03458 " transform="matrix(17.371938,0,0,17.315574,17.088594,17.236595)"/>
<path style="fill:none;stroke-width:0.06;stroke-linecap:butt;stroke-linejoin:miter;stroke:rgb(0%,0%,47.058824%);stroke-opacity:1;stroke-miterlimit:10;" d="M 8.882033 3.819591 L 9.421472 3.218389 " transform="matrix(17.371938,0,0,17.315574,17.088594,17.236595)"/>
<path style="fill:none;stroke-width:0.06;stroke-linecap:butt;stroke-linejoin:miter;stroke:rgb(0%,0%,47.058824%);stroke-opacity:1;stroke-miterlimit:10;" d="M 8.821996 3.637087 L 9.297349 3.107172 " transform="matrix(17.371938,0,0,17.315574,17.088594,17.236595)"/>
<path style="fill:none;stroke-width:0.06;stroke-linecap:butt;stroke-linejoin:miter;stroke:rgb(0%,0%,47.058824%);stroke-opacity:1;stroke-miterlimit:10;" d="M 5.02996 2.026362 L 4.661865 2.944295 " transform="matrix(17.371938,0,0,17.315574,17.088594,17.236595)"/>
<path style="fill:none;stroke-width:0.06;stroke-linecap:butt;stroke-linejoin:miter;stroke:rgb(0%,0%,47.058824%);stroke-opacity:1;stroke-miterlimit:10;" d="M 5.149361 2.176381 L 4.852546 2.916998 " transform="matrix(17.371938,0,0,17.315574,17.088594,17.236595)"/>
<path style="fill:none;stroke-width:0.0333333;stroke-linecap:butt;stroke-linejoin:miter;stroke:rgb(0%,0%,0%);stroke-opacity:1;stroke-miterlimit:10;" d="M 3.480676 2.870301 L 4.66951 2.944972 " transform="matrix(17.371938,0,0,17.315574,17.088594,17.236595)"/>
<path style="fill:none;stroke-width:0.0333333;stroke-linecap:butt;stroke-linejoin:miter;stroke:rgb(0%,0%,0%);stroke-opacity:1;stroke-miterlimit:10;" d="M 0.816988 1.414332 L 0.20312 1.039624 " transform="matrix(17.371938,0,0,17.315574,17.088594,17.236595)"/>
<path style="fill:none;stroke-width:0.0333333;stroke-linecap:butt;stroke-linejoin:miter;stroke:rgb(0%,0%,0%);stroke-opacity:1;stroke-miterlimit:10;" d="M 0.808893 2.376481 L 0.808893 1.40012 " transform="matrix(17.371938,0,0,17.315574,17.088594,17.236595)"/>
<path style="fill:none;stroke-width:0.0333333;stroke-linecap:butt;stroke-linejoin:miter;stroke:rgb(0%,0%,0%);stroke-opacity:1;stroke-miterlimit:10;" d="M 3.140464 2.751188 L 2.493092 2.361591 " transform="matrix(17.371938,0,0,17.315574,17.088594,17.236595)"/>
<path style="fill:none;stroke-width:0.0333333;stroke-linecap:butt;stroke-linejoin:miter;stroke:rgb(0%,0%,0%);stroke-opacity:1;stroke-miterlimit:10;" d="M 2.500962 2.366329 L 2.500962 1.40012 " transform="matrix(17.371938,0,0,17.315574,17.088594,17.236595)"/>
<path style="fill:none;stroke-width:0.0333333;stroke-linecap:butt;stroke-linejoin:miter;stroke:rgb(0%,0%,0%);stroke-opacity:1;stroke-miterlimit:10;" d="M 2.334341 2.266166 L 2.334341 1.495545 " transform="matrix(17.371938,0,0,17.315574,17.088594,17.236595)"/>
<path style="fill:none;stroke-width:0.0333333;stroke-linecap:butt;stroke-linejoin:miter;stroke:rgb(0%,0%,0%);stroke-opacity:1;stroke-miterlimit:10;" d="M 2.509507 2.361817 L 1.649194 2.817738 " transform="matrix(17.371938,0,0,17.315574,17.088594,17.236595)"/>
<path style="fill:none;stroke-width:0.0333333;stroke-linecap:butt;stroke-linejoin:miter;stroke:rgb(0%,0%,0%);stroke-opacity:1;stroke-miterlimit:10;" d="M 9.903796 5.324964 L 10.561061 5.703958 " transform="matrix(17.371938,0,0,17.315574,17.088594,17.236595)"/>
<path style="fill:none;stroke-width:0.0333333;stroke-linecap:butt;stroke-linejoin:miter;stroke:rgb(0%,0%,0%);stroke-opacity:1;stroke-miterlimit:10;" d="M 9.991042 5.375046 L 9.984296 4.679095 " transform="matrix(17.371938,0,0,17.315574,17.088594,17.236595)"/>
<path style="fill:none;stroke-width:0.0333333;stroke-linecap:butt;stroke-linejoin:miter;stroke:rgb(0%,0%,0%);stroke-opacity:1;stroke-miterlimit:10;" d="M 9.822622 5.202468 L 9.81745 4.680674 " transform="matrix(17.371938,0,0,17.315574,17.088594,17.236595)"/>
<path style="fill:none;stroke-width:0.0333333;stroke-linecap:butt;stroke-linejoin:miter;stroke:rgb(0%,0%,0%);stroke-opacity:1;stroke-miterlimit:10;" d="M 10.925109 5.7008 L 11.552468 5.326769 " transform="matrix(17.371938,0,0,17.315574,17.088594,17.236595)"/>
<path style="fill:none;stroke-width:0.0333333;stroke-linecap:butt;stroke-linejoin:miter;stroke:rgb(0%,0%,0%);stroke-opacity:1;stroke-miterlimit:10;" d="M 11.552468 5.326769 L 11.552468 4.519151 " transform="matrix(17.371938,0,0,17.315574,17.088594,17.236595)"/>
<path style="fill:none;stroke-width:0.0333333;stroke-linecap:butt;stroke-linejoin:miter;stroke:rgb(0%,0%,0%);stroke-opacity:1;stroke-miterlimit:10;" d="M 11.552468 5.326769 L 12.216254 5.707793 " transform="matrix(17.371938,0,0,17.315574,17.088594,17.236595)"/>
<path style="fill:none;stroke-width:0.0333333;stroke-linecap:butt;stroke-linejoin:miter;stroke:rgb(0%,0%,0%);stroke-opacity:1;stroke-miterlimit:10;" d="M 8.878435 3.813951 L 9.909193 5.329927 " transform="matrix(17.371938,0,0,17.315574,17.088594,17.236595)"/>
</g>
</svg>
