<?xml version="1.0" encoding="UTF-8"?>
<svg xmlns="http://www.w3.org/2000/svg" xmlns:xlink="http://www.w3.org/1999/xlink" width="80pt" height="92.8pt" viewBox="0 0 80 92.8" version="1.1">
<g id="surface1702">
<path style=" stroke:none;fill-rule:nonzero;fill:rgb(0%,0%,0%);fill-opacity:1;" d="M 18.089844 19.648438 L 16.039062 16.414062 C 16.046875 16.5 16.050781 16.585938 16.050781 16.671875 C 16.054688 16.742188 16.0625 16.820312 16.0625 16.910156 C 16.066406 16.988281 16.074219 17.058594 16.074219 17.125 L 16.074219 19.648438 L 15.605469 19.648438 L 15.605469 15.851562 L 16.214844 15.851562 L 18.273438 19.109375 C 18.273438 19.109375 18.269531 19.019531 18.265625 18.839844 C 18.257812 18.769531 18.25 18.6875 18.242188 18.601562 C 18.242188 18.511719 18.242188 18.425781 18.242188 18.34375 L 18.242188 15.851562 L 18.710938 15.851562 L 18.710938 19.648438 Z M 18.089844 19.648438 "/>
<path style=" stroke:none;fill-rule:nonzero;fill:rgb(0%,0%,0%);fill-opacity:1;" d="M 17.183594 54.167969 L 16.195312 52.59375 L 15 52.59375 L 15 54.167969 L 14.480469 54.167969 L 14.480469 50.371094 L 16.28125 50.371094 C 16.5 50.371094 16.6875 50.398438 16.855469 50.445312 C 17.023438 50.488281 17.164062 50.558594 17.28125 50.648438 C 17.394531 50.746094 17.480469 50.859375 17.539062 50.996094 C 17.597656 51.132812 17.625 51.285156 17.625 51.449219 C 17.625 51.574219 17.609375 51.695312 17.574219 51.816406 C 17.535156 51.929688 17.476562 52.039062 17.398438 52.140625 C 17.324219 52.234375 17.230469 52.316406 17.117188 52.386719 C 17 52.453125 16.859375 52.5 16.695312 52.527344 L 17.777344 54.167969 Z M 17.105469 51.460938 C 17.105469 51.347656 17.085938 51.242188 17.039062 51.15625 C 17.003906 51.070312 16.945312 51.003906 16.867188 50.953125 C 16.792969 50.894531 16.703125 50.851562 16.597656 50.824219 C 16.488281 50.796875 16.363281 50.78125 16.226562 50.78125 L 15 50.78125 L 15 52.183594 L 16.25 52.183594 C 16.402344 52.183594 16.53125 52.164062 16.640625 52.128906 C 16.75 52.09375 16.835938 52.042969 16.898438 51.976562 C 16.96875 51.914062 17.023438 51.835938 17.050781 51.75 C 17.085938 51.660156 17.105469 51.5625 17.105469 51.460938 Z M 17.105469 51.460938 "/>
<path style=" stroke:none;fill-rule:nonzero;fill:rgb(0%,0%,0%);fill-opacity:1;" d="M 18.625 54.167969 L 18.625 53.757812 L 19.601562 53.757812 L 19.601562 50.832031 L 18.734375 51.4375 L 18.734375 50.984375 L 19.644531 50.371094 L 20.089844 50.371094 L 20.089844 53.757812 L 21.023438 53.757812 L 21.023438 54.167969 Z M 18.625 54.167969 "/>
<path style="fill:none;stroke-width:0.0333333;stroke-linecap:butt;stroke-linejoin:miter;stroke:rgb(0%,0%,0%);stroke-opacity:1;stroke-miterlimit:10;" d="M 0.874238 0.504994 L 0.891788 1.523992 " transform="matrix(17.361111,0,0,17.261905,17.158199,17.239869)"/>
<path style="fill:none;stroke-width:0.0333333;stroke-linecap:butt;stroke-linejoin:miter;stroke:rgb(0%,0%,0%);stroke-opacity:1;stroke-miterlimit:10;" d="M 0.874238 0.514725 L 1.740038 -0.00507042 " transform="matrix(17.361111,0,0,17.261905,17.158199,17.239869)"/>
<path style="fill:none;stroke-width:0.0333333;stroke-linecap:butt;stroke-linejoin:miter;stroke:rgb(0%,0%,0%);stroke-opacity:1;stroke-miterlimit:10;" d="M 1.042538 0.607958 L 1.743188 0.187505 " transform="matrix(17.361111,0,0,17.261905,17.158199,17.239869)"/>
<path style="fill:none;stroke-width:0.0333333;stroke-linecap:butt;stroke-linejoin:miter;stroke:rgb(0%,0%,0%);stroke-opacity:1;stroke-miterlimit:10;" d="M 0.891563 1.514488 L 1.774238 2.004186 " transform="matrix(17.361111,0,0,17.261905,17.158199,17.239869)"/>
<path style="fill:none;stroke-width:0.0333333;stroke-linecap:butt;stroke-linejoin:miter;stroke:rgb(0%,0%,0%);stroke-opacity:1;stroke-miterlimit:10;" d="M 1.056488 1.415598 L 1.771088 1.811837 " transform="matrix(17.361111,0,0,17.261905,17.158199,17.239869)"/>
<path style="fill:none;stroke-width:0.0333333;stroke-linecap:butt;stroke-linejoin:miter;stroke:rgb(0%,0%,0%);stroke-opacity:1;stroke-miterlimit:10;" d="M 1.757813 2.004639 L 2.631713 1.480091 " transform="matrix(17.361111,0,0,17.261905,17.158199,17.239869)"/>
<path style="fill:none;stroke-width:0.0333333;stroke-linecap:butt;stroke-linejoin:miter;stroke:rgb(0%,0%,0%);stroke-opacity:1;stroke-miterlimit:10;" d="M 2.623613 1.494574 L 2.606063 0.475576 " transform="matrix(17.361111,0,0,17.261905,17.158199,17.239869)"/>
<path style="fill:none;stroke-width:0.0333333;stroke-linecap:butt;stroke-linejoin:miter;stroke:rgb(0%,0%,0%);stroke-opacity:1;stroke-miterlimit:10;" d="M 2.455313 1.401115 L 2.441138 0.574466 " transform="matrix(17.361111,0,0,17.261905,17.158199,17.239869)"/>
<path style="fill:none;stroke-width:0.0333333;stroke-linecap:butt;stroke-linejoin:miter;stroke:rgb(0%,0%,0%);stroke-opacity:1;stroke-miterlimit:10;" d="M 2.614613 0.489606 L 1.723388 -0.00461784 " transform="matrix(17.361111,0,0,17.261905,17.158199,17.239869)"/>
<path style="fill:none;stroke-width:0.0333333;stroke-linecap:butt;stroke-linejoin:miter;stroke:rgb(0%,0%,0%);stroke-opacity:1;stroke-miterlimit:10;" d="M 0.882788 0.519477 L 0.166613 0.12188 " transform="matrix(17.361111,0,0,17.261905,17.158199,17.239869)"/>
<path style="fill:none;stroke-width:0.0333333;stroke-linecap:butt;stroke-linejoin:miter;stroke:rgb(0%,0%,0%);stroke-opacity:1;stroke-miterlimit:10;" d="M 0.272138 1.886287 L 0.899888 1.509509 " transform="matrix(17.361111,0,0,17.261905,17.158199,17.239869)"/>
<path style=" stroke:none;fill-rule:nonzero;fill:rgb(0%,0%,0%);fill-opacity:1;" d="M 19.859375 73.328125 L 18.871094 71.753906 L 17.679688 71.753906 L 17.679688 73.328125 L 17.15625 73.328125 L 17.15625 69.53125 L 18.957031 69.53125 C 19.175781 69.53125 19.367188 69.558594 19.535156 69.605469 C 19.699219 69.648438 19.839844 69.71875 19.957031 69.8125 C 20.070312 69.90625 20.15625 70.019531 20.21875 70.15625 C 20.273438 70.292969 20.304688 70.445312 20.304688 70.609375 C 20.304688 70.734375 20.285156 70.855469 20.25 70.976562 C 20.210938 71.09375 20.15625 71.199219 20.078125 71.300781 C 20.003906 71.394531 19.910156 71.476562 19.792969 71.546875 C 19.679688 71.613281 19.535156 71.660156 19.371094 71.6875 L 20.457031 73.328125 Z M 19.785156 70.621094 C 19.785156 70.507812 19.761719 70.40625 19.71875 70.316406 C 19.679688 70.230469 19.625 70.164062 19.542969 70.113281 C 19.472656 70.054688 19.382812 70.011719 19.273438 69.984375 C 19.164062 69.957031 19.039062 69.941406 18.90625 69.941406 L 17.679688 69.941406 L 17.679688 71.34375 L 18.925781 71.34375 C 19.078125 71.34375 19.207031 71.328125 19.316406 71.289062 C 19.425781 71.253906 19.511719 71.203125 19.578125 71.136719 C 19.648438 71.074219 19.699219 70.996094 19.730469 70.910156 C 19.765625 70.820312 19.785156 70.722656 19.785156 70.621094 Z M 19.785156 70.621094 "/>
<path style=" stroke:none;fill-rule:nonzero;fill:rgb(0%,0%,0%);fill-opacity:1;" d="M 21.300781 73.328125 L 21.300781 72.917969 L 22.277344 72.917969 L 22.277344 69.996094 L 21.410156 70.597656 L 21.410156 70.144531 L 22.320312 69.53125 L 22.765625 69.53125 L 22.765625 72.917969 L 23.699219 72.917969 L 23.699219 73.328125 Z M 21.300781 73.328125 "/>
<path style=" stroke:none;fill-rule:nonzero;fill:rgb(0%,0%,0%);fill-opacity:1;" d="M 24.367188 71.019531 L 24.367188 70.621094 L 27.066406 70.621094 L 27.066406 71.019531 Z M 24.367188 72.398438 L 24.367188 72 L 27.066406 72 L 27.066406 72.398438 Z M 24.367188 72.398438 "/>
<path style=" stroke:none;fill-rule:nonzero;fill:rgb(0%,0%,0%);fill-opacity:1;" d="M 17.15625 75.628906 L 17.15625 75.421875 L 18.320312 74.925781 L 17.15625 74.429688 L 17.15625 74.226562 L 18.503906 74.789062 L 18.503906 75.066406 Z M 17.15625 75.628906 "/>
<path style=" stroke:none;fill-rule:nonzero;fill:rgb(0%,0%,0%);fill-opacity:1;" d="M 20.140625 74.882812 C 20.140625 75.066406 20.121094 75.21875 20.085938 75.347656 C 20.058594 75.472656 20.011719 75.570312 19.945312 75.648438 C 19.886719 75.722656 19.816406 75.777344 19.738281 75.8125 C 19.65625 75.847656 19.570312 75.867188 19.480469 75.867188 C 19.382812 75.867188 19.296875 75.847656 19.21875 75.8125 C 19.136719 75.777344 19.066406 75.722656 19 75.648438 C 18.941406 75.570312 18.894531 75.472656 18.859375 75.347656 C 18.832031 75.21875 18.816406 75.066406 18.816406 74.882812 C 18.816406 74.691406 18.832031 74.535156 18.859375 74.410156 C 18.894531 74.28125 18.941406 74.179688 19 74.109375 C 19.066406 74.039062 19.136719 73.984375 19.21875 73.957031 C 19.296875 73.921875 19.386719 73.902344 19.488281 73.902344 C 19.578125 73.902344 19.65625 73.921875 19.738281 73.957031 C 19.816406 73.984375 19.886719 74.039062 19.945312 74.109375 C 20.011719 74.179688 20.058594 74.28125 20.085938 74.410156 C 20.121094 74.535156 20.140625 74.691406 20.140625 74.882812 Z M 19.902344 74.882812 C 19.902344 74.734375 19.890625 74.609375 19.871094 74.507812 C 19.851562 74.40625 19.828125 74.328125 19.792969 74.269531 C 19.753906 74.203125 19.710938 74.160156 19.664062 74.140625 C 19.613281 74.113281 19.554688 74.097656 19.488281 74.097656 C 19.417969 74.097656 19.355469 74.113281 19.304688 74.140625 C 19.253906 74.160156 19.210938 74.203125 19.175781 74.269531 C 19.136719 74.328125 19.109375 74.40625 19.089844 74.507812 C 19.070312 74.609375 19.066406 74.734375 19.066406 74.882812 C 19.066406 75.03125 19.070312 75.152344 19.089844 75.25 C 19.109375 75.355469 19.136719 75.433594 19.175781 75.5 C 19.210938 75.558594 19.253906 75.601562 19.304688 75.628906 C 19.355469 75.648438 19.414062 75.660156 19.480469 75.660156 C 19.542969 75.660156 19.601562 75.648438 19.652344 75.628906 C 19.703125 75.601562 19.746094 75.558594 19.78125 75.5 C 19.816406 75.433594 19.847656 75.355469 19.871094 75.25 C 19.890625 75.152344 19.902344 75.03125 19.902344 74.882812 Z M 19.902344 74.882812 "/>
<path style=" stroke:none;fill-rule:nonzero;fill:rgb(0%,0%,0%);fill-opacity:1;" d="M 50.304688 72.390625 C 50.304688 72.6875 50.261719 72.957031 50.175781 73.199219 C 50.089844 73.445312 49.960938 73.652344 49.796875 73.824219 C 49.636719 73.996094 49.4375 74.132812 49.199219 74.222656 C 48.964844 74.316406 48.703125 74.363281 48.40625 74.363281 C 48.085938 74.363281 47.8125 74.316406 47.570312 74.222656 C 47.339844 74.125 47.144531 73.984375 46.984375 73.8125 C 46.828125 73.636719 46.707031 73.425781 46.628906 73.1875 C 46.546875 72.945312 46.507812 72.679688 46.507812 72.390625 C 46.507812 72.09375 46.546875 71.828125 46.628906 71.589844 C 46.714844 71.347656 46.835938 71.144531 46.996094 70.976562 C 47.164062 70.8125 47.359375 70.683594 47.59375 70.585938 C 47.832031 70.496094 48.105469 70.449219 48.40625 70.449219 C 48.710938 70.449219 48.984375 70.496094 49.222656 70.585938 C 49.460938 70.683594 49.65625 70.8125 49.816406 70.988281 C 49.976562 71.152344 50.09375 71.355469 50.175781 71.589844 C 50.261719 71.828125 50.304688 72.09375 50.304688 72.390625 Z M 49.773438 72.390625 C 49.773438 72.160156 49.746094 71.953125 49.6875 71.765625 C 49.628906 71.578125 49.542969 71.417969 49.425781 71.289062 C 49.3125 71.152344 49.167969 71.050781 48.992188 70.976562 C 48.824219 70.90625 48.628906 70.867188 48.40625 70.867188 C 48.183594 70.867188 47.984375 70.90625 47.8125 70.976562 C 47.636719 71.050781 47.492188 71.152344 47.375 71.289062 C 47.269531 71.417969 47.183594 71.578125 47.128906 71.765625 C 47.066406 71.953125 47.039062 72.160156 47.039062 72.390625 C 47.039062 72.621094 47.066406 72.832031 47.128906 73.027344 C 47.183594 73.214844 47.269531 73.375 47.386719 73.511719 C 47.5 73.648438 47.644531 73.757812 47.8125 73.835938 C 47.984375 73.90625 48.183594 73.941406 48.40625 73.941406 C 48.644531 73.941406 48.851562 73.90625 49.027344 73.835938 C 49.199219 73.757812 49.339844 73.648438 49.449219 73.511719 C 49.558594 73.367188 49.636719 73.203125 49.6875 73.015625 C 49.746094 72.820312 49.773438 72.613281 49.773438 72.390625 Z M 49.773438 72.390625 "/>
<path style=" stroke:none;fill-rule:nonzero;fill:rgb(0%,0%,0%);fill-opacity:1;" d="M 48.566406 67.050781 L 49.28125 66.78125 L 49.402344 67.136719 L 48.640625 67.328125 L 49.140625 68 L 48.816406 68.191406 L 48.414062 67.503906 L 47.988281 68.191406 L 47.664062 68 L 48.175781 67.328125 L 47.414062 67.136719 L 47.546875 66.769531 L 48.261719 67.058594 L 48.230469 66.261719 L 48.597656 66.261719 Z M 48.566406 67.050781 "/>
</g>
</svg>
