<?xml version="1.0" encoding="UTF-8"?>
<svg xmlns="http://www.w3.org/2000/svg" xmlns:xlink="http://www.w3.org/1999/xlink" width="155.2pt" height="129.6pt" viewBox="0 0 155.2 129.6" version="1.1">
<g id="surface1512">
<path style=" stroke:none;fill-rule:nonzero;fill:rgb(0%,0%,47.058824%);fill-opacity:1;" d="M 78.230469 19.039062 L 76.558594 16.105469 C 76.570312 16.1875 76.582031 16.265625 76.589844 16.34375 C 76.597656 16.410156 76.601562 16.484375 76.601562 16.5625 C 76.605469 16.640625 76.613281 16.71875 76.613281 16.789062 L 76.613281 19.039062 L 75.894531 19.039062 L 75.894531 15.230469 L 76.820312 15.230469 L 78.503906 18.183594 C 78.496094 18.113281 78.488281 18.03125 78.480469 17.945312 C 78.472656 17.875 78.464844 17.792969 78.460938 17.707031 C 78.460938 17.621094 78.460938 17.53125 78.460938 17.4375 L 78.460938 15.230469 L 79.164062 15.230469 L 79.164062 19.039062 Z M 78.230469 19.039062 "/>
<path style=" stroke:none;fill-rule:nonzero;fill:rgb(0%,0%,0%);fill-opacity:1;" d="M 17.417969 32.902344 C 17.203125 32.902344 17.007812 32.9375 16.84375 33.007812 C 16.675781 33.082031 16.535156 33.1875 16.417969 33.324219 C 16.3125 33.453125 16.226562 33.613281 16.167969 33.796875 C 16.109375 33.988281 16.082031 34.195312 16.082031 34.425781 C 16.082031 34.660156 16.109375 34.871094 16.167969 35.0625 C 16.234375 35.253906 16.324219 35.414062 16.441406 35.550781 C 16.554688 35.6875 16.695312 35.796875 16.863281 35.875 C 17.039062 35.949219 17.230469 35.984375 17.441406 35.984375 C 17.59375 35.984375 17.726562 35.96875 17.84375 35.929688 C 17.964844 35.886719 18.074219 35.828125 18.179688 35.757812 C 18.28125 35.6875 18.367188 35.601562 18.441406 35.507812 C 18.519531 35.414062 18.585938 35.308594 18.648438 35.183594 L 19.070312 35.398438 C 19.003906 35.546875 18.921875 35.679688 18.820312 35.800781 C 18.71875 35.925781 18.597656 36.03125 18.460938 36.125 C 18.324219 36.210938 18.167969 36.28125 17.996094 36.328125 C 17.820312 36.378906 17.628906 36.40625 17.417969 36.40625 C 17.105469 36.40625 16.835938 36.355469 16.605469 36.265625 C 16.371094 36.164062 16.175781 36.027344 16.015625 35.855469 C 15.863281 35.675781 15.75 35.464844 15.667969 35.226562 C 15.589844 34.984375 15.550781 34.714844 15.550781 34.425781 C 15.550781 34.132812 15.589844 33.863281 15.667969 33.625 C 15.757812 33.382812 15.878906 33.175781 16.039062 33.007812 C 16.195312 32.84375 16.390625 32.714844 16.625 32.621094 C 16.855469 32.527344 17.121094 32.480469 17.417969 32.480469 C 17.824219 32.480469 18.160156 32.558594 18.429688 32.71875 C 18.703125 32.875 18.90625 33.113281 19.039062 33.429688 L 18.546875 33.59375 C 18.511719 33.5 18.460938 33.414062 18.398438 33.332031 C 18.335938 33.246094 18.261719 33.175781 18.167969 33.117188 C 18.074219 33.050781 17.964844 33.003906 17.84375 32.964844 C 17.71875 32.921875 17.578125 32.902344 17.417969 32.902344 Z M 17.417969 32.902344 "/>
<path style=" stroke:none;fill-rule:nonzero;fill:rgb(0%,0%,0%);fill-opacity:1;" d="M 32.472656 93.476562 C 32.257812 93.476562 32.0625 93.515625 31.898438 93.585938 C 31.730469 93.660156 31.589844 93.765625 31.476562 93.898438 C 31.367188 94.03125 31.28125 94.1875 31.226562 94.375 C 31.164062 94.566406 31.136719 94.773438 31.136719 95.003906 C 31.136719 95.234375 31.164062 95.445312 31.226562 95.640625 C 31.289062 95.832031 31.378906 95.992188 31.496094 96.128906 C 31.609375 96.265625 31.753906 96.375 31.921875 96.453125 C 32.09375 96.527344 32.285156 96.5625 32.496094 96.5625 C 32.648438 96.5625 32.78125 96.542969 32.898438 96.507812 C 33.019531 96.464844 33.132812 96.40625 33.234375 96.332031 C 33.335938 96.261719 33.421875 96.179688 33.496094 96.085938 C 33.574219 95.992188 33.640625 95.882812 33.703125 95.761719 L 34.125 95.976562 C 34.0625 96.121094 33.976562 96.253906 33.875 96.375 C 33.773438 96.5 33.652344 96.609375 33.519531 96.703125 C 33.378906 96.789062 33.222656 96.859375 33.050781 96.90625 C 32.875 96.957031 32.683594 96.984375 32.472656 96.984375 C 32.164062 96.984375 31.890625 96.933594 31.660156 96.84375 C 31.425781 96.742188 31.230469 96.605469 31.074219 96.429688 C 30.921875 96.253906 30.804688 96.042969 30.726562 95.804688 C 30.644531 95.558594 30.605469 95.292969 30.605469 95.003906 C 30.605469 94.707031 30.644531 94.441406 30.726562 94.203125 C 30.8125 93.960938 30.933594 93.753906 31.09375 93.585938 C 31.253906 93.421875 31.449219 93.292969 31.679688 93.195312 C 31.914062 93.105469 32.175781 93.054688 32.472656 93.054688 C 32.878906 93.054688 33.214844 93.136719 33.484375 93.292969 C 33.757812 93.453125 33.964844 93.691406 34.09375 94.007812 L 33.605469 94.171875 C 33.566406 94.078125 33.519531 93.992188 33.453125 93.910156 C 33.394531 93.824219 33.316406 93.753906 33.222656 93.695312 C 33.128906 93.628906 33.019531 93.582031 32.898438 93.542969 C 32.773438 93.5 32.632812 93.476562 32.472656 93.476562 Z M 32.472656 93.476562 "/>
<path style=" stroke:none;fill-rule:nonzero;fill:rgb(0%,0%,0%);fill-opacity:1;" d="M 92.691406 110.785156 C 92.476562 110.785156 92.28125 110.824219 92.117188 110.894531 C 91.949219 110.964844 91.808594 111.070312 91.691406 111.207031 C 91.582031 111.335938 91.5 111.496094 91.441406 111.683594 C 91.382812 111.871094 91.355469 112.082031 91.355469 112.3125 C 91.355469 112.542969 91.382812 112.753906 91.441406 112.949219 C 91.507812 113.136719 91.597656 113.300781 91.714844 113.4375 C 91.828125 113.574219 91.96875 113.683594 92.136719 113.761719 C 92.3125 113.832031 92.503906 113.867188 92.714844 113.867188 C 92.867188 113.867188 93 113.851562 93.117188 113.8125 C 93.238281 113.769531 93.347656 113.714844 93.453125 113.640625 C 93.554688 113.570312 93.640625 113.488281 93.714844 113.390625 C 93.792969 113.300781 93.859375 113.191406 93.917969 113.066406 L 94.34375 113.285156 C 94.277344 113.429688 94.195312 113.5625 94.09375 113.683594 C 93.992188 113.808594 93.871094 113.917969 93.734375 114.007812 C 93.597656 114.09375 93.441406 114.164062 93.269531 114.214844 C 93.09375 114.261719 92.902344 114.289062 92.691406 114.289062 C 92.378906 114.289062 92.109375 114.242188 91.878906 114.148438 C 91.644531 114.050781 91.449219 113.910156 91.289062 113.738281 C 91.136719 113.558594 91.023438 113.347656 90.941406 113.109375 C 90.863281 112.867188 90.824219 112.601562 90.824219 112.3125 C 90.824219 112.015625 90.863281 111.75 90.941406 111.511719 C 91.03125 111.265625 91.152344 111.0625 91.3125 110.894531 C 91.46875 110.730469 91.664062 110.597656 91.898438 110.503906 C 92.128906 110.414062 92.394531 110.363281 92.691406 110.363281 C 93.097656 110.363281 93.433594 110.445312 93.703125 110.601562 C 93.976562 110.761719 94.179688 111 94.3125 111.316406 L 93.820312 111.476562 C 93.785156 111.386719 93.734375 111.300781 93.671875 111.21875 C 93.609375 111.132812 93.535156 111.0625 93.441406 111 C 93.347656 110.9375 93.238281 110.886719 93.117188 110.851562 C 92.992188 110.808594 92.851562 110.785156 92.691406 110.785156 Z M 92.691406 110.785156 "/>
<path style=" stroke:none;fill-rule:nonzero;fill:rgb(0%,0%,0%);fill-opacity:1;" d="M 137.855469 67.515625 C 137.640625 67.515625 137.445312 67.554688 137.28125 67.625 C 137.113281 67.699219 136.972656 67.804688 136.855469 67.9375 C 136.75 68.066406 136.664062 68.226562 136.605469 68.414062 C 136.546875 68.601562 136.519531 68.8125 136.519531 69.042969 C 136.519531 69.273438 136.546875 69.484375 136.605469 69.679688 C 136.671875 69.867188 136.761719 70.03125 136.878906 70.167969 C 136.992188 70.304688 137.132812 70.414062 137.300781 70.492188 C 137.476562 70.5625 137.667969 70.597656 137.878906 70.597656 C 138.03125 70.597656 138.164062 70.582031 138.28125 70.546875 C 138.402344 70.5 138.515625 70.445312 138.617188 70.371094 C 138.71875 70.300781 138.804688 70.21875 138.878906 70.125 C 138.957031 70.03125 139.023438 69.921875 139.085938 69.796875 L 139.507812 70.015625 C 139.441406 70.160156 139.359375 70.292969 139.257812 70.414062 C 139.15625 70.539062 139.035156 70.648438 138.898438 70.738281 C 138.761719 70.828125 138.605469 70.898438 138.433594 70.945312 C 138.257812 70.992188 138.066406 71.019531 137.855469 71.019531 C 137.542969 71.019531 137.273438 70.972656 137.042969 70.878906 C 136.808594 70.78125 136.613281 70.640625 136.457031 70.46875 C 136.304688 70.289062 136.1875 70.078125 136.109375 69.84375 C 136.027344 69.597656 135.988281 69.332031 135.988281 69.042969 C 135.988281 68.746094 136.027344 68.480469 136.109375 68.242188 C 136.195312 67.996094 136.316406 67.792969 136.476562 67.625 C 136.632812 67.460938 136.828125 67.328125 137.0625 67.234375 C 137.292969 67.144531 137.558594 67.09375 137.855469 67.09375 C 138.261719 67.09375 138.597656 67.175781 138.867188 67.332031 C 139.140625 67.492188 139.34375 67.730469 139.476562 68.046875 L 138.988281 68.207031 C 138.949219 68.117188 138.898438 68.03125 138.835938 67.949219 C 138.773438 67.863281 138.699219 67.792969 138.605469 67.734375 C 138.511719 67.667969 138.402344 67.617188 138.28125 67.582031 C 138.15625 67.539062 138.015625 67.515625 137.855469 67.515625 Z M 137.855469 67.515625 "/>
<path style=" stroke:none;fill-rule:nonzero;fill:rgb(0%,0%,0%);fill-opacity:1;" d="M 137.855469 32.902344 C 137.640625 32.902344 137.445312 32.9375 137.28125 33.007812 C 137.113281 33.082031 136.972656 33.1875 136.855469 33.324219 C 136.75 33.453125 136.664062 33.613281 136.605469 33.796875 C 136.546875 33.988281 136.519531 34.195312 136.519531 34.425781 C 136.519531 34.660156 136.546875 34.871094 136.605469 35.0625 C 136.671875 35.253906 136.761719 35.414062 136.878906 35.550781 C 136.992188 35.6875 137.132812 35.796875 137.300781 35.875 C 137.476562 35.949219 137.667969 35.984375 137.878906 35.984375 C 138.03125 35.984375 138.164062 35.96875 138.28125 35.929688 C 138.402344 35.886719 138.515625 35.828125 138.617188 35.757812 C 138.71875 35.6875 138.804688 35.601562 138.878906 35.507812 C 138.957031 35.414062 139.023438 35.308594 139.085938 35.183594 L 139.507812 35.398438 C 139.441406 35.546875 139.359375 35.679688 139.257812 35.800781 C 139.15625 35.925781 139.035156 36.03125 138.898438 36.125 C 138.761719 36.210938 138.605469 36.28125 138.433594 36.328125 C 138.257812 36.378906 138.066406 36.40625 137.855469 36.40625 C 137.542969 36.40625 137.273438 36.355469 137.042969 36.265625 C 136.808594 36.164062 136.613281 36.027344 136.457031 35.855469 C 136.304688 35.675781 136.1875 35.464844 136.109375 35.226562 C 136.027344 34.984375 135.988281 34.714844 135.988281 34.425781 C 135.988281 34.132812 136.027344 33.863281 136.109375 33.625 C 136.195312 33.382812 136.316406 33.175781 136.476562 33.007812 C 136.632812 32.84375 136.828125 32.714844 137.0625 32.621094 C 137.292969 32.527344 137.558594 32.480469 137.855469 32.480469 C 138.261719 32.480469 138.597656 32.558594 138.867188 32.71875 C 139.140625 32.875 139.34375 33.113281 139.476562 33.429688 L 138.988281 33.59375 C 138.949219 33.5 138.898438 33.414062 138.835938 33.332031 C 138.773438 33.246094 138.699219 33.175781 138.605469 33.117188 C 138.511719 33.050781 138.402344 33.003906 138.28125 32.964844 C 138.15625 32.921875 138.015625 32.902344 137.855469 32.902344 Z M 137.855469 32.902344 "/>
<path style="fill:none;stroke-width:0.06;stroke-linecap:butt;stroke-linejoin:miter;stroke:rgb(0%,0%,47.058824%);stroke-opacity:1;stroke-miterlimit:10;" d="M 3.464141 0.999952 L 4.330174 1.500091 " transform="matrix(17.383513,0,0,17.307692,17.312308,17.134541)"/>
<path style="fill:none;stroke-width:0.06;stroke-linecap:butt;stroke-linejoin:miter;stroke:rgb(0%,0%,47.058824%);stroke-opacity:1;stroke-miterlimit:10;" d="M 3.464141 0.999952 L 2.598109 1.500091 " transform="matrix(17.383513,0,0,17.307692,17.312308,17.134541)"/>
<path style="fill:none;stroke-width:0.06;stroke-linecap:butt;stroke-linejoin:miter;stroke:rgb(0%,0%,47.058824%);stroke-opacity:1;stroke-miterlimit:10;" d="M 3.464141 0.999952 L 3.464141 0.153372 " transform="matrix(17.383513,0,0,17.307692,17.312308,17.134541)"/>
<path style="fill:none;stroke-width:0.06;stroke-linecap:butt;stroke-linejoin:miter;stroke:rgb(0%,0%,47.058824%);stroke-opacity:1;stroke-miterlimit:10;" d="M 4.330174 1.500091 L 4.330174 2.499917 " transform="matrix(17.383513,0,0,17.307692,17.312308,17.134541)"/>
<path style="fill:none;stroke-width:0.06;stroke-linecap:butt;stroke-linejoin:miter;stroke:rgb(0%,0%,47.058824%);stroke-opacity:1;stroke-miterlimit:10;" d="M 2.598109 1.500091 L 2.598109 2.499917 " transform="matrix(17.383513,0,0,17.307692,17.312308,17.134541)"/>
<path style="fill:none;stroke-width:0.06;stroke-linecap:butt;stroke-linejoin:miter;stroke:rgb(0%,0%,47.058824%);stroke-opacity:1;stroke-miterlimit:10;" d="M 4.330174 2.499917 L 3.464141 3.000056 " transform="matrix(17.383513,0,0,17.307692,17.312308,17.134541)"/>
<path style="fill:none;stroke-width:0.06;stroke-linecap:butt;stroke-linejoin:miter;stroke:rgb(0%,0%,47.058824%);stroke-opacity:1;stroke-miterlimit:10;" d="M 2.598109 2.499917 L 3.464141 3.000056 " transform="matrix(17.383513,0,0,17.307692,17.312308,17.134541)"/>
<path style="fill:none;stroke-width:0.0333333;stroke-linecap:butt;stroke-linejoin:miter;stroke:rgb(0%,0%,0%);stroke-opacity:1;stroke-miterlimit:10;" d="M 2.598109 1.500091 L 1.723762 0.995213 " transform="matrix(17.383513,0,0,17.307692,17.312308,17.134541)"/>
<path style="fill:none;stroke-width:0.0333333;stroke-linecap:butt;stroke-linejoin:miter;stroke:rgb(0%,0%,0%);stroke-opacity:1;stroke-miterlimit:10;" d="M 2.598109 2.499917 L 1.732076 3.000056 " transform="matrix(17.383513,0,0,17.307692,17.312308,17.134541)"/>
<path style="fill:none;stroke-width:0.0333333;stroke-linecap:butt;stroke-linejoin:miter;stroke:rgb(0%,0%,0%);stroke-opacity:1;stroke-miterlimit:10;" d="M 3.464141 3.000056 L 3.464141 4.000108 " transform="matrix(17.383513,0,0,17.307692,17.312308,17.134541)"/>
<path style="fill:none;stroke-width:0.0333333;stroke-linecap:butt;stroke-linejoin:miter;stroke:rgb(0%,0%,0%);stroke-opacity:1;stroke-miterlimit:10;" d="M 4.330174 2.499917 L 5.196206 3.000056 " transform="matrix(17.383513,0,0,17.307692,17.312308,17.134541)"/>
<path style="fill:none;stroke-width:0.0333333;stroke-linecap:butt;stroke-linejoin:miter;stroke:rgb(0%,0%,0%);stroke-opacity:1;stroke-miterlimit:10;" d="M 4.330174 1.500091 L 5.204521 0.995213 " transform="matrix(17.383513,0,0,17.307692,17.312308,17.134541)"/>
<path style="fill:none;stroke-width:0.0333333;stroke-linecap:butt;stroke-linejoin:miter;stroke:rgb(0%,0%,0%);stroke-opacity:1;stroke-miterlimit:10;" d="M 1.74039 0.995213 L 0.866044 1.500091 " transform="matrix(17.383513,0,0,17.307692,17.312308,17.134541)"/>
<path style="fill:none;stroke-width:0.0333333;stroke-linecap:butt;stroke-linejoin:miter;stroke:rgb(0%,0%,0%);stroke-opacity:1;stroke-miterlimit:10;" d="M 0.866044 1.500091 L 0.176184 1.10174 " transform="matrix(17.383513,0,0,17.307692,17.312308,17.134541)"/>
<path style="fill:none;stroke-width:0.0333333;stroke-linecap:butt;stroke-linejoin:miter;stroke:rgb(0%,0%,0%);stroke-opacity:1;stroke-miterlimit:10;" d="M 0.866044 1.500091 L 0.866044 2.509622 " transform="matrix(17.383513,0,0,17.307692,17.312308,17.134541)"/>
<path style="fill:none;stroke-width:0.0333333;stroke-linecap:butt;stroke-linejoin:miter;stroke:rgb(0%,0%,0%);stroke-opacity:1;stroke-miterlimit:10;" d="M 0.857729 2.495178 L 1.732076 3.000056 " transform="matrix(17.383513,0,0,17.307692,17.312308,17.134541)"/>
<path style="fill:none;stroke-width:0.0333333;stroke-linecap:butt;stroke-linejoin:miter;stroke:rgb(0%,0%,0%);stroke-opacity:1;stroke-miterlimit:10;" d="M 1.732076 3.000056 L 1.732076 4.000108 " transform="matrix(17.383513,0,0,17.307692,17.312308,17.134541)"/>
<path style="fill:none;stroke-width:0.0333333;stroke-linecap:butt;stroke-linejoin:miter;stroke:rgb(0%,0%,0%);stroke-opacity:1;stroke-miterlimit:10;" d="M 1.732076 4.000108 L 1.042441 4.398233 " transform="matrix(17.383513,0,0,17.307692,17.312308,17.134541)"/>
<path style="fill:none;stroke-width:0.0333333;stroke-linecap:butt;stroke-linejoin:miter;stroke:rgb(0%,0%,0%);stroke-opacity:1;stroke-miterlimit:10;" d="M 1.732076 4.000108 L 2.606423 4.504761 " transform="matrix(17.383513,0,0,17.307692,17.312308,17.134541)"/>
<path style="fill:none;stroke-width:0.0333333;stroke-linecap:butt;stroke-linejoin:miter;stroke:rgb(0%,0%,0%);stroke-opacity:1;stroke-miterlimit:10;" d="M 2.589794 4.504761 L 3.464141 4.000108 " transform="matrix(17.383513,0,0,17.307692,17.312308,17.134541)"/>
<path style="fill:none;stroke-width:0.0333333;stroke-linecap:butt;stroke-linejoin:miter;stroke:rgb(0%,0%,0%);stroke-opacity:1;stroke-miterlimit:10;" d="M 3.464141 4.000108 L 4.330174 4.500022 " transform="matrix(17.383513,0,0,17.307692,17.312308,17.134541)"/>
<path style="fill:none;stroke-width:0.0333333;stroke-linecap:butt;stroke-linejoin:miter;stroke:rgb(0%,0%,0%);stroke-opacity:1;stroke-miterlimit:10;" d="M 4.330174 4.500022 L 4.330174 5.343216 " transform="matrix(17.383513,0,0,17.307692,17.312308,17.134541)"/>
<path style="fill:none;stroke-width:0.0333333;stroke-linecap:butt;stroke-linejoin:miter;stroke:rgb(0%,0%,0%);stroke-opacity:1;stroke-miterlimit:10;" d="M 4.330174 4.500022 L 5.204521 3.995143 " transform="matrix(17.383513,0,0,17.307692,17.312308,17.134541)"/>
<path style="fill:none;stroke-width:0.0333333;stroke-linecap:butt;stroke-linejoin:miter;stroke:rgb(0%,0%,0%);stroke-opacity:1;stroke-miterlimit:10;" d="M 5.196206 4.009588 L 5.196206 3.000056 " transform="matrix(17.383513,0,0,17.307692,17.312308,17.134541)"/>
<path style="fill:none;stroke-width:0.0333333;stroke-linecap:butt;stroke-linejoin:miter;stroke:rgb(0%,0%,0%);stroke-opacity:1;stroke-miterlimit:10;" d="M 5.196206 3.000056 L 6.062239 2.499917 " transform="matrix(17.383513,0,0,17.307692,17.312308,17.134541)"/>
<path style="fill:none;stroke-width:0.0333333;stroke-linecap:butt;stroke-linejoin:miter;stroke:rgb(0%,0%,0%);stroke-opacity:1;stroke-miterlimit:10;" d="M 6.062239 2.499917 L 6.751874 2.898042 " transform="matrix(17.383513,0,0,17.307692,17.312308,17.134541)"/>
<path style="fill:none;stroke-width:0.0333333;stroke-linecap:butt;stroke-linejoin:miter;stroke:rgb(0%,0%,0%);stroke-opacity:1;stroke-miterlimit:10;" d="M 6.062239 2.499917 L 6.062239 1.500091 " transform="matrix(17.383513,0,0,17.307692,17.312308,17.134541)"/>
<path style="fill:none;stroke-width:0.0333333;stroke-linecap:butt;stroke-linejoin:miter;stroke:rgb(0%,0%,0%);stroke-opacity:1;stroke-miterlimit:10;" d="M 6.062239 1.500091 L 5.187892 0.995213 " transform="matrix(17.383513,0,0,17.307692,17.312308,17.134541)"/>
<path style="fill:none;stroke-width:0.0333333;stroke-linecap:butt;stroke-linejoin:miter;stroke:rgb(0%,0%,0%);stroke-opacity:1;stroke-miterlimit:10;" d="M 6.062239 1.500091 L 6.751874 1.101966 " transform="matrix(17.383513,0,0,17.307692,17.312308,17.134541)"/>
</g>
</svg>
