<?xml version="1.0" encoding="UTF-8"?>
<svg xmlns="http://www.w3.org/2000/svg" xmlns:xlink="http://www.w3.org/1999/xlink" width="98.4pt" height="203.2pt" viewBox="0 0 98.4 203.2" version="1.1">
<g id="surface1442">
<path style=" stroke:none;fill-rule:nonzero;fill:rgb(0%,0%,0%);fill-opacity:1;" d="M 79.339844 33.410156 L 77.296875 30.160156 C 77.304688 30.246094 77.308594 30.332031 77.308594 30.417969 C 77.316406 30.492188 77.320312 30.570312 77.320312 30.65625 C 77.324219 30.738281 77.332031 30.808594 77.332031 30.875 L 77.332031 33.410156 L 76.867188 33.410156 L 76.867188 29.59375 L 77.472656 29.59375 L 79.523438 32.871094 C 79.523438 32.871094 79.515625 32.78125 79.511719 32.597656 C 79.503906 32.527344 79.496094 32.445312 79.492188 32.359375 C 79.492188 32.269531 79.492188 32.179688 79.492188 32.101562 L 79.492188 29.59375 L 79.953125 29.59375 L 79.953125 33.410156 Z M 79.339844 33.410156 "/>
<path style=" stroke:none;fill-rule:nonzero;fill:rgb(0%,0%,0%);fill-opacity:1;" d="M 36.03125 50.476562 L 35.046875 48.894531 L 33.859375 48.894531 L 33.859375 50.476562 L 33.339844 50.476562 L 33.339844 46.660156 L 35.132812 46.660156 C 35.347656 46.660156 35.539062 46.6875 35.707031 46.734375 C 35.871094 46.777344 36.011719 46.851562 36.125 46.941406 C 36.242188 47.035156 36.328125 47.152344 36.386719 47.289062 C 36.441406 47.425781 36.472656 47.578125 36.472656 47.746094 C 36.472656 47.867188 36.453125 47.992188 36.417969 48.113281 C 36.378906 48.230469 36.324219 48.339844 36.246094 48.4375 C 36.171875 48.53125 36.078125 48.617188 35.964844 48.6875 C 35.847656 48.753906 35.707031 48.800781 35.542969 48.828125 L 36.625 50.476562 Z M 35.953125 47.753906 C 35.953125 47.640625 35.933594 47.539062 35.890625 47.453125 C 35.851562 47.363281 35.796875 47.296875 35.714844 47.246094 C 35.644531 47.1875 35.554688 47.144531 35.445312 47.117188 C 35.339844 47.089844 35.214844 47.070312 35.078125 47.070312 L 33.859375 47.070312 L 33.859375 48.480469 L 35.101562 48.480469 C 35.253906 48.480469 35.382812 48.464844 35.488281 48.425781 C 35.597656 48.390625 35.683594 48.339844 35.75 48.277344 C 35.820312 48.210938 35.871094 48.132812 35.898438 48.046875 C 35.933594 47.957031 35.953125 47.859375 35.953125 47.753906 Z M 35.953125 47.753906 "/>
<path style=" stroke:none;fill-rule:nonzero;fill:rgb(0%,0%,0%);fill-opacity:1;" d="M 37.464844 50.476562 L 37.464844 50.066406 L 38.4375 50.066406 L 38.4375 47.125 L 37.574219 47.734375 L 37.574219 47.277344 L 38.480469 46.660156 L 38.921875 46.660156 L 38.921875 50.066406 L 39.851562 50.066406 L 39.851562 50.476562 Z M 37.464844 50.476562 "/>
<path style=" stroke:none;fill-rule:nonzero;fill:rgb(0%,0%,0%);fill-opacity:1;" d="M 48.070312 19.140625 L 47.089844 17.554688 L 45.902344 17.554688 L 45.902344 19.140625 L 45.382812 19.140625 L 45.382812 15.320312 L 47.175781 15.320312 C 47.390625 15.320312 47.578125 15.347656 47.746094 15.398438 C 47.910156 15.441406 48.050781 15.511719 48.167969 15.605469 C 48.28125 15.699219 48.367188 15.816406 48.425781 15.949219 C 48.484375 16.089844 48.515625 16.242188 48.515625 16.40625 C 48.515625 16.53125 48.496094 16.652344 48.460938 16.773438 C 48.421875 16.890625 48.367188 17 48.289062 17.101562 C 48.214844 17.195312 48.121094 17.277344 48.007812 17.351562 C 47.890625 17.414062 47.75 17.464844 47.585938 17.492188 L 48.664062 19.140625 Z M 47.996094 16.417969 C 47.996094 16.304688 47.972656 16.199219 47.929688 16.113281 C 47.894531 16.027344 47.835938 15.960938 47.757812 15.90625 C 47.683594 15.851562 47.597656 15.808594 47.488281 15.777344 C 47.378906 15.75 47.257812 15.734375 47.121094 15.734375 L 45.902344 15.734375 L 45.902344 17.144531 L 47.144531 17.144531 C 47.292969 17.144531 47.421875 17.128906 47.53125 17.089844 C 47.640625 17.054688 47.726562 17.003906 47.789062 16.9375 C 47.859375 16.871094 47.910156 16.796875 47.941406 16.710938 C 47.976562 16.617188 47.996094 16.519531 47.996094 16.417969 Z M 47.996094 16.417969 "/>
<path style=" stroke:none;fill-rule:nonzero;fill:rgb(0%,0%,0%);fill-opacity:1;" d="M 49.367188 19.140625 L 49.367188 18.792969 C 49.457031 18.582031 49.570312 18.398438 49.699219 18.238281 C 49.832031 18.074219 49.964844 17.925781 50.109375 17.792969 C 50.261719 17.664062 50.40625 17.542969 50.554688 17.4375 C 50.695312 17.324219 50.828125 17.207031 50.941406 17.101562 C 51.054688 16.988281 51.148438 16.867188 51.210938 16.742188 C 51.28125 16.621094 51.320312 16.480469 51.320312 16.320312 C 51.320312 16.210938 51.300781 16.117188 51.265625 16.039062 C 51.238281 15.960938 51.191406 15.890625 51.125 15.832031 C 51.066406 15.773438 50.996094 15.730469 50.910156 15.703125 C 50.828125 15.675781 50.738281 15.65625 50.628906 15.65625 C 50.535156 15.65625 50.445312 15.675781 50.359375 15.703125 C 50.273438 15.730469 50.191406 15.773438 50.121094 15.832031 C 50.058594 15.882812 50.003906 15.949219 49.960938 16.027344 C 49.921875 16.109375 49.898438 16.199219 49.882812 16.308594 L 49.386719 16.265625 C 49.402344 16.128906 49.4375 16 49.496094 15.875 C 49.558594 15.753906 49.640625 15.648438 49.742188 15.558594 C 49.851562 15.46875 49.976562 15.394531 50.121094 15.34375 C 50.265625 15.285156 50.433594 15.257812 50.628906 15.257812 C 50.816406 15.257812 50.980469 15.285156 51.125 15.332031 C 51.277344 15.375 51.402344 15.441406 51.503906 15.527344 C 51.613281 15.613281 51.691406 15.722656 51.742188 15.851562 C 51.796875 15.984375 51.828125 16.136719 51.828125 16.308594 C 51.828125 16.4375 51.800781 16.5625 51.753906 16.675781 C 51.707031 16.792969 51.648438 16.90625 51.570312 17.011719 C 51.496094 17.117188 51.410156 17.21875 51.308594 17.316406 C 51.207031 17.410156 51.097656 17.507812 50.984375 17.597656 C 50.878906 17.6875 50.765625 17.777344 50.652344 17.871094 C 50.542969 17.964844 50.4375 18.058594 50.335938 18.152344 C 50.242188 18.238281 50.15625 18.332031 50.078125 18.421875 C 49.996094 18.519531 49.9375 18.617188 49.894531 18.726562 L 51.882812 18.726562 L 51.882812 19.140625 Z M 49.367188 19.140625 "/>
<path style=" stroke:none;fill-rule:nonzero;fill:rgb(0%,0%,0%);fill-opacity:1;" d="M 79.621094 66.042969 L 78.640625 64.460938 L 77.453125 64.460938 L 77.453125 66.042969 L 76.933594 66.042969 L 76.933594 62.226562 L 78.726562 62.226562 C 78.941406 62.226562 79.132812 62.253906 79.300781 62.300781 C 79.464844 62.34375 79.605469 62.414062 79.71875 62.507812 C 79.832031 62.601562 79.917969 62.71875 79.980469 62.855469 C 80.035156 62.992188 80.066406 63.144531 80.066406 63.308594 C 80.066406 63.433594 80.046875 63.558594 80.011719 63.679688 C 79.972656 63.796875 79.917969 63.902344 79.839844 64.003906 C 79.765625 64.097656 79.671875 64.183594 79.558594 64.253906 C 79.441406 64.320312 79.300781 64.367188 79.136719 64.394531 L 80.214844 66.042969 Z M 79.546875 63.320312 C 79.546875 63.207031 79.527344 63.105469 79.484375 63.015625 C 79.445312 62.929688 79.386719 62.863281 79.308594 62.8125 C 79.238281 62.753906 79.148438 62.710938 79.039062 62.679688 C 78.933594 62.652344 78.808594 62.636719 78.671875 62.636719 L 77.453125 62.636719 L 77.453125 64.046875 L 78.695312 64.046875 C 78.84375 64.046875 78.976562 64.03125 79.082031 63.992188 C 79.191406 63.957031 79.277344 63.90625 79.34375 63.839844 C 79.414062 63.777344 79.464844 63.699219 79.492188 63.613281 C 79.527344 63.523438 79.546875 63.425781 79.546875 63.320312 Z M 79.546875 63.320312 "/>
<path style=" stroke:none;fill-rule:nonzero;fill:rgb(0%,0%,0%);fill-opacity:1;" d="M 83.464844 64.992188 C 83.464844 65.164062 83.4375 65.320312 83.378906 65.457031 C 83.328125 65.59375 83.246094 65.710938 83.132812 65.804688 C 83.023438 65.898438 82.886719 65.972656 82.730469 66.019531 C 82.570312 66.070312 82.390625 66.097656 82.179688 66.097656 C 81.941406 66.097656 81.742188 66.066406 81.578125 66.011719 C 81.417969 65.953125 81.285156 65.878906 81.175781 65.78125 C 81.074219 65.683594 81 65.570312 80.949219 65.445312 C 80.898438 65.324219 80.867188 65.195312 80.851562 65.054688 L 81.347656 65.011719 C 81.363281 65.117188 81.386719 65.207031 81.425781 65.292969 C 81.46875 65.375 81.523438 65.445312 81.585938 65.511719 C 81.652344 65.570312 81.730469 65.617188 81.824219 65.652344 C 81.925781 65.683594 82.042969 65.695312 82.179688 65.695312 C 82.421875 65.695312 82.617188 65.636719 82.753906 65.511719 C 82.894531 65.390625 82.96875 65.207031 82.96875 64.96875 C 82.96875 64.832031 82.9375 64.71875 82.871094 64.632812 C 82.808594 64.546875 82.726562 64.480469 82.632812 64.4375 C 82.546875 64.390625 82.445312 64.355469 82.332031 64.339844 C 82.222656 64.320312 82.125 64.308594 82.039062 64.308594 L 81.757812 64.308594 L 81.757812 63.886719 L 82.03125 63.886719 C 82.117188 63.886719 82.207031 63.878906 82.308594 63.863281 C 82.410156 63.839844 82.5 63.804688 82.582031 63.753906 C 82.667969 63.707031 82.734375 63.640625 82.785156 63.558594 C 82.835938 63.472656 82.859375 63.363281 82.859375 63.222656 C 82.859375 63.023438 82.800781 62.863281 82.675781 62.746094 C 82.5625 62.625 82.386719 62.5625 82.148438 62.5625 C 81.9375 62.5625 81.765625 62.621094 81.628906 62.734375 C 81.5 62.84375 81.425781 63 81.402344 63.203125 L 80.917969 63.160156 C 80.929688 62.992188 80.972656 62.847656 81.046875 62.726562 C 81.117188 62.59375 81.210938 62.492188 81.316406 62.410156 C 81.429688 62.332031 81.558594 62.269531 81.707031 62.226562 C 81.847656 62.183594 82 62.160156 82.160156 62.160156 C 82.367188 62.160156 82.546875 62.191406 82.699219 62.246094 C 82.855469 62.300781 82.984375 62.371094 83.078125 62.464844 C 83.175781 62.550781 83.25 62.65625 83.292969 62.777344 C 83.339844 62.902344 83.367188 63.035156 83.367188 63.179688 C 83.367188 63.289062 83.351562 63.394531 83.316406 63.496094 C 83.285156 63.589844 83.238281 63.675781 83.175781 63.753906 C 83.109375 63.835938 83.027344 63.902344 82.925781 63.960938 C 82.824219 64.011719 82.703125 64.054688 82.570312 64.082031 L 82.570312 64.089844 C 82.71875 64.105469 82.851562 64.140625 82.96875 64.199219 C 83.082031 64.25 83.175781 64.316406 83.25 64.394531 C 83.320312 64.476562 83.375 64.566406 83.410156 64.664062 C 83.445312 64.769531 83.464844 64.878906 83.464844 64.992188 Z M 83.464844 64.992188 "/>
<path style=" stroke:none;fill-rule:nonzero;fill:rgb(0%,0%,0%);fill-opacity:1;" d="M 16.566406 52.316406 L 15.585938 50.734375 L 14.398438 50.734375 L 14.398438 52.316406 L 13.878906 52.316406 L 13.878906 48.5 L 15.671875 48.5 C 15.886719 48.5 16.078125 48.527344 16.246094 48.578125 C 16.410156 48.621094 16.550781 48.691406 16.664062 48.78125 C 16.777344 48.878906 16.863281 48.992188 16.925781 49.128906 C 16.980469 49.269531 17.011719 49.417969 17.011719 49.585938 C 17.011719 49.710938 16.992188 49.832031 16.957031 49.953125 C 16.917969 50.070312 16.863281 50.179688 16.785156 50.277344 C 16.710938 50.375 16.617188 50.457031 16.503906 50.527344 C 16.386719 50.59375 16.246094 50.640625 16.082031 50.667969 L 17.160156 52.316406 Z M 16.492188 49.597656 C 16.492188 49.480469 16.472656 49.378906 16.425781 49.292969 C 16.390625 49.207031 16.332031 49.136719 16.253906 49.085938 C 16.183594 49.027344 16.09375 48.984375 15.984375 48.957031 C 15.878906 48.929688 15.753906 48.914062 15.617188 48.914062 L 14.398438 48.914062 L 14.398438 50.324219 L 15.640625 50.324219 C 15.789062 50.324219 15.921875 50.304688 16.027344 50.269531 C 16.136719 50.234375 16.222656 50.179688 16.289062 50.117188 C 16.359375 50.050781 16.410156 49.976562 16.4375 49.886719 C 16.472656 49.796875 16.492188 49.699219 16.492188 49.597656 Z M 16.492188 49.597656 "/>
<path style=" stroke:none;fill-rule:nonzero;fill:rgb(0%,0%,0%);fill-opacity:1;" d="M 19.957031 51.449219 L 19.957031 52.316406 L 19.503906 52.316406 L 19.503906 51.449219 L 17.710938 51.449219 L 17.710938 51.070312 L 19.449219 48.5 L 19.957031 48.5 L 19.957031 51.070312 L 20.496094 51.070312 L 20.496094 51.449219 Z M 19.503906 49.042969 C 19.496094 49.058594 19.484375 49.082031 19.472656 49.109375 C 19.457031 49.128906 19.4375 49.160156 19.417969 49.195312 C 19.402344 49.222656 19.386719 49.257812 19.363281 49.292969 C 19.347656 49.320312 19.332031 49.347656 19.320312 49.367188 L 18.347656 50.808594 C 18.339844 50.828125 18.328125 50.847656 18.304688 50.875 C 18.289062 50.898438 18.273438 50.917969 18.25 50.941406 C 18.234375 50.960938 18.21875 50.988281 18.199219 51.015625 C 18.179688 51.039062 18.167969 51.058594 18.15625 51.070312 L 19.503906 51.070312 Z M 19.503906 49.042969 "/>
<path style="fill:none;stroke-width:0.0333333;stroke-linecap:butt;stroke-linejoin:miter;stroke:rgb(0%,0%,0%);stroke-opacity:1;stroke-miterlimit:10;" d="M 2.709971 1.376535 L 2.704997 2.372363 " transform="matrix(17.275281,0,0,17.349727,17.188388,17.199526)"/>
<path style="fill:none;stroke-width:0.0333333;stroke-linecap:butt;stroke-linejoin:miter;stroke:rgb(0%,0%,0%);stroke-opacity:1;stroke-miterlimit:10;" d="M 2.709971 1.376535 L 1.79849 1.00279 " transform="matrix(17.275281,0,0,17.349727,17.188388,17.199526)"/>
<path style="fill:none;stroke-width:0.0333333;stroke-linecap:butt;stroke-linejoin:miter;stroke:rgb(0%,0%,0%);stroke-opacity:1;stroke-miterlimit:10;" d="M 2.709971 1.376535 L 3.381089 0.932319 " transform="matrix(17.275281,0,0,17.349727,17.188388,17.199526)"/>
<path style="fill:none;stroke-width:0.0333333;stroke-linecap:butt;stroke-linejoin:miter;stroke:rgb(0%,0%,0%);stroke-opacity:1;stroke-miterlimit:10;" d="M 2.704997 2.372363 L 1.78628 2.597736 " transform="matrix(17.275281,0,0,17.349727,17.188388,17.199526)"/>
<path style="fill:none;stroke-width:0.0333333;stroke-linecap:butt;stroke-linejoin:miter;stroke:rgb(0%,0%,0%);stroke-opacity:1;stroke-miterlimit:10;" d="M 1.79849 1.00279 L 0.914595 1.317771 " transform="matrix(17.275281,0,0,17.349727,17.188388,17.199526)"/>
<path style="fill:none;stroke-width:0.0333333;stroke-linecap:butt;stroke-linejoin:miter;stroke:rgb(0%,0%,0%);stroke-opacity:1;stroke-miterlimit:10;" d="M 1.796229 2.598186 L 0.935398 2.278251 " transform="matrix(17.275281,0,0,17.349727,17.188388,17.199526)"/>
<path style="fill:none;stroke-width:0.0333333;stroke-linecap:butt;stroke-linejoin:miter;stroke:rgb(0%,0%,0%);stroke-opacity:1;stroke-miterlimit:10;" d="M 0.925675 1.302011 L 0.935398 2.278251 " transform="matrix(17.275281,0,0,17.349727,17.188388,17.199526)"/>
<path style="fill:none;stroke-width:0.0333333;stroke-linecap:butt;stroke-linejoin:miter;stroke:rgb(0%,0%,0%);stroke-opacity:1;stroke-miterlimit:10;" d="M 1.294474 1.603934 L 1.79849 1.00279 " transform="matrix(17.275281,0,0,17.349727,17.188388,17.199526)"/>
<path style="fill:none;stroke-width:0.0333333;stroke-linecap:butt;stroke-linejoin:miter;stroke:rgb(0%,0%,0%);stroke-opacity:1;stroke-miterlimit:10;" d="M 1.377459 1.898877 L 2.704997 2.372363 " transform="matrix(17.275281,0,0,17.349727,17.188388,17.199526)"/>
<path style="fill:none;stroke-width:0.0333333;stroke-linecap:butt;stroke-linejoin:miter;stroke:rgb(0%,0%,0%);stroke-opacity:1;stroke-miterlimit:10;" d="M 1.047327 1.998618 L 0.935398 2.278251 " transform="matrix(17.275281,0,0,17.349727,17.188388,17.199526)"/>
<path style="fill:none;stroke-width:0.0333333;stroke-linecap:butt;stroke-linejoin:miter;stroke:rgb(0%,0%,0%);stroke-opacity:1;stroke-miterlimit:10;" d="M 1.816806 0.15736 L 1.79849 1.00279 " transform="matrix(17.275281,0,0,17.349727,17.188388,17.199526)"/>
<path style="fill:none;stroke-width:0.0333333;stroke-linecap:butt;stroke-linejoin:miter;stroke:rgb(0%,0%,0%);stroke-opacity:1;stroke-miterlimit:10;" d="M 3.391717 2.614847 L 2.704997 2.372363 " transform="matrix(17.275281,0,0,17.349727,17.188388,17.199526)"/>
<path style="fill:none;stroke-width:0.0333333;stroke-linecap:butt;stroke-linejoin:miter;stroke:rgb(0%,0%,0%);stroke-opacity:1;stroke-miterlimit:10;" d="M 0.255914 2.013703 L 0.935398 2.278251 " transform="matrix(17.275281,0,0,17.349727,17.188388,17.199526)"/>
<path style=" stroke:none;fill-rule:nonzero;fill:rgb(0%,0%,0%);fill-opacity:1;" d="M 19.878906 100.035156 L 18.894531 98.453125 L 17.707031 98.453125 L 17.707031 100.035156 L 17.1875 100.035156 L 17.1875 96.21875 L 18.980469 96.21875 C 19.195312 96.21875 19.386719 96.246094 19.554688 96.292969 C 19.71875 96.335938 19.859375 96.40625 19.972656 96.5 C 20.089844 96.59375 20.175781 96.710938 20.234375 96.847656 C 20.289062 96.984375 20.320312 97.136719 20.320312 97.300781 C 20.320312 97.425781 20.300781 97.550781 20.265625 97.671875 C 20.226562 97.789062 20.171875 97.894531 20.09375 97.996094 C 20.019531 98.089844 19.925781 98.175781 19.8125 98.246094 C 19.695312 98.3125 19.554688 98.359375 19.390625 98.386719 L 20.472656 100.035156 Z M 19.800781 97.3125 C 19.800781 97.199219 19.78125 97.097656 19.738281 97.007812 C 19.699219 96.921875 19.640625 96.855469 19.5625 96.804688 C 19.492188 96.746094 19.402344 96.703125 19.292969 96.671875 C 19.1875 96.644531 19.0625 96.628906 18.925781 96.628906 L 17.707031 96.628906 L 17.707031 98.039062 L 18.949219 98.039062 C 19.101562 98.039062 19.230469 98.023438 19.335938 97.984375 C 19.445312 97.949219 19.53125 97.898438 19.597656 97.832031 C 19.667969 97.769531 19.71875 97.691406 19.746094 97.605469 C 19.78125 97.511719 19.800781 97.414062 19.800781 97.3125 Z M 19.800781 97.3125 "/>
<path style=" stroke:none;fill-rule:nonzero;fill:rgb(0%,0%,0%);fill-opacity:1;" d="M 21.3125 100.035156 L 21.3125 99.621094 L 22.285156 99.621094 L 22.285156 96.683594 L 21.421875 97.292969 L 21.421875 96.835938 L 22.328125 96.21875 L 22.769531 96.21875 L 22.769531 99.621094 L 23.699219 99.621094 L 23.699219 100.035156 Z M 21.3125 100.035156 "/>
<path style=" stroke:none;fill-rule:nonzero;fill:rgb(0%,0%,0%);fill-opacity:1;" d="M 24.363281 97.714844 L 24.363281 97.3125 L 27.050781 97.3125 L 27.050781 97.714844 Z M 24.363281 99.101562 L 24.363281 98.699219 L 27.050781 98.699219 L 27.050781 99.101562 Z M 24.363281 99.101562 "/>
<path style=" stroke:none;fill-rule:nonzero;fill:rgb(0%,0%,0%);fill-opacity:1;" d="M 17.1875 102.351562 L 17.1875 102.144531 L 18.34375 101.644531 L 17.1875 101.144531 L 17.1875 100.941406 L 18.527344 101.503906 L 18.527344 101.785156 Z M 17.1875 102.351562 "/>
<path style=" stroke:none;fill-rule:nonzero;fill:rgb(0%,0%,0%);fill-opacity:1;" d="M 20.15625 101.601562 C 20.15625 101.785156 20.136719 101.9375 20.101562 102.066406 C 20.074219 102.191406 20.027344 102.292969 19.964844 102.371094 C 19.902344 102.445312 19.835938 102.5 19.757812 102.535156 C 19.675781 102.570312 19.589844 102.589844 19.5 102.589844 C 19.402344 102.589844 19.316406 102.570312 19.238281 102.535156 C 19.160156 102.5 19.089844 102.445312 19.023438 102.371094 C 18.964844 102.292969 18.917969 102.191406 18.882812 102.066406 C 18.855469 101.9375 18.839844 101.785156 18.839844 101.601562 C 18.839844 101.40625 18.855469 101.25 18.882812 101.125 C 18.917969 100.996094 18.964844 100.894531 19.023438 100.820312 C 19.089844 100.75 19.160156 100.699219 19.238281 100.667969 C 19.316406 100.632812 19.40625 100.613281 19.507812 100.613281 C 19.597656 100.613281 19.675781 100.632812 19.757812 100.667969 C 19.835938 100.699219 19.902344 100.75 19.964844 100.820312 C 20.027344 100.894531 20.074219 100.996094 20.101562 101.125 C 20.136719 101.25 20.15625 101.40625 20.15625 101.601562 Z M 19.917969 101.601562 C 19.917969 101.449219 19.910156 101.324219 19.886719 101.222656 C 19.871094 101.121094 19.847656 101.042969 19.8125 100.984375 C 19.773438 100.917969 19.730469 100.875 19.683594 100.851562 C 19.632812 100.828125 19.574219 100.808594 19.507812 100.808594 C 19.4375 100.808594 19.375 100.828125 19.324219 100.851562 C 19.273438 100.875 19.230469 100.917969 19.195312 100.984375 C 19.160156 101.042969 19.132812 101.121094 19.109375 101.222656 C 19.09375 101.324219 19.089844 101.449219 19.089844 101.601562 C 19.089844 101.746094 19.09375 101.871094 19.109375 101.96875 C 19.132812 102.074219 19.160156 102.15625 19.195312 102.21875 C 19.230469 102.28125 19.273438 102.324219 19.324219 102.351562 C 19.375 102.371094 19.433594 102.382812 19.5 102.382812 C 19.5625 102.382812 19.621094 102.371094 19.671875 102.351562 C 19.71875 102.324219 19.761719 102.28125 19.800781 102.21875 C 19.835938 102.15625 19.867188 102.074219 19.886719 101.96875 C 19.910156 101.871094 19.917969 101.746094 19.917969 101.601562 Z M 19.917969 101.601562 "/>
<path style=" stroke:none;fill-rule:nonzero;fill:rgb(0%,0%,0%);fill-opacity:1;" d="M 81.042969 104.152344 C 80.828125 104.152344 80.636719 104.191406 80.46875 104.261719 C 80.304688 104.335938 80.164062 104.441406 80.050781 104.574219 C 79.941406 104.707031 79.859375 104.867188 79.800781 105.050781 C 79.742188 105.242188 79.714844 105.449219 79.714844 105.679688 C 79.714844 105.914062 79.742188 106.125 79.800781 106.320312 C 79.867188 106.511719 79.953125 106.671875 80.070312 106.808594 C 80.183594 106.949219 80.324219 107.054688 80.492188 107.132812 C 80.664062 107.207031 80.855469 107.242188 81.0625 107.242188 C 81.214844 107.242188 81.347656 107.226562 81.464844 107.1875 C 81.585938 107.144531 81.695312 107.089844 81.796875 107.015625 C 81.898438 106.945312 81.984375 106.859375 82.058594 106.765625 C 82.136719 106.671875 82.203125 106.566406 82.261719 106.441406 L 82.683594 106.65625 C 82.617188 106.804688 82.535156 106.9375 82.433594 107.058594 C 82.332031 107.183594 82.214844 107.292969 82.078125 107.382812 C 81.941406 107.472656 81.789062 107.542969 81.613281 107.589844 C 81.441406 107.640625 81.25 107.664062 81.042969 107.664062 C 80.730469 107.664062 80.460938 107.617188 80.234375 107.523438 C 80 107.425781 79.804688 107.285156 79.648438 107.113281 C 79.5 106.933594 79.382812 106.722656 79.304688 106.484375 C 79.222656 106.238281 79.1875 105.972656 79.1875 105.679688 C 79.1875 105.386719 79.222656 105.117188 79.304688 104.878906 C 79.390625 104.636719 79.511719 104.429688 79.671875 104.261719 C 79.828125 104.09375 80.023438 103.964844 80.253906 103.871094 C 80.484375 103.777344 80.746094 103.730469 81.042969 103.730469 C 81.445312 103.730469 81.78125 103.8125 82.046875 103.96875 C 82.320312 104.128906 82.523438 104.367188 82.652344 104.683594 L 82.164062 104.847656 C 82.128906 104.753906 82.078125 104.667969 82.015625 104.585938 C 81.953125 104.5 81.878906 104.429688 81.789062 104.371094 C 81.691406 104.304688 81.585938 104.253906 81.464844 104.21875 C 81.339844 104.175781 81.199219 104.152344 81.042969 104.152344 Z M 81.042969 104.152344 "/>
<path style=" stroke:none;fill-rule:nonzero;fill:rgb(0%,0%,0%);fill-opacity:1;" d="M 85.417969 107.472656 L 86.128906 107.199219 L 86.25 107.558594 L 85.492188 107.753906 L 85.992188 108.425781 L 85.667969 108.621094 L 85.265625 107.925781 L 84.847656 108.621094 L 84.523438 108.425781 L 85.03125 107.753906 L 84.273438 107.558594 L 84.402344 107.1875 L 85.117188 107.480469 L 85.082031 106.679688 L 85.449219 106.679688 Z M 85.417969 107.472656 "/>
<path style=" stroke:none;fill-rule:nonzero;fill:rgb(0%,0%,0%);fill-opacity:1;" d="M 87.148438 107.871094 L 86.761719 107.871094 L 86.707031 106.679688 L 87.203125 106.679688 Z M 87.148438 107.871094 "/>
<path style=" stroke:none;fill-rule:nonzero;fill:rgb(0%,0%,0%);fill-opacity:1;" d="M 65.257812 79.933594 C 65.042969 79.933594 64.851562 79.972656 64.683594 80.042969 C 64.519531 80.113281 64.378906 80.222656 64.265625 80.355469 C 64.15625 80.488281 64.074219 80.644531 64.015625 80.832031 C 63.957031 81.023438 63.929688 81.230469 63.929688 81.460938 C 63.929688 81.695312 63.957031 81.90625 64.015625 82.101562 C 64.082031 82.292969 64.167969 82.453125 64.285156 82.589844 C 64.398438 82.726562 64.539062 82.835938 64.707031 82.914062 C 64.878906 82.988281 65.070312 83.023438 65.277344 83.023438 C 65.429688 83.023438 65.5625 83.007812 65.679688 82.96875 C 65.800781 82.925781 65.910156 82.871094 66.011719 82.796875 C 66.113281 82.726562 66.199219 82.640625 66.273438 82.546875 C 66.351562 82.453125 66.417969 82.347656 66.476562 82.222656 L 66.898438 82.4375 C 66.832031 82.585938 66.75 82.71875 66.648438 82.839844 C 66.546875 82.964844 66.429688 83.074219 66.292969 83.164062 C 66.15625 83.25 66.003906 83.320312 65.828125 83.371094 C 65.65625 83.417969 65.464844 83.445312 65.257812 83.445312 C 64.945312 83.445312 64.675781 83.398438 64.449219 83.304688 C 64.214844 83.207031 64.019531 83.066406 63.863281 82.894531 C 63.714844 82.714844 63.597656 82.503906 63.519531 82.265625 C 63.4375 82.019531 63.398438 81.753906 63.398438 81.460938 C 63.398438 81.167969 63.4375 80.898438 63.519531 80.660156 C 63.605469 80.414062 63.726562 80.210938 63.886719 80.042969 C 64.042969 79.875 64.238281 79.746094 64.46875 79.652344 C 64.699219 79.558594 64.960938 79.511719 65.257812 79.511719 C 65.660156 79.511719 65.996094 79.59375 66.261719 79.75 C 66.535156 79.910156 66.738281 80.148438 66.867188 80.464844 L 66.378906 80.628906 C 66.34375 80.535156 66.292969 80.449219 66.230469 80.367188 C 66.167969 80.28125 66.09375 80.210938 66.003906 80.148438 C 65.90625 80.085938 65.800781 80.035156 65.679688 80 C 65.554688 79.957031 65.414062 79.933594 65.257812 79.933594 Z M 65.257812 79.933594 "/>
<path style=" stroke:none;fill-rule:nonzero;fill:rgb(0%,0%,0%);fill-opacity:1;" d="M 65.269531 76.09375 L 65.984375 75.824219 L 66.101562 76.179688 L 65.347656 76.375 L 65.84375 77.050781 L 65.519531 77.246094 L 65.121094 76.550781 L 64.699219 77.246094 L 64.375 77.050781 L 64.882812 76.375 L 64.125 76.179688 L 64.257812 75.8125 L 64.96875 76.105469 L 64.9375 75.304688 L 65.304688 75.304688 Z M 65.269531 76.09375 "/>
<path style=" stroke:none;fill-rule:nonzero;fill:rgb(0%,0%,0%);fill-opacity:1;" d="M 48.390625 102.476562 C 48.171875 102.476562 47.980469 102.515625 47.816406 102.585938 C 47.648438 102.660156 47.507812 102.765625 47.394531 102.898438 C 47.289062 103.03125 47.203125 103.191406 47.148438 103.378906 C 47.089844 103.566406 47.0625 103.777344 47.0625 104.007812 C 47.0625 104.238281 47.089844 104.449219 47.148438 104.644531 C 47.210938 104.835938 47.300781 105 47.417969 105.132812 C 47.53125 105.273438 47.671875 105.378906 47.839844 105.460938 C 48.011719 105.53125 48.199219 105.566406 48.410156 105.566406 C 48.5625 105.566406 48.695312 105.550781 48.8125 105.511719 C 48.933594 105.46875 49.042969 105.414062 49.144531 105.339844 C 49.246094 105.269531 49.332031 105.183594 49.40625 105.089844 C 49.484375 105 49.550781 104.890625 49.609375 104.765625 L 50.03125 104.980469 C 49.964844 105.128906 49.882812 105.261719 49.78125 105.382812 C 49.679688 105.507812 49.5625 105.617188 49.425781 105.707031 C 49.289062 105.796875 49.132812 105.867188 48.960938 105.914062 C 48.789062 105.964844 48.597656 105.992188 48.390625 105.992188 C 48.078125 105.992188 47.808594 105.941406 47.578125 105.847656 C 47.347656 105.75 47.152344 105.609375 46.996094 105.4375 C 46.84375 105.257812 46.730469 105.046875 46.652344 104.808594 C 46.570312 104.566406 46.53125 104.296875 46.53125 104.007812 C 46.53125 103.710938 46.570312 103.441406 46.652344 103.203125 C 46.738281 102.960938 46.859375 102.753906 47.019531 102.585938 C 47.175781 102.421875 47.371094 102.289062 47.601562 102.195312 C 47.832031 102.101562 48.09375 102.054688 48.390625 102.054688 C 48.792969 102.054688 49.125 102.136719 49.394531 102.292969 C 49.667969 102.453125 49.867188 102.691406 50 103.007812 L 49.511719 103.171875 C 49.476562 103.078125 49.425781 102.992188 49.363281 102.910156 C 49.300781 102.824219 49.226562 102.753906 49.132812 102.695312 C 49.039062 102.628906 48.933594 102.582031 48.8125 102.542969 C 48.6875 102.5 48.546875 102.476562 48.390625 102.476562 Z M 48.390625 102.476562 "/>
<path style=" stroke:none;fill-rule:nonzero;fill:rgb(0%,0%,0%);fill-opacity:1;" d="M 42.417969 105.222656 L 43.128906 104.953125 L 43.246094 105.308594 L 42.492188 105.503906 L 42.988281 106.175781 L 42.664062 106.371094 L 42.265625 105.679688 L 41.84375 106.371094 L 41.519531 106.175781 L 42.027344 105.503906 L 41.273438 105.308594 L 41.402344 104.941406 L 42.113281 105.234375 L 42.082031 104.433594 L 42.449219 104.433594 Z M 42.417969 105.222656 "/>
<path style=" stroke:none;fill-rule:nonzero;fill:rgb(0%,0%,0%);fill-opacity:1;" d="M 44.148438 105.625 L 43.757812 105.625 L 43.707031 104.433594 L 44.203125 104.433594 Z M 44.148438 105.625 "/>
<path style=" stroke:none;fill-rule:nonzero;fill:rgb(0%,0%,0%);fill-opacity:1;" d="M 45.246094 105.625 L 44.859375 105.625 L 44.804688 104.433594 L 45.300781 104.433594 Z M 45.246094 105.625 "/>
<path style=" stroke:none;fill-rule:nonzero;fill:rgb(0%,0%,0%);fill-opacity:1;" d="M 65.34375 118.648438 L 65.34375 116.878906 L 63.292969 116.878906 L 63.292969 118.648438 L 62.773438 118.648438 L 62.773438 114.832031 L 63.292969 114.832031 L 63.292969 116.445312 L 65.34375 116.445312 L 65.34375 114.832031 L 65.863281 114.832031 L 65.863281 118.648438 Z M 65.34375 118.648438 "/>
<path style="fill:none;stroke-width:0.0333333;stroke-linecap:butt;stroke-linejoin:miter;stroke:rgb(0%,0%,0%);stroke-opacity:1;stroke-miterlimit:10;" d="M 1.711333 1.323676 L 0.983686 1.029408 " transform="matrix(17.275281,0,0,17.349727,48.283893,81.479903)"/>
<path style="fill:none;stroke-width:0.0333333;stroke-linecap:butt;stroke-linejoin:miter;stroke:rgb(0%,0%,0%);stroke-opacity:1;stroke-miterlimit:10;" d="M 0.983686 1.029408 L 0.171018 1.252529 " transform="matrix(17.275281,0,0,17.349727,48.283893,81.479903)"/>
<path style="fill:none;stroke-width:0.0333333;stroke-linecap:butt;stroke-linejoin:miter;stroke:rgb(0%,0%,0%);stroke-opacity:1;stroke-miterlimit:10;" d="M 0.977581 0.157411 L 0.983686 1.029408 " transform="matrix(17.275281,0,0,17.349727,48.283893,81.479903)"/>
<path style=" stroke:none;fill-rule:nonzero;fill:rgb(0%,0%,0%);fill-opacity:1;" d="M 65.277344 99.339844 L 62.457031 113.859375 L 66.484375 114.078125 "/>
<path style=" stroke:none;fill-rule:nonzero;fill:rgb(0%,0%,0%);fill-opacity:1;" d="M 19.878906 137.972656 L 18.894531 136.386719 L 17.707031 136.386719 L 17.707031 137.972656 L 17.1875 137.972656 L 17.1875 134.152344 L 18.980469 134.152344 C 19.195312 134.152344 19.386719 134.179688 19.554688 134.230469 C 19.71875 134.273438 19.859375 134.34375 19.972656 134.4375 C 20.089844 134.53125 20.175781 134.648438 20.234375 134.78125 C 20.289062 134.921875 20.320312 135.074219 20.320312 135.238281 C 20.320312 135.363281 20.300781 135.484375 20.265625 135.605469 C 20.226562 135.722656 20.171875 135.832031 20.09375 135.933594 C 20.019531 136.027344 19.925781 136.109375 19.8125 136.183594 C 19.695312 136.246094 19.554688 136.296875 19.390625 136.324219 L 20.472656 137.972656 Z M 19.800781 135.25 C 19.800781 135.136719 19.78125 135.03125 19.738281 134.945312 C 19.699219 134.859375 19.640625 134.792969 19.5625 134.738281 C 19.492188 134.683594 19.402344 134.640625 19.292969 134.609375 C 19.1875 134.582031 19.0625 134.566406 18.925781 134.566406 L 17.707031 134.566406 L 17.707031 135.976562 L 18.949219 135.976562 C 19.101562 135.976562 19.230469 135.960938 19.335938 135.921875 C 19.445312 135.886719 19.53125 135.835938 19.597656 135.769531 C 19.667969 135.703125 19.71875 135.628906 19.746094 135.542969 C 19.78125 135.449219 19.800781 135.351562 19.800781 135.25 Z M 19.800781 135.25 "/>
<path style=" stroke:none;fill-rule:nonzero;fill:rgb(0%,0%,0%);fill-opacity:1;" d="M 21.171875 137.972656 L 21.171875 137.625 C 21.265625 137.414062 21.378906 137.230469 21.507812 137.070312 C 21.636719 136.90625 21.769531 136.757812 21.917969 136.625 C 22.066406 136.496094 22.214844 136.378906 22.359375 136.269531 C 22.503906 136.15625 22.632812 136.039062 22.75 135.933594 C 22.863281 135.820312 22.953125 135.699219 23.019531 135.574219 C 23.089844 135.453125 23.125 135.3125 23.125 135.152344 C 23.125 135.042969 23.109375 134.949219 23.074219 134.871094 C 23.042969 134.792969 22.996094 134.722656 22.933594 134.664062 C 22.871094 134.605469 22.800781 134.5625 22.714844 134.535156 C 22.636719 134.507812 22.542969 134.488281 22.433594 134.488281 C 22.339844 134.488281 22.25 134.507812 22.164062 134.535156 C 22.078125 134.5625 22 134.605469 21.929688 134.664062 C 21.863281 134.714844 21.808594 134.78125 21.765625 134.859375 C 21.726562 134.941406 21.703125 135.03125 21.691406 135.140625 L 21.195312 135.097656 C 21.207031 134.960938 21.242188 134.832031 21.300781 134.707031 C 21.367188 134.585938 21.449219 134.480469 21.550781 134.394531 C 21.65625 134.300781 21.78125 134.226562 21.929688 134.175781 C 22.070312 134.117188 22.242188 134.089844 22.433594 134.089844 C 22.621094 134.089844 22.785156 134.117188 22.933594 134.164062 C 23.082031 134.207031 23.207031 134.273438 23.308594 134.359375 C 23.417969 134.445312 23.496094 134.554688 23.546875 134.683594 C 23.605469 134.816406 23.632812 134.96875 23.632812 135.140625 C 23.632812 135.269531 23.605469 135.394531 23.558594 135.507812 C 23.515625 135.625 23.453125 135.738281 23.375 135.84375 C 23.300781 135.949219 23.214844 136.050781 23.117188 136.148438 C 23.011719 136.246094 22.90625 136.339844 22.792969 136.429688 C 22.683594 136.519531 22.570312 136.609375 22.457031 136.703125 C 22.347656 136.796875 22.242188 136.890625 22.144531 136.984375 C 22.050781 137.070312 21.964844 137.164062 21.882812 137.253906 C 21.804688 137.351562 21.746094 137.449219 21.699219 137.558594 L 23.6875 137.558594 L 23.6875 137.972656 Z M 21.171875 137.972656 "/>
<path style=" stroke:none;fill-rule:nonzero;fill:rgb(0%,0%,0%);fill-opacity:1;" d="M 24.363281 135.652344 L 24.363281 135.25 L 27.050781 135.25 L 27.050781 135.652344 Z M 24.363281 137.039062 L 24.363281 136.636719 L 27.050781 136.636719 L 27.050781 137.039062 Z M 24.363281 137.039062 "/>
<path style=" stroke:none;fill-rule:nonzero;fill:rgb(0%,0%,0%);fill-opacity:1;" d="M 17.1875 140.285156 L 17.1875 140.078125 L 18.34375 139.582031 L 17.1875 139.082031 L 17.1875 138.875 L 18.527344 139.441406 L 18.527344 139.722656 Z M 17.1875 140.285156 "/>
<path style=" stroke:none;fill-rule:nonzero;fill:rgb(0%,0%,0%);fill-opacity:1;" d="M 20.15625 139.539062 C 20.15625 139.71875 20.136719 139.875 20.101562 140.003906 C 20.074219 140.128906 20.027344 140.230469 19.964844 140.308594 C 19.902344 140.382812 19.835938 140.433594 19.757812 140.46875 C 19.675781 140.503906 19.589844 140.523438 19.5 140.523438 C 19.402344 140.523438 19.316406 140.503906 19.238281 140.46875 C 19.160156 140.433594 19.089844 140.382812 19.023438 140.308594 C 18.964844 140.230469 18.917969 140.128906 18.882812 140.003906 C 18.855469 139.875 18.839844 139.71875 18.839844 139.539062 C 18.839844 139.34375 18.855469 139.183594 18.882812 139.0625 C 18.917969 138.929688 18.964844 138.832031 19.023438 138.757812 C 19.089844 138.6875 19.160156 138.636719 19.238281 138.605469 C 19.316406 138.570312 19.40625 138.550781 19.507812 138.550781 C 19.597656 138.550781 19.675781 138.570312 19.757812 138.605469 C 19.835938 138.636719 19.902344 138.6875 19.964844 138.757812 C 20.027344 138.832031 20.074219 138.929688 20.101562 139.0625 C 20.136719 139.183594 20.15625 139.34375 20.15625 139.539062 Z M 19.917969 139.539062 C 19.917969 139.386719 19.910156 139.261719 19.886719 139.160156 C 19.871094 139.058594 19.847656 138.980469 19.8125 138.917969 C 19.773438 138.855469 19.730469 138.8125 19.683594 138.789062 C 19.632812 138.761719 19.574219 138.746094 19.507812 138.746094 C 19.4375 138.746094 19.375 138.761719 19.324219 138.789062 C 19.273438 138.8125 19.230469 138.855469 19.195312 138.917969 C 19.160156 138.980469 19.132812 139.058594 19.109375 139.160156 C 19.09375 139.261719 19.089844 139.386719 19.089844 139.539062 C 19.089844 139.683594 19.09375 139.804688 19.109375 139.90625 C 19.132812 140.007812 19.160156 140.089844 19.195312 140.15625 C 19.230469 140.214844 19.273438 140.257812 19.324219 140.285156 C 19.375 140.308594 19.433594 140.320312 19.5 140.320312 C 19.5625 140.320312 19.621094 140.308594 19.671875 140.285156 C 19.71875 140.257812 19.761719 140.214844 19.800781 140.15625 C 19.835938 140.089844 19.867188 140.007812 19.886719 139.90625 C 19.910156 139.804688 19.917969 139.683594 19.917969 139.539062 Z M 19.917969 139.539062 "/>
<path style=" stroke:none;fill-rule:nonzero;fill:rgb(0%,0%,0%);fill-opacity:1;" d="M 49.308594 138.890625 L 49.308594 137.121094 L 47.257812 137.121094 L 47.257812 138.890625 L 46.738281 138.890625 L 46.738281 135.074219 L 47.257812 135.074219 L 47.257812 136.6875 L 49.308594 136.6875 L 49.308594 135.074219 L 49.824219 135.074219 L 49.824219 138.890625 Z M 49.308594 138.890625 "/>
<path style=" stroke:none;fill-rule:nonzero;fill:rgb(0%,0%,0%);fill-opacity:1;" d="M 48.4375 131.597656 L 49.152344 131.328125 L 49.269531 131.683594 L 48.515625 131.878906 L 49.011719 132.550781 L 48.6875 132.746094 L 48.289062 132.054688 L 47.867188 132.746094 L 47.542969 132.550781 L 48.050781 131.878906 L 47.292969 131.683594 L 47.421875 131.316406 L 48.136719 131.609375 L 48.105469 130.804688 L 48.46875 130.804688 Z M 48.4375 131.597656 "/>
<path style=" stroke:none;fill-rule:nonzero;fill:rgb(0%,0%,0%);fill-opacity:1;" d="M 19.878906 161.105469 L 18.894531 159.523438 L 17.707031 159.523438 L 17.707031 161.105469 L 17.1875 161.105469 L 17.1875 157.289062 L 18.980469 157.289062 C 19.195312 157.289062 19.386719 157.316406 19.554688 157.363281 C 19.71875 157.40625 19.859375 157.480469 19.972656 157.570312 C 20.089844 157.664062 20.175781 157.78125 20.234375 157.917969 C 20.289062 158.054688 20.320312 158.207031 20.320312 158.375 C 20.320312 158.496094 20.300781 158.621094 20.265625 158.742188 C 20.226562 158.859375 20.171875 158.96875 20.09375 159.066406 C 20.019531 159.160156 19.925781 159.246094 19.8125 159.316406 C 19.695312 159.382812 19.554688 159.429688 19.390625 159.457031 L 20.472656 161.105469 Z M 19.800781 158.382812 C 19.800781 158.269531 19.78125 158.167969 19.738281 158.082031 C 19.699219 157.992188 19.640625 157.925781 19.5625 157.875 C 19.492188 157.816406 19.402344 157.773438 19.292969 157.746094 C 19.1875 157.71875 19.0625 157.699219 18.925781 157.699219 L 17.707031 157.699219 L 17.707031 159.109375 L 18.949219 159.109375 C 19.101562 159.109375 19.230469 159.09375 19.335938 159.054688 C 19.445312 159.019531 19.53125 158.96875 19.597656 158.90625 C 19.667969 158.839844 19.71875 158.761719 19.746094 158.675781 C 19.78125 158.585938 19.800781 158.488281 19.800781 158.382812 Z M 19.800781 158.382812 "/>
<path style=" stroke:none;fill-rule:nonzero;fill:rgb(0%,0%,0%);fill-opacity:1;" d="M 23.71875 160.054688 C 23.71875 160.226562 23.691406 160.382812 23.632812 160.519531 C 23.582031 160.660156 23.5 160.773438 23.386719 160.867188 C 23.277344 160.960938 23.140625 161.035156 22.984375 161.085938 C 22.828125 161.132812 22.644531 161.160156 22.433594 161.160156 C 22.199219 161.160156 21.996094 161.128906 21.832031 161.074219 C 21.671875 161.015625 21.539062 160.941406 21.429688 160.84375 C 21.328125 160.746094 21.253906 160.632812 21.203125 160.507812 C 21.152344 160.386719 21.121094 160.257812 21.105469 160.117188 L 21.605469 160.074219 C 21.617188 160.179688 21.640625 160.269531 21.679688 160.359375 C 21.722656 160.4375 21.777344 160.507812 21.839844 160.574219 C 21.90625 160.632812 21.984375 160.679688 22.078125 160.714844 C 22.179688 160.746094 22.296875 160.757812 22.433594 160.757812 C 22.679688 160.757812 22.871094 160.699219 23.007812 160.574219 C 23.152344 160.453125 23.222656 160.269531 23.222656 160.03125 C 23.222656 159.898438 23.191406 159.78125 23.125 159.695312 C 23.0625 159.609375 22.980469 159.542969 22.890625 159.5 C 22.800781 159.453125 22.699219 159.417969 22.585938 159.402344 C 22.480469 159.382812 22.382812 159.371094 22.296875 159.371094 L 22.015625 159.371094 L 22.015625 158.949219 L 22.285156 158.949219 C 22.371094 158.949219 22.460938 158.941406 22.566406 158.925781 C 22.664062 158.90625 22.753906 158.871094 22.835938 158.816406 C 22.921875 158.769531 22.988281 158.703125 23.039062 158.621094 C 23.089844 158.535156 23.117188 158.425781 23.117188 158.285156 C 23.117188 158.085938 23.054688 157.925781 22.933594 157.808594 C 22.816406 157.6875 22.640625 157.625 22.402344 157.625 C 22.191406 157.625 22.019531 157.683594 21.882812 157.796875 C 21.753906 157.90625 21.679688 158.0625 21.65625 158.265625 L 21.171875 158.222656 C 21.1875 158.054688 21.230469 157.914062 21.300781 157.789062 C 21.371094 157.65625 21.464844 157.554688 21.570312 157.472656 C 21.683594 157.394531 21.816406 157.332031 21.960938 157.289062 C 22.101562 157.246094 22.253906 157.222656 22.414062 157.222656 C 22.621094 157.222656 22.800781 157.253906 22.953125 157.308594 C 23.109375 157.363281 23.238281 157.433594 23.332031 157.527344 C 23.429688 157.613281 23.503906 157.71875 23.546875 157.84375 C 23.597656 157.964844 23.621094 158.097656 23.621094 158.242188 C 23.621094 158.351562 23.605469 158.457031 23.570312 158.558594 C 23.539062 158.652344 23.492188 158.738281 23.429688 158.816406 C 23.363281 158.898438 23.28125 158.96875 23.179688 159.023438 C 23.078125 159.074219 22.960938 159.117188 22.824219 159.144531 L 22.824219 159.152344 C 22.976562 159.171875 23.109375 159.207031 23.222656 159.261719 C 23.335938 159.3125 23.429688 159.378906 23.503906 159.457031 C 23.574219 159.539062 23.628906 159.628906 23.667969 159.730469 C 23.703125 159.832031 23.71875 159.941406 23.71875 160.054688 Z M 23.71875 160.054688 "/>
<path style=" stroke:none;fill-rule:nonzero;fill:rgb(0%,0%,0%);fill-opacity:1;" d="M 24.363281 158.785156 L 24.363281 158.382812 L 27.050781 158.382812 L 27.050781 158.785156 Z M 24.363281 160.171875 L 24.363281 159.773438 L 27.050781 159.773438 L 27.050781 160.171875 Z M 24.363281 160.171875 "/>
<path style=" stroke:none;fill-rule:nonzero;fill:rgb(0%,0%,0%);fill-opacity:1;" d="M 17.1875 163.472656 L 17.1875 163.265625 L 18.34375 162.765625 L 17.1875 162.269531 L 17.1875 162.0625 L 18.527344 162.625 L 18.527344 162.910156 Z M 17.1875 163.472656 "/>
<path style=" stroke:none;fill-rule:nonzero;fill:rgb(0%,0%,0%);fill-opacity:1;" d="M 20.15625 162.722656 C 20.15625 162.90625 20.136719 163.058594 20.101562 163.191406 C 20.074219 163.316406 20.027344 163.414062 19.964844 163.492188 C 19.902344 163.566406 19.835938 163.621094 19.757812 163.65625 C 19.675781 163.691406 19.589844 163.710938 19.5 163.710938 C 19.402344 163.710938 19.316406 163.691406 19.238281 163.65625 C 19.160156 163.621094 19.089844 163.566406 19.023438 163.492188 C 18.964844 163.414062 18.917969 163.316406 18.882812 163.191406 C 18.855469 163.058594 18.839844 162.90625 18.839844 162.722656 C 18.839844 162.527344 18.855469 162.371094 18.882812 162.246094 C 18.917969 162.117188 18.964844 162.015625 19.023438 161.945312 C 19.089844 161.871094 19.160156 161.820312 19.238281 161.792969 C 19.316406 161.757812 19.40625 161.738281 19.507812 161.738281 C 19.597656 161.738281 19.675781 161.757812 19.757812 161.792969 C 19.835938 161.820312 19.902344 161.871094 19.964844 161.945312 C 20.027344 162.015625 20.074219 162.117188 20.101562 162.246094 C 20.136719 162.371094 20.15625 162.527344 20.15625 162.722656 Z M 19.917969 162.722656 C 19.917969 162.574219 19.910156 162.449219 19.886719 162.34375 C 19.871094 162.246094 19.847656 162.164062 19.8125 162.105469 C 19.773438 162.042969 19.730469 161.996094 19.683594 161.976562 C 19.632812 161.949219 19.574219 161.933594 19.507812 161.933594 C 19.4375 161.933594 19.375 161.949219 19.324219 161.976562 C 19.273438 161.996094 19.230469 162.042969 19.195312 162.105469 C 19.160156 162.164062 19.132812 162.246094 19.109375 162.34375 C 19.09375 162.449219 19.089844 162.574219 19.089844 162.722656 C 19.089844 162.871094 19.09375 162.992188 19.109375 163.09375 C 19.132812 163.195312 19.160156 163.277344 19.195312 163.34375 C 19.230469 163.402344 19.273438 163.445312 19.324219 163.472656 C 19.375 163.492188 19.433594 163.503906 19.5 163.503906 C 19.5625 163.503906 19.621094 163.492188 19.671875 163.472656 C 19.71875 163.445312 19.761719 163.402344 19.800781 163.34375 C 19.835938 163.277344 19.867188 163.195312 19.886719 163.09375 C 19.910156 162.992188 19.917969 162.871094 19.917969 162.722656 Z M 19.917969 162.722656 "/>
<path style=" stroke:none;fill-rule:nonzero;fill:rgb(0%,0%,0%);fill-opacity:1;" d="M 49.308594 162.023438 L 49.308594 160.253906 L 47.257812 160.253906 L 47.257812 162.023438 L 46.738281 162.023438 L 46.738281 158.207031 L 47.257812 158.207031 L 47.257812 159.820312 L 49.308594 159.820312 L 49.308594 158.207031 L 49.824219 158.207031 L 49.824219 162.023438 Z M 49.308594 162.023438 "/>
<path style=" stroke:none;fill-rule:nonzero;fill:rgb(0%,0%,0%);fill-opacity:1;" d="M 48.4375 154.730469 L 49.152344 154.457031 L 49.269531 154.816406 L 48.515625 155.011719 L 49.011719 155.683594 L 48.6875 155.878906 L 48.289062 155.183594 L 47.867188 155.878906 L 47.542969 155.683594 L 48.050781 155.011719 L 47.292969 154.816406 L 47.421875 154.449219 L 48.136719 154.742188 L 48.105469 153.9375 L 48.46875 153.9375 Z M 48.4375 154.730469 "/>
<path style=" stroke:none;fill-rule:nonzero;fill:rgb(0%,0%,0%);fill-opacity:1;" d="M 19.878906 184.171875 L 18.894531 182.589844 L 17.707031 182.589844 L 17.707031 184.171875 L 17.1875 184.171875 L 17.1875 180.355469 L 18.980469 180.355469 C 19.195312 180.355469 19.386719 180.382812 19.554688 180.433594 C 19.71875 180.476562 19.859375 180.546875 19.972656 180.636719 C 20.089844 180.734375 20.175781 180.847656 20.234375 180.984375 C 20.289062 181.121094 20.320312 181.273438 20.320312 181.441406 C 20.320312 181.566406 20.300781 181.6875 20.265625 181.808594 C 20.226562 181.925781 20.171875 182.035156 20.09375 182.132812 C 20.019531 182.230469 19.925781 182.3125 19.8125 182.382812 C 19.695312 182.449219 19.554688 182.496094 19.390625 182.523438 L 20.472656 184.171875 Z M 19.800781 181.449219 C 19.800781 181.335938 19.78125 181.234375 19.738281 181.148438 C 19.699219 181.0625 19.640625 180.992188 19.5625 180.941406 C 19.492188 180.882812 19.402344 180.839844 19.292969 180.8125 C 19.1875 180.785156 19.0625 180.769531 18.925781 180.769531 L 17.707031 180.769531 L 17.707031 182.175781 L 18.949219 182.175781 C 19.101562 182.175781 19.230469 182.160156 19.335938 182.125 C 19.445312 182.089844 19.53125 182.035156 19.597656 181.972656 C 19.667969 181.90625 19.71875 181.832031 19.746094 181.742188 C 19.78125 181.652344 19.800781 181.554688 19.800781 181.449219 Z M 19.800781 181.449219 "/>
<path style=" stroke:none;fill-rule:nonzero;fill:rgb(0%,0%,0%);fill-opacity:1;" d="M 23.265625 183.304688 L 23.265625 184.171875 L 22.8125 184.171875 L 22.8125 183.304688 L 21.019531 183.304688 L 21.019531 182.925781 L 22.757812 180.355469 L 23.265625 180.355469 L 23.265625 182.925781 L 23.804688 182.925781 L 23.804688 183.304688 Z M 22.8125 180.898438 C 22.804688 180.914062 22.792969 180.9375 22.78125 180.964844 C 22.765625 180.984375 22.75 181.015625 22.726562 181.050781 C 22.710938 181.078125 22.695312 181.113281 22.671875 181.148438 C 22.65625 181.175781 22.644531 181.203125 22.628906 181.222656 L 21.65625 182.664062 C 21.648438 182.683594 21.636719 182.703125 21.613281 182.730469 C 21.597656 182.753906 21.582031 182.773438 21.5625 182.796875 C 21.542969 182.816406 21.527344 182.84375 21.507812 182.871094 C 21.492188 182.894531 21.476562 182.914062 21.464844 182.925781 L 22.8125 182.925781 Z M 22.8125 180.898438 "/>
<path style=" stroke:none;fill-rule:nonzero;fill:rgb(0%,0%,0%);fill-opacity:1;" d="M 24.363281 181.851562 L 24.363281 181.449219 L 27.050781 181.449219 L 27.050781 181.851562 Z M 24.363281 183.238281 L 24.363281 182.839844 L 27.050781 182.839844 L 27.050781 183.238281 Z M 24.363281 183.238281 "/>
<path style=" stroke:none;fill-rule:nonzero;fill:rgb(0%,0%,0%);fill-opacity:1;" d="M 17.1875 186.484375 L 17.1875 186.277344 L 18.34375 185.78125 L 17.1875 185.28125 L 17.1875 185.074219 L 18.527344 185.640625 L 18.527344 185.921875 Z M 17.1875 186.484375 "/>
<path style=" stroke:none;fill-rule:nonzero;fill:rgb(0%,0%,0%);fill-opacity:1;" d="M 20.15625 185.738281 C 20.15625 185.917969 20.136719 186.074219 20.101562 186.203125 C 20.074219 186.328125 20.027344 186.429688 19.964844 186.507812 C 19.902344 186.578125 19.835938 186.632812 19.757812 186.667969 C 19.675781 186.703125 19.589844 186.722656 19.5 186.722656 C 19.402344 186.722656 19.316406 186.703125 19.238281 186.667969 C 19.160156 186.632812 19.089844 186.578125 19.023438 186.507812 C 18.964844 186.429688 18.917969 186.328125 18.882812 186.203125 C 18.855469 186.074219 18.839844 185.917969 18.839844 185.738281 C 18.839844 185.542969 18.855469 185.382812 18.882812 185.261719 C 18.917969 185.128906 18.964844 185.03125 19.023438 184.957031 C 19.089844 184.886719 19.160156 184.835938 19.238281 184.804688 C 19.316406 184.769531 19.40625 184.75 19.507812 184.75 C 19.597656 184.75 19.675781 184.769531 19.757812 184.804688 C 19.835938 184.835938 19.902344 184.886719 19.964844 184.957031 C 20.027344 185.03125 20.074219 185.128906 20.101562 185.261719 C 20.136719 185.382812 20.15625 185.542969 20.15625 185.738281 Z M 19.917969 185.738281 C 19.917969 185.585938 19.910156 185.460938 19.886719 185.359375 C 19.871094 185.257812 19.847656 185.179688 19.8125 185.117188 C 19.773438 185.054688 19.730469 185.011719 19.683594 184.988281 C 19.632812 184.960938 19.574219 184.945312 19.507812 184.945312 C 19.4375 184.945312 19.375 184.960938 19.324219 184.988281 C 19.273438 185.011719 19.230469 185.054688 19.195312 185.117188 C 19.160156 185.179688 19.132812 185.257812 19.109375 185.359375 C 19.09375 185.460938 19.089844 185.585938 19.089844 185.738281 C 19.089844 185.882812 19.09375 186.003906 19.109375 186.105469 C 19.132812 186.207031 19.160156 186.289062 19.195312 186.355469 C 19.230469 186.414062 19.273438 186.457031 19.324219 186.484375 C 19.375 186.507812 19.433594 186.519531 19.5 186.519531 C 19.5625 186.519531 19.621094 186.507812 19.671875 186.484375 C 19.71875 186.457031 19.761719 186.414062 19.800781 186.355469 C 19.835938 186.289062 19.867188 186.207031 19.886719 186.105469 C 19.910156 186.003906 19.917969 185.882812 19.917969 185.738281 Z M 19.917969 185.738281 "/>
<path style=" stroke:none;fill-rule:nonzero;fill:rgb(0%,0%,0%);fill-opacity:1;" d="M 49.308594 185.152344 L 49.308594 183.386719 L 47.257812 183.386719 L 47.257812 185.152344 L 46.738281 185.152344 L 46.738281 181.335938 L 47.257812 181.335938 L 47.257812 182.953125 L 49.308594 182.953125 L 49.308594 181.335938 L 49.824219 181.335938 L 49.824219 185.152344 Z M 49.308594 185.152344 "/>
<path style=" stroke:none;fill-rule:nonzero;fill:rgb(0%,0%,0%);fill-opacity:1;" d="M 48.4375 177.863281 L 49.152344 177.589844 L 49.269531 177.949219 L 48.515625 178.144531 L 49.011719 178.816406 L 48.6875 179.011719 L 48.289062 178.316406 L 47.867188 179.011719 L 47.542969 178.816406 L 48.050781 178.144531 L 47.292969 177.949219 L 47.421875 177.578125 L 48.136719 177.871094 L 48.105469 177.070312 L 48.46875 177.070312 Z M 48.4375 177.863281 "/>
</g>
</svg>
