<?xml version="1.0" encoding="UTF-8"?>
<svg xmlns="http://www.w3.org/2000/svg" xmlns:xlink="http://www.w3.org/1999/xlink" width="68.8pt" height="68.8pt" viewBox="0 0 68.8 68.8" version="1.1">
<g id="surface1217">
<path style=" stroke:none;fill-rule:nonzero;fill:rgb(0%,0%,0%);fill-opacity:1;" d="M 35.421875 19.09375 L 35.421875 17.339844 L 33.378906 17.339844 L 33.378906 19.09375 L 32.863281 19.09375 L 32.863281 15.308594 L 33.378906 15.308594 L 33.378906 16.910156 L 35.421875 16.910156 L 35.421875 15.308594 L 35.9375 15.308594 L 35.9375 19.09375 Z M 35.421875 19.09375 "/>
<path style=" stroke:none;fill-rule:nonzero;fill:rgb(0%,0%,0%);fill-opacity:1;" d="M 52.621094 36.292969 L 52.621094 34.539062 L 50.578125 34.539062 L 50.578125 36.292969 L 50.0625 36.292969 L 50.0625 32.507812 L 50.578125 32.507812 L 50.578125 34.109375 L 52.621094 34.109375 L 52.621094 32.507812 L 53.136719 32.507812 L 53.136719 36.292969 Z M 52.621094 36.292969 "/>
<path style=" stroke:none;fill-rule:nonzero;fill:rgb(0%,0%,0%);fill-opacity:1;" d="M 35.421875 53.492188 L 35.421875 51.738281 L 33.378906 51.738281 L 33.378906 53.492188 L 32.863281 53.492188 L 32.863281 49.707031 L 33.378906 49.707031 L 33.378906 51.308594 L 35.421875 51.308594 L 35.421875 49.707031 L 35.9375 49.707031 L 35.9375 53.492188 Z M 35.421875 53.492188 "/>
<path style=" stroke:none;fill-rule:nonzero;fill:rgb(0%,0%,0%);fill-opacity:1;" d="M 18.222656 36.292969 L 18.222656 34.539062 L 16.179688 34.539062 L 16.179688 36.292969 L 15.664062 36.292969 L 15.664062 32.507812 L 16.179688 32.507812 L 16.179688 34.109375 L 18.222656 34.109375 L 18.222656 32.507812 L 18.738281 32.507812 L 18.738281 36.292969 Z M 18.222656 36.292969 "/>
<path style="fill:none;stroke-width:0.0333333;stroke-linecap:butt;stroke-linejoin:miter;stroke:rgb(0%,0%,0%);stroke-opacity:1;stroke-miterlimit:10;" d="M 0.999909 0.999909 L 0.999909 0.153253 " transform="matrix(17.2,0,0,17.2,17.2,17.199994)"/>
<path style="fill:none;stroke-width:0.0333333;stroke-linecap:butt;stroke-linejoin:miter;stroke:rgb(0%,0%,0%);stroke-opacity:1;stroke-miterlimit:10;" d="M 0.999909 0.999909 L 1.867233 0.999909 " transform="matrix(17.2,0,0,17.2,17.2,17.199994)"/>
<path style="fill:none;stroke-width:0.0333333;stroke-linecap:butt;stroke-linejoin:miter;stroke:rgb(0%,0%,0%);stroke-opacity:1;stroke-miterlimit:10;" d="M 0.999909 0.999909 L 0.999909 1.846794 " transform="matrix(17.2,0,0,17.2,17.2,17.199994)"/>
<path style="fill:none;stroke-width:0.0333333;stroke-linecap:butt;stroke-linejoin:miter;stroke:rgb(0%,0%,0%);stroke-opacity:1;stroke-miterlimit:10;" d="M 0.999909 0.999909 L 0.132585 0.999909 " transform="matrix(17.2,0,0,17.2,17.2,17.199994)"/>
</g>
</svg>
