<?xml version="1.0" encoding="UTF-8"?>
<svg xmlns="http://www.w3.org/2000/svg" xmlns:xlink="http://www.w3.org/1999/xlink" width="64pt" height="121.6pt" viewBox="0 0 64 121.6" version="1.1">
<g id="surface287">
<path style=" stroke:none;fill-rule:nonzero;fill:rgb(0%,0%,0%);fill-opacity:1;" d="M 18.0625 27.9375 L 16.027344 24.683594 C 16.03125 24.769531 16.039062 24.855469 16.039062 24.941406 C 16.042969 25.015625 16.046875 25.09375 16.046875 25.179688 C 16.054688 25.261719 16.058594 25.332031 16.058594 25.398438 L 16.058594 27.9375 L 15.59375 27.9375 L 15.59375 24.117188 L 16.199219 24.117188 L 18.246094 27.394531 C 18.246094 27.394531 18.242188 27.304688 18.234375 27.121094 C 18.226562 27.050781 18.21875 26.972656 18.214844 26.882812 C 18.214844 26.792969 18.214844 26.707031 18.214844 26.625 L 18.214844 24.117188 L 18.675781 24.117188 L 18.675781 27.9375 Z M 18.0625 27.9375 "/>
<path style=" stroke:none;fill-rule:nonzero;fill:rgb(0%,0%,0%);fill-opacity:1;" d="M 18.0625 97.34375 L 16.027344 94.089844 C 16.03125 94.175781 16.039062 94.261719 16.039062 94.347656 C 16.042969 94.421875 16.046875 94.5 16.046875 94.589844 C 16.054688 94.667969 16.058594 94.738281 16.058594 94.804688 L 16.058594 97.34375 L 15.59375 97.34375 L 15.59375 93.523438 L 16.199219 93.523438 L 18.246094 96.800781 C 18.246094 96.800781 18.242188 96.710938 18.234375 96.527344 C 18.226562 96.457031 18.21875 96.378906 18.214844 96.289062 C 18.214844 96.199219 18.214844 96.113281 18.214844 96.03125 L 18.214844 93.523438 L 18.675781 93.523438 L 18.675781 97.34375 Z M 18.0625 97.34375 "/>
<path style="fill:none;stroke-width:0.0333333;stroke-linecap:butt;stroke-linejoin:miter;stroke:rgb(0%,0%,0%);stroke-opacity:1;stroke-miterlimit:10;" d="M 0.874263 -0.00495293 L 0.165802 0.404321 " transform="matrix(17.241379,0,0,17.351598,17.137441,17.351566)"/>
<path style="fill:none;stroke-width:0.0333333;stroke-linecap:butt;stroke-linejoin:miter;stroke:rgb(0%,0%,0%);stroke-opacity:1;stroke-miterlimit:10;" d="M 0.874263 0.187753 L 0.249403 0.548625 " transform="matrix(17.241379,0,0,17.351598,17.137441,17.351566)"/>
<path style="fill:none;stroke-width:0.0333333;stroke-linecap:butt;stroke-linejoin:miter;stroke:rgb(0%,0%,0%);stroke-opacity:1;stroke-miterlimit:10;" d="M -0.0000418725 0.653308 L -0.0000418725 1.509452 " transform="matrix(17.241379,0,0,17.351598,17.137441,17.351566)"/>
<path style="fill:none;stroke-width:0.0333333;stroke-linecap:butt;stroke-linejoin:miter;stroke:rgb(0%,0%,0%);stroke-opacity:1;stroke-miterlimit:10;" d="M -0.00842469 1.495269 L 0.866107 1.999996 " transform="matrix(17.241379,0,0,17.351598,17.137441,17.351566)"/>
<path style="fill:none;stroke-width:0.0333333;stroke-linecap:butt;stroke-linejoin:miter;stroke:rgb(0%,0%,0%);stroke-opacity:1;stroke-miterlimit:10;" d="M 0.158325 1.398916 L 0.866107 1.807515 " transform="matrix(17.241379,0,0,17.351598,17.137441,17.351566)"/>
<path style="fill:none;stroke-width:0.0333333;stroke-linecap:butt;stroke-linejoin:miter;stroke:rgb(0%,0%,0%);stroke-opacity:1;stroke-miterlimit:10;" d="M 0.857724 2.004948 L 1.740411 1.495269 " transform="matrix(17.241379,0,0,17.351598,17.137441,17.351566)"/>
<path style="fill:none;stroke-width:0.0333333;stroke-linecap:butt;stroke-linejoin:miter;stroke:rgb(0%,0%,0%);stroke-opacity:1;stroke-miterlimit:10;" d="M 1.732028 1.509452 L 1.732028 0.490318 " transform="matrix(17.241379,0,0,17.351598,17.137441,17.351566)"/>
<path style="fill:none;stroke-width:0.0333333;stroke-linecap:butt;stroke-linejoin:miter;stroke:rgb(0%,0%,0%);stroke-opacity:1;stroke-miterlimit:10;" d="M 1.565505 1.413549 L 1.565505 0.586671 " transform="matrix(17.241379,0,0,17.351598,17.137441,17.351566)"/>
<path style="fill:none;stroke-width:0.0333333;stroke-linecap:butt;stroke-linejoin:miter;stroke:rgb(0%,0%,0%);stroke-opacity:1;stroke-miterlimit:10;" d="M 0.857724 -0.00495293 L 1.740411 0.504951 " transform="matrix(17.241379,0,0,17.351598,17.137441,17.351566)"/>
<path style="fill:none;stroke-width:0.0333333;stroke-linecap:butt;stroke-linejoin:miter;stroke:rgb(0%,0%,0%);stroke-opacity:1;stroke-miterlimit:10;" d="M 0.866107 1.990315 L 0.866107 3.009449 " transform="matrix(17.241379,0,0,17.351598,17.137441,17.351566)"/>
<path style="fill:none;stroke-width:0.0333333;stroke-linecap:butt;stroke-linejoin:miter;stroke:rgb(0%,0%,0%);stroke-opacity:1;stroke-miterlimit:10;" d="M 0.866107 2.999994 L -0.00842469 3.504945 " transform="matrix(17.241379,0,0,17.351598,17.137441,17.351566)"/>
<path style="fill:none;stroke-width:0.0333333;stroke-linecap:butt;stroke-linejoin:miter;stroke:rgb(0%,0%,0%);stroke-opacity:1;stroke-miterlimit:10;" d="M 0.866107 3.192249 L 0.158325 3.601073 " transform="matrix(17.241379,0,0,17.351598,17.137441,17.351566)"/>
<path style="fill:none;stroke-width:0.0333333;stroke-linecap:butt;stroke-linejoin:miter;stroke:rgb(0%,0%,0%);stroke-opacity:1;stroke-miterlimit:10;" d="M 0.857724 2.995266 L 1.740411 3.504945 " transform="matrix(17.241379,0,0,17.351598,17.137441,17.351566)"/>
<path style="fill:none;stroke-width:0.0333333;stroke-linecap:butt;stroke-linejoin:miter;stroke:rgb(0%,0%,0%);stroke-opacity:1;stroke-miterlimit:10;" d="M -0.0000418725 3.490537 L -0.0000418725 4.346682 " transform="matrix(17.241379,0,0,17.351598,17.137441,17.351566)"/>
<path style="fill:none;stroke-width:0.0333333;stroke-linecap:butt;stroke-linejoin:miter;stroke:rgb(0%,0%,0%);stroke-opacity:1;stroke-miterlimit:10;" d="M 0.165802 4.595893 L 0.874263 5.004942 " transform="matrix(17.241379,0,0,17.351598,17.137441,17.351566)"/>
<path style="fill:none;stroke-width:0.0333333;stroke-linecap:butt;stroke-linejoin:miter;stroke:rgb(0%,0%,0%);stroke-opacity:1;stroke-miterlimit:10;" d="M 0.249403 4.451364 L 0.874263 4.812237 " transform="matrix(17.241379,0,0,17.351598,17.137441,17.351566)"/>
<path style="fill:none;stroke-width:0.0333333;stroke-linecap:butt;stroke-linejoin:miter;stroke:rgb(0%,0%,0%);stroke-opacity:1;stroke-miterlimit:10;" d="M 0.857724 5.004942 L 1.740411 4.495263 " transform="matrix(17.241379,0,0,17.351598,17.137441,17.351566)"/>
<path style="fill:none;stroke-width:0.0333333;stroke-linecap:butt;stroke-linejoin:miter;stroke:rgb(0%,0%,0%);stroke-opacity:1;stroke-miterlimit:10;" d="M 1.732028 4.509671 L 1.732028 3.490537 " transform="matrix(17.241379,0,0,17.351598,17.137441,17.351566)"/>
<path style="fill:none;stroke-width:0.0333333;stroke-linecap:butt;stroke-linejoin:miter;stroke:rgb(0%,0%,0%);stroke-opacity:1;stroke-miterlimit:10;" d="M 1.565505 4.413543 L 1.565505 3.586665 " transform="matrix(17.241379,0,0,17.351598,17.137441,17.351566)"/>
</g>
</svg>
