<?xml version="1.0" encoding="UTF-8"?>
<svg xmlns="http://www.w3.org/2000/svg" xmlns:xlink="http://www.w3.org/1999/xlink" width="136pt" height="111pt" viewBox="0 0 136 111" version="1.1">
<g id="surface3477">
<path style="fill:none;stroke-width:0.0433333;stroke-linecap:butt;stroke-linejoin:miter;stroke:rgb(0%,0%,0%);stroke-opacity:1;stroke-miterlimit:10;" d="M 0.876758 1.493685 L -0.0108724 2.006185 " transform="matrix(30,0,0,30,3.048828,2.998043)"/>
<path style="fill:none;stroke-width:0.0433333;stroke-linecap:butt;stroke-linejoin:miter;stroke:rgb(0%,0%,0%);stroke-opacity:1;stroke-miterlimit:10;" d="M 0.876758 1.743945 L 0.205794 2.131315 " transform="matrix(30,0,0,30,3.048828,2.998043)"/>
<path style="fill:none;stroke-width:0.0433333;stroke-linecap:butt;stroke-linejoin:miter;stroke:rgb(0%,0%,0%);stroke-opacity:1;stroke-miterlimit:10;" d="M -0.000065104 1.987435 L -0.000065104 3.012565 " transform="matrix(30,0,0,30,3.048828,2.998043)"/>
<path style="fill:none;stroke-width:0.0433333;stroke-linecap:butt;stroke-linejoin:miter;stroke:rgb(0%,0%,0%);stroke-opacity:1;stroke-miterlimit:10;" d="M -0.0108724 2.993815 L 0.876758 3.506315 " transform="matrix(30,0,0,30,3.048828,2.998043)"/>
<path style="fill:none;stroke-width:0.0433333;stroke-linecap:butt;stroke-linejoin:miter;stroke:rgb(0%,0%,0%);stroke-opacity:1;stroke-miterlimit:10;" d="M 0.205794 2.868815 L 0.876758 3.256185 " transform="matrix(30,0,0,30,3.048828,2.998043)"/>
<path style="fill:none;stroke-width:0.0433333;stroke-linecap:butt;stroke-linejoin:miter;stroke:rgb(0%,0%,0%);stroke-opacity:1;stroke-miterlimit:10;" d="M 0.855143 3.506315 L 1.742773 2.993815 " transform="matrix(30,0,0,30,3.048828,2.998043)"/>
<path style="fill:none;stroke-width:0.0433333;stroke-linecap:butt;stroke-linejoin:miter;stroke:rgb(0%,0%,0%);stroke-opacity:1;stroke-miterlimit:10;" d="M 0.855143 1.493685 L 1.742773 2.006185 " transform="matrix(30,0,0,30,3.048828,2.998043)"/>
<path style="fill:none;stroke-width:0.0433333;stroke-linecap:butt;stroke-linejoin:miter;stroke:rgb(0%,0%,0%);stroke-opacity:1;stroke-miterlimit:10;" d="M 2.608919 1.493685 L 1.721159 2.006185 " transform="matrix(30,0,0,30,3.048828,2.998043)"/>
<path style="fill:none;stroke-width:0.0433333;stroke-linecap:butt;stroke-linejoin:miter;stroke:rgb(0%,0%,0%);stroke-opacity:1;stroke-miterlimit:10;" d="M 1.721159 2.993815 L 2.608919 3.506315 " transform="matrix(30,0,0,30,3.048828,2.998043)"/>
<path style="fill:none;stroke-width:0.0433333;stroke-linecap:butt;stroke-linejoin:miter;stroke:rgb(0%,0%,0%);stroke-opacity:1;stroke-miterlimit:10;" d="M 2.587174 3.506315 L 3.474805 2.993815 " transform="matrix(30,0,0,30,3.048828,2.998043)"/>
<path style="fill:none;stroke-width:0.0433333;stroke-linecap:butt;stroke-linejoin:miter;stroke:rgb(0%,0%,0%);stroke-opacity:1;stroke-miterlimit:10;" d="M 2.587174 3.256185 L 3.258138 2.868815 " transform="matrix(30,0,0,30,3.048828,2.998043)"/>
<path style="fill:none;stroke-width:0.0433333;stroke-linecap:butt;stroke-linejoin:miter;stroke:rgb(0%,0%,0%);stroke-opacity:1;stroke-miterlimit:10;" d="M 3.463997 3.012565 L 3.463997 1.987435 " transform="matrix(30,0,0,30,3.048828,2.998043)"/>
<path style="fill:none;stroke-width:0.0433333;stroke-linecap:butt;stroke-linejoin:miter;stroke:rgb(0%,0%,0%);stroke-opacity:1;stroke-miterlimit:10;" d="M 3.45319 2.006185 L 4.34082 1.493685 " transform="matrix(30,0,0,30,3.048828,2.998043)"/>
<path style="fill:none;stroke-width:0.0433333;stroke-linecap:butt;stroke-linejoin:miter;stroke:rgb(0%,0%,0%);stroke-opacity:1;stroke-miterlimit:10;" d="M 3.45319 1.756055 L 4.124154 1.368685 " transform="matrix(30,0,0,30,3.048828,2.998043)"/>
<path style="fill:none;stroke-width:0.0433333;stroke-linecap:butt;stroke-linejoin:miter;stroke:rgb(0%,0%,0%);stroke-opacity:1;stroke-miterlimit:10;" d="M 2.597982 0.487435 L 2.597982 1.512435 " transform="matrix(30,0,0,30,3.048828,2.998043)"/>
<path style="fill:none;stroke-width:0.0433333;stroke-linecap:butt;stroke-linejoin:miter;stroke:rgb(0%,0%,0%);stroke-opacity:1;stroke-miterlimit:10;" d="M 2.814648 0.612565 L 2.814648 1.387435 " transform="matrix(30,0,0,30,3.048828,2.998043)"/>
<path style="fill:none;stroke-width:0.0433333;stroke-linecap:butt;stroke-linejoin:miter;stroke:rgb(0%,0%,0%);stroke-opacity:1;stroke-miterlimit:10;" d="M 3.474805 -0.00631498 L 2.587174 0.506185 " transform="matrix(30,0,0,30,3.048828,2.998043)"/>
<path style="fill:none;stroke-width:0.0433333;stroke-linecap:butt;stroke-linejoin:miter;stroke:rgb(0%,0%,0%);stroke-opacity:1;stroke-miterlimit:10;" d="M 4.330013 1.512435 L 4.330013 0.487435 " transform="matrix(30,0,0,30,3.048828,2.998043)"/>
<path style="fill:none;stroke-width:0.0433333;stroke-linecap:butt;stroke-linejoin:miter;stroke:rgb(0%,0%,0%);stroke-opacity:1;stroke-miterlimit:10;" d="M 3.45319 -0.00631498 L 4.34082 0.506185 " transform="matrix(30,0,0,30,3.048828,2.998043)"/>
<path style="fill:none;stroke-width:0.0433333;stroke-linecap:butt;stroke-linejoin:miter;stroke:rgb(0%,0%,0%);stroke-opacity:1;stroke-miterlimit:10;" d="M 3.45319 0.243945 L 4.124154 0.631315 " transform="matrix(30,0,0,30,3.048828,2.998043)"/>
</g>
</svg>
