<?xml version="1.0" encoding="UTF-8"?>
<svg xmlns="http://www.w3.org/2000/svg" xmlns:xlink="http://www.w3.org/1999/xlink" width="90.4pt" height="185.6pt" viewBox="0 0 90.4 185.6" version="1.1">
<g id="surface552">
<path style=" stroke:none;fill-rule:nonzero;fill:rgb(0%,0%,0%);fill-opacity:1;" d="M 56.046875 13.675781 L 56.707031 13.84375 C 56.566406 14.386719 56.320312 14.796875 55.960938 15.078125 C 55.605469 15.359375 55.164062 15.5 54.652344 15.503906 C 54.113281 15.5 53.679688 15.394531 53.34375 15.179688 C 53.007812 14.960938 52.753906 14.644531 52.578125 14.230469 C 52.402344 13.816406 52.316406 13.371094 52.320312 12.894531 C 52.316406 12.382812 52.417969 11.929688 52.613281 11.542969 C 52.808594 11.15625 53.089844 10.863281 53.457031 10.664062 C 53.820312 10.464844 54.222656 10.363281 54.660156 10.363281 C 55.15625 10.363281 55.574219 10.492188 55.914062 10.742188 C 56.25 10.996094 56.488281 11.351562 56.621094 11.8125 L 55.976562 11.964844 C 55.855469 11.605469 55.6875 11.339844 55.472656 11.171875 C 55.25 11.011719 54.976562 10.925781 54.648438 10.925781 C 54.261719 10.925781 53.945312 11.019531 53.6875 11.199219 C 53.433594 11.386719 53.253906 11.632812 53.148438 11.9375 C 53.046875 12.246094 52.996094 12.566406 52.996094 12.894531 C 52.996094 13.316406 53.054688 13.6875 53.179688 14 C 53.300781 14.316406 53.492188 14.554688 53.75 14.707031 C 54.011719 14.867188 54.292969 14.945312 54.597656 14.941406 C 54.964844 14.945312 55.277344 14.839844 55.53125 14.625 C 55.785156 14.414062 55.957031 14.097656 56.046875 13.675781 Z M 56.046875 13.675781 "/>
<path style=" stroke:none;fill-rule:nonzero;fill:rgb(0%,0%,0%);fill-opacity:1;" d="M 57.4375 15.417969 L 57.4375 10.445312 L 58.046875 10.445312 L 58.046875 12.230469 C 58.328125 11.902344 58.683594 11.738281 59.121094 11.734375 C 59.386719 11.738281 59.617188 11.789062 59.8125 11.894531 C 60.007812 12 60.148438 12.148438 60.238281 12.332031 C 60.320312 12.519531 60.359375 12.789062 60.363281 13.136719 L 60.363281 15.417969 L 59.753906 15.417969 L 59.753906 13.136719 C 59.75 12.835938 59.6875 12.613281 59.558594 12.46875 C 59.425781 12.332031 59.238281 12.261719 58.996094 12.261719 C 58.816406 12.261719 58.644531 12.308594 58.488281 12.402344 C 58.324219 12.5 58.210938 12.628906 58.144531 12.785156 C 58.074219 12.949219 58.042969 13.167969 58.046875 13.449219 L 58.046875 15.417969 Z M 57.4375 15.417969 "/>
<path style=" stroke:none;fill-rule:nonzero;fill:rgb(0%,0%,0%);fill-opacity:1;" d="M 61.292969 11.148438 L 61.292969 10.445312 L 61.902344 10.445312 L 61.902344 11.148438 Z M 61.292969 15.417969 L 61.292969 11.816406 L 61.902344 11.816406 L 61.902344 15.417969 Z M 61.292969 15.417969 "/>
<path style=" stroke:none;fill-rule:nonzero;fill:rgb(0%,0%,0%);fill-opacity:1;" d="M 62.824219 15.417969 L 62.824219 11.816406 L 63.375 11.816406 L 63.375 12.363281 C 63.511719 12.109375 63.640625 11.941406 63.761719 11.855469 C 63.878906 11.777344 64.007812 11.738281 64.152344 11.734375 C 64.355469 11.738281 64.566406 11.804688 64.777344 11.933594 L 64.566406 12.5 C 64.417969 12.414062 64.269531 12.367188 64.121094 12.367188 C 63.984375 12.367188 63.863281 12.40625 63.761719 12.488281 C 63.652344 12.570312 63.578125 12.683594 63.535156 12.820312 C 63.464844 13.039062 63.429688 13.277344 63.433594 13.535156 L 63.433594 15.417969 Z M 62.824219 15.417969 "/>
<path style=" stroke:none;fill-rule:nonzero;fill:rgb(0%,0%,0%);fill-opacity:1;" d="M 67.484375 14.976562 C 67.257812 15.171875 67.039062 15.304688 66.832031 15.382812 C 66.621094 15.464844 66.398438 15.5 66.160156 15.5 C 65.765625 15.5 65.460938 15.40625 65.25 15.210938 C 65.039062 15.019531 64.933594 14.773438 64.933594 14.46875 C 64.933594 14.296875 64.972656 14.132812 65.054688 13.988281 C 65.128906 13.839844 65.234375 13.722656 65.367188 13.636719 C 65.496094 13.550781 65.640625 13.484375 65.808594 13.4375 C 65.921875 13.40625 66.105469 13.375 66.347656 13.34375 C 66.839844 13.285156 67.203125 13.214844 67.433594 13.132812 C 67.433594 13.050781 67.4375 13 67.441406 12.976562 C 67.4375 12.726562 67.378906 12.550781 67.265625 12.449219 C 67.109375 12.3125 66.875 12.246094 66.574219 12.242188 C 66.285156 12.246094 66.070312 12.296875 65.9375 12.394531 C 65.796875 12.496094 65.699219 12.675781 65.632812 12.925781 L 65.039062 12.84375 C 65.089844 12.59375 65.179688 12.386719 65.304688 12.226562 C 65.425781 12.070312 65.609375 11.949219 65.84375 11.863281 C 66.078125 11.777344 66.347656 11.738281 66.660156 11.734375 C 66.964844 11.738281 67.214844 11.773438 67.40625 11.84375 C 67.597656 11.917969 67.742188 12.007812 67.832031 12.117188 C 67.917969 12.230469 67.984375 12.371094 68.023438 12.53125 C 68.039062 12.640625 68.050781 12.828125 68.050781 13.097656 L 68.050781 13.910156 C 68.050781 14.476562 68.0625 14.835938 68.089844 14.988281 C 68.113281 15.140625 68.164062 15.285156 68.242188 15.417969 L 67.609375 15.417969 C 67.542969 15.296875 67.503906 15.148438 67.484375 14.976562 Z M 67.433594 13.613281 C 67.210938 13.703125 66.882812 13.785156 66.441406 13.84375 C 66.1875 13.882812 66.011719 13.921875 65.90625 13.964844 C 65.800781 14.015625 65.722656 14.078125 65.667969 14.164062 C 65.613281 14.253906 65.585938 14.351562 65.585938 14.453125 C 65.585938 14.621094 65.644531 14.753906 65.769531 14.859375 C 65.886719 14.972656 66.070312 15.027344 66.308594 15.023438 C 66.539062 15.027344 66.75 14.976562 66.933594 14.867188 C 67.117188 14.769531 67.25 14.628906 67.335938 14.445312 C 67.398438 14.308594 67.429688 14.105469 67.433594 13.835938 Z M 67.433594 13.613281 "/>
<path style=" stroke:none;fill-rule:nonzero;fill:rgb(0%,0%,0%);fill-opacity:1;" d="M 68.984375 15.417969 L 68.984375 10.445312 L 69.59375 10.445312 L 69.59375 15.417969 Z M 68.984375 15.417969 "/>
<path style=" stroke:none;fill-rule:nonzero;fill:rgb(0%,0%,0%);fill-opacity:1;" d="M 67.222656 91.691406 C 67.21875 90.871094 67.441406 90.222656 67.882812 89.753906 C 68.324219 89.289062 68.894531 89.058594 69.597656 89.054688 C 70.050781 89.058594 70.464844 89.164062 70.835938 89.382812 C 71.203125 89.601562 71.480469 89.910156 71.675781 90.300781 C 71.867188 90.695312 71.960938 91.140625 71.964844 91.632812 C 71.960938 92.140625 71.859375 92.59375 71.660156 92.988281 C 71.453125 93.386719 71.167969 93.6875 70.796875 93.890625 C 70.425781 94.09375 70.023438 94.195312 69.59375 94.199219 C 69.125 94.195312 68.707031 94.085938 68.339844 93.859375 C 67.972656 93.632812 67.691406 93.324219 67.503906 92.933594 C 67.3125 92.542969 67.21875 92.132812 67.222656 91.691406 Z M 67.898438 91.703125 C 67.894531 92.300781 68.058594 92.773438 68.378906 93.117188 C 68.699219 93.464844 69.101562 93.640625 69.589844 93.636719 C 70.082031 93.640625 70.488281 93.464844 70.808594 93.117188 C 71.128906 92.769531 71.289062 92.273438 71.289062 91.632812 C 71.289062 91.226562 71.21875 90.875 71.082031 90.570312 C 70.945312 90.269531 70.746094 90.035156 70.484375 89.871094 C 70.222656 89.707031 69.925781 89.621094 69.601562 89.621094 C 69.132812 89.621094 68.730469 89.78125 68.398438 90.101562 C 68.0625 90.421875 67.894531 90.957031 67.898438 91.703125 Z M 67.898438 91.703125 "/>
<path style=" stroke:none;fill-rule:nonzero;fill:rgb(0%,0%,0%);fill-opacity:1;" d="M 35.53125 77.746094 L 35.53125 72.769531 L 36.207031 72.769531 L 38.8125 76.675781 L 38.8125 72.769531 L 39.441406 72.769531 L 39.441406 77.746094 L 38.769531 77.746094 L 36.164062 73.835938 L 36.164062 77.746094 Z M 35.53125 77.746094 "/>
<path style=" stroke:none;fill-rule:nonzero;fill:rgb(0%,0%,0%);fill-opacity:1;" d="M 18.15625 148.515625 C 18.15625 147.691406 18.375 147.046875 18.820312 146.578125 C 19.261719 146.113281 19.832031 145.878906 20.53125 145.875 C 20.988281 145.878906 21.402344 145.988281 21.773438 146.203125 C 22.136719 146.425781 22.417969 146.730469 22.613281 147.121094 C 22.800781 147.519531 22.898438 147.964844 22.902344 148.457031 C 22.898438 148.964844 22.796875 149.414062 22.59375 149.8125 C 22.390625 150.210938 22.101562 150.511719 21.734375 150.714844 C 21.359375 150.917969 20.960938 151.019531 20.53125 151.019531 C 20.0625 151.019531 19.644531 150.90625 19.277344 150.683594 C 18.90625 150.457031 18.628906 150.148438 18.441406 149.757812 C 18.25 149.367188 18.15625 148.953125 18.15625 148.515625 Z M 18.835938 148.523438 C 18.832031 149.125 18.992188 149.597656 19.316406 149.941406 C 19.636719 150.289062 20.039062 150.460938 20.527344 150.460938 C 21.019531 150.460938 21.425781 150.289062 21.746094 149.9375 C 22.066406 149.589844 22.226562 149.09375 22.226562 148.453125 C 22.226562 148.050781 22.152344 147.695312 22.019531 147.394531 C 21.878906 147.09375 21.683594 146.859375 21.421875 146.691406 C 21.15625 146.527344 20.863281 146.445312 20.539062 146.445312 C 20.070312 146.445312 19.667969 146.605469 19.335938 146.921875 C 19 147.242188 18.832031 147.777344 18.835938 148.523438 Z M 18.835938 148.523438 "/>
<path style=" stroke:none;fill-rule:nonzero;fill:rgb(0%,0%,0%);fill-opacity:1;" d="M 50.261719 164.878906 C 50.261719 164.058594 50.484375 163.414062 50.925781 162.941406 C 51.367188 162.480469 51.9375 162.246094 52.636719 162.242188 C 53.09375 162.246094 53.507812 162.355469 53.878906 162.570312 C 54.246094 162.792969 54.523438 163.097656 54.71875 163.488281 C 54.90625 163.882812 55.003906 164.328125 55.007812 164.824219 C 55.003906 165.332031 54.902344 165.78125 54.703125 166.175781 C 54.496094 166.578125 54.210938 166.878906 53.839844 167.082031 C 53.46875 167.285156 53.066406 167.386719 52.636719 167.386719 C 52.167969 167.386719 51.75 167.273438 51.382812 167.046875 C 51.011719 166.824219 50.734375 166.515625 50.546875 166.125 C 50.355469 165.734375 50.261719 165.320312 50.261719 164.878906 Z M 50.941406 164.890625 C 50.9375 165.492188 51.101562 165.964844 51.421875 166.308594 C 51.742188 166.65625 52.144531 166.828125 52.632812 166.824219 C 53.125 166.828125 53.53125 166.65625 53.851562 166.304688 C 54.171875 165.957031 54.332031 165.460938 54.332031 164.820312 C 54.332031 164.417969 54.261719 164.0625 54.125 163.761719 C 53.988281 163.457031 53.789062 163.226562 53.527344 163.058594 C 53.265625 162.894531 52.96875 162.808594 52.644531 162.808594 C 52.175781 162.808594 51.773438 162.96875 51.441406 163.289062 C 51.105469 163.609375 50.9375 164.144531 50.941406 164.890625 Z M 50.941406 164.890625 "/>
<path style=" stroke:none;fill-rule:nonzero;fill:rgb(0%,0%,0%);fill-opacity:1;" d="M 69.222656 56.324219 L 69.878906 56.492188 C 69.738281 57.035156 69.492188 57.445312 69.136719 57.730469 C 68.777344 58.011719 68.339844 58.152344 67.824219 58.15625 C 67.289062 58.152344 66.855469 58.046875 66.519531 57.828125 C 66.183594 57.613281 65.925781 57.292969 65.753906 56.878906 C 65.578125 56.46875 65.492188 56.023438 65.492188 55.546875 C 65.492188 55.03125 65.589844 54.582031 65.789062 54.191406 C 65.984375 53.808594 66.261719 53.515625 66.628906 53.3125 C 66.992188 53.117188 67.398438 53.015625 67.835938 53.011719 C 68.332031 53.015625 68.75 53.144531 69.085938 53.394531 C 69.425781 53.648438 69.660156 54.003906 69.792969 54.460938 L 69.148438 54.613281 C 69.03125 54.253906 68.863281 53.992188 68.644531 53.824219 C 68.421875 53.660156 68.148438 53.578125 67.820312 53.578125 C 67.4375 53.578125 67.117188 53.667969 66.863281 53.851562 C 66.605469 54.035156 66.425781 54.28125 66.324219 54.589844 C 66.222656 54.898438 66.171875 55.214844 66.171875 55.542969 C 66.171875 55.96875 66.230469 56.335938 66.355469 56.652344 C 66.472656 56.96875 66.664062 57.203125 66.925781 57.359375 C 67.1875 57.515625 67.46875 57.597656 67.769531 57.59375 C 68.140625 57.597656 68.449219 57.488281 68.703125 57.277344 C 68.960938 57.0625 69.128906 56.746094 69.222656 56.324219 Z M 69.222656 56.324219 "/>
<path style=" stroke:none;fill-rule:nonzero;fill:rgb(0%,0%,0%);fill-opacity:1;" d="M 46.546875 21.386719 L 47.207031 21.554688 C 47.066406 22.097656 46.820312 22.507812 46.460938 22.789062 C 46.105469 23.070312 45.664062 23.210938 45.152344 23.214844 C 44.613281 23.210938 44.179688 23.105469 43.84375 22.890625 C 43.507812 22.671875 43.253906 22.355469 43.078125 21.941406 C 42.902344 21.527344 42.816406 21.082031 42.820312 20.609375 C 42.816406 20.09375 42.917969 19.640625 43.113281 19.253906 C 43.308594 18.867188 43.589844 18.574219 43.957031 18.375 C 44.320312 18.175781 44.722656 18.074219 45.160156 18.074219 C 45.65625 18.074219 46.074219 18.203125 46.414062 18.453125 C 46.75 18.707031 46.988281 19.0625 47.121094 19.523438 L 46.476562 19.675781 C 46.355469 19.316406 46.1875 19.054688 45.972656 18.882812 C 45.75 18.722656 45.476562 18.636719 45.148438 18.636719 C 44.761719 18.636719 44.445312 18.730469 44.1875 18.910156 C 43.933594 19.097656 43.753906 19.34375 43.652344 19.648438 C 43.546875 19.960938 43.496094 20.277344 43.496094 20.605469 C 43.496094 21.027344 43.554688 21.398438 43.679688 21.710938 C 43.800781 22.03125 43.992188 22.265625 44.25 22.421875 C 44.511719 22.578125 44.792969 22.65625 45.097656 22.652344 C 45.464844 22.65625 45.777344 22.550781 46.03125 22.335938 C 46.285156 22.125 46.457031 21.808594 46.546875 21.386719 Z M 46.546875 21.386719 "/>
<path style="fill:none;stroke-width:0.0333333;stroke-linecap:butt;stroke-linejoin:miter;stroke:rgb(0%,0%,0%);stroke-opacity:1;stroke-miterlimit:10;" d="M 0.909288 2.436145 L 1.273101 1.721004 " transform="matrix(20.797546,0,0,20.838323,20.530444,20.644983)"/>
<path style="fill:none;stroke-width:0.0333333;stroke-linecap:butt;stroke-linejoin:miter;stroke:rgb(0%,0%,0%);stroke-opacity:1;stroke-miterlimit:10;" d="M 1.316675 3.544942 L 2.197564 3.498265 " transform="matrix(20.797546,0,0,20.838323,20.530444,20.644983)"/>
<path style="fill:none;stroke-width:0.0333333;stroke-linecap:butt;stroke-linejoin:miter;stroke:rgb(0%,0%,0%);stroke-opacity:1;stroke-miterlimit:10;" d="M 1.307848 3.378482 L 2.188736 3.331993 " transform="matrix(20.797546,0,0,20.838323,20.530444,20.644983)"/>
<path style="fill:none;stroke-width:0.0333333;stroke-linecap:butt;stroke-linejoin:miter;stroke:rgb(0%,0%,0%);stroke-opacity:1;stroke-miterlimit:10;" d="M 1.365697 3.467335 L 0.930512 2.797933 " transform="matrix(20.797546,0,0,20.838323,20.530444,20.644983)"/>
<path style="fill:none;stroke-width:0.0333333;stroke-linecap:butt;stroke-linejoin:miter;stroke:rgb(0%,0%,0%);stroke-opacity:1;stroke-miterlimit:10;" d="M 0.901775 4.342563 L 1.457355 5.196984 " transform="matrix(20.797546,0,0,20.838323,20.530444,20.644983)"/>
<path style="fill:none;stroke-width:0.0333333;stroke-linecap:butt;stroke-linejoin:miter;stroke:rgb(0%,0%,0%);stroke-opacity:1;stroke-miterlimit:10;" d="M 1.093918 4.332253 L 1.544692 5.025462 " transform="matrix(20.797546,0,0,20.838323,20.530444,20.644983)"/>
<path style="fill:none;stroke-width:0.0333333;stroke-linecap:butt;stroke-linejoin:miter;stroke:rgb(0%,0%,0%);stroke-opacity:1;stroke-miterlimit:10;" d="M 1.456416 5.1803 L 0.994184 6.088707 " transform="matrix(20.797546,0,0,20.838323,20.530444,20.644983)"/>
<path style="fill:none;stroke-width:0.0333333;stroke-linecap:butt;stroke-linejoin:miter;stroke:rgb(0%,0%,0%);stroke-opacity:1;stroke-miterlimit:10;" d="M 1.008083 6.079522 L 0.162693 6.124511 " transform="matrix(20.797546,0,0,20.838323,20.530444,20.644983)"/>
<path style="fill:none;stroke-width:0.0333333;stroke-linecap:butt;stroke-linejoin:miter;stroke:rgb(0%,0%,0%);stroke-opacity:1;stroke-miterlimit:10;" d="M 0.902527 6.085146 L 1.350859 6.774793 " transform="matrix(20.797546,0,0,20.838323,20.530444,20.644983)"/>
<path style="fill:none;stroke-width:0.0333333;stroke-linecap:butt;stroke-linejoin:miter;stroke:rgb(0%,0%,0%);stroke-opacity:1;stroke-miterlimit:10;" d="M 1.042267 5.994418 L 1.490599 6.684065 " transform="matrix(20.797546,0,0,20.838323,20.530444,20.644983)"/>
<path style="fill:none;stroke-width:0.0333333;stroke-linecap:butt;stroke-linejoin:miter;stroke:rgb(0%,0%,0%);stroke-opacity:1;stroke-miterlimit:10;" d="M 1.33959 1.735438 L 1.338651 1.71613 M 1.410587 1.741436 L 1.408333 1.702633 M 1.481208 1.747435 L 1.478203 1.689136 M 1.552017 1.753433 L 1.548073 1.675827 M 1.622826 1.759432 L 1.617755 1.66233 M 1.693636 1.76543 L 1.687625 1.648833 M 1.764445 1.771429 L 1.757307 1.635524 M 1.835442 1.777428 L 1.827177 1.622027 M 1.906251 1.783426 L 1.897047 1.608718 M 1.97706 1.789425 L 1.96673 1.595221 M 2.047681 1.795423 L 2.0366 1.581724 M 2.11849 1.801422 L 2.106282 1.568228 " transform="matrix(20.797546,0,0,20.838323,20.530444,20.644983)"/>
<path style="fill:none;stroke-width:0.0333333;stroke-linecap:butt;stroke-linejoin:miter;stroke:rgb(0%,0%,0%);stroke-opacity:1;stroke-miterlimit:10;" d="M 1.27404 1.7375 L 0.71846 0.883079 " transform="matrix(20.797546,0,0,20.838323,20.530444,20.644983)"/>
<path style="fill:none;stroke-width:0.0333333;stroke-linecap:butt;stroke-linejoin:miter;stroke:rgb(0%,0%,0%);stroke-opacity:1;stroke-miterlimit:10;" d="M 0.719399 0.899763 L 1.07908 0.192682 " transform="matrix(20.797546,0,0,20.838323,20.530444,20.644983)"/>
<path style="fill:none;stroke-width:0.0333333;stroke-linecap:butt;stroke-linejoin:miter;stroke:rgb(0%,0%,0%);stroke-opacity:1;stroke-miterlimit:10;" d="M 1.364758 3.450652 L 0.902714 4.359059 " transform="matrix(20.797546,0,0,20.838323,20.530444,20.644983)"/>
</g>
</svg>
