<?xml version="1.0" encoding="UTF-8"?>
<svg xmlns="http://www.w3.org/2000/svg" xmlns:xlink="http://www.w3.org/1999/xlink" width="257.6pt" height="72.8pt" viewBox="0 0 257.6 72.8" version="1.1">
<g id="surface582">
<path style=" stroke:none;fill-rule:nonzero;fill:rgb(0%,0%,0%);fill-opacity:1;" d="M 16.988281 54.59375 L 16.988281 49.621094 L 19.191406 49.621094 C 19.632812 49.621094 19.96875 49.667969 20.199219 49.757812 C 20.429688 49.847656 20.617188 50.003906 20.753906 50.230469 C 20.890625 50.457031 20.957031 50.707031 20.960938 50.980469 C 20.957031 51.335938 20.84375 51.632812 20.617188 51.871094 C 20.386719 52.117188 20.035156 52.265625 19.5625 52.332031 C 19.730469 52.417969 19.863281 52.5 19.957031 52.578125 C 20.148438 52.757812 20.332031 52.976562 20.503906 53.242188 L 21.367188 54.59375 L 20.539062 54.59375 L 19.882812 53.5625 C 19.691406 53.261719 19.53125 53.035156 19.410156 52.878906 C 19.28125 52.71875 19.171875 52.609375 19.074219 52.542969 C 18.972656 52.480469 18.871094 52.4375 18.773438 52.410156 C 18.699219 52.398438 18.578125 52.390625 18.410156 52.386719 L 17.648438 52.386719 L 17.648438 54.59375 Z M 17.648438 51.816406 L 19.058594 51.816406 C 19.359375 51.820312 19.59375 51.789062 19.765625 51.726562 C 19.933594 51.664062 20.058594 51.566406 20.148438 51.425781 C 20.234375 51.289062 20.28125 51.140625 20.28125 50.980469 C 20.28125 50.746094 20.195312 50.550781 20.027344 50.402344 C 19.855469 50.25 19.585938 50.175781 19.21875 50.171875 L 17.648438 50.171875 Z M 17.648438 51.816406 "/>
<path style=" stroke:none;fill-rule:nonzero;fill:rgb(0%,0%,0%);fill-opacity:1;" d="M 24.042969 54.59375 L 23.429688 54.59375 L 23.429688 50.703125 C 23.285156 50.84375 23.09375 50.988281 22.855469 51.128906 C 22.617188 51.269531 22.402344 51.375 22.210938 51.441406 L 22.210938 50.851562 C 22.554688 50.691406 22.851562 50.5 23.105469 50.269531 C 23.359375 50.042969 23.539062 49.820312 23.648438 49.601562 L 24.042969 49.601562 Z M 24.042969 54.59375 "/>
<path style=" stroke:none;fill-rule:nonzero;fill:rgb(0%,0%,0%);fill-opacity:1;" d="M 36.167969 20.90625 C 36.164062 20.082031 36.386719 19.4375 36.832031 18.96875 C 37.273438 18.503906 37.84375 18.269531 38.542969 18.265625 C 39 18.269531 39.414062 18.378906 39.785156 18.59375 C 40.152344 18.816406 40.429688 19.121094 40.625 19.511719 C 40.816406 19.910156 40.914062 20.355469 40.917969 20.847656 C 40.914062 21.355469 40.8125 21.804688 40.609375 22.203125 C 40.40625 22.601562 40.117188 22.902344 39.75 23.105469 C 39.375 23.308594 38.972656 23.410156 38.542969 23.410156 C 38.074219 23.410156 37.65625 23.296875 37.285156 23.074219 C 36.917969 22.847656 36.640625 22.539062 36.453125 22.148438 C 36.257812 21.757812 36.164062 21.34375 36.167969 20.90625 Z M 36.84375 20.914062 C 36.84375 21.515625 37.003906 21.988281 37.328125 22.332031 C 37.648438 22.679688 38.050781 22.851562 38.539062 22.851562 C 39.03125 22.851562 39.441406 22.679688 39.757812 22.328125 C 40.078125 21.980469 40.238281 21.484375 40.238281 20.84375 C 40.238281 20.441406 40.167969 20.089844 40.03125 19.785156 C 39.894531 19.484375 39.695312 19.25 39.433594 19.085938 C 39.171875 18.917969 38.875 18.835938 38.550781 18.835938 C 38.082031 18.835938 37.679688 18.996094 37.347656 19.316406 C 37.011719 19.636719 36.84375 20.167969 36.84375 20.914062 Z M 36.84375 20.914062 "/>
<path style=" stroke:none;fill-rule:nonzero;fill:rgb(0%,0%,0%);fill-opacity:1;" d="M 45.464844 55.320312 L 45.464844 48.964844 L 46.808594 48.964844 L 46.808594 49.472656 L 46.074219 49.472656 L 46.074219 54.816406 L 46.808594 54.816406 L 46.808594 55.320312 Z M 45.464844 55.320312 "/>
<path style=" stroke:none;fill-rule:nonzero;fill:rgb(0%,0%,0%);fill-opacity:1;" d="M 51 52.195312 L 51.660156 52.363281 C 51.519531 52.90625 51.273438 53.316406 50.914062 53.597656 C 50.558594 53.878906 50.117188 54.019531 49.601562 54.023438 C 49.066406 54.019531 48.632812 53.914062 48.296875 53.699219 C 47.960938 53.480469 47.703125 53.164062 47.527344 52.746094 C 47.351562 52.335938 47.265625 51.890625 47.269531 51.414062 C 47.265625 50.898438 47.367188 50.449219 47.5625 50.0625 C 47.757812 49.675781 48.039062 49.382812 48.40625 49.183594 C 48.769531 48.984375 49.175781 48.882812 49.613281 48.882812 C 50.109375 48.882812 50.527344 49.011719 50.867188 49.261719 C 51.203125 49.515625 51.441406 49.871094 51.574219 50.328125 L 50.929688 50.480469 C 50.808594 50.125 50.640625 49.859375 50.425781 49.691406 C 50.203125 49.53125 49.929688 49.445312 49.601562 49.445312 C 49.214844 49.445312 48.894531 49.539062 48.640625 49.71875 C 48.382812 49.902344 48.203125 50.152344 48.101562 50.457031 C 48 50.765625 47.945312 51.085938 47.945312 51.414062 C 47.945312 51.835938 48.007812 52.203125 48.132812 52.519531 C 48.25 52.835938 48.441406 53.074219 48.703125 53.226562 C 48.964844 53.386719 49.246094 53.464844 49.546875 53.460938 C 49.917969 53.464844 50.230469 53.359375 50.484375 53.144531 C 50.738281 52.933594 50.910156 52.613281 51 52.195312 Z M 51 52.195312 "/>
<path style=" stroke:none;fill-rule:nonzero;fill:rgb(0%,0%,0%);fill-opacity:1;" d="M 52.378906 53.9375 L 52.378906 48.964844 L 52.988281 48.964844 L 52.988281 53.9375 Z M 52.378906 53.9375 "/>
<path style=" stroke:none;fill-rule:nonzero;fill:rgb(0%,0%,0%);fill-opacity:1;" d="M 54.09375 53.9375 L 54.09375 53.246094 L 54.789062 53.246094 L 54.789062 53.9375 C 54.785156 54.195312 54.738281 54.398438 54.652344 54.558594 C 54.558594 54.714844 54.414062 54.835938 54.222656 54.925781 L 54.050781 54.660156 C 54.179688 54.601562 54.273438 54.519531 54.335938 54.410156 C 54.394531 54.300781 54.429688 54.144531 54.4375 53.9375 Z M 54.09375 53.9375 "/>
<path style=" stroke:none;fill-rule:nonzero;fill:rgb(0%,0%,0%);fill-opacity:1;" d="M 55.914062 53.9375 L 55.914062 48.964844 L 57.773438 48.964844 C 58.152344 48.964844 58.457031 49.015625 58.6875 49.117188 C 58.917969 49.21875 59.09375 49.375 59.226562 49.582031 C 59.355469 49.792969 59.421875 50.011719 59.421875 50.238281 C 59.421875 50.453125 59.363281 50.65625 59.25 50.839844 C 59.132812 51.03125 58.957031 51.179688 58.726562 51.292969 C 59.023438 51.382812 59.257812 51.535156 59.421875 51.746094 C 59.582031 51.960938 59.660156 52.210938 59.660156 52.5 C 59.660156 52.730469 59.609375 52.949219 59.515625 53.148438 C 59.414062 53.351562 59.296875 53.503906 59.152344 53.609375 C 59.007812 53.722656 58.824219 53.804688 58.609375 53.859375 C 58.386719 53.910156 58.121094 53.9375 57.804688 53.9375 Z M 56.570312 51.054688 L 57.640625 51.054688 C 57.933594 51.058594 58.140625 51.039062 58.269531 50.996094 C 58.433594 50.953125 58.5625 50.871094 58.648438 50.75 C 58.730469 50.636719 58.773438 50.488281 58.777344 50.316406 C 58.773438 50.152344 58.734375 50.011719 58.65625 49.882812 C 58.574219 49.757812 58.460938 49.671875 58.316406 49.625 C 58.167969 49.578125 57.917969 49.558594 57.5625 49.554688 L 56.570312 49.554688 Z M 56.570312 53.351562 L 57.804688 53.351562 C 58.015625 53.351562 58.164062 53.34375 58.253906 53.328125 C 58.402344 53.300781 58.527344 53.257812 58.632812 53.191406 C 58.734375 53.132812 58.820312 53.039062 58.882812 52.914062 C 58.949219 52.796875 58.980469 52.65625 58.980469 52.5 C 58.980469 52.3125 58.933594 52.152344 58.839844 52.015625 C 58.742188 51.878906 58.613281 51.785156 58.445312 51.726562 C 58.277344 51.671875 58.03125 51.644531 57.71875 51.644531 L 56.570312 51.644531 Z M 56.570312 53.351562 "/>
<path style=" stroke:none;fill-rule:nonzero;fill:rgb(0%,0%,0%);fill-opacity:1;" d="M 60.480469 53.9375 L 60.480469 50.335938 L 61.03125 50.335938 L 61.03125 50.882812 C 61.171875 50.628906 61.296875 50.460938 61.421875 50.375 C 61.535156 50.296875 61.667969 50.257812 61.808594 50.253906 C 62.015625 50.257812 62.226562 50.320312 62.4375 50.453125 L 62.226562 51.019531 C 62.078125 50.933594 61.929688 50.886719 61.78125 50.886719 C 61.644531 50.886719 61.523438 50.925781 61.421875 51.007812 C 61.3125 51.089844 61.238281 51.199219 61.195312 51.339844 C 61.125 51.558594 61.089844 51.796875 61.09375 52.054688 L 61.09375 53.9375 Z M 60.480469 53.9375 "/>
<path style=" stroke:none;fill-rule:nonzero;fill:rgb(0%,0%,0%);fill-opacity:1;" d="M 62.960938 53.9375 L 62.960938 53.246094 L 63.65625 53.246094 L 63.65625 53.9375 C 63.652344 54.195312 63.605469 54.398438 63.519531 54.558594 C 63.425781 54.714844 63.285156 54.835938 63.089844 54.925781 L 62.921875 54.660156 C 63.046875 54.601562 63.140625 54.519531 63.203125 54.410156 C 63.261719 54.300781 63.296875 54.144531 63.304688 53.9375 Z M 62.960938 53.9375 "/>
<path style=" stroke:none;fill-rule:nonzero;fill:rgb(0%,0%,0%);fill-opacity:1;" d="M 64.917969 53.9375 L 64.917969 48.964844 L 65.574219 48.964844 L 65.574219 53.9375 Z M 64.917969 53.9375 "/>
<path style=" stroke:none;fill-rule:nonzero;fill:rgb(0%,0%,0%);fill-opacity:1;" d="M 67.675781 55.320312 L 66.332031 55.320312 L 66.332031 54.816406 L 67.066406 54.816406 L 67.066406 49.472656 L 66.332031 49.472656 L 66.332031 48.964844 L 67.675781 48.964844 Z M 67.675781 55.320312 "/>
<path style="fill:none;stroke-width:0.0333333;stroke-linecap:butt;stroke-linejoin:miter;stroke:rgb(0%,0%,0%);stroke-opacity:1;stroke-miterlimit:10;" d="M 0.230158 1.367233 L 0.87429 0.995159 " transform="matrix(20.818966,0,0,20.839695,20.513026,20.839322)"/>
<path style="fill:none;stroke-width:0.0333333;stroke-linecap:butt;stroke-linejoin:miter;stroke:rgb(0%,0%,0%);stroke-opacity:1;stroke-miterlimit:10;" d="M 0.949342 1.048205 L 0.949342 0.166849 " transform="matrix(20.818966,0,0,20.839695,20.513026,20.839322)"/>
<path style="fill:none;stroke-width:0.0333333;stroke-linecap:butt;stroke-linejoin:miter;stroke:rgb(0%,0%,0%);stroke-opacity:1;stroke-miterlimit:10;" d="M 0.782727 1.048205 L 0.782727 0.166849 " transform="matrix(20.818966,0,0,20.839695,20.513026,20.839322)"/>
<path style="fill:none;stroke-width:0.0333333;stroke-linecap:butt;stroke-linejoin:miter;stroke:rgb(0%,0%,0%);stroke-opacity:1;stroke-miterlimit:10;" d="M 0.857591 0.995159 L 1.239417 1.215591 " transform="matrix(20.818966,0,0,20.839695,20.513026,20.839322)"/>
<path style="fill:none;stroke-width:0.0625;stroke-linecap:butt;stroke-linejoin:miter;stroke:rgb(0%,0%,0%);stroke-opacity:1;stroke-miterlimit:10;" d="M -0.0000231754 -0.000034274 L 0.500009 -0.000034274 M 0.250087 -0.250083 L 0.250087 0.250014 " transform="matrix(20.818966,0,0,20.839695,73.227045,36.469464)"/>
<path style=" stroke:none;fill-rule:nonzero;fill:rgb(0%,0%,0%);fill-opacity:1;" d="M 97.917969 41.746094 C 97.914062 40.921875 98.136719 40.277344 98.582031 39.808594 C 99.023438 39.34375 99.59375 39.109375 100.292969 39.105469 C 100.75 39.109375 101.164062 39.21875 101.535156 39.433594 C 101.902344 39.65625 102.179688 39.960938 102.375 40.351562 C 102.566406 40.75 102.664062 41.195312 102.667969 41.6875 C 102.664062 42.195312 102.558594 42.644531 102.359375 43.042969 C 102.152344 43.441406 101.867188 43.742188 101.496094 43.945312 C 101.125 44.148438 100.722656 44.25 100.292969 44.25 C 99.824219 44.25 99.40625 44.136719 99.035156 43.914062 C 98.667969 43.6875 98.386719 43.378906 98.203125 42.988281 C 98.007812 42.597656 97.914062 42.183594 97.917969 41.746094 Z M 98.59375 41.753906 C 98.59375 42.355469 98.753906 42.828125 99.078125 43.171875 C 99.398438 43.519531 99.800781 43.691406 100.289062 43.691406 C 100.78125 43.691406 101.1875 43.519531 101.507812 43.167969 C 101.828125 42.820312 101.988281 42.324219 101.988281 41.683594 C 101.988281 41.28125 101.917969 40.929688 101.78125 40.625 C 101.644531 40.324219 101.445312 40.089844 101.183594 39.921875 C 100.921875 39.757812 100.625 39.675781 100.300781 39.675781 C 99.832031 39.675781 99.429688 39.835938 99.097656 40.15625 C 98.761719 40.472656 98.59375 41.007812 98.59375 41.753906 Z M 98.59375 41.753906 "/>
<path style=" stroke:none;fill-rule:nonzero;fill:rgb(0%,0%,0%);fill-opacity:1;" d="M 114.339844 33.757812 L 114.339844 28.78125 L 116.546875 28.78125 C 116.988281 28.78125 117.324219 28.828125 117.554688 28.917969 C 117.785156 29.007812 117.96875 29.164062 118.105469 29.390625 C 118.242188 29.617188 118.308594 29.867188 118.3125 30.140625 C 118.308594 30.496094 118.195312 30.792969 117.972656 31.03125 C 117.742188 31.277344 117.386719 31.429688 116.914062 31.492188 C 117.085938 31.578125 117.21875 31.660156 117.308594 31.738281 C 117.503906 31.917969 117.683594 32.140625 117.859375 32.402344 L 118.71875 33.757812 L 117.894531 33.757812 L 117.238281 32.722656 C 117.042969 32.421875 116.882812 32.195312 116.761719 32.039062 C 116.636719 31.882812 116.523438 31.769531 116.425781 31.703125 C 116.324219 31.640625 116.226562 31.597656 116.128906 31.570312 C 116.050781 31.558594 115.929688 31.550781 115.761719 31.546875 L 115 31.546875 L 115 33.757812 Z M 115 30.976562 L 116.414062 30.976562 C 116.710938 30.980469 116.945312 30.949219 117.117188 30.886719 C 117.285156 30.824219 117.414062 30.726562 117.503906 30.585938 C 117.589844 30.449219 117.636719 30.300781 117.636719 30.140625 C 117.636719 29.90625 117.546875 29.710938 117.378906 29.5625 C 117.207031 29.410156 116.9375 29.335938 116.574219 29.332031 L 115 29.332031 Z M 115 30.976562 "/>
<path style=" stroke:none;fill-rule:nonzero;fill:rgb(0%,0%,0%);fill-opacity:1;" d="M 122.300781 33.167969 L 122.300781 33.757812 L 119.019531 33.757812 C 119.015625 33.609375 119.035156 33.46875 119.089844 33.332031 C 119.171875 33.109375 119.308594 32.890625 119.492188 32.671875 C 119.675781 32.457031 119.941406 32.203125 120.289062 31.917969 C 120.828125 31.472656 121.191406 31.125 121.382812 30.863281 C 121.570312 30.605469 121.664062 30.363281 121.667969 30.128906 C 121.664062 29.890625 121.578125 29.6875 121.40625 29.515625 C 121.234375 29.355469 121.007812 29.269531 120.734375 29.269531 C 120.4375 29.269531 120.203125 29.359375 120.027344 29.535156 C 119.851562 29.710938 119.761719 29.957031 119.761719 30.265625 L 119.132812 30.203125 C 119.175781 29.734375 119.335938 29.375 119.617188 29.132812 C 119.894531 28.886719 120.273438 28.765625 120.746094 28.761719 C 121.222656 28.765625 121.597656 28.898438 121.878906 29.160156 C 122.152344 29.425781 122.292969 29.753906 122.292969 30.144531 C 122.292969 30.34375 122.25 30.539062 122.171875 30.730469 C 122.089844 30.925781 121.957031 31.125 121.769531 31.339844 C 121.578125 31.550781 121.265625 31.84375 120.828125 32.210938 C 120.460938 32.519531 120.226562 32.730469 120.125 32.839844 C 120.015625 32.949219 119.933594 33.058594 119.867188 33.167969 Z M 122.300781 33.167969 "/>
<path style="fill:none;stroke-width:0.0333333;stroke-linecap:butt;stroke-linejoin:miter;stroke:rgb(0%,0%,0%);stroke-opacity:1;stroke-miterlimit:10;" d="M 0.190317 0.390179 L 0.619613 0.14238 " transform="matrix(20.818966,0,0,20.839695,100.291699,31.259416)"/>
<path style=" stroke:none;fill-rule:nonzero;fill:rgb(0%,0%,0%);fill-opacity:1;" d="M 134.976562 37.121094 L 161 37.121094 L 161 39.074219 L 166.203125 36.46875 L 161 33.863281 L 161 35.816406 L 134.976562 35.816406 "/>
<path style=" stroke:none;fill-rule:nonzero;fill:rgb(0%,0%,0%);fill-opacity:1;" d="M 179.335938 54.59375 L 179.335938 49.621094 L 181.539062 49.621094 C 181.980469 49.621094 182.316406 49.667969 182.546875 49.757812 C 182.777344 49.847656 182.964844 50.003906 183.101562 50.230469 C 183.238281 50.457031 183.304688 50.707031 183.308594 50.980469 C 183.304688 51.335938 183.191406 51.632812 182.964844 51.871094 C 182.734375 52.117188 182.382812 52.265625 181.910156 52.332031 C 182.078125 52.417969 182.210938 52.5 182.304688 52.578125 C 182.496094 52.757812 182.679688 52.976562 182.851562 53.242188 L 183.714844 54.59375 L 182.886719 54.59375 L 182.230469 53.5625 C 182.039062 53.261719 181.878906 53.035156 181.757812 52.878906 C 181.628906 52.71875 181.519531 52.609375 181.421875 52.542969 C 181.320312 52.480469 181.21875 52.4375 181.121094 52.410156 C 181.046875 52.398438 180.925781 52.390625 180.757812 52.386719 L 179.996094 52.386719 L 179.996094 54.59375 Z M 179.996094 51.816406 L 181.40625 51.816406 C 181.707031 51.820312 181.941406 51.789062 182.113281 51.726562 C 182.28125 51.664062 182.40625 51.566406 182.496094 51.425781 C 182.582031 51.289062 182.628906 51.140625 182.628906 50.980469 C 182.628906 50.746094 182.542969 50.550781 182.375 50.402344 C 182.203125 50.25 181.933594 50.175781 181.566406 50.171875 L 179.996094 50.171875 Z M 179.996094 51.816406 "/>
<path style=" stroke:none;fill-rule:nonzero;fill:rgb(0%,0%,0%);fill-opacity:1;" d="M 186.390625 54.59375 L 185.777344 54.59375 L 185.777344 50.703125 C 185.632812 50.84375 185.441406 50.988281 185.203125 51.128906 C 184.960938 51.269531 184.75 51.375 184.558594 51.441406 L 184.558594 50.851562 C 184.902344 50.691406 185.199219 50.5 185.453125 50.269531 C 185.707031 50.042969 185.886719 49.820312 185.996094 49.601562 L 186.390625 49.601562 Z M 186.390625 54.59375 "/>
<path style=" stroke:none;fill-rule:nonzero;fill:rgb(0%,0%,0%);fill-opacity:1;" d="M 198.515625 20.90625 C 198.511719 20.082031 198.734375 19.4375 199.179688 18.96875 C 199.621094 18.503906 200.191406 18.269531 200.890625 18.265625 C 201.347656 18.269531 201.761719 18.378906 202.132812 18.59375 C 202.5 18.816406 202.777344 19.121094 202.972656 19.511719 C 203.164062 19.910156 203.261719 20.355469 203.265625 20.847656 C 203.261719 21.355469 203.160156 21.804688 202.957031 22.203125 C 202.75 22.601562 202.464844 22.902344 202.097656 23.105469 C 201.722656 23.308594 201.320312 23.410156 200.890625 23.410156 C 200.421875 23.410156 200.003906 23.296875 199.632812 23.074219 C 199.265625 22.847656 198.988281 22.539062 198.800781 22.148438 C 198.605469 21.757812 198.511719 21.34375 198.515625 20.90625 Z M 199.191406 20.914062 C 199.191406 21.515625 199.351562 21.988281 199.675781 22.332031 C 199.996094 22.679688 200.398438 22.851562 200.886719 22.851562 C 201.378906 22.851562 201.785156 22.679688 202.105469 22.328125 C 202.425781 21.980469 202.585938 21.484375 202.585938 20.84375 C 202.585938 20.441406 202.515625 20.089844 202.378906 19.785156 C 202.242188 19.484375 202.042969 19.25 201.78125 19.085938 C 201.519531 18.917969 201.222656 18.835938 200.898438 18.835938 C 200.429688 18.835938 200.027344 18.996094 199.695312 19.316406 C 199.359375 19.636719 199.191406 20.167969 199.191406 20.914062 Z M 199.191406 20.914062 "/>
<path style=" stroke:none;fill-rule:nonzero;fill:rgb(0%,0%,0%);fill-opacity:1;" d="M 216.542969 52.164062 C 216.542969 51.34375 216.765625 50.695312 217.207031 50.226562 C 217.648438 49.761719 218.21875 49.53125 218.921875 49.527344 C 219.378906 49.53125 219.792969 49.636719 220.164062 49.855469 C 220.527344 50.074219 220.808594 50.382812 221.003906 50.773438 C 221.195312 51.167969 221.289062 51.613281 221.292969 52.105469 C 221.289062 52.613281 221.1875 53.066406 220.988281 53.460938 C 220.78125 53.859375 220.492188 54.160156 220.125 54.363281 C 219.75 54.570312 219.351562 54.667969 218.917969 54.671875 C 218.449219 54.667969 218.03125 54.558594 217.664062 54.332031 C 217.296875 54.105469 217.015625 53.796875 216.828125 53.40625 C 216.636719 53.015625 216.542969 52.605469 216.542969 52.164062 Z M 217.222656 52.175781 C 217.21875 52.773438 217.382812 53.246094 217.703125 53.589844 C 218.023438 53.9375 218.429688 54.113281 218.917969 54.109375 C 219.410156 54.113281 219.816406 53.9375 220.136719 53.589844 C 220.457031 53.242188 220.617188 52.746094 220.617188 52.105469 C 220.617188 51.699219 220.546875 51.347656 220.410156 51.042969 C 220.273438 50.742188 220.074219 50.507812 219.8125 50.34375 C 219.546875 50.179688 219.253906 50.09375 218.925781 50.09375 C 218.457031 50.09375 218.058594 50.253906 217.722656 50.574219 C 217.386719 50.894531 217.21875 51.429688 217.222656 52.175781 Z M 217.222656 52.175781 "/>
<path style=" stroke:none;fill-rule:nonzero;fill:rgb(0%,0%,0%);fill-opacity:1;" d="M 232.96875 44.175781 L 232.96875 39.203125 L 235.171875 39.203125 C 235.613281 39.203125 235.949219 39.25 236.179688 39.335938 C 236.410156 39.425781 236.597656 39.585938 236.734375 39.808594 C 236.871094 40.039062 236.9375 40.289062 236.941406 40.558594 C 236.9375 40.914062 236.824219 41.210938 236.597656 41.453125 C 236.367188 41.695312 236.015625 41.847656 235.542969 41.914062 C 235.710938 41.996094 235.84375 42.082031 235.9375 42.160156 C 236.128906 42.339844 236.3125 42.558594 236.484375 42.820312 L 237.347656 44.175781 L 236.519531 44.175781 L 235.863281 43.140625 C 235.671875 42.84375 235.511719 42.617188 235.390625 42.457031 C 235.261719 42.300781 235.152344 42.191406 235.054688 42.125 C 234.953125 42.0625 234.851562 42.019531 234.753906 41.992188 C 234.679688 41.976562 234.558594 41.96875 234.390625 41.96875 L 233.628906 41.96875 L 233.628906 44.175781 Z M 233.628906 41.398438 L 235.039062 41.398438 C 235.339844 41.398438 235.574219 41.371094 235.746094 41.304688 C 235.914062 41.246094 236.039062 41.144531 236.128906 41.007812 C 236.214844 40.871094 236.261719 40.722656 236.261719 40.558594 C 236.261719 40.324219 236.175781 40.132812 236.007812 39.980469 C 235.835938 39.832031 235.566406 39.753906 235.199219 39.753906 L 233.628906 39.753906 Z M 233.628906 41.398438 "/>
<path style=" stroke:none;fill-rule:nonzero;fill:rgb(0%,0%,0%);fill-opacity:1;" d="M 240.929688 43.589844 L 240.929688 44.175781 L 237.648438 44.175781 C 237.640625 44.027344 237.664062 43.886719 237.71875 43.753906 C 237.800781 43.53125 237.933594 43.308594 238.117188 43.089844 C 238.304688 42.875 238.570312 42.625 238.914062 42.335938 C 239.457031 41.894531 239.820312 41.542969 240.011719 41.285156 C 240.199219 41.027344 240.292969 40.78125 240.296875 40.550781 C 240.292969 40.308594 240.207031 40.105469 240.035156 39.9375 C 239.863281 39.773438 239.636719 39.691406 239.359375 39.6875 C 239.066406 39.691406 238.832031 39.78125 238.65625 39.953125 C 238.480469 40.132812 238.390625 40.375 238.386719 40.6875 L 237.761719 40.621094 C 237.804688 40.15625 237.964844 39.796875 238.246094 39.550781 C 238.523438 39.308594 238.898438 39.1875 239.375 39.183594 C 239.847656 39.1875 240.226562 39.320312 240.503906 39.578125 C 240.78125 39.84375 240.917969 40.171875 240.921875 40.5625 C 240.917969 40.765625 240.878906 40.960938 240.800781 41.148438 C 240.714844 41.34375 240.582031 41.546875 240.394531 41.757812 C 240.207031 41.96875 239.890625 42.261719 239.457031 42.632812 C 239.089844 42.941406 238.855469 43.148438 238.75 43.257812 C 238.644531 43.371094 238.5625 43.476562 238.492188 43.589844 Z M 240.929688 43.589844 "/>
<path style="fill:none;stroke-width:0.0333333;stroke-linecap:butt;stroke-linejoin:miter;stroke:rgb(0%,0%,0%);stroke-opacity:1;stroke-miterlimit:10;" d="M 0.230195 1.367232 L 0.874327 0.995158 " transform="matrix(20.818966,0,0,20.839695,182.859921,20.839328)"/>
<path style="fill:none;stroke-width:0.0333333;stroke-linecap:butt;stroke-linejoin:miter;stroke:rgb(0%,0%,0%);stroke-opacity:1;stroke-miterlimit:10;" d="M 0.949379 1.048205 L 0.949379 0.166849 " transform="matrix(20.818966,0,0,20.839695,182.859921,20.839328)"/>
<path style="fill:none;stroke-width:0.0333333;stroke-linecap:butt;stroke-linejoin:miter;stroke:rgb(0%,0%,0%);stroke-opacity:1;stroke-miterlimit:10;" d="M 0.782764 1.048205 L 0.782764 0.166849 " transform="matrix(20.818966,0,0,20.839695,182.859921,20.839328)"/>
<path style="fill:none;stroke-width:0.0333333;stroke-linecap:butt;stroke-linejoin:miter;stroke:rgb(0%,0%,0%);stroke-opacity:1;stroke-miterlimit:10;" d="M 0.857628 0.995158 L 1.541725 1.3901 " transform="matrix(20.818966,0,0,20.839695,182.859921,20.839328)"/>
<path style="fill:none;stroke-width:0.0333333;stroke-linecap:butt;stroke-linejoin:miter;stroke:rgb(0%,0%,0%);stroke-opacity:1;stroke-miterlimit:10;" d="M 1.922237 1.3901 L 2.351533 1.142301 " transform="matrix(20.818966,0,0,20.839695,182.859921,20.839328)"/>
</g>
</svg>
