<?xml version="1.0" encoding="UTF-8"?>
<svg xmlns="http://www.w3.org/2000/svg" xmlns:xlink="http://www.w3.org/1999/xlink" width="83.2pt" height="76.8pt" viewBox="0 0 83.2 76.8" version="1.1">
<g id="surface687">
<path style=" stroke:none;fill-rule:nonzero;fill:rgb(0%,0%,0%);fill-opacity:1;" d="M 60.445312 22.859375 L 60.445312 17.914062 L 61.117188 17.914062 L 63.722656 21.796875 L 63.722656 17.914062 L 64.355469 17.914062 L 64.355469 22.859375 L 63.679688 22.859375 L 61.074219 18.972656 L 61.074219 22.859375 Z M 60.445312 22.859375 "/>
<path style=" stroke:none;fill-rule:nonzero;fill:rgb(0%,0%,0%);fill-opacity:1;" d="M 18.425781 56.339844 C 18.425781 55.523438 18.648438 54.878906 19.089844 54.414062 C 19.53125 53.953125 20.101562 53.71875 20.800781 53.714844 C 21.257812 53.71875 21.671875 53.828125 22.042969 54.042969 C 22.410156 54.261719 22.6875 54.566406 22.882812 54.953125 C 23.074219 55.347656 23.167969 55.792969 23.171875 56.28125 C 23.167969 56.785156 23.066406 57.234375 22.867188 57.628906 C 22.660156 58.023438 22.375 58.324219 22.003906 58.527344 C 21.632812 58.730469 21.230469 58.828125 20.800781 58.832031 C 20.332031 58.828125 19.914062 58.71875 19.546875 58.496094 C 19.175781 58.269531 18.898438 57.964844 18.710938 57.574219 C 18.519531 57.1875 18.425781 56.777344 18.425781 56.339844 Z M 19.105469 56.351562 C 19.101562 56.945312 19.265625 57.414062 19.585938 57.757812 C 19.90625 58.101562 20.308594 58.277344 20.796875 58.273438 C 21.289062 58.277344 21.695312 58.101562 22.015625 57.753906 C 22.335938 57.410156 22.496094 56.917969 22.496094 56.28125 C 22.496094 55.878906 22.425781 55.527344 22.289062 55.226562 C 22.152344 54.925781 21.953125 54.691406 21.691406 54.527344 C 21.429688 54.363281 21.132812 54.28125 20.808594 54.28125 C 20.339844 54.28125 19.9375 54.441406 19.605469 54.757812 C 19.269531 55.078125 19.101562 55.609375 19.105469 56.351562 Z M 19.105469 56.351562 "/>
<path style="fill:none;stroke-width:0.0333333;stroke-linecap:butt;stroke-linejoin:miter;stroke:rgb(0%,0%,0%);stroke-opacity:1;stroke-miterlimit:10;" d="M 1.495132 0.874361 L 1.895335 0.18151 " transform="matrix(20.8,0,0,20.719424,20.799693,20.387651)"/>
<path style="fill:none;stroke-width:0.0333333;stroke-linecap:butt;stroke-linejoin:miter;stroke:rgb(0%,0%,0%);stroke-opacity:1;stroke-miterlimit:10;" d="M 1.509593 0.866066 L 0.490399 0.866066 " transform="matrix(20.8,0,0,20.719424,20.799693,20.387651)"/>
<path style="fill:none;stroke-width:0.0333333;stroke-linecap:butt;stroke-linejoin:miter;stroke:rgb(0%,0%,0%);stroke-opacity:1;stroke-miterlimit:10;" d="M 1.413439 1.032727 L 0.586553 1.032727 " transform="matrix(20.8,0,0,20.719424,20.799693,20.387651)"/>
<path style="fill:none;stroke-width:0.0333333;stroke-linecap:butt;stroke-linejoin:miter;stroke:rgb(0%,0%,0%);stroke-opacity:1;stroke-miterlimit:10;" d="M 0.50486 0.85777 L 0.111606 1.538744 " transform="matrix(20.8,0,0,20.719424,20.799693,20.387651)"/>
</g>
</svg>
