<?xml version="1.0" encoding="UTF-8"?>
<svg xmlns="http://www.w3.org/2000/svg" xmlns:xlink="http://www.w3.org/1999/xlink" width="84pt" height="78.4pt" viewBox="0 0 84 78.4" version="1.1">
<g id="surface782">
<path style=" stroke:none;fill-rule:nonzero;fill:rgb(0%,0%,0%);fill-opacity:1;" d="M 49.703125 13.824219 L 50.363281 13.992188 C 50.222656 14.535156 49.972656 14.945312 49.617188 15.226562 C 49.257812 15.511719 48.816406 15.652344 48.300781 15.65625 C 47.761719 15.652344 47.328125 15.546875 46.992188 15.328125 C 46.65625 15.113281 46.398438 14.792969 46.222656 14.378906 C 46.046875 13.964844 45.960938 13.519531 45.960938 13.046875 C 45.960938 12.53125 46.058594 12.078125 46.257812 11.691406 C 46.453125 11.304688 46.734375 11.011719 47.101562 10.8125 C 47.464844 10.613281 47.871094 10.511719 48.3125 10.507812 C 48.808594 10.511719 49.226562 10.640625 49.566406 10.890625 C 49.90625 11.144531 50.140625 11.5 50.273438 11.960938 L 49.628906 12.113281 C 49.507812 11.753906 49.339844 11.488281 49.125 11.320312 C 48.902344 11.160156 48.625 11.074219 48.296875 11.074219 C 47.914062 11.074219 47.589844 11.167969 47.335938 11.347656 C 47.078125 11.535156 46.898438 11.78125 46.796875 12.085938 C 46.691406 12.398438 46.640625 12.714844 46.640625 13.042969 C 46.640625 13.464844 46.699219 13.835938 46.824219 14.152344 C 46.945312 14.46875 47.136719 14.703125 47.398438 14.859375 C 47.660156 15.015625 47.941406 15.09375 48.246094 15.09375 C 48.617188 15.09375 48.929688 14.988281 49.183594 14.773438 C 49.4375 14.5625 49.609375 14.246094 49.703125 13.824219 Z M 49.703125 13.824219 "/>
<path style=" stroke:none;fill-rule:nonzero;fill:rgb(0%,0%,0%);fill-opacity:1;" d="M 51.09375 15.570312 L 51.09375 10.59375 L 51.707031 10.59375 L 51.707031 12.378906 C 51.988281 12.050781 52.347656 11.886719 52.785156 11.882812 C 53.050781 11.886719 53.285156 11.9375 53.480469 12.042969 C 53.675781 12.148438 53.816406 12.296875 53.902344 12.480469 C 53.988281 12.667969 54.027344 12.9375 54.03125 13.289062 L 54.03125 15.570312 L 53.421875 15.570312 L 53.421875 13.289062 C 53.417969 12.984375 53.351562 12.761719 53.222656 12.621094 C 53.089844 12.480469 52.902344 12.410156 52.660156 12.410156 C 52.476562 12.410156 52.304688 12.460938 52.148438 12.550781 C 51.984375 12.648438 51.871094 12.777344 51.808594 12.933594 C 51.734375 13.097656 51.703125 13.316406 51.707031 13.597656 L 51.707031 15.570312 Z M 51.09375 15.570312 "/>
<path style=" stroke:none;fill-rule:nonzero;fill:rgb(0%,0%,0%);fill-opacity:1;" d="M 54.964844 11.296875 L 54.964844 10.59375 L 55.578125 10.59375 L 55.578125 11.296875 Z M 54.964844 15.570312 L 54.964844 11.964844 L 55.578125 11.964844 L 55.578125 15.570312 Z M 54.964844 15.570312 "/>
<path style=" stroke:none;fill-rule:nonzero;fill:rgb(0%,0%,0%);fill-opacity:1;" d="M 56.5 15.570312 L 56.5 11.964844 L 57.050781 11.964844 L 57.050781 12.511719 C 57.1875 12.257812 57.316406 12.089844 57.4375 12.003906 C 57.554688 11.925781 57.6875 11.886719 57.828125 11.882812 C 58.035156 11.886719 58.246094 11.953125 58.460938 12.082031 L 58.25 12.648438 C 58.097656 12.5625 57.949219 12.515625 57.800781 12.515625 C 57.664062 12.515625 57.542969 12.558594 57.4375 12.636719 C 57.332031 12.71875 57.257812 12.832031 57.214844 12.96875 C 57.144531 13.1875 57.109375 13.429688 57.109375 13.683594 L 57.109375 15.570312 Z M 56.5 15.570312 "/>
<path style=" stroke:none;fill-rule:nonzero;fill:rgb(0%,0%,0%);fill-opacity:1;" d="M 61.175781 15.125 C 60.945312 15.320312 60.726562 15.457031 60.519531 15.53125 C 60.308594 15.613281 60.085938 15.652344 59.847656 15.652344 C 59.449219 15.652344 59.144531 15.558594 58.933594 15.363281 C 58.722656 15.171875 58.617188 14.925781 58.617188 14.621094 C 58.617188 14.445312 58.65625 14.285156 58.734375 14.136719 C 58.8125 13.992188 58.917969 13.875 59.050781 13.785156 C 59.179688 13.699219 59.324219 13.632812 59.492188 13.585938 C 59.609375 13.554688 59.789062 13.523438 60.035156 13.492188 C 60.527344 13.433594 60.890625 13.363281 61.125 13.28125 C 61.125 13.199219 61.125 13.148438 61.128906 13.125 C 61.125 12.878906 61.070312 12.699219 60.953125 12.597656 C 60.796875 12.460938 60.5625 12.394531 60.257812 12.390625 C 59.96875 12.394531 59.757812 12.445312 59.621094 12.542969 C 59.484375 12.644531 59.382812 12.824219 59.316406 13.074219 L 58.71875 12.992188 C 58.769531 12.742188 58.859375 12.535156 58.988281 12.375 C 59.109375 12.21875 59.292969 12.097656 59.527344 12.011719 C 59.761719 11.925781 60.035156 11.886719 60.347656 11.882812 C 60.652344 11.886719 60.902344 11.921875 61.097656 11.992188 C 61.289062 12.066406 61.429688 12.15625 61.523438 12.265625 C 61.609375 12.378906 61.675781 12.519531 61.714844 12.683594 C 61.730469 12.789062 61.738281 12.976562 61.742188 13.246094 L 61.742188 14.0625 C 61.738281 14.628906 61.753906 14.988281 61.78125 15.140625 C 61.804688 15.289062 61.855469 15.433594 61.9375 15.570312 L 61.296875 15.570312 C 61.230469 15.445312 61.191406 15.300781 61.175781 15.125 Z M 61.125 13.761719 C 60.902344 13.855469 60.570312 13.933594 60.125 13.992188 C 59.875 14.03125 59.695312 14.070312 59.589844 14.113281 C 59.484375 14.164062 59.40625 14.230469 59.351562 14.3125 C 59.296875 14.402344 59.269531 14.5 59.269531 14.605469 C 59.269531 14.769531 59.328125 14.90625 59.453125 15.011719 C 59.574219 15.121094 59.753906 15.175781 59.992188 15.175781 C 60.226562 15.175781 60.4375 15.125 60.621094 15.019531 C 60.804688 14.917969 60.9375 14.777344 61.027344 14.597656 C 61.089844 14.460938 61.121094 14.257812 61.125 13.984375 Z M 61.125 13.761719 "/>
<path style=" stroke:none;fill-rule:nonzero;fill:rgb(0%,0%,0%);fill-opacity:1;" d="M 62.675781 15.570312 L 62.675781 10.59375 L 63.289062 10.59375 L 63.289062 15.570312 Z M 62.675781 15.570312 "/>
<path style=" stroke:none;fill-rule:nonzero;fill:rgb(0%,0%,0%);fill-opacity:1;" d="M 22.394531 57.648438 L 23.054688 57.816406 C 22.910156 58.359375 22.664062 58.769531 22.304688 59.054688 C 21.949219 59.335938 21.507812 59.476562 20.992188 59.480469 C 20.453125 59.476562 20.019531 59.371094 19.683594 59.152344 C 19.34375 58.9375 19.085938 58.621094 18.914062 58.203125 C 18.738281 57.792969 18.648438 57.347656 18.652344 56.871094 C 18.648438 56.355469 18.75 55.902344 18.949219 55.515625 C 19.144531 55.128906 19.425781 54.835938 19.792969 54.636719 C 20.15625 54.4375 20.5625 54.335938 21.003906 54.335938 C 21.5 54.335938 21.917969 54.464844 22.257812 54.714844 C 22.597656 54.96875 22.832031 55.324219 22.964844 55.785156 L 22.320312 55.9375 C 22.199219 55.578125 22.03125 55.316406 21.8125 55.148438 C 21.589844 54.984375 21.316406 54.898438 20.988281 54.898438 C 20.601562 54.898438 20.28125 54.992188 20.027344 55.175781 C 19.769531 55.359375 19.589844 55.605469 19.488281 55.914062 C 19.382812 56.222656 19.332031 56.539062 19.332031 56.867188 C 19.332031 57.292969 19.390625 57.660156 19.515625 57.976562 C 19.636719 58.292969 19.828125 58.53125 20.089844 58.683594 C 20.351562 58.84375 20.632812 58.921875 20.9375 58.917969 C 21.304688 58.921875 21.617188 58.816406 21.875 58.601562 C 22.128906 58.386719 22.300781 58.070312 22.394531 57.648438 Z M 22.394531 57.648438 "/>
<path style=" stroke:none;fill-rule:nonzero;fill:rgb(0%,0%,0%);fill-opacity:1;" d="M 50.535156 41.964844 L 50.535156 36.988281 L 51.210938 36.988281 L 53.824219 40.894531 L 53.824219 36.988281 L 54.457031 36.988281 L 54.457031 41.964844 L 53.78125 41.964844 L 51.167969 38.054688 L 51.167969 41.964844 Z M 50.535156 41.964844 "/>
<path style=" stroke:none;fill-rule:nonzero;fill:rgb(0%,0%,0%);fill-opacity:1;" d="M 22.449219 21.539062 L 23.109375 21.710938 C 22.96875 22.253906 22.722656 22.660156 22.363281 22.945312 C 22.003906 23.226562 21.5625 23.367188 21.046875 23.371094 C 20.511719 23.367188 20.074219 23.261719 19.738281 23.042969 C 19.402344 22.828125 19.144531 22.511719 18.96875 22.09375 C 18.792969 21.683594 18.707031 21.238281 18.710938 20.761719 C 18.707031 20.246094 18.808594 19.796875 19.003906 19.40625 C 19.203125 19.019531 19.480469 18.726562 19.851562 18.527344 C 20.214844 18.328125 20.621094 18.226562 21.058594 18.226562 C 21.554688 18.226562 21.972656 18.355469 22.3125 18.605469 C 22.652344 18.859375 22.890625 19.214844 23.023438 19.675781 L 22.375 19.828125 C 22.257812 19.46875 22.089844 19.207031 21.871094 19.039062 C 21.648438 18.875 21.375 18.789062 21.046875 18.789062 C 20.660156 18.789062 20.339844 18.882812 20.085938 19.066406 C 19.824219 19.25 19.648438 19.496094 19.542969 19.804688 C 19.441406 20.113281 19.390625 20.429688 19.390625 20.757812 C 19.390625 21.183594 19.449219 21.550781 19.574219 21.867188 C 19.691406 22.183594 19.886719 22.421875 20.148438 22.574219 C 20.40625 22.734375 20.691406 22.8125 20.992188 22.808594 C 21.363281 22.8125 21.675781 22.707031 21.929688 22.492188 C 22.1875 22.277344 22.359375 21.960938 22.449219 21.539062 Z M 22.449219 21.539062 "/>
<path style=" stroke:none;fill-rule:nonzero;fill:rgb(0%,0%,0%);fill-opacity:1;" d="M 23.828125 23.285156 L 23.828125 18.308594 L 24.441406 18.308594 L 24.441406 23.285156 Z M 23.828125 23.285156 "/>
<path style=" stroke:none;fill-rule:nonzero;fill:rgb(0%,0%,0%);fill-opacity:1;" d="M 61.308594 22.523438 L 61.929688 22.46875 C 61.957031 22.71875 62.027344 22.925781 62.132812 23.082031 C 62.242188 23.246094 62.410156 23.375 62.636719 23.472656 C 62.863281 23.570312 63.117188 23.617188 63.398438 23.617188 C 63.648438 23.617188 63.871094 23.582031 64.066406 23.507812 C 64.257812 23.433594 64.398438 23.328125 64.496094 23.195312 C 64.585938 23.070312 64.632812 22.925781 64.636719 22.769531 C 64.632812 22.617188 64.589844 22.480469 64.5 22.363281 C 64.40625 22.246094 64.257812 22.148438 64.050781 22.070312 C 63.917969 22.019531 63.621094 21.941406 63.164062 21.828125 C 62.707031 21.71875 62.386719 21.613281 62.207031 21.515625 C 61.964844 21.390625 61.789062 21.238281 61.671875 21.050781 C 61.554688 20.867188 61.496094 20.660156 61.5 20.433594 C 61.496094 20.183594 61.570312 19.949219 61.714844 19.730469 C 61.855469 19.511719 62.0625 19.347656 62.339844 19.234375 C 62.609375 19.121094 62.914062 19.066406 63.25 19.0625 C 63.617188 19.066406 63.945312 19.125 64.226562 19.242188 C 64.507812 19.359375 64.722656 19.535156 64.878906 19.765625 C 65.027344 19.996094 65.109375 20.257812 65.121094 20.550781 L 64.488281 20.597656 C 64.453125 20.28125 64.339844 20.042969 64.144531 19.882812 C 63.945312 19.722656 63.660156 19.644531 63.277344 19.644531 C 62.878906 19.644531 62.589844 19.714844 62.40625 19.863281 C 62.222656 20.007812 62.132812 20.1875 62.132812 20.390625 C 62.132812 20.570312 62.195312 20.71875 62.328125 20.828125 C 62.453125 20.945312 62.785156 21.066406 63.320312 21.183594 C 63.855469 21.308594 64.21875 21.414062 64.421875 21.503906 C 64.710938 21.636719 64.925781 21.808594 65.0625 22.011719 C 65.203125 22.214844 65.269531 22.453125 65.273438 22.714844 C 65.269531 22.984375 65.191406 23.234375 65.042969 23.464844 C 64.890625 23.703125 64.671875 23.882812 64.390625 24.011719 C 64.105469 24.140625 63.785156 24.203125 63.429688 24.207031 C 62.980469 24.203125 62.601562 24.140625 62.296875 24.011719 C 61.992188 23.882812 61.75 23.683594 61.582031 23.417969 C 61.40625 23.15625 61.316406 22.859375 61.308594 22.523438 Z M 61.308594 22.523438 "/>
<path style=" stroke:none;fill-rule:nonzero;fill:rgb(0%,0%,0%);fill-opacity:1;" d="M 64.105469 58.484375 L 64.765625 58.652344 C 64.625 59.195312 64.378906 59.605469 64.019531 59.886719 C 63.660156 60.167969 63.222656 60.3125 62.703125 60.3125 C 62.167969 60.3125 61.734375 60.203125 61.394531 59.988281 C 61.058594 59.769531 60.800781 59.453125 60.628906 59.039062 C 60.449219 58.625 60.363281 58.179688 60.367188 57.703125 C 60.363281 57.1875 60.464844 56.738281 60.664062 56.347656 C 60.859375 55.964844 61.136719 55.671875 61.507812 55.46875 C 61.871094 55.273438 62.277344 55.171875 62.714844 55.167969 C 63.214844 55.171875 63.632812 55.296875 63.972656 55.546875 C 64.308594 55.804688 64.546875 56.160156 64.679688 56.617188 L 64.035156 56.769531 C 63.914062 56.410156 63.746094 56.148438 63.527344 55.980469 C 63.304688 55.816406 63.03125 55.734375 62.703125 55.734375 C 62.316406 55.734375 61.996094 55.824219 61.742188 56.007812 C 61.484375 56.191406 61.304688 56.4375 61.199219 56.746094 C 61.097656 57.054688 61.046875 57.371094 61.046875 57.703125 C 61.046875 58.125 61.105469 58.496094 61.230469 58.808594 C 61.347656 59.125 61.542969 59.363281 61.804688 59.519531 C 62.0625 59.675781 62.347656 59.753906 62.652344 59.75 C 63.019531 59.753906 63.332031 59.648438 63.585938 59.433594 C 63.84375 59.222656 64.015625 58.902344 64.105469 58.484375 Z M 64.105469 58.484375 "/>
<path style="fill:none;stroke-width:0.0333333;stroke-linecap:butt;stroke-linejoin:miter;stroke:rgb(0%,0%,0%);stroke-opacity:1;stroke-miterlimit:10;" d="M 0.113692 1.543601 L 0.522276 0.867676 " transform="matrix(20.860927,0,0,20.851064,20.850926,20.798649)"/>
<path style="fill:none;stroke-width:0.0333333;stroke-linecap:butt;stroke-linejoin:miter;stroke:rgb(0%,0%,0%);stroke-opacity:1;stroke-miterlimit:10;" d="M 0.507671 0.875732 L 1.377643 0.892967 " transform="matrix(20.860927,0,0,20.851064,20.850926,20.798649)"/>
<path style=" stroke:none;fill-rule:nonzero;fill:rgb(0%,0%,0%);fill-opacity:1;" d="M 31.640625 39.058594 L 26.054688 23.882812 L 21.789062 26.230469 "/>
<path style="fill:none;stroke-width:0.0333333;stroke-linecap:butt;stroke-linejoin:miter;stroke:rgb(0%,0%,0%);stroke-opacity:1;stroke-miterlimit:10;" d="M 1.625752 0.715931 L 1.923483 0.223412 " transform="matrix(20.860927,0,0,20.851064,20.850926,20.798649)"/>
<path style="fill:none;stroke-width:0.0333333;stroke-linecap:butt;stroke-linejoin:miter;stroke:rgb(0%,0%,0%);stroke-opacity:1;stroke-miterlimit:10;" d="M 1.617888 1.078622 L 1.894459 1.580882 " transform="matrix(20.860927,0,0,20.851064,20.850926,20.798649)"/>
</g>
</svg>
