<?xml version="1.0" encoding="UTF-8"?>
<svg xmlns="http://www.w3.org/2000/svg" xmlns:xlink="http://www.w3.org/1999/xlink" width="166.4pt" height="149.6pt" viewBox="0 0 166.4 149.6" version="1.1">
<g id="surface1707">
<path style=" stroke:none;fill-rule:nonzero;fill:rgb(0%,0%,0%);fill-opacity:1;" d="M 132.148438 13.570312 L 132.808594 13.742188 C 132.664062 14.285156 132.417969 14.695312 132.058594 14.976562 C 131.699219 15.257812 131.261719 15.398438 130.746094 15.402344 C 130.207031 15.398438 129.773438 15.292969 129.433594 15.078125 C 129.097656 14.859375 128.839844 14.542969 128.664062 14.125 C 128.488281 13.714844 128.402344 13.269531 128.40625 12.792969 C 128.402344 12.277344 128.503906 11.824219 128.699219 11.4375 C 128.898438 11.050781 129.175781 10.757812 129.546875 10.558594 C 129.910156 10.359375 130.316406 10.257812 130.753906 10.257812 C 131.253906 10.257812 131.671875 10.386719 132.011719 10.636719 C 132.351562 10.890625 132.585938 11.246094 132.71875 11.707031 L 132.074219 11.859375 C 131.953125 11.5 131.785156 11.238281 131.566406 11.070312 C 131.34375 10.90625 131.070312 10.820312 130.742188 10.820312 C 130.355469 10.820312 130.035156 10.914062 129.78125 11.09375 C 129.523438 11.28125 129.34375 11.527344 129.238281 11.835938 C 129.136719 12.144531 129.085938 12.460938 129.085938 12.789062 C 129.085938 13.214844 129.144531 13.582031 129.269531 13.898438 C 129.386719 14.214844 129.582031 14.453125 129.84375 14.605469 C 130.101562 14.765625 130.386719 14.84375 130.691406 14.839844 C 131.058594 14.84375 131.371094 14.738281 131.628906 14.523438 C 131.882812 14.3125 132.054688 13.992188 132.148438 13.570312 Z M 132.148438 13.570312 "/>
<path style=" stroke:none;fill-rule:nonzero;fill:rgb(0%,0%,0%);fill-opacity:1;" d="M 133.539062 15.316406 L 133.539062 10.339844 L 134.152344 10.339844 L 134.152344 12.128906 C 134.433594 11.800781 134.792969 11.632812 135.230469 11.628906 C 135.496094 11.632812 135.730469 11.683594 135.925781 11.789062 C 136.121094 11.898438 136.261719 12.042969 136.351562 12.226562 C 136.433594 12.414062 136.476562 12.683594 136.476562 13.035156 L 136.476562 15.316406 L 135.867188 15.316406 L 135.867188 13.035156 C 135.863281 12.730469 135.796875 12.507812 135.667969 12.367188 C 135.535156 12.226562 135.347656 12.15625 135.105469 12.15625 C 134.921875 12.15625 134.753906 12.207031 134.59375 12.296875 C 134.429688 12.394531 134.316406 12.523438 134.253906 12.679688 C 134.179688 12.84375 134.148438 13.0625 134.152344 13.347656 L 134.152344 15.316406 Z M 133.539062 15.316406 "/>
<path style=" stroke:none;fill-rule:nonzero;fill:rgb(0%,0%,0%);fill-opacity:1;" d="M 137.410156 11.042969 L 137.410156 10.339844 L 138.023438 10.339844 L 138.023438 11.042969 Z M 137.410156 15.316406 L 137.410156 11.710938 L 138.023438 11.710938 L 138.023438 15.316406 Z M 137.410156 15.316406 "/>
<path style=" stroke:none;fill-rule:nonzero;fill:rgb(0%,0%,0%);fill-opacity:1;" d="M 138.945312 15.316406 L 138.945312 11.710938 L 139.496094 11.710938 L 139.496094 12.261719 C 139.636719 12.003906 139.765625 11.835938 139.886719 11.753906 C 140.003906 11.675781 140.132812 11.632812 140.277344 11.628906 C 140.480469 11.632812 140.695312 11.699219 140.910156 11.828125 L 140.695312 12.394531 C 140.546875 12.308594 140.398438 12.261719 140.246094 12.261719 C 140.113281 12.261719 139.988281 12.304688 139.886719 12.386719 C 139.777344 12.46875 139.703125 12.578125 139.660156 12.714844 C 139.589844 12.9375 139.554688 13.175781 139.558594 13.429688 L 139.558594 15.316406 Z M 138.945312 15.316406 "/>
<path style=" stroke:none;fill-rule:nonzero;fill:rgb(0%,0%,0%);fill-opacity:1;" d="M 143.625 14.871094 C 143.394531 15.066406 143.175781 15.203125 142.96875 15.28125 C 142.757812 15.363281 142.535156 15.398438 142.296875 15.398438 C 141.898438 15.398438 141.59375 15.304688 141.382812 15.109375 C 141.171875 14.917969 141.066406 14.671875 141.066406 14.367188 C 141.066406 14.195312 141.101562 14.03125 141.183594 13.882812 C 141.261719 13.738281 141.367188 13.621094 141.5 13.535156 C 141.628906 13.445312 141.773438 13.382812 141.941406 13.332031 C 142.054688 13.304688 142.238281 13.269531 142.484375 13.242188 C 142.976562 13.179688 143.339844 13.109375 143.574219 13.027344 C 143.574219 12.949219 143.574219 12.894531 143.578125 12.871094 C 143.574219 12.625 143.519531 12.449219 143.402344 12.34375 C 143.246094 12.207031 143.011719 12.140625 142.707031 12.136719 C 142.417969 12.140625 142.207031 12.191406 142.070312 12.289062 C 141.929688 12.394531 141.832031 12.570312 141.765625 12.824219 L 141.167969 12.742188 C 141.21875 12.488281 141.308594 12.28125 141.4375 12.121094 C 141.558594 11.96875 141.742188 11.84375 141.976562 11.757812 C 142.210938 11.675781 142.484375 11.632812 142.796875 11.628906 C 143.101562 11.632812 143.351562 11.667969 143.546875 11.738281 C 143.738281 11.8125 143.878906 11.90625 143.972656 12.011719 C 144.058594 12.128906 144.125 12.265625 144.164062 12.429688 C 144.179688 12.539062 144.191406 12.726562 144.191406 12.992188 L 144.191406 13.808594 C 144.191406 14.375 144.203125 14.734375 144.230469 14.886719 C 144.253906 15.039062 144.304688 15.183594 144.386719 15.316406 L 143.746094 15.316406 C 143.679688 15.191406 143.640625 15.046875 143.625 14.871094 Z M 143.574219 13.507812 C 143.351562 13.601562 143.019531 13.679688 142.574219 13.742188 C 142.324219 13.777344 142.144531 13.820312 142.039062 13.863281 C 141.933594 13.910156 141.855469 13.976562 141.800781 14.0625 C 141.742188 14.152344 141.714844 14.25 141.714844 14.351562 C 141.714844 14.515625 141.777344 14.652344 141.902344 14.757812 C 142.019531 14.871094 142.203125 14.925781 142.441406 14.921875 C 142.675781 14.925781 142.886719 14.871094 143.070312 14.765625 C 143.253906 14.667969 143.386719 14.523438 143.476562 14.34375 C 143.539062 14.207031 143.570312 14.003906 143.574219 13.730469 Z M 143.574219 13.507812 "/>
<path style=" stroke:none;fill-rule:nonzero;fill:rgb(0%,0%,0%);fill-opacity:1;" d="M 145.125 15.316406 L 145.125 10.339844 L 145.738281 10.339844 L 145.738281 15.316406 Z M 145.125 15.316406 "/>
<path style=" stroke:none;fill-rule:nonzero;fill:rgb(0%,0%,0%);fill-opacity:1;" d="M 59.878906 38.675781 C 59.878906 37.851562 60.101562 37.203125 60.546875 36.734375 C 60.988281 36.269531 61.558594 36.039062 62.261719 36.035156 C 62.71875 36.039062 63.136719 36.144531 63.507812 36.363281 C 63.875 36.582031 64.15625 36.890625 64.351562 37.28125 C 64.539062 37.675781 64.636719 38.121094 64.640625 38.617188 C 64.636719 39.125 64.535156 39.574219 64.335938 39.972656 C 64.128906 40.371094 63.839844 40.671875 63.46875 40.875 C 63.09375 41.078125 62.691406 41.179688 62.261719 41.183594 C 61.789062 41.179688 61.371094 41.070312 61.003906 40.84375 C 60.632812 40.617188 60.351562 40.308594 60.164062 39.917969 C 59.972656 39.527344 59.878906 39.113281 59.878906 38.675781 Z M 60.558594 38.683594 C 60.558594 39.285156 60.71875 39.757812 61.042969 40.101562 C 61.363281 40.449219 61.769531 40.625 62.257812 40.621094 C 62.753906 40.625 63.160156 40.449219 63.480469 40.101562 C 63.800781 39.753906 63.960938 39.253906 63.960938 38.613281 C 63.960938 38.210938 63.890625 37.855469 63.753906 37.550781 C 63.617188 37.25 63.417969 37.019531 63.15625 36.851562 C 62.890625 36.6875 62.59375 36.601562 62.269531 36.601562 C 61.800781 36.601562 61.398438 36.761719 61.0625 37.082031 C 60.726562 37.402344 60.558594 37.9375 60.558594 38.683594 Z M 60.558594 38.683594 "/>
<path style=" stroke:none;fill-rule:nonzero;fill:rgb(0%,0%,0%);fill-opacity:1;" d="M 91.183594 56.734375 C 91.183594 55.910156 91.40625 55.265625 91.851562 54.796875 C 92.292969 54.332031 92.863281 54.097656 93.566406 54.09375 C 94.023438 54.097656 94.441406 54.207031 94.8125 54.425781 C 95.179688 54.644531 95.460938 54.949219 95.65625 55.34375 C 95.84375 55.738281 95.941406 56.183594 95.945312 56.679688 C 95.941406 57.1875 95.839844 57.636719 95.636719 58.03125 C 95.433594 58.433594 95.144531 58.734375 94.773438 58.9375 C 94.398438 59.140625 93.996094 59.242188 93.566406 59.242188 C 93.09375 59.242188 92.675781 59.128906 92.308594 58.90625 C 91.9375 58.679688 91.65625 58.371094 91.46875 57.980469 C 91.277344 57.585938 91.183594 57.175781 91.183594 56.734375 Z M 91.863281 56.746094 C 91.863281 57.347656 92.023438 57.820312 92.347656 58.164062 C 92.667969 58.511719 93.074219 58.683594 93.5625 58.683594 C 94.058594 58.683594 94.464844 58.511719 94.785156 58.160156 C 95.105469 57.8125 95.265625 57.316406 95.265625 56.675781 C 95.265625 56.269531 95.195312 55.917969 95.058594 55.613281 C 94.921875 55.3125 94.722656 55.078125 94.460938 54.914062 C 94.195312 54.746094 93.898438 54.664062 93.574219 54.664062 C 93.101562 54.664062 92.699219 54.824219 92.367188 55.144531 C 92.03125 55.464844 91.863281 56 91.863281 56.746094 Z M 91.863281 56.746094 "/>
<path style=" stroke:none;fill-rule:nonzero;fill:rgb(0%,0%,0%);fill-opacity:1;" d="M 95.105469 21.289062 L 95.765625 21.457031 C 95.625 22 95.378906 22.410156 95.019531 22.695312 C 94.660156 22.976562 94.21875 23.117188 93.703125 23.121094 C 93.164062 23.117188 92.730469 23.011719 92.394531 22.792969 C 92.058594 22.578125 91.800781 22.257812 91.625 21.84375 C 91.449219 21.429688 91.363281 20.984375 91.363281 20.511719 C 91.363281 19.996094 91.460938 19.542969 91.660156 19.15625 C 91.855469 18.769531 92.136719 18.476562 92.503906 18.273438 C 92.871094 18.078125 93.273438 17.976562 93.714844 17.972656 C 94.210938 17.976562 94.628906 18.105469 94.96875 18.355469 C 95.308594 18.609375 95.546875 18.964844 95.679688 19.425781 L 95.03125 19.574219 C 94.914062 19.21875 94.746094 18.953125 94.527344 18.785156 C 94.304688 18.621094 94.03125 18.539062 93.699219 18.539062 C 93.316406 18.539062 92.996094 18.632812 92.738281 18.8125 C 92.480469 18.996094 92.300781 19.246094 92.199219 19.550781 C 92.09375 19.859375 92.042969 20.179688 92.042969 20.507812 C 92.042969 20.929688 92.101562 21.300781 92.226562 21.617188 C 92.347656 21.933594 92.539062 22.167969 92.800781 22.324219 C 93.0625 22.480469 93.34375 22.558594 93.648438 22.558594 C 94.019531 22.558594 94.332031 22.453125 94.585938 22.238281 C 94.84375 22.027344 95.011719 21.710938 95.105469 21.289062 Z M 95.105469 21.289062 "/>
<path style=" stroke:none;fill-rule:nonzero;fill:rgb(0%,0%,0%);fill-opacity:1;" d="M 18.140625 74.796875 C 18.136719 73.972656 18.363281 73.328125 18.808594 72.855469 C 19.25 72.390625 19.820312 72.160156 20.523438 72.15625 C 20.980469 72.160156 21.398438 72.265625 21.769531 72.484375 C 22.136719 72.703125 22.414062 73.011719 22.613281 73.402344 C 22.800781 73.800781 22.898438 74.246094 22.902344 74.738281 C 22.898438 75.246094 22.796875 75.695312 22.59375 76.09375 C 22.386719 76.492188 22.101562 76.792969 21.730469 76.996094 C 21.355469 77.203125 20.953125 77.300781 20.523438 77.304688 C 20.050781 77.300781 19.632812 77.191406 19.261719 76.964844 C 18.894531 76.738281 18.613281 76.429688 18.425781 76.039062 C 18.234375 75.648438 18.136719 75.234375 18.140625 74.796875 Z M 18.820312 74.804688 C 18.816406 75.40625 18.980469 75.878906 19.304688 76.222656 C 19.625 76.570312 20.03125 76.746094 20.519531 76.742188 C 21.011719 76.746094 21.421875 76.570312 21.742188 76.222656 C 22.0625 75.875 22.222656 75.375 22.222656 74.734375 C 22.222656 74.332031 22.152344 73.976562 22.015625 73.675781 C 21.878906 73.371094 21.679688 73.140625 21.414062 72.972656 C 21.152344 72.808594 20.855469 72.722656 20.53125 72.722656 C 20.058594 72.722656 19.65625 72.882812 19.324219 73.203125 C 18.988281 73.523438 18.816406 74.058594 18.820312 74.804688 Z M 18.820312 74.804688 "/>
<path style=" stroke:none;fill-rule:nonzero;fill:rgb(0%,0%,0%);fill-opacity:1;" d="M 49.445312 56.734375 C 49.441406 55.910156 49.664062 55.265625 50.113281 54.796875 C 50.554688 54.332031 51.125 54.097656 51.828125 54.09375 C 52.285156 54.097656 52.699219 54.207031 53.074219 54.425781 C 53.441406 54.644531 53.71875 54.949219 53.914062 55.34375 C 54.105469 55.738281 54.203125 56.183594 54.207031 56.679688 C 54.203125 57.1875 54.101562 57.636719 53.898438 58.03125 C 53.691406 58.433594 53.40625 58.734375 53.035156 58.9375 C 52.660156 59.140625 52.257812 59.242188 51.824219 59.242188 C 51.355469 59.242188 50.9375 59.128906 50.566406 58.90625 C 50.199219 58.679688 49.917969 58.371094 49.730469 57.980469 C 49.539062 57.585938 49.441406 57.175781 49.445312 56.734375 Z M 50.125 56.746094 C 50.121094 57.347656 50.285156 57.820312 50.609375 58.164062 C 50.929688 58.511719 51.335938 58.683594 51.824219 58.683594 C 52.316406 58.683594 52.726562 58.511719 53.046875 58.160156 C 53.367188 57.8125 53.527344 57.316406 53.527344 56.675781 C 53.527344 56.269531 53.457031 55.917969 53.320312 55.613281 C 53.183594 55.3125 52.984375 55.078125 52.71875 54.914062 C 52.457031 54.746094 52.160156 54.664062 51.835938 54.664062 C 51.363281 54.664062 50.960938 54.824219 50.628906 55.144531 C 50.289062 55.464844 50.121094 56 50.125 56.746094 Z M 50.125 56.746094 "/>
<path style=" stroke:none;fill-rule:nonzero;fill:rgb(0%,0%,0%);fill-opacity:1;" d="M 22.0625 39.351562 L 22.722656 39.519531 C 22.582031 40.0625 22.335938 40.472656 21.976562 40.753906 C 21.617188 41.035156 21.175781 41.179688 20.660156 41.179688 C 20.121094 41.179688 19.6875 41.070312 19.351562 40.855469 C 19.011719 40.636719 18.753906 40.320312 18.582031 39.902344 C 18.40625 39.492188 18.316406 39.046875 18.320312 38.570312 C 18.316406 38.054688 18.417969 37.605469 18.617188 37.214844 C 18.8125 36.832031 19.09375 36.535156 19.460938 36.335938 C 19.824219 36.136719 20.230469 36.039062 20.671875 36.035156 C 21.167969 36.039062 21.585938 36.164062 21.925781 36.414062 C 22.265625 36.671875 22.503906 37.027344 22.636719 37.484375 L 21.988281 37.636719 C 21.871094 37.277344 21.699219 37.015625 21.484375 36.847656 C 21.261719 36.683594 20.988281 36.597656 20.65625 36.597656 C 20.273438 36.597656 19.949219 36.691406 19.695312 36.875 C 19.4375 37.058594 19.257812 37.304688 19.15625 37.613281 C 19.050781 37.921875 19 38.238281 19 38.566406 C 19 38.992188 19.058594 39.359375 19.183594 39.675781 C 19.304688 39.992188 19.496094 40.230469 19.757812 40.386719 C 20.019531 40.542969 20.300781 40.621094 20.605469 40.617188 C 20.976562 40.621094 21.289062 40.515625 21.542969 40.300781 C 21.800781 40.089844 21.96875 39.769531 22.0625 39.351562 Z M 22.0625 39.351562 "/>
<path style=" stroke:none;fill-rule:nonzero;fill:rgb(0%,0%,0%);fill-opacity:1;" d="M 112.054688 128.976562 C 112.050781 128.15625 112.273438 127.507812 112.71875 127.039062 C 113.164062 126.574219 113.734375 126.339844 114.4375 126.339844 C 114.894531 126.339844 115.308594 126.449219 115.683594 126.667969 C 116.050781 126.886719 116.328125 127.195312 116.523438 127.585938 C 116.714844 127.980469 116.8125 128.425781 116.816406 128.921875 C 116.8125 129.429688 116.710938 129.878906 116.507812 130.277344 C 116.300781 130.675781 116.011719 130.976562 115.644531 131.179688 C 115.269531 131.382812 114.867188 131.484375 114.433594 131.488281 C 113.964844 131.484375 113.546875 131.371094 113.175781 131.148438 C 112.808594 130.921875 112.527344 130.613281 112.339844 130.222656 C 112.148438 129.832031 112.050781 129.417969 112.054688 128.976562 Z M 112.734375 128.988281 C 112.730469 129.589844 112.894531 130.0625 113.21875 130.40625 C 113.539062 130.753906 113.941406 130.925781 114.433594 130.925781 C 114.925781 130.925781 115.335938 130.753906 115.65625 130.402344 C 115.976562 130.054688 116.136719 129.558594 116.136719 128.917969 C 116.136719 128.511719 116.066406 128.160156 115.929688 127.855469 C 115.789062 127.554688 115.59375 127.320312 115.328125 127.15625 C 115.066406 126.988281 114.769531 126.90625 114.441406 126.90625 C 113.972656 126.90625 113.570312 127.066406 113.238281 127.386719 C 112.898438 127.707031 112.730469 128.242188 112.734375 128.988281 Z M 112.734375 128.988281 "/>
<path style=" stroke:none;fill-rule:nonzero;fill:rgb(0%,0%,0%);fill-opacity:1;" d="M 112.054688 92.855469 C 112.050781 92.035156 112.273438 91.386719 112.71875 90.917969 C 113.164062 90.453125 113.734375 90.21875 114.4375 90.21875 C 114.894531 90.21875 115.308594 90.328125 115.683594 90.546875 C 116.050781 90.765625 116.328125 91.074219 116.523438 91.464844 C 116.714844 91.859375 116.8125 92.304688 116.816406 92.800781 C 116.8125 93.308594 116.710938 93.757812 116.507812 94.15625 C 116.300781 94.554688 116.011719 94.855469 115.644531 95.058594 C 115.269531 95.261719 114.867188 95.363281 114.433594 95.367188 C 113.964844 95.363281 113.546875 95.25 113.175781 95.027344 C 112.808594 94.800781 112.527344 94.492188 112.339844 94.101562 C 112.148438 93.710938 112.050781 93.296875 112.054688 92.855469 Z M 112.734375 92.867188 C 112.730469 93.46875 112.894531 93.941406 113.21875 94.285156 C 113.539062 94.632812 113.941406 94.804688 114.433594 94.804688 C 114.925781 94.804688 115.335938 94.632812 115.65625 94.28125 C 115.976562 93.933594 116.136719 93.4375 116.136719 92.796875 C 116.136719 92.390625 116.066406 92.039062 115.929688 91.734375 C 115.789062 91.433594 115.59375 91.199219 115.328125 91.035156 C 115.066406 90.867188 114.769531 90.785156 114.441406 90.785156 C 113.972656 90.785156 113.570312 90.945312 113.238281 91.265625 C 112.898438 91.585938 112.730469 92.121094 112.734375 92.867188 Z M 112.734375 92.867188 "/>
<path style=" stroke:none;fill-rule:nonzero;fill:rgb(0%,0%,0%);fill-opacity:1;" d="M 147.28125 111.597656 L 147.941406 111.765625 C 147.800781 112.308594 147.550781 112.71875 147.191406 113 C 146.835938 113.28125 146.394531 113.421875 145.878906 113.425781 C 145.339844 113.421875 144.90625 113.316406 144.566406 113.101562 C 144.230469 112.882812 143.972656 112.566406 143.800781 112.148438 C 143.621094 111.738281 143.535156 111.292969 143.539062 110.816406 C 143.535156 110.300781 143.636719 109.851562 143.835938 109.460938 C 144.03125 109.074219 144.308594 108.78125 144.679688 108.582031 C 145.042969 108.382812 145.449219 108.28125 145.886719 108.28125 C 146.386719 108.28125 146.804688 108.410156 147.144531 108.660156 C 147.484375 108.914062 147.71875 109.273438 147.851562 109.730469 L 147.207031 109.882812 C 147.085938 109.523438 146.917969 109.261719 146.699219 109.09375 C 146.476562 108.929688 146.203125 108.84375 145.875 108.84375 C 145.488281 108.84375 145.167969 108.9375 144.914062 109.121094 C 144.65625 109.304688 144.476562 109.550781 144.371094 109.859375 C 144.269531 110.167969 144.21875 110.484375 144.21875 110.8125 C 144.21875 111.238281 144.277344 111.605469 144.402344 111.921875 C 144.523438 112.238281 144.714844 112.476562 144.976562 112.628906 C 145.238281 112.789062 145.519531 112.867188 145.824219 112.863281 C 146.191406 112.867188 146.503906 112.761719 146.761719 112.546875 C 147.015625 112.335938 147.1875 112.015625 147.28125 111.597656 Z M 147.28125 111.597656 "/>
<path style=" stroke:none;fill-rule:nonzero;fill:rgb(0%,0%,0%);fill-opacity:1;" d="M 91.183594 128.976562 C 91.183594 128.15625 91.40625 127.507812 91.851562 127.039062 C 92.292969 126.574219 92.863281 126.339844 93.566406 126.339844 C 94.023438 126.339844 94.441406 126.449219 94.8125 126.667969 C 95.179688 126.886719 95.460938 127.195312 95.65625 127.585938 C 95.84375 127.980469 95.941406 128.425781 95.945312 128.921875 C 95.941406 129.429688 95.839844 129.878906 95.636719 130.277344 C 95.433594 130.675781 95.144531 130.976562 94.773438 131.179688 C 94.398438 131.382812 93.996094 131.484375 93.566406 131.488281 C 93.09375 131.484375 92.675781 131.371094 92.308594 131.148438 C 91.9375 130.921875 91.65625 130.613281 91.46875 130.222656 C 91.277344 129.832031 91.183594 129.417969 91.183594 128.976562 Z M 91.863281 128.988281 C 91.863281 129.589844 92.023438 130.0625 92.347656 130.40625 C 92.667969 130.753906 93.074219 130.925781 93.5625 130.925781 C 94.058594 130.925781 94.464844 130.753906 94.785156 130.402344 C 95.105469 130.054688 95.265625 129.558594 95.265625 128.917969 C 95.265625 128.511719 95.195312 128.160156 95.058594 127.855469 C 94.921875 127.554688 94.722656 127.320312 94.460938 127.15625 C 94.195312 126.988281 93.898438 126.90625 93.574219 126.90625 C 93.101562 126.90625 92.699219 127.066406 92.367188 127.386719 C 92.03125 127.707031 91.863281 128.242188 91.863281 128.988281 Z M 91.863281 128.988281 "/>
<path style=" stroke:none;fill-rule:nonzero;fill:rgb(0%,0%,0%);fill-opacity:1;" d="M 49.445312 92.855469 C 49.441406 92.035156 49.664062 91.386719 50.113281 90.917969 C 50.554688 90.453125 51.125 90.21875 51.828125 90.21875 C 52.285156 90.21875 52.699219 90.328125 53.074219 90.546875 C 53.441406 90.765625 53.71875 91.074219 53.914062 91.464844 C 54.105469 91.859375 54.203125 92.304688 54.207031 92.800781 C 54.203125 93.308594 54.101562 93.757812 53.898438 94.15625 C 53.691406 94.554688 53.40625 94.855469 53.035156 95.058594 C 52.660156 95.261719 52.257812 95.363281 51.824219 95.367188 C 51.355469 95.363281 50.9375 95.25 50.566406 95.027344 C 50.199219 94.800781 49.917969 94.492188 49.730469 94.101562 C 49.539062 93.710938 49.441406 93.296875 49.445312 92.855469 Z M 50.125 92.867188 C 50.121094 93.46875 50.285156 93.941406 50.609375 94.285156 C 50.929688 94.632812 51.335938 94.804688 51.824219 94.804688 C 52.316406 94.804688 52.726562 94.632812 53.046875 94.28125 C 53.367188 93.933594 53.527344 93.4375 53.527344 92.796875 C 53.527344 92.390625 53.457031 92.039062 53.320312 91.734375 C 53.183594 91.433594 52.984375 91.199219 52.71875 91.035156 C 52.457031 90.867188 52.160156 90.785156 51.835938 90.785156 C 51.363281 90.785156 50.960938 90.945312 50.628906 91.265625 C 50.289062 91.585938 50.121094 92.121094 50.125 92.867188 Z M 50.125 92.867188 "/>
<path style=" stroke:none;fill-rule:nonzero;fill:rgb(0%,0%,0%);fill-opacity:1;" d="M 28.574219 128.976562 C 28.574219 128.15625 28.796875 127.507812 29.242188 127.039062 C 29.683594 126.574219 30.253906 126.339844 30.960938 126.339844 C 31.414062 126.339844 31.832031 126.449219 32.203125 126.667969 C 32.570312 126.886719 32.851562 127.195312 33.046875 127.585938 C 33.238281 127.980469 33.335938 128.425781 33.335938 128.921875 C 33.335938 129.429688 33.230469 129.878906 33.03125 130.277344 C 32.824219 130.675781 32.535156 130.976562 32.164062 131.179688 C 31.789062 131.382812 31.386719 131.484375 30.957031 131.488281 C 30.488281 131.484375 30.066406 131.371094 29.699219 131.148438 C 29.328125 130.921875 29.050781 130.613281 28.863281 130.222656 C 28.667969 129.832031 28.574219 129.417969 28.574219 128.976562 Z M 29.253906 128.988281 C 29.253906 129.589844 29.414062 130.0625 29.738281 130.40625 C 30.058594 130.753906 30.464844 130.925781 30.953125 130.925781 C 31.449219 130.925781 31.855469 130.753906 32.175781 130.402344 C 32.496094 130.054688 32.65625 129.558594 32.65625 128.917969 C 32.65625 128.511719 32.585938 128.160156 32.449219 127.855469 C 32.3125 127.554688 32.113281 127.320312 31.851562 127.15625 C 31.585938 126.988281 31.289062 126.90625 30.964844 126.90625 C 30.496094 126.90625 30.09375 127.066406 29.757812 127.386719 C 29.421875 127.707031 29.253906 128.242188 29.253906 128.988281 Z M 29.253906 128.988281 "/>
<path style="fill:none;stroke-width:0.0333333;stroke-linecap:butt;stroke-linejoin:miter;stroke:rgb(0%,0%,0%);stroke-opacity:1;stroke-miterlimit:10;" d="M 3.044456 2.542267 L 3.026113 2.53159 M 3.089004 2.48645 L 3.052131 2.465097 M 3.133364 2.430446 L 3.078335 2.398791 M 3.177912 2.374629 L 3.104539 2.332111 M 3.222459 2.318812 L 3.130557 2.265805 M 3.26682 2.262995 L 3.156761 2.199311 M 3.311367 2.206991 L 3.182966 2.132818 M 3.355915 2.151174 L 3.208983 2.066512 M 3.400462 2.095357 L 3.235187 1.999831 M 3.444823 2.03954 L 3.261204 1.933525 M 3.48937 1.983723 L 3.287409 1.867032 " transform="matrix(20.869565,0,0,20.855019,20.522112,20.547384)"/>
<path style="fill:none;stroke-width:0.0333333;stroke-linecap:butt;stroke-linejoin:miter;stroke:rgb(0%,0%,0%);stroke-opacity:1;stroke-miterlimit:10;" d="M 3.0482 0.782723 L 2.157437 0.782723 " transform="matrix(20.869565,0,0,20.855019,20.522112,20.547384)"/>
<path style="fill:none;stroke-width:0.0333333;stroke-linecap:butt;stroke-linejoin:miter;stroke:rgb(0%,0%,0%);stroke-opacity:1;stroke-miterlimit:10;" d="M 3.048013 0.949425 L 2.157437 0.949425 " transform="matrix(20.869565,0,0,20.855019,20.522112,20.547384)"/>
<path style="fill:none;stroke-width:0.0333333;stroke-linecap:butt;stroke-linejoin:miter;stroke:rgb(0%,0%,0%);stroke-opacity:1;stroke-miterlimit:10;" d="M 2.99523 0.857645 L 3.388483 1.538874 " transform="matrix(20.869565,0,0,20.855019,20.522112,20.547384)"/>
<path style=" stroke:none;fill-rule:nonzero;fill:rgb(0%,0%,0%);fill-opacity:1;" d="M 62.261719 74.730469 L 56.261719 59.484375 L 52.046875 61.917969 "/>
<path style="fill:none;stroke-width:0.0333333;stroke-linecap:butt;stroke-linejoin:miter;stroke:rgb(0%,0%,0%);stroke-opacity:1;stroke-miterlimit:10;" d="M 0.451903 1.648822 L 0.0393702 2.363203 " transform="matrix(20.869565,0,0,20.855019,20.522112,20.547384)"/>
<path style="fill:none;stroke-width:0.0333333;stroke-linecap:butt;stroke-linejoin:miter;stroke:rgb(0%,0%,0%);stroke-opacity:1;stroke-miterlimit:10;" d="M 0.596214 1.731985 L 0.183682 2.446554 " transform="matrix(20.869565,0,0,20.855019,20.522112,20.547384)"/>
<path style="fill:none;stroke-width:0.0333333;stroke-linecap:butt;stroke-linejoin:miter;stroke:rgb(0%,0%,0%);stroke-opacity:1;stroke-miterlimit:10;" d="M 0.490273 1.731985 L 1.342479 1.731985 " transform="matrix(20.869565,0,0,20.855019,20.522112,20.547384)"/>
<path style=" stroke:none;fill-rule:nonzero;fill:rgb(0%,0%,0%);fill-opacity:1;" d="M 93.566406 92.792969 L 111.148438 95.222656 L 111.148438 90.359375 "/>
<path style="fill:none;stroke-width:0.0333333;stroke-linecap:butt;stroke-linejoin:miter;stroke:rgb(0%,0%,0%);stroke-opacity:1;stroke-miterlimit:10;" d="M 4.951764 4.246743 L 4.539419 4.961311 " transform="matrix(20.869565,0,0,20.855019,20.522112,20.547384)"/>
<path style="fill:none;stroke-width:0.0333333;stroke-linecap:butt;stroke-linejoin:miter;stroke:rgb(0%,0%,0%);stroke-opacity:1;stroke-miterlimit:10;" d="M 5.096263 4.330093 L 4.683731 5.044662 " transform="matrix(20.869565,0,0,20.855019,20.522112,20.547384)"/>
<path style="fill:none;stroke-width:0.0333333;stroke-linecap:butt;stroke-linejoin:miter;stroke:rgb(0%,0%,0%);stroke-opacity:1;stroke-miterlimit:10;" d="M 5.004735 4.338522 L 4.611481 3.657294 " transform="matrix(20.869565,0,0,20.855019,20.522112,20.547384)"/>
<path style="fill:none;stroke-width:0.0333333;stroke-linecap:butt;stroke-linejoin:miter;stroke:rgb(0%,0%,0%);stroke-opacity:1;stroke-miterlimit:10;" d="M 1.99029 4.330093 L 3.009642 4.330093 " transform="matrix(20.869565,0,0,20.855019,20.522112,20.547384)"/>
<path style="fill:none;stroke-width:0.0333333;stroke-linecap:butt;stroke-linejoin:miter;stroke:rgb(0%,0%,0%);stroke-opacity:1;stroke-miterlimit:10;" d="M 2.004889 4.338522 L 1.611636 3.657294 " transform="matrix(20.869565,0,0,20.855019,20.522112,20.547384)"/>
<path style="fill:none;stroke-width:0.0333333;stroke-linecap:butt;stroke-linejoin:miter;stroke:rgb(0%,0%,0%);stroke-opacity:1;stroke-miterlimit:10;" d="M 2.99523 4.338522 L 3.504718 3.455753 " transform="matrix(20.869565,0,0,20.855019,20.522112,20.547384)"/>
<path style="fill:none;stroke-width:0.0333333;stroke-linecap:butt;stroke-linejoin:miter;stroke:rgb(0%,0%,0%);stroke-opacity:1;stroke-miterlimit:10;" d="M 1.611636 3.270883 L 2.004889 2.589842 " transform="matrix(20.869565,0,0,20.855019,20.522112,20.547384)"/>
<path style="fill:none;stroke-width:0.0333333;stroke-linecap:butt;stroke-linejoin:miter;stroke:rgb(0%,0%,0%);stroke-opacity:1;stroke-miterlimit:10;" d="M 3.504718 3.472424 L 2.99523 2.589842 " transform="matrix(20.869565,0,0,20.855019,20.522112,20.547384)"/>
<path style="fill:none;stroke-width:0.0333333;stroke-linecap:butt;stroke-linejoin:miter;stroke:rgb(0%,0%,0%);stroke-opacity:1;stroke-miterlimit:10;" d="M 1.99029 2.598084 L 3.009642 2.598084 " transform="matrix(20.869565,0,0,20.855019,20.522112,20.547384)"/>
<path style="fill:none;stroke-width:0.0333333;stroke-linecap:butt;stroke-linejoin:miter;stroke:rgb(0%,0%,0%);stroke-opacity:1;stroke-miterlimit:10;" d="M 3.026113 4.396587 L 3.044456 4.38591 M 3.052131 4.46308 L 3.089004 4.441915 M 3.078335 4.529573 L 3.133364 4.497731 M 3.104539 4.596067 L 3.177912 4.553548 M 3.130557 4.66256 L 3.222459 4.609365 M 3.156761 4.728866 L 3.26682 4.665182 M 3.182966 4.795359 L 3.311367 4.721186 M 3.208983 4.861852 L 3.355915 4.777003 M 3.235187 4.928346 L 3.400462 4.83282 M 3.261204 4.994839 L 3.444823 4.888637 M 3.287409 5.061145 L 3.48937 4.944641 " transform="matrix(20.869565,0,0,20.855019,20.522112,20.547384)"/>
<path style=" stroke:none;fill-rule:nonzero;fill:rgb(0%,0%,0%);fill-opacity:1;" d="M 62.261719 110.851562 L 48.714844 129.085938 L 51.726562 129.085938 L 53.835938 130.304688 "/>
<path style="fill:none;stroke-width:0.0333333;stroke-linecap:butt;stroke-linejoin:miter;stroke:rgb(0%,0%,0%);stroke-opacity:1;stroke-miterlimit:10;" d="M 1.509626 5.196192 L 0.65742 5.196192 " transform="matrix(20.869565,0,0,20.855019,20.522112,20.547384)"/>
<path style="fill:none;stroke-width:0.0333333;stroke-linecap:butt;stroke-linejoin:miter;stroke:rgb(0%,0%,0%);stroke-opacity:1;stroke-miterlimit:10;" d="M 4.990322 4.330093 L 5.851138 4.330093 " transform="matrix(20.869565,0,0,20.855019,20.522112,20.547384)"/>
<path style="fill:none;stroke-width:0.0333333;stroke-linecap:butt;stroke-linejoin:miter;stroke:rgb(0%,0%,0%);stroke-opacity:1;stroke-miterlimit:10;" d="M 0.504873 1.740414 L 0.109373 1.055439 " transform="matrix(20.869565,0,0,20.855019,20.522112,20.547384)"/>
<path style="fill:none;stroke-width:0.0333333;stroke-linecap:butt;stroke-linejoin:miter;stroke:rgb(0%,0%,0%);stroke-opacity:1;stroke-miterlimit:10;" d="M 2.99523 0.874315 L 3.390542 0.189528 " transform="matrix(20.869565,0,0,20.855019,20.522112,20.547384)"/>
</g>
</svg>
