<?xml version="1.0" encoding="UTF-8"?>
<svg xmlns="http://www.w3.org/2000/svg" xmlns:xlink="http://www.w3.org/1999/xlink" width="176pt" height="131.2pt" viewBox="0 0 176 131.2" version="1.1">
<g id="surface132">
<path style=" stroke:none;fill-rule:nonzero;fill:rgb(0%,0%,0%);fill-opacity:1;" d="M 153.847656 95.238281 L 153.847656 90.261719 L 154.523438 90.261719 L 157.128906 94.167969 L 157.128906 90.261719 L 157.761719 90.261719 L 157.761719 95.238281 L 157.085938 95.238281 L 154.480469 91.328125 L 154.480469 95.238281 Z M 153.847656 95.238281 "/>
<path style=" stroke:none;fill-rule:nonzero;fill:rgb(0%,0%,0%);fill-opacity:1;" d="M 112.207031 59.128906 L 112.207031 54.15625 L 112.882812 54.15625 L 115.488281 58.0625 L 115.488281 54.15625 L 116.121094 54.15625 L 116.121094 59.128906 L 115.445312 59.128906 L 112.839844 55.222656 L 112.839844 59.128906 Z M 112.207031 59.128906 "/>
<path style=" stroke:none;fill-rule:nonzero;fill:rgb(0%,0%,0%);fill-opacity:1;" d="M 111.789062 92.816406 C 111.785156 91.996094 112.007812 91.347656 112.453125 90.878906 C 112.894531 90.414062 113.464844 90.179688 114.167969 90.179688 C 114.621094 90.179688 115.035156 90.289062 115.410156 90.507812 C 115.773438 90.726562 116.054688 91.035156 116.25 91.425781 C 116.4375 91.820312 116.535156 92.265625 116.539062 92.761719 C 116.535156 93.269531 116.433594 93.71875 116.234375 94.113281 C 116.027344 94.515625 115.738281 94.816406 115.371094 95.019531 C 114.996094 95.222656 114.59375 95.324219 114.164062 95.324219 C 113.695312 95.324219 113.277344 95.210938 112.910156 94.984375 C 112.539062 94.761719 112.261719 94.453125 112.074219 94.0625 C 111.882812 93.667969 111.785156 93.257812 111.789062 92.816406 Z M 112.46875 92.828125 C 112.464844 93.429688 112.625 93.902344 112.949219 94.246094 C 113.269531 94.59375 113.671875 94.765625 114.160156 94.761719 C 114.65625 94.765625 115.0625 94.59375 115.382812 94.242188 C 115.699219 93.894531 115.859375 93.398438 115.859375 92.757812 C 115.859375 92.351562 115.789062 92 115.65625 91.695312 C 115.515625 91.394531 115.320312 91.160156 115.054688 90.996094 C 114.792969 90.832031 114.496094 90.746094 114.171875 90.746094 C 113.703125 90.746094 113.300781 90.90625 112.96875 91.226562 C 112.632812 91.546875 112.464844 92.082031 112.46875 92.828125 Z M 112.46875 92.828125 "/>
<path style=" stroke:none;fill-rule:nonzero;fill:rgb(0%,0%,0%);fill-opacity:1;" d="M 90.96875 20.597656 C 90.964844 19.773438 91.1875 19.128906 91.632812 18.660156 C 92.074219 18.195312 92.644531 17.960938 93.347656 17.960938 C 93.800781 17.960938 94.214844 18.070312 94.589844 18.289062 C 94.953125 18.507812 95.234375 18.8125 95.429688 19.207031 C 95.617188 19.601562 95.714844 20.046875 95.71875 20.539062 C 95.714844 21.046875 95.613281 21.5 95.414062 21.894531 C 95.207031 22.292969 94.917969 22.59375 94.550781 22.800781 C 94.175781 23.003906 93.773438 23.101562 93.34375 23.105469 C 92.875 23.101562 92.457031 22.992188 92.089844 22.765625 C 91.71875 22.542969 91.441406 22.230469 91.253906 21.839844 C 91.0625 21.449219 90.964844 21.039062 90.96875 20.597656 Z M 91.648438 20.609375 C 91.644531 21.207031 91.808594 21.679688 92.128906 22.027344 C 92.449219 22.371094 92.851562 22.546875 93.339844 22.542969 C 93.835938 22.546875 94.242188 22.371094 94.5625 22.023438 C 94.882812 21.675781 95.039062 21.179688 95.039062 20.539062 C 95.039062 20.132812 94.96875 19.78125 94.835938 19.476562 C 94.695312 19.175781 94.5 18.941406 94.234375 18.777344 C 93.972656 18.609375 93.675781 18.527344 93.351562 18.527344 C 92.882812 18.527344 92.480469 18.6875 92.148438 19.007812 C 91.8125 19.328125 91.644531 19.863281 91.648438 20.609375 Z M 91.648438 20.609375 "/>
<path style=" stroke:none;fill-rule:nonzero;fill:rgb(0%,0%,0%);fill-opacity:1;" d="M 59.738281 38.65625 C 59.734375 37.832031 59.957031 37.1875 60.402344 36.714844 C 60.84375 36.253906 61.414062 36.019531 62.117188 36.015625 C 62.570312 36.019531 62.988281 36.128906 63.359375 36.34375 C 63.722656 36.566406 64.003906 36.871094 64.199219 37.261719 C 64.386719 37.660156 64.484375 38.105469 64.488281 38.597656 C 64.484375 39.105469 64.382812 39.554688 64.183594 39.953125 C 63.976562 40.351562 63.6875 40.652344 63.320312 40.855469 C 62.945312 41.058594 62.542969 41.160156 62.113281 41.164062 C 61.644531 41.160156 61.226562 41.050781 60.859375 40.824219 C 60.488281 40.597656 60.210938 40.289062 60.023438 39.898438 C 59.832031 39.507812 59.734375 39.09375 59.738281 38.65625 Z M 60.417969 38.664062 C 60.414062 39.265625 60.578125 39.738281 60.898438 40.082031 C 61.21875 40.429688 61.621094 40.605469 62.109375 40.601562 C 62.605469 40.605469 63.011719 40.429688 63.332031 40.078125 C 63.652344 39.730469 63.8125 39.234375 63.8125 38.59375 C 63.8125 38.191406 63.738281 37.835938 63.605469 37.535156 C 63.464844 37.230469 63.269531 37 63.003906 36.832031 C 62.742188 36.667969 62.445312 36.582031 62.121094 36.582031 C 61.652344 36.582031 61.25 36.742188 60.917969 37.0625 C 60.582031 37.382812 60.414062 37.917969 60.417969 38.664062 Z M 60.417969 38.664062 "/>
<path style=" stroke:none;fill-rule:nonzero;fill:rgb(0%,0%,0%);fill-opacity:1;" d="M 18.519531 113.292969 L 18.519531 108.316406 L 19.195312 108.316406 L 21.800781 112.222656 L 21.800781 108.316406 L 22.433594 108.316406 L 22.433594 113.292969 L 21.757812 113.292969 L 19.148438 109.382812 L 19.148438 113.292969 Z M 18.519531 113.292969 "/>
<path style="fill:none;stroke-width:0.0333333;stroke-linecap:butt;stroke-linejoin:miter;stroke:rgb(0%,0%,0%);stroke-opacity:1;stroke-miterlimit:10;" d="M 4.990393 2.598017 L 6.009536 2.598017 " transform="matrix(20.820189,0,0,20.847458,20.474079,20.533255)"/>
<path style="fill:none;stroke-width:0.0333333;stroke-linecap:butt;stroke-linejoin:miter;stroke:rgb(0%,0%,0%);stroke-opacity:1;stroke-miterlimit:10;" d="M 2.995071 0.857697 L 3.50483 1.740411 " transform="matrix(20.820189,0,0,20.847458,20.474079,20.533255)"/>
<path style="fill:none;stroke-width:0.0333333;stroke-linecap:butt;stroke-linejoin:miter;stroke:rgb(0%,0%,0%);stroke-opacity:1;stroke-miterlimit:10;" d="M 5.004839 2.606262 L 4.604649 1.913544 " transform="matrix(20.820189,0,0,20.847458,20.474079,20.533255)"/>
<path style="fill:none;stroke-width:0.0333333;stroke-linecap:butt;stroke-linejoin:miter;stroke:rgb(0%,0%,0%);stroke-opacity:1;stroke-miterlimit:10;" d="M 4.951743 2.514636 L 4.539358 3.229277 " transform="matrix(20.820189,0,0,20.847458,20.474079,20.533255)"/>
<path style="fill:none;stroke-width:0.0333333;stroke-linecap:butt;stroke-linejoin:miter;stroke:rgb(0%,0%,0%);stroke-opacity:1;stroke-miterlimit:10;" d="M 5.096209 2.598017 L 4.683637 3.312658 " transform="matrix(20.820189,0,0,20.847458,20.474079,20.533255)"/>
<path style="fill:none;stroke-width:0.0333333;stroke-linecap:butt;stroke-linejoin:miter;stroke:rgb(0%,0%,0%);stroke-opacity:1;stroke-miterlimit:10;" d="M 3.57181 1.741723 L 3.57181 1.722424 M 3.643668 1.751466 L 3.643668 1.71268 M 3.715526 1.76121 L 3.715526 1.702937 M 3.787384 1.770953 L 3.787384 1.693193 M 3.859242 1.780696 L 3.859242 1.68345 M 3.931287 1.79044 L 3.931287 1.673707 M 4.003145 1.800183 L 4.003145 1.663963 M 4.075003 1.809927 L 4.075003 1.65422 M 4.147048 1.81967 L 4.147048 1.644664 M 4.218906 1.829226 L 4.218906 1.63492 M 4.290764 1.838969 L 4.290764 1.625177 M 4.362622 1.848713 L 4.362622 1.615434 " transform="matrix(20.820189,0,0,20.847458,20.474079,20.533255)"/>
<path style="fill:none;stroke-width:0.0333333;stroke-linecap:butt;stroke-linejoin:miter;stroke:rgb(0%,0%,0%);stroke-opacity:1;stroke-miterlimit:10;" d="M 2.995071 0.874373 L 3.388319 0.193273 " transform="matrix(20.820189,0,0,20.847458,20.474079,20.533255)"/>
<path style="fill:none;stroke-width:0.0333333;stroke-linecap:butt;stroke-linejoin:miter;stroke:rgb(0%,0%,0%);stroke-opacity:1;stroke-miterlimit:10;" d="M 3.04798 0.782748 L 2.157355 0.782748 " transform="matrix(20.820189,0,0,20.847458,20.474079,20.533255)"/>
<path style="fill:none;stroke-width:0.0333333;stroke-linecap:butt;stroke-linejoin:miter;stroke:rgb(0%,0%,0%);stroke-opacity:1;stroke-miterlimit:10;" d="M 3.048167 0.94951 L 2.157355 0.94951 " transform="matrix(20.820189,0,0,20.847458,20.474079,20.533255)"/>
<path style="fill:none;stroke-width:0.0333333;stroke-linecap:butt;stroke-linejoin:miter;stroke:rgb(0%,0%,0%);stroke-opacity:1;stroke-miterlimit:10;" d="M 2.995071 2.606262 L 3.50483 1.723735 " transform="matrix(20.820189,0,0,20.847458,20.474079,20.533255)"/>
<path style="fill:none;stroke-width:0.0333333;stroke-linecap:butt;stroke-linejoin:miter;stroke:rgb(0%,0%,0%);stroke-opacity:1;stroke-miterlimit:10;" d="M 1.990375 2.598017 L 3.009518 2.598017 " transform="matrix(20.820189,0,0,20.847458,20.474079,20.533255)"/>
<path style="fill:none;stroke-width:0.0333333;stroke-linecap:butt;stroke-linejoin:miter;stroke:rgb(0%,0%,0%);stroke-opacity:1;stroke-miterlimit:10;" d="M 1.495062 3.472487 L 2.004822 2.589773 " transform="matrix(20.820189,0,0,20.847458,20.474079,20.533255)"/>
<path style="fill:none;stroke-width:0.0333333;stroke-linecap:butt;stroke-linejoin:miter;stroke:rgb(0%,0%,0%);stroke-opacity:1;stroke-miterlimit:10;" d="M 0.490366 3.464243 L 1.509509 3.464243 " transform="matrix(20.820189,0,0,20.847458,20.474079,20.533255)"/>
<path style="fill:none;stroke-width:0.0333333;stroke-linecap:butt;stroke-linejoin:miter;stroke:rgb(0%,0%,0%);stroke-opacity:1;stroke-miterlimit:10;" d="M 0.10481 4.148716 L 0.504813 3.455811 " transform="matrix(20.820189,0,0,20.847458,20.474079,20.533255)"/>
<path style="fill:none;stroke-width:0.0333333;stroke-linecap:butt;stroke-linejoin:miter;stroke:rgb(0%,0%,0%);stroke-opacity:1;stroke-miterlimit:10;" d="M 6.395091 3.282678 L 5.995089 2.589773 " transform="matrix(20.820189,0,0,20.847458,20.474079,20.533255)"/>
</g>
</svg>
