<?xml version="1.0" encoding="UTF-8"?>
<svg xmlns="http://www.w3.org/2000/svg" xmlns:xlink="http://www.w3.org/1999/xlink" width="239.2pt" height="221.6pt" viewBox="0 0 239.2 221.6" version="1.1">
<g id="surface1467">
<path style=" stroke:none;fill-rule:nonzero;fill:rgb(0%,0%,0%);fill-opacity:1;" d="M 205.101562 13.578125 L 205.761719 13.746094 C 205.621094 14.289062 205.371094 14.699219 205.015625 14.980469 C 204.65625 15.261719 204.214844 15.402344 203.699219 15.40625 C 203.160156 15.402344 202.726562 15.296875 202.390625 15.082031 C 202.054688 14.863281 201.796875 14.546875 201.621094 14.132812 C 201.445312 13.71875 201.359375 13.273438 201.359375 12.800781 C 201.359375 12.285156 201.457031 11.835938 201.65625 11.445312 C 201.851562 11.0625 202.132812 10.769531 202.5 10.566406 C 202.867188 10.371094 203.269531 10.269531 203.710938 10.265625 C 204.207031 10.269531 204.625 10.398438 204.964844 10.648438 C 205.304688 10.902344 205.539062 11.257812 205.675781 11.714844 L 205.027344 11.867188 C 204.90625 11.507812 204.738281 11.246094 204.523438 11.078125 C 204.300781 10.914062 204.023438 10.832031 203.695312 10.832031 C 203.3125 10.832031 202.992188 10.921875 202.734375 11.105469 C 202.476562 11.289062 202.296875 11.535156 202.195312 11.84375 C 202.089844 12.152344 202.039062 12.46875 202.039062 12.796875 C 202.039062 13.21875 202.097656 13.589844 202.222656 13.902344 C 202.34375 14.222656 202.535156 14.457031 202.796875 14.613281 C 203.058594 14.769531 203.339844 14.847656 203.644531 14.84375 C 204.015625 14.847656 204.328125 14.742188 204.582031 14.527344 C 204.835938 14.316406 205.007812 14 205.101562 13.578125 Z M 205.101562 13.578125 "/>
<path style=" stroke:none;fill-rule:nonzero;fill:rgb(0%,0%,0%);fill-opacity:1;" d="M 206.492188 15.320312 L 206.492188 10.351562 L 207.105469 10.351562 L 207.105469 12.136719 C 207.386719 11.808594 207.746094 11.640625 208.183594 11.640625 C 208.449219 11.640625 208.683594 11.695312 208.878906 11.800781 C 209.074219 11.90625 209.214844 12.050781 209.300781 12.234375 C 209.386719 12.421875 209.425781 12.691406 209.429688 13.042969 L 209.429688 15.320312 L 208.820312 15.320312 L 208.820312 13.042969 C 208.816406 12.738281 208.75 12.515625 208.621094 12.375 C 208.488281 12.234375 208.300781 12.164062 208.058594 12.164062 C 207.875 12.164062 207.703125 12.214844 207.546875 12.304688 C 207.382812 12.402344 207.269531 12.53125 207.207031 12.6875 C 207.132812 12.851562 207.101562 13.070312 207.105469 13.351562 L 207.105469 15.320312 Z M 206.492188 15.320312 "/>
<path style=" stroke:none;fill-rule:nonzero;fill:rgb(0%,0%,0%);fill-opacity:1;" d="M 210.363281 11.054688 L 210.363281 10.351562 L 210.972656 10.351562 L 210.972656 11.054688 Z M 210.363281 15.320312 L 210.363281 11.71875 L 210.972656 11.71875 L 210.972656 15.320312 Z M 210.363281 15.320312 "/>
<path style=" stroke:none;fill-rule:nonzero;fill:rgb(0%,0%,0%);fill-opacity:1;" d="M 211.898438 15.320312 L 211.898438 11.71875 L 212.449219 11.71875 L 212.449219 12.269531 C 212.585938 12.011719 212.714844 11.84375 212.835938 11.761719 C 212.953125 11.683594 213.085938 11.640625 213.226562 11.640625 C 213.433594 11.640625 213.644531 11.707031 213.859375 11.835938 L 213.648438 12.402344 C 213.496094 12.316406 213.347656 12.269531 213.199219 12.269531 C 213.0625 12.269531 212.941406 12.3125 212.835938 12.394531 C 212.730469 12.472656 212.65625 12.585938 212.613281 12.722656 C 212.542969 12.945312 212.503906 13.183594 212.507812 13.4375 L 212.507812 15.320312 Z M 211.898438 15.320312 "/>
<path style=" stroke:none;fill-rule:nonzero;fill:rgb(0%,0%,0%);fill-opacity:1;" d="M 216.574219 14.878906 C 216.34375 15.074219 216.125 15.207031 215.917969 15.285156 C 215.707031 15.367188 215.484375 15.402344 215.246094 15.402344 C 214.847656 15.402344 214.542969 15.308594 214.332031 15.113281 C 214.121094 14.921875 214.015625 14.675781 214.015625 14.371094 C 214.015625 14.199219 214.050781 14.035156 214.132812 13.890625 C 214.210938 13.742188 214.316406 13.628906 214.449219 13.539062 C 214.578125 13.453125 214.722656 13.386719 214.890625 13.339844 C 215.007812 13.308594 215.1875 13.277344 215.433594 13.246094 C 215.925781 13.1875 216.289062 13.117188 216.523438 13.035156 C 216.523438 12.953125 216.523438 12.902344 216.527344 12.878906 C 216.523438 12.632812 216.46875 12.457031 216.351562 12.351562 C 216.195312 12.21875 215.960938 12.148438 215.65625 12.144531 C 215.367188 12.148438 215.15625 12.199219 215.019531 12.296875 C 214.882812 12.402344 214.78125 12.578125 214.714844 12.828125 L 214.117188 12.75 C 214.167969 12.496094 214.257812 12.289062 214.386719 12.128906 C 214.507812 11.976562 214.691406 11.855469 214.925781 11.765625 C 215.160156 11.683594 215.433594 11.640625 215.746094 11.640625 C 216.050781 11.640625 216.300781 11.675781 216.496094 11.746094 C 216.6875 11.820312 216.828125 11.914062 216.921875 12.023438 C 217.007812 12.136719 217.074219 12.273438 217.109375 12.4375 C 217.128906 12.546875 217.136719 12.730469 217.140625 13 L 217.140625 13.8125 C 217.136719 14.382812 217.152344 14.738281 217.179688 14.890625 C 217.203125 15.042969 217.253906 15.1875 217.332031 15.320312 L 216.695312 15.320312 C 216.628906 15.195312 216.589844 15.050781 216.574219 14.878906 Z M 216.523438 13.515625 C 216.300781 13.609375 215.96875 13.6875 215.523438 13.746094 C 215.273438 13.785156 215.09375 13.824219 214.988281 13.867188 C 214.882812 13.917969 214.804688 13.980469 214.75 14.066406 C 214.695312 14.15625 214.667969 14.253906 214.667969 14.355469 C 214.667969 14.523438 214.726562 14.65625 214.851562 14.761719 C 214.972656 14.875 215.152344 14.929688 215.390625 14.925781 C 215.625 14.929688 215.835938 14.878906 216.019531 14.773438 C 216.203125 14.671875 216.335938 14.53125 216.425781 14.347656 C 216.488281 14.210938 216.519531 14.007812 216.523438 13.738281 Z M 216.523438 13.515625 "/>
<path style=" stroke:none;fill-rule:nonzero;fill:rgb(0%,0%,0%);fill-opacity:1;" d="M 218.074219 15.320312 L 218.074219 10.351562 L 218.6875 10.351562 L 218.6875 15.320312 Z M 218.074219 15.320312 "/>
<path style=" stroke:none;fill-rule:nonzero;fill:rgb(0%,0%,0%);fill-opacity:1;" d="M 80.714844 92.757812 C 80.710938 91.9375 80.933594 91.292969 81.378906 90.824219 C 81.824219 90.359375 82.394531 90.125 83.097656 90.125 C 83.554688 90.125 83.96875 90.234375 84.339844 90.453125 C 84.707031 90.671875 84.988281 90.976562 85.183594 91.367188 C 85.375 91.765625 85.472656 92.207031 85.472656 92.703125 C 85.472656 93.210938 85.367188 93.660156 85.167969 94.054688 C 84.960938 94.453125 84.671875 94.753906 84.304688 94.957031 C 83.929688 95.160156 83.527344 95.261719 83.09375 95.265625 C 82.625 95.261719 82.207031 95.152344 81.835938 94.925781 C 81.46875 94.699219 81.1875 94.390625 81 94 C 80.808594 93.609375 80.710938 93.199219 80.714844 92.757812 Z M 81.394531 92.769531 C 81.390625 93.371094 81.554688 93.839844 81.878906 94.183594 C 82.199219 94.53125 82.601562 94.707031 83.089844 94.703125 C 83.585938 94.707031 83.992188 94.53125 84.3125 94.183594 C 84.632812 93.835938 84.792969 93.339844 84.792969 92.699219 C 84.792969 92.296875 84.722656 91.941406 84.589844 91.640625 C 84.449219 91.339844 84.25 91.105469 83.988281 90.9375 C 83.722656 90.773438 83.429688 90.691406 83.101562 90.691406 C 82.632812 90.691406 82.230469 90.851562 81.894531 91.171875 C 81.558594 91.488281 81.390625 92.023438 81.394531 92.769531 Z M 81.394531 92.769531 "/>
<path style=" stroke:none;fill-rule:nonzero;fill:rgb(0%,0%,0%);fill-opacity:1;" d="M 112.003906 74.722656 C 112.003906 73.902344 112.226562 73.253906 112.671875 72.785156 C 113.113281 72.324219 113.683594 72.089844 114.386719 72.085938 C 114.84375 72.089844 115.257812 72.199219 115.632812 72.414062 C 116 72.632812 116.277344 72.941406 116.472656 73.332031 C 116.664062 73.726562 116.761719 74.171875 116.765625 74.664062 C 116.761719 75.171875 116.660156 75.621094 116.457031 76.019531 C 116.25 76.417969 115.964844 76.71875 115.59375 76.921875 C 115.21875 77.125 114.816406 77.226562 114.386719 77.226562 C 113.914062 77.226562 113.496094 77.113281 113.128906 76.890625 C 112.757812 76.664062 112.476562 76.355469 112.289062 75.964844 C 112.097656 75.574219 112.003906 75.160156 112.003906 74.722656 Z M 112.683594 74.734375 C 112.683594 75.332031 112.84375 75.804688 113.167969 76.148438 C 113.488281 76.496094 113.894531 76.667969 114.382812 76.667969 C 114.875 76.667969 115.285156 76.496094 115.605469 76.144531 C 115.925781 75.800781 116.085938 75.304688 116.085938 74.664062 C 116.085938 74.257812 116.015625 73.90625 115.878906 73.601562 C 115.742188 73.300781 115.542969 73.066406 115.277344 72.902344 C 115.015625 72.738281 114.71875 72.652344 114.394531 72.652344 C 113.921875 72.652344 113.519531 72.8125 113.1875 73.132812 C 112.851562 73.453125 112.683594 73.988281 112.683594 74.734375 Z M 112.683594 74.734375 "/>
<path style=" stroke:none;fill-rule:nonzero;fill:rgb(0%,0%,0%);fill-opacity:1;" d="M 185.015625 128.832031 C 185.015625 128.011719 185.238281 127.363281 185.683594 126.894531 C 186.125 126.433594 186.695312 126.199219 187.398438 126.195312 C 187.855469 126.199219 188.269531 126.308594 188.644531 126.523438 C 189.011719 126.742188 189.289062 127.050781 189.484375 127.441406 C 189.675781 127.835938 189.773438 128.28125 189.777344 128.773438 C 189.773438 129.28125 189.671875 129.734375 189.46875 130.128906 C 189.261719 130.527344 188.976562 130.828125 188.605469 131.03125 C 188.230469 131.234375 187.828125 131.335938 187.398438 131.339844 C 186.925781 131.335938 186.507812 131.222656 186.140625 131 C 185.769531 130.773438 185.488281 130.464844 185.300781 130.074219 C 185.109375 129.683594 185.015625 129.273438 185.015625 128.832031 Z M 185.695312 128.84375 C 185.695312 129.441406 185.855469 129.914062 186.179688 130.257812 C 186.5 130.605469 186.90625 130.78125 187.394531 130.777344 C 187.886719 130.78125 188.296875 130.605469 188.617188 130.257812 C 188.9375 129.910156 189.097656 129.414062 189.097656 128.773438 C 189.097656 128.367188 189.027344 128.015625 188.890625 127.710938 C 188.75 127.410156 188.554688 127.179688 188.289062 127.011719 C 188.027344 126.847656 187.730469 126.761719 187.40625 126.761719 C 186.933594 126.761719 186.53125 126.921875 186.199219 127.242188 C 185.863281 127.5625 185.695312 128.097656 185.695312 128.84375 Z M 185.695312 128.84375 "/>
<path style=" stroke:none;fill-rule:nonzero;fill:rgb(0%,0%,0%);fill-opacity:1;" d="M 153.726562 146.867188 C 153.722656 146.046875 153.945312 145.402344 154.390625 144.933594 C 154.835938 144.46875 155.40625 144.234375 156.109375 144.234375 C 156.566406 144.234375 156.980469 144.34375 157.351562 144.5625 C 157.71875 144.78125 158 145.085938 158.195312 145.476562 C 158.382812 145.875 158.484375 146.316406 158.484375 146.8125 C 158.484375 147.320312 158.378906 147.769531 158.179688 148.164062 C 157.972656 148.5625 157.683594 148.863281 157.316406 149.066406 C 156.941406 149.273438 156.539062 149.371094 156.105469 149.375 C 155.636719 149.371094 155.21875 149.261719 154.847656 149.035156 C 154.480469 148.808594 154.199219 148.5 154.011719 148.109375 C 153.820312 147.71875 153.722656 147.308594 153.726562 146.867188 Z M 154.40625 146.878906 C 154.402344 147.480469 154.566406 147.949219 154.890625 148.296875 C 155.210938 148.640625 155.613281 148.816406 156.101562 148.8125 C 156.597656 148.816406 157.003906 148.640625 157.324219 148.292969 C 157.644531 147.945312 157.804688 147.449219 157.804688 146.808594 C 157.804688 146.40625 157.734375 146.050781 157.601562 145.75 C 157.460938 145.449219 157.261719 145.214844 157 145.050781 C 156.734375 144.882812 156.441406 144.800781 156.113281 144.800781 C 155.644531 144.800781 155.242188 144.960938 154.90625 145.28125 C 154.570312 145.601562 154.402344 146.132812 154.40625 146.878906 Z M 154.40625 146.878906 "/>
<path style=" stroke:none;fill-rule:nonzero;fill:rgb(0%,0%,0%);fill-opacity:1;" d="M 91.144531 146.867188 C 91.140625 146.046875 91.363281 145.402344 91.808594 144.933594 C 92.253906 144.46875 92.824219 144.234375 93.527344 144.234375 C 93.984375 144.234375 94.398438 144.34375 94.769531 144.5625 C 95.136719 144.78125 95.417969 145.085938 95.613281 145.476562 C 95.804688 145.875 95.902344 146.316406 95.902344 146.8125 C 95.902344 147.320312 95.796875 147.769531 95.597656 148.164062 C 95.390625 148.5625 95.101562 148.863281 94.734375 149.066406 C 94.359375 149.273438 93.957031 149.371094 93.523438 149.375 C 93.054688 149.371094 92.636719 149.261719 92.265625 149.035156 C 91.898438 148.808594 91.617188 148.5 91.429688 148.109375 C 91.238281 147.71875 91.140625 147.308594 91.144531 146.867188 Z M 91.824219 146.878906 C 91.820312 147.480469 91.984375 147.949219 92.308594 148.296875 C 92.628906 148.640625 93.03125 148.816406 93.523438 148.8125 C 94.015625 148.816406 94.421875 148.640625 94.742188 148.292969 C 95.066406 147.945312 95.226562 147.449219 95.226562 146.808594 C 95.226562 146.40625 95.152344 146.050781 95.019531 145.75 C 94.878906 145.449219 94.679688 145.214844 94.417969 145.050781 C 94.15625 144.882812 93.859375 144.800781 93.53125 144.800781 C 93.0625 144.800781 92.660156 144.960938 92.328125 145.28125 C 91.988281 145.601562 91.820312 146.132812 91.824219 146.878906 Z M 91.824219 146.878906 "/>
<path style=" stroke:none;fill-rule:nonzero;fill:rgb(0%,0%,0%);fill-opacity:1;" d="M 91.144531 110.796875 C 91.140625 109.972656 91.363281 109.328125 91.808594 108.859375 C 92.253906 108.394531 92.824219 108.164062 93.527344 108.160156 C 93.984375 108.164062 94.398438 108.269531 94.769531 108.488281 C 95.136719 108.707031 95.417969 109.015625 95.613281 109.40625 C 95.804688 109.800781 95.902344 110.246094 95.902344 110.738281 C 95.902344 111.246094 95.796875 111.695312 95.597656 112.09375 C 95.390625 112.492188 95.101562 112.792969 94.734375 112.996094 C 94.359375 113.199219 93.957031 113.296875 93.523438 113.300781 C 93.054688 113.296875 92.636719 113.1875 92.265625 112.960938 C 91.898438 112.738281 91.617188 112.429688 91.429688 112.039062 C 91.238281 111.648438 91.140625 111.234375 91.144531 110.796875 Z M 91.824219 110.804688 C 91.820312 111.40625 91.984375 111.878906 92.308594 112.222656 C 92.628906 112.570312 93.03125 112.742188 93.523438 112.738281 C 94.015625 112.742188 94.421875 112.570312 94.742188 112.21875 C 95.066406 111.871094 95.226562 111.375 95.226562 110.734375 C 95.226562 110.332031 95.152344 109.980469 95.019531 109.675781 C 94.878906 109.375 94.679688 109.140625 94.417969 108.976562 C 94.15625 108.8125 93.859375 108.726562 93.53125 108.726562 C 93.0625 108.726562 92.660156 108.886719 92.328125 109.207031 C 91.988281 109.527344 91.820312 110.0625 91.824219 110.804688 Z M 91.824219 110.804688 "/>
<path style=" stroke:none;fill-rule:nonzero;fill:rgb(0%,0%,0%);fill-opacity:1;" d="M 185.015625 92.757812 C 185.015625 91.9375 185.238281 91.292969 185.683594 90.824219 C 186.125 90.359375 186.695312 90.125 187.398438 90.125 C 187.855469 90.125 188.269531 90.234375 188.644531 90.453125 C 189.011719 90.671875 189.289062 90.976562 189.484375 91.367188 C 189.675781 91.765625 189.773438 92.207031 189.777344 92.703125 C 189.773438 93.210938 189.671875 93.660156 189.46875 94.054688 C 189.261719 94.453125 188.976562 94.753906 188.605469 94.957031 C 188.230469 95.160156 187.828125 95.261719 187.398438 95.265625 C 186.925781 95.261719 186.507812 95.152344 186.140625 94.925781 C 185.769531 94.699219 185.488281 94.390625 185.300781 94 C 185.109375 93.609375 185.015625 93.199219 185.015625 92.757812 Z M 185.695312 92.769531 C 185.695312 93.371094 185.855469 93.839844 186.179688 94.183594 C 186.5 94.53125 186.90625 94.707031 187.394531 94.703125 C 187.886719 94.707031 188.296875 94.53125 188.617188 94.183594 C 188.9375 93.835938 189.097656 93.339844 189.097656 92.699219 C 189.097656 92.296875 189.027344 91.941406 188.890625 91.640625 C 188.75 91.339844 188.554688 91.105469 188.289062 90.9375 C 188.027344 90.773438 187.730469 90.691406 187.40625 90.691406 C 186.933594 90.691406 186.53125 90.851562 186.199219 91.171875 C 185.863281 91.488281 185.695312 92.023438 185.695312 92.769531 Z M 185.695312 92.769531 "/>
<path style=" stroke:none;fill-rule:nonzero;fill:rgb(0%,0%,0%);fill-opacity:1;" d="M 153.726562 74.722656 C 153.722656 73.902344 153.945312 73.253906 154.390625 72.785156 C 154.835938 72.324219 155.40625 72.089844 156.109375 72.085938 C 156.566406 72.089844 156.980469 72.199219 157.351562 72.414062 C 157.71875 72.632812 158 72.941406 158.195312 73.332031 C 158.382812 73.726562 158.484375 74.171875 158.484375 74.664062 C 158.484375 75.171875 158.378906 75.621094 158.179688 76.019531 C 157.972656 76.417969 157.683594 76.71875 157.316406 76.921875 C 156.941406 77.125 156.539062 77.226562 156.105469 77.226562 C 155.636719 77.226562 155.21875 77.113281 154.847656 76.890625 C 154.480469 76.664062 154.199219 76.355469 154.011719 75.964844 C 153.820312 75.574219 153.722656 75.160156 153.726562 74.722656 Z M 154.40625 74.734375 C 154.402344 75.332031 154.566406 75.804688 154.890625 76.148438 C 155.210938 76.496094 155.613281 76.667969 156.101562 76.667969 C 156.597656 76.667969 157.003906 76.496094 157.324219 76.144531 C 157.644531 75.800781 157.804688 75.304688 157.804688 74.664062 C 157.804688 74.257812 157.734375 73.90625 157.601562 73.601562 C 157.460938 73.300781 157.261719 73.066406 157 72.902344 C 156.734375 72.738281 156.441406 72.652344 156.113281 72.652344 C 155.644531 72.652344 155.242188 72.8125 154.90625 73.132812 C 154.570312 73.453125 154.402344 73.988281 154.40625 74.734375 Z M 154.40625 74.734375 "/>
<path style=" stroke:none;fill-rule:nonzero;fill:rgb(0%,0%,0%);fill-opacity:1;" d="M 112.003906 146.867188 C 112.003906 146.046875 112.226562 145.402344 112.671875 144.933594 C 113.113281 144.46875 113.683594 144.234375 114.386719 144.234375 C 114.84375 144.234375 115.257812 144.34375 115.632812 144.5625 C 116 144.78125 116.277344 145.085938 116.472656 145.476562 C 116.664062 145.875 116.761719 146.316406 116.765625 146.8125 C 116.761719 147.320312 116.660156 147.769531 116.457031 148.164062 C 116.25 148.5625 115.964844 148.863281 115.59375 149.066406 C 115.21875 149.273438 114.816406 149.371094 114.386719 149.375 C 113.914062 149.371094 113.496094 149.261719 113.128906 149.035156 C 112.757812 148.808594 112.476562 148.5 112.289062 148.109375 C 112.097656 147.71875 112.003906 147.308594 112.003906 146.867188 Z M 112.683594 146.878906 C 112.683594 147.480469 112.84375 147.949219 113.167969 148.296875 C 113.488281 148.640625 113.894531 148.816406 114.382812 148.8125 C 114.875 148.816406 115.285156 148.640625 115.605469 148.292969 C 115.925781 147.945312 116.085938 147.449219 116.085938 146.808594 C 116.085938 146.40625 116.015625 146.050781 115.878906 145.75 C 115.742188 145.449219 115.542969 145.214844 115.277344 145.050781 C 115.015625 144.882812 114.71875 144.800781 114.394531 144.800781 C 113.921875 144.800781 113.519531 144.960938 113.1875 145.28125 C 112.851562 145.601562 112.683594 146.132812 112.683594 146.878906 Z M 112.683594 146.878906 "/>
<path style=" stroke:none;fill-rule:nonzero;fill:rgb(0%,0%,0%);fill-opacity:1;" d="M 174.585938 110.796875 C 174.585938 109.972656 174.808594 109.328125 175.253906 108.859375 C 175.695312 108.394531 176.265625 108.164062 176.96875 108.160156 C 177.425781 108.164062 177.839844 108.269531 178.214844 108.488281 C 178.578125 108.707031 178.859375 109.015625 179.054688 109.40625 C 179.246094 109.800781 179.34375 110.246094 179.34375 110.738281 C 179.34375 111.246094 179.238281 111.695312 179.039062 112.09375 C 178.832031 112.492188 178.542969 112.792969 178.175781 112.996094 C 177.800781 113.199219 177.398438 113.296875 176.964844 113.300781 C 176.496094 113.296875 176.078125 113.1875 175.707031 112.960938 C 175.339844 112.738281 175.058594 112.429688 174.871094 112.039062 C 174.679688 111.648438 174.585938 111.234375 174.585938 110.796875 Z M 175.265625 110.804688 C 175.261719 111.40625 175.425781 111.878906 175.75 112.222656 C 176.070312 112.570312 176.476562 112.742188 176.964844 112.738281 C 177.457031 112.742188 177.867188 112.570312 178.1875 112.21875 C 178.507812 111.871094 178.667969 111.375 178.667969 110.734375 C 178.667969 110.332031 178.597656 109.980469 178.460938 109.675781 C 178.320312 109.375 178.125 109.140625 177.859375 108.976562 C 177.597656 108.8125 177.300781 108.726562 176.972656 108.726562 C 176.503906 108.726562 176.101562 108.886719 175.769531 109.207031 C 175.429688 109.527344 175.261719 110.0625 175.265625 110.804688 Z M 175.265625 110.804688 "/>
<path style=" stroke:none;fill-rule:nonzero;fill:rgb(0%,0%,0%);fill-opacity:1;" d="M 124.816406 92.695312 L 118.820312 77.46875 L 114.605469 79.898438 "/>
<path style="fill:none;stroke-width:0.0333333;stroke-linecap:butt;stroke-linejoin:miter;stroke:rgb(0%,0%,0%);stroke-opacity:1;stroke-miterlimit:10;" d="M 3.452009 2.51478 L 3.039483 3.229182 " transform="matrix(20.860465,0,0,20.827068,20.51293,20.546385)"/>
<path style="fill:none;stroke-width:0.0333333;stroke-linecap:butt;stroke-linejoin:miter;stroke:rgb(0%,0%,0%);stroke-opacity:1;stroke-miterlimit:10;" d="M 3.596196 2.598055 L 3.183671 3.312645 " transform="matrix(20.860465,0,0,20.827068,20.51293,20.546385)"/>
<path style="fill:none;stroke-width:0.0333333;stroke-linecap:butt;stroke-linejoin:miter;stroke:rgb(0%,0%,0%);stroke-opacity:1;stroke-miterlimit:10;" d="M 3.490396 2.598055 L 4.342599 2.598055 " transform="matrix(20.860465,0,0,20.827068,20.51293,20.546385)"/>
<path style="fill:none;stroke-width:0.0333333;stroke-linecap:butt;stroke-linejoin:miter;stroke:rgb(0%,0%,0%);stroke-opacity:1;stroke-miterlimit:10;" d="M 3.504815 0.857531 L 2.999972 1.731919 " transform="matrix(20.860465,0,0,20.827068,20.51293,20.546385)"/>
<path style="fill:none;stroke-width:0.0333333;stroke-linecap:butt;stroke-linejoin:miter;stroke:rgb(0%,0%,0%);stroke-opacity:1;stroke-miterlimit:10;" d="M 1.990287 1.731919 L 2.999972 1.731919 " transform="matrix(20.860465,0,0,20.827068,20.51293,20.546385)"/>
<path style="fill:none;stroke-width:0.0333333;stroke-linecap:butt;stroke-linejoin:miter;stroke:rgb(0%,0%,0%);stroke-opacity:1;stroke-miterlimit:10;" d="M 2.004893 1.740359 L 1.495182 0.857531 " transform="matrix(20.860465,0,0,20.827068,20.51293,20.546385)"/>
<path style="fill:none;stroke-width:0.0333333;stroke-linecap:butt;stroke-linejoin:miter;stroke:rgb(0%,0%,0%);stroke-opacity:1;stroke-miterlimit:10;" d="M 1.495182 0.874224 L 2.004893 -0.00841653 " transform="matrix(20.860465,0,0,20.827068,20.51293,20.546385)"/>
<path style="fill:none;stroke-width:0.0333333;stroke-linecap:butt;stroke-linejoin:miter;stroke:rgb(0%,0%,0%);stroke-opacity:1;stroke-miterlimit:10;" d="M 1.990287 0.0000235058 L 3.00971 0.0000235058 " transform="matrix(20.860465,0,0,20.827068,20.51293,20.546385)"/>
<path style="fill:none;stroke-width:0.0333333;stroke-linecap:butt;stroke-linejoin:miter;stroke:rgb(0%,0%,0%);stroke-opacity:1;stroke-miterlimit:10;" d="M 2.995104 -0.00841653 L 3.504815 0.874224 " transform="matrix(20.860465,0,0,20.827068,20.51293,20.546385)"/>
<path style="fill:none;stroke-width:0.0333333;stroke-linecap:butt;stroke-linejoin:miter;stroke:rgb(0%,0%,0%);stroke-opacity:1;stroke-miterlimit:10;" d="M 6.026219 5.262669 L 6.04457 5.251978 M 6.052247 5.329064 L 6.08895 5.30787 M 6.078463 5.395646 L 6.133517 5.363762 M 6.104492 5.462041 L 6.177896 5.419653 M 6.13052 5.528436 L 6.222463 5.475545 M 6.156736 5.595019 L 6.266843 5.53125 M 6.182952 5.661414 L 6.31141 5.587141 M 6.208981 5.727996 L 6.355977 5.643033 M 6.235197 5.794391 L 6.400544 5.698925 M 6.261225 5.860786 L 6.444923 5.754817 M 6.287441 5.927369 L 6.48949 5.810521 " transform="matrix(20.860465,0,0,20.827068,20.51293,20.546385)"/>
<path style="fill:none;stroke-width:0.0333333;stroke-linecap:butt;stroke-linejoin:miter;stroke:rgb(0%,0%,0%);stroke-opacity:1;stroke-miterlimit:10;" d="M 7.548049 6.145497 L 7.960575 5.431094 " transform="matrix(20.860465,0,0,20.827068,20.51293,20.546385)"/>
<path style="fill:none;stroke-width:0.0333333;stroke-linecap:butt;stroke-linejoin:miter;stroke:rgb(0%,0%,0%);stroke-opacity:1;stroke-miterlimit:10;" d="M 7.403862 6.062222 L 7.8162 5.347632 " transform="matrix(20.860465,0,0,20.827068,20.51293,20.546385)"/>
<path style="fill:none;stroke-width:0.0333333;stroke-linecap:butt;stroke-linejoin:miter;stroke:rgb(0%,0%,0%);stroke-opacity:1;stroke-miterlimit:10;" d="M 7.509662 6.062222 L 6.657459 6.062222 " transform="matrix(20.860465,0,0,20.827068,20.51293,20.546385)"/>
<path style="fill:none;stroke-width:0.0333333;stroke-linecap:butt;stroke-linejoin:miter;stroke:rgb(0%,0%,0%);stroke-opacity:1;stroke-miterlimit:10;" d="M 7.495243 7.802558 L 8.000086 6.92817 " transform="matrix(20.860465,0,0,20.827068,20.51293,20.546385)"/>
<path style="fill:none;stroke-width:0.0333333;stroke-linecap:butt;stroke-linejoin:miter;stroke:rgb(0%,0%,0%);stroke-opacity:1;stroke-miterlimit:10;" d="M 9.009583 6.92817 L 8.000086 6.92817 " transform="matrix(20.860465,0,0,20.827068,20.51293,20.546385)"/>
<path style="fill:none;stroke-width:0.0333333;stroke-linecap:butt;stroke-linejoin:miter;stroke:rgb(0%,0%,0%);stroke-opacity:1;stroke-miterlimit:10;" d="M 8.995165 6.919917 L 9.504876 7.802558 " transform="matrix(20.860465,0,0,20.827068,20.51293,20.546385)"/>
<path style="fill:none;stroke-width:0.0333333;stroke-linecap:butt;stroke-linejoin:miter;stroke:rgb(0%,0%,0%);stroke-opacity:1;stroke-miterlimit:10;" d="M 9.504876 7.785865 L 8.995165 8.668693 " transform="matrix(20.860465,0,0,20.827068,20.51293,20.546385)"/>
<path style="fill:none;stroke-width:0.0333333;stroke-linecap:butt;stroke-linejoin:miter;stroke:rgb(0%,0%,0%);stroke-opacity:1;stroke-miterlimit:10;" d="M 9.009583 8.660441 L 7.990348 8.660441 " transform="matrix(20.860465,0,0,20.827068,20.51293,20.546385)"/>
<path style="fill:none;stroke-width:0.0333333;stroke-linecap:butt;stroke-linejoin:miter;stroke:rgb(0%,0%,0%);stroke-opacity:1;stroke-miterlimit:10;" d="M 8.004767 8.668693 L 7.495243 7.785865 " transform="matrix(20.860465,0,0,20.827068,20.51293,20.546385)"/>
<path style="fill:none;stroke-width:0.0333333;stroke-linecap:butt;stroke-linejoin:miter;stroke:rgb(0%,0%,0%);stroke-opacity:1;stroke-miterlimit:10;" d="M 4.42986 4.320385 L 4.42986 4.339704 M 4.359639 4.310632 L 4.359639 4.349457 M 4.289231 4.301067 L 4.289231 4.359397 M 4.219197 4.291127 L 4.219197 4.368962 M 4.148976 4.281374 L 4.148976 4.378715 M 4.078755 4.271808 L 4.078755 4.388468 M 4.008534 4.262055 L 4.008534 4.398034 M 3.938313 4.252302 L 3.938313 4.407787 M 3.868092 4.242549 L 3.868092 4.417727 M 3.797871 4.232797 L 3.797871 4.427293 M 3.72765 4.223044 L 3.72765 4.437045 M 3.657429 4.213478 L 3.657429 4.446798 " transform="matrix(20.860465,0,0,20.827068,20.51293,20.546385)"/>
<path style="fill:none;stroke-width:0.0333333;stroke-linecap:butt;stroke-linejoin:miter;stroke:rgb(0%,0%,0%);stroke-opacity:1;stroke-miterlimit:10;" d="M 2.903723 5.196086 L 3.316248 5.910676 " transform="matrix(20.860465,0,0,20.827068,20.51293,20.546385)"/>
<path style="fill:none;stroke-width:0.0333333;stroke-linecap:butt;stroke-linejoin:miter;stroke:rgb(0%,0%,0%);stroke-opacity:1;stroke-miterlimit:10;" d="M 3.048097 5.112811 L 3.460623 5.827214 " transform="matrix(20.860465,0,0,20.827068,20.51293,20.546385)"/>
<path style="fill:none;stroke-width:0.0333333;stroke-linecap:butt;stroke-linejoin:miter;stroke:rgb(0%,0%,0%);stroke-opacity:1;stroke-miterlimit:10;" d="M 2.995104 5.204526 L 3.388342 4.523321 " transform="matrix(20.860465,0,0,20.827068,20.51293,20.546385)"/>
<path style="fill:none;stroke-width:0.0333333;stroke-linecap:butt;stroke-linejoin:miter;stroke:rgb(0%,0%,0%);stroke-opacity:1;stroke-miterlimit:10;" d="M 1.495182 4.321886 L 2.000025 5.196086 " transform="matrix(20.860465,0,0,20.827068,20.51293,20.546385)"/>
<path style="fill:none;stroke-width:0.0333333;stroke-linecap:butt;stroke-linejoin:miter;stroke:rgb(0%,0%,0%);stroke-opacity:1;stroke-miterlimit:10;" d="M 1.495182 6.070474 L 2.000025 5.196086 " transform="matrix(20.860465,0,0,20.827068,20.51293,20.546385)"/>
<path style="fill:none;stroke-width:0.0333333;stroke-linecap:butt;stroke-linejoin:miter;stroke:rgb(0%,0%,0%);stroke-opacity:1;stroke-miterlimit:10;" d="M 1.509601 6.062222 L 0.490366 6.062222 " transform="matrix(20.860465,0,0,20.827068,20.51293,20.546385)"/>
<path style="fill:none;stroke-width:0.0333333;stroke-linecap:butt;stroke-linejoin:miter;stroke:rgb(0%,0%,0%);stroke-opacity:1;stroke-miterlimit:10;" d="M 0.504784 6.070474 L -0.00473946 5.187834 " transform="matrix(20.860465,0,0,20.827068,20.51293,20.546385)"/>
<path style="fill:none;stroke-width:0.0333333;stroke-linecap:butt;stroke-linejoin:miter;stroke:rgb(0%,0%,0%);stroke-opacity:1;stroke-miterlimit:10;" d="M -0.00473946 5.204526 L 0.504784 4.321886 " transform="matrix(20.860465,0,0,20.827068,20.51293,20.546385)"/>
<path style="fill:none;stroke-width:0.0333333;stroke-linecap:butt;stroke-linejoin:miter;stroke:rgb(0%,0%,0%);stroke-opacity:1;stroke-miterlimit:10;" d="M 0.490366 4.330138 L 1.509601 4.330138 " transform="matrix(20.860465,0,0,20.827068,20.51293,20.546385)"/>
<path style="fill:none;stroke-width:0.0333333;stroke-linecap:butt;stroke-linejoin:miter;stroke:rgb(0%,0%,0%);stroke-opacity:1;stroke-miterlimit:10;" d="M 6.04457 3.408299 L 6.026219 3.397608 M 6.08895 3.352407 L 6.052247 3.331213 M 6.133517 3.296515 L 6.078463 3.26463 M 6.177896 3.240623 L 6.104492 3.198235 M 6.222463 3.184919 L 6.13052 3.13184 M 6.266843 3.129027 L 6.156736 3.065258 M 6.31141 3.073135 L 6.182952 2.998863 M 6.355977 3.017243 L 6.208981 2.93228 M 6.400544 2.961352 L 6.235197 2.865885 M 6.444923 2.90546 L 6.261225 2.79949 M 6.48949 2.849756 L 6.287441 2.733095 " transform="matrix(20.860465,0,0,20.827068,20.51293,20.546385)"/>
<path style="fill:none;stroke-width:0.0333333;stroke-linecap:butt;stroke-linejoin:miter;stroke:rgb(0%,0%,0%);stroke-opacity:1;stroke-miterlimit:10;" d="M 7.403862 2.598055 L 7.8162 3.312645 " transform="matrix(20.860465,0,0,20.827068,20.51293,20.546385)"/>
<path style="fill:none;stroke-width:0.0333333;stroke-linecap:butt;stroke-linejoin:miter;stroke:rgb(0%,0%,0%);stroke-opacity:1;stroke-miterlimit:10;" d="M 7.548049 2.51478 L 7.960575 3.229182 " transform="matrix(20.860465,0,0,20.827068,20.51293,20.546385)"/>
<path style="fill:none;stroke-width:0.0333333;stroke-linecap:butt;stroke-linejoin:miter;stroke:rgb(0%,0%,0%);stroke-opacity:1;stroke-miterlimit:10;" d="M 7.509662 2.598055 L 6.657459 2.598055 " transform="matrix(20.860465,0,0,20.827068,20.51293,20.546385)"/>
<path style="fill:none;stroke-width:0.0333333;stroke-linecap:butt;stroke-linejoin:miter;stroke:rgb(0%,0%,0%);stroke-opacity:1;stroke-miterlimit:10;" d="M 9.009583 1.731919 L 8.000086 1.731919 " transform="matrix(20.860465,0,0,20.827068,20.51293,20.546385)"/>
<path style="fill:none;stroke-width:0.0333333;stroke-linecap:butt;stroke-linejoin:miter;stroke:rgb(0%,0%,0%);stroke-opacity:1;stroke-miterlimit:10;" d="M 7.495243 0.857531 L 8.000086 1.731919 " transform="matrix(20.860465,0,0,20.827068,20.51293,20.546385)"/>
<path style="fill:none;stroke-width:0.0333333;stroke-linecap:butt;stroke-linejoin:miter;stroke:rgb(0%,0%,0%);stroke-opacity:1;stroke-miterlimit:10;" d="M 7.495243 0.874224 L 8.004767 -0.00841653 " transform="matrix(20.860465,0,0,20.827068,20.51293,20.546385)"/>
<path style="fill:none;stroke-width:0.0333333;stroke-linecap:butt;stroke-linejoin:miter;stroke:rgb(0%,0%,0%);stroke-opacity:1;stroke-miterlimit:10;" d="M 7.990348 0.0000235058 L 9.009583 0.0000235058 " transform="matrix(20.860465,0,0,20.827068,20.51293,20.546385)"/>
<path style="fill:none;stroke-width:0.0333333;stroke-linecap:butt;stroke-linejoin:miter;stroke:rgb(0%,0%,0%);stroke-opacity:1;stroke-miterlimit:10;" d="M 8.995165 -0.00841653 L 9.504876 0.874224 " transform="matrix(20.860465,0,0,20.827068,20.51293,20.546385)"/>
<path style="fill:none;stroke-width:0.0333333;stroke-linecap:butt;stroke-linejoin:miter;stroke:rgb(0%,0%,0%);stroke-opacity:1;stroke-miterlimit:10;" d="M 9.504876 0.857531 L 8.995165 1.740359 " transform="matrix(20.860465,0,0,20.827068,20.51293,20.546385)"/>
<path style="fill:none;stroke-width:0.0333333;stroke-linecap:butt;stroke-linejoin:miter;stroke:rgb(0%,0%,0%);stroke-opacity:1;stroke-miterlimit:10;" d="M 4.990318 3.46419 L 6.009553 3.46419 " transform="matrix(20.860465,0,0,20.827068,20.51293,20.546385)"/>
<path style="fill:none;stroke-width:0.0333333;stroke-linecap:butt;stroke-linejoin:miter;stroke:rgb(0%,0%,0%);stroke-opacity:1;stroke-miterlimit:10;" d="M 4.495213 4.338391 L 5.004737 3.45575 " transform="matrix(20.860465,0,0,20.827068,20.51293,20.546385)"/>
<path style="fill:none;stroke-width:0.0333333;stroke-linecap:butt;stroke-linejoin:miter;stroke:rgb(0%,0%,0%);stroke-opacity:1;stroke-miterlimit:10;" d="M 5.004737 5.204526 L 4.495213 4.321886 " transform="matrix(20.860465,0,0,20.827068,20.51293,20.546385)"/>
<path style="fill:none;stroke-width:0.0333333;stroke-linecap:butt;stroke-linejoin:miter;stroke:rgb(0%,0%,0%);stroke-opacity:1;stroke-miterlimit:10;" d="M 6.009553 5.196086 L 4.990318 5.196086 " transform="matrix(20.860465,0,0,20.827068,20.51293,20.546385)"/>
<path style="fill:none;stroke-width:0.0333333;stroke-linecap:butt;stroke-linejoin:miter;stroke:rgb(0%,0%,0%);stroke-opacity:1;stroke-miterlimit:10;" d="M 6.504845 4.321886 L 5.995134 5.204526 " transform="matrix(20.860465,0,0,20.827068,20.51293,20.546385)"/>
<path style="fill:none;stroke-width:0.0333333;stroke-linecap:butt;stroke-linejoin:miter;stroke:rgb(0%,0%,0%);stroke-opacity:1;stroke-miterlimit:10;" d="M 6.504845 4.338391 L 5.995134 3.45575 " transform="matrix(20.860465,0,0,20.827068,20.51293,20.546385)"/>
<path style=" stroke:none;fill-rule:nonzero;fill:rgb(0%,0%,0%);fill-opacity:1;" d="M 124.816406 128.765625 L 114.605469 141.5625 L 118.820312 143.996094 "/>
<path style=" stroke:none;fill-rule:nonzero;fill:rgb(0%,0%,0%);fill-opacity:1;" d="M 156.105469 110.730469 L 173.683594 113.160156 L 173.683594 108.300781 "/>
<path style="fill:none;stroke-width:0.0333333;stroke-linecap:butt;stroke-linejoin:miter;stroke:rgb(0%,0%,0%);stroke-opacity:1;stroke-miterlimit:10;" d="M 7.495243 2.606495 L 8.000086 1.731919 " transform="matrix(20.860465,0,0,20.827068,20.51293,20.546385)"/>
<path style="fill:none;stroke-width:0.0333333;stroke-linecap:butt;stroke-linejoin:miter;stroke:rgb(0%,0%,0%);stroke-opacity:1;stroke-miterlimit:10;" d="M 3.00971 5.196086 L 2.000025 5.196086 " transform="matrix(20.860465,0,0,20.827068,20.51293,20.546385)"/>
<path style="fill:none;stroke-width:0.0333333;stroke-linecap:butt;stroke-linejoin:miter;stroke:rgb(0%,0%,0%);stroke-opacity:1;stroke-miterlimit:10;" d="M 7.495243 6.053782 L 8.000086 6.92817 " transform="matrix(20.860465,0,0,20.827068,20.51293,20.546385)"/>
<path style="fill:none;stroke-width:0.0333333;stroke-linecap:butt;stroke-linejoin:miter;stroke:rgb(0%,0%,0%);stroke-opacity:1;stroke-miterlimit:10;" d="M 3.504815 2.606495 L 2.999972 1.731919 " transform="matrix(20.860465,0,0,20.827068,20.51293,20.546385)"/>
</g>
</svg>
