<?xml version="1.0" encoding="UTF-8"?>
<svg xmlns="http://www.w3.org/2000/svg" xmlns:xlink="http://www.w3.org/1999/xlink" width="94.4pt" height="182.4pt" viewBox="0 0 94.4 182.4" version="1.1">
<g id="surface917">
<path style=" stroke:none;fill-rule:nonzero;fill:rgb(0%,0%,0%);fill-opacity:1;" d="M 68.734375 93.113281 C 68.730469 92.292969 68.953125 91.648438 69.394531 91.179688 C 69.832031 90.714844 70.398438 90.484375 71.097656 90.480469 C 71.550781 90.484375 71.960938 90.59375 72.332031 90.808594 C 72.695312 91.027344 72.972656 91.332031 73.167969 91.722656 C 73.355469 92.117188 73.453125 92.5625 73.457031 93.054688 C 73.453125 93.5625 73.351562 94.011719 73.152344 94.40625 C 72.945312 94.804688 72.660156 95.105469 72.292969 95.308594 C 71.921875 95.511719 71.523438 95.609375 71.09375 95.613281 C 70.628906 95.609375 70.214844 95.5 69.847656 95.273438 C 69.480469 95.050781 69.203125 94.742188 69.015625 94.351562 C 68.824219 93.960938 68.730469 93.550781 68.734375 93.113281 Z M 69.40625 93.125 C 69.40625 93.722656 69.566406 94.191406 69.886719 94.535156 C 70.207031 94.882812 70.605469 95.054688 71.09375 95.054688 C 71.582031 95.054688 71.988281 94.882812 72.304688 94.535156 C 72.625 94.1875 72.78125 93.691406 72.78125 93.050781 C 72.78125 92.648438 72.710938 92.296875 72.578125 91.996094 C 72.441406 91.695312 72.242188 91.460938 71.980469 91.296875 C 71.71875 91.128906 71.425781 91.046875 71.101562 91.046875 C 70.636719 91.046875 70.238281 91.207031 69.90625 91.527344 C 69.570312 91.84375 69.40625 92.378906 69.40625 93.125 Z M 69.40625 93.125 "/>
<path style=" stroke:none;fill-rule:nonzero;fill:rgb(0%,0%,0%);fill-opacity:1;" d="M 37.726562 112.875 L 37.726562 107.910156 L 38.398438 107.910156 L 40.992188 111.808594 L 40.992188 107.910156 L 41.621094 107.910156 L 41.621094 112.875 L 40.949219 112.875 L 38.355469 108.976562 L 38.355469 112.875 Z M 37.726562 112.875 "/>
<path style=" stroke:none;fill-rule:nonzero;fill:rgb(0%,0%,0%);fill-opacity:1;" d="M 18.117188 38.015625 C 18.113281 37.195312 18.335938 36.550781 18.777344 36.082031 C 19.214844 35.621094 19.78125 35.386719 20.480469 35.382812 C 20.933594 35.386719 21.347656 35.496094 21.714844 35.710938 C 22.078125 35.929688 22.355469 36.238281 22.550781 36.625 C 22.738281 37.023438 22.835938 37.464844 22.839844 37.957031 C 22.835938 38.464844 22.734375 38.914062 22.535156 39.308594 C 22.328125 39.707031 22.042969 40.007812 21.675781 40.210938 C 21.304688 40.414062 20.90625 40.515625 20.476562 40.515625 C 20.011719 40.515625 19.597656 40.402344 19.230469 40.179688 C 18.863281 39.953125 18.585938 39.644531 18.398438 39.253906 C 18.207031 38.867188 18.113281 38.453125 18.117188 38.015625 Z M 18.789062 38.027344 C 18.789062 38.625 18.949219 39.09375 19.269531 39.4375 C 19.589844 39.785156 19.988281 39.960938 20.476562 39.957031 C 20.964844 39.960938 21.371094 39.785156 21.6875 39.4375 C 22.007812 39.089844 22.164062 38.59375 22.164062 37.957031 C 22.164062 37.550781 22.09375 37.199219 21.960938 36.898438 C 21.824219 36.597656 21.625 36.363281 21.363281 36.199219 C 21.101562 36.035156 20.808594 35.949219 20.484375 35.949219 C 20.019531 35.949219 19.621094 36.109375 19.289062 36.429688 C 18.953125 36.75 18.789062 37.28125 18.789062 38.027344 Z M 18.789062 38.027344 "/>
<path style=" stroke:none;fill-rule:nonzero;fill:rgb(0%,0%,0%);fill-opacity:1;" d="M 49.542969 20.671875 C 49.539062 19.851562 49.757812 19.207031 50.203125 18.738281 C 50.640625 18.277344 51.207031 18.042969 51.90625 18.039062 C 52.359375 18.042969 52.769531 18.152344 53.140625 18.367188 C 53.503906 18.585938 53.78125 18.894531 53.976562 19.28125 C 54.164062 19.675781 54.261719 20.121094 54.265625 20.613281 C 54.261719 21.121094 54.160156 21.570312 53.960938 21.964844 C 53.753906 22.363281 53.46875 22.664062 53.101562 22.867188 C 52.730469 23.070312 52.332031 23.167969 51.902344 23.171875 C 51.4375 23.167969 51.019531 23.058594 50.65625 22.835938 C 50.289062 22.609375 50.011719 22.300781 49.824219 21.910156 C 49.632812 21.519531 49.539062 21.109375 49.542969 20.671875 Z M 50.214844 20.683594 C 50.210938 21.28125 50.375 21.75 50.695312 22.09375 C 51.011719 22.441406 51.414062 22.613281 51.898438 22.613281 C 52.390625 22.613281 52.792969 22.441406 53.113281 22.09375 C 53.429688 21.746094 53.589844 21.25 53.589844 20.613281 C 53.589844 20.207031 53.519531 19.855469 53.386719 19.554688 C 53.246094 19.253906 53.050781 19.019531 52.789062 18.855469 C 52.527344 18.691406 52.234375 18.605469 51.910156 18.605469 C 51.445312 18.605469 51.046875 18.765625 50.714844 19.085938 C 50.378906 19.402344 50.210938 19.9375 50.214844 20.683594 Z M 50.214844 20.683594 "/>
<path style="fill:none;stroke-width:0.0333333;stroke-linecap:butt;stroke-linejoin:miter;stroke:rgb(0%,0%,0%);stroke-opacity:1;stroke-miterlimit:10;" d="M 1.027662 4.501646 L 1.40882 5.195142 " transform="matrix(20.701754,0,0,20.790274,20.479491,20.604853)"/>
<path style="fill:none;stroke-width:0.0333333;stroke-linecap:butt;stroke-linejoin:miter;stroke:rgb(0%,0%,0%);stroke-opacity:1;stroke-miterlimit:10;" d="M 1.395234 3.545858 L 2.282274 3.564459 " transform="matrix(20.701754,0,0,20.790274,20.479491,20.604853)"/>
<path style="fill:none;stroke-width:0.0333333;stroke-linecap:butt;stroke-linejoin:miter;stroke:rgb(0%,0%,0%);stroke-opacity:1;stroke-miterlimit:10;" d="M 1.398819 3.379014 L 2.285859 3.397802 " transform="matrix(20.701754,0,0,20.790274,20.479491,20.604853)"/>
<path style="fill:none;stroke-width:0.0333333;stroke-linecap:butt;stroke-linejoin:miter;stroke:rgb(0%,0%,0%);stroke-opacity:1;stroke-miterlimit:10;" d="M 1.450143 3.455296 L 1.035965 4.138834 " transform="matrix(20.701754,0,0,20.790274,20.479491,20.604853)"/>
<path style="fill:none;stroke-width:0.0333333;stroke-linecap:butt;stroke-linejoin:miter;stroke:rgb(0%,0%,0%);stroke-opacity:1;stroke-miterlimit:10;" d="M 0.958601 2.595331 L 1.486561 1.723529 " transform="matrix(20.701754,0,0,20.790274,20.479491,20.604853)"/>
<path style="fill:none;stroke-width:0.0333333;stroke-linecap:butt;stroke-linejoin:miter;stroke:rgb(0%,0%,0%);stroke-opacity:1;stroke-miterlimit:10;" d="M 1.150878 2.599277 L 1.579208 1.892065 " transform="matrix(20.701754,0,0,20.790274,20.479491,20.604853)"/>
<path style="fill:none;stroke-width:0.0333333;stroke-linecap:butt;stroke-linejoin:miter;stroke:rgb(0%,0%,0%);stroke-opacity:1;stroke-miterlimit:10;" d="M 1.486183 1.740251 L 0.995207 0.84703 " transform="matrix(20.701754,0,0,20.790274,20.479491,20.604853)"/>
<path style="fill:none;stroke-width:0.0333333;stroke-linecap:butt;stroke-linejoin:miter;stroke:rgb(0%,0%,0%);stroke-opacity:1;stroke-miterlimit:10;" d="M 1.009359 0.855673 L 0.159492 0.837636 " transform="matrix(20.701754,0,0,20.790274,20.479491,20.604853)"/>
<path style="fill:none;stroke-width:0.0333333;stroke-linecap:butt;stroke-linejoin:miter;stroke:rgb(0%,0%,0%);stroke-opacity:1;stroke-miterlimit:10;" d="M 1.046154 0.939847 L 1.473164 0.23489 " transform="matrix(20.701754,0,0,20.790274,20.479491,20.604853)"/>
<path style="fill:none;stroke-width:0.0333333;stroke-linecap:butt;stroke-linejoin:miter;stroke:rgb(0%,0%,0%);stroke-opacity:1;stroke-miterlimit:10;" d="M 0.903503 0.853231 L 1.330513 0.148649 " transform="matrix(20.701754,0,0,20.790274,20.479491,20.604853)"/>
<path style="fill:none;stroke-width:0.0333333;stroke-linecap:butt;stroke-linejoin:miter;stroke:rgb(0%,0%,0%);stroke-opacity:1;stroke-miterlimit:10;" d="M 1.40882 5.195142 L 0.977848 6.11091 " transform="matrix(20.701754,0,0,20.790274,20.479491,20.604853)"/>
<path style="fill:none;stroke-width:0.0333333;stroke-linecap:butt;stroke-linejoin:miter;stroke:rgb(0%,0%,0%);stroke-opacity:1;stroke-miterlimit:10;" d="M 2.412848 5.321967 L 1.40882 5.195142 " transform="matrix(20.701754,0,0,20.790274,20.479491,20.604853)"/>
<path style="fill:none;stroke-width:0.0333333;stroke-linecap:butt;stroke-linejoin:miter;stroke:rgb(0%,0%,0%);stroke-opacity:1;stroke-miterlimit:10;" d="M 2.398697 5.308439 L 2.590407 6.314581 " transform="matrix(20.701754,0,0,20.790274,20.479491,20.604853)"/>
<path style="fill:none;stroke-width:0.0333333;stroke-linecap:butt;stroke-linejoin:miter;stroke:rgb(0%,0%,0%);stroke-opacity:1;stroke-miterlimit:10;" d="M 0.974074 6.091558 L 1.720538 6.792757 " transform="matrix(20.701754,0,0,20.790274,20.479491,20.604853)"/>
<path style="fill:none;stroke-width:0.0333333;stroke-linecap:butt;stroke-linejoin:miter;stroke:rgb(0%,0%,0%);stroke-opacity:1;stroke-miterlimit:10;" d="M 1.701292 6.790314 L 2.59871 6.296919 " transform="matrix(20.701754,0,0,20.790274,20.479491,20.604853)"/>
<path style="fill:none;stroke-width:0.0333333;stroke-linecap:butt;stroke-linejoin:miter;stroke:rgb(0%,0%,0%);stroke-opacity:1;stroke-miterlimit:10;" d="M 1.449766 3.472018 L 0.958979 2.578609 " transform="matrix(20.701754,0,0,20.790274,20.479491,20.604853)"/>
</g>
</svg>
