<?xml version="1.0" encoding="UTF-8"?>
<svg xmlns="http://www.w3.org/2000/svg" xmlns:xlink="http://www.w3.org/1999/xlink" width="113.6pt" height="104pt" viewBox="0 0 113.6 104" version="1.1">
<g id="surface632">
<path style=" stroke:none;fill-rule:nonzero;fill:rgb(0%,0%,0%);fill-opacity:1;" d="M 94.265625 83.757812 L 94.921875 83.925781 C 94.78125 84.46875 94.535156 84.875 94.179688 85.15625 C 93.820312 85.4375 93.382812 85.578125 92.867188 85.578125 C 92.332031 85.578125 91.898438 85.472656 91.5625 85.253906 C 91.226562 85.039062 90.972656 84.722656 90.796875 84.308594 C 90.621094 83.898438 90.535156 83.457031 90.539062 82.984375 C 90.535156 82.472656 90.636719 82.023438 90.832031 81.636719 C 91.027344 81.253906 91.308594 80.960938 91.675781 80.761719 C 92.039062 80.5625 92.441406 80.464844 92.878906 80.460938 C 93.375 80.464844 93.789062 80.589844 94.128906 80.839844 C 94.46875 81.09375 94.703125 81.445312 94.835938 81.902344 L 94.191406 82.054688 C 94.074219 81.699219 93.90625 81.4375 93.6875 81.269531 C 93.464844 81.105469 93.191406 81.023438 92.867188 81.023438 C 92.480469 81.023438 92.160156 81.113281 91.90625 81.296875 C 91.652344 81.480469 91.472656 81.726562 91.371094 82.03125 C 91.265625 82.339844 91.214844 82.65625 91.214844 82.980469 C 91.214844 83.402344 91.273438 83.769531 91.398438 84.082031 C 91.519531 84.398438 91.710938 84.632812 91.96875 84.789062 C 92.230469 84.945312 92.511719 85.023438 92.8125 85.019531 C 93.183594 85.023438 93.492188 84.917969 93.746094 84.703125 C 94 84.492188 94.171875 84.179688 94.265625 83.757812 Z M 94.265625 83.757812 "/>
<path style=" stroke:none;fill-rule:nonzero;fill:rgb(0%,0%,0%);fill-opacity:1;" d="M 94.265625 21.445312 L 94.921875 21.613281 C 94.78125 22.152344 94.535156 22.558594 94.179688 22.839844 C 93.820312 23.121094 93.382812 23.261719 92.867188 23.265625 C 92.332031 23.261719 91.898438 23.15625 91.5625 22.941406 C 91.226562 22.726562 90.972656 22.410156 90.796875 21.996094 C 90.621094 21.585938 90.535156 21.140625 90.539062 20.667969 C 90.535156 20.15625 90.636719 19.707031 90.832031 19.320312 C 91.027344 18.9375 91.308594 18.644531 91.675781 18.445312 C 92.039062 18.25 92.441406 18.148438 92.878906 18.144531 C 93.375 18.148438 93.789062 18.277344 94.128906 18.523438 C 94.46875 18.777344 94.703125 19.132812 94.835938 19.589844 L 94.191406 19.738281 C 94.074219 19.382812 93.90625 19.121094 93.6875 18.953125 C 93.464844 18.792969 93.191406 18.707031 92.867188 18.707031 C 92.480469 18.707031 92.160156 18.800781 91.90625 18.980469 C 91.652344 19.164062 91.472656 19.410156 91.371094 19.714844 C 91.265625 20.023438 91.214844 20.339844 91.214844 20.667969 C 91.214844 21.085938 91.273438 21.453125 91.398438 21.769531 C 91.519531 22.085938 91.710938 22.320312 91.96875 22.472656 C 92.230469 22.628906 92.511719 22.707031 92.8125 22.707031 C 93.183594 22.707031 93.492188 22.601562 93.746094 22.390625 C 94 22.179688 94.171875 21.863281 94.265625 21.445312 Z M 94.265625 21.445312 "/>
<path style=" stroke:none;fill-rule:nonzero;fill:rgb(0%,0%,0%);fill-opacity:1;" d="M 54.480469 41.609375 C 54.476562 40.792969 54.699219 40.148438 55.144531 39.683594 C 55.585938 39.21875 56.152344 38.988281 56.855469 38.984375 C 57.308594 38.988281 57.722656 39.097656 58.09375 39.3125 C 58.457031 39.53125 58.738281 39.835938 58.933594 40.226562 C 59.121094 40.621094 59.21875 41.0625 59.222656 41.554688 C 59.21875 42.058594 59.117188 42.507812 58.914062 42.902344 C 58.710938 43.300781 58.421875 43.597656 58.054688 43.800781 C 57.683594 44.003906 57.28125 44.105469 56.851562 44.105469 C 56.382812 44.105469 55.964844 43.992188 55.597656 43.769531 C 55.230469 43.546875 54.953125 43.238281 54.765625 42.847656 C 54.574219 42.460938 54.476562 42.046875 54.480469 41.609375 Z M 55.15625 41.621094 C 55.15625 42.21875 55.316406 42.6875 55.640625 43.03125 C 55.957031 43.378906 56.363281 43.550781 56.847656 43.546875 C 57.339844 43.550781 57.746094 43.378906 58.066406 43.027344 C 58.386719 42.683594 58.546875 42.1875 58.546875 41.550781 C 58.546875 41.148438 58.476562 40.796875 58.339844 40.496094 C 58.203125 40.195312 58.003906 39.964844 57.742188 39.796875 C 57.480469 39.632812 57.183594 39.550781 56.859375 39.550781 C 56.390625 39.550781 55.992188 39.710938 55.65625 40.027344 C 55.324219 40.347656 55.15625 40.878906 55.15625 41.621094 Z M 55.15625 41.621094 "/>
<path style=" stroke:none;fill-rule:nonzero;fill:rgb(0%,0%,0%);fill-opacity:1;" d="M 22.296875 42.179688 L 22.957031 42.347656 C 22.816406 42.886719 22.570312 43.296875 22.210938 43.578125 C 21.855469 43.859375 21.417969 44 20.902344 44 C 20.367188 44 19.933594 43.894531 19.597656 43.675781 C 19.261719 43.460938 19.003906 43.144531 18.832031 42.730469 C 18.65625 42.320312 18.570312 41.878906 18.574219 41.40625 C 18.570312 40.890625 18.671875 40.445312 18.867188 40.058594 C 19.0625 39.675781 19.339844 39.382812 19.710938 39.183594 C 20.070312 38.984375 20.476562 38.886719 20.914062 38.882812 C 21.410156 38.886719 21.824219 39.011719 22.164062 39.261719 C 22.5 39.515625 22.738281 39.867188 22.871094 40.324219 L 22.226562 40.476562 C 22.105469 40.121094 21.9375 39.859375 21.722656 39.691406 C 21.5 39.527344 21.226562 39.445312 20.898438 39.445312 C 20.515625 39.445312 20.195312 39.535156 19.941406 39.71875 C 19.683594 39.902344 19.507812 40.148438 19.402344 40.453125 C 19.300781 40.761719 19.25 41.074219 19.25 41.402344 C 19.25 41.824219 19.308594 42.191406 19.433594 42.503906 C 19.550781 42.820312 19.746094 43.054688 20.003906 43.210938 C 20.265625 43.367188 20.546875 43.445312 20.847656 43.441406 C 21.214844 43.445312 21.527344 43.339844 21.78125 43.125 C 22.035156 42.914062 22.207031 42.597656 22.296875 42.179688 Z M 22.296875 42.179688 "/>
<path style="fill:none;stroke-width:0.0333333;stroke-linecap:butt;stroke-linejoin:miter;stroke:rgb(0%,0%,0%);stroke-opacity:1;stroke-miterlimit:10;" d="M 3.468457 1.009229 L 3.464134 0.167145 " transform="matrix(20.780488,0,0,20.744681,20.763608,20.7045)"/>
<path style="fill:none;stroke-width:0.0333333;stroke-linecap:butt;stroke-linejoin:miter;stroke:rgb(0%,0%,0%);stroke-opacity:1;stroke-miterlimit:10;" d="M 2.591546 2.499257 L 3.279541 2.897514 " transform="matrix(20.780488,0,0,20.744681,20.763608,20.7045)"/>
<path style="fill:none;stroke-width:0.0333333;stroke-linecap:butt;stroke-linejoin:miter;stroke:rgb(0%,0%,0%);stroke-opacity:1;stroke-miterlimit:10;" d="M 2.758845 2.403411 L 3.363002 2.753275 " transform="matrix(20.780488,0,0,20.744681,20.763608,20.7045)"/>
<path style="fill:none;stroke-width:0.0333333;stroke-linecap:butt;stroke-linejoin:miter;stroke:rgb(0%,0%,0%);stroke-opacity:1;stroke-miterlimit:10;" d="M 2.613351 1.509357 L 1.927047 1.114301 " transform="matrix(20.780488,0,0,20.744681,20.763608,20.7045)"/>
<path style="fill:none;stroke-width:0.0333333;stroke-linecap:butt;stroke-linejoin:miter;stroke:rgb(0%,0%,0%);stroke-opacity:1;stroke-miterlimit:10;" d="M 2.60508 1.494858 L 2.599816 2.513756 " transform="matrix(20.780488,0,0,20.744681,20.763608,20.7045)"/>
<path style="fill:none;stroke-width:0.0333333;stroke-linecap:butt;stroke-linejoin:miter;stroke:rgb(0%,0%,0%);stroke-opacity:1;stroke-miterlimit:10;" d="M 1.546018 1.113171 L 0.859903 1.504084 " transform="matrix(20.780488,0,0,20.744681,20.763608,20.7045)"/>
<path style="fill:none;stroke-width:0.0333333;stroke-linecap:butt;stroke-linejoin:miter;stroke:rgb(0%,0%,0%);stroke-opacity:1;stroke-miterlimit:10;" d="M 2.604892 1.504461 L 3.47654 0.994729 " transform="matrix(20.780488,0,0,20.744681,20.763608,20.7045)"/>
<path style="fill:none;stroke-width:0.0333333;stroke-linecap:butt;stroke-linejoin:miter;stroke:rgb(0%,0%,0%);stroke-opacity:1;stroke-miterlimit:10;" d="M 2.604328 1.311829 L 3.309429 0.899449 " transform="matrix(20.780488,0,0,20.744681,20.763608,20.7045)"/>
<path style="fill:none;stroke-width:0.0333333;stroke-linecap:butt;stroke-linejoin:miter;stroke:rgb(0%,0%,0%);stroke-opacity:1;stroke-miterlimit:10;" d="M 0.876445 1.504084 L 0.183938 1.105451 " transform="matrix(20.780488,0,0,20.744681,20.763608,20.7045)"/>
</g>
</svg>
