<?xml version="1.0" encoding="UTF-8"?>
<svg xmlns="http://www.w3.org/2000/svg" xmlns:xlink="http://www.w3.org/1999/xlink" width="94.4pt" height="72.8pt" viewBox="0 0 94.4 72.8" version="1.1">
<g id="surface1202">
<path style=" stroke:none;fill-rule:nonzero;fill:rgb(0%,0%,0%);fill-opacity:1;" d="M 71.800781 52.164062 C 71.796875 51.34375 72.019531 50.695312 72.460938 50.226562 C 72.902344 49.761719 73.46875 49.53125 74.164062 49.527344 C 74.617188 49.53125 75.03125 49.636719 75.398438 49.855469 C 75.761719 50.074219 76.042969 50.382812 76.234375 50.773438 C 76.425781 51.167969 76.519531 51.613281 76.523438 52.105469 C 76.519531 52.613281 76.417969 53.066406 76.21875 53.460938 C 76.015625 53.859375 75.730469 54.160156 75.363281 54.363281 C 74.988281 54.570312 74.589844 54.667969 74.164062 54.671875 C 73.695312 54.667969 73.28125 54.558594 72.914062 54.332031 C 72.546875 54.105469 72.269531 53.796875 72.085938 53.40625 C 71.894531 53.015625 71.796875 52.605469 71.800781 52.164062 Z M 72.476562 52.175781 C 72.472656 52.773438 72.632812 53.246094 72.953125 53.589844 C 73.273438 53.9375 73.675781 54.113281 74.160156 54.109375 C 74.648438 54.113281 75.054688 53.9375 75.371094 53.589844 C 75.691406 53.242188 75.851562 52.746094 75.851562 52.105469 C 75.851562 51.699219 75.78125 51.347656 75.644531 51.042969 C 75.507812 50.742188 75.3125 50.507812 75.050781 50.34375 C 74.789062 50.179688 74.492188 50.09375 74.171875 50.09375 C 73.703125 50.09375 73.304688 50.253906 72.972656 50.574219 C 72.640625 50.894531 72.472656 51.429688 72.476562 52.175781 Z M 72.476562 52.175781 "/>
<path style=" stroke:none;fill-rule:nonzero;fill:rgb(0%,0%,0%);fill-opacity:1;" d="M 53.871094 20.90625 C 53.867188 20.082031 54.089844 19.4375 54.53125 18.96875 C 54.96875 18.503906 55.535156 18.269531 56.234375 18.265625 C 56.6875 18.269531 57.101562 18.378906 57.46875 18.59375 C 57.832031 18.816406 58.109375 19.121094 58.304688 19.511719 C 58.492188 19.910156 58.589844 20.355469 58.59375 20.847656 C 58.589844 21.355469 58.488281 21.804688 58.289062 22.203125 C 58.082031 22.601562 57.796875 22.902344 57.429688 23.105469 C 57.058594 23.308594 56.660156 23.410156 56.230469 23.410156 C 55.765625 23.410156 55.351562 23.296875 54.984375 23.074219 C 54.617188 22.847656 54.339844 22.539062 54.152344 22.148438 C 53.960938 21.757812 53.867188 21.34375 53.871094 20.90625 Z M 54.542969 20.914062 C 54.542969 21.515625 54.703125 21.988281 55.023438 22.332031 C 55.34375 22.679688 55.742188 22.851562 56.230469 22.851562 C 56.71875 22.851562 57.125 22.679688 57.441406 22.328125 C 57.761719 21.980469 57.917969 21.484375 57.917969 20.84375 C 57.917969 20.441406 57.847656 20.089844 57.714844 19.785156 C 57.578125 19.484375 57.378906 19.25 57.117188 19.085938 C 56.855469 18.917969 56.5625 18.835938 56.238281 18.835938 C 55.773438 18.835938 55.375 18.996094 55.042969 19.316406 C 54.707031 19.636719 54.542969 20.167969 54.542969 20.914062 Z M 54.542969 20.914062 "/>
<path style=" stroke:none;fill-rule:nonzero;fill:rgb(0%,0%,0%);fill-opacity:1;" d="M 18.433594 44.164062 L 18.433594 39.191406 L 19.101562 39.191406 L 21.695312 43.097656 L 21.695312 39.191406 L 22.324219 39.191406 L 22.324219 44.164062 L 21.652344 44.164062 L 19.058594 40.257812 L 19.058594 44.164062 Z M 18.433594 44.164062 "/>
<path style="fill:none;stroke-width:0.0333333;stroke-linecap:butt;stroke-linejoin:miter;stroke:rgb(0%,0%,0%);stroke-opacity:1;stroke-miterlimit:10;" d="M 0.85771 1.5048 L 1.740221 0.995143 " transform="matrix(20.701754,0,0,20.839695,20.376711,20.839643)"/>
<path style="fill:none;stroke-width:0.0333333;stroke-linecap:butt;stroke-linejoin:miter;stroke:rgb(0%,0%,0%);stroke-opacity:1;stroke-miterlimit:10;" d="M 1.648706 0.166834 L 1.648706 1.048002 " transform="matrix(20.701754,0,0,20.839695,20.376711,20.839643)"/>
<path style="fill:none;stroke-width:0.0333333;stroke-linecap:butt;stroke-linejoin:miter;stroke:rgb(0%,0%,0%);stroke-opacity:1;stroke-miterlimit:10;" d="M 1.815321 0.166834 L 1.815321 1.048002 " transform="matrix(20.701754,0,0,20.839695,20.376711,20.839643)"/>
<path style="fill:none;stroke-width:0.0333333;stroke-linecap:butt;stroke-linejoin:miter;stroke:rgb(0%,0%,0%);stroke-opacity:1;stroke-miterlimit:10;" d="M 2.407813 1.390085 L 1.723616 0.995143 " transform="matrix(20.701754,0,0,20.839695,20.376711,20.839643)"/>
<path style="fill:none;stroke-width:0.0333333;stroke-linecap:butt;stroke-linejoin:miter;stroke:rgb(0%,0%,0%);stroke-opacity:1;stroke-miterlimit:10;" d="M 0.874315 1.5048 L 0.173325 1.100111 " transform="matrix(20.701754,0,0,20.839695,20.376711,20.839643)"/>
</g>
</svg>
