<?xml version="1.0" encoding="UTF-8"?>
<svg xmlns="http://www.w3.org/2000/svg" xmlns:xlink="http://www.w3.org/1999/xlink" width="64pt" height="43.2pt" viewBox="0 0 64 43.2" version="1.1">
<g id="surface147">
<path style=" stroke:none;fill-rule:nonzero;fill:rgb(0%,0%,47.058824%);fill-opacity:1;" d="M 47.695312 19.039062 L 46.035156 16.105469 C 46.046875 16.1875 46.058594 16.265625 46.066406 16.34375 C 46.070312 16.410156 46.078125 16.484375 46.078125 16.5625 C 46.082031 16.640625 46.089844 16.71875 46.089844 16.789062 L 46.089844 19.039062 L 45.378906 19.039062 L 45.378906 15.230469 L 46.292969 15.230469 L 47.964844 18.183594 C 47.957031 18.113281 47.945312 18.03125 47.941406 17.945312 C 47.933594 17.875 47.925781 17.792969 47.921875 17.707031 C 47.921875 17.621094 47.921875 17.53125 47.921875 17.4375 L 47.921875 15.230469 L 48.621094 15.230469 L 48.621094 19.039062 Z M 47.695312 19.039062 "/>
<path style=" stroke:none;fill-rule:nonzero;fill:rgb(0%,0%,0%);fill-opacity:1;" d="M 17.242188 15.59375 C 17.027344 15.59375 16.835938 15.632812 16.671875 15.703125 C 16.507812 15.773438 16.367188 15.878906 16.253906 16.015625 C 16.144531 16.144531 16.0625 16.304688 16.003906 16.492188 C 15.945312 16.679688 15.917969 16.886719 15.917969 17.117188 C 15.917969 17.351562 15.945312 17.5625 16.003906 17.757812 C 16.070312 17.945312 16.160156 18.109375 16.273438 18.242188 C 16.386719 18.382812 16.527344 18.488281 16.695312 18.566406 C 16.867188 18.640625 17.054688 18.675781 17.265625 18.675781 C 17.417969 18.675781 17.546875 18.660156 17.664062 18.621094 C 17.785156 18.578125 17.894531 18.523438 18 18.449219 C 18.097656 18.378906 18.183594 18.292969 18.257812 18.199219 C 18.335938 18.109375 18.402344 18 18.460938 17.875 L 18.882812 18.09375 C 18.816406 18.238281 18.734375 18.371094 18.632812 18.492188 C 18.53125 18.617188 18.414062 18.726562 18.277344 18.816406 C 18.140625 18.902344 17.988281 18.972656 17.816406 19.023438 C 17.644531 19.070312 17.453125 19.097656 17.242188 19.097656 C 16.933594 19.097656 16.664062 19.050781 16.4375 18.957031 C 16.203125 18.855469 16.011719 18.71875 15.855469 18.546875 C 15.703125 18.367188 15.585938 18.15625 15.507812 17.917969 C 15.429688 17.675781 15.390625 17.40625 15.390625 17.117188 C 15.390625 16.824219 15.429688 16.554688 15.507812 16.316406 C 15.59375 16.074219 15.714844 15.867188 15.875 15.703125 C 16.03125 15.535156 16.226562 15.40625 16.457031 15.3125 C 16.6875 15.21875 16.949219 15.171875 17.242188 15.171875 C 17.644531 15.171875 17.980469 15.253906 18.246094 15.410156 C 18.519531 15.570312 18.71875 15.808594 18.851562 16.125 L 18.363281 16.285156 C 18.328125 16.195312 18.277344 16.105469 18.214844 16.027344 C 18.15625 15.9375 18.078125 15.867188 17.988281 15.808594 C 17.894531 15.746094 17.785156 15.695312 17.664062 15.65625 C 17.539062 15.613281 17.398438 15.59375 17.242188 15.59375 Z M 17.242188 15.59375 "/>
<path style=" stroke:none;fill-rule:nonzero;fill:rgb(0%,0%,0%);fill-opacity:1;" d="M 19.457031 14.796875 L 21.765625 14.796875 L 21.765625 15.261719 L 19.457031 15.261719 "/>
<path style="fill:none;stroke-width:0.06;stroke-linecap:butt;stroke-linejoin:miter;stroke:rgb(0%,0%,47.058824%);stroke-opacity:1;stroke-miterlimit:10;" d="M 1.562557 0.0978474 L 0.857721 0.504774 " transform="matrix(17.241379,0,0,17.307692,17.137493,17.134613)"/>
<path style="fill:none;stroke-width:0.06;stroke-linecap:butt;stroke-linejoin:miter;stroke:rgb(0%,0%,47.058824%);stroke-opacity:1;stroke-miterlimit:10;" d="M 1.479408 -0.0465971 L 0.857721 0.312257 " transform="matrix(17.241379,0,0,17.307692,17.137493,17.134613)"/>
<path style="fill:none;stroke-width:0.0333333;stroke-linecap:butt;stroke-linejoin:miter;stroke:rgb(0%,0%,0%);stroke-opacity:1;stroke-miterlimit:10;" d="M 0.87426 0.504774 L 0.176447 0.10191 " transform="matrix(17.241379,0,0,17.307692,17.137493,17.134613)"/>
</g>
</svg>
