<?xml version="1.0" encoding="UTF-8"?>
<svg xmlns="http://www.w3.org/2000/svg" xmlns:xlink="http://www.w3.org/1999/xlink" width="94.4pt" height="60.8pt" viewBox="0 0 94.4 60.8" version="1.1">
<g id="surface547">
<path style=" stroke:none;fill-rule:nonzero;fill:rgb(0%,0%,0%);fill-opacity:1;" d="M 18.078125 45.445312 L 16.027344 42.203125 C 16.03125 42.292969 16.039062 42.378906 16.039062 42.464844 C 16.042969 42.535156 16.046875 42.613281 16.046875 42.703125 C 16.054688 42.78125 16.058594 42.851562 16.058594 42.917969 L 16.058594 45.445312 L 15.59375 45.445312 L 15.59375 41.644531 L 16.199219 41.644531 L 18.261719 44.902344 C 18.261719 44.902344 18.253906 44.816406 18.25 44.632812 C 18.242188 44.5625 18.234375 44.484375 18.230469 44.394531 C 18.230469 44.304688 18.230469 44.21875 18.230469 44.136719 L 18.230469 41.644531 L 18.695312 41.644531 L 18.695312 45.445312 Z M 18.078125 45.445312 "/>
<path style=" stroke:none;fill-rule:nonzero;fill:rgb(0%,0%,0%);fill-opacity:1;" d="M 77.363281 41.496094 C 77.144531 41.496094 76.953125 41.53125 76.785156 41.601562 C 76.617188 41.675781 76.476562 41.78125 76.363281 41.917969 C 76.253906 42.046875 76.171875 42.203125 76.113281 42.390625 C 76.054688 42.578125 76.027344 42.789062 76.027344 43.015625 C 76.027344 43.25 76.054688 43.460938 76.113281 43.652344 C 76.179688 43.84375 76.269531 44.003906 76.386719 44.140625 C 76.5 44.277344 76.640625 44.386719 76.808594 44.464844 C 76.980469 44.535156 77.171875 44.570312 77.382812 44.570312 C 77.535156 44.570312 77.667969 44.554688 77.785156 44.519531 C 77.90625 44.472656 78.019531 44.417969 78.121094 44.34375 C 78.222656 44.273438 78.308594 44.191406 78.382812 44.097656 C 78.460938 44.003906 78.527344 43.898438 78.585938 43.773438 L 79.011719 43.988281 C 78.945312 44.132812 78.859375 44.265625 78.761719 44.386719 C 78.65625 44.511719 78.539062 44.621094 78.402344 44.710938 C 78.265625 44.796875 78.109375 44.867188 77.9375 44.917969 C 77.761719 44.964844 77.570312 44.992188 77.363281 44.992188 C 77.050781 44.992188 76.777344 44.945312 76.546875 44.851562 C 76.316406 44.753906 76.121094 44.613281 75.960938 44.441406 C 75.8125 44.265625 75.695312 44.054688 75.617188 43.816406 C 75.535156 43.574219 75.496094 43.304688 75.496094 43.015625 C 75.496094 42.722656 75.535156 42.457031 75.617188 42.21875 C 75.703125 41.976562 75.824219 41.769531 75.984375 41.601562 C 76.140625 41.4375 76.335938 41.308594 76.570312 41.214844 C 76.800781 41.121094 77.0625 41.074219 77.363281 41.074219 C 77.765625 41.074219 78.101562 41.15625 78.371094 41.3125 C 78.644531 41.472656 78.847656 41.707031 78.976562 42.023438 L 78.488281 42.1875 C 78.453125 42.09375 78.402344 42.007812 78.335938 41.925781 C 78.277344 41.839844 78.203125 41.769531 78.109375 41.710938 C 78.015625 41.644531 77.90625 41.597656 77.785156 41.558594 C 77.660156 41.515625 77.519531 41.496094 77.363281 41.496094 Z M 77.363281 41.496094 "/>
<path style=" stroke:none;fill-rule:nonzero;fill:rgb(0%,0%,0%);fill-opacity:1;" d="M 33.847656 17.492188 C 33.847656 17.789062 33.804688 18.058594 33.714844 18.300781 C 33.628906 18.546875 33.503906 18.753906 33.335938 18.925781 C 33.175781 19.101562 32.980469 19.234375 32.738281 19.328125 C 32.507812 19.417969 32.242188 19.46875 31.949219 19.46875 C 31.628906 19.46875 31.351562 19.417969 31.113281 19.328125 C 30.878906 19.226562 30.683594 19.089844 30.527344 18.917969 C 30.367188 18.738281 30.25 18.527344 30.167969 18.289062 C 30.089844 18.046875 30.050781 17.78125 30.050781 17.492188 C 30.050781 17.195312 30.089844 16.929688 30.167969 16.691406 C 30.257812 16.449219 30.378906 16.246094 30.539062 16.078125 C 30.703125 15.914062 30.902344 15.78125 31.136719 15.6875 C 31.375 15.597656 31.644531 15.546875 31.949219 15.546875 C 32.253906 15.546875 32.523438 15.597656 32.761719 15.6875 C 33 15.78125 33.199219 15.914062 33.359375 16.089844 C 33.515625 16.253906 33.636719 16.453125 33.714844 16.691406 C 33.804688 16.929688 33.847656 17.195312 33.847656 17.492188 Z M 33.316406 17.492188 C 33.316406 17.261719 33.285156 17.054688 33.226562 16.863281 C 33.167969 16.679688 33.082031 16.519531 32.96875 16.390625 C 32.851562 16.253906 32.707031 16.148438 32.535156 16.078125 C 32.367188 16.007812 32.171875 15.96875 31.949219 15.96875 C 31.722656 15.96875 31.527344 16.007812 31.351562 16.078125 C 31.179688 16.148438 31.03125 16.253906 30.917969 16.390625 C 30.808594 16.519531 30.726562 16.679688 30.667969 16.863281 C 30.609375 17.054688 30.582031 17.261719 30.582031 17.492188 C 30.582031 17.722656 30.609375 17.933594 30.667969 18.128906 C 30.726562 18.316406 30.8125 18.480469 30.929688 18.613281 C 31.042969 18.75 31.183594 18.859375 31.351562 18.9375 C 31.527344 19.011719 31.722656 19.046875 31.949219 19.046875 C 32.1875 19.046875 32.394531 19.011719 32.566406 18.9375 C 32.738281 18.859375 32.882812 18.75 32.988281 18.613281 C 33.097656 18.472656 33.175781 18.304688 33.226562 18.117188 C 33.285156 17.921875 33.316406 17.714844 33.316406 17.492188 Z M 33.316406 17.492188 "/>
<path style=" stroke:none;fill-rule:nonzero;fill:rgb(0%,0%,0%);fill-opacity:1;" d="M 34.425781 15.175781 L 36.746094 15.175781 L 36.746094 15.636719 L 34.425781 15.636719 "/>
<path style=" stroke:none;fill-rule:nonzero;fill:rgb(0%,0%,0%);fill-opacity:1;" d="M 63.902344 17.238281 C 63.902344 17.535156 63.859375 17.804688 63.773438 18.046875 C 63.683594 18.292969 63.558594 18.5 63.390625 18.671875 C 63.234375 18.847656 63.035156 18.980469 62.796875 19.074219 C 62.5625 19.164062 62.300781 19.214844 62.003906 19.214844 C 61.683594 19.214844 61.40625 19.164062 61.167969 19.074219 C 60.9375 18.972656 60.742188 18.835938 60.582031 18.664062 C 60.421875 18.484375 60.304688 18.273438 60.226562 18.035156 C 60.144531 17.792969 60.105469 17.527344 60.105469 17.238281 C 60.105469 16.945312 60.144531 16.675781 60.226562 16.4375 C 60.3125 16.195312 60.433594 15.992188 60.59375 15.824219 C 60.757812 15.660156 60.957031 15.527344 61.191406 15.433594 C 61.429688 15.34375 61.699219 15.292969 62.003906 15.292969 C 62.308594 15.292969 62.578125 15.34375 62.816406 15.433594 C 63.054688 15.527344 63.253906 15.660156 63.414062 15.835938 C 63.570312 16 63.691406 16.203125 63.773438 16.4375 C 63.859375 16.675781 63.902344 16.945312 63.902344 17.238281 Z M 63.371094 17.238281 C 63.371094 17.007812 63.339844 16.800781 63.285156 16.613281 C 63.222656 16.425781 63.136719 16.265625 63.023438 16.136719 C 62.90625 16 62.761719 15.894531 62.589844 15.824219 C 62.421875 15.753906 62.226562 15.714844 62.003906 15.714844 C 61.777344 15.714844 61.582031 15.753906 61.40625 15.824219 C 61.234375 15.894531 61.085938 16 60.972656 16.136719 C 60.867188 16.265625 60.78125 16.425781 60.722656 16.613281 C 60.664062 16.800781 60.636719 17.007812 60.636719 17.238281 C 60.636719 17.46875 60.664062 17.679688 60.722656 17.875 C 60.78125 18.0625 60.867188 18.226562 60.984375 18.359375 C 61.097656 18.496094 61.238281 18.605469 61.40625 18.683594 C 61.582031 18.757812 61.777344 18.792969 62.003906 18.792969 C 62.242188 18.792969 62.449219 18.757812 62.621094 18.683594 C 62.796875 18.605469 62.9375 18.496094 63.046875 18.359375 C 63.152344 18.21875 63.234375 18.050781 63.285156 17.863281 C 63.339844 17.667969 63.371094 17.460938 63.371094 17.238281 Z M 63.371094 17.238281 "/>
<path style=" stroke:none;fill-rule:nonzero;fill:rgb(0%,0%,0%);fill-opacity:1;" d="M 64.484375 14.925781 L 66.804688 14.925781 L 66.804688 15.386719 L 64.484375 15.386719 "/>
<path style="fill:none;stroke-width:0.0333333;stroke-linecap:butt;stroke-linejoin:miter;stroke:rgb(0%,0%,0%);stroke-opacity:1;stroke-miterlimit:10;" d="M 0.165665 1.424693 L 0.870022 1.009706 " transform="matrix(17.352941,0,0,17.272727,17.144752,17.254942)"/>
<path style="fill:none;stroke-width:0.0333333;stroke-linecap:butt;stroke-linejoin:miter;stroke:rgb(0%,0%,0%);stroke-opacity:1;stroke-dasharray:0.1,0.0666667;stroke-dashoffset:0.147475;stroke-miterlimit:10;" d="M 0.853364 1.009932 L 1.740506 1.511988 " transform="matrix(17.352941,0,0,17.272727,17.144752,17.254942)"/>
<path style="fill:none;stroke-width:0.0333333;stroke-linecap:butt;stroke-linejoin:miter;stroke:rgb(0%,0%,0%);stroke-opacity:1;stroke-dasharray:0.1,0.0666667;stroke-dashoffset:0.158034;stroke-miterlimit:10;" d="M 0.861918 1.014681 L 0.854489 0.17272 " transform="matrix(17.352941,0,0,17.272727,17.144752,17.254942)"/>
<path style="fill:none;stroke-width:0.0333333;stroke-linecap:butt;stroke-linejoin:miter;stroke:rgb(0%,0%,0%);stroke-opacity:1;stroke-dasharray:0.1,0.0666667;stroke-dashoffset:0.147427;stroke-miterlimit:10;" d="M 1.723623 1.512214 L 2.601987 0.995006 " transform="matrix(17.352941,0,0,17.272727,17.144752,17.254942)"/>
<path style="fill:none;stroke-width:0.0333333;stroke-linecap:butt;stroke-linejoin:miter;stroke:rgb(0%,0%,0%);stroke-opacity:1;stroke-miterlimit:10;" d="M 2.585329 0.995006 L 3.287209 1.392354 " transform="matrix(17.352941,0,0,17.272727,17.144752,17.254942)"/>
<path style="fill:none;stroke-width:0.0333333;stroke-linecap:butt;stroke-linejoin:miter;stroke:rgb(0%,0%,0%);stroke-opacity:1;stroke-dasharray:0.1,0.0666667;stroke-dashoffset:0.158139;stroke-miterlimit:10;" d="M 2.593658 0.999981 L 2.586454 0.15802 " transform="matrix(17.352941,0,0,17.272727,17.144752,17.254942)"/>
</g>
</svg>
