<?xml version="1.0" encoding="UTF-8"?>
<svg xmlns="http://www.w3.org/2000/svg" xmlns:xlink="http://www.w3.org/1999/xlink" width="64pt" height="86.4pt" viewBox="0 0 64 86.4" version="1.1">
<g id="surface1597">
<path style=" stroke:none;fill-rule:nonzero;fill:rgb(0%,0%,0%);fill-opacity:1;" d="M 17.300781 41.703125 C 17.085938 41.703125 16.894531 41.742188 16.730469 41.8125 C 16.5625 41.882812 16.421875 41.988281 16.308594 42.125 C 16.203125 42.253906 16.117188 42.414062 16.0625 42.601562 C 16.003906 42.789062 15.976562 43 15.976562 43.230469 C 15.976562 43.460938 16.003906 43.671875 16.0625 43.867188 C 16.125 44.054688 16.214844 44.21875 16.332031 44.355469 C 16.445312 44.492188 16.585938 44.601562 16.75 44.679688 C 16.921875 44.75 17.113281 44.785156 17.320312 44.785156 C 17.472656 44.785156 17.605469 44.769531 17.722656 44.730469 C 17.84375 44.6875 17.953125 44.632812 18.054688 44.558594 C 18.15625 44.488281 18.242188 44.40625 18.3125 44.308594 C 18.390625 44.21875 18.460938 44.109375 18.519531 43.984375 L 18.9375 44.203125 C 18.875 44.347656 18.789062 44.480469 18.691406 44.601562 C 18.589844 44.726562 18.46875 44.835938 18.335938 44.925781 C 18.199219 45.011719 18.042969 45.082031 17.871094 45.132812 C 17.699219 45.179688 17.507812 45.207031 17.300781 45.207031 C 16.992188 45.207031 16.722656 45.160156 16.492188 45.066406 C 16.261719 44.96875 16.066406 44.828125 15.910156 44.65625 C 15.757812 44.476562 15.644531 44.265625 15.566406 44.027344 C 15.484375 43.785156 15.445312 43.519531 15.445312 43.230469 C 15.445312 42.933594 15.484375 42.667969 15.566406 42.429688 C 15.652344 42.183594 15.773438 41.980469 15.933594 41.8125 C 16.089844 41.648438 16.28125 41.515625 16.515625 41.421875 C 16.742188 41.332031 17.003906 41.28125 17.300781 41.28125 C 17.703125 41.28125 18.035156 41.363281 18.304688 41.519531 C 18.574219 41.679688 18.777344 41.917969 18.90625 42.234375 L 18.421875 42.394531 C 18.382812 42.304688 18.335938 42.21875 18.269531 42.136719 C 18.210938 42.050781 18.136719 41.980469 18.042969 41.917969 C 17.949219 41.855469 17.84375 41.804688 17.722656 41.769531 C 17.597656 41.726562 17.457031 41.703125 17.300781 41.703125 Z M 17.300781 41.703125 "/>
<path style=" stroke:none;fill-rule:nonzero;fill:rgb(0%,0%,0%);fill-opacity:1;" d="M 33.476562 35.558594 C 33.476562 35.75 33.433594 35.910156 33.355469 36.046875 C 33.285156 36.183594 33.183594 36.292969 33.054688 36.382812 C 32.925781 36.46875 32.773438 36.53125 32.601562 36.574219 C 32.433594 36.613281 32.261719 36.628906 32.074219 36.628906 L 30.535156 36.628906 L 30.535156 32.824219 L 31.914062 32.824219 C 32.121094 32.824219 32.304688 32.839844 32.472656 32.875 C 32.636719 32.90625 32.777344 32.960938 32.894531 33.039062 C 33.007812 33.113281 33.09375 33.210938 33.152344 33.332031 C 33.214844 33.445312 33.25 33.585938 33.25 33.742188 C 33.25 33.851562 33.234375 33.953125 33.207031 34.042969 C 33.175781 34.140625 33.128906 34.226562 33.066406 34.304688 C 33.007812 34.378906 32.929688 34.441406 32.839844 34.5 C 32.753906 34.550781 32.648438 34.589844 32.527344 34.617188 C 32.679688 34.640625 32.808594 34.675781 32.925781 34.726562 C 33.046875 34.777344 33.148438 34.84375 33.226562 34.933594 C 33.304688 35.011719 33.367188 35.105469 33.410156 35.214844 C 33.453125 35.316406 33.476562 35.429688 33.476562 35.558594 Z M 32.730469 33.808594 C 32.730469 33.597656 32.660156 33.449219 32.515625 33.363281 C 32.378906 33.277344 32.175781 33.234375 31.914062 33.234375 L 31.050781 33.234375 L 31.050781 34.433594 L 31.914062 34.433594 C 32.0625 34.433594 32.1875 34.421875 32.289062 34.390625 C 32.398438 34.363281 32.484375 34.324219 32.546875 34.273438 C 32.613281 34.214844 32.660156 34.148438 32.6875 34.066406 C 32.714844 33.988281 32.730469 33.902344 32.730469 33.808594 Z M 32.945312 35.515625 C 32.945312 35.394531 32.925781 35.292969 32.882812 35.214844 C 32.839844 35.125 32.773438 35.058594 32.6875 35.007812 C 32.609375 34.949219 32.511719 34.910156 32.398438 34.886719 C 32.28125 34.863281 32.152344 34.84375 32.007812 34.84375 L 31.050781 34.84375 L 31.050781 36.21875 L 32.054688 36.21875 C 32.183594 36.21875 32.300781 36.207031 32.410156 36.1875 C 32.523438 36.164062 32.617188 36.128906 32.699219 36.078125 C 32.777344 36.023438 32.839844 35.949219 32.882812 35.863281 C 32.925781 35.769531 32.945312 35.652344 32.945312 35.515625 Z M 32.945312 35.515625 "/>
<path style=" stroke:none;fill-rule:nonzero;fill:rgb(0%,0%,0%);fill-opacity:1;" d="M 34.050781 32.5 L 36.359375 32.5 L 36.359375 32.964844 L 34.050781 32.964844 "/>
<path style=" stroke:none;fill-rule:nonzero;fill:rgb(0%,0%,0%);fill-opacity:1;" d="M 32.113281 67.804688 C 31.898438 67.804688 31.707031 67.84375 31.539062 67.914062 C 31.375 67.988281 31.234375 68.09375 31.121094 68.226562 C 31.011719 68.355469 30.929688 68.515625 30.871094 68.703125 C 30.8125 68.894531 30.785156 69.101562 30.785156 69.332031 C 30.785156 69.5625 30.8125 69.773438 30.871094 69.96875 C 30.9375 70.160156 31.027344 70.320312 31.140625 70.457031 C 31.253906 70.59375 31.394531 70.703125 31.5625 70.78125 C 31.734375 70.851562 31.921875 70.886719 32.132812 70.886719 C 32.285156 70.886719 32.417969 70.871094 32.53125 70.835938 C 32.652344 70.792969 32.765625 70.734375 32.867188 70.660156 C 32.964844 70.589844 33.050781 70.507812 33.125 70.414062 C 33.203125 70.320312 33.269531 70.210938 33.328125 70.089844 L 33.75 70.304688 C 33.683594 70.449219 33.601562 70.582031 33.503906 70.703125 C 33.398438 70.828125 33.28125 70.9375 33.148438 71.027344 C 33.007812 71.117188 32.855469 71.1875 32.683594 71.234375 C 32.511719 71.285156 32.320312 71.308594 32.113281 71.308594 C 31.800781 71.308594 31.53125 71.261719 31.304688 71.167969 C 31.070312 71.070312 30.878906 70.933594 30.722656 70.757812 C 30.570312 70.582031 30.457031 70.371094 30.378906 70.132812 C 30.296875 69.886719 30.257812 69.621094 30.257812 69.332031 C 30.257812 69.035156 30.296875 68.769531 30.378906 68.53125 C 30.464844 68.285156 30.585938 68.082031 30.742188 67.914062 C 30.898438 67.75 31.09375 67.617188 31.324219 67.523438 C 31.554688 67.433594 31.816406 67.382812 32.113281 67.382812 C 32.511719 67.382812 32.847656 67.464844 33.113281 67.621094 C 33.386719 67.78125 33.589844 68.019531 33.71875 68.335938 L 33.234375 68.496094 C 33.195312 68.40625 33.148438 68.320312 33.082031 68.238281 C 33.023438 68.152344 32.945312 68.082031 32.855469 68.023438 C 32.761719 67.957031 32.652344 67.910156 32.53125 67.871094 C 32.410156 67.828125 32.269531 67.804688 32.113281 67.804688 Z M 32.113281 67.804688 "/>
<path style=" stroke:none;fill-rule:nonzero;fill:rgb(0%,0%,0%);fill-opacity:1;" d="M 47.867188 45.148438 L 45.832031 41.902344 C 45.835938 41.988281 45.84375 42.078125 45.84375 42.164062 C 45.847656 42.234375 45.855469 42.316406 45.855469 42.402344 C 45.859375 42.480469 45.863281 42.550781 45.863281 42.617188 L 45.863281 45.148438 L 45.402344 45.148438 L 45.402344 41.339844 L 46.003906 41.339844 L 48.050781 44.609375 C 48.050781 44.609375 48.046875 44.519531 48.042969 44.335938 C 48.035156 44.265625 48.023438 44.1875 48.019531 44.097656 C 48.019531 44.007812 48.019531 43.921875 48.019531 43.839844 L 48.019531 41.339844 L 48.484375 41.339844 L 48.484375 45.148438 Z M 47.867188 45.148438 "/>
<path style=" stroke:none;fill-rule:nonzero;fill:rgb(0%,0%,0%);fill-opacity:1;" d="M 33.890625 17.171875 C 33.890625 17.46875 33.847656 17.742188 33.761719 17.984375 C 33.675781 18.230469 33.546875 18.4375 33.382812 18.609375 C 33.226562 18.785156 33.027344 18.917969 32.789062 19.011719 C 32.558594 19.101562 32.296875 19.152344 32.003906 19.152344 C 31.6875 19.152344 31.410156 19.101562 31.175781 19.011719 C 30.941406 18.910156 30.75 18.773438 30.59375 18.601562 C 30.433594 18.421875 30.316406 18.210938 30.238281 17.972656 C 30.15625 17.730469 30.117188 17.460938 30.117188 17.171875 C 30.117188 16.878906 30.15625 16.609375 30.238281 16.371094 C 30.324219 16.128906 30.445312 15.921875 30.601562 15.753906 C 30.769531 15.589844 30.964844 15.460938 31.195312 15.367188 C 31.433594 15.273438 31.703125 15.226562 32.003906 15.226562 C 32.304688 15.226562 32.574219 15.273438 32.8125 15.367188 C 33.050781 15.460938 33.246094 15.59375 33.40625 15.765625 C 33.5625 15.933594 33.679688 16.132812 33.761719 16.371094 C 33.847656 16.609375 33.890625 16.878906 33.890625 17.171875 Z M 33.363281 17.171875 C 33.363281 16.941406 33.332031 16.734375 33.277344 16.546875 C 33.214844 16.359375 33.128906 16.199219 33.015625 16.070312 C 32.902344 15.933594 32.757812 15.828125 32.585938 15.753906 C 32.417969 15.683594 32.226562 15.648438 32.003906 15.648438 C 31.78125 15.648438 31.585938 15.683594 31.410156 15.753906 C 31.238281 15.828125 31.09375 15.933594 30.980469 16.070312 C 30.871094 16.199219 30.789062 16.359375 30.734375 16.546875 C 30.671875 16.734375 30.648438 16.941406 30.648438 17.171875 C 30.648438 17.40625 30.671875 17.617188 30.734375 17.8125 C 30.789062 18 30.875 18.164062 30.992188 18.296875 C 31.105469 18.433594 31.246094 18.542969 31.410156 18.621094 C 31.585938 18.695312 31.78125 18.730469 32.003906 18.730469 C 32.242188 18.730469 32.445312 18.695312 32.617188 18.621094 C 32.789062 18.542969 32.929688 18.433594 33.039062 18.296875 C 33.148438 18.152344 33.226562 17.988281 33.277344 17.800781 C 33.332031 17.605469 33.363281 17.398438 33.363281 17.171875 Z M 33.363281 17.171875 "/>
<path style=" stroke:none;fill-rule:nonzero;fill:rgb(0%,0%,0%);fill-opacity:1;" d="M 34.464844 14.855469 L 35.390625 14.855469 L 35.390625 13.925781 L 35.851562 13.925781 L 35.851562 14.855469 L 36.773438 14.855469 L 36.773438 15.316406 L 35.851562 15.316406 L 35.851562 16.246094 L 35.390625 16.246094 L 35.390625 15.316406 L 34.464844 15.316406 "/>
<path style=" stroke:none;fill-rule:nonzero;fill:rgb(0%,0%,0%);fill-opacity:1;" d="M 47.867188 62.316406 L 45.832031 59.070312 C 45.835938 59.15625 45.84375 59.242188 45.84375 59.332031 C 45.847656 59.402344 45.855469 59.480469 45.855469 59.566406 C 45.859375 59.648438 45.863281 59.71875 45.863281 59.785156 L 45.863281 62.316406 L 45.402344 62.316406 L 45.402344 58.507812 L 46.003906 58.507812 L 48.050781 61.773438 C 48.050781 61.773438 48.046875 61.6875 48.042969 61.503906 C 48.035156 61.433594 48.023438 61.351562 48.019531 61.265625 C 48.019531 61.175781 48.019531 61.089844 48.019531 61.007812 L 48.019531 58.507812 L 48.484375 58.507812 L 48.484375 62.316406 Z M 47.867188 62.316406 "/>
<path style="fill:none;stroke-width:0.0333333;stroke-linecap:butt;stroke-linejoin:miter;stroke:rgb(0%,0%,0%);stroke-opacity:1;stroke-miterlimit:10;" d="M 0.17651 1.40433 L 0.696018 1.106639 " transform="matrix(17.241379,0,0,17.307692,17.195006,17.190377)"/>
<path style="fill:none;stroke-width:0.0333333;stroke-linecap:butt;stroke-linejoin:miter;stroke:rgb(0%,0%,0%);stroke-opacity:1;stroke-miterlimit:10;" d="M 1.030424 1.110476 L 1.559221 1.411101 " transform="matrix(17.241379,0,0,17.307692,17.195006,17.190377)"/>
<path style="fill:none;stroke-width:0.0333333;stroke-linecap:butt;stroke-linejoin:miter;stroke:rgb(0%,0%,0%);stroke-opacity:1;stroke-miterlimit:10;" d="M 0.942291 0.771934 L 0.942291 0.156691 " transform="matrix(17.241379,0,0,17.307692,17.195006,17.190377)"/>
<path style="fill:none;stroke-width:0.0333333;stroke-linecap:butt;stroke-linejoin:miter;stroke:rgb(0%,0%,0%);stroke-opacity:1;stroke-miterlimit:10;" d="M 0.775768 0.771934 L 0.775768 0.156691 " transform="matrix(17.241379,0,0,17.307692,17.195006,17.190377)"/>
<path style="fill:none;stroke-width:0.0333333;stroke-linecap:butt;stroke-linejoin:miter;stroke:rgb(0%,0%,0%);stroke-opacity:1;stroke-miterlimit:10;" d="M 1.077322 2.98058 L 1.602721 2.667316 " transform="matrix(17.241379,0,0,17.307692,17.195006,17.190377)"/>
<path style="fill:none;stroke-width:0.0333333;stroke-linecap:butt;stroke-linejoin:miter;stroke:rgb(0%,0%,0%);stroke-opacity:1;stroke-miterlimit:10;" d="M 0.992135 2.837264 L 1.517307 2.524226 " transform="matrix(17.241379,0,0,17.307692,17.195006,17.190377)"/>
<path style="fill:none;stroke-width:0.0333333;stroke-linecap:butt;stroke-linejoin:miter;stroke:rgb(0%,0%,0%);stroke-opacity:1;stroke-miterlimit:10;" d="M 1.725291 1.658914 L 1.725291 2.343896 " transform="matrix(17.241379,0,0,17.307692,17.195006,17.190377)"/>
</g>
</svg>
