<?xml version="1.0" encoding="UTF-8"?>
<svg xmlns="http://www.w3.org/2000/svg" xmlns:xlink="http://www.w3.org/1999/xlink" width="102.4pt" height="60.8pt" viewBox="0 0 102.4 60.8" version="1.1">
<g id="surface172">
<path style=" stroke:none;fill-rule:nonzero;fill:rgb(0%,0%,0%);fill-opacity:1;" d="M 17.046875 30.941406 L 38.785156 30.941406 L 38.785156 32.558594 L 43.132812 30.398438 L 38.785156 28.242188 L 38.785156 29.859375 L 17.046875 29.859375 "/>
<path style=" stroke:none;fill-rule:nonzero;fill:rgb(0%,0%,0%);fill-opacity:1;" d="M 86.148438 35.414062 L 84.09375 32.175781 C 84.101562 32.261719 84.105469 32.347656 84.105469 32.433594 C 84.113281 32.507812 84.117188 32.585938 84.117188 32.671875 C 84.121094 32.753906 84.128906 32.824219 84.128906 32.886719 L 84.128906 35.414062 L 83.660156 35.414062 L 83.660156 31.613281 L 84.269531 31.613281 L 86.335938 34.875 C 86.335938 34.875 86.328125 34.785156 86.324219 34.605469 C 86.316406 34.535156 86.308594 34.453125 86.300781 34.367188 C 86.300781 34.277344 86.300781 34.1875 86.300781 34.109375 L 86.300781 31.613281 L 86.769531 31.613281 L 86.769531 35.414062 Z M 86.148438 35.414062 "/>
<path style=" stroke:none;fill-rule:nonzero;fill:rgb(0%,0%,0%);fill-opacity:1;" d="M 80.851562 19.003906 L 78.796875 15.765625 C 78.800781 15.851562 78.808594 15.941406 78.808594 16.027344 C 78.8125 16.097656 78.816406 16.175781 78.816406 16.261719 C 78.824219 16.34375 78.828125 16.414062 78.828125 16.480469 L 78.828125 19.003906 L 78.363281 19.003906 L 78.363281 15.207031 L 78.96875 15.207031 L 81.035156 18.464844 C 81.035156 18.464844 81.03125 18.375 81.023438 18.195312 C 81.015625 18.125 81.007812 18.042969 81.003906 17.957031 C 81.003906 17.867188 81.003906 17.78125 81.003906 17.699219 L 81.003906 15.207031 L 81.46875 15.207031 L 81.46875 19.003906 Z M 80.851562 19.003906 "/>
<path style=" stroke:none;fill-rule:nonzero;fill:rgb(0%,0%,0%);fill-opacity:1;" d="M 72.160156 45.59375 L 70.105469 42.355469 C 70.113281 42.441406 70.117188 42.527344 70.117188 42.613281 C 70.121094 42.6875 70.128906 42.765625 70.128906 42.851562 C 70.132812 42.933594 70.136719 43.003906 70.136719 43.070312 L 70.136719 45.59375 L 69.671875 45.59375 L 69.671875 41.792969 L 70.28125 41.792969 L 72.34375 45.054688 C 72.34375 45.054688 72.339844 44.964844 72.335938 44.785156 C 72.324219 44.714844 72.316406 44.632812 72.3125 44.546875 C 72.3125 44.457031 72.3125 44.371094 72.3125 44.289062 L 72.3125 41.792969 L 72.78125 41.792969 L 72.78125 45.59375 Z M 72.160156 45.59375 "/>
<path style=" stroke:none;fill-rule:nonzero;fill:rgb(0%,0%,0%);fill-opacity:1;" d="M 63.511719 19.003906 L 61.457031 15.765625 C 61.460938 15.851562 61.46875 15.941406 61.46875 16.027344 C 61.472656 16.097656 61.476562 16.175781 61.476562 16.261719 C 61.484375 16.34375 61.488281 16.414062 61.488281 16.480469 L 61.488281 19.003906 L 61.023438 19.003906 L 61.023438 15.207031 L 61.628906 15.207031 L 63.695312 18.464844 C 63.695312 18.464844 63.691406 18.375 63.683594 18.195312 C 63.675781 18.125 63.667969 18.042969 63.664062 17.957031 C 63.664062 17.867188 63.664062 17.78125 63.664062 17.699219 L 63.664062 15.207031 L 64.128906 15.207031 L 64.128906 19.003906 Z M 63.511719 19.003906 "/>
<path style="fill:none;stroke-width:0.0333333;stroke-linecap:butt;stroke-linejoin:miter;stroke:rgb(0%,0%,0%);stroke-opacity:1;stroke-miterlimit:10;" d="M 0.974918 1.422485 L 1.460298 1.066975 " transform="matrix(17.391304,0,0,17.272727,57.044911,17.105583)"/>
<path style="fill:none;stroke-width:0.0333333;stroke-linecap:butt;stroke-linejoin:miter;stroke:rgb(0%,0%,0%);stroke-opacity:1;stroke-miterlimit:10;" d="M 1.29274 0.203077 L 1.483433 0.797855 " transform="matrix(17.391304,0,0,17.272727,57.044911,17.105583)"/>
<path style="fill:none;stroke-width:0.0333333;stroke-linecap:butt;stroke-linejoin:miter;stroke:rgb(0%,0%,0%);stroke-opacity:1;stroke-miterlimit:10;" d="M 1.451539 0.152193 L 1.642232 0.746971 " transform="matrix(17.391304,0,0,17.272727,57.044911,17.105583)"/>
<path style="fill:none;stroke-width:0.0333333;stroke-linecap:butt;stroke-linejoin:miter;stroke:rgb(0%,0%,0%);stroke-opacity:1;stroke-miterlimit:10;" d="M 0.450904 -0.00000658816 L 1.182457 -0.00000658816 " transform="matrix(17.391304,0,0,17.272727,57.044911,17.105583)"/>
<path style="fill:none;stroke-width:0.0333333;stroke-linecap:butt;stroke-linejoin:miter;stroke:rgb(0%,0%,0%);stroke-opacity:1;stroke-miterlimit:10;" d="M -0.00999447 0.943044 L 0.655523 1.423842 " transform="matrix(17.391304,0,0,17.272727,57.044911,17.105583)"/>
<path style="fill:none;stroke-width:0.0333333;stroke-linecap:butt;stroke-linejoin:miter;stroke:rgb(0%,0%,0%);stroke-opacity:1;stroke-miterlimit:10;" d="M 0.186988 0.879722 L 0.753228 1.28883 " transform="matrix(17.391304,0,0,17.272727,57.044911,17.105583)"/>
<path style="fill:none;stroke-width:0.0333333;stroke-linecap:butt;stroke-linejoin:miter;stroke:rgb(0%,0%,0%);stroke-opacity:1;stroke-miterlimit:10;" d="M -0.00393002 0.961815 L 0.258414 0.177748 " transform="matrix(17.391304,0,0,17.272727,57.044911,17.105583)"/>
</g>
</svg>
