<?xml version="1.0" encoding="UTF-8"?>
<svg xmlns="http://www.w3.org/2000/svg" xmlns:xlink="http://www.w3.org/1999/xlink" width="228pt" height="85.6pt" viewBox="0 0 228 85.6" version="1.1">
<g id="surface937">
<path style=" stroke:none;fill-rule:nonzero;fill:rgb(0%,0%,47.058824%);fill-opacity:1;" d="M 63.558594 30.601562 C 63.558594 30.898438 63.511719 31.167969 63.417969 31.410156 C 63.332031 31.65625 63.207031 31.863281 63.039062 32.035156 C 62.871094 32.207031 62.671875 32.34375 62.433594 32.433594 C 62.195312 32.527344 61.925781 32.574219 61.621094 32.574219 C 61.300781 32.574219 61.023438 32.527344 60.785156 32.433594 C 60.546875 32.335938 60.34375 32.195312 60.179688 32.023438 C 60.019531 31.847656 59.902344 31.636719 59.820312 31.398438 C 59.742188 31.15625 59.703125 30.890625 59.703125 30.601562 C 59.703125 30.308594 59.742188 30.039062 59.820312 29.800781 C 59.910156 29.558594 60.035156 29.355469 60.199219 29.1875 C 60.367188 29.023438 60.570312 28.894531 60.808594 28.800781 C 61.046875 28.707031 61.320312 28.660156 61.632812 28.660156 C 61.941406 28.660156 62.214844 28.707031 62.453125 28.800781 C 62.691406 28.894531 62.890625 29.027344 63.050781 29.199219 C 63.214844 29.367188 63.34375 29.566406 63.429688 29.800781 C 63.515625 30.039062 63.558594 30.308594 63.558594 30.601562 Z M 62.746094 30.601562 C 62.746094 30.402344 62.71875 30.21875 62.671875 30.0625 C 62.621094 29.90625 62.546875 29.765625 62.453125 29.652344 C 62.359375 29.539062 62.242188 29.445312 62.109375 29.382812 C 61.96875 29.316406 61.808594 29.285156 61.632812 29.285156 C 61.441406 29.285156 61.277344 29.316406 61.132812 29.382812 C 60.996094 29.445312 60.878906 29.539062 60.785156 29.652344 C 60.691406 29.765625 60.617188 29.90625 60.570312 30.0625 C 60.527344 30.21875 60.503906 30.402344 60.503906 30.601562 C 60.503906 30.804688 60.527344 30.984375 60.582031 31.152344 C 60.628906 31.308594 60.703125 31.449219 60.796875 31.570312 C 60.890625 31.6875 61.003906 31.78125 61.144531 31.851562 C 61.277344 31.917969 61.4375 31.949219 61.621094 31.949219 C 61.816406 31.949219 61.980469 31.917969 62.117188 31.851562 C 62.261719 31.78125 62.382812 31.6875 62.476562 31.570312 C 62.570312 31.449219 62.640625 31.308594 62.683594 31.140625 C 62.726562 30.976562 62.746094 30.792969 62.746094 30.601562 Z M 62.746094 30.601562 "/>
<path style=" stroke:none;fill-rule:nonzero;fill:rgb(0%,0%,47.058824%);fill-opacity:1;" d="M 137.585938 17.203125 C 137.585938 17.5 137.539062 17.769531 137.445312 18.011719 C 137.359375 18.257812 137.230469 18.464844 137.066406 18.640625 C 136.898438 18.8125 136.699219 18.945312 136.460938 19.039062 C 136.222656 19.128906 135.949219 19.179688 135.648438 19.179688 C 135.328125 19.179688 135.050781 19.128906 134.8125 19.039062 C 134.574219 18.9375 134.371094 18.800781 134.207031 18.628906 C 134.046875 18.449219 133.925781 18.238281 133.847656 18.003906 C 133.765625 17.757812 133.730469 17.492188 133.730469 17.203125 C 133.730469 16.910156 133.765625 16.644531 133.847656 16.40625 C 133.933594 16.164062 134.058594 15.957031 134.226562 15.792969 C 134.394531 15.625 134.597656 15.496094 134.835938 15.402344 C 135.074219 15.3125 135.347656 15.261719 135.65625 15.261719 C 135.964844 15.261719 136.242188 15.3125 136.480469 15.402344 C 136.71875 15.496094 136.917969 15.628906 137.078125 15.800781 C 137.242188 15.96875 137.371094 16.167969 137.457031 16.40625 C 137.542969 16.644531 137.585938 16.910156 137.585938 17.203125 Z M 136.773438 17.203125 C 136.773438 17.003906 136.746094 16.824219 136.699219 16.664062 C 136.644531 16.507812 136.574219 16.371094 136.480469 16.253906 C 136.386719 16.140625 136.269531 16.050781 136.132812 15.984375 C 135.996094 15.921875 135.835938 15.886719 135.65625 15.886719 C 135.46875 15.886719 135.304688 15.921875 135.160156 15.984375 C 135.019531 16.050781 134.90625 16.140625 134.8125 16.253906 C 134.71875 16.371094 134.644531 16.507812 134.597656 16.664062 C 134.550781 16.824219 134.53125 17.003906 134.53125 17.203125 C 134.53125 17.40625 134.554688 17.589844 134.605469 17.753906 C 134.65625 17.914062 134.730469 18.054688 134.824219 18.175781 C 134.914062 18.289062 135.03125 18.386719 135.171875 18.457031 C 135.304688 18.519531 135.464844 18.550781 135.648438 18.550781 C 135.84375 18.550781 136.007812 18.519531 136.144531 18.457031 C 136.289062 18.386719 136.40625 18.289062 136.503906 18.175781 C 136.59375 18.054688 136.664062 17.910156 136.707031 17.742188 C 136.753906 17.578125 136.773438 17.398438 136.773438 17.203125 Z M 136.773438 17.203125 "/>
<path style=" stroke:none;fill-rule:nonzero;fill:rgb(0%,0%,0%);fill-opacity:1;" d="M 106.921875 70.277344 L 104.875 67.042969 C 104.878906 67.128906 104.882812 67.214844 104.882812 67.300781 C 104.890625 67.375 104.894531 67.453125 104.894531 67.539062 C 104.898438 67.621094 104.90625 67.6875 104.90625 67.753906 L 104.90625 70.277344 L 104.441406 70.277344 L 104.441406 66.480469 L 105.046875 66.480469 L 107.105469 69.738281 C 107.105469 69.738281 107.101562 69.648438 107.09375 69.46875 C 107.085938 69.398438 107.078125 69.316406 107.074219 69.230469 C 107.074219 69.140625 107.074219 69.054688 107.074219 68.972656 L 107.074219 66.480469 L 107.539062 66.480469 L 107.539062 70.277344 Z M 106.921875 70.277344 "/>
<path style=" stroke:none;fill-rule:nonzero;fill:rgb(0%,0%,0%);fill-opacity:1;" d="M 77.25 19.117188 L 75.203125 15.882812 C 75.207031 15.96875 75.210938 16.054688 75.210938 16.140625 C 75.21875 16.214844 75.222656 16.292969 75.222656 16.378906 C 75.230469 16.460938 75.234375 16.53125 75.234375 16.59375 L 75.234375 19.117188 L 74.769531 19.117188 L 74.769531 15.320312 L 75.375 15.320312 L 77.433594 18.578125 C 77.433594 18.578125 77.429688 18.492188 77.421875 18.308594 C 77.414062 18.238281 77.40625 18.160156 77.402344 18.074219 C 77.402344 17.980469 77.402344 17.894531 77.402344 17.8125 L 77.402344 15.320312 L 77.867188 15.320312 L 77.867188 19.117188 Z M 77.25 19.117188 "/>
<path style=" stroke:none;fill-rule:nonzero;fill:rgb(0%,0%,47.058824%);fill-opacity:1;" d="M 193.507812 29.75 C 193.507812 30.046875 193.460938 30.316406 193.367188 30.558594 C 193.28125 30.804688 193.152344 31.011719 192.988281 31.1875 C 192.820312 31.359375 192.621094 31.492188 192.382812 31.585938 C 192.144531 31.675781 191.871094 31.726562 191.566406 31.726562 C 191.25 31.726562 190.972656 31.675781 190.734375 31.585938 C 190.496094 31.484375 190.292969 31.347656 190.128906 31.175781 C 189.96875 30.996094 189.847656 30.785156 189.769531 30.550781 C 189.6875 30.308594 189.652344 30.039062 189.652344 29.75 C 189.652344 29.457031 189.6875 29.191406 189.769531 28.953125 C 189.855469 28.710938 189.980469 28.503906 190.148438 28.339844 C 190.3125 28.171875 190.515625 28.042969 190.753906 27.949219 C 190.992188 27.859375 191.269531 27.808594 191.578125 27.808594 C 191.886719 27.808594 192.164062 27.859375 192.402344 27.949219 C 192.640625 28.042969 192.839844 28.175781 193 28.347656 C 193.164062 28.515625 193.292969 28.714844 193.378906 28.953125 C 193.464844 29.191406 193.507812 29.457031 193.507812 29.75 Z M 192.695312 29.75 C 192.695312 29.550781 192.667969 29.371094 192.621094 29.210938 C 192.566406 29.054688 192.496094 28.917969 192.402344 28.800781 C 192.308594 28.6875 192.191406 28.597656 192.054688 28.53125 C 191.917969 28.46875 191.757812 28.433594 191.578125 28.433594 C 191.390625 28.433594 191.222656 28.46875 191.082031 28.53125 C 190.941406 28.597656 190.824219 28.6875 190.734375 28.800781 C 190.640625 28.917969 190.566406 29.054688 190.515625 29.210938 C 190.472656 29.371094 190.453125 29.550781 190.453125 29.75 C 190.453125 29.953125 190.476562 30.136719 190.527344 30.300781 C 190.578125 30.460938 190.648438 30.601562 190.746094 30.722656 C 190.835938 30.839844 190.953125 30.933594 191.089844 31.003906 C 191.226562 31.066406 191.386719 31.097656 191.566406 31.097656 C 191.761719 31.097656 191.929688 31.066406 192.066406 31.003906 C 192.210938 30.933594 192.328125 30.839844 192.425781 30.722656 C 192.515625 30.601562 192.585938 30.457031 192.628906 30.289062 C 192.671875 30.125 192.695312 29.945312 192.695312 29.75 Z M 192.695312 29.75 "/>
<path style=" stroke:none;fill-rule:nonzero;fill:rgb(0%,0%,0%);fill-opacity:1;" d="M 212.648438 40.136719 C 212.648438 40.453125 212.601562 40.734375 212.507812 40.976562 C 212.414062 41.214844 212.285156 41.417969 212.121094 41.582031 C 211.953125 41.75 211.753906 41.871094 211.523438 41.957031 C 211.296875 42.039062 211.058594 42.078125 210.796875 42.078125 L 209.367188 42.078125 L 209.367188 38.28125 L 210.636719 38.28125 C 210.921875 38.28125 211.191406 38.316406 211.4375 38.386719 C 211.6875 38.460938 211.90625 38.570312 212.085938 38.722656 C 212.265625 38.875 212.402344 39.066406 212.5 39.304688 C 212.597656 39.539062 212.648438 39.8125 212.648438 40.136719 Z M 212.128906 40.136719 C 212.128906 39.875 212.09375 39.660156 212.023438 39.476562 C 211.949219 39.300781 211.84375 39.152344 211.707031 39.035156 C 211.578125 38.914062 211.417969 38.828125 211.230469 38.777344 C 211.042969 38.71875 210.839844 38.691406 210.625 38.691406 L 209.886719 38.691406 L 209.886719 41.667969 L 210.734375 41.667969 C 210.933594 41.667969 211.117188 41.636719 211.285156 41.570312 C 211.457031 41.503906 211.605469 41.410156 211.730469 41.277344 C 211.859375 41.148438 211.957031 40.992188 212.023438 40.804688 C 212.09375 40.609375 212.128906 40.390625 212.128906 40.136719 Z M 212.128906 40.136719 "/>
<path style="fill:none;stroke-width:0.06;stroke-linecap:butt;stroke-linejoin:miter;stroke:rgb(0%,0%,47.058824%);stroke-opacity:1;stroke-miterlimit:10;" d="M 0.870703 0.767671 L -0.0150649 1.27898 " transform="matrix(17.335766,0,0,17.258065,17.128349,17.220242)"/>
<path style="fill:none;stroke-width:0.06;stroke-linecap:butt;stroke-linejoin:miter;stroke:rgb(0%,0%,47.058824%);stroke-opacity:1;stroke-miterlimit:10;" d="M 0.840734 0.767671 L 1.711406 1.270379 " transform="matrix(17.335766,0,0,17.258065,17.128349,17.220242)"/>
<path style="fill:none;stroke-width:0.06;stroke-linecap:butt;stroke-linejoin:miter;stroke:rgb(0%,0%,47.058824%);stroke-opacity:1;stroke-miterlimit:10;" d="M 0.840734 0.960063 L 1.544887 1.366802 " transform="matrix(17.335766,0,0,17.258065,17.128349,17.220242)"/>
<path style="fill:none;stroke-width:0.06;stroke-linecap:butt;stroke-linejoin:miter;stroke:rgb(0%,0%,47.058824%);stroke-opacity:1;stroke-miterlimit:10;" d="M 0.0000321542 1.253177 L 0.0000321542 2.276023 " transform="matrix(17.335766,0,0,17.258065,17.128349,17.220242)"/>
<path style="fill:none;stroke-width:0.06;stroke-linecap:butt;stroke-linejoin:miter;stroke:rgb(0%,0%,47.058824%);stroke-opacity:1;stroke-miterlimit:10;" d="M 0.16655 1.349373 L 0.16655 2.179601 " transform="matrix(17.335766,0,0,17.258065,17.128349,17.220242)"/>
<path style="fill:none;stroke-width:0.06;stroke-linecap:butt;stroke-linejoin:miter;stroke:rgb(0%,0%,47.058824%);stroke-opacity:1;stroke-miterlimit:10;" d="M -0.0150649 2.249768 L 0.870703 2.761304 " transform="matrix(17.335766,0,0,17.258065,17.128349,17.220242)"/>
<path style="fill:none;stroke-width:0.06;stroke-linecap:butt;stroke-linejoin:miter;stroke:rgb(0%,0%,47.058824%);stroke-opacity:1;stroke-miterlimit:10;" d="M 0.840734 2.761304 L 1.726503 2.249768 " transform="matrix(17.335766,0,0,17.258065,17.128349,17.220242)"/>
<path style="fill:none;stroke-width:0.06;stroke-linecap:butt;stroke-linejoin:miter;stroke:rgb(0%,0%,47.058824%);stroke-opacity:1;stroke-miterlimit:10;" d="M 0.840734 2.568912 L 1.559984 2.153572 " transform="matrix(17.335766,0,0,17.258065,17.128349,17.220242)"/>
<path style="fill:none;stroke-width:0.06;stroke-linecap:butt;stroke-linejoin:miter;stroke:rgb(0%,0%,47.058824%);stroke-opacity:1;stroke-miterlimit:10;" d="M 1.711406 2.276023 L 1.711406 1.253177 " transform="matrix(17.335766,0,0,17.258065,17.128349,17.220242)"/>
<path style="fill:none;stroke-width:0.06;stroke-linecap:butt;stroke-linejoin:miter;stroke:rgb(0%,0%,47.058824%);stroke-opacity:1;stroke-miterlimit:10;" d="M 1.696534 1.27898 L 2.383336 0.882427 " transform="matrix(17.335766,0,0,17.258065,17.128349,17.220242)"/>
<path style="fill:none;stroke-width:0.06;stroke-linecap:butt;stroke-linejoin:miter;stroke:rgb(0%,0%,47.058824%);stroke-opacity:1;stroke-miterlimit:10;" d="M 5.140912 -0.00868749 L 4.261904 0.499001 " transform="matrix(17.335766,0,0,17.258065,17.128349,17.220242)"/>
<path style="fill:none;stroke-width:0.06;stroke-linecap:butt;stroke-linejoin:miter;stroke:rgb(0%,0%,47.058824%);stroke-opacity:1;stroke-miterlimit:10;" d="M 5.110943 -0.00868749 L 5.981614 0.494021 " transform="matrix(17.335766,0,0,17.258065,17.128349,17.220242)"/>
<path style="fill:none;stroke-width:0.06;stroke-linecap:butt;stroke-linejoin:miter;stroke:rgb(0%,0%,47.058824%);stroke-opacity:1;stroke-miterlimit:10;" d="M 5.110943 0.183704 L 5.815096 0.590217 " transform="matrix(17.335766,0,0,17.258065,17.128349,17.220242)"/>
<path style="fill:none;stroke-width:0.06;stroke-linecap:butt;stroke-linejoin:miter;stroke:rgb(0%,0%,47.058824%);stroke-opacity:1;stroke-miterlimit:10;" d="M 4.270016 0.494021 L 4.270016 1.499439 " transform="matrix(17.335766,0,0,17.258065,17.128349,17.220242)"/>
<path style="fill:none;stroke-width:0.06;stroke-linecap:butt;stroke-linejoin:miter;stroke:rgb(0%,0%,47.058824%);stroke-opacity:1;stroke-miterlimit:10;" d="M 4.436759 0.590217 L 4.436759 1.403243 " transform="matrix(17.335766,0,0,17.258065,17.128349,17.220242)"/>
<path style="fill:none;stroke-width:0.06;stroke-linecap:butt;stroke-linejoin:miter;stroke:rgb(0%,0%,47.058824%);stroke-opacity:1;stroke-miterlimit:10;" d="M 4.255144 1.473636 L 5.134378 1.981098 " transform="matrix(17.335766,0,0,17.258065,17.128349,17.220242)"/>
<path style="fill:none;stroke-width:0.06;stroke-linecap:butt;stroke-linejoin:miter;stroke:rgb(0%,0%,47.058824%);stroke-opacity:1;stroke-miterlimit:10;" d="M 5.125815 1.976345 L 5.996711 1.473636 " transform="matrix(17.335766,0,0,17.258065,17.128349,17.220242)"/>
<path style="fill:none;stroke-width:0.06;stroke-linecap:butt;stroke-linejoin:miter;stroke:rgb(0%,0%,47.058824%);stroke-opacity:1;stroke-miterlimit:10;" d="M 5.125815 1.783726 L 5.830193 1.37744 " transform="matrix(17.335766,0,0,17.258065,17.128349,17.220242)"/>
<path style="fill:none;stroke-width:0.06;stroke-linecap:butt;stroke-linejoin:miter;stroke:rgb(0%,0%,47.058824%);stroke-opacity:1;stroke-miterlimit:10;" d="M 5.981614 1.499439 L 5.981614 0.476819 " transform="matrix(17.335766,0,0,17.258065,17.128349,17.220242)"/>
<path style="fill:none;stroke-width:0.06;stroke-linecap:butt;stroke-linejoin:miter;stroke:rgb(0%,0%,47.058824%);stroke-opacity:1;stroke-miterlimit:10;" d="M 5.966743 0.502622 L 6.653545 0.106069 " transform="matrix(17.335766,0,0,17.258065,17.128349,17.220242)"/>
<path style="fill:none;stroke-width:0.0333333;stroke-linecap:butt;stroke-linejoin:miter;stroke:rgb(0%,0%,0%);stroke-opacity:1;stroke-miterlimit:10;" d="M 5.125815 1.966612 L 5.125815 2.811099 " transform="matrix(17.335766,0,0,17.258065,17.128349,17.220242)"/>
<path style="fill:none;stroke-width:0.0333333;stroke-linecap:butt;stroke-linejoin:miter;stroke:rgb(0%,0%,0%);stroke-opacity:1;stroke-miterlimit:10;" d="M 4.278578 0.499001 L 3.580284 0.0958832 " transform="matrix(17.335766,0,0,17.258065,17.128349,17.220242)"/>
<path style="fill:none;stroke-width:0.06;stroke-linecap:butt;stroke-linejoin:miter;stroke:rgb(0%,0%,47.058824%);stroke-opacity:1;stroke-miterlimit:10;" d="M 8.366721 0.718328 L 7.480953 1.229638 " transform="matrix(17.335766,0,0,17.258065,17.128349,17.220242)"/>
<path style="fill:none;stroke-width:0.06;stroke-linecap:butt;stroke-linejoin:miter;stroke:rgb(0%,0%,47.058824%);stroke-opacity:1;stroke-miterlimit:10;" d="M 8.336753 0.718328 L 9.207424 1.221037 " transform="matrix(17.335766,0,0,17.258065,17.128349,17.220242)"/>
<path style="fill:none;stroke-width:0.06;stroke-linecap:butt;stroke-linejoin:miter;stroke:rgb(0%,0%,47.058824%);stroke-opacity:1;stroke-miterlimit:10;" d="M 8.336753 0.91072 L 9.04068 1.317459 " transform="matrix(17.335766,0,0,17.258065,17.128349,17.220242)"/>
<path style="fill:none;stroke-width:0.06;stroke-linecap:butt;stroke-linejoin:miter;stroke:rgb(0%,0%,47.058824%);stroke-opacity:1;stroke-miterlimit:10;" d="M 7.495825 1.203834 L 7.495825 2.226454 " transform="matrix(17.335766,0,0,17.258065,17.128349,17.220242)"/>
<path style="fill:none;stroke-width:0.06;stroke-linecap:butt;stroke-linejoin:miter;stroke:rgb(0%,0%,47.058824%);stroke-opacity:1;stroke-miterlimit:10;" d="M 7.662568 1.30003 L 7.662568 2.130258 " transform="matrix(17.335766,0,0,17.258065,17.128349,17.220242)"/>
<path style="fill:none;stroke-width:0.06;stroke-linecap:butt;stroke-linejoin:miter;stroke:rgb(0%,0%,47.058824%);stroke-opacity:1;stroke-miterlimit:10;" d="M 7.480953 2.200651 L 8.366721 2.711961 " transform="matrix(17.335766,0,0,17.258065,17.128349,17.220242)"/>
<path style="fill:none;stroke-width:0.06;stroke-linecap:butt;stroke-linejoin:miter;stroke:rgb(0%,0%,47.058824%);stroke-opacity:1;stroke-miterlimit:10;" d="M 8.336753 2.711961 L 9.222521 2.200651 " transform="matrix(17.335766,0,0,17.258065,17.128349,17.220242)"/>
<path style="fill:none;stroke-width:0.06;stroke-linecap:butt;stroke-linejoin:miter;stroke:rgb(0%,0%,47.058824%);stroke-opacity:1;stroke-miterlimit:10;" d="M 8.336753 2.519569 L 9.055777 2.104455 " transform="matrix(17.335766,0,0,17.258065,17.128349,17.220242)"/>
<path style="fill:none;stroke-width:0.06;stroke-linecap:butt;stroke-linejoin:miter;stroke:rgb(0%,0%,47.058824%);stroke-opacity:1;stroke-miterlimit:10;" d="M 9.207424 2.226454 L 9.207424 1.203834 " transform="matrix(17.335766,0,0,17.258065,17.128349,17.220242)"/>
<path style="fill:none;stroke-width:0.06;stroke-linecap:butt;stroke-linejoin:miter;stroke:rgb(0%,0%,47.058824%);stroke-opacity:1;stroke-miterlimit:10;" d="M 9.192327 1.229638 L 9.879355 0.833084 " transform="matrix(17.335766,0,0,17.258065,17.128349,17.220242)"/>
<path style="fill:none;stroke-width:0.0333333;stroke-linecap:butt;stroke-linejoin:miter;stroke:rgb(0%,0%,0%);stroke-opacity:1;stroke-miterlimit:10;" d="M 10.248443 0.826746 L 11.012984 1.238239 " transform="matrix(17.335766,0,0,17.258065,17.128349,17.220242)"/>
</g>
</svg>
