<?xml version="1.0" encoding="UTF-8"?>
<svg xmlns="http://www.w3.org/2000/svg" xmlns:xlink="http://www.w3.org/1999/xlink" width="111.2pt" height="94.4pt" viewBox="0 0 111.2 94.4" version="1.1">
<g id="surface877">
<path style=" stroke:none;fill-rule:nonzero;fill:rgb(0%,0%,0%);fill-opacity:1;" d="M 66.203125 17.0625 C 66.203125 17.359375 66.160156 17.628906 66.070312 17.871094 C 65.984375 18.117188 65.859375 18.324219 65.695312 18.496094 C 65.535156 18.667969 65.335938 18.804688 65.097656 18.894531 C 64.867188 18.988281 64.605469 19.035156 64.3125 19.035156 C 63.992188 19.035156 63.714844 18.988281 63.480469 18.894531 C 63.246094 18.796875 63.050781 18.660156 62.894531 18.484375 C 62.734375 18.308594 62.617188 18.097656 62.539062 17.859375 C 62.457031 17.617188 62.417969 17.351562 62.417969 17.0625 C 62.417969 16.769531 62.457031 16.503906 62.539062 16.265625 C 62.625 16.023438 62.746094 15.816406 62.90625 15.648438 C 63.070312 15.484375 63.269531 15.355469 63.5 15.261719 C 63.738281 15.171875 64.007812 15.121094 64.3125 15.121094 C 64.613281 15.121094 64.882812 15.171875 65.121094 15.261719 C 65.359375 15.355469 65.554688 15.488281 65.714844 15.660156 C 65.871094 15.828125 65.992188 16.027344 66.070312 16.265625 C 66.160156 16.503906 66.203125 16.769531 66.203125 17.0625 Z M 65.671875 17.0625 C 65.671875 16.832031 65.640625 16.625 65.585938 16.4375 C 65.527344 16.25 65.441406 16.09375 65.328125 15.964844 C 65.210938 15.828125 65.066406 15.722656 64.894531 15.648438 C 64.726562 15.582031 64.53125 15.542969 64.3125 15.542969 C 64.085938 15.542969 63.890625 15.582031 63.714844 15.648438 C 63.542969 15.722656 63.398438 15.828125 63.285156 15.964844 C 63.175781 16.09375 63.09375 16.25 63.035156 16.4375 C 62.976562 16.625 62.949219 16.832031 62.949219 17.0625 C 62.949219 17.292969 62.976562 17.503906 63.035156 17.699219 C 63.09375 17.886719 63.179688 18.050781 63.296875 18.183594 C 63.410156 18.320312 63.550781 18.429688 63.714844 18.507812 C 63.890625 18.582031 64.085938 18.617188 64.3125 18.617188 C 64.546875 18.617188 64.753906 18.582031 64.925781 18.507812 C 65.097656 18.429688 65.238281 18.320312 65.347656 18.183594 C 65.457031 18.042969 65.535156 17.875 65.585938 17.6875 C 65.640625 17.492188 65.671875 17.285156 65.671875 17.0625 Z M 65.671875 17.0625 "/>
<path style=" stroke:none;fill-rule:nonzero;fill:rgb(0%,0%,0%);fill-opacity:1;" d="M 93.746094 15.613281 C 93.527344 15.613281 93.335938 15.648438 93.171875 15.71875 C 93.003906 15.792969 92.863281 15.898438 92.75 16.03125 C 92.640625 16.164062 92.558594 16.320312 92.5 16.507812 C 92.441406 16.695312 92.414062 16.902344 92.414062 17.132812 C 92.414062 17.363281 92.441406 17.574219 92.5 17.769531 C 92.566406 17.957031 92.65625 18.121094 92.773438 18.253906 C 92.886719 18.390625 93.027344 18.5 93.195312 18.578125 C 93.367188 18.652344 93.554688 18.683594 93.765625 18.683594 C 93.917969 18.683594 94.050781 18.667969 94.164062 18.632812 C 94.289062 18.589844 94.398438 18.53125 94.5 18.460938 C 94.601562 18.390625 94.6875 18.304688 94.761719 18.210938 C 94.839844 18.121094 94.90625 18.011719 94.964844 17.886719 L 95.386719 18.101562 C 95.320312 18.25 95.238281 18.382812 95.136719 18.503906 C 95.035156 18.625 94.917969 18.734375 94.78125 18.824219 C 94.644531 18.910156 94.488281 18.980469 94.316406 19.03125 C 94.144531 19.078125 93.953125 19.105469 93.746094 19.105469 C 93.433594 19.105469 93.164062 19.058594 92.933594 18.964844 C 92.703125 18.867188 92.507812 18.730469 92.351562 18.554688 C 92.199219 18.378906 92.082031 18.167969 92.003906 17.929688 C 91.921875 17.6875 91.886719 17.421875 91.886719 17.132812 C 91.886719 16.839844 91.921875 16.570312 92.003906 16.335938 C 92.089844 16.09375 92.210938 15.886719 92.371094 15.71875 C 92.527344 15.554688 92.722656 15.425781 92.957031 15.332031 C 93.183594 15.242188 93.449219 15.191406 93.746094 15.191406 C 94.148438 15.191406 94.480469 15.273438 94.75 15.429688 C 95.023438 15.589844 95.226562 15.824219 95.355469 16.140625 L 94.867188 16.300781 C 94.832031 16.210938 94.78125 16.125 94.71875 16.042969 C 94.65625 15.957031 94.582031 15.886719 94.488281 15.828125 C 94.394531 15.761719 94.289062 15.714844 94.164062 15.675781 C 94.042969 15.632812 93.902344 15.613281 93.746094 15.613281 Z M 93.746094 15.613281 "/>
<path style=" stroke:none;fill-rule:nonzero;fill:rgb(0%,0%,0%);fill-opacity:1;" d="M 96.140625 19.050781 L 96.140625 15.050781 L 96.628906 15.050781 L 96.628906 19.050781 Z M 96.140625 19.050781 "/>
<path style="fill:none;stroke-width:0.0333333;stroke-linecap:butt;stroke-linejoin:miter;stroke:rgb(0%,0%,0%);stroke-opacity:1;stroke-miterlimit:10;" d="M 0.874241 1.495029 L -0.0082974 2.004723 " transform="matrix(17.288557,0,0,17.251462,17.08095,17.079658)"/>
<path style="fill:none;stroke-width:0.0333333;stroke-linecap:butt;stroke-linejoin:miter;stroke:rgb(0%,0%,0%);stroke-opacity:1;stroke-miterlimit:10;" d="M 0.874241 1.687495 L 0.158224 2.100956 " transform="matrix(17.288557,0,0,17.251462,17.08095,17.079658)"/>
<path style="fill:none;stroke-width:0.0333333;stroke-linecap:butt;stroke-linejoin:miter;stroke:rgb(0%,0%,0%);stroke-opacity:1;stroke-miterlimit:10;" d="M 0.0000625417 1.990232 L 0.0000625417 3.009393 " transform="matrix(17.288557,0,0,17.251462,17.08095,17.079658)"/>
<path style="fill:none;stroke-width:0.0333333;stroke-linecap:butt;stroke-linejoin:miter;stroke:rgb(0%,0%,0%);stroke-opacity:1;stroke-miterlimit:10;" d="M -0.0082974 2.995128 L 0.874241 3.504822 " transform="matrix(17.288557,0,0,17.251462,17.08095,17.079658)"/>
<path style="fill:none;stroke-width:0.0333333;stroke-linecap:butt;stroke-linejoin:miter;stroke:rgb(0%,0%,0%);stroke-opacity:1;stroke-miterlimit:10;" d="M 0.158224 2.898896 L 0.874241 3.312357 " transform="matrix(17.288557,0,0,17.251462,17.08095,17.079658)"/>
<path style="fill:none;stroke-width:0.0333333;stroke-linecap:butt;stroke-linejoin:miter;stroke:rgb(0%,0%,0%);stroke-opacity:1;stroke-miterlimit:10;" d="M 0.857521 3.504822 L 1.735766 2.997845 " transform="matrix(17.288557,0,0,17.251462,17.08095,17.079658)"/>
<path style="fill:none;stroke-width:0.0333333;stroke-linecap:butt;stroke-linejoin:miter;stroke:rgb(0%,0%,0%);stroke-opacity:1;stroke-miterlimit:10;" d="M 1.731925 2.999883 L 1.731925 1.999742 " transform="matrix(17.288557,0,0,17.251462,17.08095,17.079658)"/>
<path style="fill:none;stroke-width:0.0333333;stroke-linecap:butt;stroke-linejoin:miter;stroke:rgb(0%,0%,0%);stroke-opacity:1;stroke-miterlimit:10;" d="M 1.565178 2.903651 L 1.565178 2.095974 " transform="matrix(17.288557,0,0,17.251462,17.08095,17.079658)"/>
<path style="fill:none;stroke-width:0.0333333;stroke-linecap:butt;stroke-linejoin:miter;stroke:rgb(0%,0%,0%);stroke-opacity:1;stroke-miterlimit:10;" d="M 0.857521 1.495029 L 1.735766 2.002006 " transform="matrix(17.288557,0,0,17.251462,17.08095,17.079658)"/>
<path style="fill:none;stroke-width:0.0333333;stroke-linecap:butt;stroke-linejoin:miter;stroke:rgb(0%,0%,0%);stroke-opacity:1;stroke-miterlimit:10;" d="M 1.727406 2.999883 L 2.748674 2.999883 " transform="matrix(17.288557,0,0,17.251462,17.08095,17.079658)"/>
<path style="fill:none;stroke-width:0.0333333;stroke-linecap:butt;stroke-linejoin:miter;stroke:rgb(0%,0%,0%);stroke-opacity:1;stroke-miterlimit:10;" d="M 1.727406 1.999742 L 2.748674 1.999742 " transform="matrix(17.288557,0,0,17.251462,17.08095,17.079658)"/>
<path style="fill:none;stroke-width:0.0333333;stroke-linecap:butt;stroke-linejoin:miter;stroke:rgb(0%,0%,0%);stroke-opacity:1;stroke-miterlimit:10;" d="M 2.731954 1.999742 L 3.597999 1.50001 " transform="matrix(17.288557,0,0,17.251462,17.08095,17.079658)"/>
<path style="fill:none;stroke-width:0.0333333;stroke-linecap:butt;stroke-linejoin:miter;stroke:rgb(0%,0%,0%);stroke-opacity:1;stroke-miterlimit:10;" d="M 2.898475 2.095974 L 3.597999 1.692476 " transform="matrix(17.288557,0,0,17.251462,17.08095,17.079658)"/>
<path style="fill:none;stroke-width:0.0333333;stroke-linecap:butt;stroke-linejoin:miter;stroke:rgb(0%,0%,0%);stroke-opacity:1;stroke-miterlimit:10;" d="M 2.731954 1.983212 L 2.731954 3.016413 " transform="matrix(17.288557,0,0,17.251462,17.08095,17.079658)"/>
<path style="fill:none;stroke-width:0.0333333;stroke-linecap:butt;stroke-linejoin:miter;stroke:rgb(0%,0%,0%);stroke-opacity:1;stroke-miterlimit:10;" d="M 2.731954 2.999883 L 3.606359 3.504822 " transform="matrix(17.288557,0,0,17.251462,17.08095,17.079658)"/>
<path style="fill:none;stroke-width:0.0333333;stroke-linecap:butt;stroke-linejoin:miter;stroke:rgb(0%,0%,0%);stroke-opacity:1;stroke-miterlimit:10;" d="M 2.898475 2.903651 L 3.606359 3.312357 " transform="matrix(17.288557,0,0,17.251462,17.08095,17.079658)"/>
<path style="fill:none;stroke-width:0.0333333;stroke-linecap:butt;stroke-linejoin:miter;stroke:rgb(0%,0%,0%);stroke-opacity:1;stroke-miterlimit:10;" d="M 3.589639 3.504822 L 4.472403 2.995128 " transform="matrix(17.288557,0,0,17.251462,17.08095,17.079658)"/>
<path style="fill:none;stroke-width:0.0333333;stroke-linecap:butt;stroke-linejoin:miter;stroke:rgb(0%,0%,0%);stroke-opacity:1;stroke-miterlimit:10;" d="M 4.464043 3.009393 L 4.464043 1.990232 " transform="matrix(17.288557,0,0,17.251462,17.08095,17.079658)"/>
<path style="fill:none;stroke-width:0.0333333;stroke-linecap:butt;stroke-linejoin:miter;stroke:rgb(0%,0%,0%);stroke-opacity:1;stroke-miterlimit:10;" d="M 4.297296 2.913387 L 4.297296 2.086464 " transform="matrix(17.288557,0,0,17.251462,17.08095,17.079658)"/>
<path style="fill:none;stroke-width:0.0333333;stroke-linecap:butt;stroke-linejoin:miter;stroke:rgb(0%,0%,0%);stroke-opacity:1;stroke-miterlimit:10;" d="M 4.472403 2.004723 L 3.589639 1.495029 " transform="matrix(17.288557,0,0,17.251462,17.08095,17.079658)"/>
<path style="fill:none;stroke-width:0.0333333;stroke-linecap:butt;stroke-linejoin:miter;stroke:rgb(0%,0%,0%);stroke-opacity:1;stroke-miterlimit:10;" d="M 3.597999 1.509747 L 3.597999 0.490359 " transform="matrix(17.288557,0,0,17.251462,17.08095,17.079658)"/>
<path style="fill:none;stroke-width:0.0333333;stroke-linecap:butt;stroke-linejoin:miter;stroke:rgb(0%,0%,0%);stroke-opacity:1;stroke-miterlimit:10;" d="M 3.681372 0.451866 L 2.956091 0.0331964 " transform="matrix(17.288557,0,0,17.251462,17.08095,17.079658)"/>
<path style="fill:none;stroke-width:0.0333333;stroke-linecap:butt;stroke-linejoin:miter;stroke:rgb(0%,0%,0%);stroke-opacity:1;stroke-miterlimit:10;" d="M 3.597999 0.596102 L 2.872718 0.177432 " transform="matrix(17.288557,0,0,17.251462,17.08095,17.079658)"/>
<path style="fill:none;stroke-width:0.0333333;stroke-linecap:butt;stroke-linejoin:miter;stroke:rgb(0%,0%,0%);stroke-opacity:1;stroke-miterlimit:10;" d="M 3.589639 0.50485 L 4.259112 0.118334 " transform="matrix(17.288557,0,0,17.251462,17.08095,17.079658)"/>
</g>
</svg>
