<?xml version="1.0" encoding="UTF-8"?>
<svg xmlns="http://www.w3.org/2000/svg" xmlns:xlink="http://www.w3.org/1999/xlink" width="75.2pt" height="72pt" viewBox="0 0 75.2 72" version="1.1">
<g id="surface962">
<path style=" stroke:none;fill-rule:nonzero;fill:rgb(0%,0%,0%);fill-opacity:1;" d="M 45.691406 9.605469 C 45.476562 9.605469 45.285156 9.644531 45.121094 9.714844 C 44.953125 9.785156 44.8125 9.890625 44.699219 10.027344 C 44.589844 10.15625 44.507812 10.316406 44.453125 10.503906 C 44.390625 10.691406 44.363281 10.902344 44.363281 11.132812 C 44.363281 11.363281 44.390625 11.574219 44.453125 11.769531 C 44.515625 11.957031 44.605469 12.121094 44.722656 12.257812 C 44.835938 12.394531 44.976562 12.503906 45.140625 12.582031 C 45.316406 12.652344 45.503906 12.6875 45.714844 12.6875 C 45.867188 12.6875 46 12.671875 46.113281 12.632812 C 46.234375 12.589844 46.347656 12.535156 46.449219 12.460938 C 46.550781 12.390625 46.636719 12.308594 46.707031 12.210938 C 46.785156 12.121094 46.855469 12.011719 46.914062 11.886719 L 47.335938 12.105469 C 47.269531 12.25 47.1875 12.382812 47.085938 12.503906 C 46.984375 12.628906 46.863281 12.738281 46.730469 12.828125 C 46.59375 12.914062 46.4375 12.984375 46.265625 13.035156 C 46.09375 13.082031 45.902344 13.109375 45.691406 13.109375 C 45.382812 13.109375 45.113281 13.0625 44.882812 12.96875 C 44.652344 12.871094 44.457031 12.730469 44.300781 12.558594 C 44.148438 12.378906 44.03125 12.167969 43.953125 11.929688 C 43.875 11.6875 43.835938 11.421875 43.835938 11.132812 C 43.835938 10.835938 43.875 10.570312 43.953125 10.332031 C 44.039062 10.085938 44.164062 9.882812 44.320312 9.714844 C 44.476562 9.550781 44.671875 9.417969 44.90625 9.324219 C 45.132812 9.234375 45.394531 9.183594 45.691406 9.183594 C 46.09375 9.183594 46.429688 9.265625 46.699219 9.421875 C 46.96875 9.582031 47.171875 9.820312 47.300781 10.136719 L 46.816406 10.296875 C 46.777344 10.207031 46.730469 10.121094 46.664062 10.039062 C 46.605469 9.953125 46.53125 9.882812 46.4375 9.820312 C 46.34375 9.757812 46.234375 9.707031 46.113281 9.671875 C 45.992188 9.628906 45.851562 9.605469 45.691406 9.605469 Z M 45.691406 9.605469 "/>
<path style=" stroke:none;fill-rule:nonzero;fill:rgb(0%,0%,0%);fill-opacity:1;" d="M 48.566406 10.632812 C 48.621094 10.535156 48.679688 10.449219 48.738281 10.382812 C 48.800781 10.3125 48.871094 10.253906 48.941406 10.210938 C 49.019531 10.164062 49.105469 10.125 49.191406 10.101562 C 49.285156 10.082031 49.386719 10.070312 49.503906 10.070312 C 49.691406 10.070312 49.84375 10.097656 49.957031 10.148438 C 50.078125 10.199219 50.175781 10.269531 50.238281 10.363281 C 50.308594 10.457031 50.359375 10.570312 50.390625 10.699219 C 50.417969 10.824219 50.433594 10.957031 50.433594 11.109375 L 50.433594 13.054688 L 49.9375 13.054688 L 49.9375 11.195312 C 49.9375 11.074219 49.929688 10.964844 49.914062 10.871094 C 49.898438 10.78125 49.871094 10.703125 49.828125 10.644531 C 49.785156 10.578125 49.722656 10.535156 49.644531 10.503906 C 49.5625 10.46875 49.464844 10.449219 49.34375 10.449219 C 49.226562 10.449219 49.121094 10.472656 49.03125 10.515625 C 48.933594 10.558594 48.855469 10.621094 48.792969 10.699219 C 48.726562 10.769531 48.675781 10.859375 48.640625 10.96875 C 48.601562 11.078125 48.585938 11.195312 48.585938 11.324219 L 48.585938 13.054688 L 48.101562 13.054688 L 48.101562 9.042969 L 48.585938 9.042969 L 48.585938 10.082031 C 48.585938 10.148438 48.582031 10.207031 48.574219 10.265625 C 48.574219 10.324219 48.570312 10.378906 48.566406 10.429688 C 48.566406 10.480469 48.566406 10.523438 48.566406 10.558594 C 48.566406 10.59375 48.566406 10.621094 48.566406 10.632812 Z M 48.566406 10.632812 "/>
<path style=" stroke:none;fill-rule:nonzero;fill:rgb(0%,0%,0%);fill-opacity:1;" d="M 51.28125 9.507812 L 51.28125 9.042969 L 51.765625 9.042969 L 51.765625 9.507812 Z M 51.28125 13.054688 L 51.28125 10.125 L 51.765625 10.125 L 51.765625 13.054688 Z M 51.28125 13.054688 "/>
<path style=" stroke:none;fill-rule:nonzero;fill:rgb(0%,0%,0%);fill-opacity:1;" d="M 52.582031 13.054688 L 52.582031 10.804688 C 52.582031 10.75 52.574219 10.6875 52.570312 10.621094 C 52.570312 10.558594 52.570312 10.5 52.570312 10.4375 C 52.570312 10.382812 52.566406 10.328125 52.558594 10.277344 C 52.558594 10.21875 52.558594 10.167969 52.558594 10.125 L 53.023438 10.125 C 53.023438 10.167969 53.023438 10.21875 53.023438 10.277344 C 53.027344 10.328125 53.035156 10.382812 53.035156 10.4375 C 53.035156 10.488281 53.035156 10.542969 53.035156 10.601562 C 53.039062 10.652344 53.046875 10.695312 53.046875 10.730469 L 53.054688 10.730469 C 53.082031 10.617188 53.117188 10.519531 53.152344 10.4375 C 53.195312 10.351562 53.242188 10.285156 53.292969 10.234375 C 53.351562 10.183594 53.414062 10.144531 53.488281 10.113281 C 53.558594 10.085938 53.644531 10.070312 53.746094 10.070312 C 53.78125 10.070312 53.816406 10.078125 53.855469 10.082031 C 53.890625 10.089844 53.921875 10.097656 53.941406 10.101562 L 53.941406 10.546875 C 53.910156 10.542969 53.875 10.535156 53.832031 10.535156 C 53.789062 10.53125 53.738281 10.523438 53.683594 10.523438 C 53.574219 10.523438 53.480469 10.550781 53.402344 10.601562 C 53.320312 10.652344 53.253906 10.71875 53.207031 10.804688 C 53.15625 10.894531 53.121094 11 53.097656 11.132812 C 53.078125 11.253906 53.066406 11.386719 53.066406 11.53125 L 53.066406 13.054688 Z M 52.582031 13.054688 "/>
<path style=" stroke:none;fill-rule:nonzero;fill:rgb(0%,0%,0%);fill-opacity:1;" d="M 55.230469 13.109375 C 54.933594 13.109375 54.714844 13.035156 54.5625 12.882812 C 54.417969 12.726562 54.347656 12.511719 54.347656 12.234375 C 54.347656 12.046875 54.382812 11.894531 54.453125 11.769531 C 54.523438 11.640625 54.621094 11.542969 54.734375 11.476562 C 54.855469 11.40625 54.996094 11.355469 55.144531 11.324219 C 55.296875 11.296875 55.449219 11.28125 55.609375 11.28125 L 56.257812 11.273438 L 56.257812 11.109375 C 56.257812 10.988281 56.242188 10.886719 56.214844 10.804688 C 56.191406 10.71875 56.15625 10.652344 56.105469 10.601562 C 56.054688 10.542969 55.992188 10.503906 55.914062 10.480469 C 55.832031 10.460938 55.738281 10.449219 55.632812 10.449219 C 55.539062 10.449219 55.449219 10.457031 55.371094 10.472656 C 55.300781 10.480469 55.234375 10.5 55.179688 10.535156 C 55.125 10.574219 55.082031 10.621094 55.046875 10.6875 C 55.011719 10.746094 54.988281 10.824219 54.984375 10.914062 L 54.476562 10.859375 C 54.488281 10.746094 54.523438 10.640625 54.574219 10.546875 C 54.621094 10.453125 54.695312 10.371094 54.789062 10.296875 C 54.882812 10.226562 54.996094 10.171875 55.136719 10.136719 C 55.277344 10.09375 55.449219 10.070312 55.640625 10.070312 C 56.007812 10.070312 56.285156 10.15625 56.472656 10.332031 C 56.660156 10.5 56.753906 10.738281 56.753906 11.054688 L 56.753906 12.320312 C 56.753906 12.46875 56.769531 12.574219 56.808594 12.644531 C 56.84375 12.71875 56.917969 12.753906 57.023438 12.753906 C 57.050781 12.753906 57.078125 12.753906 57.101562 12.753906 C 57.128906 12.75 57.15625 12.738281 57.1875 12.730469 L 57.1875 13.035156 C 57.121094 13.054688 57.058594 13.070312 57.003906 13.078125 C 56.945312 13.082031 56.878906 13.089844 56.808594 13.089844 C 56.714844 13.089844 56.636719 13.078125 56.570312 13.054688 C 56.507812 13.03125 56.453125 12.988281 56.410156 12.9375 C 56.371094 12.890625 56.34375 12.828125 56.324219 12.753906 C 56.300781 12.683594 56.285156 12.597656 56.28125 12.492188 L 56.257812 12.492188 C 56.207031 12.589844 56.148438 12.675781 56.085938 12.753906 C 56.027344 12.828125 55.957031 12.890625 55.871094 12.949219 C 55.789062 13 55.695312 13.039062 55.589844 13.066406 C 55.484375 13.09375 55.367188 13.109375 55.230469 13.109375 Z M 55.339844 12.742188 C 55.492188 12.742188 55.625 12.714844 55.738281 12.65625 C 55.859375 12.597656 55.957031 12.527344 56.03125 12.441406 C 56.109375 12.351562 56.167969 12.261719 56.203125 12.160156 C 56.238281 12.050781 56.257812 11.949219 56.257812 11.855469 L 56.257812 11.605469 L 55.730469 11.617188 C 55.613281 11.625 55.503906 11.636719 55.394531 11.648438 C 55.285156 11.667969 55.1875 11.695312 55.101562 11.738281 C 55.019531 11.78125 54.957031 11.84375 54.90625 11.929688 C 54.863281 12.011719 54.84375 12.117188 54.84375 12.246094 C 54.84375 12.40625 54.886719 12.527344 54.972656 12.613281 C 55.058594 12.699219 55.179688 12.742188 55.339844 12.742188 Z M 55.339844 12.742188 "/>
<path style=" stroke:none;fill-rule:nonzero;fill:rgb(0%,0%,0%);fill-opacity:1;" d="M 57.6875 13.054688 L 57.6875 9.042969 L 58.175781 9.042969 L 58.175781 13.054688 Z M 57.6875 13.054688 "/>
<path style=" stroke:none;fill-rule:nonzero;fill:rgb(0%,0%,0%);fill-opacity:1;" d="M 57.375 15.636719 C 57.160156 15.636719 56.96875 15.675781 56.804688 15.746094 C 56.636719 15.816406 56.496094 15.921875 56.382812 16.058594 C 56.273438 16.1875 56.191406 16.347656 56.132812 16.535156 C 56.074219 16.722656 56.046875 16.933594 56.046875 17.160156 C 56.046875 17.394531 56.074219 17.605469 56.132812 17.800781 C 56.199219 17.988281 56.289062 18.152344 56.402344 18.285156 C 56.515625 18.425781 56.65625 18.53125 56.824219 18.609375 C 56.996094 18.683594 57.1875 18.71875 57.398438 18.71875 C 57.546875 18.71875 57.679688 18.703125 57.796875 18.664062 C 57.917969 18.621094 58.027344 18.566406 58.132812 18.492188 C 58.230469 18.421875 58.316406 18.339844 58.390625 18.242188 C 58.46875 18.152344 58.535156 18.042969 58.597656 17.917969 L 59.015625 18.136719 C 58.953125 18.28125 58.867188 18.414062 58.769531 18.535156 C 58.667969 18.660156 58.546875 18.769531 58.414062 18.859375 C 58.273438 18.945312 58.121094 19.015625 57.949219 19.066406 C 57.773438 19.113281 57.582031 19.140625 57.375 19.140625 C 57.066406 19.140625 56.796875 19.09375 56.566406 19 C 56.332031 18.902344 56.140625 18.761719 55.984375 18.589844 C 55.832031 18.410156 55.714844 18.199219 55.636719 17.960938 C 55.554688 17.71875 55.519531 17.449219 55.519531 17.160156 C 55.519531 16.867188 55.554688 16.597656 55.636719 16.359375 C 55.722656 16.117188 55.84375 15.914062 56.003906 15.746094 C 56.160156 15.578125 56.355469 15.449219 56.585938 15.355469 C 56.816406 15.261719 57.078125 15.214844 57.375 15.214844 C 57.777344 15.214844 58.113281 15.296875 58.378906 15.453125 C 58.652344 15.613281 58.855469 15.851562 58.984375 16.167969 L 58.5 16.328125 C 58.460938 16.238281 58.414062 16.148438 58.347656 16.070312 C 58.289062 15.984375 58.210938 15.914062 58.121094 15.851562 C 58.027344 15.789062 57.917969 15.738281 57.796875 15.703125 C 57.671875 15.65625 57.53125 15.636719 57.375 15.636719 Z M 57.375 15.636719 "/>
<path style=" stroke:none;fill-rule:nonzero;fill:rgb(0%,0%,0%);fill-opacity:1;" d="M 60.0625 54.804688 C 60.0625 55.101562 60.019531 55.375 59.933594 55.617188 C 59.847656 55.863281 59.71875 56.070312 59.554688 56.246094 C 59.394531 56.417969 59.199219 56.554688 58.960938 56.644531 C 58.726562 56.738281 58.464844 56.785156 58.171875 56.785156 C 57.855469 56.785156 57.578125 56.738281 57.339844 56.644531 C 57.109375 56.542969 56.914062 56.40625 56.757812 56.234375 C 56.597656 56.054688 56.480469 55.84375 56.402344 55.605469 C 56.320312 55.363281 56.28125 55.09375 56.28125 54.804688 C 56.28125 54.511719 56.320312 54.242188 56.402344 54.003906 C 56.488281 53.761719 56.609375 53.554688 56.769531 53.390625 C 56.933594 53.222656 57.128906 53.09375 57.363281 53 C 57.601562 52.90625 57.871094 52.859375 58.171875 52.859375 C 58.476562 52.859375 58.746094 52.90625 58.980469 53 C 59.21875 53.09375 59.417969 53.226562 59.578125 53.398438 C 59.734375 53.566406 59.851562 53.765625 59.933594 54.003906 C 60.019531 54.242188 60.0625 54.511719 60.0625 54.804688 Z M 59.53125 54.804688 C 59.53125 54.574219 59.503906 54.367188 59.445312 54.179688 C 59.386719 53.992188 59.300781 53.832031 59.1875 53.703125 C 59.070312 53.566406 58.929688 53.460938 58.753906 53.390625 C 58.589844 53.320312 58.394531 53.28125 58.171875 53.28125 C 57.949219 53.28125 57.75 53.320312 57.578125 53.390625 C 57.40625 53.460938 57.257812 53.566406 57.144531 53.703125 C 57.039062 53.832031 56.953125 53.992188 56.898438 54.179688 C 56.839844 54.367188 56.8125 54.574219 56.8125 54.804688 C 56.8125 55.039062 56.839844 55.25 56.898438 55.445312 C 56.953125 55.632812 57.039062 55.796875 57.15625 55.929688 C 57.269531 56.070312 57.410156 56.175781 57.578125 56.253906 C 57.75 56.328125 57.949219 56.363281 58.171875 56.363281 C 58.410156 56.363281 58.613281 56.328125 58.789062 56.253906 C 58.960938 56.175781 59.101562 56.070312 59.210938 55.929688 C 59.316406 55.789062 59.394531 55.621094 59.445312 55.433594 C 59.503906 55.238281 59.53125 55.03125 59.53125 54.804688 Z M 59.53125 54.804688 "/>
<path style="fill:none;stroke-width:0.0333333;stroke-linecap:butt;stroke-linejoin:miter;stroke:rgb(0%,0%,0%);stroke-opacity:1;stroke-miterlimit:10;" d="M 1.537913 0.610594 L 0.55657 0.317643 " transform="matrix(17.279412,0,0,17.307692,17.164046,17.178117)"/>
<path style="fill:none;stroke-width:0.0333333;stroke-linecap:butt;stroke-linejoin:miter;stroke:rgb(0%,0%,0%);stroke-opacity:1;stroke-miterlimit:10;" d="M 0.574881 0.311098 L -0.00700703 1.153841 " transform="matrix(17.279412,0,0,17.307692,17.164046,17.178117)"/>
<path style="fill:none;stroke-width:0.0333333;stroke-linecap:butt;stroke-linejoin:miter;stroke:rgb(0%,0%,0%);stroke-opacity:1;stroke-miterlimit:10;" d="M 0.643153 0.505421 L 0.198937 1.149101 " transform="matrix(17.279412,0,0,17.307692,17.164046,17.178117)"/>
<path style="fill:none;stroke-width:0.0333333;stroke-linecap:butt;stroke-linejoin:miter;stroke:rgb(0%,0%,0%);stroke-opacity:1;stroke-miterlimit:10;" d="M -0.00745916 1.134431 L 0.614442 1.948285 " transform="matrix(17.279412,0,0,17.307692,17.164046,17.178117)"/>
<path style="fill:none;stroke-width:0.0333333;stroke-linecap:butt;stroke-linejoin:miter;stroke:rgb(0%,0%,0%);stroke-opacity:1;stroke-miterlimit:10;" d="M 0.595679 1.942643 L 1.561876 1.602747 " transform="matrix(17.279412,0,0,17.307692,17.164046,17.178117)"/>
<path style="fill:none;stroke-width:0.0333333;stroke-linecap:butt;stroke-linejoin:miter;stroke:rgb(0%,0%,0%);stroke-opacity:1;stroke-miterlimit:10;" d="M 1.526158 0.595021 L 1.550799 1.618997 " transform="matrix(17.279412,0,0,17.307692,17.164046,17.178117)"/>
<path style=" stroke:none;fill-rule:nonzero;fill:rgb(0%,0%,0%);fill-opacity:1;" d="M 43.539062 27.683594 L 55.605469 20.992188 L 53.160156 17.78125 "/>
<path style=" stroke:none;fill-rule:nonzero;fill:rgb(0%,0%,0%);fill-opacity:1;" d="M 43.953125 44.988281 L 53.976562 54.375 L 56.265625 51.050781 "/>
</g>
</svg>
