<?xml version="1.0" encoding="UTF-8"?>
<svg xmlns="http://www.w3.org/2000/svg" xmlns:xlink="http://www.w3.org/1999/xlink" width="94.4pt" height="85.6pt" viewBox="0 0 94.4 85.6" version="1.1">
<g id="surface772">
<path style=" stroke:none;fill-rule:nonzero;fill:rgb(0%,0%,0%);fill-opacity:1;" d="M 64.125 16.898438 C 64.125 17.191406 64.082031 17.464844 63.996094 17.707031 C 63.90625 17.949219 63.78125 18.160156 63.613281 18.332031 C 63.453125 18.503906 63.257812 18.640625 63.019531 18.730469 C 62.785156 18.820312 62.523438 18.871094 62.226562 18.871094 C 61.90625 18.871094 61.628906 18.820312 61.390625 18.730469 C 61.160156 18.628906 60.964844 18.492188 60.804688 18.320312 C 60.644531 18.140625 60.527344 17.933594 60.449219 17.695312 C 60.367188 17.453125 60.328125 17.183594 60.328125 16.898438 C 60.328125 16.601562 60.367188 16.335938 60.449219 16.097656 C 60.535156 15.855469 60.65625 15.652344 60.816406 15.484375 C 60.980469 15.320312 61.179688 15.191406 61.414062 15.09375 C 61.652344 15.003906 61.921875 14.957031 62.226562 14.957031 C 62.53125 14.957031 62.800781 15.003906 63.039062 15.09375 C 63.277344 15.191406 63.476562 15.320312 63.636719 15.496094 C 63.792969 15.660156 63.914062 15.859375 63.996094 16.097656 C 64.082031 16.335938 64.125 16.601562 64.125 16.898438 Z M 63.59375 16.898438 C 63.59375 16.667969 63.5625 16.460938 63.507812 16.269531 C 63.445312 16.085938 63.359375 15.925781 63.246094 15.796875 C 63.128906 15.660156 62.984375 15.554688 62.8125 15.484375 C 62.644531 15.414062 62.449219 15.375 62.226562 15.375 C 62 15.375 61.804688 15.414062 61.628906 15.484375 C 61.457031 15.554688 61.308594 15.660156 61.195312 15.796875 C 61.085938 15.925781 61.003906 16.085938 60.945312 16.269531 C 60.886719 16.460938 60.859375 16.667969 60.859375 16.898438 C 60.859375 17.128906 60.886719 17.339844 60.945312 17.53125 C 61.003906 17.722656 61.089844 17.882812 61.207031 18.019531 C 61.320312 18.15625 61.460938 18.265625 61.628906 18.34375 C 61.804688 18.414062 62 18.449219 62.226562 18.449219 C 62.464844 18.449219 62.671875 18.414062 62.84375 18.34375 C 63.019531 18.265625 63.160156 18.15625 63.269531 18.019531 C 63.375 17.875 63.453125 17.710938 63.507812 17.523438 C 63.5625 17.328125 63.59375 17.121094 63.59375 16.898438 Z M 63.59375 16.898438 "/>
<path style=" stroke:none;fill-rule:nonzero;fill:rgb(0%,0%,0%);fill-opacity:1;" d="M 79.152344 42.785156 C 79.152344 43.082031 79.109375 43.351562 79.023438 43.59375 C 78.9375 43.839844 78.808594 44.046875 78.644531 44.21875 C 78.484375 44.390625 78.285156 44.527344 78.046875 44.617188 C 77.8125 44.710938 77.550781 44.757812 77.253906 44.757812 C 76.9375 44.757812 76.660156 44.710938 76.421875 44.617188 C 76.1875 44.519531 75.992188 44.378906 75.835938 44.207031 C 75.675781 44.03125 75.554688 43.820312 75.476562 43.582031 C 75.394531 43.339844 75.359375 43.074219 75.359375 42.785156 C 75.359375 42.488281 75.394531 42.222656 75.476562 41.984375 C 75.5625 41.742188 75.6875 41.539062 75.847656 41.371094 C 76.011719 41.207031 76.210938 41.078125 76.441406 40.984375 C 76.679688 40.890625 76.953125 40.84375 77.253906 40.84375 C 77.558594 40.84375 77.832031 40.890625 78.070312 40.984375 C 78.308594 41.078125 78.503906 41.210938 78.664062 41.382812 C 78.824219 41.546875 78.941406 41.75 79.023438 41.984375 C 79.109375 42.222656 79.152344 42.488281 79.152344 42.785156 Z M 78.621094 42.785156 C 78.621094 42.554688 78.59375 42.347656 78.535156 42.160156 C 78.476562 41.972656 78.390625 41.8125 78.273438 41.683594 C 78.160156 41.546875 78.015625 41.445312 77.839844 41.371094 C 77.671875 41.300781 77.476562 41.261719 77.253906 41.261719 C 77.03125 41.261719 76.832031 41.300781 76.660156 41.371094 C 76.484375 41.445312 76.339844 41.546875 76.226562 41.683594 C 76.117188 41.8125 76.03125 41.972656 75.976562 42.160156 C 75.917969 42.347656 75.890625 42.554688 75.890625 42.785156 C 75.890625 43.015625 75.917969 43.226562 75.976562 43.421875 C 76.03125 43.609375 76.121094 43.769531 76.238281 43.90625 C 76.351562 44.042969 76.492188 44.152344 76.660156 44.230469 C 76.832031 44.300781 77.03125 44.335938 77.253906 44.335938 C 77.496094 44.335938 77.699219 44.300781 77.875 44.230469 C 78.046875 44.152344 78.1875 44.042969 78.296875 43.90625 C 78.40625 43.761719 78.484375 43.597656 78.535156 43.410156 C 78.59375 43.214844 78.621094 43.007812 78.621094 42.785156 Z M 78.621094 42.785156 "/>
<path style="fill:none;stroke-width:0.0333333;stroke-linecap:butt;stroke-linejoin:miter;stroke:rgb(0%,0%,0%);stroke-opacity:1;stroke-miterlimit:10;" d="M 0.874312 0.99503 L -0.00832818 1.504755 " transform="matrix(17.352941,0,0,17.258065,17.144518,16.913651)"/>
<path style="fill:none;stroke-width:0.0333333;stroke-linecap:butt;stroke-linejoin:miter;stroke:rgb(0%,0%,0%);stroke-opacity:1;stroke-miterlimit:10;" d="M 0.857654 0.99503 L 1.731966 1.499776 " transform="matrix(17.352941,0,0,17.258065,17.144518,16.913651)"/>
<path style="fill:none;stroke-width:0.0333333;stroke-linecap:butt;stroke-linejoin:miter;stroke:rgb(0%,0%,0%);stroke-opacity:1;stroke-miterlimit:10;" d="M 0.857654 1.187422 L 1.565387 1.595972 " transform="matrix(17.352941,0,0,17.258065,17.144518,16.913651)"/>
<path style="fill:none;stroke-width:0.0333333;stroke-linecap:butt;stroke-linejoin:miter;stroke:rgb(0%,0%,0%);stroke-opacity:1;stroke-miterlimit:10;" d="M 0.000000736441 1.490269 L 0.000000736441 2.509494 " transform="matrix(17.352941,0,0,17.258065,17.144518,16.913651)"/>
<path style="fill:none;stroke-width:0.0333333;stroke-linecap:butt;stroke-linejoin:miter;stroke:rgb(0%,0%,0%);stroke-opacity:1;stroke-miterlimit:10;" d="M 0.166804 1.586465 L 0.166804 2.413298 " transform="matrix(17.352941,0,0,17.258065,17.144518,16.913651)"/>
<path style="fill:none;stroke-width:0.0333333;stroke-linecap:butt;stroke-linejoin:miter;stroke:rgb(0%,0%,0%);stroke-opacity:1;stroke-miterlimit:10;" d="M -0.00832818 2.495008 L 0.874312 3.004733 " transform="matrix(17.352941,0,0,17.258065,17.144518,16.913651)"/>
<path style="fill:none;stroke-width:0.0333333;stroke-linecap:butt;stroke-linejoin:miter;stroke:rgb(0%,0%,0%);stroke-opacity:1;stroke-miterlimit:10;" d="M 0.857654 3.004733 L 1.74052 2.495008 " transform="matrix(17.352941,0,0,17.258065,17.144518,16.913651)"/>
<path style="fill:none;stroke-width:0.0333333;stroke-linecap:butt;stroke-linejoin:miter;stroke:rgb(0%,0%,0%);stroke-opacity:1;stroke-miterlimit:10;" d="M 0.857654 2.812341 L 1.573716 2.398812 " transform="matrix(17.352941,0,0,17.258065,17.144518,16.913651)"/>
<path style="fill:none;stroke-width:0.0333333;stroke-linecap:butt;stroke-linejoin:miter;stroke:rgb(0%,0%,0%);stroke-opacity:1;stroke-miterlimit:10;" d="M 1.731966 2.509494 L 1.731966 1.490269 " transform="matrix(17.352941,0,0,17.258065,17.144518,16.913651)"/>
<path style="fill:none;stroke-width:0.0333333;stroke-linecap:butt;stroke-linejoin:miter;stroke:rgb(0%,0%,0%);stroke-opacity:1;stroke-miterlimit:10;" d="M 1.723637 1.504755 L 2.606277 0.99503 " transform="matrix(17.352941,0,0,17.258065,17.144518,16.913651)"/>
<path style="fill:none;stroke-width:0.0333333;stroke-linecap:butt;stroke-linejoin:miter;stroke:rgb(0%,0%,0%);stroke-opacity:1;stroke-miterlimit:10;" d="M 2.597948 1.009742 L 2.597948 0.15688 " transform="matrix(17.352941,0,0,17.258065,17.144518,16.913651)"/>
<path style="fill:none;stroke-width:0.0333333;stroke-linecap:butt;stroke-linejoin:miter;stroke:rgb(0%,0%,0%);stroke-opacity:1;stroke-miterlimit:10;" d="M 2.514659 1.047994 L 3.23995 1.466729 " transform="matrix(17.352941,0,0,17.258065,17.144518,16.913651)"/>
<path style="fill:none;stroke-width:0.0333333;stroke-linecap:butt;stroke-linejoin:miter;stroke:rgb(0%,0%,0%);stroke-opacity:1;stroke-miterlimit:10;" d="M 2.597948 0.903813 L 3.32324 1.322549 " transform="matrix(17.352941,0,0,17.258065,17.144518,16.913651)"/>
</g>
</svg>
