<?xml version="1.0" encoding="UTF-8"?>
<svg xmlns="http://www.w3.org/2000/svg" xmlns:xlink="http://www.w3.org/1999/xlink" width="62.4pt" height="60.8pt" viewBox="0 0 62.4 60.8" version="1.1">
<g id="surface927">
<path style=" stroke:none;fill-rule:nonzero;fill:rgb(0%,0%,47.058824%);fill-opacity:1;" d="M 31.171875 18.441406 C 31.324219 18.441406 31.453125 18.417969 31.5625 18.375 C 31.667969 18.332031 31.761719 18.28125 31.839844 18.214844 C 31.917969 18.144531 31.984375 18.0625 32.035156 17.976562 C 32.09375 17.890625 32.136719 17.804688 32.175781 17.71875 L 32.867188 17.976562 C 32.804688 18.113281 32.730469 18.253906 32.640625 18.386719 C 32.554688 18.515625 32.441406 18.632812 32.304688 18.734375 C 32.175781 18.835938 32.015625 18.917969 31.832031 18.980469 C 31.640625 19.039062 31.421875 19.066406 31.171875 19.066406 C 30.839844 19.066406 30.550781 19.019531 30.308594 18.925781 C 30.074219 18.828125 29.871094 18.691406 29.714844 18.515625 C 29.558594 18.339844 29.4375 18.128906 29.359375 17.890625 C 29.289062 17.648438 29.253906 17.378906 29.253906 17.09375 C 29.253906 16.796875 29.289062 16.53125 29.359375 16.292969 C 29.4375 16.050781 29.554688 15.84375 29.707031 15.675781 C 29.863281 15.511719 30.0625 15.382812 30.300781 15.289062 C 30.535156 15.199219 30.816406 15.148438 31.140625 15.148438 C 31.382812 15.148438 31.597656 15.179688 31.789062 15.234375 C 31.972656 15.285156 32.136719 15.359375 32.273438 15.449219 C 32.40625 15.546875 32.519531 15.65625 32.605469 15.785156 C 32.691406 15.914062 32.761719 16.054688 32.8125 16.207031 L 32.109375 16.402344 C 32.089844 16.324219 32.046875 16.246094 31.992188 16.175781 C 31.941406 16.097656 31.875 16.027344 31.796875 15.96875 C 31.71875 15.914062 31.625 15.867188 31.519531 15.828125 C 31.410156 15.792969 31.285156 15.773438 31.152344 15.773438 C 30.957031 15.773438 30.789062 15.808594 30.65625 15.871094 C 30.515625 15.9375 30.402344 16.027344 30.308594 16.140625 C 30.222656 16.257812 30.160156 16.394531 30.117188 16.550781 C 30.074219 16.710938 30.050781 16.890625 30.050781 17.09375 C 30.050781 17.292969 30.074219 17.476562 30.117188 17.640625 C 30.160156 17.800781 30.222656 17.941406 30.308594 18.0625 C 30.402344 18.179688 30.515625 18.273438 30.65625 18.34375 C 30.796875 18.410156 30.96875 18.441406 31.171875 18.441406 Z M 31.171875 18.441406 "/>
<path style=" stroke:none;fill-rule:nonzero;fill:rgb(0%,0%,47.058824%);fill-opacity:1;" d="M 33.730469 14.945312 L 34.304688 14.945312 C 34.304688 15.710938 33.15625 15.710938 33.15625 14.945312 C 33.15625 14.175781 34.304688 14.175781 34.304688 14.945312 "/>
<path style=" stroke:none;fill-rule:nonzero;fill:rgb(0%,0%,47.058824%);fill-opacity:1;" d="M 17.214844 28.59375 C 17.363281 28.59375 17.492188 28.574219 17.601562 28.53125 C 17.710938 28.488281 17.800781 28.433594 17.882812 28.367188 C 17.960938 28.296875 18.023438 28.214844 18.078125 28.128906 C 18.132812 28.042969 18.179688 27.957031 18.214844 27.871094 L 18.90625 28.128906 C 18.847656 28.269531 18.773438 28.40625 18.679688 28.539062 C 18.59375 28.671875 18.480469 28.785156 18.347656 28.886719 C 18.214844 28.988281 18.058594 29.070312 17.871094 29.132812 C 17.683594 29.191406 17.464844 29.21875 17.214844 29.21875 C 16.882812 29.21875 16.59375 29.171875 16.351562 29.082031 C 16.113281 28.980469 15.914062 28.84375 15.757812 28.671875 C 15.597656 28.492188 15.480469 28.28125 15.402344 28.042969 C 15.328125 27.800781 15.292969 27.535156 15.292969 27.246094 C 15.292969 26.949219 15.328125 26.683594 15.402344 26.445312 C 15.480469 26.203125 15.59375 26 15.746094 25.832031 C 15.902344 25.667969 16.101562 25.535156 16.339844 25.441406 C 16.578125 25.351562 16.859375 25.300781 17.179688 25.300781 C 17.421875 25.300781 17.640625 25.332031 17.828125 25.386719 C 18.015625 25.441406 18.175781 25.511719 18.3125 25.605469 C 18.449219 25.699219 18.5625 25.808594 18.648438 25.9375 C 18.734375 26.066406 18.800781 26.207031 18.851562 26.359375 L 18.152344 26.554688 C 18.128906 26.476562 18.089844 26.398438 18.03125 26.328125 C 17.980469 26.25 17.917969 26.183594 17.839844 26.121094 C 17.757812 26.066406 17.667969 26.019531 17.558594 25.980469 C 17.449219 25.945312 17.328125 25.929688 17.191406 25.929688 C 16.996094 25.929688 16.832031 25.960938 16.695312 26.023438 C 16.558594 26.089844 16.441406 26.183594 16.351562 26.296875 C 16.265625 26.410156 16.199219 26.546875 16.15625 26.707031 C 16.113281 26.863281 16.09375 27.046875 16.09375 27.246094 C 16.09375 27.449219 16.113281 27.632812 16.15625 27.796875 C 16.199219 27.953125 16.265625 28.09375 16.351562 28.214844 C 16.441406 28.332031 16.558594 28.425781 16.695312 28.496094 C 16.839844 28.5625 17.011719 28.59375 17.214844 28.59375 Z M 17.214844 28.59375 "/>
<path style=" stroke:none;fill-rule:nonzero;fill:rgb(0%,0%,47.058824%);fill-opacity:1;" d="M 19.769531 25.09375 L 20.34375 25.09375 C 20.34375 25.863281 19.195312 25.863281 19.195312 25.09375 C 19.195312 24.328125 20.34375 24.328125 20.34375 25.09375 "/>
<path style=" stroke:none;fill-rule:nonzero;fill:rgb(0%,0%,0%);fill-opacity:1;" d="M 22.539062 42.152344 C 22.324219 42.152344 22.132812 42.1875 21.96875 42.257812 C 21.800781 42.332031 21.660156 42.4375 21.546875 42.570312 C 21.4375 42.703125 21.355469 42.859375 21.296875 43.046875 C 21.238281 43.234375 21.210938 43.445312 21.210938 43.671875 C 21.210938 43.90625 21.238281 44.117188 21.296875 44.308594 C 21.363281 44.5 21.453125 44.660156 21.566406 44.796875 C 21.679688 44.933594 21.820312 45.042969 21.988281 45.121094 C 22.160156 45.191406 22.351562 45.226562 22.558594 45.226562 C 22.710938 45.226562 22.84375 45.210938 22.960938 45.171875 C 23.082031 45.128906 23.191406 45.074219 23.292969 45 C 23.394531 44.929688 23.480469 44.847656 23.550781 44.753906 C 23.628906 44.660156 23.699219 44.554688 23.757812 44.429688 L 24.179688 44.644531 C 24.113281 44.789062 24.03125 44.921875 23.929688 45.042969 C 23.828125 45.167969 23.710938 45.277344 23.574219 45.367188 C 23.4375 45.453125 23.28125 45.523438 23.109375 45.574219 C 22.9375 45.621094 22.746094 45.648438 22.539062 45.648438 C 22.230469 45.648438 21.960938 45.601562 21.730469 45.507812 C 21.496094 45.410156 21.304688 45.269531 21.148438 45.097656 C 20.996094 44.917969 20.878906 44.710938 20.800781 44.472656 C 20.722656 44.230469 20.683594 43.960938 20.683594 43.671875 C 20.683594 43.378906 20.722656 43.113281 20.800781 42.875 C 20.886719 42.632812 21.011719 42.425781 21.167969 42.257812 C 21.324219 42.09375 21.519531 41.964844 21.75 41.871094 C 21.980469 41.777344 22.242188 41.730469 22.539062 41.730469 C 22.941406 41.730469 23.273438 41.8125 23.542969 41.96875 C 23.8125 42.125 24.015625 42.363281 24.144531 42.679688 L 23.660156 42.839844 C 23.621094 42.75 23.574219 42.664062 23.507812 42.582031 C 23.449219 42.496094 23.375 42.425781 23.28125 42.367188 C 23.1875 42.300781 23.082031 42.253906 22.960938 42.214844 C 22.835938 42.171875 22.695312 42.152344 22.539062 42.152344 Z M 22.539062 42.152344 "/>
<path style=" stroke:none;fill-rule:nonzero;fill:rgb(0%,0%,0%);fill-opacity:1;" d="M 25.042969 41.523438 L 25.617188 41.523438 C 25.617188 42.292969 24.464844 42.292969 24.464844 41.523438 C 24.464844 40.753906 25.617188 40.753906 25.617188 41.523438 "/>
<path style=" stroke:none;fill-rule:nonzero;fill:rgb(0%,0%,0%);fill-opacity:1;" d="M 39.796875 42.152344 C 39.578125 42.152344 39.386719 42.1875 39.222656 42.257812 C 39.054688 42.332031 38.917969 42.4375 38.804688 42.570312 C 38.695312 42.703125 38.613281 42.859375 38.554688 43.046875 C 38.496094 43.234375 38.46875 43.445312 38.46875 43.671875 C 38.46875 43.90625 38.496094 44.117188 38.554688 44.308594 C 38.621094 44.5 38.707031 44.660156 38.824219 44.796875 C 38.9375 44.933594 39.078125 45.042969 39.246094 45.121094 C 39.417969 45.191406 39.605469 45.226562 39.816406 45.226562 C 39.96875 45.226562 40.101562 45.210938 40.214844 45.171875 C 40.335938 45.128906 40.449219 45.074219 40.550781 45 C 40.648438 44.929688 40.738281 44.847656 40.808594 44.753906 C 40.886719 44.660156 40.953125 44.554688 41.015625 44.429688 L 41.433594 44.644531 C 41.371094 44.789062 41.285156 44.921875 41.1875 45.042969 C 41.085938 45.167969 40.964844 45.277344 40.832031 45.367188 C 40.691406 45.453125 40.539062 45.523438 40.367188 45.574219 C 40.195312 45.621094 40.003906 45.648438 39.796875 45.648438 C 39.484375 45.648438 39.214844 45.601562 38.988281 45.507812 C 38.753906 45.410156 38.558594 45.269531 38.402344 45.097656 C 38.253906 44.917969 38.136719 44.710938 38.058594 44.472656 C 37.976562 44.230469 37.941406 43.960938 37.941406 43.671875 C 37.941406 43.378906 37.976562 43.113281 38.058594 42.875 C 38.144531 42.632812 38.265625 42.425781 38.425781 42.257812 C 38.582031 42.09375 38.777344 41.964844 39.007812 41.871094 C 39.238281 41.777344 39.5 41.730469 39.796875 41.730469 C 40.195312 41.730469 40.53125 41.8125 40.796875 41.96875 C 41.070312 42.125 41.273438 42.363281 41.402344 42.679688 L 40.917969 42.839844 C 40.878906 42.75 40.832031 42.664062 40.765625 42.582031 C 40.707031 42.496094 40.632812 42.425781 40.539062 42.367188 C 40.445312 42.300781 40.335938 42.253906 40.214844 42.214844 C 40.09375 42.171875 39.953125 42.152344 39.796875 42.152344 Z M 39.796875 42.152344 "/>
<path style=" stroke:none;fill-rule:nonzero;fill:rgb(0%,0%,0%);fill-opacity:1;" d="M 42.300781 41.523438 L 42.875 41.523438 C 42.875 42.292969 41.722656 42.292969 41.722656 41.523438 C 41.722656 40.753906 42.875 40.753906 42.875 41.523438 "/>
<path style=" stroke:none;fill-rule:nonzero;fill:rgb(0%,0%,47.058824%);fill-opacity:1;" d="M 45.136719 28.59375 C 45.289062 28.59375 45.417969 28.574219 45.523438 28.53125 C 45.632812 28.488281 45.726562 28.433594 45.804688 28.367188 C 45.882812 28.296875 45.949219 28.214844 46 28.128906 C 46.054688 28.042969 46.101562 27.957031 46.140625 27.871094 L 46.832031 28.128906 C 46.769531 28.269531 46.695312 28.40625 46.605469 28.539062 C 46.515625 28.671875 46.402344 28.785156 46.269531 28.886719 C 46.140625 28.988281 45.980469 29.070312 45.792969 29.132812 C 45.605469 29.191406 45.386719 29.21875 45.136719 29.21875 C 44.804688 29.21875 44.515625 29.171875 44.273438 29.082031 C 44.035156 28.980469 43.835938 28.84375 43.679688 28.671875 C 43.523438 28.492188 43.402344 28.28125 43.324219 28.042969 C 43.253906 27.800781 43.21875 27.535156 43.21875 27.246094 C 43.21875 26.949219 43.253906 26.683594 43.324219 26.445312 C 43.402344 26.203125 43.519531 26 43.671875 25.832031 C 43.828125 25.667969 44.027344 25.535156 44.261719 25.441406 C 44.5 25.351562 44.78125 25.300781 45.105469 25.300781 C 45.347656 25.300781 45.5625 25.332031 45.75 25.386719 C 45.9375 25.441406 46.097656 25.511719 46.238281 25.605469 C 46.371094 25.699219 46.484375 25.808594 46.570312 25.9375 C 46.65625 26.066406 46.726562 26.207031 46.777344 26.359375 L 46.074219 26.554688 C 46.054688 26.476562 46.011719 26.398438 45.957031 26.328125 C 45.90625 26.25 45.839844 26.183594 45.761719 26.121094 C 45.679688 26.066406 45.589844 26.019531 45.480469 25.980469 C 45.375 25.945312 45.25 25.929688 45.117188 25.929688 C 44.921875 25.929688 44.753906 25.960938 44.621094 26.023438 C 44.480469 26.089844 44.367188 26.183594 44.273438 26.296875 C 44.1875 26.410156 44.125 26.546875 44.078125 26.707031 C 44.035156 26.863281 44.015625 27.046875 44.015625 27.246094 C 44.015625 27.449219 44.035156 27.632812 44.078125 27.796875 C 44.125 27.953125 44.1875 28.09375 44.273438 28.214844 C 44.367188 28.332031 44.480469 28.425781 44.621094 28.496094 C 44.761719 28.5625 44.933594 28.59375 45.136719 28.59375 Z M 45.136719 28.59375 "/>
<path style=" stroke:none;fill-rule:nonzero;fill:rgb(0%,0%,47.058824%);fill-opacity:1;" d="M 47.691406 25.09375 L 48.265625 25.09375 C 48.265625 25.863281 47.117188 25.863281 47.117188 25.09375 C 47.117188 24.328125 48.265625 24.328125 48.265625 25.09375 "/>
<path style="fill:none;stroke-width:0.06;stroke-linecap:butt;stroke-linejoin:miter;stroke:rgb(0%,0%,47.058824%);stroke-opacity:1;stroke-miterlimit:10;" d="M 0.637488 0.124554 L 0.247466 0.407922 " transform="matrix(17.256637,0,0,17.272727,17.10066,17.110329)"/>
<path style="fill:none;stroke-width:0.0333333;stroke-linecap:butt;stroke-linejoin:miter;stroke:rgb(0%,0%,0%);stroke-opacity:1;stroke-miterlimit:10;" d="M 0.0600383 0.77293 L 0.249051 1.354591 " transform="matrix(17.256637,0,0,17.272727,17.10066,17.110329)"/>
<path style="fill:none;stroke-width:0.0333333;stroke-linecap:butt;stroke-linejoin:miter;stroke:rgb(0%,0%,0%);stroke-opacity:1;stroke-miterlimit:10;" d="M 0.536757 1.538678 L 1.164459 1.538678 " transform="matrix(17.256637,0,0,17.272727,17.10066,17.110329)"/>
<path style="fill:none;stroke-width:0.0333333;stroke-linecap:butt;stroke-linejoin:miter;stroke:rgb(0%,0%,0%);stroke-opacity:1;stroke-miterlimit:10;" d="M 1.38471 1.305742 L 1.557877 0.77293 " transform="matrix(17.256637,0,0,17.272727,17.10066,17.110329)"/>
<path style="fill:none;stroke-width:0.06;stroke-linecap:butt;stroke-linejoin:miter;stroke:rgb(0%,0%,47.058824%);stroke-opacity:1;stroke-miterlimit:10;" d="M 0.980427 0.124554 L 1.446733 0.463103 " transform="matrix(17.256637,0,0,17.272727,17.10066,17.110329)"/>
</g>
</svg>
