<?xml version="1.0" encoding="UTF-8"?>
<svg xmlns="http://www.w3.org/2000/svg" xmlns:xlink="http://www.w3.org/1999/xlink" width="94.4pt" height="68.8pt" viewBox="0 0 94.4 68.8" version="1.1">
<g id="surface357">
<path style=" stroke:none;fill-rule:nonzero;fill:rgb(0%,0%,47.058824%);fill-opacity:1;" d="M 61.855469 35.199219 C 61.855469 35.371094 61.824219 35.53125 61.761719 35.675781 C 61.695312 35.820312 61.59375 35.941406 61.457031 36.039062 C 61.328125 36.140625 61.160156 36.21875 60.953125 36.277344 C 60.75 36.324219 60.507812 36.351562 60.230469 36.351562 C 59.976562 36.351562 59.753906 36.328125 59.5625 36.285156 C 59.367188 36.238281 59.199219 36.167969 59.066406 36.082031 C 58.925781 35.996094 58.816406 35.890625 58.730469 35.761719 C 58.644531 35.632812 58.582031 35.480469 58.546875 35.308594 L 59.3125 35.179688 C 59.335938 35.265625 59.367188 35.347656 59.410156 35.414062 C 59.453125 35.488281 59.507812 35.550781 59.582031 35.597656 C 59.652344 35.648438 59.742188 35.691406 59.851562 35.71875 C 59.960938 35.746094 60.089844 35.761719 60.25 35.761719 C 60.515625 35.761719 60.71875 35.722656 60.867188 35.640625 C 61.007812 35.554688 61.082031 35.425781 61.082031 35.253906 C 61.082031 35.148438 61.050781 35.0625 60.996094 34.996094 C 60.933594 34.933594 60.855469 34.878906 60.757812 34.835938 C 60.664062 34.792969 60.554688 34.757812 60.433594 34.726562 C 60.308594 34.699219 60.179688 34.671875 60.046875 34.640625 C 59.9375 34.613281 59.832031 34.589844 59.722656 34.566406 C 59.613281 34.539062 59.507812 34.507812 59.410156 34.46875 C 59.316406 34.425781 59.226562 34.382812 59.140625 34.332031 C 59.054688 34.28125 58.976562 34.21875 58.914062 34.148438 C 58.855469 34.070312 58.808594 33.980469 58.773438 33.878906 C 58.734375 33.769531 58.71875 33.648438 58.71875 33.511719 C 58.71875 33.328125 58.753906 33.167969 58.828125 33.03125 C 58.90625 32.894531 59.011719 32.78125 59.152344 32.695312 C 59.285156 32.609375 59.445312 32.550781 59.625 32.511719 C 59.8125 32.46875 60.015625 32.449219 60.238281 32.449219 C 60.484375 32.449219 60.691406 32.46875 60.867188 32.511719 C 61.042969 32.550781 61.195312 32.609375 61.316406 32.683594 C 61.441406 32.765625 61.535156 32.867188 61.597656 32.988281 C 61.667969 33.101562 61.71875 33.242188 61.75 33.40625 L 60.984375 33.503906 C 60.941406 33.347656 60.855469 33.226562 60.734375 33.148438 C 60.621094 33.0625 60.449219 33.019531 60.21875 33.019531 C 60.082031 33.019531 59.964844 33.03125 59.875 33.050781 C 59.777344 33.074219 59.703125 33.105469 59.648438 33.148438 C 59.597656 33.191406 59.554688 33.242188 59.527344 33.296875 C 59.507812 33.347656 59.496094 33.40625 59.496094 33.46875 C 59.496094 33.5625 59.515625 33.640625 59.5625 33.695312 C 59.609375 33.753906 59.675781 33.804688 59.753906 33.847656 C 59.832031 33.890625 59.925781 33.925781 60.035156 33.953125 C 60.148438 33.976562 60.273438 34.003906 60.414062 34.027344 C 60.535156 34.058594 60.652344 34.089844 60.769531 34.113281 C 60.882812 34.144531 60.996094 34.175781 61.101562 34.210938 C 61.210938 34.25 61.308594 34.296875 61.394531 34.351562 C 61.484375 34.402344 61.566406 34.46875 61.628906 34.546875 C 61.699219 34.625 61.753906 34.71875 61.792969 34.824219 C 61.835938 34.933594 61.855469 35.058594 61.855469 35.199219 Z M 61.855469 35.199219 "/>
<path style=" stroke:none;fill-rule:nonzero;fill:rgb(0%,0%,0%);fill-opacity:1;" d="M 77.5625 32.867188 C 77.347656 32.867188 77.15625 32.90625 76.988281 32.976562 C 76.824219 33.046875 76.683594 33.152344 76.570312 33.289062 C 76.460938 33.417969 76.378906 33.574219 76.320312 33.761719 C 76.261719 33.949219 76.234375 34.15625 76.234375 34.382812 C 76.234375 34.613281 76.261719 34.824219 76.320312 35.019531 C 76.386719 35.207031 76.476562 35.367188 76.589844 35.5 C 76.703125 35.640625 76.84375 35.746094 77.011719 35.824219 C 77.183594 35.898438 77.371094 35.933594 77.582031 35.933594 C 77.734375 35.933594 77.867188 35.914062 77.980469 35.878906 C 78.101562 35.835938 78.214844 35.777344 78.316406 35.707031 C 78.414062 35.636719 78.503906 35.554688 78.574219 35.457031 C 78.652344 35.367188 78.71875 35.261719 78.78125 35.136719 L 79.199219 35.351562 C 79.136719 35.496094 79.050781 35.628906 78.953125 35.75 C 78.851562 35.871094 78.730469 35.980469 78.597656 36.070312 C 78.460938 36.15625 78.304688 36.226562 78.132812 36.277344 C 77.960938 36.324219 77.769531 36.351562 77.5625 36.351562 C 77.25 36.351562 76.980469 36.304688 76.753906 36.210938 C 76.519531 36.113281 76.328125 35.976562 76.171875 35.804688 C 76.019531 35.625 75.902344 35.414062 75.824219 35.179688 C 75.746094 34.9375 75.707031 34.671875 75.707031 34.382812 C 75.707031 34.089844 75.746094 33.824219 75.824219 33.589844 C 75.910156 33.347656 76.03125 33.140625 76.191406 32.976562 C 76.347656 32.8125 76.542969 32.683594 76.773438 32.589844 C 77.003906 32.496094 77.265625 32.449219 77.5625 32.449219 C 77.964844 32.449219 78.296875 32.53125 78.5625 32.683594 C 78.835938 32.84375 79.039062 33.082031 79.167969 33.394531 L 78.683594 33.554688 C 78.644531 33.464844 78.597656 33.378906 78.53125 33.296875 C 78.472656 33.210938 78.398438 33.140625 78.304688 33.082031 C 78.210938 33.019531 78.101562 32.96875 77.980469 32.933594 C 77.859375 32.890625 77.71875 32.867188 77.5625 32.867188 Z M 77.5625 32.867188 "/>
<path style=" stroke:none;fill-rule:nonzero;fill:rgb(0%,0%,0%);fill-opacity:1;" d="M 60.308594 50.066406 C 60.09375 50.066406 59.902344 50.105469 59.738281 50.175781 C 59.570312 50.25 59.429688 50.351562 59.316406 50.488281 C 59.210938 50.617188 59.125 50.773438 59.070312 50.960938 C 59.011719 51.148438 58.984375 51.355469 58.984375 51.582031 C 58.984375 51.816406 59.011719 52.023438 59.070312 52.21875 C 59.136719 52.40625 59.222656 52.566406 59.339844 52.703125 C 59.453125 52.839844 59.59375 52.945312 59.761719 53.023438 C 59.933594 53.097656 60.121094 53.132812 60.332031 53.132812 C 60.484375 53.132812 60.613281 53.117188 60.730469 53.078125 C 60.851562 53.035156 60.960938 52.980469 61.066406 52.90625 C 61.164062 52.835938 61.25 52.753906 61.324219 52.660156 C 61.402344 52.566406 61.46875 52.460938 61.527344 52.335938 L 61.949219 52.550781 C 61.882812 52.695312 61.800781 52.828125 61.699219 52.949219 C 61.597656 53.074219 61.480469 53.179688 61.34375 53.273438 C 61.207031 53.359375 61.054688 53.425781 60.882812 53.476562 C 60.707031 53.523438 60.519531 53.550781 60.308594 53.550781 C 60 53.550781 59.730469 53.503906 59.5 53.410156 C 59.269531 53.3125 59.074219 53.175781 58.917969 53.003906 C 58.769531 52.824219 58.652344 52.617188 58.574219 52.378906 C 58.492188 52.136719 58.457031 51.871094 58.457031 51.582031 C 58.457031 51.289062 58.492188 51.023438 58.574219 50.789062 C 58.660156 50.546875 58.78125 50.34375 58.941406 50.175781 C 59.097656 50.011719 59.292969 49.882812 59.523438 49.789062 C 59.753906 49.695312 60.011719 49.648438 60.308594 49.648438 C 60.710938 49.648438 61.046875 49.730469 61.3125 49.886719 C 61.585938 50.042969 61.789062 50.28125 61.917969 50.59375 L 61.429688 50.757812 C 61.394531 50.664062 61.34375 50.578125 61.28125 50.5 C 61.222656 50.414062 61.144531 50.34375 61.054688 50.28125 C 60.960938 50.21875 60.851562 50.171875 60.730469 50.132812 C 60.605469 50.089844 60.464844 50.066406 60.308594 50.066406 Z M 60.308594 50.066406 "/>
<path style=" stroke:none;fill-rule:nonzero;fill:rgb(0%,0%,0%);fill-opacity:1;" d="M 60.308594 15.667969 C 60.09375 15.667969 59.902344 15.707031 59.738281 15.777344 C 59.570312 15.847656 59.429688 15.953125 59.316406 16.085938 C 59.210938 16.214844 59.125 16.375 59.070312 16.558594 C 59.011719 16.75 58.984375 16.957031 58.984375 17.183594 C 58.984375 17.414062 59.011719 17.625 59.070312 17.816406 C 59.136719 18.007812 59.222656 18.167969 59.339844 18.300781 C 59.453125 18.4375 59.59375 18.546875 59.761719 18.625 C 59.933594 18.695312 60.121094 18.730469 60.332031 18.730469 C 60.484375 18.730469 60.613281 18.714844 60.730469 18.679688 C 60.851562 18.636719 60.960938 18.578125 61.066406 18.507812 C 61.164062 18.4375 61.25 18.351562 61.324219 18.257812 C 61.402344 18.167969 61.46875 18.058594 61.527344 17.9375 L 61.949219 18.152344 C 61.882812 18.296875 61.800781 18.429688 61.699219 18.550781 C 61.597656 18.671875 61.480469 18.78125 61.34375 18.871094 C 61.207031 18.957031 61.054688 19.027344 60.882812 19.074219 C 60.707031 19.125 60.519531 19.152344 60.308594 19.152344 C 60 19.152344 59.730469 19.101562 59.5 19.011719 C 59.269531 18.910156 59.074219 18.773438 58.917969 18.601562 C 58.769531 18.425781 58.652344 18.214844 58.574219 17.980469 C 58.492188 17.738281 58.457031 17.472656 58.457031 17.183594 C 58.457031 16.890625 58.492188 16.625 58.574219 16.386719 C 58.660156 16.148438 58.78125 15.941406 58.941406 15.777344 C 59.097656 15.613281 59.292969 15.484375 59.523438 15.386719 C 59.753906 15.296875 60.011719 15.25 60.308594 15.25 C 60.710938 15.25 61.046875 15.328125 61.3125 15.484375 C 61.585938 15.644531 61.789062 15.878906 61.917969 16.195312 L 61.429688 16.355469 C 61.394531 16.265625 61.34375 16.179688 61.28125 16.097656 C 61.222656 16.011719 61.144531 15.941406 61.054688 15.882812 C 60.960938 15.820312 60.851562 15.769531 60.730469 15.734375 C 60.605469 15.691406 60.464844 15.667969 60.308594 15.667969 Z M 60.308594 15.667969 "/>
<path style=" stroke:none;fill-rule:nonzero;fill:rgb(0%,0%,0%);fill-opacity:1;" d="M 34.433594 47.761719 C 34.21875 47.761719 34.027344 47.800781 33.863281 47.871094 C 33.695312 47.941406 33.554688 48.046875 33.441406 48.179688 C 33.332031 48.308594 33.25 48.46875 33.191406 48.65625 C 33.132812 48.84375 33.105469 49.050781 33.105469 49.277344 C 33.105469 49.507812 33.132812 49.71875 33.191406 49.914062 C 33.257812 50.101562 33.347656 50.261719 33.460938 50.394531 C 33.574219 50.53125 33.714844 50.640625 33.882812 50.71875 C 34.054688 50.792969 34.246094 50.824219 34.453125 50.824219 C 34.605469 50.824219 34.738281 50.808594 34.851562 50.773438 C 34.976562 50.730469 35.085938 50.671875 35.1875 50.601562 C 35.289062 50.53125 35.375 50.445312 35.445312 50.351562 C 35.523438 50.261719 35.59375 50.152344 35.652344 50.03125 L 36.070312 50.246094 C 36.007812 50.390625 35.921875 50.523438 35.824219 50.644531 C 35.722656 50.765625 35.601562 50.875 35.46875 50.964844 C 35.332031 51.050781 35.175781 51.121094 35.003906 51.171875 C 34.832031 51.21875 34.640625 51.246094 34.433594 51.246094 C 34.121094 51.246094 33.851562 51.195312 33.625 51.105469 C 33.390625 51.007812 33.199219 50.867188 33.042969 50.695312 C 32.890625 50.519531 32.773438 50.308594 32.695312 50.074219 C 32.617188 49.832031 32.578125 49.566406 32.578125 49.277344 C 32.578125 48.984375 32.617188 48.71875 32.695312 48.484375 C 32.78125 48.242188 32.90625 48.035156 33.0625 47.871094 C 33.21875 47.707031 33.414062 47.578125 33.644531 47.484375 C 33.875 47.390625 34.136719 47.34375 34.433594 47.34375 C 34.835938 47.34375 35.167969 47.421875 35.4375 47.578125 C 35.707031 47.738281 35.910156 47.972656 36.039062 48.289062 L 35.554688 48.449219 C 35.515625 48.359375 35.46875 48.273438 35.402344 48.191406 C 35.34375 48.105469 35.269531 48.035156 35.175781 47.976562 C 35.082031 47.914062 34.976562 47.863281 34.851562 47.828125 C 34.730469 47.785156 34.589844 47.761719 34.433594 47.761719 Z M 34.433594 47.761719 "/>
<path style=" stroke:none;fill-rule:nonzero;fill:rgb(0%,0%,47.058824%);fill-opacity:1;" d="M 36.246094 19.488281 C 36.246094 19.785156 36.195312 20.054688 36.105469 20.296875 C 36.019531 20.539062 35.890625 20.746094 35.726562 20.917969 C 35.558594 21.089844 35.359375 21.226562 35.121094 21.316406 C 34.886719 21.410156 34.617188 21.457031 34.3125 21.457031 C 33.996094 21.457031 33.722656 21.410156 33.484375 21.316406 C 33.246094 21.21875 33.042969 21.082031 32.878906 20.910156 C 32.722656 20.730469 32.601562 20.523438 32.523438 20.285156 C 32.445312 20.042969 32.40625 19.777344 32.40625 19.488281 C 32.40625 19.195312 32.445312 18.929688 32.523438 18.695312 C 32.609375 18.453125 32.734375 18.25 32.902344 18.082031 C 33.066406 17.917969 33.269531 17.789062 33.503906 17.695312 C 33.742188 17.601562 34.015625 17.554688 34.324219 17.554688 C 34.632812 17.554688 34.90625 17.601562 35.144531 17.695312 C 35.382812 17.789062 35.578125 17.921875 35.738281 18.09375 C 35.902344 18.257812 36.027344 18.457031 36.113281 18.695312 C 36.199219 18.929688 36.246094 19.195312 36.246094 19.488281 Z M 35.4375 19.488281 C 35.4375 19.289062 35.410156 19.109375 35.359375 18.953125 C 35.308594 18.796875 35.234375 18.660156 35.144531 18.542969 C 35.050781 18.429688 34.933594 18.339844 34.800781 18.273438 C 34.660156 18.210938 34.503906 18.179688 34.324219 18.179688 C 34.136719 18.179688 33.972656 18.210938 33.828125 18.273438 C 33.691406 18.339844 33.574219 18.429688 33.484375 18.542969 C 33.390625 18.660156 33.316406 18.796875 33.269531 18.953125 C 33.226562 19.109375 33.203125 19.289062 33.203125 19.488281 C 33.203125 19.691406 33.226562 19.875 33.277344 20.039062 C 33.328125 20.195312 33.402344 20.335938 33.496094 20.457031 C 33.585938 20.574219 33.703125 20.667969 33.839844 20.738281 C 33.972656 20.800781 34.132812 20.832031 34.3125 20.832031 C 34.507812 20.832031 34.671875 20.800781 34.808594 20.738281 C 34.953125 20.667969 35.070312 20.574219 35.167969 20.457031 C 35.257812 20.335938 35.328125 20.195312 35.371094 20.027344 C 35.414062 19.863281 35.4375 19.683594 35.4375 19.488281 Z M 35.4375 19.488281 "/>
<path style=" stroke:none;fill-rule:nonzero;fill:rgb(0%,0%,0%);fill-opacity:1;" d="M 16.570312 18.65625 C 16.355469 18.65625 16.164062 18.695312 16 18.765625 C 15.832031 18.835938 15.695312 18.941406 15.582031 19.074219 C 15.472656 19.203125 15.390625 19.363281 15.332031 19.550781 C 15.273438 19.738281 15.246094 19.945312 15.246094 20.171875 C 15.246094 20.402344 15.273438 20.613281 15.332031 20.804688 C 15.398438 20.996094 15.484375 21.15625 15.601562 21.289062 C 15.714844 21.425781 15.855469 21.535156 16.023438 21.613281 C 16.195312 21.683594 16.382812 21.71875 16.59375 21.71875 C 16.746094 21.71875 16.875 21.703125 16.992188 21.667969 C 17.113281 21.625 17.222656 21.566406 17.328125 21.496094 C 17.425781 21.425781 17.511719 21.339844 17.585938 21.246094 C 17.664062 21.15625 17.730469 21.046875 17.789062 20.925781 L 18.210938 21.140625 C 18.144531 21.285156 18.0625 21.417969 17.964844 21.539062 C 17.859375 21.660156 17.742188 21.769531 17.605469 21.859375 C 17.46875 21.945312 17.316406 22.015625 17.144531 22.0625 C 16.972656 22.113281 16.78125 22.140625 16.570312 22.140625 C 16.261719 22.140625 15.992188 22.089844 15.761719 22 C 15.53125 21.902344 15.335938 21.761719 15.179688 21.589844 C 15.03125 21.414062 14.914062 21.203125 14.835938 20.96875 C 14.753906 20.726562 14.71875 20.460938 14.71875 20.171875 C 14.71875 19.878906 14.753906 19.613281 14.835938 19.375 C 14.921875 19.136719 15.042969 18.929688 15.203125 18.765625 C 15.359375 18.601562 15.554688 18.472656 15.785156 18.378906 C 16.015625 18.285156 16.277344 18.238281 16.570312 18.238281 C 16.972656 18.238281 17.308594 18.316406 17.574219 18.472656 C 17.847656 18.632812 18.050781 18.867188 18.179688 19.183594 L 17.695312 19.34375 C 17.65625 19.253906 17.605469 19.167969 17.542969 19.085938 C 17.484375 19 17.40625 18.929688 17.316406 18.871094 C 17.222656 18.808594 17.113281 18.757812 16.992188 18.722656 C 16.867188 18.679688 16.730469 18.65625 16.570312 18.65625 Z M 16.570312 18.65625 "/>
<path style=" stroke:none;fill-rule:nonzero;fill:rgb(0%,0%,0%);fill-opacity:1;" d="M 18.964844 22.085938 L 18.964844 18.097656 L 19.449219 18.097656 L 19.449219 22.085938 Z M 18.964844 22.085938 "/>
<path style="fill:none;stroke-width:0.0333333;stroke-linecap:butt;stroke-linejoin:miter;stroke:rgb(0%,0%,0%);stroke-opacity:1;stroke-miterlimit:10;" d="M 2.638695 1.083259 L 3.354893 1.083259 " transform="matrix(17.251462,0,0,17.2,17.084128,17.199977)"/>
<path style="fill:none;stroke-width:0.0333333;stroke-linecap:butt;stroke-linejoin:miter;stroke:rgb(0%,0%,0%);stroke-opacity:1;stroke-miterlimit:10;" d="M 2.638695 0.916789 L 3.354893 0.916789 " transform="matrix(17.251462,0,0,17.2,17.084128,17.199977)"/>
<path style="fill:none;stroke-width:0.06;stroke-linecap:butt;stroke-linejoin:miter;stroke:rgb(0%,0%,47.058824%);stroke-opacity:1;stroke-miterlimit:10;" d="M 2.360186 0.999911 L 1.499299 0.999911 " transform="matrix(17.251462,0,0,17.2,17.084128,17.199977)"/>
<path style="fill:none;stroke-width:0.0333333;stroke-linecap:butt;stroke-linejoin:miter;stroke:rgb(0%,0%,0%);stroke-opacity:1;stroke-miterlimit:10;" d="M 2.416114 1.156615 L 2.416114 1.843388 " transform="matrix(17.251462,0,0,17.2,17.084128,17.199977)"/>
<path style="fill:none;stroke-width:0.0333333;stroke-linecap:butt;stroke-linejoin:miter;stroke:rgb(0%,0%,0%);stroke-opacity:1;stroke-miterlimit:10;" d="M 2.582766 1.156615 L 2.582766 1.843388 " transform="matrix(17.251462,0,0,17.2,17.084128,17.199977)"/>
<path style="fill:none;stroke-width:0.0333333;stroke-linecap:butt;stroke-linejoin:miter;stroke:rgb(0%,0%,0%);stroke-opacity:1;stroke-miterlimit:10;" d="M 2.49944 0.843206 L 2.49944 0.15666 " transform="matrix(17.251462,0,0,17.2,17.084128,17.199977)"/>
<path style="fill:none;stroke-width:0.0333333;stroke-linecap:butt;stroke-linejoin:miter;stroke:rgb(0%,0%,0%);stroke-opacity:1;stroke-miterlimit:10;" d="M 1.499299 0.999911 L 1.103499 1.686002 " transform="matrix(17.251462,0,0,17.2,17.084128,17.199977)"/>
<path style="fill:none;stroke-width:0.06;stroke-linecap:butt;stroke-linejoin:miter;stroke:rgb(0%,0%,47.058824%);stroke-opacity:1;stroke-miterlimit:10;" d="M 1.499299 0.999911 L 1.105989 0.318588 " transform="matrix(17.251462,0,0,17.2,17.084128,17.199977)"/>
<path style="fill:none;stroke-width:0.0333333;stroke-linecap:butt;stroke-linejoin:miter;stroke:rgb(0%,0%,0%);stroke-opacity:1;stroke-miterlimit:10;" d="M 0.841293 0.139627 L 0.183966 0.163246 " transform="matrix(17.251462,0,0,17.2,17.084128,17.199977)"/>
</g>
</svg>
