<?xml version="1.0" encoding="UTF-8"?>
<svg xmlns="http://www.w3.org/2000/svg" xmlns:xlink="http://www.w3.org/1999/xlink" width="94.4pt" height="43.2pt" viewBox="0 0 94.4 43.2" version="1.1">
<g id="surface492">
<path style=" stroke:none;fill-rule:nonzero;fill:rgb(0%,0%,0%);fill-opacity:1;" d="M 77.363281 15.492188 C 77.148438 15.492188 76.953125 15.527344 76.789062 15.597656 C 76.621094 15.671875 76.480469 15.777344 76.367188 15.914062 C 76.257812 16.042969 76.175781 16.203125 76.117188 16.386719 C 76.058594 16.578125 76.03125 16.785156 76.03125 17.015625 C 76.03125 17.25 76.058594 17.460938 76.117188 17.652344 C 76.183594 17.84375 76.273438 18.003906 76.386719 18.140625 C 76.503906 18.277344 76.644531 18.386719 76.8125 18.464844 C 76.984375 18.539062 77.175781 18.574219 77.386719 18.574219 C 77.539062 18.574219 77.671875 18.558594 77.789062 18.519531 C 77.910156 18.476562 78.019531 18.417969 78.125 18.347656 C 78.222656 18.277344 78.3125 18.191406 78.382812 18.097656 C 78.460938 18.003906 78.53125 17.898438 78.589844 17.773438 L 79.011719 17.988281 C 78.949219 18.136719 78.863281 18.269531 78.761719 18.390625 C 78.660156 18.515625 78.542969 18.621094 78.40625 18.714844 C 78.265625 18.800781 78.113281 18.871094 77.9375 18.917969 C 77.765625 18.96875 77.574219 18.996094 77.363281 18.996094 C 77.050781 18.996094 76.78125 18.945312 76.550781 18.855469 C 76.316406 18.753906 76.121094 18.617188 75.964844 18.445312 C 75.8125 18.265625 75.695312 18.054688 75.617188 17.816406 C 75.535156 17.574219 75.5 17.304688 75.5 17.015625 C 75.5 16.722656 75.535156 16.453125 75.617188 16.214844 C 75.703125 15.972656 75.828125 15.765625 75.988281 15.597656 C 76.144531 15.433594 76.339844 15.304688 76.574219 15.210938 C 76.804688 15.117188 77.066406 15.070312 77.363281 15.070312 C 77.769531 15.070312 78.105469 15.148438 78.371094 15.304688 C 78.648438 15.464844 78.851562 15.703125 78.980469 16.019531 L 78.492188 16.183594 C 78.453125 16.089844 78.40625 16.003906 78.339844 15.921875 C 78.28125 15.835938 78.203125 15.765625 78.113281 15.707031 C 78.019531 15.640625 77.910156 15.59375 77.789062 15.554688 C 77.664062 15.511719 77.523438 15.492188 77.363281 15.492188 Z M 77.363281 15.492188 "/>
<path style=" stroke:none;fill-rule:nonzero;fill:rgb(0%,0%,0%);fill-opacity:1;" d="M 33.140625 27.796875 L 31.089844 24.550781 C 31.097656 24.636719 31.101562 24.722656 31.101562 24.808594 C 31.109375 24.882812 31.113281 24.960938 31.113281 25.046875 C 31.117188 25.128906 31.125 25.199219 31.125 25.265625 L 31.125 27.796875 L 30.65625 27.796875 L 30.65625 23.988281 L 31.265625 23.988281 L 33.324219 27.253906 C 33.324219 27.253906 33.320312 27.164062 33.316406 26.984375 C 33.308594 26.914062 33.296875 26.832031 33.292969 26.746094 C 33.292969 26.652344 33.292969 26.566406 33.292969 26.484375 L 33.292969 23.988281 L 33.757812 23.988281 L 33.757812 27.796875 Z M 33.140625 27.796875 "/>
<path style=" stroke:none;fill-rule:nonzero;fill:rgb(0%,0%,0%);fill-opacity:1;" d="M 18.328125 19.148438 L 17.175781 17.484375 L 16.003906 19.148438 L 15.441406 19.148438 L 16.894531 17.167969 L 15.550781 15.339844 L 16.125 15.339844 L 17.1875 16.835938 L 18.21875 15.339844 L 18.792969 15.339844 L 17.480469 17.148438 L 18.902344 19.148438 Z M 18.328125 19.148438 "/>
<path style="fill:none;stroke-width:0.0333333;stroke-linecap:butt;stroke-linejoin:miter;stroke:rgb(0%,0%,0%);stroke-opacity:1;stroke-miterlimit:10;" d="M 3.287934 0.102665 L 2.592131 0.508689 " transform="matrix(17.352941,0,0,17.307692,17.143899,17.031699)"/>
<path style="fill:none;stroke-width:0.0333333;stroke-linecap:butt;stroke-linejoin:miter;stroke:rgb(0%,0%,0%);stroke-opacity:1;stroke-miterlimit:10;" d="M 2.608564 0.508689 L 1.723673 0.00313378 " transform="matrix(17.352941,0,0,17.307692,17.143899,17.031699)"/>
<path style="fill:none;stroke-width:0.0333333;stroke-linecap:butt;stroke-linejoin:miter;stroke:rgb(0%,0%,0%);stroke-opacity:1;stroke-miterlimit:10;" d="M 1.74033 0.00290809 L 1.034173 0.415252 " transform="matrix(17.352941,0,0,17.307692,17.143899,17.031699)"/>
<path style="fill:none;stroke-width:0.0333333;stroke-linecap:butt;stroke-linejoin:miter;stroke:rgb(0%,0%,0%);stroke-opacity:1;stroke-miterlimit:10;" d="M 0.702142 0.417057 L 0.173593 0.115078 " transform="matrix(17.352941,0,0,17.307692,17.143899,17.031699)"/>
</g>
</svg>
