<?xml version="1.0" encoding="UTF-8"?>
<svg xmlns="http://www.w3.org/2000/svg" xmlns:xlink="http://www.w3.org/1999/xlink" width="52pt" height="52pt" viewBox="0 0 52 52" version="1.1">
<g id="surface652">
<path style="fill:none;stroke-width:0.0333333;stroke-linecap:butt;stroke-linejoin:miter;stroke:rgb(0%,0%,0%);stroke-opacity:1;stroke-miterlimit:10;" d="M -0.0166154 0.000105769 L 0.189913 0.000105769 " transform="matrix(17.287234,0,0,17.287234,17.287234,17.287234)"/>
<path style="fill:none;stroke-width:0.0333333;stroke-linecap:butt;stroke-linejoin:miter;stroke:rgb(0%,0%,0%);stroke-opacity:1;stroke-miterlimit:10;" d="M 0.189913 0.0832596 L 0.396668 0.0832596 " transform="matrix(17.287234,0,0,17.287234,17.287234,17.287234)"/>
<path style="fill:none;stroke-width:0.0333333;stroke-linecap:butt;stroke-linejoin:miter;stroke:rgb(0%,0%,0%);stroke-opacity:1;stroke-miterlimit:10;" d="M 0.189913 -0.083274 L 0.396668 -0.083274 " transform="matrix(17.287234,0,0,17.287234,17.287234,17.287234)"/>
<path style="fill:none;stroke-width:0.0333333;stroke-linecap:butt;stroke-linejoin:miter;stroke:rgb(0%,0%,0%);stroke-opacity:1;stroke-miterlimit:10;" d="M 0.396668 0.000105769 L 0.603197 0.000105769 " transform="matrix(17.287234,0,0,17.287234,17.287234,17.287234)"/>
<path style="fill:none;stroke-width:0.0333333;stroke-linecap:butt;stroke-linejoin:miter;stroke:rgb(0%,0%,0%);stroke-opacity:1;stroke-miterlimit:10;" d="M 0.603197 0.0832596 L 0.809952 0.0832596 " transform="matrix(17.287234,0,0,17.287234,17.287234,17.287234)"/>
<path style="fill:none;stroke-width:0.0333333;stroke-linecap:butt;stroke-linejoin:miter;stroke:rgb(0%,0%,0%);stroke-opacity:1;stroke-miterlimit:10;" d="M 0.603197 -0.083274 L 0.809952 -0.083274 " transform="matrix(17.287234,0,0,17.287234,17.287234,17.287234)"/>
<path style="fill:none;stroke-width:0.0333333;stroke-linecap:butt;stroke-linejoin:miter;stroke:rgb(0%,0%,0%);stroke-opacity:1;stroke-miterlimit:10;" d="M 0.809952 0.000105769 L 1.016707 0.000105769 " transform="matrix(17.287234,0,0,17.287234,17.287234,17.287234)"/>
<path style="fill:none;stroke-width:0.0333333;stroke-linecap:butt;stroke-linejoin:miter;stroke:rgb(0%,0%,0%);stroke-opacity:1;stroke-miterlimit:10;" d="M 0.999986 -0.0166154 L 0.999986 0.189913 " transform="matrix(17.287234,0,0,17.287234,17.287234,17.287234)"/>
<path style="fill:none;stroke-width:0.0333333;stroke-linecap:butt;stroke-linejoin:miter;stroke:rgb(0%,0%,0%);stroke-opacity:1;stroke-miterlimit:10;" d="M 0.916832 0.189913 L 0.916832 0.396668 " transform="matrix(17.287234,0,0,17.287234,17.287234,17.287234)"/>
<path style="fill:none;stroke-width:0.0333333;stroke-linecap:butt;stroke-linejoin:miter;stroke:rgb(0%,0%,0%);stroke-opacity:1;stroke-miterlimit:10;" d="M 1.083365 0.189913 L 1.083365 0.396668 " transform="matrix(17.287234,0,0,17.287234,17.287234,17.287234)"/>
<path style="fill:none;stroke-width:0.0333333;stroke-linecap:butt;stroke-linejoin:miter;stroke:rgb(0%,0%,0%);stroke-opacity:1;stroke-miterlimit:10;" d="M 0.999986 0.396668 L 0.999986 0.603197 " transform="matrix(17.287234,0,0,17.287234,17.287234,17.287234)"/>
<path style="fill:none;stroke-width:0.0333333;stroke-linecap:butt;stroke-linejoin:miter;stroke:rgb(0%,0%,0%);stroke-opacity:1;stroke-miterlimit:10;" d="M 0.916832 0.603197 L 0.916832 0.809952 " transform="matrix(17.287234,0,0,17.287234,17.287234,17.287234)"/>
<path style="fill:none;stroke-width:0.0333333;stroke-linecap:butt;stroke-linejoin:miter;stroke:rgb(0%,0%,0%);stroke-opacity:1;stroke-miterlimit:10;" d="M 1.083365 0.603197 L 1.083365 0.809952 " transform="matrix(17.287234,0,0,17.287234,17.287234,17.287234)"/>
<path style="fill:none;stroke-width:0.0333333;stroke-linecap:butt;stroke-linejoin:miter;stroke:rgb(0%,0%,0%);stroke-opacity:1;stroke-miterlimit:10;" d="M 0.999986 0.809952 L 0.999986 1.016707 " transform="matrix(17.287234,0,0,17.287234,17.287234,17.287234)"/>
<path style="fill:none;stroke-width:0.0333333;stroke-linecap:butt;stroke-linejoin:miter;stroke:rgb(0%,0%,0%);stroke-opacity:1;stroke-miterlimit:10;" d="M 0.000105769 -0.0166154 L 0.000105769 0.189913 " transform="matrix(17.287234,0,0,17.287234,17.287234,17.287234)"/>
<path style="fill:none;stroke-width:0.0333333;stroke-linecap:butt;stroke-linejoin:miter;stroke:rgb(0%,0%,0%);stroke-opacity:1;stroke-miterlimit:10;" d="M -0.083274 0.189913 L -0.083274 0.396668 " transform="matrix(17.287234,0,0,17.287234,17.287234,17.287234)"/>
<path style="fill:none;stroke-width:0.0333333;stroke-linecap:butt;stroke-linejoin:miter;stroke:rgb(0%,0%,0%);stroke-opacity:1;stroke-miterlimit:10;" d="M 0.0832596 0.189913 L 0.0832596 0.396668 " transform="matrix(17.287234,0,0,17.287234,17.287234,17.287234)"/>
<path style="fill:none;stroke-width:0.0333333;stroke-linecap:butt;stroke-linejoin:miter;stroke:rgb(0%,0%,0%);stroke-opacity:1;stroke-miterlimit:10;" d="M 0.000105769 0.396668 L 0.000105769 0.603197 " transform="matrix(17.287234,0,0,17.287234,17.287234,17.287234)"/>
<path style="fill:none;stroke-width:0.0333333;stroke-linecap:butt;stroke-linejoin:miter;stroke:rgb(0%,0%,0%);stroke-opacity:1;stroke-miterlimit:10;" d="M -0.083274 0.603197 L -0.083274 0.809952 " transform="matrix(17.287234,0,0,17.287234,17.287234,17.287234)"/>
<path style="fill:none;stroke-width:0.0333333;stroke-linecap:butt;stroke-linejoin:miter;stroke:rgb(0%,0%,0%);stroke-opacity:1;stroke-miterlimit:10;" d="M 0.0832596 0.603197 L 0.0832596 0.809952 " transform="matrix(17.287234,0,0,17.287234,17.287234,17.287234)"/>
<path style="fill:none;stroke-width:0.0333333;stroke-linecap:butt;stroke-linejoin:miter;stroke:rgb(0%,0%,0%);stroke-opacity:1;stroke-miterlimit:10;" d="M 0.000105769 0.809952 L 0.000105769 1.016707 " transform="matrix(17.287234,0,0,17.287234,17.287234,17.287234)"/>
<path style="fill:none;stroke-width:0.0333333;stroke-linecap:butt;stroke-linejoin:miter;stroke:rgb(0%,0%,0%);stroke-opacity:1;stroke-miterlimit:10;" d="M -0.0166154 0.999986 L 0.189913 0.999986 " transform="matrix(17.287234,0,0,17.287234,17.287234,17.287234)"/>
<path style="fill:none;stroke-width:0.0333333;stroke-linecap:butt;stroke-linejoin:miter;stroke:rgb(0%,0%,0%);stroke-opacity:1;stroke-miterlimit:10;" d="M 0.189913 1.083365 L 0.396668 1.083365 " transform="matrix(17.287234,0,0,17.287234,17.287234,17.287234)"/>
<path style="fill:none;stroke-width:0.0333333;stroke-linecap:butt;stroke-linejoin:miter;stroke:rgb(0%,0%,0%);stroke-opacity:1;stroke-miterlimit:10;" d="M 0.189913 0.916832 L 0.396668 0.916832 " transform="matrix(17.287234,0,0,17.287234,17.287234,17.287234)"/>
<path style="fill:none;stroke-width:0.0333333;stroke-linecap:butt;stroke-linejoin:miter;stroke:rgb(0%,0%,0%);stroke-opacity:1;stroke-miterlimit:10;" d="M 0.396668 0.999986 L 0.603197 0.999986 " transform="matrix(17.287234,0,0,17.287234,17.287234,17.287234)"/>
<path style="fill:none;stroke-width:0.0333333;stroke-linecap:butt;stroke-linejoin:miter;stroke:rgb(0%,0%,0%);stroke-opacity:1;stroke-miterlimit:10;" d="M 0.603197 1.083365 L 0.809952 1.083365 " transform="matrix(17.287234,0,0,17.287234,17.287234,17.287234)"/>
<path style="fill:none;stroke-width:0.0333333;stroke-linecap:butt;stroke-linejoin:miter;stroke:rgb(0%,0%,0%);stroke-opacity:1;stroke-miterlimit:10;" d="M 0.603197 0.916832 L 0.809952 0.916832 " transform="matrix(17.287234,0,0,17.287234,17.287234,17.287234)"/>
<path style="fill:none;stroke-width:0.0333333;stroke-linecap:butt;stroke-linejoin:miter;stroke:rgb(0%,0%,0%);stroke-opacity:1;stroke-miterlimit:10;" d="M 0.809952 0.999986 L 1.016707 0.999986 " transform="matrix(17.287234,0,0,17.287234,17.287234,17.287234)"/>
</g>
</svg>
