<?xml version="1.0" encoding="UTF-8"?>
<svg xmlns="http://www.w3.org/2000/svg" xmlns:xlink="http://www.w3.org/1999/xlink" width="99.2pt" height="64pt" viewBox="0 0 99.2 64" version="1.1">
<g id="surface587">
<path style=" stroke:none;fill-rule:nonzero;fill:rgb(0%,0%,0%);fill-opacity:1;" d="M 42.671875 17.859375 C 42.671875 18.015625 42.640625 18.164062 42.578125 18.300781 C 42.515625 18.429688 42.425781 18.546875 42.292969 18.644531 C 42.164062 18.746094 41.996094 18.824219 41.796875 18.882812 C 41.601562 18.929688 41.371094 18.957031 41.105469 18.957031 C 40.628906 18.957031 40.253906 18.875 39.988281 18.710938 C 39.722656 18.546875 39.550781 18.304688 39.480469 17.988281 L 39.988281 17.890625 C 40.011719 17.992188 40.046875 18.082031 40.097656 18.160156 C 40.15625 18.242188 40.226562 18.3125 40.3125 18.375 C 40.402344 18.433594 40.507812 18.480469 40.640625 18.515625 C 40.773438 18.546875 40.933594 18.558594 41.113281 18.558594 C 41.273438 18.558594 41.414062 18.546875 41.539062 18.515625 C 41.667969 18.488281 41.777344 18.449219 41.871094 18.398438 C 41.964844 18.339844 42.039062 18.273438 42.089844 18.191406 C 42.136719 18.105469 42.164062 18.003906 42.164062 17.878906 C 42.164062 17.757812 42.136719 17.660156 42.078125 17.578125 C 42.019531 17.5 41.941406 17.433594 41.839844 17.382812 C 41.738281 17.335938 41.617188 17.296875 41.472656 17.265625 C 41.324219 17.230469 41.167969 17.191406 40.996094 17.148438 C 40.886719 17.125 40.78125 17.101562 40.671875 17.070312 C 40.570312 17.042969 40.46875 17.011719 40.367188 16.976562 C 40.265625 16.941406 40.171875 16.898438 40.085938 16.84375 C 40 16.789062 39.925781 16.722656 39.859375 16.652344 C 39.800781 16.582031 39.753906 16.496094 39.71875 16.402344 C 39.679688 16.304688 39.664062 16.195312 39.664062 16.070312 C 39.664062 15.890625 39.699219 15.734375 39.773438 15.605469 C 39.84375 15.476562 39.945312 15.375 40.074219 15.292969 C 40.207031 15.207031 40.355469 15.148438 40.53125 15.109375 C 40.710938 15.066406 40.902344 15.046875 41.113281 15.046875 C 41.34375 15.046875 41.542969 15.066406 41.710938 15.109375 C 41.882812 15.148438 42.027344 15.203125 42.144531 15.273438 C 42.257812 15.34375 42.347656 15.433594 42.414062 15.542969 C 42.484375 15.648438 42.542969 15.777344 42.585938 15.917969 L 42.078125 16.015625 C 42.046875 15.925781 42.007812 15.839844 41.960938 15.769531 C 41.917969 15.699219 41.855469 15.636719 41.773438 15.585938 C 41.703125 15.535156 41.609375 15.5 41.492188 15.476562 C 41.386719 15.449219 41.253906 15.433594 41.105469 15.433594 C 40.929688 15.433594 40.78125 15.453125 40.660156 15.488281 C 40.535156 15.515625 40.4375 15.558594 40.367188 15.617188 C 40.296875 15.667969 40.242188 15.730469 40.207031 15.800781 C 40.175781 15.871094 40.164062 15.949219 40.164062 16.039062 C 40.164062 16.152344 40.191406 16.246094 40.25 16.316406 C 40.304688 16.390625 40.382812 16.453125 40.476562 16.5 C 40.578125 16.550781 40.691406 16.59375 40.824219 16.628906 C 40.953125 16.660156 41.089844 16.6875 41.234375 16.714844 C 41.347656 16.746094 41.464844 16.773438 41.582031 16.800781 C 41.695312 16.832031 41.808594 16.863281 41.917969 16.898438 C 42.023438 16.9375 42.121094 16.984375 42.207031 17.039062 C 42.300781 17.089844 42.382812 17.15625 42.445312 17.234375 C 42.515625 17.304688 42.570312 17.390625 42.609375 17.492188 C 42.652344 17.59375 42.671875 17.714844 42.671875 17.859375 Z M 42.671875 17.859375 "/>
<path style=" stroke:none;fill-rule:nonzero;fill:rgb(0%,0%,0%);fill-opacity:1;" d="M 59.515625 47.992188 C 59.515625 48.148438 59.484375 48.296875 59.417969 48.433594 C 59.359375 48.5625 59.265625 48.675781 59.136719 48.777344 C 59.007812 48.878906 58.839844 48.957031 58.640625 49.015625 C 58.445312 49.0625 58.210938 49.089844 57.945312 49.089844 C 57.46875 49.089844 57.097656 49.007812 56.832031 48.839844 C 56.5625 48.675781 56.394531 48.4375 56.324219 48.121094 L 56.832031 48.023438 C 56.851562 48.125 56.886719 48.214844 56.941406 48.292969 C 56.996094 48.371094 57.070312 48.441406 57.15625 48.507812 C 57.242188 48.566406 57.351562 48.613281 57.480469 48.648438 C 57.617188 48.675781 57.777344 48.691406 57.957031 48.691406 C 58.113281 48.691406 58.253906 48.675781 58.378906 48.648438 C 58.507812 48.621094 58.621094 48.582031 58.714844 48.527344 C 58.808594 48.472656 58.878906 48.40625 58.929688 48.324219 C 58.980469 48.238281 59.007812 48.136719 59.007812 48.011719 C 59.007812 47.890625 58.976562 47.789062 58.921875 47.710938 C 58.859375 47.632812 58.78125 47.566406 58.683594 47.515625 C 58.578125 47.46875 58.457031 47.425781 58.3125 47.398438 C 58.167969 47.363281 58.011719 47.320312 57.839844 47.277344 C 57.730469 47.257812 57.621094 47.234375 57.511719 47.203125 C 57.410156 47.175781 57.308594 47.144531 57.210938 47.105469 C 57.109375 47.070312 57.015625 47.027344 56.929688 46.976562 C 56.84375 46.921875 56.765625 46.855469 56.703125 46.785156 C 56.640625 46.714844 56.597656 46.628906 56.5625 46.535156 C 56.523438 46.4375 56.507812 46.324219 56.507812 46.203125 C 56.507812 46.023438 56.542969 45.867188 56.613281 45.738281 C 56.683594 45.609375 56.789062 45.507812 56.917969 45.425781 C 57.046875 45.339844 57.199219 45.28125 57.371094 45.242188 C 57.550781 45.199219 57.746094 45.179688 57.957031 45.179688 C 58.1875 45.179688 58.386719 45.199219 58.550781 45.242188 C 58.726562 45.28125 58.871094 45.335938 58.984375 45.402344 C 59.097656 45.476562 59.191406 45.566406 59.257812 45.671875 C 59.328125 45.78125 59.386719 45.90625 59.429688 46.050781 L 58.921875 46.148438 C 58.890625 46.054688 58.851562 45.972656 58.800781 45.898438 C 58.757812 45.828125 58.695312 45.769531 58.617188 45.714844 C 58.542969 45.667969 58.449219 45.628906 58.335938 45.609375 C 58.226562 45.582031 58.097656 45.566406 57.945312 45.566406 C 57.773438 45.566406 57.625 45.585938 57.503906 45.621094 C 57.378906 45.648438 57.28125 45.691406 57.210938 45.75 C 57.136719 45.800781 57.082031 45.863281 57.046875 45.933594 C 57.019531 46.003906 57.003906 46.082031 57.003906 46.167969 C 57.003906 46.285156 57.03125 46.378906 57.089844 46.449219 C 57.148438 46.523438 57.222656 46.585938 57.320312 46.632812 C 57.417969 46.683594 57.535156 46.726562 57.664062 46.761719 C 57.792969 46.792969 57.929688 46.820312 58.078125 46.847656 C 58.191406 46.878906 58.304688 46.90625 58.421875 46.933594 C 58.535156 46.964844 58.648438 46.996094 58.757812 47.03125 C 58.867188 47.070312 58.964844 47.113281 59.050781 47.171875 C 59.140625 47.222656 59.222656 47.289062 59.289062 47.367188 C 59.359375 47.4375 59.414062 47.523438 59.449219 47.625 C 59.496094 47.726562 59.515625 47.847656 59.515625 47.992188 Z M 59.515625 47.992188 "/>
<path style=" stroke:none;fill-rule:nonzero;fill:rgb(0%,0%,0%);fill-opacity:1;" d="M 19.007812 23.285156 C 19.007812 23.582031 18.964844 23.851562 18.878906 24.09375 C 18.789062 24.335938 18.664062 24.542969 18.5 24.71875 C 18.339844 24.890625 18.140625 25.023438 17.902344 25.117188 C 17.671875 25.207031 17.40625 25.257812 17.113281 25.257812 C 16.792969 25.257812 16.515625 25.207031 16.28125 25.117188 C 16.046875 25.015625 15.851562 24.878906 15.695312 24.707031 C 15.535156 24.527344 15.417969 24.320312 15.335938 24.082031 C 15.257812 23.839844 15.21875 23.570312 15.21875 23.285156 C 15.21875 22.992188 15.257812 22.722656 15.335938 22.488281 C 15.425781 22.242188 15.546875 22.039062 15.707031 21.871094 C 15.871094 21.707031 16.066406 21.578125 16.300781 21.484375 C 16.539062 21.394531 16.808594 21.34375 17.113281 21.34375 C 17.414062 21.34375 17.6875 21.394531 17.925781 21.484375 C 18.164062 21.578125 18.359375 21.710938 18.519531 21.882812 C 18.675781 22.050781 18.796875 22.25 18.878906 22.488281 C 18.964844 22.722656 19.007812 22.992188 19.007812 23.285156 Z M 18.476562 23.285156 C 18.476562 23.054688 18.445312 22.847656 18.390625 22.660156 C 18.332031 22.472656 18.242188 22.3125 18.128906 22.183594 C 18.015625 22.050781 17.871094 21.945312 17.699219 21.871094 C 17.53125 21.800781 17.335938 21.765625 17.113281 21.765625 C 16.886719 21.765625 16.691406 21.800781 16.515625 21.871094 C 16.34375 21.945312 16.199219 22.050781 16.085938 22.183594 C 15.976562 22.3125 15.890625 22.472656 15.835938 22.660156 C 15.777344 22.847656 15.75 23.054688 15.75 23.285156 C 15.75 23.515625 15.777344 23.726562 15.835938 23.917969 C 15.890625 24.109375 15.980469 24.269531 16.09375 24.40625 C 16.207031 24.542969 16.351562 24.648438 16.515625 24.726562 C 16.691406 24.800781 16.886719 24.835938 17.113281 24.835938 C 17.351562 24.835938 17.554688 24.800781 17.730469 24.726562 C 17.902344 24.648438 18.042969 24.542969 18.152344 24.40625 C 18.261719 24.261719 18.339844 24.097656 18.390625 23.910156 C 18.445312 23.714844 18.476562 23.507812 18.476562 23.285156 Z M 18.476562 23.285156 "/>
<path style=" stroke:none;fill-rule:nonzero;fill:rgb(0%,0%,0%);fill-opacity:1;" d="M 19.996094 42.40625 C 19.78125 42.40625 19.589844 42.445312 19.421875 42.511719 C 19.257812 42.585938 19.113281 42.691406 19 42.824219 C 18.894531 42.957031 18.808594 43.113281 18.753906 43.300781 C 18.691406 43.488281 18.667969 43.695312 18.667969 43.925781 C 18.667969 44.15625 18.691406 44.367188 18.753906 44.5625 C 18.816406 44.75 18.90625 44.910156 19.023438 45.046875 C 19.136719 45.183594 19.277344 45.289062 19.445312 45.367188 C 19.617188 45.441406 19.808594 45.476562 20.019531 45.476562 C 20.171875 45.476562 20.304688 45.460938 20.417969 45.421875 C 20.542969 45.378906 20.652344 45.324219 20.753906 45.25 C 20.855469 45.179688 20.941406 45.097656 21.015625 45.003906 C 21.09375 44.910156 21.160156 44.804688 21.21875 44.679688 L 21.644531 44.894531 C 21.578125 45.039062 21.492188 45.171875 21.394531 45.292969 C 21.289062 45.417969 21.171875 45.523438 21.035156 45.617188 C 20.898438 45.703125 20.746094 45.773438 20.570312 45.820312 C 20.398438 45.871094 20.207031 45.898438 19.996094 45.898438 C 19.6875 45.898438 19.414062 45.847656 19.1875 45.757812 C 18.953125 45.65625 18.757812 45.519531 18.601562 45.347656 C 18.449219 45.167969 18.332031 44.960938 18.253906 44.722656 C 18.171875 44.480469 18.136719 44.214844 18.136719 43.925781 C 18.136719 43.632812 18.171875 43.363281 18.253906 43.128906 C 18.339844 42.886719 18.464844 42.679688 18.621094 42.511719 C 18.78125 42.347656 18.972656 42.21875 19.207031 42.125 C 19.4375 42.035156 19.699219 41.984375 19.996094 41.984375 C 20.402344 41.984375 20.734375 42.066406 21.003906 42.222656 C 21.277344 42.382812 21.480469 42.617188 21.609375 42.933594 L 21.125 43.09375 C 21.085938 43.003906 21.035156 42.917969 20.972656 42.835938 C 20.910156 42.75 20.835938 42.679688 20.746094 42.621094 C 20.648438 42.554688 20.542969 42.507812 20.417969 42.46875 C 20.296875 42.425781 20.15625 42.40625 19.996094 42.40625 Z M 19.996094 42.40625 "/>
<path style=" stroke:none;fill-rule:nonzero;fill:rgb(0%,0%,0%);fill-opacity:1;" d="M 82.058594 22.421875 C 81.839844 22.421875 81.648438 22.460938 81.484375 22.53125 C 81.316406 22.601562 81.175781 22.707031 81.0625 22.84375 C 80.953125 22.972656 80.867188 23.128906 80.8125 23.316406 C 80.753906 23.503906 80.726562 23.710938 80.726562 23.941406 C 80.726562 24.171875 80.753906 24.382812 80.8125 24.578125 C 80.878906 24.765625 80.964844 24.925781 81.082031 25.0625 C 81.195312 25.199219 81.335938 25.308594 81.503906 25.386719 C 81.679688 25.457031 81.867188 25.492188 82.078125 25.492188 C 82.230469 25.492188 82.363281 25.476562 82.480469 25.4375 C 82.601562 25.394531 82.710938 25.339844 82.816406 25.265625 C 82.914062 25.195312 83 25.113281 83.074219 25.019531 C 83.152344 24.925781 83.21875 24.820312 83.28125 24.695312 L 83.703125 24.910156 C 83.636719 25.054688 83.554688 25.1875 83.453125 25.308594 C 83.351562 25.433594 83.230469 25.542969 83.097656 25.632812 C 82.957031 25.71875 82.804688 25.789062 82.628906 25.835938 C 82.457031 25.886719 82.265625 25.914062 82.058594 25.914062 C 81.746094 25.914062 81.476562 25.863281 81.246094 25.773438 C 81.011719 25.671875 80.816406 25.535156 80.660156 25.363281 C 80.507812 25.1875 80.394531 24.976562 80.3125 24.738281 C 80.234375 24.496094 80.195312 24.230469 80.195312 23.941406 C 80.195312 23.648438 80.234375 23.382812 80.3125 23.144531 C 80.402344 22.902344 80.523438 22.695312 80.683594 22.53125 C 80.839844 22.367188 81.035156 22.234375 81.265625 22.140625 C 81.496094 22.050781 81.757812 22 82.058594 22 C 82.460938 22 82.796875 22.082031 83.0625 22.238281 C 83.335938 22.398438 83.539062 22.632812 83.667969 22.949219 L 83.183594 23.113281 C 83.144531 23.019531 83.097656 22.933594 83.03125 22.851562 C 82.972656 22.765625 82.894531 22.695312 82.804688 22.636719 C 82.710938 22.574219 82.601562 22.523438 82.480469 22.488281 C 82.355469 22.445312 82.214844 22.421875 82.058594 22.421875 Z M 82.058594 22.421875 "/>
<path style=" stroke:none;fill-rule:nonzero;fill:rgb(0%,0%,0%);fill-opacity:1;" d="M 80.761719 44.707031 C 80.761719 45.003906 80.71875 45.273438 80.628906 45.515625 C 80.542969 45.757812 80.417969 45.96875 80.253906 46.140625 C 80.09375 46.3125 79.894531 46.445312 79.65625 46.539062 C 79.425781 46.628906 79.160156 46.679688 78.867188 46.679688 C 78.546875 46.679688 78.269531 46.628906 78.03125 46.539062 C 77.800781 46.4375 77.605469 46.300781 77.449219 46.128906 C 77.289062 45.949219 77.167969 45.742188 77.089844 45.503906 C 77.011719 45.261719 76.972656 44.996094 76.972656 44.707031 C 76.972656 44.414062 77.011719 44.144531 77.089844 43.910156 C 77.179688 43.667969 77.300781 43.460938 77.460938 43.292969 C 77.625 43.128906 77.820312 43 78.054688 42.90625 C 78.292969 42.816406 78.5625 42.765625 78.867188 42.765625 C 79.167969 42.765625 79.441406 42.816406 79.679688 42.90625 C 79.917969 43 80.113281 43.132812 80.273438 43.304688 C 80.429688 43.472656 80.550781 43.671875 80.628906 43.910156 C 80.71875 44.144531 80.761719 44.414062 80.761719 44.707031 Z M 80.230469 44.707031 C 80.230469 44.476562 80.199219 44.269531 80.144531 44.082031 C 80.085938 43.894531 79.996094 43.738281 79.882812 43.605469 C 79.769531 43.472656 79.625 43.367188 79.449219 43.292969 C 79.285156 43.226562 79.089844 43.1875 78.867188 43.1875 C 78.640625 43.1875 78.445312 43.226562 78.269531 43.292969 C 78.097656 43.367188 77.953125 43.472656 77.839844 43.605469 C 77.730469 43.738281 77.644531 43.894531 77.589844 44.082031 C 77.53125 44.269531 77.503906 44.476562 77.503906 44.707031 C 77.503906 44.9375 77.53125 45.148438 77.589844 45.34375 C 77.644531 45.53125 77.734375 45.691406 77.847656 45.828125 C 77.960938 45.964844 78.101562 46.070312 78.269531 46.148438 C 78.445312 46.222656 78.640625 46.257812 78.867188 46.257812 C 79.105469 46.257812 79.308594 46.222656 79.484375 46.148438 C 79.65625 46.070312 79.796875 45.964844 79.90625 45.828125 C 80.015625 45.683594 80.09375 45.519531 80.144531 45.332031 C 80.199219 45.136719 80.230469 44.929688 80.230469 44.707031 Z M 80.230469 44.707031 "/>
<path style="fill:none;stroke-width:0.0333333;stroke-linecap:butt;stroke-linejoin:miter;stroke:rgb(0%,0%,0%);stroke-opacity:1;stroke-miterlimit:10;" d="M 1.278906 0.175168 L 0.870202 0.858028 " transform="matrix(17.318436,0,0,17.241379,17.113065,17.003295)"/>
<path style="fill:none;stroke-width:0.0333333;stroke-linecap:butt;stroke-linejoin:miter;stroke:rgb(0%,0%,0%);stroke-opacity:1;stroke-miterlimit:10;" d="M 0.870202 0.858028 L 1.361008 1.740262 " transform="matrix(17.318436,0,0,17.241379,17.113065,17.003295)"/>
<path style="fill:none;stroke-width:0.0333333;stroke-linecap:butt;stroke-linejoin:miter;stroke:rgb(0%,0%,0%);stroke-opacity:1;stroke-miterlimit:10;" d="M 1.346798 1.731879 L 2.219243 1.745473 " transform="matrix(17.318436,0,0,17.241379,17.113065,17.003295)"/>
<path style="fill:none;stroke-width:0.0333333;stroke-linecap:butt;stroke-linejoin:miter;stroke:rgb(0%,0%,0%);stroke-opacity:1;stroke-miterlimit:10;" d="M 2.461263 1.572379 L 2.869967 0.889746 " transform="matrix(17.318436,0,0,17.241379,17.113065,17.003295)"/>
<path style="fill:none;stroke-width:0.0333333;stroke-linecap:butt;stroke-linejoin:miter;stroke:rgb(0%,0%,0%);stroke-opacity:1;stroke-miterlimit:10;" d="M 2.869967 0.889746 L 2.378935 0.007512 " transform="matrix(17.318436,0,0,17.241379,17.113065,17.003295)"/>
<path style="fill:none;stroke-width:0.0333333;stroke-linecap:butt;stroke-linejoin:miter;stroke:rgb(0%,0%,0%);stroke-opacity:1;stroke-miterlimit:10;" d="M 1.520701 0.0020745 L 2.393371 0.0158948 " transform="matrix(17.318436,0,0,17.241379,17.113065,17.003295)"/>
<path style="fill:none;stroke-width:0.0333333;stroke-linecap:butt;stroke-linejoin:miter;stroke:rgb(0%,0%,0%);stroke-opacity:1;stroke-miterlimit:10;" d="M 0.870202 0.858028 L 0.182712 0.468793 " transform="matrix(17.318436,0,0,17.241379,17.113065,17.003295)"/>
<path style="fill:none;stroke-width:0.0333333;stroke-linecap:butt;stroke-linejoin:miter;stroke:rgb(0%,0%,0%);stroke-opacity:1;stroke-miterlimit:10;" d="M 0.870202 0.858028 L 0.311503 1.412426 " transform="matrix(17.318436,0,0,17.241379,17.113065,17.003295)"/>
<path style="fill:none;stroke-width:0.0333333;stroke-linecap:butt;stroke-linejoin:miter;stroke:rgb(0%,0%,0%);stroke-opacity:1;stroke-miterlimit:10;" d="M 2.869967 0.889746 L 3.566705 0.501871 " transform="matrix(17.318436,0,0,17.241379,17.113065,17.003295)"/>
<path style="fill:none;stroke-width:0.0333333;stroke-linecap:butt;stroke-linejoin:miter;stroke:rgb(0%,0%,0%);stroke-opacity:1;stroke-miterlimit:10;" d="M 2.869967 0.889746 L 3.413328 1.450489 " transform="matrix(17.318436,0,0,17.241379,17.113065,17.003295)"/>
</g>
</svg>
