<?xml version="1.0" encoding="UTF-8"?>
<svg xmlns="http://www.w3.org/2000/svg" xmlns:xlink="http://www.w3.org/1999/xlink" width="100.8pt" height="84pt" viewBox="0 0 100.8 84" version="1.1">
<g id="surface502">
<path style=" stroke:none;fill-rule:nonzero;fill:rgb(0%,0%,0%);fill-opacity:1;" d="M 19.199219 42.050781 C 19.199219 42.347656 19.15625 42.621094 19.066406 42.867188 C 18.980469 43.113281 18.855469 43.320312 18.691406 43.496094 C 18.53125 43.667969 18.332031 43.804688 18.09375 43.898438 C 17.863281 43.988281 17.601562 44.039062 17.304688 44.039062 C 16.984375 44.039062 16.710938 43.988281 16.472656 43.898438 C 16.238281 43.796875 16.042969 43.660156 15.886719 43.484375 C 15.726562 43.304688 15.609375 43.09375 15.53125 42.855469 C 15.449219 42.609375 15.410156 42.339844 15.410156 42.050781 C 15.410156 41.753906 15.449219 41.484375 15.53125 41.246094 C 15.617188 41.003906 15.738281 40.796875 15.898438 40.628906 C 16.0625 40.460938 16.261719 40.332031 16.492188 40.234375 C 16.730469 40.144531 17.003906 40.09375 17.304688 40.09375 C 17.609375 40.09375 17.878906 40.144531 18.117188 40.234375 C 18.355469 40.332031 18.550781 40.464844 18.710938 40.636719 C 18.867188 40.804688 18.988281 41.007812 19.066406 41.246094 C 19.15625 41.484375 19.199219 41.753906 19.199219 42.050781 Z M 18.667969 42.050781 C 18.667969 41.820312 18.636719 41.609375 18.582031 41.421875 C 18.523438 41.234375 18.433594 41.074219 18.320312 40.941406 C 18.207031 40.804688 18.0625 40.699219 17.890625 40.628906 C 17.722656 40.554688 17.527344 40.519531 17.304688 40.519531 C 17.082031 40.519531 16.882812 40.554688 16.710938 40.628906 C 16.535156 40.699219 16.390625 40.804688 16.277344 40.941406 C 16.167969 41.074219 16.085938 41.234375 16.027344 41.421875 C 15.96875 41.609375 15.941406 41.820312 15.941406 42.050781 C 15.941406 42.285156 15.96875 42.496094 16.027344 42.691406 C 16.085938 42.882812 16.171875 43.042969 16.289062 43.179688 C 16.402344 43.320312 16.542969 43.425781 16.710938 43.507812 C 16.882812 43.578125 17.082031 43.613281 17.304688 43.613281 C 17.542969 43.613281 17.75 43.578125 17.921875 43.507812 C 18.09375 43.425781 18.234375 43.320312 18.34375 43.179688 C 18.453125 43.035156 18.53125 42.871094 18.582031 42.679688 C 18.636719 42.484375 18.667969 42.277344 18.667969 42.050781 Z M 18.667969 42.050781 "/>
<path style="fill:none;stroke-width:0.06;stroke-linecap:butt;stroke-linejoin:miter;stroke:rgb(0%,0%,47.058824%);stroke-opacity:1;stroke-miterlimit:10;" d="M 0.995489 1.450035 L 1.348023 0.491455 " transform="matrix(17.307692,0,0,17.384106,17.305548,17.04244)"/>
<path style="fill:none;stroke-width:0.06;stroke-linecap:butt;stroke-linejoin:miter;stroke:rgb(0%,0%,47.058824%);stroke-opacity:1;stroke-miterlimit:10;" d="M 0.995489 1.429138 L 1.348023 2.387943 " transform="matrix(17.307692,0,0,17.384106,17.305548,17.04244)"/>
<path style="fill:none;stroke-width:0.06;stroke-linecap:butt;stroke-linejoin:miter;stroke:rgb(0%,0%,47.058824%);stroke-opacity:1;stroke-miterlimit:10;" d="M 1.335159 0.506959 L 2.212207 -0.00558715 " transform="matrix(17.307692,0,0,17.384106,17.305548,17.04244)"/>
<path style="fill:none;stroke-width:0.06;stroke-linecap:butt;stroke-linejoin:miter;stroke:rgb(0%,0%,47.058824%);stroke-opacity:1;stroke-miterlimit:10;" d="M 1.335159 2.372213 L 2.212207 2.88476 " transform="matrix(17.307692,0,0,17.384106,17.305548,17.04244)"/>
<path style="fill:none;stroke-width:0.06;stroke-linecap:butt;stroke-linejoin:miter;stroke:rgb(0%,0%,47.058824%);stroke-opacity:1;stroke-miterlimit:10;" d="M 2.191895 -0.00199191 L 3.207068 0.177995 " transform="matrix(17.307692,0,0,17.384106,17.305548,17.04244)"/>
<path style="fill:none;stroke-width:0.06;stroke-linecap:butt;stroke-linejoin:miter;stroke:rgb(0%,0%,47.058824%);stroke-opacity:1;stroke-miterlimit:10;" d="M 2.191895 2.881164 L 3.207068 2.701402 " transform="matrix(17.307692,0,0,17.384106,17.305548,17.04244)"/>
<path style="fill:none;stroke-width:0.06;stroke-linecap:butt;stroke-linejoin:miter;stroke:rgb(0%,0%,47.058824%);stroke-opacity:1;stroke-miterlimit:10;" d="M 3.189239 0.167658 L 3.847364 0.953667 " transform="matrix(17.307692,0,0,17.384106,17.305548,17.04244)"/>
<path style="fill:none;stroke-width:0.06;stroke-linecap:butt;stroke-linejoin:miter;stroke:rgb(0%,0%,47.058824%);stroke-opacity:1;stroke-miterlimit:10;" d="M 3.189239 2.711739 L 3.847364 1.925505 " transform="matrix(17.307692,0,0,17.384106,17.305548,17.04244)"/>
<path style="fill:none;stroke-width:0.06;stroke-linecap:butt;stroke-linejoin:miter;stroke:rgb(0%,0%,47.058824%);stroke-opacity:1;stroke-miterlimit:10;" d="M 3.840367 0.934343 L 3.840367 1.945054 " transform="matrix(17.307692,0,0,17.384106,17.305548,17.04244)"/>
<path style="fill:none;stroke-width:0.0333333;stroke-linecap:butt;stroke-linejoin:miter;stroke:rgb(0%,0%,0%);stroke-opacity:1;stroke-miterlimit:10;" d="M 1.03002 1.356109 L 0.152745 1.356109 " transform="matrix(17.307692,0,0,17.384106,17.305548,17.04244)"/>
<path style="fill:none;stroke-width:0.0333333;stroke-linecap:butt;stroke-linejoin:miter;stroke:rgb(0%,0%,0%);stroke-opacity:1;stroke-miterlimit:10;" d="M 1.03002 1.522838 L 0.152745 1.522838 " transform="matrix(17.307692,0,0,17.384106,17.305548,17.04244)"/>
</g>
</svg>
