<?xml version="1.0" encoding="UTF-8"?>
<svg xmlns="http://www.w3.org/2000/svg" xmlns:xlink="http://www.w3.org/1999/xlink" width="94.4pt" height="68.8pt" viewBox="0 0 94.4 68.8" version="1.1">
<g id="surface912">
<path style=" stroke:none;fill-rule:nonzero;fill:rgb(0%,0%,0%);fill-opacity:1;" d="M 19.042969 51.15625 C 19.042969 51.421875 19.003906 51.667969 18.933594 51.890625 C 18.867188 52.117188 18.765625 52.3125 18.628906 52.488281 C 18.5 52.65625 18.339844 52.789062 18.152344 52.898438 C 17.964844 53.003906 17.746094 53.070312 17.503906 53.105469 C 17.539062 53.21875 17.582031 53.316406 17.632812 53.398438 C 17.679688 53.476562 17.734375 53.542969 17.792969 53.59375 C 17.859375 53.640625 17.929688 53.679688 18 53.703125 C 18.070312 53.726562 18.15625 53.746094 18.25 53.746094 C 18.300781 53.746094 18.351562 53.738281 18.414062 53.734375 C 18.46875 53.726562 18.523438 53.71875 18.566406 53.710938 L 18.566406 54.070312 C 18.492188 54.089844 18.414062 54.105469 18.335938 54.113281 C 18.253906 54.125 18.167969 54.132812 18.078125 54.132812 C 17.925781 54.132812 17.789062 54.109375 17.675781 54.058594 C 17.558594 54.015625 17.457031 53.949219 17.371094 53.863281 C 17.285156 53.777344 17.210938 53.671875 17.144531 53.550781 C 17.078125 53.425781 17.019531 53.285156 16.96875 53.125 C 16.6875 53.109375 16.4375 53.054688 16.222656 52.953125 C 16.003906 52.84375 15.824219 52.703125 15.679688 52.53125 C 15.535156 52.359375 15.425781 52.15625 15.355469 51.925781 C 15.28125 51.6875 15.246094 51.429688 15.246094 51.15625 C 15.246094 50.859375 15.285156 50.589844 15.367188 50.351562 C 15.453125 50.109375 15.574219 49.902344 15.734375 49.734375 C 15.898438 49.570312 16.097656 49.441406 16.332031 49.34375 C 16.570312 49.253906 16.839844 49.203125 17.144531 49.203125 C 17.449219 49.203125 17.71875 49.253906 17.957031 49.34375 C 18.195312 49.441406 18.394531 49.574219 18.554688 49.746094 C 18.710938 49.914062 18.832031 50.113281 18.910156 50.351562 C 19 50.589844 19.042969 50.859375 19.042969 51.15625 Z M 18.511719 51.15625 C 18.511719 50.925781 18.480469 50.714844 18.425781 50.527344 C 18.363281 50.339844 18.277344 50.179688 18.164062 50.050781 C 18.046875 49.914062 17.902344 49.808594 17.730469 49.734375 C 17.5625 49.664062 17.367188 49.625 17.144531 49.625 C 16.917969 49.625 16.722656 49.664062 16.546875 49.734375 C 16.375 49.808594 16.226562 49.914062 16.113281 50.050781 C 16.003906 50.179688 15.921875 50.339844 15.863281 50.527344 C 15.804688 50.714844 15.777344 50.925781 15.777344 51.15625 C 15.777344 51.386719 15.804688 51.597656 15.863281 51.792969 C 15.921875 51.984375 16.007812 52.144531 16.125 52.28125 C 16.238281 52.417969 16.378906 52.527344 16.546875 52.605469 C 16.722656 52.679688 16.917969 52.714844 17.144531 52.714844 C 17.382812 52.714844 17.589844 52.679688 17.761719 52.605469 C 17.9375 52.527344 18.078125 52.417969 18.183594 52.28125 C 18.292969 52.136719 18.371094 51.972656 18.425781 51.78125 C 18.480469 51.589844 18.511719 51.378906 18.511719 51.15625 Z M 18.511719 51.15625 "/>
<path style=" stroke:none;fill-rule:nonzero;fill:rgb(0%,0%,0%);fill-opacity:1;" d="M 79.152344 16.476562 C 79.152344 16.746094 79.117188 16.992188 79.046875 17.214844 C 78.980469 17.4375 78.878906 17.636719 78.742188 17.808594 C 78.613281 17.976562 78.453125 18.113281 78.265625 18.222656 C 78.074219 18.324219 77.859375 18.390625 77.613281 18.429688 C 77.648438 18.542969 77.691406 18.640625 77.742188 18.71875 C 77.792969 18.800781 77.847656 18.863281 77.90625 18.914062 C 77.972656 18.964844 78.039062 19.003906 78.113281 19.023438 C 78.183594 19.050781 78.265625 19.066406 78.363281 19.066406 C 78.410156 19.066406 78.464844 19.0625 78.523438 19.054688 C 78.582031 19.046875 78.632812 19.039062 78.675781 19.035156 L 78.675781 19.390625 C 78.601562 19.414062 78.527344 19.425781 78.449219 19.4375 C 78.367188 19.449219 78.28125 19.457031 78.1875 19.457031 C 78.035156 19.457031 77.902344 19.429688 77.789062 19.382812 C 77.671875 19.339844 77.570312 19.273438 77.484375 19.1875 C 77.398438 19.101562 77.320312 18.992188 77.253906 18.871094 C 77.191406 18.746094 77.132812 18.605469 77.082031 18.449219 C 76.800781 18.433594 76.550781 18.378906 76.332031 18.277344 C 76.117188 18.167969 75.933594 18.027344 75.792969 17.851562 C 75.644531 17.679688 75.535156 17.480469 75.464844 17.246094 C 75.394531 17.007812 75.359375 16.753906 75.359375 16.476562 C 75.359375 16.183594 75.394531 15.914062 75.476562 15.675781 C 75.5625 15.429688 75.6875 15.226562 75.847656 15.058594 C 76.011719 14.890625 76.210938 14.761719 76.441406 14.667969 C 76.679688 14.574219 76.953125 14.527344 77.253906 14.527344 C 77.558594 14.527344 77.832031 14.574219 78.070312 14.667969 C 78.308594 14.761719 78.503906 14.894531 78.664062 15.070312 C 78.824219 15.238281 78.941406 15.4375 79.023438 15.675781 C 79.109375 15.914062 79.152344 16.183594 79.152344 16.476562 Z M 78.621094 16.476562 C 78.621094 16.246094 78.59375 16.039062 78.535156 15.847656 C 78.476562 15.660156 78.390625 15.5 78.273438 15.371094 C 78.160156 15.238281 78.015625 15.128906 77.839844 15.058594 C 77.671875 14.988281 77.476562 14.949219 77.253906 14.949219 C 77.03125 14.949219 76.832031 14.988281 76.660156 15.058594 C 76.484375 15.128906 76.339844 15.238281 76.226562 15.371094 C 76.117188 15.5 76.03125 15.660156 75.976562 15.847656 C 75.917969 16.039062 75.890625 16.246094 75.890625 16.476562 C 75.890625 16.710938 75.917969 16.921875 75.976562 17.117188 C 76.03125 17.304688 76.121094 17.46875 76.238281 17.605469 C 76.351562 17.742188 76.492188 17.851562 76.660156 17.929688 C 76.832031 18.003906 77.03125 18.039062 77.253906 18.039062 C 77.496094 18.039062 77.699219 18.003906 77.875 17.929688 C 78.046875 17.851562 78.1875 17.742188 78.296875 17.605469 C 78.40625 17.460938 78.484375 17.296875 78.535156 17.105469 C 78.59375 16.910156 78.621094 16.703125 78.621094 16.476562 Z M 78.621094 16.476562 "/>
<path style="fill:none;stroke-width:0.0333333;stroke-linecap:butt;stroke-linejoin:miter;stroke:rgb(0%,0%,0%);stroke-opacity:1;stroke-miterlimit:10;" d="M 1.740552 -0.00495146 L 0.857687 0.504881 " transform="matrix(17.352941,0,0,17.33871,17.143957,16.992102)"/>
<path style="fill:none;stroke-width:0.0333333;stroke-linecap:butt;stroke-linejoin:miter;stroke:rgb(0%,0%,0%);stroke-opacity:1;stroke-miterlimit:10;" d="M 0.866016 0.490237 L 0.866016 1.49999 " transform="matrix(17.352941,0,0,17.33871,17.143957,16.992102)"/>
<path style="fill:none;stroke-width:0.0333333;stroke-linecap:butt;stroke-linejoin:miter;stroke:rgb(0%,0%,0%);stroke-opacity:1;stroke-miterlimit:10;" d="M 1.032594 0.586662 L 1.032594 1.403791 " transform="matrix(17.352941,0,0,17.33871,17.143957,16.992102)"/>
<path style="fill:none;stroke-width:0.0333333;stroke-linecap:butt;stroke-linejoin:miter;stroke:rgb(0%,0%,0%);stroke-opacity:1;stroke-miterlimit:10;" d="M 0.857687 1.495259 L 1.740552 2.004867 " transform="matrix(17.352941,0,0,17.33871,17.143957,16.992102)"/>
<path style="fill:none;stroke-width:0.0333333;stroke-linecap:butt;stroke-linejoin:miter;stroke:rgb(0%,0%,0%);stroke-opacity:1;stroke-miterlimit:10;" d="M 1.723669 2.004867 L 2.60631 1.495259 " transform="matrix(17.352941,0,0,17.33871,17.143957,16.992102)"/>
<path style="fill:none;stroke-width:0.0333333;stroke-linecap:butt;stroke-linejoin:miter;stroke:rgb(0%,0%,0%);stroke-opacity:1;stroke-miterlimit:10;" d="M 1.723669 1.812243 L 2.439956 1.398835 " transform="matrix(17.352941,0,0,17.33871,17.143957,16.992102)"/>
<path style="fill:none;stroke-width:0.0333333;stroke-linecap:butt;stroke-linejoin:miter;stroke:rgb(0%,0%,0%);stroke-opacity:1;stroke-miterlimit:10;" d="M 2.598206 1.509678 L 2.598206 0.490237 " transform="matrix(17.352941,0,0,17.33871,17.143957,16.992102)"/>
<path style="fill:none;stroke-width:0.0333333;stroke-linecap:butt;stroke-linejoin:miter;stroke:rgb(0%,0%,0%);stroke-opacity:1;stroke-miterlimit:10;" d="M 1.723669 -0.00495146 L 2.598206 0.499925 " transform="matrix(17.352941,0,0,17.33871,17.143957,16.992102)"/>
<path style="fill:none;stroke-width:0.0333333;stroke-linecap:butt;stroke-linejoin:miter;stroke:rgb(0%,0%,0%);stroke-opacity:1;stroke-miterlimit:10;" d="M 1.723669 0.187672 L 2.431402 0.596349 " transform="matrix(17.352941,0,0,17.33871,17.143957,16.992102)"/>
<path style="fill:none;stroke-width:0.0333333;stroke-linecap:butt;stroke-linejoin:miter;stroke:rgb(0%,0%,0%);stroke-opacity:1;stroke-miterlimit:10;" d="M 0.874345 1.495259 L 0.19475 1.88749 " transform="matrix(17.352941,0,0,17.33871,17.143957,16.992102)"/>
<path style="fill:none;stroke-width:0.0333333;stroke-linecap:butt;stroke-linejoin:miter;stroke:rgb(0%,0%,0%);stroke-opacity:1;stroke-miterlimit:10;" d="M 2.589877 0.504881 L 3.269247 0.112425 " transform="matrix(17.352941,0,0,17.33871,17.143957,16.992102)"/>
</g>
</svg>
