<?xml version="1.0" encoding="UTF-8"?>
<svg xmlns="http://www.w3.org/2000/svg" xmlns:xlink="http://www.w3.org/1999/xlink" width="80pt" height="109.6pt" viewBox="0 0 80 109.6" version="1.1">
<g id="surface1772">
<path style=" stroke:none;fill-rule:nonzero;fill:rgb(0%,0%,0%);fill-opacity:1;" d="M 37.527344 15.542969 C 37.3125 15.542969 37.121094 15.578125 36.957031 15.648438 C 36.789062 15.722656 36.648438 15.828125 36.535156 15.960938 C 36.429688 16.09375 36.34375 16.253906 36.289062 16.4375 C 36.226562 16.628906 36.203125 16.835938 36.203125 17.066406 C 36.203125 17.296875 36.226562 17.507812 36.289062 17.703125 C 36.351562 17.894531 36.441406 18.054688 36.558594 18.191406 C 36.671875 18.328125 36.808594 18.4375 36.976562 18.515625 C 37.148438 18.585938 37.339844 18.621094 37.546875 18.621094 C 37.699219 18.621094 37.832031 18.605469 37.945312 18.566406 C 38.070312 18.523438 38.179688 18.46875 38.28125 18.394531 C 38.382812 18.324219 38.46875 18.242188 38.539062 18.148438 C 38.617188 18.054688 38.683594 17.945312 38.746094 17.824219 L 39.164062 18.039062 C 39.101562 18.183594 39.015625 18.316406 38.917969 18.4375 C 38.816406 18.5625 38.695312 18.671875 38.5625 18.761719 C 38.425781 18.847656 38.269531 18.917969 38.097656 18.96875 C 37.925781 19.015625 37.734375 19.042969 37.527344 19.042969 C 37.21875 19.042969 36.949219 18.996094 36.71875 18.902344 C 36.488281 18.804688 36.292969 18.664062 36.136719 18.492188 C 35.984375 18.3125 35.871094 18.101562 35.792969 17.867188 C 35.710938 17.621094 35.671875 17.355469 35.671875 17.066406 C 35.671875 16.769531 35.710938 16.503906 35.792969 16.265625 C 35.878906 16.023438 36 15.816406 36.160156 15.648438 C 36.316406 15.484375 36.507812 15.355469 36.742188 15.261719 C 36.96875 15.167969 37.230469 15.121094 37.527344 15.121094 C 37.929688 15.121094 38.261719 15.199219 38.527344 15.355469 C 38.800781 15.515625 39.003906 15.753906 39.132812 16.070312 L 38.648438 16.234375 C 38.609375 16.140625 38.5625 16.054688 38.496094 15.972656 C 38.4375 15.886719 38.363281 15.816406 38.269531 15.757812 C 38.175781 15.691406 38.070312 15.644531 37.945312 15.605469 C 37.824219 15.5625 37.683594 15.542969 37.527344 15.542969 Z M 37.527344 15.542969 "/>
<path style=" stroke:none;fill-rule:nonzero;fill:rgb(0%,0%,0%);fill-opacity:1;" d="M 39.917969 18.988281 L 39.917969 14.980469 L 40.402344 14.980469 L 40.402344 18.988281 Z M 39.917969 18.988281 "/>
<path style=" stroke:none;fill-rule:nonzero;fill:rgb(0%,0%,0%);fill-opacity:1;" d="M 43.84375 92.292969 C 43.84375 92.589844 43.800781 92.859375 43.714844 93.105469 C 43.628906 93.351562 43.503906 93.558594 43.335938 93.730469 C 43.179688 93.902344 42.980469 94.039062 42.746094 94.128906 C 42.511719 94.222656 42.253906 94.269531 41.957031 94.269531 C 41.640625 94.269531 41.367188 94.222656 41.128906 94.128906 C 40.898438 94.03125 40.703125 93.894531 40.546875 93.71875 C 40.386719 93.542969 40.269531 93.332031 40.191406 93.09375 C 40.109375 92.851562 40.074219 92.582031 40.074219 92.292969 C 40.074219 92 40.109375 91.730469 40.191406 91.492188 C 40.277344 91.25 40.398438 91.042969 40.558594 90.875 C 40.722656 90.710938 40.917969 90.582031 41.148438 90.488281 C 41.386719 90.394531 41.65625 90.347656 41.957031 90.347656 C 42.261719 90.347656 42.53125 90.394531 42.765625 90.488281 C 43.003906 90.582031 43.199219 90.714844 43.359375 90.886719 C 43.515625 91.054688 43.632812 91.253906 43.714844 91.492188 C 43.800781 91.730469 43.84375 92 43.84375 92.292969 Z M 43.316406 92.292969 C 43.316406 92.0625 43.285156 91.855469 43.230469 91.664062 C 43.171875 91.480469 43.085938 91.320312 42.972656 91.191406 C 42.855469 91.054688 42.710938 90.949219 42.539062 90.875 C 42.375 90.804688 42.179688 90.769531 41.957031 90.769531 C 41.734375 90.769531 41.539062 90.804688 41.367188 90.875 C 41.195312 90.949219 41.046875 91.054688 40.933594 91.191406 C 40.828125 91.320312 40.742188 91.480469 40.6875 91.664062 C 40.628906 91.855469 40.601562 92.0625 40.601562 92.292969 C 40.601562 92.523438 40.628906 92.734375 40.6875 92.929688 C 40.742188 93.121094 40.828125 93.28125 40.945312 93.417969 C 41.058594 93.554688 41.199219 93.664062 41.367188 93.742188 C 41.539062 93.816406 41.734375 93.851562 41.957031 93.851562 C 42.195312 93.851562 42.398438 93.816406 42.574219 93.742188 C 42.746094 93.664062 42.886719 93.554688 42.992188 93.417969 C 43.101562 93.273438 43.179688 93.109375 43.230469 92.917969 C 43.285156 92.726562 43.316406 92.515625 43.316406 92.292969 Z M 43.316406 92.292969 "/>
<path style=" stroke:none;fill-rule:nonzero;fill:rgb(0%,0%,0%);fill-opacity:1;" d="M 63.019531 32.050781 C 62.804688 32.050781 62.613281 32.085938 62.449219 32.15625 C 62.28125 32.230469 62.140625 32.335938 62.027344 32.472656 C 61.921875 32.601562 61.835938 32.761719 61.78125 32.945312 C 61.722656 33.136719 61.695312 33.34375 61.695312 33.574219 C 61.695312 33.808594 61.722656 34.015625 61.78125 34.210938 C 61.84375 34.402344 61.933594 34.5625 62.050781 34.699219 C 62.164062 34.835938 62.304688 34.945312 62.46875 35.023438 C 62.644531 35.097656 62.832031 35.132812 63.042969 35.132812 C 63.191406 35.132812 63.324219 35.113281 63.441406 35.078125 C 63.5625 35.035156 63.671875 34.976562 63.773438 34.902344 C 63.875 34.832031 63.960938 34.75 64.03125 34.65625 C 64.109375 34.5625 64.179688 34.457031 64.238281 34.332031 L 64.65625 34.546875 C 64.59375 34.691406 64.507812 34.824219 64.410156 34.949219 C 64.308594 35.070312 64.1875 35.179688 64.054688 35.273438 C 63.917969 35.359375 63.761719 35.429688 63.589844 35.476562 C 63.417969 35.527344 63.226562 35.554688 63.019531 35.554688 C 62.710938 35.554688 62.441406 35.503906 62.210938 35.414062 C 61.980469 35.3125 61.785156 35.175781 61.628906 35 C 61.480469 34.824219 61.363281 34.613281 61.285156 34.375 C 61.203125 34.132812 61.167969 33.863281 61.167969 33.574219 C 61.167969 33.28125 61.203125 33.011719 61.285156 32.773438 C 61.371094 32.53125 61.492188 32.324219 61.652344 32.15625 C 61.808594 31.992188 62 31.863281 62.234375 31.769531 C 62.460938 31.675781 62.722656 31.628906 63.019531 31.628906 C 63.421875 31.628906 63.753906 31.710938 64.023438 31.867188 C 64.292969 32.027344 64.496094 32.261719 64.625 32.578125 L 64.140625 32.742188 C 64.101562 32.648438 64.054688 32.5625 63.988281 32.480469 C 63.929688 32.394531 63.855469 32.324219 63.761719 32.265625 C 63.667969 32.203125 63.5625 32.152344 63.441406 32.113281 C 63.316406 32.070312 63.175781 32.050781 63.019531 32.050781 Z M 63.019531 32.050781 "/>
<path style=" stroke:none;fill-rule:nonzero;fill:rgb(0%,0%,0%);fill-opacity:1;" d="M 19.066406 44.289062 C 18.851562 44.289062 18.660156 44.324219 18.492188 44.394531 C 18.328125 44.46875 18.1875 44.574219 18.074219 44.710938 C 17.964844 44.839844 17.882812 45 17.824219 45.1875 C 17.765625 45.375 17.738281 45.582031 17.738281 45.8125 C 17.738281 46.046875 17.765625 46.257812 17.824219 46.449219 C 17.890625 46.640625 17.980469 46.800781 18.09375 46.9375 C 18.207031 47.074219 18.347656 47.183594 18.515625 47.261719 C 18.6875 47.335938 18.875 47.371094 19.085938 47.371094 C 19.238281 47.371094 19.371094 47.351562 19.484375 47.316406 C 19.605469 47.273438 19.71875 47.214844 19.820312 47.140625 C 19.917969 47.070312 20.003906 46.988281 20.078125 46.894531 C 20.15625 46.800781 20.222656 46.695312 20.28125 46.570312 L 20.703125 46.785156 C 20.636719 46.929688 20.554688 47.0625 20.457031 47.1875 C 20.351562 47.308594 20.234375 47.417969 20.101562 47.511719 C 19.960938 47.597656 19.808594 47.667969 19.636719 47.714844 C 19.464844 47.765625 19.273438 47.792969 19.066406 47.792969 C 18.753906 47.792969 18.484375 47.742188 18.257812 47.652344 C 18.023438 47.550781 17.832031 47.414062 17.675781 47.238281 C 17.523438 47.0625 17.410156 46.851562 17.332031 46.613281 C 17.25 46.371094 17.210938 46.101562 17.210938 45.8125 C 17.210938 45.519531 17.25 45.25 17.332031 45.011719 C 17.417969 44.769531 17.539062 44.5625 17.695312 44.394531 C 17.851562 44.230469 18.046875 44.101562 18.277344 44.007812 C 18.507812 43.914062 18.769531 43.867188 19.066406 43.867188 C 19.464844 43.867188 19.800781 43.949219 20.066406 44.105469 C 20.339844 44.265625 20.542969 44.5 20.671875 44.816406 L 20.1875 44.980469 C 20.148438 44.886719 20.101562 44.800781 20.035156 44.71875 C 19.976562 44.632812 19.898438 44.5625 19.808594 44.503906 C 19.714844 44.441406 19.605469 44.390625 19.484375 44.351562 C 19.363281 44.308594 19.222656 44.289062 19.066406 44.289062 Z M 19.066406 44.289062 "/>
<path style=" stroke:none;fill-rule:nonzero;fill:rgb(0%,0%,0%);fill-opacity:1;" d="M 61.148438 61.949219 C 60.933594 61.949219 60.742188 61.988281 60.578125 62.058594 C 60.410156 62.132812 60.269531 62.238281 60.15625 62.371094 C 60.046875 62.503906 59.964844 62.660156 59.910156 62.847656 C 59.847656 63.039062 59.820312 63.246094 59.820312 63.476562 C 59.820312 63.707031 59.847656 63.917969 59.910156 64.113281 C 59.972656 64.300781 60.0625 64.464844 60.179688 64.601562 C 60.289062 64.738281 60.429688 64.847656 60.597656 64.925781 C 60.769531 64.996094 60.960938 65.03125 61.167969 65.03125 C 61.320312 65.03125 61.453125 65.015625 61.566406 64.976562 C 61.6875 64.933594 61.800781 64.878906 61.902344 64.804688 C 62 64.734375 62.085938 64.652344 62.160156 64.554688 C 62.238281 64.464844 62.304688 64.355469 62.367188 64.230469 L 62.785156 64.449219 C 62.722656 64.59375 62.636719 64.726562 62.539062 64.847656 C 62.433594 64.972656 62.316406 65.082031 62.183594 65.171875 C 62.042969 65.257812 61.890625 65.328125 61.71875 65.378906 C 61.546875 65.425781 61.355469 65.453125 61.148438 65.453125 C 60.835938 65.453125 60.570312 65.40625 60.339844 65.3125 C 60.109375 65.214844 59.914062 65.074219 59.757812 64.902344 C 59.605469 64.722656 59.492188 64.511719 59.414062 64.277344 C 59.332031 64.03125 59.292969 63.765625 59.292969 63.476562 C 59.292969 63.179688 59.332031 62.914062 59.414062 62.675781 C 59.5 62.433594 59.621094 62.226562 59.777344 62.058594 C 59.933594 61.894531 60.128906 61.765625 60.359375 61.671875 C 60.589844 61.578125 60.851562 61.53125 61.148438 61.53125 C 61.550781 61.53125 61.882812 61.609375 62.148438 61.765625 C 62.421875 61.925781 62.625 62.164062 62.753906 62.480469 L 62.269531 62.644531 C 62.230469 62.550781 62.183594 62.464844 62.117188 62.382812 C 62.058594 62.296875 61.984375 62.226562 61.890625 62.167969 C 61.796875 62.101562 61.6875 62.054688 61.566406 62.015625 C 61.445312 61.972656 61.304688 61.949219 61.148438 61.949219 Z M 61.148438 61.949219 "/>
<path style=" stroke:none;fill-rule:nonzero;fill:rgb(0%,0%,0%);fill-opacity:1;" d="M 17.191406 74.1875 C 16.976562 74.1875 16.785156 74.226562 16.621094 74.296875 C 16.453125 74.371094 16.316406 74.476562 16.203125 74.609375 C 16.09375 74.742188 16.011719 74.898438 15.953125 75.085938 C 15.894531 75.277344 15.867188 75.484375 15.867188 75.714844 C 15.867188 75.945312 15.894531 76.15625 15.953125 76.351562 C 16.019531 76.539062 16.105469 76.703125 16.222656 76.839844 C 16.335938 76.976562 16.476562 77.085938 16.644531 77.164062 C 16.816406 77.234375 17.003906 77.269531 17.214844 77.269531 C 17.367188 77.269531 17.496094 77.253906 17.613281 77.214844 C 17.734375 77.171875 17.84375 77.117188 17.945312 77.042969 C 18.046875 76.972656 18.132812 76.890625 18.207031 76.796875 C 18.285156 76.703125 18.351562 76.59375 18.410156 76.46875 L 18.832031 76.6875 C 18.765625 76.832031 18.683594 76.964844 18.582031 77.085938 C 18.480469 77.210938 18.363281 77.320312 18.226562 77.410156 C 18.089844 77.496094 17.9375 77.566406 17.765625 77.617188 C 17.589844 77.664062 17.398438 77.691406 17.191406 77.691406 C 16.882812 77.691406 16.613281 77.644531 16.382812 77.550781 C 16.152344 77.453125 15.960938 77.3125 15.804688 77.140625 C 15.652344 76.960938 15.535156 76.75 15.457031 76.515625 C 15.378906 76.269531 15.339844 76.003906 15.339844 75.714844 C 15.339844 75.417969 15.378906 75.152344 15.457031 74.914062 C 15.542969 74.671875 15.664062 74.464844 15.824219 74.296875 C 15.980469 74.132812 16.175781 74.003906 16.40625 73.910156 C 16.636719 73.816406 16.898438 73.769531 17.191406 73.769531 C 17.59375 73.769531 17.929688 73.847656 18.195312 74.003906 C 18.46875 74.164062 18.667969 74.402344 18.796875 74.71875 L 18.3125 74.882812 C 18.277344 74.789062 18.226562 74.703125 18.164062 74.621094 C 18.101562 74.535156 18.027344 74.464844 17.9375 74.40625 C 17.84375 74.339844 17.734375 74.292969 17.613281 74.253906 C 17.488281 74.210938 17.347656 74.1875 17.191406 74.1875 Z M 17.191406 74.1875 "/>
<path style="fill:none;stroke-width:0.0333333;stroke-linecap:butt;stroke-linejoin:miter;stroke:rgb(0%,0%,0%);stroke-opacity:1;stroke-miterlimit:10;" d="M 1.315197 0.200912 L 1.66433 0.904344 " transform="matrix(17.241379,0,0,17.29798,17.085908,17.012918)"/>
<path style="fill:none;stroke-width:0.0333333;stroke-linecap:butt;stroke-linejoin:miter;stroke:rgb(0%,0%,0%);stroke-opacity:1;stroke-miterlimit:10;" d="M 1.665236 0.887634 L 1.101322 1.736721 " transform="matrix(17.241379,0,0,17.29798,17.085908,17.012918)"/>
<path style="fill:none;stroke-width:0.0333333;stroke-linecap:butt;stroke-linejoin:miter;stroke:rgb(0%,0%,0%);stroke-opacity:1;stroke-miterlimit:10;" d="M 1.102455 1.720011 L 1.55558 2.63278 " transform="matrix(17.241379,0,0,17.29798,17.085908,17.012918)"/>
<path style="fill:none;stroke-width:0.0333333;stroke-linecap:butt;stroke-linejoin:miter;stroke:rgb(0%,0%,0%);stroke-opacity:1;stroke-miterlimit:10;" d="M 1.556713 2.616295 L 0.992799 3.465156 " transform="matrix(17.241379,0,0,17.29798,17.085908,17.012918)"/>
<path style="fill:none;stroke-width:0.0333333;stroke-linecap:butt;stroke-linejoin:miter;stroke:rgb(0%,0%,0%);stroke-opacity:1;stroke-miterlimit:10;" d="M 0.993705 3.448672 L 1.350088 4.166331 " transform="matrix(17.241379,0,0,17.29798,17.085908,17.012918)"/>
<path style="fill:none;stroke-width:0.0333333;stroke-linecap:butt;stroke-linejoin:miter;stroke:rgb(0%,0%,0%);stroke-opacity:1;stroke-miterlimit:10;" d="M 1.660025 0.895763 L 1.730033 0.90999 L 1.802306 0.88515 L 1.869595 0.937992 L 1.944588 0.874536 L 2.009385 0.966219 L 2.086642 0.864148 L 2.1494 0.994673 L 2.228924 0.853535 L 2.289189 1.022901 L 2.371205 0.843147 L 2.428752 1.051128 L 2.513486 0.832307 " transform="matrix(17.241379,0,0,17.29798,17.085908,17.012918)"/>
<path style="fill:none;stroke-width:0.0333333;stroke-linecap:butt;stroke-linejoin:miter;stroke:rgb(0%,0%,0%);stroke-opacity:1;stroke-miterlimit:10;" d="M 1.10676 1.728592 L 1.036752 1.714365 L 0.964478 1.739205 L 0.896963 1.686137 L 0.822197 1.749819 L 0.757174 1.65791 L 0.679916 1.760207 L 0.617385 1.629682 L 0.537861 1.77082 L 0.477595 1.601454 L 0.395353 1.781434 L 0.337806 1.573227 L 0.253299 1.792047 " transform="matrix(17.241379,0,0,17.29798,17.085908,17.012918)"/>
<path style=" stroke:none;fill-rule:nonzero;fill:rgb(0%,0%,0%);fill-opacity:1;" d="M 43.832031 62.40625 L 58.292969 65.34375 L 58.546875 61.3125 "/>
<path style="fill:none;stroke-width:0.0333333;stroke-linecap:butt;stroke-linejoin:bevel;stroke:rgb(0%,0%,0%);stroke-opacity:1;stroke-miterlimit:10;" d="M 0.928002 3.443026 L 0.927095 3.462672 M 0.85822 3.429025 L 0.855728 3.467641 M 0.788439 3.415024 L 0.784588 3.47306 M 0.718431 3.400797 L 0.713447 3.478254 M 0.64865 3.386571 L 0.642533 3.483674 M 0.578642 3.372344 L 0.571392 3.488868 M 0.508635 3.358343 L 0.500252 3.494062 M 0.438853 3.344116 L 0.429111 3.499481 M 0.368845 3.330115 L 0.35797 3.504675 M 0.299064 3.315889 L 0.28683 3.509869 M 0.229283 3.301888 L 0.215689 3.515289 M 0.159275 3.287661 L 0.144549 3.520483 " transform="matrix(17.241379,0,0,17.29798,17.085908,17.012918)"/>
</g>
</svg>
