<?xml version="1.0" encoding="UTF-8"?>
<svg xmlns="http://www.w3.org/2000/svg" xmlns:xlink="http://www.w3.org/1999/xlink" width="158.4pt" height="84pt" viewBox="0 0 158.4 84" version="1.1">
<g id="surface812">
<path style=" stroke:none;fill-rule:nonzero;fill:rgb(0%,0%,0%);fill-opacity:1;" d="M 128.789062 9.371094 C 128.574219 9.371094 128.382812 9.410156 128.21875 9.480469 C 128.050781 9.550781 127.910156 9.65625 127.796875 9.792969 C 127.6875 9.921875 127.605469 10.082031 127.546875 10.265625 C 127.488281 10.457031 127.460938 10.664062 127.460938 10.894531 C 127.460938 11.125 127.488281 11.335938 127.546875 11.53125 C 127.613281 11.71875 127.699219 11.882812 127.816406 12.015625 C 127.929688 12.152344 128.070312 12.261719 128.238281 12.339844 C 128.414062 12.414062 128.601562 12.449219 128.8125 12.449219 C 128.964844 12.449219 129.097656 12.429688 129.210938 12.394531 C 129.335938 12.351562 129.445312 12.292969 129.546875 12.222656 C 129.648438 12.152344 129.734375 12.066406 129.808594 11.972656 C 129.886719 11.882812 129.953125 11.773438 130.011719 11.648438 L 130.433594 11.863281 C 130.371094 12.011719 130.285156 12.144531 130.1875 12.265625 C 130.082031 12.386719 129.964844 12.496094 129.828125 12.589844 C 129.691406 12.675781 129.539062 12.746094 129.363281 12.792969 C 129.191406 12.839844 129 12.867188 128.789062 12.867188 C 128.480469 12.867188 128.210938 12.820312 127.980469 12.726562 C 127.746094 12.628906 127.550781 12.492188 127.394531 12.316406 C 127.242188 12.140625 127.128906 11.929688 127.050781 11.691406 C 126.96875 11.449219 126.929688 11.183594 126.929688 10.894531 C 126.929688 10.597656 126.96875 10.332031 127.050781 10.09375 C 127.136719 9.851562 127.257812 9.648438 127.417969 9.480469 C 127.574219 9.316406 127.769531 9.183594 128 9.089844 C 128.230469 9 128.492188 8.949219 128.789062 8.949219 C 129.195312 8.949219 129.527344 9.03125 129.796875 9.1875 C 130.070312 9.347656 130.273438 9.585938 130.402344 9.902344 L 129.914062 10.0625 C 129.878906 9.96875 129.828125 9.882812 129.765625 9.804688 C 129.703125 9.71875 129.628906 9.648438 129.539062 9.585938 C 129.441406 9.523438 129.335938 9.472656 129.210938 9.4375 C 129.089844 9.394531 128.949219 9.371094 128.789062 9.371094 Z M 128.789062 9.371094 "/>
<path style=" stroke:none;fill-rule:nonzero;fill:rgb(0%,0%,0%);fill-opacity:1;" d="M 131.667969 10.398438 C 131.722656 10.296875 131.78125 10.214844 131.839844 10.148438 C 131.90625 10.078125 131.972656 10.019531 132.046875 9.976562 C 132.125 9.925781 132.207031 9.890625 132.292969 9.867188 C 132.386719 9.847656 132.492188 9.835938 132.609375 9.835938 C 132.796875 9.835938 132.945312 9.863281 133.0625 9.910156 C 133.183594 9.960938 133.277344 10.035156 133.34375 10.128906 C 133.414062 10.222656 133.464844 10.332031 133.496094 10.460938 C 133.523438 10.585938 133.539062 10.722656 133.539062 10.871094 L 133.539062 12.816406 L 133.042969 12.816406 L 133.042969 10.957031 C 133.042969 10.835938 133.03125 10.730469 133.019531 10.632812 C 133.003906 10.542969 132.976562 10.46875 132.933594 10.40625 C 132.890625 10.34375 132.828125 10.296875 132.75 10.265625 C 132.667969 10.230469 132.566406 10.214844 132.445312 10.214844 C 132.328125 10.214844 132.222656 10.234375 132.132812 10.277344 C 132.039062 10.320312 131.960938 10.382812 131.894531 10.460938 C 131.828125 10.535156 131.777344 10.625 131.742188 10.730469 C 131.707031 10.839844 131.6875 10.957031 131.6875 11.085938 L 131.6875 12.816406 L 131.203125 12.816406 L 131.203125 8.808594 L 131.6875 8.808594 L 131.6875 9.847656 C 131.6875 9.910156 131.683594 9.972656 131.679688 10.03125 C 131.679688 10.089844 131.671875 10.144531 131.667969 10.191406 C 131.667969 10.242188 131.667969 10.285156 131.667969 10.320312 C 131.667969 10.359375 131.667969 10.382812 131.667969 10.398438 Z M 131.667969 10.398438 "/>
<path style=" stroke:none;fill-rule:nonzero;fill:rgb(0%,0%,0%);fill-opacity:1;" d="M 134.386719 9.273438 L 134.386719 8.808594 L 134.875 8.808594 L 134.875 9.273438 Z M 134.386719 12.816406 L 134.386719 9.890625 L 134.875 9.890625 L 134.875 12.816406 Z M 134.386719 12.816406 "/>
<path style=" stroke:none;fill-rule:nonzero;fill:rgb(0%,0%,0%);fill-opacity:1;" d="M 135.691406 12.816406 L 135.691406 10.570312 C 135.691406 10.511719 135.683594 10.449219 135.679688 10.386719 C 135.679688 10.320312 135.679688 10.261719 135.679688 10.203125 C 135.679688 10.144531 135.671875 10.09375 135.667969 10.039062 C 135.667969 9.984375 135.667969 9.933594 135.667969 9.890625 L 136.132812 9.890625 C 136.132812 9.933594 136.132812 9.984375 136.132812 10.039062 C 136.136719 10.09375 136.144531 10.144531 136.144531 10.203125 C 136.144531 10.253906 136.144531 10.308594 136.144531 10.363281 C 136.148438 10.414062 136.15625 10.460938 136.15625 10.492188 L 136.164062 10.492188 C 136.191406 10.378906 136.226562 10.285156 136.261719 10.203125 C 136.304688 10.117188 136.351562 10.046875 136.402344 9.996094 C 136.460938 9.949219 136.523438 9.910156 136.597656 9.878906 C 136.667969 9.851562 136.753906 9.835938 136.859375 9.835938 C 136.894531 9.835938 136.929688 9.839844 136.964844 9.847656 C 137 9.855469 137.03125 9.863281 137.050781 9.867188 L 137.050781 10.3125 C 137.023438 10.304688 136.988281 10.300781 136.945312 10.300781 C 136.902344 10.292969 136.851562 10.289062 136.792969 10.289062 C 136.683594 10.289062 136.589844 10.316406 136.511719 10.363281 C 136.429688 10.414062 136.367188 10.484375 136.316406 10.570312 C 136.265625 10.65625 136.230469 10.765625 136.207031 10.894531 C 136.1875 11.015625 136.175781 11.148438 136.175781 11.292969 L 136.175781 12.816406 Z M 135.691406 12.816406 "/>
<path style=" stroke:none;fill-rule:nonzero;fill:rgb(0%,0%,0%);fill-opacity:1;" d="M 138.34375 12.867188 C 138.046875 12.867188 137.824219 12.792969 137.675781 12.640625 C 137.527344 12.484375 137.457031 12.269531 137.457031 11.996094 C 137.457031 11.808594 137.492188 11.65625 137.566406 11.53125 C 137.636719 11.402344 137.730469 11.304688 137.847656 11.238281 C 137.96875 11.167969 138.105469 11.117188 138.257812 11.085938 C 138.410156 11.0625 138.5625 11.042969 138.722656 11.042969 L 139.371094 11.035156 L 139.371094 10.871094 C 139.371094 10.75 139.355469 10.652344 139.328125 10.570312 C 139.308594 10.484375 139.269531 10.414062 139.222656 10.363281 C 139.171875 10.308594 139.105469 10.265625 139.027344 10.246094 C 138.945312 10.222656 138.855469 10.214844 138.746094 10.214844 C 138.652344 10.214844 138.5625 10.222656 138.484375 10.234375 C 138.414062 10.242188 138.347656 10.265625 138.292969 10.300781 C 138.238281 10.335938 138.195312 10.386719 138.160156 10.449219 C 138.125 10.511719 138.101562 10.585938 138.097656 10.675781 L 137.589844 10.625 C 137.601562 10.511719 137.632812 10.40625 137.683594 10.3125 C 137.734375 10.21875 137.808594 10.136719 137.902344 10.0625 C 137.992188 9.992188 138.109375 9.9375 138.246094 9.902344 C 138.390625 9.855469 138.5625 9.835938 138.757812 9.835938 C 139.125 9.835938 139.398438 9.921875 139.589844 10.09375 C 139.777344 10.261719 139.871094 10.503906 139.871094 10.816406 L 139.871094 12.082031 C 139.871094 12.226562 139.886719 12.335938 139.925781 12.40625 C 139.960938 12.476562 140.03125 12.511719 140.140625 12.511719 C 140.167969 12.511719 140.195312 12.511719 140.214844 12.511719 C 140.242188 12.507812 140.273438 12.5 140.304688 12.492188 L 140.304688 12.792969 C 140.238281 12.816406 140.175781 12.828125 140.121094 12.835938 C 140.058594 12.839844 139.996094 12.847656 139.925781 12.847656 C 139.828125 12.847656 139.75 12.835938 139.6875 12.816406 C 139.621094 12.789062 139.566406 12.746094 139.523438 12.695312 C 139.488281 12.648438 139.460938 12.585938 139.4375 12.511719 C 139.417969 12.441406 139.398438 12.355469 139.394531 12.253906 L 139.371094 12.253906 C 139.320312 12.347656 139.265625 12.433594 139.199219 12.511719 C 139.140625 12.585938 139.070312 12.648438 138.984375 12.707031 C 138.902344 12.757812 138.808594 12.796875 138.703125 12.824219 C 138.597656 12.851562 138.480469 12.867188 138.34375 12.867188 Z M 138.453125 12.5 C 138.605469 12.5 138.738281 12.476562 138.855469 12.414062 C 138.976562 12.359375 139.074219 12.285156 139.144531 12.199219 C 139.222656 12.113281 139.28125 12.019531 139.320312 11.917969 C 139.355469 11.8125 139.371094 11.710938 139.371094 11.617188 L 139.371094 11.367188 L 138.84375 11.378906 C 138.726562 11.386719 138.617188 11.398438 138.507812 11.410156 C 138.398438 11.425781 138.300781 11.453125 138.214844 11.496094 C 138.132812 11.542969 138.070312 11.605469 138.019531 11.691406 C 137.976562 11.773438 137.957031 11.875 137.957031 12.003906 C 137.957031 12.164062 138 12.285156 138.085938 12.371094 C 138.171875 12.457031 138.292969 12.5 138.453125 12.5 Z M 138.453125 12.5 "/>
<path style=" stroke:none;fill-rule:nonzero;fill:rgb(0%,0%,0%);fill-opacity:1;" d="M 140.804688 12.816406 L 140.804688 8.808594 L 141.292969 8.808594 L 141.292969 12.816406 Z M 140.804688 12.816406 "/>
<path style=" stroke:none;fill-rule:nonzero;fill:rgb(0%,0%,47.058824%);fill-opacity:1;" d="M 97.757812 42.652344 L 96.089844 39.726562 C 96.105469 39.808594 96.113281 39.886719 96.121094 39.964844 C 96.128906 40.027344 96.132812 40.101562 96.132812 40.179688 C 96.140625 40.261719 96.144531 40.335938 96.144531 40.40625 L 96.144531 42.652344 L 95.429688 42.652344 L 95.429688 38.851562 L 96.351562 38.851562 L 98.027344 41.796875 C 98.019531 41.726562 98.011719 41.648438 98.003906 41.5625 C 97.996094 41.492188 97.988281 41.410156 97.984375 41.324219 C 97.984375 41.238281 97.984375 41.148438 97.984375 41.054688 L 97.984375 38.851562 L 98.6875 38.851562 L 98.6875 42.652344 Z M 97.757812 42.652344 "/>
<path style=" stroke:none;fill-rule:nonzero;fill:rgb(0%,0%,47.058824%);fill-opacity:1;" d="M 80.300781 38.316406 L 78.632812 35.390625 C 78.648438 35.46875 78.65625 35.546875 78.667969 35.625 C 78.671875 35.691406 78.675781 35.765625 78.675781 35.84375 C 78.683594 35.921875 78.6875 36 78.6875 36.070312 L 78.6875 38.316406 L 77.972656 38.316406 L 77.972656 34.515625 L 78.894531 34.515625 L 80.570312 37.460938 C 80.5625 37.390625 80.554688 37.3125 80.546875 37.222656 C 80.539062 37.152344 80.53125 37.074219 80.527344 36.988281 C 80.527344 36.902344 80.527344 36.8125 80.527344 36.71875 L 80.527344 34.515625 L 81.230469 34.515625 L 81.230469 38.316406 Z M 80.300781 38.316406 "/>
<path style=" stroke:none;fill-rule:nonzero;fill:rgb(0%,0%,0%);fill-opacity:1;" d="M 81.707031 65.433594 C 81.707031 65.59375 81.671875 65.742188 81.609375 65.875 C 81.550781 66.003906 81.457031 66.121094 81.328125 66.222656 C 81.199219 66.324219 81.03125 66.402344 80.828125 66.457031 C 80.636719 66.507812 80.402344 66.535156 80.136719 66.535156 C 79.660156 66.535156 79.289062 66.453125 79.023438 66.285156 C 78.753906 66.121094 78.585938 65.882812 78.515625 65.5625 L 79.023438 65.464844 C 79.042969 65.566406 79.078125 65.65625 79.132812 65.734375 C 79.1875 65.816406 79.261719 65.886719 79.347656 65.953125 C 79.433594 66.011719 79.542969 66.058594 79.671875 66.09375 C 79.808594 66.121094 79.96875 66.136719 80.148438 66.136719 C 80.304688 66.136719 80.445312 66.121094 80.570312 66.09375 C 80.699219 66.066406 80.8125 66.023438 80.90625 65.972656 C 80.996094 65.917969 81.070312 65.847656 81.121094 65.769531 C 81.171875 65.683594 81.199219 65.578125 81.199219 65.453125 C 81.199219 65.332031 81.167969 65.234375 81.109375 65.152344 C 81.050781 65.074219 80.972656 65.007812 80.871094 64.957031 C 80.769531 64.910156 80.648438 64.871094 80.503906 64.839844 C 80.359375 64.804688 80.203125 64.765625 80.027344 64.722656 C 79.921875 64.699219 79.8125 64.675781 79.703125 64.644531 C 79.601562 64.617188 79.5 64.585938 79.402344 64.546875 C 79.300781 64.511719 79.207031 64.46875 79.121094 64.417969 C 79.035156 64.363281 78.957031 64.296875 78.894531 64.222656 C 78.832031 64.15625 78.789062 64.070312 78.753906 63.976562 C 78.714844 63.875 78.699219 63.765625 78.699219 63.640625 C 78.699219 63.464844 78.734375 63.308594 78.808594 63.175781 C 78.878906 63.046875 78.980469 62.945312 79.109375 62.863281 C 79.238281 62.777344 79.390625 62.71875 79.5625 62.679688 C 79.742188 62.636719 79.9375 62.617188 80.148438 62.617188 C 80.378906 62.617188 80.574219 62.636719 80.742188 62.679688 C 80.917969 62.71875 81.058594 62.773438 81.175781 62.84375 C 81.289062 62.914062 81.382812 63.003906 81.445312 63.113281 C 81.515625 63.222656 81.574219 63.347656 81.621094 63.492188 L 81.109375 63.585938 C 81.082031 63.496094 81.039062 63.414062 80.992188 63.339844 C 80.949219 63.269531 80.886719 63.207031 80.808594 63.15625 C 80.734375 63.105469 80.640625 63.070312 80.527344 63.046875 C 80.417969 63.019531 80.289062 63.003906 80.136719 63.003906 C 79.964844 63.003906 79.816406 63.023438 79.695312 63.058594 C 79.570312 63.089844 79.472656 63.132812 79.402344 63.1875 C 79.328125 63.238281 79.273438 63.300781 79.238281 63.371094 C 79.210938 63.445312 79.195312 63.523438 79.195312 63.609375 C 79.195312 63.726562 79.222656 63.820312 79.28125 63.890625 C 79.339844 63.960938 79.414062 64.023438 79.511719 64.074219 C 79.609375 64.125 79.726562 64.167969 79.855469 64.203125 C 79.984375 64.234375 80.121094 64.261719 80.265625 64.289062 C 80.378906 64.320312 80.496094 64.347656 80.613281 64.375 C 80.726562 64.40625 80.839844 64.4375 80.949219 64.472656 C 81.058594 64.511719 81.152344 64.554688 81.242188 64.613281 C 81.332031 64.664062 81.414062 64.730469 81.480469 64.808594 C 81.550781 64.878906 81.601562 64.964844 81.640625 65.066406 C 81.683594 65.167969 81.707031 65.289062 81.707031 65.433594 Z M 81.707031 65.433594 "/>
<path style=" stroke:none;fill-rule:nonzero;fill:rgb(0%,0%,0%);fill-opacity:1;" d="M 112.824219 69.25 L 110.78125 66.011719 C 110.785156 66.097656 110.789062 66.183594 110.789062 66.269531 C 110.796875 66.34375 110.800781 66.421875 110.800781 66.507812 C 110.808594 66.589844 110.8125 66.660156 110.8125 66.722656 L 110.8125 69.25 L 110.347656 69.25 L 110.347656 65.449219 L 110.953125 65.449219 L 113.007812 68.710938 C 113.007812 68.710938 113.003906 68.621094 112.996094 68.4375 C 112.988281 68.371094 112.980469 68.289062 112.976562 68.203125 C 112.976562 68.109375 112.976562 68.023438 112.976562 67.941406 L 112.976562 65.449219 L 113.441406 65.449219 L 113.441406 69.25 Z M 112.824219 69.25 "/>
<path style=" stroke:none;fill-rule:nonzero;fill:rgb(0%,0%,47.058824%);fill-opacity:1;" d="M 113.425781 16.90625 C 113.425781 17.203125 113.378906 17.476562 113.285156 17.71875 C 113.199219 17.964844 113.074219 18.171875 112.910156 18.34375 C 112.742188 18.515625 112.539062 18.652344 112.300781 18.742188 C 112.066406 18.835938 111.792969 18.882812 111.492188 18.882812 C 111.171875 18.882812 110.894531 18.835938 110.660156 18.742188 C 110.421875 18.644531 110.21875 18.503906 110.050781 18.332031 C 109.894531 18.15625 109.773438 17.945312 109.695312 17.707031 C 109.613281 17.464844 109.578125 17.195312 109.578125 16.90625 C 109.578125 16.613281 109.613281 16.347656 109.695312 16.109375 C 109.78125 15.867188 109.90625 15.660156 110.074219 15.496094 C 110.238281 15.328125 110.441406 15.199219 110.679688 15.105469 C 110.917969 15.015625 111.191406 14.964844 111.503906 14.964844 C 111.808594 14.964844 112.085938 15.015625 112.324219 15.105469 C 112.5625 15.199219 112.757812 15.332031 112.917969 15.503906 C 113.085938 15.671875 113.210938 15.871094 113.296875 16.109375 C 113.382812 16.347656 113.425781 16.613281 113.425781 16.90625 Z M 112.617188 16.90625 C 112.617188 16.707031 112.589844 16.527344 112.539062 16.367188 C 112.488281 16.210938 112.417969 16.074219 112.324219 15.957031 C 112.230469 15.84375 112.113281 15.753906 111.976562 15.6875 C 111.839844 15.625 111.679688 15.589844 111.503906 15.589844 C 111.3125 15.589844 111.148438 15.625 111.003906 15.6875 C 110.867188 15.753906 110.75 15.84375 110.660156 15.957031 C 110.5625 16.074219 110.492188 16.210938 110.441406 16.367188 C 110.398438 16.527344 110.378906 16.707031 110.378906 16.90625 C 110.378906 17.109375 110.402344 17.292969 110.453125 17.457031 C 110.5 17.617188 110.574219 17.757812 110.667969 17.878906 C 110.761719 17.996094 110.878906 18.089844 111.015625 18.160156 C 111.152344 18.226562 111.308594 18.257812 111.492188 18.257812 C 111.6875 18.257812 111.851562 18.226562 111.988281 18.160156 C 112.132812 18.089844 112.25 17.996094 112.347656 17.878906 C 112.4375 17.757812 112.507812 17.613281 112.550781 17.449219 C 112.59375 17.285156 112.617188 17.101562 112.617188 16.90625 Z M 112.617188 16.90625 "/>
<path style=" stroke:none;fill-rule:nonzero;fill:rgb(0%,0%,0%);fill-opacity:1;" d="M 143.183594 65.421875 C 143.183594 65.714844 143.140625 65.988281 143.054688 66.230469 C 142.96875 66.476562 142.839844 66.683594 142.675781 66.855469 C 142.515625 67.027344 142.316406 67.164062 142.078125 67.253906 C 141.847656 67.347656 141.585938 67.394531 141.289062 67.394531 C 140.972656 67.394531 140.695312 67.347656 140.457031 67.253906 C 140.226562 67.15625 140.03125 67.015625 139.875 66.84375 C 139.714844 66.667969 139.59375 66.457031 139.515625 66.21875 C 139.433594 65.976562 139.398438 65.707031 139.398438 65.421875 C 139.398438 65.125 139.433594 64.859375 139.515625 64.621094 C 139.601562 64.378906 139.722656 64.171875 139.882812 64.007812 C 140.050781 63.839844 140.246094 63.710938 140.480469 63.617188 C 140.71875 63.527344 140.988281 63.476562 141.289062 63.476562 C 141.59375 63.476562 141.863281 63.527344 142.101562 63.617188 C 142.339844 63.710938 142.535156 63.84375 142.695312 64.015625 C 142.851562 64.183594 142.972656 64.382812 143.054688 64.621094 C 143.140625 64.859375 143.183594 65.125 143.183594 65.421875 Z M 142.652344 65.421875 C 142.652344 65.191406 142.625 64.984375 142.566406 64.792969 C 142.507812 64.609375 142.421875 64.449219 142.308594 64.320312 C 142.191406 64.183594 142.046875 64.078125 141.875 64.007812 C 141.707031 63.9375 141.511719 63.898438 141.289062 63.898438 C 141.066406 63.898438 140.867188 63.9375 140.695312 64.007812 C 140.523438 64.078125 140.375 64.183594 140.261719 64.320312 C 140.15625 64.449219 140.070312 64.609375 140.015625 64.792969 C 139.953125 64.984375 139.925781 65.191406 139.925781 65.421875 C 139.925781 65.652344 139.953125 65.863281 140.015625 66.058594 C 140.070312 66.246094 140.15625 66.40625 140.273438 66.542969 C 140.386719 66.679688 140.527344 66.789062 140.695312 66.867188 C 140.867188 66.9375 141.066406 66.972656 141.289062 66.972656 C 141.527344 66.972656 141.734375 66.9375 141.90625 66.867188 C 142.078125 66.789062 142.21875 66.679688 142.328125 66.542969 C 142.4375 66.398438 142.515625 66.234375 142.566406 66.046875 C 142.625 65.851562 142.652344 65.644531 142.652344 65.421875 Z M 142.652344 65.421875 "/>
<path style="fill:none;stroke-width:0.06;stroke-linecap:butt;stroke-linejoin:miter;stroke:rgb(0%,0%,47.058824%);stroke-opacity:1;stroke-miterlimit:10;" d="M 4.594852 1.665649 L 4.628029 1.665649 M 4.577925 1.798423 L 4.644731 1.798423 M 4.561224 1.93097 L 4.661206 1.93097 M 4.544748 2.063744 L 4.678133 2.063744 M 4.528047 2.196292 L 4.694835 2.196292 M 4.511345 2.329066 L 4.71131 2.329066 M 4.494644 2.461613 L 4.728012 2.461613 " transform="matrix(17.307692,0,0,17.269737,17.247151,16.926086)"/>
<path style="fill:none;stroke-width:0.06;stroke-linecap:butt;stroke-linejoin:miter;stroke:rgb(0%,0%,47.058824%);stroke-opacity:1;stroke-miterlimit:10;" d="M 4.449956 1.339482 L 3.764297 1.168709 " transform="matrix(17.307692,0,0,17.269737,17.247151,16.926086)"/>
<path style="fill:none;stroke-width:0.06;stroke-linecap:butt;stroke-linejoin:miter;stroke:rgb(0%,0%,47.058824%);stroke-opacity:1;stroke-miterlimit:10;" d="M 4.780599 1.281351 L 5.442786 0.897732 " transform="matrix(17.307692,0,0,17.269737,17.247151,16.926086)"/>
<path style="fill:none;stroke-width:0.0333333;stroke-linecap:butt;stroke-linejoin:miter;stroke:rgb(0%,0%,0%);stroke-opacity:1;stroke-miterlimit:10;" d="M 4.623064 2.44578 L 3.797699 2.706804 " transform="matrix(17.307692,0,0,17.269737,17.247151,16.926086)"/>
<path style="fill:none;stroke-width:0.0333333;stroke-linecap:butt;stroke-linejoin:miter;stroke:rgb(0%,0%,0%);stroke-opacity:1;stroke-miterlimit:10;" d="M 4.611328 2.449399 L 5.301953 2.828268 " transform="matrix(17.307692,0,0,17.269737,17.247151,16.926086)"/>
<path style="fill:none;stroke-width:0.0333333;stroke-linecap:butt;stroke-linejoin:miter;stroke:rgb(0%,0%,0%);stroke-opacity:1;stroke-miterlimit:10;" d="M 4.778116 2.35078 L 5.382074 2.682149 " transform="matrix(17.307692,0,0,17.269737,17.247151,16.926086)"/>
<path style="fill:none;stroke-width:0.0333333;stroke-linecap:butt;stroke-linejoin:miter;stroke:rgb(0%,0%,0%);stroke-opacity:1;stroke-miterlimit:10;" d="M 3.486241 1.296506 L 3.02605 1.960828 " transform="matrix(17.307692,0,0,17.269737,17.247151,16.926086)"/>
<path style="fill:none;stroke-width:0.0333333;stroke-linecap:butt;stroke-linejoin:miter;stroke:rgb(0%,0%,0%);stroke-opacity:1;stroke-miterlimit:10;" d="M 3.623238 1.391506 L 3.231883 1.956304 " transform="matrix(17.307692,0,0,17.269737,17.247151,16.926086)"/>
<path style="fill:none;stroke-width:0.0333333;stroke-linecap:butt;stroke-linejoin:miter;stroke:rgb(0%,0%,0%);stroke-opacity:1;stroke-miterlimit:10;" d="M 5.42631 0.897959 L 6.345564 1.402363 " transform="matrix(17.307692,0,0,17.269737,17.247151,16.926086)"/>
<path style="fill:none;stroke-width:0.06;stroke-linecap:butt;stroke-linejoin:miter;stroke:rgb(0%,0%,47.058824%);stroke-opacity:1;stroke-miterlimit:10;" d="M 5.517491 0.947947 L 5.527196 0.159673 " transform="matrix(17.307692,0,0,17.269737,17.247151,16.926086)"/>
<path style="fill:none;stroke-width:0.06;stroke-linecap:butt;stroke-linejoin:miter;stroke:rgb(0%,0%,47.058824%);stroke-opacity:1;stroke-miterlimit:10;" d="M 5.350703 0.951113 L 5.360633 0.157637 " transform="matrix(17.307692,0,0,17.269737,17.247151,16.926086)"/>
<path style="fill:none;stroke-width:0.0333333;stroke-linecap:butt;stroke-linejoin:miter;stroke:rgb(0%,0%,0%);stroke-opacity:1;stroke-miterlimit:10;" d="M 5.634175 2.822613 L 6.351432 2.401899 " transform="matrix(17.307692,0,0,17.269737,17.247151,16.926086)"/>
<path style="fill:none;stroke-width:0.0333333;stroke-linecap:butt;stroke-linejoin:miter;stroke:rgb(0%,0%,0%);stroke-opacity:1;stroke-miterlimit:10;" d="M 3.034401 1.960601 L 2.017196 1.978923 " transform="matrix(17.307692,0,0,17.269737,17.247151,16.926086)"/>
<path style="fill:none;stroke-width:0.0333333;stroke-linecap:butt;stroke-linejoin:miter;stroke:rgb(0%,0%,0%);stroke-opacity:1;stroke-miterlimit:10;" d="M 6.335633 2.402351 L 6.982022 2.718566 " transform="matrix(17.307692,0,0,17.269737,17.247151,16.926086)"/>
<path style="fill:none;stroke-width:0.0333333;stroke-linecap:butt;stroke-linejoin:miter;stroke:rgb(0%,0%,0%);stroke-opacity:1;stroke-miterlimit:10;" d="M 2.017196 1.978923 L 1.489974 1.12053 " transform="matrix(17.307692,0,0,17.269737,17.247151,16.926086)"/>
<path style="fill:none;stroke-width:0.0333333;stroke-linecap:butt;stroke-linejoin:miter;stroke:rgb(0%,0%,0%);stroke-opacity:1;stroke-miterlimit:10;" d="M 2.017196 1.978923 L 1.53105 2.867173 " transform="matrix(17.307692,0,0,17.269737,17.247151,16.926086)"/>
<path style="fill:none;stroke-width:0.0333333;stroke-linecap:butt;stroke-linejoin:miter;stroke:rgb(0%,0%,0%);stroke-opacity:1;stroke-miterlimit:10;" d="M 1.504418 1.128447 L 0.478863 1.144506 " transform="matrix(17.307692,0,0,17.269737,17.247151,16.926086)"/>
<path style="fill:none;stroke-width:0.0333333;stroke-linecap:butt;stroke-linejoin:miter;stroke:rgb(0%,0%,0%);stroke-opacity:1;stroke-miterlimit:10;" d="M 1.545043 2.858578 L 0.517231 2.892959 " transform="matrix(17.307692,0,0,17.269737,17.247151,16.926086)"/>
<path style="fill:none;stroke-width:0.0333333;stroke-linecap:butt;stroke-linejoin:miter;stroke:rgb(0%,0%,0%);stroke-opacity:1;stroke-miterlimit:10;" d="M 0.493081 1.135911 L -0.004575 2.037054 " transform="matrix(17.307692,0,0,17.269737,17.247151,16.926086)"/>
<path style="fill:none;stroke-width:0.0333333;stroke-linecap:butt;stroke-linejoin:miter;stroke:rgb(0%,0%,0%);stroke-opacity:1;stroke-miterlimit:10;" d="M 3.507005 2.594387 L 3.020859 1.954042 " transform="matrix(17.307692,0,0,17.269737,17.247151,16.926086)"/>
<path style="fill:none;stroke-width:0.0333333;stroke-linecap:butt;stroke-linejoin:miter;stroke:rgb(0%,0%,0%);stroke-opacity:1;stroke-miterlimit:10;" d="M 6.336988 1.387887 L 6.343758 2.406197 " transform="matrix(17.307692,0,0,17.269737,17.247151,16.926086)"/>
<path style="fill:none;stroke-width:0.0333333;stroke-linecap:butt;stroke-linejoin:miter;stroke:rgb(0%,0%,0%);stroke-opacity:1;stroke-miterlimit:10;" d="M 6.170876 1.486959 L 6.176519 2.311197 " transform="matrix(17.307692,0,0,17.269737,17.247151,16.926086)"/>
<path style="fill:none;stroke-width:0.0333333;stroke-linecap:butt;stroke-linejoin:miter;stroke:rgb(0%,0%,0%);stroke-opacity:1;stroke-miterlimit:10;" d="M 0.531901 2.901101 L -0.00502639 2.020316 " transform="matrix(17.307692,0,0,17.269737,17.247151,16.926086)"/>
</g>
</svg>
