<?xml version="1.0" encoding="UTF-8"?>
<svg xmlns="http://www.w3.org/2000/svg" xmlns:xlink="http://www.w3.org/1999/xlink" width="94.4pt" height="86.4pt" viewBox="0 0 94.4 86.4" version="1.1">
<g id="surface1532">
<path style=" stroke:none;fill-rule:nonzero;fill:rgb(0%,0%,0%);fill-opacity:1;" d="M 64.125 17.292969 C 64.125 17.589844 64.082031 17.859375 63.996094 18.101562 C 63.90625 18.347656 63.78125 18.558594 63.613281 18.730469 C 63.453125 18.902344 63.257812 19.039062 63.019531 19.128906 C 62.785156 19.222656 62.523438 19.269531 62.226562 19.269531 C 61.90625 19.269531 61.628906 19.222656 61.390625 19.128906 C 61.160156 19.03125 60.964844 18.890625 60.804688 18.71875 C 60.644531 18.539062 60.527344 18.328125 60.449219 18.09375 C 60.367188 17.847656 60.328125 17.582031 60.328125 17.292969 C 60.328125 16.996094 60.367188 16.730469 60.449219 16.492188 C 60.535156 16.246094 60.65625 16.042969 60.816406 15.875 C 60.980469 15.710938 61.179688 15.578125 61.414062 15.484375 C 61.652344 15.394531 61.921875 15.34375 62.226562 15.34375 C 62.53125 15.34375 62.800781 15.394531 63.039062 15.484375 C 63.277344 15.578125 63.476562 15.710938 63.636719 15.886719 C 63.792969 16.054688 63.914062 16.253906 63.996094 16.492188 C 64.082031 16.730469 64.125 16.996094 64.125 17.292969 Z M 63.59375 17.292969 C 63.59375 17.0625 63.5625 16.851562 63.507812 16.664062 C 63.445312 16.476562 63.359375 16.316406 63.246094 16.1875 C 63.128906 16.054688 62.984375 15.949219 62.8125 15.875 C 62.644531 15.804688 62.449219 15.765625 62.226562 15.765625 C 62 15.765625 61.804688 15.804688 61.628906 15.875 C 61.457031 15.949219 61.308594 16.054688 61.195312 16.1875 C 61.085938 16.316406 61.003906 16.476562 60.945312 16.664062 C 60.886719 16.851562 60.859375 17.0625 60.859375 17.292969 C 60.859375 17.523438 60.886719 17.734375 60.945312 17.929688 C 61.003906 18.117188 61.089844 18.28125 61.207031 18.417969 C 61.320312 18.554688 61.460938 18.664062 61.628906 18.742188 C 61.804688 18.8125 62 18.847656 62.226562 18.847656 C 62.464844 18.847656 62.671875 18.8125 62.84375 18.742188 C 63.019531 18.664062 63.160156 18.554688 63.269531 18.417969 C 63.375 18.273438 63.453125 18.109375 63.507812 17.917969 C 63.5625 17.722656 63.59375 17.515625 63.59375 17.292969 Z M 63.59375 17.292969 "/>
<path style=" stroke:none;fill-rule:nonzero;fill:rgb(0%,0%,0%);fill-opacity:1;" d="M 79.152344 43.25 C 79.152344 43.546875 79.109375 43.816406 79.023438 44.0625 C 78.9375 44.308594 78.808594 44.515625 78.644531 44.6875 C 78.484375 44.863281 78.285156 44.996094 78.046875 45.089844 C 77.8125 45.179688 77.550781 45.230469 77.253906 45.230469 C 76.9375 45.230469 76.660156 45.179688 76.421875 45.089844 C 76.1875 44.988281 75.992188 44.851562 75.835938 44.679688 C 75.675781 44.5 75.554688 44.289062 75.476562 44.050781 C 75.394531 43.808594 75.359375 43.539062 75.359375 43.25 C 75.359375 42.957031 75.394531 42.6875 75.476562 42.449219 C 75.5625 42.207031 75.6875 42 75.847656 41.832031 C 76.011719 41.667969 76.210938 41.539062 76.441406 41.445312 C 76.679688 41.351562 76.953125 41.304688 77.253906 41.304688 C 77.558594 41.304688 77.832031 41.351562 78.070312 41.445312 C 78.308594 41.539062 78.503906 41.671875 78.664062 41.84375 C 78.824219 42.011719 78.941406 42.210938 79.023438 42.449219 C 79.109375 42.6875 79.152344 42.957031 79.152344 43.25 Z M 78.621094 43.25 C 78.621094 43.019531 78.59375 42.8125 78.535156 42.621094 C 78.476562 42.4375 78.390625 42.277344 78.273438 42.148438 C 78.160156 42.011719 78.015625 41.90625 77.839844 41.832031 C 77.671875 41.761719 77.476562 41.726562 77.253906 41.726562 C 77.03125 41.726562 76.832031 41.761719 76.660156 41.832031 C 76.484375 41.90625 76.339844 42.011719 76.226562 42.148438 C 76.117188 42.277344 76.03125 42.4375 75.976562 42.621094 C 75.917969 42.8125 75.890625 43.019531 75.890625 43.25 C 75.890625 43.484375 75.917969 43.695312 75.976562 43.886719 C 76.03125 44.078125 76.121094 44.238281 76.238281 44.375 C 76.351562 44.511719 76.492188 44.621094 76.660156 44.699219 C 76.832031 44.773438 77.03125 44.808594 77.253906 44.808594 C 77.496094 44.808594 77.699219 44.773438 77.875 44.699219 C 78.046875 44.621094 78.1875 44.511719 78.296875 44.375 C 78.40625 44.230469 78.484375 44.066406 78.535156 43.878906 C 78.59375 43.683594 78.621094 43.476562 78.621094 43.25 Z M 78.621094 43.25 "/>
<path style="fill:none;stroke-width:0.06;stroke-linecap:butt;stroke-linejoin:miter;stroke:rgb(0%,0%,47.058824%);stroke-opacity:1;stroke-miterlimit:10;" d="M 0.881074 0.991327 L -0.0150728 1.508618 " transform="matrix(17.352941,0,0,17.307692,17.14437,17.307264)"/>
<path style="fill:none;stroke-width:0.06;stroke-linecap:butt;stroke-linejoin:miter;stroke:rgb(0%,0%,47.058824%);stroke-opacity:1;stroke-miterlimit:10;" d="M 0.00000929644 1.482664 L 0.00000929644 2.517473 " transform="matrix(17.352941,0,0,17.307692,17.14437,17.307264)"/>
<path style="fill:none;stroke-width:0.06;stroke-linecap:butt;stroke-linejoin:miter;stroke:rgb(0%,0%,47.058824%);stroke-opacity:1;stroke-miterlimit:10;" d="M 0.166813 1.579035 L 0.166813 2.421101 " transform="matrix(17.352941,0,0,17.307692,17.14437,17.307264)"/>
<path style="fill:none;stroke-width:0.06;stroke-linecap:butt;stroke-linejoin:miter;stroke:rgb(0%,0%,47.058824%);stroke-opacity:1;stroke-miterlimit:10;" d="M -0.0150728 2.491518 L 0.881074 3.008809 " transform="matrix(17.352941,0,0,17.307692,17.14437,17.307264)"/>
<path style="fill:none;stroke-width:0.06;stroke-linecap:butt;stroke-linejoin:miter;stroke:rgb(0%,0%,47.058824%);stroke-opacity:1;stroke-miterlimit:10;" d="M 0.851135 3.008809 L 1.747056 2.491518 " transform="matrix(17.352941,0,0,17.307692,17.14437,17.307264)"/>
<path style="fill:none;stroke-width:0.06;stroke-linecap:butt;stroke-linejoin:miter;stroke:rgb(0%,0%,47.058824%);stroke-opacity:1;stroke-miterlimit:10;" d="M 0.851135 2.816292 L 1.580253 2.395146 " transform="matrix(17.352941,0,0,17.307692,17.14437,17.307264)"/>
<path style="fill:none;stroke-width:0.06;stroke-linecap:butt;stroke-linejoin:miter;stroke:rgb(0%,0%,47.058824%);stroke-opacity:1;stroke-miterlimit:10;" d="M 1.731974 2.517473 L 1.731974 1.482664 " transform="matrix(17.352941,0,0,17.307692,17.14437,17.307264)"/>
<path style="fill:none;stroke-width:0.06;stroke-linecap:butt;stroke-linejoin:miter;stroke:rgb(0%,0%,47.058824%);stroke-opacity:1;stroke-miterlimit:10;" d="M 0.851135 0.991327 L 1.731974 1.500042 " transform="matrix(17.352941,0,0,17.307692,17.14437,17.307264)"/>
<path style="fill:none;stroke-width:0.06;stroke-linecap:butt;stroke-linejoin:miter;stroke:rgb(0%,0%,47.058824%);stroke-opacity:1;stroke-miterlimit:10;" d="M 0.851135 1.183844 L 1.565396 1.596188 " transform="matrix(17.352941,0,0,17.307692,17.14437,17.307264)"/>
<path style="fill:none;stroke-width:0.06;stroke-linecap:butt;stroke-linejoin:miter;stroke:rgb(0%,0%,47.058824%);stroke-opacity:1;stroke-miterlimit:10;" d="M 1.717117 1.508618 L 2.606286 0.995164 " transform="matrix(17.352941,0,0,17.307692,17.14437,17.307264)"/>
<path style="fill:none;stroke-width:0.0333333;stroke-linecap:butt;stroke-linejoin:miter;stroke:rgb(0%,0%,0%);stroke-opacity:1;stroke-miterlimit:10;" d="M 2.597957 1.009608 L 2.597957 0.156709 " transform="matrix(17.352941,0,0,17.307692,17.14437,17.307264)"/>
<path style="fill:none;stroke-width:0.0333333;stroke-linecap:butt;stroke-linejoin:miter;stroke:rgb(0%,0%,0%);stroke-opacity:1;stroke-miterlimit:10;" d="M 2.514668 1.048202 L 3.239959 1.466639 " transform="matrix(17.352941,0,0,17.307692,17.14437,17.307264)"/>
<path style="fill:none;stroke-width:0.0333333;stroke-linecap:butt;stroke-linejoin:miter;stroke:rgb(0%,0%,0%);stroke-opacity:1;stroke-miterlimit:10;" d="M 2.597957 0.903757 L 3.323248 1.322421 " transform="matrix(17.352941,0,0,17.307692,17.14437,17.307264)"/>
</g>
</svg>
