<?xml version="1.0" encoding="UTF-8"?>
<svg xmlns="http://www.w3.org/2000/svg" xmlns:xlink="http://www.w3.org/1999/xlink" width="44.8pt" height="65.6pt" viewBox="0 0 44.8 65.6" version="1.1">
<g id="surface712">
<path style=" stroke:none;fill-rule:nonzero;fill:rgb(0%,0%,0%);fill-opacity:1;" d="M 28.625 32.496094 L 26.585938 29.238281 C 26.589844 29.324219 26.59375 29.410156 26.59375 29.5 C 26.601562 29.570312 26.605469 29.652344 26.605469 29.738281 C 26.613281 29.820312 26.617188 29.890625 26.617188 29.953125 L 26.617188 32.496094 L 26.152344 32.496094 L 26.152344 28.671875 L 26.757812 28.671875 L 28.808594 31.953125 C 28.808594 31.953125 28.804688 31.863281 28.800781 31.679688 C 28.792969 31.609375 28.78125 31.527344 28.777344 31.441406 C 28.777344 31.351562 28.777344 31.261719 28.777344 31.179688 L 28.777344 28.671875 L 29.242188 28.671875 L 29.242188 32.496094 Z M 28.625 32.496094 "/>
<path style=" stroke:none;fill-rule:nonzero;fill:rgb(0%,0%,0%);fill-opacity:1;" d="M 19.128906 17.078125 C 19.128906 17.375 19.085938 17.648438 19 17.890625 C 18.914062 18.136719 18.785156 18.347656 18.621094 18.519531 C 18.460938 18.695312 18.265625 18.832031 18.027344 18.921875 C 17.792969 19.015625 17.53125 19.0625 17.238281 19.0625 C 16.917969 19.0625 16.644531 19.015625 16.40625 18.921875 C 16.175781 18.824219 15.980469 18.683594 15.824219 18.511719 C 15.664062 18.332031 15.542969 18.121094 15.464844 17.878906 C 15.386719 17.636719 15.347656 17.367188 15.347656 17.078125 C 15.347656 16.78125 15.386719 16.511719 15.464844 16.273438 C 15.554688 16.027344 15.675781 15.824219 15.832031 15.65625 C 16 15.488281 16.195312 15.359375 16.429688 15.265625 C 16.664062 15.171875 16.9375 15.121094 17.238281 15.121094 C 17.539062 15.121094 17.8125 15.171875 18.046875 15.265625 C 18.285156 15.359375 18.484375 15.492188 18.640625 15.664062 C 18.800781 15.832031 18.917969 16.035156 19 16.273438 C 19.085938 16.511719 19.128906 16.78125 19.128906 17.078125 Z M 18.597656 17.078125 C 18.597656 16.847656 18.570312 16.636719 18.511719 16.445312 C 18.453125 16.261719 18.367188 16.101562 18.253906 15.96875 C 18.136719 15.832031 17.996094 15.726562 17.820312 15.65625 C 17.652344 15.585938 17.460938 15.546875 17.238281 15.546875 C 17.015625 15.546875 16.816406 15.585938 16.644531 15.65625 C 16.472656 15.726562 16.324219 15.832031 16.210938 15.96875 C 16.105469 16.101562 16.019531 16.261719 15.964844 16.445312 C 15.902344 16.636719 15.875 16.847656 15.875 17.078125 C 15.875 17.308594 15.902344 17.523438 15.964844 17.71875 C 16.019531 17.90625 16.105469 18.070312 16.222656 18.207031 C 16.335938 18.34375 16.476562 18.453125 16.644531 18.53125 C 16.816406 18.605469 17.015625 18.640625 17.238281 18.640625 C 17.476562 18.640625 17.679688 18.605469 17.855469 18.53125 C 18.027344 18.453125 18.167969 18.34375 18.273438 18.207031 C 18.382812 18.0625 18.460938 17.898438 18.511719 17.707031 C 18.570312 17.511719 18.597656 17.300781 18.597656 17.078125 Z M 18.597656 17.078125 "/>
<path style=" stroke:none;fill-rule:nonzero;fill:rgb(0%,0%,0%);fill-opacity:1;" d="M 29.589844 48.210938 C 29.589844 48.507812 29.542969 48.78125 29.457031 49.023438 C 29.371094 49.269531 29.246094 49.480469 29.082031 49.652344 C 28.921875 49.828125 28.722656 49.964844 28.484375 50.054688 C 28.253906 50.148438 27.992188 50.195312 27.699219 50.195312 C 27.378906 50.195312 27.101562 50.148438 26.867188 50.054688 C 26.632812 49.957031 26.4375 49.816406 26.28125 49.644531 C 26.125 49.464844 26.003906 49.253906 25.925781 49.011719 C 25.84375 48.769531 25.808594 48.5 25.808594 48.210938 C 25.808594 47.914062 25.84375 47.644531 25.925781 47.40625 C 26.011719 47.160156 26.132812 46.957031 26.292969 46.789062 C 26.457031 46.621094 26.65625 46.492188 26.886719 46.394531 C 27.125 46.304688 27.394531 46.253906 27.699219 46.253906 C 28 46.253906 28.269531 46.304688 28.507812 46.394531 C 28.746094 46.492188 28.941406 46.625 29.101562 46.796875 C 29.257812 46.964844 29.378906 47.167969 29.457031 47.40625 C 29.542969 47.644531 29.589844 47.914062 29.589844 48.210938 Z M 29.058594 48.210938 C 29.058594 47.980469 29.027344 47.769531 28.972656 47.578125 C 28.914062 47.394531 28.828125 47.234375 28.714844 47.101562 C 28.597656 46.964844 28.453125 46.859375 28.28125 46.789062 C 28.113281 46.714844 27.917969 46.679688 27.699219 46.679688 C 27.472656 46.679688 27.277344 46.714844 27.101562 46.789062 C 26.929688 46.859375 26.785156 46.964844 26.671875 47.101562 C 26.5625 47.234375 26.480469 47.394531 26.421875 47.578125 C 26.363281 47.769531 26.335938 47.980469 26.335938 48.210938 C 26.335938 48.441406 26.363281 48.65625 26.421875 48.851562 C 26.480469 49.039062 26.566406 49.203125 26.683594 49.339844 C 26.796875 49.476562 26.9375 49.585938 27.101562 49.664062 C 27.277344 49.738281 27.472656 49.773438 27.699219 49.773438 C 27.933594 49.773438 28.140625 49.738281 28.3125 49.664062 C 28.484375 49.585938 28.625 49.476562 28.734375 49.339844 C 28.84375 49.195312 28.921875 49.03125 28.972656 48.839844 C 29.027344 48.644531 29.058594 48.433594 29.058594 48.210938 Z M 29.058594 48.210938 "/>
<path style=" stroke:none;fill-rule:nonzero;fill:rgb(0%,0%,0%);fill-opacity:1;" d="M 30.164062 45.882812 L 32.476562 45.882812 L 32.476562 46.347656 L 30.164062 46.347656 "/>
<path style="fill:none;stroke-width:0.0333333;stroke-linecap:butt;stroke-linejoin:miter;stroke:rgb(0%,0%,0%);stroke-opacity:1;stroke-miterlimit:10;" d="M 0.546409 0.565447 L 0.199492 0.120473 " transform="matrix(17.283951,0,0,17.372881,17.239496,17.094532)"/>
<path style="fill:none;stroke-width:0.0333333;stroke-linecap:butt;stroke-linejoin:miter;stroke:rgb(0%,0%,0%);stroke-opacity:1;stroke-miterlimit:10;" d="M 0.414874 0.667977 L 0.0679571 0.222779 " transform="matrix(17.283951,0,0,17.372881,17.239496,17.094532)"/>
<path style="fill:none;stroke-width:0.0333333;stroke-linecap:butt;stroke-linejoin:miter;stroke:rgb(0%,0%,0%);stroke-opacity:1;stroke-miterlimit:10;" d="M 0.60517 0.9297 L 0.60517 1.544433 " transform="matrix(17.283951,0,0,17.372881,17.239496,17.094532)"/>
</g>
</svg>
