<?xml version="1.0" encoding="UTF-8"?>
<svg xmlns="http://www.w3.org/2000/svg" xmlns:xlink="http://www.w3.org/1999/xlink" width="162.4pt" height="83.2pt" viewBox="0 0 162.4 83.2" version="1.1">
<g id="surface992">
<path style=" stroke:none;fill-rule:nonzero;fill:rgb(0%,0%,0%);fill-opacity:1;" d="M 102.089844 48.75 C 102.089844 48.910156 102.058594 49.058594 101.992188 49.195312 C 101.933594 49.324219 101.839844 49.441406 101.710938 49.539062 C 101.582031 49.644531 101.414062 49.722656 101.214844 49.777344 C 101.019531 49.828125 100.785156 49.855469 100.519531 49.855469 C 100.042969 49.855469 99.671875 49.773438 99.40625 49.605469 C 99.136719 49.441406 98.96875 49.199219 98.894531 48.878906 L 99.40625 48.78125 C 99.425781 48.886719 99.460938 48.976562 99.511719 49.054688 C 99.570312 49.132812 99.644531 49.203125 99.730469 49.269531 C 99.816406 49.328125 99.925781 49.375 100.054688 49.410156 C 100.191406 49.441406 100.351562 49.453125 100.53125 49.453125 C 100.6875 49.453125 100.828125 49.441406 100.953125 49.410156 C 101.082031 49.382812 101.195312 49.34375 101.289062 49.292969 C 101.382812 49.234375 101.453125 49.167969 101.503906 49.085938 C 101.554688 49 101.582031 48.894531 101.582031 48.773438 C 101.582031 48.648438 101.550781 48.550781 101.496094 48.46875 C 101.433594 48.390625 101.355469 48.324219 101.257812 48.273438 C 101.152344 48.222656 101.03125 48.183594 100.886719 48.152344 C 100.742188 48.117188 100.585938 48.078125 100.410156 48.035156 C 100.304688 48.011719 100.195312 47.988281 100.085938 47.960938 C 99.984375 47.933594 99.882812 47.898438 99.785156 47.863281 C 99.679688 47.828125 99.589844 47.78125 99.503906 47.730469 C 99.417969 47.675781 99.339844 47.609375 99.273438 47.535156 C 99.214844 47.464844 99.167969 47.382812 99.132812 47.289062 C 99.097656 47.1875 99.082031 47.078125 99.082031 46.953125 C 99.082031 46.773438 99.117188 46.617188 99.1875 46.484375 C 99.257812 46.355469 99.363281 46.253906 99.492188 46.171875 C 99.621094 46.085938 99.773438 46.027344 99.945312 45.988281 C 100.125 45.945312 100.320312 45.921875 100.53125 45.921875 C 100.761719 45.921875 100.957031 45.945312 101.125 45.988281 C 101.300781 46.027344 101.441406 46.078125 101.558594 46.148438 C 101.671875 46.222656 101.765625 46.3125 101.832031 46.421875 C 101.902344 46.527344 101.960938 46.65625 102.003906 46.800781 L 101.496094 46.898438 C 101.464844 46.804688 101.425781 46.722656 101.375 46.648438 C 101.332031 46.578125 101.269531 46.515625 101.191406 46.464844 C 101.117188 46.414062 101.023438 46.378906 100.910156 46.355469 C 100.800781 46.328125 100.671875 46.3125 100.519531 46.3125 C 100.347656 46.3125 100.199219 46.332031 100.078125 46.367188 C 99.953125 46.394531 99.855469 46.441406 99.785156 46.496094 C 99.710938 46.546875 99.65625 46.609375 99.621094 46.679688 C 99.59375 46.753906 99.578125 46.832031 99.578125 46.917969 C 99.578125 47.035156 99.605469 47.128906 99.664062 47.199219 C 99.722656 47.273438 99.796875 47.335938 99.890625 47.386719 C 99.992188 47.4375 100.109375 47.480469 100.238281 47.515625 C 100.367188 47.542969 100.503906 47.574219 100.648438 47.601562 C 100.765625 47.632812 100.878906 47.660156 100.996094 47.6875 C 101.109375 47.71875 101.222656 47.75 101.332031 47.785156 C 101.441406 47.824219 101.539062 47.871094 101.625 47.925781 C 101.714844 47.976562 101.796875 48.042969 101.863281 48.121094 C 101.933594 48.195312 101.988281 48.28125 102.023438 48.382812 C 102.066406 48.484375 102.089844 48.605469 102.089844 48.75 Z M 102.089844 48.75 "/>
<path style=" stroke:none;fill-rule:nonzero;fill:rgb(0%,0%,0%);fill-opacity:1;" d="M 129.449219 49.796875 L 127.402344 46.546875 C 127.40625 46.632812 127.414062 46.71875 127.414062 46.804688 C 127.417969 46.878906 127.425781 46.957031 127.425781 47.042969 C 127.429688 47.125 127.433594 47.195312 127.433594 47.261719 L 127.433594 49.796875 L 126.96875 49.796875 L 126.96875 45.980469 L 127.574219 45.980469 L 129.632812 49.253906 C 129.632812 49.253906 129.628906 49.164062 129.621094 48.984375 C 129.613281 48.914062 129.605469 48.832031 129.601562 48.746094 C 129.601562 48.652344 129.601562 48.566406 129.601562 48.484375 L 129.601562 45.980469 L 130.066406 45.980469 L 130.066406 49.796875 Z M 129.449219 49.796875 "/>
<path style=" stroke:none;fill-rule:nonzero;fill:rgb(0%,0%,0%);fill-opacity:1;" d="M 145.101562 40.992188 C 144.882812 40.992188 144.691406 41.027344 144.527344 41.097656 C 144.359375 41.171875 144.21875 41.277344 144.105469 41.414062 C 143.996094 41.542969 143.910156 41.703125 143.855469 41.890625 C 143.796875 42.078125 143.769531 42.289062 143.769531 42.519531 C 143.769531 42.75 143.796875 42.960938 143.855469 43.15625 C 143.917969 43.347656 144.007812 43.507812 144.125 43.644531 C 144.238281 43.78125 144.378906 43.890625 144.546875 43.96875 C 144.722656 44.042969 144.910156 44.078125 145.121094 44.078125 C 145.273438 44.078125 145.40625 44.0625 145.523438 44.023438 C 145.644531 43.980469 145.753906 43.921875 145.859375 43.851562 C 145.957031 43.78125 146.042969 43.695312 146.117188 43.601562 C 146.195312 43.507812 146.261719 43.402344 146.324219 43.277344 L 146.746094 43.492188 C 146.679688 43.640625 146.597656 43.773438 146.496094 43.894531 C 146.394531 44.019531 146.273438 44.125 146.140625 44.21875 C 146 44.304688 145.847656 44.375 145.671875 44.425781 C 145.5 44.472656 145.308594 44.5 145.101562 44.5 C 144.789062 44.5 144.519531 44.453125 144.289062 44.359375 C 144.054688 44.257812 143.859375 44.121094 143.703125 43.949219 C 143.550781 43.769531 143.433594 43.558594 143.355469 43.320312 C 143.277344 43.074219 143.238281 42.808594 143.238281 42.519531 C 143.238281 42.222656 143.277344 41.953125 143.355469 41.714844 C 143.445312 41.472656 143.566406 41.265625 143.726562 41.097656 C 143.882812 40.933594 144.078125 40.804688 144.308594 40.707031 C 144.539062 40.617188 144.800781 40.566406 145.101562 40.566406 C 145.503906 40.566406 145.839844 40.648438 146.105469 40.804688 C 146.378906 40.964844 146.582031 41.203125 146.710938 41.519531 L 146.226562 41.683594 C 146.1875 41.59375 146.140625 41.503906 146.074219 41.425781 C 146.015625 41.335938 145.9375 41.265625 145.847656 41.207031 C 145.753906 41.140625 145.644531 41.09375 145.523438 41.054688 C 145.398438 41.011719 145.257812 40.992188 145.101562 40.992188 Z M 145.101562 40.992188 "/>
<path style=" stroke:none;fill-rule:nonzero;fill:rgb(0%,0%,0%);fill-opacity:1;" d="M 115.4375 22.277344 L 113.390625 19.027344 C 113.398438 19.113281 113.402344 19.199219 113.402344 19.285156 C 113.40625 19.359375 113.414062 19.4375 113.414062 19.523438 C 113.417969 19.605469 113.425781 19.675781 113.425781 19.742188 L 113.425781 22.277344 L 112.957031 22.277344 L 112.957031 18.460938 L 113.566406 18.460938 L 115.621094 21.734375 C 115.621094 21.734375 115.617188 21.644531 115.609375 21.464844 C 115.601562 21.394531 115.59375 21.3125 115.589844 21.226562 C 115.589844 21.132812 115.589844 21.046875 115.589844 20.964844 L 115.589844 18.460938 L 116.054688 18.460938 L 116.054688 22.277344 Z M 115.4375 22.277344 "/>
<path style=" stroke:none;fill-rule:nonzero;fill:rgb(0%,0%,0%);fill-opacity:1;" d="M 55.890625 67.039062 C 55.890625 67.199219 55.855469 67.347656 55.792969 67.484375 C 55.734375 67.613281 55.640625 67.730469 55.511719 67.832031 C 55.378906 67.933594 55.210938 68.011719 55.011719 68.070312 C 54.816406 68.117188 54.585938 68.144531 54.320312 68.144531 C 53.84375 68.144531 53.46875 68.0625 53.203125 67.894531 C 52.9375 67.730469 52.765625 67.488281 52.695312 67.167969 L 53.203125 67.070312 C 53.226562 67.175781 53.261719 67.265625 53.3125 67.34375 C 53.371094 67.425781 53.441406 67.496094 53.53125 67.558594 C 53.617188 67.617188 53.722656 67.664062 53.855469 67.699219 C 53.988281 67.730469 54.148438 67.742188 54.332031 67.742188 C 54.488281 67.742188 54.628906 67.730469 54.753906 67.699219 C 54.882812 67.671875 54.992188 67.632812 55.089844 67.582031 C 55.179688 67.523438 55.253906 67.457031 55.304688 67.375 C 55.355469 67.289062 55.378906 67.1875 55.378906 67.0625 C 55.378906 66.9375 55.351562 66.839844 55.292969 66.757812 C 55.234375 66.679688 55.15625 66.613281 55.054688 66.5625 C 54.953125 66.515625 54.832031 66.472656 54.6875 66.445312 C 54.542969 66.410156 54.382812 66.367188 54.210938 66.324219 C 54.101562 66.300781 53.996094 66.277344 53.886719 66.25 C 53.785156 66.222656 53.683594 66.1875 53.582031 66.152344 C 53.480469 66.117188 53.390625 66.074219 53.300781 66.019531 C 53.214844 65.964844 53.140625 65.898438 53.074219 65.824219 C 53.015625 65.753906 52.96875 65.671875 52.933594 65.578125 C 52.894531 65.476562 52.878906 65.367188 52.878906 65.242188 C 52.878906 65.0625 52.914062 64.90625 52.988281 64.773438 C 53.058594 64.644531 53.160156 64.542969 53.292969 64.460938 C 53.421875 64.375 53.574219 64.316406 53.746094 64.277344 C 53.925781 64.234375 54.121094 64.210938 54.332031 64.210938 C 54.5625 64.210938 54.757812 64.234375 54.925781 64.277344 C 55.097656 64.316406 55.242188 64.367188 55.359375 64.4375 C 55.472656 64.511719 55.566406 64.601562 55.628906 64.710938 C 55.699219 64.820312 55.757812 64.945312 55.804688 65.089844 L 55.292969 65.1875 C 55.265625 65.09375 55.222656 65.011719 55.175781 64.9375 C 55.132812 64.867188 55.070312 64.804688 54.992188 64.753906 C 54.917969 64.703125 54.824219 64.667969 54.710938 64.644531 C 54.601562 64.617188 54.472656 64.601562 54.320312 64.601562 C 54.148438 64.601562 53.996094 64.621094 53.875 64.65625 C 53.75 64.6875 53.652344 64.730469 53.582031 64.785156 C 53.511719 64.835938 53.457031 64.898438 53.421875 64.96875 C 53.390625 65.042969 53.378906 65.121094 53.378906 65.207031 C 53.378906 65.324219 53.40625 65.417969 53.464844 65.488281 C 53.519531 65.5625 53.597656 65.625 53.691406 65.675781 C 53.792969 65.726562 53.910156 65.769531 54.039062 65.804688 C 54.167969 65.835938 54.304688 65.863281 54.449219 65.890625 C 54.5625 65.921875 54.679688 65.949219 54.796875 65.976562 C 54.910156 66.007812 55.023438 66.039062 55.132812 66.074219 C 55.238281 66.113281 55.335938 66.160156 55.425781 66.214844 C 55.515625 66.265625 55.597656 66.332031 55.660156 66.410156 C 55.734375 66.484375 55.785156 66.570312 55.824219 66.671875 C 55.867188 66.773438 55.890625 66.894531 55.890625 67.039062 Z M 55.890625 67.039062 "/>
<path style=" stroke:none;fill-rule:nonzero;fill:rgb(0%,0%,0%);fill-opacity:1;" d="M 50.304688 23.503906 L 48.261719 20.253906 C 48.265625 20.339844 48.269531 20.425781 48.269531 20.511719 C 48.277344 20.585938 48.28125 20.664062 48.28125 20.75 C 48.289062 20.832031 48.292969 20.902344 48.292969 20.96875 L 48.292969 23.503906 L 47.828125 23.503906 L 47.828125 19.691406 L 48.433594 19.691406 L 50.488281 22.960938 C 50.488281 22.960938 50.484375 22.871094 50.480469 22.691406 C 50.472656 22.621094 50.464844 22.539062 50.457031 22.453125 C 50.457031 22.359375 50.457031 22.273438 50.457031 22.191406 L 50.457031 19.691406 L 50.921875 19.691406 L 50.921875 23.503906 Z M 50.304688 23.503906 "/>
<path style=" stroke:none;fill-rule:nonzero;fill:rgb(0%,0%,0%);fill-opacity:1;" d="M 84.796875 29.648438 C 84.796875 29.945312 84.753906 30.21875 84.667969 30.460938 C 84.578125 30.707031 84.453125 30.914062 84.289062 31.089844 C 84.128906 31.261719 83.929688 31.398438 83.691406 31.488281 C 83.460938 31.582031 83.195312 31.628906 82.902344 31.628906 C 82.582031 31.628906 82.304688 31.582031 82.066406 31.488281 C 81.835938 31.390625 81.640625 31.25 81.484375 31.078125 C 81.324219 30.898438 81.203125 30.6875 81.125 30.449219 C 81.046875 30.207031 81.007812 29.9375 81.007812 29.648438 C 81.007812 29.351562 81.046875 29.085938 81.125 28.847656 C 81.214844 28.601562 81.335938 28.398438 81.496094 28.230469 C 81.660156 28.0625 81.855469 27.933594 82.089844 27.839844 C 82.328125 27.746094 82.597656 27.699219 82.902344 27.699219 C 83.203125 27.699219 83.476562 27.746094 83.714844 27.839844 C 83.953125 27.933594 84.148438 28.066406 84.308594 28.238281 C 84.464844 28.40625 84.585938 28.609375 84.667969 28.847656 C 84.753906 29.085938 84.796875 29.351562 84.796875 29.648438 Z M 84.265625 29.648438 C 84.265625 29.417969 84.234375 29.210938 84.179688 29.019531 C 84.121094 28.832031 84.03125 28.671875 83.917969 28.542969 C 83.804688 28.40625 83.660156 28.300781 83.488281 28.230469 C 83.320312 28.160156 83.125 28.121094 82.902344 28.121094 C 82.675781 28.121094 82.480469 28.160156 82.304688 28.230469 C 82.132812 28.300781 81.988281 28.40625 81.875 28.542969 C 81.765625 28.671875 81.679688 28.832031 81.625 29.019531 C 81.566406 29.210938 81.539062 29.417969 81.539062 29.648438 C 81.539062 29.882812 81.566406 30.09375 81.625 30.289062 C 81.679688 30.476562 81.769531 30.640625 81.882812 30.773438 C 81.996094 30.914062 82.136719 31.019531 82.304688 31.101562 C 82.480469 31.171875 82.675781 31.207031 82.902344 31.207031 C 83.140625 31.207031 83.34375 31.171875 83.519531 31.101562 C 83.691406 31.019531 83.832031 30.914062 83.941406 30.773438 C 84.050781 30.632812 84.128906 30.464844 84.179688 30.277344 C 84.234375 30.082031 84.265625 29.871094 84.265625 29.648438 Z M 84.265625 29.648438 "/>
<path style=" stroke:none;fill-rule:nonzero;fill:rgb(0%,0%,0%);fill-opacity:1;" d="M 91.625 58.882812 C 91.625 59.179688 91.582031 59.449219 91.496094 59.695312 C 91.40625 59.941406 91.28125 60.148438 91.117188 60.324219 C 90.957031 60.496094 90.757812 60.632812 90.519531 60.722656 C 90.289062 60.816406 90.023438 60.863281 89.730469 60.863281 C 89.410156 60.863281 89.132812 60.816406 88.894531 60.722656 C 88.664062 60.625 88.46875 60.484375 88.3125 60.3125 C 88.152344 60.132812 88.03125 59.921875 87.953125 59.683594 C 87.875 59.441406 87.835938 59.171875 87.835938 58.882812 C 87.835938 58.585938 87.875 58.320312 87.953125 58.082031 C 88.042969 57.835938 88.164062 57.628906 88.324219 57.460938 C 88.488281 57.296875 88.683594 57.167969 88.917969 57.074219 C 89.15625 56.980469 89.425781 56.933594 89.730469 56.933594 C 90.03125 56.933594 90.304688 56.980469 90.542969 57.074219 C 90.78125 57.167969 90.976562 57.300781 91.136719 57.472656 C 91.292969 57.640625 91.414062 57.84375 91.496094 58.082031 C 91.582031 58.320312 91.625 58.585938 91.625 58.882812 Z M 91.09375 58.882812 C 91.09375 58.652344 91.0625 58.441406 91.007812 58.253906 C 90.949219 58.066406 90.859375 57.90625 90.746094 57.777344 C 90.632812 57.640625 90.488281 57.535156 90.316406 57.460938 C 90.148438 57.390625 89.953125 57.355469 89.730469 57.355469 C 89.503906 57.355469 89.308594 57.390625 89.132812 57.460938 C 88.960938 57.535156 88.816406 57.640625 88.703125 57.777344 C 88.59375 57.90625 88.507812 58.066406 88.453125 58.253906 C 88.394531 58.441406 88.367188 58.652344 88.367188 58.882812 C 88.367188 59.113281 88.394531 59.324219 88.453125 59.519531 C 88.507812 59.710938 88.597656 59.875 88.710938 60.007812 C 88.824219 60.148438 88.964844 60.253906 89.132812 60.332031 C 89.308594 60.40625 89.503906 60.441406 89.730469 60.441406 C 89.96875 60.441406 90.171875 60.40625 90.347656 60.332031 C 90.519531 60.253906 90.660156 60.148438 90.769531 60.007812 C 90.878906 59.863281 90.957031 59.699219 91.007812 59.511719 C 91.0625 59.316406 91.09375 59.105469 91.09375 58.882812 Z M 91.09375 58.882812 "/>
<path style=" stroke:none;fill-rule:nonzero;fill:rgb(0%,0%,0%);fill-opacity:1;" d="M 71.160156 15.476562 C 70.945312 15.476562 70.753906 15.515625 70.585938 15.585938 C 70.421875 15.660156 70.277344 15.765625 70.164062 15.902344 C 70.058594 16.03125 69.972656 16.191406 69.917969 16.378906 C 69.855469 16.566406 69.828125 16.777344 69.828125 17.003906 C 69.828125 17.238281 69.855469 17.449219 69.917969 17.644531 C 69.980469 17.835938 70.070312 17.996094 70.1875 18.132812 C 70.300781 18.269531 70.441406 18.378906 70.609375 18.457031 C 70.78125 18.53125 70.972656 18.566406 71.183594 18.566406 C 71.335938 18.566406 71.46875 18.550781 71.582031 18.511719 C 71.707031 18.46875 71.816406 18.410156 71.917969 18.339844 C 72.019531 18.269531 72.105469 18.183594 72.179688 18.089844 C 72.257812 17.996094 72.324219 17.886719 72.386719 17.765625 L 72.808594 17.980469 C 72.742188 18.125 72.65625 18.257812 72.558594 18.382812 C 72.457031 18.507812 72.335938 18.613281 72.199219 18.707031 C 72.0625 18.792969 71.910156 18.863281 71.734375 18.914062 C 71.5625 18.960938 71.371094 18.988281 71.160156 18.988281 C 70.851562 18.988281 70.578125 18.9375 70.347656 18.847656 C 70.117188 18.746094 69.921875 18.609375 69.765625 18.4375 C 69.613281 18.257812 69.496094 18.046875 69.417969 17.808594 C 69.335938 17.5625 69.300781 17.296875 69.300781 17.003906 C 69.300781 16.710938 69.335938 16.441406 69.417969 16.203125 C 69.503906 15.960938 69.628906 15.753906 69.785156 15.585938 C 69.945312 15.421875 70.136719 15.292969 70.371094 15.195312 C 70.601562 15.105469 70.863281 15.054688 71.160156 15.054688 C 71.566406 15.054688 71.898438 15.136719 72.167969 15.292969 C 72.441406 15.453125 72.644531 15.691406 72.773438 16.007812 L 72.289062 16.171875 C 72.25 16.078125 72.199219 15.992188 72.136719 15.910156 C 72.078125 15.824219 72 15.753906 71.910156 15.695312 C 71.8125 15.628906 71.707031 15.582031 71.582031 15.542969 C 71.460938 15.5 71.320312 15.476562 71.160156 15.476562 Z M 71.160156 15.476562 "/>
<path style=" stroke:none;fill-rule:nonzero;fill:rgb(0%,0%,0%);fill-opacity:1;" d="M 17.238281 39.5625 C 17.019531 39.5625 16.828125 39.601562 16.664062 39.671875 C 16.496094 39.746094 16.355469 39.851562 16.242188 39.984375 C 16.132812 40.117188 16.046875 40.277344 15.992188 40.460938 C 15.933594 40.652344 15.90625 40.859375 15.90625 41.089844 C 15.90625 41.324219 15.933594 41.535156 15.992188 41.730469 C 16.058594 41.917969 16.144531 42.082031 16.261719 42.21875 C 16.375 42.355469 16.515625 42.464844 16.683594 42.542969 C 16.859375 42.617188 17.046875 42.652344 17.257812 42.652344 C 17.410156 42.652344 17.542969 42.632812 17.660156 42.597656 C 17.78125 42.554688 17.890625 42.496094 17.996094 42.421875 C 18.09375 42.351562 18.179688 42.269531 18.253906 42.175781 C 18.332031 42.082031 18.402344 41.972656 18.460938 41.847656 L 18.882812 42.066406 C 18.816406 42.210938 18.734375 42.34375 18.632812 42.464844 C 18.53125 42.589844 18.410156 42.699219 18.277344 42.792969 C 18.136719 42.878906 17.984375 42.949219 17.8125 42.996094 C 17.636719 43.046875 17.445312 43.074219 17.238281 43.074219 C 16.925781 43.074219 16.65625 43.023438 16.425781 42.933594 C 16.191406 42.832031 15.996094 42.695312 15.839844 42.519531 C 15.6875 42.34375 15.574219 42.128906 15.492188 41.890625 C 15.414062 41.648438 15.375 41.378906 15.375 41.089844 C 15.375 40.796875 15.414062 40.527344 15.492188 40.289062 C 15.582031 40.046875 15.703125 39.839844 15.863281 39.671875 C 16.019531 39.507812 16.214844 39.375 16.445312 39.28125 C 16.675781 39.191406 16.9375 39.140625 17.238281 39.140625 C 17.640625 39.140625 17.976562 39.222656 18.242188 39.378906 C 18.515625 39.539062 18.71875 39.777344 18.851562 40.09375 L 18.363281 40.257812 C 18.324219 40.164062 18.277344 40.078125 18.210938 39.996094 C 18.152344 39.910156 18.074219 39.839844 17.984375 39.78125 C 17.890625 39.714844 17.78125 39.667969 17.660156 39.628906 C 17.535156 39.585938 17.394531 39.5625 17.238281 39.5625 Z M 17.238281 39.5625 "/>
<path style="fill:none;stroke-width:0.0333333;stroke-linecap:butt;stroke-linejoin:miter;stroke:rgb(0%,0%,0%);stroke-opacity:1;stroke-miterlimit:10;" d="M 5.631703 1.185924 L 4.976106 1.662337 " transform="matrix(17.320819,0,0,17.333333,17.130077,17.022102)"/>
<path style="fill:none;stroke-width:0.0333333;stroke-linecap:butt;stroke-linejoin:miter;stroke:rgb(0%,0%,0%);stroke-opacity:1;stroke-miterlimit:10;" d="M 5.612308 1.185924 L 6.271062 1.664816 " transform="matrix(17.320819,0,0,17.333333,17.130077,17.022102)"/>
<path style="fill:none;stroke-width:0.0333333;stroke-linecap:butt;stroke-linejoin:miter;stroke:rgb(0%,0%,0%);stroke-opacity:1;stroke-miterlimit:10;" d="M 4.871914 1.962517 L 5.125628 2.743391 " transform="matrix(17.320819,0,0,17.333333,17.130077,17.022102)"/>
<path style="fill:none;stroke-width:0.0333333;stroke-linecap:butt;stroke-linejoin:miter;stroke:rgb(0%,0%,0%);stroke-opacity:1;stroke-miterlimit:10;" d="M 5.109842 2.731898 L 6.134169 2.731898 " transform="matrix(17.320819,0,0,17.333333,17.130077,17.022102)"/>
<path style="fill:none;stroke-width:0.0333333;stroke-linecap:butt;stroke-linejoin:miter;stroke:rgb(0%,0%,0%);stroke-opacity:1;stroke-miterlimit:10;" d="M 5.230948 2.565356 L 6.013063 2.565356 " transform="matrix(17.320819,0,0,17.333333,17.130077,17.022102)"/>
<path style="fill:none;stroke-width:0.0333333;stroke-linecap:butt;stroke-linejoin:miter;stroke:rgb(0%,0%,0%);stroke-opacity:1;stroke-miterlimit:10;" d="M 6.118157 2.743391 L 6.373224 1.958686 " transform="matrix(17.320819,0,0,17.333333,17.130077,17.022102)"/>
<path style="fill:none;stroke-width:0.0333333;stroke-linecap:butt;stroke-linejoin:miter;stroke:rgb(0%,0%,0%);stroke-opacity:1;stroke-miterlimit:10;" d="M 6.594688 1.727691 L 7.206533 1.528923 " transform="matrix(17.320819,0,0,17.333333,17.130077,17.022102)"/>
<path style="fill:none;stroke-width:0.0333333;stroke-linecap:butt;stroke-linejoin:miter;stroke:rgb(0%,0%,0%);stroke-opacity:1;stroke-miterlimit:10;" d="M 5.705449 1.253533 L 5.705449 0.346456 " transform="matrix(17.320819,0,0,17.333333,17.130077,17.022102)"/>
<path style="fill:none;stroke-width:0.0333333;stroke-linecap:butt;stroke-linejoin:miter;stroke:rgb(0%,0%,0%);stroke-opacity:1;stroke-miterlimit:10;" d="M 5.538562 1.253533 L 5.538562 0.346456 " transform="matrix(17.320819,0,0,17.333333,17.130077,17.022102)"/>
<path style="fill:none;stroke-width:0.0333333;stroke-linecap:butt;stroke-linejoin:miter;stroke:rgb(0%,0%,0%);stroke-opacity:1;stroke-miterlimit:10;" d="M 0.921647 1.777721 L 1.151906 2.763223 " transform="matrix(17.320819,0,0,17.333333,17.130077,17.022102)"/>
<path style="fill:none;stroke-width:0.0333333;stroke-linecap:butt;stroke-linejoin:miter;stroke:rgb(0%,0%,0%);stroke-opacity:1;stroke-miterlimit:10;" d="M 0.921647 1.777721 L 1.784499 1.256012 " transform="matrix(17.320819,0,0,17.333333,17.130077,17.022102)"/>
<path style="fill:none;stroke-width:0.0333333;stroke-linecap:butt;stroke-linejoin:miter;stroke:rgb(0%,0%,0%);stroke-opacity:1;stroke-miterlimit:10;" d="M 1.137021 2.750378 L 2.001678 2.823845 " transform="matrix(17.320819,0,0,17.333333,17.130077,17.022102)"/>
<path style="fill:none;stroke-width:0.0333333;stroke-linecap:butt;stroke-linejoin:miter;stroke:rgb(0%,0%,0%);stroke-opacity:1;stroke-miterlimit:10;" d="M 2.222014 2.654149 L 2.537071 1.906402 " transform="matrix(17.320819,0,0,17.333333,17.130077,17.022102)"/>
<path style="fill:none;stroke-width:0.0333333;stroke-linecap:butt;stroke-linejoin:miter;stroke:rgb(0%,0%,0%);stroke-opacity:1;stroke-miterlimit:10;" d="M 2.533913 1.91429 L 1.777508 1.260519 " transform="matrix(17.320819,0,0,17.333333,17.130077,17.022102)"/>
<path style="fill:none;stroke-width:0.0333333;stroke-linecap:butt;stroke-linejoin:miter;stroke:rgb(0%,0%,0%);stroke-opacity:1;stroke-miterlimit:10;" d="M 2.333197 1.961165 L 1.759917 1.465597 " transform="matrix(17.320819,0,0,17.333333,17.130077,17.022102)"/>
<path style="fill:none;stroke-width:0.0333333;stroke-linecap:butt;stroke-linejoin:miter;stroke:rgb(0%,0%,0%);stroke-opacity:1;stroke-miterlimit:10;" d="M 1.776606 1.268857 L 1.848097 0.425558 " transform="matrix(17.320819,0,0,17.333333,17.130077,17.022102)"/>
<path style="fill:none;stroke-width:0.0333333;stroke-linecap:butt;stroke-linejoin:miter;stroke:rgb(0%,0%,0%);stroke-opacity:1;stroke-miterlimit:10;" d="M 2.525569 1.916093 L 3.51697 1.684422 " transform="matrix(17.320819,0,0,17.333333,17.130077,17.022102)"/>
<path style="fill:none;stroke-width:0.0333333;stroke-linecap:butt;stroke-linejoin:miter;stroke:rgb(0%,0%,0%);stroke-opacity:1;stroke-miterlimit:10;" d="M 3.504792 1.69569 L 3.740915 0.915041 " transform="matrix(17.320819,0,0,17.333333,17.130077,17.022102)"/>
<path style="fill:none;stroke-width:0.0333333;stroke-linecap:butt;stroke-linejoin:miter;stroke:rgb(0%,0%,0%);stroke-opacity:1;stroke-miterlimit:10;" d="M 3.413906 1.708536 L 3.981097 2.313403 " transform="matrix(17.320819,0,0,17.333333,17.130077,17.022102)"/>
<path style="fill:none;stroke-width:0.0333333;stroke-linecap:butt;stroke-linejoin:miter;stroke:rgb(0%,0%,0%);stroke-opacity:1;stroke-miterlimit:10;" d="M 3.535463 1.594503 L 4.102654 2.199371 " transform="matrix(17.320819,0,0,17.333333,17.130077,17.022102)"/>
<path style="fill:none;stroke-width:0.0333333;stroke-linecap:butt;stroke-linejoin:miter;stroke:rgb(0%,0%,0%);stroke-opacity:1;stroke-miterlimit:10;" d="M 3.647548 0.569789 L 3.259197 0.155576 " transform="matrix(17.320819,0,0,17.333333,17.130077,17.022102)"/>
<path style="fill:none;stroke-width:0.0333333;stroke-linecap:butt;stroke-linejoin:miter;stroke:rgb(0%,0%,0%);stroke-opacity:1;stroke-miterlimit:10;" d="M 0.921647 1.777721 L 0.178772 1.464921 " transform="matrix(17.320819,0,0,17.333333,17.130077,17.022102)"/>
</g>
</svg>
