<?xml version="1.0" encoding="UTF-8"?>
<svg xmlns="http://www.w3.org/2000/svg" xmlns:xlink="http://www.w3.org/1999/xlink" width="153.6pt" height="131.2pt" viewBox="0 0 153.6 131.2" version="1.1">
<g id="surface247">
<path style=" stroke:none;fill-rule:nonzero;fill:rgb(0%,0%,47.058824%);fill-opacity:1;" d="M 45.589844 99.507812 L 43.914062 96.566406 C 43.929688 96.648438 43.941406 96.726562 43.949219 96.804688 C 43.953125 96.871094 43.960938 96.945312 43.960938 97.023438 C 43.964844 97.105469 43.96875 97.179688 43.96875 97.25 L 43.96875 99.507812 L 43.253906 99.507812 L 43.253906 95.6875 L 44.175781 95.6875 L 45.863281 98.652344 C 45.851562 98.582031 45.84375 98.5 45.839844 98.410156 C 45.832031 98.339844 45.824219 98.261719 45.816406 98.171875 C 45.816406 98.085938 45.816406 97.996094 45.816406 97.902344 L 45.816406 95.6875 L 46.523438 95.6875 L 46.523438 99.507812 Z M 45.589844 99.507812 "/>
<path style=" stroke:none;fill-rule:nonzero;fill:rgb(0%,0%,47.058824%);fill-opacity:1;" d="M 46.847656 70.089844 C 46.847656 70.261719 46.816406 70.421875 46.75 70.566406 C 46.683594 70.714844 46.582031 70.835938 46.445312 70.9375 C 46.316406 71.039062 46.144531 71.117188 45.933594 71.175781 C 45.730469 71.222656 45.488281 71.25 45.207031 71.25 C 44.949219 71.25 44.726562 71.230469 44.53125 71.183594 C 44.335938 71.136719 44.167969 71.066406 44.03125 70.980469 C 43.894531 70.890625 43.78125 70.785156 43.695312 70.652344 C 43.609375 70.523438 43.546875 70.371094 43.511719 70.199219 L 44.28125 70.066406 C 44.304688 70.152344 44.335938 70.234375 44.378906 70.304688 C 44.425781 70.378906 44.480469 70.441406 44.554688 70.492188 C 44.625 70.542969 44.71875 70.582031 44.824219 70.609375 C 44.933594 70.640625 45.066406 70.652344 45.226562 70.652344 C 45.496094 70.652344 45.699219 70.617188 45.847656 70.535156 C 45.992188 70.445312 46.066406 70.316406 46.066406 70.144531 C 46.066406 70.035156 46.035156 69.949219 45.976562 69.882812 C 45.917969 69.816406 45.839844 69.761719 45.738281 69.71875 C 45.644531 69.675781 45.535156 69.640625 45.414062 69.609375 C 45.289062 69.582031 45.15625 69.554688 45.023438 69.523438 C 44.914062 69.496094 44.804688 69.46875 44.695312 69.449219 C 44.585938 69.421875 44.480469 69.386719 44.378906 69.351562 C 44.285156 69.308594 44.195312 69.261719 44.109375 69.210938 C 44.023438 69.160156 43.945312 69.097656 43.878906 69.023438 C 43.820312 68.945312 43.773438 68.855469 43.738281 68.753906 C 43.699219 68.644531 43.683594 68.523438 43.683594 68.382812 C 43.683594 68.195312 43.71875 68.035156 43.792969 67.894531 C 43.871094 67.757812 43.980469 67.644531 44.121094 67.558594 C 44.253906 67.472656 44.414062 67.414062 44.597656 67.375 C 44.785156 67.332031 44.992188 67.308594 45.21875 67.308594 C 45.460938 67.308594 45.675781 67.332031 45.847656 67.375 C 46.027344 67.414062 46.179688 67.46875 46.304688 67.546875 C 46.425781 67.628906 46.523438 67.730469 46.585938 67.851562 C 46.65625 67.96875 46.710938 68.109375 46.738281 68.277344 L 45.96875 68.375 C 45.925781 68.214844 45.839844 68.097656 45.71875 68.015625 C 45.601562 67.929688 45.425781 67.882812 45.195312 67.882812 C 45.058594 67.882812 44.941406 67.894531 44.847656 67.917969 C 44.753906 67.9375 44.675781 67.972656 44.621094 68.015625 C 44.566406 68.058594 44.527344 68.109375 44.5 68.167969 C 44.476562 68.21875 44.46875 68.277344 44.46875 68.339844 C 44.46875 68.4375 44.488281 68.511719 44.53125 68.570312 C 44.582031 68.628906 44.648438 68.675781 44.726562 68.71875 C 44.808594 68.765625 44.902344 68.800781 45.011719 68.828125 C 45.125 68.851562 45.253906 68.878906 45.390625 68.90625 C 45.511719 68.933594 45.632812 68.964844 45.75 68.992188 C 45.863281 69.023438 45.976562 69.054688 46.085938 69.089844 C 46.195312 69.128906 46.292969 69.175781 46.378906 69.230469 C 46.472656 69.28125 46.554688 69.347656 46.621094 69.425781 C 46.691406 69.507812 46.746094 69.601562 46.78125 69.707031 C 46.824219 69.816406 46.847656 69.945312 46.847656 70.089844 Z M 46.847656 70.089844 "/>
<path style=" stroke:none;fill-rule:nonzero;fill:rgb(0%,0%,0%);fill-opacity:1;" d="M 18.148438 85.066406 L 16.09375 81.808594 C 16.101562 81.894531 16.105469 81.980469 16.105469 82.066406 C 16.113281 82.140625 16.117188 82.21875 16.117188 82.308594 C 16.121094 82.386719 16.128906 82.457031 16.128906 82.523438 L 16.128906 85.066406 L 15.660156 85.066406 L 15.660156 81.242188 L 16.269531 81.242188 L 18.335938 84.523438 C 18.335938 84.523438 18.328125 84.433594 18.324219 84.25 C 18.316406 84.179688 18.308594 84.097656 18.300781 84.011719 C 18.300781 83.917969 18.300781 83.832031 18.300781 83.75 L 18.300781 81.242188 L 18.769531 81.242188 L 18.769531 85.066406 Z M 18.148438 85.066406 "/>
<path style=" stroke:none;fill-rule:nonzero;fill:rgb(0%,0%,0%);fill-opacity:1;" d="M 39.414062 112.640625 C 39.195312 112.640625 39.003906 112.679688 38.835938 112.75 C 38.667969 112.824219 38.527344 112.929688 38.414062 113.066406 C 38.304688 113.195312 38.21875 113.355469 38.164062 113.542969 C 38.101562 113.734375 38.074219 113.941406 38.074219 114.171875 C 38.074219 114.40625 38.101562 114.617188 38.164062 114.8125 C 38.226562 115.003906 38.316406 115.164062 38.433594 115.300781 C 38.550781 115.441406 38.691406 115.546875 38.859375 115.628906 C 39.03125 115.699219 39.222656 115.734375 39.433594 115.734375 C 39.585938 115.734375 39.71875 115.71875 39.835938 115.683594 C 39.960938 115.636719 40.070312 115.582031 40.175781 115.507812 C 40.273438 115.4375 40.363281 115.351562 40.433594 115.257812 C 40.511719 115.164062 40.582031 115.058594 40.640625 114.933594 L 41.066406 115.148438 C 41 115.296875 40.914062 115.429688 40.816406 115.550781 C 40.710938 115.675781 40.59375 115.785156 40.457031 115.878906 C 40.316406 115.964844 40.164062 116.035156 39.988281 116.082031 C 39.816406 116.132812 39.621094 116.160156 39.414062 116.160156 C 39.101562 116.160156 38.828125 116.109375 38.597656 116.019531 C 38.363281 115.917969 38.167969 115.78125 38.011719 115.605469 C 37.859375 115.425781 37.742188 115.214844 37.664062 114.976562 C 37.582031 114.730469 37.542969 114.460938 37.542969 114.171875 C 37.542969 113.875 37.582031 113.609375 37.664062 113.367188 C 37.75 113.125 37.871094 112.917969 38.03125 112.75 C 38.191406 112.585938 38.386719 112.453125 38.621094 112.359375 C 38.851562 112.265625 39.113281 112.21875 39.414062 112.21875 C 39.816406 112.21875 40.15625 112.300781 40.425781 112.457031 C 40.699219 112.617188 40.902344 112.855469 41.03125 113.171875 L 40.542969 113.335938 C 40.503906 113.242188 40.457031 113.15625 40.390625 113.074219 C 40.332031 112.988281 40.253906 112.917969 40.164062 112.859375 C 40.066406 112.792969 39.960938 112.746094 39.835938 112.707031 C 39.710938 112.664062 39.570312 112.640625 39.414062 112.640625 Z M 39.414062 112.640625 "/>
<path style=" stroke:none;fill-rule:nonzero;fill:rgb(0%,0%,47.058824%);fill-opacity:1;" d="M 105.386719 52.890625 C 105.386719 53.0625 105.351562 53.222656 105.289062 53.367188 C 105.222656 53.515625 105.121094 53.636719 104.984375 53.738281 C 104.851562 53.839844 104.683594 53.917969 104.472656 53.976562 C 104.269531 54.023438 104.027344 54.050781 103.746094 54.050781 C 103.488281 54.050781 103.265625 54.03125 103.070312 53.984375 C 102.875 53.9375 102.707031 53.867188 102.570312 53.78125 C 102.433594 53.691406 102.320312 53.585938 102.234375 53.453125 C 102.148438 53.324219 102.085938 53.171875 102.050781 53 L 102.820312 52.867188 C 102.84375 52.953125 102.875 53.035156 102.917969 53.105469 C 102.960938 53.179688 103.019531 53.242188 103.09375 53.292969 C 103.164062 53.34375 103.253906 53.382812 103.363281 53.410156 C 103.472656 53.441406 103.605469 53.453125 103.765625 53.453125 C 104.03125 53.453125 104.238281 53.417969 104.386719 53.335938 C 104.53125 53.246094 104.601562 53.117188 104.601562 52.945312 C 104.601562 52.835938 104.574219 52.75 104.515625 52.683594 C 104.457031 52.617188 104.378906 52.5625 104.277344 52.519531 C 104.183594 52.476562 104.074219 52.441406 103.949219 52.410156 C 103.824219 52.382812 103.695312 52.355469 103.558594 52.324219 C 103.449219 52.296875 103.34375 52.269531 103.234375 52.25 C 103.125 52.222656 103.019531 52.1875 102.917969 52.152344 C 102.824219 52.109375 102.734375 52.0625 102.648438 52.011719 C 102.558594 51.960938 102.484375 51.898438 102.417969 51.824219 C 102.359375 51.746094 102.3125 51.65625 102.277344 51.554688 C 102.238281 51.445312 102.222656 51.324219 102.222656 51.183594 C 102.222656 50.996094 102.257812 50.835938 102.332031 50.695312 C 102.410156 50.558594 102.519531 50.445312 102.65625 50.359375 C 102.792969 50.273438 102.953125 50.214844 103.136719 50.175781 C 103.324219 50.132812 103.53125 50.109375 103.753906 50.109375 C 104 50.109375 104.210938 50.132812 104.386719 50.175781 C 104.566406 50.214844 104.71875 50.269531 104.84375 50.347656 C 104.964844 50.429688 105.058594 50.53125 105.125 50.652344 C 105.195312 50.769531 105.246094 50.910156 105.277344 51.078125 L 104.503906 51.175781 C 104.460938 51.015625 104.378906 50.898438 104.253906 50.816406 C 104.136719 50.730469 103.964844 50.683594 103.734375 50.683594 C 103.59375 50.683594 103.476562 50.695312 103.386719 50.71875 C 103.289062 50.738281 103.214844 50.773438 103.15625 50.816406 C 103.105469 50.859375 103.066406 50.910156 103.039062 50.96875 C 103.015625 51.019531 103.003906 51.078125 103.003906 51.140625 C 103.003906 51.238281 103.027344 51.3125 103.070312 51.371094 C 103.121094 51.429688 103.183594 51.476562 103.265625 51.519531 C 103.34375 51.566406 103.441406 51.601562 103.550781 51.628906 C 103.664062 51.652344 103.789062 51.679688 103.929688 51.707031 C 104.050781 51.734375 104.171875 51.765625 104.289062 51.792969 C 104.402344 51.824219 104.515625 51.855469 104.625 51.890625 C 104.734375 51.929688 104.832031 51.976562 104.917969 52.03125 C 105.011719 52.082031 105.09375 52.148438 105.15625 52.226562 C 105.226562 52.308594 105.28125 52.402344 105.320312 52.507812 C 105.363281 52.617188 105.386719 52.746094 105.386719 52.890625 Z M 105.386719 52.890625 "/>
<path style=" stroke:none;fill-rule:nonzero;fill:rgb(0%,0%,0%);fill-opacity:1;" d="M 109.988281 25.011719 C 109.988281 25.171875 109.957031 25.320312 109.890625 25.457031 C 109.832031 25.585938 109.738281 25.703125 109.609375 25.804688 C 109.476562 25.90625 109.308594 25.984375 109.109375 26.042969 C 108.914062 26.09375 108.679688 26.117188 108.414062 26.117188 C 107.933594 26.117188 107.558594 26.039062 107.292969 25.871094 C 107.023438 25.703125 106.851562 25.460938 106.78125 25.140625 L 107.292969 25.042969 C 107.316406 25.148438 107.351562 25.238281 107.402344 25.316406 C 107.460938 25.398438 107.53125 25.46875 107.621094 25.53125 C 107.707031 25.59375 107.816406 25.636719 107.945312 25.675781 C 108.082031 25.703125 108.242188 25.71875 108.425781 25.71875 C 108.582031 25.71875 108.722656 25.703125 108.847656 25.675781 C 108.976562 25.648438 109.089844 25.605469 109.183594 25.554688 C 109.277344 25.496094 109.351562 25.429688 109.402344 25.347656 C 109.449219 25.261719 109.476562 25.15625 109.476562 25.035156 C 109.476562 24.910156 109.449219 24.8125 109.390625 24.730469 C 109.332031 24.652344 109.253906 24.585938 109.152344 24.535156 C 109.050781 24.484375 108.925781 24.445312 108.78125 24.414062 C 108.636719 24.378906 108.476562 24.339844 108.304688 24.292969 C 108.195312 24.273438 108.085938 24.25 107.976562 24.21875 C 107.875 24.191406 107.773438 24.160156 107.675781 24.121094 C 107.570312 24.085938 107.476562 24.042969 107.390625 23.992188 C 107.304688 23.933594 107.226562 23.867188 107.164062 23.796875 C 107.101562 23.726562 107.058594 23.640625 107.023438 23.546875 C 106.984375 23.445312 106.96875 23.332031 106.96875 23.210938 C 106.96875 23.03125 107.003906 22.871094 107.074219 22.742188 C 107.148438 22.613281 107.25 22.507812 107.378906 22.425781 C 107.511719 22.339844 107.664062 22.28125 107.835938 22.242188 C 108.015625 22.199219 108.210938 22.175781 108.425781 22.175781 C 108.65625 22.175781 108.851562 22.199219 109.023438 22.242188 C 109.195312 22.28125 109.339844 22.335938 109.457031 22.40625 C 109.570312 22.480469 109.664062 22.570312 109.726562 22.675781 C 109.800781 22.785156 109.859375 22.914062 109.902344 23.058594 L 109.390625 23.15625 C 109.363281 23.0625 109.320312 22.976562 109.273438 22.90625 C 109.226562 22.835938 109.164062 22.773438 109.085938 22.71875 C 109.011719 22.671875 108.917969 22.632812 108.804688 22.613281 C 108.695312 22.585938 108.566406 22.570312 108.414062 22.570312 C 108.238281 22.570312 108.089844 22.585938 107.96875 22.621094 C 107.84375 22.652344 107.746094 22.695312 107.675781 22.753906 C 107.601562 22.804688 107.546875 22.867188 107.511719 22.9375 C 107.480469 23.011719 107.46875 23.089844 107.46875 23.175781 C 107.46875 23.292969 107.496094 23.386719 107.554688 23.457031 C 107.613281 23.53125 107.6875 23.59375 107.78125 23.644531 C 107.882812 23.695312 108 23.738281 108.128906 23.773438 C 108.261719 23.804688 108.398438 23.832031 108.542969 23.859375 C 108.65625 23.890625 108.773438 23.921875 108.890625 23.949219 C 109.003906 23.976562 109.121094 24.011719 109.226562 24.046875 C 109.335938 24.082031 109.433594 24.128906 109.523438 24.1875 C 109.613281 24.238281 109.695312 24.304688 109.761719 24.382812 C 109.832031 24.453125 109.886719 24.542969 109.925781 24.640625 C 109.96875 24.746094 109.988281 24.867188 109.988281 25.011719 Z M 109.988281 25.011719 "/>
<path style=" stroke:none;fill-rule:nonzero;fill:rgb(0%,0%,47.058824%);fill-opacity:1;" d="M 79.3125 35.453125 L 77.636719 32.507812 C 77.652344 32.589844 77.664062 32.667969 77.671875 32.746094 C 77.675781 32.8125 77.683594 32.886719 77.683594 32.964844 C 77.6875 33.046875 77.691406 33.121094 77.691406 33.191406 L 77.691406 35.453125 L 76.976562 35.453125 L 76.976562 31.628906 L 77.898438 31.628906 L 79.585938 34.59375 C 79.574219 34.523438 79.566406 34.441406 79.5625 34.355469 C 79.554688 34.285156 79.546875 34.203125 79.539062 34.117188 C 79.539062 34.027344 79.539062 33.941406 79.539062 33.84375 L 79.539062 31.628906 L 80.246094 31.628906 L 80.246094 35.453125 Z M 79.3125 35.453125 "/>
<path style=" stroke:none;fill-rule:nonzero;fill:rgb(0%,0%,0%);fill-opacity:1;" d="M 72.574219 15.601562 C 72.359375 15.601562 72.164062 15.640625 72 15.710938 C 71.832031 15.785156 71.691406 15.890625 71.574219 16.027344 C 71.46875 16.15625 71.382812 16.316406 71.324219 16.503906 C 71.265625 16.695312 71.238281 16.902344 71.238281 17.132812 C 71.238281 17.367188 71.265625 17.578125 71.324219 17.773438 C 71.390625 17.964844 71.480469 18.128906 71.597656 18.261719 C 71.710938 18.402344 71.851562 18.511719 72.023438 18.589844 C 72.195312 18.664062 72.386719 18.699219 72.597656 18.699219 C 72.75 18.699219 72.882812 18.679688 73 18.644531 C 73.121094 18.601562 73.234375 18.542969 73.335938 18.46875 C 73.4375 18.398438 73.523438 18.316406 73.597656 18.21875 C 73.675781 18.128906 73.746094 18.019531 73.804688 17.894531 L 74.226562 18.109375 C 74.164062 18.257812 74.078125 18.390625 73.976562 18.511719 C 73.875 18.636719 73.753906 18.746094 73.621094 18.839844 C 73.480469 18.925781 73.324219 18.996094 73.152344 19.046875 C 72.976562 19.09375 72.785156 19.121094 72.574219 19.121094 C 72.261719 19.121094 71.992188 19.070312 71.761719 18.980469 C 71.527344 18.878906 71.332031 18.742188 71.175781 18.566406 C 71.023438 18.386719 70.90625 18.175781 70.824219 17.9375 C 70.746094 17.691406 70.707031 17.425781 70.707031 17.132812 C 70.707031 16.839844 70.746094 16.570312 70.824219 16.332031 C 70.914062 16.085938 71.035156 15.878906 71.195312 15.710938 C 71.351562 15.546875 71.550781 15.414062 71.78125 15.320312 C 72.011719 15.226562 72.277344 15.179688 72.574219 15.179688 C 72.980469 15.179688 73.316406 15.261719 73.585938 15.417969 C 73.863281 15.578125 74.066406 15.816406 74.195312 16.136719 L 73.707031 16.296875 C 73.667969 16.207031 73.621094 16.117188 73.554688 16.039062 C 73.496094 15.949219 73.417969 15.878906 73.324219 15.820312 C 73.230469 15.753906 73.121094 15.707031 73 15.667969 C 72.875 15.625 72.734375 15.601562 72.574219 15.601562 Z M 72.574219 15.601562 "/>
<path style=" stroke:none;fill-rule:nonzero;fill:rgb(0%,0%,0%);fill-opacity:1;" d="M 67.582031 45.503906 C 67.363281 45.503906 67.171875 45.542969 67.003906 45.613281 C 66.835938 45.683594 66.695312 45.792969 66.582031 45.925781 C 66.472656 46.058594 66.386719 46.21875 66.332031 46.40625 C 66.273438 46.59375 66.246094 46.804688 66.246094 47.035156 C 66.246094 47.269531 66.273438 47.480469 66.332031 47.675781 C 66.398438 47.863281 66.488281 48.027344 66.601562 48.164062 C 66.71875 48.300781 66.859375 48.410156 67.027344 48.488281 C 67.199219 48.5625 67.390625 48.597656 67.601562 48.597656 C 67.753906 48.597656 67.886719 48.582031 68.003906 48.542969 C 68.128906 48.5 68.238281 48.441406 68.34375 48.371094 C 68.441406 48.300781 68.53125 48.214844 68.601562 48.121094 C 68.683594 48.027344 68.75 47.917969 68.808594 47.792969 L 69.234375 48.011719 C 69.167969 48.15625 69.085938 48.292969 68.984375 48.414062 C 68.878906 48.539062 68.761719 48.648438 68.625 48.738281 C 68.488281 48.824219 68.332031 48.898438 68.15625 48.945312 C 67.984375 48.996094 67.789062 49.019531 67.582031 49.019531 C 67.269531 49.019531 66.996094 48.972656 66.765625 48.878906 C 66.53125 48.78125 66.335938 48.640625 66.179688 48.46875 C 66.027344 48.289062 65.910156 48.078125 65.832031 47.835938 C 65.75 47.59375 65.710938 47.324219 65.710938 47.035156 C 65.710938 46.738281 65.75 46.46875 65.832031 46.230469 C 65.917969 45.988281 66.039062 45.78125 66.199219 45.613281 C 66.359375 45.445312 66.554688 45.316406 66.789062 45.222656 C 67.019531 45.128906 67.28125 45.078125 67.582031 45.078125 C 67.988281 45.078125 68.324219 45.160156 68.59375 45.320312 C 68.867188 45.480469 69.070312 45.71875 69.199219 46.035156 L 68.710938 46.199219 C 68.675781 46.105469 68.625 46.019531 68.558594 45.9375 C 68.5 45.851562 68.425781 45.78125 68.332031 45.71875 C 68.238281 45.65625 68.128906 45.605469 68.003906 45.570312 C 67.878906 45.523438 67.738281 45.503906 67.582031 45.503906 Z M 67.582031 45.503906 "/>
<path style=" stroke:none;fill-rule:nonzero;fill:rgb(0%,0%,0%);fill-opacity:1;" d="M 136.628906 48.90625 C 136.414062 48.90625 136.21875 48.945312 136.054688 49.015625 C 135.886719 49.089844 135.746094 49.195312 135.628906 49.332031 C 135.523438 49.460938 135.4375 49.621094 135.378906 49.808594 C 135.320312 50 135.292969 50.207031 135.292969 50.4375 C 135.292969 50.671875 135.320312 50.882812 135.378906 51.078125 C 135.445312 51.269531 135.535156 51.433594 135.652344 51.566406 C 135.765625 51.707031 135.90625 51.816406 136.074219 51.894531 C 136.25 51.964844 136.441406 52 136.652344 52 C 136.804688 52 136.9375 51.984375 137.054688 51.949219 C 137.175781 51.902344 137.289062 51.847656 137.390625 51.773438 C 137.492188 51.703125 137.578125 51.621094 137.652344 51.523438 C 137.730469 51.433594 137.800781 51.324219 137.859375 51.199219 L 138.28125 51.414062 C 138.21875 51.5625 138.132812 51.695312 138.03125 51.816406 C 137.929688 51.941406 137.808594 52.050781 137.675781 52.144531 C 137.535156 52.230469 137.378906 52.300781 137.207031 52.347656 C 137.03125 52.398438 136.839844 52.425781 136.628906 52.425781 C 136.316406 52.425781 136.046875 52.375 135.816406 52.285156 C 135.582031 52.183594 135.386719 52.046875 135.226562 51.871094 C 135.074219 51.691406 134.960938 51.480469 134.878906 51.242188 C 134.800781 50.996094 134.761719 50.730469 134.761719 50.4375 C 134.761719 50.140625 134.800781 49.875 134.878906 49.636719 C 134.96875 49.390625 135.089844 49.183594 135.25 49.015625 C 135.40625 48.851562 135.601562 48.71875 135.835938 48.625 C 136.066406 48.53125 136.332031 48.484375 136.628906 48.484375 C 137.035156 48.484375 137.371094 48.566406 137.640625 48.722656 C 137.914062 48.882812 138.121094 49.121094 138.25 49.4375 L 137.761719 49.601562 C 137.722656 49.511719 137.675781 49.421875 137.609375 49.339844 C 137.550781 49.253906 137.472656 49.183594 137.378906 49.125 C 137.285156 49.058594 137.175781 49.011719 137.054688 48.972656 C 136.929688 48.929688 136.789062 48.90625 136.628906 48.90625 Z M 136.628906 48.90625 "/>
<path style=" stroke:none;fill-rule:nonzero;fill:rgb(0%,0%,0%);fill-opacity:1;" d="M 112.53125 81.96875 L 110.476562 78.710938 C 110.484375 78.800781 110.488281 78.886719 110.488281 78.972656 C 110.496094 79.046875 110.5 79.125 110.5 79.210938 C 110.503906 79.292969 110.511719 79.363281 110.511719 79.429688 L 110.511719 81.96875 L 110.042969 81.96875 L 110.042969 78.148438 L 110.652344 78.148438 L 112.71875 81.425781 C 112.71875 81.425781 112.710938 81.335938 112.707031 81.15625 C 112.699219 81.085938 112.691406 81.003906 112.683594 80.917969 C 112.683594 80.824219 112.683594 80.738281 112.683594 80.65625 L 112.683594 78.148438 L 113.152344 78.148438 L 113.152344 81.96875 Z M 112.53125 81.96875 "/>
<path style=" stroke:none;fill-rule:nonzero;fill:rgb(0%,0%,0%);fill-opacity:1;" d="M 120.65625 96.019531 C 120.65625 96.320312 120.613281 96.589844 120.523438 96.835938 C 120.4375 97.082031 120.308594 97.289062 120.144531 97.464844 C 119.984375 97.636719 119.785156 97.773438 119.546875 97.867188 C 119.3125 97.957031 119.050781 98.007812 118.753906 98.007812 C 118.433594 98.007812 118.15625 97.957031 117.914062 97.867188 C 117.683594 97.765625 117.488281 97.628906 117.328125 97.453125 C 117.167969 97.273438 117.050781 97.0625 116.96875 96.824219 C 116.886719 96.578125 116.851562 96.3125 116.851562 96.019531 C 116.851562 95.722656 116.886719 95.457031 116.96875 95.21875 C 117.058594 94.972656 117.179688 94.765625 117.339844 94.597656 C 117.503906 94.433594 117.703125 94.300781 117.9375 94.207031 C 118.175781 94.113281 118.449219 94.066406 118.753906 94.066406 C 119.058594 94.066406 119.328125 94.113281 119.566406 94.207031 C 119.808594 94.300781 120.003906 94.433594 120.164062 94.609375 C 120.324219 94.777344 120.441406 94.976562 120.523438 95.21875 C 120.613281 95.457031 120.65625 95.722656 120.65625 96.019531 Z M 120.121094 96.019531 C 120.121094 95.789062 120.09375 95.582031 120.035156 95.390625 C 119.976562 95.203125 119.886719 95.042969 119.773438 94.914062 C 119.65625 94.777344 119.511719 94.671875 119.339844 94.597656 C 119.171875 94.527344 118.976562 94.488281 118.753906 94.488281 C 118.527344 94.488281 118.328125 94.527344 118.15625 94.597656 C 117.980469 94.671875 117.835938 94.777344 117.71875 94.914062 C 117.613281 95.042969 117.527344 95.203125 117.46875 95.390625 C 117.410156 95.582031 117.382812 95.789062 117.382812 96.019531 C 117.382812 96.253906 117.410156 96.464844 117.46875 96.660156 C 117.527344 96.851562 117.613281 97.015625 117.730469 97.148438 C 117.84375 97.289062 117.988281 97.398438 118.15625 97.476562 C 118.328125 97.546875 118.527344 97.585938 118.753906 97.585938 C 118.992188 97.585938 119.199219 97.546875 119.371094 97.476562 C 119.546875 97.398438 119.6875 97.289062 119.796875 97.148438 C 119.90625 97.003906 119.984375 96.839844 120.035156 96.648438 C 120.09375 96.453125 120.121094 96.246094 120.121094 96.019531 Z M 120.121094 96.019531 "/>
<path style="fill:none;stroke-width:0.06;stroke-linecap:butt;stroke-linejoin:miter;stroke:rgb(0%,0%,47.058824%);stroke-opacity:1;stroke-miterlimit:10;" d="M 0.99469 3.791928 L 1.472658 4.463997 " transform="matrix(17.391304,0,0,17.372881,17.216675,17.150631)"/>
<path style="fill:none;stroke-width:0.0333333;stroke-linecap:butt;stroke-linejoin:miter;stroke:rgb(0%,0%,0%);stroke-opacity:1;stroke-miterlimit:10;" d="M 1.758586 4.577995 L 2.564035 4.325716 " transform="matrix(17.391304,0,0,17.372881,17.216675,17.150631)"/>
<path style="fill:none;stroke-width:0.06;stroke-linecap:butt;stroke-linejoin:miter;stroke:rgb(0%,0%,47.058824%);stroke-opacity:1;stroke-miterlimit:10;" d="M 2.574367 3.325819 L 1.779026 3.05825 " transform="matrix(17.391304,0,0,17.372881,17.216675,17.150631)"/>
<path style="fill:none;stroke-width:0.06;stroke-linecap:butt;stroke-linejoin:miter;stroke:rgb(0%,0%,47.058824%);stroke-opacity:1;stroke-miterlimit:10;" d="M 0.994465 3.827004 L 1.483215 3.168426 " transform="matrix(17.391304,0,0,17.372881,17.216675,17.150631)"/>
<path style="fill:none;stroke-width:0.0333333;stroke-linecap:butt;stroke-linejoin:miter;stroke:rgb(0%,0%,0%);stroke-opacity:1;stroke-miterlimit:10;" d="M 2.552356 4.329089 L 3.428108 4.846688 " transform="matrix(17.391304,0,0,17.372881,17.216675,17.150631)"/>
<path style="fill:none;stroke-width:0.0333333;stroke-linecap:butt;stroke-linejoin:miter;stroke:rgb(0%,0%,0%);stroke-opacity:1;stroke-miterlimit:10;" d="M 2.720139 4.234653 L 3.429904 4.654218 " transform="matrix(17.391304,0,0,17.372881,17.216675,17.150631)"/>
<path style="fill:none;stroke-width:0.0333333;stroke-linecap:butt;stroke-linejoin:miter;stroke:rgb(0%,0%,0%);stroke-opacity:1;stroke-miterlimit:10;" d="M 2.562912 3.30963 L 2.552131 4.34123 " transform="matrix(17.391304,0,0,17.372881,17.216675,17.150631)"/>
<path style="fill:none;stroke-width:0.0333333;stroke-linecap:butt;stroke-linejoin:miter;stroke:rgb(0%,0%,0%);stroke-opacity:1;stroke-miterlimit:10;" d="M 2.562912 3.321772 L 3.448547 2.822385 " transform="matrix(17.391304,0,0,17.372881,17.216675,17.150631)"/>
<path style="fill:none;stroke-width:0.0333333;stroke-linecap:butt;stroke-linejoin:miter;stroke:rgb(0%,0%,0%);stroke-opacity:1;stroke-miterlimit:10;" d="M 2.728449 3.419805 L 3.44675 3.014855 " transform="matrix(17.391304,0,0,17.372881,17.216675,17.150631)"/>
<path style="fill:none;stroke-width:0.0333333;stroke-linecap:butt;stroke-linejoin:miter;stroke:rgb(0%,0%,0%);stroke-opacity:1;stroke-miterlimit:10;" d="M 3.411262 4.846463 L 4.305656 4.342355 " transform="matrix(17.391304,0,0,17.372881,17.216675,17.150631)"/>
<path style="fill:none;stroke-width:0.0333333;stroke-linecap:butt;stroke-linejoin:miter;stroke:rgb(0%,0%,0%);stroke-opacity:1;stroke-miterlimit:10;" d="M 4.297121 4.356745 L 4.307678 3.330091 " transform="matrix(17.391304,0,0,17.372881,17.216675,17.150631)"/>
<path style="fill:none;stroke-width:0.0333333;stroke-linecap:butt;stroke-linejoin:miter;stroke:rgb(0%,0%,0%);stroke-opacity:1;stroke-miterlimit:10;" d="M 4.13136 4.258711 L 4.140119 3.424752 " transform="matrix(17.391304,0,0,17.372881,17.216675,17.150631)"/>
<path style="fill:none;stroke-width:0.0333333;stroke-linecap:butt;stroke-linejoin:miter;stroke:rgb(0%,0%,0%);stroke-opacity:1;stroke-miterlimit:10;" d="M 4.315988 3.344706 L 3.432151 2.82216 " transform="matrix(17.391304,0,0,17.372881,17.216675,17.150631)"/>
<path style="fill:none;stroke-width:0.0333333;stroke-linecap:butt;stroke-linejoin:miter;stroke:rgb(0%,0%,0%);stroke-opacity:1;stroke-miterlimit:10;" d="M 1.068811 3.726947 L 0.13511 3.717278 " transform="matrix(17.391304,0,0,17.372881,17.216675,17.150631)"/>
<path style="fill:none;stroke-width:0.0333333;stroke-linecap:butt;stroke-linejoin:miter;stroke:rgb(0%,0%,0%);stroke-opacity:1;stroke-miterlimit:10;" d="M 1.067014 3.893559 L 0.133537 3.884115 " transform="matrix(17.391304,0,0,17.372881,17.216675,17.150631)"/>
<path style="fill:none;stroke-width:0.0333333;stroke-linecap:butt;stroke-linejoin:miter;stroke:rgb(0%,0%,0%);stroke-opacity:1;stroke-miterlimit:10;" d="M 1.531057 4.810038 L 1.332278 5.401162 " transform="matrix(17.391304,0,0,17.372881,17.216675,17.150631)"/>
<path style="fill:none;stroke-width:0.06;stroke-linecap:butt;stroke-linejoin:miter;stroke:rgb(0%,0%,47.058824%);stroke-opacity:1;stroke-miterlimit:10;" d="M 4.523977 1.109272 L 4.883576 1.829458 " transform="matrix(17.391304,0,0,17.372881,17.216675,17.150631)"/>
<path style="fill:none;stroke-width:0.06;stroke-linecap:butt;stroke-linejoin:miter;stroke:rgb(0%,0%,47.058824%);stroke-opacity:1;stroke-miterlimit:10;" d="M 5.127951 1.987526 L 5.970237 1.861162 " transform="matrix(17.391304,0,0,17.372881,17.216675,17.150631)"/>
<path style="fill:none;stroke-width:0.0333333;stroke-linecap:butt;stroke-linejoin:miter;stroke:rgb(0%,0%,0%);stroke-opacity:1;stroke-miterlimit:10;" d="M 5.970237 1.861162 L 6.13802 0.855644 " transform="matrix(17.391304,0,0,17.372881,17.216675,17.150631)"/>
<path style="fill:none;stroke-width:0.0333333;stroke-linecap:butt;stroke-linejoin:miter;stroke:rgb(0%,0%,0%);stroke-opacity:1;stroke-miterlimit:10;" d="M 6.146779 0.873182 L 5.412981 0.491615 " transform="matrix(17.391304,0,0,17.372881,17.216675,17.150631)"/>
<path style="fill:none;stroke-width:0.0333333;stroke-linecap:butt;stroke-linejoin:miter;stroke:rgb(0%,0%,0%);stroke-opacity:1;stroke-miterlimit:10;" d="M 4.523977 1.109272 L 5.094934 0.547602 " transform="matrix(17.391304,0,0,17.372881,17.216675,17.150631)"/>
<path style="fill:none;stroke-width:0.06;stroke-linecap:butt;stroke-linejoin:miter;stroke:rgb(0%,0%,47.058824%);stroke-opacity:1;stroke-miterlimit:10;" d="M 4.523977 1.109272 L 3.684162 0.969192 " transform="matrix(17.391304,0,0,17.372881,17.216675,17.150631)"/>
<path style="fill:none;stroke-width:0.0333333;stroke-linecap:butt;stroke-linejoin:miter;stroke:rgb(0%,0%,0%);stroke-opacity:1;stroke-miterlimit:10;" d="M 3.462922 0.763906 L 3.246399 0.184923 " transform="matrix(17.391304,0,0,17.372881,17.216675,17.150631)"/>
<path style="fill:none;stroke-width:0.0333333;stroke-linecap:butt;stroke-linejoin:miter;stroke:rgb(0%,0%,0%);stroke-opacity:1;stroke-miterlimit:10;" d="M 3.399582 1.102076 L 3.025158 1.556718 " transform="matrix(17.391304,0,0,17.372881,17.216675,17.150631)"/>
<path style="fill:none;stroke-width:0.0333333;stroke-linecap:butt;stroke-linejoin:miter;stroke:rgb(0%,0%,0%);stroke-opacity:1;stroke-miterlimit:10;" d="M 5.970237 1.861162 L 6.709201 1.907705 " transform="matrix(17.391304,0,0,17.372881,17.216675,17.150631)"/>
<path style="fill:none;stroke-width:0.0333333;stroke-linecap:butt;stroke-linejoin:miter;stroke:rgb(0%,0%,0%);stroke-opacity:1;stroke-miterlimit:10;" d="M 5.970237 1.861162 L 6.017854 2.810918 " transform="matrix(17.391304,0,0,17.372881,17.216675,17.150631)"/>
<path style="fill:none;stroke-width:0.0333333;stroke-linecap:butt;stroke-linejoin:miter;stroke:rgb(0%,0%,0%);stroke-opacity:1;stroke-miterlimit:10;" d="M 6.021223 2.80035 L 5.545276 3.45758 " transform="matrix(17.391304,0,0,17.372881,17.216675,17.150631)"/>
<path style="fill:none;stroke-width:0.0333333;stroke-linecap:butt;stroke-linejoin:miter;stroke:rgb(0%,0%,0%);stroke-opacity:1;stroke-miterlimit:10;" d="M 5.851643 2.750209 L 5.410285 3.359771 " transform="matrix(17.391304,0,0,17.372881,17.216675,17.150631)"/>
<path style="fill:none;stroke-width:0.0333333;stroke-linecap:butt;stroke-linejoin:miter;stroke:rgb(0%,0%,0%);stroke-opacity:1;stroke-miterlimit:10;" d="M 5.506194 3.798448 L 5.754387 4.353372 " transform="matrix(17.391304,0,0,17.372881,17.216675,17.150631)"/>
</g>
</svg>
