<?xml version="1.0" encoding="UTF-8"?>
<svg xmlns="http://www.w3.org/2000/svg" xmlns:xlink="http://www.w3.org/1999/xlink" width="86.4pt" height="51.2pt" viewBox="0 0 86.4 51.2" version="1.1">
<g id="surface732">
<path style=" stroke:none;fill-rule:nonzero;fill:rgb(0%,0%,0%);fill-opacity:1;" d="M 18.304688 20.074219 L 18.304688 18.304688 L 16.25 18.304688 L 16.25 20.074219 L 15.730469 20.074219 L 15.730469 16.25 L 16.25 16.25 L 16.25 17.871094 L 18.304688 17.871094 L 18.304688 16.25 L 18.824219 16.25 L 18.824219 20.074219 Z M 18.304688 20.074219 "/>
<path style=" stroke:none;fill-rule:nonzero;fill:rgb(0%,0%,0%);fill-opacity:1;" d="M 35.976562 19.558594 L 35.976562 17.785156 L 33.921875 17.785156 L 33.921875 19.558594 L 33.402344 19.558594 L 33.402344 15.730469 L 33.921875 15.730469 L 33.921875 17.351562 L 35.976562 17.351562 L 35.976562 15.730469 L 36.496094 15.730469 L 36.496094 19.558594 Z M 35.976562 19.558594 "/>
<path style=" stroke:none;fill-rule:nonzero;fill:rgb(0%,0%,0%);fill-opacity:1;" d="M 53.652344 19.558594 L 53.652344 17.785156 L 51.597656 17.785156 L 51.597656 19.558594 L 51.078125 19.558594 L 51.078125 15.730469 L 51.597656 15.730469 L 51.597656 17.351562 L 53.652344 17.351562 L 53.652344 15.730469 L 54.171875 15.730469 L 54.171875 19.558594 Z M 53.652344 19.558594 "/>
<path style=" stroke:none;fill-rule:nonzero;fill:rgb(0%,0%,0%);fill-opacity:1;" d="M 70.285156 19.03125 L 70.285156 17.261719 L 68.230469 17.261719 L 68.230469 19.03125 L 67.710938 19.03125 L 67.710938 15.207031 L 68.230469 15.207031 L 68.230469 16.824219 L 70.285156 16.824219 L 70.285156 15.207031 L 70.804688 15.207031 L 70.804688 19.03125 Z M 70.285156 19.03125 "/>
<path style=" stroke:none;fill-rule:nonzero;fill:rgb(0%,0%,0%);fill-opacity:1;" d="M 27.144531 36.269531 L 27.144531 34.496094 L 25.089844 34.496094 L 25.089844 36.269531 L 24.570312 36.269531 L 24.570312 32.441406 L 25.089844 32.441406 L 25.089844 34.0625 L 27.144531 34.0625 L 27.144531 32.441406 L 27.664062 32.441406 L 27.664062 36.269531 Z M 27.144531 36.269531 "/>
<path style=" stroke:none;fill-rule:nonzero;fill:rgb(0%,0%,0%);fill-opacity:1;" d="M 44.296875 35.746094 L 44.296875 33.976562 L 42.242188 33.976562 L 42.242188 35.746094 L 41.722656 35.746094 L 41.722656 31.921875 L 42.242188 31.921875 L 42.242188 33.539062 L 44.296875 33.539062 L 44.296875 31.921875 L 44.816406 31.921875 L 44.816406 35.746094 Z M 44.296875 35.746094 "/>
<path style=" stroke:none;fill-rule:nonzero;fill:rgb(0%,0%,0%);fill-opacity:1;" d="M 62.488281 35.746094 L 62.488281 33.976562 L 60.433594 33.976562 L 60.433594 35.746094 L 59.914062 35.746094 L 59.914062 31.921875 L 60.433594 31.921875 L 60.433594 33.539062 L 62.488281 33.539062 L 62.488281 31.921875 L 63.007812 31.921875 L 63.007812 35.746094 Z M 62.488281 35.746094 "/>
</g>
</svg>
