<?xml version="1.0" encoding="UTF-8"?>
<svg xmlns="http://www.w3.org/2000/svg" xmlns:xlink="http://www.w3.org/1999/xlink" width="260.8pt" height="125.6pt" viewBox="0 0 260.8 125.6" version="1.1">
<g id="surface292">
<path style=" stroke:none;fill-rule:nonzero;fill:rgb(0%,0%,0%);fill-opacity:1;" d="M 231.207031 9.53125 C 230.992188 9.53125 230.796875 9.566406 230.632812 9.640625 C 230.464844 9.710938 230.324219 9.816406 230.210938 9.953125 C 230.101562 10.082031 230.019531 10.242188 229.960938 10.429688 C 229.902344 10.621094 229.875 10.832031 229.875 11.0625 C 229.875 11.292969 229.902344 11.503906 229.960938 11.703125 C 230.027344 11.890625 230.117188 12.054688 230.230469 12.191406 C 230.347656 12.328125 230.488281 12.4375 230.65625 12.515625 C 230.828125 12.589844 231.019531 12.625 231.230469 12.625 C 231.382812 12.625 231.511719 12.609375 231.628906 12.570312 C 231.753906 12.527344 231.863281 12.46875 231.964844 12.394531 C 232.066406 12.324219 232.152344 12.242188 232.226562 12.144531 C 232.304688 12.054688 232.371094 11.945312 232.433594 11.820312 L 232.855469 12.039062 C 232.789062 12.183594 232.707031 12.316406 232.605469 12.4375 C 232.503906 12.5625 232.382812 12.671875 232.246094 12.765625 C 232.109375 12.851562 231.957031 12.921875 231.78125 12.972656 C 231.609375 13.019531 231.417969 13.046875 231.207031 13.046875 C 230.894531 13.046875 230.625 13 230.394531 12.90625 C 230.160156 12.804688 229.964844 12.667969 229.808594 12.492188 C 229.65625 12.316406 229.542969 12.101562 229.460938 11.863281 C 229.382812 11.621094 229.34375 11.351562 229.34375 11.0625 C 229.34375 10.765625 229.382812 10.496094 229.460938 10.257812 C 229.550781 10.011719 229.671875 9.808594 229.832031 9.640625 C 229.988281 9.472656 230.183594 9.34375 230.417969 9.25 C 230.648438 9.15625 230.910156 9.105469 231.207031 9.105469 C 231.609375 9.105469 231.945312 9.1875 232.214844 9.347656 C 232.488281 9.507812 232.691406 9.746094 232.824219 10.0625 L 232.335938 10.226562 C 232.296875 10.132812 232.246094 10.046875 232.183594 9.964844 C 232.125 9.878906 232.046875 9.808594 231.957031 9.746094 C 231.859375 9.683594 231.753906 9.632812 231.628906 9.59375 C 231.503906 9.550781 231.363281 9.53125 231.207031 9.53125 Z M 231.207031 9.53125 "/>
<path style=" stroke:none;fill-rule:nonzero;fill:rgb(0%,0%,0%);fill-opacity:1;" d="M 234.089844 10.5625 C 234.144531 10.460938 234.203125 10.375 234.261719 10.3125 C 234.328125 10.242188 234.394531 10.179688 234.46875 10.136719 C 234.546875 10.089844 234.632812 10.050781 234.71875 10.03125 C 234.808594 10.007812 234.914062 9.996094 235.03125 9.996094 C 235.21875 9.996094 235.371094 10.023438 235.488281 10.074219 C 235.609375 10.125 235.703125 10.199219 235.769531 10.289062 C 235.839844 10.386719 235.890625 10.496094 235.921875 10.625 C 235.949219 10.75 235.964844 10.886719 235.964844 11.039062 L 235.964844 12.992188 L 235.464844 12.992188 L 235.464844 11.125 C 235.464844 11.003906 235.457031 10.894531 235.445312 10.800781 C 235.429688 10.707031 235.402344 10.632812 235.359375 10.574219 C 235.3125 10.507812 235.25 10.460938 235.171875 10.429688 C 235.09375 10.394531 234.992188 10.375 234.871094 10.375 C 234.753906 10.375 234.648438 10.398438 234.554688 10.441406 C 234.460938 10.484375 234.382812 10.546875 234.316406 10.625 C 234.253906 10.699219 234.199219 10.789062 234.164062 10.898438 C 234.128906 11.007812 234.109375 11.125 234.109375 11.257812 L 234.109375 12.992188 L 233.625 12.992188 L 233.625 8.964844 L 234.109375 8.964844 L 234.109375 10.007812 C 234.109375 10.074219 234.105469 10.136719 234.101562 10.191406 C 234.101562 10.253906 234.09375 10.304688 234.089844 10.355469 C 234.089844 10.40625 234.089844 10.449219 234.089844 10.484375 C 234.089844 10.523438 234.089844 10.546875 234.089844 10.5625 Z M 234.089844 10.5625 "/>
<path style=" stroke:none;fill-rule:nonzero;fill:rgb(0%,0%,0%);fill-opacity:1;" d="M 236.8125 9.433594 L 236.8125 8.964844 L 237.300781 8.964844 L 237.300781 9.433594 Z M 236.8125 12.992188 L 236.8125 10.050781 L 237.300781 10.050781 L 237.300781 12.992188 Z M 236.8125 12.992188 "/>
<path style=" stroke:none;fill-rule:nonzero;fill:rgb(0%,0%,0%);fill-opacity:1;" d="M 238.121094 12.992188 L 238.121094 10.734375 C 238.121094 10.679688 238.113281 10.617188 238.109375 10.550781 C 238.109375 10.484375 238.109375 10.425781 238.109375 10.367188 C 238.109375 10.308594 238.101562 10.253906 238.097656 10.203125 C 238.097656 10.144531 238.097656 10.09375 238.097656 10.050781 L 238.5625 10.050781 C 238.5625 10.09375 238.5625 10.144531 238.5625 10.203125 C 238.570312 10.253906 238.574219 10.308594 238.574219 10.367188 C 238.574219 10.417969 238.574219 10.472656 238.574219 10.527344 C 238.578125 10.582031 238.585938 10.625 238.585938 10.660156 L 238.597656 10.660156 C 238.625 10.546875 238.65625 10.449219 238.695312 10.367188 C 238.738281 10.277344 238.785156 10.210938 238.835938 10.160156 C 238.890625 10.109375 238.957031 10.070312 239.03125 10.039062 C 239.101562 10.011719 239.1875 9.996094 239.289062 9.996094 C 239.324219 9.996094 239.359375 10.003906 239.398438 10.007812 C 239.433594 10.015625 239.464844 10.023438 239.484375 10.03125 L 239.484375 10.476562 C 239.457031 10.46875 239.421875 10.464844 239.375 10.464844 C 239.332031 10.457031 239.28125 10.453125 239.226562 10.453125 C 239.117188 10.453125 239.023438 10.480469 238.941406 10.527344 C 238.863281 10.582031 238.796875 10.648438 238.746094 10.734375 C 238.695312 10.820312 238.660156 10.929688 238.640625 11.0625 C 238.617188 11.1875 238.605469 11.320312 238.605469 11.460938 L 238.605469 12.992188 Z M 238.121094 12.992188 "/>
<path style=" stroke:none;fill-rule:nonzero;fill:rgb(0%,0%,0%);fill-opacity:1;" d="M 240.78125 13.046875 C 240.480469 13.046875 240.261719 12.972656 240.109375 12.820312 C 239.960938 12.660156 239.890625 12.445312 239.890625 12.167969 C 239.890625 11.980469 239.925781 11.824219 240 11.703125 C 240.070312 11.570312 240.164062 11.472656 240.28125 11.40625 C 240.402344 11.335938 240.542969 11.285156 240.691406 11.257812 C 240.84375 11.230469 241 11.210938 241.160156 11.210938 L 241.808594 11.203125 L 241.808594 11.039062 C 241.808594 10.917969 241.792969 10.816406 241.765625 10.734375 C 241.746094 10.648438 241.707031 10.582031 241.65625 10.527344 C 241.605469 10.472656 241.542969 10.429688 241.460938 10.410156 C 241.382812 10.386719 241.289062 10.375 241.179688 10.375 C 241.085938 10.375 241 10.386719 240.921875 10.398438 C 240.847656 10.40625 240.78125 10.429688 240.726562 10.464844 C 240.675781 10.5 240.632812 10.550781 240.597656 10.617188 C 240.558594 10.675781 240.535156 10.75 240.53125 10.84375 L 240.019531 10.789062 C 240.035156 10.675781 240.066406 10.570312 240.117188 10.476562 C 240.167969 10.382812 240.242188 10.296875 240.335938 10.226562 C 240.429688 10.15625 240.542969 10.101562 240.683594 10.0625 C 240.824219 10.019531 240.996094 9.996094 241.191406 9.996094 C 241.558594 9.996094 241.835938 10.082031 242.027344 10.257812 C 242.214844 10.425781 242.308594 10.667969 242.308594 10.984375 L 242.308594 12.253906 C 242.308594 12.402344 242.324219 12.511719 242.363281 12.582031 C 242.398438 12.652344 242.46875 12.6875 242.578125 12.6875 C 242.605469 12.6875 242.632812 12.6875 242.65625 12.6875 C 242.683594 12.683594 242.710938 12.675781 242.742188 12.667969 L 242.742188 12.972656 C 242.675781 12.992188 242.613281 13.007812 242.558594 13.015625 C 242.496094 13.019531 242.433594 13.027344 242.363281 13.027344 C 242.265625 13.027344 242.1875 13.015625 242.125 12.992188 C 242.058594 12.964844 242.003906 12.925781 241.960938 12.875 C 241.921875 12.824219 241.894531 12.761719 241.875 12.6875 C 241.851562 12.617188 241.835938 12.53125 241.832031 12.429688 L 241.808594 12.429688 C 241.757812 12.523438 241.703125 12.609375 241.636719 12.6875 C 241.578125 12.761719 241.507812 12.828125 241.417969 12.882812 C 241.339844 12.9375 241.246094 12.976562 241.136719 13.003906 C 241.035156 13.03125 240.914062 13.046875 240.78125 13.046875 Z M 240.886719 12.679688 C 241.039062 12.679688 241.171875 12.652344 241.289062 12.589844 C 241.410156 12.535156 241.507812 12.460938 241.582031 12.375 C 241.660156 12.289062 241.71875 12.195312 241.753906 12.09375 C 241.789062 11.984375 241.808594 11.882812 241.808594 11.789062 L 241.808594 11.539062 L 241.277344 11.550781 C 241.160156 11.558594 241.050781 11.566406 240.941406 11.582031 C 240.835938 11.597656 240.738281 11.625 240.648438 11.667969 C 240.570312 11.710938 240.503906 11.777344 240.453125 11.863281 C 240.410156 11.945312 240.390625 12.046875 240.390625 12.179688 C 240.390625 12.339844 240.433594 12.460938 240.519531 12.546875 C 240.605469 12.632812 240.726562 12.679688 240.886719 12.679688 Z M 240.886719 12.679688 "/>
<path style=" stroke:none;fill-rule:nonzero;fill:rgb(0%,0%,0%);fill-opacity:1;" d="M 243.246094 12.992188 L 243.246094 8.964844 L 243.734375 8.964844 L 243.734375 12.992188 Z M 243.246094 12.992188 "/>
<path style=" stroke:none;fill-rule:nonzero;fill:rgb(0%,0%,47.058824%);fill-opacity:1;" d="M 45.007812 18.351562 C 45.007812 18.652344 44.957031 18.921875 44.867188 19.167969 C 44.777344 19.414062 44.652344 19.621094 44.484375 19.796875 C 44.316406 19.96875 44.117188 20.105469 43.878906 20.199219 C 43.640625 20.289062 43.371094 20.339844 43.066406 20.339844 C 42.746094 20.339844 42.46875 20.289062 42.230469 20.199219 C 41.992188 20.097656 41.789062 19.957031 41.625 19.785156 C 41.464844 19.605469 41.347656 19.394531 41.265625 19.15625 C 41.1875 18.910156 41.148438 18.644531 41.148438 18.351562 C 41.148438 18.054688 41.1875 17.789062 41.265625 17.550781 C 41.355469 17.304688 41.480469 17.097656 41.648438 16.929688 C 41.8125 16.765625 42.015625 16.632812 42.253906 16.539062 C 42.492188 16.449219 42.765625 16.398438 43.078125 16.398438 C 43.386719 16.398438 43.664062 16.449219 43.902344 16.539062 C 44.140625 16.632812 44.335938 16.765625 44.496094 16.941406 C 44.664062 17.109375 44.789062 17.308594 44.875 17.550781 C 44.964844 17.789062 45.007812 18.054688 45.007812 18.351562 Z M 44.195312 18.351562 C 44.195312 18.152344 44.167969 17.96875 44.117188 17.808594 C 44.066406 17.652344 43.992188 17.515625 43.902344 17.398438 C 43.804688 17.28125 43.691406 17.191406 43.554688 17.125 C 43.417969 17.0625 43.257812 17.027344 43.078125 17.027344 C 42.886719 17.027344 42.722656 17.0625 42.578125 17.125 C 42.441406 17.191406 42.324219 17.28125 42.230469 17.398438 C 42.136719 17.515625 42.0625 17.652344 42.015625 17.808594 C 41.972656 17.96875 41.949219 18.152344 41.949219 18.351562 C 41.949219 18.554688 41.976562 18.742188 42.027344 18.90625 C 42.074219 19.066406 42.148438 19.207031 42.242188 19.328125 C 42.335938 19.445312 42.453125 19.539062 42.589844 19.613281 C 42.726562 19.675781 42.886719 19.710938 43.066406 19.710938 C 43.261719 19.710938 43.425781 19.675781 43.566406 19.613281 C 43.707031 19.539062 43.828125 19.445312 43.921875 19.328125 C 44.015625 19.207031 44.085938 19.0625 44.128906 18.894531 C 44.171875 18.730469 44.195312 18.546875 44.195312 18.351562 Z M 44.195312 18.351562 "/>
<path style=" stroke:none;fill-rule:nonzero;fill:rgb(0%,0%,47.058824%);fill-opacity:1;" d="M 45.007812 108.59375 C 45.007812 108.894531 44.957031 109.164062 44.867188 109.410156 C 44.777344 109.65625 44.652344 109.863281 44.484375 110.039062 C 44.316406 110.210938 44.117188 110.347656 43.878906 110.441406 C 43.640625 110.53125 43.371094 110.582031 43.066406 110.582031 C 42.746094 110.582031 42.46875 110.53125 42.230469 110.441406 C 41.992188 110.339844 41.789062 110.199219 41.625 110.027344 C 41.464844 109.847656 41.347656 109.636719 41.265625 109.398438 C 41.1875 109.152344 41.148438 108.882812 41.148438 108.59375 C 41.148438 108.296875 41.1875 108.03125 41.265625 107.789062 C 41.355469 107.546875 41.480469 107.339844 41.648438 107.171875 C 41.8125 107.007812 42.015625 106.875 42.253906 106.78125 C 42.492188 106.6875 42.765625 106.640625 43.078125 106.640625 C 43.386719 106.640625 43.664062 106.6875 43.902344 106.78125 C 44.140625 106.875 44.335938 107.007812 44.496094 107.183594 C 44.664062 107.351562 44.789062 107.550781 44.875 107.789062 C 44.964844 108.03125 45.007812 108.296875 45.007812 108.59375 Z M 44.195312 108.59375 C 44.195312 108.394531 44.167969 108.210938 44.117188 108.050781 C 44.066406 107.894531 43.992188 107.753906 43.902344 107.640625 C 43.804688 107.523438 43.691406 107.433594 43.554688 107.367188 C 43.417969 107.300781 43.257812 107.269531 43.078125 107.269531 C 42.886719 107.269531 42.722656 107.300781 42.578125 107.367188 C 42.441406 107.433594 42.324219 107.523438 42.230469 107.640625 C 42.136719 107.753906 42.0625 107.894531 42.015625 108.050781 C 41.972656 108.210938 41.949219 108.394531 41.949219 108.59375 C 41.949219 108.796875 41.976562 108.980469 42.027344 109.148438 C 42.074219 109.308594 42.148438 109.449219 42.242188 109.570312 C 42.335938 109.6875 42.453125 109.78125 42.589844 109.851562 C 42.726562 109.917969 42.886719 109.949219 43.066406 109.949219 C 43.261719 109.949219 43.425781 109.917969 43.566406 109.851562 C 43.707031 109.78125 43.828125 109.6875 43.921875 109.570312 C 44.015625 109.449219 44.085938 109.304688 44.128906 109.136719 C 44.171875 108.972656 44.195312 108.789062 44.195312 108.59375 Z M 44.195312 108.59375 "/>
<path style=" stroke:none;fill-rule:nonzero;fill:rgb(0%,0%,47.058824%);fill-opacity:1;" d="M 62.347656 48.433594 C 62.347656 48.730469 62.296875 49.003906 62.207031 49.246094 C 62.121094 49.492188 61.992188 49.703125 61.828125 49.875 C 61.660156 50.050781 61.457031 50.1875 61.21875 50.277344 C 60.980469 50.371094 60.710938 50.417969 60.40625 50.417969 C 60.085938 50.417969 59.8125 50.371094 59.574219 50.277344 C 59.335938 50.179688 59.128906 50.039062 58.964844 49.867188 C 58.804688 49.6875 58.6875 49.476562 58.609375 49.234375 C 58.527344 48.992188 58.488281 48.722656 58.488281 48.433594 C 58.488281 48.136719 58.527344 47.867188 58.609375 47.628906 C 58.695312 47.386719 58.820312 47.179688 58.988281 47.011719 C 59.152344 46.84375 59.355469 46.714844 59.59375 46.621094 C 59.832031 46.527344 60.105469 46.480469 60.417969 46.480469 C 60.726562 46.480469 61.003906 46.527344 61.242188 46.621094 C 61.480469 46.714844 61.675781 46.847656 61.835938 47.023438 C 62.003906 47.191406 62.128906 47.390625 62.21875 47.628906 C 62.304688 47.867188 62.347656 48.136719 62.347656 48.433594 Z M 61.535156 48.433594 C 61.535156 48.230469 61.507812 48.050781 61.457031 47.890625 C 61.40625 47.734375 61.332031 47.59375 61.242188 47.476562 C 61.148438 47.363281 61.03125 47.273438 60.894531 47.207031 C 60.757812 47.140625 60.597656 47.109375 60.417969 47.109375 C 60.226562 47.109375 60.0625 47.140625 59.917969 47.207031 C 59.78125 47.273438 59.664062 47.363281 59.574219 47.476562 C 59.476562 47.59375 59.40625 47.734375 59.355469 47.890625 C 59.3125 48.050781 59.289062 48.230469 59.289062 48.433594 C 59.289062 48.636719 59.316406 48.820312 59.367188 48.988281 C 59.414062 49.148438 59.488281 49.289062 59.582031 49.410156 C 59.675781 49.527344 59.792969 49.621094 59.929688 49.691406 C 60.066406 49.757812 60.226562 49.789062 60.40625 49.789062 C 60.601562 49.789062 60.765625 49.757812 60.90625 49.691406 C 61.050781 49.621094 61.167969 49.527344 61.261719 49.410156 C 61.355469 49.289062 61.425781 49.144531 61.46875 48.976562 C 61.511719 48.808594 61.535156 48.628906 61.535156 48.433594 Z M 61.535156 48.433594 "/>
<path style=" stroke:none;fill-rule:nonzero;fill:rgb(0%,0%,47.058824%);fill-opacity:1;" d="M 18.996094 63.472656 C 18.996094 63.769531 18.945312 64.042969 18.855469 64.285156 C 18.769531 64.53125 18.640625 64.742188 18.476562 64.914062 C 18.308594 65.089844 18.105469 65.226562 17.867188 65.316406 C 17.628906 65.410156 17.359375 65.457031 17.054688 65.457031 C 16.734375 65.457031 16.460938 65.410156 16.222656 65.316406 C 15.984375 65.214844 15.78125 65.078125 15.613281 64.90625 C 15.453125 64.726562 15.335938 64.515625 15.257812 64.273438 C 15.175781 64.03125 15.136719 63.761719 15.136719 63.472656 C 15.136719 63.175781 15.175781 62.90625 15.257812 62.667969 C 15.34375 62.425781 15.46875 62.21875 15.636719 62.050781 C 15.800781 61.882812 16.003906 61.753906 16.242188 61.660156 C 16.480469 61.566406 16.753906 61.519531 17.066406 61.519531 C 17.375 61.519531 17.652344 61.566406 17.890625 61.660156 C 18.128906 61.753906 18.328125 61.886719 18.488281 62.0625 C 18.652344 62.230469 18.777344 62.429688 18.867188 62.667969 C 18.953125 62.90625 18.996094 63.175781 18.996094 63.472656 Z M 18.183594 63.472656 C 18.183594 63.269531 18.15625 63.089844 18.105469 62.929688 C 18.054688 62.773438 17.984375 62.632812 17.890625 62.515625 C 17.796875 62.402344 17.679688 62.308594 17.542969 62.246094 C 17.40625 62.179688 17.246094 62.148438 17.066406 62.148438 C 16.878906 62.148438 16.710938 62.179688 16.566406 62.246094 C 16.429688 62.308594 16.3125 62.402344 16.222656 62.515625 C 16.125 62.632812 16.054688 62.773438 16.003906 62.929688 C 15.960938 63.089844 15.941406 63.269531 15.941406 63.472656 C 15.941406 63.675781 15.964844 63.859375 16.015625 64.027344 C 16.0625 64.1875 16.136719 64.328125 16.230469 64.449219 C 16.324219 64.566406 16.441406 64.660156 16.578125 64.730469 C 16.714844 64.796875 16.875 64.828125 17.054688 64.828125 C 17.25 64.828125 17.417969 64.796875 17.554688 64.730469 C 17.699219 64.660156 17.816406 64.566406 17.914062 64.449219 C 18.003906 64.328125 18.074219 64.183594 18.117188 64.015625 C 18.160156 63.847656 18.183594 63.667969 18.183594 63.472656 Z M 18.183594 63.472656 "/>
<path style=" stroke:none;fill-rule:nonzero;fill:rgb(0%,0%,47.058824%);fill-opacity:1;" d="M 62.347656 78.511719 C 62.347656 78.8125 62.296875 79.082031 62.207031 79.328125 C 62.121094 79.574219 61.992188 79.785156 61.828125 79.957031 C 61.660156 80.132812 61.457031 80.265625 61.21875 80.359375 C 60.980469 80.449219 60.710938 80.5 60.40625 80.5 C 60.085938 80.5 59.8125 80.449219 59.574219 80.359375 C 59.335938 80.257812 59.128906 80.121094 58.964844 79.945312 C 58.804688 79.765625 58.6875 79.554688 58.609375 79.316406 C 58.527344 79.074219 58.488281 78.804688 58.488281 78.511719 C 58.488281 78.21875 58.527344 77.949219 58.609375 77.710938 C 58.695312 77.464844 58.820312 77.261719 58.988281 77.089844 C 59.152344 76.925781 59.355469 76.796875 59.59375 76.699219 C 59.832031 76.609375 60.105469 76.558594 60.417969 76.558594 C 60.726562 76.558594 61.003906 76.609375 61.242188 76.699219 C 61.480469 76.796875 61.675781 76.929688 61.835938 77.101562 C 62.003906 77.269531 62.128906 77.472656 62.21875 77.710938 C 62.304688 77.949219 62.347656 78.21875 62.347656 78.511719 Z M 61.535156 78.511719 C 61.535156 78.3125 61.507812 78.132812 61.457031 77.972656 C 61.40625 77.8125 61.332031 77.675781 61.242188 77.558594 C 61.148438 77.445312 61.03125 77.351562 60.894531 77.285156 C 60.757812 77.222656 60.597656 77.1875 60.417969 77.1875 C 60.226562 77.1875 60.0625 77.222656 59.917969 77.285156 C 59.78125 77.351562 59.664062 77.445312 59.574219 77.558594 C 59.476562 77.675781 59.40625 77.8125 59.355469 77.972656 C 59.3125 78.132812 59.289062 78.3125 59.289062 78.511719 C 59.289062 78.71875 59.316406 78.902344 59.367188 79.066406 C 59.414062 79.226562 59.488281 79.367188 59.582031 79.492188 C 59.675781 79.605469 59.792969 79.703125 59.929688 79.773438 C 60.066406 79.835938 60.226562 79.871094 60.40625 79.871094 C 60.601562 79.871094 60.765625 79.835938 60.90625 79.773438 C 61.050781 79.703125 61.167969 79.605469 61.261719 79.492188 C 61.355469 79.367188 61.425781 79.222656 61.46875 79.054688 C 61.511719 78.890625 61.535156 78.707031 61.535156 78.511719 Z M 61.535156 78.511719 "/>
<path style=" stroke:none;fill-rule:nonzero;fill:rgb(0%,0%,47.058824%);fill-opacity:1;" d="M 109.414062 18.351562 C 109.414062 18.652344 109.363281 18.921875 109.273438 19.167969 C 109.183594 19.414062 109.058594 19.621094 108.890625 19.796875 C 108.722656 19.96875 108.523438 20.105469 108.285156 20.199219 C 108.046875 20.289062 107.777344 20.339844 107.472656 20.339844 C 107.152344 20.339844 106.875 20.289062 106.636719 20.199219 C 106.398438 20.097656 106.195312 19.957031 106.03125 19.785156 C 105.871094 19.605469 105.753906 19.394531 105.671875 19.15625 C 105.59375 18.910156 105.554688 18.644531 105.554688 18.351562 C 105.554688 18.054688 105.59375 17.789062 105.671875 17.550781 C 105.761719 17.304688 105.886719 17.097656 106.054688 16.929688 C 106.21875 16.765625 106.421875 16.632812 106.660156 16.539062 C 106.898438 16.449219 107.171875 16.398438 107.484375 16.398438 C 107.792969 16.398438 108.070312 16.449219 108.308594 16.539062 C 108.546875 16.632812 108.742188 16.765625 108.902344 16.941406 C 109.070312 17.109375 109.195312 17.308594 109.28125 17.550781 C 109.371094 17.789062 109.414062 18.054688 109.414062 18.351562 Z M 108.601562 18.351562 C 108.601562 18.152344 108.574219 17.96875 108.523438 17.808594 C 108.472656 17.652344 108.398438 17.515625 108.308594 17.398438 C 108.210938 17.28125 108.097656 17.191406 107.960938 17.125 C 107.820312 17.0625 107.664062 17.027344 107.484375 17.027344 C 107.292969 17.027344 107.128906 17.0625 106.984375 17.125 C 106.847656 17.191406 106.730469 17.28125 106.636719 17.398438 C 106.542969 17.515625 106.46875 17.652344 106.421875 17.808594 C 106.378906 17.96875 106.355469 18.152344 106.355469 18.351562 C 106.355469 18.554688 106.378906 18.742188 106.433594 18.90625 C 106.480469 19.066406 106.554688 19.207031 106.648438 19.328125 C 106.742188 19.445312 106.859375 19.539062 106.996094 19.613281 C 107.132812 19.675781 107.292969 19.710938 107.472656 19.710938 C 107.667969 19.710938 107.832031 19.675781 107.972656 19.613281 C 108.113281 19.539062 108.234375 19.445312 108.328125 19.328125 C 108.421875 19.207031 108.492188 19.0625 108.535156 18.894531 C 108.578125 18.730469 108.601562 18.546875 108.601562 18.351562 Z M 108.601562 18.351562 "/>
<path style=" stroke:none;fill-rule:nonzero;fill:rgb(0%,0%,47.058824%);fill-opacity:1;" d="M 109.414062 108.59375 C 109.414062 108.894531 109.363281 109.164062 109.273438 109.410156 C 109.183594 109.65625 109.058594 109.863281 108.890625 110.039062 C 108.722656 110.210938 108.523438 110.347656 108.285156 110.441406 C 108.046875 110.53125 107.777344 110.582031 107.472656 110.582031 C 107.152344 110.582031 106.875 110.53125 106.636719 110.441406 C 106.398438 110.339844 106.195312 110.199219 106.03125 110.027344 C 105.871094 109.847656 105.753906 109.636719 105.671875 109.398438 C 105.59375 109.152344 105.554688 108.882812 105.554688 108.59375 C 105.554688 108.296875 105.59375 108.03125 105.671875 107.789062 C 105.761719 107.546875 105.886719 107.339844 106.054688 107.171875 C 106.21875 107.007812 106.421875 106.875 106.660156 106.78125 C 106.898438 106.6875 107.171875 106.640625 107.484375 106.640625 C 107.792969 106.640625 108.070312 106.6875 108.308594 106.78125 C 108.546875 106.875 108.742188 107.007812 108.902344 107.183594 C 109.070312 107.351562 109.195312 107.550781 109.28125 107.789062 C 109.371094 108.03125 109.414062 108.296875 109.414062 108.59375 Z M 108.601562 108.59375 C 108.601562 108.394531 108.574219 108.210938 108.523438 108.050781 C 108.472656 107.894531 108.398438 107.753906 108.308594 107.640625 C 108.210938 107.523438 108.097656 107.433594 107.960938 107.367188 C 107.820312 107.300781 107.664062 107.269531 107.484375 107.269531 C 107.292969 107.269531 107.128906 107.300781 106.984375 107.367188 C 106.847656 107.433594 106.730469 107.523438 106.636719 107.640625 C 106.542969 107.753906 106.46875 107.894531 106.421875 108.050781 C 106.378906 108.210938 106.355469 108.394531 106.355469 108.59375 C 106.355469 108.796875 106.378906 108.980469 106.433594 109.148438 C 106.480469 109.308594 106.554688 109.449219 106.648438 109.570312 C 106.742188 109.6875 106.859375 109.78125 106.996094 109.851562 C 107.132812 109.917969 107.292969 109.949219 107.472656 109.949219 C 107.667969 109.949219 107.832031 109.917969 107.972656 109.851562 C 108.113281 109.78125 108.234375 109.6875 108.328125 109.570312 C 108.421875 109.449219 108.492188 109.304688 108.535156 109.136719 C 108.578125 108.972656 108.601562 108.789062 108.601562 108.59375 Z M 108.601562 108.59375 "/>
<path style=" stroke:none;fill-rule:nonzero;fill:rgb(0%,0%,47.058824%);fill-opacity:1;" d="M 126.753906 48.433594 C 126.753906 48.730469 126.707031 49.003906 126.613281 49.246094 C 126.527344 49.492188 126.402344 49.703125 126.234375 49.875 C 126.066406 50.050781 125.867188 50.1875 125.628906 50.277344 C 125.390625 50.371094 125.121094 50.417969 124.816406 50.417969 C 124.496094 50.417969 124.21875 50.371094 123.980469 50.277344 C 123.742188 50.179688 123.539062 50.039062 123.375 49.867188 C 123.214844 49.6875 123.09375 49.476562 123.015625 49.234375 C 122.933594 48.992188 122.898438 48.722656 122.898438 48.433594 C 122.898438 48.136719 122.933594 47.867188 123.015625 47.628906 C 123.101562 47.386719 123.226562 47.179688 123.394531 47.011719 C 123.5625 46.84375 123.765625 46.714844 124.003906 46.621094 C 124.242188 46.527344 124.515625 46.480469 124.828125 46.480469 C 125.136719 46.480469 125.410156 46.527344 125.648438 46.621094 C 125.890625 46.714844 126.085938 46.847656 126.246094 47.023438 C 126.410156 47.191406 126.539062 47.390625 126.625 47.628906 C 126.710938 47.867188 126.753906 48.136719 126.753906 48.433594 Z M 125.941406 48.433594 C 125.941406 48.230469 125.914062 48.050781 125.867188 47.890625 C 125.816406 47.734375 125.742188 47.59375 125.648438 47.476562 C 125.554688 47.363281 125.4375 47.273438 125.304688 47.207031 C 125.164062 47.140625 125.003906 47.109375 124.828125 47.109375 C 124.636719 47.109375 124.472656 47.140625 124.328125 47.207031 C 124.191406 47.273438 124.074219 47.363281 123.980469 47.476562 C 123.886719 47.59375 123.8125 47.734375 123.765625 47.890625 C 123.722656 48.050781 123.699219 48.230469 123.699219 48.433594 C 123.699219 48.636719 123.722656 48.820312 123.777344 48.988281 C 123.824219 49.148438 123.898438 49.289062 123.992188 49.410156 C 124.085938 49.527344 124.199219 49.621094 124.339844 49.691406 C 124.472656 49.757812 124.632812 49.789062 124.816406 49.789062 C 125.011719 49.789062 125.175781 49.757812 125.3125 49.691406 C 125.457031 49.621094 125.578125 49.527344 125.671875 49.410156 C 125.765625 49.289062 125.835938 49.144531 125.878906 48.976562 C 125.921875 48.808594 125.941406 48.628906 125.941406 48.433594 Z M 125.941406 48.433594 "/>
<path style=" stroke:none;fill-rule:nonzero;fill:rgb(0%,0%,47.058824%);fill-opacity:1;" d="M 83.402344 63.472656 C 83.402344 63.769531 83.351562 64.042969 83.261719 64.285156 C 83.175781 64.53125 83.046875 64.742188 82.882812 64.914062 C 82.714844 65.089844 82.511719 65.226562 82.273438 65.316406 C 82.035156 65.410156 81.765625 65.457031 81.460938 65.457031 C 81.140625 65.457031 80.867188 65.410156 80.628906 65.316406 C 80.390625 65.214844 80.1875 65.078125 80.019531 64.90625 C 79.859375 64.726562 79.742188 64.515625 79.664062 64.273438 C 79.582031 64.03125 79.542969 63.761719 79.542969 63.472656 C 79.542969 63.175781 79.582031 62.90625 79.664062 62.667969 C 79.75 62.425781 79.875 62.21875 80.042969 62.050781 C 80.207031 61.882812 80.410156 61.753906 80.648438 61.660156 C 80.886719 61.566406 81.160156 61.519531 81.472656 61.519531 C 81.78125 61.519531 82.058594 61.566406 82.296875 61.660156 C 82.535156 61.753906 82.734375 61.886719 82.894531 62.0625 C 83.058594 62.230469 83.183594 62.429688 83.273438 62.667969 C 83.359375 62.90625 83.402344 63.175781 83.402344 63.472656 Z M 82.589844 63.472656 C 82.589844 63.269531 82.5625 63.089844 82.511719 62.929688 C 82.460938 62.773438 82.390625 62.632812 82.296875 62.515625 C 82.203125 62.402344 82.085938 62.308594 81.949219 62.246094 C 81.8125 62.179688 81.652344 62.148438 81.472656 62.148438 C 81.285156 62.148438 81.117188 62.179688 80.972656 62.246094 C 80.835938 62.308594 80.71875 62.402344 80.628906 62.515625 C 80.53125 62.632812 80.460938 62.773438 80.410156 62.929688 C 80.367188 63.089844 80.347656 63.269531 80.347656 63.472656 C 80.347656 63.675781 80.371094 63.859375 80.421875 64.027344 C 80.46875 64.1875 80.542969 64.328125 80.636719 64.449219 C 80.730469 64.566406 80.847656 64.660156 80.984375 64.730469 C 81.121094 64.796875 81.28125 64.828125 81.460938 64.828125 C 81.65625 64.828125 81.824219 64.796875 81.960938 64.730469 C 82.105469 64.660156 82.222656 64.566406 82.316406 64.449219 C 82.410156 64.328125 82.480469 64.183594 82.523438 64.015625 C 82.566406 63.847656 82.589844 63.667969 82.589844 63.472656 Z M 82.589844 63.472656 "/>
<path style=" stroke:none;fill-rule:nonzero;fill:rgb(0%,0%,47.058824%);fill-opacity:1;" d="M 126.753906 78.511719 C 126.753906 78.8125 126.707031 79.082031 126.613281 79.328125 C 126.527344 79.574219 126.402344 79.785156 126.234375 79.957031 C 126.066406 80.132812 125.867188 80.265625 125.628906 80.359375 C 125.390625 80.449219 125.121094 80.5 124.816406 80.5 C 124.496094 80.5 124.21875 80.449219 123.980469 80.359375 C 123.742188 80.257812 123.539062 80.121094 123.375 79.945312 C 123.214844 79.765625 123.09375 79.554688 123.015625 79.316406 C 122.933594 79.074219 122.898438 78.804688 122.898438 78.511719 C 122.898438 78.21875 122.933594 77.949219 123.015625 77.710938 C 123.101562 77.464844 123.226562 77.261719 123.394531 77.089844 C 123.5625 76.925781 123.765625 76.796875 124.003906 76.699219 C 124.242188 76.609375 124.515625 76.558594 124.828125 76.558594 C 125.136719 76.558594 125.410156 76.609375 125.648438 76.699219 C 125.890625 76.796875 126.085938 76.929688 126.246094 77.101562 C 126.410156 77.269531 126.539062 77.472656 126.625 77.710938 C 126.710938 77.949219 126.753906 78.21875 126.753906 78.511719 Z M 125.941406 78.511719 C 125.941406 78.3125 125.914062 78.132812 125.867188 77.972656 C 125.816406 77.8125 125.742188 77.675781 125.648438 77.558594 C 125.554688 77.445312 125.4375 77.351562 125.304688 77.285156 C 125.164062 77.222656 125.003906 77.1875 124.828125 77.1875 C 124.636719 77.1875 124.472656 77.222656 124.328125 77.285156 C 124.191406 77.351562 124.074219 77.445312 123.980469 77.558594 C 123.886719 77.675781 123.8125 77.8125 123.765625 77.972656 C 123.722656 78.132812 123.699219 78.3125 123.699219 78.511719 C 123.699219 78.71875 123.722656 78.902344 123.777344 79.066406 C 123.824219 79.226562 123.898438 79.367188 123.992188 79.492188 C 124.085938 79.605469 124.199219 79.703125 124.339844 79.773438 C 124.472656 79.835938 124.632812 79.871094 124.816406 79.871094 C 125.011719 79.871094 125.175781 79.835938 125.3125 79.773438 C 125.457031 79.703125 125.578125 79.605469 125.671875 79.492188 C 125.765625 79.367188 125.835938 79.222656 125.878906 79.054688 C 125.921875 78.890625 125.941406 78.707031 125.941406 78.511719 Z M 125.941406 78.511719 "/>
<path style=" stroke:none;fill-rule:nonzero;fill:rgb(0%,0%,47.058824%);fill-opacity:1;" d="M 168.25 17.730469 C 168.25 18.03125 168.199219 18.300781 168.105469 18.546875 C 168.019531 18.792969 167.894531 19 167.726562 19.175781 C 167.558594 19.347656 167.359375 19.484375 167.121094 19.574219 C 166.882812 19.667969 166.613281 19.71875 166.308594 19.71875 C 165.988281 19.71875 165.710938 19.667969 165.472656 19.574219 C 165.234375 19.476562 165.03125 19.335938 164.867188 19.164062 C 164.707031 18.984375 164.585938 18.773438 164.507812 18.535156 C 164.429688 18.289062 164.390625 18.019531 164.390625 17.730469 C 164.390625 17.433594 164.429688 17.167969 164.507812 16.925781 C 164.597656 16.683594 164.71875 16.476562 164.886719 16.308594 C 165.054688 16.144531 165.257812 16.011719 165.496094 15.917969 C 165.734375 15.824219 166.007812 15.777344 166.320312 15.777344 C 166.628906 15.777344 166.90625 15.824219 167.144531 15.917969 C 167.382812 16.011719 167.578125 16.144531 167.738281 16.320312 C 167.902344 16.488281 168.03125 16.6875 168.117188 16.925781 C 168.203125 17.167969 168.25 17.433594 168.25 17.730469 Z M 167.433594 17.730469 C 167.433594 17.53125 167.410156 17.347656 167.359375 17.1875 C 167.308594 17.03125 167.234375 16.890625 167.144531 16.777344 C 167.046875 16.660156 166.929688 16.570312 166.796875 16.503906 C 166.65625 16.4375 166.496094 16.40625 166.320312 16.40625 C 166.128906 16.40625 165.964844 16.4375 165.820312 16.503906 C 165.683594 16.570312 165.566406 16.660156 165.472656 16.777344 C 165.378906 16.890625 165.304688 17.03125 165.257812 17.1875 C 165.214844 17.347656 165.191406 17.53125 165.191406 17.730469 C 165.191406 17.933594 165.214844 18.117188 165.269531 18.285156 C 165.316406 18.445312 165.390625 18.585938 165.484375 18.707031 C 165.578125 18.824219 165.691406 18.917969 165.832031 18.988281 C 165.96875 19.054688 166.125 19.085938 166.308594 19.085938 C 166.503906 19.085938 166.667969 19.054688 166.808594 18.988281 C 166.949219 18.917969 167.070312 18.824219 167.164062 18.707031 C 167.257812 18.585938 167.328125 18.441406 167.371094 18.273438 C 167.414062 18.109375 167.433594 17.925781 167.433594 17.730469 Z M 167.433594 17.730469 "/>
<path style=" stroke:none;fill-rule:nonzero;fill:rgb(0%,0%,47.058824%);fill-opacity:1;" d="M 168.25 107.972656 C 168.25 108.269531 168.199219 108.542969 168.105469 108.785156 C 168.019531 109.035156 167.894531 109.242188 167.726562 109.417969 C 167.558594 109.589844 167.359375 109.726562 167.121094 109.816406 C 166.882812 109.910156 166.613281 109.960938 166.308594 109.960938 C 165.988281 109.960938 165.710938 109.910156 165.472656 109.816406 C 165.234375 109.71875 165.03125 109.578125 164.867188 109.40625 C 164.707031 109.226562 164.585938 109.015625 164.507812 108.777344 C 164.429688 108.53125 164.390625 108.261719 164.390625 107.972656 C 164.390625 107.675781 164.429688 107.410156 164.507812 107.167969 C 164.597656 106.925781 164.71875 106.71875 164.886719 106.550781 C 165.054688 106.386719 165.257812 106.253906 165.496094 106.160156 C 165.734375 106.066406 166.007812 106.019531 166.320312 106.019531 C 166.628906 106.019531 166.90625 106.066406 167.144531 106.160156 C 167.382812 106.253906 167.578125 106.386719 167.738281 106.5625 C 167.902344 106.730469 168.03125 106.929688 168.117188 107.167969 C 168.203125 107.410156 168.25 107.675781 168.25 107.972656 Z M 167.433594 107.972656 C 167.433594 107.773438 167.410156 107.589844 167.359375 107.429688 C 167.308594 107.273438 167.234375 107.132812 167.144531 107.015625 C 167.046875 106.902344 166.929688 106.8125 166.796875 106.746094 C 166.65625 106.679688 166.496094 106.648438 166.320312 106.648438 C 166.128906 106.648438 165.964844 106.679688 165.820312 106.746094 C 165.683594 106.8125 165.566406 106.902344 165.472656 107.015625 C 165.378906 107.132812 165.304688 107.273438 165.257812 107.429688 C 165.214844 107.589844 165.191406 107.773438 165.191406 107.972656 C 165.191406 108.175781 165.214844 108.359375 165.269531 108.527344 C 165.316406 108.6875 165.390625 108.828125 165.484375 108.949219 C 165.578125 109.066406 165.691406 109.160156 165.832031 109.230469 C 165.96875 109.296875 166.125 109.328125 166.308594 109.328125 C 166.503906 109.328125 166.667969 109.296875 166.808594 109.230469 C 166.949219 109.160156 167.070312 109.066406 167.164062 108.949219 C 167.257812 108.828125 167.328125 108.683594 167.371094 108.515625 C 167.414062 108.351562 167.433594 108.167969 167.433594 107.972656 Z M 167.433594 107.972656 "/>
<path style=" stroke:none;fill-rule:nonzero;fill:rgb(0%,0%,47.058824%);fill-opacity:1;" d="M 185.589844 47.8125 C 185.589844 48.109375 185.539062 48.382812 185.449219 48.625 C 185.359375 48.871094 185.234375 49.082031 185.070312 49.253906 C 184.902344 49.429688 184.699219 49.566406 184.460938 49.65625 C 184.222656 49.75 183.953125 49.796875 183.648438 49.796875 C 183.328125 49.796875 183.050781 49.75 182.8125 49.65625 C 182.574219 49.554688 182.371094 49.417969 182.207031 49.246094 C 182.046875 49.066406 181.929688 48.855469 181.847656 48.613281 C 181.769531 48.371094 181.730469 48.101562 181.730469 47.8125 C 181.730469 47.515625 181.769531 47.246094 181.847656 47.007812 C 181.9375 46.765625 182.0625 46.558594 182.230469 46.390625 C 182.394531 46.222656 182.597656 46.09375 182.835938 46 C 183.074219 45.90625 183.347656 45.859375 183.660156 45.859375 C 183.96875 45.859375 184.246094 45.90625 184.484375 46 C 184.722656 46.09375 184.917969 46.226562 185.078125 46.402344 C 185.246094 46.570312 185.371094 46.769531 185.457031 47.007812 C 185.546875 47.246094 185.589844 47.515625 185.589844 47.8125 Z M 184.777344 47.8125 C 184.777344 47.609375 184.75 47.429688 184.699219 47.269531 C 184.648438 47.113281 184.574219 46.972656 184.484375 46.855469 C 184.386719 46.742188 184.273438 46.648438 184.136719 46.585938 C 184 46.519531 183.839844 46.488281 183.660156 46.488281 C 183.46875 46.488281 183.304688 46.519531 183.160156 46.585938 C 183.023438 46.648438 182.90625 46.742188 182.8125 46.855469 C 182.71875 46.972656 182.644531 47.113281 182.597656 47.269531 C 182.554688 47.429688 182.53125 47.609375 182.53125 47.8125 C 182.53125 48.015625 182.558594 48.199219 182.609375 48.363281 C 182.65625 48.523438 182.730469 48.667969 182.824219 48.789062 C 182.917969 48.90625 183.035156 49 183.171875 49.070312 C 183.308594 49.136719 183.46875 49.167969 183.648438 49.167969 C 183.84375 49.167969 184.007812 49.136719 184.148438 49.070312 C 184.289062 49 184.410156 48.90625 184.503906 48.789062 C 184.597656 48.667969 184.667969 48.523438 184.710938 48.355469 C 184.753906 48.1875 184.777344 48.007812 184.777344 47.8125 Z M 184.777344 47.8125 "/>
<path style=" stroke:none;fill-rule:nonzero;fill:rgb(0%,0%,47.058824%);fill-opacity:1;" d="M 142.238281 62.851562 C 142.238281 63.152344 142.1875 63.421875 142.097656 63.667969 C 142.011719 63.914062 141.882812 64.125 141.71875 64.296875 C 141.550781 64.46875 141.347656 64.605469 141.109375 64.699219 C 140.871094 64.789062 140.601562 64.839844 140.296875 64.839844 C 139.976562 64.839844 139.703125 64.789062 139.464844 64.699219 C 139.226562 64.597656 139.019531 64.460938 138.855469 64.285156 C 138.695312 64.105469 138.578125 63.894531 138.5 63.65625 C 138.417969 63.414062 138.378906 63.144531 138.378906 62.851562 C 138.378906 62.558594 138.417969 62.289062 138.5 62.050781 C 138.585938 61.804688 138.710938 61.597656 138.878906 61.429688 C 139.042969 61.265625 139.246094 61.136719 139.484375 61.039062 C 139.722656 60.949219 139.996094 60.898438 140.308594 60.898438 C 140.617188 60.898438 140.894531 60.949219 141.132812 61.039062 C 141.371094 61.136719 141.566406 61.269531 141.726562 61.441406 C 141.894531 61.609375 142.019531 61.8125 142.109375 62.050781 C 142.195312 62.289062 142.238281 62.558594 142.238281 62.851562 Z M 141.425781 62.851562 C 141.425781 62.652344 141.398438 62.46875 141.347656 62.308594 C 141.296875 62.152344 141.222656 62.015625 141.132812 61.898438 C 141.039062 61.785156 140.921875 61.691406 140.785156 61.625 C 140.648438 61.5625 140.488281 61.527344 140.308594 61.527344 C 140.117188 61.527344 139.953125 61.5625 139.808594 61.625 C 139.671875 61.691406 139.554688 61.785156 139.464844 61.898438 C 139.367188 62.015625 139.296875 62.152344 139.246094 62.308594 C 139.203125 62.46875 139.179688 62.652344 139.179688 62.851562 C 139.179688 63.058594 139.207031 63.242188 139.257812 63.40625 C 139.304688 63.566406 139.378906 63.707031 139.472656 63.832031 C 139.566406 63.945312 139.683594 64.042969 139.820312 64.113281 C 139.957031 64.175781 140.117188 64.210938 140.296875 64.210938 C 140.492188 64.210938 140.65625 64.175781 140.796875 64.113281 C 140.941406 64.042969 141.058594 63.945312 141.152344 63.832031 C 141.246094 63.707031 141.316406 63.5625 141.359375 63.394531 C 141.402344 63.230469 141.425781 63.046875 141.425781 62.851562 Z M 141.425781 62.851562 "/>
<path style=" stroke:none;fill-rule:nonzero;fill:rgb(0%,0%,47.058824%);fill-opacity:1;" d="M 185.589844 77.890625 C 185.589844 78.191406 185.539062 78.460938 185.449219 78.707031 C 185.359375 78.953125 185.234375 79.164062 185.070312 79.335938 C 184.902344 79.507812 184.699219 79.644531 184.460938 79.738281 C 184.222656 79.828125 183.953125 79.878906 183.648438 79.878906 C 183.328125 79.878906 183.050781 79.828125 182.8125 79.738281 C 182.574219 79.636719 182.371094 79.5 182.207031 79.324219 C 182.046875 79.144531 181.929688 78.933594 181.847656 78.695312 C 181.769531 78.449219 181.730469 78.183594 181.730469 77.890625 C 181.730469 77.597656 181.769531 77.328125 181.847656 77.089844 C 181.9375 76.84375 182.0625 76.636719 182.230469 76.46875 C 182.394531 76.304688 182.597656 76.175781 182.835938 76.078125 C 183.074219 75.988281 183.347656 75.9375 183.660156 75.9375 C 183.96875 75.9375 184.246094 75.988281 184.484375 76.078125 C 184.722656 76.175781 184.917969 76.308594 185.078125 76.480469 C 185.246094 76.648438 185.371094 76.851562 185.457031 77.089844 C 185.546875 77.328125 185.589844 77.597656 185.589844 77.890625 Z M 184.777344 77.890625 C 184.777344 77.691406 184.75 77.507812 184.699219 77.347656 C 184.648438 77.191406 184.574219 77.054688 184.484375 76.9375 C 184.386719 76.824219 184.273438 76.730469 184.136719 76.664062 C 184 76.601562 183.839844 76.566406 183.660156 76.566406 C 183.46875 76.566406 183.304688 76.601562 183.160156 76.664062 C 183.023438 76.730469 182.90625 76.824219 182.8125 76.9375 C 182.71875 77.054688 182.644531 77.191406 182.597656 77.347656 C 182.554688 77.507812 182.53125 77.691406 182.53125 77.890625 C 182.53125 78.09375 182.558594 78.28125 182.609375 78.445312 C 182.65625 78.605469 182.730469 78.746094 182.824219 78.867188 C 182.917969 78.984375 183.035156 79.082031 183.171875 79.152344 C 183.308594 79.214844 183.46875 79.25 183.648438 79.25 C 183.84375 79.25 184.007812 79.214844 184.148438 79.152344 C 184.289062 79.082031 184.410156 78.984375 184.503906 78.867188 C 184.597656 78.746094 184.667969 78.601562 184.710938 78.433594 C 184.753906 78.269531 184.777344 78.085938 184.777344 77.890625 Z M 184.777344 77.890625 "/>
<path style=" stroke:none;fill-rule:nonzero;fill:rgb(0%,0%,47.058824%);fill-opacity:1;" d="M 228.320312 17.109375 C 228.320312 17.40625 228.269531 17.679688 228.179688 17.921875 C 228.089844 18.171875 227.964844 18.378906 227.800781 18.554688 C 227.632812 18.726562 227.429688 18.863281 227.191406 18.953125 C 226.953125 19.046875 226.683594 19.097656 226.378906 19.097656 C 226.058594 19.097656 225.78125 19.046875 225.542969 18.953125 C 225.304688 18.855469 225.101562 18.714844 224.9375 18.542969 C 224.777344 18.363281 224.660156 18.152344 224.582031 17.914062 C 224.5 17.667969 224.460938 17.398438 224.460938 17.109375 C 224.460938 16.8125 224.5 16.546875 224.582031 16.304688 C 224.667969 16.0625 224.792969 15.855469 224.960938 15.6875 C 225.125 15.523438 225.328125 15.390625 225.566406 15.296875 C 225.804688 15.203125 226.078125 15.15625 226.390625 15.15625 C 226.699219 15.15625 226.976562 15.203125 227.214844 15.296875 C 227.453125 15.390625 227.648438 15.523438 227.808594 15.699219 C 227.976562 15.867188 228.101562 16.066406 228.1875 16.304688 C 228.277344 16.546875 228.320312 16.8125 228.320312 17.109375 Z M 227.507812 17.109375 C 227.507812 16.910156 227.480469 16.726562 227.429688 16.566406 C 227.378906 16.410156 227.304688 16.269531 227.214844 16.152344 C 227.117188 16.039062 227.003906 15.949219 226.867188 15.882812 C 226.730469 15.816406 226.570312 15.785156 226.390625 15.785156 C 226.199219 15.785156 226.035156 15.816406 225.890625 15.882812 C 225.753906 15.949219 225.636719 16.039062 225.542969 16.152344 C 225.449219 16.269531 225.375 16.410156 225.328125 16.566406 C 225.285156 16.726562 225.261719 16.910156 225.261719 17.109375 C 225.261719 17.3125 225.289062 17.496094 225.339844 17.664062 C 225.386719 17.824219 225.460938 17.964844 225.554688 18.085938 C 225.648438 18.203125 225.765625 18.296875 225.902344 18.367188 C 226.039062 18.433594 226.199219 18.464844 226.378906 18.464844 C 226.574219 18.464844 226.738281 18.433594 226.878906 18.367188 C 227.019531 18.296875 227.140625 18.203125 227.234375 18.085938 C 227.328125 17.964844 227.398438 17.820312 227.441406 17.652344 C 227.484375 17.488281 227.507812 17.304688 227.507812 17.109375 Z M 227.507812 17.109375 "/>
<path style=" stroke:none;fill-rule:nonzero;fill:rgb(0%,0%,47.058824%);fill-opacity:1;" d="M 228.320312 107.355469 C 228.320312 107.652344 228.269531 107.925781 228.179688 108.167969 C 228.089844 108.414062 227.964844 108.625 227.800781 108.796875 C 227.632812 108.972656 227.429688 109.105469 227.191406 109.199219 C 226.953125 109.292969 226.683594 109.339844 226.378906 109.339844 C 226.058594 109.339844 225.78125 109.292969 225.542969 109.199219 C 225.304688 109.097656 225.101562 108.960938 224.9375 108.785156 C 224.777344 108.609375 224.660156 108.394531 224.582031 108.15625 C 224.5 107.914062 224.460938 107.644531 224.460938 107.355469 C 224.460938 107.058594 224.5 106.789062 224.582031 106.550781 C 224.667969 106.304688 224.792969 106.101562 224.960938 105.933594 C 225.125 105.765625 225.328125 105.636719 225.566406 105.542969 C 225.804688 105.449219 226.078125 105.398438 226.390625 105.398438 C 226.699219 105.398438 226.976562 105.449219 227.214844 105.542969 C 227.453125 105.636719 227.648438 105.769531 227.808594 105.941406 C 227.976562 106.109375 228.101562 106.3125 228.1875 106.550781 C 228.277344 106.789062 228.320312 107.058594 228.320312 107.355469 Z M 227.507812 107.355469 C 227.507812 107.152344 227.480469 106.972656 227.429688 106.8125 C 227.378906 106.652344 227.304688 106.515625 227.214844 106.398438 C 227.117188 106.285156 227.003906 106.191406 226.867188 106.128906 C 226.730469 106.0625 226.570312 106.03125 226.390625 106.03125 C 226.199219 106.03125 226.035156 106.0625 225.890625 106.128906 C 225.753906 106.191406 225.636719 106.285156 225.542969 106.398438 C 225.449219 106.515625 225.375 106.652344 225.328125 106.8125 C 225.285156 106.972656 225.261719 107.152344 225.261719 107.355469 C 225.261719 107.558594 225.289062 107.742188 225.339844 107.90625 C 225.386719 108.066406 225.460938 108.207031 225.554688 108.332031 C 225.648438 108.449219 225.765625 108.542969 225.902344 108.613281 C 226.039062 108.679688 226.199219 108.710938 226.378906 108.710938 C 226.574219 108.710938 226.738281 108.679688 226.878906 108.613281 C 227.019531 108.542969 227.140625 108.449219 227.234375 108.332031 C 227.328125 108.207031 227.398438 108.066406 227.441406 107.898438 C 227.484375 107.730469 227.507812 107.550781 227.507812 107.355469 Z M 227.507812 107.355469 "/>
<path style=" stroke:none;fill-rule:nonzero;fill:rgb(0%,0%,47.058824%);fill-opacity:1;" d="M 245.660156 47.191406 C 245.660156 47.488281 245.609375 47.761719 245.519531 48.003906 C 245.433594 48.25 245.304688 48.460938 245.140625 48.632812 C 244.972656 48.808594 244.769531 48.941406 244.53125 49.035156 C 244.292969 49.128906 244.023438 49.175781 243.71875 49.175781 C 243.398438 49.175781 243.125 49.128906 242.886719 49.035156 C 242.648438 48.933594 242.445312 48.796875 242.277344 48.621094 C 242.117188 48.445312 242 48.230469 241.921875 47.992188 C 241.839844 47.75 241.800781 47.480469 241.800781 47.191406 C 241.800781 46.894531 241.839844 46.625 241.921875 46.386719 C 242.007812 46.144531 242.132812 45.9375 242.300781 45.769531 C 242.464844 45.601562 242.667969 45.472656 242.90625 45.378906 C 243.144531 45.285156 243.417969 45.234375 243.730469 45.234375 C 244.039062 45.234375 244.316406 45.285156 244.554688 45.378906 C 244.792969 45.472656 244.992188 45.605469 245.148438 45.777344 C 245.316406 45.945312 245.441406 46.148438 245.53125 46.386719 C 245.617188 46.625 245.660156 46.894531 245.660156 47.191406 Z M 244.847656 47.191406 C 244.847656 46.988281 244.820312 46.808594 244.769531 46.648438 C 244.71875 46.488281 244.644531 46.351562 244.554688 46.234375 C 244.460938 46.121094 244.34375 46.027344 244.207031 45.964844 C 244.070312 45.898438 243.910156 45.867188 243.730469 45.867188 C 243.539062 45.867188 243.375 45.898438 243.230469 45.964844 C 243.09375 46.027344 242.976562 46.121094 242.886719 46.234375 C 242.789062 46.351562 242.71875 46.488281 242.667969 46.648438 C 242.625 46.808594 242.601562 46.988281 242.601562 47.191406 C 242.601562 47.394531 242.628906 47.578125 242.679688 47.742188 C 242.726562 47.902344 242.800781 48.042969 242.894531 48.167969 C 242.988281 48.285156 243.105469 48.378906 243.242188 48.449219 C 243.378906 48.515625 243.539062 48.546875 243.71875 48.546875 C 243.914062 48.546875 244.078125 48.515625 244.21875 48.449219 C 244.363281 48.378906 244.480469 48.285156 244.574219 48.167969 C 244.667969 48.042969 244.738281 47.902344 244.78125 47.734375 C 244.824219 47.566406 244.847656 47.386719 244.847656 47.191406 Z M 244.847656 47.191406 "/>
<path style=" stroke:none;fill-rule:nonzero;fill:rgb(0%,0%,47.058824%);fill-opacity:1;" d="M 202.308594 62.230469 C 202.308594 62.53125 202.261719 62.800781 202.167969 63.046875 C 202.082031 63.292969 201.953125 63.5 201.789062 63.675781 C 201.621094 63.847656 201.417969 63.984375 201.179688 64.078125 C 200.941406 64.167969 200.671875 64.21875 200.367188 64.21875 C 200.050781 64.21875 199.773438 64.167969 199.535156 64.078125 C 199.296875 63.976562 199.09375 63.839844 198.925781 63.664062 C 198.765625 63.484375 198.648438 63.273438 198.570312 63.035156 C 198.488281 62.789062 198.449219 62.523438 198.449219 62.230469 C 198.449219 61.9375 198.488281 61.667969 198.570312 61.429688 C 198.65625 61.183594 198.78125 60.976562 198.949219 60.808594 C 199.113281 60.644531 199.316406 60.515625 199.554688 60.417969 C 199.792969 60.328125 200.066406 60.277344 200.378906 60.277344 C 200.6875 60.277344 200.964844 60.328125 201.203125 60.417969 C 201.441406 60.515625 201.640625 60.648438 201.800781 60.820312 C 201.964844 60.988281 202.09375 61.191406 202.179688 61.429688 C 202.265625 61.667969 202.308594 61.9375 202.308594 62.230469 Z M 201.496094 62.230469 C 201.496094 62.03125 201.46875 61.847656 201.417969 61.6875 C 201.367188 61.53125 201.296875 61.394531 201.203125 61.277344 C 201.109375 61.164062 200.992188 61.070312 200.855469 61.003906 C 200.71875 60.941406 200.558594 60.90625 200.378906 60.90625 C 200.191406 60.90625 200.023438 60.941406 199.882812 61.003906 C 199.742188 61.070312 199.625 61.164062 199.535156 61.277344 C 199.4375 61.394531 199.367188 61.53125 199.316406 61.6875 C 199.273438 61.847656 199.253906 62.03125 199.253906 62.230469 C 199.253906 62.433594 199.277344 62.621094 199.328125 62.785156 C 199.378906 62.945312 199.449219 63.085938 199.546875 63.207031 C 199.636719 63.324219 199.753906 63.421875 199.890625 63.492188 C 200.027344 63.554688 200.1875 63.589844 200.367188 63.589844 C 200.5625 63.589844 200.730469 63.554688 200.867188 63.492188 C 201.011719 63.421875 201.128906 63.324219 201.226562 63.207031 C 201.316406 63.085938 201.386719 62.941406 201.429688 62.773438 C 201.472656 62.609375 201.496094 62.425781 201.496094 62.230469 Z M 201.496094 62.230469 "/>
<path style=" stroke:none;fill-rule:nonzero;fill:rgb(0%,0%,47.058824%);fill-opacity:1;" d="M 245.660156 77.273438 C 245.660156 77.570312 245.609375 77.84375 245.519531 78.085938 C 245.433594 78.335938 245.304688 78.542969 245.140625 78.71875 C 244.972656 78.890625 244.769531 79.027344 244.53125 79.117188 C 244.292969 79.210938 244.023438 79.261719 243.71875 79.261719 C 243.398438 79.261719 243.125 79.210938 242.886719 79.117188 C 242.648438 79.019531 242.445312 78.878906 242.277344 78.707031 C 242.117188 78.527344 242 78.316406 241.921875 78.078125 C 241.839844 77.832031 241.800781 77.5625 241.800781 77.273438 C 241.800781 76.976562 241.839844 76.710938 241.921875 76.46875 C 242.007812 76.226562 242.132812 76.019531 242.300781 75.851562 C 242.464844 75.6875 242.667969 75.554688 242.90625 75.460938 C 243.144531 75.367188 243.417969 75.320312 243.730469 75.320312 C 244.039062 75.320312 244.316406 75.367188 244.554688 75.460938 C 244.792969 75.554688 244.992188 75.6875 245.148438 75.863281 C 245.316406 76.03125 245.441406 76.230469 245.53125 76.46875 C 245.617188 76.710938 245.660156 76.976562 245.660156 77.273438 Z M 244.847656 77.273438 C 244.847656 77.074219 244.820312 76.890625 244.769531 76.730469 C 244.71875 76.574219 244.644531 76.433594 244.554688 76.316406 C 244.460938 76.203125 244.34375 76.113281 244.207031 76.046875 C 244.070312 75.980469 243.910156 75.949219 243.730469 75.949219 C 243.539062 75.949219 243.375 75.980469 243.230469 76.046875 C 243.09375 76.113281 242.976562 76.203125 242.886719 76.316406 C 242.789062 76.433594 242.71875 76.574219 242.667969 76.730469 C 242.625 76.890625 242.601562 77.074219 242.601562 77.273438 C 242.601562 77.476562 242.628906 77.660156 242.679688 77.828125 C 242.726562 77.988281 242.800781 78.128906 242.894531 78.25 C 242.988281 78.367188 243.105469 78.460938 243.242188 78.53125 C 243.378906 78.597656 243.539062 78.628906 243.71875 78.628906 C 243.914062 78.628906 244.078125 78.597656 244.21875 78.53125 C 244.363281 78.460938 244.480469 78.367188 244.574219 78.25 C 244.667969 78.128906 244.738281 77.984375 244.78125 77.816406 C 244.824219 77.652344 244.847656 77.46875 244.847656 77.273438 Z M 244.847656 77.273438 "/>
<path style="fill:none;stroke-width:0.06;stroke-linecap:butt;stroke-linejoin:miter;stroke:rgb(0%,0%,47.058824%);stroke-opacity:1;stroke-miterlimit:10;" d="M 1.393451 0.256013 L 0.991347 0.952367 " transform="matrix(17.340426,0,0,17.367257,17.067428,17.127975)"/>
<path style="fill:none;stroke-width:0.06;stroke-linecap:butt;stroke-linejoin:miter;stroke:rgb(0%,0%,47.058824%);stroke-opacity:1;stroke-miterlimit:10;" d="M 1.537848 0.339234 L 1.183952 0.952367 " transform="matrix(17.340426,0,0,17.367257,17.067428,17.127975)"/>
<path style="fill:none;stroke-width:0.06;stroke-linecap:butt;stroke-linejoin:miter;stroke:rgb(0%,0%,47.058824%);stroke-opacity:1;stroke-miterlimit:10;" d="M 0.991347 0.922452 L 1.508789 1.818535 " transform="matrix(17.340426,0,0,17.367257,17.067428,17.127975)"/>
<path style="fill:none;stroke-width:0.06;stroke-linecap:butt;stroke-linejoin:miter;stroke:rgb(0%,0%,47.058824%);stroke-opacity:1;stroke-miterlimit:10;" d="M 1.508789 1.788396 L 0.991347 2.684478 " transform="matrix(17.340426,0,0,17.367257,17.067428,17.127975)"/>
<path style="fill:none;stroke-width:0.06;stroke-linecap:butt;stroke-linejoin:miter;stroke:rgb(0%,0%,47.058824%);stroke-opacity:1;stroke-miterlimit:10;" d="M 0.991347 2.654564 L 1.508789 3.550422 " transform="matrix(17.340426,0,0,17.367257,17.067428,17.127975)"/>
<path style="fill:none;stroke-width:0.06;stroke-linecap:butt;stroke-linejoin:miter;stroke:rgb(0%,0%,47.058824%);stroke-opacity:1;stroke-miterlimit:10;" d="M 1.508789 3.520507 L 0.991347 4.41659 " transform="matrix(17.340426,0,0,17.367257,17.067428,17.127975)"/>
<path style="fill:none;stroke-width:0.06;stroke-linecap:butt;stroke-linejoin:miter;stroke:rgb(0%,0%,47.058824%);stroke-opacity:1;stroke-miterlimit:10;" d="M 0.991347 4.386676 L 1.393451 5.083029 " transform="matrix(17.340426,0,0,17.367257,17.067428,17.127975)"/>
<path style=" stroke:none;fill-rule:nonzero;fill:rgb(0%,0%,47.058824%);fill-opacity:1;" d="M 43.078125 48.449219 L 57.738281 50.476562 L 57.738281 46.421875 "/>
<path style=" stroke:none;fill-rule:nonzero;fill:rgb(0%,0%,47.058824%);fill-opacity:1;" d="M 34.40625 63.492188 L 19.75 61.464844 L 19.75 65.515625 "/>
<path style="fill:none;stroke-width:0.06;stroke-linecap:butt;stroke-linejoin:miter;stroke:rgb(0%,0%,47.058824%);stroke-opacity:1;stroke-miterlimit:10;" d="M 1.620747 3.552221 L 1.620747 3.518933 M 1.741491 3.568865 L 1.741491 3.502289 M 1.862235 3.585509 L 1.862235 3.48542 M 1.982979 3.602154 L 1.982979 3.469001 M 2.103948 3.619023 L 2.103948 3.452132 M 2.224692 3.635442 L 2.224692 3.435488 M 2.345436 3.652311 L 2.345436 3.418843 " transform="matrix(17.340426,0,0,17.367257,17.067428,17.127975)"/>
<path style="fill:none;stroke-width:0.06;stroke-linecap:butt;stroke-linejoin:miter;stroke:rgb(0%,0%,47.058824%);stroke-opacity:1;stroke-miterlimit:10;" d="M 5.107677 0.256013 L 4.705573 0.952367 " transform="matrix(17.340426,0,0,17.367257,17.067428,17.127975)"/>
<path style="fill:none;stroke-width:0.06;stroke-linecap:butt;stroke-linejoin:miter;stroke:rgb(0%,0%,47.058824%);stroke-opacity:1;stroke-miterlimit:10;" d="M 5.252074 0.339234 L 4.898177 0.952367 " transform="matrix(17.340426,0,0,17.367257,17.067428,17.127975)"/>
<path style="fill:none;stroke-width:0.06;stroke-linecap:butt;stroke-linejoin:miter;stroke:rgb(0%,0%,47.058824%);stroke-opacity:1;stroke-miterlimit:10;" d="M 4.705573 0.922452 L 5.223014 1.818535 " transform="matrix(17.340426,0,0,17.367257,17.067428,17.127975)"/>
<path style="fill:none;stroke-width:0.06;stroke-linecap:butt;stroke-linejoin:miter;stroke:rgb(0%,0%,47.058824%);stroke-opacity:1;stroke-miterlimit:10;" d="M 5.223014 1.788396 L 4.705573 2.684478 " transform="matrix(17.340426,0,0,17.367257,17.067428,17.127975)"/>
<path style="fill:none;stroke-width:0.06;stroke-linecap:butt;stroke-linejoin:miter;stroke:rgb(0%,0%,47.058824%);stroke-opacity:1;stroke-miterlimit:10;" d="M 4.705573 2.654564 L 5.223014 3.550422 " transform="matrix(17.340426,0,0,17.367257,17.067428,17.127975)"/>
<path style="fill:none;stroke-width:0.06;stroke-linecap:butt;stroke-linejoin:miter;stroke:rgb(0%,0%,47.058824%);stroke-opacity:1;stroke-miterlimit:10;" d="M 5.223014 3.520507 L 4.705573 4.41659 " transform="matrix(17.340426,0,0,17.367257,17.067428,17.127975)"/>
<path style="fill:none;stroke-width:0.06;stroke-linecap:butt;stroke-linejoin:miter;stroke:rgb(0%,0%,47.058824%);stroke-opacity:1;stroke-miterlimit:10;" d="M 4.705573 4.386676 L 5.107677 5.083029 " transform="matrix(17.340426,0,0,17.367257,17.067428,17.127975)"/>
<path style="fill:none;stroke-width:0.06;stroke-linecap:butt;stroke-linejoin:miter;stroke:rgb(0%,0%,47.058824%);stroke-opacity:1;stroke-miterlimit:10;" d="M 5.335198 1.820109 L 5.335198 1.786821 M 5.455942 1.836753 L 5.455942 1.770177 M 5.576686 1.853398 L 5.576686 1.753533 M 5.69743 1.870267 L 5.69743 1.736664 M 5.818173 1.886686 L 5.818173 1.720245 M 5.938917 1.903555 L 5.938917 1.703376 M 6.059886 1.920199 L 6.059886 1.686732 " transform="matrix(17.340426,0,0,17.367257,17.067428,17.127975)"/>
<path style="fill:none;stroke-width:0.06;stroke-linecap:butt;stroke-linejoin:miter;stroke:rgb(0%,0%,47.058824%);stroke-opacity:1;stroke-miterlimit:10;" d="M 4.593614 2.652765 L 4.593614 2.686053 M 4.472871 2.636121 L 4.472871 2.702922 M 4.351901 2.619476 L 4.351901 2.719566 M 4.231158 2.602832 L 4.231158 2.73621 M 4.110414 2.586188 L 4.110414 2.752854 M 3.98967 2.569544 L 3.98967 2.769498 M 3.868926 2.5529 L 3.868926 2.786142 " transform="matrix(17.340426,0,0,17.367257,17.067428,17.127975)"/>
<path style="fill:none;stroke-width:0.06;stroke-linecap:butt;stroke-linejoin:miter;stroke:rgb(0%,0%,47.058824%);stroke-opacity:1;stroke-miterlimit:10;" d="M 5.335198 3.552221 L 5.335198 3.518933 M 5.455942 3.568865 L 5.455942 3.502289 M 5.576686 3.585509 L 5.576686 3.48542 M 5.69743 3.602154 L 5.69743 3.469001 M 5.818173 3.619023 L 5.818173 3.452132 M 5.938917 3.635442 L 5.938917 3.435488 M 6.059886 3.652311 L 6.059886 3.418843 " transform="matrix(17.340426,0,0,17.367257,17.067428,17.127975)"/>
<path style="fill:none;stroke-width:0.06;stroke-linecap:butt;stroke-linejoin:miter;stroke:rgb(0%,0%,47.058824%);stroke-opacity:1;stroke-miterlimit:10;" d="M 8.50067 0.220251 L 8.098565 0.916829 " transform="matrix(17.340426,0,0,17.367257,17.067428,17.127975)"/>
<path style="fill:none;stroke-width:0.06;stroke-linecap:butt;stroke-linejoin:miter;stroke:rgb(0%,0%,47.058824%);stroke-opacity:1;stroke-miterlimit:10;" d="M 8.645067 0.303696 L 8.290945 0.916829 " transform="matrix(17.340426,0,0,17.367257,17.067428,17.127975)"/>
<path style="fill:none;stroke-width:0.06;stroke-linecap:butt;stroke-linejoin:miter;stroke:rgb(0%,0%,47.058824%);stroke-opacity:1;stroke-miterlimit:10;" d="M 8.098565 0.88669 L 8.616007 1.782773 " transform="matrix(17.340426,0,0,17.367257,17.067428,17.127975)"/>
<path style="fill:none;stroke-width:0.06;stroke-linecap:butt;stroke-linejoin:miter;stroke:rgb(0%,0%,47.058824%);stroke-opacity:1;stroke-miterlimit:10;" d="M 8.616007 1.752633 L 8.098565 2.648716 " transform="matrix(17.340426,0,0,17.367257,17.067428,17.127975)"/>
<path style="fill:none;stroke-width:0.06;stroke-linecap:butt;stroke-linejoin:miter;stroke:rgb(0%,0%,47.058824%);stroke-opacity:1;stroke-miterlimit:10;" d="M 8.098565 2.618802 L 8.616007 3.514884 " transform="matrix(17.340426,0,0,17.367257,17.067428,17.127975)"/>
<path style="fill:none;stroke-width:0.06;stroke-linecap:butt;stroke-linejoin:miter;stroke:rgb(0%,0%,47.058824%);stroke-opacity:1;stroke-miterlimit:10;" d="M 8.616007 3.48497 L 8.098565 4.380828 " transform="matrix(17.340426,0,0,17.367257,17.067428,17.127975)"/>
<path style="fill:none;stroke-width:0.06;stroke-linecap:butt;stroke-linejoin:miter;stroke:rgb(0%,0%,47.058824%);stroke-opacity:1;stroke-miterlimit:10;" d="M 8.098565 4.350914 L 8.50067 5.047267 " transform="matrix(17.340426,0,0,17.367257,17.067428,17.127975)"/>
<path style="fill:none;stroke-width:0.06;stroke-linecap:butt;stroke-linejoin:miter;stroke:rgb(0%,0%,47.058824%);stroke-opacity:1;stroke-miterlimit:10;" d="M 8.727965 1.784347 L 8.727965 1.751059 M 8.848709 1.801216 L 8.848709 1.734415 M 8.969453 1.817635 L 8.969453 1.717771 M 9.090197 1.834504 L 9.090197 1.701126 M 9.211166 1.851148 L 9.211166 1.684482 M 9.33191 1.867792 L 9.33191 1.667613 M 9.452654 1.884437 L 9.452654 1.651194 " transform="matrix(17.340426,0,0,17.367257,17.067428,17.127975)"/>
<path style="fill:none;stroke-width:0.06;stroke-linecap:butt;stroke-linejoin:miter;stroke:rgb(0%,0%,47.058824%);stroke-opacity:1;stroke-miterlimit:10;" d="M 7.986382 2.617002 L 7.986382 2.650515 M 7.865638 2.600583 L 7.865638 2.66716 M 7.744894 2.583714 L 7.744894 2.683804 M 7.623925 2.56707 L 7.623925 2.700448 M 7.503181 2.550426 L 7.503181 2.717092 M 7.382437 2.533782 L 7.382437 2.733736 M 7.261693 2.517138 L 7.261693 2.750605 " transform="matrix(17.340426,0,0,17.367257,17.067428,17.127975)"/>
<path style=" stroke:none;fill-rule:nonzero;fill:rgb(0%,0%,47.058824%);fill-opacity:1;" d="M 166.320312 77.910156 L 180.980469 79.933594 L 180.980469 75.882812 "/>
<path style="fill:none;stroke-width:0.06;stroke-linecap:butt;stroke-linejoin:miter;stroke:rgb(0%,0%,47.058824%);stroke-opacity:1;stroke-miterlimit:10;" d="M 11.965072 0.184488 L 11.562743 0.881067 " transform="matrix(17.340426,0,0,17.367257,17.067428,17.127975)"/>
<path style="fill:none;stroke-width:0.06;stroke-linecap:butt;stroke-linejoin:miter;stroke:rgb(0%,0%,47.058824%);stroke-opacity:1;stroke-miterlimit:10;" d="M 12.109244 0.267934 L 11.755348 0.881067 " transform="matrix(17.340426,0,0,17.367257,17.067428,17.127975)"/>
<path style="fill:none;stroke-width:0.06;stroke-linecap:butt;stroke-linejoin:miter;stroke:rgb(0%,0%,47.058824%);stroke-opacity:1;stroke-miterlimit:10;" d="M 11.562743 0.850927 L 12.080185 1.74701 " transform="matrix(17.340426,0,0,17.367257,17.067428,17.127975)"/>
<path style="fill:none;stroke-width:0.06;stroke-linecap:butt;stroke-linejoin:miter;stroke:rgb(0%,0%,47.058824%);stroke-opacity:1;stroke-miterlimit:10;" d="M 12.080185 1.717096 L 11.562743 2.612954 " transform="matrix(17.340426,0,0,17.367257,17.067428,17.127975)"/>
<path style="fill:none;stroke-width:0.06;stroke-linecap:butt;stroke-linejoin:miter;stroke:rgb(0%,0%,47.058824%);stroke-opacity:1;stroke-miterlimit:10;" d="M 11.562743 2.583039 L 12.080185 3.479122 " transform="matrix(17.340426,0,0,17.367257,17.067428,17.127975)"/>
<path style="fill:none;stroke-width:0.06;stroke-linecap:butt;stroke-linejoin:miter;stroke:rgb(0%,0%,47.058824%);stroke-opacity:1;stroke-miterlimit:10;" d="M 12.080185 3.448983 L 11.562743 4.34529 " transform="matrix(17.340426,0,0,17.367257,17.067428,17.127975)"/>
<path style="fill:none;stroke-width:0.06;stroke-linecap:butt;stroke-linejoin:miter;stroke:rgb(0%,0%,47.058824%);stroke-opacity:1;stroke-miterlimit:10;" d="M 11.562743 4.315151 L 11.965072 5.011505 " transform="matrix(17.340426,0,0,17.367257,17.067428,17.127975)"/>
<path style=" stroke:none;fill-rule:nonzero;fill:rgb(0%,0%,47.058824%);fill-opacity:1;" d="M 226.394531 47.210938 L 241.050781 49.234375 L 241.050781 45.183594 "/>
<path style=" stroke:none;fill-rule:nonzero;fill:rgb(0%,0%,47.058824%);fill-opacity:1;" d="M 217.722656 62.25 L 203.0625 60.222656 L 203.0625 64.273438 "/>
<path style=" stroke:none;fill-rule:nonzero;fill:rgb(0%,0%,47.058824%);fill-opacity:1;" d="M 226.394531 77.289062 L 241.050781 79.316406 L 241.050781 75.261719 "/>
</g>
</svg>
