<?xml version="1.0" encoding="UTF-8"?>
<svg xmlns="http://www.w3.org/2000/svg" xmlns:xlink="http://www.w3.org/1999/xlink" width="64pt" height="60pt" viewBox="0 0 64 60" version="1.1">
<g id="surface857">
<path style=" stroke:none;fill-rule:nonzero;fill:rgb(0%,0%,0%);fill-opacity:1;" d="M 32.894531 26.5625 C 32.894531 26.75 32.855469 26.910156 32.777344 27.042969 C 32.703125 27.179688 32.605469 27.292969 32.476562 27.378906 C 32.347656 27.464844 32.195312 27.527344 32.023438 27.570312 C 31.855469 27.609375 31.679688 27.625 31.496094 27.625 L 29.953125 27.625 L 29.953125 23.839844 L 31.332031 23.839844 C 31.539062 23.839844 31.726562 23.859375 31.894531 23.894531 C 32.058594 23.925781 32.199219 23.976562 32.3125 24.054688 C 32.425781 24.128906 32.511719 24.226562 32.574219 24.347656 C 32.636719 24.460938 32.667969 24.597656 32.667969 24.753906 C 32.667969 24.863281 32.652344 24.964844 32.625 25.054688 C 32.597656 25.148438 32.550781 25.234375 32.488281 25.3125 C 32.425781 25.386719 32.351562 25.449219 32.261719 25.507812 C 32.175781 25.558594 32.070312 25.597656 31.949219 25.625 C 32.097656 25.648438 32.230469 25.683594 32.347656 25.734375 C 32.46875 25.785156 32.566406 25.851562 32.648438 25.9375 C 32.726562 26.019531 32.789062 26.109375 32.832031 26.214844 C 32.875 26.320312 32.894531 26.433594 32.894531 26.5625 Z M 32.152344 24.820312 C 32.152344 24.613281 32.078125 24.464844 31.9375 24.378906 C 31.800781 24.292969 31.597656 24.25 31.332031 24.25 L 30.472656 24.25 L 30.472656 25.441406 L 31.332031 25.441406 C 31.484375 25.441406 31.609375 25.429688 31.710938 25.398438 C 31.820312 25.371094 31.90625 25.332031 31.96875 25.28125 C 32.035156 25.226562 32.078125 25.15625 32.109375 25.078125 C 32.136719 25 32.152344 24.914062 32.152344 24.820312 Z M 32.367188 26.519531 C 32.367188 26.398438 32.347656 26.296875 32.304688 26.214844 C 32.261719 26.128906 32.195312 26.0625 32.109375 26.011719 C 32.027344 25.957031 31.929688 25.914062 31.820312 25.894531 C 31.703125 25.867188 31.574219 25.851562 31.429688 25.851562 L 30.472656 25.851562 L 30.472656 27.214844 L 31.472656 27.214844 C 31.601562 27.214844 31.722656 27.207031 31.828125 27.183594 C 31.941406 27.164062 32.039062 27.128906 32.121094 27.078125 C 32.199219 27.019531 32.261719 26.949219 32.304688 26.863281 C 32.347656 26.769531 32.367188 26.65625 32.367188 26.519531 Z M 32.367188 26.519531 "/>
<path style=" stroke:none;fill-rule:nonzero;fill:rgb(0%,0%,0%);fill-opacity:1;" d="M 33.699219 24.097656 L 33.699219 23.636719 L 34.183594 23.636719 L 34.183594 24.097656 Z M 33.699219 27.625 L 33.699219 24.710938 L 34.183594 24.710938 L 34.183594 27.625 Z M 33.699219 27.625 "/>
<path style=" stroke:none;fill-rule:nonzero;fill:rgb(0%,0%,0%);fill-opacity:1;" d="M 34.757812 24.921875 L 34.757812 24.664062 C 34.828125 24.507812 34.910156 24.371094 35.003906 24.253906 C 35.105469 24.132812 35.210938 24.023438 35.316406 23.921875 C 35.429688 23.820312 35.542969 23.734375 35.652344 23.652344 C 35.757812 23.566406 35.855469 23.484375 35.941406 23.40625 C 36.027344 23.320312 36.097656 23.230469 36.148438 23.136719 C 36.195312 23.046875 36.222656 22.941406 36.222656 22.824219 C 36.222656 22.746094 36.210938 22.679688 36.191406 22.621094 C 36.167969 22.554688 36.132812 22.503906 36.082031 22.460938 C 36.039062 22.417969 35.984375 22.390625 35.921875 22.375 C 35.855469 22.351562 35.785156 22.339844 35.707031 22.339844 C 35.632812 22.339844 35.566406 22.351562 35.5 22.375 C 35.4375 22.390625 35.378906 22.417969 35.328125 22.460938 C 35.277344 22.496094 35.238281 22.546875 35.210938 22.609375 C 35.179688 22.667969 35.160156 22.734375 35.144531 22.8125 L 34.777344 22.78125 C 34.792969 22.683594 34.820312 22.589844 34.867188 22.503906 C 34.910156 22.410156 34.96875 22.332031 35.046875 22.265625 C 35.125 22.195312 35.222656 22.140625 35.328125 22.105469 C 35.4375 22.0625 35.558594 22.039062 35.707031 22.039062 C 35.847656 22.039062 35.976562 22.058594 36.082031 22.09375 C 36.195312 22.125 36.289062 22.175781 36.363281 22.242188 C 36.441406 22.308594 36.496094 22.390625 36.535156 22.492188 C 36.578125 22.585938 36.601562 22.691406 36.601562 22.8125 C 36.601562 22.917969 36.582031 23.007812 36.546875 23.09375 C 36.515625 23.179688 36.472656 23.261719 36.417969 23.339844 C 36.359375 23.414062 36.289062 23.488281 36.210938 23.566406 C 36.140625 23.640625 36.0625 23.710938 35.976562 23.78125 C 35.894531 23.847656 35.8125 23.914062 35.726562 23.984375 C 35.648438 24.050781 35.570312 24.121094 35.492188 24.191406 C 35.417969 24.253906 35.351562 24.324219 35.296875 24.394531 C 35.238281 24.46875 35.191406 24.539062 35.15625 24.609375 L 36.644531 24.609375 L 36.644531 24.921875 Z M 34.757812 24.921875 "/>
<path style=" stroke:none;fill-rule:nonzero;fill:rgb(0%,0%,0%);fill-opacity:1;" d="M 36.644531 23.230469 L 37.570312 23.230469 L 37.570312 22.308594 L 38.03125 22.308594 L 38.03125 23.230469 L 38.953125 23.230469 L 38.953125 23.691406 L 38.03125 23.691406 L 38.03125 24.613281 L 37.570312 24.613281 L 37.570312 23.691406 L 36.644531 23.691406 "/>
<path style=" stroke:none;fill-rule:nonzero;fill:rgb(0%,0%,0%);fill-opacity:1;" d="M 47.105469 15.496094 C 46.890625 15.496094 46.699219 15.535156 46.535156 15.605469 C 46.367188 15.679688 46.226562 15.78125 46.117188 15.917969 C 46.007812 16.046875 45.925781 16.203125 45.867188 16.390625 C 45.808594 16.578125 45.78125 16.785156 45.78125 17.015625 C 45.78125 17.246094 45.808594 17.453125 45.867188 17.648438 C 45.933594 17.835938 46.019531 17.996094 46.136719 18.132812 C 46.25 18.269531 46.390625 18.375 46.558594 18.453125 C 46.730469 18.527344 46.917969 18.5625 47.128906 18.5625 C 47.277344 18.5625 47.410156 18.546875 47.527344 18.507812 C 47.648438 18.464844 47.757812 18.410156 47.859375 18.335938 C 47.960938 18.265625 48.046875 18.183594 48.121094 18.089844 C 48.199219 17.996094 48.265625 17.890625 48.324219 17.765625 L 48.746094 17.980469 C 48.679688 18.125 48.597656 18.257812 48.496094 18.378906 C 48.394531 18.503906 48.277344 18.609375 48.140625 18.703125 C 48.003906 18.789062 47.851562 18.859375 47.679688 18.90625 C 47.503906 18.953125 47.3125 18.980469 47.105469 18.980469 C 46.796875 18.980469 46.527344 18.933594 46.296875 18.839844 C 46.066406 18.742188 45.871094 18.605469 45.714844 18.433594 C 45.566406 18.253906 45.449219 18.046875 45.371094 17.808594 C 45.289062 17.566406 45.253906 17.300781 45.253906 17.015625 C 45.253906 16.722656 45.289062 16.453125 45.371094 16.21875 C 45.457031 15.976562 45.578125 15.773438 45.738281 15.605469 C 45.894531 15.441406 46.089844 15.3125 46.320312 15.21875 C 46.550781 15.125 46.808594 15.078125 47.105469 15.078125 C 47.507812 15.078125 47.84375 15.160156 48.109375 15.316406 C 48.382812 15.472656 48.582031 15.710938 48.710938 16.023438 L 48.226562 16.1875 C 48.191406 16.09375 48.140625 16.007812 48.078125 15.929688 C 48.015625 15.84375 47.941406 15.773438 47.851562 15.710938 C 47.757812 15.648438 47.648438 15.601562 47.527344 15.5625 C 47.402344 15.519531 47.261719 15.496094 47.105469 15.496094 Z M 47.105469 15.496094 "/>
<path style=" stroke:none;fill-rule:nonzero;fill:rgb(0%,0%,0%);fill-opacity:1;" d="M 17.242188 15.496094 C 17.027344 15.496094 16.835938 15.535156 16.671875 15.605469 C 16.507812 15.679688 16.367188 15.78125 16.253906 15.917969 C 16.144531 16.046875 16.0625 16.203125 16.003906 16.390625 C 15.945312 16.578125 15.917969 16.785156 15.917969 17.015625 C 15.917969 17.246094 15.945312 17.453125 16.003906 17.648438 C 16.070312 17.835938 16.160156 17.996094 16.273438 18.132812 C 16.386719 18.269531 16.527344 18.375 16.695312 18.453125 C 16.867188 18.527344 17.054688 18.5625 17.265625 18.5625 C 17.417969 18.5625 17.546875 18.546875 17.664062 18.507812 C 17.785156 18.464844 17.894531 18.410156 18 18.335938 C 18.097656 18.265625 18.183594 18.183594 18.257812 18.089844 C 18.335938 17.996094 18.402344 17.890625 18.460938 17.765625 L 18.882812 17.980469 C 18.816406 18.125 18.734375 18.257812 18.632812 18.378906 C 18.53125 18.503906 18.414062 18.609375 18.277344 18.703125 C 18.140625 18.789062 17.988281 18.859375 17.816406 18.90625 C 17.644531 18.953125 17.453125 18.980469 17.242188 18.980469 C 16.933594 18.980469 16.664062 18.933594 16.4375 18.839844 C 16.203125 18.742188 16.011719 18.605469 15.855469 18.433594 C 15.703125 18.253906 15.585938 18.046875 15.507812 17.808594 C 15.429688 17.566406 15.390625 17.300781 15.390625 17.015625 C 15.390625 16.722656 15.429688 16.453125 15.507812 16.21875 C 15.59375 15.976562 15.714844 15.773438 15.875 15.605469 C 16.03125 15.441406 16.226562 15.3125 16.457031 15.21875 C 16.6875 15.125 16.949219 15.078125 17.242188 15.078125 C 17.644531 15.078125 17.980469 15.160156 18.246094 15.316406 C 18.519531 15.472656 18.71875 15.710938 18.851562 16.023438 L 18.363281 16.1875 C 18.328125 16.09375 18.277344 16.007812 18.214844 15.929688 C 18.15625 15.84375 18.078125 15.773438 17.988281 15.710938 C 17.894531 15.648438 17.785156 15.601562 17.664062 15.5625 C 17.539062 15.519531 17.398438 15.496094 17.242188 15.496094 Z M 17.242188 15.496094 "/>
<path style=" stroke:none;fill-rule:nonzero;fill:rgb(0%,0%,0%);fill-opacity:1;" d="M 32.175781 41.300781 C 31.960938 41.300781 31.769531 41.339844 31.605469 41.40625 C 31.4375 41.480469 31.296875 41.585938 31.183594 41.71875 C 31.078125 41.847656 30.992188 42.007812 30.9375 42.191406 C 30.878906 42.382812 30.851562 42.589844 30.851562 42.816406 C 30.851562 43.046875 30.878906 43.257812 30.9375 43.449219 C 31.003906 43.640625 31.089844 43.800781 31.207031 43.933594 C 31.320312 44.070312 31.460938 44.179688 31.628906 44.257812 C 31.800781 44.328125 31.988281 44.363281 32.199219 44.363281 C 32.347656 44.363281 32.480469 44.347656 32.597656 44.3125 C 32.71875 44.269531 32.828125 44.210938 32.929688 44.140625 C 33.03125 44.070312 33.117188 43.984375 33.191406 43.890625 C 33.269531 43.800781 33.335938 43.691406 33.394531 43.570312 L 33.816406 43.785156 C 33.75 43.929688 33.667969 44.0625 33.566406 44.183594 C 33.464844 44.304688 33.347656 44.414062 33.210938 44.503906 C 33.074219 44.589844 32.921875 44.660156 32.746094 44.707031 C 32.574219 44.757812 32.382812 44.785156 32.175781 44.785156 C 31.867188 44.785156 31.597656 44.734375 31.367188 44.644531 C 31.136719 44.542969 30.941406 44.40625 30.785156 44.234375 C 30.636719 44.058594 30.519531 43.847656 30.441406 43.613281 C 30.359375 43.371094 30.324219 43.105469 30.324219 42.816406 C 30.324219 42.523438 30.359375 42.257812 30.441406 42.019531 C 30.527344 41.777344 30.648438 41.574219 30.808594 41.40625 C 30.964844 41.242188 31.160156 41.113281 31.390625 41.019531 C 31.617188 40.929688 31.878906 40.882812 32.175781 40.882812 C 32.578125 40.882812 32.914062 40.960938 33.179688 41.117188 C 33.449219 41.277344 33.652344 41.511719 33.78125 41.828125 L 33.296875 41.988281 C 33.257812 41.898438 33.210938 41.8125 33.148438 41.730469 C 33.085938 41.644531 33.011719 41.574219 32.921875 41.515625 C 32.824219 41.449219 32.71875 41.402344 32.597656 41.363281 C 32.472656 41.320312 32.332031 41.300781 32.175781 41.300781 Z M 32.175781 41.300781 "/>
<path style="fill:none;stroke-width:0.0333333;stroke-linecap:butt;stroke-linejoin:miter;stroke:rgb(0%,0%,0%);stroke-opacity:1;stroke-miterlimit:10;" d="M 1.306981 0.245344 L 1.555747 0.101828 " transform="matrix(17.241379,0,0,17.201835,17.137714,17.029627)"/>
<path style="fill:none;stroke-width:0.0333333;stroke-linecap:butt;stroke-linejoin:miter;stroke:rgb(0%,0%,0%);stroke-opacity:1;stroke-miterlimit:10;" d="M 0.672606 0.38818 L 0.176434 0.101828 " transform="matrix(17.241379,0,0,17.201835,17.137714,17.029627)"/>
<path style="fill:none;stroke-width:0.0333333;stroke-linecap:butt;stroke-linejoin:miter;stroke:rgb(0%,0%,0%);stroke-opacity:1;stroke-miterlimit:10;" d="M 0.866091 0.659317 L 0.866091 1.343292 " transform="matrix(17.241379,0,0,17.201835,17.137714,17.029627)"/>
</g>
</svg>
