<?xml version="1.0" encoding="UTF-8"?>
<svg xmlns="http://www.w3.org/2000/svg" xmlns:xlink="http://www.w3.org/1999/xlink" width="168.8pt" height="137.6pt" viewBox="0 0 168.8 137.6" version="1.1">
<g id="surface557">
<path style=" stroke:none;fill-rule:nonzero;fill:rgb(0%,0%,47.058824%);fill-opacity:1;" d="M 64.3125 85.121094 C 64.3125 85.421875 64.261719 85.691406 64.167969 85.933594 C 64.082031 86.179688 63.957031 86.390625 63.789062 86.5625 C 63.621094 86.738281 63.421875 86.871094 63.183594 86.964844 C 62.945312 87.054688 62.671875 87.105469 62.371094 87.105469 C 62.050781 87.105469 61.773438 87.054688 61.535156 86.964844 C 61.296875 86.863281 61.09375 86.726562 60.925781 86.550781 C 60.765625 86.375 60.648438 86.164062 60.570312 85.925781 C 60.488281 85.679688 60.449219 85.414062 60.449219 85.121094 C 60.449219 84.828125 60.488281 84.558594 60.570312 84.320312 C 60.65625 84.078125 60.78125 83.871094 60.949219 83.703125 C 61.113281 83.539062 61.316406 83.40625 61.554688 83.3125 C 61.792969 83.21875 62.070312 83.171875 62.378906 83.171875 C 62.6875 83.171875 62.964844 83.21875 63.203125 83.3125 C 63.441406 83.40625 63.640625 83.539062 63.800781 83.714844 C 63.964844 83.882812 64.09375 84.082031 64.179688 84.320312 C 64.265625 84.558594 64.3125 84.828125 64.3125 85.121094 Z M 63.496094 85.121094 C 63.496094 84.921875 63.46875 84.742188 63.421875 84.582031 C 63.371094 84.421875 63.296875 84.285156 63.203125 84.167969 C 63.109375 84.054688 62.992188 83.960938 62.859375 83.898438 C 62.71875 83.832031 62.558594 83.800781 62.378906 83.800781 C 62.191406 83.800781 62.023438 83.832031 61.882812 83.898438 C 61.742188 83.960938 61.625 84.054688 61.535156 84.167969 C 61.441406 84.285156 61.367188 84.421875 61.316406 84.582031 C 61.273438 84.742188 61.253906 84.921875 61.253906 85.121094 C 61.253906 85.324219 61.277344 85.507812 61.328125 85.675781 C 61.378906 85.835938 61.449219 85.976562 61.546875 86.097656 C 61.636719 86.214844 61.753906 86.308594 61.890625 86.378906 C 62.027344 86.445312 62.1875 86.476562 62.371094 86.476562 C 62.566406 86.476562 62.730469 86.445312 62.867188 86.378906 C 63.011719 86.308594 63.132812 86.214844 63.226562 86.097656 C 63.320312 85.976562 63.390625 85.832031 63.433594 85.664062 C 63.476562 85.5 63.496094 85.316406 63.496094 85.121094 Z M 63.496094 85.121094 "/>
<path style=" stroke:none;fill-rule:nonzero;fill:rgb(0%,0%,47.058824%);fill-opacity:1;" d="M 64.515625 16.992188 C 64.515625 17.289062 64.46875 17.5625 64.375 17.804688 C 64.289062 18.050781 64.160156 18.261719 63.996094 18.433594 C 63.828125 18.605469 63.628906 18.742188 63.390625 18.835938 C 63.148438 18.925781 62.878906 18.976562 62.574219 18.976562 C 62.253906 18.976562 61.980469 18.925781 61.742188 18.835938 C 61.5 18.734375 61.296875 18.597656 61.132812 18.421875 C 60.972656 18.242188 60.855469 18.03125 60.773438 17.792969 C 60.695312 17.550781 60.65625 17.28125 60.65625 16.992188 C 60.65625 16.695312 60.695312 16.429688 60.773438 16.191406 C 60.863281 15.945312 60.988281 15.742188 61.15625 15.574219 C 61.320312 15.40625 61.523438 15.277344 61.761719 15.183594 C 62 15.089844 62.273438 15.042969 62.585938 15.042969 C 62.894531 15.042969 63.171875 15.089844 63.410156 15.183594 C 63.648438 15.277344 63.847656 15.410156 64.007812 15.582031 C 64.171875 15.75 64.300781 15.953125 64.386719 16.191406 C 64.472656 16.429688 64.515625 16.695312 64.515625 16.992188 Z M 63.703125 16.992188 C 63.703125 16.792969 63.675781 16.609375 63.628906 16.449219 C 63.574219 16.292969 63.503906 16.15625 63.410156 16.039062 C 63.316406 15.925781 63.199219 15.832031 63.0625 15.765625 C 62.925781 15.703125 62.765625 15.667969 62.585938 15.667969 C 62.398438 15.667969 62.230469 15.703125 62.085938 15.765625 C 61.949219 15.832031 61.832031 15.925781 61.742188 16.039062 C 61.644531 16.15625 61.574219 16.292969 61.523438 16.449219 C 61.480469 16.609375 61.457031 16.792969 61.457031 16.992188 C 61.457031 17.195312 61.484375 17.378906 61.535156 17.542969 C 61.582031 17.703125 61.65625 17.84375 61.75 17.96875 C 61.84375 18.082031 61.960938 18.179688 62.097656 18.25 C 62.234375 18.3125 62.394531 18.347656 62.574219 18.347656 C 62.769531 18.347656 62.9375 18.3125 63.074219 18.25 C 63.21875 18.179688 63.335938 18.082031 63.433594 17.96875 C 63.523438 17.84375 63.59375 17.703125 63.636719 17.535156 C 63.683594 17.367188 63.703125 17.1875 63.703125 16.992188 Z M 63.703125 16.992188 "/>
<path style=" stroke:none;fill-rule:nonzero;fill:rgb(0%,0%,0%);fill-opacity:1;" d="M 77.792969 94.640625 C 77.792969 94.832031 77.75 94.996094 77.671875 95.128906 C 77.597656 95.269531 77.5 95.378906 77.367188 95.464844 C 77.238281 95.550781 77.085938 95.617188 76.914062 95.660156 C 76.746094 95.699219 76.566406 95.714844 76.382812 95.714844 L 74.832031 95.714844 L 74.832031 91.902344 L 76.21875 91.902344 C 76.425781 91.902344 76.613281 91.917969 76.78125 91.953125 C 76.949219 91.984375 77.089844 92.039062 77.207031 92.117188 C 77.320312 92.191406 77.40625 92.289062 77.464844 92.410156 C 77.53125 92.527344 77.5625 92.664062 77.5625 92.820312 C 77.5625 92.929688 77.546875 93.03125 77.519531 93.125 C 77.488281 93.21875 77.445312 93.304688 77.378906 93.386719 C 77.320312 93.457031 77.242188 93.523438 77.152344 93.582031 C 77.0625 93.632812 76.957031 93.671875 76.835938 93.699219 C 76.988281 93.722656 77.121094 93.757812 77.238281 93.808594 C 77.359375 93.859375 77.460938 93.925781 77.542969 94.015625 C 77.621094 94.09375 77.683594 94.1875 77.726562 94.296875 C 77.769531 94.398438 77.792969 94.511719 77.792969 94.640625 Z M 77.042969 92.886719 C 77.042969 92.679688 76.96875 92.527344 76.824219 92.441406 C 76.6875 92.355469 76.484375 92.3125 76.21875 92.3125 L 75.351562 92.3125 L 75.351562 93.515625 L 76.21875 93.515625 C 76.371094 93.515625 76.496094 93.5 76.597656 93.472656 C 76.707031 93.445312 76.792969 93.402344 76.859375 93.351562 C 76.921875 93.296875 76.96875 93.226562 77 93.148438 C 77.027344 93.066406 77.042969 92.980469 77.042969 92.886719 Z M 77.257812 94.597656 C 77.257812 94.476562 77.238281 94.375 77.195312 94.296875 C 77.152344 94.207031 77.085938 94.140625 77 94.089844 C 76.917969 94.03125 76.820312 93.992188 76.707031 93.96875 C 76.589844 93.941406 76.460938 93.925781 76.316406 93.925781 L 75.351562 93.925781 L 75.351562 95.304688 L 76.359375 95.304688 C 76.488281 95.304688 76.609375 95.292969 76.71875 95.269531 C 76.832031 95.25 76.929688 95.214844 77.011719 95.164062 C 77.089844 95.105469 77.152344 95.03125 77.195312 94.945312 C 77.238281 94.855469 77.257812 94.738281 77.257812 94.597656 Z M 77.257812 94.597656 "/>
<path style=" stroke:none;fill-rule:nonzero;fill:rgb(0%,0%,0%);fill-opacity:1;" d="M 78.621094 95.714844 L 78.621094 93.460938 C 78.621094 93.402344 78.617188 93.34375 78.609375 93.277344 C 78.609375 93.210938 78.609375 93.152344 78.609375 93.09375 C 78.609375 93.035156 78.605469 92.980469 78.597656 92.929688 C 78.597656 92.875 78.597656 92.820312 78.597656 92.777344 L 79.066406 92.777344 C 79.066406 92.820312 79.066406 92.875 79.066406 92.929688 C 79.070312 92.980469 79.078125 93.035156 79.078125 93.09375 C 79.078125 93.144531 79.078125 93.199219 79.078125 93.253906 C 79.082031 93.304688 79.085938 93.351562 79.085938 93.386719 L 79.097656 93.386719 C 79.125 93.269531 79.15625 93.175781 79.195312 93.09375 C 79.238281 93.007812 79.285156 92.9375 79.335938 92.886719 C 79.394531 92.839844 79.457031 92.796875 79.53125 92.765625 C 79.601562 92.742188 79.6875 92.722656 79.792969 92.722656 C 79.828125 92.722656 79.863281 92.730469 79.902344 92.734375 C 79.9375 92.742188 79.964844 92.75 79.988281 92.757812 L 79.988281 93.199219 C 79.957031 93.195312 79.921875 93.191406 79.878906 93.191406 C 79.835938 93.183594 79.785156 93.179688 79.726562 93.179688 C 79.617188 93.179688 79.523438 93.207031 79.445312 93.253906 C 79.363281 93.304688 79.296875 93.375 79.25 93.460938 C 79.199219 93.546875 79.164062 93.65625 79.140625 93.785156 C 79.121094 93.910156 79.109375 94.042969 79.109375 94.1875 L 79.109375 95.714844 Z M 78.621094 95.714844 "/>
<path style=" stroke:none;fill-rule:nonzero;fill:rgb(0%,0%,47.058824%);fill-opacity:1;" d="M 152.285156 85.617188 C 152.285156 85.914062 152.238281 86.1875 152.144531 86.429688 C 152.058594 86.675781 151.929688 86.886719 151.765625 87.058594 C 151.597656 87.234375 151.394531 87.367188 151.15625 87.460938 C 150.917969 87.550781 150.648438 87.601562 150.34375 87.601562 C 150.023438 87.601562 149.746094 87.550781 149.507812 87.460938 C 149.269531 87.359375 149.066406 87.222656 148.902344 87.046875 C 148.742188 86.871094 148.621094 86.660156 148.542969 86.421875 C 148.460938 86.175781 148.425781 85.90625 148.425781 85.617188 C 148.425781 85.324219 148.460938 85.054688 148.542969 84.816406 C 148.628906 84.570312 148.753906 84.367188 148.921875 84.199219 C 149.089844 84.03125 149.292969 83.902344 149.53125 83.808594 C 149.769531 83.714844 150.042969 83.667969 150.355469 83.667969 C 150.664062 83.667969 150.941406 83.714844 151.179688 83.808594 C 151.417969 83.902344 151.617188 84.035156 151.777344 84.210938 C 151.941406 84.378906 152.070312 84.578125 152.15625 84.816406 C 152.242188 85.054688 152.285156 85.324219 152.285156 85.617188 Z M 151.472656 85.617188 C 151.472656 85.417969 151.445312 85.234375 151.394531 85.078125 C 151.34375 84.917969 151.269531 84.78125 151.179688 84.664062 C 151.085938 84.550781 150.96875 84.457031 150.832031 84.394531 C 150.695312 84.328125 150.535156 84.296875 150.355469 84.296875 C 150.164062 84.296875 150 84.328125 149.855469 84.394531 C 149.71875 84.457031 149.601562 84.550781 149.507812 84.664062 C 149.414062 84.78125 149.339844 84.917969 149.292969 85.078125 C 149.25 85.234375 149.226562 85.417969 149.226562 85.617188 C 149.226562 85.820312 149.25 86.003906 149.304688 86.171875 C 149.351562 86.332031 149.425781 86.472656 149.519531 86.59375 C 149.613281 86.710938 149.730469 86.804688 149.867188 86.875 C 150.003906 86.941406 150.164062 86.972656 150.34375 86.972656 C 150.539062 86.972656 150.703125 86.941406 150.84375 86.875 C 150.988281 86.804688 151.105469 86.710938 151.199219 86.59375 C 151.292969 86.472656 151.363281 86.328125 151.40625 86.160156 C 151.449219 85.996094 151.472656 85.8125 151.472656 85.617188 Z M 151.472656 85.617188 "/>
<path style=" stroke:none;fill-rule:nonzero;fill:rgb(0%,0%,47.058824%);fill-opacity:1;" d="M 152.867188 83.296875 L 155.1875 83.296875 L 155.1875 83.757812 L 152.867188 83.757812 "/>
<path style=" stroke:none;fill-rule:nonzero;fill:rgb(0%,0%,47.058824%);fill-opacity:1;" d="M 121.421875 21.34375 C 121.570312 21.34375 121.703125 21.324219 121.8125 21.28125 C 121.917969 21.238281 122.011719 21.183594 122.09375 21.117188 C 122.171875 21.046875 122.238281 20.964844 122.289062 20.878906 C 122.34375 20.792969 122.390625 20.707031 122.429688 20.621094 L 123.125 20.878906 C 123.0625 21.019531 122.988281 21.15625 122.894531 21.292969 C 122.808594 21.421875 122.695312 21.539062 122.558594 21.636719 C 122.429688 21.742188 122.269531 21.824219 122.082031 21.886719 C 121.890625 21.945312 121.671875 21.972656 121.421875 21.972656 C 121.085938 21.972656 120.796875 21.925781 120.554688 21.832031 C 120.3125 21.734375 120.113281 21.59375 119.957031 21.421875 C 119.796875 21.242188 119.675781 21.03125 119.597656 20.792969 C 119.523438 20.550781 119.488281 20.28125 119.488281 19.992188 C 119.488281 19.695312 119.523438 19.425781 119.597656 19.1875 C 119.675781 18.945312 119.792969 18.738281 119.945312 18.570312 C 120.101562 18.40625 120.304688 18.277344 120.542969 18.179688 C 120.78125 18.089844 121.0625 18.039062 121.386719 18.039062 C 121.632812 18.039062 121.847656 18.070312 122.039062 18.128906 C 122.226562 18.179688 122.386719 18.25 122.527344 18.34375 C 122.664062 18.4375 122.777344 18.550781 122.863281 18.679688 C 122.949219 18.808594 123.015625 18.949219 123.070312 19.101562 L 122.363281 19.296875 C 122.34375 19.21875 122.300781 19.144531 122.246094 19.070312 C 122.191406 18.992188 122.128906 18.921875 122.050781 18.863281 C 121.96875 18.808594 121.875 18.761719 121.765625 18.722656 C 121.660156 18.6875 121.535156 18.667969 121.398438 18.667969 C 121.203125 18.667969 121.035156 18.703125 120.898438 18.765625 C 120.761719 18.832031 120.644531 18.921875 120.554688 19.039062 C 120.464844 19.152344 120.402344 19.292969 120.359375 19.449219 C 120.3125 19.609375 120.292969 19.789062 120.292969 19.992188 C 120.292969 20.195312 120.3125 20.378906 120.359375 20.542969 C 120.402344 20.703125 120.464844 20.84375 120.554688 20.964844 C 120.644531 21.082031 120.761719 21.175781 120.898438 21.25 C 121.042969 21.3125 121.21875 21.34375 121.421875 21.34375 Z M 121.421875 21.34375 "/>
<path style=" stroke:none;fill-rule:nonzero;fill:rgb(0%,0%,47.058824%);fill-opacity:1;" d="M 114.753906 19.375 L 114.753906 18.949219 L 115.46875 18.949219 L 115.46875 17 L 114.773438 17.421875 L 114.773438 16.976562 L 115.492188 16.511719 L 116.03125 16.511719 L 116.03125 18.949219 L 116.695312 18.949219 L 116.695312 19.375 Z M 114.753906 19.375 "/>
<path style=" stroke:none;fill-rule:nonzero;fill:rgb(0%,0%,47.058824%);fill-opacity:1;" d="M 118.910156 18.582031 C 118.910156 18.710938 118.890625 18.828125 118.847656 18.929688 C 118.804688 19.03125 118.738281 19.121094 118.652344 19.199219 C 118.566406 19.273438 118.457031 19.328125 118.328125 19.363281 C 118.203125 19.398438 118.058594 19.417969 117.890625 19.417969 C 117.703125 19.417969 117.546875 19.394531 117.414062 19.351562 C 117.289062 19.304688 117.1875 19.242188 117.101562 19.167969 C 117.019531 19.089844 116.960938 19 116.917969 18.898438 C 116.878906 18.796875 116.855469 18.695312 116.839844 18.59375 L 117.414062 18.539062 C 117.429688 18.605469 117.449219 18.664062 117.46875 18.710938 C 117.492188 18.765625 117.519531 18.808594 117.554688 18.84375 C 117.589844 18.878906 117.636719 18.90625 117.6875 18.929688 C 117.742188 18.949219 117.8125 18.960938 117.890625 18.960938 C 118.027344 18.960938 118.132812 18.929688 118.207031 18.863281 C 118.285156 18.792969 118.328125 18.683594 118.328125 18.539062 C 118.328125 18.460938 118.308594 18.394531 118.273438 18.34375 C 118.234375 18.285156 118.1875 18.246094 118.132812 18.226562 C 118.078125 18.199219 118.023438 18.179688 117.957031 18.171875 C 117.890625 18.15625 117.832031 18.148438 117.773438 18.148438 L 117.578125 18.148438 L 117.578125 17.695312 L 117.761719 17.695312 C 117.820312 17.695312 117.875 17.691406 117.9375 17.683594 C 117.992188 17.667969 118.042969 17.648438 118.085938 17.617188 C 118.136719 17.589844 118.175781 17.550781 118.207031 17.5 C 118.242188 17.449219 118.261719 17.382812 118.261719 17.304688 C 118.261719 17.179688 118.222656 17.085938 118.152344 17.023438 C 118.085938 16.957031 117.992188 16.925781 117.871094 16.925781 C 117.753906 16.925781 117.660156 16.957031 117.589844 17.023438 C 117.515625 17.085938 117.472656 17.179688 117.457031 17.292969 L 116.882812 17.261719 C 116.90625 17.125 116.945312 17.007812 117.003906 16.914062 C 117.058594 16.8125 117.132812 16.730469 117.21875 16.664062 C 117.308594 16.597656 117.40625 16.554688 117.511719 16.523438 C 117.625 16.488281 117.75 16.46875 117.882812 16.46875 C 118.046875 16.46875 118.1875 16.492188 118.304688 16.535156 C 118.425781 16.570312 118.527344 16.625 118.609375 16.695312 C 118.6875 16.761719 118.742188 16.84375 118.78125 16.933594 C 118.816406 17.03125 118.835938 17.128906 118.835938 17.226562 C 118.835938 17.3125 118.820312 17.394531 118.792969 17.464844 C 118.769531 17.539062 118.734375 17.605469 118.683594 17.660156 C 118.640625 17.71875 118.578125 17.769531 118.5 17.8125 C 118.417969 17.851562 118.328125 17.878906 118.230469 17.898438 L 118.230469 17.910156 C 118.34375 17.925781 118.445312 17.953125 118.53125 17.996094 C 118.617188 18.035156 118.6875 18.082031 118.738281 18.136719 C 118.796875 18.199219 118.839844 18.265625 118.867188 18.34375 C 118.894531 18.417969 118.910156 18.496094 118.910156 18.582031 Z M 118.910156 18.582031 "/>
<path style=" stroke:none;fill-rule:nonzero;fill:rgb(0%,0%,47.058824%);fill-opacity:1;" d="M 106.390625 30.015625 C 106.542969 30.015625 106.675781 29.992188 106.78125 29.949219 C 106.890625 29.90625 106.984375 29.851562 107.0625 29.789062 C 107.144531 29.71875 107.207031 29.636719 107.257812 29.550781 C 107.316406 29.460938 107.363281 29.375 107.402344 29.289062 L 108.09375 29.550781 C 108.035156 29.6875 107.960938 29.824219 107.867188 29.960938 C 107.78125 30.089844 107.667969 30.207031 107.53125 30.308594 C 107.402344 30.410156 107.242188 30.492188 107.054688 30.558594 C 106.863281 30.613281 106.644531 30.644531 106.390625 30.644531 C 106.058594 30.644531 105.769531 30.59375 105.523438 30.503906 C 105.285156 30.402344 105.085938 30.265625 104.929688 30.089844 C 104.769531 29.910156 104.648438 29.699219 104.570312 29.460938 C 104.496094 29.21875 104.460938 28.949219 104.460938 28.660156 C 104.460938 28.363281 104.496094 28.097656 104.570312 27.859375 C 104.648438 27.613281 104.765625 27.410156 104.917969 27.242188 C 105.074219 27.074219 105.273438 26.945312 105.511719 26.851562 C 105.753906 26.757812 106.035156 26.710938 106.359375 26.710938 C 106.601562 26.710938 106.820312 26.738281 107.011719 26.796875 C 107.195312 26.847656 107.359375 26.921875 107.5 27.011719 C 107.632812 27.109375 107.746094 27.21875 107.835938 27.347656 C 107.921875 27.480469 107.988281 27.621094 108.039062 27.773438 L 107.335938 27.96875 C 107.3125 27.886719 107.273438 27.8125 107.214844 27.738281 C 107.164062 27.660156 107.101562 27.59375 107.019531 27.535156 C 106.941406 27.476562 106.847656 27.429688 106.738281 27.390625 C 106.628906 27.355469 106.507812 27.339844 106.371094 27.339844 C 106.175781 27.339844 106.007812 27.371094 105.871094 27.4375 C 105.734375 27.5 105.617188 27.59375 105.523438 27.707031 C 105.4375 27.824219 105.371094 27.960938 105.328125 28.117188 C 105.285156 28.277344 105.265625 28.460938 105.265625 28.660156 C 105.265625 28.863281 105.285156 29.046875 105.328125 29.214844 C 105.371094 29.371094 105.4375 29.515625 105.523438 29.636719 C 105.617188 29.753906 105.734375 29.847656 105.871094 29.917969 C 106.015625 29.984375 106.1875 30.015625 106.390625 30.015625 Z M 106.390625 30.015625 "/>
<path style=" stroke:none;fill-rule:nonzero;fill:rgb(0%,0%,47.058824%);fill-opacity:1;" d="M 99.726562 28.042969 L 99.726562 27.621094 L 100.441406 27.621094 L 100.441406 25.667969 L 99.746094 26.09375 L 99.746094 25.648438 L 100.460938 25.183594 L 101.003906 25.183594 L 101.003906 27.621094 L 101.667969 27.621094 L 101.667969 28.042969 Z M 99.726562 28.042969 "/>
<path style=" stroke:none;fill-rule:nonzero;fill:rgb(0%,0%,47.058824%);fill-opacity:1;" d="M 103.882812 27.25 C 103.882812 27.382812 103.863281 27.5 103.820312 27.597656 C 103.773438 27.703125 103.710938 27.789062 103.625 27.871094 C 103.535156 27.941406 103.429688 27.996094 103.296875 28.03125 C 103.171875 28.066406 103.03125 28.085938 102.863281 28.085938 C 102.675781 28.085938 102.515625 28.0625 102.386719 28.019531 C 102.261719 27.972656 102.160156 27.910156 102.074219 27.835938 C 101.992188 27.757812 101.929688 27.667969 101.886719 27.566406 C 101.851562 27.464844 101.824219 27.367188 101.8125 27.261719 L 102.386719 27.207031 C 102.402344 27.273438 102.417969 27.332031 102.441406 27.382812 C 102.460938 27.433594 102.488281 27.476562 102.527344 27.511719 C 102.5625 27.550781 102.605469 27.578125 102.65625 27.597656 C 102.714844 27.621094 102.78125 27.632812 102.863281 27.632812 C 103 27.632812 103.105469 27.597656 103.179688 27.535156 C 103.257812 27.460938 103.296875 27.355469 103.296875 27.207031 C 103.296875 27.128906 103.277344 27.066406 103.242188 27.011719 C 103.207031 26.957031 103.160156 26.914062 103.101562 26.894531 C 103.050781 26.867188 102.996094 26.847656 102.929688 26.839844 C 102.863281 26.828125 102.800781 26.816406 102.746094 26.816406 L 102.550781 26.816406 L 102.550781 26.363281 L 102.734375 26.363281 C 102.789062 26.363281 102.847656 26.359375 102.90625 26.351562 C 102.964844 26.339844 103.015625 26.316406 103.058594 26.289062 C 103.109375 26.261719 103.148438 26.21875 103.179688 26.167969 C 103.214844 26.117188 103.234375 26.054688 103.234375 25.972656 C 103.234375 25.851562 103.195312 25.757812 103.125 25.691406 C 103.058594 25.625 102.964844 25.59375 102.84375 25.59375 C 102.726562 25.59375 102.632812 25.625 102.558594 25.691406 C 102.488281 25.757812 102.445312 25.847656 102.429688 25.960938 L 101.855469 25.929688 C 101.878906 25.792969 101.914062 25.675781 101.976562 25.582031 C 102.03125 25.484375 102.105469 25.398438 102.191406 25.332031 C 102.277344 25.269531 102.375 25.222656 102.484375 25.191406 C 102.597656 25.15625 102.722656 25.136719 102.851562 25.136719 C 103.019531 25.136719 103.160156 25.160156 103.277344 25.203125 C 103.398438 25.242188 103.5 25.296875 103.578125 25.367188 C 103.660156 25.429688 103.714844 25.511719 103.753906 25.605469 C 103.789062 25.699219 103.808594 25.796875 103.808594 25.898438 C 103.808594 25.984375 103.792969 26.066406 103.765625 26.136719 C 103.742188 26.207031 103.703125 26.273438 103.65625 26.332031 C 103.613281 26.390625 103.550781 26.4375 103.472656 26.480469 C 103.390625 26.519531 103.300781 26.546875 103.199219 26.570312 L 103.199219 26.578125 C 103.3125 26.597656 103.417969 26.625 103.503906 26.667969 C 103.589844 26.703125 103.660156 26.75 103.710938 26.808594 C 103.765625 26.867188 103.808594 26.933594 103.839844 27.011719 C 103.867188 27.085938 103.882812 27.164062 103.882812 27.25 Z M 103.882812 27.25 "/>
<path style=" stroke:none;fill-rule:nonzero;fill:rgb(0%,0%,47.058824%);fill-opacity:1;" d="M 106.390625 47.355469 C 106.542969 47.355469 106.675781 47.332031 106.78125 47.289062 C 106.890625 47.246094 106.984375 47.191406 107.0625 47.125 C 107.144531 47.054688 107.207031 46.972656 107.257812 46.886719 C 107.316406 46.800781 107.363281 46.714844 107.402344 46.628906 L 108.09375 46.886719 C 108.035156 47.027344 107.960938 47.164062 107.867188 47.300781 C 107.78125 47.429688 107.667969 47.546875 107.53125 47.644531 C 107.402344 47.75 107.242188 47.832031 107.054688 47.894531 C 106.863281 47.953125 106.644531 47.980469 106.390625 47.980469 C 106.058594 47.980469 105.769531 47.933594 105.523438 47.839844 C 105.285156 47.742188 105.085938 47.601562 104.929688 47.429688 C 104.769531 47.25 104.648438 47.039062 104.570312 46.800781 C 104.496094 46.558594 104.460938 46.289062 104.460938 46 C 104.460938 45.703125 104.496094 45.4375 104.570312 45.195312 C 104.648438 44.953125 104.765625 44.746094 104.917969 44.578125 C 105.074219 44.414062 105.273438 44.285156 105.511719 44.1875 C 105.753906 44.097656 106.035156 44.046875 106.359375 44.046875 C 106.601562 44.046875 106.820312 44.078125 107.011719 44.136719 C 107.195312 44.1875 107.359375 44.257812 107.5 44.351562 C 107.632812 44.445312 107.746094 44.558594 107.835938 44.6875 C 107.921875 44.816406 107.988281 44.957031 108.039062 45.109375 L 107.335938 45.304688 C 107.3125 45.226562 107.273438 45.152344 107.214844 45.078125 C 107.164062 45 107.101562 44.929688 107.019531 44.871094 C 106.941406 44.816406 106.847656 44.769531 106.738281 44.730469 C 106.628906 44.695312 106.507812 44.675781 106.371094 44.675781 C 106.175781 44.675781 106.007812 44.710938 105.871094 44.773438 C 105.734375 44.839844 105.617188 44.929688 105.523438 45.046875 C 105.4375 45.160156 105.371094 45.300781 105.328125 45.457031 C 105.285156 45.617188 105.265625 45.796875 105.265625 46 C 105.265625 46.203125 105.285156 46.386719 105.328125 46.550781 C 105.371094 46.710938 105.4375 46.851562 105.523438 46.972656 C 105.617188 47.089844 105.734375 47.1875 105.871094 47.257812 C 106.015625 47.320312 106.1875 47.355469 106.390625 47.355469 Z M 106.390625 47.355469 "/>
<path style=" stroke:none;fill-rule:nonzero;fill:rgb(0%,0%,47.058824%);fill-opacity:1;" d="M 99.726562 45.382812 L 99.726562 44.957031 L 100.441406 44.957031 L 100.441406 43.007812 L 99.746094 43.429688 L 99.746094 42.988281 L 100.460938 42.519531 L 101.003906 42.519531 L 101.003906 44.957031 L 101.667969 44.957031 L 101.667969 45.382812 Z M 99.726562 45.382812 "/>
<path style=" stroke:none;fill-rule:nonzero;fill:rgb(0%,0%,47.058824%);fill-opacity:1;" d="M 103.882812 44.589844 C 103.882812 44.71875 103.863281 44.835938 103.820312 44.9375 C 103.773438 45.039062 103.710938 45.128906 103.625 45.207031 C 103.535156 45.28125 103.429688 45.335938 103.296875 45.371094 C 103.171875 45.40625 103.03125 45.425781 102.863281 45.425781 C 102.675781 45.425781 102.515625 45.402344 102.386719 45.359375 C 102.261719 45.3125 102.160156 45.25 102.074219 45.175781 C 101.992188 45.097656 101.929688 45.007812 101.886719 44.90625 C 101.851562 44.804688 101.824219 44.703125 101.8125 44.601562 L 102.386719 44.546875 C 102.402344 44.613281 102.417969 44.671875 102.441406 44.71875 C 102.460938 44.773438 102.488281 44.816406 102.527344 44.851562 C 102.5625 44.886719 102.605469 44.914062 102.65625 44.9375 C 102.714844 44.957031 102.78125 44.96875 102.863281 44.96875 C 103 44.96875 103.105469 44.9375 103.179688 44.871094 C 103.257812 44.800781 103.296875 44.691406 103.296875 44.546875 C 103.296875 44.46875 103.277344 44.402344 103.242188 44.351562 C 103.207031 44.296875 103.160156 44.253906 103.101562 44.234375 C 103.050781 44.207031 102.996094 44.1875 102.929688 44.179688 C 102.863281 44.164062 102.800781 44.15625 102.746094 44.15625 L 102.550781 44.15625 L 102.550781 43.703125 L 102.734375 43.703125 C 102.789062 43.703125 102.847656 43.699219 102.90625 43.691406 C 102.964844 43.675781 103.015625 43.65625 103.058594 43.625 C 103.109375 43.597656 103.148438 43.558594 103.179688 43.507812 C 103.214844 43.457031 103.234375 43.394531 103.234375 43.3125 C 103.234375 43.191406 103.195312 43.09375 103.125 43.03125 C 103.058594 42.964844 102.964844 42.933594 102.84375 42.933594 C 102.726562 42.933594 102.632812 42.964844 102.558594 43.03125 C 102.488281 43.09375 102.445312 43.1875 102.429688 43.300781 L 101.855469 43.269531 C 101.878906 43.132812 101.914062 43.015625 101.976562 42.921875 C 102.03125 42.820312 102.105469 42.738281 102.191406 42.671875 C 102.277344 42.605469 102.375 42.5625 102.484375 42.53125 C 102.597656 42.496094 102.722656 42.476562 102.851562 42.476562 C 103.019531 42.476562 103.160156 42.5 103.277344 42.542969 C 103.398438 42.578125 103.5 42.632812 103.578125 42.703125 C 103.660156 42.769531 103.714844 42.851562 103.753906 42.941406 C 103.789062 43.039062 103.808594 43.136719 103.808594 43.234375 C 103.808594 43.324219 103.792969 43.402344 103.765625 43.472656 C 103.742188 43.546875 103.703125 43.613281 103.65625 43.667969 C 103.613281 43.730469 103.550781 43.777344 103.472656 43.820312 C 103.390625 43.859375 103.300781 43.886719 103.199219 43.90625 L 103.199219 43.917969 C 103.3125 43.933594 103.417969 43.960938 103.503906 44.003906 C 103.589844 44.042969 103.660156 44.089844 103.710938 44.144531 C 103.765625 44.207031 103.808594 44.273438 103.839844 44.351562 C 103.867188 44.425781 103.882812 44.503906 103.882812 44.589844 Z M 103.882812 44.589844 "/>
<path style=" stroke:none;fill-rule:nonzero;fill:rgb(0%,0%,47.058824%);fill-opacity:1;" d="M 121.421875 56.023438 C 121.570312 56.023438 121.703125 56 121.8125 55.957031 C 121.917969 55.914062 122.011719 55.859375 122.09375 55.796875 C 122.171875 55.726562 122.238281 55.644531 122.289062 55.558594 C 122.34375 55.46875 122.390625 55.382812 122.429688 55.296875 L 123.125 55.558594 C 123.0625 55.695312 122.988281 55.832031 122.894531 55.96875 C 122.808594 56.097656 122.695312 56.214844 122.558594 56.316406 C 122.429688 56.417969 122.269531 56.5 122.082031 56.566406 C 121.890625 56.621094 121.671875 56.652344 121.421875 56.652344 C 121.085938 56.652344 120.796875 56.601562 120.554688 56.511719 C 120.3125 56.410156 120.113281 56.273438 119.957031 56.097656 C 119.796875 55.921875 119.675781 55.707031 119.597656 55.46875 C 119.523438 55.226562 119.488281 54.957031 119.488281 54.667969 C 119.488281 54.375 119.523438 54.105469 119.597656 53.867188 C 119.675781 53.621094 119.792969 53.417969 119.945312 53.25 C 120.101562 53.082031 120.304688 52.953125 120.542969 52.859375 C 120.78125 52.765625 121.0625 52.71875 121.386719 52.71875 C 121.632812 52.71875 121.847656 52.746094 122.039062 52.804688 C 122.226562 52.855469 122.386719 52.929688 122.527344 53.019531 C 122.664062 53.117188 122.777344 53.226562 122.863281 53.355469 C 122.949219 53.488281 123.015625 53.628906 123.070312 53.78125 L 122.363281 53.976562 C 122.34375 53.894531 122.300781 53.820312 122.246094 53.746094 C 122.191406 53.667969 122.128906 53.601562 122.050781 53.542969 C 121.96875 53.484375 121.875 53.4375 121.765625 53.402344 C 121.660156 53.367188 121.535156 53.347656 121.398438 53.347656 C 121.203125 53.347656 121.035156 53.378906 120.898438 53.445312 C 120.761719 53.507812 120.644531 53.601562 120.554688 53.714844 C 120.464844 53.832031 120.402344 53.96875 120.359375 54.125 C 120.3125 54.285156 120.292969 54.46875 120.292969 54.667969 C 120.292969 54.871094 120.3125 55.054688 120.359375 55.222656 C 120.402344 55.382812 120.464844 55.523438 120.554688 55.644531 C 120.644531 55.761719 120.761719 55.855469 120.898438 55.925781 C 121.042969 55.992188 121.21875 56.023438 121.421875 56.023438 Z M 121.421875 56.023438 "/>
<path style=" stroke:none;fill-rule:nonzero;fill:rgb(0%,0%,47.058824%);fill-opacity:1;" d="M 114.753906 54.046875 L 114.753906 53.625 L 115.46875 53.625 L 115.46875 51.675781 L 114.773438 52.097656 L 114.773438 51.652344 L 115.492188 51.1875 L 116.03125 51.1875 L 116.03125 53.625 L 116.695312 53.625 L 116.695312 54.046875 Z M 114.753906 54.046875 "/>
<path style=" stroke:none;fill-rule:nonzero;fill:rgb(0%,0%,47.058824%);fill-opacity:1;" d="M 118.910156 53.257812 C 118.910156 53.386719 118.890625 53.503906 118.847656 53.605469 C 118.804688 53.707031 118.738281 53.796875 118.652344 53.875 C 118.566406 53.949219 118.457031 54 118.328125 54.039062 C 118.203125 54.074219 118.058594 54.089844 117.890625 54.089844 C 117.703125 54.089844 117.546875 54.070312 117.414062 54.027344 C 117.289062 53.976562 117.1875 53.914062 117.101562 53.84375 C 117.019531 53.761719 116.960938 53.675781 116.917969 53.570312 C 116.878906 53.472656 116.855469 53.371094 116.839844 53.269531 L 117.414062 53.214844 C 117.429688 53.277344 117.449219 53.339844 117.46875 53.386719 C 117.492188 53.4375 117.519531 53.480469 117.554688 53.515625 C 117.589844 53.554688 117.636719 53.582031 117.6875 53.605469 C 117.742188 53.625 117.8125 53.636719 117.890625 53.636719 C 118.027344 53.636719 118.132812 53.605469 118.207031 53.539062 C 118.285156 53.46875 118.328125 53.359375 118.328125 53.214844 C 118.328125 53.136719 118.308594 53.070312 118.273438 53.019531 C 118.234375 52.960938 118.1875 52.921875 118.132812 52.898438 C 118.078125 52.871094 118.023438 52.851562 117.957031 52.84375 C 117.890625 52.832031 117.832031 52.824219 117.773438 52.824219 L 117.578125 52.824219 L 117.578125 52.367188 L 117.761719 52.367188 C 117.820312 52.367188 117.875 52.367188 117.9375 52.359375 C 117.992188 52.34375 118.042969 52.320312 118.085938 52.292969 C 118.136719 52.265625 118.175781 52.226562 118.207031 52.171875 C 118.242188 52.125 118.261719 52.058594 118.261719 51.976562 C 118.261719 51.855469 118.222656 51.761719 118.152344 51.695312 C 118.085938 51.632812 117.992188 51.597656 117.871094 51.597656 C 117.753906 51.597656 117.660156 51.632812 117.589844 51.695312 C 117.515625 51.761719 117.472656 51.855469 117.457031 51.96875 L 116.882812 51.933594 C 116.90625 51.800781 116.945312 51.683594 117.003906 51.589844 C 117.058594 51.488281 117.132812 51.402344 117.21875 51.339844 C 117.308594 51.273438 117.40625 51.226562 117.511719 51.199219 C 117.625 51.164062 117.75 51.144531 117.882812 51.144531 C 118.046875 51.144531 118.1875 51.164062 118.304688 51.207031 C 118.425781 51.246094 118.527344 51.300781 118.609375 51.371094 C 118.6875 51.4375 118.742188 51.519531 118.78125 51.609375 C 118.816406 51.703125 118.835938 51.800781 118.835938 51.902344 C 118.835938 51.988281 118.820312 52.070312 118.792969 52.140625 C 118.769531 52.214844 118.734375 52.277344 118.683594 52.335938 C 118.640625 52.394531 118.578125 52.445312 118.5 52.488281 C 118.417969 52.527344 118.328125 52.550781 118.230469 52.574219 L 118.230469 52.585938 C 118.34375 52.601562 118.445312 52.628906 118.53125 52.671875 C 118.617188 52.710938 118.6875 52.753906 118.738281 52.8125 C 118.796875 52.871094 118.839844 52.941406 118.867188 53.019531 C 118.894531 53.089844 118.910156 53.171875 118.910156 53.257812 Z M 118.910156 53.257812 "/>
<path style=" stroke:none;fill-rule:nonzero;fill:rgb(0%,0%,47.058824%);fill-opacity:1;" d="M 136.449219 47.355469 C 136.601562 47.355469 136.730469 47.332031 136.839844 47.289062 C 136.949219 47.246094 137.039062 47.191406 137.121094 47.125 C 137.199219 47.054688 137.265625 46.972656 137.316406 46.886719 C 137.375 46.800781 137.417969 46.714844 137.457031 46.628906 L 138.152344 46.886719 C 138.09375 47.027344 138.015625 47.164062 137.921875 47.300781 C 137.835938 47.429688 137.722656 47.546875 137.585938 47.644531 C 137.457031 47.75 137.296875 47.832031 137.109375 47.894531 C 136.921875 47.953125 136.699219 47.980469 136.449219 47.980469 C 136.117188 47.980469 135.824219 47.933594 135.582031 47.839844 C 135.34375 47.742188 135.140625 47.601562 134.984375 47.429688 C 134.824219 47.25 134.707031 47.039062 134.625 46.800781 C 134.554688 46.558594 134.519531 46.289062 134.519531 46 C 134.519531 45.703125 134.554688 45.4375 134.625 45.195312 C 134.707031 44.953125 134.820312 44.746094 134.972656 44.578125 C 135.132812 44.414062 135.332031 44.285156 135.570312 44.1875 C 135.808594 44.097656 136.089844 44.046875 136.417969 44.046875 C 136.660156 44.046875 136.878906 44.078125 137.066406 44.136719 C 137.253906 44.1875 137.417969 44.257812 137.554688 44.351562 C 137.691406 44.445312 137.804688 44.558594 137.890625 44.6875 C 137.976562 44.816406 138.046875 44.957031 138.097656 45.109375 L 137.390625 45.304688 C 137.371094 45.226562 137.328125 45.152344 137.273438 45.078125 C 137.222656 45 137.15625 44.929688 137.078125 44.871094 C 136.996094 44.816406 136.90625 44.769531 136.796875 44.730469 C 136.6875 44.695312 136.5625 44.675781 136.425781 44.675781 C 136.230469 44.675781 136.0625 44.710938 135.929688 44.773438 C 135.789062 44.839844 135.671875 44.929688 135.582031 45.046875 C 135.496094 45.160156 135.429688 45.300781 135.386719 45.457031 C 135.34375 45.617188 135.320312 45.796875 135.320312 46 C 135.320312 46.203125 135.34375 46.386719 135.386719 46.550781 C 135.429688 46.710938 135.496094 46.851562 135.582031 46.972656 C 135.671875 47.089844 135.789062 47.1875 135.929688 47.257812 C 136.070312 47.320312 136.246094 47.355469 136.449219 47.355469 Z M 136.449219 47.355469 "/>
<path style=" stroke:none;fill-rule:nonzero;fill:rgb(0%,0%,47.058824%);fill-opacity:1;" d="M 129.78125 45.382812 L 129.78125 44.957031 L 130.496094 44.957031 L 130.496094 43.007812 L 129.804688 43.429688 L 129.804688 42.988281 L 130.519531 42.519531 L 131.0625 42.519531 L 131.0625 44.957031 L 131.722656 44.957031 L 131.722656 45.382812 Z M 129.78125 45.382812 "/>
<path style=" stroke:none;fill-rule:nonzero;fill:rgb(0%,0%,47.058824%);fill-opacity:1;" d="M 133.941406 44.589844 C 133.941406 44.71875 133.917969 44.835938 133.875 44.9375 C 133.832031 45.039062 133.765625 45.128906 133.679688 45.207031 C 133.59375 45.28125 133.484375 45.335938 133.355469 45.371094 C 133.230469 45.40625 133.085938 45.425781 132.921875 45.425781 C 132.730469 45.425781 132.574219 45.402344 132.445312 45.359375 C 132.320312 45.3125 132.214844 45.25 132.128906 45.175781 C 132.046875 45.097656 131.988281 45.007812 131.945312 44.90625 C 131.90625 44.804688 131.882812 44.703125 131.867188 44.601562 L 132.445312 44.546875 C 132.457031 44.613281 132.476562 44.671875 132.496094 44.71875 C 132.519531 44.773438 132.546875 44.816406 132.585938 44.851562 C 132.621094 44.886719 132.664062 44.914062 132.714844 44.9375 C 132.773438 44.957031 132.839844 44.96875 132.921875 44.96875 C 133.054688 44.96875 133.164062 44.9375 133.234375 44.871094 C 133.3125 44.800781 133.355469 44.691406 133.355469 44.546875 C 133.355469 44.46875 133.335938 44.402344 133.300781 44.351562 C 133.261719 44.296875 133.214844 44.253906 133.160156 44.234375 C 133.109375 44.207031 133.050781 44.1875 132.984375 44.179688 C 132.921875 44.164062 132.859375 44.15625 132.800781 44.15625 L 132.605469 44.15625 L 132.605469 43.703125 L 132.789062 43.703125 C 132.847656 43.703125 132.90625 43.699219 132.964844 43.691406 C 133.019531 43.675781 133.074219 43.65625 133.117188 43.625 C 133.164062 43.597656 133.207031 43.558594 133.234375 43.507812 C 133.269531 43.457031 133.289062 43.394531 133.289062 43.3125 C 133.289062 43.191406 133.25 43.09375 133.179688 43.03125 C 133.117188 42.964844 133.019531 42.933594 132.898438 42.933594 C 132.78125 42.933594 132.6875 42.964844 132.617188 43.03125 C 132.542969 43.09375 132.5 43.1875 132.488281 43.300781 L 131.914062 43.269531 C 131.933594 43.132812 131.972656 43.015625 132.03125 42.921875 C 132.089844 42.820312 132.160156 42.738281 132.25 42.671875 C 132.335938 42.605469 132.433594 42.5625 132.542969 42.53125 C 132.65625 42.496094 132.78125 42.476562 132.910156 42.476562 C 133.074219 42.476562 133.214844 42.5 133.332031 42.542969 C 133.453125 42.578125 133.554688 42.632812 133.636719 42.703125 C 133.714844 42.769531 133.773438 42.851562 133.808594 42.941406 C 133.84375 43.039062 133.863281 43.136719 133.863281 43.234375 C 133.863281 43.324219 133.847656 43.402344 133.820312 43.472656 C 133.800781 43.546875 133.761719 43.613281 133.710938 43.667969 C 133.667969 43.730469 133.605469 43.777344 133.527344 43.820312 C 133.445312 43.859375 133.359375 43.886719 133.257812 43.90625 L 133.257812 43.917969 C 133.371094 43.933594 133.472656 43.960938 133.5625 44.003906 C 133.648438 44.042969 133.714844 44.089844 133.765625 44.144531 C 133.824219 44.207031 133.867188 44.273438 133.898438 44.351562 C 133.925781 44.425781 133.941406 44.503906 133.941406 44.589844 Z M 133.941406 44.589844 "/>
<path style=" stroke:none;fill-rule:nonzero;fill:rgb(0%,0%,47.058824%);fill-opacity:1;" d="M 136.449219 30.015625 C 136.601562 30.015625 136.730469 29.992188 136.839844 29.949219 C 136.949219 29.90625 137.039062 29.851562 137.121094 29.789062 C 137.199219 29.71875 137.265625 29.636719 137.316406 29.550781 C 137.375 29.460938 137.417969 29.375 137.457031 29.289062 L 138.152344 29.550781 C 138.09375 29.6875 138.015625 29.824219 137.921875 29.960938 C 137.835938 30.089844 137.722656 30.207031 137.585938 30.308594 C 137.457031 30.410156 137.296875 30.492188 137.109375 30.558594 C 136.921875 30.613281 136.699219 30.644531 136.449219 30.644531 C 136.117188 30.644531 135.824219 30.59375 135.582031 30.503906 C 135.34375 30.402344 135.140625 30.265625 134.984375 30.089844 C 134.824219 29.910156 134.707031 29.699219 134.625 29.460938 C 134.554688 29.21875 134.519531 28.949219 134.519531 28.660156 C 134.519531 28.363281 134.554688 28.097656 134.625 27.859375 C 134.707031 27.613281 134.820312 27.410156 134.972656 27.242188 C 135.132812 27.074219 135.332031 26.945312 135.570312 26.851562 C 135.808594 26.757812 136.089844 26.710938 136.417969 26.710938 C 136.660156 26.710938 136.878906 26.738281 137.066406 26.796875 C 137.253906 26.847656 137.417969 26.921875 137.554688 27.011719 C 137.691406 27.109375 137.804688 27.21875 137.890625 27.347656 C 137.976562 27.480469 138.046875 27.621094 138.097656 27.773438 L 137.390625 27.96875 C 137.371094 27.886719 137.328125 27.8125 137.273438 27.738281 C 137.222656 27.660156 137.15625 27.59375 137.078125 27.535156 C 136.996094 27.476562 136.90625 27.429688 136.796875 27.390625 C 136.6875 27.355469 136.5625 27.339844 136.425781 27.339844 C 136.230469 27.339844 136.0625 27.371094 135.929688 27.4375 C 135.789062 27.5 135.671875 27.59375 135.582031 27.707031 C 135.496094 27.824219 135.429688 27.960938 135.386719 28.117188 C 135.34375 28.277344 135.320312 28.460938 135.320312 28.660156 C 135.320312 28.863281 135.34375 29.046875 135.386719 29.214844 C 135.429688 29.371094 135.496094 29.515625 135.582031 29.636719 C 135.671875 29.753906 135.789062 29.847656 135.929688 29.917969 C 136.070312 29.984375 136.246094 30.015625 136.449219 30.015625 Z M 136.449219 30.015625 "/>
<path style=" stroke:none;fill-rule:nonzero;fill:rgb(0%,0%,47.058824%);fill-opacity:1;" d="M 129.78125 28.042969 L 129.78125 27.621094 L 130.496094 27.621094 L 130.496094 25.667969 L 129.804688 26.09375 L 129.804688 25.648438 L 130.519531 25.183594 L 131.0625 25.183594 L 131.0625 27.621094 L 131.722656 27.621094 L 131.722656 28.042969 Z M 129.78125 28.042969 "/>
<path style=" stroke:none;fill-rule:nonzero;fill:rgb(0%,0%,47.058824%);fill-opacity:1;" d="M 133.941406 27.25 C 133.941406 27.382812 133.917969 27.5 133.875 27.597656 C 133.832031 27.703125 133.765625 27.789062 133.679688 27.871094 C 133.59375 27.941406 133.484375 27.996094 133.355469 28.03125 C 133.230469 28.066406 133.085938 28.085938 132.921875 28.085938 C 132.730469 28.085938 132.574219 28.0625 132.445312 28.019531 C 132.320312 27.972656 132.214844 27.910156 132.128906 27.835938 C 132.046875 27.757812 131.988281 27.667969 131.945312 27.566406 C 131.90625 27.464844 131.882812 27.367188 131.867188 27.261719 L 132.445312 27.207031 C 132.457031 27.273438 132.476562 27.332031 132.496094 27.382812 C 132.519531 27.433594 132.546875 27.476562 132.585938 27.511719 C 132.621094 27.550781 132.664062 27.578125 132.714844 27.597656 C 132.773438 27.621094 132.839844 27.632812 132.921875 27.632812 C 133.054688 27.632812 133.164062 27.597656 133.234375 27.535156 C 133.3125 27.460938 133.355469 27.355469 133.355469 27.207031 C 133.355469 27.128906 133.335938 27.066406 133.300781 27.011719 C 133.261719 26.957031 133.214844 26.914062 133.160156 26.894531 C 133.109375 26.867188 133.050781 26.847656 132.984375 26.839844 C 132.921875 26.828125 132.859375 26.816406 132.800781 26.816406 L 132.605469 26.816406 L 132.605469 26.363281 L 132.789062 26.363281 C 132.847656 26.363281 132.90625 26.359375 132.964844 26.351562 C 133.019531 26.339844 133.074219 26.316406 133.117188 26.289062 C 133.164062 26.261719 133.207031 26.21875 133.234375 26.167969 C 133.269531 26.117188 133.289062 26.054688 133.289062 25.972656 C 133.289062 25.851562 133.25 25.757812 133.179688 25.691406 C 133.117188 25.625 133.019531 25.59375 132.898438 25.59375 C 132.78125 25.59375 132.6875 25.625 132.617188 25.691406 C 132.542969 25.757812 132.5 25.847656 132.488281 25.960938 L 131.914062 25.929688 C 131.933594 25.792969 131.972656 25.675781 132.03125 25.582031 C 132.089844 25.484375 132.160156 25.398438 132.25 25.332031 C 132.335938 25.269531 132.433594 25.222656 132.542969 25.191406 C 132.65625 25.15625 132.78125 25.136719 132.910156 25.136719 C 133.074219 25.136719 133.214844 25.160156 133.332031 25.203125 C 133.453125 25.242188 133.554688 25.296875 133.636719 25.367188 C 133.714844 25.429688 133.773438 25.511719 133.808594 25.605469 C 133.84375 25.699219 133.863281 25.796875 133.863281 25.898438 C 133.863281 25.984375 133.847656 26.066406 133.820312 26.136719 C 133.800781 26.207031 133.761719 26.273438 133.710938 26.332031 C 133.667969 26.390625 133.605469 26.4375 133.527344 26.480469 C 133.445312 26.519531 133.359375 26.546875 133.257812 26.570312 L 133.257812 26.578125 C 133.371094 26.597656 133.472656 26.625 133.5625 26.667969 C 133.648438 26.703125 133.714844 26.75 133.765625 26.808594 C 133.824219 26.867188 133.867188 26.933594 133.898438 27.011719 C 133.925781 27.085938 133.941406 27.164062 133.941406 27.25 Z M 133.941406 27.25 "/>
<path style=" stroke:none;fill-rule:nonzero;fill:rgb(0%,0%,47.058824%);fill-opacity:1;" d="M 153.292969 19.992188 C 153.292969 20.289062 153.242188 20.558594 153.148438 20.804688 C 153.0625 21.050781 152.9375 21.257812 152.769531 21.433594 C 152.601562 21.605469 152.402344 21.742188 152.164062 21.832031 C 151.925781 21.925781 151.652344 21.972656 151.351562 21.972656 C 151.03125 21.972656 150.753906 21.925781 150.515625 21.832031 C 150.277344 21.734375 150.074219 21.59375 149.90625 21.421875 C 149.746094 21.242188 149.628906 21.03125 149.550781 20.792969 C 149.46875 20.550781 149.429688 20.28125 149.429688 19.992188 C 149.429688 19.695312 149.46875 19.425781 149.550781 19.1875 C 149.636719 18.945312 149.761719 18.738281 149.929688 18.570312 C 150.09375 18.40625 150.296875 18.277344 150.535156 18.179688 C 150.773438 18.089844 151.050781 18.039062 151.359375 18.039062 C 151.667969 18.039062 151.945312 18.089844 152.183594 18.179688 C 152.421875 18.277344 152.621094 18.410156 152.78125 18.582031 C 152.945312 18.75 153.074219 18.949219 153.160156 19.1875 C 153.246094 19.425781 153.292969 19.695312 153.292969 19.992188 Z M 152.476562 19.992188 C 152.476562 19.789062 152.449219 19.609375 152.402344 19.449219 C 152.351562 19.292969 152.277344 19.152344 152.183594 19.039062 C 152.089844 18.921875 151.972656 18.832031 151.839844 18.765625 C 151.699219 18.703125 151.539062 18.667969 151.359375 18.667969 C 151.171875 18.667969 151.003906 18.703125 150.863281 18.765625 C 150.722656 18.832031 150.605469 18.921875 150.515625 19.039062 C 150.421875 19.152344 150.347656 19.292969 150.296875 19.449219 C 150.253906 19.609375 150.234375 19.789062 150.234375 19.992188 C 150.234375 20.195312 150.257812 20.378906 150.308594 20.542969 C 150.359375 20.703125 150.429688 20.84375 150.527344 20.964844 C 150.617188 21.082031 150.734375 21.175781 150.871094 21.25 C 151.007812 21.3125 151.167969 21.34375 151.351562 21.34375 C 151.546875 21.34375 151.710938 21.3125 151.847656 21.25 C 151.992188 21.175781 152.113281 21.082031 152.207031 20.964844 C 152.296875 20.84375 152.371094 20.699219 152.414062 20.53125 C 152.457031 20.367188 152.476562 20.1875 152.476562 19.992188 Z M 152.476562 19.992188 "/>
<path style="fill:none;stroke-width:0.06;stroke-linecap:butt;stroke-linejoin:miter;stroke:rgb(0%,0%,47.058824%);stroke-opacity:1;stroke-miterlimit:10;" d="M 0.880954 3.920607 L -0.0150181 4.4381 " transform="matrix(17.351974,0,0,17.33871,17.299655,17.010011)"/>
<path style="fill:none;stroke-width:0.06;stroke-linecap:butt;stroke-linejoin:miter;stroke:rgb(0%,0%,47.058824%);stroke-opacity:1;stroke-miterlimit:10;" d="M 0.851013 3.920607 L 1.731901 4.429314 " transform="matrix(17.351974,0,0,17.33871,17.299655,17.010011)"/>
<path style="fill:none;stroke-width:0.06;stroke-linecap:butt;stroke-linejoin:miter;stroke:rgb(0%,0%,47.058824%);stroke-opacity:1;stroke-miterlimit:10;" d="M 0.851013 4.113231 L 1.565314 4.525513 " transform="matrix(17.351974,0,0,17.33871,17.299655,17.010011)"/>
<path style="fill:none;stroke-width:0.06;stroke-linecap:butt;stroke-linejoin:miter;stroke:rgb(0%,0%,47.058824%);stroke-opacity:1;stroke-miterlimit:10;" d="M 0.000064883 4.411966 L 0.000064883 5.446726 " transform="matrix(17.351974,0,0,17.33871,17.299655,17.010011)"/>
<path style="fill:none;stroke-width:0.06;stroke-linecap:butt;stroke-linejoin:miter;stroke:rgb(0%,0%,47.058824%);stroke-opacity:1;stroke-miterlimit:10;" d="M 0.166653 4.508165 L 0.166653 5.350302 " transform="matrix(17.351974,0,0,17.33871,17.299655,17.010011)"/>
<path style="fill:none;stroke-width:0.06;stroke-linecap:butt;stroke-linejoin:miter;stroke:rgb(0%,0%,47.058824%);stroke-opacity:1;stroke-miterlimit:10;" d="M -0.0150181 5.420593 L 0.880954 5.938085 " transform="matrix(17.351974,0,0,17.33871,17.299655,17.010011)"/>
<path style="fill:none;stroke-width:0.06;stroke-linecap:butt;stroke-linejoin:miter;stroke:rgb(0%,0%,47.058824%);stroke-opacity:1;stroke-miterlimit:10;" d="M 0.851013 5.938085 L 1.746984 5.420593 " transform="matrix(17.351974,0,0,17.33871,17.299655,17.010011)"/>
<path style="fill:none;stroke-width:0.06;stroke-linecap:butt;stroke-linejoin:miter;stroke:rgb(0%,0%,47.058824%);stroke-opacity:1;stroke-miterlimit:10;" d="M 0.851013 5.745462 L 1.580397 5.324394 " transform="matrix(17.351974,0,0,17.33871,17.299655,17.010011)"/>
<path style="fill:none;stroke-width:0.06;stroke-linecap:butt;stroke-linejoin:miter;stroke:rgb(0%,0%,47.058824%);stroke-opacity:1;stroke-miterlimit:10;" d="M 1.731901 5.446726 L 1.731901 4.411966 " transform="matrix(17.351974,0,0,17.33871,17.299655,17.010011)"/>
<path style="fill:none;stroke-width:0.06;stroke-linecap:butt;stroke-linejoin:miter;stroke:rgb(0%,0%,47.058824%);stroke-opacity:1;stroke-miterlimit:10;" d="M 1.716818 4.4381 L 2.414235 4.035505 " transform="matrix(17.351974,0,0,17.33871,17.299655,17.010011)"/>
<path style="fill:none;stroke-width:0.06;stroke-linecap:butt;stroke-linejoin:miter;stroke:rgb(0%,0%,47.058824%);stroke-opacity:1;stroke-miterlimit:10;" d="M 0.892885 -0.00868783 L -0.00308678 0.50858 " transform="matrix(17.351974,0,0,17.33871,17.299655,17.010011)"/>
<path style="fill:none;stroke-width:0.06;stroke-linecap:butt;stroke-linejoin:miter;stroke:rgb(0%,0%,47.058824%);stroke-opacity:1;stroke-miterlimit:10;" d="M 0.862944 -0.00868783 L 1.744058 0.500019 " transform="matrix(17.351974,0,0,17.33871,17.299655,17.010011)"/>
<path style="fill:none;stroke-width:0.06;stroke-linecap:butt;stroke-linejoin:miter;stroke:rgb(0%,0%,47.058824%);stroke-opacity:1;stroke-miterlimit:10;" d="M 0.862944 0.18371 L 1.57747 0.596218 " transform="matrix(17.351974,0,0,17.33871,17.299655,17.010011)"/>
<path style="fill:none;stroke-width:0.06;stroke-linecap:butt;stroke-linejoin:miter;stroke:rgb(0%,0%,47.058824%);stroke-opacity:1;stroke-miterlimit:10;" d="M 0.0119962 0.482671 L 0.0119962 1.517206 " transform="matrix(17.351974,0,0,17.33871,17.299655,17.010011)"/>
<path style="fill:none;stroke-width:0.06;stroke-linecap:butt;stroke-linejoin:miter;stroke:rgb(0%,0%,47.058824%);stroke-opacity:1;stroke-miterlimit:10;" d="M 0.178584 0.57887 L 0.178584 1.421232 " transform="matrix(17.351974,0,0,17.33871,17.299655,17.010011)"/>
<path style="fill:none;stroke-width:0.06;stroke-linecap:butt;stroke-linejoin:miter;stroke:rgb(0%,0%,47.058824%);stroke-opacity:1;stroke-miterlimit:10;" d="M -0.00308678 1.491298 L 0.892885 2.008565 " transform="matrix(17.351974,0,0,17.33871,17.299655,17.010011)"/>
<path style="fill:none;stroke-width:0.06;stroke-linecap:butt;stroke-linejoin:miter;stroke:rgb(0%,0%,47.058824%);stroke-opacity:1;stroke-miterlimit:10;" d="M 0.862944 2.008565 L 1.758916 1.491298 " transform="matrix(17.351974,0,0,17.33871,17.299655,17.010011)"/>
<path style="fill:none;stroke-width:0.06;stroke-linecap:butt;stroke-linejoin:miter;stroke:rgb(0%,0%,47.058824%);stroke-opacity:1;stroke-miterlimit:10;" d="M 0.862944 1.816167 L 1.592328 1.395099 " transform="matrix(17.351974,0,0,17.33871,17.299655,17.010011)"/>
<path style="fill:none;stroke-width:0.06;stroke-linecap:butt;stroke-linejoin:miter;stroke:rgb(0%,0%,47.058824%);stroke-opacity:1;stroke-miterlimit:10;" d="M 1.744058 1.517206 L 1.744058 0.482671 " transform="matrix(17.351974,0,0,17.33871,17.299655,17.010011)"/>
<path style="fill:none;stroke-width:0.06;stroke-linecap:butt;stroke-linejoin:miter;stroke:rgb(0%,0%,47.058824%);stroke-opacity:1;stroke-miterlimit:10;" d="M 1.728975 0.50858 L 2.426167 0.10621 " transform="matrix(17.351974,0,0,17.33871,17.299655,17.010011)"/>
<path style="fill:none;stroke-width:0.0333333;stroke-linecap:butt;stroke-linejoin:miter;stroke:rgb(0%,0%,0%);stroke-opacity:1;stroke-miterlimit:10;" d="M 2.781854 4.035505 L 3.253702 4.307882 " transform="matrix(17.351974,0,0,17.33871,17.299655,17.010011)"/>
<path style="fill:none;stroke-width:0.06;stroke-linecap:butt;stroke-linejoin:miter;stroke:rgb(0%,0%,47.058824%);stroke-opacity:1;stroke-miterlimit:10;" d="M 5.951072 3.949219 L 5.0551 4.466712 " transform="matrix(17.351974,0,0,17.33871,17.299655,17.010011)"/>
<path style="fill:none;stroke-width:0.06;stroke-linecap:butt;stroke-linejoin:miter;stroke:rgb(0%,0%,47.058824%);stroke-opacity:1;stroke-miterlimit:10;" d="M 5.921131 3.949219 L 6.80202 4.457926 " transform="matrix(17.351974,0,0,17.33871,17.299655,17.010011)"/>
<path style="fill:none;stroke-width:0.06;stroke-linecap:butt;stroke-linejoin:miter;stroke:rgb(0%,0%,47.058824%);stroke-opacity:1;stroke-miterlimit:10;" d="M 5.921131 4.141843 L 6.635432 4.554125 " transform="matrix(17.351974,0,0,17.33871,17.299655,17.010011)"/>
<path style="fill:none;stroke-width:0.06;stroke-linecap:butt;stroke-linejoin:miter;stroke:rgb(0%,0%,47.058824%);stroke-opacity:1;stroke-miterlimit:10;" d="M 5.069958 4.440578 L 5.069958 5.475113 " transform="matrix(17.351974,0,0,17.33871,17.299655,17.010011)"/>
<path style="fill:none;stroke-width:0.06;stroke-linecap:butt;stroke-linejoin:miter;stroke:rgb(0%,0%,47.058824%);stroke-opacity:1;stroke-miterlimit:10;" d="M 5.236771 4.536777 L 5.236771 5.378914 " transform="matrix(17.351974,0,0,17.33871,17.299655,17.010011)"/>
<path style="fill:none;stroke-width:0.06;stroke-linecap:butt;stroke-linejoin:miter;stroke:rgb(0%,0%,47.058824%);stroke-opacity:1;stroke-miterlimit:10;" d="M 5.0551 5.449205 L 5.951072 5.966697 " transform="matrix(17.351974,0,0,17.33871,17.299655,17.010011)"/>
<path style="fill:none;stroke-width:0.06;stroke-linecap:butt;stroke-linejoin:miter;stroke:rgb(0%,0%,47.058824%);stroke-opacity:1;stroke-miterlimit:10;" d="M 5.921131 5.966697 L 6.817103 5.449205 " transform="matrix(17.351974,0,0,17.33871,17.299655,17.010011)"/>
<path style="fill:none;stroke-width:0.06;stroke-linecap:butt;stroke-linejoin:miter;stroke:rgb(0%,0%,47.058824%);stroke-opacity:1;stroke-miterlimit:10;" d="M 5.921131 5.774074 L 6.650515 5.353005 " transform="matrix(17.351974,0,0,17.33871,17.299655,17.010011)"/>
<path style="fill:none;stroke-width:0.06;stroke-linecap:butt;stroke-linejoin:miter;stroke:rgb(0%,0%,47.058824%);stroke-opacity:1;stroke-miterlimit:10;" d="M 6.80202 5.475113 L 6.80202 4.440578 " transform="matrix(17.351974,0,0,17.33871,17.299655,17.010011)"/>
<path style="fill:none;stroke-width:0.06;stroke-linecap:butt;stroke-linejoin:miter;stroke:rgb(0%,0%,47.058824%);stroke-opacity:1;stroke-miterlimit:10;" d="M 6.787162 4.466712 L 7.484354 4.064117 " transform="matrix(17.351974,0,0,17.33871,17.299655,17.010011)"/>
<path style="fill:none;stroke-width:0.06;stroke-linecap:butt;stroke-linejoin:miter;stroke:rgb(0%,0%,47.058824%);stroke-opacity:1;stroke-miterlimit:10;" d="M 5.8151 0.276305 L 5.307008 0.569633 " transform="matrix(17.351974,0,0,17.33871,17.299655,17.010011)"/>
<path style="fill:none;stroke-width:0.06;stroke-linecap:butt;stroke-linejoin:miter;stroke:rgb(0%,0%,47.058824%);stroke-opacity:1;stroke-miterlimit:10;" d="M 6.131392 0.348398 L 6.395456 0.50092 " transform="matrix(17.351974,0,0,17.33871,17.299655,17.010011)"/>
<path style="fill:none;stroke-width:0.06;stroke-linecap:butt;stroke-linejoin:miter;stroke:rgb(0%,0%,47.058824%);stroke-opacity:1;stroke-miterlimit:10;" d="M 6.214686 0.204212 L 6.47875 0.356508 " transform="matrix(17.351974,0,0,17.33871,17.299655,17.010011)"/>
<path style="fill:none;stroke-width:0.06;stroke-linecap:butt;stroke-linejoin:miter;stroke:rgb(0%,0%,47.058824%);stroke-opacity:1;stroke-miterlimit:10;" d="M 5.04452 0.829844 L 5.04452 1.425513 " transform="matrix(17.351974,0,0,17.33871,17.299655,17.010011)"/>
<path style="fill:none;stroke-width:0.06;stroke-linecap:butt;stroke-linejoin:miter;stroke:rgb(0%,0%,47.058824%);stroke-opacity:1;stroke-miterlimit:10;" d="M 5.211333 0.829844 L 5.211333 1.425513 " transform="matrix(17.351974,0,0,17.33871,17.299655,17.010011)"/>
<path style="fill:none;stroke-width:0.06;stroke-linecap:butt;stroke-linejoin:miter;stroke:rgb(0%,0%,47.058824%);stroke-opacity:1;stroke-miterlimit:10;" d="M 5.307008 1.77629 L 5.571072 1.928812 " transform="matrix(17.351974,0,0,17.33871,17.299655,17.010011)"/>
<path style="fill:none;stroke-width:0.06;stroke-linecap:butt;stroke-linejoin:miter;stroke:rgb(0%,0%,47.058824%);stroke-opacity:1;stroke-miterlimit:10;" d="M 6.214686 2.141712 L 6.610894 1.913042 " transform="matrix(17.351974,0,0,17.33871,17.299655,17.010011)"/>
<path style="fill:none;stroke-width:0.06;stroke-linecap:butt;stroke-linejoin:miter;stroke:rgb(0%,0%,47.058824%);stroke-opacity:1;stroke-miterlimit:10;" d="M 6.131392 1.997526 L 6.5276 1.76863 " transform="matrix(17.351974,0,0,17.33871,17.299655,17.010011)"/>
<path style="fill:none;stroke-width:0.06;stroke-linecap:butt;stroke-linejoin:miter;stroke:rgb(0%,0%,47.058824%);stroke-opacity:1;stroke-miterlimit:10;" d="M 6.8601 1.425513 L 6.8601 0.829844 " transform="matrix(17.351974,0,0,17.33871,17.299655,17.010011)"/>
<path style="fill:none;stroke-width:0.06;stroke-linecap:butt;stroke-linejoin:miter;stroke:rgb(0%,0%,47.058824%);stroke-opacity:1;stroke-miterlimit:10;" d="M 7.038845 0.569633 L 7.542209 0.279008 " transform="matrix(17.351974,0,0,17.33871,17.299655,17.010011)"/>
</g>
</svg>
