<?xml version="1.0" encoding="UTF-8"?>
<svg xmlns="http://www.w3.org/2000/svg" xmlns:xlink="http://www.w3.org/1999/xlink" width="139.2pt" height="120pt" viewBox="0 0 139.2 120" version="1.1">
<g id="surface1182">
<path style=" stroke:none;fill-rule:nonzero;fill:rgb(0%,0%,47.058824%);fill-opacity:1;" d="M 62.769531 53.398438 L 61.101562 50.472656 C 61.113281 50.550781 61.125 50.632812 61.132812 50.710938 C 61.140625 50.773438 61.144531 50.847656 61.144531 50.925781 C 61.148438 51.007812 61.15625 51.082031 61.15625 51.152344 L 61.15625 53.398438 L 60.441406 53.398438 L 60.441406 49.597656 L 61.363281 49.597656 L 63.039062 52.546875 C 63.03125 52.476562 63.023438 52.394531 63.019531 52.308594 C 63.011719 52.238281 63.003906 52.15625 62.996094 52.070312 C 62.996094 51.984375 62.996094 51.894531 62.996094 51.800781 L 62.996094 49.597656 L 63.699219 49.597656 L 63.699219 53.398438 Z M 62.769531 53.398438 "/>
<path style=" stroke:none;fill-rule:nonzero;fill:rgb(0%,0%,47.058824%);fill-opacity:1;" d="M 77.78125 44.757812 L 76.113281 41.832031 C 76.125 41.910156 76.136719 41.992188 76.144531 42.070312 C 76.148438 42.132812 76.15625 42.207031 76.15625 42.285156 C 76.160156 42.367188 76.164062 42.441406 76.164062 42.511719 L 76.164062 44.757812 L 75.449219 44.757812 L 75.449219 40.957031 L 76.371094 40.957031 L 78.050781 43.90625 C 78.042969 43.835938 78.035156 43.753906 78.027344 43.667969 C 78.019531 43.597656 78.011719 43.515625 78.007812 43.429688 C 78.007812 43.34375 78.007812 43.253906 78.007812 43.160156 L 78.007812 40.957031 L 78.710938 40.957031 L 78.710938 44.757812 Z M 77.78125 44.757812 "/>
<path style=" stroke:none;fill-rule:nonzero;fill:rgb(0%,0%,47.058824%);fill-opacity:1;" d="M 108.929688 25.402344 C 108.929688 25.699219 108.882812 25.96875 108.789062 26.210938 C 108.703125 26.457031 108.578125 26.664062 108.410156 26.835938 C 108.242188 27.011719 108.042969 27.144531 107.804688 27.238281 C 107.566406 27.328125 107.296875 27.378906 106.992188 27.378906 C 106.671875 27.378906 106.398438 27.328125 106.160156 27.238281 C 105.921875 27.136719 105.71875 27 105.550781 26.828125 C 105.390625 26.648438 105.273438 26.4375 105.195312 26.199219 C 105.113281 25.957031 105.074219 25.6875 105.074219 25.402344 C 105.074219 25.105469 105.113281 24.839844 105.195312 24.601562 C 105.28125 24.359375 105.40625 24.152344 105.574219 23.984375 C 105.738281 23.820312 105.941406 23.691406 106.179688 23.597656 C 106.417969 23.503906 106.691406 23.457031 107.003906 23.457031 C 107.3125 23.457031 107.589844 23.503906 107.828125 23.597656 C 108.066406 23.691406 108.261719 23.824219 108.421875 23.996094 C 108.585938 24.164062 108.714844 24.363281 108.800781 24.601562 C 108.886719 24.839844 108.929688 25.105469 108.929688 25.402344 Z M 108.117188 25.402344 C 108.117188 25.199219 108.09375 25.019531 108.042969 24.859375 C 107.992188 24.703125 107.917969 24.566406 107.828125 24.449219 C 107.730469 24.335938 107.617188 24.246094 107.480469 24.179688 C 107.34375 24.117188 107.183594 24.082031 107.003906 24.082031 C 106.8125 24.082031 106.648438 24.117188 106.503906 24.179688 C 106.367188 24.246094 106.25 24.335938 106.160156 24.449219 C 106.0625 24.566406 105.992188 24.703125 105.941406 24.859375 C 105.898438 25.019531 105.875 25.199219 105.875 25.402344 C 105.875 25.601562 105.902344 25.785156 105.953125 25.953125 C 106 26.109375 106.074219 26.25 106.167969 26.371094 C 106.261719 26.488281 106.378906 26.582031 106.515625 26.652344 C 106.652344 26.71875 106.8125 26.75 106.992188 26.75 C 107.1875 26.75 107.351562 26.71875 107.492188 26.652344 C 107.632812 26.582031 107.753906 26.488281 107.847656 26.371094 C 107.941406 26.25 108.011719 26.109375 108.054688 25.941406 C 108.097656 25.777344 108.117188 25.59375 108.117188 25.402344 Z M 108.117188 25.402344 "/>
<path style="fill:none;stroke-width:0.0333333;stroke-linecap:butt;stroke-linejoin:miter;stroke:rgb(0%,0%,0%);stroke-opacity:1;stroke-miterlimit:10;" d="M 0.874305 -0.00473305 L -0.00834206 0.504765 " transform="matrix(17.330677,0,0,17.281106,17.046917,16.937261)"/>
<path style="fill:none;stroke-width:0.0333333;stroke-linecap:butt;stroke-linejoin:miter;stroke:rgb(0%,0%,0%);stroke-opacity:1;stroke-miterlimit:10;" d="M 0.874305 0.187628 L 0.15845 0.601059 " transform="matrix(17.330677,0,0,17.281106,17.046917,16.937261)"/>
<path style="fill:none;stroke-width:0.0333333;stroke-linecap:butt;stroke-linejoin:miter;stroke:rgb(0%,0%,0%);stroke-opacity:1;stroke-miterlimit:10;" d="M 0.857851 -0.00473305 L 1.740499 0.504765 " transform="matrix(17.330677,0,0,17.281106,17.046917,16.937261)"/>
<path style="fill:none;stroke-width:0.0333333;stroke-linecap:butt;stroke-linejoin:miter;stroke:rgb(0%,0%,0%);stroke-opacity:1;stroke-miterlimit:10;" d="M -0.00000243839 0.490298 L -0.00000243839 1.50952 " transform="matrix(17.330677,0,0,17.281106,17.046917,16.937261)"/>
<path style="fill:none;stroke-width:0.0333333;stroke-linecap:butt;stroke-linejoin:miter;stroke:rgb(0%,0%,0%);stroke-opacity:1;stroke-miterlimit:10;" d="M -0.00834206 1.495279 L 0.874305 2.004777 " transform="matrix(17.330677,0,0,17.281106,17.046917,16.937261)"/>
<path style="fill:none;stroke-width:0.0333333;stroke-linecap:butt;stroke-linejoin:miter;stroke:rgb(0%,0%,0%);stroke-opacity:1;stroke-miterlimit:10;" d="M 0.15845 1.398986 L 0.874305 1.812416 " transform="matrix(17.330677,0,0,17.281106,17.046917,16.937261)"/>
<path style="fill:none;stroke-width:0.0333333;stroke-linecap:butt;stroke-linejoin:miter;stroke:rgb(0%,0%,0%);stroke-opacity:1;stroke-miterlimit:10;" d="M 0.857851 2.004777 L 1.740499 1.495279 " transform="matrix(17.330677,0,0,17.281106,17.046917,16.937261)"/>
<path style="fill:none;stroke-width:0.0333333;stroke-linecap:butt;stroke-linejoin:miter;stroke:rgb(0%,0%,0%);stroke-opacity:1;stroke-miterlimit:10;" d="M 1.732159 1.4998 L 1.732159 0.490298 " transform="matrix(17.330677,0,0,17.281106,17.046917,16.937261)"/>
<path style="fill:none;stroke-width:0.0333333;stroke-linecap:butt;stroke-linejoin:miter;stroke:rgb(0%,0%,0%);stroke-opacity:1;stroke-miterlimit:10;" d="M 1.565367 1.403733 L 1.565367 0.586592 " transform="matrix(17.330677,0,0,17.281106,17.046917,16.937261)"/>
<path style="fill:none;stroke-width:0.0333333;stroke-linecap:butt;stroke-linejoin:miter;stroke:rgb(0%,0%,0%);stroke-opacity:1;stroke-miterlimit:10;" d="M 1.723819 1.495279 L 2.42863 1.902154 " transform="matrix(17.330677,0,0,17.281106,17.046917,16.937261)"/>
<path style="fill:none;stroke-width:0.06;stroke-linecap:butt;stroke-linejoin:miter;stroke:rgb(0%,0%,47.058824%);stroke-opacity:1;stroke-miterlimit:10;" d="M 2.767399 1.902154 L 3.294598 1.597902 " transform="matrix(17.330677,0,0,17.281106,17.046917,16.937261)"/>
<path style="fill:none;stroke-width:0.06;stroke-linecap:butt;stroke-linejoin:miter;stroke:rgb(0%,0%,47.058824%);stroke-opacity:1;stroke-miterlimit:10;" d="M 3.591894 1.67001 L 4.33119 2.096776 " transform="matrix(17.330677,0,0,17.281106,17.046917,16.937261)"/>
<path style="fill:none;stroke-width:0.06;stroke-linecap:butt;stroke-linejoin:miter;stroke:rgb(0%,0%,47.058824%);stroke-opacity:1;stroke-miterlimit:10;" d="M 3.675065 1.525569 L 4.412558 1.951205 " transform="matrix(17.330677,0,0,17.281106,17.046917,16.937261)"/>
<path style="fill:none;stroke-width:0.06;stroke-linecap:butt;stroke-linejoin:miter;stroke:rgb(0%,0%,47.058824%);stroke-opacity:1;stroke-miterlimit:10;" d="M 5.198961 1.485786 L 4.321949 2.005003 " transform="matrix(17.330677,0,0,17.281106,17.046917,16.937261)"/>
<path style="fill:none;stroke-width:0.0333333;stroke-linecap:butt;stroke-linejoin:miter;stroke:rgb(0%,0%,0%);stroke-opacity:1;stroke-miterlimit:10;" d="M 4.330063 1.990311 L 4.340882 3.009533 " transform="matrix(17.330677,0,0,17.281106,17.046917,16.937261)"/>
<path style="fill:none;stroke-width:0.0333333;stroke-linecap:butt;stroke-linejoin:miter;stroke:rgb(0%,0%,0%);stroke-opacity:1;stroke-miterlimit:10;" d="M 6.072818 2.990997 L 6.061999 1.971775 " transform="matrix(17.330677,0,0,17.281106,17.046917,16.937261)"/>
<path style="fill:none;stroke-width:0.0333333;stroke-linecap:butt;stroke-linejoin:miter;stroke:rgb(0%,0%,0%);stroke-opacity:1;stroke-miterlimit:10;" d="M 5.905124 2.896512 L 5.896334 2.069651 " transform="matrix(17.330677,0,0,17.281106,17.046917,16.937261)"/>
<path style="fill:none;stroke-width:0.0333333;stroke-linecap:butt;stroke-linejoin:miter;stroke:rgb(0%,0%,0%);stroke-opacity:1;stroke-miterlimit:10;" d="M 6.081158 2.97653 L 5.20392 3.495522 " transform="matrix(17.330677,0,0,17.281106,17.046917,16.937261)"/>
<path style="fill:none;stroke-width:0.0333333;stroke-linecap:butt;stroke-linejoin:miter;stroke:rgb(0%,0%,0%);stroke-opacity:1;stroke-miterlimit:10;" d="M 6.070339 1.986242 L 5.182282 1.486012 " transform="matrix(17.330677,0,0,17.281106,17.046917,16.937261)"/>
<path style="fill:none;stroke-width:0.0333333;stroke-linecap:butt;stroke-linejoin:miter;stroke:rgb(0%,0%,0%);stroke-opacity:1;stroke-miterlimit:10;" d="M 5.222853 4.500277 L 5.21226 3.490775 " transform="matrix(17.330677,0,0,17.281106,17.046917,16.937261)"/>
<path style="fill:none;stroke-width:0.0333333;stroke-linecap:butt;stroke-linejoin:miter;stroke:rgb(0%,0%,0%);stroke-opacity:1;stroke-miterlimit:10;" d="M 5.055385 4.405792 L 5.046594 3.588651 " transform="matrix(17.330677,0,0,17.281106,17.046917,16.937261)"/>
<path style="fill:none;stroke-width:0.0333333;stroke-linecap:butt;stroke-linejoin:miter;stroke:rgb(0%,0%,0%);stroke-opacity:1;stroke-miterlimit:10;" d="M 4.332542 2.995292 L 5.220599 3.495296 " transform="matrix(17.330677,0,0,17.281106,17.046917,16.937261)"/>
<path style="fill:none;stroke-width:0.0333333;stroke-linecap:butt;stroke-linejoin:miter;stroke:rgb(0%,0%,0%);stroke-opacity:1;stroke-miterlimit:10;" d="M 4.340657 2.999813 L 3.471759 3.514058 " transform="matrix(17.330677,0,0,17.281106,17.046917,16.937261)"/>
<path style="fill:none;stroke-width:0.0333333;stroke-linecap:butt;stroke-linejoin:miter;stroke:rgb(0%,0%,0%);stroke-opacity:1;stroke-miterlimit:10;" d="M 4.342685 3.1924 L 3.639678 3.608543 " transform="matrix(17.330677,0,0,17.281106,17.046917,16.937261)"/>
<path style="fill:none;stroke-width:0.0333333;stroke-linecap:butt;stroke-linejoin:miter;stroke:rgb(0%,0%,0%);stroke-opacity:1;stroke-miterlimit:10;" d="M 3.480098 3.499591 L 3.491142 4.518813 " transform="matrix(17.330677,0,0,17.281106,17.046917,16.937261)"/>
<path style="fill:none;stroke-width:0.0333333;stroke-linecap:butt;stroke-linejoin:miter;stroke:rgb(0%,0%,0%);stroke-opacity:1;stroke-miterlimit:10;" d="M 3.482577 4.504346 L 4.370634 5.004576 " transform="matrix(17.330677,0,0,17.281106,17.046917,16.937261)"/>
<path style="fill:none;stroke-width:0.0333333;stroke-linecap:butt;stroke-linejoin:miter;stroke:rgb(0%,0%,0%);stroke-opacity:1;stroke-miterlimit:10;" d="M 3.648243 4.40647 L 4.368606 4.811989 " transform="matrix(17.330677,0,0,17.281106,17.046917,16.937261)"/>
<path style="fill:none;stroke-width:0.0333333;stroke-linecap:butt;stroke-linejoin:miter;stroke:rgb(0%,0%,0%);stroke-opacity:1;stroke-miterlimit:10;" d="M 4.353955 5.004802 L 5.230967 4.485585 " transform="matrix(17.330677,0,0,17.281106,17.046917,16.937261)"/>
<path style="fill:none;stroke-width:0.06;stroke-linecap:butt;stroke-linejoin:miter;stroke:rgb(0%,0%,47.058824%);stroke-opacity:1;stroke-miterlimit:10;" d="M 5.274018 1.537549 L 5.274018 0.647397 " transform="matrix(17.330677,0,0,17.281106,17.046917,16.937261)"/>
<path style="fill:none;stroke-width:0.06;stroke-linecap:butt;stroke-linejoin:miter;stroke:rgb(0%,0%,47.058824%);stroke-opacity:1;stroke-miterlimit:10;" d="M 5.107225 1.53981 L 5.107225 0.647397 " transform="matrix(17.330677,0,0,17.281106,17.046917,16.937261)"/>
</g>
</svg>
