<?xml version="1.0" encoding="UTF-8"?>
<svg xmlns="http://www.w3.org/2000/svg" xmlns:xlink="http://www.w3.org/1999/xlink" width="94.4pt" height="85.6pt" viewBox="0 0 94.4 85.6" version="1.1">
<g id="surface397">
<path style=" stroke:none;fill-rule:nonzero;fill:rgb(0%,0%,47.058824%);fill-opacity:1;" d="M 34.101562 16.898438 C 34.101562 17.191406 34.050781 17.464844 33.960938 17.707031 C 33.875 17.949219 33.746094 18.160156 33.582031 18.332031 C 33.414062 18.503906 33.210938 18.640625 32.972656 18.730469 C 32.734375 18.820312 32.464844 18.871094 32.160156 18.871094 C 31.839844 18.871094 31.5625 18.820312 31.324219 18.730469 C 31.085938 18.628906 30.882812 18.492188 30.71875 18.320312 C 30.558594 18.140625 30.4375 17.933594 30.359375 17.695312 C 30.277344 17.453125 30.238281 17.183594 30.238281 16.898438 C 30.238281 16.601562 30.277344 16.335938 30.359375 16.097656 C 30.445312 15.855469 30.570312 15.652344 30.738281 15.484375 C 30.90625 15.320312 31.109375 15.191406 31.347656 15.09375 C 31.585938 15.003906 31.859375 14.957031 32.171875 14.957031 C 32.480469 14.957031 32.757812 15.003906 32.996094 15.09375 C 33.234375 15.191406 33.429688 15.320312 33.589844 15.496094 C 33.757812 15.660156 33.882812 15.859375 33.972656 16.097656 C 34.058594 16.335938 34.101562 16.601562 34.101562 16.898438 Z M 33.289062 16.898438 C 33.289062 16.695312 33.261719 16.515625 33.210938 16.355469 C 33.160156 16.199219 33.085938 16.0625 32.996094 15.949219 C 32.898438 15.835938 32.785156 15.742188 32.648438 15.679688 C 32.507812 15.613281 32.351562 15.582031 32.171875 15.582031 C 31.980469 15.582031 31.816406 15.613281 31.671875 15.679688 C 31.535156 15.742188 31.417969 15.835938 31.324219 15.949219 C 31.230469 16.0625 31.15625 16.199219 31.109375 16.355469 C 31.066406 16.515625 31.042969 16.695312 31.042969 16.898438 C 31.042969 17.097656 31.066406 17.28125 31.117188 17.445312 C 31.167969 17.605469 31.242188 17.746094 31.335938 17.867188 C 31.429688 17.984375 31.542969 18.078125 31.683594 18.148438 C 31.816406 18.210938 31.976562 18.246094 32.160156 18.246094 C 32.355469 18.246094 32.519531 18.210938 32.660156 18.148438 C 32.800781 18.078125 32.921875 17.984375 33.015625 17.867188 C 33.109375 17.746094 33.179688 17.601562 33.222656 17.4375 C 33.265625 17.273438 33.289062 17.089844 33.289062 16.898438 Z M 33.289062 16.898438 "/>
<path style="fill:none;stroke-width:0.06;stroke-linecap:butt;stroke-linejoin:miter;stroke:rgb(0%,0%,47.058824%);stroke-opacity:1;stroke-miterlimit:10;" d="M 1.74034 1.504794 L 0.857699 0.995069 " transform="matrix(17.352941,0,0,17.258065,17.14374,16.912977)"/>
<path style="fill:none;stroke-width:0.06;stroke-linecap:butt;stroke-linejoin:miter;stroke:rgb(0%,0%,47.058824%);stroke-opacity:1;stroke-miterlimit:10;" d="M 1.732011 1.500041 L 1.732011 2.500026 " transform="matrix(17.352941,0,0,17.258065,17.14374,16.912977)"/>
<path style="fill:none;stroke-width:0.06;stroke-linecap:butt;stroke-linejoin:miter;stroke:rgb(0%,0%,47.058824%);stroke-opacity:1;stroke-miterlimit:10;" d="M 1.898589 1.596237 L 1.898589 2.40383 " transform="matrix(17.352941,0,0,17.258065,17.14374,16.912977)"/>
<path style="fill:none;stroke-width:0.0333333;stroke-linecap:butt;stroke-linejoin:miter;stroke:rgb(0%,0%,0%);stroke-opacity:1;stroke-miterlimit:10;" d="M 1.723682 1.504794 L 2.606322 0.995069 " transform="matrix(17.352941,0,0,17.258065,17.14374,16.912977)"/>
<path style="fill:none;stroke-width:0.0333333;stroke-linecap:butt;stroke-linejoin:miter;stroke:rgb(0%,0%,0%);stroke-opacity:1;stroke-miterlimit:10;" d="M 0.874357 0.995069 L -0.0082833 1.504794 " transform="matrix(17.352941,0,0,17.258065,17.14374,16.912977)"/>
<path style="fill:none;stroke-width:0.0333333;stroke-linecap:butt;stroke-linejoin:miter;stroke:rgb(0%,0%,0%);stroke-opacity:1;stroke-miterlimit:10;" d="M 0.0000456164 1.490308 L 0.0000456164 2.509759 " transform="matrix(17.352941,0,0,17.258065,17.14374,16.912977)"/>
<path style="fill:none;stroke-width:0.0333333;stroke-linecap:butt;stroke-linejoin:miter;stroke:rgb(0%,0%,0%);stroke-opacity:1;stroke-miterlimit:10;" d="M -0.0082833 2.495047 L 0.874357 3.004772 " transform="matrix(17.352941,0,0,17.258065,17.14374,16.912977)"/>
<path style="fill:none;stroke-width:0.06;stroke-linecap:butt;stroke-linejoin:miter;stroke:rgb(0%,0%,47.058824%);stroke-opacity:1;stroke-miterlimit:10;" d="M 0.857699 3.004772 L 1.74034 2.495047 " transform="matrix(17.352941,0,0,17.258065,17.14374,16.912977)"/>
<path style="fill:none;stroke-width:0.0333333;stroke-linecap:butt;stroke-linejoin:miter;stroke:rgb(0%,0%,0%);stroke-opacity:1;stroke-miterlimit:10;" d="M 1.723682 2.495047 L 2.606322 3.004772 " transform="matrix(17.352941,0,0,17.258065,17.14374,16.912977)"/>
<path style="fill:none;stroke-width:0.0333333;stroke-linecap:butt;stroke-linejoin:miter;stroke:rgb(0%,0%,0%);stroke-opacity:1;stroke-miterlimit:10;" d="M 2.589664 3.004772 L 3.472305 2.495047 " transform="matrix(17.352941,0,0,17.258065,17.14374,16.912977)"/>
<path style="fill:none;stroke-width:0.0333333;stroke-linecap:butt;stroke-linejoin:miter;stroke:rgb(0%,0%,0%);stroke-opacity:1;stroke-miterlimit:10;" d="M 2.589664 2.81238 L 3.305726 2.398851 " transform="matrix(17.352941,0,0,17.258065,17.14374,16.912977)"/>
<path style="fill:none;stroke-width:0.0333333;stroke-linecap:butt;stroke-linejoin:miter;stroke:rgb(0%,0%,0%);stroke-opacity:1;stroke-miterlimit:10;" d="M 3.463976 2.509759 L 3.463976 1.490308 " transform="matrix(17.352941,0,0,17.258065,17.14374,16.912977)"/>
<path style="fill:none;stroke-width:0.0333333;stroke-linecap:butt;stroke-linejoin:miter;stroke:rgb(0%,0%,0%);stroke-opacity:1;stroke-miterlimit:10;" d="M 3.472305 1.504794 L 2.589664 0.995069 " transform="matrix(17.352941,0,0,17.258065,17.14374,16.912977)"/>
<path style="fill:none;stroke-width:0.0333333;stroke-linecap:butt;stroke-linejoin:miter;stroke:rgb(0%,0%,0%);stroke-opacity:1;stroke-miterlimit:10;" d="M 3.305726 1.60099 L 2.589664 1.187687 " transform="matrix(17.352941,0,0,17.258065,17.14374,16.912977)"/>
<path style="fill:none;stroke-width:0.06;stroke-linecap:butt;stroke-linejoin:miter;stroke:rgb(0%,0%,47.058824%);stroke-opacity:1;stroke-miterlimit:10;" d="M 0.949317 1.048033 L 0.949317 0.156693 " transform="matrix(17.352941,0,0,17.258065,17.14374,16.912977)"/>
<path style="fill:none;stroke-width:0.06;stroke-linecap:butt;stroke-linejoin:miter;stroke:rgb(0%,0%,47.058824%);stroke-opacity:1;stroke-miterlimit:10;" d="M 0.782739 1.048033 L 0.782739 0.156693 " transform="matrix(17.352941,0,0,17.258065,17.14374,16.912977)"/>
</g>
</svg>
