<?xml version="1.0" encoding="UTF-8"?>
<svg xmlns="http://www.w3.org/2000/svg" xmlns:xlink="http://www.w3.org/1999/xlink" width="111.2pt" height="92.8pt" viewBox="0 0 111.2 92.8" version="1.1">
<g id="surface1692">
<path style=" stroke:none;fill-rule:nonzero;fill:rgb(0%,0%,0%);fill-opacity:1;" d="M 63.1875 25.425781 L 61.136719 22.191406 C 61.140625 22.277344 61.144531 22.363281 61.144531 22.449219 C 61.152344 22.519531 61.15625 22.601562 61.15625 22.6875 C 61.164062 22.765625 61.167969 22.835938 61.167969 22.902344 L 61.167969 25.425781 L 60.703125 25.425781 L 60.703125 21.628906 L 61.308594 21.628906 L 63.371094 24.886719 C 63.371094 24.886719 63.367188 24.796875 63.363281 24.617188 C 63.355469 24.546875 63.34375 24.464844 63.339844 24.378906 C 63.339844 24.289062 63.339844 24.203125 63.339844 24.121094 L 63.339844 21.628906 L 63.808594 21.628906 L 63.808594 25.425781 Z M 63.1875 25.425781 "/>
<path style=" stroke:none;fill-rule:nonzero;fill:rgb(0%,0%,47.058824%);fill-opacity:1;" d="M 78.003906 51.320312 L 76.332031 48.394531 C 76.34375 48.476562 76.355469 48.554688 76.363281 48.632812 C 76.367188 48.699219 76.375 48.769531 76.375 48.847656 C 76.378906 48.929688 76.386719 49.003906 76.386719 49.074219 L 76.386719 51.320312 L 75.667969 51.320312 L 75.667969 47.523438 L 76.589844 47.523438 L 78.273438 50.46875 C 78.265625 50.398438 78.257812 50.316406 78.253906 50.230469 C 78.246094 50.160156 78.238281 50.078125 78.230469 49.992188 C 78.230469 49.90625 78.230469 49.816406 78.230469 49.722656 L 78.230469 47.523438 L 78.9375 47.523438 L 78.9375 51.320312 Z M 78.003906 51.320312 "/>
<path style=" stroke:none;fill-rule:nonzero;fill:rgb(0%,0%,0%);fill-opacity:1;" d="M 64.15625 75.296875 C 64.15625 75.59375 64.109375 75.863281 64.023438 76.105469 C 63.9375 76.351562 63.808594 76.558594 63.644531 76.730469 C 63.484375 76.90625 63.285156 77.039062 63.046875 77.132812 C 62.8125 77.222656 62.550781 77.269531 62.253906 77.269531 C 61.933594 77.269531 61.65625 77.222656 61.417969 77.132812 C 61.183594 77.03125 60.988281 76.894531 60.832031 76.722656 C 60.671875 76.542969 60.550781 76.332031 60.472656 76.09375 C 60.390625 75.851562 60.355469 75.585938 60.355469 75.296875 C 60.355469 75.003906 60.390625 74.734375 60.472656 74.5 C 60.558594 74.257812 60.683594 74.050781 60.84375 73.882812 C 61.007812 73.71875 61.207031 73.589844 61.441406 73.496094 C 61.679688 73.402344 61.949219 73.355469 62.253906 73.355469 C 62.558594 73.355469 62.828125 73.402344 63.070312 73.496094 C 63.308594 73.589844 63.503906 73.722656 63.664062 73.894531 C 63.824219 74.0625 63.941406 74.261719 64.023438 74.5 C 64.109375 74.734375 64.15625 75.003906 64.15625 75.296875 Z M 63.621094 75.296875 C 63.621094 75.066406 63.59375 74.859375 63.535156 74.671875 C 63.476562 74.484375 63.390625 74.324219 63.273438 74.195312 C 63.15625 74.0625 63.015625 73.957031 62.839844 73.882812 C 62.671875 73.8125 62.476562 73.777344 62.253906 73.777344 C 62.027344 73.777344 61.832031 73.8125 61.65625 73.882812 C 61.484375 73.957031 61.335938 74.0625 61.222656 74.195312 C 61.113281 74.324219 61.03125 74.484375 60.972656 74.671875 C 60.914062 74.859375 60.886719 75.066406 60.886719 75.296875 C 60.886719 75.527344 60.914062 75.738281 60.972656 75.933594 C 61.03125 76.121094 61.117188 76.285156 61.234375 76.417969 C 61.347656 76.554688 61.488281 76.664062 61.65625 76.742188 C 61.832031 76.816406 62.027344 76.851562 62.253906 76.851562 C 62.492188 76.851562 62.699219 76.816406 62.875 76.742188 C 63.046875 76.664062 63.1875 76.554688 63.296875 76.417969 C 63.40625 76.277344 63.484375 76.113281 63.535156 75.921875 C 63.59375 75.726562 63.621094 75.519531 63.621094 75.296875 Z M 63.621094 75.296875 "/>
<path style=" stroke:none;fill-rule:nonzero;fill:rgb(0%,0%,0%);fill-opacity:1;" d="M 86.097656 15.671875 C 85.882812 15.671875 85.6875 15.707031 85.523438 15.777344 C 85.355469 15.851562 85.214844 15.957031 85.097656 16.089844 C 84.992188 16.222656 84.90625 16.378906 84.851562 16.566406 C 84.789062 16.753906 84.761719 16.960938 84.761719 17.191406 C 84.761719 17.421875 84.789062 17.632812 84.851562 17.828125 C 84.914062 18.015625 85.003906 18.179688 85.121094 18.3125 C 85.234375 18.453125 85.375 18.558594 85.542969 18.636719 C 85.71875 18.710938 85.910156 18.746094 86.121094 18.746094 C 86.273438 18.746094 86.40625 18.730469 86.523438 18.691406 C 86.644531 18.648438 86.753906 18.589844 86.859375 18.519531 C 86.960938 18.449219 87.046875 18.363281 87.121094 18.269531 C 87.199219 18.179688 87.265625 18.070312 87.324219 17.945312 L 87.75 18.164062 C 87.683594 18.308594 87.601562 18.441406 87.5 18.5625 C 87.394531 18.6875 87.277344 18.792969 87.140625 18.886719 C 87.003906 18.972656 86.847656 19.042969 86.675781 19.089844 C 86.5 19.140625 86.308594 19.167969 86.097656 19.167969 C 85.785156 19.167969 85.515625 19.117188 85.285156 19.027344 C 85.050781 18.925781 84.855469 18.789062 84.699219 18.617188 C 84.546875 18.4375 84.429688 18.226562 84.351562 17.988281 C 84.269531 17.746094 84.230469 17.480469 84.230469 17.191406 C 84.230469 16.898438 84.269531 16.628906 84.351562 16.394531 C 84.4375 16.152344 84.558594 15.945312 84.71875 15.777344 C 84.875 15.613281 85.074219 15.484375 85.304688 15.390625 C 85.535156 15.296875 85.800781 15.25 86.097656 15.25 C 86.503906 15.25 86.839844 15.332031 87.109375 15.488281 C 87.382812 15.644531 87.585938 15.882812 87.714844 16.199219 L 87.226562 16.359375 C 87.191406 16.269531 87.140625 16.183594 87.074219 16.101562 C 87.015625 16.015625 86.941406 15.945312 86.847656 15.886719 C 86.753906 15.820312 86.644531 15.773438 86.523438 15.734375 C 86.398438 15.691406 86.257812 15.671875 86.097656 15.671875 Z M 86.097656 15.671875 "/>
<path style=" stroke:none;fill-rule:nonzero;fill:rgb(0%,0%,47.058824%);fill-opacity:1;" d="M 94.199219 37.957031 C 94.351562 37.957031 94.480469 37.9375 94.589844 37.890625 C 94.699219 37.847656 94.792969 37.796875 94.871094 37.730469 C 94.953125 37.660156 95.015625 37.578125 95.070312 37.492188 C 95.125 37.40625 95.171875 37.320312 95.210938 37.234375 L 95.90625 37.492188 C 95.84375 37.632812 95.769531 37.769531 95.675781 37.902344 C 95.589844 38.03125 95.476562 38.148438 95.339844 38.25 C 95.210938 38.351562 95.050781 38.433594 94.863281 38.496094 C 94.671875 38.554688 94.453125 38.582031 94.199219 38.582031 C 93.867188 38.582031 93.574219 38.535156 93.332031 38.441406 C 93.09375 38.34375 92.890625 38.207031 92.734375 38.03125 C 92.574219 37.855469 92.453125 37.644531 92.375 37.40625 C 92.300781 37.164062 92.265625 36.898438 92.265625 36.609375 C 92.265625 36.316406 92.300781 36.046875 92.375 35.808594 C 92.453125 35.566406 92.570312 35.363281 92.722656 35.195312 C 92.878906 35.03125 93.082031 34.902344 93.320312 34.808594 C 93.558594 34.714844 93.839844 34.667969 94.167969 34.667969 C 94.410156 34.667969 94.628906 34.695312 94.820312 34.753906 C 95.007812 34.804688 95.167969 34.878906 95.308594 34.96875 C 95.441406 35.0625 95.558594 35.171875 95.644531 35.304688 C 95.730469 35.433594 95.796875 35.574219 95.851562 35.722656 L 95.144531 35.917969 C 95.121094 35.839844 95.082031 35.765625 95.023438 35.691406 C 94.972656 35.613281 94.910156 35.546875 94.828125 35.488281 C 94.75 35.429688 94.65625 35.382812 94.546875 35.347656 C 94.4375 35.3125 94.3125 35.292969 94.179688 35.292969 C 93.984375 35.292969 93.8125 35.324219 93.679688 35.390625 C 93.539062 35.453125 93.421875 35.546875 93.332031 35.660156 C 93.242188 35.773438 93.179688 35.914062 93.136719 36.070312 C 93.09375 36.226562 93.070312 36.410156 93.070312 36.609375 C 93.070312 36.8125 93.09375 36.996094 93.136719 37.160156 C 93.179688 37.316406 93.242188 37.457031 93.332031 37.578125 C 93.421875 37.695312 93.539062 37.789062 93.679688 37.859375 C 93.824219 37.925781 93.996094 37.957031 94.199219 37.957031 Z M 94.199219 37.957031 "/>
<path style="fill:none;stroke-width:0.0333333;stroke-linecap:butt;stroke-linejoin:miter;stroke:rgb(0%,0%,0%);stroke-opacity:1;stroke-miterlimit:10;" d="M 0.874281 0.361232 L -0.00836297 0.870844 " transform="matrix(17.375,0,0,17.261905,17.114057,17.209758)"/>
<path style="fill:none;stroke-width:0.0333333;stroke-linecap:butt;stroke-linejoin:miter;stroke:rgb(0%,0%,0%);stroke-opacity:1;stroke-miterlimit:10;" d="M 0.857644 0.361232 L 1.73197 0.866092 " transform="matrix(17.375,0,0,17.261905,17.114057,17.209758)"/>
<path style="fill:none;stroke-width:0.0333333;stroke-linecap:butt;stroke-linejoin:miter;stroke:rgb(0%,0%,0%);stroke-opacity:1;stroke-miterlimit:10;" d="M 0.857644 0.553581 L 1.565378 0.962267 " transform="matrix(17.375,0,0,17.261905,17.114057,17.209758)"/>
<path style="fill:none;stroke-width:0.0333333;stroke-linecap:butt;stroke-linejoin:miter;stroke:rgb(0%,0%,0%);stroke-opacity:1;stroke-miterlimit:10;" d="M -0.0000446296 0.856361 L -0.0000446296 1.875586 " transform="matrix(17.375,0,0,17.261905,17.114057,17.209758)"/>
<path style="fill:none;stroke-width:0.0333333;stroke-linecap:butt;stroke-linejoin:miter;stroke:rgb(0%,0%,0%);stroke-opacity:1;stroke-miterlimit:10;" d="M 0.166772 0.952762 L 0.166772 1.779411 " transform="matrix(17.375,0,0,17.261905,17.114057,17.209758)"/>
<path style="fill:none;stroke-width:0.0333333;stroke-linecap:butt;stroke-linejoin:miter;stroke:rgb(0%,0%,0%);stroke-opacity:1;stroke-miterlimit:10;" d="M -0.00836297 1.861329 L 0.874281 2.370941 " transform="matrix(17.375,0,0,17.261905,17.114057,17.209758)"/>
<path style="fill:none;stroke-width:0.0333333;stroke-linecap:butt;stroke-linejoin:miter;stroke:rgb(0%,0%,0%);stroke-opacity:1;stroke-miterlimit:10;" d="M 0.857644 2.370941 L 1.73197 1.866081 " transform="matrix(17.375,0,0,17.261905,17.114057,17.209758)"/>
<path style="fill:none;stroke-width:0.0333333;stroke-linecap:butt;stroke-linejoin:miter;stroke:rgb(0%,0%,0%);stroke-opacity:1;stroke-miterlimit:10;" d="M 0.857644 2.178366 L 1.565378 1.769907 " transform="matrix(17.375,0,0,17.261905,17.114057,17.209758)"/>
<path style="fill:none;stroke-width:0.0333333;stroke-linecap:butt;stroke-linejoin:miter;stroke:rgb(0%,0%,0%);stroke-opacity:1;stroke-miterlimit:10;" d="M 2.43206 0.461933 L 1.723876 0.870844 " transform="matrix(17.375,0,0,17.261905,17.114057,17.209758)"/>
<path style="fill:none;stroke-width:0.0333333;stroke-linecap:butt;stroke-linejoin:miter;stroke:rgb(0%,0%,0%);stroke-opacity:1;stroke-miterlimit:10;" d="M 1.73197 0.856361 L 1.73197 1.875586 " transform="matrix(17.375,0,0,17.261905,17.114057,17.209758)"/>
<path style="fill:none;stroke-width:0.0333333;stroke-linecap:butt;stroke-linejoin:miter;stroke:rgb(0%,0%,0%);stroke-opacity:1;stroke-miterlimit:10;" d="M 1.723876 1.861329 L 2.60652 2.370941 " transform="matrix(17.375,0,0,17.261905,17.114057,17.209758)"/>
<path style="fill:none;stroke-width:0.0333333;stroke-linecap:butt;stroke-linejoin:miter;stroke:rgb(0%,0%,0%);stroke-opacity:1;stroke-miterlimit:10;" d="M 2.589659 2.370941 L 3.294695 1.96384 " transform="matrix(17.375,0,0,17.261905,17.114057,17.209758)"/>
<path style="fill:none;stroke-width:0.0333333;stroke-linecap:butt;stroke-linejoin:miter;stroke:rgb(0%,0%,0%);stroke-opacity:1;stroke-miterlimit:10;" d="M 2.514793 2.317762 L 2.514793 3.209357 " transform="matrix(17.375,0,0,17.261905,17.114057,17.209758)"/>
<path style="fill:none;stroke-width:0.0333333;stroke-linecap:butt;stroke-linejoin:miter;stroke:rgb(0%,0%,0%);stroke-opacity:1;stroke-miterlimit:10;" d="M 2.681385 2.317762 L 2.681385 3.209357 " transform="matrix(17.375,0,0,17.261905,17.114057,17.209758)"/>
<path style="fill:none;stroke-width:0.0333333;stroke-linecap:butt;stroke-linejoin:miter;stroke:rgb(0%,0%,0%);stroke-opacity:1;stroke-miterlimit:10;" d="M 2.763894 0.461933 L 3.466008 0.866997 " transform="matrix(17.375,0,0,17.261905,17.114057,17.209758)"/>
<path style="fill:none;stroke-width:0.0333333;stroke-linecap:butt;stroke-linejoin:miter;stroke:rgb(0%,0%,0%);stroke-opacity:1;stroke-miterlimit:10;" d="M 3.463984 0.866092 L 3.860117 0.180198 " transform="matrix(17.375,0,0,17.261905,17.114057,17.209758)"/>
<path style="fill:none;stroke-width:0.06;stroke-linecap:butt;stroke-linejoin:miter;stroke:rgb(0%,0%,47.058824%);stroke-opacity:1;stroke-miterlimit:10;" d="M 3.461961 0.865413 L 4.252653 1.07745 " transform="matrix(17.375,0,0,17.261905,17.114057,17.209758)"/>
<path style="fill:none;stroke-width:0.06;stroke-linecap:butt;stroke-linejoin:miter;stroke:rgb(0%,0%,47.058824%);stroke-opacity:1;stroke-miterlimit:10;" d="M 3.714883 0.760639 L 4.295819 0.916329 " transform="matrix(17.375,0,0,17.261905,17.114057,17.209758)"/>
</g>
</svg>
