<?xml version="1.0" encoding="UTF-8"?>
<svg xmlns="http://www.w3.org/2000/svg" xmlns:xlink="http://www.w3.org/1999/xlink" width="98.4pt" height="78.4pt" viewBox="0 0 98.4 78.4" version="1.1">
<g id="surface1562">
<path style=" stroke:none;fill-rule:nonzero;fill:rgb(0%,0%,0%);fill-opacity:1;" d="M 89.101562 63.210938 C 89.101562 61.898438 89.453125 60.871094 90.160156 60.128906 C 90.863281 59.386719 91.773438 59.019531 92.890625 59.015625 C 93.621094 59.019531 94.28125 59.191406 94.867188 59.539062 C 95.453125 59.886719 95.898438 60.375 96.210938 60.996094 C 96.515625 61.621094 96.667969 62.328125 96.671875 63.117188 C 96.667969 63.921875 96.507812 64.640625 96.183594 65.269531 C 95.859375 65.902344 95.398438 66.382812 94.808594 66.707031 C 94.210938 67.03125 93.574219 67.191406 92.886719 67.195312 C 92.140625 67.191406 91.472656 67.015625 90.890625 66.65625 C 90.300781 66.296875 89.859375 65.804688 89.554688 65.183594 C 89.253906 64.5625 89.101562 63.90625 89.101562 63.210938 Z M 90.183594 63.226562 C 90.179688 64.179688 90.4375 64.933594 90.953125 65.476562 C 91.460938 66.027344 92.105469 66.300781 92.882812 66.300781 C 93.667969 66.300781 94.316406 66.023438 94.828125 65.46875 C 95.335938 64.917969 95.589844 64.132812 95.589844 63.113281 C 95.589844 62.472656 95.480469 61.910156 95.265625 61.429688 C 95.046875 60.949219 94.726562 60.578125 94.308594 60.3125 C 93.886719 60.050781 93.417969 59.917969 92.898438 59.914062 C 92.152344 59.917969 91.515625 60.171875 90.984375 60.679688 C 90.445312 61.1875 90.179688 62.039062 90.183594 63.226562 Z M 90.183594 63.226562 "/>
<path style=" stroke:none;fill-rule:nonzero;fill:rgb(0%,0%,0%);fill-opacity:1;" d="M 70.226562 47.539062 L 70.226562 39.632812 L 71.300781 39.632812 L 75.457031 45.839844 L 75.457031 39.632812 L 76.460938 39.632812 L 76.460938 47.539062 L 75.386719 47.539062 L 71.230469 41.328125 L 71.230469 47.539062 Z M 70.226562 47.539062 "/>
<path style=" stroke:none;fill-rule:nonzero;fill:rgb(0%,0%,0%);fill-opacity:1;" d="M 22.828125 5.894531 C 22.828125 4.582031 23.179688 3.554688 23.886719 2.8125 C 24.585938 2.070312 25.5 1.699219 26.617188 1.699219 C 27.347656 1.699219 28.003906 1.875 28.59375 2.222656 C 29.179688 2.570312 29.625 3.058594 29.933594 3.679688 C 30.238281 4.304688 30.394531 5.011719 30.394531 5.800781 C 30.394531 6.605469 30.230469 7.320312 29.910156 7.953125 C 29.582031 8.585938 29.125 9.066406 28.535156 9.390625 C 27.9375 9.714844 27.296875 9.875 26.613281 9.878906 C 25.863281 9.875 25.199219 9.695312 24.613281 9.339844 C 24.027344 8.980469 23.582031 8.488281 23.28125 7.867188 C 22.980469 7.246094 22.828125 6.589844 22.828125 5.894531 Z M 23.90625 5.910156 C 23.90625 6.863281 24.160156 7.617188 24.675781 8.160156 C 25.1875 8.710938 25.828125 8.984375 26.605469 8.984375 C 27.390625 8.984375 28.042969 8.707031 28.554688 8.152344 C 29.058594 7.601562 29.3125 6.816406 29.316406 5.796875 C 29.3125 5.15625 29.207031 4.59375 28.988281 4.109375 C 28.769531 3.632812 28.453125 3.261719 28.035156 2.996094 C 27.613281 2.734375 27.140625 2.601562 26.621094 2.597656 C 25.878906 2.601562 25.242188 2.855469 24.710938 3.363281 C 24.171875 3.871094 23.90625 4.71875 23.90625 5.910156 Z M 23.90625 5.910156 "/>
<path style=" stroke:none;fill-rule:nonzero;fill:rgb(0%,0%,0%);fill-opacity:1;" d="M 76.714844 17.027344 C 76.714844 15.71875 77.0625 14.691406 77.769531 13.945312 C 78.472656 13.203125 79.386719 12.835938 80.503906 12.832031 C 81.230469 12.835938 81.890625 13.007812 82.480469 13.355469 C 83.0625 13.707031 83.511719 14.195312 83.820312 14.8125 C 84.125 15.4375 84.277344 16.144531 84.28125 16.933594 C 84.277344 17.738281 84.117188 18.457031 83.796875 19.085938 C 83.46875 19.71875 83.011719 20.199219 82.417969 20.523438 C 81.824219 20.851562 81.183594 21.007812 80.496094 21.011719 C 79.75 21.007812 79.082031 20.832031 78.5 20.472656 C 77.910156 20.113281 77.46875 19.625 77.167969 19 C 76.863281 18.378906 76.714844 17.722656 76.714844 17.027344 Z M 77.792969 17.042969 C 77.789062 17.996094 78.046875 18.75 78.5625 19.292969 C 79.070312 19.84375 79.714844 20.117188 80.492188 20.117188 C 81.277344 20.117188 81.929688 19.839844 82.4375 19.285156 C 82.945312 18.734375 83.199219 17.949219 83.203125 16.929688 C 83.199219 16.289062 83.089844 15.726562 82.875 15.246094 C 82.65625 14.769531 82.339844 14.394531 81.921875 14.128906 C 81.5 13.867188 81.027344 13.734375 80.507812 13.734375 C 79.761719 13.734375 79.125 13.988281 78.59375 14.496094 C 78.058594 15.003906 77.789062 15.855469 77.792969 17.042969 Z M 77.792969 17.042969 "/>
<path style="fill:none;stroke-width:0.0333333;stroke-linecap:butt;stroke-linejoin:miter;stroke:rgb(0%,0%,0%);stroke-opacity:1;stroke-miterlimit:10;" d="M 2.741319 1.646554 L 2.996974 1.902107 " transform="matrix(27.640449,0,0,27.605634,1.982609,5.788017)"/>
<path style="fill:none;stroke-width:0.0333333;stroke-linecap:butt;stroke-linejoin:miter;stroke:rgb(0%,0%,0%);stroke-opacity:1;stroke-miterlimit:10;" d="M 2.859183 1.528683 L 3.114838 1.784235 " transform="matrix(27.640449,0,0,27.605634,1.982609,5.788017)"/>
<path style="fill:none;stroke-width:0.0333333;stroke-linecap:butt;stroke-linejoin:miter;stroke:rgb(0%,0%,0%);stroke-opacity:1;stroke-miterlimit:10;" d="M 0.918668 1.063425 L 0.960217 0.271297 " transform="matrix(27.640449,0,0,27.605634,1.982609,5.788017)"/>
<path style="fill:none;stroke-width:0.0333333;stroke-linecap:butt;stroke-linejoin:miter;stroke:rgb(0%,0%,0%);stroke-opacity:1;stroke-miterlimit:10;" d="M 0.75233 1.054793 L 0.793738 0.262665 " transform="matrix(27.640449,0,0,27.605634,1.982609,5.788017)"/>
<path style="fill:none;stroke-width:0.0333333;stroke-linecap:butt;stroke-linejoin:miter;stroke:rgb(0%,0%,0%);stroke-opacity:1;stroke-miterlimit:10;" d="M 1.615818 1.628017 L 0.82921 0.990976 " transform="matrix(27.640449,0,0,27.605634,1.982609,5.788017)"/>
<path style="fill:none;stroke-width:0.0333333;stroke-linecap:butt;stroke-linejoin:miter;stroke:rgb(0%,0%,0%);stroke-opacity:1;stroke-miterlimit:10;" d="M -0.00318654 1.531513 L 0.261937 2.520894 " transform="matrix(27.640449,0,0,27.605634,1.982609,5.788017)"/>
<path style="fill:none;stroke-width:0.0333333;stroke-linecap:butt;stroke-linejoin:miter;stroke:rgb(0%,0%,0%);stroke-opacity:1;stroke-miterlimit:10;" d="M 0.246674 2.508584 L 1.269575 2.562213 " transform="matrix(27.640449,0,0,27.605634,1.982609,5.788017)"/>
<path style="fill:none;stroke-width:0.0333333;stroke-linecap:butt;stroke-linejoin:miter;stroke:rgb(0%,0%,0%);stroke-opacity:1;stroke-miterlimit:10;" d="M 1.25304 2.572826 L 1.615818 1.628017 " transform="matrix(27.640449,0,0,27.605634,1.982609,5.788017)"/>
<path style="fill:none;stroke-width:0.0333333;stroke-linecap:butt;stroke-linejoin:miter;stroke:rgb(0%,0%,0%);stroke-opacity:1;stroke-miterlimit:10;" d="M 2.682953 0.669766 L 2.575688 1.070217 " transform="matrix(27.640449,0,0,27.605634,1.982609,5.788017)"/>
<path style="fill:none;stroke-width:0.0333333;stroke-linecap:butt;stroke-linejoin:miter;stroke:rgb(0%,0%,0%);stroke-opacity:1;stroke-miterlimit:10;" d="M 2.84392 0.712924 L 2.736656 1.113375 " transform="matrix(27.640449,0,0,27.605634,1.982609,5.788017)"/>
<path style="fill:none;stroke-width:0.0333333;stroke-linecap:butt;stroke-linejoin:miter;stroke:rgb(0%,0%,0%);stroke-opacity:1;stroke-miterlimit:10;" d="M -0.0101114 1.549908 L 0.848713 0.992108 " transform="matrix(27.640449,0,0,27.605634,1.982609,5.788017)"/>
<path style="fill:none;stroke-width:0.0333333;stroke-linecap:butt;stroke-linejoin:miter;stroke:rgb(0%,0%,0%);stroke-opacity:1;stroke-miterlimit:10;" d="M 1.615818 1.628017 L 2.335438 1.435292 " transform="matrix(27.640449,0,0,27.605634,1.982609,5.788017)"/>
</g>
</svg>
