<?xml version="1.0" encoding="UTF-8"?>
<svg xmlns="http://www.w3.org/2000/svg" xmlns:xlink="http://www.w3.org/1999/xlink" width="175.2pt" height="88.8pt" viewBox="0 0 175.2 88.8" version="1.1">
<g id="surface827">
<path style=" stroke:none;fill-rule:nonzero;fill:rgb(0%,0%,0%);fill-opacity:1;" d="M 7.117188 48.25 L 7.117188 41.242188 L 4.496094 41.242188 L 4.496094 40.304688 L 10.804688 40.304688 L 10.804688 41.242188 L 8.171875 41.242188 L 8.171875 48.25 Z M 7.117188 48.25 "/>
<path style=" stroke:none;fill-rule:nonzero;fill:rgb(0%,0%,0%);fill-opacity:1;" d="M 12.132812 48.25 L 12.132812 43.253906 L 11.269531 43.253906 L 11.269531 42.496094 L 12.132812 42.496094 L 12.132812 41.882812 C 12.128906 41.496094 12.164062 41.210938 12.234375 41.019531 C 12.328125 40.769531 12.492188 40.5625 12.730469 40.40625 C 12.96875 40.25 13.300781 40.167969 13.726562 40.167969 C 14 40.167969 14.304688 40.203125 14.640625 40.265625 L 14.492188 41.117188 C 14.289062 41.082031 14.097656 41.0625 13.917969 41.0625 C 13.621094 41.0625 13.40625 41.128906 13.289062 41.253906 C 13.164062 41.382812 13.105469 41.621094 13.105469 41.964844 L 13.105469 42.496094 L 14.226562 42.496094 L 14.226562 43.253906 L 13.105469 43.253906 L 13.105469 48.25 Z M 12.132812 48.25 "/>
<path style=" stroke:none;fill-rule:nonzero;fill:rgb(0%,0%,0%);fill-opacity:1;" d="M 15.105469 44.382812 C 15.105469 43.0625 15.457031 42.03125 16.167969 41.285156 C 16.875 40.539062 17.792969 40.167969 18.917969 40.164062 C 19.652344 40.167969 20.3125 40.339844 20.90625 40.691406 C 21.496094 41.042969 21.945312 41.53125 22.253906 42.15625 C 22.5625 42.785156 22.71875 43.496094 22.71875 44.289062 C 22.71875 45.097656 22.554688 45.816406 22.230469 46.453125 C 21.902344 47.089844 21.441406 47.570312 20.847656 47.894531 C 20.246094 48.222656 19.601562 48.382812 18.914062 48.386719 C 18.160156 48.382812 17.488281 48.203125 16.902344 47.84375 C 16.3125 47.484375 15.867188 46.992188 15.5625 46.363281 C 15.257812 45.742188 15.105469 45.082031 15.105469 44.382812 Z M 16.191406 44.398438 C 16.1875 45.355469 16.445312 46.113281 16.964844 46.660156 C 17.480469 47.214844 18.125 47.488281 18.90625 47.488281 C 19.699219 47.488281 20.351562 47.210938 20.867188 46.652344 C 21.375 46.097656 21.632812 45.308594 21.632812 44.285156 C 21.632812 43.636719 21.523438 43.074219 21.304688 42.589844 C 21.085938 42.109375 20.765625 41.734375 20.34375 41.46875 C 19.921875 41.203125 19.445312 41.070312 18.921875 41.070312 C 18.175781 41.070312 17.53125 41.328125 16.996094 41.835938 C 16.457031 42.347656 16.1875 43.203125 16.191406 44.398438 Z M 16.191406 44.398438 "/>
<path style=" stroke:none;fill-rule:nonzero;fill:rgb(0%,0%,0%);fill-opacity:1;" d="M 3.5625 48.636719 L 2.910156 48.636719 L 2.910156 44.496094 C 2.753906 44.648438 2.546875 44.796875 2.292969 44.941406 C 2.035156 45.09375 1.808594 45.203125 1.609375 45.277344 L 1.609375 44.648438 C 1.972656 44.480469 2.289062 44.273438 2.5625 44.027344 C 2.835938 43.785156 3.027344 43.550781 3.144531 43.320312 L 3.5625 43.320312 Z M 3.5625 48.636719 "/>
<path style=" stroke:none;fill-rule:nonzero;fill:rgb(0%,0%,0%);fill-opacity:1;" d="M 33.84375 45.265625 L 68.605469 45.265625 L 68.605469 47.867188 L 75.558594 44.398438 L 68.605469 40.929688 L 68.605469 43.53125 L 33.84375 43.53125 "/>
<path style=" stroke:none;fill-rule:nonzero;fill:rgb(0%,0%,0%);fill-opacity:1;" d="M 142.476562 84.492188 L 142.476562 76.546875 L 147.847656 76.546875 L 147.847656 77.484375 L 143.53125 77.484375 L 143.53125 79.945312 L 147.269531 79.945312 L 147.269531 80.882812 L 143.53125 80.882812 L 143.53125 84.492188 Z M 142.476562 84.492188 "/>
<path style=" stroke:none;fill-rule:nonzero;fill:rgb(0%,0%,0%);fill-opacity:1;" d="M 152.660156 46.582031 L 152.660156 38.636719 L 158.03125 38.636719 L 158.03125 39.574219 L 153.710938 39.574219 L 153.710938 42.035156 L 157.449219 42.035156 L 157.449219 42.972656 L 153.710938 42.972656 L 153.710938 46.582031 Z M 152.660156 46.582031 "/>
<path style=" stroke:none;fill-rule:nonzero;fill:rgb(0%,0%,0%);fill-opacity:1;" d="M 104.492188 74.332031 L 104.492188 66.386719 L 109.863281 66.386719 L 109.863281 67.324219 L 105.546875 67.324219 L 105.546875 69.785156 L 109.28125 69.785156 L 109.28125 70.722656 L 105.546875 70.722656 L 105.546875 74.332031 Z M 104.492188 74.332031 "/>
<path style=" stroke:none;fill-rule:nonzero;fill:rgb(0%,0%,0%);fill-opacity:1;" d="M 114.183594 33.875 L 115.179688 33.789062 C 115.226562 34.1875 115.332031 34.515625 115.507812 34.765625 C 115.675781 35.023438 115.945312 35.230469 116.308594 35.382812 C 116.667969 35.542969 117.078125 35.621094 117.53125 35.621094 C 117.933594 35.621094 118.285156 35.5625 118.59375 35.441406 C 118.898438 35.324219 119.128906 35.160156 119.28125 34.949219 C 119.429688 34.746094 119.503906 34.515625 119.507812 34.269531 C 119.503906 34.023438 119.433594 33.808594 119.289062 33.617188 C 119.144531 33.433594 118.90625 33.277344 118.574219 33.148438 C 118.359375 33.066406 117.886719 32.9375 117.15625 32.761719 C 116.421875 32.585938 115.910156 32.421875 115.617188 32.265625 C 115.234375 32.066406 114.953125 31.820312 114.769531 31.523438 C 114.582031 31.230469 114.484375 30.90625 114.488281 30.535156 C 114.484375 30.136719 114.601562 29.761719 114.832031 29.410156 C 115.054688 29.0625 115.390625 28.800781 115.832031 28.617188 C 116.269531 28.4375 116.753906 28.347656 117.292969 28.347656 C 117.878906 28.347656 118.398438 28.441406 118.851562 28.628906 C 119.300781 28.820312 119.648438 29.097656 119.894531 29.46875 C 120.136719 29.835938 120.265625 30.253906 120.285156 30.71875 L 119.273438 30.796875 C 119.21875 30.296875 119.035156 29.917969 118.722656 29.65625 C 118.40625 29.402344 117.945312 29.273438 117.335938 29.273438 C 116.695312 29.273438 116.230469 29.390625 115.941406 29.621094 C 115.648438 29.855469 115.5 30.136719 115.503906 30.464844 C 115.5 30.753906 115.605469 30.988281 115.8125 31.171875 C 116.015625 31.355469 116.542969 31.542969 117.402344 31.738281 C 118.257812 31.929688 118.84375 32.101562 119.164062 32.242188 C 119.628906 32.460938 119.96875 32.726562 120.191406 33.054688 C 120.410156 33.382812 120.519531 33.757812 120.523438 34.183594 C 120.519531 34.605469 120.398438 35.003906 120.160156 35.378906 C 119.914062 35.753906 119.566406 36.046875 119.113281 36.25 C 118.65625 36.460938 118.148438 36.558594 117.578125 36.5625 C 116.855469 36.558594 116.25 36.457031 115.769531 36.25 C 115.277344 36.039062 114.898438 35.726562 114.621094 35.300781 C 114.34375 34.882812 114.199219 34.40625 114.183594 33.875 Z M 114.183594 33.875 "/>
<path style=" stroke:none;fill-rule:nonzero;fill:rgb(0%,0%,0%);fill-opacity:1;" d="M 137.632812 18.683594 C 137.632812 17.367188 137.984375 16.335938 138.699219 15.585938 C 139.402344 14.84375 140.320312 14.472656 141.445312 14.46875 C 142.179688 14.472656 142.839844 14.644531 143.433594 14.996094 C 144.023438 15.347656 144.472656 15.835938 144.785156 16.460938 C 145.089844 17.089844 145.246094 17.800781 145.246094 18.59375 C 145.246094 19.402344 145.082031 20.121094 144.757812 20.753906 C 144.429688 21.390625 143.96875 21.875 143.375 22.199219 C 142.773438 22.527344 142.128906 22.6875 141.441406 22.691406 C 140.6875 22.6875 140.015625 22.507812 139.429688 22.148438 C 138.839844 21.789062 138.394531 21.292969 138.089844 20.667969 C 137.785156 20.046875 137.632812 19.382812 137.632812 18.683594 Z M 138.71875 18.703125 C 138.714844 19.660156 138.972656 20.417969 139.492188 20.964844 C 140.007812 21.515625 140.652344 21.789062 141.433594 21.789062 C 142.226562 21.789062 142.878906 21.515625 143.394531 20.957031 C 143.902344 20.402344 144.160156 19.613281 144.160156 18.585938 C 144.160156 17.941406 144.050781 17.378906 143.832031 16.894531 C 143.613281 16.414062 143.292969 16.039062 142.871094 15.773438 C 142.449219 15.507812 141.972656 15.375 141.449219 15.375 C 140.703125 15.375 140.0625 15.632812 139.527344 16.140625 C 138.984375 16.652344 138.714844 17.507812 138.71875 18.703125 Z M 138.71875 18.703125 "/>
<path style=" stroke:none;fill-rule:nonzero;fill:rgb(0%,0%,0%);fill-opacity:1;" d="M 89.464844 46.433594 C 89.464844 45.117188 89.820312 44.085938 90.53125 43.335938 C 91.238281 42.59375 92.15625 42.222656 93.277344 42.21875 C 94.011719 42.222656 94.675781 42.394531 95.265625 42.746094 C 95.855469 43.097656 96.304688 43.585938 96.617188 44.210938 C 96.921875 44.839844 97.078125 45.550781 97.082031 46.34375 C 97.078125 47.152344 96.914062 47.871094 96.59375 48.503906 C 96.261719 49.140625 95.800781 49.625 95.207031 49.949219 C 94.605469 50.277344 93.964844 50.4375 93.273438 50.441406 C 92.519531 50.4375 91.851562 50.257812 91.261719 49.898438 C 90.671875 49.539062 90.226562 49.042969 89.921875 48.417969 C 89.617188 47.796875 89.464844 47.132812 89.464844 46.433594 Z M 90.550781 46.453125 C 90.550781 47.410156 90.808594 48.167969 91.324219 48.714844 C 91.839844 49.265625 92.484375 49.539062 93.269531 49.539062 C 94.058594 49.539062 94.710938 49.265625 95.226562 48.707031 C 95.738281 48.152344 95.992188 47.363281 95.996094 46.335938 C 95.992188 45.691406 95.882812 45.128906 95.664062 44.644531 C 95.445312 44.164062 95.125 43.789062 94.703125 43.523438 C 94.28125 43.257812 93.804688 43.125 93.285156 43.125 C 92.535156 43.125 91.894531 43.382812 91.359375 43.890625 C 90.816406 44.402344 90.550781 45.257812 90.550781 46.453125 Z M 90.550781 46.453125 "/>
<path style=" stroke:none;fill-rule:nonzero;fill:rgb(0%,0%,0%);fill-opacity:1;" d="M 99.640625 8.527344 C 99.640625 7.207031 99.996094 6.175781 100.707031 5.429688 C 101.414062 4.683594 102.332031 4.3125 103.453125 4.308594 C 104.1875 4.3125 104.851562 4.484375 105.441406 4.835938 C 106.03125 5.1875 106.480469 5.675781 106.792969 6.300781 C 107.097656 6.929688 107.253906 7.640625 107.257812 8.433594 C 107.253906 9.242188 107.089844 9.960938 106.769531 10.597656 C 106.4375 11.234375 105.976562 11.714844 105.382812 12.039062 C 104.78125 12.367188 104.140625 12.527344 103.449219 12.53125 C 102.695312 12.527344 102.027344 12.347656 101.441406 11.988281 C 100.847656 11.628906 100.402344 11.136719 100.097656 10.507812 C 99.792969 9.886719 99.640625 9.226562 99.640625 8.527344 Z M 100.726562 8.542969 C 100.726562 9.5 100.984375 10.257812 101.503906 10.804688 C 102.015625 11.359375 102.660156 11.632812 103.445312 11.632812 C 104.234375 11.632812 104.886719 11.355469 105.402344 10.796875 C 105.914062 10.242188 106.167969 9.453125 106.171875 8.429688 C 106.167969 7.78125 106.058594 7.21875 105.84375 6.734375 C 105.621094 6.253906 105.300781 5.878906 104.878906 5.613281 C 104.457031 5.347656 103.980469 5.214844 103.460938 5.214844 C 102.710938 5.214844 102.070312 5.472656 101.535156 5.980469 C 100.996094 6.492188 100.726562 7.347656 100.726562 8.542969 Z M 100.726562 8.542969 "/>
<path style=" stroke:none;fill-rule:nonzero;fill:rgb(0%,0%,0%);fill-opacity:1;" d="M 108.183594 12.253906 L 108.183594 4.308594 L 109.238281 4.308594 L 109.238281 7.570312 L 113.375 7.570312 L 113.375 4.308594 L 114.429688 4.308594 L 114.429688 12.253906 L 113.375 12.253906 L 113.375 8.507812 L 109.238281 8.507812 L 109.238281 12.253906 Z M 108.183594 12.253906 "/>
<path style=" stroke:none;fill-rule:nonzero;fill:rgb(0%,0%,0%);fill-opacity:1;" d="M 98.714844 12.914062 L 98.0625 12.914062 L 98.0625 8.773438 C 97.902344 8.925781 97.695312 9.074219 97.445312 9.21875 C 97.1875 9.371094 96.957031 9.480469 96.757812 9.554688 L 96.757812 8.925781 C 97.121094 8.757812 97.4375 8.550781 97.714844 8.304688 C 97.984375 8.0625 98.179688 7.828125 98.292969 7.597656 L 98.714844 7.597656 Z M 98.714844 12.914062 "/>
<path style="fill:none;stroke-width:0.0333333;stroke-linecap:butt;stroke-linejoin:miter;stroke:rgb(0%,0%,0%);stroke-opacity:1;stroke-miterlimit:10;" d="M 1.716953 2.339882 L 1.365932 1.732055 " transform="matrix(27.809524,0,0,27.75,93.271892,8.419849)"/>
<path style="fill:none;stroke-width:0.0333333;stroke-linecap:butt;stroke-linejoin:miter;stroke:rgb(0%,0%,0%);stroke-opacity:1;stroke-miterlimit:10;" d="M 1.365932 1.732055 L 1.988611 1.372539 " transform="matrix(27.809524,0,0,27.75,93.271892,8.419849)"/>
<path style="fill:none;stroke-width:0.0333333;stroke-linecap:butt;stroke-linejoin:miter;stroke:rgb(0%,0%,0%);stroke-opacity:1;stroke-miterlimit:10;" d="M 1.365932 1.732055 L 0.743394 2.091571 " transform="matrix(27.809524,0,0,27.75,93.271892,8.419849)"/>
<path style="fill:none;stroke-width:0.0333333;stroke-linecap:butt;stroke-linejoin:miter;stroke:rgb(0%,0%,0%);stroke-opacity:1;stroke-miterlimit:10;" d="M 1.365932 1.732055 L 1.021513 1.13549 " transform="matrix(27.809524,0,0,27.75,93.271892,8.419849)"/>
<path style="fill:none;stroke-width:0.0333333;stroke-linecap:butt;stroke-linejoin:miter;stroke:rgb(0%,0%,0%);stroke-opacity:1;stroke-miterlimit:10;" d="M 1.166192 0.788924 L 1.497969 0.597483 " transform="matrix(27.809524,0,0,27.75,93.271892,8.419849)"/>
<path style="fill:none;stroke-width:0.0333333;stroke-linecap:butt;stroke-linejoin:miter;stroke:rgb(0%,0%,0%);stroke-opacity:1;stroke-miterlimit:10;" d="M 1.082896 0.644639 L 1.414533 0.453057 " transform="matrix(27.809524,0,0,27.75,93.271892,8.419849)"/>
<path style="fill:none;stroke-width:0.0333333;stroke-linecap:butt;stroke-linejoin:miter;stroke:rgb(0%,0%,0%);stroke-opacity:1;stroke-miterlimit:10;" d="M 0.565706 0.943204 L 0.234069 1.134645 " transform="matrix(27.809524,0,0,27.75,93.271892,8.419849)"/>
<path style="fill:none;stroke-width:0.0333333;stroke-linecap:butt;stroke-linejoin:miter;stroke:rgb(0%,0%,0%);stroke-opacity:1;stroke-miterlimit:10;" d="M 0.649142 1.087489 L 0.317505 1.279071 " transform="matrix(27.809524,0,0,27.75,93.271892,8.419849)"/>
<path style="fill:none;stroke-width:0.0333333;stroke-linecap:butt;stroke-linejoin:miter;stroke:rgb(0%,0%,0%);stroke-opacity:1;stroke-miterlimit:10;" d="M 0.710384 0.596638 L 0.532978 0.289206 " transform="matrix(27.809524,0,0,27.75,93.271892,8.419849)"/>
<path style=" stroke:none;fill-rule:nonzero;fill:rgb(0%,0%,0%);fill-opacity:1;" d="M 163.488281 87.175781 L 163.488281 82.503906 L 161.738281 82.503906 L 161.738281 81.875 L 165.945312 81.875 L 165.945312 82.503906 L 164.191406 82.503906 L 164.191406 87.175781 Z M 163.488281 87.175781 "/>
<path style=" stroke:none;fill-rule:nonzero;fill:rgb(0%,0%,0%);fill-opacity:1;" d="M 166.738281 87.175781 L 166.738281 83.84375 L 166.160156 83.84375 L 166.160156 83.335938 L 166.738281 83.335938 L 166.738281 82.925781 C 166.738281 82.671875 166.757812 82.480469 166.808594 82.351562 C 166.867188 82.183594 166.980469 82.050781 167.136719 81.945312 C 167.292969 81.839844 167.515625 81.789062 167.800781 81.785156 C 167.984375 81.789062 168.1875 81.8125 168.410156 81.851562 L 168.3125 82.417969 C 168.175781 82.394531 168.050781 82.386719 167.929688 82.382812 C 167.730469 82.386719 167.589844 82.429688 167.507812 82.511719 C 167.425781 82.597656 167.382812 82.753906 167.386719 82.980469 L 167.386719 83.335938 L 168.136719 83.335938 L 168.136719 83.84375 L 167.386719 83.84375 L 167.386719 87.175781 Z M 166.738281 87.175781 "/>
<path style=" stroke:none;fill-rule:nonzero;fill:rgb(0%,0%,0%);fill-opacity:1;" d="M 168.511719 84.59375 C 168.511719 83.714844 168.75 83.027344 169.222656 82.527344 C 169.695312 82.035156 170.304688 81.785156 171.054688 81.785156 C 171.542969 81.785156 171.984375 81.902344 172.378906 82.132812 C 172.769531 82.367188 173.074219 82.695312 173.277344 83.113281 C 173.484375 83.53125 173.589844 84.003906 173.589844 84.53125 C 173.589844 85.070312 173.480469 85.554688 173.261719 85.976562 C 173.046875 86.402344 172.734375 86.722656 172.339844 86.9375 C 171.9375 87.15625 171.507812 87.261719 171.050781 87.261719 C 170.550781 87.261719 170.105469 87.144531 169.710938 86.902344 C 169.316406 86.664062 169.019531 86.335938 168.816406 85.917969 C 168.613281 85.503906 168.511719 85.058594 168.511719 84.59375 Z M 169.238281 84.605469 C 169.238281 85.246094 169.410156 85.75 169.753906 86.113281 C 170.097656 86.484375 170.527344 86.667969 171.046875 86.664062 C 171.574219 86.667969 172.007812 86.480469 172.351562 86.109375 C 172.691406 85.738281 172.863281 85.210938 172.867188 84.527344 C 172.863281 84.097656 172.789062 83.722656 172.644531 83.398438 C 172.496094 83.078125 172.28125 82.828125 172.003906 82.652344 C 171.722656 82.476562 171.40625 82.386719 171.058594 82.386719 C 170.5625 82.386719 170.132812 82.554688 169.777344 82.898438 C 169.417969 83.238281 169.238281 83.808594 169.238281 84.605469 Z M 169.238281 84.605469 "/>
<path style="fill:none;stroke-width:0.0333333;stroke-linecap:butt;stroke-linejoin:miter;stroke:rgb(0%,0%,0%);stroke-opacity:1;stroke-miterlimit:10;" d="M 0.226484 2.841289 L -0.236908 2.841289 L -0.236908 -0.248097 L 0.226484 -0.248097 " transform="matrix(27.809524,0,0,27.75,93.271892,8.419849)"/>
<path style="fill:none;stroke-width:0.0333333;stroke-linecap:butt;stroke-linejoin:miter;stroke:rgb(0%,0%,0%);stroke-opacity:1;stroke-miterlimit:10;" d="M 1.965153 -0.248097 L 2.428686 -0.248097 L 2.428686 2.841289 L 1.965153 2.841289 " transform="matrix(27.809524,0,0,27.75,93.271892,8.419849)"/>
</g>
</svg>
