<?xml version="1.0" encoding="UTF-8"?>
<svg xmlns="http://www.w3.org/2000/svg" xmlns:xlink="http://www.w3.org/1999/xlink" width="149.6pt" height="13.6pt" viewBox="0 0 149.6 13.6" version="1.1">
<g id="surface1377">
<path style=" stroke:none;fill-rule:nonzero;fill:rgb(0%,0%,0%);fill-opacity:1;" d="M 33.753906 11.527344 L 36.800781 3.738281 L 37.929688 3.738281 L 41.175781 11.527344 L 39.980469 11.527344 L 39.054688 9.167969 L 35.738281 9.167969 L 34.867188 11.527344 Z M 36.042969 8.328125 L 38.730469 8.328125 L 37.902344 6.171875 C 37.648438 5.519531 37.460938 4.984375 37.339844 4.558594 C 37.238281 5.058594 37.09375 5.554688 36.914062 6.046875 Z M 36.042969 8.328125 "/>
<path style=" stroke:none;fill-rule:nonzero;fill:rgb(0%,0%,0%);fill-opacity:1;" d="M 32.824219 12.066406 L 32.175781 12.066406 L 32.175781 8.007812 C 32.019531 8.15625 31.8125 8.300781 31.5625 8.445312 C 31.304688 8.59375 31.078125 8.703125 30.878906 8.773438 L 30.878906 8.15625 C 31.238281 7.992188 31.554688 7.789062 31.828125 7.550781 C 32.101562 7.308594 32.292969 7.078125 32.410156 6.851562 L 32.824219 6.851562 Z M 32.824219 12.066406 "/>
<path style=" stroke:none;fill-rule:nonzero;fill:rgb(0%,0%,0%);fill-opacity:1;" d="M 42.097656 3.207031 L 43.804688 3.207031 L 43.804688 1.53125 L 44.546875 1.53125 L 44.546875 3.207031 L 46.253906 3.207031 L 46.253906 3.933594 L 44.546875 3.933594 L 44.546875 5.609375 L 43.804688 5.609375 L 43.804688 3.933594 L 42.097656 3.933594 "/>
<path style=" stroke:none;fill-rule:nonzero;fill:rgb(0%,0%,0%);fill-opacity:1;" d="M 6.050781 11.527344 L 9.09375 3.738281 L 10.226562 3.738281 L 13.472656 11.527344 L 12.277344 11.527344 L 11.351562 9.167969 L 8.035156 9.167969 L 7.164062 11.527344 Z M 8.339844 8.328125 L 11.027344 8.328125 L 10.199219 6.171875 C 9.945312 5.519531 9.757812 4.984375 9.636719 4.558594 C 9.535156 5.058594 9.390625 5.554688 9.210938 6.046875 Z M 8.339844 8.328125 "/>
<path style=" stroke:none;fill-rule:nonzero;fill:rgb(0%,0%,0%);fill-opacity:1;" d="M 5.125 11.453125 L 5.125 12.066406 L 1.632812 12.066406 C 1.625 11.914062 1.648438 11.765625 1.707031 11.625 C 1.792969 11.394531 1.933594 11.160156 2.132812 10.933594 C 2.328125 10.707031 2.609375 10.445312 2.984375 10.148438 C 3.554688 9.683594 3.941406 9.320312 4.148438 9.050781 C 4.347656 8.78125 4.449219 8.523438 4.449219 8.28125 C 4.449219 8.03125 4.359375 7.816406 4.175781 7.640625 C 3.992188 7.46875 3.75 7.382812 3.453125 7.382812 C 3.140625 7.382812 2.890625 7.476562 2.707031 7.65625 C 2.515625 7.84375 2.421875 8.097656 2.421875 8.421875 L 1.753906 8.355469 C 1.796875 7.871094 1.96875 7.496094 2.265625 7.238281 C 2.566406 6.984375 2.964844 6.855469 3.472656 6.851562 C 3.976562 6.855469 4.378906 6.992188 4.675781 7.265625 C 4.96875 7.546875 5.117188 7.890625 5.117188 8.296875 C 5.117188 8.503906 5.074219 8.710938 4.988281 8.910156 C 4.898438 9.109375 4.757812 9.324219 4.554688 9.542969 C 4.355469 9.765625 4.023438 10.070312 3.558594 10.453125 C 3.167969 10.777344 2.917969 10.996094 2.804688 11.109375 C 2.695312 11.226562 2.601562 11.339844 2.53125 11.453125 Z M 5.125 11.453125 "/>
<path style=" stroke:none;fill-rule:nonzero;fill:rgb(0%,0%,0%);fill-opacity:1;" d="M 14.394531 3.207031 L 18.550781 3.207031 L 18.550781 3.933594 L 14.394531 3.933594 "/>
<path style="fill:none;stroke-width:0.0333333;stroke-linecap:butt;stroke-linejoin:miter;stroke:rgb(0%,0%,0%);stroke-opacity:1;stroke-miterlimit:10;" d="M 0.652337 -0.0000459684 L 0.427299 -0.0000459684 " transform="matrix(27.703704,0,0,27.2,9.75988,7.634063)"/>
<path style=" stroke:none;fill-rule:nonzero;fill:rgb(0%,0%,0%);fill-opacity:1;" d="M 57.332031 7.648438 L 91.964844 7.648438 L 91.964844 10.199219 L 98.890625 6.800781 L 91.964844 3.398438 L 91.964844 5.949219 L 57.332031 5.949219 "/>
<path style=" stroke:none;fill-rule:nonzero;fill:rgb(0%,0%,0%);fill-opacity:1;" d="M 140.546875 10.425781 L 143.59375 2.636719 L 144.726562 2.636719 L 147.972656 10.425781 L 146.777344 10.425781 L 145.851562 8.066406 L 142.535156 8.066406 L 141.664062 10.425781 Z M 142.835938 7.226562 L 145.527344 7.226562 L 144.699219 5.070312 C 144.445312 4.417969 144.257812 3.878906 144.136719 3.457031 C 144.03125 3.957031 143.890625 4.453125 143.707031 4.941406 Z M 142.835938 7.226562 "/>
<path style=" stroke:none;fill-rule:nonzero;fill:rgb(0%,0%,0%);fill-opacity:1;" d="M 139.625 10.351562 L 139.625 10.964844 L 136.128906 10.964844 C 136.121094 10.8125 136.148438 10.664062 136.207031 10.519531 C 136.292969 10.289062 136.433594 10.058594 136.628906 9.832031 C 136.824219 9.605469 137.109375 9.34375 137.480469 9.042969 C 138.054688 8.582031 138.441406 8.21875 138.644531 7.949219 C 138.847656 7.679688 138.949219 7.421875 138.949219 7.179688 C 138.949219 6.925781 138.855469 6.714844 138.671875 6.539062 C 138.488281 6.367188 138.246094 6.28125 137.953125 6.28125 C 137.640625 6.28125 137.390625 6.371094 137.203125 6.554688 C 137.015625 6.742188 136.917969 6.996094 136.917969 7.320312 L 136.25 7.253906 C 136.292969 6.769531 136.46875 6.394531 136.765625 6.136719 C 137.0625 5.882812 137.464844 5.753906 137.96875 5.75 C 138.476562 5.753906 138.875 5.890625 139.171875 6.164062 C 139.464844 6.445312 139.613281 6.785156 139.617188 7.191406 C 139.613281 7.402344 139.570312 7.609375 139.488281 7.808594 C 139.398438 8.007812 139.253906 8.222656 139.054688 8.441406 C 138.855469 8.664062 138.519531 8.96875 138.054688 9.351562 C 137.667969 9.675781 137.414062 9.894531 137.304688 10.007812 C 137.191406 10.121094 137.101562 10.238281 137.03125 10.351562 Z M 139.625 10.351562 "/>
<path style=" stroke:none;fill-rule:nonzero;fill:rgb(0%,0%,0%);fill-opacity:1;" d="M 112.84375 10.425781 L 115.890625 2.636719 L 117.019531 2.636719 L 120.269531 10.425781 L 119.070312 10.425781 L 118.148438 8.066406 L 114.828125 8.066406 L 113.957031 10.425781 Z M 115.132812 7.226562 L 117.820312 7.226562 L 116.992188 5.070312 C 116.738281 4.417969 116.554688 3.878906 116.429688 3.457031 C 116.328125 3.957031 116.183594 4.453125 116.003906 4.941406 Z M 115.132812 7.226562 "/>
<path style=" stroke:none;fill-rule:nonzero;fill:rgb(0%,0%,0%);fill-opacity:1;" d="M 111.914062 10.964844 L 111.265625 10.964844 L 111.265625 6.902344 C 111.109375 7.050781 110.902344 7.199219 110.652344 7.34375 C 110.394531 7.492188 110.167969 7.597656 109.96875 7.671875 L 109.96875 7.054688 C 110.332031 6.890625 110.648438 6.6875 110.921875 6.445312 C 111.191406 6.207031 111.382812 5.976562 111.5 5.75 L 111.914062 5.75 Z M 111.914062 10.964844 "/>
<path style="fill:none;stroke-width:0.0333333;stroke-linecap:butt;stroke-linejoin:miter;stroke:rgb(0%,0%,0%);stroke-opacity:1;stroke-miterlimit:10;" d="M 0.243942 0.0833266 L 0.596303 0.0833266 " transform="matrix(27.703704,0,0,27.2,116.554411,6.530391)"/>
<path style="fill:none;stroke-width:0.0333333;stroke-linecap:butt;stroke-linejoin:miter;stroke:rgb(0%,0%,0%);stroke-opacity:1;stroke-miterlimit:10;" d="M 0.243942 -0.0834071 L 0.596303 -0.0834071 " transform="matrix(27.703704,0,0,27.2,116.554411,6.530391)"/>
</g>
</svg>
