<?xml version="1.0" encoding="UTF-8"?>
<svg xmlns="http://www.w3.org/2000/svg" xmlns:xlink="http://www.w3.org/1999/xlink" width="74.4pt" height="32.8pt" viewBox="0 0 74.4 32.8" version="1.1">
<g id="surface1777">
<path style=" stroke:none;fill-rule:nonzero;fill:rgb(13.72549%,12.156863%,12.54902%);fill-opacity:1;" d="M 0.289062 32.226562 L 0.527344 29.472656 C 1.601562 30.128906 2.628906 30.457031 3.605469 30.457031 C 4.253906 30.457031 4.8125 30.285156 5.285156 29.9375 C 5.753906 29.59375 5.992188 29.082031 5.992188 28.398438 C 5.992188 27.707031 5.789062 27.214844 5.378906 26.925781 C 4.96875 26.632812 4.234375 26.234375 3.179688 25.726562 C 2.121094 25.21875 1.328125 24.652344 0.796875 24.023438 C 0.265625 23.398438 0 22.492188 0 21.308594 C 0 20.335938 0.222656 19.519531 0.667969 18.863281 C 1.113281 18.207031 1.703125 17.722656 2.4375 17.414062 C 3.171875 17.109375 3.964844 16.953125 4.8125 16.953125 C 5.992188 16.953125 7.078125 17.152344 8.066406 17.546875 L 7.847656 20.074219 C 6.867188 19.570312 5.929688 19.316406 5.03125 19.316406 C 4.4375 19.316406 3.921875 19.46875 3.488281 19.769531 C 3.054688 20.070312 2.839844 20.527344 2.839844 21.148438 C 2.839844 21.753906 3.015625 22.175781 3.371094 22.417969 C 3.726562 22.660156 4.464844 23.058594 5.589844 23.609375 C 6.71875 24.164062 7.550781 24.761719 8.09375 25.40625 C 8.636719 26.050781 8.90625 26.953125 8.90625 28.117188 C 8.90625 29.714844 8.417969 30.914062 7.433594 31.710938 C 6.449219 32.511719 5.214844 32.910156 3.726562 32.910156 C 2.601562 32.910156 1.457031 32.683594 0.289062 32.226562 Z M 0.289062 32.226562 "/>
<path style=" stroke:none;fill-rule:nonzero;fill:rgb(13.72549%,12.156863%,12.54902%);fill-opacity:1;" d="M 18.191406 30 L 18.332031 32.476562 C 17.457031 32.765625 16.679688 32.910156 15.988281 32.910156 C 15.210938 32.910156 14.5 32.777344 13.855469 32.511719 C 13.214844 32.246094 12.664062 31.859375 12.207031 31.34375 C 11.75 30.832031 11.398438 30.214844 11.160156 29.496094 C 10.917969 28.777344 10.796875 27.976562 10.796875 27.085938 C 10.796875 25.972656 11.011719 24.980469 11.4375 24.113281 C 11.867188 23.25 12.46875 22.574219 13.242188 22.097656 C 14.019531 21.617188 14.902344 21.378906 15.890625 21.378906 C 16.601562 21.378906 17.34375 21.5 18.113281 21.746094 L 17.898438 24.109375 C 17.300781 23.847656 16.765625 23.71875 16.296875 23.71875 C 15.46875 23.71875 14.800781 24.039062 14.289062 24.683594 C 13.777344 25.328125 13.523438 26.121094 13.523438 27.066406 C 13.523438 28.082031 13.785156 28.902344 14.308594 29.523438 C 14.832031 30.148438 15.542969 30.457031 16.445312 30.457031 C 16.988281 30.457031 17.570312 30.304688 18.191406 30 Z M 18.191406 30 "/>
<path style=" stroke:none;fill-rule:nonzero;fill:rgb(13.72549%,12.156863%,12.54902%);fill-opacity:1;" d="M 22.765625 32.910156 L 20.160156 32.910156 L 20.160156 21.554688 L 22.765625 21.554688 Z M 22.765625 32.910156 "/>
<path style=" stroke:none;fill-rule:nonzero;fill:rgb(13.72549%,12.156863%,12.54902%);fill-opacity:1;" d="M 22.765625 19.441406 L 20.160156 19.441406 L 20.160156 17.539062 L 22.765625 17.539062 Z M 22.765625 19.441406 "/>
<path style=" stroke:none;fill-rule:nonzero;fill:rgb(13.72549%,12.156863%,12.54902%);fill-opacity:1;" d="M 30.625 32.910156 L 27.972656 32.910156 L 27.972656 20.140625 L 24.265625 20.140625 L 24.265625 17.613281 L 34.382812 17.613281 L 34.382812 20.140625 L 30.625 20.140625 Z M 30.625 32.910156 "/>
<path style=" stroke:none;fill-rule:nonzero;fill:rgb(13.72549%,12.156863%,12.54902%);fill-opacity:1;" d="M 43.429688 27.042969 C 43.429688 28.195312 43.214844 29.214844 42.792969 30.105469 C 42.367188 30.992188 41.769531 31.683594 40.996094 32.171875 C 40.226562 32.664062 39.34375 32.910156 38.359375 32.910156 C 37.363281 32.910156 36.488281 32.652344 35.726562 32.144531 C 34.964844 31.636719 34.378906 30.921875 33.972656 30.007812 C 33.5625 29.09375 33.355469 28.050781 33.355469 26.878906 C 33.355469 26.003906 33.476562 25.203125 33.714844 24.476562 C 33.953125 23.753906 34.292969 23.128906 34.734375 22.601562 C 35.179688 22.074219 35.710938 21.671875 36.335938 21.386719 C 36.957031 21.105469 37.640625 20.960938 38.382812 20.960938 C 39.378906 20.960938 40.261719 21.222656 41.027344 21.742188 C 41.796875 22.261719 42.386719 22.988281 42.804688 23.914062 C 43.21875 24.839844 43.429688 25.882812 43.429688 27.042969 Z M 40.800781 26.96875 C 40.800781 26.34375 40.71875 25.738281 40.546875 25.152344 C 40.378906 24.570312 40.113281 24.085938 39.746094 23.710938 C 39.378906 23.332031 38.925781 23.140625 38.382812 23.140625 C 37.613281 23.140625 37.015625 23.523438 36.59375 24.292969 C 36.171875 25.0625 35.960938 25.925781 35.960938 26.878906 C 35.960938 27.898438 36.167969 28.796875 36.574219 29.570312 C 36.984375 30.34375 37.601562 30.730469 38.425781 30.730469 C 38.953125 30.730469 39.394531 30.542969 39.753906 30.167969 C 40.113281 29.789062 40.378906 29.3125 40.546875 28.730469 C 40.71875 28.148438 40.800781 27.5625 40.800781 26.96875 Z M 40.800781 26.96875 "/>
<path style=" stroke:none;fill-rule:nonzero;fill:rgb(13.72549%,12.156863%,12.54902%);fill-opacity:1;" d="M 54.164062 21.371094 L 54.164062 28.296875 C 54.191406 30.273438 54.230469 31.75 54.273438 32.726562 L 51.929688 32.726562 L 51.839844 30.988281 C 51.519531 31.582031 51.085938 32.050781 50.53125 32.394531 C 49.980469 32.738281 49.402344 32.910156 48.792969 32.910156 C 47.886719 32.910156 47.183594 32.691406 46.675781 32.25 C 46.167969 31.8125 45.824219 31.222656 45.636719 30.476562 C 45.453125 29.730469 45.359375 28.832031 45.359375 27.769531 L 45.359375 21.371094 L 47.867188 21.371094 L 47.867188 26.832031 C 47.867188 27.929688 47.96875 28.808594 48.175781 29.46875 C 48.382812 30.128906 48.867188 30.457031 49.625 30.457031 C 50.152344 30.457031 50.566406 30.265625 50.867188 29.878906 C 51.171875 29.496094 51.378906 29.023438 51.488281 28.464844 C 51.597656 27.90625 51.65625 27.316406 51.65625 26.699219 L 51.65625 21.371094 Z M 54.164062 21.371094 "/>
<path style=" stroke:none;fill-rule:nonzero;fill:rgb(13.72549%,12.156863%,12.54902%);fill-opacity:1;" d="M 63.78125 30 L 63.921875 32.476562 C 63.039062 32.765625 62.246094 32.910156 61.550781 32.910156 C 60.761719 32.910156 60.039062 32.777344 59.390625 32.511719 C 58.738281 32.246094 58.179688 31.859375 57.71875 31.34375 C 57.253906 30.832031 56.898438 30.214844 56.65625 29.496094 C 56.410156 28.777344 56.289062 27.976562 56.289062 27.085938 C 56.289062 25.972656 56.503906 24.980469 56.9375 24.113281 C 57.375 23.25 57.984375 22.574219 58.769531 22.097656 C 59.554688 21.617188 60.445312 21.378906 61.449219 21.378906 C 62.171875 21.378906 62.921875 21.5 63.703125 21.746094 L 63.484375 24.109375 C 62.878906 23.847656 62.335938 23.71875 61.863281 23.71875 C 61.023438 23.71875 60.34375 24.039062 59.828125 24.683594 C 59.308594 25.328125 59.050781 26.121094 59.050781 27.066406 C 59.050781 28.082031 59.316406 28.902344 59.847656 29.523438 C 60.378906 30.148438 61.097656 30.457031 62.011719 30.457031 C 62.5625 30.457031 63.152344 30.304688 63.78125 30 Z M 63.78125 30 "/>
<path style=" stroke:none;fill-rule:nonzero;fill:rgb(13.72549%,12.156863%,12.54902%);fill-opacity:1;" d="M 74.597656 32.910156 L 71.984375 32.910156 L 71.984375 27.40625 C 71.984375 26.707031 71.953125 26.117188 71.886719 25.628906 C 71.824219 25.140625 71.660156 24.714844 71.394531 24.351562 C 71.128906 23.988281 70.726562 23.804688 70.183594 23.804688 C 69.34375 23.804688 68.757812 24.191406 68.425781 24.953125 C 68.089844 25.71875 67.925781 26.628906 67.925781 27.679688 L 67.925781 32.910156 L 65.308594 32.910156 L 65.308594 16.398438 L 67.925781 16.398438 L 67.925781 23.164062 C 68.671875 21.957031 69.738281 21.355469 71.121094 21.355469 C 71.820312 21.355469 72.402344 21.480469 72.863281 21.734375 C 73.324219 21.988281 73.679688 22.335938 73.929688 22.78125 C 74.179688 23.226562 74.355469 23.746094 74.453125 24.347656 C 74.550781 24.945312 74.597656 25.628906 74.597656 26.398438 Z M 74.597656 32.910156 "/>
<path style=" stroke:none;fill-rule:nonzero;fill:rgb(0.392157%,58.823529%,100%);fill-opacity:1;" d="M 29.40625 7.570312 C 29.40625 10.359375 30.339844 12.953125 31.949219 15.144531 C 33.554688 12.953125 34.488281 10.359375 34.488281 7.570312 C 34.488281 4.785156 33.554688 2.191406 31.949219 0 C 30.339844 2.191406 29.40625 4.785156 29.40625 7.570312 Z M 29.40625 7.570312 "/>
<path style=" stroke:none;fill-rule:nonzero;fill:rgb(33.72549%,65.490196%,0%);fill-opacity:1;" d="M 21.914062 11.425781 C 23.859375 13.449219 26.351562 14.699219 29.046875 15.199219 C 28.683594 12.523438 27.550781 10.003906 25.601562 7.980469 C 23.65625 5.960938 21.164062 4.707031 18.46875 4.207031 C 18.832031 6.886719 19.964844 9.402344 21.914062 11.425781 Z M 21.914062 11.425781 "/>
<path style=" stroke:none;fill-rule:nonzero;fill:rgb(100%,72.941176%,0%);fill-opacity:1;" d="M 38.089844 8.367188 C 36.054688 10.304688 34.808594 12.769531 34.324219 15.429688 C 37.042969 15.046875 39.585938 13.902344 41.621094 11.964844 C 43.65625 10.027344 44.902344 7.5625 45.382812 4.902344 C 42.667969 5.289062 40.121094 6.429688 38.089844 8.367188 Z M 38.089844 8.367188 "/>
<path style=" stroke:none;fill-rule:nonzero;fill:rgb(83.137255%,0%,0.784314%);fill-opacity:1;" d="M 43.273438 14.800781 C 40.445312 14.769531 37.796875 15.65625 35.554688 17.214844 C 37.757812 18.820312 40.382812 19.773438 43.214844 19.804688 C 46.042969 19.839844 48.691406 18.949219 50.933594 17.394531 C 48.730469 15.785156 46.101562 14.835938 43.273438 14.800781 Z M 43.273438 14.800781 "/>
</g>
</svg>
