<svg xmlns="http://www.w3.org/2000/svg" width="312.875" height="110.088"><defs><clipPath id="a"><path d="M0 0h2503v880.746H0V0z"/></clipPath></defs><g clip-path="url(#a)" transform="matrix(.125 0 0 -.125 0 110.088)"><path d="M472.504 581.254h138.41V728.23c0 41.012-20.496 61.52-61.512 61.52h-15.38c-41.01 0-61.518-20.508-61.518-61.52V581.254zm-.313-93.793l.32-161.66c0-41.01 20.51-61.52 61.52-61.52h17.94c41.015 0 61.518 20.51 61.518 61.52v79.47h94.84v-75.62c0-103.813-52.542-156.36-156.354-156.36h-20.51c-103.81 0-156.354 52.547-156.354 144.203v394.74c0 115.966 52.542 168.517 156.354 168.517h20.51c103.81 0 156.354-52.55 156.354-156.367l-.31-236.922H472.19m396.818-186.01c26.914-23.062 57.676-35.88 89.715-35.88 35.886 0 56.397 16.658 56.397 56.388v410.12c0 39.736-20.51 56.392-56.397 56.392-32.04 0-62.8-12.82-89.715-35.89V301.444zm-97.406 571.61h97.406V828.2c23.07 24.355 62.8 52.55 119.195 52.55 83.307 0 124.317-55.11 124.317-137.133v-433.19c0-82.028-41.01-137.138-124.317-137.138-56.394 0-96.125 26.91-119.195 49.98V0h-97.406v873.055m632.968-575.45v228.282l-88.43-33.477c-35.89-14.1-47.42-32.04-47.42-71.77V315.548c0-33.324 16.66-49.98 47.42-49.98 29.47 0 56.39 10.25 88.43 32.038zm-233.26 124.32c0 85.864 28.2 120.47 102.53 146.098l130.73 44.864V728.23c0 41.012-20.51 62.8-61.52 62.8h-15.87c-41.01 0-61.52-21.788-61.52-62.8v-98.027h-94.84v94.18c0 103.812 52.55 156.363 156.36 156.363h18.43c103.81 0 156.36-52.55 156.36-156.363V180.977h-97.4v43.578c-26.91-25.637-62.8-51.27-119.19-51.27-78.18 0-114.07 44.86-114.07 121.754v126.88m724.61-240.95h-97.41v557.51c0 34.605-16.65 49.984-46.13 49.984-26.92 0-55.11-10.25-89.72-34.602V180.977h-97.4v692.078h97.4v-44.86c28.2 26.914 65.37 52.55 119.2 52.55 49.98 0 83.3-20.507 101.24-56.393 34.61 29.48 75.62 56.394 132.01 56.394 75.62 0 114.07-46.144 114.07-121.758v-578.01h-97.41V738.48c0 34.606-16.66 49.985-46.14 49.985-26.91 0-55.11-10.25-89.71-34.602V180.977" fill="#3f3e42"/><path d="M250.262 809.312V682.047L86.34 525.847l163.922-153.41V242.392L0 477.64v93.63l250.262 238.042M2503.02 571.27v-93.63l-250.26-235.25v130.05l163.92 153.41-163.92 156.2v127.26l250.26-238.042" fill="#29b9d2"/></g></svg>